<svg style="width: 200px; height: 100px;" viewbox="0 0 200 100"><style>
.stroke_order_diagram--outer_container {
  width: 100%;
  overflow-x: auto;
  overflow-y: hidden;
}

.stroke_order_diagram--guide_line {
  fill: none;
  stroke: #ddd;
  stroke-width: 3;
  stroke-linecap: square;
  stroke-linejoin: square;
  stroke-dasharray:8, 8;
}

.stroke_order_diagram--bounding_box {
  fill: none;
  stroke: #ddd;
  stroke-width: 4;
  stroke-linecap: square;
  stroke-linejoin: square;
}

.stroke_order_diagram--current_path {
  fill: none;
  stroke: #000;
  stroke-width: 6;
  stroke-linecap: round;
  stroke-linejoin: round;
}

.stroke_order_diagram--existing_path {
  fill: none;
  stroke: #aaa;
  stroke-width: 6;
  stroke-linecap: round;
  stroke-linejoin:round;
}

.stroke_order_diagram--path_start {
  fill: rgba(255, 0, 0, 0.7);
  stroke:none
}</style><desc>Created with Snap</desc><defs></defs><line x1="1" x2="199" y1="1" y2="1" class="stroke_order_diagram--bounding_box"></line><line x1="1" x2="1" y1="1" y2="99" class="stroke_order_diagram--bounding_box"></line><line x1="1" x2="199" y1="99" y2="99" class="stroke_order_diagram--bounding_box"></line><line x1="0" x2="200" y1="50" y2="50" class="stroke_order_diagram--guide_line"></line><line x1="50" x2="50" y1="1" y2="99" class="stroke_order_diagram--guide_line"></line><line x1="99" x2="99" y1="1" y2="99" class="stroke_order_diagram--bounding_box"></line><path id="kvg:04e03-s1" kvg:type="㇐" d="M15.5,51.75c1.82,0.5,4.38,0.88,6.96,0.5c16.91-2.45,50.92-8.12,64.44-8.74c3.02-0.14,4.84,0.24,6.35,0.49" transform="matrix(1,0,0,1,-4,-4)" class="stroke_order_diagram--current_path"></path><path id="pathSk2v596cnm" kvg:type="㇐" d="M15.5,51.75c1.82,0.5,4.38,0.88,6.96,0.5c16.91-2.45,50.92-8.12,64.44-8.74c3.02-0.14,4.84,0.24,6.35,0.49" transform="matrix(1,0,0,1,-4,-4)" class="stroke_order_diagram--current_path"></path><circle cx="15.5" cy="51.75" r="8" class="stroke_order_diagram--path_start" transform="matrix(1,0,0,1,-4,-4)"></circle><line x1="150" x2="150" y1="1" y2="99" class="stroke_order_diagram--guide_line"></line><line x1="199" x2="199" y1="1" y2="99" class="stroke_order_diagram--bounding_box"></line><path id="pathSk2v596cnp" kvg:type="㇐" d="M15.5,51.75c1.82,0.5,4.38,0.88,6.96,0.5c16.91-2.45,50.92-8.12,64.44-8.74c3.02-0.14,4.84,0.24,6.35,0.49" transform="matrix(1,0,0,1,96,-4)" class="stroke_order_diagram--existing_path"></path><path id="kvg:04e03-s2" kvg:type="㇟" d="M43,20c1.38,1.38,2.15,3.25,2.15,5.26C45.15,29.5,45,71.84,45,76c0,10.5,2.25,12.25,20.25,12.25c18.75,0,20-3.75,20-12.31" transform="matrix(1,0,0,1,96,-4)" class="stroke_order_diagram--current_path"></path><path id="pathSk2v596cnr" kvg:type="㇟" d="M43,20c1.38,1.38,2.15,3.25,2.15,5.26C45.15,29.5,45,71.84,45,76c0,10.5,2.25,12.25,20.25,12.25c18.75,0,20-3.75,20-12.31" transform="matrix(1,0,0,1,96,-4)" class="stroke_order_diagram--current_path"></path><circle cx="43" cy="20" r="8" class="stroke_order_diagram--path_start" transform="matrix(1,0,0,1,96,-4)"></circle></svg>