<svg style="width: 700px; height: 100px;" viewbox="0 0 700 100"><style>
.stroke_order_diagram--outer_container {
  width: 100%;
  overflow-x: auto;
  overflow-y: hidden;
}

.stroke_order_diagram--guide_line {
  fill: none;
  stroke: #ddd;
  stroke-width: 3;
  stroke-linecap: square;
  stroke-linejoin: square;
  stroke-dasharray:8, 8;
}

.stroke_order_diagram--bounding_box {
  fill: none;
  stroke: #ddd;
  stroke-width: 4;
  stroke-linecap: square;
  stroke-linejoin: square;
}

.stroke_order_diagram--current_path {
  fill: none;
  stroke: #000;
  stroke-width: 6;
  stroke-linecap: round;
  stroke-linejoin: round;
}

.stroke_order_diagram--existing_path {
  fill: none;
  stroke: #aaa;
  stroke-width: 6;
  stroke-linecap: round;
  stroke-linejoin:round;
}

.stroke_order_diagram--path_start {
  fill: rgba(255, 0, 0, 0.7);
  stroke:none
}</style><desc>Created with Snap</desc><defs></defs><line x1="1" x2="699" y1="1" y2="1" class="stroke_order_diagram--bounding_box"></line><line x1="1" x2="1" y1="1" y2="99" class="stroke_order_diagram--bounding_box"></line><line x1="1" x2="699" y1="99" y2="99" class="stroke_order_diagram--bounding_box"></line><line x1="0" x2="700" y1="50" y2="50" class="stroke_order_diagram--guide_line"></line><line x1="50" x2="50" y1="1" y2="99" class="stroke_order_diagram--guide_line"></line><line x1="99" x2="99" y1="1" y2="99" class="stroke_order_diagram--bounding_box"></line><path id="kvg:04e71-s1" kvg:type="㇒" d="M45.63,17.75c-0.13,0.62-0.5,1.5-1.36,2.15c-3.68,2.81-12.61,7.84-28.4,11.96" transform="matrix(1,0,0,1,-4,-4)" class="stroke_order_diagram--current_path"></path><path id="pathSk2v596cn15ne" kvg:type="㇒" d="M45.63,17.75c-0.13,0.62-0.5,1.5-1.36,2.15c-3.68,2.81-12.61,7.84-28.4,11.96" transform="matrix(1,0,0,1,-4,-4)" class="stroke_order_diagram--current_path"></path><circle cx="45.63" cy="17.75" r="8" class="stroke_order_diagram--path_start" transform="matrix(1,0,0,1,-4,-4)"></circle><line x1="150" x2="150" y1="1" y2="99" class="stroke_order_diagram--guide_line"></line><line x1="199" x2="199" y1="1" y2="99" class="stroke_order_diagram--bounding_box"></line><path id="pathSk2v596cn15nh" kvg:type="㇒" d="M45.63,17.75c-0.13,0.62-0.5,1.5-1.36,2.15c-3.68,2.81-12.61,7.84-28.4,11.96" transform="matrix(1,0,0,1,96,-4)" class="stroke_order_diagram--existing_path"></path><path id="kvg:04e71-s2" kvg:type="㇐" d="M12.11,48.05c1.86,0.51,3.87,0.3,5.75,0.05c6.74-0.9,19.89-2.99,28.52-3.94c2.39-0.26,4.9-0.29,7.27,0.1" transform="matrix(1,0,0,1,96,-4)" class="stroke_order_diagram--current_path"></path><path id="pathSk2v596cn15nj" kvg:type="㇐" d="M12.11,48.05c1.86,0.51,3.87,0.3,5.75,0.05c6.74-0.9,19.89-2.99,28.52-3.94c2.39-0.26,4.9-0.29,7.27,0.1" transform="matrix(1,0,0,1,96,-4)" class="stroke_order_diagram--current_path"></path><circle cx="12.11" cy="48.05" r="8" class="stroke_order_diagram--path_start" transform="matrix(1,0,0,1,96,-4)"></circle><line x1="250" x2="250" y1="1" y2="99" class="stroke_order_diagram--guide_line"></line><line x1="299" x2="299" y1="1" y2="99" class="stroke_order_diagram--bounding_box"></line><path id="pathSk2v596cn15nm" kvg:type="㇒" d="M45.63,17.75c-0.13,0.62-0.5,1.5-1.36,2.15c-3.68,2.81-12.61,7.84-28.4,11.96" transform="matrix(1,0,0,1,196,-4)" class="stroke_order_diagram--existing_path"></path><path id="pathSk2v596cn15nn" kvg:type="㇐" d="M12.11,48.05c1.86,0.51,3.87,0.3,5.75,0.05c6.74-0.9,19.89-2.99,28.52-3.94c2.39-0.26,4.9-0.29,7.27,0.1" transform="matrix(1,0,0,1,196,-4)" class="stroke_order_diagram--existing_path"></path><path id="kvg:04e71-s3" kvg:type="㇑a" d="M31.64,30.33c0.89,0.89,1.48,2.79,1.48,4.4c0,1.35-0.07,27.74-0.2,32.36" transform="matrix(1,0,0,1,196,-4)" class="stroke_order_diagram--current_path"></path><path id="pathSk2v596cn15np" kvg:type="㇑a" d="M31.64,30.33c0.89,0.89,1.48,2.79,1.48,4.4c0,1.35-0.07,27.74-0.2,32.36" transform="matrix(1,0,0,1,196,-4)" class="stroke_order_diagram--current_path"></path><circle cx="31.64" cy="30.33" r="8" class="stroke_order_diagram--path_start" transform="matrix(1,0,0,1,196,-4)"></circle><line x1="350" x2="350" y1="1" y2="99" class="stroke_order_diagram--guide_line"></line><line x1="399" x2="399" y1="1" y2="99" class="stroke_order_diagram--bounding_box"></line><path id="pathSk2v596cn15ns" kvg:type="㇒" d="M45.63,17.75c-0.13,0.62-0.5,1.5-1.36,2.15c-3.68,2.81-12.61,7.84-28.4,11.96" transform="matrix(1,0,0,1,296,-4)" class="stroke_order_diagram--existing_path"></path><path id="pathSk2v596cn15nt" kvg:type="㇐" d="M12.11,48.05c1.86,0.51,3.87,0.3,5.75,0.05c6.74-0.9,19.89-2.99,28.52-3.94c2.39-0.26,4.9-0.29,7.27,0.1" transform="matrix(1,0,0,1,296,-4)" class="stroke_order_diagram--existing_path"></path><path id="pathSk2v596cn15nu" kvg:type="㇑a" d="M31.64,30.33c0.89,0.89,1.48,2.79,1.48,4.4c0,1.35-0.07,27.74-0.2,32.36" transform="matrix(1,0,0,1,296,-4)" class="stroke_order_diagram--existing_path"></path><path id="kvg:04e71-s4" kvg:type="㇑" d="M16.44,68.35c0.92,0.92,1.41,1.61,1.64,2.85c1.29,6.92,1.71,10.06,2.47,15.54c0.2,1.42,0.4,2.77,0.62,4.01" transform="matrix(1,0,0,1,296,-4)" class="stroke_order_diagram--current_path"></path><path id="pathSk2v596cn15nw" kvg:type="㇑" d="M16.44,68.35c0.92,0.92,1.41,1.61,1.64,2.85c1.29,6.92,1.71,10.06,2.47,15.54c0.2,1.42,0.4,2.77,0.62,4.01" transform="matrix(1,0,0,1,296,-4)" class="stroke_order_diagram--current_path"></path><circle cx="16.44" cy="68.35" r="8" class="stroke_order_diagram--path_start" transform="matrix(1,0,0,1,296,-4)"></circle><line x1="450" x2="450" y1="1" y2="99" class="stroke_order_diagram--guide_line"></line><line x1="499" x2="499" y1="1" y2="99" class="stroke_order_diagram--bounding_box"></line><path id="pathSk2v596cn15nz" kvg:type="㇒" d="M45.63,17.75c-0.13,0.62-0.5,1.5-1.36,2.15c-3.68,2.81-12.61,7.84-28.4,11.96" transform="matrix(1,0,0,1,396,-4)" class="stroke_order_diagram--existing_path"></path><path id="pathSk2v596cn15o0" kvg:type="㇐" d="M12.11,48.05c1.86,0.51,3.87,0.3,5.75,0.05c6.74-0.9,19.89-2.99,28.52-3.94c2.39-0.26,4.9-0.29,7.27,0.1" transform="matrix(1,0,0,1,396,-4)" class="stroke_order_diagram--existing_path"></path><path id="pathSk2v596cn15o1" kvg:type="㇑a" d="M31.64,30.33c0.89,0.89,1.48,2.79,1.48,4.4c0,1.35-0.07,27.74-0.2,32.36" transform="matrix(1,0,0,1,396,-4)" class="stroke_order_diagram--existing_path"></path><path id="pathSk2v596cn15o2" kvg:type="㇑" d="M16.44,68.35c0.92,0.92,1.41,1.61,1.64,2.85c1.29,6.92,1.71,10.06,2.47,15.54c0.2,1.42,0.4,2.77,0.62,4.01" transform="matrix(1,0,0,1,396,-4)" class="stroke_order_diagram--existing_path"></path><path id="kvg:04e71-s5" kvg:type="㇕b" d="M18.73,69.81c12.47-1.86,19.38-2.96,26.39-3.92c4.03-0.55,5.74,0.38,4.52,4.53c-1.09,3.68-1.71,7.03-3.67,14.48" transform="matrix(1,0,0,1,396,-4)" class="stroke_order_diagram--current_path"></path><path id="pathSk2v596cn15o4" kvg:type="㇕b" d="M18.73,69.81c12.47-1.86,19.38-2.96,26.39-3.92c4.03-0.55,5.74,0.38,4.52,4.53c-1.09,3.68-1.71,7.03-3.67,14.48" transform="matrix(1,0,0,1,396,-4)" class="stroke_order_diagram--current_path"></path><circle cx="18.73" cy="69.81" r="8" class="stroke_order_diagram--path_start" transform="matrix(1,0,0,1,396,-4)"></circle><line x1="550" x2="550" y1="1" y2="99" class="stroke_order_diagram--guide_line"></line><line x1="599" x2="599" y1="1" y2="99" class="stroke_order_diagram--bounding_box"></line><path id="pathSk2v596cn15o7" kvg:type="㇒" d="M45.63,17.75c-0.13,0.62-0.5,1.5-1.36,2.15c-3.68,2.81-12.61,7.84-28.4,11.96" transform="matrix(1,0,0,1,496,-4)" class="stroke_order_diagram--existing_path"></path><path id="pathSk2v596cn15o8" kvg:type="㇐" d="M12.11,48.05c1.86,0.51,3.87,0.3,5.75,0.05c6.74-0.9,19.89-2.99,28.52-3.94c2.39-0.26,4.9-0.29,7.27,0.1" transform="matrix(1,0,0,1,496,-4)" class="stroke_order_diagram--existing_path"></path><path id="pathSk2v596cn15o9" kvg:type="㇑a" d="M31.64,30.33c0.89,0.89,1.48,2.79,1.48,4.4c0,1.35-0.07,27.74-0.2,32.36" transform="matrix(1,0,0,1,496,-4)" class="stroke_order_diagram--existing_path"></path><path id="pathSk2v596cn15oa" kvg:type="㇑" d="M16.44,68.35c0.92,0.92,1.41,1.61,1.64,2.85c1.29,6.92,1.71,10.06,2.47,15.54c0.2,1.42,0.4,2.77,0.62,4.01" transform="matrix(1,0,0,1,496,-4)" class="stroke_order_diagram--existing_path"></path><path id="pathSk2v596cn15ob" kvg:type="㇕b" d="M18.73,69.81c12.47-1.86,19.38-2.96,26.39-3.92c4.03-0.55,5.74,0.38,4.52,4.53c-1.09,3.68-1.71,7.03-3.67,14.48" transform="matrix(1,0,0,1,496,-4)" class="stroke_order_diagram--existing_path"></path><path id="kvg:04e71-s6" kvg:type="㇐b" d="M21.92,88.21c6.8-0.49,13.06-1.17,21.88-1.82c1.67-0.12,3.39-0.25,5.16-0.4" transform="matrix(1,0,0,1,496,-4)" class="stroke_order_diagram--current_path"></path><path id="pathSk2v596cn15od" kvg:type="㇐b" d="M21.92,88.21c6.8-0.49,13.06-1.17,21.88-1.82c1.67-0.12,3.39-0.25,5.16-0.4" transform="matrix(1,0,0,1,496,-4)" class="stroke_order_diagram--current_path"></path><circle cx="21.92" cy="88.21" r="8" class="stroke_order_diagram--path_start" transform="matrix(1,0,0,1,496,-4)"></circle><line x1="650" x2="650" y1="1" y2="99" class="stroke_order_diagram--guide_line"></line><line x1="699" x2="699" y1="1" y2="99" class="stroke_order_diagram--bounding_box"></line><path id="pathSk2v596cn15og" kvg:type="㇒" d="M45.63,17.75c-0.13,0.62-0.5,1.5-1.36,2.15c-3.68,2.81-12.61,7.84-28.4,11.96" transform="matrix(1,0,0,1,596,-4)" class="stroke_order_diagram--existing_path"></path><path id="pathSk2v596cn15oh" kvg:type="㇐" d="M12.11,48.05c1.86,0.51,3.87,0.3,5.75,0.05c6.74-0.9,19.89-2.99,28.52-3.94c2.39-0.26,4.9-0.29,7.27,0.1" transform="matrix(1,0,0,1,596,-4)" class="stroke_order_diagram--existing_path"></path><path id="pathSk2v596cn15oi" kvg:type="㇑a" d="M31.64,30.33c0.89,0.89,1.48,2.79,1.48,4.4c0,1.35-0.07,27.74-0.2,32.36" transform="matrix(1,0,0,1,596,-4)" class="stroke_order_diagram--existing_path"></path><path id="pathSk2v596cn15oj" kvg:type="㇑" d="M16.44,68.35c0.92,0.92,1.41,1.61,1.64,2.85c1.29,6.92,1.71,10.06,2.47,15.54c0.2,1.42,0.4,2.77,0.62,4.01" transform="matrix(1,0,0,1,596,-4)" class="stroke_order_diagram--existing_path"></path><path id="pathSk2v596cn15ok" kvg:type="㇕b" d="M18.73,69.81c12.47-1.86,19.38-2.96,26.39-3.92c4.03-0.55,5.74,0.38,4.52,4.53c-1.09,3.68-1.71,7.03-3.67,14.48" transform="matrix(1,0,0,1,596,-4)" class="stroke_order_diagram--existing_path"></path><path id="pathSk2v596cn15ol" kvg:type="㇐b" d="M21.92,88.21c6.8-0.49,13.06-1.17,21.88-1.82c1.67-0.12,3.39-0.25,5.16-0.4" transform="matrix(1,0,0,1,596,-4)" class="stroke_order_diagram--existing_path"></path><path id="kvg:04e71-s7" kvg:type="㇟" d="M63.49,19.12c1.26,1.26,1.71,2.88,1.71,5.18c0,8.19,0.04,48.14,0.04,53.7c0,9.62,2.14,11.28,16.79,11.28c13.47,0,14.86-2.28,14.86-8.87" transform="matrix(1,0,0,1,596,-4)" class="stroke_order_diagram--current_path"></path><path id="pathSk2v596cn15on" kvg:type="㇟" d="M63.49,19.12c1.26,1.26,1.71,2.88,1.71,5.18c0,8.19,0.04,48.14,0.04,53.7c0,9.62,2.14,11.28,16.79,11.28c13.47,0,14.86-2.28,14.86-8.87" transform="matrix(1,0,0,1,596,-4)" class="stroke_order_diagram--current_path"></path><circle cx="63.49" cy="19.12" r="8" class="stroke_order_diagram--path_start" transform="matrix(1,0,0,1,596,-4)"></circle></svg>