<svg style="width: 300px; height: 100px;" viewbox="0 0 300 100"><style>
.stroke_order_diagram--outer_container {
  width: 100%;
  overflow-x: auto;
  overflow-y: hidden;
}

.stroke_order_diagram--guide_line {
  fill: none;
  stroke: #ddd;
  stroke-width: 3;
  stroke-linecap: square;
  stroke-linejoin: square;
  stroke-dasharray:8, 8;
}

.stroke_order_diagram--bounding_box {
  fill: none;
  stroke: #ddd;
  stroke-width: 4;
  stroke-linecap: square;
  stroke-linejoin: square;
}

.stroke_order_diagram--current_path {
  fill: none;
  stroke: #000;
  stroke-width: 6;
  stroke-linecap: round;
  stroke-linejoin: round;
}

.stroke_order_diagram--existing_path {
  fill: none;
  stroke: #aaa;
  stroke-width: 6;
  stroke-linecap: round;
  stroke-linejoin:round;
}

.stroke_order_diagram--path_start {
  fill: rgba(255, 0, 0, 0.7);
  stroke:none
}</style><desc>Created with Snap</desc><defs></defs><line x1="1" x2="299" y1="1" y2="1" class="stroke_order_diagram--bounding_box"></line><line x1="1" x2="1" y1="1" y2="99" class="stroke_order_diagram--bounding_box"></line><line x1="1" x2="299" y1="99" y2="99" class="stroke_order_diagram--bounding_box"></line><line x1="0" x2="300" y1="50" y2="50" class="stroke_order_diagram--guide_line"></line><line x1="50" x2="50" y1="1" y2="99" class="stroke_order_diagram--guide_line"></line><line x1="99" x2="99" y1="1" y2="99" class="stroke_order_diagram--bounding_box"></line><path id="kvg:04ea1-s1" kvg:type="㇑a" d="M52.79,14.36c1.61,1.61,1.96,3.64,1.96,6.14c0,4.88,0,10.43,0,15.25" transform="matrix(1,0,0,1,-4,-4)" class="stroke_order_diagram--current_path"></path><path id="pathSk2v596cn5hp" kvg:type="㇑a" d="M52.79,14.36c1.61,1.61,1.96,3.64,1.96,6.14c0,4.88,0,10.43,0,15.25" transform="matrix(1,0,0,1,-4,-4)" class="stroke_order_diagram--current_path"></path><circle cx="52.79" cy="14.36" r="8" class="stroke_order_diagram--path_start" transform="matrix(1,0,0,1,-4,-4)"></circle><line x1="150" x2="150" y1="1" y2="99" class="stroke_order_diagram--guide_line"></line><line x1="199" x2="199" y1="1" y2="99" class="stroke_order_diagram--bounding_box"></line><path id="pathSk2v596cn5hs" kvg:type="㇑a" d="M52.79,14.36c1.61,1.61,1.96,3.64,1.96,6.14c0,4.88,0,10.43,0,15.25" transform="matrix(1,0,0,1,96,-4)" class="stroke_order_diagram--existing_path"></path><path id="kvg:04ea1-s2" kvg:type="㇐" d="M13.38,39.42c3.54,1.09,7.27,0.56,10.87,0.21c14.84-1.44,47.75-4.32,64-4.96c3.13-0.12,6.37-0.44,9.36,0.68" transform="matrix(1,0,0,1,96,-4)" class="stroke_order_diagram--current_path"></path><path id="pathSk2v596cn5hu" kvg:type="㇐" d="M13.38,39.42c3.54,1.09,7.27,0.56,10.87,0.21c14.84-1.44,47.75-4.32,64-4.96c3.13-0.12,6.37-0.44,9.36,0.68" transform="matrix(1,0,0,1,96,-4)" class="stroke_order_diagram--current_path"></path><circle cx="13.38" cy="39.42" r="8" class="stroke_order_diagram--path_start" transform="matrix(1,0,0,1,96,-4)"></circle><line x1="250" x2="250" y1="1" y2="99" class="stroke_order_diagram--guide_line"></line><line x1="299" x2="299" y1="1" y2="99" class="stroke_order_diagram--bounding_box"></line><path id="pathSk2v596cn5hx" kvg:type="㇑a" d="M52.79,14.36c1.61,1.61,1.96,3.64,1.96,6.14c0,4.88,0,10.43,0,15.25" transform="matrix(1,0,0,1,196,-4)" class="stroke_order_diagram--existing_path"></path><path id="pathSk2v596cn5hy" kvg:type="㇐" d="M13.38,39.42c3.54,1.09,7.27,0.56,10.87,0.21c14.84-1.44,47.75-4.32,64-4.96c3.13-0.12,6.37-0.44,9.36,0.68" transform="matrix(1,0,0,1,196,-4)" class="stroke_order_diagram--existing_path"></path><path id="kvg:04ea1-s3" kvg:type="㇄" d="M29.75,43.5c1.06,1.06,1.5,2.88,1.5,5.25c0,12.34,0,24.04,0,28.71c0,10.04,2,12.82,27.75,12.82c12.88,0,21.63-0.41,30.5-3.2" transform="matrix(1,0,0,1,196,-4)" class="stroke_order_diagram--current_path"></path><path id="pathSk2v596cn5i0" kvg:type="㇄" d="M29.75,43.5c1.06,1.06,1.5,2.88,1.5,5.25c0,12.34,0,24.04,0,28.71c0,10.04,2,12.82,27.75,12.82c12.88,0,21.63-0.41,30.5-3.2" transform="matrix(1,0,0,1,196,-4)" class="stroke_order_diagram--current_path"></path><circle cx="29.75" cy="43.5" r="8" class="stroke_order_diagram--path_start" transform="matrix(1,0,0,1,196,-4)"></circle></svg>