<svg style="width: 400px; height: 100px;" viewbox="0 0 400 100"><style>
.stroke_order_diagram--outer_container {
  width: 100%;
  overflow-x: auto;
  overflow-y: hidden;
}

.stroke_order_diagram--guide_line {
  fill: none;
  stroke: #ddd;
  stroke-width: 3;
  stroke-linecap: square;
  stroke-linejoin: square;
  stroke-dasharray:8, 8;
}

.stroke_order_diagram--bounding_box {
  fill: none;
  stroke: #ddd;
  stroke-width: 4;
  stroke-linecap: square;
  stroke-linejoin: square;
}

.stroke_order_diagram--current_path {
  fill: none;
  stroke: #000;
  stroke-width: 6;
  stroke-linecap: round;
  stroke-linejoin: round;
}

.stroke_order_diagram--existing_path {
  fill: none;
  stroke: #aaa;
  stroke-width: 6;
  stroke-linecap: round;
  stroke-linejoin:round;
}

.stroke_order_diagram--path_start {
  fill: rgba(255, 0, 0, 0.7);
  stroke:none
}</style><desc>Created with Snap</desc><defs></defs><line x1="1" x2="399" y1="1" y2="1" class="stroke_order_diagram--bounding_box"></line><line x1="1" x2="1" y1="1" y2="99" class="stroke_order_diagram--bounding_box"></line><line x1="1" x2="399" y1="99" y2="99" class="stroke_order_diagram--bounding_box"></line><line x1="0" x2="400" y1="50" y2="50" class="stroke_order_diagram--guide_line"></line><line x1="50" x2="50" y1="1" y2="99" class="stroke_order_diagram--guide_line"></line><line x1="99" x2="99" y1="1" y2="99" class="stroke_order_diagram--bounding_box"></line><path id="kvg:04ec1-s1" kvg:type="㇒" d="M32.26,15.75c0.36,1.62,0.19,3.35-0.48,5.24C27.5,33.05,21.32,45.87,11.5,60.54" transform="matrix(1,0,0,1,-4,-4)" class="stroke_order_diagram--current_path"></path><path id="pathSk2v596cn31di" kvg:type="㇒" d="M32.26,15.75c0.36,1.62,0.19,3.35-0.48,5.24C27.5,33.05,21.32,45.87,11.5,60.54" transform="matrix(1,0,0,1,-4,-4)" class="stroke_order_diagram--current_path"></path><circle cx="32.26" cy="15.75" r="8" class="stroke_order_diagram--path_start" transform="matrix(1,0,0,1,-4,-4)"></circle><line x1="150" x2="150" y1="1" y2="99" class="stroke_order_diagram--guide_line"></line><line x1="199" x2="199" y1="1" y2="99" class="stroke_order_diagram--bounding_box"></line><path id="pathSk2v596cn31dl" kvg:type="㇒" d="M32.26,15.75c0.36,1.62,0.19,3.35-0.48,5.24C27.5,33.05,21.32,45.87,11.5,60.54" transform="matrix(1,0,0,1,96,-4)" class="stroke_order_diagram--existing_path"></path><path id="kvg:04ec1-s2" kvg:type="㇑" d="M24.28,44.25c0.8,0.8,1.26,2.22,1.26,3.48c0,12.15,0.14,30.73,0.01,41.77c-0.03,2.58-0.05,4.73-0.05,6.25" transform="matrix(1,0,0,1,96,-4)" class="stroke_order_diagram--current_path"></path><path id="pathSk2v596cn31dn" kvg:type="㇑" d="M24.28,44.25c0.8,0.8,1.26,2.22,1.26,3.48c0,12.15,0.14,30.73,0.01,41.77c-0.03,2.58-0.05,4.73-0.05,6.25" transform="matrix(1,0,0,1,96,-4)" class="stroke_order_diagram--current_path"></path><circle cx="24.28" cy="44.25" r="8" class="stroke_order_diagram--path_start" transform="matrix(1,0,0,1,96,-4)"></circle><line x1="250" x2="250" y1="1" y2="99" class="stroke_order_diagram--guide_line"></line><line x1="299" x2="299" y1="1" y2="99" class="stroke_order_diagram--bounding_box"></line><path id="pathSk2v596cn31dq" kvg:type="㇒" d="M32.26,15.75c0.36,1.62,0.19,3.35-0.48,5.24C27.5,33.05,21.32,45.87,11.5,60.54" transform="matrix(1,0,0,1,196,-4)" class="stroke_order_diagram--existing_path"></path><path id="pathSk2v596cn31dr" kvg:type="㇑" d="M24.28,44.25c0.8,0.8,1.26,2.22,1.26,3.48c0,12.15,0.14,30.73,0.01,41.77c-0.03,2.58-0.05,4.73-0.05,6.25" transform="matrix(1,0,0,1,196,-4)" class="stroke_order_diagram--existing_path"></path><path id="kvg:04ec1-s3" kvg:type="㇐" d="M49,36c1.88,0.5,3.97,0.52,5.62,0.34c6.32-0.67,19.78-1.91,27.12-2.55c1.93-0.17,4.13-0.1,6.01,0.36" transform="matrix(1,0,0,1,196,-4)" class="stroke_order_diagram--current_path"></path><path id="pathSk2v596cn31dt" kvg:type="㇐" d="M49,36c1.88,0.5,3.97,0.52,5.62,0.34c6.32-0.67,19.78-1.91,27.12-2.55c1.93-0.17,4.13-0.1,6.01,0.36" transform="matrix(1,0,0,1,196,-4)" class="stroke_order_diagram--current_path"></path><circle cx="49" cy="36" r="8" class="stroke_order_diagram--path_start" transform="matrix(1,0,0,1,196,-4)"></circle><line x1="350" x2="350" y1="1" y2="99" class="stroke_order_diagram--guide_line"></line><line x1="399" x2="399" y1="1" y2="99" class="stroke_order_diagram--bounding_box"></line><path id="pathSk2v596cn31dw" kvg:type="㇒" d="M32.26,15.75c0.36,1.62,0.19,3.35-0.48,5.24C27.5,33.05,21.32,45.87,11.5,60.54" transform="matrix(1,0,0,1,296,-4)" class="stroke_order_diagram--existing_path"></path><path id="pathSk2v596cn31dx" kvg:type="㇑" d="M24.28,44.25c0.8,0.8,1.26,2.22,1.26,3.48c0,12.15,0.14,30.73,0.01,41.77c-0.03,2.58-0.05,4.73-0.05,6.25" transform="matrix(1,0,0,1,296,-4)" class="stroke_order_diagram--existing_path"></path><path id="pathSk2v596cn31dy" kvg:type="㇐" d="M49,36c1.88,0.5,3.97,0.52,5.62,0.34c6.32-0.67,19.78-1.91,27.12-2.55c1.93-0.17,4.13-0.1,6.01,0.36" transform="matrix(1,0,0,1,296,-4)" class="stroke_order_diagram--existing_path"></path><path id="kvg:04ec1-s4" kvg:type="㇐" d="M36.5,77.83c2.6,0.93,5.92,0.75,8.62,0.48c9.77-0.97,32.2-2.55,45.38-3.15c2.69-0.12,5.61-0.03,8.25,0.53" transform="matrix(1,0,0,1,296,-4)" class="stroke_order_diagram--current_path"></path><path id="pathSk2v596cn31e0" kvg:type="㇐" d="M36.5,77.83c2.6,0.93,5.92,0.75,8.62,0.48c9.77-0.97,32.2-2.55,45.38-3.15c2.69-0.12,5.61-0.03,8.25,0.53" transform="matrix(1,0,0,1,296,-4)" class="stroke_order_diagram--current_path"></path><circle cx="36.5" cy="77.83" r="8" class="stroke_order_diagram--path_start" transform="matrix(1,0,0,1,296,-4)"></circle></svg>