<svg style="width: 400px; height: 100px;" viewbox="0 0 400 100"><style>
.stroke_order_diagram--outer_container {
  width: 100%;
  overflow-x: auto;
  overflow-y: hidden;
}

.stroke_order_diagram--guide_line {
  fill: none;
  stroke: #ddd;
  stroke-width: 3;
  stroke-linecap: square;
  stroke-linejoin: square;
  stroke-dasharray:8, 8;
}

.stroke_order_diagram--bounding_box {
  fill: none;
  stroke: #ddd;
  stroke-width: 4;
  stroke-linecap: square;
  stroke-linejoin: square;
}

.stroke_order_diagram--current_path {
  fill: none;
  stroke: #000;
  stroke-width: 6;
  stroke-linecap: round;
  stroke-linejoin: round;
}

.stroke_order_diagram--existing_path {
  fill: none;
  stroke: #aaa;
  stroke-width: 6;
  stroke-linecap: round;
  stroke-linejoin:round;
}

.stroke_order_diagram--path_start {
  fill: rgba(255, 0, 0, 0.7);
  stroke:none
}</style><desc>Created with Snap</desc><defs></defs><line x1="1" x2="399" y1="1" y2="1" class="stroke_order_diagram--bounding_box"></line><line x1="1" x2="1" y1="1" y2="99" class="stroke_order_diagram--bounding_box"></line><line x1="1" x2="399" y1="99" y2="99" class="stroke_order_diagram--bounding_box"></line><line x1="0" x2="400" y1="50" y2="50" class="stroke_order_diagram--guide_line"></line><line x1="50" x2="50" y1="1" y2="99" class="stroke_order_diagram--guide_line"></line><line x1="99" x2="99" y1="1" y2="99" class="stroke_order_diagram--bounding_box"></line><path id="kvg:04ecf-s1" kvg:type="㇒" d="M36.51,16.75c0.24,1.62-0.06,3.24-0.79,5.09c-4.65,11.79-11.3,24.86-21.97,39.2" transform="matrix(1,0,0,1,-4,-4)" class="stroke_order_diagram--current_path"></path><path id="pathSk2v596cnv99" kvg:type="㇒" d="M36.51,16.75c0.24,1.62-0.06,3.24-0.79,5.09c-4.65,11.79-11.3,24.86-21.97,39.2" transform="matrix(1,0,0,1,-4,-4)" class="stroke_order_diagram--current_path"></path><circle cx="36.51" cy="16.75" r="8" class="stroke_order_diagram--path_start" transform="matrix(1,0,0,1,-4,-4)"></circle><line x1="150" x2="150" y1="1" y2="99" class="stroke_order_diagram--guide_line"></line><line x1="199" x2="199" y1="1" y2="99" class="stroke_order_diagram--bounding_box"></line><path id="pathSk2v596cnv9c" kvg:type="㇒" d="M36.51,16.75c0.24,1.62-0.06,3.24-0.79,5.09c-4.65,11.79-11.3,24.86-21.97,39.2" transform="matrix(1,0,0,1,96,-4)" class="stroke_order_diagram--existing_path"></path><path id="kvg:04ecf-s2" kvg:type="㇑" d="M28.28,41.75c1.05,1.05,1.51,2.12,1.51,3.98c0,12.28-0.03,30.57-0.04,42.52c0,2.67,0,5.04,0,7" transform="matrix(1,0,0,1,96,-4)" class="stroke_order_diagram--current_path"></path><path id="pathSk2v596cnv9e" kvg:type="㇑" d="M28.28,41.75c1.05,1.05,1.51,2.12,1.51,3.98c0,12.28-0.03,30.57-0.04,42.52c0,2.67,0,5.04,0,7" transform="matrix(1,0,0,1,96,-4)" class="stroke_order_diagram--current_path"></path><circle cx="28.28" cy="41.75" r="8" class="stroke_order_diagram--path_start" transform="matrix(1,0,0,1,96,-4)"></circle><line x1="250" x2="250" y1="1" y2="99" class="stroke_order_diagram--guide_line"></line><line x1="299" x2="299" y1="1" y2="99" class="stroke_order_diagram--bounding_box"></line><path id="pathSk2v596cnv9h" kvg:type="㇒" d="M36.51,16.75c0.24,1.62-0.06,3.24-0.79,5.09c-4.65,11.79-11.3,24.86-21.97,39.2" transform="matrix(1,0,0,1,196,-4)" class="stroke_order_diagram--existing_path"></path><path id="pathSk2v596cnv9i" kvg:type="㇑" d="M28.28,41.75c1.05,1.05,1.51,2.12,1.51,3.98c0,12.28-0.03,30.57-0.04,42.52c0,2.67,0,5.04,0,7" transform="matrix(1,0,0,1,196,-4)" class="stroke_order_diagram--existing_path"></path><path id="kvg:04ecf-s3" kvg:type="㇜" d="M67.45,23.14c0.59,1.16,0.44,2.75-0.02,4.22C62.62,42.5,54.75,63.62,47.5,78.16c-2.19,4.38-0.97,4.87,2.67,3.69c9.95-3.22,24.45-7.6,39.01-12.04" transform="matrix(1,0,0,1,196,-4)" class="stroke_order_diagram--current_path"></path><path id="pathSk2v596cnv9k" kvg:type="㇜" d="M67.45,23.14c0.59,1.16,0.44,2.75-0.02,4.22C62.62,42.5,54.75,63.62,47.5,78.16c-2.19,4.38-0.97,4.87,2.67,3.69c9.95-3.22,24.45-7.6,39.01-12.04" transform="matrix(1,0,0,1,196,-4)" class="stroke_order_diagram--current_path"></path><circle cx="67.45" cy="23.14" r="8" class="stroke_order_diagram--path_start" transform="matrix(1,0,0,1,196,-4)"></circle><line x1="350" x2="350" y1="1" y2="99" class="stroke_order_diagram--guide_line"></line><line x1="399" x2="399" y1="1" y2="99" class="stroke_order_diagram--bounding_box"></line><path id="pathSk2v596cnv9n" kvg:type="㇒" d="M36.51,16.75c0.24,1.62-0.06,3.24-0.79,5.09c-4.65,11.79-11.3,24.86-21.97,39.2" transform="matrix(1,0,0,1,296,-4)" class="stroke_order_diagram--existing_path"></path><path id="pathSk2v596cnv9o" kvg:type="㇑" d="M28.28,41.75c1.05,1.05,1.51,2.12,1.51,3.98c0,12.28-0.03,30.57-0.04,42.52c0,2.67,0,5.04,0,7" transform="matrix(1,0,0,1,296,-4)" class="stroke_order_diagram--existing_path"></path><path id="pathSk2v596cnv9p" kvg:type="㇜" d="M67.45,23.14c0.59,1.16,0.44,2.75-0.02,4.22C62.62,42.5,54.75,63.62,47.5,78.16c-2.19,4.38-0.97,4.87,2.67,3.69c9.95-3.22,24.45-7.6,39.01-12.04" transform="matrix(1,0,0,1,296,-4)" class="stroke_order_diagram--existing_path"></path><path id="kvg:04ecf-s4" kvg:type="㇔" d="M78.38,52.62c6.15,5.24,15.9,21.55,17.43,29.7" transform="matrix(1,0,0,1,296,-4)" class="stroke_order_diagram--current_path"></path><path id="pathSk2v596cnv9r" kvg:type="㇔" d="M78.38,52.62c6.15,5.24,15.9,21.55,17.43,29.7" transform="matrix(1,0,0,1,296,-4)" class="stroke_order_diagram--current_path"></path><circle cx="78.38" cy="52.62" r="8" class="stroke_order_diagram--path_start" transform="matrix(1,0,0,1,296,-4)"></circle></svg>