<svg style="width: 500px; height: 100px;" viewbox="0 0 500 100"><style>
.stroke_order_diagram--outer_container {
  width: 100%;
  overflow-x: auto;
  overflow-y: hidden;
}

.stroke_order_diagram--guide_line {
  fill: none;
  stroke: #ddd;
  stroke-width: 3;
  stroke-linecap: square;
  stroke-linejoin: square;
  stroke-dasharray:8, 8;
}

.stroke_order_diagram--bounding_box {
  fill: none;
  stroke: #ddd;
  stroke-width: 4;
  stroke-linecap: square;
  stroke-linejoin: square;
}

.stroke_order_diagram--current_path {
  fill: none;
  stroke: #000;
  stroke-width: 6;
  stroke-linecap: round;
  stroke-linejoin: round;
}

.stroke_order_diagram--existing_path {
  fill: none;
  stroke: #aaa;
  stroke-width: 6;
  stroke-linecap: round;
  stroke-linejoin:round;
}

.stroke_order_diagram--path_start {
  fill: rgba(255, 0, 0, 0.7);
  stroke:none
}</style><desc>Created with Snap</desc><defs></defs><line x1="1" x2="499" y1="1" y2="1" class="stroke_order_diagram--bounding_box"></line><line x1="1" x2="1" y1="1" y2="99" class="stroke_order_diagram--bounding_box"></line><line x1="1" x2="499" y1="99" y2="99" class="stroke_order_diagram--bounding_box"></line><line x1="0" x2="500" y1="50" y2="50" class="stroke_order_diagram--guide_line"></line><line x1="50" x2="50" y1="1" y2="99" class="stroke_order_diagram--guide_line"></line><line x1="99" x2="99" y1="1" y2="99" class="stroke_order_diagram--bounding_box"></line><path id="kvg:04ed6-s1" kvg:type="㇒" d="M30.25,19.62c0.21,2-0.06,3.84-0.73,5.56C25.24,36.1,19,48.12,10,59.62" transform="matrix(1,0,0,1,-4,-4)" class="stroke_order_diagram--current_path"></path><path id="pathSk2v596cn25b" kvg:type="㇒" d="M30.25,19.62c0.21,2-0.06,3.84-0.73,5.56C25.24,36.1,19,48.12,10,59.62" transform="matrix(1,0,0,1,-4,-4)" class="stroke_order_diagram--current_path"></path><circle cx="30.25" cy="19.62" r="8" class="stroke_order_diagram--path_start" transform="matrix(1,0,0,1,-4,-4)"></circle><line x1="150" x2="150" y1="1" y2="99" class="stroke_order_diagram--guide_line"></line><line x1="199" x2="199" y1="1" y2="99" class="stroke_order_diagram--bounding_box"></line><path id="pathSk2v596cn25e" kvg:type="㇒" d="M30.25,19.62c0.21,2-0.06,3.84-0.73,5.56C25.24,36.1,19,48.12,10,59.62" transform="matrix(1,0,0,1,96,-4)" class="stroke_order_diagram--existing_path"></path><path id="kvg:04ed6-s2" kvg:type="㇑" d="M22.91,43c0.92,0.92,1.25,2.38,1.25,3.5c0.03,10.67,0.17,32.06,0.22,43.37c0.01,2.49,0.02,4.52,0.02,5.88" transform="matrix(1,0,0,1,96,-4)" class="stroke_order_diagram--current_path"></path><path id="pathSk2v596cn25g" kvg:type="㇑" d="M22.91,43c0.92,0.92,1.25,2.38,1.25,3.5c0.03,10.67,0.17,32.06,0.22,43.37c0.01,2.49,0.02,4.52,0.02,5.88" transform="matrix(1,0,0,1,96,-4)" class="stroke_order_diagram--current_path"></path><circle cx="22.91" cy="43" r="8" class="stroke_order_diagram--path_start" transform="matrix(1,0,0,1,96,-4)"></circle><line x1="250" x2="250" y1="1" y2="99" class="stroke_order_diagram--guide_line"></line><line x1="299" x2="299" y1="1" y2="99" class="stroke_order_diagram--bounding_box"></line><path id="pathSk2v596cn25j" kvg:type="㇒" d="M30.25,19.62c0.21,2-0.06,3.84-0.73,5.56C25.24,36.1,19,48.12,10,59.62" transform="matrix(1,0,0,1,196,-4)" class="stroke_order_diagram--existing_path"></path><path id="pathSk2v596cn25k" kvg:type="㇑" d="M22.91,43c0.92,0.92,1.25,2.38,1.25,3.5c0.03,10.67,0.17,32.06,0.22,43.37c0.01,2.49,0.02,4.52,0.02,5.88" transform="matrix(1,0,0,1,196,-4)" class="stroke_order_diagram--existing_path"></path><path id="kvg:04ed6-s3" kvg:type="㇆v" d="M34,50.11c2.38,0.64,5.71,0.28,7.12-0.14c14.04-4.22,33.13-10.47,42.24-14.1c3.53-1.4,6.17-0.36,5.51,3.14c-1.5,7.98-3.12,14.11-5.04,18.11c-3.32,6.94-5.58,3.87-7.87,0.61" transform="matrix(1,0,0,1,196,-4)" class="stroke_order_diagram--current_path"></path><path id="pathSk2v596cn25m" kvg:type="㇆v" d="M34,50.11c2.38,0.64,5.71,0.28,7.12-0.14c14.04-4.22,33.13-10.47,42.24-14.1c3.53-1.4,6.17-0.36,5.51,3.14c-1.5,7.98-3.12,14.11-5.04,18.11c-3.32,6.94-5.58,3.87-7.87,0.61" transform="matrix(1,0,0,1,196,-4)" class="stroke_order_diagram--current_path"></path><circle cx="34" cy="50.11" r="8" class="stroke_order_diagram--path_start" transform="matrix(1,0,0,1,196,-4)"></circle><line x1="350" x2="350" y1="1" y2="99" class="stroke_order_diagram--guide_line"></line><line x1="399" x2="399" y1="1" y2="99" class="stroke_order_diagram--bounding_box"></line><path id="pathSk2v596cn25p" kvg:type="㇒" d="M30.25,19.62c0.21,2-0.06,3.84-0.73,5.56C25.24,36.1,19,48.12,10,59.62" transform="matrix(1,0,0,1,296,-4)" class="stroke_order_diagram--existing_path"></path><path id="pathSk2v596cn25q" kvg:type="㇑" d="M22.91,43c0.92,0.92,1.25,2.38,1.25,3.5c0.03,10.67,0.17,32.06,0.22,43.37c0.01,2.49,0.02,4.52,0.02,5.88" transform="matrix(1,0,0,1,296,-4)" class="stroke_order_diagram--existing_path"></path><path id="pathSk2v596cn25r" kvg:type="㇆v" d="M34,50.11c2.38,0.64,5.71,0.28,7.12-0.14c14.04-4.22,33.13-10.47,42.24-14.1c3.53-1.4,6.17-0.36,5.51,3.14c-1.5,7.98-3.12,14.11-5.04,18.11c-3.32,6.94-5.58,3.87-7.87,0.61" transform="matrix(1,0,0,1,296,-4)" class="stroke_order_diagram--existing_path"></path><path id="kvg:04ed6-s4" kvg:type="㇑" d="M63.76,14.75c1.06,1.06,1.58,2.36,1.58,3.37c0,2.41-0.05,31.74-0.06,46.38c0,2.87,0,5.17,0,6.6" transform="matrix(1,0,0,1,296,-4)" class="stroke_order_diagram--current_path"></path><path id="pathSk2v596cn25t" kvg:type="㇑" d="M63.76,14.75c1.06,1.06,1.58,2.36,1.58,3.37c0,2.41-0.05,31.74-0.06,46.38c0,2.87,0,5.17,0,6.6" transform="matrix(1,0,0,1,296,-4)" class="stroke_order_diagram--current_path"></path><circle cx="63.76" cy="14.75" r="8" class="stroke_order_diagram--path_start" transform="matrix(1,0,0,1,296,-4)"></circle><line x1="450" x2="450" y1="1" y2="99" class="stroke_order_diagram--guide_line"></line><line x1="499" x2="499" y1="1" y2="99" class="stroke_order_diagram--bounding_box"></line><path id="pathSk2v596cn25w" kvg:type="㇒" d="M30.25,19.62c0.21,2-0.06,3.84-0.73,5.56C25.24,36.1,19,48.12,10,59.62" transform="matrix(1,0,0,1,396,-4)" class="stroke_order_diagram--existing_path"></path><path id="pathSk2v596cn25x" kvg:type="㇑" d="M22.91,43c0.92,0.92,1.25,2.38,1.25,3.5c0.03,10.67,0.17,32.06,0.22,43.37c0.01,2.49,0.02,4.52,0.02,5.88" transform="matrix(1,0,0,1,396,-4)" class="stroke_order_diagram--existing_path"></path><path id="pathSk2v596cn25y" kvg:type="㇆v" d="M34,50.11c2.38,0.64,5.71,0.28,7.12-0.14c14.04-4.22,33.13-10.47,42.24-14.1c3.53-1.4,6.17-0.36,5.51,3.14c-1.5,7.98-3.12,14.11-5.04,18.11c-3.32,6.94-5.58,3.87-7.87,0.61" transform="matrix(1,0,0,1,396,-4)" class="stroke_order_diagram--existing_path"></path><path id="pathSk2v596cn25z" kvg:type="㇑" d="M63.76,14.75c1.06,1.06,1.58,2.36,1.58,3.37c0,2.41-0.05,31.74-0.06,46.38c0,2.87,0,5.17,0,6.6" transform="matrix(1,0,0,1,396,-4)" class="stroke_order_diagram--existing_path"></path><path id="kvg:04ed6-s5" kvg:type="㇟" d="M45.09,38.81c0.96,1.72,1.28,3.94,1.28,5.91c0,11.25-0.24,20.69-0.24,27.78c0,15.63,1.12,17.5,25.54,17.5c22.7,0,23.97-1.75,23.97-12.7" transform="matrix(1,0,0,1,396,-4)" class="stroke_order_diagram--current_path"></path><path id="pathSk2v596cn261" kvg:type="㇟" d="M45.09,38.81c0.96,1.72,1.28,3.94,1.28,5.91c0,11.25-0.24,20.69-0.24,27.78c0,15.63,1.12,17.5,25.54,17.5c22.7,0,23.97-1.75,23.97-12.7" transform="matrix(1,0,0,1,396,-4)" class="stroke_order_diagram--current_path"></path><circle cx="45.09" cy="38.81" r="8" class="stroke_order_diagram--path_start" transform="matrix(1,0,0,1,396,-4)"></circle></svg>