<svg style="width: 600px; height: 100px;" viewbox="0 0 600 100"><style>
.stroke_order_diagram--outer_container {
  width: 100%;
  overflow-x: auto;
  overflow-y: hidden;
}

.stroke_order_diagram--guide_line {
  fill: none;
  stroke: #ddd;
  stroke-width: 3;
  stroke-linecap: square;
  stroke-linejoin: square;
  stroke-dasharray:8, 8;
}

.stroke_order_diagram--bounding_box {
  fill: none;
  stroke: #ddd;
  stroke-width: 4;
  stroke-linecap: square;
  stroke-linejoin: square;
}

.stroke_order_diagram--current_path {
  fill: none;
  stroke: #000;
  stroke-width: 6;
  stroke-linecap: round;
  stroke-linejoin: round;
}

.stroke_order_diagram--existing_path {
  fill: none;
  stroke: #aaa;
  stroke-width: 6;
  stroke-linecap: round;
  stroke-linejoin:round;
}

.stroke_order_diagram--path_start {
  fill: rgba(255, 0, 0, 0.7);
  stroke:none
}</style><desc>Created with Snap</desc><defs></defs><line x1="1" x2="599" y1="1" y2="1" class="stroke_order_diagram--bounding_box"></line><line x1="1" x2="1" y1="1" y2="99" class="stroke_order_diagram--bounding_box"></line><line x1="1" x2="599" y1="99" y2="99" class="stroke_order_diagram--bounding_box"></line><line x1="0" x2="600" y1="50" y2="50" class="stroke_order_diagram--guide_line"></line><line x1="50" x2="50" y1="1" y2="99" class="stroke_order_diagram--guide_line"></line><line x1="99" x2="99" y1="1" y2="99" class="stroke_order_diagram--bounding_box"></line><path id="kvg:04f0f-s1" kvg:type="㇒" d="M32.75,14.64c0.13,1.23,0.12,2.57-0.36,4.04C28.88,29.38,22,43.75,12.06,56.72" transform="matrix(1,0,0,1,-4,-4)" class="stroke_order_diagram--current_path"></path><path id="pathSk2v596cn4dmv" kvg:type="㇒" d="M32.75,14.64c0.13,1.23,0.12,2.57-0.36,4.04C28.88,29.38,22,43.75,12.06,56.72" transform="matrix(1,0,0,1,-4,-4)" class="stroke_order_diagram--current_path"></path><circle cx="32.75" cy="14.64" r="8" class="stroke_order_diagram--path_start" transform="matrix(1,0,0,1,-4,-4)"></circle><line x1="150" x2="150" y1="1" y2="99" class="stroke_order_diagram--guide_line"></line><line x1="199" x2="199" y1="1" y2="99" class="stroke_order_diagram--bounding_box"></line><path id="pathSk2v596cn4dmy" kvg:type="㇒" d="M32.75,14.64c0.13,1.23,0.12,2.57-0.36,4.04C28.88,29.38,22,43.75,12.06,56.72" transform="matrix(1,0,0,1,96,-4)" class="stroke_order_diagram--existing_path"></path><path id="kvg:04f0f-s2" kvg:type="㇑" d="M25.03,40.5c0.92,0.92,1.26,2.12,1.26,3.73c0,10.5,0.06,32.2-0.01,44.52c-0.02,2.96-0.03,5.43-0.03,7.12" transform="matrix(1,0,0,1,96,-4)" class="stroke_order_diagram--current_path"></path><path id="pathSk2v596cn4dn0" kvg:type="㇑" d="M25.03,40.5c0.92,0.92,1.26,2.12,1.26,3.73c0,10.5,0.06,32.2-0.01,44.52c-0.02,2.96-0.03,5.43-0.03,7.12" transform="matrix(1,0,0,1,96,-4)" class="stroke_order_diagram--current_path"></path><circle cx="25.03" cy="40.5" r="8" class="stroke_order_diagram--path_start" transform="matrix(1,0,0,1,96,-4)"></circle><line x1="250" x2="250" y1="1" y2="99" class="stroke_order_diagram--guide_line"></line><line x1="299" x2="299" y1="1" y2="99" class="stroke_order_diagram--bounding_box"></line><path id="pathSk2v596cn4dn3" kvg:type="㇒" d="M32.75,14.64c0.13,1.23,0.12,2.57-0.36,4.04C28.88,29.38,22,43.75,12.06,56.72" transform="matrix(1,0,0,1,196,-4)" class="stroke_order_diagram--existing_path"></path><path id="pathSk2v596cn4dn4" kvg:type="㇑" d="M25.03,40.5c0.92,0.92,1.26,2.12,1.26,3.73c0,10.5,0.06,32.2-0.01,44.52c-0.02,2.96-0.03,5.43-0.03,7.12" transform="matrix(1,0,0,1,196,-4)" class="stroke_order_diagram--existing_path"></path><path id="kvg:04f0f-s3" kvg:type="㇐" d="M35.88,46.44c2.62,0.56,5.59,0.51,7.99,0.21c9.12-1.15,24.88-3.15,36.52-4.04c2.63-0.2,5.03-0.36,7.62,0.29" transform="matrix(1,0,0,1,196,-4)" class="stroke_order_diagram--current_path"></path><path id="pathSk2v596cn4dn6" kvg:type="㇐" d="M35.88,46.44c2.62,0.56,5.59,0.51,7.99,0.21c9.12-1.15,24.88-3.15,36.52-4.04c2.63-0.2,5.03-0.36,7.62,0.29" transform="matrix(1,0,0,1,196,-4)" class="stroke_order_diagram--current_path"></path><circle cx="35.88" cy="46.44" r="8" class="stroke_order_diagram--path_start" transform="matrix(1,0,0,1,196,-4)"></circle><line x1="350" x2="350" y1="1" y2="99" class="stroke_order_diagram--guide_line"></line><line x1="399" x2="399" y1="1" y2="99" class="stroke_order_diagram--bounding_box"></line><path id="pathSk2v596cn4dn9" kvg:type="㇒" d="M32.75,14.64c0.13,1.23,0.12,2.57-0.36,4.04C28.88,29.38,22,43.75,12.06,56.72" transform="matrix(1,0,0,1,296,-4)" class="stroke_order_diagram--existing_path"></path><path id="pathSk2v596cn4dna" kvg:type="㇑" d="M25.03,40.5c0.92,0.92,1.26,2.12,1.26,3.73c0,10.5,0.06,32.2-0.01,44.52c-0.02,2.96-0.03,5.43-0.03,7.12" transform="matrix(1,0,0,1,296,-4)" class="stroke_order_diagram--existing_path"></path><path id="pathSk2v596cn4dnb" kvg:type="㇐" d="M35.88,46.44c2.62,0.56,5.59,0.51,7.99,0.21c9.12-1.15,24.88-3.15,36.52-4.04c2.63-0.2,5.03-0.36,7.62,0.29" transform="matrix(1,0,0,1,296,-4)" class="stroke_order_diagram--existing_path"></path><path id="kvg:04f0f-s4" kvg:type="㇒" d="M59.27,14.75c1.05,1.05,1.21,2.25,1.29,4.36C61.62,49.25,57.62,81.38,34.75,96" transform="matrix(1,0,0,1,296,-4)" class="stroke_order_diagram--current_path"></path><path id="pathSk2v596cn4dnd" kvg:type="㇒" d="M59.27,14.75c1.05,1.05,1.21,2.25,1.29,4.36C61.62,49.25,57.62,81.38,34.75,96" transform="matrix(1,0,0,1,296,-4)" class="stroke_order_diagram--current_path"></path><circle cx="59.27" cy="14.75" r="8" class="stroke_order_diagram--path_start" transform="matrix(1,0,0,1,296,-4)"></circle><line x1="450" x2="450" y1="1" y2="99" class="stroke_order_diagram--guide_line"></line><line x1="499" x2="499" y1="1" y2="99" class="stroke_order_diagram--bounding_box"></line><path id="pathSk2v596cn4dng" kvg:type="㇒" d="M32.75,14.64c0.13,1.23,0.12,2.57-0.36,4.04C28.88,29.38,22,43.75,12.06,56.72" transform="matrix(1,0,0,1,396,-4)" class="stroke_order_diagram--existing_path"></path><path id="pathSk2v596cn4dnh" kvg:type="㇑" d="M25.03,40.5c0.92,0.92,1.26,2.12,1.26,3.73c0,10.5,0.06,32.2-0.01,44.52c-0.02,2.96-0.03,5.43-0.03,7.12" transform="matrix(1,0,0,1,396,-4)" class="stroke_order_diagram--existing_path"></path><path id="pathSk2v596cn4dni" kvg:type="㇐" d="M35.88,46.44c2.62,0.56,5.59,0.51,7.99,0.21c9.12-1.15,24.88-3.15,36.52-4.04c2.63-0.2,5.03-0.36,7.62,0.29" transform="matrix(1,0,0,1,396,-4)" class="stroke_order_diagram--existing_path"></path><path id="pathSk2v596cn4dnj" kvg:type="㇒" d="M59.27,14.75c1.05,1.05,1.21,2.25,1.29,4.36C61.62,49.25,57.62,81.38,34.75,96" transform="matrix(1,0,0,1,396,-4)" class="stroke_order_diagram--existing_path"></path><path id="kvg:04f0f-s5" kvg:type="㇏" d="M60.62,48.75c6.22,10.89,16.59,27.39,25.41,37.54c2.16,2.49,4.48,5.32,7.21,7.21" transform="matrix(1,0,0,1,396,-4)" class="stroke_order_diagram--current_path"></path><path id="pathSk2v596cn4dnl" kvg:type="㇏" d="M60.62,48.75c6.22,10.89,16.59,27.39,25.41,37.54c2.16,2.49,4.48,5.32,7.21,7.21" transform="matrix(1,0,0,1,396,-4)" class="stroke_order_diagram--current_path"></path><circle cx="60.62" cy="48.75" r="8" class="stroke_order_diagram--path_start" transform="matrix(1,0,0,1,396,-4)"></circle><line x1="550" x2="550" y1="1" y2="99" class="stroke_order_diagram--guide_line"></line><line x1="599" x2="599" y1="1" y2="99" class="stroke_order_diagram--bounding_box"></line><path id="pathSk2v596cn4dno" kvg:type="㇒" d="M32.75,14.64c0.13,1.23,0.12,2.57-0.36,4.04C28.88,29.38,22,43.75,12.06,56.72" transform="matrix(1,0,0,1,496,-4)" class="stroke_order_diagram--existing_path"></path><path id="pathSk2v596cn4dnp" kvg:type="㇑" d="M25.03,40.5c0.92,0.92,1.26,2.12,1.26,3.73c0,10.5,0.06,32.2-0.01,44.52c-0.02,2.96-0.03,5.43-0.03,7.12" transform="matrix(1,0,0,1,496,-4)" class="stroke_order_diagram--existing_path"></path><path id="pathSk2v596cn4dnq" kvg:type="㇐" d="M35.88,46.44c2.62,0.56,5.59,0.51,7.99,0.21c9.12-1.15,24.88-3.15,36.52-4.04c2.63-0.2,5.03-0.36,7.62,0.29" transform="matrix(1,0,0,1,496,-4)" class="stroke_order_diagram--existing_path"></path><path id="pathSk2v596cn4dnr" kvg:type="㇒" d="M59.27,14.75c1.05,1.05,1.21,2.25,1.29,4.36C61.62,49.25,57.62,81.38,34.75,96" transform="matrix(1,0,0,1,496,-4)" class="stroke_order_diagram--existing_path"></path><path id="pathSk2v596cn4dns" kvg:type="㇏" d="M60.62,48.75c6.22,10.89,16.59,27.39,25.41,37.54c2.16,2.49,4.48,5.32,7.21,7.21" transform="matrix(1,0,0,1,496,-4)" class="stroke_order_diagram--existing_path"></path><path id="kvg:04f0f-s6" kvg:type="㇔" d="M77.58,20.75c5.29,3.38,8.93,7.09,11.17,11" transform="matrix(1,0,0,1,496,-4)" class="stroke_order_diagram--current_path"></path><path id="pathSk2v596cn4dnu" kvg:type="㇔" d="M77.58,20.75c5.29,3.38,8.93,7.09,11.17,11" transform="matrix(1,0,0,1,496,-4)" class="stroke_order_diagram--current_path"></path><circle cx="77.58" cy="20.75" r="8" class="stroke_order_diagram--path_start" transform="matrix(1,0,0,1,496,-4)"></circle></svg>