<svg style="width: 600px; height: 100px;" viewbox="0 0 600 100"><style>
.stroke_order_diagram--outer_container {
  width: 100%;
  overflow-x: auto;
  overflow-y: hidden;
}

.stroke_order_diagram--guide_line {
  fill: none;
  stroke: #ddd;
  stroke-width: 3;
  stroke-linecap: square;
  stroke-linejoin: square;
  stroke-dasharray:8, 8;
}

.stroke_order_diagram--bounding_box {
  fill: none;
  stroke: #ddd;
  stroke-width: 4;
  stroke-linecap: square;
  stroke-linejoin: square;
}

.stroke_order_diagram--current_path {
  fill: none;
  stroke: #000;
  stroke-width: 6;
  stroke-linecap: round;
  stroke-linejoin: round;
}

.stroke_order_diagram--existing_path {
  fill: none;
  stroke: #aaa;
  stroke-width: 6;
  stroke-linecap: round;
  stroke-linejoin:round;
}

.stroke_order_diagram--path_start {
  fill: rgba(255, 0, 0, 0.7);
  stroke:none
}</style><desc>Created with Snap</desc><defs></defs><line x1="1" x2="599" y1="1" y2="1" class="stroke_order_diagram--bounding_box"></line><line x1="1" x2="1" y1="1" y2="99" class="stroke_order_diagram--bounding_box"></line><line x1="1" x2="599" y1="99" y2="99" class="stroke_order_diagram--bounding_box"></line><line x1="0" x2="600" y1="50" y2="50" class="stroke_order_diagram--guide_line"></line><line x1="50" x2="50" y1="1" y2="99" class="stroke_order_diagram--guide_line"></line><line x1="99" x2="99" y1="1" y2="99" class="stroke_order_diagram--bounding_box"></line><path id="kvg:04f0a-s1" kvg:type="㇒" d="M32.75,15.64c0.13,1.23-0.03,2.53-0.36,4.04C30.25,29.25,21.25,47,11.31,59.97" transform="matrix(1,0,0,1,-4,-4)" class="stroke_order_diagram--current_path"></path><path id="pathSk2v596cn3l7c" kvg:type="㇒" d="M32.75,15.64c0.13,1.23-0.03,2.53-0.36,4.04C30.25,29.25,21.25,47,11.31,59.97" transform="matrix(1,0,0,1,-4,-4)" class="stroke_order_diagram--current_path"></path><circle cx="32.75" cy="15.64" r="8" class="stroke_order_diagram--path_start" transform="matrix(1,0,0,1,-4,-4)"></circle><line x1="150" x2="150" y1="1" y2="99" class="stroke_order_diagram--guide_line"></line><line x1="199" x2="199" y1="1" y2="99" class="stroke_order_diagram--bounding_box"></line><path id="pathSk2v596cn3l7f" kvg:type="㇒" d="M32.75,15.64c0.13,1.23-0.03,2.53-0.36,4.04C30.25,29.25,21.25,47,11.31,59.97" transform="matrix(1,0,0,1,96,-4)" class="stroke_order_diagram--existing_path"></path><path id="kvg:04f0a-s2" kvg:type="㇑" d="M25.53,41.5c0.98,0.98,1.01,2,1.01,3.73c0,10.59-0.03,29.34-0.04,41.52c0,2.8,0,5.23,0,7.12" transform="matrix(1,0,0,1,96,-4)" class="stroke_order_diagram--current_path"></path><path id="pathSk2v596cn3l7h" kvg:type="㇑" d="M25.53,41.5c0.98,0.98,1.01,2,1.01,3.73c0,10.59-0.03,29.34-0.04,41.52c0,2.8,0,5.23,0,7.12" transform="matrix(1,0,0,1,96,-4)" class="stroke_order_diagram--current_path"></path><circle cx="25.53" cy="41.5" r="8" class="stroke_order_diagram--path_start" transform="matrix(1,0,0,1,96,-4)"></circle><line x1="250" x2="250" y1="1" y2="99" class="stroke_order_diagram--guide_line"></line><line x1="299" x2="299" y1="1" y2="99" class="stroke_order_diagram--bounding_box"></line><path id="pathSk2v596cn3l7k" kvg:type="㇒" d="M32.75,15.64c0.13,1.23-0.03,2.53-0.36,4.04C30.25,29.25,21.25,47,11.31,59.97" transform="matrix(1,0,0,1,196,-4)" class="stroke_order_diagram--existing_path"></path><path id="pathSk2v596cn3l7l" kvg:type="㇑" d="M25.53,41.5c0.98,0.98,1.01,2,1.01,3.73c0,10.59-0.03,29.34-0.04,41.52c0,2.8,0,5.23,0,7.12" transform="matrix(1,0,0,1,196,-4)" class="stroke_order_diagram--existing_path"></path><path id="kvg:04f0a-s3" kvg:type="㇕c" d="M44.21,21.32c2.46,1.04,5.71,1.07,8.3,0.64c9.06-1.52,20.88-3.54,28.36-4.46c2.43-0.3,4.14,1.28,3.77,3.84c-0.99,6.7-2.63,23.06-3.95,34.59" transform="matrix(1,0,0,1,196,-4)" class="stroke_order_diagram--current_path"></path><path id="pathSk2v596cn3l7n" kvg:type="㇕c" d="M44.21,21.32c2.46,1.04,5.71,1.07,8.3,0.64c9.06-1.52,20.88-3.54,28.36-4.46c2.43-0.3,4.14,1.28,3.77,3.84c-0.99,6.7-2.63,23.06-3.95,34.59" transform="matrix(1,0,0,1,196,-4)" class="stroke_order_diagram--current_path"></path><circle cx="44.21" cy="21.32" r="8" class="stroke_order_diagram--path_start" transform="matrix(1,0,0,1,196,-4)"></circle><line x1="350" x2="350" y1="1" y2="99" class="stroke_order_diagram--guide_line"></line><line x1="399" x2="399" y1="1" y2="99" class="stroke_order_diagram--bounding_box"></line><path id="pathSk2v596cn3l7q" kvg:type="㇒" d="M32.75,15.64c0.13,1.23-0.03,2.53-0.36,4.04C30.25,29.25,21.25,47,11.31,59.97" transform="matrix(1,0,0,1,296,-4)" class="stroke_order_diagram--existing_path"></path><path id="pathSk2v596cn3l7r" kvg:type="㇑" d="M25.53,41.5c0.98,0.98,1.01,2,1.01,3.73c0,10.59-0.03,29.34-0.04,41.52c0,2.8,0,5.23,0,7.12" transform="matrix(1,0,0,1,296,-4)" class="stroke_order_diagram--existing_path"></path><path id="pathSk2v596cn3l7s" kvg:type="㇕c" d="M44.21,21.32c2.46,1.04,5.71,1.07,8.3,0.64c9.06-1.52,20.88-3.54,28.36-4.46c2.43-0.3,4.14,1.28,3.77,3.84c-0.99,6.7-2.63,23.06-3.95,34.59" transform="matrix(1,0,0,1,296,-4)" class="stroke_order_diagram--existing_path"></path><path id="kvg:04f0a-s4" kvg:type="㇐" d="M36.9,42.6c2.91,1.07,6.25,0.8,9.23,0.29c14.3-2.47,30.47-4.95,42.75-5.9c3.43-0.26,5.95-0.1,9.23,0.74" transform="matrix(1,0,0,1,296,-4)" class="stroke_order_diagram--current_path"></path><path id="pathSk2v596cn3l7u" kvg:type="㇐" d="M36.9,42.6c2.91,1.07,6.25,0.8,9.23,0.29c14.3-2.47,30.47-4.95,42.75-5.9c3.43-0.26,5.95-0.1,9.23,0.74" transform="matrix(1,0,0,1,296,-4)" class="stroke_order_diagram--current_path"></path><circle cx="36.9" cy="42.6" r="8" class="stroke_order_diagram--path_start" transform="matrix(1,0,0,1,296,-4)"></circle><line x1="450" x2="450" y1="1" y2="99" class="stroke_order_diagram--guide_line"></line><line x1="499" x2="499" y1="1" y2="99" class="stroke_order_diagram--bounding_box"></line><path id="pathSk2v596cn3l7x" kvg:type="㇒" d="M32.75,15.64c0.13,1.23-0.03,2.53-0.36,4.04C30.25,29.25,21.25,47,11.31,59.97" transform="matrix(1,0,0,1,396,-4)" class="stroke_order_diagram--existing_path"></path><path id="pathSk2v596cn3l7y" kvg:type="㇑" d="M25.53,41.5c0.98,0.98,1.01,2,1.01,3.73c0,10.59-0.03,29.34-0.04,41.52c0,2.8,0,5.23,0,7.12" transform="matrix(1,0,0,1,396,-4)" class="stroke_order_diagram--existing_path"></path><path id="pathSk2v596cn3l7z" kvg:type="㇕c" d="M44.21,21.32c2.46,1.04,5.71,1.07,8.3,0.64c9.06-1.52,20.88-3.54,28.36-4.46c2.43-0.3,4.14,1.28,3.77,3.84c-0.99,6.7-2.63,23.06-3.95,34.59" transform="matrix(1,0,0,1,396,-4)" class="stroke_order_diagram--existing_path"></path><path id="pathSk2v596cn3l80" kvg:type="㇐" d="M36.9,42.6c2.91,1.07,6.25,0.8,9.23,0.29c14.3-2.47,30.47-4.95,42.75-5.9c3.43-0.26,5.95-0.1,9.23,0.74" transform="matrix(1,0,0,1,396,-4)" class="stroke_order_diagram--existing_path"></path><path id="kvg:04f0a-s5" kvg:type="㇐" d="M42.9,62.05c2.86,0.73,4.95,0.64,7.86,0.02c9.24-1.95,18.12-3.14,26.25-4c2.7-0.28,5.54-0.67,8.23-0.1" transform="matrix(1,0,0,1,396,-4)" class="stroke_order_diagram--current_path"></path><path id="pathSk2v596cn3l82" kvg:type="㇐" d="M42.9,62.05c2.86,0.73,4.95,0.64,7.86,0.02c9.24-1.95,18.12-3.14,26.25-4c2.7-0.28,5.54-0.67,8.23-0.1" transform="matrix(1,0,0,1,396,-4)" class="stroke_order_diagram--current_path"></path><circle cx="42.9" cy="62.05" r="8" class="stroke_order_diagram--path_start" transform="matrix(1,0,0,1,396,-4)"></circle><line x1="550" x2="550" y1="1" y2="99" class="stroke_order_diagram--guide_line"></line><line x1="599" x2="599" y1="1" y2="99" class="stroke_order_diagram--bounding_box"></line><path id="pathSk2v596cn3l85" kvg:type="㇒" d="M32.75,15.64c0.13,1.23-0.03,2.53-0.36,4.04C30.25,29.25,21.25,47,11.31,59.97" transform="matrix(1,0,0,1,496,-4)" class="stroke_order_diagram--existing_path"></path><path id="pathSk2v596cn3l86" kvg:type="㇑" d="M25.53,41.5c0.98,0.98,1.01,2,1.01,3.73c0,10.59-0.03,29.34-0.04,41.52c0,2.8,0,5.23,0,7.12" transform="matrix(1,0,0,1,496,-4)" class="stroke_order_diagram--existing_path"></path><path id="pathSk2v596cn3l87" kvg:type="㇕c" d="M44.21,21.32c2.46,1.04,5.71,1.07,8.3,0.64c9.06-1.52,20.88-3.54,28.36-4.46c2.43-0.3,4.14,1.28,3.77,3.84c-0.99,6.7-2.63,23.06-3.95,34.59" transform="matrix(1,0,0,1,496,-4)" class="stroke_order_diagram--existing_path"></path><path id="pathSk2v596cn3l88" kvg:type="㇐" d="M36.9,42.6c2.91,1.07,6.25,0.8,9.23,0.29c14.3-2.47,30.47-4.95,42.75-5.9c3.43-0.26,5.95-0.1,9.23,0.74" transform="matrix(1,0,0,1,496,-4)" class="stroke_order_diagram--existing_path"></path><path id="pathSk2v596cn3l89" kvg:type="㇐" d="M42.9,62.05c2.86,0.73,4.95,0.64,7.86,0.02c9.24-1.95,18.12-3.14,26.25-4c2.7-0.28,5.54-0.67,8.23-0.1" transform="matrix(1,0,0,1,496,-4)" class="stroke_order_diagram--existing_path"></path><path id="kvg:04f0a-s6" kvg:type="㇒" d="M60.66,27.6c0.59,1.03,0.91,2.38,0.94,3.47c0.9,37.43-3.85,51.18-13.68,62.43" transform="matrix(1,0,0,1,496,-4)" class="stroke_order_diagram--current_path"></path><path id="pathSk2v596cn3l8b" kvg:type="㇒" d="M60.66,27.6c0.59,1.03,0.91,2.38,0.94,3.47c0.9,37.43-3.85,51.18-13.68,62.43" transform="matrix(1,0,0,1,496,-4)" class="stroke_order_diagram--current_path"></path><circle cx="60.66" cy="27.6" r="8" class="stroke_order_diagram--path_start" transform="matrix(1,0,0,1,496,-4)"></circle></svg>