<svg style="width: 600px; height: 100px;" viewbox="0 0 600 100"><style>
.stroke_order_diagram--outer_container {
  width: 100%;
  overflow-x: auto;
  overflow-y: hidden;
}

.stroke_order_diagram--guide_line {
  fill: none;
  stroke: #ddd;
  stroke-width: 3;
  stroke-linecap: square;
  stroke-linejoin: square;
  stroke-dasharray:8, 8;
}

.stroke_order_diagram--bounding_box {
  fill: none;
  stroke: #ddd;
  stroke-width: 4;
  stroke-linecap: square;
  stroke-linejoin: square;
}

.stroke_order_diagram--current_path {
  fill: none;
  stroke: #000;
  stroke-width: 6;
  stroke-linecap: round;
  stroke-linejoin: round;
}

.stroke_order_diagram--existing_path {
  fill: none;
  stroke: #aaa;
  stroke-width: 6;
  stroke-linecap: round;
  stroke-linejoin:round;
}

.stroke_order_diagram--path_start {
  fill: rgba(255, 0, 0, 0.7);
  stroke:none
}</style><desc>Created with Snap</desc><defs></defs><line x1="1" x2="599" y1="1" y2="1" class="stroke_order_diagram--bounding_box"></line><line x1="1" x2="1" y1="1" y2="99" class="stroke_order_diagram--bounding_box"></line><line x1="1" x2="599" y1="99" y2="99" class="stroke_order_diagram--bounding_box"></line><line x1="0" x2="600" y1="50" y2="50" class="stroke_order_diagram--guide_line"></line><line x1="50" x2="50" y1="1" y2="99" class="stroke_order_diagram--guide_line"></line><line x1="99" x2="99" y1="1" y2="99" class="stroke_order_diagram--bounding_box"></line><path id="kvg:04f1d-s1" kvg:type="㇒" d="M31.61,20c0.14,1.25,0.07,2.47-0.47,3.93c-4.39,11.82-9.77,22.13-19.64,36.36" transform="matrix(1,0,0,1,-4,-4)" class="stroke_order_diagram--current_path"></path><path id="pathSk2v596cniuv" kvg:type="㇒" d="M31.61,20c0.14,1.25,0.07,2.47-0.47,3.93c-4.39,11.82-9.77,22.13-19.64,36.36" transform="matrix(1,0,0,1,-4,-4)" class="stroke_order_diagram--current_path"></path><circle cx="31.61" cy="20" r="8" class="stroke_order_diagram--path_start" transform="matrix(1,0,0,1,-4,-4)"></circle><line x1="150" x2="150" y1="1" y2="99" class="stroke_order_diagram--guide_line"></line><line x1="199" x2="199" y1="1" y2="99" class="stroke_order_diagram--bounding_box"></line><path id="pathSk2v596cniuy" kvg:type="㇒" d="M31.61,20c0.14,1.25,0.07,2.47-0.47,3.93c-4.39,11.82-9.77,22.13-19.64,36.36" transform="matrix(1,0,0,1,96,-4)" class="stroke_order_diagram--existing_path"></path><path id="kvg:04f1d-s2" kvg:type="㇑" d="M26.03,41.5c0.97,1,1.5,2.42,1.5,3.88c0,10.94-0.02,30.36-0.03,41.25c0,2.61,0,4.73,0,6.12" transform="matrix(1,0,0,1,96,-4)" class="stroke_order_diagram--current_path"></path><path id="pathSk2v596cniv0" kvg:type="㇑" d="M26.03,41.5c0.97,1,1.5,2.42,1.5,3.88c0,10.94-0.02,30.36-0.03,41.25c0,2.61,0,4.73,0,6.12" transform="matrix(1,0,0,1,96,-4)" class="stroke_order_diagram--current_path"></path><circle cx="26.03" cy="41.5" r="8" class="stroke_order_diagram--path_start" transform="matrix(1,0,0,1,96,-4)"></circle><line x1="250" x2="250" y1="1" y2="99" class="stroke_order_diagram--guide_line"></line><line x1="299" x2="299" y1="1" y2="99" class="stroke_order_diagram--bounding_box"></line><path id="pathSk2v596cniv3" kvg:type="㇒" d="M31.61,20c0.14,1.25,0.07,2.47-0.47,3.93c-4.39,11.82-9.77,22.13-19.64,36.36" transform="matrix(1,0,0,1,196,-4)" class="stroke_order_diagram--existing_path"></path><path id="pathSk2v596cniv4" kvg:type="㇑" d="M26.03,41.5c0.97,1,1.5,2.42,1.5,3.88c0,10.94-0.02,30.36-0.03,41.25c0,2.61,0,4.73,0,6.12" transform="matrix(1,0,0,1,196,-4)" class="stroke_order_diagram--existing_path"></path><path id="kvg:04f1d-s3" kvg:type="㇐" d="M46.39,25.58c2.11,0.42,4.35,0.41,6.1,0.18c8.38-1.09,19.82-2.35,27.9-2.79c1.69-0.09,3.39-0.24,5.04,0.19" transform="matrix(1,0,0,1,196,-4)" class="stroke_order_diagram--current_path"></path><path id="pathSk2v596cniv6" kvg:type="㇐" d="M46.39,25.58c2.11,0.42,4.35,0.41,6.1,0.18c8.38-1.09,19.82-2.35,27.9-2.79c1.69-0.09,3.39-0.24,5.04,0.19" transform="matrix(1,0,0,1,196,-4)" class="stroke_order_diagram--current_path"></path><circle cx="46.39" cy="25.58" r="8" class="stroke_order_diagram--path_start" transform="matrix(1,0,0,1,196,-4)"></circle><line x1="350" x2="350" y1="1" y2="99" class="stroke_order_diagram--guide_line"></line><line x1="399" x2="399" y1="1" y2="99" class="stroke_order_diagram--bounding_box"></line><path id="pathSk2v596cniv9" kvg:type="㇒" d="M31.61,20c0.14,1.25,0.07,2.47-0.47,3.93c-4.39,11.82-9.77,22.13-19.64,36.36" transform="matrix(1,0,0,1,296,-4)" class="stroke_order_diagram--existing_path"></path><path id="pathSk2v596cniva" kvg:type="㇑" d="M26.03,41.5c0.97,1,1.5,2.42,1.5,3.88c0,10.94-0.02,30.36-0.03,41.25c0,2.61,0,4.73,0,6.12" transform="matrix(1,0,0,1,296,-4)" class="stroke_order_diagram--existing_path"></path><path id="pathSk2v596cnivb" kvg:type="㇐" d="M46.39,25.58c2.11,0.42,4.35,0.41,6.1,0.18c8.38-1.09,19.82-2.35,27.9-2.79c1.69-0.09,3.39-0.24,5.04,0.19" transform="matrix(1,0,0,1,296,-4)" class="stroke_order_diagram--existing_path"></path><path id="kvg:04f1d-s4" kvg:type="㇐" d="M38.25,48.83c2.48,0.78,5.36,0.65,7.88,0.36c13.62-1.57,30.24-3.32,42.37-4.31c2.51-0.21,5.01-0.22,7.5,0.25" transform="matrix(1,0,0,1,296,-4)" class="stroke_order_diagram--current_path"></path><path id="pathSk2v596cnivd" kvg:type="㇐" d="M38.25,48.83c2.48,0.78,5.36,0.65,7.88,0.36c13.62-1.57,30.24-3.32,42.37-4.31c2.51-0.21,5.01-0.22,7.5,0.25" transform="matrix(1,0,0,1,296,-4)" class="stroke_order_diagram--current_path"></path><circle cx="38.25" cy="48.83" r="8" class="stroke_order_diagram--path_start" transform="matrix(1,0,0,1,296,-4)"></circle><line x1="450" x2="450" y1="1" y2="99" class="stroke_order_diagram--guide_line"></line><line x1="499" x2="499" y1="1" y2="99" class="stroke_order_diagram--bounding_box"></line><path id="pathSk2v596cnivg" kvg:type="㇒" d="M31.61,20c0.14,1.25,0.07,2.47-0.47,3.93c-4.39,11.82-9.77,22.13-19.64,36.36" transform="matrix(1,0,0,1,396,-4)" class="stroke_order_diagram--existing_path"></path><path id="pathSk2v596cnivh" kvg:type="㇑" d="M26.03,41.5c0.97,1,1.5,2.42,1.5,3.88c0,10.94-0.02,30.36-0.03,41.25c0,2.61,0,4.73,0,6.12" transform="matrix(1,0,0,1,396,-4)" class="stroke_order_diagram--existing_path"></path><path id="pathSk2v596cnivi" kvg:type="㇐" d="M46.39,25.58c2.11,0.42,4.35,0.41,6.1,0.18c8.38-1.09,19.82-2.35,27.9-2.79c1.69-0.09,3.39-0.24,5.04,0.19" transform="matrix(1,0,0,1,396,-4)" class="stroke_order_diagram--existing_path"></path><path id="pathSk2v596cnivj" kvg:type="㇐" d="M38.25,48.83c2.48,0.78,5.36,0.65,7.88,0.36c13.62-1.57,30.24-3.32,42.37-4.31c2.51-0.21,5.01-0.22,7.5,0.25" transform="matrix(1,0,0,1,396,-4)" class="stroke_order_diagram--existing_path"></path><path id="kvg:04f1d-s5" kvg:type="㇜" d="M64.15,50.85c0.37,1.15,0.35,2.59-0.3,4.04C59.75,64,54.75,73.75,47.43,84.62c-1.94,2.87-1.37,4.72,2.14,3.73c12.31-3.48,20.31-5.98,36.04-10.09" transform="matrix(1,0,0,1,396,-4)" class="stroke_order_diagram--current_path"></path><path id="pathSk2v596cnivl" kvg:type="㇜" d="M64.15,50.85c0.37,1.15,0.35,2.59-0.3,4.04C59.75,64,54.75,73.75,47.43,84.62c-1.94,2.87-1.37,4.72,2.14,3.73c12.31-3.48,20.31-5.98,36.04-10.09" transform="matrix(1,0,0,1,396,-4)" class="stroke_order_diagram--current_path"></path><circle cx="64.15" cy="50.85" r="8" class="stroke_order_diagram--path_start" transform="matrix(1,0,0,1,396,-4)"></circle><line x1="550" x2="550" y1="1" y2="99" class="stroke_order_diagram--guide_line"></line><line x1="599" x2="599" y1="1" y2="99" class="stroke_order_diagram--bounding_box"></line><path id="pathSk2v596cnivo" kvg:type="㇒" d="M31.61,20c0.14,1.25,0.07,2.47-0.47,3.93c-4.39,11.82-9.77,22.13-19.64,36.36" transform="matrix(1,0,0,1,496,-4)" class="stroke_order_diagram--existing_path"></path><path id="pathSk2v596cnivp" kvg:type="㇑" d="M26.03,41.5c0.97,1,1.5,2.42,1.5,3.88c0,10.94-0.02,30.36-0.03,41.25c0,2.61,0,4.73,0,6.12" transform="matrix(1,0,0,1,496,-4)" class="stroke_order_diagram--existing_path"></path><path id="pathSk2v596cnivq" kvg:type="㇐" d="M46.39,25.58c2.11,0.42,4.35,0.41,6.1,0.18c8.38-1.09,19.82-2.35,27.9-2.79c1.69-0.09,3.39-0.24,5.04,0.19" transform="matrix(1,0,0,1,496,-4)" class="stroke_order_diagram--existing_path"></path><path id="pathSk2v596cnivr" kvg:type="㇐" d="M38.25,48.83c2.48,0.78,5.36,0.65,7.88,0.36c13.62-1.57,30.24-3.32,42.37-4.31c2.51-0.21,5.01-0.22,7.5,0.25" transform="matrix(1,0,0,1,496,-4)" class="stroke_order_diagram--existing_path"></path><path id="pathSk2v596cnivs" kvg:type="㇜" d="M64.15,50.85c0.37,1.15,0.35,2.59-0.3,4.04C59.75,64,54.75,73.75,47.43,84.62c-1.94,2.87-1.37,4.72,2.14,3.73c12.31-3.48,20.31-5.98,36.04-10.09" transform="matrix(1,0,0,1,496,-4)" class="stroke_order_diagram--existing_path"></path><path id="kvg:04f1d-s6" kvg:type="㇔" d="M79.75,68.21c4.66,3.92,11.41,16.05,12.57,22.15" transform="matrix(1,0,0,1,496,-4)" class="stroke_order_diagram--current_path"></path><path id="pathSk2v596cnivu" kvg:type="㇔" d="M79.75,68.21c4.66,3.92,11.41,16.05,12.57,22.15" transform="matrix(1,0,0,1,496,-4)" class="stroke_order_diagram--current_path"></path><circle cx="79.75" cy="68.21" r="8" class="stroke_order_diagram--path_start" transform="matrix(1,0,0,1,496,-4)"></circle></svg>