<svg style="width: 700px; height: 100px;" viewbox="0 0 700 100"><style>
.stroke_order_diagram--outer_container {
  width: 100%;
  overflow-x: auto;
  overflow-y: hidden;
}

.stroke_order_diagram--guide_line {
  fill: none;
  stroke: #ddd;
  stroke-width: 3;
  stroke-linecap: square;
  stroke-linejoin: square;
  stroke-dasharray:8, 8;
}

.stroke_order_diagram--bounding_box {
  fill: none;
  stroke: #ddd;
  stroke-width: 4;
  stroke-linecap: square;
  stroke-linejoin: square;
}

.stroke_order_diagram--current_path {
  fill: none;
  stroke: #000;
  stroke-width: 6;
  stroke-linecap: round;
  stroke-linejoin: round;
}

.stroke_order_diagram--existing_path {
  fill: none;
  stroke: #aaa;
  stroke-width: 6;
  stroke-linecap: round;
  stroke-linejoin:round;
}

.stroke_order_diagram--path_start {
  fill: rgba(255, 0, 0, 0.7);
  stroke:none
}</style><desc>Created with Snap</desc><defs></defs><line x1="1" x2="699" y1="1" y2="1" class="stroke_order_diagram--bounding_box"></line><line x1="1" x2="1" y1="1" y2="99" class="stroke_order_diagram--bounding_box"></line><line x1="1" x2="699" y1="99" y2="99" class="stroke_order_diagram--bounding_box"></line><line x1="0" x2="700" y1="50" y2="50" class="stroke_order_diagram--guide_line"></line><line x1="50" x2="50" y1="1" y2="99" class="stroke_order_diagram--guide_line"></line><line x1="99" x2="99" y1="1" y2="99" class="stroke_order_diagram--bounding_box"></line><path id="kvg:04f34-s1" kvg:type="㇒" d="M35.73,14.89c0.14,1.15,0,2.34-0.38,3.76c-2.39,8.93-11.65,26.46-22.8,38.57" transform="matrix(1,0,0,1,-4,-4)" class="stroke_order_diagram--current_path"></path><path id="pathSk2v596cn2r4u" kvg:type="㇒" d="M35.73,14.89c0.14,1.15,0,2.34-0.38,3.76c-2.39,8.93-11.65,26.46-22.8,38.57" transform="matrix(1,0,0,1,-4,-4)" class="stroke_order_diagram--current_path"></path><circle cx="35.73" cy="14.89" r="8" class="stroke_order_diagram--path_start" transform="matrix(1,0,0,1,-4,-4)"></circle><line x1="150" x2="150" y1="1" y2="99" class="stroke_order_diagram--guide_line"></line><line x1="199" x2="199" y1="1" y2="99" class="stroke_order_diagram--bounding_box"></line><path id="pathSk2v596cn2r4x" kvg:type="㇒" d="M35.73,14.89c0.14,1.15,0,2.34-0.38,3.76c-2.39,8.93-11.65,26.46-22.8,38.57" transform="matrix(1,0,0,1,96,-4)" class="stroke_order_diagram--existing_path"></path><path id="kvg:04f34-s2" kvg:type="㇑" d="M28.53,37.75c0.92,0.92,1.26,1.97,1.26,3.23c0,10.64-0.03,32.78-0.04,45.03c0,2.74,0,5.02,0,6.62" transform="matrix(1,0,0,1,96,-4)" class="stroke_order_diagram--current_path"></path><path id="pathSk2v596cn2r4z" kvg:type="㇑" d="M28.53,37.75c0.92,0.92,1.26,1.97,1.26,3.23c0,10.64-0.03,32.78-0.04,45.03c0,2.74,0,5.02,0,6.62" transform="matrix(1,0,0,1,96,-4)" class="stroke_order_diagram--current_path"></path><circle cx="28.53" cy="37.75" r="8" class="stroke_order_diagram--path_start" transform="matrix(1,0,0,1,96,-4)"></circle><line x1="250" x2="250" y1="1" y2="99" class="stroke_order_diagram--guide_line"></line><line x1="299" x2="299" y1="1" y2="99" class="stroke_order_diagram--bounding_box"></line><path id="pathSk2v596cn2r52" kvg:type="㇒" d="M35.73,14.89c0.14,1.15,0,2.34-0.38,3.76c-2.39,8.93-11.65,26.46-22.8,38.57" transform="matrix(1,0,0,1,196,-4)" class="stroke_order_diagram--existing_path"></path><path id="pathSk2v596cn2r53" kvg:type="㇑" d="M28.53,37.75c0.92,0.92,1.26,1.97,1.26,3.23c0,10.64-0.03,32.78-0.04,45.03c0,2.74,0,5.02,0,6.62" transform="matrix(1,0,0,1,196,-4)" class="stroke_order_diagram--existing_path"></path><path id="kvg:04f34-s3" kvg:type="㇔" d="M47.5,23.5c2.97,2.26,7.67,9.28,8.41,12.79" transform="matrix(1,0,0,1,196,-4)" class="stroke_order_diagram--current_path"></path><path id="pathSk2v596cn2r55" kvg:type="㇔" d="M47.5,23.5c2.97,2.26,7.67,9.28,8.41,12.79" transform="matrix(1,0,0,1,196,-4)" class="stroke_order_diagram--current_path"></path><circle cx="47.5" cy="23.5" r="8" class="stroke_order_diagram--path_start" transform="matrix(1,0,0,1,196,-4)"></circle><line x1="350" x2="350" y1="1" y2="99" class="stroke_order_diagram--guide_line"></line><line x1="399" x2="399" y1="1" y2="99" class="stroke_order_diagram--bounding_box"></line><path id="pathSk2v596cn2r58" kvg:type="㇒" d="M35.73,14.89c0.14,1.15,0,2.34-0.38,3.76c-2.39,8.93-11.65,26.46-22.8,38.57" transform="matrix(1,0,0,1,296,-4)" class="stroke_order_diagram--existing_path"></path><path id="pathSk2v596cn2r59" kvg:type="㇑" d="M28.53,37.75c0.92,0.92,1.26,1.97,1.26,3.23c0,10.64-0.03,32.78-0.04,45.03c0,2.74,0,5.02,0,6.62" transform="matrix(1,0,0,1,296,-4)" class="stroke_order_diagram--existing_path"></path><path id="pathSk2v596cn2r5a" kvg:type="㇔" d="M47.5,23.5c2.97,2.26,7.67,9.28,8.41,12.79" transform="matrix(1,0,0,1,296,-4)" class="stroke_order_diagram--existing_path"></path><path id="kvg:04f34-s4" kvg:type="㇒" d="M91.18,19.63c0.08,1.03-0.04,1.45-0.56,2.38c-2.02,3.67-5.12,7.64-9.51,12.29" transform="matrix(1,0,0,1,296,-4)" class="stroke_order_diagram--current_path"></path><path id="pathSk2v596cn2r5c" kvg:type="㇒" d="M91.18,19.63c0.08,1.03-0.04,1.45-0.56,2.38c-2.02,3.67-5.12,7.64-9.51,12.29" transform="matrix(1,0,0,1,296,-4)" class="stroke_order_diagram--current_path"></path><circle cx="91.18" cy="19.63" r="8" class="stroke_order_diagram--path_start" transform="matrix(1,0,0,1,296,-4)"></circle><line x1="450" x2="450" y1="1" y2="99" class="stroke_order_diagram--guide_line"></line><line x1="499" x2="499" y1="1" y2="99" class="stroke_order_diagram--bounding_box"></line><path id="pathSk2v596cn2r5f" kvg:type="㇒" d="M35.73,14.89c0.14,1.15,0,2.34-0.38,3.76c-2.39,8.93-11.65,26.46-22.8,38.57" transform="matrix(1,0,0,1,396,-4)" class="stroke_order_diagram--existing_path"></path><path id="pathSk2v596cn2r5g" kvg:type="㇑" d="M28.53,37.75c0.92,0.92,1.26,1.97,1.26,3.23c0,10.64-0.03,32.78-0.04,45.03c0,2.74,0,5.02,0,6.62" transform="matrix(1,0,0,1,396,-4)" class="stroke_order_diagram--existing_path"></path><path id="pathSk2v596cn2r5h" kvg:type="㇔" d="M47.5,23.5c2.97,2.26,7.67,9.28,8.41,12.79" transform="matrix(1,0,0,1,396,-4)" class="stroke_order_diagram--existing_path"></path><path id="pathSk2v596cn2r5i" kvg:type="㇒" d="M91.18,19.63c0.08,1.03-0.04,1.45-0.56,2.38c-2.02,3.67-5.12,7.64-9.51,12.29" transform="matrix(1,0,0,1,396,-4)" class="stroke_order_diagram--existing_path"></path><path id="kvg:04f34-s5" kvg:type="㇐" d="M47.71,46.93c2.13,0.7,4.74,0.66,6.89,0.29c7.9-1.35,20.65-2.85,31.02-3.85c2.09-0.2,4.17-0.19,6.24,0.22" transform="matrix(1,0,0,1,396,-4)" class="stroke_order_diagram--current_path"></path><path id="pathSk2v596cn2r5k" kvg:type="㇐" d="M47.71,46.93c2.13,0.7,4.74,0.66,6.89,0.29c7.9-1.35,20.65-2.85,31.02-3.85c2.09-0.2,4.17-0.19,6.24,0.22" transform="matrix(1,0,0,1,396,-4)" class="stroke_order_diagram--current_path"></path><circle cx="47.71" cy="46.93" r="8" class="stroke_order_diagram--path_start" transform="matrix(1,0,0,1,396,-4)"></circle><line x1="550" x2="550" y1="1" y2="99" class="stroke_order_diagram--guide_line"></line><line x1="599" x2="599" y1="1" y2="99" class="stroke_order_diagram--bounding_box"></line><path id="pathSk2v596cn2r5n" kvg:type="㇒" d="M35.73,14.89c0.14,1.15,0,2.34-0.38,3.76c-2.39,8.93-11.65,26.46-22.8,38.57" transform="matrix(1,0,0,1,496,-4)" class="stroke_order_diagram--existing_path"></path><path id="pathSk2v596cn2r5o" kvg:type="㇑" d="M28.53,37.75c0.92,0.92,1.26,1.97,1.26,3.23c0,10.64-0.03,32.78-0.04,45.03c0,2.74,0,5.02,0,6.62" transform="matrix(1,0,0,1,496,-4)" class="stroke_order_diagram--existing_path"></path><path id="pathSk2v596cn2r5p" kvg:type="㇔" d="M47.5,23.5c2.97,2.26,7.67,9.28,8.41,12.79" transform="matrix(1,0,0,1,496,-4)" class="stroke_order_diagram--existing_path"></path><path id="pathSk2v596cn2r5q" kvg:type="㇒" d="M91.18,19.63c0.08,1.03-0.04,1.45-0.56,2.38c-2.02,3.67-5.12,7.64-9.51,12.29" transform="matrix(1,0,0,1,496,-4)" class="stroke_order_diagram--existing_path"></path><path id="pathSk2v596cn2r5r" kvg:type="㇐" d="M47.71,46.93c2.13,0.7,4.74,0.66,6.89,0.29c7.9-1.35,20.65-2.85,31.02-3.85c2.09-0.2,4.17-0.19,6.24,0.22" transform="matrix(1,0,0,1,496,-4)" class="stroke_order_diagram--existing_path"></path><path id="kvg:04f34-s6" kvg:type="㇐" d="M39.56,65.64c2.64,0.76,5.75,0.58,8.45,0.23c10.93-1.41,28.49-3.37,42.86-3.97c2.71-0.11,5.15-0.12,7.81,0.34" transform="matrix(1,0,0,1,496,-4)" class="stroke_order_diagram--current_path"></path><path id="pathSk2v596cn2r5t" kvg:type="㇐" d="M39.56,65.64c2.64,0.76,5.75,0.58,8.45,0.23c10.93-1.41,28.49-3.37,42.86-3.97c2.71-0.11,5.15-0.12,7.81,0.34" transform="matrix(1,0,0,1,496,-4)" class="stroke_order_diagram--current_path"></path><circle cx="39.56" cy="65.64" r="8" class="stroke_order_diagram--path_start" transform="matrix(1,0,0,1,496,-4)"></circle><line x1="650" x2="650" y1="1" y2="99" class="stroke_order_diagram--guide_line"></line><line x1="699" x2="699" y1="1" y2="99" class="stroke_order_diagram--bounding_box"></line><path id="pathSk2v596cn2r5w" kvg:type="㇒" d="M35.73,14.89c0.14,1.15,0,2.34-0.38,3.76c-2.39,8.93-11.65,26.46-22.8,38.57" transform="matrix(1,0,0,1,596,-4)" class="stroke_order_diagram--existing_path"></path><path id="pathSk2v596cn2r5x" kvg:type="㇑" d="M28.53,37.75c0.92,0.92,1.26,1.97,1.26,3.23c0,10.64-0.03,32.78-0.04,45.03c0,2.74,0,5.02,0,6.62" transform="matrix(1,0,0,1,596,-4)" class="stroke_order_diagram--existing_path"></path><path id="pathSk2v596cn2r5y" kvg:type="㇔" d="M47.5,23.5c2.97,2.26,7.67,9.28,8.41,12.79" transform="matrix(1,0,0,1,596,-4)" class="stroke_order_diagram--existing_path"></path><path id="pathSk2v596cn2r5z" kvg:type="㇒" d="M91.18,19.63c0.08,1.03-0.04,1.45-0.56,2.38c-2.02,3.67-5.12,7.64-9.51,12.29" transform="matrix(1,0,0,1,596,-4)" class="stroke_order_diagram--existing_path"></path><path id="pathSk2v596cn2r60" kvg:type="㇐" d="M47.71,46.93c2.13,0.7,4.74,0.66,6.89,0.29c7.9-1.35,20.65-2.85,31.02-3.85c2.09-0.2,4.17-0.19,6.24,0.22" transform="matrix(1,0,0,1,596,-4)" class="stroke_order_diagram--existing_path"></path><path id="pathSk2v596cn2r61" kvg:type="㇐" d="M39.56,65.64c2.64,0.76,5.75,0.58,8.45,0.23c10.93-1.41,28.49-3.37,42.86-3.97c2.71-0.11,5.15-0.12,7.81,0.34" transform="matrix(1,0,0,1,596,-4)" class="stroke_order_diagram--existing_path"></path><path id="kvg:04f34-s7" kvg:type="㇑" d="M68.6,10.75c1.2,1.2,1.5,2.62,1.5,4.08c0,0.87-0.09,67.42-0.09,73.42c0,4.59-0.01,7.92-0.01,9.25" transform="matrix(1,0,0,1,596,-4)" class="stroke_order_diagram--current_path"></path><path id="pathSk2v596cn2r63" kvg:type="㇑" d="M68.6,10.75c1.2,1.2,1.5,2.62,1.5,4.08c0,0.87-0.09,67.42-0.09,73.42c0,4.59-0.01,7.92-0.01,9.25" transform="matrix(1,0,0,1,596,-4)" class="stroke_order_diagram--current_path"></path><circle cx="68.6" cy="10.75" r="8" class="stroke_order_diagram--path_start" transform="matrix(1,0,0,1,596,-4)"></circle></svg>