<svg style="width: 900px; height: 100px;" viewbox="0 0 900 100"><style>
.stroke_order_diagram--outer_container {
  width: 100%;
  overflow-x: auto;
  overflow-y: hidden;
}

.stroke_order_diagram--guide_line {
  fill: none;
  stroke: #ddd;
  stroke-width: 3;
  stroke-linecap: square;
  stroke-linejoin: square;
  stroke-dasharray:8, 8;
}

.stroke_order_diagram--bounding_box {
  fill: none;
  stroke: #ddd;
  stroke-width: 4;
  stroke-linecap: square;
  stroke-linejoin: square;
}

.stroke_order_diagram--current_path {
  fill: none;
  stroke: #000;
  stroke-width: 6;
  stroke-linecap: round;
  stroke-linejoin: round;
}

.stroke_order_diagram--existing_path {
  fill: none;
  stroke: #aaa;
  stroke-width: 6;
  stroke-linecap: round;
  stroke-linejoin:round;
}

.stroke_order_diagram--path_start {
  fill: rgba(255, 0, 0, 0.7);
  stroke:none
}</style><desc>Created with Snap</desc><defs></defs><line x1="1" x2="899" y1="1" y2="1" class="stroke_order_diagram--bounding_box"></line><line x1="1" x2="1" y1="1" y2="99" class="stroke_order_diagram--bounding_box"></line><line x1="1" x2="899" y1="99" y2="99" class="stroke_order_diagram--bounding_box"></line><line x1="0" x2="900" y1="50" y2="50" class="stroke_order_diagram--guide_line"></line><line x1="50" x2="50" y1="1" y2="99" class="stroke_order_diagram--guide_line"></line><line x1="99" x2="99" y1="1" y2="99" class="stroke_order_diagram--bounding_box"></line><path id="kvg:04fdd-s1" kvg:type="㇒" d="M32,17c0.25,1.5,0.25,2.79-0.37,4.58C27.75,32.75,22.38,45.62,11,59.79" transform="matrix(1,0,0,1,-4,-4)" class="stroke_order_diagram--current_path"></path><path id="pathSk2v596cncco" kvg:type="㇒" d="M32,17c0.25,1.5,0.25,2.79-0.37,4.58C27.75,32.75,22.38,45.62,11,59.79" transform="matrix(1,0,0,1,-4,-4)" class="stroke_order_diagram--current_path"></path><circle cx="32" cy="17" r="8" class="stroke_order_diagram--path_start" transform="matrix(1,0,0,1,-4,-4)"></circle><line x1="150" x2="150" y1="1" y2="99" class="stroke_order_diagram--guide_line"></line><line x1="199" x2="199" y1="1" y2="99" class="stroke_order_diagram--bounding_box"></line><path id="pathSk2v596cnccr" kvg:type="㇒" d="M32,17c0.25,1.5,0.25,2.79-0.37,4.58C27.75,32.75,22.38,45.62,11,59.79" transform="matrix(1,0,0,1,96,-4)" class="stroke_order_diagram--existing_path"></path><path id="kvg:04fdd-s2" kvg:type="㇑" d="M26.03,41c0.59,0.61,1.01,1.72,1.01,2.98c0,10.13-0.03,30.75-0.04,42.52c0,2.78,0,5.18,0,7" transform="matrix(1,0,0,1,96,-4)" class="stroke_order_diagram--current_path"></path><path id="pathSk2v596cncct" kvg:type="㇑" d="M26.03,41c0.59,0.61,1.01,1.72,1.01,2.98c0,10.13-0.03,30.75-0.04,42.52c0,2.78,0,5.18,0,7" transform="matrix(1,0,0,1,96,-4)" class="stroke_order_diagram--current_path"></path><circle cx="26.03" cy="41" r="8" class="stroke_order_diagram--path_start" transform="matrix(1,0,0,1,96,-4)"></circle><line x1="250" x2="250" y1="1" y2="99" class="stroke_order_diagram--guide_line"></line><line x1="299" x2="299" y1="1" y2="99" class="stroke_order_diagram--bounding_box"></line><path id="pathSk2v596cnccw" kvg:type="㇒" d="M32,17c0.25,1.5,0.25,2.79-0.37,4.58C27.75,32.75,22.38,45.62,11,59.79" transform="matrix(1,0,0,1,196,-4)" class="stroke_order_diagram--existing_path"></path><path id="pathSk2v596cnccx" kvg:type="㇑" d="M26.03,41c0.59,0.61,1.01,1.72,1.01,2.98c0,10.13-0.03,30.75-0.04,42.52c0,2.78,0,5.18,0,7" transform="matrix(1,0,0,1,196,-4)" class="stroke_order_diagram--existing_path"></path><path id="kvg:04fdd-s3" kvg:type="㇑" d="M44.44,17.14c0.71,0.71,1.44,1.73,1.7,3.11c0.93,4.84,1.48,10.09,2.26,15.95c0.2,1.48,0.38,2.92,0.54,4.27" transform="matrix(1,0,0,1,196,-4)" class="stroke_order_diagram--current_path"></path><path id="pathSk2v596cnccz" kvg:type="㇑" d="M44.44,17.14c0.71,0.71,1.44,1.73,1.7,3.11c0.93,4.84,1.48,10.09,2.26,15.95c0.2,1.48,0.38,2.92,0.54,4.27" transform="matrix(1,0,0,1,196,-4)" class="stroke_order_diagram--current_path"></path><circle cx="44.44" cy="17.14" r="8" class="stroke_order_diagram--path_start" transform="matrix(1,0,0,1,196,-4)"></circle><line x1="350" x2="350" y1="1" y2="99" class="stroke_order_diagram--guide_line"></line><line x1="399" x2="399" y1="1" y2="99" class="stroke_order_diagram--bounding_box"></line><path id="pathSk2v596cncd2" kvg:type="㇒" d="M32,17c0.25,1.5,0.25,2.79-0.37,4.58C27.75,32.75,22.38,45.62,11,59.79" transform="matrix(1,0,0,1,296,-4)" class="stroke_order_diagram--existing_path"></path><path id="pathSk2v596cncd3" kvg:type="㇑" d="M26.03,41c0.59,0.61,1.01,1.72,1.01,2.98c0,10.13-0.03,30.75-0.04,42.52c0,2.78,0,5.18,0,7" transform="matrix(1,0,0,1,296,-4)" class="stroke_order_diagram--existing_path"></path><path id="pathSk2v596cncd4" kvg:type="㇑" d="M44.44,17.14c0.71,0.71,1.44,1.73,1.7,3.11c0.93,4.84,1.48,10.09,2.26,15.95c0.2,1.48,0.38,2.92,0.54,4.27" transform="matrix(1,0,0,1,296,-4)" class="stroke_order_diagram--existing_path"></path><path id="kvg:04fdd-s4" kvg:type="㇕b" d="M46.69,18.86C56.8,17.2,70.17,15.62,77,14.95c3.07-0.3,4.5,1.55,4.01,4.18c-0.87,4.62-2.23,9.15-3.56,15.38" transform="matrix(1,0,0,1,296,-4)" class="stroke_order_diagram--current_path"></path><path id="pathSk2v596cncd6" kvg:type="㇕b" d="M46.69,18.86C56.8,17.2,70.17,15.62,77,14.95c3.07-0.3,4.5,1.55,4.01,4.18c-0.87,4.62-2.23,9.15-3.56,15.38" transform="matrix(1,0,0,1,296,-4)" class="stroke_order_diagram--current_path"></path><circle cx="46.69" cy="18.86" r="8" class="stroke_order_diagram--path_start" transform="matrix(1,0,0,1,296,-4)"></circle><line x1="450" x2="450" y1="1" y2="99" class="stroke_order_diagram--guide_line"></line><line x1="499" x2="499" y1="1" y2="99" class="stroke_order_diagram--bounding_box"></line><path id="pathSk2v596cncd9" kvg:type="㇒" d="M32,17c0.25,1.5,0.25,2.79-0.37,4.58C27.75,32.75,22.38,45.62,11,59.79" transform="matrix(1,0,0,1,396,-4)" class="stroke_order_diagram--existing_path"></path><path id="pathSk2v596cncda" kvg:type="㇑" d="M26.03,41c0.59,0.61,1.01,1.72,1.01,2.98c0,10.13-0.03,30.75-0.04,42.52c0,2.78,0,5.18,0,7" transform="matrix(1,0,0,1,396,-4)" class="stroke_order_diagram--existing_path"></path><path id="pathSk2v596cncdb" kvg:type="㇑" d="M44.44,17.14c0.71,0.71,1.44,1.73,1.7,3.11c0.93,4.84,1.48,10.09,2.26,15.95c0.2,1.48,0.38,2.92,0.54,4.27" transform="matrix(1,0,0,1,396,-4)" class="stroke_order_diagram--existing_path"></path><path id="pathSk2v596cncdc" kvg:type="㇕b" d="M46.69,18.86C56.8,17.2,70.17,15.62,77,14.95c3.07-0.3,4.5,1.55,4.01,4.18c-0.87,4.62-2.23,9.15-3.56,15.38" transform="matrix(1,0,0,1,396,-4)" class="stroke_order_diagram--existing_path"></path><path id="kvg:04fdd-s5" kvg:type="㇐b" d="M50.12,38.33c4.36-0.52,16.06-1.67,24.63-2.6c1.98-0.22,3.73-0.17,5.11-0.35" transform="matrix(1,0,0,1,396,-4)" class="stroke_order_diagram--current_path"></path><path id="pathSk2v596cncde" kvg:type="㇐b" d="M50.12,38.33c4.36-0.52,16.06-1.67,24.63-2.6c1.98-0.22,3.73-0.17,5.11-0.35" transform="matrix(1,0,0,1,396,-4)" class="stroke_order_diagram--current_path"></path><circle cx="50.12" cy="38.33" r="8" class="stroke_order_diagram--path_start" transform="matrix(1,0,0,1,396,-4)"></circle><line x1="550" x2="550" y1="1" y2="99" class="stroke_order_diagram--guide_line"></line><line x1="599" x2="599" y1="1" y2="99" class="stroke_order_diagram--bounding_box"></line><path id="pathSk2v596cncdh" kvg:type="㇒" d="M32,17c0.25,1.5,0.25,2.79-0.37,4.58C27.75,32.75,22.38,45.62,11,59.79" transform="matrix(1,0,0,1,496,-4)" class="stroke_order_diagram--existing_path"></path><path id="pathSk2v596cncdi" kvg:type="㇑" d="M26.03,41c0.59,0.61,1.01,1.72,1.01,2.98c0,10.13-0.03,30.75-0.04,42.52c0,2.78,0,5.18,0,7" transform="matrix(1,0,0,1,496,-4)" class="stroke_order_diagram--existing_path"></path><path id="pathSk2v596cncdj" kvg:type="㇑" d="M44.44,17.14c0.71,0.71,1.44,1.73,1.7,3.11c0.93,4.84,1.48,10.09,2.26,15.95c0.2,1.48,0.38,2.92,0.54,4.27" transform="matrix(1,0,0,1,496,-4)" class="stroke_order_diagram--existing_path"></path><path id="pathSk2v596cncdk" kvg:type="㇕b" d="M46.69,18.86C56.8,17.2,70.17,15.62,77,14.95c3.07-0.3,4.5,1.55,4.01,4.18c-0.87,4.62-2.23,9.15-3.56,15.38" transform="matrix(1,0,0,1,496,-4)" class="stroke_order_diagram--existing_path"></path><path id="pathSk2v596cncdl" kvg:type="㇐b" d="M50.12,38.33c4.36-0.52,16.06-1.67,24.63-2.6c1.98-0.22,3.73-0.17,5.11-0.35" transform="matrix(1,0,0,1,496,-4)" class="stroke_order_diagram--existing_path"></path><path id="kvg:04fdd-s6" kvg:type="㇐" d="M36.11,56.69c2.14,0.31,3.9,0.25,5.89,0.11c7.91-0.55,33.25-2.79,45.64-3.26c1.61-0.06,3.88,0.03,5.47,0.32" transform="matrix(1,0,0,1,496,-4)" class="stroke_order_diagram--current_path"></path><path id="pathSk2v596cncdn" kvg:type="㇐" d="M36.11,56.69c2.14,0.31,3.9,0.25,5.89,0.11c7.91-0.55,33.25-2.79,45.64-3.26c1.61-0.06,3.88,0.03,5.47,0.32" transform="matrix(1,0,0,1,496,-4)" class="stroke_order_diagram--current_path"></path><circle cx="36.11" cy="56.69" r="8" class="stroke_order_diagram--path_start" transform="matrix(1,0,0,1,496,-4)"></circle><line x1="650" x2="650" y1="1" y2="99" class="stroke_order_diagram--guide_line"></line><line x1="699" x2="699" y1="1" y2="99" class="stroke_order_diagram--bounding_box"></line><path id="pathSk2v596cncdq" kvg:type="㇒" d="M32,17c0.25,1.5,0.25,2.79-0.37,4.58C27.75,32.75,22.38,45.62,11,59.79" transform="matrix(1,0,0,1,596,-4)" class="stroke_order_diagram--existing_path"></path><path id="pathSk2v596cncdr" kvg:type="㇑" d="M26.03,41c0.59,0.61,1.01,1.72,1.01,2.98c0,10.13-0.03,30.75-0.04,42.52c0,2.78,0,5.18,0,7" transform="matrix(1,0,0,1,596,-4)" class="stroke_order_diagram--existing_path"></path><path id="pathSk2v596cncds" kvg:type="㇑" d="M44.44,17.14c0.71,0.71,1.44,1.73,1.7,3.11c0.93,4.84,1.48,10.09,2.26,15.95c0.2,1.48,0.38,2.92,0.54,4.27" transform="matrix(1,0,0,1,596,-4)" class="stroke_order_diagram--existing_path"></path><path id="pathSk2v596cncdt" kvg:type="㇕b" d="M46.69,18.86C56.8,17.2,70.17,15.62,77,14.95c3.07-0.3,4.5,1.55,4.01,4.18c-0.87,4.62-2.23,9.15-3.56,15.38" transform="matrix(1,0,0,1,596,-4)" class="stroke_order_diagram--existing_path"></path><path id="pathSk2v596cncdu" kvg:type="㇐b" d="M50.12,38.33c4.36-0.52,16.06-1.67,24.63-2.6c1.98-0.22,3.73-0.17,5.11-0.35" transform="matrix(1,0,0,1,596,-4)" class="stroke_order_diagram--existing_path"></path><path id="pathSk2v596cncdv" kvg:type="㇐" d="M36.11,56.69c2.14,0.31,3.9,0.25,5.89,0.11c7.91-0.55,33.25-2.79,45.64-3.26c1.61-0.06,3.88,0.03,5.47,0.32" transform="matrix(1,0,0,1,596,-4)" class="stroke_order_diagram--existing_path"></path><path id="kvg:04fdd-s7" kvg:type="㇑" d="M62.6,43.27c0.75,0.75,1.27,1.98,1.27,3.95c0,5.02,0,26.55-0.09,38.78c-0.03,3.62,0.02,6.55-0.02,7.88" transform="matrix(1,0,0,1,596,-4)" class="stroke_order_diagram--current_path"></path><path id="pathSk2v596cncdx" kvg:type="㇑" d="M62.6,43.27c0.75,0.75,1.27,1.98,1.27,3.95c0,5.02,0,26.55-0.09,38.78c-0.03,3.62,0.02,6.55-0.02,7.88" transform="matrix(1,0,0,1,596,-4)" class="stroke_order_diagram--current_path"></path><circle cx="62.6" cy="43.27" r="8" class="stroke_order_diagram--path_start" transform="matrix(1,0,0,1,596,-4)"></circle><line x1="750" x2="750" y1="1" y2="99" class="stroke_order_diagram--guide_line"></line><line x1="799" x2="799" y1="1" y2="99" class="stroke_order_diagram--bounding_box"></line><path id="pathSk2v596cnce0" kvg:type="㇒" d="M32,17c0.25,1.5,0.25,2.79-0.37,4.58C27.75,32.75,22.38,45.62,11,59.79" transform="matrix(1,0,0,1,696,-4)" class="stroke_order_diagram--existing_path"></path><path id="pathSk2v596cnce1" kvg:type="㇑" d="M26.03,41c0.59,0.61,1.01,1.72,1.01,2.98c0,10.13-0.03,30.75-0.04,42.52c0,2.78,0,5.18,0,7" transform="matrix(1,0,0,1,696,-4)" class="stroke_order_diagram--existing_path"></path><path id="pathSk2v596cnce2" kvg:type="㇑" d="M44.44,17.14c0.71,0.71,1.44,1.73,1.7,3.11c0.93,4.84,1.48,10.09,2.26,15.95c0.2,1.48,0.38,2.92,0.54,4.27" transform="matrix(1,0,0,1,696,-4)" class="stroke_order_diagram--existing_path"></path><path id="pathSk2v596cnce3" kvg:type="㇕b" d="M46.69,18.86C56.8,17.2,70.17,15.62,77,14.95c3.07-0.3,4.5,1.55,4.01,4.18c-0.87,4.62-2.23,9.15-3.56,15.38" transform="matrix(1,0,0,1,696,-4)" class="stroke_order_diagram--existing_path"></path><path id="pathSk2v596cnce4" kvg:type="㇐b" d="M50.12,38.33c4.36-0.52,16.06-1.67,24.63-2.6c1.98-0.22,3.73-0.17,5.11-0.35" transform="matrix(1,0,0,1,696,-4)" class="stroke_order_diagram--existing_path"></path><path id="pathSk2v596cnce5" kvg:type="㇐" d="M36.11,56.69c2.14,0.31,3.9,0.25,5.89,0.11c7.91-0.55,33.25-2.79,45.64-3.26c1.61-0.06,3.88,0.03,5.47,0.32" transform="matrix(1,0,0,1,696,-4)" class="stroke_order_diagram--existing_path"></path><path id="pathSk2v596cnce6" kvg:type="㇑" d="M62.6,43.27c0.75,0.75,1.27,1.98,1.27,3.95c0,5.02,0,26.55-0.09,38.78c-0.03,3.62,0.02,6.55-0.02,7.88" transform="matrix(1,0,0,1,696,-4)" class="stroke_order_diagram--existing_path"></path><path id="kvg:04fdd-s8" kvg:type="㇒" d="M60.13,56.32c0,0.93-0.35,1.99-1.18,3.31c-5.97,9.5-15.91,20.27-25.2,25.24" transform="matrix(1,0,0,1,696,-4)" class="stroke_order_diagram--current_path"></path><path id="pathSk2v596cnce8" kvg:type="㇒" d="M60.13,56.32c0,0.93-0.35,1.99-1.18,3.31c-5.97,9.5-15.91,20.27-25.2,25.24" transform="matrix(1,0,0,1,696,-4)" class="stroke_order_diagram--current_path"></path><circle cx="60.13" cy="56.32" r="8" class="stroke_order_diagram--path_start" transform="matrix(1,0,0,1,696,-4)"></circle><line x1="850" x2="850" y1="1" y2="99" class="stroke_order_diagram--guide_line"></line><line x1="899" x2="899" y1="1" y2="99" class="stroke_order_diagram--bounding_box"></line><path id="pathSk2v596cnceb" kvg:type="㇒" d="M32,17c0.25,1.5,0.25,2.79-0.37,4.58C27.75,32.75,22.38,45.62,11,59.79" transform="matrix(1,0,0,1,796,-4)" class="stroke_order_diagram--existing_path"></path><path id="pathSk2v596cncec" kvg:type="㇑" d="M26.03,41c0.59,0.61,1.01,1.72,1.01,2.98c0,10.13-0.03,30.75-0.04,42.52c0,2.78,0,5.18,0,7" transform="matrix(1,0,0,1,796,-4)" class="stroke_order_diagram--existing_path"></path><path id="pathSk2v596cnced" kvg:type="㇑" d="M44.44,17.14c0.71,0.71,1.44,1.73,1.7,3.11c0.93,4.84,1.48,10.09,2.26,15.95c0.2,1.48,0.38,2.92,0.54,4.27" transform="matrix(1,0,0,1,796,-4)" class="stroke_order_diagram--existing_path"></path><path id="pathSk2v596cncee" kvg:type="㇕b" d="M46.69,18.86C56.8,17.2,70.17,15.62,77,14.95c3.07-0.3,4.5,1.55,4.01,4.18c-0.87,4.62-2.23,9.15-3.56,15.38" transform="matrix(1,0,0,1,796,-4)" class="stroke_order_diagram--existing_path"></path><path id="pathSk2v596cncef" kvg:type="㇐b" d="M50.12,38.33c4.36-0.52,16.06-1.67,24.63-2.6c1.98-0.22,3.73-0.17,5.11-0.35" transform="matrix(1,0,0,1,796,-4)" class="stroke_order_diagram--existing_path"></path><path id="pathSk2v596cnceg" kvg:type="㇐" d="M36.11,56.69c2.14,0.31,3.9,0.25,5.89,0.11c7.91-0.55,33.25-2.79,45.64-3.26c1.61-0.06,3.88,0.03,5.47,0.32" transform="matrix(1,0,0,1,796,-4)" class="stroke_order_diagram--existing_path"></path><path id="pathSk2v596cnceh" kvg:type="㇑" d="M62.6,43.27c0.75,0.75,1.27,1.98,1.27,3.95c0,5.02,0,26.55-0.09,38.78c-0.03,3.62,0.02,6.55-0.02,7.88" transform="matrix(1,0,0,1,796,-4)" class="stroke_order_diagram--existing_path"></path><path id="pathSk2v596cncei" kvg:type="㇒" d="M60.13,56.32c0,0.93-0.35,1.99-1.18,3.31c-5.97,9.5-15.91,20.27-25.2,25.24" transform="matrix(1,0,0,1,796,-4)" class="stroke_order_diagram--existing_path"></path><path id="kvg:04fdd-s9" kvg:type="㇏" d="M65.92,55.63C72.25,64.62,80,72.75,87.94,80.08c2.3,2.12,4.67,3.81,6.68,5.3" transform="matrix(1,0,0,1,796,-4)" class="stroke_order_diagram--current_path"></path><path id="pathSk2v596cncek" kvg:type="㇏" d="M65.92,55.63C72.25,64.62,80,72.75,87.94,80.08c2.3,2.12,4.67,3.81,6.68,5.3" transform="matrix(1,0,0,1,796,-4)" class="stroke_order_diagram--current_path"></path><circle cx="65.92" cy="55.63" r="8" class="stroke_order_diagram--path_start" transform="matrix(1,0,0,1,796,-4)"></circle></svg>