<svg style="width: 1300px; height: 100px;" viewbox="0 0 1300 100"><style>
.stroke_order_diagram--outer_container {
  width: 100%;
  overflow-x: auto;
  overflow-y: hidden;
}

.stroke_order_diagram--guide_line {
  fill: none;
  stroke: #ddd;
  stroke-width: 3;
  stroke-linecap: square;
  stroke-linejoin: square;
  stroke-dasharray:8, 8;
}

.stroke_order_diagram--bounding_box {
  fill: none;
  stroke: #ddd;
  stroke-width: 4;
  stroke-linecap: square;
  stroke-linejoin: square;
}

.stroke_order_diagram--current_path {
  fill: none;
  stroke: #000;
  stroke-width: 6;
  stroke-linecap: round;
  stroke-linejoin: round;
}

.stroke_order_diagram--existing_path {
  fill: none;
  stroke: #aaa;
  stroke-width: 6;
  stroke-linecap: round;
  stroke-linejoin:round;
}

.stroke_order_diagram--path_start {
  fill: rgba(255, 0, 0, 0.7);
  stroke:none
}</style><desc>Created with Snap</desc><defs></defs><line x1="1" x2="1299" y1="1" y2="1" class="stroke_order_diagram--bounding_box"></line><line x1="1" x2="1" y1="1" y2="99" class="stroke_order_diagram--bounding_box"></line><line x1="1" x2="1299" y1="99" y2="99" class="stroke_order_diagram--bounding_box"></line><line x1="0" x2="1300" y1="50" y2="50" class="stroke_order_diagram--guide_line"></line><line x1="50" x2="50" y1="1" y2="99" class="stroke_order_diagram--guide_line"></line><line x1="99" x2="99" y1="1" y2="99" class="stroke_order_diagram--bounding_box"></line><path id="kvg:05091-s1" kvg:type="㇒" d="M32.5,15.25c0.25,2,0.05,3.81-0.62,5.58C27.75,31.75,23.25,43.5,11.5,56.79" transform="matrix(1,0,0,1,-4,-4)" class="stroke_order_diagram--current_path"></path><path id="pathSk2v596cn4o58" kvg:type="㇒" d="M32.5,15.25c0.25,2,0.05,3.81-0.62,5.58C27.75,31.75,23.25,43.5,11.5,56.79" transform="matrix(1,0,0,1,-4,-4)" class="stroke_order_diagram--current_path"></path><circle cx="32.5" cy="15.25" r="8" class="stroke_order_diagram--path_start" transform="matrix(1,0,0,1,-4,-4)"></circle><line x1="150" x2="150" y1="1" y2="99" class="stroke_order_diagram--guide_line"></line><line x1="199" x2="199" y1="1" y2="99" class="stroke_order_diagram--bounding_box"></line><path id="pathSk2v596cn4o5b" kvg:type="㇒" d="M32.5,15.25c0.25,2,0.05,3.81-0.62,5.58C27.75,31.75,23.25,43.5,11.5,56.79" transform="matrix(1,0,0,1,96,-4)" class="stroke_order_diagram--existing_path"></path><path id="kvg:05091-s2" kvg:type="㇑" d="M23.28,43.25c0.92,0.92,1.26,2.22,1.26,3.48c0,8.75-0.02,29.52-0.03,40.52c0,3.79-0.01,6.42-0.01,7" transform="matrix(1,0,0,1,96,-4)" class="stroke_order_diagram--current_path"></path><path id="pathSk2v596cn4o5d" kvg:type="㇑" d="M23.28,43.25c0.92,0.92,1.26,2.22,1.26,3.48c0,8.75-0.02,29.52-0.03,40.52c0,3.79-0.01,6.42-0.01,7" transform="matrix(1,0,0,1,96,-4)" class="stroke_order_diagram--current_path"></path><circle cx="23.28" cy="43.25" r="8" class="stroke_order_diagram--path_start" transform="matrix(1,0,0,1,96,-4)"></circle><line x1="250" x2="250" y1="1" y2="99" class="stroke_order_diagram--guide_line"></line><line x1="299" x2="299" y1="1" y2="99" class="stroke_order_diagram--bounding_box"></line><path id="pathSk2v596cn4o5g" kvg:type="㇒" d="M32.5,15.25c0.25,2,0.05,3.81-0.62,5.58C27.75,31.75,23.25,43.5,11.5,56.79" transform="matrix(1,0,0,1,196,-4)" class="stroke_order_diagram--existing_path"></path><path id="pathSk2v596cn4o5h" kvg:type="㇑" d="M23.28,43.25c0.92,0.92,1.26,2.22,1.26,3.48c0,8.75-0.02,29.52-0.03,40.52c0,3.79-0.01,6.42-0.01,7" transform="matrix(1,0,0,1,196,-4)" class="stroke_order_diagram--existing_path"></path><path id="kvg:05091-s3" kvg:type="㇒" d="M46.96,18.19c0.31,0.92-0.17,2.11-0.46,2.98c-2.02,5.97-6.6,15.1-13.53,21.44" transform="matrix(1,0,0,1,196,-4)" class="stroke_order_diagram--current_path"></path><path id="pathSk2v596cn4o5j" kvg:type="㇒" d="M46.96,18.19c0.31,0.92-0.17,2.11-0.46,2.98c-2.02,5.97-6.6,15.1-13.53,21.44" transform="matrix(1,0,0,1,196,-4)" class="stroke_order_diagram--current_path"></path><circle cx="46.96" cy="18.19" r="8" class="stroke_order_diagram--path_start" transform="matrix(1,0,0,1,196,-4)"></circle><line x1="350" x2="350" y1="1" y2="99" class="stroke_order_diagram--guide_line"></line><line x1="399" x2="399" y1="1" y2="99" class="stroke_order_diagram--bounding_box"></line><path id="pathSk2v596cn4o5m" kvg:type="㇒" d="M32.5,15.25c0.25,2,0.05,3.81-0.62,5.58C27.75,31.75,23.25,43.5,11.5,56.79" transform="matrix(1,0,0,1,296,-4)" class="stroke_order_diagram--existing_path"></path><path id="pathSk2v596cn4o5n" kvg:type="㇑" d="M23.28,43.25c0.92,0.92,1.26,2.22,1.26,3.48c0,8.75-0.02,29.52-0.03,40.52c0,3.79-0.01,6.42-0.01,7" transform="matrix(1,0,0,1,296,-4)" class="stroke_order_diagram--existing_path"></path><path id="pathSk2v596cn4o5o" kvg:type="㇒" d="M46.96,18.19c0.31,0.92-0.17,2.11-0.46,2.98c-2.02,5.97-6.6,15.1-13.53,21.44" transform="matrix(1,0,0,1,296,-4)" class="stroke_order_diagram--existing_path"></path><path id="kvg:05091-s4" kvg:type="㇇" d="M47.21,25.27c0.18,0.03,1.76,0,2.27-0.09c1.53-0.25,4.88-1.16,7.18-2.08c1.84-0.73,3.27-0.01,2.68,2.25C57.02,34.28,46,52.5,34.61,58.69" transform="matrix(1,0,0,1,296,-4)" class="stroke_order_diagram--current_path"></path><path id="pathSk2v596cn4o5q" kvg:type="㇇" d="M47.21,25.27c0.18,0.03,1.76,0,2.27-0.09c1.53-0.25,4.88-1.16,7.18-2.08c1.84-0.73,3.27-0.01,2.68,2.25C57.02,34.28,46,52.5,34.61,58.69" transform="matrix(1,0,0,1,296,-4)" class="stroke_order_diagram--current_path"></path><circle cx="47.21" cy="25.27" r="8" class="stroke_order_diagram--path_start" transform="matrix(1,0,0,1,296,-4)"></circle><line x1="450" x2="450" y1="1" y2="99" class="stroke_order_diagram--guide_line"></line><line x1="499" x2="499" y1="1" y2="99" class="stroke_order_diagram--bounding_box"></line><path id="pathSk2v596cn4o5t" kvg:type="㇒" d="M32.5,15.25c0.25,2,0.05,3.81-0.62,5.58C27.75,31.75,23.25,43.5,11.5,56.79" transform="matrix(1,0,0,1,396,-4)" class="stroke_order_diagram--existing_path"></path><path id="pathSk2v596cn4o5u" kvg:type="㇑" d="M23.28,43.25c0.92,0.92,1.26,2.22,1.26,3.48c0,8.75-0.02,29.52-0.03,40.52c0,3.79-0.01,6.42-0.01,7" transform="matrix(1,0,0,1,396,-4)" class="stroke_order_diagram--existing_path"></path><path id="pathSk2v596cn4o5v" kvg:type="㇒" d="M46.96,18.19c0.31,0.92-0.17,2.11-0.46,2.98c-2.02,5.97-6.6,15.1-13.53,21.44" transform="matrix(1,0,0,1,396,-4)" class="stroke_order_diagram--existing_path"></path><path id="pathSk2v596cn4o5w" kvg:type="㇇" d="M47.21,25.27c0.18,0.03,1.76,0,2.27-0.09c1.53-0.25,4.88-1.16,7.18-2.08c1.84-0.73,3.27-0.01,2.68,2.25C57.02,34.28,46,52.5,34.61,58.69" transform="matrix(1,0,0,1,396,-4)" class="stroke_order_diagram--existing_path"></path><path id="kvg:05091-s5" kvg:type="㇔" d="M42.75,35.62c1.94,1.02,5.02,4.2,5.51,5.79" transform="matrix(1,0,0,1,396,-4)" class="stroke_order_diagram--current_path"></path><path id="pathSk2v596cn4o5y" kvg:type="㇔" d="M42.75,35.62c1.94,1.02,5.02,4.2,5.51,5.79" transform="matrix(1,0,0,1,396,-4)" class="stroke_order_diagram--current_path"></path><circle cx="42.75" cy="35.62" r="8" class="stroke_order_diagram--path_start" transform="matrix(1,0,0,1,396,-4)"></circle><line x1="550" x2="550" y1="1" y2="99" class="stroke_order_diagram--guide_line"></line><line x1="599" x2="599" y1="1" y2="99" class="stroke_order_diagram--bounding_box"></line><path id="pathSk2v596cn4o61" kvg:type="㇒" d="M32.5,15.25c0.25,2,0.05,3.81-0.62,5.58C27.75,31.75,23.25,43.5,11.5,56.79" transform="matrix(1,0,0,1,496,-4)" class="stroke_order_diagram--existing_path"></path><path id="pathSk2v596cn4o62" kvg:type="㇑" d="M23.28,43.25c0.92,0.92,1.26,2.22,1.26,3.48c0,8.75-0.02,29.52-0.03,40.52c0,3.79-0.01,6.42-0.01,7" transform="matrix(1,0,0,1,496,-4)" class="stroke_order_diagram--existing_path"></path><path id="pathSk2v596cn4o63" kvg:type="㇒" d="M46.96,18.19c0.31,0.92-0.17,2.11-0.46,2.98c-2.02,5.97-6.6,15.1-13.53,21.44" transform="matrix(1,0,0,1,496,-4)" class="stroke_order_diagram--existing_path"></path><path id="pathSk2v596cn4o64" kvg:type="㇇" d="M47.21,25.27c0.18,0.03,1.76,0,2.27-0.09c1.53-0.25,4.88-1.16,7.18-2.08c1.84-0.73,3.27-0.01,2.68,2.25C57.02,34.28,46,52.5,34.61,58.69" transform="matrix(1,0,0,1,496,-4)" class="stroke_order_diagram--existing_path"></path><path id="pathSk2v596cn4o65" kvg:type="㇔" d="M42.75,35.62c1.94,1.02,5.02,4.2,5.51,5.79" transform="matrix(1,0,0,1,496,-4)" class="stroke_order_diagram--existing_path"></path><path id="kvg:05091-s6" kvg:type="㇐" d="M61.97,28.54c1.38,0.29,3.38,0.09,4.8-0.03C73,28,81,26.38,85.68,25.44c1.12-0.22,2.08-0.01,2.65,0.05" transform="matrix(1,0,0,1,496,-4)" class="stroke_order_diagram--current_path"></path><path id="pathSk2v596cn4o67" kvg:type="㇐" d="M61.97,28.54c1.38,0.29,3.38,0.09,4.8-0.03C73,28,81,26.38,85.68,25.44c1.12-0.22,2.08-0.01,2.65,0.05" transform="matrix(1,0,0,1,496,-4)" class="stroke_order_diagram--current_path"></path><circle cx="61.97" cy="28.54" r="8" class="stroke_order_diagram--path_start" transform="matrix(1,0,0,1,496,-4)"></circle><line x1="650" x2="650" y1="1" y2="99" class="stroke_order_diagram--guide_line"></line><line x1="699" x2="699" y1="1" y2="99" class="stroke_order_diagram--bounding_box"></line><path id="pathSk2v596cn4o6a" kvg:type="㇒" d="M32.5,15.25c0.25,2,0.05,3.81-0.62,5.58C27.75,31.75,23.25,43.5,11.5,56.79" transform="matrix(1,0,0,1,596,-4)" class="stroke_order_diagram--existing_path"></path><path id="pathSk2v596cn4o6b" kvg:type="㇑" d="M23.28,43.25c0.92,0.92,1.26,2.22,1.26,3.48c0,8.75-0.02,29.52-0.03,40.52c0,3.79-0.01,6.42-0.01,7" transform="matrix(1,0,0,1,596,-4)" class="stroke_order_diagram--existing_path"></path><path id="pathSk2v596cn4o6c" kvg:type="㇒" d="M46.96,18.19c0.31,0.92-0.17,2.11-0.46,2.98c-2.02,5.97-6.6,15.1-13.53,21.44" transform="matrix(1,0,0,1,596,-4)" class="stroke_order_diagram--existing_path"></path><path id="pathSk2v596cn4o6d" kvg:type="㇇" d="M47.21,25.27c0.18,0.03,1.76,0,2.27-0.09c1.53-0.25,4.88-1.16,7.18-2.08c1.84-0.73,3.27-0.01,2.68,2.25C57.02,34.28,46,52.5,34.61,58.69" transform="matrix(1,0,0,1,596,-4)" class="stroke_order_diagram--existing_path"></path><path id="pathSk2v596cn4o6e" kvg:type="㇔" d="M42.75,35.62c1.94,1.02,5.02,4.2,5.51,5.79" transform="matrix(1,0,0,1,596,-4)" class="stroke_order_diagram--existing_path"></path><path id="pathSk2v596cn4o6f" kvg:type="㇐" d="M61.97,28.54c1.38,0.29,3.38,0.09,4.8-0.03C73,28,81,26.38,85.68,25.44c1.12-0.22,2.08-0.01,2.65,0.05" transform="matrix(1,0,0,1,596,-4)" class="stroke_order_diagram--existing_path"></path><path id="kvg:05091-s7" kvg:type="㇑a" d="M65.21,29.7c0.73,0.73,1.21,1.67,1.21,2.71c0,3.34-0.05,5.99-0.05,9.47" transform="matrix(1,0,0,1,596,-4)" class="stroke_order_diagram--current_path"></path><path id="pathSk2v596cn4o6h" kvg:type="㇑a" d="M65.21,29.7c0.73,0.73,1.21,1.67,1.21,2.71c0,3.34-0.05,5.99-0.05,9.47" transform="matrix(1,0,0,1,596,-4)" class="stroke_order_diagram--current_path"></path><circle cx="65.21" cy="29.7" r="8" class="stroke_order_diagram--path_start" transform="matrix(1,0,0,1,596,-4)"></circle><line x1="750" x2="750" y1="1" y2="99" class="stroke_order_diagram--guide_line"></line><line x1="799" x2="799" y1="1" y2="99" class="stroke_order_diagram--bounding_box"></line><path id="pathSk2v596cn4o6k" kvg:type="㇒" d="M32.5,15.25c0.25,2,0.05,3.81-0.62,5.58C27.75,31.75,23.25,43.5,11.5,56.79" transform="matrix(1,0,0,1,696,-4)" class="stroke_order_diagram--existing_path"></path><path id="pathSk2v596cn4o6l" kvg:type="㇑" d="M23.28,43.25c0.92,0.92,1.26,2.22,1.26,3.48c0,8.75-0.02,29.52-0.03,40.52c0,3.79-0.01,6.42-0.01,7" transform="matrix(1,0,0,1,696,-4)" class="stroke_order_diagram--existing_path"></path><path id="pathSk2v596cn4o6m" kvg:type="㇒" d="M46.96,18.19c0.31,0.92-0.17,2.11-0.46,2.98c-2.02,5.97-6.6,15.1-13.53,21.44" transform="matrix(1,0,0,1,696,-4)" class="stroke_order_diagram--existing_path"></path><path id="pathSk2v596cn4o6n" kvg:type="㇇" d="M47.21,25.27c0.18,0.03,1.76,0,2.27-0.09c1.53-0.25,4.88-1.16,7.18-2.08c1.84-0.73,3.27-0.01,2.68,2.25C57.02,34.28,46,52.5,34.61,58.69" transform="matrix(1,0,0,1,696,-4)" class="stroke_order_diagram--existing_path"></path><path id="pathSk2v596cn4o6o" kvg:type="㇔" d="M42.75,35.62c1.94,1.02,5.02,4.2,5.51,5.79" transform="matrix(1,0,0,1,696,-4)" class="stroke_order_diagram--existing_path"></path><path id="pathSk2v596cn4o6p" kvg:type="㇐" d="M61.97,28.54c1.38,0.29,3.38,0.09,4.8-0.03C73,28,81,26.38,85.68,25.44c1.12-0.22,2.08-0.01,2.65,0.05" transform="matrix(1,0,0,1,696,-4)" class="stroke_order_diagram--existing_path"></path><path id="pathSk2v596cn4o6q" kvg:type="㇑a" d="M65.21,29.7c0.73,0.73,1.21,1.67,1.21,2.71c0,3.34-0.05,5.99-0.05,9.47" transform="matrix(1,0,0,1,696,-4)" class="stroke_order_diagram--existing_path"></path><path id="kvg:05091-s8" kvg:type="㇐" d="M57.48,43.32c1.97,0.41,4.57,0.17,6.54-0.09c5.75-0.74,19.74-2.73,25.87-3.4c1.57-0.17,2.92-0.23,4.46-0.07" transform="matrix(1,0,0,1,696,-4)" class="stroke_order_diagram--current_path"></path><path id="pathSk2v596cn4o6s" kvg:type="㇐" d="M57.48,43.32c1.97,0.41,4.57,0.17,6.54-0.09c5.75-0.74,19.74-2.73,25.87-3.4c1.57-0.17,2.92-0.23,4.46-0.07" transform="matrix(1,0,0,1,696,-4)" class="stroke_order_diagram--current_path"></path><circle cx="57.48" cy="43.32" r="8" class="stroke_order_diagram--path_start" transform="matrix(1,0,0,1,696,-4)"></circle><line x1="850" x2="850" y1="1" y2="99" class="stroke_order_diagram--guide_line"></line><line x1="899" x2="899" y1="1" y2="99" class="stroke_order_diagram--bounding_box"></line><path id="pathSk2v596cn4o6v" kvg:type="㇒" d="M32.5,15.25c0.25,2,0.05,3.81-0.62,5.58C27.75,31.75,23.25,43.5,11.5,56.79" transform="matrix(1,0,0,1,796,-4)" class="stroke_order_diagram--existing_path"></path><path id="pathSk2v596cn4o6w" kvg:type="㇑" d="M23.28,43.25c0.92,0.92,1.26,2.22,1.26,3.48c0,8.75-0.02,29.52-0.03,40.52c0,3.79-0.01,6.42-0.01,7" transform="matrix(1,0,0,1,796,-4)" class="stroke_order_diagram--existing_path"></path><path id="pathSk2v596cn4o6x" kvg:type="㇒" d="M46.96,18.19c0.31,0.92-0.17,2.11-0.46,2.98c-2.02,5.97-6.6,15.1-13.53,21.44" transform="matrix(1,0,0,1,796,-4)" class="stroke_order_diagram--existing_path"></path><path id="pathSk2v596cn4o6y" kvg:type="㇇" d="M47.21,25.27c0.18,0.03,1.76,0,2.27-0.09c1.53-0.25,4.88-1.16,7.18-2.08c1.84-0.73,3.27-0.01,2.68,2.25C57.02,34.28,46,52.5,34.61,58.69" transform="matrix(1,0,0,1,796,-4)" class="stroke_order_diagram--existing_path"></path><path id="pathSk2v596cn4o6z" kvg:type="㇔" d="M42.75,35.62c1.94,1.02,5.02,4.2,5.51,5.79" transform="matrix(1,0,0,1,796,-4)" class="stroke_order_diagram--existing_path"></path><path id="pathSk2v596cn4o70" kvg:type="㇐" d="M61.97,28.54c1.38,0.29,3.38,0.09,4.8-0.03C73,28,81,26.38,85.68,25.44c1.12-0.22,2.08-0.01,2.65,0.05" transform="matrix(1,0,0,1,796,-4)" class="stroke_order_diagram--existing_path"></path><path id="pathSk2v596cn4o71" kvg:type="㇑a" d="M65.21,29.7c0.73,0.73,1.21,1.67,1.21,2.71c0,3.34-0.05,5.99-0.05,9.47" transform="matrix(1,0,0,1,796,-4)" class="stroke_order_diagram--existing_path"></path><path id="pathSk2v596cn4o72" kvg:type="㇐" d="M57.48,43.32c1.97,0.41,4.57,0.17,6.54-0.09c5.75-0.74,19.74-2.73,25.87-3.4c1.57-0.17,2.92-0.23,4.46-0.07" transform="matrix(1,0,0,1,796,-4)" class="stroke_order_diagram--existing_path"></path><path id="kvg:05091-s9" kvg:type="㇑" d="M77,15.17c0.79,0.79,1.01,2.08,1.01,2.95c0,0.36,0.06,22.55,0.08,33.01c0,3.13,0.01,5.21,0,5.34" transform="matrix(1,0,0,1,796,-4)" class="stroke_order_diagram--current_path"></path><path id="pathSk2v596cn4o74" kvg:type="㇑" d="M77,15.17c0.79,0.79,1.01,2.08,1.01,2.95c0,0.36,0.06,22.55,0.08,33.01c0,3.13,0.01,5.21,0,5.34" transform="matrix(1,0,0,1,796,-4)" class="stroke_order_diagram--current_path"></path><circle cx="77" cy="15.17" r="8" class="stroke_order_diagram--path_start" transform="matrix(1,0,0,1,796,-4)"></circle><line x1="950" x2="950" y1="1" y2="99" class="stroke_order_diagram--guide_line"></line><line x1="999" x2="999" y1="1" y2="99" class="stroke_order_diagram--bounding_box"></line><path id="pathSk2v596cn4o77" kvg:type="㇒" d="M32.5,15.25c0.25,2,0.05,3.81-0.62,5.58C27.75,31.75,23.25,43.5,11.5,56.79" transform="matrix(1,0,0,1,896,-4)" class="stroke_order_diagram--existing_path"></path><path id="pathSk2v596cn4o78" kvg:type="㇑" d="M23.28,43.25c0.92,0.92,1.26,2.22,1.26,3.48c0,8.75-0.02,29.52-0.03,40.52c0,3.79-0.01,6.42-0.01,7" transform="matrix(1,0,0,1,896,-4)" class="stroke_order_diagram--existing_path"></path><path id="pathSk2v596cn4o79" kvg:type="㇒" d="M46.96,18.19c0.31,0.92-0.17,2.11-0.46,2.98c-2.02,5.97-6.6,15.1-13.53,21.44" transform="matrix(1,0,0,1,896,-4)" class="stroke_order_diagram--existing_path"></path><path id="pathSk2v596cn4o7a" kvg:type="㇇" d="M47.21,25.27c0.18,0.03,1.76,0,2.27-0.09c1.53-0.25,4.88-1.16,7.18-2.08c1.84-0.73,3.27-0.01,2.68,2.25C57.02,34.28,46,52.5,34.61,58.69" transform="matrix(1,0,0,1,896,-4)" class="stroke_order_diagram--existing_path"></path><path id="pathSk2v596cn4o7b" kvg:type="㇔" d="M42.75,35.62c1.94,1.02,5.02,4.2,5.51,5.79" transform="matrix(1,0,0,1,896,-4)" class="stroke_order_diagram--existing_path"></path><path id="pathSk2v596cn4o7c" kvg:type="㇐" d="M61.97,28.54c1.38,0.29,3.38,0.09,4.8-0.03C73,28,81,26.38,85.68,25.44c1.12-0.22,2.08-0.01,2.65,0.05" transform="matrix(1,0,0,1,896,-4)" class="stroke_order_diagram--existing_path"></path><path id="pathSk2v596cn4o7d" kvg:type="㇑a" d="M65.21,29.7c0.73,0.73,1.21,1.67,1.21,2.71c0,3.34-0.05,5.99-0.05,9.47" transform="matrix(1,0,0,1,896,-4)" class="stroke_order_diagram--existing_path"></path><path id="pathSk2v596cn4o7e" kvg:type="㇐" d="M57.48,43.32c1.97,0.41,4.57,0.17,6.54-0.09c5.75-0.74,19.74-2.73,25.87-3.4c1.57-0.17,2.92-0.23,4.46-0.07" transform="matrix(1,0,0,1,896,-4)" class="stroke_order_diagram--existing_path"></path><path id="pathSk2v596cn4o7f" kvg:type="㇑" d="M77,15.17c0.79,0.79,1.01,2.08,1.01,2.95c0,0.36,0.06,22.55,0.08,33.01c0,3.13,0.01,5.21,0,5.34" transform="matrix(1,0,0,1,896,-4)" class="stroke_order_diagram--existing_path"></path><path id="kvg:05091-s10" kvg:type="㇐" d="M32.25,66.32c3.75,0.8,7.01,0.36,10.13-0.07c11.47-1.59,29.96-2.82,42.87-3.73c2.92-0.2,5.88-0.14,8.73,0.52" transform="matrix(1,0,0,1,896,-4)" class="stroke_order_diagram--current_path"></path><path id="pathSk2v596cn4o7h" kvg:type="㇐" d="M32.25,66.32c3.75,0.8,7.01,0.36,10.13-0.07c11.47-1.59,29.96-2.82,42.87-3.73c2.92-0.2,5.88-0.14,8.73,0.52" transform="matrix(1,0,0,1,896,-4)" class="stroke_order_diagram--current_path"></path><circle cx="32.25" cy="66.32" r="8" class="stroke_order_diagram--path_start" transform="matrix(1,0,0,1,896,-4)"></circle><line x1="1050" x2="1050" y1="1" y2="99" class="stroke_order_diagram--guide_line"></line><line x1="1099" x2="1099" y1="1" y2="99" class="stroke_order_diagram--bounding_box"></line><path id="pathSk2v596cn4o7k" kvg:type="㇒" d="M32.5,15.25c0.25,2,0.05,3.81-0.62,5.58C27.75,31.75,23.25,43.5,11.5,56.79" transform="matrix(1,0,0,1,996,-4)" class="stroke_order_diagram--existing_path"></path><path id="pathSk2v596cn4o7l" kvg:type="㇑" d="M23.28,43.25c0.92,0.92,1.26,2.22,1.26,3.48c0,8.75-0.02,29.52-0.03,40.52c0,3.79-0.01,6.42-0.01,7" transform="matrix(1,0,0,1,996,-4)" class="stroke_order_diagram--existing_path"></path><path id="pathSk2v596cn4o7m" kvg:type="㇒" d="M46.96,18.19c0.31,0.92-0.17,2.11-0.46,2.98c-2.02,5.97-6.6,15.1-13.53,21.44" transform="matrix(1,0,0,1,996,-4)" class="stroke_order_diagram--existing_path"></path><path id="pathSk2v596cn4o7n" kvg:type="㇇" d="M47.21,25.27c0.18,0.03,1.76,0,2.27-0.09c1.53-0.25,4.88-1.16,7.18-2.08c1.84-0.73,3.27-0.01,2.68,2.25C57.02,34.28,46,52.5,34.61,58.69" transform="matrix(1,0,0,1,996,-4)" class="stroke_order_diagram--existing_path"></path><path id="pathSk2v596cn4o7o" kvg:type="㇔" d="M42.75,35.62c1.94,1.02,5.02,4.2,5.51,5.79" transform="matrix(1,0,0,1,996,-4)" class="stroke_order_diagram--existing_path"></path><path id="pathSk2v596cn4o7p" kvg:type="㇐" d="M61.97,28.54c1.38,0.29,3.38,0.09,4.8-0.03C73,28,81,26.38,85.68,25.44c1.12-0.22,2.08-0.01,2.65,0.05" transform="matrix(1,0,0,1,996,-4)" class="stroke_order_diagram--existing_path"></path><path id="pathSk2v596cn4o7q" kvg:type="㇑a" d="M65.21,29.7c0.73,0.73,1.21,1.67,1.21,2.71c0,3.34-0.05,5.99-0.05,9.47" transform="matrix(1,0,0,1,996,-4)" class="stroke_order_diagram--existing_path"></path><path id="pathSk2v596cn4o7r" kvg:type="㇐" d="M57.48,43.32c1.97,0.41,4.57,0.17,6.54-0.09c5.75-0.74,19.74-2.73,25.87-3.4c1.57-0.17,2.92-0.23,4.46-0.07" transform="matrix(1,0,0,1,996,-4)" class="stroke_order_diagram--existing_path"></path><path id="pathSk2v596cn4o7s" kvg:type="㇑" d="M77,15.17c0.79,0.79,1.01,2.08,1.01,2.95c0,0.36,0.06,22.55,0.08,33.01c0,3.13,0.01,5.21,0,5.34" transform="matrix(1,0,0,1,996,-4)" class="stroke_order_diagram--existing_path"></path><path id="pathSk2v596cn4o7t" kvg:type="㇐" d="M32.25,66.32c3.75,0.8,7.01,0.36,10.13-0.07c11.47-1.59,29.96-2.82,42.87-3.73c2.92-0.2,5.88-0.14,8.73,0.52" transform="matrix(1,0,0,1,996,-4)" class="stroke_order_diagram--existing_path"></path><path id="kvg:05091-s11" kvg:type="㇑" d="M60.48,52.77c0.81,0.81,1.31,1.98,1.31,3.26c0,6.83-0.03,22.89-0.04,34.09c0,2.02,0,3.88,0,5.5" transform="matrix(1,0,0,1,996,-4)" class="stroke_order_diagram--current_path"></path><path id="pathSk2v596cn4o7v" kvg:type="㇑" d="M60.48,52.77c0.81,0.81,1.31,1.98,1.31,3.26c0,6.83-0.03,22.89-0.04,34.09c0,2.02,0,3.88,0,5.5" transform="matrix(1,0,0,1,996,-4)" class="stroke_order_diagram--current_path"></path><circle cx="60.48" cy="52.77" r="8" class="stroke_order_diagram--path_start" transform="matrix(1,0,0,1,996,-4)"></circle><line x1="1150" x2="1150" y1="1" y2="99" class="stroke_order_diagram--guide_line"></line><line x1="1199" x2="1199" y1="1" y2="99" class="stroke_order_diagram--bounding_box"></line><path id="pathSk2v596cn4o7y" kvg:type="㇒" d="M32.5,15.25c0.25,2,0.05,3.81-0.62,5.58C27.75,31.75,23.25,43.5,11.5,56.79" transform="matrix(1,0,0,1,1096,-4)" class="stroke_order_diagram--existing_path"></path><path id="pathSk2v596cn4o7z" kvg:type="㇑" d="M23.28,43.25c0.92,0.92,1.26,2.22,1.26,3.48c0,8.75-0.02,29.52-0.03,40.52c0,3.79-0.01,6.42-0.01,7" transform="matrix(1,0,0,1,1096,-4)" class="stroke_order_diagram--existing_path"></path><path id="pathSk2v596cn4o80" kvg:type="㇒" d="M46.96,18.19c0.31,0.92-0.17,2.11-0.46,2.98c-2.02,5.97-6.6,15.1-13.53,21.44" transform="matrix(1,0,0,1,1096,-4)" class="stroke_order_diagram--existing_path"></path><path id="pathSk2v596cn4o81" kvg:type="㇇" d="M47.21,25.27c0.18,0.03,1.76,0,2.27-0.09c1.53-0.25,4.88-1.16,7.18-2.08c1.84-0.73,3.27-0.01,2.68,2.25C57.02,34.28,46,52.5,34.61,58.69" transform="matrix(1,0,0,1,1096,-4)" class="stroke_order_diagram--existing_path"></path><path id="pathSk2v596cn4o82" kvg:type="㇔" d="M42.75,35.62c1.94,1.02,5.02,4.2,5.51,5.79" transform="matrix(1,0,0,1,1096,-4)" class="stroke_order_diagram--existing_path"></path><path id="pathSk2v596cn4o83" kvg:type="㇐" d="M61.97,28.54c1.38,0.29,3.38,0.09,4.8-0.03C73,28,81,26.38,85.68,25.44c1.12-0.22,2.08-0.01,2.65,0.05" transform="matrix(1,0,0,1,1096,-4)" class="stroke_order_diagram--existing_path"></path><path id="pathSk2v596cn4o84" kvg:type="㇑a" d="M65.21,29.7c0.73,0.73,1.21,1.67,1.21,2.71c0,3.34-0.05,5.99-0.05,9.47" transform="matrix(1,0,0,1,1096,-4)" class="stroke_order_diagram--existing_path"></path><path id="pathSk2v596cn4o85" kvg:type="㇐" d="M57.48,43.32c1.97,0.41,4.57,0.17,6.54-0.09c5.75-0.74,19.74-2.73,25.87-3.4c1.57-0.17,2.92-0.23,4.46-0.07" transform="matrix(1,0,0,1,1096,-4)" class="stroke_order_diagram--existing_path"></path><path id="pathSk2v596cn4o86" kvg:type="㇑" d="M77,15.17c0.79,0.79,1.01,2.08,1.01,2.95c0,0.36,0.06,22.55,0.08,33.01c0,3.13,0.01,5.21,0,5.34" transform="matrix(1,0,0,1,1096,-4)" class="stroke_order_diagram--existing_path"></path><path id="pathSk2v596cn4o87" kvg:type="㇐" d="M32.25,66.32c3.75,0.8,7.01,0.36,10.13-0.07c11.47-1.59,29.96-2.82,42.87-3.73c2.92-0.2,5.88-0.14,8.73,0.52" transform="matrix(1,0,0,1,1096,-4)" class="stroke_order_diagram--existing_path"></path><path id="pathSk2v596cn4o88" kvg:type="㇑" d="M60.48,52.77c0.81,0.81,1.31,1.98,1.31,3.26c0,6.83-0.03,22.89-0.04,34.09c0,2.02,0,3.88,0,5.5" transform="matrix(1,0,0,1,1096,-4)" class="stroke_order_diagram--existing_path"></path><path id="kvg:05091-s12" kvg:type="㇒" d="M59.33,65.56c0,1.32-0.96,3.02-2.19,4.51C51.3,77.15,42.88,84.5,31.12,89.75" transform="matrix(1,0,0,1,1096,-4)" class="stroke_order_diagram--current_path"></path><path id="pathSk2v596cn4o8a" kvg:type="㇒" d="M59.33,65.56c0,1.32-0.96,3.02-2.19,4.51C51.3,77.15,42.88,84.5,31.12,89.75" transform="matrix(1,0,0,1,1096,-4)" class="stroke_order_diagram--current_path"></path><circle cx="59.33" cy="65.56" r="8" class="stroke_order_diagram--path_start" transform="matrix(1,0,0,1,1096,-4)"></circle><line x1="1250" x2="1250" y1="1" y2="99" class="stroke_order_diagram--guide_line"></line><line x1="1299" x2="1299" y1="1" y2="99" class="stroke_order_diagram--bounding_box"></line><path id="pathSk2v596cn4o8d" kvg:type="㇒" d="M32.5,15.25c0.25,2,0.05,3.81-0.62,5.58C27.75,31.75,23.25,43.5,11.5,56.79" transform="matrix(1,0,0,1,1196,-4)" class="stroke_order_diagram--existing_path"></path><path id="pathSk2v596cn4o8e" kvg:type="㇑" d="M23.28,43.25c0.92,0.92,1.26,2.22,1.26,3.48c0,8.75-0.02,29.52-0.03,40.52c0,3.79-0.01,6.42-0.01,7" transform="matrix(1,0,0,1,1196,-4)" class="stroke_order_diagram--existing_path"></path><path id="pathSk2v596cn4o8f" kvg:type="㇒" d="M46.96,18.19c0.31,0.92-0.17,2.11-0.46,2.98c-2.02,5.97-6.6,15.1-13.53,21.44" transform="matrix(1,0,0,1,1196,-4)" class="stroke_order_diagram--existing_path"></path><path id="pathSk2v596cn4o8g" kvg:type="㇇" d="M47.21,25.27c0.18,0.03,1.76,0,2.27-0.09c1.53-0.25,4.88-1.16,7.18-2.08c1.84-0.73,3.27-0.01,2.68,2.25C57.02,34.28,46,52.5,34.61,58.69" transform="matrix(1,0,0,1,1196,-4)" class="stroke_order_diagram--existing_path"></path><path id="pathSk2v596cn4o8h" kvg:type="㇔" d="M42.75,35.62c1.94,1.02,5.02,4.2,5.51,5.79" transform="matrix(1,0,0,1,1196,-4)" class="stroke_order_diagram--existing_path"></path><path id="pathSk2v596cn4o8i" kvg:type="㇐" d="M61.97,28.54c1.38,0.29,3.38,0.09,4.8-0.03C73,28,81,26.38,85.68,25.44c1.12-0.22,2.08-0.01,2.65,0.05" transform="matrix(1,0,0,1,1196,-4)" class="stroke_order_diagram--existing_path"></path><path id="pathSk2v596cn4o8j" kvg:type="㇑a" d="M65.21,29.7c0.73,0.73,1.21,1.67,1.21,2.71c0,3.34-0.05,5.99-0.05,9.47" transform="matrix(1,0,0,1,1196,-4)" class="stroke_order_diagram--existing_path"></path><path id="pathSk2v596cn4o8k" kvg:type="㇐" d="M57.48,43.32c1.97,0.41,4.57,0.17,6.54-0.09c5.75-0.74,19.74-2.73,25.87-3.4c1.57-0.17,2.92-0.23,4.46-0.07" transform="matrix(1,0,0,1,1196,-4)" class="stroke_order_diagram--existing_path"></path><path id="pathSk2v596cn4o8l" kvg:type="㇑" d="M77,15.17c0.79,0.79,1.01,2.08,1.01,2.95c0,0.36,0.06,22.55,0.08,33.01c0,3.13,0.01,5.21,0,5.34" transform="matrix(1,0,0,1,1196,-4)" class="stroke_order_diagram--existing_path"></path><path id="pathSk2v596cn4o8m" kvg:type="㇐" d="M32.25,66.32c3.75,0.8,7.01,0.36,10.13-0.07c11.47-1.59,29.96-2.82,42.87-3.73c2.92-0.2,5.88-0.14,8.73,0.52" transform="matrix(1,0,0,1,1196,-4)" class="stroke_order_diagram--existing_path"></path><path id="pathSk2v596cn4o8n" kvg:type="㇑" d="M60.48,52.77c0.81,0.81,1.31,1.98,1.31,3.26c0,6.83-0.03,22.89-0.04,34.09c0,2.02,0,3.88,0,5.5" transform="matrix(1,0,0,1,1196,-4)" class="stroke_order_diagram--existing_path"></path><path id="pathSk2v596cn4o8o" kvg:type="㇒" d="M59.33,65.56c0,1.32-0.96,3.02-2.19,4.51C51.3,77.15,42.88,84.5,31.12,89.75" transform="matrix(1,0,0,1,1196,-4)" class="stroke_order_diagram--existing_path"></path><path id="kvg:05091-s13" kvg:type="㇏" d="M63.29,66.32c2.98,2.2,11.71,10.05,19.98,16.53c3.41,2.67,6.11,4.15,9.41,5.95" transform="matrix(1,0,0,1,1196,-4)" class="stroke_order_diagram--current_path"></path><path id="pathSk2v596cn4o8q" kvg:type="㇏" d="M63.29,66.32c2.98,2.2,11.71,10.05,19.98,16.53c3.41,2.67,6.11,4.15,9.41,5.95" transform="matrix(1,0,0,1,1196,-4)" class="stroke_order_diagram--current_path"></path><circle cx="63.29" cy="66.32" r="8" class="stroke_order_diagram--path_start" transform="matrix(1,0,0,1,1196,-4)"></circle></svg>