<svg style="width: 1400px; height: 100px;" viewbox="0 0 1400 100"><style>
.stroke_order_diagram--outer_container {
  width: 100%;
  overflow-x: auto;
  overflow-y: hidden;
}

.stroke_order_diagram--guide_line {
  fill: none;
  stroke: #ddd;
  stroke-width: 3;
  stroke-linecap: square;
  stroke-linejoin: square;
  stroke-dasharray:8, 8;
}

.stroke_order_diagram--bounding_box {
  fill: none;
  stroke: #ddd;
  stroke-width: 4;
  stroke-linecap: square;
  stroke-linejoin: square;
}

.stroke_order_diagram--current_path {
  fill: none;
  stroke: #000;
  stroke-width: 6;
  stroke-linecap: round;
  stroke-linejoin: round;
}

.stroke_order_diagram--existing_path {
  fill: none;
  stroke: #aaa;
  stroke-width: 6;
  stroke-linecap: round;
  stroke-linejoin:round;
}

.stroke_order_diagram--path_start {
  fill: rgba(255, 0, 0, 0.7);
  stroke:none
}</style><desc>Created with Snap</desc><defs></defs><line x1="1" x2="1399" y1="1" y2="1" class="stroke_order_diagram--bounding_box"></line><line x1="1" x2="1" y1="1" y2="99" class="stroke_order_diagram--bounding_box"></line><line x1="1" x2="1399" y1="99" y2="99" class="stroke_order_diagram--bounding_box"></line><line x1="0" x2="1400" y1="50" y2="50" class="stroke_order_diagram--guide_line"></line><line x1="50" x2="50" y1="1" y2="99" class="stroke_order_diagram--guide_line"></line><line x1="99" x2="99" y1="1" y2="99" class="stroke_order_diagram--bounding_box"></line><path id="kvg:050cf-s1" kvg:type="㇒" d="M30.27,17c0.2,2.02-0.06,3.67-0.71,5.41c-4.18,11.05-9.48,21.93-19.05,35.38" transform="matrix(1,0,0,1,-4,-4)" class="stroke_order_diagram--current_path"></path><path id="pathSk2v596cnom1" kvg:type="㇒" d="M30.27,17c0.2,2.02-0.06,3.67-0.71,5.41c-4.18,11.05-9.48,21.93-19.05,35.38" transform="matrix(1,0,0,1,-4,-4)" class="stroke_order_diagram--current_path"></path><circle cx="30.27" cy="17" r="8" class="stroke_order_diagram--path_start" transform="matrix(1,0,0,1,-4,-4)"></circle><line x1="150" x2="150" y1="1" y2="99" class="stroke_order_diagram--guide_line"></line><line x1="199" x2="199" y1="1" y2="99" class="stroke_order_diagram--bounding_box"></line><path id="pathSk2v596cnom4" kvg:type="㇒" d="M30.27,17c0.2,2.02-0.06,3.67-0.71,5.41c-4.18,11.05-9.48,21.93-19.05,35.38" transform="matrix(1,0,0,1,96,-4)" class="stroke_order_diagram--existing_path"></path><path id="kvg:050cf-s2" kvg:type="㇑" d="M23.28,40.75c1.05,1.05,1.5,2.62,1.5,4.5c0,11.35-0.02,29.65-0.03,41c0,3.43,0,6.22,0,8" transform="matrix(1,0,0,1,96,-4)" class="stroke_order_diagram--current_path"></path><path id="pathSk2v596cnom6" kvg:type="㇑" d="M23.28,40.75c1.05,1.05,1.5,2.62,1.5,4.5c0,11.35-0.02,29.65-0.03,41c0,3.43,0,6.22,0,8" transform="matrix(1,0,0,1,96,-4)" class="stroke_order_diagram--current_path"></path><circle cx="23.28" cy="40.75" r="8" class="stroke_order_diagram--path_start" transform="matrix(1,0,0,1,96,-4)"></circle><line x1="250" x2="250" y1="1" y2="99" class="stroke_order_diagram--guide_line"></line><line x1="299" x2="299" y1="1" y2="99" class="stroke_order_diagram--bounding_box"></line><path id="pathSk2v596cnom9" kvg:type="㇒" d="M30.27,17c0.2,2.02-0.06,3.67-0.71,5.41c-4.18,11.05-9.48,21.93-19.05,35.38" transform="matrix(1,0,0,1,196,-4)" class="stroke_order_diagram--existing_path"></path><path id="pathSk2v596cnoma" kvg:type="㇑" d="M23.28,40.75c1.05,1.05,1.5,2.62,1.5,4.5c0,11.35-0.02,29.65-0.03,41c0,3.43,0,6.22,0,8" transform="matrix(1,0,0,1,196,-4)" class="stroke_order_diagram--existing_path"></path><path id="kvg:050cf-s3" kvg:type="㇒" d="M54.08,12.61c0.11,0.89,0.01,1.77-0.52,2.48c-2.43,3.28-6.18,8.03-13.47,12.44" transform="matrix(1,0,0,1,196,-4)" class="stroke_order_diagram--current_path"></path><path id="pathSk2v596cnomc" kvg:type="㇒" d="M54.08,12.61c0.11,0.89,0.01,1.77-0.52,2.48c-2.43,3.28-6.18,8.03-13.47,12.44" transform="matrix(1,0,0,1,196,-4)" class="stroke_order_diagram--current_path"></path><circle cx="54.08" cy="12.61" r="8" class="stroke_order_diagram--path_start" transform="matrix(1,0,0,1,196,-4)"></circle><line x1="350" x2="350" y1="1" y2="99" class="stroke_order_diagram--guide_line"></line><line x1="399" x2="399" y1="1" y2="99" class="stroke_order_diagram--bounding_box"></line><path id="pathSk2v596cnomf" kvg:type="㇒" d="M30.27,17c0.2,2.02-0.06,3.67-0.71,5.41c-4.18,11.05-9.48,21.93-19.05,35.38" transform="matrix(1,0,0,1,296,-4)" class="stroke_order_diagram--existing_path"></path><path id="pathSk2v596cnomg" kvg:type="㇑" d="M23.28,40.75c1.05,1.05,1.5,2.62,1.5,4.5c0,11.35-0.02,29.65-0.03,41c0,3.43,0,6.22,0,8" transform="matrix(1,0,0,1,296,-4)" class="stroke_order_diagram--existing_path"></path><path id="pathSk2v596cnomh" kvg:type="㇒" d="M54.08,12.61c0.11,0.89,0.01,1.77-0.52,2.48c-2.43,3.28-6.18,8.03-13.47,12.44" transform="matrix(1,0,0,1,296,-4)" class="stroke_order_diagram--existing_path"></path><path id="kvg:050cf-s4" kvg:type="㇇a" d="M53.03,19.15c3.1-0.27,10.35-1.4,13.64-1.97c1.78-0.31,2.73,1.76,1.97,2.58c-3.16,3.43-4.38,5.5-7.71,10.13" transform="matrix(1,0,0,1,296,-4)" class="stroke_order_diagram--current_path"></path><path id="pathSk2v596cnomj" kvg:type="㇇a" d="M53.03,19.15c3.1-0.27,10.35-1.4,13.64-1.97c1.78-0.31,2.73,1.76,1.97,2.58c-3.16,3.43-4.38,5.5-7.71,10.13" transform="matrix(1,0,0,1,296,-4)" class="stroke_order_diagram--current_path"></path><circle cx="53.03" cy="19.15" r="8" class="stroke_order_diagram--path_start" transform="matrix(1,0,0,1,296,-4)"></circle><line x1="450" x2="450" y1="1" y2="99" class="stroke_order_diagram--guide_line"></line><line x1="499" x2="499" y1="1" y2="99" class="stroke_order_diagram--bounding_box"></line><path id="pathSk2v596cnomm" kvg:type="㇒" d="M30.27,17c0.2,2.02-0.06,3.67-0.71,5.41c-4.18,11.05-9.48,21.93-19.05,35.38" transform="matrix(1,0,0,1,396,-4)" class="stroke_order_diagram--existing_path"></path><path id="pathSk2v596cnomn" kvg:type="㇑" d="M23.28,40.75c1.05,1.05,1.5,2.62,1.5,4.5c0,11.35-0.02,29.65-0.03,41c0,3.43,0,6.22,0,8" transform="matrix(1,0,0,1,396,-4)" class="stroke_order_diagram--existing_path"></path><path id="pathSk2v596cnomo" kvg:type="㇒" d="M54.08,12.61c0.11,0.89,0.01,1.77-0.52,2.48c-2.43,3.28-6.18,8.03-13.47,12.44" transform="matrix(1,0,0,1,396,-4)" class="stroke_order_diagram--existing_path"></path><path id="pathSk2v596cnomp" kvg:type="㇇a" d="M53.03,19.15c3.1-0.27,10.35-1.4,13.64-1.97c1.78-0.31,2.73,1.76,1.97,2.58c-3.16,3.43-4.38,5.5-7.71,10.13" transform="matrix(1,0,0,1,396,-4)" class="stroke_order_diagram--existing_path"></path><path id="kvg:050cf-s5" kvg:type="㇑" d="M40.16,32.83c0.81,0.56,1.35,1.35,1.64,2.26c0.94,2.91,1.67,5.54,2.47,8.9c0.29,1.24,0.56,2.47,0.79,3.65" transform="matrix(1,0,0,1,396,-4)" class="stroke_order_diagram--current_path"></path><path id="pathSk2v596cnomr" kvg:type="㇑" d="M40.16,32.83c0.81,0.56,1.35,1.35,1.64,2.26c0.94,2.91,1.67,5.54,2.47,8.9c0.29,1.24,0.56,2.47,0.79,3.65" transform="matrix(1,0,0,1,396,-4)" class="stroke_order_diagram--current_path"></path><circle cx="40.16" cy="32.83" r="8" class="stroke_order_diagram--path_start" transform="matrix(1,0,0,1,396,-4)"></circle><line x1="550" x2="550" y1="1" y2="99" class="stroke_order_diagram--guide_line"></line><line x1="599" x2="599" y1="1" y2="99" class="stroke_order_diagram--bounding_box"></line><path id="pathSk2v596cnomu" kvg:type="㇒" d="M30.27,17c0.2,2.02-0.06,3.67-0.71,5.41c-4.18,11.05-9.48,21.93-19.05,35.38" transform="matrix(1,0,0,1,496,-4)" class="stroke_order_diagram--existing_path"></path><path id="pathSk2v596cnomv" kvg:type="㇑" d="M23.28,40.75c1.05,1.05,1.5,2.62,1.5,4.5c0,11.35-0.02,29.65-0.03,41c0,3.43,0,6.22,0,8" transform="matrix(1,0,0,1,496,-4)" class="stroke_order_diagram--existing_path"></path><path id="pathSk2v596cnomw" kvg:type="㇒" d="M54.08,12.61c0.11,0.89,0.01,1.77-0.52,2.48c-2.43,3.28-6.18,8.03-13.47,12.44" transform="matrix(1,0,0,1,496,-4)" class="stroke_order_diagram--existing_path"></path><path id="pathSk2v596cnomx" kvg:type="㇇a" d="M53.03,19.15c3.1-0.27,10.35-1.4,13.64-1.97c1.78-0.31,2.73,1.76,1.97,2.58c-3.16,3.43-4.38,5.5-7.71,10.13" transform="matrix(1,0,0,1,496,-4)" class="stroke_order_diagram--existing_path"></path><path id="pathSk2v596cnomy" kvg:type="㇑" d="M40.16,32.83c0.81,0.56,1.35,1.35,1.64,2.26c0.94,2.91,1.67,5.54,2.47,8.9c0.29,1.24,0.56,2.47,0.79,3.65" transform="matrix(1,0,0,1,496,-4)" class="stroke_order_diagram--existing_path"></path><path id="kvg:050cf-s6" kvg:type="㇕a" d="M42.36,33.91c7.34-1.28,30.52-4.35,38.02-5.15c3.3-0.35,4.73,0.8,3.97,4.26c-0.46,2.07-1.19,4.34-2.27,6.76c-0.53,1.18-1.14,2.35-1.85,3.47" transform="matrix(1,0,0,1,496,-4)" class="stroke_order_diagram--current_path"></path><path id="pathSk2v596cnon0" kvg:type="㇕a" d="M42.36,33.91c7.34-1.28,30.52-4.35,38.02-5.15c3.3-0.35,4.73,0.8,3.97,4.26c-0.46,2.07-1.19,4.34-2.27,6.76c-0.53,1.18-1.14,2.35-1.85,3.47" transform="matrix(1,0,0,1,496,-4)" class="stroke_order_diagram--current_path"></path><circle cx="42.36" cy="33.91" r="8" class="stroke_order_diagram--path_start" transform="matrix(1,0,0,1,496,-4)"></circle><line x1="650" x2="650" y1="1" y2="99" class="stroke_order_diagram--guide_line"></line><line x1="699" x2="699" y1="1" y2="99" class="stroke_order_diagram--bounding_box"></line><path id="pathSk2v596cnon3" kvg:type="㇒" d="M30.27,17c0.2,2.02-0.06,3.67-0.71,5.41c-4.18,11.05-9.48,21.93-19.05,35.38" transform="matrix(1,0,0,1,596,-4)" class="stroke_order_diagram--existing_path"></path><path id="pathSk2v596cnon4" kvg:type="㇑" d="M23.28,40.75c1.05,1.05,1.5,2.62,1.5,4.5c0,11.35-0.02,29.65-0.03,41c0,3.43,0,6.22,0,8" transform="matrix(1,0,0,1,596,-4)" class="stroke_order_diagram--existing_path"></path><path id="pathSk2v596cnon5" kvg:type="㇒" d="M54.08,12.61c0.11,0.89,0.01,1.77-0.52,2.48c-2.43,3.28-6.18,8.03-13.47,12.44" transform="matrix(1,0,0,1,596,-4)" class="stroke_order_diagram--existing_path"></path><path id="pathSk2v596cnon6" kvg:type="㇇a" d="M53.03,19.15c3.1-0.27,10.35-1.4,13.64-1.97c1.78-0.31,2.73,1.76,1.97,2.58c-3.16,3.43-4.38,5.5-7.71,10.13" transform="matrix(1,0,0,1,596,-4)" class="stroke_order_diagram--existing_path"></path><path id="pathSk2v596cnon7" kvg:type="㇑" d="M40.16,32.83c0.81,0.56,1.35,1.35,1.64,2.26c0.94,2.91,1.67,5.54,2.47,8.9c0.29,1.24,0.56,2.47,0.79,3.65" transform="matrix(1,0,0,1,596,-4)" class="stroke_order_diagram--existing_path"></path><path id="pathSk2v596cnon8" kvg:type="㇕a" d="M42.36,33.91c7.34-1.28,30.52-4.35,38.02-5.15c3.3-0.35,4.73,0.8,3.97,4.26c-0.46,2.07-1.19,4.34-2.27,6.76c-0.53,1.18-1.14,2.35-1.85,3.47" transform="matrix(1,0,0,1,596,-4)" class="stroke_order_diagram--existing_path"></path><path id="kvg:050cf-s7" kvg:type="㇑a" d="M62.14,32.83c0.44,0.47,0.78,1.54,0.78,2.58c0,1.59-0.01,6.46-0.01,7.84" transform="matrix(1,0,0,1,596,-4)" class="stroke_order_diagram--current_path"></path><path id="pathSk2v596cnona" kvg:type="㇑a" d="M62.14,32.83c0.44,0.47,0.78,1.54,0.78,2.58c0,1.59-0.01,6.46-0.01,7.84" transform="matrix(1,0,0,1,596,-4)" class="stroke_order_diagram--current_path"></path><circle cx="62.14" cy="32.83" r="8" class="stroke_order_diagram--path_start" transform="matrix(1,0,0,1,596,-4)"></circle><line x1="750" x2="750" y1="1" y2="99" class="stroke_order_diagram--guide_line"></line><line x1="799" x2="799" y1="1" y2="99" class="stroke_order_diagram--bounding_box"></line><path id="pathSk2v596cnond" kvg:type="㇒" d="M30.27,17c0.2,2.02-0.06,3.67-0.71,5.41c-4.18,11.05-9.48,21.93-19.05,35.38" transform="matrix(1,0,0,1,696,-4)" class="stroke_order_diagram--existing_path"></path><path id="pathSk2v596cnone" kvg:type="㇑" d="M23.28,40.75c1.05,1.05,1.5,2.62,1.5,4.5c0,11.35-0.02,29.65-0.03,41c0,3.43,0,6.22,0,8" transform="matrix(1,0,0,1,696,-4)" class="stroke_order_diagram--existing_path"></path><path id="pathSk2v596cnonf" kvg:type="㇒" d="M54.08,12.61c0.11,0.89,0.01,1.77-0.52,2.48c-2.43,3.28-6.18,8.03-13.47,12.44" transform="matrix(1,0,0,1,696,-4)" class="stroke_order_diagram--existing_path"></path><path id="pathSk2v596cnong" kvg:type="㇇a" d="M53.03,19.15c3.1-0.27,10.35-1.4,13.64-1.97c1.78-0.31,2.73,1.76,1.97,2.58c-3.16,3.43-4.38,5.5-7.71,10.13" transform="matrix(1,0,0,1,696,-4)" class="stroke_order_diagram--existing_path"></path><path id="pathSk2v596cnonh" kvg:type="㇑" d="M40.16,32.83c0.81,0.56,1.35,1.35,1.64,2.26c0.94,2.91,1.67,5.54,2.47,8.9c0.29,1.24,0.56,2.47,0.79,3.65" transform="matrix(1,0,0,1,696,-4)" class="stroke_order_diagram--existing_path"></path><path id="pathSk2v596cnoni" kvg:type="㇕a" d="M42.36,33.91c7.34-1.28,30.52-4.35,38.02-5.15c3.3-0.35,4.73,0.8,3.97,4.26c-0.46,2.07-1.19,4.34-2.27,6.76c-0.53,1.18-1.14,2.35-1.85,3.47" transform="matrix(1,0,0,1,696,-4)" class="stroke_order_diagram--existing_path"></path><path id="pathSk2v596cnonj" kvg:type="㇑a" d="M62.14,32.83c0.44,0.47,0.78,1.54,0.78,2.58c0,1.59-0.01,6.46-0.01,7.84" transform="matrix(1,0,0,1,696,-4)" class="stroke_order_diagram--existing_path"></path><path id="kvg:050cf-s8" kvg:type="㇐a" d="M45.74,45.52c10.63-1.4,26.92-3.09,34.35-3.71" transform="matrix(1,0,0,1,696,-4)" class="stroke_order_diagram--current_path"></path><path id="pathSk2v596cnonl" kvg:type="㇐a" d="M45.74,45.52c10.63-1.4,26.92-3.09,34.35-3.71" transform="matrix(1,0,0,1,696,-4)" class="stroke_order_diagram--current_path"></path><circle cx="45.74" cy="45.52" r="8" class="stroke_order_diagram--path_start" transform="matrix(1,0,0,1,696,-4)"></circle><line x1="850" x2="850" y1="1" y2="99" class="stroke_order_diagram--guide_line"></line><line x1="899" x2="899" y1="1" y2="99" class="stroke_order_diagram--bounding_box"></line><path id="pathSk2v596cnono" kvg:type="㇒" d="M30.27,17c0.2,2.02-0.06,3.67-0.71,5.41c-4.18,11.05-9.48,21.93-19.05,35.38" transform="matrix(1,0,0,1,796,-4)" class="stroke_order_diagram--existing_path"></path><path id="pathSk2v596cnonp" kvg:type="㇑" d="M23.28,40.75c1.05,1.05,1.5,2.62,1.5,4.5c0,11.35-0.02,29.65-0.03,41c0,3.43,0,6.22,0,8" transform="matrix(1,0,0,1,796,-4)" class="stroke_order_diagram--existing_path"></path><path id="pathSk2v596cnonq" kvg:type="㇒" d="M54.08,12.61c0.11,0.89,0.01,1.77-0.52,2.48c-2.43,3.28-6.18,8.03-13.47,12.44" transform="matrix(1,0,0,1,796,-4)" class="stroke_order_diagram--existing_path"></path><path id="pathSk2v596cnonr" kvg:type="㇇a" d="M53.03,19.15c3.1-0.27,10.35-1.4,13.64-1.97c1.78-0.31,2.73,1.76,1.97,2.58c-3.16,3.43-4.38,5.5-7.71,10.13" transform="matrix(1,0,0,1,796,-4)" class="stroke_order_diagram--existing_path"></path><path id="pathSk2v596cnons" kvg:type="㇑" d="M40.16,32.83c0.81,0.56,1.35,1.35,1.64,2.26c0.94,2.91,1.67,5.54,2.47,8.9c0.29,1.24,0.56,2.47,0.79,3.65" transform="matrix(1,0,0,1,796,-4)" class="stroke_order_diagram--existing_path"></path><path id="pathSk2v596cnont" kvg:type="㇕a" d="M42.36,33.91c7.34-1.28,30.52-4.35,38.02-5.15c3.3-0.35,4.73,0.8,3.97,4.26c-0.46,2.07-1.19,4.34-2.27,6.76c-0.53,1.18-1.14,2.35-1.85,3.47" transform="matrix(1,0,0,1,796,-4)" class="stroke_order_diagram--existing_path"></path><path id="pathSk2v596cnonu" kvg:type="㇑a" d="M62.14,32.83c0.44,0.47,0.78,1.54,0.78,2.58c0,1.59-0.01,6.46-0.01,7.84" transform="matrix(1,0,0,1,796,-4)" class="stroke_order_diagram--existing_path"></path><path id="pathSk2v596cnonv" kvg:type="㇐a" d="M45.74,45.52c10.63-1.4,26.92-3.09,34.35-3.71" transform="matrix(1,0,0,1,796,-4)" class="stroke_order_diagram--existing_path"></path><path id="kvg:050cf-s9" kvg:type="㇒" d="M59.87,45.68c0.15,1.04-0.76,2.01-1.39,2.67c-3.12,3.3-9.02,7.62-19.28,12.82" transform="matrix(1,0,0,1,796,-4)" class="stroke_order_diagram--current_path"></path><path id="pathSk2v596cnonx" kvg:type="㇒" d="M59.87,45.68c0.15,1.04-0.76,2.01-1.39,2.67c-3.12,3.3-9.02,7.62-19.28,12.82" transform="matrix(1,0,0,1,796,-4)" class="stroke_order_diagram--current_path"></path><circle cx="59.87" cy="45.68" r="8" class="stroke_order_diagram--path_start" transform="matrix(1,0,0,1,796,-4)"></circle><line x1="950" x2="950" y1="1" y2="99" class="stroke_order_diagram--guide_line"></line><line x1="999" x2="999" y1="1" y2="99" class="stroke_order_diagram--bounding_box"></line><path id="pathSk2v596cnoo0" kvg:type="㇒" d="M30.27,17c0.2,2.02-0.06,3.67-0.71,5.41c-4.18,11.05-9.48,21.93-19.05,35.38" transform="matrix(1,0,0,1,896,-4)" class="stroke_order_diagram--existing_path"></path><path id="pathSk2v596cnoo1" kvg:type="㇑" d="M23.28,40.75c1.05,1.05,1.5,2.62,1.5,4.5c0,11.35-0.02,29.65-0.03,41c0,3.43,0,6.22,0,8" transform="matrix(1,0,0,1,896,-4)" class="stroke_order_diagram--existing_path"></path><path id="pathSk2v596cnoo2" kvg:type="㇒" d="M54.08,12.61c0.11,0.89,0.01,1.77-0.52,2.48c-2.43,3.28-6.18,8.03-13.47,12.44" transform="matrix(1,0,0,1,896,-4)" class="stroke_order_diagram--existing_path"></path><path id="pathSk2v596cnoo3" kvg:type="㇇a" d="M53.03,19.15c3.1-0.27,10.35-1.4,13.64-1.97c1.78-0.31,2.73,1.76,1.97,2.58c-3.16,3.43-4.38,5.5-7.71,10.13" transform="matrix(1,0,0,1,896,-4)" class="stroke_order_diagram--existing_path"></path><path id="pathSk2v596cnoo4" kvg:type="㇑" d="M40.16,32.83c0.81,0.56,1.35,1.35,1.64,2.26c0.94,2.91,1.67,5.54,2.47,8.9c0.29,1.24,0.56,2.47,0.79,3.65" transform="matrix(1,0,0,1,896,-4)" class="stroke_order_diagram--existing_path"></path><path id="pathSk2v596cnoo5" kvg:type="㇕a" d="M42.36,33.91c7.34-1.28,30.52-4.35,38.02-5.15c3.3-0.35,4.73,0.8,3.97,4.26c-0.46,2.07-1.19,4.34-2.27,6.76c-0.53,1.18-1.14,2.35-1.85,3.47" transform="matrix(1,0,0,1,896,-4)" class="stroke_order_diagram--existing_path"></path><path id="pathSk2v596cnoo6" kvg:type="㇑a" d="M62.14,32.83c0.44,0.47,0.78,1.54,0.78,2.58c0,1.59-0.01,6.46-0.01,7.84" transform="matrix(1,0,0,1,896,-4)" class="stroke_order_diagram--existing_path"></path><path id="pathSk2v596cnoo7" kvg:type="㇐a" d="M45.74,45.52c10.63-1.4,26.92-3.09,34.35-3.71" transform="matrix(1,0,0,1,896,-4)" class="stroke_order_diagram--existing_path"></path><path id="pathSk2v596cnoo8" kvg:type="㇒" d="M59.87,45.68c0.15,1.04-0.76,2.01-1.39,2.67c-3.12,3.3-9.02,7.62-19.28,12.82" transform="matrix(1,0,0,1,896,-4)" class="stroke_order_diagram--existing_path"></path><path id="kvg:050cf-s10" kvg:type="㇕v" d="M57.65,53.31C67.12,58.5,73,77.5,66.38,90.46c-2.9,5.67-7.46,0.75-8.54,0.04" transform="matrix(1,0,0,1,896,-4)" class="stroke_order_diagram--current_path"></path><path id="pathSk2v596cnooa" kvg:type="㇕v" d="M57.65,53.31C67.12,58.5,73,77.5,66.38,90.46c-2.9,5.67-7.46,0.75-8.54,0.04" transform="matrix(1,0,0,1,896,-4)" class="stroke_order_diagram--current_path"></path><circle cx="57.65" cy="53.31" r="8" class="stroke_order_diagram--path_start" transform="matrix(1,0,0,1,896,-4)"></circle><line x1="1050" x2="1050" y1="1" y2="99" class="stroke_order_diagram--guide_line"></line><line x1="1099" x2="1099" y1="1" y2="99" class="stroke_order_diagram--bounding_box"></line><path id="pathSk2v596cnood" kvg:type="㇒" d="M30.27,17c0.2,2.02-0.06,3.67-0.71,5.41c-4.18,11.05-9.48,21.93-19.05,35.38" transform="matrix(1,0,0,1,996,-4)" class="stroke_order_diagram--existing_path"></path><path id="pathSk2v596cnooe" kvg:type="㇑" d="M23.28,40.75c1.05,1.05,1.5,2.62,1.5,4.5c0,11.35-0.02,29.65-0.03,41c0,3.43,0,6.22,0,8" transform="matrix(1,0,0,1,996,-4)" class="stroke_order_diagram--existing_path"></path><path id="pathSk2v596cnoof" kvg:type="㇒" d="M54.08,12.61c0.11,0.89,0.01,1.77-0.52,2.48c-2.43,3.28-6.18,8.03-13.47,12.44" transform="matrix(1,0,0,1,996,-4)" class="stroke_order_diagram--existing_path"></path><path id="pathSk2v596cnoog" kvg:type="㇇a" d="M53.03,19.15c3.1-0.27,10.35-1.4,13.64-1.97c1.78-0.31,2.73,1.76,1.97,2.58c-3.16,3.43-4.38,5.5-7.71,10.13" transform="matrix(1,0,0,1,996,-4)" class="stroke_order_diagram--existing_path"></path><path id="pathSk2v596cnooh" kvg:type="㇑" d="M40.16,32.83c0.81,0.56,1.35,1.35,1.64,2.26c0.94,2.91,1.67,5.54,2.47,8.9c0.29,1.24,0.56,2.47,0.79,3.65" transform="matrix(1,0,0,1,996,-4)" class="stroke_order_diagram--existing_path"></path><path id="pathSk2v596cnooi" kvg:type="㇕a" d="M42.36,33.91c7.34-1.28,30.52-4.35,38.02-5.15c3.3-0.35,4.73,0.8,3.97,4.26c-0.46,2.07-1.19,4.34-2.27,6.76c-0.53,1.18-1.14,2.35-1.85,3.47" transform="matrix(1,0,0,1,996,-4)" class="stroke_order_diagram--existing_path"></path><path id="pathSk2v596cnooj" kvg:type="㇑a" d="M62.14,32.83c0.44,0.47,0.78,1.54,0.78,2.58c0,1.59-0.01,6.46-0.01,7.84" transform="matrix(1,0,0,1,996,-4)" class="stroke_order_diagram--existing_path"></path><path id="pathSk2v596cnook" kvg:type="㇐a" d="M45.74,45.52c10.63-1.4,26.92-3.09,34.35-3.71" transform="matrix(1,0,0,1,996,-4)" class="stroke_order_diagram--existing_path"></path><path id="pathSk2v596cnool" kvg:type="㇒" d="M59.87,45.68c0.15,1.04-0.76,2.01-1.39,2.67c-3.12,3.3-9.02,7.62-19.28,12.82" transform="matrix(1,0,0,1,996,-4)" class="stroke_order_diagram--existing_path"></path><path id="pathSk2v596cnoom" kvg:type="㇕v" d="M57.65,53.31C67.12,58.5,73,77.5,66.38,90.46c-2.9,5.67-7.46,0.75-8.54,0.04" transform="matrix(1,0,0,1,996,-4)" class="stroke_order_diagram--existing_path"></path><path id="kvg:050cf-s11" kvg:type="㇒" d="M58.15,57.56c0.17,1.13-0.15,1.95-0.79,2.89c-2.55,3.76-10.26,9.62-21.74,14.8" transform="matrix(1,0,0,1,996,-4)" class="stroke_order_diagram--current_path"></path><path id="pathSk2v596cnooo" kvg:type="㇒" d="M58.15,57.56c0.17,1.13-0.15,1.95-0.79,2.89c-2.55,3.76-10.26,9.62-21.74,14.8" transform="matrix(1,0,0,1,996,-4)" class="stroke_order_diagram--current_path"></path><circle cx="58.15" cy="57.56" r="8" class="stroke_order_diagram--path_start" transform="matrix(1,0,0,1,996,-4)"></circle><line x1="1150" x2="1150" y1="1" y2="99" class="stroke_order_diagram--guide_line"></line><line x1="1199" x2="1199" y1="1" y2="99" class="stroke_order_diagram--bounding_box"></line><path id="pathSk2v596cnoor" kvg:type="㇒" d="M30.27,17c0.2,2.02-0.06,3.67-0.71,5.41c-4.18,11.05-9.48,21.93-19.05,35.38" transform="matrix(1,0,0,1,1096,-4)" class="stroke_order_diagram--existing_path"></path><path id="pathSk2v596cnoos" kvg:type="㇑" d="M23.28,40.75c1.05,1.05,1.5,2.62,1.5,4.5c0,11.35-0.02,29.65-0.03,41c0,3.43,0,6.22,0,8" transform="matrix(1,0,0,1,1096,-4)" class="stroke_order_diagram--existing_path"></path><path id="pathSk2v596cnoot" kvg:type="㇒" d="M54.08,12.61c0.11,0.89,0.01,1.77-0.52,2.48c-2.43,3.28-6.18,8.03-13.47,12.44" transform="matrix(1,0,0,1,1096,-4)" class="stroke_order_diagram--existing_path"></path><path id="pathSk2v596cnoou" kvg:type="㇇a" d="M53.03,19.15c3.1-0.27,10.35-1.4,13.64-1.97c1.78-0.31,2.73,1.76,1.97,2.58c-3.16,3.43-4.38,5.5-7.71,10.13" transform="matrix(1,0,0,1,1096,-4)" class="stroke_order_diagram--existing_path"></path><path id="pathSk2v596cnoov" kvg:type="㇑" d="M40.16,32.83c0.81,0.56,1.35,1.35,1.64,2.26c0.94,2.91,1.67,5.54,2.47,8.9c0.29,1.24,0.56,2.47,0.79,3.65" transform="matrix(1,0,0,1,1096,-4)" class="stroke_order_diagram--existing_path"></path><path id="pathSk2v596cnoow" kvg:type="㇕a" d="M42.36,33.91c7.34-1.28,30.52-4.35,38.02-5.15c3.3-0.35,4.73,0.8,3.97,4.26c-0.46,2.07-1.19,4.34-2.27,6.76c-0.53,1.18-1.14,2.35-1.85,3.47" transform="matrix(1,0,0,1,1096,-4)" class="stroke_order_diagram--existing_path"></path><path id="pathSk2v596cnoox" kvg:type="㇑a" d="M62.14,32.83c0.44,0.47,0.78,1.54,0.78,2.58c0,1.59-0.01,6.46-0.01,7.84" transform="matrix(1,0,0,1,1096,-4)" class="stroke_order_diagram--existing_path"></path><path id="pathSk2v596cnooy" kvg:type="㇐a" d="M45.74,45.52c10.63-1.4,26.92-3.09,34.35-3.71" transform="matrix(1,0,0,1,1096,-4)" class="stroke_order_diagram--existing_path"></path><path id="pathSk2v596cnooz" kvg:type="㇒" d="M59.87,45.68c0.15,1.04-0.76,2.01-1.39,2.67c-3.12,3.3-9.02,7.62-19.28,12.82" transform="matrix(1,0,0,1,1096,-4)" class="stroke_order_diagram--existing_path"></path><path id="pathSk2v596cnop0" kvg:type="㇕v" d="M57.65,53.31C67.12,58.5,73,77.5,66.38,90.46c-2.9,5.67-7.46,0.75-8.54,0.04" transform="matrix(1,0,0,1,1096,-4)" class="stroke_order_diagram--existing_path"></path><path id="pathSk2v596cnop1" kvg:type="㇒" d="M58.15,57.56c0.17,1.13-0.15,1.95-0.79,2.89c-2.55,3.76-10.26,9.62-21.74,14.8" transform="matrix(1,0,0,1,1096,-4)" class="stroke_order_diagram--existing_path"></path><path id="kvg:050cf-s12" kvg:type="㇒" d="M63.57,64.73c0.17,1.39-0.1,2.5-0.77,3.74c-2.96,5.43-13,15.05-26.05,21.27" transform="matrix(1,0,0,1,1096,-4)" class="stroke_order_diagram--current_path"></path><path id="pathSk2v596cnop3" kvg:type="㇒" d="M63.57,64.73c0.17,1.39-0.1,2.5-0.77,3.74c-2.96,5.43-13,15.05-26.05,21.27" transform="matrix(1,0,0,1,1096,-4)" class="stroke_order_diagram--current_path"></path><circle cx="63.57" cy="64.73" r="8" class="stroke_order_diagram--path_start" transform="matrix(1,0,0,1,1096,-4)"></circle><line x1="1250" x2="1250" y1="1" y2="99" class="stroke_order_diagram--guide_line"></line><line x1="1299" x2="1299" y1="1" y2="99" class="stroke_order_diagram--bounding_box"></line><path id="pathSk2v596cnop6" kvg:type="㇒" d="M30.27,17c0.2,2.02-0.06,3.67-0.71,5.41c-4.18,11.05-9.48,21.93-19.05,35.38" transform="matrix(1,0,0,1,1196,-4)" class="stroke_order_diagram--existing_path"></path><path id="pathSk2v596cnop7" kvg:type="㇑" d="M23.28,40.75c1.05,1.05,1.5,2.62,1.5,4.5c0,11.35-0.02,29.65-0.03,41c0,3.43,0,6.22,0,8" transform="matrix(1,0,0,1,1196,-4)" class="stroke_order_diagram--existing_path"></path><path id="pathSk2v596cnop8" kvg:type="㇒" d="M54.08,12.61c0.11,0.89,0.01,1.77-0.52,2.48c-2.43,3.28-6.18,8.03-13.47,12.44" transform="matrix(1,0,0,1,1196,-4)" class="stroke_order_diagram--existing_path"></path><path id="pathSk2v596cnop9" kvg:type="㇇a" d="M53.03,19.15c3.1-0.27,10.35-1.4,13.64-1.97c1.78-0.31,2.73,1.76,1.97,2.58c-3.16,3.43-4.38,5.5-7.71,10.13" transform="matrix(1,0,0,1,1196,-4)" class="stroke_order_diagram--existing_path"></path><path id="pathSk2v596cnopa" kvg:type="㇑" d="M40.16,32.83c0.81,0.56,1.35,1.35,1.64,2.26c0.94,2.91,1.67,5.54,2.47,8.9c0.29,1.24,0.56,2.47,0.79,3.65" transform="matrix(1,0,0,1,1196,-4)" class="stroke_order_diagram--existing_path"></path><path id="pathSk2v596cnopb" kvg:type="㇕a" d="M42.36,33.91c7.34-1.28,30.52-4.35,38.02-5.15c3.3-0.35,4.73,0.8,3.97,4.26c-0.46,2.07-1.19,4.34-2.27,6.76c-0.53,1.18-1.14,2.35-1.85,3.47" transform="matrix(1,0,0,1,1196,-4)" class="stroke_order_diagram--existing_path"></path><path id="pathSk2v596cnopc" kvg:type="㇑a" d="M62.14,32.83c0.44,0.47,0.78,1.54,0.78,2.58c0,1.59-0.01,6.46-0.01,7.84" transform="matrix(1,0,0,1,1196,-4)" class="stroke_order_diagram--existing_path"></path><path id="pathSk2v596cnopd" kvg:type="㇐a" d="M45.74,45.52c10.63-1.4,26.92-3.09,34.35-3.71" transform="matrix(1,0,0,1,1196,-4)" class="stroke_order_diagram--existing_path"></path><path id="pathSk2v596cnope" kvg:type="㇒" d="M59.87,45.68c0.15,1.04-0.76,2.01-1.39,2.67c-3.12,3.3-9.02,7.62-19.28,12.82" transform="matrix(1,0,0,1,1196,-4)" class="stroke_order_diagram--existing_path"></path><path id="pathSk2v596cnopf" kvg:type="㇕v" d="M57.65,53.31C67.12,58.5,73,77.5,66.38,90.46c-2.9,5.67-7.46,0.75-8.54,0.04" transform="matrix(1,0,0,1,1196,-4)" class="stroke_order_diagram--existing_path"></path><path id="pathSk2v596cnopg" kvg:type="㇒" d="M58.15,57.56c0.17,1.13-0.15,1.95-0.79,2.89c-2.55,3.76-10.26,9.62-21.74,14.8" transform="matrix(1,0,0,1,1196,-4)" class="stroke_order_diagram--existing_path"></path><path id="pathSk2v596cnoph" kvg:type="㇒" d="M63.57,64.73c0.17,1.39-0.1,2.5-0.77,3.74c-2.96,5.43-13,15.05-26.05,21.27" transform="matrix(1,0,0,1,1196,-4)" class="stroke_order_diagram--existing_path"></path><path id="kvg:050cf-s13" kvg:type="㇒" d="M85.79,49.48c-0.17,1.02-0.62,1.93-1.29,2.54c-3.13,2.86-8.53,6.54-16.74,9.55" transform="matrix(1,0,0,1,1196,-4)" class="stroke_order_diagram--current_path"></path><path id="pathSk2v596cnopj" kvg:type="㇒" d="M85.79,49.48c-0.17,1.02-0.62,1.93-1.29,2.54c-3.13,2.86-8.53,6.54-16.74,9.55" transform="matrix(1,0,0,1,1196,-4)" class="stroke_order_diagram--current_path"></path><circle cx="85.79" cy="49.48" r="8" class="stroke_order_diagram--path_start" transform="matrix(1,0,0,1,1196,-4)"></circle><line x1="1350" x2="1350" y1="1" y2="99" class="stroke_order_diagram--guide_line"></line><line x1="1399" x2="1399" y1="1" y2="99" class="stroke_order_diagram--bounding_box"></line><path id="pathSk2v596cnopm" kvg:type="㇒" d="M30.27,17c0.2,2.02-0.06,3.67-0.71,5.41c-4.18,11.05-9.48,21.93-19.05,35.38" transform="matrix(1,0,0,1,1296,-4)" class="stroke_order_diagram--existing_path"></path><path id="pathSk2v596cnopn" kvg:type="㇑" d="M23.28,40.75c1.05,1.05,1.5,2.62,1.5,4.5c0,11.35-0.02,29.65-0.03,41c0,3.43,0,6.22,0,8" transform="matrix(1,0,0,1,1296,-4)" class="stroke_order_diagram--existing_path"></path><path id="pathSk2v596cnopo" kvg:type="㇒" d="M54.08,12.61c0.11,0.89,0.01,1.77-0.52,2.48c-2.43,3.28-6.18,8.03-13.47,12.44" transform="matrix(1,0,0,1,1296,-4)" class="stroke_order_diagram--existing_path"></path><path id="pathSk2v596cnopp" kvg:type="㇇a" d="M53.03,19.15c3.1-0.27,10.35-1.4,13.64-1.97c1.78-0.31,2.73,1.76,1.97,2.58c-3.16,3.43-4.38,5.5-7.71,10.13" transform="matrix(1,0,0,1,1296,-4)" class="stroke_order_diagram--existing_path"></path><path id="pathSk2v596cnopq" kvg:type="㇑" d="M40.16,32.83c0.81,0.56,1.35,1.35,1.64,2.26c0.94,2.91,1.67,5.54,2.47,8.9c0.29,1.24,0.56,2.47,0.79,3.65" transform="matrix(1,0,0,1,1296,-4)" class="stroke_order_diagram--existing_path"></path><path id="pathSk2v596cnopr" kvg:type="㇕a" d="M42.36,33.91c7.34-1.28,30.52-4.35,38.02-5.15c3.3-0.35,4.73,0.8,3.97,4.26c-0.46,2.07-1.19,4.34-2.27,6.76c-0.53,1.18-1.14,2.35-1.85,3.47" transform="matrix(1,0,0,1,1296,-4)" class="stroke_order_diagram--existing_path"></path><path id="pathSk2v596cnops" kvg:type="㇑a" d="M62.14,32.83c0.44,0.47,0.78,1.54,0.78,2.58c0,1.59-0.01,6.46-0.01,7.84" transform="matrix(1,0,0,1,1296,-4)" class="stroke_order_diagram--existing_path"></path><path id="pathSk2v596cnopt" kvg:type="㇐a" d="M45.74,45.52c10.63-1.4,26.92-3.09,34.35-3.71" transform="matrix(1,0,0,1,1296,-4)" class="stroke_order_diagram--existing_path"></path><path id="pathSk2v596cnopu" kvg:type="㇒" d="M59.87,45.68c0.15,1.04-0.76,2.01-1.39,2.67c-3.12,3.3-9.02,7.62-19.28,12.82" transform="matrix(1,0,0,1,1296,-4)" class="stroke_order_diagram--existing_path"></path><path id="pathSk2v596cnopv" kvg:type="㇕v" d="M57.65,53.31C67.12,58.5,73,77.5,66.38,90.46c-2.9,5.67-7.46,0.75-8.54,0.04" transform="matrix(1,0,0,1,1296,-4)" class="stroke_order_diagram--existing_path"></path><path id="pathSk2v596cnopw" kvg:type="㇒" d="M58.15,57.56c0.17,1.13-0.15,1.95-0.79,2.89c-2.55,3.76-10.26,9.62-21.74,14.8" transform="matrix(1,0,0,1,1296,-4)" class="stroke_order_diagram--existing_path"></path><path id="pathSk2v596cnopx" kvg:type="㇒" d="M63.57,64.73c0.17,1.39-0.1,2.5-0.77,3.74c-2.96,5.43-13,15.05-26.05,21.27" transform="matrix(1,0,0,1,1296,-4)" class="stroke_order_diagram--existing_path"></path><path id="pathSk2v596cnopy" kvg:type="㇒" d="M85.79,49.48c-0.17,1.02-0.62,1.93-1.29,2.54c-3.13,2.86-8.53,6.54-16.74,9.55" transform="matrix(1,0,0,1,1296,-4)" class="stroke_order_diagram--existing_path"></path><path id="kvg:050cf-s14" kvg:type="㇏" d="M67.34,62.48c3.96,4.36,13.56,12.47,19.04,16.52c1.91,1.41,3.37,2.37,5.37,3.4" transform="matrix(1,0,0,1,1296,-4)" class="stroke_order_diagram--current_path"></path><path id="pathSk2v596cnoq0" kvg:type="㇏" d="M67.34,62.48c3.96,4.36,13.56,12.47,19.04,16.52c1.91,1.41,3.37,2.37,5.37,3.4" transform="matrix(1,0,0,1,1296,-4)" class="stroke_order_diagram--current_path"></path><circle cx="67.34" cy="62.48" r="8" class="stroke_order_diagram--path_start" transform="matrix(1,0,0,1,1296,-4)"></circle></svg>