<svg style="width: 1400px; height: 100px;" viewbox="0 0 1400 100"><style>
.stroke_order_diagram--outer_container {
  width: 100%;
  overflow-x: auto;
  overflow-y: hidden;
}

.stroke_order_diagram--guide_line {
  fill: none;
  stroke: #ddd;
  stroke-width: 3;
  stroke-linecap: square;
  stroke-linejoin: square;
  stroke-dasharray:8, 8;
}

.stroke_order_diagram--bounding_box {
  fill: none;
  stroke: #ddd;
  stroke-width: 4;
  stroke-linecap: square;
  stroke-linejoin: square;
}

.stroke_order_diagram--current_path {
  fill: none;
  stroke: #000;
  stroke-width: 6;
  stroke-linecap: round;
  stroke-linejoin: round;
}

.stroke_order_diagram--existing_path {
  fill: none;
  stroke: #aaa;
  stroke-width: 6;
  stroke-linecap: round;
  stroke-linejoin:round;
}

.stroke_order_diagram--path_start {
  fill: rgba(255, 0, 0, 0.7);
  stroke:none
}</style><desc>Created with Snap</desc><defs></defs><line x1="1" x2="1399" y1="1" y2="1" class="stroke_order_diagram--bounding_box"></line><line x1="1" x2="1" y1="1" y2="99" class="stroke_order_diagram--bounding_box"></line><line x1="1" x2="1399" y1="99" y2="99" class="stroke_order_diagram--bounding_box"></line><line x1="0" x2="1400" y1="50" y2="50" class="stroke_order_diagram--guide_line"></line><line x1="50" x2="50" y1="1" y2="99" class="stroke_order_diagram--guide_line"></line><line x1="99" x2="99" y1="1" y2="99" class="stroke_order_diagram--bounding_box"></line><path id="kvg:050d5-s1" kvg:type="㇒" d="M31.5,15.14c0.13,1.23-0.03,2.53-0.36,4.04C29,28.75,20,47.25,10.06,60.22" transform="matrix(1,0,0,1,-4,-4)" class="stroke_order_diagram--current_path"></path><path id="pathSk2v596cnl74" kvg:type="㇒" d="M31.5,15.14c0.13,1.23-0.03,2.53-0.36,4.04C29,28.75,20,47.25,10.06,60.22" transform="matrix(1,0,0,1,-4,-4)" class="stroke_order_diagram--current_path"></path><circle cx="31.5" cy="15.14" r="8" class="stroke_order_diagram--path_start" transform="matrix(1,0,0,1,-4,-4)"></circle><line x1="150" x2="150" y1="1" y2="99" class="stroke_order_diagram--guide_line"></line><line x1="199" x2="199" y1="1" y2="99" class="stroke_order_diagram--bounding_box"></line><path id="pathSk2v596cnl77" kvg:type="㇒" d="M31.5,15.14c0.13,1.23-0.03,2.53-0.36,4.04C29,28.75,20,47.25,10.06,60.22" transform="matrix(1,0,0,1,96,-4)" class="stroke_order_diagram--existing_path"></path><path id="kvg:050d5-s2" kvg:type="㇑" d="M23.75,42.75c1.06,1.06,1.32,2.38,1.32,4.24c0,11.39,0.04,32.24-0.03,45.01c-0.02,3.02-0.03,5.56-0.03,7.38" transform="matrix(1,0,0,1,96,-4)" class="stroke_order_diagram--current_path"></path><path id="pathSk2v596cnl79" kvg:type="㇑" d="M23.75,42.75c1.06,1.06,1.32,2.38,1.32,4.24c0,11.39,0.04,32.24-0.03,45.01c-0.02,3.02-0.03,5.56-0.03,7.38" transform="matrix(1,0,0,1,96,-4)" class="stroke_order_diagram--current_path"></path><circle cx="23.75" cy="42.75" r="8" class="stroke_order_diagram--path_start" transform="matrix(1,0,0,1,96,-4)"></circle><line x1="250" x2="250" y1="1" y2="99" class="stroke_order_diagram--guide_line"></line><line x1="299" x2="299" y1="1" y2="99" class="stroke_order_diagram--bounding_box"></line><path id="pathSk2v596cnl7c" kvg:type="㇒" d="M31.5,15.14c0.13,1.23-0.03,2.53-0.36,4.04C29,28.75,20,47.25,10.06,60.22" transform="matrix(1,0,0,1,196,-4)" class="stroke_order_diagram--existing_path"></path><path id="pathSk2v596cnl7d" kvg:type="㇑" d="M23.75,42.75c1.06,1.06,1.32,2.38,1.32,4.24c0,11.39,0.04,32.24-0.03,45.01c-0.02,3.02-0.03,5.56-0.03,7.38" transform="matrix(1,0,0,1,196,-4)" class="stroke_order_diagram--existing_path"></path><path id="kvg:050d5-s3" kvg:type="㇑a" d="M55.55,13.89c0.84,0.84,1.36,2.1,1.45,3.76c0.25,4.73,0.62,9.98,0.85,14.77" transform="matrix(1,0,0,1,196,-4)" class="stroke_order_diagram--current_path"></path><path id="pathSk2v596cnl7f" kvg:type="㇑a" d="M55.55,13.89c0.84,0.84,1.36,2.1,1.45,3.76c0.25,4.73,0.62,9.98,0.85,14.77" transform="matrix(1,0,0,1,196,-4)" class="stroke_order_diagram--current_path"></path><circle cx="55.55" cy="13.89" r="8" class="stroke_order_diagram--path_start" transform="matrix(1,0,0,1,196,-4)"></circle><line x1="350" x2="350" y1="1" y2="99" class="stroke_order_diagram--guide_line"></line><line x1="399" x2="399" y1="1" y2="99" class="stroke_order_diagram--bounding_box"></line><path id="pathSk2v596cnl7i" kvg:type="㇒" d="M31.5,15.14c0.13,1.23-0.03,2.53-0.36,4.04C29,28.75,20,47.25,10.06,60.22" transform="matrix(1,0,0,1,296,-4)" class="stroke_order_diagram--existing_path"></path><path id="pathSk2v596cnl7j" kvg:type="㇑" d="M23.75,42.75c1.06,1.06,1.32,2.38,1.32,4.24c0,11.39,0.04,32.24-0.03,45.01c-0.02,3.02-0.03,5.56-0.03,7.38" transform="matrix(1,0,0,1,296,-4)" class="stroke_order_diagram--existing_path"></path><path id="pathSk2v596cnl7k" kvg:type="㇑a" d="M55.55,13.89c0.84,0.84,1.36,2.1,1.45,3.76c0.25,4.73,0.62,9.98,0.85,14.77" transform="matrix(1,0,0,1,296,-4)" class="stroke_order_diagram--existing_path"></path><path id="kvg:050d5-s4" kvg:type="㇑a" d="M68.55,10.39c1,1.59,1.2,2.54,1.2,3.81c0,1.27-1,15.05-1.4,18.21" transform="matrix(1,0,0,1,296,-4)" class="stroke_order_diagram--current_path"></path><path id="pathSk2v596cnl7m" kvg:type="㇑a" d="M68.55,10.39c1,1.59,1.2,2.54,1.2,3.81c0,1.27-1,15.05-1.4,18.21" transform="matrix(1,0,0,1,296,-4)" class="stroke_order_diagram--current_path"></path><circle cx="68.55" cy="10.39" r="8" class="stroke_order_diagram--path_start" transform="matrix(1,0,0,1,296,-4)"></circle><line x1="450" x2="450" y1="1" y2="99" class="stroke_order_diagram--guide_line"></line><line x1="499" x2="499" y1="1" y2="99" class="stroke_order_diagram--bounding_box"></line><path id="pathSk2v596cnl7p" kvg:type="㇒" d="M31.5,15.14c0.13,1.23-0.03,2.53-0.36,4.04C29,28.75,20,47.25,10.06,60.22" transform="matrix(1,0,0,1,396,-4)" class="stroke_order_diagram--existing_path"></path><path id="pathSk2v596cnl7q" kvg:type="㇑" d="M23.75,42.75c1.06,1.06,1.32,2.38,1.32,4.24c0,11.39,0.04,32.24-0.03,45.01c-0.02,3.02-0.03,5.56-0.03,7.38" transform="matrix(1,0,0,1,396,-4)" class="stroke_order_diagram--existing_path"></path><path id="pathSk2v596cnl7r" kvg:type="㇑a" d="M55.55,13.89c0.84,0.84,1.36,2.1,1.45,3.76c0.25,4.73,0.62,9.98,0.85,14.77" transform="matrix(1,0,0,1,396,-4)" class="stroke_order_diagram--existing_path"></path><path id="pathSk2v596cnl7s" kvg:type="㇑a" d="M68.55,10.39c1,1.59,1.2,2.54,1.2,3.81c0,1.27-1,15.05-1.4,18.21" transform="matrix(1,0,0,1,396,-4)" class="stroke_order_diagram--existing_path"></path><path id="kvg:050d5-s5" kvg:type="㇔" d="M41.52,18.33c2.04,1.96,5.28,8.08,5.79,11.13" transform="matrix(1,0,0,1,396,-4)" class="stroke_order_diagram--current_path"></path><path id="pathSk2v596cnl7u" kvg:type="㇔" d="M41.52,18.33c2.04,1.96,5.28,8.08,5.79,11.13" transform="matrix(1,0,0,1,396,-4)" class="stroke_order_diagram--current_path"></path><circle cx="41.52" cy="18.33" r="8" class="stroke_order_diagram--path_start" transform="matrix(1,0,0,1,396,-4)"></circle><line x1="550" x2="550" y1="1" y2="99" class="stroke_order_diagram--guide_line"></line><line x1="599" x2="599" y1="1" y2="99" class="stroke_order_diagram--bounding_box"></line><path id="pathSk2v596cnl7x" kvg:type="㇒" d="M31.5,15.14c0.13,1.23-0.03,2.53-0.36,4.04C29,28.75,20,47.25,10.06,60.22" transform="matrix(1,0,0,1,496,-4)" class="stroke_order_diagram--existing_path"></path><path id="pathSk2v596cnl7y" kvg:type="㇑" d="M23.75,42.75c1.06,1.06,1.32,2.38,1.32,4.24c0,11.39,0.04,32.24-0.03,45.01c-0.02,3.02-0.03,5.56-0.03,7.38" transform="matrix(1,0,0,1,496,-4)" class="stroke_order_diagram--existing_path"></path><path id="pathSk2v596cnl7z" kvg:type="㇑a" d="M55.55,13.89c0.84,0.84,1.36,2.1,1.45,3.76c0.25,4.73,0.62,9.98,0.85,14.77" transform="matrix(1,0,0,1,496,-4)" class="stroke_order_diagram--existing_path"></path><path id="pathSk2v596cnl80" kvg:type="㇑a" d="M68.55,10.39c1,1.59,1.2,2.54,1.2,3.81c0,1.27-1,15.05-1.4,18.21" transform="matrix(1,0,0,1,496,-4)" class="stroke_order_diagram--existing_path"></path><path id="pathSk2v596cnl81" kvg:type="㇔" d="M41.52,18.33c2.04,1.96,5.28,8.08,5.79,11.13" transform="matrix(1,0,0,1,496,-4)" class="stroke_order_diagram--existing_path"></path><path id="kvg:050d5-s6" kvg:type="㇒" d="M84.78,14.64c0.11,0.88-0.02,1.73-0.39,2.53c-1.89,4.08-4,8.13-8.08,13.05" transform="matrix(1,0,0,1,496,-4)" class="stroke_order_diagram--current_path"></path><path id="pathSk2v596cnl83" kvg:type="㇒" d="M84.78,14.64c0.11,0.88-0.02,1.73-0.39,2.53c-1.89,4.08-4,8.13-8.08,13.05" transform="matrix(1,0,0,1,496,-4)" class="stroke_order_diagram--current_path"></path><circle cx="84.78" cy="14.64" r="8" class="stroke_order_diagram--path_start" transform="matrix(1,0,0,1,496,-4)"></circle><line x1="650" x2="650" y1="1" y2="99" class="stroke_order_diagram--guide_line"></line><line x1="699" x2="699" y1="1" y2="99" class="stroke_order_diagram--bounding_box"></line><path id="pathSk2v596cnl86" kvg:type="㇒" d="M31.5,15.14c0.13,1.23-0.03,2.53-0.36,4.04C29,28.75,20,47.25,10.06,60.22" transform="matrix(1,0,0,1,596,-4)" class="stroke_order_diagram--existing_path"></path><path id="pathSk2v596cnl87" kvg:type="㇑" d="M23.75,42.75c1.06,1.06,1.32,2.38,1.32,4.24c0,11.39,0.04,32.24-0.03,45.01c-0.02,3.02-0.03,5.56-0.03,7.38" transform="matrix(1,0,0,1,596,-4)" class="stroke_order_diagram--existing_path"></path><path id="pathSk2v596cnl88" kvg:type="㇑a" d="M55.55,13.89c0.84,0.84,1.36,2.1,1.45,3.76c0.25,4.73,0.62,9.98,0.85,14.77" transform="matrix(1,0,0,1,596,-4)" class="stroke_order_diagram--existing_path"></path><path id="pathSk2v596cnl89" kvg:type="㇑a" d="M68.55,10.39c1,1.59,1.2,2.54,1.2,3.81c0,1.27-1,15.05-1.4,18.21" transform="matrix(1,0,0,1,596,-4)" class="stroke_order_diagram--existing_path"></path><path id="pathSk2v596cnl8a" kvg:type="㇔" d="M41.52,18.33c2.04,1.96,5.28,8.08,5.79,11.13" transform="matrix(1,0,0,1,596,-4)" class="stroke_order_diagram--existing_path"></path><path id="pathSk2v596cnl8b" kvg:type="㇒" d="M84.78,14.64c0.11,0.88-0.02,1.73-0.39,2.53c-1.89,4.08-4,8.13-8.08,13.05" transform="matrix(1,0,0,1,596,-4)" class="stroke_order_diagram--existing_path"></path><path id="kvg:050d5-s7" kvg:type="㇐" d="M36.5,35.65c2.45,0.89,5.73,0.33,8.24-0.01c9.39-1.28,30.78-3.87,41.39-4.49c2.45-0.14,4.95-0.31,7.38,0.22" transform="matrix(1,0,0,1,596,-4)" class="stroke_order_diagram--current_path"></path><path id="pathSk2v596cnl8d" kvg:type="㇐" d="M36.5,35.65c2.45,0.89,5.73,0.33,8.24-0.01c9.39-1.28,30.78-3.87,41.39-4.49c2.45-0.14,4.95-0.31,7.38,0.22" transform="matrix(1,0,0,1,596,-4)" class="stroke_order_diagram--current_path"></path><circle cx="36.5" cy="35.65" r="8" class="stroke_order_diagram--path_start" transform="matrix(1,0,0,1,596,-4)"></circle><line x1="750" x2="750" y1="1" y2="99" class="stroke_order_diagram--guide_line"></line><line x1="799" x2="799" y1="1" y2="99" class="stroke_order_diagram--bounding_box"></line><path id="pathSk2v596cnl8g" kvg:type="㇒" d="M31.5,15.14c0.13,1.23-0.03,2.53-0.36,4.04C29,28.75,20,47.25,10.06,60.22" transform="matrix(1,0,0,1,696,-4)" class="stroke_order_diagram--existing_path"></path><path id="pathSk2v596cnl8h" kvg:type="㇑" d="M23.75,42.75c1.06,1.06,1.32,2.38,1.32,4.24c0,11.39,0.04,32.24-0.03,45.01c-0.02,3.02-0.03,5.56-0.03,7.38" transform="matrix(1,0,0,1,696,-4)" class="stroke_order_diagram--existing_path"></path><path id="pathSk2v596cnl8i" kvg:type="㇑a" d="M55.55,13.89c0.84,0.84,1.36,2.1,1.45,3.76c0.25,4.73,0.62,9.98,0.85,14.77" transform="matrix(1,0,0,1,696,-4)" class="stroke_order_diagram--existing_path"></path><path id="pathSk2v596cnl8j" kvg:type="㇑a" d="M68.55,10.39c1,1.59,1.2,2.54,1.2,3.81c0,1.27-1,15.05-1.4,18.21" transform="matrix(1,0,0,1,696,-4)" class="stroke_order_diagram--existing_path"></path><path id="pathSk2v596cnl8k" kvg:type="㇔" d="M41.52,18.33c2.04,1.96,5.28,8.08,5.79,11.13" transform="matrix(1,0,0,1,696,-4)" class="stroke_order_diagram--existing_path"></path><path id="pathSk2v596cnl8l" kvg:type="㇒" d="M84.78,14.64c0.11,0.88-0.02,1.73-0.39,2.53c-1.89,4.08-4,8.13-8.08,13.05" transform="matrix(1,0,0,1,696,-4)" class="stroke_order_diagram--existing_path"></path><path id="pathSk2v596cnl8m" kvg:type="㇐" d="M36.5,35.65c2.45,0.89,5.73,0.33,8.24-0.01c9.39-1.28,30.78-3.87,41.39-4.49c2.45-0.14,4.95-0.31,7.38,0.22" transform="matrix(1,0,0,1,696,-4)" class="stroke_order_diagram--existing_path"></path><path id="kvg:050d5-s8" kvg:type="㇔" d="M50.52,38.08c1.43,1.57,3.69,6.45,4.04,8.88" transform="matrix(1,0,0,1,696,-4)" class="stroke_order_diagram--current_path"></path><path id="pathSk2v596cnl8o" kvg:type="㇔" d="M50.52,38.08c1.43,1.57,3.69,6.45,4.04,8.88" transform="matrix(1,0,0,1,696,-4)" class="stroke_order_diagram--current_path"></path><circle cx="50.52" cy="38.08" r="8" class="stroke_order_diagram--path_start" transform="matrix(1,0,0,1,696,-4)"></circle><line x1="850" x2="850" y1="1" y2="99" class="stroke_order_diagram--guide_line"></line><line x1="899" x2="899" y1="1" y2="99" class="stroke_order_diagram--bounding_box"></line><path id="pathSk2v596cnl8r" kvg:type="㇒" d="M31.5,15.14c0.13,1.23-0.03,2.53-0.36,4.04C29,28.75,20,47.25,10.06,60.22" transform="matrix(1,0,0,1,796,-4)" class="stroke_order_diagram--existing_path"></path><path id="pathSk2v596cnl8s" kvg:type="㇑" d="M23.75,42.75c1.06,1.06,1.32,2.38,1.32,4.24c0,11.39,0.04,32.24-0.03,45.01c-0.02,3.02-0.03,5.56-0.03,7.38" transform="matrix(1,0,0,1,796,-4)" class="stroke_order_diagram--existing_path"></path><path id="pathSk2v596cnl8t" kvg:type="㇑a" d="M55.55,13.89c0.84,0.84,1.36,2.1,1.45,3.76c0.25,4.73,0.62,9.98,0.85,14.77" transform="matrix(1,0,0,1,796,-4)" class="stroke_order_diagram--existing_path"></path><path id="pathSk2v596cnl8u" kvg:type="㇑a" d="M68.55,10.39c1,1.59,1.2,2.54,1.2,3.81c0,1.27-1,15.05-1.4,18.21" transform="matrix(1,0,0,1,796,-4)" class="stroke_order_diagram--existing_path"></path><path id="pathSk2v596cnl8v" kvg:type="㇔" d="M41.52,18.33c2.04,1.96,5.28,8.08,5.79,11.13" transform="matrix(1,0,0,1,796,-4)" class="stroke_order_diagram--existing_path"></path><path id="pathSk2v596cnl8w" kvg:type="㇒" d="M84.78,14.64c0.11,0.88-0.02,1.73-0.39,2.53c-1.89,4.08-4,8.13-8.08,13.05" transform="matrix(1,0,0,1,796,-4)" class="stroke_order_diagram--existing_path"></path><path id="pathSk2v596cnl8x" kvg:type="㇐" d="M36.5,35.65c2.45,0.89,5.73,0.33,8.24-0.01c9.39-1.28,30.78-3.87,41.39-4.49c2.45-0.14,4.95-0.31,7.38,0.22" transform="matrix(1,0,0,1,796,-4)" class="stroke_order_diagram--existing_path"></path><path id="pathSk2v596cnl8y" kvg:type="㇔" d="M50.52,38.08c1.43,1.57,3.69,6.45,4.04,8.88" transform="matrix(1,0,0,1,796,-4)" class="stroke_order_diagram--existing_path"></path><path id="kvg:050d5-s9" kvg:type="㇒" d="M74.53,35.39c0.03,0.33,0.13,0.88-0.05,1.34c-0.98,2.39-2.1,4.89-4.98,8.77" transform="matrix(1,0,0,1,796,-4)" class="stroke_order_diagram--current_path"></path><path id="pathSk2v596cnl90" kvg:type="㇒" d="M74.53,35.39c0.03,0.33,0.13,0.88-0.05,1.34c-0.98,2.39-2.1,4.89-4.98,8.77" transform="matrix(1,0,0,1,796,-4)" class="stroke_order_diagram--current_path"></path><circle cx="74.53" cy="35.39" r="8" class="stroke_order_diagram--path_start" transform="matrix(1,0,0,1,796,-4)"></circle><line x1="950" x2="950" y1="1" y2="99" class="stroke_order_diagram--guide_line"></line><line x1="999" x2="999" y1="1" y2="99" class="stroke_order_diagram--bounding_box"></line><path id="pathSk2v596cnl93" kvg:type="㇒" d="M31.5,15.14c0.13,1.23-0.03,2.53-0.36,4.04C29,28.75,20,47.25,10.06,60.22" transform="matrix(1,0,0,1,896,-4)" class="stroke_order_diagram--existing_path"></path><path id="pathSk2v596cnl94" kvg:type="㇑" d="M23.75,42.75c1.06,1.06,1.32,2.38,1.32,4.24c0,11.39,0.04,32.24-0.03,45.01c-0.02,3.02-0.03,5.56-0.03,7.38" transform="matrix(1,0,0,1,896,-4)" class="stroke_order_diagram--existing_path"></path><path id="pathSk2v596cnl95" kvg:type="㇑a" d="M55.55,13.89c0.84,0.84,1.36,2.1,1.45,3.76c0.25,4.73,0.62,9.98,0.85,14.77" transform="matrix(1,0,0,1,896,-4)" class="stroke_order_diagram--existing_path"></path><path id="pathSk2v596cnl96" kvg:type="㇑a" d="M68.55,10.39c1,1.59,1.2,2.54,1.2,3.81c0,1.27-1,15.05-1.4,18.21" transform="matrix(1,0,0,1,896,-4)" class="stroke_order_diagram--existing_path"></path><path id="pathSk2v596cnl97" kvg:type="㇔" d="M41.52,18.33c2.04,1.96,5.28,8.08,5.79,11.13" transform="matrix(1,0,0,1,896,-4)" class="stroke_order_diagram--existing_path"></path><path id="pathSk2v596cnl98" kvg:type="㇒" d="M84.78,14.64c0.11,0.88-0.02,1.73-0.39,2.53c-1.89,4.08-4,8.13-8.08,13.05" transform="matrix(1,0,0,1,896,-4)" class="stroke_order_diagram--existing_path"></path><path id="pathSk2v596cnl99" kvg:type="㇐" d="M36.5,35.65c2.45,0.89,5.73,0.33,8.24-0.01c9.39-1.28,30.78-3.87,41.39-4.49c2.45-0.14,4.95-0.31,7.38,0.22" transform="matrix(1,0,0,1,896,-4)" class="stroke_order_diagram--existing_path"></path><path id="pathSk2v596cnl9a" kvg:type="㇔" d="M50.52,38.08c1.43,1.57,3.69,6.45,4.04,8.88" transform="matrix(1,0,0,1,896,-4)" class="stroke_order_diagram--existing_path"></path><path id="pathSk2v596cnl9b" kvg:type="㇒" d="M74.53,35.39c0.03,0.33,0.13,0.88-0.05,1.34c-0.98,2.39-2.1,4.89-4.98,8.77" transform="matrix(1,0,0,1,896,-4)" class="stroke_order_diagram--existing_path"></path><path id="kvg:050d5-s10" kvg:type="㇐" d="M43,50.4c2.5,0.47,5.05,0.27,7.39-0.04c6.7-0.88,18.67-2.7,27.11-3.21c2.49-0.15,5.04-0.56,7.5-0.02" transform="matrix(1,0,0,1,896,-4)" class="stroke_order_diagram--current_path"></path><path id="pathSk2v596cnl9d" kvg:type="㇐" d="M43,50.4c2.5,0.47,5.05,0.27,7.39-0.04c6.7-0.88,18.67-2.7,27.11-3.21c2.49-0.15,5.04-0.56,7.5-0.02" transform="matrix(1,0,0,1,896,-4)" class="stroke_order_diagram--current_path"></path><circle cx="43" cy="50.4" r="8" class="stroke_order_diagram--path_start" transform="matrix(1,0,0,1,896,-4)"></circle><line x1="1050" x2="1050" y1="1" y2="99" class="stroke_order_diagram--guide_line"></line><line x1="1099" x2="1099" y1="1" y2="99" class="stroke_order_diagram--bounding_box"></line><path id="pathSk2v596cnl9g" kvg:type="㇒" d="M31.5,15.14c0.13,1.23-0.03,2.53-0.36,4.04C29,28.75,20,47.25,10.06,60.22" transform="matrix(1,0,0,1,996,-4)" class="stroke_order_diagram--existing_path"></path><path id="pathSk2v596cnl9h" kvg:type="㇑" d="M23.75,42.75c1.06,1.06,1.32,2.38,1.32,4.24c0,11.39,0.04,32.24-0.03,45.01c-0.02,3.02-0.03,5.56-0.03,7.38" transform="matrix(1,0,0,1,996,-4)" class="stroke_order_diagram--existing_path"></path><path id="pathSk2v596cnl9i" kvg:type="㇑a" d="M55.55,13.89c0.84,0.84,1.36,2.1,1.45,3.76c0.25,4.73,0.62,9.98,0.85,14.77" transform="matrix(1,0,0,1,996,-4)" class="stroke_order_diagram--existing_path"></path><path id="pathSk2v596cnl9j" kvg:type="㇑a" d="M68.55,10.39c1,1.59,1.2,2.54,1.2,3.81c0,1.27-1,15.05-1.4,18.21" transform="matrix(1,0,0,1,996,-4)" class="stroke_order_diagram--existing_path"></path><path id="pathSk2v596cnl9k" kvg:type="㇔" d="M41.52,18.33c2.04,1.96,5.28,8.08,5.79,11.13" transform="matrix(1,0,0,1,996,-4)" class="stroke_order_diagram--existing_path"></path><path id="pathSk2v596cnl9l" kvg:type="㇒" d="M84.78,14.64c0.11,0.88-0.02,1.73-0.39,2.53c-1.89,4.08-4,8.13-8.08,13.05" transform="matrix(1,0,0,1,996,-4)" class="stroke_order_diagram--existing_path"></path><path id="pathSk2v596cnl9m" kvg:type="㇐" d="M36.5,35.65c2.45,0.89,5.73,0.33,8.24-0.01c9.39-1.28,30.78-3.87,41.39-4.49c2.45-0.14,4.95-0.31,7.38,0.22" transform="matrix(1,0,0,1,996,-4)" class="stroke_order_diagram--existing_path"></path><path id="pathSk2v596cnl9n" kvg:type="㇔" d="M50.52,38.08c1.43,1.57,3.69,6.45,4.04,8.88" transform="matrix(1,0,0,1,996,-4)" class="stroke_order_diagram--existing_path"></path><path id="pathSk2v596cnl9o" kvg:type="㇒" d="M74.53,35.39c0.03,0.33,0.13,0.88-0.05,1.34c-0.98,2.39-2.1,4.89-4.98,8.77" transform="matrix(1,0,0,1,996,-4)" class="stroke_order_diagram--existing_path"></path><path id="pathSk2v596cnl9p" kvg:type="㇐" d="M43,50.4c2.5,0.47,5.05,0.27,7.39-0.04c6.7-0.88,18.67-2.7,27.11-3.21c2.49-0.15,5.04-0.56,7.5-0.02" transform="matrix(1,0,0,1,996,-4)" class="stroke_order_diagram--existing_path"></path><path id="kvg:050d5-s11" kvg:type="㇐" d="M44.5,62.65c2.62,0.47,4.5,0.33,6.63,0.06c6.17-0.78,18.74-2.09,25.99-2.86c2.28-0.24,4.62-0.22,6.88,0.27" transform="matrix(1,0,0,1,996,-4)" class="stroke_order_diagram--current_path"></path><path id="pathSk2v596cnl9r" kvg:type="㇐" d="M44.5,62.65c2.62,0.47,4.5,0.33,6.63,0.06c6.17-0.78,18.74-2.09,25.99-2.86c2.28-0.24,4.62-0.22,6.88,0.27" transform="matrix(1,0,0,1,996,-4)" class="stroke_order_diagram--current_path"></path><circle cx="44.5" cy="62.65" r="8" class="stroke_order_diagram--path_start" transform="matrix(1,0,0,1,996,-4)"></circle><line x1="1150" x2="1150" y1="1" y2="99" class="stroke_order_diagram--guide_line"></line><line x1="1199" x2="1199" y1="1" y2="99" class="stroke_order_diagram--bounding_box"></line><path id="pathSk2v596cnl9u" kvg:type="㇒" d="M31.5,15.14c0.13,1.23-0.03,2.53-0.36,4.04C29,28.75,20,47.25,10.06,60.22" transform="matrix(1,0,0,1,1096,-4)" class="stroke_order_diagram--existing_path"></path><path id="pathSk2v596cnl9v" kvg:type="㇑" d="M23.75,42.75c1.06,1.06,1.32,2.38,1.32,4.24c0,11.39,0.04,32.24-0.03,45.01c-0.02,3.02-0.03,5.56-0.03,7.38" transform="matrix(1,0,0,1,1096,-4)" class="stroke_order_diagram--existing_path"></path><path id="pathSk2v596cnl9w" kvg:type="㇑a" d="M55.55,13.89c0.84,0.84,1.36,2.1,1.45,3.76c0.25,4.73,0.62,9.98,0.85,14.77" transform="matrix(1,0,0,1,1096,-4)" class="stroke_order_diagram--existing_path"></path><path id="pathSk2v596cnl9x" kvg:type="㇑a" d="M68.55,10.39c1,1.59,1.2,2.54,1.2,3.81c0,1.27-1,15.05-1.4,18.21" transform="matrix(1,0,0,1,1096,-4)" class="stroke_order_diagram--existing_path"></path><path id="pathSk2v596cnl9y" kvg:type="㇔" d="M41.52,18.33c2.04,1.96,5.28,8.08,5.79,11.13" transform="matrix(1,0,0,1,1096,-4)" class="stroke_order_diagram--existing_path"></path><path id="pathSk2v596cnl9z" kvg:type="㇒" d="M84.78,14.64c0.11,0.88-0.02,1.73-0.39,2.53c-1.89,4.08-4,8.13-8.08,13.05" transform="matrix(1,0,0,1,1096,-4)" class="stroke_order_diagram--existing_path"></path><path id="pathSk2v596cnla0" kvg:type="㇐" d="M36.5,35.65c2.45,0.89,5.73,0.33,8.24-0.01c9.39-1.28,30.78-3.87,41.39-4.49c2.45-0.14,4.95-0.31,7.38,0.22" transform="matrix(1,0,0,1,1096,-4)" class="stroke_order_diagram--existing_path"></path><path id="pathSk2v596cnla1" kvg:type="㇔" d="M50.52,38.08c1.43,1.57,3.69,6.45,4.04,8.88" transform="matrix(1,0,0,1,1096,-4)" class="stroke_order_diagram--existing_path"></path><path id="pathSk2v596cnla2" kvg:type="㇒" d="M74.53,35.39c0.03,0.33,0.13,0.88-0.05,1.34c-0.98,2.39-2.1,4.89-4.98,8.77" transform="matrix(1,0,0,1,1096,-4)" class="stroke_order_diagram--existing_path"></path><path id="pathSk2v596cnla3" kvg:type="㇐" d="M43,50.4c2.5,0.47,5.05,0.27,7.39-0.04c6.7-0.88,18.67-2.7,27.11-3.21c2.49-0.15,5.04-0.56,7.5-0.02" transform="matrix(1,0,0,1,1096,-4)" class="stroke_order_diagram--existing_path"></path><path id="pathSk2v596cnla4" kvg:type="㇐" d="M44.5,62.65c2.62,0.47,4.5,0.33,6.63,0.06c6.17-0.78,18.74-2.09,25.99-2.86c2.28-0.24,4.62-0.22,6.88,0.27" transform="matrix(1,0,0,1,1096,-4)" class="stroke_order_diagram--existing_path"></path><path id="kvg:050d5-s12" kvg:type="㇐" d="M37.5,75.4c3.12,0.35,6.07,0.33,9,0.08c9.11-0.78,26.88-2.77,38.88-3.15c3.13-0.1,6.04,0.04,9.12,0.54" transform="matrix(1,0,0,1,1096,-4)" class="stroke_order_diagram--current_path"></path><path id="pathSk2v596cnla6" kvg:type="㇐" d="M37.5,75.4c3.12,0.35,6.07,0.33,9,0.08c9.11-0.78,26.88-2.77,38.88-3.15c3.13-0.1,6.04,0.04,9.12,0.54" transform="matrix(1,0,0,1,1096,-4)" class="stroke_order_diagram--current_path"></path><circle cx="37.5" cy="75.4" r="8" class="stroke_order_diagram--path_start" transform="matrix(1,0,0,1,1096,-4)"></circle><line x1="1250" x2="1250" y1="1" y2="99" class="stroke_order_diagram--guide_line"></line><line x1="1299" x2="1299" y1="1" y2="99" class="stroke_order_diagram--bounding_box"></line><path id="pathSk2v596cnla9" kvg:type="㇒" d="M31.5,15.14c0.13,1.23-0.03,2.53-0.36,4.04C29,28.75,20,47.25,10.06,60.22" transform="matrix(1,0,0,1,1196,-4)" class="stroke_order_diagram--existing_path"></path><path id="pathSk2v596cnlaa" kvg:type="㇑" d="M23.75,42.75c1.06,1.06,1.32,2.38,1.32,4.24c0,11.39,0.04,32.24-0.03,45.01c-0.02,3.02-0.03,5.56-0.03,7.38" transform="matrix(1,0,0,1,1196,-4)" class="stroke_order_diagram--existing_path"></path><path id="pathSk2v596cnlab" kvg:type="㇑a" d="M55.55,13.89c0.84,0.84,1.36,2.1,1.45,3.76c0.25,4.73,0.62,9.98,0.85,14.77" transform="matrix(1,0,0,1,1196,-4)" class="stroke_order_diagram--existing_path"></path><path id="pathSk2v596cnlac" kvg:type="㇑a" d="M68.55,10.39c1,1.59,1.2,2.54,1.2,3.81c0,1.27-1,15.05-1.4,18.21" transform="matrix(1,0,0,1,1196,-4)" class="stroke_order_diagram--existing_path"></path><path id="pathSk2v596cnlad" kvg:type="㇔" d="M41.52,18.33c2.04,1.96,5.28,8.08,5.79,11.13" transform="matrix(1,0,0,1,1196,-4)" class="stroke_order_diagram--existing_path"></path><path id="pathSk2v596cnlae" kvg:type="㇒" d="M84.78,14.64c0.11,0.88-0.02,1.73-0.39,2.53c-1.89,4.08-4,8.13-8.08,13.05" transform="matrix(1,0,0,1,1196,-4)" class="stroke_order_diagram--existing_path"></path><path id="pathSk2v596cnlaf" kvg:type="㇐" d="M36.5,35.65c2.45,0.89,5.73,0.33,8.24-0.01c9.39-1.28,30.78-3.87,41.39-4.49c2.45-0.14,4.95-0.31,7.38,0.22" transform="matrix(1,0,0,1,1196,-4)" class="stroke_order_diagram--existing_path"></path><path id="pathSk2v596cnlag" kvg:type="㇔" d="M50.52,38.08c1.43,1.57,3.69,6.45,4.04,8.88" transform="matrix(1,0,0,1,1196,-4)" class="stroke_order_diagram--existing_path"></path><path id="pathSk2v596cnlah" kvg:type="㇒" d="M74.53,35.39c0.03,0.33,0.13,0.88-0.05,1.34c-0.98,2.39-2.1,4.89-4.98,8.77" transform="matrix(1,0,0,1,1196,-4)" class="stroke_order_diagram--existing_path"></path><path id="pathSk2v596cnlai" kvg:type="㇐" d="M43,50.4c2.5,0.47,5.05,0.27,7.39-0.04c6.7-0.88,18.67-2.7,27.11-3.21c2.49-0.15,5.04-0.56,7.5-0.02" transform="matrix(1,0,0,1,1196,-4)" class="stroke_order_diagram--existing_path"></path><path id="pathSk2v596cnlaj" kvg:type="㇐" d="M44.5,62.65c2.62,0.47,4.5,0.33,6.63,0.06c6.17-0.78,18.74-2.09,25.99-2.86c2.28-0.24,4.62-0.22,6.88,0.27" transform="matrix(1,0,0,1,1196,-4)" class="stroke_order_diagram--existing_path"></path><path id="pathSk2v596cnlak" kvg:type="㇐" d="M37.5,75.4c3.12,0.35,6.07,0.33,9,0.08c9.11-0.78,26.88-2.77,38.88-3.15c3.13-0.1,6.04,0.04,9.12,0.54" transform="matrix(1,0,0,1,1196,-4)" class="stroke_order_diagram--existing_path"></path><path id="kvg:050d5-s13" kvg:type="㇒" d="M61.78,51.75c0.47,1,0.87,2.79,0.86,4.38C62.5,71.25,57.25,90.25,36.75,98" transform="matrix(1,0,0,1,1196,-4)" class="stroke_order_diagram--current_path"></path><path id="pathSk2v596cnlam" kvg:type="㇒" d="M61.78,51.75c0.47,1,0.87,2.79,0.86,4.38C62.5,71.25,57.25,90.25,36.75,98" transform="matrix(1,0,0,1,1196,-4)" class="stroke_order_diagram--current_path"></path><circle cx="61.78" cy="51.75" r="8" class="stroke_order_diagram--path_start" transform="matrix(1,0,0,1,1196,-4)"></circle><line x1="1350" x2="1350" y1="1" y2="99" class="stroke_order_diagram--guide_line"></line><line x1="1399" x2="1399" y1="1" y2="99" class="stroke_order_diagram--bounding_box"></line><path id="pathSk2v596cnlap" kvg:type="㇒" d="M31.5,15.14c0.13,1.23-0.03,2.53-0.36,4.04C29,28.75,20,47.25,10.06,60.22" transform="matrix(1,0,0,1,1296,-4)" class="stroke_order_diagram--existing_path"></path><path id="pathSk2v596cnlaq" kvg:type="㇑" d="M23.75,42.75c1.06,1.06,1.32,2.38,1.32,4.24c0,11.39,0.04,32.24-0.03,45.01c-0.02,3.02-0.03,5.56-0.03,7.38" transform="matrix(1,0,0,1,1296,-4)" class="stroke_order_diagram--existing_path"></path><path id="pathSk2v596cnlar" kvg:type="㇑a" d="M55.55,13.89c0.84,0.84,1.36,2.1,1.45,3.76c0.25,4.73,0.62,9.98,0.85,14.77" transform="matrix(1,0,0,1,1296,-4)" class="stroke_order_diagram--existing_path"></path><path id="pathSk2v596cnlas" kvg:type="㇑a" d="M68.55,10.39c1,1.59,1.2,2.54,1.2,3.81c0,1.27-1,15.05-1.4,18.21" transform="matrix(1,0,0,1,1296,-4)" class="stroke_order_diagram--existing_path"></path><path id="pathSk2v596cnlat" kvg:type="㇔" d="M41.52,18.33c2.04,1.96,5.28,8.08,5.79,11.13" transform="matrix(1,0,0,1,1296,-4)" class="stroke_order_diagram--existing_path"></path><path id="pathSk2v596cnlau" kvg:type="㇒" d="M84.78,14.64c0.11,0.88-0.02,1.73-0.39,2.53c-1.89,4.08-4,8.13-8.08,13.05" transform="matrix(1,0,0,1,1296,-4)" class="stroke_order_diagram--existing_path"></path><path id="pathSk2v596cnlav" kvg:type="㇐" d="M36.5,35.65c2.45,0.89,5.73,0.33,8.24-0.01c9.39-1.28,30.78-3.87,41.39-4.49c2.45-0.14,4.95-0.31,7.38,0.22" transform="matrix(1,0,0,1,1296,-4)" class="stroke_order_diagram--existing_path"></path><path id="pathSk2v596cnlaw" kvg:type="㇔" d="M50.52,38.08c1.43,1.57,3.69,6.45,4.04,8.88" transform="matrix(1,0,0,1,1296,-4)" class="stroke_order_diagram--existing_path"></path><path id="pathSk2v596cnlax" kvg:type="㇒" d="M74.53,35.39c0.03,0.33,0.13,0.88-0.05,1.34c-0.98,2.39-2.1,4.89-4.98,8.77" transform="matrix(1,0,0,1,1296,-4)" class="stroke_order_diagram--existing_path"></path><path id="pathSk2v596cnlay" kvg:type="㇐" d="M43,50.4c2.5,0.47,5.05,0.27,7.39-0.04c6.7-0.88,18.67-2.7,27.11-3.21c2.49-0.15,5.04-0.56,7.5-0.02" transform="matrix(1,0,0,1,1296,-4)" class="stroke_order_diagram--existing_path"></path><path id="pathSk2v596cnlaz" kvg:type="㇐" d="M44.5,62.65c2.62,0.47,4.5,0.33,6.63,0.06c6.17-0.78,18.74-2.09,25.99-2.86c2.28-0.24,4.62-0.22,6.88,0.27" transform="matrix(1,0,0,1,1296,-4)" class="stroke_order_diagram--existing_path"></path><path id="pathSk2v596cnlb0" kvg:type="㇐" d="M37.5,75.4c3.12,0.35,6.07,0.33,9,0.08c9.11-0.78,26.88-2.77,38.88-3.15c3.13-0.1,6.04,0.04,9.12,0.54" transform="matrix(1,0,0,1,1296,-4)" class="stroke_order_diagram--existing_path"></path><path id="pathSk2v596cnlb1" kvg:type="㇒" d="M61.78,51.75c0.47,1,0.87,2.79,0.86,4.38C62.5,71.25,57.25,90.25,36.75,98" transform="matrix(1,0,0,1,1296,-4)" class="stroke_order_diagram--existing_path"></path><path id="kvg:050d5-s14" kvg:type="㇏" d="M63.65,74.98c2.98,1.65,12.46,11.19,22,17.91c2.27,1.6,3.98,2.74,6.85,4.06" transform="matrix(1,0,0,1,1296,-4)" class="stroke_order_diagram--current_path"></path><path id="pathSk2v596cnlb3" kvg:type="㇏" d="M63.65,74.98c2.98,1.65,12.46,11.19,22,17.91c2.27,1.6,3.98,2.74,6.85,4.06" transform="matrix(1,0,0,1,1296,-4)" class="stroke_order_diagram--current_path"></path><circle cx="63.65" cy="74.98" r="8" class="stroke_order_diagram--path_start" transform="matrix(1,0,0,1,1296,-4)"></circle></svg>