<svg style="width: 1500px; height: 100px;" viewbox="0 0 1500 100"><style>
.stroke_order_diagram--outer_container {
  width: 100%;
  overflow-x: auto;
  overflow-y: hidden;
}

.stroke_order_diagram--guide_line {
  fill: none;
  stroke: #ddd;
  stroke-width: 3;
  stroke-linecap: square;
  stroke-linejoin: square;
  stroke-dasharray:8, 8;
}

.stroke_order_diagram--bounding_box {
  fill: none;
  stroke: #ddd;
  stroke-width: 4;
  stroke-linecap: square;
  stroke-linejoin: square;
}

.stroke_order_diagram--current_path {
  fill: none;
  stroke: #000;
  stroke-width: 6;
  stroke-linecap: round;
  stroke-linejoin: round;
}

.stroke_order_diagram--existing_path {
  fill: none;
  stroke: #aaa;
  stroke-width: 6;
  stroke-linecap: round;
  stroke-linejoin:round;
}

.stroke_order_diagram--path_start {
  fill: rgba(255, 0, 0, 0.7);
  stroke:none
}</style><desc>Created with Snap</desc><defs></defs><line x1="1" x2="1499" y1="1" y2="1" class="stroke_order_diagram--bounding_box"></line><line x1="1" x2="1" y1="1" y2="99" class="stroke_order_diagram--bounding_box"></line><line x1="1" x2="1499" y1="99" y2="99" class="stroke_order_diagram--bounding_box"></line><line x1="0" x2="1500" y1="50" y2="50" class="stroke_order_diagram--guide_line"></line><line x1="50" x2="50" y1="1" y2="99" class="stroke_order_diagram--guide_line"></line><line x1="99" x2="99" y1="1" y2="99" class="stroke_order_diagram--bounding_box"></line><path id="kvg:05100-s1" kvg:type="㇒" d="M31.25,19.62c0.24,1.88-0.05,2.96-0.73,4.56c-4.34,10.24-9.27,19.94-19.27,30.56" transform="matrix(1,0,0,1,-4,-4)" class="stroke_order_diagram--current_path"></path><path id="pathSk2v596cn31m2" kvg:type="㇒" d="M31.25,19.62c0.24,1.88-0.05,2.96-0.73,4.56c-4.34,10.24-9.27,19.94-19.27,30.56" transform="matrix(1,0,0,1,-4,-4)" class="stroke_order_diagram--current_path"></path><circle cx="31.25" cy="19.62" r="8" class="stroke_order_diagram--path_start" transform="matrix(1,0,0,1,-4,-4)"></circle><line x1="150" x2="150" y1="1" y2="99" class="stroke_order_diagram--guide_line"></line><line x1="199" x2="199" y1="1" y2="99" class="stroke_order_diagram--bounding_box"></line><path id="pathSk2v596cn31m5" kvg:type="㇒" d="M31.25,19.62c0.24,1.88-0.05,2.96-0.73,4.56c-4.34,10.24-9.27,19.94-19.27,30.56" transform="matrix(1,0,0,1,96,-4)" class="stroke_order_diagram--existing_path"></path><path id="kvg:05100-s2" kvg:type="㇑" d="M24.03,41.25c0.92,0.92,1.26,2.22,1.26,3.48c0,10.9-0.03,32.68-0.04,44.77c0,2.9,0,5.25,0,6.75" transform="matrix(1,0,0,1,96,-4)" class="stroke_order_diagram--current_path"></path><path id="pathSk2v596cn31m7" kvg:type="㇑" d="M24.03,41.25c0.92,0.92,1.26,2.22,1.26,3.48c0,10.9-0.03,32.68-0.04,44.77c0,2.9,0,5.25,0,6.75" transform="matrix(1,0,0,1,96,-4)" class="stroke_order_diagram--current_path"></path><circle cx="24.03" cy="41.25" r="8" class="stroke_order_diagram--path_start" transform="matrix(1,0,0,1,96,-4)"></circle><line x1="250" x2="250" y1="1" y2="99" class="stroke_order_diagram--guide_line"></line><line x1="299" x2="299" y1="1" y2="99" class="stroke_order_diagram--bounding_box"></line><path id="pathSk2v596cn31ma" kvg:type="㇒" d="M31.25,19.62c0.24,1.88-0.05,2.96-0.73,4.56c-4.34,10.24-9.27,19.94-19.27,30.56" transform="matrix(1,0,0,1,196,-4)" class="stroke_order_diagram--existing_path"></path><path id="pathSk2v596cn31mb" kvg:type="㇑" d="M24.03,41.25c0.92,0.92,1.26,2.22,1.26,3.48c0,10.9-0.03,32.68-0.04,44.77c0,2.9,0,5.25,0,6.75" transform="matrix(1,0,0,1,196,-4)" class="stroke_order_diagram--existing_path"></path><path id="kvg:05100-s3" kvg:type="㇔" d="M47.25,15.5c2.44,1.22,6.3,5.01,6.91,6.91" transform="matrix(1,0,0,1,196,-4)" class="stroke_order_diagram--current_path"></path><path id="pathSk2v596cn31md" kvg:type="㇔" d="M47.25,15.5c2.44,1.22,6.3,5.01,6.91,6.91" transform="matrix(1,0,0,1,196,-4)" class="stroke_order_diagram--current_path"></path><circle cx="47.25" cy="15.5" r="8" class="stroke_order_diagram--path_start" transform="matrix(1,0,0,1,196,-4)"></circle><line x1="350" x2="350" y1="1" y2="99" class="stroke_order_diagram--guide_line"></line><line x1="399" x2="399" y1="1" y2="99" class="stroke_order_diagram--bounding_box"></line><path id="pathSk2v596cn31mg" kvg:type="㇒" d="M31.25,19.62c0.24,1.88-0.05,2.96-0.73,4.56c-4.34,10.24-9.27,19.94-19.27,30.56" transform="matrix(1,0,0,1,296,-4)" class="stroke_order_diagram--existing_path"></path><path id="pathSk2v596cn31mh" kvg:type="㇑" d="M24.03,41.25c0.92,0.92,1.26,2.22,1.26,3.48c0,10.9-0.03,32.68-0.04,44.77c0,2.9,0,5.25,0,6.75" transform="matrix(1,0,0,1,296,-4)" class="stroke_order_diagram--existing_path"></path><path id="pathSk2v596cn31mi" kvg:type="㇔" d="M47.25,15.5c2.44,1.22,6.3,5.01,6.91,6.91" transform="matrix(1,0,0,1,296,-4)" class="stroke_order_diagram--existing_path"></path><path id="kvg:05100-s4" kvg:type="㇒" d="M75.19,11.14c0.11,0.72-0.05,1.62-0.38,2.26c-2.06,3.85-3.79,6.02-7.33,10.2" transform="matrix(1,0,0,1,296,-4)" class="stroke_order_diagram--current_path"></path><path id="pathSk2v596cn31mk" kvg:type="㇒" d="M75.19,11.14c0.11,0.72-0.05,1.62-0.38,2.26c-2.06,3.85-3.79,6.02-7.33,10.2" transform="matrix(1,0,0,1,296,-4)" class="stroke_order_diagram--current_path"></path><circle cx="75.19" cy="11.14" r="8" class="stroke_order_diagram--path_start" transform="matrix(1,0,0,1,296,-4)"></circle><line x1="450" x2="450" y1="1" y2="99" class="stroke_order_diagram--guide_line"></line><line x1="499" x2="499" y1="1" y2="99" class="stroke_order_diagram--bounding_box"></line><path id="pathSk2v596cn31mn" kvg:type="㇒" d="M31.25,19.62c0.24,1.88-0.05,2.96-0.73,4.56c-4.34,10.24-9.27,19.94-19.27,30.56" transform="matrix(1,0,0,1,396,-4)" class="stroke_order_diagram--existing_path"></path><path id="pathSk2v596cn31mo" kvg:type="㇑" d="M24.03,41.25c0.92,0.92,1.26,2.22,1.26,3.48c0,10.9-0.03,32.68-0.04,44.77c0,2.9,0,5.25,0,6.75" transform="matrix(1,0,0,1,396,-4)" class="stroke_order_diagram--existing_path"></path><path id="pathSk2v596cn31mp" kvg:type="㇔" d="M47.25,15.5c2.44,1.22,6.3,5.01,6.91,6.91" transform="matrix(1,0,0,1,396,-4)" class="stroke_order_diagram--existing_path"></path><path id="pathSk2v596cn31mq" kvg:type="㇒" d="M75.19,11.14c0.11,0.72-0.05,1.62-0.38,2.26c-2.06,3.85-3.79,6.02-7.33,10.2" transform="matrix(1,0,0,1,396,-4)" class="stroke_order_diagram--existing_path"></path><path id="kvg:05100-s5" kvg:type="㇐" d="M44.01,28.95c1.44,0.6,3.76,0.19,5.24-0.06c6.14-1.03,20.06-3.39,26.75-4.01c1.65-0.15,3.41-0.36,5.04,0.05" transform="matrix(1,0,0,1,396,-4)" class="stroke_order_diagram--current_path"></path><path id="pathSk2v596cn31ms" kvg:type="㇐" d="M44.01,28.95c1.44,0.6,3.76,0.19,5.24-0.06c6.14-1.03,20.06-3.39,26.75-4.01c1.65-0.15,3.41-0.36,5.04,0.05" transform="matrix(1,0,0,1,396,-4)" class="stroke_order_diagram--current_path"></path><circle cx="44.01" cy="28.95" r="8" class="stroke_order_diagram--path_start" transform="matrix(1,0,0,1,396,-4)"></circle><line x1="550" x2="550" y1="1" y2="99" class="stroke_order_diagram--guide_line"></line><line x1="599" x2="599" y1="1" y2="99" class="stroke_order_diagram--bounding_box"></line><path id="pathSk2v596cn31mv" kvg:type="㇒" d="M31.25,19.62c0.24,1.88-0.05,2.96-0.73,4.56c-4.34,10.24-9.27,19.94-19.27,30.56" transform="matrix(1,0,0,1,496,-4)" class="stroke_order_diagram--existing_path"></path><path id="pathSk2v596cn31mw" kvg:type="㇑" d="M24.03,41.25c0.92,0.92,1.26,2.22,1.26,3.48c0,10.9-0.03,32.68-0.04,44.77c0,2.9,0,5.25,0,6.75" transform="matrix(1,0,0,1,496,-4)" class="stroke_order_diagram--existing_path"></path><path id="pathSk2v596cn31mx" kvg:type="㇔" d="M47.25,15.5c2.44,1.22,6.3,5.01,6.91,6.91" transform="matrix(1,0,0,1,496,-4)" class="stroke_order_diagram--existing_path"></path><path id="pathSk2v596cn31my" kvg:type="㇒" d="M75.19,11.14c0.11,0.72-0.05,1.62-0.38,2.26c-2.06,3.85-3.79,6.02-7.33,10.2" transform="matrix(1,0,0,1,496,-4)" class="stroke_order_diagram--existing_path"></path><path id="pathSk2v596cn31mz" kvg:type="㇐" d="M44.01,28.95c1.44,0.6,3.76,0.19,5.24-0.06c6.14-1.03,20.06-3.39,26.75-4.01c1.65-0.15,3.41-0.36,5.04,0.05" transform="matrix(1,0,0,1,496,-4)" class="stroke_order_diagram--existing_path"></path><path id="kvg:05100-s6" kvg:type="㇑a" d="M61.07,28.4c0.83,0.83,1.09,1.85,1.09,2.99c0,0.63-0.04,8.99-0.04,13.49" transform="matrix(1,0,0,1,496,-4)" class="stroke_order_diagram--current_path"></path><path id="pathSk2v596cn31n1" kvg:type="㇑a" d="M61.07,28.4c0.83,0.83,1.09,1.85,1.09,2.99c0,0.63-0.04,8.99-0.04,13.49" transform="matrix(1,0,0,1,496,-4)" class="stroke_order_diagram--current_path"></path><circle cx="61.07" cy="28.4" r="8" class="stroke_order_diagram--path_start" transform="matrix(1,0,0,1,496,-4)"></circle><line x1="650" x2="650" y1="1" y2="99" class="stroke_order_diagram--guide_line"></line><line x1="699" x2="699" y1="1" y2="99" class="stroke_order_diagram--bounding_box"></line><path id="pathSk2v596cn31n4" kvg:type="㇒" d="M31.25,19.62c0.24,1.88-0.05,2.96-0.73,4.56c-4.34,10.24-9.27,19.94-19.27,30.56" transform="matrix(1,0,0,1,596,-4)" class="stroke_order_diagram--existing_path"></path><path id="pathSk2v596cn31n5" kvg:type="㇑" d="M24.03,41.25c0.92,0.92,1.26,2.22,1.26,3.48c0,10.9-0.03,32.68-0.04,44.77c0,2.9,0,5.25,0,6.75" transform="matrix(1,0,0,1,596,-4)" class="stroke_order_diagram--existing_path"></path><path id="pathSk2v596cn31n6" kvg:type="㇔" d="M47.25,15.5c2.44,1.22,6.3,5.01,6.91,6.91" transform="matrix(1,0,0,1,596,-4)" class="stroke_order_diagram--existing_path"></path><path id="pathSk2v596cn31n7" kvg:type="㇒" d="M75.19,11.14c0.11,0.72-0.05,1.62-0.38,2.26c-2.06,3.85-3.79,6.02-7.33,10.2" transform="matrix(1,0,0,1,596,-4)" class="stroke_order_diagram--existing_path"></path><path id="pathSk2v596cn31n8" kvg:type="㇐" d="M44.01,28.95c1.44,0.6,3.76,0.19,5.24-0.06c6.14-1.03,20.06-3.39,26.75-4.01c1.65-0.15,3.41-0.36,5.04,0.05" transform="matrix(1,0,0,1,596,-4)" class="stroke_order_diagram--existing_path"></path><path id="pathSk2v596cn31n9" kvg:type="㇑a" d="M61.07,28.4c0.83,0.83,1.09,1.85,1.09,2.99c0,0.63-0.04,8.99-0.04,13.49" transform="matrix(1,0,0,1,596,-4)" class="stroke_order_diagram--existing_path"></path><path id="kvg:05100-s7" kvg:type="㇐" d="M43.52,38.79c1.6,0.33,3.49,0.25,4.84,0.05c5.92-0.89,19.9-3.09,26.77-3.74c1.65-0.16,3.41-0.36,5.04,0.05" transform="matrix(1,0,0,1,596,-4)" class="stroke_order_diagram--current_path"></path><path id="pathSk2v596cn31nb" kvg:type="㇐" d="M43.52,38.79c1.6,0.33,3.49,0.25,4.84,0.05c5.92-0.89,19.9-3.09,26.77-3.74c1.65-0.16,3.41-0.36,5.04,0.05" transform="matrix(1,0,0,1,596,-4)" class="stroke_order_diagram--current_path"></path><circle cx="43.52" cy="38.79" r="8" class="stroke_order_diagram--path_start" transform="matrix(1,0,0,1,596,-4)"></circle><line x1="750" x2="750" y1="1" y2="99" class="stroke_order_diagram--guide_line"></line><line x1="799" x2="799" y1="1" y2="99" class="stroke_order_diagram--bounding_box"></line><path id="pathSk2v596cn31ne" kvg:type="㇒" d="M31.25,19.62c0.24,1.88-0.05,2.96-0.73,4.56c-4.34,10.24-9.27,19.94-19.27,30.56" transform="matrix(1,0,0,1,696,-4)" class="stroke_order_diagram--existing_path"></path><path id="pathSk2v596cn31nf" kvg:type="㇑" d="M24.03,41.25c0.92,0.92,1.26,2.22,1.26,3.48c0,10.9-0.03,32.68-0.04,44.77c0,2.9,0,5.25,0,6.75" transform="matrix(1,0,0,1,696,-4)" class="stroke_order_diagram--existing_path"></path><path id="pathSk2v596cn31ng" kvg:type="㇔" d="M47.25,15.5c2.44,1.22,6.3,5.01,6.91,6.91" transform="matrix(1,0,0,1,696,-4)" class="stroke_order_diagram--existing_path"></path><path id="pathSk2v596cn31nh" kvg:type="㇒" d="M75.19,11.14c0.11,0.72-0.05,1.62-0.38,2.26c-2.06,3.85-3.79,6.02-7.33,10.2" transform="matrix(1,0,0,1,696,-4)" class="stroke_order_diagram--existing_path"></path><path id="pathSk2v596cn31ni" kvg:type="㇐" d="M44.01,28.95c1.44,0.6,3.76,0.19,5.24-0.06c6.14-1.03,20.06-3.39,26.75-4.01c1.65-0.15,3.41-0.36,5.04,0.05" transform="matrix(1,0,0,1,696,-4)" class="stroke_order_diagram--existing_path"></path><path id="pathSk2v596cn31nj" kvg:type="㇑a" d="M61.07,28.4c0.83,0.83,1.09,1.85,1.09,2.99c0,0.63-0.04,8.99-0.04,13.49" transform="matrix(1,0,0,1,696,-4)" class="stroke_order_diagram--existing_path"></path><path id="pathSk2v596cn31nk" kvg:type="㇐" d="M43.52,38.79c1.6,0.33,3.49,0.25,4.84,0.05c5.92-0.89,19.9-3.09,26.77-3.74c1.65-0.16,3.41-0.36,5.04,0.05" transform="matrix(1,0,0,1,696,-4)" class="stroke_order_diagram--existing_path"></path><path id="kvg:05100-s8" kvg:type="㇐" d="M37.52,48.74c2.21,0.81,5.21,0.29,7.47-0.05c8.58-1.3,27.65-4.06,38-5.15c2.47-0.26,4.87-0.34,7.31,0.2" transform="matrix(1,0,0,1,696,-4)" class="stroke_order_diagram--current_path"></path><path id="pathSk2v596cn31nm" kvg:type="㇐" d="M37.52,48.74c2.21,0.81,5.21,0.29,7.47-0.05c8.58-1.3,27.65-4.06,38-5.15c2.47-0.26,4.87-0.34,7.31,0.2" transform="matrix(1,0,0,1,696,-4)" class="stroke_order_diagram--current_path"></path><circle cx="37.52" cy="48.74" r="8" class="stroke_order_diagram--path_start" transform="matrix(1,0,0,1,696,-4)"></circle><line x1="850" x2="850" y1="1" y2="99" class="stroke_order_diagram--guide_line"></line><line x1="899" x2="899" y1="1" y2="99" class="stroke_order_diagram--bounding_box"></line><path id="pathSk2v596cn31np" kvg:type="㇒" d="M31.25,19.62c0.24,1.88-0.05,2.96-0.73,4.56c-4.34,10.24-9.27,19.94-19.27,30.56" transform="matrix(1,0,0,1,796,-4)" class="stroke_order_diagram--existing_path"></path><path id="pathSk2v596cn31nq" kvg:type="㇑" d="M24.03,41.25c0.92,0.92,1.26,2.22,1.26,3.48c0,10.9-0.03,32.68-0.04,44.77c0,2.9,0,5.25,0,6.75" transform="matrix(1,0,0,1,796,-4)" class="stroke_order_diagram--existing_path"></path><path id="pathSk2v596cn31nr" kvg:type="㇔" d="M47.25,15.5c2.44,1.22,6.3,5.01,6.91,6.91" transform="matrix(1,0,0,1,796,-4)" class="stroke_order_diagram--existing_path"></path><path id="pathSk2v596cn31ns" kvg:type="㇒" d="M75.19,11.14c0.11,0.72-0.05,1.62-0.38,2.26c-2.06,3.85-3.79,6.02-7.33,10.2" transform="matrix(1,0,0,1,796,-4)" class="stroke_order_diagram--existing_path"></path><path id="pathSk2v596cn31nt" kvg:type="㇐" d="M44.01,28.95c1.44,0.6,3.76,0.19,5.24-0.06c6.14-1.03,20.06-3.39,26.75-4.01c1.65-0.15,3.41-0.36,5.04,0.05" transform="matrix(1,0,0,1,796,-4)" class="stroke_order_diagram--existing_path"></path><path id="pathSk2v596cn31nu" kvg:type="㇑a" d="M61.07,28.4c0.83,0.83,1.09,1.85,1.09,2.99c0,0.63-0.04,8.99-0.04,13.49" transform="matrix(1,0,0,1,796,-4)" class="stroke_order_diagram--existing_path"></path><path id="pathSk2v596cn31nv" kvg:type="㇐" d="M43.52,38.79c1.6,0.33,3.49,0.25,4.84,0.05c5.92-0.89,19.9-3.09,26.77-3.74c1.65-0.16,3.41-0.36,5.04,0.05" transform="matrix(1,0,0,1,796,-4)" class="stroke_order_diagram--existing_path"></path><path id="pathSk2v596cn31nw" kvg:type="㇐" d="M37.52,48.74c2.21,0.81,5.21,0.29,7.47-0.05c8.58-1.3,27.65-4.06,38-5.15c2.47-0.26,4.87-0.34,7.31,0.2" transform="matrix(1,0,0,1,796,-4)" class="stroke_order_diagram--existing_path"></path><path id="kvg:05100-s9" kvg:type="㇒" d="M55.25,50.75c0.16,0.98-0.44,1.82-1.14,2.6c-2.26,2.5-5.89,4.92-13.66,8.82" transform="matrix(1,0,0,1,796,-4)" class="stroke_order_diagram--current_path"></path><path id="pathSk2v596cn31ny" kvg:type="㇒" d="M55.25,50.75c0.16,0.98-0.44,1.82-1.14,2.6c-2.26,2.5-5.89,4.92-13.66,8.82" transform="matrix(1,0,0,1,796,-4)" class="stroke_order_diagram--current_path"></path><circle cx="55.25" cy="50.75" r="8" class="stroke_order_diagram--path_start" transform="matrix(1,0,0,1,796,-4)"></circle><line x1="950" x2="950" y1="1" y2="99" class="stroke_order_diagram--guide_line"></line><line x1="999" x2="999" y1="1" y2="99" class="stroke_order_diagram--bounding_box"></line><path id="pathSk2v596cn31o1" kvg:type="㇒" d="M31.25,19.62c0.24,1.88-0.05,2.96-0.73,4.56c-4.34,10.24-9.27,19.94-19.27,30.56" transform="matrix(1,0,0,1,896,-4)" class="stroke_order_diagram--existing_path"></path><path id="pathSk2v596cn31o2" kvg:type="㇑" d="M24.03,41.25c0.92,0.92,1.26,2.22,1.26,3.48c0,10.9-0.03,32.68-0.04,44.77c0,2.9,0,5.25,0,6.75" transform="matrix(1,0,0,1,896,-4)" class="stroke_order_diagram--existing_path"></path><path id="pathSk2v596cn31o3" kvg:type="㇔" d="M47.25,15.5c2.44,1.22,6.3,5.01,6.91,6.91" transform="matrix(1,0,0,1,896,-4)" class="stroke_order_diagram--existing_path"></path><path id="pathSk2v596cn31o4" kvg:type="㇒" d="M75.19,11.14c0.11,0.72-0.05,1.62-0.38,2.26c-2.06,3.85-3.79,6.02-7.33,10.2" transform="matrix(1,0,0,1,896,-4)" class="stroke_order_diagram--existing_path"></path><path id="pathSk2v596cn31o5" kvg:type="㇐" d="M44.01,28.95c1.44,0.6,3.76,0.19,5.24-0.06c6.14-1.03,20.06-3.39,26.75-4.01c1.65-0.15,3.41-0.36,5.04,0.05" transform="matrix(1,0,0,1,896,-4)" class="stroke_order_diagram--existing_path"></path><path id="pathSk2v596cn31o6" kvg:type="㇑a" d="M61.07,28.4c0.83,0.83,1.09,1.85,1.09,2.99c0,0.63-0.04,8.99-0.04,13.49" transform="matrix(1,0,0,1,896,-4)" class="stroke_order_diagram--existing_path"></path><path id="pathSk2v596cn31o7" kvg:type="㇐" d="M43.52,38.79c1.6,0.33,3.49,0.25,4.84,0.05c5.92-0.89,19.9-3.09,26.77-3.74c1.65-0.16,3.41-0.36,5.04,0.05" transform="matrix(1,0,0,1,896,-4)" class="stroke_order_diagram--existing_path"></path><path id="pathSk2v596cn31o8" kvg:type="㇐" d="M37.52,48.74c2.21,0.81,5.21,0.29,7.47-0.05c8.58-1.3,27.65-4.06,38-5.15c2.47-0.26,4.87-0.34,7.31,0.2" transform="matrix(1,0,0,1,896,-4)" class="stroke_order_diagram--existing_path"></path><path id="pathSk2v596cn31o9" kvg:type="㇒" d="M55.25,50.75c0.16,0.98-0.44,1.82-1.14,2.6c-2.26,2.5-5.89,4.92-13.66,8.82" transform="matrix(1,0,0,1,896,-4)" class="stroke_order_diagram--existing_path"></path><path id="kvg:05100-s10" kvg:type="㇐" d="M35.29,68.79c3.21,0.58,5.93,0.35,8.6-0.24c10.99-2.42,28.11-6.3,39.73-7.51c3.25-0.34,6.12-0.68,9.34-0.01" transform="matrix(1,0,0,1,896,-4)" class="stroke_order_diagram--current_path"></path><path id="pathSk2v596cn31ob" kvg:type="㇐" d="M35.29,68.79c3.21,0.58,5.93,0.35,8.6-0.24c10.99-2.42,28.11-6.3,39.73-7.51c3.25-0.34,6.12-0.68,9.34-0.01" transform="matrix(1,0,0,1,896,-4)" class="stroke_order_diagram--current_path"></path><circle cx="35.29" cy="68.79" r="8" class="stroke_order_diagram--path_start" transform="matrix(1,0,0,1,896,-4)"></circle><line x1="1050" x2="1050" y1="1" y2="99" class="stroke_order_diagram--guide_line"></line><line x1="1099" x2="1099" y1="1" y2="99" class="stroke_order_diagram--bounding_box"></line><path id="pathSk2v596cn31oe" kvg:type="㇒" d="M31.25,19.62c0.24,1.88-0.05,2.96-0.73,4.56c-4.34,10.24-9.27,19.94-19.27,30.56" transform="matrix(1,0,0,1,996,-4)" class="stroke_order_diagram--existing_path"></path><path id="pathSk2v596cn31of" kvg:type="㇑" d="M24.03,41.25c0.92,0.92,1.26,2.22,1.26,3.48c0,10.9-0.03,32.68-0.04,44.77c0,2.9,0,5.25,0,6.75" transform="matrix(1,0,0,1,996,-4)" class="stroke_order_diagram--existing_path"></path><path id="pathSk2v596cn31og" kvg:type="㇔" d="M47.25,15.5c2.44,1.22,6.3,5.01,6.91,6.91" transform="matrix(1,0,0,1,996,-4)" class="stroke_order_diagram--existing_path"></path><path id="pathSk2v596cn31oh" kvg:type="㇒" d="M75.19,11.14c0.11,0.72-0.05,1.62-0.38,2.26c-2.06,3.85-3.79,6.02-7.33,10.2" transform="matrix(1,0,0,1,996,-4)" class="stroke_order_diagram--existing_path"></path><path id="pathSk2v596cn31oi" kvg:type="㇐" d="M44.01,28.95c1.44,0.6,3.76,0.19,5.24-0.06c6.14-1.03,20.06-3.39,26.75-4.01c1.65-0.15,3.41-0.36,5.04,0.05" transform="matrix(1,0,0,1,996,-4)" class="stroke_order_diagram--existing_path"></path><path id="pathSk2v596cn31oj" kvg:type="㇑a" d="M61.07,28.4c0.83,0.83,1.09,1.85,1.09,2.99c0,0.63-0.04,8.99-0.04,13.49" transform="matrix(1,0,0,1,996,-4)" class="stroke_order_diagram--existing_path"></path><path id="pathSk2v596cn31ok" kvg:type="㇐" d="M43.52,38.79c1.6,0.33,3.49,0.25,4.84,0.05c5.92-0.89,19.9-3.09,26.77-3.74c1.65-0.16,3.41-0.36,5.04,0.05" transform="matrix(1,0,0,1,996,-4)" class="stroke_order_diagram--existing_path"></path><path id="pathSk2v596cn31ol" kvg:type="㇐" d="M37.52,48.74c2.21,0.81,5.21,0.29,7.47-0.05c8.58-1.3,27.65-4.06,38-5.15c2.47-0.26,4.87-0.34,7.31,0.2" transform="matrix(1,0,0,1,996,-4)" class="stroke_order_diagram--existing_path"></path><path id="pathSk2v596cn31om" kvg:type="㇒" d="M55.25,50.75c0.16,0.98-0.44,1.82-1.14,2.6c-2.26,2.5-5.89,4.92-13.66,8.82" transform="matrix(1,0,0,1,996,-4)" class="stroke_order_diagram--existing_path"></path><path id="pathSk2v596cn31on" kvg:type="㇐" d="M35.29,68.79c3.21,0.58,5.93,0.35,8.6-0.24c10.99-2.42,28.11-6.3,39.73-7.51c3.25-0.34,6.12-0.68,9.34-0.01" transform="matrix(1,0,0,1,996,-4)" class="stroke_order_diagram--existing_path"></path><path id="kvg:05100-s11" kvg:type="㇚" d="M52.35,59.19c0.67,0.67,1.04,1.81,1.04,3.05c0,8.72,0.04,26.82,0.04,29.78c0,7.6-4.56,1.85-5.83,0.18" transform="matrix(1,0,0,1,996,-4)" class="stroke_order_diagram--current_path"></path><path id="pathSk2v596cn31op" kvg:type="㇚" d="M52.35,59.19c0.67,0.67,1.04,1.81,1.04,3.05c0,8.72,0.04,26.82,0.04,29.78c0,7.6-4.56,1.85-5.83,0.18" transform="matrix(1,0,0,1,996,-4)" class="stroke_order_diagram--current_path"></path><circle cx="52.35" cy="59.19" r="8" class="stroke_order_diagram--path_start" transform="matrix(1,0,0,1,996,-4)"></circle><line x1="1150" x2="1150" y1="1" y2="99" class="stroke_order_diagram--guide_line"></line><line x1="1199" x2="1199" y1="1" y2="99" class="stroke_order_diagram--bounding_box"></line><path id="pathSk2v596cn31os" kvg:type="㇒" d="M31.25,19.62c0.24,1.88-0.05,2.96-0.73,4.56c-4.34,10.24-9.27,19.94-19.27,30.56" transform="matrix(1,0,0,1,1096,-4)" class="stroke_order_diagram--existing_path"></path><path id="pathSk2v596cn31ot" kvg:type="㇑" d="M24.03,41.25c0.92,0.92,1.26,2.22,1.26,3.48c0,10.9-0.03,32.68-0.04,44.77c0,2.9,0,5.25,0,6.75" transform="matrix(1,0,0,1,1096,-4)" class="stroke_order_diagram--existing_path"></path><path id="pathSk2v596cn31ou" kvg:type="㇔" d="M47.25,15.5c2.44,1.22,6.3,5.01,6.91,6.91" transform="matrix(1,0,0,1,1096,-4)" class="stroke_order_diagram--existing_path"></path><path id="pathSk2v596cn31ov" kvg:type="㇒" d="M75.19,11.14c0.11,0.72-0.05,1.62-0.38,2.26c-2.06,3.85-3.79,6.02-7.33,10.2" transform="matrix(1,0,0,1,1096,-4)" class="stroke_order_diagram--existing_path"></path><path id="pathSk2v596cn31ow" kvg:type="㇐" d="M44.01,28.95c1.44,0.6,3.76,0.19,5.24-0.06c6.14-1.03,20.06-3.39,26.75-4.01c1.65-0.15,3.41-0.36,5.04,0.05" transform="matrix(1,0,0,1,1096,-4)" class="stroke_order_diagram--existing_path"></path><path id="pathSk2v596cn31ox" kvg:type="㇑a" d="M61.07,28.4c0.83,0.83,1.09,1.85,1.09,2.99c0,0.63-0.04,8.99-0.04,13.49" transform="matrix(1,0,0,1,1096,-4)" class="stroke_order_diagram--existing_path"></path><path id="pathSk2v596cn31oy" kvg:type="㇐" d="M43.52,38.79c1.6,0.33,3.49,0.25,4.84,0.05c5.92-0.89,19.9-3.09,26.77-3.74c1.65-0.16,3.41-0.36,5.04,0.05" transform="matrix(1,0,0,1,1096,-4)" class="stroke_order_diagram--existing_path"></path><path id="pathSk2v596cn31oz" kvg:type="㇐" d="M37.52,48.74c2.21,0.81,5.21,0.29,7.47-0.05c8.58-1.3,27.65-4.06,38-5.15c2.47-0.26,4.87-0.34,7.31,0.2" transform="matrix(1,0,0,1,1096,-4)" class="stroke_order_diagram--existing_path"></path><path id="pathSk2v596cn31p0" kvg:type="㇒" d="M55.25,50.75c0.16,0.98-0.44,1.82-1.14,2.6c-2.26,2.5-5.89,4.92-13.66,8.82" transform="matrix(1,0,0,1,1096,-4)" class="stroke_order_diagram--existing_path"></path><path id="pathSk2v596cn31p1" kvg:type="㇐" d="M35.29,68.79c3.21,0.58,5.93,0.35,8.6-0.24c10.99-2.42,28.11-6.3,39.73-7.51c3.25-0.34,6.12-0.68,9.34-0.01" transform="matrix(1,0,0,1,1096,-4)" class="stroke_order_diagram--existing_path"></path><path id="pathSk2v596cn31p2" kvg:type="㇚" d="M52.35,59.19c0.67,0.67,1.04,1.81,1.04,3.05c0,8.72,0.04,26.82,0.04,29.78c0,7.6-4.56,1.85-5.83,0.18" transform="matrix(1,0,0,1,1096,-4)" class="stroke_order_diagram--existing_path"></path><path id="kvg:05100-s12" kvg:type="㇀" d="M35.75,84.67c1.04,1.04,2.16,0.99,3.94-0.16c2.93-1.89,13.18-8.64,18.96-12.41" transform="matrix(1,0,0,1,1096,-4)" class="stroke_order_diagram--current_path"></path><path id="pathSk2v596cn31p4" kvg:type="㇀" d="M35.75,84.67c1.04,1.04,2.16,0.99,3.94-0.16c2.93-1.89,13.18-8.64,18.96-12.41" transform="matrix(1,0,0,1,1096,-4)" class="stroke_order_diagram--current_path"></path><circle cx="35.75" cy="84.67" r="8" class="stroke_order_diagram--path_start" transform="matrix(1,0,0,1,1096,-4)"></circle><line x1="1250" x2="1250" y1="1" y2="99" class="stroke_order_diagram--guide_line"></line><line x1="1299" x2="1299" y1="1" y2="99" class="stroke_order_diagram--bounding_box"></line><path id="pathSk2v596cn31p7" kvg:type="㇒" d="M31.25,19.62c0.24,1.88-0.05,2.96-0.73,4.56c-4.34,10.24-9.27,19.94-19.27,30.56" transform="matrix(1,0,0,1,1196,-4)" class="stroke_order_diagram--existing_path"></path><path id="pathSk2v596cn31p8" kvg:type="㇑" d="M24.03,41.25c0.92,0.92,1.26,2.22,1.26,3.48c0,10.9-0.03,32.68-0.04,44.77c0,2.9,0,5.25,0,6.75" transform="matrix(1,0,0,1,1196,-4)" class="stroke_order_diagram--existing_path"></path><path id="pathSk2v596cn31p9" kvg:type="㇔" d="M47.25,15.5c2.44,1.22,6.3,5.01,6.91,6.91" transform="matrix(1,0,0,1,1196,-4)" class="stroke_order_diagram--existing_path"></path><path id="pathSk2v596cn31pa" kvg:type="㇒" d="M75.19,11.14c0.11,0.72-0.05,1.62-0.38,2.26c-2.06,3.85-3.79,6.02-7.33,10.2" transform="matrix(1,0,0,1,1196,-4)" class="stroke_order_diagram--existing_path"></path><path id="pathSk2v596cn31pb" kvg:type="㇐" d="M44.01,28.95c1.44,0.6,3.76,0.19,5.24-0.06c6.14-1.03,20.06-3.39,26.75-4.01c1.65-0.15,3.41-0.36,5.04,0.05" transform="matrix(1,0,0,1,1196,-4)" class="stroke_order_diagram--existing_path"></path><path id="pathSk2v596cn31pc" kvg:type="㇑a" d="M61.07,28.4c0.83,0.83,1.09,1.85,1.09,2.99c0,0.63-0.04,8.99-0.04,13.49" transform="matrix(1,0,0,1,1196,-4)" class="stroke_order_diagram--existing_path"></path><path id="pathSk2v596cn31pd" kvg:type="㇐" d="M43.52,38.79c1.6,0.33,3.49,0.25,4.84,0.05c5.92-0.89,19.9-3.09,26.77-3.74c1.65-0.16,3.41-0.36,5.04,0.05" transform="matrix(1,0,0,1,1196,-4)" class="stroke_order_diagram--existing_path"></path><path id="pathSk2v596cn31pe" kvg:type="㇐" d="M37.52,48.74c2.21,0.81,5.21,0.29,7.47-0.05c8.58-1.3,27.65-4.06,38-5.15c2.47-0.26,4.87-0.34,7.31,0.2" transform="matrix(1,0,0,1,1196,-4)" class="stroke_order_diagram--existing_path"></path><path id="pathSk2v596cn31pf" kvg:type="㇒" d="M55.25,50.75c0.16,0.98-0.44,1.82-1.14,2.6c-2.26,2.5-5.89,4.92-13.66,8.82" transform="matrix(1,0,0,1,1196,-4)" class="stroke_order_diagram--existing_path"></path><path id="pathSk2v596cn31pg" kvg:type="㇐" d="M35.29,68.79c3.21,0.58,5.93,0.35,8.6-0.24c10.99-2.42,28.11-6.3,39.73-7.51c3.25-0.34,6.12-0.68,9.34-0.01" transform="matrix(1,0,0,1,1196,-4)" class="stroke_order_diagram--existing_path"></path><path id="pathSk2v596cn31ph" kvg:type="㇚" d="M52.35,59.19c0.67,0.67,1.04,1.81,1.04,3.05c0,8.72,0.04,26.82,0.04,29.78c0,7.6-4.56,1.85-5.83,0.18" transform="matrix(1,0,0,1,1196,-4)" class="stroke_order_diagram--existing_path"></path><path id="pathSk2v596cn31pi" kvg:type="㇀" d="M35.75,84.67c1.04,1.04,2.16,0.99,3.94-0.16c2.93-1.89,13.18-8.64,18.96-12.41" transform="matrix(1,0,0,1,1196,-4)" class="stroke_order_diagram--existing_path"></path><path id="kvg:05100-s13" kvg:type="㇂" d="M65.93,50.45c1.12,1.06,1.59,2.37,1.99,4.63c3.46,19.68,9.83,29.68,21.96,39.18c6.1,4.78,7.62,3.25,5.79-4.7" transform="matrix(1,0,0,1,1196,-4)" class="stroke_order_diagram--current_path"></path><path id="pathSk2v596cn31pk" kvg:type="㇂" d="M65.93,50.45c1.12,1.06,1.59,2.37,1.99,4.63c3.46,19.68,9.83,29.68,21.96,39.18c6.1,4.78,7.62,3.25,5.79-4.7" transform="matrix(1,0,0,1,1196,-4)" class="stroke_order_diagram--current_path"></path><circle cx="65.93" cy="50.45" r="8" class="stroke_order_diagram--path_start" transform="matrix(1,0,0,1,1196,-4)"></circle><line x1="1350" x2="1350" y1="1" y2="99" class="stroke_order_diagram--guide_line"></line><line x1="1399" x2="1399" y1="1" y2="99" class="stroke_order_diagram--bounding_box"></line><path id="pathSk2v596cn31pn" kvg:type="㇒" d="M31.25,19.62c0.24,1.88-0.05,2.96-0.73,4.56c-4.34,10.24-9.27,19.94-19.27,30.56" transform="matrix(1,0,0,1,1296,-4)" class="stroke_order_diagram--existing_path"></path><path id="pathSk2v596cn31po" kvg:type="㇑" d="M24.03,41.25c0.92,0.92,1.26,2.22,1.26,3.48c0,10.9-0.03,32.68-0.04,44.77c0,2.9,0,5.25,0,6.75" transform="matrix(1,0,0,1,1296,-4)" class="stroke_order_diagram--existing_path"></path><path id="pathSk2v596cn31pp" kvg:type="㇔" d="M47.25,15.5c2.44,1.22,6.3,5.01,6.91,6.91" transform="matrix(1,0,0,1,1296,-4)" class="stroke_order_diagram--existing_path"></path><path id="pathSk2v596cn31pq" kvg:type="㇒" d="M75.19,11.14c0.11,0.72-0.05,1.62-0.38,2.26c-2.06,3.85-3.79,6.02-7.33,10.2" transform="matrix(1,0,0,1,1296,-4)" class="stroke_order_diagram--existing_path"></path><path id="pathSk2v596cn31pr" kvg:type="㇐" d="M44.01,28.95c1.44,0.6,3.76,0.19,5.24-0.06c6.14-1.03,20.06-3.39,26.75-4.01c1.65-0.15,3.41-0.36,5.04,0.05" transform="matrix(1,0,0,1,1296,-4)" class="stroke_order_diagram--existing_path"></path><path id="pathSk2v596cn31ps" kvg:type="㇑a" d="M61.07,28.4c0.83,0.83,1.09,1.85,1.09,2.99c0,0.63-0.04,8.99-0.04,13.49" transform="matrix(1,0,0,1,1296,-4)" class="stroke_order_diagram--existing_path"></path><path id="pathSk2v596cn31pt" kvg:type="㇐" d="M43.52,38.79c1.6,0.33,3.49,0.25,4.84,0.05c5.92-0.89,19.9-3.09,26.77-3.74c1.65-0.16,3.41-0.36,5.04,0.05" transform="matrix(1,0,0,1,1296,-4)" class="stroke_order_diagram--existing_path"></path><path id="pathSk2v596cn31pu" kvg:type="㇐" d="M37.52,48.74c2.21,0.81,5.21,0.29,7.47-0.05c8.58-1.3,27.65-4.06,38-5.15c2.47-0.26,4.87-0.34,7.31,0.2" transform="matrix(1,0,0,1,1296,-4)" class="stroke_order_diagram--existing_path"></path><path id="pathSk2v596cn31pv" kvg:type="㇒" d="M55.25,50.75c0.16,0.98-0.44,1.82-1.14,2.6c-2.26,2.5-5.89,4.92-13.66,8.82" transform="matrix(1,0,0,1,1296,-4)" class="stroke_order_diagram--existing_path"></path><path id="pathSk2v596cn31pw" kvg:type="㇐" d="M35.29,68.79c3.21,0.58,5.93,0.35,8.6-0.24c10.99-2.42,28.11-6.3,39.73-7.51c3.25-0.34,6.12-0.68,9.34-0.01" transform="matrix(1,0,0,1,1296,-4)" class="stroke_order_diagram--existing_path"></path><path id="pathSk2v596cn31px" kvg:type="㇚" d="M52.35,59.19c0.67,0.67,1.04,1.81,1.04,3.05c0,8.72,0.04,26.82,0.04,29.78c0,7.6-4.56,1.85-5.83,0.18" transform="matrix(1,0,0,1,1296,-4)" class="stroke_order_diagram--existing_path"></path><path id="pathSk2v596cn31py" kvg:type="㇀" d="M35.75,84.67c1.04,1.04,2.16,0.99,3.94-0.16c2.93-1.89,13.18-8.64,18.96-12.41" transform="matrix(1,0,0,1,1296,-4)" class="stroke_order_diagram--existing_path"></path><path id="pathSk2v596cn31pz" kvg:type="㇂" d="M65.93,50.45c1.12,1.06,1.59,2.37,1.99,4.63c3.46,19.68,9.83,29.68,21.96,39.18c6.1,4.78,7.62,3.25,5.79-4.7" transform="matrix(1,0,0,1,1296,-4)" class="stroke_order_diagram--existing_path"></path><path id="kvg:05100-s14" kvg:type="㇒" d="M85.5,67.77c0,0.86-0.27,1.61-0.63,2.31c-3.37,6.55-10.34,12.85-23.12,18.68" transform="matrix(1,0,0,1,1296,-4)" class="stroke_order_diagram--current_path"></path><path id="pathSk2v596cn31q1" kvg:type="㇒" d="M85.5,67.77c0,0.86-0.27,1.61-0.63,2.31c-3.37,6.55-10.34,12.85-23.12,18.68" transform="matrix(1,0,0,1,1296,-4)" class="stroke_order_diagram--current_path"></path><circle cx="85.5" cy="67.77" r="8" class="stroke_order_diagram--path_start" transform="matrix(1,0,0,1,1296,-4)"></circle><line x1="1450" x2="1450" y1="1" y2="99" class="stroke_order_diagram--guide_line"></line><line x1="1499" x2="1499" y1="1" y2="99" class="stroke_order_diagram--bounding_box"></line><path id="pathSk2v596cn31q4" kvg:type="㇒" d="M31.25,19.62c0.24,1.88-0.05,2.96-0.73,4.56c-4.34,10.24-9.27,19.94-19.27,30.56" transform="matrix(1,0,0,1,1396,-4)" class="stroke_order_diagram--existing_path"></path><path id="pathSk2v596cn31q5" kvg:type="㇑" d="M24.03,41.25c0.92,0.92,1.26,2.22,1.26,3.48c0,10.9-0.03,32.68-0.04,44.77c0,2.9,0,5.25,0,6.75" transform="matrix(1,0,0,1,1396,-4)" class="stroke_order_diagram--existing_path"></path><path id="pathSk2v596cn31q6" kvg:type="㇔" d="M47.25,15.5c2.44,1.22,6.3,5.01,6.91,6.91" transform="matrix(1,0,0,1,1396,-4)" class="stroke_order_diagram--existing_path"></path><path id="pathSk2v596cn31q7" kvg:type="㇒" d="M75.19,11.14c0.11,0.72-0.05,1.62-0.38,2.26c-2.06,3.85-3.79,6.02-7.33,10.2" transform="matrix(1,0,0,1,1396,-4)" class="stroke_order_diagram--existing_path"></path><path id="pathSk2v596cn31q8" kvg:type="㇐" d="M44.01,28.95c1.44,0.6,3.76,0.19,5.24-0.06c6.14-1.03,20.06-3.39,26.75-4.01c1.65-0.15,3.41-0.36,5.04,0.05" transform="matrix(1,0,0,1,1396,-4)" class="stroke_order_diagram--existing_path"></path><path id="pathSk2v596cn31q9" kvg:type="㇑a" d="M61.07,28.4c0.83,0.83,1.09,1.85,1.09,2.99c0,0.63-0.04,8.99-0.04,13.49" transform="matrix(1,0,0,1,1396,-4)" class="stroke_order_diagram--existing_path"></path><path id="pathSk2v596cn31qa" kvg:type="㇐" d="M43.52,38.79c1.6,0.33,3.49,0.25,4.84,0.05c5.92-0.89,19.9-3.09,26.77-3.74c1.65-0.16,3.41-0.36,5.04,0.05" transform="matrix(1,0,0,1,1396,-4)" class="stroke_order_diagram--existing_path"></path><path id="pathSk2v596cn31qb" kvg:type="㇐" d="M37.52,48.74c2.21,0.81,5.21,0.29,7.47-0.05c8.58-1.3,27.65-4.06,38-5.15c2.47-0.26,4.87-0.34,7.31,0.2" transform="matrix(1,0,0,1,1396,-4)" class="stroke_order_diagram--existing_path"></path><path id="pathSk2v596cn31qc" kvg:type="㇒" d="M55.25,50.75c0.16,0.98-0.44,1.82-1.14,2.6c-2.26,2.5-5.89,4.92-13.66,8.82" transform="matrix(1,0,0,1,1396,-4)" class="stroke_order_diagram--existing_path"></path><path id="pathSk2v596cn31qd" kvg:type="㇐" d="M35.29,68.79c3.21,0.58,5.93,0.35,8.6-0.24c10.99-2.42,28.11-6.3,39.73-7.51c3.25-0.34,6.12-0.68,9.34-0.01" transform="matrix(1,0,0,1,1396,-4)" class="stroke_order_diagram--existing_path"></path><path id="pathSk2v596cn31qe" kvg:type="㇚" d="M52.35,59.19c0.67,0.67,1.04,1.81,1.04,3.05c0,8.72,0.04,26.82,0.04,29.78c0,7.6-4.56,1.85-5.83,0.18" transform="matrix(1,0,0,1,1396,-4)" class="stroke_order_diagram--existing_path"></path><path id="pathSk2v596cn31qf" kvg:type="㇀" d="M35.75,84.67c1.04,1.04,2.16,0.99,3.94-0.16c2.93-1.89,13.18-8.64,18.96-12.41" transform="matrix(1,0,0,1,1396,-4)" class="stroke_order_diagram--existing_path"></path><path id="pathSk2v596cn31qg" kvg:type="㇂" d="M65.93,50.45c1.12,1.06,1.59,2.37,1.99,4.63c3.46,19.68,9.83,29.68,21.96,39.18c6.1,4.78,7.62,3.25,5.79-4.7" transform="matrix(1,0,0,1,1396,-4)" class="stroke_order_diagram--existing_path"></path><path id="pathSk2v596cn31qh" kvg:type="㇒" d="M85.5,67.77c0,0.86-0.27,1.61-0.63,2.31c-3.37,6.55-10.34,12.85-23.12,18.68" transform="matrix(1,0,0,1,1396,-4)" class="stroke_order_diagram--existing_path"></path><path id="kvg:05100-s15" kvg:type="㇔" d="M77.5,49.25c1.98,1.14,5.14,3.76,6.07,5.72" transform="matrix(1,0,0,1,1396,-4)" class="stroke_order_diagram--current_path"></path><path id="pathSk2v596cn31qj" kvg:type="㇔" d="M77.5,49.25c1.98,1.14,5.14,3.76,6.07,5.72" transform="matrix(1,0,0,1,1396,-4)" class="stroke_order_diagram--current_path"></path><circle cx="77.5" cy="49.25" r="8" class="stroke_order_diagram--path_start" transform="matrix(1,0,0,1,1396,-4)"></circle></svg>