<svg style="width: 400px; height: 100px;" viewbox="0 0 400 100"><style>
.stroke_order_diagram--outer_container {
  width: 100%;
  overflow-x: auto;
  overflow-y: hidden;
}

.stroke_order_diagram--guide_line {
  fill: none;
  stroke: #ddd;
  stroke-width: 3;
  stroke-linecap: square;
  stroke-linejoin: square;
  stroke-dasharray:8, 8;
}

.stroke_order_diagram--bounding_box {
  fill: none;
  stroke: #ddd;
  stroke-width: 4;
  stroke-linecap: square;
  stroke-linejoin: square;
}

.stroke_order_diagram--current_path {
  fill: none;
  stroke: #000;
  stroke-width: 6;
  stroke-linecap: round;
  stroke-linejoin: round;
}

.stroke_order_diagram--existing_path {
  fill: none;
  stroke: #aaa;
  stroke-width: 6;
  stroke-linecap: round;
  stroke-linejoin:round;
}

.stroke_order_diagram--path_start {
  fill: rgba(255, 0, 0, 0.7);
  stroke:none
}</style><desc>Created with Snap</desc><defs></defs><line x1="1" x2="399" y1="1" y2="1" class="stroke_order_diagram--bounding_box"></line><line x1="1" x2="1" y1="1" y2="99" class="stroke_order_diagram--bounding_box"></line><line x1="1" x2="399" y1="99" y2="99" class="stroke_order_diagram--bounding_box"></line><line x1="0" x2="400" y1="50" y2="50" class="stroke_order_diagram--guide_line"></line><line x1="50" x2="50" y1="1" y2="99" class="stroke_order_diagram--guide_line"></line><line x1="99" x2="99" y1="1" y2="99" class="stroke_order_diagram--bounding_box"></line><path id="kvg:0516d-s1" kvg:type="㇑a" d="M51.87,17.5c1.78,1.78,2.71,3.48,2.71,6.5c0,6.46,0.12,9.16,0.12,14.35" transform="matrix(1,0,0,1,-4,-4)" class="stroke_order_diagram--current_path"></path><path id="pathSk2v596cnei" kvg:type="㇑a" d="M51.87,17.5c1.78,1.78,2.71,3.48,2.71,6.5c0,6.46,0.12,9.16,0.12,14.35" transform="matrix(1,0,0,1,-4,-4)" class="stroke_order_diagram--current_path"></path><circle cx="51.87" cy="17.5" r="8" class="stroke_order_diagram--path_start" transform="matrix(1,0,0,1,-4,-4)"></circle><line x1="150" x2="150" y1="1" y2="99" class="stroke_order_diagram--guide_line"></line><line x1="199" x2="199" y1="1" y2="99" class="stroke_order_diagram--bounding_box"></line><path id="pathSk2v596cnel" kvg:type="㇑a" d="M51.87,17.5c1.78,1.78,2.71,3.48,2.71,6.5c0,6.46,0.12,9.16,0.12,14.35" transform="matrix(1,0,0,1,96,-4)" class="stroke_order_diagram--existing_path"></path><path id="kvg:0516d-s2" kvg:type="㇐" d="M13.5,42.13c3.27,0.74,7.11,0.89,9.93,0.64c21.56-1.9,41.78-5.02,61.41-5.47c4.8-0.11,7.49,0.31,11.06,1.07" transform="matrix(1,0,0,1,96,-4)" class="stroke_order_diagram--current_path"></path><path id="pathSk2v596cnen" kvg:type="㇐" d="M13.5,42.13c3.27,0.74,7.11,0.89,9.93,0.64c21.56-1.9,41.78-5.02,61.41-5.47c4.8-0.11,7.49,0.31,11.06,1.07" transform="matrix(1,0,0,1,96,-4)" class="stroke_order_diagram--current_path"></path><circle cx="13.5" cy="42.13" r="8" class="stroke_order_diagram--path_start" transform="matrix(1,0,0,1,96,-4)"></circle><line x1="250" x2="250" y1="1" y2="99" class="stroke_order_diagram--guide_line"></line><line x1="299" x2="299" y1="1" y2="99" class="stroke_order_diagram--bounding_box"></line><path id="pathSk2v596cneq" kvg:type="㇑a" d="M51.87,17.5c1.78,1.78,2.71,3.48,2.71,6.5c0,6.46,0.12,9.16,0.12,14.35" transform="matrix(1,0,0,1,196,-4)" class="stroke_order_diagram--existing_path"></path><path id="pathSk2v596cner" kvg:type="㇐" d="M13.5,42.13c3.27,0.74,7.11,0.89,9.93,0.64c21.56-1.9,41.78-5.02,61.41-5.47c4.8-0.11,7.49,0.31,11.06,1.07" transform="matrix(1,0,0,1,196,-4)" class="stroke_order_diagram--existing_path"></path><path id="kvg:0516d-s3" kvg:type="㇒" d="M38.11,58.6c0.51,1.37,0.42,3.67-0.49,5.29C33.38,71.38,24,82.38,15.41,88.75" transform="matrix(1,0,0,1,196,-4)" class="stroke_order_diagram--current_path"></path><path id="pathSk2v596cnet" kvg:type="㇒" d="M38.11,58.6c0.51,1.37,0.42,3.67-0.49,5.29C33.38,71.38,24,82.38,15.41,88.75" transform="matrix(1,0,0,1,196,-4)" class="stroke_order_diagram--current_path"></path><circle cx="38.11" cy="58.6" r="8" class="stroke_order_diagram--path_start" transform="matrix(1,0,0,1,196,-4)"></circle><line x1="350" x2="350" y1="1" y2="99" class="stroke_order_diagram--guide_line"></line><line x1="399" x2="399" y1="1" y2="99" class="stroke_order_diagram--bounding_box"></line><path id="pathSk2v596cnew" kvg:type="㇑a" d="M51.87,17.5c1.78,1.78,2.71,3.48,2.71,6.5c0,6.46,0.12,9.16,0.12,14.35" transform="matrix(1,0,0,1,296,-4)" class="stroke_order_diagram--existing_path"></path><path id="pathSk2v596cnex" kvg:type="㇐" d="M13.5,42.13c3.27,0.74,7.11,0.89,9.93,0.64c21.56-1.9,41.78-5.02,61.41-5.47c4.8-0.11,7.49,0.31,11.06,1.07" transform="matrix(1,0,0,1,296,-4)" class="stroke_order_diagram--existing_path"></path><path id="pathSk2v596cney" kvg:type="㇒" d="M38.11,58.6c0.51,1.37,0.42,3.67-0.49,5.29C33.38,71.38,24,82.38,15.41,88.75" transform="matrix(1,0,0,1,296,-4)" class="stroke_order_diagram--existing_path"></path><path id="kvg:0516d-s4" kvg:type="㇔/㇏" d="M70.16,59.92c9.96,8.61,18.18,18.54,23.16,28.99" transform="matrix(1,0,0,1,296,-4)" class="stroke_order_diagram--current_path"></path><path id="pathSk2v596cnf0" kvg:type="㇔/㇏" d="M70.16,59.92c9.96,8.61,18.18,18.54,23.16,28.99" transform="matrix(1,0,0,1,296,-4)" class="stroke_order_diagram--current_path"></path><circle cx="70.16" cy="59.92" r="8" class="stroke_order_diagram--path_start" transform="matrix(1,0,0,1,296,-4)"></circle></svg>