<svg style="width: 400px; height: 100px;" viewbox="0 0 400 100"><style>
.stroke_order_diagram--outer_container {
  width: 100%;
  overflow-x: auto;
  overflow-y: hidden;
}

.stroke_order_diagram--guide_line {
  fill: none;
  stroke: #ddd;
  stroke-width: 3;
  stroke-linecap: square;
  stroke-linejoin: square;
  stroke-dasharray:8, 8;
}

.stroke_order_diagram--bounding_box {
  fill: none;
  stroke: #ddd;
  stroke-width: 4;
  stroke-linecap: square;
  stroke-linejoin: square;
}

.stroke_order_diagram--current_path {
  fill: none;
  stroke: #000;
  stroke-width: 6;
  stroke-linecap: round;
  stroke-linejoin: round;
}

.stroke_order_diagram--existing_path {
  fill: none;
  stroke: #aaa;
  stroke-width: 6;
  stroke-linecap: round;
  stroke-linejoin:round;
}

.stroke_order_diagram--path_start {
  fill: rgba(255, 0, 0, 0.7);
  stroke:none
}</style><desc>Created with Snap</desc><defs></defs><line x1="1" x2="399" y1="1" y2="1" class="stroke_order_diagram--bounding_box"></line><line x1="1" x2="1" y1="1" y2="99" class="stroke_order_diagram--bounding_box"></line><line x1="1" x2="399" y1="99" y2="99" class="stroke_order_diagram--bounding_box"></line><line x1="0" x2="400" y1="50" y2="50" class="stroke_order_diagram--guide_line"></line><line x1="50" x2="50" y1="1" y2="99" class="stroke_order_diagram--guide_line"></line><line x1="99" x2="99" y1="1" y2="99" class="stroke_order_diagram--bounding_box"></line><path id="kvg:05185-s1" kvg:type="㇑" d="M22.54,33.27c0.96,1.3,1.27,2.79,1.27,5.15c0,4.81-0.05,33.43,0.03,47.33c0.02,3.68,0.04,6.29,0.04,7.11" transform="matrix(1,0,0,1,-4,-4)" class="stroke_order_diagram--current_path"></path><path id="pathSk2v596cn19z" kvg:type="㇑" d="M22.54,33.27c0.96,1.3,1.27,2.79,1.27,5.15c0,4.81-0.05,33.43,0.03,47.33c0.02,3.68,0.04,6.29,0.04,7.11" transform="matrix(1,0,0,1,-4,-4)" class="stroke_order_diagram--current_path"></path><circle cx="22.54" cy="33.27" r="8" class="stroke_order_diagram--path_start" transform="matrix(1,0,0,1,-4,-4)"></circle><line x1="150" x2="150" y1="1" y2="99" class="stroke_order_diagram--guide_line"></line><line x1="199" x2="199" y1="1" y2="99" class="stroke_order_diagram--bounding_box"></line><path id="pathSk2v596cn1a2" kvg:type="㇑" d="M22.54,33.27c0.96,1.3,1.27,2.79,1.27,5.15c0,4.81-0.05,33.43,0.03,47.33c0.02,3.68,0.04,6.29,0.04,7.11" transform="matrix(1,0,0,1,96,-4)" class="stroke_order_diagram--existing_path"></path><path id="kvg:05185-s2" kvg:type="㇆a" d="M24.5,35.25c15.76-1.46,57.65-5.15,59.14-5.15c3.11,0,5.42,1.9,5.42,6.05c0,1.91-0.93,42.61-1.51,54.43c-0.51,10.41-6.79,2.92-9.19,0.54" transform="matrix(1,0,0,1,96,-4)" class="stroke_order_diagram--current_path"></path><path id="pathSk2v596cn1a4" kvg:type="㇆a" d="M24.5,35.25c15.76-1.46,57.65-5.15,59.14-5.15c3.11,0,5.42,1.9,5.42,6.05c0,1.91-0.93,42.61-1.51,54.43c-0.51,10.41-6.79,2.92-9.19,0.54" transform="matrix(1,0,0,1,96,-4)" class="stroke_order_diagram--current_path"></path><circle cx="24.5" cy="35.25" r="8" class="stroke_order_diagram--path_start" transform="matrix(1,0,0,1,96,-4)"></circle><line x1="250" x2="250" y1="1" y2="99" class="stroke_order_diagram--guide_line"></line><line x1="299" x2="299" y1="1" y2="99" class="stroke_order_diagram--bounding_box"></line><path id="pathSk2v596cn1a7" kvg:type="㇑" d="M22.54,33.27c0.96,1.3,1.27,2.79,1.27,5.15c0,4.81-0.05,33.43,0.03,47.33c0.02,3.68,0.04,6.29,0.04,7.11" transform="matrix(1,0,0,1,196,-4)" class="stroke_order_diagram--existing_path"></path><path id="pathSk2v596cn1a8" kvg:type="㇆a" d="M24.5,35.25c15.76-1.46,57.65-5.15,59.14-5.15c3.11,0,5.42,1.9,5.42,6.05c0,1.91-0.93,42.61-1.51,54.43c-0.51,10.41-6.79,2.92-9.19,0.54" transform="matrix(1,0,0,1,196,-4)" class="stroke_order_diagram--existing_path"></path><path id="kvg:05185-s3" kvg:type="㇒" d="M53.71,11.88c0.77,0.76,1.65,2.41,1.64,4.49C55.25,36.5,50.5,59.5,29.64,72.9" transform="matrix(1,0,0,1,196,-4)" class="stroke_order_diagram--current_path"></path><path id="pathSk2v596cn1aa" kvg:type="㇒" d="M53.71,11.88c0.77,0.76,1.65,2.41,1.64,4.49C55.25,36.5,50.5,59.5,29.64,72.9" transform="matrix(1,0,0,1,196,-4)" class="stroke_order_diagram--current_path"></path><circle cx="53.71" cy="11.88" r="8" class="stroke_order_diagram--path_start" transform="matrix(1,0,0,1,196,-4)"></circle><line x1="350" x2="350" y1="1" y2="99" class="stroke_order_diagram--guide_line"></line><line x1="399" x2="399" y1="1" y2="99" class="stroke_order_diagram--bounding_box"></line><path id="pathSk2v596cn1ad" kvg:type="㇑" d="M22.54,33.27c0.96,1.3,1.27,2.79,1.27,5.15c0,4.81-0.05,33.43,0.03,47.33c0.02,3.68,0.04,6.29,0.04,7.11" transform="matrix(1,0,0,1,296,-4)" class="stroke_order_diagram--existing_path"></path><path id="pathSk2v596cn1ae" kvg:type="㇆a" d="M24.5,35.25c15.76-1.46,57.65-5.15,59.14-5.15c3.11,0,5.42,1.9,5.42,6.05c0,1.91-0.93,42.61-1.51,54.43c-0.51,10.41-6.79,2.92-9.19,0.54" transform="matrix(1,0,0,1,296,-4)" class="stroke_order_diagram--existing_path"></path><path id="pathSk2v596cn1af" kvg:type="㇒" d="M53.71,11.88c0.77,0.76,1.65,2.41,1.64,4.49C55.25,36.5,50.5,59.5,29.64,72.9" transform="matrix(1,0,0,1,296,-4)" class="stroke_order_diagram--existing_path"></path><path id="kvg:05185-s4" kvg:type="㇔/㇏" d="M55.5,45.5c7.7,3.74,19.88,15.39,21.81,21.22" transform="matrix(1,0,0,1,296,-4)" class="stroke_order_diagram--current_path"></path><path id="pathSk2v596cn1ah" kvg:type="㇔/㇏" d="M55.5,45.5c7.7,3.74,19.88,15.39,21.81,21.22" transform="matrix(1,0,0,1,296,-4)" class="stroke_order_diagram--current_path"></path><circle cx="55.5" cy="45.5" r="8" class="stroke_order_diagram--path_start" transform="matrix(1,0,0,1,296,-4)"></circle></svg>