<svg style="width: 400px; height: 100px;" viewbox="0 0 400 100"><style>
.stroke_order_diagram--outer_container {
  width: 100%;
  overflow-x: auto;
  overflow-y: hidden;
}

.stroke_order_diagram--guide_line {
  fill: none;
  stroke: #ddd;
  stroke-width: 3;
  stroke-linecap: square;
  stroke-linejoin: square;
  stroke-dasharray:8, 8;
}

.stroke_order_diagram--bounding_box {
  fill: none;
  stroke: #ddd;
  stroke-width: 4;
  stroke-linecap: square;
  stroke-linejoin: square;
}

.stroke_order_diagram--current_path {
  fill: none;
  stroke: #000;
  stroke-width: 6;
  stroke-linecap: round;
  stroke-linejoin: round;
}

.stroke_order_diagram--existing_path {
  fill: none;
  stroke: #aaa;
  stroke-width: 6;
  stroke-linecap: round;
  stroke-linejoin:round;
}

.stroke_order_diagram--path_start {
  fill: rgba(255, 0, 0, 0.7);
  stroke:none
}</style><desc>Created with Snap</desc><defs></defs><line x1="1" x2="399" y1="1" y2="1" class="stroke_order_diagram--bounding_box"></line><line x1="1" x2="1" y1="1" y2="99" class="stroke_order_diagram--bounding_box"></line><line x1="1" x2="399" y1="99" y2="99" class="stroke_order_diagram--bounding_box"></line><line x1="0" x2="400" y1="50" y2="50" class="stroke_order_diagram--guide_line"></line><line x1="50" x2="50" y1="1" y2="99" class="stroke_order_diagram--guide_line"></line><line x1="99" x2="99" y1="1" y2="99" class="stroke_order_diagram--bounding_box"></line><path id="kvg:05197-s1" kvg:type="㇔" d="M22.41,21.19c-0.13,5.71-2.54,17.94-4.66,24.06" transform="matrix(1,0,0,1,-4,-4)" class="stroke_order_diagram--current_path"></path><path id="pathSk2v596cnxid" kvg:type="㇔" d="M22.41,21.19c-0.13,5.71-2.54,17.94-4.66,24.06" transform="matrix(1,0,0,1,-4,-4)" class="stroke_order_diagram--current_path"></path><circle cx="22.41" cy="21.19" r="8" class="stroke_order_diagram--path_start" transform="matrix(1,0,0,1,-4,-4)"></circle><line x1="150" x2="150" y1="1" y2="99" class="stroke_order_diagram--guide_line"></line><line x1="199" x2="199" y1="1" y2="99" class="stroke_order_diagram--bounding_box"></line><path id="pathSk2v596cnxig" kvg:type="㇔" d="M22.41,21.19c-0.13,5.71-2.54,17.94-4.66,24.06" transform="matrix(1,0,0,1,96,-4)" class="stroke_order_diagram--existing_path"></path><path id="kvg:05197-s2" kvg:type="㇖b" d="M22.97,25.5c17.4-2.25,39.03-7.38,60.22-7.75c12.05-0.21,3.56,7.5-0.94,11.25" transform="matrix(1,0,0,1,96,-4)" class="stroke_order_diagram--current_path"></path><path id="pathSk2v596cnxii" kvg:type="㇖b" d="M22.97,25.5c17.4-2.25,39.03-7.38,60.22-7.75c12.05-0.21,3.56,7.5-0.94,11.25" transform="matrix(1,0,0,1,96,-4)" class="stroke_order_diagram--current_path"></path><circle cx="22.97" cy="25.5" r="8" class="stroke_order_diagram--path_start" transform="matrix(1,0,0,1,96,-4)"></circle><line x1="250" x2="250" y1="1" y2="99" class="stroke_order_diagram--guide_line"></line><line x1="299" x2="299" y1="1" y2="99" class="stroke_order_diagram--bounding_box"></line><path id="pathSk2v596cnxil" kvg:type="㇔" d="M22.41,21.19c-0.13,5.71-2.54,17.94-4.66,24.06" transform="matrix(1,0,0,1,196,-4)" class="stroke_order_diagram--existing_path"></path><path id="pathSk2v596cnxim" kvg:type="㇖b" d="M22.97,25.5c17.4-2.25,39.03-7.38,60.22-7.75c12.05-0.21,3.56,7.5-0.94,11.25" transform="matrix(1,0,0,1,196,-4)" class="stroke_order_diagram--existing_path"></path><path id="kvg:05197-s3" kvg:type="㇒" d="M39.57,45.25c0.97,0.97,1.14,2.47,1.05,4.19c-0.75,15.31-6.25,34.81-20.12,45.81" transform="matrix(1,0,0,1,196,-4)" class="stroke_order_diagram--current_path"></path><path id="pathSk2v596cnxio" kvg:type="㇒" d="M39.57,45.25c0.97,0.97,1.14,2.47,1.05,4.19c-0.75,15.31-6.25,34.81-20.12,45.81" transform="matrix(1,0,0,1,196,-4)" class="stroke_order_diagram--current_path"></path><circle cx="39.57" cy="45.25" r="8" class="stroke_order_diagram--path_start" transform="matrix(1,0,0,1,196,-4)"></circle><line x1="350" x2="350" y1="1" y2="99" class="stroke_order_diagram--guide_line"></line><line x1="399" x2="399" y1="1" y2="99" class="stroke_order_diagram--bounding_box"></line><path id="pathSk2v596cnxir" kvg:type="㇔" d="M22.41,21.19c-0.13,5.71-2.54,17.94-4.66,24.06" transform="matrix(1,0,0,1,296,-4)" class="stroke_order_diagram--existing_path"></path><path id="pathSk2v596cnxis" kvg:type="㇖b" d="M22.97,25.5c17.4-2.25,39.03-7.38,60.22-7.75c12.05-0.21,3.56,7.5-0.94,11.25" transform="matrix(1,0,0,1,296,-4)" class="stroke_order_diagram--existing_path"></path><path id="pathSk2v596cnxit" kvg:type="㇒" d="M39.57,45.25c0.97,0.97,1.14,2.47,1.05,4.19c-0.75,15.31-6.25,34.81-20.12,45.81" transform="matrix(1,0,0,1,296,-4)" class="stroke_order_diagram--existing_path"></path><path id="kvg:05197-s4" kvg:type="㇈b" d="M41.75,48.65c3.59-0.68,14.06-2.51,18.26-3.36c3.9-0.79,5.17,0.28,4.62,4.35c-1.09,8.19-2.04,16.72-2.22,28.36c-0.19,11.64,1.39,14.11,16.18,14.11c15.66,0,16.7-1.11,16.7-8.73" transform="matrix(1,0,0,1,296,-4)" class="stroke_order_diagram--current_path"></path><path id="pathSk2v596cnxiv" kvg:type="㇈b" d="M41.75,48.65c3.59-0.68,14.06-2.51,18.26-3.36c3.9-0.79,5.17,0.28,4.62,4.35c-1.09,8.19-2.04,16.72-2.22,28.36c-0.19,11.64,1.39,14.11,16.18,14.11c15.66,0,16.7-1.11,16.7-8.73" transform="matrix(1,0,0,1,296,-4)" class="stroke_order_diagram--current_path"></path><circle cx="41.75" cy="48.65" r="8" class="stroke_order_diagram--path_start" transform="matrix(1,0,0,1,296,-4)"></circle></svg>