<svg style="width: 500px; height: 100px;" viewbox="0 0 500 100"><style>
.stroke_order_diagram--outer_container {
  width: 100%;
  overflow-x: auto;
  overflow-y: hidden;
}

.stroke_order_diagram--guide_line {
  fill: none;
  stroke: #ddd;
  stroke-width: 3;
  stroke-linecap: square;
  stroke-linejoin: square;
  stroke-dasharray:8, 8;
}

.stroke_order_diagram--bounding_box {
  fill: none;
  stroke: #ddd;
  stroke-width: 4;
  stroke-linecap: square;
  stroke-linejoin: square;
}

.stroke_order_diagram--current_path {
  fill: none;
  stroke: #000;
  stroke-width: 6;
  stroke-linecap: round;
  stroke-linejoin: round;
}

.stroke_order_diagram--existing_path {
  fill: none;
  stroke: #aaa;
  stroke-width: 6;
  stroke-linecap: round;
  stroke-linejoin:round;
}

.stroke_order_diagram--path_start {
  fill: rgba(255, 0, 0, 0.7);
  stroke:none
}</style><desc>Created with Snap</desc><defs></defs><line x1="1" x2="499" y1="1" y2="1" class="stroke_order_diagram--bounding_box"></line><line x1="1" x2="1" y1="1" y2="99" class="stroke_order_diagram--bounding_box"></line><line x1="1" x2="499" y1="99" y2="99" class="stroke_order_diagram--bounding_box"></line><line x1="0" x2="500" y1="50" y2="50" class="stroke_order_diagram--guide_line"></line><line x1="50" x2="50" y1="1" y2="99" class="stroke_order_diagram--guide_line"></line><line x1="99" x2="99" y1="1" y2="99" class="stroke_order_diagram--bounding_box"></line><path id="kvg:051e6-s1" kvg:type="㇒" d="M32.08,17.5c0.17,1,0.22,2.39-0.11,3.69c-2.09,8.31-9.09,23.56-19.72,35.56" transform="matrix(1,0,0,1,-4,-4)" class="stroke_order_diagram--current_path"></path><path id="pathSk2v596cn1w6s" kvg:type="㇒" d="M32.08,17.5c0.17,1,0.22,2.39-0.11,3.69c-2.09,8.31-9.09,23.56-19.72,35.56" transform="matrix(1,0,0,1,-4,-4)" class="stroke_order_diagram--current_path"></path><circle cx="32.08" cy="17.5" r="8" class="stroke_order_diagram--path_start" transform="matrix(1,0,0,1,-4,-4)"></circle><line x1="150" x2="150" y1="1" y2="99" class="stroke_order_diagram--guide_line"></line><line x1="199" x2="199" y1="1" y2="99" class="stroke_order_diagram--bounding_box"></line><path id="pathSk2v596cn1w6v" kvg:type="㇒" d="M32.08,17.5c0.17,1,0.22,2.39-0.11,3.69c-2.09,8.31-9.09,23.56-19.72,35.56" transform="matrix(1,0,0,1,96,-4)" class="stroke_order_diagram--existing_path"></path><path id="kvg:051e6-s2" kvg:type="㇇" d="M32.43,31.15c0.22,0.05,1.17,0,1.81-0.13c3.38-0.64,6.01-1.39,11.35-3.1c2.05-0.91,3.97,0.86,3.31,3.47c-3.59,14.29-21.67,50-37.65,57.36" transform="matrix(1,0,0,1,96,-4)" class="stroke_order_diagram--current_path"></path><path id="pathSk2v596cn1w6x" kvg:type="㇇" d="M32.43,31.15c0.22,0.05,1.17,0,1.81-0.13c3.38-0.64,6.01-1.39,11.35-3.1c2.05-0.91,3.97,0.86,3.31,3.47c-3.59,14.29-21.67,50-37.65,57.36" transform="matrix(1,0,0,1,96,-4)" class="stroke_order_diagram--current_path"></path><circle cx="32.43" cy="31.15" r="8" class="stroke_order_diagram--path_start" transform="matrix(1,0,0,1,96,-4)"></circle><line x1="250" x2="250" y1="1" y2="99" class="stroke_order_diagram--guide_line"></line><line x1="299" x2="299" y1="1" y2="99" class="stroke_order_diagram--bounding_box"></line><path id="pathSk2v596cn1w70" kvg:type="㇒" d="M32.08,17.5c0.17,1,0.22,2.39-0.11,3.69c-2.09,8.31-9.09,23.56-19.72,35.56" transform="matrix(1,0,0,1,196,-4)" class="stroke_order_diagram--existing_path"></path><path id="pathSk2v596cn1w71" kvg:type="㇇" d="M32.43,31.15c0.22,0.05,1.17,0,1.81-0.13c3.38-0.64,6.01-1.39,11.35-3.1c2.05-0.91,3.97,0.86,3.31,3.47c-3.59,14.29-21.67,50-37.65,57.36" transform="matrix(1,0,0,1,196,-4)" class="stroke_order_diagram--existing_path"></path><path id="kvg:051e6-s3" kvg:type="㇏" d="M22,48.25c5.4,2.81,40.39,27.53,59.52,37.32c4.42,2.26,9.1,4.05,12.98,5.18" transform="matrix(1,0,0,1,196,-4)" class="stroke_order_diagram--current_path"></path><path id="pathSk2v596cn1w73" kvg:type="㇏" d="M22,48.25c5.4,2.81,40.39,27.53,59.52,37.32c4.42,2.26,9.1,4.05,12.98,5.18" transform="matrix(1,0,0,1,196,-4)" class="stroke_order_diagram--current_path"></path><circle cx="22" cy="48.25" r="8" class="stroke_order_diagram--path_start" transform="matrix(1,0,0,1,196,-4)"></circle><line x1="350" x2="350" y1="1" y2="99" class="stroke_order_diagram--guide_line"></line><line x1="399" x2="399" y1="1" y2="99" class="stroke_order_diagram--bounding_box"></line><path id="pathSk2v596cn1w76" kvg:type="㇒" d="M32.08,17.5c0.17,1,0.22,2.39-0.11,3.69c-2.09,8.31-9.09,23.56-19.72,35.56" transform="matrix(1,0,0,1,296,-4)" class="stroke_order_diagram--existing_path"></path><path id="pathSk2v596cn1w77" kvg:type="㇇" d="M32.43,31.15c0.22,0.05,1.17,0,1.81-0.13c3.38-0.64,6.01-1.39,11.35-3.1c2.05-0.91,3.97,0.86,3.31,3.47c-3.59,14.29-21.67,50-37.65,57.36" transform="matrix(1,0,0,1,296,-4)" class="stroke_order_diagram--existing_path"></path><path id="pathSk2v596cn1w78" kvg:type="㇏" d="M22,48.25c5.4,2.81,40.39,27.53,59.52,37.32c4.42,2.26,9.1,4.05,12.98,5.18" transform="matrix(1,0,0,1,296,-4)" class="stroke_order_diagram--existing_path"></path><path id="kvg:051e6-s4" kvg:type="㇒" d="M62.26,26c0.68,0.68,1.23,1.8,1.23,3.24c0,13.11,0.25,25.76-9.35,33.26" transform="matrix(1,0,0,1,296,-4)" class="stroke_order_diagram--current_path"></path><path id="pathSk2v596cn1w7a" kvg:type="㇒" d="M62.26,26c0.68,0.68,1.23,1.8,1.23,3.24c0,13.11,0.25,25.76-9.35,33.26" transform="matrix(1,0,0,1,296,-4)" class="stroke_order_diagram--current_path"></path><circle cx="62.26" cy="26" r="8" class="stroke_order_diagram--path_start" transform="matrix(1,0,0,1,296,-4)"></circle><line x1="450" x2="450" y1="1" y2="99" class="stroke_order_diagram--guide_line"></line><line x1="499" x2="499" y1="1" y2="99" class="stroke_order_diagram--bounding_box"></line><path id="pathSk2v596cn1w7d" kvg:type="㇒" d="M32.08,17.5c0.17,1,0.22,2.39-0.11,3.69c-2.09,8.31-9.09,23.56-19.72,35.56" transform="matrix(1,0,0,1,396,-4)" class="stroke_order_diagram--existing_path"></path><path id="pathSk2v596cn1w7e" kvg:type="㇇" d="M32.43,31.15c0.22,0.05,1.17,0,1.81-0.13c3.38-0.64,6.01-1.39,11.35-3.1c2.05-0.91,3.97,0.86,3.31,3.47c-3.59,14.29-21.67,50-37.65,57.36" transform="matrix(1,0,0,1,396,-4)" class="stroke_order_diagram--existing_path"></path><path id="pathSk2v596cn1w7f" kvg:type="㇏" d="M22,48.25c5.4,2.81,40.39,27.53,59.52,37.32c4.42,2.26,9.1,4.05,12.98,5.18" transform="matrix(1,0,0,1,396,-4)" class="stroke_order_diagram--existing_path"></path><path id="pathSk2v596cn1w7g" kvg:type="㇒" d="M62.26,26c0.68,0.68,1.23,1.8,1.23,3.24c0,13.11,0.25,25.76-9.35,33.26" transform="matrix(1,0,0,1,396,-4)" class="stroke_order_diagram--existing_path"></path><path id="kvg:051e6-s5" kvg:type="㇈b" d="M64.46,27.9c3.32-1,8.05-2.35,10.55-3.01c2.96-0.78,4.83,0.11,4.83,2.99c0,4.5-0.2,19.17-0.2,26.88c0,7.38,1.37,9.44,7.34,9.44c7.04,0,8.02-1.44,8.02-6.18" transform="matrix(1,0,0,1,396,-4)" class="stroke_order_diagram--current_path"></path><path id="pathSk2v596cn1w7i" kvg:type="㇈b" d="M64.46,27.9c3.32-1,8.05-2.35,10.55-3.01c2.96-0.78,4.83,0.11,4.83,2.99c0,4.5-0.2,19.17-0.2,26.88c0,7.38,1.37,9.44,7.34,9.44c7.04,0,8.02-1.44,8.02-6.18" transform="matrix(1,0,0,1,396,-4)" class="stroke_order_diagram--current_path"></path><circle cx="64.46" cy="27.9" r="8" class="stroke_order_diagram--path_start" transform="matrix(1,0,0,1,396,-4)"></circle></svg>