<svg style="width: 700px; height: 100px;" viewbox="0 0 700 100"><style>
.stroke_order_diagram--outer_container {
  width: 100%;
  overflow-x: auto;
  overflow-y: hidden;
}

.stroke_order_diagram--guide_line {
  fill: none;
  stroke: #ddd;
  stroke-width: 3;
  stroke-linecap: square;
  stroke-linejoin: square;
  stroke-dasharray:8, 8;
}

.stroke_order_diagram--bounding_box {
  fill: none;
  stroke: #ddd;
  stroke-width: 4;
  stroke-linecap: square;
  stroke-linejoin: square;
}

.stroke_order_diagram--current_path {
  fill: none;
  stroke: #000;
  stroke-width: 6;
  stroke-linecap: round;
  stroke-linejoin: round;
}

.stroke_order_diagram--existing_path {
  fill: none;
  stroke: #aaa;
  stroke-width: 6;
  stroke-linecap: round;
  stroke-linejoin:round;
}

.stroke_order_diagram--path_start {
  fill: rgba(255, 0, 0, 0.7);
  stroke:none
}</style><desc>Created with Snap</desc><defs></defs><line x1="1" x2="699" y1="1" y2="1" class="stroke_order_diagram--bounding_box"></line><line x1="1" x2="1" y1="1" y2="99" class="stroke_order_diagram--bounding_box"></line><line x1="1" x2="699" y1="99" y2="99" class="stroke_order_diagram--bounding_box"></line><line x1="0" x2="700" y1="50" y2="50" class="stroke_order_diagram--guide_line"></line><line x1="50" x2="50" y1="1" y2="99" class="stroke_order_diagram--guide_line"></line><line x1="99" x2="99" y1="1" y2="99" class="stroke_order_diagram--bounding_box"></line><path id="kvg:05225-s1" kvg:type="㇑" d="M20,19.64c0.81,0.81,1.3,1.98,1.58,3.13c1.09,4.48,2.31,10.62,3.2,16.11c0.17,1.07,0.33,2.12,0.48,3.13" transform="matrix(1,0,0,1,-4,-4)" class="stroke_order_diagram--current_path"></path><path id="pathSk2v596cnj9g" kvg:type="㇑" d="M20,19.64c0.81,0.81,1.3,1.98,1.58,3.13c1.09,4.48,2.31,10.62,3.2,16.11c0.17,1.07,0.33,2.12,0.48,3.13" transform="matrix(1,0,0,1,-4,-4)" class="stroke_order_diagram--current_path"></path><circle cx="20" cy="19.64" r="8" class="stroke_order_diagram--path_start" transform="matrix(1,0,0,1,-4,-4)"></circle><line x1="150" x2="150" y1="1" y2="99" class="stroke_order_diagram--guide_line"></line><line x1="199" x2="199" y1="1" y2="99" class="stroke_order_diagram--bounding_box"></line><path id="pathSk2v596cnj9j" kvg:type="㇑" d="M20,19.64c0.81,0.81,1.3,1.98,1.58,3.13c1.09,4.48,2.31,10.62,3.2,16.11c0.17,1.07,0.33,2.12,0.48,3.13" transform="matrix(1,0,0,1,96,-4)" class="stroke_order_diagram--existing_path"></path><path id="kvg:05225-s2" kvg:type="㇕b" d="M22.13,21.53c8.81-1.37,22.1-3.5,28.37-4.31c3.81-0.49,5.13,0.6,4.29,4.29c-0.95,4.18-2.29,9.26-3.63,14.54" transform="matrix(1,0,0,1,96,-4)" class="stroke_order_diagram--current_path"></path><path id="pathSk2v596cnj9l" kvg:type="㇕b" d="M22.13,21.53c8.81-1.37,22.1-3.5,28.37-4.31c3.81-0.49,5.13,0.6,4.29,4.29c-0.95,4.18-2.29,9.26-3.63,14.54" transform="matrix(1,0,0,1,96,-4)" class="stroke_order_diagram--current_path"></path><circle cx="22.13" cy="21.53" r="8" class="stroke_order_diagram--path_start" transform="matrix(1,0,0,1,96,-4)"></circle><line x1="250" x2="250" y1="1" y2="99" class="stroke_order_diagram--guide_line"></line><line x1="299" x2="299" y1="1" y2="99" class="stroke_order_diagram--bounding_box"></line><path id="pathSk2v596cnj9o" kvg:type="㇑" d="M20,19.64c0.81,0.81,1.3,1.98,1.58,3.13c1.09,4.48,2.31,10.62,3.2,16.11c0.17,1.07,0.33,2.12,0.48,3.13" transform="matrix(1,0,0,1,196,-4)" class="stroke_order_diagram--existing_path"></path><path id="pathSk2v596cnj9p" kvg:type="㇕b" d="M22.13,21.53c8.81-1.37,22.1-3.5,28.37-4.31c3.81-0.49,5.13,0.6,4.29,4.29c-0.95,4.18-2.29,9.26-3.63,14.54" transform="matrix(1,0,0,1,196,-4)" class="stroke_order_diagram--existing_path"></path><path id="kvg:05225-s3" kvg:type="㇐b" d="M26.2,39.58c4.97-0.5,15.78-1.67,23.94-2.4c1.36-0.12,2.65-0.23,3.83-0.32" transform="matrix(1,0,0,1,196,-4)" class="stroke_order_diagram--current_path"></path><path id="pathSk2v596cnj9r" kvg:type="㇐b" d="M26.2,39.58c4.97-0.5,15.78-1.67,23.94-2.4c1.36-0.12,2.65-0.23,3.83-0.32" transform="matrix(1,0,0,1,196,-4)" class="stroke_order_diagram--current_path"></path><circle cx="26.2" cy="39.58" r="8" class="stroke_order_diagram--path_start" transform="matrix(1,0,0,1,196,-4)"></circle><line x1="350" x2="350" y1="1" y2="99" class="stroke_order_diagram--guide_line"></line><line x1="399" x2="399" y1="1" y2="99" class="stroke_order_diagram--bounding_box"></line><path id="pathSk2v596cnj9u" kvg:type="㇑" d="M20,19.64c0.81,0.81,1.3,1.98,1.58,3.13c1.09,4.48,2.31,10.62,3.2,16.11c0.17,1.07,0.33,2.12,0.48,3.13" transform="matrix(1,0,0,1,296,-4)" class="stroke_order_diagram--existing_path"></path><path id="pathSk2v596cnj9v" kvg:type="㇕b" d="M22.13,21.53c8.81-1.37,22.1-3.5,28.37-4.31c3.81-0.49,5.13,0.6,4.29,4.29c-0.95,4.18-2.29,9.26-3.63,14.54" transform="matrix(1,0,0,1,296,-4)" class="stroke_order_diagram--existing_path"></path><path id="pathSk2v596cnj9w" kvg:type="㇐b" d="M26.2,39.58c4.97-0.5,15.78-1.67,23.94-2.4c1.36-0.12,2.65-0.23,3.83-0.32" transform="matrix(1,0,0,1,296,-4)" class="stroke_order_diagram--existing_path"></path><path id="kvg:05225-s4" kvg:type="㇆a" d="M36.45,49.54c4.3,1.46,11.3,3.08,15.05,3.56c1.62,0.21,2.63,1.65,2.13,3.84c-0.89,3.97-8.9,25.29-15.66,33.27c-3.1,3.66-5.47,0.91-7-1.61" transform="matrix(1,0,0,1,296,-4)" class="stroke_order_diagram--current_path"></path><path id="pathSk2v596cnj9y" kvg:type="㇆a" d="M36.45,49.54c4.3,1.46,11.3,3.08,15.05,3.56c1.62,0.21,2.63,1.65,2.13,3.84c-0.89,3.97-8.9,25.29-15.66,33.27c-3.1,3.66-5.47,0.91-7-1.61" transform="matrix(1,0,0,1,296,-4)" class="stroke_order_diagram--current_path"></path><circle cx="36.45" cy="49.54" r="8" class="stroke_order_diagram--path_start" transform="matrix(1,0,0,1,296,-4)"></circle><line x1="450" x2="450" y1="1" y2="99" class="stroke_order_diagram--guide_line"></line><line x1="499" x2="499" y1="1" y2="99" class="stroke_order_diagram--bounding_box"></line><path id="pathSk2v596cnja1" kvg:type="㇑" d="M20,19.64c0.81,0.81,1.3,1.98,1.58,3.13c1.09,4.48,2.31,10.62,3.2,16.11c0.17,1.07,0.33,2.12,0.48,3.13" transform="matrix(1,0,0,1,396,-4)" class="stroke_order_diagram--existing_path"></path><path id="pathSk2v596cnja2" kvg:type="㇕b" d="M22.13,21.53c8.81-1.37,22.1-3.5,28.37-4.31c3.81-0.49,5.13,0.6,4.29,4.29c-0.95,4.18-2.29,9.26-3.63,14.54" transform="matrix(1,0,0,1,396,-4)" class="stroke_order_diagram--existing_path"></path><path id="pathSk2v596cnja3" kvg:type="㇐b" d="M26.2,39.58c4.97-0.5,15.78-1.67,23.94-2.4c1.36-0.12,2.65-0.23,3.83-0.32" transform="matrix(1,0,0,1,396,-4)" class="stroke_order_diagram--existing_path"></path><path id="pathSk2v596cnja4" kvg:type="㇆a" d="M36.45,49.54c4.3,1.46,11.3,3.08,15.05,3.56c1.62,0.21,2.63,1.65,2.13,3.84c-0.89,3.97-8.9,25.29-15.66,33.27c-3.1,3.66-5.47,0.91-7-1.61" transform="matrix(1,0,0,1,396,-4)" class="stroke_order_diagram--existing_path"></path><path id="kvg:05225-s5" kvg:type="㇒" d="M36.5,41.5c0.06,0.9,0.21,1.85-0.13,3.13c-2.25,8.62-10.25,24.62-22.13,35.25" transform="matrix(1,0,0,1,396,-4)" class="stroke_order_diagram--current_path"></path><path id="pathSk2v596cnja6" kvg:type="㇒" d="M36.5,41.5c0.06,0.9,0.21,1.85-0.13,3.13c-2.25,8.62-10.25,24.62-22.13,35.25" transform="matrix(1,0,0,1,396,-4)" class="stroke_order_diagram--current_path"></path><circle cx="36.5" cy="41.5" r="8" class="stroke_order_diagram--path_start" transform="matrix(1,0,0,1,396,-4)"></circle><line x1="550" x2="550" y1="1" y2="99" class="stroke_order_diagram--guide_line"></line><line x1="599" x2="599" y1="1" y2="99" class="stroke_order_diagram--bounding_box"></line><path id="pathSk2v596cnja9" kvg:type="㇑" d="M20,19.64c0.81,0.81,1.3,1.98,1.58,3.13c1.09,4.48,2.31,10.62,3.2,16.11c0.17,1.07,0.33,2.12,0.48,3.13" transform="matrix(1,0,0,1,496,-4)" class="stroke_order_diagram--existing_path"></path><path id="pathSk2v596cnjaa" kvg:type="㇕b" d="M22.13,21.53c8.81-1.37,22.1-3.5,28.37-4.31c3.81-0.49,5.13,0.6,4.29,4.29c-0.95,4.18-2.29,9.26-3.63,14.54" transform="matrix(1,0,0,1,496,-4)" class="stroke_order_diagram--existing_path"></path><path id="pathSk2v596cnjab" kvg:type="㇐b" d="M26.2,39.58c4.97-0.5,15.78-1.67,23.94-2.4c1.36-0.12,2.65-0.23,3.83-0.32" transform="matrix(1,0,0,1,496,-4)" class="stroke_order_diagram--existing_path"></path><path id="pathSk2v596cnjac" kvg:type="㇆a" d="M36.45,49.54c4.3,1.46,11.3,3.08,15.05,3.56c1.62,0.21,2.63,1.65,2.13,3.84c-0.89,3.97-8.9,25.29-15.66,33.27c-3.1,3.66-5.47,0.91-7-1.61" transform="matrix(1,0,0,1,496,-4)" class="stroke_order_diagram--existing_path"></path><path id="pathSk2v596cnjad" kvg:type="㇒" d="M36.5,41.5c0.06,0.9,0.21,1.85-0.13,3.13c-2.25,8.62-10.25,24.62-22.13,35.25" transform="matrix(1,0,0,1,496,-4)" class="stroke_order_diagram--existing_path"></path><path id="kvg:05225-s6" kvg:type="㇑" d="M69.02,25.83c0.98,0.92,1.76,2.42,1.76,5.02c0,10.9-0.01,21.65-0.02,28.65c0,2.41,0,4.37,0,5.75" transform="matrix(1,0,0,1,496,-4)" class="stroke_order_diagram--current_path"></path><path id="pathSk2v596cnjaf" kvg:type="㇑" d="M69.02,25.83c0.98,0.92,1.76,2.42,1.76,5.02c0,10.9-0.01,21.65-0.02,28.65c0,2.41,0,4.37,0,5.75" transform="matrix(1,0,0,1,496,-4)" class="stroke_order_diagram--current_path"></path><circle cx="69.02" cy="25.83" r="8" class="stroke_order_diagram--path_start" transform="matrix(1,0,0,1,496,-4)"></circle><line x1="650" x2="650" y1="1" y2="99" class="stroke_order_diagram--guide_line"></line><line x1="699" x2="699" y1="1" y2="99" class="stroke_order_diagram--bounding_box"></line><path id="pathSk2v596cnjai" kvg:type="㇑" d="M20,19.64c0.81,0.81,1.3,1.98,1.58,3.13c1.09,4.48,2.31,10.62,3.2,16.11c0.17,1.07,0.33,2.12,0.48,3.13" transform="matrix(1,0,0,1,596,-4)" class="stroke_order_diagram--existing_path"></path><path id="pathSk2v596cnjaj" kvg:type="㇕b" d="M22.13,21.53c8.81-1.37,22.1-3.5,28.37-4.31c3.81-0.49,5.13,0.6,4.29,4.29c-0.95,4.18-2.29,9.26-3.63,14.54" transform="matrix(1,0,0,1,596,-4)" class="stroke_order_diagram--existing_path"></path><path id="pathSk2v596cnjak" kvg:type="㇐b" d="M26.2,39.58c4.97-0.5,15.78-1.67,23.94-2.4c1.36-0.12,2.65-0.23,3.83-0.32" transform="matrix(1,0,0,1,596,-4)" class="stroke_order_diagram--existing_path"></path><path id="pathSk2v596cnjal" kvg:type="㇆a" d="M36.45,49.54c4.3,1.46,11.3,3.08,15.05,3.56c1.62,0.21,2.63,1.65,2.13,3.84c-0.89,3.97-8.9,25.29-15.66,33.27c-3.1,3.66-5.47,0.91-7-1.61" transform="matrix(1,0,0,1,596,-4)" class="stroke_order_diagram--existing_path"></path><path id="pathSk2v596cnjam" kvg:type="㇒" d="M36.5,41.5c0.06,0.9,0.21,1.85-0.13,3.13c-2.25,8.62-10.25,24.62-22.13,35.25" transform="matrix(1,0,0,1,596,-4)" class="stroke_order_diagram--existing_path"></path><path id="pathSk2v596cnjan" kvg:type="㇑" d="M69.02,25.83c0.98,0.92,1.76,2.42,1.76,5.02c0,10.9-0.01,21.65-0.02,28.65c0,2.41,0,4.37,0,5.75" transform="matrix(1,0,0,1,596,-4)" class="stroke_order_diagram--existing_path"></path><path id="kvg:05225-s7" kvg:type="㇚" d="M90.77,13.83c0.98,0.92,1.76,2.67,1.76,5.02c0,15.02-0.01,63.77-0.01,69.62c0,10.53-7.21,1.5-8.71,0.25" transform="matrix(1,0,0,1,596,-4)" class="stroke_order_diagram--current_path"></path><path id="pathSk2v596cnjap" kvg:type="㇚" d="M90.77,13.83c0.98,0.92,1.76,2.67,1.76,5.02c0,15.02-0.01,63.77-0.01,69.62c0,10.53-7.21,1.5-8.71,0.25" transform="matrix(1,0,0,1,596,-4)" class="stroke_order_diagram--current_path"></path><circle cx="90.77" cy="13.83" r="8" class="stroke_order_diagram--path_start" transform="matrix(1,0,0,1,596,-4)"></circle></svg>