<svg style="width: 800px; height: 100px;" viewbox="0 0 800 100"><style>
.stroke_order_diagram--outer_container {
  width: 100%;
  overflow-x: auto;
  overflow-y: hidden;
}

.stroke_order_diagram--guide_line {
  fill: none;
  stroke: #ddd;
  stroke-width: 3;
  stroke-linecap: square;
  stroke-linejoin: square;
  stroke-dasharray:8, 8;
}

.stroke_order_diagram--bounding_box {
  fill: none;
  stroke: #ddd;
  stroke-width: 4;
  stroke-linecap: square;
  stroke-linejoin: square;
}

.stroke_order_diagram--current_path {
  fill: none;
  stroke: #000;
  stroke-width: 6;
  stroke-linecap: round;
  stroke-linejoin: round;
}

.stroke_order_diagram--existing_path {
  fill: none;
  stroke: #aaa;
  stroke-width: 6;
  stroke-linecap: round;
  stroke-linejoin:round;
}

.stroke_order_diagram--path_start {
  fill: rgba(255, 0, 0, 0.7);
  stroke:none
}</style><desc>Created with Snap</desc><defs></defs><line x1="1" x2="799" y1="1" y2="1" class="stroke_order_diagram--bounding_box"></line><line x1="1" x2="1" y1="1" y2="99" class="stroke_order_diagram--bounding_box"></line><line x1="1" x2="799" y1="99" y2="99" class="stroke_order_diagram--bounding_box"></line><line x1="0" x2="800" y1="50" y2="50" class="stroke_order_diagram--guide_line"></line><line x1="50" x2="50" y1="1" y2="99" class="stroke_order_diagram--guide_line"></line><line x1="99" x2="99" y1="1" y2="99" class="stroke_order_diagram--bounding_box"></line><path id="kvg:05236-s1" kvg:type="㇒" d="M24.4,18.14c0.03,0.59,0.12,1.52-0.06,2.35c-1.21,5.38-4.83,14.63-10.71,22" transform="matrix(1,0,0,1,-4,-4)" class="stroke_order_diagram--current_path"></path><path id="pathSk2v596cn1b5g" kvg:type="㇒" d="M24.4,18.14c0.03,0.59,0.12,1.52-0.06,2.35c-1.21,5.38-4.83,14.63-10.71,22" transform="matrix(1,0,0,1,-4,-4)" class="stroke_order_diagram--current_path"></path><circle cx="24.4" cy="18.14" r="8" class="stroke_order_diagram--path_start" transform="matrix(1,0,0,1,-4,-4)"></circle><line x1="150" x2="150" y1="1" y2="99" class="stroke_order_diagram--guide_line"></line><line x1="199" x2="199" y1="1" y2="99" class="stroke_order_diagram--bounding_box"></line><path id="pathSk2v596cn1b5j" kvg:type="㇒" d="M24.4,18.14c0.03,0.59,0.12,1.52-0.06,2.35c-1.21,5.38-4.83,14.63-10.71,22" transform="matrix(1,0,0,1,96,-4)" class="stroke_order_diagram--existing_path"></path><path id="kvg:05236-s2" kvg:type="㇐" d="M23.25,32.17c1.25,0.2,2.22,0.08,2.82,0c8.67-1.19,14.43-2.29,22.96-4.26c1.53-0.35,2.99-0.48,4.47-0.12" transform="matrix(1,0,0,1,96,-4)" class="stroke_order_diagram--current_path"></path><path id="pathSk2v596cn1b5l" kvg:type="㇐" d="M23.25,32.17c1.25,0.2,2.22,0.08,2.82,0c8.67-1.19,14.43-2.29,22.96-4.26c1.53-0.35,2.99-0.48,4.47-0.12" transform="matrix(1,0,0,1,96,-4)" class="stroke_order_diagram--current_path"></path><circle cx="23.25" cy="32.17" r="8" class="stroke_order_diagram--path_start" transform="matrix(1,0,0,1,96,-4)"></circle><line x1="250" x2="250" y1="1" y2="99" class="stroke_order_diagram--guide_line"></line><line x1="299" x2="299" y1="1" y2="99" class="stroke_order_diagram--bounding_box"></line><path id="pathSk2v596cn1b5o" kvg:type="㇒" d="M24.4,18.14c0.03,0.59,0.12,1.52-0.06,2.35c-1.21,5.38-4.83,14.63-10.71,22" transform="matrix(1,0,0,1,196,-4)" class="stroke_order_diagram--existing_path"></path><path id="pathSk2v596cn1b5p" kvg:type="㇐" d="M23.25,32.17c1.25,0.2,2.22,0.08,2.82,0c8.67-1.19,14.43-2.29,22.96-4.26c1.53-0.35,2.99-0.48,4.47-0.12" transform="matrix(1,0,0,1,196,-4)" class="stroke_order_diagram--existing_path"></path><path id="kvg:05236-s3" kvg:type="㇐" d="M11,49.09c2.01,0.71,4.82,0.45,6.88,0.19c10.85-1.39,25.91-3.94,35-4.88c2.18-0.22,4.22-0.39,6.37,0.07" transform="matrix(1,0,0,1,196,-4)" class="stroke_order_diagram--current_path"></path><path id="pathSk2v596cn1b5r" kvg:type="㇐" d="M11,49.09c2.01,0.71,4.82,0.45,6.88,0.19c10.85-1.39,25.91-3.94,35-4.88c2.18-0.22,4.22-0.39,6.37,0.07" transform="matrix(1,0,0,1,196,-4)" class="stroke_order_diagram--current_path"></path><circle cx="11" cy="49.09" r="8" class="stroke_order_diagram--path_start" transform="matrix(1,0,0,1,196,-4)"></circle><line x1="350" x2="350" y1="1" y2="99" class="stroke_order_diagram--guide_line"></line><line x1="399" x2="399" y1="1" y2="99" class="stroke_order_diagram--bounding_box"></line><path id="pathSk2v596cn1b5u" kvg:type="㇒" d="M24.4,18.14c0.03,0.59,0.12,1.52-0.06,2.35c-1.21,5.38-4.83,14.63-10.71,22" transform="matrix(1,0,0,1,296,-4)" class="stroke_order_diagram--existing_path"></path><path id="pathSk2v596cn1b5v" kvg:type="㇐" d="M23.25,32.17c1.25,0.2,2.22,0.08,2.82,0c8.67-1.19,14.43-2.29,22.96-4.26c1.53-0.35,2.99-0.48,4.47-0.12" transform="matrix(1,0,0,1,296,-4)" class="stroke_order_diagram--existing_path"></path><path id="pathSk2v596cn1b5w" kvg:type="㇐" d="M11,49.09c2.01,0.71,4.82,0.45,6.88,0.19c10.85-1.39,25.91-3.94,35-4.88c2.18-0.22,4.22-0.39,6.37,0.07" transform="matrix(1,0,0,1,296,-4)" class="stroke_order_diagram--existing_path"></path><path id="kvg:05236-s4" kvg:type="㇑" d="M19.81,61.7c0.81,0.81,1.21,2.3,1.21,3.23c0,0.41,0.01,9.34-0.06,17.08c-0.03,3.3-0.06,6.03-0.09,7.1" transform="matrix(1,0,0,1,296,-4)" class="stroke_order_diagram--current_path"></path><path id="pathSk2v596cn1b5y" kvg:type="㇑" d="M19.81,61.7c0.81,0.81,1.21,2.3,1.21,3.23c0,0.41,0.01,9.34-0.06,17.08c-0.03,3.3-0.06,6.03-0.09,7.1" transform="matrix(1,0,0,1,296,-4)" class="stroke_order_diagram--current_path"></path><circle cx="19.81" cy="61.7" r="8" class="stroke_order_diagram--path_start" transform="matrix(1,0,0,1,296,-4)"></circle><line x1="450" x2="450" y1="1" y2="99" class="stroke_order_diagram--guide_line"></line><line x1="499" x2="499" y1="1" y2="99" class="stroke_order_diagram--bounding_box"></line><path id="pathSk2v596cn1b61" kvg:type="㇒" d="M24.4,18.14c0.03,0.59,0.12,1.52-0.06,2.35c-1.21,5.38-4.83,14.63-10.71,22" transform="matrix(1,0,0,1,396,-4)" class="stroke_order_diagram--existing_path"></path><path id="pathSk2v596cn1b62" kvg:type="㇐" d="M23.25,32.17c1.25,0.2,2.22,0.08,2.82,0c8.67-1.19,14.43-2.29,22.96-4.26c1.53-0.35,2.99-0.48,4.47-0.12" transform="matrix(1,0,0,1,396,-4)" class="stroke_order_diagram--existing_path"></path><path id="pathSk2v596cn1b63" kvg:type="㇐" d="M11,49.09c2.01,0.71,4.82,0.45,6.88,0.19c10.85-1.39,25.91-3.94,35-4.88c2.18-0.22,4.22-0.39,6.37,0.07" transform="matrix(1,0,0,1,396,-4)" class="stroke_order_diagram--existing_path"></path><path id="pathSk2v596cn1b64" kvg:type="㇑" d="M19.81,61.7c0.81,0.81,1.21,2.3,1.21,3.23c0,0.41,0.01,9.34-0.06,17.08c-0.03,3.3-0.06,6.03-0.09,7.1" transform="matrix(1,0,0,1,396,-4)" class="stroke_order_diagram--existing_path"></path><path id="kvg:05236-s5" kvg:type="㇆a" d="M21.91,62.82c5.59-0.95,28.2-3.97,30.26-4.1c2.41-0.15,3.42,1.4,3.34,4.1c-0.26,9.43-0.51,14.93-1.19,22.67c-0.42,4.75-3.87,0.64-5.03-0.96" transform="matrix(1,0,0,1,396,-4)" class="stroke_order_diagram--current_path"></path><path id="pathSk2v596cn1b66" kvg:type="㇆a" d="M21.91,62.82c5.59-0.95,28.2-3.97,30.26-4.1c2.41-0.15,3.42,1.4,3.34,4.1c-0.26,9.43-0.51,14.93-1.19,22.67c-0.42,4.75-3.87,0.64-5.03-0.96" transform="matrix(1,0,0,1,396,-4)" class="stroke_order_diagram--current_path"></path><circle cx="21.91" cy="62.82" r="8" class="stroke_order_diagram--path_start" transform="matrix(1,0,0,1,396,-4)"></circle><line x1="550" x2="550" y1="1" y2="99" class="stroke_order_diagram--guide_line"></line><line x1="599" x2="599" y1="1" y2="99" class="stroke_order_diagram--bounding_box"></line><path id="pathSk2v596cn1b69" kvg:type="㇒" d="M24.4,18.14c0.03,0.59,0.12,1.52-0.06,2.35c-1.21,5.38-4.83,14.63-10.71,22" transform="matrix(1,0,0,1,496,-4)" class="stroke_order_diagram--existing_path"></path><path id="pathSk2v596cn1b6a" kvg:type="㇐" d="M23.25,32.17c1.25,0.2,2.22,0.08,2.82,0c8.67-1.19,14.43-2.29,22.96-4.26c1.53-0.35,2.99-0.48,4.47-0.12" transform="matrix(1,0,0,1,496,-4)" class="stroke_order_diagram--existing_path"></path><path id="pathSk2v596cn1b6b" kvg:type="㇐" d="M11,49.09c2.01,0.71,4.82,0.45,6.88,0.19c10.85-1.39,25.91-3.94,35-4.88c2.18-0.22,4.22-0.39,6.37,0.07" transform="matrix(1,0,0,1,496,-4)" class="stroke_order_diagram--existing_path"></path><path id="pathSk2v596cn1b6c" kvg:type="㇑" d="M19.81,61.7c0.81,0.81,1.21,2.3,1.21,3.23c0,0.41,0.01,9.34-0.06,17.08c-0.03,3.3-0.06,6.03-0.09,7.1" transform="matrix(1,0,0,1,496,-4)" class="stroke_order_diagram--existing_path"></path><path id="pathSk2v596cn1b6d" kvg:type="㇆a" d="M21.91,62.82c5.59-0.95,28.2-3.97,30.26-4.1c2.41-0.15,3.42,1.4,3.34,4.1c-0.26,9.43-0.51,14.93-1.19,22.67c-0.42,4.75-3.87,0.64-5.03-0.96" transform="matrix(1,0,0,1,496,-4)" class="stroke_order_diagram--existing_path"></path><path id="kvg:05236-s6" kvg:type="㇑" d="M35.68,11.13c1.09,1.09,1.76,2.74,1.76,4.5c0,0.77-0.03,55.38-0.17,75.87c-0.03,3.77-0.05,6.38-0.08,7.25" transform="matrix(1,0,0,1,496,-4)" class="stroke_order_diagram--current_path"></path><path id="pathSk2v596cn1b6f" kvg:type="㇑" d="M35.68,11.13c1.09,1.09,1.76,2.74,1.76,4.5c0,0.77-0.03,55.38-0.17,75.87c-0.03,3.77-0.05,6.38-0.08,7.25" transform="matrix(1,0,0,1,496,-4)" class="stroke_order_diagram--current_path"></path><circle cx="35.68" cy="11.13" r="8" class="stroke_order_diagram--path_start" transform="matrix(1,0,0,1,496,-4)"></circle><line x1="650" x2="650" y1="1" y2="99" class="stroke_order_diagram--guide_line"></line><line x1="699" x2="699" y1="1" y2="99" class="stroke_order_diagram--bounding_box"></line><path id="pathSk2v596cn1b6i" kvg:type="㇒" d="M24.4,18.14c0.03,0.59,0.12,1.52-0.06,2.35c-1.21,5.38-4.83,14.63-10.71,22" transform="matrix(1,0,0,1,596,-4)" class="stroke_order_diagram--existing_path"></path><path id="pathSk2v596cn1b6j" kvg:type="㇐" d="M23.25,32.17c1.25,0.2,2.22,0.08,2.82,0c8.67-1.19,14.43-2.29,22.96-4.26c1.53-0.35,2.99-0.48,4.47-0.12" transform="matrix(1,0,0,1,596,-4)" class="stroke_order_diagram--existing_path"></path><path id="pathSk2v596cn1b6k" kvg:type="㇐" d="M11,49.09c2.01,0.71,4.82,0.45,6.88,0.19c10.85-1.39,25.91-3.94,35-4.88c2.18-0.22,4.22-0.39,6.37,0.07" transform="matrix(1,0,0,1,596,-4)" class="stroke_order_diagram--existing_path"></path><path id="pathSk2v596cn1b6l" kvg:type="㇑" d="M19.81,61.7c0.81,0.81,1.21,2.3,1.21,3.23c0,0.41,0.01,9.34-0.06,17.08c-0.03,3.3-0.06,6.03-0.09,7.1" transform="matrix(1,0,0,1,596,-4)" class="stroke_order_diagram--existing_path"></path><path id="pathSk2v596cn1b6m" kvg:type="㇆a" d="M21.91,62.82c5.59-0.95,28.2-3.97,30.26-4.1c2.41-0.15,3.42,1.4,3.34,4.1c-0.26,9.43-0.51,14.93-1.19,22.67c-0.42,4.75-3.87,0.64-5.03-0.96" transform="matrix(1,0,0,1,596,-4)" class="stroke_order_diagram--existing_path"></path><path id="pathSk2v596cn1b6n" kvg:type="㇑" d="M35.68,11.13c1.09,1.09,1.76,2.74,1.76,4.5c0,0.77-0.03,55.38-0.17,75.87c-0.03,3.77-0.05,6.38-0.08,7.25" transform="matrix(1,0,0,1,596,-4)" class="stroke_order_diagram--existing_path"></path><path id="kvg:05236-s7" kvg:type="㇑" d="M69.52,25.83c0.89,0.89,1.51,2.67,1.51,5.02c0,10.5,0.15,20.52,0.05,27.15C71.03,60.56,71,62.62,71,64" transform="matrix(1,0,0,1,596,-4)" class="stroke_order_diagram--current_path"></path><path id="pathSk2v596cn1b6p" kvg:type="㇑" d="M69.52,25.83c0.89,0.89,1.51,2.67,1.51,5.02c0,10.5,0.15,20.52,0.05,27.15C71.03,60.56,71,62.62,71,64" transform="matrix(1,0,0,1,596,-4)" class="stroke_order_diagram--current_path"></path><circle cx="69.52" cy="25.83" r="8" class="stroke_order_diagram--path_start" transform="matrix(1,0,0,1,596,-4)"></circle><line x1="750" x2="750" y1="1" y2="99" class="stroke_order_diagram--guide_line"></line><line x1="799" x2="799" y1="1" y2="99" class="stroke_order_diagram--bounding_box"></line><path id="pathSk2v596cn1b6s" kvg:type="㇒" d="M24.4,18.14c0.03,0.59,0.12,1.52-0.06,2.35c-1.21,5.38-4.83,14.63-10.71,22" transform="matrix(1,0,0,1,696,-4)" class="stroke_order_diagram--existing_path"></path><path id="pathSk2v596cn1b6t" kvg:type="㇐" d="M23.25,32.17c1.25,0.2,2.22,0.08,2.82,0c8.67-1.19,14.43-2.29,22.96-4.26c1.53-0.35,2.99-0.48,4.47-0.12" transform="matrix(1,0,0,1,696,-4)" class="stroke_order_diagram--existing_path"></path><path id="pathSk2v596cn1b6u" kvg:type="㇐" d="M11,49.09c2.01,0.71,4.82,0.45,6.88,0.19c10.85-1.39,25.91-3.94,35-4.88c2.18-0.22,4.22-0.39,6.37,0.07" transform="matrix(1,0,0,1,696,-4)" class="stroke_order_diagram--existing_path"></path><path id="pathSk2v596cn1b6v" kvg:type="㇑" d="M19.81,61.7c0.81,0.81,1.21,2.3,1.21,3.23c0,0.41,0.01,9.34-0.06,17.08c-0.03,3.3-0.06,6.03-0.09,7.1" transform="matrix(1,0,0,1,696,-4)" class="stroke_order_diagram--existing_path"></path><path id="pathSk2v596cn1b6w" kvg:type="㇆a" d="M21.91,62.82c5.59-0.95,28.2-3.97,30.26-4.1c2.41-0.15,3.42,1.4,3.34,4.1c-0.26,9.43-0.51,14.93-1.19,22.67c-0.42,4.75-3.87,0.64-5.03-0.96" transform="matrix(1,0,0,1,696,-4)" class="stroke_order_diagram--existing_path"></path><path id="pathSk2v596cn1b6x" kvg:type="㇑" d="M35.68,11.13c1.09,1.09,1.76,2.74,1.76,4.5c0,0.77-0.03,55.38-0.17,75.87c-0.03,3.77-0.05,6.38-0.08,7.25" transform="matrix(1,0,0,1,696,-4)" class="stroke_order_diagram--existing_path"></path><path id="pathSk2v596cn1b6y" kvg:type="㇑" d="M69.52,25.83c0.89,0.89,1.51,2.67,1.51,5.02c0,10.5,0.15,20.52,0.05,27.15C71.03,60.56,71,62.62,71,64" transform="matrix(1,0,0,1,696,-4)" class="stroke_order_diagram--existing_path"></path><path id="kvg:05236-s8" kvg:type="㇚" d="M89.27,12.58c0.98,0.92,1.76,2.92,1.76,5.27c0,14.56-0.01,66.66-0.01,71.62c0,12.53-7.21,1.5-8.71,0.25" transform="matrix(1,0,0,1,696,-4)" class="stroke_order_diagram--current_path"></path><path id="pathSk2v596cn1b70" kvg:type="㇚" d="M89.27,12.58c0.98,0.92,1.76,2.92,1.76,5.27c0,14.56-0.01,66.66-0.01,71.62c0,12.53-7.21,1.5-8.71,0.25" transform="matrix(1,0,0,1,696,-4)" class="stroke_order_diagram--current_path"></path><circle cx="89.27" cy="12.58" r="8" class="stroke_order_diagram--path_start" transform="matrix(1,0,0,1,696,-4)"></circle></svg>