<svg style="width: 900px; height: 100px;" viewbox="0 0 900 100"><style>
.stroke_order_diagram--outer_container {
  width: 100%;
  overflow-x: auto;
  overflow-y: hidden;
}

.stroke_order_diagram--guide_line {
  fill: none;
  stroke: #ddd;
  stroke-width: 3;
  stroke-linecap: square;
  stroke-linejoin: square;
  stroke-dasharray:8, 8;
}

.stroke_order_diagram--bounding_box {
  fill: none;
  stroke: #ddd;
  stroke-width: 4;
  stroke-linecap: square;
  stroke-linejoin: square;
}

.stroke_order_diagram--current_path {
  fill: none;
  stroke: #000;
  stroke-width: 6;
  stroke-linecap: round;
  stroke-linejoin: round;
}

.stroke_order_diagram--existing_path {
  fill: none;
  stroke: #aaa;
  stroke-width: 6;
  stroke-linecap: round;
  stroke-linejoin:round;
}

.stroke_order_diagram--path_start {
  fill: rgba(255, 0, 0, 0.7);
  stroke:none
}</style><desc>Created with Snap</desc><defs></defs><line x1="1" x2="899" y1="1" y2="1" class="stroke_order_diagram--bounding_box"></line><line x1="1" x2="1" y1="1" y2="99" class="stroke_order_diagram--bounding_box"></line><line x1="1" x2="899" y1="99" y2="99" class="stroke_order_diagram--bounding_box"></line><line x1="0" x2="900" y1="50" y2="50" class="stroke_order_diagram--guide_line"></line><line x1="50" x2="50" y1="1" y2="99" class="stroke_order_diagram--guide_line"></line><line x1="99" x2="99" y1="1" y2="99" class="stroke_order_diagram--bounding_box"></line><path id="kvg:0524a-s1" kvg:type="㇑a" d="M35.24,11.25c0.12,0.38,1.67,1.95,1.67,4.34c0,8.16-0.03,21.38-0.03,25.28" transform="matrix(1,0,0,1,-4,-4)" class="stroke_order_diagram--current_path"></path><path id="pathSk2v596cn2oam" kvg:type="㇑a" d="M35.24,11.25c0.12,0.38,1.67,1.95,1.67,4.34c0,8.16-0.03,21.38-0.03,25.28" transform="matrix(1,0,0,1,-4,-4)" class="stroke_order_diagram--current_path"></path><circle cx="35.24" cy="11.25" r="8" class="stroke_order_diagram--path_start" transform="matrix(1,0,0,1,-4,-4)"></circle><line x1="150" x2="150" y1="1" y2="99" class="stroke_order_diagram--guide_line"></line><line x1="199" x2="199" y1="1" y2="99" class="stroke_order_diagram--bounding_box"></line><path id="pathSk2v596cn2oap" kvg:type="㇑a" d="M35.24,11.25c0.12,0.38,1.67,1.95,1.67,4.34c0,8.16-0.03,21.38-0.03,25.28" transform="matrix(1,0,0,1,96,-4)" class="stroke_order_diagram--existing_path"></path><path id="kvg:0524a-s2" kvg:type="㇔" d="M15.62,20.62c3.98,2.91,9.01,9.92,10.01,14.44" transform="matrix(1,0,0,1,96,-4)" class="stroke_order_diagram--current_path"></path><path id="pathSk2v596cn2oar" kvg:type="㇔" d="M15.62,20.62c3.98,2.91,9.01,9.92,10.01,14.44" transform="matrix(1,0,0,1,96,-4)" class="stroke_order_diagram--current_path"></path><circle cx="15.62" cy="20.62" r="8" class="stroke_order_diagram--path_start" transform="matrix(1,0,0,1,96,-4)"></circle><line x1="250" x2="250" y1="1" y2="99" class="stroke_order_diagram--guide_line"></line><line x1="299" x2="299" y1="1" y2="99" class="stroke_order_diagram--bounding_box"></line><path id="pathSk2v596cn2oau" kvg:type="㇑a" d="M35.24,11.25c0.12,0.38,1.67,1.95,1.67,4.34c0,8.16-0.03,21.38-0.03,25.28" transform="matrix(1,0,0,1,196,-4)" class="stroke_order_diagram--existing_path"></path><path id="pathSk2v596cn2oav" kvg:type="㇔" d="M15.62,20.62c3.98,2.91,9.01,9.92,10.01,14.44" transform="matrix(1,0,0,1,196,-4)" class="stroke_order_diagram--existing_path"></path><path id="kvg:0524a-s3" kvg:type="㇒" d="M56.21,17.85c0.09,0.86-0.01,1.69-0.31,2.5c-1.11,3.41-4.49,8.22-8.27,11.67" transform="matrix(1,0,0,1,196,-4)" class="stroke_order_diagram--current_path"></path><path id="pathSk2v596cn2oax" kvg:type="㇒" d="M56.21,17.85c0.09,0.86-0.01,1.69-0.31,2.5c-1.11,3.41-4.49,8.22-8.27,11.67" transform="matrix(1,0,0,1,196,-4)" class="stroke_order_diagram--current_path"></path><circle cx="56.21" cy="17.85" r="8" class="stroke_order_diagram--path_start" transform="matrix(1,0,0,1,196,-4)"></circle><line x1="350" x2="350" y1="1" y2="99" class="stroke_order_diagram--guide_line"></line><line x1="399" x2="399" y1="1" y2="99" class="stroke_order_diagram--bounding_box"></line><path id="pathSk2v596cn2ob0" kvg:type="㇑a" d="M35.24,11.25c0.12,0.38,1.67,1.95,1.67,4.34c0,8.16-0.03,21.38-0.03,25.28" transform="matrix(1,0,0,1,296,-4)" class="stroke_order_diagram--existing_path"></path><path id="pathSk2v596cn2ob1" kvg:type="㇔" d="M15.62,20.62c3.98,2.91,9.01,9.92,10.01,14.44" transform="matrix(1,0,0,1,296,-4)" class="stroke_order_diagram--existing_path"></path><path id="pathSk2v596cn2ob2" kvg:type="㇒" d="M56.21,17.85c0.09,0.86-0.01,1.69-0.31,2.5c-1.11,3.41-4.49,8.22-8.27,11.67" transform="matrix(1,0,0,1,296,-4)" class="stroke_order_diagram--existing_path"></path><path id="kvg:0524a-s4" kvg:type="㇑/㇒" d="M21.86,42.44c0.85,0.85,1.35,1.93,1.35,3.28c0,0.73-0.03,30.34-0.04,44.02c0,3.92-0.01,6.62-0.03,7.08" transform="matrix(1,0,0,1,296,-4)" class="stroke_order_diagram--current_path"></path><path id="pathSk2v596cn2ob4" kvg:type="㇑/㇒" d="M21.86,42.44c0.85,0.85,1.35,1.93,1.35,3.28c0,0.73-0.03,30.34-0.04,44.02c0,3.92-0.01,6.62-0.03,7.08" transform="matrix(1,0,0,1,296,-4)" class="stroke_order_diagram--current_path"></path><circle cx="21.86" cy="42.44" r="8" class="stroke_order_diagram--path_start" transform="matrix(1,0,0,1,296,-4)"></circle><line x1="450" x2="450" y1="1" y2="99" class="stroke_order_diagram--guide_line"></line><line x1="499" x2="499" y1="1" y2="99" class="stroke_order_diagram--bounding_box"></line><path id="pathSk2v596cn2ob7" kvg:type="㇑a" d="M35.24,11.25c0.12,0.38,1.67,1.95,1.67,4.34c0,8.16-0.03,21.38-0.03,25.28" transform="matrix(1,0,0,1,396,-4)" class="stroke_order_diagram--existing_path"></path><path id="pathSk2v596cn2ob8" kvg:type="㇔" d="M15.62,20.62c3.98,2.91,9.01,9.92,10.01,14.44" transform="matrix(1,0,0,1,396,-4)" class="stroke_order_diagram--existing_path"></path><path id="pathSk2v596cn2ob9" kvg:type="㇒" d="M56.21,17.85c0.09,0.86-0.01,1.69-0.31,2.5c-1.11,3.41-4.49,8.22-8.27,11.67" transform="matrix(1,0,0,1,396,-4)" class="stroke_order_diagram--existing_path"></path><path id="pathSk2v596cn2oba" kvg:type="㇑/㇒" d="M21.86,42.44c0.85,0.85,1.35,1.93,1.35,3.28c0,0.73-0.03,30.34-0.04,44.02c0,3.92-0.01,6.62-0.03,7.08" transform="matrix(1,0,0,1,396,-4)" class="stroke_order_diagram--existing_path"></path><path id="kvg:0524a-s5" kvg:type="㇆a" d="M23.81,43.37c4.06-0.62,19.42-3.12,23.23-3.44c2.21-0.18,4.18,1.19,4.18,4.4c0,9.99-0.05,26.65-0.05,45.42c0,11.25-4.97,2.58-6.62,0.96" transform="matrix(1,0,0,1,396,-4)" class="stroke_order_diagram--current_path"></path><path id="pathSk2v596cn2obc" kvg:type="㇆a" d="M23.81,43.37c4.06-0.62,19.42-3.12,23.23-3.44c2.21-0.18,4.18,1.19,4.18,4.4c0,9.99-0.05,26.65-0.05,45.42c0,11.25-4.97,2.58-6.62,0.96" transform="matrix(1,0,0,1,396,-4)" class="stroke_order_diagram--current_path"></path><circle cx="23.81" cy="43.37" r="8" class="stroke_order_diagram--path_start" transform="matrix(1,0,0,1,396,-4)"></circle><line x1="550" x2="550" y1="1" y2="99" class="stroke_order_diagram--guide_line"></line><line x1="599" x2="599" y1="1" y2="99" class="stroke_order_diagram--bounding_box"></line><path id="pathSk2v596cn2obf" kvg:type="㇑a" d="M35.24,11.25c0.12,0.38,1.67,1.95,1.67,4.34c0,8.16-0.03,21.38-0.03,25.28" transform="matrix(1,0,0,1,496,-4)" class="stroke_order_diagram--existing_path"></path><path id="pathSk2v596cn2obg" kvg:type="㇔" d="M15.62,20.62c3.98,2.91,9.01,9.92,10.01,14.44" transform="matrix(1,0,0,1,496,-4)" class="stroke_order_diagram--existing_path"></path><path id="pathSk2v596cn2obh" kvg:type="㇒" d="M56.21,17.85c0.09,0.86-0.01,1.69-0.31,2.5c-1.11,3.41-4.49,8.22-8.27,11.67" transform="matrix(1,0,0,1,496,-4)" class="stroke_order_diagram--existing_path"></path><path id="pathSk2v596cn2obi" kvg:type="㇑/㇒" d="M21.86,42.44c0.85,0.85,1.35,1.93,1.35,3.28c0,0.73-0.03,30.34-0.04,44.02c0,3.92-0.01,6.62-0.03,7.08" transform="matrix(1,0,0,1,496,-4)" class="stroke_order_diagram--existing_path"></path><path id="pathSk2v596cn2obj" kvg:type="㇆a" d="M23.81,43.37c4.06-0.62,19.42-3.12,23.23-3.44c2.21-0.18,4.18,1.19,4.18,4.4c0,9.99-0.05,26.65-0.05,45.42c0,11.25-4.97,2.58-6.62,0.96" transform="matrix(1,0,0,1,496,-4)" class="stroke_order_diagram--existing_path"></path><path id="kvg:0524a-s6" kvg:type="㇐a" d="M24.06,56.94c8.56-1.19,18.31-2.56,26.24-3.28" transform="matrix(1,0,0,1,496,-4)" class="stroke_order_diagram--current_path"></path><path id="pathSk2v596cn2obl" kvg:type="㇐a" d="M24.06,56.94c8.56-1.19,18.31-2.56,26.24-3.28" transform="matrix(1,0,0,1,496,-4)" class="stroke_order_diagram--current_path"></path><circle cx="24.06" cy="56.94" r="8" class="stroke_order_diagram--path_start" transform="matrix(1,0,0,1,496,-4)"></circle><line x1="650" x2="650" y1="1" y2="99" class="stroke_order_diagram--guide_line"></line><line x1="699" x2="699" y1="1" y2="99" class="stroke_order_diagram--bounding_box"></line><path id="pathSk2v596cn2obo" kvg:type="㇑a" d="M35.24,11.25c0.12,0.38,1.67,1.95,1.67,4.34c0,8.16-0.03,21.38-0.03,25.28" transform="matrix(1,0,0,1,596,-4)" class="stroke_order_diagram--existing_path"></path><path id="pathSk2v596cn2obp" kvg:type="㇔" d="M15.62,20.62c3.98,2.91,9.01,9.92,10.01,14.44" transform="matrix(1,0,0,1,596,-4)" class="stroke_order_diagram--existing_path"></path><path id="pathSk2v596cn2obq" kvg:type="㇒" d="M56.21,17.85c0.09,0.86-0.01,1.69-0.31,2.5c-1.11,3.41-4.49,8.22-8.27,11.67" transform="matrix(1,0,0,1,596,-4)" class="stroke_order_diagram--existing_path"></path><path id="pathSk2v596cn2obr" kvg:type="㇑/㇒" d="M21.86,42.44c0.85,0.85,1.35,1.93,1.35,3.28c0,0.73-0.03,30.34-0.04,44.02c0,3.92-0.01,6.62-0.03,7.08" transform="matrix(1,0,0,1,596,-4)" class="stroke_order_diagram--existing_path"></path><path id="pathSk2v596cn2obs" kvg:type="㇆a" d="M23.81,43.37c4.06-0.62,19.42-3.12,23.23-3.44c2.21-0.18,4.18,1.19,4.18,4.4c0,9.99-0.05,26.65-0.05,45.42c0,11.25-4.97,2.58-6.62,0.96" transform="matrix(1,0,0,1,596,-4)" class="stroke_order_diagram--existing_path"></path><path id="pathSk2v596cn2obt" kvg:type="㇐a" d="M24.06,56.94c8.56-1.19,18.31-2.56,26.24-3.28" transform="matrix(1,0,0,1,596,-4)" class="stroke_order_diagram--existing_path"></path><path id="kvg:0524a-s7" kvg:type="㇐a" d="M24.26,71.61c5.89-0.7,19-2.57,25.81-3.03" transform="matrix(1,0,0,1,596,-4)" class="stroke_order_diagram--current_path"></path><path id="pathSk2v596cn2obv" kvg:type="㇐a" d="M24.26,71.61c5.89-0.7,19-2.57,25.81-3.03" transform="matrix(1,0,0,1,596,-4)" class="stroke_order_diagram--current_path"></path><circle cx="24.26" cy="71.61" r="8" class="stroke_order_diagram--path_start" transform="matrix(1,0,0,1,596,-4)"></circle><line x1="750" x2="750" y1="1" y2="99" class="stroke_order_diagram--guide_line"></line><line x1="799" x2="799" y1="1" y2="99" class="stroke_order_diagram--bounding_box"></line><path id="pathSk2v596cn2oby" kvg:type="㇑a" d="M35.24,11.25c0.12,0.38,1.67,1.95,1.67,4.34c0,8.16-0.03,21.38-0.03,25.28" transform="matrix(1,0,0,1,696,-4)" class="stroke_order_diagram--existing_path"></path><path id="pathSk2v596cn2obz" kvg:type="㇔" d="M15.62,20.62c3.98,2.91,9.01,9.92,10.01,14.44" transform="matrix(1,0,0,1,696,-4)" class="stroke_order_diagram--existing_path"></path><path id="pathSk2v596cn2oc0" kvg:type="㇒" d="M56.21,17.85c0.09,0.86-0.01,1.69-0.31,2.5c-1.11,3.41-4.49,8.22-8.27,11.67" transform="matrix(1,0,0,1,696,-4)" class="stroke_order_diagram--existing_path"></path><path id="pathSk2v596cn2oc1" kvg:type="㇑/㇒" d="M21.86,42.44c0.85,0.85,1.35,1.93,1.35,3.28c0,0.73-0.03,30.34-0.04,44.02c0,3.92-0.01,6.62-0.03,7.08" transform="matrix(1,0,0,1,696,-4)" class="stroke_order_diagram--existing_path"></path><path id="pathSk2v596cn2oc2" kvg:type="㇆a" d="M23.81,43.37c4.06-0.62,19.42-3.12,23.23-3.44c2.21-0.18,4.18,1.19,4.18,4.4c0,9.99-0.05,26.65-0.05,45.42c0,11.25-4.97,2.58-6.62,0.96" transform="matrix(1,0,0,1,696,-4)" class="stroke_order_diagram--existing_path"></path><path id="pathSk2v596cn2oc3" kvg:type="㇐a" d="M24.06,56.94c8.56-1.19,18.31-2.56,26.24-3.28" transform="matrix(1,0,0,1,696,-4)" class="stroke_order_diagram--existing_path"></path><path id="pathSk2v596cn2oc4" kvg:type="㇐a" d="M24.26,71.61c5.89-0.7,19-2.57,25.81-3.03" transform="matrix(1,0,0,1,696,-4)" class="stroke_order_diagram--existing_path"></path><path id="kvg:0524a-s8" kvg:type="㇑" d="M70.27,26.83c0.98,0.92,1.76,2.42,1.76,4.52c0,10.53,0.15,23.4,0.05,30.9c-0.04,2.87-0.07,5.13-0.07,6.5" transform="matrix(1,0,0,1,696,-4)" class="stroke_order_diagram--current_path"></path><path id="pathSk2v596cn2oc6" kvg:type="㇑" d="M70.27,26.83c0.98,0.92,1.76,2.42,1.76,4.52c0,10.53,0.15,23.4,0.05,30.9c-0.04,2.87-0.07,5.13-0.07,6.5" transform="matrix(1,0,0,1,696,-4)" class="stroke_order_diagram--current_path"></path><circle cx="70.27" cy="26.83" r="8" class="stroke_order_diagram--path_start" transform="matrix(1,0,0,1,696,-4)"></circle><line x1="850" x2="850" y1="1" y2="99" class="stroke_order_diagram--guide_line"></line><line x1="899" x2="899" y1="1" y2="99" class="stroke_order_diagram--bounding_box"></line><path id="pathSk2v596cn2oc9" kvg:type="㇑a" d="M35.24,11.25c0.12,0.38,1.67,1.95,1.67,4.34c0,8.16-0.03,21.38-0.03,25.28" transform="matrix(1,0,0,1,796,-4)" class="stroke_order_diagram--existing_path"></path><path id="pathSk2v596cn2oca" kvg:type="㇔" d="M15.62,20.62c3.98,2.91,9.01,9.92,10.01,14.44" transform="matrix(1,0,0,1,796,-4)" class="stroke_order_diagram--existing_path"></path><path id="pathSk2v596cn2ocb" kvg:type="㇒" d="M56.21,17.85c0.09,0.86-0.01,1.69-0.31,2.5c-1.11,3.41-4.49,8.22-8.27,11.67" transform="matrix(1,0,0,1,796,-4)" class="stroke_order_diagram--existing_path"></path><path id="pathSk2v596cn2occ" kvg:type="㇑/㇒" d="M21.86,42.44c0.85,0.85,1.35,1.93,1.35,3.28c0,0.73-0.03,30.34-0.04,44.02c0,3.92-0.01,6.62-0.03,7.08" transform="matrix(1,0,0,1,796,-4)" class="stroke_order_diagram--existing_path"></path><path id="pathSk2v596cn2ocd" kvg:type="㇆a" d="M23.81,43.37c4.06-0.62,19.42-3.12,23.23-3.44c2.21-0.18,4.18,1.19,4.18,4.4c0,9.99-0.05,26.65-0.05,45.42c0,11.25-4.97,2.58-6.62,0.96" transform="matrix(1,0,0,1,796,-4)" class="stroke_order_diagram--existing_path"></path><path id="pathSk2v596cn2oce" kvg:type="㇐a" d="M24.06,56.94c8.56-1.19,18.31-2.56,26.24-3.28" transform="matrix(1,0,0,1,796,-4)" class="stroke_order_diagram--existing_path"></path><path id="pathSk2v596cn2ocf" kvg:type="㇐a" d="M24.26,71.61c5.89-0.7,19-2.57,25.81-3.03" transform="matrix(1,0,0,1,796,-4)" class="stroke_order_diagram--existing_path"></path><path id="pathSk2v596cn2ocg" kvg:type="㇑" d="M70.27,26.83c0.98,0.92,1.76,2.42,1.76,4.52c0,10.53,0.15,23.4,0.05,30.9c-0.04,2.87-0.07,5.13-0.07,6.5" transform="matrix(1,0,0,1,796,-4)" class="stroke_order_diagram--existing_path"></path><path id="kvg:0524a-s9" kvg:type="㇚" d="M89.27,13.58c0.98,0.92,1.76,2.17,1.76,4.52c0,14.56-0.01,65.9-0.01,71.12c0,14.91-5.64,5.41-7.96,2.5" transform="matrix(1,0,0,1,796,-4)" class="stroke_order_diagram--current_path"></path><path id="pathSk2v596cn2oci" kvg:type="㇚" d="M89.27,13.58c0.98,0.92,1.76,2.17,1.76,4.52c0,14.56-0.01,65.9-0.01,71.12c0,14.91-5.64,5.41-7.96,2.5" transform="matrix(1,0,0,1,796,-4)" class="stroke_order_diagram--current_path"></path><circle cx="89.27" cy="13.58" r="8" class="stroke_order_diagram--path_start" transform="matrix(1,0,0,1,796,-4)"></circle></svg>