<svg style="width: 400px; height: 100px;" viewbox="0 0 400 100"><style>
.stroke_order_diagram--outer_container {
  width: 100%;
  overflow-x: auto;
  overflow-y: hidden;
}

.stroke_order_diagram--guide_line {
  fill: none;
  stroke: #ddd;
  stroke-width: 3;
  stroke-linecap: square;
  stroke-linejoin: square;
  stroke-dasharray:8, 8;
}

.stroke_order_diagram--bounding_box {
  fill: none;
  stroke: #ddd;
  stroke-width: 4;
  stroke-linecap: square;
  stroke-linejoin: square;
}

.stroke_order_diagram--current_path {
  fill: none;
  stroke: #000;
  stroke-width: 6;
  stroke-linecap: round;
  stroke-linejoin: round;
}

.stroke_order_diagram--existing_path {
  fill: none;
  stroke: #aaa;
  stroke-width: 6;
  stroke-linecap: round;
  stroke-linejoin:round;
}

.stroke_order_diagram--path_start {
  fill: rgba(255, 0, 0, 0.7);
  stroke:none
}</style><desc>Created with Snap</desc><defs></defs><line x1="1" x2="399" y1="1" y2="1" class="stroke_order_diagram--bounding_box"></line><line x1="1" x2="1" y1="1" y2="99" class="stroke_order_diagram--bounding_box"></line><line x1="1" x2="399" y1="99" y2="99" class="stroke_order_diagram--bounding_box"></line><line x1="0" x2="400" y1="50" y2="50" class="stroke_order_diagram--guide_line"></line><line x1="50" x2="50" y1="1" y2="99" class="stroke_order_diagram--guide_line"></line><line x1="99" x2="99" y1="1" y2="99" class="stroke_order_diagram--bounding_box"></line><path id="kvg:05316-s1" kvg:type="㇒" d="M37.25,20.25c0.24,1.93-0.07,4.46-0.83,6.12c-4.89,10.56-11.58,20.95-22.79,33.79" transform="matrix(1,0,0,1,-4,-4)" class="stroke_order_diagram--current_path"></path><path id="pathSk2v596cn5oa" kvg:type="㇒" d="M37.25,20.25c0.24,1.93-0.07,4.46-0.83,6.12c-4.89,10.56-11.58,20.95-22.79,33.79" transform="matrix(1,0,0,1,-4,-4)" class="stroke_order_diagram--current_path"></path><circle cx="37.25" cy="20.25" r="8" class="stroke_order_diagram--path_start" transform="matrix(1,0,0,1,-4,-4)"></circle><line x1="150" x2="150" y1="1" y2="99" class="stroke_order_diagram--guide_line"></line><line x1="199" x2="199" y1="1" y2="99" class="stroke_order_diagram--bounding_box"></line><path id="pathSk2v596cn5od" kvg:type="㇒" d="M37.25,20.25c0.24,1.93-0.07,4.46-0.83,6.12c-4.89,10.56-11.58,20.95-22.79,33.79" transform="matrix(1,0,0,1,96,-4)" class="stroke_order_diagram--existing_path"></path><path id="kvg:05316-s2" kvg:type="㇑" d="M29.03,44.25c0.97,1.38,1.26,2.98,1.26,4.25c0,12.12,0.1,28.67-0.17,40C30.05,91.52,30,94.11,30,96" transform="matrix(1,0,0,1,96,-4)" class="stroke_order_diagram--current_path"></path><path id="pathSk2v596cn5of" kvg:type="㇑" d="M29.03,44.25c0.97,1.38,1.26,2.98,1.26,4.25c0,12.12,0.1,28.67-0.17,40C30.05,91.52,30,94.11,30,96" transform="matrix(1,0,0,1,96,-4)" class="stroke_order_diagram--current_path"></path><circle cx="29.03" cy="44.25" r="8" class="stroke_order_diagram--path_start" transform="matrix(1,0,0,1,96,-4)"></circle><line x1="250" x2="250" y1="1" y2="99" class="stroke_order_diagram--guide_line"></line><line x1="299" x2="299" y1="1" y2="99" class="stroke_order_diagram--bounding_box"></line><path id="pathSk2v596cn5oi" kvg:type="㇒" d="M37.25,20.25c0.24,1.93-0.07,4.46-0.83,6.12c-4.89,10.56-11.58,20.95-22.79,33.79" transform="matrix(1,0,0,1,196,-4)" class="stroke_order_diagram--existing_path"></path><path id="pathSk2v596cn5oj" kvg:type="㇑" d="M29.03,44.25c0.97,1.38,1.26,2.98,1.26,4.25c0,12.12,0.1,28.67-0.17,40C30.05,91.52,30,94.11,30,96" transform="matrix(1,0,0,1,196,-4)" class="stroke_order_diagram--existing_path"></path><path id="kvg:05316-s3" kvg:type="㇒" d="M89.25,29.25c0,1.66-0.79,2.93-2.25,4.5c-4.62,4.98-15.38,12.5-25.5,15.98" transform="matrix(1,0,0,1,196,-4)" class="stroke_order_diagram--current_path"></path><path id="pathSk2v596cn5ol" kvg:type="㇒" d="M89.25,29.25c0,1.66-0.79,2.93-2.25,4.5c-4.62,4.98-15.38,12.5-25.5,15.98" transform="matrix(1,0,0,1,196,-4)" class="stroke_order_diagram--current_path"></path><circle cx="89.25" cy="29.25" r="8" class="stroke_order_diagram--path_start" transform="matrix(1,0,0,1,196,-4)"></circle><line x1="350" x2="350" y1="1" y2="99" class="stroke_order_diagram--guide_line"></line><line x1="399" x2="399" y1="1" y2="99" class="stroke_order_diagram--bounding_box"></line><path id="pathSk2v596cn5oo" kvg:type="㇒" d="M37.25,20.25c0.24,1.93-0.07,4.46-0.83,6.12c-4.89,10.56-11.58,20.95-22.79,33.79" transform="matrix(1,0,0,1,296,-4)" class="stroke_order_diagram--existing_path"></path><path id="pathSk2v596cn5op" kvg:type="㇑" d="M29.03,44.25c0.97,1.38,1.26,2.98,1.26,4.25c0,12.12,0.1,28.67-0.17,40C30.05,91.52,30,94.11,30,96" transform="matrix(1,0,0,1,296,-4)" class="stroke_order_diagram--existing_path"></path><path id="pathSk2v596cn5oq" kvg:type="㇒" d="M89.25,29.25c0,1.66-0.79,2.93-2.25,4.5c-4.62,4.98-15.38,12.5-25.5,15.98" transform="matrix(1,0,0,1,296,-4)" class="stroke_order_diagram--existing_path"></path><path id="kvg:05316-s4" kvg:type="㇟" d="M56.75,15.25c1.25,1,1.75,2.65,1.75,4.21c0,3.66,0.07,36.46,0.07,54.49c0,19.3,1.18,19.87,18.93,19.87c16.25,0,17.75-1.7,17.75-11.57" transform="matrix(1,0,0,1,296,-4)" class="stroke_order_diagram--current_path"></path><path id="pathSk2v596cn5os" kvg:type="㇟" d="M56.75,15.25c1.25,1,1.75,2.65,1.75,4.21c0,3.66,0.07,36.46,0.07,54.49c0,19.3,1.18,19.87,18.93,19.87c16.25,0,17.75-1.7,17.75-11.57" transform="matrix(1,0,0,1,296,-4)" class="stroke_order_diagram--current_path"></path><circle cx="56.75" cy="15.25" r="8" class="stroke_order_diagram--path_start" transform="matrix(1,0,0,1,296,-4)"></circle></svg>