<svg style="width: 800px; height: 100px;" viewbox="0 0 800 100"><style>
.stroke_order_diagram--outer_container {
  width: 100%;
  overflow-x: auto;
  overflow-y: hidden;
}

.stroke_order_diagram--guide_line {
  fill: none;
  stroke: #ddd;
  stroke-width: 3;
  stroke-linecap: square;
  stroke-linejoin: square;
  stroke-dasharray:8, 8;
}

.stroke_order_diagram--bounding_box {
  fill: none;
  stroke: #ddd;
  stroke-width: 4;
  stroke-linecap: square;
  stroke-linejoin: square;
}

.stroke_order_diagram--current_path {
  fill: none;
  stroke: #000;
  stroke-width: 6;
  stroke-linecap: round;
  stroke-linejoin: round;
}

.stroke_order_diagram--existing_path {
  fill: none;
  stroke: #aaa;
  stroke-width: 6;
  stroke-linecap: round;
  stroke-linejoin:round;
}

.stroke_order_diagram--path_start {
  fill: rgba(255, 0, 0, 0.7);
  stroke:none
}</style><desc>Created with Snap</desc><defs></defs><line x1="1" x2="799" y1="1" y2="1" class="stroke_order_diagram--bounding_box"></line><line x1="1" x2="1" y1="1" y2="99" class="stroke_order_diagram--bounding_box"></line><line x1="1" x2="799" y1="99" y2="99" class="stroke_order_diagram--bounding_box"></line><line x1="0" x2="800" y1="50" y2="50" class="stroke_order_diagram--guide_line"></line><line x1="50" x2="50" y1="1" y2="99" class="stroke_order_diagram--guide_line"></line><line x1="99" x2="99" y1="1" y2="99" class="stroke_order_diagram--bounding_box"></line><path id="kvg:05353-s1" kvg:type="㇑a" d="M52.81,11.13c0.9,0.9,1.51,2.12,1.51,3.37c0,0.67,0,12.75,0,19.13" transform="matrix(1,0,0,1,-4,-4)" class="stroke_order_diagram--current_path"></path><path id="pathSk2v596cn3dkl" kvg:type="㇑a" d="M52.81,11.13c0.9,0.9,1.51,2.12,1.51,3.37c0,0.67,0,12.75,0,19.13" transform="matrix(1,0,0,1,-4,-4)" class="stroke_order_diagram--current_path"></path><circle cx="52.81" cy="11.13" r="8" class="stroke_order_diagram--path_start" transform="matrix(1,0,0,1,-4,-4)"></circle><line x1="150" x2="150" y1="1" y2="99" class="stroke_order_diagram--guide_line"></line><line x1="199" x2="199" y1="1" y2="99" class="stroke_order_diagram--bounding_box"></line><path id="pathSk2v596cn3dko" kvg:type="㇑a" d="M52.81,11.13c0.9,0.9,1.51,2.12,1.51,3.37c0,0.67,0,12.75,0,19.13" transform="matrix(1,0,0,1,96,-4)" class="stroke_order_diagram--existing_path"></path><path id="kvg:05353-s2" kvg:type="㇐b" d="M57,24.5c3.62-0.62,8.38-1.5,15.25-2.77c2.08-0.38,3.76-0.4,5-0.48" transform="matrix(1,0,0,1,96,-4)" class="stroke_order_diagram--current_path"></path><path id="pathSk2v596cn3dkq" kvg:type="㇐b" d="M57,24.5c3.62-0.62,8.38-1.5,15.25-2.77c2.08-0.38,3.76-0.4,5-0.48" transform="matrix(1,0,0,1,96,-4)" class="stroke_order_diagram--current_path"></path><circle cx="57" cy="24.5" r="8" class="stroke_order_diagram--path_start" transform="matrix(1,0,0,1,96,-4)"></circle><line x1="250" x2="250" y1="1" y2="99" class="stroke_order_diagram--guide_line"></line><line x1="299" x2="299" y1="1" y2="99" class="stroke_order_diagram--bounding_box"></line><path id="pathSk2v596cn3dkt" kvg:type="㇑a" d="M52.81,11.13c0.9,0.9,1.51,2.12,1.51,3.37c0,0.67,0,12.75,0,19.13" transform="matrix(1,0,0,1,196,-4)" class="stroke_order_diagram--existing_path"></path><path id="pathSk2v596cn3dku" kvg:type="㇐b" d="M57,24.5c3.62-0.62,8.38-1.5,15.25-2.77c2.08-0.38,3.76-0.4,5-0.48" transform="matrix(1,0,0,1,196,-4)" class="stroke_order_diagram--existing_path"></path><path id="kvg:05353-s3" kvg:type="㇑" d="M33.91,35.78c1.03,1.03,1.47,2.36,1.7,4c0.5,3.47,1.96,13.09,2.61,19.19c0.19,1.76,0.3,3.19,0.31,4.03" transform="matrix(1,0,0,1,196,-4)" class="stroke_order_diagram--current_path"></path><path id="pathSk2v596cn3dkw" kvg:type="㇑" d="M33.91,35.78c1.03,1.03,1.47,2.36,1.7,4c0.5,3.47,1.96,13.09,2.61,19.19c0.19,1.76,0.3,3.19,0.31,4.03" transform="matrix(1,0,0,1,196,-4)" class="stroke_order_diagram--current_path"></path><circle cx="33.91" cy="35.78" r="8" class="stroke_order_diagram--path_start" transform="matrix(1,0,0,1,196,-4)"></circle><line x1="350" x2="350" y1="1" y2="99" class="stroke_order_diagram--guide_line"></line><line x1="399" x2="399" y1="1" y2="99" class="stroke_order_diagram--bounding_box"></line><path id="pathSk2v596cn3dkz" kvg:type="㇑a" d="M52.81,11.13c0.9,0.9,1.51,2.12,1.51,3.37c0,0.67,0,12.75,0,19.13" transform="matrix(1,0,0,1,296,-4)" class="stroke_order_diagram--existing_path"></path><path id="pathSk2v596cn3dl0" kvg:type="㇐b" d="M57,24.5c3.62-0.62,8.38-1.5,15.25-2.77c2.08-0.38,3.76-0.4,5-0.48" transform="matrix(1,0,0,1,296,-4)" class="stroke_order_diagram--existing_path"></path><path id="pathSk2v596cn3dl1" kvg:type="㇑" d="M33.91,35.78c1.03,1.03,1.47,2.36,1.7,4c0.5,3.47,1.96,13.09,2.61,19.19c0.19,1.76,0.3,3.19,0.31,4.03" transform="matrix(1,0,0,1,296,-4)" class="stroke_order_diagram--existing_path"></path><path id="kvg:05353-s4" kvg:type="㇕a" d="M35.8,37.03c4.92-0.66,27.99-3.46,37.2-4c4.18-0.24,6.48,0.56,5.51,5.25c-0.76,3.69-2.09,10.51-3.22,16.28c-0.35,1.77-0.72,3.44-1.13,4.89" transform="matrix(1,0,0,1,296,-4)" class="stroke_order_diagram--current_path"></path><path id="pathSk2v596cn3dl3" kvg:type="㇕a" d="M35.8,37.03c4.92-0.66,27.99-3.46,37.2-4c4.18-0.24,6.48,0.56,5.51,5.25c-0.76,3.69-2.09,10.51-3.22,16.28c-0.35,1.77-0.72,3.44-1.13,4.89" transform="matrix(1,0,0,1,296,-4)" class="stroke_order_diagram--current_path"></path><circle cx="35.8" cy="37.03" r="8" class="stroke_order_diagram--path_start" transform="matrix(1,0,0,1,296,-4)"></circle><line x1="450" x2="450" y1="1" y2="99" class="stroke_order_diagram--guide_line"></line><line x1="499" x2="499" y1="1" y2="99" class="stroke_order_diagram--bounding_box"></line><path id="pathSk2v596cn3dl6" kvg:type="㇑a" d="M52.81,11.13c0.9,0.9,1.51,2.12,1.51,3.37c0,0.67,0,12.75,0,19.13" transform="matrix(1,0,0,1,396,-4)" class="stroke_order_diagram--existing_path"></path><path id="pathSk2v596cn3dl7" kvg:type="㇐b" d="M57,24.5c3.62-0.62,8.38-1.5,15.25-2.77c2.08-0.38,3.76-0.4,5-0.48" transform="matrix(1,0,0,1,396,-4)" class="stroke_order_diagram--existing_path"></path><path id="pathSk2v596cn3dl8" kvg:type="㇑" d="M33.91,35.78c1.03,1.03,1.47,2.36,1.7,4c0.5,3.47,1.96,13.09,2.61,19.19c0.19,1.76,0.3,3.19,0.31,4.03" transform="matrix(1,0,0,1,396,-4)" class="stroke_order_diagram--existing_path"></path><path id="pathSk2v596cn3dl9" kvg:type="㇕a" d="M35.8,37.03c4.92-0.66,27.99-3.46,37.2-4c4.18-0.24,6.48,0.56,5.51,5.25c-0.76,3.69-2.09,10.51-3.22,16.28c-0.35,1.77-0.72,3.44-1.13,4.89" transform="matrix(1,0,0,1,396,-4)" class="stroke_order_diagram--existing_path"></path><path id="kvg:05353-s5" kvg:type="㇐a" d="M37.39,48.2c9.11-1.08,28.11-2.7,38.35-3.09" transform="matrix(1,0,0,1,396,-4)" class="stroke_order_diagram--current_path"></path><path id="pathSk2v596cn3dlb" kvg:type="㇐a" d="M37.39,48.2c9.11-1.08,28.11-2.7,38.35-3.09" transform="matrix(1,0,0,1,396,-4)" class="stroke_order_diagram--current_path"></path><circle cx="37.39" cy="48.2" r="8" class="stroke_order_diagram--path_start" transform="matrix(1,0,0,1,396,-4)"></circle><line x1="550" x2="550" y1="1" y2="99" class="stroke_order_diagram--guide_line"></line><line x1="599" x2="599" y1="1" y2="99" class="stroke_order_diagram--bounding_box"></line><path id="pathSk2v596cn3dle" kvg:type="㇑a" d="M52.81,11.13c0.9,0.9,1.51,2.12,1.51,3.37c0,0.67,0,12.75,0,19.13" transform="matrix(1,0,0,1,496,-4)" class="stroke_order_diagram--existing_path"></path><path id="pathSk2v596cn3dlf" kvg:type="㇐b" d="M57,24.5c3.62-0.62,8.38-1.5,15.25-2.77c2.08-0.38,3.76-0.4,5-0.48" transform="matrix(1,0,0,1,496,-4)" class="stroke_order_diagram--existing_path"></path><path id="pathSk2v596cn3dlg" kvg:type="㇑" d="M33.91,35.78c1.03,1.03,1.47,2.36,1.7,4c0.5,3.47,1.96,13.09,2.61,19.19c0.19,1.76,0.3,3.19,0.31,4.03" transform="matrix(1,0,0,1,496,-4)" class="stroke_order_diagram--existing_path"></path><path id="pathSk2v596cn3dlh" kvg:type="㇕a" d="M35.8,37.03c4.92-0.66,27.99-3.46,37.2-4c4.18-0.24,6.48,0.56,5.51,5.25c-0.76,3.69-2.09,10.51-3.22,16.28c-0.35,1.77-0.72,3.44-1.13,4.89" transform="matrix(1,0,0,1,496,-4)" class="stroke_order_diagram--existing_path"></path><path id="pathSk2v596cn3dli" kvg:type="㇐a" d="M37.39,48.2c9.11-1.08,28.11-2.7,38.35-3.09" transform="matrix(1,0,0,1,496,-4)" class="stroke_order_diagram--existing_path"></path><path id="kvg:05353-s6" kvg:type="㇐a" d="M39.51,60.27c11.99-1.39,25.99-2.39,34.22-2.69" transform="matrix(1,0,0,1,496,-4)" class="stroke_order_diagram--current_path"></path><path id="pathSk2v596cn3dlk" kvg:type="㇐a" d="M39.51,60.27c11.99-1.39,25.99-2.39,34.22-2.69" transform="matrix(1,0,0,1,496,-4)" class="stroke_order_diagram--current_path"></path><circle cx="39.51" cy="60.27" r="8" class="stroke_order_diagram--path_start" transform="matrix(1,0,0,1,496,-4)"></circle><line x1="650" x2="650" y1="1" y2="99" class="stroke_order_diagram--guide_line"></line><line x1="699" x2="699" y1="1" y2="99" class="stroke_order_diagram--bounding_box"></line><path id="pathSk2v596cn3dln" kvg:type="㇑a" d="M52.81,11.13c0.9,0.9,1.51,2.12,1.51,3.37c0,0.67,0,12.75,0,19.13" transform="matrix(1,0,0,1,596,-4)" class="stroke_order_diagram--existing_path"></path><path id="pathSk2v596cn3dlo" kvg:type="㇐b" d="M57,24.5c3.62-0.62,8.38-1.5,15.25-2.77c2.08-0.38,3.76-0.4,5-0.48" transform="matrix(1,0,0,1,596,-4)" class="stroke_order_diagram--existing_path"></path><path id="pathSk2v596cn3dlp" kvg:type="㇑" d="M33.91,35.78c1.03,1.03,1.47,2.36,1.7,4c0.5,3.47,1.96,13.09,2.61,19.19c0.19,1.76,0.3,3.19,0.31,4.03" transform="matrix(1,0,0,1,596,-4)" class="stroke_order_diagram--existing_path"></path><path id="pathSk2v596cn3dlq" kvg:type="㇕a" d="M35.8,37.03c4.92-0.66,27.99-3.46,37.2-4c4.18-0.24,6.48,0.56,5.51,5.25c-0.76,3.69-2.09,10.51-3.22,16.28c-0.35,1.77-0.72,3.44-1.13,4.89" transform="matrix(1,0,0,1,596,-4)" class="stroke_order_diagram--existing_path"></path><path id="pathSk2v596cn3dlr" kvg:type="㇐a" d="M37.39,48.2c9.11-1.08,28.11-2.7,38.35-3.09" transform="matrix(1,0,0,1,596,-4)" class="stroke_order_diagram--existing_path"></path><path id="pathSk2v596cn3dls" kvg:type="㇐a" d="M39.51,60.27c11.99-1.39,25.99-2.39,34.22-2.69" transform="matrix(1,0,0,1,596,-4)" class="stroke_order_diagram--existing_path"></path><path id="kvg:05353-s7" kvg:type="㇐" d="M16.63,75.66c2.77,0.89,6.52,0.7,9.37,0.41c16.1-1.63,46.09-3.65,60-3.98c3.23-0.08,6.21,0.05,9.38,0.66" transform="matrix(1,0,0,1,596,-4)" class="stroke_order_diagram--current_path"></path><path id="pathSk2v596cn3dlu" kvg:type="㇐" d="M16.63,75.66c2.77,0.89,6.52,0.7,9.37,0.41c16.1-1.63,46.09-3.65,60-3.98c3.23-0.08,6.21,0.05,9.38,0.66" transform="matrix(1,0,0,1,596,-4)" class="stroke_order_diagram--current_path"></path><circle cx="16.63" cy="75.66" r="8" class="stroke_order_diagram--path_start" transform="matrix(1,0,0,1,596,-4)"></circle><line x1="750" x2="750" y1="1" y2="99" class="stroke_order_diagram--guide_line"></line><line x1="799" x2="799" y1="1" y2="99" class="stroke_order_diagram--bounding_box"></line><path id="pathSk2v596cn3dlx" kvg:type="㇑a" d="M52.81,11.13c0.9,0.9,1.51,2.12,1.51,3.37c0,0.67,0,12.75,0,19.13" transform="matrix(1,0,0,1,696,-4)" class="stroke_order_diagram--existing_path"></path><path id="pathSk2v596cn3dly" kvg:type="㇐b" d="M57,24.5c3.62-0.62,8.38-1.5,15.25-2.77c2.08-0.38,3.76-0.4,5-0.48" transform="matrix(1,0,0,1,696,-4)" class="stroke_order_diagram--existing_path"></path><path id="pathSk2v596cn3dlz" kvg:type="㇑" d="M33.91,35.78c1.03,1.03,1.47,2.36,1.7,4c0.5,3.47,1.96,13.09,2.61,19.19c0.19,1.76,0.3,3.19,0.31,4.03" transform="matrix(1,0,0,1,696,-4)" class="stroke_order_diagram--existing_path"></path><path id="pathSk2v596cn3dm0" kvg:type="㇕a" d="M35.8,37.03c4.92-0.66,27.99-3.46,37.2-4c4.18-0.24,6.48,0.56,5.51,5.25c-0.76,3.69-2.09,10.51-3.22,16.28c-0.35,1.77-0.72,3.44-1.13,4.89" transform="matrix(1,0,0,1,696,-4)" class="stroke_order_diagram--existing_path"></path><path id="pathSk2v596cn3dm1" kvg:type="㇐a" d="M37.39,48.2c9.11-1.08,28.11-2.7,38.35-3.09" transform="matrix(1,0,0,1,696,-4)" class="stroke_order_diagram--existing_path"></path><path id="pathSk2v596cn3dm2" kvg:type="㇐a" d="M39.51,60.27c11.99-1.39,25.99-2.39,34.22-2.69" transform="matrix(1,0,0,1,696,-4)" class="stroke_order_diagram--existing_path"></path><path id="pathSk2v596cn3dm3" kvg:type="㇐" d="M16.63,75.66c2.77,0.89,6.52,0.7,9.37,0.41c16.1-1.63,46.09-3.65,60-3.98c3.23-0.08,6.21,0.05,9.38,0.66" transform="matrix(1,0,0,1,696,-4)" class="stroke_order_diagram--existing_path"></path><path id="kvg:05353-s8" kvg:type="㇑" d="M54.73,61.25c1.13,1.13,1.22,2.38,1.22,4.24c0,0.87,0.07,16.75-0.01,27.01c-0.02,2.74-0.04,5.05-0.06,6.5" transform="matrix(1,0,0,1,696,-4)" class="stroke_order_diagram--current_path"></path><path id="pathSk2v596cn3dm5" kvg:type="㇑" d="M54.73,61.25c1.13,1.13,1.22,2.38,1.22,4.24c0,0.87,0.07,16.75-0.01,27.01c-0.02,2.74-0.04,5.05-0.06,6.5" transform="matrix(1,0,0,1,696,-4)" class="stroke_order_diagram--current_path"></path><circle cx="54.73" cy="61.25" r="8" class="stroke_order_diagram--path_start" transform="matrix(1,0,0,1,696,-4)"></circle></svg>