<svg style="width: 400px; height: 100px;" viewbox="0 0 400 100"><style>
.stroke_order_diagram--outer_container {
  width: 100%;
  overflow-x: auto;
  overflow-y: hidden;
}

.stroke_order_diagram--guide_line {
  fill: none;
  stroke: #ddd;
  stroke-width: 3;
  stroke-linecap: square;
  stroke-linejoin: square;
  stroke-dasharray:8, 8;
}

.stroke_order_diagram--bounding_box {
  fill: none;
  stroke: #ddd;
  stroke-width: 4;
  stroke-linecap: square;
  stroke-linejoin: square;
}

.stroke_order_diagram--current_path {
  fill: none;
  stroke: #000;
  stroke-width: 6;
  stroke-linecap: round;
  stroke-linejoin: round;
}

.stroke_order_diagram--existing_path {
  fill: none;
  stroke: #aaa;
  stroke-width: 6;
  stroke-linecap: round;
  stroke-linejoin:round;
}

.stroke_order_diagram--path_start {
  fill: rgba(255, 0, 0, 0.7);
  stroke:none
}</style><desc>Created with Snap</desc><defs></defs><line x1="1" x2="399" y1="1" y2="1" class="stroke_order_diagram--bounding_box"></line><line x1="1" x2="1" y1="1" y2="99" class="stroke_order_diagram--bounding_box"></line><line x1="1" x2="399" y1="99" y2="99" class="stroke_order_diagram--bounding_box"></line><line x1="0" x2="400" y1="50" y2="50" class="stroke_order_diagram--guide_line"></line><line x1="50" x2="50" y1="1" y2="99" class="stroke_order_diagram--guide_line"></line><line x1="99" x2="99" y1="1" y2="99" class="stroke_order_diagram--bounding_box"></line><path id="kvg:053cd-s1" kvg:type="㇐" d="M28.13,22.29c1.84,0.48,5.22,0.64,7.06,0.48C50,21.5,64.62,19.12,79.06,18.04c3.06-0.23,4.91-0.02,6.44,0.22" transform="matrix(1,0,0,1,-4,-4)" class="stroke_order_diagram--current_path"></path><path id="pathSk2v596cn9w6" kvg:type="㇐" d="M28.13,22.29c1.84,0.48,5.22,0.64,7.06,0.48C50,21.5,64.62,19.12,79.06,18.04c3.06-0.23,4.91-0.02,6.44,0.22" transform="matrix(1,0,0,1,-4,-4)" class="stroke_order_diagram--current_path"></path><circle cx="28.13" cy="22.29" r="8" class="stroke_order_diagram--path_start" transform="matrix(1,0,0,1,-4,-4)"></circle><line x1="150" x2="150" y1="1" y2="99" class="stroke_order_diagram--guide_line"></line><line x1="199" x2="199" y1="1" y2="99" class="stroke_order_diagram--bounding_box"></line><path id="pathSk2v596cn9w9" kvg:type="㇐" d="M28.13,22.29c1.84,0.48,5.22,0.64,7.06,0.48C50,21.5,64.62,19.12,79.06,18.04c3.06-0.23,4.91-0.02,6.44,0.22" transform="matrix(1,0,0,1,96,-4)" class="stroke_order_diagram--existing_path"></path><path id="kvg:053cd-s2" kvg:type="㇒" d="M31.24,23c1.13,1.13,1.49,2.69,1.4,4.89C31.75,50,29.62,73.25,15.81,89.47" transform="matrix(1,0,0,1,96,-4)" class="stroke_order_diagram--current_path"></path><path id="pathSk2v596cn9wb" kvg:type="㇒" d="M31.24,23c1.13,1.13,1.49,2.69,1.4,4.89C31.75,50,29.62,73.25,15.81,89.47" transform="matrix(1,0,0,1,96,-4)" class="stroke_order_diagram--current_path"></path><circle cx="31.24" cy="23" r="8" class="stroke_order_diagram--path_start" transform="matrix(1,0,0,1,96,-4)"></circle><line x1="250" x2="250" y1="1" y2="99" class="stroke_order_diagram--guide_line"></line><line x1="299" x2="299" y1="1" y2="99" class="stroke_order_diagram--bounding_box"></line><path id="pathSk2v596cn9we" kvg:type="㇐" d="M28.13,22.29c1.84,0.48,5.22,0.64,7.06,0.48C50,21.5,64.62,19.12,79.06,18.04c3.06-0.23,4.91-0.02,6.44,0.22" transform="matrix(1,0,0,1,196,-4)" class="stroke_order_diagram--existing_path"></path><path id="pathSk2v596cn9wf" kvg:type="㇒" d="M31.24,23c1.13,1.13,1.49,2.69,1.4,4.89C31.75,50,29.62,73.25,15.81,89.47" transform="matrix(1,0,0,1,196,-4)" class="stroke_order_diagram--existing_path"></path><path id="kvg:053cd-s3" kvg:type="㇇" d="M35.09,43.98c1.81,0.37,2.76,0.74,6.4,0.37C49.88,43.5,66.25,40,70.83,38.7c3.42-0.97,5.17,1.43,3.89,4.31C64.06,66.95,51.88,83.25,26,93.51" transform="matrix(1,0,0,1,196,-4)" class="stroke_order_diagram--current_path"></path><path id="pathSk2v596cn9wh" kvg:type="㇇" d="M35.09,43.98c1.81,0.37,2.76,0.74,6.4,0.37C49.88,43.5,66.25,40,70.83,38.7c3.42-0.97,5.17,1.43,3.89,4.31C64.06,66.95,51.88,83.25,26,93.51" transform="matrix(1,0,0,1,196,-4)" class="stroke_order_diagram--current_path"></path><circle cx="35.09" cy="43.98" r="8" class="stroke_order_diagram--path_start" transform="matrix(1,0,0,1,196,-4)"></circle><line x1="350" x2="350" y1="1" y2="99" class="stroke_order_diagram--guide_line"></line><line x1="399" x2="399" y1="1" y2="99" class="stroke_order_diagram--bounding_box"></line><path id="pathSk2v596cn9wk" kvg:type="㇐" d="M28.13,22.29c1.84,0.48,5.22,0.64,7.06,0.48C50,21.5,64.62,19.12,79.06,18.04c3.06-0.23,4.91-0.02,6.44,0.22" transform="matrix(1,0,0,1,296,-4)" class="stroke_order_diagram--existing_path"></path><path id="pathSk2v596cn9wl" kvg:type="㇒" d="M31.24,23c1.13,1.13,1.49,2.69,1.4,4.89C31.75,50,29.62,73.25,15.81,89.47" transform="matrix(1,0,0,1,296,-4)" class="stroke_order_diagram--existing_path"></path><path id="pathSk2v596cn9wm" kvg:type="㇇" d="M35.09,43.98c1.81,0.37,2.76,0.74,6.4,0.37C49.88,43.5,66.25,40,70.83,38.7c3.42-0.97,5.17,1.43,3.89,4.31C64.06,66.95,51.88,83.25,26,93.51" transform="matrix(1,0,0,1,296,-4)" class="stroke_order_diagram--existing_path"></path><path id="kvg:053cd-s4" kvg:type="㇏" d="M37.5,52.82c5.09,0.96,28.95,25.78,46.67,36.36c2.76,1.65,4.77,2.74,7.33,3.29" transform="matrix(1,0,0,1,296,-4)" class="stroke_order_diagram--current_path"></path><path id="pathSk2v596cn9wo" kvg:type="㇏" d="M37.5,52.82c5.09,0.96,28.95,25.78,46.67,36.36c2.76,1.65,4.77,2.74,7.33,3.29" transform="matrix(1,0,0,1,296,-4)" class="stroke_order_diagram--current_path"></path><circle cx="37.5" cy="52.82" r="8" class="stroke_order_diagram--path_start" transform="matrix(1,0,0,1,296,-4)"></circle></svg>