<svg style="width: 500px; height: 100px;" viewbox="0 0 500 100"><style>
.stroke_order_diagram--outer_container {
  width: 100%;
  overflow-x: auto;
  overflow-y: hidden;
}

.stroke_order_diagram--guide_line {
  fill: none;
  stroke: #ddd;
  stroke-width: 3;
  stroke-linecap: square;
  stroke-linejoin: square;
  stroke-dasharray:8, 8;
}

.stroke_order_diagram--bounding_box {
  fill: none;
  stroke: #ddd;
  stroke-width: 4;
  stroke-linecap: square;
  stroke-linejoin: square;
}

.stroke_order_diagram--current_path {
  fill: none;
  stroke: #000;
  stroke-width: 6;
  stroke-linecap: round;
  stroke-linejoin: round;
}

.stroke_order_diagram--existing_path {
  fill: none;
  stroke: #aaa;
  stroke-width: 6;
  stroke-linecap: round;
  stroke-linejoin:round;
}

.stroke_order_diagram--path_start {
  fill: rgba(255, 0, 0, 0.7);
  stroke:none
}</style><desc>Created with Snap</desc><defs></defs><line x1="1" x2="499" y1="1" y2="1" class="stroke_order_diagram--bounding_box"></line><line x1="1" x2="1" y1="1" y2="99" class="stroke_order_diagram--bounding_box"></line><line x1="1" x2="499" y1="99" y2="99" class="stroke_order_diagram--bounding_box"></line><line x1="0" x2="500" y1="50" y2="50" class="stroke_order_diagram--guide_line"></line><line x1="50" x2="50" y1="1" y2="99" class="stroke_order_diagram--guide_line"></line><line x1="99" x2="99" y1="1" y2="99" class="stroke_order_diagram--bounding_box"></line><path id="kvg:053e5-s1" kvg:type="㇒" d="M39.5,11.25c0.06,0.9-0.17,2.14-0.63,3.38C36,22.5,27.38,37.12,15.75,48.38" transform="matrix(1,0,0,1,-4,-4)" class="stroke_order_diagram--current_path"></path><path id="pathSk2v596cn13iw" kvg:type="㇒" d="M39.5,11.25c0.06,0.9-0.17,2.14-0.63,3.38C36,22.5,27.38,37.12,15.75,48.38" transform="matrix(1,0,0,1,-4,-4)" class="stroke_order_diagram--current_path"></path><circle cx="39.5" cy="11.25" r="8" class="stroke_order_diagram--path_start" transform="matrix(1,0,0,1,-4,-4)"></circle><line x1="150" x2="150" y1="1" y2="99" class="stroke_order_diagram--guide_line"></line><line x1="199" x2="199" y1="1" y2="99" class="stroke_order_diagram--bounding_box"></line><path id="pathSk2v596cn13iz" kvg:type="㇒" d="M39.5,11.25c0.06,0.9-0.17,2.14-0.63,3.38C36,22.5,27.38,37.12,15.75,48.38" transform="matrix(1,0,0,1,96,-4)" class="stroke_order_diagram--existing_path"></path><path id="kvg:053e5-s2" kvg:type="㇆" d="M34.75,30.25c2.87,0.9,5.72,0.6,8.63,0.14c8.82-1.39,35.97-6.05,40.37-6.64c4.62-0.62,6.73,0.49,6.5,5.25c-0.5,10.25-4.5,45.25-14,64.75c-2.37,4.86-5.05,1.88-8-1.25" transform="matrix(1,0,0,1,96,-4)" class="stroke_order_diagram--current_path"></path><path id="pathSk2v596cn13j1" kvg:type="㇆" d="M34.75,30.25c2.87,0.9,5.72,0.6,8.63,0.14c8.82-1.39,35.97-6.05,40.37-6.64c4.62-0.62,6.73,0.49,6.5,5.25c-0.5,10.25-4.5,45.25-14,64.75c-2.37,4.86-5.05,1.88-8-1.25" transform="matrix(1,0,0,1,96,-4)" class="stroke_order_diagram--current_path"></path><circle cx="34.75" cy="30.25" r="8" class="stroke_order_diagram--path_start" transform="matrix(1,0,0,1,96,-4)"></circle><line x1="250" x2="250" y1="1" y2="99" class="stroke_order_diagram--guide_line"></line><line x1="299" x2="299" y1="1" y2="99" class="stroke_order_diagram--bounding_box"></line><path id="pathSk2v596cn13j4" kvg:type="㇒" d="M39.5,11.25c0.06,0.9-0.17,2.14-0.63,3.38C36,22.5,27.38,37.12,15.75,48.38" transform="matrix(1,0,0,1,196,-4)" class="stroke_order_diagram--existing_path"></path><path id="pathSk2v596cn13j5" kvg:type="㇆" d="M34.75,30.25c2.87,0.9,5.72,0.6,8.63,0.14c8.82-1.39,35.97-6.05,40.37-6.64c4.62-0.62,6.73,0.49,6.5,5.25c-0.5,10.25-4.5,45.25-14,64.75c-2.37,4.86-5.05,1.88-8-1.25" transform="matrix(1,0,0,1,196,-4)" class="stroke_order_diagram--existing_path"></path><path id="kvg:053e5-s3" kvg:type="㇑" d="M27.25,51.89c0.9,0.73,1.66,1.92,1.8,3.07c1.16,4.09,2.44,11.63,3.48,17.91c0.28,1.71,0.53,3.29,0.72,4.63" transform="matrix(1,0,0,1,196,-4)" class="stroke_order_diagram--current_path"></path><path id="pathSk2v596cn13j7" kvg:type="㇑" d="M27.25,51.89c0.9,0.73,1.66,1.92,1.8,3.07c1.16,4.09,2.44,11.63,3.48,17.91c0.28,1.71,0.53,3.29,0.72,4.63" transform="matrix(1,0,0,1,196,-4)" class="stroke_order_diagram--current_path"></path><circle cx="27.25" cy="51.89" r="8" class="stroke_order_diagram--path_start" transform="matrix(1,0,0,1,196,-4)"></circle><line x1="350" x2="350" y1="1" y2="99" class="stroke_order_diagram--guide_line"></line><line x1="399" x2="399" y1="1" y2="99" class="stroke_order_diagram--bounding_box"></line><path id="pathSk2v596cn13ja" kvg:type="㇒" d="M39.5,11.25c0.06,0.9-0.17,2.14-0.63,3.38C36,22.5,27.38,37.12,15.75,48.38" transform="matrix(1,0,0,1,296,-4)" class="stroke_order_diagram--existing_path"></path><path id="pathSk2v596cn13jb" kvg:type="㇆" d="M34.75,30.25c2.87,0.9,5.72,0.6,8.63,0.14c8.82-1.39,35.97-6.05,40.37-6.64c4.62-0.62,6.73,0.49,6.5,5.25c-0.5,10.25-4.5,45.25-14,64.75c-2.37,4.86-5.05,1.88-8-1.25" transform="matrix(1,0,0,1,296,-4)" class="stroke_order_diagram--existing_path"></path><path id="pathSk2v596cn13jc" kvg:type="㇑" d="M27.25,51.89c0.9,0.73,1.66,1.92,1.8,3.07c1.16,4.09,2.44,11.63,3.48,17.91c0.28,1.71,0.53,3.29,0.72,4.63" transform="matrix(1,0,0,1,296,-4)" class="stroke_order_diagram--existing_path"></path><path id="kvg:053e5-s4" kvg:type="㇕b" d="M29.88,53.7c9.81-1.72,19.96-3.25,26.25-3.96c4.38-0.49,5.88,0.51,5.12,4.17c-0.99,4.83-2.61,9.93-4.32,16.46" transform="matrix(1,0,0,1,296,-4)" class="stroke_order_diagram--current_path"></path><path id="pathSk2v596cn13je" kvg:type="㇕b" d="M29.88,53.7c9.81-1.72,19.96-3.25,26.25-3.96c4.38-0.49,5.88,0.51,5.12,4.17c-0.99,4.83-2.61,9.93-4.32,16.46" transform="matrix(1,0,0,1,296,-4)" class="stroke_order_diagram--current_path"></path><circle cx="29.88" cy="53.7" r="8" class="stroke_order_diagram--path_start" transform="matrix(1,0,0,1,296,-4)"></circle><line x1="450" x2="450" y1="1" y2="99" class="stroke_order_diagram--guide_line"></line><line x1="499" x2="499" y1="1" y2="99" class="stroke_order_diagram--bounding_box"></line><path id="pathSk2v596cn13jh" kvg:type="㇒" d="M39.5,11.25c0.06,0.9-0.17,2.14-0.63,3.38C36,22.5,27.38,37.12,15.75,48.38" transform="matrix(1,0,0,1,396,-4)" class="stroke_order_diagram--existing_path"></path><path id="pathSk2v596cn13ji" kvg:type="㇆" d="M34.75,30.25c2.87,0.9,5.72,0.6,8.63,0.14c8.82-1.39,35.97-6.05,40.37-6.64c4.62-0.62,6.73,0.49,6.5,5.25c-0.5,10.25-4.5,45.25-14,64.75c-2.37,4.86-5.05,1.88-8-1.25" transform="matrix(1,0,0,1,396,-4)" class="stroke_order_diagram--existing_path"></path><path id="pathSk2v596cn13jj" kvg:type="㇑" d="M27.25,51.89c0.9,0.73,1.66,1.92,1.8,3.07c1.16,4.09,2.44,11.63,3.48,17.91c0.28,1.71,0.53,3.29,0.72,4.63" transform="matrix(1,0,0,1,396,-4)" class="stroke_order_diagram--existing_path"></path><path id="pathSk2v596cn13jk" kvg:type="㇕b" d="M29.88,53.7c9.81-1.72,19.96-3.25,26.25-3.96c4.38-0.49,5.88,0.51,5.12,4.17c-0.99,4.83-2.61,9.93-4.32,16.46" transform="matrix(1,0,0,1,396,-4)" class="stroke_order_diagram--existing_path"></path><path id="kvg:053e5-s5" kvg:type="㇐b" d="M33.98,74.08c5.95-0.57,13.67-1.69,21.76-2.63c1.27-0.15,2.54-0.29,3.82-0.43" transform="matrix(1,0,0,1,396,-4)" class="stroke_order_diagram--current_path"></path><path id="pathSk2v596cn13jm" kvg:type="㇐b" d="M33.98,74.08c5.95-0.57,13.67-1.69,21.76-2.63c1.27-0.15,2.54-0.29,3.82-0.43" transform="matrix(1,0,0,1,396,-4)" class="stroke_order_diagram--current_path"></path><circle cx="33.98" cy="74.08" r="8" class="stroke_order_diagram--path_start" transform="matrix(1,0,0,1,396,-4)"></circle></svg>