<svg style="width: 600px; height: 100px;" viewbox="0 0 600 100"><style>
.stroke_order_diagram--outer_container {
  width: 100%;
  overflow-x: auto;
  overflow-y: hidden;
}

.stroke_order_diagram--guide_line {
  fill: none;
  stroke: #ddd;
  stroke-width: 3;
  stroke-linecap: square;
  stroke-linejoin: square;
  stroke-dasharray:8, 8;
}

.stroke_order_diagram--bounding_box {
  fill: none;
  stroke: #ddd;
  stroke-width: 4;
  stroke-linecap: square;
  stroke-linejoin: square;
}

.stroke_order_diagram--current_path {
  fill: none;
  stroke: #000;
  stroke-width: 6;
  stroke-linecap: round;
  stroke-linejoin: round;
}

.stroke_order_diagram--existing_path {
  fill: none;
  stroke: #aaa;
  stroke-width: 6;
  stroke-linecap: round;
  stroke-linejoin:round;
}

.stroke_order_diagram--path_start {
  fill: rgba(255, 0, 0, 0.7);
  stroke:none
}</style><desc>Created with Snap</desc><defs></defs><line x1="1" x2="599" y1="1" y2="1" class="stroke_order_diagram--bounding_box"></line><line x1="1" x2="1" y1="1" y2="99" class="stroke_order_diagram--bounding_box"></line><line x1="1" x2="599" y1="99" y2="99" class="stroke_order_diagram--bounding_box"></line><line x1="0" x2="600" y1="50" y2="50" class="stroke_order_diagram--guide_line"></line><line x1="50" x2="50" y1="1" y2="99" class="stroke_order_diagram--guide_line"></line><line x1="99" x2="99" y1="1" y2="99" class="stroke_order_diagram--bounding_box"></line><path id="kvg:0540e-s1" kvg:type="㇒" d="M70.21,14.14c-0.21,1.11-0.83,2.48-2.36,3.25c-6.9,3.5-16.85,7.1-33.79,11.57" transform="matrix(1,0,0,1,-4,-4)" class="stroke_order_diagram--current_path"></path><path id="pathSk2v596cn3vt6" kvg:type="㇒" d="M70.21,14.14c-0.21,1.11-0.83,2.48-2.36,3.25c-6.9,3.5-16.85,7.1-33.79,11.57" transform="matrix(1,0,0,1,-4,-4)" class="stroke_order_diagram--current_path"></path><circle cx="70.21" cy="14.14" r="8" class="stroke_order_diagram--path_start" transform="matrix(1,0,0,1,-4,-4)"></circle><line x1="150" x2="150" y1="1" y2="99" class="stroke_order_diagram--guide_line"></line><line x1="199" x2="199" y1="1" y2="99" class="stroke_order_diagram--bounding_box"></line><path id="pathSk2v596cn3vt9" kvg:type="㇒" d="M70.21,14.14c-0.21,1.11-0.83,2.48-2.36,3.25c-6.9,3.5-16.85,7.1-33.79,11.57" transform="matrix(1,0,0,1,96,-4)" class="stroke_order_diagram--existing_path"></path><path id="kvg:0540e-s2" kvg:type="㇒" d="M28.81,25.5c0.84,0.84,1.22,2.39,1.22,4.01c-0.12,33.9-5.01,48.97-18.53,57.74" transform="matrix(1,0,0,1,96,-4)" class="stroke_order_diagram--current_path"></path><path id="pathSk2v596cn3vtb" kvg:type="㇒" d="M28.81,25.5c0.84,0.84,1.22,2.39,1.22,4.01c-0.12,33.9-5.01,48.97-18.53,57.74" transform="matrix(1,0,0,1,96,-4)" class="stroke_order_diagram--current_path"></path><circle cx="28.81" cy="25.5" r="8" class="stroke_order_diagram--path_start" transform="matrix(1,0,0,1,96,-4)"></circle><line x1="250" x2="250" y1="1" y2="99" class="stroke_order_diagram--guide_line"></line><line x1="299" x2="299" y1="1" y2="99" class="stroke_order_diagram--bounding_box"></line><path id="pathSk2v596cn3vte" kvg:type="㇒" d="M70.21,14.14c-0.21,1.11-0.83,2.48-2.36,3.25c-6.9,3.5-16.85,7.1-33.79,11.57" transform="matrix(1,0,0,1,196,-4)" class="stroke_order_diagram--existing_path"></path><path id="pathSk2v596cn3vtf" kvg:type="㇒" d="M28.81,25.5c0.84,0.84,1.22,2.39,1.22,4.01c-0.12,33.9-5.01,48.97-18.53,57.74" transform="matrix(1,0,0,1,196,-4)" class="stroke_order_diagram--existing_path"></path><path id="kvg:0540e-s3" kvg:type="㇐" d="M33,46.65c2.5,0.47,6.4,0.05,9.12-0.33c10.77-1.52,31.03-4.09,42.38-5.18c2.61-0.25,5.44-0.32,8,0.24" transform="matrix(1,0,0,1,196,-4)" class="stroke_order_diagram--current_path"></path><path id="pathSk2v596cn3vth" kvg:type="㇐" d="M33,46.65c2.5,0.47,6.4,0.05,9.12-0.33c10.77-1.52,31.03-4.09,42.38-5.18c2.61-0.25,5.44-0.32,8,0.24" transform="matrix(1,0,0,1,196,-4)" class="stroke_order_diagram--current_path"></path><circle cx="33" cy="46.65" r="8" class="stroke_order_diagram--path_start" transform="matrix(1,0,0,1,196,-4)"></circle><line x1="350" x2="350" y1="1" y2="99" class="stroke_order_diagram--guide_line"></line><line x1="399" x2="399" y1="1" y2="99" class="stroke_order_diagram--bounding_box"></line><path id="pathSk2v596cn3vtk" kvg:type="㇒" d="M70.21,14.14c-0.21,1.11-0.83,2.48-2.36,3.25c-6.9,3.5-16.85,7.1-33.79,11.57" transform="matrix(1,0,0,1,296,-4)" class="stroke_order_diagram--existing_path"></path><path id="pathSk2v596cn3vtl" kvg:type="㇒" d="M28.81,25.5c0.84,0.84,1.22,2.39,1.22,4.01c-0.12,33.9-5.01,48.97-18.53,57.74" transform="matrix(1,0,0,1,296,-4)" class="stroke_order_diagram--existing_path"></path><path id="pathSk2v596cn3vtm" kvg:type="㇐" d="M33,46.65c2.5,0.47,6.4,0.05,9.12-0.33c10.77-1.52,31.03-4.09,42.38-5.18c2.61-0.25,5.44-0.32,8,0.24" transform="matrix(1,0,0,1,296,-4)" class="stroke_order_diagram--existing_path"></path><path id="kvg:0540e-s4" kvg:type="㇑" d="M38.25,66.6c0.95,0.95,1.62,2.15,1.88,3.7c0.89,5.33,1.7,12.41,2.65,19.41c0.24,1.78,0.48,3.55,0.7,5.25" transform="matrix(1,0,0,1,296,-4)" class="stroke_order_diagram--current_path"></path><path id="pathSk2v596cn3vto" kvg:type="㇑" d="M38.25,66.6c0.95,0.95,1.62,2.15,1.88,3.7c0.89,5.33,1.7,12.41,2.65,19.41c0.24,1.78,0.48,3.55,0.7,5.25" transform="matrix(1,0,0,1,296,-4)" class="stroke_order_diagram--current_path"></path><circle cx="38.25" cy="66.6" r="8" class="stroke_order_diagram--path_start" transform="matrix(1,0,0,1,296,-4)"></circle><line x1="450" x2="450" y1="1" y2="99" class="stroke_order_diagram--guide_line"></line><line x1="499" x2="499" y1="1" y2="99" class="stroke_order_diagram--bounding_box"></line><path id="pathSk2v596cn3vtr" kvg:type="㇒" d="M70.21,14.14c-0.21,1.11-0.83,2.48-2.36,3.25c-6.9,3.5-16.85,7.1-33.79,11.57" transform="matrix(1,0,0,1,396,-4)" class="stroke_order_diagram--existing_path"></path><path id="pathSk2v596cn3vts" kvg:type="㇒" d="M28.81,25.5c0.84,0.84,1.22,2.39,1.22,4.01c-0.12,33.9-5.01,48.97-18.53,57.74" transform="matrix(1,0,0,1,396,-4)" class="stroke_order_diagram--existing_path"></path><path id="pathSk2v596cn3vtt" kvg:type="㇐" d="M33,46.65c2.5,0.47,6.4,0.05,9.12-0.33c10.77-1.52,31.03-4.09,42.38-5.18c2.61-0.25,5.44-0.32,8,0.24" transform="matrix(1,0,0,1,396,-4)" class="stroke_order_diagram--existing_path"></path><path id="pathSk2v596cn3vtu" kvg:type="㇑" d="M38.25,66.6c0.95,0.95,1.62,2.15,1.88,3.7c0.89,5.33,1.7,12.41,2.65,19.41c0.24,1.78,0.48,3.55,0.7,5.25" transform="matrix(1,0,0,1,396,-4)" class="stroke_order_diagram--existing_path"></path><path id="kvg:0540e-s5" kvg:type="㇕b" d="M40.62,68.71c10.18-1.77,29.01-4.08,36.76-4.95c3.79-0.43,5.98,1.3,4.91,5.25c-1.66,6.12-2.61,10.22-5.09,18.01" transform="matrix(1,0,0,1,396,-4)" class="stroke_order_diagram--current_path"></path><path id="pathSk2v596cn3vtw" kvg:type="㇕b" d="M40.62,68.71c10.18-1.77,29.01-4.08,36.76-4.95c3.79-0.43,5.98,1.3,4.91,5.25c-1.66,6.12-2.61,10.22-5.09,18.01" transform="matrix(1,0,0,1,396,-4)" class="stroke_order_diagram--current_path"></path><circle cx="40.62" cy="68.71" r="8" class="stroke_order_diagram--path_start" transform="matrix(1,0,0,1,396,-4)"></circle><line x1="550" x2="550" y1="1" y2="99" class="stroke_order_diagram--guide_line"></line><line x1="599" x2="599" y1="1" y2="99" class="stroke_order_diagram--bounding_box"></line><path id="pathSk2v596cn3vtz" kvg:type="㇒" d="M70.21,14.14c-0.21,1.11-0.83,2.48-2.36,3.25c-6.9,3.5-16.85,7.1-33.79,11.57" transform="matrix(1,0,0,1,496,-4)" class="stroke_order_diagram--existing_path"></path><path id="pathSk2v596cn3vu0" kvg:type="㇒" d="M28.81,25.5c0.84,0.84,1.22,2.39,1.22,4.01c-0.12,33.9-5.01,48.97-18.53,57.74" transform="matrix(1,0,0,1,496,-4)" class="stroke_order_diagram--existing_path"></path><path id="pathSk2v596cn3vu1" kvg:type="㇐" d="M33,46.65c2.5,0.47,6.4,0.05,9.12-0.33c10.77-1.52,31.03-4.09,42.38-5.18c2.61-0.25,5.44-0.32,8,0.24" transform="matrix(1,0,0,1,496,-4)" class="stroke_order_diagram--existing_path"></path><path id="pathSk2v596cn3vu2" kvg:type="㇑" d="M38.25,66.6c0.95,0.95,1.62,2.15,1.88,3.7c0.89,5.33,1.7,12.41,2.65,19.41c0.24,1.78,0.48,3.55,0.7,5.25" transform="matrix(1,0,0,1,496,-4)" class="stroke_order_diagram--existing_path"></path><path id="pathSk2v596cn3vu3" kvg:type="㇕b" d="M40.62,68.71c10.18-1.77,29.01-4.08,36.76-4.95c3.79-0.43,5.98,1.3,4.91,5.25c-1.66,6.12-2.61,10.22-5.09,18.01" transform="matrix(1,0,0,1,496,-4)" class="stroke_order_diagram--existing_path"></path><path id="kvg:0540e-s6" kvg:type="㇐b" d="M43.94,91.13c5.86-0.64,21.8-2.11,31.55-3c1.62-0.15,3.08-0.28,4.32-0.38" transform="matrix(1,0,0,1,496,-4)" class="stroke_order_diagram--current_path"></path><path id="pathSk2v596cn3vu5" kvg:type="㇐b" d="M43.94,91.13c5.86-0.64,21.8-2.11,31.55-3c1.62-0.15,3.08-0.28,4.32-0.38" transform="matrix(1,0,0,1,496,-4)" class="stroke_order_diagram--current_path"></path><circle cx="43.94" cy="91.13" r="8" class="stroke_order_diagram--path_start" transform="matrix(1,0,0,1,496,-4)"></circle></svg>