<svg style="width: 600px; height: 100px;" viewbox="0 0 600 100"><style>
.stroke_order_diagram--outer_container {
  width: 100%;
  overflow-x: auto;
  overflow-y: hidden;
}

.stroke_order_diagram--guide_line {
  fill: none;
  stroke: #ddd;
  stroke-width: 3;
  stroke-linecap: square;
  stroke-linejoin: square;
  stroke-dasharray:8, 8;
}

.stroke_order_diagram--bounding_box {
  fill: none;
  stroke: #ddd;
  stroke-width: 4;
  stroke-linecap: square;
  stroke-linejoin: square;
}

.stroke_order_diagram--current_path {
  fill: none;
  stroke: #000;
  stroke-width: 6;
  stroke-linecap: round;
  stroke-linejoin: round;
}

.stroke_order_diagram--existing_path {
  fill: none;
  stroke: #aaa;
  stroke-width: 6;
  stroke-linecap: round;
  stroke-linejoin:round;
}

.stroke_order_diagram--path_start {
  fill: rgba(255, 0, 0, 0.7);
  stroke:none
}</style><desc>Created with Snap</desc><defs></defs><line x1="1" x2="599" y1="1" y2="1" class="stroke_order_diagram--bounding_box"></line><line x1="1" x2="1" y1="1" y2="99" class="stroke_order_diagram--bounding_box"></line><line x1="1" x2="599" y1="99" y2="99" class="stroke_order_diagram--bounding_box"></line><line x1="0" x2="600" y1="50" y2="50" class="stroke_order_diagram--guide_line"></line><line x1="50" x2="50" y1="1" y2="99" class="stroke_order_diagram--guide_line"></line><line x1="99" x2="99" y1="1" y2="99" class="stroke_order_diagram--bounding_box"></line><path id="kvg:05411-s1" kvg:type="㇒" d="M49.51,18.39c0.24,0.98,0.04,2.08-0.33,2.85C45.62,28.5,43,32.75,34.06,42.97" transform="matrix(1,0,0,1,-4,-4)" class="stroke_order_diagram--current_path"></path><path id="pathSk2v596cn5rn" kvg:type="㇒" d="M49.51,18.39c0.24,0.98,0.04,2.08-0.33,2.85C45.62,28.5,43,32.75,34.06,42.97" transform="matrix(1,0,0,1,-4,-4)" class="stroke_order_diagram--current_path"></path><circle cx="49.51" cy="18.39" r="8" class="stroke_order_diagram--path_start" transform="matrix(1,0,0,1,-4,-4)"></circle><line x1="150" x2="150" y1="1" y2="99" class="stroke_order_diagram--guide_line"></line><line x1="199" x2="199" y1="1" y2="99" class="stroke_order_diagram--bounding_box"></line><path id="pathSk2v596cn5rq" kvg:type="㇒" d="M49.51,18.39c0.24,0.98,0.04,2.08-0.33,2.85C45.62,28.5,43,32.75,34.06,42.97" transform="matrix(1,0,0,1,96,-4)" class="stroke_order_diagram--existing_path"></path><path id="kvg:05411-s2" kvg:type="㇑" d="M18.75,42.5c1,1,1.66,2.28,1.78,3.64c0.41,4.91,1.18,24.14,1.58,36.73c0.06,1.78,0.1,3.42,0.14,4.87" transform="matrix(1,0,0,1,96,-4)" class="stroke_order_diagram--current_path"></path><path id="pathSk2v596cn5rs" kvg:type="㇑" d="M18.75,42.5c1,1,1.66,2.28,1.78,3.64c0.41,4.91,1.18,24.14,1.58,36.73c0.06,1.78,0.1,3.42,0.14,4.87" transform="matrix(1,0,0,1,96,-4)" class="stroke_order_diagram--current_path"></path><circle cx="18.75" cy="42.5" r="8" class="stroke_order_diagram--path_start" transform="matrix(1,0,0,1,96,-4)"></circle><line x1="250" x2="250" y1="1" y2="99" class="stroke_order_diagram--guide_line"></line><line x1="299" x2="299" y1="1" y2="99" class="stroke_order_diagram--bounding_box"></line><path id="pathSk2v596cn5rv" kvg:type="㇒" d="M49.51,18.39c0.24,0.98,0.04,2.08-0.33,2.85C45.62,28.5,43,32.75,34.06,42.97" transform="matrix(1,0,0,1,196,-4)" class="stroke_order_diagram--existing_path"></path><path id="pathSk2v596cn5rw" kvg:type="㇑" d="M18.75,42.5c1,1,1.66,2.28,1.78,3.64c0.41,4.91,1.18,24.14,1.58,36.73c0.06,1.78,0.1,3.42,0.14,4.87" transform="matrix(1,0,0,1,196,-4)" class="stroke_order_diagram--existing_path"></path><path id="kvg:05411-s3" kvg:type="㇆a" d="M21.35,45.1c16.03-1.85,61.13-7.17,62.97-7.43c2.93-0.42,6.74,1.55,6.66,5.33c-0.22,9.76-3.67,33.44-6.49,42.28C81.12,95.75,78.62,90.12,76,86" transform="matrix(1,0,0,1,196,-4)" class="stroke_order_diagram--current_path"></path><path id="pathSk2v596cn5ry" kvg:type="㇆a" d="M21.35,45.1c16.03-1.85,61.13-7.17,62.97-7.43c2.93-0.42,6.74,1.55,6.66,5.33c-0.22,9.76-3.67,33.44-6.49,42.28C81.12,95.75,78.62,90.12,76,86" transform="matrix(1,0,0,1,196,-4)" class="stroke_order_diagram--current_path"></path><circle cx="21.35" cy="45.1" r="8" class="stroke_order_diagram--path_start" transform="matrix(1,0,0,1,196,-4)"></circle><line x1="350" x2="350" y1="1" y2="99" class="stroke_order_diagram--guide_line"></line><line x1="399" x2="399" y1="1" y2="99" class="stroke_order_diagram--bounding_box"></line><path id="pathSk2v596cn5s1" kvg:type="㇒" d="M49.51,18.39c0.24,0.98,0.04,2.08-0.33,2.85C45.62,28.5,43,32.75,34.06,42.97" transform="matrix(1,0,0,1,296,-4)" class="stroke_order_diagram--existing_path"></path><path id="pathSk2v596cn5s2" kvg:type="㇑" d="M18.75,42.5c1,1,1.66,2.28,1.78,3.64c0.41,4.91,1.18,24.14,1.58,36.73c0.06,1.78,0.1,3.42,0.14,4.87" transform="matrix(1,0,0,1,296,-4)" class="stroke_order_diagram--existing_path"></path><path id="pathSk2v596cn5s3" kvg:type="㇆a" d="M21.35,45.1c16.03-1.85,61.13-7.17,62.97-7.43c2.93-0.42,6.74,1.55,6.66,5.33c-0.22,9.76-3.67,33.44-6.49,42.28C81.12,95.75,78.62,90.12,76,86" transform="matrix(1,0,0,1,296,-4)" class="stroke_order_diagram--existing_path"></path><path id="kvg:05411-s4" kvg:type="㇑" d="M38.75,55.53c0.8,0.8,1.29,1.9,1.35,2.4c0.67,5.55,1.13,8.83,1.97,14.58c0.13,0.93,0.28,1.92,0.43,2.99" transform="matrix(1,0,0,1,296,-4)" class="stroke_order_diagram--current_path"></path><path id="pathSk2v596cn5s5" kvg:type="㇑" d="M38.75,55.53c0.8,0.8,1.29,1.9,1.35,2.4c0.67,5.55,1.13,8.83,1.97,14.58c0.13,0.93,0.28,1.92,0.43,2.99" transform="matrix(1,0,0,1,296,-4)" class="stroke_order_diagram--current_path"></path><circle cx="38.75" cy="55.53" r="8" class="stroke_order_diagram--path_start" transform="matrix(1,0,0,1,296,-4)"></circle><line x1="450" x2="450" y1="1" y2="99" class="stroke_order_diagram--guide_line"></line><line x1="499" x2="499" y1="1" y2="99" class="stroke_order_diagram--bounding_box"></line><path id="pathSk2v596cn5s8" kvg:type="㇒" d="M49.51,18.39c0.24,0.98,0.04,2.08-0.33,2.85C45.62,28.5,43,32.75,34.06,42.97" transform="matrix(1,0,0,1,396,-4)" class="stroke_order_diagram--existing_path"></path><path id="pathSk2v596cn5s9" kvg:type="㇑" d="M18.75,42.5c1,1,1.66,2.28,1.78,3.64c0.41,4.91,1.18,24.14,1.58,36.73c0.06,1.78,0.1,3.42,0.14,4.87" transform="matrix(1,0,0,1,396,-4)" class="stroke_order_diagram--existing_path"></path><path id="pathSk2v596cn5sa" kvg:type="㇆a" d="M21.35,45.1c16.03-1.85,61.13-7.17,62.97-7.43c2.93-0.42,6.74,1.55,6.66,5.33c-0.22,9.76-3.67,33.44-6.49,42.28C81.12,95.75,78.62,90.12,76,86" transform="matrix(1,0,0,1,396,-4)" class="stroke_order_diagram--existing_path"></path><path id="pathSk2v596cn5sb" kvg:type="㇑" d="M38.75,55.53c0.8,0.8,1.29,1.9,1.35,2.4c0.67,5.55,1.13,8.83,1.97,14.58c0.13,0.93,0.28,1.92,0.43,2.99" transform="matrix(1,0,0,1,396,-4)" class="stroke_order_diagram--existing_path"></path><path id="kvg:05411-s5" kvg:type="㇕b" d="M41.03,57.28c10.34-1.53,17.23-2.44,24.75-3.54c2.47-0.36,3.35,1.14,2.97,2.76c-1,4.35-2.25,7.5-3.33,13.38" transform="matrix(1,0,0,1,396,-4)" class="stroke_order_diagram--current_path"></path><path id="pathSk2v596cn5sd" kvg:type="㇕b" d="M41.03,57.28c10.34-1.53,17.23-2.44,24.75-3.54c2.47-0.36,3.35,1.14,2.97,2.76c-1,4.35-2.25,7.5-3.33,13.38" transform="matrix(1,0,0,1,396,-4)" class="stroke_order_diagram--current_path"></path><circle cx="41.03" cy="57.28" r="8" class="stroke_order_diagram--path_start" transform="matrix(1,0,0,1,396,-4)"></circle><line x1="550" x2="550" y1="1" y2="99" class="stroke_order_diagram--guide_line"></line><line x1="599" x2="599" y1="1" y2="99" class="stroke_order_diagram--bounding_box"></line><path id="pathSk2v596cn5sg" kvg:type="㇒" d="M49.51,18.39c0.24,0.98,0.04,2.08-0.33,2.85C45.62,28.5,43,32.75,34.06,42.97" transform="matrix(1,0,0,1,496,-4)" class="stroke_order_diagram--existing_path"></path><path id="pathSk2v596cn5sh" kvg:type="㇑" d="M18.75,42.5c1,1,1.66,2.28,1.78,3.64c0.41,4.91,1.18,24.14,1.58,36.73c0.06,1.78,0.1,3.42,0.14,4.87" transform="matrix(1,0,0,1,496,-4)" class="stroke_order_diagram--existing_path"></path><path id="pathSk2v596cn5si" kvg:type="㇆a" d="M21.35,45.1c16.03-1.85,61.13-7.17,62.97-7.43c2.93-0.42,6.74,1.55,6.66,5.33c-0.22,9.76-3.67,33.44-6.49,42.28C81.12,95.75,78.62,90.12,76,86" transform="matrix(1,0,0,1,496,-4)" class="stroke_order_diagram--existing_path"></path><path id="pathSk2v596cn5sj" kvg:type="㇑" d="M38.75,55.53c0.8,0.8,1.29,1.9,1.35,2.4c0.67,5.55,1.13,8.83,1.97,14.58c0.13,0.93,0.28,1.92,0.43,2.99" transform="matrix(1,0,0,1,496,-4)" class="stroke_order_diagram--existing_path"></path><path id="pathSk2v596cn5sk" kvg:type="㇕b" d="M41.03,57.28c10.34-1.53,17.23-2.44,24.75-3.54c2.47-0.36,3.35,1.14,2.97,2.76c-1,4.35-2.25,7.5-3.33,13.38" transform="matrix(1,0,0,1,496,-4)" class="stroke_order_diagram--existing_path"></path><path id="kvg:05411-s6" kvg:type="㇐b" d="M43.52,73.26c5.61-0.5,12.98-1.38,21.6-2.24c1.16-0.12,2.32-0.09,3.46-0.11" transform="matrix(1,0,0,1,496,-4)" class="stroke_order_diagram--current_path"></path><path id="pathSk2v596cn5sm" kvg:type="㇐b" d="M43.52,73.26c5.61-0.5,12.98-1.38,21.6-2.24c1.16-0.12,2.32-0.09,3.46-0.11" transform="matrix(1,0,0,1,496,-4)" class="stroke_order_diagram--current_path"></path><circle cx="43.52" cy="73.26" r="8" class="stroke_order_diagram--path_start" transform="matrix(1,0,0,1,496,-4)"></circle></svg>