<svg style="width: 800px; height: 100px;" viewbox="0 0 800 100"><style>
.stroke_order_diagram--outer_container {
  width: 100%;
  overflow-x: auto;
  overflow-y: hidden;
}

.stroke_order_diagram--guide_line {
  fill: none;
  stroke: #ddd;
  stroke-width: 3;
  stroke-linecap: square;
  stroke-linejoin: square;
  stroke-dasharray:8, 8;
}

.stroke_order_diagram--bounding_box {
  fill: none;
  stroke: #ddd;
  stroke-width: 4;
  stroke-linecap: square;
  stroke-linejoin: square;
}

.stroke_order_diagram--current_path {
  fill: none;
  stroke: #000;
  stroke-width: 6;
  stroke-linecap: round;
  stroke-linejoin: round;
}

.stroke_order_diagram--existing_path {
  fill: none;
  stroke: #aaa;
  stroke-width: 6;
  stroke-linecap: round;
  stroke-linejoin:round;
}

.stroke_order_diagram--path_start {
  fill: rgba(255, 0, 0, 0.7);
  stroke:none
}</style><desc>Created with Snap</desc><defs></defs><line x1="1" x2="799" y1="1" y2="1" class="stroke_order_diagram--bounding_box"></line><line x1="1" x2="1" y1="1" y2="99" class="stroke_order_diagram--bounding_box"></line><line x1="1" x2="799" y1="99" y2="99" class="stroke_order_diagram--bounding_box"></line><line x1="0" x2="800" y1="50" y2="50" class="stroke_order_diagram--guide_line"></line><line x1="50" x2="50" y1="1" y2="99" class="stroke_order_diagram--guide_line"></line><line x1="99" x2="99" y1="1" y2="99" class="stroke_order_diagram--bounding_box"></line><path id="kvg:05473-s1" kvg:type="㇑" d="M10.46,35.58c0.79,0.79,1.25,2.27,1.43,3.67c0.57,4.36,1.33,11.99,2.07,18.99c0.17,1.56,0.33,3.09,0.49,4.54" transform="matrix(1,0,0,1,-4,-4)" class="stroke_order_diagram--current_path"></path><path id="pathSk2v596cnjhi" kvg:type="㇑" d="M10.46,35.58c0.79,0.79,1.25,2.27,1.43,3.67c0.57,4.36,1.33,11.99,2.07,18.99c0.17,1.56,0.33,3.09,0.49,4.54" transform="matrix(1,0,0,1,-4,-4)" class="stroke_order_diagram--current_path"></path><circle cx="10.46" cy="35.58" r="8" class="stroke_order_diagram--path_start" transform="matrix(1,0,0,1,-4,-4)"></circle><line x1="150" x2="150" y1="1" y2="99" class="stroke_order_diagram--guide_line"></line><line x1="199" x2="199" y1="1" y2="99" class="stroke_order_diagram--bounding_box"></line><path id="pathSk2v596cnjhl" kvg:type="㇑" d="M10.46,35.58c0.79,0.79,1.25,2.27,1.43,3.67c0.57,4.36,1.33,11.99,2.07,18.99c0.17,1.56,0.33,3.09,0.49,4.54" transform="matrix(1,0,0,1,96,-4)" class="stroke_order_diagram--existing_path"></path><path id="kvg:05473-s2" kvg:type="㇕b" d="M12.64,37.37c4.54-0.72,13.77-2.2,18.75-2.73c3.08-0.32,4.74,1.14,4.01,4.27c-1.06,4.55-2.56,11.44-3.57,17.68" transform="matrix(1,0,0,1,96,-4)" class="stroke_order_diagram--current_path"></path><path id="pathSk2v596cnjhn" kvg:type="㇕b" d="M12.64,37.37c4.54-0.72,13.77-2.2,18.75-2.73c3.08-0.32,4.74,1.14,4.01,4.27c-1.06,4.55-2.56,11.44-3.57,17.68" transform="matrix(1,0,0,1,96,-4)" class="stroke_order_diagram--current_path"></path><circle cx="12.64" cy="37.37" r="8" class="stroke_order_diagram--path_start" transform="matrix(1,0,0,1,96,-4)"></circle><line x1="250" x2="250" y1="1" y2="99" class="stroke_order_diagram--guide_line"></line><line x1="299" x2="299" y1="1" y2="99" class="stroke_order_diagram--bounding_box"></line><path id="pathSk2v596cnjhq" kvg:type="㇑" d="M10.46,35.58c0.79,0.79,1.25,2.27,1.43,3.67c0.57,4.36,1.33,11.99,2.07,18.99c0.17,1.56,0.33,3.09,0.49,4.54" transform="matrix(1,0,0,1,196,-4)" class="stroke_order_diagram--existing_path"></path><path id="pathSk2v596cnjhr" kvg:type="㇕b" d="M12.64,37.37c4.54-0.72,13.77-2.2,18.75-2.73c3.08-0.32,4.74,1.14,4.01,4.27c-1.06,4.55-2.56,11.44-3.57,17.68" transform="matrix(1,0,0,1,196,-4)" class="stroke_order_diagram--existing_path"></path><path id="kvg:05473-s3" kvg:type="㇐b" d="M14.17,58.88c3.12,0,10.34-0.95,15.96-1.42c1.54-0.13,2.95-0.22,4.13-0.25" transform="matrix(1,0,0,1,196,-4)" class="stroke_order_diagram--current_path"></path><path id="pathSk2v596cnjht" kvg:type="㇐b" d="M14.17,58.88c3.12,0,10.34-0.95,15.96-1.42c1.54-0.13,2.95-0.22,4.13-0.25" transform="matrix(1,0,0,1,196,-4)" class="stroke_order_diagram--current_path"></path><circle cx="14.17" cy="58.88" r="8" class="stroke_order_diagram--path_start" transform="matrix(1,0,0,1,196,-4)"></circle><line x1="350" x2="350" y1="1" y2="99" class="stroke_order_diagram--guide_line"></line><line x1="399" x2="399" y1="1" y2="99" class="stroke_order_diagram--bounding_box"></line><path id="pathSk2v596cnjhw" kvg:type="㇑" d="M10.46,35.58c0.79,0.79,1.25,2.27,1.43,3.67c0.57,4.36,1.33,11.99,2.07,18.99c0.17,1.56,0.33,3.09,0.49,4.54" transform="matrix(1,0,0,1,296,-4)" class="stroke_order_diagram--existing_path"></path><path id="pathSk2v596cnjhx" kvg:type="㇕b" d="M12.64,37.37c4.54-0.72,13.77-2.2,18.75-2.73c3.08-0.32,4.74,1.14,4.01,4.27c-1.06,4.55-2.56,11.44-3.57,17.68" transform="matrix(1,0,0,1,296,-4)" class="stroke_order_diagram--existing_path"></path><path id="pathSk2v596cnjhy" kvg:type="㇐b" d="M14.17,58.88c3.12,0,10.34-0.95,15.96-1.42c1.54-0.13,2.95-0.22,4.13-0.25" transform="matrix(1,0,0,1,296,-4)" class="stroke_order_diagram--existing_path"></path><path id="kvg:05473-s4" kvg:type="㇐" d="M45.31,32.77c1.8,0.63,4.34,0.76,6.2,0.59c7.33-0.64,16.7-2.27,24.62-3.07c1.82-0.18,4.04-0.33,5.84,0.05" transform="matrix(1,0,0,1,296,-4)" class="stroke_order_diagram--current_path"></path><path id="pathSk2v596cnji0" kvg:type="㇐" d="M45.31,32.77c1.8,0.63,4.34,0.76,6.2,0.59c7.33-0.64,16.7-2.27,24.62-3.07c1.82-0.18,4.04-0.33,5.84,0.05" transform="matrix(1,0,0,1,296,-4)" class="stroke_order_diagram--current_path"></path><circle cx="45.31" cy="32.77" r="8" class="stroke_order_diagram--path_start" transform="matrix(1,0,0,1,296,-4)"></circle><line x1="450" x2="450" y1="1" y2="99" class="stroke_order_diagram--guide_line"></line><line x1="499" x2="499" y1="1" y2="99" class="stroke_order_diagram--bounding_box"></line><path id="pathSk2v596cnji3" kvg:type="㇑" d="M10.46,35.58c0.79,0.79,1.25,2.27,1.43,3.67c0.57,4.36,1.33,11.99,2.07,18.99c0.17,1.56,0.33,3.09,0.49,4.54" transform="matrix(1,0,0,1,396,-4)" class="stroke_order_diagram--existing_path"></path><path id="pathSk2v596cnji4" kvg:type="㇕b" d="M12.64,37.37c4.54-0.72,13.77-2.2,18.75-2.73c3.08-0.32,4.74,1.14,4.01,4.27c-1.06,4.55-2.56,11.44-3.57,17.68" transform="matrix(1,0,0,1,396,-4)" class="stroke_order_diagram--existing_path"></path><path id="pathSk2v596cnji5" kvg:type="㇐b" d="M14.17,58.88c3.12,0,10.34-0.95,15.96-1.42c1.54-0.13,2.95-0.22,4.13-0.25" transform="matrix(1,0,0,1,396,-4)" class="stroke_order_diagram--existing_path"></path><path id="pathSk2v596cnji6" kvg:type="㇐" d="M45.31,32.77c1.8,0.63,4.34,0.76,6.2,0.59c7.33-0.64,16.7-2.27,24.62-3.07c1.82-0.18,4.04-0.33,5.84,0.05" transform="matrix(1,0,0,1,396,-4)" class="stroke_order_diagram--existing_path"></path><path id="kvg:05473-s5" kvg:type="㇐" d="M40.13,51.5c2.36,0.73,5.09,0.73,7.5,0.38c8.62-1.26,23.37-3.03,36.12-4.3c2.47-0.25,5.16-0.29,7.63,0.17" transform="matrix(1,0,0,1,396,-4)" class="stroke_order_diagram--current_path"></path><path id="pathSk2v596cnji8" kvg:type="㇐" d="M40.13,51.5c2.36,0.73,5.09,0.73,7.5,0.38c8.62-1.26,23.37-3.03,36.12-4.3c2.47-0.25,5.16-0.29,7.63,0.17" transform="matrix(1,0,0,1,396,-4)" class="stroke_order_diagram--current_path"></path><circle cx="40.13" cy="51.5" r="8" class="stroke_order_diagram--path_start" transform="matrix(1,0,0,1,396,-4)"></circle><line x1="550" x2="550" y1="1" y2="99" class="stroke_order_diagram--guide_line"></line><line x1="599" x2="599" y1="1" y2="99" class="stroke_order_diagram--bounding_box"></line><path id="pathSk2v596cnjib" kvg:type="㇑" d="M10.46,35.58c0.79,0.79,1.25,2.27,1.43,3.67c0.57,4.36,1.33,11.99,2.07,18.99c0.17,1.56,0.33,3.09,0.49,4.54" transform="matrix(1,0,0,1,496,-4)" class="stroke_order_diagram--existing_path"></path><path id="pathSk2v596cnjic" kvg:type="㇕b" d="M12.64,37.37c4.54-0.72,13.77-2.2,18.75-2.73c3.08-0.32,4.74,1.14,4.01,4.27c-1.06,4.55-2.56,11.44-3.57,17.68" transform="matrix(1,0,0,1,496,-4)" class="stroke_order_diagram--existing_path"></path><path id="pathSk2v596cnjid" kvg:type="㇐b" d="M14.17,58.88c3.12,0,10.34-0.95,15.96-1.42c1.54-0.13,2.95-0.22,4.13-0.25" transform="matrix(1,0,0,1,496,-4)" class="stroke_order_diagram--existing_path"></path><path id="pathSk2v596cnjie" kvg:type="㇐" d="M45.31,32.77c1.8,0.63,4.34,0.76,6.2,0.59c7.33-0.64,16.7-2.27,24.62-3.07c1.82-0.18,4.04-0.33,5.84,0.05" transform="matrix(1,0,0,1,496,-4)" class="stroke_order_diagram--existing_path"></path><path id="pathSk2v596cnjif" kvg:type="㇐" d="M40.13,51.5c2.36,0.73,5.09,0.73,7.5,0.38c8.62-1.26,23.37-3.03,36.12-4.3c2.47-0.25,5.16-0.29,7.63,0.17" transform="matrix(1,0,0,1,496,-4)" class="stroke_order_diagram--existing_path"></path><path id="kvg:05473-s6" kvg:type="㇑" d="M61.68,11.5c1.41,1.41,1.93,3.25,1.93,4.75c0,0.88-0.01,54.18-0.02,75.5c0,3.68,0,6.41,0,7.75" transform="matrix(1,0,0,1,496,-4)" class="stroke_order_diagram--current_path"></path><path id="pathSk2v596cnjih" kvg:type="㇑" d="M61.68,11.5c1.41,1.41,1.93,3.25,1.93,4.75c0,0.88-0.01,54.18-0.02,75.5c0,3.68,0,6.41,0,7.75" transform="matrix(1,0,0,1,496,-4)" class="stroke_order_diagram--current_path"></path><circle cx="61.68" cy="11.5" r="8" class="stroke_order_diagram--path_start" transform="matrix(1,0,0,1,496,-4)"></circle><line x1="650" x2="650" y1="1" y2="99" class="stroke_order_diagram--guide_line"></line><line x1="699" x2="699" y1="1" y2="99" class="stroke_order_diagram--bounding_box"></line><path id="pathSk2v596cnjik" kvg:type="㇑" d="M10.46,35.58c0.79,0.79,1.25,2.27,1.43,3.67c0.57,4.36,1.33,11.99,2.07,18.99c0.17,1.56,0.33,3.09,0.49,4.54" transform="matrix(1,0,0,1,596,-4)" class="stroke_order_diagram--existing_path"></path><path id="pathSk2v596cnjil" kvg:type="㇕b" d="M12.64,37.37c4.54-0.72,13.77-2.2,18.75-2.73c3.08-0.32,4.74,1.14,4.01,4.27c-1.06,4.55-2.56,11.44-3.57,17.68" transform="matrix(1,0,0,1,596,-4)" class="stroke_order_diagram--existing_path"></path><path id="pathSk2v596cnjim" kvg:type="㇐b" d="M14.17,58.88c3.12,0,10.34-0.95,15.96-1.42c1.54-0.13,2.95-0.22,4.13-0.25" transform="matrix(1,0,0,1,596,-4)" class="stroke_order_diagram--existing_path"></path><path id="pathSk2v596cnjin" kvg:type="㇐" d="M45.31,32.77c1.8,0.63,4.34,0.76,6.2,0.59c7.33-0.64,16.7-2.27,24.62-3.07c1.82-0.18,4.04-0.33,5.84,0.05" transform="matrix(1,0,0,1,596,-4)" class="stroke_order_diagram--existing_path"></path><path id="pathSk2v596cnjio" kvg:type="㇐" d="M40.13,51.5c2.36,0.73,5.09,0.73,7.5,0.38c8.62-1.26,23.37-3.03,36.12-4.3c2.47-0.25,5.16-0.29,7.63,0.17" transform="matrix(1,0,0,1,596,-4)" class="stroke_order_diagram--existing_path"></path><path id="pathSk2v596cnjip" kvg:type="㇑" d="M61.68,11.5c1.41,1.41,1.93,3.25,1.93,4.75c0,0.88-0.01,54.18-0.02,75.5c0,3.68,0,6.41,0,7.75" transform="matrix(1,0,0,1,596,-4)" class="stroke_order_diagram--existing_path"></path><path id="kvg:05473-s7" kvg:type="㇒" d="M61,51.12c0,1.97-0.91,3.63-1.98,5.21c-7.06,10.48-19.73,23.07-30.64,28.54" transform="matrix(1,0,0,1,596,-4)" class="stroke_order_diagram--current_path"></path><path id="pathSk2v596cnjir" kvg:type="㇒" d="M61,51.12c0,1.97-0.91,3.63-1.98,5.21c-7.06,10.48-19.73,23.07-30.64,28.54" transform="matrix(1,0,0,1,596,-4)" class="stroke_order_diagram--current_path"></path><circle cx="61" cy="51.12" r="8" class="stroke_order_diagram--path_start" transform="matrix(1,0,0,1,596,-4)"></circle><line x1="750" x2="750" y1="1" y2="99" class="stroke_order_diagram--guide_line"></line><line x1="799" x2="799" y1="1" y2="99" class="stroke_order_diagram--bounding_box"></line><path id="pathSk2v596cnjiu" kvg:type="㇑" d="M10.46,35.58c0.79,0.79,1.25,2.27,1.43,3.67c0.57,4.36,1.33,11.99,2.07,18.99c0.17,1.56,0.33,3.09,0.49,4.54" transform="matrix(1,0,0,1,696,-4)" class="stroke_order_diagram--existing_path"></path><path id="pathSk2v596cnjiv" kvg:type="㇕b" d="M12.64,37.37c4.54-0.72,13.77-2.2,18.75-2.73c3.08-0.32,4.74,1.14,4.01,4.27c-1.06,4.55-2.56,11.44-3.57,17.68" transform="matrix(1,0,0,1,696,-4)" class="stroke_order_diagram--existing_path"></path><path id="pathSk2v596cnjiw" kvg:type="㇐b" d="M14.17,58.88c3.12,0,10.34-0.95,15.96-1.42c1.54-0.13,2.95-0.22,4.13-0.25" transform="matrix(1,0,0,1,696,-4)" class="stroke_order_diagram--existing_path"></path><path id="pathSk2v596cnjix" kvg:type="㇐" d="M45.31,32.77c1.8,0.63,4.34,0.76,6.2,0.59c7.33-0.64,16.7-2.27,24.62-3.07c1.82-0.18,4.04-0.33,5.84,0.05" transform="matrix(1,0,0,1,696,-4)" class="stroke_order_diagram--existing_path"></path><path id="pathSk2v596cnjiy" kvg:type="㇐" d="M40.13,51.5c2.36,0.73,5.09,0.73,7.5,0.38c8.62-1.26,23.37-3.03,36.12-4.3c2.47-0.25,5.16-0.29,7.63,0.17" transform="matrix(1,0,0,1,696,-4)" class="stroke_order_diagram--existing_path"></path><path id="pathSk2v596cnjiz" kvg:type="㇑" d="M61.68,11.5c1.41,1.41,1.93,3.25,1.93,4.75c0,0.88-0.01,54.18-0.02,75.5c0,3.68,0,6.41,0,7.75" transform="matrix(1,0,0,1,696,-4)" class="stroke_order_diagram--existing_path"></path><path id="pathSk2v596cnjj0" kvg:type="㇒" d="M61,51.12c0,1.97-0.91,3.63-1.98,5.21c-7.06,10.48-19.73,23.07-30.64,28.54" transform="matrix(1,0,0,1,696,-4)" class="stroke_order_diagram--existing_path"></path><path id="kvg:05473-s8" kvg:type="㇏" d="M64.65,50.62c3.78,5.82,16.49,19.94,23.74,26.88c2.02,1.93,3.61,3.5,6.36,4.75" transform="matrix(1,0,0,1,696,-4)" class="stroke_order_diagram--current_path"></path><path id="pathSk2v596cnjj2" kvg:type="㇏" d="M64.65,50.62c3.78,5.82,16.49,19.94,23.74,26.88c2.02,1.93,3.61,3.5,6.36,4.75" transform="matrix(1,0,0,1,696,-4)" class="stroke_order_diagram--current_path"></path><circle cx="64.65" cy="50.62" r="8" class="stroke_order_diagram--path_start" transform="matrix(1,0,0,1,696,-4)"></circle></svg>