<svg style="width: 1000px; height: 100px;" viewbox="0 0 1000 100"><style>
.stroke_order_diagram--outer_container {
  width: 100%;
  overflow-x: auto;
  overflow-y: hidden;
}

.stroke_order_diagram--guide_line {
  fill: none;
  stroke: #ddd;
  stroke-width: 3;
  stroke-linecap: square;
  stroke-linejoin: square;
  stroke-dasharray:8, 8;
}

.stroke_order_diagram--bounding_box {
  fill: none;
  stroke: #ddd;
  stroke-width: 4;
  stroke-linecap: square;
  stroke-linejoin: square;
}

.stroke_order_diagram--current_path {
  fill: none;
  stroke: #000;
  stroke-width: 6;
  stroke-linecap: round;
  stroke-linejoin: round;
}

.stroke_order_diagram--existing_path {
  fill: none;
  stroke: #aaa;
  stroke-width: 6;
  stroke-linecap: round;
  stroke-linejoin:round;
}

.stroke_order_diagram--path_start {
  fill: rgba(255, 0, 0, 0.7);
  stroke:none
}</style><desc>Created with Snap</desc><defs></defs><line x1="1" x2="999" y1="1" y2="1" class="stroke_order_diagram--bounding_box"></line><line x1="1" x2="1" y1="1" y2="99" class="stroke_order_diagram--bounding_box"></line><line x1="1" x2="999" y1="99" y2="99" class="stroke_order_diagram--bounding_box"></line><line x1="0" x2="1000" y1="50" y2="50" class="stroke_order_diagram--guide_line"></line><line x1="50" x2="50" y1="1" y2="99" class="stroke_order_diagram--guide_line"></line><line x1="99" x2="99" y1="1" y2="99" class="stroke_order_diagram--bounding_box"></line><path id="kvg:054e1-s1" kvg:type="㇑" d="M29.04,13.85c1.09,0.77,1.78,2.04,1.96,2.9c0.87,4.12,1.77,9.71,2.58,14.73c0.15,0.94,0.29,1.87,0.42,2.76" transform="matrix(1,0,0,1,-4,-4)" class="stroke_order_diagram--current_path"></path><path id="pathSk2v596cnlj3" kvg:type="㇑" d="M29.04,13.85c1.09,0.77,1.78,2.04,1.96,2.9c0.87,4.12,1.77,9.71,2.58,14.73c0.15,0.94,0.29,1.87,0.42,2.76" transform="matrix(1,0,0,1,-4,-4)" class="stroke_order_diagram--current_path"></path><circle cx="29.04" cy="13.85" r="8" class="stroke_order_diagram--path_start" transform="matrix(1,0,0,1,-4,-4)"></circle><line x1="150" x2="150" y1="1" y2="99" class="stroke_order_diagram--guide_line"></line><line x1="199" x2="199" y1="1" y2="99" class="stroke_order_diagram--bounding_box"></line><path id="pathSk2v596cnlj6" kvg:type="㇑" d="M29.04,13.85c1.09,0.77,1.78,2.04,1.96,2.9c0.87,4.12,1.77,9.71,2.58,14.73c0.15,0.94,0.29,1.87,0.42,2.76" transform="matrix(1,0,0,1,96,-4)" class="stroke_order_diagram--existing_path"></path><path id="kvg:054e1-s2" kvg:type="㇕b" d="M31.49,15.19c12.02-1.41,37.9-4.06,42.45-4.45c2.81-0.24,4.31,1.14,3.63,3.71c-0.95,3.6-2.32,8.34-3.48,12.58" transform="matrix(1,0,0,1,96,-4)" class="stroke_order_diagram--current_path"></path><path id="pathSk2v596cnlj8" kvg:type="㇕b" d="M31.49,15.19c12.02-1.41,37.9-4.06,42.45-4.45c2.81-0.24,4.31,1.14,3.63,3.71c-0.95,3.6-2.32,8.34-3.48,12.58" transform="matrix(1,0,0,1,96,-4)" class="stroke_order_diagram--current_path"></path><circle cx="31.49" cy="15.19" r="8" class="stroke_order_diagram--path_start" transform="matrix(1,0,0,1,96,-4)"></circle><line x1="250" x2="250" y1="1" y2="99" class="stroke_order_diagram--guide_line"></line><line x1="299" x2="299" y1="1" y2="99" class="stroke_order_diagram--bounding_box"></line><path id="pathSk2v596cnljb" kvg:type="㇑" d="M29.04,13.85c1.09,0.77,1.78,2.04,1.96,2.9c0.87,4.12,1.77,9.71,2.58,14.73c0.15,0.94,0.29,1.87,0.42,2.76" transform="matrix(1,0,0,1,196,-4)" class="stroke_order_diagram--existing_path"></path><path id="pathSk2v596cnljc" kvg:type="㇕b" d="M31.49,15.19c12.02-1.41,37.9-4.06,42.45-4.45c2.81-0.24,4.31,1.14,3.63,3.71c-0.95,3.6-2.32,8.34-3.48,12.58" transform="matrix(1,0,0,1,196,-4)" class="stroke_order_diagram--existing_path"></path><path id="kvg:054e1-s3" kvg:type="㇐b" d="M34.2,32.08c4.98-0.5,26.33-2.41,37.31-3.51c1.81-0.18,3.33-0.34,4.46-0.46" transform="matrix(1,0,0,1,196,-4)" class="stroke_order_diagram--current_path"></path><path id="pathSk2v596cnlje" kvg:type="㇐b" d="M34.2,32.08c4.98-0.5,26.33-2.41,37.31-3.51c1.81-0.18,3.33-0.34,4.46-0.46" transform="matrix(1,0,0,1,196,-4)" class="stroke_order_diagram--current_path"></path><circle cx="34.2" cy="32.08" r="8" class="stroke_order_diagram--path_start" transform="matrix(1,0,0,1,196,-4)"></circle><line x1="350" x2="350" y1="1" y2="99" class="stroke_order_diagram--guide_line"></line><line x1="399" x2="399" y1="1" y2="99" class="stroke_order_diagram--bounding_box"></line><path id="pathSk2v596cnljh" kvg:type="㇑" d="M29.04,13.85c1.09,0.77,1.78,2.04,1.96,2.9c0.87,4.12,1.77,9.71,2.58,14.73c0.15,0.94,0.29,1.87,0.42,2.76" transform="matrix(1,0,0,1,296,-4)" class="stroke_order_diagram--existing_path"></path><path id="pathSk2v596cnlji" kvg:type="㇕b" d="M31.49,15.19c12.02-1.41,37.9-4.06,42.45-4.45c2.81-0.24,4.31,1.14,3.63,3.71c-0.95,3.6-2.32,8.34-3.48,12.58" transform="matrix(1,0,0,1,296,-4)" class="stroke_order_diagram--existing_path"></path><path id="pathSk2v596cnljj" kvg:type="㇐b" d="M34.2,32.08c4.98-0.5,26.33-2.41,37.31-3.51c1.81-0.18,3.33-0.34,4.46-0.46" transform="matrix(1,0,0,1,296,-4)" class="stroke_order_diagram--existing_path"></path><path id="kvg:054e1-s4" kvg:type="㇑" d="M32.89,41.39c0.67,0.91,1.16,2.09,1.16,3.3c0,0.99-0.15,24.66-0.08,34.05c0.02,2.14,0.04,3.54,0.08,3.76" transform="matrix(1,0,0,1,296,-4)" class="stroke_order_diagram--current_path"></path><path id="pathSk2v596cnljl" kvg:type="㇑" d="M32.89,41.39c0.67,0.91,1.16,2.09,1.16,3.3c0,0.99-0.15,24.66-0.08,34.05c0.02,2.14,0.04,3.54,0.08,3.76" transform="matrix(1,0,0,1,296,-4)" class="stroke_order_diagram--current_path"></path><circle cx="32.89" cy="41.39" r="8" class="stroke_order_diagram--path_start" transform="matrix(1,0,0,1,296,-4)"></circle><line x1="450" x2="450" y1="1" y2="99" class="stroke_order_diagram--guide_line"></line><line x1="499" x2="499" y1="1" y2="99" class="stroke_order_diagram--bounding_box"></line><path id="pathSk2v596cnljo" kvg:type="㇑" d="M29.04,13.85c1.09,0.77,1.78,2.04,1.96,2.9c0.87,4.12,1.77,9.71,2.58,14.73c0.15,0.94,0.29,1.87,0.42,2.76" transform="matrix(1,0,0,1,396,-4)" class="stroke_order_diagram--existing_path"></path><path id="pathSk2v596cnljp" kvg:type="㇕b" d="M31.49,15.19c12.02-1.41,37.9-4.06,42.45-4.45c2.81-0.24,4.31,1.14,3.63,3.71c-0.95,3.6-2.32,8.34-3.48,12.58" transform="matrix(1,0,0,1,396,-4)" class="stroke_order_diagram--existing_path"></path><path id="pathSk2v596cnljq" kvg:type="㇐b" d="M34.2,32.08c4.98-0.5,26.33-2.41,37.31-3.51c1.81-0.18,3.33-0.34,4.46-0.46" transform="matrix(1,0,0,1,396,-4)" class="stroke_order_diagram--existing_path"></path><path id="pathSk2v596cnljr" kvg:type="㇑" d="M32.89,41.39c0.67,0.91,1.16,2.09,1.16,3.3c0,0.99-0.15,24.66-0.08,34.05c0.02,2.14,0.04,3.54,0.08,3.76" transform="matrix(1,0,0,1,396,-4)" class="stroke_order_diagram--existing_path"></path><path id="kvg:054e1-s5" kvg:type="㇕a" d="M34.75,42.49c9.25-0.77,34.46-3.1,37.37-3.25c2.9-0.15,4.63,1.26,4.45,3.97c-0.21,3.08-0.64,24.88-0.79,33.54c-0.04,1.97-0.06,3.73-0.06,3.9" transform="matrix(1,0,0,1,396,-4)" class="stroke_order_diagram--current_path"></path><path id="pathSk2v596cnljt" kvg:type="㇕a" d="M34.75,42.49c9.25-0.77,34.46-3.1,37.37-3.25c2.9-0.15,4.63,1.26,4.45,3.97c-0.21,3.08-0.64,24.88-0.79,33.54c-0.04,1.97-0.06,3.73-0.06,3.9" transform="matrix(1,0,0,1,396,-4)" class="stroke_order_diagram--current_path"></path><circle cx="34.75" cy="42.49" r="8" class="stroke_order_diagram--path_start" transform="matrix(1,0,0,1,396,-4)"></circle><line x1="550" x2="550" y1="1" y2="99" class="stroke_order_diagram--guide_line"></line><line x1="599" x2="599" y1="1" y2="99" class="stroke_order_diagram--bounding_box"></line><path id="pathSk2v596cnljw" kvg:type="㇑" d="M29.04,13.85c1.09,0.77,1.78,2.04,1.96,2.9c0.87,4.12,1.77,9.71,2.58,14.73c0.15,0.94,0.29,1.87,0.42,2.76" transform="matrix(1,0,0,1,496,-4)" class="stroke_order_diagram--existing_path"></path><path id="pathSk2v596cnljx" kvg:type="㇕b" d="M31.49,15.19c12.02-1.41,37.9-4.06,42.45-4.45c2.81-0.24,4.31,1.14,3.63,3.71c-0.95,3.6-2.32,8.34-3.48,12.58" transform="matrix(1,0,0,1,496,-4)" class="stroke_order_diagram--existing_path"></path><path id="pathSk2v596cnljy" kvg:type="㇐b" d="M34.2,32.08c4.98-0.5,26.33-2.41,37.31-3.51c1.81-0.18,3.33-0.34,4.46-0.46" transform="matrix(1,0,0,1,496,-4)" class="stroke_order_diagram--existing_path"></path><path id="pathSk2v596cnljz" kvg:type="㇑" d="M32.89,41.39c0.67,0.91,1.16,2.09,1.16,3.3c0,0.99-0.15,24.66-0.08,34.05c0.02,2.14,0.04,3.54,0.08,3.76" transform="matrix(1,0,0,1,496,-4)" class="stroke_order_diagram--existing_path"></path><path id="pathSk2v596cnlk0" kvg:type="㇕a" d="M34.75,42.49c9.25-0.77,34.46-3.1,37.37-3.25c2.9-0.15,4.63,1.26,4.45,3.97c-0.21,3.08-0.64,24.88-0.79,33.54c-0.04,1.97-0.06,3.73-0.06,3.9" transform="matrix(1,0,0,1,496,-4)" class="stroke_order_diagram--existing_path"></path><path id="kvg:054e1-s6" kvg:type="㇐a" d="M35.11,54.59c9.26-0.71,31.26-2.34,40.03-2.72" transform="matrix(1,0,0,1,496,-4)" class="stroke_order_diagram--current_path"></path><path id="pathSk2v596cnlk2" kvg:type="㇐a" d="M35.11,54.59c9.26-0.71,31.26-2.34,40.03-2.72" transform="matrix(1,0,0,1,496,-4)" class="stroke_order_diagram--current_path"></path><circle cx="35.11" cy="54.59" r="8" class="stroke_order_diagram--path_start" transform="matrix(1,0,0,1,496,-4)"></circle><line x1="650" x2="650" y1="1" y2="99" class="stroke_order_diagram--guide_line"></line><line x1="699" x2="699" y1="1" y2="99" class="stroke_order_diagram--bounding_box"></line><path id="pathSk2v596cnlk5" kvg:type="㇑" d="M29.04,13.85c1.09,0.77,1.78,2.04,1.96,2.9c0.87,4.12,1.77,9.71,2.58,14.73c0.15,0.94,0.29,1.87,0.42,2.76" transform="matrix(1,0,0,1,596,-4)" class="stroke_order_diagram--existing_path"></path><path id="pathSk2v596cnlk6" kvg:type="㇕b" d="M31.49,15.19c12.02-1.41,37.9-4.06,42.45-4.45c2.81-0.24,4.31,1.14,3.63,3.71c-0.95,3.6-2.32,8.34-3.48,12.58" transform="matrix(1,0,0,1,596,-4)" class="stroke_order_diagram--existing_path"></path><path id="pathSk2v596cnlk7" kvg:type="㇐b" d="M34.2,32.08c4.98-0.5,26.33-2.41,37.31-3.51c1.81-0.18,3.33-0.34,4.46-0.46" transform="matrix(1,0,0,1,596,-4)" class="stroke_order_diagram--existing_path"></path><path id="pathSk2v596cnlk8" kvg:type="㇑" d="M32.89,41.39c0.67,0.91,1.16,2.09,1.16,3.3c0,0.99-0.15,24.66-0.08,34.05c0.02,2.14,0.04,3.54,0.08,3.76" transform="matrix(1,0,0,1,596,-4)" class="stroke_order_diagram--existing_path"></path><path id="pathSk2v596cnlk9" kvg:type="㇕a" d="M34.75,42.49c9.25-0.77,34.46-3.1,37.37-3.25c2.9-0.15,4.63,1.26,4.45,3.97c-0.21,3.08-0.64,24.88-0.79,33.54c-0.04,1.97-0.06,3.73-0.06,3.9" transform="matrix(1,0,0,1,596,-4)" class="stroke_order_diagram--existing_path"></path><path id="pathSk2v596cnlka" kvg:type="㇐a" d="M35.11,54.59c9.26-0.71,31.26-2.34,40.03-2.72" transform="matrix(1,0,0,1,596,-4)" class="stroke_order_diagram--existing_path"></path><path id="kvg:054e1-s7" kvg:type="㇐a" d="M35.42,66.76c10.7-0.76,28.7-2.13,39.27-2.57" transform="matrix(1,0,0,1,596,-4)" class="stroke_order_diagram--current_path"></path><path id="pathSk2v596cnlkc" kvg:type="㇐a" d="M35.42,66.76c10.7-0.76,28.7-2.13,39.27-2.57" transform="matrix(1,0,0,1,596,-4)" class="stroke_order_diagram--current_path"></path><circle cx="35.42" cy="66.76" r="8" class="stroke_order_diagram--path_start" transform="matrix(1,0,0,1,596,-4)"></circle><line x1="750" x2="750" y1="1" y2="99" class="stroke_order_diagram--guide_line"></line><line x1="799" x2="799" y1="1" y2="99" class="stroke_order_diagram--bounding_box"></line><path id="pathSk2v596cnlkf" kvg:type="㇑" d="M29.04,13.85c1.09,0.77,1.78,2.04,1.96,2.9c0.87,4.12,1.77,9.71,2.58,14.73c0.15,0.94,0.29,1.87,0.42,2.76" transform="matrix(1,0,0,1,696,-4)" class="stroke_order_diagram--existing_path"></path><path id="pathSk2v596cnlkg" kvg:type="㇕b" d="M31.49,15.19c12.02-1.41,37.9-4.06,42.45-4.45c2.81-0.24,4.31,1.14,3.63,3.71c-0.95,3.6-2.32,8.34-3.48,12.58" transform="matrix(1,0,0,1,696,-4)" class="stroke_order_diagram--existing_path"></path><path id="pathSk2v596cnlkh" kvg:type="㇐b" d="M34.2,32.08c4.98-0.5,26.33-2.41,37.31-3.51c1.81-0.18,3.33-0.34,4.46-0.46" transform="matrix(1,0,0,1,696,-4)" class="stroke_order_diagram--existing_path"></path><path id="pathSk2v596cnlki" kvg:type="㇑" d="M32.89,41.39c0.67,0.91,1.16,2.09,1.16,3.3c0,0.99-0.15,24.66-0.08,34.05c0.02,2.14,0.04,3.54,0.08,3.76" transform="matrix(1,0,0,1,696,-4)" class="stroke_order_diagram--existing_path"></path><path id="pathSk2v596cnlkj" kvg:type="㇕a" d="M34.75,42.49c9.25-0.77,34.46-3.1,37.37-3.25c2.9-0.15,4.63,1.26,4.45,3.97c-0.21,3.08-0.64,24.88-0.79,33.54c-0.04,1.97-0.06,3.73-0.06,3.9" transform="matrix(1,0,0,1,696,-4)" class="stroke_order_diagram--existing_path"></path><path id="pathSk2v596cnlkk" kvg:type="㇐a" d="M35.11,54.59c9.26-0.71,31.26-2.34,40.03-2.72" transform="matrix(1,0,0,1,696,-4)" class="stroke_order_diagram--existing_path"></path><path id="pathSk2v596cnlkl" kvg:type="㇐a" d="M35.42,66.76c10.7-0.76,28.7-2.13,39.27-2.57" transform="matrix(1,0,0,1,696,-4)" class="stroke_order_diagram--existing_path"></path><path id="kvg:054e1-s8" kvg:type="㇐a" d="M35.16,79.89c9.34-0.64,30.46-2.27,39.27-2.57" transform="matrix(1,0,0,1,696,-4)" class="stroke_order_diagram--current_path"></path><path id="pathSk2v596cnlkn" kvg:type="㇐a" d="M35.16,79.89c9.34-0.64,30.46-2.27,39.27-2.57" transform="matrix(1,0,0,1,696,-4)" class="stroke_order_diagram--current_path"></path><circle cx="35.16" cy="79.89" r="8" class="stroke_order_diagram--path_start" transform="matrix(1,0,0,1,696,-4)"></circle><line x1="850" x2="850" y1="1" y2="99" class="stroke_order_diagram--guide_line"></line><line x1="899" x2="899" y1="1" y2="99" class="stroke_order_diagram--bounding_box"></line><path id="pathSk2v596cnlkq" kvg:type="㇑" d="M29.04,13.85c1.09,0.77,1.78,2.04,1.96,2.9c0.87,4.12,1.77,9.71,2.58,14.73c0.15,0.94,0.29,1.87,0.42,2.76" transform="matrix(1,0,0,1,796,-4)" class="stroke_order_diagram--existing_path"></path><path id="pathSk2v596cnlkr" kvg:type="㇕b" d="M31.49,15.19c12.02-1.41,37.9-4.06,42.45-4.45c2.81-0.24,4.31,1.14,3.63,3.71c-0.95,3.6-2.32,8.34-3.48,12.58" transform="matrix(1,0,0,1,796,-4)" class="stroke_order_diagram--existing_path"></path><path id="pathSk2v596cnlks" kvg:type="㇐b" d="M34.2,32.08c4.98-0.5,26.33-2.41,37.31-3.51c1.81-0.18,3.33-0.34,4.46-0.46" transform="matrix(1,0,0,1,796,-4)" class="stroke_order_diagram--existing_path"></path><path id="pathSk2v596cnlkt" kvg:type="㇑" d="M32.89,41.39c0.67,0.91,1.16,2.09,1.16,3.3c0,0.99-0.15,24.66-0.08,34.05c0.02,2.14,0.04,3.54,0.08,3.76" transform="matrix(1,0,0,1,796,-4)" class="stroke_order_diagram--existing_path"></path><path id="pathSk2v596cnlku" kvg:type="㇕a" d="M34.75,42.49c9.25-0.77,34.46-3.1,37.37-3.25c2.9-0.15,4.63,1.26,4.45,3.97c-0.21,3.08-0.64,24.88-0.79,33.54c-0.04,1.97-0.06,3.73-0.06,3.9" transform="matrix(1,0,0,1,796,-4)" class="stroke_order_diagram--existing_path"></path><path id="pathSk2v596cnlkv" kvg:type="㇐a" d="M35.11,54.59c9.26-0.71,31.26-2.34,40.03-2.72" transform="matrix(1,0,0,1,796,-4)" class="stroke_order_diagram--existing_path"></path><path id="pathSk2v596cnlkw" kvg:type="㇐a" d="M35.42,66.76c10.7-0.76,28.7-2.13,39.27-2.57" transform="matrix(1,0,0,1,796,-4)" class="stroke_order_diagram--existing_path"></path><path id="pathSk2v596cnlkx" kvg:type="㇐a" d="M35.16,79.89c9.34-0.64,30.46-2.27,39.27-2.57" transform="matrix(1,0,0,1,796,-4)" class="stroke_order_diagram--existing_path"></path><path id="kvg:054e1-s9" kvg:type="㇒" d="M41.62,85c0.23,1.71-0.49,2.79-1.44,3.6C37.3,91.03,28.4,97,22.62,99.88" transform="matrix(1,0,0,1,796,-4)" class="stroke_order_diagram--current_path"></path><path id="pathSk2v596cnlkz" kvg:type="㇒" d="M41.62,85c0.23,1.71-0.49,2.79-1.44,3.6C37.3,91.03,28.4,97,22.62,99.88" transform="matrix(1,0,0,1,796,-4)" class="stroke_order_diagram--current_path"></path><circle cx="41.62" cy="85" r="8" class="stroke_order_diagram--path_start" transform="matrix(1,0,0,1,796,-4)"></circle><line x1="950" x2="950" y1="1" y2="99" class="stroke_order_diagram--guide_line"></line><line x1="999" x2="999" y1="1" y2="99" class="stroke_order_diagram--bounding_box"></line><path id="pathSk2v596cnll2" kvg:type="㇑" d="M29.04,13.85c1.09,0.77,1.78,2.04,1.96,2.9c0.87,4.12,1.77,9.71,2.58,14.73c0.15,0.94,0.29,1.87,0.42,2.76" transform="matrix(1,0,0,1,896,-4)" class="stroke_order_diagram--existing_path"></path><path id="pathSk2v596cnll3" kvg:type="㇕b" d="M31.49,15.19c12.02-1.41,37.9-4.06,42.45-4.45c2.81-0.24,4.31,1.14,3.63,3.71c-0.95,3.6-2.32,8.34-3.48,12.58" transform="matrix(1,0,0,1,896,-4)" class="stroke_order_diagram--existing_path"></path><path id="pathSk2v596cnll4" kvg:type="㇐b" d="M34.2,32.08c4.98-0.5,26.33-2.41,37.31-3.51c1.81-0.18,3.33-0.34,4.46-0.46" transform="matrix(1,0,0,1,896,-4)" class="stroke_order_diagram--existing_path"></path><path id="pathSk2v596cnll5" kvg:type="㇑" d="M32.89,41.39c0.67,0.91,1.16,2.09,1.16,3.3c0,0.99-0.15,24.66-0.08,34.05c0.02,2.14,0.04,3.54,0.08,3.76" transform="matrix(1,0,0,1,896,-4)" class="stroke_order_diagram--existing_path"></path><path id="pathSk2v596cnll6" kvg:type="㇕a" d="M34.75,42.49c9.25-0.77,34.46-3.1,37.37-3.25c2.9-0.15,4.63,1.26,4.45,3.97c-0.21,3.08-0.64,24.88-0.79,33.54c-0.04,1.97-0.06,3.73-0.06,3.9" transform="matrix(1,0,0,1,896,-4)" class="stroke_order_diagram--existing_path"></path><path id="pathSk2v596cnll7" kvg:type="㇐a" d="M35.11,54.59c9.26-0.71,31.26-2.34,40.03-2.72" transform="matrix(1,0,0,1,896,-4)" class="stroke_order_diagram--existing_path"></path><path id="pathSk2v596cnll8" kvg:type="㇐a" d="M35.42,66.76c10.7-0.76,28.7-2.13,39.27-2.57" transform="matrix(1,0,0,1,896,-4)" class="stroke_order_diagram--existing_path"></path><path id="pathSk2v596cnll9" kvg:type="㇐a" d="M35.16,79.89c9.34-0.64,30.46-2.27,39.27-2.57" transform="matrix(1,0,0,1,896,-4)" class="stroke_order_diagram--existing_path"></path><path id="pathSk2v596cnlla" kvg:type="㇒" d="M41.62,85c0.23,1.71-0.49,2.79-1.44,3.6C37.3,91.03,28.4,97,22.62,99.88" transform="matrix(1,0,0,1,896,-4)" class="stroke_order_diagram--existing_path"></path><path id="kvg:054e1-s10" kvg:type="㇔" d="M67.5,84.75c7.62,3.98,17.17,11.76,19.25,15.25" transform="matrix(1,0,0,1,896,-4)" class="stroke_order_diagram--current_path"></path><path id="pathSk2v596cnllc" kvg:type="㇔" d="M67.5,84.75c7.62,3.98,17.17,11.76,19.25,15.25" transform="matrix(1,0,0,1,896,-4)" class="stroke_order_diagram--current_path"></path><circle cx="67.5" cy="84.75" r="8" class="stroke_order_diagram--path_start" transform="matrix(1,0,0,1,896,-4)"></circle></svg>