<svg style="width: 1100px; height: 100px;" viewbox="0 0 1100 100"><style>
.stroke_order_diagram--outer_container {
  width: 100%;
  overflow-x: auto;
  overflow-y: hidden;
}

.stroke_order_diagram--guide_line {
  fill: none;
  stroke: #ddd;
  stroke-width: 3;
  stroke-linecap: square;
  stroke-linejoin: square;
  stroke-dasharray:8, 8;
}

.stroke_order_diagram--bounding_box {
  fill: none;
  stroke: #ddd;
  stroke-width: 4;
  stroke-linecap: square;
  stroke-linejoin: square;
}

.stroke_order_diagram--current_path {
  fill: none;
  stroke: #000;
  stroke-width: 6;
  stroke-linecap: round;
  stroke-linejoin: round;
}

.stroke_order_diagram--existing_path {
  fill: none;
  stroke: #aaa;
  stroke-width: 6;
  stroke-linecap: round;
  stroke-linejoin:round;
}

.stroke_order_diagram--path_start {
  fill: rgba(255, 0, 0, 0.7);
  stroke:none
}</style><desc>Created with Snap</desc><defs></defs><line x1="1" x2="1099" y1="1" y2="1" class="stroke_order_diagram--bounding_box"></line><line x1="1" x2="1" y1="1" y2="99" class="stroke_order_diagram--bounding_box"></line><line x1="1" x2="1099" y1="99" y2="99" class="stroke_order_diagram--bounding_box"></line><line x1="0" x2="1100" y1="50" y2="50" class="stroke_order_diagram--guide_line"></line><line x1="50" x2="50" y1="1" y2="99" class="stroke_order_diagram--guide_line"></line><line x1="99" x2="99" y1="1" y2="99" class="stroke_order_diagram--bounding_box"></line><path id="kvg:0559d-s1" kvg:type="㇑" d="M14.25,33.65c0.72,1.06,1.04,1.92,1.23,3.23c0.89,6.25,2.23,14.12,3.01,22.08c0.18,1.87,0.35,3.66,0.5,5.29" transform="matrix(1,0,0,1,-4,-4)" class="stroke_order_diagram--current_path"></path><path id="pathSk2v596cn4kv7" kvg:type="㇑" d="M14.25,33.65c0.72,1.06,1.04,1.92,1.23,3.23c0.89,6.25,2.23,14.12,3.01,22.08c0.18,1.87,0.35,3.66,0.5,5.29" transform="matrix(1,0,0,1,-4,-4)" class="stroke_order_diagram--current_path"></path><circle cx="14.25" cy="33.65" r="8" class="stroke_order_diagram--path_start" transform="matrix(1,0,0,1,-4,-4)"></circle><line x1="150" x2="150" y1="1" y2="99" class="stroke_order_diagram--guide_line"></line><line x1="199" x2="199" y1="1" y2="99" class="stroke_order_diagram--bounding_box"></line><path id="pathSk2v596cn4kva" kvg:type="㇑" d="M14.25,33.65c0.72,1.06,1.04,1.92,1.23,3.23c0.89,6.25,2.23,14.12,3.01,22.08c0.18,1.87,0.35,3.66,0.5,5.29" transform="matrix(1,0,0,1,96,-4)" class="stroke_order_diagram--existing_path"></path><path id="kvg:0559d-s2" kvg:type="㇕b" d="M16.25,34.96c6.62-0.82,13.25-1.9,17.74-2.63c3-0.49,4.7,0.09,4.2,3.55c-0.88,6.1-1.92,14.57-3.21,22.65" transform="matrix(1,0,0,1,96,-4)" class="stroke_order_diagram--current_path"></path><path id="pathSk2v596cn4kvc" kvg:type="㇕b" d="M16.25,34.96c6.62-0.82,13.25-1.9,17.74-2.63c3-0.49,4.7,0.09,4.2,3.55c-0.88,6.1-1.92,14.57-3.21,22.65" transform="matrix(1,0,0,1,96,-4)" class="stroke_order_diagram--current_path"></path><circle cx="16.25" cy="34.96" r="8" class="stroke_order_diagram--path_start" transform="matrix(1,0,0,1,96,-4)"></circle><line x1="250" x2="250" y1="1" y2="99" class="stroke_order_diagram--guide_line"></line><line x1="299" x2="299" y1="1" y2="99" class="stroke_order_diagram--bounding_box"></line><path id="pathSk2v596cn4kvf" kvg:type="㇑" d="M14.25,33.65c0.72,1.06,1.04,1.92,1.23,3.23c0.89,6.25,2.23,14.12,3.01,22.08c0.18,1.87,0.35,3.66,0.5,5.29" transform="matrix(1,0,0,1,196,-4)" class="stroke_order_diagram--existing_path"></path><path id="pathSk2v596cn4kvg" kvg:type="㇕b" d="M16.25,34.96c6.62-0.82,13.25-1.9,17.74-2.63c3-0.49,4.7,0.09,4.2,3.55c-0.88,6.1-1.92,14.57-3.21,22.65" transform="matrix(1,0,0,1,196,-4)" class="stroke_order_diagram--existing_path"></path><path id="kvg:0559d-s3" kvg:type="㇐b" d="M19.16,61.63c4.04-0.64,8.02-1.15,13.56-1.84c1.27-0.16,2.61-0.32,4.06-0.5" transform="matrix(1,0,0,1,196,-4)" class="stroke_order_diagram--current_path"></path><path id="pathSk2v596cn4kvi" kvg:type="㇐b" d="M19.16,61.63c4.04-0.64,8.02-1.15,13.56-1.84c1.27-0.16,2.61-0.32,4.06-0.5" transform="matrix(1,0,0,1,196,-4)" class="stroke_order_diagram--current_path"></path><circle cx="19.16" cy="61.63" r="8" class="stroke_order_diagram--path_start" transform="matrix(1,0,0,1,196,-4)"></circle><line x1="350" x2="350" y1="1" y2="99" class="stroke_order_diagram--guide_line"></line><line x1="399" x2="399" y1="1" y2="99" class="stroke_order_diagram--bounding_box"></line><path id="pathSk2v596cn4kvl" kvg:type="㇑" d="M14.25,33.65c0.72,1.06,1.04,1.92,1.23,3.23c0.89,6.25,2.23,14.12,3.01,22.08c0.18,1.87,0.35,3.66,0.5,5.29" transform="matrix(1,0,0,1,296,-4)" class="stroke_order_diagram--existing_path"></path><path id="pathSk2v596cn4kvm" kvg:type="㇕b" d="M16.25,34.96c6.62-0.82,13.25-1.9,17.74-2.63c3-0.49,4.7,0.09,4.2,3.55c-0.88,6.1-1.92,14.57-3.21,22.65" transform="matrix(1,0,0,1,296,-4)" class="stroke_order_diagram--existing_path"></path><path id="pathSk2v596cn4kvn" kvg:type="㇐b" d="M19.16,61.63c4.04-0.64,8.02-1.15,13.56-1.84c1.27-0.16,2.61-0.32,4.06-0.5" transform="matrix(1,0,0,1,296,-4)" class="stroke_order_diagram--existing_path"></path><path id="kvg:0559d-s4" kvg:type="㇑" d="M48.75,13.77c0.8,0.8,1.12,1.98,1.42,3.24c0.42,3.28,1.24,13.54,1.79,18.99c0.2,2,0.46,3.9,0.59,4.75" transform="matrix(1,0,0,1,296,-4)" class="stroke_order_diagram--current_path"></path><path id="pathSk2v596cn4kvp" kvg:type="㇑" d="M48.75,13.77c0.8,0.8,1.12,1.98,1.42,3.24c0.42,3.28,1.24,13.54,1.79,18.99c0.2,2,0.46,3.9,0.59,4.75" transform="matrix(1,0,0,1,296,-4)" class="stroke_order_diagram--current_path"></path><circle cx="48.75" cy="13.77" r="8" class="stroke_order_diagram--path_start" transform="matrix(1,0,0,1,296,-4)"></circle><line x1="450" x2="450" y1="1" y2="99" class="stroke_order_diagram--guide_line"></line><line x1="499" x2="499" y1="1" y2="99" class="stroke_order_diagram--bounding_box"></line><path id="pathSk2v596cn4kvs" kvg:type="㇑" d="M14.25,33.65c0.72,1.06,1.04,1.92,1.23,3.23c0.89,6.25,2.23,14.12,3.01,22.08c0.18,1.87,0.35,3.66,0.5,5.29" transform="matrix(1,0,0,1,396,-4)" class="stroke_order_diagram--existing_path"></path><path id="pathSk2v596cn4kvt" kvg:type="㇕b" d="M16.25,34.96c6.62-0.82,13.25-1.9,17.74-2.63c3-0.49,4.7,0.09,4.2,3.55c-0.88,6.1-1.92,14.57-3.21,22.65" transform="matrix(1,0,0,1,396,-4)" class="stroke_order_diagram--existing_path"></path><path id="pathSk2v596cn4kvu" kvg:type="㇐b" d="M19.16,61.63c4.04-0.64,8.02-1.15,13.56-1.84c1.27-0.16,2.61-0.32,4.06-0.5" transform="matrix(1,0,0,1,396,-4)" class="stroke_order_diagram--existing_path"></path><path id="pathSk2v596cn4kvv" kvg:type="㇑" d="M48.75,13.77c0.8,0.8,1.12,1.98,1.42,3.24c0.42,3.28,1.24,13.54,1.79,18.99c0.2,2,0.46,3.9,0.59,4.75" transform="matrix(1,0,0,1,396,-4)" class="stroke_order_diagram--existing_path"></path><path id="kvg:0559d-s5" kvg:type="㇕a" d="M50.94,15.37c3.74-0.54,20.39-2.76,26.32-3.43c2.95-0.33,5.22,0.2,4.8,3.58c-0.77,6.25-1.8,12.39-2.79,18.77c-0.27,1.75-0.54,3.52-0.8,5.32" transform="matrix(1,0,0,1,396,-4)" class="stroke_order_diagram--current_path"></path><path id="pathSk2v596cn4kvx" kvg:type="㇕a" d="M50.94,15.37c3.74-0.54,20.39-2.76,26.32-3.43c2.95-0.33,5.22,0.2,4.8,3.58c-0.77,6.25-1.8,12.39-2.79,18.77c-0.27,1.75-0.54,3.52-0.8,5.32" transform="matrix(1,0,0,1,396,-4)" class="stroke_order_diagram--current_path"></path><circle cx="50.94" cy="15.37" r="8" class="stroke_order_diagram--path_start" transform="matrix(1,0,0,1,396,-4)"></circle><line x1="550" x2="550" y1="1" y2="99" class="stroke_order_diagram--guide_line"></line><line x1="599" x2="599" y1="1" y2="99" class="stroke_order_diagram--bounding_box"></line><path id="pathSk2v596cn4kw0" kvg:type="㇑" d="M14.25,33.65c0.72,1.06,1.04,1.92,1.23,3.23c0.89,6.25,2.23,14.12,3.01,22.08c0.18,1.87,0.35,3.66,0.5,5.29" transform="matrix(1,0,0,1,496,-4)" class="stroke_order_diagram--existing_path"></path><path id="pathSk2v596cn4kw1" kvg:type="㇕b" d="M16.25,34.96c6.62-0.82,13.25-1.9,17.74-2.63c3-0.49,4.7,0.09,4.2,3.55c-0.88,6.1-1.92,14.57-3.21,22.65" transform="matrix(1,0,0,1,496,-4)" class="stroke_order_diagram--existing_path"></path><path id="pathSk2v596cn4kw2" kvg:type="㇐b" d="M19.16,61.63c4.04-0.64,8.02-1.15,13.56-1.84c1.27-0.16,2.61-0.32,4.06-0.5" transform="matrix(1,0,0,1,496,-4)" class="stroke_order_diagram--existing_path"></path><path id="pathSk2v596cn4kw3" kvg:type="㇑" d="M48.75,13.77c0.8,0.8,1.12,1.98,1.42,3.24c0.42,3.28,1.24,13.54,1.79,18.99c0.2,2,0.46,3.9,0.59,4.75" transform="matrix(1,0,0,1,496,-4)" class="stroke_order_diagram--existing_path"></path><path id="pathSk2v596cn4kw4" kvg:type="㇕a" d="M50.94,15.37c3.74-0.54,20.39-2.76,26.32-3.43c2.95-0.33,5.22,0.2,4.8,3.58c-0.77,6.25-1.8,12.39-2.79,18.77c-0.27,1.75-0.54,3.52-0.8,5.32" transform="matrix(1,0,0,1,496,-4)" class="stroke_order_diagram--existing_path"></path><path id="kvg:0559d-s6" kvg:type="㇐a" d="M52.33,26.97c5.17-0.47,23.86-3.03,27.22-3.03" transform="matrix(1,0,0,1,496,-4)" class="stroke_order_diagram--current_path"></path><path id="pathSk2v596cn4kw6" kvg:type="㇐a" d="M52.33,26.97c5.17-0.47,23.86-3.03,27.22-3.03" transform="matrix(1,0,0,1,496,-4)" class="stroke_order_diagram--current_path"></path><circle cx="52.33" cy="26.97" r="8" class="stroke_order_diagram--path_start" transform="matrix(1,0,0,1,496,-4)"></circle><line x1="650" x2="650" y1="1" y2="99" class="stroke_order_diagram--guide_line"></line><line x1="699" x2="699" y1="1" y2="99" class="stroke_order_diagram--bounding_box"></line><path id="pathSk2v596cn4kw9" kvg:type="㇑" d="M14.25,33.65c0.72,1.06,1.04,1.92,1.23,3.23c0.89,6.25,2.23,14.12,3.01,22.08c0.18,1.87,0.35,3.66,0.5,5.29" transform="matrix(1,0,0,1,596,-4)" class="stroke_order_diagram--existing_path"></path><path id="pathSk2v596cn4kwa" kvg:type="㇕b" d="M16.25,34.96c6.62-0.82,13.25-1.9,17.74-2.63c3-0.49,4.7,0.09,4.2,3.55c-0.88,6.1-1.92,14.57-3.21,22.65" transform="matrix(1,0,0,1,596,-4)" class="stroke_order_diagram--existing_path"></path><path id="pathSk2v596cn4kwb" kvg:type="㇐b" d="M19.16,61.63c4.04-0.64,8.02-1.15,13.56-1.84c1.27-0.16,2.61-0.32,4.06-0.5" transform="matrix(1,0,0,1,596,-4)" class="stroke_order_diagram--existing_path"></path><path id="pathSk2v596cn4kwc" kvg:type="㇑" d="M48.75,13.77c0.8,0.8,1.12,1.98,1.42,3.24c0.42,3.28,1.24,13.54,1.79,18.99c0.2,2,0.46,3.9,0.59,4.75" transform="matrix(1,0,0,1,596,-4)" class="stroke_order_diagram--existing_path"></path><path id="pathSk2v596cn4kwd" kvg:type="㇕a" d="M50.94,15.37c3.74-0.54,20.39-2.76,26.32-3.43c2.95-0.33,5.22,0.2,4.8,3.58c-0.77,6.25-1.8,12.39-2.79,18.77c-0.27,1.75-0.54,3.52-0.8,5.32" transform="matrix(1,0,0,1,596,-4)" class="stroke_order_diagram--existing_path"></path><path id="pathSk2v596cn4kwe" kvg:type="㇐a" d="M52.33,26.97c5.17-0.47,23.86-3.03,27.22-3.03" transform="matrix(1,0,0,1,596,-4)" class="stroke_order_diagram--existing_path"></path><path id="kvg:0559d-s7" kvg:type="㇐a" d="M53.44,38.86c6.06-0.46,16.81-1.68,24.35-2.07" transform="matrix(1,0,0,1,596,-4)" class="stroke_order_diagram--current_path"></path><path id="pathSk2v596cn4kwg" kvg:type="㇐a" d="M53.44,38.86c6.06-0.46,16.81-1.68,24.35-2.07" transform="matrix(1,0,0,1,596,-4)" class="stroke_order_diagram--current_path"></path><circle cx="53.44" cy="38.86" r="8" class="stroke_order_diagram--path_start" transform="matrix(1,0,0,1,596,-4)"></circle><line x1="750" x2="750" y1="1" y2="99" class="stroke_order_diagram--guide_line"></line><line x1="799" x2="799" y1="1" y2="99" class="stroke_order_diagram--bounding_box"></line><path id="pathSk2v596cn4kwj" kvg:type="㇑" d="M14.25,33.65c0.72,1.06,1.04,1.92,1.23,3.23c0.89,6.25,2.23,14.12,3.01,22.08c0.18,1.87,0.35,3.66,0.5,5.29" transform="matrix(1,0,0,1,696,-4)" class="stroke_order_diagram--existing_path"></path><path id="pathSk2v596cn4kwk" kvg:type="㇕b" d="M16.25,34.96c6.62-0.82,13.25-1.9,17.74-2.63c3-0.49,4.7,0.09,4.2,3.55c-0.88,6.1-1.92,14.57-3.21,22.65" transform="matrix(1,0,0,1,696,-4)" class="stroke_order_diagram--existing_path"></path><path id="pathSk2v596cn4kwl" kvg:type="㇐b" d="M19.16,61.63c4.04-0.64,8.02-1.15,13.56-1.84c1.27-0.16,2.61-0.32,4.06-0.5" transform="matrix(1,0,0,1,696,-4)" class="stroke_order_diagram--existing_path"></path><path id="pathSk2v596cn4kwm" kvg:type="㇑" d="M48.75,13.77c0.8,0.8,1.12,1.98,1.42,3.24c0.42,3.28,1.24,13.54,1.79,18.99c0.2,2,0.46,3.9,0.59,4.75" transform="matrix(1,0,0,1,696,-4)" class="stroke_order_diagram--existing_path"></path><path id="pathSk2v596cn4kwn" kvg:type="㇕a" d="M50.94,15.37c3.74-0.54,20.39-2.76,26.32-3.43c2.95-0.33,5.22,0.2,4.8,3.58c-0.77,6.25-1.8,12.39-2.79,18.77c-0.27,1.75-0.54,3.52-0.8,5.32" transform="matrix(1,0,0,1,696,-4)" class="stroke_order_diagram--existing_path"></path><path id="pathSk2v596cn4kwo" kvg:type="㇐a" d="M52.33,26.97c5.17-0.47,23.86-3.03,27.22-3.03" transform="matrix(1,0,0,1,696,-4)" class="stroke_order_diagram--existing_path"></path><path id="pathSk2v596cn4kwp" kvg:type="㇐a" d="M53.44,38.86c6.06-0.46,16.81-1.68,24.35-2.07" transform="matrix(1,0,0,1,696,-4)" class="stroke_order_diagram--existing_path"></path><path id="kvg:0559d-s8" kvg:type="㇒" d="M58,42c0.12,1.41-0.27,2.39-0.84,3.69C54.43,52.01,48.92,60.54,40,68.25" transform="matrix(1,0,0,1,696,-4)" class="stroke_order_diagram--current_path"></path><path id="pathSk2v596cn4kwr" kvg:type="㇒" d="M58,42c0.12,1.41-0.27,2.39-0.84,3.69C54.43,52.01,48.92,60.54,40,68.25" transform="matrix(1,0,0,1,696,-4)" class="stroke_order_diagram--current_path"></path><circle cx="58" cy="42" r="8" class="stroke_order_diagram--path_start" transform="matrix(1,0,0,1,696,-4)"></circle><line x1="850" x2="850" y1="1" y2="99" class="stroke_order_diagram--guide_line"></line><line x1="899" x2="899" y1="1" y2="99" class="stroke_order_diagram--bounding_box"></line><path id="pathSk2v596cn4kwu" kvg:type="㇑" d="M14.25,33.65c0.72,1.06,1.04,1.92,1.23,3.23c0.89,6.25,2.23,14.12,3.01,22.08c0.18,1.87,0.35,3.66,0.5,5.29" transform="matrix(1,0,0,1,796,-4)" class="stroke_order_diagram--existing_path"></path><path id="pathSk2v596cn4kwv" kvg:type="㇕b" d="M16.25,34.96c6.62-0.82,13.25-1.9,17.74-2.63c3-0.49,4.7,0.09,4.2,3.55c-0.88,6.1-1.92,14.57-3.21,22.65" transform="matrix(1,0,0,1,796,-4)" class="stroke_order_diagram--existing_path"></path><path id="pathSk2v596cn4kww" kvg:type="㇐b" d="M19.16,61.63c4.04-0.64,8.02-1.15,13.56-1.84c1.27-0.16,2.61-0.32,4.06-0.5" transform="matrix(1,0,0,1,796,-4)" class="stroke_order_diagram--existing_path"></path><path id="pathSk2v596cn4kwx" kvg:type="㇑" d="M48.75,13.77c0.8,0.8,1.12,1.98,1.42,3.24c0.42,3.28,1.24,13.54,1.79,18.99c0.2,2,0.46,3.9,0.59,4.75" transform="matrix(1,0,0,1,796,-4)" class="stroke_order_diagram--existing_path"></path><path id="pathSk2v596cn4kwy" kvg:type="㇕a" d="M50.94,15.37c3.74-0.54,20.39-2.76,26.32-3.43c2.95-0.33,5.22,0.2,4.8,3.58c-0.77,6.25-1.8,12.39-2.79,18.77c-0.27,1.75-0.54,3.52-0.8,5.32" transform="matrix(1,0,0,1,796,-4)" class="stroke_order_diagram--existing_path"></path><path id="pathSk2v596cn4kwz" kvg:type="㇐a" d="M52.33,26.97c5.17-0.47,23.86-3.03,27.22-3.03" transform="matrix(1,0,0,1,796,-4)" class="stroke_order_diagram--existing_path"></path><path id="pathSk2v596cn4kx0" kvg:type="㇐a" d="M53.44,38.86c6.06-0.46,16.81-1.68,24.35-2.07" transform="matrix(1,0,0,1,796,-4)" class="stroke_order_diagram--existing_path"></path><path id="pathSk2v596cn4kx1" kvg:type="㇒" d="M58,42c0.12,1.41-0.27,2.39-0.84,3.69C54.43,52.01,48.92,60.54,40,68.25" transform="matrix(1,0,0,1,796,-4)" class="stroke_order_diagram--existing_path"></path><path id="kvg:0559d-s9" kvg:type="㇆" d="M57.7,51.1c2.08,0.22,3.73,0.3,5.82-0.03c5.17-0.81,18.25-3,23.62-3.72c4.47-0.6,6.44,0.25,5.86,4.92c-1.62,13.11-2.86,26.47-10.58,42.05c-1.63,3.3-4.54,2.55-7.69-0.6" transform="matrix(1,0,0,1,796,-4)" class="stroke_order_diagram--current_path"></path><path id="pathSk2v596cn4kx3" kvg:type="㇆" d="M57.7,51.1c2.08,0.22,3.73,0.3,5.82-0.03c5.17-0.81,18.25-3,23.62-3.72c4.47-0.6,6.44,0.25,5.86,4.92c-1.62,13.11-2.86,26.47-10.58,42.05c-1.63,3.3-4.54,2.55-7.69-0.6" transform="matrix(1,0,0,1,796,-4)" class="stroke_order_diagram--current_path"></path><circle cx="57.7" cy="51.1" r="8" class="stroke_order_diagram--path_start" transform="matrix(1,0,0,1,796,-4)"></circle><line x1="950" x2="950" y1="1" y2="99" class="stroke_order_diagram--guide_line"></line><line x1="999" x2="999" y1="1" y2="99" class="stroke_order_diagram--bounding_box"></line><path id="pathSk2v596cn4kx6" kvg:type="㇑" d="M14.25,33.65c0.72,1.06,1.04,1.92,1.23,3.23c0.89,6.25,2.23,14.12,3.01,22.08c0.18,1.87,0.35,3.66,0.5,5.29" transform="matrix(1,0,0,1,896,-4)" class="stroke_order_diagram--existing_path"></path><path id="pathSk2v596cn4kx7" kvg:type="㇕b" d="M16.25,34.96c6.62-0.82,13.25-1.9,17.74-2.63c3-0.49,4.7,0.09,4.2,3.55c-0.88,6.1-1.92,14.57-3.21,22.65" transform="matrix(1,0,0,1,896,-4)" class="stroke_order_diagram--existing_path"></path><path id="pathSk2v596cn4kx8" kvg:type="㇐b" d="M19.16,61.63c4.04-0.64,8.02-1.15,13.56-1.84c1.27-0.16,2.61-0.32,4.06-0.5" transform="matrix(1,0,0,1,896,-4)" class="stroke_order_diagram--existing_path"></path><path id="pathSk2v596cn4kx9" kvg:type="㇑" d="M48.75,13.77c0.8,0.8,1.12,1.98,1.42,3.24c0.42,3.28,1.24,13.54,1.79,18.99c0.2,2,0.46,3.9,0.59,4.75" transform="matrix(1,0,0,1,896,-4)" class="stroke_order_diagram--existing_path"></path><path id="pathSk2v596cn4kxa" kvg:type="㇕a" d="M50.94,15.37c3.74-0.54,20.39-2.76,26.32-3.43c2.95-0.33,5.22,0.2,4.8,3.58c-0.77,6.25-1.8,12.39-2.79,18.77c-0.27,1.75-0.54,3.52-0.8,5.32" transform="matrix(1,0,0,1,896,-4)" class="stroke_order_diagram--existing_path"></path><path id="pathSk2v596cn4kxb" kvg:type="㇐a" d="M52.33,26.97c5.17-0.47,23.86-3.03,27.22-3.03" transform="matrix(1,0,0,1,896,-4)" class="stroke_order_diagram--existing_path"></path><path id="pathSk2v596cn4kxc" kvg:type="㇐a" d="M53.44,38.86c6.06-0.46,16.81-1.68,24.35-2.07" transform="matrix(1,0,0,1,896,-4)" class="stroke_order_diagram--existing_path"></path><path id="pathSk2v596cn4kxd" kvg:type="㇒" d="M58,42c0.12,1.41-0.27,2.39-0.84,3.69C54.43,52.01,48.92,60.54,40,68.25" transform="matrix(1,0,0,1,896,-4)" class="stroke_order_diagram--existing_path"></path><path id="pathSk2v596cn4kxe" kvg:type="㇆" d="M57.7,51.1c2.08,0.22,3.73,0.3,5.82-0.03c5.17-0.81,18.25-3,23.62-3.72c4.47-0.6,6.44,0.25,5.86,4.92c-1.62,13.11-2.86,26.47-10.58,42.05c-1.63,3.3-4.54,2.55-7.69-0.6" transform="matrix(1,0,0,1,896,-4)" class="stroke_order_diagram--existing_path"></path><path id="kvg:0559d-s10" kvg:type="㇒" d="M73.57,60.61c-0.1,1.29-0.79,2.07-1.78,2.7c-3.7,2.35-8.54,4.82-17.22,7.88" transform="matrix(1,0,0,1,896,-4)" class="stroke_order_diagram--current_path"></path><path id="pathSk2v596cn4kxg" kvg:type="㇒" d="M73.57,60.61c-0.1,1.29-0.79,2.07-1.78,2.7c-3.7,2.35-8.54,4.82-17.22,7.88" transform="matrix(1,0,0,1,896,-4)" class="stroke_order_diagram--current_path"></path><circle cx="73.57" cy="60.61" r="8" class="stroke_order_diagram--path_start" transform="matrix(1,0,0,1,896,-4)"></circle><line x1="1050" x2="1050" y1="1" y2="99" class="stroke_order_diagram--guide_line"></line><line x1="1099" x2="1099" y1="1" y2="99" class="stroke_order_diagram--bounding_box"></line><path id="pathSk2v596cn4kxj" kvg:type="㇑" d="M14.25,33.65c0.72,1.06,1.04,1.92,1.23,3.23c0.89,6.25,2.23,14.12,3.01,22.08c0.18,1.87,0.35,3.66,0.5,5.29" transform="matrix(1,0,0,1,996,-4)" class="stroke_order_diagram--existing_path"></path><path id="pathSk2v596cn4kxk" kvg:type="㇕b" d="M16.25,34.96c6.62-0.82,13.25-1.9,17.74-2.63c3-0.49,4.7,0.09,4.2,3.55c-0.88,6.1-1.92,14.57-3.21,22.65" transform="matrix(1,0,0,1,996,-4)" class="stroke_order_diagram--existing_path"></path><path id="pathSk2v596cn4kxl" kvg:type="㇐b" d="M19.16,61.63c4.04-0.64,8.02-1.15,13.56-1.84c1.27-0.16,2.61-0.32,4.06-0.5" transform="matrix(1,0,0,1,996,-4)" class="stroke_order_diagram--existing_path"></path><path id="pathSk2v596cn4kxm" kvg:type="㇑" d="M48.75,13.77c0.8,0.8,1.12,1.98,1.42,3.24c0.42,3.28,1.24,13.54,1.79,18.99c0.2,2,0.46,3.9,0.59,4.75" transform="matrix(1,0,0,1,996,-4)" class="stroke_order_diagram--existing_path"></path><path id="pathSk2v596cn4kxn" kvg:type="㇕a" d="M50.94,15.37c3.74-0.54,20.39-2.76,26.32-3.43c2.95-0.33,5.22,0.2,4.8,3.58c-0.77,6.25-1.8,12.39-2.79,18.77c-0.27,1.75-0.54,3.52-0.8,5.32" transform="matrix(1,0,0,1,996,-4)" class="stroke_order_diagram--existing_path"></path><path id="pathSk2v596cn4kxo" kvg:type="㇐a" d="M52.33,26.97c5.17-0.47,23.86-3.03,27.22-3.03" transform="matrix(1,0,0,1,996,-4)" class="stroke_order_diagram--existing_path"></path><path id="pathSk2v596cn4kxp" kvg:type="㇐a" d="M53.44,38.86c6.06-0.46,16.81-1.68,24.35-2.07" transform="matrix(1,0,0,1,996,-4)" class="stroke_order_diagram--existing_path"></path><path id="pathSk2v596cn4kxq" kvg:type="㇒" d="M58,42c0.12,1.41-0.27,2.39-0.84,3.69C54.43,52.01,48.92,60.54,40,68.25" transform="matrix(1,0,0,1,996,-4)" class="stroke_order_diagram--existing_path"></path><path id="pathSk2v596cn4kxr" kvg:type="㇆" d="M57.7,51.1c2.08,0.22,3.73,0.3,5.82-0.03c5.17-0.81,18.25-3,23.62-3.72c4.47-0.6,6.44,0.25,5.86,4.92c-1.62,13.11-2.86,26.47-10.58,42.05c-1.63,3.3-4.54,2.55-7.69-0.6" transform="matrix(1,0,0,1,996,-4)" class="stroke_order_diagram--existing_path"></path><path id="pathSk2v596cn4kxs" kvg:type="㇒" d="M73.57,60.61c-0.1,1.29-0.79,2.07-1.78,2.7c-3.7,2.35-8.54,4.82-17.22,7.88" transform="matrix(1,0,0,1,996,-4)" class="stroke_order_diagram--existing_path"></path><path id="kvg:0559d-s11" kvg:type="㇟" d="M49.93,62.55c0.78,0.81,1.09,1.32,1.09,2.43c0,2.67-0.02,6.26-0.02,11.39s1.38,5.7,12.38,5.7s12.61-0.95,12.61-6.81" transform="matrix(1,0,0,1,996,-4)" class="stroke_order_diagram--current_path"></path><path id="pathSk2v596cn4kxu" kvg:type="㇟" d="M49.93,62.55c0.78,0.81,1.09,1.32,1.09,2.43c0,2.67-0.02,6.26-0.02,11.39s1.38,5.7,12.38,5.7s12.61-0.95,12.61-6.81" transform="matrix(1,0,0,1,996,-4)" class="stroke_order_diagram--current_path"></path><circle cx="49.93" cy="62.55" r="8" class="stroke_order_diagram--path_start" transform="matrix(1,0,0,1,996,-4)"></circle></svg>