<svg style="width: 1300px; height: 100px;" viewbox="0 0 1300 100"><style>
.stroke_order_diagram--outer_container {
  width: 100%;
  overflow-x: auto;
  overflow-y: hidden;
}

.stroke_order_diagram--guide_line {
  fill: none;
  stroke: #ddd;
  stroke-width: 3;
  stroke-linecap: square;
  stroke-linejoin: square;
  stroke-dasharray:8, 8;
}

.stroke_order_diagram--bounding_box {
  fill: none;
  stroke: #ddd;
  stroke-width: 4;
  stroke-linecap: square;
  stroke-linejoin: square;
}

.stroke_order_diagram--current_path {
  fill: none;
  stroke: #000;
  stroke-width: 6;
  stroke-linecap: round;
  stroke-linejoin: round;
}

.stroke_order_diagram--existing_path {
  fill: none;
  stroke: #aaa;
  stroke-width: 6;
  stroke-linecap: round;
  stroke-linejoin:round;
}

.stroke_order_diagram--path_start {
  fill: rgba(255, 0, 0, 0.7);
  stroke:none
}</style><desc>Created with Snap</desc><defs></defs><line x1="1" x2="1299" y1="1" y2="1" class="stroke_order_diagram--bounding_box"></line><line x1="1" x2="1" y1="1" y2="99" class="stroke_order_diagram--bounding_box"></line><line x1="1" x2="1299" y1="99" y2="99" class="stroke_order_diagram--bounding_box"></line><line x1="0" x2="1300" y1="50" y2="50" class="stroke_order_diagram--guide_line"></line><line x1="50" x2="50" y1="1" y2="99" class="stroke_order_diagram--guide_line"></line><line x1="99" x2="99" y1="1" y2="99" class="stroke_order_diagram--bounding_box"></line><path id="kvg:05712-s1" kvg:type="㇑" d="M18,18.79c1.29,1.29,1.61,2.94,1.61,4.78c0,12.45,0.07,46.78,0.08,66.05c0,2.27,0,4.33,0,6.12" transform="matrix(1,0,0,1,-4,-4)" class="stroke_order_diagram--current_path"></path><path id="pathSk2v596cnxpe" kvg:type="㇑" d="M18,18.79c1.29,1.29,1.61,2.94,1.61,4.78c0,12.45,0.07,46.78,0.08,66.05c0,2.27,0,4.33,0,6.12" transform="matrix(1,0,0,1,-4,-4)" class="stroke_order_diagram--current_path"></path><circle cx="18" cy="18.79" r="8" class="stroke_order_diagram--path_start" transform="matrix(1,0,0,1,-4,-4)"></circle><line x1="150" x2="150" y1="1" y2="99" class="stroke_order_diagram--guide_line"></line><line x1="199" x2="199" y1="1" y2="99" class="stroke_order_diagram--bounding_box"></line><path id="pathSk2v596cnxph" kvg:type="㇑" d="M18,18.79c1.29,1.29,1.61,2.94,1.61,4.78c0,12.45,0.07,46.78,0.08,66.05c0,2.27,0,4.33,0,6.12" transform="matrix(1,0,0,1,96,-4)" class="stroke_order_diagram--existing_path"></path><path id="kvg:05712-s2" kvg:type="㇕a" d="M20.74,21.21c19.04-1.59,54.71-3.96,65.51-3.96c2.75,0,3.55,2.42,3.5,5.35C89.52,36.75,88.86,66.5,89.16,88c0.02,1.75,0.05,3.44,0.09,5.07" transform="matrix(1,0,0,1,96,-4)" class="stroke_order_diagram--current_path"></path><path id="pathSk2v596cnxpj" kvg:type="㇕a" d="M20.74,21.21c19.04-1.59,54.71-3.96,65.51-3.96c2.75,0,3.55,2.42,3.5,5.35C89.52,36.75,88.86,66.5,89.16,88c0.02,1.75,0.05,3.44,0.09,5.07" transform="matrix(1,0,0,1,96,-4)" class="stroke_order_diagram--current_path"></path><circle cx="20.74" cy="21.21" r="8" class="stroke_order_diagram--path_start" transform="matrix(1,0,0,1,96,-4)"></circle><line x1="250" x2="250" y1="1" y2="99" class="stroke_order_diagram--guide_line"></line><line x1="299" x2="299" y1="1" y2="99" class="stroke_order_diagram--bounding_box"></line><path id="pathSk2v596cnxpm" kvg:type="㇑" d="M18,18.79c1.29,1.29,1.61,2.94,1.61,4.78c0,12.45,0.07,46.78,0.08,66.05c0,2.27,0,4.33,0,6.12" transform="matrix(1,0,0,1,196,-4)" class="stroke_order_diagram--existing_path"></path><path id="pathSk2v596cnxpn" kvg:type="㇕a" d="M20.74,21.21c19.04-1.59,54.71-3.96,65.51-3.96c2.75,0,3.55,2.42,3.5,5.35C89.52,36.75,88.86,66.5,89.16,88c0.02,1.75,0.05,3.44,0.09,5.07" transform="matrix(1,0,0,1,196,-4)" class="stroke_order_diagram--existing_path"></path><path id="kvg:05712-s3" kvg:type="㇐" d="M37.07,30.57c1.25,0.26,3.52,0.34,4.77,0.26C50.25,30.25,60,29,65.82,28.47c2.07-0.19,3.32-0.13,4.36,0" transform="matrix(1,0,0,1,196,-4)" class="stroke_order_diagram--current_path"></path><path id="pathSk2v596cnxpp" kvg:type="㇐" d="M37.07,30.57c1.25,0.26,3.52,0.34,4.77,0.26C50.25,30.25,60,29,65.82,28.47c2.07-0.19,3.32-0.13,4.36,0" transform="matrix(1,0,0,1,196,-4)" class="stroke_order_diagram--current_path"></path><circle cx="37.07" cy="30.57" r="8" class="stroke_order_diagram--path_start" transform="matrix(1,0,0,1,196,-4)"></circle><line x1="350" x2="350" y1="1" y2="99" class="stroke_order_diagram--guide_line"></line><line x1="399" x2="399" y1="1" y2="99" class="stroke_order_diagram--bounding_box"></line><path id="pathSk2v596cnxps" kvg:type="㇑" d="M18,18.79c1.29,1.29,1.61,2.94,1.61,4.78c0,12.45,0.07,46.78,0.08,66.05c0,2.27,0,4.33,0,6.12" transform="matrix(1,0,0,1,296,-4)" class="stroke_order_diagram--existing_path"></path><path id="pathSk2v596cnxpt" kvg:type="㇕a" d="M20.74,21.21c19.04-1.59,54.71-3.96,65.51-3.96c2.75,0,3.55,2.42,3.5,5.35C89.52,36.75,88.86,66.5,89.16,88c0.02,1.75,0.05,3.44,0.09,5.07" transform="matrix(1,0,0,1,296,-4)" class="stroke_order_diagram--existing_path"></path><path id="pathSk2v596cnxpu" kvg:type="㇐" d="M37.07,30.57c1.25,0.26,3.52,0.34,4.77,0.26C50.25,30.25,60,29,65.82,28.47c2.07-0.19,3.32-0.13,4.36,0" transform="matrix(1,0,0,1,296,-4)" class="stroke_order_diagram--existing_path"></path><path id="kvg:05712-s4" kvg:type="㇑a" d="M52.99,21.87c0.64,0.64,1.25,1.76,1.25,2.69c0,2.95-0.14,13.16-0.14,14.01" transform="matrix(1,0,0,1,296,-4)" class="stroke_order_diagram--current_path"></path><path id="pathSk2v596cnxpw" kvg:type="㇑a" d="M52.99,21.87c0.64,0.64,1.25,1.76,1.25,2.69c0,2.95-0.14,13.16-0.14,14.01" transform="matrix(1,0,0,1,296,-4)" class="stroke_order_diagram--current_path"></path><circle cx="52.99" cy="21.87" r="8" class="stroke_order_diagram--path_start" transform="matrix(1,0,0,1,296,-4)"></circle><line x1="450" x2="450" y1="1" y2="99" class="stroke_order_diagram--guide_line"></line><line x1="499" x2="499" y1="1" y2="99" class="stroke_order_diagram--bounding_box"></line><path id="pathSk2v596cnxpz" kvg:type="㇑" d="M18,18.79c1.29,1.29,1.61,2.94,1.61,4.78c0,12.45,0.07,46.78,0.08,66.05c0,2.27,0,4.33,0,6.12" transform="matrix(1,0,0,1,396,-4)" class="stroke_order_diagram--existing_path"></path><path id="pathSk2v596cnxq0" kvg:type="㇕a" d="M20.74,21.21c19.04-1.59,54.71-3.96,65.51-3.96c2.75,0,3.55,2.42,3.5,5.35C89.52,36.75,88.86,66.5,89.16,88c0.02,1.75,0.05,3.44,0.09,5.07" transform="matrix(1,0,0,1,396,-4)" class="stroke_order_diagram--existing_path"></path><path id="pathSk2v596cnxq1" kvg:type="㇐" d="M37.07,30.57c1.25,0.26,3.52,0.34,4.77,0.26C50.25,30.25,60,29,65.82,28.47c2.07-0.19,3.32-0.13,4.36,0" transform="matrix(1,0,0,1,396,-4)" class="stroke_order_diagram--existing_path"></path><path id="pathSk2v596cnxq2" kvg:type="㇑a" d="M52.99,21.87c0.64,0.64,1.25,1.76,1.25,2.69c0,2.95-0.14,13.16-0.14,14.01" transform="matrix(1,0,0,1,396,-4)" class="stroke_order_diagram--existing_path"></path><path id="kvg:05712-s5" kvg:type="㇐" d="M29.39,40.62c1.62,0.43,4.3,0.34,5.91,0.18c11.94-1.18,29.44-2.8,39.52-3.69c2.68-0.24,4.32,0.2,5.67,0.42" transform="matrix(1,0,0,1,396,-4)" class="stroke_order_diagram--current_path"></path><path id="pathSk2v596cnxq4" kvg:type="㇐" d="M29.39,40.62c1.62,0.43,4.3,0.34,5.91,0.18c11.94-1.18,29.44-2.8,39.52-3.69c2.68-0.24,4.32,0.2,5.67,0.42" transform="matrix(1,0,0,1,396,-4)" class="stroke_order_diagram--current_path"></path><circle cx="29.39" cy="40.62" r="8" class="stroke_order_diagram--path_start" transform="matrix(1,0,0,1,396,-4)"></circle><line x1="550" x2="550" y1="1" y2="99" class="stroke_order_diagram--guide_line"></line><line x1="599" x2="599" y1="1" y2="99" class="stroke_order_diagram--bounding_box"></line><path id="pathSk2v596cnxq7" kvg:type="㇑" d="M18,18.79c1.29,1.29,1.61,2.94,1.61,4.78c0,12.45,0.07,46.78,0.08,66.05c0,2.27,0,4.33,0,6.12" transform="matrix(1,0,0,1,496,-4)" class="stroke_order_diagram--existing_path"></path><path id="pathSk2v596cnxq8" kvg:type="㇕a" d="M20.74,21.21c19.04-1.59,54.71-3.96,65.51-3.96c2.75,0,3.55,2.42,3.5,5.35C89.52,36.75,88.86,66.5,89.16,88c0.02,1.75,0.05,3.44,0.09,5.07" transform="matrix(1,0,0,1,496,-4)" class="stroke_order_diagram--existing_path"></path><path id="pathSk2v596cnxq9" kvg:type="㇐" d="M37.07,30.57c1.25,0.26,3.52,0.34,4.77,0.26C50.25,30.25,60,29,65.82,28.47c2.07-0.19,3.32-0.13,4.36,0" transform="matrix(1,0,0,1,496,-4)" class="stroke_order_diagram--existing_path"></path><path id="pathSk2v596cnxqa" kvg:type="㇑a" d="M52.99,21.87c0.64,0.64,1.25,1.76,1.25,2.69c0,2.95-0.14,13.16-0.14,14.01" transform="matrix(1,0,0,1,496,-4)" class="stroke_order_diagram--existing_path"></path><path id="pathSk2v596cnxqb" kvg:type="㇐" d="M29.39,40.62c1.62,0.43,4.3,0.34,5.91,0.18c11.94-1.18,29.44-2.8,39.52-3.69c2.68-0.24,4.32,0.2,5.67,0.42" transform="matrix(1,0,0,1,496,-4)" class="stroke_order_diagram--existing_path"></path><path id="kvg:05712-s6" kvg:type="㇑" d="M38.31,47.95c0.68,0.68,1.19,1.42,1.34,2.23c0.61,3.29,0.96,5.69,1.67,9.55c0.26,1.42,0.26,1.78,0.49,2.94" transform="matrix(1,0,0,1,496,-4)" class="stroke_order_diagram--current_path"></path><path id="pathSk2v596cnxqd" kvg:type="㇑" d="M38.31,47.95c0.68,0.68,1.19,1.42,1.34,2.23c0.61,3.29,0.96,5.69,1.67,9.55c0.26,1.42,0.26,1.78,0.49,2.94" transform="matrix(1,0,0,1,496,-4)" class="stroke_order_diagram--current_path"></path><circle cx="38.31" cy="47.95" r="8" class="stroke_order_diagram--path_start" transform="matrix(1,0,0,1,496,-4)"></circle><line x1="650" x2="650" y1="1" y2="99" class="stroke_order_diagram--guide_line"></line><line x1="699" x2="699" y1="1" y2="99" class="stroke_order_diagram--bounding_box"></line><path id="pathSk2v596cnxqg" kvg:type="㇑" d="M18,18.79c1.29,1.29,1.61,2.94,1.61,4.78c0,12.45,0.07,46.78,0.08,66.05c0,2.27,0,4.33,0,6.12" transform="matrix(1,0,0,1,596,-4)" class="stroke_order_diagram--existing_path"></path><path id="pathSk2v596cnxqh" kvg:type="㇕a" d="M20.74,21.21c19.04-1.59,54.71-3.96,65.51-3.96c2.75,0,3.55,2.42,3.5,5.35C89.52,36.75,88.86,66.5,89.16,88c0.02,1.75,0.05,3.44,0.09,5.07" transform="matrix(1,0,0,1,596,-4)" class="stroke_order_diagram--existing_path"></path><path id="pathSk2v596cnxqi" kvg:type="㇐" d="M37.07,30.57c1.25,0.26,3.52,0.34,4.77,0.26C50.25,30.25,60,29,65.82,28.47c2.07-0.19,3.32-0.13,4.36,0" transform="matrix(1,0,0,1,596,-4)" class="stroke_order_diagram--existing_path"></path><path id="pathSk2v596cnxqj" kvg:type="㇑a" d="M52.99,21.87c0.64,0.64,1.25,1.76,1.25,2.69c0,2.95-0.14,13.16-0.14,14.01" transform="matrix(1,0,0,1,596,-4)" class="stroke_order_diagram--existing_path"></path><path id="pathSk2v596cnxqk" kvg:type="㇐" d="M29.39,40.62c1.62,0.43,4.3,0.34,5.91,0.18c11.94-1.18,29.44-2.8,39.52-3.69c2.68-0.24,4.32,0.2,5.67,0.42" transform="matrix(1,0,0,1,596,-4)" class="stroke_order_diagram--existing_path"></path><path id="pathSk2v596cnxql" kvg:type="㇑" d="M38.31,47.95c0.68,0.68,1.19,1.42,1.34,2.23c0.61,3.29,0.96,5.69,1.67,9.55c0.26,1.42,0.26,1.78,0.49,2.94" transform="matrix(1,0,0,1,596,-4)" class="stroke_order_diagram--existing_path"></path><path id="kvg:05712-s7" kvg:type="㇕b" d="M40.76,49.08c7.81-1.1,21.3-2.51,26.24-2.68c1.9-0.07,2.18,1.39,2.02,2.13c-0.35,1.58-2.31,6.52-2.98,8.39" transform="matrix(1,0,0,1,596,-4)" class="stroke_order_diagram--current_path"></path><path id="pathSk2v596cnxqn" kvg:type="㇕b" d="M40.76,49.08c7.81-1.1,21.3-2.51,26.24-2.68c1.9-0.07,2.18,1.39,2.02,2.13c-0.35,1.58-2.31,6.52-2.98,8.39" transform="matrix(1,0,0,1,596,-4)" class="stroke_order_diagram--current_path"></path><circle cx="40.76" cy="49.08" r="8" class="stroke_order_diagram--path_start" transform="matrix(1,0,0,1,596,-4)"></circle><line x1="750" x2="750" y1="1" y2="99" class="stroke_order_diagram--guide_line"></line><line x1="799" x2="799" y1="1" y2="99" class="stroke_order_diagram--bounding_box"></line><path id="pathSk2v596cnxqq" kvg:type="㇑" d="M18,18.79c1.29,1.29,1.61,2.94,1.61,4.78c0,12.45,0.07,46.78,0.08,66.05c0,2.27,0,4.33,0,6.12" transform="matrix(1,0,0,1,696,-4)" class="stroke_order_diagram--existing_path"></path><path id="pathSk2v596cnxqr" kvg:type="㇕a" d="M20.74,21.21c19.04-1.59,54.71-3.96,65.51-3.96c2.75,0,3.55,2.42,3.5,5.35C89.52,36.75,88.86,66.5,89.16,88c0.02,1.75,0.05,3.44,0.09,5.07" transform="matrix(1,0,0,1,696,-4)" class="stroke_order_diagram--existing_path"></path><path id="pathSk2v596cnxqs" kvg:type="㇐" d="M37.07,30.57c1.25,0.26,3.52,0.34,4.77,0.26C50.25,30.25,60,29,65.82,28.47c2.07-0.19,3.32-0.13,4.36,0" transform="matrix(1,0,0,1,696,-4)" class="stroke_order_diagram--existing_path"></path><path id="pathSk2v596cnxqt" kvg:type="㇑a" d="M52.99,21.87c0.64,0.64,1.25,1.76,1.25,2.69c0,2.95-0.14,13.16-0.14,14.01" transform="matrix(1,0,0,1,696,-4)" class="stroke_order_diagram--existing_path"></path><path id="pathSk2v596cnxqu" kvg:type="㇐" d="M29.39,40.62c1.62,0.43,4.3,0.34,5.91,0.18c11.94-1.18,29.44-2.8,39.52-3.69c2.68-0.24,4.32,0.2,5.67,0.42" transform="matrix(1,0,0,1,696,-4)" class="stroke_order_diagram--existing_path"></path><path id="pathSk2v596cnxqv" kvg:type="㇑" d="M38.31,47.95c0.68,0.68,1.19,1.42,1.34,2.23c0.61,3.29,0.96,5.69,1.67,9.55c0.26,1.42,0.26,1.78,0.49,2.94" transform="matrix(1,0,0,1,696,-4)" class="stroke_order_diagram--existing_path"></path><path id="pathSk2v596cnxqw" kvg:type="㇕b" d="M40.76,49.08c7.81-1.1,21.3-2.51,26.24-2.68c1.9-0.07,2.18,1.39,2.02,2.13c-0.35,1.58-2.31,6.52-2.98,8.39" transform="matrix(1,0,0,1,696,-4)" class="stroke_order_diagram--existing_path"></path><path id="kvg:05712-s8" kvg:type="㇐b" d="M42.65,60.58c5.01-0.69,15.1-1.7,22.12-2.24c1.29-0.1,2.54-0.2,3.69-0.31" transform="matrix(1,0,0,1,696,-4)" class="stroke_order_diagram--current_path"></path><path id="pathSk2v596cnxqy" kvg:type="㇐b" d="M42.65,60.58c5.01-0.69,15.1-1.7,22.12-2.24c1.29-0.1,2.54-0.2,3.69-0.31" transform="matrix(1,0,0,1,696,-4)" class="stroke_order_diagram--current_path"></path><circle cx="42.65" cy="60.58" r="8" class="stroke_order_diagram--path_start" transform="matrix(1,0,0,1,696,-4)"></circle><line x1="850" x2="850" y1="1" y2="99" class="stroke_order_diagram--guide_line"></line><line x1="899" x2="899" y1="1" y2="99" class="stroke_order_diagram--bounding_box"></line><path id="pathSk2v596cnxr1" kvg:type="㇑" d="M18,18.79c1.29,1.29,1.61,2.94,1.61,4.78c0,12.45,0.07,46.78,0.08,66.05c0,2.27,0,4.33,0,6.12" transform="matrix(1,0,0,1,796,-4)" class="stroke_order_diagram--existing_path"></path><path id="pathSk2v596cnxr2" kvg:type="㇕a" d="M20.74,21.21c19.04-1.59,54.71-3.96,65.51-3.96c2.75,0,3.55,2.42,3.5,5.35C89.52,36.75,88.86,66.5,89.16,88c0.02,1.75,0.05,3.44,0.09,5.07" transform="matrix(1,0,0,1,796,-4)" class="stroke_order_diagram--existing_path"></path><path id="pathSk2v596cnxr3" kvg:type="㇐" d="M37.07,30.57c1.25,0.26,3.52,0.34,4.77,0.26C50.25,30.25,60,29,65.82,28.47c2.07-0.19,3.32-0.13,4.36,0" transform="matrix(1,0,0,1,796,-4)" class="stroke_order_diagram--existing_path"></path><path id="pathSk2v596cnxr4" kvg:type="㇑a" d="M52.99,21.87c0.64,0.64,1.25,1.76,1.25,2.69c0,2.95-0.14,13.16-0.14,14.01" transform="matrix(1,0,0,1,796,-4)" class="stroke_order_diagram--existing_path"></path><path id="pathSk2v596cnxr5" kvg:type="㇐" d="M29.39,40.62c1.62,0.43,4.3,0.34,5.91,0.18c11.94-1.18,29.44-2.8,39.52-3.69c2.68-0.24,4.32,0.2,5.67,0.42" transform="matrix(1,0,0,1,796,-4)" class="stroke_order_diagram--existing_path"></path><path id="pathSk2v596cnxr6" kvg:type="㇑" d="M38.31,47.95c0.68,0.68,1.19,1.42,1.34,2.23c0.61,3.29,0.96,5.69,1.67,9.55c0.26,1.42,0.26,1.78,0.49,2.94" transform="matrix(1,0,0,1,796,-4)" class="stroke_order_diagram--existing_path"></path><path id="pathSk2v596cnxr7" kvg:type="㇕b" d="M40.76,49.08c7.81-1.1,21.3-2.51,26.24-2.68c1.9-0.07,2.18,1.39,2.02,2.13c-0.35,1.58-2.31,6.52-2.98,8.39" transform="matrix(1,0,0,1,796,-4)" class="stroke_order_diagram--existing_path"></path><path id="pathSk2v596cnxr8" kvg:type="㇐b" d="M42.65,60.58c5.01-0.69,15.1-1.7,22.12-2.24c1.29-0.1,2.54-0.2,3.69-0.31" transform="matrix(1,0,0,1,796,-4)" class="stroke_order_diagram--existing_path"></path><path id="kvg:05712-s9" kvg:type="㇒" d="M49.13,62.5c0.21,1.56-0.56,3.02-1.58,4.14c-4.67,5.11-9.92,9.11-18.49,13.86" transform="matrix(1,0,0,1,796,-4)" class="stroke_order_diagram--current_path"></path><path id="pathSk2v596cnxra" kvg:type="㇒" d="M49.13,62.5c0.21,1.56-0.56,3.02-1.58,4.14c-4.67,5.11-9.92,9.11-18.49,13.86" transform="matrix(1,0,0,1,796,-4)" class="stroke_order_diagram--current_path"></path><circle cx="49.13" cy="62.5" r="8" class="stroke_order_diagram--path_start" transform="matrix(1,0,0,1,796,-4)"></circle><line x1="950" x2="950" y1="1" y2="99" class="stroke_order_diagram--guide_line"></line><line x1="999" x2="999" y1="1" y2="99" class="stroke_order_diagram--bounding_box"></line><path id="pathSk2v596cnxrd" kvg:type="㇑" d="M18,18.79c1.29,1.29,1.61,2.94,1.61,4.78c0,12.45,0.07,46.78,0.08,66.05c0,2.27,0,4.33,0,6.12" transform="matrix(1,0,0,1,896,-4)" class="stroke_order_diagram--existing_path"></path><path id="pathSk2v596cnxre" kvg:type="㇕a" d="M20.74,21.21c19.04-1.59,54.71-3.96,65.51-3.96c2.75,0,3.55,2.42,3.5,5.35C89.52,36.75,88.86,66.5,89.16,88c0.02,1.75,0.05,3.44,0.09,5.07" transform="matrix(1,0,0,1,896,-4)" class="stroke_order_diagram--existing_path"></path><path id="pathSk2v596cnxrf" kvg:type="㇐" d="M37.07,30.57c1.25,0.26,3.52,0.34,4.77,0.26C50.25,30.25,60,29,65.82,28.47c2.07-0.19,3.32-0.13,4.36,0" transform="matrix(1,0,0,1,896,-4)" class="stroke_order_diagram--existing_path"></path><path id="pathSk2v596cnxrg" kvg:type="㇑a" d="M52.99,21.87c0.64,0.64,1.25,1.76,1.25,2.69c0,2.95-0.14,13.16-0.14,14.01" transform="matrix(1,0,0,1,896,-4)" class="stroke_order_diagram--existing_path"></path><path id="pathSk2v596cnxrh" kvg:type="㇐" d="M29.39,40.62c1.62,0.43,4.3,0.34,5.91,0.18c11.94-1.18,29.44-2.8,39.52-3.69c2.68-0.24,4.32,0.2,5.67,0.42" transform="matrix(1,0,0,1,896,-4)" class="stroke_order_diagram--existing_path"></path><path id="pathSk2v596cnxri" kvg:type="㇑" d="M38.31,47.95c0.68,0.68,1.19,1.42,1.34,2.23c0.61,3.29,0.96,5.69,1.67,9.55c0.26,1.42,0.26,1.78,0.49,2.94" transform="matrix(1,0,0,1,896,-4)" class="stroke_order_diagram--existing_path"></path><path id="pathSk2v596cnxrj" kvg:type="㇕b" d="M40.76,49.08c7.81-1.1,21.3-2.51,26.24-2.68c1.9-0.07,2.18,1.39,2.02,2.13c-0.35,1.58-2.31,6.52-2.98,8.39" transform="matrix(1,0,0,1,896,-4)" class="stroke_order_diagram--existing_path"></path><path id="pathSk2v596cnxrk" kvg:type="㇐b" d="M42.65,60.58c5.01-0.69,15.1-1.7,22.12-2.24c1.29-0.1,2.54-0.2,3.69-0.31" transform="matrix(1,0,0,1,896,-4)" class="stroke_order_diagram--existing_path"></path><path id="pathSk2v596cnxrl" kvg:type="㇒" d="M49.13,62.5c0.21,1.56-0.56,3.02-1.58,4.14c-4.67,5.11-9.92,9.11-18.49,13.86" transform="matrix(1,0,0,1,896,-4)" class="stroke_order_diagram--existing_path"></path><path id="kvg:05712-s10" kvg:type="㇑/㇙" d="M51.09,66.7c0.98,0.98,1.43,1.67,1.43,3.08c0,3.46-0.01,8.12-0.01,12.09c0,1.16,0,2.25,0,3.25" transform="matrix(1,0,0,1,896,-4)" class="stroke_order_diagram--current_path"></path><path id="pathSk2v596cnxrn" kvg:type="㇑/㇙" d="M51.09,66.7c0.98,0.98,1.43,1.67,1.43,3.08c0,3.46-0.01,8.12-0.01,12.09c0,1.16,0,2.25,0,3.25" transform="matrix(1,0,0,1,896,-4)" class="stroke_order_diagram--current_path"></path><circle cx="51.09" cy="66.7" r="8" class="stroke_order_diagram--path_start" transform="matrix(1,0,0,1,896,-4)"></circle><line x1="1050" x2="1050" y1="1" y2="99" class="stroke_order_diagram--guide_line"></line><line x1="1099" x2="1099" y1="1" y2="99" class="stroke_order_diagram--bounding_box"></line><path id="pathSk2v596cnxrq" kvg:type="㇑" d="M18,18.79c1.29,1.29,1.61,2.94,1.61,4.78c0,12.45,0.07,46.78,0.08,66.05c0,2.27,0,4.33,0,6.12" transform="matrix(1,0,0,1,996,-4)" class="stroke_order_diagram--existing_path"></path><path id="pathSk2v596cnxrr" kvg:type="㇕a" d="M20.74,21.21c19.04-1.59,54.71-3.96,65.51-3.96c2.75,0,3.55,2.42,3.5,5.35C89.52,36.75,88.86,66.5,89.16,88c0.02,1.75,0.05,3.44,0.09,5.07" transform="matrix(1,0,0,1,996,-4)" class="stroke_order_diagram--existing_path"></path><path id="pathSk2v596cnxrs" kvg:type="㇐" d="M37.07,30.57c1.25,0.26,3.52,0.34,4.77,0.26C50.25,30.25,60,29,65.82,28.47c2.07-0.19,3.32-0.13,4.36,0" transform="matrix(1,0,0,1,996,-4)" class="stroke_order_diagram--existing_path"></path><path id="pathSk2v596cnxrt" kvg:type="㇑a" d="M52.99,21.87c0.64,0.64,1.25,1.76,1.25,2.69c0,2.95-0.14,13.16-0.14,14.01" transform="matrix(1,0,0,1,996,-4)" class="stroke_order_diagram--existing_path"></path><path id="pathSk2v596cnxru" kvg:type="㇐" d="M29.39,40.62c1.62,0.43,4.3,0.34,5.91,0.18c11.94-1.18,29.44-2.8,39.52-3.69c2.68-0.24,4.32,0.2,5.67,0.42" transform="matrix(1,0,0,1,996,-4)" class="stroke_order_diagram--existing_path"></path><path id="pathSk2v596cnxrv" kvg:type="㇑" d="M38.31,47.95c0.68,0.68,1.19,1.42,1.34,2.23c0.61,3.29,0.96,5.69,1.67,9.55c0.26,1.42,0.26,1.78,0.49,2.94" transform="matrix(1,0,0,1,996,-4)" class="stroke_order_diagram--existing_path"></path><path id="pathSk2v596cnxrw" kvg:type="㇕b" d="M40.76,49.08c7.81-1.1,21.3-2.51,26.24-2.68c1.9-0.07,2.18,1.39,2.02,2.13c-0.35,1.58-2.31,6.52-2.98,8.39" transform="matrix(1,0,0,1,996,-4)" class="stroke_order_diagram--existing_path"></path><path id="pathSk2v596cnxrx" kvg:type="㇐b" d="M42.65,60.58c5.01-0.69,15.1-1.7,22.12-2.24c1.29-0.1,2.54-0.2,3.69-0.31" transform="matrix(1,0,0,1,996,-4)" class="stroke_order_diagram--existing_path"></path><path id="pathSk2v596cnxry" kvg:type="㇒" d="M49.13,62.5c0.21,1.56-0.56,3.02-1.58,4.14c-4.67,5.11-9.92,9.11-18.49,13.86" transform="matrix(1,0,0,1,996,-4)" class="stroke_order_diagram--existing_path"></path><path id="pathSk2v596cnxrz" kvg:type="㇑/㇙" d="M51.09,66.7c0.98,0.98,1.43,1.67,1.43,3.08c0,3.46-0.01,8.12-0.01,12.09c0,1.16,0,2.25,0,3.25" transform="matrix(1,0,0,1,996,-4)" class="stroke_order_diagram--existing_path"></path><path id="kvg:05712-s11" kvg:type="㇒" d="M71.59,63.21C71.5,64.12,71,65,69.97,66.04c-1.29,1.3-3.97,3.21-7.88,4.89" transform="matrix(1,0,0,1,996,-4)" class="stroke_order_diagram--current_path"></path><path id="pathSk2v596cnxs1" kvg:type="㇒" d="M71.59,63.21C71.5,64.12,71,65,69.97,66.04c-1.29,1.3-3.97,3.21-7.88,4.89" transform="matrix(1,0,0,1,996,-4)" class="stroke_order_diagram--current_path"></path><circle cx="71.59" cy="63.21" r="8" class="stroke_order_diagram--path_start" transform="matrix(1,0,0,1,996,-4)"></circle><line x1="1150" x2="1150" y1="1" y2="99" class="stroke_order_diagram--guide_line"></line><line x1="1199" x2="1199" y1="1" y2="99" class="stroke_order_diagram--bounding_box"></line><path id="pathSk2v596cnxs4" kvg:type="㇑" d="M18,18.79c1.29,1.29,1.61,2.94,1.61,4.78c0,12.45,0.07,46.78,0.08,66.05c0,2.27,0,4.33,0,6.12" transform="matrix(1,0,0,1,1096,-4)" class="stroke_order_diagram--existing_path"></path><path id="pathSk2v596cnxs5" kvg:type="㇕a" d="M20.74,21.21c19.04-1.59,54.71-3.96,65.51-3.96c2.75,0,3.55,2.42,3.5,5.35C89.52,36.75,88.86,66.5,89.16,88c0.02,1.75,0.05,3.44,0.09,5.07" transform="matrix(1,0,0,1,1096,-4)" class="stroke_order_diagram--existing_path"></path><path id="pathSk2v596cnxs6" kvg:type="㇐" d="M37.07,30.57c1.25,0.26,3.52,0.34,4.77,0.26C50.25,30.25,60,29,65.82,28.47c2.07-0.19,3.32-0.13,4.36,0" transform="matrix(1,0,0,1,1096,-4)" class="stroke_order_diagram--existing_path"></path><path id="pathSk2v596cnxs7" kvg:type="㇑a" d="M52.99,21.87c0.64,0.64,1.25,1.76,1.25,2.69c0,2.95-0.14,13.16-0.14,14.01" transform="matrix(1,0,0,1,1096,-4)" class="stroke_order_diagram--existing_path"></path><path id="pathSk2v596cnxs8" kvg:type="㇐" d="M29.39,40.62c1.62,0.43,4.3,0.34,5.91,0.18c11.94-1.18,29.44-2.8,39.52-3.69c2.68-0.24,4.32,0.2,5.67,0.42" transform="matrix(1,0,0,1,1096,-4)" class="stroke_order_diagram--existing_path"></path><path id="pathSk2v596cnxs9" kvg:type="㇑" d="M38.31,47.95c0.68,0.68,1.19,1.42,1.34,2.23c0.61,3.29,0.96,5.69,1.67,9.55c0.26,1.42,0.26,1.78,0.49,2.94" transform="matrix(1,0,0,1,1096,-4)" class="stroke_order_diagram--existing_path"></path><path id="pathSk2v596cnxsa" kvg:type="㇕b" d="M40.76,49.08c7.81-1.1,21.3-2.51,26.24-2.68c1.9-0.07,2.18,1.39,2.02,2.13c-0.35,1.58-2.31,6.52-2.98,8.39" transform="matrix(1,0,0,1,1096,-4)" class="stroke_order_diagram--existing_path"></path><path id="pathSk2v596cnxsb" kvg:type="㇐b" d="M42.65,60.58c5.01-0.69,15.1-1.7,22.12-2.24c1.29-0.1,2.54-0.2,3.69-0.31" transform="matrix(1,0,0,1,1096,-4)" class="stroke_order_diagram--existing_path"></path><path id="pathSk2v596cnxsc" kvg:type="㇒" d="M49.13,62.5c0.21,1.56-0.56,3.02-1.58,4.14c-4.67,5.11-9.92,9.11-18.49,13.86" transform="matrix(1,0,0,1,1096,-4)" class="stroke_order_diagram--existing_path"></path><path id="pathSk2v596cnxsd" kvg:type="㇑/㇙" d="M51.09,66.7c0.98,0.98,1.43,1.67,1.43,3.08c0,3.46-0.01,8.12-0.01,12.09c0,1.16,0,2.25,0,3.25" transform="matrix(1,0,0,1,1096,-4)" class="stroke_order_diagram--existing_path"></path><path id="pathSk2v596cnxse" kvg:type="㇒" d="M71.59,63.21C71.5,64.12,71,65,69.97,66.04c-1.29,1.3-3.97,3.21-7.88,4.89" transform="matrix(1,0,0,1,1096,-4)" class="stroke_order_diagram--existing_path"></path><path id="kvg:05712-s12" kvg:type="㇔/㇏" d="M55.38,68c8.25,3.29,15.07,7.67,19.62,14.25" transform="matrix(1,0,0,1,1096,-4)" class="stroke_order_diagram--current_path"></path><path id="pathSk2v596cnxsg" kvg:type="㇔/㇏" d="M55.38,68c8.25,3.29,15.07,7.67,19.62,14.25" transform="matrix(1,0,0,1,1096,-4)" class="stroke_order_diagram--current_path"></path><circle cx="55.38" cy="68" r="8" class="stroke_order_diagram--path_start" transform="matrix(1,0,0,1,1096,-4)"></circle><line x1="1250" x2="1250" y1="1" y2="99" class="stroke_order_diagram--guide_line"></line><line x1="1299" x2="1299" y1="1" y2="99" class="stroke_order_diagram--bounding_box"></line><path id="pathSk2v596cnxsj" kvg:type="㇑" d="M18,18.79c1.29,1.29,1.61,2.94,1.61,4.78c0,12.45,0.07,46.78,0.08,66.05c0,2.27,0,4.33,0,6.12" transform="matrix(1,0,0,1,1196,-4)" class="stroke_order_diagram--existing_path"></path><path id="pathSk2v596cnxsk" kvg:type="㇕a" d="M20.74,21.21c19.04-1.59,54.71-3.96,65.51-3.96c2.75,0,3.55,2.42,3.5,5.35C89.52,36.75,88.86,66.5,89.16,88c0.02,1.75,0.05,3.44,0.09,5.07" transform="matrix(1,0,0,1,1196,-4)" class="stroke_order_diagram--existing_path"></path><path id="pathSk2v596cnxsl" kvg:type="㇐" d="M37.07,30.57c1.25,0.26,3.52,0.34,4.77,0.26C50.25,30.25,60,29,65.82,28.47c2.07-0.19,3.32-0.13,4.36,0" transform="matrix(1,0,0,1,1196,-4)" class="stroke_order_diagram--existing_path"></path><path id="pathSk2v596cnxsm" kvg:type="㇑a" d="M52.99,21.87c0.64,0.64,1.25,1.76,1.25,2.69c0,2.95-0.14,13.16-0.14,14.01" transform="matrix(1,0,0,1,1196,-4)" class="stroke_order_diagram--existing_path"></path><path id="pathSk2v596cnxsn" kvg:type="㇐" d="M29.39,40.62c1.62,0.43,4.3,0.34,5.91,0.18c11.94-1.18,29.44-2.8,39.52-3.69c2.68-0.24,4.32,0.2,5.67,0.42" transform="matrix(1,0,0,1,1196,-4)" class="stroke_order_diagram--existing_path"></path><path id="pathSk2v596cnxso" kvg:type="㇑" d="M38.31,47.95c0.68,0.68,1.19,1.42,1.34,2.23c0.61,3.29,0.96,5.69,1.67,9.55c0.26,1.42,0.26,1.78,0.49,2.94" transform="matrix(1,0,0,1,1196,-4)" class="stroke_order_diagram--existing_path"></path><path id="pathSk2v596cnxsp" kvg:type="㇕b" d="M40.76,49.08c7.81-1.1,21.3-2.51,26.24-2.68c1.9-0.07,2.18,1.39,2.02,2.13c-0.35,1.58-2.31,6.52-2.98,8.39" transform="matrix(1,0,0,1,1196,-4)" class="stroke_order_diagram--existing_path"></path><path id="pathSk2v596cnxsq" kvg:type="㇐b" d="M42.65,60.58c5.01-0.69,15.1-1.7,22.12-2.24c1.29-0.1,2.54-0.2,3.69-0.31" transform="matrix(1,0,0,1,1196,-4)" class="stroke_order_diagram--existing_path"></path><path id="pathSk2v596cnxsr" kvg:type="㇒" d="M49.13,62.5c0.21,1.56-0.56,3.02-1.58,4.14c-4.67,5.11-9.92,9.11-18.49,13.86" transform="matrix(1,0,0,1,1196,-4)" class="stroke_order_diagram--existing_path"></path><path id="pathSk2v596cnxss" kvg:type="㇑/㇙" d="M51.09,66.7c0.98,0.98,1.43,1.67,1.43,3.08c0,3.46-0.01,8.12-0.01,12.09c0,1.16,0,2.25,0,3.25" transform="matrix(1,0,0,1,1196,-4)" class="stroke_order_diagram--existing_path"></path><path id="pathSk2v596cnxst" kvg:type="㇒" d="M71.59,63.21C71.5,64.12,71,65,69.97,66.04c-1.29,1.3-3.97,3.21-7.88,4.89" transform="matrix(1,0,0,1,1196,-4)" class="stroke_order_diagram--existing_path"></path><path id="pathSk2v596cnxsu" kvg:type="㇔/㇏" d="M55.38,68c8.25,3.29,15.07,7.67,19.62,14.25" transform="matrix(1,0,0,1,1196,-4)" class="stroke_order_diagram--existing_path"></path><path id="kvg:05712-s13" kvg:type="㇐a" d="M21,93.1c13.75-0.35,48.71-2.29,66.75-2.69" transform="matrix(1,0,0,1,1196,-4)" class="stroke_order_diagram--current_path"></path><path id="pathSk2v596cnxsw" kvg:type="㇐a" d="M21,93.1c13.75-0.35,48.71-2.29,66.75-2.69" transform="matrix(1,0,0,1,1196,-4)" class="stroke_order_diagram--current_path"></path><circle cx="21" cy="93.1" r="8" class="stroke_order_diagram--path_start" transform="matrix(1,0,0,1,1196,-4)"></circle></svg>