<svg style="width: 700px; height: 100px;" viewbox="0 0 700 100"><style>
.stroke_order_diagram--outer_container {
  width: 100%;
  overflow-x: auto;
  overflow-y: hidden;
}

.stroke_order_diagram--guide_line {
  fill: none;
  stroke: #ddd;
  stroke-width: 3;
  stroke-linecap: square;
  stroke-linejoin: square;
  stroke-dasharray:8, 8;
}

.stroke_order_diagram--bounding_box {
  fill: none;
  stroke: #ddd;
  stroke-width: 4;
  stroke-linecap: square;
  stroke-linejoin: square;
}

.stroke_order_diagram--current_path {
  fill: none;
  stroke: #000;
  stroke-width: 6;
  stroke-linecap: round;
  stroke-linejoin: round;
}

.stroke_order_diagram--existing_path {
  fill: none;
  stroke: #aaa;
  stroke-width: 6;
  stroke-linecap: round;
  stroke-linejoin:round;
}

.stroke_order_diagram--path_start {
  fill: rgba(255, 0, 0, 0.7);
  stroke:none
}</style><desc>Created with Snap</desc><defs></defs><line x1="1" x2="699" y1="1" y2="1" class="stroke_order_diagram--bounding_box"></line><line x1="1" x2="1" y1="1" y2="99" class="stroke_order_diagram--bounding_box"></line><line x1="1" x2="699" y1="99" y2="99" class="stroke_order_diagram--bounding_box"></line><line x1="0" x2="700" y1="50" y2="50" class="stroke_order_diagram--guide_line"></line><line x1="50" x2="50" y1="1" y2="99" class="stroke_order_diagram--guide_line"></line><line x1="99" x2="99" y1="1" y2="99" class="stroke_order_diagram--bounding_box"></line><path id="kvg:05747-s1" kvg:type="㇐" d="M 14.5,43.89 c 1.5,0.36 3.25,0.25 4,0.11 5.5,-1 11.5,-2 19,-3.75 1.23,-0.29 2.25,-0.5 3.75,-0.49" transform="matrix(1,0,0,1,-4,-4)" class="stroke_order_diagram--current_path"></path><path id="pathSk2v596cn25eu" kvg:type="㇐" d="M 14.5,43.89 c 1.5,0.36 3.25,0.25 4,0.11 5.5,-1 11.5,-2 19,-3.75 1.23,-0.29 2.25,-0.5 3.75,-0.49" transform="matrix(1,0,0,1,-4,-4)" class="stroke_order_diagram--current_path"></path><circle cx="14.5" cy="43.89" r="8" class="stroke_order_diagram--path_start" transform="matrix(1,0,0,1,-4,-4)"></circle><line x1="150" x2="150" y1="1" y2="99" class="stroke_order_diagram--guide_line"></line><line x1="199" x2="199" y1="1" y2="99" class="stroke_order_diagram--bounding_box"></line><path id="pathSk2v596cn25ex" kvg:type="㇐" d="M 14.5,43.89 c 1.5,0.36 3.25,0.25 4,0.11 5.5,-1 11.5,-2 19,-3.75 1.23,-0.29 2.25,-0.5 3.75,-0.49" transform="matrix(1,0,0,1,96,-4)" class="stroke_order_diagram--existing_path"></path><path id="kvg:05747-s2" kvg:type="㇑a" d="M 28.62,16 c 0.94,0.94 1.21,2.38 1.21,3.75 0,7.25 0.03,38.75 0.03,49.5" transform="matrix(1,0,0,1,96,-4)" class="stroke_order_diagram--current_path"></path><path id="pathSk2v596cn25ez" kvg:type="㇑a" d="M 28.62,16 c 0.94,0.94 1.21,2.38 1.21,3.75 0,7.25 0.03,38.75 0.03,49.5" transform="matrix(1,0,0,1,96,-4)" class="stroke_order_diagram--current_path"></path><circle cx="28.62" cy="16" r="8" class="stroke_order_diagram--path_start" transform="matrix(1,0,0,1,96,-4)"></circle><line x1="250" x2="250" y1="1" y2="99" class="stroke_order_diagram--guide_line"></line><line x1="299" x2="299" y1="1" y2="99" class="stroke_order_diagram--bounding_box"></line><path id="pathSk2v596cn25f2" kvg:type="㇐" d="M 14.5,43.89 c 1.5,0.36 3.25,0.25 4,0.11 5.5,-1 11.5,-2 19,-3.75 1.23,-0.29 2.25,-0.5 3.75,-0.49" transform="matrix(1,0,0,1,196,-4)" class="stroke_order_diagram--existing_path"></path><path id="pathSk2v596cn25f3" kvg:type="㇑a" d="M 28.62,16 c 0.94,0.94 1.21,2.38 1.21,3.75 0,7.25 0.03,38.75 0.03,49.5" transform="matrix(1,0,0,1,196,-4)" class="stroke_order_diagram--existing_path"></path><path id="kvg:05747-s3" kvg:type="㇀/㇐" d="M 16.26,80.76 c 1.15,0.36 2.73,0.3 4.12,-1.15 5.14,-5.37 14.42,-14.98 19.56,-20.34" transform="matrix(1,0,0,1,196,-4)" class="stroke_order_diagram--current_path"></path><path id="pathSk2v596cn25f5" kvg:type="㇀/㇐" d="M 16.26,80.76 c 1.15,0.36 2.73,0.3 4.12,-1.15 5.14,-5.37 14.42,-14.98 19.56,-20.34" transform="matrix(1,0,0,1,196,-4)" class="stroke_order_diagram--current_path"></path><circle cx="16.26" cy="80.76" r="8" class="stroke_order_diagram--path_start" transform="matrix(1,0,0,1,196,-4)"></circle><line x1="350" x2="350" y1="1" y2="99" class="stroke_order_diagram--guide_line"></line><line x1="399" x2="399" y1="1" y2="99" class="stroke_order_diagram--bounding_box"></line><path id="pathSk2v596cn25f8" kvg:type="㇐" d="M 14.5,43.89 c 1.5,0.36 3.25,0.25 4,0.11 5.5,-1 11.5,-2 19,-3.75 1.23,-0.29 2.25,-0.5 3.75,-0.49" transform="matrix(1,0,0,1,296,-4)" class="stroke_order_diagram--existing_path"></path><path id="pathSk2v596cn25f9" kvg:type="㇑a" d="M 28.62,16 c 0.94,0.94 1.21,2.38 1.21,3.75 0,7.25 0.03,38.75 0.03,49.5" transform="matrix(1,0,0,1,296,-4)" class="stroke_order_diagram--existing_path"></path><path id="pathSk2v596cn25fa" kvg:type="㇀/㇐" d="M 16.26,80.76 c 1.15,0.36 2.73,0.3 4.12,-1.15 5.14,-5.37 14.42,-14.98 19.56,-20.34" transform="matrix(1,0,0,1,296,-4)" class="stroke_order_diagram--existing_path"></path><path id="kvg:05747-s4" kvg:type="㇒" d="M 61.04,13.75 c 0.05,0.86 0.01,2 -0.35,3.19 -2.82,9.31 -8.32,21.43 -17.44,32.69" transform="matrix(1,0,0,1,296,-4)" class="stroke_order_diagram--current_path"></path><path id="pathSk2v596cn25fc" kvg:type="㇒" d="M 61.04,13.75 c 0.05,0.86 0.01,2 -0.35,3.19 -2.82,9.31 -8.32,21.43 -17.44,32.69" transform="matrix(1,0,0,1,296,-4)" class="stroke_order_diagram--current_path"></path><circle cx="61.04" cy="13.75" r="8" class="stroke_order_diagram--path_start" transform="matrix(1,0,0,1,296,-4)"></circle><line x1="450" x2="450" y1="1" y2="99" class="stroke_order_diagram--guide_line"></line><line x1="499" x2="499" y1="1" y2="99" class="stroke_order_diagram--bounding_box"></line><path id="pathSk2v596cn25ff" kvg:type="㇐" d="M 14.5,43.89 c 1.5,0.36 3.25,0.25 4,0.11 5.5,-1 11.5,-2 19,-3.75 1.23,-0.29 2.25,-0.5 3.75,-0.49" transform="matrix(1,0,0,1,396,-4)" class="stroke_order_diagram--existing_path"></path><path id="pathSk2v596cn25fg" kvg:type="㇑a" d="M 28.62,16 c 0.94,0.94 1.21,2.38 1.21,3.75 0,7.25 0.03,38.75 0.03,49.5" transform="matrix(1,0,0,1,396,-4)" class="stroke_order_diagram--existing_path"></path><path id="pathSk2v596cn25fh" kvg:type="㇀/㇐" d="M 16.26,80.76 c 1.15,0.36 2.73,0.3 4.12,-1.15 5.14,-5.37 14.42,-14.98 19.56,-20.34" transform="matrix(1,0,0,1,396,-4)" class="stroke_order_diagram--existing_path"></path><path id="pathSk2v596cn25fi" kvg:type="㇒" d="M 61.04,13.75 c 0.05,0.86 0.01,2 -0.35,3.19 -2.82,9.31 -8.32,21.43 -17.44,32.69" transform="matrix(1,0,0,1,396,-4)" class="stroke_order_diagram--existing_path"></path><path id="kvg:05747-s5" kvg:type="㇆" d="M 56.79,34.67 c 1.71,0.45 3.1,0.37 4.6,0.21 3.73,-0.39 24.54,-3.16 28.14,-3.39 3.6,-0.23 6.47,0.59 5.78,5.44 -2.31,16.19 -5.56,36.45 -13.74,52.74 -2.08,4.14 -5.45,3.46 -8.51,-0.66" transform="matrix(1,0,0,1,396,-4)" class="stroke_order_diagram--current_path"></path><path id="pathSk2v596cn25fk" kvg:type="㇆" d="M 56.79,34.67 c 1.71,0.45 3.1,0.37 4.6,0.21 3.73,-0.39 24.54,-3.16 28.14,-3.39 3.6,-0.23 6.47,0.59 5.78,5.44 -2.31,16.19 -5.56,36.45 -13.74,52.74 -2.08,4.14 -5.45,3.46 -8.51,-0.66" transform="matrix(1,0,0,1,396,-4)" class="stroke_order_diagram--current_path"></path><circle cx="56.79" cy="34.67" r="8" class="stroke_order_diagram--path_start" transform="matrix(1,0,0,1,396,-4)"></circle><line x1="550" x2="550" y1="1" y2="99" class="stroke_order_diagram--guide_line"></line><line x1="599" x2="599" y1="1" y2="99" class="stroke_order_diagram--bounding_box"></line><path id="pathSk2v596cn25fn" kvg:type="㇐" d="M 14.5,43.89 c 1.5,0.36 3.25,0.25 4,0.11 5.5,-1 11.5,-2 19,-3.75 1.23,-0.29 2.25,-0.5 3.75,-0.49" transform="matrix(1,0,0,1,496,-4)" class="stroke_order_diagram--existing_path"></path><path id="pathSk2v596cn25fo" kvg:type="㇑a" d="M 28.62,16 c 0.94,0.94 1.21,2.38 1.21,3.75 0,7.25 0.03,38.75 0.03,49.5" transform="matrix(1,0,0,1,496,-4)" class="stroke_order_diagram--existing_path"></path><path id="pathSk2v596cn25fp" kvg:type="㇀/㇐" d="M 16.26,80.76 c 1.15,0.36 2.73,0.3 4.12,-1.15 5.14,-5.37 14.42,-14.98 19.56,-20.34" transform="matrix(1,0,0,1,496,-4)" class="stroke_order_diagram--existing_path"></path><path id="pathSk2v596cn25fq" kvg:type="㇒" d="M 61.04,13.75 c 0.05,0.86 0.01,2 -0.35,3.19 -2.82,9.31 -8.32,21.43 -17.44,32.69" transform="matrix(1,0,0,1,496,-4)" class="stroke_order_diagram--existing_path"></path><path id="pathSk2v596cn25fr" kvg:type="㇆" d="M 56.79,34.67 c 1.71,0.45 3.1,0.37 4.6,0.21 3.73,-0.39 24.54,-3.16 28.14,-3.39 3.6,-0.23 6.47,0.59 5.78,5.44 -2.31,16.19 -5.56,36.45 -13.74,52.74 -2.08,4.14 -5.45,3.46 -8.51,-0.66" transform="matrix(1,0,0,1,496,-4)" class="stroke_order_diagram--existing_path"></path><path id="kvg:05747-s6" kvg:type="㇔" d="M 55.154459,52.714213 c 0.85,0.3 1.88,0.58 2.98,0.55 2.25,-0.05 5.98,-0.55 8.02,-0.69 1.73,-0.11 1.98,-0.11 3.73,0.14" transform="matrix(1,0,0,1,496,-4)" class="stroke_order_diagram--current_path"></path><path id="pathSk2v596cn25ft" kvg:type="㇔" d="M 55.154459,52.714213 c 0.85,0.3 1.88,0.58 2.98,0.55 2.25,-0.05 5.98,-0.55 8.02,-0.69 1.73,-0.11 1.98,-0.11 3.73,0.14" transform="matrix(1,0,0,1,496,-4)" class="stroke_order_diagram--current_path"></path><circle cx="55.154459" cy="52.714213" r="8" class="stroke_order_diagram--path_start" transform="matrix(1,0,0,1,496,-4)"></circle><line x1="650" x2="650" y1="1" y2="99" class="stroke_order_diagram--guide_line"></line><line x1="699" x2="699" y1="1" y2="99" class="stroke_order_diagram--bounding_box"></line><path id="pathSk2v596cn25fw" kvg:type="㇐" d="M 14.5,43.89 c 1.5,0.36 3.25,0.25 4,0.11 5.5,-1 11.5,-2 19,-3.75 1.23,-0.29 2.25,-0.5 3.75,-0.49" transform="matrix(1,0,0,1,596,-4)" class="stroke_order_diagram--existing_path"></path><path id="pathSk2v596cn25fx" kvg:type="㇑a" d="M 28.62,16 c 0.94,0.94 1.21,2.38 1.21,3.75 0,7.25 0.03,38.75 0.03,49.5" transform="matrix(1,0,0,1,596,-4)" class="stroke_order_diagram--existing_path"></path><path id="pathSk2v596cn25fy" kvg:type="㇀/㇐" d="M 16.26,80.76 c 1.15,0.36 2.73,0.3 4.12,-1.15 5.14,-5.37 14.42,-14.98 19.56,-20.34" transform="matrix(1,0,0,1,596,-4)" class="stroke_order_diagram--existing_path"></path><path id="pathSk2v596cn25fz" kvg:type="㇒" d="M 61.04,13.75 c 0.05,0.86 0.01,2 -0.35,3.19 -2.82,9.31 -8.32,21.43 -17.44,32.69" transform="matrix(1,0,0,1,596,-4)" class="stroke_order_diagram--existing_path"></path><path id="pathSk2v596cn25g0" kvg:type="㇆" d="M 56.79,34.67 c 1.71,0.45 3.1,0.37 4.6,0.21 3.73,-0.39 24.54,-3.16 28.14,-3.39 3.6,-0.23 6.47,0.59 5.78,5.44 -2.31,16.19 -5.56,36.45 -13.74,52.74 -2.08,4.14 -5.45,3.46 -8.51,-0.66" transform="matrix(1,0,0,1,596,-4)" class="stroke_order_diagram--existing_path"></path><path id="pathSk2v596cn25g1" kvg:type="㇔" d="M 55.154459,52.714213 c 0.85,0.3 1.88,0.58 2.98,0.55 2.25,-0.05 5.98,-0.55 8.02,-0.69 1.73,-0.11 1.98,-0.11 3.73,0.14" transform="matrix(1,0,0,1,596,-4)" class="stroke_order_diagram--existing_path"></path><path id="kvg:05747-s7" kvg:type="㇀" d="M 53.51,75.01 c 1.02,0.44 2.79,0.46 3.97,-0.44 4.78,-3.66 14.47,-10.41 19.46,-13.8" transform="matrix(1,0,0,1,596,-4)" class="stroke_order_diagram--current_path"></path><path id="pathSk2v596cn25g3" kvg:type="㇀" d="M 53.51,75.01 c 1.02,0.44 2.79,0.46 3.97,-0.44 4.78,-3.66 14.47,-10.41 19.46,-13.8" transform="matrix(1,0,0,1,596,-4)" class="stroke_order_diagram--current_path"></path><circle cx="53.51" cy="75.01" r="8" class="stroke_order_diagram--path_start" transform="matrix(1,0,0,1,596,-4)"></circle></svg>