<svg style="width: 700px; height: 100px;" viewbox="0 0 700 100"><style>
.stroke_order_diagram--outer_container {
  width: 100%;
  overflow-x: auto;
  overflow-y: hidden;
}

.stroke_order_diagram--guide_line {
  fill: none;
  stroke: #ddd;
  stroke-width: 3;
  stroke-linecap: square;
  stroke-linejoin: square;
  stroke-dasharray:8, 8;
}

.stroke_order_diagram--bounding_box {
  fill: none;
  stroke: #ddd;
  stroke-width: 4;
  stroke-linecap: square;
  stroke-linejoin: square;
}

.stroke_order_diagram--current_path {
  fill: none;
  stroke: #000;
  stroke-width: 6;
  stroke-linecap: round;
  stroke-linejoin: round;
}

.stroke_order_diagram--existing_path {
  fill: none;
  stroke: #aaa;
  stroke-width: 6;
  stroke-linecap: round;
  stroke-linejoin:round;
}

.stroke_order_diagram--path_start {
  fill: rgba(255, 0, 0, 0.7);
  stroke:none
}</style><desc>Created with Snap</desc><defs></defs><line x1="1" x2="699" y1="1" y2="1" class="stroke_order_diagram--bounding_box"></line><line x1="1" x2="1" y1="1" y2="99" class="stroke_order_diagram--bounding_box"></line><line x1="1" x2="699" y1="99" y2="99" class="stroke_order_diagram--bounding_box"></line><line x1="0" x2="700" y1="50" y2="50" class="stroke_order_diagram--guide_line"></line><line x1="50" x2="50" y1="1" y2="99" class="stroke_order_diagram--guide_line"></line><line x1="99" x2="99" y1="1" y2="99" class="stroke_order_diagram--bounding_box"></line><path id="kvg:05742-s1" kvg:type="㇐" d="M10.88,40.23c1.5,0.39,3.08,0.53,4.05,0.41c5.33-0.65,15.9-2.52,20.48-3.36c1.62-0.29,2.64-0.17,3.47-0.09" transform="matrix(1,0,0,1,-4,-4)" class="stroke_order_diagram--current_path"></path><path id="pathSk2v596cnvkx" kvg:type="㇐" d="M10.88,40.23c1.5,0.39,3.08,0.53,4.05,0.41c5.33-0.65,15.9-2.52,20.48-3.36c1.62-0.29,2.64-0.17,3.47-0.09" transform="matrix(1,0,0,1,-4,-4)" class="stroke_order_diagram--current_path"></path><circle cx="10.88" cy="40.23" r="8" class="stroke_order_diagram--path_start" transform="matrix(1,0,0,1,-4,-4)"></circle><line x1="150" x2="150" y1="1" y2="99" class="stroke_order_diagram--guide_line"></line><line x1="199" x2="199" y1="1" y2="99" class="stroke_order_diagram--bounding_box"></line><path id="pathSk2v596cnvl0" kvg:type="㇐" d="M10.88,40.23c1.5,0.39,3.08,0.53,4.05,0.41c5.33-0.65,15.9-2.52,20.48-3.36c1.62-0.29,2.64-0.17,3.47-0.09" transform="matrix(1,0,0,1,96,-4)" class="stroke_order_diagram--existing_path"></path><path id="kvg:05742-s2" kvg:type="㇑a" d="M25.62,18.5c0.88,0.88,1.46,2.5,1.46,3.5c0,1.02-0.08,27.75-0.08,43.25" transform="matrix(1,0,0,1,96,-4)" class="stroke_order_diagram--current_path"></path><path id="pathSk2v596cnvl2" kvg:type="㇑a" d="M25.62,18.5c0.88,0.88,1.46,2.5,1.46,3.5c0,1.02-0.08,27.75-0.08,43.25" transform="matrix(1,0,0,1,96,-4)" class="stroke_order_diagram--current_path"></path><circle cx="25.62" cy="18.5" r="8" class="stroke_order_diagram--path_start" transform="matrix(1,0,0,1,96,-4)"></circle><line x1="250" x2="250" y1="1" y2="99" class="stroke_order_diagram--guide_line"></line><line x1="299" x2="299" y1="1" y2="99" class="stroke_order_diagram--bounding_box"></line><path id="pathSk2v596cnvl5" kvg:type="㇐" d="M10.88,40.23c1.5,0.39,3.08,0.53,4.05,0.41c5.33-0.65,15.9-2.52,20.48-3.36c1.62-0.29,2.64-0.17,3.47-0.09" transform="matrix(1,0,0,1,196,-4)" class="stroke_order_diagram--existing_path"></path><path id="pathSk2v596cnvl6" kvg:type="㇑a" d="M25.62,18.5c0.88,0.88,1.46,2.5,1.46,3.5c0,1.02-0.08,27.75-0.08,43.25" transform="matrix(1,0,0,1,196,-4)" class="stroke_order_diagram--existing_path"></path><path id="kvg:05742-s3" kvg:type="㇀/㇐" d="M11.38,72.97c1.57,0.71,3.14,0.45,4.69-0.37c1.57-0.83,14.25-8.14,20.93-12.1" transform="matrix(1,0,0,1,196,-4)" class="stroke_order_diagram--current_path"></path><path id="pathSk2v596cnvl8" kvg:type="㇀/㇐" d="M11.38,72.97c1.57,0.71,3.14,0.45,4.69-0.37c1.57-0.83,14.25-8.14,20.93-12.1" transform="matrix(1,0,0,1,196,-4)" class="stroke_order_diagram--current_path"></path><circle cx="11.38" cy="72.97" r="8" class="stroke_order_diagram--path_start" transform="matrix(1,0,0,1,196,-4)"></circle><line x1="350" x2="350" y1="1" y2="99" class="stroke_order_diagram--guide_line"></line><line x1="399" x2="399" y1="1" y2="99" class="stroke_order_diagram--bounding_box"></line><path id="pathSk2v596cnvlb" kvg:type="㇐" d="M10.88,40.23c1.5,0.39,3.08,0.53,4.05,0.41c5.33-0.65,15.9-2.52,20.48-3.36c1.62-0.29,2.64-0.17,3.47-0.09" transform="matrix(1,0,0,1,296,-4)" class="stroke_order_diagram--existing_path"></path><path id="pathSk2v596cnvlc" kvg:type="㇑a" d="M25.62,18.5c0.88,0.88,1.46,2.5,1.46,3.5c0,1.02-0.08,27.75-0.08,43.25" transform="matrix(1,0,0,1,296,-4)" class="stroke_order_diagram--existing_path"></path><path id="pathSk2v596cnvld" kvg:type="㇀/㇐" d="M11.38,72.97c1.57,0.71,3.14,0.45,4.69-0.37c1.57-0.83,14.25-8.14,20.93-12.1" transform="matrix(1,0,0,1,296,-4)" class="stroke_order_diagram--existing_path"></path><path id="kvg:05742-s4" kvg:type="㇐" d="M47.75,23.49c1.79,0.13,2.63,0.31,4.19,0.17c11.37-1.09,27.32-4.14,35.75-4.36c2.6-0.07,0.67-0.04,3.57-0.04" transform="matrix(1,0,0,1,296,-4)" class="stroke_order_diagram--current_path"></path><path id="pathSk2v596cnvlf" kvg:type="㇐" d="M47.75,23.49c1.79,0.13,2.63,0.31,4.19,0.17c11.37-1.09,27.32-4.14,35.75-4.36c2.6-0.07,0.67-0.04,3.57-0.04" transform="matrix(1,0,0,1,296,-4)" class="stroke_order_diagram--current_path"></path><circle cx="47.75" cy="23.49" r="8" class="stroke_order_diagram--path_start" transform="matrix(1,0,0,1,296,-4)"></circle><line x1="450" x2="450" y1="1" y2="99" class="stroke_order_diagram--guide_line"></line><line x1="499" x2="499" y1="1" y2="99" class="stroke_order_diagram--bounding_box"></line><path id="pathSk2v596cnvli" kvg:type="㇐" d="M10.88,40.23c1.5,0.39,3.08,0.53,4.05,0.41c5.33-0.65,15.9-2.52,20.48-3.36c1.62-0.29,2.64-0.17,3.47-0.09" transform="matrix(1,0,0,1,396,-4)" class="stroke_order_diagram--existing_path"></path><path id="pathSk2v596cnvlj" kvg:type="㇑a" d="M25.62,18.5c0.88,0.88,1.46,2.5,1.46,3.5c0,1.02-0.08,27.75-0.08,43.25" transform="matrix(1,0,0,1,396,-4)" class="stroke_order_diagram--existing_path"></path><path id="pathSk2v596cnvlk" kvg:type="㇀/㇐" d="M11.38,72.97c1.57,0.71,3.14,0.45,4.69-0.37c1.57-0.83,14.25-8.14,20.93-12.1" transform="matrix(1,0,0,1,396,-4)" class="stroke_order_diagram--existing_path"></path><path id="pathSk2v596cnvll" kvg:type="㇐" d="M47.75,23.49c1.79,0.13,2.63,0.31,4.19,0.17c11.37-1.09,27.32-4.14,35.75-4.36c2.6-0.07,0.67-0.04,3.57-0.04" transform="matrix(1,0,0,1,396,-4)" class="stroke_order_diagram--existing_path"></path><path id="kvg:05742-s5" kvg:type="㇒" d="M51.25,24.12c0.5,1,0.9,2.12,0.9,3.87c0,22.05-3.53,45.95-17.9,59.25" transform="matrix(1,0,0,1,396,-4)" class="stroke_order_diagram--current_path"></path><path id="pathSk2v596cnvln" kvg:type="㇒" d="M51.25,24.12c0.5,1,0.9,2.12,0.9,3.87c0,22.05-3.53,45.95-17.9,59.25" transform="matrix(1,0,0,1,396,-4)" class="stroke_order_diagram--current_path"></path><circle cx="51.25" cy="24.12" r="8" class="stroke_order_diagram--path_start" transform="matrix(1,0,0,1,396,-4)"></circle><line x1="550" x2="550" y1="1" y2="99" class="stroke_order_diagram--guide_line"></line><line x1="599" x2="599" y1="1" y2="99" class="stroke_order_diagram--bounding_box"></line><path id="pathSk2v596cnvlq" kvg:type="㇐" d="M10.88,40.23c1.5,0.39,3.08,0.53,4.05,0.41c5.33-0.65,15.9-2.52,20.48-3.36c1.62-0.29,2.64-0.17,3.47-0.09" transform="matrix(1,0,0,1,496,-4)" class="stroke_order_diagram--existing_path"></path><path id="pathSk2v596cnvlr" kvg:type="㇑a" d="M25.62,18.5c0.88,0.88,1.46,2.5,1.46,3.5c0,1.02-0.08,27.75-0.08,43.25" transform="matrix(1,0,0,1,496,-4)" class="stroke_order_diagram--existing_path"></path><path id="pathSk2v596cnvls" kvg:type="㇀/㇐" d="M11.38,72.97c1.57,0.71,3.14,0.45,4.69-0.37c1.57-0.83,14.25-8.14,20.93-12.1" transform="matrix(1,0,0,1,496,-4)" class="stroke_order_diagram--existing_path"></path><path id="pathSk2v596cnvlt" kvg:type="㇐" d="M47.75,23.49c1.79,0.13,2.63,0.31,4.19,0.17c11.37-1.09,27.32-4.14,35.75-4.36c2.6-0.07,0.67-0.04,3.57-0.04" transform="matrix(1,0,0,1,496,-4)" class="stroke_order_diagram--existing_path"></path><path id="pathSk2v596cnvlu" kvg:type="㇒" d="M51.25,24.12c0.5,1,0.9,2.12,0.9,3.87c0,22.05-3.53,45.95-17.9,59.25" transform="matrix(1,0,0,1,496,-4)" class="stroke_order_diagram--existing_path"></path><path id="kvg:05742-s6" kvg:type="㇇" d="M54.09,47c1.3,0.31,2.96,0.28,5.56-0.19c2.6-0.47,17.78-4.25,19.62-4.48C82,42,83.5,44.5,82.45,47.25c-7.68,20.2-15.7,35.12-34.97,43.74" transform="matrix(1,0,0,1,496,-4)" class="stroke_order_diagram--current_path"></path><path id="pathSk2v596cnvlw" kvg:type="㇇" d="M54.09,47c1.3,0.31,2.96,0.28,5.56-0.19c2.6-0.47,17.78-4.25,19.62-4.48C82,42,83.5,44.5,82.45,47.25c-7.68,20.2-15.7,35.12-34.97,43.74" transform="matrix(1,0,0,1,496,-4)" class="stroke_order_diagram--current_path"></path><circle cx="54.09" cy="47" r="8" class="stroke_order_diagram--path_start" transform="matrix(1,0,0,1,496,-4)"></circle><line x1="650" x2="650" y1="1" y2="99" class="stroke_order_diagram--guide_line"></line><line x1="699" x2="699" y1="1" y2="99" class="stroke_order_diagram--bounding_box"></line><path id="pathSk2v596cnvlz" kvg:type="㇐" d="M10.88,40.23c1.5,0.39,3.08,0.53,4.05,0.41c5.33-0.65,15.9-2.52,20.48-3.36c1.62-0.29,2.64-0.17,3.47-0.09" transform="matrix(1,0,0,1,596,-4)" class="stroke_order_diagram--existing_path"></path><path id="pathSk2v596cnvm0" kvg:type="㇑a" d="M25.62,18.5c0.88,0.88,1.46,2.5,1.46,3.5c0,1.02-0.08,27.75-0.08,43.25" transform="matrix(1,0,0,1,596,-4)" class="stroke_order_diagram--existing_path"></path><path id="pathSk2v596cnvm1" kvg:type="㇀/㇐" d="M11.38,72.97c1.57,0.71,3.14,0.45,4.69-0.37c1.57-0.83,14.25-8.14,20.93-12.1" transform="matrix(1,0,0,1,596,-4)" class="stroke_order_diagram--existing_path"></path><path id="pathSk2v596cnvm2" kvg:type="㇐" d="M47.75,23.49c1.79,0.13,2.63,0.31,4.19,0.17c11.37-1.09,27.32-4.14,35.75-4.36c2.6-0.07,0.67-0.04,3.57-0.04" transform="matrix(1,0,0,1,596,-4)" class="stroke_order_diagram--existing_path"></path><path id="pathSk2v596cnvm3" kvg:type="㇒" d="M51.25,24.12c0.5,1,0.9,2.12,0.9,3.87c0,22.05-3.53,45.95-17.9,59.25" transform="matrix(1,0,0,1,596,-4)" class="stroke_order_diagram--existing_path"></path><path id="pathSk2v596cnvm4" kvg:type="㇇" d="M54.09,47c1.3,0.31,2.96,0.28,5.56-0.19c2.6-0.47,17.78-4.25,19.62-4.48C82,42,83.5,44.5,82.45,47.25c-7.68,20.2-15.7,35.12-34.97,43.74" transform="matrix(1,0,0,1,596,-4)" class="stroke_order_diagram--existing_path"></path><path id="kvg:05742-s7" kvg:type="㇏" d="M55.88,56.12c5.5,0.5,19.57,22.76,31.54,32.09c1.86,1.45,3.22,2.42,4.96,2.91" transform="matrix(1,0,0,1,596,-4)" class="stroke_order_diagram--current_path"></path><path id="pathSk2v596cnvm6" kvg:type="㇏" d="M55.88,56.12c5.5,0.5,19.57,22.76,31.54,32.09c1.86,1.45,3.22,2.42,4.96,2.91" transform="matrix(1,0,0,1,596,-4)" class="stroke_order_diagram--current_path"></path><circle cx="55.88" cy="56.12" r="8" class="stroke_order_diagram--path_start" transform="matrix(1,0,0,1,596,-4)"></circle></svg>