<svg style="width: 700px; height: 100px;" viewbox="0 0 700 100"><style>
.stroke_order_diagram--outer_container {
  width: 100%;
  overflow-x: auto;
  overflow-y: hidden;
}

.stroke_order_diagram--guide_line {
  fill: none;
  stroke: #ddd;
  stroke-width: 3;
  stroke-linecap: square;
  stroke-linejoin: square;
  stroke-dasharray:8, 8;
}

.stroke_order_diagram--bounding_box {
  fill: none;
  stroke: #ddd;
  stroke-width: 4;
  stroke-linecap: square;
  stroke-linejoin: square;
}

.stroke_order_diagram--current_path {
  fill: none;
  stroke: #000;
  stroke-width: 6;
  stroke-linecap: round;
  stroke-linejoin: round;
}

.stroke_order_diagram--existing_path {
  fill: none;
  stroke: #aaa;
  stroke-width: 6;
  stroke-linecap: round;
  stroke-linejoin:round;
}

.stroke_order_diagram--path_start {
  fill: rgba(255, 0, 0, 0.7);
  stroke:none
}</style><desc>Created with Snap</desc><defs></defs><line x1="1" x2="699" y1="1" y2="1" class="stroke_order_diagram--bounding_box"></line><line x1="1" x2="1" y1="1" y2="99" class="stroke_order_diagram--bounding_box"></line><line x1="1" x2="699" y1="99" y2="99" class="stroke_order_diagram--bounding_box"></line><line x1="0" x2="700" y1="50" y2="50" class="stroke_order_diagram--guide_line"></line><line x1="50" x2="50" y1="1" y2="99" class="stroke_order_diagram--guide_line"></line><line x1="99" x2="99" y1="1" y2="99" class="stroke_order_diagram--bounding_box"></line><path id="kvg:05751-s1" kvg:type="㇐" d="M14.5,46.89c1.88,0.36,3.61,0.18,5.14-0.05c5.75-0.86,12.37-2.55,18.11-3.84c1.23-0.28,2.5-0.25,3.12-0.25" transform="matrix(1,0,0,1,-4,-4)" class="stroke_order_diagram--current_path"></path><path id="pathSk2v596cn4veb" kvg:type="㇐" d="M14.5,46.89c1.88,0.36,3.61,0.18,5.14-0.05c5.75-0.86,12.37-2.55,18.11-3.84c1.23-0.28,2.5-0.25,3.12-0.25" transform="matrix(1,0,0,1,-4,-4)" class="stroke_order_diagram--current_path"></path><circle cx="14.5" cy="46.89" r="8" class="stroke_order_diagram--path_start" transform="matrix(1,0,0,1,-4,-4)"></circle><line x1="150" x2="150" y1="1" y2="99" class="stroke_order_diagram--guide_line"></line><line x1="199" x2="199" y1="1" y2="99" class="stroke_order_diagram--bounding_box"></line><path id="pathSk2v596cn4vee" kvg:type="㇐" d="M14.5,46.89c1.88,0.36,3.61,0.18,5.14-0.05c5.75-0.86,12.37-2.55,18.11-3.84c1.23-0.28,2.5-0.25,3.12-0.25" transform="matrix(1,0,0,1,96,-4)" class="stroke_order_diagram--existing_path"></path><path id="kvg:05751-s2" kvg:type="㇑a" d="M28.87,23.75c1,1,1.21,2.12,1.21,3.75c0,7.25,0.03,31.25,0.03,42" transform="matrix(1,0,0,1,96,-4)" class="stroke_order_diagram--current_path"></path><path id="pathSk2v596cn4veg" kvg:type="㇑a" d="M28.87,23.75c1,1,1.21,2.12,1.21,3.75c0,7.25,0.03,31.25,0.03,42" transform="matrix(1,0,0,1,96,-4)" class="stroke_order_diagram--current_path"></path><circle cx="28.87" cy="23.75" r="8" class="stroke_order_diagram--path_start" transform="matrix(1,0,0,1,96,-4)"></circle><line x1="250" x2="250" y1="1" y2="99" class="stroke_order_diagram--guide_line"></line><line x1="299" x2="299" y1="1" y2="99" class="stroke_order_diagram--bounding_box"></line><path id="pathSk2v596cn4vej" kvg:type="㇐" d="M14.5,46.89c1.88,0.36,3.61,0.18,5.14-0.05c5.75-0.86,12.37-2.55,18.11-3.84c1.23-0.28,2.5-0.25,3.12-0.25" transform="matrix(1,0,0,1,196,-4)" class="stroke_order_diagram--existing_path"></path><path id="pathSk2v596cn4vek" kvg:type="㇑a" d="M28.87,23.75c1,1,1.21,2.12,1.21,3.75c0,7.25,0.03,31.25,0.03,42" transform="matrix(1,0,0,1,196,-4)" class="stroke_order_diagram--existing_path"></path><path id="kvg:05751-s3" kvg:type="㇀/㇐" d="M14.24,79.65c0.82,0.77,2.11,0.7,3.89-0.6C24.21,74.61,34.92,66.94,41,62.5" transform="matrix(1,0,0,1,196,-4)" class="stroke_order_diagram--current_path"></path><path id="pathSk2v596cn4vem" kvg:type="㇀/㇐" d="M14.24,79.65c0.82,0.77,2.11,0.7,3.89-0.6C24.21,74.61,34.92,66.94,41,62.5" transform="matrix(1,0,0,1,196,-4)" class="stroke_order_diagram--current_path"></path><circle cx="14.24" cy="79.65" r="8" class="stroke_order_diagram--path_start" transform="matrix(1,0,0,1,196,-4)"></circle><line x1="350" x2="350" y1="1" y2="99" class="stroke_order_diagram--guide_line"></line><line x1="399" x2="399" y1="1" y2="99" class="stroke_order_diagram--bounding_box"></line><path id="pathSk2v596cn4vep" kvg:type="㇐" d="M14.5,46.89c1.88,0.36,3.61,0.18,5.14-0.05c5.75-0.86,12.37-2.55,18.11-3.84c1.23-0.28,2.5-0.25,3.12-0.25" transform="matrix(1,0,0,1,296,-4)" class="stroke_order_diagram--existing_path"></path><path id="pathSk2v596cn4veq" kvg:type="㇑a" d="M28.87,23.75c1,1,1.21,2.12,1.21,3.75c0,7.25,0.03,31.25,0.03,42" transform="matrix(1,0,0,1,296,-4)" class="stroke_order_diagram--existing_path"></path><path id="pathSk2v596cn4ver" kvg:type="㇀/㇐" d="M14.24,79.65c0.82,0.77,2.11,0.7,3.89-0.6C24.21,74.61,34.92,66.94,41,62.5" transform="matrix(1,0,0,1,296,-4)" class="stroke_order_diagram--existing_path"></path><path id="kvg:05751-s4" kvg:type="㇑a" d="M63.68,15.25c1.29,1.29,1.51,2.5,1.51,4.35c0,4.12-0.06,5.9-0.06,9.65" transform="matrix(1,0,0,1,296,-4)" class="stroke_order_diagram--current_path"></path><path id="pathSk2v596cn4vet" kvg:type="㇑a" d="M63.68,15.25c1.29,1.29,1.51,2.5,1.51,4.35c0,4.12-0.06,5.9-0.06,9.65" transform="matrix(1,0,0,1,296,-4)" class="stroke_order_diagram--current_path"></path><circle cx="63.68" cy="15.25" r="8" class="stroke_order_diagram--path_start" transform="matrix(1,0,0,1,296,-4)"></circle><line x1="450" x2="450" y1="1" y2="99" class="stroke_order_diagram--guide_line"></line><line x1="499" x2="499" y1="1" y2="99" class="stroke_order_diagram--bounding_box"></line><path id="pathSk2v596cn4vew" kvg:type="㇐" d="M14.5,46.89c1.88,0.36,3.61,0.18,5.14-0.05c5.75-0.86,12.37-2.55,18.11-3.84c1.23-0.28,2.5-0.25,3.12-0.25" transform="matrix(1,0,0,1,396,-4)" class="stroke_order_diagram--existing_path"></path><path id="pathSk2v596cn4vex" kvg:type="㇑a" d="M28.87,23.75c1,1,1.21,2.12,1.21,3.75c0,7.25,0.03,31.25,0.03,42" transform="matrix(1,0,0,1,396,-4)" class="stroke_order_diagram--existing_path"></path><path id="pathSk2v596cn4vey" kvg:type="㇀/㇐" d="M14.24,79.65c0.82,0.77,2.11,0.7,3.89-0.6C24.21,74.61,34.92,66.94,41,62.5" transform="matrix(1,0,0,1,396,-4)" class="stroke_order_diagram--existing_path"></path><path id="pathSk2v596cn4vez" kvg:type="㇑a" d="M63.68,15.25c1.29,1.29,1.51,2.5,1.51,4.35c0,4.12-0.06,5.9-0.06,9.65" transform="matrix(1,0,0,1,396,-4)" class="stroke_order_diagram--existing_path"></path><path id="kvg:05751-s5" kvg:type="㇐" d="M43.46,32.51c3.04,0.37,4.84,0.36,7.81-0.04c8.5-1.15,22.05-3.44,31.75-4.09c2.06-0.14,4.08-0.32,6.05,0.41" transform="matrix(1,0,0,1,396,-4)" class="stroke_order_diagram--current_path"></path><path id="pathSk2v596cn4vf1" kvg:type="㇐" d="M43.46,32.51c3.04,0.37,4.84,0.36,7.81-0.04c8.5-1.15,22.05-3.44,31.75-4.09c2.06-0.14,4.08-0.32,6.05,0.41" transform="matrix(1,0,0,1,396,-4)" class="stroke_order_diagram--current_path"></path><circle cx="43.46" cy="32.51" r="8" class="stroke_order_diagram--path_start" transform="matrix(1,0,0,1,396,-4)"></circle><line x1="550" x2="550" y1="1" y2="99" class="stroke_order_diagram--guide_line"></line><line x1="599" x2="599" y1="1" y2="99" class="stroke_order_diagram--bounding_box"></line><path id="pathSk2v596cn4vf4" kvg:type="㇐" d="M14.5,46.89c1.88,0.36,3.61,0.18,5.14-0.05c5.75-0.86,12.37-2.55,18.11-3.84c1.23-0.28,2.5-0.25,3.12-0.25" transform="matrix(1,0,0,1,496,-4)" class="stroke_order_diagram--existing_path"></path><path id="pathSk2v596cn4vf5" kvg:type="㇑a" d="M28.87,23.75c1,1,1.21,2.12,1.21,3.75c0,7.25,0.03,31.25,0.03,42" transform="matrix(1,0,0,1,496,-4)" class="stroke_order_diagram--existing_path"></path><path id="pathSk2v596cn4vf6" kvg:type="㇀/㇐" d="M14.24,79.65c0.82,0.77,2.11,0.7,3.89-0.6C24.21,74.61,34.92,66.94,41,62.5" transform="matrix(1,0,0,1,496,-4)" class="stroke_order_diagram--existing_path"></path><path id="pathSk2v596cn4vf7" kvg:type="㇑a" d="M63.68,15.25c1.29,1.29,1.51,2.5,1.51,4.35c0,4.12-0.06,5.9-0.06,9.65" transform="matrix(1,0,0,1,496,-4)" class="stroke_order_diagram--existing_path"></path><path id="pathSk2v596cn4vf8" kvg:type="㇐" d="M43.46,32.51c3.04,0.37,4.84,0.36,7.81-0.04c8.5-1.15,22.05-3.44,31.75-4.09c2.06-0.14,4.08-0.32,6.05,0.41" transform="matrix(1,0,0,1,496,-4)" class="stroke_order_diagram--existing_path"></path><path id="kvg:05751-s6" kvg:type="㇒" d="M54.2,46.38c0.83,0.83,1.04,1.86,1.05,3.61c0.25,26.76-4.5,36.76-19.36,45.26" transform="matrix(1,0,0,1,496,-4)" class="stroke_order_diagram--current_path"></path><path id="pathSk2v596cn4vfa" kvg:type="㇒" d="M54.2,46.38c0.83,0.83,1.04,1.86,1.05,3.61c0.25,26.76-4.5,36.76-19.36,45.26" transform="matrix(1,0,0,1,496,-4)" class="stroke_order_diagram--current_path"></path><circle cx="54.2" cy="46.38" r="8" class="stroke_order_diagram--path_start" transform="matrix(1,0,0,1,496,-4)"></circle><line x1="650" x2="650" y1="1" y2="99" class="stroke_order_diagram--guide_line"></line><line x1="699" x2="699" y1="1" y2="99" class="stroke_order_diagram--bounding_box"></line><path id="pathSk2v596cn4vfd" kvg:type="㇐" d="M14.5,46.89c1.88,0.36,3.61,0.18,5.14-0.05c5.75-0.86,12.37-2.55,18.11-3.84c1.23-0.28,2.5-0.25,3.12-0.25" transform="matrix(1,0,0,1,596,-4)" class="stroke_order_diagram--existing_path"></path><path id="pathSk2v596cn4vfe" kvg:type="㇑a" d="M28.87,23.75c1,1,1.21,2.12,1.21,3.75c0,7.25,0.03,31.25,0.03,42" transform="matrix(1,0,0,1,596,-4)" class="stroke_order_diagram--existing_path"></path><path id="pathSk2v596cn4vff" kvg:type="㇀/㇐" d="M14.24,79.65c0.82,0.77,2.11,0.7,3.89-0.6C24.21,74.61,34.92,66.94,41,62.5" transform="matrix(1,0,0,1,596,-4)" class="stroke_order_diagram--existing_path"></path><path id="pathSk2v596cn4vfg" kvg:type="㇑a" d="M63.68,15.25c1.29,1.29,1.51,2.5,1.51,4.35c0,4.12-0.06,5.9-0.06,9.65" transform="matrix(1,0,0,1,596,-4)" class="stroke_order_diagram--existing_path"></path><path id="pathSk2v596cn4vfh" kvg:type="㇐" d="M43.46,32.51c3.04,0.37,4.84,0.36,7.81-0.04c8.5-1.15,22.05-3.44,31.75-4.09c2.06-0.14,4.08-0.32,6.05,0.41" transform="matrix(1,0,0,1,596,-4)" class="stroke_order_diagram--existing_path"></path><path id="pathSk2v596cn4vfi" kvg:type="㇒" d="M54.2,46.38c0.83,0.83,1.04,1.86,1.05,3.61c0.25,26.76-4.5,36.76-19.36,45.26" transform="matrix(1,0,0,1,596,-4)" class="stroke_order_diagram--existing_path"></path><path id="kvg:05751-s7" kvg:type="㇈b" d="M56.25,48.38c5.92-1.31,10.02-2.27,15.24-3.21c3.18-0.57,4.73,0.29,4.5,3.58C75.5,56,75.55,78.82,75.55,83.4c0,8.23,2.58,10.35,8.87,10.35c8.58,0,9.55-1.43,9.83-8.19" transform="matrix(1,0,0,1,596,-4)" class="stroke_order_diagram--current_path"></path><path id="pathSk2v596cn4vfk" kvg:type="㇈b" d="M56.25,48.38c5.92-1.31,10.02-2.27,15.24-3.21c3.18-0.57,4.73,0.29,4.5,3.58C75.5,56,75.55,78.82,75.55,83.4c0,8.23,2.58,10.35,8.87,10.35c8.58,0,9.55-1.43,9.83-8.19" transform="matrix(1,0,0,1,596,-4)" class="stroke_order_diagram--current_path"></path><circle cx="56.25" cy="48.38" r="8" class="stroke_order_diagram--path_start" transform="matrix(1,0,0,1,596,-4)"></circle></svg>