<svg style="width: 900px; height: 100px;" viewbox="0 0 900 100"><style>
.stroke_order_diagram--outer_container {
  width: 100%;
  overflow-x: auto;
  overflow-y: hidden;
}

.stroke_order_diagram--guide_line {
  fill: none;
  stroke: #ddd;
  stroke-width: 3;
  stroke-linecap: square;
  stroke-linejoin: square;
  stroke-dasharray:8, 8;
}

.stroke_order_diagram--bounding_box {
  fill: none;
  stroke: #ddd;
  stroke-width: 4;
  stroke-linecap: square;
  stroke-linejoin: square;
}

.stroke_order_diagram--current_path {
  fill: none;
  stroke: #000;
  stroke-width: 6;
  stroke-linecap: round;
  stroke-linejoin: round;
}

.stroke_order_diagram--existing_path {
  fill: none;
  stroke: #aaa;
  stroke-width: 6;
  stroke-linecap: round;
  stroke-linejoin:round;
}

.stroke_order_diagram--path_start {
  fill: rgba(255, 0, 0, 0.7);
  stroke:none
}</style><desc>Created with Snap</desc><defs></defs><line x1="1" x2="899" y1="1" y2="1" class="stroke_order_diagram--bounding_box"></line><line x1="1" x2="1" y1="1" y2="99" class="stroke_order_diagram--bounding_box"></line><line x1="1" x2="899" y1="99" y2="99" class="stroke_order_diagram--bounding_box"></line><line x1="0" x2="900" y1="50" y2="50" class="stroke_order_diagram--guide_line"></line><line x1="50" x2="50" y1="1" y2="99" class="stroke_order_diagram--guide_line"></line><line x1="99" x2="99" y1="1" y2="99" class="stroke_order_diagram--bounding_box"></line><path id="kvg:057a3-s1" kvg:type="㇐" d="M11.75,39.64c1.21,0.61,4.04,0.72,5.36,0.52C23,39.27,32.75,37.5,38,36.5c1.24-0.24,2.62-0.18,3.25,0.01" transform="matrix(1,0,0,1,-4,-4)" class="stroke_order_diagram--current_path"></path><path id="pathSk2v596cn37bs" kvg:type="㇐" d="M11.75,39.64c1.21,0.61,4.04,0.72,5.36,0.52C23,39.27,32.75,37.5,38,36.5c1.24-0.24,2.62-0.18,3.25,0.01" transform="matrix(1,0,0,1,-4,-4)" class="stroke_order_diagram--current_path"></path><circle cx="11.75" cy="39.64" r="8" class="stroke_order_diagram--path_start" transform="matrix(1,0,0,1,-4,-4)"></circle><line x1="150" x2="150" y1="1" y2="99" class="stroke_order_diagram--guide_line"></line><line x1="199" x2="199" y1="1" y2="99" class="stroke_order_diagram--bounding_box"></line><path id="pathSk2v596cn37bv" kvg:type="㇐" d="M11.75,39.64c1.21,0.61,4.04,0.72,5.36,0.52C23,39.27,32.75,37.5,38,36.5c1.24-0.24,2.62-0.18,3.25,0.01" transform="matrix(1,0,0,1,96,-4)" class="stroke_order_diagram--existing_path"></path><path id="kvg:057a3-s2" kvg:type="㇑a" d="M27.37,16c1.13,1.13,1.21,2.38,1.21,4c0,7.25,0.03,37.75,0.03,48.5" transform="matrix(1,0,0,1,96,-4)" class="stroke_order_diagram--current_path"></path><path id="pathSk2v596cn37bx" kvg:type="㇑a" d="M27.37,16c1.13,1.13,1.21,2.38,1.21,4c0,7.25,0.03,37.75,0.03,48.5" transform="matrix(1,0,0,1,96,-4)" class="stroke_order_diagram--current_path"></path><circle cx="27.37" cy="16" r="8" class="stroke_order_diagram--path_start" transform="matrix(1,0,0,1,96,-4)"></circle><line x1="250" x2="250" y1="1" y2="99" class="stroke_order_diagram--guide_line"></line><line x1="299" x2="299" y1="1" y2="99" class="stroke_order_diagram--bounding_box"></line><path id="pathSk2v596cn37c0" kvg:type="㇐" d="M11.75,39.64c1.21,0.61,4.04,0.72,5.36,0.52C23,39.27,32.75,37.5,38,36.5c1.24-0.24,2.62-0.18,3.25,0.01" transform="matrix(1,0,0,1,196,-4)" class="stroke_order_diagram--existing_path"></path><path id="pathSk2v596cn37c1" kvg:type="㇑a" d="M27.37,16c1.13,1.13,1.21,2.38,1.21,4c0,7.25,0.03,37.75,0.03,48.5" transform="matrix(1,0,0,1,196,-4)" class="stroke_order_diagram--existing_path"></path><path id="kvg:057a3-s3" kvg:type="㇀/㇐" d="M11.5,76.29c0.75,0.96,2.25,1.46,4.5,0.21c6.25-3.5,19.5-10.75,25.75-14.25" transform="matrix(1,0,0,1,196,-4)" class="stroke_order_diagram--current_path"></path><path id="pathSk2v596cn37c3" kvg:type="㇀/㇐" d="M11.5,76.29c0.75,0.96,2.25,1.46,4.5,0.21c6.25-3.5,19.5-10.75,25.75-14.25" transform="matrix(1,0,0,1,196,-4)" class="stroke_order_diagram--current_path"></path><circle cx="11.5" cy="76.29" r="8" class="stroke_order_diagram--path_start" transform="matrix(1,0,0,1,196,-4)"></circle><line x1="350" x2="350" y1="1" y2="99" class="stroke_order_diagram--guide_line"></line><line x1="399" x2="399" y1="1" y2="99" class="stroke_order_diagram--bounding_box"></line><path id="pathSk2v596cn37c6" kvg:type="㇐" d="M11.75,39.64c1.21,0.61,4.04,0.72,5.36,0.52C23,39.27,32.75,37.5,38,36.5c1.24-0.24,2.62-0.18,3.25,0.01" transform="matrix(1,0,0,1,296,-4)" class="stroke_order_diagram--existing_path"></path><path id="pathSk2v596cn37c7" kvg:type="㇑a" d="M27.37,16c1.13,1.13,1.21,2.38,1.21,4c0,7.25,0.03,37.75,0.03,48.5" transform="matrix(1,0,0,1,296,-4)" class="stroke_order_diagram--existing_path"></path><path id="pathSk2v596cn37c8" kvg:type="㇀/㇐" d="M11.5,76.29c0.75,0.96,2.25,1.46,4.5,0.21c6.25-3.5,19.5-10.75,25.75-14.25" transform="matrix(1,0,0,1,296,-4)" class="stroke_order_diagram--existing_path"></path><path id="kvg:057a3-s4" kvg:type="㇐" d="M47.13,21.25c1.97,0.98,5.31,0.57,7.38,0.34c8.7-0.97,23.04-3.12,31.74-3.71c2.16-0.15,4.64-0.1,6.73,0.52" transform="matrix(1,0,0,1,296,-4)" class="stroke_order_diagram--current_path"></path><path id="pathSk2v596cn37ca" kvg:type="㇐" d="M47.13,21.25c1.97,0.98,5.31,0.57,7.38,0.34c8.7-0.97,23.04-3.12,31.74-3.71c2.16-0.15,4.64-0.1,6.73,0.52" transform="matrix(1,0,0,1,296,-4)" class="stroke_order_diagram--current_path"></path><circle cx="47.13" cy="21.25" r="8" class="stroke_order_diagram--path_start" transform="matrix(1,0,0,1,296,-4)"></circle><line x1="450" x2="450" y1="1" y2="99" class="stroke_order_diagram--guide_line"></line><line x1="499" x2="499" y1="1" y2="99" class="stroke_order_diagram--bounding_box"></line><path id="pathSk2v596cn37cd" kvg:type="㇐" d="M11.75,39.64c1.21,0.61,4.04,0.72,5.36,0.52C23,39.27,32.75,37.5,38,36.5c1.24-0.24,2.62-0.18,3.25,0.01" transform="matrix(1,0,0,1,396,-4)" class="stroke_order_diagram--existing_path"></path><path id="pathSk2v596cn37ce" kvg:type="㇑a" d="M27.37,16c1.13,1.13,1.21,2.38,1.21,4c0,7.25,0.03,37.75,0.03,48.5" transform="matrix(1,0,0,1,396,-4)" class="stroke_order_diagram--existing_path"></path><path id="pathSk2v596cn37cf" kvg:type="㇀/㇐" d="M11.5,76.29c0.75,0.96,2.25,1.46,4.5,0.21c6.25-3.5,19.5-10.75,25.75-14.25" transform="matrix(1,0,0,1,396,-4)" class="stroke_order_diagram--existing_path"></path><path id="pathSk2v596cn37cg" kvg:type="㇐" d="M47.13,21.25c1.97,0.98,5.31,0.57,7.38,0.34c8.7-0.97,23.04-3.12,31.74-3.71c2.16-0.15,4.64-0.1,6.73,0.52" transform="matrix(1,0,0,1,396,-4)" class="stroke_order_diagram--existing_path"></path><path id="kvg:057a3-s5" kvg:type="㇑" d="M52.28,36.3c1.02,1.02,1.41,2.21,1.41,3.33c0.42,4.3,0.71,21.16,1.13,29.37c0.13,2.53,0.22,4.24,0.26,4.51" transform="matrix(1,0,0,1,396,-4)" class="stroke_order_diagram--current_path"></path><path id="pathSk2v596cn37ci" kvg:type="㇑" d="M52.28,36.3c1.02,1.02,1.41,2.21,1.41,3.33c0.42,4.3,0.71,21.16,1.13,29.37c0.13,2.53,0.22,4.24,0.26,4.51" transform="matrix(1,0,0,1,396,-4)" class="stroke_order_diagram--current_path"></path><circle cx="52.28" cy="36.3" r="8" class="stroke_order_diagram--path_start" transform="matrix(1,0,0,1,396,-4)"></circle><line x1="550" x2="550" y1="1" y2="99" class="stroke_order_diagram--guide_line"></line><line x1="599" x2="599" y1="1" y2="99" class="stroke_order_diagram--bounding_box"></line><path id="pathSk2v596cn37cl" kvg:type="㇐" d="M11.75,39.64c1.21,0.61,4.04,0.72,5.36,0.52C23,39.27,32.75,37.5,38,36.5c1.24-0.24,2.62-0.18,3.25,0.01" transform="matrix(1,0,0,1,496,-4)" class="stroke_order_diagram--existing_path"></path><path id="pathSk2v596cn37cm" kvg:type="㇑a" d="M27.37,16c1.13,1.13,1.21,2.38,1.21,4c0,7.25,0.03,37.75,0.03,48.5" transform="matrix(1,0,0,1,496,-4)" class="stroke_order_diagram--existing_path"></path><path id="pathSk2v596cn37cn" kvg:type="㇀/㇐" d="M11.5,76.29c0.75,0.96,2.25,1.46,4.5,0.21c6.25-3.5,19.5-10.75,25.75-14.25" transform="matrix(1,0,0,1,496,-4)" class="stroke_order_diagram--existing_path"></path><path id="pathSk2v596cn37co" kvg:type="㇐" d="M47.13,21.25c1.97,0.98,5.31,0.57,7.38,0.34c8.7-0.97,23.04-3.12,31.74-3.71c2.16-0.15,4.64-0.1,6.73,0.52" transform="matrix(1,0,0,1,496,-4)" class="stroke_order_diagram--existing_path"></path><path id="pathSk2v596cn37cp" kvg:type="㇑" d="M52.28,36.3c1.02,1.02,1.41,2.21,1.41,3.33c0.42,4.3,0.71,21.16,1.13,29.37c0.13,2.53,0.22,4.24,0.26,4.51" transform="matrix(1,0,0,1,496,-4)" class="stroke_order_diagram--existing_path"></path><path id="kvg:057a3-s6" kvg:type="㇕a" d="M54.89,38.17c3-0.14,24.35-2.74,27.09-2.91c2.28-0.14,3.82,1.18,3.63,3.55c-0.13,3.7-1.21,18.28-2.11,27.7c-0.21,2.19-0.42,4.36-0.63,5.79" transform="matrix(1,0,0,1,496,-4)" class="stroke_order_diagram--current_path"></path><path id="pathSk2v596cn37cr" kvg:type="㇕a" d="M54.89,38.17c3-0.14,24.35-2.74,27.09-2.91c2.28-0.14,3.82,1.18,3.63,3.55c-0.13,3.7-1.21,18.28-2.11,27.7c-0.21,2.19-0.42,4.36-0.63,5.79" transform="matrix(1,0,0,1,496,-4)" class="stroke_order_diagram--current_path"></path><circle cx="54.89" cy="38.17" r="8" class="stroke_order_diagram--path_start" transform="matrix(1,0,0,1,496,-4)"></circle><line x1="650" x2="650" y1="1" y2="99" class="stroke_order_diagram--guide_line"></line><line x1="699" x2="699" y1="1" y2="99" class="stroke_order_diagram--bounding_box"></line><path id="pathSk2v596cn37cu" kvg:type="㇐" d="M11.75,39.64c1.21,0.61,4.04,0.72,5.36,0.52C23,39.27,32.75,37.5,38,36.5c1.24-0.24,2.62-0.18,3.25,0.01" transform="matrix(1,0,0,1,596,-4)" class="stroke_order_diagram--existing_path"></path><path id="pathSk2v596cn37cv" kvg:type="㇑a" d="M27.37,16c1.13,1.13,1.21,2.38,1.21,4c0,7.25,0.03,37.75,0.03,48.5" transform="matrix(1,0,0,1,596,-4)" class="stroke_order_diagram--existing_path"></path><path id="pathSk2v596cn37cw" kvg:type="㇀/㇐" d="M11.5,76.29c0.75,0.96,2.25,1.46,4.5,0.21c6.25-3.5,19.5-10.75,25.75-14.25" transform="matrix(1,0,0,1,596,-4)" class="stroke_order_diagram--existing_path"></path><path id="pathSk2v596cn37cx" kvg:type="㇐" d="M47.13,21.25c1.97,0.98,5.31,0.57,7.38,0.34c8.7-0.97,23.04-3.12,31.74-3.71c2.16-0.15,4.64-0.1,6.73,0.52" transform="matrix(1,0,0,1,596,-4)" class="stroke_order_diagram--existing_path"></path><path id="pathSk2v596cn37cy" kvg:type="㇑" d="M52.28,36.3c1.02,1.02,1.41,2.21,1.41,3.33c0.42,4.3,0.71,21.16,1.13,29.37c0.13,2.53,0.22,4.24,0.26,4.51" transform="matrix(1,0,0,1,596,-4)" class="stroke_order_diagram--existing_path"></path><path id="pathSk2v596cn37cz" kvg:type="㇕a" d="M54.89,38.17c3-0.14,24.35-2.74,27.09-2.91c2.28-0.14,3.82,1.18,3.63,3.55c-0.13,3.7-1.21,18.28-2.11,27.7c-0.21,2.19-0.42,4.36-0.63,5.79" transform="matrix(1,0,0,1,596,-4)" class="stroke_order_diagram--existing_path"></path><path id="kvg:057a3-s7" kvg:type="㇐a" d="M55.2,53.62C59.88,53.25,79.58,51,83.44,51" transform="matrix(1,0,0,1,596,-4)" class="stroke_order_diagram--current_path"></path><path id="pathSk2v596cn37d1" kvg:type="㇐a" d="M55.2,53.62C59.88,53.25,79.58,51,83.44,51" transform="matrix(1,0,0,1,596,-4)" class="stroke_order_diagram--current_path"></path><circle cx="55.2" cy="53.62" r="8" class="stroke_order_diagram--path_start" transform="matrix(1,0,0,1,596,-4)"></circle><line x1="750" x2="750" y1="1" y2="99" class="stroke_order_diagram--guide_line"></line><line x1="799" x2="799" y1="1" y2="99" class="stroke_order_diagram--bounding_box"></line><path id="pathSk2v596cn37d4" kvg:type="㇐" d="M11.75,39.64c1.21,0.61,4.04,0.72,5.36,0.52C23,39.27,32.75,37.5,38,36.5c1.24-0.24,2.62-0.18,3.25,0.01" transform="matrix(1,0,0,1,696,-4)" class="stroke_order_diagram--existing_path"></path><path id="pathSk2v596cn37d5" kvg:type="㇑a" d="M27.37,16c1.13,1.13,1.21,2.38,1.21,4c0,7.25,0.03,37.75,0.03,48.5" transform="matrix(1,0,0,1,696,-4)" class="stroke_order_diagram--existing_path"></path><path id="pathSk2v596cn37d6" kvg:type="㇀/㇐" d="M11.5,76.29c0.75,0.96,2.25,1.46,4.5,0.21c6.25-3.5,19.5-10.75,25.75-14.25" transform="matrix(1,0,0,1,696,-4)" class="stroke_order_diagram--existing_path"></path><path id="pathSk2v596cn37d7" kvg:type="㇐" d="M47.13,21.25c1.97,0.98,5.31,0.57,7.38,0.34c8.7-0.97,23.04-3.12,31.74-3.71c2.16-0.15,4.64-0.1,6.73,0.52" transform="matrix(1,0,0,1,696,-4)" class="stroke_order_diagram--existing_path"></path><path id="pathSk2v596cn37d8" kvg:type="㇑" d="M52.28,36.3c1.02,1.02,1.41,2.21,1.41,3.33c0.42,4.3,0.71,21.16,1.13,29.37c0.13,2.53,0.22,4.24,0.26,4.51" transform="matrix(1,0,0,1,696,-4)" class="stroke_order_diagram--existing_path"></path><path id="pathSk2v596cn37d9" kvg:type="㇕a" d="M54.89,38.17c3-0.14,24.35-2.74,27.09-2.91c2.28-0.14,3.82,1.18,3.63,3.55c-0.13,3.7-1.21,18.28-2.11,27.7c-0.21,2.19-0.42,4.36-0.63,5.79" transform="matrix(1,0,0,1,696,-4)" class="stroke_order_diagram--existing_path"></path><path id="pathSk2v596cn37da" kvg:type="㇐a" d="M55.2,53.62C59.88,53.25,79.58,51,83.44,51" transform="matrix(1,0,0,1,696,-4)" class="stroke_order_diagram--existing_path"></path><path id="kvg:057a3-s8" kvg:type="㇐a" d="M56.07,70.78c8.18-0.78,18.3-1.91,26.34-2.32" transform="matrix(1,0,0,1,696,-4)" class="stroke_order_diagram--current_path"></path><path id="pathSk2v596cn37dc" kvg:type="㇐a" d="M56.07,70.78c8.18-0.78,18.3-1.91,26.34-2.32" transform="matrix(1,0,0,1,696,-4)" class="stroke_order_diagram--current_path"></path><circle cx="56.07" cy="70.78" r="8" class="stroke_order_diagram--path_start" transform="matrix(1,0,0,1,696,-4)"></circle><line x1="850" x2="850" y1="1" y2="99" class="stroke_order_diagram--guide_line"></line><line x1="899" x2="899" y1="1" y2="99" class="stroke_order_diagram--bounding_box"></line><path id="pathSk2v596cn37df" kvg:type="㇐" d="M11.75,39.64c1.21,0.61,4.04,0.72,5.36,0.52C23,39.27,32.75,37.5,38,36.5c1.24-0.24,2.62-0.18,3.25,0.01" transform="matrix(1,0,0,1,796,-4)" class="stroke_order_diagram--existing_path"></path><path id="pathSk2v596cn37dg" kvg:type="㇑a" d="M27.37,16c1.13,1.13,1.21,2.38,1.21,4c0,7.25,0.03,37.75,0.03,48.5" transform="matrix(1,0,0,1,796,-4)" class="stroke_order_diagram--existing_path"></path><path id="pathSk2v596cn37dh" kvg:type="㇀/㇐" d="M11.5,76.29c0.75,0.96,2.25,1.46,4.5,0.21c6.25-3.5,19.5-10.75,25.75-14.25" transform="matrix(1,0,0,1,796,-4)" class="stroke_order_diagram--existing_path"></path><path id="pathSk2v596cn37di" kvg:type="㇐" d="M47.13,21.25c1.97,0.98,5.31,0.57,7.38,0.34c8.7-0.97,23.04-3.12,31.74-3.71c2.16-0.15,4.64-0.1,6.73,0.52" transform="matrix(1,0,0,1,796,-4)" class="stroke_order_diagram--existing_path"></path><path id="pathSk2v596cn37dj" kvg:type="㇑" d="M52.28,36.3c1.02,1.02,1.41,2.21,1.41,3.33c0.42,4.3,0.71,21.16,1.13,29.37c0.13,2.53,0.22,4.24,0.26,4.51" transform="matrix(1,0,0,1,796,-4)" class="stroke_order_diagram--existing_path"></path><path id="pathSk2v596cn37dk" kvg:type="㇕a" d="M54.89,38.17c3-0.14,24.35-2.74,27.09-2.91c2.28-0.14,3.82,1.18,3.63,3.55c-0.13,3.7-1.21,18.28-2.11,27.7c-0.21,2.19-0.42,4.36-0.63,5.79" transform="matrix(1,0,0,1,796,-4)" class="stroke_order_diagram--existing_path"></path><path id="pathSk2v596cn37dl" kvg:type="㇐a" d="M55.2,53.62C59.88,53.25,79.58,51,83.44,51" transform="matrix(1,0,0,1,796,-4)" class="stroke_order_diagram--existing_path"></path><path id="pathSk2v596cn37dm" kvg:type="㇐a" d="M56.07,70.78c8.18-0.78,18.3-1.91,26.34-2.32" transform="matrix(1,0,0,1,796,-4)" class="stroke_order_diagram--existing_path"></path><path id="kvg:057a3-s9" kvg:type="㇐" d="M37.5,90.75c2.45,1.03,5.84,1.15,8.37,0.82c14-1.82,32.1-3.24,44.12-3.73c2.59-0.11,5.22,0.26,7.75,0.91" transform="matrix(1,0,0,1,796,-4)" class="stroke_order_diagram--current_path"></path><path id="pathSk2v596cn37do" kvg:type="㇐" d="M37.5,90.75c2.45,1.03,5.84,1.15,8.37,0.82c14-1.82,32.1-3.24,44.12-3.73c2.59-0.11,5.22,0.26,7.75,0.91" transform="matrix(1,0,0,1,796,-4)" class="stroke_order_diagram--current_path"></path><circle cx="37.5" cy="90.75" r="8" class="stroke_order_diagram--path_start" transform="matrix(1,0,0,1,796,-4)"></circle></svg>