<svg style="width: 400px; height: 100px;" viewbox="0 0 400 100"><style>
.stroke_order_diagram--outer_container {
  width: 100%;
  overflow-x: auto;
  overflow-y: hidden;
}

.stroke_order_diagram--guide_line {
  fill: none;
  stroke: #ddd;
  stroke-width: 3;
  stroke-linecap: square;
  stroke-linejoin: square;
  stroke-dasharray:8, 8;
}

.stroke_order_diagram--bounding_box {
  fill: none;
  stroke: #ddd;
  stroke-width: 4;
  stroke-linecap: square;
  stroke-linejoin: square;
}

.stroke_order_diagram--current_path {
  fill: none;
  stroke: #000;
  stroke-width: 6;
  stroke-linecap: round;
  stroke-linejoin: round;
}

.stroke_order_diagram--existing_path {
  fill: none;
  stroke: #aaa;
  stroke-width: 6;
  stroke-linecap: round;
  stroke-linejoin:round;
}

.stroke_order_diagram--path_start {
  fill: rgba(255, 0, 0, 0.7);
  stroke:none
}</style><desc>Created with Snap</desc><defs></defs><line x1="1" x2="399" y1="1" y2="1" class="stroke_order_diagram--bounding_box"></line><line x1="1" x2="1" y1="1" y2="99" class="stroke_order_diagram--bounding_box"></line><line x1="1" x2="399" y1="99" y2="99" class="stroke_order_diagram--bounding_box"></line><line x1="0" x2="400" y1="50" y2="50" class="stroke_order_diagram--guide_line"></line><line x1="50" x2="50" y1="1" y2="99" class="stroke_order_diagram--guide_line"></line><line x1="99" x2="99" y1="1" y2="99" class="stroke_order_diagram--bounding_box"></line><path id="kvg:0592b-s1" kvg:type="㇐" d="M30,36.14c2.37,0.43,4.64,0.49,7.02,0.21c9.48-1.1,25.86-2.98,35.11-3.65c2.19-0.16,4.47-0.22,6.62,0.31" transform="matrix(1,0,0,1,-4,-4)" class="stroke_order_diagram--current_path"></path><path id="pathSk2v596cnvoz" kvg:type="㇐" d="M30,36.14c2.37,0.43,4.64,0.49,7.02,0.21c9.48-1.1,25.86-2.98,35.11-3.65c2.19-0.16,4.47-0.22,6.62,0.31" transform="matrix(1,0,0,1,-4,-4)" class="stroke_order_diagram--current_path"></path><circle cx="30" cy="36.14" r="8" class="stroke_order_diagram--path_start" transform="matrix(1,0,0,1,-4,-4)"></circle><line x1="150" x2="150" y1="1" y2="99" class="stroke_order_diagram--guide_line"></line><line x1="199" x2="199" y1="1" y2="99" class="stroke_order_diagram--bounding_box"></line><path id="pathSk2v596cnvp2" kvg:type="㇐" d="M30,36.14c2.37,0.43,4.64,0.49,7.02,0.21c9.48-1.1,25.86-2.98,35.11-3.65c2.19-0.16,4.47-0.22,6.62,0.31" transform="matrix(1,0,0,1,96,-4)" class="stroke_order_diagram--existing_path"></path><path id="kvg:0592b-s2" kvg:type="㇐" d="M20.25,57.63c2.82,0.69,5.67,0.58,8.51,0.27c13.72-1.51,40.82-3.55,52.12-4.27c2.2-0.14,5.38,0,7.38,0.4" transform="matrix(1,0,0,1,96,-4)" class="stroke_order_diagram--current_path"></path><path id="pathSk2v596cnvp4" kvg:type="㇐" d="M20.25,57.63c2.82,0.69,5.67,0.58,8.51,0.27c13.72-1.51,40.82-3.55,52.12-4.27c2.2-0.14,5.38,0,7.38,0.4" transform="matrix(1,0,0,1,96,-4)" class="stroke_order_diagram--current_path"></path><circle cx="20.25" cy="57.63" r="8" class="stroke_order_diagram--path_start" transform="matrix(1,0,0,1,96,-4)"></circle><line x1="250" x2="250" y1="1" y2="99" class="stroke_order_diagram--guide_line"></line><line x1="299" x2="299" y1="1" y2="99" class="stroke_order_diagram--bounding_box"></line><path id="pathSk2v596cnvp7" kvg:type="㇐" d="M30,36.14c2.37,0.43,4.64,0.49,7.02,0.21c9.48-1.1,25.86-2.98,35.11-3.65c2.19-0.16,4.47-0.22,6.62,0.31" transform="matrix(1,0,0,1,196,-4)" class="stroke_order_diagram--existing_path"></path><path id="pathSk2v596cnvp8" kvg:type="㇐" d="M20.25,57.63c2.82,0.69,5.67,0.58,8.51,0.27c13.72-1.51,40.82-3.55,52.12-4.27c2.2-0.14,5.38,0,7.38,0.4" transform="matrix(1,0,0,1,196,-4)" class="stroke_order_diagram--existing_path"></path><path id="kvg:0592b-s3" kvg:type="㇒" d="M52.87,14.25c0.63,1.25,1.08,2.92,1.12,5.33c0.76,42.17-9.24,62.04-36.49,76.92" transform="matrix(1,0,0,1,196,-4)" class="stroke_order_diagram--current_path"></path><path id="pathSk2v596cnvpa" kvg:type="㇒" d="M52.87,14.25c0.63,1.25,1.08,2.92,1.12,5.33c0.76,42.17-9.24,62.04-36.49,76.92" transform="matrix(1,0,0,1,196,-4)" class="stroke_order_diagram--current_path"></path><circle cx="52.87" cy="14.25" r="8" class="stroke_order_diagram--path_start" transform="matrix(1,0,0,1,196,-4)"></circle><line x1="350" x2="350" y1="1" y2="99" class="stroke_order_diagram--guide_line"></line><line x1="399" x2="399" y1="1" y2="99" class="stroke_order_diagram--bounding_box"></line><path id="pathSk2v596cnvpd" kvg:type="㇐" d="M30,36.14c2.37,0.43,4.64,0.49,7.02,0.21c9.48-1.1,25.86-2.98,35.11-3.65c2.19-0.16,4.47-0.22,6.62,0.31" transform="matrix(1,0,0,1,296,-4)" class="stroke_order_diagram--existing_path"></path><path id="pathSk2v596cnvpe" kvg:type="㇐" d="M20.25,57.63c2.82,0.69,5.67,0.58,8.51,0.27c13.72-1.51,40.82-3.55,52.12-4.27c2.2-0.14,5.38,0,7.38,0.4" transform="matrix(1,0,0,1,296,-4)" class="stroke_order_diagram--existing_path"></path><path id="pathSk2v596cnvpf" kvg:type="㇒" d="M52.87,14.25c0.63,1.25,1.08,2.92,1.12,5.33c0.76,42.17-9.24,62.04-36.49,76.92" transform="matrix(1,0,0,1,296,-4)" class="stroke_order_diagram--existing_path"></path><path id="kvg:0592b-s4" kvg:type="㇏" d="M54,55.75c9.63,11.28,26.53,29.19,37.32,36.08c3.11,1.99,3.87,2.69,5.18,2.92" transform="matrix(1,0,0,1,296,-4)" class="stroke_order_diagram--current_path"></path><path id="pathSk2v596cnvph" kvg:type="㇏" d="M54,55.75c9.63,11.28,26.53,29.19,37.32,36.08c3.11,1.99,3.87,2.69,5.18,2.92" transform="matrix(1,0,0,1,296,-4)" class="stroke_order_diagram--current_path"></path><circle cx="54" cy="55.75" r="8" class="stroke_order_diagram--path_start" transform="matrix(1,0,0,1,296,-4)"></circle></svg>