<svg style="width: 800px; height: 100px;" viewbox="0 0 800 100"><style>
.stroke_order_diagram--outer_container {
  width: 100%;
  overflow-x: auto;
  overflow-y: hidden;
}

.stroke_order_diagram--guide_line {
  fill: none;
  stroke: #ddd;
  stroke-width: 3;
  stroke-linecap: square;
  stroke-linejoin: square;
  stroke-dasharray:8, 8;
}

.stroke_order_diagram--bounding_box {
  fill: none;
  stroke: #ddd;
  stroke-width: 4;
  stroke-linecap: square;
  stroke-linejoin: square;
}

.stroke_order_diagram--current_path {
  fill: none;
  stroke: #000;
  stroke-width: 6;
  stroke-linecap: round;
  stroke-linejoin: round;
}

.stroke_order_diagram--existing_path {
  fill: none;
  stroke: #aaa;
  stroke-width: 6;
  stroke-linecap: round;
  stroke-linejoin:round;
}

.stroke_order_diagram--path_start {
  fill: rgba(255, 0, 0, 0.7);
  stroke:none
}</style><desc>Created with Snap</desc><defs></defs><line x1="1" x2="799" y1="1" y2="1" class="stroke_order_diagram--bounding_box"></line><line x1="1" x2="1" y1="1" y2="99" class="stroke_order_diagram--bounding_box"></line><line x1="1" x2="799" y1="99" y2="99" class="stroke_order_diagram--bounding_box"></line><line x1="0" x2="800" y1="50" y2="50" class="stroke_order_diagram--guide_line"></line><line x1="50" x2="50" y1="1" y2="99" class="stroke_order_diagram--guide_line"></line><line x1="99" x2="99" y1="1" y2="99" class="stroke_order_diagram--bounding_box"></line><path id="kvg:05948-s1" kvg:type="㇐" d="M24.62,28.74c3.88,1.01,7.42,0.92,10.65,0.4c12.47-2.01,26.02-3.4,37.11-4.45c3.52-0.33,7.12-0.76,10.61,0.01" transform="matrix(1,0,0,1,-4,-4)" class="stroke_order_diagram--current_path"></path><path id="pathSk2v596cn2l8i" kvg:type="㇐" d="M24.62,28.74c3.88,1.01,7.42,0.92,10.65,0.4c12.47-2.01,26.02-3.4,37.11-4.45c3.52-0.33,7.12-0.76,10.61,0.01" transform="matrix(1,0,0,1,-4,-4)" class="stroke_order_diagram--current_path"></path><circle cx="24.62" cy="28.74" r="8" class="stroke_order_diagram--path_start" transform="matrix(1,0,0,1,-4,-4)"></circle><line x1="150" x2="150" y1="1" y2="99" class="stroke_order_diagram--guide_line"></line><line x1="199" x2="199" y1="1" y2="99" class="stroke_order_diagram--bounding_box"></line><path id="pathSk2v596cn2l8l" kvg:type="㇐" d="M24.62,28.74c3.88,1.01,7.42,0.92,10.65,0.4c12.47-2.01,26.02-3.4,37.11-4.45c3.52-0.33,7.12-0.76,10.61,0.01" transform="matrix(1,0,0,1,96,-4)" class="stroke_order_diagram--existing_path"></path><path id="kvg:05948-s2" kvg:type="㇒" d="M54.05,10.75c0.45,1.25,0.37,2.59-0.06,4.06C47.25,38,35,54.75,13.75,62.25" transform="matrix(1,0,0,1,96,-4)" class="stroke_order_diagram--current_path"></path><path id="pathSk2v596cn2l8n" kvg:type="㇒" d="M54.05,10.75c0.45,1.25,0.37,2.59-0.06,4.06C47.25,38,35,54.75,13.75,62.25" transform="matrix(1,0,0,1,96,-4)" class="stroke_order_diagram--current_path"></path><circle cx="54.05" cy="10.75" r="8" class="stroke_order_diagram--path_start" transform="matrix(1,0,0,1,96,-4)"></circle><line x1="250" x2="250" y1="1" y2="99" class="stroke_order_diagram--guide_line"></line><line x1="299" x2="299" y1="1" y2="99" class="stroke_order_diagram--bounding_box"></line><path id="pathSk2v596cn2l8q" kvg:type="㇐" d="M24.62,28.74c3.88,1.01,7.42,0.92,10.65,0.4c12.47-2.01,26.02-3.4,37.11-4.45c3.52-0.33,7.12-0.76,10.61,0.01" transform="matrix(1,0,0,1,196,-4)" class="stroke_order_diagram--existing_path"></path><path id="pathSk2v596cn2l8r" kvg:type="㇒" d="M54.05,10.75c0.45,1.25,0.37,2.59-0.06,4.06C47.25,38,35,54.75,13.75,62.25" transform="matrix(1,0,0,1,196,-4)" class="stroke_order_diagram--existing_path"></path><path id="kvg:05948-s3" kvg:type="㇏" d="M54.12,28c7.77,6.85,20.63,18.52,29.66,24.95c3.05,2.18,6.59,4.05,10.46,5.3" transform="matrix(1,0,0,1,196,-4)" class="stroke_order_diagram--current_path"></path><path id="pathSk2v596cn2l8t" kvg:type="㇏" d="M54.12,28c7.77,6.85,20.63,18.52,29.66,24.95c3.05,2.18,6.59,4.05,10.46,5.3" transform="matrix(1,0,0,1,196,-4)" class="stroke_order_diagram--current_path"></path><circle cx="54.12" cy="28" r="8" class="stroke_order_diagram--path_start" transform="matrix(1,0,0,1,196,-4)"></circle><line x1="350" x2="350" y1="1" y2="99" class="stroke_order_diagram--guide_line"></line><line x1="399" x2="399" y1="1" y2="99" class="stroke_order_diagram--bounding_box"></line><path id="pathSk2v596cn2l8w" kvg:type="㇐" d="M24.62,28.74c3.88,1.01,7.42,0.92,10.65,0.4c12.47-2.01,26.02-3.4,37.11-4.45c3.52-0.33,7.12-0.76,10.61,0.01" transform="matrix(1,0,0,1,296,-4)" class="stroke_order_diagram--existing_path"></path><path id="pathSk2v596cn2l8x" kvg:type="㇒" d="M54.05,10.75c0.45,1.25,0.37,2.59-0.06,4.06C47.25,38,35,54.75,13.75,62.25" transform="matrix(1,0,0,1,296,-4)" class="stroke_order_diagram--existing_path"></path><path id="pathSk2v596cn2l8y" kvg:type="㇏" d="M54.12,28c7.77,6.85,20.63,18.52,29.66,24.95c3.05,2.18,6.59,4.05,10.46,5.3" transform="matrix(1,0,0,1,296,-4)" class="stroke_order_diagram--existing_path"></path><path id="kvg:05948-s4" kvg:type="㇐" d="M40.89,54.08c1.65,0.67,3.93,0.26,5.63,0.06c4.47-0.52,10.15-1.48,14.49-1.75c1.68-0.11,3.53-0.13,5.18,0.27" transform="matrix(1,0,0,1,296,-4)" class="stroke_order_diagram--current_path"></path><path id="pathSk2v596cn2l90" kvg:type="㇐" d="M40.89,54.08c1.65,0.67,3.93,0.26,5.63,0.06c4.47-0.52,10.15-1.48,14.49-1.75c1.68-0.11,3.53-0.13,5.18,0.27" transform="matrix(1,0,0,1,296,-4)" class="stroke_order_diagram--current_path"></path><circle cx="40.89" cy="54.08" r="8" class="stroke_order_diagram--path_start" transform="matrix(1,0,0,1,296,-4)"></circle><line x1="450" x2="450" y1="1" y2="99" class="stroke_order_diagram--guide_line"></line><line x1="499" x2="499" y1="1" y2="99" class="stroke_order_diagram--bounding_box"></line><path id="pathSk2v596cn2l93" kvg:type="㇐" d="M24.62,28.74c3.88,1.01,7.42,0.92,10.65,0.4c12.47-2.01,26.02-3.4,37.11-4.45c3.52-0.33,7.12-0.76,10.61,0.01" transform="matrix(1,0,0,1,396,-4)" class="stroke_order_diagram--existing_path"></path><path id="pathSk2v596cn2l94" kvg:type="㇒" d="M54.05,10.75c0.45,1.25,0.37,2.59-0.06,4.06C47.25,38,35,54.75,13.75,62.25" transform="matrix(1,0,0,1,396,-4)" class="stroke_order_diagram--existing_path"></path><path id="pathSk2v596cn2l95" kvg:type="㇏" d="M54.12,28c7.77,6.85,20.63,18.52,29.66,24.95c3.05,2.18,6.59,4.05,10.46,5.3" transform="matrix(1,0,0,1,396,-4)" class="stroke_order_diagram--existing_path"></path><path id="pathSk2v596cn2l96" kvg:type="㇐" d="M40.89,54.08c1.65,0.67,3.93,0.26,5.63,0.06c4.47-0.52,10.15-1.48,14.49-1.75c1.68-0.11,3.53-0.13,5.18,0.27" transform="matrix(1,0,0,1,396,-4)" class="stroke_order_diagram--existing_path"></path><path id="kvg:05948-s5" kvg:type="㇐" d="M24.34,69.57c2.86,1.02,7.19,0.52,10.16,0.17c9.74-1.16,28.21-3.04,39.88-3.32c3.19-0.08,6.59-0.23,9.73,0.44" transform="matrix(1,0,0,1,396,-4)" class="stroke_order_diagram--current_path"></path><path id="pathSk2v596cn2l98" kvg:type="㇐" d="M24.34,69.57c2.86,1.02,7.19,0.52,10.16,0.17c9.74-1.16,28.21-3.04,39.88-3.32c3.19-0.08,6.59-0.23,9.73,0.44" transform="matrix(1,0,0,1,396,-4)" class="stroke_order_diagram--current_path"></path><circle cx="24.34" cy="69.57" r="8" class="stroke_order_diagram--path_start" transform="matrix(1,0,0,1,396,-4)"></circle><line x1="550" x2="550" y1="1" y2="99" class="stroke_order_diagram--guide_line"></line><line x1="599" x2="599" y1="1" y2="99" class="stroke_order_diagram--bounding_box"></line><path id="pathSk2v596cn2l9b" kvg:type="㇐" d="M24.62,28.74c3.88,1.01,7.42,0.92,10.65,0.4c12.47-2.01,26.02-3.4,37.11-4.45c3.52-0.33,7.12-0.76,10.61,0.01" transform="matrix(1,0,0,1,496,-4)" class="stroke_order_diagram--existing_path"></path><path id="pathSk2v596cn2l9c" kvg:type="㇒" d="M54.05,10.75c0.45,1.25,0.37,2.59-0.06,4.06C47.25,38,35,54.75,13.75,62.25" transform="matrix(1,0,0,1,496,-4)" class="stroke_order_diagram--existing_path"></path><path id="pathSk2v596cn2l9d" kvg:type="㇏" d="M54.12,28c7.77,6.85,20.63,18.52,29.66,24.95c3.05,2.18,6.59,4.05,10.46,5.3" transform="matrix(1,0,0,1,496,-4)" class="stroke_order_diagram--existing_path"></path><path id="pathSk2v596cn2l9e" kvg:type="㇐" d="M40.89,54.08c1.65,0.67,3.93,0.26,5.63,0.06c4.47-0.52,10.15-1.48,14.49-1.75c1.68-0.11,3.53-0.13,5.18,0.27" transform="matrix(1,0,0,1,496,-4)" class="stroke_order_diagram--existing_path"></path><path id="pathSk2v596cn2l9f" kvg:type="㇐" d="M24.34,69.57c2.86,1.02,7.19,0.52,10.16,0.17c9.74-1.16,28.21-3.04,39.88-3.32c3.19-0.08,6.59-0.23,9.73,0.44" transform="matrix(1,0,0,1,496,-4)" class="stroke_order_diagram--existing_path"></path><path id="kvg:05948-s6" kvg:type="㇑" d="M54.09,70.55c0.86,0.87,1.31,2.07,1.31,3.89c0,12.24,0.04,16.3,0.04,20.47c0,8.86-3.8,3.18-7.32,0.21" transform="matrix(1,0,0,1,496,-4)" class="stroke_order_diagram--current_path"></path><path id="pathSk2v596cn2l9h" kvg:type="㇑" d="M54.09,70.55c0.86,0.87,1.31,2.07,1.31,3.89c0,12.24,0.04,16.3,0.04,20.47c0,8.86-3.8,3.18-7.32,0.21" transform="matrix(1,0,0,1,496,-4)" class="stroke_order_diagram--current_path"></path><circle cx="54.09" cy="70.55" r="8" class="stroke_order_diagram--path_start" transform="matrix(1,0,0,1,496,-4)"></circle><line x1="650" x2="650" y1="1" y2="99" class="stroke_order_diagram--guide_line"></line><line x1="699" x2="699" y1="1" y2="99" class="stroke_order_diagram--bounding_box"></line><path id="pathSk2v596cn2l9k" kvg:type="㇐" d="M24.62,28.74c3.88,1.01,7.42,0.92,10.65,0.4c12.47-2.01,26.02-3.4,37.11-4.45c3.52-0.33,7.12-0.76,10.61,0.01" transform="matrix(1,0,0,1,596,-4)" class="stroke_order_diagram--existing_path"></path><path id="pathSk2v596cn2l9l" kvg:type="㇒" d="M54.05,10.75c0.45,1.25,0.37,2.59-0.06,4.06C47.25,38,35,54.75,13.75,62.25" transform="matrix(1,0,0,1,596,-4)" class="stroke_order_diagram--existing_path"></path><path id="pathSk2v596cn2l9m" kvg:type="㇏" d="M54.12,28c7.77,6.85,20.63,18.52,29.66,24.95c3.05,2.18,6.59,4.05,10.46,5.3" transform="matrix(1,0,0,1,596,-4)" class="stroke_order_diagram--existing_path"></path><path id="pathSk2v596cn2l9n" kvg:type="㇐" d="M40.89,54.08c1.65,0.67,3.93,0.26,5.63,0.06c4.47-0.52,10.15-1.48,14.49-1.75c1.68-0.11,3.53-0.13,5.18,0.27" transform="matrix(1,0,0,1,596,-4)" class="stroke_order_diagram--existing_path"></path><path id="pathSk2v596cn2l9o" kvg:type="㇐" d="M24.34,69.57c2.86,1.02,7.19,0.52,10.16,0.17c9.74-1.16,28.21-3.04,39.88-3.32c3.19-0.08,6.59-0.23,9.73,0.44" transform="matrix(1,0,0,1,596,-4)" class="stroke_order_diagram--existing_path"></path><path id="pathSk2v596cn2l9p" kvg:type="㇑" d="M54.09,70.55c0.86,0.87,1.31,2.07,1.31,3.89c0,12.24,0.04,16.3,0.04,20.47c0,8.86-3.8,3.18-7.32,0.21" transform="matrix(1,0,0,1,596,-4)" class="stroke_order_diagram--existing_path"></path><path id="kvg:05948-s7" kvg:type="㇒" d="M35.59,80.81c0.14,1.12-0.15,2.12-0.86,3.01C32.53,87.11,27,91,20.25,95.57" transform="matrix(1,0,0,1,596,-4)" class="stroke_order_diagram--current_path"></path><path id="pathSk2v596cn2l9r" kvg:type="㇒" d="M35.59,80.81c0.14,1.12-0.15,2.12-0.86,3.01C32.53,87.11,27,91,20.25,95.57" transform="matrix(1,0,0,1,596,-4)" class="stroke_order_diagram--current_path"></path><circle cx="35.59" cy="80.81" r="8" class="stroke_order_diagram--path_start" transform="matrix(1,0,0,1,596,-4)"></circle><line x1="750" x2="750" y1="1" y2="99" class="stroke_order_diagram--guide_line"></line><line x1="799" x2="799" y1="1" y2="99" class="stroke_order_diagram--bounding_box"></line><path id="pathSk2v596cn2l9u" kvg:type="㇐" d="M24.62,28.74c3.88,1.01,7.42,0.92,10.65,0.4c12.47-2.01,26.02-3.4,37.11-4.45c3.52-0.33,7.12-0.76,10.61,0.01" transform="matrix(1,0,0,1,696,-4)" class="stroke_order_diagram--existing_path"></path><path id="pathSk2v596cn2l9v" kvg:type="㇒" d="M54.05,10.75c0.45,1.25,0.37,2.59-0.06,4.06C47.25,38,35,54.75,13.75,62.25" transform="matrix(1,0,0,1,696,-4)" class="stroke_order_diagram--existing_path"></path><path id="pathSk2v596cn2l9w" kvg:type="㇏" d="M54.12,28c7.77,6.85,20.63,18.52,29.66,24.95c3.05,2.18,6.59,4.05,10.46,5.3" transform="matrix(1,0,0,1,696,-4)" class="stroke_order_diagram--existing_path"></path><path id="pathSk2v596cn2l9x" kvg:type="㇐" d="M40.89,54.08c1.65,0.67,3.93,0.26,5.63,0.06c4.47-0.52,10.15-1.48,14.49-1.75c1.68-0.11,3.53-0.13,5.18,0.27" transform="matrix(1,0,0,1,696,-4)" class="stroke_order_diagram--existing_path"></path><path id="pathSk2v596cn2l9y" kvg:type="㇐" d="M24.34,69.57c2.86,1.02,7.19,0.52,10.16,0.17c9.74-1.16,28.21-3.04,39.88-3.32c3.19-0.08,6.59-0.23,9.73,0.44" transform="matrix(1,0,0,1,696,-4)" class="stroke_order_diagram--existing_path"></path><path id="pathSk2v596cn2l9z" kvg:type="㇑" d="M54.09,70.55c0.86,0.87,1.31,2.07,1.31,3.89c0,12.24,0.04,16.3,0.04,20.47c0,8.86-3.8,3.18-7.32,0.21" transform="matrix(1,0,0,1,696,-4)" class="stroke_order_diagram--existing_path"></path><path id="pathSk2v596cn2la0" kvg:type="㇒" d="M35.59,80.81c0.14,1.12-0.15,2.12-0.86,3.01C32.53,87.11,27,91,20.25,95.57" transform="matrix(1,0,0,1,696,-4)" class="stroke_order_diagram--existing_path"></path><path id="kvg:05948-s8" kvg:type="㇔" d="M70.66,78.49C76.25,82.12,83.62,89.12,85.5,94" transform="matrix(1,0,0,1,696,-4)" class="stroke_order_diagram--current_path"></path><path id="pathSk2v596cn2la2" kvg:type="㇔" d="M70.66,78.49C76.25,82.12,83.62,89.12,85.5,94" transform="matrix(1,0,0,1,696,-4)" class="stroke_order_diagram--current_path"></path><circle cx="70.66" cy="78.49" r="8" class="stroke_order_diagram--path_start" transform="matrix(1,0,0,1,696,-4)"></circle></svg>