<svg style="width: 600px; height: 100px;" viewbox="0 0 600 100"><style>
.stroke_order_diagram--outer_container {
  width: 100%;
  overflow-x: auto;
  overflow-y: hidden;
}

.stroke_order_diagram--guide_line {
  fill: none;
  stroke: #ddd;
  stroke-width: 3;
  stroke-linecap: square;
  stroke-linejoin: square;
  stroke-dasharray:8, 8;
}

.stroke_order_diagram--bounding_box {
  fill: none;
  stroke: #ddd;
  stroke-width: 4;
  stroke-linecap: square;
  stroke-linejoin: square;
}

.stroke_order_diagram--current_path {
  fill: none;
  stroke: #000;
  stroke-width: 6;
  stroke-linecap: round;
  stroke-linejoin: round;
}

.stroke_order_diagram--existing_path {
  fill: none;
  stroke: #aaa;
  stroke-width: 6;
  stroke-linecap: round;
  stroke-linejoin:round;
}

.stroke_order_diagram--path_start {
  fill: rgba(255, 0, 0, 0.7);
  stroke:none
}</style><desc>Created with Snap</desc><defs></defs><line x1="1" x2="599" y1="1" y2="1" class="stroke_order_diagram--bounding_box"></line><line x1="1" x2="1" y1="1" y2="99" class="stroke_order_diagram--bounding_box"></line><line x1="1" x2="599" y1="99" y2="99" class="stroke_order_diagram--bounding_box"></line><line x1="0" x2="600" y1="50" y2="50" class="stroke_order_diagram--guide_line"></line><line x1="50" x2="50" y1="1" y2="99" class="stroke_order_diagram--guide_line"></line><line x1="99" x2="99" y1="1" y2="99" class="stroke_order_diagram--bounding_box"></line><path id="kvg:0597d-s1" kvg:type="㇛" d="M29.33,14.12c0.79,1.38,1.04,3.35,0.85,5.06c-0.94,8.36-4.83,32.78-8.96,42.56c-0.85,2.01,0.39,2.79,0.85,2.97c5.7,2.28,11.04,5.41,15.17,9.43c2.52,2.46,4.59,5.26,6.02,8.4" transform="matrix(1,0,0,1,-4,-4)" class="stroke_order_diagram--current_path"></path><path id="pathSk2v596cnjlk" kvg:type="㇛" d="M29.33,14.12c0.79,1.38,1.04,3.35,0.85,5.06c-0.94,8.36-4.83,32.78-8.96,42.56c-0.85,2.01,0.39,2.79,0.85,2.97c5.7,2.28,11.04,5.41,15.17,9.43c2.52,2.46,4.59,5.26,6.02,8.4" transform="matrix(1,0,0,1,-4,-4)" class="stroke_order_diagram--current_path"></path><circle cx="29.33" cy="14.12" r="8" class="stroke_order_diagram--path_start" transform="matrix(1,0,0,1,-4,-4)"></circle><line x1="150" x2="150" y1="1" y2="99" class="stroke_order_diagram--guide_line"></line><line x1="199" x2="199" y1="1" y2="99" class="stroke_order_diagram--bounding_box"></line><path id="pathSk2v596cnjln" kvg:type="㇛" d="M29.33,14.12c0.79,1.38,1.04,3.35,0.85,5.06c-0.94,8.36-4.83,32.78-8.96,42.56c-0.85,2.01,0.39,2.79,0.85,2.97c5.7,2.28,11.04,5.41,15.17,9.43c2.52,2.46,4.59,5.26,6.02,8.4" transform="matrix(1,0,0,1,96,-4)" class="stroke_order_diagram--existing_path"></path><path id="kvg:0597d-s2" kvg:type="㇒" d="M41.12,35.88c0.5,1.4,0.71,2.83,0.35,4.75c-3.22,17.12-10.1,38.5-24.72,50.12" transform="matrix(1,0,0,1,96,-4)" class="stroke_order_diagram--current_path"></path><path id="pathSk2v596cnjlp" kvg:type="㇒" d="M41.12,35.88c0.5,1.4,0.71,2.83,0.35,4.75c-3.22,17.12-10.1,38.5-24.72,50.12" transform="matrix(1,0,0,1,96,-4)" class="stroke_order_diagram--current_path"></path><circle cx="41.12" cy="35.88" r="8" class="stroke_order_diagram--path_start" transform="matrix(1,0,0,1,96,-4)"></circle><line x1="250" x2="250" y1="1" y2="99" class="stroke_order_diagram--guide_line"></line><line x1="299" x2="299" y1="1" y2="99" class="stroke_order_diagram--bounding_box"></line><path id="pathSk2v596cnjls" kvg:type="㇛" d="M29.33,14.12c0.79,1.38,1.04,3.35,0.85,5.06c-0.94,8.36-4.83,32.78-8.96,42.56c-0.85,2.01,0.39,2.79,0.85,2.97c5.7,2.28,11.04,5.41,15.17,9.43c2.52,2.46,4.59,5.26,6.02,8.4" transform="matrix(1,0,0,1,196,-4)" class="stroke_order_diagram--existing_path"></path><path id="pathSk2v596cnjlt" kvg:type="㇒" d="M41.12,35.88c0.5,1.4,0.71,2.83,0.35,4.75c-3.22,17.12-10.1,38.5-24.72,50.12" transform="matrix(1,0,0,1,196,-4)" class="stroke_order_diagram--existing_path"></path><path id="kvg:0597d-s3" kvg:type="㇀/㇐" d="M9.75,47.46c0.75,0.99,1.88,1.17,3.01,0.99c2.15-0.34,22.82-5.19,33.86-7.59" transform="matrix(1,0,0,1,196,-4)" class="stroke_order_diagram--current_path"></path><path id="pathSk2v596cnjlv" kvg:type="㇀/㇐" d="M9.75,47.46c0.75,0.99,1.88,1.17,3.01,0.99c2.15-0.34,22.82-5.19,33.86-7.59" transform="matrix(1,0,0,1,196,-4)" class="stroke_order_diagram--current_path"></path><circle cx="9.75" cy="47.46" r="8" class="stroke_order_diagram--path_start" transform="matrix(1,0,0,1,196,-4)"></circle><line x1="350" x2="350" y1="1" y2="99" class="stroke_order_diagram--guide_line"></line><line x1="399" x2="399" y1="1" y2="99" class="stroke_order_diagram--bounding_box"></line><path id="pathSk2v596cnjly" kvg:type="㇛" d="M29.33,14.12c0.79,1.38,1.04,3.35,0.85,5.06c-0.94,8.36-4.83,32.78-8.96,42.56c-0.85,2.01,0.39,2.79,0.85,2.97c5.7,2.28,11.04,5.41,15.17,9.43c2.52,2.46,4.59,5.26,6.02,8.4" transform="matrix(1,0,0,1,296,-4)" class="stroke_order_diagram--existing_path"></path><path id="pathSk2v596cnjlz" kvg:type="㇒" d="M41.12,35.88c0.5,1.4,0.71,2.83,0.35,4.75c-3.22,17.12-10.1,38.5-24.72,50.12" transform="matrix(1,0,0,1,296,-4)" class="stroke_order_diagram--existing_path"></path><path id="pathSk2v596cnjm0" kvg:type="㇀/㇐" d="M9.75,47.46c0.75,0.99,1.88,1.17,3.01,0.99c2.15-0.34,22.82-5.19,33.86-7.59" transform="matrix(1,0,0,1,296,-4)" class="stroke_order_diagram--existing_path"></path><path id="kvg:0597d-s4" kvg:type="㇖" d="M52.68,20.3c1.69,0.45,3.74,0.51,5.21,0.34c4.48-0.52,17.48-3.27,23.34-4.89c1.62-0.45,3.4,0.98,1.82,3.14C80.5,22.38,76.25,28.25,70,35" transform="matrix(1,0,0,1,296,-4)" class="stroke_order_diagram--current_path"></path><path id="pathSk2v596cnjm2" kvg:type="㇖" d="M52.68,20.3c1.69,0.45,3.74,0.51,5.21,0.34c4.48-0.52,17.48-3.27,23.34-4.89c1.62-0.45,3.4,0.98,1.82,3.14C80.5,22.38,76.25,28.25,70,35" transform="matrix(1,0,0,1,296,-4)" class="stroke_order_diagram--current_path"></path><circle cx="52.68" cy="20.3" r="8" class="stroke_order_diagram--path_start" transform="matrix(1,0,0,1,296,-4)"></circle><line x1="450" x2="450" y1="1" y2="99" class="stroke_order_diagram--guide_line"></line><line x1="499" x2="499" y1="1" y2="99" class="stroke_order_diagram--bounding_box"></line><path id="pathSk2v596cnjm5" kvg:type="㇛" d="M29.33,14.12c0.79,1.38,1.04,3.35,0.85,5.06c-0.94,8.36-4.83,32.78-8.96,42.56c-0.85,2.01,0.39,2.79,0.85,2.97c5.7,2.28,11.04,5.41,15.17,9.43c2.52,2.46,4.59,5.26,6.02,8.4" transform="matrix(1,0,0,1,396,-4)" class="stroke_order_diagram--existing_path"></path><path id="pathSk2v596cnjm6" kvg:type="㇒" d="M41.12,35.88c0.5,1.4,0.71,2.83,0.35,4.75c-3.22,17.12-10.1,38.5-24.72,50.12" transform="matrix(1,0,0,1,396,-4)" class="stroke_order_diagram--existing_path"></path><path id="pathSk2v596cnjm7" kvg:type="㇀/㇐" d="M9.75,47.46c0.75,0.99,1.88,1.17,3.01,0.99c2.15-0.34,22.82-5.19,33.86-7.59" transform="matrix(1,0,0,1,396,-4)" class="stroke_order_diagram--existing_path"></path><path id="pathSk2v596cnjm8" kvg:type="㇖" d="M52.68,20.3c1.69,0.45,3.74,0.51,5.21,0.34c4.48-0.52,17.48-3.27,23.34-4.89c1.62-0.45,3.4,0.98,1.82,3.14C80.5,22.38,76.25,28.25,70,35" transform="matrix(1,0,0,1,396,-4)" class="stroke_order_diagram--existing_path"></path><path id="kvg:0597d-s5" kvg:type="㇕v" d="M67.57,36.74c9.05,8.89,10.3,31.39,6.43,49.14c-1.67,7.64-6.12,7.75-10.09,2.55" transform="matrix(1,0,0,1,396,-4)" class="stroke_order_diagram--current_path"></path><path id="pathSk2v596cnjma" kvg:type="㇕v" d="M67.57,36.74c9.05,8.89,10.3,31.39,6.43,49.14c-1.67,7.64-6.12,7.75-10.09,2.55" transform="matrix(1,0,0,1,396,-4)" class="stroke_order_diagram--current_path"></path><circle cx="67.57" cy="36.74" r="8" class="stroke_order_diagram--path_start" transform="matrix(1,0,0,1,396,-4)"></circle><line x1="550" x2="550" y1="1" y2="99" class="stroke_order_diagram--guide_line"></line><line x1="599" x2="599" y1="1" y2="99" class="stroke_order_diagram--bounding_box"></line><path id="pathSk2v596cnjmd" kvg:type="㇛" d="M29.33,14.12c0.79,1.38,1.04,3.35,0.85,5.06c-0.94,8.36-4.83,32.78-8.96,42.56c-0.85,2.01,0.39,2.79,0.85,2.97c5.7,2.28,11.04,5.41,15.17,9.43c2.52,2.46,4.59,5.26,6.02,8.4" transform="matrix(1,0,0,1,496,-4)" class="stroke_order_diagram--existing_path"></path><path id="pathSk2v596cnjme" kvg:type="㇒" d="M41.12,35.88c0.5,1.4,0.71,2.83,0.35,4.75c-3.22,17.12-10.1,38.5-24.72,50.12" transform="matrix(1,0,0,1,496,-4)" class="stroke_order_diagram--existing_path"></path><path id="pathSk2v596cnjmf" kvg:type="㇀/㇐" d="M9.75,47.46c0.75,0.99,1.88,1.17,3.01,0.99c2.15-0.34,22.82-5.19,33.86-7.59" transform="matrix(1,0,0,1,496,-4)" class="stroke_order_diagram--existing_path"></path><path id="pathSk2v596cnjmg" kvg:type="㇖" d="M52.68,20.3c1.69,0.45,3.74,0.51,5.21,0.34c4.48-0.52,17.48-3.27,23.34-4.89c1.62-0.45,3.4,0.98,1.82,3.14C80.5,22.38,76.25,28.25,70,35" transform="matrix(1,0,0,1,496,-4)" class="stroke_order_diagram--existing_path"></path><path id="pathSk2v596cnjmh" kvg:type="㇕v" d="M67.57,36.74c9.05,8.89,10.3,31.39,6.43,49.14c-1.67,7.64-6.12,7.75-10.09,2.55" transform="matrix(1,0,0,1,496,-4)" class="stroke_order_diagram--existing_path"></path><path id="kvg:0597d-s6" kvg:type="㇐" d="M46.03,52.68c1.46,0.61,5.04,0.84,7.65,0.42c12.32-1.98,26.07-4.36,37.44-4.33c2.64,0.01,4.97,0.2,6.73,0.81" transform="matrix(1,0,0,1,496,-4)" class="stroke_order_diagram--current_path"></path><path id="pathSk2v596cnjmj" kvg:type="㇐" d="M46.03,52.68c1.46,0.61,5.04,0.84,7.65,0.42c12.32-1.98,26.07-4.36,37.44-4.33c2.64,0.01,4.97,0.2,6.73,0.81" transform="matrix(1,0,0,1,496,-4)" class="stroke_order_diagram--current_path"></path><circle cx="46.03" cy="52.68" r="8" class="stroke_order_diagram--path_start" transform="matrix(1,0,0,1,496,-4)"></circle></svg>