<svg style="width: 700px; height: 100px;" viewbox="0 0 700 100"><style>
.stroke_order_diagram--outer_container {
  width: 100%;
  overflow-x: auto;
  overflow-y: hidden;
}

.stroke_order_diagram--guide_line {
  fill: none;
  stroke: #ddd;
  stroke-width: 3;
  stroke-linecap: square;
  stroke-linejoin: square;
  stroke-dasharray:8, 8;
}

.stroke_order_diagram--bounding_box {
  fill: none;
  stroke: #ddd;
  stroke-width: 4;
  stroke-linecap: square;
  stroke-linejoin: square;
}

.stroke_order_diagram--current_path {
  fill: none;
  stroke: #000;
  stroke-width: 6;
  stroke-linecap: round;
  stroke-linejoin: round;
}

.stroke_order_diagram--existing_path {
  fill: none;
  stroke: #aaa;
  stroke-width: 6;
  stroke-linecap: round;
  stroke-linejoin:round;
}

.stroke_order_diagram--path_start {
  fill: rgba(255, 0, 0, 0.7);
  stroke:none
}</style><desc>Created with Snap</desc><defs></defs><line x1="1" x2="699" y1="1" y2="1" class="stroke_order_diagram--bounding_box"></line><line x1="1" x2="1" y1="1" y2="99" class="stroke_order_diagram--bounding_box"></line><line x1="1" x2="699" y1="99" y2="99" class="stroke_order_diagram--bounding_box"></line><line x1="0" x2="700" y1="50" y2="50" class="stroke_order_diagram--guide_line"></line><line x1="50" x2="50" y1="1" y2="99" class="stroke_order_diagram--guide_line"></line><line x1="99" x2="99" y1="1" y2="99" class="stroke_order_diagram--bounding_box"></line><path id="kvg:0598a-s1" kvg:type="㇛" d="M29.31,18.37c0.4,1,0.62,2.38,0.41,3.82c-1.01,7.08-6.03,33.24-10.48,41.52c-0.91,1.7,0.41,2.36,0.91,2.52c6.16,1.96,12.49,5.62,17.13,9.73c2.65,2.35,4.34,4.67,6.47,7.83" transform="matrix(1,0,0,1,-4,-4)" class="stroke_order_diagram--current_path"></path><path id="pathSk2v596cn2rlp" kvg:type="㇛" d="M29.31,18.37c0.4,1,0.62,2.38,0.41,3.82c-1.01,7.08-6.03,33.24-10.48,41.52c-0.91,1.7,0.41,2.36,0.91,2.52c6.16,1.96,12.49,5.62,17.13,9.73c2.65,2.35,4.34,4.67,6.47,7.83" transform="matrix(1,0,0,1,-4,-4)" class="stroke_order_diagram--current_path"></path><circle cx="29.31" cy="18.37" r="8" class="stroke_order_diagram--path_start" transform="matrix(1,0,0,1,-4,-4)"></circle><line x1="150" x2="150" y1="1" y2="99" class="stroke_order_diagram--guide_line"></line><line x1="199" x2="199" y1="1" y2="99" class="stroke_order_diagram--bounding_box"></line><path id="pathSk2v596cn2rls" kvg:type="㇛" d="M29.31,18.37c0.4,1,0.62,2.38,0.41,3.82c-1.01,7.08-6.03,33.24-10.48,41.52c-0.91,1.7,0.41,2.36,0.91,2.52c6.16,1.96,12.49,5.62,17.13,9.73c2.65,2.35,4.34,4.67,6.47,7.83" transform="matrix(1,0,0,1,96,-4)" class="stroke_order_diagram--existing_path"></path><path id="kvg:0598a-s2" kvg:type="㇒" d="M41,37.39c0.62,1.36,0.64,2.84,0.34,4.68C38.93,56.91,32.88,76.75,14.5,90" transform="matrix(1,0,0,1,96,-4)" class="stroke_order_diagram--current_path"></path><path id="pathSk2v596cn2rlu" kvg:type="㇒" d="M41,37.39c0.62,1.36,0.64,2.84,0.34,4.68C38.93,56.91,32.88,76.75,14.5,90" transform="matrix(1,0,0,1,96,-4)" class="stroke_order_diagram--current_path"></path><circle cx="41" cy="37.39" r="8" class="stroke_order_diagram--path_start" transform="matrix(1,0,0,1,96,-4)"></circle><line x1="250" x2="250" y1="1" y2="99" class="stroke_order_diagram--guide_line"></line><line x1="299" x2="299" y1="1" y2="99" class="stroke_order_diagram--bounding_box"></line><path id="pathSk2v596cn2rlx" kvg:type="㇛" d="M29.31,18.37c0.4,1,0.62,2.38,0.41,3.82c-1.01,7.08-6.03,33.24-10.48,41.52c-0.91,1.7,0.41,2.36,0.91,2.52c6.16,1.96,12.49,5.62,17.13,9.73c2.65,2.35,4.34,4.67,6.47,7.83" transform="matrix(1,0,0,1,196,-4)" class="stroke_order_diagram--existing_path"></path><path id="pathSk2v596cn2rly" kvg:type="㇒" d="M41,37.39c0.62,1.36,0.64,2.84,0.34,4.68C38.93,56.91,32.88,76.75,14.5,90" transform="matrix(1,0,0,1,196,-4)" class="stroke_order_diagram--existing_path"></path><path id="kvg:0598a-s3" kvg:type="㇀/㇐" d="M11.38,49.45c0.88,1.05,1.55,1.25,3.25,0.94c4.07-0.74,20.12-4.64,30.87-6.77" transform="matrix(1,0,0,1,196,-4)" class="stroke_order_diagram--current_path"></path><path id="pathSk2v596cn2rm0" kvg:type="㇀/㇐" d="M11.38,49.45c0.88,1.05,1.55,1.25,3.25,0.94c4.07-0.74,20.12-4.64,30.87-6.77" transform="matrix(1,0,0,1,196,-4)" class="stroke_order_diagram--current_path"></path><circle cx="11.38" cy="49.45" r="8" class="stroke_order_diagram--path_start" transform="matrix(1,0,0,1,196,-4)"></circle><line x1="350" x2="350" y1="1" y2="99" class="stroke_order_diagram--guide_line"></line><line x1="399" x2="399" y1="1" y2="99" class="stroke_order_diagram--bounding_box"></line><path id="pathSk2v596cn2rm3" kvg:type="㇛" d="M29.31,18.37c0.4,1,0.62,2.38,0.41,3.82c-1.01,7.08-6.03,33.24-10.48,41.52c-0.91,1.7,0.41,2.36,0.91,2.52c6.16,1.96,12.49,5.62,17.13,9.73c2.65,2.35,4.34,4.67,6.47,7.83" transform="matrix(1,0,0,1,296,-4)" class="stroke_order_diagram--existing_path"></path><path id="pathSk2v596cn2rm4" kvg:type="㇒" d="M41,37.39c0.62,1.36,0.64,2.84,0.34,4.68C38.93,56.91,32.88,76.75,14.5,90" transform="matrix(1,0,0,1,296,-4)" class="stroke_order_diagram--existing_path"></path><path id="pathSk2v596cn2rm5" kvg:type="㇀/㇐" d="M11.38,49.45c0.88,1.05,1.55,1.25,3.25,0.94c4.07-0.74,20.12-4.64,30.87-6.77" transform="matrix(1,0,0,1,296,-4)" class="stroke_order_diagram--existing_path"></path><path id="kvg:0598a-s4" kvg:type="㇒" d="M89.14,16c0,0.88-0.68,1.63-1.29,2.12c-6.9,5.52-16.82,10.38-34.33,14.87" transform="matrix(1,0,0,1,296,-4)" class="stroke_order_diagram--current_path"></path><path id="pathSk2v596cn2rm7" kvg:type="㇒" d="M89.14,16c0,0.88-0.68,1.63-1.29,2.12c-6.9,5.52-16.82,10.38-34.33,14.87" transform="matrix(1,0,0,1,296,-4)" class="stroke_order_diagram--current_path"></path><circle cx="89.14" cy="16" r="8" class="stroke_order_diagram--path_start" transform="matrix(1,0,0,1,296,-4)"></circle><line x1="450" x2="450" y1="1" y2="99" class="stroke_order_diagram--guide_line"></line><line x1="499" x2="499" y1="1" y2="99" class="stroke_order_diagram--bounding_box"></line><path id="pathSk2v596cn2rma" kvg:type="㇛" d="M29.31,18.37c0.4,1,0.62,2.38,0.41,3.82c-1.01,7.08-6.03,33.24-10.48,41.52c-0.91,1.7,0.41,2.36,0.91,2.52c6.16,1.96,12.49,5.62,17.13,9.73c2.65,2.35,4.34,4.67,6.47,7.83" transform="matrix(1,0,0,1,396,-4)" class="stroke_order_diagram--existing_path"></path><path id="pathSk2v596cn2rmb" kvg:type="㇒" d="M41,37.39c0.62,1.36,0.64,2.84,0.34,4.68C38.93,56.91,32.88,76.75,14.5,90" transform="matrix(1,0,0,1,396,-4)" class="stroke_order_diagram--existing_path"></path><path id="pathSk2v596cn2rmc" kvg:type="㇀/㇐" d="M11.38,49.45c0.88,1.05,1.55,1.25,3.25,0.94c4.07-0.74,20.12-4.64,30.87-6.77" transform="matrix(1,0,0,1,396,-4)" class="stroke_order_diagram--existing_path"></path><path id="pathSk2v596cn2rmd" kvg:type="㇒" d="M89.14,16c0,0.88-0.68,1.63-1.29,2.12c-6.9,5.52-16.82,10.38-34.33,14.87" transform="matrix(1,0,0,1,396,-4)" class="stroke_order_diagram--existing_path"></path><path id="kvg:0598a-s5" kvg:type="㇐" d="M48.04,57.93c2.46,0.57,5.06,0.45,7.09,0.25c12.24-1.18,25.49-2.55,38.49-2.99c2.05-0.07,4.36,0.13,6.34,0.73" transform="matrix(1,0,0,1,396,-4)" class="stroke_order_diagram--current_path"></path><path id="pathSk2v596cn2rmf" kvg:type="㇐" d="M48.04,57.93c2.46,0.57,5.06,0.45,7.09,0.25c12.24-1.18,25.49-2.55,38.49-2.99c2.05-0.07,4.36,0.13,6.34,0.73" transform="matrix(1,0,0,1,396,-4)" class="stroke_order_diagram--current_path"></path><circle cx="48.04" cy="57.93" r="8" class="stroke_order_diagram--path_start" transform="matrix(1,0,0,1,396,-4)"></circle><line x1="550" x2="550" y1="1" y2="99" class="stroke_order_diagram--guide_line"></line><line x1="599" x2="599" y1="1" y2="99" class="stroke_order_diagram--bounding_box"></line><path id="pathSk2v596cn2rmi" kvg:type="㇛" d="M29.31,18.37c0.4,1,0.62,2.38,0.41,3.82c-1.01,7.08-6.03,33.24-10.48,41.52c-0.91,1.7,0.41,2.36,0.91,2.52c6.16,1.96,12.49,5.62,17.13,9.73c2.65,2.35,4.34,4.67,6.47,7.83" transform="matrix(1,0,0,1,496,-4)" class="stroke_order_diagram--existing_path"></path><path id="pathSk2v596cn2rmj" kvg:type="㇒" d="M41,37.39c0.62,1.36,0.64,2.84,0.34,4.68C38.93,56.91,32.88,76.75,14.5,90" transform="matrix(1,0,0,1,496,-4)" class="stroke_order_diagram--existing_path"></path><path id="pathSk2v596cn2rmk" kvg:type="㇀/㇐" d="M11.38,49.45c0.88,1.05,1.55,1.25,3.25,0.94c4.07-0.74,20.12-4.64,30.87-6.77" transform="matrix(1,0,0,1,496,-4)" class="stroke_order_diagram--existing_path"></path><path id="pathSk2v596cn2rml" kvg:type="㇒" d="M89.14,16c0,0.88-0.68,1.63-1.29,2.12c-6.9,5.52-16.82,10.38-34.33,14.87" transform="matrix(1,0,0,1,496,-4)" class="stroke_order_diagram--existing_path"></path><path id="pathSk2v596cn2rmm" kvg:type="㇐" d="M48.04,57.93c2.46,0.57,5.06,0.45,7.09,0.25c12.24-1.18,25.49-2.55,38.49-2.99c2.05-0.07,4.36,0.13,6.34,0.73" transform="matrix(1,0,0,1,496,-4)" class="stroke_order_diagram--existing_path"></path><path id="kvg:0598a-s6" kvg:type="㇑a" d="M73.39,29.86c0.94,0.94,1.54,1.89,1.54,3.36c0,0.97-0.05,48.14-0.05,54.78" transform="matrix(1,0,0,1,496,-4)" class="stroke_order_diagram--current_path"></path><path id="pathSk2v596cn2rmo" kvg:type="㇑a" d="M73.39,29.86c0.94,0.94,1.54,1.89,1.54,3.36c0,0.97-0.05,48.14-0.05,54.78" transform="matrix(1,0,0,1,496,-4)" class="stroke_order_diagram--current_path"></path><circle cx="73.39" cy="29.86" r="8" class="stroke_order_diagram--path_start" transform="matrix(1,0,0,1,496,-4)"></circle><line x1="650" x2="650" y1="1" y2="99" class="stroke_order_diagram--guide_line"></line><line x1="699" x2="699" y1="1" y2="99" class="stroke_order_diagram--bounding_box"></line><path id="pathSk2v596cn2rmr" kvg:type="㇛" d="M29.31,18.37c0.4,1,0.62,2.38,0.41,3.82c-1.01,7.08-6.03,33.24-10.48,41.52c-0.91,1.7,0.41,2.36,0.91,2.52c6.16,1.96,12.49,5.62,17.13,9.73c2.65,2.35,4.34,4.67,6.47,7.83" transform="matrix(1,0,0,1,596,-4)" class="stroke_order_diagram--existing_path"></path><path id="pathSk2v596cn2rms" kvg:type="㇒" d="M41,37.39c0.62,1.36,0.64,2.84,0.34,4.68C38.93,56.91,32.88,76.75,14.5,90" transform="matrix(1,0,0,1,596,-4)" class="stroke_order_diagram--existing_path"></path><path id="pathSk2v596cn2rmt" kvg:type="㇀/㇐" d="M11.38,49.45c0.88,1.05,1.55,1.25,3.25,0.94c4.07-0.74,20.12-4.64,30.87-6.77" transform="matrix(1,0,0,1,596,-4)" class="stroke_order_diagram--existing_path"></path><path id="pathSk2v596cn2rmu" kvg:type="㇒" d="M89.14,16c0,0.88-0.68,1.63-1.29,2.12c-6.9,5.52-16.82,10.38-34.33,14.87" transform="matrix(1,0,0,1,596,-4)" class="stroke_order_diagram--existing_path"></path><path id="pathSk2v596cn2rmv" kvg:type="㇐" d="M48.04,57.93c2.46,0.57,5.06,0.45,7.09,0.25c12.24-1.18,25.49-2.55,38.49-2.99c2.05-0.07,4.36,0.13,6.34,0.73" transform="matrix(1,0,0,1,596,-4)" class="stroke_order_diagram--existing_path"></path><path id="pathSk2v596cn2rmw" kvg:type="㇑a" d="M73.39,29.86c0.94,0.94,1.54,1.89,1.54,3.36c0,0.97-0.05,48.14-0.05,54.78" transform="matrix(1,0,0,1,596,-4)" class="stroke_order_diagram--existing_path"></path><path id="kvg:0598a-s7" kvg:type="㇐" d="M52.7,89.59c2.05,0.54,4.19,0.61,6.07,0.51c10.3-0.53,22.32-1.83,33.11-2.03c2.08-0.04,4.21,0.08,6.24,0.6" transform="matrix(1,0,0,1,596,-4)" class="stroke_order_diagram--current_path"></path><path id="pathSk2v596cn2rmy" kvg:type="㇐" d="M52.7,89.59c2.05,0.54,4.19,0.61,6.07,0.51c10.3-0.53,22.32-1.83,33.11-2.03c2.08-0.04,4.21,0.08,6.24,0.6" transform="matrix(1,0,0,1,596,-4)" class="stroke_order_diagram--current_path"></path><circle cx="52.7" cy="89.59" r="8" class="stroke_order_diagram--path_start" transform="matrix(1,0,0,1,596,-4)"></circle></svg>