<svg style="width: 800px; height: 100px;" viewbox="0 0 800 100"><style>
.stroke_order_diagram--outer_container {
  width: 100%;
  overflow-x: auto;
  overflow-y: hidden;
}

.stroke_order_diagram--guide_line {
  fill: none;
  stroke: #ddd;
  stroke-width: 3;
  stroke-linecap: square;
  stroke-linejoin: square;
  stroke-dasharray:8, 8;
}

.stroke_order_diagram--bounding_box {
  fill: none;
  stroke: #ddd;
  stroke-width: 4;
  stroke-linecap: square;
  stroke-linejoin: square;
}

.stroke_order_diagram--current_path {
  fill: none;
  stroke: #000;
  stroke-width: 6;
  stroke-linecap: round;
  stroke-linejoin: round;
}

.stroke_order_diagram--existing_path {
  fill: none;
  stroke: #aaa;
  stroke-width: 6;
  stroke-linecap: round;
  stroke-linejoin:round;
}

.stroke_order_diagram--path_start {
  fill: rgba(255, 0, 0, 0.7);
  stroke:none
}</style><desc>Created with Snap</desc><defs></defs><line x1="1" x2="799" y1="1" y2="1" class="stroke_order_diagram--bounding_box"></line><line x1="1" x2="1" y1="1" y2="99" class="stroke_order_diagram--bounding_box"></line><line x1="1" x2="799" y1="99" y2="99" class="stroke_order_diagram--bounding_box"></line><line x1="0" x2="800" y1="50" y2="50" class="stroke_order_diagram--guide_line"></line><line x1="50" x2="50" y1="1" y2="99" class="stroke_order_diagram--guide_line"></line><line x1="99" x2="99" y1="1" y2="99" class="stroke_order_diagram--bounding_box"></line><path id="kvg:059b9-s1" kvg:type="㇛" d="M26.55,18.62c0.33,1.11,0.69,2.93,0.51,4.54c-1.3,11.72-3.8,28.84-6.37,38.68c-0.52,1.98,0.34,2.68,0.76,2.81c4.84,1.55,10.03,4.05,14,7.92c1.41,1.38,2.7,3.36,3.81,4.94" transform="matrix(1,0,0,1,-4,-4)" class="stroke_order_diagram--current_path"></path><path id="pathSk2v596cn5yn" kvg:type="㇛" d="M26.55,18.62c0.33,1.11,0.69,2.93,0.51,4.54c-1.3,11.72-3.8,28.84-6.37,38.68c-0.52,1.98,0.34,2.68,0.76,2.81c4.84,1.55,10.03,4.05,14,7.92c1.41,1.38,2.7,3.36,3.81,4.94" transform="matrix(1,0,0,1,-4,-4)" class="stroke_order_diagram--current_path"></path><circle cx="26.55" cy="18.62" r="8" class="stroke_order_diagram--path_start" transform="matrix(1,0,0,1,-4,-4)"></circle><line x1="150" x2="150" y1="1" y2="99" class="stroke_order_diagram--guide_line"></line><line x1="199" x2="199" y1="1" y2="99" class="stroke_order_diagram--bounding_box"></line><path id="pathSk2v596cn5yq" kvg:type="㇛" d="M26.55,18.62c0.33,1.11,0.69,2.93,0.51,4.54c-1.3,11.72-3.8,28.84-6.37,38.68c-0.52,1.98,0.34,2.68,0.76,2.81c4.84,1.55,10.03,4.05,14,7.92c1.41,1.38,2.7,3.36,3.81,4.94" transform="matrix(1,0,0,1,96,-4)" class="stroke_order_diagram--existing_path"></path><path id="kvg:059b9-s2" kvg:type="㇒" d="M39.73,34.75c0.77,1.78,0.65,3.07,0.36,5.01C37.71,55.44,30.1,78.2,13.12,89.88" transform="matrix(1,0,0,1,96,-4)" class="stroke_order_diagram--current_path"></path><path id="pathSk2v596cn5ys" kvg:type="㇒" d="M39.73,34.75c0.77,1.78,0.65,3.07,0.36,5.01C37.71,55.44,30.1,78.2,13.12,89.88" transform="matrix(1,0,0,1,96,-4)" class="stroke_order_diagram--current_path"></path><circle cx="39.73" cy="34.75" r="8" class="stroke_order_diagram--path_start" transform="matrix(1,0,0,1,96,-4)"></circle><line x1="250" x2="250" y1="1" y2="99" class="stroke_order_diagram--guide_line"></line><line x1="299" x2="299" y1="1" y2="99" class="stroke_order_diagram--bounding_box"></line><path id="pathSk2v596cn5yv" kvg:type="㇛" d="M26.55,18.62c0.33,1.11,0.69,2.93,0.51,4.54c-1.3,11.72-3.8,28.84-6.37,38.68c-0.52,1.98,0.34,2.68,0.76,2.81c4.84,1.55,10.03,4.05,14,7.92c1.41,1.38,2.7,3.36,3.81,4.94" transform="matrix(1,0,0,1,196,-4)" class="stroke_order_diagram--existing_path"></path><path id="pathSk2v596cn5yw" kvg:type="㇒" d="M39.73,34.75c0.77,1.78,0.65,3.07,0.36,5.01C37.71,55.44,30.1,78.2,13.12,89.88" transform="matrix(1,0,0,1,196,-4)" class="stroke_order_diagram--existing_path"></path><path id="kvg:059b9-s3" kvg:type="㇀/㇐" d="M10,47.71c0.88,1.29,2.27,1.68,4.25,1.29c9-1.75,22.33-4.73,33.25-7.03" transform="matrix(1,0,0,1,196,-4)" class="stroke_order_diagram--current_path"></path><path id="pathSk2v596cn5yy" kvg:type="㇀/㇐" d="M10,47.71c0.88,1.29,2.27,1.68,4.25,1.29c9-1.75,22.33-4.73,33.25-7.03" transform="matrix(1,0,0,1,196,-4)" class="stroke_order_diagram--current_path"></path><circle cx="10" cy="47.71" r="8" class="stroke_order_diagram--path_start" transform="matrix(1,0,0,1,196,-4)"></circle><line x1="350" x2="350" y1="1" y2="99" class="stroke_order_diagram--guide_line"></line><line x1="399" x2="399" y1="1" y2="99" class="stroke_order_diagram--bounding_box"></line><path id="pathSk2v596cn5z1" kvg:type="㇛" d="M26.55,18.62c0.33,1.11,0.69,2.93,0.51,4.54c-1.3,11.72-3.8,28.84-6.37,38.68c-0.52,1.98,0.34,2.68,0.76,2.81c4.84,1.55,10.03,4.05,14,7.92c1.41,1.38,2.7,3.36,3.81,4.94" transform="matrix(1,0,0,1,296,-4)" class="stroke_order_diagram--existing_path"></path><path id="pathSk2v596cn5z2" kvg:type="㇒" d="M39.73,34.75c0.77,1.78,0.65,3.07,0.36,5.01C37.71,55.44,30.1,78.2,13.12,89.88" transform="matrix(1,0,0,1,296,-4)" class="stroke_order_diagram--existing_path"></path><path id="pathSk2v596cn5z3" kvg:type="㇀/㇐" d="M10,47.71c0.88,1.29,2.27,1.68,4.25,1.29c9-1.75,22.33-4.73,33.25-7.03" transform="matrix(1,0,0,1,296,-4)" class="stroke_order_diagram--existing_path"></path><path id="kvg:059b9-s4" kvg:type="㇐" d="M51.84,34.46c1.19,0.2,3.14,0.08,4.33-0.05c6.08-0.66,16.08-2.15,22.4-2.91c1.96-0.23,3.18,0.1,4.18,0.19" transform="matrix(1,0,0,1,296,-4)" class="stroke_order_diagram--current_path"></path><path id="pathSk2v596cn5z5" kvg:type="㇐" d="M51.84,34.46c1.19,0.2,3.14,0.08,4.33-0.05c6.08-0.66,16.08-2.15,22.4-2.91c1.96-0.23,3.18,0.1,4.18,0.19" transform="matrix(1,0,0,1,296,-4)" class="stroke_order_diagram--current_path"></path><circle cx="51.84" cy="34.46" r="8" class="stroke_order_diagram--path_start" transform="matrix(1,0,0,1,296,-4)"></circle><line x1="450" x2="450" y1="1" y2="99" class="stroke_order_diagram--guide_line"></line><line x1="499" x2="499" y1="1" y2="99" class="stroke_order_diagram--bounding_box"></line><path id="pathSk2v596cn5z8" kvg:type="㇛" d="M26.55,18.62c0.33,1.11,0.69,2.93,0.51,4.54c-1.3,11.72-3.8,28.84-6.37,38.68c-0.52,1.98,0.34,2.68,0.76,2.81c4.84,1.55,10.03,4.05,14,7.92c1.41,1.38,2.7,3.36,3.81,4.94" transform="matrix(1,0,0,1,396,-4)" class="stroke_order_diagram--existing_path"></path><path id="pathSk2v596cn5z9" kvg:type="㇒" d="M39.73,34.75c0.77,1.78,0.65,3.07,0.36,5.01C37.71,55.44,30.1,78.2,13.12,89.88" transform="matrix(1,0,0,1,396,-4)" class="stroke_order_diagram--existing_path"></path><path id="pathSk2v596cn5za" kvg:type="㇀/㇐" d="M10,47.71c0.88,1.29,2.27,1.68,4.25,1.29c9-1.75,22.33-4.73,33.25-7.03" transform="matrix(1,0,0,1,396,-4)" class="stroke_order_diagram--existing_path"></path><path id="pathSk2v596cn5zb" kvg:type="㇐" d="M51.84,34.46c1.19,0.2,3.14,0.08,4.33-0.05c6.08-0.66,16.08-2.15,22.4-2.91c1.96-0.23,3.18,0.1,4.18,0.19" transform="matrix(1,0,0,1,396,-4)" class="stroke_order_diagram--existing_path"></path><path id="kvg:059b9-s5" kvg:type="㇐" d="M44.25,51.25c2.26,0.5,3.88,0.61,6.8,0.25c8.2-1,24.32-3.25,34.64-3.89c2.7-0.17,4.56,0.14,6.33,0.75" transform="matrix(1,0,0,1,396,-4)" class="stroke_order_diagram--current_path"></path><path id="pathSk2v596cn5zd" kvg:type="㇐" d="M44.25,51.25c2.26,0.5,3.88,0.61,6.8,0.25c8.2-1,24.32-3.25,34.64-3.89c2.7-0.17,4.56,0.14,6.33,0.75" transform="matrix(1,0,0,1,396,-4)" class="stroke_order_diagram--current_path"></path><circle cx="44.25" cy="51.25" r="8" class="stroke_order_diagram--path_start" transform="matrix(1,0,0,1,396,-4)"></circle><line x1="550" x2="550" y1="1" y2="99" class="stroke_order_diagram--guide_line"></line><line x1="599" x2="599" y1="1" y2="99" class="stroke_order_diagram--bounding_box"></line><path id="pathSk2v596cn5zg" kvg:type="㇛" d="M26.55,18.62c0.33,1.11,0.69,2.93,0.51,4.54c-1.3,11.72-3.8,28.84-6.37,38.68c-0.52,1.98,0.34,2.68,0.76,2.81c4.84,1.55,10.03,4.05,14,7.92c1.41,1.38,2.7,3.36,3.81,4.94" transform="matrix(1,0,0,1,496,-4)" class="stroke_order_diagram--existing_path"></path><path id="pathSk2v596cn5zh" kvg:type="㇒" d="M39.73,34.75c0.77,1.78,0.65,3.07,0.36,5.01C37.71,55.44,30.1,78.2,13.12,89.88" transform="matrix(1,0,0,1,496,-4)" class="stroke_order_diagram--existing_path"></path><path id="pathSk2v596cn5zi" kvg:type="㇀/㇐" d="M10,47.71c0.88,1.29,2.27,1.68,4.25,1.29c9-1.75,22.33-4.73,33.25-7.03" transform="matrix(1,0,0,1,496,-4)" class="stroke_order_diagram--existing_path"></path><path id="pathSk2v596cn5zj" kvg:type="㇐" d="M51.84,34.46c1.19,0.2,3.14,0.08,4.33-0.05c6.08-0.66,16.08-2.15,22.4-2.91c1.96-0.23,3.18,0.1,4.18,0.19" transform="matrix(1,0,0,1,496,-4)" class="stroke_order_diagram--existing_path"></path><path id="pathSk2v596cn5zk" kvg:type="㇐" d="M44.25,51.25c2.26,0.5,3.88,0.61,6.8,0.25c8.2-1,24.32-3.25,34.64-3.89c2.7-0.17,4.56,0.14,6.33,0.75" transform="matrix(1,0,0,1,496,-4)" class="stroke_order_diagram--existing_path"></path><path id="kvg:059b9-s6" kvg:type="㇑" d="M65.14,13.25C66.38,14.49,67,16,67,17.72c0,4.53,0.07,51.14-0.14,71.53c-0.04,4.02-0.08,6.81-0.13,7.75" transform="matrix(1,0,0,1,496,-4)" class="stroke_order_diagram--current_path"></path><path id="pathSk2v596cn5zm" kvg:type="㇑" d="M65.14,13.25C66.38,14.49,67,16,67,17.72c0,4.53,0.07,51.14-0.14,71.53c-0.04,4.02-0.08,6.81-0.13,7.75" transform="matrix(1,0,0,1,496,-4)" class="stroke_order_diagram--current_path"></path><circle cx="65.14" cy="13.25" r="8" class="stroke_order_diagram--path_start" transform="matrix(1,0,0,1,496,-4)"></circle><line x1="650" x2="650" y1="1" y2="99" class="stroke_order_diagram--guide_line"></line><line x1="699" x2="699" y1="1" y2="99" class="stroke_order_diagram--bounding_box"></line><path id="pathSk2v596cn5zp" kvg:type="㇛" d="M26.55,18.62c0.33,1.11,0.69,2.93,0.51,4.54c-1.3,11.72-3.8,28.84-6.37,38.68c-0.52,1.98,0.34,2.68,0.76,2.81c4.84,1.55,10.03,4.05,14,7.92c1.41,1.38,2.7,3.36,3.81,4.94" transform="matrix(1,0,0,1,596,-4)" class="stroke_order_diagram--existing_path"></path><path id="pathSk2v596cn5zq" kvg:type="㇒" d="M39.73,34.75c0.77,1.78,0.65,3.07,0.36,5.01C37.71,55.44,30.1,78.2,13.12,89.88" transform="matrix(1,0,0,1,596,-4)" class="stroke_order_diagram--existing_path"></path><path id="pathSk2v596cn5zr" kvg:type="㇀/㇐" d="M10,47.71c0.88,1.29,2.27,1.68,4.25,1.29c9-1.75,22.33-4.73,33.25-7.03" transform="matrix(1,0,0,1,596,-4)" class="stroke_order_diagram--existing_path"></path><path id="pathSk2v596cn5zs" kvg:type="㇐" d="M51.84,34.46c1.19,0.2,3.14,0.08,4.33-0.05c6.08-0.66,16.08-2.15,22.4-2.91c1.96-0.23,3.18,0.1,4.18,0.19" transform="matrix(1,0,0,1,596,-4)" class="stroke_order_diagram--existing_path"></path><path id="pathSk2v596cn5zt" kvg:type="㇐" d="M44.25,51.25c2.26,0.5,3.88,0.61,6.8,0.25c8.2-1,24.32-3.25,34.64-3.89c2.7-0.17,4.56,0.14,6.33,0.75" transform="matrix(1,0,0,1,596,-4)" class="stroke_order_diagram--existing_path"></path><path id="pathSk2v596cn5zu" kvg:type="㇑" d="M65.14,13.25C66.38,14.49,67,16,67,17.72c0,4.53,0.07,51.14-0.14,71.53c-0.04,4.02-0.08,6.81-0.13,7.75" transform="matrix(1,0,0,1,596,-4)" class="stroke_order_diagram--existing_path"></path><path id="kvg:059b9-s7" kvg:type="㇒" d="M64.75,51c0,1.5-0.42,2.54-0.8,3.33C57.88,66.75,48.5,80,36.25,87.5" transform="matrix(1,0,0,1,596,-4)" class="stroke_order_diagram--current_path"></path><path id="pathSk2v596cn5zw" kvg:type="㇒" d="M64.75,51c0,1.5-0.42,2.54-0.8,3.33C57.88,66.75,48.5,80,36.25,87.5" transform="matrix(1,0,0,1,596,-4)" class="stroke_order_diagram--current_path"></path><circle cx="64.75" cy="51" r="8" class="stroke_order_diagram--path_start" transform="matrix(1,0,0,1,596,-4)"></circle><line x1="750" x2="750" y1="1" y2="99" class="stroke_order_diagram--guide_line"></line><line x1="799" x2="799" y1="1" y2="99" class="stroke_order_diagram--bounding_box"></line><path id="pathSk2v596cn5zz" kvg:type="㇛" d="M26.55,18.62c0.33,1.11,0.69,2.93,0.51,4.54c-1.3,11.72-3.8,28.84-6.37,38.68c-0.52,1.98,0.34,2.68,0.76,2.81c4.84,1.55,10.03,4.05,14,7.92c1.41,1.38,2.7,3.36,3.81,4.94" transform="matrix(1,0,0,1,696,-4)" class="stroke_order_diagram--existing_path"></path><path id="pathSk2v596cn600" kvg:type="㇒" d="M39.73,34.75c0.77,1.78,0.65,3.07,0.36,5.01C37.71,55.44,30.1,78.2,13.12,89.88" transform="matrix(1,0,0,1,696,-4)" class="stroke_order_diagram--existing_path"></path><path id="pathSk2v596cn601" kvg:type="㇀/㇐" d="M10,47.71c0.88,1.29,2.27,1.68,4.25,1.29c9-1.75,22.33-4.73,33.25-7.03" transform="matrix(1,0,0,1,696,-4)" class="stroke_order_diagram--existing_path"></path><path id="pathSk2v596cn602" kvg:type="㇐" d="M51.84,34.46c1.19,0.2,3.14,0.08,4.33-0.05c6.08-0.66,16.08-2.15,22.4-2.91c1.96-0.23,3.18,0.1,4.18,0.19" transform="matrix(1,0,0,1,696,-4)" class="stroke_order_diagram--existing_path"></path><path id="pathSk2v596cn603" kvg:type="㇐" d="M44.25,51.25c2.26,0.5,3.88,0.61,6.8,0.25c8.2-1,24.32-3.25,34.64-3.89c2.7-0.17,4.56,0.14,6.33,0.75" transform="matrix(1,0,0,1,696,-4)" class="stroke_order_diagram--existing_path"></path><path id="pathSk2v596cn604" kvg:type="㇑" d="M65.14,13.25C66.38,14.49,67,16,67,17.72c0,4.53,0.07,51.14-0.14,71.53c-0.04,4.02-0.08,6.81-0.13,7.75" transform="matrix(1,0,0,1,696,-4)" class="stroke_order_diagram--existing_path"></path><path id="pathSk2v596cn605" kvg:type="㇒" d="M64.75,51c0,1.5-0.42,2.54-0.8,3.33C57.88,66.75,48.5,80,36.25,87.5" transform="matrix(1,0,0,1,696,-4)" class="stroke_order_diagram--existing_path"></path><path id="kvg:059b9-s8" kvg:type="㇏" d="M68,51c4.56,8.8,13.2,20.09,20.34,27.47c2.02,2.09,4.91,4.41,7.54,6.03" transform="matrix(1,0,0,1,696,-4)" class="stroke_order_diagram--current_path"></path><path id="pathSk2v596cn607" kvg:type="㇏" d="M68,51c4.56,8.8,13.2,20.09,20.34,27.47c2.02,2.09,4.91,4.41,7.54,6.03" transform="matrix(1,0,0,1,696,-4)" class="stroke_order_diagram--current_path"></path><circle cx="68" cy="51" r="8" class="stroke_order_diagram--path_start" transform="matrix(1,0,0,1,696,-4)"></circle></svg>