<svg style="width: 1100px; height: 100px;" viewbox="0 0 1100 100"><style>
.stroke_order_diagram--outer_container {
  width: 100%;
  overflow-x: auto;
  overflow-y: hidden;
}

.stroke_order_diagram--guide_line {
  fill: none;
  stroke: #ddd;
  stroke-width: 3;
  stroke-linecap: square;
  stroke-linejoin: square;
  stroke-dasharray:8, 8;
}

.stroke_order_diagram--bounding_box {
  fill: none;
  stroke: #ddd;
  stroke-width: 4;
  stroke-linecap: square;
  stroke-linejoin: square;
}

.stroke_order_diagram--current_path {
  fill: none;
  stroke: #000;
  stroke-width: 6;
  stroke-linecap: round;
  stroke-linejoin: round;
}

.stroke_order_diagram--existing_path {
  fill: none;
  stroke: #aaa;
  stroke-width: 6;
  stroke-linecap: round;
  stroke-linejoin:round;
}

.stroke_order_diagram--path_start {
  fill: rgba(255, 0, 0, 0.7);
  stroke:none
}</style><desc>Created with Snap</desc><defs></defs><line x1="1" x2="1099" y1="1" y2="1" class="stroke_order_diagram--bounding_box"></line><line x1="1" x2="1" y1="1" y2="99" class="stroke_order_diagram--bounding_box"></line><line x1="1" x2="1099" y1="99" y2="99" class="stroke_order_diagram--bounding_box"></line><line x1="0" x2="1100" y1="50" y2="50" class="stroke_order_diagram--guide_line"></line><line x1="50" x2="50" y1="1" y2="99" class="stroke_order_diagram--guide_line"></line><line x1="99" x2="99" y1="1" y2="99" class="stroke_order_diagram--bounding_box"></line><path id="kvg:05a66-s1" kvg:type="㇛" d="M24.28,20.62c0.47,1.38,0.49,2.91,0.37,4.52c-0.77,10.11-3.88,25.67-7.42,38.02c-0.35,1.21-0.44,2.4,1.12,2.8c5.41,1.41,9.78,3.79,14.64,8.05c2.07,1.82,4.14,4.24,6.02,6.99" transform="matrix(1,0,0,1,-4,-4)" class="stroke_order_diagram--current_path"></path><path id="pathSk2v596cn1whl" kvg:type="㇛" d="M24.28,20.62c0.47,1.38,0.49,2.91,0.37,4.52c-0.77,10.11-3.88,25.67-7.42,38.02c-0.35,1.21-0.44,2.4,1.12,2.8c5.41,1.41,9.78,3.79,14.64,8.05c2.07,1.82,4.14,4.24,6.02,6.99" transform="matrix(1,0,0,1,-4,-4)" class="stroke_order_diagram--current_path"></path><circle cx="24.28" cy="20.62" r="8" class="stroke_order_diagram--path_start" transform="matrix(1,0,0,1,-4,-4)"></circle><line x1="150" x2="150" y1="1" y2="99" class="stroke_order_diagram--guide_line"></line><line x1="199" x2="199" y1="1" y2="99" class="stroke_order_diagram--bounding_box"></line><path id="pathSk2v596cn1who" kvg:type="㇛" d="M24.28,20.62c0.47,1.38,0.49,2.91,0.37,4.52c-0.77,10.11-3.88,25.67-7.42,38.02c-0.35,1.21-0.44,2.4,1.12,2.8c5.41,1.41,9.78,3.79,14.64,8.05c2.07,1.82,4.14,4.24,6.02,6.99" transform="matrix(1,0,0,1,96,-4)" class="stroke_order_diagram--existing_path"></path><path id="kvg:05a66-s2" kvg:type="㇒" d="M37.26,38.75c0.49,1.12,0.63,3.09,0.35,4.82C35.35,57.54,30,76.88,13.25,89" transform="matrix(1,0,0,1,96,-4)" class="stroke_order_diagram--current_path"></path><path id="pathSk2v596cn1whq" kvg:type="㇒" d="M37.26,38.75c0.49,1.12,0.63,3.09,0.35,4.82C35.35,57.54,30,76.88,13.25,89" transform="matrix(1,0,0,1,96,-4)" class="stroke_order_diagram--current_path"></path><circle cx="37.26" cy="38.75" r="8" class="stroke_order_diagram--path_start" transform="matrix(1,0,0,1,96,-4)"></circle><line x1="250" x2="250" y1="1" y2="99" class="stroke_order_diagram--guide_line"></line><line x1="299" x2="299" y1="1" y2="99" class="stroke_order_diagram--bounding_box"></line><path id="pathSk2v596cn1wht" kvg:type="㇛" d="M24.28,20.62c0.47,1.38,0.49,2.91,0.37,4.52c-0.77,10.11-3.88,25.67-7.42,38.02c-0.35,1.21-0.44,2.4,1.12,2.8c5.41,1.41,9.78,3.79,14.64,8.05c2.07,1.82,4.14,4.24,6.02,6.99" transform="matrix(1,0,0,1,196,-4)" class="stroke_order_diagram--existing_path"></path><path id="pathSk2v596cn1whu" kvg:type="㇒" d="M37.26,38.75c0.49,1.12,0.63,3.09,0.35,4.82C35.35,57.54,30,76.88,13.25,89" transform="matrix(1,0,0,1,196,-4)" class="stroke_order_diagram--existing_path"></path><path id="kvg:05a66-s3" kvg:type="㇀/㇐" d="M10.25,48.96C11,50,12.04,50.24,14,49.75c4.5-1.12,18.38-4.5,29.75-7.28" transform="matrix(1,0,0,1,196,-4)" class="stroke_order_diagram--current_path"></path><path id="pathSk2v596cn1whw" kvg:type="㇀/㇐" d="M10.25,48.96C11,50,12.04,50.24,14,49.75c4.5-1.12,18.38-4.5,29.75-7.28" transform="matrix(1,0,0,1,196,-4)" class="stroke_order_diagram--current_path"></path><circle cx="10.25" cy="48.96" r="8" class="stroke_order_diagram--path_start" transform="matrix(1,0,0,1,196,-4)"></circle><line x1="350" x2="350" y1="1" y2="99" class="stroke_order_diagram--guide_line"></line><line x1="399" x2="399" y1="1" y2="99" class="stroke_order_diagram--bounding_box"></line><path id="pathSk2v596cn1whz" kvg:type="㇛" d="M24.28,20.62c0.47,1.38,0.49,2.91,0.37,4.52c-0.77,10.11-3.88,25.67-7.42,38.02c-0.35,1.21-0.44,2.4,1.12,2.8c5.41,1.41,9.78,3.79,14.64,8.05c2.07,1.82,4.14,4.24,6.02,6.99" transform="matrix(1,0,0,1,296,-4)" class="stroke_order_diagram--existing_path"></path><path id="pathSk2v596cn1wi0" kvg:type="㇒" d="M37.26,38.75c0.49,1.12,0.63,3.09,0.35,4.82C35.35,57.54,30,76.88,13.25,89" transform="matrix(1,0,0,1,296,-4)" class="stroke_order_diagram--existing_path"></path><path id="pathSk2v596cn1wi1" kvg:type="㇀/㇐" d="M10.25,48.96C11,50,12.04,50.24,14,49.75c4.5-1.12,18.38-4.5,29.75-7.28" transform="matrix(1,0,0,1,296,-4)" class="stroke_order_diagram--existing_path"></path><path id="kvg:05a66-s4" kvg:type="㇕c" d="M51.66,16.01c1.46,0.36,3.43,0.54,4.41,0.45c5.05-0.47,27.08-2.62,28.66-2.86c2.39-0.36,3.64,0.52,2.91,3.13c-1.19,4.26-3.7,13.16-4.92,18.07" transform="matrix(1,0,0,1,296,-4)" class="stroke_order_diagram--current_path"></path><path id="pathSk2v596cn1wi3" kvg:type="㇕c" d="M51.66,16.01c1.46,0.36,3.43,0.54,4.41,0.45c5.05-0.47,27.08-2.62,28.66-2.86c2.39-0.36,3.64,0.52,2.91,3.13c-1.19,4.26-3.7,13.16-4.92,18.07" transform="matrix(1,0,0,1,296,-4)" class="stroke_order_diagram--current_path"></path><circle cx="51.66" cy="16.01" r="8" class="stroke_order_diagram--path_start" transform="matrix(1,0,0,1,296,-4)"></circle><line x1="450" x2="450" y1="1" y2="99" class="stroke_order_diagram--guide_line"></line><line x1="499" x2="499" y1="1" y2="99" class="stroke_order_diagram--bounding_box"></line><path id="pathSk2v596cn1wi6" kvg:type="㇛" d="M24.28,20.62c0.47,1.38,0.49,2.91,0.37,4.52c-0.77,10.11-3.88,25.67-7.42,38.02c-0.35,1.21-0.44,2.4,1.12,2.8c5.41,1.41,9.78,3.79,14.64,8.05c2.07,1.82,4.14,4.24,6.02,6.99" transform="matrix(1,0,0,1,396,-4)" class="stroke_order_diagram--existing_path"></path><path id="pathSk2v596cn1wi7" kvg:type="㇒" d="M37.26,38.75c0.49,1.12,0.63,3.09,0.35,4.82C35.35,57.54,30,76.88,13.25,89" transform="matrix(1,0,0,1,396,-4)" class="stroke_order_diagram--existing_path"></path><path id="pathSk2v596cn1wi8" kvg:type="㇀/㇐" d="M10.25,48.96C11,50,12.04,50.24,14,49.75c4.5-1.12,18.38-4.5,29.75-7.28" transform="matrix(1,0,0,1,396,-4)" class="stroke_order_diagram--existing_path"></path><path id="pathSk2v596cn1wi9" kvg:type="㇕c" d="M51.66,16.01c1.46,0.36,3.43,0.54,4.41,0.45c5.05-0.47,27.08-2.62,28.66-2.86c2.39-0.36,3.64,0.52,2.91,3.13c-1.19,4.26-3.7,13.16-4.92,18.07" transform="matrix(1,0,0,1,396,-4)" class="stroke_order_diagram--existing_path"></path><path id="kvg:05a66-s5" kvg:type="㇐c" d="M50.29,26.59c1.59,0.53,4.05,0.56,5.85,0.42c10.9-0.86,18.38-1.92,28.29-2.69" transform="matrix(1,0,0,1,396,-4)" class="stroke_order_diagram--current_path"></path><path id="pathSk2v596cn1wib" kvg:type="㇐c" d="M50.29,26.59c1.59,0.53,4.05,0.56,5.85,0.42c10.9-0.86,18.38-1.92,28.29-2.69" transform="matrix(1,0,0,1,396,-4)" class="stroke_order_diagram--current_path"></path><circle cx="50.29" cy="26.59" r="8" class="stroke_order_diagram--path_start" transform="matrix(1,0,0,1,396,-4)"></circle><line x1="550" x2="550" y1="1" y2="99" class="stroke_order_diagram--guide_line"></line><line x1="599" x2="599" y1="1" y2="99" class="stroke_order_diagram--bounding_box"></line><path id="pathSk2v596cn1wie" kvg:type="㇛" d="M24.28,20.62c0.47,1.38,0.49,2.91,0.37,4.52c-0.77,10.11-3.88,25.67-7.42,38.02c-0.35,1.21-0.44,2.4,1.12,2.8c5.41,1.41,9.78,3.79,14.64,8.05c2.07,1.82,4.14,4.24,6.02,6.99" transform="matrix(1,0,0,1,496,-4)" class="stroke_order_diagram--existing_path"></path><path id="pathSk2v596cn1wif" kvg:type="㇒" d="M37.26,38.75c0.49,1.12,0.63,3.09,0.35,4.82C35.35,57.54,30,76.88,13.25,89" transform="matrix(1,0,0,1,496,-4)" class="stroke_order_diagram--existing_path"></path><path id="pathSk2v596cn1wig" kvg:type="㇀/㇐" d="M10.25,48.96C11,50,12.04,50.24,14,49.75c4.5-1.12,18.38-4.5,29.75-7.28" transform="matrix(1,0,0,1,496,-4)" class="stroke_order_diagram--existing_path"></path><path id="pathSk2v596cn1wih" kvg:type="㇕c" d="M51.66,16.01c1.46,0.36,3.43,0.54,4.41,0.45c5.05-0.47,27.08-2.62,28.66-2.86c2.39-0.36,3.64,0.52,2.91,3.13c-1.19,4.26-3.7,13.16-4.92,18.07" transform="matrix(1,0,0,1,496,-4)" class="stroke_order_diagram--existing_path"></path><path id="pathSk2v596cn1wii" kvg:type="㇐c" d="M50.29,26.59c1.59,0.53,4.05,0.56,5.85,0.42c10.9-0.86,18.38-1.92,28.29-2.69" transform="matrix(1,0,0,1,496,-4)" class="stroke_order_diagram--existing_path"></path><path id="kvg:05a66-s6" kvg:type="㇐" d="M51.75,38.62c1.83,0.57,4.05,0.11,5.89-0.09c7-0.76,14.7-1.98,23.39-2.52c1.33-0.08,2.82-0.02,3.98-0.14" transform="matrix(1,0,0,1,496,-4)" class="stroke_order_diagram--current_path"></path><path id="pathSk2v596cn1wik" kvg:type="㇐" d="M51.75,38.62c1.83,0.57,4.05,0.11,5.89-0.09c7-0.76,14.7-1.98,23.39-2.52c1.33-0.08,2.82-0.02,3.98-0.14" transform="matrix(1,0,0,1,496,-4)" class="stroke_order_diagram--current_path"></path><circle cx="51.75" cy="38.62" r="8" class="stroke_order_diagram--path_start" transform="matrix(1,0,0,1,496,-4)"></circle><line x1="650" x2="650" y1="1" y2="99" class="stroke_order_diagram--guide_line"></line><line x1="699" x2="699" y1="1" y2="99" class="stroke_order_diagram--bounding_box"></line><path id="pathSk2v596cn1win" kvg:type="㇛" d="M24.28,20.62c0.47,1.38,0.49,2.91,0.37,4.52c-0.77,10.11-3.88,25.67-7.42,38.02c-0.35,1.21-0.44,2.4,1.12,2.8c5.41,1.41,9.78,3.79,14.64,8.05c2.07,1.82,4.14,4.24,6.02,6.99" transform="matrix(1,0,0,1,596,-4)" class="stroke_order_diagram--existing_path"></path><path id="pathSk2v596cn1wio" kvg:type="㇒" d="M37.26,38.75c0.49,1.12,0.63,3.09,0.35,4.82C35.35,57.54,30,76.88,13.25,89" transform="matrix(1,0,0,1,596,-4)" class="stroke_order_diagram--existing_path"></path><path id="pathSk2v596cn1wip" kvg:type="㇀/㇐" d="M10.25,48.96C11,50,12.04,50.24,14,49.75c4.5-1.12,18.38-4.5,29.75-7.28" transform="matrix(1,0,0,1,596,-4)" class="stroke_order_diagram--existing_path"></path><path id="pathSk2v596cn1wiq" kvg:type="㇕c" d="M51.66,16.01c1.46,0.36,3.43,0.54,4.41,0.45c5.05-0.47,27.08-2.62,28.66-2.86c2.39-0.36,3.64,0.52,2.91,3.13c-1.19,4.26-3.7,13.16-4.92,18.07" transform="matrix(1,0,0,1,596,-4)" class="stroke_order_diagram--existing_path"></path><path id="pathSk2v596cn1wir" kvg:type="㇐c" d="M50.29,26.59c1.59,0.53,4.05,0.56,5.85,0.42c10.9-0.86,18.38-1.92,28.29-2.69" transform="matrix(1,0,0,1,596,-4)" class="stroke_order_diagram--existing_path"></path><path id="pathSk2v596cn1wis" kvg:type="㇐" d="M51.75,38.62c1.83,0.57,4.05,0.11,5.89-0.09c7-0.76,14.7-1.98,23.39-2.52c1.33-0.08,2.82-0.02,3.98-0.14" transform="matrix(1,0,0,1,596,-4)" class="stroke_order_diagram--existing_path"></path><path id="kvg:05a66-s7" kvg:type="㇔" d="M46.38,47.25c-0.15,3.61-3.75,13.06-5.03,15.21" transform="matrix(1,0,0,1,596,-4)" class="stroke_order_diagram--current_path"></path><path id="pathSk2v596cn1wiu" kvg:type="㇔" d="M46.38,47.25c-0.15,3.61-3.75,13.06-5.03,15.21" transform="matrix(1,0,0,1,596,-4)" class="stroke_order_diagram--current_path"></path><circle cx="46.38" cy="47.25" r="8" class="stroke_order_diagram--path_start" transform="matrix(1,0,0,1,596,-4)"></circle><line x1="750" x2="750" y1="1" y2="99" class="stroke_order_diagram--guide_line"></line><line x1="799" x2="799" y1="1" y2="99" class="stroke_order_diagram--bounding_box"></line><path id="pathSk2v596cn1wix" kvg:type="㇛" d="M24.28,20.62c0.47,1.38,0.49,2.91,0.37,4.52c-0.77,10.11-3.88,25.67-7.42,38.02c-0.35,1.21-0.44,2.4,1.12,2.8c5.41,1.41,9.78,3.79,14.64,8.05c2.07,1.82,4.14,4.24,6.02,6.99" transform="matrix(1,0,0,1,696,-4)" class="stroke_order_diagram--existing_path"></path><path id="pathSk2v596cn1wiy" kvg:type="㇒" d="M37.26,38.75c0.49,1.12,0.63,3.09,0.35,4.82C35.35,57.54,30,76.88,13.25,89" transform="matrix(1,0,0,1,696,-4)" class="stroke_order_diagram--existing_path"></path><path id="pathSk2v596cn1wiz" kvg:type="㇀/㇐" d="M10.25,48.96C11,50,12.04,50.24,14,49.75c4.5-1.12,18.38-4.5,29.75-7.28" transform="matrix(1,0,0,1,696,-4)" class="stroke_order_diagram--existing_path"></path><path id="pathSk2v596cn1wj0" kvg:type="㇕c" d="M51.66,16.01c1.46,0.36,3.43,0.54,4.41,0.45c5.05-0.47,27.08-2.62,28.66-2.86c2.39-0.36,3.64,0.52,2.91,3.13c-1.19,4.26-3.7,13.16-4.92,18.07" transform="matrix(1,0,0,1,696,-4)" class="stroke_order_diagram--existing_path"></path><path id="pathSk2v596cn1wj1" kvg:type="㇐c" d="M50.29,26.59c1.59,0.53,4.05,0.56,5.85,0.42c10.9-0.86,18.38-1.92,28.29-2.69" transform="matrix(1,0,0,1,696,-4)" class="stroke_order_diagram--existing_path"></path><path id="pathSk2v596cn1wj2" kvg:type="㇐" d="M51.75,38.62c1.83,0.57,4.05,0.11,5.89-0.09c7-0.76,14.7-1.98,23.39-2.52c1.33-0.08,2.82-0.02,3.98-0.14" transform="matrix(1,0,0,1,696,-4)" class="stroke_order_diagram--existing_path"></path><path id="pathSk2v596cn1wj3" kvg:type="㇔" d="M46.38,47.25c-0.15,3.61-3.75,13.06-5.03,15.21" transform="matrix(1,0,0,1,696,-4)" class="stroke_order_diagram--existing_path"></path><path id="kvg:05a66-s8" kvg:type="㇖b" d="M47.08,50.03c18.17-2.53,30.79-3.62,43.94-4.7c13.23-1.08,2.47,6.22,1.23,7.36" transform="matrix(1,0,0,1,696,-4)" class="stroke_order_diagram--current_path"></path><path id="pathSk2v596cn1wj5" kvg:type="㇖b" d="M47.08,50.03c18.17-2.53,30.79-3.62,43.94-4.7c13.23-1.08,2.47,6.22,1.23,7.36" transform="matrix(1,0,0,1,696,-4)" class="stroke_order_diagram--current_path"></path><circle cx="47.08" cy="50.03" r="8" class="stroke_order_diagram--path_start" transform="matrix(1,0,0,1,696,-4)"></circle><line x1="850" x2="850" y1="1" y2="99" class="stroke_order_diagram--guide_line"></line><line x1="899" x2="899" y1="1" y2="99" class="stroke_order_diagram--bounding_box"></line><path id="pathSk2v596cn1wj8" kvg:type="㇛" d="M24.28,20.62c0.47,1.38,0.49,2.91,0.37,4.52c-0.77,10.11-3.88,25.67-7.42,38.02c-0.35,1.21-0.44,2.4,1.12,2.8c5.41,1.41,9.78,3.79,14.64,8.05c2.07,1.82,4.14,4.24,6.02,6.99" transform="matrix(1,0,0,1,796,-4)" class="stroke_order_diagram--existing_path"></path><path id="pathSk2v596cn1wj9" kvg:type="㇒" d="M37.26,38.75c0.49,1.12,0.63,3.09,0.35,4.82C35.35,57.54,30,76.88,13.25,89" transform="matrix(1,0,0,1,796,-4)" class="stroke_order_diagram--existing_path"></path><path id="pathSk2v596cn1wja" kvg:type="㇀/㇐" d="M10.25,48.96C11,50,12.04,50.24,14,49.75c4.5-1.12,18.38-4.5,29.75-7.28" transform="matrix(1,0,0,1,796,-4)" class="stroke_order_diagram--existing_path"></path><path id="pathSk2v596cn1wjb" kvg:type="㇕c" d="M51.66,16.01c1.46,0.36,3.43,0.54,4.41,0.45c5.05-0.47,27.08-2.62,28.66-2.86c2.39-0.36,3.64,0.52,2.91,3.13c-1.19,4.26-3.7,13.16-4.92,18.07" transform="matrix(1,0,0,1,796,-4)" class="stroke_order_diagram--existing_path"></path><path id="pathSk2v596cn1wjc" kvg:type="㇐c" d="M50.29,26.59c1.59,0.53,4.05,0.56,5.85,0.42c10.9-0.86,18.38-1.92,28.29-2.69" transform="matrix(1,0,0,1,796,-4)" class="stroke_order_diagram--existing_path"></path><path id="pathSk2v596cn1wjd" kvg:type="㇐" d="M51.75,38.62c1.83,0.57,4.05,0.11,5.89-0.09c7-0.76,14.7-1.98,23.39-2.52c1.33-0.08,2.82-0.02,3.98-0.14" transform="matrix(1,0,0,1,796,-4)" class="stroke_order_diagram--existing_path"></path><path id="pathSk2v596cn1wje" kvg:type="㇔" d="M46.38,47.25c-0.15,3.61-3.75,13.06-5.03,15.21" transform="matrix(1,0,0,1,796,-4)" class="stroke_order_diagram--existing_path"></path><path id="pathSk2v596cn1wjf" kvg:type="㇖b" d="M47.08,50.03c18.17-2.53,30.79-3.62,43.94-4.7c13.23-1.08,2.47,6.22,1.23,7.36" transform="matrix(1,0,0,1,796,-4)" class="stroke_order_diagram--existing_path"></path><path id="kvg:05a66-s9" kvg:type="㇑" d="M53.41,61.11c0.68,0.68,1.27,1.89,1.27,2.76c0,0.42-0.01,11.6-0.09,18.13c-0.02,1.74-0.04,3.11-0.06,3.81" transform="matrix(1,0,0,1,796,-4)" class="stroke_order_diagram--current_path"></path><path id="pathSk2v596cn1wjh" kvg:type="㇑" d="M53.41,61.11c0.68,0.68,1.27,1.89,1.27,2.76c0,0.42-0.01,11.6-0.09,18.13c-0.02,1.74-0.04,3.11-0.06,3.81" transform="matrix(1,0,0,1,796,-4)" class="stroke_order_diagram--current_path"></path><circle cx="53.41" cy="61.11" r="8" class="stroke_order_diagram--path_start" transform="matrix(1,0,0,1,796,-4)"></circle><line x1="950" x2="950" y1="1" y2="99" class="stroke_order_diagram--guide_line"></line><line x1="999" x2="999" y1="1" y2="99" class="stroke_order_diagram--bounding_box"></line><path id="pathSk2v596cn1wjk" kvg:type="㇛" d="M24.28,20.62c0.47,1.38,0.49,2.91,0.37,4.52c-0.77,10.11-3.88,25.67-7.42,38.02c-0.35,1.21-0.44,2.4,1.12,2.8c5.41,1.41,9.78,3.79,14.64,8.05c2.07,1.82,4.14,4.24,6.02,6.99" transform="matrix(1,0,0,1,896,-4)" class="stroke_order_diagram--existing_path"></path><path id="pathSk2v596cn1wjl" kvg:type="㇒" d="M37.26,38.75c0.49,1.12,0.63,3.09,0.35,4.82C35.35,57.54,30,76.88,13.25,89" transform="matrix(1,0,0,1,896,-4)" class="stroke_order_diagram--existing_path"></path><path id="pathSk2v596cn1wjm" kvg:type="㇀/㇐" d="M10.25,48.96C11,50,12.04,50.24,14,49.75c4.5-1.12,18.38-4.5,29.75-7.28" transform="matrix(1,0,0,1,896,-4)" class="stroke_order_diagram--existing_path"></path><path id="pathSk2v596cn1wjn" kvg:type="㇕c" d="M51.66,16.01c1.46,0.36,3.43,0.54,4.41,0.45c5.05-0.47,27.08-2.62,28.66-2.86c2.39-0.36,3.64,0.52,2.91,3.13c-1.19,4.26-3.7,13.16-4.92,18.07" transform="matrix(1,0,0,1,896,-4)" class="stroke_order_diagram--existing_path"></path><path id="pathSk2v596cn1wjo" kvg:type="㇐c" d="M50.29,26.59c1.59,0.53,4.05,0.56,5.85,0.42c10.9-0.86,18.38-1.92,28.29-2.69" transform="matrix(1,0,0,1,896,-4)" class="stroke_order_diagram--existing_path"></path><path id="pathSk2v596cn1wjp" kvg:type="㇐" d="M51.75,38.62c1.83,0.57,4.05,0.11,5.89-0.09c7-0.76,14.7-1.98,23.39-2.52c1.33-0.08,2.82-0.02,3.98-0.14" transform="matrix(1,0,0,1,896,-4)" class="stroke_order_diagram--existing_path"></path><path id="pathSk2v596cn1wjq" kvg:type="㇔" d="M46.38,47.25c-0.15,3.61-3.75,13.06-5.03,15.21" transform="matrix(1,0,0,1,896,-4)" class="stroke_order_diagram--existing_path"></path><path id="pathSk2v596cn1wjr" kvg:type="㇖b" d="M47.08,50.03c18.17-2.53,30.79-3.62,43.94-4.7c13.23-1.08,2.47,6.22,1.23,7.36" transform="matrix(1,0,0,1,896,-4)" class="stroke_order_diagram--existing_path"></path><path id="pathSk2v596cn1wjs" kvg:type="㇑" d="M53.41,61.11c0.68,0.68,1.27,1.89,1.27,2.76c0,0.42-0.01,11.6-0.09,18.13c-0.02,1.74-0.04,3.11-0.06,3.81" transform="matrix(1,0,0,1,896,-4)" class="stroke_order_diagram--existing_path"></path><path id="kvg:05a66-s10" kvg:type="㇆a" d="M55.59,62.77c5.66-0.77,26.77-3.67,28.92-3.78c2.52-0.13,3.47,2.32,3.48,3.53C88,68.5,87.9,73.87,87.9,79.83c0,10.29-5.65,2.17-6.75,1.12" transform="matrix(1,0,0,1,896,-4)" class="stroke_order_diagram--current_path"></path><path id="pathSk2v596cn1wju" kvg:type="㇆a" d="M55.59,62.77c5.66-0.77,26.77-3.67,28.92-3.78c2.52-0.13,3.47,2.32,3.48,3.53C88,68.5,87.9,73.87,87.9,79.83c0,10.29-5.65,2.17-6.75,1.12" transform="matrix(1,0,0,1,896,-4)" class="stroke_order_diagram--current_path"></path><circle cx="55.59" cy="62.77" r="8" class="stroke_order_diagram--path_start" transform="matrix(1,0,0,1,896,-4)"></circle><line x1="1050" x2="1050" y1="1" y2="99" class="stroke_order_diagram--guide_line"></line><line x1="1099" x2="1099" y1="1" y2="99" class="stroke_order_diagram--bounding_box"></line><path id="pathSk2v596cn1wjx" kvg:type="㇛" d="M24.28,20.62c0.47,1.38,0.49,2.91,0.37,4.52c-0.77,10.11-3.88,25.67-7.42,38.02c-0.35,1.21-0.44,2.4,1.12,2.8c5.41,1.41,9.78,3.79,14.64,8.05c2.07,1.82,4.14,4.24,6.02,6.99" transform="matrix(1,0,0,1,996,-4)" class="stroke_order_diagram--existing_path"></path><path id="pathSk2v596cn1wjy" kvg:type="㇒" d="M37.26,38.75c0.49,1.12,0.63,3.09,0.35,4.82C35.35,57.54,30,76.88,13.25,89" transform="matrix(1,0,0,1,996,-4)" class="stroke_order_diagram--existing_path"></path><path id="pathSk2v596cn1wjz" kvg:type="㇀/㇐" d="M10.25,48.96C11,50,12.04,50.24,14,49.75c4.5-1.12,18.38-4.5,29.75-7.28" transform="matrix(1,0,0,1,996,-4)" class="stroke_order_diagram--existing_path"></path><path id="pathSk2v596cn1wk0" kvg:type="㇕c" d="M51.66,16.01c1.46,0.36,3.43,0.54,4.41,0.45c5.05-0.47,27.08-2.62,28.66-2.86c2.39-0.36,3.64,0.52,2.91,3.13c-1.19,4.26-3.7,13.16-4.92,18.07" transform="matrix(1,0,0,1,996,-4)" class="stroke_order_diagram--existing_path"></path><path id="pathSk2v596cn1wk1" kvg:type="㇐c" d="M50.29,26.59c1.59,0.53,4.05,0.56,5.85,0.42c10.9-0.86,18.38-1.92,28.29-2.69" transform="matrix(1,0,0,1,996,-4)" class="stroke_order_diagram--existing_path"></path><path id="pathSk2v596cn1wk2" kvg:type="㇐" d="M51.75,38.62c1.83,0.57,4.05,0.11,5.89-0.09c7-0.76,14.7-1.98,23.39-2.52c1.33-0.08,2.82-0.02,3.98-0.14" transform="matrix(1,0,0,1,996,-4)" class="stroke_order_diagram--existing_path"></path><path id="pathSk2v596cn1wk3" kvg:type="㇔" d="M46.38,47.25c-0.15,3.61-3.75,13.06-5.03,15.21" transform="matrix(1,0,0,1,996,-4)" class="stroke_order_diagram--existing_path"></path><path id="pathSk2v596cn1wk4" kvg:type="㇖b" d="M47.08,50.03c18.17-2.53,30.79-3.62,43.94-4.7c13.23-1.08,2.47,6.22,1.23,7.36" transform="matrix(1,0,0,1,996,-4)" class="stroke_order_diagram--existing_path"></path><path id="pathSk2v596cn1wk5" kvg:type="㇑" d="M53.41,61.11c0.68,0.68,1.27,1.89,1.27,2.76c0,0.42-0.01,11.6-0.09,18.13c-0.02,1.74-0.04,3.11-0.06,3.81" transform="matrix(1,0,0,1,996,-4)" class="stroke_order_diagram--existing_path"></path><path id="pathSk2v596cn1wk6" kvg:type="㇆a" d="M55.59,62.77c5.66-0.77,26.77-3.67,28.92-3.78c2.52-0.13,3.47,2.32,3.48,3.53C88,68.5,87.9,73.87,87.9,79.83c0,10.29-5.65,2.17-6.75,1.12" transform="matrix(1,0,0,1,996,-4)" class="stroke_order_diagram--existing_path"></path><path id="kvg:05a66-s11" kvg:type="㇑" d="M69.05,50.35c0.61,0.61,1.25,1.65,1.25,3.01c0,0.43-0.01,27.43-0.07,39.64c-0.02,2.98-0.03,5.1-0.05,5.74" transform="matrix(1,0,0,1,996,-4)" class="stroke_order_diagram--current_path"></path><path id="pathSk2v596cn1wk8" kvg:type="㇑" d="M69.05,50.35c0.61,0.61,1.25,1.65,1.25,3.01c0,0.43-0.01,27.43-0.07,39.64c-0.02,2.98-0.03,5.1-0.05,5.74" transform="matrix(1,0,0,1,996,-4)" class="stroke_order_diagram--current_path"></path><circle cx="69.05" cy="50.35" r="8" class="stroke_order_diagram--path_start" transform="matrix(1,0,0,1,996,-4)"></circle></svg>