<svg style="width: 1300px; height: 100px;" viewbox="0 0 1300 100"><style>
.stroke_order_diagram--outer_container {
  width: 100%;
  overflow-x: auto;
  overflow-y: hidden;
}

.stroke_order_diagram--guide_line {
  fill: none;
  stroke: #ddd;
  stroke-width: 3;
  stroke-linecap: square;
  stroke-linejoin: square;
  stroke-dasharray:8, 8;
}

.stroke_order_diagram--bounding_box {
  fill: none;
  stroke: #ddd;
  stroke-width: 4;
  stroke-linecap: square;
  stroke-linejoin: square;
}

.stroke_order_diagram--current_path {
  fill: none;
  stroke: #000;
  stroke-width: 6;
  stroke-linecap: round;
  stroke-linejoin: round;
}

.stroke_order_diagram--existing_path {
  fill: none;
  stroke: #aaa;
  stroke-width: 6;
  stroke-linecap: round;
  stroke-linejoin:round;
}

.stroke_order_diagram--path_start {
  fill: rgba(255, 0, 0, 0.7);
  stroke:none
}</style><desc>Created with Snap</desc><defs></defs><line x1="1" x2="1299" y1="1" y2="1" class="stroke_order_diagram--bounding_box"></line><line x1="1" x2="1" y1="1" y2="99" class="stroke_order_diagram--bounding_box"></line><line x1="1" x2="1299" y1="99" y2="99" class="stroke_order_diagram--bounding_box"></line><line x1="0" x2="1300" y1="50" y2="50" class="stroke_order_diagram--guide_line"></line><line x1="50" x2="50" y1="1" y2="99" class="stroke_order_diagram--guide_line"></line><line x1="99" x2="99" y1="1" y2="99" class="stroke_order_diagram--bounding_box"></line><path id="kvg:05acc-s1" kvg:type="㇛" d="M28.25,19.87c0.37,0.97,0.53,2.55,0.34,3.95c-0.93,6.88-5.72,25.56-10.56,34.62c-0.87,1.63-0.65,2.52,0.84,2.95c6.5,1.86,11,5.36,14.85,9.63c1.8,2,3.22,4.38,4.86,6.73" transform="matrix(1,0,0,1,-4,-4)" class="stroke_order_diagram--current_path"></path><path id="pathSk2v596cn18re" kvg:type="㇛" d="M28.25,19.87c0.37,0.97,0.53,2.55,0.34,3.95c-0.93,6.88-5.72,25.56-10.56,34.62c-0.87,1.63-0.65,2.52,0.84,2.95c6.5,1.86,11,5.36,14.85,9.63c1.8,2,3.22,4.38,4.86,6.73" transform="matrix(1,0,0,1,-4,-4)" class="stroke_order_diagram--current_path"></path><circle cx="28.25" cy="19.87" r="8" class="stroke_order_diagram--path_start" transform="matrix(1,0,0,1,-4,-4)"></circle><line x1="150" x2="150" y1="1" y2="99" class="stroke_order_diagram--guide_line"></line><line x1="199" x2="199" y1="1" y2="99" class="stroke_order_diagram--bounding_box"></line><path id="pathSk2v596cn18rh" kvg:type="㇛" d="M28.25,19.87c0.37,0.97,0.53,2.55,0.34,3.95c-0.93,6.88-5.72,25.56-10.56,34.62c-0.87,1.63-0.65,2.52,0.84,2.95c6.5,1.86,11,5.36,14.85,9.63c1.8,2,3.22,4.38,4.86,6.73" transform="matrix(1,0,0,1,96,-4)" class="stroke_order_diagram--existing_path"></path><path id="kvg:05acc-s2" kvg:type="㇒" d="M37.12,36.53c0.08,1.18,0.13,3.05-0.15,4.76C34.68,55.11,29.75,73.25,12.74,86" transform="matrix(1,0,0,1,96,-4)" class="stroke_order_diagram--current_path"></path><path id="pathSk2v596cn18rj" kvg:type="㇒" d="M37.12,36.53c0.08,1.18,0.13,3.05-0.15,4.76C34.68,55.11,29.75,73.25,12.74,86" transform="matrix(1,0,0,1,96,-4)" class="stroke_order_diagram--current_path"></path><circle cx="37.12" cy="36.53" r="8" class="stroke_order_diagram--path_start" transform="matrix(1,0,0,1,96,-4)"></circle><line x1="250" x2="250" y1="1" y2="99" class="stroke_order_diagram--guide_line"></line><line x1="299" x2="299" y1="1" y2="99" class="stroke_order_diagram--bounding_box"></line><path id="pathSk2v596cn18rm" kvg:type="㇛" d="M28.25,19.87c0.37,0.97,0.53,2.55,0.34,3.95c-0.93,6.88-5.72,25.56-10.56,34.62c-0.87,1.63-0.65,2.52,0.84,2.95c6.5,1.86,11,5.36,14.85,9.63c1.8,2,3.22,4.38,4.86,6.73" transform="matrix(1,0,0,1,196,-4)" class="stroke_order_diagram--existing_path"></path><path id="pathSk2v596cn18rn" kvg:type="㇒" d="M37.12,36.53c0.08,1.18,0.13,3.05-0.15,4.76C34.68,55.11,29.75,73.25,12.74,86" transform="matrix(1,0,0,1,196,-4)" class="stroke_order_diagram--existing_path"></path><path id="kvg:05acc-s3" kvg:type="㇀/㇐" d="M12.25,45.18c0.5,1.07,1.46,1.52,3.31,1.05c2.82-0.72,16.25-3.8,24.69-6.02" transform="matrix(1,0,0,1,196,-4)" class="stroke_order_diagram--current_path"></path><path id="pathSk2v596cn18rp" kvg:type="㇀/㇐" d="M12.25,45.18c0.5,1.07,1.46,1.52,3.31,1.05c2.82-0.72,16.25-3.8,24.69-6.02" transform="matrix(1,0,0,1,196,-4)" class="stroke_order_diagram--current_path"></path><circle cx="12.25" cy="45.18" r="8" class="stroke_order_diagram--path_start" transform="matrix(1,0,0,1,196,-4)"></circle><line x1="350" x2="350" y1="1" y2="99" class="stroke_order_diagram--guide_line"></line><line x1="399" x2="399" y1="1" y2="99" class="stroke_order_diagram--bounding_box"></line><path id="pathSk2v596cn18rs" kvg:type="㇛" d="M28.25,19.87c0.37,0.97,0.53,2.55,0.34,3.95c-0.93,6.88-5.72,25.56-10.56,34.62c-0.87,1.63-0.65,2.52,0.84,2.95c6.5,1.86,11,5.36,14.85,9.63c1.8,2,3.22,4.38,4.86,6.73" transform="matrix(1,0,0,1,296,-4)" class="stroke_order_diagram--existing_path"></path><path id="pathSk2v596cn18rt" kvg:type="㇒" d="M37.12,36.53c0.08,1.18,0.13,3.05-0.15,4.76C34.68,55.11,29.75,73.25,12.74,86" transform="matrix(1,0,0,1,296,-4)" class="stroke_order_diagram--existing_path"></path><path id="pathSk2v596cn18ru" kvg:type="㇀/㇐" d="M12.25,45.18c0.5,1.07,1.46,1.52,3.31,1.05c2.82-0.72,16.25-3.8,24.69-6.02" transform="matrix(1,0,0,1,296,-4)" class="stroke_order_diagram--existing_path"></path><path id="kvg:05acc-s4" kvg:type="㇔" d="M50.12,15.12c2.67,2.08,6.9,8.55,7.56,11.79" transform="matrix(1,0,0,1,296,-4)" class="stroke_order_diagram--current_path"></path><path id="pathSk2v596cn18rw" kvg:type="㇔" d="M50.12,15.12c2.67,2.08,6.9,8.55,7.56,11.79" transform="matrix(1,0,0,1,296,-4)" class="stroke_order_diagram--current_path"></path><circle cx="50.12" cy="15.12" r="8" class="stroke_order_diagram--path_start" transform="matrix(1,0,0,1,296,-4)"></circle><line x1="450" x2="450" y1="1" y2="99" class="stroke_order_diagram--guide_line"></line><line x1="499" x2="499" y1="1" y2="99" class="stroke_order_diagram--bounding_box"></line><path id="pathSk2v596cn18rz" kvg:type="㇛" d="M28.25,19.87c0.37,0.97,0.53,2.55,0.34,3.95c-0.93,6.88-5.72,25.56-10.56,34.62c-0.87,1.63-0.65,2.52,0.84,2.95c6.5,1.86,11,5.36,14.85,9.63c1.8,2,3.22,4.38,4.86,6.73" transform="matrix(1,0,0,1,396,-4)" class="stroke_order_diagram--existing_path"></path><path id="pathSk2v596cn18s0" kvg:type="㇒" d="M37.12,36.53c0.08,1.18,0.13,3.05-0.15,4.76C34.68,55.11,29.75,73.25,12.74,86" transform="matrix(1,0,0,1,396,-4)" class="stroke_order_diagram--existing_path"></path><path id="pathSk2v596cn18s1" kvg:type="㇀/㇐" d="M12.25,45.18c0.5,1.07,1.46,1.52,3.31,1.05c2.82-0.72,16.25-3.8,24.69-6.02" transform="matrix(1,0,0,1,396,-4)" class="stroke_order_diagram--existing_path"></path><path id="pathSk2v596cn18s2" kvg:type="㇔" d="M50.12,15.12c2.67,2.08,6.9,8.55,7.56,11.79" transform="matrix(1,0,0,1,396,-4)" class="stroke_order_diagram--existing_path"></path><path id="kvg:05acc-s5" kvg:type="㇒" d="M78.11,11.89c0.07,0.78-0.41,1.57-0.74,2.27c-1.5,3.21-3.55,6.34-8.02,11.67" transform="matrix(1,0,0,1,396,-4)" class="stroke_order_diagram--current_path"></path><path id="pathSk2v596cn18s4" kvg:type="㇒" d="M78.11,11.89c0.07,0.78-0.41,1.57-0.74,2.27c-1.5,3.21-3.55,6.34-8.02,11.67" transform="matrix(1,0,0,1,396,-4)" class="stroke_order_diagram--current_path"></path><circle cx="78.11" cy="11.89" r="8" class="stroke_order_diagram--path_start" transform="matrix(1,0,0,1,396,-4)"></circle><line x1="550" x2="550" y1="1" y2="99" class="stroke_order_diagram--guide_line"></line><line x1="599" x2="599" y1="1" y2="99" class="stroke_order_diagram--bounding_box"></line><path id="pathSk2v596cn18s7" kvg:type="㇛" d="M28.25,19.87c0.37,0.97,0.53,2.55,0.34,3.95c-0.93,6.88-5.72,25.56-10.56,34.62c-0.87,1.63-0.65,2.52,0.84,2.95c6.5,1.86,11,5.36,14.85,9.63c1.8,2,3.22,4.38,4.86,6.73" transform="matrix(1,0,0,1,496,-4)" class="stroke_order_diagram--existing_path"></path><path id="pathSk2v596cn18s8" kvg:type="㇒" d="M37.12,36.53c0.08,1.18,0.13,3.05-0.15,4.76C34.68,55.11,29.75,73.25,12.74,86" transform="matrix(1,0,0,1,496,-4)" class="stroke_order_diagram--existing_path"></path><path id="pathSk2v596cn18s9" kvg:type="㇀/㇐" d="M12.25,45.18c0.5,1.07,1.46,1.52,3.31,1.05c2.82-0.72,16.25-3.8,24.69-6.02" transform="matrix(1,0,0,1,496,-4)" class="stroke_order_diagram--existing_path"></path><path id="pathSk2v596cn18sa" kvg:type="㇔" d="M50.12,15.12c2.67,2.08,6.9,8.55,7.56,11.79" transform="matrix(1,0,0,1,496,-4)" class="stroke_order_diagram--existing_path"></path><path id="pathSk2v596cn18sb" kvg:type="㇒" d="M78.11,11.89c0.07,0.78-0.41,1.57-0.74,2.27c-1.5,3.21-3.55,6.34-8.02,11.67" transform="matrix(1,0,0,1,496,-4)" class="stroke_order_diagram--existing_path"></path><path id="kvg:05acc-s6" kvg:type="㇐" d="M45.87,30.18c2.51,0.44,5.08,0.19,7.14-0.05c7.17-0.83,21.33-2.27,29.74-3.12c2.19-0.22,4.63-0.29,6.77,0.25" transform="matrix(1,0,0,1,496,-4)" class="stroke_order_diagram--current_path"></path><path id="pathSk2v596cn18sd" kvg:type="㇐" d="M45.87,30.18c2.51,0.44,5.08,0.19,7.14-0.05c7.17-0.83,21.33-2.27,29.74-3.12c2.19-0.22,4.63-0.29,6.77,0.25" transform="matrix(1,0,0,1,496,-4)" class="stroke_order_diagram--current_path"></path><circle cx="45.87" cy="30.18" r="8" class="stroke_order_diagram--path_start" transform="matrix(1,0,0,1,496,-4)"></circle><line x1="650" x2="650" y1="1" y2="99" class="stroke_order_diagram--guide_line"></line><line x1="699" x2="699" y1="1" y2="99" class="stroke_order_diagram--bounding_box"></line><path id="pathSk2v596cn18sg" kvg:type="㇛" d="M28.25,19.87c0.37,0.97,0.53,2.55,0.34,3.95c-0.93,6.88-5.72,25.56-10.56,34.62c-0.87,1.63-0.65,2.52,0.84,2.95c6.5,1.86,11,5.36,14.85,9.63c1.8,2,3.22,4.38,4.86,6.73" transform="matrix(1,0,0,1,596,-4)" class="stroke_order_diagram--existing_path"></path><path id="pathSk2v596cn18sh" kvg:type="㇒" d="M37.12,36.53c0.08,1.18,0.13,3.05-0.15,4.76C34.68,55.11,29.75,73.25,12.74,86" transform="matrix(1,0,0,1,596,-4)" class="stroke_order_diagram--existing_path"></path><path id="pathSk2v596cn18si" kvg:type="㇀/㇐" d="M12.25,45.18c0.5,1.07,1.46,1.52,3.31,1.05c2.82-0.72,16.25-3.8,24.69-6.02" transform="matrix(1,0,0,1,596,-4)" class="stroke_order_diagram--existing_path"></path><path id="pathSk2v596cn18sj" kvg:type="㇔" d="M50.12,15.12c2.67,2.08,6.9,8.55,7.56,11.79" transform="matrix(1,0,0,1,596,-4)" class="stroke_order_diagram--existing_path"></path><path id="pathSk2v596cn18sk" kvg:type="㇒" d="M78.11,11.89c0.07,0.78-0.41,1.57-0.74,2.27c-1.5,3.21-3.55,6.34-8.02,11.67" transform="matrix(1,0,0,1,596,-4)" class="stroke_order_diagram--existing_path"></path><path id="pathSk2v596cn18sl" kvg:type="㇐" d="M45.87,30.18c2.51,0.44,5.08,0.19,7.14-0.05c7.17-0.83,21.33-2.27,29.74-3.12c2.19-0.22,4.63-0.29,6.77,0.25" transform="matrix(1,0,0,1,596,-4)" class="stroke_order_diagram--existing_path"></path><path id="kvg:05acc-s7" kvg:type="㇕c" d="M48.13,42.38c2.05,0.34,4.02,0.41,6.12,0.14c8.58-1.12,18.59-2.45,26.37-3.09c2.57-0.21,4.09,0.84,3.6,3.7c-1,5.86-1.7,7.14-3.04,17.22" transform="matrix(1,0,0,1,596,-4)" class="stroke_order_diagram--current_path"></path><path id="pathSk2v596cn18sn" kvg:type="㇕c" d="M48.13,42.38c2.05,0.34,4.02,0.41,6.12,0.14c8.58-1.12,18.59-2.45,26.37-3.09c2.57-0.21,4.09,0.84,3.6,3.7c-1,5.86-1.7,7.14-3.04,17.22" transform="matrix(1,0,0,1,596,-4)" class="stroke_order_diagram--current_path"></path><circle cx="48.13" cy="42.38" r="8" class="stroke_order_diagram--path_start" transform="matrix(1,0,0,1,596,-4)"></circle><line x1="750" x2="750" y1="1" y2="99" class="stroke_order_diagram--guide_line"></line><line x1="799" x2="799" y1="1" y2="99" class="stroke_order_diagram--bounding_box"></line><path id="pathSk2v596cn18sq" kvg:type="㇛" d="M28.25,19.87c0.37,0.97,0.53,2.55,0.34,3.95c-0.93,6.88-5.72,25.56-10.56,34.62c-0.87,1.63-0.65,2.52,0.84,2.95c6.5,1.86,11,5.36,14.85,9.63c1.8,2,3.22,4.38,4.86,6.73" transform="matrix(1,0,0,1,696,-4)" class="stroke_order_diagram--existing_path"></path><path id="pathSk2v596cn18sr" kvg:type="㇒" d="M37.12,36.53c0.08,1.18,0.13,3.05-0.15,4.76C34.68,55.11,29.75,73.25,12.74,86" transform="matrix(1,0,0,1,696,-4)" class="stroke_order_diagram--existing_path"></path><path id="pathSk2v596cn18ss" kvg:type="㇀/㇐" d="M12.25,45.18c0.5,1.07,1.46,1.52,3.31,1.05c2.82-0.72,16.25-3.8,24.69-6.02" transform="matrix(1,0,0,1,696,-4)" class="stroke_order_diagram--existing_path"></path><path id="pathSk2v596cn18st" kvg:type="㇔" d="M50.12,15.12c2.67,2.08,6.9,8.55,7.56,11.79" transform="matrix(1,0,0,1,696,-4)" class="stroke_order_diagram--existing_path"></path><path id="pathSk2v596cn18su" kvg:type="㇒" d="M78.11,11.89c0.07,0.78-0.41,1.57-0.74,2.27c-1.5,3.21-3.55,6.34-8.02,11.67" transform="matrix(1,0,0,1,696,-4)" class="stroke_order_diagram--existing_path"></path><path id="pathSk2v596cn18sv" kvg:type="㇐" d="M45.87,30.18c2.51,0.44,5.08,0.19,7.14-0.05c7.17-0.83,21.33-2.27,29.74-3.12c2.19-0.22,4.63-0.29,6.77,0.25" transform="matrix(1,0,0,1,696,-4)" class="stroke_order_diagram--existing_path"></path><path id="pathSk2v596cn18sw" kvg:type="㇕c" d="M48.13,42.38c2.05,0.34,4.02,0.41,6.12,0.14c8.58-1.12,18.59-2.45,26.37-3.09c2.57-0.21,4.09,0.84,3.6,3.7c-1,5.86-1.7,7.14-3.04,17.22" transform="matrix(1,0,0,1,696,-4)" class="stroke_order_diagram--existing_path"></path><path id="kvg:05acc-s8" kvg:type="㇐" d="M42.25,53.1c2.6,0.34,5.03,0.39,7.62,0.07c13.51-1.67,25.44-2.96,35.88-3.63c2.7-0.17,5.1-0.21,7.75,0.41" transform="matrix(1,0,0,1,696,-4)" class="stroke_order_diagram--current_path"></path><path id="pathSk2v596cn18sy" kvg:type="㇐" d="M42.25,53.1c2.6,0.34,5.03,0.39,7.62,0.07c13.51-1.67,25.44-2.96,35.88-3.63c2.7-0.17,5.1-0.21,7.75,0.41" transform="matrix(1,0,0,1,696,-4)" class="stroke_order_diagram--current_path"></path><circle cx="42.25" cy="53.1" r="8" class="stroke_order_diagram--path_start" transform="matrix(1,0,0,1,696,-4)"></circle><line x1="850" x2="850" y1="1" y2="99" class="stroke_order_diagram--guide_line"></line><line x1="899" x2="899" y1="1" y2="99" class="stroke_order_diagram--bounding_box"></line><path id="pathSk2v596cn18t1" kvg:type="㇛" d="M28.25,19.87c0.37,0.97,0.53,2.55,0.34,3.95c-0.93,6.88-5.72,25.56-10.56,34.62c-0.87,1.63-0.65,2.52,0.84,2.95c6.5,1.86,11,5.36,14.85,9.63c1.8,2,3.22,4.38,4.86,6.73" transform="matrix(1,0,0,1,796,-4)" class="stroke_order_diagram--existing_path"></path><path id="pathSk2v596cn18t2" kvg:type="㇒" d="M37.12,36.53c0.08,1.18,0.13,3.05-0.15,4.76C34.68,55.11,29.75,73.25,12.74,86" transform="matrix(1,0,0,1,796,-4)" class="stroke_order_diagram--existing_path"></path><path id="pathSk2v596cn18t3" kvg:type="㇀/㇐" d="M12.25,45.18c0.5,1.07,1.46,1.52,3.31,1.05c2.82-0.72,16.25-3.8,24.69-6.02" transform="matrix(1,0,0,1,796,-4)" class="stroke_order_diagram--existing_path"></path><path id="pathSk2v596cn18t4" kvg:type="㇔" d="M50.12,15.12c2.67,2.08,6.9,8.55,7.56,11.79" transform="matrix(1,0,0,1,796,-4)" class="stroke_order_diagram--existing_path"></path><path id="pathSk2v596cn18t5" kvg:type="㇒" d="M78.11,11.89c0.07,0.78-0.41,1.57-0.74,2.27c-1.5,3.21-3.55,6.34-8.02,11.67" transform="matrix(1,0,0,1,796,-4)" class="stroke_order_diagram--existing_path"></path><path id="pathSk2v596cn18t6" kvg:type="㇐" d="M45.87,30.18c2.51,0.44,5.08,0.19,7.14-0.05c7.17-0.83,21.33-2.27,29.74-3.12c2.19-0.22,4.63-0.29,6.77,0.25" transform="matrix(1,0,0,1,796,-4)" class="stroke_order_diagram--existing_path"></path><path id="pathSk2v596cn18t7" kvg:type="㇕c" d="M48.13,42.38c2.05,0.34,4.02,0.41,6.12,0.14c8.58-1.12,18.59-2.45,26.37-3.09c2.57-0.21,4.09,0.84,3.6,3.7c-1,5.86-1.7,7.14-3.04,17.22" transform="matrix(1,0,0,1,796,-4)" class="stroke_order_diagram--existing_path"></path><path id="pathSk2v596cn18t8" kvg:type="㇐" d="M42.25,53.1c2.6,0.34,5.03,0.39,7.62,0.07c13.51-1.67,25.44-2.96,35.88-3.63c2.7-0.17,5.1-0.21,7.75,0.41" transform="matrix(1,0,0,1,796,-4)" class="stroke_order_diagram--existing_path"></path><path id="kvg:05acc-s9" kvg:type="㇐" d="M47.52,63.82c2.03,0.29,3.78,0.42,5.84,0.27c8.93-0.67,15.87-1.76,24.25-2.64c1.79-0.19,3.44-0.24,5.23-0.02" transform="matrix(1,0,0,1,796,-4)" class="stroke_order_diagram--current_path"></path><path id="pathSk2v596cn18ta" kvg:type="㇐" d="M47.52,63.82c2.03,0.29,3.78,0.42,5.84,0.27c8.93-0.67,15.87-1.76,24.25-2.64c1.79-0.19,3.44-0.24,5.23-0.02" transform="matrix(1,0,0,1,796,-4)" class="stroke_order_diagram--current_path"></path><circle cx="47.52" cy="63.82" r="8" class="stroke_order_diagram--path_start" transform="matrix(1,0,0,1,796,-4)"></circle><line x1="950" x2="950" y1="1" y2="99" class="stroke_order_diagram--guide_line"></line><line x1="999" x2="999" y1="1" y2="99" class="stroke_order_diagram--bounding_box"></line><path id="pathSk2v596cn18td" kvg:type="㇛" d="M28.25,19.87c0.37,0.97,0.53,2.55,0.34,3.95c-0.93,6.88-5.72,25.56-10.56,34.62c-0.87,1.63-0.65,2.52,0.84,2.95c6.5,1.86,11,5.36,14.85,9.63c1.8,2,3.22,4.38,4.86,6.73" transform="matrix(1,0,0,1,896,-4)" class="stroke_order_diagram--existing_path"></path><path id="pathSk2v596cn18te" kvg:type="㇒" d="M37.12,36.53c0.08,1.18,0.13,3.05-0.15,4.76C34.68,55.11,29.75,73.25,12.74,86" transform="matrix(1,0,0,1,896,-4)" class="stroke_order_diagram--existing_path"></path><path id="pathSk2v596cn18tf" kvg:type="㇀/㇐" d="M12.25,45.18c0.5,1.07,1.46,1.52,3.31,1.05c2.82-0.72,16.25-3.8,24.69-6.02" transform="matrix(1,0,0,1,896,-4)" class="stroke_order_diagram--existing_path"></path><path id="pathSk2v596cn18tg" kvg:type="㇔" d="M50.12,15.12c2.67,2.08,6.9,8.55,7.56,11.79" transform="matrix(1,0,0,1,896,-4)" class="stroke_order_diagram--existing_path"></path><path id="pathSk2v596cn18th" kvg:type="㇒" d="M78.11,11.89c0.07,0.78-0.41,1.57-0.74,2.27c-1.5,3.21-3.55,6.34-8.02,11.67" transform="matrix(1,0,0,1,896,-4)" class="stroke_order_diagram--existing_path"></path><path id="pathSk2v596cn18ti" kvg:type="㇐" d="M45.87,30.18c2.51,0.44,5.08,0.19,7.14-0.05c7.17-0.83,21.33-2.27,29.74-3.12c2.19-0.22,4.63-0.29,6.77,0.25" transform="matrix(1,0,0,1,896,-4)" class="stroke_order_diagram--existing_path"></path><path id="pathSk2v596cn18tj" kvg:type="㇕c" d="M48.13,42.38c2.05,0.34,4.02,0.41,6.12,0.14c8.58-1.12,18.59-2.45,26.37-3.09c2.57-0.21,4.09,0.84,3.6,3.7c-1,5.86-1.7,7.14-3.04,17.22" transform="matrix(1,0,0,1,896,-4)" class="stroke_order_diagram--existing_path"></path><path id="pathSk2v596cn18tk" kvg:type="㇐" d="M42.25,53.1c2.6,0.34,5.03,0.39,7.62,0.07c13.51-1.67,25.44-2.96,35.88-3.63c2.7-0.17,5.1-0.21,7.75,0.41" transform="matrix(1,0,0,1,896,-4)" class="stroke_order_diagram--existing_path"></path><path id="pathSk2v596cn18tl" kvg:type="㇐" d="M47.52,63.82c2.03,0.29,3.78,0.42,5.84,0.27c8.93-0.67,15.87-1.76,24.25-2.64c1.79-0.19,3.44-0.24,5.23-0.02" transform="matrix(1,0,0,1,896,-4)" class="stroke_order_diagram--existing_path"></path><path id="kvg:05acc-s10" kvg:type="㇑" d="M57.64,31.23c0.81,0.81,1.15,1.77,1.15,3.17c0,2.9,0.04,40.25,0.06,56.47c0,3.92,0.01,6.57,0.01,7.12" transform="matrix(1,0,0,1,896,-4)" class="stroke_order_diagram--current_path"></path><path id="pathSk2v596cn18tn" kvg:type="㇑" d="M57.64,31.23c0.81,0.81,1.15,1.77,1.15,3.17c0,2.9,0.04,40.25,0.06,56.47c0,3.92,0.01,6.57,0.01,7.12" transform="matrix(1,0,0,1,896,-4)" class="stroke_order_diagram--current_path"></path><circle cx="57.64" cy="31.23" r="8" class="stroke_order_diagram--path_start" transform="matrix(1,0,0,1,896,-4)"></circle><line x1="1050" x2="1050" y1="1" y2="99" class="stroke_order_diagram--guide_line"></line><line x1="1099" x2="1099" y1="1" y2="99" class="stroke_order_diagram--bounding_box"></line><path id="pathSk2v596cn18tq" kvg:type="㇛" d="M28.25,19.87c0.37,0.97,0.53,2.55,0.34,3.95c-0.93,6.88-5.72,25.56-10.56,34.62c-0.87,1.63-0.65,2.52,0.84,2.95c6.5,1.86,11,5.36,14.85,9.63c1.8,2,3.22,4.38,4.86,6.73" transform="matrix(1,0,0,1,996,-4)" class="stroke_order_diagram--existing_path"></path><path id="pathSk2v596cn18tr" kvg:type="㇒" d="M37.12,36.53c0.08,1.18,0.13,3.05-0.15,4.76C34.68,55.11,29.75,73.25,12.74,86" transform="matrix(1,0,0,1,996,-4)" class="stroke_order_diagram--existing_path"></path><path id="pathSk2v596cn18ts" kvg:type="㇀/㇐" d="M12.25,45.18c0.5,1.07,1.46,1.52,3.31,1.05c2.82-0.72,16.25-3.8,24.69-6.02" transform="matrix(1,0,0,1,996,-4)" class="stroke_order_diagram--existing_path"></path><path id="pathSk2v596cn18tt" kvg:type="㇔" d="M50.12,15.12c2.67,2.08,6.9,8.55,7.56,11.79" transform="matrix(1,0,0,1,996,-4)" class="stroke_order_diagram--existing_path"></path><path id="pathSk2v596cn18tu" kvg:type="㇒" d="M78.11,11.89c0.07,0.78-0.41,1.57-0.74,2.27c-1.5,3.21-3.55,6.34-8.02,11.67" transform="matrix(1,0,0,1,996,-4)" class="stroke_order_diagram--existing_path"></path><path id="pathSk2v596cn18tv" kvg:type="㇐" d="M45.87,30.18c2.51,0.44,5.08,0.19,7.14-0.05c7.17-0.83,21.33-2.27,29.74-3.12c2.19-0.22,4.63-0.29,6.77,0.25" transform="matrix(1,0,0,1,996,-4)" class="stroke_order_diagram--existing_path"></path><path id="pathSk2v596cn18tw" kvg:type="㇕c" d="M48.13,42.38c2.05,0.34,4.02,0.41,6.12,0.14c8.58-1.12,18.59-2.45,26.37-3.09c2.57-0.21,4.09,0.84,3.6,3.7c-1,5.86-1.7,7.14-3.04,17.22" transform="matrix(1,0,0,1,996,-4)" class="stroke_order_diagram--existing_path"></path><path id="pathSk2v596cn18tx" kvg:type="㇐" d="M42.25,53.1c2.6,0.34,5.03,0.39,7.62,0.07c13.51-1.67,25.44-2.96,35.88-3.63c2.7-0.17,5.1-0.21,7.75,0.41" transform="matrix(1,0,0,1,996,-4)" class="stroke_order_diagram--existing_path"></path><path id="pathSk2v596cn18ty" kvg:type="㇐" d="M47.52,63.82c2.03,0.29,3.78,0.42,5.84,0.27c8.93-0.67,15.87-1.76,24.25-2.64c1.79-0.19,3.44-0.24,5.23-0.02" transform="matrix(1,0,0,1,996,-4)" class="stroke_order_diagram--existing_path"></path><path id="pathSk2v596cn18tz" kvg:type="㇑" d="M57.64,31.23c0.81,0.81,1.15,1.77,1.15,3.17c0,2.9,0.04,40.25,0.06,56.47c0,3.92,0.01,6.57,0.01,7.12" transform="matrix(1,0,0,1,996,-4)" class="stroke_order_diagram--existing_path"></path><path id="kvg:05acc-s11" kvg:type="㇑" d="M69.11,29.81c0.85,0.85,1.15,2.17,1.15,3.17c0,4.13,0.04,39.52,0.06,56.77c0,4.89,0.01,7.17,0.01,8.28" transform="matrix(1,0,0,1,996,-4)" class="stroke_order_diagram--current_path"></path><path id="pathSk2v596cn18u1" kvg:type="㇑" d="M69.11,29.81c0.85,0.85,1.15,2.17,1.15,3.17c0,4.13,0.04,39.52,0.06,56.77c0,4.89,0.01,7.17,0.01,8.28" transform="matrix(1,0,0,1,996,-4)" class="stroke_order_diagram--current_path"></path><circle cx="69.11" cy="29.81" r="8" class="stroke_order_diagram--path_start" transform="matrix(1,0,0,1,996,-4)"></circle><line x1="1150" x2="1150" y1="1" y2="99" class="stroke_order_diagram--guide_line"></line><line x1="1199" x2="1199" y1="1" y2="99" class="stroke_order_diagram--bounding_box"></line><path id="pathSk2v596cn18u4" kvg:type="㇛" d="M28.25,19.87c0.37,0.97,0.53,2.55,0.34,3.95c-0.93,6.88-5.72,25.56-10.56,34.62c-0.87,1.63-0.65,2.52,0.84,2.95c6.5,1.86,11,5.36,14.85,9.63c1.8,2,3.22,4.38,4.86,6.73" transform="matrix(1,0,0,1,1096,-4)" class="stroke_order_diagram--existing_path"></path><path id="pathSk2v596cn18u5" kvg:type="㇒" d="M37.12,36.53c0.08,1.18,0.13,3.05-0.15,4.76C34.68,55.11,29.75,73.25,12.74,86" transform="matrix(1,0,0,1,1096,-4)" class="stroke_order_diagram--existing_path"></path><path id="pathSk2v596cn18u6" kvg:type="㇀/㇐" d="M12.25,45.18c0.5,1.07,1.46,1.52,3.31,1.05c2.82-0.72,16.25-3.8,24.69-6.02" transform="matrix(1,0,0,1,1096,-4)" class="stroke_order_diagram--existing_path"></path><path id="pathSk2v596cn18u7" kvg:type="㇔" d="M50.12,15.12c2.67,2.08,6.9,8.55,7.56,11.79" transform="matrix(1,0,0,1,1096,-4)" class="stroke_order_diagram--existing_path"></path><path id="pathSk2v596cn18u8" kvg:type="㇒" d="M78.11,11.89c0.07,0.78-0.41,1.57-0.74,2.27c-1.5,3.21-3.55,6.34-8.02,11.67" transform="matrix(1,0,0,1,1096,-4)" class="stroke_order_diagram--existing_path"></path><path id="pathSk2v596cn18u9" kvg:type="㇐" d="M45.87,30.18c2.51,0.44,5.08,0.19,7.14-0.05c7.17-0.83,21.33-2.27,29.74-3.12c2.19-0.22,4.63-0.29,6.77,0.25" transform="matrix(1,0,0,1,1096,-4)" class="stroke_order_diagram--existing_path"></path><path id="pathSk2v596cn18ua" kvg:type="㇕c" d="M48.13,42.38c2.05,0.34,4.02,0.41,6.12,0.14c8.58-1.12,18.59-2.45,26.37-3.09c2.57-0.21,4.09,0.84,3.6,3.7c-1,5.86-1.7,7.14-3.04,17.22" transform="matrix(1,0,0,1,1096,-4)" class="stroke_order_diagram--existing_path"></path><path id="pathSk2v596cn18ub" kvg:type="㇐" d="M42.25,53.1c2.6,0.34,5.03,0.39,7.62,0.07c13.51-1.67,25.44-2.96,35.88-3.63c2.7-0.17,5.1-0.21,7.75,0.41" transform="matrix(1,0,0,1,1096,-4)" class="stroke_order_diagram--existing_path"></path><path id="pathSk2v596cn18uc" kvg:type="㇐" d="M47.52,63.82c2.03,0.29,3.78,0.42,5.84,0.27c8.93-0.67,15.87-1.76,24.25-2.64c1.79-0.19,3.44-0.24,5.23-0.02" transform="matrix(1,0,0,1,1096,-4)" class="stroke_order_diagram--existing_path"></path><path id="pathSk2v596cn18ud" kvg:type="㇑" d="M57.64,31.23c0.81,0.81,1.15,1.77,1.15,3.17c0,2.9,0.04,40.25,0.06,56.47c0,3.92,0.01,6.57,0.01,7.12" transform="matrix(1,0,0,1,1096,-4)" class="stroke_order_diagram--existing_path"></path><path id="pathSk2v596cn18ue" kvg:type="㇑" d="M69.11,29.81c0.85,0.85,1.15,2.17,1.15,3.17c0,4.13,0.04,39.52,0.06,56.77c0,4.89,0.01,7.17,0.01,8.28" transform="matrix(1,0,0,1,1096,-4)" class="stroke_order_diagram--existing_path"></path><path id="kvg:05acc-s12" kvg:type="㇒" d="M57.38,65.33c0,1.8-0.89,3.58-1.99,5.5c-4.54,7.93-11.89,15.83-18.01,19.86" transform="matrix(1,0,0,1,1096,-4)" class="stroke_order_diagram--current_path"></path><path id="pathSk2v596cn18ug" kvg:type="㇒" d="M57.38,65.33c0,1.8-0.89,3.58-1.99,5.5c-4.54,7.93-11.89,15.83-18.01,19.86" transform="matrix(1,0,0,1,1096,-4)" class="stroke_order_diagram--current_path"></path><circle cx="57.38" cy="65.33" r="8" class="stroke_order_diagram--path_start" transform="matrix(1,0,0,1,1096,-4)"></circle><line x1="1250" x2="1250" y1="1" y2="99" class="stroke_order_diagram--guide_line"></line><line x1="1299" x2="1299" y1="1" y2="99" class="stroke_order_diagram--bounding_box"></line><path id="pathSk2v596cn18uj" kvg:type="㇛" d="M28.25,19.87c0.37,0.97,0.53,2.55,0.34,3.95c-0.93,6.88-5.72,25.56-10.56,34.62c-0.87,1.63-0.65,2.52,0.84,2.95c6.5,1.86,11,5.36,14.85,9.63c1.8,2,3.22,4.38,4.86,6.73" transform="matrix(1,0,0,1,1196,-4)" class="stroke_order_diagram--existing_path"></path><path id="pathSk2v596cn18uk" kvg:type="㇒" d="M37.12,36.53c0.08,1.18,0.13,3.05-0.15,4.76C34.68,55.11,29.75,73.25,12.74,86" transform="matrix(1,0,0,1,1196,-4)" class="stroke_order_diagram--existing_path"></path><path id="pathSk2v596cn18ul" kvg:type="㇀/㇐" d="M12.25,45.18c0.5,1.07,1.46,1.52,3.31,1.05c2.82-0.72,16.25-3.8,24.69-6.02" transform="matrix(1,0,0,1,1196,-4)" class="stroke_order_diagram--existing_path"></path><path id="pathSk2v596cn18um" kvg:type="㇔" d="M50.12,15.12c2.67,2.08,6.9,8.55,7.56,11.79" transform="matrix(1,0,0,1,1196,-4)" class="stroke_order_diagram--existing_path"></path><path id="pathSk2v596cn18un" kvg:type="㇒" d="M78.11,11.89c0.07,0.78-0.41,1.57-0.74,2.27c-1.5,3.21-3.55,6.34-8.02,11.67" transform="matrix(1,0,0,1,1196,-4)" class="stroke_order_diagram--existing_path"></path><path id="pathSk2v596cn18uo" kvg:type="㇐" d="M45.87,30.18c2.51,0.44,5.08,0.19,7.14-0.05c7.17-0.83,21.33-2.27,29.74-3.12c2.19-0.22,4.63-0.29,6.77,0.25" transform="matrix(1,0,0,1,1196,-4)" class="stroke_order_diagram--existing_path"></path><path id="pathSk2v596cn18up" kvg:type="㇕c" d="M48.13,42.38c2.05,0.34,4.02,0.41,6.12,0.14c8.58-1.12,18.59-2.45,26.37-3.09c2.57-0.21,4.09,0.84,3.6,3.7c-1,5.86-1.7,7.14-3.04,17.22" transform="matrix(1,0,0,1,1196,-4)" class="stroke_order_diagram--existing_path"></path><path id="pathSk2v596cn18uq" kvg:type="㇐" d="M42.25,53.1c2.6,0.34,5.03,0.39,7.62,0.07c13.51-1.67,25.44-2.96,35.88-3.63c2.7-0.17,5.1-0.21,7.75,0.41" transform="matrix(1,0,0,1,1196,-4)" class="stroke_order_diagram--existing_path"></path><path id="pathSk2v596cn18ur" kvg:type="㇐" d="M47.52,63.82c2.03,0.29,3.78,0.42,5.84,0.27c8.93-0.67,15.87-1.76,24.25-2.64c1.79-0.19,3.44-0.24,5.23-0.02" transform="matrix(1,0,0,1,1196,-4)" class="stroke_order_diagram--existing_path"></path><path id="pathSk2v596cn18us" kvg:type="㇑" d="M57.64,31.23c0.81,0.81,1.15,1.77,1.15,3.17c0,2.9,0.04,40.25,0.06,56.47c0,3.92,0.01,6.57,0.01,7.12" transform="matrix(1,0,0,1,1196,-4)" class="stroke_order_diagram--existing_path"></path><path id="pathSk2v596cn18ut" kvg:type="㇑" d="M69.11,29.81c0.85,0.85,1.15,2.17,1.15,3.17c0,4.13,0.04,39.52,0.06,56.77c0,4.89,0.01,7.17,0.01,8.28" transform="matrix(1,0,0,1,1196,-4)" class="stroke_order_diagram--existing_path"></path><path id="pathSk2v596cn18uu" kvg:type="㇒" d="M57.38,65.33c0,1.8-0.89,3.58-1.99,5.5c-4.54,7.93-11.89,15.83-18.01,19.86" transform="matrix(1,0,0,1,1196,-4)" class="stroke_order_diagram--existing_path"></path><path id="kvg:05acc-s13" kvg:type="㇏" d="M71.41,64.4c2.84,3.6,8.84,11.23,15.38,17.56c2.18,2.11,4.02,4.15,6.41,5.98" transform="matrix(1,0,0,1,1196,-4)" class="stroke_order_diagram--current_path"></path><path id="pathSk2v596cn18uw" kvg:type="㇏" d="M71.41,64.4c2.84,3.6,8.84,11.23,15.38,17.56c2.18,2.11,4.02,4.15,6.41,5.98" transform="matrix(1,0,0,1,1196,-4)" class="stroke_order_diagram--current_path"></path><circle cx="71.41" cy="64.4" r="8" class="stroke_order_diagram--path_start" transform="matrix(1,0,0,1,1196,-4)"></circle></svg>