<svg style="width: 1000px; height: 100px;" viewbox="0 0 1000 100"><style>
.stroke_order_diagram--outer_container {
  width: 100%;
  overflow-x: auto;
  overflow-y: hidden;
}

.stroke_order_diagram--guide_line {
  fill: none;
  stroke: #ddd;
  stroke-width: 3;
  stroke-linecap: square;
  stroke-linejoin: square;
  stroke-dasharray:8, 8;
}

.stroke_order_diagram--bounding_box {
  fill: none;
  stroke: #ddd;
  stroke-width: 4;
  stroke-linecap: square;
  stroke-linejoin: square;
}

.stroke_order_diagram--current_path {
  fill: none;
  stroke: #000;
  stroke-width: 6;
  stroke-linecap: round;
  stroke-linejoin: round;
}

.stroke_order_diagram--existing_path {
  fill: none;
  stroke: #aaa;
  stroke-width: 6;
  stroke-linecap: round;
  stroke-linejoin:round;
}

.stroke_order_diagram--path_start {
  fill: rgba(255, 0, 0, 0.7);
  stroke:none
}</style><desc>Created with Snap</desc><defs></defs><line x1="1" x2="999" y1="1" y2="1" class="stroke_order_diagram--bounding_box"></line><line x1="1" x2="1" y1="1" y2="99" class="stroke_order_diagram--bounding_box"></line><line x1="1" x2="999" y1="99" y2="99" class="stroke_order_diagram--bounding_box"></line><line x1="0" x2="1000" y1="50" y2="50" class="stroke_order_diagram--guide_line"></line><line x1="50" x2="50" y1="1" y2="99" class="stroke_order_diagram--guide_line"></line><line x1="99" x2="99" y1="1" y2="99" class="stroke_order_diagram--bounding_box"></line><path id="kvg:05b6b-s1" kvg:type="㇖" d="M16.79,25.08c2.06,0.73,4.42,0.89,6.52,0.45c5.18-1.1,15.19-4.15,17.81-4.53c1.62-0.23,3.42,0.99,1.78,2.97c-1.64,1.98-8.65,9.03-14.34,15.01" transform="matrix(1,0,0,1,-4,-4)" class="stroke_order_diagram--current_path"></path><path id="pathSk2v596cn25ks" kvg:type="㇖" d="M16.79,25.08c2.06,0.73,4.42,0.89,6.52,0.45c5.18-1.1,15.19-4.15,17.81-4.53c1.62-0.23,3.42,0.99,1.78,2.97c-1.64,1.98-8.65,9.03-14.34,15.01" transform="matrix(1,0,0,1,-4,-4)" class="stroke_order_diagram--current_path"></path><circle cx="16.79" cy="25.08" r="8" class="stroke_order_diagram--path_start" transform="matrix(1,0,0,1,-4,-4)"></circle><line x1="150" x2="150" y1="1" y2="99" class="stroke_order_diagram--guide_line"></line><line x1="199" x2="199" y1="1" y2="99" class="stroke_order_diagram--bounding_box"></line><path id="pathSk2v596cn25kv" kvg:type="㇖" d="M16.79,25.08c2.06,0.73,4.42,0.89,6.52,0.45c5.18-1.1,15.19-4.15,17.81-4.53c1.62-0.23,3.42,0.99,1.78,2.97c-1.64,1.98-8.65,9.03-14.34,15.01" transform="matrix(1,0,0,1,96,-4)" class="stroke_order_diagram--existing_path"></path><path id="kvg:05b6b-s2" kvg:type="㇕v" d="M27.35,39.63c8.4,6.12,12.27,27.65,6.34,47.62C30.5,98,24.87,89.51,23.52,88.63" transform="matrix(1,0,0,1,96,-4)" class="stroke_order_diagram--current_path"></path><path id="pathSk2v596cn25kx" kvg:type="㇕v" d="M27.35,39.63c8.4,6.12,12.27,27.65,6.34,47.62C30.5,98,24.87,89.51,23.52,88.63" transform="matrix(1,0,0,1,96,-4)" class="stroke_order_diagram--current_path"></path><circle cx="27.35" cy="39.63" r="8" class="stroke_order_diagram--path_start" transform="matrix(1,0,0,1,96,-4)"></circle><line x1="250" x2="250" y1="1" y2="99" class="stroke_order_diagram--guide_line"></line><line x1="299" x2="299" y1="1" y2="99" class="stroke_order_diagram--bounding_box"></line><path id="pathSk2v596cn25l0" kvg:type="㇖" d="M16.79,25.08c2.06,0.73,4.42,0.89,6.52,0.45c5.18-1.1,15.19-4.15,17.81-4.53c1.62-0.23,3.42,0.99,1.78,2.97c-1.64,1.98-8.65,9.03-14.34,15.01" transform="matrix(1,0,0,1,196,-4)" class="stroke_order_diagram--existing_path"></path><path id="pathSk2v596cn25l1" kvg:type="㇕v" d="M27.35,39.63c8.4,6.12,12.27,27.65,6.34,47.62C30.5,98,24.87,89.51,23.52,88.63" transform="matrix(1,0,0,1,196,-4)" class="stroke_order_diagram--existing_path"></path><path id="kvg:05b6b-s3" kvg:type="㇀/㇐" d="M14.12,68.88c1.13,0.37,2.46,0.29,3.83-0.67c8.87-6.25,12.91-9.3,24.8-18.7" transform="matrix(1,0,0,1,196,-4)" class="stroke_order_diagram--current_path"></path><path id="pathSk2v596cn25l3" kvg:type="㇀/㇐" d="M14.12,68.88c1.13,0.37,2.46,0.29,3.83-0.67c8.87-6.25,12.91-9.3,24.8-18.7" transform="matrix(1,0,0,1,196,-4)" class="stroke_order_diagram--current_path"></path><circle cx="14.12" cy="68.88" r="8" class="stroke_order_diagram--path_start" transform="matrix(1,0,0,1,196,-4)"></circle><line x1="350" x2="350" y1="1" y2="99" class="stroke_order_diagram--guide_line"></line><line x1="399" x2="399" y1="1" y2="99" class="stroke_order_diagram--bounding_box"></line><path id="pathSk2v596cn25l6" kvg:type="㇖" d="M16.79,25.08c2.06,0.73,4.42,0.89,6.52,0.45c5.18-1.1,15.19-4.15,17.81-4.53c1.62-0.23,3.42,0.99,1.78,2.97c-1.64,1.98-8.65,9.03-14.34,15.01" transform="matrix(1,0,0,1,296,-4)" class="stroke_order_diagram--existing_path"></path><path id="pathSk2v596cn25l7" kvg:type="㇕v" d="M27.35,39.63c8.4,6.12,12.27,27.65,6.34,47.62C30.5,98,24.87,89.51,23.52,88.63" transform="matrix(1,0,0,1,296,-4)" class="stroke_order_diagram--existing_path"></path><path id="pathSk2v596cn25l8" kvg:type="㇀/㇐" d="M14.12,68.88c1.13,0.37,2.46,0.29,3.83-0.67c8.87-6.25,12.91-9.3,24.8-18.7" transform="matrix(1,0,0,1,296,-4)" class="stroke_order_diagram--existing_path"></path><path id="kvg:05b6b-s4" kvg:type="㇒" d="M78.98,12.14c0.21,1.13-0.71,1.9-1.48,2.49c-4.1,3.15-11.22,7.85-24.95,12.93" transform="matrix(1,0,0,1,296,-4)" class="stroke_order_diagram--current_path"></path><path id="pathSk2v596cn25la" kvg:type="㇒" d="M78.98,12.14c0.21,1.13-0.71,1.9-1.48,2.49c-4.1,3.15-11.22,7.85-24.95,12.93" transform="matrix(1,0,0,1,296,-4)" class="stroke_order_diagram--current_path"></path><circle cx="78.98" cy="12.14" r="8" class="stroke_order_diagram--path_start" transform="matrix(1,0,0,1,296,-4)"></circle><line x1="450" x2="450" y1="1" y2="99" class="stroke_order_diagram--guide_line"></line><line x1="499" x2="499" y1="1" y2="99" class="stroke_order_diagram--bounding_box"></line><path id="pathSk2v596cn25ld" kvg:type="㇖" d="M16.79,25.08c2.06,0.73,4.42,0.89,6.52,0.45c5.18-1.1,15.19-4.15,17.81-4.53c1.62-0.23,3.42,0.99,1.78,2.97c-1.64,1.98-8.65,9.03-14.34,15.01" transform="matrix(1,0,0,1,396,-4)" class="stroke_order_diagram--existing_path"></path><path id="pathSk2v596cn25le" kvg:type="㇕v" d="M27.35,39.63c8.4,6.12,12.27,27.65,6.34,47.62C30.5,98,24.87,89.51,23.52,88.63" transform="matrix(1,0,0,1,396,-4)" class="stroke_order_diagram--existing_path"></path><path id="pathSk2v596cn25lf" kvg:type="㇀/㇐" d="M14.12,68.88c1.13,0.37,2.46,0.29,3.83-0.67c8.87-6.25,12.91-9.3,24.8-18.7" transform="matrix(1,0,0,1,396,-4)" class="stroke_order_diagram--existing_path"></path><path id="pathSk2v596cn25lg" kvg:type="㇒" d="M78.98,12.14c0.21,1.13-0.71,1.9-1.48,2.49c-4.1,3.15-11.22,7.85-24.95,12.93" transform="matrix(1,0,0,1,396,-4)" class="stroke_order_diagram--existing_path"></path><path id="kvg:05b6b-s5" kvg:type="㇜" d="M66.88,24.88c0.38,1.14,0.19,1.84-0.69,2.98c-3.19,4.17-8.7,9.96-12.87,13.18c-1.57,1.21-1.44,2.33,0,2.85c4.22,1.52,6.81,3.73,10.93,6.36" transform="matrix(1,0,0,1,396,-4)" class="stroke_order_diagram--current_path"></path><path id="pathSk2v596cn25li" kvg:type="㇜" d="M66.88,24.88c0.38,1.14,0.19,1.84-0.69,2.98c-3.19,4.17-8.7,9.96-12.87,13.18c-1.57,1.21-1.44,2.33,0,2.85c4.22,1.52,6.81,3.73,10.93,6.36" transform="matrix(1,0,0,1,396,-4)" class="stroke_order_diagram--current_path"></path><circle cx="66.88" cy="24.88" r="8" class="stroke_order_diagram--path_start" transform="matrix(1,0,0,1,396,-4)"></circle><line x1="550" x2="550" y1="1" y2="99" class="stroke_order_diagram--guide_line"></line><line x1="599" x2="599" y1="1" y2="99" class="stroke_order_diagram--bounding_box"></line><path id="pathSk2v596cn25ll" kvg:type="㇖" d="M16.79,25.08c2.06,0.73,4.42,0.89,6.52,0.45c5.18-1.1,15.19-4.15,17.81-4.53c1.62-0.23,3.42,0.99,1.78,2.97c-1.64,1.98-8.65,9.03-14.34,15.01" transform="matrix(1,0,0,1,496,-4)" class="stroke_order_diagram--existing_path"></path><path id="pathSk2v596cn25lm" kvg:type="㇕v" d="M27.35,39.63c8.4,6.12,12.27,27.65,6.34,47.62C30.5,98,24.87,89.51,23.52,88.63" transform="matrix(1,0,0,1,496,-4)" class="stroke_order_diagram--existing_path"></path><path id="pathSk2v596cn25ln" kvg:type="㇀/㇐" d="M14.12,68.88c1.13,0.37,2.46,0.29,3.83-0.67c8.87-6.25,12.91-9.3,24.8-18.7" transform="matrix(1,0,0,1,496,-4)" class="stroke_order_diagram--existing_path"></path><path id="pathSk2v596cn25lo" kvg:type="㇒" d="M78.98,12.14c0.21,1.13-0.71,1.9-1.48,2.49c-4.1,3.15-11.22,7.85-24.95,12.93" transform="matrix(1,0,0,1,496,-4)" class="stroke_order_diagram--existing_path"></path><path id="pathSk2v596cn25lp" kvg:type="㇜" d="M66.88,24.88c0.38,1.14,0.19,1.84-0.69,2.98c-3.19,4.17-8.7,9.96-12.87,13.18c-1.57,1.21-1.44,2.33,0,2.85c4.22,1.52,6.81,3.73,10.93,6.36" transform="matrix(1,0,0,1,496,-4)" class="stroke_order_diagram--existing_path"></path><path id="kvg:05b6b-s6" kvg:type="㇜" d="M82,31.22c0.38,1.16-0.13,2.34-0.75,3.1c-6.62,8.05-17.88,18.8-29.75,28.33c-1.66,1.33-1,3.05,1,2.63c8.36-1.75,20.88-4.66,33-6.72" transform="matrix(1,0,0,1,496,-4)" class="stroke_order_diagram--current_path"></path><path id="pathSk2v596cn25lr" kvg:type="㇜" d="M82,31.22c0.38,1.16-0.13,2.34-0.75,3.1c-6.62,8.05-17.88,18.8-29.75,28.33c-1.66,1.33-1,3.05,1,2.63c8.36-1.75,20.88-4.66,33-6.72" transform="matrix(1,0,0,1,496,-4)" class="stroke_order_diagram--current_path"></path><circle cx="82" cy="31.22" r="8" class="stroke_order_diagram--path_start" transform="matrix(1,0,0,1,496,-4)"></circle><line x1="650" x2="650" y1="1" y2="99" class="stroke_order_diagram--guide_line"></line><line x1="699" x2="699" y1="1" y2="99" class="stroke_order_diagram--bounding_box"></line><path id="pathSk2v596cn25lu" kvg:type="㇖" d="M16.79,25.08c2.06,0.73,4.42,0.89,6.52,0.45c5.18-1.1,15.19-4.15,17.81-4.53c1.62-0.23,3.42,0.99,1.78,2.97c-1.64,1.98-8.65,9.03-14.34,15.01" transform="matrix(1,0,0,1,596,-4)" class="stroke_order_diagram--existing_path"></path><path id="pathSk2v596cn25lv" kvg:type="㇕v" d="M27.35,39.63c8.4,6.12,12.27,27.65,6.34,47.62C30.5,98,24.87,89.51,23.52,88.63" transform="matrix(1,0,0,1,596,-4)" class="stroke_order_diagram--existing_path"></path><path id="pathSk2v596cn25lw" kvg:type="㇀/㇐" d="M14.12,68.88c1.13,0.37,2.46,0.29,3.83-0.67c8.87-6.25,12.91-9.3,24.8-18.7" transform="matrix(1,0,0,1,596,-4)" class="stroke_order_diagram--existing_path"></path><path id="pathSk2v596cn25lx" kvg:type="㇒" d="M78.98,12.14c0.21,1.13-0.71,1.9-1.48,2.49c-4.1,3.15-11.22,7.85-24.95,12.93" transform="matrix(1,0,0,1,596,-4)" class="stroke_order_diagram--existing_path"></path><path id="pathSk2v596cn25ly" kvg:type="㇜" d="M66.88,24.88c0.38,1.14,0.19,1.84-0.69,2.98c-3.19,4.17-8.7,9.96-12.87,13.18c-1.57,1.21-1.44,2.33,0,2.85c4.22,1.52,6.81,3.73,10.93,6.36" transform="matrix(1,0,0,1,596,-4)" class="stroke_order_diagram--existing_path"></path><path id="pathSk2v596cn25lz" kvg:type="㇜" d="M82,31.22c0.38,1.16-0.13,2.34-0.75,3.1c-6.62,8.05-17.88,18.8-29.75,28.33c-1.66,1.33-1,3.05,1,2.63c8.36-1.75,20.88-4.66,33-6.72" transform="matrix(1,0,0,1,596,-4)" class="stroke_order_diagram--existing_path"></path><path id="kvg:05b6b-s7" kvg:type="㇔" d="M79.75,50.42c3.53,2.8,9.12,11.52,10,15.88" transform="matrix(1,0,0,1,596,-4)" class="stroke_order_diagram--current_path"></path><path id="pathSk2v596cn25m1" kvg:type="㇔" d="M79.75,50.42c3.53,2.8,9.12,11.52,10,15.88" transform="matrix(1,0,0,1,596,-4)" class="stroke_order_diagram--current_path"></path><circle cx="79.75" cy="50.42" r="8" class="stroke_order_diagram--path_start" transform="matrix(1,0,0,1,596,-4)"></circle><line x1="750" x2="750" y1="1" y2="99" class="stroke_order_diagram--guide_line"></line><line x1="799" x2="799" y1="1" y2="99" class="stroke_order_diagram--bounding_box"></line><path id="pathSk2v596cn25m4" kvg:type="㇖" d="M16.79,25.08c2.06,0.73,4.42,0.89,6.52,0.45c5.18-1.1,15.19-4.15,17.81-4.53c1.62-0.23,3.42,0.99,1.78,2.97c-1.64,1.98-8.65,9.03-14.34,15.01" transform="matrix(1,0,0,1,696,-4)" class="stroke_order_diagram--existing_path"></path><path id="pathSk2v596cn25m5" kvg:type="㇕v" d="M27.35,39.63c8.4,6.12,12.27,27.65,6.34,47.62C30.5,98,24.87,89.51,23.52,88.63" transform="matrix(1,0,0,1,696,-4)" class="stroke_order_diagram--existing_path"></path><path id="pathSk2v596cn25m6" kvg:type="㇀/㇐" d="M14.12,68.88c1.13,0.37,2.46,0.29,3.83-0.67c8.87-6.25,12.91-9.3,24.8-18.7" transform="matrix(1,0,0,1,696,-4)" class="stroke_order_diagram--existing_path"></path><path id="pathSk2v596cn25m7" kvg:type="㇒" d="M78.98,12.14c0.21,1.13-0.71,1.9-1.48,2.49c-4.1,3.15-11.22,7.85-24.95,12.93" transform="matrix(1,0,0,1,696,-4)" class="stroke_order_diagram--existing_path"></path><path id="pathSk2v596cn25m8" kvg:type="㇜" d="M66.88,24.88c0.38,1.14,0.19,1.84-0.69,2.98c-3.19,4.17-8.7,9.96-12.87,13.18c-1.57,1.21-1.44,2.33,0,2.85c4.22,1.52,6.81,3.73,10.93,6.36" transform="matrix(1,0,0,1,696,-4)" class="stroke_order_diagram--existing_path"></path><path id="pathSk2v596cn25m9" kvg:type="㇜" d="M82,31.22c0.38,1.16-0.13,2.34-0.75,3.1c-6.62,8.05-17.88,18.8-29.75,28.33c-1.66,1.33-1,3.05,1,2.63c8.36-1.75,20.88-4.66,33-6.72" transform="matrix(1,0,0,1,696,-4)" class="stroke_order_diagram--existing_path"></path><path id="pathSk2v596cn25ma" kvg:type="㇔" d="M79.75,50.42c3.53,2.8,9.12,11.52,10,15.88" transform="matrix(1,0,0,1,696,-4)" class="stroke_order_diagram--existing_path"></path><path id="kvg:05b6b-s8" kvg:type="㇑" d="M69.05,64.16c0.83,0.83,1.1,1.71,1.1,3.2c0,6.88-0.01,15.97-0.02,22.14c0,2.71-0.01,4.86-0.01,6" transform="matrix(1,0,0,1,696,-4)" class="stroke_order_diagram--current_path"></path><path id="pathSk2v596cn25mc" kvg:type="㇑" d="M69.05,64.16c0.83,0.83,1.1,1.71,1.1,3.2c0,6.88-0.01,15.97-0.02,22.14c0,2.71-0.01,4.86-0.01,6" transform="matrix(1,0,0,1,696,-4)" class="stroke_order_diagram--current_path"></path><circle cx="69.05" cy="64.16" r="8" class="stroke_order_diagram--path_start" transform="matrix(1,0,0,1,696,-4)"></circle><line x1="850" x2="850" y1="1" y2="99" class="stroke_order_diagram--guide_line"></line><line x1="899" x2="899" y1="1" y2="99" class="stroke_order_diagram--bounding_box"></line><path id="pathSk2v596cn25mf" kvg:type="㇖" d="M16.79,25.08c2.06,0.73,4.42,0.89,6.52,0.45c5.18-1.1,15.19-4.15,17.81-4.53c1.62-0.23,3.42,0.99,1.78,2.97c-1.64,1.98-8.65,9.03-14.34,15.01" transform="matrix(1,0,0,1,796,-4)" class="stroke_order_diagram--existing_path"></path><path id="pathSk2v596cn25mg" kvg:type="㇕v" d="M27.35,39.63c8.4,6.12,12.27,27.65,6.34,47.62C30.5,98,24.87,89.51,23.52,88.63" transform="matrix(1,0,0,1,796,-4)" class="stroke_order_diagram--existing_path"></path><path id="pathSk2v596cn25mh" kvg:type="㇀/㇐" d="M14.12,68.88c1.13,0.37,2.46,0.29,3.83-0.67c8.87-6.25,12.91-9.3,24.8-18.7" transform="matrix(1,0,0,1,796,-4)" class="stroke_order_diagram--existing_path"></path><path id="pathSk2v596cn25mi" kvg:type="㇒" d="M78.98,12.14c0.21,1.13-0.71,1.9-1.48,2.49c-4.1,3.15-11.22,7.85-24.95,12.93" transform="matrix(1,0,0,1,796,-4)" class="stroke_order_diagram--existing_path"></path><path id="pathSk2v596cn25mj" kvg:type="㇜" d="M66.88,24.88c0.38,1.14,0.19,1.84-0.69,2.98c-3.19,4.17-8.7,9.96-12.87,13.18c-1.57,1.21-1.44,2.33,0,2.85c4.22,1.52,6.81,3.73,10.93,6.36" transform="matrix(1,0,0,1,796,-4)" class="stroke_order_diagram--existing_path"></path><path id="pathSk2v596cn25mk" kvg:type="㇜" d="M82,31.22c0.38,1.16-0.13,2.34-0.75,3.1c-6.62,8.05-17.88,18.8-29.75,28.33c-1.66,1.33-1,3.05,1,2.63c8.36-1.75,20.88-4.66,33-6.72" transform="matrix(1,0,0,1,796,-4)" class="stroke_order_diagram--existing_path"></path><path id="pathSk2v596cn25ml" kvg:type="㇔" d="M79.75,50.42c3.53,2.8,9.12,11.52,10,15.88" transform="matrix(1,0,0,1,796,-4)" class="stroke_order_diagram--existing_path"></path><path id="pathSk2v596cn25mm" kvg:type="㇑" d="M69.05,64.16c0.83,0.83,1.1,1.71,1.1,3.2c0,6.88-0.01,15.97-0.02,22.14c0,2.71-0.01,4.86-0.01,6" transform="matrix(1,0,0,1,796,-4)" class="stroke_order_diagram--existing_path"></path><path id="kvg:05b6b-s9" kvg:type="㇒" d="M56.15,74.34c0.22,0.87-0.11,2.29-0.47,2.94c-2.3,4.1-7.8,10.98-12.68,15.07" transform="matrix(1,0,0,1,796,-4)" class="stroke_order_diagram--current_path"></path><path id="pathSk2v596cn25mo" kvg:type="㇒" d="M56.15,74.34c0.22,0.87-0.11,2.29-0.47,2.94c-2.3,4.1-7.8,10.98-12.68,15.07" transform="matrix(1,0,0,1,796,-4)" class="stroke_order_diagram--current_path"></path><circle cx="56.15" cy="74.34" r="8" class="stroke_order_diagram--path_start" transform="matrix(1,0,0,1,796,-4)"></circle><line x1="950" x2="950" y1="1" y2="99" class="stroke_order_diagram--guide_line"></line><line x1="999" x2="999" y1="1" y2="99" class="stroke_order_diagram--bounding_box"></line><path id="pathSk2v596cn25mr" kvg:type="㇖" d="M16.79,25.08c2.06,0.73,4.42,0.89,6.52,0.45c5.18-1.1,15.19-4.15,17.81-4.53c1.62-0.23,3.42,0.99,1.78,2.97c-1.64,1.98-8.65,9.03-14.34,15.01" transform="matrix(1,0,0,1,896,-4)" class="stroke_order_diagram--existing_path"></path><path id="pathSk2v596cn25ms" kvg:type="㇕v" d="M27.35,39.63c8.4,6.12,12.27,27.65,6.34,47.62C30.5,98,24.87,89.51,23.52,88.63" transform="matrix(1,0,0,1,896,-4)" class="stroke_order_diagram--existing_path"></path><path id="pathSk2v596cn25mt" kvg:type="㇀/㇐" d="M14.12,68.88c1.13,0.37,2.46,0.29,3.83-0.67c8.87-6.25,12.91-9.3,24.8-18.7" transform="matrix(1,0,0,1,896,-4)" class="stroke_order_diagram--existing_path"></path><path id="pathSk2v596cn25mu" kvg:type="㇒" d="M78.98,12.14c0.21,1.13-0.71,1.9-1.48,2.49c-4.1,3.15-11.22,7.85-24.95,12.93" transform="matrix(1,0,0,1,896,-4)" class="stroke_order_diagram--existing_path"></path><path id="pathSk2v596cn25mv" kvg:type="㇜" d="M66.88,24.88c0.38,1.14,0.19,1.84-0.69,2.98c-3.19,4.17-8.7,9.96-12.87,13.18c-1.57,1.21-1.44,2.33,0,2.85c4.22,1.52,6.81,3.73,10.93,6.36" transform="matrix(1,0,0,1,896,-4)" class="stroke_order_diagram--existing_path"></path><path id="pathSk2v596cn25mw" kvg:type="㇜" d="M82,31.22c0.38,1.16-0.13,2.34-0.75,3.1c-6.62,8.05-17.88,18.8-29.75,28.33c-1.66,1.33-1,3.05,1,2.63c8.36-1.75,20.88-4.66,33-6.72" transform="matrix(1,0,0,1,896,-4)" class="stroke_order_diagram--existing_path"></path><path id="pathSk2v596cn25mx" kvg:type="㇔" d="M79.75,50.42c3.53,2.8,9.12,11.52,10,15.88" transform="matrix(1,0,0,1,896,-4)" class="stroke_order_diagram--existing_path"></path><path id="pathSk2v596cn25my" kvg:type="㇑" d="M69.05,64.16c0.83,0.83,1.1,1.71,1.1,3.2c0,6.88-0.01,15.97-0.02,22.14c0,2.71-0.01,4.86-0.01,6" transform="matrix(1,0,0,1,896,-4)" class="stroke_order_diagram--existing_path"></path><path id="pathSk2v596cn25mz" kvg:type="㇒" d="M56.15,74.34c0.22,0.87-0.11,2.29-0.47,2.94c-2.3,4.1-7.8,10.98-12.68,15.07" transform="matrix(1,0,0,1,896,-4)" class="stroke_order_diagram--existing_path"></path><path id="kvg:05b6b-s10" kvg:type="㇔" d="M82.75,73.25C86.74,76.8,93.58,86.29,95,89.84" transform="matrix(1,0,0,1,896,-4)" class="stroke_order_diagram--current_path"></path><path id="pathSk2v596cn25n1" kvg:type="㇔" d="M82.75,73.25C86.74,76.8,93.58,86.29,95,89.84" transform="matrix(1,0,0,1,896,-4)" class="stroke_order_diagram--current_path"></path><circle cx="82.75" cy="73.25" r="8" class="stroke_order_diagram--path_start" transform="matrix(1,0,0,1,896,-4)"></circle></svg>