<svg style="width: 800px; height: 100px;" viewbox="0 0 800 100"><style>
.stroke_order_diagram--outer_container {
  width: 100%;
  overflow-x: auto;
  overflow-y: hidden;
}

.stroke_order_diagram--guide_line {
  fill: none;
  stroke: #ddd;
  stroke-width: 3;
  stroke-linecap: square;
  stroke-linejoin: square;
  stroke-dasharray:8, 8;
}

.stroke_order_diagram--bounding_box {
  fill: none;
  stroke: #ddd;
  stroke-width: 4;
  stroke-linecap: square;
  stroke-linejoin: square;
}

.stroke_order_diagram--current_path {
  fill: none;
  stroke: #000;
  stroke-width: 6;
  stroke-linecap: round;
  stroke-linejoin: round;
}

.stroke_order_diagram--existing_path {
  fill: none;
  stroke: #aaa;
  stroke-width: 6;
  stroke-linecap: round;
  stroke-linejoin:round;
}

.stroke_order_diagram--path_start {
  fill: rgba(255, 0, 0, 0.7);
  stroke:none
}</style><desc>Created with Snap</desc><defs></defs><line x1="1" x2="799" y1="1" y2="1" class="stroke_order_diagram--bounding_box"></line><line x1="1" x2="1" y1="1" y2="99" class="stroke_order_diagram--bounding_box"></line><line x1="1" x2="799" y1="99" y2="99" class="stroke_order_diagram--bounding_box"></line><line x1="0" x2="800" y1="50" y2="50" class="stroke_order_diagram--guide_line"></line><line x1="50" x2="50" y1="1" y2="99" class="stroke_order_diagram--guide_line"></line><line x1="99" x2="99" y1="1" y2="99" class="stroke_order_diagram--bounding_box"></line><path id="kvg:05b66-s1" kvg:type="㇔" d="M29.5,17.25c3.5,3,6.5,7.25,7.75,9.75" transform="matrix(1,0,0,1,-4,-4)" class="stroke_order_diagram--current_path"></path><path id="pathSk2v596cn410" kvg:type="㇔" d="M29.5,17.25c3.5,3,6.5,7.25,7.75,9.75" transform="matrix(1,0,0,1,-4,-4)" class="stroke_order_diagram--current_path"></path><circle cx="29.5" cy="17.25" r="8" class="stroke_order_diagram--path_start" transform="matrix(1,0,0,1,-4,-4)"></circle><line x1="150" x2="150" y1="1" y2="99" class="stroke_order_diagram--guide_line"></line><line x1="199" x2="199" y1="1" y2="99" class="stroke_order_diagram--bounding_box"></line><path id="pathSk2v596cn413" kvg:type="㇔" d="M29.5,17.25c3.5,3,6.5,7.25,7.75,9.75" transform="matrix(1,0,0,1,96,-4)" class="stroke_order_diagram--existing_path"></path><path id="kvg:05b66-s2" kvg:type="㇔" d="M49,12c1.25,2,4.75,8.25,5.25,11.5" transform="matrix(1,0,0,1,96,-4)" class="stroke_order_diagram--current_path"></path><path id="pathSk2v596cn415" kvg:type="㇔" d="M49,12c1.25,2,4.75,8.25,5.25,11.5" transform="matrix(1,0,0,1,96,-4)" class="stroke_order_diagram--current_path"></path><circle cx="49" cy="12" r="8" class="stroke_order_diagram--path_start" transform="matrix(1,0,0,1,96,-4)"></circle><line x1="250" x2="250" y1="1" y2="99" class="stroke_order_diagram--guide_line"></line><line x1="299" x2="299" y1="1" y2="99" class="stroke_order_diagram--bounding_box"></line><path id="pathSk2v596cn418" kvg:type="㇔" d="M29.5,17.25c3.5,3,6.5,7.25,7.75,9.75" transform="matrix(1,0,0,1,196,-4)" class="stroke_order_diagram--existing_path"></path><path id="pathSk2v596cn419" kvg:type="㇔" d="M49,12c1.25,2,4.75,8.25,5.25,11.5" transform="matrix(1,0,0,1,196,-4)" class="stroke_order_diagram--existing_path"></path><path id="kvg:05b66-s3" kvg:type="㇒" d="M75,11c0.25,1.75-0.12,2.75-0.75,4.25c-1.29,3.1-4.25,7.38-6.5,9.75" transform="matrix(1,0,0,1,196,-4)" class="stroke_order_diagram--current_path"></path><path id="pathSk2v596cn41b" kvg:type="㇒" d="M75,11c0.25,1.75-0.12,2.75-0.75,4.25c-1.29,3.1-4.25,7.38-6.5,9.75" transform="matrix(1,0,0,1,196,-4)" class="stroke_order_diagram--current_path"></path><circle cx="75" cy="11" r="8" class="stroke_order_diagram--path_start" transform="matrix(1,0,0,1,196,-4)"></circle><line x1="350" x2="350" y1="1" y2="99" class="stroke_order_diagram--guide_line"></line><line x1="399" x2="399" y1="1" y2="99" class="stroke_order_diagram--bounding_box"></line><path id="pathSk2v596cn41e" kvg:type="㇔" d="M29.5,17.25c3.5,3,6.5,7.25,7.75,9.75" transform="matrix(1,0,0,1,296,-4)" class="stroke_order_diagram--existing_path"></path><path id="pathSk2v596cn41f" kvg:type="㇔" d="M49,12c1.25,2,4.75,8.25,5.25,11.5" transform="matrix(1,0,0,1,296,-4)" class="stroke_order_diagram--existing_path"></path><path id="pathSk2v596cn41g" kvg:type="㇒" d="M75,11c0.25,1.75-0.12,2.75-0.75,4.25c-1.29,3.1-4.25,7.38-6.5,9.75" transform="matrix(1,0,0,1,296,-4)" class="stroke_order_diagram--existing_path"></path><path id="kvg:05b66-s4" kvg:type="㇔" d="M21.25,33.75c-0.12,4.75-2,12.5-3.75,16.25" transform="matrix(1,0,0,1,296,-4)" class="stroke_order_diagram--current_path"></path><path id="pathSk2v596cn41i" kvg:type="㇔" d="M21.25,33.75c-0.12,4.75-2,12.5-3.75,16.25" transform="matrix(1,0,0,1,296,-4)" class="stroke_order_diagram--current_path"></path><circle cx="21.25" cy="33.75" r="8" class="stroke_order_diagram--path_start" transform="matrix(1,0,0,1,296,-4)"></circle><line x1="450" x2="450" y1="1" y2="99" class="stroke_order_diagram--guide_line"></line><line x1="499" x2="499" y1="1" y2="99" class="stroke_order_diagram--bounding_box"></line><path id="pathSk2v596cn41l" kvg:type="㇔" d="M29.5,17.25c3.5,3,6.5,7.25,7.75,9.75" transform="matrix(1,0,0,1,396,-4)" class="stroke_order_diagram--existing_path"></path><path id="pathSk2v596cn41m" kvg:type="㇔" d="M49,12c1.25,2,4.75,8.25,5.25,11.5" transform="matrix(1,0,0,1,396,-4)" class="stroke_order_diagram--existing_path"></path><path id="pathSk2v596cn41n" kvg:type="㇒" d="M75,11c0.25,1.75-0.12,2.75-0.75,4.25c-1.29,3.1-4.25,7.38-6.5,9.75" transform="matrix(1,0,0,1,396,-4)" class="stroke_order_diagram--existing_path"></path><path id="pathSk2v596cn41o" kvg:type="㇔" d="M21.25,33.75c-0.12,4.75-2,12.5-3.75,16.25" transform="matrix(1,0,0,1,396,-4)" class="stroke_order_diagram--existing_path"></path><path id="kvg:05b66-s5" kvg:type="㇖b" d="M23.5,36.5c17-1.62,42.38-5.5,60-5.75c9.5-0.13,4.12,5.12,0,9" transform="matrix(1,0,0,1,396,-4)" class="stroke_order_diagram--current_path"></path><path id="pathSk2v596cn41q" kvg:type="㇖b" d="M23.5,36.5c17-1.62,42.38-5.5,60-5.75c9.5-0.13,4.12,5.12,0,9" transform="matrix(1,0,0,1,396,-4)" class="stroke_order_diagram--current_path"></path><circle cx="23.5" cy="36.5" r="8" class="stroke_order_diagram--path_start" transform="matrix(1,0,0,1,396,-4)"></circle><line x1="550" x2="550" y1="1" y2="99" class="stroke_order_diagram--guide_line"></line><line x1="599" x2="599" y1="1" y2="99" class="stroke_order_diagram--bounding_box"></line><path id="pathSk2v596cn41t" kvg:type="㇔" d="M29.5,17.25c3.5,3,6.5,7.25,7.75,9.75" transform="matrix(1,0,0,1,496,-4)" class="stroke_order_diagram--existing_path"></path><path id="pathSk2v596cn41u" kvg:type="㇔" d="M49,12c1.25,2,4.75,8.25,5.25,11.5" transform="matrix(1,0,0,1,496,-4)" class="stroke_order_diagram--existing_path"></path><path id="pathSk2v596cn41v" kvg:type="㇒" d="M75,11c0.25,1.75-0.12,2.75-0.75,4.25c-1.29,3.1-4.25,7.38-6.5,9.75" transform="matrix(1,0,0,1,496,-4)" class="stroke_order_diagram--existing_path"></path><path id="pathSk2v596cn41w" kvg:type="㇔" d="M21.25,33.75c-0.12,4.75-2,12.5-3.75,16.25" transform="matrix(1,0,0,1,496,-4)" class="stroke_order_diagram--existing_path"></path><path id="pathSk2v596cn41x" kvg:type="㇖b" d="M23.5,36.5c17-1.62,42.38-5.5,60-5.75c9.5-0.13,4.12,5.12,0,9" transform="matrix(1,0,0,1,496,-4)" class="stroke_order_diagram--existing_path"></path><path id="kvg:05b66-s6" kvg:type="㇖" d="M37.25,46.5c1,0.25,3.75,0.25,5.5-0.25s18.25-4,20-4s2.75,0.75,1,2.25S54.5,53.5,53,54.75" transform="matrix(1,0,0,1,496,-4)" class="stroke_order_diagram--current_path"></path><path id="pathSk2v596cn41z" kvg:type="㇖" d="M37.25,46.5c1,0.25,3.75,0.25,5.5-0.25s18.25-4,20-4s2.75,0.75,1,2.25S54.5,53.5,53,54.75" transform="matrix(1,0,0,1,496,-4)" class="stroke_order_diagram--current_path"></path><circle cx="37.25" cy="46.5" r="8" class="stroke_order_diagram--path_start" transform="matrix(1,0,0,1,496,-4)"></circle><line x1="650" x2="650" y1="1" y2="99" class="stroke_order_diagram--guide_line"></line><line x1="699" x2="699" y1="1" y2="99" class="stroke_order_diagram--bounding_box"></line><path id="pathSk2v596cn422" kvg:type="㇔" d="M29.5,17.25c3.5,3,6.5,7.25,7.75,9.75" transform="matrix(1,0,0,1,596,-4)" class="stroke_order_diagram--existing_path"></path><path id="pathSk2v596cn423" kvg:type="㇔" d="M49,12c1.25,2,4.75,8.25,5.25,11.5" transform="matrix(1,0,0,1,596,-4)" class="stroke_order_diagram--existing_path"></path><path id="pathSk2v596cn424" kvg:type="㇒" d="M75,11c0.25,1.75-0.12,2.75-0.75,4.25c-1.29,3.1-4.25,7.38-6.5,9.75" transform="matrix(1,0,0,1,596,-4)" class="stroke_order_diagram--existing_path"></path><path id="pathSk2v596cn425" kvg:type="㇔" d="M21.25,33.75c-0.12,4.75-2,12.5-3.75,16.25" transform="matrix(1,0,0,1,596,-4)" class="stroke_order_diagram--existing_path"></path><path id="pathSk2v596cn426" kvg:type="㇖b" d="M23.5,36.5c17-1.62,42.38-5.5,60-5.75c9.5-0.13,4.12,5.12,0,9" transform="matrix(1,0,0,1,596,-4)" class="stroke_order_diagram--existing_path"></path><path id="pathSk2v596cn427" kvg:type="㇖" d="M37.25,46.5c1,0.25,3.75,0.25,5.5-0.25s18.25-4,20-4s2.75,0.75,1,2.25S54.5,53.5,53,54.75" transform="matrix(1,0,0,1,596,-4)" class="stroke_order_diagram--existing_path"></path><path id="kvg:05b66-s7" kvg:type="㇕v" d="M50.75,55.75c4,8.75,7.18,24.67,1.75,38c-2.75,6.75-7.75,1.25-9.75-2" transform="matrix(1,0,0,1,596,-4)" class="stroke_order_diagram--current_path"></path><path id="pathSk2v596cn429" kvg:type="㇕v" d="M50.75,55.75c4,8.75,7.18,24.67,1.75,38c-2.75,6.75-7.75,1.25-9.75-2" transform="matrix(1,0,0,1,596,-4)" class="stroke_order_diagram--current_path"></path><circle cx="50.75" cy="55.75" r="8" class="stroke_order_diagram--path_start" transform="matrix(1,0,0,1,596,-4)"></circle><line x1="750" x2="750" y1="1" y2="99" class="stroke_order_diagram--guide_line"></line><line x1="799" x2="799" y1="1" y2="99" class="stroke_order_diagram--bounding_box"></line><path id="pathSk2v596cn42c" kvg:type="㇔" d="M29.5,17.25c3.5,3,6.5,7.25,7.75,9.75" transform="matrix(1,0,0,1,696,-4)" class="stroke_order_diagram--existing_path"></path><path id="pathSk2v596cn42d" kvg:type="㇔" d="M49,12c1.25,2,4.75,8.25,5.25,11.5" transform="matrix(1,0,0,1,696,-4)" class="stroke_order_diagram--existing_path"></path><path id="pathSk2v596cn42e" kvg:type="㇒" d="M75,11c0.25,1.75-0.12,2.75-0.75,4.25c-1.29,3.1-4.25,7.38-6.5,9.75" transform="matrix(1,0,0,1,696,-4)" class="stroke_order_diagram--existing_path"></path><path id="pathSk2v596cn42f" kvg:type="㇔" d="M21.25,33.75c-0.12,4.75-2,12.5-3.75,16.25" transform="matrix(1,0,0,1,696,-4)" class="stroke_order_diagram--existing_path"></path><path id="pathSk2v596cn42g" kvg:type="㇖b" d="M23.5,36.5c17-1.62,42.38-5.5,60-5.75c9.5-0.13,4.12,5.12,0,9" transform="matrix(1,0,0,1,696,-4)" class="stroke_order_diagram--existing_path"></path><path id="pathSk2v596cn42h" kvg:type="㇖" d="M37.25,46.5c1,0.25,3.75,0.25,5.5-0.25s18.25-4,20-4s2.75,0.75,1,2.25S54.5,53.5,53,54.75" transform="matrix(1,0,0,1,696,-4)" class="stroke_order_diagram--existing_path"></path><path id="pathSk2v596cn42i" kvg:type="㇕v" d="M50.75,55.75c4,8.75,7.18,24.67,1.75,38c-2.75,6.75-7.75,1.25-9.75-2" transform="matrix(1,0,0,1,696,-4)" class="stroke_order_diagram--existing_path"></path><path id="kvg:05b66-s8" kvg:type="㇐" d="M15.75,67.75c1.75,1,4.64,1.36,7.5,1c15.88-2,44.43-6.25,61.37-5.5c2.5,0.11,4.72,0.25,6.39,1" transform="matrix(1,0,0,1,696,-4)" class="stroke_order_diagram--current_path"></path><path id="pathSk2v596cn42k" kvg:type="㇐" d="M15.75,67.75c1.75,1,4.64,1.36,7.5,1c15.88-2,44.43-6.25,61.37-5.5c2.5,0.11,4.72,0.25,6.39,1" transform="matrix(1,0,0,1,696,-4)" class="stroke_order_diagram--current_path"></path><circle cx="15.75" cy="67.75" r="8" class="stroke_order_diagram--path_start" transform="matrix(1,0,0,1,696,-4)"></circle></svg>