<svg style="width: 900px; height: 100px;" viewbox="0 0 900 100"><style>
.stroke_order_diagram--outer_container {
  width: 100%;
  overflow-x: auto;
  overflow-y: hidden;
}

.stroke_order_diagram--guide_line {
  fill: none;
  stroke: #ddd;
  stroke-width: 3;
  stroke-linecap: square;
  stroke-linejoin: square;
  stroke-dasharray:8, 8;
}

.stroke_order_diagram--bounding_box {
  fill: none;
  stroke: #ddd;
  stroke-width: 4;
  stroke-linecap: square;
  stroke-linejoin: square;
}

.stroke_order_diagram--current_path {
  fill: none;
  stroke: #000;
  stroke-width: 6;
  stroke-linecap: round;
  stroke-linejoin: round;
}

.stroke_order_diagram--existing_path {
  fill: none;
  stroke: #aaa;
  stroke-width: 6;
  stroke-linecap: round;
  stroke-linejoin:round;
}

.stroke_order_diagram--path_start {
  fill: rgba(255, 0, 0, 0.7);
  stroke:none
}</style><desc>Created with Snap</desc><defs></defs><line x1="1" x2="899" y1="1" y2="1" class="stroke_order_diagram--bounding_box"></line><line x1="1" x2="1" y1="1" y2="99" class="stroke_order_diagram--bounding_box"></line><line x1="1" x2="899" y1="99" y2="99" class="stroke_order_diagram--bounding_box"></line><line x1="0" x2="900" y1="50" y2="50" class="stroke_order_diagram--guide_line"></line><line x1="50" x2="50" y1="1" y2="99" class="stroke_order_diagram--guide_line"></line><line x1="99" x2="99" y1="1" y2="99" class="stroke_order_diagram--bounding_box"></line><path id="kvg:05b64-s1" kvg:type="㇖" d="M11.29,27.74c2.13,0.74,3.98,0.91,6.12,0.38c6.1-1.5,15.64-3.98,18.72-4.62c1.61-0.33,3.28,0.86,1.78,2.91C36,29,30.5,35.5,24.81,42.61" transform="matrix(1,0,0,1,-4,-4)" class="stroke_order_diagram--current_path"></path><path id="pathSk2v596cn433a" kvg:type="㇖" d="M11.29,27.74c2.13,0.74,3.98,0.91,6.12,0.38c6.1-1.5,15.64-3.98,18.72-4.62c1.61-0.33,3.28,0.86,1.78,2.91C36,29,30.5,35.5,24.81,42.61" transform="matrix(1,0,0,1,-4,-4)" class="stroke_order_diagram--current_path"></path><circle cx="11.29" cy="27.74" r="8" class="stroke_order_diagram--path_start" transform="matrix(1,0,0,1,-4,-4)"></circle><line x1="150" x2="150" y1="1" y2="99" class="stroke_order_diagram--guide_line"></line><line x1="199" x2="199" y1="1" y2="99" class="stroke_order_diagram--bounding_box"></line><path id="pathSk2v596cn433d" kvg:type="㇖" d="M11.29,27.74c2.13,0.74,3.98,0.91,6.12,0.38c6.1-1.5,15.64-3.98,18.72-4.62c1.61-0.33,3.28,0.86,1.78,2.91C36,29,30.5,35.5,24.81,42.61" transform="matrix(1,0,0,1,96,-4)" class="stroke_order_diagram--existing_path"></path><path id="kvg:05b64-s2" kvg:type="㇕v" d="M24.02,43.24c6.88,2.84,10.48,23.8,4.97,41.99c-2.97,9.79-8.21,2.06-9.46,1.26" transform="matrix(1,0,0,1,96,-4)" class="stroke_order_diagram--current_path"></path><path id="pathSk2v596cn433f" kvg:type="㇕v" d="M24.02,43.24c6.88,2.84,10.48,23.8,4.97,41.99c-2.97,9.79-8.21,2.06-9.46,1.26" transform="matrix(1,0,0,1,96,-4)" class="stroke_order_diagram--current_path"></path><circle cx="24.02" cy="43.24" r="8" class="stroke_order_diagram--path_start" transform="matrix(1,0,0,1,96,-4)"></circle><line x1="250" x2="250" y1="1" y2="99" class="stroke_order_diagram--guide_line"></line><line x1="299" x2="299" y1="1" y2="99" class="stroke_order_diagram--bounding_box"></line><path id="pathSk2v596cn433i" kvg:type="㇖" d="M11.29,27.74c2.13,0.74,3.98,0.91,6.12,0.38c6.1-1.5,15.64-3.98,18.72-4.62c1.61-0.33,3.28,0.86,1.78,2.91C36,29,30.5,35.5,24.81,42.61" transform="matrix(1,0,0,1,196,-4)" class="stroke_order_diagram--existing_path"></path><path id="pathSk2v596cn433j" kvg:type="㇕v" d="M24.02,43.24c6.88,2.84,10.48,23.8,4.97,41.99c-2.97,9.79-8.21,2.06-9.46,1.26" transform="matrix(1,0,0,1,196,-4)" class="stroke_order_diagram--existing_path"></path><path id="kvg:05b64-s3" kvg:type="㇀/㇐" d="M10.5,61.33c1.34,0.97,2.54,1.09,4.73,0.09C26,56.5,31.5,53.5,40.25,49.4" transform="matrix(1,0,0,1,196,-4)" class="stroke_order_diagram--current_path"></path><path id="pathSk2v596cn433l" kvg:type="㇀/㇐" d="M10.5,61.33c1.34,0.97,2.54,1.09,4.73,0.09C26,56.5,31.5,53.5,40.25,49.4" transform="matrix(1,0,0,1,196,-4)" class="stroke_order_diagram--current_path"></path><circle cx="10.5" cy="61.33" r="8" class="stroke_order_diagram--path_start" transform="matrix(1,0,0,1,196,-4)"></circle><line x1="350" x2="350" y1="1" y2="99" class="stroke_order_diagram--guide_line"></line><line x1="399" x2="399" y1="1" y2="99" class="stroke_order_diagram--bounding_box"></line><path id="pathSk2v596cn433o" kvg:type="㇖" d="M11.29,27.74c2.13,0.74,3.98,0.91,6.12,0.38c6.1-1.5,15.64-3.98,18.72-4.62c1.61-0.33,3.28,0.86,1.78,2.91C36,29,30.5,35.5,24.81,42.61" transform="matrix(1,0,0,1,296,-4)" class="stroke_order_diagram--existing_path"></path><path id="pathSk2v596cn433p" kvg:type="㇕v" d="M24.02,43.24c6.88,2.84,10.48,23.8,4.97,41.99c-2.97,9.79-8.21,2.06-9.46,1.26" transform="matrix(1,0,0,1,296,-4)" class="stroke_order_diagram--existing_path"></path><path id="pathSk2v596cn433q" kvg:type="㇀/㇐" d="M10.5,61.33c1.34,0.97,2.54,1.09,4.73,0.09C26,56.5,31.5,53.5,40.25,49.4" transform="matrix(1,0,0,1,296,-4)" class="stroke_order_diagram--existing_path"></path><path id="kvg:05b64-s4" kvg:type="㇒" d="M79.05,16.5c0,0.88-0.3,1.62-1.07,2.29c-6.41,5.53-12.86,9.84-27.83,15.4" transform="matrix(1,0,0,1,296,-4)" class="stroke_order_diagram--current_path"></path><path id="pathSk2v596cn433s" kvg:type="㇒" d="M79.05,16.5c0,0.88-0.3,1.62-1.07,2.29c-6.41,5.53-12.86,9.84-27.83,15.4" transform="matrix(1,0,0,1,296,-4)" class="stroke_order_diagram--current_path"></path><circle cx="79.05" cy="16.5" r="8" class="stroke_order_diagram--path_start" transform="matrix(1,0,0,1,296,-4)"></circle><line x1="450" x2="450" y1="1" y2="99" class="stroke_order_diagram--guide_line"></line><line x1="499" x2="499" y1="1" y2="99" class="stroke_order_diagram--bounding_box"></line><path id="pathSk2v596cn433v" kvg:type="㇖" d="M11.29,27.74c2.13,0.74,3.98,0.91,6.12,0.38c6.1-1.5,15.64-3.98,18.72-4.62c1.61-0.33,3.28,0.86,1.78,2.91C36,29,30.5,35.5,24.81,42.61" transform="matrix(1,0,0,1,396,-4)" class="stroke_order_diagram--existing_path"></path><path id="pathSk2v596cn433w" kvg:type="㇕v" d="M24.02,43.24c6.88,2.84,10.48,23.8,4.97,41.99c-2.97,9.79-8.21,2.06-9.46,1.26" transform="matrix(1,0,0,1,396,-4)" class="stroke_order_diagram--existing_path"></path><path id="pathSk2v596cn433x" kvg:type="㇀/㇐" d="M10.5,61.33c1.34,0.97,2.54,1.09,4.73,0.09C26,56.5,31.5,53.5,40.25,49.4" transform="matrix(1,0,0,1,396,-4)" class="stroke_order_diagram--existing_path"></path><path id="pathSk2v596cn433y" kvg:type="㇒" d="M79.05,16.5c0,0.88-0.3,1.62-1.07,2.29c-6.41,5.53-12.86,9.84-27.83,15.4" transform="matrix(1,0,0,1,396,-4)" class="stroke_order_diagram--existing_path"></path><path id="kvg:05b64-s5" kvg:type="㇒" d="M46.11,34.13c0.82,0.82,1.05,2,1.09,3.46C47.75,58,47.62,79.75,34.06,92.72" transform="matrix(1,0,0,1,396,-4)" class="stroke_order_diagram--current_path"></path><path id="pathSk2v596cn4340" kvg:type="㇒" d="M46.11,34.13c0.82,0.82,1.05,2,1.09,3.46C47.75,58,47.62,79.75,34.06,92.72" transform="matrix(1,0,0,1,396,-4)" class="stroke_order_diagram--current_path"></path><circle cx="46.11" cy="34.13" r="8" class="stroke_order_diagram--path_start" transform="matrix(1,0,0,1,396,-4)"></circle><line x1="550" x2="550" y1="1" y2="99" class="stroke_order_diagram--guide_line"></line><line x1="599" x2="599" y1="1" y2="99" class="stroke_order_diagram--bounding_box"></line><path id="pathSk2v596cn4343" kvg:type="㇖" d="M11.29,27.74c2.13,0.74,3.98,0.91,6.12,0.38c6.1-1.5,15.64-3.98,18.72-4.62c1.61-0.33,3.28,0.86,1.78,2.91C36,29,30.5,35.5,24.81,42.61" transform="matrix(1,0,0,1,496,-4)" class="stroke_order_diagram--existing_path"></path><path id="pathSk2v596cn4344" kvg:type="㇕v" d="M24.02,43.24c6.88,2.84,10.48,23.8,4.97,41.99c-2.97,9.79-8.21,2.06-9.46,1.26" transform="matrix(1,0,0,1,496,-4)" class="stroke_order_diagram--existing_path"></path><path id="pathSk2v596cn4345" kvg:type="㇀/㇐" d="M10.5,61.33c1.34,0.97,2.54,1.09,4.73,0.09C26,56.5,31.5,53.5,40.25,49.4" transform="matrix(1,0,0,1,496,-4)" class="stroke_order_diagram--existing_path"></path><path id="pathSk2v596cn4346" kvg:type="㇒" d="M79.05,16.5c0,0.88-0.3,1.62-1.07,2.29c-6.41,5.53-12.86,9.84-27.83,15.4" transform="matrix(1,0,0,1,496,-4)" class="stroke_order_diagram--existing_path"></path><path id="pathSk2v596cn4347" kvg:type="㇒" d="M46.11,34.13c0.82,0.82,1.05,2,1.09,3.46C47.75,58,47.62,79.75,34.06,92.72" transform="matrix(1,0,0,1,496,-4)" class="stroke_order_diagram--existing_path"></path><path id="kvg:05b64-s6" kvg:type="㇑a" d="M62.22,32.43c0.99,0.99,1.4,2.57,1.4,4.31c0,6.12-0.11,32.32-0.11,42.26" transform="matrix(1,0,0,1,496,-4)" class="stroke_order_diagram--current_path"></path><path id="pathSk2v596cn4349" kvg:type="㇑a" d="M62.22,32.43c0.99,0.99,1.4,2.57,1.4,4.31c0,6.12-0.11,32.32-0.11,42.26" transform="matrix(1,0,0,1,496,-4)" class="stroke_order_diagram--current_path"></path><circle cx="62.22" cy="32.43" r="8" class="stroke_order_diagram--path_start" transform="matrix(1,0,0,1,496,-4)"></circle><line x1="650" x2="650" y1="1" y2="99" class="stroke_order_diagram--guide_line"></line><line x1="699" x2="699" y1="1" y2="99" class="stroke_order_diagram--bounding_box"></line><path id="pathSk2v596cn434c" kvg:type="㇖" d="M11.29,27.74c2.13,0.74,3.98,0.91,6.12,0.38c6.1-1.5,15.64-3.98,18.72-4.62c1.61-0.33,3.28,0.86,1.78,2.91C36,29,30.5,35.5,24.81,42.61" transform="matrix(1,0,0,1,596,-4)" class="stroke_order_diagram--existing_path"></path><path id="pathSk2v596cn434d" kvg:type="㇕v" d="M24.02,43.24c6.88,2.84,10.48,23.8,4.97,41.99c-2.97,9.79-8.21,2.06-9.46,1.26" transform="matrix(1,0,0,1,596,-4)" class="stroke_order_diagram--existing_path"></path><path id="pathSk2v596cn434e" kvg:type="㇀/㇐" d="M10.5,61.33c1.34,0.97,2.54,1.09,4.73,0.09C26,56.5,31.5,53.5,40.25,49.4" transform="matrix(1,0,0,1,596,-4)" class="stroke_order_diagram--existing_path"></path><path id="pathSk2v596cn434f" kvg:type="㇒" d="M79.05,16.5c0,0.88-0.3,1.62-1.07,2.29c-6.41,5.53-12.86,9.84-27.83,15.4" transform="matrix(1,0,0,1,596,-4)" class="stroke_order_diagram--existing_path"></path><path id="pathSk2v596cn434g" kvg:type="㇒" d="M46.11,34.13c0.82,0.82,1.05,2,1.09,3.46C47.75,58,47.62,79.75,34.06,92.72" transform="matrix(1,0,0,1,596,-4)" class="stroke_order_diagram--existing_path"></path><path id="pathSk2v596cn434h" kvg:type="㇑a" d="M62.22,32.43c0.99,0.99,1.4,2.57,1.4,4.31c0,6.12-0.11,32.32-0.11,42.26" transform="matrix(1,0,0,1,596,-4)" class="stroke_order_diagram--existing_path"></path><path id="kvg:05b64-s7" kvg:type="㇀/㇐" d="M50.43,83.51c0.72,0.58,2.13,1.23,3.62,0.57c8.7-3.84,11.7-5.09,20.19-8.78" transform="matrix(1,0,0,1,596,-4)" class="stroke_order_diagram--current_path"></path><path id="pathSk2v596cn434j" kvg:type="㇀/㇐" d="M50.43,83.51c0.72,0.58,2.13,1.23,3.62,0.57c8.7-3.84,11.7-5.09,20.19-8.78" transform="matrix(1,0,0,1,596,-4)" class="stroke_order_diagram--current_path"></path><circle cx="50.43" cy="83.51" r="8" class="stroke_order_diagram--path_start" transform="matrix(1,0,0,1,596,-4)"></circle><line x1="750" x2="750" y1="1" y2="99" class="stroke_order_diagram--guide_line"></line><line x1="799" x2="799" y1="1" y2="99" class="stroke_order_diagram--bounding_box"></line><path id="pathSk2v596cn434m" kvg:type="㇖" d="M11.29,27.74c2.13,0.74,3.98,0.91,6.12,0.38c6.1-1.5,15.64-3.98,18.72-4.62c1.61-0.33,3.28,0.86,1.78,2.91C36,29,30.5,35.5,24.81,42.61" transform="matrix(1,0,0,1,696,-4)" class="stroke_order_diagram--existing_path"></path><path id="pathSk2v596cn434n" kvg:type="㇕v" d="M24.02,43.24c6.88,2.84,10.48,23.8,4.97,41.99c-2.97,9.79-8.21,2.06-9.46,1.26" transform="matrix(1,0,0,1,696,-4)" class="stroke_order_diagram--existing_path"></path><path id="pathSk2v596cn434o" kvg:type="㇀/㇐" d="M10.5,61.33c1.34,0.97,2.54,1.09,4.73,0.09C26,56.5,31.5,53.5,40.25,49.4" transform="matrix(1,0,0,1,696,-4)" class="stroke_order_diagram--existing_path"></path><path id="pathSk2v596cn434p" kvg:type="㇒" d="M79.05,16.5c0,0.88-0.3,1.62-1.07,2.29c-6.41,5.53-12.86,9.84-27.83,15.4" transform="matrix(1,0,0,1,696,-4)" class="stroke_order_diagram--existing_path"></path><path id="pathSk2v596cn434q" kvg:type="㇒" d="M46.11,34.13c0.82,0.82,1.05,2,1.09,3.46C47.75,58,47.62,79.75,34.06,92.72" transform="matrix(1,0,0,1,696,-4)" class="stroke_order_diagram--existing_path"></path><path id="pathSk2v596cn434r" kvg:type="㇑a" d="M62.22,32.43c0.99,0.99,1.4,2.57,1.4,4.31c0,6.12-0.11,32.32-0.11,42.26" transform="matrix(1,0,0,1,696,-4)" class="stroke_order_diagram--existing_path"></path><path id="pathSk2v596cn434s" kvg:type="㇀/㇐" d="M50.43,83.51c0.72,0.58,2.13,1.23,3.62,0.57c8.7-3.84,11.7-5.09,20.19-8.78" transform="matrix(1,0,0,1,696,-4)" class="stroke_order_diagram--existing_path"></path><path id="kvg:05b64-s8" kvg:type="㇔" d="M72.26,69.14c2.37,2.54,6.11,10.43,6.71,14.37" transform="matrix(1,0,0,1,696,-4)" class="stroke_order_diagram--current_path"></path><path id="pathSk2v596cn434u" kvg:type="㇔" d="M72.26,69.14c2.37,2.54,6.11,10.43,6.71,14.37" transform="matrix(1,0,0,1,696,-4)" class="stroke_order_diagram--current_path"></path><circle cx="72.26" cy="69.14" r="8" class="stroke_order_diagram--path_start" transform="matrix(1,0,0,1,696,-4)"></circle><line x1="850" x2="850" y1="1" y2="99" class="stroke_order_diagram--guide_line"></line><line x1="899" x2="899" y1="1" y2="99" class="stroke_order_diagram--bounding_box"></line><path id="pathSk2v596cn434x" kvg:type="㇖" d="M11.29,27.74c2.13,0.74,3.98,0.91,6.12,0.38c6.1-1.5,15.64-3.98,18.72-4.62c1.61-0.33,3.28,0.86,1.78,2.91C36,29,30.5,35.5,24.81,42.61" transform="matrix(1,0,0,1,796,-4)" class="stroke_order_diagram--existing_path"></path><path id="pathSk2v596cn434y" kvg:type="㇕v" d="M24.02,43.24c6.88,2.84,10.48,23.8,4.97,41.99c-2.97,9.79-8.21,2.06-9.46,1.26" transform="matrix(1,0,0,1,796,-4)" class="stroke_order_diagram--existing_path"></path><path id="pathSk2v596cn434z" kvg:type="㇀/㇐" d="M10.5,61.33c1.34,0.97,2.54,1.09,4.73,0.09C26,56.5,31.5,53.5,40.25,49.4" transform="matrix(1,0,0,1,796,-4)" class="stroke_order_diagram--existing_path"></path><path id="pathSk2v596cn4350" kvg:type="㇒" d="M79.05,16.5c0,0.88-0.3,1.62-1.07,2.29c-6.41,5.53-12.86,9.84-27.83,15.4" transform="matrix(1,0,0,1,796,-4)" class="stroke_order_diagram--existing_path"></path><path id="pathSk2v596cn4351" kvg:type="㇒" d="M46.11,34.13c0.82,0.82,1.05,2,1.09,3.46C47.75,58,47.62,79.75,34.06,92.72" transform="matrix(1,0,0,1,796,-4)" class="stroke_order_diagram--existing_path"></path><path id="pathSk2v596cn4352" kvg:type="㇑a" d="M62.22,32.43c0.99,0.99,1.4,2.57,1.4,4.31c0,6.12-0.11,32.32-0.11,42.26" transform="matrix(1,0,0,1,796,-4)" class="stroke_order_diagram--existing_path"></path><path id="pathSk2v596cn4353" kvg:type="㇀/㇐" d="M50.43,83.51c0.72,0.58,2.13,1.23,3.62,0.57c8.7-3.84,11.7-5.09,20.19-8.78" transform="matrix(1,0,0,1,796,-4)" class="stroke_order_diagram--existing_path"></path><path id="pathSk2v596cn4354" kvg:type="㇔" d="M72.26,69.14c2.37,2.54,6.11,10.43,6.71,14.37" transform="matrix(1,0,0,1,796,-4)" class="stroke_order_diagram--existing_path"></path><path id="kvg:05b64-s9" kvg:type="㇏" d="M76.18,28.08c1.64,0.38,6.48,35.09,14.38,53.76c1.57,3.71,3.31,6.53,6.19,9.8" transform="matrix(1,0,0,1,796,-4)" class="stroke_order_diagram--current_path"></path><path id="pathSk2v596cn4356" kvg:type="㇏" d="M76.18,28.08c1.64,0.38,6.48,35.09,14.38,53.76c1.57,3.71,3.31,6.53,6.19,9.8" transform="matrix(1,0,0,1,796,-4)" class="stroke_order_diagram--current_path"></path><circle cx="76.18" cy="28.08" r="8" class="stroke_order_diagram--path_start" transform="matrix(1,0,0,1,796,-4)"></circle></svg>