<svg style="width: 800px; height: 100px;" viewbox="0 0 800 100"><style>
.stroke_order_diagram--outer_container {
  width: 100%;
  overflow-x: auto;
  overflow-y: hidden;
}

.stroke_order_diagram--guide_line {
  fill: none;
  stroke: #ddd;
  stroke-width: 3;
  stroke-linecap: square;
  stroke-linejoin: square;
  stroke-dasharray:8, 8;
}

.stroke_order_diagram--bounding_box {
  fill: none;
  stroke: #ddd;
  stroke-width: 4;
  stroke-linecap: square;
  stroke-linejoin: square;
}

.stroke_order_diagram--current_path {
  fill: none;
  stroke: #000;
  stroke-width: 6;
  stroke-linecap: round;
  stroke-linejoin: round;
}

.stroke_order_diagram--existing_path {
  fill: none;
  stroke: #aaa;
  stroke-width: 6;
  stroke-linecap: round;
  stroke-linejoin:round;
}

.stroke_order_diagram--path_start {
  fill: rgba(255, 0, 0, 0.7);
  stroke:none
}</style><desc>Created with Snap</desc><defs></defs><line x1="1" x2="799" y1="1" y2="1" class="stroke_order_diagram--bounding_box"></line><line x1="1" x2="1" y1="1" y2="99" class="stroke_order_diagram--bounding_box"></line><line x1="1" x2="799" y1="99" y2="99" class="stroke_order_diagram--bounding_box"></line><line x1="0" x2="800" y1="50" y2="50" class="stroke_order_diagram--guide_line"></line><line x1="50" x2="50" y1="1" y2="99" class="stroke_order_diagram--guide_line"></line><line x1="99" x2="99" y1="1" y2="99" class="stroke_order_diagram--bounding_box"></line><path id="kvg:05b98-s1" kvg:type="㇑a" d="M52.79,11.75c0.98,0.98,1.45,2.25,1.45,3.39c0,3.36-0.08,6.74-0.08,9.8" transform="matrix(1,0,0,1,-4,-4)" class="stroke_order_diagram--current_path"></path><path id="pathSk2v596cn10j2" kvg:type="㇑a" d="M52.79,11.75c0.98,0.98,1.45,2.25,1.45,3.39c0,3.36-0.08,6.74-0.08,9.8" transform="matrix(1,0,0,1,-4,-4)" class="stroke_order_diagram--current_path"></path><circle cx="52.79" cy="11.75" r="8" class="stroke_order_diagram--path_start" transform="matrix(1,0,0,1,-4,-4)"></circle><line x1="150" x2="150" y1="1" y2="99" class="stroke_order_diagram--guide_line"></line><line x1="199" x2="199" y1="1" y2="99" class="stroke_order_diagram--bounding_box"></line><path id="pathSk2v596cn10j5" kvg:type="㇑a" d="M52.79,11.75c0.98,0.98,1.45,2.25,1.45,3.39c0,3.36-0.08,6.74-0.08,9.8" transform="matrix(1,0,0,1,96,-4)" class="stroke_order_diagram--existing_path"></path><path id="kvg:05b98-s2" kvg:type="㇔" d="M26.98,27.5c0,3.3-2.94,13.55-4.28,15.75" transform="matrix(1,0,0,1,96,-4)" class="stroke_order_diagram--current_path"></path><path id="pathSk2v596cn10j7" kvg:type="㇔" d="M26.98,27.5c0,3.3-2.94,13.55-4.28,15.75" transform="matrix(1,0,0,1,96,-4)" class="stroke_order_diagram--current_path"></path><circle cx="26.98" cy="27.5" r="8" class="stroke_order_diagram--path_start" transform="matrix(1,0,0,1,96,-4)"></circle><line x1="250" x2="250" y1="1" y2="99" class="stroke_order_diagram--guide_line"></line><line x1="299" x2="299" y1="1" y2="99" class="stroke_order_diagram--bounding_box"></line><path id="pathSk2v596cn10ja" kvg:type="㇑a" d="M52.79,11.75c0.98,0.98,1.45,2.25,1.45,3.39c0,3.36-0.08,6.74-0.08,9.8" transform="matrix(1,0,0,1,196,-4)" class="stroke_order_diagram--existing_path"></path><path id="pathSk2v596cn10jb" kvg:type="㇔" d="M26.98,27.5c0,3.3-2.94,13.55-4.28,15.75" transform="matrix(1,0,0,1,196,-4)" class="stroke_order_diagram--existing_path"></path><path id="kvg:05b98-s3" kvg:type="㇖b" d="M27.74,29.38C46.25,26.88,71,24.25,80.9,23.97c11.6-0.32,1.35,7.03-1.35,8.9" transform="matrix(1,0,0,1,196,-4)" class="stroke_order_diagram--current_path"></path><path id="pathSk2v596cn10jd" kvg:type="㇖b" d="M27.74,29.38C46.25,26.88,71,24.25,80.9,23.97c11.6-0.32,1.35,7.03-1.35,8.9" transform="matrix(1,0,0,1,196,-4)" class="stroke_order_diagram--current_path"></path><circle cx="27.74" cy="29.38" r="8" class="stroke_order_diagram--path_start" transform="matrix(1,0,0,1,196,-4)"></circle><line x1="350" x2="350" y1="1" y2="99" class="stroke_order_diagram--guide_line"></line><line x1="399" x2="399" y1="1" y2="99" class="stroke_order_diagram--bounding_box"></line><path id="pathSk2v596cn10jg" kvg:type="㇑a" d="M52.79,11.75c0.98,0.98,1.45,2.25,1.45,3.39c0,3.36-0.08,6.74-0.08,9.8" transform="matrix(1,0,0,1,296,-4)" class="stroke_order_diagram--existing_path"></path><path id="pathSk2v596cn10jh" kvg:type="㇔" d="M26.98,27.5c0,3.3-2.94,13.55-4.28,15.75" transform="matrix(1,0,0,1,296,-4)" class="stroke_order_diagram--existing_path"></path><path id="pathSk2v596cn10ji" kvg:type="㇖b" d="M27.74,29.38C46.25,26.88,71,24.25,80.9,23.97c11.6-0.32,1.35,7.03-1.35,8.9" transform="matrix(1,0,0,1,296,-4)" class="stroke_order_diagram--existing_path"></path><path id="kvg:05b98-s4" kvg:type="㇑" d="M36.87,39.75c0.88,0.88,1.46,2.48,1.46,3.5c0,3.43,0.02,35.84,0.03,50.5c0,2.44,0,4.43,0,5.75" transform="matrix(1,0,0,1,296,-4)" class="stroke_order_diagram--current_path"></path><path id="pathSk2v596cn10jk" kvg:type="㇑" d="M36.87,39.75c0.88,0.88,1.46,2.48,1.46,3.5c0,3.43,0.02,35.84,0.03,50.5c0,2.44,0,4.43,0,5.75" transform="matrix(1,0,0,1,296,-4)" class="stroke_order_diagram--current_path"></path><circle cx="36.87" cy="39.75" r="8" class="stroke_order_diagram--path_start" transform="matrix(1,0,0,1,296,-4)"></circle><line x1="450" x2="450" y1="1" y2="99" class="stroke_order_diagram--guide_line"></line><line x1="499" x2="499" y1="1" y2="99" class="stroke_order_diagram--bounding_box"></line><path id="pathSk2v596cn10jn" kvg:type="㇑a" d="M52.79,11.75c0.98,0.98,1.45,2.25,1.45,3.39c0,3.36-0.08,6.74-0.08,9.8" transform="matrix(1,0,0,1,396,-4)" class="stroke_order_diagram--existing_path"></path><path id="pathSk2v596cn10jo" kvg:type="㇔" d="M26.98,27.5c0,3.3-2.94,13.55-4.28,15.75" transform="matrix(1,0,0,1,396,-4)" class="stroke_order_diagram--existing_path"></path><path id="pathSk2v596cn10jp" kvg:type="㇖b" d="M27.74,29.38C46.25,26.88,71,24.25,80.9,23.97c11.6-0.32,1.35,7.03-1.35,8.9" transform="matrix(1,0,0,1,396,-4)" class="stroke_order_diagram--existing_path"></path><path id="pathSk2v596cn10jq" kvg:type="㇑" d="M36.87,39.75c0.88,0.88,1.46,2.48,1.46,3.5c0,3.43,0.02,35.84,0.03,50.5c0,2.44,0,4.43,0,5.75" transform="matrix(1,0,0,1,396,-4)" class="stroke_order_diagram--existing_path"></path><path id="kvg:05b98-s5" kvg:type="㇕b" d="M39.25,41.75c8.04-1.34,21.67-2.88,28.01-3.56c2.93-0.31,5.09-0.02,4.21,3.46c-0.99,3.89-2.14,7.28-3.55,12.89" transform="matrix(1,0,0,1,396,-4)" class="stroke_order_diagram--current_path"></path><path id="pathSk2v596cn10js" kvg:type="㇕b" d="M39.25,41.75c8.04-1.34,21.67-2.88,28.01-3.56c2.93-0.31,5.09-0.02,4.21,3.46c-0.99,3.89-2.14,7.28-3.55,12.89" transform="matrix(1,0,0,1,396,-4)" class="stroke_order_diagram--current_path"></path><circle cx="39.25" cy="41.75" r="8" class="stroke_order_diagram--path_start" transform="matrix(1,0,0,1,396,-4)"></circle><line x1="550" x2="550" y1="1" y2="99" class="stroke_order_diagram--guide_line"></line><line x1="599" x2="599" y1="1" y2="99" class="stroke_order_diagram--bounding_box"></line><path id="pathSk2v596cn10jv" kvg:type="㇑a" d="M52.79,11.75c0.98,0.98,1.45,2.25,1.45,3.39c0,3.36-0.08,6.74-0.08,9.8" transform="matrix(1,0,0,1,496,-4)" class="stroke_order_diagram--existing_path"></path><path id="pathSk2v596cn10jw" kvg:type="㇔" d="M26.98,27.5c0,3.3-2.94,13.55-4.28,15.75" transform="matrix(1,0,0,1,496,-4)" class="stroke_order_diagram--existing_path"></path><path id="pathSk2v596cn10jx" kvg:type="㇖b" d="M27.74,29.38C46.25,26.88,71,24.25,80.9,23.97c11.6-0.32,1.35,7.03-1.35,8.9" transform="matrix(1,0,0,1,496,-4)" class="stroke_order_diagram--existing_path"></path><path id="pathSk2v596cn10jy" kvg:type="㇑" d="M36.87,39.75c0.88,0.88,1.46,2.48,1.46,3.5c0,3.43,0.02,35.84,0.03,50.5c0,2.44,0,4.43,0,5.75" transform="matrix(1,0,0,1,496,-4)" class="stroke_order_diagram--existing_path"></path><path id="pathSk2v596cn10jz" kvg:type="㇕b" d="M39.25,41.75c8.04-1.34,21.67-2.88,28.01-3.56c2.93-0.31,5.09-0.02,4.21,3.46c-0.99,3.89-2.14,7.28-3.55,12.89" transform="matrix(1,0,0,1,496,-4)" class="stroke_order_diagram--existing_path"></path><path id="kvg:05b98-s6" kvg:type="㇐b" d="M39.75,58.5c4.97-0.5,18.24-2.26,26.38-3.07c1.36-0.14,2.57-0.25,3.58-0.32" transform="matrix(1,0,0,1,496,-4)" class="stroke_order_diagram--current_path"></path><path id="pathSk2v596cn10k1" kvg:type="㇐b" d="M39.75,58.5c4.97-0.5,18.24-2.26,26.38-3.07c1.36-0.14,2.57-0.25,3.58-0.32" transform="matrix(1,0,0,1,496,-4)" class="stroke_order_diagram--current_path"></path><circle cx="39.75" cy="58.5" r="8" class="stroke_order_diagram--path_start" transform="matrix(1,0,0,1,496,-4)"></circle><line x1="650" x2="650" y1="1" y2="99" class="stroke_order_diagram--guide_line"></line><line x1="699" x2="699" y1="1" y2="99" class="stroke_order_diagram--bounding_box"></line><path id="pathSk2v596cn10k4" kvg:type="㇑a" d="M52.79,11.75c0.98,0.98,1.45,2.25,1.45,3.39c0,3.36-0.08,6.74-0.08,9.8" transform="matrix(1,0,0,1,596,-4)" class="stroke_order_diagram--existing_path"></path><path id="pathSk2v596cn10k5" kvg:type="㇔" d="M26.98,27.5c0,3.3-2.94,13.55-4.28,15.75" transform="matrix(1,0,0,1,596,-4)" class="stroke_order_diagram--existing_path"></path><path id="pathSk2v596cn10k6" kvg:type="㇖b" d="M27.74,29.38C46.25,26.88,71,24.25,80.9,23.97c11.6-0.32,1.35,7.03-1.35,8.9" transform="matrix(1,0,0,1,596,-4)" class="stroke_order_diagram--existing_path"></path><path id="pathSk2v596cn10k7" kvg:type="㇑" d="M36.87,39.75c0.88,0.88,1.46,2.48,1.46,3.5c0,3.43,0.02,35.84,0.03,50.5c0,2.44,0,4.43,0,5.75" transform="matrix(1,0,0,1,596,-4)" class="stroke_order_diagram--existing_path"></path><path id="pathSk2v596cn10k8" kvg:type="㇕b" d="M39.25,41.75c8.04-1.34,21.67-2.88,28.01-3.56c2.93-0.31,5.09-0.02,4.21,3.46c-0.99,3.89-2.14,7.28-3.55,12.89" transform="matrix(1,0,0,1,596,-4)" class="stroke_order_diagram--existing_path"></path><path id="pathSk2v596cn10k9" kvg:type="㇐b" d="M39.75,58.5c4.97-0.5,18.24-2.26,26.38-3.07c1.36-0.14,2.57-0.25,3.58-0.32" transform="matrix(1,0,0,1,596,-4)" class="stroke_order_diagram--existing_path"></path><path id="kvg:05b98-s7" kvg:type="㇕b" d="M39,75.75c8.69-1.34,24.54-3.43,31.38-4.26c3.19-0.39,4.88,0.76,4.37,3.66c-0.81,4.7-2.16,10.16-3.59,16.37" transform="matrix(1,0,0,1,596,-4)" class="stroke_order_diagram--current_path"></path><path id="pathSk2v596cn10kb" kvg:type="㇕b" d="M39,75.75c8.69-1.34,24.54-3.43,31.38-4.26c3.19-0.39,4.88,0.76,4.37,3.66c-0.81,4.7-2.16,10.16-3.59,16.37" transform="matrix(1,0,0,1,596,-4)" class="stroke_order_diagram--current_path"></path><circle cx="39" cy="75.75" r="8" class="stroke_order_diagram--path_start" transform="matrix(1,0,0,1,596,-4)"></circle><line x1="750" x2="750" y1="1" y2="99" class="stroke_order_diagram--guide_line"></line><line x1="799" x2="799" y1="1" y2="99" class="stroke_order_diagram--bounding_box"></line><path id="pathSk2v596cn10ke" kvg:type="㇑a" d="M52.79,11.75c0.98,0.98,1.45,2.25,1.45,3.39c0,3.36-0.08,6.74-0.08,9.8" transform="matrix(1,0,0,1,696,-4)" class="stroke_order_diagram--existing_path"></path><path id="pathSk2v596cn10kf" kvg:type="㇔" d="M26.98,27.5c0,3.3-2.94,13.55-4.28,15.75" transform="matrix(1,0,0,1,696,-4)" class="stroke_order_diagram--existing_path"></path><path id="pathSk2v596cn10kg" kvg:type="㇖b" d="M27.74,29.38C46.25,26.88,71,24.25,80.9,23.97c11.6-0.32,1.35,7.03-1.35,8.9" transform="matrix(1,0,0,1,696,-4)" class="stroke_order_diagram--existing_path"></path><path id="pathSk2v596cn10kh" kvg:type="㇑" d="M36.87,39.75c0.88,0.88,1.46,2.48,1.46,3.5c0,3.43,0.02,35.84,0.03,50.5c0,2.44,0,4.43,0,5.75" transform="matrix(1,0,0,1,696,-4)" class="stroke_order_diagram--existing_path"></path><path id="pathSk2v596cn10ki" kvg:type="㇕b" d="M39.25,41.75c8.04-1.34,21.67-2.88,28.01-3.56c2.93-0.31,5.09-0.02,4.21,3.46c-0.99,3.89-2.14,7.28-3.55,12.89" transform="matrix(1,0,0,1,696,-4)" class="stroke_order_diagram--existing_path"></path><path id="pathSk2v596cn10kj" kvg:type="㇐b" d="M39.75,58.5c4.97-0.5,18.24-2.26,26.38-3.07c1.36-0.14,2.57-0.25,3.58-0.32" transform="matrix(1,0,0,1,696,-4)" class="stroke_order_diagram--existing_path"></path><path id="pathSk2v596cn10kk" kvg:type="㇕b" d="M39,75.75c8.69-1.34,24.54-3.43,31.38-4.26c3.19-0.39,4.88,0.76,4.37,3.66c-0.81,4.7-2.16,10.16-3.59,16.37" transform="matrix(1,0,0,1,696,-4)" class="stroke_order_diagram--existing_path"></path><path id="kvg:05b98-s8" kvg:type="㇐b" d="M39.5,95.5c5.08-0.55,19.17-2.05,29.38-2.83c1.45-0.11,2.83-0.21,4.09-0.29" transform="matrix(1,0,0,1,696,-4)" class="stroke_order_diagram--current_path"></path><path id="pathSk2v596cn10km" kvg:type="㇐b" d="M39.5,95.5c5.08-0.55,19.17-2.05,29.38-2.83c1.45-0.11,2.83-0.21,4.09-0.29" transform="matrix(1,0,0,1,696,-4)" class="stroke_order_diagram--current_path"></path><circle cx="39.5" cy="95.5" r="8" class="stroke_order_diagram--path_start" transform="matrix(1,0,0,1,696,-4)"></circle></svg>