<svg style="width: 1000px; height: 100px;" viewbox="0 0 1000 100"><style>
.stroke_order_diagram--outer_container {
  width: 100%;
  overflow-x: auto;
  overflow-y: hidden;
}

.stroke_order_diagram--guide_line {
  fill: none;
  stroke: #ddd;
  stroke-width: 3;
  stroke-linecap: square;
  stroke-linejoin: square;
  stroke-dasharray:8, 8;
}

.stroke_order_diagram--bounding_box {
  fill: none;
  stroke: #ddd;
  stroke-width: 4;
  stroke-linecap: square;
  stroke-linejoin: square;
}

.stroke_order_diagram--current_path {
  fill: none;
  stroke: #000;
  stroke-width: 6;
  stroke-linecap: round;
  stroke-linejoin: round;
}

.stroke_order_diagram--existing_path {
  fill: none;
  stroke: #aaa;
  stroke-width: 6;
  stroke-linecap: round;
  stroke-linejoin:round;
}

.stroke_order_diagram--path_start {
  fill: rgba(255, 0, 0, 0.7);
  stroke:none
}</style><desc>Created with Snap</desc><defs></defs><line x1="1" x2="999" y1="1" y2="1" class="stroke_order_diagram--bounding_box"></line><line x1="1" x2="1" y1="1" y2="99" class="stroke_order_diagram--bounding_box"></line><line x1="1" x2="999" y1="99" y2="99" class="stroke_order_diagram--bounding_box"></line><line x1="0" x2="1000" y1="50" y2="50" class="stroke_order_diagram--guide_line"></line><line x1="50" x2="50" y1="1" y2="99" class="stroke_order_diagram--guide_line"></line><line x1="99" x2="99" y1="1" y2="99" class="stroke_order_diagram--bounding_box"></line><path id="kvg:05bae-s1" kvg:type="㇑a" d="M52.53,11.25c1.05,1.04,1.46,2.38,1.46,3.75c0,3.16-0.07,4.3-0.08,7.18" transform="matrix(1,0,0,1,-4,-4)" class="stroke_order_diagram--current_path"></path><path id="pathSk2v596cn1ejn" kvg:type="㇑a" d="M52.53,11.25c1.05,1.04,1.46,2.38,1.46,3.75c0,3.16-0.07,4.3-0.08,7.18" transform="matrix(1,0,0,1,-4,-4)" class="stroke_order_diagram--current_path"></path><circle cx="52.53" cy="11.25" r="8" class="stroke_order_diagram--path_start" transform="matrix(1,0,0,1,-4,-4)"></circle><line x1="150" x2="150" y1="1" y2="99" class="stroke_order_diagram--guide_line"></line><line x1="199" x2="199" y1="1" y2="99" class="stroke_order_diagram--bounding_box"></line><path id="pathSk2v596cn1ejq" kvg:type="㇑a" d="M52.53,11.25c1.05,1.04,1.46,2.38,1.46,3.75c0,3.16-0.07,4.3-0.08,7.18" transform="matrix(1,0,0,1,96,-4)" class="stroke_order_diagram--existing_path"></path><path id="kvg:05bae-s2" kvg:type="㇔" d="M27.12,24c0,3.17-3.15,11.89-4.58,14" transform="matrix(1,0,0,1,96,-4)" class="stroke_order_diagram--current_path"></path><path id="pathSk2v596cn1ejs" kvg:type="㇔" d="M27.12,24c0,3.17-3.15,11.89-4.58,14" transform="matrix(1,0,0,1,96,-4)" class="stroke_order_diagram--current_path"></path><circle cx="27.12" cy="24" r="8" class="stroke_order_diagram--path_start" transform="matrix(1,0,0,1,96,-4)"></circle><line x1="250" x2="250" y1="1" y2="99" class="stroke_order_diagram--guide_line"></line><line x1="299" x2="299" y1="1" y2="99" class="stroke_order_diagram--bounding_box"></line><path id="pathSk2v596cn1ejv" kvg:type="㇑a" d="M52.53,11.25c1.05,1.04,1.46,2.38,1.46,3.75c0,3.16-0.07,4.3-0.08,7.18" transform="matrix(1,0,0,1,196,-4)" class="stroke_order_diagram--existing_path"></path><path id="pathSk2v596cn1ejw" kvg:type="㇔" d="M27.12,24c0,3.17-3.15,11.89-4.58,14" transform="matrix(1,0,0,1,196,-4)" class="stroke_order_diagram--existing_path"></path><path id="kvg:05bae-s3" kvg:type="㇖b" d="M27.79,26.24c15.71-2.12,46.42-5.42,52.43-5.55c9.16-0.2,4.66,5.05,0.15,8.53" transform="matrix(1,0,0,1,196,-4)" class="stroke_order_diagram--current_path"></path><path id="pathSk2v596cn1ejy" kvg:type="㇖b" d="M27.79,26.24c15.71-2.12,46.42-5.42,52.43-5.55c9.16-0.2,4.66,5.05,0.15,8.53" transform="matrix(1,0,0,1,196,-4)" class="stroke_order_diagram--current_path"></path><circle cx="27.79" cy="26.24" r="8" class="stroke_order_diagram--path_start" transform="matrix(1,0,0,1,196,-4)"></circle><line x1="350" x2="350" y1="1" y2="99" class="stroke_order_diagram--guide_line"></line><line x1="399" x2="399" y1="1" y2="99" class="stroke_order_diagram--bounding_box"></line><path id="pathSk2v596cn1ek1" kvg:type="㇑a" d="M52.53,11.25c1.05,1.04,1.46,2.38,1.46,3.75c0,3.16-0.07,4.3-0.08,7.18" transform="matrix(1,0,0,1,296,-4)" class="stroke_order_diagram--existing_path"></path><path id="pathSk2v596cn1ek2" kvg:type="㇔" d="M27.12,24c0,3.17-3.15,11.89-4.58,14" transform="matrix(1,0,0,1,296,-4)" class="stroke_order_diagram--existing_path"></path><path id="pathSk2v596cn1ek3" kvg:type="㇖b" d="M27.79,26.24c15.71-2.12,46.42-5.42,52.43-5.55c9.16-0.2,4.66,5.05,0.15,8.53" transform="matrix(1,0,0,1,296,-4)" class="stroke_order_diagram--existing_path"></path><path id="kvg:05bae-s4" kvg:type="㇑" d="M34.14,39.64c0.79,0.8,1.34,2.06,1.58,2.95c0.9,3.35,1.7,7.67,2.38,11.87c0.11,0.68,0.66,4.22,0.81,5.26" transform="matrix(1,0,0,1,296,-4)" class="stroke_order_diagram--current_path"></path><path id="pathSk2v596cn1ek5" kvg:type="㇑" d="M34.14,39.64c0.79,0.8,1.34,2.06,1.58,2.95c0.9,3.35,1.7,7.67,2.38,11.87c0.11,0.68,0.66,4.22,0.81,5.26" transform="matrix(1,0,0,1,296,-4)" class="stroke_order_diagram--current_path"></path><circle cx="34.14" cy="39.64" r="8" class="stroke_order_diagram--path_start" transform="matrix(1,0,0,1,296,-4)"></circle><line x1="450" x2="450" y1="1" y2="99" class="stroke_order_diagram--guide_line"></line><line x1="499" x2="499" y1="1" y2="99" class="stroke_order_diagram--bounding_box"></line><path id="pathSk2v596cn1ek8" kvg:type="㇑a" d="M52.53,11.25c1.05,1.04,1.46,2.38,1.46,3.75c0,3.16-0.07,4.3-0.08,7.18" transform="matrix(1,0,0,1,396,-4)" class="stroke_order_diagram--existing_path"></path><path id="pathSk2v596cn1ek9" kvg:type="㇔" d="M27.12,24c0,3.17-3.15,11.89-4.58,14" transform="matrix(1,0,0,1,396,-4)" class="stroke_order_diagram--existing_path"></path><path id="pathSk2v596cn1eka" kvg:type="㇖b" d="M27.79,26.24c15.71-2.12,46.42-5.42,52.43-5.55c9.16-0.2,4.66,5.05,0.15,8.53" transform="matrix(1,0,0,1,396,-4)" class="stroke_order_diagram--existing_path"></path><path id="pathSk2v596cn1ekb" kvg:type="㇑" d="M34.14,39.64c0.79,0.8,1.34,2.06,1.58,2.95c0.9,3.35,1.7,7.67,2.38,11.87c0.11,0.68,0.66,4.22,0.81,5.26" transform="matrix(1,0,0,1,396,-4)" class="stroke_order_diagram--existing_path"></path><path id="kvg:05bae-s5" kvg:type="㇕b" d="M36.52,41.32c8.52-1.31,24.56-2.98,30.99-3.64c2.96-0.3,4.69,0.73,3.9,3.86c-0.94,3.79-1.91,7.16-3.94,12.78" transform="matrix(1,0,0,1,396,-4)" class="stroke_order_diagram--current_path"></path><path id="pathSk2v596cn1ekd" kvg:type="㇕b" d="M36.52,41.32c8.52-1.31,24.56-2.98,30.99-3.64c2.96-0.3,4.69,0.73,3.9,3.86c-0.94,3.79-1.91,7.16-3.94,12.78" transform="matrix(1,0,0,1,396,-4)" class="stroke_order_diagram--current_path"></path><circle cx="36.52" cy="41.32" r="8" class="stroke_order_diagram--path_start" transform="matrix(1,0,0,1,396,-4)"></circle><line x1="550" x2="550" y1="1" y2="99" class="stroke_order_diagram--guide_line"></line><line x1="599" x2="599" y1="1" y2="99" class="stroke_order_diagram--bounding_box"></line><path id="pathSk2v596cn1ekg" kvg:type="㇑a" d="M52.53,11.25c1.05,1.04,1.46,2.38,1.46,3.75c0,3.16-0.07,4.3-0.08,7.18" transform="matrix(1,0,0,1,496,-4)" class="stroke_order_diagram--existing_path"></path><path id="pathSk2v596cn1ekh" kvg:type="㇔" d="M27.12,24c0,3.17-3.15,11.89-4.58,14" transform="matrix(1,0,0,1,496,-4)" class="stroke_order_diagram--existing_path"></path><path id="pathSk2v596cn1eki" kvg:type="㇖b" d="M27.79,26.24c15.71-2.12,46.42-5.42,52.43-5.55c9.16-0.2,4.66,5.05,0.15,8.53" transform="matrix(1,0,0,1,496,-4)" class="stroke_order_diagram--existing_path"></path><path id="pathSk2v596cn1ekj" kvg:type="㇑" d="M34.14,39.64c0.79,0.8,1.34,2.06,1.58,2.95c0.9,3.35,1.7,7.67,2.38,11.87c0.11,0.68,0.66,4.22,0.81,5.26" transform="matrix(1,0,0,1,496,-4)" class="stroke_order_diagram--existing_path"></path><path id="pathSk2v596cn1ekk" kvg:type="㇕b" d="M36.52,41.32c8.52-1.31,24.56-2.98,30.99-3.64c2.96-0.3,4.69,0.73,3.9,3.86c-0.94,3.79-1.91,7.16-3.94,12.78" transform="matrix(1,0,0,1,496,-4)" class="stroke_order_diagram--existing_path"></path><path id="kvg:05bae-s6" kvg:type="㇐b" d="M39.03,57.95c3.45-0.33,16.73-1.7,24.83-2.42c3.48-0.31,6.01-0.49,6.38-0.42" transform="matrix(1,0,0,1,496,-4)" class="stroke_order_diagram--current_path"></path><path id="pathSk2v596cn1ekm" kvg:type="㇐b" d="M39.03,57.95c3.45-0.33,16.73-1.7,24.83-2.42c3.48-0.31,6.01-0.49,6.38-0.42" transform="matrix(1,0,0,1,496,-4)" class="stroke_order_diagram--current_path"></path><circle cx="39.03" cy="57.95" r="8" class="stroke_order_diagram--path_start" transform="matrix(1,0,0,1,496,-4)"></circle><line x1="650" x2="650" y1="1" y2="99" class="stroke_order_diagram--guide_line"></line><line x1="699" x2="699" y1="1" y2="99" class="stroke_order_diagram--bounding_box"></line><path id="pathSk2v596cn1ekp" kvg:type="㇑a" d="M52.53,11.25c1.05,1.04,1.46,2.38,1.46,3.75c0,3.16-0.07,4.3-0.08,7.18" transform="matrix(1,0,0,1,596,-4)" class="stroke_order_diagram--existing_path"></path><path id="pathSk2v596cn1ekq" kvg:type="㇔" d="M27.12,24c0,3.17-3.15,11.89-4.58,14" transform="matrix(1,0,0,1,596,-4)" class="stroke_order_diagram--existing_path"></path><path id="pathSk2v596cn1ekr" kvg:type="㇖b" d="M27.79,26.24c15.71-2.12,46.42-5.42,52.43-5.55c9.16-0.2,4.66,5.05,0.15,8.53" transform="matrix(1,0,0,1,596,-4)" class="stroke_order_diagram--existing_path"></path><path id="pathSk2v596cn1eks" kvg:type="㇑" d="M34.14,39.64c0.79,0.8,1.34,2.06,1.58,2.95c0.9,3.35,1.7,7.67,2.38,11.87c0.11,0.68,0.66,4.22,0.81,5.26" transform="matrix(1,0,0,1,596,-4)" class="stroke_order_diagram--existing_path"></path><path id="pathSk2v596cn1ekt" kvg:type="㇕b" d="M36.52,41.32c8.52-1.31,24.56-2.98,30.99-3.64c2.96-0.3,4.69,0.73,3.9,3.86c-0.94,3.79-1.91,7.16-3.94,12.78" transform="matrix(1,0,0,1,596,-4)" class="stroke_order_diagram--existing_path"></path><path id="pathSk2v596cn1eku" kvg:type="㇐b" d="M39.03,57.95c3.45-0.33,16.73-1.7,24.83-2.42c3.48-0.31,6.01-0.49,6.38-0.42" transform="matrix(1,0,0,1,596,-4)" class="stroke_order_diagram--existing_path"></path><path id="kvg:05bae-s7" kvg:type="㇒" d="M52.37,59.5c0.38,1.04,0.25,1.96-0.26,3.14c-0.52,1.19-4.34,6.79-5.36,8.36" transform="matrix(1,0,0,1,596,-4)" class="stroke_order_diagram--current_path"></path><path id="pathSk2v596cn1ekw" kvg:type="㇒" d="M52.37,59.5c0.38,1.04,0.25,1.96-0.26,3.14c-0.52,1.19-4.34,6.79-5.36,8.36" transform="matrix(1,0,0,1,596,-4)" class="stroke_order_diagram--current_path"></path><circle cx="52.37" cy="59.5" r="8" class="stroke_order_diagram--path_start" transform="matrix(1,0,0,1,596,-4)"></circle><line x1="750" x2="750" y1="1" y2="99" class="stroke_order_diagram--guide_line"></line><line x1="799" x2="799" y1="1" y2="99" class="stroke_order_diagram--bounding_box"></line><path id="pathSk2v596cn1ekz" kvg:type="㇑a" d="M52.53,11.25c1.05,1.04,1.46,2.38,1.46,3.75c0,3.16-0.07,4.3-0.08,7.18" transform="matrix(1,0,0,1,696,-4)" class="stroke_order_diagram--existing_path"></path><path id="pathSk2v596cn1el0" kvg:type="㇔" d="M27.12,24c0,3.17-3.15,11.89-4.58,14" transform="matrix(1,0,0,1,696,-4)" class="stroke_order_diagram--existing_path"></path><path id="pathSk2v596cn1el1" kvg:type="㇖b" d="M27.79,26.24c15.71-2.12,46.42-5.42,52.43-5.55c9.16-0.2,4.66,5.05,0.15,8.53" transform="matrix(1,0,0,1,696,-4)" class="stroke_order_diagram--existing_path"></path><path id="pathSk2v596cn1el2" kvg:type="㇑" d="M34.14,39.64c0.79,0.8,1.34,2.06,1.58,2.95c0.9,3.35,1.7,7.67,2.38,11.87c0.11,0.68,0.66,4.22,0.81,5.26" transform="matrix(1,0,0,1,696,-4)" class="stroke_order_diagram--existing_path"></path><path id="pathSk2v596cn1el3" kvg:type="㇕b" d="M36.52,41.32c8.52-1.31,24.56-2.98,30.99-3.64c2.96-0.3,4.69,0.73,3.9,3.86c-0.94,3.79-1.91,7.16-3.94,12.78" transform="matrix(1,0,0,1,696,-4)" class="stroke_order_diagram--existing_path"></path><path id="pathSk2v596cn1el4" kvg:type="㇐b" d="M39.03,57.95c3.45-0.33,16.73-1.7,24.83-2.42c3.48-0.31,6.01-0.49,6.38-0.42" transform="matrix(1,0,0,1,696,-4)" class="stroke_order_diagram--existing_path"></path><path id="pathSk2v596cn1el5" kvg:type="㇒" d="M52.37,59.5c0.38,1.04,0.25,1.96-0.26,3.14c-0.52,1.19-4.34,6.79-5.36,8.36" transform="matrix(1,0,0,1,696,-4)" class="stroke_order_diagram--existing_path"></path><path id="kvg:05bae-s8" kvg:type="㇑" d="M32.05,72.73c0.97,0.88,1.62,1.69,1.91,3.01c1.03,4.73,2.06,10.75,2.96,16.53c0.06,0.41,0.52,3.39,0.67,4.44" transform="matrix(1,0,0,1,696,-4)" class="stroke_order_diagram--current_path"></path><path id="pathSk2v596cn1el7" kvg:type="㇑" d="M32.05,72.73c0.97,0.88,1.62,1.69,1.91,3.01c1.03,4.73,2.06,10.75,2.96,16.53c0.06,0.41,0.52,3.39,0.67,4.44" transform="matrix(1,0,0,1,696,-4)" class="stroke_order_diagram--current_path"></path><circle cx="32.05" cy="72.73" r="8" class="stroke_order_diagram--path_start" transform="matrix(1,0,0,1,696,-4)"></circle><line x1="850" x2="850" y1="1" y2="99" class="stroke_order_diagram--guide_line"></line><line x1="899" x2="899" y1="1" y2="99" class="stroke_order_diagram--bounding_box"></line><path id="pathSk2v596cn1ela" kvg:type="㇑a" d="M52.53,11.25c1.05,1.04,1.46,2.38,1.46,3.75c0,3.16-0.07,4.3-0.08,7.18" transform="matrix(1,0,0,1,796,-4)" class="stroke_order_diagram--existing_path"></path><path id="pathSk2v596cn1elb" kvg:type="㇔" d="M27.12,24c0,3.17-3.15,11.89-4.58,14" transform="matrix(1,0,0,1,796,-4)" class="stroke_order_diagram--existing_path"></path><path id="pathSk2v596cn1elc" kvg:type="㇖b" d="M27.79,26.24c15.71-2.12,46.42-5.42,52.43-5.55c9.16-0.2,4.66,5.05,0.15,8.53" transform="matrix(1,0,0,1,796,-4)" class="stroke_order_diagram--existing_path"></path><path id="pathSk2v596cn1eld" kvg:type="㇑" d="M34.14,39.64c0.79,0.8,1.34,2.06,1.58,2.95c0.9,3.35,1.7,7.67,2.38,11.87c0.11,0.68,0.66,4.22,0.81,5.26" transform="matrix(1,0,0,1,796,-4)" class="stroke_order_diagram--existing_path"></path><path id="pathSk2v596cn1ele" kvg:type="㇕b" d="M36.52,41.32c8.52-1.31,24.56-2.98,30.99-3.64c2.96-0.3,4.69,0.73,3.9,3.86c-0.94,3.79-1.91,7.16-3.94,12.78" transform="matrix(1,0,0,1,796,-4)" class="stroke_order_diagram--existing_path"></path><path id="pathSk2v596cn1elf" kvg:type="㇐b" d="M39.03,57.95c3.45-0.33,16.73-1.7,24.83-2.42c3.48-0.31,6.01-0.49,6.38-0.42" transform="matrix(1,0,0,1,796,-4)" class="stroke_order_diagram--existing_path"></path><path id="pathSk2v596cn1elg" kvg:type="㇒" d="M52.37,59.5c0.38,1.04,0.25,1.96-0.26,3.14c-0.52,1.19-4.34,6.79-5.36,8.36" transform="matrix(1,0,0,1,796,-4)" class="stroke_order_diagram--existing_path"></path><path id="pathSk2v596cn1elh" kvg:type="㇑" d="M32.05,72.73c0.97,0.88,1.62,1.69,1.91,3.01c1.03,4.73,2.06,10.75,2.96,16.53c0.06,0.41,0.52,3.39,0.67,4.44" transform="matrix(1,0,0,1,796,-4)" class="stroke_order_diagram--existing_path"></path><path id="kvg:05bae-s9" kvg:type="㇕b" d="M34.95,74.66c10.49-1.62,29.57-3.7,37.08-4.47c3.4-0.35,5.56,1.17,4.44,4.6c-1.83,5.58-2.58,8.33-5.12,16.04" transform="matrix(1,0,0,1,796,-4)" class="stroke_order_diagram--current_path"></path><path id="pathSk2v596cn1elj" kvg:type="㇕b" d="M34.95,74.66c10.49-1.62,29.57-3.7,37.08-4.47c3.4-0.35,5.56,1.17,4.44,4.6c-1.83,5.58-2.58,8.33-5.12,16.04" transform="matrix(1,0,0,1,796,-4)" class="stroke_order_diagram--current_path"></path><circle cx="34.95" cy="74.66" r="8" class="stroke_order_diagram--path_start" transform="matrix(1,0,0,1,796,-4)"></circle><line x1="950" x2="950" y1="1" y2="99" class="stroke_order_diagram--guide_line"></line><line x1="999" x2="999" y1="1" y2="99" class="stroke_order_diagram--bounding_box"></line><path id="pathSk2v596cn1elm" kvg:type="㇑a" d="M52.53,11.25c1.05,1.04,1.46,2.38,1.46,3.75c0,3.16-0.07,4.3-0.08,7.18" transform="matrix(1,0,0,1,896,-4)" class="stroke_order_diagram--existing_path"></path><path id="pathSk2v596cn1eln" kvg:type="㇔" d="M27.12,24c0,3.17-3.15,11.89-4.58,14" transform="matrix(1,0,0,1,896,-4)" class="stroke_order_diagram--existing_path"></path><path id="pathSk2v596cn1elo" kvg:type="㇖b" d="M27.79,26.24c15.71-2.12,46.42-5.42,52.43-5.55c9.16-0.2,4.66,5.05,0.15,8.53" transform="matrix(1,0,0,1,896,-4)" class="stroke_order_diagram--existing_path"></path><path id="pathSk2v596cn1elp" kvg:type="㇑" d="M34.14,39.64c0.79,0.8,1.34,2.06,1.58,2.95c0.9,3.35,1.7,7.67,2.38,11.87c0.11,0.68,0.66,4.22,0.81,5.26" transform="matrix(1,0,0,1,896,-4)" class="stroke_order_diagram--existing_path"></path><path id="pathSk2v596cn1elq" kvg:type="㇕b" d="M36.52,41.32c8.52-1.31,24.56-2.98,30.99-3.64c2.96-0.3,4.69,0.73,3.9,3.86c-0.94,3.79-1.91,7.16-3.94,12.78" transform="matrix(1,0,0,1,896,-4)" class="stroke_order_diagram--existing_path"></path><path id="pathSk2v596cn1elr" kvg:type="㇐b" d="M39.03,57.95c3.45-0.33,16.73-1.7,24.83-2.42c3.48-0.31,6.01-0.49,6.38-0.42" transform="matrix(1,0,0,1,896,-4)" class="stroke_order_diagram--existing_path"></path><path id="pathSk2v596cn1els" kvg:type="㇒" d="M52.37,59.5c0.38,1.04,0.25,1.96-0.26,3.14c-0.52,1.19-4.34,6.79-5.36,8.36" transform="matrix(1,0,0,1,896,-4)" class="stroke_order_diagram--existing_path"></path><path id="pathSk2v596cn1elt" kvg:type="㇑" d="M32.05,72.73c0.97,0.88,1.62,1.69,1.91,3.01c1.03,4.73,2.06,10.75,2.96,16.53c0.06,0.41,0.52,3.39,0.67,4.44" transform="matrix(1,0,0,1,896,-4)" class="stroke_order_diagram--existing_path"></path><path id="pathSk2v596cn1elu" kvg:type="㇕b" d="M34.95,74.66c10.49-1.62,29.57-3.7,37.08-4.47c3.4-0.35,5.56,1.17,4.44,4.6c-1.83,5.58-2.58,8.33-5.12,16.04" transform="matrix(1,0,0,1,896,-4)" class="stroke_order_diagram--existing_path"></path><path id="kvg:05bae-s10" kvg:type="㇐b" d="M38.55,94.45c5.64-0.55,20.24-2.07,30.15-2.97c1.65-0.15,3.83-0.16,5.78-0.25" transform="matrix(1,0,0,1,896,-4)" class="stroke_order_diagram--current_path"></path><path id="pathSk2v596cn1elw" kvg:type="㇐b" d="M38.55,94.45c5.64-0.55,20.24-2.07,30.15-2.97c1.65-0.15,3.83-0.16,5.78-0.25" transform="matrix(1,0,0,1,896,-4)" class="stroke_order_diagram--current_path"></path><circle cx="38.55" cy="94.45" r="8" class="stroke_order_diagram--path_start" transform="matrix(1,0,0,1,896,-4)"></circle></svg>