<svg style="width: 1000px; height: 100px;" viewbox="0 0 1000 100"><style>
.stroke_order_diagram--outer_container {
  width: 100%;
  overflow-x: auto;
  overflow-y: hidden;
}

.stroke_order_diagram--guide_line {
  fill: none;
  stroke: #ddd;
  stroke-width: 3;
  stroke-linecap: square;
  stroke-linejoin: square;
  stroke-dasharray:8, 8;
}

.stroke_order_diagram--bounding_box {
  fill: none;
  stroke: #ddd;
  stroke-width: 4;
  stroke-linecap: square;
  stroke-linejoin: square;
}

.stroke_order_diagram--current_path {
  fill: none;
  stroke: #000;
  stroke-width: 6;
  stroke-linecap: round;
  stroke-linejoin: round;
}

.stroke_order_diagram--existing_path {
  fill: none;
  stroke: #aaa;
  stroke-width: 6;
  stroke-linecap: round;
  stroke-linejoin:round;
}

.stroke_order_diagram--path_start {
  fill: rgba(255, 0, 0, 0.7);
  stroke:none
}</style><desc>Created with Snap</desc><defs></defs><line x1="1" x2="999" y1="1" y2="1" class="stroke_order_diagram--bounding_box"></line><line x1="1" x2="1" y1="1" y2="99" class="stroke_order_diagram--bounding_box"></line><line x1="1" x2="999" y1="99" y2="99" class="stroke_order_diagram--bounding_box"></line><line x1="0" x2="1000" y1="50" y2="50" class="stroke_order_diagram--guide_line"></line><line x1="50" x2="50" y1="1" y2="99" class="stroke_order_diagram--guide_line"></line><line x1="99" x2="99" y1="1" y2="99" class="stroke_order_diagram--bounding_box"></line><path id="kvg:05bb3-s1" kvg:type="㇑a" d="M52.34,10c1.14,1.14,1.77,2.5,1.77,3.96c0,3.11-0.08,3.9-0.08,6.73" transform="matrix(1,0,0,1,-4,-4)" class="stroke_order_diagram--current_path"></path><path id="pathSk2v596cn18vg" kvg:type="㇑a" d="M52.34,10c1.14,1.14,1.77,2.5,1.77,3.96c0,3.11-0.08,3.9-0.08,6.73" transform="matrix(1,0,0,1,-4,-4)" class="stroke_order_diagram--current_path"></path><circle cx="52.34" cy="10" r="8" class="stroke_order_diagram--path_start" transform="matrix(1,0,0,1,-4,-4)"></circle><line x1="150" x2="150" y1="1" y2="99" class="stroke_order_diagram--guide_line"></line><line x1="199" x2="199" y1="1" y2="99" class="stroke_order_diagram--bounding_box"></line><path id="pathSk2v596cn18vj" kvg:type="㇑a" d="M52.34,10c1.14,1.14,1.77,2.5,1.77,3.96c0,3.11-0.08,3.9-0.08,6.73" transform="matrix(1,0,0,1,96,-4)" class="stroke_order_diagram--existing_path"></path><path id="kvg:05bb3-s2" kvg:type="㇔" d="M27.25,22.62c0,3.71-3.18,13.9-4.62,16.38" transform="matrix(1,0,0,1,96,-4)" class="stroke_order_diagram--current_path"></path><path id="pathSk2v596cn18vl" kvg:type="㇔" d="M27.25,22.62c0,3.71-3.18,13.9-4.62,16.38" transform="matrix(1,0,0,1,96,-4)" class="stroke_order_diagram--current_path"></path><circle cx="27.25" cy="22.62" r="8" class="stroke_order_diagram--path_start" transform="matrix(1,0,0,1,96,-4)"></circle><line x1="250" x2="250" y1="1" y2="99" class="stroke_order_diagram--guide_line"></line><line x1="299" x2="299" y1="1" y2="99" class="stroke_order_diagram--bounding_box"></line><path id="pathSk2v596cn18vo" kvg:type="㇑a" d="M52.34,10c1.14,1.14,1.77,2.5,1.77,3.96c0,3.11-0.08,3.9-0.08,6.73" transform="matrix(1,0,0,1,196,-4)" class="stroke_order_diagram--existing_path"></path><path id="pathSk2v596cn18vp" kvg:type="㇔" d="M27.25,22.62c0,3.71-3.18,13.9-4.62,16.38" transform="matrix(1,0,0,1,196,-4)" class="stroke_order_diagram--existing_path"></path><path id="kvg:05bb3-s3" kvg:type="㇖b" d="M27.9,24.63c10.6-1.26,39.97-4.63,54.87-4.91c9.48-0.18,1.48,6.28-1.61,8.4" transform="matrix(1,0,0,1,196,-4)" class="stroke_order_diagram--current_path"></path><path id="pathSk2v596cn18vr" kvg:type="㇖b" d="M27.9,24.63c10.6-1.26,39.97-4.63,54.87-4.91c9.48-0.18,1.48,6.28-1.61,8.4" transform="matrix(1,0,0,1,196,-4)" class="stroke_order_diagram--current_path"></path><circle cx="27.9" cy="24.63" r="8" class="stroke_order_diagram--path_start" transform="matrix(1,0,0,1,196,-4)"></circle><line x1="350" x2="350" y1="1" y2="99" class="stroke_order_diagram--guide_line"></line><line x1="399" x2="399" y1="1" y2="99" class="stroke_order_diagram--bounding_box"></line><path id="pathSk2v596cn18vu" kvg:type="㇑a" d="M52.34,10c1.14,1.14,1.77,2.5,1.77,3.96c0,3.11-0.08,3.9-0.08,6.73" transform="matrix(1,0,0,1,296,-4)" class="stroke_order_diagram--existing_path"></path><path id="pathSk2v596cn18vv" kvg:type="㇔" d="M27.25,22.62c0,3.71-3.18,13.9-4.62,16.38" transform="matrix(1,0,0,1,296,-4)" class="stroke_order_diagram--existing_path"></path><path id="pathSk2v596cn18vw" kvg:type="㇖b" d="M27.9,24.63c10.6-1.26,39.97-4.63,54.87-4.91c9.48-0.18,1.48,6.28-1.61,8.4" transform="matrix(1,0,0,1,296,-4)" class="stroke_order_diagram--existing_path"></path><path id="kvg:05bb3-s4" kvg:type="㇐" d="M32.75,39.89c2.04,0.66,4.32,0.42,6.4,0.21c7.57-0.76,20.98-2.56,28.73-3.1c2.05-0.14,4.22-0.38,6.24,0.01" transform="matrix(1,0,0,1,296,-4)" class="stroke_order_diagram--current_path"></path><path id="pathSk2v596cn18vy" kvg:type="㇐" d="M32.75,39.89c2.04,0.66,4.32,0.42,6.4,0.21c7.57-0.76,20.98-2.56,28.73-3.1c2.05-0.14,4.22-0.38,6.24,0.01" transform="matrix(1,0,0,1,296,-4)" class="stroke_order_diagram--current_path"></path><circle cx="32.75" cy="39.89" r="8" class="stroke_order_diagram--path_start" transform="matrix(1,0,0,1,296,-4)"></circle><line x1="450" x2="450" y1="1" y2="99" class="stroke_order_diagram--guide_line"></line><line x1="499" x2="499" y1="1" y2="99" class="stroke_order_diagram--bounding_box"></line><path id="pathSk2v596cn18w1" kvg:type="㇑a" d="M52.34,10c1.14,1.14,1.77,2.5,1.77,3.96c0,3.11-0.08,3.9-0.08,6.73" transform="matrix(1,0,0,1,396,-4)" class="stroke_order_diagram--existing_path"></path><path id="pathSk2v596cn18w2" kvg:type="㇔" d="M27.25,22.62c0,3.71-3.18,13.9-4.62,16.38" transform="matrix(1,0,0,1,396,-4)" class="stroke_order_diagram--existing_path"></path><path id="pathSk2v596cn18w3" kvg:type="㇖b" d="M27.9,24.63c10.6-1.26,39.97-4.63,54.87-4.91c9.48-0.18,1.48,6.28-1.61,8.4" transform="matrix(1,0,0,1,396,-4)" class="stroke_order_diagram--existing_path"></path><path id="pathSk2v596cn18w4" kvg:type="㇐" d="M32.75,39.89c2.04,0.66,4.32,0.42,6.4,0.21c7.57-0.76,20.98-2.56,28.73-3.1c2.05-0.14,4.22-0.38,6.24,0.01" transform="matrix(1,0,0,1,396,-4)" class="stroke_order_diagram--existing_path"></path><path id="kvg:05bb3-s5" kvg:type="㇑a" d="M52.37,28c0.88,0.88,1.46,2.38,1.46,3.75c0,1.02-0.08,21.62-0.08,30.5" transform="matrix(1,0,0,1,396,-4)" class="stroke_order_diagram--current_path"></path><path id="pathSk2v596cn18w6" kvg:type="㇑a" d="M52.37,28c0.88,0.88,1.46,2.38,1.46,3.75c0,1.02-0.08,21.62-0.08,30.5" transform="matrix(1,0,0,1,396,-4)" class="stroke_order_diagram--current_path"></path><circle cx="52.37" cy="28" r="8" class="stroke_order_diagram--path_start" transform="matrix(1,0,0,1,396,-4)"></circle><line x1="550" x2="550" y1="1" y2="99" class="stroke_order_diagram--guide_line"></line><line x1="599" x2="599" y1="1" y2="99" class="stroke_order_diagram--bounding_box"></line><path id="pathSk2v596cn18w9" kvg:type="㇑a" d="M52.34,10c1.14,1.14,1.77,2.5,1.77,3.96c0,3.11-0.08,3.9-0.08,6.73" transform="matrix(1,0,0,1,496,-4)" class="stroke_order_diagram--existing_path"></path><path id="pathSk2v596cn18wa" kvg:type="㇔" d="M27.25,22.62c0,3.71-3.18,13.9-4.62,16.38" transform="matrix(1,0,0,1,496,-4)" class="stroke_order_diagram--existing_path"></path><path id="pathSk2v596cn18wb" kvg:type="㇖b" d="M27.9,24.63c10.6-1.26,39.97-4.63,54.87-4.91c9.48-0.18,1.48,6.28-1.61,8.4" transform="matrix(1,0,0,1,496,-4)" class="stroke_order_diagram--existing_path"></path><path id="pathSk2v596cn18wc" kvg:type="㇐" d="M32.75,39.89c2.04,0.66,4.32,0.42,6.4,0.21c7.57-0.76,20.98-2.56,28.73-3.1c2.05-0.14,4.22-0.38,6.24,0.01" transform="matrix(1,0,0,1,496,-4)" class="stroke_order_diagram--existing_path"></path><path id="pathSk2v596cn18wd" kvg:type="㇑a" d="M52.37,28c0.88,0.88,1.46,2.38,1.46,3.75c0,1.02-0.08,21.62-0.08,30.5" transform="matrix(1,0,0,1,496,-4)" class="stroke_order_diagram--existing_path"></path><path id="kvg:05bb3-s6" kvg:type="㇐" d="M33.75,51.89c2.08,0.64,4.39,0.42,6.51,0.22c7.42-0.71,18.58-2.17,26.86-2.83c2.16-0.17,4.12-0.17,6.25,0.23" transform="matrix(1,0,0,1,496,-4)" class="stroke_order_diagram--current_path"></path><path id="pathSk2v596cn18wf" kvg:type="㇐" d="M33.75,51.89c2.08,0.64,4.39,0.42,6.51,0.22c7.42-0.71,18.58-2.17,26.86-2.83c2.16-0.17,4.12-0.17,6.25,0.23" transform="matrix(1,0,0,1,496,-4)" class="stroke_order_diagram--current_path"></path><circle cx="33.75" cy="51.89" r="8" class="stroke_order_diagram--path_start" transform="matrix(1,0,0,1,496,-4)"></circle><line x1="650" x2="650" y1="1" y2="99" class="stroke_order_diagram--guide_line"></line><line x1="699" x2="699" y1="1" y2="99" class="stroke_order_diagram--bounding_box"></line><path id="pathSk2v596cn18wi" kvg:type="㇑a" d="M52.34,10c1.14,1.14,1.77,2.5,1.77,3.96c0,3.11-0.08,3.9-0.08,6.73" transform="matrix(1,0,0,1,596,-4)" class="stroke_order_diagram--existing_path"></path><path id="pathSk2v596cn18wj" kvg:type="㇔" d="M27.25,22.62c0,3.71-3.18,13.9-4.62,16.38" transform="matrix(1,0,0,1,596,-4)" class="stroke_order_diagram--existing_path"></path><path id="pathSk2v596cn18wk" kvg:type="㇖b" d="M27.9,24.63c10.6-1.26,39.97-4.63,54.87-4.91c9.48-0.18,1.48,6.28-1.61,8.4" transform="matrix(1,0,0,1,596,-4)" class="stroke_order_diagram--existing_path"></path><path id="pathSk2v596cn18wl" kvg:type="㇐" d="M32.75,39.89c2.04,0.66,4.32,0.42,6.4,0.21c7.57-0.76,20.98-2.56,28.73-3.1c2.05-0.14,4.22-0.38,6.24,0.01" transform="matrix(1,0,0,1,596,-4)" class="stroke_order_diagram--existing_path"></path><path id="pathSk2v596cn18wm" kvg:type="㇑a" d="M52.37,28c0.88,0.88,1.46,2.38,1.46,3.75c0,1.02-0.08,21.62-0.08,30.5" transform="matrix(1,0,0,1,596,-4)" class="stroke_order_diagram--existing_path"></path><path id="pathSk2v596cn18wn" kvg:type="㇐" d="M33.75,51.89c2.08,0.64,4.39,0.42,6.51,0.22c7.42-0.71,18.58-2.17,26.86-2.83c2.16-0.17,4.12-0.17,6.25,0.23" transform="matrix(1,0,0,1,596,-4)" class="stroke_order_diagram--existing_path"></path><path id="kvg:05bb3-s7" kvg:type="㇐" d="M19,65.64c3.64,0.77,7.35,0.46,11.01,0.08c15.12-1.59,39.03-3.93,51.5-4.64c3.16-0.18,6.88-0.07,9.99,0.69" transform="matrix(1,0,0,1,596,-4)" class="stroke_order_diagram--current_path"></path><path id="pathSk2v596cn18wp" kvg:type="㇐" d="M19,65.64c3.64,0.77,7.35,0.46,11.01,0.08c15.12-1.59,39.03-3.93,51.5-4.64c3.16-0.18,6.88-0.07,9.99,0.69" transform="matrix(1,0,0,1,596,-4)" class="stroke_order_diagram--current_path"></path><circle cx="19" cy="65.64" r="8" class="stroke_order_diagram--path_start" transform="matrix(1,0,0,1,596,-4)"></circle><line x1="750" x2="750" y1="1" y2="99" class="stroke_order_diagram--guide_line"></line><line x1="799" x2="799" y1="1" y2="99" class="stroke_order_diagram--bounding_box"></line><path id="pathSk2v596cn18ws" kvg:type="㇑a" d="M52.34,10c1.14,1.14,1.77,2.5,1.77,3.96c0,3.11-0.08,3.9-0.08,6.73" transform="matrix(1,0,0,1,696,-4)" class="stroke_order_diagram--existing_path"></path><path id="pathSk2v596cn18wt" kvg:type="㇔" d="M27.25,22.62c0,3.71-3.18,13.9-4.62,16.38" transform="matrix(1,0,0,1,696,-4)" class="stroke_order_diagram--existing_path"></path><path id="pathSk2v596cn18wu" kvg:type="㇖b" d="M27.9,24.63c10.6-1.26,39.97-4.63,54.87-4.91c9.48-0.18,1.48,6.28-1.61,8.4" transform="matrix(1,0,0,1,696,-4)" class="stroke_order_diagram--existing_path"></path><path id="pathSk2v596cn18wv" kvg:type="㇐" d="M32.75,39.89c2.04,0.66,4.32,0.42,6.4,0.21c7.57-0.76,20.98-2.56,28.73-3.1c2.05-0.14,4.22-0.38,6.24,0.01" transform="matrix(1,0,0,1,696,-4)" class="stroke_order_diagram--existing_path"></path><path id="pathSk2v596cn18ww" kvg:type="㇑a" d="M52.37,28c0.88,0.88,1.46,2.38,1.46,3.75c0,1.02-0.08,21.62-0.08,30.5" transform="matrix(1,0,0,1,696,-4)" class="stroke_order_diagram--existing_path"></path><path id="pathSk2v596cn18wx" kvg:type="㇐" d="M33.75,51.89c2.08,0.64,4.39,0.42,6.51,0.22c7.42-0.71,18.58-2.17,26.86-2.83c2.16-0.17,4.12-0.17,6.25,0.23" transform="matrix(1,0,0,1,696,-4)" class="stroke_order_diagram--existing_path"></path><path id="pathSk2v596cn18wy" kvg:type="㇐" d="M19,65.64c3.64,0.77,7.35,0.46,11.01,0.08c15.12-1.59,39.03-3.93,51.5-4.64c3.16-0.18,6.88-0.07,9.99,0.69" transform="matrix(1,0,0,1,696,-4)" class="stroke_order_diagram--existing_path"></path><path id="kvg:05bb3-s8" kvg:type="㇑" d="M34,75.85c0.95,0.95,1.5,1.9,1.73,3.15c0.57,3.08,1.52,9.72,2.37,15.63c0.22,1.52,0.42,2.98,0.62,4.33" transform="matrix(1,0,0,1,696,-4)" class="stroke_order_diagram--current_path"></path><path id="pathSk2v596cn18x0" kvg:type="㇑" d="M34,75.85c0.95,0.95,1.5,1.9,1.73,3.15c0.57,3.08,1.52,9.72,2.37,15.63c0.22,1.52,0.42,2.98,0.62,4.33" transform="matrix(1,0,0,1,696,-4)" class="stroke_order_diagram--current_path"></path><circle cx="34" cy="75.85" r="8" class="stroke_order_diagram--path_start" transform="matrix(1,0,0,1,696,-4)"></circle><line x1="850" x2="850" y1="1" y2="99" class="stroke_order_diagram--guide_line"></line><line x1="899" x2="899" y1="1" y2="99" class="stroke_order_diagram--bounding_box"></line><path id="pathSk2v596cn18x3" kvg:type="㇑a" d="M52.34,10c1.14,1.14,1.77,2.5,1.77,3.96c0,3.11-0.08,3.9-0.08,6.73" transform="matrix(1,0,0,1,796,-4)" class="stroke_order_diagram--existing_path"></path><path id="pathSk2v596cn18x4" kvg:type="㇔" d="M27.25,22.62c0,3.71-3.18,13.9-4.62,16.38" transform="matrix(1,0,0,1,796,-4)" class="stroke_order_diagram--existing_path"></path><path id="pathSk2v596cn18x5" kvg:type="㇖b" d="M27.9,24.63c10.6-1.26,39.97-4.63,54.87-4.91c9.48-0.18,1.48,6.28-1.61,8.4" transform="matrix(1,0,0,1,796,-4)" class="stroke_order_diagram--existing_path"></path><path id="pathSk2v596cn18x6" kvg:type="㇐" d="M32.75,39.89c2.04,0.66,4.32,0.42,6.4,0.21c7.57-0.76,20.98-2.56,28.73-3.1c2.05-0.14,4.22-0.38,6.24,0.01" transform="matrix(1,0,0,1,796,-4)" class="stroke_order_diagram--existing_path"></path><path id="pathSk2v596cn18x7" kvg:type="㇑a" d="M52.37,28c0.88,0.88,1.46,2.38,1.46,3.75c0,1.02-0.08,21.62-0.08,30.5" transform="matrix(1,0,0,1,796,-4)" class="stroke_order_diagram--existing_path"></path><path id="pathSk2v596cn18x8" kvg:type="㇐" d="M33.75,51.89c2.08,0.64,4.39,0.42,6.51,0.22c7.42-0.71,18.58-2.17,26.86-2.83c2.16-0.17,4.12-0.17,6.25,0.23" transform="matrix(1,0,0,1,796,-4)" class="stroke_order_diagram--existing_path"></path><path id="pathSk2v596cn18x9" kvg:type="㇐" d="M19,65.64c3.64,0.77,7.35,0.46,11.01,0.08c15.12-1.59,39.03-3.93,51.5-4.64c3.16-0.18,6.88-0.07,9.99,0.69" transform="matrix(1,0,0,1,796,-4)" class="stroke_order_diagram--existing_path"></path><path id="pathSk2v596cn18xa" kvg:type="㇑" d="M34,75.85c0.95,0.95,1.5,1.9,1.73,3.15c0.57,3.08,1.52,9.72,2.37,15.63c0.22,1.52,0.42,2.98,0.62,4.33" transform="matrix(1,0,0,1,796,-4)" class="stroke_order_diagram--existing_path"></path><path id="kvg:05bb3-s9" kvg:type="㇕b" d="M36.48,77.86c9.39-1.11,26.21-3.08,33.89-3.84c3.95-0.39,5.81,0.49,4.79,4.77c-0.94,3.93-1.7,7.37-3.71,13.09" transform="matrix(1,0,0,1,796,-4)" class="stroke_order_diagram--current_path"></path><path id="pathSk2v596cn18xc" kvg:type="㇕b" d="M36.48,77.86c9.39-1.11,26.21-3.08,33.89-3.84c3.95-0.39,5.81,0.49,4.79,4.77c-0.94,3.93-1.7,7.37-3.71,13.09" transform="matrix(1,0,0,1,796,-4)" class="stroke_order_diagram--current_path"></path><circle cx="36.48" cy="77.86" r="8" class="stroke_order_diagram--path_start" transform="matrix(1,0,0,1,796,-4)"></circle><line x1="950" x2="950" y1="1" y2="99" class="stroke_order_diagram--guide_line"></line><line x1="999" x2="999" y1="1" y2="99" class="stroke_order_diagram--bounding_box"></line><path id="pathSk2v596cn18xf" kvg:type="㇑a" d="M52.34,10c1.14,1.14,1.77,2.5,1.77,3.96c0,3.11-0.08,3.9-0.08,6.73" transform="matrix(1,0,0,1,896,-4)" class="stroke_order_diagram--existing_path"></path><path id="pathSk2v596cn18xg" kvg:type="㇔" d="M27.25,22.62c0,3.71-3.18,13.9-4.62,16.38" transform="matrix(1,0,0,1,896,-4)" class="stroke_order_diagram--existing_path"></path><path id="pathSk2v596cn18xh" kvg:type="㇖b" d="M27.9,24.63c10.6-1.26,39.97-4.63,54.87-4.91c9.48-0.18,1.48,6.28-1.61,8.4" transform="matrix(1,0,0,1,896,-4)" class="stroke_order_diagram--existing_path"></path><path id="pathSk2v596cn18xi" kvg:type="㇐" d="M32.75,39.89c2.04,0.66,4.32,0.42,6.4,0.21c7.57-0.76,20.98-2.56,28.73-3.1c2.05-0.14,4.22-0.38,6.24,0.01" transform="matrix(1,0,0,1,896,-4)" class="stroke_order_diagram--existing_path"></path><path id="pathSk2v596cn18xj" kvg:type="㇑a" d="M52.37,28c0.88,0.88,1.46,2.38,1.46,3.75c0,1.02-0.08,21.62-0.08,30.5" transform="matrix(1,0,0,1,896,-4)" class="stroke_order_diagram--existing_path"></path><path id="pathSk2v596cn18xk" kvg:type="㇐" d="M33.75,51.89c2.08,0.64,4.39,0.42,6.51,0.22c7.42-0.71,18.58-2.17,26.86-2.83c2.16-0.17,4.12-0.17,6.25,0.23" transform="matrix(1,0,0,1,896,-4)" class="stroke_order_diagram--existing_path"></path><path id="pathSk2v596cn18xl" kvg:type="㇐" d="M19,65.64c3.64,0.77,7.35,0.46,11.01,0.08c15.12-1.59,39.03-3.93,51.5-4.64c3.16-0.18,6.88-0.07,9.99,0.69" transform="matrix(1,0,0,1,896,-4)" class="stroke_order_diagram--existing_path"></path><path id="pathSk2v596cn18xm" kvg:type="㇑" d="M34,75.85c0.95,0.95,1.5,1.9,1.73,3.15c0.57,3.08,1.52,9.72,2.37,15.63c0.22,1.52,0.42,2.98,0.62,4.33" transform="matrix(1,0,0,1,896,-4)" class="stroke_order_diagram--existing_path"></path><path id="pathSk2v596cn18xn" kvg:type="㇕b" d="M36.48,77.86c9.39-1.11,26.21-3.08,33.89-3.84c3.95-0.39,5.81,0.49,4.79,4.77c-0.94,3.93-1.7,7.37-3.71,13.09" transform="matrix(1,0,0,1,896,-4)" class="stroke_order_diagram--existing_path"></path><path id="kvg:05bb3-s10" kvg:type="㇐b" d="M39.36,95.78c4.89-0.49,20.59-1.86,30.14-2.65c2.01-0.17,3.75-0.31,5.05-0.41" transform="matrix(1,0,0,1,896,-4)" class="stroke_order_diagram--current_path"></path><path id="pathSk2v596cn18xp" kvg:type="㇐b" d="M39.36,95.78c4.89-0.49,20.59-1.86,30.14-2.65c2.01-0.17,3.75-0.31,5.05-0.41" transform="matrix(1,0,0,1,896,-4)" class="stroke_order_diagram--current_path"></path><circle cx="39.36" cy="95.78" r="8" class="stroke_order_diagram--path_start" transform="matrix(1,0,0,1,896,-4)"></circle></svg>