<svg style="width: 1100px; height: 100px;" viewbox="0 0 1100 100"><style>
.stroke_order_diagram--outer_container {
  width: 100%;
  overflow-x: auto;
  overflow-y: hidden;
}

.stroke_order_diagram--guide_line {
  fill: none;
  stroke: #ddd;
  stroke-width: 3;
  stroke-linecap: square;
  stroke-linejoin: square;
  stroke-dasharray:8, 8;
}

.stroke_order_diagram--bounding_box {
  fill: none;
  stroke: #ddd;
  stroke-width: 4;
  stroke-linecap: square;
  stroke-linejoin: square;
}

.stroke_order_diagram--current_path {
  fill: none;
  stroke: #000;
  stroke-width: 6;
  stroke-linecap: round;
  stroke-linejoin: round;
}

.stroke_order_diagram--existing_path {
  fill: none;
  stroke: #aaa;
  stroke-width: 6;
  stroke-linecap: round;
  stroke-linejoin:round;
}

.stroke_order_diagram--path_start {
  fill: rgba(255, 0, 0, 0.7);
  stroke:none
}</style><desc>Created with Snap</desc><defs></defs><line x1="1" x2="1099" y1="1" y2="1" class="stroke_order_diagram--bounding_box"></line><line x1="1" x2="1" y1="1" y2="99" class="stroke_order_diagram--bounding_box"></line><line x1="1" x2="1099" y1="99" y2="99" class="stroke_order_diagram--bounding_box"></line><line x1="0" x2="1100" y1="50" y2="50" class="stroke_order_diagram--guide_line"></line><line x1="50" x2="50" y1="1" y2="99" class="stroke_order_diagram--guide_line"></line><line x1="99" x2="99" y1="1" y2="99" class="stroke_order_diagram--bounding_box"></line><path id="kvg:05bbf-s1" kvg:type="㇑a" d="M53.25,10.5c1,1,1.74,2.53,1.71,3.77c-0.09,3.9-0.1,6.23-0.1,8.83" transform="matrix(1,0,0,1,-4,-4)" class="stroke_order_diagram--current_path"></path><path id="pathSk2v596cnp4t" kvg:type="㇑a" d="M53.25,10.5c1,1,1.74,2.53,1.71,3.77c-0.09,3.9-0.1,6.23-0.1,8.83" transform="matrix(1,0,0,1,-4,-4)" class="stroke_order_diagram--current_path"></path><circle cx="53.25" cy="10.5" r="8" class="stroke_order_diagram--path_start" transform="matrix(1,0,0,1,-4,-4)"></circle><line x1="150" x2="150" y1="1" y2="99" class="stroke_order_diagram--guide_line"></line><line x1="199" x2="199" y1="1" y2="99" class="stroke_order_diagram--bounding_box"></line><path id="pathSk2v596cnp4w" kvg:type="㇑a" d="M53.25,10.5c1,1,1.74,2.53,1.71,3.77c-0.09,3.9-0.1,6.23-0.1,8.83" transform="matrix(1,0,0,1,96,-4)" class="stroke_order_diagram--existing_path"></path><path id="kvg:05bbf-s2" kvg:type="㇔" d="M21.75,24.75c0,3.89-3.25,15.16-4.5,17.75" transform="matrix(1,0,0,1,96,-4)" class="stroke_order_diagram--current_path"></path><path id="pathSk2v596cnp4y" kvg:type="㇔" d="M21.75,24.75c0,3.89-3.25,15.16-4.5,17.75" transform="matrix(1,0,0,1,96,-4)" class="stroke_order_diagram--current_path"></path><circle cx="21.75" cy="24.75" r="8" class="stroke_order_diagram--path_start" transform="matrix(1,0,0,1,96,-4)"></circle><line x1="250" x2="250" y1="1" y2="99" class="stroke_order_diagram--guide_line"></line><line x1="299" x2="299" y1="1" y2="99" class="stroke_order_diagram--bounding_box"></line><path id="pathSk2v596cnp51" kvg:type="㇑a" d="M53.25,10.5c1,1,1.74,2.53,1.71,3.77c-0.09,3.9-0.1,6.23-0.1,8.83" transform="matrix(1,0,0,1,196,-4)" class="stroke_order_diagram--existing_path"></path><path id="pathSk2v596cnp52" kvg:type="㇔" d="M21.75,24.75c0,3.89-3.25,15.16-4.5,17.75" transform="matrix(1,0,0,1,196,-4)" class="stroke_order_diagram--existing_path"></path><path id="kvg:05bbf-s3" kvg:type="㇖b" d="M22.72,27.76c18.03-2.01,43.91-5.26,63.12-5.93c12.16-0.42,3.17,7.41-0.42,9.28" transform="matrix(1,0,0,1,196,-4)" class="stroke_order_diagram--current_path"></path><path id="pathSk2v596cnp54" kvg:type="㇖b" d="M22.72,27.76c18.03-2.01,43.91-5.26,63.12-5.93c12.16-0.42,3.17,7.41-0.42,9.28" transform="matrix(1,0,0,1,196,-4)" class="stroke_order_diagram--current_path"></path><circle cx="22.72" cy="27.76" r="8" class="stroke_order_diagram--path_start" transform="matrix(1,0,0,1,196,-4)"></circle><line x1="350" x2="350" y1="1" y2="99" class="stroke_order_diagram--guide_line"></line><line x1="399" x2="399" y1="1" y2="99" class="stroke_order_diagram--bounding_box"></line><path id="pathSk2v596cnp57" kvg:type="㇑a" d="M53.25,10.5c1,1,1.74,2.53,1.71,3.77c-0.09,3.9-0.1,6.23-0.1,8.83" transform="matrix(1,0,0,1,296,-4)" class="stroke_order_diagram--existing_path"></path><path id="pathSk2v596cnp58" kvg:type="㇔" d="M21.75,24.75c0,3.89-3.25,15.16-4.5,17.75" transform="matrix(1,0,0,1,296,-4)" class="stroke_order_diagram--existing_path"></path><path id="pathSk2v596cnp59" kvg:type="㇖b" d="M22.72,27.76c18.03-2.01,43.91-5.26,63.12-5.93c12.16-0.42,3.17,7.41-0.42,9.28" transform="matrix(1,0,0,1,296,-4)" class="stroke_order_diagram--existing_path"></path><path id="kvg:05bbf-s4" kvg:type="㇒" d="M32.77,37.81c0.21,1.75-0.06,3.54-0.73,5.04C27.77,52.4,22.79,61.21,13,72.83" transform="matrix(1,0,0,1,296,-4)" class="stroke_order_diagram--current_path"></path><path id="pathSk2v596cnp5b" kvg:type="㇒" d="M32.77,37.81c0.21,1.75-0.06,3.54-0.73,5.04C27.77,52.4,22.79,61.21,13,72.83" transform="matrix(1,0,0,1,296,-4)" class="stroke_order_diagram--current_path"></path><circle cx="32.77" cy="37.81" r="8" class="stroke_order_diagram--path_start" transform="matrix(1,0,0,1,296,-4)"></circle><line x1="450" x2="450" y1="1" y2="99" class="stroke_order_diagram--guide_line"></line><line x1="499" x2="499" y1="1" y2="99" class="stroke_order_diagram--bounding_box"></line><path id="pathSk2v596cnp5e" kvg:type="㇑a" d="M53.25,10.5c1,1,1.74,2.53,1.71,3.77c-0.09,3.9-0.1,6.23-0.1,8.83" transform="matrix(1,0,0,1,396,-4)" class="stroke_order_diagram--existing_path"></path><path id="pathSk2v596cnp5f" kvg:type="㇔" d="M21.75,24.75c0,3.89-3.25,15.16-4.5,17.75" transform="matrix(1,0,0,1,396,-4)" class="stroke_order_diagram--existing_path"></path><path id="pathSk2v596cnp5g" kvg:type="㇖b" d="M22.72,27.76c18.03-2.01,43.91-5.26,63.12-5.93c12.16-0.42,3.17,7.41-0.42,9.28" transform="matrix(1,0,0,1,396,-4)" class="stroke_order_diagram--existing_path"></path><path id="pathSk2v596cnp5h" kvg:type="㇒" d="M32.77,37.81c0.21,1.75-0.06,3.54-0.73,5.04C27.77,52.4,22.79,61.21,13,72.83" transform="matrix(1,0,0,1,396,-4)" class="stroke_order_diagram--existing_path"></path><path id="kvg:05bbf-s5" kvg:type="㇑" d="M25.71,59.44c0.99,0.99,1.65,2.31,1.65,4.06c0,9.93-0.1,23.35-0.14,31.25c-0.01,1.55-0.01,2.88-0.01,3.94" transform="matrix(1,0,0,1,396,-4)" class="stroke_order_diagram--current_path"></path><path id="pathSk2v596cnp5j" kvg:type="㇑" d="M25.71,59.44c0.99,0.99,1.65,2.31,1.65,4.06c0,9.93-0.1,23.35-0.14,31.25c-0.01,1.55-0.01,2.88-0.01,3.94" transform="matrix(1,0,0,1,396,-4)" class="stroke_order_diagram--current_path"></path><circle cx="25.71" cy="59.44" r="8" class="stroke_order_diagram--path_start" transform="matrix(1,0,0,1,396,-4)"></circle><line x1="550" x2="550" y1="1" y2="99" class="stroke_order_diagram--guide_line"></line><line x1="599" x2="599" y1="1" y2="99" class="stroke_order_diagram--bounding_box"></line><path id="pathSk2v596cnp5m" kvg:type="㇑a" d="M53.25,10.5c1,1,1.74,2.53,1.71,3.77c-0.09,3.9-0.1,6.23-0.1,8.83" transform="matrix(1,0,0,1,496,-4)" class="stroke_order_diagram--existing_path"></path><path id="pathSk2v596cnp5n" kvg:type="㇔" d="M21.75,24.75c0,3.89-3.25,15.16-4.5,17.75" transform="matrix(1,0,0,1,496,-4)" class="stroke_order_diagram--existing_path"></path><path id="pathSk2v596cnp5o" kvg:type="㇖b" d="M22.72,27.76c18.03-2.01,43.91-5.26,63.12-5.93c12.16-0.42,3.17,7.41-0.42,9.28" transform="matrix(1,0,0,1,496,-4)" class="stroke_order_diagram--existing_path"></path><path id="pathSk2v596cnp5p" kvg:type="㇒" d="M32.77,37.81c0.21,1.75-0.06,3.54-0.73,5.04C27.77,52.4,22.79,61.21,13,72.83" transform="matrix(1,0,0,1,496,-4)" class="stroke_order_diagram--existing_path"></path><path id="pathSk2v596cnp5q" kvg:type="㇑" d="M25.71,59.44c0.99,0.99,1.65,2.31,1.65,4.06c0,9.93-0.1,23.35-0.14,31.25c-0.01,1.55-0.01,2.88-0.01,3.94" transform="matrix(1,0,0,1,496,-4)" class="stroke_order_diagram--existing_path"></path><path id="kvg:05bbf-s6" kvg:type="㇐" d="M43.62,44.56c2.26,0.56,5.09,0.25,7.53-0.05c8.81-1.11,20.6-2.76,30.35-3.68c2.29-0.22,4.53-0.24,6.79,0.2" transform="matrix(1,0,0,1,496,-4)" class="stroke_order_diagram--current_path"></path><path id="pathSk2v596cnp5s" kvg:type="㇐" d="M43.62,44.56c2.26,0.56,5.09,0.25,7.53-0.05c8.81-1.11,20.6-2.76,30.35-3.68c2.29-0.22,4.53-0.24,6.79,0.2" transform="matrix(1,0,0,1,496,-4)" class="stroke_order_diagram--current_path"></path><circle cx="43.62" cy="44.56" r="8" class="stroke_order_diagram--path_start" transform="matrix(1,0,0,1,496,-4)"></circle><line x1="650" x2="650" y1="1" y2="99" class="stroke_order_diagram--guide_line"></line><line x1="699" x2="699" y1="1" y2="99" class="stroke_order_diagram--bounding_box"></line><path id="pathSk2v596cnp5v" kvg:type="㇑a" d="M53.25,10.5c1,1,1.74,2.53,1.71,3.77c-0.09,3.9-0.1,6.23-0.1,8.83" transform="matrix(1,0,0,1,596,-4)" class="stroke_order_diagram--existing_path"></path><path id="pathSk2v596cnp5w" kvg:type="㇔" d="M21.75,24.75c0,3.89-3.25,15.16-4.5,17.75" transform="matrix(1,0,0,1,596,-4)" class="stroke_order_diagram--existing_path"></path><path id="pathSk2v596cnp5x" kvg:type="㇖b" d="M22.72,27.76c18.03-2.01,43.91-5.26,63.12-5.93c12.16-0.42,3.17,7.41-0.42,9.28" transform="matrix(1,0,0,1,596,-4)" class="stroke_order_diagram--existing_path"></path><path id="pathSk2v596cnp5y" kvg:type="㇒" d="M32.77,37.81c0.21,1.75-0.06,3.54-0.73,5.04C27.77,52.4,22.79,61.21,13,72.83" transform="matrix(1,0,0,1,596,-4)" class="stroke_order_diagram--existing_path"></path><path id="pathSk2v596cnp5z" kvg:type="㇑" d="M25.71,59.44c0.99,0.99,1.65,2.31,1.65,4.06c0,9.93-0.1,23.35-0.14,31.25c-0.01,1.55-0.01,2.88-0.01,3.94" transform="matrix(1,0,0,1,596,-4)" class="stroke_order_diagram--existing_path"></path><path id="pathSk2v596cnp60" kvg:type="㇐" d="M43.62,44.56c2.26,0.56,5.09,0.25,7.53-0.05c8.81-1.11,20.6-2.76,30.35-3.68c2.29-0.22,4.53-0.24,6.79,0.2" transform="matrix(1,0,0,1,596,-4)" class="stroke_order_diagram--existing_path"></path><path id="kvg:05bbf-s7" kvg:type="㇒" d="M64.17,45.27c0.36,0.8,0.38,1.59,0.08,2.38c-0.54,2.37-1.87,5.47-4.72,10.48" transform="matrix(1,0,0,1,596,-4)" class="stroke_order_diagram--current_path"></path><path id="pathSk2v596cnp62" kvg:type="㇒" d="M64.17,45.27c0.36,0.8,0.38,1.59,0.08,2.38c-0.54,2.37-1.87,5.47-4.72,10.48" transform="matrix(1,0,0,1,596,-4)" class="stroke_order_diagram--current_path"></path><circle cx="64.17" cy="45.27" r="8" class="stroke_order_diagram--path_start" transform="matrix(1,0,0,1,596,-4)"></circle><line x1="750" x2="750" y1="1" y2="99" class="stroke_order_diagram--guide_line"></line><line x1="799" x2="799" y1="1" y2="99" class="stroke_order_diagram--bounding_box"></line><path id="pathSk2v596cnp65" kvg:type="㇑a" d="M53.25,10.5c1,1,1.74,2.53,1.71,3.77c-0.09,3.9-0.1,6.23-0.1,8.83" transform="matrix(1,0,0,1,696,-4)" class="stroke_order_diagram--existing_path"></path><path id="pathSk2v596cnp66" kvg:type="㇔" d="M21.75,24.75c0,3.89-3.25,15.16-4.5,17.75" transform="matrix(1,0,0,1,696,-4)" class="stroke_order_diagram--existing_path"></path><path id="pathSk2v596cnp67" kvg:type="㇖b" d="M22.72,27.76c18.03-2.01,43.91-5.26,63.12-5.93c12.16-0.42,3.17,7.41-0.42,9.28" transform="matrix(1,0,0,1,696,-4)" class="stroke_order_diagram--existing_path"></path><path id="pathSk2v596cnp68" kvg:type="㇒" d="M32.77,37.81c0.21,1.75-0.06,3.54-0.73,5.04C27.77,52.4,22.79,61.21,13,72.83" transform="matrix(1,0,0,1,696,-4)" class="stroke_order_diagram--existing_path"></path><path id="pathSk2v596cnp69" kvg:type="㇑" d="M25.71,59.44c0.99,0.99,1.65,2.31,1.65,4.06c0,9.93-0.1,23.35-0.14,31.25c-0.01,1.55-0.01,2.88-0.01,3.94" transform="matrix(1,0,0,1,696,-4)" class="stroke_order_diagram--existing_path"></path><path id="pathSk2v596cnp6a" kvg:type="㇐" d="M43.62,44.56c2.26,0.56,5.09,0.25,7.53-0.05c8.81-1.11,20.6-2.76,30.35-3.68c2.29-0.22,4.53-0.24,6.79,0.2" transform="matrix(1,0,0,1,696,-4)" class="stroke_order_diagram--existing_path"></path><path id="pathSk2v596cnp6b" kvg:type="㇒" d="M64.17,45.27c0.36,0.8,0.38,1.59,0.08,2.38c-0.54,2.37-1.87,5.47-4.72,10.48" transform="matrix(1,0,0,1,696,-4)" class="stroke_order_diagram--existing_path"></path><path id="kvg:05bbf-s8" kvg:type="㇑" d="M48.26,59.41c0.92,0.92,1.62,2.44,1.64,3.73c0.09,8.52-0.06,20.6-0.11,29.74c-0.01,1.44-0.01,2.8-0.01,4.06" transform="matrix(1,0,0,1,696,-4)" class="stroke_order_diagram--current_path"></path><path id="pathSk2v596cnp6d" kvg:type="㇑" d="M48.26,59.41c0.92,0.92,1.62,2.44,1.64,3.73c0.09,8.52-0.06,20.6-0.11,29.74c-0.01,1.44-0.01,2.8-0.01,4.06" transform="matrix(1,0,0,1,696,-4)" class="stroke_order_diagram--current_path"></path><circle cx="48.26" cy="59.41" r="8" class="stroke_order_diagram--path_start" transform="matrix(1,0,0,1,696,-4)"></circle><line x1="850" x2="850" y1="1" y2="99" class="stroke_order_diagram--guide_line"></line><line x1="899" x2="899" y1="1" y2="99" class="stroke_order_diagram--bounding_box"></line><path id="pathSk2v596cnp6g" kvg:type="㇑a" d="M53.25,10.5c1,1,1.74,2.53,1.71,3.77c-0.09,3.9-0.1,6.23-0.1,8.83" transform="matrix(1,0,0,1,796,-4)" class="stroke_order_diagram--existing_path"></path><path id="pathSk2v596cnp6h" kvg:type="㇔" d="M21.75,24.75c0,3.89-3.25,15.16-4.5,17.75" transform="matrix(1,0,0,1,796,-4)" class="stroke_order_diagram--existing_path"></path><path id="pathSk2v596cnp6i" kvg:type="㇖b" d="M22.72,27.76c18.03-2.01,43.91-5.26,63.12-5.93c12.16-0.42,3.17,7.41-0.42,9.28" transform="matrix(1,0,0,1,796,-4)" class="stroke_order_diagram--existing_path"></path><path id="pathSk2v596cnp6j" kvg:type="㇒" d="M32.77,37.81c0.21,1.75-0.06,3.54-0.73,5.04C27.77,52.4,22.79,61.21,13,72.83" transform="matrix(1,0,0,1,796,-4)" class="stroke_order_diagram--existing_path"></path><path id="pathSk2v596cnp6k" kvg:type="㇑" d="M25.71,59.44c0.99,0.99,1.65,2.31,1.65,4.06c0,9.93-0.1,23.35-0.14,31.25c-0.01,1.55-0.01,2.88-0.01,3.94" transform="matrix(1,0,0,1,796,-4)" class="stroke_order_diagram--existing_path"></path><path id="pathSk2v596cnp6l" kvg:type="㇐" d="M43.62,44.56c2.26,0.56,5.09,0.25,7.53-0.05c8.81-1.11,20.6-2.76,30.35-3.68c2.29-0.22,4.53-0.24,6.79,0.2" transform="matrix(1,0,0,1,796,-4)" class="stroke_order_diagram--existing_path"></path><path id="pathSk2v596cnp6m" kvg:type="㇒" d="M64.17,45.27c0.36,0.8,0.38,1.59,0.08,2.38c-0.54,2.37-1.87,5.47-4.72,10.48" transform="matrix(1,0,0,1,796,-4)" class="stroke_order_diagram--existing_path"></path><path id="pathSk2v596cnp6n" kvg:type="㇑" d="M48.26,59.41c0.92,0.92,1.62,2.44,1.64,3.73c0.09,8.52-0.06,20.6-0.11,29.74c-0.01,1.44-0.01,2.8-0.01,4.06" transform="matrix(1,0,0,1,796,-4)" class="stroke_order_diagram--existing_path"></path><path id="kvg:05bbf-s9" kvg:type="㇕a" d="M50.98,61.44c2.99-0.15,22.75-2.59,27.9-3.08c3.26-0.31,5.17,0.94,4.95,4.28c-0.46,6.99-1.54,18.46-1.97,27.74c-0.08,1.61-0.13,3.09-0.17,4.39" transform="matrix(1,0,0,1,796,-4)" class="stroke_order_diagram--current_path"></path><path id="pathSk2v596cnp6p" kvg:type="㇕a" d="M50.98,61.44c2.99-0.15,22.75-2.59,27.9-3.08c3.26-0.31,5.17,0.94,4.95,4.28c-0.46,6.99-1.54,18.46-1.97,27.74c-0.08,1.61-0.13,3.09-0.17,4.39" transform="matrix(1,0,0,1,796,-4)" class="stroke_order_diagram--current_path"></path><circle cx="50.98" cy="61.44" r="8" class="stroke_order_diagram--path_start" transform="matrix(1,0,0,1,796,-4)"></circle><line x1="950" x2="950" y1="1" y2="99" class="stroke_order_diagram--guide_line"></line><line x1="999" x2="999" y1="1" y2="99" class="stroke_order_diagram--bounding_box"></line><path id="pathSk2v596cnp6s" kvg:type="㇑a" d="M53.25,10.5c1,1,1.74,2.53,1.71,3.77c-0.09,3.9-0.1,6.23-0.1,8.83" transform="matrix(1,0,0,1,896,-4)" class="stroke_order_diagram--existing_path"></path><path id="pathSk2v596cnp6t" kvg:type="㇔" d="M21.75,24.75c0,3.89-3.25,15.16-4.5,17.75" transform="matrix(1,0,0,1,896,-4)" class="stroke_order_diagram--existing_path"></path><path id="pathSk2v596cnp6u" kvg:type="㇖b" d="M22.72,27.76c18.03-2.01,43.91-5.26,63.12-5.93c12.16-0.42,3.17,7.41-0.42,9.28" transform="matrix(1,0,0,1,896,-4)" class="stroke_order_diagram--existing_path"></path><path id="pathSk2v596cnp6v" kvg:type="㇒" d="M32.77,37.81c0.21,1.75-0.06,3.54-0.73,5.04C27.77,52.4,22.79,61.21,13,72.83" transform="matrix(1,0,0,1,896,-4)" class="stroke_order_diagram--existing_path"></path><path id="pathSk2v596cnp6w" kvg:type="㇑" d="M25.71,59.44c0.99,0.99,1.65,2.31,1.65,4.06c0,9.93-0.1,23.35-0.14,31.25c-0.01,1.55-0.01,2.88-0.01,3.94" transform="matrix(1,0,0,1,896,-4)" class="stroke_order_diagram--existing_path"></path><path id="pathSk2v596cnp6x" kvg:type="㇐" d="M43.62,44.56c2.26,0.56,5.09,0.25,7.53-0.05c8.81-1.11,20.6-2.76,30.35-3.68c2.29-0.22,4.53-0.24,6.79,0.2" transform="matrix(1,0,0,1,896,-4)" class="stroke_order_diagram--existing_path"></path><path id="pathSk2v596cnp6y" kvg:type="㇒" d="M64.17,45.27c0.36,0.8,0.38,1.59,0.08,2.38c-0.54,2.37-1.87,5.47-4.72,10.48" transform="matrix(1,0,0,1,896,-4)" class="stroke_order_diagram--existing_path"></path><path id="pathSk2v596cnp6z" kvg:type="㇑" d="M48.26,59.41c0.92,0.92,1.62,2.44,1.64,3.73c0.09,8.52-0.06,20.6-0.11,29.74c-0.01,1.44-0.01,2.8-0.01,4.06" transform="matrix(1,0,0,1,896,-4)" class="stroke_order_diagram--existing_path"></path><path id="pathSk2v596cnp70" kvg:type="㇕a" d="M50.98,61.44c2.99-0.15,22.75-2.59,27.9-3.08c3.26-0.31,5.17,0.94,4.95,4.28c-0.46,6.99-1.54,18.46-1.97,27.74c-0.08,1.61-0.13,3.09-0.17,4.39" transform="matrix(1,0,0,1,896,-4)" class="stroke_order_diagram--existing_path"></path><path id="kvg:05bbf-s10" kvg:type="㇐a" d="M51.08,76.19c11.67-1.07,21.8-2.32,30.73-2.65" transform="matrix(1,0,0,1,896,-4)" class="stroke_order_diagram--current_path"></path><path id="pathSk2v596cnp72" kvg:type="㇐a" d="M51.08,76.19c11.67-1.07,21.8-2.32,30.73-2.65" transform="matrix(1,0,0,1,896,-4)" class="stroke_order_diagram--current_path"></path><circle cx="51.08" cy="76.19" r="8" class="stroke_order_diagram--path_start" transform="matrix(1,0,0,1,896,-4)"></circle><line x1="1050" x2="1050" y1="1" y2="99" class="stroke_order_diagram--guide_line"></line><line x1="1099" x2="1099" y1="1" y2="99" class="stroke_order_diagram--bounding_box"></line><path id="pathSk2v596cnp75" kvg:type="㇑a" d="M53.25,10.5c1,1,1.74,2.53,1.71,3.77c-0.09,3.9-0.1,6.23-0.1,8.83" transform="matrix(1,0,0,1,996,-4)" class="stroke_order_diagram--existing_path"></path><path id="pathSk2v596cnp76" kvg:type="㇔" d="M21.75,24.75c0,3.89-3.25,15.16-4.5,17.75" transform="matrix(1,0,0,1,996,-4)" class="stroke_order_diagram--existing_path"></path><path id="pathSk2v596cnp77" kvg:type="㇖b" d="M22.72,27.76c18.03-2.01,43.91-5.26,63.12-5.93c12.16-0.42,3.17,7.41-0.42,9.28" transform="matrix(1,0,0,1,996,-4)" class="stroke_order_diagram--existing_path"></path><path id="pathSk2v596cnp78" kvg:type="㇒" d="M32.77,37.81c0.21,1.75-0.06,3.54-0.73,5.04C27.77,52.4,22.79,61.21,13,72.83" transform="matrix(1,0,0,1,996,-4)" class="stroke_order_diagram--existing_path"></path><path id="pathSk2v596cnp79" kvg:type="㇑" d="M25.71,59.44c0.99,0.99,1.65,2.31,1.65,4.06c0,9.93-0.1,23.35-0.14,31.25c-0.01,1.55-0.01,2.88-0.01,3.94" transform="matrix(1,0,0,1,996,-4)" class="stroke_order_diagram--existing_path"></path><path id="pathSk2v596cnp7a" kvg:type="㇐" d="M43.62,44.56c2.26,0.56,5.09,0.25,7.53-0.05c8.81-1.11,20.6-2.76,30.35-3.68c2.29-0.22,4.53-0.24,6.79,0.2" transform="matrix(1,0,0,1,996,-4)" class="stroke_order_diagram--existing_path"></path><path id="pathSk2v596cnp7b" kvg:type="㇒" d="M64.17,45.27c0.36,0.8,0.38,1.59,0.08,2.38c-0.54,2.37-1.87,5.47-4.72,10.48" transform="matrix(1,0,0,1,996,-4)" class="stroke_order_diagram--existing_path"></path><path id="pathSk2v596cnp7c" kvg:type="㇑" d="M48.26,59.41c0.92,0.92,1.62,2.44,1.64,3.73c0.09,8.52-0.06,20.6-0.11,29.74c-0.01,1.44-0.01,2.8-0.01,4.06" transform="matrix(1,0,0,1,996,-4)" class="stroke_order_diagram--existing_path"></path><path id="pathSk2v596cnp7d" kvg:type="㇕a" d="M50.98,61.44c2.99-0.15,22.75-2.59,27.9-3.08c3.26-0.31,5.17,0.94,4.95,4.28c-0.46,6.99-1.54,18.46-1.97,27.74c-0.08,1.61-0.13,3.09-0.17,4.39" transform="matrix(1,0,0,1,996,-4)" class="stroke_order_diagram--existing_path"></path><path id="pathSk2v596cnp7e" kvg:type="㇐a" d="M51.08,76.19c11.67-1.07,21.8-2.32,30.73-2.65" transform="matrix(1,0,0,1,996,-4)" class="stroke_order_diagram--existing_path"></path><path id="kvg:05bbf-s11" kvg:type="㇐a" d="M50.97,93.8c10.54-0.64,19.9-1.68,29.68-2.21" transform="matrix(1,0,0,1,996,-4)" class="stroke_order_diagram--current_path"></path><path id="pathSk2v596cnp7g" kvg:type="㇐a" d="M50.97,93.8c10.54-0.64,19.9-1.68,29.68-2.21" transform="matrix(1,0,0,1,996,-4)" class="stroke_order_diagram--current_path"></path><circle cx="50.97" cy="93.8" r="8" class="stroke_order_diagram--path_start" transform="matrix(1,0,0,1,996,-4)"></circle></svg>