<svg style="width: 1000px; height: 100px;" viewbox="0 0 1000 100"><style>
.stroke_order_diagram--outer_container {
  width: 100%;
  overflow-x: auto;
  overflow-y: hidden;
}

.stroke_order_diagram--guide_line {
  fill: none;
  stroke: #ddd;
  stroke-width: 3;
  stroke-linecap: square;
  stroke-linejoin: square;
  stroke-dasharray:8, 8;
}

.stroke_order_diagram--bounding_box {
  fill: none;
  stroke: #ddd;
  stroke-width: 4;
  stroke-linecap: square;
  stroke-linejoin: square;
}

.stroke_order_diagram--current_path {
  fill: none;
  stroke: #000;
  stroke-width: 6;
  stroke-linecap: round;
  stroke-linejoin: round;
}

.stroke_order_diagram--existing_path {
  fill: none;
  stroke: #aaa;
  stroke-width: 6;
  stroke-linecap: round;
  stroke-linejoin:round;
}

.stroke_order_diagram--path_start {
  fill: rgba(255, 0, 0, 0.7);
  stroke:none
}</style><desc>Created with Snap</desc><defs></defs><line x1="1" x2="999" y1="1" y2="1" class="stroke_order_diagram--bounding_box"></line><line x1="1" x2="1" y1="1" y2="99" class="stroke_order_diagram--bounding_box"></line><line x1="1" x2="999" y1="99" y2="99" class="stroke_order_diagram--bounding_box"></line><line x1="0" x2="1000" y1="50" y2="50" class="stroke_order_diagram--guide_line"></line><line x1="50" x2="50" y1="1" y2="99" class="stroke_order_diagram--guide_line"></line><line x1="99" x2="99" y1="1" y2="99" class="stroke_order_diagram--bounding_box"></line><path id="kvg:05bb6-s1" kvg:type="㇑a" d="M52.44,11c0.97,0.97,1.69,2.25,1.69,3.68c0,3.42-0.08,4.99-0.08,8.1" transform="matrix(1,0,0,1,-4,-4)" class="stroke_order_diagram--current_path"></path><path id="pathSk2v596cn7t4" kvg:type="㇑a" d="M52.44,11c0.97,0.97,1.69,2.25,1.69,3.68c0,3.42-0.08,4.99-0.08,8.1" transform="matrix(1,0,0,1,-4,-4)" class="stroke_order_diagram--current_path"></path><circle cx="52.44" cy="11" r="8" class="stroke_order_diagram--path_start" transform="matrix(1,0,0,1,-4,-4)"></circle><line x1="150" x2="150" y1="1" y2="99" class="stroke_order_diagram--guide_line"></line><line x1="199" x2="199" y1="1" y2="99" class="stroke_order_diagram--bounding_box"></line><path id="pathSk2v596cn7t7" kvg:type="㇑a" d="M52.44,11c0.97,0.97,1.69,2.25,1.69,3.68c0,3.42-0.08,4.99-0.08,8.1" transform="matrix(1,0,0,1,96,-4)" class="stroke_order_diagram--existing_path"></path><path id="kvg:05bb6-s2" kvg:type="㇔" d="M27.09,23.28c0,3.73-2.77,13.98-4.03,16.47" transform="matrix(1,0,0,1,96,-4)" class="stroke_order_diagram--current_path"></path><path id="pathSk2v596cn7t9" kvg:type="㇔" d="M27.09,23.28c0,3.73-2.77,13.98-4.03,16.47" transform="matrix(1,0,0,1,96,-4)" class="stroke_order_diagram--current_path"></path><circle cx="27.09" cy="23.28" r="8" class="stroke_order_diagram--path_start" transform="matrix(1,0,0,1,96,-4)"></circle><line x1="250" x2="250" y1="1" y2="99" class="stroke_order_diagram--guide_line"></line><line x1="299" x2="299" y1="1" y2="99" class="stroke_order_diagram--bounding_box"></line><path id="pathSk2v596cn7tc" kvg:type="㇑a" d="M52.44,11c0.97,0.97,1.69,2.25,1.69,3.68c0,3.42-0.08,4.99-0.08,8.1" transform="matrix(1,0,0,1,196,-4)" class="stroke_order_diagram--existing_path"></path><path id="pathSk2v596cn7td" kvg:type="㇔" d="M27.09,23.28c0,3.73-2.77,13.98-4.03,16.47" transform="matrix(1,0,0,1,196,-4)" class="stroke_order_diagram--existing_path"></path><path id="kvg:05bb6-s3" kvg:type="㇖b" d="M27.99,27.18C41.88,25,72.75,21.5,79.81,21.2c12.19-0.52,1.14,7.87-0.34,8.63" transform="matrix(1,0,0,1,196,-4)" class="stroke_order_diagram--current_path"></path><path id="pathSk2v596cn7tf" kvg:type="㇖b" d="M27.99,27.18C41.88,25,72.75,21.5,79.81,21.2c12.19-0.52,1.14,7.87-0.34,8.63" transform="matrix(1,0,0,1,196,-4)" class="stroke_order_diagram--current_path"></path><circle cx="27.99" cy="27.18" r="8" class="stroke_order_diagram--path_start" transform="matrix(1,0,0,1,196,-4)"></circle><line x1="350" x2="350" y1="1" y2="99" class="stroke_order_diagram--guide_line"></line><line x1="399" x2="399" y1="1" y2="99" class="stroke_order_diagram--bounding_box"></line><path id="pathSk2v596cn7ti" kvg:type="㇑a" d="M52.44,11c0.97,0.97,1.69,2.25,1.69,3.68c0,3.42-0.08,4.99-0.08,8.1" transform="matrix(1,0,0,1,296,-4)" class="stroke_order_diagram--existing_path"></path><path id="pathSk2v596cn7tj" kvg:type="㇔" d="M27.09,23.28c0,3.73-2.77,13.98-4.03,16.47" transform="matrix(1,0,0,1,296,-4)" class="stroke_order_diagram--existing_path"></path><path id="pathSk2v596cn7tk" kvg:type="㇖b" d="M27.99,27.18C41.88,25,72.75,21.5,79.81,21.2c12.19-0.52,1.14,7.87-0.34,8.63" transform="matrix(1,0,0,1,296,-4)" class="stroke_order_diagram--existing_path"></path><path id="kvg:05bb6-s4" kvg:type="㇐" d="M32.76,40.23c1.38,0.4,3.92,0.57,5.29,0.4c8.08-1,19.7-3.38,25.59-3.84c2.29-0.18,3.41-0.04,4.83-0.11" transform="matrix(1,0,0,1,296,-4)" class="stroke_order_diagram--current_path"></path><path id="pathSk2v596cn7tm" kvg:type="㇐" d="M32.76,40.23c1.38,0.4,3.92,0.57,5.29,0.4c8.08-1,19.7-3.38,25.59-3.84c2.29-0.18,3.41-0.04,4.83-0.11" transform="matrix(1,0,0,1,296,-4)" class="stroke_order_diagram--current_path"></path><circle cx="32.76" cy="40.23" r="8" class="stroke_order_diagram--path_start" transform="matrix(1,0,0,1,296,-4)"></circle><line x1="450" x2="450" y1="1" y2="99" class="stroke_order_diagram--guide_line"></line><line x1="499" x2="499" y1="1" y2="99" class="stroke_order_diagram--bounding_box"></line><path id="pathSk2v596cn7tp" kvg:type="㇑a" d="M52.44,11c0.97,0.97,1.69,2.25,1.69,3.68c0,3.42-0.08,4.99-0.08,8.1" transform="matrix(1,0,0,1,396,-4)" class="stroke_order_diagram--existing_path"></path><path id="pathSk2v596cn7tq" kvg:type="㇔" d="M27.09,23.28c0,3.73-2.77,13.98-4.03,16.47" transform="matrix(1,0,0,1,396,-4)" class="stroke_order_diagram--existing_path"></path><path id="pathSk2v596cn7tr" kvg:type="㇖b" d="M27.99,27.18C41.88,25,72.75,21.5,79.81,21.2c12.19-0.52,1.14,7.87-0.34,8.63" transform="matrix(1,0,0,1,396,-4)" class="stroke_order_diagram--existing_path"></path><path id="pathSk2v596cn7ts" kvg:type="㇐" d="M32.76,40.23c1.38,0.4,3.92,0.57,5.29,0.4c8.08-1,19.7-3.38,25.59-3.84c2.29-0.18,3.41-0.04,4.83-0.11" transform="matrix(1,0,0,1,396,-4)" class="stroke_order_diagram--existing_path"></path><path id="kvg:05bb6-s5" kvg:type="㇒" d="M51.26,41.5c0.18,1.1-0.06,2.08-0.72,2.94C47.84,48.63,38.92,55.58,26.5,60.5" transform="matrix(1,0,0,1,396,-4)" class="stroke_order_diagram--current_path"></path><path id="pathSk2v596cn7tu" kvg:type="㇒" d="M51.26,41.5c0.18,1.1-0.06,2.08-0.72,2.94C47.84,48.63,38.92,55.58,26.5,60.5" transform="matrix(1,0,0,1,396,-4)" class="stroke_order_diagram--current_path"></path><circle cx="51.26" cy="41.5" r="8" class="stroke_order_diagram--path_start" transform="matrix(1,0,0,1,396,-4)"></circle><line x1="550" x2="550" y1="1" y2="99" class="stroke_order_diagram--guide_line"></line><line x1="599" x2="599" y1="1" y2="99" class="stroke_order_diagram--bounding_box"></line><path id="pathSk2v596cn7tx" kvg:type="㇑a" d="M52.44,11c0.97,0.97,1.69,2.25,1.69,3.68c0,3.42-0.08,4.99-0.08,8.1" transform="matrix(1,0,0,1,496,-4)" class="stroke_order_diagram--existing_path"></path><path id="pathSk2v596cn7ty" kvg:type="㇔" d="M27.09,23.28c0,3.73-2.77,13.98-4.03,16.47" transform="matrix(1,0,0,1,496,-4)" class="stroke_order_diagram--existing_path"></path><path id="pathSk2v596cn7tz" kvg:type="㇖b" d="M27.99,27.18C41.88,25,72.75,21.5,79.81,21.2c12.19-0.52,1.14,7.87-0.34,8.63" transform="matrix(1,0,0,1,496,-4)" class="stroke_order_diagram--existing_path"></path><path id="pathSk2v596cn7u0" kvg:type="㇐" d="M32.76,40.23c1.38,0.4,3.92,0.57,5.29,0.4c8.08-1,19.7-3.38,25.59-3.84c2.29-0.18,3.41-0.04,4.83-0.11" transform="matrix(1,0,0,1,496,-4)" class="stroke_order_diagram--existing_path"></path><path id="pathSk2v596cn7u1" kvg:type="㇒" d="M51.26,41.5c0.18,1.1-0.06,2.08-0.72,2.94C47.84,48.63,38.92,55.58,26.5,60.5" transform="matrix(1,0,0,1,496,-4)" class="stroke_order_diagram--existing_path"></path><path id="kvg:05bb6-s6" kvg:type="㇕v" d="M48.07,48.96c8.31,7.92,14.18,25.04,6.92,43.51c-2.42,6.16-8.12,0.9-9.3,0.05" transform="matrix(1,0,0,1,496,-4)" class="stroke_order_diagram--current_path"></path><path id="pathSk2v596cn7u3" kvg:type="㇕v" d="M48.07,48.96c8.31,7.92,14.18,25.04,6.92,43.51c-2.42,6.16-8.12,0.9-9.3,0.05" transform="matrix(1,0,0,1,496,-4)" class="stroke_order_diagram--current_path"></path><circle cx="48.07" cy="48.96" r="8" class="stroke_order_diagram--path_start" transform="matrix(1,0,0,1,496,-4)"></circle><line x1="650" x2="650" y1="1" y2="99" class="stroke_order_diagram--guide_line"></line><line x1="699" x2="699" y1="1" y2="99" class="stroke_order_diagram--bounding_box"></line><path id="pathSk2v596cn7u6" kvg:type="㇑a" d="M52.44,11c0.97,0.97,1.69,2.25,1.69,3.68c0,3.42-0.08,4.99-0.08,8.1" transform="matrix(1,0,0,1,596,-4)" class="stroke_order_diagram--existing_path"></path><path id="pathSk2v596cn7u7" kvg:type="㇔" d="M27.09,23.28c0,3.73-2.77,13.98-4.03,16.47" transform="matrix(1,0,0,1,596,-4)" class="stroke_order_diagram--existing_path"></path><path id="pathSk2v596cn7u8" kvg:type="㇖b" d="M27.99,27.18C41.88,25,72.75,21.5,79.81,21.2c12.19-0.52,1.14,7.87-0.34,8.63" transform="matrix(1,0,0,1,596,-4)" class="stroke_order_diagram--existing_path"></path><path id="pathSk2v596cn7u9" kvg:type="㇐" d="M32.76,40.23c1.38,0.4,3.92,0.57,5.29,0.4c8.08-1,19.7-3.38,25.59-3.84c2.29-0.18,3.41-0.04,4.83-0.11" transform="matrix(1,0,0,1,596,-4)" class="stroke_order_diagram--existing_path"></path><path id="pathSk2v596cn7ua" kvg:type="㇒" d="M51.26,41.5c0.18,1.1-0.06,2.08-0.72,2.94C47.84,48.63,38.92,55.58,26.5,60.5" transform="matrix(1,0,0,1,596,-4)" class="stroke_order_diagram--existing_path"></path><path id="pathSk2v596cn7ub" kvg:type="㇕v" d="M48.07,48.96c8.31,7.92,14.18,25.04,6.92,43.51c-2.42,6.16-8.12,0.9-9.3,0.05" transform="matrix(1,0,0,1,596,-4)" class="stroke_order_diagram--existing_path"></path><path id="kvg:05bb6-s7" kvg:type="㇒" d="M49,56c0.17,1.16-0.14,2.17-0.92,3.04c-2.78,3.84-10.78,9.86-22.33,14.21" transform="matrix(1,0,0,1,596,-4)" class="stroke_order_diagram--current_path"></path><path id="pathSk2v596cn7ud" kvg:type="㇒" d="M49,56c0.17,1.16-0.14,2.17-0.92,3.04c-2.78,3.84-10.78,9.86-22.33,14.21" transform="matrix(1,0,0,1,596,-4)" class="stroke_order_diagram--current_path"></path><circle cx="49" cy="56" r="8" class="stroke_order_diagram--path_start" transform="matrix(1,0,0,1,596,-4)"></circle><line x1="750" x2="750" y1="1" y2="99" class="stroke_order_diagram--guide_line"></line><line x1="799" x2="799" y1="1" y2="99" class="stroke_order_diagram--bounding_box"></line><path id="pathSk2v596cn7ug" kvg:type="㇑a" d="M52.44,11c0.97,0.97,1.69,2.25,1.69,3.68c0,3.42-0.08,4.99-0.08,8.1" transform="matrix(1,0,0,1,696,-4)" class="stroke_order_diagram--existing_path"></path><path id="pathSk2v596cn7uh" kvg:type="㇔" d="M27.09,23.28c0,3.73-2.77,13.98-4.03,16.47" transform="matrix(1,0,0,1,696,-4)" class="stroke_order_diagram--existing_path"></path><path id="pathSk2v596cn7ui" kvg:type="㇖b" d="M27.99,27.18C41.88,25,72.75,21.5,79.81,21.2c12.19-0.52,1.14,7.87-0.34,8.63" transform="matrix(1,0,0,1,696,-4)" class="stroke_order_diagram--existing_path"></path><path id="pathSk2v596cn7uj" kvg:type="㇐" d="M32.76,40.23c1.38,0.4,3.92,0.57,5.29,0.4c8.08-1,19.7-3.38,25.59-3.84c2.29-0.18,3.41-0.04,4.83-0.11" transform="matrix(1,0,0,1,696,-4)" class="stroke_order_diagram--existing_path"></path><path id="pathSk2v596cn7uk" kvg:type="㇒" d="M51.26,41.5c0.18,1.1-0.06,2.08-0.72,2.94C47.84,48.63,38.92,55.58,26.5,60.5" transform="matrix(1,0,0,1,696,-4)" class="stroke_order_diagram--existing_path"></path><path id="pathSk2v596cn7ul" kvg:type="㇕v" d="M48.07,48.96c8.31,7.92,14.18,25.04,6.92,43.51c-2.42,6.16-8.12,0.9-9.3,0.05" transform="matrix(1,0,0,1,696,-4)" class="stroke_order_diagram--existing_path"></path><path id="pathSk2v596cn7um" kvg:type="㇒" d="M49,56c0.17,1.16-0.14,2.17-0.92,3.04c-2.78,3.84-10.78,9.86-22.33,14.21" transform="matrix(1,0,0,1,696,-4)" class="stroke_order_diagram--existing_path"></path><path id="kvg:05bb6-s8" kvg:type="㇒" d="M52.5,65.5c0.21,1.3-0.06,2.45-0.84,3.44c-3.27,5.04-13.97,13.61-29.91,19.56" transform="matrix(1,0,0,1,696,-4)" class="stroke_order_diagram--current_path"></path><path id="pathSk2v596cn7uo" kvg:type="㇒" d="M52.5,65.5c0.21,1.3-0.06,2.45-0.84,3.44c-3.27,5.04-13.97,13.61-29.91,19.56" transform="matrix(1,0,0,1,696,-4)" class="stroke_order_diagram--current_path"></path><circle cx="52.5" cy="65.5" r="8" class="stroke_order_diagram--path_start" transform="matrix(1,0,0,1,696,-4)"></circle><line x1="850" x2="850" y1="1" y2="99" class="stroke_order_diagram--guide_line"></line><line x1="899" x2="899" y1="1" y2="99" class="stroke_order_diagram--bounding_box"></line><path id="pathSk2v596cn7ur" kvg:type="㇑a" d="M52.44,11c0.97,0.97,1.69,2.25,1.69,3.68c0,3.42-0.08,4.99-0.08,8.1" transform="matrix(1,0,0,1,796,-4)" class="stroke_order_diagram--existing_path"></path><path id="pathSk2v596cn7us" kvg:type="㇔" d="M27.09,23.28c0,3.73-2.77,13.98-4.03,16.47" transform="matrix(1,0,0,1,796,-4)" class="stroke_order_diagram--existing_path"></path><path id="pathSk2v596cn7ut" kvg:type="㇖b" d="M27.99,27.18C41.88,25,72.75,21.5,79.81,21.2c12.19-0.52,1.14,7.87-0.34,8.63" transform="matrix(1,0,0,1,796,-4)" class="stroke_order_diagram--existing_path"></path><path id="pathSk2v596cn7uu" kvg:type="㇐" d="M32.76,40.23c1.38,0.4,3.92,0.57,5.29,0.4c8.08-1,19.7-3.38,25.59-3.84c2.29-0.18,3.41-0.04,4.83-0.11" transform="matrix(1,0,0,1,796,-4)" class="stroke_order_diagram--existing_path"></path><path id="pathSk2v596cn7uv" kvg:type="㇒" d="M51.26,41.5c0.18,1.1-0.06,2.08-0.72,2.94C47.84,48.63,38.92,55.58,26.5,60.5" transform="matrix(1,0,0,1,796,-4)" class="stroke_order_diagram--existing_path"></path><path id="pathSk2v596cn7uw" kvg:type="㇕v" d="M48.07,48.96c8.31,7.92,14.18,25.04,6.92,43.51c-2.42,6.16-8.12,0.9-9.3,0.05" transform="matrix(1,0,0,1,796,-4)" class="stroke_order_diagram--existing_path"></path><path id="pathSk2v596cn7ux" kvg:type="㇒" d="M49,56c0.17,1.16-0.14,2.17-0.92,3.04c-2.78,3.84-10.78,9.86-22.33,14.21" transform="matrix(1,0,0,1,796,-4)" class="stroke_order_diagram--existing_path"></path><path id="pathSk2v596cn7uy" kvg:type="㇒" d="M52.5,65.5c0.21,1.3-0.06,2.45-0.84,3.44c-3.27,5.04-13.97,13.61-29.91,19.56" transform="matrix(1,0,0,1,796,-4)" class="stroke_order_diagram--existing_path"></path><path id="kvg:05bb6-s9" kvg:type="㇒" d="M76.8,45.3c0.14,1.12-0.2,2.09-1.02,2.91c-2.55,3.35-9.29,8.72-18.05,12.19" transform="matrix(1,0,0,1,796,-4)" class="stroke_order_diagram--current_path"></path><path id="pathSk2v596cn7v0" kvg:type="㇒" d="M76.8,45.3c0.14,1.12-0.2,2.09-1.02,2.91c-2.55,3.35-9.29,8.72-18.05,12.19" transform="matrix(1,0,0,1,796,-4)" class="stroke_order_diagram--current_path"></path><circle cx="76.8" cy="45.3" r="8" class="stroke_order_diagram--path_start" transform="matrix(1,0,0,1,796,-4)"></circle><line x1="950" x2="950" y1="1" y2="99" class="stroke_order_diagram--guide_line"></line><line x1="999" x2="999" y1="1" y2="99" class="stroke_order_diagram--bounding_box"></line><path id="pathSk2v596cn7v3" kvg:type="㇑a" d="M52.44,11c0.97,0.97,1.69,2.25,1.69,3.68c0,3.42-0.08,4.99-0.08,8.1" transform="matrix(1,0,0,1,896,-4)" class="stroke_order_diagram--existing_path"></path><path id="pathSk2v596cn7v4" kvg:type="㇔" d="M27.09,23.28c0,3.73-2.77,13.98-4.03,16.47" transform="matrix(1,0,0,1,896,-4)" class="stroke_order_diagram--existing_path"></path><path id="pathSk2v596cn7v5" kvg:type="㇖b" d="M27.99,27.18C41.88,25,72.75,21.5,79.81,21.2c12.19-0.52,1.14,7.87-0.34,8.63" transform="matrix(1,0,0,1,896,-4)" class="stroke_order_diagram--existing_path"></path><path id="pathSk2v596cn7v6" kvg:type="㇐" d="M32.76,40.23c1.38,0.4,3.92,0.57,5.29,0.4c8.08-1,19.7-3.38,25.59-3.84c2.29-0.18,3.41-0.04,4.83-0.11" transform="matrix(1,0,0,1,896,-4)" class="stroke_order_diagram--existing_path"></path><path id="pathSk2v596cn7v7" kvg:type="㇒" d="M51.26,41.5c0.18,1.1-0.06,2.08-0.72,2.94C47.84,48.63,38.92,55.58,26.5,60.5" transform="matrix(1,0,0,1,896,-4)" class="stroke_order_diagram--existing_path"></path><path id="pathSk2v596cn7v8" kvg:type="㇕v" d="M48.07,48.96c8.31,7.92,14.18,25.04,6.92,43.51c-2.42,6.16-8.12,0.9-9.3,0.05" transform="matrix(1,0,0,1,896,-4)" class="stroke_order_diagram--existing_path"></path><path id="pathSk2v596cn7v9" kvg:type="㇒" d="M49,56c0.17,1.16-0.14,2.17-0.92,3.04c-2.78,3.84-10.78,9.86-22.33,14.21" transform="matrix(1,0,0,1,896,-4)" class="stroke_order_diagram--existing_path"></path><path id="pathSk2v596cn7va" kvg:type="㇒" d="M52.5,65.5c0.21,1.3-0.06,2.45-0.84,3.44c-3.27,5.04-13.97,13.61-29.91,19.56" transform="matrix(1,0,0,1,896,-4)" class="stroke_order_diagram--existing_path"></path><path id="pathSk2v596cn7vb" kvg:type="㇒" d="M76.8,45.3c0.14,1.12-0.2,2.09-1.02,2.91c-2.55,3.35-9.29,8.72-18.05,12.19" transform="matrix(1,0,0,1,896,-4)" class="stroke_order_diagram--existing_path"></path><path id="kvg:05bb6-s10" kvg:type="㇏" d="M58.79,62.82c3.72,2.92,18.27,15.42,25.25,20.69c2.49,1.88,4.18,3.12,7.08,3.87" transform="matrix(1,0,0,1,896,-4)" class="stroke_order_diagram--current_path"></path><path id="pathSk2v596cn7vd" kvg:type="㇏" d="M58.79,62.82c3.72,2.92,18.27,15.42,25.25,20.69c2.49,1.88,4.18,3.12,7.08,3.87" transform="matrix(1,0,0,1,896,-4)" class="stroke_order_diagram--current_path"></path><circle cx="58.79" cy="62.82" r="8" class="stroke_order_diagram--path_start" transform="matrix(1,0,0,1,896,-4)"></circle></svg>