<svg style="width: 700px; height: 100px;" viewbox="0 0 700 100"><style>
.stroke_order_diagram--outer_container {
  width: 100%;
  overflow-x: auto;
  overflow-y: hidden;
}

.stroke_order_diagram--guide_line {
  fill: none;
  stroke: #ddd;
  stroke-width: 3;
  stroke-linecap: square;
  stroke-linejoin: square;
  stroke-dasharray:8, 8;
}

.stroke_order_diagram--bounding_box {
  fill: none;
  stroke: #ddd;
  stroke-width: 4;
  stroke-linecap: square;
  stroke-linejoin: square;
}

.stroke_order_diagram--current_path {
  fill: none;
  stroke: #000;
  stroke-width: 6;
  stroke-linecap: round;
  stroke-linejoin: round;
}

.stroke_order_diagram--existing_path {
  fill: none;
  stroke: #aaa;
  stroke-width: 6;
  stroke-linecap: round;
  stroke-linejoin:round;
}

.stroke_order_diagram--path_start {
  fill: rgba(255, 0, 0, 0.7);
  stroke:none
}</style><desc>Created with Snap</desc><defs></defs><line x1="1" x2="699" y1="1" y2="1" class="stroke_order_diagram--bounding_box"></line><line x1="1" x2="1" y1="1" y2="99" class="stroke_order_diagram--bounding_box"></line><line x1="1" x2="699" y1="99" y2="99" class="stroke_order_diagram--bounding_box"></line><line x1="0" x2="700" y1="50" y2="50" class="stroke_order_diagram--guide_line"></line><line x1="50" x2="50" y1="1" y2="99" class="stroke_order_diagram--guide_line"></line><line x1="99" x2="99" y1="1" y2="99" class="stroke_order_diagram--bounding_box"></line><path id="kvg:05bff-s1" kvg:type="㇐" d="M26.75,24.15c2.75,0.47,5.14,0.38,7.5,0.07c11.13-1.47,31.48-3.27,42.38-3.84c2.45-0.13,4.96-0.29,7.38,0.24" transform="matrix(1,0,0,1,-4,-4)" class="stroke_order_diagram--current_path"></path><path id="pathSk2v596cn2imj" kvg:type="㇐" d="M26.75,24.15c2.75,0.47,5.14,0.38,7.5,0.07c11.13-1.47,31.48-3.27,42.38-3.84c2.45-0.13,4.96-0.29,7.38,0.24" transform="matrix(1,0,0,1,-4,-4)" class="stroke_order_diagram--current_path"></path><circle cx="26.75" cy="24.15" r="8" class="stroke_order_diagram--path_start" transform="matrix(1,0,0,1,-4,-4)"></circle><line x1="150" x2="150" y1="1" y2="99" class="stroke_order_diagram--guide_line"></line><line x1="199" x2="199" y1="1" y2="99" class="stroke_order_diagram--bounding_box"></line><path id="pathSk2v596cn2imm" kvg:type="㇐" d="M26.75,24.15c2.75,0.47,5.14,0.38,7.5,0.07c11.13-1.47,31.48-3.27,42.38-3.84c2.45-0.13,4.96-0.29,7.38,0.24" transform="matrix(1,0,0,1,96,-4)" class="stroke_order_diagram--existing_path"></path><path id="kvg:05bff-s2" kvg:type="㇐" d="M28,37.39c2.38,0.61,5,0.36,7.24,0.06c9.88-1.32,27.13-2.88,36.39-3.72c2.56-0.23,5.09-0.59,7.62,0.03" transform="matrix(1,0,0,1,96,-4)" class="stroke_order_diagram--current_path"></path><path id="pathSk2v596cn2imo" kvg:type="㇐" d="M28,37.39c2.38,0.61,5,0.36,7.24,0.06c9.88-1.32,27.13-2.88,36.39-3.72c2.56-0.23,5.09-0.59,7.62,0.03" transform="matrix(1,0,0,1,96,-4)" class="stroke_order_diagram--current_path"></path><circle cx="28" cy="37.39" r="8" class="stroke_order_diagram--path_start" transform="matrix(1,0,0,1,96,-4)"></circle><line x1="250" x2="250" y1="1" y2="99" class="stroke_order_diagram--guide_line"></line><line x1="299" x2="299" y1="1" y2="99" class="stroke_order_diagram--bounding_box"></line><path id="pathSk2v596cn2imr" kvg:type="㇐" d="M26.75,24.15c2.75,0.47,5.14,0.38,7.5,0.07c11.13-1.47,31.48-3.27,42.38-3.84c2.45-0.13,4.96-0.29,7.38,0.24" transform="matrix(1,0,0,1,196,-4)" class="stroke_order_diagram--existing_path"></path><path id="pathSk2v596cn2ims" kvg:type="㇐" d="M28,37.39c2.38,0.61,5,0.36,7.24,0.06c9.88-1.32,27.13-2.88,36.39-3.72c2.56-0.23,5.09-0.59,7.62,0.03" transform="matrix(1,0,0,1,196,-4)" class="stroke_order_diagram--existing_path"></path><path id="kvg:05bff-s3" kvg:type="㇐" d="M21.75,51.01c2.63,0.94,6.15,0.48,8.86,0.18c11.32-1.27,33.96-3.48,47.51-4.36c2.91-0.19,5.75-0.46,8.63,0.16" transform="matrix(1,0,0,1,196,-4)" class="stroke_order_diagram--current_path"></path><path id="pathSk2v596cn2imu" kvg:type="㇐" d="M21.75,51.01c2.63,0.94,6.15,0.48,8.86,0.18c11.32-1.27,33.96-3.48,47.51-4.36c2.91-0.19,5.75-0.46,8.63,0.16" transform="matrix(1,0,0,1,196,-4)" class="stroke_order_diagram--current_path"></path><circle cx="21.75" cy="51.01" r="8" class="stroke_order_diagram--path_start" transform="matrix(1,0,0,1,196,-4)"></circle><line x1="350" x2="350" y1="1" y2="99" class="stroke_order_diagram--guide_line"></line><line x1="399" x2="399" y1="1" y2="99" class="stroke_order_diagram--bounding_box"></line><path id="pathSk2v596cn2imx" kvg:type="㇐" d="M26.75,24.15c2.75,0.47,5.14,0.38,7.5,0.07c11.13-1.47,31.48-3.27,42.38-3.84c2.45-0.13,4.96-0.29,7.38,0.24" transform="matrix(1,0,0,1,296,-4)" class="stroke_order_diagram--existing_path"></path><path id="pathSk2v596cn2imy" kvg:type="㇐" d="M28,37.39c2.38,0.61,5,0.36,7.24,0.06c9.88-1.32,27.13-2.88,36.39-3.72c2.56-0.23,5.09-0.59,7.62,0.03" transform="matrix(1,0,0,1,296,-4)" class="stroke_order_diagram--existing_path"></path><path id="pathSk2v596cn2imz" kvg:type="㇐" d="M21.75,51.01c2.63,0.94,6.15,0.48,8.86,0.18c11.32-1.27,33.96-3.48,47.51-4.36c2.91-0.19,5.75-0.46,8.63,0.16" transform="matrix(1,0,0,1,296,-4)" class="stroke_order_diagram--existing_path"></path><path id="kvg:05bff-s4" kvg:type="㇒" d="M53.25,11.5c0.75,1.38,0.74,3.03,0.31,5.24C48.25,44.25,42,74.25,17.75,92.79" transform="matrix(1,0,0,1,296,-4)" class="stroke_order_diagram--current_path"></path><path id="pathSk2v596cn2in1" kvg:type="㇒" d="M53.25,11.5c0.75,1.38,0.74,3.03,0.31,5.24C48.25,44.25,42,74.25,17.75,92.79" transform="matrix(1,0,0,1,296,-4)" class="stroke_order_diagram--current_path"></path><circle cx="53.25" cy="11.5" r="8" class="stroke_order_diagram--path_start" transform="matrix(1,0,0,1,296,-4)"></circle><line x1="450" x2="450" y1="1" y2="99" class="stroke_order_diagram--guide_line"></line><line x1="499" x2="499" y1="1" y2="99" class="stroke_order_diagram--bounding_box"></line><path id="pathSk2v596cn2in4" kvg:type="㇐" d="M26.75,24.15c2.75,0.47,5.14,0.38,7.5,0.07c11.13-1.47,31.48-3.27,42.38-3.84c2.45-0.13,4.96-0.29,7.38,0.24" transform="matrix(1,0,0,1,396,-4)" class="stroke_order_diagram--existing_path"></path><path id="pathSk2v596cn2in5" kvg:type="㇐" d="M28,37.39c2.38,0.61,5,0.36,7.24,0.06c9.88-1.32,27.13-2.88,36.39-3.72c2.56-0.23,5.09-0.59,7.62,0.03" transform="matrix(1,0,0,1,396,-4)" class="stroke_order_diagram--existing_path"></path><path id="pathSk2v596cn2in6" kvg:type="㇐" d="M21.75,51.01c2.63,0.94,6.15,0.48,8.86,0.18c11.32-1.27,33.96-3.48,47.51-4.36c2.91-0.19,5.75-0.46,8.63,0.16" transform="matrix(1,0,0,1,396,-4)" class="stroke_order_diagram--existing_path"></path><path id="pathSk2v596cn2in7" kvg:type="㇒" d="M53.25,11.5c0.75,1.38,0.74,3.03,0.31,5.24C48.25,44.25,42,74.25,17.75,92.79" transform="matrix(1,0,0,1,396,-4)" class="stroke_order_diagram--existing_path"></path><path id="kvg:05bff-s5" kvg:type="㇐" d="M14.13,68.06c3.87,1.06,7.3,0.76,10.5,0.42C41.13,66.74,68.38,64,86,62.82c3.46-0.23,6.74-0.52,10.12,0.36" transform="matrix(1,0,0,1,396,-4)" class="stroke_order_diagram--current_path"></path><path id="pathSk2v596cn2in9" kvg:type="㇐" d="M14.13,68.06c3.87,1.06,7.3,0.76,10.5,0.42C41.13,66.74,68.38,64,86,62.82c3.46-0.23,6.74-0.52,10.12,0.36" transform="matrix(1,0,0,1,396,-4)" class="stroke_order_diagram--current_path"></path><circle cx="14.13" cy="68.06" r="8" class="stroke_order_diagram--path_start" transform="matrix(1,0,0,1,396,-4)"></circle><line x1="550" x2="550" y1="1" y2="99" class="stroke_order_diagram--guide_line"></line><line x1="599" x2="599" y1="1" y2="99" class="stroke_order_diagram--bounding_box"></line><path id="pathSk2v596cn2inc" kvg:type="㇐" d="M26.75,24.15c2.75,0.47,5.14,0.38,7.5,0.07c11.13-1.47,31.48-3.27,42.38-3.84c2.45-0.13,4.96-0.29,7.38,0.24" transform="matrix(1,0,0,1,496,-4)" class="stroke_order_diagram--existing_path"></path><path id="pathSk2v596cn2ind" kvg:type="㇐" d="M28,37.39c2.38,0.61,5,0.36,7.24,0.06c9.88-1.32,27.13-2.88,36.39-3.72c2.56-0.23,5.09-0.59,7.62,0.03" transform="matrix(1,0,0,1,496,-4)" class="stroke_order_diagram--existing_path"></path><path id="pathSk2v596cn2ine" kvg:type="㇐" d="M21.75,51.01c2.63,0.94,6.15,0.48,8.86,0.18c11.32-1.27,33.96-3.48,47.51-4.36c2.91-0.19,5.75-0.46,8.63,0.16" transform="matrix(1,0,0,1,496,-4)" class="stroke_order_diagram--existing_path"></path><path id="pathSk2v596cn2inf" kvg:type="㇒" d="M53.25,11.5c0.75,1.38,0.74,3.03,0.31,5.24C48.25,44.25,42,74.25,17.75,92.79" transform="matrix(1,0,0,1,496,-4)" class="stroke_order_diagram--existing_path"></path><path id="pathSk2v596cn2ing" kvg:type="㇐" d="M14.13,68.06c3.87,1.06,7.3,0.76,10.5,0.42C41.13,66.74,68.38,64,86,62.82c3.46-0.23,6.74-0.52,10.12,0.36" transform="matrix(1,0,0,1,496,-4)" class="stroke_order_diagram--existing_path"></path><path id="kvg:05bff-s6" kvg:type="㇚" d="M74.27,50.58c0.89,0.89,1.26,2.29,1.26,4.02c0,20.4-0.01,32.91-0.01,37.87c0,12.03-6.77,2.28-8.96,0.75" transform="matrix(1,0,0,1,496,-4)" class="stroke_order_diagram--current_path"></path><path id="pathSk2v596cn2ini" kvg:type="㇚" d="M74.27,50.58c0.89,0.89,1.26,2.29,1.26,4.02c0,20.4-0.01,32.91-0.01,37.87c0,12.03-6.77,2.28-8.96,0.75" transform="matrix(1,0,0,1,496,-4)" class="stroke_order_diagram--current_path"></path><circle cx="74.27" cy="50.58" r="8" class="stroke_order_diagram--path_start" transform="matrix(1,0,0,1,496,-4)"></circle><line x1="650" x2="650" y1="1" y2="99" class="stroke_order_diagram--guide_line"></line><line x1="699" x2="699" y1="1" y2="99" class="stroke_order_diagram--bounding_box"></line><path id="pathSk2v596cn2inl" kvg:type="㇐" d="M26.75,24.15c2.75,0.47,5.14,0.38,7.5,0.07c11.13-1.47,31.48-3.27,42.38-3.84c2.45-0.13,4.96-0.29,7.38,0.24" transform="matrix(1,0,0,1,596,-4)" class="stroke_order_diagram--existing_path"></path><path id="pathSk2v596cn2inm" kvg:type="㇐" d="M28,37.39c2.38,0.61,5,0.36,7.24,0.06c9.88-1.32,27.13-2.88,36.39-3.72c2.56-0.23,5.09-0.59,7.62,0.03" transform="matrix(1,0,0,1,596,-4)" class="stroke_order_diagram--existing_path"></path><path id="pathSk2v596cn2inn" kvg:type="㇐" d="M21.75,51.01c2.63,0.94,6.15,0.48,8.86,0.18c11.32-1.27,33.96-3.48,47.51-4.36c2.91-0.19,5.75-0.46,8.63,0.16" transform="matrix(1,0,0,1,596,-4)" class="stroke_order_diagram--existing_path"></path><path id="pathSk2v596cn2ino" kvg:type="㇒" d="M53.25,11.5c0.75,1.38,0.74,3.03,0.31,5.24C48.25,44.25,42,74.25,17.75,92.79" transform="matrix(1,0,0,1,596,-4)" class="stroke_order_diagram--existing_path"></path><path id="pathSk2v596cn2inp" kvg:type="㇐" d="M14.13,68.06c3.87,1.06,7.3,0.76,10.5,0.42C41.13,66.74,68.38,64,86,62.82c3.46-0.23,6.74-0.52,10.12,0.36" transform="matrix(1,0,0,1,596,-4)" class="stroke_order_diagram--existing_path"></path><path id="pathSk2v596cn2inq" kvg:type="㇚" d="M74.27,50.58c0.89,0.89,1.26,2.29,1.26,4.02c0,20.4-0.01,32.91-0.01,37.87c0,12.03-6.77,2.28-8.96,0.75" transform="matrix(1,0,0,1,596,-4)" class="stroke_order_diagram--existing_path"></path><path id="kvg:05bff-s7" kvg:type="㇔" d="M44.71,75.87c3,1.72,7.75,7.07,8.5,9.75" transform="matrix(1,0,0,1,596,-4)" class="stroke_order_diagram--current_path"></path><path id="pathSk2v596cn2ins" kvg:type="㇔" d="M44.71,75.87c3,1.72,7.75,7.07,8.5,9.75" transform="matrix(1,0,0,1,596,-4)" class="stroke_order_diagram--current_path"></path><circle cx="44.71" cy="75.87" r="8" class="stroke_order_diagram--path_start" transform="matrix(1,0,0,1,596,-4)"></circle></svg>