<svg style="width: 900px; height: 100px;" viewbox="0 0 900 100"><style>
.stroke_order_diagram--outer_container {
  width: 100%;
  overflow-x: auto;
  overflow-y: hidden;
}

.stroke_order_diagram--guide_line {
  fill: none;
  stroke: #ddd;
  stroke-width: 3;
  stroke-linecap: square;
  stroke-linejoin: square;
  stroke-dasharray:8, 8;
}

.stroke_order_diagram--bounding_box {
  fill: none;
  stroke: #ddd;
  stroke-width: 4;
  stroke-linecap: square;
  stroke-linejoin: square;
}

.stroke_order_diagram--current_path {
  fill: none;
  stroke: #000;
  stroke-width: 6;
  stroke-linecap: round;
  stroke-linejoin: round;
}

.stroke_order_diagram--existing_path {
  fill: none;
  stroke: #aaa;
  stroke-width: 6;
  stroke-linecap: round;
  stroke-linejoin:round;
}

.stroke_order_diagram--path_start {
  fill: rgba(255, 0, 0, 0.7);
  stroke:none
}</style><desc>Created with Snap</desc><defs></defs><line x1="1" x2="899" y1="1" y2="1" class="stroke_order_diagram--bounding_box"></line><line x1="1" x2="1" y1="1" y2="99" class="stroke_order_diagram--bounding_box"></line><line x1="1" x2="899" y1="99" y2="99" class="stroke_order_diagram--bounding_box"></line><line x1="0" x2="900" y1="50" y2="50" class="stroke_order_diagram--guide_line"></line><line x1="50" x2="50" y1="1" y2="99" class="stroke_order_diagram--guide_line"></line><line x1="99" x2="99" y1="1" y2="99" class="stroke_order_diagram--bounding_box"></line><path id="kvg:05c01-s1" kvg:type="㇐" d="M18.33,33.3c1.8,0.32,3.45,0.46,4.92,0.19c7.63-1.37,15.03-2.53,21.87-3.11c1.72-0.15,3.47-0.35,5.15,0.16" transform="matrix(1,0,0,1,-4,-4)" class="stroke_order_diagram--current_path"></path><path id="pathSk2v596cn37gm" kvg:type="㇐" d="M18.33,33.3c1.8,0.32,3.45,0.46,4.92,0.19c7.63-1.37,15.03-2.53,21.87-3.11c1.72-0.15,3.47-0.35,5.15,0.16" transform="matrix(1,0,0,1,-4,-4)" class="stroke_order_diagram--current_path"></path><circle cx="18.33" cy="33.3" r="8" class="stroke_order_diagram--path_start" transform="matrix(1,0,0,1,-4,-4)"></circle><line x1="150" x2="150" y1="1" y2="99" class="stroke_order_diagram--guide_line"></line><line x1="199" x2="199" y1="1" y2="99" class="stroke_order_diagram--bounding_box"></line><path id="pathSk2v596cn37gp" kvg:type="㇐" d="M18.33,33.3c1.8,0.32,3.45,0.46,4.92,0.19c7.63-1.37,15.03-2.53,21.87-3.11c1.72-0.15,3.47-0.35,5.15,0.16" transform="matrix(1,0,0,1,96,-4)" class="stroke_order_diagram--existing_path"></path><path id="kvg:05c01-s2" kvg:type="㇑a" d="M33.35,17c1.14,1.14,1.45,2.35,1.45,4.01c0,6.11-0.05,18.49-0.05,25.24" transform="matrix(1,0,0,1,96,-4)" class="stroke_order_diagram--current_path"></path><path id="pathSk2v596cn37gr" kvg:type="㇑a" d="M33.35,17c1.14,1.14,1.45,2.35,1.45,4.01c0,6.11-0.05,18.49-0.05,25.24" transform="matrix(1,0,0,1,96,-4)" class="stroke_order_diagram--current_path"></path><circle cx="33.35" cy="17" r="8" class="stroke_order_diagram--path_start" transform="matrix(1,0,0,1,96,-4)"></circle><line x1="250" x2="250" y1="1" y2="99" class="stroke_order_diagram--guide_line"></line><line x1="299" x2="299" y1="1" y2="99" class="stroke_order_diagram--bounding_box"></line><path id="pathSk2v596cn37gu" kvg:type="㇐" d="M18.33,33.3c1.8,0.32,3.45,0.46,4.92,0.19c7.63-1.37,15.03-2.53,21.87-3.11c1.72-0.15,3.47-0.35,5.15,0.16" transform="matrix(1,0,0,1,196,-4)" class="stroke_order_diagram--existing_path"></path><path id="pathSk2v596cn37gv" kvg:type="㇑a" d="M33.35,17c1.14,1.14,1.45,2.35,1.45,4.01c0,6.11-0.05,18.49-0.05,25.24" transform="matrix(1,0,0,1,196,-4)" class="stroke_order_diagram--existing_path"></path><path id="kvg:05c01-s3" kvg:type="㇐" d="M15.15,49.69c2.47,0.44,4.51,0.18,6.45-0.13c6.86-1.12,15.36-2.7,25.27-3.67c1.95-0.19,4.42-0.76,6.31-0.02" transform="matrix(1,0,0,1,196,-4)" class="stroke_order_diagram--current_path"></path><path id="pathSk2v596cn37gx" kvg:type="㇐" d="M15.15,49.69c2.47,0.44,4.51,0.18,6.45-0.13c6.86-1.12,15.36-2.7,25.27-3.67c1.95-0.19,4.42-0.76,6.31-0.02" transform="matrix(1,0,0,1,196,-4)" class="stroke_order_diagram--current_path"></path><circle cx="15.15" cy="49.69" r="8" class="stroke_order_diagram--path_start" transform="matrix(1,0,0,1,196,-4)"></circle><line x1="350" x2="350" y1="1" y2="99" class="stroke_order_diagram--guide_line"></line><line x1="399" x2="399" y1="1" y2="99" class="stroke_order_diagram--bounding_box"></line><path id="pathSk2v596cn37h0" kvg:type="㇐" d="M18.33,33.3c1.8,0.32,3.45,0.46,4.92,0.19c7.63-1.37,15.03-2.53,21.87-3.11c1.72-0.15,3.47-0.35,5.15,0.16" transform="matrix(1,0,0,1,296,-4)" class="stroke_order_diagram--existing_path"></path><path id="pathSk2v596cn37h1" kvg:type="㇑a" d="M33.35,17c1.14,1.14,1.45,2.35,1.45,4.01c0,6.11-0.05,18.49-0.05,25.24" transform="matrix(1,0,0,1,296,-4)" class="stroke_order_diagram--existing_path"></path><path id="pathSk2v596cn37h2" kvg:type="㇐" d="M15.15,49.69c2.47,0.44,4.51,0.18,6.45-0.13c6.86-1.12,15.36-2.7,25.27-3.67c1.95-0.19,4.42-0.76,6.31-0.02" transform="matrix(1,0,0,1,296,-4)" class="stroke_order_diagram--existing_path"></path><path id="kvg:05c01-s4" kvg:type="㇐" d="M18.31,68.62c1.57,0.5,3.58,0.29,4.8,0.04c8.01-1.66,15.76-2.79,23.04-3.93c1.25-0.2,3.37-0.52,4.56-0.02" transform="matrix(1,0,0,1,296,-4)" class="stroke_order_diagram--current_path"></path><path id="pathSk2v596cn37h4" kvg:type="㇐" d="M18.31,68.62c1.57,0.5,3.58,0.29,4.8,0.04c8.01-1.66,15.76-2.79,23.04-3.93c1.25-0.2,3.37-0.52,4.56-0.02" transform="matrix(1,0,0,1,296,-4)" class="stroke_order_diagram--current_path"></path><circle cx="18.31" cy="68.62" r="8" class="stroke_order_diagram--path_start" transform="matrix(1,0,0,1,296,-4)"></circle><line x1="450" x2="450" y1="1" y2="99" class="stroke_order_diagram--guide_line"></line><line x1="499" x2="499" y1="1" y2="99" class="stroke_order_diagram--bounding_box"></line><path id="pathSk2v596cn37h7" kvg:type="㇐" d="M18.33,33.3c1.8,0.32,3.45,0.46,4.92,0.19c7.63-1.37,15.03-2.53,21.87-3.11c1.72-0.15,3.47-0.35,5.15,0.16" transform="matrix(1,0,0,1,396,-4)" class="stroke_order_diagram--existing_path"></path><path id="pathSk2v596cn37h8" kvg:type="㇑a" d="M33.35,17c1.14,1.14,1.45,2.35,1.45,4.01c0,6.11-0.05,18.49-0.05,25.24" transform="matrix(1,0,0,1,396,-4)" class="stroke_order_diagram--existing_path"></path><path id="pathSk2v596cn37h9" kvg:type="㇐" d="M15.15,49.69c2.47,0.44,4.51,0.18,6.45-0.13c6.86-1.12,15.36-2.7,25.27-3.67c1.95-0.19,4.42-0.76,6.31-0.02" transform="matrix(1,0,0,1,396,-4)" class="stroke_order_diagram--existing_path"></path><path id="pathSk2v596cn37ha" kvg:type="㇐" d="M18.31,68.62c1.57,0.5,3.58,0.29,4.8,0.04c8.01-1.66,15.76-2.79,23.04-3.93c1.25-0.2,3.37-0.52,4.56-0.02" transform="matrix(1,0,0,1,396,-4)" class="stroke_order_diagram--existing_path"></path><path id="kvg:05c01-s5" kvg:type="㇑a" d="M33.48,50.93c0.73,0.73,1.13,1.69,1.13,3.01c0,10.65-0.11,17.35-0.11,31.43" transform="matrix(1,0,0,1,396,-4)" class="stroke_order_diagram--current_path"></path><path id="pathSk2v596cn37hc" kvg:type="㇑a" d="M33.48,50.93c0.73,0.73,1.13,1.69,1.13,3.01c0,10.65-0.11,17.35-0.11,31.43" transform="matrix(1,0,0,1,396,-4)" class="stroke_order_diagram--current_path"></path><circle cx="33.48" cy="50.93" r="8" class="stroke_order_diagram--path_start" transform="matrix(1,0,0,1,396,-4)"></circle><line x1="550" x2="550" y1="1" y2="99" class="stroke_order_diagram--guide_line"></line><line x1="599" x2="599" y1="1" y2="99" class="stroke_order_diagram--bounding_box"></line><path id="pathSk2v596cn37hf" kvg:type="㇐" d="M18.33,33.3c1.8,0.32,3.45,0.46,4.92,0.19c7.63-1.37,15.03-2.53,21.87-3.11c1.72-0.15,3.47-0.35,5.15,0.16" transform="matrix(1,0,0,1,496,-4)" class="stroke_order_diagram--existing_path"></path><path id="pathSk2v596cn37hg" kvg:type="㇑a" d="M33.35,17c1.14,1.14,1.45,2.35,1.45,4.01c0,6.11-0.05,18.49-0.05,25.24" transform="matrix(1,0,0,1,496,-4)" class="stroke_order_diagram--existing_path"></path><path id="pathSk2v596cn37hh" kvg:type="㇐" d="M15.15,49.69c2.47,0.44,4.51,0.18,6.45-0.13c6.86-1.12,15.36-2.7,25.27-3.67c1.95-0.19,4.42-0.76,6.31-0.02" transform="matrix(1,0,0,1,496,-4)" class="stroke_order_diagram--existing_path"></path><path id="pathSk2v596cn37hi" kvg:type="㇐" d="M18.31,68.62c1.57,0.5,3.58,0.29,4.8,0.04c8.01-1.66,15.76-2.79,23.04-3.93c1.25-0.2,3.37-0.52,4.56-0.02" transform="matrix(1,0,0,1,496,-4)" class="stroke_order_diagram--existing_path"></path><path id="pathSk2v596cn37hj" kvg:type="㇑a" d="M33.48,50.93c0.73,0.73,1.13,1.69,1.13,3.01c0,10.65-0.11,17.35-0.11,31.43" transform="matrix(1,0,0,1,496,-4)" class="stroke_order_diagram--existing_path"></path><path id="kvg:05c01-s6" kvg:type="㇀/㇐" d="M16.58,90.74c1.05,1.01,2.32,0.86,3.21,0.56c12.47-4.1,18.38-6.14,30.14-9.92" transform="matrix(1,0,0,1,496,-4)" class="stroke_order_diagram--current_path"></path><path id="pathSk2v596cn37hl" kvg:type="㇀/㇐" d="M16.58,90.74c1.05,1.01,2.32,0.86,3.21,0.56c12.47-4.1,18.38-6.14,30.14-9.92" transform="matrix(1,0,0,1,496,-4)" class="stroke_order_diagram--current_path"></path><circle cx="16.58" cy="90.74" r="8" class="stroke_order_diagram--path_start" transform="matrix(1,0,0,1,496,-4)"></circle><line x1="650" x2="650" y1="1" y2="99" class="stroke_order_diagram--guide_line"></line><line x1="699" x2="699" y1="1" y2="99" class="stroke_order_diagram--bounding_box"></line><path id="pathSk2v596cn37ho" kvg:type="㇐" d="M18.33,33.3c1.8,0.32,3.45,0.46,4.92,0.19c7.63-1.37,15.03-2.53,21.87-3.11c1.72-0.15,3.47-0.35,5.15,0.16" transform="matrix(1,0,0,1,596,-4)" class="stroke_order_diagram--existing_path"></path><path id="pathSk2v596cn37hp" kvg:type="㇑a" d="M33.35,17c1.14,1.14,1.45,2.35,1.45,4.01c0,6.11-0.05,18.49-0.05,25.24" transform="matrix(1,0,0,1,596,-4)" class="stroke_order_diagram--existing_path"></path><path id="pathSk2v596cn37hq" kvg:type="㇐" d="M15.15,49.69c2.47,0.44,4.51,0.18,6.45-0.13c6.86-1.12,15.36-2.7,25.27-3.67c1.95-0.19,4.42-0.76,6.31-0.02" transform="matrix(1,0,0,1,596,-4)" class="stroke_order_diagram--existing_path"></path><path id="pathSk2v596cn37hr" kvg:type="㇐" d="M18.31,68.62c1.57,0.5,3.58,0.29,4.8,0.04c8.01-1.66,15.76-2.79,23.04-3.93c1.25-0.2,3.37-0.52,4.56-0.02" transform="matrix(1,0,0,1,596,-4)" class="stroke_order_diagram--existing_path"></path><path id="pathSk2v596cn37hs" kvg:type="㇑a" d="M33.48,50.93c0.73,0.73,1.13,1.69,1.13,3.01c0,10.65-0.11,17.35-0.11,31.43" transform="matrix(1,0,0,1,596,-4)" class="stroke_order_diagram--existing_path"></path><path id="pathSk2v596cn37ht" kvg:type="㇀/㇐" d="M16.58,90.74c1.05,1.01,2.32,0.86,3.21,0.56c12.47-4.1,18.38-6.14,30.14-9.92" transform="matrix(1,0,0,1,596,-4)" class="stroke_order_diagram--existing_path"></path><path id="kvg:05c01-s7" kvg:type="㇐" d="M57.64,42.75c2.23,0.3,4.65,0.16,6.86-0.21c7.79-1.3,18.82-2.68,26.99-3.54c1.87-0.2,4.12-0.38,6.14,0.05" transform="matrix(1,0,0,1,596,-4)" class="stroke_order_diagram--current_path"></path><path id="pathSk2v596cn37hv" kvg:type="㇐" d="M57.64,42.75c2.23,0.3,4.65,0.16,6.86-0.21c7.79-1.3,18.82-2.68,26.99-3.54c1.87-0.2,4.12-0.38,6.14,0.05" transform="matrix(1,0,0,1,596,-4)" class="stroke_order_diagram--current_path"></path><circle cx="57.64" cy="42.75" r="8" class="stroke_order_diagram--path_start" transform="matrix(1,0,0,1,596,-4)"></circle><line x1="750" x2="750" y1="1" y2="99" class="stroke_order_diagram--guide_line"></line><line x1="799" x2="799" y1="1" y2="99" class="stroke_order_diagram--bounding_box"></line><path id="pathSk2v596cn37hy" kvg:type="㇐" d="M18.33,33.3c1.8,0.32,3.45,0.46,4.92,0.19c7.63-1.37,15.03-2.53,21.87-3.11c1.72-0.15,3.47-0.35,5.15,0.16" transform="matrix(1,0,0,1,696,-4)" class="stroke_order_diagram--existing_path"></path><path id="pathSk2v596cn37hz" kvg:type="㇑a" d="M33.35,17c1.14,1.14,1.45,2.35,1.45,4.01c0,6.11-0.05,18.49-0.05,25.24" transform="matrix(1,0,0,1,696,-4)" class="stroke_order_diagram--existing_path"></path><path id="pathSk2v596cn37i0" kvg:type="㇐" d="M15.15,49.69c2.47,0.44,4.51,0.18,6.45-0.13c6.86-1.12,15.36-2.7,25.27-3.67c1.95-0.19,4.42-0.76,6.31-0.02" transform="matrix(1,0,0,1,696,-4)" class="stroke_order_diagram--existing_path"></path><path id="pathSk2v596cn37i1" kvg:type="㇐" d="M18.31,68.62c1.57,0.5,3.58,0.29,4.8,0.04c8.01-1.66,15.76-2.79,23.04-3.93c1.25-0.2,3.37-0.52,4.56-0.02" transform="matrix(1,0,0,1,696,-4)" class="stroke_order_diagram--existing_path"></path><path id="pathSk2v596cn37i2" kvg:type="㇑a" d="M33.48,50.93c0.73,0.73,1.13,1.69,1.13,3.01c0,10.65-0.11,17.35-0.11,31.43" transform="matrix(1,0,0,1,696,-4)" class="stroke_order_diagram--existing_path"></path><path id="pathSk2v596cn37i3" kvg:type="㇀/㇐" d="M16.58,90.74c1.05,1.01,2.32,0.86,3.21,0.56c12.47-4.1,18.38-6.14,30.14-9.92" transform="matrix(1,0,0,1,696,-4)" class="stroke_order_diagram--existing_path"></path><path id="pathSk2v596cn37i4" kvg:type="㇐" d="M57.64,42.75c2.23,0.3,4.65,0.16,6.86-0.21c7.79-1.3,18.82-2.68,26.99-3.54c1.87-0.2,4.12-0.38,6.14,0.05" transform="matrix(1,0,0,1,696,-4)" class="stroke_order_diagram--existing_path"></path><path id="kvg:05c01-s8" kvg:type="㇚" d="M80.15,14.58c1.14,1.14,1.44,2.79,1.44,4.96c0,6.46,0.01,64.58,0.01,69.25c0,9.96-4.59,3.58-6.41,1.74" transform="matrix(1,0,0,1,696,-4)" class="stroke_order_diagram--current_path"></path><path id="pathSk2v596cn37i6" kvg:type="㇚" d="M80.15,14.58c1.14,1.14,1.44,2.79,1.44,4.96c0,6.46,0.01,64.58,0.01,69.25c0,9.96-4.59,3.58-6.41,1.74" transform="matrix(1,0,0,1,696,-4)" class="stroke_order_diagram--current_path"></path><circle cx="80.15" cy="14.58" r="8" class="stroke_order_diagram--path_start" transform="matrix(1,0,0,1,696,-4)"></circle><line x1="850" x2="850" y1="1" y2="99" class="stroke_order_diagram--guide_line"></line><line x1="899" x2="899" y1="1" y2="99" class="stroke_order_diagram--bounding_box"></line><path id="pathSk2v596cn37i9" kvg:type="㇐" d="M18.33,33.3c1.8,0.32,3.45,0.46,4.92,0.19c7.63-1.37,15.03-2.53,21.87-3.11c1.72-0.15,3.47-0.35,5.15,0.16" transform="matrix(1,0,0,1,796,-4)" class="stroke_order_diagram--existing_path"></path><path id="pathSk2v596cn37ia" kvg:type="㇑a" d="M33.35,17c1.14,1.14,1.45,2.35,1.45,4.01c0,6.11-0.05,18.49-0.05,25.24" transform="matrix(1,0,0,1,796,-4)" class="stroke_order_diagram--existing_path"></path><path id="pathSk2v596cn37ib" kvg:type="㇐" d="M15.15,49.69c2.47,0.44,4.51,0.18,6.45-0.13c6.86-1.12,15.36-2.7,25.27-3.67c1.95-0.19,4.42-0.76,6.31-0.02" transform="matrix(1,0,0,1,796,-4)" class="stroke_order_diagram--existing_path"></path><path id="pathSk2v596cn37ic" kvg:type="㇐" d="M18.31,68.62c1.57,0.5,3.58,0.29,4.8,0.04c8.01-1.66,15.76-2.79,23.04-3.93c1.25-0.2,3.37-0.52,4.56-0.02" transform="matrix(1,0,0,1,796,-4)" class="stroke_order_diagram--existing_path"></path><path id="pathSk2v596cn37id" kvg:type="㇑a" d="M33.48,50.93c0.73,0.73,1.13,1.69,1.13,3.01c0,10.65-0.11,17.35-0.11,31.43" transform="matrix(1,0,0,1,796,-4)" class="stroke_order_diagram--existing_path"></path><path id="pathSk2v596cn37ie" kvg:type="㇀/㇐" d="M16.58,90.74c1.05,1.01,2.32,0.86,3.21,0.56c12.47-4.1,18.38-6.14,30.14-9.92" transform="matrix(1,0,0,1,796,-4)" class="stroke_order_diagram--existing_path"></path><path id="pathSk2v596cn37if" kvg:type="㇐" d="M57.64,42.75c2.23,0.3,4.65,0.16,6.86-0.21c7.79-1.3,18.82-2.68,26.99-3.54c1.87-0.2,4.12-0.38,6.14,0.05" transform="matrix(1,0,0,1,796,-4)" class="stroke_order_diagram--existing_path"></path><path id="pathSk2v596cn37ig" kvg:type="㇚" d="M80.15,14.58c1.14,1.14,1.44,2.79,1.44,4.96c0,6.46,0.01,64.58,0.01,69.25c0,9.96-4.59,3.58-6.41,1.74" transform="matrix(1,0,0,1,796,-4)" class="stroke_order_diagram--existing_path"></path><path id="kvg:05c01-s9" kvg:type="㇔" d="M61.25,57.62c2.73,2.04,7.06,8.4,7.75,11.58" transform="matrix(1,0,0,1,796,-4)" class="stroke_order_diagram--current_path"></path><path id="pathSk2v596cn37ii" kvg:type="㇔" d="M61.25,57.62c2.73,2.04,7.06,8.4,7.75,11.58" transform="matrix(1,0,0,1,796,-4)" class="stroke_order_diagram--current_path"></path><circle cx="61.25" cy="57.62" r="8" class="stroke_order_diagram--path_start" transform="matrix(1,0,0,1,796,-4)"></circle></svg>