<svg style="width: 1200px; height: 100px;" viewbox="0 0 1200 100"><style>
.stroke_order_diagram--outer_container {
  width: 100%;
  overflow-x: auto;
  overflow-y: hidden;
}

.stroke_order_diagram--guide_line {
  fill: none;
  stroke: #ddd;
  stroke-width: 3;
  stroke-linecap: square;
  stroke-linejoin: square;
  stroke-dasharray:8, 8;
}

.stroke_order_diagram--bounding_box {
  fill: none;
  stroke: #ddd;
  stroke-width: 4;
  stroke-linecap: square;
  stroke-linejoin: square;
}

.stroke_order_diagram--current_path {
  fill: none;
  stroke: #000;
  stroke-width: 6;
  stroke-linecap: round;
  stroke-linejoin: round;
}

.stroke_order_diagram--existing_path {
  fill: none;
  stroke: #aaa;
  stroke-width: 6;
  stroke-linecap: round;
  stroke-linejoin:round;
}

.stroke_order_diagram--path_start {
  fill: rgba(255, 0, 0, 0.7);
  stroke:none
}</style><desc>Created with Snap</desc><defs></defs><line x1="1" x2="1199" y1="1" y2="1" class="stroke_order_diagram--bounding_box"></line><line x1="1" x2="1" y1="1" y2="99" class="stroke_order_diagram--bounding_box"></line><line x1="1" x2="1199" y1="99" y2="99" class="stroke_order_diagram--bounding_box"></line><line x1="0" x2="1200" y1="50" y2="50" class="stroke_order_diagram--guide_line"></line><line x1="50" x2="50" y1="1" y2="99" class="stroke_order_diagram--guide_line"></line><line x1="99" x2="99" y1="1" y2="99" class="stroke_order_diagram--bounding_box"></line><path id="kvg:05c5e-s1" kvg:type="㇕c" d="M26.18,16.65c1.91,0.73,4.13,0.88,6.16,0.73C43.3,16.57,75,13.25,79.37,12.65c2.88-0.4,4.17,1.25,3.13,3.97c-0.62,1.63-1.62,5.01-2.62,8.19" transform="matrix(1,0,0,1,-4,-4)" class="stroke_order_diagram--current_path"></path><path id="pathSk2v596cn1n35" kvg:type="㇕c" d="M26.18,16.65c1.91,0.73,4.13,0.88,6.16,0.73C43.3,16.57,75,13.25,79.37,12.65c2.88-0.4,4.17,1.25,3.13,3.97c-0.62,1.63-1.62,5.01-2.62,8.19" transform="matrix(1,0,0,1,-4,-4)" class="stroke_order_diagram--current_path"></path><circle cx="26.18" cy="16.65" r="8" class="stroke_order_diagram--path_start" transform="matrix(1,0,0,1,-4,-4)"></circle><line x1="150" x2="150" y1="1" y2="99" class="stroke_order_diagram--guide_line"></line><line x1="199" x2="199" y1="1" y2="99" class="stroke_order_diagram--bounding_box"></line><path id="pathSk2v596cn1n38" kvg:type="㇕c" d="M26.18,16.65c1.91,0.73,4.13,0.88,6.16,0.73C43.3,16.57,75,13.25,79.37,12.65c2.88-0.4,4.17,1.25,3.13,3.97c-0.62,1.63-1.62,5.01-2.62,8.19" transform="matrix(1,0,0,1,96,-4)" class="stroke_order_diagram--existing_path"></path><path id="kvg:05c5e-s2" kvg:type="㇐b" d="M31.4,30.92c6.85-0.67,35.16-3.69,46.63-4.81c1.72-0.17,3.03-0.28,3.77-0.31" transform="matrix(1,0,0,1,96,-4)" class="stroke_order_diagram--current_path"></path><path id="pathSk2v596cn1n3a" kvg:type="㇐b" d="M31.4,30.92c6.85-0.67,35.16-3.69,46.63-4.81c1.72-0.17,3.03-0.28,3.77-0.31" transform="matrix(1,0,0,1,96,-4)" class="stroke_order_diagram--current_path"></path><circle cx="31.4" cy="30.92" r="8" class="stroke_order_diagram--path_start" transform="matrix(1,0,0,1,96,-4)"></circle><line x1="250" x2="250" y1="1" y2="99" class="stroke_order_diagram--guide_line"></line><line x1="299" x2="299" y1="1" y2="99" class="stroke_order_diagram--bounding_box"></line><path id="pathSk2v596cn1n3d" kvg:type="㇕c" d="M26.18,16.65c1.91,0.73,4.13,0.88,6.16,0.73C43.3,16.57,75,13.25,79.37,12.65c2.88-0.4,4.17,1.25,3.13,3.97c-0.62,1.63-1.62,5.01-2.62,8.19" transform="matrix(1,0,0,1,196,-4)" class="stroke_order_diagram--existing_path"></path><path id="pathSk2v596cn1n3e" kvg:type="㇐b" d="M31.4,30.92c6.85-0.67,35.16-3.69,46.63-4.81c1.72-0.17,3.03-0.28,3.77-0.31" transform="matrix(1,0,0,1,196,-4)" class="stroke_order_diagram--existing_path"></path><path id="kvg:05c5e-s3" kvg:type="㇒" d="M29.08,18.08c1.04,1.04,1.48,2.14,1.47,3.42c-0.3,28.88-5.05,49.63-16.55,66" transform="matrix(1,0,0,1,196,-4)" class="stroke_order_diagram--current_path"></path><path id="pathSk2v596cn1n3g" kvg:type="㇒" d="M29.08,18.08c1.04,1.04,1.48,2.14,1.47,3.42c-0.3,28.88-5.05,49.63-16.55,66" transform="matrix(1,0,0,1,196,-4)" class="stroke_order_diagram--current_path"></path><circle cx="29.08" cy="18.08" r="8" class="stroke_order_diagram--path_start" transform="matrix(1,0,0,1,196,-4)"></circle><line x1="350" x2="350" y1="1" y2="99" class="stroke_order_diagram--guide_line"></line><line x1="399" x2="399" y1="1" y2="99" class="stroke_order_diagram--bounding_box"></line><path id="pathSk2v596cn1n3j" kvg:type="㇕c" d="M26.18,16.65c1.91,0.73,4.13,0.88,6.16,0.73C43.3,16.57,75,13.25,79.37,12.65c2.88-0.4,4.17,1.25,3.13,3.97c-0.62,1.63-1.62,5.01-2.62,8.19" transform="matrix(1,0,0,1,296,-4)" class="stroke_order_diagram--existing_path"></path><path id="pathSk2v596cn1n3k" kvg:type="㇐b" d="M31.4,30.92c6.85-0.67,35.16-3.69,46.63-4.81c1.72-0.17,3.03-0.28,3.77-0.31" transform="matrix(1,0,0,1,296,-4)" class="stroke_order_diagram--existing_path"></path><path id="pathSk2v596cn1n3l" kvg:type="㇒" d="M29.08,18.08c1.04,1.04,1.48,2.14,1.47,3.42c-0.3,28.88-5.05,49.63-16.55,66" transform="matrix(1,0,0,1,296,-4)" class="stroke_order_diagram--existing_path"></path><path id="kvg:05c5e-s4" kvg:type="㇒" d="M69.94,30c-0.07,1-0.51,1.72-1.51,2.22c-6.05,3.03-12.3,4.9-26,8.14" transform="matrix(1,0,0,1,296,-4)" class="stroke_order_diagram--current_path"></path><path id="pathSk2v596cn1n3n" kvg:type="㇒" d="M69.94,30c-0.07,1-0.51,1.72-1.51,2.22c-6.05,3.03-12.3,4.9-26,8.14" transform="matrix(1,0,0,1,296,-4)" class="stroke_order_diagram--current_path"></path><circle cx="69.94" cy="30" r="8" class="stroke_order_diagram--path_start" transform="matrix(1,0,0,1,296,-4)"></circle><line x1="450" x2="450" y1="1" y2="99" class="stroke_order_diagram--guide_line"></line><line x1="499" x2="499" y1="1" y2="99" class="stroke_order_diagram--bounding_box"></line><path id="pathSk2v596cn1n3q" kvg:type="㇕c" d="M26.18,16.65c1.91,0.73,4.13,0.88,6.16,0.73C43.3,16.57,75,13.25,79.37,12.65c2.88-0.4,4.17,1.25,3.13,3.97c-0.62,1.63-1.62,5.01-2.62,8.19" transform="matrix(1,0,0,1,396,-4)" class="stroke_order_diagram--existing_path"></path><path id="pathSk2v596cn1n3r" kvg:type="㇐b" d="M31.4,30.92c6.85-0.67,35.16-3.69,46.63-4.81c1.72-0.17,3.03-0.28,3.77-0.31" transform="matrix(1,0,0,1,396,-4)" class="stroke_order_diagram--existing_path"></path><path id="pathSk2v596cn1n3s" kvg:type="㇒" d="M29.08,18.08c1.04,1.04,1.48,2.14,1.47,3.42c-0.3,28.88-5.05,49.63-16.55,66" transform="matrix(1,0,0,1,396,-4)" class="stroke_order_diagram--existing_path"></path><path id="pathSk2v596cn1n3t" kvg:type="㇒" d="M69.94,30c-0.07,1-0.51,1.72-1.51,2.22c-6.05,3.03-12.3,4.9-26,8.14" transform="matrix(1,0,0,1,396,-4)" class="stroke_order_diagram--existing_path"></path><path id="kvg:05c5e-s5" kvg:type="㇑" d="M38.79,45.69c0.63,0.63,0.96,1.19,1.3,2.15c1.02,2.85,1.26,4.15,2.28,9.14c0.22,1.09,0.44,2.24,0.66,3.46" transform="matrix(1,0,0,1,396,-4)" class="stroke_order_diagram--current_path"></path><path id="pathSk2v596cn1n3v" kvg:type="㇑" d="M38.79,45.69c0.63,0.63,0.96,1.19,1.3,2.15c1.02,2.85,1.26,4.15,2.28,9.14c0.22,1.09,0.44,2.24,0.66,3.46" transform="matrix(1,0,0,1,396,-4)" class="stroke_order_diagram--current_path"></path><circle cx="38.79" cy="45.69" r="8" class="stroke_order_diagram--path_start" transform="matrix(1,0,0,1,396,-4)"></circle><line x1="550" x2="550" y1="1" y2="99" class="stroke_order_diagram--guide_line"></line><line x1="599" x2="599" y1="1" y2="99" class="stroke_order_diagram--bounding_box"></line><path id="pathSk2v596cn1n3y" kvg:type="㇕c" d="M26.18,16.65c1.91,0.73,4.13,0.88,6.16,0.73C43.3,16.57,75,13.25,79.37,12.65c2.88-0.4,4.17,1.25,3.13,3.97c-0.62,1.63-1.62,5.01-2.62,8.19" transform="matrix(1,0,0,1,496,-4)" class="stroke_order_diagram--existing_path"></path><path id="pathSk2v596cn1n3z" kvg:type="㇐b" d="M31.4,30.92c6.85-0.67,35.16-3.69,46.63-4.81c1.72-0.17,3.03-0.28,3.77-0.31" transform="matrix(1,0,0,1,496,-4)" class="stroke_order_diagram--existing_path"></path><path id="pathSk2v596cn1n40" kvg:type="㇒" d="M29.08,18.08c1.04,1.04,1.48,2.14,1.47,3.42c-0.3,28.88-5.05,49.63-16.55,66" transform="matrix(1,0,0,1,496,-4)" class="stroke_order_diagram--existing_path"></path><path id="pathSk2v596cn1n41" kvg:type="㇒" d="M69.94,30c-0.07,1-0.51,1.72-1.51,2.22c-6.05,3.03-12.3,4.9-26,8.14" transform="matrix(1,0,0,1,496,-4)" class="stroke_order_diagram--existing_path"></path><path id="pathSk2v596cn1n42" kvg:type="㇑" d="M38.79,45.69c0.63,0.63,0.96,1.19,1.3,2.15c1.02,2.85,1.26,4.15,2.28,9.14c0.22,1.09,0.44,2.24,0.66,3.46" transform="matrix(1,0,0,1,496,-4)" class="stroke_order_diagram--existing_path"></path><path id="kvg:05c5e-s6" kvg:type="㇕b" d="M40.31,46.49c11.44-1.36,29.8-3.96,36.74-4.24c2.71-0.11,4.2,1.13,3.62,3.32c-1.05,3.99-1.55,5.19-2.23,7.8" transform="matrix(1,0,0,1,496,-4)" class="stroke_order_diagram--current_path"></path><path id="pathSk2v596cn1n44" kvg:type="㇕b" d="M40.31,46.49c11.44-1.36,29.8-3.96,36.74-4.24c2.71-0.11,4.2,1.13,3.62,3.32c-1.05,3.99-1.55,5.19-2.23,7.8" transform="matrix(1,0,0,1,496,-4)" class="stroke_order_diagram--current_path"></path><circle cx="40.31" cy="46.49" r="8" class="stroke_order_diagram--path_start" transform="matrix(1,0,0,1,496,-4)"></circle><line x1="650" x2="650" y1="1" y2="99" class="stroke_order_diagram--guide_line"></line><line x1="699" x2="699" y1="1" y2="99" class="stroke_order_diagram--bounding_box"></line><path id="pathSk2v596cn1n47" kvg:type="㇕c" d="M26.18,16.65c1.91,0.73,4.13,0.88,6.16,0.73C43.3,16.57,75,13.25,79.37,12.65c2.88-0.4,4.17,1.25,3.13,3.97c-0.62,1.63-1.62,5.01-2.62,8.19" transform="matrix(1,0,0,1,596,-4)" class="stroke_order_diagram--existing_path"></path><path id="pathSk2v596cn1n48" kvg:type="㇐b" d="M31.4,30.92c6.85-0.67,35.16-3.69,46.63-4.81c1.72-0.17,3.03-0.28,3.77-0.31" transform="matrix(1,0,0,1,596,-4)" class="stroke_order_diagram--existing_path"></path><path id="pathSk2v596cn1n49" kvg:type="㇒" d="M29.08,18.08c1.04,1.04,1.48,2.14,1.47,3.42c-0.3,28.88-5.05,49.63-16.55,66" transform="matrix(1,0,0,1,596,-4)" class="stroke_order_diagram--existing_path"></path><path id="pathSk2v596cn1n4a" kvg:type="㇒" d="M69.94,30c-0.07,1-0.51,1.72-1.51,2.22c-6.05,3.03-12.3,4.9-26,8.14" transform="matrix(1,0,0,1,596,-4)" class="stroke_order_diagram--existing_path"></path><path id="pathSk2v596cn1n4b" kvg:type="㇑" d="M38.79,45.69c0.63,0.63,0.96,1.19,1.3,2.15c1.02,2.85,1.26,4.15,2.28,9.14c0.22,1.09,0.44,2.24,0.66,3.46" transform="matrix(1,0,0,1,596,-4)" class="stroke_order_diagram--existing_path"></path><path id="pathSk2v596cn1n4c" kvg:type="㇕b" d="M40.31,46.49c11.44-1.36,29.8-3.96,36.74-4.24c2.71-0.11,4.2,1.13,3.62,3.32c-1.05,3.99-1.55,5.19-2.23,7.8" transform="matrix(1,0,0,1,596,-4)" class="stroke_order_diagram--existing_path"></path><path id="kvg:05c5e-s7" kvg:type="㇐b" d="M43.88,58.49c6.9-0.64,21.87-2.8,32.64-3.73c1.28-0.11,2.51-0.2,3.66-0.28" transform="matrix(1,0,0,1,596,-4)" class="stroke_order_diagram--current_path"></path><path id="pathSk2v596cn1n4e" kvg:type="㇐b" d="M43.88,58.49c6.9-0.64,21.87-2.8,32.64-3.73c1.28-0.11,2.51-0.2,3.66-0.28" transform="matrix(1,0,0,1,596,-4)" class="stroke_order_diagram--current_path"></path><circle cx="43.88" cy="58.49" r="8" class="stroke_order_diagram--path_start" transform="matrix(1,0,0,1,596,-4)"></circle><line x1="750" x2="750" y1="1" y2="99" class="stroke_order_diagram--guide_line"></line><line x1="799" x2="799" y1="1" y2="99" class="stroke_order_diagram--bounding_box"></line><path id="pathSk2v596cn1n4h" kvg:type="㇕c" d="M26.18,16.65c1.91,0.73,4.13,0.88,6.16,0.73C43.3,16.57,75,13.25,79.37,12.65c2.88-0.4,4.17,1.25,3.13,3.97c-0.62,1.63-1.62,5.01-2.62,8.19" transform="matrix(1,0,0,1,696,-4)" class="stroke_order_diagram--existing_path"></path><path id="pathSk2v596cn1n4i" kvg:type="㇐b" d="M31.4,30.92c6.85-0.67,35.16-3.69,46.63-4.81c1.72-0.17,3.03-0.28,3.77-0.31" transform="matrix(1,0,0,1,696,-4)" class="stroke_order_diagram--existing_path"></path><path id="pathSk2v596cn1n4j" kvg:type="㇒" d="M29.08,18.08c1.04,1.04,1.48,2.14,1.47,3.42c-0.3,28.88-5.05,49.63-16.55,66" transform="matrix(1,0,0,1,696,-4)" class="stroke_order_diagram--existing_path"></path><path id="pathSk2v596cn1n4k" kvg:type="㇒" d="M69.94,30c-0.07,1-0.51,1.72-1.51,2.22c-6.05,3.03-12.3,4.9-26,8.14" transform="matrix(1,0,0,1,696,-4)" class="stroke_order_diagram--existing_path"></path><path id="pathSk2v596cn1n4l" kvg:type="㇑" d="M38.79,45.69c0.63,0.63,0.96,1.19,1.3,2.15c1.02,2.85,1.26,4.15,2.28,9.14c0.22,1.09,0.44,2.24,0.66,3.46" transform="matrix(1,0,0,1,696,-4)" class="stroke_order_diagram--existing_path"></path><path id="pathSk2v596cn1n4m" kvg:type="㇕b" d="M40.31,46.49c11.44-1.36,29.8-3.96,36.74-4.24c2.71-0.11,4.2,1.13,3.62,3.32c-1.05,3.99-1.55,5.19-2.23,7.8" transform="matrix(1,0,0,1,696,-4)" class="stroke_order_diagram--existing_path"></path><path id="pathSk2v596cn1n4n" kvg:type="㇐b" d="M43.88,58.49c6.9-0.64,21.87-2.8,32.64-3.73c1.28-0.11,2.51-0.2,3.66-0.28" transform="matrix(1,0,0,1,696,-4)" class="stroke_order_diagram--existing_path"></path><path id="kvg:05c5e-s8" kvg:type="㇑" d="M33.09,66.64c0.82,0.82,1.54,1.99,1.71,3.08c0.65,4.2,1.98,16.55,2.73,23.25c0.27,2.4,0.45,4.11,0.45,4.53" transform="matrix(1,0,0,1,696,-4)" class="stroke_order_diagram--current_path"></path><path id="pathSk2v596cn1n4p" kvg:type="㇑" d="M33.09,66.64c0.82,0.82,1.54,1.99,1.71,3.08c0.65,4.2,1.98,16.55,2.73,23.25c0.27,2.4,0.45,4.11,0.45,4.53" transform="matrix(1,0,0,1,696,-4)" class="stroke_order_diagram--current_path"></path><circle cx="33.09" cy="66.64" r="8" class="stroke_order_diagram--path_start" transform="matrix(1,0,0,1,696,-4)"></circle><line x1="850" x2="850" y1="1" y2="99" class="stroke_order_diagram--guide_line"></line><line x1="899" x2="899" y1="1" y2="99" class="stroke_order_diagram--bounding_box"></line><path id="pathSk2v596cn1n4s" kvg:type="㇕c" d="M26.18,16.65c1.91,0.73,4.13,0.88,6.16,0.73C43.3,16.57,75,13.25,79.37,12.65c2.88-0.4,4.17,1.25,3.13,3.97c-0.62,1.63-1.62,5.01-2.62,8.19" transform="matrix(1,0,0,1,796,-4)" class="stroke_order_diagram--existing_path"></path><path id="pathSk2v596cn1n4t" kvg:type="㇐b" d="M31.4,30.92c6.85-0.67,35.16-3.69,46.63-4.81c1.72-0.17,3.03-0.28,3.77-0.31" transform="matrix(1,0,0,1,796,-4)" class="stroke_order_diagram--existing_path"></path><path id="pathSk2v596cn1n4u" kvg:type="㇒" d="M29.08,18.08c1.04,1.04,1.48,2.14,1.47,3.42c-0.3,28.88-5.05,49.63-16.55,66" transform="matrix(1,0,0,1,796,-4)" class="stroke_order_diagram--existing_path"></path><path id="pathSk2v596cn1n4v" kvg:type="㇒" d="M69.94,30c-0.07,1-0.51,1.72-1.51,2.22c-6.05,3.03-12.3,4.9-26,8.14" transform="matrix(1,0,0,1,796,-4)" class="stroke_order_diagram--existing_path"></path><path id="pathSk2v596cn1n4w" kvg:type="㇑" d="M38.79,45.69c0.63,0.63,0.96,1.19,1.3,2.15c1.02,2.85,1.26,4.15,2.28,9.14c0.22,1.09,0.44,2.24,0.66,3.46" transform="matrix(1,0,0,1,796,-4)" class="stroke_order_diagram--existing_path"></path><path id="pathSk2v596cn1n4x" kvg:type="㇕b" d="M40.31,46.49c11.44-1.36,29.8-3.96,36.74-4.24c2.71-0.11,4.2,1.13,3.62,3.32c-1.05,3.99-1.55,5.19-2.23,7.8" transform="matrix(1,0,0,1,796,-4)" class="stroke_order_diagram--existing_path"></path><path id="pathSk2v596cn1n4y" kvg:type="㇐b" d="M43.88,58.49c6.9-0.64,21.87-2.8,32.64-3.73c1.28-0.11,2.51-0.2,3.66-0.28" transform="matrix(1,0,0,1,796,-4)" class="stroke_order_diagram--existing_path"></path><path id="pathSk2v596cn1n4z" kvg:type="㇑" d="M33.09,66.64c0.82,0.82,1.54,1.99,1.71,3.08c0.65,4.2,1.98,16.55,2.73,23.25c0.27,2.4,0.45,4.11,0.45,4.53" transform="matrix(1,0,0,1,796,-4)" class="stroke_order_diagram--existing_path"></path><path id="kvg:05c5e-s9" kvg:type="㇆a" d="M35.38,69.38c8.16-0.87,41.61-4.79,51-5.87c4.26-0.49,5.81,0.23,5.39,4.63c-0.84,8.9-2.73,18.26-4.74,24.81c-1.9,6.18-4.15,2.68-6.75-0.61" transform="matrix(1,0,0,1,796,-4)" class="stroke_order_diagram--current_path"></path><path id="pathSk2v596cn1n51" kvg:type="㇆a" d="M35.38,69.38c8.16-0.87,41.61-4.79,51-5.87c4.26-0.49,5.81,0.23,5.39,4.63c-0.84,8.9-2.73,18.26-4.74,24.81c-1.9,6.18-4.15,2.68-6.75-0.61" transform="matrix(1,0,0,1,796,-4)" class="stroke_order_diagram--current_path"></path><circle cx="35.38" cy="69.38" r="8" class="stroke_order_diagram--path_start" transform="matrix(1,0,0,1,796,-4)"></circle><line x1="950" x2="950" y1="1" y2="99" class="stroke_order_diagram--guide_line"></line><line x1="999" x2="999" y1="1" y2="99" class="stroke_order_diagram--bounding_box"></line><path id="pathSk2v596cn1n54" kvg:type="㇕c" d="M26.18,16.65c1.91,0.73,4.13,0.88,6.16,0.73C43.3,16.57,75,13.25,79.37,12.65c2.88-0.4,4.17,1.25,3.13,3.97c-0.62,1.63-1.62,5.01-2.62,8.19" transform="matrix(1,0,0,1,896,-4)" class="stroke_order_diagram--existing_path"></path><path id="pathSk2v596cn1n55" kvg:type="㇐b" d="M31.4,30.92c6.85-0.67,35.16-3.69,46.63-4.81c1.72-0.17,3.03-0.28,3.77-0.31" transform="matrix(1,0,0,1,896,-4)" class="stroke_order_diagram--existing_path"></path><path id="pathSk2v596cn1n56" kvg:type="㇒" d="M29.08,18.08c1.04,1.04,1.48,2.14,1.47,3.42c-0.3,28.88-5.05,49.63-16.55,66" transform="matrix(1,0,0,1,896,-4)" class="stroke_order_diagram--existing_path"></path><path id="pathSk2v596cn1n57" kvg:type="㇒" d="M69.94,30c-0.07,1-0.51,1.72-1.51,2.22c-6.05,3.03-12.3,4.9-26,8.14" transform="matrix(1,0,0,1,896,-4)" class="stroke_order_diagram--existing_path"></path><path id="pathSk2v596cn1n58" kvg:type="㇑" d="M38.79,45.69c0.63,0.63,0.96,1.19,1.3,2.15c1.02,2.85,1.26,4.15,2.28,9.14c0.22,1.09,0.44,2.24,0.66,3.46" transform="matrix(1,0,0,1,896,-4)" class="stroke_order_diagram--existing_path"></path><path id="pathSk2v596cn1n59" kvg:type="㇕b" d="M40.31,46.49c11.44-1.36,29.8-3.96,36.74-4.24c2.71-0.11,4.2,1.13,3.62,3.32c-1.05,3.99-1.55,5.19-2.23,7.8" transform="matrix(1,0,0,1,896,-4)" class="stroke_order_diagram--existing_path"></path><path id="pathSk2v596cn1n5a" kvg:type="㇐b" d="M43.88,58.49c6.9-0.64,21.87-2.8,32.64-3.73c1.28-0.11,2.51-0.2,3.66-0.28" transform="matrix(1,0,0,1,896,-4)" class="stroke_order_diagram--existing_path"></path><path id="pathSk2v596cn1n5b" kvg:type="㇑" d="M33.09,66.64c0.82,0.82,1.54,1.99,1.71,3.08c0.65,4.2,1.98,16.55,2.73,23.25c0.27,2.4,0.45,4.11,0.45,4.53" transform="matrix(1,0,0,1,896,-4)" class="stroke_order_diagram--existing_path"></path><path id="pathSk2v596cn1n5c" kvg:type="㇆a" d="M35.38,69.38c8.16-0.87,41.61-4.79,51-5.87c4.26-0.49,5.81,0.23,5.39,4.63c-0.84,8.9-2.73,18.26-4.74,24.81c-1.9,6.18-4.15,2.68-6.75-0.61" transform="matrix(1,0,0,1,896,-4)" class="stroke_order_diagram--existing_path"></path><path id="kvg:05c5e-s10" kvg:type="㇑a" d="M58.23,38.23c0.96,0.96,1.64,2.4,1.64,3.87c0,4.04-0.01,32.27-0.01,38.43" transform="matrix(1,0,0,1,896,-4)" class="stroke_order_diagram--current_path"></path><path id="pathSk2v596cn1n5e" kvg:type="㇑a" d="M58.23,38.23c0.96,0.96,1.64,2.4,1.64,3.87c0,4.04-0.01,32.27-0.01,38.43" transform="matrix(1,0,0,1,896,-4)" class="stroke_order_diagram--current_path"></path><circle cx="58.23" cy="38.23" r="8" class="stroke_order_diagram--path_start" transform="matrix(1,0,0,1,896,-4)"></circle><line x1="1050" x2="1050" y1="1" y2="99" class="stroke_order_diagram--guide_line"></line><line x1="1099" x2="1099" y1="1" y2="99" class="stroke_order_diagram--bounding_box"></line><path id="pathSk2v596cn1n5h" kvg:type="㇕c" d="M26.18,16.65c1.91,0.73,4.13,0.88,6.16,0.73C43.3,16.57,75,13.25,79.37,12.65c2.88-0.4,4.17,1.25,3.13,3.97c-0.62,1.63-1.62,5.01-2.62,8.19" transform="matrix(1,0,0,1,996,-4)" class="stroke_order_diagram--existing_path"></path><path id="pathSk2v596cn1n5i" kvg:type="㇐b" d="M31.4,30.92c6.85-0.67,35.16-3.69,46.63-4.81c1.72-0.17,3.03-0.28,3.77-0.31" transform="matrix(1,0,0,1,996,-4)" class="stroke_order_diagram--existing_path"></path><path id="pathSk2v596cn1n5j" kvg:type="㇒" d="M29.08,18.08c1.04,1.04,1.48,2.14,1.47,3.42c-0.3,28.88-5.05,49.63-16.55,66" transform="matrix(1,0,0,1,996,-4)" class="stroke_order_diagram--existing_path"></path><path id="pathSk2v596cn1n5k" kvg:type="㇒" d="M69.94,30c-0.07,1-0.51,1.72-1.51,2.22c-6.05,3.03-12.3,4.9-26,8.14" transform="matrix(1,0,0,1,996,-4)" class="stroke_order_diagram--existing_path"></path><path id="pathSk2v596cn1n5l" kvg:type="㇑" d="M38.79,45.69c0.63,0.63,0.96,1.19,1.3,2.15c1.02,2.85,1.26,4.15,2.28,9.14c0.22,1.09,0.44,2.24,0.66,3.46" transform="matrix(1,0,0,1,996,-4)" class="stroke_order_diagram--existing_path"></path><path id="pathSk2v596cn1n5m" kvg:type="㇕b" d="M40.31,46.49c11.44-1.36,29.8-3.96,36.74-4.24c2.71-0.11,4.2,1.13,3.62,3.32c-1.05,3.99-1.55,5.19-2.23,7.8" transform="matrix(1,0,0,1,996,-4)" class="stroke_order_diagram--existing_path"></path><path id="pathSk2v596cn1n5n" kvg:type="㇐b" d="M43.88,58.49c6.9-0.64,21.87-2.8,32.64-3.73c1.28-0.11,2.51-0.2,3.66-0.28" transform="matrix(1,0,0,1,996,-4)" class="stroke_order_diagram--existing_path"></path><path id="pathSk2v596cn1n5o" kvg:type="㇑" d="M33.09,66.64c0.82,0.82,1.54,1.99,1.71,3.08c0.65,4.2,1.98,16.55,2.73,23.25c0.27,2.4,0.45,4.11,0.45,4.53" transform="matrix(1,0,0,1,996,-4)" class="stroke_order_diagram--existing_path"></path><path id="pathSk2v596cn1n5p" kvg:type="㇆a" d="M35.38,69.38c8.16-0.87,41.61-4.79,51-5.87c4.26-0.49,5.81,0.23,5.39,4.63c-0.84,8.9-2.73,18.26-4.74,24.81c-1.9,6.18-4.15,2.68-6.75-0.61" transform="matrix(1,0,0,1,996,-4)" class="stroke_order_diagram--existing_path"></path><path id="pathSk2v596cn1n5q" kvg:type="㇑a" d="M58.23,38.23c0.96,0.96,1.64,2.4,1.64,3.87c0,4.04-0.01,32.27-0.01,38.43" transform="matrix(1,0,0,1,996,-4)" class="stroke_order_diagram--existing_path"></path><path id="kvg:05c5e-s11" kvg:type="㇀" d="M48.09,84.45c0.55,0.56,1.67,0.91,2.21,0.72c5.46-1.86,20.26-7.96,21.91-8.67" transform="matrix(1,0,0,1,996,-4)" class="stroke_order_diagram--current_path"></path><path id="pathSk2v596cn1n5s" kvg:type="㇀" d="M48.09,84.45c0.55,0.56,1.67,0.91,2.21,0.72c5.46-1.86,20.26-7.96,21.91-8.67" transform="matrix(1,0,0,1,996,-4)" class="stroke_order_diagram--current_path"></path><circle cx="48.09" cy="84.45" r="8" class="stroke_order_diagram--path_start" transform="matrix(1,0,0,1,996,-4)"></circle><line x1="1150" x2="1150" y1="1" y2="99" class="stroke_order_diagram--guide_line"></line><line x1="1199" x2="1199" y1="1" y2="99" class="stroke_order_diagram--bounding_box"></line><path id="pathSk2v596cn1n5v" kvg:type="㇕c" d="M26.18,16.65c1.91,0.73,4.13,0.88,6.16,0.73C43.3,16.57,75,13.25,79.37,12.65c2.88-0.4,4.17,1.25,3.13,3.97c-0.62,1.63-1.62,5.01-2.62,8.19" transform="matrix(1,0,0,1,1096,-4)" class="stroke_order_diagram--existing_path"></path><path id="pathSk2v596cn1n5w" kvg:type="㇐b" d="M31.4,30.92c6.85-0.67,35.16-3.69,46.63-4.81c1.72-0.17,3.03-0.28,3.77-0.31" transform="matrix(1,0,0,1,1096,-4)" class="stroke_order_diagram--existing_path"></path><path id="pathSk2v596cn1n5x" kvg:type="㇒" d="M29.08,18.08c1.04,1.04,1.48,2.14,1.47,3.42c-0.3,28.88-5.05,49.63-16.55,66" transform="matrix(1,0,0,1,1096,-4)" class="stroke_order_diagram--existing_path"></path><path id="pathSk2v596cn1n5y" kvg:type="㇒" d="M69.94,30c-0.07,1-0.51,1.72-1.51,2.22c-6.05,3.03-12.3,4.9-26,8.14" transform="matrix(1,0,0,1,1096,-4)" class="stroke_order_diagram--existing_path"></path><path id="pathSk2v596cn1n5z" kvg:type="㇑" d="M38.79,45.69c0.63,0.63,0.96,1.19,1.3,2.15c1.02,2.85,1.26,4.15,2.28,9.14c0.22,1.09,0.44,2.24,0.66,3.46" transform="matrix(1,0,0,1,1096,-4)" class="stroke_order_diagram--existing_path"></path><path id="pathSk2v596cn1n60" kvg:type="㇕b" d="M40.31,46.49c11.44-1.36,29.8-3.96,36.74-4.24c2.71-0.11,4.2,1.13,3.62,3.32c-1.05,3.99-1.55,5.19-2.23,7.8" transform="matrix(1,0,0,1,1096,-4)" class="stroke_order_diagram--existing_path"></path><path id="pathSk2v596cn1n61" kvg:type="㇐b" d="M43.88,58.49c6.9-0.64,21.87-2.8,32.64-3.73c1.28-0.11,2.51-0.2,3.66-0.28" transform="matrix(1,0,0,1,1096,-4)" class="stroke_order_diagram--existing_path"></path><path id="pathSk2v596cn1n62" kvg:type="㇑" d="M33.09,66.64c0.82,0.82,1.54,1.99,1.71,3.08c0.65,4.2,1.98,16.55,2.73,23.25c0.27,2.4,0.45,4.11,0.45,4.53" transform="matrix(1,0,0,1,1096,-4)" class="stroke_order_diagram--existing_path"></path><path id="pathSk2v596cn1n63" kvg:type="㇆a" d="M35.38,69.38c8.16-0.87,41.61-4.79,51-5.87c4.26-0.49,5.81,0.23,5.39,4.63c-0.84,8.9-2.73,18.26-4.74,24.81c-1.9,6.18-4.15,2.68-6.75-0.61" transform="matrix(1,0,0,1,1096,-4)" class="stroke_order_diagram--existing_path"></path><path id="pathSk2v596cn1n64" kvg:type="㇑a" d="M58.23,38.23c0.96,0.96,1.64,2.4,1.64,3.87c0,4.04-0.01,32.27-0.01,38.43" transform="matrix(1,0,0,1,1096,-4)" class="stroke_order_diagram--existing_path"></path><path id="pathSk2v596cn1n65" kvg:type="㇀" d="M48.09,84.45c0.55,0.56,1.67,0.91,2.21,0.72c5.46-1.86,20.26-7.96,21.91-8.67" transform="matrix(1,0,0,1,1096,-4)" class="stroke_order_diagram--existing_path"></path><path id="kvg:05c5e-s12" kvg:type="㇔" d="M69.49,72.24c2.73,1.93,7.31,7.95,8,10.96" transform="matrix(1,0,0,1,1096,-4)" class="stroke_order_diagram--current_path"></path><path id="pathSk2v596cn1n67" kvg:type="㇔" d="M69.49,72.24c2.73,1.93,7.31,7.95,8,10.96" transform="matrix(1,0,0,1,1096,-4)" class="stroke_order_diagram--current_path"></path><circle cx="69.49" cy="72.24" r="8" class="stroke_order_diagram--path_start" transform="matrix(1,0,0,1,1096,-4)"></circle></svg>