<svg style="width: 1000px; height: 100px;" viewbox="0 0 1000 100"><style>
.stroke_order_diagram--outer_container {
  width: 100%;
  overflow-x: auto;
  overflow-y: hidden;
}

.stroke_order_diagram--guide_line {
  fill: none;
  stroke: #ddd;
  stroke-width: 3;
  stroke-linecap: square;
  stroke-linejoin: square;
  stroke-dasharray:8, 8;
}

.stroke_order_diagram--bounding_box {
  fill: none;
  stroke: #ddd;
  stroke-width: 4;
  stroke-linecap: square;
  stroke-linejoin: square;
}

.stroke_order_diagram--current_path {
  fill: none;
  stroke: #000;
  stroke-width: 6;
  stroke-linecap: round;
  stroke-linejoin: round;
}

.stroke_order_diagram--existing_path {
  fill: none;
  stroke: #aaa;
  stroke-width: 6;
  stroke-linecap: round;
  stroke-linejoin:round;
}

.stroke_order_diagram--path_start {
  fill: rgba(255, 0, 0, 0.7);
  stroke:none
}</style><desc>Created with Snap</desc><defs></defs><line x1="1" x2="999" y1="1" y2="1" class="stroke_order_diagram--bounding_box"></line><line x1="1" x2="1" y1="1" y2="99" class="stroke_order_diagram--bounding_box"></line><line x1="1" x2="999" y1="99" y2="99" class="stroke_order_diagram--bounding_box"></line><line x1="0" x2="1000" y1="50" y2="50" class="stroke_order_diagram--guide_line"></line><line x1="50" x2="50" y1="1" y2="99" class="stroke_order_diagram--guide_line"></line><line x1="99" x2="99" y1="1" y2="99" class="stroke_order_diagram--bounding_box"></line><path id="kvg:05cf6-s1" kvg:type="㇒" d="M52.96,9.68c0.1,0.69-0.01,1.33-0.32,1.94c-1.24,2.86-4.42,6.01-9.65,10.95" transform="matrix(1,0,0,1,-4,-4)" class="stroke_order_diagram--current_path"></path><path id="pathSk2v596cnlss" kvg:type="㇒" d="M52.96,9.68c0.1,0.69-0.01,1.33-0.32,1.94c-1.24,2.86-4.42,6.01-9.65,10.95" transform="matrix(1,0,0,1,-4,-4)" class="stroke_order_diagram--current_path"></path><circle cx="52.96" cy="9.68" r="8" class="stroke_order_diagram--path_start" transform="matrix(1,0,0,1,-4,-4)"></circle><line x1="150" x2="150" y1="1" y2="99" class="stroke_order_diagram--guide_line"></line><line x1="199" x2="199" y1="1" y2="99" class="stroke_order_diagram--bounding_box"></line><path id="pathSk2v596cnlsv" kvg:type="㇒" d="M52.96,9.68c0.1,0.69-0.01,1.33-0.32,1.94c-1.24,2.86-4.42,6.01-9.65,10.95" transform="matrix(1,0,0,1,96,-4)" class="stroke_order_diagram--existing_path"></path><path id="kvg:05cf6-s2" kvg:type="㇑" d="M34.63,23.65c0.8,0.8,1.32,2.1,1.32,3.81c0,6.57-0.17,25.1-0.21,37.3c-0.01,2.04-0.01,3.92-0.01,5.53" transform="matrix(1,0,0,1,96,-4)" class="stroke_order_diagram--current_path"></path><path id="pathSk2v596cnlsx" kvg:type="㇑" d="M34.63,23.65c0.8,0.8,1.32,2.1,1.32,3.81c0,6.57-0.17,25.1-0.21,37.3c-0.01,2.04-0.01,3.92-0.01,5.53" transform="matrix(1,0,0,1,96,-4)" class="stroke_order_diagram--current_path"></path><circle cx="34.63" cy="23.65" r="8" class="stroke_order_diagram--path_start" transform="matrix(1,0,0,1,96,-4)"></circle><line x1="250" x2="250" y1="1" y2="99" class="stroke_order_diagram--guide_line"></line><line x1="299" x2="299" y1="1" y2="99" class="stroke_order_diagram--bounding_box"></line><path id="pathSk2v596cnlt0" kvg:type="㇒" d="M52.96,9.68c0.1,0.69-0.01,1.33-0.32,1.94c-1.24,2.86-4.42,6.01-9.65,10.95" transform="matrix(1,0,0,1,196,-4)" class="stroke_order_diagram--existing_path"></path><path id="pathSk2v596cnlt1" kvg:type="㇑" d="M34.63,23.65c0.8,0.8,1.32,2.1,1.32,3.81c0,6.57-0.17,25.1-0.21,37.3c-0.01,2.04-0.01,3.92-0.01,5.53" transform="matrix(1,0,0,1,196,-4)" class="stroke_order_diagram--existing_path"></path><path id="kvg:05cf6-s3" kvg:type="㇕a" d="M36.77,26.05c7.48-1.55,23.86-4.43,31.67-5.25c2.88-0.3,4.68,1.63,4.1,4.49c-0.56,2.76-2.21,10.46-3.75,17.07c-0.27,1.15-0.54,2.27-1.04,3.83" transform="matrix(1,0,0,1,196,-4)" class="stroke_order_diagram--current_path"></path><path id="pathSk2v596cnlt3" kvg:type="㇕a" d="M36.77,26.05c7.48-1.55,23.86-4.43,31.67-5.25c2.88-0.3,4.68,1.63,4.1,4.49c-0.56,2.76-2.21,10.46-3.75,17.07c-0.27,1.15-0.54,2.27-1.04,3.83" transform="matrix(1,0,0,1,196,-4)" class="stroke_order_diagram--current_path"></path><circle cx="36.77" cy="26.05" r="8" class="stroke_order_diagram--path_start" transform="matrix(1,0,0,1,196,-4)"></circle><line x1="350" x2="350" y1="1" y2="99" class="stroke_order_diagram--guide_line"></line><line x1="399" x2="399" y1="1" y2="99" class="stroke_order_diagram--bounding_box"></line><path id="pathSk2v596cnlt6" kvg:type="㇒" d="M52.96,9.68c0.1,0.69-0.01,1.33-0.32,1.94c-1.24,2.86-4.42,6.01-9.65,10.95" transform="matrix(1,0,0,1,296,-4)" class="stroke_order_diagram--existing_path"></path><path id="pathSk2v596cnlt7" kvg:type="㇑" d="M34.63,23.65c0.8,0.8,1.32,2.1,1.32,3.81c0,6.57-0.17,25.1-0.21,37.3c-0.01,2.04-0.01,3.92-0.01,5.53" transform="matrix(1,0,0,1,296,-4)" class="stroke_order_diagram--existing_path"></path><path id="pathSk2v596cnlt8" kvg:type="㇕a" d="M36.77,26.05c7.48-1.55,23.86-4.43,31.67-5.25c2.88-0.3,4.68,1.63,4.1,4.49c-0.56,2.76-2.21,10.46-3.75,17.07c-0.27,1.15-0.54,2.27-1.04,3.83" transform="matrix(1,0,0,1,296,-4)" class="stroke_order_diagram--existing_path"></path><path id="kvg:05cf6-s4" kvg:type="㇐a" d="M36.86,36.33c11.14-1.7,24.77-3.45,33.12-3.9" transform="matrix(1,0,0,1,296,-4)" class="stroke_order_diagram--current_path"></path><path id="pathSk2v596cnlta" kvg:type="㇐a" d="M36.86,36.33c11.14-1.7,24.77-3.45,33.12-3.9" transform="matrix(1,0,0,1,296,-4)" class="stroke_order_diagram--current_path"></path><circle cx="36.86" cy="36.33" r="8" class="stroke_order_diagram--path_start" transform="matrix(1,0,0,1,296,-4)"></circle><line x1="450" x2="450" y1="1" y2="99" class="stroke_order_diagram--guide_line"></line><line x1="499" x2="499" y1="1" y2="99" class="stroke_order_diagram--bounding_box"></line><path id="pathSk2v596cnltd" kvg:type="㇒" d="M52.96,9.68c0.1,0.69-0.01,1.33-0.32,1.94c-1.24,2.86-4.42,6.01-9.65,10.95" transform="matrix(1,0,0,1,396,-4)" class="stroke_order_diagram--existing_path"></path><path id="pathSk2v596cnlte" kvg:type="㇑" d="M34.63,23.65c0.8,0.8,1.32,2.1,1.32,3.81c0,6.57-0.17,25.1-0.21,37.3c-0.01,2.04-0.01,3.92-0.01,5.53" transform="matrix(1,0,0,1,396,-4)" class="stroke_order_diagram--existing_path"></path><path id="pathSk2v596cnltf" kvg:type="㇕a" d="M36.77,26.05c7.48-1.55,23.86-4.43,31.67-5.25c2.88-0.3,4.68,1.63,4.1,4.49c-0.56,2.76-2.21,10.46-3.75,17.07c-0.27,1.15-0.54,2.27-1.04,3.83" transform="matrix(1,0,0,1,396,-4)" class="stroke_order_diagram--existing_path"></path><path id="pathSk2v596cnltg" kvg:type="㇐a" d="M36.86,36.33c11.14-1.7,24.77-3.45,33.12-3.9" transform="matrix(1,0,0,1,396,-4)" class="stroke_order_diagram--existing_path"></path><path id="kvg:05cf6-s5" kvg:type="㇐a" d="M36.99,47.73c9.14-1.36,22.89-2.98,30.23-3.47" transform="matrix(1,0,0,1,396,-4)" class="stroke_order_diagram--current_path"></path><path id="pathSk2v596cnlti" kvg:type="㇐a" d="M36.99,47.73c9.14-1.36,22.89-2.98,30.23-3.47" transform="matrix(1,0,0,1,396,-4)" class="stroke_order_diagram--current_path"></path><circle cx="36.99" cy="47.73" r="8" class="stroke_order_diagram--path_start" transform="matrix(1,0,0,1,396,-4)"></circle><line x1="550" x2="550" y1="1" y2="99" class="stroke_order_diagram--guide_line"></line><line x1="599" x2="599" y1="1" y2="99" class="stroke_order_diagram--bounding_box"></line><path id="pathSk2v596cnltl" kvg:type="㇒" d="M52.96,9.68c0.1,0.69-0.01,1.33-0.32,1.94c-1.24,2.86-4.42,6.01-9.65,10.95" transform="matrix(1,0,0,1,496,-4)" class="stroke_order_diagram--existing_path"></path><path id="pathSk2v596cnltm" kvg:type="㇑" d="M34.63,23.65c0.8,0.8,1.32,2.1,1.32,3.81c0,6.57-0.17,25.1-0.21,37.3c-0.01,2.04-0.01,3.92-0.01,5.53" transform="matrix(1,0,0,1,496,-4)" class="stroke_order_diagram--existing_path"></path><path id="pathSk2v596cnltn" kvg:type="㇕a" d="M36.77,26.05c7.48-1.55,23.86-4.43,31.67-5.25c2.88-0.3,4.68,1.63,4.1,4.49c-0.56,2.76-2.21,10.46-3.75,17.07c-0.27,1.15-0.54,2.27-1.04,3.83" transform="matrix(1,0,0,1,496,-4)" class="stroke_order_diagram--existing_path"></path><path id="pathSk2v596cnlto" kvg:type="㇐a" d="M36.86,36.33c11.14-1.7,24.77-3.45,33.12-3.9" transform="matrix(1,0,0,1,496,-4)" class="stroke_order_diagram--existing_path"></path><path id="pathSk2v596cnltp" kvg:type="㇐a" d="M36.99,47.73c9.14-1.36,22.89-2.98,30.23-3.47" transform="matrix(1,0,0,1,496,-4)" class="stroke_order_diagram--existing_path"></path><path id="kvg:05cf6-s6" kvg:type="㇐b" d="M37.03,58.56c11.22-1.31,35.09-4.06,42.22-5.08c2.24-0.32,5.25-0.36,7.13-0.35" transform="matrix(1,0,0,1,496,-4)" class="stroke_order_diagram--current_path"></path><path id="pathSk2v596cnltr" kvg:type="㇐b" d="M37.03,58.56c11.22-1.31,35.09-4.06,42.22-5.08c2.24-0.32,5.25-0.36,7.13-0.35" transform="matrix(1,0,0,1,496,-4)" class="stroke_order_diagram--current_path"></path><circle cx="37.03" cy="58.56" r="8" class="stroke_order_diagram--path_start" transform="matrix(1,0,0,1,496,-4)"></circle><line x1="650" x2="650" y1="1" y2="99" class="stroke_order_diagram--guide_line"></line><line x1="699" x2="699" y1="1" y2="99" class="stroke_order_diagram--bounding_box"></line><path id="pathSk2v596cnltu" kvg:type="㇒" d="M52.96,9.68c0.1,0.69-0.01,1.33-0.32,1.94c-1.24,2.86-4.42,6.01-9.65,10.95" transform="matrix(1,0,0,1,596,-4)" class="stroke_order_diagram--existing_path"></path><path id="pathSk2v596cnltv" kvg:type="㇑" d="M34.63,23.65c0.8,0.8,1.32,2.1,1.32,3.81c0,6.57-0.17,25.1-0.21,37.3c-0.01,2.04-0.01,3.92-0.01,5.53" transform="matrix(1,0,0,1,596,-4)" class="stroke_order_diagram--existing_path"></path><path id="pathSk2v596cnltw" kvg:type="㇕a" d="M36.77,26.05c7.48-1.55,23.86-4.43,31.67-5.25c2.88-0.3,4.68,1.63,4.1,4.49c-0.56,2.76-2.21,10.46-3.75,17.07c-0.27,1.15-0.54,2.27-1.04,3.83" transform="matrix(1,0,0,1,596,-4)" class="stroke_order_diagram--existing_path"></path><path id="pathSk2v596cnltx" kvg:type="㇐a" d="M36.86,36.33c11.14-1.7,24.77-3.45,33.12-3.9" transform="matrix(1,0,0,1,596,-4)" class="stroke_order_diagram--existing_path"></path><path id="pathSk2v596cnlty" kvg:type="㇐a" d="M36.99,47.73c9.14-1.36,22.89-2.98,30.23-3.47" transform="matrix(1,0,0,1,596,-4)" class="stroke_order_diagram--existing_path"></path><path id="pathSk2v596cnltz" kvg:type="㇐b" d="M37.03,58.56c11.22-1.31,35.09-4.06,42.22-5.08c2.24-0.32,5.25-0.36,7.13-0.35" transform="matrix(1,0,0,1,596,-4)" class="stroke_order_diagram--existing_path"></path><path id="kvg:05cf6-s7" kvg:type="㇆a" d="M36.73,69.99c15.77-2.24,35.41-4.4,49.02-5.69c5.75-0.55,7.12,0.95,6,5.78c-2.23,9.56-6.25,18.11-10,24.15c-3.75,6.02-6.25,3.4-9.5,0.25" transform="matrix(1,0,0,1,596,-4)" class="stroke_order_diagram--current_path"></path><path id="pathSk2v596cnlu1" kvg:type="㇆a" d="M36.73,69.99c15.77-2.24,35.41-4.4,49.02-5.69c5.75-0.55,7.12,0.95,6,5.78c-2.23,9.56-6.25,18.11-10,24.15c-3.75,6.02-6.25,3.4-9.5,0.25" transform="matrix(1,0,0,1,596,-4)" class="stroke_order_diagram--current_path"></path><circle cx="36.73" cy="69.99" r="8" class="stroke_order_diagram--path_start" transform="matrix(1,0,0,1,596,-4)"></circle><line x1="750" x2="750" y1="1" y2="99" class="stroke_order_diagram--guide_line"></line><line x1="799" x2="799" y1="1" y2="99" class="stroke_order_diagram--bounding_box"></line><path id="pathSk2v596cnlu4" kvg:type="㇒" d="M52.96,9.68c0.1,0.69-0.01,1.33-0.32,1.94c-1.24,2.86-4.42,6.01-9.65,10.95" transform="matrix(1,0,0,1,696,-4)" class="stroke_order_diagram--existing_path"></path><path id="pathSk2v596cnlu5" kvg:type="㇑" d="M34.63,23.65c0.8,0.8,1.32,2.1,1.32,3.81c0,6.57-0.17,25.1-0.21,37.3c-0.01,2.04-0.01,3.92-0.01,5.53" transform="matrix(1,0,0,1,696,-4)" class="stroke_order_diagram--existing_path"></path><path id="pathSk2v596cnlu6" kvg:type="㇕a" d="M36.77,26.05c7.48-1.55,23.86-4.43,31.67-5.25c2.88-0.3,4.68,1.63,4.1,4.49c-0.56,2.76-2.21,10.46-3.75,17.07c-0.27,1.15-0.54,2.27-1.04,3.83" transform="matrix(1,0,0,1,696,-4)" class="stroke_order_diagram--existing_path"></path><path id="pathSk2v596cnlu7" kvg:type="㇐a" d="M36.86,36.33c11.14-1.7,24.77-3.45,33.12-3.9" transform="matrix(1,0,0,1,696,-4)" class="stroke_order_diagram--existing_path"></path><path id="pathSk2v596cnlu8" kvg:type="㇐a" d="M36.99,47.73c9.14-1.36,22.89-2.98,30.23-3.47" transform="matrix(1,0,0,1,696,-4)" class="stroke_order_diagram--existing_path"></path><path id="pathSk2v596cnlu9" kvg:type="㇐b" d="M37.03,58.56c11.22-1.31,35.09-4.06,42.22-5.08c2.24-0.32,5.25-0.36,7.13-0.35" transform="matrix(1,0,0,1,696,-4)" class="stroke_order_diagram--existing_path"></path><path id="pathSk2v596cnlua" kvg:type="㇆a" d="M36.73,69.99c15.77-2.24,35.41-4.4,49.02-5.69c5.75-0.55,7.12,0.95,6,5.78c-2.23,9.56-6.25,18.11-10,24.15c-3.75,6.02-6.25,3.4-9.5,0.25" transform="matrix(1,0,0,1,696,-4)" class="stroke_order_diagram--existing_path"></path><path id="kvg:05cf6-s8" kvg:type="㇑a" d="M45.9,71.5c0.86,0.86,1.4,1.88,1.4,3.05c0,2.7-0.16,6.7-0.16,11.09" transform="matrix(1,0,0,1,696,-4)" class="stroke_order_diagram--current_path"></path><path id="pathSk2v596cnluc" kvg:type="㇑a" d="M45.9,71.5c0.86,0.86,1.4,1.88,1.4,3.05c0,2.7-0.16,6.7-0.16,11.09" transform="matrix(1,0,0,1,696,-4)" class="stroke_order_diagram--current_path"></path><circle cx="45.9" cy="71.5" r="8" class="stroke_order_diagram--path_start" transform="matrix(1,0,0,1,696,-4)"></circle><line x1="850" x2="850" y1="1" y2="99" class="stroke_order_diagram--guide_line"></line><line x1="899" x2="899" y1="1" y2="99" class="stroke_order_diagram--bounding_box"></line><path id="pathSk2v596cnluf" kvg:type="㇒" d="M52.96,9.68c0.1,0.69-0.01,1.33-0.32,1.94c-1.24,2.86-4.42,6.01-9.65,10.95" transform="matrix(1,0,0,1,796,-4)" class="stroke_order_diagram--existing_path"></path><path id="pathSk2v596cnlug" kvg:type="㇑" d="M34.63,23.65c0.8,0.8,1.32,2.1,1.32,3.81c0,6.57-0.17,25.1-0.21,37.3c-0.01,2.04-0.01,3.92-0.01,5.53" transform="matrix(1,0,0,1,796,-4)" class="stroke_order_diagram--existing_path"></path><path id="pathSk2v596cnluh" kvg:type="㇕a" d="M36.77,26.05c7.48-1.55,23.86-4.43,31.67-5.25c2.88-0.3,4.68,1.63,4.1,4.49c-0.56,2.76-2.21,10.46-3.75,17.07c-0.27,1.15-0.54,2.27-1.04,3.83" transform="matrix(1,0,0,1,796,-4)" class="stroke_order_diagram--existing_path"></path><path id="pathSk2v596cnlui" kvg:type="㇐a" d="M36.86,36.33c11.14-1.7,24.77-3.45,33.12-3.9" transform="matrix(1,0,0,1,796,-4)" class="stroke_order_diagram--existing_path"></path><path id="pathSk2v596cnluj" kvg:type="㇐a" d="M36.99,47.73c9.14-1.36,22.89-2.98,30.23-3.47" transform="matrix(1,0,0,1,796,-4)" class="stroke_order_diagram--existing_path"></path><path id="pathSk2v596cnluk" kvg:type="㇐b" d="M37.03,58.56c11.22-1.31,35.09-4.06,42.22-5.08c2.24-0.32,5.25-0.36,7.13-0.35" transform="matrix(1,0,0,1,796,-4)" class="stroke_order_diagram--existing_path"></path><path id="pathSk2v596cnlul" kvg:type="㇆a" d="M36.73,69.99c15.77-2.24,35.41-4.4,49.02-5.69c5.75-0.55,7.12,0.95,6,5.78c-2.23,9.56-6.25,18.11-10,24.15c-3.75,6.02-6.25,3.4-9.5,0.25" transform="matrix(1,0,0,1,796,-4)" class="stroke_order_diagram--existing_path"></path><path id="pathSk2v596cnlum" kvg:type="㇑a" d="M45.9,71.5c0.86,0.86,1.4,1.88,1.4,3.05c0,2.7-0.16,6.7-0.16,11.09" transform="matrix(1,0,0,1,796,-4)" class="stroke_order_diagram--existing_path"></path><path id="kvg:05cf6-s9" kvg:type="㇄a" d="M26.57,77.43c0.81,0.81,1.14,2.31,1,2.89c-0.82,3.31-1.44,5.93-2.05,8.3c-0.34,1.31,0.53,2.29,1.74,1.97c8.38-2.21,30.5-5.84,40.2-5.94" transform="matrix(1,0,0,1,796,-4)" class="stroke_order_diagram--current_path"></path><path id="pathSk2v596cnluo" kvg:type="㇄a" d="M26.57,77.43c0.81,0.81,1.14,2.31,1,2.89c-0.82,3.31-1.44,5.93-2.05,8.3c-0.34,1.31,0.53,2.29,1.74,1.97c8.38-2.21,30.5-5.84,40.2-5.94" transform="matrix(1,0,0,1,796,-4)" class="stroke_order_diagram--current_path"></path><circle cx="26.57" cy="77.43" r="8" class="stroke_order_diagram--path_start" transform="matrix(1,0,0,1,796,-4)"></circle><line x1="950" x2="950" y1="1" y2="99" class="stroke_order_diagram--guide_line"></line><line x1="999" x2="999" y1="1" y2="99" class="stroke_order_diagram--bounding_box"></line><path id="pathSk2v596cnlur" kvg:type="㇒" d="M52.96,9.68c0.1,0.69-0.01,1.33-0.32,1.94c-1.24,2.86-4.42,6.01-9.65,10.95" transform="matrix(1,0,0,1,896,-4)" class="stroke_order_diagram--existing_path"></path><path id="pathSk2v596cnlus" kvg:type="㇑" d="M34.63,23.65c0.8,0.8,1.32,2.1,1.32,3.81c0,6.57-0.17,25.1-0.21,37.3c-0.01,2.04-0.01,3.92-0.01,5.53" transform="matrix(1,0,0,1,896,-4)" class="stroke_order_diagram--existing_path"></path><path id="pathSk2v596cnlut" kvg:type="㇕a" d="M36.77,26.05c7.48-1.55,23.86-4.43,31.67-5.25c2.88-0.3,4.68,1.63,4.1,4.49c-0.56,2.76-2.21,10.46-3.75,17.07c-0.27,1.15-0.54,2.27-1.04,3.83" transform="matrix(1,0,0,1,896,-4)" class="stroke_order_diagram--existing_path"></path><path id="pathSk2v596cnluu" kvg:type="㇐a" d="M36.86,36.33c11.14-1.7,24.77-3.45,33.12-3.9" transform="matrix(1,0,0,1,896,-4)" class="stroke_order_diagram--existing_path"></path><path id="pathSk2v596cnluv" kvg:type="㇐a" d="M36.99,47.73c9.14-1.36,22.89-2.98,30.23-3.47" transform="matrix(1,0,0,1,896,-4)" class="stroke_order_diagram--existing_path"></path><path id="pathSk2v596cnluw" kvg:type="㇐b" d="M37.03,58.56c11.22-1.31,35.09-4.06,42.22-5.08c2.24-0.32,5.25-0.36,7.13-0.35" transform="matrix(1,0,0,1,896,-4)" class="stroke_order_diagram--existing_path"></path><path id="pathSk2v596cnlux" kvg:type="㇆a" d="M36.73,69.99c15.77-2.24,35.41-4.4,49.02-5.69c5.75-0.55,7.12,0.95,6,5.78c-2.23,9.56-6.25,18.11-10,24.15c-3.75,6.02-6.25,3.4-9.5,0.25" transform="matrix(1,0,0,1,896,-4)" class="stroke_order_diagram--existing_path"></path><path id="pathSk2v596cnluy" kvg:type="㇑a" d="M45.9,71.5c0.86,0.86,1.4,1.88,1.4,3.05c0,2.7-0.16,6.7-0.16,11.09" transform="matrix(1,0,0,1,896,-4)" class="stroke_order_diagram--existing_path"></path><path id="pathSk2v596cnluz" kvg:type="㇄a" d="M26.57,77.43c0.81,0.81,1.14,2.31,1,2.89c-0.82,3.31-1.44,5.93-2.05,8.3c-0.34,1.31,0.53,2.29,1.74,1.97c8.38-2.21,30.5-5.84,40.2-5.94" transform="matrix(1,0,0,1,896,-4)" class="stroke_order_diagram--existing_path"></path><path id="kvg:05cf6-s10" kvg:type="㇑" d="M69.68,71.56c0.75,0.75,0.85,1.96,0.75,2.55c-0.68,3.85-1.24,6.07-2.24,11.15c-0.17,0.89-0.36,1.85-0.57,2.92" transform="matrix(1,0,0,1,896,-4)" class="stroke_order_diagram--current_path"></path><path id="pathSk2v596cnlv1" kvg:type="㇑" d="M69.68,71.56c0.75,0.75,0.85,1.96,0.75,2.55c-0.68,3.85-1.24,6.07-2.24,11.15c-0.17,0.89-0.36,1.85-0.57,2.92" transform="matrix(1,0,0,1,896,-4)" class="stroke_order_diagram--current_path"></path><circle cx="69.68" cy="71.56" r="8" class="stroke_order_diagram--path_start" transform="matrix(1,0,0,1,896,-4)"></circle></svg>