<svg style="width: 900px; height: 100px;" viewbox="0 0 900 100"><style>
.stroke_order_diagram--outer_container {
  width: 100%;
  overflow-x: auto;
  overflow-y: hidden;
}

.stroke_order_diagram--guide_line {
  fill: none;
  stroke: #ddd;
  stroke-width: 3;
  stroke-linecap: square;
  stroke-linejoin: square;
  stroke-dasharray:8, 8;
}

.stroke_order_diagram--bounding_box {
  fill: none;
  stroke: #ddd;
  stroke-width: 4;
  stroke-linecap: square;
  stroke-linejoin: square;
}

.stroke_order_diagram--current_path {
  fill: none;
  stroke: #000;
  stroke-width: 6;
  stroke-linecap: round;
  stroke-linejoin: round;
}

.stroke_order_diagram--existing_path {
  fill: none;
  stroke: #aaa;
  stroke-width: 6;
  stroke-linecap: round;
  stroke-linejoin:round;
}

.stroke_order_diagram--path_start {
  fill: rgba(255, 0, 0, 0.7);
  stroke:none
}</style><desc>Created with Snap</desc><defs></defs><line x1="1" x2="899" y1="1" y2="1" class="stroke_order_diagram--bounding_box"></line><line x1="1" x2="1" y1="1" y2="99" class="stroke_order_diagram--bounding_box"></line><line x1="1" x2="899" y1="99" y2="99" class="stroke_order_diagram--bounding_box"></line><line x1="0" x2="900" y1="50" y2="50" class="stroke_order_diagram--guide_line"></line><line x1="50" x2="50" y1="1" y2="99" class="stroke_order_diagram--guide_line"></line><line x1="99" x2="99" y1="1" y2="99" class="stroke_order_diagram--bounding_box"></line><path id="kvg:05dfb-s1" kvg:type="㇔" d="M30.02,16.83c3.37,2.1,8.2,8.12,9.04,11.38" transform="matrix(1,0,0,1,-4,-4)" class="stroke_order_diagram--current_path"></path><path id="pathSk2v596cn1n6q" kvg:type="㇔" d="M30.02,16.83c3.37,2.1,8.2,8.12,9.04,11.38" transform="matrix(1,0,0,1,-4,-4)" class="stroke_order_diagram--current_path"></path><circle cx="30.02" cy="16.83" r="8" class="stroke_order_diagram--path_start" transform="matrix(1,0,0,1,-4,-4)"></circle><line x1="150" x2="150" y1="1" y2="99" class="stroke_order_diagram--guide_line"></line><line x1="199" x2="199" y1="1" y2="99" class="stroke_order_diagram--bounding_box"></line><path id="pathSk2v596cn1n6t" kvg:type="㇔" d="M30.02,16.83c3.37,2.1,8.2,8.12,9.04,11.38" transform="matrix(1,0,0,1,96,-4)" class="stroke_order_diagram--existing_path"></path><path id="kvg:05dfb-s2" kvg:type="㇒" d="M72.77,12.89c0.11,0.95,0.14,1.93-0.33,2.74c-2.19,3.74-5.95,9.16-11.88,15.58" transform="matrix(1,0,0,1,96,-4)" class="stroke_order_diagram--current_path"></path><path id="pathSk2v596cn1n6v" kvg:type="㇒" d="M72.77,12.89c0.11,0.95,0.14,1.93-0.33,2.74c-2.19,3.74-5.95,9.16-11.88,15.58" transform="matrix(1,0,0,1,96,-4)" class="stroke_order_diagram--current_path"></path><circle cx="72.77" cy="12.89" r="8" class="stroke_order_diagram--path_start" transform="matrix(1,0,0,1,96,-4)"></circle><line x1="250" x2="250" y1="1" y2="99" class="stroke_order_diagram--guide_line"></line><line x1="299" x2="299" y1="1" y2="99" class="stroke_order_diagram--bounding_box"></line><path id="pathSk2v596cn1n6y" kvg:type="㇔" d="M30.02,16.83c3.37,2.1,8.2,8.12,9.04,11.38" transform="matrix(1,0,0,1,196,-4)" class="stroke_order_diagram--existing_path"></path><path id="pathSk2v596cn1n6z" kvg:type="㇒" d="M72.77,12.89c0.11,0.95,0.14,1.93-0.33,2.74c-2.19,3.74-5.95,9.16-11.88,15.58" transform="matrix(1,0,0,1,196,-4)" class="stroke_order_diagram--existing_path"></path><path id="kvg:05dfb-s3" kvg:type="㇐" d="M28,37.39c2.5,0.49,4.26,0.36,6.26,0.06c8.86-1.33,25.25-3.73,33.98-4.56c2.22-0.21,4.33-0.41,6.51,0.12" transform="matrix(1,0,0,1,196,-4)" class="stroke_order_diagram--current_path"></path><path id="pathSk2v596cn1n71" kvg:type="㇐" d="M28,37.39c2.5,0.49,4.26,0.36,6.26,0.06c8.86-1.33,25.25-3.73,33.98-4.56c2.22-0.21,4.33-0.41,6.51,0.12" transform="matrix(1,0,0,1,196,-4)" class="stroke_order_diagram--current_path"></path><circle cx="28" cy="37.39" r="8" class="stroke_order_diagram--path_start" transform="matrix(1,0,0,1,196,-4)"></circle><line x1="350" x2="350" y1="1" y2="99" class="stroke_order_diagram--guide_line"></line><line x1="399" x2="399" y1="1" y2="99" class="stroke_order_diagram--bounding_box"></line><path id="pathSk2v596cn1n74" kvg:type="㇔" d="M30.02,16.83c3.37,2.1,8.2,8.12,9.04,11.38" transform="matrix(1,0,0,1,296,-4)" class="stroke_order_diagram--existing_path"></path><path id="pathSk2v596cn1n75" kvg:type="㇒" d="M72.77,12.89c0.11,0.95,0.14,1.93-0.33,2.74c-2.19,3.74-5.95,9.16-11.88,15.58" transform="matrix(1,0,0,1,296,-4)" class="stroke_order_diagram--existing_path"></path><path id="pathSk2v596cn1n76" kvg:type="㇐" d="M28,37.39c2.5,0.49,4.26,0.36,6.26,0.06c8.86-1.33,25.25-3.73,33.98-4.56c2.22-0.21,4.33-0.41,6.51,0.12" transform="matrix(1,0,0,1,296,-4)" class="stroke_order_diagram--existing_path"></path><path id="kvg:05dfb-s4" kvg:type="㇐" d="M15.25,52.7c2.97,1.06,6.92,0.69,10.01,0.35c11.8-1.31,39.9-4.57,55.49-5.37c3.27-0.17,6.52-0.32,9.75,0.37" transform="matrix(1,0,0,1,296,-4)" class="stroke_order_diagram--current_path"></path><path id="pathSk2v596cn1n78" kvg:type="㇐" d="M15.25,52.7c2.97,1.06,6.92,0.69,10.01,0.35c11.8-1.31,39.9-4.57,55.49-5.37c3.27-0.17,6.52-0.32,9.75,0.37" transform="matrix(1,0,0,1,296,-4)" class="stroke_order_diagram--current_path"></path><circle cx="15.25" cy="52.7" r="8" class="stroke_order_diagram--path_start" transform="matrix(1,0,0,1,296,-4)"></circle><line x1="450" x2="450" y1="1" y2="99" class="stroke_order_diagram--guide_line"></line><line x1="499" x2="499" y1="1" y2="99" class="stroke_order_diagram--bounding_box"></line><path id="pathSk2v596cn1n7b" kvg:type="㇔" d="M30.02,16.83c3.37,2.1,8.2,8.12,9.04,11.38" transform="matrix(1,0,0,1,396,-4)" class="stroke_order_diagram--existing_path"></path><path id="pathSk2v596cn1n7c" kvg:type="㇒" d="M72.77,12.89c0.11,0.95,0.14,1.93-0.33,2.74c-2.19,3.74-5.95,9.16-11.88,15.58" transform="matrix(1,0,0,1,396,-4)" class="stroke_order_diagram--existing_path"></path><path id="pathSk2v596cn1n7d" kvg:type="㇐" d="M28,37.39c2.5,0.49,4.26,0.36,6.26,0.06c8.86-1.33,25.25-3.73,33.98-4.56c2.22-0.21,4.33-0.41,6.51,0.12" transform="matrix(1,0,0,1,396,-4)" class="stroke_order_diagram--existing_path"></path><path id="pathSk2v596cn1n7e" kvg:type="㇐" d="M15.25,52.7c2.97,1.06,6.92,0.69,10.01,0.35c11.8-1.31,39.9-4.57,55.49-5.37c3.27-0.17,6.52-0.32,9.75,0.37" transform="matrix(1,0,0,1,396,-4)" class="stroke_order_diagram--existing_path"></path><path id="kvg:05dfb-s5" kvg:type="㇒" d="M52.5,10.5c0.37,1.25,0.62,2.38,0.29,3.97C50.02,27.7,41.5,63,14.75,76.5" transform="matrix(1,0,0,1,396,-4)" class="stroke_order_diagram--current_path"></path><path id="pathSk2v596cn1n7g" kvg:type="㇒" d="M52.5,10.5c0.37,1.25,0.62,2.38,0.29,3.97C50.02,27.7,41.5,63,14.75,76.5" transform="matrix(1,0,0,1,396,-4)" class="stroke_order_diagram--current_path"></path><circle cx="52.5" cy="10.5" r="8" class="stroke_order_diagram--path_start" transform="matrix(1,0,0,1,396,-4)"></circle><line x1="550" x2="550" y1="1" y2="99" class="stroke_order_diagram--guide_line"></line><line x1="599" x2="599" y1="1" y2="99" class="stroke_order_diagram--bounding_box"></line><path id="pathSk2v596cn1n7j" kvg:type="㇔" d="M30.02,16.83c3.37,2.1,8.2,8.12,9.04,11.38" transform="matrix(1,0,0,1,496,-4)" class="stroke_order_diagram--existing_path"></path><path id="pathSk2v596cn1n7k" kvg:type="㇒" d="M72.77,12.89c0.11,0.95,0.14,1.93-0.33,2.74c-2.19,3.74-5.95,9.16-11.88,15.58" transform="matrix(1,0,0,1,496,-4)" class="stroke_order_diagram--existing_path"></path><path id="pathSk2v596cn1n7l" kvg:type="㇐" d="M28,37.39c2.5,0.49,4.26,0.36,6.26,0.06c8.86-1.33,25.25-3.73,33.98-4.56c2.22-0.21,4.33-0.41,6.51,0.12" transform="matrix(1,0,0,1,496,-4)" class="stroke_order_diagram--existing_path"></path><path id="pathSk2v596cn1n7m" kvg:type="㇐" d="M15.25,52.7c2.97,1.06,6.92,0.69,10.01,0.35c11.8-1.31,39.9-4.57,55.49-5.37c3.27-0.17,6.52-0.32,9.75,0.37" transform="matrix(1,0,0,1,496,-4)" class="stroke_order_diagram--existing_path"></path><path id="pathSk2v596cn1n7n" kvg:type="㇒" d="M52.5,10.5c0.37,1.25,0.62,2.38,0.29,3.97C50.02,27.7,41.5,63,14.75,76.5" transform="matrix(1,0,0,1,496,-4)" class="stroke_order_diagram--existing_path"></path><path id="kvg:05dfb-s6" kvg:type="㇏" d="M54.5,35.5c6.6,7.23,21.19,22.22,29.24,30.02c2.77,2.68,5.64,5.74,9.26,7.23" transform="matrix(1,0,0,1,496,-4)" class="stroke_order_diagram--current_path"></path><path id="pathSk2v596cn1n7p" kvg:type="㇏" d="M54.5,35.5c6.6,7.23,21.19,22.22,29.24,30.02c2.77,2.68,5.64,5.74,9.26,7.23" transform="matrix(1,0,0,1,496,-4)" class="stroke_order_diagram--current_path"></path><circle cx="54.5" cy="35.5" r="8" class="stroke_order_diagram--path_start" transform="matrix(1,0,0,1,496,-4)"></circle><line x1="650" x2="650" y1="1" y2="99" class="stroke_order_diagram--guide_line"></line><line x1="699" x2="699" y1="1" y2="99" class="stroke_order_diagram--bounding_box"></line><path id="pathSk2v596cn1n7s" kvg:type="㇔" d="M30.02,16.83c3.37,2.1,8.2,8.12,9.04,11.38" transform="matrix(1,0,0,1,596,-4)" class="stroke_order_diagram--existing_path"></path><path id="pathSk2v596cn1n7t" kvg:type="㇒" d="M72.77,12.89c0.11,0.95,0.14,1.93-0.33,2.74c-2.19,3.74-5.95,9.16-11.88,15.58" transform="matrix(1,0,0,1,596,-4)" class="stroke_order_diagram--existing_path"></path><path id="pathSk2v596cn1n7u" kvg:type="㇐" d="M28,37.39c2.5,0.49,4.26,0.36,6.26,0.06c8.86-1.33,25.25-3.73,33.98-4.56c2.22-0.21,4.33-0.41,6.51,0.12" transform="matrix(1,0,0,1,596,-4)" class="stroke_order_diagram--existing_path"></path><path id="pathSk2v596cn1n7v" kvg:type="㇐" d="M15.25,52.7c2.97,1.06,6.92,0.69,10.01,0.35c11.8-1.31,39.9-4.57,55.49-5.37c3.27-0.17,6.52-0.32,9.75,0.37" transform="matrix(1,0,0,1,596,-4)" class="stroke_order_diagram--existing_path"></path><path id="pathSk2v596cn1n7w" kvg:type="㇒" d="M52.5,10.5c0.37,1.25,0.62,2.38,0.29,3.97C50.02,27.7,41.5,63,14.75,76.5" transform="matrix(1,0,0,1,596,-4)" class="stroke_order_diagram--existing_path"></path><path id="pathSk2v596cn1n7x" kvg:type="㇏" d="M54.5,35.5c6.6,7.23,21.19,22.22,29.24,30.02c2.77,2.68,5.64,5.74,9.26,7.23" transform="matrix(1,0,0,1,596,-4)" class="stroke_order_diagram--existing_path"></path><path id="kvg:05dfb-s7" kvg:type="㇕c" d="M38.02,66.55c1.11,0.65,2.82,0.66,4.45,0.43c4.57-0.63,16.41-2.73,20.18-3.34c2.37-0.38,3.46,0.4,2.87,2.87c-0.33,1.39-1.06,5.21-1.82,9.08" transform="matrix(1,0,0,1,596,-4)" class="stroke_order_diagram--current_path"></path><path id="pathSk2v596cn1n7z" kvg:type="㇕c" d="M38.02,66.55c1.11,0.65,2.82,0.66,4.45,0.43c4.57-0.63,16.41-2.73,20.18-3.34c2.37-0.38,3.46,0.4,2.87,2.87c-0.33,1.39-1.06,5.21-1.82,9.08" transform="matrix(1,0,0,1,596,-4)" class="stroke_order_diagram--current_path"></path><circle cx="38.02" cy="66.55" r="8" class="stroke_order_diagram--path_start" transform="matrix(1,0,0,1,596,-4)"></circle><line x1="750" x2="750" y1="1" y2="99" class="stroke_order_diagram--guide_line"></line><line x1="799" x2="799" y1="1" y2="99" class="stroke_order_diagram--bounding_box"></line><path id="pathSk2v596cn1n82" kvg:type="㇔" d="M30.02,16.83c3.37,2.1,8.2,8.12,9.04,11.38" transform="matrix(1,0,0,1,696,-4)" class="stroke_order_diagram--existing_path"></path><path id="pathSk2v596cn1n83" kvg:type="㇒" d="M72.77,12.89c0.11,0.95,0.14,1.93-0.33,2.74c-2.19,3.74-5.95,9.16-11.88,15.58" transform="matrix(1,0,0,1,696,-4)" class="stroke_order_diagram--existing_path"></path><path id="pathSk2v596cn1n84" kvg:type="㇐" d="M28,37.39c2.5,0.49,4.26,0.36,6.26,0.06c8.86-1.33,25.25-3.73,33.98-4.56c2.22-0.21,4.33-0.41,6.51,0.12" transform="matrix(1,0,0,1,696,-4)" class="stroke_order_diagram--existing_path"></path><path id="pathSk2v596cn1n85" kvg:type="㇐" d="M15.25,52.7c2.97,1.06,6.92,0.69,10.01,0.35c11.8-1.31,39.9-4.57,55.49-5.37c3.27-0.17,6.52-0.32,9.75,0.37" transform="matrix(1,0,0,1,696,-4)" class="stroke_order_diagram--existing_path"></path><path id="pathSk2v596cn1n86" kvg:type="㇒" d="M52.5,10.5c0.37,1.25,0.62,2.38,0.29,3.97C50.02,27.7,41.5,63,14.75,76.5" transform="matrix(1,0,0,1,696,-4)" class="stroke_order_diagram--existing_path"></path><path id="pathSk2v596cn1n87" kvg:type="㇏" d="M54.5,35.5c6.6,7.23,21.19,22.22,29.24,30.02c2.77,2.68,5.64,5.74,9.26,7.23" transform="matrix(1,0,0,1,696,-4)" class="stroke_order_diagram--existing_path"></path><path id="pathSk2v596cn1n88" kvg:type="㇕c" d="M38.02,66.55c1.11,0.65,2.82,0.66,4.45,0.43c4.57-0.63,16.41-2.73,20.18-3.34c2.37-0.38,3.46,0.4,2.87,2.87c-0.33,1.39-1.06,5.21-1.82,9.08" transform="matrix(1,0,0,1,696,-4)" class="stroke_order_diagram--existing_path"></path><path id="kvg:05dfb-s8" kvg:type="㇐" d="M35.78,78.59c0.84,0.53,2.03,0.83,3.45,0.7c5.94-0.58,15.58-1.74,22.76-2.43c1.23-0.12,2.26-0.24,3.4-0.06" transform="matrix(1,0,0,1,696,-4)" class="stroke_order_diagram--current_path"></path><path id="pathSk2v596cn1n8a" kvg:type="㇐" d="M35.78,78.59c0.84,0.53,2.03,0.83,3.45,0.7c5.94-0.58,15.58-1.74,22.76-2.43c1.23-0.12,2.26-0.24,3.4-0.06" transform="matrix(1,0,0,1,696,-4)" class="stroke_order_diagram--current_path"></path><circle cx="35.78" cy="78.59" r="8" class="stroke_order_diagram--path_start" transform="matrix(1,0,0,1,696,-4)"></circle><line x1="850" x2="850" y1="1" y2="99" class="stroke_order_diagram--guide_line"></line><line x1="899" x2="899" y1="1" y2="99" class="stroke_order_diagram--bounding_box"></line><path id="pathSk2v596cn1n8d" kvg:type="㇔" d="M30.02,16.83c3.37,2.1,8.2,8.12,9.04,11.38" transform="matrix(1,0,0,1,796,-4)" class="stroke_order_diagram--existing_path"></path><path id="pathSk2v596cn1n8e" kvg:type="㇒" d="M72.77,12.89c0.11,0.95,0.14,1.93-0.33,2.74c-2.19,3.74-5.95,9.16-11.88,15.58" transform="matrix(1,0,0,1,796,-4)" class="stroke_order_diagram--existing_path"></path><path id="pathSk2v596cn1n8f" kvg:type="㇐" d="M28,37.39c2.5,0.49,4.26,0.36,6.26,0.06c8.86-1.33,25.25-3.73,33.98-4.56c2.22-0.21,4.33-0.41,6.51,0.12" transform="matrix(1,0,0,1,796,-4)" class="stroke_order_diagram--existing_path"></path><path id="pathSk2v596cn1n8g" kvg:type="㇐" d="M15.25,52.7c2.97,1.06,6.92,0.69,10.01,0.35c11.8-1.31,39.9-4.57,55.49-5.37c3.27-0.17,6.52-0.32,9.75,0.37" transform="matrix(1,0,0,1,796,-4)" class="stroke_order_diagram--existing_path"></path><path id="pathSk2v596cn1n8h" kvg:type="㇒" d="M52.5,10.5c0.37,1.25,0.62,2.38,0.29,3.97C50.02,27.7,41.5,63,14.75,76.5" transform="matrix(1,0,0,1,796,-4)" class="stroke_order_diagram--existing_path"></path><path id="pathSk2v596cn1n8i" kvg:type="㇏" d="M54.5,35.5c6.6,7.23,21.19,22.22,29.24,30.02c2.77,2.68,5.64,5.74,9.26,7.23" transform="matrix(1,0,0,1,796,-4)" class="stroke_order_diagram--existing_path"></path><path id="pathSk2v596cn1n8j" kvg:type="㇕c" d="M38.02,66.55c1.11,0.65,2.82,0.66,4.45,0.43c4.57-0.63,16.41-2.73,20.18-3.34c2.37-0.38,3.46,0.4,2.87,2.87c-0.33,1.39-1.06,5.21-1.82,9.08" transform="matrix(1,0,0,1,796,-4)" class="stroke_order_diagram--existing_path"></path><path id="pathSk2v596cn1n8k" kvg:type="㇐" d="M35.78,78.59c0.84,0.53,2.03,0.83,3.45,0.7c5.94-0.58,15.58-1.74,22.76-2.43c1.23-0.12,2.26-0.24,3.4-0.06" transform="matrix(1,0,0,1,796,-4)" class="stroke_order_diagram--existing_path"></path><path id="kvg:05dfb-s9" kvg:type="㇟" d="M37.12,79.53c0.74,0.74,1.06,1.82,1.05,2.93c-0.02,3.24,0.03,4.7,0.03,7.64c0,7.15,0.67,8.42,17.52,8.42c16.28,0,17.95-1.52,17.95-8.72" transform="matrix(1,0,0,1,796,-4)" class="stroke_order_diagram--current_path"></path><path id="pathSk2v596cn1n8m" kvg:type="㇟" d="M37.12,79.53c0.74,0.74,1.06,1.82,1.05,2.93c-0.02,3.24,0.03,4.7,0.03,7.64c0,7.15,0.67,8.42,17.52,8.42c16.28,0,17.95-1.52,17.95-8.72" transform="matrix(1,0,0,1,796,-4)" class="stroke_order_diagram--current_path"></path><circle cx="37.12" cy="79.53" r="8" class="stroke_order_diagram--path_start" transform="matrix(1,0,0,1,796,-4)"></circle></svg>