<svg style="width: 500px; height: 100px;" viewbox="0 0 500 100"><style>
.stroke_order_diagram--outer_container {
  width: 100%;
  overflow-x: auto;
  overflow-y: hidden;
}

.stroke_order_diagram--guide_line {
  fill: none;
  stroke: #ddd;
  stroke-width: 3;
  stroke-linecap: square;
  stroke-linejoin: square;
  stroke-dasharray:8, 8;
}

.stroke_order_diagram--bounding_box {
  fill: none;
  stroke: #ddd;
  stroke-width: 4;
  stroke-linecap: square;
  stroke-linejoin: square;
}

.stroke_order_diagram--current_path {
  fill: none;
  stroke: #000;
  stroke-width: 6;
  stroke-linecap: round;
  stroke-linejoin: round;
}

.stroke_order_diagram--existing_path {
  fill: none;
  stroke: #aaa;
  stroke-width: 6;
  stroke-linecap: round;
  stroke-linejoin:round;
}

.stroke_order_diagram--path_start {
  fill: rgba(255, 0, 0, 0.7);
  stroke:none
}</style><desc>Created with Snap</desc><defs></defs><line x1="1" x2="499" y1="1" y2="1" class="stroke_order_diagram--bounding_box"></line><line x1="1" x2="1" y1="1" y2="99" class="stroke_order_diagram--bounding_box"></line><line x1="1" x2="499" y1="99" y2="99" class="stroke_order_diagram--bounding_box"></line><line x1="0" x2="500" y1="50" y2="50" class="stroke_order_diagram--guide_line"></line><line x1="50" x2="50" y1="1" y2="99" class="stroke_order_diagram--guide_line"></line><line x1="99" x2="99" y1="1" y2="99" class="stroke_order_diagram--bounding_box"></line><path id="kvg:05e03-s1" kvg:type="㇒" d="M51.65,10.43c0.48,1.45,0.59,2.92,0.04,4.92c-4.19,15.4-14.19,39.4-36.8,56.55" transform="matrix(1,0,0,1,-4,-4)" class="stroke_order_diagram--current_path"></path><path id="pathSk2v596cn1690" kvg:type="㇒" d="M51.65,10.43c0.48,1.45,0.59,2.92,0.04,4.92c-4.19,15.4-14.19,39.4-36.8,56.55" transform="matrix(1,0,0,1,-4,-4)" class="stroke_order_diagram--current_path"></path><circle cx="51.65" cy="10.43" r="8" class="stroke_order_diagram--path_start" transform="matrix(1,0,0,1,-4,-4)"></circle><line x1="150" x2="150" y1="1" y2="99" class="stroke_order_diagram--guide_line"></line><line x1="199" x2="199" y1="1" y2="99" class="stroke_order_diagram--bounding_box"></line><path id="pathSk2v596cn1693" kvg:type="㇒" d="M51.65,10.43c0.48,1.45,0.59,2.92,0.04,4.92c-4.19,15.4-14.19,39.4-36.8,56.55" transform="matrix(1,0,0,1,96,-4)" class="stroke_order_diagram--existing_path"></path><path id="kvg:05e03-s2" kvg:type="㇐" d="M14.25,31.45c2.75,0.55,6.4,0.62,9.24,0.27c16.13-1.97,42.69-4.11,61.89-5.43c3.19-0.22,6.5-0.17,9.62,0.5" transform="matrix(1,0,0,1,96,-4)" class="stroke_order_diagram--current_path"></path><path id="pathSk2v596cn1695" kvg:type="㇐" d="M14.25,31.45c2.75,0.55,6.4,0.62,9.24,0.27c16.13-1.97,42.69-4.11,61.89-5.43c3.19-0.22,6.5-0.17,9.62,0.5" transform="matrix(1,0,0,1,96,-4)" class="stroke_order_diagram--current_path"></path><circle cx="14.25" cy="31.45" r="8" class="stroke_order_diagram--path_start" transform="matrix(1,0,0,1,96,-4)"></circle><line x1="250" x2="250" y1="1" y2="99" class="stroke_order_diagram--guide_line"></line><line x1="299" x2="299" y1="1" y2="99" class="stroke_order_diagram--bounding_box"></line><path id="pathSk2v596cn1698" kvg:type="㇒" d="M51.65,10.43c0.48,1.45,0.59,2.92,0.04,4.92c-4.19,15.4-14.19,39.4-36.8,56.55" transform="matrix(1,0,0,1,196,-4)" class="stroke_order_diagram--existing_path"></path><path id="pathSk2v596cn1699" kvg:type="㇐" d="M14.25,31.45c2.75,0.55,6.4,0.62,9.24,0.27c16.13-1.97,42.69-4.11,61.89-5.43c3.19-0.22,6.5-0.17,9.62,0.5" transform="matrix(1,0,0,1,196,-4)" class="stroke_order_diagram--existing_path"></path><path id="kvg:05e03-s3" kvg:type="㇑" d="M37.25,55.39c0.93,0.93,1.34,2.61,1.34,3.71c0,5.78-0.1,13.4-0.1,23.9c0,2.51-0.06,4.47-0.08,5.39" transform="matrix(1,0,0,1,196,-4)" class="stroke_order_diagram--current_path"></path><path id="pathSk2v596cn169b" kvg:type="㇑" d="M37.25,55.39c0.93,0.93,1.34,2.61,1.34,3.71c0,5.78-0.1,13.4-0.1,23.9c0,2.51-0.06,4.47-0.08,5.39" transform="matrix(1,0,0,1,196,-4)" class="stroke_order_diagram--current_path"></path><circle cx="37.25" cy="55.39" r="8" class="stroke_order_diagram--path_start" transform="matrix(1,0,0,1,196,-4)"></circle><line x1="350" x2="350" y1="1" y2="99" class="stroke_order_diagram--guide_line"></line><line x1="399" x2="399" y1="1" y2="99" class="stroke_order_diagram--bounding_box"></line><path id="pathSk2v596cn169e" kvg:type="㇒" d="M51.65,10.43c0.48,1.45,0.59,2.92,0.04,4.92c-4.19,15.4-14.19,39.4-36.8,56.55" transform="matrix(1,0,0,1,296,-4)" class="stroke_order_diagram--existing_path"></path><path id="pathSk2v596cn169f" kvg:type="㇐" d="M14.25,31.45c2.75,0.55,6.4,0.62,9.24,0.27c16.13-1.97,42.69-4.11,61.89-5.43c3.19-0.22,6.5-0.17,9.62,0.5" transform="matrix(1,0,0,1,296,-4)" class="stroke_order_diagram--existing_path"></path><path id="pathSk2v596cn169g" kvg:type="㇑" d="M37.25,55.39c0.93,0.93,1.34,2.61,1.34,3.71c0,5.78-0.1,13.4-0.1,23.9c0,2.51-0.06,4.47-0.08,5.39" transform="matrix(1,0,0,1,296,-4)" class="stroke_order_diagram--existing_path"></path><path id="kvg:05e03-s4" kvg:type="㇆a" d="M39.09,57.72c7.66-1.22,24.66-3.6,38.38-4.78c4.04-0.35,4.15,2.98,4.1,4.53c-0.31,9.78-0.06,21.15-2.03,28.16c-1.65,5.91-5.13,0.06-6.29-1.13" transform="matrix(1,0,0,1,296,-4)" class="stroke_order_diagram--current_path"></path><path id="pathSk2v596cn169i" kvg:type="㇆a" d="M39.09,57.72c7.66-1.22,24.66-3.6,38.38-4.78c4.04-0.35,4.15,2.98,4.1,4.53c-0.31,9.78-0.06,21.15-2.03,28.16c-1.65,5.91-5.13,0.06-6.29-1.13" transform="matrix(1,0,0,1,296,-4)" class="stroke_order_diagram--current_path"></path><circle cx="39.09" cy="57.72" r="8" class="stroke_order_diagram--path_start" transform="matrix(1,0,0,1,296,-4)"></circle><line x1="450" x2="450" y1="1" y2="99" class="stroke_order_diagram--guide_line"></line><line x1="499" x2="499" y1="1" y2="99" class="stroke_order_diagram--bounding_box"></line><path id="pathSk2v596cn169l" kvg:type="㇒" d="M51.65,10.43c0.48,1.45,0.59,2.92,0.04,4.92c-4.19,15.4-14.19,39.4-36.8,56.55" transform="matrix(1,0,0,1,396,-4)" class="stroke_order_diagram--existing_path"></path><path id="pathSk2v596cn169m" kvg:type="㇐" d="M14.25,31.45c2.75,0.55,6.4,0.62,9.24,0.27c16.13-1.97,42.69-4.11,61.89-5.43c3.19-0.22,6.5-0.17,9.62,0.5" transform="matrix(1,0,0,1,396,-4)" class="stroke_order_diagram--existing_path"></path><path id="pathSk2v596cn169n" kvg:type="㇑" d="M37.25,55.39c0.93,0.93,1.34,2.61,1.34,3.71c0,5.78-0.1,13.4-0.1,23.9c0,2.51-0.06,4.47-0.08,5.39" transform="matrix(1,0,0,1,396,-4)" class="stroke_order_diagram--existing_path"></path><path id="pathSk2v596cn169o" kvg:type="㇆a" d="M39.09,57.72c7.66-1.22,24.66-3.6,38.38-4.78c4.04-0.35,4.15,2.98,4.1,4.53c-0.31,9.78-0.06,21.15-2.03,28.16c-1.65,5.91-5.13,0.06-6.29-1.13" transform="matrix(1,0,0,1,396,-4)" class="stroke_order_diagram--existing_path"></path><path id="kvg:05e03-s5" kvg:type="㇑" d="M57.24,39.63c0.87,0.87,1.34,2.62,1.34,3.71c0,5.78-0.12,31.91-0.12,50.16c0,3.57-0.05,6.09-0.07,6.88" transform="matrix(1,0,0,1,396,-4)" class="stroke_order_diagram--current_path"></path><path id="pathSk2v596cn169q" kvg:type="㇑" d="M57.24,39.63c0.87,0.87,1.34,2.62,1.34,3.71c0,5.78-0.12,31.91-0.12,50.16c0,3.57-0.05,6.09-0.07,6.88" transform="matrix(1,0,0,1,396,-4)" class="stroke_order_diagram--current_path"></path><circle cx="57.24" cy="39.63" r="8" class="stroke_order_diagram--path_start" transform="matrix(1,0,0,1,396,-4)"></circle></svg>