<svg style="width: 500px; height: 100px;" viewbox="0 0 500 100"><style>
.stroke_order_diagram--outer_container {
  width: 100%;
  overflow-x: auto;
  overflow-y: hidden;
}

.stroke_order_diagram--guide_line {
  fill: none;
  stroke: #ddd;
  stroke-width: 3;
  stroke-linecap: square;
  stroke-linejoin: square;
  stroke-dasharray:8, 8;
}

.stroke_order_diagram--bounding_box {
  fill: none;
  stroke: #ddd;
  stroke-width: 4;
  stroke-linecap: square;
  stroke-linejoin: square;
}

.stroke_order_diagram--current_path {
  fill: none;
  stroke: #000;
  stroke-width: 6;
  stroke-linecap: round;
  stroke-linejoin: round;
}

.stroke_order_diagram--existing_path {
  fill: none;
  stroke: #aaa;
  stroke-width: 6;
  stroke-linecap: round;
  stroke-linejoin:round;
}

.stroke_order_diagram--path_start {
  fill: rgba(255, 0, 0, 0.7);
  stroke:none
}</style><desc>Created with Snap</desc><defs></defs><line x1="1" x2="499" y1="1" y2="1" class="stroke_order_diagram--bounding_box"></line><line x1="1" x2="1" y1="1" y2="99" class="stroke_order_diagram--bounding_box"></line><line x1="1" x2="499" y1="99" y2="99" class="stroke_order_diagram--bounding_box"></line><line x1="0" x2="500" y1="50" y2="50" class="stroke_order_diagram--guide_line"></line><line x1="50" x2="50" y1="1" y2="99" class="stroke_order_diagram--guide_line"></line><line x1="99" x2="99" y1="1" y2="99" class="stroke_order_diagram--bounding_box"></line><path id="kvg:05e73-s1" kvg:type="㇐" d="M29.13,18.37c2.25,0.51,6.21,0.08,8.61-0.19c7.9-0.9,23.36-2.62,33.49-3.61c3.04-0.3,6.15-0.55,9.15,0.27" transform="matrix(1,0,0,1,-4,-4)" class="stroke_order_diagram--current_path"></path><path id="pathSk2v596cn2jv" kvg:type="㇐" d="M29.13,18.37c2.25,0.51,6.21,0.08,8.61-0.19c7.9-0.9,23.36-2.62,33.49-3.61c3.04-0.3,6.15-0.55,9.15,0.27" transform="matrix(1,0,0,1,-4,-4)" class="stroke_order_diagram--current_path"></path><circle cx="29.13" cy="18.37" r="8" class="stroke_order_diagram--path_start" transform="matrix(1,0,0,1,-4,-4)"></circle><line x1="150" x2="150" y1="1" y2="99" class="stroke_order_diagram--guide_line"></line><line x1="199" x2="199" y1="1" y2="99" class="stroke_order_diagram--bounding_box"></line><path id="pathSk2v596cn2jy" kvg:type="㇐" d="M29.13,18.37c2.25,0.51,6.21,0.08,8.61-0.19c7.9-0.9,23.36-2.62,33.49-3.61c3.04-0.3,6.15-0.55,9.15,0.27" transform="matrix(1,0,0,1,96,-4)" class="stroke_order_diagram--existing_path"></path><path id="kvg:05e73-s2" kvg:type="㇔" d="M26.75,30.38c4.69,3.83,9.88,11.88,11.06,17.84" transform="matrix(1,0,0,1,96,-4)" class="stroke_order_diagram--current_path"></path><path id="pathSk2v596cn2k0" kvg:type="㇔" d="M26.75,30.38c4.69,3.83,9.88,11.88,11.06,17.84" transform="matrix(1,0,0,1,96,-4)" class="stroke_order_diagram--current_path"></path><circle cx="26.75" cy="30.38" r="8" class="stroke_order_diagram--path_start" transform="matrix(1,0,0,1,96,-4)"></circle><line x1="250" x2="250" y1="1" y2="99" class="stroke_order_diagram--guide_line"></line><line x1="299" x2="299" y1="1" y2="99" class="stroke_order_diagram--bounding_box"></line><path id="pathSk2v596cn2k3" kvg:type="㇐" d="M29.13,18.37c2.25,0.51,6.21,0.08,8.61-0.19c7.9-0.9,23.36-2.62,33.49-3.61c3.04-0.3,6.15-0.55,9.15,0.27" transform="matrix(1,0,0,1,196,-4)" class="stroke_order_diagram--existing_path"></path><path id="pathSk2v596cn2k4" kvg:type="㇔" d="M26.75,30.38c4.69,3.83,9.88,11.88,11.06,17.84" transform="matrix(1,0,0,1,196,-4)" class="stroke_order_diagram--existing_path"></path><path id="kvg:05e73-s3" kvg:type="㇒" d="M80.77,24.64c0.08,1.08,0.09,2.12-0.32,3.13C78.5,32.5,73.5,40.5,67.56,46.47" transform="matrix(1,0,0,1,196,-4)" class="stroke_order_diagram--current_path"></path><path id="pathSk2v596cn2k6" kvg:type="㇒" d="M80.77,24.64c0.08,1.08,0.09,2.12-0.32,3.13C78.5,32.5,73.5,40.5,67.56,46.47" transform="matrix(1,0,0,1,196,-4)" class="stroke_order_diagram--current_path"></path><circle cx="80.77" cy="24.64" r="8" class="stroke_order_diagram--path_start" transform="matrix(1,0,0,1,196,-4)"></circle><line x1="350" x2="350" y1="1" y2="99" class="stroke_order_diagram--guide_line"></line><line x1="399" x2="399" y1="1" y2="99" class="stroke_order_diagram--bounding_box"></line><path id="pathSk2v596cn2k9" kvg:type="㇐" d="M29.13,18.37c2.25,0.51,6.21,0.08,8.61-0.19c7.9-0.9,23.36-2.62,33.49-3.61c3.04-0.3,6.15-0.55,9.15,0.27" transform="matrix(1,0,0,1,296,-4)" class="stroke_order_diagram--existing_path"></path><path id="pathSk2v596cn2ka" kvg:type="㇔" d="M26.75,30.38c4.69,3.83,9.88,11.88,11.06,17.84" transform="matrix(1,0,0,1,296,-4)" class="stroke_order_diagram--existing_path"></path><path id="pathSk2v596cn2kb" kvg:type="㇒" d="M80.77,24.64c0.08,1.08,0.09,2.12-0.32,3.13C78.5,32.5,73.5,40.5,67.56,46.47" transform="matrix(1,0,0,1,296,-4)" class="stroke_order_diagram--existing_path"></path><path id="kvg:05e73-s4" kvg:type="㇐" d="M14.88,61.03c3.5,0.85,7.24,0.89,10.74,0.48c16.14-1.88,44.9-4.12,61.26-4.78c3.28-0.13,6.51-0.29,9.75,0.3" transform="matrix(1,0,0,1,296,-4)" class="stroke_order_diagram--current_path"></path><path id="pathSk2v596cn2kd" kvg:type="㇐" d="M14.88,61.03c3.5,0.85,7.24,0.89,10.74,0.48c16.14-1.88,44.9-4.12,61.26-4.78c3.28-0.13,6.51-0.29,9.75,0.3" transform="matrix(1,0,0,1,296,-4)" class="stroke_order_diagram--current_path"></path><circle cx="14.88" cy="61.03" r="8" class="stroke_order_diagram--path_start" transform="matrix(1,0,0,1,296,-4)"></circle><line x1="450" x2="450" y1="1" y2="99" class="stroke_order_diagram--guide_line"></line><line x1="499" x2="499" y1="1" y2="99" class="stroke_order_diagram--bounding_box"></line><path id="pathSk2v596cn2kg" kvg:type="㇐" d="M29.13,18.37c2.25,0.51,6.21,0.08,8.61-0.19c7.9-0.9,23.36-2.62,33.49-3.61c3.04-0.3,6.15-0.55,9.15,0.27" transform="matrix(1,0,0,1,396,-4)" class="stroke_order_diagram--existing_path"></path><path id="pathSk2v596cn2kh" kvg:type="㇔" d="M26.75,30.38c4.69,3.83,9.88,11.88,11.06,17.84" transform="matrix(1,0,0,1,396,-4)" class="stroke_order_diagram--existing_path"></path><path id="pathSk2v596cn2ki" kvg:type="㇒" d="M80.77,24.64c0.08,1.08,0.09,2.12-0.32,3.13C78.5,32.5,73.5,40.5,67.56,46.47" transform="matrix(1,0,0,1,396,-4)" class="stroke_order_diagram--existing_path"></path><path id="pathSk2v596cn2kj" kvg:type="㇐" d="M14.88,61.03c3.5,0.85,7.24,0.89,10.74,0.48c16.14-1.88,44.9-4.12,61.26-4.78c3.28-0.13,6.51-0.29,9.75,0.3" transform="matrix(1,0,0,1,396,-4)" class="stroke_order_diagram--existing_path"></path><path id="kvg:05e73-s5" kvg:type="㇑" d="M53.31,18.88c1.16,1.16,1.79,3.12,1.79,4.83c0,4.25-0.13,49.44-0.17,68.16c-0.01,3.48-0.01,6.04-0.01,7.26" transform="matrix(1,0,0,1,396,-4)" class="stroke_order_diagram--current_path"></path><path id="pathSk2v596cn2kl" kvg:type="㇑" d="M53.31,18.88c1.16,1.16,1.79,3.12,1.79,4.83c0,4.25-0.13,49.44-0.17,68.16c-0.01,3.48-0.01,6.04-0.01,7.26" transform="matrix(1,0,0,1,396,-4)" class="stroke_order_diagram--current_path"></path><circle cx="53.31" cy="18.88" r="8" class="stroke_order_diagram--path_start" transform="matrix(1,0,0,1,396,-4)"></circle></svg>