<svg style="width: 900px; height: 100px;" viewbox="0 0 900 100"><style>
.stroke_order_diagram--outer_container {
  width: 100%;
  overflow-x: auto;
  overflow-y: hidden;
}

.stroke_order_diagram--guide_line {
  fill: none;
  stroke: #ddd;
  stroke-width: 3;
  stroke-linecap: square;
  stroke-linejoin: square;
  stroke-dasharray:8, 8;
}

.stroke_order_diagram--bounding_box {
  fill: none;
  stroke: #ddd;
  stroke-width: 4;
  stroke-linecap: square;
  stroke-linejoin: square;
}

.stroke_order_diagram--current_path {
  fill: none;
  stroke: #000;
  stroke-width: 6;
  stroke-linecap: round;
  stroke-linejoin: round;
}

.stroke_order_diagram--existing_path {
  fill: none;
  stroke: #aaa;
  stroke-width: 6;
  stroke-linecap: round;
  stroke-linejoin:round;
}

.stroke_order_diagram--path_start {
  fill: rgba(255, 0, 0, 0.7);
  stroke:none
}</style><desc>Created with Snap</desc><defs></defs><line x1="1" x2="899" y1="1" y2="1" class="stroke_order_diagram--bounding_box"></line><line x1="1" x2="1" y1="1" y2="99" class="stroke_order_diagram--bounding_box"></line><line x1="1" x2="899" y1="99" y2="99" class="stroke_order_diagram--bounding_box"></line><line x1="0" x2="900" y1="50" y2="50" class="stroke_order_diagram--guide_line"></line><line x1="50" x2="50" y1="1" y2="99" class="stroke_order_diagram--guide_line"></line><line x1="99" x2="99" y1="1" y2="99" class="stroke_order_diagram--bounding_box"></line><path id="kvg:05e7d-s1" kvg:type="㇑a" d="M52.49,16.5C53.49,17.51,54,19.12,54,21c0,0.91,0,58,0,65.5" transform="matrix(1,0,0,1,-4,-4)" class="stroke_order_diagram--current_path"></path><path id="pathSk2v596cn3hm9" kvg:type="㇑a" d="M52.49,16.5C53.49,17.51,54,19.12,54,21c0,0.91,0,58,0,65.5" transform="matrix(1,0,0,1,-4,-4)" class="stroke_order_diagram--current_path"></path><circle cx="52.49" cy="16.5" r="8" class="stroke_order_diagram--path_start" transform="matrix(1,0,0,1,-4,-4)"></circle><line x1="150" x2="150" y1="1" y2="99" class="stroke_order_diagram--guide_line"></line><line x1="199" x2="199" y1="1" y2="99" class="stroke_order_diagram--bounding_box"></line><path id="pathSk2v596cn3hmc" kvg:type="㇑a" d="M52.49,16.5C53.49,17.51,54,19.12,54,21c0,0.91,0,58,0,65.5" transform="matrix(1,0,0,1,96,-4)" class="stroke_order_diagram--existing_path"></path><path id="kvg:05e7d-s2" kvg:type="㇜" d="M34.36,28.12c0.26,1.16,0.29,1.96-0.13,3.3c-1.6,5.14-4.92,11.28-7.64,15.24c-1.01,1.47-1.69,2.94,0.36,3.73c2.68,1.04,5.31,2.13,8.62,4.08" transform="matrix(1,0,0,1,96,-4)" class="stroke_order_diagram--current_path"></path><path id="pathSk2v596cn3hme" kvg:type="㇜" d="M34.36,28.12c0.26,1.16,0.29,1.96-0.13,3.3c-1.6,5.14-4.92,11.28-7.64,15.24c-1.01,1.47-1.69,2.94,0.36,3.73c2.68,1.04,5.31,2.13,8.62,4.08" transform="matrix(1,0,0,1,96,-4)" class="stroke_order_diagram--current_path"></path><circle cx="34.36" cy="28.12" r="8" class="stroke_order_diagram--path_start" transform="matrix(1,0,0,1,96,-4)"></circle><line x1="250" x2="250" y1="1" y2="99" class="stroke_order_diagram--guide_line"></line><line x1="299" x2="299" y1="1" y2="99" class="stroke_order_diagram--bounding_box"></line><path id="pathSk2v596cn3hmh" kvg:type="㇑a" d="M52.49,16.5C53.49,17.51,54,19.12,54,21c0,0.91,0,58,0,65.5" transform="matrix(1,0,0,1,196,-4)" class="stroke_order_diagram--existing_path"></path><path id="pathSk2v596cn3hmi" kvg:type="㇜" d="M34.36,28.12c0.26,1.16,0.29,1.96-0.13,3.3c-1.6,5.14-4.92,11.28-7.64,15.24c-1.01,1.47-1.69,2.94,0.36,3.73c2.68,1.04,5.31,2.13,8.62,4.08" transform="matrix(1,0,0,1,196,-4)" class="stroke_order_diagram--existing_path"></path><path id="kvg:05e7d-s3" kvg:type="㇜" d="M43.12,40.63c0.26,0.58,0.09,2.74-0.22,3.42c-3.75,8.44-11.44,19.33-17.66,28.83c-1.05,1.61-0.2,3.11,1.66,2.42c6.23-2.3,9.48-3.8,15.53-6.35" transform="matrix(1,0,0,1,196,-4)" class="stroke_order_diagram--current_path"></path><path id="pathSk2v596cn3hmk" kvg:type="㇜" d="M43.12,40.63c0.26,0.58,0.09,2.74-0.22,3.42c-3.75,8.44-11.44,19.33-17.66,28.83c-1.05,1.61-0.2,3.11,1.66,2.42c6.23-2.3,9.48-3.8,15.53-6.35" transform="matrix(1,0,0,1,196,-4)" class="stroke_order_diagram--current_path"></path><circle cx="43.12" cy="40.63" r="8" class="stroke_order_diagram--path_start" transform="matrix(1,0,0,1,196,-4)"></circle><line x1="350" x2="350" y1="1" y2="99" class="stroke_order_diagram--guide_line"></line><line x1="399" x2="399" y1="1" y2="99" class="stroke_order_diagram--bounding_box"></line><path id="pathSk2v596cn3hmn" kvg:type="㇑a" d="M52.49,16.5C53.49,17.51,54,19.12,54,21c0,0.91,0,58,0,65.5" transform="matrix(1,0,0,1,296,-4)" class="stroke_order_diagram--existing_path"></path><path id="pathSk2v596cn3hmo" kvg:type="㇜" d="M34.36,28.12c0.26,1.16,0.29,1.96-0.13,3.3c-1.6,5.14-4.92,11.28-7.64,15.24c-1.01,1.47-1.69,2.94,0.36,3.73c2.68,1.04,5.31,2.13,8.62,4.08" transform="matrix(1,0,0,1,296,-4)" class="stroke_order_diagram--existing_path"></path><path id="pathSk2v596cn3hmp" kvg:type="㇜" d="M43.12,40.63c0.26,0.58,0.09,2.74-0.22,3.42c-3.75,8.44-11.44,19.33-17.66,28.83c-1.05,1.61-0.2,3.11,1.66,2.42c6.23-2.3,9.48-3.8,15.53-6.35" transform="matrix(1,0,0,1,296,-4)" class="stroke_order_diagram--existing_path"></path><path id="kvg:05e7d-s4" kvg:type="㇔" d="M40.96,63.35c2.11,2.11,5.46,8.68,5.99,11.97" transform="matrix(1,0,0,1,296,-4)" class="stroke_order_diagram--current_path"></path><path id="pathSk2v596cn3hmr" kvg:type="㇔" d="M40.96,63.35c2.11,2.11,5.46,8.68,5.99,11.97" transform="matrix(1,0,0,1,296,-4)" class="stroke_order_diagram--current_path"></path><circle cx="40.96" cy="63.35" r="8" class="stroke_order_diagram--path_start" transform="matrix(1,0,0,1,296,-4)"></circle><line x1="450" x2="450" y1="1" y2="99" class="stroke_order_diagram--guide_line"></line><line x1="499" x2="499" y1="1" y2="99" class="stroke_order_diagram--bounding_box"></line><path id="pathSk2v596cn3hmu" kvg:type="㇑a" d="M52.49,16.5C53.49,17.51,54,19.12,54,21c0,0.91,0,58,0,65.5" transform="matrix(1,0,0,1,396,-4)" class="stroke_order_diagram--existing_path"></path><path id="pathSk2v596cn3hmv" kvg:type="㇜" d="M34.36,28.12c0.26,1.16,0.29,1.96-0.13,3.3c-1.6,5.14-4.92,11.28-7.64,15.24c-1.01,1.47-1.69,2.94,0.36,3.73c2.68,1.04,5.31,2.13,8.62,4.08" transform="matrix(1,0,0,1,396,-4)" class="stroke_order_diagram--existing_path"></path><path id="pathSk2v596cn3hmw" kvg:type="㇜" d="M43.12,40.63c0.26,0.58,0.09,2.74-0.22,3.42c-3.75,8.44-11.44,19.33-17.66,28.83c-1.05,1.61-0.2,3.11,1.66,2.42c6.23-2.3,9.48-3.8,15.53-6.35" transform="matrix(1,0,0,1,396,-4)" class="stroke_order_diagram--existing_path"></path><path id="pathSk2v596cn3hmx" kvg:type="㇔" d="M40.96,63.35c2.11,2.11,5.46,8.68,5.99,11.97" transform="matrix(1,0,0,1,396,-4)" class="stroke_order_diagram--existing_path"></path><path id="kvg:05e7d-s5" kvg:type="㇜" d="M74.36,24.37c0.26,1.16,0.27,2.31-0.38,3.55c-3.39,6.43-6.01,10.48-8.66,14.14c-0.68,0.94-1.29,2.37,0.01,3.14c2.92,1.75,4.8,2.78,8.74,5.77" transform="matrix(1,0,0,1,396,-4)" class="stroke_order_diagram--current_path"></path><path id="pathSk2v596cn3hmz" kvg:type="㇜" d="M74.36,24.37c0.26,1.16,0.27,2.31-0.38,3.55c-3.39,6.43-6.01,10.48-8.66,14.14c-0.68,0.94-1.29,2.37,0.01,3.14c2.92,1.75,4.8,2.78,8.74,5.77" transform="matrix(1,0,0,1,396,-4)" class="stroke_order_diagram--current_path"></path><circle cx="74.36" cy="24.37" r="8" class="stroke_order_diagram--path_start" transform="matrix(1,0,0,1,396,-4)"></circle><line x1="550" x2="550" y1="1" y2="99" class="stroke_order_diagram--guide_line"></line><line x1="599" x2="599" y1="1" y2="99" class="stroke_order_diagram--bounding_box"></line><path id="pathSk2v596cn3hn2" kvg:type="㇑a" d="M52.49,16.5C53.49,17.51,54,19.12,54,21c0,0.91,0,58,0,65.5" transform="matrix(1,0,0,1,496,-4)" class="stroke_order_diagram--existing_path"></path><path id="pathSk2v596cn3hn3" kvg:type="㇜" d="M34.36,28.12c0.26,1.16,0.29,1.96-0.13,3.3c-1.6,5.14-4.92,11.28-7.64,15.24c-1.01,1.47-1.69,2.94,0.36,3.73c2.68,1.04,5.31,2.13,8.62,4.08" transform="matrix(1,0,0,1,496,-4)" class="stroke_order_diagram--existing_path"></path><path id="pathSk2v596cn3hn4" kvg:type="㇜" d="M43.12,40.63c0.26,0.58,0.09,2.74-0.22,3.42c-3.75,8.44-11.44,19.33-17.66,28.83c-1.05,1.61-0.2,3.11,1.66,2.42c6.23-2.3,9.48-3.8,15.53-6.35" transform="matrix(1,0,0,1,496,-4)" class="stroke_order_diagram--existing_path"></path><path id="pathSk2v596cn3hn5" kvg:type="㇔" d="M40.96,63.35c2.11,2.11,5.46,8.68,5.99,11.97" transform="matrix(1,0,0,1,496,-4)" class="stroke_order_diagram--existing_path"></path><path id="pathSk2v596cn3hn6" kvg:type="㇜" d="M74.36,24.37c0.26,1.16,0.27,2.31-0.38,3.55c-3.39,6.43-6.01,10.48-8.66,14.14c-0.68,0.94-1.29,2.37,0.01,3.14c2.92,1.75,4.8,2.78,8.74,5.77" transform="matrix(1,0,0,1,496,-4)" class="stroke_order_diagram--existing_path"></path><path id="kvg:05e7d-s6" kvg:type="㇜" d="M81.12,38.63c0.38,1.25,0.32,2.66-0.47,3.92c-4.52,7.32-9.15,14.82-16.16,24.83c-1.39,1.98,0.01,2.69,1.73,2.15c5.14-1.61,8.53-2.89,13.7-4.33" transform="matrix(1,0,0,1,496,-4)" class="stroke_order_diagram--current_path"></path><path id="pathSk2v596cn3hn8" kvg:type="㇜" d="M81.12,38.63c0.38,1.25,0.32,2.66-0.47,3.92c-4.52,7.32-9.15,14.82-16.16,24.83c-1.39,1.98,0.01,2.69,1.73,2.15c5.14-1.61,8.53-2.89,13.7-4.33" transform="matrix(1,0,0,1,496,-4)" class="stroke_order_diagram--current_path"></path><circle cx="81.12" cy="38.63" r="8" class="stroke_order_diagram--path_start" transform="matrix(1,0,0,1,496,-4)"></circle><line x1="650" x2="650" y1="1" y2="99" class="stroke_order_diagram--guide_line"></line><line x1="699" x2="699" y1="1" y2="99" class="stroke_order_diagram--bounding_box"></line><path id="pathSk2v596cn3hnb" kvg:type="㇑a" d="M52.49,16.5C53.49,17.51,54,19.12,54,21c0,0.91,0,58,0,65.5" transform="matrix(1,0,0,1,596,-4)" class="stroke_order_diagram--existing_path"></path><path id="pathSk2v596cn3hnc" kvg:type="㇜" d="M34.36,28.12c0.26,1.16,0.29,1.96-0.13,3.3c-1.6,5.14-4.92,11.28-7.64,15.24c-1.01,1.47-1.69,2.94,0.36,3.73c2.68,1.04,5.31,2.13,8.62,4.08" transform="matrix(1,0,0,1,596,-4)" class="stroke_order_diagram--existing_path"></path><path id="pathSk2v596cn3hnd" kvg:type="㇜" d="M43.12,40.63c0.26,0.58,0.09,2.74-0.22,3.42c-3.75,8.44-11.44,19.33-17.66,28.83c-1.05,1.61-0.2,3.11,1.66,2.42c6.23-2.3,9.48-3.8,15.53-6.35" transform="matrix(1,0,0,1,596,-4)" class="stroke_order_diagram--existing_path"></path><path id="pathSk2v596cn3hne" kvg:type="㇔" d="M40.96,63.35c2.11,2.11,5.46,8.68,5.99,11.97" transform="matrix(1,0,0,1,596,-4)" class="stroke_order_diagram--existing_path"></path><path id="pathSk2v596cn3hnf" kvg:type="㇜" d="M74.36,24.37c0.26,1.16,0.27,2.31-0.38,3.55c-3.39,6.43-6.01,10.48-8.66,14.14c-0.68,0.94-1.29,2.37,0.01,3.14c2.92,1.75,4.8,2.78,8.74,5.77" transform="matrix(1,0,0,1,596,-4)" class="stroke_order_diagram--existing_path"></path><path id="pathSk2v596cn3hng" kvg:type="㇜" d="M81.12,38.63c0.38,1.25,0.32,2.66-0.47,3.92c-4.52,7.32-9.15,14.82-16.16,24.83c-1.39,1.98,0.01,2.69,1.73,2.15c5.14-1.61,8.53-2.89,13.7-4.33" transform="matrix(1,0,0,1,596,-4)" class="stroke_order_diagram--existing_path"></path><path id="kvg:05e7d-s7" kvg:type="㇔" d="M78,59.12c1.92,2.24,4.97,9.21,5.45,12.7" transform="matrix(1,0,0,1,596,-4)" class="stroke_order_diagram--current_path"></path><path id="pathSk2v596cn3hni" kvg:type="㇔" d="M78,59.12c1.92,2.24,4.97,9.21,5.45,12.7" transform="matrix(1,0,0,1,596,-4)" class="stroke_order_diagram--current_path"></path><circle cx="78" cy="59.12" r="8" class="stroke_order_diagram--path_start" transform="matrix(1,0,0,1,596,-4)"></circle><line x1="750" x2="750" y1="1" y2="99" class="stroke_order_diagram--guide_line"></line><line x1="799" x2="799" y1="1" y2="99" class="stroke_order_diagram--bounding_box"></line><path id="pathSk2v596cn3hnl" kvg:type="㇑a" d="M52.49,16.5C53.49,17.51,54,19.12,54,21c0,0.91,0,58,0,65.5" transform="matrix(1,0,0,1,696,-4)" class="stroke_order_diagram--existing_path"></path><path id="pathSk2v596cn3hnm" kvg:type="㇜" d="M34.36,28.12c0.26,1.16,0.29,1.96-0.13,3.3c-1.6,5.14-4.92,11.28-7.64,15.24c-1.01,1.47-1.69,2.94,0.36,3.73c2.68,1.04,5.31,2.13,8.62,4.08" transform="matrix(1,0,0,1,696,-4)" class="stroke_order_diagram--existing_path"></path><path id="pathSk2v596cn3hnn" kvg:type="㇜" d="M43.12,40.63c0.26,0.58,0.09,2.74-0.22,3.42c-3.75,8.44-11.44,19.33-17.66,28.83c-1.05,1.61-0.2,3.11,1.66,2.42c6.23-2.3,9.48-3.8,15.53-6.35" transform="matrix(1,0,0,1,696,-4)" class="stroke_order_diagram--existing_path"></path><path id="pathSk2v596cn3hno" kvg:type="㇔" d="M40.96,63.35c2.11,2.11,5.46,8.68,5.99,11.97" transform="matrix(1,0,0,1,696,-4)" class="stroke_order_diagram--existing_path"></path><path id="pathSk2v596cn3hnp" kvg:type="㇜" d="M74.36,24.37c0.26,1.16,0.27,2.31-0.38,3.55c-3.39,6.43-6.01,10.48-8.66,14.14c-0.68,0.94-1.29,2.37,0.01,3.14c2.92,1.75,4.8,2.78,8.74,5.77" transform="matrix(1,0,0,1,696,-4)" class="stroke_order_diagram--existing_path"></path><path id="pathSk2v596cn3hnq" kvg:type="㇜" d="M81.12,38.63c0.38,1.25,0.32,2.66-0.47,3.92c-4.52,7.32-9.15,14.82-16.16,24.83c-1.39,1.98,0.01,2.69,1.73,2.15c5.14-1.61,8.53-2.89,13.7-4.33" transform="matrix(1,0,0,1,696,-4)" class="stroke_order_diagram--existing_path"></path><path id="pathSk2v596cn3hnr" kvg:type="㇔" d="M78,59.12c1.92,2.24,4.97,9.21,5.45,12.7" transform="matrix(1,0,0,1,696,-4)" class="stroke_order_diagram--existing_path"></path><path id="kvg:05e7d-s8" kvg:type="㇄a" d="M13.13,39.79c1.16,1.17,1.3,3.09,1.25,4.29C14,52.25,13.83,79,13.83,85.94c0,2.72,0.48,4.18,2.98,3.95C32.12,88.5,70.5,86,90.04,85.22" transform="matrix(1,0,0,1,696,-4)" class="stroke_order_diagram--current_path"></path><path id="pathSk2v596cn3hnt" kvg:type="㇄a" d="M13.13,39.79c1.16,1.17,1.3,3.09,1.25,4.29C14,52.25,13.83,79,13.83,85.94c0,2.72,0.48,4.18,2.98,3.95C32.12,88.5,70.5,86,90.04,85.22" transform="matrix(1,0,0,1,696,-4)" class="stroke_order_diagram--current_path"></path><circle cx="13.13" cy="39.79" r="8" class="stroke_order_diagram--path_start" transform="matrix(1,0,0,1,696,-4)"></circle><line x1="850" x2="850" y1="1" y2="99" class="stroke_order_diagram--guide_line"></line><line x1="899" x2="899" y1="1" y2="99" class="stroke_order_diagram--bounding_box"></line><path id="pathSk2v596cn3hnw" kvg:type="㇑a" d="M52.49,16.5C53.49,17.51,54,19.12,54,21c0,0.91,0,58,0,65.5" transform="matrix(1,0,0,1,796,-4)" class="stroke_order_diagram--existing_path"></path><path id="pathSk2v596cn3hnx" kvg:type="㇜" d="M34.36,28.12c0.26,1.16,0.29,1.96-0.13,3.3c-1.6,5.14-4.92,11.28-7.64,15.24c-1.01,1.47-1.69,2.94,0.36,3.73c2.68,1.04,5.31,2.13,8.62,4.08" transform="matrix(1,0,0,1,796,-4)" class="stroke_order_diagram--existing_path"></path><path id="pathSk2v596cn3hny" kvg:type="㇜" d="M43.12,40.63c0.26,0.58,0.09,2.74-0.22,3.42c-3.75,8.44-11.44,19.33-17.66,28.83c-1.05,1.61-0.2,3.11,1.66,2.42c6.23-2.3,9.48-3.8,15.53-6.35" transform="matrix(1,0,0,1,796,-4)" class="stroke_order_diagram--existing_path"></path><path id="pathSk2v596cn3hnz" kvg:type="㇔" d="M40.96,63.35c2.11,2.11,5.46,8.68,5.99,11.97" transform="matrix(1,0,0,1,796,-4)" class="stroke_order_diagram--existing_path"></path><path id="pathSk2v596cn3ho0" kvg:type="㇜" d="M74.36,24.37c0.26,1.16,0.27,2.31-0.38,3.55c-3.39,6.43-6.01,10.48-8.66,14.14c-0.68,0.94-1.29,2.37,0.01,3.14c2.92,1.75,4.8,2.78,8.74,5.77" transform="matrix(1,0,0,1,796,-4)" class="stroke_order_diagram--existing_path"></path><path id="pathSk2v596cn3ho1" kvg:type="㇜" d="M81.12,38.63c0.38,1.25,0.32,2.66-0.47,3.92c-4.52,7.32-9.15,14.82-16.16,24.83c-1.39,1.98,0.01,2.69,1.73,2.15c5.14-1.61,8.53-2.89,13.7-4.33" transform="matrix(1,0,0,1,796,-4)" class="stroke_order_diagram--existing_path"></path><path id="pathSk2v596cn3ho2" kvg:type="㇔" d="M78,59.12c1.92,2.24,4.97,9.21,5.45,12.7" transform="matrix(1,0,0,1,796,-4)" class="stroke_order_diagram--existing_path"></path><path id="pathSk2v596cn3ho3" kvg:type="㇄a" d="M13.13,39.79c1.16,1.17,1.3,3.09,1.25,4.29C14,52.25,13.83,79,13.83,85.94c0,2.72,0.48,4.18,2.98,3.95C32.12,88.5,70.5,86,90.04,85.22" transform="matrix(1,0,0,1,796,-4)" class="stroke_order_diagram--existing_path"></path><path id="kvg:05e7d-s9" kvg:type="㇑" d="M93.25,33.2c0.9,0.9,1.15,2.43,1,4.61c-0.57,8.22-2.13,32.24-2.92,44.33c-0.24,3.64-0.41,6.2-0.46,6.92" transform="matrix(1,0,0,1,796,-4)" class="stroke_order_diagram--current_path"></path><path id="pathSk2v596cn3ho5" kvg:type="㇑" d="M93.25,33.2c0.9,0.9,1.15,2.43,1,4.61c-0.57,8.22-2.13,32.24-2.92,44.33c-0.24,3.64-0.41,6.2-0.46,6.92" transform="matrix(1,0,0,1,796,-4)" class="stroke_order_diagram--current_path"></path><circle cx="93.25" cy="33.2" r="8" class="stroke_order_diagram--path_start" transform="matrix(1,0,0,1,796,-4)"></circle></svg>