<svg style="width: 500px; height: 100px;" viewbox="0 0 500 100"><style>
.stroke_order_diagram--outer_container {
  width: 100%;
  overflow-x: auto;
  overflow-y: hidden;
}

.stroke_order_diagram--guide_line {
  fill: none;
  stroke: #ddd;
  stroke-width: 3;
  stroke-linecap: square;
  stroke-linejoin: square;
  stroke-dasharray:8, 8;
}

.stroke_order_diagram--bounding_box {
  fill: none;
  stroke: #ddd;
  stroke-width: 4;
  stroke-linecap: square;
  stroke-linejoin: square;
}

.stroke_order_diagram--current_path {
  fill: none;
  stroke: #000;
  stroke-width: 6;
  stroke-linecap: round;
  stroke-linejoin: round;
}

.stroke_order_diagram--existing_path {
  fill: none;
  stroke: #aaa;
  stroke-width: 6;
  stroke-linecap: round;
  stroke-linejoin:round;
}

.stroke_order_diagram--path_start {
  fill: rgba(255, 0, 0, 0.7);
  stroke:none
}</style><desc>Created with Snap</desc><defs></defs><line x1="1" x2="499" y1="1" y2="1" class="stroke_order_diagram--bounding_box"></line><line x1="1" x2="1" y1="1" y2="99" class="stroke_order_diagram--bounding_box"></line><line x1="1" x2="499" y1="99" y2="99" class="stroke_order_diagram--bounding_box"></line><line x1="0" x2="500" y1="50" y2="50" class="stroke_order_diagram--guide_line"></line><line x1="50" x2="50" y1="1" y2="99" class="stroke_order_diagram--guide_line"></line><line x1="99" x2="99" y1="1" y2="99" class="stroke_order_diagram--bounding_box"></line><path id="kvg:05e7c-s1" kvg:type="㇜" d="M31.89,20.62c0.38,1.43,0.58,2.48-0.19,4.06c-3.82,7.82-7.82,14.82-11.98,20.84c-0.61,0.88-0.44,2.52,0.32,2.79c4.04,1.43,6.59,2.56,12.39,6.87" transform="matrix(1,0,0,1,-4,-4)" class="stroke_order_diagram--current_path"></path><path id="pathSk2v596cn1wls" kvg:type="㇜" d="M31.89,20.62c0.38,1.43,0.58,2.48-0.19,4.06c-3.82,7.82-7.82,14.82-11.98,20.84c-0.61,0.88-0.44,2.52,0.32,2.79c4.04,1.43,6.59,2.56,12.39,6.87" transform="matrix(1,0,0,1,-4,-4)" class="stroke_order_diagram--current_path"></path><circle cx="31.89" cy="20.62" r="8" class="stroke_order_diagram--path_start" transform="matrix(1,0,0,1,-4,-4)"></circle><line x1="150" x2="150" y1="1" y2="99" class="stroke_order_diagram--guide_line"></line><line x1="199" x2="199" y1="1" y2="99" class="stroke_order_diagram--bounding_box"></line><path id="pathSk2v596cn1wlv" kvg:type="㇜" d="M31.89,20.62c0.38,1.43,0.58,2.48-0.19,4.06c-3.82,7.82-7.82,14.82-11.98,20.84c-0.61,0.88-0.44,2.52,0.32,2.79c4.04,1.43,6.59,2.56,12.39,6.87" transform="matrix(1,0,0,1,96,-4)" class="stroke_order_diagram--existing_path"></path><path id="kvg:05e7c-s2" kvg:type="㇜" d="M44.73,32.5c0.4,1.5,0.27,2.88-0.57,4.47C38.1,48.49,28.6,63.75,19.89,75.85C17.62,79,18.5,81,22.41,79.2C30.23,75.61,36.75,72,46.75,68" transform="matrix(1,0,0,1,96,-4)" class="stroke_order_diagram--current_path"></path><path id="pathSk2v596cn1wlx" kvg:type="㇜" d="M44.73,32.5c0.4,1.5,0.27,2.88-0.57,4.47C38.1,48.49,28.6,63.75,19.89,75.85C17.62,79,18.5,81,22.41,79.2C30.23,75.61,36.75,72,46.75,68" transform="matrix(1,0,0,1,96,-4)" class="stroke_order_diagram--current_path"></path><circle cx="44.73" cy="32.5" r="8" class="stroke_order_diagram--path_start" transform="matrix(1,0,0,1,96,-4)"></circle><line x1="250" x2="250" y1="1" y2="99" class="stroke_order_diagram--guide_line"></line><line x1="299" x2="299" y1="1" y2="99" class="stroke_order_diagram--bounding_box"></line><path id="pathSk2v596cn1wm0" kvg:type="㇜" d="M31.89,20.62c0.38,1.43,0.58,2.48-0.19,4.06c-3.82,7.82-7.82,14.82-11.98,20.84c-0.61,0.88-0.44,2.52,0.32,2.79c4.04,1.43,6.59,2.56,12.39,6.87" transform="matrix(1,0,0,1,196,-4)" class="stroke_order_diagram--existing_path"></path><path id="pathSk2v596cn1wm1" kvg:type="㇜" d="M44.73,32.5c0.4,1.5,0.27,2.88-0.57,4.47C38.1,48.49,28.6,63.75,19.89,75.85C17.62,79,18.5,81,22.41,79.2C30.23,75.61,36.75,72,46.75,68" transform="matrix(1,0,0,1,196,-4)" class="stroke_order_diagram--existing_path"></path><path id="kvg:05e7c-s3" kvg:type="㇔" d="M41.92,59.9c3.13,2.68,8.08,11.01,8.86,15.17" transform="matrix(1,0,0,1,196,-4)" class="stroke_order_diagram--current_path"></path><path id="pathSk2v596cn1wm3" kvg:type="㇔" d="M41.92,59.9c3.13,2.68,8.08,11.01,8.86,15.17" transform="matrix(1,0,0,1,196,-4)" class="stroke_order_diagram--current_path"></path><circle cx="41.92" cy="59.9" r="8" class="stroke_order_diagram--path_start" transform="matrix(1,0,0,1,196,-4)"></circle><line x1="350" x2="350" y1="1" y2="99" class="stroke_order_diagram--guide_line"></line><line x1="399" x2="399" y1="1" y2="99" class="stroke_order_diagram--bounding_box"></line><path id="pathSk2v596cn1wm6" kvg:type="㇜" d="M31.89,20.62c0.38,1.43,0.58,2.48-0.19,4.06c-3.82,7.82-7.82,14.82-11.98,20.84c-0.61,0.88-0.44,2.52,0.32,2.79c4.04,1.43,6.59,2.56,12.39,6.87" transform="matrix(1,0,0,1,296,-4)" class="stroke_order_diagram--existing_path"></path><path id="pathSk2v596cn1wm7" kvg:type="㇜" d="M44.73,32.5c0.4,1.5,0.27,2.88-0.57,4.47C38.1,48.49,28.6,63.75,19.89,75.85C17.62,79,18.5,81,22.41,79.2C30.23,75.61,36.75,72,46.75,68" transform="matrix(1,0,0,1,296,-4)" class="stroke_order_diagram--existing_path"></path><path id="pathSk2v596cn1wm8" kvg:type="㇔" d="M41.92,59.9c3.13,2.68,8.08,11.01,8.86,15.17" transform="matrix(1,0,0,1,296,-4)" class="stroke_order_diagram--existing_path"></path><path id="kvg:05e7c-s4" kvg:type="㇆" d="M54.15,42.34c2.35,1.04,5.08,0.97,7.62,0.52c9.79-1.76,22.78-4.41,28.12-5.29c3.75-0.62,5.17,1.33,4.97,5c-0.38,6.95-5.43,29.26-10.53,39.78c-4.2,8.65-8.45,6.78-12.23,2.51" transform="matrix(1,0,0,1,296,-4)" class="stroke_order_diagram--current_path"></path><path id="pathSk2v596cn1wma" kvg:type="㇆" d="M54.15,42.34c2.35,1.04,5.08,0.97,7.62,0.52c9.79-1.76,22.78-4.41,28.12-5.29c3.75-0.62,5.17,1.33,4.97,5c-0.38,6.95-5.43,29.26-10.53,39.78c-4.2,8.65-8.45,6.78-12.23,2.51" transform="matrix(1,0,0,1,296,-4)" class="stroke_order_diagram--current_path"></path><circle cx="54.15" cy="42.34" r="8" class="stroke_order_diagram--path_start" transform="matrix(1,0,0,1,296,-4)"></circle><line x1="450" x2="450" y1="1" y2="99" class="stroke_order_diagram--guide_line"></line><line x1="499" x2="499" y1="1" y2="99" class="stroke_order_diagram--bounding_box"></line><path id="pathSk2v596cn1wmd" kvg:type="㇜" d="M31.89,20.62c0.38,1.43,0.58,2.48-0.19,4.06c-3.82,7.82-7.82,14.82-11.98,20.84c-0.61,0.88-0.44,2.52,0.32,2.79c4.04,1.43,6.59,2.56,12.39,6.87" transform="matrix(1,0,0,1,396,-4)" class="stroke_order_diagram--existing_path"></path><path id="pathSk2v596cn1wme" kvg:type="㇜" d="M44.73,32.5c0.4,1.5,0.27,2.88-0.57,4.47C38.1,48.49,28.6,63.75,19.89,75.85C17.62,79,18.5,81,22.41,79.2C30.23,75.61,36.75,72,46.75,68" transform="matrix(1,0,0,1,396,-4)" class="stroke_order_diagram--existing_path"></path><path id="pathSk2v596cn1wmf" kvg:type="㇔" d="M41.92,59.9c3.13,2.68,8.08,11.01,8.86,15.17" transform="matrix(1,0,0,1,396,-4)" class="stroke_order_diagram--existing_path"></path><path id="pathSk2v596cn1wmg" kvg:type="㇆" d="M54.15,42.34c2.35,1.04,5.08,0.97,7.62,0.52c9.79-1.76,22.78-4.41,28.12-5.29c3.75-0.62,5.17,1.33,4.97,5c-0.38,6.95-5.43,29.26-10.53,39.78c-4.2,8.65-8.45,6.78-12.23,2.51" transform="matrix(1,0,0,1,396,-4)" class="stroke_order_diagram--existing_path"></path><path id="kvg:05e7c-s5" kvg:type="㇒" d="M74.09,17.68c0.66,0.95,0.91,2.2,0.84,4.29C74.27,41,66.25,76.25,45.04,92.05" transform="matrix(1,0,0,1,396,-4)" class="stroke_order_diagram--current_path"></path><path id="pathSk2v596cn1wmi" kvg:type="㇒" d="M74.09,17.68c0.66,0.95,0.91,2.2,0.84,4.29C74.27,41,66.25,76.25,45.04,92.05" transform="matrix(1,0,0,1,396,-4)" class="stroke_order_diagram--current_path"></path><circle cx="74.09" cy="17.68" r="8" class="stroke_order_diagram--path_start" transform="matrix(1,0,0,1,396,-4)"></circle></svg>