<svg style="width: 700px; height: 100px;" viewbox="0 0 700 100"><style>
.stroke_order_diagram--outer_container {
  width: 100%;
  overflow-x: auto;
  overflow-y: hidden;
}

.stroke_order_diagram--guide_line {
  fill: none;
  stroke: #ddd;
  stroke-width: 3;
  stroke-linecap: square;
  stroke-linejoin: square;
  stroke-dasharray:8, 8;
}

.stroke_order_diagram--bounding_box {
  fill: none;
  stroke: #ddd;
  stroke-width: 4;
  stroke-linecap: square;
  stroke-linejoin: square;
}

.stroke_order_diagram--current_path {
  fill: none;
  stroke: #000;
  stroke-width: 6;
  stroke-linecap: round;
  stroke-linejoin: round;
}

.stroke_order_diagram--existing_path {
  fill: none;
  stroke: #aaa;
  stroke-width: 6;
  stroke-linecap: round;
  stroke-linejoin:round;
}

.stroke_order_diagram--path_start {
  fill: rgba(255, 0, 0, 0.7);
  stroke:none
}</style><desc>Created with Snap</desc><defs></defs><line x1="1" x2="699" y1="1" y2="1" class="stroke_order_diagram--bounding_box"></line><line x1="1" x2="1" y1="1" y2="99" class="stroke_order_diagram--bounding_box"></line><line x1="1" x2="699" y1="99" y2="99" class="stroke_order_diagram--bounding_box"></line><line x1="0" x2="700" y1="50" y2="50" class="stroke_order_diagram--guide_line"></line><line x1="50" x2="50" y1="1" y2="99" class="stroke_order_diagram--guide_line"></line><line x1="99" x2="99" y1="1" y2="99" class="stroke_order_diagram--bounding_box"></line><path id="kvg:05e8a-s1" kvg:type="㇑a" d="M51.31,11.13c1.09,1.09,1.51,2.74,1.51,4.65c0,0.79-0.07,4.34-0.07,7.46" transform="matrix(1,0,0,1,-4,-4)" class="stroke_order_diagram--current_path"></path><path id="pathSk2v596cn34up" kvg:type="㇑a" d="M51.31,11.13c1.09,1.09,1.51,2.74,1.51,4.65c0,0.79-0.07,4.34-0.07,7.46" transform="matrix(1,0,0,1,-4,-4)" class="stroke_order_diagram--current_path"></path><circle cx="51.31" cy="11.13" r="8" class="stroke_order_diagram--path_start" transform="matrix(1,0,0,1,-4,-4)"></circle><line x1="150" x2="150" y1="1" y2="99" class="stroke_order_diagram--guide_line"></line><line x1="199" x2="199" y1="1" y2="99" class="stroke_order_diagram--bounding_box"></line><path id="pathSk2v596cn34us" kvg:type="㇑a" d="M51.31,11.13c1.09,1.09,1.51,2.74,1.51,4.65c0,0.79-0.07,4.34-0.07,7.46" transform="matrix(1,0,0,1,96,-4)" class="stroke_order_diagram--existing_path"></path><path id="kvg:05e8a-s2" kvg:type="㇐" d="M19.38,26.98c3.08,1.1,6.85,0.63,10,0.23c15.63-1.96,31-4.08,46.13-5.27c3-0.23,5.92-0.26,8.87,0.38" transform="matrix(1,0,0,1,96,-4)" class="stroke_order_diagram--current_path"></path><path id="pathSk2v596cn34uu" kvg:type="㇐" d="M19.38,26.98c3.08,1.1,6.85,0.63,10,0.23c15.63-1.96,31-4.08,46.13-5.27c3-0.23,5.92-0.26,8.87,0.38" transform="matrix(1,0,0,1,96,-4)" class="stroke_order_diagram--current_path"></path><circle cx="19.38" cy="26.98" r="8" class="stroke_order_diagram--path_start" transform="matrix(1,0,0,1,96,-4)"></circle><line x1="250" x2="250" y1="1" y2="99" class="stroke_order_diagram--guide_line"></line><line x1="299" x2="299" y1="1" y2="99" class="stroke_order_diagram--bounding_box"></line><path id="pathSk2v596cn34ux" kvg:type="㇑a" d="M51.31,11.13c1.09,1.09,1.51,2.74,1.51,4.65c0,0.79-0.07,4.34-0.07,7.46" transform="matrix(1,0,0,1,196,-4)" class="stroke_order_diagram--existing_path"></path><path id="pathSk2v596cn34uy" kvg:type="㇐" d="M19.38,26.98c3.08,1.1,6.85,0.63,10,0.23c15.63-1.96,31-4.08,46.13-5.27c3-0.23,5.92-0.26,8.87,0.38" transform="matrix(1,0,0,1,196,-4)" class="stroke_order_diagram--existing_path"></path><path id="kvg:05e8a-s3" kvg:type="㇒" d="M22.75,28.25c0.88,0.88,0.99,2.25,0.92,4.2C23,49.88,21,71.5,9.56,86.22" transform="matrix(1,0,0,1,196,-4)" class="stroke_order_diagram--current_path"></path><path id="pathSk2v596cn34v0" kvg:type="㇒" d="M22.75,28.25c0.88,0.88,0.99,2.25,0.92,4.2C23,49.88,21,71.5,9.56,86.22" transform="matrix(1,0,0,1,196,-4)" class="stroke_order_diagram--current_path"></path><circle cx="22.75" cy="28.25" r="8" class="stroke_order_diagram--path_start" transform="matrix(1,0,0,1,196,-4)"></circle><line x1="350" x2="350" y1="1" y2="99" class="stroke_order_diagram--guide_line"></line><line x1="399" x2="399" y1="1" y2="99" class="stroke_order_diagram--bounding_box"></line><path id="pathSk2v596cn34v3" kvg:type="㇑a" d="M51.31,11.13c1.09,1.09,1.51,2.74,1.51,4.65c0,0.79-0.07,4.34-0.07,7.46" transform="matrix(1,0,0,1,296,-4)" class="stroke_order_diagram--existing_path"></path><path id="pathSk2v596cn34v4" kvg:type="㇐" d="M19.38,26.98c3.08,1.1,6.85,0.63,10,0.23c15.63-1.96,31-4.08,46.13-5.27c3-0.23,5.92-0.26,8.87,0.38" transform="matrix(1,0,0,1,296,-4)" class="stroke_order_diagram--existing_path"></path><path id="pathSk2v596cn34v5" kvg:type="㇒" d="M22.75,28.25c0.88,0.88,0.99,2.25,0.92,4.2C23,49.88,21,71.5,9.56,86.22" transform="matrix(1,0,0,1,296,-4)" class="stroke_order_diagram--existing_path"></path><path id="kvg:05e8a-s4" kvg:type="㇐" d="M31.5,49.98c2.72,0.89,5.51,0.38,8.27,0.04c8.78-1.06,23.71-3.33,34.58-4.34c2.64-0.24,5.04-0.4,7.65,0.13" transform="matrix(1,0,0,1,296,-4)" class="stroke_order_diagram--current_path"></path><path id="pathSk2v596cn34v7" kvg:type="㇐" d="M31.5,49.98c2.72,0.89,5.51,0.38,8.27,0.04c8.78-1.06,23.71-3.33,34.58-4.34c2.64-0.24,5.04-0.4,7.65,0.13" transform="matrix(1,0,0,1,296,-4)" class="stroke_order_diagram--current_path"></path><circle cx="31.5" cy="49.98" r="8" class="stroke_order_diagram--path_start" transform="matrix(1,0,0,1,296,-4)"></circle><line x1="450" x2="450" y1="1" y2="99" class="stroke_order_diagram--guide_line"></line><line x1="499" x2="499" y1="1" y2="99" class="stroke_order_diagram--bounding_box"></line><path id="pathSk2v596cn34va" kvg:type="㇑a" d="M51.31,11.13c1.09,1.09,1.51,2.74,1.51,4.65c0,0.79-0.07,4.34-0.07,7.46" transform="matrix(1,0,0,1,396,-4)" class="stroke_order_diagram--existing_path"></path><path id="pathSk2v596cn34vb" kvg:type="㇐" d="M19.38,26.98c3.08,1.1,6.85,0.63,10,0.23c15.63-1.96,31-4.08,46.13-5.27c3-0.23,5.92-0.26,8.87,0.38" transform="matrix(1,0,0,1,396,-4)" class="stroke_order_diagram--existing_path"></path><path id="pathSk2v596cn34vc" kvg:type="㇒" d="M22.75,28.25c0.88,0.88,0.99,2.25,0.92,4.2C23,49.88,21,71.5,9.56,86.22" transform="matrix(1,0,0,1,396,-4)" class="stroke_order_diagram--existing_path"></path><path id="pathSk2v596cn34vd" kvg:type="㇐" d="M31.5,49.98c2.72,0.89,5.51,0.38,8.27,0.04c8.78-1.06,23.71-3.33,34.58-4.34c2.64-0.24,5.04-0.4,7.65,0.13" transform="matrix(1,0,0,1,396,-4)" class="stroke_order_diagram--existing_path"></path><path id="kvg:05e8a-s5" kvg:type="㇑" d="M54.25,32.75c1.25,1.25,1.5,2.75,1.5,4.5c0,8.38,0.12,36.25,0.12,51.5c0,3.71-0.07,6.49-0.12,7.75" transform="matrix(1,0,0,1,396,-4)" class="stroke_order_diagram--current_path"></path><path id="pathSk2v596cn34vf" kvg:type="㇑" d="M54.25,32.75c1.25,1.25,1.5,2.75,1.5,4.5c0,8.38,0.12,36.25,0.12,51.5c0,3.71-0.07,6.49-0.12,7.75" transform="matrix(1,0,0,1,396,-4)" class="stroke_order_diagram--current_path"></path><circle cx="54.25" cy="32.75" r="8" class="stroke_order_diagram--path_start" transform="matrix(1,0,0,1,396,-4)"></circle><line x1="550" x2="550" y1="1" y2="99" class="stroke_order_diagram--guide_line"></line><line x1="599" x2="599" y1="1" y2="99" class="stroke_order_diagram--bounding_box"></line><path id="pathSk2v596cn34vi" kvg:type="㇑a" d="M51.31,11.13c1.09,1.09,1.51,2.74,1.51,4.65c0,0.79-0.07,4.34-0.07,7.46" transform="matrix(1,0,0,1,496,-4)" class="stroke_order_diagram--existing_path"></path><path id="pathSk2v596cn34vj" kvg:type="㇐" d="M19.38,26.98c3.08,1.1,6.85,0.63,10,0.23c15.63-1.96,31-4.08,46.13-5.27c3-0.23,5.92-0.26,8.87,0.38" transform="matrix(1,0,0,1,496,-4)" class="stroke_order_diagram--existing_path"></path><path id="pathSk2v596cn34vk" kvg:type="㇒" d="M22.75,28.25c0.88,0.88,0.99,2.25,0.92,4.2C23,49.88,21,71.5,9.56,86.22" transform="matrix(1,0,0,1,496,-4)" class="stroke_order_diagram--existing_path"></path><path id="pathSk2v596cn34vl" kvg:type="㇐" d="M31.5,49.98c2.72,0.89,5.51,0.38,8.27,0.04c8.78-1.06,23.71-3.33,34.58-4.34c2.64-0.24,5.04-0.4,7.65,0.13" transform="matrix(1,0,0,1,496,-4)" class="stroke_order_diagram--existing_path"></path><path id="pathSk2v596cn34vm" kvg:type="㇑" d="M54.25,32.75c1.25,1.25,1.5,2.75,1.5,4.5c0,8.38,0.12,36.25,0.12,51.5c0,3.71-0.07,6.49-0.12,7.75" transform="matrix(1,0,0,1,496,-4)" class="stroke_order_diagram--existing_path"></path><path id="kvg:05e8a-s6" kvg:type="㇒" d="M54.5,50.25c0,1.25-0.23,2.44-1.65,4.22C44.5,65,33.25,76.5,20.5,85.25" transform="matrix(1,0,0,1,496,-4)" class="stroke_order_diagram--current_path"></path><path id="pathSk2v596cn34vo" kvg:type="㇒" d="M54.5,50.25c0,1.25-0.23,2.44-1.65,4.22C44.5,65,33.25,76.5,20.5,85.25" transform="matrix(1,0,0,1,496,-4)" class="stroke_order_diagram--current_path"></path><circle cx="54.5" cy="50.25" r="8" class="stroke_order_diagram--path_start" transform="matrix(1,0,0,1,496,-4)"></circle><line x1="650" x2="650" y1="1" y2="99" class="stroke_order_diagram--guide_line"></line><line x1="699" x2="699" y1="1" y2="99" class="stroke_order_diagram--bounding_box"></line><path id="pathSk2v596cn34vr" kvg:type="㇑a" d="M51.31,11.13c1.09,1.09,1.51,2.74,1.51,4.65c0,0.79-0.07,4.34-0.07,7.46" transform="matrix(1,0,0,1,596,-4)" class="stroke_order_diagram--existing_path"></path><path id="pathSk2v596cn34vs" kvg:type="㇐" d="M19.38,26.98c3.08,1.1,6.85,0.63,10,0.23c15.63-1.96,31-4.08,46.13-5.27c3-0.23,5.92-0.26,8.87,0.38" transform="matrix(1,0,0,1,596,-4)" class="stroke_order_diagram--existing_path"></path><path id="pathSk2v596cn34vt" kvg:type="㇒" d="M22.75,28.25c0.88,0.88,0.99,2.25,0.92,4.2C23,49.88,21,71.5,9.56,86.22" transform="matrix(1,0,0,1,596,-4)" class="stroke_order_diagram--existing_path"></path><path id="pathSk2v596cn34vu" kvg:type="㇐" d="M31.5,49.98c2.72,0.89,5.51,0.38,8.27,0.04c8.78-1.06,23.71-3.33,34.58-4.34c2.64-0.24,5.04-0.4,7.65,0.13" transform="matrix(1,0,0,1,596,-4)" class="stroke_order_diagram--existing_path"></path><path id="pathSk2v596cn34vv" kvg:type="㇑" d="M54.25,32.75c1.25,1.25,1.5,2.75,1.5,4.5c0,8.38,0.12,36.25,0.12,51.5c0,3.71-0.07,6.49-0.12,7.75" transform="matrix(1,0,0,1,596,-4)" class="stroke_order_diagram--existing_path"></path><path id="pathSk2v596cn34vw" kvg:type="㇒" d="M54.5,50.25c0,1.25-0.23,2.44-1.65,4.22C44.5,65,33.25,76.5,20.5,85.25" transform="matrix(1,0,0,1,596,-4)" class="stroke_order_diagram--existing_path"></path><path id="kvg:05e8a-s7" kvg:type="㇏" d="M56.5,49.5c3.91,3.34,19.93,17.42,28.67,24.98c2.84,2.46,5.95,4.43,9.33,6.02" transform="matrix(1,0,0,1,596,-4)" class="stroke_order_diagram--current_path"></path><path id="pathSk2v596cn34vy" kvg:type="㇏" d="M56.5,49.5c3.91,3.34,19.93,17.42,28.67,24.98c2.84,2.46,5.95,4.43,9.33,6.02" transform="matrix(1,0,0,1,596,-4)" class="stroke_order_diagram--current_path"></path><circle cx="56.5" cy="49.5" r="8" class="stroke_order_diagram--path_start" transform="matrix(1,0,0,1,596,-4)"></circle></svg>