<svg style="width: 700px; height: 100px;" viewbox="0 0 700 100"><style>
.stroke_order_diagram--outer_container {
  width: 100%;
  overflow-x: auto;
  overflow-y: hidden;
}

.stroke_order_diagram--guide_line {
  fill: none;
  stroke: #ddd;
  stroke-width: 3;
  stroke-linecap: square;
  stroke-linejoin: square;
  stroke-dasharray:8, 8;
}

.stroke_order_diagram--bounding_box {
  fill: none;
  stroke: #ddd;
  stroke-width: 4;
  stroke-linecap: square;
  stroke-linejoin: square;
}

.stroke_order_diagram--current_path {
  fill: none;
  stroke: #000;
  stroke-width: 6;
  stroke-linecap: round;
  stroke-linejoin: round;
}

.stroke_order_diagram--existing_path {
  fill: none;
  stroke: #aaa;
  stroke-width: 6;
  stroke-linecap: round;
  stroke-linejoin:round;
}

.stroke_order_diagram--path_start {
  fill: rgba(255, 0, 0, 0.7);
  stroke:none
}</style><desc>Created with Snap</desc><defs></defs><line x1="1" x2="699" y1="1" y2="1" class="stroke_order_diagram--bounding_box"></line><line x1="1" x2="1" y1="1" y2="99" class="stroke_order_diagram--bounding_box"></line><line x1="1" x2="699" y1="99" y2="99" class="stroke_order_diagram--bounding_box"></line><line x1="0" x2="700" y1="50" y2="50" class="stroke_order_diagram--guide_line"></line><line x1="50" x2="50" y1="1" y2="99" class="stroke_order_diagram--guide_line"></line><line x1="99" x2="99" y1="1" y2="99" class="stroke_order_diagram--bounding_box"></line><path id="kvg:05e8f-s1" kvg:type="㇑a" d="M54.31,8.13c0.84,0.84,1.51,2.62,1.51,4.15c0,1.96-0.07,4.09-0.07,8.96" transform="matrix(1,0,0,1,-4,-4)" class="stroke_order_diagram--current_path"></path><path id="pathSk2v596cn29fa" kvg:type="㇑a" d="M54.31,8.13c0.84,0.84,1.51,2.62,1.51,4.15c0,1.96-0.07,4.09-0.07,8.96" transform="matrix(1,0,0,1,-4,-4)" class="stroke_order_diagram--current_path"></path><circle cx="54.31" cy="8.13" r="8" class="stroke_order_diagram--path_start" transform="matrix(1,0,0,1,-4,-4)"></circle><line x1="150" x2="150" y1="1" y2="99" class="stroke_order_diagram--guide_line"></line><line x1="199" x2="199" y1="1" y2="99" class="stroke_order_diagram--bounding_box"></line><path id="pathSk2v596cn29fd" kvg:type="㇑a" d="M54.31,8.13c0.84,0.84,1.51,2.62,1.51,4.15c0,1.96-0.07,4.09-0.07,8.96" transform="matrix(1,0,0,1,96,-4)" class="stroke_order_diagram--existing_path"></path><path id="kvg:05e8f-s2" kvg:type="㇐" d="M21.13,24.23c1.52,0.54,4.3,0.63,5.82,0.54c15.8-0.91,43.05-5.02,59.61-5.73c2.53-0.11,4.05,0.26,5.31,0.53" transform="matrix(1,0,0,1,96,-4)" class="stroke_order_diagram--current_path"></path><path id="pathSk2v596cn29ff" kvg:type="㇐" d="M21.13,24.23c1.52,0.54,4.3,0.63,5.82,0.54c15.8-0.91,43.05-5.02,59.61-5.73c2.53-0.11,4.05,0.26,5.31,0.53" transform="matrix(1,0,0,1,96,-4)" class="stroke_order_diagram--current_path"></path><circle cx="21.13" cy="24.23" r="8" class="stroke_order_diagram--path_start" transform="matrix(1,0,0,1,96,-4)"></circle><line x1="250" x2="250" y1="1" y2="99" class="stroke_order_diagram--guide_line"></line><line x1="299" x2="299" y1="1" y2="99" class="stroke_order_diagram--bounding_box"></line><path id="pathSk2v596cn29fi" kvg:type="㇑a" d="M54.31,8.13c0.84,0.84,1.51,2.62,1.51,4.15c0,1.96-0.07,4.09-0.07,8.96" transform="matrix(1,0,0,1,196,-4)" class="stroke_order_diagram--existing_path"></path><path id="pathSk2v596cn29fj" kvg:type="㇐" d="M21.13,24.23c1.52,0.54,4.3,0.63,5.82,0.54c15.8-0.91,43.05-5.02,59.61-5.73c2.53-0.11,4.05,0.26,5.31,0.53" transform="matrix(1,0,0,1,196,-4)" class="stroke_order_diagram--existing_path"></path><path id="kvg:05e8f-s3" kvg:type="㇒" d="M24.74,25c0.88,0.88,1.3,2.51,1.16,4.61c-1.4,20.27-3.52,42.02-16.09,58.86" transform="matrix(1,0,0,1,196,-4)" class="stroke_order_diagram--current_path"></path><path id="pathSk2v596cn29fl" kvg:type="㇒" d="M24.74,25c0.88,0.88,1.3,2.51,1.16,4.61c-1.4,20.27-3.52,42.02-16.09,58.86" transform="matrix(1,0,0,1,196,-4)" class="stroke_order_diagram--current_path"></path><circle cx="24.74" cy="25" r="8" class="stroke_order_diagram--path_start" transform="matrix(1,0,0,1,196,-4)"></circle><line x1="350" x2="350" y1="1" y2="99" class="stroke_order_diagram--guide_line"></line><line x1="399" x2="399" y1="1" y2="99" class="stroke_order_diagram--bounding_box"></line><path id="pathSk2v596cn29fo" kvg:type="㇑a" d="M54.31,8.13c0.84,0.84,1.51,2.62,1.51,4.15c0,1.96-0.07,4.09-0.07,8.96" transform="matrix(1,0,0,1,296,-4)" class="stroke_order_diagram--existing_path"></path><path id="pathSk2v596cn29fp" kvg:type="㇐" d="M21.13,24.23c1.52,0.54,4.3,0.63,5.82,0.54c15.8-0.91,43.05-5.02,59.61-5.73c2.53-0.11,4.05,0.26,5.31,0.53" transform="matrix(1,0,0,1,296,-4)" class="stroke_order_diagram--existing_path"></path><path id="pathSk2v596cn29fq" kvg:type="㇒" d="M24.74,25c0.88,0.88,1.3,2.51,1.16,4.61c-1.4,20.27-3.52,42.02-16.09,58.86" transform="matrix(1,0,0,1,296,-4)" class="stroke_order_diagram--existing_path"></path><path id="kvg:05e8f-s4" kvg:type="㇇" d="M42.7,33.92c1.18,0.58,3.55,0.5,4.9,0.29c2.67-0.42,21.39-4.3,24.2-4.72c2.82-0.42,3.78,1.77,2.1,3.14c-2.88,2.36-13.42,11.66-15.2,13.34" transform="matrix(1,0,0,1,296,-4)" class="stroke_order_diagram--current_path"></path><path id="pathSk2v596cn29fs" kvg:type="㇇" d="M42.7,33.92c1.18,0.58,3.55,0.5,4.9,0.29c2.67-0.42,21.39-4.3,24.2-4.72c2.82-0.42,3.78,1.77,2.1,3.14c-2.88,2.36-13.42,11.66-15.2,13.34" transform="matrix(1,0,0,1,296,-4)" class="stroke_order_diagram--current_path"></path><circle cx="42.7" cy="33.92" r="8" class="stroke_order_diagram--path_start" transform="matrix(1,0,0,1,296,-4)"></circle><line x1="450" x2="450" y1="1" y2="99" class="stroke_order_diagram--guide_line"></line><line x1="499" x2="499" y1="1" y2="99" class="stroke_order_diagram--bounding_box"></line><path id="pathSk2v596cn29fv" kvg:type="㇑a" d="M54.31,8.13c0.84,0.84,1.51,2.62,1.51,4.15c0,1.96-0.07,4.09-0.07,8.96" transform="matrix(1,0,0,1,396,-4)" class="stroke_order_diagram--existing_path"></path><path id="pathSk2v596cn29fw" kvg:type="㇐" d="M21.13,24.23c1.52,0.54,4.3,0.63,5.82,0.54c15.8-0.91,43.05-5.02,59.61-5.73c2.53-0.11,4.05,0.26,5.31,0.53" transform="matrix(1,0,0,1,396,-4)" class="stroke_order_diagram--existing_path"></path><path id="pathSk2v596cn29fx" kvg:type="㇒" d="M24.74,25c0.88,0.88,1.3,2.51,1.16,4.61c-1.4,20.27-3.52,42.02-16.09,58.86" transform="matrix(1,0,0,1,396,-4)" class="stroke_order_diagram--existing_path"></path><path id="pathSk2v596cn29fy" kvg:type="㇇" d="M42.7,33.92c1.18,0.58,3.55,0.5,4.9,0.29c2.67-0.42,21.39-4.3,24.2-4.72c2.82-0.42,3.78,1.77,2.1,3.14c-2.88,2.36-13.42,11.66-15.2,13.34" transform="matrix(1,0,0,1,396,-4)" class="stroke_order_diagram--existing_path"></path><path id="kvg:05e8f-s5" kvg:type="㇔" d="M49.5,42.25c2.66,1.18,9.55,5.74,10.8,8.83" transform="matrix(1,0,0,1,396,-4)" class="stroke_order_diagram--current_path"></path><path id="pathSk2v596cn29g0" kvg:type="㇔" d="M49.5,42.25c2.66,1.18,9.55,5.74,10.8,8.83" transform="matrix(1,0,0,1,396,-4)" class="stroke_order_diagram--current_path"></path><circle cx="49.5" cy="42.25" r="8" class="stroke_order_diagram--path_start" transform="matrix(1,0,0,1,396,-4)"></circle><line x1="550" x2="550" y1="1" y2="99" class="stroke_order_diagram--guide_line"></line><line x1="599" x2="599" y1="1" y2="99" class="stroke_order_diagram--bounding_box"></line><path id="pathSk2v596cn29g3" kvg:type="㇑a" d="M54.31,8.13c0.84,0.84,1.51,2.62,1.51,4.15c0,1.96-0.07,4.09-0.07,8.96" transform="matrix(1,0,0,1,496,-4)" class="stroke_order_diagram--existing_path"></path><path id="pathSk2v596cn29g4" kvg:type="㇐" d="M21.13,24.23c1.52,0.54,4.3,0.63,5.82,0.54c15.8-0.91,43.05-5.02,59.61-5.73c2.53-0.11,4.05,0.26,5.31,0.53" transform="matrix(1,0,0,1,496,-4)" class="stroke_order_diagram--existing_path"></path><path id="pathSk2v596cn29g5" kvg:type="㇒" d="M24.74,25c0.88,0.88,1.3,2.51,1.16,4.61c-1.4,20.27-3.52,42.02-16.09,58.86" transform="matrix(1,0,0,1,496,-4)" class="stroke_order_diagram--existing_path"></path><path id="pathSk2v596cn29g6" kvg:type="㇇" d="M42.7,33.92c1.18,0.58,3.55,0.5,4.9,0.29c2.67-0.42,21.39-4.3,24.2-4.72c2.82-0.42,3.78,1.77,2.1,3.14c-2.88,2.36-13.42,11.66-15.2,13.34" transform="matrix(1,0,0,1,496,-4)" class="stroke_order_diagram--existing_path"></path><path id="pathSk2v596cn29g7" kvg:type="㇔" d="M49.5,42.25c2.66,1.18,9.55,5.74,10.8,8.83" transform="matrix(1,0,0,1,496,-4)" class="stroke_order_diagram--existing_path"></path><path id="kvg:05e8f-s6" kvg:type="㇇a" d="M32.84,57.58c2.41,0.54,3.93,0.76,6.24,0.31c8.42-1.64,30.44-6.27,42.59-7.24c8.57-0.69,2.57,5.1-1.93,9.6" transform="matrix(1,0,0,1,496,-4)" class="stroke_order_diagram--current_path"></path><path id="pathSk2v596cn29g9" kvg:type="㇇a" d="M32.84,57.58c2.41,0.54,3.93,0.76,6.24,0.31c8.42-1.64,30.44-6.27,42.59-7.24c8.57-0.69,2.57,5.1-1.93,9.6" transform="matrix(1,0,0,1,496,-4)" class="stroke_order_diagram--current_path"></path><circle cx="32.84" cy="57.58" r="8" class="stroke_order_diagram--path_start" transform="matrix(1,0,0,1,496,-4)"></circle><line x1="650" x2="650" y1="1" y2="99" class="stroke_order_diagram--guide_line"></line><line x1="699" x2="699" y1="1" y2="99" class="stroke_order_diagram--bounding_box"></line><path id="pathSk2v596cn29gc" kvg:type="㇑a" d="M54.31,8.13c0.84,0.84,1.51,2.62,1.51,4.15c0,1.96-0.07,4.09-0.07,8.96" transform="matrix(1,0,0,1,596,-4)" class="stroke_order_diagram--existing_path"></path><path id="pathSk2v596cn29gd" kvg:type="㇐" d="M21.13,24.23c1.52,0.54,4.3,0.63,5.82,0.54c15.8-0.91,43.05-5.02,59.61-5.73c2.53-0.11,4.05,0.26,5.31,0.53" transform="matrix(1,0,0,1,596,-4)" class="stroke_order_diagram--existing_path"></path><path id="pathSk2v596cn29ge" kvg:type="㇒" d="M24.74,25c0.88,0.88,1.3,2.51,1.16,4.61c-1.4,20.27-3.52,42.02-16.09,58.86" transform="matrix(1,0,0,1,596,-4)" class="stroke_order_diagram--existing_path"></path><path id="pathSk2v596cn29gf" kvg:type="㇇" d="M42.7,33.92c1.18,0.58,3.55,0.5,4.9,0.29c2.67-0.42,21.39-4.3,24.2-4.72c2.82-0.42,3.78,1.77,2.1,3.14c-2.88,2.36-13.42,11.66-15.2,13.34" transform="matrix(1,0,0,1,596,-4)" class="stroke_order_diagram--existing_path"></path><path id="pathSk2v596cn29gg" kvg:type="㇔" d="M49.5,42.25c2.66,1.18,9.55,5.74,10.8,8.83" transform="matrix(1,0,0,1,596,-4)" class="stroke_order_diagram--existing_path"></path><path id="pathSk2v596cn29gh" kvg:type="㇇a" d="M32.84,57.58c2.41,0.54,3.93,0.76,6.24,0.31c8.42-1.64,30.44-6.27,42.59-7.24c8.57-0.69,2.57,5.1-1.93,9.6" transform="matrix(1,0,0,1,596,-4)" class="stroke_order_diagram--existing_path"></path><path id="kvg:05e8f-s7" kvg:type="㇚" d="M60.46,55.91c0.87,0.88,1.33,2.58,1.33,4.16c0,1.57-0.02,30.9-0.02,33.78c0,9.78-5.77,1.03-7.81-1.54" transform="matrix(1,0,0,1,596,-4)" class="stroke_order_diagram--current_path"></path><path id="pathSk2v596cn29gj" kvg:type="㇚" d="M60.46,55.91c0.87,0.88,1.33,2.58,1.33,4.16c0,1.57-0.02,30.9-0.02,33.78c0,9.78-5.77,1.03-7.81-1.54" transform="matrix(1,0,0,1,596,-4)" class="stroke_order_diagram--current_path"></path><circle cx="60.46" cy="55.91" r="8" class="stroke_order_diagram--path_start" transform="matrix(1,0,0,1,596,-4)"></circle></svg>