<svg style="width: 1000px; height: 100px;" viewbox="0 0 1000 100"><style>
.stroke_order_diagram--outer_container {
  width: 100%;
  overflow-x: auto;
  overflow-y: hidden;
}

.stroke_order_diagram--guide_line {
  fill: none;
  stroke: #ddd;
  stroke-width: 3;
  stroke-linecap: square;
  stroke-linejoin: square;
  stroke-dasharray:8, 8;
}

.stroke_order_diagram--bounding_box {
  fill: none;
  stroke: #ddd;
  stroke-width: 4;
  stroke-linecap: square;
  stroke-linejoin: square;
}

.stroke_order_diagram--current_path {
  fill: none;
  stroke: #000;
  stroke-width: 6;
  stroke-linecap: round;
  stroke-linejoin: round;
}

.stroke_order_diagram--existing_path {
  fill: none;
  stroke: #aaa;
  stroke-width: 6;
  stroke-linecap: round;
  stroke-linejoin:round;
}

.stroke_order_diagram--path_start {
  fill: rgba(255, 0, 0, 0.7);
  stroke:none
}</style><desc>Created with Snap</desc><defs></defs><line x1="1" x2="999" y1="1" y2="1" class="stroke_order_diagram--bounding_box"></line><line x1="1" x2="1" y1="1" y2="99" class="stroke_order_diagram--bounding_box"></line><line x1="1" x2="999" y1="99" y2="99" class="stroke_order_diagram--bounding_box"></line><line x1="0" x2="1000" y1="50" y2="50" class="stroke_order_diagram--guide_line"></line><line x1="50" x2="50" y1="1" y2="99" class="stroke_order_diagram--guide_line"></line><line x1="99" x2="99" y1="1" y2="99" class="stroke_order_diagram--bounding_box"></line><path id="kvg:05ead-s1" kvg:type="㇑a" d="M53.06,10.88c1.22,1.22,1.76,2.49,1.76,3.9c0,1.71,0.18,3.34,0.18,8.71" transform="matrix(1,0,0,1,-4,-4)" class="stroke_order_diagram--current_path"></path><path id="pathSk2v596cnlvl" kvg:type="㇑a" d="M53.06,10.88c1.22,1.22,1.76,2.49,1.76,3.9c0,1.71,0.18,3.34,0.18,8.71" transform="matrix(1,0,0,1,-4,-4)" class="stroke_order_diagram--current_path"></path><circle cx="53.06" cy="10.88" r="8" class="stroke_order_diagram--path_start" transform="matrix(1,0,0,1,-4,-4)"></circle><line x1="150" x2="150" y1="1" y2="99" class="stroke_order_diagram--guide_line"></line><line x1="199" x2="199" y1="1" y2="99" class="stroke_order_diagram--bounding_box"></line><path id="pathSk2v596cnlvo" kvg:type="㇑a" d="M53.06,10.88c1.22,1.22,1.76,2.49,1.76,3.9c0,1.71,0.18,3.34,0.18,8.71" transform="matrix(1,0,0,1,96,-4)" class="stroke_order_diagram--existing_path"></path><path id="kvg:05ead-s2" kvg:type="㇐" d="M21.13,27.08c2.58,0.42,6.43,0.61,8.68,0.41c15.69-1.37,32.81-3.62,49.76-4.68c3.76-0.24,6.04,0.07,7.93,0.4" transform="matrix(1,0,0,1,96,-4)" class="stroke_order_diagram--current_path"></path><path id="pathSk2v596cnlvq" kvg:type="㇐" d="M21.13,27.08c2.58,0.42,6.43,0.61,8.68,0.41c15.69-1.37,32.81-3.62,49.76-4.68c3.76-0.24,6.04,0.07,7.93,0.4" transform="matrix(1,0,0,1,96,-4)" class="stroke_order_diagram--current_path"></path><circle cx="21.13" cy="27.08" r="8" class="stroke_order_diagram--path_start" transform="matrix(1,0,0,1,96,-4)"></circle><line x1="250" x2="250" y1="1" y2="99" class="stroke_order_diagram--guide_line"></line><line x1="299" x2="299" y1="1" y2="99" class="stroke_order_diagram--bounding_box"></line><path id="pathSk2v596cnlvt" kvg:type="㇑a" d="M53.06,10.88c1.22,1.22,1.76,2.49,1.76,3.9c0,1.71,0.18,3.34,0.18,8.71" transform="matrix(1,0,0,1,196,-4)" class="stroke_order_diagram--existing_path"></path><path id="pathSk2v596cnlvu" kvg:type="㇐" d="M21.13,27.08c2.58,0.42,6.43,0.61,8.68,0.41c15.69-1.37,32.81-3.62,49.76-4.68c3.76-0.24,6.04,0.07,7.93,0.4" transform="matrix(1,0,0,1,196,-4)" class="stroke_order_diagram--existing_path"></path><path id="kvg:05ead-s3" kvg:type="㇒" d="M24.18,28c0.83,0.83,1.21,1.92,1.23,3.61C25.75,65.75,21.88,81,10.88,92.48" transform="matrix(1,0,0,1,196,-4)" class="stroke_order_diagram--current_path"></path><path id="pathSk2v596cnlvw" kvg:type="㇒" d="M24.18,28c0.83,0.83,1.21,1.92,1.23,3.61C25.75,65.75,21.88,81,10.88,92.48" transform="matrix(1,0,0,1,196,-4)" class="stroke_order_diagram--current_path"></path><circle cx="24.18" cy="28" r="8" class="stroke_order_diagram--path_start" transform="matrix(1,0,0,1,196,-4)"></circle><line x1="350" x2="350" y1="1" y2="99" class="stroke_order_diagram--guide_line"></line><line x1="399" x2="399" y1="1" y2="99" class="stroke_order_diagram--bounding_box"></line><path id="pathSk2v596cnlvz" kvg:type="㇑a" d="M53.06,10.88c1.22,1.22,1.76,2.49,1.76,3.9c0,1.71,0.18,3.34,0.18,8.71" transform="matrix(1,0,0,1,296,-4)" class="stroke_order_diagram--existing_path"></path><path id="pathSk2v596cnlw0" kvg:type="㇐" d="M21.13,27.08c2.58,0.42,6.43,0.61,8.68,0.41c15.69-1.37,32.81-3.62,49.76-4.68c3.76-0.24,6.04,0.07,7.93,0.4" transform="matrix(1,0,0,1,296,-4)" class="stroke_order_diagram--existing_path"></path><path id="pathSk2v596cnlw1" kvg:type="㇒" d="M24.18,28c0.83,0.83,1.21,1.92,1.23,3.61C25.75,65.75,21.88,81,10.88,92.48" transform="matrix(1,0,0,1,296,-4)" class="stroke_order_diagram--existing_path"></path><path id="kvg:05ead-s4" kvg:type="㇒" d="M79.04,31.82c0.12,0.8-0.4,1.93-1.06,2.4c-2.61,2.6-9.82,7.07-20.32,9.83" transform="matrix(1,0,0,1,296,-4)" class="stroke_order_diagram--current_path"></path><path id="pathSk2v596cnlw3" kvg:type="㇒" d="M79.04,31.82c0.12,0.8-0.4,1.93-1.06,2.4c-2.61,2.6-9.82,7.07-20.32,9.83" transform="matrix(1,0,0,1,296,-4)" class="stroke_order_diagram--current_path"></path><circle cx="79.04" cy="31.82" r="8" class="stroke_order_diagram--path_start" transform="matrix(1,0,0,1,296,-4)"></circle><line x1="450" x2="450" y1="1" y2="99" class="stroke_order_diagram--guide_line"></line><line x1="499" x2="499" y1="1" y2="99" class="stroke_order_diagram--bounding_box"></line><path id="pathSk2v596cnlw6" kvg:type="㇑a" d="M53.06,10.88c1.22,1.22,1.76,2.49,1.76,3.9c0,1.71,0.18,3.34,0.18,8.71" transform="matrix(1,0,0,1,396,-4)" class="stroke_order_diagram--existing_path"></path><path id="pathSk2v596cnlw7" kvg:type="㇐" d="M21.13,27.08c2.58,0.42,6.43,0.61,8.68,0.41c15.69-1.37,32.81-3.62,49.76-4.68c3.76-0.24,6.04,0.07,7.93,0.4" transform="matrix(1,0,0,1,396,-4)" class="stroke_order_diagram--existing_path"></path><path id="pathSk2v596cnlw8" kvg:type="㇒" d="M24.18,28c0.83,0.83,1.21,1.92,1.23,3.61C25.75,65.75,21.88,81,10.88,92.48" transform="matrix(1,0,0,1,396,-4)" class="stroke_order_diagram--existing_path"></path><path id="pathSk2v596cnlw9" kvg:type="㇒" d="M79.04,31.82c0.12,0.8-0.4,1.93-1.06,2.4c-2.61,2.6-9.82,7.07-20.32,9.83" transform="matrix(1,0,0,1,396,-4)" class="stroke_order_diagram--existing_path"></path><path id="kvg:05ead-s5" kvg:type="㇐" d="M54.22,55.82c1.35,0.4,3.84,0.53,5.19,0.4c7.34-0.71,17.84-2.44,26.14-2.89c2.25-0.12,3.45,0.03,4.74,0.39" transform="matrix(1,0,0,1,396,-4)" class="stroke_order_diagram--current_path"></path><path id="pathSk2v596cnlwb" kvg:type="㇐" d="M54.22,55.82c1.35,0.4,3.84,0.53,5.19,0.4c7.34-0.71,17.84-2.44,26.14-2.89c2.25-0.12,3.45,0.03,4.74,0.39" transform="matrix(1,0,0,1,396,-4)" class="stroke_order_diagram--current_path"></path><circle cx="54.22" cy="55.82" r="8" class="stroke_order_diagram--path_start" transform="matrix(1,0,0,1,396,-4)"></circle><line x1="550" x2="550" y1="1" y2="99" class="stroke_order_diagram--guide_line"></line><line x1="599" x2="599" y1="1" y2="99" class="stroke_order_diagram--bounding_box"></line><path id="pathSk2v596cnlwe" kvg:type="㇑a" d="M53.06,10.88c1.22,1.22,1.76,2.49,1.76,3.9c0,1.71,0.18,3.34,0.18,8.71" transform="matrix(1,0,0,1,496,-4)" class="stroke_order_diagram--existing_path"></path><path id="pathSk2v596cnlwf" kvg:type="㇐" d="M21.13,27.08c2.58,0.42,6.43,0.61,8.68,0.41c15.69-1.37,32.81-3.62,49.76-4.68c3.76-0.24,6.04,0.07,7.93,0.4" transform="matrix(1,0,0,1,496,-4)" class="stroke_order_diagram--existing_path"></path><path id="pathSk2v596cnlwg" kvg:type="㇒" d="M24.18,28c0.83,0.83,1.21,1.92,1.23,3.61C25.75,65.75,21.88,81,10.88,92.48" transform="matrix(1,0,0,1,496,-4)" class="stroke_order_diagram--existing_path"></path><path id="pathSk2v596cnlwh" kvg:type="㇒" d="M79.04,31.82c0.12,0.8-0.4,1.93-1.06,2.4c-2.61,2.6-9.82,7.07-20.32,9.83" transform="matrix(1,0,0,1,496,-4)" class="stroke_order_diagram--existing_path"></path><path id="pathSk2v596cnlwi" kvg:type="㇐" d="M54.22,55.82c1.35,0.4,3.84,0.53,5.19,0.4c7.34-0.71,17.84-2.44,26.14-2.89c2.25-0.12,3.45,0.03,4.74,0.39" transform="matrix(1,0,0,1,496,-4)" class="stroke_order_diagram--existing_path"></path><path id="kvg:05ead-s6" kvg:type="㇑a" d="M69.87,42.8c0.91,0.91,1.44,2.33,1.44,3.9c0,3.18-0.06,18.18-0.06,25.37" transform="matrix(1,0,0,1,496,-4)" class="stroke_order_diagram--current_path"></path><path id="pathSk2v596cnlwk" kvg:type="㇑a" d="M69.87,42.8c0.91,0.91,1.44,2.33,1.44,3.9c0,3.18-0.06,18.18-0.06,25.37" transform="matrix(1,0,0,1,496,-4)" class="stroke_order_diagram--current_path"></path><circle cx="69.87" cy="42.8" r="8" class="stroke_order_diagram--path_start" transform="matrix(1,0,0,1,496,-4)"></circle><line x1="650" x2="650" y1="1" y2="99" class="stroke_order_diagram--guide_line"></line><line x1="699" x2="699" y1="1" y2="99" class="stroke_order_diagram--bounding_box"></line><path id="pathSk2v596cnlwn" kvg:type="㇑a" d="M53.06,10.88c1.22,1.22,1.76,2.49,1.76,3.9c0,1.71,0.18,3.34,0.18,8.71" transform="matrix(1,0,0,1,596,-4)" class="stroke_order_diagram--existing_path"></path><path id="pathSk2v596cnlwo" kvg:type="㇐" d="M21.13,27.08c2.58,0.42,6.43,0.61,8.68,0.41c15.69-1.37,32.81-3.62,49.76-4.68c3.76-0.24,6.04,0.07,7.93,0.4" transform="matrix(1,0,0,1,596,-4)" class="stroke_order_diagram--existing_path"></path><path id="pathSk2v596cnlwp" kvg:type="㇒" d="M24.18,28c0.83,0.83,1.21,1.92,1.23,3.61C25.75,65.75,21.88,81,10.88,92.48" transform="matrix(1,0,0,1,596,-4)" class="stroke_order_diagram--existing_path"></path><path id="pathSk2v596cnlwq" kvg:type="㇒" d="M79.04,31.82c0.12,0.8-0.4,1.93-1.06,2.4c-2.61,2.6-9.82,7.07-20.32,9.83" transform="matrix(1,0,0,1,596,-4)" class="stroke_order_diagram--existing_path"></path><path id="pathSk2v596cnlwr" kvg:type="㇐" d="M54.22,55.82c1.35,0.4,3.84,0.53,5.19,0.4c7.34-0.71,17.84-2.44,26.14-2.89c2.25-0.12,3.45,0.03,4.74,0.39" transform="matrix(1,0,0,1,596,-4)" class="stroke_order_diagram--existing_path"></path><path id="pathSk2v596cnlws" kvg:type="㇑a" d="M69.87,42.8c0.91,0.91,1.44,2.33,1.44,3.9c0,3.18-0.06,18.18-0.06,25.37" transform="matrix(1,0,0,1,596,-4)" class="stroke_order_diagram--existing_path"></path><path id="kvg:05ead-s7" kvg:type="㇐" d="M57.31,74.21c1.18,0.27,3.35,0.38,4.52,0.27c6.17-0.6,16.42-1.95,22.76-2.24c1.96-0.09,3.15,0.13,4.13,0.26" transform="matrix(1,0,0,1,596,-4)" class="stroke_order_diagram--current_path"></path><path id="pathSk2v596cnlwu" kvg:type="㇐" d="M57.31,74.21c1.18,0.27,3.35,0.38,4.52,0.27c6.17-0.6,16.42-1.95,22.76-2.24c1.96-0.09,3.15,0.13,4.13,0.26" transform="matrix(1,0,0,1,596,-4)" class="stroke_order_diagram--current_path"></path><circle cx="57.31" cy="74.21" r="8" class="stroke_order_diagram--path_start" transform="matrix(1,0,0,1,596,-4)"></circle><line x1="750" x2="750" y1="1" y2="99" class="stroke_order_diagram--guide_line"></line><line x1="799" x2="799" y1="1" y2="99" class="stroke_order_diagram--bounding_box"></line><path id="pathSk2v596cnlwx" kvg:type="㇑a" d="M53.06,10.88c1.22,1.22,1.76,2.49,1.76,3.9c0,1.71,0.18,3.34,0.18,8.71" transform="matrix(1,0,0,1,696,-4)" class="stroke_order_diagram--existing_path"></path><path id="pathSk2v596cnlwy" kvg:type="㇐" d="M21.13,27.08c2.58,0.42,6.43,0.61,8.68,0.41c15.69-1.37,32.81-3.62,49.76-4.68c3.76-0.24,6.04,0.07,7.93,0.4" transform="matrix(1,0,0,1,696,-4)" class="stroke_order_diagram--existing_path"></path><path id="pathSk2v596cnlwz" kvg:type="㇒" d="M24.18,28c0.83,0.83,1.21,1.92,1.23,3.61C25.75,65.75,21.88,81,10.88,92.48" transform="matrix(1,0,0,1,696,-4)" class="stroke_order_diagram--existing_path"></path><path id="pathSk2v596cnlx0" kvg:type="㇒" d="M79.04,31.82c0.12,0.8-0.4,1.93-1.06,2.4c-2.61,2.6-9.82,7.07-20.32,9.83" transform="matrix(1,0,0,1,696,-4)" class="stroke_order_diagram--existing_path"></path><path id="pathSk2v596cnlx1" kvg:type="㇐" d="M54.22,55.82c1.35,0.4,3.84,0.53,5.19,0.4c7.34-0.71,17.84-2.44,26.14-2.89c2.25-0.12,3.45,0.03,4.74,0.39" transform="matrix(1,0,0,1,696,-4)" class="stroke_order_diagram--existing_path"></path><path id="pathSk2v596cnlx2" kvg:type="㇑a" d="M69.87,42.8c0.91,0.91,1.44,2.33,1.44,3.9c0,3.18-0.06,18.18-0.06,25.37" transform="matrix(1,0,0,1,696,-4)" class="stroke_order_diagram--existing_path"></path><path id="pathSk2v596cnlx3" kvg:type="㇐" d="M57.31,74.21c1.18,0.27,3.35,0.38,4.52,0.27c6.17-0.6,16.42-1.95,22.76-2.24c1.96-0.09,3.15,0.13,4.13,0.26" transform="matrix(1,0,0,1,696,-4)" class="stroke_order_diagram--existing_path"></path><path id="kvg:05ead-s8" kvg:type="㇇" d="M31.25,42.32c1,0.43,2.71,0.9,4.04,0.54c2.21-0.61,4.46-1.73,6.98-3.1c2.41-1.31,4.14,0.13,2.89,2.85c-1.91,4.15-5.03,10.77-7.78,16.43" transform="matrix(1,0,0,1,696,-4)" class="stroke_order_diagram--current_path"></path><path id="pathSk2v596cnlx5" kvg:type="㇇" d="M31.25,42.32c1,0.43,2.71,0.9,4.04,0.54c2.21-0.61,4.46-1.73,6.98-3.1c2.41-1.31,4.14,0.13,2.89,2.85c-1.91,4.15-5.03,10.77-7.78,16.43" transform="matrix(1,0,0,1,696,-4)" class="stroke_order_diagram--current_path"></path><circle cx="31.25" cy="42.32" r="8" class="stroke_order_diagram--path_start" transform="matrix(1,0,0,1,696,-4)"></circle><line x1="850" x2="850" y1="1" y2="99" class="stroke_order_diagram--guide_line"></line><line x1="899" x2="899" y1="1" y2="99" class="stroke_order_diagram--bounding_box"></line><path id="pathSk2v596cnlx8" kvg:type="㇑a" d="M53.06,10.88c1.22,1.22,1.76,2.49,1.76,3.9c0,1.71,0.18,3.34,0.18,8.71" transform="matrix(1,0,0,1,796,-4)" class="stroke_order_diagram--existing_path"></path><path id="pathSk2v596cnlx9" kvg:type="㇐" d="M21.13,27.08c2.58,0.42,6.43,0.61,8.68,0.41c15.69-1.37,32.81-3.62,49.76-4.68c3.76-0.24,6.04,0.07,7.93,0.4" transform="matrix(1,0,0,1,796,-4)" class="stroke_order_diagram--existing_path"></path><path id="pathSk2v596cnlxa" kvg:type="㇒" d="M24.18,28c0.83,0.83,1.21,1.92,1.23,3.61C25.75,65.75,21.88,81,10.88,92.48" transform="matrix(1,0,0,1,796,-4)" class="stroke_order_diagram--existing_path"></path><path id="pathSk2v596cnlxb" kvg:type="㇒" d="M79.04,31.82c0.12,0.8-0.4,1.93-1.06,2.4c-2.61,2.6-9.82,7.07-20.32,9.83" transform="matrix(1,0,0,1,796,-4)" class="stroke_order_diagram--existing_path"></path><path id="pathSk2v596cnlxc" kvg:type="㇐" d="M54.22,55.82c1.35,0.4,3.84,0.53,5.19,0.4c7.34-0.71,17.84-2.44,26.14-2.89c2.25-0.12,3.45,0.03,4.74,0.39" transform="matrix(1,0,0,1,796,-4)" class="stroke_order_diagram--existing_path"></path><path id="pathSk2v596cnlxd" kvg:type="㇑a" d="M69.87,42.8c0.91,0.91,1.44,2.33,1.44,3.9c0,3.18-0.06,18.18-0.06,25.37" transform="matrix(1,0,0,1,796,-4)" class="stroke_order_diagram--existing_path"></path><path id="pathSk2v596cnlxe" kvg:type="㇐" d="M57.31,74.21c1.18,0.27,3.35,0.38,4.52,0.27c6.17-0.6,16.42-1.95,22.76-2.24c1.96-0.09,3.15,0.13,4.13,0.26" transform="matrix(1,0,0,1,796,-4)" class="stroke_order_diagram--existing_path"></path><path id="pathSk2v596cnlxf" kvg:type="㇇" d="M31.25,42.32c1,0.43,2.71,0.9,4.04,0.54c2.21-0.61,4.46-1.73,6.98-3.1c2.41-1.31,4.14,0.13,2.89,2.85c-1.91,4.15-5.03,10.77-7.78,16.43" transform="matrix(1,0,0,1,796,-4)" class="stroke_order_diagram--existing_path"></path><path id="kvg:05ead-s9" kvg:type="㇇a" d="M36.81,59.75c3.07-0.87,4.78-1.38,7.77-2.65c3.17-1.35,4.76-0.1,3.98,3.04C45.88,70.88,39.5,84.5,27.18,92.81" transform="matrix(1,0,0,1,796,-4)" class="stroke_order_diagram--current_path"></path><path id="pathSk2v596cnlxh" kvg:type="㇇a" d="M36.81,59.75c3.07-0.87,4.78-1.38,7.77-2.65c3.17-1.35,4.76-0.1,3.98,3.04C45.88,70.88,39.5,84.5,27.18,92.81" transform="matrix(1,0,0,1,796,-4)" class="stroke_order_diagram--current_path"></path><circle cx="36.81" cy="59.75" r="8" class="stroke_order_diagram--path_start" transform="matrix(1,0,0,1,796,-4)"></circle><line x1="950" x2="950" y1="1" y2="99" class="stroke_order_diagram--guide_line"></line><line x1="999" x2="999" y1="1" y2="99" class="stroke_order_diagram--bounding_box"></line><path id="pathSk2v596cnlxk" kvg:type="㇑a" d="M53.06,10.88c1.22,1.22,1.76,2.49,1.76,3.9c0,1.71,0.18,3.34,0.18,8.71" transform="matrix(1,0,0,1,896,-4)" class="stroke_order_diagram--existing_path"></path><path id="pathSk2v596cnlxl" kvg:type="㇐" d="M21.13,27.08c2.58,0.42,6.43,0.61,8.68,0.41c15.69-1.37,32.81-3.62,49.76-4.68c3.76-0.24,6.04,0.07,7.93,0.4" transform="matrix(1,0,0,1,896,-4)" class="stroke_order_diagram--existing_path"></path><path id="pathSk2v596cnlxm" kvg:type="㇒" d="M24.18,28c0.83,0.83,1.21,1.92,1.23,3.61C25.75,65.75,21.88,81,10.88,92.48" transform="matrix(1,0,0,1,896,-4)" class="stroke_order_diagram--existing_path"></path><path id="pathSk2v596cnlxn" kvg:type="㇒" d="M79.04,31.82c0.12,0.8-0.4,1.93-1.06,2.4c-2.61,2.6-9.82,7.07-20.32,9.83" transform="matrix(1,0,0,1,896,-4)" class="stroke_order_diagram--existing_path"></path><path id="pathSk2v596cnlxo" kvg:type="㇐" d="M54.22,55.82c1.35,0.4,3.84,0.53,5.19,0.4c7.34-0.71,17.84-2.44,26.14-2.89c2.25-0.12,3.45,0.03,4.74,0.39" transform="matrix(1,0,0,1,896,-4)" class="stroke_order_diagram--existing_path"></path><path id="pathSk2v596cnlxp" kvg:type="㇑a" d="M69.87,42.8c0.91,0.91,1.44,2.33,1.44,3.9c0,3.18-0.06,18.18-0.06,25.37" transform="matrix(1,0,0,1,896,-4)" class="stroke_order_diagram--existing_path"></path><path id="pathSk2v596cnlxq" kvg:type="㇐" d="M57.31,74.21c1.18,0.27,3.35,0.38,4.52,0.27c6.17-0.6,16.42-1.95,22.76-2.24c1.96-0.09,3.15,0.13,4.13,0.26" transform="matrix(1,0,0,1,896,-4)" class="stroke_order_diagram--existing_path"></path><path id="pathSk2v596cnlxr" kvg:type="㇇" d="M31.25,42.32c1,0.43,2.71,0.9,4.04,0.54c2.21-0.61,4.46-1.73,6.98-3.1c2.41-1.31,4.14,0.13,2.89,2.85c-1.91,4.15-5.03,10.77-7.78,16.43" transform="matrix(1,0,0,1,896,-4)" class="stroke_order_diagram--existing_path"></path><path id="pathSk2v596cnlxs" kvg:type="㇇a" d="M36.81,59.75c3.07-0.87,4.78-1.38,7.77-2.65c3.17-1.35,4.76-0.1,3.98,3.04C45.88,70.88,39.5,84.5,27.18,92.81" transform="matrix(1,0,0,1,896,-4)" class="stroke_order_diagram--existing_path"></path><path id="kvg:05ead-s10" kvg:type="㇏" d="M29.2,69.49c5.19-0.17,37.05,18.76,51.41,24.53c2.61,1.05,4.89,2.1,8.62,2.73" transform="matrix(1,0,0,1,896,-4)" class="stroke_order_diagram--current_path"></path><path id="pathSk2v596cnlxu" kvg:type="㇏" d="M29.2,69.49c5.19-0.17,37.05,18.76,51.41,24.53c2.61,1.05,4.89,2.1,8.62,2.73" transform="matrix(1,0,0,1,896,-4)" class="stroke_order_diagram--current_path"></path><circle cx="29.2" cy="69.49" r="8" class="stroke_order_diagram--path_start" transform="matrix(1,0,0,1,896,-4)"></circle></svg>