<svg style="width: 700px; height: 100px;" viewbox="0 0 700 100"><style>
.stroke_order_diagram--outer_container {
  width: 100%;
  overflow-x: auto;
  overflow-y: hidden;
}

.stroke_order_diagram--guide_line {
  fill: none;
  stroke: #ddd;
  stroke-width: 3;
  stroke-linecap: square;
  stroke-linejoin: square;
  stroke-dasharray:8, 8;
}

.stroke_order_diagram--bounding_box {
  fill: none;
  stroke: #ddd;
  stroke-width: 4;
  stroke-linecap: square;
  stroke-linejoin: square;
}

.stroke_order_diagram--current_path {
  fill: none;
  stroke: #000;
  stroke-width: 6;
  stroke-linecap: round;
  stroke-linejoin: round;
}

.stroke_order_diagram--existing_path {
  fill: none;
  stroke: #aaa;
  stroke-width: 6;
  stroke-linecap: round;
  stroke-linejoin:round;
}

.stroke_order_diagram--path_start {
  fill: rgba(255, 0, 0, 0.7);
  stroke:none
}</style><desc>Created with Snap</desc><defs></defs><line x1="1" x2="699" y1="1" y2="1" class="stroke_order_diagram--bounding_box"></line><line x1="1" x2="1" y1="1" y2="99" class="stroke_order_diagram--bounding_box"></line><line x1="1" x2="699" y1="99" y2="99" class="stroke_order_diagram--bounding_box"></line><line x1="0" x2="700" y1="50" y2="50" class="stroke_order_diagram--guide_line"></line><line x1="50" x2="50" y1="1" y2="99" class="stroke_order_diagram--guide_line"></line><line x1="99" x2="99" y1="1" y2="99" class="stroke_order_diagram--bounding_box"></line><path id="kvg:05f1f-s1" kvg:type="㇔" d="M33.5,15c3.29,1.85,8.49,7.59,9.31,10.47" transform="matrix(1,0,0,1,-4,-4)" class="stroke_order_diagram--current_path"></path><path id="pathSk2v596cn431" kvg:type="㇔" d="M33.5,15c3.29,1.85,8.49,7.59,9.31,10.47" transform="matrix(1,0,0,1,-4,-4)" class="stroke_order_diagram--current_path"></path><circle cx="33.5" cy="15" r="8" class="stroke_order_diagram--path_start" transform="matrix(1,0,0,1,-4,-4)"></circle><line x1="150" x2="150" y1="1" y2="99" class="stroke_order_diagram--guide_line"></line><line x1="199" x2="199" y1="1" y2="99" class="stroke_order_diagram--bounding_box"></line><path id="pathSk2v596cn434" kvg:type="㇔" d="M33.5,15c3.29,1.85,8.49,7.59,9.31,10.47" transform="matrix(1,0,0,1,96,-4)" class="stroke_order_diagram--existing_path"></path><path id="kvg:05f1f-s2" kvg:type="㇒" d="M67.75,11.5c0.08,0.89-0.06,1.73-0.43,2.54C66.1,17.24,62.6,22.58,58,26" transform="matrix(1,0,0,1,96,-4)" class="stroke_order_diagram--current_path"></path><path id="pathSk2v596cn436" kvg:type="㇒" d="M67.75,11.5c0.08,0.89-0.06,1.73-0.43,2.54C66.1,17.24,62.6,22.58,58,26" transform="matrix(1,0,0,1,96,-4)" class="stroke_order_diagram--current_path"></path><circle cx="67.75" cy="11.5" r="8" class="stroke_order_diagram--path_start" transform="matrix(1,0,0,1,96,-4)"></circle><line x1="250" x2="250" y1="1" y2="99" class="stroke_order_diagram--guide_line"></line><line x1="299" x2="299" y1="1" y2="99" class="stroke_order_diagram--bounding_box"></line><path id="pathSk2v596cn439" kvg:type="㇔" d="M33.5,15c3.29,1.85,8.49,7.59,9.31,10.47" transform="matrix(1,0,0,1,196,-4)" class="stroke_order_diagram--existing_path"></path><path id="pathSk2v596cn43a" kvg:type="㇒" d="M67.75,11.5c0.08,0.89-0.06,1.73-0.43,2.54C66.1,17.24,62.6,22.58,58,26" transform="matrix(1,0,0,1,196,-4)" class="stroke_order_diagram--existing_path"></path><path id="kvg:05f1f-s3" kvg:type="㇕c" d="M23.62,32.04c2.38,0.83,5.8,0.77,8.26,0.44C45,30.75,59,28.88,76.36,26.72c2.89-0.36,4.04,2.4,3.3,4.3c-0.76,1.96-2.56,7.92-3.16,10.73" transform="matrix(1,0,0,1,196,-4)" class="stroke_order_diagram--current_path"></path><path id="pathSk2v596cn43c" kvg:type="㇕c" d="M23.62,32.04c2.38,0.83,5.8,0.77,8.26,0.44C45,30.75,59,28.88,76.36,26.72c2.89-0.36,4.04,2.4,3.3,4.3c-0.76,1.96-2.56,7.92-3.16,10.73" transform="matrix(1,0,0,1,196,-4)" class="stroke_order_diagram--current_path"></path><circle cx="23.62" cy="32.04" r="8" class="stroke_order_diagram--path_start" transform="matrix(1,0,0,1,196,-4)"></circle><line x1="350" x2="350" y1="1" y2="99" class="stroke_order_diagram--guide_line"></line><line x1="399" x2="399" y1="1" y2="99" class="stroke_order_diagram--bounding_box"></line><path id="pathSk2v596cn43f" kvg:type="㇔" d="M33.5,15c3.29,1.85,8.49,7.59,9.31,10.47" transform="matrix(1,0,0,1,296,-4)" class="stroke_order_diagram--existing_path"></path><path id="pathSk2v596cn43g" kvg:type="㇒" d="M67.75,11.5c0.08,0.89-0.06,1.73-0.43,2.54C66.1,17.24,62.6,22.58,58,26" transform="matrix(1,0,0,1,296,-4)" class="stroke_order_diagram--existing_path"></path><path id="pathSk2v596cn43h" kvg:type="㇕c" d="M23.62,32.04c2.38,0.83,5.8,0.77,8.26,0.44C45,30.75,59,28.88,76.36,26.72c2.89-0.36,4.04,2.4,3.3,4.3c-0.76,1.96-2.56,7.92-3.16,10.73" transform="matrix(1,0,0,1,296,-4)" class="stroke_order_diagram--existing_path"></path><path id="kvg:05f1f-s4" kvg:type="㇐" d="M24,47.5c1.5,0.38,3.38,0.43,5.25,0.3c11.25-0.8,31.63-2.92,45.15-4.55c1.54-0.19,3.11-0.25,4.36,0" transform="matrix(1,0,0,1,296,-4)" class="stroke_order_diagram--current_path"></path><path id="pathSk2v596cn43j" kvg:type="㇐" d="M24,47.5c1.5,0.38,3.38,0.43,5.25,0.3c11.25-0.8,31.63-2.92,45.15-4.55c1.54-0.19,3.11-0.25,4.36,0" transform="matrix(1,0,0,1,296,-4)" class="stroke_order_diagram--current_path"></path><circle cx="24" cy="47.5" r="8" class="stroke_order_diagram--path_start" transform="matrix(1,0,0,1,296,-4)"></circle><line x1="450" x2="450" y1="1" y2="99" class="stroke_order_diagram--guide_line"></line><line x1="499" x2="499" y1="1" y2="99" class="stroke_order_diagram--bounding_box"></line><path id="pathSk2v596cn43m" kvg:type="㇔" d="M33.5,15c3.29,1.85,8.49,7.59,9.31,10.47" transform="matrix(1,0,0,1,396,-4)" class="stroke_order_diagram--existing_path"></path><path id="pathSk2v596cn43n" kvg:type="㇒" d="M67.75,11.5c0.08,0.89-0.06,1.73-0.43,2.54C66.1,17.24,62.6,22.58,58,26" transform="matrix(1,0,0,1,396,-4)" class="stroke_order_diagram--existing_path"></path><path id="pathSk2v596cn43o" kvg:type="㇕c" d="M23.62,32.04c2.38,0.83,5.8,0.77,8.26,0.44C45,30.75,59,28.88,76.36,26.72c2.89-0.36,4.04,2.4,3.3,4.3c-0.76,1.96-2.56,7.92-3.16,10.73" transform="matrix(1,0,0,1,396,-4)" class="stroke_order_diagram--existing_path"></path><path id="pathSk2v596cn43p" kvg:type="㇐" d="M24,47.5c1.5,0.38,3.38,0.43,5.25,0.3c11.25-0.8,31.63-2.92,45.15-4.55c1.54-0.19,3.11-0.25,4.36,0" transform="matrix(1,0,0,1,396,-4)" class="stroke_order_diagram--existing_path"></path><path id="kvg:05f1f-s5" kvg:type="㇉" d="M25.43,48.42c0.82,0.82,0.75,2.42,0,3.71c-1.68,2.87-3.6,6.04-4.12,6.84c-1.8,2.78-1.3,4.69,1.32,4.38c2.5-0.29,59.11-6.03,65.75-6.62c6.64-0.6,5.02,3.99,4.54,5.42C92,64.89,87.73,73.5,84.92,78.44c-4.17,7.31-6.92,1.31-8.67-0.98" transform="matrix(1,0,0,1,396,-4)" class="stroke_order_diagram--current_path"></path><path id="pathSk2v596cn43r" kvg:type="㇉" d="M25.43,48.42c0.82,0.82,0.75,2.42,0,3.71c-1.68,2.87-3.6,6.04-4.12,6.84c-1.8,2.78-1.3,4.69,1.32,4.38c2.5-0.29,59.11-6.03,65.75-6.62c6.64-0.6,5.02,3.99,4.54,5.42C92,64.89,87.73,73.5,84.92,78.44c-4.17,7.31-6.92,1.31-8.67-0.98" transform="matrix(1,0,0,1,396,-4)" class="stroke_order_diagram--current_path"></path><circle cx="25.43" cy="48.42" r="8" class="stroke_order_diagram--path_start" transform="matrix(1,0,0,1,396,-4)"></circle><line x1="550" x2="550" y1="1" y2="99" class="stroke_order_diagram--guide_line"></line><line x1="599" x2="599" y1="1" y2="99" class="stroke_order_diagram--bounding_box"></line><path id="pathSk2v596cn43u" kvg:type="㇔" d="M33.5,15c3.29,1.85,8.49,7.59,9.31,10.47" transform="matrix(1,0,0,1,496,-4)" class="stroke_order_diagram--existing_path"></path><path id="pathSk2v596cn43v" kvg:type="㇒" d="M67.75,11.5c0.08,0.89-0.06,1.73-0.43,2.54C66.1,17.24,62.6,22.58,58,26" transform="matrix(1,0,0,1,496,-4)" class="stroke_order_diagram--existing_path"></path><path id="pathSk2v596cn43w" kvg:type="㇕c" d="M23.62,32.04c2.38,0.83,5.8,0.77,8.26,0.44C45,30.75,59,28.88,76.36,26.72c2.89-0.36,4.04,2.4,3.3,4.3c-0.76,1.96-2.56,7.92-3.16,10.73" transform="matrix(1,0,0,1,496,-4)" class="stroke_order_diagram--existing_path"></path><path id="pathSk2v596cn43x" kvg:type="㇐" d="M24,47.5c1.5,0.38,3.38,0.43,5.25,0.3c11.25-0.8,31.63-2.92,45.15-4.55c1.54-0.19,3.11-0.25,4.36,0" transform="matrix(1,0,0,1,496,-4)" class="stroke_order_diagram--existing_path"></path><path id="pathSk2v596cn43y" kvg:type="㇉" d="M25.43,48.42c0.82,0.82,0.75,2.42,0,3.71c-1.68,2.87-3.6,6.04-4.12,6.84c-1.8,2.78-1.3,4.69,1.32,4.38c2.5-0.29,59.11-6.03,65.75-6.62c6.64-0.6,5.02,3.99,4.54,5.42C92,64.89,87.73,73.5,84.92,78.44c-4.17,7.31-6.92,1.31-8.67-0.98" transform="matrix(1,0,0,1,496,-4)" class="stroke_order_diagram--existing_path"></path><path id="kvg:05f1f-s6" kvg:type="㇑" d="M52.9,32.41c1.06,0.63,1.91,2.34,1.91,4.12c0,10.03,0.09,40.05-0.09,56.48c-0.03,2.78-0.07,5.16-0.12,7" transform="matrix(1,0,0,1,496,-4)" class="stroke_order_diagram--current_path"></path><path id="pathSk2v596cn440" kvg:type="㇑" d="M52.9,32.41c1.06,0.63,1.91,2.34,1.91,4.12c0,10.03,0.09,40.05-0.09,56.48c-0.03,2.78-0.07,5.16-0.12,7" transform="matrix(1,0,0,1,496,-4)" class="stroke_order_diagram--current_path"></path><circle cx="52.9" cy="32.41" r="8" class="stroke_order_diagram--path_start" transform="matrix(1,0,0,1,496,-4)"></circle><line x1="650" x2="650" y1="1" y2="99" class="stroke_order_diagram--guide_line"></line><line x1="699" x2="699" y1="1" y2="99" class="stroke_order_diagram--bounding_box"></line><path id="pathSk2v596cn443" kvg:type="㇔" d="M33.5,15c3.29,1.85,8.49,7.59,9.31,10.47" transform="matrix(1,0,0,1,596,-4)" class="stroke_order_diagram--existing_path"></path><path id="pathSk2v596cn444" kvg:type="㇒" d="M67.75,11.5c0.08,0.89-0.06,1.73-0.43,2.54C66.1,17.24,62.6,22.58,58,26" transform="matrix(1,0,0,1,596,-4)" class="stroke_order_diagram--existing_path"></path><path id="pathSk2v596cn445" kvg:type="㇕c" d="M23.62,32.04c2.38,0.83,5.8,0.77,8.26,0.44C45,30.75,59,28.88,76.36,26.72c2.89-0.36,4.04,2.4,3.3,4.3c-0.76,1.96-2.56,7.92-3.16,10.73" transform="matrix(1,0,0,1,596,-4)" class="stroke_order_diagram--existing_path"></path><path id="pathSk2v596cn446" kvg:type="㇐" d="M24,47.5c1.5,0.38,3.38,0.43,5.25,0.3c11.25-0.8,31.63-2.92,45.15-4.55c1.54-0.19,3.11-0.25,4.36,0" transform="matrix(1,0,0,1,596,-4)" class="stroke_order_diagram--existing_path"></path><path id="pathSk2v596cn447" kvg:type="㇉" d="M25.43,48.42c0.82,0.82,0.75,2.42,0,3.71c-1.68,2.87-3.6,6.04-4.12,6.84c-1.8,2.78-1.3,4.69,1.32,4.38c2.5-0.29,59.11-6.03,65.75-6.62c6.64-0.6,5.02,3.99,4.54,5.42C92,64.89,87.73,73.5,84.92,78.44c-4.17,7.31-6.92,1.31-8.67-0.98" transform="matrix(1,0,0,1,596,-4)" class="stroke_order_diagram--existing_path"></path><path id="pathSk2v596cn448" kvg:type="㇑" d="M52.9,32.41c1.06,0.63,1.91,2.34,1.91,4.12c0,10.03,0.09,40.05-0.09,56.48c-0.03,2.78-0.07,5.16-0.12,7" transform="matrix(1,0,0,1,596,-4)" class="stroke_order_diagram--existing_path"></path><path id="kvg:05f1f-s7" kvg:type="㇒" d="M52.69,60.75c0.09,0.64,0.19,1.64-0.19,2.56c-2.22,5.39-16.5,20.21-34,27.44" transform="matrix(1,0,0,1,596,-4)" class="stroke_order_diagram--current_path"></path><path id="pathSk2v596cn44a" kvg:type="㇒" d="M52.69,60.75c0.09,0.64,0.19,1.64-0.19,2.56c-2.22,5.39-16.5,20.21-34,27.44" transform="matrix(1,0,0,1,596,-4)" class="stroke_order_diagram--current_path"></path><circle cx="52.69" cy="60.75" r="8" class="stroke_order_diagram--path_start" transform="matrix(1,0,0,1,596,-4)"></circle></svg>