<svg style="width: 1000px; height: 100px;" viewbox="0 0 1000 100"><style>
.stroke_order_diagram--outer_container {
  width: 100%;
  overflow-x: auto;
  overflow-y: hidden;
}

.stroke_order_diagram--guide_line {
  fill: none;
  stroke: #ddd;
  stroke-width: 3;
  stroke-linecap: square;
  stroke-linejoin: square;
  stroke-dasharray:8, 8;
}

.stroke_order_diagram--bounding_box {
  fill: none;
  stroke: #ddd;
  stroke-width: 4;
  stroke-linecap: square;
  stroke-linejoin: square;
}

.stroke_order_diagram--current_path {
  fill: none;
  stroke: #000;
  stroke-width: 6;
  stroke-linecap: round;
  stroke-linejoin: round;
}

.stroke_order_diagram--existing_path {
  fill: none;
  stroke: #aaa;
  stroke-width: 6;
  stroke-linecap: round;
  stroke-linejoin:round;
}

.stroke_order_diagram--path_start {
  fill: rgba(255, 0, 0, 0.7);
  stroke:none
}</style><desc>Created with Snap</desc><defs></defs><line x1="1" x2="999" y1="1" y2="1" class="stroke_order_diagram--bounding_box"></line><line x1="1" x2="1" y1="1" y2="99" class="stroke_order_diagram--bounding_box"></line><line x1="1" x2="999" y1="99" y2="99" class="stroke_order_diagram--bounding_box"></line><line x1="0" x2="1000" y1="50" y2="50" class="stroke_order_diagram--guide_line"></line><line x1="50" x2="50" y1="1" y2="99" class="stroke_order_diagram--guide_line"></line><line x1="99" x2="99" y1="1" y2="99" class="stroke_order_diagram--bounding_box"></line><path id="kvg:05f31-s1" kvg:type="㇕c" d="M21.07,18.41c1.68,0.59,3.68,0.7,4.79,0.45c1.11-0.24,15.18-2.95,17.47-3.37c2.67-0.49,4.33,1.24,3.66,3.18c-0.47,1.36-2.43,8.74-2.9,12.34" transform="matrix(1,0,0,1,-4,-4)" class="stroke_order_diagram--current_path"></path><path id="pathSk2v596cn7vx" kvg:type="㇕c" d="M21.07,18.41c1.68,0.59,3.68,0.7,4.79,0.45c1.11-0.24,15.18-2.95,17.47-3.37c2.67-0.49,4.33,1.24,3.66,3.18c-0.47,1.36-2.43,8.74-2.9,12.34" transform="matrix(1,0,0,1,-4,-4)" class="stroke_order_diagram--current_path"></path><circle cx="21.07" cy="18.41" r="8" class="stroke_order_diagram--path_start" transform="matrix(1,0,0,1,-4,-4)"></circle><line x1="150" x2="150" y1="1" y2="99" class="stroke_order_diagram--guide_line"></line><line x1="199" x2="199" y1="1" y2="99" class="stroke_order_diagram--bounding_box"></line><path id="pathSk2v596cn7w0" kvg:type="㇕c" d="M21.07,18.41c1.68,0.59,3.68,0.7,4.79,0.45c1.11-0.24,15.18-2.95,17.47-3.37c2.67-0.49,4.33,1.24,3.66,3.18c-0.47,1.36-2.43,8.74-2.9,12.34" transform="matrix(1,0,0,1,96,-4)" class="stroke_order_diagram--existing_path"></path><path id="kvg:05f31-s2" kvg:type="㇐" d="M21.75,34c0.33,0.33,2.49,0.88,3.75,0.77c4.5-0.4,14.65-2.02,15.89-2.02c1.56,0,3.11-0.5,4.36-0.5" transform="matrix(1,0,0,1,96,-4)" class="stroke_order_diagram--current_path"></path><path id="pathSk2v596cn7w2" kvg:type="㇐" d="M21.75,34c0.33,0.33,2.49,0.88,3.75,0.77c4.5-0.4,14.65-2.02,15.89-2.02c1.56,0,3.11-0.5,4.36-0.5" transform="matrix(1,0,0,1,96,-4)" class="stroke_order_diagram--current_path"></path><circle cx="21.75" cy="34" r="8" class="stroke_order_diagram--path_start" transform="matrix(1,0,0,1,96,-4)"></circle><line x1="250" x2="250" y1="1" y2="99" class="stroke_order_diagram--guide_line"></line><line x1="299" x2="299" y1="1" y2="99" class="stroke_order_diagram--bounding_box"></line><path id="pathSk2v596cn7w5" kvg:type="㇕c" d="M21.07,18.41c1.68,0.59,3.68,0.7,4.79,0.45c1.11-0.24,15.18-2.95,17.47-3.37c2.67-0.49,4.33,1.24,3.66,3.18c-0.47,1.36-2.43,8.74-2.9,12.34" transform="matrix(1,0,0,1,196,-4)" class="stroke_order_diagram--existing_path"></path><path id="pathSk2v596cn7w6" kvg:type="㇐" d="M21.75,34c0.33,0.33,2.49,0.88,3.75,0.77c4.5-0.4,14.65-2.02,15.89-2.02c1.56,0,3.11-0.5,4.36-0.5" transform="matrix(1,0,0,1,196,-4)" class="stroke_order_diagram--existing_path"></path><path id="kvg:05f31-s3" kvg:type="㇉" d="M23.31,35.12c0.66,0.97,0.81,2.1,0.38,3.63c-0.49,1.76-5.26,9.59-5.93,10.32c-2.01,2.19-0.2,3.41,1.77,2.91c4.72-1.22,19.1-4.23,22.7-4.58c4.02-0.39,4.87,2.82,3.92,6.1c-4.41,15.26-8.81,29.41-15.53,40.08c-2.63,4.17-4.38,2.17-6.22-2.03" transform="matrix(1,0,0,1,196,-4)" class="stroke_order_diagram--current_path"></path><path id="pathSk2v596cn7w8" kvg:type="㇉" d="M23.31,35.12c0.66,0.97,0.81,2.1,0.38,3.63c-0.49,1.76-5.26,9.59-5.93,10.32c-2.01,2.19-0.2,3.41,1.77,2.91c4.72-1.22,19.1-4.23,22.7-4.58c4.02-0.39,4.87,2.82,3.92,6.1c-4.41,15.26-8.81,29.41-15.53,40.08c-2.63,4.17-4.38,2.17-6.22-2.03" transform="matrix(1,0,0,1,196,-4)" class="stroke_order_diagram--current_path"></path><circle cx="23.31" cy="35.12" r="8" class="stroke_order_diagram--path_start" transform="matrix(1,0,0,1,196,-4)"></circle><line x1="350" x2="350" y1="1" y2="99" class="stroke_order_diagram--guide_line"></line><line x1="399" x2="399" y1="1" y2="99" class="stroke_order_diagram--bounding_box"></line><path id="pathSk2v596cn7wb" kvg:type="㇕c" d="M21.07,18.41c1.68,0.59,3.68,0.7,4.79,0.45c1.11-0.24,15.18-2.95,17.47-3.37c2.67-0.49,4.33,1.24,3.66,3.18c-0.47,1.36-2.43,8.74-2.9,12.34" transform="matrix(1,0,0,1,296,-4)" class="stroke_order_diagram--existing_path"></path><path id="pathSk2v596cn7wc" kvg:type="㇐" d="M21.75,34c0.33,0.33,2.49,0.88,3.75,0.77c4.5-0.4,14.65-2.02,15.89-2.02c1.56,0,3.11-0.5,4.36-0.5" transform="matrix(1,0,0,1,296,-4)" class="stroke_order_diagram--existing_path"></path><path id="pathSk2v596cn7wd" kvg:type="㇉" d="M23.31,35.12c0.66,0.97,0.81,2.1,0.38,3.63c-0.49,1.76-5.26,9.59-5.93,10.32c-2.01,2.19-0.2,3.41,1.77,2.91c4.72-1.22,19.1-4.23,22.7-4.58c4.02-0.39,4.87,2.82,3.92,6.1c-4.41,15.26-8.81,29.41-15.53,40.08c-2.63,4.17-4.38,2.17-6.22-2.03" transform="matrix(1,0,0,1,296,-4)" class="stroke_order_diagram--existing_path"></path><path id="kvg:05f31-s4" kvg:type="㇔" d="M19,60c3.14,0.88,8.11,3.62,8.89,4.99" transform="matrix(1,0,0,1,296,-4)" class="stroke_order_diagram--current_path"></path><path id="pathSk2v596cn7wf" kvg:type="㇔" d="M19,60c3.14,0.88,8.11,3.62,8.89,4.99" transform="matrix(1,0,0,1,296,-4)" class="stroke_order_diagram--current_path"></path><circle cx="19" cy="60" r="8" class="stroke_order_diagram--path_start" transform="matrix(1,0,0,1,296,-4)"></circle><line x1="450" x2="450" y1="1" y2="99" class="stroke_order_diagram--guide_line"></line><line x1="499" x2="499" y1="1" y2="99" class="stroke_order_diagram--bounding_box"></line><path id="pathSk2v596cn7wi" kvg:type="㇕c" d="M21.07,18.41c1.68,0.59,3.68,0.7,4.79,0.45c1.11-0.24,15.18-2.95,17.47-3.37c2.67-0.49,4.33,1.24,3.66,3.18c-0.47,1.36-2.43,8.74-2.9,12.34" transform="matrix(1,0,0,1,396,-4)" class="stroke_order_diagram--existing_path"></path><path id="pathSk2v596cn7wj" kvg:type="㇐" d="M21.75,34c0.33,0.33,2.49,0.88,3.75,0.77c4.5-0.4,14.65-2.02,15.89-2.02c1.56,0,3.11-0.5,4.36-0.5" transform="matrix(1,0,0,1,396,-4)" class="stroke_order_diagram--existing_path"></path><path id="pathSk2v596cn7wk" kvg:type="㇉" d="M23.31,35.12c0.66,0.97,0.81,2.1,0.38,3.63c-0.49,1.76-5.26,9.59-5.93,10.32c-2.01,2.19-0.2,3.41,1.77,2.91c4.72-1.22,19.1-4.23,22.7-4.58c4.02-0.39,4.87,2.82,3.92,6.1c-4.41,15.26-8.81,29.41-15.53,40.08c-2.63,4.17-4.38,2.17-6.22-2.03" transform="matrix(1,0,0,1,396,-4)" class="stroke_order_diagram--existing_path"></path><path id="pathSk2v596cn7wl" kvg:type="㇔" d="M19,60c3.14,0.88,8.11,3.62,8.89,4.99" transform="matrix(1,0,0,1,396,-4)" class="stroke_order_diagram--existing_path"></path><path id="kvg:05f31-s5" kvg:type="㇀" d="M12.75,80.61c1.63,0.98,3.73,0.8,4.9,0c3.87-2.66,5.78-4.43,12.35-8.49" transform="matrix(1,0,0,1,396,-4)" class="stroke_order_diagram--current_path"></path><path id="pathSk2v596cn7wn" kvg:type="㇀" d="M12.75,80.61c1.63,0.98,3.73,0.8,4.9,0c3.87-2.66,5.78-4.43,12.35-8.49" transform="matrix(1,0,0,1,396,-4)" class="stroke_order_diagram--current_path"></path><circle cx="12.75" cy="80.61" r="8" class="stroke_order_diagram--path_start" transform="matrix(1,0,0,1,396,-4)"></circle><line x1="550" x2="550" y1="1" y2="99" class="stroke_order_diagram--guide_line"></line><line x1="599" x2="599" y1="1" y2="99" class="stroke_order_diagram--bounding_box"></line><path id="pathSk2v596cn7wq" kvg:type="㇕c" d="M21.07,18.41c1.68,0.59,3.68,0.7,4.79,0.45c1.11-0.24,15.18-2.95,17.47-3.37c2.67-0.49,4.33,1.24,3.66,3.18c-0.47,1.36-2.43,8.74-2.9,12.34" transform="matrix(1,0,0,1,496,-4)" class="stroke_order_diagram--existing_path"></path><path id="pathSk2v596cn7wr" kvg:type="㇐" d="M21.75,34c0.33,0.33,2.49,0.88,3.75,0.77c4.5-0.4,14.65-2.02,15.89-2.02c1.56,0,3.11-0.5,4.36-0.5" transform="matrix(1,0,0,1,496,-4)" class="stroke_order_diagram--existing_path"></path><path id="pathSk2v596cn7ws" kvg:type="㇉" d="M23.31,35.12c0.66,0.97,0.81,2.1,0.38,3.63c-0.49,1.76-5.26,9.59-5.93,10.32c-2.01,2.19-0.2,3.41,1.77,2.91c4.72-1.22,19.1-4.23,22.7-4.58c4.02-0.39,4.87,2.82,3.92,6.1c-4.41,15.26-8.81,29.41-15.53,40.08c-2.63,4.17-4.38,2.17-6.22-2.03" transform="matrix(1,0,0,1,496,-4)" class="stroke_order_diagram--existing_path"></path><path id="pathSk2v596cn7wt" kvg:type="㇔" d="M19,60c3.14,0.88,8.11,3.62,8.89,4.99" transform="matrix(1,0,0,1,496,-4)" class="stroke_order_diagram--existing_path"></path><path id="pathSk2v596cn7wu" kvg:type="㇀" d="M12.75,80.61c1.63,0.98,3.73,0.8,4.9,0c3.87-2.66,5.78-4.43,12.35-8.49" transform="matrix(1,0,0,1,496,-4)" class="stroke_order_diagram--existing_path"></path><path id="kvg:05f31-s6" kvg:type="㇕c" d="M63.32,17.66c1.43,0.59,3.68,0.7,4.79,0.45c1.11-0.24,16.44-2.65,18.72-3.12c2.42-0.49,4.33,1.24,3.66,3.18c-0.44,1.3-2.75,8.14-3.81,11.05" transform="matrix(1,0,0,1,496,-4)" class="stroke_order_diagram--current_path"></path><path id="pathSk2v596cn7ww" kvg:type="㇕c" d="M63.32,17.66c1.43,0.59,3.68,0.7,4.79,0.45c1.11-0.24,16.44-2.65,18.72-3.12c2.42-0.49,4.33,1.24,3.66,3.18c-0.44,1.3-2.75,8.14-3.81,11.05" transform="matrix(1,0,0,1,496,-4)" class="stroke_order_diagram--current_path"></path><circle cx="63.32" cy="17.66" r="8" class="stroke_order_diagram--path_start" transform="matrix(1,0,0,1,496,-4)"></circle><line x1="650" x2="650" y1="1" y2="99" class="stroke_order_diagram--guide_line"></line><line x1="699" x2="699" y1="1" y2="99" class="stroke_order_diagram--bounding_box"></line><path id="pathSk2v596cn7wz" kvg:type="㇕c" d="M21.07,18.41c1.68,0.59,3.68,0.7,4.79,0.45c1.11-0.24,15.18-2.95,17.47-3.37c2.67-0.49,4.33,1.24,3.66,3.18c-0.47,1.36-2.43,8.74-2.9,12.34" transform="matrix(1,0,0,1,596,-4)" class="stroke_order_diagram--existing_path"></path><path id="pathSk2v596cn7x0" kvg:type="㇐" d="M21.75,34c0.33,0.33,2.49,0.88,3.75,0.77c4.5-0.4,14.65-2.02,15.89-2.02c1.56,0,3.11-0.5,4.36-0.5" transform="matrix(1,0,0,1,596,-4)" class="stroke_order_diagram--existing_path"></path><path id="pathSk2v596cn7x1" kvg:type="㇉" d="M23.31,35.12c0.66,0.97,0.81,2.1,0.38,3.63c-0.49,1.76-5.26,9.59-5.93,10.32c-2.01,2.19-0.2,3.41,1.77,2.91c4.72-1.22,19.1-4.23,22.7-4.58c4.02-0.39,4.87,2.82,3.92,6.1c-4.41,15.26-8.81,29.41-15.53,40.08c-2.63,4.17-4.38,2.17-6.22-2.03" transform="matrix(1,0,0,1,596,-4)" class="stroke_order_diagram--existing_path"></path><path id="pathSk2v596cn7x2" kvg:type="㇔" d="M19,60c3.14,0.88,8.11,3.62,8.89,4.99" transform="matrix(1,0,0,1,596,-4)" class="stroke_order_diagram--existing_path"></path><path id="pathSk2v596cn7x3" kvg:type="㇀" d="M12.75,80.61c1.63,0.98,3.73,0.8,4.9,0c3.87-2.66,5.78-4.43,12.35-8.49" transform="matrix(1,0,0,1,596,-4)" class="stroke_order_diagram--existing_path"></path><path id="pathSk2v596cn7x4" kvg:type="㇕c" d="M63.32,17.66c1.43,0.59,3.68,0.7,4.79,0.45c1.11-0.24,16.44-2.65,18.72-3.12c2.42-0.49,4.33,1.24,3.66,3.18c-0.44,1.3-2.75,8.14-3.81,11.05" transform="matrix(1,0,0,1,596,-4)" class="stroke_order_diagram--existing_path"></path><path id="kvg:05f31-s7" kvg:type="㇐" d="M60.75,33c1.25,0.62,2.35,0.36,3.75,0.17c6.62-0.92,17-2.42,19.39-2.67c1.55-0.16,3.11-0.25,4.36-0.25" transform="matrix(1,0,0,1,596,-4)" class="stroke_order_diagram--current_path"></path><path id="pathSk2v596cn7x6" kvg:type="㇐" d="M60.75,33c1.25,0.62,2.35,0.36,3.75,0.17c6.62-0.92,17-2.42,19.39-2.67c1.55-0.16,3.11-0.25,4.36-0.25" transform="matrix(1,0,0,1,596,-4)" class="stroke_order_diagram--current_path"></path><circle cx="60.75" cy="33" r="8" class="stroke_order_diagram--path_start" transform="matrix(1,0,0,1,596,-4)"></circle><line x1="750" x2="750" y1="1" y2="99" class="stroke_order_diagram--guide_line"></line><line x1="799" x2="799" y1="1" y2="99" class="stroke_order_diagram--bounding_box"></line><path id="pathSk2v596cn7x9" kvg:type="㇕c" d="M21.07,18.41c1.68,0.59,3.68,0.7,4.79,0.45c1.11-0.24,15.18-2.95,17.47-3.37c2.67-0.49,4.33,1.24,3.66,3.18c-0.47,1.36-2.43,8.74-2.9,12.34" transform="matrix(1,0,0,1,696,-4)" class="stroke_order_diagram--existing_path"></path><path id="pathSk2v596cn7xa" kvg:type="㇐" d="M21.75,34c0.33,0.33,2.49,0.88,3.75,0.77c4.5-0.4,14.65-2.02,15.89-2.02c1.56,0,3.11-0.5,4.36-0.5" transform="matrix(1,0,0,1,696,-4)" class="stroke_order_diagram--existing_path"></path><path id="pathSk2v596cn7xb" kvg:type="㇉" d="M23.31,35.12c0.66,0.97,0.81,2.1,0.38,3.63c-0.49,1.76-5.26,9.59-5.93,10.32c-2.01,2.19-0.2,3.41,1.77,2.91c4.72-1.22,19.1-4.23,22.7-4.58c4.02-0.39,4.87,2.82,3.92,6.1c-4.41,15.26-8.81,29.41-15.53,40.08c-2.63,4.17-4.38,2.17-6.22-2.03" transform="matrix(1,0,0,1,696,-4)" class="stroke_order_diagram--existing_path"></path><path id="pathSk2v596cn7xc" kvg:type="㇔" d="M19,60c3.14,0.88,8.11,3.62,8.89,4.99" transform="matrix(1,0,0,1,696,-4)" class="stroke_order_diagram--existing_path"></path><path id="pathSk2v596cn7xd" kvg:type="㇀" d="M12.75,80.61c1.63,0.98,3.73,0.8,4.9,0c3.87-2.66,5.78-4.43,12.35-8.49" transform="matrix(1,0,0,1,696,-4)" class="stroke_order_diagram--existing_path"></path><path id="pathSk2v596cn7xe" kvg:type="㇕c" d="M63.32,17.66c1.43,0.59,3.68,0.7,4.79,0.45c1.11-0.24,16.44-2.65,18.72-3.12c2.42-0.49,4.33,1.24,3.66,3.18c-0.44,1.3-2.75,8.14-3.81,11.05" transform="matrix(1,0,0,1,696,-4)" class="stroke_order_diagram--existing_path"></path><path id="pathSk2v596cn7xf" kvg:type="㇐" d="M60.75,33c1.25,0.62,2.35,0.36,3.75,0.17c6.62-0.92,17-2.42,19.39-2.67c1.55-0.16,3.11-0.25,4.36-0.25" transform="matrix(1,0,0,1,696,-4)" class="stroke_order_diagram--existing_path"></path><path id="kvg:05f31-s8" kvg:type="㇉" d="M62.31,33.37c0.79,0.79,1.06,1.85,0.63,3.38c-0.49,1.76-3.01,9.34-3.68,10.07c-2.01,2.19-0.2,3.41,1.77,2.91c4.72-1.22,23.17-4.3,26.7-5.08c6.27-1.39,6.17,3.27,5.42,6.6C89.75,66.5,86,82,79.13,94.83c-2.33,4.35-4.38,2.17-6.22-2.03" transform="matrix(1,0,0,1,696,-4)" class="stroke_order_diagram--current_path"></path><path id="pathSk2v596cn7xh" kvg:type="㇉" d="M62.31,33.37c0.79,0.79,1.06,1.85,0.63,3.38c-0.49,1.76-3.01,9.34-3.68,10.07c-2.01,2.19-0.2,3.41,1.77,2.91c4.72-1.22,23.17-4.3,26.7-5.08c6.27-1.39,6.17,3.27,5.42,6.6C89.75,66.5,86,82,79.13,94.83c-2.33,4.35-4.38,2.17-6.22-2.03" transform="matrix(1,0,0,1,696,-4)" class="stroke_order_diagram--current_path"></path><circle cx="62.31" cy="33.37" r="8" class="stroke_order_diagram--path_start" transform="matrix(1,0,0,1,696,-4)"></circle><line x1="850" x2="850" y1="1" y2="99" class="stroke_order_diagram--guide_line"></line><line x1="899" x2="899" y1="1" y2="99" class="stroke_order_diagram--bounding_box"></line><path id="pathSk2v596cn7xk" kvg:type="㇕c" d="M21.07,18.41c1.68,0.59,3.68,0.7,4.79,0.45c1.11-0.24,15.18-2.95,17.47-3.37c2.67-0.49,4.33,1.24,3.66,3.18c-0.47,1.36-2.43,8.74-2.9,12.34" transform="matrix(1,0,0,1,796,-4)" class="stroke_order_diagram--existing_path"></path><path id="pathSk2v596cn7xl" kvg:type="㇐" d="M21.75,34c0.33,0.33,2.49,0.88,3.75,0.77c4.5-0.4,14.65-2.02,15.89-2.02c1.56,0,3.11-0.5,4.36-0.5" transform="matrix(1,0,0,1,796,-4)" class="stroke_order_diagram--existing_path"></path><path id="pathSk2v596cn7xm" kvg:type="㇉" d="M23.31,35.12c0.66,0.97,0.81,2.1,0.38,3.63c-0.49,1.76-5.26,9.59-5.93,10.32c-2.01,2.19-0.2,3.41,1.77,2.91c4.72-1.22,19.1-4.23,22.7-4.58c4.02-0.39,4.87,2.82,3.92,6.1c-4.41,15.26-8.81,29.41-15.53,40.08c-2.63,4.17-4.38,2.17-6.22-2.03" transform="matrix(1,0,0,1,796,-4)" class="stroke_order_diagram--existing_path"></path><path id="pathSk2v596cn7xn" kvg:type="㇔" d="M19,60c3.14,0.88,8.11,3.62,8.89,4.99" transform="matrix(1,0,0,1,796,-4)" class="stroke_order_diagram--existing_path"></path><path id="pathSk2v596cn7xo" kvg:type="㇀" d="M12.75,80.61c1.63,0.98,3.73,0.8,4.9,0c3.87-2.66,5.78-4.43,12.35-8.49" transform="matrix(1,0,0,1,796,-4)" class="stroke_order_diagram--existing_path"></path><path id="pathSk2v596cn7xp" kvg:type="㇕c" d="M63.32,17.66c1.43,0.59,3.68,0.7,4.79,0.45c1.11-0.24,16.44-2.65,18.72-3.12c2.42-0.49,4.33,1.24,3.66,3.18c-0.44,1.3-2.75,8.14-3.81,11.05" transform="matrix(1,0,0,1,796,-4)" class="stroke_order_diagram--existing_path"></path><path id="pathSk2v596cn7xq" kvg:type="㇐" d="M60.75,33c1.25,0.62,2.35,0.36,3.75,0.17c6.62-0.92,17-2.42,19.39-2.67c1.55-0.16,3.11-0.25,4.36-0.25" transform="matrix(1,0,0,1,796,-4)" class="stroke_order_diagram--existing_path"></path><path id="pathSk2v596cn7xr" kvg:type="㇉" d="M62.31,33.37c0.79,0.79,1.06,1.85,0.63,3.38c-0.49,1.76-3.01,9.34-3.68,10.07c-2.01,2.19-0.2,3.41,1.77,2.91c4.72-1.22,23.17-4.3,26.7-5.08c6.27-1.39,6.17,3.27,5.42,6.6C89.75,66.5,86,82,79.13,94.83c-2.33,4.35-4.38,2.17-6.22-2.03" transform="matrix(1,0,0,1,796,-4)" class="stroke_order_diagram--existing_path"></path><path id="kvg:05f31-s9" kvg:type="㇔" d="M59.74,57.75c3.05,1.13,7.89,5.23,8.65,6.99" transform="matrix(1,0,0,1,796,-4)" class="stroke_order_diagram--current_path"></path><path id="pathSk2v596cn7xt" kvg:type="㇔" d="M59.74,57.75c3.05,1.13,7.89,5.23,8.65,6.99" transform="matrix(1,0,0,1,796,-4)" class="stroke_order_diagram--current_path"></path><circle cx="59.74" cy="57.75" r="8" class="stroke_order_diagram--path_start" transform="matrix(1,0,0,1,796,-4)"></circle><line x1="950" x2="950" y1="1" y2="99" class="stroke_order_diagram--guide_line"></line><line x1="999" x2="999" y1="1" y2="99" class="stroke_order_diagram--bounding_box"></line><path id="pathSk2v596cn7xw" kvg:type="㇕c" d="M21.07,18.41c1.68,0.59,3.68,0.7,4.79,0.45c1.11-0.24,15.18-2.95,17.47-3.37c2.67-0.49,4.33,1.24,3.66,3.18c-0.47,1.36-2.43,8.74-2.9,12.34" transform="matrix(1,0,0,1,896,-4)" class="stroke_order_diagram--existing_path"></path><path id="pathSk2v596cn7xx" kvg:type="㇐" d="M21.75,34c0.33,0.33,2.49,0.88,3.75,0.77c4.5-0.4,14.65-2.02,15.89-2.02c1.56,0,3.11-0.5,4.36-0.5" transform="matrix(1,0,0,1,896,-4)" class="stroke_order_diagram--existing_path"></path><path id="pathSk2v596cn7xy" kvg:type="㇉" d="M23.31,35.12c0.66,0.97,0.81,2.1,0.38,3.63c-0.49,1.76-5.26,9.59-5.93,10.32c-2.01,2.19-0.2,3.41,1.77,2.91c4.72-1.22,19.1-4.23,22.7-4.58c4.02-0.39,4.87,2.82,3.92,6.1c-4.41,15.26-8.81,29.41-15.53,40.08c-2.63,4.17-4.38,2.17-6.22-2.03" transform="matrix(1,0,0,1,896,-4)" class="stroke_order_diagram--existing_path"></path><path id="pathSk2v596cn7xz" kvg:type="㇔" d="M19,60c3.14,0.88,8.11,3.62,8.89,4.99" transform="matrix(1,0,0,1,896,-4)" class="stroke_order_diagram--existing_path"></path><path id="pathSk2v596cn7y0" kvg:type="㇀" d="M12.75,80.61c1.63,0.98,3.73,0.8,4.9,0c3.87-2.66,5.78-4.43,12.35-8.49" transform="matrix(1,0,0,1,896,-4)" class="stroke_order_diagram--existing_path"></path><path id="pathSk2v596cn7y1" kvg:type="㇕c" d="M63.32,17.66c1.43,0.59,3.68,0.7,4.79,0.45c1.11-0.24,16.44-2.65,18.72-3.12c2.42-0.49,4.33,1.24,3.66,3.18c-0.44,1.3-2.75,8.14-3.81,11.05" transform="matrix(1,0,0,1,896,-4)" class="stroke_order_diagram--existing_path"></path><path id="pathSk2v596cn7y2" kvg:type="㇐" d="M60.75,33c1.25,0.62,2.35,0.36,3.75,0.17c6.62-0.92,17-2.42,19.39-2.67c1.55-0.16,3.11-0.25,4.36-0.25" transform="matrix(1,0,0,1,896,-4)" class="stroke_order_diagram--existing_path"></path><path id="pathSk2v596cn7y3" kvg:type="㇉" d="M62.31,33.37c0.79,0.79,1.06,1.85,0.63,3.38c-0.49,1.76-3.01,9.34-3.68,10.07c-2.01,2.19-0.2,3.41,1.77,2.91c4.72-1.22,23.17-4.3,26.7-5.08c6.27-1.39,6.17,3.27,5.42,6.6C89.75,66.5,86,82,79.13,94.83c-2.33,4.35-4.38,2.17-6.22-2.03" transform="matrix(1,0,0,1,896,-4)" class="stroke_order_diagram--existing_path"></path><path id="pathSk2v596cn7y4" kvg:type="㇔" d="M59.74,57.75c3.05,1.13,7.89,5.23,8.65,6.99" transform="matrix(1,0,0,1,896,-4)" class="stroke_order_diagram--existing_path"></path><path id="kvg:05f31-s10" kvg:type="㇀" d="M56,80.92c1.89,1.28,4.3,1,5.68,0c3.85-2.8,6.7-5.77,14.32-11.04" transform="matrix(1,0,0,1,896,-4)" class="stroke_order_diagram--current_path"></path><path id="pathSk2v596cn7y6" kvg:type="㇀" d="M56,80.92c1.89,1.28,4.3,1,5.68,0c3.85-2.8,6.7-5.77,14.32-11.04" transform="matrix(1,0,0,1,896,-4)" class="stroke_order_diagram--current_path"></path><circle cx="56" cy="80.92" r="8" class="stroke_order_diagram--path_start" transform="matrix(1,0,0,1,896,-4)"></circle></svg>