<svg style="width: 1100px; height: 100px;" viewbox="0 0 1100 100"><style>
.stroke_order_diagram--outer_container {
  width: 100%;
  overflow-x: auto;
  overflow-y: hidden;
}

.stroke_order_diagram--guide_line {
  fill: none;
  stroke: #ddd;
  stroke-width: 3;
  stroke-linecap: square;
  stroke-linejoin: square;
  stroke-dasharray:8, 8;
}

.stroke_order_diagram--bounding_box {
  fill: none;
  stroke: #ddd;
  stroke-width: 4;
  stroke-linecap: square;
  stroke-linejoin: square;
}

.stroke_order_diagram--current_path {
  fill: none;
  stroke: #000;
  stroke-width: 6;
  stroke-linecap: round;
  stroke-linejoin: round;
}

.stroke_order_diagram--existing_path {
  fill: none;
  stroke: #aaa;
  stroke-width: 6;
  stroke-linecap: round;
  stroke-linejoin:round;
}

.stroke_order_diagram--path_start {
  fill: rgba(255, 0, 0, 0.7);
  stroke:none
}</style><desc>Created with Snap</desc><defs></defs><line x1="1" x2="1099" y1="1" y2="1" class="stroke_order_diagram--bounding_box"></line><line x1="1" x2="1" y1="1" y2="99" class="stroke_order_diagram--bounding_box"></line><line x1="1" x2="1099" y1="99" y2="99" class="stroke_order_diagram--bounding_box"></line><line x1="0" x2="1100" y1="50" y2="50" class="stroke_order_diagram--guide_line"></line><line x1="50" x2="50" y1="1" y2="99" class="stroke_order_diagram--guide_line"></line><line x1="99" x2="99" y1="1" y2="99" class="stroke_order_diagram--bounding_box"></line><path id="kvg:05f37-s1" kvg:type="㇕c" d="M17.5,19.84c1,0.66,3.5,0.95,4.69,0.79c5.81-0.76,13.69-2.51,18.27-3.79c2.42-0.67,4.29,0.78,3.24,3.39c-0.61,1.53-3.39,9.93-4.37,13.78" transform="matrix(1,0,0,1,-4,-4)" class="stroke_order_diagram--current_path"></path><path id="pathSk2v596cn7yr" kvg:type="㇕c" d="M17.5,19.84c1,0.66,3.5,0.95,4.69,0.79c5.81-0.76,13.69-2.51,18.27-3.79c2.42-0.67,4.29,0.78,3.24,3.39c-0.61,1.53-3.39,9.93-4.37,13.78" transform="matrix(1,0,0,1,-4,-4)" class="stroke_order_diagram--current_path"></path><circle cx="17.5" cy="19.84" r="8" class="stroke_order_diagram--path_start" transform="matrix(1,0,0,1,-4,-4)"></circle><line x1="150" x2="150" y1="1" y2="99" class="stroke_order_diagram--guide_line"></line><line x1="199" x2="199" y1="1" y2="99" class="stroke_order_diagram--bounding_box"></line><path id="pathSk2v596cn7yu" kvg:type="㇕c" d="M17.5,19.84c1,0.66,3.5,0.95,4.69,0.79c5.81-0.76,13.69-2.51,18.27-3.79c2.42-0.67,4.29,0.78,3.24,3.39c-0.61,1.53-3.39,9.93-4.37,13.78" transform="matrix(1,0,0,1,96,-4)" class="stroke_order_diagram--existing_path"></path><path id="kvg:05f37-s2" kvg:type="㇐" d="M18.38,37.25c0.75,0.25,2.03,0.43,3.26,0.32c5.34-0.49,14.24-2.32,15.87-2.32c2,0,2.75-0.25,4,0" transform="matrix(1,0,0,1,96,-4)" class="stroke_order_diagram--current_path"></path><path id="pathSk2v596cn7yw" kvg:type="㇐" d="M18.38,37.25c0.75,0.25,2.03,0.43,3.26,0.32c5.34-0.49,14.24-2.32,15.87-2.32c2,0,2.75-0.25,4,0" transform="matrix(1,0,0,1,96,-4)" class="stroke_order_diagram--current_path"></path><circle cx="18.38" cy="37.25" r="8" class="stroke_order_diagram--path_start" transform="matrix(1,0,0,1,96,-4)"></circle><line x1="250" x2="250" y1="1" y2="99" class="stroke_order_diagram--guide_line"></line><line x1="299" x2="299" y1="1" y2="99" class="stroke_order_diagram--bounding_box"></line><path id="pathSk2v596cn7yz" kvg:type="㇕c" d="M17.5,19.84c1,0.66,3.5,0.95,4.69,0.79c5.81-0.76,13.69-2.51,18.27-3.79c2.42-0.67,4.29,0.78,3.24,3.39c-0.61,1.53-3.39,9.93-4.37,13.78" transform="matrix(1,0,0,1,196,-4)" class="stroke_order_diagram--existing_path"></path><path id="pathSk2v596cn7z0" kvg:type="㇐" d="M18.38,37.25c0.75,0.25,2.03,0.43,3.26,0.32c5.34-0.49,14.24-2.32,15.87-2.32c2,0,2.75-0.25,4,0" transform="matrix(1,0,0,1,196,-4)" class="stroke_order_diagram--existing_path"></path><path id="kvg:05f37-s3" kvg:type="㇉" d="M18.88,37.43c0.84,0.84,0.71,2.31,0.36,3.83C18.83,43,16.35,50.03,16,50.94c-1,2.56-0.53,3.75,2.75,3.06c3-0.62,12.25-2.3,16.46-2.69c2.04-0.19,3.29,1.56,3.04,4.19c-0.85,8.9-5.22,29.45-9,35.75c-3.75,6.25-6.36-0.31-7.19-2.17" transform="matrix(1,0,0,1,196,-4)" class="stroke_order_diagram--current_path"></path><path id="pathSk2v596cn7z2" kvg:type="㇉" d="M18.88,37.43c0.84,0.84,0.71,2.31,0.36,3.83C18.83,43,16.35,50.03,16,50.94c-1,2.56-0.53,3.75,2.75,3.06c3-0.62,12.25-2.3,16.46-2.69c2.04-0.19,3.29,1.56,3.04,4.19c-0.85,8.9-5.22,29.45-9,35.75c-3.75,6.25-6.36-0.31-7.19-2.17" transform="matrix(1,0,0,1,196,-4)" class="stroke_order_diagram--current_path"></path><circle cx="18.88" cy="37.43" r="8" class="stroke_order_diagram--path_start" transform="matrix(1,0,0,1,196,-4)"></circle><line x1="350" x2="350" y1="1" y2="99" class="stroke_order_diagram--guide_line"></line><line x1="399" x2="399" y1="1" y2="99" class="stroke_order_diagram--bounding_box"></line><path id="pathSk2v596cn7z5" kvg:type="㇕c" d="M17.5,19.84c1,0.66,3.5,0.95,4.69,0.79c5.81-0.76,13.69-2.51,18.27-3.79c2.42-0.67,4.29,0.78,3.24,3.39c-0.61,1.53-3.39,9.93-4.37,13.78" transform="matrix(1,0,0,1,296,-4)" class="stroke_order_diagram--existing_path"></path><path id="pathSk2v596cn7z6" kvg:type="㇐" d="M18.38,37.25c0.75,0.25,2.03,0.43,3.26,0.32c5.34-0.49,14.24-2.32,15.87-2.32c2,0,2.75-0.25,4,0" transform="matrix(1,0,0,1,296,-4)" class="stroke_order_diagram--existing_path"></path><path id="pathSk2v596cn7z7" kvg:type="㇉" d="M18.88,37.43c0.84,0.84,0.71,2.31,0.36,3.83C18.83,43,16.35,50.03,16,50.94c-1,2.56-0.53,3.75,2.75,3.06c3-0.62,12.25-2.3,16.46-2.69c2.04-0.19,3.29,1.56,3.04,4.19c-0.85,8.9-5.22,29.45-9,35.75c-3.75,6.25-6.36-0.31-7.19-2.17" transform="matrix(1,0,0,1,296,-4)" class="stroke_order_diagram--existing_path"></path><path id="kvg:05f37-s4" kvg:type="㇜" d="M67.75,12.75c0.38,1.75-0.25,4-1.25,5.25c-5.49,6.86-7.25,8.5-13.32,15.09C51.39,35.05,52,36.63,55,36c9.5-2,21.25-4.25,32.85-6.25" transform="matrix(1,0,0,1,296,-4)" class="stroke_order_diagram--current_path"></path><path id="pathSk2v596cn7z9" kvg:type="㇜" d="M67.75,12.75c0.38,1.75-0.25,4-1.25,5.25c-5.49,6.86-7.25,8.5-13.32,15.09C51.39,35.05,52,36.63,55,36c9.5-2,21.25-4.25,32.85-6.25" transform="matrix(1,0,0,1,296,-4)" class="stroke_order_diagram--current_path"></path><circle cx="67.75" cy="12.75" r="8" class="stroke_order_diagram--path_start" transform="matrix(1,0,0,1,296,-4)"></circle><line x1="450" x2="450" y1="1" y2="99" class="stroke_order_diagram--guide_line"></line><line x1="499" x2="499" y1="1" y2="99" class="stroke_order_diagram--bounding_box"></line><path id="pathSk2v596cn7zc" kvg:type="㇕c" d="M17.5,19.84c1,0.66,3.5,0.95,4.69,0.79c5.81-0.76,13.69-2.51,18.27-3.79c2.42-0.67,4.29,0.78,3.24,3.39c-0.61,1.53-3.39,9.93-4.37,13.78" transform="matrix(1,0,0,1,396,-4)" class="stroke_order_diagram--existing_path"></path><path id="pathSk2v596cn7zd" kvg:type="㇐" d="M18.38,37.25c0.75,0.25,2.03,0.43,3.26,0.32c5.34-0.49,14.24-2.32,15.87-2.32c2,0,2.75-0.25,4,0" transform="matrix(1,0,0,1,396,-4)" class="stroke_order_diagram--existing_path"></path><path id="pathSk2v596cn7ze" kvg:type="㇉" d="M18.88,37.43c0.84,0.84,0.71,2.31,0.36,3.83C18.83,43,16.35,50.03,16,50.94c-1,2.56-0.53,3.75,2.75,3.06c3-0.62,12.25-2.3,16.46-2.69c2.04-0.19,3.29,1.56,3.04,4.19c-0.85,8.9-5.22,29.45-9,35.75c-3.75,6.25-6.36-0.31-7.19-2.17" transform="matrix(1,0,0,1,396,-4)" class="stroke_order_diagram--existing_path"></path><path id="pathSk2v596cn7zf" kvg:type="㇜" d="M67.75,12.75c0.38,1.75-0.25,4-1.25,5.25c-5.49,6.86-7.25,8.5-13.32,15.09C51.39,35.05,52,36.63,55,36c9.5-2,21.25-4.25,32.85-6.25" transform="matrix(1,0,0,1,396,-4)" class="stroke_order_diagram--existing_path"></path><path id="kvg:05f37-s5" kvg:type="㇔" d="M79.88,20.5c4.46,2.6,11.51,10.7,12.62,14.75" transform="matrix(1,0,0,1,396,-4)" class="stroke_order_diagram--current_path"></path><path id="pathSk2v596cn7zh" kvg:type="㇔" d="M79.88,20.5c4.46,2.6,11.51,10.7,12.62,14.75" transform="matrix(1,0,0,1,396,-4)" class="stroke_order_diagram--current_path"></path><circle cx="79.88" cy="20.5" r="8" class="stroke_order_diagram--path_start" transform="matrix(1,0,0,1,396,-4)"></circle><line x1="550" x2="550" y1="1" y2="99" class="stroke_order_diagram--guide_line"></line><line x1="599" x2="599" y1="1" y2="99" class="stroke_order_diagram--bounding_box"></line><path id="pathSk2v596cn7zk" kvg:type="㇕c" d="M17.5,19.84c1,0.66,3.5,0.95,4.69,0.79c5.81-0.76,13.69-2.51,18.27-3.79c2.42-0.67,4.29,0.78,3.24,3.39c-0.61,1.53-3.39,9.93-4.37,13.78" transform="matrix(1,0,0,1,496,-4)" class="stroke_order_diagram--existing_path"></path><path id="pathSk2v596cn7zl" kvg:type="㇐" d="M18.38,37.25c0.75,0.25,2.03,0.43,3.26,0.32c5.34-0.49,14.24-2.32,15.87-2.32c2,0,2.75-0.25,4,0" transform="matrix(1,0,0,1,496,-4)" class="stroke_order_diagram--existing_path"></path><path id="pathSk2v596cn7zm" kvg:type="㇉" d="M18.88,37.43c0.84,0.84,0.71,2.31,0.36,3.83C18.83,43,16.35,50.03,16,50.94c-1,2.56-0.53,3.75,2.75,3.06c3-0.62,12.25-2.3,16.46-2.69c2.04-0.19,3.29,1.56,3.04,4.19c-0.85,8.9-5.22,29.45-9,35.75c-3.75,6.25-6.36-0.31-7.19-2.17" transform="matrix(1,0,0,1,496,-4)" class="stroke_order_diagram--existing_path"></path><path id="pathSk2v596cn7zn" kvg:type="㇜" d="M67.75,12.75c0.38,1.75-0.25,4-1.25,5.25c-5.49,6.86-7.25,8.5-13.32,15.09C51.39,35.05,52,36.63,55,36c9.5-2,21.25-4.25,32.85-6.25" transform="matrix(1,0,0,1,496,-4)" class="stroke_order_diagram--existing_path"></path><path id="pathSk2v596cn7zo" kvg:type="㇔" d="M79.88,20.5c4.46,2.6,11.51,10.7,12.62,14.75" transform="matrix(1,0,0,1,496,-4)" class="stroke_order_diagram--existing_path"></path><path id="kvg:05f37-s6" kvg:type="㇑" d="M48.25,51.62c0.5,0.19,1.67,1.53,1.8,2.1c0.75,3.36,1.54,7.11,2.52,12.81c0.23,1.32,0.47,2.72,0.72,4.2" transform="matrix(1,0,0,1,496,-4)" class="stroke_order_diagram--current_path"></path><path id="pathSk2v596cn7zq" kvg:type="㇑" d="M48.25,51.62c0.5,0.19,1.67,1.53,1.8,2.1c0.75,3.36,1.54,7.11,2.52,12.81c0.23,1.32,0.47,2.72,0.72,4.2" transform="matrix(1,0,0,1,496,-4)" class="stroke_order_diagram--current_path"></path><circle cx="48.25" cy="51.62" r="8" class="stroke_order_diagram--path_start" transform="matrix(1,0,0,1,496,-4)"></circle><line x1="650" x2="650" y1="1" y2="99" class="stroke_order_diagram--guide_line"></line><line x1="699" x2="699" y1="1" y2="99" class="stroke_order_diagram--bounding_box"></line><path id="pathSk2v596cn7zt" kvg:type="㇕c" d="M17.5,19.84c1,0.66,3.5,0.95,4.69,0.79c5.81-0.76,13.69-2.51,18.27-3.79c2.42-0.67,4.29,0.78,3.24,3.39c-0.61,1.53-3.39,9.93-4.37,13.78" transform="matrix(1,0,0,1,596,-4)" class="stroke_order_diagram--existing_path"></path><path id="pathSk2v596cn7zu" kvg:type="㇐" d="M18.38,37.25c0.75,0.25,2.03,0.43,3.26,0.32c5.34-0.49,14.24-2.32,15.87-2.32c2,0,2.75-0.25,4,0" transform="matrix(1,0,0,1,596,-4)" class="stroke_order_diagram--existing_path"></path><path id="pathSk2v596cn7zv" kvg:type="㇉" d="M18.88,37.43c0.84,0.84,0.71,2.31,0.36,3.83C18.83,43,16.35,50.03,16,50.94c-1,2.56-0.53,3.75,2.75,3.06c3-0.62,12.25-2.3,16.46-2.69c2.04-0.19,3.29,1.56,3.04,4.19c-0.85,8.9-5.22,29.45-9,35.75c-3.75,6.25-6.36-0.31-7.19-2.17" transform="matrix(1,0,0,1,596,-4)" class="stroke_order_diagram--existing_path"></path><path id="pathSk2v596cn7zw" kvg:type="㇜" d="M67.75,12.75c0.38,1.75-0.25,4-1.25,5.25c-5.49,6.86-7.25,8.5-13.32,15.09C51.39,35.05,52,36.63,55,36c9.5-2,21.25-4.25,32.85-6.25" transform="matrix(1,0,0,1,596,-4)" class="stroke_order_diagram--existing_path"></path><path id="pathSk2v596cn7zx" kvg:type="㇔" d="M79.88,20.5c4.46,2.6,11.51,10.7,12.62,14.75" transform="matrix(1,0,0,1,596,-4)" class="stroke_order_diagram--existing_path"></path><path id="pathSk2v596cn7zy" kvg:type="㇑" d="M48.25,51.62c0.5,0.19,1.67,1.53,1.8,2.1c0.75,3.36,1.54,7.11,2.52,12.81c0.23,1.32,0.47,2.72,0.72,4.2" transform="matrix(1,0,0,1,596,-4)" class="stroke_order_diagram--existing_path"></path><path id="kvg:05f37-s7" kvg:type="㇕b" d="M50.99,52.97c11.63-2.34,27.88-4.72,36.57-5.39c2.74-0.21,4.5,2.38,4.18,3.67c-0.91,3.67-2.48,7.26-3.53,11.24" transform="matrix(1,0,0,1,596,-4)" class="stroke_order_diagram--current_path"></path><path id="pathSk2v596cn800" kvg:type="㇕b" d="M50.99,52.97c11.63-2.34,27.88-4.72,36.57-5.39c2.74-0.21,4.5,2.38,4.18,3.67c-0.91,3.67-2.48,7.26-3.53,11.24" transform="matrix(1,0,0,1,596,-4)" class="stroke_order_diagram--current_path"></path><circle cx="50.99" cy="52.97" r="8" class="stroke_order_diagram--path_start" transform="matrix(1,0,0,1,596,-4)"></circle><line x1="750" x2="750" y1="1" y2="99" class="stroke_order_diagram--guide_line"></line><line x1="799" x2="799" y1="1" y2="99" class="stroke_order_diagram--bounding_box"></line><path id="pathSk2v596cn803" kvg:type="㇕c" d="M17.5,19.84c1,0.66,3.5,0.95,4.69,0.79c5.81-0.76,13.69-2.51,18.27-3.79c2.42-0.67,4.29,0.78,3.24,3.39c-0.61,1.53-3.39,9.93-4.37,13.78" transform="matrix(1,0,0,1,696,-4)" class="stroke_order_diagram--existing_path"></path><path id="pathSk2v596cn804" kvg:type="㇐" d="M18.38,37.25c0.75,0.25,2.03,0.43,3.26,0.32c5.34-0.49,14.24-2.32,15.87-2.32c2,0,2.75-0.25,4,0" transform="matrix(1,0,0,1,696,-4)" class="stroke_order_diagram--existing_path"></path><path id="pathSk2v596cn805" kvg:type="㇉" d="M18.88,37.43c0.84,0.84,0.71,2.31,0.36,3.83C18.83,43,16.35,50.03,16,50.94c-1,2.56-0.53,3.75,2.75,3.06c3-0.62,12.25-2.3,16.46-2.69c2.04-0.19,3.29,1.56,3.04,4.19c-0.85,8.9-5.22,29.45-9,35.75c-3.75,6.25-6.36-0.31-7.19-2.17" transform="matrix(1,0,0,1,696,-4)" class="stroke_order_diagram--existing_path"></path><path id="pathSk2v596cn806" kvg:type="㇜" d="M67.75,12.75c0.38,1.75-0.25,4-1.25,5.25c-5.49,6.86-7.25,8.5-13.32,15.09C51.39,35.05,52,36.63,55,36c9.5-2,21.25-4.25,32.85-6.25" transform="matrix(1,0,0,1,696,-4)" class="stroke_order_diagram--existing_path"></path><path id="pathSk2v596cn807" kvg:type="㇔" d="M79.88,20.5c4.46,2.6,11.51,10.7,12.62,14.75" transform="matrix(1,0,0,1,696,-4)" class="stroke_order_diagram--existing_path"></path><path id="pathSk2v596cn808" kvg:type="㇑" d="M48.25,51.62c0.5,0.19,1.67,1.53,1.8,2.1c0.75,3.36,1.54,7.11,2.52,12.81c0.23,1.32,0.47,2.72,0.72,4.2" transform="matrix(1,0,0,1,696,-4)" class="stroke_order_diagram--existing_path"></path><path id="pathSk2v596cn809" kvg:type="㇕b" d="M50.99,52.97c11.63-2.34,27.88-4.72,36.57-5.39c2.74-0.21,4.5,2.38,4.18,3.67c-0.91,3.67-2.48,7.26-3.53,11.24" transform="matrix(1,0,0,1,696,-4)" class="stroke_order_diagram--existing_path"></path><path id="kvg:05f37-s8" kvg:type="㇐b" d="M53.62,69c6.93-1.31,21.4-3.19,32.15-4.76c1.29-0.19,2.53-0.37,3.7-0.55" transform="matrix(1,0,0,1,696,-4)" class="stroke_order_diagram--current_path"></path><path id="pathSk2v596cn80b" kvg:type="㇐b" d="M53.62,69c6.93-1.31,21.4-3.19,32.15-4.76c1.29-0.19,2.53-0.37,3.7-0.55" transform="matrix(1,0,0,1,696,-4)" class="stroke_order_diagram--current_path"></path><circle cx="53.62" cy="69" r="8" class="stroke_order_diagram--path_start" transform="matrix(1,0,0,1,696,-4)"></circle><line x1="850" x2="850" y1="1" y2="99" class="stroke_order_diagram--guide_line"></line><line x1="899" x2="899" y1="1" y2="99" class="stroke_order_diagram--bounding_box"></line><path id="pathSk2v596cn80e" kvg:type="㇕c" d="M17.5,19.84c1,0.66,3.5,0.95,4.69,0.79c5.81-0.76,13.69-2.51,18.27-3.79c2.42-0.67,4.29,0.78,3.24,3.39c-0.61,1.53-3.39,9.93-4.37,13.78" transform="matrix(1,0,0,1,796,-4)" class="stroke_order_diagram--existing_path"></path><path id="pathSk2v596cn80f" kvg:type="㇐" d="M18.38,37.25c0.75,0.25,2.03,0.43,3.26,0.32c5.34-0.49,14.24-2.32,15.87-2.32c2,0,2.75-0.25,4,0" transform="matrix(1,0,0,1,796,-4)" class="stroke_order_diagram--existing_path"></path><path id="pathSk2v596cn80g" kvg:type="㇉" d="M18.88,37.43c0.84,0.84,0.71,2.31,0.36,3.83C18.83,43,16.35,50.03,16,50.94c-1,2.56-0.53,3.75,2.75,3.06c3-0.62,12.25-2.3,16.46-2.69c2.04-0.19,3.29,1.56,3.04,4.19c-0.85,8.9-5.22,29.45-9,35.75c-3.75,6.25-6.36-0.31-7.19-2.17" transform="matrix(1,0,0,1,796,-4)" class="stroke_order_diagram--existing_path"></path><path id="pathSk2v596cn80h" kvg:type="㇜" d="M67.75,12.75c0.38,1.75-0.25,4-1.25,5.25c-5.49,6.86-7.25,8.5-13.32,15.09C51.39,35.05,52,36.63,55,36c9.5-2,21.25-4.25,32.85-6.25" transform="matrix(1,0,0,1,796,-4)" class="stroke_order_diagram--existing_path"></path><path id="pathSk2v596cn80i" kvg:type="㇔" d="M79.88,20.5c4.46,2.6,11.51,10.7,12.62,14.75" transform="matrix(1,0,0,1,796,-4)" class="stroke_order_diagram--existing_path"></path><path id="pathSk2v596cn80j" kvg:type="㇑" d="M48.25,51.62c0.5,0.19,1.67,1.53,1.8,2.1c0.75,3.36,1.54,7.11,2.52,12.81c0.23,1.32,0.47,2.72,0.72,4.2" transform="matrix(1,0,0,1,796,-4)" class="stroke_order_diagram--existing_path"></path><path id="pathSk2v596cn80k" kvg:type="㇕b" d="M50.99,52.97c11.63-2.34,27.88-4.72,36.57-5.39c2.74-0.21,4.5,2.38,4.18,3.67c-0.91,3.67-2.48,7.26-3.53,11.24" transform="matrix(1,0,0,1,796,-4)" class="stroke_order_diagram--existing_path"></path><path id="pathSk2v596cn80l" kvg:type="㇐b" d="M53.62,69c6.93-1.31,21.4-3.19,32.15-4.76c1.29-0.19,2.53-0.37,3.7-0.55" transform="matrix(1,0,0,1,796,-4)" class="stroke_order_diagram--existing_path"></path><path id="kvg:05f37-s9" kvg:type="㇑a" d="M66.97,37c1.28,1,2.07,2.5,2.07,4.26c0,3.99,0.05,32.54-0.08,45.24" transform="matrix(1,0,0,1,796,-4)" class="stroke_order_diagram--current_path"></path><path id="pathSk2v596cn80n" kvg:type="㇑a" d="M66.97,37c1.28,1,2.07,2.5,2.07,4.26c0,3.99,0.05,32.54-0.08,45.24" transform="matrix(1,0,0,1,796,-4)" class="stroke_order_diagram--current_path"></path><circle cx="66.97" cy="37" r="8" class="stroke_order_diagram--path_start" transform="matrix(1,0,0,1,796,-4)"></circle><line x1="950" x2="950" y1="1" y2="99" class="stroke_order_diagram--guide_line"></line><line x1="999" x2="999" y1="1" y2="99" class="stroke_order_diagram--bounding_box"></line><path id="pathSk2v596cn80q" kvg:type="㇕c" d="M17.5,19.84c1,0.66,3.5,0.95,4.69,0.79c5.81-0.76,13.69-2.51,18.27-3.79c2.42-0.67,4.29,0.78,3.24,3.39c-0.61,1.53-3.39,9.93-4.37,13.78" transform="matrix(1,0,0,1,896,-4)" class="stroke_order_diagram--existing_path"></path><path id="pathSk2v596cn80r" kvg:type="㇐" d="M18.38,37.25c0.75,0.25,2.03,0.43,3.26,0.32c5.34-0.49,14.24-2.32,15.87-2.32c2,0,2.75-0.25,4,0" transform="matrix(1,0,0,1,896,-4)" class="stroke_order_diagram--existing_path"></path><path id="pathSk2v596cn80s" kvg:type="㇉" d="M18.88,37.43c0.84,0.84,0.71,2.31,0.36,3.83C18.83,43,16.35,50.03,16,50.94c-1,2.56-0.53,3.75,2.75,3.06c3-0.62,12.25-2.3,16.46-2.69c2.04-0.19,3.29,1.56,3.04,4.19c-0.85,8.9-5.22,29.45-9,35.75c-3.75,6.25-6.36-0.31-7.19-2.17" transform="matrix(1,0,0,1,896,-4)" class="stroke_order_diagram--existing_path"></path><path id="pathSk2v596cn80t" kvg:type="㇜" d="M67.75,12.75c0.38,1.75-0.25,4-1.25,5.25c-5.49,6.86-7.25,8.5-13.32,15.09C51.39,35.05,52,36.63,55,36c9.5-2,21.25-4.25,32.85-6.25" transform="matrix(1,0,0,1,896,-4)" class="stroke_order_diagram--existing_path"></path><path id="pathSk2v596cn80u" kvg:type="㇔" d="M79.88,20.5c4.46,2.6,11.51,10.7,12.62,14.75" transform="matrix(1,0,0,1,896,-4)" class="stroke_order_diagram--existing_path"></path><path id="pathSk2v596cn80v" kvg:type="㇑" d="M48.25,51.62c0.5,0.19,1.67,1.53,1.8,2.1c0.75,3.36,1.54,7.11,2.52,12.81c0.23,1.32,0.47,2.72,0.72,4.2" transform="matrix(1,0,0,1,896,-4)" class="stroke_order_diagram--existing_path"></path><path id="pathSk2v596cn80w" kvg:type="㇕b" d="M50.99,52.97c11.63-2.34,27.88-4.72,36.57-5.39c2.74-0.21,4.5,2.38,4.18,3.67c-0.91,3.67-2.48,7.26-3.53,11.24" transform="matrix(1,0,0,1,896,-4)" class="stroke_order_diagram--existing_path"></path><path id="pathSk2v596cn80x" kvg:type="㇐b" d="M53.62,69c6.93-1.31,21.4-3.19,32.15-4.76c1.29-0.19,2.53-0.37,3.7-0.55" transform="matrix(1,0,0,1,896,-4)" class="stroke_order_diagram--existing_path"></path><path id="pathSk2v596cn80y" kvg:type="㇑a" d="M66.97,37c1.28,1,2.07,2.5,2.07,4.26c0,3.99,0.05,32.54-0.08,45.24" transform="matrix(1,0,0,1,896,-4)" class="stroke_order_diagram--existing_path"></path><path id="kvg:05f37-s10" kvg:type="㇀" d="M45.98,91.04c1.02,1.21,2.87,1.16,3.88,0.97s37.61-8.34,40.65-9.26" transform="matrix(1,0,0,1,896,-4)" class="stroke_order_diagram--current_path"></path><path id="pathSk2v596cn810" kvg:type="㇀" d="M45.98,91.04c1.02,1.21,2.87,1.16,3.88,0.97s37.61-8.34,40.65-9.26" transform="matrix(1,0,0,1,896,-4)" class="stroke_order_diagram--current_path"></path><circle cx="45.98" cy="91.04" r="8" class="stroke_order_diagram--path_start" transform="matrix(1,0,0,1,896,-4)"></circle><line x1="1050" x2="1050" y1="1" y2="99" class="stroke_order_diagram--guide_line"></line><line x1="1099" x2="1099" y1="1" y2="99" class="stroke_order_diagram--bounding_box"></line><path id="pathSk2v596cn813" kvg:type="㇕c" d="M17.5,19.84c1,0.66,3.5,0.95,4.69,0.79c5.81-0.76,13.69-2.51,18.27-3.79c2.42-0.67,4.29,0.78,3.24,3.39c-0.61,1.53-3.39,9.93-4.37,13.78" transform="matrix(1,0,0,1,996,-4)" class="stroke_order_diagram--existing_path"></path><path id="pathSk2v596cn814" kvg:type="㇐" d="M18.38,37.25c0.75,0.25,2.03,0.43,3.26,0.32c5.34-0.49,14.24-2.32,15.87-2.32c2,0,2.75-0.25,4,0" transform="matrix(1,0,0,1,996,-4)" class="stroke_order_diagram--existing_path"></path><path id="pathSk2v596cn815" kvg:type="㇉" d="M18.88,37.43c0.84,0.84,0.71,2.31,0.36,3.83C18.83,43,16.35,50.03,16,50.94c-1,2.56-0.53,3.75,2.75,3.06c3-0.62,12.25-2.3,16.46-2.69c2.04-0.19,3.29,1.56,3.04,4.19c-0.85,8.9-5.22,29.45-9,35.75c-3.75,6.25-6.36-0.31-7.19-2.17" transform="matrix(1,0,0,1,996,-4)" class="stroke_order_diagram--existing_path"></path><path id="pathSk2v596cn816" kvg:type="㇜" d="M67.75,12.75c0.38,1.75-0.25,4-1.25,5.25c-5.49,6.86-7.25,8.5-13.32,15.09C51.39,35.05,52,36.63,55,36c9.5-2,21.25-4.25,32.85-6.25" transform="matrix(1,0,0,1,996,-4)" class="stroke_order_diagram--existing_path"></path><path id="pathSk2v596cn817" kvg:type="㇔" d="M79.88,20.5c4.46,2.6,11.51,10.7,12.62,14.75" transform="matrix(1,0,0,1,996,-4)" class="stroke_order_diagram--existing_path"></path><path id="pathSk2v596cn818" kvg:type="㇑" d="M48.25,51.62c0.5,0.19,1.67,1.53,1.8,2.1c0.75,3.36,1.54,7.11,2.52,12.81c0.23,1.32,0.47,2.72,0.72,4.2" transform="matrix(1,0,0,1,996,-4)" class="stroke_order_diagram--existing_path"></path><path id="pathSk2v596cn819" kvg:type="㇕b" d="M50.99,52.97c11.63-2.34,27.88-4.72,36.57-5.39c2.74-0.21,4.5,2.38,4.18,3.67c-0.91,3.67-2.48,7.26-3.53,11.24" transform="matrix(1,0,0,1,996,-4)" class="stroke_order_diagram--existing_path"></path><path id="pathSk2v596cn81a" kvg:type="㇐b" d="M53.62,69c6.93-1.31,21.4-3.19,32.15-4.76c1.29-0.19,2.53-0.37,3.7-0.55" transform="matrix(1,0,0,1,996,-4)" class="stroke_order_diagram--existing_path"></path><path id="pathSk2v596cn81b" kvg:type="㇑a" d="M66.97,37c1.28,1,2.07,2.5,2.07,4.26c0,3.99,0.05,32.54-0.08,45.24" transform="matrix(1,0,0,1,996,-4)" class="stroke_order_diagram--existing_path"></path><path id="pathSk2v596cn81c" kvg:type="㇀" d="M45.98,91.04c1.02,1.21,2.87,1.16,3.88,0.97s37.61-8.34,40.65-9.26" transform="matrix(1,0,0,1,996,-4)" class="stroke_order_diagram--existing_path"></path><path id="kvg:05f37-s11" kvg:type="㇔" d="M87,75.5c3.53,3.18,9.12,13.06,10,18" transform="matrix(1,0,0,1,996,-4)" class="stroke_order_diagram--current_path"></path><path id="pathSk2v596cn81e" kvg:type="㇔" d="M87,75.5c3.53,3.18,9.12,13.06,10,18" transform="matrix(1,0,0,1,996,-4)" class="stroke_order_diagram--current_path"></path><circle cx="87" cy="75.5" r="8" class="stroke_order_diagram--path_start" transform="matrix(1,0,0,1,996,-4)"></circle></svg>