<svg style="width: 1500px; height: 100px;" viewbox="0 0 1500 100"><style>
.stroke_order_diagram--outer_container {
  width: 100%;
  overflow-x: auto;
  overflow-y: hidden;
}

.stroke_order_diagram--guide_line {
  fill: none;
  stroke: #ddd;
  stroke-width: 3;
  stroke-linecap: square;
  stroke-linejoin: square;
  stroke-dasharray:8, 8;
}

.stroke_order_diagram--bounding_box {
  fill: none;
  stroke: #ddd;
  stroke-width: 4;
  stroke-linecap: square;
  stroke-linejoin: square;
}

.stroke_order_diagram--current_path {
  fill: none;
  stroke: #000;
  stroke-width: 6;
  stroke-linecap: round;
  stroke-linejoin: round;
}

.stroke_order_diagram--existing_path {
  fill: none;
  stroke: #aaa;
  stroke-width: 6;
  stroke-linecap: round;
  stroke-linejoin:round;
}

.stroke_order_diagram--path_start {
  fill: rgba(255, 0, 0, 0.7);
  stroke:none
}</style><desc>Created with Snap</desc><defs></defs><line x1="1" x2="1499" y1="1" y2="1" class="stroke_order_diagram--bounding_box"></line><line x1="1" x2="1" y1="1" y2="99" class="stroke_order_diagram--bounding_box"></line><line x1="1" x2="1499" y1="99" y2="99" class="stroke_order_diagram--bounding_box"></line><line x1="0" x2="1500" y1="50" y2="50" class="stroke_order_diagram--guide_line"></line><line x1="50" x2="50" y1="1" y2="99" class="stroke_order_diagram--guide_line"></line><line x1="99" x2="99" y1="1" y2="99" class="stroke_order_diagram--bounding_box"></line><path id="kvg:05f71-s1" kvg:type="㇑" d="M21.38,15.88c0.75,0.75,1.3,1.94,1.47,2.73c0.67,3.13,1.93,12.24,2.98,18.74c0.22,1.34,0.41,2.56,0.58,3.6" transform="matrix(1,0,0,1,-4,-4)" class="stroke_order_diagram--current_path"></path><path id="pathSk2v596cn1n9b" kvg:type="㇑" d="M21.38,15.88c0.75,0.75,1.3,1.94,1.47,2.73c0.67,3.13,1.93,12.24,2.98,18.74c0.22,1.34,0.41,2.56,0.58,3.6" transform="matrix(1,0,0,1,-4,-4)" class="stroke_order_diagram--current_path"></path><circle cx="21.38" cy="15.88" r="8" class="stroke_order_diagram--path_start" transform="matrix(1,0,0,1,-4,-4)"></circle><line x1="150" x2="150" y1="1" y2="99" class="stroke_order_diagram--guide_line"></line><line x1="199" x2="199" y1="1" y2="99" class="stroke_order_diagram--bounding_box"></line><path id="pathSk2v596cn1n9e" kvg:type="㇑" d="M21.38,15.88c0.75,0.75,1.3,1.94,1.47,2.73c0.67,3.13,1.93,12.24,2.98,18.74c0.22,1.34,0.41,2.56,0.58,3.6" transform="matrix(1,0,0,1,96,-4)" class="stroke_order_diagram--existing_path"></path><path id="kvg:05f71-s2" kvg:type="㇕a" d="M23.77,17.34c6.43-0.88,20.92-3.07,27.6-3.84c3.31-0.38,5.23,0.82,4.77,4.38c-0.46,3.6-1.95,11.19-2.87,15.92c-0.44,2.29-0.76,3.91-0.75,4.08" transform="matrix(1,0,0,1,96,-4)" class="stroke_order_diagram--current_path"></path><path id="pathSk2v596cn1n9g" kvg:type="㇕a" d="M23.77,17.34c6.43-0.88,20.92-3.07,27.6-3.84c3.31-0.38,5.23,0.82,4.77,4.38c-0.46,3.6-1.95,11.19-2.87,15.92c-0.44,2.29-0.76,3.91-0.75,4.08" transform="matrix(1,0,0,1,96,-4)" class="stroke_order_diagram--current_path"></path><circle cx="23.77" cy="17.34" r="8" class="stroke_order_diagram--path_start" transform="matrix(1,0,0,1,96,-4)"></circle><line x1="250" x2="250" y1="1" y2="99" class="stroke_order_diagram--guide_line"></line><line x1="299" x2="299" y1="1" y2="99" class="stroke_order_diagram--bounding_box"></line><path id="pathSk2v596cn1n9j" kvg:type="㇑" d="M21.38,15.88c0.75,0.75,1.3,1.94,1.47,2.73c0.67,3.13,1.93,12.24,2.98,18.74c0.22,1.34,0.41,2.56,0.58,3.6" transform="matrix(1,0,0,1,196,-4)" class="stroke_order_diagram--existing_path"></path><path id="pathSk2v596cn1n9k" kvg:type="㇕a" d="M23.77,17.34c6.43-0.88,20.92-3.07,27.6-3.84c3.31-0.38,5.23,0.82,4.77,4.38c-0.46,3.6-1.95,11.19-2.87,15.92c-0.44,2.29-0.76,3.91-0.75,4.08" transform="matrix(1,0,0,1,196,-4)" class="stroke_order_diagram--existing_path"></path><path id="kvg:05f71-s3" kvg:type="㇐a" d="M25.45,28.24c6.92-0.99,21.49-2.88,28.58-3.45" transform="matrix(1,0,0,1,196,-4)" class="stroke_order_diagram--current_path"></path><path id="pathSk2v596cn1n9m" kvg:type="㇐a" d="M25.45,28.24c6.92-0.99,21.49-2.88,28.58-3.45" transform="matrix(1,0,0,1,196,-4)" class="stroke_order_diagram--current_path"></path><circle cx="25.45" cy="28.24" r="8" class="stroke_order_diagram--path_start" transform="matrix(1,0,0,1,196,-4)"></circle><line x1="350" x2="350" y1="1" y2="99" class="stroke_order_diagram--guide_line"></line><line x1="399" x2="399" y1="1" y2="99" class="stroke_order_diagram--bounding_box"></line><path id="pathSk2v596cn1n9p" kvg:type="㇑" d="M21.38,15.88c0.75,0.75,1.3,1.94,1.47,2.73c0.67,3.13,1.93,12.24,2.98,18.74c0.22,1.34,0.41,2.56,0.58,3.6" transform="matrix(1,0,0,1,296,-4)" class="stroke_order_diagram--existing_path"></path><path id="pathSk2v596cn1n9q" kvg:type="㇕a" d="M23.77,17.34c6.43-0.88,20.92-3.07,27.6-3.84c3.31-0.38,5.23,0.82,4.77,4.38c-0.46,3.6-1.95,11.19-2.87,15.92c-0.44,2.29-0.76,3.91-0.75,4.08" transform="matrix(1,0,0,1,296,-4)" class="stroke_order_diagram--existing_path"></path><path id="pathSk2v596cn1n9r" kvg:type="㇐a" d="M25.45,28.24c6.92-0.99,21.49-2.88,28.58-3.45" transform="matrix(1,0,0,1,296,-4)" class="stroke_order_diagram--existing_path"></path><path id="kvg:05f71-s4" kvg:type="㇐a" d="M27.22,38.29c7.86-0.8,17.28-2.42,24.53-3" transform="matrix(1,0,0,1,296,-4)" class="stroke_order_diagram--current_path"></path><path id="pathSk2v596cn1n9t" kvg:type="㇐a" d="M27.22,38.29c7.86-0.8,17.28-2.42,24.53-3" transform="matrix(1,0,0,1,296,-4)" class="stroke_order_diagram--current_path"></path><circle cx="27.22" cy="38.29" r="8" class="stroke_order_diagram--path_start" transform="matrix(1,0,0,1,296,-4)"></circle><line x1="450" x2="450" y1="1" y2="99" class="stroke_order_diagram--guide_line"></line><line x1="499" x2="499" y1="1" y2="99" class="stroke_order_diagram--bounding_box"></line><path id="pathSk2v596cn1n9w" kvg:type="㇑" d="M21.38,15.88c0.75,0.75,1.3,1.94,1.47,2.73c0.67,3.13,1.93,12.24,2.98,18.74c0.22,1.34,0.41,2.56,0.58,3.6" transform="matrix(1,0,0,1,396,-4)" class="stroke_order_diagram--existing_path"></path><path id="pathSk2v596cn1n9x" kvg:type="㇕a" d="M23.77,17.34c6.43-0.88,20.92-3.07,27.6-3.84c3.31-0.38,5.23,0.82,4.77,4.38c-0.46,3.6-1.95,11.19-2.87,15.92c-0.44,2.29-0.76,3.91-0.75,4.08" transform="matrix(1,0,0,1,396,-4)" class="stroke_order_diagram--existing_path"></path><path id="pathSk2v596cn1n9y" kvg:type="㇐a" d="M25.45,28.24c6.92-0.99,21.49-2.88,28.58-3.45" transform="matrix(1,0,0,1,396,-4)" class="stroke_order_diagram--existing_path"></path><path id="pathSk2v596cn1n9z" kvg:type="㇐a" d="M27.22,38.29c7.86-0.8,17.28-2.42,24.53-3" transform="matrix(1,0,0,1,396,-4)" class="stroke_order_diagram--existing_path"></path><path id="kvg:05f71-s5" kvg:type="㇑a" d="M38.51,39.49c0.81,0.81,1,1.76,1,3c0,2.77-0.01,4.26-0.01,6.01" transform="matrix(1,0,0,1,396,-4)" class="stroke_order_diagram--current_path"></path><path id="pathSk2v596cn1na1" kvg:type="㇑a" d="M38.51,39.49c0.81,0.81,1,1.76,1,3c0,2.77-0.01,4.26-0.01,6.01" transform="matrix(1,0,0,1,396,-4)" class="stroke_order_diagram--current_path"></path><circle cx="38.51" cy="39.49" r="8" class="stroke_order_diagram--path_start" transform="matrix(1,0,0,1,396,-4)"></circle><line x1="550" x2="550" y1="1" y2="99" class="stroke_order_diagram--guide_line"></line><line x1="599" x2="599" y1="1" y2="99" class="stroke_order_diagram--bounding_box"></line><path id="pathSk2v596cn1na4" kvg:type="㇑" d="M21.38,15.88c0.75,0.75,1.3,1.94,1.47,2.73c0.67,3.13,1.93,12.24,2.98,18.74c0.22,1.34,0.41,2.56,0.58,3.6" transform="matrix(1,0,0,1,496,-4)" class="stroke_order_diagram--existing_path"></path><path id="pathSk2v596cn1na5" kvg:type="㇕a" d="M23.77,17.34c6.43-0.88,20.92-3.07,27.6-3.84c3.31-0.38,5.23,0.82,4.77,4.38c-0.46,3.6-1.95,11.19-2.87,15.92c-0.44,2.29-0.76,3.91-0.75,4.08" transform="matrix(1,0,0,1,496,-4)" class="stroke_order_diagram--existing_path"></path><path id="pathSk2v596cn1na6" kvg:type="㇐a" d="M25.45,28.24c6.92-0.99,21.49-2.88,28.58-3.45" transform="matrix(1,0,0,1,496,-4)" class="stroke_order_diagram--existing_path"></path><path id="pathSk2v596cn1na7" kvg:type="㇐a" d="M27.22,38.29c7.86-0.8,17.28-2.42,24.53-3" transform="matrix(1,0,0,1,496,-4)" class="stroke_order_diagram--existing_path"></path><path id="pathSk2v596cn1na8" kvg:type="㇑a" d="M38.51,39.49c0.81,0.81,1,1.76,1,3c0,2.77-0.01,4.26-0.01,6.01" transform="matrix(1,0,0,1,496,-4)" class="stroke_order_diagram--existing_path"></path><path id="kvg:05f71-s6" kvg:type="㇐" d="M14,52.21c2.62,0.42,4.62,0.19,7.01-0.14c8.98-1.24,25.64-3.35,34.5-3.94c1.96-0.13,4.13-0.46,6.01,0.28" transform="matrix(1,0,0,1,496,-4)" class="stroke_order_diagram--current_path"></path><path id="pathSk2v596cn1naa" kvg:type="㇐" d="M14,52.21c2.62,0.42,4.62,0.19,7.01-0.14c8.98-1.24,25.64-3.35,34.5-3.94c1.96-0.13,4.13-0.46,6.01,0.28" transform="matrix(1,0,0,1,496,-4)" class="stroke_order_diagram--current_path"></path><circle cx="14" cy="52.21" r="8" class="stroke_order_diagram--path_start" transform="matrix(1,0,0,1,496,-4)"></circle><line x1="650" x2="650" y1="1" y2="99" class="stroke_order_diagram--guide_line"></line><line x1="699" x2="699" y1="1" y2="99" class="stroke_order_diagram--bounding_box"></line><path id="pathSk2v596cn1nad" kvg:type="㇑" d="M21.38,15.88c0.75,0.75,1.3,1.94,1.47,2.73c0.67,3.13,1.93,12.24,2.98,18.74c0.22,1.34,0.41,2.56,0.58,3.6" transform="matrix(1,0,0,1,596,-4)" class="stroke_order_diagram--existing_path"></path><path id="pathSk2v596cn1nae" kvg:type="㇕a" d="M23.77,17.34c6.43-0.88,20.92-3.07,27.6-3.84c3.31-0.38,5.23,0.82,4.77,4.38c-0.46,3.6-1.95,11.19-2.87,15.92c-0.44,2.29-0.76,3.91-0.75,4.08" transform="matrix(1,0,0,1,596,-4)" class="stroke_order_diagram--existing_path"></path><path id="pathSk2v596cn1naf" kvg:type="㇐a" d="M25.45,28.24c6.92-0.99,21.49-2.88,28.58-3.45" transform="matrix(1,0,0,1,596,-4)" class="stroke_order_diagram--existing_path"></path><path id="pathSk2v596cn1nag" kvg:type="㇐a" d="M27.22,38.29c7.86-0.8,17.28-2.42,24.53-3" transform="matrix(1,0,0,1,596,-4)" class="stroke_order_diagram--existing_path"></path><path id="pathSk2v596cn1nah" kvg:type="㇑a" d="M38.51,39.49c0.81,0.81,1,1.76,1,3c0,2.77-0.01,4.26-0.01,6.01" transform="matrix(1,0,0,1,596,-4)" class="stroke_order_diagram--existing_path"></path><path id="pathSk2v596cn1nai" kvg:type="㇐" d="M14,52.21c2.62,0.42,4.62,0.19,7.01-0.14c8.98-1.24,25.64-3.35,34.5-3.94c1.96-0.13,4.13-0.46,6.01,0.28" transform="matrix(1,0,0,1,596,-4)" class="stroke_order_diagram--existing_path"></path><path id="kvg:05f71-s7" kvg:type="㇑" d="M24.31,62.18c0.69,0.69,1.04,1.7,1.41,3.08c0.6,2.26,1.02,4.49,1.65,7.92c0.17,0.96,0.35,1.9,0.53,2.78" transform="matrix(1,0,0,1,596,-4)" class="stroke_order_diagram--current_path"></path><path id="pathSk2v596cn1nak" kvg:type="㇑" d="M24.31,62.18c0.69,0.69,1.04,1.7,1.41,3.08c0.6,2.26,1.02,4.49,1.65,7.92c0.17,0.96,0.35,1.9,0.53,2.78" transform="matrix(1,0,0,1,596,-4)" class="stroke_order_diagram--current_path"></path><circle cx="24.31" cy="62.18" r="8" class="stroke_order_diagram--path_start" transform="matrix(1,0,0,1,596,-4)"></circle><line x1="750" x2="750" y1="1" y2="99" class="stroke_order_diagram--guide_line"></line><line x1="799" x2="799" y1="1" y2="99" class="stroke_order_diagram--bounding_box"></line><path id="pathSk2v596cn1nan" kvg:type="㇑" d="M21.38,15.88c0.75,0.75,1.3,1.94,1.47,2.73c0.67,3.13,1.93,12.24,2.98,18.74c0.22,1.34,0.41,2.56,0.58,3.6" transform="matrix(1,0,0,1,696,-4)" class="stroke_order_diagram--existing_path"></path><path id="pathSk2v596cn1nao" kvg:type="㇕a" d="M23.77,17.34c6.43-0.88,20.92-3.07,27.6-3.84c3.31-0.38,5.23,0.82,4.77,4.38c-0.46,3.6-1.95,11.19-2.87,15.92c-0.44,2.29-0.76,3.91-0.75,4.08" transform="matrix(1,0,0,1,696,-4)" class="stroke_order_diagram--existing_path"></path><path id="pathSk2v596cn1nap" kvg:type="㇐a" d="M25.45,28.24c6.92-0.99,21.49-2.88,28.58-3.45" transform="matrix(1,0,0,1,696,-4)" class="stroke_order_diagram--existing_path"></path><path id="pathSk2v596cn1naq" kvg:type="㇐a" d="M27.22,38.29c7.86-0.8,17.28-2.42,24.53-3" transform="matrix(1,0,0,1,696,-4)" class="stroke_order_diagram--existing_path"></path><path id="pathSk2v596cn1nar" kvg:type="㇑a" d="M38.51,39.49c0.81,0.81,1,1.76,1,3c0,2.77-0.01,4.26-0.01,6.01" transform="matrix(1,0,0,1,696,-4)" class="stroke_order_diagram--existing_path"></path><path id="pathSk2v596cn1nas" kvg:type="㇐" d="M14,52.21c2.62,0.42,4.62,0.19,7.01-0.14c8.98-1.24,25.64-3.35,34.5-3.94c1.96-0.13,4.13-0.46,6.01,0.28" transform="matrix(1,0,0,1,696,-4)" class="stroke_order_diagram--existing_path"></path><path id="pathSk2v596cn1nat" kvg:type="㇑" d="M24.31,62.18c0.69,0.69,1.04,1.7,1.41,3.08c0.6,2.26,1.02,4.49,1.65,7.92c0.17,0.96,0.35,1.9,0.53,2.78" transform="matrix(1,0,0,1,696,-4)" class="stroke_order_diagram--existing_path"></path><path id="kvg:05f71-s8" kvg:type="㇕b" d="M26.24,63.11c7.26-1.46,17.63-3.33,22.9-3.96c2.98-0.36,5.06,0.72,3.93,3.96c-0.76,2.16-1.4,4.76-2.42,7.37" transform="matrix(1,0,0,1,696,-4)" class="stroke_order_diagram--current_path"></path><path id="pathSk2v596cn1nav" kvg:type="㇕b" d="M26.24,63.11c7.26-1.46,17.63-3.33,22.9-3.96c2.98-0.36,5.06,0.72,3.93,3.96c-0.76,2.16-1.4,4.76-2.42,7.37" transform="matrix(1,0,0,1,696,-4)" class="stroke_order_diagram--current_path"></path><circle cx="26.24" cy="63.11" r="8" class="stroke_order_diagram--path_start" transform="matrix(1,0,0,1,696,-4)"></circle><line x1="850" x2="850" y1="1" y2="99" class="stroke_order_diagram--guide_line"></line><line x1="899" x2="899" y1="1" y2="99" class="stroke_order_diagram--bounding_box"></line><path id="pathSk2v596cn1nay" kvg:type="㇑" d="M21.38,15.88c0.75,0.75,1.3,1.94,1.47,2.73c0.67,3.13,1.93,12.24,2.98,18.74c0.22,1.34,0.41,2.56,0.58,3.6" transform="matrix(1,0,0,1,796,-4)" class="stroke_order_diagram--existing_path"></path><path id="pathSk2v596cn1naz" kvg:type="㇕a" d="M23.77,17.34c6.43-0.88,20.92-3.07,27.6-3.84c3.31-0.38,5.23,0.82,4.77,4.38c-0.46,3.6-1.95,11.19-2.87,15.92c-0.44,2.29-0.76,3.91-0.75,4.08" transform="matrix(1,0,0,1,796,-4)" class="stroke_order_diagram--existing_path"></path><path id="pathSk2v596cn1nb0" kvg:type="㇐a" d="M25.45,28.24c6.92-0.99,21.49-2.88,28.58-3.45" transform="matrix(1,0,0,1,796,-4)" class="stroke_order_diagram--existing_path"></path><path id="pathSk2v596cn1nb1" kvg:type="㇐a" d="M27.22,38.29c7.86-0.8,17.28-2.42,24.53-3" transform="matrix(1,0,0,1,796,-4)" class="stroke_order_diagram--existing_path"></path><path id="pathSk2v596cn1nb2" kvg:type="㇑a" d="M38.51,39.49c0.81,0.81,1,1.76,1,3c0,2.77-0.01,4.26-0.01,6.01" transform="matrix(1,0,0,1,796,-4)" class="stroke_order_diagram--existing_path"></path><path id="pathSk2v596cn1nb3" kvg:type="㇐" d="M14,52.21c2.62,0.42,4.62,0.19,7.01-0.14c8.98-1.24,25.64-3.35,34.5-3.94c1.96-0.13,4.13-0.46,6.01,0.28" transform="matrix(1,0,0,1,796,-4)" class="stroke_order_diagram--existing_path"></path><path id="pathSk2v596cn1nb4" kvg:type="㇑" d="M24.31,62.18c0.69,0.69,1.04,1.7,1.41,3.08c0.6,2.26,1.02,4.49,1.65,7.92c0.17,0.96,0.35,1.9,0.53,2.78" transform="matrix(1,0,0,1,796,-4)" class="stroke_order_diagram--existing_path"></path><path id="pathSk2v596cn1nb5" kvg:type="㇕b" d="M26.24,63.11c7.26-1.46,17.63-3.33,22.9-3.96c2.98-0.36,5.06,0.72,3.93,3.96c-0.76,2.16-1.4,4.76-2.42,7.37" transform="matrix(1,0,0,1,796,-4)" class="stroke_order_diagram--existing_path"></path><path id="kvg:05f71-s9" kvg:type="㇐b" d="M28.96,74.17c6.02-1.07,13.24-1.72,20.28-2.57c0.78-0.09,1.64-0.04,2.4-0.04" transform="matrix(1,0,0,1,796,-4)" class="stroke_order_diagram--current_path"></path><path id="pathSk2v596cn1nb7" kvg:type="㇐b" d="M28.96,74.17c6.02-1.07,13.24-1.72,20.28-2.57c0.78-0.09,1.64-0.04,2.4-0.04" transform="matrix(1,0,0,1,796,-4)" class="stroke_order_diagram--current_path"></path><circle cx="28.96" cy="74.17" r="8" class="stroke_order_diagram--path_start" transform="matrix(1,0,0,1,796,-4)"></circle><line x1="950" x2="950" y1="1" y2="99" class="stroke_order_diagram--guide_line"></line><line x1="999" x2="999" y1="1" y2="99" class="stroke_order_diagram--bounding_box"></line><path id="pathSk2v596cn1nba" kvg:type="㇑" d="M21.38,15.88c0.75,0.75,1.3,1.94,1.47,2.73c0.67,3.13,1.93,12.24,2.98,18.74c0.22,1.34,0.41,2.56,0.58,3.6" transform="matrix(1,0,0,1,896,-4)" class="stroke_order_diagram--existing_path"></path><path id="pathSk2v596cn1nbb" kvg:type="㇕a" d="M23.77,17.34c6.43-0.88,20.92-3.07,27.6-3.84c3.31-0.38,5.23,0.82,4.77,4.38c-0.46,3.6-1.95,11.19-2.87,15.92c-0.44,2.29-0.76,3.91-0.75,4.08" transform="matrix(1,0,0,1,896,-4)" class="stroke_order_diagram--existing_path"></path><path id="pathSk2v596cn1nbc" kvg:type="㇐a" d="M25.45,28.24c6.92-0.99,21.49-2.88,28.58-3.45" transform="matrix(1,0,0,1,896,-4)" class="stroke_order_diagram--existing_path"></path><path id="pathSk2v596cn1nbd" kvg:type="㇐a" d="M27.22,38.29c7.86-0.8,17.28-2.42,24.53-3" transform="matrix(1,0,0,1,896,-4)" class="stroke_order_diagram--existing_path"></path><path id="pathSk2v596cn1nbe" kvg:type="㇑a" d="M38.51,39.49c0.81,0.81,1,1.76,1,3c0,2.77-0.01,4.26-0.01,6.01" transform="matrix(1,0,0,1,896,-4)" class="stroke_order_diagram--existing_path"></path><path id="pathSk2v596cn1nbf" kvg:type="㇐" d="M14,52.21c2.62,0.42,4.62,0.19,7.01-0.14c8.98-1.24,25.64-3.35,34.5-3.94c1.96-0.13,4.13-0.46,6.01,0.28" transform="matrix(1,0,0,1,896,-4)" class="stroke_order_diagram--existing_path"></path><path id="pathSk2v596cn1nbg" kvg:type="㇑" d="M24.31,62.18c0.69,0.69,1.04,1.7,1.41,3.08c0.6,2.26,1.02,4.49,1.65,7.92c0.17,0.96,0.35,1.9,0.53,2.78" transform="matrix(1,0,0,1,896,-4)" class="stroke_order_diagram--existing_path"></path><path id="pathSk2v596cn1nbh" kvg:type="㇕b" d="M26.24,63.11c7.26-1.46,17.63-3.33,22.9-3.96c2.98-0.36,5.06,0.72,3.93,3.96c-0.76,2.16-1.4,4.76-2.42,7.37" transform="matrix(1,0,0,1,896,-4)" class="stroke_order_diagram--existing_path"></path><path id="pathSk2v596cn1nbi" kvg:type="㇐b" d="M28.96,74.17c6.02-1.07,13.24-1.72,20.28-2.57c0.78-0.09,1.64-0.04,2.4-0.04" transform="matrix(1,0,0,1,896,-4)" class="stroke_order_diagram--existing_path"></path><path id="kvg:05f71-s10" kvg:type="㇚" d="M38.24,75.57c0.72,0.72,1.12,1.81,1.12,3.33c0,3.62-0.11,12.61-0.11,15.73c0,4.99-4.26,0.59-5.84-0.81" transform="matrix(1,0,0,1,896,-4)" class="stroke_order_diagram--current_path"></path><path id="pathSk2v596cn1nbk" kvg:type="㇚" d="M38.24,75.57c0.72,0.72,1.12,1.81,1.12,3.33c0,3.62-0.11,12.61-0.11,15.73c0,4.99-4.26,0.59-5.84-0.81" transform="matrix(1,0,0,1,896,-4)" class="stroke_order_diagram--current_path"></path><circle cx="38.24" cy="75.57" r="8" class="stroke_order_diagram--path_start" transform="matrix(1,0,0,1,896,-4)"></circle><line x1="1050" x2="1050" y1="1" y2="99" class="stroke_order_diagram--guide_line"></line><line x1="1099" x2="1099" y1="1" y2="99" class="stroke_order_diagram--bounding_box"></line><path id="pathSk2v596cn1nbn" kvg:type="㇑" d="M21.38,15.88c0.75,0.75,1.3,1.94,1.47,2.73c0.67,3.13,1.93,12.24,2.98,18.74c0.22,1.34,0.41,2.56,0.58,3.6" transform="matrix(1,0,0,1,996,-4)" class="stroke_order_diagram--existing_path"></path><path id="pathSk2v596cn1nbo" kvg:type="㇕a" d="M23.77,17.34c6.43-0.88,20.92-3.07,27.6-3.84c3.31-0.38,5.23,0.82,4.77,4.38c-0.46,3.6-1.95,11.19-2.87,15.92c-0.44,2.29-0.76,3.91-0.75,4.08" transform="matrix(1,0,0,1,996,-4)" class="stroke_order_diagram--existing_path"></path><path id="pathSk2v596cn1nbp" kvg:type="㇐a" d="M25.45,28.24c6.92-0.99,21.49-2.88,28.58-3.45" transform="matrix(1,0,0,1,996,-4)" class="stroke_order_diagram--existing_path"></path><path id="pathSk2v596cn1nbq" kvg:type="㇐a" d="M27.22,38.29c7.86-0.8,17.28-2.42,24.53-3" transform="matrix(1,0,0,1,996,-4)" class="stroke_order_diagram--existing_path"></path><path id="pathSk2v596cn1nbr" kvg:type="㇑a" d="M38.51,39.49c0.81,0.81,1,1.76,1,3c0,2.77-0.01,4.26-0.01,6.01" transform="matrix(1,0,0,1,996,-4)" class="stroke_order_diagram--existing_path"></path><path id="pathSk2v596cn1nbs" kvg:type="㇐" d="M14,52.21c2.62,0.42,4.62,0.19,7.01-0.14c8.98-1.24,25.64-3.35,34.5-3.94c1.96-0.13,4.13-0.46,6.01,0.28" transform="matrix(1,0,0,1,996,-4)" class="stroke_order_diagram--existing_path"></path><path id="pathSk2v596cn1nbt" kvg:type="㇑" d="M24.31,62.18c0.69,0.69,1.04,1.7,1.41,3.08c0.6,2.26,1.02,4.49,1.65,7.92c0.17,0.96,0.35,1.9,0.53,2.78" transform="matrix(1,0,0,1,996,-4)" class="stroke_order_diagram--existing_path"></path><path id="pathSk2v596cn1nbu" kvg:type="㇕b" d="M26.24,63.11c7.26-1.46,17.63-3.33,22.9-3.96c2.98-0.36,5.06,0.72,3.93,3.96c-0.76,2.16-1.4,4.76-2.42,7.37" transform="matrix(1,0,0,1,996,-4)" class="stroke_order_diagram--existing_path"></path><path id="pathSk2v596cn1nbv" kvg:type="㇐b" d="M28.96,74.17c6.02-1.07,13.24-1.72,20.28-2.57c0.78-0.09,1.64-0.04,2.4-0.04" transform="matrix(1,0,0,1,996,-4)" class="stroke_order_diagram--existing_path"></path><path id="pathSk2v596cn1nbw" kvg:type="㇚" d="M38.24,75.57c0.72,0.72,1.12,1.81,1.12,3.33c0,3.62-0.11,12.61-0.11,15.73c0,4.99-4.26,0.59-5.84-0.81" transform="matrix(1,0,0,1,996,-4)" class="stroke_order_diagram--existing_path"></path><path id="kvg:05f71-s11" kvg:type="㇒" d="M25.09,81.36c0.09,0.86-0.07,1.68-0.47,2.45c-2,2.95-4.62,6.2-8.93,10.29" transform="matrix(1,0,0,1,996,-4)" class="stroke_order_diagram--current_path"></path><path id="pathSk2v596cn1nby" kvg:type="㇒" d="M25.09,81.36c0.09,0.86-0.07,1.68-0.47,2.45c-2,2.95-4.62,6.2-8.93,10.29" transform="matrix(1,0,0,1,996,-4)" class="stroke_order_diagram--current_path"></path><circle cx="25.09" cy="81.36" r="8" class="stroke_order_diagram--path_start" transform="matrix(1,0,0,1,996,-4)"></circle><line x1="1150" x2="1150" y1="1" y2="99" class="stroke_order_diagram--guide_line"></line><line x1="1199" x2="1199" y1="1" y2="99" class="stroke_order_diagram--bounding_box"></line><path id="pathSk2v596cn1nc1" kvg:type="㇑" d="M21.38,15.88c0.75,0.75,1.3,1.94,1.47,2.73c0.67,3.13,1.93,12.24,2.98,18.74c0.22,1.34,0.41,2.56,0.58,3.6" transform="matrix(1,0,0,1,1096,-4)" class="stroke_order_diagram--existing_path"></path><path id="pathSk2v596cn1nc2" kvg:type="㇕a" d="M23.77,17.34c6.43-0.88,20.92-3.07,27.6-3.84c3.31-0.38,5.23,0.82,4.77,4.38c-0.46,3.6-1.95,11.19-2.87,15.92c-0.44,2.29-0.76,3.91-0.75,4.08" transform="matrix(1,0,0,1,1096,-4)" class="stroke_order_diagram--existing_path"></path><path id="pathSk2v596cn1nc3" kvg:type="㇐a" d="M25.45,28.24c6.92-0.99,21.49-2.88,28.58-3.45" transform="matrix(1,0,0,1,1096,-4)" class="stroke_order_diagram--existing_path"></path><path id="pathSk2v596cn1nc4" kvg:type="㇐a" d="M27.22,38.29c7.86-0.8,17.28-2.42,24.53-3" transform="matrix(1,0,0,1,1096,-4)" class="stroke_order_diagram--existing_path"></path><path id="pathSk2v596cn1nc5" kvg:type="㇑a" d="M38.51,39.49c0.81,0.81,1,1.76,1,3c0,2.77-0.01,4.26-0.01,6.01" transform="matrix(1,0,0,1,1096,-4)" class="stroke_order_diagram--existing_path"></path><path id="pathSk2v596cn1nc6" kvg:type="㇐" d="M14,52.21c2.62,0.42,4.62,0.19,7.01-0.14c8.98-1.24,25.64-3.35,34.5-3.94c1.96-0.13,4.13-0.46,6.01,0.28" transform="matrix(1,0,0,1,1096,-4)" class="stroke_order_diagram--existing_path"></path><path id="pathSk2v596cn1nc7" kvg:type="㇑" d="M24.31,62.18c0.69,0.69,1.04,1.7,1.41,3.08c0.6,2.26,1.02,4.49,1.65,7.92c0.17,0.96,0.35,1.9,0.53,2.78" transform="matrix(1,0,0,1,1096,-4)" class="stroke_order_diagram--existing_path"></path><path id="pathSk2v596cn1nc8" kvg:type="㇕b" d="M26.24,63.11c7.26-1.46,17.63-3.33,22.9-3.96c2.98-0.36,5.06,0.72,3.93,3.96c-0.76,2.16-1.4,4.76-2.42,7.37" transform="matrix(1,0,0,1,1096,-4)" class="stroke_order_diagram--existing_path"></path><path id="pathSk2v596cn1nc9" kvg:type="㇐b" d="M28.96,74.17c6.02-1.07,13.24-1.72,20.28-2.57c0.78-0.09,1.64-0.04,2.4-0.04" transform="matrix(1,0,0,1,1096,-4)" class="stroke_order_diagram--existing_path"></path><path id="pathSk2v596cn1nca" kvg:type="㇚" d="M38.24,75.57c0.72,0.72,1.12,1.81,1.12,3.33c0,3.62-0.11,12.61-0.11,15.73c0,4.99-4.26,0.59-5.84-0.81" transform="matrix(1,0,0,1,1096,-4)" class="stroke_order_diagram--existing_path"></path><path id="pathSk2v596cn1ncb" kvg:type="㇒" d="M25.09,81.36c0.09,0.86-0.07,1.68-0.47,2.45c-2,2.95-4.62,6.2-8.93,10.29" transform="matrix(1,0,0,1,1096,-4)" class="stroke_order_diagram--existing_path"></path><path id="kvg:05f71-s12" kvg:type="㇔" d="M50.28,80.61c2.82,1.77,6.46,6.94,7.17,9.69" transform="matrix(1,0,0,1,1096,-4)" class="stroke_order_diagram--current_path"></path><path id="pathSk2v596cn1ncd" kvg:type="㇔" d="M50.28,80.61c2.82,1.77,6.46,6.94,7.17,9.69" transform="matrix(1,0,0,1,1096,-4)" class="stroke_order_diagram--current_path"></path><circle cx="50.28" cy="80.61" r="8" class="stroke_order_diagram--path_start" transform="matrix(1,0,0,1,1096,-4)"></circle><line x1="1250" x2="1250" y1="1" y2="99" class="stroke_order_diagram--guide_line"></line><line x1="1299" x2="1299" y1="1" y2="99" class="stroke_order_diagram--bounding_box"></line><path id="pathSk2v596cn1ncg" kvg:type="㇑" d="M21.38,15.88c0.75,0.75,1.3,1.94,1.47,2.73c0.67,3.13,1.93,12.24,2.98,18.74c0.22,1.34,0.41,2.56,0.58,3.6" transform="matrix(1,0,0,1,1196,-4)" class="stroke_order_diagram--existing_path"></path><path id="pathSk2v596cn1nch" kvg:type="㇕a" d="M23.77,17.34c6.43-0.88,20.92-3.07,27.6-3.84c3.31-0.38,5.23,0.82,4.77,4.38c-0.46,3.6-1.95,11.19-2.87,15.92c-0.44,2.29-0.76,3.91-0.75,4.08" transform="matrix(1,0,0,1,1196,-4)" class="stroke_order_diagram--existing_path"></path><path id="pathSk2v596cn1nci" kvg:type="㇐a" d="M25.45,28.24c6.92-0.99,21.49-2.88,28.58-3.45" transform="matrix(1,0,0,1,1196,-4)" class="stroke_order_diagram--existing_path"></path><path id="pathSk2v596cn1ncj" kvg:type="㇐a" d="M27.22,38.29c7.86-0.8,17.28-2.42,24.53-3" transform="matrix(1,0,0,1,1196,-4)" class="stroke_order_diagram--existing_path"></path><path id="pathSk2v596cn1nck" kvg:type="㇑a" d="M38.51,39.49c0.81,0.81,1,1.76,1,3c0,2.77-0.01,4.26-0.01,6.01" transform="matrix(1,0,0,1,1196,-4)" class="stroke_order_diagram--existing_path"></path><path id="pathSk2v596cn1ncl" kvg:type="㇐" d="M14,52.21c2.62,0.42,4.62,0.19,7.01-0.14c8.98-1.24,25.64-3.35,34.5-3.94c1.96-0.13,4.13-0.46,6.01,0.28" transform="matrix(1,0,0,1,1196,-4)" class="stroke_order_diagram--existing_path"></path><path id="pathSk2v596cn1ncm" kvg:type="㇑" d="M24.31,62.18c0.69,0.69,1.04,1.7,1.41,3.08c0.6,2.26,1.02,4.49,1.65,7.92c0.17,0.96,0.35,1.9,0.53,2.78" transform="matrix(1,0,0,1,1196,-4)" class="stroke_order_diagram--existing_path"></path><path id="pathSk2v596cn1ncn" kvg:type="㇕b" d="M26.24,63.11c7.26-1.46,17.63-3.33,22.9-3.96c2.98-0.36,5.06,0.72,3.93,3.96c-0.76,2.16-1.4,4.76-2.42,7.37" transform="matrix(1,0,0,1,1196,-4)" class="stroke_order_diagram--existing_path"></path><path id="pathSk2v596cn1nco" kvg:type="㇐b" d="M28.96,74.17c6.02-1.07,13.24-1.72,20.28-2.57c0.78-0.09,1.64-0.04,2.4-0.04" transform="matrix(1,0,0,1,1196,-4)" class="stroke_order_diagram--existing_path"></path><path id="pathSk2v596cn1ncp" kvg:type="㇚" d="M38.24,75.57c0.72,0.72,1.12,1.81,1.12,3.33c0,3.62-0.11,12.61-0.11,15.73c0,4.99-4.26,0.59-5.84-0.81" transform="matrix(1,0,0,1,1196,-4)" class="stroke_order_diagram--existing_path"></path><path id="pathSk2v596cn1ncq" kvg:type="㇒" d="M25.09,81.36c0.09,0.86-0.07,1.68-0.47,2.45c-2,2.95-4.62,6.2-8.93,10.29" transform="matrix(1,0,0,1,1196,-4)" class="stroke_order_diagram--existing_path"></path><path id="pathSk2v596cn1ncr" kvg:type="㇔" d="M50.28,80.61c2.82,1.77,6.46,6.94,7.17,9.69" transform="matrix(1,0,0,1,1196,-4)" class="stroke_order_diagram--existing_path"></path><path id="kvg:05f71-s13" kvg:type="㇒" d="M90.18,19.2c0.13,1,0.02,1.54-0.64,2.33c-2.98,3.63-12.96,11.66-18.88,14.33" transform="matrix(1,0,0,1,1196,-4)" class="stroke_order_diagram--current_path"></path><path id="pathSk2v596cn1nct" kvg:type="㇒" d="M90.18,19.2c0.13,1,0.02,1.54-0.64,2.33c-2.98,3.63-12.96,11.66-18.88,14.33" transform="matrix(1,0,0,1,1196,-4)" class="stroke_order_diagram--current_path"></path><circle cx="90.18" cy="19.2" r="8" class="stroke_order_diagram--path_start" transform="matrix(1,0,0,1,1196,-4)"></circle><line x1="1350" x2="1350" y1="1" y2="99" class="stroke_order_diagram--guide_line"></line><line x1="1399" x2="1399" y1="1" y2="99" class="stroke_order_diagram--bounding_box"></line><path id="pathSk2v596cn1ncw" kvg:type="㇑" d="M21.38,15.88c0.75,0.75,1.3,1.94,1.47,2.73c0.67,3.13,1.93,12.24,2.98,18.74c0.22,1.34,0.41,2.56,0.58,3.6" transform="matrix(1,0,0,1,1296,-4)" class="stroke_order_diagram--existing_path"></path><path id="pathSk2v596cn1ncx" kvg:type="㇕a" d="M23.77,17.34c6.43-0.88,20.92-3.07,27.6-3.84c3.31-0.38,5.23,0.82,4.77,4.38c-0.46,3.6-1.95,11.19-2.87,15.92c-0.44,2.29-0.76,3.91-0.75,4.08" transform="matrix(1,0,0,1,1296,-4)" class="stroke_order_diagram--existing_path"></path><path id="pathSk2v596cn1ncy" kvg:type="㇐a" d="M25.45,28.24c6.92-0.99,21.49-2.88,28.58-3.45" transform="matrix(1,0,0,1,1296,-4)" class="stroke_order_diagram--existing_path"></path><path id="pathSk2v596cn1ncz" kvg:type="㇐a" d="M27.22,38.29c7.86-0.8,17.28-2.42,24.53-3" transform="matrix(1,0,0,1,1296,-4)" class="stroke_order_diagram--existing_path"></path><path id="pathSk2v596cn1nd0" kvg:type="㇑a" d="M38.51,39.49c0.81,0.81,1,1.76,1,3c0,2.77-0.01,4.26-0.01,6.01" transform="matrix(1,0,0,1,1296,-4)" class="stroke_order_diagram--existing_path"></path><path id="pathSk2v596cn1nd1" kvg:type="㇐" d="M14,52.21c2.62,0.42,4.62,0.19,7.01-0.14c8.98-1.24,25.64-3.35,34.5-3.94c1.96-0.13,4.13-0.46,6.01,0.28" transform="matrix(1,0,0,1,1296,-4)" class="stroke_order_diagram--existing_path"></path><path id="pathSk2v596cn1nd2" kvg:type="㇑" d="M24.31,62.18c0.69,0.69,1.04,1.7,1.41,3.08c0.6,2.26,1.02,4.49,1.65,7.92c0.17,0.96,0.35,1.9,0.53,2.78" transform="matrix(1,0,0,1,1296,-4)" class="stroke_order_diagram--existing_path"></path><path id="pathSk2v596cn1nd3" kvg:type="㇕b" d="M26.24,63.11c7.26-1.46,17.63-3.33,22.9-3.96c2.98-0.36,5.06,0.72,3.93,3.96c-0.76,2.16-1.4,4.76-2.42,7.37" transform="matrix(1,0,0,1,1296,-4)" class="stroke_order_diagram--existing_path"></path><path id="pathSk2v596cn1nd4" kvg:type="㇐b" d="M28.96,74.17c6.02-1.07,13.24-1.72,20.28-2.57c0.78-0.09,1.64-0.04,2.4-0.04" transform="matrix(1,0,0,1,1296,-4)" class="stroke_order_diagram--existing_path"></path><path id="pathSk2v596cn1nd5" kvg:type="㇚" d="M38.24,75.57c0.72,0.72,1.12,1.81,1.12,3.33c0,3.62-0.11,12.61-0.11,15.73c0,4.99-4.26,0.59-5.84-0.81" transform="matrix(1,0,0,1,1296,-4)" class="stroke_order_diagram--existing_path"></path><path id="pathSk2v596cn1nd6" kvg:type="㇒" d="M25.09,81.36c0.09,0.86-0.07,1.68-0.47,2.45c-2,2.95-4.62,6.2-8.93,10.29" transform="matrix(1,0,0,1,1296,-4)" class="stroke_order_diagram--existing_path"></path><path id="pathSk2v596cn1nd7" kvg:type="㇔" d="M50.28,80.61c2.82,1.77,6.46,6.94,7.17,9.69" transform="matrix(1,0,0,1,1296,-4)" class="stroke_order_diagram--existing_path"></path><path id="pathSk2v596cn1nd8" kvg:type="㇒" d="M90.18,19.2c0.13,1,0.02,1.54-0.64,2.33c-2.98,3.63-12.96,11.66-18.88,14.33" transform="matrix(1,0,0,1,1296,-4)" class="stroke_order_diagram--existing_path"></path><path id="kvg:05f71-s14" kvg:type="㇒" d="M89.04,46.22c0.11,0.77-0.21,1.56-0.64,2.17c-2.42,3.48-9.78,9.23-17.75,13.79" transform="matrix(1,0,0,1,1296,-4)" class="stroke_order_diagram--current_path"></path><path id="pathSk2v596cn1nda" kvg:type="㇒" d="M89.04,46.22c0.11,0.77-0.21,1.56-0.64,2.17c-2.42,3.48-9.78,9.23-17.75,13.79" transform="matrix(1,0,0,1,1296,-4)" class="stroke_order_diagram--current_path"></path><circle cx="89.04" cy="46.22" r="8" class="stroke_order_diagram--path_start" transform="matrix(1,0,0,1,1296,-4)"></circle><line x1="1450" x2="1450" y1="1" y2="99" class="stroke_order_diagram--guide_line"></line><line x1="1499" x2="1499" y1="1" y2="99" class="stroke_order_diagram--bounding_box"></line><path id="pathSk2v596cn1ndd" kvg:type="㇑" d="M21.38,15.88c0.75,0.75,1.3,1.94,1.47,2.73c0.67,3.13,1.93,12.24,2.98,18.74c0.22,1.34,0.41,2.56,0.58,3.6" transform="matrix(1,0,0,1,1396,-4)" class="stroke_order_diagram--existing_path"></path><path id="pathSk2v596cn1nde" kvg:type="㇕a" d="M23.77,17.34c6.43-0.88,20.92-3.07,27.6-3.84c3.31-0.38,5.23,0.82,4.77,4.38c-0.46,3.6-1.95,11.19-2.87,15.92c-0.44,2.29-0.76,3.91-0.75,4.08" transform="matrix(1,0,0,1,1396,-4)" class="stroke_order_diagram--existing_path"></path><path id="pathSk2v596cn1ndf" kvg:type="㇐a" d="M25.45,28.24c6.92-0.99,21.49-2.88,28.58-3.45" transform="matrix(1,0,0,1,1396,-4)" class="stroke_order_diagram--existing_path"></path><path id="pathSk2v596cn1ndg" kvg:type="㇐a" d="M27.22,38.29c7.86-0.8,17.28-2.42,24.53-3" transform="matrix(1,0,0,1,1396,-4)" class="stroke_order_diagram--existing_path"></path><path id="pathSk2v596cn1ndh" kvg:type="㇑a" d="M38.51,39.49c0.81,0.81,1,1.76,1,3c0,2.77-0.01,4.26-0.01,6.01" transform="matrix(1,0,0,1,1396,-4)" class="stroke_order_diagram--existing_path"></path><path id="pathSk2v596cn1ndi" kvg:type="㇐" d="M14,52.21c2.62,0.42,4.62,0.19,7.01-0.14c8.98-1.24,25.64-3.35,34.5-3.94c1.96-0.13,4.13-0.46,6.01,0.28" transform="matrix(1,0,0,1,1396,-4)" class="stroke_order_diagram--existing_path"></path><path id="pathSk2v596cn1ndj" kvg:type="㇑" d="M24.31,62.18c0.69,0.69,1.04,1.7,1.41,3.08c0.6,2.26,1.02,4.49,1.65,7.92c0.17,0.96,0.35,1.9,0.53,2.78" transform="matrix(1,0,0,1,1396,-4)" class="stroke_order_diagram--existing_path"></path><path id="pathSk2v596cn1ndk" kvg:type="㇕b" d="M26.24,63.11c7.26-1.46,17.63-3.33,22.9-3.96c2.98-0.36,5.06,0.72,3.93,3.96c-0.76,2.16-1.4,4.76-2.42,7.37" transform="matrix(1,0,0,1,1396,-4)" class="stroke_order_diagram--existing_path"></path><path id="pathSk2v596cn1ndl" kvg:type="㇐b" d="M28.96,74.17c6.02-1.07,13.24-1.72,20.28-2.57c0.78-0.09,1.64-0.04,2.4-0.04" transform="matrix(1,0,0,1,1396,-4)" class="stroke_order_diagram--existing_path"></path><path id="pathSk2v596cn1ndm" kvg:type="㇚" d="M38.24,75.57c0.72,0.72,1.12,1.81,1.12,3.33c0,3.62-0.11,12.61-0.11,15.73c0,4.99-4.26,0.59-5.84-0.81" transform="matrix(1,0,0,1,1396,-4)" class="stroke_order_diagram--existing_path"></path><path id="pathSk2v596cn1ndn" kvg:type="㇒" d="M25.09,81.36c0.09,0.86-0.07,1.68-0.47,2.45c-2,2.95-4.62,6.2-8.93,10.29" transform="matrix(1,0,0,1,1396,-4)" class="stroke_order_diagram--existing_path"></path><path id="pathSk2v596cn1ndo" kvg:type="㇔" d="M50.28,80.61c2.82,1.77,6.46,6.94,7.17,9.69" transform="matrix(1,0,0,1,1396,-4)" class="stroke_order_diagram--existing_path"></path><path id="pathSk2v596cn1ndp" kvg:type="㇒" d="M90.18,19.2c0.13,1,0.02,1.54-0.64,2.33c-2.98,3.63-12.96,11.66-18.88,14.33" transform="matrix(1,0,0,1,1396,-4)" class="stroke_order_diagram--existing_path"></path><path id="pathSk2v596cn1ndq" kvg:type="㇒" d="M89.04,46.22c0.11,0.77-0.21,1.56-0.64,2.17c-2.42,3.48-9.78,9.23-17.75,13.79" transform="matrix(1,0,0,1,1396,-4)" class="stroke_order_diagram--existing_path"></path><path id="kvg:05f71-s15" kvg:type="㇒" d="M89.25,74.7c0.13,1,0.17,1.86-0.42,2.71c-3.58,5.21-11.71,12.96-23.69,20.39" transform="matrix(1,0,0,1,1396,-4)" class="stroke_order_diagram--current_path"></path><path id="pathSk2v596cn1nds" kvg:type="㇒" d="M89.25,74.7c0.13,1,0.17,1.86-0.42,2.71c-3.58,5.21-11.71,12.96-23.69,20.39" transform="matrix(1,0,0,1,1396,-4)" class="stroke_order_diagram--current_path"></path><circle cx="89.25" cy="74.7" r="8" class="stroke_order_diagram--path_start" transform="matrix(1,0,0,1,1396,-4)"></circle></svg>