<svg style="width: 900px; height: 100px;" viewbox="0 0 900 100"><style>
.stroke_order_diagram--outer_container {
  width: 100%;
  overflow-x: auto;
  overflow-y: hidden;
}

.stroke_order_diagram--guide_line {
  fill: none;
  stroke: #ddd;
  stroke-width: 3;
  stroke-linecap: square;
  stroke-linejoin: square;
  stroke-dasharray:8, 8;
}

.stroke_order_diagram--bounding_box {
  fill: none;
  stroke: #ddd;
  stroke-width: 4;
  stroke-linecap: square;
  stroke-linejoin: square;
}

.stroke_order_diagram--current_path {
  fill: none;
  stroke: #000;
  stroke-width: 6;
  stroke-linecap: round;
  stroke-linejoin: round;
}

.stroke_order_diagram--existing_path {
  fill: none;
  stroke: #aaa;
  stroke-width: 6;
  stroke-linecap: round;
  stroke-linejoin:round;
}

.stroke_order_diagram--path_start {
  fill: rgba(255, 0, 0, 0.7);
  stroke:none
}</style><desc>Created with Snap</desc><defs></defs><line x1="1" x2="899" y1="1" y2="1" class="stroke_order_diagram--bounding_box"></line><line x1="1" x2="1" y1="1" y2="99" class="stroke_order_diagram--bounding_box"></line><line x1="1" x2="899" y1="99" y2="99" class="stroke_order_diagram--bounding_box"></line><line x1="0" x2="900" y1="50" y2="50" class="stroke_order_diagram--guide_line"></line><line x1="50" x2="50" y1="1" y2="99" class="stroke_order_diagram--guide_line"></line><line x1="99" x2="99" y1="1" y2="99" class="stroke_order_diagram--bounding_box"></line><path id="kvg:05f8b-s1" kvg:type="㇒" d="M32.33,12.25c0.1,0.93-0.16,1.73-0.65,2.5c-2.97,4.64-10.56,13-18.56,18" transform="matrix(1,0,0,1,-4,-4)" class="stroke_order_diagram--current_path"></path><path id="pathSk2v596cn1i5d" kvg:type="㇒" d="M32.33,12.25c0.1,0.93-0.16,1.73-0.65,2.5c-2.97,4.64-10.56,13-18.56,18" transform="matrix(1,0,0,1,-4,-4)" class="stroke_order_diagram--current_path"></path><circle cx="32.33" cy="12.25" r="8" class="stroke_order_diagram--path_start" transform="matrix(1,0,0,1,-4,-4)"></circle><line x1="150" x2="150" y1="1" y2="99" class="stroke_order_diagram--guide_line"></line><line x1="199" x2="199" y1="1" y2="99" class="stroke_order_diagram--bounding_box"></line><path id="pathSk2v596cn1i5g" kvg:type="㇒" d="M32.33,12.25c0.1,0.93-0.16,1.73-0.65,2.5c-2.97,4.64-10.56,13-18.56,18" transform="matrix(1,0,0,1,96,-4)" class="stroke_order_diagram--existing_path"></path><path id="kvg:05f8b-s2" kvg:type="㇒" d="M32.87,33.5c0.05,0.69-0.22,1.93-0.61,2.77c-3.14,6.86-9.64,16.48-19.02,26.23" transform="matrix(1,0,0,1,96,-4)" class="stroke_order_diagram--current_path"></path><path id="pathSk2v596cn1i5i" kvg:type="㇒" d="M32.87,33.5c0.05,0.69-0.22,1.93-0.61,2.77c-3.14,6.86-9.64,16.48-19.02,26.23" transform="matrix(1,0,0,1,96,-4)" class="stroke_order_diagram--current_path"></path><circle cx="32.87" cy="33.5" r="8" class="stroke_order_diagram--path_start" transform="matrix(1,0,0,1,96,-4)"></circle><line x1="250" x2="250" y1="1" y2="99" class="stroke_order_diagram--guide_line"></line><line x1="299" x2="299" y1="1" y2="99" class="stroke_order_diagram--bounding_box"></line><path id="pathSk2v596cn1i5l" kvg:type="㇒" d="M32.33,12.25c0.1,0.93-0.16,1.73-0.65,2.5c-2.97,4.64-10.56,13-18.56,18" transform="matrix(1,0,0,1,196,-4)" class="stroke_order_diagram--existing_path"></path><path id="pathSk2v596cn1i5m" kvg:type="㇒" d="M32.87,33.5c0.05,0.69-0.22,1.93-0.61,2.77c-3.14,6.86-9.64,16.48-19.02,26.23" transform="matrix(1,0,0,1,196,-4)" class="stroke_order_diagram--existing_path"></path><path id="kvg:05f8b-s3" kvg:type="㇑" d="M26.47,50.25c0.89,0.89,1.15,2.25,1.15,3.66c0,0.39,0.03,23-0.02,35.1c-0.02,3.75-0.03,6.49-0.05,7.25" transform="matrix(1,0,0,1,196,-4)" class="stroke_order_diagram--current_path"></path><path id="pathSk2v596cn1i5o" kvg:type="㇑" d="M26.47,50.25c0.89,0.89,1.15,2.25,1.15,3.66c0,0.39,0.03,23-0.02,35.1c-0.02,3.75-0.03,6.49-0.05,7.25" transform="matrix(1,0,0,1,196,-4)" class="stroke_order_diagram--current_path"></path><circle cx="26.47" cy="50.25" r="8" class="stroke_order_diagram--path_start" transform="matrix(1,0,0,1,196,-4)"></circle><line x1="350" x2="350" y1="1" y2="99" class="stroke_order_diagram--guide_line"></line><line x1="399" x2="399" y1="1" y2="99" class="stroke_order_diagram--bounding_box"></line><path id="pathSk2v596cn1i5r" kvg:type="㇒" d="M32.33,12.25c0.1,0.93-0.16,1.73-0.65,2.5c-2.97,4.64-10.56,13-18.56,18" transform="matrix(1,0,0,1,296,-4)" class="stroke_order_diagram--existing_path"></path><path id="pathSk2v596cn1i5s" kvg:type="㇒" d="M32.87,33.5c0.05,0.69-0.22,1.93-0.61,2.77c-3.14,6.86-9.64,16.48-19.02,26.23" transform="matrix(1,0,0,1,296,-4)" class="stroke_order_diagram--existing_path"></path><path id="pathSk2v596cn1i5t" kvg:type="㇑" d="M26.47,50.25c0.89,0.89,1.15,2.25,1.15,3.66c0,0.39,0.03,23-0.02,35.1c-0.02,3.75-0.03,6.49-0.05,7.25" transform="matrix(1,0,0,1,296,-4)" class="stroke_order_diagram--existing_path"></path><path id="kvg:05f8b-s4" kvg:type="㇕c" d="M47.13,24.75c2.08,0.35,3.58,0.48,5.49,0.25c8.73-1.05,18.89-2.75,28.49-3.72c2.69-0.27,4.05,1.45,3.65,3.93c-0.62,3.92-2.25,12.04-3.82,21.09" transform="matrix(1,0,0,1,296,-4)" class="stroke_order_diagram--current_path"></path><path id="pathSk2v596cn1i5v" kvg:type="㇕c" d="M47.13,24.75c2.08,0.35,3.58,0.48,5.49,0.25c8.73-1.05,18.89-2.75,28.49-3.72c2.69-0.27,4.05,1.45,3.65,3.93c-0.62,3.92-2.25,12.04-3.82,21.09" transform="matrix(1,0,0,1,296,-4)" class="stroke_order_diagram--current_path"></path><circle cx="47.13" cy="24.75" r="8" class="stroke_order_diagram--path_start" transform="matrix(1,0,0,1,296,-4)"></circle><line x1="450" x2="450" y1="1" y2="99" class="stroke_order_diagram--guide_line"></line><line x1="499" x2="499" y1="1" y2="99" class="stroke_order_diagram--bounding_box"></line><path id="pathSk2v596cn1i5y" kvg:type="㇒" d="M32.33,12.25c0.1,0.93-0.16,1.73-0.65,2.5c-2.97,4.64-10.56,13-18.56,18" transform="matrix(1,0,0,1,396,-4)" class="stroke_order_diagram--existing_path"></path><path id="pathSk2v596cn1i5z" kvg:type="㇒" d="M32.87,33.5c0.05,0.69-0.22,1.93-0.61,2.77c-3.14,6.86-9.64,16.48-19.02,26.23" transform="matrix(1,0,0,1,396,-4)" class="stroke_order_diagram--existing_path"></path><path id="pathSk2v596cn1i60" kvg:type="㇑" d="M26.47,50.25c0.89,0.89,1.15,2.25,1.15,3.66c0,0.39,0.03,23-0.02,35.1c-0.02,3.75-0.03,6.49-0.05,7.25" transform="matrix(1,0,0,1,396,-4)" class="stroke_order_diagram--existing_path"></path><path id="pathSk2v596cn1i61" kvg:type="㇕c" d="M47.13,24.75c2.08,0.35,3.58,0.48,5.49,0.25c8.73-1.05,18.89-2.75,28.49-3.72c2.69-0.27,4.05,1.45,3.65,3.93c-0.62,3.92-2.25,12.04-3.82,21.09" transform="matrix(1,0,0,1,396,-4)" class="stroke_order_diagram--existing_path"></path><path id="kvg:05f8b-s5" kvg:type="㇐" d="M41.03,38.44c3.3,0.43,6.33,0.15,9.62-0.21c14.97-1.67,27.55-3.21,39.85-4c2.59-0.17,5.41-0.53,7.97,0.07" transform="matrix(1,0,0,1,396,-4)" class="stroke_order_diagram--current_path"></path><path id="pathSk2v596cn1i63" kvg:type="㇐" d="M41.03,38.44c3.3,0.43,6.33,0.15,9.62-0.21c14.97-1.67,27.55-3.21,39.85-4c2.59-0.17,5.41-0.53,7.97,0.07" transform="matrix(1,0,0,1,396,-4)" class="stroke_order_diagram--current_path"></path><circle cx="41.03" cy="38.44" r="8" class="stroke_order_diagram--path_start" transform="matrix(1,0,0,1,396,-4)"></circle><line x1="550" x2="550" y1="1" y2="99" class="stroke_order_diagram--guide_line"></line><line x1="599" x2="599" y1="1" y2="99" class="stroke_order_diagram--bounding_box"></line><path id="pathSk2v596cn1i66" kvg:type="㇒" d="M32.33,12.25c0.1,0.93-0.16,1.73-0.65,2.5c-2.97,4.64-10.56,13-18.56,18" transform="matrix(1,0,0,1,496,-4)" class="stroke_order_diagram--existing_path"></path><path id="pathSk2v596cn1i67" kvg:type="㇒" d="M32.87,33.5c0.05,0.69-0.22,1.93-0.61,2.77c-3.14,6.86-9.64,16.48-19.02,26.23" transform="matrix(1,0,0,1,496,-4)" class="stroke_order_diagram--existing_path"></path><path id="pathSk2v596cn1i68" kvg:type="㇑" d="M26.47,50.25c0.89,0.89,1.15,2.25,1.15,3.66c0,0.39,0.03,23-0.02,35.1c-0.02,3.75-0.03,6.49-0.05,7.25" transform="matrix(1,0,0,1,496,-4)" class="stroke_order_diagram--existing_path"></path><path id="pathSk2v596cn1i69" kvg:type="㇕c" d="M47.13,24.75c2.08,0.35,3.58,0.48,5.49,0.25c8.73-1.05,18.89-2.75,28.49-3.72c2.69-0.27,4.05,1.45,3.65,3.93c-0.62,3.92-2.25,12.04-3.82,21.09" transform="matrix(1,0,0,1,496,-4)" class="stroke_order_diagram--existing_path"></path><path id="pathSk2v596cn1i6a" kvg:type="㇐" d="M41.03,38.44c3.3,0.43,6.33,0.15,9.62-0.21c14.97-1.67,27.55-3.21,39.85-4c2.59-0.17,5.41-0.53,7.97,0.07" transform="matrix(1,0,0,1,496,-4)" class="stroke_order_diagram--existing_path"></path><path id="kvg:05f8b-s6" kvg:type="㇐" d="M46.96,50.44c1.86,0.44,3.65,0.32,5.52,0.03c9.68-1.54,15.84-1.95,24.8-3c2-0.23,4.23-0.47,5.74-0.21" transform="matrix(1,0,0,1,496,-4)" class="stroke_order_diagram--current_path"></path><path id="pathSk2v596cn1i6c" kvg:type="㇐" d="M46.96,50.44c1.86,0.44,3.65,0.32,5.52,0.03c9.68-1.54,15.84-1.95,24.8-3c2-0.23,4.23-0.47,5.74-0.21" transform="matrix(1,0,0,1,496,-4)" class="stroke_order_diagram--current_path"></path><circle cx="46.96" cy="50.44" r="8" class="stroke_order_diagram--path_start" transform="matrix(1,0,0,1,496,-4)"></circle><line x1="650" x2="650" y1="1" y2="99" class="stroke_order_diagram--guide_line"></line><line x1="699" x2="699" y1="1" y2="99" class="stroke_order_diagram--bounding_box"></line><path id="pathSk2v596cn1i6f" kvg:type="㇒" d="M32.33,12.25c0.1,0.93-0.16,1.73-0.65,2.5c-2.97,4.64-10.56,13-18.56,18" transform="matrix(1,0,0,1,596,-4)" class="stroke_order_diagram--existing_path"></path><path id="pathSk2v596cn1i6g" kvg:type="㇒" d="M32.87,33.5c0.05,0.69-0.22,1.93-0.61,2.77c-3.14,6.86-9.64,16.48-19.02,26.23" transform="matrix(1,0,0,1,596,-4)" class="stroke_order_diagram--existing_path"></path><path id="pathSk2v596cn1i6h" kvg:type="㇑" d="M26.47,50.25c0.89,0.89,1.15,2.25,1.15,3.66c0,0.39,0.03,23-0.02,35.1c-0.02,3.75-0.03,6.49-0.05,7.25" transform="matrix(1,0,0,1,596,-4)" class="stroke_order_diagram--existing_path"></path><path id="pathSk2v596cn1i6i" kvg:type="㇕c" d="M47.13,24.75c2.08,0.35,3.58,0.48,5.49,0.25c8.73-1.05,18.89-2.75,28.49-3.72c2.69-0.27,4.05,1.45,3.65,3.93c-0.62,3.92-2.25,12.04-3.82,21.09" transform="matrix(1,0,0,1,596,-4)" class="stroke_order_diagram--existing_path"></path><path id="pathSk2v596cn1i6j" kvg:type="㇐" d="M41.03,38.44c3.3,0.43,6.33,0.15,9.62-0.21c14.97-1.67,27.55-3.21,39.85-4c2.59-0.17,5.41-0.53,7.97,0.07" transform="matrix(1,0,0,1,596,-4)" class="stroke_order_diagram--existing_path"></path><path id="pathSk2v596cn1i6k" kvg:type="㇐" d="M46.96,50.44c1.86,0.44,3.65,0.32,5.52,0.03c9.68-1.54,15.84-1.95,24.8-3c2-0.23,4.23-0.47,5.74-0.21" transform="matrix(1,0,0,1,596,-4)" class="stroke_order_diagram--existing_path"></path><path id="kvg:05f8b-s7" kvg:type="㇐" d="M45.19,64.34c1.98,0.78,4.9,0.47,6.93,0.16c10.02-1.54,19.28-2.71,27.37-3.53c2.25-0.23,4.31-0.46,6.52,0.07" transform="matrix(1,0,0,1,596,-4)" class="stroke_order_diagram--current_path"></path><path id="pathSk2v596cn1i6m" kvg:type="㇐" d="M45.19,64.34c1.98,0.78,4.9,0.47,6.93,0.16c10.02-1.54,19.28-2.71,27.37-3.53c2.25-0.23,4.31-0.46,6.52,0.07" transform="matrix(1,0,0,1,596,-4)" class="stroke_order_diagram--current_path"></path><circle cx="45.19" cy="64.34" r="8" class="stroke_order_diagram--path_start" transform="matrix(1,0,0,1,596,-4)"></circle><line x1="750" x2="750" y1="1" y2="99" class="stroke_order_diagram--guide_line"></line><line x1="799" x2="799" y1="1" y2="99" class="stroke_order_diagram--bounding_box"></line><path id="pathSk2v596cn1i6p" kvg:type="㇒" d="M32.33,12.25c0.1,0.93-0.16,1.73-0.65,2.5c-2.97,4.64-10.56,13-18.56,18" transform="matrix(1,0,0,1,696,-4)" class="stroke_order_diagram--existing_path"></path><path id="pathSk2v596cn1i6q" kvg:type="㇒" d="M32.87,33.5c0.05,0.69-0.22,1.93-0.61,2.77c-3.14,6.86-9.64,16.48-19.02,26.23" transform="matrix(1,0,0,1,696,-4)" class="stroke_order_diagram--existing_path"></path><path id="pathSk2v596cn1i6r" kvg:type="㇑" d="M26.47,50.25c0.89,0.89,1.15,2.25,1.15,3.66c0,0.39,0.03,23-0.02,35.1c-0.02,3.75-0.03,6.49-0.05,7.25" transform="matrix(1,0,0,1,696,-4)" class="stroke_order_diagram--existing_path"></path><path id="pathSk2v596cn1i6s" kvg:type="㇕c" d="M47.13,24.75c2.08,0.35,3.58,0.48,5.49,0.25c8.73-1.05,18.89-2.75,28.49-3.72c2.69-0.27,4.05,1.45,3.65,3.93c-0.62,3.92-2.25,12.04-3.82,21.09" transform="matrix(1,0,0,1,696,-4)" class="stroke_order_diagram--existing_path"></path><path id="pathSk2v596cn1i6t" kvg:type="㇐" d="M41.03,38.44c3.3,0.43,6.33,0.15,9.62-0.21c14.97-1.67,27.55-3.21,39.85-4c2.59-0.17,5.41-0.53,7.97,0.07" transform="matrix(1,0,0,1,696,-4)" class="stroke_order_diagram--existing_path"></path><path id="pathSk2v596cn1i6u" kvg:type="㇐" d="M46.96,50.44c1.86,0.44,3.65,0.32,5.52,0.03c9.68-1.54,15.84-1.95,24.8-3c2-0.23,4.23-0.47,5.74-0.21" transform="matrix(1,0,0,1,696,-4)" class="stroke_order_diagram--existing_path"></path><path id="pathSk2v596cn1i6v" kvg:type="㇐" d="M45.19,64.34c1.98,0.78,4.9,0.47,6.93,0.16c10.02-1.54,19.28-2.71,27.37-3.53c2.25-0.23,4.31-0.46,6.52,0.07" transform="matrix(1,0,0,1,696,-4)" class="stroke_order_diagram--existing_path"></path><path id="kvg:05f8b-s8" kvg:type="㇐" d="M37.22,78.12c2.53,0.63,5.5,0.44,7.91,0.13c13.39-1.71,31.22-3.68,42.36-4.33c2.5-0.15,4.89-0.25,7.34,0.37" transform="matrix(1,0,0,1,696,-4)" class="stroke_order_diagram--current_path"></path><path id="pathSk2v596cn1i6x" kvg:type="㇐" d="M37.22,78.12c2.53,0.63,5.5,0.44,7.91,0.13c13.39-1.71,31.22-3.68,42.36-4.33c2.5-0.15,4.89-0.25,7.34,0.37" transform="matrix(1,0,0,1,696,-4)" class="stroke_order_diagram--current_path"></path><circle cx="37.22" cy="78.12" r="8" class="stroke_order_diagram--path_start" transform="matrix(1,0,0,1,696,-4)"></circle><line x1="850" x2="850" y1="1" y2="99" class="stroke_order_diagram--guide_line"></line><line x1="899" x2="899" y1="1" y2="99" class="stroke_order_diagram--bounding_box"></line><path id="pathSk2v596cn1i70" kvg:type="㇒" d="M32.33,12.25c0.1,0.93-0.16,1.73-0.65,2.5c-2.97,4.64-10.56,13-18.56,18" transform="matrix(1,0,0,1,796,-4)" class="stroke_order_diagram--existing_path"></path><path id="pathSk2v596cn1i71" kvg:type="㇒" d="M32.87,33.5c0.05,0.69-0.22,1.93-0.61,2.77c-3.14,6.86-9.64,16.48-19.02,26.23" transform="matrix(1,0,0,1,796,-4)" class="stroke_order_diagram--existing_path"></path><path id="pathSk2v596cn1i72" kvg:type="㇑" d="M26.47,50.25c0.89,0.89,1.15,2.25,1.15,3.66c0,0.39,0.03,23-0.02,35.1c-0.02,3.75-0.03,6.49-0.05,7.25" transform="matrix(1,0,0,1,796,-4)" class="stroke_order_diagram--existing_path"></path><path id="pathSk2v596cn1i73" kvg:type="㇕c" d="M47.13,24.75c2.08,0.35,3.58,0.48,5.49,0.25c8.73-1.05,18.89-2.75,28.49-3.72c2.69-0.27,4.05,1.45,3.65,3.93c-0.62,3.92-2.25,12.04-3.82,21.09" transform="matrix(1,0,0,1,796,-4)" class="stroke_order_diagram--existing_path"></path><path id="pathSk2v596cn1i74" kvg:type="㇐" d="M41.03,38.44c3.3,0.43,6.33,0.15,9.62-0.21c14.97-1.67,27.55-3.21,39.85-4c2.59-0.17,5.41-0.53,7.97,0.07" transform="matrix(1,0,0,1,796,-4)" class="stroke_order_diagram--existing_path"></path><path id="pathSk2v596cn1i75" kvg:type="㇐" d="M46.96,50.44c1.86,0.44,3.65,0.32,5.52,0.03c9.68-1.54,15.84-1.95,24.8-3c2-0.23,4.23-0.47,5.74-0.21" transform="matrix(1,0,0,1,796,-4)" class="stroke_order_diagram--existing_path"></path><path id="pathSk2v596cn1i76" kvg:type="㇐" d="M45.19,64.34c1.98,0.78,4.9,0.47,6.93,0.16c10.02-1.54,19.28-2.71,27.37-3.53c2.25-0.23,4.31-0.46,6.52,0.07" transform="matrix(1,0,0,1,796,-4)" class="stroke_order_diagram--existing_path"></path><path id="pathSk2v596cn1i77" kvg:type="㇐" d="M37.22,78.12c2.53,0.63,5.5,0.44,7.91,0.13c13.39-1.71,31.22-3.68,42.36-4.33c2.5-0.15,4.89-0.25,7.34,0.37" transform="matrix(1,0,0,1,796,-4)" class="stroke_order_diagram--existing_path"></path><path id="kvg:05f8b-s9" kvg:type="㇑" d="M63.3,10.75c1.16,1.16,1.57,2.5,1.57,3.94c0,0.73-0.09,54.41-0.11,75.81c0,3.47-0.01,6.09-0.01,7.5" transform="matrix(1,0,0,1,796,-4)" class="stroke_order_diagram--current_path"></path><path id="pathSk2v596cn1i79" kvg:type="㇑" d="M63.3,10.75c1.16,1.16,1.57,2.5,1.57,3.94c0,0.73-0.09,54.41-0.11,75.81c0,3.47-0.01,6.09-0.01,7.5" transform="matrix(1,0,0,1,796,-4)" class="stroke_order_diagram--current_path"></path><circle cx="63.3" cy="10.75" r="8" class="stroke_order_diagram--path_start" transform="matrix(1,0,0,1,796,-4)"></circle></svg>