<svg style="width: 1300px; height: 100px;" viewbox="0 0 1300 100"><style>
.stroke_order_diagram--outer_container {
  width: 100%;
  overflow-x: auto;
  overflow-y: hidden;
}

.stroke_order_diagram--guide_line {
  fill: none;
  stroke: #ddd;
  stroke-width: 3;
  stroke-linecap: square;
  stroke-linejoin: square;
  stroke-dasharray:8, 8;
}

.stroke_order_diagram--bounding_box {
  fill: none;
  stroke: #ddd;
  stroke-width: 4;
  stroke-linecap: square;
  stroke-linejoin: square;
}

.stroke_order_diagram--current_path {
  fill: none;
  stroke: #000;
  stroke-width: 6;
  stroke-linecap: round;
  stroke-linejoin: round;
}

.stroke_order_diagram--existing_path {
  fill: none;
  stroke: #aaa;
  stroke-width: 6;
  stroke-linecap: round;
  stroke-linejoin:round;
}

.stroke_order_diagram--path_start {
  fill: rgba(255, 0, 0, 0.7);
  stroke:none
}</style><desc>Created with Snap</desc><defs></defs><line x1="1" x2="1299" y1="1" y2="1" class="stroke_order_diagram--bounding_box"></line><line x1="1" x2="1" y1="1" y2="99" class="stroke_order_diagram--bounding_box"></line><line x1="1" x2="1299" y1="99" y2="99" class="stroke_order_diagram--bounding_box"></line><line x1="0" x2="1300" y1="50" y2="50" class="stroke_order_diagram--guide_line"></line><line x1="50" x2="50" y1="1" y2="99" class="stroke_order_diagram--guide_line"></line><line x1="99" x2="99" y1="1" y2="99" class="stroke_order_diagram--bounding_box"></line><path id="kvg:05fae-s1" kvg:type="㇒" d="M29.34,17c0.13,1.02-0.23,1.75-0.85,2.59c-2.91,3.92-9.62,11.73-16.62,15.16" transform="matrix(1,0,0,1,-4,-4)" class="stroke_order_diagram--current_path"></path><path id="pathSk2v596cn1wpy" kvg:type="㇒" d="M29.34,17c0.13,1.02-0.23,1.75-0.85,2.59c-2.91,3.92-9.62,11.73-16.62,15.16" transform="matrix(1,0,0,1,-4,-4)" class="stroke_order_diagram--current_path"></path><circle cx="29.34" cy="17" r="8" class="stroke_order_diagram--path_start" transform="matrix(1,0,0,1,-4,-4)"></circle><line x1="150" x2="150" y1="1" y2="99" class="stroke_order_diagram--guide_line"></line><line x1="199" x2="199" y1="1" y2="99" class="stroke_order_diagram--bounding_box"></line><path id="pathSk2v596cn1wq1" kvg:type="㇒" d="M29.34,17c0.13,1.02-0.23,1.75-0.85,2.59c-2.91,3.92-9.62,11.73-16.62,15.16" transform="matrix(1,0,0,1,96,-4)" class="stroke_order_diagram--existing_path"></path><path id="kvg:05fae-s2" kvg:type="㇒" d="M28.13,38c0.08,0.93-0.26,1.88-0.66,2.67C24.86,45.8,18.4,55.21,10.25,62" transform="matrix(1,0,0,1,96,-4)" class="stroke_order_diagram--current_path"></path><path id="pathSk2v596cn1wq3" kvg:type="㇒" d="M28.13,38c0.08,0.93-0.26,1.88-0.66,2.67C24.86,45.8,18.4,55.21,10.25,62" transform="matrix(1,0,0,1,96,-4)" class="stroke_order_diagram--current_path"></path><circle cx="28.13" cy="38" r="8" class="stroke_order_diagram--path_start" transform="matrix(1,0,0,1,96,-4)"></circle><line x1="250" x2="250" y1="1" y2="99" class="stroke_order_diagram--guide_line"></line><line x1="299" x2="299" y1="1" y2="99" class="stroke_order_diagram--bounding_box"></line><path id="pathSk2v596cn1wq6" kvg:type="㇒" d="M29.34,17c0.13,1.02-0.23,1.75-0.85,2.59c-2.91,3.92-9.62,11.73-16.62,15.16" transform="matrix(1,0,0,1,196,-4)" class="stroke_order_diagram--existing_path"></path><path id="pathSk2v596cn1wq7" kvg:type="㇒" d="M28.13,38c0.08,0.93-0.26,1.88-0.66,2.67C24.86,45.8,18.4,55.21,10.25,62" transform="matrix(1,0,0,1,196,-4)" class="stroke_order_diagram--existing_path"></path><path id="kvg:05fae-s3" kvg:type="㇑" d="M21.47,54.25c0.89,0.89,1.15,2,1.15,3.16c0,0.4,0.03,16.9-0.02,26.34c-0.01,2.86-0.03,5.01-0.05,5.75" transform="matrix(1,0,0,1,196,-4)" class="stroke_order_diagram--current_path"></path><path id="pathSk2v596cn1wq9" kvg:type="㇑" d="M21.47,54.25c0.89,0.89,1.15,2,1.15,3.16c0,0.4,0.03,16.9-0.02,26.34c-0.01,2.86-0.03,5.01-0.05,5.75" transform="matrix(1,0,0,1,196,-4)" class="stroke_order_diagram--current_path"></path><circle cx="21.47" cy="54.25" r="8" class="stroke_order_diagram--path_start" transform="matrix(1,0,0,1,196,-4)"></circle><line x1="350" x2="350" y1="1" y2="99" class="stroke_order_diagram--guide_line"></line><line x1="399" x2="399" y1="1" y2="99" class="stroke_order_diagram--bounding_box"></line><path id="pathSk2v596cn1wqc" kvg:type="㇒" d="M29.34,17c0.13,1.02-0.23,1.75-0.85,2.59c-2.91,3.92-9.62,11.73-16.62,15.16" transform="matrix(1,0,0,1,296,-4)" class="stroke_order_diagram--existing_path"></path><path id="pathSk2v596cn1wqd" kvg:type="㇒" d="M28.13,38c0.08,0.93-0.26,1.88-0.66,2.67C24.86,45.8,18.4,55.21,10.25,62" transform="matrix(1,0,0,1,296,-4)" class="stroke_order_diagram--existing_path"></path><path id="pathSk2v596cn1wqe" kvg:type="㇑" d="M21.47,54.25c0.89,0.89,1.15,2,1.15,3.16c0,0.4,0.03,16.9-0.02,26.34c-0.01,2.86-0.03,5.01-0.05,5.75" transform="matrix(1,0,0,1,296,-4)" class="stroke_order_diagram--existing_path"></path><path id="kvg:05fae-s4" kvg:type="㇑a" d="M46.71,16.5c0.89,0.89,1.17,2,1.17,3.07c0,0.6,0.08,15.43,0.08,20.12" transform="matrix(1,0,0,1,296,-4)" class="stroke_order_diagram--current_path"></path><path id="pathSk2v596cn1wqg" kvg:type="㇑a" d="M46.71,16.5c0.89,0.89,1.17,2,1.17,3.07c0,0.6,0.08,15.43,0.08,20.12" transform="matrix(1,0,0,1,296,-4)" class="stroke_order_diagram--current_path"></path><circle cx="46.71" cy="16.5" r="8" class="stroke_order_diagram--path_start" transform="matrix(1,0,0,1,296,-4)"></circle><line x1="450" x2="450" y1="1" y2="99" class="stroke_order_diagram--guide_line"></line><line x1="499" x2="499" y1="1" y2="99" class="stroke_order_diagram--bounding_box"></line><path id="pathSk2v596cn1wqj" kvg:type="㇒" d="M29.34,17c0.13,1.02-0.23,1.75-0.85,2.59c-2.91,3.92-9.62,11.73-16.62,15.16" transform="matrix(1,0,0,1,396,-4)" class="stroke_order_diagram--existing_path"></path><path id="pathSk2v596cn1wqk" kvg:type="㇒" d="M28.13,38c0.08,0.93-0.26,1.88-0.66,2.67C24.86,45.8,18.4,55.21,10.25,62" transform="matrix(1,0,0,1,396,-4)" class="stroke_order_diagram--existing_path"></path><path id="pathSk2v596cn1wql" kvg:type="㇑" d="M21.47,54.25c0.89,0.89,1.15,2,1.15,3.16c0,0.4,0.03,16.9-0.02,26.34c-0.01,2.86-0.03,5.01-0.05,5.75" transform="matrix(1,0,0,1,396,-4)" class="stroke_order_diagram--existing_path"></path><path id="pathSk2v596cn1wqm" kvg:type="㇑a" d="M46.71,16.5c0.89,0.89,1.17,2,1.17,3.07c0,0.6,0.08,15.43,0.08,20.12" transform="matrix(1,0,0,1,396,-4)" class="stroke_order_diagram--existing_path"></path><path id="kvg:05fae-s5" kvg:type="㇄a" d="M36.16,31.53c0.47,0.97,0.59,1.47,0.5,2.65c-0.2,2.66-0.29,5.32-0.66,7.25c-0.26,1.34,0.53,2.32,1.74,1.99c7.5-2.04,12.63-3.54,21.18-5.23" transform="matrix(1,0,0,1,396,-4)" class="stroke_order_diagram--current_path"></path><path id="pathSk2v596cn1wqo" kvg:type="㇄a" d="M36.16,31.53c0.47,0.97,0.59,1.47,0.5,2.65c-0.2,2.66-0.29,5.32-0.66,7.25c-0.26,1.34,0.53,2.32,1.74,1.99c7.5-2.04,12.63-3.54,21.18-5.23" transform="matrix(1,0,0,1,396,-4)" class="stroke_order_diagram--current_path"></path><circle cx="36.16" cy="31.53" r="8" class="stroke_order_diagram--path_start" transform="matrix(1,0,0,1,396,-4)"></circle><line x1="550" x2="550" y1="1" y2="99" class="stroke_order_diagram--guide_line"></line><line x1="599" x2="599" y1="1" y2="99" class="stroke_order_diagram--bounding_box"></line><path id="pathSk2v596cn1wqr" kvg:type="㇒" d="M29.34,17c0.13,1.02-0.23,1.75-0.85,2.59c-2.91,3.92-9.62,11.73-16.62,15.16" transform="matrix(1,0,0,1,496,-4)" class="stroke_order_diagram--existing_path"></path><path id="pathSk2v596cn1wqs" kvg:type="㇒" d="M28.13,38c0.08,0.93-0.26,1.88-0.66,2.67C24.86,45.8,18.4,55.21,10.25,62" transform="matrix(1,0,0,1,496,-4)" class="stroke_order_diagram--existing_path"></path><path id="pathSk2v596cn1wqt" kvg:type="㇑" d="M21.47,54.25c0.89,0.89,1.15,2,1.15,3.16c0,0.4,0.03,16.9-0.02,26.34c-0.01,2.86-0.03,5.01-0.05,5.75" transform="matrix(1,0,0,1,496,-4)" class="stroke_order_diagram--existing_path"></path><path id="pathSk2v596cn1wqu" kvg:type="㇑a" d="M46.71,16.5c0.89,0.89,1.17,2,1.17,3.07c0,0.6,0.08,15.43,0.08,20.12" transform="matrix(1,0,0,1,496,-4)" class="stroke_order_diagram--existing_path"></path><path id="pathSk2v596cn1wqv" kvg:type="㇄a" d="M36.16,31.53c0.47,0.97,0.59,1.47,0.5,2.65c-0.2,2.66-0.29,5.32-0.66,7.25c-0.26,1.34,0.53,2.32,1.74,1.99c7.5-2.04,12.63-3.54,21.18-5.23" transform="matrix(1,0,0,1,496,-4)" class="stroke_order_diagram--existing_path"></path><path id="kvg:05fae-s6" kvg:type="㇑" d="M60.66,24.46c0.87,0.87,0.84,1.91,0.75,3.07c-0.18,2.46-0.67,4.72-1.1,8.01c-0.21,1.61-0.45,3.47-0.72,5.71" transform="matrix(1,0,0,1,496,-4)" class="stroke_order_diagram--current_path"></path><path id="pathSk2v596cn1wqx" kvg:type="㇑" d="M60.66,24.46c0.87,0.87,0.84,1.91,0.75,3.07c-0.18,2.46-0.67,4.72-1.1,8.01c-0.21,1.61-0.45,3.47-0.72,5.71" transform="matrix(1,0,0,1,496,-4)" class="stroke_order_diagram--current_path"></path><circle cx="60.66" cy="24.46" r="8" class="stroke_order_diagram--path_start" transform="matrix(1,0,0,1,496,-4)"></circle><line x1="650" x2="650" y1="1" y2="99" class="stroke_order_diagram--guide_line"></line><line x1="699" x2="699" y1="1" y2="99" class="stroke_order_diagram--bounding_box"></line><path id="pathSk2v596cn1wr0" kvg:type="㇒" d="M29.34,17c0.13,1.02-0.23,1.75-0.85,2.59c-2.91,3.92-9.62,11.73-16.62,15.16" transform="matrix(1,0,0,1,596,-4)" class="stroke_order_diagram--existing_path"></path><path id="pathSk2v596cn1wr1" kvg:type="㇒" d="M28.13,38c0.08,0.93-0.26,1.88-0.66,2.67C24.86,45.8,18.4,55.21,10.25,62" transform="matrix(1,0,0,1,596,-4)" class="stroke_order_diagram--existing_path"></path><path id="pathSk2v596cn1wr2" kvg:type="㇑" d="M21.47,54.25c0.89,0.89,1.15,2,1.15,3.16c0,0.4,0.03,16.9-0.02,26.34c-0.01,2.86-0.03,5.01-0.05,5.75" transform="matrix(1,0,0,1,596,-4)" class="stroke_order_diagram--existing_path"></path><path id="pathSk2v596cn1wr3" kvg:type="㇑a" d="M46.71,16.5c0.89,0.89,1.17,2,1.17,3.07c0,0.6,0.08,15.43,0.08,20.12" transform="matrix(1,0,0,1,596,-4)" class="stroke_order_diagram--existing_path"></path><path id="pathSk2v596cn1wr4" kvg:type="㇄a" d="M36.16,31.53c0.47,0.97,0.59,1.47,0.5,2.65c-0.2,2.66-0.29,5.32-0.66,7.25c-0.26,1.34,0.53,2.32,1.74,1.99c7.5-2.04,12.63-3.54,21.18-5.23" transform="matrix(1,0,0,1,596,-4)" class="stroke_order_diagram--existing_path"></path><path id="pathSk2v596cn1wr5" kvg:type="㇑" d="M60.66,24.46c0.87,0.87,0.84,1.91,0.75,3.07c-0.18,2.46-0.67,4.72-1.1,8.01c-0.21,1.61-0.45,3.47-0.72,5.71" transform="matrix(1,0,0,1,596,-4)" class="stroke_order_diagram--existing_path"></path><path id="kvg:05fae-s7" kvg:type="㇐" d="M30.84,57.58c1.9,0.2,3.45,0.14,5.32-0.26c5.18-1.08,12.6-3.69,17.58-4.83c1.67-0.38,3.32-0.44,5.03-0.01" transform="matrix(1,0,0,1,596,-4)" class="stroke_order_diagram--current_path"></path><path id="pathSk2v596cn1wr7" kvg:type="㇐" d="M30.84,57.58c1.9,0.2,3.45,0.14,5.32-0.26c5.18-1.08,12.6-3.69,17.58-4.83c1.67-0.38,3.32-0.44,5.03-0.01" transform="matrix(1,0,0,1,596,-4)" class="stroke_order_diagram--current_path"></path><circle cx="30.84" cy="57.58" r="8" class="stroke_order_diagram--path_start" transform="matrix(1,0,0,1,596,-4)"></circle><line x1="750" x2="750" y1="1" y2="99" class="stroke_order_diagram--guide_line"></line><line x1="799" x2="799" y1="1" y2="99" class="stroke_order_diagram--bounding_box"></line><path id="pathSk2v596cn1wra" kvg:type="㇒" d="M29.34,17c0.13,1.02-0.23,1.75-0.85,2.59c-2.91,3.92-9.62,11.73-16.62,15.16" transform="matrix(1,0,0,1,696,-4)" class="stroke_order_diagram--existing_path"></path><path id="pathSk2v596cn1wrb" kvg:type="㇒" d="M28.13,38c0.08,0.93-0.26,1.88-0.66,2.67C24.86,45.8,18.4,55.21,10.25,62" transform="matrix(1,0,0,1,696,-4)" class="stroke_order_diagram--existing_path"></path><path id="pathSk2v596cn1wrc" kvg:type="㇑" d="M21.47,54.25c0.89,0.89,1.15,2,1.15,3.16c0,0.4,0.03,16.9-0.02,26.34c-0.01,2.86-0.03,5.01-0.05,5.75" transform="matrix(1,0,0,1,696,-4)" class="stroke_order_diagram--existing_path"></path><path id="pathSk2v596cn1wrd" kvg:type="㇑a" d="M46.71,16.5c0.89,0.89,1.17,2,1.17,3.07c0,0.6,0.08,15.43,0.08,20.12" transform="matrix(1,0,0,1,696,-4)" class="stroke_order_diagram--existing_path"></path><path id="pathSk2v596cn1wre" kvg:type="㇄a" d="M36.16,31.53c0.47,0.97,0.59,1.47,0.5,2.65c-0.2,2.66-0.29,5.32-0.66,7.25c-0.26,1.34,0.53,2.32,1.74,1.99c7.5-2.04,12.63-3.54,21.18-5.23" transform="matrix(1,0,0,1,696,-4)" class="stroke_order_diagram--existing_path"></path><path id="pathSk2v596cn1wrf" kvg:type="㇑" d="M60.66,24.46c0.87,0.87,0.84,1.91,0.75,3.07c-0.18,2.46-0.67,4.72-1.1,8.01c-0.21,1.61-0.45,3.47-0.72,5.71" transform="matrix(1,0,0,1,696,-4)" class="stroke_order_diagram--existing_path"></path><path id="pathSk2v596cn1wrg" kvg:type="㇐" d="M30.84,57.58c1.9,0.2,3.45,0.14,5.32-0.26c5.18-1.08,12.6-3.69,17.58-4.83c1.67-0.38,3.32-0.44,5.03-0.01" transform="matrix(1,0,0,1,696,-4)" class="stroke_order_diagram--existing_path"></path><path id="kvg:05fae-s8" kvg:type="㇒" d="M39.28,60.14c0.35,0.73,0.47,1.58,0.44,2.47c-0.22,6.64-2.97,17.64-9.91,23.36" transform="matrix(1,0,0,1,696,-4)" class="stroke_order_diagram--current_path"></path><path id="pathSk2v596cn1wri" kvg:type="㇒" d="M39.28,60.14c0.35,0.73,0.47,1.58,0.44,2.47c-0.22,6.64-2.97,17.64-9.91,23.36" transform="matrix(1,0,0,1,696,-4)" class="stroke_order_diagram--current_path"></path><circle cx="39.28" cy="60.14" r="8" class="stroke_order_diagram--path_start" transform="matrix(1,0,0,1,696,-4)"></circle><line x1="850" x2="850" y1="1" y2="99" class="stroke_order_diagram--guide_line"></line><line x1="899" x2="899" y1="1" y2="99" class="stroke_order_diagram--bounding_box"></line><path id="pathSk2v596cn1wrl" kvg:type="㇒" d="M29.34,17c0.13,1.02-0.23,1.75-0.85,2.59c-2.91,3.92-9.62,11.73-16.62,15.16" transform="matrix(1,0,0,1,796,-4)" class="stroke_order_diagram--existing_path"></path><path id="pathSk2v596cn1wrm" kvg:type="㇒" d="M28.13,38c0.08,0.93-0.26,1.88-0.66,2.67C24.86,45.8,18.4,55.21,10.25,62" transform="matrix(1,0,0,1,796,-4)" class="stroke_order_diagram--existing_path"></path><path id="pathSk2v596cn1wrn" kvg:type="㇑" d="M21.47,54.25c0.89,0.89,1.15,2,1.15,3.16c0,0.4,0.03,16.9-0.02,26.34c-0.01,2.86-0.03,5.01-0.05,5.75" transform="matrix(1,0,0,1,796,-4)" class="stroke_order_diagram--existing_path"></path><path id="pathSk2v596cn1wro" kvg:type="㇑a" d="M46.71,16.5c0.89,0.89,1.17,2,1.17,3.07c0,0.6,0.08,15.43,0.08,20.12" transform="matrix(1,0,0,1,796,-4)" class="stroke_order_diagram--existing_path"></path><path id="pathSk2v596cn1wrp" kvg:type="㇄a" d="M36.16,31.53c0.47,0.97,0.59,1.47,0.5,2.65c-0.2,2.66-0.29,5.32-0.66,7.25c-0.26,1.34,0.53,2.32,1.74,1.99c7.5-2.04,12.63-3.54,21.18-5.23" transform="matrix(1,0,0,1,796,-4)" class="stroke_order_diagram--existing_path"></path><path id="pathSk2v596cn1wrq" kvg:type="㇑" d="M60.66,24.46c0.87,0.87,0.84,1.91,0.75,3.07c-0.18,2.46-0.67,4.72-1.1,8.01c-0.21,1.61-0.45,3.47-0.72,5.71" transform="matrix(1,0,0,1,796,-4)" class="stroke_order_diagram--existing_path"></path><path id="pathSk2v596cn1wrr" kvg:type="㇐" d="M30.84,57.58c1.9,0.2,3.45,0.14,5.32-0.26c5.18-1.08,12.6-3.69,17.58-4.83c1.67-0.38,3.32-0.44,5.03-0.01" transform="matrix(1,0,0,1,796,-4)" class="stroke_order_diagram--existing_path"></path><path id="pathSk2v596cn1wrs" kvg:type="㇒" d="M39.28,60.14c0.35,0.73,0.47,1.58,0.44,2.47c-0.22,6.64-2.97,17.64-9.91,23.36" transform="matrix(1,0,0,1,796,-4)" class="stroke_order_diagram--existing_path"></path><path id="kvg:05fae-s9" kvg:type="㇙/㇏" d="M49.71,56.25c0.83,0.83,1.17,1.88,1.17,3.07c0,0.6,0.08,12.9,0.08,16.62c0,2.07,0.91,2.32,2.91,0.32c2.88-2.88,5.75-5.5,9.12-8.75" transform="matrix(1,0,0,1,796,-4)" class="stroke_order_diagram--current_path"></path><path id="pathSk2v596cn1wru" kvg:type="㇙/㇏" d="M49.71,56.25c0.83,0.83,1.17,1.88,1.17,3.07c0,0.6,0.08,12.9,0.08,16.62c0,2.07,0.91,2.32,2.91,0.32c2.88-2.88,5.75-5.5,9.12-8.75" transform="matrix(1,0,0,1,796,-4)" class="stroke_order_diagram--current_path"></path><circle cx="49.71" cy="56.25" r="8" class="stroke_order_diagram--path_start" transform="matrix(1,0,0,1,796,-4)"></circle><line x1="950" x2="950" y1="1" y2="99" class="stroke_order_diagram--guide_line"></line><line x1="999" x2="999" y1="1" y2="99" class="stroke_order_diagram--bounding_box"></line><path id="pathSk2v596cn1wrx" kvg:type="㇒" d="M29.34,17c0.13,1.02-0.23,1.75-0.85,2.59c-2.91,3.92-9.62,11.73-16.62,15.16" transform="matrix(1,0,0,1,896,-4)" class="stroke_order_diagram--existing_path"></path><path id="pathSk2v596cn1wry" kvg:type="㇒" d="M28.13,38c0.08,0.93-0.26,1.88-0.66,2.67C24.86,45.8,18.4,55.21,10.25,62" transform="matrix(1,0,0,1,896,-4)" class="stroke_order_diagram--existing_path"></path><path id="pathSk2v596cn1wrz" kvg:type="㇑" d="M21.47,54.25c0.89,0.89,1.15,2,1.15,3.16c0,0.4,0.03,16.9-0.02,26.34c-0.01,2.86-0.03,5.01-0.05,5.75" transform="matrix(1,0,0,1,896,-4)" class="stroke_order_diagram--existing_path"></path><path id="pathSk2v596cn1ws0" kvg:type="㇑a" d="M46.71,16.5c0.89,0.89,1.17,2,1.17,3.07c0,0.6,0.08,15.43,0.08,20.12" transform="matrix(1,0,0,1,896,-4)" class="stroke_order_diagram--existing_path"></path><path id="pathSk2v596cn1ws1" kvg:type="㇄a" d="M36.16,31.53c0.47,0.97,0.59,1.47,0.5,2.65c-0.2,2.66-0.29,5.32-0.66,7.25c-0.26,1.34,0.53,2.32,1.74,1.99c7.5-2.04,12.63-3.54,21.18-5.23" transform="matrix(1,0,0,1,896,-4)" class="stroke_order_diagram--existing_path"></path><path id="pathSk2v596cn1ws2" kvg:type="㇑" d="M60.66,24.46c0.87,0.87,0.84,1.91,0.75,3.07c-0.18,2.46-0.67,4.72-1.1,8.01c-0.21,1.61-0.45,3.47-0.72,5.71" transform="matrix(1,0,0,1,896,-4)" class="stroke_order_diagram--existing_path"></path><path id="pathSk2v596cn1ws3" kvg:type="㇐" d="M30.84,57.58c1.9,0.2,3.45,0.14,5.32-0.26c5.18-1.08,12.6-3.69,17.58-4.83c1.67-0.38,3.32-0.44,5.03-0.01" transform="matrix(1,0,0,1,896,-4)" class="stroke_order_diagram--existing_path"></path><path id="pathSk2v596cn1ws4" kvg:type="㇒" d="M39.28,60.14c0.35,0.73,0.47,1.58,0.44,2.47c-0.22,6.64-2.97,17.64-9.91,23.36" transform="matrix(1,0,0,1,896,-4)" class="stroke_order_diagram--existing_path"></path><path id="pathSk2v596cn1ws5" kvg:type="㇙/㇏" d="M49.71,56.25c0.83,0.83,1.17,1.88,1.17,3.07c0,0.6,0.08,12.9,0.08,16.62c0,2.07,0.91,2.32,2.91,0.32c2.88-2.88,5.75-5.5,9.12-8.75" transform="matrix(1,0,0,1,896,-4)" class="stroke_order_diagram--existing_path"></path><path id="kvg:05fae-s10" kvg:type="㇒" d="M75.05,20.89c0.33,0.98,0.25,2.13-0.07,3.24c-2.48,8.74-6.6,19.74-12.48,31.61" transform="matrix(1,0,0,1,896,-4)" class="stroke_order_diagram--current_path"></path><path id="pathSk2v596cn1ws7" kvg:type="㇒" d="M75.05,20.89c0.33,0.98,0.25,2.13-0.07,3.24c-2.48,8.74-6.6,19.74-12.48,31.61" transform="matrix(1,0,0,1,896,-4)" class="stroke_order_diagram--current_path"></path><circle cx="75.05" cy="20.89" r="8" class="stroke_order_diagram--path_start" transform="matrix(1,0,0,1,896,-4)"></circle><line x1="1050" x2="1050" y1="1" y2="99" class="stroke_order_diagram--guide_line"></line><line x1="1099" x2="1099" y1="1" y2="99" class="stroke_order_diagram--bounding_box"></line><path id="pathSk2v596cn1wsa" kvg:type="㇒" d="M29.34,17c0.13,1.02-0.23,1.75-0.85,2.59c-2.91,3.92-9.62,11.73-16.62,15.16" transform="matrix(1,0,0,1,996,-4)" class="stroke_order_diagram--existing_path"></path><path id="pathSk2v596cn1wsb" kvg:type="㇒" d="M28.13,38c0.08,0.93-0.26,1.88-0.66,2.67C24.86,45.8,18.4,55.21,10.25,62" transform="matrix(1,0,0,1,996,-4)" class="stroke_order_diagram--existing_path"></path><path id="pathSk2v596cn1wsc" kvg:type="㇑" d="M21.47,54.25c0.89,0.89,1.15,2,1.15,3.16c0,0.4,0.03,16.9-0.02,26.34c-0.01,2.86-0.03,5.01-0.05,5.75" transform="matrix(1,0,0,1,996,-4)" class="stroke_order_diagram--existing_path"></path><path id="pathSk2v596cn1wsd" kvg:type="㇑a" d="M46.71,16.5c0.89,0.89,1.17,2,1.17,3.07c0,0.6,0.08,15.43,0.08,20.12" transform="matrix(1,0,0,1,996,-4)" class="stroke_order_diagram--existing_path"></path><path id="pathSk2v596cn1wse" kvg:type="㇄a" d="M36.16,31.53c0.47,0.97,0.59,1.47,0.5,2.65c-0.2,2.66-0.29,5.32-0.66,7.25c-0.26,1.34,0.53,2.32,1.74,1.99c7.5-2.04,12.63-3.54,21.18-5.23" transform="matrix(1,0,0,1,996,-4)" class="stroke_order_diagram--existing_path"></path><path id="pathSk2v596cn1wsf" kvg:type="㇑" d="M60.66,24.46c0.87,0.87,0.84,1.91,0.75,3.07c-0.18,2.46-0.67,4.72-1.1,8.01c-0.21,1.61-0.45,3.47-0.72,5.71" transform="matrix(1,0,0,1,996,-4)" class="stroke_order_diagram--existing_path"></path><path id="pathSk2v596cn1wsg" kvg:type="㇐" d="M30.84,57.58c1.9,0.2,3.45,0.14,5.32-0.26c5.18-1.08,12.6-3.69,17.58-4.83c1.67-0.38,3.32-0.44,5.03-0.01" transform="matrix(1,0,0,1,996,-4)" class="stroke_order_diagram--existing_path"></path><path id="pathSk2v596cn1wsh" kvg:type="㇒" d="M39.28,60.14c0.35,0.73,0.47,1.58,0.44,2.47c-0.22,6.64-2.97,17.64-9.91,23.36" transform="matrix(1,0,0,1,996,-4)" class="stroke_order_diagram--existing_path"></path><path id="pathSk2v596cn1wsi" kvg:type="㇙/㇏" d="M49.71,56.25c0.83,0.83,1.17,1.88,1.17,3.07c0,0.6,0.08,12.9,0.08,16.62c0,2.07,0.91,2.32,2.91,0.32c2.88-2.88,5.75-5.5,9.12-8.75" transform="matrix(1,0,0,1,996,-4)" class="stroke_order_diagram--existing_path"></path><path id="pathSk2v596cn1wsj" kvg:type="㇒" d="M75.05,20.89c0.33,0.98,0.25,2.13-0.07,3.24c-2.48,8.74-6.6,19.74-12.48,31.61" transform="matrix(1,0,0,1,996,-4)" class="stroke_order_diagram--existing_path"></path><path id="kvg:05fae-s11" kvg:type="㇐" d="M71.5,44.42c1.88,0.08,3.21-0.11,4.24-0.33c3.27-0.69,7.88-2.09,11.42-3.23c0.78-0.25,2.59-0.62,3.84-0.37" transform="matrix(1,0,0,1,996,-4)" class="stroke_order_diagram--current_path"></path><path id="pathSk2v596cn1wsl" kvg:type="㇐" d="M71.5,44.42c1.88,0.08,3.21-0.11,4.24-0.33c3.27-0.69,7.88-2.09,11.42-3.23c0.78-0.25,2.59-0.62,3.84-0.37" transform="matrix(1,0,0,1,996,-4)" class="stroke_order_diagram--current_path"></path><circle cx="71.5" cy="44.42" r="8" class="stroke_order_diagram--path_start" transform="matrix(1,0,0,1,996,-4)"></circle><line x1="1150" x2="1150" y1="1" y2="99" class="stroke_order_diagram--guide_line"></line><line x1="1199" x2="1199" y1="1" y2="99" class="stroke_order_diagram--bounding_box"></line><path id="pathSk2v596cn1wso" kvg:type="㇒" d="M29.34,17c0.13,1.02-0.23,1.75-0.85,2.59c-2.91,3.92-9.62,11.73-16.62,15.16" transform="matrix(1,0,0,1,1096,-4)" class="stroke_order_diagram--existing_path"></path><path id="pathSk2v596cn1wsp" kvg:type="㇒" d="M28.13,38c0.08,0.93-0.26,1.88-0.66,2.67C24.86,45.8,18.4,55.21,10.25,62" transform="matrix(1,0,0,1,1096,-4)" class="stroke_order_diagram--existing_path"></path><path id="pathSk2v596cn1wsq" kvg:type="㇑" d="M21.47,54.25c0.89,0.89,1.15,2,1.15,3.16c0,0.4,0.03,16.9-0.02,26.34c-0.01,2.86-0.03,5.01-0.05,5.75" transform="matrix(1,0,0,1,1096,-4)" class="stroke_order_diagram--existing_path"></path><path id="pathSk2v596cn1wsr" kvg:type="㇑a" d="M46.71,16.5c0.89,0.89,1.17,2,1.17,3.07c0,0.6,0.08,15.43,0.08,20.12" transform="matrix(1,0,0,1,1096,-4)" class="stroke_order_diagram--existing_path"></path><path id="pathSk2v596cn1wss" kvg:type="㇄a" d="M36.16,31.53c0.47,0.97,0.59,1.47,0.5,2.65c-0.2,2.66-0.29,5.32-0.66,7.25c-0.26,1.34,0.53,2.32,1.74,1.99c7.5-2.04,12.63-3.54,21.18-5.23" transform="matrix(1,0,0,1,1096,-4)" class="stroke_order_diagram--existing_path"></path><path id="pathSk2v596cn1wst" kvg:type="㇑" d="M60.66,24.46c0.87,0.87,0.84,1.91,0.75,3.07c-0.18,2.46-0.67,4.72-1.1,8.01c-0.21,1.61-0.45,3.47-0.72,5.71" transform="matrix(1,0,0,1,1096,-4)" class="stroke_order_diagram--existing_path"></path><path id="pathSk2v596cn1wsu" kvg:type="㇐" d="M30.84,57.58c1.9,0.2,3.45,0.14,5.32-0.26c5.18-1.08,12.6-3.69,17.58-4.83c1.67-0.38,3.32-0.44,5.03-0.01" transform="matrix(1,0,0,1,1096,-4)" class="stroke_order_diagram--existing_path"></path><path id="pathSk2v596cn1wsv" kvg:type="㇒" d="M39.28,60.14c0.35,0.73,0.47,1.58,0.44,2.47c-0.22,6.64-2.97,17.64-9.91,23.36" transform="matrix(1,0,0,1,1096,-4)" class="stroke_order_diagram--existing_path"></path><path id="pathSk2v596cn1wsw" kvg:type="㇙/㇏" d="M49.71,56.25c0.83,0.83,1.17,1.88,1.17,3.07c0,0.6,0.08,12.9,0.08,16.62c0,2.07,0.91,2.32,2.91,0.32c2.88-2.88,5.75-5.5,9.12-8.75" transform="matrix(1,0,0,1,1096,-4)" class="stroke_order_diagram--existing_path"></path><path id="pathSk2v596cn1wsx" kvg:type="㇒" d="M75.05,20.89c0.33,0.98,0.25,2.13-0.07,3.24c-2.48,8.74-6.6,19.74-12.48,31.61" transform="matrix(1,0,0,1,1096,-4)" class="stroke_order_diagram--existing_path"></path><path id="pathSk2v596cn1wsy" kvg:type="㇐" d="M71.5,44.42c1.88,0.08,3.21-0.11,4.24-0.33c3.27-0.69,7.88-2.09,11.42-3.23c0.78-0.25,2.59-0.62,3.84-0.37" transform="matrix(1,0,0,1,1096,-4)" class="stroke_order_diagram--existing_path"></path><path id="kvg:05fae-s12" kvg:type="㇒" d="M80.67,46.18c0.43,1.09,0.66,1.88,0.21,3.88C76.83,68.23,69.88,80.5,54.5,91.5" transform="matrix(1,0,0,1,1096,-4)" class="stroke_order_diagram--current_path"></path><path id="pathSk2v596cn1wt0" kvg:type="㇒" d="M80.67,46.18c0.43,1.09,0.66,1.88,0.21,3.88C76.83,68.23,69.88,80.5,54.5,91.5" transform="matrix(1,0,0,1,1096,-4)" class="stroke_order_diagram--current_path"></path><circle cx="80.67" cy="46.18" r="8" class="stroke_order_diagram--path_start" transform="matrix(1,0,0,1,1096,-4)"></circle><line x1="1250" x2="1250" y1="1" y2="99" class="stroke_order_diagram--guide_line"></line><line x1="1299" x2="1299" y1="1" y2="99" class="stroke_order_diagram--bounding_box"></line><path id="pathSk2v596cn1wt3" kvg:type="㇒" d="M29.34,17c0.13,1.02-0.23,1.75-0.85,2.59c-2.91,3.92-9.62,11.73-16.62,15.16" transform="matrix(1,0,0,1,1196,-4)" class="stroke_order_diagram--existing_path"></path><path id="pathSk2v596cn1wt4" kvg:type="㇒" d="M28.13,38c0.08,0.93-0.26,1.88-0.66,2.67C24.86,45.8,18.4,55.21,10.25,62" transform="matrix(1,0,0,1,1196,-4)" class="stroke_order_diagram--existing_path"></path><path id="pathSk2v596cn1wt5" kvg:type="㇑" d="M21.47,54.25c0.89,0.89,1.15,2,1.15,3.16c0,0.4,0.03,16.9-0.02,26.34c-0.01,2.86-0.03,5.01-0.05,5.75" transform="matrix(1,0,0,1,1196,-4)" class="stroke_order_diagram--existing_path"></path><path id="pathSk2v596cn1wt6" kvg:type="㇑a" d="M46.71,16.5c0.89,0.89,1.17,2,1.17,3.07c0,0.6,0.08,15.43,0.08,20.12" transform="matrix(1,0,0,1,1196,-4)" class="stroke_order_diagram--existing_path"></path><path id="pathSk2v596cn1wt7" kvg:type="㇄a" d="M36.16,31.53c0.47,0.97,0.59,1.47,0.5,2.65c-0.2,2.66-0.29,5.32-0.66,7.25c-0.26,1.34,0.53,2.32,1.74,1.99c7.5-2.04,12.63-3.54,21.18-5.23" transform="matrix(1,0,0,1,1196,-4)" class="stroke_order_diagram--existing_path"></path><path id="pathSk2v596cn1wt8" kvg:type="㇑" d="M60.66,24.46c0.87,0.87,0.84,1.91,0.75,3.07c-0.18,2.46-0.67,4.72-1.1,8.01c-0.21,1.61-0.45,3.47-0.72,5.71" transform="matrix(1,0,0,1,1196,-4)" class="stroke_order_diagram--existing_path"></path><path id="pathSk2v596cn1wt9" kvg:type="㇐" d="M30.84,57.58c1.9,0.2,3.45,0.14,5.32-0.26c5.18-1.08,12.6-3.69,17.58-4.83c1.67-0.38,3.32-0.44,5.03-0.01" transform="matrix(1,0,0,1,1196,-4)" class="stroke_order_diagram--existing_path"></path><path id="pathSk2v596cn1wta" kvg:type="㇒" d="M39.28,60.14c0.35,0.73,0.47,1.58,0.44,2.47c-0.22,6.64-2.97,17.64-9.91,23.36" transform="matrix(1,0,0,1,1196,-4)" class="stroke_order_diagram--existing_path"></path><path id="pathSk2v596cn1wtb" kvg:type="㇙/㇏" d="M49.71,56.25c0.83,0.83,1.17,1.88,1.17,3.07c0,0.6,0.08,12.9,0.08,16.62c0,2.07,0.91,2.32,2.91,0.32c2.88-2.88,5.75-5.5,9.12-8.75" transform="matrix(1,0,0,1,1196,-4)" class="stroke_order_diagram--existing_path"></path><path id="pathSk2v596cn1wtc" kvg:type="㇒" d="M75.05,20.89c0.33,0.98,0.25,2.13-0.07,3.24c-2.48,8.74-6.6,19.74-12.48,31.61" transform="matrix(1,0,0,1,1196,-4)" class="stroke_order_diagram--existing_path"></path><path id="pathSk2v596cn1wtd" kvg:type="㇐" d="M71.5,44.42c1.88,0.08,3.21-0.11,4.24-0.33c3.27-0.69,7.88-2.09,11.42-3.23c0.78-0.25,2.59-0.62,3.84-0.37" transform="matrix(1,0,0,1,1196,-4)" class="stroke_order_diagram--existing_path"></path><path id="pathSk2v596cn1wte" kvg:type="㇒" d="M80.67,46.18c0.43,1.09,0.66,1.88,0.21,3.88C76.83,68.23,69.88,80.5,54.5,91.5" transform="matrix(1,0,0,1,1196,-4)" class="stroke_order_diagram--existing_path"></path><path id="kvg:05fae-s13" kvg:type="㇏" d="M67.25,55.75c0.89,0,13.89,18.68,21.82,27.68c1.64,1.86,2.93,3.45,5.18,5.32" transform="matrix(1,0,0,1,1196,-4)" class="stroke_order_diagram--current_path"></path><path id="pathSk2v596cn1wtg" kvg:type="㇏" d="M67.25,55.75c0.89,0,13.89,18.68,21.82,27.68c1.64,1.86,2.93,3.45,5.18,5.32" transform="matrix(1,0,0,1,1196,-4)" class="stroke_order_diagram--current_path"></path><circle cx="67.25" cy="55.75" r="8" class="stroke_order_diagram--path_start" transform="matrix(1,0,0,1,1196,-4)"></circle></svg>