<svg style="width: 1500px; height: 100px;" viewbox="0 0 1500 100"><style>
.stroke_order_diagram--outer_container {
  width: 100%;
  overflow-x: auto;
  overflow-y: hidden;
}

.stroke_order_diagram--guide_line {
  fill: none;
  stroke: #ddd;
  stroke-width: 3;
  stroke-linecap: square;
  stroke-linejoin: square;
  stroke-dasharray:8, 8;
}

.stroke_order_diagram--bounding_box {
  fill: none;
  stroke: #ddd;
  stroke-width: 4;
  stroke-linecap: square;
  stroke-linejoin: square;
}

.stroke_order_diagram--current_path {
  fill: none;
  stroke: #000;
  stroke-width: 6;
  stroke-linecap: round;
  stroke-linejoin: round;
}

.stroke_order_diagram--existing_path {
  fill: none;
  stroke: #aaa;
  stroke-width: 6;
  stroke-linecap: round;
  stroke-linejoin:round;
}

.stroke_order_diagram--path_start {
  fill: rgba(255, 0, 0, 0.7);
  stroke:none
}</style><desc>Created with Snap</desc><defs></defs><line x1="1" x2="1499" y1="1" y2="1" class="stroke_order_diagram--bounding_box"></line><line x1="1" x2="1" y1="1" y2="99" class="stroke_order_diagram--bounding_box"></line><line x1="1" x2="1499" y1="99" y2="99" class="stroke_order_diagram--bounding_box"></line><line x1="0" x2="1500" y1="50" y2="50" class="stroke_order_diagram--guide_line"></line><line x1="50" x2="50" y1="1" y2="99" class="stroke_order_diagram--guide_line"></line><line x1="99" x2="99" y1="1" y2="99" class="stroke_order_diagram--bounding_box"></line><path id="kvg:05fb9-s1" kvg:type="㇒" d="M27.6,16.25c0,1.04-0.65,2.02-1.18,2.86c-2.73,4.35-8.81,12.04-15.3,17.14" transform="matrix(1,0,0,1,-4,-4)" class="stroke_order_diagram--current_path"></path><path id="pathSk2v596cn31xj" kvg:type="㇒" d="M27.6,16.25c0,1.04-0.65,2.02-1.18,2.86c-2.73,4.35-8.81,12.04-15.3,17.14" transform="matrix(1,0,0,1,-4,-4)" class="stroke_order_diagram--current_path"></path><circle cx="27.6" cy="16.25" r="8" class="stroke_order_diagram--path_start" transform="matrix(1,0,0,1,-4,-4)"></circle><line x1="150" x2="150" y1="1" y2="99" class="stroke_order_diagram--guide_line"></line><line x1="199" x2="199" y1="1" y2="99" class="stroke_order_diagram--bounding_box"></line><path id="pathSk2v596cn31xm" kvg:type="㇒" d="M27.6,16.25c0,1.04-0.65,2.02-1.18,2.86c-2.73,4.35-8.81,12.04-15.3,17.14" transform="matrix(1,0,0,1,96,-4)" class="stroke_order_diagram--existing_path"></path><path id="kvg:05fb9-s2" kvg:type="㇒" d="M29.11,34.75c0,1.12-0.35,2.21-0.8,3.16c-2.84,6.01-9.41,15.69-19.07,25.84" transform="matrix(1,0,0,1,96,-4)" class="stroke_order_diagram--current_path"></path><path id="pathSk2v596cn31xo" kvg:type="㇒" d="M29.11,34.75c0,1.12-0.35,2.21-0.8,3.16c-2.84,6.01-9.41,15.69-19.07,25.84" transform="matrix(1,0,0,1,96,-4)" class="stroke_order_diagram--current_path"></path><circle cx="29.11" cy="34.75" r="8" class="stroke_order_diagram--path_start" transform="matrix(1,0,0,1,96,-4)"></circle><line x1="250" x2="250" y1="1" y2="99" class="stroke_order_diagram--guide_line"></line><line x1="299" x2="299" y1="1" y2="99" class="stroke_order_diagram--bounding_box"></line><path id="pathSk2v596cn31xr" kvg:type="㇒" d="M27.6,16.25c0,1.04-0.65,2.02-1.18,2.86c-2.73,4.35-8.81,12.04-15.3,17.14" transform="matrix(1,0,0,1,196,-4)" class="stroke_order_diagram--existing_path"></path><path id="pathSk2v596cn31xs" kvg:type="㇒" d="M29.11,34.75c0,1.12-0.35,2.21-0.8,3.16c-2.84,6.01-9.41,15.69-19.07,25.84" transform="matrix(1,0,0,1,196,-4)" class="stroke_order_diagram--existing_path"></path><path id="kvg:05fb9-s3" kvg:type="㇑" d="M20.97,53c0.76,0.76,0.9,1.75,0.9,2.66c0,0.41,0.02,23.76-0.03,34.84c-0.01,2.83-0.03,4.85-0.04,5.5" transform="matrix(1,0,0,1,196,-4)" class="stroke_order_diagram--current_path"></path><path id="pathSk2v596cn31xu" kvg:type="㇑" d="M20.97,53c0.76,0.76,0.9,1.75,0.9,2.66c0,0.41,0.02,23.76-0.03,34.84c-0.01,2.83-0.03,4.85-0.04,5.5" transform="matrix(1,0,0,1,196,-4)" class="stroke_order_diagram--current_path"></path><circle cx="20.97" cy="53" r="8" class="stroke_order_diagram--path_start" transform="matrix(1,0,0,1,196,-4)"></circle><line x1="350" x2="350" y1="1" y2="99" class="stroke_order_diagram--guide_line"></line><line x1="399" x2="399" y1="1" y2="99" class="stroke_order_diagram--bounding_box"></line><path id="pathSk2v596cn31xx" kvg:type="㇒" d="M27.6,16.25c0,1.04-0.65,2.02-1.18,2.86c-2.73,4.35-8.81,12.04-15.3,17.14" transform="matrix(1,0,0,1,296,-4)" class="stroke_order_diagram--existing_path"></path><path id="pathSk2v596cn31xy" kvg:type="㇒" d="M29.11,34.75c0,1.12-0.35,2.21-0.8,3.16c-2.84,6.01-9.41,15.69-19.07,25.84" transform="matrix(1,0,0,1,296,-4)" class="stroke_order_diagram--existing_path"></path><path id="pathSk2v596cn31xz" kvg:type="㇑" d="M20.97,53c0.76,0.76,0.9,1.75,0.9,2.66c0,0.41,0.02,23.76-0.03,34.84c-0.01,2.83-0.03,4.85-0.04,5.5" transform="matrix(1,0,0,1,296,-4)" class="stroke_order_diagram--existing_path"></path><path id="kvg:05fb9-s4" kvg:type="㇑a" d="M48.05,15.82c1.06,1.06,1.17,2.05,1.17,3.58c0,1.85-0.08,5.35-0.08,7.08" transform="matrix(1,0,0,1,296,-4)" class="stroke_order_diagram--current_path"></path><path id="pathSk2v596cn31y1" kvg:type="㇑a" d="M48.05,15.82c1.06,1.06,1.17,2.05,1.17,3.58c0,1.85-0.08,5.35-0.08,7.08" transform="matrix(1,0,0,1,296,-4)" class="stroke_order_diagram--current_path"></path><circle cx="48.05" cy="15.82" r="8" class="stroke_order_diagram--path_start" transform="matrix(1,0,0,1,296,-4)"></circle><line x1="450" x2="450" y1="1" y2="99" class="stroke_order_diagram--guide_line"></line><line x1="499" x2="499" y1="1" y2="99" class="stroke_order_diagram--bounding_box"></line><path id="pathSk2v596cn31y4" kvg:type="㇒" d="M27.6,16.25c0,1.04-0.65,2.02-1.18,2.86c-2.73,4.35-8.81,12.04-15.3,17.14" transform="matrix(1,0,0,1,396,-4)" class="stroke_order_diagram--existing_path"></path><path id="pathSk2v596cn31y5" kvg:type="㇒" d="M29.11,34.75c0,1.12-0.35,2.21-0.8,3.16c-2.84,6.01-9.41,15.69-19.07,25.84" transform="matrix(1,0,0,1,396,-4)" class="stroke_order_diagram--existing_path"></path><path id="pathSk2v596cn31y6" kvg:type="㇑" d="M20.97,53c0.76,0.76,0.9,1.75,0.9,2.66c0,0.41,0.02,23.76-0.03,34.84c-0.01,2.83-0.03,4.85-0.04,5.5" transform="matrix(1,0,0,1,396,-4)" class="stroke_order_diagram--existing_path"></path><path id="pathSk2v596cn31y7" kvg:type="㇑a" d="M48.05,15.82c1.06,1.06,1.17,2.05,1.17,3.58c0,1.85-0.08,5.35-0.08,7.08" transform="matrix(1,0,0,1,396,-4)" class="stroke_order_diagram--existing_path"></path><path id="kvg:05fb9-s5" kvg:type="㇐" d="M33.47,28.65c0.8,0.09,2.61,0.06,3.4,0.01c5.63-0.41,15.17-2.43,23.69-2.7c1.32-0.04,2.56-0.21,3.72,0.14" transform="matrix(1,0,0,1,396,-4)" class="stroke_order_diagram--current_path"></path><path id="pathSk2v596cn31y9" kvg:type="㇐" d="M33.47,28.65c0.8,0.09,2.61,0.06,3.4,0.01c5.63-0.41,15.17-2.43,23.69-2.7c1.32-0.04,2.56-0.21,3.72,0.14" transform="matrix(1,0,0,1,396,-4)" class="stroke_order_diagram--current_path"></path><circle cx="33.47" cy="28.65" r="8" class="stroke_order_diagram--path_start" transform="matrix(1,0,0,1,396,-4)"></circle><line x1="550" x2="550" y1="1" y2="99" class="stroke_order_diagram--guide_line"></line><line x1="599" x2="599" y1="1" y2="99" class="stroke_order_diagram--bounding_box"></line><path id="pathSk2v596cn31yc" kvg:type="㇒" d="M27.6,16.25c0,1.04-0.65,2.02-1.18,2.86c-2.73,4.35-8.81,12.04-15.3,17.14" transform="matrix(1,0,0,1,496,-4)" class="stroke_order_diagram--existing_path"></path><path id="pathSk2v596cn31yd" kvg:type="㇒" d="M29.11,34.75c0,1.12-0.35,2.21-0.8,3.16c-2.84,6.01-9.41,15.69-19.07,25.84" transform="matrix(1,0,0,1,496,-4)" class="stroke_order_diagram--existing_path"></path><path id="pathSk2v596cn31ye" kvg:type="㇑" d="M20.97,53c0.76,0.76,0.9,1.75,0.9,2.66c0,0.41,0.02,23.76-0.03,34.84c-0.01,2.83-0.03,4.85-0.04,5.5" transform="matrix(1,0,0,1,496,-4)" class="stroke_order_diagram--existing_path"></path><path id="pathSk2v596cn31yf" kvg:type="㇑a" d="M48.05,15.82c1.06,1.06,1.17,2.05,1.17,3.58c0,1.85-0.08,5.35-0.08,7.08" transform="matrix(1,0,0,1,496,-4)" class="stroke_order_diagram--existing_path"></path><path id="pathSk2v596cn31yg" kvg:type="㇐" d="M33.47,28.65c0.8,0.09,2.61,0.06,3.4,0.01c5.63-0.41,15.17-2.43,23.69-2.7c1.32-0.04,2.56-0.21,3.72,0.14" transform="matrix(1,0,0,1,496,-4)" class="stroke_order_diagram--existing_path"></path><path id="kvg:05fb9-s6" kvg:type="㇜" d="M48,30c0,1-0.17,1.81-0.8,2.61c-3.7,4.64-5.5,6.73-9.85,12.02c-1.27,1.54-0.81,2.91,1.26,2.45c7.64-1.7,9.64-2.07,18.87-4.3" transform="matrix(1,0,0,1,496,-4)" class="stroke_order_diagram--current_path"></path><path id="pathSk2v596cn31yi" kvg:type="㇜" d="M48,30c0,1-0.17,1.81-0.8,2.61c-3.7,4.64-5.5,6.73-9.85,12.02c-1.27,1.54-0.81,2.91,1.26,2.45c7.64-1.7,9.64-2.07,18.87-4.3" transform="matrix(1,0,0,1,496,-4)" class="stroke_order_diagram--current_path"></path><circle cx="48" cy="30" r="8" class="stroke_order_diagram--path_start" transform="matrix(1,0,0,1,496,-4)"></circle><line x1="650" x2="650" y1="1" y2="99" class="stroke_order_diagram--guide_line"></line><line x1="699" x2="699" y1="1" y2="99" class="stroke_order_diagram--bounding_box"></line><path id="pathSk2v596cn31yl" kvg:type="㇒" d="M27.6,16.25c0,1.04-0.65,2.02-1.18,2.86c-2.73,4.35-8.81,12.04-15.3,17.14" transform="matrix(1,0,0,1,596,-4)" class="stroke_order_diagram--existing_path"></path><path id="pathSk2v596cn31ym" kvg:type="㇒" d="M29.11,34.75c0,1.12-0.35,2.21-0.8,3.16c-2.84,6.01-9.41,15.69-19.07,25.84" transform="matrix(1,0,0,1,596,-4)" class="stroke_order_diagram--existing_path"></path><path id="pathSk2v596cn31yn" kvg:type="㇑" d="M20.97,53c0.76,0.76,0.9,1.75,0.9,2.66c0,0.41,0.02,23.76-0.03,34.84c-0.01,2.83-0.03,4.85-0.04,5.5" transform="matrix(1,0,0,1,596,-4)" class="stroke_order_diagram--existing_path"></path><path id="pathSk2v596cn31yo" kvg:type="㇑a" d="M48.05,15.82c1.06,1.06,1.17,2.05,1.17,3.58c0,1.85-0.08,5.35-0.08,7.08" transform="matrix(1,0,0,1,596,-4)" class="stroke_order_diagram--existing_path"></path><path id="pathSk2v596cn31yp" kvg:type="㇐" d="M33.47,28.65c0.8,0.09,2.61,0.06,3.4,0.01c5.63-0.41,15.17-2.43,23.69-2.7c1.32-0.04,2.56-0.21,3.72,0.14" transform="matrix(1,0,0,1,596,-4)" class="stroke_order_diagram--existing_path"></path><path id="pathSk2v596cn31yq" kvg:type="㇜" d="M48,30c0,1-0.17,1.81-0.8,2.61c-3.7,4.64-5.5,6.73-9.85,12.02c-1.27,1.54-0.81,2.91,1.26,2.45c7.64-1.7,9.64-2.07,18.87-4.3" transform="matrix(1,0,0,1,596,-4)" class="stroke_order_diagram--existing_path"></path><path id="kvg:05fb9-s7" kvg:type="㇔" d="M54.73,36.03c2.43,1.93,6.29,7.93,6.9,10.94" transform="matrix(1,0,0,1,596,-4)" class="stroke_order_diagram--current_path"></path><path id="pathSk2v596cn31ys" kvg:type="㇔" d="M54.73,36.03c2.43,1.93,6.29,7.93,6.9,10.94" transform="matrix(1,0,0,1,596,-4)" class="stroke_order_diagram--current_path"></path><circle cx="54.73" cy="36.03" r="8" class="stroke_order_diagram--path_start" transform="matrix(1,0,0,1,596,-4)"></circle><line x1="750" x2="750" y1="1" y2="99" class="stroke_order_diagram--guide_line"></line><line x1="799" x2="799" y1="1" y2="99" class="stroke_order_diagram--bounding_box"></line><path id="pathSk2v596cn31yv" kvg:type="㇒" d="M27.6,16.25c0,1.04-0.65,2.02-1.18,2.86c-2.73,4.35-8.81,12.04-15.3,17.14" transform="matrix(1,0,0,1,696,-4)" class="stroke_order_diagram--existing_path"></path><path id="pathSk2v596cn31yw" kvg:type="㇒" d="M29.11,34.75c0,1.12-0.35,2.21-0.8,3.16c-2.84,6.01-9.41,15.69-19.07,25.84" transform="matrix(1,0,0,1,696,-4)" class="stroke_order_diagram--existing_path"></path><path id="pathSk2v596cn31yx" kvg:type="㇑" d="M20.97,53c0.76,0.76,0.9,1.75,0.9,2.66c0,0.41,0.02,23.76-0.03,34.84c-0.01,2.83-0.03,4.85-0.04,5.5" transform="matrix(1,0,0,1,696,-4)" class="stroke_order_diagram--existing_path"></path><path id="pathSk2v596cn31yy" kvg:type="㇑a" d="M48.05,15.82c1.06,1.06,1.17,2.05,1.17,3.58c0,1.85-0.08,5.35-0.08,7.08" transform="matrix(1,0,0,1,696,-4)" class="stroke_order_diagram--existing_path"></path><path id="pathSk2v596cn31yz" kvg:type="㇐" d="M33.47,28.65c0.8,0.09,2.61,0.06,3.4,0.01c5.63-0.41,15.17-2.43,23.69-2.7c1.32-0.04,2.56-0.21,3.72,0.14" transform="matrix(1,0,0,1,696,-4)" class="stroke_order_diagram--existing_path"></path><path id="pathSk2v596cn31z0" kvg:type="㇜" d="M48,30c0,1-0.17,1.81-0.8,2.61c-3.7,4.64-5.5,6.73-9.85,12.02c-1.27,1.54-0.81,2.91,1.26,2.45c7.64-1.7,9.64-2.07,18.87-4.3" transform="matrix(1,0,0,1,696,-4)" class="stroke_order_diagram--existing_path"></path><path id="pathSk2v596cn31z1" kvg:type="㇔" d="M54.73,36.03c2.43,1.93,6.29,7.93,6.9,10.94" transform="matrix(1,0,0,1,696,-4)" class="stroke_order_diagram--existing_path"></path><path id="kvg:05fb9-s8" kvg:type="㇑/㇒" d="M37.98,54.51c0.69,0.7,0.96,1.49,0.96,2.43c0,0.43-0.04,20.31-0.04,30.5c0,3.32-0.01,5.63-0.02,5.94" transform="matrix(1,0,0,1,696,-4)" class="stroke_order_diagram--current_path"></path><path id="pathSk2v596cn31z3" kvg:type="㇑/㇒" d="M37.98,54.51c0.69,0.7,0.96,1.49,0.96,2.43c0,0.43-0.04,20.31-0.04,30.5c0,3.32-0.01,5.63-0.02,5.94" transform="matrix(1,0,0,1,696,-4)" class="stroke_order_diagram--current_path"></path><circle cx="37.98" cy="54.51" r="8" class="stroke_order_diagram--path_start" transform="matrix(1,0,0,1,696,-4)"></circle><line x1="850" x2="850" y1="1" y2="99" class="stroke_order_diagram--guide_line"></line><line x1="899" x2="899" y1="1" y2="99" class="stroke_order_diagram--bounding_box"></line><path id="pathSk2v596cn31z6" kvg:type="㇒" d="M27.6,16.25c0,1.04-0.65,2.02-1.18,2.86c-2.73,4.35-8.81,12.04-15.3,17.14" transform="matrix(1,0,0,1,796,-4)" class="stroke_order_diagram--existing_path"></path><path id="pathSk2v596cn31z7" kvg:type="㇒" d="M29.11,34.75c0,1.12-0.35,2.21-0.8,3.16c-2.84,6.01-9.41,15.69-19.07,25.84" transform="matrix(1,0,0,1,796,-4)" class="stroke_order_diagram--existing_path"></path><path id="pathSk2v596cn31z8" kvg:type="㇑" d="M20.97,53c0.76,0.76,0.9,1.75,0.9,2.66c0,0.41,0.02,23.76-0.03,34.84c-0.01,2.83-0.03,4.85-0.04,5.5" transform="matrix(1,0,0,1,796,-4)" class="stroke_order_diagram--existing_path"></path><path id="pathSk2v596cn31z9" kvg:type="㇑a" d="M48.05,15.82c1.06,1.06,1.17,2.05,1.17,3.58c0,1.85-0.08,5.35-0.08,7.08" transform="matrix(1,0,0,1,796,-4)" class="stroke_order_diagram--existing_path"></path><path id="pathSk2v596cn31za" kvg:type="㇐" d="M33.47,28.65c0.8,0.09,2.61,0.06,3.4,0.01c5.63-0.41,15.17-2.43,23.69-2.7c1.32-0.04,2.56-0.21,3.72,0.14" transform="matrix(1,0,0,1,796,-4)" class="stroke_order_diagram--existing_path"></path><path id="pathSk2v596cn31zb" kvg:type="㇜" d="M48,30c0,1-0.17,1.81-0.8,2.61c-3.7,4.64-5.5,6.73-9.85,12.02c-1.27,1.54-0.81,2.91,1.26,2.45c7.64-1.7,9.64-2.07,18.87-4.3" transform="matrix(1,0,0,1,796,-4)" class="stroke_order_diagram--existing_path"></path><path id="pathSk2v596cn31zc" kvg:type="㇔" d="M54.73,36.03c2.43,1.93,6.29,7.93,6.9,10.94" transform="matrix(1,0,0,1,796,-4)" class="stroke_order_diagram--existing_path"></path><path id="pathSk2v596cn31zd" kvg:type="㇑/㇒" d="M37.98,54.51c0.69,0.7,0.96,1.49,0.96,2.43c0,0.43-0.04,20.31-0.04,30.5c0,3.32-0.01,5.63-0.02,5.94" transform="matrix(1,0,0,1,796,-4)" class="stroke_order_diagram--existing_path"></path><path id="kvg:05fb9-s9" kvg:type="㇆a" d="M39.64,55.82c1.17-0.12,10.15-1.76,13.76-2.41c2.25-0.4,3.83,0.5,3.72,3.46c-0.18,4.75-0.03,24.04-0.03,34.09c0,7.8-4.93,1.2-5.4,0.5" transform="matrix(1,0,0,1,796,-4)" class="stroke_order_diagram--current_path"></path><path id="pathSk2v596cn31zf" kvg:type="㇆a" d="M39.64,55.82c1.17-0.12,10.15-1.76,13.76-2.41c2.25-0.4,3.83,0.5,3.72,3.46c-0.18,4.75-0.03,24.04-0.03,34.09c0,7.8-4.93,1.2-5.4,0.5" transform="matrix(1,0,0,1,796,-4)" class="stroke_order_diagram--current_path"></path><circle cx="39.64" cy="55.82" r="8" class="stroke_order_diagram--path_start" transform="matrix(1,0,0,1,796,-4)"></circle><line x1="950" x2="950" y1="1" y2="99" class="stroke_order_diagram--guide_line"></line><line x1="999" x2="999" y1="1" y2="99" class="stroke_order_diagram--bounding_box"></line><path id="pathSk2v596cn31zi" kvg:type="㇒" d="M27.6,16.25c0,1.04-0.65,2.02-1.18,2.86c-2.73,4.35-8.81,12.04-15.3,17.14" transform="matrix(1,0,0,1,896,-4)" class="stroke_order_diagram--existing_path"></path><path id="pathSk2v596cn31zj" kvg:type="㇒" d="M29.11,34.75c0,1.12-0.35,2.21-0.8,3.16c-2.84,6.01-9.41,15.69-19.07,25.84" transform="matrix(1,0,0,1,896,-4)" class="stroke_order_diagram--existing_path"></path><path id="pathSk2v596cn31zk" kvg:type="㇑" d="M20.97,53c0.76,0.76,0.9,1.75,0.9,2.66c0,0.41,0.02,23.76-0.03,34.84c-0.01,2.83-0.03,4.85-0.04,5.5" transform="matrix(1,0,0,1,896,-4)" class="stroke_order_diagram--existing_path"></path><path id="pathSk2v596cn31zl" kvg:type="㇑a" d="M48.05,15.82c1.06,1.06,1.17,2.05,1.17,3.58c0,1.85-0.08,5.35-0.08,7.08" transform="matrix(1,0,0,1,896,-4)" class="stroke_order_diagram--existing_path"></path><path id="pathSk2v596cn31zm" kvg:type="㇐" d="M33.47,28.65c0.8,0.09,2.61,0.06,3.4,0.01c5.63-0.41,15.17-2.43,23.69-2.7c1.32-0.04,2.56-0.21,3.72,0.14" transform="matrix(1,0,0,1,896,-4)" class="stroke_order_diagram--existing_path"></path><path id="pathSk2v596cn31zn" kvg:type="㇜" d="M48,30c0,1-0.17,1.81-0.8,2.61c-3.7,4.64-5.5,6.73-9.85,12.02c-1.27,1.54-0.81,2.91,1.26,2.45c7.64-1.7,9.64-2.07,18.87-4.3" transform="matrix(1,0,0,1,896,-4)" class="stroke_order_diagram--existing_path"></path><path id="pathSk2v596cn31zo" kvg:type="㇔" d="M54.73,36.03c2.43,1.93,6.29,7.93,6.9,10.94" transform="matrix(1,0,0,1,896,-4)" class="stroke_order_diagram--existing_path"></path><path id="pathSk2v596cn31zp" kvg:type="㇑/㇒" d="M37.98,54.51c0.69,0.7,0.96,1.49,0.96,2.43c0,0.43-0.04,20.31-0.04,30.5c0,3.32-0.01,5.63-0.02,5.94" transform="matrix(1,0,0,1,896,-4)" class="stroke_order_diagram--existing_path"></path><path id="pathSk2v596cn31zq" kvg:type="㇆a" d="M39.64,55.82c1.17-0.12,10.15-1.76,13.76-2.41c2.25-0.4,3.83,0.5,3.72,3.46c-0.18,4.75-0.03,24.04-0.03,34.09c0,7.8-4.93,1.2-5.4,0.5" transform="matrix(1,0,0,1,896,-4)" class="stroke_order_diagram--existing_path"></path><path id="kvg:05fb9-s10" kvg:type="㇐a" d="M40.14,66.03c4.83-0.84,11.48-1.59,15.72-2.01" transform="matrix(1,0,0,1,896,-4)" class="stroke_order_diagram--current_path"></path><path id="pathSk2v596cn31zs" kvg:type="㇐a" d="M40.14,66.03c4.83-0.84,11.48-1.59,15.72-2.01" transform="matrix(1,0,0,1,896,-4)" class="stroke_order_diagram--current_path"></path><circle cx="40.14" cy="66.03" r="8" class="stroke_order_diagram--path_start" transform="matrix(1,0,0,1,896,-4)"></circle><line x1="1050" x2="1050" y1="1" y2="99" class="stroke_order_diagram--guide_line"></line><line x1="1099" x2="1099" y1="1" y2="99" class="stroke_order_diagram--bounding_box"></line><path id="pathSk2v596cn31zv" kvg:type="㇒" d="M27.6,16.25c0,1.04-0.65,2.02-1.18,2.86c-2.73,4.35-8.81,12.04-15.3,17.14" transform="matrix(1,0,0,1,996,-4)" class="stroke_order_diagram--existing_path"></path><path id="pathSk2v596cn31zw" kvg:type="㇒" d="M29.11,34.75c0,1.12-0.35,2.21-0.8,3.16c-2.84,6.01-9.41,15.69-19.07,25.84" transform="matrix(1,0,0,1,996,-4)" class="stroke_order_diagram--existing_path"></path><path id="pathSk2v596cn31zx" kvg:type="㇑" d="M20.97,53c0.76,0.76,0.9,1.75,0.9,2.66c0,0.41,0.02,23.76-0.03,34.84c-0.01,2.83-0.03,4.85-0.04,5.5" transform="matrix(1,0,0,1,996,-4)" class="stroke_order_diagram--existing_path"></path><path id="pathSk2v596cn31zy" kvg:type="㇑a" d="M48.05,15.82c1.06,1.06,1.17,2.05,1.17,3.58c0,1.85-0.08,5.35-0.08,7.08" transform="matrix(1,0,0,1,996,-4)" class="stroke_order_diagram--existing_path"></path><path id="pathSk2v596cn31zz" kvg:type="㇐" d="M33.47,28.65c0.8,0.09,2.61,0.06,3.4,0.01c5.63-0.41,15.17-2.43,23.69-2.7c1.32-0.04,2.56-0.21,3.72,0.14" transform="matrix(1,0,0,1,996,-4)" class="stroke_order_diagram--existing_path"></path><path id="pathSk2v596cn3200" kvg:type="㇜" d="M48,30c0,1-0.17,1.81-0.8,2.61c-3.7,4.64-5.5,6.73-9.85,12.02c-1.27,1.54-0.81,2.91,1.26,2.45c7.64-1.7,9.64-2.07,18.87-4.3" transform="matrix(1,0,0,1,996,-4)" class="stroke_order_diagram--existing_path"></path><path id="pathSk2v596cn3201" kvg:type="㇔" d="M54.73,36.03c2.43,1.93,6.29,7.93,6.9,10.94" transform="matrix(1,0,0,1,996,-4)" class="stroke_order_diagram--existing_path"></path><path id="pathSk2v596cn3202" kvg:type="㇑/㇒" d="M37.98,54.51c0.69,0.7,0.96,1.49,0.96,2.43c0,0.43-0.04,20.31-0.04,30.5c0,3.32-0.01,5.63-0.02,5.94" transform="matrix(1,0,0,1,996,-4)" class="stroke_order_diagram--existing_path"></path><path id="pathSk2v596cn3203" kvg:type="㇆a" d="M39.64,55.82c1.17-0.12,10.15-1.76,13.76-2.41c2.25-0.4,3.83,0.5,3.72,3.46c-0.18,4.75-0.03,24.04-0.03,34.09c0,7.8-4.93,1.2-5.4,0.5" transform="matrix(1,0,0,1,996,-4)" class="stroke_order_diagram--existing_path"></path><path id="pathSk2v596cn3204" kvg:type="㇐a" d="M40.14,66.03c4.83-0.84,11.48-1.59,15.72-2.01" transform="matrix(1,0,0,1,996,-4)" class="stroke_order_diagram--existing_path"></path><path id="kvg:05fb9-s11" kvg:type="㇐a" d="M40.25,76.6c3.77-0.42,11.27-1.18,15.63-1.46" transform="matrix(1,0,0,1,996,-4)" class="stroke_order_diagram--current_path"></path><path id="pathSk2v596cn3206" kvg:type="㇐a" d="M40.25,76.6c3.77-0.42,11.27-1.18,15.63-1.46" transform="matrix(1,0,0,1,996,-4)" class="stroke_order_diagram--current_path"></path><circle cx="40.25" cy="76.6" r="8" class="stroke_order_diagram--path_start" transform="matrix(1,0,0,1,996,-4)"></circle><line x1="1150" x2="1150" y1="1" y2="99" class="stroke_order_diagram--guide_line"></line><line x1="1199" x2="1199" y1="1" y2="99" class="stroke_order_diagram--bounding_box"></line><path id="pathSk2v596cn3209" kvg:type="㇒" d="M27.6,16.25c0,1.04-0.65,2.02-1.18,2.86c-2.73,4.35-8.81,12.04-15.3,17.14" transform="matrix(1,0,0,1,1096,-4)" class="stroke_order_diagram--existing_path"></path><path id="pathSk2v596cn320a" kvg:type="㇒" d="M29.11,34.75c0,1.12-0.35,2.21-0.8,3.16c-2.84,6.01-9.41,15.69-19.07,25.84" transform="matrix(1,0,0,1,1096,-4)" class="stroke_order_diagram--existing_path"></path><path id="pathSk2v596cn320b" kvg:type="㇑" d="M20.97,53c0.76,0.76,0.9,1.75,0.9,2.66c0,0.41,0.02,23.76-0.03,34.84c-0.01,2.83-0.03,4.85-0.04,5.5" transform="matrix(1,0,0,1,1096,-4)" class="stroke_order_diagram--existing_path"></path><path id="pathSk2v596cn320c" kvg:type="㇑a" d="M48.05,15.82c1.06,1.06,1.17,2.05,1.17,3.58c0,1.85-0.08,5.35-0.08,7.08" transform="matrix(1,0,0,1,1096,-4)" class="stroke_order_diagram--existing_path"></path><path id="pathSk2v596cn320d" kvg:type="㇐" d="M33.47,28.65c0.8,0.09,2.61,0.06,3.4,0.01c5.63-0.41,15.17-2.43,23.69-2.7c1.32-0.04,2.56-0.21,3.72,0.14" transform="matrix(1,0,0,1,1096,-4)" class="stroke_order_diagram--existing_path"></path><path id="pathSk2v596cn320e" kvg:type="㇜" d="M48,30c0,1-0.17,1.81-0.8,2.61c-3.7,4.64-5.5,6.73-9.85,12.02c-1.27,1.54-0.81,2.91,1.26,2.45c7.64-1.7,9.64-2.07,18.87-4.3" transform="matrix(1,0,0,1,1096,-4)" class="stroke_order_diagram--existing_path"></path><path id="pathSk2v596cn320f" kvg:type="㇔" d="M54.73,36.03c2.43,1.93,6.29,7.93,6.9,10.94" transform="matrix(1,0,0,1,1096,-4)" class="stroke_order_diagram--existing_path"></path><path id="pathSk2v596cn320g" kvg:type="㇑/㇒" d="M37.98,54.51c0.69,0.7,0.96,1.49,0.96,2.43c0,0.43-0.04,20.31-0.04,30.5c0,3.32-0.01,5.63-0.02,5.94" transform="matrix(1,0,0,1,1096,-4)" class="stroke_order_diagram--existing_path"></path><path id="pathSk2v596cn320h" kvg:type="㇆a" d="M39.64,55.82c1.17-0.12,10.15-1.76,13.76-2.41c2.25-0.4,3.83,0.5,3.72,3.46c-0.18,4.75-0.03,24.04-0.03,34.09c0,7.8-4.93,1.2-5.4,0.5" transform="matrix(1,0,0,1,1096,-4)" class="stroke_order_diagram--existing_path"></path><path id="pathSk2v596cn320i" kvg:type="㇐a" d="M40.14,66.03c4.83-0.84,11.48-1.59,15.72-2.01" transform="matrix(1,0,0,1,1096,-4)" class="stroke_order_diagram--existing_path"></path><path id="pathSk2v596cn320j" kvg:type="㇐a" d="M40.25,76.6c3.77-0.42,11.27-1.18,15.63-1.46" transform="matrix(1,0,0,1,1096,-4)" class="stroke_order_diagram--existing_path"></path><path id="kvg:05fb9-s12" kvg:type="㇒" d="M76.45,16.64c0.03,0.82,0.2,2.16-0.06,3.3c-2.01,8.68-5.76,20.93-11.19,31.92" transform="matrix(1,0,0,1,1096,-4)" class="stroke_order_diagram--current_path"></path><path id="pathSk2v596cn320l" kvg:type="㇒" d="M76.45,16.64c0.03,0.82,0.2,2.16-0.06,3.3c-2.01,8.68-5.76,20.93-11.19,31.92" transform="matrix(1,0,0,1,1096,-4)" class="stroke_order_diagram--current_path"></path><circle cx="76.45" cy="16.64" r="8" class="stroke_order_diagram--path_start" transform="matrix(1,0,0,1,1096,-4)"></circle><line x1="1250" x2="1250" y1="1" y2="99" class="stroke_order_diagram--guide_line"></line><line x1="1299" x2="1299" y1="1" y2="99" class="stroke_order_diagram--bounding_box"></line><path id="pathSk2v596cn320o" kvg:type="㇒" d="M27.6,16.25c0,1.04-0.65,2.02-1.18,2.86c-2.73,4.35-8.81,12.04-15.3,17.14" transform="matrix(1,0,0,1,1196,-4)" class="stroke_order_diagram--existing_path"></path><path id="pathSk2v596cn320p" kvg:type="㇒" d="M29.11,34.75c0,1.12-0.35,2.21-0.8,3.16c-2.84,6.01-9.41,15.69-19.07,25.84" transform="matrix(1,0,0,1,1196,-4)" class="stroke_order_diagram--existing_path"></path><path id="pathSk2v596cn320q" kvg:type="㇑" d="M20.97,53c0.76,0.76,0.9,1.75,0.9,2.66c0,0.41,0.02,23.76-0.03,34.84c-0.01,2.83-0.03,4.85-0.04,5.5" transform="matrix(1,0,0,1,1196,-4)" class="stroke_order_diagram--existing_path"></path><path id="pathSk2v596cn320r" kvg:type="㇑a" d="M48.05,15.82c1.06,1.06,1.17,2.05,1.17,3.58c0,1.85-0.08,5.35-0.08,7.08" transform="matrix(1,0,0,1,1196,-4)" class="stroke_order_diagram--existing_path"></path><path id="pathSk2v596cn320s" kvg:type="㇐" d="M33.47,28.65c0.8,0.09,2.61,0.06,3.4,0.01c5.63-0.41,15.17-2.43,23.69-2.7c1.32-0.04,2.56-0.21,3.72,0.14" transform="matrix(1,0,0,1,1196,-4)" class="stroke_order_diagram--existing_path"></path><path id="pathSk2v596cn320t" kvg:type="㇜" d="M48,30c0,1-0.17,1.81-0.8,2.61c-3.7,4.64-5.5,6.73-9.85,12.02c-1.27,1.54-0.81,2.91,1.26,2.45c7.64-1.7,9.64-2.07,18.87-4.3" transform="matrix(1,0,0,1,1196,-4)" class="stroke_order_diagram--existing_path"></path><path id="pathSk2v596cn320u" kvg:type="㇔" d="M54.73,36.03c2.43,1.93,6.29,7.93,6.9,10.94" transform="matrix(1,0,0,1,1196,-4)" class="stroke_order_diagram--existing_path"></path><path id="pathSk2v596cn320v" kvg:type="㇑/㇒" d="M37.98,54.51c0.69,0.7,0.96,1.49,0.96,2.43c0,0.43-0.04,20.31-0.04,30.5c0,3.32-0.01,5.63-0.02,5.94" transform="matrix(1,0,0,1,1196,-4)" class="stroke_order_diagram--existing_path"></path><path id="pathSk2v596cn320w" kvg:type="㇆a" d="M39.64,55.82c1.17-0.12,10.15-1.76,13.76-2.41c2.25-0.4,3.83,0.5,3.72,3.46c-0.18,4.75-0.03,24.04-0.03,34.09c0,7.8-4.93,1.2-5.4,0.5" transform="matrix(1,0,0,1,1196,-4)" class="stroke_order_diagram--existing_path"></path><path id="pathSk2v596cn320x" kvg:type="㇐a" d="M40.14,66.03c4.83-0.84,11.48-1.59,15.72-2.01" transform="matrix(1,0,0,1,1196,-4)" class="stroke_order_diagram--existing_path"></path><path id="pathSk2v596cn320y" kvg:type="㇐a" d="M40.25,76.6c3.77-0.42,11.27-1.18,15.63-1.46" transform="matrix(1,0,0,1,1196,-4)" class="stroke_order_diagram--existing_path"></path><path id="pathSk2v596cn320z" kvg:type="㇒" d="M76.45,16.64c0.03,0.82,0.2,2.16-0.06,3.3c-2.01,8.68-5.76,20.93-11.19,31.92" transform="matrix(1,0,0,1,1196,-4)" class="stroke_order_diagram--existing_path"></path><path id="kvg:05fb9-s13" kvg:type="㇐" d="M74.11,39.21c0.7,0.17,2,0,2.38-0.02c3.26-0.22,10.14-1.69,14.9-2.6c0.78-0.15,2.37-0.28,3.1-0.04" transform="matrix(1,0,0,1,1196,-4)" class="stroke_order_diagram--current_path"></path><path id="pathSk2v596cn3211" kvg:type="㇐" d="M74.11,39.21c0.7,0.17,2,0,2.38-0.02c3.26-0.22,10.14-1.69,14.9-2.6c0.78-0.15,2.37-0.28,3.1-0.04" transform="matrix(1,0,0,1,1196,-4)" class="stroke_order_diagram--current_path"></path><circle cx="74.11" cy="39.21" r="8" class="stroke_order_diagram--path_start" transform="matrix(1,0,0,1,1196,-4)"></circle><line x1="1350" x2="1350" y1="1" y2="99" class="stroke_order_diagram--guide_line"></line><line x1="1399" x2="1399" y1="1" y2="99" class="stroke_order_diagram--bounding_box"></line><path id="pathSk2v596cn3214" kvg:type="㇒" d="M27.6,16.25c0,1.04-0.65,2.02-1.18,2.86c-2.73,4.35-8.81,12.04-15.3,17.14" transform="matrix(1,0,0,1,1296,-4)" class="stroke_order_diagram--existing_path"></path><path id="pathSk2v596cn3215" kvg:type="㇒" d="M29.11,34.75c0,1.12-0.35,2.21-0.8,3.16c-2.84,6.01-9.41,15.69-19.07,25.84" transform="matrix(1,0,0,1,1296,-4)" class="stroke_order_diagram--existing_path"></path><path id="pathSk2v596cn3216" kvg:type="㇑" d="M20.97,53c0.76,0.76,0.9,1.75,0.9,2.66c0,0.41,0.02,23.76-0.03,34.84c-0.01,2.83-0.03,4.85-0.04,5.5" transform="matrix(1,0,0,1,1296,-4)" class="stroke_order_diagram--existing_path"></path><path id="pathSk2v596cn3217" kvg:type="㇑a" d="M48.05,15.82c1.06,1.06,1.17,2.05,1.17,3.58c0,1.85-0.08,5.35-0.08,7.08" transform="matrix(1,0,0,1,1296,-4)" class="stroke_order_diagram--existing_path"></path><path id="pathSk2v596cn3218" kvg:type="㇐" d="M33.47,28.65c0.8,0.09,2.61,0.06,3.4,0.01c5.63-0.41,15.17-2.43,23.69-2.7c1.32-0.04,2.56-0.21,3.72,0.14" transform="matrix(1,0,0,1,1296,-4)" class="stroke_order_diagram--existing_path"></path><path id="pathSk2v596cn3219" kvg:type="㇜" d="M48,30c0,1-0.17,1.81-0.8,2.61c-3.7,4.64-5.5,6.73-9.85,12.02c-1.27,1.54-0.81,2.91,1.26,2.45c7.64-1.7,9.64-2.07,18.87-4.3" transform="matrix(1,0,0,1,1296,-4)" class="stroke_order_diagram--existing_path"></path><path id="pathSk2v596cn321a" kvg:type="㇔" d="M54.73,36.03c2.43,1.93,6.29,7.93,6.9,10.94" transform="matrix(1,0,0,1,1296,-4)" class="stroke_order_diagram--existing_path"></path><path id="pathSk2v596cn321b" kvg:type="㇑/㇒" d="M37.98,54.51c0.69,0.7,0.96,1.49,0.96,2.43c0,0.43-0.04,20.31-0.04,30.5c0,3.32-0.01,5.63-0.02,5.94" transform="matrix(1,0,0,1,1296,-4)" class="stroke_order_diagram--existing_path"></path><path id="pathSk2v596cn321c" kvg:type="㇆a" d="M39.64,55.82c1.17-0.12,10.15-1.76,13.76-2.41c2.25-0.4,3.83,0.5,3.72,3.46c-0.18,4.75-0.03,24.04-0.03,34.09c0,7.8-4.93,1.2-5.4,0.5" transform="matrix(1,0,0,1,1296,-4)" class="stroke_order_diagram--existing_path"></path><path id="pathSk2v596cn321d" kvg:type="㇐a" d="M40.14,66.03c4.83-0.84,11.48-1.59,15.72-2.01" transform="matrix(1,0,0,1,1296,-4)" class="stroke_order_diagram--existing_path"></path><path id="pathSk2v596cn321e" kvg:type="㇐a" d="M40.25,76.6c3.77-0.42,11.27-1.18,15.63-1.46" transform="matrix(1,0,0,1,1296,-4)" class="stroke_order_diagram--existing_path"></path><path id="pathSk2v596cn321f" kvg:type="㇒" d="M76.45,16.64c0.03,0.82,0.2,2.16-0.06,3.3c-2.01,8.68-5.76,20.93-11.19,31.92" transform="matrix(1,0,0,1,1296,-4)" class="stroke_order_diagram--existing_path"></path><path id="pathSk2v596cn321g" kvg:type="㇐" d="M74.11,39.21c0.7,0.17,2,0,2.38-0.02c3.26-0.22,10.14-1.69,14.9-2.6c0.78-0.15,2.37-0.28,3.1-0.04" transform="matrix(1,0,0,1,1296,-4)" class="stroke_order_diagram--existing_path"></path><path id="kvg:05fb9-s14" kvg:type="㇒" d="M84.73,41.87c0.35,1.27,0.55,2.17,0.18,4.48c-3.37,21-10.75,39.32-21.89,48.14" transform="matrix(1,0,0,1,1296,-4)" class="stroke_order_diagram--current_path"></path><path id="pathSk2v596cn321i" kvg:type="㇒" d="M84.73,41.87c0.35,1.27,0.55,2.17,0.18,4.48c-3.37,21-10.75,39.32-21.89,48.14" transform="matrix(1,0,0,1,1296,-4)" class="stroke_order_diagram--current_path"></path><circle cx="84.73" cy="41.87" r="8" class="stroke_order_diagram--path_start" transform="matrix(1,0,0,1,1296,-4)"></circle><line x1="1450" x2="1450" y1="1" y2="99" class="stroke_order_diagram--guide_line"></line><line x1="1499" x2="1499" y1="1" y2="99" class="stroke_order_diagram--bounding_box"></line><path id="pathSk2v596cn321l" kvg:type="㇒" d="M27.6,16.25c0,1.04-0.65,2.02-1.18,2.86c-2.73,4.35-8.81,12.04-15.3,17.14" transform="matrix(1,0,0,1,1396,-4)" class="stroke_order_diagram--existing_path"></path><path id="pathSk2v596cn321m" kvg:type="㇒" d="M29.11,34.75c0,1.12-0.35,2.21-0.8,3.16c-2.84,6.01-9.41,15.69-19.07,25.84" transform="matrix(1,0,0,1,1396,-4)" class="stroke_order_diagram--existing_path"></path><path id="pathSk2v596cn321n" kvg:type="㇑" d="M20.97,53c0.76,0.76,0.9,1.75,0.9,2.66c0,0.41,0.02,23.76-0.03,34.84c-0.01,2.83-0.03,4.85-0.04,5.5" transform="matrix(1,0,0,1,1396,-4)" class="stroke_order_diagram--existing_path"></path><path id="pathSk2v596cn321o" kvg:type="㇑a" d="M48.05,15.82c1.06,1.06,1.17,2.05,1.17,3.58c0,1.85-0.08,5.35-0.08,7.08" transform="matrix(1,0,0,1,1396,-4)" class="stroke_order_diagram--existing_path"></path><path id="pathSk2v596cn321p" kvg:type="㇐" d="M33.47,28.65c0.8,0.09,2.61,0.06,3.4,0.01c5.63-0.41,15.17-2.43,23.69-2.7c1.32-0.04,2.56-0.21,3.72,0.14" transform="matrix(1,0,0,1,1396,-4)" class="stroke_order_diagram--existing_path"></path><path id="pathSk2v596cn321q" kvg:type="㇜" d="M48,30c0,1-0.17,1.81-0.8,2.61c-3.7,4.64-5.5,6.73-9.85,12.02c-1.27,1.54-0.81,2.91,1.26,2.45c7.64-1.7,9.64-2.07,18.87-4.3" transform="matrix(1,0,0,1,1396,-4)" class="stroke_order_diagram--existing_path"></path><path id="pathSk2v596cn321r" kvg:type="㇔" d="M54.73,36.03c2.43,1.93,6.29,7.93,6.9,10.94" transform="matrix(1,0,0,1,1396,-4)" class="stroke_order_diagram--existing_path"></path><path id="pathSk2v596cn321s" kvg:type="㇑/㇒" d="M37.98,54.51c0.69,0.7,0.96,1.49,0.96,2.43c0,0.43-0.04,20.31-0.04,30.5c0,3.32-0.01,5.63-0.02,5.94" transform="matrix(1,0,0,1,1396,-4)" class="stroke_order_diagram--existing_path"></path><path id="pathSk2v596cn321t" kvg:type="㇆a" d="M39.64,55.82c1.17-0.12,10.15-1.76,13.76-2.41c2.25-0.4,3.83,0.5,3.72,3.46c-0.18,4.75-0.03,24.04-0.03,34.09c0,7.8-4.93,1.2-5.4,0.5" transform="matrix(1,0,0,1,1396,-4)" class="stroke_order_diagram--existing_path"></path><path id="pathSk2v596cn321u" kvg:type="㇐a" d="M40.14,66.03c4.83-0.84,11.48-1.59,15.72-2.01" transform="matrix(1,0,0,1,1396,-4)" class="stroke_order_diagram--existing_path"></path><path id="pathSk2v596cn321v" kvg:type="㇐a" d="M40.25,76.6c3.77-0.42,11.27-1.18,15.63-1.46" transform="matrix(1,0,0,1,1396,-4)" class="stroke_order_diagram--existing_path"></path><path id="pathSk2v596cn321w" kvg:type="㇒" d="M76.45,16.64c0.03,0.82,0.2,2.16-0.06,3.3c-2.01,8.68-5.76,20.93-11.19,31.92" transform="matrix(1,0,0,1,1396,-4)" class="stroke_order_diagram--existing_path"></path><path id="pathSk2v596cn321x" kvg:type="㇐" d="M74.11,39.21c0.7,0.17,2,0,2.38-0.02c3.26-0.22,10.14-1.69,14.9-2.6c0.78-0.15,2.37-0.28,3.1-0.04" transform="matrix(1,0,0,1,1396,-4)" class="stroke_order_diagram--existing_path"></path><path id="pathSk2v596cn321y" kvg:type="㇒" d="M84.73,41.87c0.35,1.27,0.55,2.17,0.18,4.48c-3.37,21-10.75,39.32-21.89,48.14" transform="matrix(1,0,0,1,1396,-4)" class="stroke_order_diagram--existing_path"></path><path id="kvg:05fb9-s15" kvg:type="㇏" d="M68.4,55.29C74.12,65,80.88,77.25,89.57,87.42c1.93,2.25,3.84,4.18,5.98,6.19" transform="matrix(1,0,0,1,1396,-4)" class="stroke_order_diagram--current_path"></path><path id="pathSk2v596cn3220" kvg:type="㇏" d="M68.4,55.29C74.12,65,80.88,77.25,89.57,87.42c1.93,2.25,3.84,4.18,5.98,6.19" transform="matrix(1,0,0,1,1396,-4)" class="stroke_order_diagram--current_path"></path><circle cx="68.4" cy="55.29" r="8" class="stroke_order_diagram--path_start" transform="matrix(1,0,0,1,1396,-4)"></circle></svg>