<svg style="width: 700px; height: 100px;" viewbox="0 0 700 100"><style>
.stroke_order_diagram--outer_container {
  width: 100%;
  overflow-x: auto;
  overflow-y: hidden;
}

.stroke_order_diagram--guide_line {
  fill: none;
  stroke: #ddd;
  stroke-width: 3;
  stroke-linecap: square;
  stroke-linejoin: square;
  stroke-dasharray:8, 8;
}

.stroke_order_diagram--bounding_box {
  fill: none;
  stroke: #ddd;
  stroke-width: 4;
  stroke-linecap: square;
  stroke-linejoin: square;
}

.stroke_order_diagram--current_path {
  fill: none;
  stroke: #000;
  stroke-width: 6;
  stroke-linecap: round;
  stroke-linejoin: round;
}

.stroke_order_diagram--existing_path {
  fill: none;
  stroke: #aaa;
  stroke-width: 6;
  stroke-linecap: round;
  stroke-linejoin:round;
}

.stroke_order_diagram--path_start {
  fill: rgba(255, 0, 0, 0.7);
  stroke:none
}</style><desc>Created with Snap</desc><defs></defs><line x1="1" x2="699" y1="1" y2="1" class="stroke_order_diagram--bounding_box"></line><line x1="1" x2="1" y1="1" y2="99" class="stroke_order_diagram--bounding_box"></line><line x1="1" x2="699" y1="99" y2="99" class="stroke_order_diagram--bounding_box"></line><line x1="0" x2="700" y1="50" y2="50" class="stroke_order_diagram--guide_line"></line><line x1="50" x2="50" y1="1" y2="99" class="stroke_order_diagram--guide_line"></line><line x1="99" x2="99" y1="1" y2="99" class="stroke_order_diagram--bounding_box"></line><path id="kvg:05feb-s1" kvg:type="㇔" d="M14.75,39.5c0,6.61-2.97,16.36-3.75,18.25" transform="matrix(1,0,0,1,-4,-4)" class="stroke_order_diagram--current_path"></path><path id="pathSk2v596cn2291" kvg:type="㇔" d="M14.75,39.5c0,6.61-2.97,16.36-3.75,18.25" transform="matrix(1,0,0,1,-4,-4)" class="stroke_order_diagram--current_path"></path><circle cx="14.75" cy="39.5" r="8" class="stroke_order_diagram--path_start" transform="matrix(1,0,0,1,-4,-4)"></circle><line x1="150" x2="150" y1="1" y2="99" class="stroke_order_diagram--guide_line"></line><line x1="199" x2="199" y1="1" y2="99" class="stroke_order_diagram--bounding_box"></line><path id="pathSk2v596cn2294" kvg:type="㇔" d="M14.75,39.5c0,6.61-2.97,16.36-3.75,18.25" transform="matrix(1,0,0,1,96,-4)" class="stroke_order_diagram--existing_path"></path><path id="kvg:05feb-s2" kvg:type="㇔" d="M30.88,36.5c2.89,1.45,7.46,5.96,8.18,8.22" transform="matrix(1,0,0,1,96,-4)" class="stroke_order_diagram--current_path"></path><path id="pathSk2v596cn2296" kvg:type="㇔" d="M30.88,36.5c2.89,1.45,7.46,5.96,8.18,8.22" transform="matrix(1,0,0,1,96,-4)" class="stroke_order_diagram--current_path"></path><circle cx="30.88" cy="36.5" r="8" class="stroke_order_diagram--path_start" transform="matrix(1,0,0,1,96,-4)"></circle><line x1="250" x2="250" y1="1" y2="99" class="stroke_order_diagram--guide_line"></line><line x1="299" x2="299" y1="1" y2="99" class="stroke_order_diagram--bounding_box"></line><path id="pathSk2v596cn2299" kvg:type="㇔" d="M14.75,39.5c0,6.61-2.97,16.36-3.75,18.25" transform="matrix(1,0,0,1,196,-4)" class="stroke_order_diagram--existing_path"></path><path id="pathSk2v596cn229a" kvg:type="㇔" d="M30.88,36.5c2.89,1.45,7.46,5.96,8.18,8.22" transform="matrix(1,0,0,1,196,-4)" class="stroke_order_diagram--existing_path"></path><path id="kvg:05feb-s3" kvg:type="㇑" d="M23.87,14.75c0.88,0.88,1.46,2.62,1.46,4c0,0.84-0.15,47.34-0.2,67.88c-0.01,4.35-0.02,7.54-0.02,8.88" transform="matrix(1,0,0,1,196,-4)" class="stroke_order_diagram--current_path"></path><path id="pathSk2v596cn229c" kvg:type="㇑" d="M23.87,14.75c0.88,0.88,1.46,2.62,1.46,4c0,0.84-0.15,47.34-0.2,67.88c-0.01,4.35-0.02,7.54-0.02,8.88" transform="matrix(1,0,0,1,196,-4)" class="stroke_order_diagram--current_path"></path><circle cx="23.87" cy="14.75" r="8" class="stroke_order_diagram--path_start" transform="matrix(1,0,0,1,196,-4)"></circle><line x1="350" x2="350" y1="1" y2="99" class="stroke_order_diagram--guide_line"></line><line x1="399" x2="399" y1="1" y2="99" class="stroke_order_diagram--bounding_box"></line><path id="pathSk2v596cn229f" kvg:type="㇔" d="M14.75,39.5c0,6.61-2.97,16.36-3.75,18.25" transform="matrix(1,0,0,1,296,-4)" class="stroke_order_diagram--existing_path"></path><path id="pathSk2v596cn229g" kvg:type="㇔" d="M30.88,36.5c2.89,1.45,7.46,5.96,8.18,8.22" transform="matrix(1,0,0,1,296,-4)" class="stroke_order_diagram--existing_path"></path><path id="pathSk2v596cn229h" kvg:type="㇑" d="M23.87,14.75c0.88,0.88,1.46,2.62,1.46,4c0,0.84-0.15,47.34-0.2,67.88c-0.01,4.35-0.02,7.54-0.02,8.88" transform="matrix(1,0,0,1,296,-4)" class="stroke_order_diagram--existing_path"></path><path id="kvg:05feb-s4" kvg:type="㇕c" d="M45.81,36.01c1.21,0.6,3.37,1.02,5.18,0.76c8.64-1.27,24.15-4.36,26.52-4.72c4.02-0.6,5.28,1.1,4.68,4.12c-0.6,3.02-2.76,14.72-2.96,17.14" transform="matrix(1,0,0,1,296,-4)" class="stroke_order_diagram--current_path"></path><path id="pathSk2v596cn229j" kvg:type="㇕c" d="M45.81,36.01c1.21,0.6,3.37,1.02,5.18,0.76c8.64-1.27,24.15-4.36,26.52-4.72c4.02-0.6,5.28,1.1,4.68,4.12c-0.6,3.02-2.76,14.72-2.96,17.14" transform="matrix(1,0,0,1,296,-4)" class="stroke_order_diagram--current_path"></path><circle cx="45.81" cy="36.01" r="8" class="stroke_order_diagram--path_start" transform="matrix(1,0,0,1,296,-4)"></circle><line x1="450" x2="450" y1="1" y2="99" class="stroke_order_diagram--guide_line"></line><line x1="499" x2="499" y1="1" y2="99" class="stroke_order_diagram--bounding_box"></line><path id="pathSk2v596cn229m" kvg:type="㇔" d="M14.75,39.5c0,6.61-2.97,16.36-3.75,18.25" transform="matrix(1,0,0,1,396,-4)" class="stroke_order_diagram--existing_path"></path><path id="pathSk2v596cn229n" kvg:type="㇔" d="M30.88,36.5c2.89,1.45,7.46,5.96,8.18,8.22" transform="matrix(1,0,0,1,396,-4)" class="stroke_order_diagram--existing_path"></path><path id="pathSk2v596cn229o" kvg:type="㇑" d="M23.87,14.75c0.88,0.88,1.46,2.62,1.46,4c0,0.84-0.15,47.34-0.2,67.88c-0.01,4.35-0.02,7.54-0.02,8.88" transform="matrix(1,0,0,1,396,-4)" class="stroke_order_diagram--existing_path"></path><path id="pathSk2v596cn229p" kvg:type="㇕c" d="M45.81,36.01c1.21,0.6,3.37,1.02,5.18,0.76c8.64-1.27,24.15-4.36,26.52-4.72c4.02-0.6,5.28,1.1,4.68,4.12c-0.6,3.02-2.76,14.72-2.96,17.14" transform="matrix(1,0,0,1,396,-4)" class="stroke_order_diagram--existing_path"></path><path id="kvg:05feb-s5" kvg:type="㇐" d="M35.95,57.85c2.55,1.15,6.28,0.65,8.92,0.26c11.63-1.74,27.45-3.58,41.14-4.72c3.34-0.28,6.4-0.5,9.69,0.33" transform="matrix(1,0,0,1,396,-4)" class="stroke_order_diagram--current_path"></path><path id="pathSk2v596cn229r" kvg:type="㇐" d="M35.95,57.85c2.55,1.15,6.28,0.65,8.92,0.26c11.63-1.74,27.45-3.58,41.14-4.72c3.34-0.28,6.4-0.5,9.69,0.33" transform="matrix(1,0,0,1,396,-4)" class="stroke_order_diagram--current_path"></path><circle cx="35.95" cy="57.85" r="8" class="stroke_order_diagram--path_start" transform="matrix(1,0,0,1,396,-4)"></circle><line x1="550" x2="550" y1="1" y2="99" class="stroke_order_diagram--guide_line"></line><line x1="599" x2="599" y1="1" y2="99" class="stroke_order_diagram--bounding_box"></line><path id="pathSk2v596cn229u" kvg:type="㇔" d="M14.75,39.5c0,6.61-2.97,16.36-3.75,18.25" transform="matrix(1,0,0,1,496,-4)" class="stroke_order_diagram--existing_path"></path><path id="pathSk2v596cn229v" kvg:type="㇔" d="M30.88,36.5c2.89,1.45,7.46,5.96,8.18,8.22" transform="matrix(1,0,0,1,496,-4)" class="stroke_order_diagram--existing_path"></path><path id="pathSk2v596cn229w" kvg:type="㇑" d="M23.87,14.75c0.88,0.88,1.46,2.62,1.46,4c0,0.84-0.15,47.34-0.2,67.88c-0.01,4.35-0.02,7.54-0.02,8.88" transform="matrix(1,0,0,1,496,-4)" class="stroke_order_diagram--existing_path"></path><path id="pathSk2v596cn229x" kvg:type="㇕c" d="M45.81,36.01c1.21,0.6,3.37,1.02,5.18,0.76c8.64-1.27,24.15-4.36,26.52-4.72c4.02-0.6,5.28,1.1,4.68,4.12c-0.6,3.02-2.76,14.72-2.96,17.14" transform="matrix(1,0,0,1,496,-4)" class="stroke_order_diagram--existing_path"></path><path id="pathSk2v596cn229y" kvg:type="㇐" d="M35.95,57.85c2.55,1.15,6.28,0.65,8.92,0.26c11.63-1.74,27.45-3.58,41.14-4.72c3.34-0.28,6.4-0.5,9.69,0.33" transform="matrix(1,0,0,1,496,-4)" class="stroke_order_diagram--existing_path"></path><path id="kvg:05feb-s6" kvg:type="㇒" d="M61.97,14.25c0.83,0.83,1.04,2.52,1.13,4.54C65.38,74,52.62,82.25,34.01,94.75" transform="matrix(1,0,0,1,496,-4)" class="stroke_order_diagram--current_path"></path><path id="pathSk2v596cn22a0" kvg:type="㇒" d="M61.97,14.25c0.83,0.83,1.04,2.52,1.13,4.54C65.38,74,52.62,82.25,34.01,94.75" transform="matrix(1,0,0,1,496,-4)" class="stroke_order_diagram--current_path"></path><circle cx="61.97" cy="14.25" r="8" class="stroke_order_diagram--path_start" transform="matrix(1,0,0,1,496,-4)"></circle><line x1="650" x2="650" y1="1" y2="99" class="stroke_order_diagram--guide_line"></line><line x1="699" x2="699" y1="1" y2="99" class="stroke_order_diagram--bounding_box"></line><path id="pathSk2v596cn22a3" kvg:type="㇔" d="M14.75,39.5c0,6.61-2.97,16.36-3.75,18.25" transform="matrix(1,0,0,1,596,-4)" class="stroke_order_diagram--existing_path"></path><path id="pathSk2v596cn22a4" kvg:type="㇔" d="M30.88,36.5c2.89,1.45,7.46,5.96,8.18,8.22" transform="matrix(1,0,0,1,596,-4)" class="stroke_order_diagram--existing_path"></path><path id="pathSk2v596cn22a5" kvg:type="㇑" d="M23.87,14.75c0.88,0.88,1.46,2.62,1.46,4c0,0.84-0.15,47.34-0.2,67.88c-0.01,4.35-0.02,7.54-0.02,8.88" transform="matrix(1,0,0,1,596,-4)" class="stroke_order_diagram--existing_path"></path><path id="pathSk2v596cn22a6" kvg:type="㇕c" d="M45.81,36.01c1.21,0.6,3.37,1.02,5.18,0.76c8.64-1.27,24.15-4.36,26.52-4.72c4.02-0.6,5.28,1.1,4.68,4.12c-0.6,3.02-2.76,14.72-2.96,17.14" transform="matrix(1,0,0,1,596,-4)" class="stroke_order_diagram--existing_path"></path><path id="pathSk2v596cn22a7" kvg:type="㇐" d="M35.95,57.85c2.55,1.15,6.28,0.65,8.92,0.26c11.63-1.74,27.45-3.58,41.14-4.72c3.34-0.28,6.4-0.5,9.69,0.33" transform="matrix(1,0,0,1,596,-4)" class="stroke_order_diagram--existing_path"></path><path id="pathSk2v596cn22a8" kvg:type="㇒" d="M61.97,14.25c0.83,0.83,1.04,2.52,1.13,4.54C65.38,74,52.62,82.25,34.01,94.75" transform="matrix(1,0,0,1,596,-4)" class="stroke_order_diagram--existing_path"></path><path id="kvg:05feb-s7" kvg:type="㇏" d="M62.55,56.56c6.09,7.38,17.41,23.75,25.66,31.31c1.97,1.8,4.41,3.76,7.09,5.04" transform="matrix(1,0,0,1,596,-4)" class="stroke_order_diagram--current_path"></path><path id="pathSk2v596cn22aa" kvg:type="㇏" d="M62.55,56.56c6.09,7.38,17.41,23.75,25.66,31.31c1.97,1.8,4.41,3.76,7.09,5.04" transform="matrix(1,0,0,1,596,-4)" class="stroke_order_diagram--current_path"></path><circle cx="62.55" cy="56.56" r="8" class="stroke_order_diagram--path_start" transform="matrix(1,0,0,1,596,-4)"></circle></svg>