<svg style="width: 1100px; height: 100px;" viewbox="0 0 1100 100"><style>
.stroke_order_diagram--outer_container {
  width: 100%;
  overflow-x: auto;
  overflow-y: hidden;
}

.stroke_order_diagram--guide_line {
  fill: none;
  stroke: #ddd;
  stroke-width: 3;
  stroke-linecap: square;
  stroke-linejoin: square;
  stroke-dasharray:8, 8;
}

.stroke_order_diagram--bounding_box {
  fill: none;
  stroke: #ddd;
  stroke-width: 4;
  stroke-linecap: square;
  stroke-linejoin: square;
}

.stroke_order_diagram--current_path {
  fill: none;
  stroke: #000;
  stroke-width: 6;
  stroke-linecap: round;
  stroke-linejoin: round;
}

.stroke_order_diagram--existing_path {
  fill: none;
  stroke: #aaa;
  stroke-width: 6;
  stroke-linecap: round;
  stroke-linejoin:round;
}

.stroke_order_diagram--path_start {
  fill: rgba(255, 0, 0, 0.7);
  stroke:none
}</style><desc>Created with Snap</desc><defs></defs><line x1="1" x2="1099" y1="1" y2="1" class="stroke_order_diagram--bounding_box"></line><line x1="1" x2="1" y1="1" y2="99" class="stroke_order_diagram--bounding_box"></line><line x1="1" x2="1099" y1="99" y2="99" class="stroke_order_diagram--bounding_box"></line><line x1="0" x2="1100" y1="50" y2="50" class="stroke_order_diagram--guide_line"></line><line x1="50" x2="50" y1="1" y2="99" class="stroke_order_diagram--guide_line"></line><line x1="99" x2="99" y1="1" y2="99" class="stroke_order_diagram--bounding_box"></line><path id="kvg:060a0-s1" kvg:type="㇒" d="M36.51,12.13c0.23,1.53-0.31,2.54-1.05,3.86c-4.71,8.38-10.92,17.25-21.71,27.44" transform="matrix(1,0,0,1,-4,-4)" class="stroke_order_diagram--current_path"></path><path id="pathSk2v596cn4b0j" kvg:type="㇒" d="M36.51,12.13c0.23,1.53-0.31,2.54-1.05,3.86c-4.71,8.38-10.92,17.25-21.71,27.44" transform="matrix(1,0,0,1,-4,-4)" class="stroke_order_diagram--current_path"></path><circle cx="36.51" cy="12.13" r="8" class="stroke_order_diagram--path_start" transform="matrix(1,0,0,1,-4,-4)"></circle><line x1="150" x2="150" y1="1" y2="99" class="stroke_order_diagram--guide_line"></line><line x1="199" x2="199" y1="1" y2="99" class="stroke_order_diagram--bounding_box"></line><path id="pathSk2v596cn4b0m" kvg:type="㇒" d="M36.51,12.13c0.23,1.53-0.31,2.54-1.05,3.86c-4.71,8.38-10.92,17.25-21.71,27.44" transform="matrix(1,0,0,1,96,-4)" class="stroke_order_diagram--existing_path"></path><path id="kvg:060a0-s2" kvg:type="㇑" d="M28.03,31.49c0.8,0.8,1.05,1.76,1.05,2.99c0,3.39-0.01,16.39-0.01,24.27c0,2-0.08,3.84-0.08,5.5" transform="matrix(1,0,0,1,96,-4)" class="stroke_order_diagram--current_path"></path><path id="pathSk2v596cn4b0o" kvg:type="㇑" d="M28.03,31.49c0.8,0.8,1.05,1.76,1.05,2.99c0,3.39-0.01,16.39-0.01,24.27c0,2-0.08,3.84-0.08,5.5" transform="matrix(1,0,0,1,96,-4)" class="stroke_order_diagram--current_path"></path><circle cx="28.03" cy="31.49" r="8" class="stroke_order_diagram--path_start" transform="matrix(1,0,0,1,96,-4)"></circle><line x1="250" x2="250" y1="1" y2="99" class="stroke_order_diagram--guide_line"></line><line x1="299" x2="299" y1="1" y2="99" class="stroke_order_diagram--bounding_box"></line><path id="pathSk2v596cn4b0r" kvg:type="㇒" d="M36.51,12.13c0.23,1.53-0.31,2.54-1.05,3.86c-4.71,8.38-10.92,17.25-21.71,27.44" transform="matrix(1,0,0,1,196,-4)" class="stroke_order_diagram--existing_path"></path><path id="pathSk2v596cn4b0s" kvg:type="㇑" d="M28.03,31.49c0.8,0.8,1.05,1.76,1.05,2.99c0,3.39-0.01,16.39-0.01,24.27c0,2-0.08,3.84-0.08,5.5" transform="matrix(1,0,0,1,196,-4)" class="stroke_order_diagram--existing_path"></path><path id="kvg:060a0-s3" kvg:type="㇑" d="M43.02,23.39c0.86,0.86,1.26,1.99,1.26,4.04c0,6.31,0.08,12.57,0.08,19.32c0,2.99-0.1,5.33-0.1,6.43" transform="matrix(1,0,0,1,196,-4)" class="stroke_order_diagram--current_path"></path><path id="pathSk2v596cn4b0u" kvg:type="㇑" d="M43.02,23.39c0.86,0.86,1.26,1.99,1.26,4.04c0,6.31,0.08,12.57,0.08,19.32c0,2.99-0.1,5.33-0.1,6.43" transform="matrix(1,0,0,1,196,-4)" class="stroke_order_diagram--current_path"></path><circle cx="43.02" cy="23.39" r="8" class="stroke_order_diagram--path_start" transform="matrix(1,0,0,1,196,-4)"></circle><line x1="350" x2="350" y1="1" y2="99" class="stroke_order_diagram--guide_line"></line><line x1="399" x2="399" y1="1" y2="99" class="stroke_order_diagram--bounding_box"></line><path id="pathSk2v596cn4b0x" kvg:type="㇒" d="M36.51,12.13c0.23,1.53-0.31,2.54-1.05,3.86c-4.71,8.38-10.92,17.25-21.71,27.44" transform="matrix(1,0,0,1,296,-4)" class="stroke_order_diagram--existing_path"></path><path id="pathSk2v596cn4b0y" kvg:type="㇑" d="M28.03,31.49c0.8,0.8,1.05,1.76,1.05,2.99c0,3.39-0.01,16.39-0.01,24.27c0,2-0.08,3.84-0.08,5.5" transform="matrix(1,0,0,1,296,-4)" class="stroke_order_diagram--existing_path"></path><path id="pathSk2v596cn4b0z" kvg:type="㇑" d="M43.02,23.39c0.86,0.86,1.26,1.99,1.26,4.04c0,6.31,0.08,12.57,0.08,19.32c0,2.99-0.1,5.33-0.1,6.43" transform="matrix(1,0,0,1,296,-4)" class="stroke_order_diagram--existing_path"></path><path id="kvg:060a0-s4" kvg:type="㇒" d="M66.35,10.89c0.04,0.58-0.03,1.79-0.32,2.59c-1.89,5.13-6.5,15.76-13.03,22.85" transform="matrix(1,0,0,1,296,-4)" class="stroke_order_diagram--current_path"></path><path id="pathSk2v596cn4b11" kvg:type="㇒" d="M66.35,10.89c0.04,0.58-0.03,1.79-0.32,2.59c-1.89,5.13-6.5,15.76-13.03,22.85" transform="matrix(1,0,0,1,296,-4)" class="stroke_order_diagram--current_path"></path><circle cx="66.35" cy="10.89" r="8" class="stroke_order_diagram--path_start" transform="matrix(1,0,0,1,296,-4)"></circle><line x1="450" x2="450" y1="1" y2="99" class="stroke_order_diagram--guide_line"></line><line x1="499" x2="499" y1="1" y2="99" class="stroke_order_diagram--bounding_box"></line><path id="pathSk2v596cn4b14" kvg:type="㇒" d="M36.51,12.13c0.23,1.53-0.31,2.54-1.05,3.86c-4.71,8.38-10.92,17.25-21.71,27.44" transform="matrix(1,0,0,1,396,-4)" class="stroke_order_diagram--existing_path"></path><path id="pathSk2v596cn4b15" kvg:type="㇑" d="M28.03,31.49c0.8,0.8,1.05,1.76,1.05,2.99c0,3.39-0.01,16.39-0.01,24.27c0,2-0.08,3.84-0.08,5.5" transform="matrix(1,0,0,1,396,-4)" class="stroke_order_diagram--existing_path"></path><path id="pathSk2v596cn4b16" kvg:type="㇑" d="M43.02,23.39c0.86,0.86,1.26,1.99,1.26,4.04c0,6.31,0.08,12.57,0.08,19.32c0,2.99-0.1,5.33-0.1,6.43" transform="matrix(1,0,0,1,396,-4)" class="stroke_order_diagram--existing_path"></path><path id="pathSk2v596cn4b17" kvg:type="㇒" d="M66.35,10.89c0.04,0.58-0.03,1.79-0.32,2.59c-1.89,5.13-6.5,15.76-13.03,22.85" transform="matrix(1,0,0,1,396,-4)" class="stroke_order_diagram--existing_path"></path><path id="kvg:060a0-s5" kvg:type="㇐" d="M65.22,22.86c-0.08,0.29,4.31,0.14,4.14,0.16c4.74-0.48,8.51-1.68,15.4-2.28c1.43-0.12,3.21-0.49,4.63-0.13" transform="matrix(1,0,0,1,396,-4)" class="stroke_order_diagram--current_path"></path><path id="pathSk2v596cn4b19" kvg:type="㇐" d="M65.22,22.86c-0.08,0.29,4.31,0.14,4.14,0.16c4.74-0.48,8.51-1.68,15.4-2.28c1.43-0.12,3.21-0.49,4.63-0.13" transform="matrix(1,0,0,1,396,-4)" class="stroke_order_diagram--current_path"></path><circle cx="65.22" cy="22.86" r="8" class="stroke_order_diagram--path_start" transform="matrix(1,0,0,1,396,-4)"></circle><line x1="550" x2="550" y1="1" y2="99" class="stroke_order_diagram--guide_line"></line><line x1="599" x2="599" y1="1" y2="99" class="stroke_order_diagram--bounding_box"></line><path id="pathSk2v596cn4b1c" kvg:type="㇒" d="M36.51,12.13c0.23,1.53-0.31,2.54-1.05,3.86c-4.71,8.38-10.92,17.25-21.71,27.44" transform="matrix(1,0,0,1,496,-4)" class="stroke_order_diagram--existing_path"></path><path id="pathSk2v596cn4b1d" kvg:type="㇑" d="M28.03,31.49c0.8,0.8,1.05,1.76,1.05,2.99c0,3.39-0.01,16.39-0.01,24.27c0,2-0.08,3.84-0.08,5.5" transform="matrix(1,0,0,1,496,-4)" class="stroke_order_diagram--existing_path"></path><path id="pathSk2v596cn4b1e" kvg:type="㇑" d="M43.02,23.39c0.86,0.86,1.26,1.99,1.26,4.04c0,6.31,0.08,12.57,0.08,19.32c0,2.99-0.1,5.33-0.1,6.43" transform="matrix(1,0,0,1,496,-4)" class="stroke_order_diagram--existing_path"></path><path id="pathSk2v596cn4b1f" kvg:type="㇒" d="M66.35,10.89c0.04,0.58-0.03,1.79-0.32,2.59c-1.89,5.13-6.5,15.76-13.03,22.85" transform="matrix(1,0,0,1,496,-4)" class="stroke_order_diagram--existing_path"></path><path id="pathSk2v596cn4b1g" kvg:type="㇐" d="M65.22,22.86c-0.08,0.29,4.31,0.14,4.14,0.16c4.74-0.48,8.51-1.68,15.4-2.28c1.43-0.12,3.21-0.49,4.63-0.13" transform="matrix(1,0,0,1,496,-4)" class="stroke_order_diagram--existing_path"></path><path id="kvg:060a0-s6" kvg:type="㇒" d="M79.91,25.49c0.34,1.13,0.16,2.13-0.53,3.71C73,43.75,66.88,51.25,52.37,61.85" transform="matrix(1,0,0,1,496,-4)" class="stroke_order_diagram--current_path"></path><path id="pathSk2v596cn4b1i" kvg:type="㇒" d="M79.91,25.49c0.34,1.13,0.16,2.13-0.53,3.71C73,43.75,66.88,51.25,52.37,61.85" transform="matrix(1,0,0,1,496,-4)" class="stroke_order_diagram--current_path"></path><circle cx="79.91" cy="25.49" r="8" class="stroke_order_diagram--path_start" transform="matrix(1,0,0,1,496,-4)"></circle><line x1="650" x2="650" y1="1" y2="99" class="stroke_order_diagram--guide_line"></line><line x1="699" x2="699" y1="1" y2="99" class="stroke_order_diagram--bounding_box"></line><path id="pathSk2v596cn4b1l" kvg:type="㇒" d="M36.51,12.13c0.23,1.53-0.31,2.54-1.05,3.86c-4.71,8.38-10.92,17.25-21.71,27.44" transform="matrix(1,0,0,1,596,-4)" class="stroke_order_diagram--existing_path"></path><path id="pathSk2v596cn4b1m" kvg:type="㇑" d="M28.03,31.49c0.8,0.8,1.05,1.76,1.05,2.99c0,3.39-0.01,16.39-0.01,24.27c0,2-0.08,3.84-0.08,5.5" transform="matrix(1,0,0,1,596,-4)" class="stroke_order_diagram--existing_path"></path><path id="pathSk2v596cn4b1n" kvg:type="㇑" d="M43.02,23.39c0.86,0.86,1.26,1.99,1.26,4.04c0,6.31,0.08,12.57,0.08,19.32c0,2.99-0.1,5.33-0.1,6.43" transform="matrix(1,0,0,1,596,-4)" class="stroke_order_diagram--existing_path"></path><path id="pathSk2v596cn4b1o" kvg:type="㇒" d="M66.35,10.89c0.04,0.58-0.03,1.79-0.32,2.59c-1.89,5.13-6.5,15.76-13.03,22.85" transform="matrix(1,0,0,1,596,-4)" class="stroke_order_diagram--existing_path"></path><path id="pathSk2v596cn4b1p" kvg:type="㇐" d="M65.22,22.86c-0.08,0.29,4.31,0.14,4.14,0.16c4.74-0.48,8.51-1.68,15.4-2.28c1.43-0.12,3.21-0.49,4.63-0.13" transform="matrix(1,0,0,1,596,-4)" class="stroke_order_diagram--existing_path"></path><path id="pathSk2v596cn4b1q" kvg:type="㇒" d="M79.91,25.49c0.34,1.13,0.16,2.13-0.53,3.71C73,43.75,66.88,51.25,52.37,61.85" transform="matrix(1,0,0,1,596,-4)" class="stroke_order_diagram--existing_path"></path><path id="kvg:060a0-s7" kvg:type="㇏" d="M60.25,34.78c2.62,0.19,15.06,12.92,25.33,19.42c2.55,1.61,5.17,3.17,8.42,4.18" transform="matrix(1,0,0,1,596,-4)" class="stroke_order_diagram--current_path"></path><path id="pathSk2v596cn4b1s" kvg:type="㇏" d="M60.25,34.78c2.62,0.19,15.06,12.92,25.33,19.42c2.55,1.61,5.17,3.17,8.42,4.18" transform="matrix(1,0,0,1,596,-4)" class="stroke_order_diagram--current_path"></path><circle cx="60.25" cy="34.78" r="8" class="stroke_order_diagram--path_start" transform="matrix(1,0,0,1,596,-4)"></circle><line x1="750" x2="750" y1="1" y2="99" class="stroke_order_diagram--guide_line"></line><line x1="799" x2="799" y1="1" y2="99" class="stroke_order_diagram--bounding_box"></line><path id="pathSk2v596cn4b1v" kvg:type="㇒" d="M36.51,12.13c0.23,1.53-0.31,2.54-1.05,3.86c-4.71,8.38-10.92,17.25-21.71,27.44" transform="matrix(1,0,0,1,696,-4)" class="stroke_order_diagram--existing_path"></path><path id="pathSk2v596cn4b1w" kvg:type="㇑" d="M28.03,31.49c0.8,0.8,1.05,1.76,1.05,2.99c0,3.39-0.01,16.39-0.01,24.27c0,2-0.08,3.84-0.08,5.5" transform="matrix(1,0,0,1,696,-4)" class="stroke_order_diagram--existing_path"></path><path id="pathSk2v596cn4b1x" kvg:type="㇑" d="M43.02,23.39c0.86,0.86,1.26,1.99,1.26,4.04c0,6.31,0.08,12.57,0.08,19.32c0,2.99-0.1,5.33-0.1,6.43" transform="matrix(1,0,0,1,696,-4)" class="stroke_order_diagram--existing_path"></path><path id="pathSk2v596cn4b1y" kvg:type="㇒" d="M66.35,10.89c0.04,0.58-0.03,1.79-0.32,2.59c-1.89,5.13-6.5,15.76-13.03,22.85" transform="matrix(1,0,0,1,696,-4)" class="stroke_order_diagram--existing_path"></path><path id="pathSk2v596cn4b1z" kvg:type="㇐" d="M65.22,22.86c-0.08,0.29,4.31,0.14,4.14,0.16c4.74-0.48,8.51-1.68,15.4-2.28c1.43-0.12,3.21-0.49,4.63-0.13" transform="matrix(1,0,0,1,696,-4)" class="stroke_order_diagram--existing_path"></path><path id="pathSk2v596cn4b20" kvg:type="㇒" d="M79.91,25.49c0.34,1.13,0.16,2.13-0.53,3.71C73,43.75,66.88,51.25,52.37,61.85" transform="matrix(1,0,0,1,696,-4)" class="stroke_order_diagram--existing_path"></path><path id="pathSk2v596cn4b21" kvg:type="㇏" d="M60.25,34.78c2.62,0.19,15.06,12.92,25.33,19.42c2.55,1.61,5.17,3.17,8.42,4.18" transform="matrix(1,0,0,1,696,-4)" class="stroke_order_diagram--existing_path"></path><path id="kvg:060a0-s8" kvg:type="㇔" d="M23,78.25c0.34,2.26-3.43,12.22-6.17,15.99" transform="matrix(1,0,0,1,696,-4)" class="stroke_order_diagram--current_path"></path><path id="pathSk2v596cn4b23" kvg:type="㇔" d="M23,78.25c0.34,2.26-3.43,12.22-6.17,15.99" transform="matrix(1,0,0,1,696,-4)" class="stroke_order_diagram--current_path"></path><circle cx="23" cy="78.25" r="8" class="stroke_order_diagram--path_start" transform="matrix(1,0,0,1,696,-4)"></circle><line x1="850" x2="850" y1="1" y2="99" class="stroke_order_diagram--guide_line"></line><line x1="899" x2="899" y1="1" y2="99" class="stroke_order_diagram--bounding_box"></line><path id="pathSk2v596cn4b26" kvg:type="㇒" d="M36.51,12.13c0.23,1.53-0.31,2.54-1.05,3.86c-4.71,8.38-10.92,17.25-21.71,27.44" transform="matrix(1,0,0,1,796,-4)" class="stroke_order_diagram--existing_path"></path><path id="pathSk2v596cn4b27" kvg:type="㇑" d="M28.03,31.49c0.8,0.8,1.05,1.76,1.05,2.99c0,3.39-0.01,16.39-0.01,24.27c0,2-0.08,3.84-0.08,5.5" transform="matrix(1,0,0,1,796,-4)" class="stroke_order_diagram--existing_path"></path><path id="pathSk2v596cn4b28" kvg:type="㇑" d="M43.02,23.39c0.86,0.86,1.26,1.99,1.26,4.04c0,6.31,0.08,12.57,0.08,19.32c0,2.99-0.1,5.33-0.1,6.43" transform="matrix(1,0,0,1,796,-4)" class="stroke_order_diagram--existing_path"></path><path id="pathSk2v596cn4b29" kvg:type="㇒" d="M66.35,10.89c0.04,0.58-0.03,1.79-0.32,2.59c-1.89,5.13-6.5,15.76-13.03,22.85" transform="matrix(1,0,0,1,796,-4)" class="stroke_order_diagram--existing_path"></path><path id="pathSk2v596cn4b2a" kvg:type="㇐" d="M65.22,22.86c-0.08,0.29,4.31,0.14,4.14,0.16c4.74-0.48,8.51-1.68,15.4-2.28c1.43-0.12,3.21-0.49,4.63-0.13" transform="matrix(1,0,0,1,796,-4)" class="stroke_order_diagram--existing_path"></path><path id="pathSk2v596cn4b2b" kvg:type="㇒" d="M79.91,25.49c0.34,1.13,0.16,2.13-0.53,3.71C73,43.75,66.88,51.25,52.37,61.85" transform="matrix(1,0,0,1,796,-4)" class="stroke_order_diagram--existing_path"></path><path id="pathSk2v596cn4b2c" kvg:type="㇏" d="M60.25,34.78c2.62,0.19,15.06,12.92,25.33,19.42c2.55,1.61,5.17,3.17,8.42,4.18" transform="matrix(1,0,0,1,796,-4)" class="stroke_order_diagram--existing_path"></path><path id="pathSk2v596cn4b2d" kvg:type="㇔" d="M23,78.25c0.34,2.26-3.43,12.22-6.17,15.99" transform="matrix(1,0,0,1,796,-4)" class="stroke_order_diagram--existing_path"></path><path id="kvg:060a0-s9" kvg:type="㇟b" d="M32.08,72c7.4,13.66,18.84,25.26,47.35,25.43c13.76,0.08,14.91-3.89,3.43-10.11" transform="matrix(1,0,0,1,796,-4)" class="stroke_order_diagram--current_path"></path><path id="pathSk2v596cn4b2f" kvg:type="㇟b" d="M32.08,72c7.4,13.66,18.84,25.26,47.35,25.43c13.76,0.08,14.91-3.89,3.43-10.11" transform="matrix(1,0,0,1,796,-4)" class="stroke_order_diagram--current_path"></path><circle cx="32.08" cy="72" r="8" class="stroke_order_diagram--path_start" transform="matrix(1,0,0,1,796,-4)"></circle><line x1="950" x2="950" y1="1" y2="99" class="stroke_order_diagram--guide_line"></line><line x1="999" x2="999" y1="1" y2="99" class="stroke_order_diagram--bounding_box"></line><path id="pathSk2v596cn4b2i" kvg:type="㇒" d="M36.51,12.13c0.23,1.53-0.31,2.54-1.05,3.86c-4.71,8.38-10.92,17.25-21.71,27.44" transform="matrix(1,0,0,1,896,-4)" class="stroke_order_diagram--existing_path"></path><path id="pathSk2v596cn4b2j" kvg:type="㇑" d="M28.03,31.49c0.8,0.8,1.05,1.76,1.05,2.99c0,3.39-0.01,16.39-0.01,24.27c0,2-0.08,3.84-0.08,5.5" transform="matrix(1,0,0,1,896,-4)" class="stroke_order_diagram--existing_path"></path><path id="pathSk2v596cn4b2k" kvg:type="㇑" d="M43.02,23.39c0.86,0.86,1.26,1.99,1.26,4.04c0,6.31,0.08,12.57,0.08,19.32c0,2.99-0.1,5.33-0.1,6.43" transform="matrix(1,0,0,1,896,-4)" class="stroke_order_diagram--existing_path"></path><path id="pathSk2v596cn4b2l" kvg:type="㇒" d="M66.35,10.89c0.04,0.58-0.03,1.79-0.32,2.59c-1.89,5.13-6.5,15.76-13.03,22.85" transform="matrix(1,0,0,1,896,-4)" class="stroke_order_diagram--existing_path"></path><path id="pathSk2v596cn4b2m" kvg:type="㇐" d="M65.22,22.86c-0.08,0.29,4.31,0.14,4.14,0.16c4.74-0.48,8.51-1.68,15.4-2.28c1.43-0.12,3.21-0.49,4.63-0.13" transform="matrix(1,0,0,1,896,-4)" class="stroke_order_diagram--existing_path"></path><path id="pathSk2v596cn4b2n" kvg:type="㇒" d="M79.91,25.49c0.34,1.13,0.16,2.13-0.53,3.71C73,43.75,66.88,51.25,52.37,61.85" transform="matrix(1,0,0,1,896,-4)" class="stroke_order_diagram--existing_path"></path><path id="pathSk2v596cn4b2o" kvg:type="㇏" d="M60.25,34.78c2.62,0.19,15.06,12.92,25.33,19.42c2.55,1.61,5.17,3.17,8.42,4.18" transform="matrix(1,0,0,1,896,-4)" class="stroke_order_diagram--existing_path"></path><path id="pathSk2v596cn4b2p" kvg:type="㇔" d="M23,78.25c0.34,2.26-3.43,12.22-6.17,15.99" transform="matrix(1,0,0,1,896,-4)" class="stroke_order_diagram--existing_path"></path><path id="pathSk2v596cn4b2q" kvg:type="㇟b" d="M32.08,72c7.4,13.66,18.84,25.26,47.35,25.43c13.76,0.08,14.91-3.89,3.43-10.11" transform="matrix(1,0,0,1,896,-4)" class="stroke_order_diagram--existing_path"></path><path id="kvg:060a0-s10" kvg:type="㇔a" d="M52.91,70c2.06,5.25,5.06,10.5,7.26,2.46" transform="matrix(1,0,0,1,896,-4)" class="stroke_order_diagram--current_path"></path><path id="pathSk2v596cn4b2s" kvg:type="㇔a" d="M52.91,70c2.06,5.25,5.06,10.5,7.26,2.46" transform="matrix(1,0,0,1,896,-4)" class="stroke_order_diagram--current_path"></path><circle cx="52.91" cy="70" r="8" class="stroke_order_diagram--path_start" transform="matrix(1,0,0,1,896,-4)"></circle><line x1="1050" x2="1050" y1="1" y2="99" class="stroke_order_diagram--guide_line"></line><line x1="1099" x2="1099" y1="1" y2="99" class="stroke_order_diagram--bounding_box"></line><path id="pathSk2v596cn4b2v" kvg:type="㇒" d="M36.51,12.13c0.23,1.53-0.31,2.54-1.05,3.86c-4.71,8.38-10.92,17.25-21.71,27.44" transform="matrix(1,0,0,1,996,-4)" class="stroke_order_diagram--existing_path"></path><path id="pathSk2v596cn4b2w" kvg:type="㇑" d="M28.03,31.49c0.8,0.8,1.05,1.76,1.05,2.99c0,3.39-0.01,16.39-0.01,24.27c0,2-0.08,3.84-0.08,5.5" transform="matrix(1,0,0,1,996,-4)" class="stroke_order_diagram--existing_path"></path><path id="pathSk2v596cn4b2x" kvg:type="㇑" d="M43.02,23.39c0.86,0.86,1.26,1.99,1.26,4.04c0,6.31,0.08,12.57,0.08,19.32c0,2.99-0.1,5.33-0.1,6.43" transform="matrix(1,0,0,1,996,-4)" class="stroke_order_diagram--existing_path"></path><path id="pathSk2v596cn4b2y" kvg:type="㇒" d="M66.35,10.89c0.04,0.58-0.03,1.79-0.32,2.59c-1.89,5.13-6.5,15.76-13.03,22.85" transform="matrix(1,0,0,1,996,-4)" class="stroke_order_diagram--existing_path"></path><path id="pathSk2v596cn4b2z" kvg:type="㇐" d="M65.22,22.86c-0.08,0.29,4.31,0.14,4.14,0.16c4.74-0.48,8.51-1.68,15.4-2.28c1.43-0.12,3.21-0.49,4.63-0.13" transform="matrix(1,0,0,1,996,-4)" class="stroke_order_diagram--existing_path"></path><path id="pathSk2v596cn4b30" kvg:type="㇒" d="M79.91,25.49c0.34,1.13,0.16,2.13-0.53,3.71C73,43.75,66.88,51.25,52.37,61.85" transform="matrix(1,0,0,1,996,-4)" class="stroke_order_diagram--existing_path"></path><path id="pathSk2v596cn4b31" kvg:type="㇏" d="M60.25,34.78c2.62,0.19,15.06,12.92,25.33,19.42c2.55,1.61,5.17,3.17,8.42,4.18" transform="matrix(1,0,0,1,996,-4)" class="stroke_order_diagram--existing_path"></path><path id="pathSk2v596cn4b32" kvg:type="㇔" d="M23,78.25c0.34,2.26-3.43,12.22-6.17,15.99" transform="matrix(1,0,0,1,996,-4)" class="stroke_order_diagram--existing_path"></path><path id="pathSk2v596cn4b33" kvg:type="㇟b" d="M32.08,72c7.4,13.66,18.84,25.26,47.35,25.43c13.76,0.08,14.91-3.89,3.43-10.11" transform="matrix(1,0,0,1,996,-4)" class="stroke_order_diagram--existing_path"></path><path id="pathSk2v596cn4b34" kvg:type="㇔a" d="M52.91,70c2.06,5.25,5.06,10.5,7.26,2.46" transform="matrix(1,0,0,1,996,-4)" class="stroke_order_diagram--existing_path"></path><path id="kvg:060a0-s11" kvg:type="㇔" d="M77.38,67.11c5.41,1.9,9.46,3.62,13.85,9.49" transform="matrix(1,0,0,1,996,-4)" class="stroke_order_diagram--current_path"></path><path id="pathSk2v596cn4b36" kvg:type="㇔" d="M77.38,67.11c5.41,1.9,9.46,3.62,13.85,9.49" transform="matrix(1,0,0,1,996,-4)" class="stroke_order_diagram--current_path"></path><circle cx="77.38" cy="67.11" r="8" class="stroke_order_diagram--path_start" transform="matrix(1,0,0,1,996,-4)"></circle></svg>