<svg style="width: 1100px; height: 100px;" viewbox="0 0 1100 100"><style>
.stroke_order_diagram--outer_container {
  width: 100%;
  overflow-x: auto;
  overflow-y: hidden;
}

.stroke_order_diagram--guide_line {
  fill: none;
  stroke: #ddd;
  stroke-width: 3;
  stroke-linecap: square;
  stroke-linejoin: square;
  stroke-dasharray:8, 8;
}

.stroke_order_diagram--bounding_box {
  fill: none;
  stroke: #ddd;
  stroke-width: 4;
  stroke-linecap: square;
  stroke-linejoin: square;
}

.stroke_order_diagram--current_path {
  fill: none;
  stroke: #000;
  stroke-width: 6;
  stroke-linecap: round;
  stroke-linejoin: round;
}

.stroke_order_diagram--existing_path {
  fill: none;
  stroke: #aaa;
  stroke-width: 6;
  stroke-linecap: round;
  stroke-linejoin:round;
}

.stroke_order_diagram--path_start {
  fill: rgba(255, 0, 0, 0.7);
  stroke:none
}</style><desc>Created with Snap</desc><defs></defs><line x1="1" x2="1099" y1="1" y2="1" class="stroke_order_diagram--bounding_box"></line><line x1="1" x2="1" y1="1" y2="99" class="stroke_order_diagram--bounding_box"></line><line x1="1" x2="1099" y1="99" y2="99" class="stroke_order_diagram--bounding_box"></line><line x1="0" x2="1100" y1="50" y2="50" class="stroke_order_diagram--guide_line"></line><line x1="50" x2="50" y1="1" y2="99" class="stroke_order_diagram--guide_line"></line><line x1="99" x2="99" y1="1" y2="99" class="stroke_order_diagram--bounding_box"></line><path id="kvg:060aa-s1" kvg:type="㇐" d="M27.02,20.14c1.67,0.22,4.72,0.36,6.38,0.17C45.38,19,61.62,17,74.43,16.12c2.76-0.19,4.44,0.07,5.82,0.18" transform="matrix(1,0,0,1,-4,-4)" class="stroke_order_diagram--current_path"></path><path id="pathSk2v596cnm3n" kvg:type="㇐" d="M27.02,20.14c1.67,0.22,4.72,0.36,6.38,0.17C45.38,19,61.62,17,74.43,16.12c2.76-0.19,4.44,0.07,5.82,0.18" transform="matrix(1,0,0,1,-4,-4)" class="stroke_order_diagram--current_path"></path><circle cx="27.02" cy="20.14" r="8" class="stroke_order_diagram--path_start" transform="matrix(1,0,0,1,-4,-4)"></circle><line x1="150" x2="150" y1="1" y2="99" class="stroke_order_diagram--guide_line"></line><line x1="199" x2="199" y1="1" y2="99" class="stroke_order_diagram--bounding_box"></line><path id="pathSk2v596cnm3q" kvg:type="㇐" d="M27.02,20.14c1.67,0.22,4.72,0.36,6.38,0.17C45.38,19,61.62,17,74.43,16.12c2.76-0.19,4.44,0.07,5.82,0.18" transform="matrix(1,0,0,1,96,-4)" class="stroke_order_diagram--existing_path"></path><path id="kvg:060aa-s2" kvg:type="㇑" d="M27.44,34.62c1.06,0.51,1.86,1.44,2.06,2.2c1.12,4.18,1.51,7.44,2.3,11.64c0.2,1.07,0.39,2.05,0.55,2.88" transform="matrix(1,0,0,1,96,-4)" class="stroke_order_diagram--current_path"></path><path id="pathSk2v596cnm3s" kvg:type="㇑" d="M27.44,34.62c1.06,0.51,1.86,1.44,2.06,2.2c1.12,4.18,1.51,7.44,2.3,11.64c0.2,1.07,0.39,2.05,0.55,2.88" transform="matrix(1,0,0,1,96,-4)" class="stroke_order_diagram--current_path"></path><circle cx="27.44" cy="34.62" r="8" class="stroke_order_diagram--path_start" transform="matrix(1,0,0,1,96,-4)"></circle><line x1="250" x2="250" y1="1" y2="99" class="stroke_order_diagram--guide_line"></line><line x1="299" x2="299" y1="1" y2="99" class="stroke_order_diagram--bounding_box"></line><path id="pathSk2v596cnm3v" kvg:type="㇐" d="M27.02,20.14c1.67,0.22,4.72,0.36,6.38,0.17C45.38,19,61.62,17,74.43,16.12c2.76-0.19,4.44,0.07,5.82,0.18" transform="matrix(1,0,0,1,196,-4)" class="stroke_order_diagram--existing_path"></path><path id="pathSk2v596cnm3w" kvg:type="㇑" d="M27.44,34.62c1.06,0.51,1.86,1.44,2.06,2.2c1.12,4.18,1.51,7.44,2.3,11.64c0.2,1.07,0.39,2.05,0.55,2.88" transform="matrix(1,0,0,1,196,-4)" class="stroke_order_diagram--existing_path"></path><path id="kvg:060aa-s3" kvg:type="㇕a" d="M30.5,35.72c13.08-1.76,42.28-5.05,46.21-5.05c2.67,0,4.17,1.45,3.54,4.58c-0.61,3.03-1.06,4.82-1.95,9.01c-0.17,0.81-0.36,1.72-0.57,2.73" transform="matrix(1,0,0,1,196,-4)" class="stroke_order_diagram--current_path"></path><path id="pathSk2v596cnm3y" kvg:type="㇕a" d="M30.5,35.72c13.08-1.76,42.28-5.05,46.21-5.05c2.67,0,4.17,1.45,3.54,4.58c-0.61,3.03-1.06,4.82-1.95,9.01c-0.17,0.81-0.36,1.72-0.57,2.73" transform="matrix(1,0,0,1,196,-4)" class="stroke_order_diagram--current_path"></path><circle cx="30.5" cy="35.72" r="8" class="stroke_order_diagram--path_start" transform="matrix(1,0,0,1,196,-4)"></circle><line x1="350" x2="350" y1="1" y2="99" class="stroke_order_diagram--guide_line"></line><line x1="399" x2="399" y1="1" y2="99" class="stroke_order_diagram--bounding_box"></line><path id="pathSk2v596cnm41" kvg:type="㇐" d="M27.02,20.14c1.67,0.22,4.72,0.36,6.38,0.17C45.38,19,61.62,17,74.43,16.12c2.76-0.19,4.44,0.07,5.82,0.18" transform="matrix(1,0,0,1,296,-4)" class="stroke_order_diagram--existing_path"></path><path id="pathSk2v596cnm42" kvg:type="㇑" d="M27.44,34.62c1.06,0.51,1.86,1.44,2.06,2.2c1.12,4.18,1.51,7.44,2.3,11.64c0.2,1.07,0.39,2.05,0.55,2.88" transform="matrix(1,0,0,1,296,-4)" class="stroke_order_diagram--existing_path"></path><path id="pathSk2v596cnm43" kvg:type="㇕a" d="M30.5,35.72c13.08-1.76,42.28-5.05,46.21-5.05c2.67,0,4.17,1.45,3.54,4.58c-0.61,3.03-1.06,4.82-1.95,9.01c-0.17,0.81-0.36,1.72-0.57,2.73" transform="matrix(1,0,0,1,296,-4)" class="stroke_order_diagram--existing_path"></path><path id="kvg:060aa-s4" kvg:type="㇐a" d="M33.37,49.41c11-1.28,28.75-3.16,43.96-4.13" transform="matrix(1,0,0,1,296,-4)" class="stroke_order_diagram--current_path"></path><path id="pathSk2v596cnm45" kvg:type="㇐a" d="M33.37,49.41c11-1.28,28.75-3.16,43.96-4.13" transform="matrix(1,0,0,1,296,-4)" class="stroke_order_diagram--current_path"></path><circle cx="33.37" cy="49.41" r="8" class="stroke_order_diagram--path_start" transform="matrix(1,0,0,1,296,-4)"></circle><line x1="450" x2="450" y1="1" y2="99" class="stroke_order_diagram--guide_line"></line><line x1="499" x2="499" y1="1" y2="99" class="stroke_order_diagram--bounding_box"></line><path id="pathSk2v596cnm48" kvg:type="㇐" d="M27.02,20.14c1.67,0.22,4.72,0.36,6.38,0.17C45.38,19,61.62,17,74.43,16.12c2.76-0.19,4.44,0.07,5.82,0.18" transform="matrix(1,0,0,1,396,-4)" class="stroke_order_diagram--existing_path"></path><path id="pathSk2v596cnm49" kvg:type="㇑" d="M27.44,34.62c1.06,0.51,1.86,1.44,2.06,2.2c1.12,4.18,1.51,7.44,2.3,11.64c0.2,1.07,0.39,2.05,0.55,2.88" transform="matrix(1,0,0,1,396,-4)" class="stroke_order_diagram--existing_path"></path><path id="pathSk2v596cnm4a" kvg:type="㇕a" d="M30.5,35.72c13.08-1.76,42.28-5.05,46.21-5.05c2.67,0,4.17,1.45,3.54,4.58c-0.61,3.03-1.06,4.82-1.95,9.01c-0.17,0.81-0.36,1.72-0.57,2.73" transform="matrix(1,0,0,1,396,-4)" class="stroke_order_diagram--existing_path"></path><path id="pathSk2v596cnm4b" kvg:type="㇐a" d="M33.37,49.41c11-1.28,28.75-3.16,43.96-4.13" transform="matrix(1,0,0,1,396,-4)" class="stroke_order_diagram--existing_path"></path><path id="kvg:060aa-s5" kvg:type="㇑a" d="M43.52,21.44c0.83,0.83,1.48,2.06,1.51,3.07c0.15,5.51,1.4,32.37,1.22,36.74" transform="matrix(1,0,0,1,396,-4)" class="stroke_order_diagram--current_path"></path><path id="pathSk2v596cnm4d" kvg:type="㇑a" d="M43.52,21.44c0.83,0.83,1.48,2.06,1.51,3.07c0.15,5.51,1.4,32.37,1.22,36.74" transform="matrix(1,0,0,1,396,-4)" class="stroke_order_diagram--current_path"></path><circle cx="43.52" cy="21.44" r="8" class="stroke_order_diagram--path_start" transform="matrix(1,0,0,1,396,-4)"></circle><line x1="550" x2="550" y1="1" y2="99" class="stroke_order_diagram--guide_line"></line><line x1="599" x2="599" y1="1" y2="99" class="stroke_order_diagram--bounding_box"></line><path id="pathSk2v596cnm4g" kvg:type="㇐" d="M27.02,20.14c1.67,0.22,4.72,0.36,6.38,0.17C45.38,19,61.62,17,74.43,16.12c2.76-0.19,4.44,0.07,5.82,0.18" transform="matrix(1,0,0,1,496,-4)" class="stroke_order_diagram--existing_path"></path><path id="pathSk2v596cnm4h" kvg:type="㇑" d="M27.44,34.62c1.06,0.51,1.86,1.44,2.06,2.2c1.12,4.18,1.51,7.44,2.3,11.64c0.2,1.07,0.39,2.05,0.55,2.88" transform="matrix(1,0,0,1,496,-4)" class="stroke_order_diagram--existing_path"></path><path id="pathSk2v596cnm4i" kvg:type="㇕a" d="M30.5,35.72c13.08-1.76,42.28-5.05,46.21-5.05c2.67,0,4.17,1.45,3.54,4.58c-0.61,3.03-1.06,4.82-1.95,9.01c-0.17,0.81-0.36,1.72-0.57,2.73" transform="matrix(1,0,0,1,496,-4)" class="stroke_order_diagram--existing_path"></path><path id="pathSk2v596cnm4j" kvg:type="㇐a" d="M33.37,49.41c11-1.28,28.75-3.16,43.96-4.13" transform="matrix(1,0,0,1,496,-4)" class="stroke_order_diagram--existing_path"></path><path id="pathSk2v596cnm4k" kvg:type="㇑a" d="M43.52,21.44c0.83,0.83,1.48,2.06,1.51,3.07c0.15,5.51,1.4,32.37,1.22,36.74" transform="matrix(1,0,0,1,496,-4)" class="stroke_order_diagram--existing_path"></path><path id="kvg:060aa-s6" kvg:type="㇑a" d="M62,19.31c0.84,0.84,1.03,2.06,1,2.94c-0.25,6-1.71,33.68-1.87,37.74" transform="matrix(1,0,0,1,496,-4)" class="stroke_order_diagram--current_path"></path><path id="pathSk2v596cnm4m" kvg:type="㇑a" d="M62,19.31c0.84,0.84,1.03,2.06,1,2.94c-0.25,6-1.71,33.68-1.87,37.74" transform="matrix(1,0,0,1,496,-4)" class="stroke_order_diagram--current_path"></path><circle cx="62" cy="19.31" r="8" class="stroke_order_diagram--path_start" transform="matrix(1,0,0,1,496,-4)"></circle><line x1="650" x2="650" y1="1" y2="99" class="stroke_order_diagram--guide_line"></line><line x1="699" x2="699" y1="1" y2="99" class="stroke_order_diagram--bounding_box"></line><path id="pathSk2v596cnm4p" kvg:type="㇐" d="M27.02,20.14c1.67,0.22,4.72,0.36,6.38,0.17C45.38,19,61.62,17,74.43,16.12c2.76-0.19,4.44,0.07,5.82,0.18" transform="matrix(1,0,0,1,596,-4)" class="stroke_order_diagram--existing_path"></path><path id="pathSk2v596cnm4q" kvg:type="㇑" d="M27.44,34.62c1.06,0.51,1.86,1.44,2.06,2.2c1.12,4.18,1.51,7.44,2.3,11.64c0.2,1.07,0.39,2.05,0.55,2.88" transform="matrix(1,0,0,1,596,-4)" class="stroke_order_diagram--existing_path"></path><path id="pathSk2v596cnm4r" kvg:type="㇕a" d="M30.5,35.72c13.08-1.76,42.28-5.05,46.21-5.05c2.67,0,4.17,1.45,3.54,4.58c-0.61,3.03-1.06,4.82-1.95,9.01c-0.17,0.81-0.36,1.72-0.57,2.73" transform="matrix(1,0,0,1,596,-4)" class="stroke_order_diagram--existing_path"></path><path id="pathSk2v596cnm4s" kvg:type="㇐a" d="M33.37,49.41c11-1.28,28.75-3.16,43.96-4.13" transform="matrix(1,0,0,1,596,-4)" class="stroke_order_diagram--existing_path"></path><path id="pathSk2v596cnm4t" kvg:type="㇑a" d="M43.52,21.44c0.83,0.83,1.48,2.06,1.51,3.07c0.15,5.51,1.4,32.37,1.22,36.74" transform="matrix(1,0,0,1,596,-4)" class="stroke_order_diagram--existing_path"></path><path id="pathSk2v596cnm4u" kvg:type="㇑a" d="M62,19.31c0.84,0.84,1.03,2.06,1,2.94c-0.25,6-1.71,33.68-1.87,37.74" transform="matrix(1,0,0,1,596,-4)" class="stroke_order_diagram--existing_path"></path><path id="kvg:060aa-s7" kvg:type="㇐" d="M23,64.05c2.08,0.33,4.38,0.36,8,0.01C47,62.5,66.62,60,80.25,59.7c3.47-0.08,5.5,0.05,7.55,0.5" transform="matrix(1,0,0,1,596,-4)" class="stroke_order_diagram--current_path"></path><path id="pathSk2v596cnm4w" kvg:type="㇐" d="M23,64.05c2.08,0.33,4.38,0.36,8,0.01C47,62.5,66.62,60,80.25,59.7c3.47-0.08,5.5,0.05,7.55,0.5" transform="matrix(1,0,0,1,596,-4)" class="stroke_order_diagram--current_path"></path><circle cx="23" cy="64.05" r="8" class="stroke_order_diagram--path_start" transform="matrix(1,0,0,1,596,-4)"></circle><line x1="750" x2="750" y1="1" y2="99" class="stroke_order_diagram--guide_line"></line><line x1="799" x2="799" y1="1" y2="99" class="stroke_order_diagram--bounding_box"></line><path id="pathSk2v596cnm4z" kvg:type="㇐" d="M27.02,20.14c1.67,0.22,4.72,0.36,6.38,0.17C45.38,19,61.62,17,74.43,16.12c2.76-0.19,4.44,0.07,5.82,0.18" transform="matrix(1,0,0,1,696,-4)" class="stroke_order_diagram--existing_path"></path><path id="pathSk2v596cnm50" kvg:type="㇑" d="M27.44,34.62c1.06,0.51,1.86,1.44,2.06,2.2c1.12,4.18,1.51,7.44,2.3,11.64c0.2,1.07,0.39,2.05,0.55,2.88" transform="matrix(1,0,0,1,696,-4)" class="stroke_order_diagram--existing_path"></path><path id="pathSk2v596cnm51" kvg:type="㇕a" d="M30.5,35.72c13.08-1.76,42.28-5.05,46.21-5.05c2.67,0,4.17,1.45,3.54,4.58c-0.61,3.03-1.06,4.82-1.95,9.01c-0.17,0.81-0.36,1.72-0.57,2.73" transform="matrix(1,0,0,1,696,-4)" class="stroke_order_diagram--existing_path"></path><path id="pathSk2v596cnm52" kvg:type="㇐a" d="M33.37,49.41c11-1.28,28.75-3.16,43.96-4.13" transform="matrix(1,0,0,1,696,-4)" class="stroke_order_diagram--existing_path"></path><path id="pathSk2v596cnm53" kvg:type="㇑a" d="M43.52,21.44c0.83,0.83,1.48,2.06,1.51,3.07c0.15,5.51,1.4,32.37,1.22,36.74" transform="matrix(1,0,0,1,696,-4)" class="stroke_order_diagram--existing_path"></path><path id="pathSk2v596cnm54" kvg:type="㇑a" d="M62,19.31c0.84,0.84,1.03,2.06,1,2.94c-0.25,6-1.71,33.68-1.87,37.74" transform="matrix(1,0,0,1,696,-4)" class="stroke_order_diagram--existing_path"></path><path id="pathSk2v596cnm55" kvg:type="㇐" d="M23,64.05c2.08,0.33,4.38,0.36,8,0.01C47,62.5,66.62,60,80.25,59.7c3.47-0.08,5.5,0.05,7.55,0.5" transform="matrix(1,0,0,1,696,-4)" class="stroke_order_diagram--existing_path"></path><path id="kvg:060aa-s8" kvg:type="㇔" d="M24,77c0.29,2.19-2.91,11.85-5.25,15.5" transform="matrix(1,0,0,1,696,-4)" class="stroke_order_diagram--current_path"></path><path id="pathSk2v596cnm57" kvg:type="㇔" d="M24,77c0.29,2.19-2.91,11.85-5.25,15.5" transform="matrix(1,0,0,1,696,-4)" class="stroke_order_diagram--current_path"></path><circle cx="24" cy="77" r="8" class="stroke_order_diagram--path_start" transform="matrix(1,0,0,1,696,-4)"></circle><line x1="850" x2="850" y1="1" y2="99" class="stroke_order_diagram--guide_line"></line><line x1="899" x2="899" y1="1" y2="99" class="stroke_order_diagram--bounding_box"></line><path id="pathSk2v596cnm5a" kvg:type="㇐" d="M27.02,20.14c1.67,0.22,4.72,0.36,6.38,0.17C45.38,19,61.62,17,74.43,16.12c2.76-0.19,4.44,0.07,5.82,0.18" transform="matrix(1,0,0,1,796,-4)" class="stroke_order_diagram--existing_path"></path><path id="pathSk2v596cnm5b" kvg:type="㇑" d="M27.44,34.62c1.06,0.51,1.86,1.44,2.06,2.2c1.12,4.18,1.51,7.44,2.3,11.64c0.2,1.07,0.39,2.05,0.55,2.88" transform="matrix(1,0,0,1,796,-4)" class="stroke_order_diagram--existing_path"></path><path id="pathSk2v596cnm5c" kvg:type="㇕a" d="M30.5,35.72c13.08-1.76,42.28-5.05,46.21-5.05c2.67,0,4.17,1.45,3.54,4.58c-0.61,3.03-1.06,4.82-1.95,9.01c-0.17,0.81-0.36,1.72-0.57,2.73" transform="matrix(1,0,0,1,796,-4)" class="stroke_order_diagram--existing_path"></path><path id="pathSk2v596cnm5d" kvg:type="㇐a" d="M33.37,49.41c11-1.28,28.75-3.16,43.96-4.13" transform="matrix(1,0,0,1,796,-4)" class="stroke_order_diagram--existing_path"></path><path id="pathSk2v596cnm5e" kvg:type="㇑a" d="M43.52,21.44c0.83,0.83,1.48,2.06,1.51,3.07c0.15,5.51,1.4,32.37,1.22,36.74" transform="matrix(1,0,0,1,796,-4)" class="stroke_order_diagram--existing_path"></path><path id="pathSk2v596cnm5f" kvg:type="㇑a" d="M62,19.31c0.84,0.84,1.03,2.06,1,2.94c-0.25,6-1.71,33.68-1.87,37.74" transform="matrix(1,0,0,1,796,-4)" class="stroke_order_diagram--existing_path"></path><path id="pathSk2v596cnm5g" kvg:type="㇐" d="M23,64.05c2.08,0.33,4.38,0.36,8,0.01C47,62.5,66.62,60,80.25,59.7c3.47-0.08,5.5,0.05,7.55,0.5" transform="matrix(1,0,0,1,796,-4)" class="stroke_order_diagram--existing_path"></path><path id="pathSk2v596cnm5h" kvg:type="㇔" d="M24,77c0.29,2.19-2.91,11.85-5.25,15.5" transform="matrix(1,0,0,1,796,-4)" class="stroke_order_diagram--existing_path"></path><path id="kvg:060aa-s9" kvg:type="㇟b" d="M35,70.5c8.75,14.45,19.5,25.75,47.3,24.35c9.58-0.48,8.45-3.6-0.55-8.85" transform="matrix(1,0,0,1,796,-4)" class="stroke_order_diagram--current_path"></path><path id="pathSk2v596cnm5j" kvg:type="㇟b" d="M35,70.5c8.75,14.45,19.5,25.75,47.3,24.35c9.58-0.48,8.45-3.6-0.55-8.85" transform="matrix(1,0,0,1,796,-4)" class="stroke_order_diagram--current_path"></path><circle cx="35" cy="70.5" r="8" class="stroke_order_diagram--path_start" transform="matrix(1,0,0,1,796,-4)"></circle><line x1="950" x2="950" y1="1" y2="99" class="stroke_order_diagram--guide_line"></line><line x1="999" x2="999" y1="1" y2="99" class="stroke_order_diagram--bounding_box"></line><path id="pathSk2v596cnm5m" kvg:type="㇐" d="M27.02,20.14c1.67,0.22,4.72,0.36,6.38,0.17C45.38,19,61.62,17,74.43,16.12c2.76-0.19,4.44,0.07,5.82,0.18" transform="matrix(1,0,0,1,896,-4)" class="stroke_order_diagram--existing_path"></path><path id="pathSk2v596cnm5n" kvg:type="㇑" d="M27.44,34.62c1.06,0.51,1.86,1.44,2.06,2.2c1.12,4.18,1.51,7.44,2.3,11.64c0.2,1.07,0.39,2.05,0.55,2.88" transform="matrix(1,0,0,1,896,-4)" class="stroke_order_diagram--existing_path"></path><path id="pathSk2v596cnm5o" kvg:type="㇕a" d="M30.5,35.72c13.08-1.76,42.28-5.05,46.21-5.05c2.67,0,4.17,1.45,3.54,4.58c-0.61,3.03-1.06,4.82-1.95,9.01c-0.17,0.81-0.36,1.72-0.57,2.73" transform="matrix(1,0,0,1,896,-4)" class="stroke_order_diagram--existing_path"></path><path id="pathSk2v596cnm5p" kvg:type="㇐a" d="M33.37,49.41c11-1.28,28.75-3.16,43.96-4.13" transform="matrix(1,0,0,1,896,-4)" class="stroke_order_diagram--existing_path"></path><path id="pathSk2v596cnm5q" kvg:type="㇑a" d="M43.52,21.44c0.83,0.83,1.48,2.06,1.51,3.07c0.15,5.51,1.4,32.37,1.22,36.74" transform="matrix(1,0,0,1,896,-4)" class="stroke_order_diagram--existing_path"></path><path id="pathSk2v596cnm5r" kvg:type="㇑a" d="M62,19.31c0.84,0.84,1.03,2.06,1,2.94c-0.25,6-1.71,33.68-1.87,37.74" transform="matrix(1,0,0,1,896,-4)" class="stroke_order_diagram--existing_path"></path><path id="pathSk2v596cnm5s" kvg:type="㇐" d="M23,64.05c2.08,0.33,4.38,0.36,8,0.01C47,62.5,66.62,60,80.25,59.7c3.47-0.08,5.5,0.05,7.55,0.5" transform="matrix(1,0,0,1,896,-4)" class="stroke_order_diagram--existing_path"></path><path id="pathSk2v596cnm5t" kvg:type="㇔" d="M24,77c0.29,2.19-2.91,11.85-5.25,15.5" transform="matrix(1,0,0,1,896,-4)" class="stroke_order_diagram--existing_path"></path><path id="pathSk2v596cnm5u" kvg:type="㇟b" d="M35,70.5c8.75,14.45,19.5,25.75,47.3,24.35c9.58-0.48,8.45-3.6-0.55-8.85" transform="matrix(1,0,0,1,896,-4)" class="stroke_order_diagram--existing_path"></path><path id="kvg:060aa-s10" kvg:type="㇔a" d="M55.49,69.75c1.82,3.17,6.58,9.74,7.72,5.27" transform="matrix(1,0,0,1,896,-4)" class="stroke_order_diagram--current_path"></path><path id="pathSk2v596cnm5w" kvg:type="㇔a" d="M55.49,69.75c1.82,3.17,6.58,9.74,7.72,5.27" transform="matrix(1,0,0,1,896,-4)" class="stroke_order_diagram--current_path"></path><circle cx="55.49" cy="69.75" r="8" class="stroke_order_diagram--path_start" transform="matrix(1,0,0,1,896,-4)"></circle><line x1="1050" x2="1050" y1="1" y2="99" class="stroke_order_diagram--guide_line"></line><line x1="1099" x2="1099" y1="1" y2="99" class="stroke_order_diagram--bounding_box"></line><path id="pathSk2v596cnm5z" kvg:type="㇐" d="M27.02,20.14c1.67,0.22,4.72,0.36,6.38,0.17C45.38,19,61.62,17,74.43,16.12c2.76-0.19,4.44,0.07,5.82,0.18" transform="matrix(1,0,0,1,996,-4)" class="stroke_order_diagram--existing_path"></path><path id="pathSk2v596cnm60" kvg:type="㇑" d="M27.44,34.62c1.06,0.51,1.86,1.44,2.06,2.2c1.12,4.18,1.51,7.44,2.3,11.64c0.2,1.07,0.39,2.05,0.55,2.88" transform="matrix(1,0,0,1,996,-4)" class="stroke_order_diagram--existing_path"></path><path id="pathSk2v596cnm61" kvg:type="㇕a" d="M30.5,35.72c13.08-1.76,42.28-5.05,46.21-5.05c2.67,0,4.17,1.45,3.54,4.58c-0.61,3.03-1.06,4.82-1.95,9.01c-0.17,0.81-0.36,1.72-0.57,2.73" transform="matrix(1,0,0,1,996,-4)" class="stroke_order_diagram--existing_path"></path><path id="pathSk2v596cnm62" kvg:type="㇐a" d="M33.37,49.41c11-1.28,28.75-3.16,43.96-4.13" transform="matrix(1,0,0,1,996,-4)" class="stroke_order_diagram--existing_path"></path><path id="pathSk2v596cnm63" kvg:type="㇑a" d="M43.52,21.44c0.83,0.83,1.48,2.06,1.51,3.07c0.15,5.51,1.4,32.37,1.22,36.74" transform="matrix(1,0,0,1,996,-4)" class="stroke_order_diagram--existing_path"></path><path id="pathSk2v596cnm64" kvg:type="㇑a" d="M62,19.31c0.84,0.84,1.03,2.06,1,2.94c-0.25,6-1.71,33.68-1.87,37.74" transform="matrix(1,0,0,1,996,-4)" class="stroke_order_diagram--existing_path"></path><path id="pathSk2v596cnm65" kvg:type="㇐" d="M23,64.05c2.08,0.33,4.38,0.36,8,0.01C47,62.5,66.62,60,80.25,59.7c3.47-0.08,5.5,0.05,7.55,0.5" transform="matrix(1,0,0,1,996,-4)" class="stroke_order_diagram--existing_path"></path><path id="pathSk2v596cnm66" kvg:type="㇔" d="M24,77c0.29,2.19-2.91,11.85-5.25,15.5" transform="matrix(1,0,0,1,996,-4)" class="stroke_order_diagram--existing_path"></path><path id="pathSk2v596cnm67" kvg:type="㇟b" d="M35,70.5c8.75,14.45,19.5,25.75,47.3,24.35c9.58-0.48,8.45-3.6-0.55-8.85" transform="matrix(1,0,0,1,996,-4)" class="stroke_order_diagram--existing_path"></path><path id="pathSk2v596cnm68" kvg:type="㇔a" d="M55.49,69.75c1.82,3.17,6.58,9.74,7.72,5.27" transform="matrix(1,0,0,1,996,-4)" class="stroke_order_diagram--existing_path"></path><path id="kvg:060aa-s11" kvg:type="㇔" d="M82.5,68.5c4,2.2,8.88,6.5,12,12" transform="matrix(1,0,0,1,996,-4)" class="stroke_order_diagram--current_path"></path><path id="pathSk2v596cnm6a" kvg:type="㇔" d="M82.5,68.5c4,2.2,8.88,6.5,12,12" transform="matrix(1,0,0,1,996,-4)" class="stroke_order_diagram--current_path"></path><circle cx="82.5" cy="68.5" r="8" class="stroke_order_diagram--path_start" transform="matrix(1,0,0,1,996,-4)"></circle></svg>