<svg style="width: 1300px; height: 100px;" viewbox="0 0 1300 100"><style>
.stroke_order_diagram--outer_container {
  width: 100%;
  overflow-x: auto;
  overflow-y: hidden;
}

.stroke_order_diagram--guide_line {
  fill: none;
  stroke: #ddd;
  stroke-width: 3;
  stroke-linecap: square;
  stroke-linejoin: square;
  stroke-dasharray:8, 8;
}

.stroke_order_diagram--bounding_box {
  fill: none;
  stroke: #ddd;
  stroke-width: 4;
  stroke-linecap: square;
  stroke-linejoin: square;
}

.stroke_order_diagram--current_path {
  fill: none;
  stroke: #000;
  stroke-width: 6;
  stroke-linecap: round;
  stroke-linejoin: round;
}

.stroke_order_diagram--existing_path {
  fill: none;
  stroke: #aaa;
  stroke-width: 6;
  stroke-linecap: round;
  stroke-linejoin:round;
}

.stroke_order_diagram--path_start {
  fill: rgba(255, 0, 0, 0.7);
  stroke:none
}</style><desc>Created with Snap</desc><defs></defs><line x1="1" x2="1299" y1="1" y2="1" class="stroke_order_diagram--bounding_box"></line><line x1="1" x2="1" y1="1" y2="99" class="stroke_order_diagram--bounding_box"></line><line x1="1" x2="1299" y1="99" y2="99" class="stroke_order_diagram--bounding_box"></line><line x1="0" x2="1300" y1="50" y2="50" class="stroke_order_diagram--guide_line"></line><line x1="50" x2="50" y1="1" y2="99" class="stroke_order_diagram--guide_line"></line><line x1="99" x2="99" y1="1" y2="99" class="stroke_order_diagram--bounding_box"></line><path id="kvg:0611a-s1" kvg:type="㇑" d="M30.22,16.14c0.7,0.77,1.11,1.68,1.24,2.72c0.79,5.52,1.36,9.43,2.05,14.89c0.21,1.68,0.41,3.33,0.6,4.85" transform="matrix(1,0,0,1,-4,-4)" class="stroke_order_diagram--current_path"></path><path id="pathSk2v596cn4b3t" kvg:type="㇑" d="M30.22,16.14c0.7,0.77,1.11,1.68,1.24,2.72c0.79,5.52,1.36,9.43,2.05,14.89c0.21,1.68,0.41,3.33,0.6,4.85" transform="matrix(1,0,0,1,-4,-4)" class="stroke_order_diagram--current_path"></path><circle cx="30.22" cy="16.14" r="8" class="stroke_order_diagram--path_start" transform="matrix(1,0,0,1,-4,-4)"></circle><line x1="150" x2="150" y1="1" y2="99" class="stroke_order_diagram--guide_line"></line><line x1="199" x2="199" y1="1" y2="99" class="stroke_order_diagram--bounding_box"></line><path id="pathSk2v596cn4b3w" kvg:type="㇑" d="M30.22,16.14c0.7,0.77,1.11,1.68,1.24,2.72c0.79,5.52,1.36,9.43,2.05,14.89c0.21,1.68,0.41,3.33,0.6,4.85" transform="matrix(1,0,0,1,96,-4)" class="stroke_order_diagram--existing_path"></path><path id="kvg:0611a-s2" kvg:type="㇕a" d="M32.28,17.3c14.22-1.55,33.47-3.77,42.25-4.45c3.22-0.25,3.95,1.72,3.69,4.15c-0.34,3.11-1.35,7.75-2.7,13.57c-0.36,1.57-0.75,3.19-1.15,4.83" transform="matrix(1,0,0,1,96,-4)" class="stroke_order_diagram--current_path"></path><path id="pathSk2v596cn4b3y" kvg:type="㇕a" d="M32.28,17.3c14.22-1.55,33.47-3.77,42.25-4.45c3.22-0.25,3.95,1.72,3.69,4.15c-0.34,3.11-1.35,7.75-2.7,13.57c-0.36,1.57-0.75,3.19-1.15,4.83" transform="matrix(1,0,0,1,96,-4)" class="stroke_order_diagram--current_path"></path><circle cx="32.28" cy="17.3" r="8" class="stroke_order_diagram--path_start" transform="matrix(1,0,0,1,96,-4)"></circle><line x1="250" x2="250" y1="1" y2="99" class="stroke_order_diagram--guide_line"></line><line x1="299" x2="299" y1="1" y2="99" class="stroke_order_diagram--bounding_box"></line><path id="pathSk2v596cn4b41" kvg:type="㇑" d="M30.22,16.14c0.7,0.77,1.11,1.68,1.24,2.72c0.79,5.52,1.36,9.43,2.05,14.89c0.21,1.68,0.41,3.33,0.6,4.85" transform="matrix(1,0,0,1,196,-4)" class="stroke_order_diagram--existing_path"></path><path id="pathSk2v596cn4b42" kvg:type="㇕a" d="M32.28,17.3c14.22-1.55,33.47-3.77,42.25-4.45c3.22-0.25,3.95,1.72,3.69,4.15c-0.34,3.11-1.35,7.75-2.7,13.57c-0.36,1.57-0.75,3.19-1.15,4.83" transform="matrix(1,0,0,1,196,-4)" class="stroke_order_diagram--existing_path"></path><path id="kvg:0611a-s3" kvg:type="㇐a" d="M33.94,26.71C44,25.5,69.88,23,76.21,22.69" transform="matrix(1,0,0,1,196,-4)" class="stroke_order_diagram--current_path"></path><path id="pathSk2v596cn4b44" kvg:type="㇐a" d="M33.94,26.71C44,25.5,69.88,23,76.21,22.69" transform="matrix(1,0,0,1,196,-4)" class="stroke_order_diagram--current_path"></path><circle cx="33.94" cy="26.71" r="8" class="stroke_order_diagram--path_start" transform="matrix(1,0,0,1,196,-4)"></circle><line x1="350" x2="350" y1="1" y2="99" class="stroke_order_diagram--guide_line"></line><line x1="399" x2="399" y1="1" y2="99" class="stroke_order_diagram--bounding_box"></line><path id="pathSk2v596cn4b47" kvg:type="㇑" d="M30.22,16.14c0.7,0.77,1.11,1.68,1.24,2.72c0.79,5.52,1.36,9.43,2.05,14.89c0.21,1.68,0.41,3.33,0.6,4.85" transform="matrix(1,0,0,1,296,-4)" class="stroke_order_diagram--existing_path"></path><path id="pathSk2v596cn4b48" kvg:type="㇕a" d="M32.28,17.3c14.22-1.55,33.47-3.77,42.25-4.45c3.22-0.25,3.95,1.72,3.69,4.15c-0.34,3.11-1.35,7.75-2.7,13.57c-0.36,1.57-0.75,3.19-1.15,4.83" transform="matrix(1,0,0,1,296,-4)" class="stroke_order_diagram--existing_path"></path><path id="pathSk2v596cn4b49" kvg:type="㇐a" d="M33.94,26.71C44,25.5,69.88,23,76.21,22.69" transform="matrix(1,0,0,1,296,-4)" class="stroke_order_diagram--existing_path"></path><path id="kvg:0611a-s4" kvg:type="㇐a" d="M35.28,36.33c12.01-1.36,26.75-3.3,38.43-3.79" transform="matrix(1,0,0,1,296,-4)" class="stroke_order_diagram--current_path"></path><path id="pathSk2v596cn4b4b" kvg:type="㇐a" d="M35.28,36.33c12.01-1.36,26.75-3.3,38.43-3.79" transform="matrix(1,0,0,1,296,-4)" class="stroke_order_diagram--current_path"></path><circle cx="35.28" cy="36.33" r="8" class="stroke_order_diagram--path_start" transform="matrix(1,0,0,1,296,-4)"></circle><line x1="450" x2="450" y1="1" y2="99" class="stroke_order_diagram--guide_line"></line><line x1="499" x2="499" y1="1" y2="99" class="stroke_order_diagram--bounding_box"></line><path id="pathSk2v596cn4b4e" kvg:type="㇑" d="M30.22,16.14c0.7,0.77,1.11,1.68,1.24,2.72c0.79,5.52,1.36,9.43,2.05,14.89c0.21,1.68,0.41,3.33,0.6,4.85" transform="matrix(1,0,0,1,396,-4)" class="stroke_order_diagram--existing_path"></path><path id="pathSk2v596cn4b4f" kvg:type="㇕a" d="M32.28,17.3c14.22-1.55,33.47-3.77,42.25-4.45c3.22-0.25,3.95,1.72,3.69,4.15c-0.34,3.11-1.35,7.75-2.7,13.57c-0.36,1.57-0.75,3.19-1.15,4.83" transform="matrix(1,0,0,1,396,-4)" class="stroke_order_diagram--existing_path"></path><path id="pathSk2v596cn4b4g" kvg:type="㇐a" d="M33.94,26.71C44,25.5,69.88,23,76.21,22.69" transform="matrix(1,0,0,1,396,-4)" class="stroke_order_diagram--existing_path"></path><path id="pathSk2v596cn4b4h" kvg:type="㇐a" d="M35.28,36.33c12.01-1.36,26.75-3.3,38.43-3.79" transform="matrix(1,0,0,1,396,-4)" class="stroke_order_diagram--existing_path"></path><path id="kvg:0611a-s5" kvg:type="㇑" d="M26.29,45.19c0.82,0.82,1.26,1.92,1.32,2.63c0.39,4.42,0.99,10.66,1.71,16.69c0.26,2.16,0.48,3.96,0.61,4.99" transform="matrix(1,0,0,1,396,-4)" class="stroke_order_diagram--current_path"></path><path id="pathSk2v596cn4b4j" kvg:type="㇑" d="M26.29,45.19c0.82,0.82,1.26,1.92,1.32,2.63c0.39,4.42,0.99,10.66,1.71,16.69c0.26,2.16,0.48,3.96,0.61,4.99" transform="matrix(1,0,0,1,396,-4)" class="stroke_order_diagram--current_path"></path><circle cx="26.29" cy="45.19" r="8" class="stroke_order_diagram--path_start" transform="matrix(1,0,0,1,396,-4)"></circle><line x1="550" x2="550" y1="1" y2="99" class="stroke_order_diagram--guide_line"></line><line x1="599" x2="599" y1="1" y2="99" class="stroke_order_diagram--bounding_box"></line><path id="pathSk2v596cn4b4m" kvg:type="㇑" d="M30.22,16.14c0.7,0.77,1.11,1.68,1.24,2.72c0.79,5.52,1.36,9.43,2.05,14.89c0.21,1.68,0.41,3.33,0.6,4.85" transform="matrix(1,0,0,1,496,-4)" class="stroke_order_diagram--existing_path"></path><path id="pathSk2v596cn4b4n" kvg:type="㇕a" d="M32.28,17.3c14.22-1.55,33.47-3.77,42.25-4.45c3.22-0.25,3.95,1.72,3.69,4.15c-0.34,3.11-1.35,7.75-2.7,13.57c-0.36,1.57-0.75,3.19-1.15,4.83" transform="matrix(1,0,0,1,496,-4)" class="stroke_order_diagram--existing_path"></path><path id="pathSk2v596cn4b4o" kvg:type="㇐a" d="M33.94,26.71C44,25.5,69.88,23,76.21,22.69" transform="matrix(1,0,0,1,496,-4)" class="stroke_order_diagram--existing_path"></path><path id="pathSk2v596cn4b4p" kvg:type="㇐a" d="M35.28,36.33c12.01-1.36,26.75-3.3,38.43-3.79" transform="matrix(1,0,0,1,496,-4)" class="stroke_order_diagram--existing_path"></path><path id="pathSk2v596cn4b4q" kvg:type="㇑" d="M26.29,45.19c0.82,0.82,1.26,1.92,1.32,2.63c0.39,4.42,0.99,10.66,1.71,16.69c0.26,2.16,0.48,3.96,0.61,4.99" transform="matrix(1,0,0,1,496,-4)" class="stroke_order_diagram--existing_path"></path><path id="kvg:0611a-s6" kvg:type="㇆a" d="M28.38,47.51c7.67-0.84,50.03-5.36,51.57-5.42c3.32-0.12,4.33,1.99,4.18,4.91c-0.31,5.71-1.33,13.22-3.58,18.07c-2.58,5.59-3.83,3.32-6.68,0.17" transform="matrix(1,0,0,1,496,-4)" class="stroke_order_diagram--current_path"></path><path id="pathSk2v596cn4b4s" kvg:type="㇆a" d="M28.38,47.51c7.67-0.84,50.03-5.36,51.57-5.42c3.32-0.12,4.33,1.99,4.18,4.91c-0.31,5.71-1.33,13.22-3.58,18.07c-2.58,5.59-3.83,3.32-6.68,0.17" transform="matrix(1,0,0,1,496,-4)" class="stroke_order_diagram--current_path"></path><circle cx="28.38" cy="47.51" r="8" class="stroke_order_diagram--path_start" transform="matrix(1,0,0,1,496,-4)"></circle><line x1="650" x2="650" y1="1" y2="99" class="stroke_order_diagram--guide_line"></line><line x1="699" x2="699" y1="1" y2="99" class="stroke_order_diagram--bounding_box"></line><path id="pathSk2v596cn4b4v" kvg:type="㇑" d="M30.22,16.14c0.7,0.77,1.11,1.68,1.24,2.72c0.79,5.52,1.36,9.43,2.05,14.89c0.21,1.68,0.41,3.33,0.6,4.85" transform="matrix(1,0,0,1,596,-4)" class="stroke_order_diagram--existing_path"></path><path id="pathSk2v596cn4b4w" kvg:type="㇕a" d="M32.28,17.3c14.22-1.55,33.47-3.77,42.25-4.45c3.22-0.25,3.95,1.72,3.69,4.15c-0.34,3.11-1.35,7.75-2.7,13.57c-0.36,1.57-0.75,3.19-1.15,4.83" transform="matrix(1,0,0,1,596,-4)" class="stroke_order_diagram--existing_path"></path><path id="pathSk2v596cn4b4x" kvg:type="㇐a" d="M33.94,26.71C44,25.5,69.88,23,76.21,22.69" transform="matrix(1,0,0,1,596,-4)" class="stroke_order_diagram--existing_path"></path><path id="pathSk2v596cn4b4y" kvg:type="㇐a" d="M35.28,36.33c12.01-1.36,26.75-3.3,38.43-3.79" transform="matrix(1,0,0,1,596,-4)" class="stroke_order_diagram--existing_path"></path><path id="pathSk2v596cn4b4z" kvg:type="㇑" d="M26.29,45.19c0.82,0.82,1.26,1.92,1.32,2.63c0.39,4.42,0.99,10.66,1.71,16.69c0.26,2.16,0.48,3.96,0.61,4.99" transform="matrix(1,0,0,1,596,-4)" class="stroke_order_diagram--existing_path"></path><path id="pathSk2v596cn4b50" kvg:type="㇆a" d="M28.38,47.51c7.67-0.84,50.03-5.36,51.57-5.42c3.32-0.12,4.33,1.99,4.18,4.91c-0.31,5.71-1.33,13.22-3.58,18.07c-2.58,5.59-3.83,3.32-6.68,0.17" transform="matrix(1,0,0,1,596,-4)" class="stroke_order_diagram--existing_path"></path><path id="kvg:0611a-s7" kvg:type="㇑a" d="M52.97,17.48c0.77,0.77,1.03,1.77,1.03,2.93c0,6.46,0.12,32.44,0.12,35.96" transform="matrix(1,0,0,1,596,-4)" class="stroke_order_diagram--current_path"></path><path id="pathSk2v596cn4b52" kvg:type="㇑a" d="M52.97,17.48c0.77,0.77,1.03,1.77,1.03,2.93c0,6.46,0.12,32.44,0.12,35.96" transform="matrix(1,0,0,1,596,-4)" class="stroke_order_diagram--current_path"></path><circle cx="52.97" cy="17.48" r="8" class="stroke_order_diagram--path_start" transform="matrix(1,0,0,1,596,-4)"></circle><line x1="750" x2="750" y1="1" y2="99" class="stroke_order_diagram--guide_line"></line><line x1="799" x2="799" y1="1" y2="99" class="stroke_order_diagram--bounding_box"></line><path id="pathSk2v596cn4b55" kvg:type="㇑" d="M30.22,16.14c0.7,0.77,1.11,1.68,1.24,2.72c0.79,5.52,1.36,9.43,2.05,14.89c0.21,1.68,0.41,3.33,0.6,4.85" transform="matrix(1,0,0,1,696,-4)" class="stroke_order_diagram--existing_path"></path><path id="pathSk2v596cn4b56" kvg:type="㇕a" d="M32.28,17.3c14.22-1.55,33.47-3.77,42.25-4.45c3.22-0.25,3.95,1.72,3.69,4.15c-0.34,3.11-1.35,7.75-2.7,13.57c-0.36,1.57-0.75,3.19-1.15,4.83" transform="matrix(1,0,0,1,696,-4)" class="stroke_order_diagram--existing_path"></path><path id="pathSk2v596cn4b57" kvg:type="㇐a" d="M33.94,26.71C44,25.5,69.88,23,76.21,22.69" transform="matrix(1,0,0,1,696,-4)" class="stroke_order_diagram--existing_path"></path><path id="pathSk2v596cn4b58" kvg:type="㇐a" d="M35.28,36.33c12.01-1.36,26.75-3.3,38.43-3.79" transform="matrix(1,0,0,1,696,-4)" class="stroke_order_diagram--existing_path"></path><path id="pathSk2v596cn4b59" kvg:type="㇑" d="M26.29,45.19c0.82,0.82,1.26,1.92,1.32,2.63c0.39,4.42,0.99,10.66,1.71,16.69c0.26,2.16,0.48,3.96,0.61,4.99" transform="matrix(1,0,0,1,696,-4)" class="stroke_order_diagram--existing_path"></path><path id="pathSk2v596cn4b5a" kvg:type="㇆a" d="M28.38,47.51c7.67-0.84,50.03-5.36,51.57-5.42c3.32-0.12,4.33,1.99,4.18,4.91c-0.31,5.71-1.33,13.22-3.58,18.07c-2.58,5.59-3.83,3.32-6.68,0.17" transform="matrix(1,0,0,1,696,-4)" class="stroke_order_diagram--existing_path"></path><path id="pathSk2v596cn4b5b" kvg:type="㇑a" d="M52.97,17.48c0.77,0.77,1.03,1.77,1.03,2.93c0,6.46,0.12,32.44,0.12,35.96" transform="matrix(1,0,0,1,696,-4)" class="stroke_order_diagram--existing_path"></path><path id="kvg:0611a-s8" kvg:type="㇀" d="M40.67,60.21c0.95,1.04,2.56,0.82,3.74,0.46c3.32-1.02,15.21-4.66,23.43-7.26" transform="matrix(1,0,0,1,696,-4)" class="stroke_order_diagram--current_path"></path><path id="pathSk2v596cn4b5d" kvg:type="㇀" d="M40.67,60.21c0.95,1.04,2.56,0.82,3.74,0.46c3.32-1.02,15.21-4.66,23.43-7.26" transform="matrix(1,0,0,1,696,-4)" class="stroke_order_diagram--current_path"></path><circle cx="40.67" cy="60.21" r="8" class="stroke_order_diagram--path_start" transform="matrix(1,0,0,1,696,-4)"></circle><line x1="850" x2="850" y1="1" y2="99" class="stroke_order_diagram--guide_line"></line><line x1="899" x2="899" y1="1" y2="99" class="stroke_order_diagram--bounding_box"></line><path id="pathSk2v596cn4b5g" kvg:type="㇑" d="M30.22,16.14c0.7,0.77,1.11,1.68,1.24,2.72c0.79,5.52,1.36,9.43,2.05,14.89c0.21,1.68,0.41,3.33,0.6,4.85" transform="matrix(1,0,0,1,796,-4)" class="stroke_order_diagram--existing_path"></path><path id="pathSk2v596cn4b5h" kvg:type="㇕a" d="M32.28,17.3c14.22-1.55,33.47-3.77,42.25-4.45c3.22-0.25,3.95,1.72,3.69,4.15c-0.34,3.11-1.35,7.75-2.7,13.57c-0.36,1.57-0.75,3.19-1.15,4.83" transform="matrix(1,0,0,1,796,-4)" class="stroke_order_diagram--existing_path"></path><path id="pathSk2v596cn4b5i" kvg:type="㇐a" d="M33.94,26.71C44,25.5,69.88,23,76.21,22.69" transform="matrix(1,0,0,1,796,-4)" class="stroke_order_diagram--existing_path"></path><path id="pathSk2v596cn4b5j" kvg:type="㇐a" d="M35.28,36.33c12.01-1.36,26.75-3.3,38.43-3.79" transform="matrix(1,0,0,1,796,-4)" class="stroke_order_diagram--existing_path"></path><path id="pathSk2v596cn4b5k" kvg:type="㇑" d="M26.29,45.19c0.82,0.82,1.26,1.92,1.32,2.63c0.39,4.42,0.99,10.66,1.71,16.69c0.26,2.16,0.48,3.96,0.61,4.99" transform="matrix(1,0,0,1,796,-4)" class="stroke_order_diagram--existing_path"></path><path id="pathSk2v596cn4b5l" kvg:type="㇆a" d="M28.38,47.51c7.67-0.84,50.03-5.36,51.57-5.42c3.32-0.12,4.33,1.99,4.18,4.91c-0.31,5.71-1.33,13.22-3.58,18.07c-2.58,5.59-3.83,3.32-6.68,0.17" transform="matrix(1,0,0,1,796,-4)" class="stroke_order_diagram--existing_path"></path><path id="pathSk2v596cn4b5m" kvg:type="㇑a" d="M52.97,17.48c0.77,0.77,1.03,1.77,1.03,2.93c0,6.46,0.12,32.44,0.12,35.96" transform="matrix(1,0,0,1,796,-4)" class="stroke_order_diagram--existing_path"></path><path id="pathSk2v596cn4b5n" kvg:type="㇀" d="M40.67,60.21c0.95,1.04,2.56,0.82,3.74,0.46c3.32-1.02,15.21-4.66,23.43-7.26" transform="matrix(1,0,0,1,796,-4)" class="stroke_order_diagram--existing_path"></path><path id="kvg:0611a-s9" kvg:type="㇔" d="M63.65,49.06c3.03,1.54,7.82,6.43,8.57,8.92" transform="matrix(1,0,0,1,796,-4)" class="stroke_order_diagram--current_path"></path><path id="pathSk2v596cn4b5p" kvg:type="㇔" d="M63.65,49.06c3.03,1.54,7.82,6.43,8.57,8.92" transform="matrix(1,0,0,1,796,-4)" class="stroke_order_diagram--current_path"></path><circle cx="63.65" cy="49.06" r="8" class="stroke_order_diagram--path_start" transform="matrix(1,0,0,1,796,-4)"></circle><line x1="950" x2="950" y1="1" y2="99" class="stroke_order_diagram--guide_line"></line><line x1="999" x2="999" y1="1" y2="99" class="stroke_order_diagram--bounding_box"></line><path id="pathSk2v596cn4b5s" kvg:type="㇑" d="M30.22,16.14c0.7,0.77,1.11,1.68,1.24,2.72c0.79,5.52,1.36,9.43,2.05,14.89c0.21,1.68,0.41,3.33,0.6,4.85" transform="matrix(1,0,0,1,896,-4)" class="stroke_order_diagram--existing_path"></path><path id="pathSk2v596cn4b5t" kvg:type="㇕a" d="M32.28,17.3c14.22-1.55,33.47-3.77,42.25-4.45c3.22-0.25,3.95,1.72,3.69,4.15c-0.34,3.11-1.35,7.75-2.7,13.57c-0.36,1.57-0.75,3.19-1.15,4.83" transform="matrix(1,0,0,1,896,-4)" class="stroke_order_diagram--existing_path"></path><path id="pathSk2v596cn4b5u" kvg:type="㇐a" d="M33.94,26.71C44,25.5,69.88,23,76.21,22.69" transform="matrix(1,0,0,1,896,-4)" class="stroke_order_diagram--existing_path"></path><path id="pathSk2v596cn4b5v" kvg:type="㇐a" d="M35.28,36.33c12.01-1.36,26.75-3.3,38.43-3.79" transform="matrix(1,0,0,1,896,-4)" class="stroke_order_diagram--existing_path"></path><path id="pathSk2v596cn4b5w" kvg:type="㇑" d="M26.29,45.19c0.82,0.82,1.26,1.92,1.32,2.63c0.39,4.42,0.99,10.66,1.71,16.69c0.26,2.16,0.48,3.96,0.61,4.99" transform="matrix(1,0,0,1,896,-4)" class="stroke_order_diagram--existing_path"></path><path id="pathSk2v596cn4b5x" kvg:type="㇆a" d="M28.38,47.51c7.67-0.84,50.03-5.36,51.57-5.42c3.32-0.12,4.33,1.99,4.18,4.91c-0.31,5.71-1.33,13.22-3.58,18.07c-2.58,5.59-3.83,3.32-6.68,0.17" transform="matrix(1,0,0,1,896,-4)" class="stroke_order_diagram--existing_path"></path><path id="pathSk2v596cn4b5y" kvg:type="㇑a" d="M52.97,17.48c0.77,0.77,1.03,1.77,1.03,2.93c0,6.46,0.12,32.44,0.12,35.96" transform="matrix(1,0,0,1,896,-4)" class="stroke_order_diagram--existing_path"></path><path id="pathSk2v596cn4b5z" kvg:type="㇀" d="M40.67,60.21c0.95,1.04,2.56,0.82,3.74,0.46c3.32-1.02,15.21-4.66,23.43-7.26" transform="matrix(1,0,0,1,896,-4)" class="stroke_order_diagram--existing_path"></path><path id="pathSk2v596cn4b60" kvg:type="㇔" d="M63.65,49.06c3.03,1.54,7.82,6.43,8.57,8.92" transform="matrix(1,0,0,1,896,-4)" class="stroke_order_diagram--existing_path"></path><path id="kvg:0611a-s10" kvg:type="㇔" d="M25.37,79.12c0.29,2.24-2.94,12.13-5.29,15.86" transform="matrix(1,0,0,1,896,-4)" class="stroke_order_diagram--current_path"></path><path id="pathSk2v596cn4b62" kvg:type="㇔" d="M25.37,79.12c0.29,2.24-2.94,12.13-5.29,15.86" transform="matrix(1,0,0,1,896,-4)" class="stroke_order_diagram--current_path"></path><circle cx="25.37" cy="79.12" r="8" class="stroke_order_diagram--path_start" transform="matrix(1,0,0,1,896,-4)"></circle><line x1="1050" x2="1050" y1="1" y2="99" class="stroke_order_diagram--guide_line"></line><line x1="1099" x2="1099" y1="1" y2="99" class="stroke_order_diagram--bounding_box"></line><path id="pathSk2v596cn4b65" kvg:type="㇑" d="M30.22,16.14c0.7,0.77,1.11,1.68,1.24,2.72c0.79,5.52,1.36,9.43,2.05,14.89c0.21,1.68,0.41,3.33,0.6,4.85" transform="matrix(1,0,0,1,996,-4)" class="stroke_order_diagram--existing_path"></path><path id="pathSk2v596cn4b66" kvg:type="㇕a" d="M32.28,17.3c14.22-1.55,33.47-3.77,42.25-4.45c3.22-0.25,3.95,1.72,3.69,4.15c-0.34,3.11-1.35,7.75-2.7,13.57c-0.36,1.57-0.75,3.19-1.15,4.83" transform="matrix(1,0,0,1,996,-4)" class="stroke_order_diagram--existing_path"></path><path id="pathSk2v596cn4b67" kvg:type="㇐a" d="M33.94,26.71C44,25.5,69.88,23,76.21,22.69" transform="matrix(1,0,0,1,996,-4)" class="stroke_order_diagram--existing_path"></path><path id="pathSk2v596cn4b68" kvg:type="㇐a" d="M35.28,36.33c12.01-1.36,26.75-3.3,38.43-3.79" transform="matrix(1,0,0,1,996,-4)" class="stroke_order_diagram--existing_path"></path><path id="pathSk2v596cn4b69" kvg:type="㇑" d="M26.29,45.19c0.82,0.82,1.26,1.92,1.32,2.63c0.39,4.42,0.99,10.66,1.71,16.69c0.26,2.16,0.48,3.96,0.61,4.99" transform="matrix(1,0,0,1,996,-4)" class="stroke_order_diagram--existing_path"></path><path id="pathSk2v596cn4b6a" kvg:type="㇆a" d="M28.38,47.51c7.67-0.84,50.03-5.36,51.57-5.42c3.32-0.12,4.33,1.99,4.18,4.91c-0.31,5.71-1.33,13.22-3.58,18.07c-2.58,5.59-3.83,3.32-6.68,0.17" transform="matrix(1,0,0,1,996,-4)" class="stroke_order_diagram--existing_path"></path><path id="pathSk2v596cn4b6b" kvg:type="㇑a" d="M52.97,17.48c0.77,0.77,1.03,1.77,1.03,2.93c0,6.46,0.12,32.44,0.12,35.96" transform="matrix(1,0,0,1,996,-4)" class="stroke_order_diagram--existing_path"></path><path id="pathSk2v596cn4b6c" kvg:type="㇀" d="M40.67,60.21c0.95,1.04,2.56,0.82,3.74,0.46c3.32-1.02,15.21-4.66,23.43-7.26" transform="matrix(1,0,0,1,996,-4)" class="stroke_order_diagram--existing_path"></path><path id="pathSk2v596cn4b6d" kvg:type="㇔" d="M63.65,49.06c3.03,1.54,7.82,6.43,8.57,8.92" transform="matrix(1,0,0,1,996,-4)" class="stroke_order_diagram--existing_path"></path><path id="pathSk2v596cn4b6e" kvg:type="㇔" d="M25.37,79.12c0.29,2.24-2.94,12.13-5.29,15.86" transform="matrix(1,0,0,1,996,-4)" class="stroke_order_diagram--existing_path"></path><path id="kvg:0611a-s11" kvg:type="㇟b" d="M34.75,75.5c10.25,14.5,15,21,42.46,20.93c8.54-0.02,9.79-3.56,2.64-7.51" transform="matrix(1,0,0,1,996,-4)" class="stroke_order_diagram--current_path"></path><path id="pathSk2v596cn4b6g" kvg:type="㇟b" d="M34.75,75.5c10.25,14.5,15,21,42.46,20.93c8.54-0.02,9.79-3.56,2.64-7.51" transform="matrix(1,0,0,1,996,-4)" class="stroke_order_diagram--current_path"></path><circle cx="34.75" cy="75.5" r="8" class="stroke_order_diagram--path_start" transform="matrix(1,0,0,1,996,-4)"></circle><line x1="1150" x2="1150" y1="1" y2="99" class="stroke_order_diagram--guide_line"></line><line x1="1199" x2="1199" y1="1" y2="99" class="stroke_order_diagram--bounding_box"></line><path id="pathSk2v596cn4b6j" kvg:type="㇑" d="M30.22,16.14c0.7,0.77,1.11,1.68,1.24,2.72c0.79,5.52,1.36,9.43,2.05,14.89c0.21,1.68,0.41,3.33,0.6,4.85" transform="matrix(1,0,0,1,1096,-4)" class="stroke_order_diagram--existing_path"></path><path id="pathSk2v596cn4b6k" kvg:type="㇕a" d="M32.28,17.3c14.22-1.55,33.47-3.77,42.25-4.45c3.22-0.25,3.95,1.72,3.69,4.15c-0.34,3.11-1.35,7.75-2.7,13.57c-0.36,1.57-0.75,3.19-1.15,4.83" transform="matrix(1,0,0,1,1096,-4)" class="stroke_order_diagram--existing_path"></path><path id="pathSk2v596cn4b6l" kvg:type="㇐a" d="M33.94,26.71C44,25.5,69.88,23,76.21,22.69" transform="matrix(1,0,0,1,1096,-4)" class="stroke_order_diagram--existing_path"></path><path id="pathSk2v596cn4b6m" kvg:type="㇐a" d="M35.28,36.33c12.01-1.36,26.75-3.3,38.43-3.79" transform="matrix(1,0,0,1,1096,-4)" class="stroke_order_diagram--existing_path"></path><path id="pathSk2v596cn4b6n" kvg:type="㇑" d="M26.29,45.19c0.82,0.82,1.26,1.92,1.32,2.63c0.39,4.42,0.99,10.66,1.71,16.69c0.26,2.16,0.48,3.96,0.61,4.99" transform="matrix(1,0,0,1,1096,-4)" class="stroke_order_diagram--existing_path"></path><path id="pathSk2v596cn4b6o" kvg:type="㇆a" d="M28.38,47.51c7.67-0.84,50.03-5.36,51.57-5.42c3.32-0.12,4.33,1.99,4.18,4.91c-0.31,5.71-1.33,13.22-3.58,18.07c-2.58,5.59-3.83,3.32-6.68,0.17" transform="matrix(1,0,0,1,1096,-4)" class="stroke_order_diagram--existing_path"></path><path id="pathSk2v596cn4b6p" kvg:type="㇑a" d="M52.97,17.48c0.77,0.77,1.03,1.77,1.03,2.93c0,6.46,0.12,32.44,0.12,35.96" transform="matrix(1,0,0,1,1096,-4)" class="stroke_order_diagram--existing_path"></path><path id="pathSk2v596cn4b6q" kvg:type="㇀" d="M40.67,60.21c0.95,1.04,2.56,0.82,3.74,0.46c3.32-1.02,15.21-4.66,23.43-7.26" transform="matrix(1,0,0,1,1096,-4)" class="stroke_order_diagram--existing_path"></path><path id="pathSk2v596cn4b6r" kvg:type="㇔" d="M63.65,49.06c3.03,1.54,7.82,6.43,8.57,8.92" transform="matrix(1,0,0,1,1096,-4)" class="stroke_order_diagram--existing_path"></path><path id="pathSk2v596cn4b6s" kvg:type="㇔" d="M25.37,79.12c0.29,2.24-2.94,12.13-5.29,15.86" transform="matrix(1,0,0,1,1096,-4)" class="stroke_order_diagram--existing_path"></path><path id="pathSk2v596cn4b6t" kvg:type="㇟b" d="M34.75,75.5c10.25,14.5,15,21,42.46,20.93c8.54-0.02,9.79-3.56,2.64-7.51" transform="matrix(1,0,0,1,1096,-4)" class="stroke_order_diagram--existing_path"></path><path id="kvg:0611a-s12" kvg:type="㇔a" d="M55.77,72.75c2.36,4.38,6.11,8.69,7.12,4.46" transform="matrix(1,0,0,1,1096,-4)" class="stroke_order_diagram--current_path"></path><path id="pathSk2v596cn4b6v" kvg:type="㇔a" d="M55.77,72.75c2.36,4.38,6.11,8.69,7.12,4.46" transform="matrix(1,0,0,1,1096,-4)" class="stroke_order_diagram--current_path"></path><circle cx="55.77" cy="72.75" r="8" class="stroke_order_diagram--path_start" transform="matrix(1,0,0,1,1096,-4)"></circle><line x1="1250" x2="1250" y1="1" y2="99" class="stroke_order_diagram--guide_line"></line><line x1="1299" x2="1299" y1="1" y2="99" class="stroke_order_diagram--bounding_box"></line><path id="pathSk2v596cn4b6y" kvg:type="㇑" d="M30.22,16.14c0.7,0.77,1.11,1.68,1.24,2.72c0.79,5.52,1.36,9.43,2.05,14.89c0.21,1.68,0.41,3.33,0.6,4.85" transform="matrix(1,0,0,1,1196,-4)" class="stroke_order_diagram--existing_path"></path><path id="pathSk2v596cn4b6z" kvg:type="㇕a" d="M32.28,17.3c14.22-1.55,33.47-3.77,42.25-4.45c3.22-0.25,3.95,1.72,3.69,4.15c-0.34,3.11-1.35,7.75-2.7,13.57c-0.36,1.57-0.75,3.19-1.15,4.83" transform="matrix(1,0,0,1,1196,-4)" class="stroke_order_diagram--existing_path"></path><path id="pathSk2v596cn4b70" kvg:type="㇐a" d="M33.94,26.71C44,25.5,69.88,23,76.21,22.69" transform="matrix(1,0,0,1,1196,-4)" class="stroke_order_diagram--existing_path"></path><path id="pathSk2v596cn4b71" kvg:type="㇐a" d="M35.28,36.33c12.01-1.36,26.75-3.3,38.43-3.79" transform="matrix(1,0,0,1,1196,-4)" class="stroke_order_diagram--existing_path"></path><path id="pathSk2v596cn4b72" kvg:type="㇑" d="M26.29,45.19c0.82,0.82,1.26,1.92,1.32,2.63c0.39,4.42,0.99,10.66,1.71,16.69c0.26,2.16,0.48,3.96,0.61,4.99" transform="matrix(1,0,0,1,1196,-4)" class="stroke_order_diagram--existing_path"></path><path id="pathSk2v596cn4b73" kvg:type="㇆a" d="M28.38,47.51c7.67-0.84,50.03-5.36,51.57-5.42c3.32-0.12,4.33,1.99,4.18,4.91c-0.31,5.71-1.33,13.22-3.58,18.07c-2.58,5.59-3.83,3.32-6.68,0.17" transform="matrix(1,0,0,1,1196,-4)" class="stroke_order_diagram--existing_path"></path><path id="pathSk2v596cn4b74" kvg:type="㇑a" d="M52.97,17.48c0.77,0.77,1.03,1.77,1.03,2.93c0,6.46,0.12,32.44,0.12,35.96" transform="matrix(1,0,0,1,1196,-4)" class="stroke_order_diagram--existing_path"></path><path id="pathSk2v596cn4b75" kvg:type="㇀" d="M40.67,60.21c0.95,1.04,2.56,0.82,3.74,0.46c3.32-1.02,15.21-4.66,23.43-7.26" transform="matrix(1,0,0,1,1196,-4)" class="stroke_order_diagram--existing_path"></path><path id="pathSk2v596cn4b76" kvg:type="㇔" d="M63.65,49.06c3.03,1.54,7.82,6.43,8.57,8.92" transform="matrix(1,0,0,1,1196,-4)" class="stroke_order_diagram--existing_path"></path><path id="pathSk2v596cn4b77" kvg:type="㇔" d="M25.37,79.12c0.29,2.24-2.94,12.13-5.29,15.86" transform="matrix(1,0,0,1,1196,-4)" class="stroke_order_diagram--existing_path"></path><path id="pathSk2v596cn4b78" kvg:type="㇟b" d="M34.75,75.5c10.25,14.5,15,21,42.46,20.93c8.54-0.02,9.79-3.56,2.64-7.51" transform="matrix(1,0,0,1,1196,-4)" class="stroke_order_diagram--existing_path"></path><path id="pathSk2v596cn4b79" kvg:type="㇔a" d="M55.77,72.75c2.36,4.38,6.11,8.69,7.12,4.46" transform="matrix(1,0,0,1,1196,-4)" class="stroke_order_diagram--existing_path"></path><path id="kvg:0611a-s13" kvg:type="㇔" d="M81.7,74.98c5.28,1.82,9.42,4.64,13.53,9.11" transform="matrix(1,0,0,1,1196,-4)" class="stroke_order_diagram--current_path"></path><path id="pathSk2v596cn4b7b" kvg:type="㇔" d="M81.7,74.98c5.28,1.82,9.42,4.64,13.53,9.11" transform="matrix(1,0,0,1,1196,-4)" class="stroke_order_diagram--current_path"></path><circle cx="81.7" cy="74.98" r="8" class="stroke_order_diagram--path_start" transform="matrix(1,0,0,1,1196,-4)"></circle></svg>