<svg style="width: 1400px; height: 100px;" viewbox="0 0 1400 100"><style>
.stroke_order_diagram--outer_container {
  width: 100%;
  overflow-x: auto;
  overflow-y: hidden;
}

.stroke_order_diagram--guide_line {
  fill: none;
  stroke: #ddd;
  stroke-width: 3;
  stroke-linecap: square;
  stroke-linejoin: square;
  stroke-dasharray:8, 8;
}

.stroke_order_diagram--bounding_box {
  fill: none;
  stroke: #ddd;
  stroke-width: 4;
  stroke-linecap: square;
  stroke-linejoin: square;
}

.stroke_order_diagram--current_path {
  fill: none;
  stroke: #000;
  stroke-width: 6;
  stroke-linecap: round;
  stroke-linejoin: round;
}

.stroke_order_diagram--existing_path {
  fill: none;
  stroke: #aaa;
  stroke-width: 6;
  stroke-linecap: round;
  stroke-linejoin:round;
}

.stroke_order_diagram--path_start {
  fill: rgba(255, 0, 0, 0.7);
  stroke:none
}</style><desc>Created with Snap</desc><defs></defs><line x1="1" x2="1399" y1="1" y2="1" class="stroke_order_diagram--bounding_box"></line><line x1="1" x2="1" y1="1" y2="99" class="stroke_order_diagram--bounding_box"></line><line x1="1" x2="1399" y1="99" y2="99" class="stroke_order_diagram--bounding_box"></line><line x1="0" x2="1400" y1="50" y2="50" class="stroke_order_diagram--guide_line"></line><line x1="50" x2="50" y1="1" y2="99" class="stroke_order_diagram--guide_line"></line><line x1="99" x2="99" y1="1" y2="99" class="stroke_order_diagram--bounding_box"></line><path id="kvg:06155-s1" kvg:type="㇐" d="M22.5,20.06c2.62,0.57,5.66,0.45,8.4,0.1c13.22-1.66,33.35-3.51,46.35-4c2.87-0.11,5.44,0.02,8.25,0.6" transform="matrix(1,0,0,1,-4,-4)" class="stroke_order_diagram--current_path"></path><path id="pathSk2v596cn4vu3" kvg:type="㇐" d="M22.5,20.06c2.62,0.57,5.66,0.45,8.4,0.1c13.22-1.66,33.35-3.51,46.35-4c2.87-0.11,5.44,0.02,8.25,0.6" transform="matrix(1,0,0,1,-4,-4)" class="stroke_order_diagram--current_path"></path><circle cx="22.5" cy="20.06" r="8" class="stroke_order_diagram--path_start" transform="matrix(1,0,0,1,-4,-4)"></circle><line x1="150" x2="150" y1="1" y2="99" class="stroke_order_diagram--guide_line"></line><line x1="199" x2="199" y1="1" y2="99" class="stroke_order_diagram--bounding_box"></line><path id="pathSk2v596cn4vu6" kvg:type="㇐" d="M22.5,20.06c2.62,0.57,5.66,0.45,8.4,0.1c13.22-1.66,33.35-3.51,46.35-4c2.87-0.11,5.44,0.02,8.25,0.6" transform="matrix(1,0,0,1,96,-4)" class="stroke_order_diagram--existing_path"></path><path id="kvg:06155-s2" kvg:type="㇑a" d="M38,10.74c1.12,0.51,1.56,1.52,1.75,2.24c1.75,6.71,2.25,10.66,2.75,13.1" transform="matrix(1,0,0,1,96,-4)" class="stroke_order_diagram--current_path"></path><path id="pathSk2v596cn4vu8" kvg:type="㇑a" d="M38,10.74c1.12,0.51,1.56,1.52,1.75,2.24c1.75,6.71,2.25,10.66,2.75,13.1" transform="matrix(1,0,0,1,96,-4)" class="stroke_order_diagram--current_path"></path><circle cx="38" cy="10.74" r="8" class="stroke_order_diagram--path_start" transform="matrix(1,0,0,1,96,-4)"></circle><line x1="250" x2="250" y1="1" y2="99" class="stroke_order_diagram--guide_line"></line><line x1="299" x2="299" y1="1" y2="99" class="stroke_order_diagram--bounding_box"></line><path id="pathSk2v596cn4vub" kvg:type="㇐" d="M22.5,20.06c2.62,0.57,5.66,0.45,8.4,0.1c13.22-1.66,33.35-3.51,46.35-4c2.87-0.11,5.44,0.02,8.25,0.6" transform="matrix(1,0,0,1,196,-4)" class="stroke_order_diagram--existing_path"></path><path id="pathSk2v596cn4vuc" kvg:type="㇑a" d="M38,10.74c1.12,0.51,1.56,1.52,1.75,2.24c1.75,6.71,2.25,10.66,2.75,13.1" transform="matrix(1,0,0,1,196,-4)" class="stroke_order_diagram--existing_path"></path><path id="kvg:06155-s3" kvg:type="㇑a" d="M66.57,9.5c0.38,0.86,0.28,1.98-0.05,3.06c-1.56,5.12-1.98,7.12-3.76,12.24" transform="matrix(1,0,0,1,196,-4)" class="stroke_order_diagram--current_path"></path><path id="pathSk2v596cn4vue" kvg:type="㇑a" d="M66.57,9.5c0.38,0.86,0.28,1.98-0.05,3.06c-1.56,5.12-1.98,7.12-3.76,12.24" transform="matrix(1,0,0,1,196,-4)" class="stroke_order_diagram--current_path"></path><circle cx="66.57" cy="9.5" r="8" class="stroke_order_diagram--path_start" transform="matrix(1,0,0,1,196,-4)"></circle><line x1="350" x2="350" y1="1" y2="99" class="stroke_order_diagram--guide_line"></line><line x1="399" x2="399" y1="1" y2="99" class="stroke_order_diagram--bounding_box"></line><path id="pathSk2v596cn4vuh" kvg:type="㇐" d="M22.5,20.06c2.62,0.57,5.66,0.45,8.4,0.1c13.22-1.66,33.35-3.51,46.35-4c2.87-0.11,5.44,0.02,8.25,0.6" transform="matrix(1,0,0,1,296,-4)" class="stroke_order_diagram--existing_path"></path><path id="pathSk2v596cn4vui" kvg:type="㇑a" d="M38,10.74c1.12,0.51,1.56,1.52,1.75,2.24c1.75,6.71,2.25,10.66,2.75,13.1" transform="matrix(1,0,0,1,296,-4)" class="stroke_order_diagram--existing_path"></path><path id="pathSk2v596cn4vuj" kvg:type="㇑a" d="M66.57,9.5c0.38,0.86,0.28,1.98-0.05,3.06c-1.56,5.12-1.98,7.12-3.76,12.24" transform="matrix(1,0,0,1,296,-4)" class="stroke_order_diagram--existing_path"></path><path id="kvg:06155-s4" kvg:type="㇑" d="M32.27,31.21c0.64,0.64,1.11,1.54,1.4,2.74c0.77,3.15,1.79,9.62,2.48,13.02c0.26,1.29,0.59,3.02,0.75,3.6" transform="matrix(1,0,0,1,296,-4)" class="stroke_order_diagram--current_path"></path><path id="pathSk2v596cn4vul" kvg:type="㇑" d="M32.27,31.21c0.64,0.64,1.11,1.54,1.4,2.74c0.77,3.15,1.79,9.62,2.48,13.02c0.26,1.29,0.59,3.02,0.75,3.6" transform="matrix(1,0,0,1,296,-4)" class="stroke_order_diagram--current_path"></path><circle cx="32.27" cy="31.21" r="8" class="stroke_order_diagram--path_start" transform="matrix(1,0,0,1,296,-4)"></circle><line x1="450" x2="450" y1="1" y2="99" class="stroke_order_diagram--guide_line"></line><line x1="499" x2="499" y1="1" y2="99" class="stroke_order_diagram--bounding_box"></line><path id="pathSk2v596cn4vuo" kvg:type="㇐" d="M22.5,20.06c2.62,0.57,5.66,0.45,8.4,0.1c13.22-1.66,33.35-3.51,46.35-4c2.87-0.11,5.44,0.02,8.25,0.6" transform="matrix(1,0,0,1,396,-4)" class="stroke_order_diagram--existing_path"></path><path id="pathSk2v596cn4vup" kvg:type="㇑a" d="M38,10.74c1.12,0.51,1.56,1.52,1.75,2.24c1.75,6.71,2.25,10.66,2.75,13.1" transform="matrix(1,0,0,1,396,-4)" class="stroke_order_diagram--existing_path"></path><path id="pathSk2v596cn4vuq" kvg:type="㇑a" d="M66.57,9.5c0.38,0.86,0.28,1.98-0.05,3.06c-1.56,5.12-1.98,7.12-3.76,12.24" transform="matrix(1,0,0,1,396,-4)" class="stroke_order_diagram--existing_path"></path><path id="pathSk2v596cn4vur" kvg:type="㇑" d="M32.27,31.21c0.64,0.64,1.11,1.54,1.4,2.74c0.77,3.15,1.79,9.62,2.48,13.02c0.26,1.29,0.59,3.02,0.75,3.6" transform="matrix(1,0,0,1,396,-4)" class="stroke_order_diagram--existing_path"></path><path id="kvg:06155-s5" kvg:type="㇕a" d="M34.45,32.78c8.6-1.14,27.8-3.28,35.55-3.67c2.22-0.11,4.31,0.92,3.81,3.51c-0.58,2.93-1.97,8.11-2.95,11.98c-0.35,1.4-0.68,2.62-0.95,3.51" transform="matrix(1,0,0,1,396,-4)" class="stroke_order_diagram--current_path"></path><path id="pathSk2v596cn4vut" kvg:type="㇕a" d="M34.45,32.78c8.6-1.14,27.8-3.28,35.55-3.67c2.22-0.11,4.31,0.92,3.81,3.51c-0.58,2.93-1.97,8.11-2.95,11.98c-0.35,1.4-0.68,2.62-0.95,3.51" transform="matrix(1,0,0,1,396,-4)" class="stroke_order_diagram--current_path"></path><circle cx="34.45" cy="32.78" r="8" class="stroke_order_diagram--path_start" transform="matrix(1,0,0,1,396,-4)"></circle><line x1="550" x2="550" y1="1" y2="99" class="stroke_order_diagram--guide_line"></line><line x1="599" x2="599" y1="1" y2="99" class="stroke_order_diagram--bounding_box"></line><path id="pathSk2v596cn4vuw" kvg:type="㇐" d="M22.5,20.06c2.62,0.57,5.66,0.45,8.4,0.1c13.22-1.66,33.35-3.51,46.35-4c2.87-0.11,5.44,0.02,8.25,0.6" transform="matrix(1,0,0,1,496,-4)" class="stroke_order_diagram--existing_path"></path><path id="pathSk2v596cn4vux" kvg:type="㇑a" d="M38,10.74c1.12,0.51,1.56,1.52,1.75,2.24c1.75,6.71,2.25,10.66,2.75,13.1" transform="matrix(1,0,0,1,496,-4)" class="stroke_order_diagram--existing_path"></path><path id="pathSk2v596cn4vuy" kvg:type="㇑a" d="M66.57,9.5c0.38,0.86,0.28,1.98-0.05,3.06c-1.56,5.12-1.98,7.12-3.76,12.24" transform="matrix(1,0,0,1,496,-4)" class="stroke_order_diagram--existing_path"></path><path id="pathSk2v596cn4vuz" kvg:type="㇑" d="M32.27,31.21c0.64,0.64,1.11,1.54,1.4,2.74c0.77,3.15,1.79,9.62,2.48,13.02c0.26,1.29,0.59,3.02,0.75,3.6" transform="matrix(1,0,0,1,496,-4)" class="stroke_order_diagram--existing_path"></path><path id="pathSk2v596cn4vv0" kvg:type="㇕a" d="M34.45,32.78c8.6-1.14,27.8-3.28,35.55-3.67c2.22-0.11,4.31,0.92,3.81,3.51c-0.58,2.93-1.97,8.11-2.95,11.98c-0.35,1.4-0.68,2.62-0.95,3.51" transform="matrix(1,0,0,1,496,-4)" class="stroke_order_diagram--existing_path"></path><path id="kvg:06155-s6" kvg:type="㇐a" d="M36.17,40.63c7.83-0.88,28.08-2.88,35.33-3.15" transform="matrix(1,0,0,1,496,-4)" class="stroke_order_diagram--current_path"></path><path id="pathSk2v596cn4vv2" kvg:type="㇐a" d="M36.17,40.63c7.83-0.88,28.08-2.88,35.33-3.15" transform="matrix(1,0,0,1,496,-4)" class="stroke_order_diagram--current_path"></path><circle cx="36.17" cy="40.63" r="8" class="stroke_order_diagram--path_start" transform="matrix(1,0,0,1,496,-4)"></circle><line x1="650" x2="650" y1="1" y2="99" class="stroke_order_diagram--guide_line"></line><line x1="699" x2="699" y1="1" y2="99" class="stroke_order_diagram--bounding_box"></line><path id="pathSk2v596cn4vv5" kvg:type="㇐" d="M22.5,20.06c2.62,0.57,5.66,0.45,8.4,0.1c13.22-1.66,33.35-3.51,46.35-4c2.87-0.11,5.44,0.02,8.25,0.6" transform="matrix(1,0,0,1,596,-4)" class="stroke_order_diagram--existing_path"></path><path id="pathSk2v596cn4vv6" kvg:type="㇑a" d="M38,10.74c1.12,0.51,1.56,1.52,1.75,2.24c1.75,6.71,2.25,10.66,2.75,13.1" transform="matrix(1,0,0,1,596,-4)" class="stroke_order_diagram--existing_path"></path><path id="pathSk2v596cn4vv7" kvg:type="㇑a" d="M66.57,9.5c0.38,0.86,0.28,1.98-0.05,3.06c-1.56,5.12-1.98,7.12-3.76,12.24" transform="matrix(1,0,0,1,596,-4)" class="stroke_order_diagram--existing_path"></path><path id="pathSk2v596cn4vv8" kvg:type="㇑" d="M32.27,31.21c0.64,0.64,1.11,1.54,1.4,2.74c0.77,3.15,1.79,9.62,2.48,13.02c0.26,1.29,0.59,3.02,0.75,3.6" transform="matrix(1,0,0,1,596,-4)" class="stroke_order_diagram--existing_path"></path><path id="pathSk2v596cn4vv9" kvg:type="㇕a" d="M34.45,32.78c8.6-1.14,27.8-3.28,35.55-3.67c2.22-0.11,4.31,0.92,3.81,3.51c-0.58,2.93-1.97,8.11-2.95,11.98c-0.35,1.4-0.68,2.62-0.95,3.51" transform="matrix(1,0,0,1,596,-4)" class="stroke_order_diagram--existing_path"></path><path id="pathSk2v596cn4vva" kvg:type="㇐a" d="M36.17,40.63c7.83-0.88,28.08-2.88,35.33-3.15" transform="matrix(1,0,0,1,596,-4)" class="stroke_order_diagram--existing_path"></path><path id="kvg:06155-s7" kvg:type="㇐a" d="M37.83,48.84c8.8-0.59,22.24-2.07,31.38-2.34" transform="matrix(1,0,0,1,596,-4)" class="stroke_order_diagram--current_path"></path><path id="pathSk2v596cn4vvc" kvg:type="㇐a" d="M37.83,48.84c8.8-0.59,22.24-2.07,31.38-2.34" transform="matrix(1,0,0,1,596,-4)" class="stroke_order_diagram--current_path"></path><circle cx="37.83" cy="48.84" r="8" class="stroke_order_diagram--path_start" transform="matrix(1,0,0,1,596,-4)"></circle><line x1="750" x2="750" y1="1" y2="99" class="stroke_order_diagram--guide_line"></line><line x1="799" x2="799" y1="1" y2="99" class="stroke_order_diagram--bounding_box"></line><path id="pathSk2v596cn4vvf" kvg:type="㇐" d="M22.5,20.06c2.62,0.57,5.66,0.45,8.4,0.1c13.22-1.66,33.35-3.51,46.35-4c2.87-0.11,5.44,0.02,8.25,0.6" transform="matrix(1,0,0,1,696,-4)" class="stroke_order_diagram--existing_path"></path><path id="pathSk2v596cn4vvg" kvg:type="㇑a" d="M38,10.74c1.12,0.51,1.56,1.52,1.75,2.24c1.75,6.71,2.25,10.66,2.75,13.1" transform="matrix(1,0,0,1,696,-4)" class="stroke_order_diagram--existing_path"></path><path id="pathSk2v596cn4vvh" kvg:type="㇑a" d="M66.57,9.5c0.38,0.86,0.28,1.98-0.05,3.06c-1.56,5.12-1.98,7.12-3.76,12.24" transform="matrix(1,0,0,1,696,-4)" class="stroke_order_diagram--existing_path"></path><path id="pathSk2v596cn4vvi" kvg:type="㇑" d="M32.27,31.21c0.64,0.64,1.11,1.54,1.4,2.74c0.77,3.15,1.79,9.62,2.48,13.02c0.26,1.29,0.59,3.02,0.75,3.6" transform="matrix(1,0,0,1,696,-4)" class="stroke_order_diagram--existing_path"></path><path id="pathSk2v596cn4vvj" kvg:type="㇕a" d="M34.45,32.78c8.6-1.14,27.8-3.28,35.55-3.67c2.22-0.11,4.31,0.92,3.81,3.51c-0.58,2.93-1.97,8.11-2.95,11.98c-0.35,1.4-0.68,2.62-0.95,3.51" transform="matrix(1,0,0,1,696,-4)" class="stroke_order_diagram--existing_path"></path><path id="pathSk2v596cn4vvk" kvg:type="㇐a" d="M36.17,40.63c7.83-0.88,28.08-2.88,35.33-3.15" transform="matrix(1,0,0,1,696,-4)" class="stroke_order_diagram--existing_path"></path><path id="pathSk2v596cn4vvl" kvg:type="㇐a" d="M37.83,48.84c8.8-0.59,22.24-2.07,31.38-2.34" transform="matrix(1,0,0,1,696,-4)" class="stroke_order_diagram--existing_path"></path><path id="kvg:06155-s8" kvg:type="㇐" d="M15.38,62.55c3.08,0.82,6,0.64,9.13,0.35c14.03-1.3,42.65-3.25,58.87-4.3c2.86-0.18,6.38-0.02,9.12,0.92" transform="matrix(1,0,0,1,696,-4)" class="stroke_order_diagram--current_path"></path><path id="pathSk2v596cn4vvn" kvg:type="㇐" d="M15.38,62.55c3.08,0.82,6,0.64,9.13,0.35c14.03-1.3,42.65-3.25,58.87-4.3c2.86-0.18,6.38-0.02,9.12,0.92" transform="matrix(1,0,0,1,696,-4)" class="stroke_order_diagram--current_path"></path><circle cx="15.38" cy="62.55" r="8" class="stroke_order_diagram--path_start" transform="matrix(1,0,0,1,696,-4)"></circle><line x1="850" x2="850" y1="1" y2="99" class="stroke_order_diagram--guide_line"></line><line x1="899" x2="899" y1="1" y2="99" class="stroke_order_diagram--bounding_box"></line><path id="pathSk2v596cn4vvq" kvg:type="㇐" d="M22.5,20.06c2.62,0.57,5.66,0.45,8.4,0.1c13.22-1.66,33.35-3.51,46.35-4c2.87-0.11,5.44,0.02,8.25,0.6" transform="matrix(1,0,0,1,796,-4)" class="stroke_order_diagram--existing_path"></path><path id="pathSk2v596cn4vvr" kvg:type="㇑a" d="M38,10.74c1.12,0.51,1.56,1.52,1.75,2.24c1.75,6.71,2.25,10.66,2.75,13.1" transform="matrix(1,0,0,1,796,-4)" class="stroke_order_diagram--existing_path"></path><path id="pathSk2v596cn4vvs" kvg:type="㇑a" d="M66.57,9.5c0.38,0.86,0.28,1.98-0.05,3.06c-1.56,5.12-1.98,7.12-3.76,12.24" transform="matrix(1,0,0,1,796,-4)" class="stroke_order_diagram--existing_path"></path><path id="pathSk2v596cn4vvt" kvg:type="㇑" d="M32.27,31.21c0.64,0.64,1.11,1.54,1.4,2.74c0.77,3.15,1.79,9.62,2.48,13.02c0.26,1.29,0.59,3.02,0.75,3.6" transform="matrix(1,0,0,1,796,-4)" class="stroke_order_diagram--existing_path"></path><path id="pathSk2v596cn4vvu" kvg:type="㇕a" d="M34.45,32.78c8.6-1.14,27.8-3.28,35.55-3.67c2.22-0.11,4.31,0.92,3.81,3.51c-0.58,2.93-1.97,8.11-2.95,11.98c-0.35,1.4-0.68,2.62-0.95,3.51" transform="matrix(1,0,0,1,796,-4)" class="stroke_order_diagram--existing_path"></path><path id="pathSk2v596cn4vvv" kvg:type="㇐a" d="M36.17,40.63c7.83-0.88,28.08-2.88,35.33-3.15" transform="matrix(1,0,0,1,796,-4)" class="stroke_order_diagram--existing_path"></path><path id="pathSk2v596cn4vvw" kvg:type="㇐a" d="M37.83,48.84c8.8-0.59,22.24-2.07,31.38-2.34" transform="matrix(1,0,0,1,796,-4)" class="stroke_order_diagram--existing_path"></path><path id="pathSk2v596cn4vvx" kvg:type="㇐" d="M15.38,62.55c3.08,0.82,6,0.64,9.13,0.35c14.03-1.3,42.65-3.25,58.87-4.3c2.86-0.18,6.38-0.02,9.12,0.92" transform="matrix(1,0,0,1,796,-4)" class="stroke_order_diagram--existing_path"></path><path id="kvg:06155-s9" kvg:type="㇒" d="M47.91,50.93c0,1.19-0.14,2.25-0.66,3.18C39.88,67.25,31.38,76.5,14.25,87" transform="matrix(1,0,0,1,796,-4)" class="stroke_order_diagram--current_path"></path><path id="pathSk2v596cn4vvz" kvg:type="㇒" d="M47.91,50.93c0,1.19-0.14,2.25-0.66,3.18C39.88,67.25,31.38,76.5,14.25,87" transform="matrix(1,0,0,1,796,-4)" class="stroke_order_diagram--current_path"></path><circle cx="47.91" cy="50.93" r="8" class="stroke_order_diagram--path_start" transform="matrix(1,0,0,1,796,-4)"></circle><line x1="950" x2="950" y1="1" y2="99" class="stroke_order_diagram--guide_line"></line><line x1="999" x2="999" y1="1" y2="99" class="stroke_order_diagram--bounding_box"></line><path id="pathSk2v596cn4vw2" kvg:type="㇐" d="M22.5,20.06c2.62,0.57,5.66,0.45,8.4,0.1c13.22-1.66,33.35-3.51,46.35-4c2.87-0.11,5.44,0.02,8.25,0.6" transform="matrix(1,0,0,1,896,-4)" class="stroke_order_diagram--existing_path"></path><path id="pathSk2v596cn4vw3" kvg:type="㇑a" d="M38,10.74c1.12,0.51,1.56,1.52,1.75,2.24c1.75,6.71,2.25,10.66,2.75,13.1" transform="matrix(1,0,0,1,896,-4)" class="stroke_order_diagram--existing_path"></path><path id="pathSk2v596cn4vw4" kvg:type="㇑a" d="M66.57,9.5c0.38,0.86,0.28,1.98-0.05,3.06c-1.56,5.12-1.98,7.12-3.76,12.24" transform="matrix(1,0,0,1,896,-4)" class="stroke_order_diagram--existing_path"></path><path id="pathSk2v596cn4vw5" kvg:type="㇑" d="M32.27,31.21c0.64,0.64,1.11,1.54,1.4,2.74c0.77,3.15,1.79,9.62,2.48,13.02c0.26,1.29,0.59,3.02,0.75,3.6" transform="matrix(1,0,0,1,896,-4)" class="stroke_order_diagram--existing_path"></path><path id="pathSk2v596cn4vw6" kvg:type="㇕a" d="M34.45,32.78c8.6-1.14,27.8-3.28,35.55-3.67c2.22-0.11,4.31,0.92,3.81,3.51c-0.58,2.93-1.97,8.11-2.95,11.98c-0.35,1.4-0.68,2.62-0.95,3.51" transform="matrix(1,0,0,1,896,-4)" class="stroke_order_diagram--existing_path"></path><path id="pathSk2v596cn4vw7" kvg:type="㇐a" d="M36.17,40.63c7.83-0.88,28.08-2.88,35.33-3.15" transform="matrix(1,0,0,1,896,-4)" class="stroke_order_diagram--existing_path"></path><path id="pathSk2v596cn4vw8" kvg:type="㇐a" d="M37.83,48.84c8.8-0.59,22.24-2.07,31.38-2.34" transform="matrix(1,0,0,1,896,-4)" class="stroke_order_diagram--existing_path"></path><path id="pathSk2v596cn4vw9" kvg:type="㇐" d="M15.38,62.55c3.08,0.82,6,0.64,9.13,0.35c14.03-1.3,42.65-3.25,58.87-4.3c2.86-0.18,6.38-0.02,9.12,0.92" transform="matrix(1,0,0,1,896,-4)" class="stroke_order_diagram--existing_path"></path><path id="pathSk2v596cn4vwa" kvg:type="㇒" d="M47.91,50.93c0,1.19-0.14,2.25-0.66,3.18C39.88,67.25,31.38,76.5,14.25,87" transform="matrix(1,0,0,1,896,-4)" class="stroke_order_diagram--existing_path"></path><path id="kvg:06155-s10" kvg:type="㇏" d="M59.25,56.1c5.7,1.47,16.5,13.02,27.44,20.49c2.24,1.53,4.56,3.16,6.81,4.31" transform="matrix(1,0,0,1,896,-4)" class="stroke_order_diagram--current_path"></path><path id="pathSk2v596cn4vwc" kvg:type="㇏" d="M59.25,56.1c5.7,1.47,16.5,13.02,27.44,20.49c2.24,1.53,4.56,3.16,6.81,4.31" transform="matrix(1,0,0,1,896,-4)" class="stroke_order_diagram--current_path"></path><circle cx="59.25" cy="56.1" r="8" class="stroke_order_diagram--path_start" transform="matrix(1,0,0,1,896,-4)"></circle><line x1="1050" x2="1050" y1="1" y2="99" class="stroke_order_diagram--guide_line"></line><line x1="1099" x2="1099" y1="1" y2="99" class="stroke_order_diagram--bounding_box"></line><path id="pathSk2v596cn4vwf" kvg:type="㇐" d="M22.5,20.06c2.62,0.57,5.66,0.45,8.4,0.1c13.22-1.66,33.35-3.51,46.35-4c2.87-0.11,5.44,0.02,8.25,0.6" transform="matrix(1,0,0,1,996,-4)" class="stroke_order_diagram--existing_path"></path><path id="pathSk2v596cn4vwg" kvg:type="㇑a" d="M38,10.74c1.12,0.51,1.56,1.52,1.75,2.24c1.75,6.71,2.25,10.66,2.75,13.1" transform="matrix(1,0,0,1,996,-4)" class="stroke_order_diagram--existing_path"></path><path id="pathSk2v596cn4vwh" kvg:type="㇑a" d="M66.57,9.5c0.38,0.86,0.28,1.98-0.05,3.06c-1.56,5.12-1.98,7.12-3.76,12.24" transform="matrix(1,0,0,1,996,-4)" class="stroke_order_diagram--existing_path"></path><path id="pathSk2v596cn4vwi" kvg:type="㇑" d="M32.27,31.21c0.64,0.64,1.11,1.54,1.4,2.74c0.77,3.15,1.79,9.62,2.48,13.02c0.26,1.29,0.59,3.02,0.75,3.6" transform="matrix(1,0,0,1,996,-4)" class="stroke_order_diagram--existing_path"></path><path id="pathSk2v596cn4vwj" kvg:type="㇕a" d="M34.45,32.78c8.6-1.14,27.8-3.28,35.55-3.67c2.22-0.11,4.31,0.92,3.81,3.51c-0.58,2.93-1.97,8.11-2.95,11.98c-0.35,1.4-0.68,2.62-0.95,3.51" transform="matrix(1,0,0,1,996,-4)" class="stroke_order_diagram--existing_path"></path><path id="pathSk2v596cn4vwk" kvg:type="㇐a" d="M36.17,40.63c7.83-0.88,28.08-2.88,35.33-3.15" transform="matrix(1,0,0,1,996,-4)" class="stroke_order_diagram--existing_path"></path><path id="pathSk2v596cn4vwl" kvg:type="㇐a" d="M37.83,48.84c8.8-0.59,22.24-2.07,31.38-2.34" transform="matrix(1,0,0,1,996,-4)" class="stroke_order_diagram--existing_path"></path><path id="pathSk2v596cn4vwm" kvg:type="㇐" d="M15.38,62.55c3.08,0.82,6,0.64,9.13,0.35c14.03-1.3,42.65-3.25,58.87-4.3c2.86-0.18,6.38-0.02,9.12,0.92" transform="matrix(1,0,0,1,996,-4)" class="stroke_order_diagram--existing_path"></path><path id="pathSk2v596cn4vwn" kvg:type="㇒" d="M47.91,50.93c0,1.19-0.14,2.25-0.66,3.18C39.88,67.25,31.38,76.5,14.25,87" transform="matrix(1,0,0,1,996,-4)" class="stroke_order_diagram--existing_path"></path><path id="pathSk2v596cn4vwo" kvg:type="㇏" d="M59.25,56.1c5.7,1.47,16.5,13.02,27.44,20.49c2.24,1.53,4.56,3.16,6.81,4.31" transform="matrix(1,0,0,1,996,-4)" class="stroke_order_diagram--existing_path"></path><path id="kvg:06155-s11" kvg:type="㇚" d="M48.38,70.35c0.91,0.91,1.37,2.29,1.37,3.77c0,6.27,0.03,16.62,0.03,20.83c0,7.81-5.64,1.13-6.81,0.19" transform="matrix(1,0,0,1,996,-4)" class="stroke_order_diagram--current_path"></path><path id="pathSk2v596cn4vwq" kvg:type="㇚" d="M48.38,70.35c0.91,0.91,1.37,2.29,1.37,3.77c0,6.27,0.03,16.62,0.03,20.83c0,7.81-5.64,1.13-6.81,0.19" transform="matrix(1,0,0,1,996,-4)" class="stroke_order_diagram--current_path"></path><circle cx="48.38" cy="70.35" r="8" class="stroke_order_diagram--path_start" transform="matrix(1,0,0,1,996,-4)"></circle><line x1="1150" x2="1150" y1="1" y2="99" class="stroke_order_diagram--guide_line"></line><line x1="1199" x2="1199" y1="1" y2="99" class="stroke_order_diagram--bounding_box"></line><path id="pathSk2v596cn4vwt" kvg:type="㇐" d="M22.5,20.06c2.62,0.57,5.66,0.45,8.4,0.1c13.22-1.66,33.35-3.51,46.35-4c2.87-0.11,5.44,0.02,8.25,0.6" transform="matrix(1,0,0,1,1096,-4)" class="stroke_order_diagram--existing_path"></path><path id="pathSk2v596cn4vwu" kvg:type="㇑a" d="M38,10.74c1.12,0.51,1.56,1.52,1.75,2.24c1.75,6.71,2.25,10.66,2.75,13.1" transform="matrix(1,0,0,1,1096,-4)" class="stroke_order_diagram--existing_path"></path><path id="pathSk2v596cn4vwv" kvg:type="㇑a" d="M66.57,9.5c0.38,0.86,0.28,1.98-0.05,3.06c-1.56,5.12-1.98,7.12-3.76,12.24" transform="matrix(1,0,0,1,1096,-4)" class="stroke_order_diagram--existing_path"></path><path id="pathSk2v596cn4vww" kvg:type="㇑" d="M32.27,31.21c0.64,0.64,1.11,1.54,1.4,2.74c0.77,3.15,1.79,9.62,2.48,13.02c0.26,1.29,0.59,3.02,0.75,3.6" transform="matrix(1,0,0,1,1096,-4)" class="stroke_order_diagram--existing_path"></path><path id="pathSk2v596cn4vwx" kvg:type="㇕a" d="M34.45,32.78c8.6-1.14,27.8-3.28,35.55-3.67c2.22-0.11,4.31,0.92,3.81,3.51c-0.58,2.93-1.97,8.11-2.95,11.98c-0.35,1.4-0.68,2.62-0.95,3.51" transform="matrix(1,0,0,1,1096,-4)" class="stroke_order_diagram--existing_path"></path><path id="pathSk2v596cn4vwy" kvg:type="㇐a" d="M36.17,40.63c7.83-0.88,28.08-2.88,35.33-3.15" transform="matrix(1,0,0,1,1096,-4)" class="stroke_order_diagram--existing_path"></path><path id="pathSk2v596cn4vwz" kvg:type="㇐a" d="M37.83,48.84c8.8-0.59,22.24-2.07,31.38-2.34" transform="matrix(1,0,0,1,1096,-4)" class="stroke_order_diagram--existing_path"></path><path id="pathSk2v596cn4vx0" kvg:type="㇐" d="M15.38,62.55c3.08,0.82,6,0.64,9.13,0.35c14.03-1.3,42.65-3.25,58.87-4.3c2.86-0.18,6.38-0.02,9.12,0.92" transform="matrix(1,0,0,1,1096,-4)" class="stroke_order_diagram--existing_path"></path><path id="pathSk2v596cn4vx1" kvg:type="㇒" d="M47.91,50.93c0,1.19-0.14,2.25-0.66,3.18C39.88,67.25,31.38,76.5,14.25,87" transform="matrix(1,0,0,1,1096,-4)" class="stroke_order_diagram--existing_path"></path><path id="pathSk2v596cn4vx2" kvg:type="㇏" d="M59.25,56.1c5.7,1.47,16.5,13.02,27.44,20.49c2.24,1.53,4.56,3.16,6.81,4.31" transform="matrix(1,0,0,1,1096,-4)" class="stroke_order_diagram--existing_path"></path><path id="pathSk2v596cn4vx3" kvg:type="㇚" d="M48.38,70.35c0.91,0.91,1.37,2.29,1.37,3.77c0,6.27,0.03,16.62,0.03,20.83c0,7.81-5.64,1.13-6.81,0.19" transform="matrix(1,0,0,1,1096,-4)" class="stroke_order_diagram--existing_path"></path><path id="kvg:06155-s12" kvg:type="㇔" d="M36.62,81.38c0,4.38-4.67,10.84-5.89,12.09" transform="matrix(1,0,0,1,1096,-4)" class="stroke_order_diagram--current_path"></path><path id="pathSk2v596cn4vx5" kvg:type="㇔" d="M36.62,81.38c0,4.38-4.67,10.84-5.89,12.09" transform="matrix(1,0,0,1,1096,-4)" class="stroke_order_diagram--current_path"></path><circle cx="36.62" cy="81.38" r="8" class="stroke_order_diagram--path_start" transform="matrix(1,0,0,1,1096,-4)"></circle><line x1="1250" x2="1250" y1="1" y2="99" class="stroke_order_diagram--guide_line"></line><line x1="1299" x2="1299" y1="1" y2="99" class="stroke_order_diagram--bounding_box"></line><path id="pathSk2v596cn4vx8" kvg:type="㇐" d="M22.5,20.06c2.62,0.57,5.66,0.45,8.4,0.1c13.22-1.66,33.35-3.51,46.35-4c2.87-0.11,5.44,0.02,8.25,0.6" transform="matrix(1,0,0,1,1196,-4)" class="stroke_order_diagram--existing_path"></path><path id="pathSk2v596cn4vx9" kvg:type="㇑a" d="M38,10.74c1.12,0.51,1.56,1.52,1.75,2.24c1.75,6.71,2.25,10.66,2.75,13.1" transform="matrix(1,0,0,1,1196,-4)" class="stroke_order_diagram--existing_path"></path><path id="pathSk2v596cn4vxa" kvg:type="㇑a" d="M66.57,9.5c0.38,0.86,0.28,1.98-0.05,3.06c-1.56,5.12-1.98,7.12-3.76,12.24" transform="matrix(1,0,0,1,1196,-4)" class="stroke_order_diagram--existing_path"></path><path id="pathSk2v596cn4vxb" kvg:type="㇑" d="M32.27,31.21c0.64,0.64,1.11,1.54,1.4,2.74c0.77,3.15,1.79,9.62,2.48,13.02c0.26,1.29,0.59,3.02,0.75,3.6" transform="matrix(1,0,0,1,1196,-4)" class="stroke_order_diagram--existing_path"></path><path id="pathSk2v596cn4vxc" kvg:type="㇕a" d="M34.45,32.78c8.6-1.14,27.8-3.28,35.55-3.67c2.22-0.11,4.31,0.92,3.81,3.51c-0.58,2.93-1.97,8.11-2.95,11.98c-0.35,1.4-0.68,2.62-0.95,3.51" transform="matrix(1,0,0,1,1196,-4)" class="stroke_order_diagram--existing_path"></path><path id="pathSk2v596cn4vxd" kvg:type="㇐a" d="M36.17,40.63c7.83-0.88,28.08-2.88,35.33-3.15" transform="matrix(1,0,0,1,1196,-4)" class="stroke_order_diagram--existing_path"></path><path id="pathSk2v596cn4vxe" kvg:type="㇐a" d="M37.83,48.84c8.8-0.59,22.24-2.07,31.38-2.34" transform="matrix(1,0,0,1,1196,-4)" class="stroke_order_diagram--existing_path"></path><path id="pathSk2v596cn4vxf" kvg:type="㇐" d="M15.38,62.55c3.08,0.82,6,0.64,9.13,0.35c14.03-1.3,42.65-3.25,58.87-4.3c2.86-0.18,6.38-0.02,9.12,0.92" transform="matrix(1,0,0,1,1196,-4)" class="stroke_order_diagram--existing_path"></path><path id="pathSk2v596cn4vxg" kvg:type="㇒" d="M47.91,50.93c0,1.19-0.14,2.25-0.66,3.18C39.88,67.25,31.38,76.5,14.25,87" transform="matrix(1,0,0,1,1196,-4)" class="stroke_order_diagram--existing_path"></path><path id="pathSk2v596cn4vxh" kvg:type="㇏" d="M59.25,56.1c5.7,1.47,16.5,13.02,27.44,20.49c2.24,1.53,4.56,3.16,6.81,4.31" transform="matrix(1,0,0,1,1196,-4)" class="stroke_order_diagram--existing_path"></path><path id="pathSk2v596cn4vxi" kvg:type="㇚" d="M48.38,70.35c0.91,0.91,1.37,2.29,1.37,3.77c0,6.27,0.03,16.62,0.03,20.83c0,7.81-5.64,1.13-6.81,0.19" transform="matrix(1,0,0,1,1196,-4)" class="stroke_order_diagram--existing_path"></path><path id="pathSk2v596cn4vxj" kvg:type="㇔" d="M36.62,81.38c0,4.38-4.67,10.84-5.89,12.09" transform="matrix(1,0,0,1,1196,-4)" class="stroke_order_diagram--existing_path"></path><path id="kvg:06155-s13" kvg:type="㇔" d="M58.84,79.57c2.14,2.21,5.52,9.09,6.05,12.53" transform="matrix(1,0,0,1,1196,-4)" class="stroke_order_diagram--current_path"></path><path id="pathSk2v596cn4vxl" kvg:type="㇔" d="M58.84,79.57c2.14,2.21,5.52,9.09,6.05,12.53" transform="matrix(1,0,0,1,1196,-4)" class="stroke_order_diagram--current_path"></path><circle cx="58.84" cy="79.57" r="8" class="stroke_order_diagram--path_start" transform="matrix(1,0,0,1,1196,-4)"></circle><line x1="1350" x2="1350" y1="1" y2="99" class="stroke_order_diagram--guide_line"></line><line x1="1399" x2="1399" y1="1" y2="99" class="stroke_order_diagram--bounding_box"></line><path id="pathSk2v596cn4vxo" kvg:type="㇐" d="M22.5,20.06c2.62,0.57,5.66,0.45,8.4,0.1c13.22-1.66,33.35-3.51,46.35-4c2.87-0.11,5.44,0.02,8.25,0.6" transform="matrix(1,0,0,1,1296,-4)" class="stroke_order_diagram--existing_path"></path><path id="pathSk2v596cn4vxp" kvg:type="㇑a" d="M38,10.74c1.12,0.51,1.56,1.52,1.75,2.24c1.75,6.71,2.25,10.66,2.75,13.1" transform="matrix(1,0,0,1,1296,-4)" class="stroke_order_diagram--existing_path"></path><path id="pathSk2v596cn4vxq" kvg:type="㇑a" d="M66.57,9.5c0.38,0.86,0.28,1.98-0.05,3.06c-1.56,5.12-1.98,7.12-3.76,12.24" transform="matrix(1,0,0,1,1296,-4)" class="stroke_order_diagram--existing_path"></path><path id="pathSk2v596cn4vxr" kvg:type="㇑" d="M32.27,31.21c0.64,0.64,1.11,1.54,1.4,2.74c0.77,3.15,1.79,9.62,2.48,13.02c0.26,1.29,0.59,3.02,0.75,3.6" transform="matrix(1,0,0,1,1296,-4)" class="stroke_order_diagram--existing_path"></path><path id="pathSk2v596cn4vxs" kvg:type="㇕a" d="M34.45,32.78c8.6-1.14,27.8-3.28,35.55-3.67c2.22-0.11,4.31,0.92,3.81,3.51c-0.58,2.93-1.97,8.11-2.95,11.98c-0.35,1.4-0.68,2.62-0.95,3.51" transform="matrix(1,0,0,1,1296,-4)" class="stroke_order_diagram--existing_path"></path><path id="pathSk2v596cn4vxt" kvg:type="㇐a" d="M36.17,40.63c7.83-0.88,28.08-2.88,35.33-3.15" transform="matrix(1,0,0,1,1296,-4)" class="stroke_order_diagram--existing_path"></path><path id="pathSk2v596cn4vxu" kvg:type="㇐a" d="M37.83,48.84c8.8-0.59,22.24-2.07,31.38-2.34" transform="matrix(1,0,0,1,1296,-4)" class="stroke_order_diagram--existing_path"></path><path id="pathSk2v596cn4vxv" kvg:type="㇐" d="M15.38,62.55c3.08,0.82,6,0.64,9.13,0.35c14.03-1.3,42.65-3.25,58.87-4.3c2.86-0.18,6.38-0.02,9.12,0.92" transform="matrix(1,0,0,1,1296,-4)" class="stroke_order_diagram--existing_path"></path><path id="pathSk2v596cn4vxw" kvg:type="㇒" d="M47.91,50.93c0,1.19-0.14,2.25-0.66,3.18C39.88,67.25,31.38,76.5,14.25,87" transform="matrix(1,0,0,1,1296,-4)" class="stroke_order_diagram--existing_path"></path><path id="pathSk2v596cn4vxx" kvg:type="㇏" d="M59.25,56.1c5.7,1.47,16.5,13.02,27.44,20.49c2.24,1.53,4.56,3.16,6.81,4.31" transform="matrix(1,0,0,1,1296,-4)" class="stroke_order_diagram--existing_path"></path><path id="pathSk2v596cn4vxy" kvg:type="㇚" d="M48.38,70.35c0.91,0.91,1.37,2.29,1.37,3.77c0,6.27,0.03,16.62,0.03,20.83c0,7.81-5.64,1.13-6.81,0.19" transform="matrix(1,0,0,1,1296,-4)" class="stroke_order_diagram--existing_path"></path><path id="pathSk2v596cn4vxz" kvg:type="㇔" d="M36.62,81.38c0,4.38-4.67,10.84-5.89,12.09" transform="matrix(1,0,0,1,1296,-4)" class="stroke_order_diagram--existing_path"></path><path id="pathSk2v596cn4vy0" kvg:type="㇔" d="M58.84,79.57c2.14,2.21,5.52,9.09,6.05,12.53" transform="matrix(1,0,0,1,1296,-4)" class="stroke_order_diagram--existing_path"></path><path id="kvg:06155-s14" kvg:type="㇔" d="M73.28,80.53c2.84,2.2,7.59,9.3,8.3,12.73" transform="matrix(1,0,0,1,1296,-4)" class="stroke_order_diagram--current_path"></path><path id="pathSk2v596cn4vy2" kvg:type="㇔" d="M73.28,80.53c2.84,2.2,7.59,9.3,8.3,12.73" transform="matrix(1,0,0,1,1296,-4)" class="stroke_order_diagram--current_path"></path><circle cx="73.28" cy="80.53" r="8" class="stroke_order_diagram--path_start" transform="matrix(1,0,0,1,1296,-4)"></circle></svg>