<svg style="width: 700px; height: 100px;" viewbox="0 0 700 100"><style>
.stroke_order_diagram--outer_container {
  width: 100%;
  overflow-x: auto;
  overflow-y: hidden;
}

.stroke_order_diagram--guide_line {
  fill: none;
  stroke: #ddd;
  stroke-width: 3;
  stroke-linecap: square;
  stroke-linejoin: square;
  stroke-dasharray:8, 8;
}

.stroke_order_diagram--bounding_box {
  fill: none;
  stroke: #ddd;
  stroke-width: 4;
  stroke-linecap: square;
  stroke-linejoin: square;
}

.stroke_order_diagram--current_path {
  fill: none;
  stroke: #000;
  stroke-width: 6;
  stroke-linecap: round;
  stroke-linejoin: round;
}

.stroke_order_diagram--existing_path {
  fill: none;
  stroke: #aaa;
  stroke-width: 6;
  stroke-linecap: round;
  stroke-linejoin:round;
}

.stroke_order_diagram--path_start {
  fill: rgba(255, 0, 0, 0.7);
  stroke:none
}</style><desc>Created with Snap</desc><defs></defs><line x1="1" x2="699" y1="1" y2="1" class="stroke_order_diagram--bounding_box"></line><line x1="1" x2="1" y1="1" y2="99" class="stroke_order_diagram--bounding_box"></line><line x1="1" x2="699" y1="99" y2="99" class="stroke_order_diagram--bounding_box"></line><line x1="0" x2="700" y1="50" y2="50" class="stroke_order_diagram--guide_line"></line><line x1="50" x2="50" y1="1" y2="99" class="stroke_order_diagram--guide_line"></line><line x1="99" x2="99" y1="1" y2="99" class="stroke_order_diagram--bounding_box"></line><path id="kvg:06212-s1" kvg:type="㇐" d="M16.75,34.2c3.62,0.68,8.01,0.24,11.41-0.4c13.72-2.55,34.59-5.55,52.35-7.09c3.13-0.27,6.16-0.33,9.24,0.33" transform="matrix(1,0,0,1,-4,-4)" class="stroke_order_diagram--current_path"></path><path id="pathSk2v596cn2ybg" kvg:type="㇐" d="M16.75,34.2c3.62,0.68,8.01,0.24,11.41-0.4c13.72-2.55,34.59-5.55,52.35-7.09c3.13-0.27,6.16-0.33,9.24,0.33" transform="matrix(1,0,0,1,-4,-4)" class="stroke_order_diagram--current_path"></path><circle cx="16.75" cy="34.2" r="8" class="stroke_order_diagram--path_start" transform="matrix(1,0,0,1,-4,-4)"></circle><line x1="150" x2="150" y1="1" y2="99" class="stroke_order_diagram--guide_line"></line><line x1="199" x2="199" y1="1" y2="99" class="stroke_order_diagram--bounding_box"></line><path id="pathSk2v596cn2ybj" kvg:type="㇐" d="M16.75,34.2c3.62,0.68,8.01,0.24,11.41-0.4c13.72-2.55,34.59-5.55,52.35-7.09c3.13-0.27,6.16-0.33,9.24,0.33" transform="matrix(1,0,0,1,96,-4)" class="stroke_order_diagram--existing_path"></path><path id="kvg:06212-s2" kvg:type="㇐" d="M18.13,62.17c0.91,0.32,2.57,0.38,3.48,0.32c9.43-0.54,23.4-5.38,33.85-5.75c1.5-0.05,2.42,0.05,3.17,0.1" transform="matrix(1,0,0,1,96,-4)" class="stroke_order_diagram--current_path"></path><path id="pathSk2v596cn2ybl" kvg:type="㇐" d="M18.13,62.17c0.91,0.32,2.57,0.38,3.48,0.32c9.43-0.54,23.4-5.38,33.85-5.75c1.5-0.05,2.42,0.05,3.17,0.1" transform="matrix(1,0,0,1,96,-4)" class="stroke_order_diagram--current_path"></path><circle cx="18.13" cy="62.17" r="8" class="stroke_order_diagram--path_start" transform="matrix(1,0,0,1,96,-4)"></circle><line x1="250" x2="250" y1="1" y2="99" class="stroke_order_diagram--guide_line"></line><line x1="299" x2="299" y1="1" y2="99" class="stroke_order_diagram--bounding_box"></line><path id="pathSk2v596cn2ybo" kvg:type="㇐" d="M16.75,34.2c3.62,0.68,8.01,0.24,11.41-0.4c13.72-2.55,34.59-5.55,52.35-7.09c3.13-0.27,6.16-0.33,9.24,0.33" transform="matrix(1,0,0,1,196,-4)" class="stroke_order_diagram--existing_path"></path><path id="pathSk2v596cn2ybp" kvg:type="㇐" d="M18.13,62.17c0.91,0.32,2.57,0.38,3.48,0.32c9.43-0.54,23.4-5.38,33.85-5.75c1.5-0.05,2.42,0.05,3.17,0.1" transform="matrix(1,0,0,1,196,-4)" class="stroke_order_diagram--existing_path"></path><path id="kvg:06212-s3" kvg:type="㇒" d="M30.02,46.9c0.92,0.92,1.19,2.14,1.23,3.67c0.33,13.94-0.49,31.18-11.96,40.9" transform="matrix(1,0,0,1,196,-4)" class="stroke_order_diagram--current_path"></path><path id="pathSk2v596cn2ybr" kvg:type="㇒" d="M30.02,46.9c0.92,0.92,1.19,2.14,1.23,3.67c0.33,13.94-0.49,31.18-11.96,40.9" transform="matrix(1,0,0,1,196,-4)" class="stroke_order_diagram--current_path"></path><circle cx="30.02" cy="46.9" r="8" class="stroke_order_diagram--path_start" transform="matrix(1,0,0,1,196,-4)"></circle><line x1="350" x2="350" y1="1" y2="99" class="stroke_order_diagram--guide_line"></line><line x1="399" x2="399" y1="1" y2="99" class="stroke_order_diagram--bounding_box"></line><path id="pathSk2v596cn2ybu" kvg:type="㇐" d="M16.75,34.2c3.62,0.68,8.01,0.24,11.41-0.4c13.72-2.55,34.59-5.55,52.35-7.09c3.13-0.27,6.16-0.33,9.24,0.33" transform="matrix(1,0,0,1,296,-4)" class="stroke_order_diagram--existing_path"></path><path id="pathSk2v596cn2ybv" kvg:type="㇐" d="M18.13,62.17c0.91,0.32,2.57,0.38,3.48,0.32c9.43-0.54,23.4-5.38,33.85-5.75c1.5-0.05,2.42,0.05,3.17,0.1" transform="matrix(1,0,0,1,296,-4)" class="stroke_order_diagram--existing_path"></path><path id="pathSk2v596cn2ybw" kvg:type="㇒" d="M30.02,46.9c0.92,0.92,1.19,2.14,1.23,3.67c0.33,13.94-0.49,31.18-11.96,40.9" transform="matrix(1,0,0,1,296,-4)" class="stroke_order_diagram--existing_path"></path><path id="kvg:06212-s4" kvg:type="㇑" d="M45.51,40.8c1.09,1.09,1.67,2.45,1.67,4.19c0,2.2,0.08,30.77,0.11,43.51c0.01,3.22,0.01,5.42,0.01,5.94" transform="matrix(1,0,0,1,296,-4)" class="stroke_order_diagram--current_path"></path><path id="pathSk2v596cn2yby" kvg:type="㇑" d="M45.51,40.8c1.09,1.09,1.67,2.45,1.67,4.19c0,2.2,0.08,30.77,0.11,43.51c0.01,3.22,0.01,5.42,0.01,5.94" transform="matrix(1,0,0,1,296,-4)" class="stroke_order_diagram--current_path"></path><circle cx="45.51" cy="40.8" r="8" class="stroke_order_diagram--path_start" transform="matrix(1,0,0,1,296,-4)"></circle><line x1="450" x2="450" y1="1" y2="99" class="stroke_order_diagram--guide_line"></line><line x1="499" x2="499" y1="1" y2="99" class="stroke_order_diagram--bounding_box"></line><path id="pathSk2v596cn2yc1" kvg:type="㇐" d="M16.75,34.2c3.62,0.68,8.01,0.24,11.41-0.4c13.72-2.55,34.59-5.55,52.35-7.09c3.13-0.27,6.16-0.33,9.24,0.33" transform="matrix(1,0,0,1,396,-4)" class="stroke_order_diagram--existing_path"></path><path id="pathSk2v596cn2yc2" kvg:type="㇐" d="M18.13,62.17c0.91,0.32,2.57,0.38,3.48,0.32c9.43-0.54,23.4-5.38,33.85-5.75c1.5-0.05,2.42,0.05,3.17,0.1" transform="matrix(1,0,0,1,396,-4)" class="stroke_order_diagram--existing_path"></path><path id="pathSk2v596cn2yc3" kvg:type="㇒" d="M30.02,46.9c0.92,0.92,1.19,2.14,1.23,3.67c0.33,13.94-0.49,31.18-11.96,40.9" transform="matrix(1,0,0,1,396,-4)" class="stroke_order_diagram--existing_path"></path><path id="pathSk2v596cn2yc4" kvg:type="㇑" d="M45.51,40.8c1.09,1.09,1.67,2.45,1.67,4.19c0,2.2,0.08,30.77,0.11,43.51c0.01,3.22,0.01,5.42,0.01,5.94" transform="matrix(1,0,0,1,396,-4)" class="stroke_order_diagram--existing_path"></path><path id="kvg:06212-s5" kvg:type="㇂" d="M55.25,12.75c1.62,1.78,2.14,3.26,2.38,7.09c1.87,29.78,13.27,62.97,32.1,73.88c6.41,3.72,5.47,0.76,4.66-7.11" transform="matrix(1,0,0,1,396,-4)" class="stroke_order_diagram--current_path"></path><path id="pathSk2v596cn2yc6" kvg:type="㇂" d="M55.25,12.75c1.62,1.78,2.14,3.26,2.38,7.09c1.87,29.78,13.27,62.97,32.1,73.88c6.41,3.72,5.47,0.76,4.66-7.11" transform="matrix(1,0,0,1,396,-4)" class="stroke_order_diagram--current_path"></path><circle cx="55.25" cy="12.75" r="8" class="stroke_order_diagram--path_start" transform="matrix(1,0,0,1,396,-4)"></circle><line x1="550" x2="550" y1="1" y2="99" class="stroke_order_diagram--guide_line"></line><line x1="599" x2="599" y1="1" y2="99" class="stroke_order_diagram--bounding_box"></line><path id="pathSk2v596cn2yc9" kvg:type="㇐" d="M16.75,34.2c3.62,0.68,8.01,0.24,11.41-0.4c13.72-2.55,34.59-5.55,52.35-7.09c3.13-0.27,6.16-0.33,9.24,0.33" transform="matrix(1,0,0,1,496,-4)" class="stroke_order_diagram--existing_path"></path><path id="pathSk2v596cn2yca" kvg:type="㇐" d="M18.13,62.17c0.91,0.32,2.57,0.38,3.48,0.32c9.43-0.54,23.4-5.38,33.85-5.75c1.5-0.05,2.42,0.05,3.17,0.1" transform="matrix(1,0,0,1,496,-4)" class="stroke_order_diagram--existing_path"></path><path id="pathSk2v596cn2ycb" kvg:type="㇒" d="M30.02,46.9c0.92,0.92,1.19,2.14,1.23,3.67c0.33,13.94-0.49,31.18-11.96,40.9" transform="matrix(1,0,0,1,496,-4)" class="stroke_order_diagram--existing_path"></path><path id="pathSk2v596cn2ycc" kvg:type="㇑" d="M45.51,40.8c1.09,1.09,1.67,2.45,1.67,4.19c0,2.2,0.08,30.77,0.11,43.51c0.01,3.22,0.01,5.42,0.01,5.94" transform="matrix(1,0,0,1,496,-4)" class="stroke_order_diagram--existing_path"></path><path id="pathSk2v596cn2ycd" kvg:type="㇂" d="M55.25,12.75c1.62,1.78,2.14,3.26,2.38,7.09c1.87,29.78,13.27,62.97,32.1,73.88c6.41,3.72,5.47,0.76,4.66-7.11" transform="matrix(1,0,0,1,496,-4)" class="stroke_order_diagram--existing_path"></path><path id="kvg:06212-s6" kvg:type="㇒" d="M83.48,43.39c0,1.23-0.15,2.22-0.66,3.65C78.62,58.75,71,74.62,54.56,87.72" transform="matrix(1,0,0,1,496,-4)" class="stroke_order_diagram--current_path"></path><path id="pathSk2v596cn2ycf" kvg:type="㇒" d="M83.48,43.39c0,1.23-0.15,2.22-0.66,3.65C78.62,58.75,71,74.62,54.56,87.72" transform="matrix(1,0,0,1,496,-4)" class="stroke_order_diagram--current_path"></path><circle cx="83.48" cy="43.39" r="8" class="stroke_order_diagram--path_start" transform="matrix(1,0,0,1,496,-4)"></circle><line x1="650" x2="650" y1="1" y2="99" class="stroke_order_diagram--guide_line"></line><line x1="699" x2="699" y1="1" y2="99" class="stroke_order_diagram--bounding_box"></line><path id="pathSk2v596cn2yci" kvg:type="㇐" d="M16.75,34.2c3.62,0.68,8.01,0.24,11.41-0.4c13.72-2.55,34.59-5.55,52.35-7.09c3.13-0.27,6.16-0.33,9.24,0.33" transform="matrix(1,0,0,1,596,-4)" class="stroke_order_diagram--existing_path"></path><path id="pathSk2v596cn2ycj" kvg:type="㇐" d="M18.13,62.17c0.91,0.32,2.57,0.38,3.48,0.32c9.43-0.54,23.4-5.38,33.85-5.75c1.5-0.05,2.42,0.05,3.17,0.1" transform="matrix(1,0,0,1,596,-4)" class="stroke_order_diagram--existing_path"></path><path id="pathSk2v596cn2yck" kvg:type="㇒" d="M30.02,46.9c0.92,0.92,1.19,2.14,1.23,3.67c0.33,13.94-0.49,31.18-11.96,40.9" transform="matrix(1,0,0,1,596,-4)" class="stroke_order_diagram--existing_path"></path><path id="pathSk2v596cn2ycl" kvg:type="㇑" d="M45.51,40.8c1.09,1.09,1.67,2.45,1.67,4.19c0,2.2,0.08,30.77,0.11,43.51c0.01,3.22,0.01,5.42,0.01,5.94" transform="matrix(1,0,0,1,596,-4)" class="stroke_order_diagram--existing_path"></path><path id="pathSk2v596cn2ycm" kvg:type="㇂" d="M55.25,12.75c1.62,1.78,2.14,3.26,2.38,7.09c1.87,29.78,13.27,62.97,32.1,73.88c6.41,3.72,5.47,0.76,4.66-7.11" transform="matrix(1,0,0,1,596,-4)" class="stroke_order_diagram--existing_path"></path><path id="pathSk2v596cn2ycn" kvg:type="㇒" d="M83.48,43.39c0,1.23-0.15,2.22-0.66,3.65C78.62,58.75,71,74.62,54.56,87.72" transform="matrix(1,0,0,1,596,-4)" class="stroke_order_diagram--existing_path"></path><path id="kvg:06212-s7" kvg:type="㇔" d="M70.25,11.38c3.59,1.73,9.33,5.67,11,8.62" transform="matrix(1,0,0,1,596,-4)" class="stroke_order_diagram--current_path"></path><path id="pathSk2v596cn2ycp" kvg:type="㇔" d="M70.25,11.38c3.59,1.73,9.33,5.67,11,8.62" transform="matrix(1,0,0,1,596,-4)" class="stroke_order_diagram--current_path"></path><circle cx="70.25" cy="11.38" r="8" class="stroke_order_diagram--path_start" transform="matrix(1,0,0,1,596,-4)"></circle></svg>