<svg style="width: 1500px; height: 100px;" viewbox="0 0 1500 100"><style>
.stroke_order_diagram--outer_container {
  width: 100%;
  overflow-x: auto;
  overflow-y: hidden;
}

.stroke_order_diagram--guide_line {
  fill: none;
  stroke: #ddd;
  stroke-width: 3;
  stroke-linecap: square;
  stroke-linejoin: square;
  stroke-dasharray:8, 8;
}

.stroke_order_diagram--bounding_box {
  fill: none;
  stroke: #ddd;
  stroke-width: 4;
  stroke-linecap: square;
  stroke-linejoin: square;
}

.stroke_order_diagram--current_path {
  fill: none;
  stroke: #000;
  stroke-width: 6;
  stroke-linecap: round;
  stroke-linejoin: round;
}

.stroke_order_diagram--existing_path {
  fill: none;
  stroke: #aaa;
  stroke-width: 6;
  stroke-linecap: round;
  stroke-linejoin:round;
}

.stroke_order_diagram--path_start {
  fill: rgba(255, 0, 0, 0.7);
  stroke:none
}</style><desc>Created with Snap</desc><defs></defs><line x1="1" x2="1499" y1="1" y2="1" class="stroke_order_diagram--bounding_box"></line><line x1="1" x2="1" y1="1" y2="99" class="stroke_order_diagram--bounding_box"></line><line x1="1" x2="1499" y1="99" y2="99" class="stroke_order_diagram--bounding_box"></line><line x1="0" x2="1500" y1="50" y2="50" class="stroke_order_diagram--guide_line"></line><line x1="50" x2="50" y1="1" y2="99" class="stroke_order_diagram--guide_line"></line><line x1="99" x2="99" y1="1" y2="99" class="stroke_order_diagram--bounding_box"></line><path id="kvg:0622f-s1" kvg:type="㇑a" d="M37.21,11.82c0.7,0.93,1,2.06,1,4.1c0,5.99-0.02,9.32-0.02,14.36" transform="matrix(1,0,0,1,-4,-4)" class="stroke_order_diagram--current_path"></path><path id="pathSk2v596cn4p0n" kvg:type="㇑a" d="M37.21,11.82c0.7,0.93,1,2.06,1,4.1c0,5.99-0.02,9.32-0.02,14.36" transform="matrix(1,0,0,1,-4,-4)" class="stroke_order_diagram--current_path"></path><circle cx="37.21" cy="11.82" r="8" class="stroke_order_diagram--path_start" transform="matrix(1,0,0,1,-4,-4)"></circle><line x1="150" x2="150" y1="1" y2="99" class="stroke_order_diagram--guide_line"></line><line x1="199" x2="199" y1="1" y2="99" class="stroke_order_diagram--bounding_box"></line><path id="pathSk2v596cn4p0q" kvg:type="㇑a" d="M37.21,11.82c0.7,0.93,1,2.06,1,4.1c0,5.99-0.02,9.32-0.02,14.36" transform="matrix(1,0,0,1,96,-4)" class="stroke_order_diagram--existing_path"></path><path id="kvg:0622f-s2" kvg:type="㇐b" d="M39.58,21.17c3.32-0.78,7.77-1.55,11.13-2.17c1.11-0.2,2.29-0.31,2.84-0.12" transform="matrix(1,0,0,1,96,-4)" class="stroke_order_diagram--current_path"></path><path id="pathSk2v596cn4p0s" kvg:type="㇐b" d="M39.58,21.17c3.32-0.78,7.77-1.55,11.13-2.17c1.11-0.2,2.29-0.31,2.84-0.12" transform="matrix(1,0,0,1,96,-4)" class="stroke_order_diagram--current_path"></path><circle cx="39.58" cy="21.17" r="8" class="stroke_order_diagram--path_start" transform="matrix(1,0,0,1,96,-4)"></circle><line x1="250" x2="250" y1="1" y2="99" class="stroke_order_diagram--guide_line"></line><line x1="299" x2="299" y1="1" y2="99" class="stroke_order_diagram--bounding_box"></line><path id="pathSk2v596cn4p0v" kvg:type="㇑a" d="M37.21,11.82c0.7,0.93,1,2.06,1,4.1c0,5.99-0.02,9.32-0.02,14.36" transform="matrix(1,0,0,1,196,-4)" class="stroke_order_diagram--existing_path"></path><path id="pathSk2v596cn4p0w" kvg:type="㇐b" d="M39.58,21.17c3.32-0.78,7.77-1.55,11.13-2.17c1.11-0.2,2.29-0.31,2.84-0.12" transform="matrix(1,0,0,1,196,-4)" class="stroke_order_diagram--existing_path"></path><path id="kvg:0622f-s3" kvg:type="㇒" d="M20.06,32.28c0.89,0.89,1.33,2.33,1.2,4.27c0,22.45-3.08,42.77-10.01,55.77" transform="matrix(1,0,0,1,196,-4)" class="stroke_order_diagram--current_path"></path><path id="pathSk2v596cn4p0y" kvg:type="㇒" d="M20.06,32.28c0.89,0.89,1.33,2.33,1.2,4.27c0,22.45-3.08,42.77-10.01,55.77" transform="matrix(1,0,0,1,196,-4)" class="stroke_order_diagram--current_path"></path><circle cx="20.06" cy="32.28" r="8" class="stroke_order_diagram--path_start" transform="matrix(1,0,0,1,196,-4)"></circle><line x1="350" x2="350" y1="1" y2="99" class="stroke_order_diagram--guide_line"></line><line x1="399" x2="399" y1="1" y2="99" class="stroke_order_diagram--bounding_box"></line><path id="pathSk2v596cn4p11" kvg:type="㇑a" d="M37.21,11.82c0.7,0.93,1,2.06,1,4.1c0,5.99-0.02,9.32-0.02,14.36" transform="matrix(1,0,0,1,296,-4)" class="stroke_order_diagram--existing_path"></path><path id="pathSk2v596cn4p12" kvg:type="㇐b" d="M39.58,21.17c3.32-0.78,7.77-1.55,11.13-2.17c1.11-0.2,2.29-0.31,2.84-0.12" transform="matrix(1,0,0,1,296,-4)" class="stroke_order_diagram--existing_path"></path><path id="pathSk2v596cn4p13" kvg:type="㇒" d="M20.06,32.28c0.89,0.89,1.33,2.33,1.2,4.27c0,22.45-3.08,42.77-10.01,55.77" transform="matrix(1,0,0,1,296,-4)" class="stroke_order_diagram--existing_path"></path><path id="kvg:0622f-s4" kvg:type="㇖a" d="M21.8,34.34c0.8-0.15,1.88-0.34,3.17-0.56c8.22-1.4,24.86-4,31.42-4.12c8-0.16,1.69,4.79-0.3,6.79" transform="matrix(1,0,0,1,296,-4)" class="stroke_order_diagram--current_path"></path><path id="pathSk2v596cn4p15" kvg:type="㇖a" d="M21.8,34.34c0.8-0.15,1.88-0.34,3.17-0.56c8.22-1.4,24.86-4,31.42-4.12c8-0.16,1.69,4.79-0.3,6.79" transform="matrix(1,0,0,1,296,-4)" class="stroke_order_diagram--current_path"></path><circle cx="21.8" cy="34.34" r="8" class="stroke_order_diagram--path_start" transform="matrix(1,0,0,1,296,-4)"></circle><line x1="450" x2="450" y1="1" y2="99" class="stroke_order_diagram--guide_line"></line><line x1="499" x2="499" y1="1" y2="99" class="stroke_order_diagram--bounding_box"></line><path id="pathSk2v596cn4p18" kvg:type="㇑a" d="M37.21,11.82c0.7,0.93,1,2.06,1,4.1c0,5.99-0.02,9.32-0.02,14.36" transform="matrix(1,0,0,1,396,-4)" class="stroke_order_diagram--existing_path"></path><path id="pathSk2v596cn4p19" kvg:type="㇐b" d="M39.58,21.17c3.32-0.78,7.77-1.55,11.13-2.17c1.11-0.2,2.29-0.31,2.84-0.12" transform="matrix(1,0,0,1,396,-4)" class="stroke_order_diagram--existing_path"></path><path id="pathSk2v596cn4p1a" kvg:type="㇒" d="M20.06,32.28c0.89,0.89,1.33,2.33,1.2,4.27c0,22.45-3.08,42.77-10.01,55.77" transform="matrix(1,0,0,1,396,-4)" class="stroke_order_diagram--existing_path"></path><path id="pathSk2v596cn4p1b" kvg:type="㇖a" d="M21.8,34.34c0.8-0.15,1.88-0.34,3.17-0.56c8.22-1.4,24.86-4,31.42-4.12c8-0.16,1.69,4.79-0.3,6.79" transform="matrix(1,0,0,1,396,-4)" class="stroke_order_diagram--existing_path"></path><path id="kvg:0622f-s5" kvg:type="㇐" d="M25.11,44.56c0.57,0.32,1.95,0.39,2.53,0.32c0.69-0.08,1.39,0.07,2.11-0.03c6.24-0.9,13.33-2.71,18.74-3.58c0.81-0.13,1.58-0.24,2.31-0.34c0.94-0.12,1.51,0.16,1.98,0.31" transform="matrix(1,0,0,1,396,-4)" class="stroke_order_diagram--current_path"></path><path id="pathSk2v596cn4p1d" kvg:type="㇐" d="M25.11,44.56c0.57,0.32,1.95,0.39,2.53,0.32c0.69-0.08,1.39,0.07,2.11-0.03c6.24-0.9,13.33-2.71,18.74-3.58c0.81-0.13,1.58-0.24,2.31-0.34c0.94-0.12,1.51,0.16,1.98,0.31" transform="matrix(1,0,0,1,396,-4)" class="stroke_order_diagram--current_path"></path><circle cx="25.11" cy="44.56" r="8" class="stroke_order_diagram--path_start" transform="matrix(1,0,0,1,396,-4)"></circle><line x1="550" x2="550" y1="1" y2="99" class="stroke_order_diagram--guide_line"></line><line x1="599" x2="599" y1="1" y2="99" class="stroke_order_diagram--bounding_box"></line><path id="pathSk2v596cn4p1g" kvg:type="㇑a" d="M37.21,11.82c0.7,0.93,1,2.06,1,4.1c0,5.99-0.02,9.32-0.02,14.36" transform="matrix(1,0,0,1,496,-4)" class="stroke_order_diagram--existing_path"></path><path id="pathSk2v596cn4p1h" kvg:type="㇐b" d="M39.58,21.17c3.32-0.78,7.77-1.55,11.13-2.17c1.11-0.2,2.29-0.31,2.84-0.12" transform="matrix(1,0,0,1,496,-4)" class="stroke_order_diagram--existing_path"></path><path id="pathSk2v596cn4p1i" kvg:type="㇒" d="M20.06,32.28c0.89,0.89,1.33,2.33,1.2,4.27c0,22.45-3.08,42.77-10.01,55.77" transform="matrix(1,0,0,1,496,-4)" class="stroke_order_diagram--existing_path"></path><path id="pathSk2v596cn4p1j" kvg:type="㇖a" d="M21.8,34.34c0.8-0.15,1.88-0.34,3.17-0.56c8.22-1.4,24.86-4,31.42-4.12c8-0.16,1.69,4.79-0.3,6.79" transform="matrix(1,0,0,1,496,-4)" class="stroke_order_diagram--existing_path"></path><path id="pathSk2v596cn4p1k" kvg:type="㇐" d="M25.11,44.56c0.57,0.32,1.95,0.39,2.53,0.32c0.69-0.08,1.39,0.07,2.11-0.03c6.24-0.9,13.33-2.71,18.74-3.58c0.81-0.13,1.58-0.24,2.31-0.34c0.94-0.12,1.51,0.16,1.98,0.31" transform="matrix(1,0,0,1,496,-4)" class="stroke_order_diagram--existing_path"></path><path id="kvg:0622f-s6" kvg:type="㇟a" d="M37.02,36.3c0.35,0.34,0.82,1.68,0.82,2.15c0,3.77-0.06,6.93-0.06,8.61c0,3.07,0.97,4.38,6.97,4.38c1.87,0,6.1-0.25,7.71-0.92" transform="matrix(1,0,0,1,496,-4)" class="stroke_order_diagram--current_path"></path><path id="pathSk2v596cn4p1m" kvg:type="㇟a" d="M37.02,36.3c0.35,0.34,0.82,1.68,0.82,2.15c0,3.77-0.06,6.93-0.06,8.61c0,3.07,0.97,4.38,6.97,4.38c1.87,0,6.1-0.25,7.71-0.92" transform="matrix(1,0,0,1,496,-4)" class="stroke_order_diagram--current_path"></path><circle cx="37.02" cy="36.3" r="8" class="stroke_order_diagram--path_start" transform="matrix(1,0,0,1,496,-4)"></circle><line x1="650" x2="650" y1="1" y2="99" class="stroke_order_diagram--guide_line"></line><line x1="699" x2="699" y1="1" y2="99" class="stroke_order_diagram--bounding_box"></line><path id="pathSk2v596cn4p1p" kvg:type="㇑a" d="M37.21,11.82c0.7,0.93,1,2.06,1,4.1c0,5.99-0.02,9.32-0.02,14.36" transform="matrix(1,0,0,1,596,-4)" class="stroke_order_diagram--existing_path"></path><path id="pathSk2v596cn4p1q" kvg:type="㇐b" d="M39.58,21.17c3.32-0.78,7.77-1.55,11.13-2.17c1.11-0.2,2.29-0.31,2.84-0.12" transform="matrix(1,0,0,1,596,-4)" class="stroke_order_diagram--existing_path"></path><path id="pathSk2v596cn4p1r" kvg:type="㇒" d="M20.06,32.28c0.89,0.89,1.33,2.33,1.2,4.27c0,22.45-3.08,42.77-10.01,55.77" transform="matrix(1,0,0,1,596,-4)" class="stroke_order_diagram--existing_path"></path><path id="pathSk2v596cn4p1s" kvg:type="㇖a" d="M21.8,34.34c0.8-0.15,1.88-0.34,3.17-0.56c8.22-1.4,24.86-4,31.42-4.12c8-0.16,1.69,4.79-0.3,6.79" transform="matrix(1,0,0,1,596,-4)" class="stroke_order_diagram--existing_path"></path><path id="pathSk2v596cn4p1t" kvg:type="㇐" d="M25.11,44.56c0.57,0.32,1.95,0.39,2.53,0.32c0.69-0.08,1.39,0.07,2.11-0.03c6.24-0.9,13.33-2.71,18.74-3.58c0.81-0.13,1.58-0.24,2.31-0.34c0.94-0.12,1.51,0.16,1.98,0.31" transform="matrix(1,0,0,1,596,-4)" class="stroke_order_diagram--existing_path"></path><path id="pathSk2v596cn4p1u" kvg:type="㇟a" d="M37.02,36.3c0.35,0.34,0.82,1.68,0.82,2.15c0,3.77-0.06,6.93-0.06,8.61c0,3.07,0.97,4.38,6.97,4.38c1.87,0,6.1-0.25,7.71-0.92" transform="matrix(1,0,0,1,596,-4)" class="stroke_order_diagram--existing_path"></path><path id="kvg:0622f-s7" kvg:type="㇑a" d="M35.23,57.89c0.57,0.76,1.02,2.56,1.02,4.15s0.1,24.12,0.1,28.21" transform="matrix(1,0,0,1,596,-4)" class="stroke_order_diagram--current_path"></path><path id="pathSk2v596cn4p1w" kvg:type="㇑a" d="M35.23,57.89c0.57,0.76,1.02,2.56,1.02,4.15s0.1,24.12,0.1,28.21" transform="matrix(1,0,0,1,596,-4)" class="stroke_order_diagram--current_path"></path><circle cx="35.23" cy="57.89" r="8" class="stroke_order_diagram--path_start" transform="matrix(1,0,0,1,596,-4)"></circle><line x1="750" x2="750" y1="1" y2="99" class="stroke_order_diagram--guide_line"></line><line x1="799" x2="799" y1="1" y2="99" class="stroke_order_diagram--bounding_box"></line><path id="pathSk2v596cn4p1z" kvg:type="㇑a" d="M37.21,11.82c0.7,0.93,1,2.06,1,4.1c0,5.99-0.02,9.32-0.02,14.36" transform="matrix(1,0,0,1,696,-4)" class="stroke_order_diagram--existing_path"></path><path id="pathSk2v596cn4p20" kvg:type="㇐b" d="M39.58,21.17c3.32-0.78,7.77-1.55,11.13-2.17c1.11-0.2,2.29-0.31,2.84-0.12" transform="matrix(1,0,0,1,696,-4)" class="stroke_order_diagram--existing_path"></path><path id="pathSk2v596cn4p21" kvg:type="㇒" d="M20.06,32.28c0.89,0.89,1.33,2.33,1.2,4.27c0,22.45-3.08,42.77-10.01,55.77" transform="matrix(1,0,0,1,696,-4)" class="stroke_order_diagram--existing_path"></path><path id="pathSk2v596cn4p22" kvg:type="㇖a" d="M21.8,34.34c0.8-0.15,1.88-0.34,3.17-0.56c8.22-1.4,24.86-4,31.42-4.12c8-0.16,1.69,4.79-0.3,6.79" transform="matrix(1,0,0,1,696,-4)" class="stroke_order_diagram--existing_path"></path><path id="pathSk2v596cn4p23" kvg:type="㇐" d="M25.11,44.56c0.57,0.32,1.95,0.39,2.53,0.32c0.69-0.08,1.39,0.07,2.11-0.03c6.24-0.9,13.33-2.71,18.74-3.58c0.81-0.13,1.58-0.24,2.31-0.34c0.94-0.12,1.51,0.16,1.98,0.31" transform="matrix(1,0,0,1,696,-4)" class="stroke_order_diagram--existing_path"></path><path id="pathSk2v596cn4p24" kvg:type="㇟a" d="M37.02,36.3c0.35,0.34,0.82,1.68,0.82,2.15c0,3.77-0.06,6.93-0.06,8.61c0,3.07,0.97,4.38,6.97,4.38c1.87,0,6.1-0.25,7.71-0.92" transform="matrix(1,0,0,1,696,-4)" class="stroke_order_diagram--existing_path"></path><path id="pathSk2v596cn4p25" kvg:type="㇑a" d="M35.23,57.89c0.57,0.76,1.02,2.56,1.02,4.15s0.1,24.12,0.1,28.21" transform="matrix(1,0,0,1,696,-4)" class="stroke_order_diagram--existing_path"></path><path id="kvg:0622f-s8" kvg:type="㇑a" d="M45.96,57.62c0.9,0.9,1.27,2.42,1.27,3.9s-0.1,21.89-0.1,25.98" transform="matrix(1,0,0,1,696,-4)" class="stroke_order_diagram--current_path"></path><path id="pathSk2v596cn4p27" kvg:type="㇑a" d="M45.96,57.62c0.9,0.9,1.27,2.42,1.27,3.9s-0.1,21.89-0.1,25.98" transform="matrix(1,0,0,1,696,-4)" class="stroke_order_diagram--current_path"></path><circle cx="45.96" cy="57.62" r="8" class="stroke_order_diagram--path_start" transform="matrix(1,0,0,1,696,-4)"></circle><line x1="850" x2="850" y1="1" y2="99" class="stroke_order_diagram--guide_line"></line><line x1="899" x2="899" y1="1" y2="99" class="stroke_order_diagram--bounding_box"></line><path id="pathSk2v596cn4p2a" kvg:type="㇑a" d="M37.21,11.82c0.7,0.93,1,2.06,1,4.1c0,5.99-0.02,9.32-0.02,14.36" transform="matrix(1,0,0,1,796,-4)" class="stroke_order_diagram--existing_path"></path><path id="pathSk2v596cn4p2b" kvg:type="㇐b" d="M39.58,21.17c3.32-0.78,7.77-1.55,11.13-2.17c1.11-0.2,2.29-0.31,2.84-0.12" transform="matrix(1,0,0,1,796,-4)" class="stroke_order_diagram--existing_path"></path><path id="pathSk2v596cn4p2c" kvg:type="㇒" d="M20.06,32.28c0.89,0.89,1.33,2.33,1.2,4.27c0,22.45-3.08,42.77-10.01,55.77" transform="matrix(1,0,0,1,796,-4)" class="stroke_order_diagram--existing_path"></path><path id="pathSk2v596cn4p2d" kvg:type="㇖a" d="M21.8,34.34c0.8-0.15,1.88-0.34,3.17-0.56c8.22-1.4,24.86-4,31.42-4.12c8-0.16,1.69,4.79-0.3,6.79" transform="matrix(1,0,0,1,796,-4)" class="stroke_order_diagram--existing_path"></path><path id="pathSk2v596cn4p2e" kvg:type="㇐" d="M25.11,44.56c0.57,0.32,1.95,0.39,2.53,0.32c0.69-0.08,1.39,0.07,2.11-0.03c6.24-0.9,13.33-2.71,18.74-3.58c0.81-0.13,1.58-0.24,2.31-0.34c0.94-0.12,1.51,0.16,1.98,0.31" transform="matrix(1,0,0,1,796,-4)" class="stroke_order_diagram--existing_path"></path><path id="pathSk2v596cn4p2f" kvg:type="㇟a" d="M37.02,36.3c0.35,0.34,0.82,1.68,0.82,2.15c0,3.77-0.06,6.93-0.06,8.61c0,3.07,0.97,4.38,6.97,4.38c1.87,0,6.1-0.25,7.71-0.92" transform="matrix(1,0,0,1,796,-4)" class="stroke_order_diagram--existing_path"></path><path id="pathSk2v596cn4p2g" kvg:type="㇑a" d="M35.23,57.89c0.57,0.76,1.02,2.56,1.02,4.15s0.1,24.12,0.1,28.21" transform="matrix(1,0,0,1,796,-4)" class="stroke_order_diagram--existing_path"></path><path id="pathSk2v596cn4p2h" kvg:type="㇑a" d="M45.96,57.62c0.9,0.9,1.27,2.42,1.27,3.9s-0.1,21.89-0.1,25.98" transform="matrix(1,0,0,1,796,-4)" class="stroke_order_diagram--existing_path"></path><path id="kvg:0622f-s9" kvg:type="㇔" d="M24.75,69.38c1.49,2.38,3.84,9.8,4.22,13.5" transform="matrix(1,0,0,1,796,-4)" class="stroke_order_diagram--current_path"></path><path id="pathSk2v596cn4p2j" kvg:type="㇔" d="M24.75,69.38c1.49,2.38,3.84,9.8,4.22,13.5" transform="matrix(1,0,0,1,796,-4)" class="stroke_order_diagram--current_path"></path><circle cx="24.75" cy="69.38" r="8" class="stroke_order_diagram--path_start" transform="matrix(1,0,0,1,796,-4)"></circle><line x1="950" x2="950" y1="1" y2="99" class="stroke_order_diagram--guide_line"></line><line x1="999" x2="999" y1="1" y2="99" class="stroke_order_diagram--bounding_box"></line><path id="pathSk2v596cn4p2m" kvg:type="㇑a" d="M37.21,11.82c0.7,0.93,1,2.06,1,4.1c0,5.99-0.02,9.32-0.02,14.36" transform="matrix(1,0,0,1,896,-4)" class="stroke_order_diagram--existing_path"></path><path id="pathSk2v596cn4p2n" kvg:type="㇐b" d="M39.58,21.17c3.32-0.78,7.77-1.55,11.13-2.17c1.11-0.2,2.29-0.31,2.84-0.12" transform="matrix(1,0,0,1,896,-4)" class="stroke_order_diagram--existing_path"></path><path id="pathSk2v596cn4p2o" kvg:type="㇒" d="M20.06,32.28c0.89,0.89,1.33,2.33,1.2,4.27c0,22.45-3.08,42.77-10.01,55.77" transform="matrix(1,0,0,1,896,-4)" class="stroke_order_diagram--existing_path"></path><path id="pathSk2v596cn4p2p" kvg:type="㇖a" d="M21.8,34.34c0.8-0.15,1.88-0.34,3.17-0.56c8.22-1.4,24.86-4,31.42-4.12c8-0.16,1.69,4.79-0.3,6.79" transform="matrix(1,0,0,1,896,-4)" class="stroke_order_diagram--existing_path"></path><path id="pathSk2v596cn4p2q" kvg:type="㇐" d="M25.11,44.56c0.57,0.32,1.95,0.39,2.53,0.32c0.69-0.08,1.39,0.07,2.11-0.03c6.24-0.9,13.33-2.71,18.74-3.58c0.81-0.13,1.58-0.24,2.31-0.34c0.94-0.12,1.51,0.16,1.98,0.31" transform="matrix(1,0,0,1,896,-4)" class="stroke_order_diagram--existing_path"></path><path id="pathSk2v596cn4p2r" kvg:type="㇟a" d="M37.02,36.3c0.35,0.34,0.82,1.68,0.82,2.15c0,3.77-0.06,6.93-0.06,8.61c0,3.07,0.97,4.38,6.97,4.38c1.87,0,6.1-0.25,7.71-0.92" transform="matrix(1,0,0,1,896,-4)" class="stroke_order_diagram--existing_path"></path><path id="pathSk2v596cn4p2s" kvg:type="㇑a" d="M35.23,57.89c0.57,0.76,1.02,2.56,1.02,4.15s0.1,24.12,0.1,28.21" transform="matrix(1,0,0,1,896,-4)" class="stroke_order_diagram--existing_path"></path><path id="pathSk2v596cn4p2t" kvg:type="㇑a" d="M45.96,57.62c0.9,0.9,1.27,2.42,1.27,3.9s-0.1,21.89-0.1,25.98" transform="matrix(1,0,0,1,896,-4)" class="stroke_order_diagram--existing_path"></path><path id="pathSk2v596cn4p2u" kvg:type="㇔" d="M24.75,69.38c1.49,2.38,3.84,9.8,4.22,13.5" transform="matrix(1,0,0,1,896,-4)" class="stroke_order_diagram--existing_path"></path><path id="kvg:0622f-s10" kvg:type="㇒" d="M58,65.32c0.14,0.86-0.03,1.65-0.5,2.37c-1.27,2.85-2.97,6.07-6.75,10.13" transform="matrix(1,0,0,1,896,-4)" class="stroke_order_diagram--current_path"></path><path id="pathSk2v596cn4p2w" kvg:type="㇒" d="M58,65.32c0.14,0.86-0.03,1.65-0.5,2.37c-1.27,2.85-2.97,6.07-6.75,10.13" transform="matrix(1,0,0,1,896,-4)" class="stroke_order_diagram--current_path"></path><circle cx="58" cy="65.32" r="8" class="stroke_order_diagram--path_start" transform="matrix(1,0,0,1,896,-4)"></circle><line x1="1050" x2="1050" y1="1" y2="99" class="stroke_order_diagram--guide_line"></line><line x1="1099" x2="1099" y1="1" y2="99" class="stroke_order_diagram--bounding_box"></line><path id="pathSk2v596cn4p2z" kvg:type="㇑a" d="M37.21,11.82c0.7,0.93,1,2.06,1,4.1c0,5.99-0.02,9.32-0.02,14.36" transform="matrix(1,0,0,1,996,-4)" class="stroke_order_diagram--existing_path"></path><path id="pathSk2v596cn4p30" kvg:type="㇐b" d="M39.58,21.17c3.32-0.78,7.77-1.55,11.13-2.17c1.11-0.2,2.29-0.31,2.84-0.12" transform="matrix(1,0,0,1,996,-4)" class="stroke_order_diagram--existing_path"></path><path id="pathSk2v596cn4p31" kvg:type="㇒" d="M20.06,32.28c0.89,0.89,1.33,2.33,1.2,4.27c0,22.45-3.08,42.77-10.01,55.77" transform="matrix(1,0,0,1,996,-4)" class="stroke_order_diagram--existing_path"></path><path id="pathSk2v596cn4p32" kvg:type="㇖a" d="M21.8,34.34c0.8-0.15,1.88-0.34,3.17-0.56c8.22-1.4,24.86-4,31.42-4.12c8-0.16,1.69,4.79-0.3,6.79" transform="matrix(1,0,0,1,996,-4)" class="stroke_order_diagram--existing_path"></path><path id="pathSk2v596cn4p33" kvg:type="㇐" d="M25.11,44.56c0.57,0.32,1.95,0.39,2.53,0.32c0.69-0.08,1.39,0.07,2.11-0.03c6.24-0.9,13.33-2.71,18.74-3.58c0.81-0.13,1.58-0.24,2.31-0.34c0.94-0.12,1.51,0.16,1.98,0.31" transform="matrix(1,0,0,1,996,-4)" class="stroke_order_diagram--existing_path"></path><path id="pathSk2v596cn4p34" kvg:type="㇟a" d="M37.02,36.3c0.35,0.34,0.82,1.68,0.82,2.15c0,3.77-0.06,6.93-0.06,8.61c0,3.07,0.97,4.38,6.97,4.38c1.87,0,6.1-0.25,7.71-0.92" transform="matrix(1,0,0,1,996,-4)" class="stroke_order_diagram--existing_path"></path><path id="pathSk2v596cn4p35" kvg:type="㇑a" d="M35.23,57.89c0.57,0.76,1.02,2.56,1.02,4.15s0.1,24.12,0.1,28.21" transform="matrix(1,0,0,1,996,-4)" class="stroke_order_diagram--existing_path"></path><path id="pathSk2v596cn4p36" kvg:type="㇑a" d="M45.96,57.62c0.9,0.9,1.27,2.42,1.27,3.9s-0.1,21.89-0.1,25.98" transform="matrix(1,0,0,1,996,-4)" class="stroke_order_diagram--existing_path"></path><path id="pathSk2v596cn4p37" kvg:type="㇔" d="M24.75,69.38c1.49,2.38,3.84,9.8,4.22,13.5" transform="matrix(1,0,0,1,996,-4)" class="stroke_order_diagram--existing_path"></path><path id="pathSk2v596cn4p38" kvg:type="㇒" d="M58,65.32c0.14,0.86-0.03,1.65-0.5,2.37c-1.27,2.85-2.97,6.07-6.75,10.13" transform="matrix(1,0,0,1,996,-4)" class="stroke_order_diagram--existing_path"></path><path id="kvg:0622f-s11" kvg:type="㇀/㇐" d="M21.73,92.43c1.15,1.7,2.36,1.88,4.37,1.33C36.12,91,46.38,88,57.93,84.32" transform="matrix(1,0,0,1,996,-4)" class="stroke_order_diagram--current_path"></path><path id="pathSk2v596cn4p3a" kvg:type="㇀/㇐" d="M21.73,92.43c1.15,1.7,2.36,1.88,4.37,1.33C36.12,91,46.38,88,57.93,84.32" transform="matrix(1,0,0,1,996,-4)" class="stroke_order_diagram--current_path"></path><circle cx="21.73" cy="92.43" r="8" class="stroke_order_diagram--path_start" transform="matrix(1,0,0,1,996,-4)"></circle><line x1="1150" x2="1150" y1="1" y2="99" class="stroke_order_diagram--guide_line"></line><line x1="1199" x2="1199" y1="1" y2="99" class="stroke_order_diagram--bounding_box"></line><path id="pathSk2v596cn4p3d" kvg:type="㇑a" d="M37.21,11.82c0.7,0.93,1,2.06,1,4.1c0,5.99-0.02,9.32-0.02,14.36" transform="matrix(1,0,0,1,1096,-4)" class="stroke_order_diagram--existing_path"></path><path id="pathSk2v596cn4p3e" kvg:type="㇐b" d="M39.58,21.17c3.32-0.78,7.77-1.55,11.13-2.17c1.11-0.2,2.29-0.31,2.84-0.12" transform="matrix(1,0,0,1,1096,-4)" class="stroke_order_diagram--existing_path"></path><path id="pathSk2v596cn4p3f" kvg:type="㇒" d="M20.06,32.28c0.89,0.89,1.33,2.33,1.2,4.27c0,22.45-3.08,42.77-10.01,55.77" transform="matrix(1,0,0,1,1096,-4)" class="stroke_order_diagram--existing_path"></path><path id="pathSk2v596cn4p3g" kvg:type="㇖a" d="M21.8,34.34c0.8-0.15,1.88-0.34,3.17-0.56c8.22-1.4,24.86-4,31.42-4.12c8-0.16,1.69,4.79-0.3,6.79" transform="matrix(1,0,0,1,1096,-4)" class="stroke_order_diagram--existing_path"></path><path id="pathSk2v596cn4p3h" kvg:type="㇐" d="M25.11,44.56c0.57,0.32,1.95,0.39,2.53,0.32c0.69-0.08,1.39,0.07,2.11-0.03c6.24-0.9,13.33-2.71,18.74-3.58c0.81-0.13,1.58-0.24,2.31-0.34c0.94-0.12,1.51,0.16,1.98,0.31" transform="matrix(1,0,0,1,1096,-4)" class="stroke_order_diagram--existing_path"></path><path id="pathSk2v596cn4p3i" kvg:type="㇟a" d="M37.02,36.3c0.35,0.34,0.82,1.68,0.82,2.15c0,3.77-0.06,6.93-0.06,8.61c0,3.07,0.97,4.38,6.97,4.38c1.87,0,6.1-0.25,7.71-0.92" transform="matrix(1,0,0,1,1096,-4)" class="stroke_order_diagram--existing_path"></path><path id="pathSk2v596cn4p3j" kvg:type="㇑a" d="M35.23,57.89c0.57,0.76,1.02,2.56,1.02,4.15s0.1,24.12,0.1,28.21" transform="matrix(1,0,0,1,1096,-4)" class="stroke_order_diagram--existing_path"></path><path id="pathSk2v596cn4p3k" kvg:type="㇑a" d="M45.96,57.62c0.9,0.9,1.27,2.42,1.27,3.9s-0.1,21.89-0.1,25.98" transform="matrix(1,0,0,1,1096,-4)" class="stroke_order_diagram--existing_path"></path><path id="pathSk2v596cn4p3l" kvg:type="㇔" d="M24.75,69.38c1.49,2.38,3.84,9.8,4.22,13.5" transform="matrix(1,0,0,1,1096,-4)" class="stroke_order_diagram--existing_path"></path><path id="pathSk2v596cn4p3m" kvg:type="㇒" d="M58,65.32c0.14,0.86-0.03,1.65-0.5,2.37c-1.27,2.85-2.97,6.07-6.75,10.13" transform="matrix(1,0,0,1,1096,-4)" class="stroke_order_diagram--existing_path"></path><path id="pathSk2v596cn4p3n" kvg:type="㇀/㇐" d="M21.73,92.43c1.15,1.7,2.36,1.88,4.37,1.33C36.12,91,46.38,88,57.93,84.32" transform="matrix(1,0,0,1,1096,-4)" class="stroke_order_diagram--existing_path"></path><path id="kvg:0622f-s12" kvg:type="㇐" d="M58.5,46.27c1.5,0.23,3.31,0.17,4.63,0.02c7.34-1.46,16.27-4.57,22.39-6.34c1.19-0.34,2.48-0.7,3.73-0.3" transform="matrix(1,0,0,1,1096,-4)" class="stroke_order_diagram--current_path"></path><path id="pathSk2v596cn4p3p" kvg:type="㇐" d="M58.5,46.27c1.5,0.23,3.31,0.17,4.63,0.02c7.34-1.46,16.27-4.57,22.39-6.34c1.19-0.34,2.48-0.7,3.73-0.3" transform="matrix(1,0,0,1,1096,-4)" class="stroke_order_diagram--current_path"></path><circle cx="58.5" cy="46.27" r="8" class="stroke_order_diagram--path_start" transform="matrix(1,0,0,1,1096,-4)"></circle><line x1="1250" x2="1250" y1="1" y2="99" class="stroke_order_diagram--guide_line"></line><line x1="1299" x2="1299" y1="1" y2="99" class="stroke_order_diagram--bounding_box"></line><path id="pathSk2v596cn4p3s" kvg:type="㇑a" d="M37.21,11.82c0.7,0.93,1,2.06,1,4.1c0,5.99-0.02,9.32-0.02,14.36" transform="matrix(1,0,0,1,1196,-4)" class="stroke_order_diagram--existing_path"></path><path id="pathSk2v596cn4p3t" kvg:type="㇐b" d="M39.58,21.17c3.32-0.78,7.77-1.55,11.13-2.17c1.11-0.2,2.29-0.31,2.84-0.12" transform="matrix(1,0,0,1,1196,-4)" class="stroke_order_diagram--existing_path"></path><path id="pathSk2v596cn4p3u" kvg:type="㇒" d="M20.06,32.28c0.89,0.89,1.33,2.33,1.2,4.27c0,22.45-3.08,42.77-10.01,55.77" transform="matrix(1,0,0,1,1196,-4)" class="stroke_order_diagram--existing_path"></path><path id="pathSk2v596cn4p3v" kvg:type="㇖a" d="M21.8,34.34c0.8-0.15,1.88-0.34,3.17-0.56c8.22-1.4,24.86-4,31.42-4.12c8-0.16,1.69,4.79-0.3,6.79" transform="matrix(1,0,0,1,1196,-4)" class="stroke_order_diagram--existing_path"></path><path id="pathSk2v596cn4p3w" kvg:type="㇐" d="M25.11,44.56c0.57,0.32,1.95,0.39,2.53,0.32c0.69-0.08,1.39,0.07,2.11-0.03c6.24-0.9,13.33-2.71,18.74-3.58c0.81-0.13,1.58-0.24,2.31-0.34c0.94-0.12,1.51,0.16,1.98,0.31" transform="matrix(1,0,0,1,1196,-4)" class="stroke_order_diagram--existing_path"></path><path id="pathSk2v596cn4p3x" kvg:type="㇟a" d="M37.02,36.3c0.35,0.34,0.82,1.68,0.82,2.15c0,3.77-0.06,6.93-0.06,8.61c0,3.07,0.97,4.38,6.97,4.38c1.87,0,6.1-0.25,7.71-0.92" transform="matrix(1,0,0,1,1196,-4)" class="stroke_order_diagram--existing_path"></path><path id="pathSk2v596cn4p3y" kvg:type="㇑a" d="M35.23,57.89c0.57,0.76,1.02,2.56,1.02,4.15s0.1,24.12,0.1,28.21" transform="matrix(1,0,0,1,1196,-4)" class="stroke_order_diagram--existing_path"></path><path id="pathSk2v596cn4p3z" kvg:type="㇑a" d="M45.96,57.62c0.9,0.9,1.27,2.42,1.27,3.9s-0.1,21.89-0.1,25.98" transform="matrix(1,0,0,1,1196,-4)" class="stroke_order_diagram--existing_path"></path><path id="pathSk2v596cn4p40" kvg:type="㇔" d="M24.75,69.38c1.49,2.38,3.84,9.8,4.22,13.5" transform="matrix(1,0,0,1,1196,-4)" class="stroke_order_diagram--existing_path"></path><path id="pathSk2v596cn4p41" kvg:type="㇒" d="M58,65.32c0.14,0.86-0.03,1.65-0.5,2.37c-1.27,2.85-2.97,6.07-6.75,10.13" transform="matrix(1,0,0,1,1196,-4)" class="stroke_order_diagram--existing_path"></path><path id="pathSk2v596cn4p42" kvg:type="㇀/㇐" d="M21.73,92.43c1.15,1.7,2.36,1.88,4.37,1.33C36.12,91,46.38,88,57.93,84.32" transform="matrix(1,0,0,1,1196,-4)" class="stroke_order_diagram--existing_path"></path><path id="pathSk2v596cn4p43" kvg:type="㇐" d="M58.5,46.27c1.5,0.23,3.31,0.17,4.63,0.02c7.34-1.46,16.27-4.57,22.39-6.34c1.19-0.34,2.48-0.7,3.73-0.3" transform="matrix(1,0,0,1,1196,-4)" class="stroke_order_diagram--existing_path"></path><path id="kvg:0622f-s13" kvg:type="㇂" d="M65,10.07c1.5,1.18,2.24,3.37,2.58,6.71c3.67,36.35,11.17,61.97,26.08,78.42c3.69,4.07,5.09,2.87,4.32-8.04" transform="matrix(1,0,0,1,1196,-4)" class="stroke_order_diagram--current_path"></path><path id="pathSk2v596cn4p45" kvg:type="㇂" d="M65,10.07c1.5,1.18,2.24,3.37,2.58,6.71c3.67,36.35,11.17,61.97,26.08,78.42c3.69,4.07,5.09,2.87,4.32-8.04" transform="matrix(1,0,0,1,1196,-4)" class="stroke_order_diagram--current_path"></path><circle cx="65" cy="10.07" r="8" class="stroke_order_diagram--path_start" transform="matrix(1,0,0,1,1196,-4)"></circle><line x1="1350" x2="1350" y1="1" y2="99" class="stroke_order_diagram--guide_line"></line><line x1="1399" x2="1399" y1="1" y2="99" class="stroke_order_diagram--bounding_box"></line><path id="pathSk2v596cn4p48" kvg:type="㇑a" d="M37.21,11.82c0.7,0.93,1,2.06,1,4.1c0,5.99-0.02,9.32-0.02,14.36" transform="matrix(1,0,0,1,1296,-4)" class="stroke_order_diagram--existing_path"></path><path id="pathSk2v596cn4p49" kvg:type="㇐b" d="M39.58,21.17c3.32-0.78,7.77-1.55,11.13-2.17c1.11-0.2,2.29-0.31,2.84-0.12" transform="matrix(1,0,0,1,1296,-4)" class="stroke_order_diagram--existing_path"></path><path id="pathSk2v596cn4p4a" kvg:type="㇒" d="M20.06,32.28c0.89,0.89,1.33,2.33,1.2,4.27c0,22.45-3.08,42.77-10.01,55.77" transform="matrix(1,0,0,1,1296,-4)" class="stroke_order_diagram--existing_path"></path><path id="pathSk2v596cn4p4b" kvg:type="㇖a" d="M21.8,34.34c0.8-0.15,1.88-0.34,3.17-0.56c8.22-1.4,24.86-4,31.42-4.12c8-0.16,1.69,4.79-0.3,6.79" transform="matrix(1,0,0,1,1296,-4)" class="stroke_order_diagram--existing_path"></path><path id="pathSk2v596cn4p4c" kvg:type="㇐" d="M25.11,44.56c0.57,0.32,1.95,0.39,2.53,0.32c0.69-0.08,1.39,0.07,2.11-0.03c6.24-0.9,13.33-2.71,18.74-3.58c0.81-0.13,1.58-0.24,2.31-0.34c0.94-0.12,1.51,0.16,1.98,0.31" transform="matrix(1,0,0,1,1296,-4)" class="stroke_order_diagram--existing_path"></path><path id="pathSk2v596cn4p4d" kvg:type="㇟a" d="M37.02,36.3c0.35,0.34,0.82,1.68,0.82,2.15c0,3.77-0.06,6.93-0.06,8.61c0,3.07,0.97,4.38,6.97,4.38c1.87,0,6.1-0.25,7.71-0.92" transform="matrix(1,0,0,1,1296,-4)" class="stroke_order_diagram--existing_path"></path><path id="pathSk2v596cn4p4e" kvg:type="㇑a" d="M35.23,57.89c0.57,0.76,1.02,2.56,1.02,4.15s0.1,24.12,0.1,28.21" transform="matrix(1,0,0,1,1296,-4)" class="stroke_order_diagram--existing_path"></path><path id="pathSk2v596cn4p4f" kvg:type="㇑a" d="M45.96,57.62c0.9,0.9,1.27,2.42,1.27,3.9s-0.1,21.89-0.1,25.98" transform="matrix(1,0,0,1,1296,-4)" class="stroke_order_diagram--existing_path"></path><path id="pathSk2v596cn4p4g" kvg:type="㇔" d="M24.75,69.38c1.49,2.38,3.84,9.8,4.22,13.5" transform="matrix(1,0,0,1,1296,-4)" class="stroke_order_diagram--existing_path"></path><path id="pathSk2v596cn4p4h" kvg:type="㇒" d="M58,65.32c0.14,0.86-0.03,1.65-0.5,2.37c-1.27,2.85-2.97,6.07-6.75,10.13" transform="matrix(1,0,0,1,1296,-4)" class="stroke_order_diagram--existing_path"></path><path id="pathSk2v596cn4p4i" kvg:type="㇀/㇐" d="M21.73,92.43c1.15,1.7,2.36,1.88,4.37,1.33C36.12,91,46.38,88,57.93,84.32" transform="matrix(1,0,0,1,1296,-4)" class="stroke_order_diagram--existing_path"></path><path id="pathSk2v596cn4p4j" kvg:type="㇐" d="M58.5,46.27c1.5,0.23,3.31,0.17,4.63,0.02c7.34-1.46,16.27-4.57,22.39-6.34c1.19-0.34,2.48-0.7,3.73-0.3" transform="matrix(1,0,0,1,1296,-4)" class="stroke_order_diagram--existing_path"></path><path id="pathSk2v596cn4p4k" kvg:type="㇂" d="M65,10.07c1.5,1.18,2.24,3.37,2.58,6.71c3.67,36.35,11.17,61.97,26.08,78.42c3.69,4.07,5.09,2.87,4.32-8.04" transform="matrix(1,0,0,1,1296,-4)" class="stroke_order_diagram--existing_path"></path><path id="kvg:0622f-s14" kvg:type="㇒" d="M88.73,50.71c0.07,0.71-0.1,1.59-0.39,2.61C84.62,61.75,76.77,72.48,63,80.57" transform="matrix(1,0,0,1,1296,-4)" class="stroke_order_diagram--current_path"></path><path id="pathSk2v596cn4p4m" kvg:type="㇒" d="M88.73,50.71c0.07,0.71-0.1,1.59-0.39,2.61C84.62,61.75,76.77,72.48,63,80.57" transform="matrix(1,0,0,1,1296,-4)" class="stroke_order_diagram--current_path"></path><circle cx="88.73" cy="50.71" r="8" class="stroke_order_diagram--path_start" transform="matrix(1,0,0,1,1296,-4)"></circle><line x1="1450" x2="1450" y1="1" y2="99" class="stroke_order_diagram--guide_line"></line><line x1="1499" x2="1499" y1="1" y2="99" class="stroke_order_diagram--bounding_box"></line><path id="pathSk2v596cn4p4p" kvg:type="㇑a" d="M37.21,11.82c0.7,0.93,1,2.06,1,4.1c0,5.99-0.02,9.32-0.02,14.36" transform="matrix(1,0,0,1,1396,-4)" class="stroke_order_diagram--existing_path"></path><path id="pathSk2v596cn4p4q" kvg:type="㇐b" d="M39.58,21.17c3.32-0.78,7.77-1.55,11.13-2.17c1.11-0.2,2.29-0.31,2.84-0.12" transform="matrix(1,0,0,1,1396,-4)" class="stroke_order_diagram--existing_path"></path><path id="pathSk2v596cn4p4r" kvg:type="㇒" d="M20.06,32.28c0.89,0.89,1.33,2.33,1.2,4.27c0,22.45-3.08,42.77-10.01,55.77" transform="matrix(1,0,0,1,1396,-4)" class="stroke_order_diagram--existing_path"></path><path id="pathSk2v596cn4p4s" kvg:type="㇖a" d="M21.8,34.34c0.8-0.15,1.88-0.34,3.17-0.56c8.22-1.4,24.86-4,31.42-4.12c8-0.16,1.69,4.79-0.3,6.79" transform="matrix(1,0,0,1,1396,-4)" class="stroke_order_diagram--existing_path"></path><path id="pathSk2v596cn4p4t" kvg:type="㇐" d="M25.11,44.56c0.57,0.32,1.95,0.39,2.53,0.32c0.69-0.08,1.39,0.07,2.11-0.03c6.24-0.9,13.33-2.71,18.74-3.58c0.81-0.13,1.58-0.24,2.31-0.34c0.94-0.12,1.51,0.16,1.98,0.31" transform="matrix(1,0,0,1,1396,-4)" class="stroke_order_diagram--existing_path"></path><path id="pathSk2v596cn4p4u" kvg:type="㇟a" d="M37.02,36.3c0.35,0.34,0.82,1.68,0.82,2.15c0,3.77-0.06,6.93-0.06,8.61c0,3.07,0.97,4.38,6.97,4.38c1.87,0,6.1-0.25,7.71-0.92" transform="matrix(1,0,0,1,1396,-4)" class="stroke_order_diagram--existing_path"></path><path id="pathSk2v596cn4p4v" kvg:type="㇑a" d="M35.23,57.89c0.57,0.76,1.02,2.56,1.02,4.15s0.1,24.12,0.1,28.21" transform="matrix(1,0,0,1,1396,-4)" class="stroke_order_diagram--existing_path"></path><path id="pathSk2v596cn4p4w" kvg:type="㇑a" d="M45.96,57.62c0.9,0.9,1.27,2.42,1.27,3.9s-0.1,21.89-0.1,25.98" transform="matrix(1,0,0,1,1396,-4)" class="stroke_order_diagram--existing_path"></path><path id="pathSk2v596cn4p4x" kvg:type="㇔" d="M24.75,69.38c1.49,2.38,3.84,9.8,4.22,13.5" transform="matrix(1,0,0,1,1396,-4)" class="stroke_order_diagram--existing_path"></path><path id="pathSk2v596cn4p4y" kvg:type="㇒" d="M58,65.32c0.14,0.86-0.03,1.65-0.5,2.37c-1.27,2.85-2.97,6.07-6.75,10.13" transform="matrix(1,0,0,1,1396,-4)" class="stroke_order_diagram--existing_path"></path><path id="pathSk2v596cn4p4z" kvg:type="㇀/㇐" d="M21.73,92.43c1.15,1.7,2.36,1.88,4.37,1.33C36.12,91,46.38,88,57.93,84.32" transform="matrix(1,0,0,1,1396,-4)" class="stroke_order_diagram--existing_path"></path><path id="pathSk2v596cn4p50" kvg:type="㇐" d="M58.5,46.27c1.5,0.23,3.31,0.17,4.63,0.02c7.34-1.46,16.27-4.57,22.39-6.34c1.19-0.34,2.48-0.7,3.73-0.3" transform="matrix(1,0,0,1,1396,-4)" class="stroke_order_diagram--existing_path"></path><path id="pathSk2v596cn4p51" kvg:type="㇂" d="M65,10.07c1.5,1.18,2.24,3.37,2.58,6.71c3.67,36.35,11.17,61.97,26.08,78.42c3.69,4.07,5.09,2.87,4.32-8.04" transform="matrix(1,0,0,1,1396,-4)" class="stroke_order_diagram--existing_path"></path><path id="pathSk2v596cn4p52" kvg:type="㇒" d="M88.73,50.71c0.07,0.71-0.1,1.59-0.39,2.61C84.62,61.75,76.77,72.48,63,80.57" transform="matrix(1,0,0,1,1396,-4)" class="stroke_order_diagram--existing_path"></path><path id="kvg:0622f-s15" kvg:type="㇔" d="M78.25,18.57c3.1,2.35,7.55,7.72,9,11.75" transform="matrix(1,0,0,1,1396,-4)" class="stroke_order_diagram--current_path"></path><path id="pathSk2v596cn4p54" kvg:type="㇔" d="M78.25,18.57c3.1,2.35,7.55,7.72,9,11.75" transform="matrix(1,0,0,1,1396,-4)" class="stroke_order_diagram--current_path"></path><circle cx="78.25" cy="18.57" r="8" class="stroke_order_diagram--path_start" transform="matrix(1,0,0,1,1396,-4)"></circle></svg>