<svg style="width: 800px; height: 100px;" viewbox="0 0 800 100"><style>
.stroke_order_diagram--outer_container {
  width: 100%;
  overflow-x: auto;
  overflow-y: hidden;
}

.stroke_order_diagram--guide_line {
  fill: none;
  stroke: #ddd;
  stroke-width: 3;
  stroke-linecap: square;
  stroke-linejoin: square;
  stroke-dasharray:8, 8;
}

.stroke_order_diagram--bounding_box {
  fill: none;
  stroke: #ddd;
  stroke-width: 4;
  stroke-linecap: square;
  stroke-linejoin: square;
}

.stroke_order_diagram--current_path {
  fill: none;
  stroke: #000;
  stroke-width: 6;
  stroke-linecap: round;
  stroke-linejoin: round;
}

.stroke_order_diagram--existing_path {
  fill: none;
  stroke: #aaa;
  stroke-width: 6;
  stroke-linecap: round;
  stroke-linejoin:round;
}

.stroke_order_diagram--path_start {
  fill: rgba(255, 0, 0, 0.7);
  stroke:none
}</style><desc>Created with Snap</desc><defs></defs><line x1="1" x2="799" y1="1" y2="1" class="stroke_order_diagram--bounding_box"></line><line x1="1" x2="1" y1="1" y2="99" class="stroke_order_diagram--bounding_box"></line><line x1="1" x2="799" y1="99" y2="99" class="stroke_order_diagram--bounding_box"></line><line x1="0" x2="800" y1="50" y2="50" class="stroke_order_diagram--guide_line"></line><line x1="50" x2="50" y1="1" y2="99" class="stroke_order_diagram--guide_line"></line><line x1="99" x2="99" y1="1" y2="99" class="stroke_order_diagram--bounding_box"></line><path id="kvg:0623f-s1" kvg:type="㇐" d="M19.88,15.76c3.12,0.98,6.71,0.72,9.89,0.51c11.67-0.77,34.29-2.55,48.22-3.49c3.35-0.23,6.81-0.72,10.14-0.09" transform="matrix(1,0,0,1,-4,-4)" class="stroke_order_diagram--current_path"></path><path id="pathSk2v596cn2s5p" kvg:type="㇐" d="M19.88,15.76c3.12,0.98,6.71,0.72,9.89,0.51c11.67-0.77,34.29-2.55,48.22-3.49c3.35-0.23,6.81-0.72,10.14-0.09" transform="matrix(1,0,0,1,-4,-4)" class="stroke_order_diagram--current_path"></path><circle cx="19.88" cy="15.76" r="8" class="stroke_order_diagram--path_start" transform="matrix(1,0,0,1,-4,-4)"></circle><line x1="150" x2="150" y1="1" y2="99" class="stroke_order_diagram--guide_line"></line><line x1="199" x2="199" y1="1" y2="99" class="stroke_order_diagram--bounding_box"></line><path id="pathSk2v596cn2s5s" kvg:type="㇐" d="M19.88,15.76c3.12,0.98,6.71,0.72,9.89,0.51c11.67-0.77,34.29-2.55,48.22-3.49c3.35-0.23,6.81-0.72,10.14-0.09" transform="matrix(1,0,0,1,96,-4)" class="stroke_order_diagram--existing_path"></path><path id="kvg:0623f-s2" kvg:type="㇕c" d="M29.1,27.88c2.31,0.75,4.52,0.91,6.89,0.57c11.88-1.7,30.63-3.45,40.26-4.27c2.54-0.22,4.74,1.44,3.99,4.07c-0.87,3.04-2.25,7.25-3,9.75" transform="matrix(1,0,0,1,96,-4)" class="stroke_order_diagram--current_path"></path><path id="pathSk2v596cn2s5u" kvg:type="㇕c" d="M29.1,27.88c2.31,0.75,4.52,0.91,6.89,0.57c11.88-1.7,30.63-3.45,40.26-4.27c2.54-0.22,4.74,1.44,3.99,4.07c-0.87,3.04-2.25,7.25-3,9.75" transform="matrix(1,0,0,1,96,-4)" class="stroke_order_diagram--current_path"></path><circle cx="29.1" cy="27.88" r="8" class="stroke_order_diagram--path_start" transform="matrix(1,0,0,1,96,-4)"></circle><line x1="250" x2="250" y1="1" y2="99" class="stroke_order_diagram--guide_line"></line><line x1="299" x2="299" y1="1" y2="99" class="stroke_order_diagram--bounding_box"></line><path id="pathSk2v596cn2s5x" kvg:type="㇐" d="M19.88,15.76c3.12,0.98,6.71,0.72,9.89,0.51c11.67-0.77,34.29-2.55,48.22-3.49c3.35-0.23,6.81-0.72,10.14-0.09" transform="matrix(1,0,0,1,196,-4)" class="stroke_order_diagram--existing_path"></path><path id="pathSk2v596cn2s5y" kvg:type="㇕c" d="M29.1,27.88c2.31,0.75,4.52,0.91,6.89,0.57c11.88-1.7,30.63-3.45,40.26-4.27c2.54-0.22,4.74,1.44,3.99,4.07c-0.87,3.04-2.25,7.25-3,9.75" transform="matrix(1,0,0,1,196,-4)" class="stroke_order_diagram--existing_path"></path><path id="kvg:0623f-s3" kvg:type="㇐b" d="M32,42.5c1.25,0,29.38-2.75,41.01-3.97c2.6-0.27,4.91-0.28,6.74-0.28" transform="matrix(1,0,0,1,196,-4)" class="stroke_order_diagram--current_path"></path><path id="pathSk2v596cn2s60" kvg:type="㇐b" d="M32,42.5c1.25,0,29.38-2.75,41.01-3.97c2.6-0.27,4.91-0.28,6.74-0.28" transform="matrix(1,0,0,1,196,-4)" class="stroke_order_diagram--current_path"></path><circle cx="32" cy="42.5" r="8" class="stroke_order_diagram--path_start" transform="matrix(1,0,0,1,196,-4)"></circle><line x1="350" x2="350" y1="1" y2="99" class="stroke_order_diagram--guide_line"></line><line x1="399" x2="399" y1="1" y2="99" class="stroke_order_diagram--bounding_box"></line><path id="pathSk2v596cn2s63" kvg:type="㇐" d="M19.88,15.76c3.12,0.98,6.71,0.72,9.89,0.51c11.67-0.77,34.29-2.55,48.22-3.49c3.35-0.23,6.81-0.72,10.14-0.09" transform="matrix(1,0,0,1,296,-4)" class="stroke_order_diagram--existing_path"></path><path id="pathSk2v596cn2s64" kvg:type="㇕c" d="M29.1,27.88c2.31,0.75,4.52,0.91,6.89,0.57c11.88-1.7,30.63-3.45,40.26-4.27c2.54-0.22,4.74,1.44,3.99,4.07c-0.87,3.04-2.25,7.25-3,9.75" transform="matrix(1,0,0,1,296,-4)" class="stroke_order_diagram--existing_path"></path><path id="pathSk2v596cn2s65" kvg:type="㇐b" d="M32,42.5c1.25,0,29.38-2.75,41.01-3.97c2.6-0.27,4.91-0.28,6.74-0.28" transform="matrix(1,0,0,1,296,-4)" class="stroke_order_diagram--existing_path"></path><path id="kvg:0623f-s4" kvg:type="㇒" d="M30.94,29.18c1.06,1.06,1.12,2.5,0.9,4.45C29.12,56.62,24.25,75,13,86.75" transform="matrix(1,0,0,1,296,-4)" class="stroke_order_diagram--current_path"></path><path id="pathSk2v596cn2s67" kvg:type="㇒" d="M30.94,29.18c1.06,1.06,1.12,2.5,0.9,4.45C29.12,56.62,24.25,75,13,86.75" transform="matrix(1,0,0,1,296,-4)" class="stroke_order_diagram--current_path"></path><circle cx="30.94" cy="29.18" r="8" class="stroke_order_diagram--path_start" transform="matrix(1,0,0,1,296,-4)"></circle><line x1="450" x2="450" y1="1" y2="99" class="stroke_order_diagram--guide_line"></line><line x1="499" x2="499" y1="1" y2="99" class="stroke_order_diagram--bounding_box"></line><path id="pathSk2v596cn2s6a" kvg:type="㇐" d="M19.88,15.76c3.12,0.98,6.71,0.72,9.89,0.51c11.67-0.77,34.29-2.55,48.22-3.49c3.35-0.23,6.81-0.72,10.14-0.09" transform="matrix(1,0,0,1,396,-4)" class="stroke_order_diagram--existing_path"></path><path id="pathSk2v596cn2s6b" kvg:type="㇕c" d="M29.1,27.88c2.31,0.75,4.52,0.91,6.89,0.57c11.88-1.7,30.63-3.45,40.26-4.27c2.54-0.22,4.74,1.44,3.99,4.07c-0.87,3.04-2.25,7.25-3,9.75" transform="matrix(1,0,0,1,396,-4)" class="stroke_order_diagram--existing_path"></path><path id="pathSk2v596cn2s6c" kvg:type="㇐b" d="M32,42.5c1.25,0,29.38-2.75,41.01-3.97c2.6-0.27,4.91-0.28,6.74-0.28" transform="matrix(1,0,0,1,396,-4)" class="stroke_order_diagram--existing_path"></path><path id="pathSk2v596cn2s6d" kvg:type="㇒" d="M30.94,29.18c1.06,1.06,1.12,2.5,0.9,4.45C29.12,56.62,24.25,75,13,86.75" transform="matrix(1,0,0,1,396,-4)" class="stroke_order_diagram--existing_path"></path><path id="kvg:0623f-s5" kvg:type="㇑a" d="M58.83,46.75c0.9,0.9,1.2,2.12,1.2,3.57c0,1.68-0.03,3.49-0.03,6.05" transform="matrix(1,0,0,1,396,-4)" class="stroke_order_diagram--current_path"></path><path id="pathSk2v596cn2s6f" kvg:type="㇑a" d="M58.83,46.75c0.9,0.9,1.2,2.12,1.2,3.57c0,1.68-0.03,3.49-0.03,6.05" transform="matrix(1,0,0,1,396,-4)" class="stroke_order_diagram--current_path"></path><circle cx="58.83" cy="46.75" r="8" class="stroke_order_diagram--path_start" transform="matrix(1,0,0,1,396,-4)"></circle><line x1="550" x2="550" y1="1" y2="99" class="stroke_order_diagram--guide_line"></line><line x1="599" x2="599" y1="1" y2="99" class="stroke_order_diagram--bounding_box"></line><path id="pathSk2v596cn2s6i" kvg:type="㇐" d="M19.88,15.76c3.12,0.98,6.71,0.72,9.89,0.51c11.67-0.77,34.29-2.55,48.22-3.49c3.35-0.23,6.81-0.72,10.14-0.09" transform="matrix(1,0,0,1,496,-4)" class="stroke_order_diagram--existing_path"></path><path id="pathSk2v596cn2s6j" kvg:type="㇕c" d="M29.1,27.88c2.31,0.75,4.52,0.91,6.89,0.57c11.88-1.7,30.63-3.45,40.26-4.27c2.54-0.22,4.74,1.44,3.99,4.07c-0.87,3.04-2.25,7.25-3,9.75" transform="matrix(1,0,0,1,496,-4)" class="stroke_order_diagram--existing_path"></path><path id="pathSk2v596cn2s6k" kvg:type="㇐b" d="M32,42.5c1.25,0,29.38-2.75,41.01-3.97c2.6-0.27,4.91-0.28,6.74-0.28" transform="matrix(1,0,0,1,496,-4)" class="stroke_order_diagram--existing_path"></path><path id="pathSk2v596cn2s6l" kvg:type="㇒" d="M30.94,29.18c1.06,1.06,1.12,2.5,0.9,4.45C29.12,56.62,24.25,75,13,86.75" transform="matrix(1,0,0,1,496,-4)" class="stroke_order_diagram--existing_path"></path><path id="pathSk2v596cn2s6m" kvg:type="㇑a" d="M58.83,46.75c0.9,0.9,1.2,2.12,1.2,3.57c0,1.68-0.03,3.49-0.03,6.05" transform="matrix(1,0,0,1,496,-4)" class="stroke_order_diagram--existing_path"></path><path id="kvg:0623f-s6" kvg:type="㇐" d="M34.71,59.31c2.42,0.56,5.16,0.6,7.78,0.19c9.64-1.5,25.76-2.88,37.13-3.59c2.49-0.16,5.57-0.18,7.92,0.65" transform="matrix(1,0,0,1,496,-4)" class="stroke_order_diagram--current_path"></path><path id="pathSk2v596cn2s6o" kvg:type="㇐" d="M34.71,59.31c2.42,0.56,5.16,0.6,7.78,0.19c9.64-1.5,25.76-2.88,37.13-3.59c2.49-0.16,5.57-0.18,7.92,0.65" transform="matrix(1,0,0,1,496,-4)" class="stroke_order_diagram--current_path"></path><circle cx="34.71" cy="59.31" r="8" class="stroke_order_diagram--path_start" transform="matrix(1,0,0,1,496,-4)"></circle><line x1="650" x2="650" y1="1" y2="99" class="stroke_order_diagram--guide_line"></line><line x1="699" x2="699" y1="1" y2="99" class="stroke_order_diagram--bounding_box"></line><path id="pathSk2v596cn2s6r" kvg:type="㇐" d="M19.88,15.76c3.12,0.98,6.71,0.72,9.89,0.51c11.67-0.77,34.29-2.55,48.22-3.49c3.35-0.23,6.81-0.72,10.14-0.09" transform="matrix(1,0,0,1,596,-4)" class="stroke_order_diagram--existing_path"></path><path id="pathSk2v596cn2s6s" kvg:type="㇕c" d="M29.1,27.88c2.31,0.75,4.52,0.91,6.89,0.57c11.88-1.7,30.63-3.45,40.26-4.27c2.54-0.22,4.74,1.44,3.99,4.07c-0.87,3.04-2.25,7.25-3,9.75" transform="matrix(1,0,0,1,596,-4)" class="stroke_order_diagram--existing_path"></path><path id="pathSk2v596cn2s6t" kvg:type="㇐b" d="M32,42.5c1.25,0,29.38-2.75,41.01-3.97c2.6-0.27,4.91-0.28,6.74-0.28" transform="matrix(1,0,0,1,596,-4)" class="stroke_order_diagram--existing_path"></path><path id="pathSk2v596cn2s6u" kvg:type="㇒" d="M30.94,29.18c1.06,1.06,1.12,2.5,0.9,4.45C29.12,56.62,24.25,75,13,86.75" transform="matrix(1,0,0,1,596,-4)" class="stroke_order_diagram--existing_path"></path><path id="pathSk2v596cn2s6v" kvg:type="㇑a" d="M58.83,46.75c0.9,0.9,1.2,2.12,1.2,3.57c0,1.68-0.03,3.49-0.03,6.05" transform="matrix(1,0,0,1,596,-4)" class="stroke_order_diagram--existing_path"></path><path id="pathSk2v596cn2s6w" kvg:type="㇐" d="M34.71,59.31c2.42,0.56,5.16,0.6,7.78,0.19c9.64-1.5,25.76-2.88,37.13-3.59c2.49-0.16,5.57-0.18,7.92,0.65" transform="matrix(1,0,0,1,596,-4)" class="stroke_order_diagram--existing_path"></path><path id="kvg:0623f-s7" kvg:type="㇆a" d="M55.19,66.5c4.81,2,11.44,3.37,18.18,4.59c2.62,0.47,3.1,2.33,2.47,4.56c-1.51,5.32-8.58,17.37-11.53,20.37c-3.06,3.1-5.06,1.98-7.03-0.59" transform="matrix(1,0,0,1,596,-4)" class="stroke_order_diagram--current_path"></path><path id="pathSk2v596cn2s6y" kvg:type="㇆a" d="M55.19,66.5c4.81,2,11.44,3.37,18.18,4.59c2.62,0.47,3.1,2.33,2.47,4.56c-1.51,5.32-8.58,17.37-11.53,20.37c-3.06,3.1-5.06,1.98-7.03-0.59" transform="matrix(1,0,0,1,596,-4)" class="stroke_order_diagram--current_path"></path><circle cx="55.19" cy="66.5" r="8" class="stroke_order_diagram--path_start" transform="matrix(1,0,0,1,596,-4)"></circle><line x1="750" x2="750" y1="1" y2="99" class="stroke_order_diagram--guide_line"></line><line x1="799" x2="799" y1="1" y2="99" class="stroke_order_diagram--bounding_box"></line><path id="pathSk2v596cn2s71" kvg:type="㇐" d="M19.88,15.76c3.12,0.98,6.71,0.72,9.89,0.51c11.67-0.77,34.29-2.55,48.22-3.49c3.35-0.23,6.81-0.72,10.14-0.09" transform="matrix(1,0,0,1,696,-4)" class="stroke_order_diagram--existing_path"></path><path id="pathSk2v596cn2s72" kvg:type="㇕c" d="M29.1,27.88c2.31,0.75,4.52,0.91,6.89,0.57c11.88-1.7,30.63-3.45,40.26-4.27c2.54-0.22,4.74,1.44,3.99,4.07c-0.87,3.04-2.25,7.25-3,9.75" transform="matrix(1,0,0,1,696,-4)" class="stroke_order_diagram--existing_path"></path><path id="pathSk2v596cn2s73" kvg:type="㇐b" d="M32,42.5c1.25,0,29.38-2.75,41.01-3.97c2.6-0.27,4.91-0.28,6.74-0.28" transform="matrix(1,0,0,1,696,-4)" class="stroke_order_diagram--existing_path"></path><path id="pathSk2v596cn2s74" kvg:type="㇒" d="M30.94,29.18c1.06,1.06,1.12,2.5,0.9,4.45C29.12,56.62,24.25,75,13,86.75" transform="matrix(1,0,0,1,696,-4)" class="stroke_order_diagram--existing_path"></path><path id="pathSk2v596cn2s75" kvg:type="㇑a" d="M58.83,46.75c0.9,0.9,1.2,2.12,1.2,3.57c0,1.68-0.03,3.49-0.03,6.05" transform="matrix(1,0,0,1,696,-4)" class="stroke_order_diagram--existing_path"></path><path id="pathSk2v596cn2s76" kvg:type="㇐" d="M34.71,59.31c2.42,0.56,5.16,0.6,7.78,0.19c9.64-1.5,25.76-2.88,37.13-3.59c2.49-0.16,5.57-0.18,7.92,0.65" transform="matrix(1,0,0,1,696,-4)" class="stroke_order_diagram--existing_path"></path><path id="pathSk2v596cn2s77" kvg:type="㇆a" d="M55.19,66.5c4.81,2,11.44,3.37,18.18,4.59c2.62,0.47,3.1,2.33,2.47,4.56c-1.51,5.32-8.58,17.37-11.53,20.37c-3.06,3.1-5.06,1.98-7.03-0.59" transform="matrix(1,0,0,1,696,-4)" class="stroke_order_diagram--existing_path"></path><path id="kvg:0623f-s8" kvg:type="㇒" d="M55.44,61.21c0.31,1.17,0.05,1.92-0.39,2.93c-3.08,7.01-11.42,19.73-25.55,27.79" transform="matrix(1,0,0,1,696,-4)" class="stroke_order_diagram--current_path"></path><path id="pathSk2v596cn2s79" kvg:type="㇒" d="M55.44,61.21c0.31,1.17,0.05,1.92-0.39,2.93c-3.08,7.01-11.42,19.73-25.55,27.79" transform="matrix(1,0,0,1,696,-4)" class="stroke_order_diagram--current_path"></path><circle cx="55.44" cy="61.21" r="8" class="stroke_order_diagram--path_start" transform="matrix(1,0,0,1,696,-4)"></circle></svg>