<svg style="width: 500px; height: 100px;" viewbox="0 0 500 100"><style>
.stroke_order_diagram--outer_container {
  width: 100%;
  overflow-x: auto;
  overflow-y: hidden;
}

.stroke_order_diagram--guide_line {
  fill: none;
  stroke: #ddd;
  stroke-width: 3;
  stroke-linecap: square;
  stroke-linejoin: square;
  stroke-dasharray:8, 8;
}

.stroke_order_diagram--bounding_box {
  fill: none;
  stroke: #ddd;
  stroke-width: 4;
  stroke-linecap: square;
  stroke-linejoin: square;
}

.stroke_order_diagram--current_path {
  fill: none;
  stroke: #000;
  stroke-width: 6;
  stroke-linecap: round;
  stroke-linejoin: round;
}

.stroke_order_diagram--existing_path {
  fill: none;
  stroke: #aaa;
  stroke-width: 6;
  stroke-linecap: round;
  stroke-linejoin:round;
}

.stroke_order_diagram--path_start {
  fill: rgba(255, 0, 0, 0.7);
  stroke:none
}</style><desc>Created with Snap</desc><defs></defs><line x1="1" x2="499" y1="1" y2="1" class="stroke_order_diagram--bounding_box"></line><line x1="1" x2="1" y1="1" y2="99" class="stroke_order_diagram--bounding_box"></line><line x1="1" x2="499" y1="99" y2="99" class="stroke_order_diagram--bounding_box"></line><line x1="0" x2="500" y1="50" y2="50" class="stroke_order_diagram--guide_line"></line><line x1="50" x2="50" y1="1" y2="99" class="stroke_order_diagram--guide_line"></line><line x1="99" x2="99" y1="1" y2="99" class="stroke_order_diagram--bounding_box"></line><path id="kvg:06253-s1" kvg:type="㇐" d="M13.17,35.25c1.58,0.38,3.34,0.34,5.33,0.25c5.38-0.25,16.5-1.62,26.64-2.77c1.04-0.12,1.98-0.13,2.78-0.14" transform="matrix(1,0,0,1,-4,-4)" class="stroke_order_diagram--current_path"></path><path id="pathSk2v596cn2mf" kvg:type="㇐" d="M13.17,35.25c1.58,0.38,3.34,0.34,5.33,0.25c5.38-0.25,16.5-1.62,26.64-2.77c1.04-0.12,1.98-0.13,2.78-0.14" transform="matrix(1,0,0,1,-4,-4)" class="stroke_order_diagram--current_path"></path><circle cx="13.17" cy="35.25" r="8" class="stroke_order_diagram--path_start" transform="matrix(1,0,0,1,-4,-4)"></circle><line x1="150" x2="150" y1="1" y2="99" class="stroke_order_diagram--guide_line"></line><line x1="199" x2="199" y1="1" y2="99" class="stroke_order_diagram--bounding_box"></line><path id="pathSk2v596cn2mi" kvg:type="㇐" d="M13.17,35.25c1.58,0.38,3.34,0.34,5.33,0.25c5.38-0.25,16.5-1.62,26.64-2.77c1.04-0.12,1.98-0.13,2.78-0.14" transform="matrix(1,0,0,1,96,-4)" class="stroke_order_diagram--existing_path"></path><path id="kvg:06253-s2" kvg:type="㇚" d="M33.02,12.83c1.14,1.14,1.76,3.29,1.76,5.52c0,14.56-0.01,65.41-0.01,70.37c0,9.53-4.77,4.66-8.46,0.75" transform="matrix(1,0,0,1,96,-4)" class="stroke_order_diagram--current_path"></path><path id="pathSk2v596cn2mk" kvg:type="㇚" d="M33.02,12.83c1.14,1.14,1.76,3.29,1.76,5.52c0,14.56-0.01,65.41-0.01,70.37c0,9.53-4.77,4.66-8.46,0.75" transform="matrix(1,0,0,1,96,-4)" class="stroke_order_diagram--current_path"></path><circle cx="33.02" cy="12.83" r="8" class="stroke_order_diagram--path_start" transform="matrix(1,0,0,1,96,-4)"></circle><line x1="250" x2="250" y1="1" y2="99" class="stroke_order_diagram--guide_line"></line><line x1="299" x2="299" y1="1" y2="99" class="stroke_order_diagram--bounding_box"></line><path id="pathSk2v596cn2mn" kvg:type="㇐" d="M13.17,35.25c1.58,0.38,3.34,0.34,5.33,0.25c5.38-0.25,16.5-1.62,26.64-2.77c1.04-0.12,1.98-0.13,2.78-0.14" transform="matrix(1,0,0,1,196,-4)" class="stroke_order_diagram--existing_path"></path><path id="pathSk2v596cn2mo" kvg:type="㇚" d="M33.02,12.83c1.14,1.14,1.76,3.29,1.76,5.52c0,14.56-0.01,65.41-0.01,70.37c0,9.53-4.77,4.66-8.46,0.75" transform="matrix(1,0,0,1,196,-4)" class="stroke_order_diagram--existing_path"></path><path id="kvg:06253-s3" kvg:type="㇀" d="M14,67.9c1.61,0.65,3.17,0.58,4.92-0.61c1.64-1.12,16.48-11.55,23.46-16.92" transform="matrix(1,0,0,1,196,-4)" class="stroke_order_diagram--current_path"></path><path id="pathSk2v596cn2mq" kvg:type="㇀" d="M14,67.9c1.61,0.65,3.17,0.58,4.92-0.61c1.64-1.12,16.48-11.55,23.46-16.92" transform="matrix(1,0,0,1,196,-4)" class="stroke_order_diagram--current_path"></path><circle cx="14" cy="67.9" r="8" class="stroke_order_diagram--path_start" transform="matrix(1,0,0,1,196,-4)"></circle><line x1="350" x2="350" y1="1" y2="99" class="stroke_order_diagram--guide_line"></line><line x1="399" x2="399" y1="1" y2="99" class="stroke_order_diagram--bounding_box"></line><path id="pathSk2v596cn2mt" kvg:type="㇐" d="M13.17,35.25c1.58,0.38,3.34,0.34,5.33,0.25c5.38-0.25,16.5-1.62,26.64-2.77c1.04-0.12,1.98-0.13,2.78-0.14" transform="matrix(1,0,0,1,296,-4)" class="stroke_order_diagram--existing_path"></path><path id="pathSk2v596cn2mu" kvg:type="㇚" d="M33.02,12.83c1.14,1.14,1.76,3.29,1.76,5.52c0,14.56-0.01,65.41-0.01,70.37c0,9.53-4.77,4.66-8.46,0.75" transform="matrix(1,0,0,1,296,-4)" class="stroke_order_diagram--existing_path"></path><path id="pathSk2v596cn2mv" kvg:type="㇀" d="M14,67.9c1.61,0.65,3.17,0.58,4.92-0.61c1.64-1.12,16.48-11.55,23.46-16.92" transform="matrix(1,0,0,1,296,-4)" class="stroke_order_diagram--existing_path"></path><path id="kvg:06253-s4" kvg:type="㇐" d="M54,31.38c2.38,0.37,4.75,0.3,6.5,0.11c9.46-1.06,21.03-2.15,31.08-3.22c2.91-0.31,4.7,0.29,6.16,0.59" transform="matrix(1,0,0,1,296,-4)" class="stroke_order_diagram--current_path"></path><path id="pathSk2v596cn2mx" kvg:type="㇐" d="M54,31.38c2.38,0.37,4.75,0.3,6.5,0.11c9.46-1.06,21.03-2.15,31.08-3.22c2.91-0.31,4.7,0.29,6.16,0.59" transform="matrix(1,0,0,1,296,-4)" class="stroke_order_diagram--current_path"></path><circle cx="54" cy="31.38" r="8" class="stroke_order_diagram--path_start" transform="matrix(1,0,0,1,296,-4)"></circle><line x1="450" x2="450" y1="1" y2="99" class="stroke_order_diagram--guide_line"></line><line x1="499" x2="499" y1="1" y2="99" class="stroke_order_diagram--bounding_box"></line><path id="pathSk2v596cn2n0" kvg:type="㇐" d="M13.17,35.25c1.58,0.38,3.34,0.34,5.33,0.25c5.38-0.25,16.5-1.62,26.64-2.77c1.04-0.12,1.98-0.13,2.78-0.14" transform="matrix(1,0,0,1,396,-4)" class="stroke_order_diagram--existing_path"></path><path id="pathSk2v596cn2n1" kvg:type="㇚" d="M33.02,12.83c1.14,1.14,1.76,3.29,1.76,5.52c0,14.56-0.01,65.41-0.01,70.37c0,9.53-4.77,4.66-8.46,0.75" transform="matrix(1,0,0,1,396,-4)" class="stroke_order_diagram--existing_path"></path><path id="pathSk2v596cn2n2" kvg:type="㇀" d="M14,67.9c1.61,0.65,3.17,0.58,4.92-0.61c1.64-1.12,16.48-11.55,23.46-16.92" transform="matrix(1,0,0,1,396,-4)" class="stroke_order_diagram--existing_path"></path><path id="pathSk2v596cn2n3" kvg:type="㇐" d="M54,31.38c2.38,0.37,4.75,0.3,6.5,0.11c9.46-1.06,21.03-2.15,31.08-3.22c2.91-0.31,4.7,0.29,6.16,0.59" transform="matrix(1,0,0,1,396,-4)" class="stroke_order_diagram--existing_path"></path><path id="kvg:06253-s5" kvg:type="㇚" d="M76.27,33.33c1.07,1.07,2,2.67,2,4.56c0,14.67,0,47.36,0,52.55c0,10.94-4.76,3.4-8.21,0.5" transform="matrix(1,0,0,1,396,-4)" class="stroke_order_diagram--current_path"></path><path id="pathSk2v596cn2n5" kvg:type="㇚" d="M76.27,33.33c1.07,1.07,2,2.67,2,4.56c0,14.67,0,47.36,0,52.55c0,10.94-4.76,3.4-8.21,0.5" transform="matrix(1,0,0,1,396,-4)" class="stroke_order_diagram--current_path"></path><circle cx="76.27" cy="33.33" r="8" class="stroke_order_diagram--path_start" transform="matrix(1,0,0,1,396,-4)"></circle></svg>