<svg style="width: 700px; height: 100px;" viewbox="0 0 700 100"><style>
.stroke_order_diagram--outer_container {
  width: 100%;
  overflow-x: auto;
  overflow-y: hidden;
}

.stroke_order_diagram--guide_line {
  fill: none;
  stroke: #ddd;
  stroke-width: 3;
  stroke-linecap: square;
  stroke-linejoin: square;
  stroke-dasharray:8, 8;
}

.stroke_order_diagram--bounding_box {
  fill: none;
  stroke: #ddd;
  stroke-width: 4;
  stroke-linecap: square;
  stroke-linejoin: square;
}

.stroke_order_diagram--current_path {
  fill: none;
  stroke: #000;
  stroke-width: 6;
  stroke-linecap: round;
  stroke-linejoin: round;
}

.stroke_order_diagram--existing_path {
  fill: none;
  stroke: #aaa;
  stroke-width: 6;
  stroke-linecap: round;
  stroke-linejoin:round;
}

.stroke_order_diagram--path_start {
  fill: rgba(255, 0, 0, 0.7);
  stroke:none
}</style><desc>Created with Snap</desc><defs></defs><line x1="1" x2="699" y1="1" y2="1" class="stroke_order_diagram--bounding_box"></line><line x1="1" x2="1" y1="1" y2="99" class="stroke_order_diagram--bounding_box"></line><line x1="1" x2="699" y1="99" y2="99" class="stroke_order_diagram--bounding_box"></line><line x1="0" x2="700" y1="50" y2="50" class="stroke_order_diagram--guide_line"></line><line x1="50" x2="50" y1="1" y2="99" class="stroke_order_diagram--guide_line"></line><line x1="99" x2="99" y1="1" y2="99" class="stroke_order_diagram--bounding_box"></line><path id="kvg:0629c-s1" kvg:type="㇐" d="M10.75,37.42c1.99,0.24,3.85,0.45,5.89,0.17c4.67-0.64,11.73-2.04,18.36-3.07c1.21-0.19,2.37-0.27,3.66-0.27" transform="matrix(1,0,0,1,-4,-4)" class="stroke_order_diagram--current_path"></path><path id="pathSk2v596cn1niw" kvg:type="㇐" d="M10.75,37.42c1.99,0.24,3.85,0.45,5.89,0.17c4.67-0.64,11.73-2.04,18.36-3.07c1.21-0.19,2.37-0.27,3.66-0.27" transform="matrix(1,0,0,1,-4,-4)" class="stroke_order_diagram--current_path"></path><circle cx="10.75" cy="37.42" r="8" class="stroke_order_diagram--path_start" transform="matrix(1,0,0,1,-4,-4)"></circle><line x1="150" x2="150" y1="1" y2="99" class="stroke_order_diagram--guide_line"></line><line x1="199" x2="199" y1="1" y2="99" class="stroke_order_diagram--bounding_box"></line><path id="pathSk2v596cn1niz" kvg:type="㇐" d="M10.75,37.42c1.99,0.24,3.85,0.45,5.89,0.17c4.67-0.64,11.73-2.04,18.36-3.07c1.21-0.19,2.37-0.27,3.66-0.27" transform="matrix(1,0,0,1,96,-4)" class="stroke_order_diagram--existing_path"></path><path id="kvg:0629c-s2" kvg:type="㇚" d="M27.27,14.75c1.05,1.05,1.51,2.62,1.51,5.02c0,15.23-0.01,54.21-0.01,65.65c0,11.58-4.82,3.78-6.27,2.25" transform="matrix(1,0,0,1,96,-4)" class="stroke_order_diagram--current_path"></path><path id="pathSk2v596cn1nj1" kvg:type="㇚" d="M27.27,14.75c1.05,1.05,1.51,2.62,1.51,5.02c0,15.23-0.01,54.21-0.01,65.65c0,11.58-4.82,3.78-6.27,2.25" transform="matrix(1,0,0,1,96,-4)" class="stroke_order_diagram--current_path"></path><circle cx="27.27" cy="14.75" r="8" class="stroke_order_diagram--path_start" transform="matrix(1,0,0,1,96,-4)"></circle><line x1="250" x2="250" y1="1" y2="99" class="stroke_order_diagram--guide_line"></line><line x1="299" x2="299" y1="1" y2="99" class="stroke_order_diagram--bounding_box"></line><path id="pathSk2v596cn1nj4" kvg:type="㇐" d="M10.75,37.42c1.99,0.24,3.85,0.45,5.89,0.17c4.67-0.64,11.73-2.04,18.36-3.07c1.21-0.19,2.37-0.27,3.66-0.27" transform="matrix(1,0,0,1,196,-4)" class="stroke_order_diagram--existing_path"></path><path id="pathSk2v596cn1nj5" kvg:type="㇚" d="M27.27,14.75c1.05,1.05,1.51,2.62,1.51,5.02c0,15.23-0.01,54.21-0.01,65.65c0,11.58-4.82,3.78-6.27,2.25" transform="matrix(1,0,0,1,196,-4)" class="stroke_order_diagram--existing_path"></path><path id="kvg:0629c-s3" kvg:type="㇀" d="M11,68.68c1.1,1.1,2.62,0.82,4.5-0.43c5.01-3.34,12.75-9.75,24-17.83" transform="matrix(1,0,0,1,196,-4)" class="stroke_order_diagram--current_path"></path><path id="pathSk2v596cn1nj7" kvg:type="㇀" d="M11,68.68c1.1,1.1,2.62,0.82,4.5-0.43c5.01-3.34,12.75-9.75,24-17.83" transform="matrix(1,0,0,1,196,-4)" class="stroke_order_diagram--current_path"></path><circle cx="11" cy="68.68" r="8" class="stroke_order_diagram--path_start" transform="matrix(1,0,0,1,196,-4)"></circle><line x1="350" x2="350" y1="1" y2="99" class="stroke_order_diagram--guide_line"></line><line x1="399" x2="399" y1="1" y2="99" class="stroke_order_diagram--bounding_box"></line><path id="pathSk2v596cn1nja" kvg:type="㇐" d="M10.75,37.42c1.99,0.24,3.85,0.45,5.89,0.17c4.67-0.64,11.73-2.04,18.36-3.07c1.21-0.19,2.37-0.27,3.66-0.27" transform="matrix(1,0,0,1,296,-4)" class="stroke_order_diagram--existing_path"></path><path id="pathSk2v596cn1njb" kvg:type="㇚" d="M27.27,14.75c1.05,1.05,1.51,2.62,1.51,5.02c0,15.23-0.01,54.21-0.01,65.65c0,11.58-4.82,3.78-6.27,2.25" transform="matrix(1,0,0,1,296,-4)" class="stroke_order_diagram--existing_path"></path><path id="pathSk2v596cn1njc" kvg:type="㇀" d="M11,68.68c1.1,1.1,2.62,0.82,4.5-0.43c5.01-3.34,12.75-9.75,24-17.83" transform="matrix(1,0,0,1,296,-4)" class="stroke_order_diagram--existing_path"></path><path id="kvg:0629c-s4" kvg:type="㇐" d="M45.13,36.46c2.03,0.6,4.9,0.47,7,0.09C63.25,34.5,71.88,32.88,82,31.67c2.17-0.26,4.53-0.15,6.63,0.22" transform="matrix(1,0,0,1,296,-4)" class="stroke_order_diagram--current_path"></path><path id="pathSk2v596cn1nje" kvg:type="㇐" d="M45.13,36.46c2.03,0.6,4.9,0.47,7,0.09C63.25,34.5,71.88,32.88,82,31.67c2.17-0.26,4.53-0.15,6.63,0.22" transform="matrix(1,0,0,1,296,-4)" class="stroke_order_diagram--current_path"></path><circle cx="45.13" cy="36.46" r="8" class="stroke_order_diagram--path_start" transform="matrix(1,0,0,1,296,-4)"></circle><line x1="450" x2="450" y1="1" y2="99" class="stroke_order_diagram--guide_line"></line><line x1="499" x2="499" y1="1" y2="99" class="stroke_order_diagram--bounding_box"></line><path id="pathSk2v596cn1njh" kvg:type="㇐" d="M10.75,37.42c1.99,0.24,3.85,0.45,5.89,0.17c4.67-0.64,11.73-2.04,18.36-3.07c1.21-0.19,2.37-0.27,3.66-0.27" transform="matrix(1,0,0,1,396,-4)" class="stroke_order_diagram--existing_path"></path><path id="pathSk2v596cn1nji" kvg:type="㇚" d="M27.27,14.75c1.05,1.05,1.51,2.62,1.51,5.02c0,15.23-0.01,54.21-0.01,65.65c0,11.58-4.82,3.78-6.27,2.25" transform="matrix(1,0,0,1,396,-4)" class="stroke_order_diagram--existing_path"></path><path id="pathSk2v596cn1njj" kvg:type="㇀" d="M11,68.68c1.1,1.1,2.62,0.82,4.5-0.43c5.01-3.34,12.75-9.75,24-17.83" transform="matrix(1,0,0,1,396,-4)" class="stroke_order_diagram--existing_path"></path><path id="pathSk2v596cn1njk" kvg:type="㇐" d="M45.13,36.46c2.03,0.6,4.9,0.47,7,0.09C63.25,34.5,71.88,32.88,82,31.67c2.17-0.26,4.53-0.15,6.63,0.22" transform="matrix(1,0,0,1,396,-4)" class="stroke_order_diagram--existing_path"></path><path id="kvg:0629c-s5" kvg:type="㇒" d="M60.97,15.64c0.53,0.86,0.67,1.55,0.61,3.04C60.88,36.5,55.5,69.38,36,87.5" transform="matrix(1,0,0,1,396,-4)" class="stroke_order_diagram--current_path"></path><path id="pathSk2v596cn1njm" kvg:type="㇒" d="M60.97,15.64c0.53,0.86,0.67,1.55,0.61,3.04C60.88,36.5,55.5,69.38,36,87.5" transform="matrix(1,0,0,1,396,-4)" class="stroke_order_diagram--current_path"></path><circle cx="60.97" cy="15.64" r="8" class="stroke_order_diagram--path_start" transform="matrix(1,0,0,1,396,-4)"></circle><line x1="550" x2="550" y1="1" y2="99" class="stroke_order_diagram--guide_line"></line><line x1="599" x2="599" y1="1" y2="99" class="stroke_order_diagram--bounding_box"></line><path id="pathSk2v596cn1njp" kvg:type="㇐" d="M10.75,37.42c1.99,0.24,3.85,0.45,5.89,0.17c4.67-0.64,11.73-2.04,18.36-3.07c1.21-0.19,2.37-0.27,3.66-0.27" transform="matrix(1,0,0,1,496,-4)" class="stroke_order_diagram--existing_path"></path><path id="pathSk2v596cn1njq" kvg:type="㇚" d="M27.27,14.75c1.05,1.05,1.51,2.62,1.51,5.02c0,15.23-0.01,54.21-0.01,65.65c0,11.58-4.82,3.78-6.27,2.25" transform="matrix(1,0,0,1,496,-4)" class="stroke_order_diagram--existing_path"></path><path id="pathSk2v596cn1njr" kvg:type="㇀" d="M11,68.68c1.1,1.1,2.62,0.82,4.5-0.43c5.01-3.34,12.75-9.75,24-17.83" transform="matrix(1,0,0,1,496,-4)" class="stroke_order_diagram--existing_path"></path><path id="pathSk2v596cn1njs" kvg:type="㇐" d="M45.13,36.46c2.03,0.6,4.9,0.47,7,0.09C63.25,34.5,71.88,32.88,82,31.67c2.17-0.26,4.53-0.15,6.63,0.22" transform="matrix(1,0,0,1,496,-4)" class="stroke_order_diagram--existing_path"></path><path id="pathSk2v596cn1njt" kvg:type="㇒" d="M60.97,15.64c0.53,0.86,0.67,1.55,0.61,3.04C60.88,36.5,55.5,69.38,36,87.5" transform="matrix(1,0,0,1,496,-4)" class="stroke_order_diagram--existing_path"></path><path id="kvg:0629c-s6" kvg:type="㇇" d="M59.58,51.93c1.6,0.18,3.17,0.01,4.72-0.39c5.81-1.48,10.6-3.16,14.84-4.17c3.09-0.74,3.97,1.09,3.18,3.1C77.99,61.46,65.25,84,44,94.5" transform="matrix(1,0,0,1,496,-4)" class="stroke_order_diagram--current_path"></path><path id="pathSk2v596cn1njv" kvg:type="㇇" d="M59.58,51.93c1.6,0.18,3.17,0.01,4.72-0.39c5.81-1.48,10.6-3.16,14.84-4.17c3.09-0.74,3.97,1.09,3.18,3.1C77.99,61.46,65.25,84,44,94.5" transform="matrix(1,0,0,1,496,-4)" class="stroke_order_diagram--current_path"></path><circle cx="59.58" cy="51.93" r="8" class="stroke_order_diagram--path_start" transform="matrix(1,0,0,1,496,-4)"></circle><line x1="650" x2="650" y1="1" y2="99" class="stroke_order_diagram--guide_line"></line><line x1="699" x2="699" y1="1" y2="99" class="stroke_order_diagram--bounding_box"></line><path id="pathSk2v596cn1njy" kvg:type="㇐" d="M10.75,37.42c1.99,0.24,3.85,0.45,5.89,0.17c4.67-0.64,11.73-2.04,18.36-3.07c1.21-0.19,2.37-0.27,3.66-0.27" transform="matrix(1,0,0,1,596,-4)" class="stroke_order_diagram--existing_path"></path><path id="pathSk2v596cn1njz" kvg:type="㇚" d="M27.27,14.75c1.05,1.05,1.51,2.62,1.51,5.02c0,15.23-0.01,54.21-0.01,65.65c0,11.58-4.82,3.78-6.27,2.25" transform="matrix(1,0,0,1,596,-4)" class="stroke_order_diagram--existing_path"></path><path id="pathSk2v596cn1nk0" kvg:type="㇀" d="M11,68.68c1.1,1.1,2.62,0.82,4.5-0.43c5.01-3.34,12.75-9.75,24-17.83" transform="matrix(1,0,0,1,596,-4)" class="stroke_order_diagram--existing_path"></path><path id="pathSk2v596cn1nk1" kvg:type="㇐" d="M45.13,36.46c2.03,0.6,4.9,0.47,7,0.09C63.25,34.5,71.88,32.88,82,31.67c2.17-0.26,4.53-0.15,6.63,0.22" transform="matrix(1,0,0,1,596,-4)" class="stroke_order_diagram--existing_path"></path><path id="pathSk2v596cn1nk2" kvg:type="㇒" d="M60.97,15.64c0.53,0.86,0.67,1.55,0.61,3.04C60.88,36.5,55.5,69.38,36,87.5" transform="matrix(1,0,0,1,596,-4)" class="stroke_order_diagram--existing_path"></path><path id="pathSk2v596cn1nk3" kvg:type="㇇" d="M59.58,51.93c1.6,0.18,3.17,0.01,4.72-0.39c5.81-1.48,10.6-3.16,14.84-4.17c3.09-0.74,3.97,1.09,3.18,3.1C77.99,61.46,65.25,84,44,94.5" transform="matrix(1,0,0,1,596,-4)" class="stroke_order_diagram--existing_path"></path><path id="kvg:0629c-s7" kvg:type="㇏" d="M57,58.75c5.59,4.75,19.07,18.97,27.3,26.09c2.6,2.25,5.42,4.28,8.45,5.91" transform="matrix(1,0,0,1,596,-4)" class="stroke_order_diagram--current_path"></path><path id="pathSk2v596cn1nk5" kvg:type="㇏" d="M57,58.75c5.59,4.75,19.07,18.97,27.3,26.09c2.6,2.25,5.42,4.28,8.45,5.91" transform="matrix(1,0,0,1,596,-4)" class="stroke_order_diagram--current_path"></path><circle cx="57" cy="58.75" r="8" class="stroke_order_diagram--path_start" transform="matrix(1,0,0,1,596,-4)"></circle></svg>