<svg style="width: 800px; height: 100px;" viewbox="0 0 800 100"><style>
.stroke_order_diagram--outer_container {
  width: 100%;
  overflow-x: auto;
  overflow-y: hidden;
}

.stroke_order_diagram--guide_line {
  fill: none;
  stroke: #ddd;
  stroke-width: 3;
  stroke-linecap: square;
  stroke-linejoin: square;
  stroke-dasharray:8, 8;
}

.stroke_order_diagram--bounding_box {
  fill: none;
  stroke: #ddd;
  stroke-width: 4;
  stroke-linecap: square;
  stroke-linejoin: square;
}

.stroke_order_diagram--current_path {
  fill: none;
  stroke: #000;
  stroke-width: 6;
  stroke-linecap: round;
  stroke-linejoin: round;
}

.stroke_order_diagram--existing_path {
  fill: none;
  stroke: #aaa;
  stroke-width: 6;
  stroke-linecap: round;
  stroke-linejoin:round;
}

.stroke_order_diagram--path_start {
  fill: rgba(255, 0, 0, 0.7);
  stroke:none
}</style><desc>Created with Snap</desc><defs></defs><line x1="1" x2="799" y1="1" y2="1" class="stroke_order_diagram--bounding_box"></line><line x1="1" x2="1" y1="1" y2="99" class="stroke_order_diagram--bounding_box"></line><line x1="1" x2="799" y1="99" y2="99" class="stroke_order_diagram--bounding_box"></line><line x1="0" x2="800" y1="50" y2="50" class="stroke_order_diagram--guide_line"></line><line x1="50" x2="50" y1="1" y2="99" class="stroke_order_diagram--guide_line"></line><line x1="99" x2="99" y1="1" y2="99" class="stroke_order_diagram--bounding_box"></line><path id="kvg:062c5-s1" kvg:type="㇐" d="M13,38.42c2,0.46,3.58,0.27,5.62,0.08c5.95-0.57,13.4-2.12,20.91-3.21c1.33-0.19,2.71-0.28,3.88-0.28" transform="matrix(1,0,0,1,-4,-4)" class="stroke_order_diagram--current_path"></path><path id="pathSk2v596cn1kcr" kvg:type="㇐" d="M13,38.42c2,0.46,3.58,0.27,5.62,0.08c5.95-0.57,13.4-2.12,20.91-3.21c1.33-0.19,2.71-0.28,3.88-0.28" transform="matrix(1,0,0,1,-4,-4)" class="stroke_order_diagram--current_path"></path><circle cx="13" cy="38.42" r="8" class="stroke_order_diagram--path_start" transform="matrix(1,0,0,1,-4,-4)"></circle><line x1="150" x2="150" y1="1" y2="99" class="stroke_order_diagram--guide_line"></line><line x1="199" x2="199" y1="1" y2="99" class="stroke_order_diagram--bounding_box"></line><path id="pathSk2v596cn1kcu" kvg:type="㇐" d="M13,38.42c2,0.46,3.58,0.27,5.62,0.08c5.95-0.57,13.4-2.12,20.91-3.21c1.33-0.19,2.71-0.28,3.88-0.28" transform="matrix(1,0,0,1,96,-4)" class="stroke_order_diagram--existing_path"></path><path id="kvg:062c5-s2" kvg:type="㇚" d="M29.27,15.25c1.12,1.12,1.51,2.75,1.51,5.27c0,15.23-0.01,54.46-0.01,65.9c0,14.25-6.32,3.53-7.77,2" transform="matrix(1,0,0,1,96,-4)" class="stroke_order_diagram--current_path"></path><path id="pathSk2v596cn1kcw" kvg:type="㇚" d="M29.27,15.25c1.12,1.12,1.51,2.75,1.51,5.27c0,15.23-0.01,54.46-0.01,65.9c0,14.25-6.32,3.53-7.77,2" transform="matrix(1,0,0,1,96,-4)" class="stroke_order_diagram--current_path"></path><circle cx="29.27" cy="15.25" r="8" class="stroke_order_diagram--path_start" transform="matrix(1,0,0,1,96,-4)"></circle><line x1="250" x2="250" y1="1" y2="99" class="stroke_order_diagram--guide_line"></line><line x1="299" x2="299" y1="1" y2="99" class="stroke_order_diagram--bounding_box"></line><path id="pathSk2v596cn1kcz" kvg:type="㇐" d="M13,38.42c2,0.46,3.58,0.27,5.62,0.08c5.95-0.57,13.4-2.12,20.91-3.21c1.33-0.19,2.71-0.28,3.88-0.28" transform="matrix(1,0,0,1,196,-4)" class="stroke_order_diagram--existing_path"></path><path id="pathSk2v596cn1kd0" kvg:type="㇚" d="M29.27,15.25c1.12,1.12,1.51,2.75,1.51,5.27c0,15.23-0.01,54.46-0.01,65.9c0,14.25-6.32,3.53-7.77,2" transform="matrix(1,0,0,1,196,-4)" class="stroke_order_diagram--existing_path"></path><path id="kvg:062c5-s3" kvg:type="㇀" d="M13.75,68.88c1,0.88,2.5,1,4-0.12c4.82-3.61,11-8.5,23-17.25" transform="matrix(1,0,0,1,196,-4)" class="stroke_order_diagram--current_path"></path><path id="pathSk2v596cn1kd2" kvg:type="㇀" d="M13.75,68.88c1,0.88,2.5,1,4-0.12c4.82-3.61,11-8.5,23-17.25" transform="matrix(1,0,0,1,196,-4)" class="stroke_order_diagram--current_path"></path><circle cx="13.75" cy="68.88" r="8" class="stroke_order_diagram--path_start" transform="matrix(1,0,0,1,196,-4)"></circle><line x1="350" x2="350" y1="1" y2="99" class="stroke_order_diagram--guide_line"></line><line x1="399" x2="399" y1="1" y2="99" class="stroke_order_diagram--bounding_box"></line><path id="pathSk2v596cn1kd5" kvg:type="㇐" d="M13,38.42c2,0.46,3.58,0.27,5.62,0.08c5.95-0.57,13.4-2.12,20.91-3.21c1.33-0.19,2.71-0.28,3.88-0.28" transform="matrix(1,0,0,1,296,-4)" class="stroke_order_diagram--existing_path"></path><path id="pathSk2v596cn1kd6" kvg:type="㇚" d="M29.27,15.25c1.12,1.12,1.51,2.75,1.51,5.27c0,15.23-0.01,54.46-0.01,65.9c0,14.25-6.32,3.53-7.77,2" transform="matrix(1,0,0,1,296,-4)" class="stroke_order_diagram--existing_path"></path><path id="pathSk2v596cn1kd7" kvg:type="㇀" d="M13.75,68.88c1,0.88,2.5,1,4-0.12c4.82-3.61,11-8.5,23-17.25" transform="matrix(1,0,0,1,296,-4)" class="stroke_order_diagram--existing_path"></path><path id="kvg:062c5-s4" kvg:type="㇑" d="M52.06,23.16c0.76,0.76,1.26,1.92,1.26,3.41c0,2.87-0.04,30-0.07,41.68c-0.01,3.59-0.01,5.72-0.01,5.25" transform="matrix(1,0,0,1,296,-4)" class="stroke_order_diagram--current_path"></path><path id="pathSk2v596cn1kd9" kvg:type="㇑" d="M52.06,23.16c0.76,0.76,1.26,1.92,1.26,3.41c0,2.87-0.04,30-0.07,41.68c-0.01,3.59-0.01,5.72-0.01,5.25" transform="matrix(1,0,0,1,296,-4)" class="stroke_order_diagram--current_path"></path><circle cx="52.06" cy="23.16" r="8" class="stroke_order_diagram--path_start" transform="matrix(1,0,0,1,296,-4)"></circle><line x1="450" x2="450" y1="1" y2="99" class="stroke_order_diagram--guide_line"></line><line x1="499" x2="499" y1="1" y2="99" class="stroke_order_diagram--bounding_box"></line><path id="pathSk2v596cn1kdc" kvg:type="㇐" d="M13,38.42c2,0.46,3.58,0.27,5.62,0.08c5.95-0.57,13.4-2.12,20.91-3.21c1.33-0.19,2.71-0.28,3.88-0.28" transform="matrix(1,0,0,1,396,-4)" class="stroke_order_diagram--existing_path"></path><path id="pathSk2v596cn1kdd" kvg:type="㇚" d="M29.27,15.25c1.12,1.12,1.51,2.75,1.51,5.27c0,15.23-0.01,54.46-0.01,65.9c0,14.25-6.32,3.53-7.77,2" transform="matrix(1,0,0,1,396,-4)" class="stroke_order_diagram--existing_path"></path><path id="pathSk2v596cn1kde" kvg:type="㇀" d="M13.75,68.88c1,0.88,2.5,1,4-0.12c4.82-3.61,11-8.5,23-17.25" transform="matrix(1,0,0,1,396,-4)" class="stroke_order_diagram--existing_path"></path><path id="pathSk2v596cn1kdf" kvg:type="㇑" d="M52.06,23.16c0.76,0.76,1.26,1.92,1.26,3.41c0,2.87-0.04,30-0.07,41.68c-0.01,3.59-0.01,5.72-0.01,5.25" transform="matrix(1,0,0,1,396,-4)" class="stroke_order_diagram--existing_path"></path><path id="kvg:062c5-s5" kvg:type="㇕a" d="M54.42,24.85c2.86-0.19,24.33-2.63,26.93-2.85c2.17-0.19,3.39,0.75,3.39,3.16c0,3.17-0.08,28.55-0.11,40.72c-0.01,2.58-0.01,4.57-0.01,5.62" transform="matrix(1,0,0,1,396,-4)" class="stroke_order_diagram--current_path"></path><path id="pathSk2v596cn1kdh" kvg:type="㇕a" d="M54.42,24.85c2.86-0.19,24.33-2.63,26.93-2.85c2.17-0.19,3.39,0.75,3.39,3.16c0,3.17-0.08,28.55-0.11,40.72c-0.01,2.58-0.01,4.57-0.01,5.62" transform="matrix(1,0,0,1,396,-4)" class="stroke_order_diagram--current_path"></path><circle cx="54.42" cy="24.85" r="8" class="stroke_order_diagram--path_start" transform="matrix(1,0,0,1,396,-4)"></circle><line x1="550" x2="550" y1="1" y2="99" class="stroke_order_diagram--guide_line"></line><line x1="599" x2="599" y1="1" y2="99" class="stroke_order_diagram--bounding_box"></line><path id="pathSk2v596cn1kdk" kvg:type="㇐" d="M13,38.42c2,0.46,3.58,0.27,5.62,0.08c5.95-0.57,13.4-2.12,20.91-3.21c1.33-0.19,2.71-0.28,3.88-0.28" transform="matrix(1,0,0,1,496,-4)" class="stroke_order_diagram--existing_path"></path><path id="pathSk2v596cn1kdl" kvg:type="㇚" d="M29.27,15.25c1.12,1.12,1.51,2.75,1.51,5.27c0,15.23-0.01,54.46-0.01,65.9c0,14.25-6.32,3.53-7.77,2" transform="matrix(1,0,0,1,496,-4)" class="stroke_order_diagram--existing_path"></path><path id="pathSk2v596cn1kdm" kvg:type="㇀" d="M13.75,68.88c1,0.88,2.5,1,4-0.12c4.82-3.61,11-8.5,23-17.25" transform="matrix(1,0,0,1,496,-4)" class="stroke_order_diagram--existing_path"></path><path id="pathSk2v596cn1kdn" kvg:type="㇑" d="M52.06,23.16c0.76,0.76,1.26,1.92,1.26,3.41c0,2.87-0.04,30-0.07,41.68c-0.01,3.59-0.01,5.72-0.01,5.25" transform="matrix(1,0,0,1,496,-4)" class="stroke_order_diagram--existing_path"></path><path id="pathSk2v596cn1kdo" kvg:type="㇕a" d="M54.42,24.85c2.86-0.19,24.33-2.63,26.93-2.85c2.17-0.19,3.39,0.75,3.39,3.16c0,3.17-0.08,28.55-0.11,40.72c-0.01,2.58-0.01,4.57-0.01,5.62" transform="matrix(1,0,0,1,496,-4)" class="stroke_order_diagram--existing_path"></path><path id="kvg:062c5-s6" kvg:type="㇐a" d="M54.67,46.64c5.45-0.39,24.61-2.11,28.98-2.11" transform="matrix(1,0,0,1,496,-4)" class="stroke_order_diagram--current_path"></path><path id="pathSk2v596cn1kdq" kvg:type="㇐a" d="M54.67,46.64c5.45-0.39,24.61-2.11,28.98-2.11" transform="matrix(1,0,0,1,496,-4)" class="stroke_order_diagram--current_path"></path><circle cx="54.67" cy="46.64" r="8" class="stroke_order_diagram--path_start" transform="matrix(1,0,0,1,496,-4)"></circle><line x1="650" x2="650" y1="1" y2="99" class="stroke_order_diagram--guide_line"></line><line x1="699" x2="699" y1="1" y2="99" class="stroke_order_diagram--bounding_box"></line><path id="pathSk2v596cn1kdt" kvg:type="㇐" d="M13,38.42c2,0.46,3.58,0.27,5.62,0.08c5.95-0.57,13.4-2.12,20.91-3.21c1.33-0.19,2.71-0.28,3.88-0.28" transform="matrix(1,0,0,1,596,-4)" class="stroke_order_diagram--existing_path"></path><path id="pathSk2v596cn1kdu" kvg:type="㇚" d="M29.27,15.25c1.12,1.12,1.51,2.75,1.51,5.27c0,15.23-0.01,54.46-0.01,65.9c0,14.25-6.32,3.53-7.77,2" transform="matrix(1,0,0,1,596,-4)" class="stroke_order_diagram--existing_path"></path><path id="pathSk2v596cn1kdv" kvg:type="㇀" d="M13.75,68.88c1,0.88,2.5,1,4-0.12c4.82-3.61,11-8.5,23-17.25" transform="matrix(1,0,0,1,596,-4)" class="stroke_order_diagram--existing_path"></path><path id="pathSk2v596cn1kdw" kvg:type="㇑" d="M52.06,23.16c0.76,0.76,1.26,1.92,1.26,3.41c0,2.87-0.04,30-0.07,41.68c-0.01,3.59-0.01,5.72-0.01,5.25" transform="matrix(1,0,0,1,596,-4)" class="stroke_order_diagram--existing_path"></path><path id="pathSk2v596cn1kdx" kvg:type="㇕a" d="M54.42,24.85c2.86-0.19,24.33-2.63,26.93-2.85c2.17-0.19,3.39,0.75,3.39,3.16c0,3.17-0.08,28.55-0.11,40.72c-0.01,2.58-0.01,4.57-0.01,5.62" transform="matrix(1,0,0,1,596,-4)" class="stroke_order_diagram--existing_path"></path><path id="pathSk2v596cn1kdy" kvg:type="㇐a" d="M54.67,46.64c5.45-0.39,24.61-2.11,28.98-2.11" transform="matrix(1,0,0,1,596,-4)" class="stroke_order_diagram--existing_path"></path><path id="kvg:062c5-s7" kvg:type="㇐a" d="M54.42,70.1c9.96-1.1,20.58-2.35,28.9-2.74" transform="matrix(1,0,0,1,596,-4)" class="stroke_order_diagram--current_path"></path><path id="pathSk2v596cn1ke0" kvg:type="㇐a" d="M54.42,70.1c9.96-1.1,20.58-2.35,28.9-2.74" transform="matrix(1,0,0,1,596,-4)" class="stroke_order_diagram--current_path"></path><circle cx="54.42" cy="70.1" r="8" class="stroke_order_diagram--path_start" transform="matrix(1,0,0,1,596,-4)"></circle><line x1="750" x2="750" y1="1" y2="99" class="stroke_order_diagram--guide_line"></line><line x1="799" x2="799" y1="1" y2="99" class="stroke_order_diagram--bounding_box"></line><path id="pathSk2v596cn1ke3" kvg:type="㇐" d="M13,38.42c2,0.46,3.58,0.27,5.62,0.08c5.95-0.57,13.4-2.12,20.91-3.21c1.33-0.19,2.71-0.28,3.88-0.28" transform="matrix(1,0,0,1,696,-4)" class="stroke_order_diagram--existing_path"></path><path id="pathSk2v596cn1ke4" kvg:type="㇚" d="M29.27,15.25c1.12,1.12,1.51,2.75,1.51,5.27c0,15.23-0.01,54.46-0.01,65.9c0,14.25-6.32,3.53-7.77,2" transform="matrix(1,0,0,1,696,-4)" class="stroke_order_diagram--existing_path"></path><path id="pathSk2v596cn1ke5" kvg:type="㇀" d="M13.75,68.88c1,0.88,2.5,1,4-0.12c4.82-3.61,11-8.5,23-17.25" transform="matrix(1,0,0,1,696,-4)" class="stroke_order_diagram--existing_path"></path><path id="pathSk2v596cn1ke6" kvg:type="㇑" d="M52.06,23.16c0.76,0.76,1.26,1.92,1.26,3.41c0,2.87-0.04,30-0.07,41.68c-0.01,3.59-0.01,5.72-0.01,5.25" transform="matrix(1,0,0,1,696,-4)" class="stroke_order_diagram--existing_path"></path><path id="pathSk2v596cn1ke7" kvg:type="㇕a" d="M54.42,24.85c2.86-0.19,24.33-2.63,26.93-2.85c2.17-0.19,3.39,0.75,3.39,3.16c0,3.17-0.08,28.55-0.11,40.72c-0.01,2.58-0.01,4.57-0.01,5.62" transform="matrix(1,0,0,1,696,-4)" class="stroke_order_diagram--existing_path"></path><path id="pathSk2v596cn1ke8" kvg:type="㇐a" d="M54.67,46.64c5.45-0.39,24.61-2.11,28.98-2.11" transform="matrix(1,0,0,1,696,-4)" class="stroke_order_diagram--existing_path"></path><path id="pathSk2v596cn1ke9" kvg:type="㇐a" d="M54.42,70.1c9.96-1.1,20.58-2.35,28.9-2.74" transform="matrix(1,0,0,1,696,-4)" class="stroke_order_diagram--existing_path"></path><path id="kvg:062c5-s8" kvg:type="㇐" d="M41.8,88.81c2.82,0.57,5.33,0.26,7.7,0.07c12.75-1,29.49-1.98,40.88-2.27c2.44-0.06,4.93,0.06,7.32,0.64" transform="matrix(1,0,0,1,696,-4)" class="stroke_order_diagram--current_path"></path><path id="pathSk2v596cn1keb" kvg:type="㇐" d="M41.8,88.81c2.82,0.57,5.33,0.26,7.7,0.07c12.75-1,29.49-1.98,40.88-2.27c2.44-0.06,4.93,0.06,7.32,0.64" transform="matrix(1,0,0,1,696,-4)" class="stroke_order_diagram--current_path"></path><circle cx="41.8" cy="88.81" r="8" class="stroke_order_diagram--path_start" transform="matrix(1,0,0,1,696,-4)"></circle></svg>