<svg style="width: 900px; height: 100px;" viewbox="0 0 900 100"><style>
.stroke_order_diagram--outer_container {
  width: 100%;
  overflow-x: auto;
  overflow-y: hidden;
}

.stroke_order_diagram--guide_line {
  fill: none;
  stroke: #ddd;
  stroke-width: 3;
  stroke-linecap: square;
  stroke-linejoin: square;
  stroke-dasharray:8, 8;
}

.stroke_order_diagram--bounding_box {
  fill: none;
  stroke: #ddd;
  stroke-width: 4;
  stroke-linecap: square;
  stroke-linejoin: square;
}

.stroke_order_diagram--current_path {
  fill: none;
  stroke: #000;
  stroke-width: 6;
  stroke-linecap: round;
  stroke-linejoin: round;
}

.stroke_order_diagram--existing_path {
  fill: none;
  stroke: #aaa;
  stroke-width: 6;
  stroke-linecap: round;
  stroke-linejoin:round;
}

.stroke_order_diagram--path_start {
  fill: rgba(255, 0, 0, 0.7);
  stroke:none
}</style><desc>Created with Snap</desc><defs></defs><line x1="1" x2="899" y1="1" y2="1" class="stroke_order_diagram--bounding_box"></line><line x1="1" x2="1" y1="1" y2="99" class="stroke_order_diagram--bounding_box"></line><line x1="1" x2="899" y1="99" y2="99" class="stroke_order_diagram--bounding_box"></line><line x1="0" x2="900" y1="50" y2="50" class="stroke_order_diagram--guide_line"></line><line x1="50" x2="50" y1="1" y2="99" class="stroke_order_diagram--guide_line"></line><line x1="99" x2="99" y1="1" y2="99" class="stroke_order_diagram--bounding_box"></line><path id="kvg:0631f-s1" kvg:type="㇐" d="M15,39.42c1.84,0.22,3.48,0.49,5.38,0.26c4.62-0.57,10.92-1.65,18.39-3.28c0.93-0.2,1.98-0.14,2.9-0.14" transform="matrix(1,0,0,1,-4,-4)" class="stroke_order_diagram--current_path"></path><path id="pathSk2v596cn403h" kvg:type="㇐" d="M15,39.42c1.84,0.22,3.48,0.49,5.38,0.26c4.62-0.57,10.92-1.65,18.39-3.28c0.93-0.2,1.98-0.14,2.9-0.14" transform="matrix(1,0,0,1,-4,-4)" class="stroke_order_diagram--current_path"></path><circle cx="15" cy="39.42" r="8" class="stroke_order_diagram--path_start" transform="matrix(1,0,0,1,-4,-4)"></circle><line x1="150" x2="150" y1="1" y2="99" class="stroke_order_diagram--guide_line"></line><line x1="199" x2="199" y1="1" y2="99" class="stroke_order_diagram--bounding_box"></line><path id="pathSk2v596cn403k" kvg:type="㇐" d="M15,39.42c1.84,0.22,3.48,0.49,5.38,0.26c4.62-0.57,10.92-1.65,18.39-3.28c0.93-0.2,1.98-0.14,2.9-0.14" transform="matrix(1,0,0,1,96,-4)" class="stroke_order_diagram--existing_path"></path><path id="kvg:0631f-s2" kvg:type="㇚" d="M31.52,15.75c0.87,0.87,1.51,2.38,1.51,4.77c0,15.23-0.01,53.71-0.01,65.15c0,14.25-6.32,3.53-7.77,2" transform="matrix(1,0,0,1,96,-4)" class="stroke_order_diagram--current_path"></path><path id="pathSk2v596cn403m" kvg:type="㇚" d="M31.52,15.75c0.87,0.87,1.51,2.38,1.51,4.77c0,15.23-0.01,53.71-0.01,65.15c0,14.25-6.32,3.53-7.77,2" transform="matrix(1,0,0,1,96,-4)" class="stroke_order_diagram--current_path"></path><circle cx="31.52" cy="15.75" r="8" class="stroke_order_diagram--path_start" transform="matrix(1,0,0,1,96,-4)"></circle><line x1="250" x2="250" y1="1" y2="99" class="stroke_order_diagram--guide_line"></line><line x1="299" x2="299" y1="1" y2="99" class="stroke_order_diagram--bounding_box"></line><path id="pathSk2v596cn403p" kvg:type="㇐" d="M15,39.42c1.84,0.22,3.48,0.49,5.38,0.26c4.62-0.57,10.92-1.65,18.39-3.28c0.93-0.2,1.98-0.14,2.9-0.14" transform="matrix(1,0,0,1,196,-4)" class="stroke_order_diagram--existing_path"></path><path id="pathSk2v596cn403q" kvg:type="㇚" d="M31.52,15.75c0.87,0.87,1.51,2.38,1.51,4.77c0,15.23-0.01,53.71-0.01,65.15c0,14.25-6.32,3.53-7.77,2" transform="matrix(1,0,0,1,196,-4)" class="stroke_order_diagram--existing_path"></path><path id="kvg:0631f-s3" kvg:type="㇀" d="M13.25,67.68c1.5,1.32,2.93,1.55,4.8,0.19c5.83-4.24,11.2-8.12,22.7-16.95" transform="matrix(1,0,0,1,196,-4)" class="stroke_order_diagram--current_path"></path><path id="pathSk2v596cn403s" kvg:type="㇀" d="M13.25,67.68c1.5,1.32,2.93,1.55,4.8,0.19c5.83-4.24,11.2-8.12,22.7-16.95" transform="matrix(1,0,0,1,196,-4)" class="stroke_order_diagram--current_path"></path><circle cx="13.25" cy="67.68" r="8" class="stroke_order_diagram--path_start" transform="matrix(1,0,0,1,196,-4)"></circle><line x1="350" x2="350" y1="1" y2="99" class="stroke_order_diagram--guide_line"></line><line x1="399" x2="399" y1="1" y2="99" class="stroke_order_diagram--bounding_box"></line><path id="pathSk2v596cn403v" kvg:type="㇐" d="M15,39.42c1.84,0.22,3.48,0.49,5.38,0.26c4.62-0.57,10.92-1.65,18.39-3.28c0.93-0.2,1.98-0.14,2.9-0.14" transform="matrix(1,0,0,1,296,-4)" class="stroke_order_diagram--existing_path"></path><path id="pathSk2v596cn403w" kvg:type="㇚" d="M31.52,15.75c0.87,0.87,1.51,2.38,1.51,4.77c0,15.23-0.01,53.71-0.01,65.15c0,14.25-6.32,3.53-7.77,2" transform="matrix(1,0,0,1,296,-4)" class="stroke_order_diagram--existing_path"></path><path id="pathSk2v596cn403x" kvg:type="㇀" d="M13.25,67.68c1.5,1.32,2.93,1.55,4.8,0.19c5.83-4.24,11.2-8.12,22.7-16.95" transform="matrix(1,0,0,1,296,-4)" class="stroke_order_diagram--existing_path"></path><path id="kvg:0631f-s4" kvg:type="㇐" d="M46,30.89c2.17,0.88,5.38,0.42,7.62,0.07c6.64-1.03,17.52-2.55,24.02-3c2.41-0.17,4.72-0.53,7.11,0.05" transform="matrix(1,0,0,1,296,-4)" class="stroke_order_diagram--current_path"></path><path id="pathSk2v596cn403z" kvg:type="㇐" d="M46,30.89c2.17,0.88,5.38,0.42,7.62,0.07c6.64-1.03,17.52-2.55,24.02-3c2.41-0.17,4.72-0.53,7.11,0.05" transform="matrix(1,0,0,1,296,-4)" class="stroke_order_diagram--current_path"></path><circle cx="46" cy="30.89" r="8" class="stroke_order_diagram--path_start" transform="matrix(1,0,0,1,296,-4)"></circle><line x1="450" x2="450" y1="1" y2="99" class="stroke_order_diagram--guide_line"></line><line x1="499" x2="499" y1="1" y2="99" class="stroke_order_diagram--bounding_box"></line><path id="pathSk2v596cn4042" kvg:type="㇐" d="M15,39.42c1.84,0.22,3.48,0.49,5.38,0.26c4.62-0.57,10.92-1.65,18.39-3.28c0.93-0.2,1.98-0.14,2.9-0.14" transform="matrix(1,0,0,1,396,-4)" class="stroke_order_diagram--existing_path"></path><path id="pathSk2v596cn4043" kvg:type="㇚" d="M31.52,15.75c0.87,0.87,1.51,2.38,1.51,4.77c0,15.23-0.01,53.71-0.01,65.15c0,14.25-6.32,3.53-7.77,2" transform="matrix(1,0,0,1,396,-4)" class="stroke_order_diagram--existing_path"></path><path id="pathSk2v596cn4044" kvg:type="㇀" d="M13.25,67.68c1.5,1.32,2.93,1.55,4.8,0.19c5.83-4.24,11.2-8.12,22.7-16.95" transform="matrix(1,0,0,1,396,-4)" class="stroke_order_diagram--existing_path"></path><path id="pathSk2v596cn4045" kvg:type="㇐" d="M46,30.89c2.17,0.88,5.38,0.42,7.62,0.07c6.64-1.03,17.52-2.55,24.02-3c2.41-0.17,4.72-0.53,7.11,0.05" transform="matrix(1,0,0,1,396,-4)" class="stroke_order_diagram--existing_path"></path><path id="kvg:0631f-s5" kvg:type="㇔" d="M46.88,40.62c2.15,2.07,5.56,8.51,6.1,11.73" transform="matrix(1,0,0,1,396,-4)" class="stroke_order_diagram--current_path"></path><path id="pathSk2v596cn4047" kvg:type="㇔" d="M46.88,40.62c2.15,2.07,5.56,8.51,6.1,11.73" transform="matrix(1,0,0,1,396,-4)" class="stroke_order_diagram--current_path"></path><circle cx="46.88" cy="40.62" r="8" class="stroke_order_diagram--path_start" transform="matrix(1,0,0,1,396,-4)"></circle><line x1="550" x2="550" y1="1" y2="99" class="stroke_order_diagram--guide_line"></line><line x1="599" x2="599" y1="1" y2="99" class="stroke_order_diagram--bounding_box"></line><path id="pathSk2v596cn404a" kvg:type="㇐" d="M15,39.42c1.84,0.22,3.48,0.49,5.38,0.26c4.62-0.57,10.92-1.65,18.39-3.28c0.93-0.2,1.98-0.14,2.9-0.14" transform="matrix(1,0,0,1,496,-4)" class="stroke_order_diagram--existing_path"></path><path id="pathSk2v596cn404b" kvg:type="㇚" d="M31.52,15.75c0.87,0.87,1.51,2.38,1.51,4.77c0,15.23-0.01,53.71-0.01,65.15c0,14.25-6.32,3.53-7.77,2" transform="matrix(1,0,0,1,496,-4)" class="stroke_order_diagram--existing_path"></path><path id="pathSk2v596cn404c" kvg:type="㇀" d="M13.25,67.68c1.5,1.32,2.93,1.55,4.8,0.19c5.83-4.24,11.2-8.12,22.7-16.95" transform="matrix(1,0,0,1,496,-4)" class="stroke_order_diagram--existing_path"></path><path id="pathSk2v596cn404d" kvg:type="㇐" d="M46,30.89c2.17,0.88,5.38,0.42,7.62,0.07c6.64-1.03,17.52-2.55,24.02-3c2.41-0.17,4.72-0.53,7.11,0.05" transform="matrix(1,0,0,1,496,-4)" class="stroke_order_diagram--existing_path"></path><path id="pathSk2v596cn404e" kvg:type="㇔" d="M46.88,40.62c2.15,2.07,5.56,8.51,6.1,11.73" transform="matrix(1,0,0,1,496,-4)" class="stroke_order_diagram--existing_path"></path><path id="kvg:0631f-s6" kvg:type="㇒" d="M81.53,36.14c0.13,0.93-0.03,1.81-0.48,2.62c-1.42,3.58-3.72,7.5-7.55,12.23" transform="matrix(1,0,0,1,496,-4)" class="stroke_order_diagram--current_path"></path><path id="pathSk2v596cn404g" kvg:type="㇒" d="M81.53,36.14c0.13,0.93-0.03,1.81-0.48,2.62c-1.42,3.58-3.72,7.5-7.55,12.23" transform="matrix(1,0,0,1,496,-4)" class="stroke_order_diagram--current_path"></path><circle cx="81.53" cy="36.14" r="8" class="stroke_order_diagram--path_start" transform="matrix(1,0,0,1,496,-4)"></circle><line x1="650" x2="650" y1="1" y2="99" class="stroke_order_diagram--guide_line"></line><line x1="699" x2="699" y1="1" y2="99" class="stroke_order_diagram--bounding_box"></line><path id="pathSk2v596cn404j" kvg:type="㇐" d="M15,39.42c1.84,0.22,3.48,0.49,5.38,0.26c4.62-0.57,10.92-1.65,18.39-3.28c0.93-0.2,1.98-0.14,2.9-0.14" transform="matrix(1,0,0,1,596,-4)" class="stroke_order_diagram--existing_path"></path><path id="pathSk2v596cn404k" kvg:type="㇚" d="M31.52,15.75c0.87,0.87,1.51,2.38,1.51,4.77c0,15.23-0.01,53.71-0.01,65.15c0,14.25-6.32,3.53-7.77,2" transform="matrix(1,0,0,1,596,-4)" class="stroke_order_diagram--existing_path"></path><path id="pathSk2v596cn404l" kvg:type="㇀" d="M13.25,67.68c1.5,1.32,2.93,1.55,4.8,0.19c5.83-4.24,11.2-8.12,22.7-16.95" transform="matrix(1,0,0,1,596,-4)" class="stroke_order_diagram--existing_path"></path><path id="pathSk2v596cn404m" kvg:type="㇐" d="M46,30.89c2.17,0.88,5.38,0.42,7.62,0.07c6.64-1.03,17.52-2.55,24.02-3c2.41-0.17,4.72-0.53,7.11,0.05" transform="matrix(1,0,0,1,596,-4)" class="stroke_order_diagram--existing_path"></path><path id="pathSk2v596cn404n" kvg:type="㇔" d="M46.88,40.62c2.15,2.07,5.56,8.51,6.1,11.73" transform="matrix(1,0,0,1,596,-4)" class="stroke_order_diagram--existing_path"></path><path id="pathSk2v596cn404o" kvg:type="㇒" d="M81.53,36.14c0.13,0.93-0.03,1.81-0.48,2.62c-1.42,3.58-3.72,7.5-7.55,12.23" transform="matrix(1,0,0,1,596,-4)" class="stroke_order_diagram--existing_path"></path><path id="kvg:0631f-s7" kvg:type="㇐" d="M41.88,58.86c2.72,0.65,5.24,0.5,7.97,0.17c9.96-1.2,22.78-2.41,34.79-3.33c2.35-0.18,5.24-0.33,7.37,0.05" transform="matrix(1,0,0,1,596,-4)" class="stroke_order_diagram--current_path"></path><path id="pathSk2v596cn404q" kvg:type="㇐" d="M41.88,58.86c2.72,0.65,5.24,0.5,7.97,0.17c9.96-1.2,22.78-2.41,34.79-3.33c2.35-0.18,5.24-0.33,7.37,0.05" transform="matrix(1,0,0,1,596,-4)" class="stroke_order_diagram--current_path"></path><circle cx="41.88" cy="58.86" r="8" class="stroke_order_diagram--path_start" transform="matrix(1,0,0,1,596,-4)"></circle><line x1="750" x2="750" y1="1" y2="99" class="stroke_order_diagram--guide_line"></line><line x1="799" x2="799" y1="1" y2="99" class="stroke_order_diagram--bounding_box"></line><path id="pathSk2v596cn404t" kvg:type="㇐" d="M15,39.42c1.84,0.22,3.48,0.49,5.38,0.26c4.62-0.57,10.92-1.65,18.39-3.28c0.93-0.2,1.98-0.14,2.9-0.14" transform="matrix(1,0,0,1,696,-4)" class="stroke_order_diagram--existing_path"></path><path id="pathSk2v596cn404u" kvg:type="㇚" d="M31.52,15.75c0.87,0.87,1.51,2.38,1.51,4.77c0,15.23-0.01,53.71-0.01,65.15c0,14.25-6.32,3.53-7.77,2" transform="matrix(1,0,0,1,696,-4)" class="stroke_order_diagram--existing_path"></path><path id="pathSk2v596cn404v" kvg:type="㇀" d="M13.25,67.68c1.5,1.32,2.93,1.55,4.8,0.19c5.83-4.24,11.2-8.12,22.7-16.95" transform="matrix(1,0,0,1,696,-4)" class="stroke_order_diagram--existing_path"></path><path id="pathSk2v596cn404w" kvg:type="㇐" d="M46,30.89c2.17,0.88,5.38,0.42,7.62,0.07c6.64-1.03,17.52-2.55,24.02-3c2.41-0.17,4.72-0.53,7.11,0.05" transform="matrix(1,0,0,1,696,-4)" class="stroke_order_diagram--existing_path"></path><path id="pathSk2v596cn404x" kvg:type="㇔" d="M46.88,40.62c2.15,2.07,5.56,8.51,6.1,11.73" transform="matrix(1,0,0,1,696,-4)" class="stroke_order_diagram--existing_path"></path><path id="pathSk2v596cn404y" kvg:type="㇒" d="M81.53,36.14c0.13,0.93-0.03,1.81-0.48,2.62c-1.42,3.58-3.72,7.5-7.55,12.23" transform="matrix(1,0,0,1,696,-4)" class="stroke_order_diagram--existing_path"></path><path id="pathSk2v596cn404z" kvg:type="㇐" d="M41.88,58.86c2.72,0.65,5.24,0.5,7.97,0.17c9.96-1.2,22.78-2.41,34.79-3.33c2.35-0.18,5.24-0.33,7.37,0.05" transform="matrix(1,0,0,1,696,-4)" class="stroke_order_diagram--existing_path"></path><path id="kvg:0631f-s8" kvg:type="㇒" d="M62.83,13.5c0.96,0.96,1.17,2.38,1.17,4.33C63.99,62.75,65.25,76,38.75,95" transform="matrix(1,0,0,1,696,-4)" class="stroke_order_diagram--current_path"></path><path id="pathSk2v596cn4051" kvg:type="㇒" d="M62.83,13.5c0.96,0.96,1.17,2.38,1.17,4.33C63.99,62.75,65.25,76,38.75,95" transform="matrix(1,0,0,1,696,-4)" class="stroke_order_diagram--current_path"></path><circle cx="62.83" cy="13.5" r="8" class="stroke_order_diagram--path_start" transform="matrix(1,0,0,1,696,-4)"></circle><line x1="850" x2="850" y1="1" y2="99" class="stroke_order_diagram--guide_line"></line><line x1="899" x2="899" y1="1" y2="99" class="stroke_order_diagram--bounding_box"></line><path id="pathSk2v596cn4054" kvg:type="㇐" d="M15,39.42c1.84,0.22,3.48,0.49,5.38,0.26c4.62-0.57,10.92-1.65,18.39-3.28c0.93-0.2,1.98-0.14,2.9-0.14" transform="matrix(1,0,0,1,796,-4)" class="stroke_order_diagram--existing_path"></path><path id="pathSk2v596cn4055" kvg:type="㇚" d="M31.52,15.75c0.87,0.87,1.51,2.38,1.51,4.77c0,15.23-0.01,53.71-0.01,65.15c0,14.25-6.32,3.53-7.77,2" transform="matrix(1,0,0,1,796,-4)" class="stroke_order_diagram--existing_path"></path><path id="pathSk2v596cn4056" kvg:type="㇀" d="M13.25,67.68c1.5,1.32,2.93,1.55,4.8,0.19c5.83-4.24,11.2-8.12,22.7-16.95" transform="matrix(1,0,0,1,796,-4)" class="stroke_order_diagram--existing_path"></path><path id="pathSk2v596cn4057" kvg:type="㇐" d="M46,30.89c2.17,0.88,5.38,0.42,7.62,0.07c6.64-1.03,17.52-2.55,24.02-3c2.41-0.17,4.72-0.53,7.11,0.05" transform="matrix(1,0,0,1,796,-4)" class="stroke_order_diagram--existing_path"></path><path id="pathSk2v596cn4058" kvg:type="㇔" d="M46.88,40.62c2.15,2.07,5.56,8.51,6.1,11.73" transform="matrix(1,0,0,1,796,-4)" class="stroke_order_diagram--existing_path"></path><path id="pathSk2v596cn4059" kvg:type="㇒" d="M81.53,36.14c0.13,0.93-0.03,1.81-0.48,2.62c-1.42,3.58-3.72,7.5-7.55,12.23" transform="matrix(1,0,0,1,796,-4)" class="stroke_order_diagram--existing_path"></path><path id="pathSk2v596cn405a" kvg:type="㇐" d="M41.88,58.86c2.72,0.65,5.24,0.5,7.97,0.17c9.96-1.2,22.78-2.41,34.79-3.33c2.35-0.18,5.24-0.33,7.37,0.05" transform="matrix(1,0,0,1,796,-4)" class="stroke_order_diagram--existing_path"></path><path id="pathSk2v596cn405b" kvg:type="㇒" d="M62.83,13.5c0.96,0.96,1.17,2.38,1.17,4.33C63.99,62.75,65.25,76,38.75,95" transform="matrix(1,0,0,1,796,-4)" class="stroke_order_diagram--existing_path"></path><path id="kvg:0631f-s9" kvg:type="㇏" d="M63.5,60c5.18,5.69,14.4,17.72,21.89,25.48c4.23,4.39,6.73,6.27,9.36,7.77" transform="matrix(1,0,0,1,796,-4)" class="stroke_order_diagram--current_path"></path><path id="pathSk2v596cn405d" kvg:type="㇏" d="M63.5,60c5.18,5.69,14.4,17.72,21.89,25.48c4.23,4.39,6.73,6.27,9.36,7.77" transform="matrix(1,0,0,1,796,-4)" class="stroke_order_diagram--current_path"></path><circle cx="63.5" cy="60" r="8" class="stroke_order_diagram--path_start" transform="matrix(1,0,0,1,796,-4)"></circle></svg>