<svg style="width: 1500px; height: 100px;" viewbox="0 0 1500 100"><style>
.stroke_order_diagram--outer_container {
  width: 100%;
  overflow-x: auto;
  overflow-y: hidden;
}

.stroke_order_diagram--guide_line {
  fill: none;
  stroke: #ddd;
  stroke-width: 3;
  stroke-linecap: square;
  stroke-linejoin: square;
  stroke-dasharray:8, 8;
}

.stroke_order_diagram--bounding_box {
  fill: none;
  stroke: #ddd;
  stroke-width: 4;
  stroke-linecap: square;
  stroke-linejoin: square;
}

.stroke_order_diagram--current_path {
  fill: none;
  stroke: #000;
  stroke-width: 6;
  stroke-linecap: round;
  stroke-linejoin: round;
}

.stroke_order_diagram--existing_path {
  fill: none;
  stroke: #aaa;
  stroke-width: 6;
  stroke-linecap: round;
  stroke-linejoin:round;
}

.stroke_order_diagram--path_start {
  fill: rgba(255, 0, 0, 0.7);
  stroke:none
}</style><desc>Created with Snap</desc><defs></defs><line x1="1" x2="1499" y1="1" y2="1" class="stroke_order_diagram--bounding_box"></line><line x1="1" x2="1" y1="1" y2="99" class="stroke_order_diagram--bounding_box"></line><line x1="1" x2="1499" y1="99" y2="99" class="stroke_order_diagram--bounding_box"></line><line x1="0" x2="1500" y1="50" y2="50" class="stroke_order_diagram--guide_line"></line><line x1="50" x2="50" y1="1" y2="99" class="stroke_order_diagram--guide_line"></line><line x1="99" x2="99" y1="1" y2="99" class="stroke_order_diagram--bounding_box"></line><path id="kvg:064a4-s1" kvg:type="㇐" d="M8.75,38.92c1.84,0.22,3.09,0.3,5,0.05c4.57-0.61,9.87-1.45,16.98-2.42c0.71-0.1,1.44-0.19,2.19-0.29" transform="matrix(1,0,0,1,-4,-4)" class="stroke_order_diagram--current_path"></path><path id="pathSk2v596cn32as" kvg:type="㇐" d="M8.75,38.92c1.84,0.22,3.09,0.3,5,0.05c4.57-0.61,9.87-1.45,16.98-2.42c0.71-0.1,1.44-0.19,2.19-0.29" transform="matrix(1,0,0,1,-4,-4)" class="stroke_order_diagram--current_path"></path><circle cx="8.75" cy="38.92" r="8" class="stroke_order_diagram--path_start" transform="matrix(1,0,0,1,-4,-4)"></circle><line x1="150" x2="150" y1="1" y2="99" class="stroke_order_diagram--guide_line"></line><line x1="199" x2="199" y1="1" y2="99" class="stroke_order_diagram--bounding_box"></line><path id="pathSk2v596cn32av" kvg:type="㇐" d="M8.75,38.92c1.84,0.22,3.09,0.3,5,0.05c4.57-0.61,9.87-1.45,16.98-2.42c0.71-0.1,1.44-0.19,2.19-0.29" transform="matrix(1,0,0,1,96,-4)" class="stroke_order_diagram--existing_path"></path><path id="kvg:064a4-s2" kvg:type="㇚" d="M22.27,16.5c1.05,1.05,1.51,2.75,1.51,5.02c0,15.23-0.01,51.46-0.01,62.9c0,14.25-5.32,4.28-6.77,2.75" transform="matrix(1,0,0,1,96,-4)" class="stroke_order_diagram--current_path"></path><path id="pathSk2v596cn32ax" kvg:type="㇚" d="M22.27,16.5c1.05,1.05,1.51,2.75,1.51,5.02c0,15.23-0.01,51.46-0.01,62.9c0,14.25-5.32,4.28-6.77,2.75" transform="matrix(1,0,0,1,96,-4)" class="stroke_order_diagram--current_path"></path><circle cx="22.27" cy="16.5" r="8" class="stroke_order_diagram--path_start" transform="matrix(1,0,0,1,96,-4)"></circle><line x1="250" x2="250" y1="1" y2="99" class="stroke_order_diagram--guide_line"></line><line x1="299" x2="299" y1="1" y2="99" class="stroke_order_diagram--bounding_box"></line><path id="pathSk2v596cn32b0" kvg:type="㇐" d="M8.75,38.92c1.84,0.22,3.09,0.3,5,0.05c4.57-0.61,9.87-1.45,16.98-2.42c0.71-0.1,1.44-0.19,2.19-0.29" transform="matrix(1,0,0,1,196,-4)" class="stroke_order_diagram--existing_path"></path><path id="pathSk2v596cn32b1" kvg:type="㇚" d="M22.27,16.5c1.05,1.05,1.51,2.75,1.51,5.02c0,15.23-0.01,51.46-0.01,62.9c0,14.25-5.32,4.28-6.77,2.75" transform="matrix(1,0,0,1,196,-4)" class="stroke_order_diagram--existing_path"></path><path id="kvg:064a4-s3" kvg:type="㇀" d="M9.25,65.43c1.1,1.1,2.25,1.07,4-0.43c6.98-5.99,10.38-9,16-14.08" transform="matrix(1,0,0,1,196,-4)" class="stroke_order_diagram--current_path"></path><path id="pathSk2v596cn32b3" kvg:type="㇀" d="M9.25,65.43c1.1,1.1,2.25,1.07,4-0.43c6.98-5.99,10.38-9,16-14.08" transform="matrix(1,0,0,1,196,-4)" class="stroke_order_diagram--current_path"></path><circle cx="9.25" cy="65.43" r="8" class="stroke_order_diagram--path_start" transform="matrix(1,0,0,1,196,-4)"></circle><line x1="350" x2="350" y1="1" y2="99" class="stroke_order_diagram--guide_line"></line><line x1="399" x2="399" y1="1" y2="99" class="stroke_order_diagram--bounding_box"></line><path id="pathSk2v596cn32b6" kvg:type="㇐" d="M8.75,38.92c1.84,0.22,3.09,0.3,5,0.05c4.57-0.61,9.87-1.45,16.98-2.42c0.71-0.1,1.44-0.19,2.19-0.29" transform="matrix(1,0,0,1,296,-4)" class="stroke_order_diagram--existing_path"></path><path id="pathSk2v596cn32b7" kvg:type="㇚" d="M22.27,16.5c1.05,1.05,1.51,2.75,1.51,5.02c0,15.23-0.01,51.46-0.01,62.9c0,14.25-5.32,4.28-6.77,2.75" transform="matrix(1,0,0,1,296,-4)" class="stroke_order_diagram--existing_path"></path><path id="pathSk2v596cn32b8" kvg:type="㇀" d="M9.25,65.43c1.1,1.1,2.25,1.07,4-0.43c6.98-5.99,10.38-9,16-14.08" transform="matrix(1,0,0,1,296,-4)" class="stroke_order_diagram--existing_path"></path><path id="kvg:064a4-s4" kvg:type="㇑a" d="M50.05,15.57c1.12,1.12,1.17,2.05,1.17,3.83c0,1.85-0.08,4.47-0.08,6.58" transform="matrix(1,0,0,1,296,-4)" class="stroke_order_diagram--current_path"></path><path id="pathSk2v596cn32ba" kvg:type="㇑a" d="M50.05,15.57c1.12,1.12,1.17,2.05,1.17,3.83c0,1.85-0.08,4.47-0.08,6.58" transform="matrix(1,0,0,1,296,-4)" class="stroke_order_diagram--current_path"></path><circle cx="50.05" cy="15.57" r="8" class="stroke_order_diagram--path_start" transform="matrix(1,0,0,1,296,-4)"></circle><line x1="450" x2="450" y1="1" y2="99" class="stroke_order_diagram--guide_line"></line><line x1="499" x2="499" y1="1" y2="99" class="stroke_order_diagram--bounding_box"></line><path id="pathSk2v596cn32bd" kvg:type="㇐" d="M8.75,38.92c1.84,0.22,3.09,0.3,5,0.05c4.57-0.61,9.87-1.45,16.98-2.42c0.71-0.1,1.44-0.19,2.19-0.29" transform="matrix(1,0,0,1,396,-4)" class="stroke_order_diagram--existing_path"></path><path id="pathSk2v596cn32be" kvg:type="㇚" d="M22.27,16.5c1.05,1.05,1.51,2.75,1.51,5.02c0,15.23-0.01,51.46-0.01,62.9c0,14.25-5.32,4.28-6.77,2.75" transform="matrix(1,0,0,1,396,-4)" class="stroke_order_diagram--existing_path"></path><path id="pathSk2v596cn32bf" kvg:type="㇀" d="M9.25,65.43c1.1,1.1,2.25,1.07,4-0.43c6.98-5.99,10.38-9,16-14.08" transform="matrix(1,0,0,1,396,-4)" class="stroke_order_diagram--existing_path"></path><path id="pathSk2v596cn32bg" kvg:type="㇑a" d="M50.05,15.57c1.12,1.12,1.17,2.05,1.17,3.83c0,1.85-0.08,4.47-0.08,6.58" transform="matrix(1,0,0,1,396,-4)" class="stroke_order_diagram--existing_path"></path><path id="kvg:064a4-s5" kvg:type="㇐" d="M35.47,28.4c2.03,0.47,4.06,0.25,6.41-0.1c5.11-0.76,12.24-1.65,18.73-2.31c1.78-0.18,4.26-0.37,5.91,0.11" transform="matrix(1,0,0,1,396,-4)" class="stroke_order_diagram--current_path"></path><path id="pathSk2v596cn32bi" kvg:type="㇐" d="M35.47,28.4c2.03,0.47,4.06,0.25,6.41-0.1c5.11-0.76,12.24-1.65,18.73-2.31c1.78-0.18,4.26-0.37,5.91,0.11" transform="matrix(1,0,0,1,396,-4)" class="stroke_order_diagram--current_path"></path><circle cx="35.47" cy="28.4" r="8" class="stroke_order_diagram--path_start" transform="matrix(1,0,0,1,396,-4)"></circle><line x1="550" x2="550" y1="1" y2="99" class="stroke_order_diagram--guide_line"></line><line x1="599" x2="599" y1="1" y2="99" class="stroke_order_diagram--bounding_box"></line><path id="pathSk2v596cn32bl" kvg:type="㇐" d="M8.75,38.92c1.84,0.22,3.09,0.3,5,0.05c4.57-0.61,9.87-1.45,16.98-2.42c0.71-0.1,1.44-0.19,2.19-0.29" transform="matrix(1,0,0,1,496,-4)" class="stroke_order_diagram--existing_path"></path><path id="pathSk2v596cn32bm" kvg:type="㇚" d="M22.27,16.5c1.05,1.05,1.51,2.75,1.51,5.02c0,15.23-0.01,51.46-0.01,62.9c0,14.25-5.32,4.28-6.77,2.75" transform="matrix(1,0,0,1,496,-4)" class="stroke_order_diagram--existing_path"></path><path id="pathSk2v596cn32bn" kvg:type="㇀" d="M9.25,65.43c1.1,1.1,2.25,1.07,4-0.43c6.98-5.99,10.38-9,16-14.08" transform="matrix(1,0,0,1,496,-4)" class="stroke_order_diagram--existing_path"></path><path id="pathSk2v596cn32bo" kvg:type="㇑a" d="M50.05,15.57c1.12,1.12,1.17,2.05,1.17,3.83c0,1.85-0.08,4.47-0.08,6.58" transform="matrix(1,0,0,1,496,-4)" class="stroke_order_diagram--existing_path"></path><path id="pathSk2v596cn32bp" kvg:type="㇐" d="M35.47,28.4c2.03,0.47,4.06,0.25,6.41-0.1c5.11-0.76,12.24-1.65,18.73-2.31c1.78-0.18,4.26-0.37,5.91,0.11" transform="matrix(1,0,0,1,496,-4)" class="stroke_order_diagram--existing_path"></path><path id="kvg:064a4-s6" kvg:type="㇜" d="M49.46,29.89c0.17,0.86-0.27,1.85-0.51,2.22c-3.36,5.06-5.5,7.23-9.85,12.52c-1.27,1.54-0.54,2.99,1.51,2.45c6.89-1.82,10.14-2.57,19.37-4.8" transform="matrix(1,0,0,1,496,-4)" class="stroke_order_diagram--current_path"></path><path id="pathSk2v596cn32br" kvg:type="㇜" d="M49.46,29.89c0.17,0.86-0.27,1.85-0.51,2.22c-3.36,5.06-5.5,7.23-9.85,12.52c-1.27,1.54-0.54,2.99,1.51,2.45c6.89-1.82,10.14-2.57,19.37-4.8" transform="matrix(1,0,0,1,496,-4)" class="stroke_order_diagram--current_path"></path><circle cx="49.46" cy="29.89" r="8" class="stroke_order_diagram--path_start" transform="matrix(1,0,0,1,496,-4)"></circle><line x1="650" x2="650" y1="1" y2="99" class="stroke_order_diagram--guide_line"></line><line x1="699" x2="699" y1="1" y2="99" class="stroke_order_diagram--bounding_box"></line><path id="pathSk2v596cn32bu" kvg:type="㇐" d="M8.75,38.92c1.84,0.22,3.09,0.3,5,0.05c4.57-0.61,9.87-1.45,16.98-2.42c0.71-0.1,1.44-0.19,2.19-0.29" transform="matrix(1,0,0,1,596,-4)" class="stroke_order_diagram--existing_path"></path><path id="pathSk2v596cn32bv" kvg:type="㇚" d="M22.27,16.5c1.05,1.05,1.51,2.75,1.51,5.02c0,15.23-0.01,51.46-0.01,62.9c0,14.25-5.32,4.28-6.77,2.75" transform="matrix(1,0,0,1,596,-4)" class="stroke_order_diagram--existing_path"></path><path id="pathSk2v596cn32bw" kvg:type="㇀" d="M9.25,65.43c1.1,1.1,2.25,1.07,4-0.43c6.98-5.99,10.38-9,16-14.08" transform="matrix(1,0,0,1,596,-4)" class="stroke_order_diagram--existing_path"></path><path id="pathSk2v596cn32bx" kvg:type="㇑a" d="M50.05,15.57c1.12,1.12,1.17,2.05,1.17,3.83c0,1.85-0.08,4.47-0.08,6.58" transform="matrix(1,0,0,1,596,-4)" class="stroke_order_diagram--existing_path"></path><path id="pathSk2v596cn32by" kvg:type="㇐" d="M35.47,28.4c2.03,0.47,4.06,0.25,6.41-0.1c5.11-0.76,12.24-1.65,18.73-2.31c1.78-0.18,4.26-0.37,5.91,0.11" transform="matrix(1,0,0,1,596,-4)" class="stroke_order_diagram--existing_path"></path><path id="pathSk2v596cn32bz" kvg:type="㇜" d="M49.46,29.89c0.17,0.86-0.27,1.85-0.51,2.22c-3.36,5.06-5.5,7.23-9.85,12.52c-1.27,1.54-0.54,2.99,1.51,2.45c6.89-1.82,10.14-2.57,19.37-4.8" transform="matrix(1,0,0,1,596,-4)" class="stroke_order_diagram--existing_path"></path><path id="kvg:064a4-s7" kvg:type="㇔" d="M56.72,36.03c2.43,1.93,6.29,7.93,6.9,10.94" transform="matrix(1,0,0,1,596,-4)" class="stroke_order_diagram--current_path"></path><path id="pathSk2v596cn32c1" kvg:type="㇔" d="M56.72,36.03c2.43,1.93,6.29,7.93,6.9,10.94" transform="matrix(1,0,0,1,596,-4)" class="stroke_order_diagram--current_path"></path><circle cx="56.72" cy="36.03" r="8" class="stroke_order_diagram--path_start" transform="matrix(1,0,0,1,596,-4)"></circle><line x1="750" x2="750" y1="1" y2="99" class="stroke_order_diagram--guide_line"></line><line x1="799" x2="799" y1="1" y2="99" class="stroke_order_diagram--bounding_box"></line><path id="pathSk2v596cn32c4" kvg:type="㇐" d="M8.75,38.92c1.84,0.22,3.09,0.3,5,0.05c4.57-0.61,9.87-1.45,16.98-2.42c0.71-0.1,1.44-0.19,2.19-0.29" transform="matrix(1,0,0,1,696,-4)" class="stroke_order_diagram--existing_path"></path><path id="pathSk2v596cn32c5" kvg:type="㇚" d="M22.27,16.5c1.05,1.05,1.51,2.75,1.51,5.02c0,15.23-0.01,51.46-0.01,62.9c0,14.25-5.32,4.28-6.77,2.75" transform="matrix(1,0,0,1,696,-4)" class="stroke_order_diagram--existing_path"></path><path id="pathSk2v596cn32c6" kvg:type="㇀" d="M9.25,65.43c1.1,1.1,2.25,1.07,4-0.43c6.98-5.99,10.38-9,16-14.08" transform="matrix(1,0,0,1,696,-4)" class="stroke_order_diagram--existing_path"></path><path id="pathSk2v596cn32c7" kvg:type="㇑a" d="M50.05,15.57c1.12,1.12,1.17,2.05,1.17,3.83c0,1.85-0.08,4.47-0.08,6.58" transform="matrix(1,0,0,1,696,-4)" class="stroke_order_diagram--existing_path"></path><path id="pathSk2v596cn32c8" kvg:type="㇐" d="M35.47,28.4c2.03,0.47,4.06,0.25,6.41-0.1c5.11-0.76,12.24-1.65,18.73-2.31c1.78-0.18,4.26-0.37,5.91,0.11" transform="matrix(1,0,0,1,696,-4)" class="stroke_order_diagram--existing_path"></path><path id="pathSk2v596cn32c9" kvg:type="㇜" d="M49.46,29.89c0.17,0.86-0.27,1.85-0.51,2.22c-3.36,5.06-5.5,7.23-9.85,12.52c-1.27,1.54-0.54,2.99,1.51,2.45c6.89-1.82,10.14-2.57,19.37-4.8" transform="matrix(1,0,0,1,696,-4)" class="stroke_order_diagram--existing_path"></path><path id="pathSk2v596cn32ca" kvg:type="㇔" d="M56.72,36.03c2.43,1.93,6.29,7.93,6.9,10.94" transform="matrix(1,0,0,1,696,-4)" class="stroke_order_diagram--existing_path"></path><path id="kvg:064a4-s8" kvg:type="㇑/㇒" d="M39.98,54.51c0.82,0.82,0.96,1.99,0.96,3.18c0,0.43-0.04,19.12-0.04,29.38c0,3.45-0.01,5.87-0.02,6.19" transform="matrix(1,0,0,1,696,-4)" class="stroke_order_diagram--current_path"></path><path id="pathSk2v596cn32cc" kvg:type="㇑/㇒" d="M39.98,54.51c0.82,0.82,0.96,1.99,0.96,3.18c0,0.43-0.04,19.12-0.04,29.38c0,3.45-0.01,5.87-0.02,6.19" transform="matrix(1,0,0,1,696,-4)" class="stroke_order_diagram--current_path"></path><circle cx="39.98" cy="54.51" r="8" class="stroke_order_diagram--path_start" transform="matrix(1,0,0,1,696,-4)"></circle><line x1="850" x2="850" y1="1" y2="99" class="stroke_order_diagram--guide_line"></line><line x1="899" x2="899" y1="1" y2="99" class="stroke_order_diagram--bounding_box"></line><path id="pathSk2v596cn32cf" kvg:type="㇐" d="M8.75,38.92c1.84,0.22,3.09,0.3,5,0.05c4.57-0.61,9.87-1.45,16.98-2.42c0.71-0.1,1.44-0.19,2.19-0.29" transform="matrix(1,0,0,1,796,-4)" class="stroke_order_diagram--existing_path"></path><path id="pathSk2v596cn32cg" kvg:type="㇚" d="M22.27,16.5c1.05,1.05,1.51,2.75,1.51,5.02c0,15.23-0.01,51.46-0.01,62.9c0,14.25-5.32,4.28-6.77,2.75" transform="matrix(1,0,0,1,796,-4)" class="stroke_order_diagram--existing_path"></path><path id="pathSk2v596cn32ch" kvg:type="㇀" d="M9.25,65.43c1.1,1.1,2.25,1.07,4-0.43c6.98-5.99,10.38-9,16-14.08" transform="matrix(1,0,0,1,796,-4)" class="stroke_order_diagram--existing_path"></path><path id="pathSk2v596cn32ci" kvg:type="㇑a" d="M50.05,15.57c1.12,1.12,1.17,2.05,1.17,3.83c0,1.85-0.08,4.47-0.08,6.58" transform="matrix(1,0,0,1,796,-4)" class="stroke_order_diagram--existing_path"></path><path id="pathSk2v596cn32cj" kvg:type="㇐" d="M35.47,28.4c2.03,0.47,4.06,0.25,6.41-0.1c5.11-0.76,12.24-1.65,18.73-2.31c1.78-0.18,4.26-0.37,5.91,0.11" transform="matrix(1,0,0,1,796,-4)" class="stroke_order_diagram--existing_path"></path><path id="pathSk2v596cn32ck" kvg:type="㇜" d="M49.46,29.89c0.17,0.86-0.27,1.85-0.51,2.22c-3.36,5.06-5.5,7.23-9.85,12.52c-1.27,1.54-0.54,2.99,1.51,2.45c6.89-1.82,10.14-2.57,19.37-4.8" transform="matrix(1,0,0,1,796,-4)" class="stroke_order_diagram--existing_path"></path><path id="pathSk2v596cn32cl" kvg:type="㇔" d="M56.72,36.03c2.43,1.93,6.29,7.93,6.9,10.94" transform="matrix(1,0,0,1,796,-4)" class="stroke_order_diagram--existing_path"></path><path id="pathSk2v596cn32cm" kvg:type="㇑/㇒" d="M39.98,54.51c0.82,0.82,0.96,1.99,0.96,3.18c0,0.43-0.04,19.12-0.04,29.38c0,3.45-0.01,5.87-0.02,6.19" transform="matrix(1,0,0,1,796,-4)" class="stroke_order_diagram--existing_path"></path><path id="kvg:064a4-s9" kvg:type="㇆a" d="M41.64,55.57c1.17-0.12,9.83-1.75,13.47-2.4c3.24-0.58,3.83,0.93,3.74,3.83c-0.17,5.28-0.02,23.66-0.02,33.46c0,7.8-4.93,1.2-5.4,0.5" transform="matrix(1,0,0,1,796,-4)" class="stroke_order_diagram--current_path"></path><path id="pathSk2v596cn32co" kvg:type="㇆a" d="M41.64,55.57c1.17-0.12,9.83-1.75,13.47-2.4c3.24-0.58,3.83,0.93,3.74,3.83c-0.17,5.28-0.02,23.66-0.02,33.46c0,7.8-4.93,1.2-5.4,0.5" transform="matrix(1,0,0,1,796,-4)" class="stroke_order_diagram--current_path"></path><circle cx="41.64" cy="55.57" r="8" class="stroke_order_diagram--path_start" transform="matrix(1,0,0,1,796,-4)"></circle><line x1="950" x2="950" y1="1" y2="99" class="stroke_order_diagram--guide_line"></line><line x1="999" x2="999" y1="1" y2="99" class="stroke_order_diagram--bounding_box"></line><path id="pathSk2v596cn32cr" kvg:type="㇐" d="M8.75,38.92c1.84,0.22,3.09,0.3,5,0.05c4.57-0.61,9.87-1.45,16.98-2.42c0.71-0.1,1.44-0.19,2.19-0.29" transform="matrix(1,0,0,1,896,-4)" class="stroke_order_diagram--existing_path"></path><path id="pathSk2v596cn32cs" kvg:type="㇚" d="M22.27,16.5c1.05,1.05,1.51,2.75,1.51,5.02c0,15.23-0.01,51.46-0.01,62.9c0,14.25-5.32,4.28-6.77,2.75" transform="matrix(1,0,0,1,896,-4)" class="stroke_order_diagram--existing_path"></path><path id="pathSk2v596cn32ct" kvg:type="㇀" d="M9.25,65.43c1.1,1.1,2.25,1.07,4-0.43c6.98-5.99,10.38-9,16-14.08" transform="matrix(1,0,0,1,896,-4)" class="stroke_order_diagram--existing_path"></path><path id="pathSk2v596cn32cu" kvg:type="㇑a" d="M50.05,15.57c1.12,1.12,1.17,2.05,1.17,3.83c0,1.85-0.08,4.47-0.08,6.58" transform="matrix(1,0,0,1,896,-4)" class="stroke_order_diagram--existing_path"></path><path id="pathSk2v596cn32cv" kvg:type="㇐" d="M35.47,28.4c2.03,0.47,4.06,0.25,6.41-0.1c5.11-0.76,12.24-1.65,18.73-2.31c1.78-0.18,4.26-0.37,5.91,0.11" transform="matrix(1,0,0,1,896,-4)" class="stroke_order_diagram--existing_path"></path><path id="pathSk2v596cn32cw" kvg:type="㇜" d="M49.46,29.89c0.17,0.86-0.27,1.85-0.51,2.22c-3.36,5.06-5.5,7.23-9.85,12.52c-1.27,1.54-0.54,2.99,1.51,2.45c6.89-1.82,10.14-2.57,19.37-4.8" transform="matrix(1,0,0,1,896,-4)" class="stroke_order_diagram--existing_path"></path><path id="pathSk2v596cn32cx" kvg:type="㇔" d="M56.72,36.03c2.43,1.93,6.29,7.93,6.9,10.94" transform="matrix(1,0,0,1,896,-4)" class="stroke_order_diagram--existing_path"></path><path id="pathSk2v596cn32cy" kvg:type="㇑/㇒" d="M39.98,54.51c0.82,0.82,0.96,1.99,0.96,3.18c0,0.43-0.04,19.12-0.04,29.38c0,3.45-0.01,5.87-0.02,6.19" transform="matrix(1,0,0,1,896,-4)" class="stroke_order_diagram--existing_path"></path><path id="pathSk2v596cn32cz" kvg:type="㇆a" d="M41.64,55.57c1.17-0.12,9.83-1.75,13.47-2.4c3.24-0.58,3.83,0.93,3.74,3.83c-0.17,5.28-0.02,23.66-0.02,33.46c0,7.8-4.93,1.2-5.4,0.5" transform="matrix(1,0,0,1,896,-4)" class="stroke_order_diagram--existing_path"></path><path id="kvg:064a4-s10" kvg:type="㇐a" d="M42.14,65.78c5.73-0.65,11.23-1.34,15.47-1.76" transform="matrix(1,0,0,1,896,-4)" class="stroke_order_diagram--current_path"></path><path id="pathSk2v596cn32d1" kvg:type="㇐a" d="M42.14,65.78c5.73-0.65,11.23-1.34,15.47-1.76" transform="matrix(1,0,0,1,896,-4)" class="stroke_order_diagram--current_path"></path><circle cx="42.14" cy="65.78" r="8" class="stroke_order_diagram--path_start" transform="matrix(1,0,0,1,896,-4)"></circle><line x1="1050" x2="1050" y1="1" y2="99" class="stroke_order_diagram--guide_line"></line><line x1="1099" x2="1099" y1="1" y2="99" class="stroke_order_diagram--bounding_box"></line><path id="pathSk2v596cn32d4" kvg:type="㇐" d="M8.75,38.92c1.84,0.22,3.09,0.3,5,0.05c4.57-0.61,9.87-1.45,16.98-2.42c0.71-0.1,1.44-0.19,2.19-0.29" transform="matrix(1,0,0,1,996,-4)" class="stroke_order_diagram--existing_path"></path><path id="pathSk2v596cn32d5" kvg:type="㇚" d="M22.27,16.5c1.05,1.05,1.51,2.75,1.51,5.02c0,15.23-0.01,51.46-0.01,62.9c0,14.25-5.32,4.28-6.77,2.75" transform="matrix(1,0,0,1,996,-4)" class="stroke_order_diagram--existing_path"></path><path id="pathSk2v596cn32d6" kvg:type="㇀" d="M9.25,65.43c1.1,1.1,2.25,1.07,4-0.43c6.98-5.99,10.38-9,16-14.08" transform="matrix(1,0,0,1,996,-4)" class="stroke_order_diagram--existing_path"></path><path id="pathSk2v596cn32d7" kvg:type="㇑a" d="M50.05,15.57c1.12,1.12,1.17,2.05,1.17,3.83c0,1.85-0.08,4.47-0.08,6.58" transform="matrix(1,0,0,1,996,-4)" class="stroke_order_diagram--existing_path"></path><path id="pathSk2v596cn32d8" kvg:type="㇐" d="M35.47,28.4c2.03,0.47,4.06,0.25,6.41-0.1c5.11-0.76,12.24-1.65,18.73-2.31c1.78-0.18,4.26-0.37,5.91,0.11" transform="matrix(1,0,0,1,996,-4)" class="stroke_order_diagram--existing_path"></path><path id="pathSk2v596cn32d9" kvg:type="㇜" d="M49.46,29.89c0.17,0.86-0.27,1.85-0.51,2.22c-3.36,5.06-5.5,7.23-9.85,12.52c-1.27,1.54-0.54,2.99,1.51,2.45c6.89-1.82,10.14-2.57,19.37-4.8" transform="matrix(1,0,0,1,996,-4)" class="stroke_order_diagram--existing_path"></path><path id="pathSk2v596cn32da" kvg:type="㇔" d="M56.72,36.03c2.43,1.93,6.29,7.93,6.9,10.94" transform="matrix(1,0,0,1,996,-4)" class="stroke_order_diagram--existing_path"></path><path id="pathSk2v596cn32db" kvg:type="㇑/㇒" d="M39.98,54.51c0.82,0.82,0.96,1.99,0.96,3.18c0,0.43-0.04,19.12-0.04,29.38c0,3.45-0.01,5.87-0.02,6.19" transform="matrix(1,0,0,1,996,-4)" class="stroke_order_diagram--existing_path"></path><path id="pathSk2v596cn32dc" kvg:type="㇆a" d="M41.64,55.57c1.17-0.12,9.83-1.75,13.47-2.4c3.24-0.58,3.83,0.93,3.74,3.83c-0.17,5.28-0.02,23.66-0.02,33.46c0,7.8-4.93,1.2-5.4,0.5" transform="matrix(1,0,0,1,996,-4)" class="stroke_order_diagram--existing_path"></path><path id="pathSk2v596cn32dd" kvg:type="㇐a" d="M42.14,65.78c5.73-0.65,11.23-1.34,15.47-1.76" transform="matrix(1,0,0,1,996,-4)" class="stroke_order_diagram--existing_path"></path><path id="kvg:064a4-s11" kvg:type="㇐a" d="M42.25,76.6c3.77-0.42,11.02-1.18,15.38-1.46" transform="matrix(1,0,0,1,996,-4)" class="stroke_order_diagram--current_path"></path><path id="pathSk2v596cn32df" kvg:type="㇐a" d="M42.25,76.6c3.77-0.42,11.02-1.18,15.38-1.46" transform="matrix(1,0,0,1,996,-4)" class="stroke_order_diagram--current_path"></path><circle cx="42.25" cy="76.6" r="8" class="stroke_order_diagram--path_start" transform="matrix(1,0,0,1,996,-4)"></circle><line x1="1150" x2="1150" y1="1" y2="99" class="stroke_order_diagram--guide_line"></line><line x1="1199" x2="1199" y1="1" y2="99" class="stroke_order_diagram--bounding_box"></line><path id="pathSk2v596cn32di" kvg:type="㇐" d="M8.75,38.92c1.84,0.22,3.09,0.3,5,0.05c4.57-0.61,9.87-1.45,16.98-2.42c0.71-0.1,1.44-0.19,2.19-0.29" transform="matrix(1,0,0,1,1096,-4)" class="stroke_order_diagram--existing_path"></path><path id="pathSk2v596cn32dj" kvg:type="㇚" d="M22.27,16.5c1.05,1.05,1.51,2.75,1.51,5.02c0,15.23-0.01,51.46-0.01,62.9c0,14.25-5.32,4.28-6.77,2.75" transform="matrix(1,0,0,1,1096,-4)" class="stroke_order_diagram--existing_path"></path><path id="pathSk2v596cn32dk" kvg:type="㇀" d="M9.25,65.43c1.1,1.1,2.25,1.07,4-0.43c6.98-5.99,10.38-9,16-14.08" transform="matrix(1,0,0,1,1096,-4)" class="stroke_order_diagram--existing_path"></path><path id="pathSk2v596cn32dl" kvg:type="㇑a" d="M50.05,15.57c1.12,1.12,1.17,2.05,1.17,3.83c0,1.85-0.08,4.47-0.08,6.58" transform="matrix(1,0,0,1,1096,-4)" class="stroke_order_diagram--existing_path"></path><path id="pathSk2v596cn32dm" kvg:type="㇐" d="M35.47,28.4c2.03,0.47,4.06,0.25,6.41-0.1c5.11-0.76,12.24-1.65,18.73-2.31c1.78-0.18,4.26-0.37,5.91,0.11" transform="matrix(1,0,0,1,1096,-4)" class="stroke_order_diagram--existing_path"></path><path id="pathSk2v596cn32dn" kvg:type="㇜" d="M49.46,29.89c0.17,0.86-0.27,1.85-0.51,2.22c-3.36,5.06-5.5,7.23-9.85,12.52c-1.27,1.54-0.54,2.99,1.51,2.45c6.89-1.82,10.14-2.57,19.37-4.8" transform="matrix(1,0,0,1,1096,-4)" class="stroke_order_diagram--existing_path"></path><path id="pathSk2v596cn32do" kvg:type="㇔" d="M56.72,36.03c2.43,1.93,6.29,7.93,6.9,10.94" transform="matrix(1,0,0,1,1096,-4)" class="stroke_order_diagram--existing_path"></path><path id="pathSk2v596cn32dp" kvg:type="㇑/㇒" d="M39.98,54.51c0.82,0.82,0.96,1.99,0.96,3.18c0,0.43-0.04,19.12-0.04,29.38c0,3.45-0.01,5.87-0.02,6.19" transform="matrix(1,0,0,1,1096,-4)" class="stroke_order_diagram--existing_path"></path><path id="pathSk2v596cn32dq" kvg:type="㇆a" d="M41.64,55.57c1.17-0.12,9.83-1.75,13.47-2.4c3.24-0.58,3.83,0.93,3.74,3.83c-0.17,5.28-0.02,23.66-0.02,33.46c0,7.8-4.93,1.2-5.4,0.5" transform="matrix(1,0,0,1,1096,-4)" class="stroke_order_diagram--existing_path"></path><path id="pathSk2v596cn32dr" kvg:type="㇐a" d="M42.14,65.78c5.73-0.65,11.23-1.34,15.47-1.76" transform="matrix(1,0,0,1,1096,-4)" class="stroke_order_diagram--existing_path"></path><path id="pathSk2v596cn32ds" kvg:type="㇐a" d="M42.25,76.6c3.77-0.42,11.02-1.18,15.38-1.46" transform="matrix(1,0,0,1,1096,-4)" class="stroke_order_diagram--existing_path"></path><path id="kvg:064a4-s12" kvg:type="㇒" d="M78.45,16.64c0.03,0.82,0.17,2.15-0.06,3.3c-1.67,8.31-5.42,21.39-11.19,31.42" transform="matrix(1,0,0,1,1096,-4)" class="stroke_order_diagram--current_path"></path><path id="pathSk2v596cn32du" kvg:type="㇒" d="M78.45,16.64c0.03,0.82,0.17,2.15-0.06,3.3c-1.67,8.31-5.42,21.39-11.19,31.42" transform="matrix(1,0,0,1,1096,-4)" class="stroke_order_diagram--current_path"></path><circle cx="78.45" cy="16.64" r="8" class="stroke_order_diagram--path_start" transform="matrix(1,0,0,1,1096,-4)"></circle><line x1="1250" x2="1250" y1="1" y2="99" class="stroke_order_diagram--guide_line"></line><line x1="1299" x2="1299" y1="1" y2="99" class="stroke_order_diagram--bounding_box"></line><path id="pathSk2v596cn32dx" kvg:type="㇐" d="M8.75,38.92c1.84,0.22,3.09,0.3,5,0.05c4.57-0.61,9.87-1.45,16.98-2.42c0.71-0.1,1.44-0.19,2.19-0.29" transform="matrix(1,0,0,1,1196,-4)" class="stroke_order_diagram--existing_path"></path><path id="pathSk2v596cn32dy" kvg:type="㇚" d="M22.27,16.5c1.05,1.05,1.51,2.75,1.51,5.02c0,15.23-0.01,51.46-0.01,62.9c0,14.25-5.32,4.28-6.77,2.75" transform="matrix(1,0,0,1,1196,-4)" class="stroke_order_diagram--existing_path"></path><path id="pathSk2v596cn32dz" kvg:type="㇀" d="M9.25,65.43c1.1,1.1,2.25,1.07,4-0.43c6.98-5.99,10.38-9,16-14.08" transform="matrix(1,0,0,1,1196,-4)" class="stroke_order_diagram--existing_path"></path><path id="pathSk2v596cn32e0" kvg:type="㇑a" d="M50.05,15.57c1.12,1.12,1.17,2.05,1.17,3.83c0,1.85-0.08,4.47-0.08,6.58" transform="matrix(1,0,0,1,1196,-4)" class="stroke_order_diagram--existing_path"></path><path id="pathSk2v596cn32e1" kvg:type="㇐" d="M35.47,28.4c2.03,0.47,4.06,0.25,6.41-0.1c5.11-0.76,12.24-1.65,18.73-2.31c1.78-0.18,4.26-0.37,5.91,0.11" transform="matrix(1,0,0,1,1196,-4)" class="stroke_order_diagram--existing_path"></path><path id="pathSk2v596cn32e2" kvg:type="㇜" d="M49.46,29.89c0.17,0.86-0.27,1.85-0.51,2.22c-3.36,5.06-5.5,7.23-9.85,12.52c-1.27,1.54-0.54,2.99,1.51,2.45c6.89-1.82,10.14-2.57,19.37-4.8" transform="matrix(1,0,0,1,1196,-4)" class="stroke_order_diagram--existing_path"></path><path id="pathSk2v596cn32e3" kvg:type="㇔" d="M56.72,36.03c2.43,1.93,6.29,7.93,6.9,10.94" transform="matrix(1,0,0,1,1196,-4)" class="stroke_order_diagram--existing_path"></path><path id="pathSk2v596cn32e4" kvg:type="㇑/㇒" d="M39.98,54.51c0.82,0.82,0.96,1.99,0.96,3.18c0,0.43-0.04,19.12-0.04,29.38c0,3.45-0.01,5.87-0.02,6.19" transform="matrix(1,0,0,1,1196,-4)" class="stroke_order_diagram--existing_path"></path><path id="pathSk2v596cn32e5" kvg:type="㇆a" d="M41.64,55.57c1.17-0.12,9.83-1.75,13.47-2.4c3.24-0.58,3.83,0.93,3.74,3.83c-0.17,5.28-0.02,23.66-0.02,33.46c0,7.8-4.93,1.2-5.4,0.5" transform="matrix(1,0,0,1,1196,-4)" class="stroke_order_diagram--existing_path"></path><path id="pathSk2v596cn32e6" kvg:type="㇐a" d="M42.14,65.78c5.73-0.65,11.23-1.34,15.47-1.76" transform="matrix(1,0,0,1,1196,-4)" class="stroke_order_diagram--existing_path"></path><path id="pathSk2v596cn32e7" kvg:type="㇐a" d="M42.25,76.6c3.77-0.42,11.02-1.18,15.38-1.46" transform="matrix(1,0,0,1,1196,-4)" class="stroke_order_diagram--existing_path"></path><path id="pathSk2v596cn32e8" kvg:type="㇒" d="M78.45,16.64c0.03,0.82,0.17,2.15-0.06,3.3c-1.67,8.31-5.42,21.39-11.19,31.42" transform="matrix(1,0,0,1,1196,-4)" class="stroke_order_diagram--existing_path"></path><path id="kvg:064a4-s13" kvg:type="㇐" d="M76.11,39.21c0.7,0.17,2,0.02,2.38-0.02c4.14-0.44,8.69-1.84,14.01-2.5c1.08-0.2,2.16-0.25,3.24-0.15" transform="matrix(1,0,0,1,1196,-4)" class="stroke_order_diagram--current_path"></path><path id="pathSk2v596cn32ea" kvg:type="㇐" d="M76.11,39.21c0.7,0.17,2,0.02,2.38-0.02c4.14-0.44,8.69-1.84,14.01-2.5c1.08-0.2,2.16-0.25,3.24-0.15" transform="matrix(1,0,0,1,1196,-4)" class="stroke_order_diagram--current_path"></path><circle cx="76.11" cy="39.21" r="8" class="stroke_order_diagram--path_start" transform="matrix(1,0,0,1,1196,-4)"></circle><line x1="1350" x2="1350" y1="1" y2="99" class="stroke_order_diagram--guide_line"></line><line x1="1399" x2="1399" y1="1" y2="99" class="stroke_order_diagram--bounding_box"></line><path id="pathSk2v596cn32ed" kvg:type="㇐" d="M8.75,38.92c1.84,0.22,3.09,0.3,5,0.05c4.57-0.61,9.87-1.45,16.98-2.42c0.71-0.1,1.44-0.19,2.19-0.29" transform="matrix(1,0,0,1,1296,-4)" class="stroke_order_diagram--existing_path"></path><path id="pathSk2v596cn32ee" kvg:type="㇚" d="M22.27,16.5c1.05,1.05,1.51,2.75,1.51,5.02c0,15.23-0.01,51.46-0.01,62.9c0,14.25-5.32,4.28-6.77,2.75" transform="matrix(1,0,0,1,1296,-4)" class="stroke_order_diagram--existing_path"></path><path id="pathSk2v596cn32ef" kvg:type="㇀" d="M9.25,65.43c1.1,1.1,2.25,1.07,4-0.43c6.98-5.99,10.38-9,16-14.08" transform="matrix(1,0,0,1,1296,-4)" class="stroke_order_diagram--existing_path"></path><path id="pathSk2v596cn32eg" kvg:type="㇑a" d="M50.05,15.57c1.12,1.12,1.17,2.05,1.17,3.83c0,1.85-0.08,4.47-0.08,6.58" transform="matrix(1,0,0,1,1296,-4)" class="stroke_order_diagram--existing_path"></path><path id="pathSk2v596cn32eh" kvg:type="㇐" d="M35.47,28.4c2.03,0.47,4.06,0.25,6.41-0.1c5.11-0.76,12.24-1.65,18.73-2.31c1.78-0.18,4.26-0.37,5.91,0.11" transform="matrix(1,0,0,1,1296,-4)" class="stroke_order_diagram--existing_path"></path><path id="pathSk2v596cn32ei" kvg:type="㇜" d="M49.46,29.89c0.17,0.86-0.27,1.85-0.51,2.22c-3.36,5.06-5.5,7.23-9.85,12.52c-1.27,1.54-0.54,2.99,1.51,2.45c6.89-1.82,10.14-2.57,19.37-4.8" transform="matrix(1,0,0,1,1296,-4)" class="stroke_order_diagram--existing_path"></path><path id="pathSk2v596cn32ej" kvg:type="㇔" d="M56.72,36.03c2.43,1.93,6.29,7.93,6.9,10.94" transform="matrix(1,0,0,1,1296,-4)" class="stroke_order_diagram--existing_path"></path><path id="pathSk2v596cn32ek" kvg:type="㇑/㇒" d="M39.98,54.51c0.82,0.82,0.96,1.99,0.96,3.18c0,0.43-0.04,19.12-0.04,29.38c0,3.45-0.01,5.87-0.02,6.19" transform="matrix(1,0,0,1,1296,-4)" class="stroke_order_diagram--existing_path"></path><path id="pathSk2v596cn32el" kvg:type="㇆a" d="M41.64,55.57c1.17-0.12,9.83-1.75,13.47-2.4c3.24-0.58,3.83,0.93,3.74,3.83c-0.17,5.28-0.02,23.66-0.02,33.46c0,7.8-4.93,1.2-5.4,0.5" transform="matrix(1,0,0,1,1296,-4)" class="stroke_order_diagram--existing_path"></path><path id="pathSk2v596cn32em" kvg:type="㇐a" d="M42.14,65.78c5.73-0.65,11.23-1.34,15.47-1.76" transform="matrix(1,0,0,1,1296,-4)" class="stroke_order_diagram--existing_path"></path><path id="pathSk2v596cn32en" kvg:type="㇐a" d="M42.25,76.6c3.77-0.42,11.02-1.18,15.38-1.46" transform="matrix(1,0,0,1,1296,-4)" class="stroke_order_diagram--existing_path"></path><path id="pathSk2v596cn32eo" kvg:type="㇒" d="M78.45,16.64c0.03,0.82,0.17,2.15-0.06,3.3c-1.67,8.31-5.42,21.39-11.19,31.42" transform="matrix(1,0,0,1,1296,-4)" class="stroke_order_diagram--existing_path"></path><path id="pathSk2v596cn32ep" kvg:type="㇐" d="M76.11,39.21c0.7,0.17,2,0.02,2.38-0.02c4.14-0.44,8.69-1.84,14.01-2.5c1.08-0.2,2.16-0.25,3.24-0.15" transform="matrix(1,0,0,1,1296,-4)" class="stroke_order_diagram--existing_path"></path><path id="kvg:064a4-s14" kvg:type="㇒" d="M86.73,41.62c0.35,1.27,0.55,2.17,0.18,4.48c-3.37,21-9.16,38.14-21.89,47.89" transform="matrix(1,0,0,1,1296,-4)" class="stroke_order_diagram--current_path"></path><path id="pathSk2v596cn32er" kvg:type="㇒" d="M86.73,41.62c0.35,1.27,0.55,2.17,0.18,4.48c-3.37,21-9.16,38.14-21.89,47.89" transform="matrix(1,0,0,1,1296,-4)" class="stroke_order_diagram--current_path"></path><circle cx="86.73" cy="41.62" r="8" class="stroke_order_diagram--path_start" transform="matrix(1,0,0,1,1296,-4)"></circle><line x1="1450" x2="1450" y1="1" y2="99" class="stroke_order_diagram--guide_line"></line><line x1="1499" x2="1499" y1="1" y2="99" class="stroke_order_diagram--bounding_box"></line><path id="pathSk2v596cn32eu" kvg:type="㇐" d="M8.75,38.92c1.84,0.22,3.09,0.3,5,0.05c4.57-0.61,9.87-1.45,16.98-2.42c0.71-0.1,1.44-0.19,2.19-0.29" transform="matrix(1,0,0,1,1396,-4)" class="stroke_order_diagram--existing_path"></path><path id="pathSk2v596cn32ev" kvg:type="㇚" d="M22.27,16.5c1.05,1.05,1.51,2.75,1.51,5.02c0,15.23-0.01,51.46-0.01,62.9c0,14.25-5.32,4.28-6.77,2.75" transform="matrix(1,0,0,1,1396,-4)" class="stroke_order_diagram--existing_path"></path><path id="pathSk2v596cn32ew" kvg:type="㇀" d="M9.25,65.43c1.1,1.1,2.25,1.07,4-0.43c6.98-5.99,10.38-9,16-14.08" transform="matrix(1,0,0,1,1396,-4)" class="stroke_order_diagram--existing_path"></path><path id="pathSk2v596cn32ex" kvg:type="㇑a" d="M50.05,15.57c1.12,1.12,1.17,2.05,1.17,3.83c0,1.85-0.08,4.47-0.08,6.58" transform="matrix(1,0,0,1,1396,-4)" class="stroke_order_diagram--existing_path"></path><path id="pathSk2v596cn32ey" kvg:type="㇐" d="M35.47,28.4c2.03,0.47,4.06,0.25,6.41-0.1c5.11-0.76,12.24-1.65,18.73-2.31c1.78-0.18,4.26-0.37,5.91,0.11" transform="matrix(1,0,0,1,1396,-4)" class="stroke_order_diagram--existing_path"></path><path id="pathSk2v596cn32ez" kvg:type="㇜" d="M49.46,29.89c0.17,0.86-0.27,1.85-0.51,2.22c-3.36,5.06-5.5,7.23-9.85,12.52c-1.27,1.54-0.54,2.99,1.51,2.45c6.89-1.82,10.14-2.57,19.37-4.8" transform="matrix(1,0,0,1,1396,-4)" class="stroke_order_diagram--existing_path"></path><path id="pathSk2v596cn32f0" kvg:type="㇔" d="M56.72,36.03c2.43,1.93,6.29,7.93,6.9,10.94" transform="matrix(1,0,0,1,1396,-4)" class="stroke_order_diagram--existing_path"></path><path id="pathSk2v596cn32f1" kvg:type="㇑/㇒" d="M39.98,54.51c0.82,0.82,0.96,1.99,0.96,3.18c0,0.43-0.04,19.12-0.04,29.38c0,3.45-0.01,5.87-0.02,6.19" transform="matrix(1,0,0,1,1396,-4)" class="stroke_order_diagram--existing_path"></path><path id="pathSk2v596cn32f2" kvg:type="㇆a" d="M41.64,55.57c1.17-0.12,9.83-1.75,13.47-2.4c3.24-0.58,3.83,0.93,3.74,3.83c-0.17,5.28-0.02,23.66-0.02,33.46c0,7.8-4.93,1.2-5.4,0.5" transform="matrix(1,0,0,1,1396,-4)" class="stroke_order_diagram--existing_path"></path><path id="pathSk2v596cn32f3" kvg:type="㇐a" d="M42.14,65.78c5.73-0.65,11.23-1.34,15.47-1.76" transform="matrix(1,0,0,1,1396,-4)" class="stroke_order_diagram--existing_path"></path><path id="pathSk2v596cn32f4" kvg:type="㇐a" d="M42.25,76.6c3.77-0.42,11.02-1.18,15.38-1.46" transform="matrix(1,0,0,1,1396,-4)" class="stroke_order_diagram--existing_path"></path><path id="pathSk2v596cn32f5" kvg:type="㇒" d="M78.45,16.64c0.03,0.82,0.17,2.15-0.06,3.3c-1.67,8.31-5.42,21.39-11.19,31.42" transform="matrix(1,0,0,1,1396,-4)" class="stroke_order_diagram--existing_path"></path><path id="pathSk2v596cn32f6" kvg:type="㇐" d="M76.11,39.21c0.7,0.17,2,0.02,2.38-0.02c4.14-0.44,8.69-1.84,14.01-2.5c1.08-0.2,2.16-0.25,3.24-0.15" transform="matrix(1,0,0,1,1396,-4)" class="stroke_order_diagram--existing_path"></path><path id="pathSk2v596cn32f7" kvg:type="㇒" d="M86.73,41.62c0.35,1.27,0.55,2.17,0.18,4.48c-3.37,21-9.16,38.14-21.89,47.89" transform="matrix(1,0,0,1,1396,-4)" class="stroke_order_diagram--existing_path"></path><path id="kvg:064a4-s15" kvg:type="㇏" d="M69.9,54.79c5.1,9.46,12.9,23,19.97,32.37c1.64,2.17,3.39,4.38,5.43,6.2" transform="matrix(1,0,0,1,1396,-4)" class="stroke_order_diagram--current_path"></path><path id="pathSk2v596cn32f9" kvg:type="㇏" d="M69.9,54.79c5.1,9.46,12.9,23,19.97,32.37c1.64,2.17,3.39,4.38,5.43,6.2" transform="matrix(1,0,0,1,1396,-4)" class="stroke_order_diagram--current_path"></path><circle cx="69.9" cy="54.79" r="8" class="stroke_order_diagram--path_start" transform="matrix(1,0,0,1,1396,-4)"></circle></svg>