<svg style="width: 700px; height: 100px;" viewbox="0 0 700 100"><style>
.stroke_order_diagram--outer_container {
  width: 100%;
  overflow-x: auto;
  overflow-y: hidden;
}

.stroke_order_diagram--guide_line {
  fill: none;
  stroke: #ddd;
  stroke-width: 3;
  stroke-linecap: square;
  stroke-linejoin: square;
  stroke-dasharray:8, 8;
}

.stroke_order_diagram--bounding_box {
  fill: none;
  stroke: #ddd;
  stroke-width: 4;
  stroke-linecap: square;
  stroke-linejoin: square;
}

.stroke_order_diagram--current_path {
  fill: none;
  stroke: #000;
  stroke-width: 6;
  stroke-linecap: round;
  stroke-linejoin: round;
}

.stroke_order_diagram--existing_path {
  fill: none;
  stroke: #aaa;
  stroke-width: 6;
  stroke-linecap: round;
  stroke-linejoin:round;
}

.stroke_order_diagram--path_start {
  fill: rgba(255, 0, 0, 0.7);
  stroke:none
}</style><desc>Created with Snap</desc><defs></defs><line x1="1" x2="699" y1="1" y2="1" class="stroke_order_diagram--bounding_box"></line><line x1="1" x2="1" y1="1" y2="99" class="stroke_order_diagram--bounding_box"></line><line x1="1" x2="699" y1="99" y2="99" class="stroke_order_diagram--bounding_box"></line><line x1="0" x2="700" y1="50" y2="50" class="stroke_order_diagram--guide_line"></line><line x1="50" x2="50" y1="1" y2="99" class="stroke_order_diagram--guide_line"></line><line x1="99" x2="99" y1="1" y2="99" class="stroke_order_diagram--bounding_box"></line><path id="kvg:0653b-s1" kvg:type="㇐" d="M12.04,33.75c1.96,0.38,4.14,0.16,5.61-0.08c4.32-0.7,14.05-2.27,20.53-3.54c1.33-0.26,3.19-0.38,4.31-0.13" transform="matrix(1,0,0,1,-4,-4)" class="stroke_order_diagram--current_path"></path><path id="pathSk2v596cn1x4t" kvg:type="㇐" d="M12.04,33.75c1.96,0.38,4.14,0.16,5.61-0.08c4.32-0.7,14.05-2.27,20.53-3.54c1.33-0.26,3.19-0.38,4.31-0.13" transform="matrix(1,0,0,1,-4,-4)" class="stroke_order_diagram--current_path"></path><circle cx="12.04" cy="33.75" r="8" class="stroke_order_diagram--path_start" transform="matrix(1,0,0,1,-4,-4)"></circle><line x1="150" x2="150" y1="1" y2="99" class="stroke_order_diagram--guide_line"></line><line x1="199" x2="199" y1="1" y2="99" class="stroke_order_diagram--bounding_box"></line><path id="pathSk2v596cn1x4w" kvg:type="㇐" d="M12.04,33.75c1.96,0.38,4.14,0.16,5.61-0.08c4.32-0.7,14.05-2.27,20.53-3.54c1.33-0.26,3.19-0.38,4.31-0.13" transform="matrix(1,0,0,1,96,-4)" class="stroke_order_diagram--existing_path"></path><path id="kvg:0653b-s2" kvg:type="㇑a" d="M28.35,35.27c0.82,0.82,1.12,2.11,1.12,3.73c0,5.95-0.09,23.43-0.09,28.25" transform="matrix(1,0,0,1,96,-4)" class="stroke_order_diagram--current_path"></path><path id="pathSk2v596cn1x4y" kvg:type="㇑a" d="M28.35,35.27c0.82,0.82,1.12,2.11,1.12,3.73c0,5.95-0.09,23.43-0.09,28.25" transform="matrix(1,0,0,1,96,-4)" class="stroke_order_diagram--current_path"></path><circle cx="28.35" cy="35.27" r="8" class="stroke_order_diagram--path_start" transform="matrix(1,0,0,1,96,-4)"></circle><line x1="250" x2="250" y1="1" y2="99" class="stroke_order_diagram--guide_line"></line><line x1="299" x2="299" y1="1" y2="99" class="stroke_order_diagram--bounding_box"></line><path id="pathSk2v596cn1x51" kvg:type="㇐" d="M12.04,33.75c1.96,0.38,4.14,0.16,5.61-0.08c4.32-0.7,14.05-2.27,20.53-3.54c1.33-0.26,3.19-0.38,4.31-0.13" transform="matrix(1,0,0,1,196,-4)" class="stroke_order_diagram--existing_path"></path><path id="pathSk2v596cn1x52" kvg:type="㇑a" d="M28.35,35.27c0.82,0.82,1.12,2.11,1.12,3.73c0,5.95-0.09,23.43-0.09,28.25" transform="matrix(1,0,0,1,196,-4)" class="stroke_order_diagram--existing_path"></path><path id="kvg:0653b-s3" kvg:type="㇀/㇐" d="M12.25,74.5c0.75,0.88,2.12,1,3.81,0.25c5.8-2.58,11.81-5.75,22.1-11" transform="matrix(1,0,0,1,196,-4)" class="stroke_order_diagram--current_path"></path><path id="pathSk2v596cn1x54" kvg:type="㇀/㇐" d="M12.25,74.5c0.75,0.88,2.12,1,3.81,0.25c5.8-2.58,11.81-5.75,22.1-11" transform="matrix(1,0,0,1,196,-4)" class="stroke_order_diagram--current_path"></path><circle cx="12.25" cy="74.5" r="8" class="stroke_order_diagram--path_start" transform="matrix(1,0,0,1,196,-4)"></circle><line x1="350" x2="350" y1="1" y2="99" class="stroke_order_diagram--guide_line"></line><line x1="399" x2="399" y1="1" y2="99" class="stroke_order_diagram--bounding_box"></line><path id="pathSk2v596cn1x57" kvg:type="㇐" d="M12.04,33.75c1.96,0.38,4.14,0.16,5.61-0.08c4.32-0.7,14.05-2.27,20.53-3.54c1.33-0.26,3.19-0.38,4.31-0.13" transform="matrix(1,0,0,1,296,-4)" class="stroke_order_diagram--existing_path"></path><path id="pathSk2v596cn1x58" kvg:type="㇑a" d="M28.35,35.27c0.82,0.82,1.12,2.11,1.12,3.73c0,5.95-0.09,23.43-0.09,28.25" transform="matrix(1,0,0,1,296,-4)" class="stroke_order_diagram--existing_path"></path><path id="pathSk2v596cn1x59" kvg:type="㇀/㇐" d="M12.25,74.5c0.75,0.88,2.12,1,3.81,0.25c5.8-2.58,11.81-5.75,22.1-11" transform="matrix(1,0,0,1,296,-4)" class="stroke_order_diagram--existing_path"></path><path id="kvg:0653b-s4" kvg:type="㇒" d="M61.39,13.14c0.05,0.95,0.28,2.51-0.09,3.82c-2.39,8.39-8.27,24.93-16.55,36.54" transform="matrix(1,0,0,1,296,-4)" class="stroke_order_diagram--current_path"></path><path id="pathSk2v596cn1x5b" kvg:type="㇒" d="M61.39,13.14c0.05,0.95,0.28,2.51-0.09,3.82c-2.39,8.39-8.27,24.93-16.55,36.54" transform="matrix(1,0,0,1,296,-4)" class="stroke_order_diagram--current_path"></path><circle cx="61.39" cy="13.14" r="8" class="stroke_order_diagram--path_start" transform="matrix(1,0,0,1,296,-4)"></circle><line x1="450" x2="450" y1="1" y2="99" class="stroke_order_diagram--guide_line"></line><line x1="499" x2="499" y1="1" y2="99" class="stroke_order_diagram--bounding_box"></line><path id="pathSk2v596cn1x5e" kvg:type="㇐" d="M12.04,33.75c1.96,0.38,4.14,0.16,5.61-0.08c4.32-0.7,14.05-2.27,20.53-3.54c1.33-0.26,3.19-0.38,4.31-0.13" transform="matrix(1,0,0,1,396,-4)" class="stroke_order_diagram--existing_path"></path><path id="pathSk2v596cn1x5f" kvg:type="㇑a" d="M28.35,35.27c0.82,0.82,1.12,2.11,1.12,3.73c0,5.95-0.09,23.43-0.09,28.25" transform="matrix(1,0,0,1,396,-4)" class="stroke_order_diagram--existing_path"></path><path id="pathSk2v596cn1x5g" kvg:type="㇀/㇐" d="M12.25,74.5c0.75,0.88,2.12,1,3.81,0.25c5.8-2.58,11.81-5.75,22.1-11" transform="matrix(1,0,0,1,396,-4)" class="stroke_order_diagram--existing_path"></path><path id="pathSk2v596cn1x5h" kvg:type="㇒" d="M61.39,13.14c0.05,0.95,0.28,2.51-0.09,3.82c-2.39,8.39-8.27,24.93-16.55,36.54" transform="matrix(1,0,0,1,396,-4)" class="stroke_order_diagram--existing_path"></path><path id="kvg:0653b-s5" kvg:type="㇐" d="M57.99,35.67c1.42,0.08,2.74,0.03,4.13-0.21c6.72-1.19,15.17-3.47,23.41-5.87c1.55-0.45,3.72-0.6,5.34-0.35" transform="matrix(1,0,0,1,396,-4)" class="stroke_order_diagram--current_path"></path><path id="pathSk2v596cn1x5j" kvg:type="㇐" d="M57.99,35.67c1.42,0.08,2.74,0.03,4.13-0.21c6.72-1.19,15.17-3.47,23.41-5.87c1.55-0.45,3.72-0.6,5.34-0.35" transform="matrix(1,0,0,1,396,-4)" class="stroke_order_diagram--current_path"></path><circle cx="57.99" cy="35.67" r="8" class="stroke_order_diagram--path_start" transform="matrix(1,0,0,1,396,-4)"></circle><line x1="550" x2="550" y1="1" y2="99" class="stroke_order_diagram--guide_line"></line><line x1="599" x2="599" y1="1" y2="99" class="stroke_order_diagram--bounding_box"></line><path id="pathSk2v596cn1x5m" kvg:type="㇐" d="M12.04,33.75c1.96,0.38,4.14,0.16,5.61-0.08c4.32-0.7,14.05-2.27,20.53-3.54c1.33-0.26,3.19-0.38,4.31-0.13" transform="matrix(1,0,0,1,496,-4)" class="stroke_order_diagram--existing_path"></path><path id="pathSk2v596cn1x5n" kvg:type="㇑a" d="M28.35,35.27c0.82,0.82,1.12,2.11,1.12,3.73c0,5.95-0.09,23.43-0.09,28.25" transform="matrix(1,0,0,1,496,-4)" class="stroke_order_diagram--existing_path"></path><path id="pathSk2v596cn1x5o" kvg:type="㇀/㇐" d="M12.25,74.5c0.75,0.88,2.12,1,3.81,0.25c5.8-2.58,11.81-5.75,22.1-11" transform="matrix(1,0,0,1,496,-4)" class="stroke_order_diagram--existing_path"></path><path id="pathSk2v596cn1x5p" kvg:type="㇒" d="M61.39,13.14c0.05,0.95,0.28,2.51-0.09,3.82c-2.39,8.39-8.27,24.93-16.55,36.54" transform="matrix(1,0,0,1,496,-4)" class="stroke_order_diagram--existing_path"></path><path id="pathSk2v596cn1x5q" kvg:type="㇐" d="M57.99,35.67c1.42,0.08,2.74,0.03,4.13-0.21c6.72-1.19,15.17-3.47,23.41-5.87c1.55-0.45,3.72-0.6,5.34-0.35" transform="matrix(1,0,0,1,496,-4)" class="stroke_order_diagram--existing_path"></path><path id="kvg:0653b-s6" kvg:type="㇒" d="M76.83,36.18c0.42,1.2,0.47,2.18-0.19,4.78C70.67,64.52,60.75,82,37.17,93.25" transform="matrix(1,0,0,1,496,-4)" class="stroke_order_diagram--current_path"></path><path id="pathSk2v596cn1x5s" kvg:type="㇒" d="M76.83,36.18c0.42,1.2,0.47,2.18-0.19,4.78C70.67,64.52,60.75,82,37.17,93.25" transform="matrix(1,0,0,1,496,-4)" class="stroke_order_diagram--current_path"></path><circle cx="76.83" cy="36.18" r="8" class="stroke_order_diagram--path_start" transform="matrix(1,0,0,1,496,-4)"></circle><line x1="650" x2="650" y1="1" y2="99" class="stroke_order_diagram--guide_line"></line><line x1="699" x2="699" y1="1" y2="99" class="stroke_order_diagram--bounding_box"></line><path id="pathSk2v596cn1x5v" kvg:type="㇐" d="M12.04,33.75c1.96,0.38,4.14,0.16,5.61-0.08c4.32-0.7,14.05-2.27,20.53-3.54c1.33-0.26,3.19-0.38,4.31-0.13" transform="matrix(1,0,0,1,596,-4)" class="stroke_order_diagram--existing_path"></path><path id="pathSk2v596cn1x5w" kvg:type="㇑a" d="M28.35,35.27c0.82,0.82,1.12,2.11,1.12,3.73c0,5.95-0.09,23.43-0.09,28.25" transform="matrix(1,0,0,1,596,-4)" class="stroke_order_diagram--existing_path"></path><path id="pathSk2v596cn1x5x" kvg:type="㇀/㇐" d="M12.25,74.5c0.75,0.88,2.12,1,3.81,0.25c5.8-2.58,11.81-5.75,22.1-11" transform="matrix(1,0,0,1,596,-4)" class="stroke_order_diagram--existing_path"></path><path id="pathSk2v596cn1x5y" kvg:type="㇒" d="M61.39,13.14c0.05,0.95,0.28,2.51-0.09,3.82c-2.39,8.39-8.27,24.93-16.55,36.54" transform="matrix(1,0,0,1,596,-4)" class="stroke_order_diagram--existing_path"></path><path id="pathSk2v596cn1x5z" kvg:type="㇐" d="M57.99,35.67c1.42,0.08,2.74,0.03,4.13-0.21c6.72-1.19,15.17-3.47,23.41-5.87c1.55-0.45,3.72-0.6,5.34-0.35" transform="matrix(1,0,0,1,596,-4)" class="stroke_order_diagram--existing_path"></path><path id="pathSk2v596cn1x60" kvg:type="㇒" d="M76.83,36.18c0.42,1.2,0.47,2.18-0.19,4.78C70.67,64.52,60.75,82,37.17,93.25" transform="matrix(1,0,0,1,596,-4)" class="stroke_order_diagram--existing_path"></path><path id="kvg:0653b-s7" kvg:type="㇏" d="M51.71,51.51c1.79,0,22.16,23.87,34.75,35.77c2.47,2.33,4.29,3.73,7.29,5.48" transform="matrix(1,0,0,1,596,-4)" class="stroke_order_diagram--current_path"></path><path id="pathSk2v596cn1x62" kvg:type="㇏" d="M51.71,51.51c1.79,0,22.16,23.87,34.75,35.77c2.47,2.33,4.29,3.73,7.29,5.48" transform="matrix(1,0,0,1,596,-4)" class="stroke_order_diagram--current_path"></path><circle cx="51.71" cy="51.51" r="8" class="stroke_order_diagram--path_start" transform="matrix(1,0,0,1,596,-4)"></circle></svg>