<svg style="width: 700px; height: 100px;" viewbox="0 0 700 100"><style>
.stroke_order_diagram--outer_container {
  width: 100%;
  overflow-x: auto;
  overflow-y: hidden;
}

.stroke_order_diagram--guide_line {
  fill: none;
  stroke: #ddd;
  stroke-width: 3;
  stroke-linecap: square;
  stroke-linejoin: square;
  stroke-dasharray:8, 8;
}

.stroke_order_diagram--bounding_box {
  fill: none;
  stroke: #ddd;
  stroke-width: 4;
  stroke-linecap: square;
  stroke-linejoin: square;
}

.stroke_order_diagram--current_path {
  fill: none;
  stroke: #000;
  stroke-width: 6;
  stroke-linecap: round;
  stroke-linejoin: round;
}

.stroke_order_diagram--existing_path {
  fill: none;
  stroke: #aaa;
  stroke-width: 6;
  stroke-linecap: round;
  stroke-linejoin:round;
}

.stroke_order_diagram--path_start {
  fill: rgba(255, 0, 0, 0.7);
  stroke:none
}</style><desc>Created with Snap</desc><defs></defs><line x1="1" x2="699" y1="1" y2="1" class="stroke_order_diagram--bounding_box"></line><line x1="1" x2="1" y1="1" y2="99" class="stroke_order_diagram--bounding_box"></line><line x1="1" x2="699" y1="99" y2="99" class="stroke_order_diagram--bounding_box"></line><line x1="0" x2="700" y1="50" y2="50" class="stroke_order_diagram--guide_line"></line><line x1="50" x2="50" y1="1" y2="99" class="stroke_order_diagram--guide_line"></line><line x1="99" x2="99" y1="1" y2="99" class="stroke_order_diagram--bounding_box"></line><path id="kvg:06539-s1" kvg:type="㇕c" d="M13.13,29.98c1.24,0.77,2.99,1.06,4.6,0.9c4.69-0.47,13.42-2.13,20.16-3.8c4.36-1.08,5.89,0.43,4.35,4.51c-1.09,2.89-3.12,9.53-4.82,15.88" transform="matrix(1,0,0,1,-4,-4)" class="stroke_order_diagram--current_path"></path><path id="pathSk2v596cn16hn" kvg:type="㇕c" d="M13.13,29.98c1.24,0.77,2.99,1.06,4.6,0.9c4.69-0.47,13.42-2.13,20.16-3.8c4.36-1.08,5.89,0.43,4.35,4.51c-1.09,2.89-3.12,9.53-4.82,15.88" transform="matrix(1,0,0,1,-4,-4)" class="stroke_order_diagram--current_path"></path><circle cx="13.13" cy="29.98" r="8" class="stroke_order_diagram--path_start" transform="matrix(1,0,0,1,-4,-4)"></circle><line x1="150" x2="150" y1="1" y2="99" class="stroke_order_diagram--guide_line"></line><line x1="199" x2="199" y1="1" y2="99" class="stroke_order_diagram--bounding_box"></line><path id="pathSk2v596cn16hq" kvg:type="㇕c" d="M13.13,29.98c1.24,0.77,2.99,1.06,4.6,0.9c4.69-0.47,13.42-2.13,20.16-3.8c4.36-1.08,5.89,0.43,4.35,4.51c-1.09,2.89-3.12,9.53-4.82,15.88" transform="matrix(1,0,0,1,96,-4)" class="stroke_order_diagram--existing_path"></path><path id="kvg:06539-s2" kvg:type="㇐" d="M13.66,50c1.09,0.62,2.34,0.79,3.44,0.74c4.45-0.2,13.4-1.37,18.9-2.09c1.19-0.16,2.33-0.03,3.36,0.02" transform="matrix(1,0,0,1,96,-4)" class="stroke_order_diagram--current_path"></path><path id="pathSk2v596cn16hs" kvg:type="㇐" d="M13.66,50c1.09,0.62,2.34,0.79,3.44,0.74c4.45-0.2,13.4-1.37,18.9-2.09c1.19-0.16,2.33-0.03,3.36,0.02" transform="matrix(1,0,0,1,96,-4)" class="stroke_order_diagram--current_path"></path><circle cx="13.66" cy="50" r="8" class="stroke_order_diagram--path_start" transform="matrix(1,0,0,1,96,-4)"></circle><line x1="250" x2="250" y1="1" y2="99" class="stroke_order_diagram--guide_line"></line><line x1="299" x2="299" y1="1" y2="99" class="stroke_order_diagram--bounding_box"></line><path id="pathSk2v596cn16hv" kvg:type="㇕c" d="M13.13,29.98c1.24,0.77,2.99,1.06,4.6,0.9c4.69-0.47,13.42-2.13,20.16-3.8c4.36-1.08,5.89,0.43,4.35,4.51c-1.09,2.89-3.12,9.53-4.82,15.88" transform="matrix(1,0,0,1,196,-4)" class="stroke_order_diagram--existing_path"></path><path id="pathSk2v596cn16hw" kvg:type="㇐" d="M13.66,50c1.09,0.62,2.34,0.79,3.44,0.74c4.45-0.2,13.4-1.37,18.9-2.09c1.19-0.16,2.33-0.03,3.36,0.02" transform="matrix(1,0,0,1,196,-4)" class="stroke_order_diagram--existing_path"></path><path id="kvg:06539-s3" kvg:type="㇟" d="M15.04,51.02c0.72,0.72,1.07,1.73,1.07,2.92c0,8.25,0.03,11.68,0.03,16.68c0,10.12,1.24,11.4,11.31,11.4c10.3,0,12.52-1.29,12.75-8.88" transform="matrix(1,0,0,1,196,-4)" class="stroke_order_diagram--current_path"></path><path id="pathSk2v596cn16hy" kvg:type="㇟" d="M15.04,51.02c0.72,0.72,1.07,1.73,1.07,2.92c0,8.25,0.03,11.68,0.03,16.68c0,10.12,1.24,11.4,11.31,11.4c10.3,0,12.52-1.29,12.75-8.88" transform="matrix(1,0,0,1,196,-4)" class="stroke_order_diagram--current_path"></path><circle cx="15.04" cy="51.02" r="8" class="stroke_order_diagram--path_start" transform="matrix(1,0,0,1,196,-4)"></circle><line x1="350" x2="350" y1="1" y2="99" class="stroke_order_diagram--guide_line"></line><line x1="399" x2="399" y1="1" y2="99" class="stroke_order_diagram--bounding_box"></line><path id="pathSk2v596cn16i1" kvg:type="㇕c" d="M13.13,29.98c1.24,0.77,2.99,1.06,4.6,0.9c4.69-0.47,13.42-2.13,20.16-3.8c4.36-1.08,5.89,0.43,4.35,4.51c-1.09,2.89-3.12,9.53-4.82,15.88" transform="matrix(1,0,0,1,296,-4)" class="stroke_order_diagram--existing_path"></path><path id="pathSk2v596cn16i2" kvg:type="㇐" d="M13.66,50c1.09,0.62,2.34,0.79,3.44,0.74c4.45-0.2,13.4-1.37,18.9-2.09c1.19-0.16,2.33-0.03,3.36,0.02" transform="matrix(1,0,0,1,296,-4)" class="stroke_order_diagram--existing_path"></path><path id="pathSk2v596cn16i3" kvg:type="㇟" d="M15.04,51.02c0.72,0.72,1.07,1.73,1.07,2.92c0,8.25,0.03,11.68,0.03,16.68c0,10.12,1.24,11.4,11.31,11.4c10.3,0,12.52-1.29,12.75-8.88" transform="matrix(1,0,0,1,296,-4)" class="stroke_order_diagram--existing_path"></path><path id="kvg:06539-s4" kvg:type="㇒" d="M62.66,16.3c0.34,1.33,0.28,2.31-0.09,3.52c-2.36,7.73-8.16,22.98-16.32,33.68" transform="matrix(1,0,0,1,296,-4)" class="stroke_order_diagram--current_path"></path><path id="pathSk2v596cn16i5" kvg:type="㇒" d="M62.66,16.3c0.34,1.33,0.28,2.31-0.09,3.52c-2.36,7.73-8.16,22.98-16.32,33.68" transform="matrix(1,0,0,1,296,-4)" class="stroke_order_diagram--current_path"></path><circle cx="62.66" cy="16.3" r="8" class="stroke_order_diagram--path_start" transform="matrix(1,0,0,1,296,-4)"></circle><line x1="450" x2="450" y1="1" y2="99" class="stroke_order_diagram--guide_line"></line><line x1="499" x2="499" y1="1" y2="99" class="stroke_order_diagram--bounding_box"></line><path id="pathSk2v596cn16i8" kvg:type="㇕c" d="M13.13,29.98c1.24,0.77,2.99,1.06,4.6,0.9c4.69-0.47,13.42-2.13,20.16-3.8c4.36-1.08,5.89,0.43,4.35,4.51c-1.09,2.89-3.12,9.53-4.82,15.88" transform="matrix(1,0,0,1,396,-4)" class="stroke_order_diagram--existing_path"></path><path id="pathSk2v596cn16i9" kvg:type="㇐" d="M13.66,50c1.09,0.62,2.34,0.79,3.44,0.74c4.45-0.2,13.4-1.37,18.9-2.09c1.19-0.16,2.33-0.03,3.36,0.02" transform="matrix(1,0,0,1,396,-4)" class="stroke_order_diagram--existing_path"></path><path id="pathSk2v596cn16ia" kvg:type="㇟" d="M15.04,51.02c0.72,0.72,1.07,1.73,1.07,2.92c0,8.25,0.03,11.68,0.03,16.68c0,10.12,1.24,11.4,11.31,11.4c10.3,0,12.52-1.29,12.75-8.88" transform="matrix(1,0,0,1,396,-4)" class="stroke_order_diagram--existing_path"></path><path id="pathSk2v596cn16ib" kvg:type="㇒" d="M62.66,16.3c0.34,1.33,0.28,2.31-0.09,3.52c-2.36,7.73-8.16,22.98-16.32,33.68" transform="matrix(1,0,0,1,396,-4)" class="stroke_order_diagram--existing_path"></path><path id="kvg:06539-s5" kvg:type="㇐" d="M59.81,36.74c1.57,0.26,2.79,0.03,3.51-0.07c5.53-0.79,15.31-2.47,22.19-3.63c1.76-0.3,3.49-0.46,5.27-0.19" transform="matrix(1,0,0,1,396,-4)" class="stroke_order_diagram--current_path"></path><path id="pathSk2v596cn16id" kvg:type="㇐" d="M59.81,36.74c1.57,0.26,2.79,0.03,3.51-0.07c5.53-0.79,15.31-2.47,22.19-3.63c1.76-0.3,3.49-0.46,5.27-0.19" transform="matrix(1,0,0,1,396,-4)" class="stroke_order_diagram--current_path"></path><circle cx="59.81" cy="36.74" r="8" class="stroke_order_diagram--path_start" transform="matrix(1,0,0,1,396,-4)"></circle><line x1="550" x2="550" y1="1" y2="99" class="stroke_order_diagram--guide_line"></line><line x1="599" x2="599" y1="1" y2="99" class="stroke_order_diagram--bounding_box"></line><path id="pathSk2v596cn16ig" kvg:type="㇕c" d="M13.13,29.98c1.24,0.77,2.99,1.06,4.6,0.9c4.69-0.47,13.42-2.13,20.16-3.8c4.36-1.08,5.89,0.43,4.35,4.51c-1.09,2.89-3.12,9.53-4.82,15.88" transform="matrix(1,0,0,1,496,-4)" class="stroke_order_diagram--existing_path"></path><path id="pathSk2v596cn16ih" kvg:type="㇐" d="M13.66,50c1.09,0.62,2.34,0.79,3.44,0.74c4.45-0.2,13.4-1.37,18.9-2.09c1.19-0.16,2.33-0.03,3.36,0.02" transform="matrix(1,0,0,1,496,-4)" class="stroke_order_diagram--existing_path"></path><path id="pathSk2v596cn16ii" kvg:type="㇟" d="M15.04,51.02c0.72,0.72,1.07,1.73,1.07,2.92c0,8.25,0.03,11.68,0.03,16.68c0,10.12,1.24,11.4,11.31,11.4c10.3,0,12.52-1.29,12.75-8.88" transform="matrix(1,0,0,1,496,-4)" class="stroke_order_diagram--existing_path"></path><path id="pathSk2v596cn16ij" kvg:type="㇒" d="M62.66,16.3c0.34,1.33,0.28,2.31-0.09,3.52c-2.36,7.73-8.16,22.98-16.32,33.68" transform="matrix(1,0,0,1,496,-4)" class="stroke_order_diagram--existing_path"></path><path id="pathSk2v596cn16ik" kvg:type="㇐" d="M59.81,36.74c1.57,0.26,2.79,0.03,3.51-0.07c5.53-0.79,15.31-2.47,22.19-3.63c1.76-0.3,3.49-0.46,5.27-0.19" transform="matrix(1,0,0,1,496,-4)" class="stroke_order_diagram--existing_path"></path><path id="kvg:06539-s6" kvg:type="㇒" d="M78.81,37.89c0.44,1.36,0.68,2.86-0.18,5.26C71.5,63,58.88,82.62,39.88,93.12" transform="matrix(1,0,0,1,496,-4)" class="stroke_order_diagram--current_path"></path><path id="pathSk2v596cn16im" kvg:type="㇒" d="M78.81,37.89c0.44,1.36,0.68,2.86-0.18,5.26C71.5,63,58.88,82.62,39.88,93.12" transform="matrix(1,0,0,1,496,-4)" class="stroke_order_diagram--current_path"></path><circle cx="78.81" cy="37.89" r="8" class="stroke_order_diagram--path_start" transform="matrix(1,0,0,1,496,-4)"></circle><line x1="650" x2="650" y1="1" y2="99" class="stroke_order_diagram--guide_line"></line><line x1="699" x2="699" y1="1" y2="99" class="stroke_order_diagram--bounding_box"></line><path id="pathSk2v596cn16ip" kvg:type="㇕c" d="M13.13,29.98c1.24,0.77,2.99,1.06,4.6,0.9c4.69-0.47,13.42-2.13,20.16-3.8c4.36-1.08,5.89,0.43,4.35,4.51c-1.09,2.89-3.12,9.53-4.82,15.88" transform="matrix(1,0,0,1,596,-4)" class="stroke_order_diagram--existing_path"></path><path id="pathSk2v596cn16iq" kvg:type="㇐" d="M13.66,50c1.09,0.62,2.34,0.79,3.44,0.74c4.45-0.2,13.4-1.37,18.9-2.09c1.19-0.16,2.33-0.03,3.36,0.02" transform="matrix(1,0,0,1,596,-4)" class="stroke_order_diagram--existing_path"></path><path id="pathSk2v596cn16ir" kvg:type="㇟" d="M15.04,51.02c0.72,0.72,1.07,1.73,1.07,2.92c0,8.25,0.03,11.68,0.03,16.68c0,10.12,1.24,11.4,11.31,11.4c10.3,0,12.52-1.29,12.75-8.88" transform="matrix(1,0,0,1,596,-4)" class="stroke_order_diagram--existing_path"></path><path id="pathSk2v596cn16is" kvg:type="㇒" d="M62.66,16.3c0.34,1.33,0.28,2.31-0.09,3.52c-2.36,7.73-8.16,22.98-16.32,33.68" transform="matrix(1,0,0,1,596,-4)" class="stroke_order_diagram--existing_path"></path><path id="pathSk2v596cn16it" kvg:type="㇐" d="M59.81,36.74c1.57,0.26,2.79,0.03,3.51-0.07c5.53-0.79,15.31-2.47,22.19-3.63c1.76-0.3,3.49-0.46,5.27-0.19" transform="matrix(1,0,0,1,596,-4)" class="stroke_order_diagram--existing_path"></path><path id="pathSk2v596cn16iu" kvg:type="㇒" d="M78.81,37.89c0.44,1.36,0.68,2.86-0.18,5.26C71.5,63,58.88,82.62,39.88,93.12" transform="matrix(1,0,0,1,596,-4)" class="stroke_order_diagram--existing_path"></path><path id="kvg:06539-s7" kvg:type="㇏" d="M54.56,52.34c3.73,0.29,21.17,24.37,33.3,34.27c2.31,1.89,4.86,3.89,7.89,4.39" transform="matrix(1,0,0,1,596,-4)" class="stroke_order_diagram--current_path"></path><path id="pathSk2v596cn16iw" kvg:type="㇏" d="M54.56,52.34c3.73,0.29,21.17,24.37,33.3,34.27c2.31,1.89,4.86,3.89,7.89,4.39" transform="matrix(1,0,0,1,596,-4)" class="stroke_order_diagram--current_path"></path><circle cx="54.56" cy="52.34" r="8" class="stroke_order_diagram--path_start" transform="matrix(1,0,0,1,596,-4)"></circle></svg>