<svg style="width: 1500px; height: 100px;" viewbox="0 0 1500 100"><style>
.stroke_order_diagram--outer_container {
  width: 100%;
  overflow-x: auto;
  overflow-y: hidden;
}

.stroke_order_diagram--guide_line {
  fill: none;
  stroke: #ddd;
  stroke-width: 3;
  stroke-linecap: square;
  stroke-linejoin: square;
  stroke-dasharray:8, 8;
}

.stroke_order_diagram--bounding_box {
  fill: none;
  stroke: #ddd;
  stroke-width: 4;
  stroke-linecap: square;
  stroke-linejoin: square;
}

.stroke_order_diagram--current_path {
  fill: none;
  stroke: #000;
  stroke-width: 6;
  stroke-linecap: round;
  stroke-linejoin: round;
}

.stroke_order_diagram--existing_path {
  fill: none;
  stroke: #aaa;
  stroke-width: 6;
  stroke-linecap: round;
  stroke-linejoin:round;
}

.stroke_order_diagram--path_start {
  fill: rgba(255, 0, 0, 0.7);
  stroke:none
}</style><desc>Created with Snap</desc><defs></defs><line x1="1" x2="1499" y1="1" y2="1" class="stroke_order_diagram--bounding_box"></line><line x1="1" x2="1" y1="1" y2="99" class="stroke_order_diagram--bounding_box"></line><line x1="1" x2="1499" y1="99" y2="99" class="stroke_order_diagram--bounding_box"></line><line x1="0" x2="1500" y1="50" y2="50" class="stroke_order_diagram--guide_line"></line><line x1="50" x2="50" y1="1" y2="99" class="stroke_order_diagram--guide_line"></line><line x1="99" x2="99" y1="1" y2="99" class="stroke_order_diagram--bounding_box"></line><path id="kvg:06575-s1" kvg:type="㇑a" d="M29.75,13.75c1,0.75,1.5,2,1.5,3.75s0,4.88,0,8" transform="matrix(1,0,0,1,-4,-4)" class="stroke_order_diagram--current_path"></path><path id="pathSk2v596cn1btd" kvg:type="㇑a" d="M29.75,13.75c1,0.75,1.5,2,1.5,3.75s0,4.88,0,8" transform="matrix(1,0,0,1,-4,-4)" class="stroke_order_diagram--current_path"></path><circle cx="29.75" cy="13.75" r="8" class="stroke_order_diagram--path_start" transform="matrix(1,0,0,1,-4,-4)"></circle><line x1="150" x2="150" y1="1" y2="99" class="stroke_order_diagram--guide_line"></line><line x1="199" x2="199" y1="1" y2="99" class="stroke_order_diagram--bounding_box"></line><path id="pathSk2v596cn1btg" kvg:type="㇑a" d="M29.75,13.75c1,0.75,1.5,2,1.5,3.75s0,4.88,0,8" transform="matrix(1,0,0,1,96,-4)" class="stroke_order_diagram--existing_path"></path><path id="kvg:06575-s2" kvg:type="㇐" d="M11,28.45c2.38,0.42,4.46,0.37,6.62,0.09c7.76-1.04,20.11-2.9,28.88-3.43c2.1-0.13,4.25-0.23,6.25-0.02" transform="matrix(1,0,0,1,96,-4)" class="stroke_order_diagram--current_path"></path><path id="pathSk2v596cn1bti" kvg:type="㇐" d="M11,28.45c2.38,0.42,4.46,0.37,6.62,0.09c7.76-1.04,20.11-2.9,28.88-3.43c2.1-0.13,4.25-0.23,6.25-0.02" transform="matrix(1,0,0,1,96,-4)" class="stroke_order_diagram--current_path"></path><circle cx="11" cy="28.45" r="8" class="stroke_order_diagram--path_start" transform="matrix(1,0,0,1,96,-4)"></circle><line x1="250" x2="250" y1="1" y2="99" class="stroke_order_diagram--guide_line"></line><line x1="299" x2="299" y1="1" y2="99" class="stroke_order_diagram--bounding_box"></line><path id="pathSk2v596cn1btl" kvg:type="㇑a" d="M29.75,13.75c1,0.75,1.5,2,1.5,3.75s0,4.88,0,8" transform="matrix(1,0,0,1,196,-4)" class="stroke_order_diagram--existing_path"></path><path id="pathSk2v596cn1btm" kvg:type="㇐" d="M11,28.45c2.38,0.42,4.46,0.37,6.62,0.09c7.76-1.04,20.11-2.9,28.88-3.43c2.1-0.13,4.25-0.23,6.25-0.02" transform="matrix(1,0,0,1,196,-4)" class="stroke_order_diagram--existing_path"></path><path id="kvg:06575-s3" kvg:type="㇔" d="M19.88,31.5c2.83,3.73,4.12,7.54,4.38,10" transform="matrix(1,0,0,1,196,-4)" class="stroke_order_diagram--current_path"></path><path id="pathSk2v596cn1bto" kvg:type="㇔" d="M19.88,31.5c2.83,3.73,4.12,7.54,4.38,10" transform="matrix(1,0,0,1,196,-4)" class="stroke_order_diagram--current_path"></path><circle cx="19.88" cy="31.5" r="8" class="stroke_order_diagram--path_start" transform="matrix(1,0,0,1,196,-4)"></circle><line x1="350" x2="350" y1="1" y2="99" class="stroke_order_diagram--guide_line"></line><line x1="399" x2="399" y1="1" y2="99" class="stroke_order_diagram--bounding_box"></line><path id="pathSk2v596cn1btr" kvg:type="㇑a" d="M29.75,13.75c1,0.75,1.5,2,1.5,3.75s0,4.88,0,8" transform="matrix(1,0,0,1,296,-4)" class="stroke_order_diagram--existing_path"></path><path id="pathSk2v596cn1bts" kvg:type="㇐" d="M11,28.45c2.38,0.42,4.46,0.37,6.62,0.09c7.76-1.04,20.11-2.9,28.88-3.43c2.1-0.13,4.25-0.23,6.25-0.02" transform="matrix(1,0,0,1,296,-4)" class="stroke_order_diagram--existing_path"></path><path id="pathSk2v596cn1btt" kvg:type="㇔" d="M19.88,31.5c2.83,3.73,4.12,7.54,4.38,10" transform="matrix(1,0,0,1,296,-4)" class="stroke_order_diagram--existing_path"></path><path id="kvg:06575-s4" kvg:type="㇒" d="M41.73,28.5c0.27,0.75,0.18,1.63,0.04,1.94c-1.4,3.18-3.69,8.06-4.78,9.81" transform="matrix(1,0,0,1,296,-4)" class="stroke_order_diagram--current_path"></path><path id="pathSk2v596cn1btv" kvg:type="㇒" d="M41.73,28.5c0.27,0.75,0.18,1.63,0.04,1.94c-1.4,3.18-3.69,8.06-4.78,9.81" transform="matrix(1,0,0,1,296,-4)" class="stroke_order_diagram--current_path"></path><circle cx="41.73" cy="28.5" r="8" class="stroke_order_diagram--path_start" transform="matrix(1,0,0,1,296,-4)"></circle><line x1="450" x2="450" y1="1" y2="99" class="stroke_order_diagram--guide_line"></line><line x1="499" x2="499" y1="1" y2="99" class="stroke_order_diagram--bounding_box"></line><path id="pathSk2v596cn1bty" kvg:type="㇑a" d="M29.75,13.75c1,0.75,1.5,2,1.5,3.75s0,4.88,0,8" transform="matrix(1,0,0,1,396,-4)" class="stroke_order_diagram--existing_path"></path><path id="pathSk2v596cn1btz" kvg:type="㇐" d="M11,28.45c2.38,0.42,4.46,0.37,6.62,0.09c7.76-1.04,20.11-2.9,28.88-3.43c2.1-0.13,4.25-0.23,6.25-0.02" transform="matrix(1,0,0,1,396,-4)" class="stroke_order_diagram--existing_path"></path><path id="pathSk2v596cn1bu0" kvg:type="㇔" d="M19.88,31.5c2.83,3.73,4.12,7.54,4.38,10" transform="matrix(1,0,0,1,396,-4)" class="stroke_order_diagram--existing_path"></path><path id="pathSk2v596cn1bu1" kvg:type="㇒" d="M41.73,28.5c0.27,0.75,0.18,1.63,0.04,1.94c-1.4,3.18-3.69,8.06-4.78,9.81" transform="matrix(1,0,0,1,396,-4)" class="stroke_order_diagram--existing_path"></path><path id="kvg:06575-s5" kvg:type="㇑" d="M12,43.73c0.88,0.88,1.42,2.25,1.29,3.63c-0.11,1.1,0.04,26.93,0.11,38.64c0.02,2.98,0.03,5.03,0.03,5.5" transform="matrix(1,0,0,1,396,-4)" class="stroke_order_diagram--current_path"></path><path id="pathSk2v596cn1bu3" kvg:type="㇑" d="M12,43.73c0.88,0.88,1.42,2.25,1.29,3.63c-0.11,1.1,0.04,26.93,0.11,38.64c0.02,2.98,0.03,5.03,0.03,5.5" transform="matrix(1,0,0,1,396,-4)" class="stroke_order_diagram--current_path"></path><circle cx="12" cy="43.73" r="8" class="stroke_order_diagram--path_start" transform="matrix(1,0,0,1,396,-4)"></circle><line x1="550" x2="550" y1="1" y2="99" class="stroke_order_diagram--guide_line"></line><line x1="599" x2="599" y1="1" y2="99" class="stroke_order_diagram--bounding_box"></line><path id="pathSk2v596cn1bu6" kvg:type="㇑a" d="M29.75,13.75c1,0.75,1.5,2,1.5,3.75s0,4.88,0,8" transform="matrix(1,0,0,1,496,-4)" class="stroke_order_diagram--existing_path"></path><path id="pathSk2v596cn1bu7" kvg:type="㇐" d="M11,28.45c2.38,0.42,4.46,0.37,6.62,0.09c7.76-1.04,20.11-2.9,28.88-3.43c2.1-0.13,4.25-0.23,6.25-0.02" transform="matrix(1,0,0,1,496,-4)" class="stroke_order_diagram--existing_path"></path><path id="pathSk2v596cn1bu8" kvg:type="㇔" d="M19.88,31.5c2.83,3.73,4.12,7.54,4.38,10" transform="matrix(1,0,0,1,496,-4)" class="stroke_order_diagram--existing_path"></path><path id="pathSk2v596cn1bu9" kvg:type="㇒" d="M41.73,28.5c0.27,0.75,0.18,1.63,0.04,1.94c-1.4,3.18-3.69,8.06-4.78,9.81" transform="matrix(1,0,0,1,496,-4)" class="stroke_order_diagram--existing_path"></path><path id="pathSk2v596cn1bua" kvg:type="㇑" d="M12,43.73c0.88,0.88,1.42,2.25,1.29,3.63c-0.11,1.1,0.04,26.93,0.11,38.64c0.02,2.98,0.03,5.03,0.03,5.5" transform="matrix(1,0,0,1,496,-4)" class="stroke_order_diagram--existing_path"></path><path id="kvg:06575-s6" kvg:type="㇆a" d="M14.54,45.52c5.09-0.61,23.59-2.9,32.75-4.07c2.17-0.28,3.48,0.3,3.48,2.59c0,1.29,0.1,41.09,0.1,44.62c0,7.96-4.62,1.84-6.63-0.08" transform="matrix(1,0,0,1,496,-4)" class="stroke_order_diagram--current_path"></path><path id="pathSk2v596cn1buc" kvg:type="㇆a" d="M14.54,45.52c5.09-0.61,23.59-2.9,32.75-4.07c2.17-0.28,3.48,0.3,3.48,2.59c0,1.29,0.1,41.09,0.1,44.62c0,7.96-4.62,1.84-6.63-0.08" transform="matrix(1,0,0,1,496,-4)" class="stroke_order_diagram--current_path"></path><circle cx="14.54" cy="45.52" r="8" class="stroke_order_diagram--path_start" transform="matrix(1,0,0,1,496,-4)"></circle><line x1="650" x2="650" y1="1" y2="99" class="stroke_order_diagram--guide_line"></line><line x1="699" x2="699" y1="1" y2="99" class="stroke_order_diagram--bounding_box"></line><path id="pathSk2v596cn1buf" kvg:type="㇑a" d="M29.75,13.75c1,0.75,1.5,2,1.5,3.75s0,4.88,0,8" transform="matrix(1,0,0,1,596,-4)" class="stroke_order_diagram--existing_path"></path><path id="pathSk2v596cn1bug" kvg:type="㇐" d="M11,28.45c2.38,0.42,4.46,0.37,6.62,0.09c7.76-1.04,20.11-2.9,28.88-3.43c2.1-0.13,4.25-0.23,6.25-0.02" transform="matrix(1,0,0,1,596,-4)" class="stroke_order_diagram--existing_path"></path><path id="pathSk2v596cn1buh" kvg:type="㇔" d="M19.88,31.5c2.83,3.73,4.12,7.54,4.38,10" transform="matrix(1,0,0,1,596,-4)" class="stroke_order_diagram--existing_path"></path><path id="pathSk2v596cn1bui" kvg:type="㇒" d="M41.73,28.5c0.27,0.75,0.18,1.63,0.04,1.94c-1.4,3.18-3.69,8.06-4.78,9.81" transform="matrix(1,0,0,1,596,-4)" class="stroke_order_diagram--existing_path"></path><path id="pathSk2v596cn1buj" kvg:type="㇑" d="M12,43.73c0.88,0.88,1.42,2.25,1.29,3.63c-0.11,1.1,0.04,26.93,0.11,38.64c0.02,2.98,0.03,5.03,0.03,5.5" transform="matrix(1,0,0,1,596,-4)" class="stroke_order_diagram--existing_path"></path><path id="pathSk2v596cn1buk" kvg:type="㇆a" d="M14.54,45.52c5.09-0.61,23.59-2.9,32.75-4.07c2.17-0.28,3.48,0.3,3.48,2.59c0,1.29,0.1,41.09,0.1,44.62c0,7.96-4.62,1.84-6.63-0.08" transform="matrix(1,0,0,1,596,-4)" class="stroke_order_diagram--existing_path"></path><path id="kvg:06575-s7" kvg:type="㇐" d="M19,55.31c1.4,0.48,2.73,0.5,4.16,0.3c4.43-0.59,12.76-1.88,17.6-2.21c0.9-0.06,2.51-0.28,3.5-0.08" transform="matrix(1,0,0,1,596,-4)" class="stroke_order_diagram--current_path"></path><path id="pathSk2v596cn1bum" kvg:type="㇐" d="M19,55.31c1.4,0.48,2.73,0.5,4.16,0.3c4.43-0.59,12.76-1.88,17.6-2.21c0.9-0.06,2.51-0.28,3.5-0.08" transform="matrix(1,0,0,1,596,-4)" class="stroke_order_diagram--current_path"></path><circle cx="19" cy="55.31" r="8" class="stroke_order_diagram--path_start" transform="matrix(1,0,0,1,596,-4)"></circle><line x1="750" x2="750" y1="1" y2="99" class="stroke_order_diagram--guide_line"></line><line x1="799" x2="799" y1="1" y2="99" class="stroke_order_diagram--bounding_box"></line><path id="pathSk2v596cn1bup" kvg:type="㇑a" d="M29.75,13.75c1,0.75,1.5,2,1.5,3.75s0,4.88,0,8" transform="matrix(1,0,0,1,696,-4)" class="stroke_order_diagram--existing_path"></path><path id="pathSk2v596cn1buq" kvg:type="㇐" d="M11,28.45c2.38,0.42,4.46,0.37,6.62,0.09c7.76-1.04,20.11-2.9,28.88-3.43c2.1-0.13,4.25-0.23,6.25-0.02" transform="matrix(1,0,0,1,696,-4)" class="stroke_order_diagram--existing_path"></path><path id="pathSk2v596cn1bur" kvg:type="㇔" d="M19.88,31.5c2.83,3.73,4.12,7.54,4.38,10" transform="matrix(1,0,0,1,696,-4)" class="stroke_order_diagram--existing_path"></path><path id="pathSk2v596cn1bus" kvg:type="㇒" d="M41.73,28.5c0.27,0.75,0.18,1.63,0.04,1.94c-1.4,3.18-3.69,8.06-4.78,9.81" transform="matrix(1,0,0,1,696,-4)" class="stroke_order_diagram--existing_path"></path><path id="pathSk2v596cn1but" kvg:type="㇑" d="M12,43.73c0.88,0.88,1.42,2.25,1.29,3.63c-0.11,1.1,0.04,26.93,0.11,38.64c0.02,2.98,0.03,5.03,0.03,5.5" transform="matrix(1,0,0,1,696,-4)" class="stroke_order_diagram--existing_path"></path><path id="pathSk2v596cn1buu" kvg:type="㇆a" d="M14.54,45.52c5.09-0.61,23.59-2.9,32.75-4.07c2.17-0.28,3.48,0.3,3.48,2.59c0,1.29,0.1,41.09,0.1,44.62c0,7.96-4.62,1.84-6.63-0.08" transform="matrix(1,0,0,1,696,-4)" class="stroke_order_diagram--existing_path"></path><path id="pathSk2v596cn1buv" kvg:type="㇐" d="M19,55.31c1.4,0.48,2.73,0.5,4.16,0.3c4.43-0.59,12.76-1.88,17.6-2.21c0.9-0.06,2.51-0.28,3.5-0.08" transform="matrix(1,0,0,1,696,-4)" class="stroke_order_diagram--existing_path"></path><path id="kvg:06575-s8" kvg:type="㇑a" d="M30.2,46.75c1.02,1.02,1.5,2.25,1.5,3.88c0,6.12,0.17,9.74,0.17,14.3" transform="matrix(1,0,0,1,696,-4)" class="stroke_order_diagram--current_path"></path><path id="pathSk2v596cn1bux" kvg:type="㇑a" d="M30.2,46.75c1.02,1.02,1.5,2.25,1.5,3.88c0,6.12,0.17,9.74,0.17,14.3" transform="matrix(1,0,0,1,696,-4)" class="stroke_order_diagram--current_path"></path><circle cx="30.2" cy="46.75" r="8" class="stroke_order_diagram--path_start" transform="matrix(1,0,0,1,696,-4)"></circle><line x1="850" x2="850" y1="1" y2="99" class="stroke_order_diagram--guide_line"></line><line x1="899" x2="899" y1="1" y2="99" class="stroke_order_diagram--bounding_box"></line><path id="pathSk2v596cn1bv0" kvg:type="㇑a" d="M29.75,13.75c1,0.75,1.5,2,1.5,3.75s0,4.88,0,8" transform="matrix(1,0,0,1,796,-4)" class="stroke_order_diagram--existing_path"></path><path id="pathSk2v596cn1bv1" kvg:type="㇐" d="M11,28.45c2.38,0.42,4.46,0.37,6.62,0.09c7.76-1.04,20.11-2.9,28.88-3.43c2.1-0.13,4.25-0.23,6.25-0.02" transform="matrix(1,0,0,1,796,-4)" class="stroke_order_diagram--existing_path"></path><path id="pathSk2v596cn1bv2" kvg:type="㇔" d="M19.88,31.5c2.83,3.73,4.12,7.54,4.38,10" transform="matrix(1,0,0,1,796,-4)" class="stroke_order_diagram--existing_path"></path><path id="pathSk2v596cn1bv3" kvg:type="㇒" d="M41.73,28.5c0.27,0.75,0.18,1.63,0.04,1.94c-1.4,3.18-3.69,8.06-4.78,9.81" transform="matrix(1,0,0,1,796,-4)" class="stroke_order_diagram--existing_path"></path><path id="pathSk2v596cn1bv4" kvg:type="㇑" d="M12,43.73c0.88,0.88,1.42,2.25,1.29,3.63c-0.11,1.1,0.04,26.93,0.11,38.64c0.02,2.98,0.03,5.03,0.03,5.5" transform="matrix(1,0,0,1,796,-4)" class="stroke_order_diagram--existing_path"></path><path id="pathSk2v596cn1bv5" kvg:type="㇆a" d="M14.54,45.52c5.09-0.61,23.59-2.9,32.75-4.07c2.17-0.28,3.48,0.3,3.48,2.59c0,1.29,0.1,41.09,0.1,44.62c0,7.96-4.62,1.84-6.63-0.08" transform="matrix(1,0,0,1,796,-4)" class="stroke_order_diagram--existing_path"></path><path id="pathSk2v596cn1bv6" kvg:type="㇐" d="M19,55.31c1.4,0.48,2.73,0.5,4.16,0.3c4.43-0.59,12.76-1.88,17.6-2.21c0.9-0.06,2.51-0.28,3.5-0.08" transform="matrix(1,0,0,1,796,-4)" class="stroke_order_diagram--existing_path"></path><path id="pathSk2v596cn1bv7" kvg:type="㇑a" d="M30.2,46.75c1.02,1.02,1.5,2.25,1.5,3.88c0,6.12,0.17,9.74,0.17,14.3" transform="matrix(1,0,0,1,796,-4)" class="stroke_order_diagram--existing_path"></path><path id="kvg:06575-s9" kvg:type="㇑" d="M21.69,66.54c0.82,0.82,1.06,1.71,1.36,3.22c0.4,2.03,1.22,4.91,1.71,7.95c0.22,1.39,0.42,2.7,0.56,3.79" transform="matrix(1,0,0,1,796,-4)" class="stroke_order_diagram--current_path"></path><path id="pathSk2v596cn1bv9" kvg:type="㇑" d="M21.69,66.54c0.82,0.82,1.06,1.71,1.36,3.22c0.4,2.03,1.22,4.91,1.71,7.95c0.22,1.39,0.42,2.7,0.56,3.79" transform="matrix(1,0,0,1,796,-4)" class="stroke_order_diagram--current_path"></path><circle cx="21.69" cy="66.54" r="8" class="stroke_order_diagram--path_start" transform="matrix(1,0,0,1,796,-4)"></circle><line x1="950" x2="950" y1="1" y2="99" class="stroke_order_diagram--guide_line"></line><line x1="999" x2="999" y1="1" y2="99" class="stroke_order_diagram--bounding_box"></line><path id="pathSk2v596cn1bvc" kvg:type="㇑a" d="M29.75,13.75c1,0.75,1.5,2,1.5,3.75s0,4.88,0,8" transform="matrix(1,0,0,1,896,-4)" class="stroke_order_diagram--existing_path"></path><path id="pathSk2v596cn1bvd" kvg:type="㇐" d="M11,28.45c2.38,0.42,4.46,0.37,6.62,0.09c7.76-1.04,20.11-2.9,28.88-3.43c2.1-0.13,4.25-0.23,6.25-0.02" transform="matrix(1,0,0,1,896,-4)" class="stroke_order_diagram--existing_path"></path><path id="pathSk2v596cn1bve" kvg:type="㇔" d="M19.88,31.5c2.83,3.73,4.12,7.54,4.38,10" transform="matrix(1,0,0,1,896,-4)" class="stroke_order_diagram--existing_path"></path><path id="pathSk2v596cn1bvf" kvg:type="㇒" d="M41.73,28.5c0.27,0.75,0.18,1.63,0.04,1.94c-1.4,3.18-3.69,8.06-4.78,9.81" transform="matrix(1,0,0,1,896,-4)" class="stroke_order_diagram--existing_path"></path><path id="pathSk2v596cn1bvg" kvg:type="㇑" d="M12,43.73c0.88,0.88,1.42,2.25,1.29,3.63c-0.11,1.1,0.04,26.93,0.11,38.64c0.02,2.98,0.03,5.03,0.03,5.5" transform="matrix(1,0,0,1,896,-4)" class="stroke_order_diagram--existing_path"></path><path id="pathSk2v596cn1bvh" kvg:type="㇆a" d="M14.54,45.52c5.09-0.61,23.59-2.9,32.75-4.07c2.17-0.28,3.48,0.3,3.48,2.59c0,1.29,0.1,41.09,0.1,44.62c0,7.96-4.62,1.84-6.63-0.08" transform="matrix(1,0,0,1,896,-4)" class="stroke_order_diagram--existing_path"></path><path id="pathSk2v596cn1bvi" kvg:type="㇐" d="M19,55.31c1.4,0.48,2.73,0.5,4.16,0.3c4.43-0.59,12.76-1.88,17.6-2.21c0.9-0.06,2.51-0.28,3.5-0.08" transform="matrix(1,0,0,1,896,-4)" class="stroke_order_diagram--existing_path"></path><path id="pathSk2v596cn1bvj" kvg:type="㇑a" d="M30.2,46.75c1.02,1.02,1.5,2.25,1.5,3.88c0,6.12,0.17,9.74,0.17,14.3" transform="matrix(1,0,0,1,896,-4)" class="stroke_order_diagram--existing_path"></path><path id="pathSk2v596cn1bvk" kvg:type="㇑" d="M21.69,66.54c0.82,0.82,1.06,1.71,1.36,3.22c0.4,2.03,1.22,4.91,1.71,7.95c0.22,1.39,0.42,2.7,0.56,3.79" transform="matrix(1,0,0,1,896,-4)" class="stroke_order_diagram--existing_path"></path><path id="kvg:06575-s10" kvg:type="㇕b" d="M23.21,67.17c5.16-0.8,12.66-1.8,16.62-2.35c1.18-0.16,2.04,0.67,1.73,2.01c-0.57,2.44-1.66,5.7-2.31,8.98" transform="matrix(1,0,0,1,896,-4)" class="stroke_order_diagram--current_path"></path><path id="pathSk2v596cn1bvm" kvg:type="㇕b" d="M23.21,67.17c5.16-0.8,12.66-1.8,16.62-2.35c1.18-0.16,2.04,0.67,1.73,2.01c-0.57,2.44-1.66,5.7-2.31,8.98" transform="matrix(1,0,0,1,896,-4)" class="stroke_order_diagram--current_path"></path><circle cx="23.21" cy="67.17" r="8" class="stroke_order_diagram--path_start" transform="matrix(1,0,0,1,896,-4)"></circle><line x1="1050" x2="1050" y1="1" y2="99" class="stroke_order_diagram--guide_line"></line><line x1="1099" x2="1099" y1="1" y2="99" class="stroke_order_diagram--bounding_box"></line><path id="pathSk2v596cn1bvp" kvg:type="㇑a" d="M29.75,13.75c1,0.75,1.5,2,1.5,3.75s0,4.88,0,8" transform="matrix(1,0,0,1,996,-4)" class="stroke_order_diagram--existing_path"></path><path id="pathSk2v596cn1bvq" kvg:type="㇐" d="M11,28.45c2.38,0.42,4.46,0.37,6.62,0.09c7.76-1.04,20.11-2.9,28.88-3.43c2.1-0.13,4.25-0.23,6.25-0.02" transform="matrix(1,0,0,1,996,-4)" class="stroke_order_diagram--existing_path"></path><path id="pathSk2v596cn1bvr" kvg:type="㇔" d="M19.88,31.5c2.83,3.73,4.12,7.54,4.38,10" transform="matrix(1,0,0,1,996,-4)" class="stroke_order_diagram--existing_path"></path><path id="pathSk2v596cn1bvs" kvg:type="㇒" d="M41.73,28.5c0.27,0.75,0.18,1.63,0.04,1.94c-1.4,3.18-3.69,8.06-4.78,9.81" transform="matrix(1,0,0,1,996,-4)" class="stroke_order_diagram--existing_path"></path><path id="pathSk2v596cn1bvt" kvg:type="㇑" d="M12,43.73c0.88,0.88,1.42,2.25,1.29,3.63c-0.11,1.1,0.04,26.93,0.11,38.64c0.02,2.98,0.03,5.03,0.03,5.5" transform="matrix(1,0,0,1,996,-4)" class="stroke_order_diagram--existing_path"></path><path id="pathSk2v596cn1bvu" kvg:type="㇆a" d="M14.54,45.52c5.09-0.61,23.59-2.9,32.75-4.07c2.17-0.28,3.48,0.3,3.48,2.59c0,1.29,0.1,41.09,0.1,44.62c0,7.96-4.62,1.84-6.63-0.08" transform="matrix(1,0,0,1,996,-4)" class="stroke_order_diagram--existing_path"></path><path id="pathSk2v596cn1bvv" kvg:type="㇐" d="M19,55.31c1.4,0.48,2.73,0.5,4.16,0.3c4.43-0.59,12.76-1.88,17.6-2.21c0.9-0.06,2.51-0.28,3.5-0.08" transform="matrix(1,0,0,1,996,-4)" class="stroke_order_diagram--existing_path"></path><path id="pathSk2v596cn1bvw" kvg:type="㇑a" d="M30.2,46.75c1.02,1.02,1.5,2.25,1.5,3.88c0,6.12,0.17,9.74,0.17,14.3" transform="matrix(1,0,0,1,996,-4)" class="stroke_order_diagram--existing_path"></path><path id="pathSk2v596cn1bvx" kvg:type="㇑" d="M21.69,66.54c0.82,0.82,1.06,1.71,1.36,3.22c0.4,2.03,1.22,4.91,1.71,7.95c0.22,1.39,0.42,2.7,0.56,3.79" transform="matrix(1,0,0,1,996,-4)" class="stroke_order_diagram--existing_path"></path><path id="pathSk2v596cn1bvy" kvg:type="㇕b" d="M23.21,67.17c5.16-0.8,12.66-1.8,16.62-2.35c1.18-0.16,2.04,0.67,1.73,2.01c-0.57,2.44-1.66,5.7-2.31,8.98" transform="matrix(1,0,0,1,996,-4)" class="stroke_order_diagram--existing_path"></path><path id="kvg:06575-s11" kvg:type="㇐b" d="M26.04,78.4c2.76-0.14,7.14-0.77,11.25-1.24c1.09-0.13,2.11-0.22,2.99-0.27" transform="matrix(1,0,0,1,996,-4)" class="stroke_order_diagram--current_path"></path><path id="pathSk2v596cn1bw0" kvg:type="㇐b" d="M26.04,78.4c2.76-0.14,7.14-0.77,11.25-1.24c1.09-0.13,2.11-0.22,2.99-0.27" transform="matrix(1,0,0,1,996,-4)" class="stroke_order_diagram--current_path"></path><circle cx="26.04" cy="78.4" r="8" class="stroke_order_diagram--path_start" transform="matrix(1,0,0,1,996,-4)"></circle><line x1="1150" x2="1150" y1="1" y2="99" class="stroke_order_diagram--guide_line"></line><line x1="1199" x2="1199" y1="1" y2="99" class="stroke_order_diagram--bounding_box"></line><path id="pathSk2v596cn1bw3" kvg:type="㇑a" d="M29.75,13.75c1,0.75,1.5,2,1.5,3.75s0,4.88,0,8" transform="matrix(1,0,0,1,1096,-4)" class="stroke_order_diagram--existing_path"></path><path id="pathSk2v596cn1bw4" kvg:type="㇐" d="M11,28.45c2.38,0.42,4.46,0.37,6.62,0.09c7.76-1.04,20.11-2.9,28.88-3.43c2.1-0.13,4.25-0.23,6.25-0.02" transform="matrix(1,0,0,1,1096,-4)" class="stroke_order_diagram--existing_path"></path><path id="pathSk2v596cn1bw5" kvg:type="㇔" d="M19.88,31.5c2.83,3.73,4.12,7.54,4.38,10" transform="matrix(1,0,0,1,1096,-4)" class="stroke_order_diagram--existing_path"></path><path id="pathSk2v596cn1bw6" kvg:type="㇒" d="M41.73,28.5c0.27,0.75,0.18,1.63,0.04,1.94c-1.4,3.18-3.69,8.06-4.78,9.81" transform="matrix(1,0,0,1,1096,-4)" class="stroke_order_diagram--existing_path"></path><path id="pathSk2v596cn1bw7" kvg:type="㇑" d="M12,43.73c0.88,0.88,1.42,2.25,1.29,3.63c-0.11,1.1,0.04,26.93,0.11,38.64c0.02,2.98,0.03,5.03,0.03,5.5" transform="matrix(1,0,0,1,1096,-4)" class="stroke_order_diagram--existing_path"></path><path id="pathSk2v596cn1bw8" kvg:type="㇆a" d="M14.54,45.52c5.09-0.61,23.59-2.9,32.75-4.07c2.17-0.28,3.48,0.3,3.48,2.59c0,1.29,0.1,41.09,0.1,44.62c0,7.96-4.62,1.84-6.63-0.08" transform="matrix(1,0,0,1,1096,-4)" class="stroke_order_diagram--existing_path"></path><path id="pathSk2v596cn1bw9" kvg:type="㇐" d="M19,55.31c1.4,0.48,2.73,0.5,4.16,0.3c4.43-0.59,12.76-1.88,17.6-2.21c0.9-0.06,2.51-0.28,3.5-0.08" transform="matrix(1,0,0,1,1096,-4)" class="stroke_order_diagram--existing_path"></path><path id="pathSk2v596cn1bwa" kvg:type="㇑a" d="M30.2,46.75c1.02,1.02,1.5,2.25,1.5,3.88c0,6.12,0.17,9.74,0.17,14.3" transform="matrix(1,0,0,1,1096,-4)" class="stroke_order_diagram--existing_path"></path><path id="pathSk2v596cn1bwb" kvg:type="㇑" d="M21.69,66.54c0.82,0.82,1.06,1.71,1.36,3.22c0.4,2.03,1.22,4.91,1.71,7.95c0.22,1.39,0.42,2.7,0.56,3.79" transform="matrix(1,0,0,1,1096,-4)" class="stroke_order_diagram--existing_path"></path><path id="pathSk2v596cn1bwc" kvg:type="㇕b" d="M23.21,67.17c5.16-0.8,12.66-1.8,16.62-2.35c1.18-0.16,2.04,0.67,1.73,2.01c-0.57,2.44-1.66,5.7-2.31,8.98" transform="matrix(1,0,0,1,1096,-4)" class="stroke_order_diagram--existing_path"></path><path id="pathSk2v596cn1bwd" kvg:type="㇐b" d="M26.04,78.4c2.76-0.14,7.14-0.77,11.25-1.24c1.09-0.13,2.11-0.22,2.99-0.27" transform="matrix(1,0,0,1,1096,-4)" class="stroke_order_diagram--existing_path"></path><path id="kvg:06575-s12" kvg:type="㇒" d="M68.56,14.89c0.19,0.98,0.2,1.71-0.06,2.87c-1.68,7.4-5.45,22.25-11.25,32.49" transform="matrix(1,0,0,1,1096,-4)" class="stroke_order_diagram--current_path"></path><path id="pathSk2v596cn1bwf" kvg:type="㇒" d="M68.56,14.89c0.19,0.98,0.2,1.71-0.06,2.87c-1.68,7.4-5.45,22.25-11.25,32.49" transform="matrix(1,0,0,1,1096,-4)" class="stroke_order_diagram--current_path"></path><circle cx="68.56" cy="14.89" r="8" class="stroke_order_diagram--path_start" transform="matrix(1,0,0,1,1096,-4)"></circle><line x1="1250" x2="1250" y1="1" y2="99" class="stroke_order_diagram--guide_line"></line><line x1="1299" x2="1299" y1="1" y2="99" class="stroke_order_diagram--bounding_box"></line><path id="pathSk2v596cn1bwi" kvg:type="㇑a" d="M29.75,13.75c1,0.75,1.5,2,1.5,3.75s0,4.88,0,8" transform="matrix(1,0,0,1,1196,-4)" class="stroke_order_diagram--existing_path"></path><path id="pathSk2v596cn1bwj" kvg:type="㇐" d="M11,28.45c2.38,0.42,4.46,0.37,6.62,0.09c7.76-1.04,20.11-2.9,28.88-3.43c2.1-0.13,4.25-0.23,6.25-0.02" transform="matrix(1,0,0,1,1196,-4)" class="stroke_order_diagram--existing_path"></path><path id="pathSk2v596cn1bwk" kvg:type="㇔" d="M19.88,31.5c2.83,3.73,4.12,7.54,4.38,10" transform="matrix(1,0,0,1,1196,-4)" class="stroke_order_diagram--existing_path"></path><path id="pathSk2v596cn1bwl" kvg:type="㇒" d="M41.73,28.5c0.27,0.75,0.18,1.63,0.04,1.94c-1.4,3.18-3.69,8.06-4.78,9.81" transform="matrix(1,0,0,1,1196,-4)" class="stroke_order_diagram--existing_path"></path><path id="pathSk2v596cn1bwm" kvg:type="㇑" d="M12,43.73c0.88,0.88,1.42,2.25,1.29,3.63c-0.11,1.1,0.04,26.93,0.11,38.64c0.02,2.98,0.03,5.03,0.03,5.5" transform="matrix(1,0,0,1,1196,-4)" class="stroke_order_diagram--existing_path"></path><path id="pathSk2v596cn1bwn" kvg:type="㇆a" d="M14.54,45.52c5.09-0.61,23.59-2.9,32.75-4.07c2.17-0.28,3.48,0.3,3.48,2.59c0,1.29,0.1,41.09,0.1,44.62c0,7.96-4.62,1.84-6.63-0.08" transform="matrix(1,0,0,1,1196,-4)" class="stroke_order_diagram--existing_path"></path><path id="pathSk2v596cn1bwo" kvg:type="㇐" d="M19,55.31c1.4,0.48,2.73,0.5,4.16,0.3c4.43-0.59,12.76-1.88,17.6-2.21c0.9-0.06,2.51-0.28,3.5-0.08" transform="matrix(1,0,0,1,1196,-4)" class="stroke_order_diagram--existing_path"></path><path id="pathSk2v596cn1bwp" kvg:type="㇑a" d="M30.2,46.75c1.02,1.02,1.5,2.25,1.5,3.88c0,6.12,0.17,9.74,0.17,14.3" transform="matrix(1,0,0,1,1196,-4)" class="stroke_order_diagram--existing_path"></path><path id="pathSk2v596cn1bwq" kvg:type="㇑" d="M21.69,66.54c0.82,0.82,1.06,1.71,1.36,3.22c0.4,2.03,1.22,4.91,1.71,7.95c0.22,1.39,0.42,2.7,0.56,3.79" transform="matrix(1,0,0,1,1196,-4)" class="stroke_order_diagram--existing_path"></path><path id="pathSk2v596cn1bwr" kvg:type="㇕b" d="M23.21,67.17c5.16-0.8,12.66-1.8,16.62-2.35c1.18-0.16,2.04,0.67,1.73,2.01c-0.57,2.44-1.66,5.7-2.31,8.98" transform="matrix(1,0,0,1,1196,-4)" class="stroke_order_diagram--existing_path"></path><path id="pathSk2v596cn1bws" kvg:type="㇐b" d="M26.04,78.4c2.76-0.14,7.14-0.77,11.25-1.24c1.09-0.13,2.11-0.22,2.99-0.27" transform="matrix(1,0,0,1,1196,-4)" class="stroke_order_diagram--existing_path"></path><path id="pathSk2v596cn1bwt" kvg:type="㇒" d="M68.56,14.89c0.19,0.98,0.2,1.71-0.06,2.87c-1.68,7.4-5.45,22.25-11.25,32.49" transform="matrix(1,0,0,1,1196,-4)" class="stroke_order_diagram--existing_path"></path><path id="kvg:06575-s13" kvg:type="㇐" d="M65.25,40.01c1.25,0.11,2.11-0.09,2.59-0.13c4.34-0.37,11.79-2.38,17.79-3.61c1.27-0.26,3.37-0.52,4.62-0.3" transform="matrix(1,0,0,1,1196,-4)" class="stroke_order_diagram--current_path"></path><path id="pathSk2v596cn1bwv" kvg:type="㇐" d="M65.25,40.01c1.25,0.11,2.11-0.09,2.59-0.13c4.34-0.37,11.79-2.38,17.79-3.61c1.27-0.26,3.37-0.52,4.62-0.3" transform="matrix(1,0,0,1,1196,-4)" class="stroke_order_diagram--current_path"></path><circle cx="65.25" cy="40.01" r="8" class="stroke_order_diagram--path_start" transform="matrix(1,0,0,1,1196,-4)"></circle><line x1="1350" x2="1350" y1="1" y2="99" class="stroke_order_diagram--guide_line"></line><line x1="1399" x2="1399" y1="1" y2="99" class="stroke_order_diagram--bounding_box"></line><path id="pathSk2v596cn1bwy" kvg:type="㇑a" d="M29.75,13.75c1,0.75,1.5,2,1.5,3.75s0,4.88,0,8" transform="matrix(1,0,0,1,1296,-4)" class="stroke_order_diagram--existing_path"></path><path id="pathSk2v596cn1bwz" kvg:type="㇐" d="M11,28.45c2.38,0.42,4.46,0.37,6.62,0.09c7.76-1.04,20.11-2.9,28.88-3.43c2.1-0.13,4.25-0.23,6.25-0.02" transform="matrix(1,0,0,1,1296,-4)" class="stroke_order_diagram--existing_path"></path><path id="pathSk2v596cn1bx0" kvg:type="㇔" d="M19.88,31.5c2.83,3.73,4.12,7.54,4.38,10" transform="matrix(1,0,0,1,1296,-4)" class="stroke_order_diagram--existing_path"></path><path id="pathSk2v596cn1bx1" kvg:type="㇒" d="M41.73,28.5c0.27,0.75,0.18,1.63,0.04,1.94c-1.4,3.18-3.69,8.06-4.78,9.81" transform="matrix(1,0,0,1,1296,-4)" class="stroke_order_diagram--existing_path"></path><path id="pathSk2v596cn1bx2" kvg:type="㇑" d="M12,43.73c0.88,0.88,1.42,2.25,1.29,3.63c-0.11,1.1,0.04,26.93,0.11,38.64c0.02,2.98,0.03,5.03,0.03,5.5" transform="matrix(1,0,0,1,1296,-4)" class="stroke_order_diagram--existing_path"></path><path id="pathSk2v596cn1bx3" kvg:type="㇆a" d="M14.54,45.52c5.09-0.61,23.59-2.9,32.75-4.07c2.17-0.28,3.48,0.3,3.48,2.59c0,1.29,0.1,41.09,0.1,44.62c0,7.96-4.62,1.84-6.63-0.08" transform="matrix(1,0,0,1,1296,-4)" class="stroke_order_diagram--existing_path"></path><path id="pathSk2v596cn1bx4" kvg:type="㇐" d="M19,55.31c1.4,0.48,2.73,0.5,4.16,0.3c4.43-0.59,12.76-1.88,17.6-2.21c0.9-0.06,2.51-0.28,3.5-0.08" transform="matrix(1,0,0,1,1296,-4)" class="stroke_order_diagram--existing_path"></path><path id="pathSk2v596cn1bx5" kvg:type="㇑a" d="M30.2,46.75c1.02,1.02,1.5,2.25,1.5,3.88c0,6.12,0.17,9.74,0.17,14.3" transform="matrix(1,0,0,1,1296,-4)" class="stroke_order_diagram--existing_path"></path><path id="pathSk2v596cn1bx6" kvg:type="㇑" d="M21.69,66.54c0.82,0.82,1.06,1.71,1.36,3.22c0.4,2.03,1.22,4.91,1.71,7.95c0.22,1.39,0.42,2.7,0.56,3.79" transform="matrix(1,0,0,1,1296,-4)" class="stroke_order_diagram--existing_path"></path><path id="pathSk2v596cn1bx7" kvg:type="㇕b" d="M23.21,67.17c5.16-0.8,12.66-1.8,16.62-2.35c1.18-0.16,2.04,0.67,1.73,2.01c-0.57,2.44-1.66,5.7-2.31,8.98" transform="matrix(1,0,0,1,1296,-4)" class="stroke_order_diagram--existing_path"></path><path id="pathSk2v596cn1bx8" kvg:type="㇐b" d="M26.04,78.4c2.76-0.14,7.14-0.77,11.25-1.24c1.09-0.13,2.11-0.22,2.99-0.27" transform="matrix(1,0,0,1,1296,-4)" class="stroke_order_diagram--existing_path"></path><path id="pathSk2v596cn1bx9" kvg:type="㇒" d="M68.56,14.89c0.19,0.98,0.2,1.71-0.06,2.87c-1.68,7.4-5.45,22.25-11.25,32.49" transform="matrix(1,0,0,1,1296,-4)" class="stroke_order_diagram--existing_path"></path><path id="pathSk2v596cn1bxa" kvg:type="㇐" d="M65.25,40.01c1.25,0.11,2.11-0.09,2.59-0.13c4.34-0.37,11.79-2.38,17.79-3.61c1.27-0.26,3.37-0.52,4.62-0.3" transform="matrix(1,0,0,1,1296,-4)" class="stroke_order_diagram--existing_path"></path><path id="kvg:06575-s14" kvg:type="㇒" d="M78.26,41.93c0.35,1.22,0.54,2.09,0.17,4.31c-3.3,20.2-10.18,36.39-22.18,45.26" transform="matrix(1,0,0,1,1296,-4)" class="stroke_order_diagram--current_path"></path><path id="pathSk2v596cn1bxc" kvg:type="㇒" d="M78.26,41.93c0.35,1.22,0.54,2.09,0.17,4.31c-3.3,20.2-10.18,36.39-22.18,45.26" transform="matrix(1,0,0,1,1296,-4)" class="stroke_order_diagram--current_path"></path><circle cx="78.26" cy="41.93" r="8" class="stroke_order_diagram--path_start" transform="matrix(1,0,0,1,1296,-4)"></circle><line x1="1450" x2="1450" y1="1" y2="99" class="stroke_order_diagram--guide_line"></line><line x1="1499" x2="1499" y1="1" y2="99" class="stroke_order_diagram--bounding_box"></line><path id="pathSk2v596cn1bxf" kvg:type="㇑a" d="M29.75,13.75c1,0.75,1.5,2,1.5,3.75s0,4.88,0,8" transform="matrix(1,0,0,1,1396,-4)" class="stroke_order_diagram--existing_path"></path><path id="pathSk2v596cn1bxg" kvg:type="㇐" d="M11,28.45c2.38,0.42,4.46,0.37,6.62,0.09c7.76-1.04,20.11-2.9,28.88-3.43c2.1-0.13,4.25-0.23,6.25-0.02" transform="matrix(1,0,0,1,1396,-4)" class="stroke_order_diagram--existing_path"></path><path id="pathSk2v596cn1bxh" kvg:type="㇔" d="M19.88,31.5c2.83,3.73,4.12,7.54,4.38,10" transform="matrix(1,0,0,1,1396,-4)" class="stroke_order_diagram--existing_path"></path><path id="pathSk2v596cn1bxi" kvg:type="㇒" d="M41.73,28.5c0.27,0.75,0.18,1.63,0.04,1.94c-1.4,3.18-3.69,8.06-4.78,9.81" transform="matrix(1,0,0,1,1396,-4)" class="stroke_order_diagram--existing_path"></path><path id="pathSk2v596cn1bxj" kvg:type="㇑" d="M12,43.73c0.88,0.88,1.42,2.25,1.29,3.63c-0.11,1.1,0.04,26.93,0.11,38.64c0.02,2.98,0.03,5.03,0.03,5.5" transform="matrix(1,0,0,1,1396,-4)" class="stroke_order_diagram--existing_path"></path><path id="pathSk2v596cn1bxk" kvg:type="㇆a" d="M14.54,45.52c5.09-0.61,23.59-2.9,32.75-4.07c2.17-0.28,3.48,0.3,3.48,2.59c0,1.29,0.1,41.09,0.1,44.62c0,7.96-4.62,1.84-6.63-0.08" transform="matrix(1,0,0,1,1396,-4)" class="stroke_order_diagram--existing_path"></path><path id="pathSk2v596cn1bxl" kvg:type="㇐" d="M19,55.31c1.4,0.48,2.73,0.5,4.16,0.3c4.43-0.59,12.76-1.88,17.6-2.21c0.9-0.06,2.51-0.28,3.5-0.08" transform="matrix(1,0,0,1,1396,-4)" class="stroke_order_diagram--existing_path"></path><path id="pathSk2v596cn1bxm" kvg:type="㇑a" d="M30.2,46.75c1.02,1.02,1.5,2.25,1.5,3.88c0,6.12,0.17,9.74,0.17,14.3" transform="matrix(1,0,0,1,1396,-4)" class="stroke_order_diagram--existing_path"></path><path id="pathSk2v596cn1bxn" kvg:type="㇑" d="M21.69,66.54c0.82,0.82,1.06,1.71,1.36,3.22c0.4,2.03,1.22,4.91,1.71,7.95c0.22,1.39,0.42,2.7,0.56,3.79" transform="matrix(1,0,0,1,1396,-4)" class="stroke_order_diagram--existing_path"></path><path id="pathSk2v596cn1bxo" kvg:type="㇕b" d="M23.21,67.17c5.16-0.8,12.66-1.8,16.62-2.35c1.18-0.16,2.04,0.67,1.73,2.01c-0.57,2.44-1.66,5.7-2.31,8.98" transform="matrix(1,0,0,1,1396,-4)" class="stroke_order_diagram--existing_path"></path><path id="pathSk2v596cn1bxp" kvg:type="㇐b" d="M26.04,78.4c2.76-0.14,7.14-0.77,11.25-1.24c1.09-0.13,2.11-0.22,2.99-0.27" transform="matrix(1,0,0,1,1396,-4)" class="stroke_order_diagram--existing_path"></path><path id="pathSk2v596cn1bxq" kvg:type="㇒" d="M68.56,14.89c0.19,0.98,0.2,1.71-0.06,2.87c-1.68,7.4-5.45,22.25-11.25,32.49" transform="matrix(1,0,0,1,1396,-4)" class="stroke_order_diagram--existing_path"></path><path id="pathSk2v596cn1bxr" kvg:type="㇐" d="M65.25,40.01c1.25,0.11,2.11-0.09,2.59-0.13c4.34-0.37,11.79-2.38,17.79-3.61c1.27-0.26,3.37-0.52,4.62-0.3" transform="matrix(1,0,0,1,1396,-4)" class="stroke_order_diagram--existing_path"></path><path id="pathSk2v596cn1bxs" kvg:type="㇒" d="M78.26,41.93c0.35,1.22,0.54,2.09,0.17,4.31c-3.3,20.2-10.18,36.39-22.18,45.26" transform="matrix(1,0,0,1,1396,-4)" class="stroke_order_diagram--existing_path"></path><path id="kvg:06575-s15" kvg:type="㇏" d="M58.04,55.51c2.28,0.56,20.11,21.2,31.51,30.1c2.21,1.72,4.83,3.9,7.46,4.65" transform="matrix(1,0,0,1,1396,-4)" class="stroke_order_diagram--current_path"></path><path id="pathSk2v596cn1bxu" kvg:type="㇏" d="M58.04,55.51c2.28,0.56,20.11,21.2,31.51,30.1c2.21,1.72,4.83,3.9,7.46,4.65" transform="matrix(1,0,0,1,1396,-4)" class="stroke_order_diagram--current_path"></path><circle cx="58.04" cy="55.51" r="8" class="stroke_order_diagram--path_start" transform="matrix(1,0,0,1,1396,-4)"></circle></svg>