<svg style="width: 800px; height: 100px;" viewbox="0 0 800 100"><style>
.stroke_order_diagram--outer_container {
  width: 100%;
  overflow-x: auto;
  overflow-y: hidden;
}

.stroke_order_diagram--guide_line {
  fill: none;
  stroke: #ddd;
  stroke-width: 3;
  stroke-linecap: square;
  stroke-linejoin: square;
  stroke-dasharray:8, 8;
}

.stroke_order_diagram--bounding_box {
  fill: none;
  stroke: #ddd;
  stroke-width: 4;
  stroke-linecap: square;
  stroke-linejoin: square;
}

.stroke_order_diagram--current_path {
  fill: none;
  stroke: #000;
  stroke-width: 6;
  stroke-linecap: round;
  stroke-linejoin: round;
}

.stroke_order_diagram--existing_path {
  fill: none;
  stroke: #aaa;
  stroke-width: 6;
  stroke-linecap: round;
  stroke-linejoin:round;
}

.stroke_order_diagram--path_start {
  fill: rgba(255, 0, 0, 0.7);
  stroke:none
}</style><desc>Created with Snap</desc><defs></defs><line x1="1" x2="799" y1="1" y2="1" class="stroke_order_diagram--bounding_box"></line><line x1="1" x2="1" y1="1" y2="99" class="stroke_order_diagram--bounding_box"></line><line x1="1" x2="799" y1="99" y2="99" class="stroke_order_diagram--bounding_box"></line><line x1="0" x2="800" y1="50" y2="50" class="stroke_order_diagram--guide_line"></line><line x1="50" x2="50" y1="1" y2="99" class="stroke_order_diagram--guide_line"></line><line x1="99" x2="99" y1="1" y2="99" class="stroke_order_diagram--bounding_box"></line><path id="kvg:06614-s1" kvg:type="㇐" d="M29.25,30.91c1.67,0.47,4.73,0.62,6.4,0.47c14.15-1.26,25.92-2.92,38.63-3.37c2.78-0.1,4.45,0.22,5.84,0.46" transform="matrix(1,0,0,1,-4,-4)" class="stroke_order_diagram--current_path"></path><path id="pathSk2v596cnk5o" kvg:type="㇐" d="M29.25,30.91c1.67,0.47,4.73,0.62,6.4,0.47c14.15-1.26,25.92-2.92,38.63-3.37c2.78-0.1,4.45,0.22,5.84,0.46" transform="matrix(1,0,0,1,-4,-4)" class="stroke_order_diagram--current_path"></path><circle cx="29.25" cy="30.91" r="8" class="stroke_order_diagram--path_start" transform="matrix(1,0,0,1,-4,-4)"></circle><line x1="150" x2="150" y1="1" y2="99" class="stroke_order_diagram--guide_line"></line><line x1="199" x2="199" y1="1" y2="99" class="stroke_order_diagram--bounding_box"></line><path id="pathSk2v596cnk5r" kvg:type="㇐" d="M29.25,30.91c1.67,0.47,4.73,0.62,6.4,0.47c14.15-1.26,25.92-2.92,38.63-3.37c2.78-0.1,4.45,0.22,5.84,0.46" transform="matrix(1,0,0,1,96,-4)" class="stroke_order_diagram--existing_path"></path><path id="kvg:06614-s2" kvg:type="㇑a" d="M40.62,19c0.81,0.81,1.65,1.98,1.71,3c0.42,7.88,0.67,14.38,1.17,25" transform="matrix(1,0,0,1,96,-4)" class="stroke_order_diagram--current_path"></path><path id="pathSk2v596cnk5t" kvg:type="㇑a" d="M40.62,19c0.81,0.81,1.65,1.98,1.71,3c0.42,7.88,0.67,14.38,1.17,25" transform="matrix(1,0,0,1,96,-4)" class="stroke_order_diagram--current_path"></path><circle cx="40.62" cy="19" r="8" class="stroke_order_diagram--path_start" transform="matrix(1,0,0,1,96,-4)"></circle><line x1="250" x2="250" y1="1" y2="99" class="stroke_order_diagram--guide_line"></line><line x1="299" x2="299" y1="1" y2="99" class="stroke_order_diagram--bounding_box"></line><path id="pathSk2v596cnk5w" kvg:type="㇐" d="M29.25,30.91c1.67,0.47,4.73,0.62,6.4,0.47c14.15-1.26,25.92-2.92,38.63-3.37c2.78-0.1,4.45,0.22,5.84,0.46" transform="matrix(1,0,0,1,196,-4)" class="stroke_order_diagram--existing_path"></path><path id="pathSk2v596cnk5x" kvg:type="㇑a" d="M40.62,19c0.81,0.81,1.65,1.98,1.71,3c0.42,7.88,0.67,14.38,1.17,25" transform="matrix(1,0,0,1,196,-4)" class="stroke_order_diagram--existing_path"></path><path id="kvg:06614-s3" kvg:type="㇑a" d="M67.62,13.5c0.63,1.38,0.85,2.74,0.71,3.75c-0.7,5.12-2.83,18.25-4.33,28.5" transform="matrix(1,0,0,1,196,-4)" class="stroke_order_diagram--current_path"></path><path id="pathSk2v596cnk5z" kvg:type="㇑a" d="M67.62,13.5c0.63,1.38,0.85,2.74,0.71,3.75c-0.7,5.12-2.83,18.25-4.33,28.5" transform="matrix(1,0,0,1,196,-4)" class="stroke_order_diagram--current_path"></path><circle cx="67.62" cy="13.5" r="8" class="stroke_order_diagram--path_start" transform="matrix(1,0,0,1,196,-4)"></circle><line x1="350" x2="350" y1="1" y2="99" class="stroke_order_diagram--guide_line"></line><line x1="399" x2="399" y1="1" y2="99" class="stroke_order_diagram--bounding_box"></line><path id="pathSk2v596cnk62" kvg:type="㇐" d="M29.25,30.91c1.67,0.47,4.73,0.62,6.4,0.47c14.15-1.26,25.92-2.92,38.63-3.37c2.78-0.1,4.45,0.22,5.84,0.46" transform="matrix(1,0,0,1,296,-4)" class="stroke_order_diagram--existing_path"></path><path id="pathSk2v596cnk63" kvg:type="㇑a" d="M40.62,19c0.81,0.81,1.65,1.98,1.71,3c0.42,7.88,0.67,14.38,1.17,25" transform="matrix(1,0,0,1,296,-4)" class="stroke_order_diagram--existing_path"></path><path id="pathSk2v596cnk64" kvg:type="㇑a" d="M67.62,13.5c0.63,1.38,0.85,2.74,0.71,3.75c-0.7,5.12-2.83,18.25-4.33,28.5" transform="matrix(1,0,0,1,296,-4)" class="stroke_order_diagram--existing_path"></path><path id="kvg:06614-s4" kvg:type="㇐" d="M13.5,49.95c2.25,0.55,6.81,0.78,9.28,0.54C43.38,48.5,65,46,87.05,45.26c4.14-0.14,6.63,0.26,8.7,0.53" transform="matrix(1,0,0,1,296,-4)" class="stroke_order_diagram--current_path"></path><path id="pathSk2v596cnk66" kvg:type="㇐" d="M13.5,49.95c2.25,0.55,6.81,0.78,9.28,0.54C43.38,48.5,65,46,87.05,45.26c4.14-0.14,6.63,0.26,8.7,0.53" transform="matrix(1,0,0,1,296,-4)" class="stroke_order_diagram--current_path"></path><circle cx="13.5" cy="49.95" r="8" class="stroke_order_diagram--path_start" transform="matrix(1,0,0,1,296,-4)"></circle><line x1="450" x2="450" y1="1" y2="99" class="stroke_order_diagram--guide_line"></line><line x1="499" x2="499" y1="1" y2="99" class="stroke_order_diagram--bounding_box"></line><path id="pathSk2v596cnk69" kvg:type="㇐" d="M29.25,30.91c1.67,0.47,4.73,0.62,6.4,0.47c14.15-1.26,25.92-2.92,38.63-3.37c2.78-0.1,4.45,0.22,5.84,0.46" transform="matrix(1,0,0,1,396,-4)" class="stroke_order_diagram--existing_path"></path><path id="pathSk2v596cnk6a" kvg:type="㇑a" d="M40.62,19c0.81,0.81,1.65,1.98,1.71,3c0.42,7.88,0.67,14.38,1.17,25" transform="matrix(1,0,0,1,396,-4)" class="stroke_order_diagram--existing_path"></path><path id="pathSk2v596cnk6b" kvg:type="㇑a" d="M67.62,13.5c0.63,1.38,0.85,2.74,0.71,3.75c-0.7,5.12-2.83,18.25-4.33,28.5" transform="matrix(1,0,0,1,396,-4)" class="stroke_order_diagram--existing_path"></path><path id="pathSk2v596cnk6c" kvg:type="㇐" d="M13.5,49.95c2.25,0.55,6.81,0.78,9.28,0.54C43.38,48.5,65,46,87.05,45.26c4.14-0.14,6.63,0.26,8.7,0.53" transform="matrix(1,0,0,1,396,-4)" class="stroke_order_diagram--existing_path"></path><path id="kvg:06614-s5" kvg:type="㇑" d="M37.02,60.89c0.86,0.86,1.4,2.5,1.4,3.61c0,2.69,0,21.35,0,29.25c0,2.01,0,3.32,0,3.5" transform="matrix(1,0,0,1,396,-4)" class="stroke_order_diagram--current_path"></path><path id="pathSk2v596cnk6e" kvg:type="㇑" d="M37.02,60.89c0.86,0.86,1.4,2.5,1.4,3.61c0,2.69,0,21.35,0,29.25c0,2.01,0,3.32,0,3.5" transform="matrix(1,0,0,1,396,-4)" class="stroke_order_diagram--current_path"></path><circle cx="37.02" cy="60.89" r="8" class="stroke_order_diagram--path_start" transform="matrix(1,0,0,1,396,-4)"></circle><line x1="550" x2="550" y1="1" y2="99" class="stroke_order_diagram--guide_line"></line><line x1="599" x2="599" y1="1" y2="99" class="stroke_order_diagram--bounding_box"></line><path id="pathSk2v596cnk6h" kvg:type="㇐" d="M29.25,30.91c1.67,0.47,4.73,0.62,6.4,0.47c14.15-1.26,25.92-2.92,38.63-3.37c2.78-0.1,4.45,0.22,5.84,0.46" transform="matrix(1,0,0,1,496,-4)" class="stroke_order_diagram--existing_path"></path><path id="pathSk2v596cnk6i" kvg:type="㇑a" d="M40.62,19c0.81,0.81,1.65,1.98,1.71,3c0.42,7.88,0.67,14.38,1.17,25" transform="matrix(1,0,0,1,496,-4)" class="stroke_order_diagram--existing_path"></path><path id="pathSk2v596cnk6j" kvg:type="㇑a" d="M67.62,13.5c0.63,1.38,0.85,2.74,0.71,3.75c-0.7,5.12-2.83,18.25-4.33,28.5" transform="matrix(1,0,0,1,496,-4)" class="stroke_order_diagram--existing_path"></path><path id="pathSk2v596cnk6k" kvg:type="㇐" d="M13.5,49.95c2.25,0.55,6.81,0.78,9.28,0.54C43.38,48.5,65,46,87.05,45.26c4.14-0.14,6.63,0.26,8.7,0.53" transform="matrix(1,0,0,1,496,-4)" class="stroke_order_diagram--existing_path"></path><path id="pathSk2v596cnk6l" kvg:type="㇑" d="M37.02,60.89c0.86,0.86,1.4,2.5,1.4,3.61c0,2.69,0,21.35,0,29.25c0,2.01,0,3.32,0,3.5" transform="matrix(1,0,0,1,496,-4)" class="stroke_order_diagram--existing_path"></path><path id="kvg:06614-s6" kvg:type="㇕a" d="M39.17,62.03c2.28-0.12,23.11-2.17,29.11-2.17c2.98,0,4.32,2.02,4.32,4.14c0,4.67-0.26,18.32-0.31,28.5c0,1.12-0.01,2.2-0.01,3.22" transform="matrix(1,0,0,1,496,-4)" class="stroke_order_diagram--current_path"></path><path id="pathSk2v596cnk6n" kvg:type="㇕a" d="M39.17,62.03c2.28-0.12,23.11-2.17,29.11-2.17c2.98,0,4.32,2.02,4.32,4.14c0,4.67-0.26,18.32-0.31,28.5c0,1.12-0.01,2.2-0.01,3.22" transform="matrix(1,0,0,1,496,-4)" class="stroke_order_diagram--current_path"></path><circle cx="39.17" cy="62.03" r="8" class="stroke_order_diagram--path_start" transform="matrix(1,0,0,1,496,-4)"></circle><line x1="650" x2="650" y1="1" y2="99" class="stroke_order_diagram--guide_line"></line><line x1="699" x2="699" y1="1" y2="99" class="stroke_order_diagram--bounding_box"></line><path id="pathSk2v596cnk6q" kvg:type="㇐" d="M29.25,30.91c1.67,0.47,4.73,0.62,6.4,0.47c14.15-1.26,25.92-2.92,38.63-3.37c2.78-0.1,4.45,0.22,5.84,0.46" transform="matrix(1,0,0,1,596,-4)" class="stroke_order_diagram--existing_path"></path><path id="pathSk2v596cnk6r" kvg:type="㇑a" d="M40.62,19c0.81,0.81,1.65,1.98,1.71,3c0.42,7.88,0.67,14.38,1.17,25" transform="matrix(1,0,0,1,596,-4)" class="stroke_order_diagram--existing_path"></path><path id="pathSk2v596cnk6s" kvg:type="㇑a" d="M67.62,13.5c0.63,1.38,0.85,2.74,0.71,3.75c-0.7,5.12-2.83,18.25-4.33,28.5" transform="matrix(1,0,0,1,596,-4)" class="stroke_order_diagram--existing_path"></path><path id="pathSk2v596cnk6t" kvg:type="㇐" d="M13.5,49.95c2.25,0.55,6.81,0.78,9.28,0.54C43.38,48.5,65,46,87.05,45.26c4.14-0.14,6.63,0.26,8.7,0.53" transform="matrix(1,0,0,1,596,-4)" class="stroke_order_diagram--existing_path"></path><path id="pathSk2v596cnk6u" kvg:type="㇑" d="M37.02,60.89c0.86,0.86,1.4,2.5,1.4,3.61c0,2.69,0,21.35,0,29.25c0,2.01,0,3.32,0,3.5" transform="matrix(1,0,0,1,596,-4)" class="stroke_order_diagram--existing_path"></path><path id="pathSk2v596cnk6v" kvg:type="㇕a" d="M39.17,62.03c2.28-0.12,23.11-2.17,29.11-2.17c2.98,0,4.32,2.02,4.32,4.14c0,4.67-0.26,18.32-0.31,28.5c0,1.12-0.01,2.2-0.01,3.22" transform="matrix(1,0,0,1,596,-4)" class="stroke_order_diagram--existing_path"></path><path id="kvg:06614-s7" kvg:type="㇐a" d="M39.86,77.56c4.64-0.31,27.33-1.98,31.22-1.98" transform="matrix(1,0,0,1,596,-4)" class="stroke_order_diagram--current_path"></path><path id="pathSk2v596cnk6x" kvg:type="㇐a" d="M39.86,77.56c4.64-0.31,27.33-1.98,31.22-1.98" transform="matrix(1,0,0,1,596,-4)" class="stroke_order_diagram--current_path"></path><circle cx="39.86" cy="77.56" r="8" class="stroke_order_diagram--path_start" transform="matrix(1,0,0,1,596,-4)"></circle><line x1="750" x2="750" y1="1" y2="99" class="stroke_order_diagram--guide_line"></line><line x1="799" x2="799" y1="1" y2="99" class="stroke_order_diagram--bounding_box"></line><path id="pathSk2v596cnk70" kvg:type="㇐" d="M29.25,30.91c1.67,0.47,4.73,0.62,6.4,0.47c14.15-1.26,25.92-2.92,38.63-3.37c2.78-0.1,4.45,0.22,5.84,0.46" transform="matrix(1,0,0,1,696,-4)" class="stroke_order_diagram--existing_path"></path><path id="pathSk2v596cnk71" kvg:type="㇑a" d="M40.62,19c0.81,0.81,1.65,1.98,1.71,3c0.42,7.88,0.67,14.38,1.17,25" transform="matrix(1,0,0,1,696,-4)" class="stroke_order_diagram--existing_path"></path><path id="pathSk2v596cnk72" kvg:type="㇑a" d="M67.62,13.5c0.63,1.38,0.85,2.74,0.71,3.75c-0.7,5.12-2.83,18.25-4.33,28.5" transform="matrix(1,0,0,1,696,-4)" class="stroke_order_diagram--existing_path"></path><path id="pathSk2v596cnk73" kvg:type="㇐" d="M13.5,49.95c2.25,0.55,6.81,0.78,9.28,0.54C43.38,48.5,65,46,87.05,45.26c4.14-0.14,6.63,0.26,8.7,0.53" transform="matrix(1,0,0,1,696,-4)" class="stroke_order_diagram--existing_path"></path><path id="pathSk2v596cnk74" kvg:type="㇑" d="M37.02,60.89c0.86,0.86,1.4,2.5,1.4,3.61c0,2.69,0,21.35,0,29.25c0,2.01,0,3.32,0,3.5" transform="matrix(1,0,0,1,696,-4)" class="stroke_order_diagram--existing_path"></path><path id="pathSk2v596cnk75" kvg:type="㇕a" d="M39.17,62.03c2.28-0.12,23.11-2.17,29.11-2.17c2.98,0,4.32,2.02,4.32,4.14c0,4.67-0.26,18.32-0.31,28.5c0,1.12-0.01,2.2-0.01,3.22" transform="matrix(1,0,0,1,696,-4)" class="stroke_order_diagram--existing_path"></path><path id="pathSk2v596cnk76" kvg:type="㇐a" d="M39.86,77.56c4.64-0.31,27.33-1.98,31.22-1.98" transform="matrix(1,0,0,1,696,-4)" class="stroke_order_diagram--existing_path"></path><path id="kvg:06614-s8" kvg:type="㇐a" d="M39.71,94.13c7-0.6,22.39-1.19,31.11-1.7" transform="matrix(1,0,0,1,696,-4)" class="stroke_order_diagram--current_path"></path><path id="pathSk2v596cnk78" kvg:type="㇐a" d="M39.71,94.13c7-0.6,22.39-1.19,31.11-1.7" transform="matrix(1,0,0,1,696,-4)" class="stroke_order_diagram--current_path"></path><circle cx="39.71" cy="94.13" r="8" class="stroke_order_diagram--path_start" transform="matrix(1,0,0,1,696,-4)"></circle></svg>