<svg style="width: 900px; height: 100px;" viewbox="0 0 900 100"><style>
.stroke_order_diagram--outer_container {
  width: 100%;
  overflow-x: auto;
  overflow-y: hidden;
}

.stroke_order_diagram--guide_line {
  fill: none;
  stroke: #ddd;
  stroke-width: 3;
  stroke-linecap: square;
  stroke-linejoin: square;
  stroke-dasharray:8, 8;
}

.stroke_order_diagram--bounding_box {
  fill: none;
  stroke: #ddd;
  stroke-width: 4;
  stroke-linecap: square;
  stroke-linejoin: square;
}

.stroke_order_diagram--current_path {
  fill: none;
  stroke: #000;
  stroke-width: 6;
  stroke-linecap: round;
  stroke-linejoin: round;
}

.stroke_order_diagram--existing_path {
  fill: none;
  stroke: #aaa;
  stroke-width: 6;
  stroke-linecap: round;
  stroke-linejoin:round;
}

.stroke_order_diagram--path_start {
  fill: rgba(255, 0, 0, 0.7);
  stroke:none
}</style><desc>Created with Snap</desc><defs></defs><line x1="1" x2="899" y1="1" y2="1" class="stroke_order_diagram--bounding_box"></line><line x1="1" x2="1" y1="1" y2="99" class="stroke_order_diagram--bounding_box"></line><line x1="1" x2="899" y1="99" y2="99" class="stroke_order_diagram--bounding_box"></line><line x1="0" x2="900" y1="50" y2="50" class="stroke_order_diagram--guide_line"></line><line x1="50" x2="50" y1="1" y2="99" class="stroke_order_diagram--guide_line"></line><line x1="99" x2="99" y1="1" y2="99" class="stroke_order_diagram--bounding_box"></line><path id="kvg:06625-s1" kvg:type="㇐" d="M28.31,25.18c1.46,0.37,4.15,0.5,5.61,0.37c12.83-1.18,22.33-2.3,36.29-3.51c2.43-0.21,4.29-0.04,6.12,0.36" transform="matrix(1,0,0,1,-4,-4)" class="stroke_order_diagram--current_path"></path><path id="pathSk2v596cnw04" kvg:type="㇐" d="M28.31,25.18c1.46,0.37,4.15,0.5,5.61,0.37c12.83-1.18,22.33-2.3,36.29-3.51c2.43-0.21,4.29-0.04,6.12,0.36" transform="matrix(1,0,0,1,-4,-4)" class="stroke_order_diagram--current_path"></path><circle cx="28.31" cy="25.18" r="8" class="stroke_order_diagram--path_start" transform="matrix(1,0,0,1,-4,-4)"></circle><line x1="150" x2="150" y1="1" y2="99" class="stroke_order_diagram--guide_line"></line><line x1="199" x2="199" y1="1" y2="99" class="stroke_order_diagram--bounding_box"></line><path id="pathSk2v596cnw07" kvg:type="㇐" d="M28.31,25.18c1.46,0.37,4.15,0.5,5.61,0.37c12.83-1.18,22.33-2.3,36.29-3.51c2.43-0.21,4.29-0.04,6.12,0.36" transform="matrix(1,0,0,1,96,-4)" class="stroke_order_diagram--existing_path"></path><path id="kvg:06625-s2" kvg:type="㇐" d="M28.5,38.67c1.54,0.38,4.11,0.3,5.65,0.13c11.6-1.3,22.23-2.92,35.13-4.38c2.7-0.31,4.72-0.16,5.88,0.12" transform="matrix(1,0,0,1,96,-4)" class="stroke_order_diagram--current_path"></path><path id="pathSk2v596cnw09" kvg:type="㇐" d="M28.5,38.67c1.54,0.38,4.11,0.3,5.65,0.13c11.6-1.3,22.23-2.92,35.13-4.38c2.7-0.31,4.72-0.16,5.88,0.12" transform="matrix(1,0,0,1,96,-4)" class="stroke_order_diagram--current_path"></path><circle cx="28.5" cy="38.67" r="8" class="stroke_order_diagram--path_start" transform="matrix(1,0,0,1,96,-4)"></circle><line x1="250" x2="250" y1="1" y2="99" class="stroke_order_diagram--guide_line"></line><line x1="299" x2="299" y1="1" y2="99" class="stroke_order_diagram--bounding_box"></line><path id="pathSk2v596cnw0c" kvg:type="㇐" d="M28.31,25.18c1.46,0.37,4.15,0.5,5.61,0.37c12.83-1.18,22.33-2.3,36.29-3.51c2.43-0.21,4.29-0.04,6.12,0.36" transform="matrix(1,0,0,1,196,-4)" class="stroke_order_diagram--existing_path"></path><path id="pathSk2v596cnw0d" kvg:type="㇐" d="M28.5,38.67c1.54,0.38,4.11,0.3,5.65,0.13c11.6-1.3,22.23-2.92,35.13-4.38c2.7-0.31,4.72-0.16,5.88,0.12" transform="matrix(1,0,0,1,196,-4)" class="stroke_order_diagram--existing_path"></path><path id="kvg:06625-s3" kvg:type="㇐" d="M15.38,53.48c3.09,1.06,6.46,0.72,9.62,0.27c20.13-2.87,36.38-5.75,54.15-7.79c3.03-0.35,5.97-0.37,8.98,0.11" transform="matrix(1,0,0,1,196,-4)" class="stroke_order_diagram--current_path"></path><path id="pathSk2v596cnw0f" kvg:type="㇐" d="M15.38,53.48c3.09,1.06,6.46,0.72,9.62,0.27c20.13-2.87,36.38-5.75,54.15-7.79c3.03-0.35,5.97-0.37,8.98,0.11" transform="matrix(1,0,0,1,196,-4)" class="stroke_order_diagram--current_path"></path><circle cx="15.38" cy="53.48" r="8" class="stroke_order_diagram--path_start" transform="matrix(1,0,0,1,196,-4)"></circle><line x1="350" x2="350" y1="1" y2="99" class="stroke_order_diagram--guide_line"></line><line x1="399" x2="399" y1="1" y2="99" class="stroke_order_diagram--bounding_box"></line><path id="pathSk2v596cnw0i" kvg:type="㇐" d="M28.31,25.18c1.46,0.37,4.15,0.5,5.61,0.37c12.83-1.18,22.33-2.3,36.29-3.51c2.43-0.21,4.29-0.04,6.12,0.36" transform="matrix(1,0,0,1,296,-4)" class="stroke_order_diagram--existing_path"></path><path id="pathSk2v596cnw0j" kvg:type="㇐" d="M28.5,38.67c1.54,0.38,4.11,0.3,5.65,0.13c11.6-1.3,22.23-2.92,35.13-4.38c2.7-0.31,4.72-0.16,5.88,0.12" transform="matrix(1,0,0,1,296,-4)" class="stroke_order_diagram--existing_path"></path><path id="pathSk2v596cnw0k" kvg:type="㇐" d="M15.38,53.48c3.09,1.06,6.46,0.72,9.62,0.27c20.13-2.87,36.38-5.75,54.15-7.79c3.03-0.35,5.97-0.37,8.98,0.11" transform="matrix(1,0,0,1,296,-4)" class="stroke_order_diagram--existing_path"></path><path id="kvg:06625-s4" kvg:type="㇒" d="M52.75,11.25c1,1.5,1.02,3.53,0.54,5.9C50.12,32.62,39.5,68,12.5,80.75" transform="matrix(1,0,0,1,296,-4)" class="stroke_order_diagram--current_path"></path><path id="pathSk2v596cnw0m" kvg:type="㇒" d="M52.75,11.25c1,1.5,1.02,3.53,0.54,5.9C50.12,32.62,39.5,68,12.5,80.75" transform="matrix(1,0,0,1,296,-4)" class="stroke_order_diagram--current_path"></path><circle cx="52.75" cy="11.25" r="8" class="stroke_order_diagram--path_start" transform="matrix(1,0,0,1,296,-4)"></circle><line x1="450" x2="450" y1="1" y2="99" class="stroke_order_diagram--guide_line"></line><line x1="499" x2="499" y1="1" y2="99" class="stroke_order_diagram--bounding_box"></line><path id="pathSk2v596cnw0p" kvg:type="㇐" d="M28.31,25.18c1.46,0.37,4.15,0.5,5.61,0.37c12.83-1.18,22.33-2.3,36.29-3.51c2.43-0.21,4.29-0.04,6.12,0.36" transform="matrix(1,0,0,1,396,-4)" class="stroke_order_diagram--existing_path"></path><path id="pathSk2v596cnw0q" kvg:type="㇐" d="M28.5,38.67c1.54,0.38,4.11,0.3,5.65,0.13c11.6-1.3,22.23-2.92,35.13-4.38c2.7-0.31,4.72-0.16,5.88,0.12" transform="matrix(1,0,0,1,396,-4)" class="stroke_order_diagram--existing_path"></path><path id="pathSk2v596cnw0r" kvg:type="㇐" d="M15.38,53.48c3.09,1.06,6.46,0.72,9.62,0.27c20.13-2.87,36.38-5.75,54.15-7.79c3.03-0.35,5.97-0.37,8.98,0.11" transform="matrix(1,0,0,1,396,-4)" class="stroke_order_diagram--existing_path"></path><path id="pathSk2v596cnw0s" kvg:type="㇒" d="M52.75,11.25c1,1.5,1.02,3.53,0.54,5.9C50.12,32.62,39.5,68,12.5,80.75" transform="matrix(1,0,0,1,396,-4)" class="stroke_order_diagram--existing_path"></path><path id="kvg:06625-s5" kvg:type="㇏" d="M53.25,41.25c2.29,0.15,29.6,28.08,35.99,32.9c2.21,1.67,5.05,2.38,7.26,2.85" transform="matrix(1,0,0,1,396,-4)" class="stroke_order_diagram--current_path"></path><path id="pathSk2v596cnw0u" kvg:type="㇏" d="M53.25,41.25c2.29,0.15,29.6,28.08,35.99,32.9c2.21,1.67,5.05,2.38,7.26,2.85" transform="matrix(1,0,0,1,396,-4)" class="stroke_order_diagram--current_path"></path><circle cx="53.25" cy="41.25" r="8" class="stroke_order_diagram--path_start" transform="matrix(1,0,0,1,396,-4)"></circle><line x1="550" x2="550" y1="1" y2="99" class="stroke_order_diagram--guide_line"></line><line x1="599" x2="599" y1="1" y2="99" class="stroke_order_diagram--bounding_box"></line><path id="pathSk2v596cnw0x" kvg:type="㇐" d="M28.31,25.18c1.46,0.37,4.15,0.5,5.61,0.37c12.83-1.18,22.33-2.3,36.29-3.51c2.43-0.21,4.29-0.04,6.12,0.36" transform="matrix(1,0,0,1,496,-4)" class="stroke_order_diagram--existing_path"></path><path id="pathSk2v596cnw0y" kvg:type="㇐" d="M28.5,38.67c1.54,0.38,4.11,0.3,5.65,0.13c11.6-1.3,22.23-2.92,35.13-4.38c2.7-0.31,4.72-0.16,5.88,0.12" transform="matrix(1,0,0,1,496,-4)" class="stroke_order_diagram--existing_path"></path><path id="pathSk2v596cnw0z" kvg:type="㇐" d="M15.38,53.48c3.09,1.06,6.46,0.72,9.62,0.27c20.13-2.87,36.38-5.75,54.15-7.79c3.03-0.35,5.97-0.37,8.98,0.11" transform="matrix(1,0,0,1,496,-4)" class="stroke_order_diagram--existing_path"></path><path id="pathSk2v596cnw10" kvg:type="㇒" d="M52.75,11.25c1,1.5,1.02,3.53,0.54,5.9C50.12,32.62,39.5,68,12.5,80.75" transform="matrix(1,0,0,1,496,-4)" class="stroke_order_diagram--existing_path"></path><path id="pathSk2v596cnw11" kvg:type="㇏" d="M53.25,41.25c2.29,0.15,29.6,28.08,35.99,32.9c2.21,1.67,5.05,2.38,7.26,2.85" transform="matrix(1,0,0,1,496,-4)" class="stroke_order_diagram--existing_path"></path><path id="kvg:06625-s6" kvg:type="㇑" d="M37.77,64.94c0.83,0.83,1.28,1.93,1.28,2.97c0,0.87-0.18,22.16-0.24,29.84c-0.01,1.59-0.02,2.59-0.02,2.68" transform="matrix(1,0,0,1,496,-4)" class="stroke_order_diagram--current_path"></path><path id="pathSk2v596cnw13" kvg:type="㇑" d="M37.77,64.94c0.83,0.83,1.28,1.93,1.28,2.97c0,0.87-0.18,22.16-0.24,29.84c-0.01,1.59-0.02,2.59-0.02,2.68" transform="matrix(1,0,0,1,496,-4)" class="stroke_order_diagram--current_path"></path><circle cx="37.77" cy="64.94" r="8" class="stroke_order_diagram--path_start" transform="matrix(1,0,0,1,496,-4)"></circle><line x1="650" x2="650" y1="1" y2="99" class="stroke_order_diagram--guide_line"></line><line x1="699" x2="699" y1="1" y2="99" class="stroke_order_diagram--bounding_box"></line><path id="pathSk2v596cnw16" kvg:type="㇐" d="M28.31,25.18c1.46,0.37,4.15,0.5,5.61,0.37c12.83-1.18,22.33-2.3,36.29-3.51c2.43-0.21,4.29-0.04,6.12,0.36" transform="matrix(1,0,0,1,596,-4)" class="stroke_order_diagram--existing_path"></path><path id="pathSk2v596cnw17" kvg:type="㇐" d="M28.5,38.67c1.54,0.38,4.11,0.3,5.65,0.13c11.6-1.3,22.23-2.92,35.13-4.38c2.7-0.31,4.72-0.16,5.88,0.12" transform="matrix(1,0,0,1,596,-4)" class="stroke_order_diagram--existing_path"></path><path id="pathSk2v596cnw18" kvg:type="㇐" d="M15.38,53.48c3.09,1.06,6.46,0.72,9.62,0.27c20.13-2.87,36.38-5.75,54.15-7.79c3.03-0.35,5.97-0.37,8.98,0.11" transform="matrix(1,0,0,1,596,-4)" class="stroke_order_diagram--existing_path"></path><path id="pathSk2v596cnw19" kvg:type="㇒" d="M52.75,11.25c1,1.5,1.02,3.53,0.54,5.9C50.12,32.62,39.5,68,12.5,80.75" transform="matrix(1,0,0,1,596,-4)" class="stroke_order_diagram--existing_path"></path><path id="pathSk2v596cnw1a" kvg:type="㇏" d="M53.25,41.25c2.29,0.15,29.6,28.08,35.99,32.9c2.21,1.67,5.05,2.38,7.26,2.85" transform="matrix(1,0,0,1,596,-4)" class="stroke_order_diagram--existing_path"></path><path id="pathSk2v596cnw1b" kvg:type="㇑" d="M37.77,64.94c0.83,0.83,1.28,1.93,1.28,2.97c0,0.87-0.18,22.16-0.24,29.84c-0.01,1.59-0.02,2.59-0.02,2.68" transform="matrix(1,0,0,1,596,-4)" class="stroke_order_diagram--existing_path"></path><path id="kvg:06625-s7" kvg:type="㇕a" d="M39.76,67.17c6.94-0.86,24.26-3.55,25.85-3.68c1.67-0.13,3.11,1.38,3.11,2.72c0,1.26-0.16,20.65-0.24,29.04c-0.02,2.16-0.03,3.57-0.03,3.73" transform="matrix(1,0,0,1,596,-4)" class="stroke_order_diagram--current_path"></path><path id="pathSk2v596cnw1d" kvg:type="㇕a" d="M39.76,67.17c6.94-0.86,24.26-3.55,25.85-3.68c1.67-0.13,3.11,1.38,3.11,2.72c0,1.26-0.16,20.65-0.24,29.04c-0.02,2.16-0.03,3.57-0.03,3.73" transform="matrix(1,0,0,1,596,-4)" class="stroke_order_diagram--current_path"></path><circle cx="39.76" cy="67.17" r="8" class="stroke_order_diagram--path_start" transform="matrix(1,0,0,1,596,-4)"></circle><line x1="750" x2="750" y1="1" y2="99" class="stroke_order_diagram--guide_line"></line><line x1="799" x2="799" y1="1" y2="99" class="stroke_order_diagram--bounding_box"></line><path id="pathSk2v596cnw1g" kvg:type="㇐" d="M28.31,25.18c1.46,0.37,4.15,0.5,5.61,0.37c12.83-1.18,22.33-2.3,36.29-3.51c2.43-0.21,4.29-0.04,6.12,0.36" transform="matrix(1,0,0,1,696,-4)" class="stroke_order_diagram--existing_path"></path><path id="pathSk2v596cnw1h" kvg:type="㇐" d="M28.5,38.67c1.54,0.38,4.11,0.3,5.65,0.13c11.6-1.3,22.23-2.92,35.13-4.38c2.7-0.31,4.72-0.16,5.88,0.12" transform="matrix(1,0,0,1,696,-4)" class="stroke_order_diagram--existing_path"></path><path id="pathSk2v596cnw1i" kvg:type="㇐" d="M15.38,53.48c3.09,1.06,6.46,0.72,9.62,0.27c20.13-2.87,36.38-5.75,54.15-7.79c3.03-0.35,5.97-0.37,8.98,0.11" transform="matrix(1,0,0,1,696,-4)" class="stroke_order_diagram--existing_path"></path><path id="pathSk2v596cnw1j" kvg:type="㇒" d="M52.75,11.25c1,1.5,1.02,3.53,0.54,5.9C50.12,32.62,39.5,68,12.5,80.75" transform="matrix(1,0,0,1,696,-4)" class="stroke_order_diagram--existing_path"></path><path id="pathSk2v596cnw1k" kvg:type="㇏" d="M53.25,41.25c2.29,0.15,29.6,28.08,35.99,32.9c2.21,1.67,5.05,2.38,7.26,2.85" transform="matrix(1,0,0,1,696,-4)" class="stroke_order_diagram--existing_path"></path><path id="pathSk2v596cnw1l" kvg:type="㇑" d="M37.77,64.94c0.83,0.83,1.28,1.93,1.28,2.97c0,0.87-0.18,22.16-0.24,29.84c-0.01,1.59-0.02,2.59-0.02,2.68" transform="matrix(1,0,0,1,696,-4)" class="stroke_order_diagram--existing_path"></path><path id="pathSk2v596cnw1m" kvg:type="㇕a" d="M39.76,67.17c6.94-0.86,24.26-3.55,25.85-3.68c1.67-0.13,3.11,1.38,3.11,2.72c0,1.26-0.16,20.65-0.24,29.04c-0.02,2.16-0.03,3.57-0.03,3.73" transform="matrix(1,0,0,1,696,-4)" class="stroke_order_diagram--existing_path"></path><path id="kvg:06625-s8" kvg:type="㇐a" d="M40.08,80.98c4.54-0.35,23.04-1.98,27.22-2.31" transform="matrix(1,0,0,1,696,-4)" class="stroke_order_diagram--current_path"></path><path id="pathSk2v596cnw1o" kvg:type="㇐a" d="M40.08,80.98c4.54-0.35,23.04-1.98,27.22-2.31" transform="matrix(1,0,0,1,696,-4)" class="stroke_order_diagram--current_path"></path><circle cx="40.08" cy="80.98" r="8" class="stroke_order_diagram--path_start" transform="matrix(1,0,0,1,696,-4)"></circle><line x1="850" x2="850" y1="1" y2="99" class="stroke_order_diagram--guide_line"></line><line x1="899" x2="899" y1="1" y2="99" class="stroke_order_diagram--bounding_box"></line><path id="pathSk2v596cnw1r" kvg:type="㇐" d="M28.31,25.18c1.46,0.37,4.15,0.5,5.61,0.37c12.83-1.18,22.33-2.3,36.29-3.51c2.43-0.21,4.29-0.04,6.12,0.36" transform="matrix(1,0,0,1,796,-4)" class="stroke_order_diagram--existing_path"></path><path id="pathSk2v596cnw1s" kvg:type="㇐" d="M28.5,38.67c1.54,0.38,4.11,0.3,5.65,0.13c11.6-1.3,22.23-2.92,35.13-4.38c2.7-0.31,4.72-0.16,5.88,0.12" transform="matrix(1,0,0,1,796,-4)" class="stroke_order_diagram--existing_path"></path><path id="pathSk2v596cnw1t" kvg:type="㇐" d="M15.38,53.48c3.09,1.06,6.46,0.72,9.62,0.27c20.13-2.87,36.38-5.75,54.15-7.79c3.03-0.35,5.97-0.37,8.98,0.11" transform="matrix(1,0,0,1,796,-4)" class="stroke_order_diagram--existing_path"></path><path id="pathSk2v596cnw1u" kvg:type="㇒" d="M52.75,11.25c1,1.5,1.02,3.53,0.54,5.9C50.12,32.62,39.5,68,12.5,80.75" transform="matrix(1,0,0,1,796,-4)" class="stroke_order_diagram--existing_path"></path><path id="pathSk2v596cnw1v" kvg:type="㇏" d="M53.25,41.25c2.29,0.15,29.6,28.08,35.99,32.9c2.21,1.67,5.05,2.38,7.26,2.85" transform="matrix(1,0,0,1,796,-4)" class="stroke_order_diagram--existing_path"></path><path id="pathSk2v596cnw1w" kvg:type="㇑" d="M37.77,64.94c0.83,0.83,1.28,1.93,1.28,2.97c0,0.87-0.18,22.16-0.24,29.84c-0.01,1.59-0.02,2.59-0.02,2.68" transform="matrix(1,0,0,1,796,-4)" class="stroke_order_diagram--existing_path"></path><path id="pathSk2v596cnw1x" kvg:type="㇕a" d="M39.76,67.17c6.94-0.86,24.26-3.55,25.85-3.68c1.67-0.13,3.11,1.38,3.11,2.72c0,1.26-0.16,20.65-0.24,29.04c-0.02,2.16-0.03,3.57-0.03,3.73" transform="matrix(1,0,0,1,796,-4)" class="stroke_order_diagram--existing_path"></path><path id="pathSk2v596cnw1y" kvg:type="㇐a" d="M40.08,80.98c4.54-0.35,23.04-1.98,27.22-2.31" transform="matrix(1,0,0,1,796,-4)" class="stroke_order_diagram--existing_path"></path><path id="kvg:06625-s9" kvg:type="㇐a" d="M40.08,96.98c4.29-0.23,22.79-1.73,27.47-1.81" transform="matrix(1,0,0,1,796,-4)" class="stroke_order_diagram--current_path"></path><path id="pathSk2v596cnw20" kvg:type="㇐a" d="M40.08,96.98c4.29-0.23,22.79-1.73,27.47-1.81" transform="matrix(1,0,0,1,796,-4)" class="stroke_order_diagram--current_path"></path><circle cx="40.08" cy="96.98" r="8" class="stroke_order_diagram--path_start" transform="matrix(1,0,0,1,796,-4)"></circle></svg>