<svg style="width: 900px; height: 100px;" viewbox="0 0 900 100"><style>
.stroke_order_diagram--outer_container {
  width: 100%;
  overflow-x: auto;
  overflow-y: hidden;
}

.stroke_order_diagram--guide_line {
  fill: none;
  stroke: #ddd;
  stroke-width: 3;
  stroke-linecap: square;
  stroke-linejoin: square;
  stroke-dasharray:8, 8;
}

.stroke_order_diagram--bounding_box {
  fill: none;
  stroke: #ddd;
  stroke-width: 4;
  stroke-linecap: square;
  stroke-linejoin: square;
}

.stroke_order_diagram--current_path {
  fill: none;
  stroke: #000;
  stroke-width: 6;
  stroke-linecap: round;
  stroke-linejoin: round;
}

.stroke_order_diagram--existing_path {
  fill: none;
  stroke: #aaa;
  stroke-width: 6;
  stroke-linecap: round;
  stroke-linejoin:round;
}

.stroke_order_diagram--path_start {
  fill: rgba(255, 0, 0, 0.7);
  stroke:none
}</style><desc>Created with Snap</desc><defs></defs><line x1="1" x2="899" y1="1" y2="1" class="stroke_order_diagram--bounding_box"></line><line x1="1" x2="1" y1="1" y2="99" class="stroke_order_diagram--bounding_box"></line><line x1="1" x2="899" y1="99" y2="99" class="stroke_order_diagram--bounding_box"></line><line x1="0" x2="900" y1="50" y2="50" class="stroke_order_diagram--guide_line"></line><line x1="50" x2="50" y1="1" y2="99" class="stroke_order_diagram--guide_line"></line><line x1="99" x2="99" y1="1" y2="99" class="stroke_order_diagram--bounding_box"></line><path id="kvg:0662f-s1" kvg:type="㇑" d="M33.77,14.8c0.76,1.2,1,2.18,1.21,3.58c0.81,5.45,2.52,16.08,3.43,21.88c0.36,2.32,0.6,3.87,0.6,4.02" transform="matrix(1,0,0,1,-4,-4)" class="stroke_order_diagram--current_path"></path><path id="pathSk2v596cn11d9" kvg:type="㇑" d="M33.77,14.8c0.76,1.2,1,2.18,1.21,3.58c0.81,5.45,2.52,16.08,3.43,21.88c0.36,2.32,0.6,3.87,0.6,4.02" transform="matrix(1,0,0,1,-4,-4)" class="stroke_order_diagram--current_path"></path><circle cx="33.77" cy="14.8" r="8" class="stroke_order_diagram--path_start" transform="matrix(1,0,0,1,-4,-4)"></circle><line x1="150" x2="150" y1="1" y2="99" class="stroke_order_diagram--guide_line"></line><line x1="199" x2="199" y1="1" y2="99" class="stroke_order_diagram--bounding_box"></line><path id="pathSk2v596cn11dc" kvg:type="㇑" d="M33.77,14.8c0.76,1.2,1,2.18,1.21,3.58c0.81,5.45,2.52,16.08,3.43,21.88c0.36,2.32,0.6,3.87,0.6,4.02" transform="matrix(1,0,0,1,96,-4)" class="stroke_order_diagram--existing_path"></path><path id="kvg:0662f-s2" kvg:type="㇕a" d="M35.64,16.44c8.49-1.69,23.36-3.94,33.01-4.74c3.48-0.29,5.55,0.37,5.1,4.07c-0.5,4.09-1.81,11.81-3.03,20.03c-0.23,1.55-0.46,3.13-0.7,4.71" transform="matrix(1,0,0,1,96,-4)" class="stroke_order_diagram--current_path"></path><path id="pathSk2v596cn11de" kvg:type="㇕a" d="M35.64,16.44c8.49-1.69,23.36-3.94,33.01-4.74c3.48-0.29,5.55,0.37,5.1,4.07c-0.5,4.09-1.81,11.81-3.03,20.03c-0.23,1.55-0.46,3.13-0.7,4.71" transform="matrix(1,0,0,1,96,-4)" class="stroke_order_diagram--current_path"></path><circle cx="35.64" cy="16.44" r="8" class="stroke_order_diagram--path_start" transform="matrix(1,0,0,1,96,-4)"></circle><line x1="250" x2="250" y1="1" y2="99" class="stroke_order_diagram--guide_line"></line><line x1="299" x2="299" y1="1" y2="99" class="stroke_order_diagram--bounding_box"></line><path id="pathSk2v596cn11dh" kvg:type="㇑" d="M33.77,14.8c0.76,1.2,1,2.18,1.21,3.58c0.81,5.45,2.52,16.08,3.43,21.88c0.36,2.32,0.6,3.87,0.6,4.02" transform="matrix(1,0,0,1,196,-4)" class="stroke_order_diagram--existing_path"></path><path id="pathSk2v596cn11di" kvg:type="㇕a" d="M35.64,16.44c8.49-1.69,23.36-3.94,33.01-4.74c3.48-0.29,5.55,0.37,5.1,4.07c-0.5,4.09-1.81,11.81-3.03,20.03c-0.23,1.55-0.46,3.13-0.7,4.71" transform="matrix(1,0,0,1,196,-4)" class="stroke_order_diagram--existing_path"></path><path id="kvg:0662f-s3" kvg:type="㇐a" d="M37.75,28.99c9.25-1.24,24.13-3.11,33.36-3.48" transform="matrix(1,0,0,1,196,-4)" class="stroke_order_diagram--current_path"></path><path id="pathSk2v596cn11dk" kvg:type="㇐a" d="M37.75,28.99c9.25-1.24,24.13-3.11,33.36-3.48" transform="matrix(1,0,0,1,196,-4)" class="stroke_order_diagram--current_path"></path><circle cx="37.75" cy="28.99" r="8" class="stroke_order_diagram--path_start" transform="matrix(1,0,0,1,196,-4)"></circle><line x1="350" x2="350" y1="1" y2="99" class="stroke_order_diagram--guide_line"></line><line x1="399" x2="399" y1="1" y2="99" class="stroke_order_diagram--bounding_box"></line><path id="pathSk2v596cn11dn" kvg:type="㇑" d="M33.77,14.8c0.76,1.2,1,2.18,1.21,3.58c0.81,5.45,2.52,16.08,3.43,21.88c0.36,2.32,0.6,3.87,0.6,4.02" transform="matrix(1,0,0,1,296,-4)" class="stroke_order_diagram--existing_path"></path><path id="pathSk2v596cn11do" kvg:type="㇕a" d="M35.64,16.44c8.49-1.69,23.36-3.94,33.01-4.74c3.48-0.29,5.55,0.37,5.1,4.07c-0.5,4.09-1.81,11.81-3.03,20.03c-0.23,1.55-0.46,3.13-0.7,4.71" transform="matrix(1,0,0,1,296,-4)" class="stroke_order_diagram--existing_path"></path><path id="pathSk2v596cn11dp" kvg:type="㇐a" d="M37.75,28.99c9.25-1.24,24.13-3.11,33.36-3.48" transform="matrix(1,0,0,1,296,-4)" class="stroke_order_diagram--existing_path"></path><path id="kvg:0662f-s4" kvg:type="㇐a" d="M39.77,42.12c8.48-1.24,19.48-2.63,29.38-3.13" transform="matrix(1,0,0,1,296,-4)" class="stroke_order_diagram--current_path"></path><path id="pathSk2v596cn11dr" kvg:type="㇐a" d="M39.77,42.12c8.48-1.24,19.48-2.63,29.38-3.13" transform="matrix(1,0,0,1,296,-4)" class="stroke_order_diagram--current_path"></path><circle cx="39.77" cy="42.12" r="8" class="stroke_order_diagram--path_start" transform="matrix(1,0,0,1,296,-4)"></circle><line x1="450" x2="450" y1="1" y2="99" class="stroke_order_diagram--guide_line"></line><line x1="499" x2="499" y1="1" y2="99" class="stroke_order_diagram--bounding_box"></line><path id="pathSk2v596cn11du" kvg:type="㇑" d="M33.77,14.8c0.76,1.2,1,2.18,1.21,3.58c0.81,5.45,2.52,16.08,3.43,21.88c0.36,2.32,0.6,3.87,0.6,4.02" transform="matrix(1,0,0,1,396,-4)" class="stroke_order_diagram--existing_path"></path><path id="pathSk2v596cn11dv" kvg:type="㇕a" d="M35.64,16.44c8.49-1.69,23.36-3.94,33.01-4.74c3.48-0.29,5.55,0.37,5.1,4.07c-0.5,4.09-1.81,11.81-3.03,20.03c-0.23,1.55-0.46,3.13-0.7,4.71" transform="matrix(1,0,0,1,396,-4)" class="stroke_order_diagram--existing_path"></path><path id="pathSk2v596cn11dw" kvg:type="㇐a" d="M37.75,28.99c9.25-1.24,24.13-3.11,33.36-3.48" transform="matrix(1,0,0,1,396,-4)" class="stroke_order_diagram--existing_path"></path><path id="pathSk2v596cn11dx" kvg:type="㇐a" d="M39.77,42.12c8.48-1.24,19.48-2.63,29.38-3.13" transform="matrix(1,0,0,1,396,-4)" class="stroke_order_diagram--existing_path"></path><path id="kvg:0662f-s5" kvg:type="㇐" d="M18.75,55.45c3.3,1.18,7.39,0.57,10.76,0.05c13.74-2.12,37.73-5.24,51.75-5.88c3.25-0.15,6.54-0.27,9.75,0.42" transform="matrix(1,0,0,1,396,-4)" class="stroke_order_diagram--current_path"></path><path id="pathSk2v596cn11dz" kvg:type="㇐" d="M18.75,55.45c3.3,1.18,7.39,0.57,10.76,0.05c13.74-2.12,37.73-5.24,51.75-5.88c3.25-0.15,6.54-0.27,9.75,0.42" transform="matrix(1,0,0,1,396,-4)" class="stroke_order_diagram--current_path"></path><circle cx="18.75" cy="55.45" r="8" class="stroke_order_diagram--path_start" transform="matrix(1,0,0,1,396,-4)"></circle><line x1="550" x2="550" y1="1" y2="99" class="stroke_order_diagram--guide_line"></line><line x1="599" x2="599" y1="1" y2="99" class="stroke_order_diagram--bounding_box"></line><path id="pathSk2v596cn11e2" kvg:type="㇑" d="M33.77,14.8c0.76,1.2,1,2.18,1.21,3.58c0.81,5.45,2.52,16.08,3.43,21.88c0.36,2.32,0.6,3.87,0.6,4.02" transform="matrix(1,0,0,1,496,-4)" class="stroke_order_diagram--existing_path"></path><path id="pathSk2v596cn11e3" kvg:type="㇕a" d="M35.64,16.44c8.49-1.69,23.36-3.94,33.01-4.74c3.48-0.29,5.55,0.37,5.1,4.07c-0.5,4.09-1.81,11.81-3.03,20.03c-0.23,1.55-0.46,3.13-0.7,4.71" transform="matrix(1,0,0,1,496,-4)" class="stroke_order_diagram--existing_path"></path><path id="pathSk2v596cn11e4" kvg:type="㇐a" d="M37.75,28.99c9.25-1.24,24.13-3.11,33.36-3.48" transform="matrix(1,0,0,1,496,-4)" class="stroke_order_diagram--existing_path"></path><path id="pathSk2v596cn11e5" kvg:type="㇐a" d="M39.77,42.12c8.48-1.24,19.48-2.63,29.38-3.13" transform="matrix(1,0,0,1,496,-4)" class="stroke_order_diagram--existing_path"></path><path id="pathSk2v596cn11e6" kvg:type="㇐" d="M18.75,55.45c3.3,1.18,7.39,0.57,10.76,0.05c13.74-2.12,37.73-5.24,51.75-5.88c3.25-0.15,6.54-0.27,9.75,0.42" transform="matrix(1,0,0,1,496,-4)" class="stroke_order_diagram--existing_path"></path><path id="kvg:0662f-s6" kvg:type="㇑a" d="M53.25,55c1.12,1.12,1.5,2.5,1.5,3.75c0,1.03,0,20,0,27.75" transform="matrix(1,0,0,1,496,-4)" class="stroke_order_diagram--current_path"></path><path id="pathSk2v596cn11e8" kvg:type="㇑a" d="M53.25,55c1.12,1.12,1.5,2.5,1.5,3.75c0,1.03,0,20,0,27.75" transform="matrix(1,0,0,1,496,-4)" class="stroke_order_diagram--current_path"></path><circle cx="53.25" cy="55" r="8" class="stroke_order_diagram--path_start" transform="matrix(1,0,0,1,496,-4)"></circle><line x1="650" x2="650" y1="1" y2="99" class="stroke_order_diagram--guide_line"></line><line x1="699" x2="699" y1="1" y2="99" class="stroke_order_diagram--bounding_box"></line><path id="pathSk2v596cn11eb" kvg:type="㇑" d="M33.77,14.8c0.76,1.2,1,2.18,1.21,3.58c0.81,5.45,2.52,16.08,3.43,21.88c0.36,2.32,0.6,3.87,0.6,4.02" transform="matrix(1,0,0,1,596,-4)" class="stroke_order_diagram--existing_path"></path><path id="pathSk2v596cn11ec" kvg:type="㇕a" d="M35.64,16.44c8.49-1.69,23.36-3.94,33.01-4.74c3.48-0.29,5.55,0.37,5.1,4.07c-0.5,4.09-1.81,11.81-3.03,20.03c-0.23,1.55-0.46,3.13-0.7,4.71" transform="matrix(1,0,0,1,596,-4)" class="stroke_order_diagram--existing_path"></path><path id="pathSk2v596cn11ed" kvg:type="㇐a" d="M37.75,28.99c9.25-1.24,24.13-3.11,33.36-3.48" transform="matrix(1,0,0,1,596,-4)" class="stroke_order_diagram--existing_path"></path><path id="pathSk2v596cn11ee" kvg:type="㇐a" d="M39.77,42.12c8.48-1.24,19.48-2.63,29.38-3.13" transform="matrix(1,0,0,1,596,-4)" class="stroke_order_diagram--existing_path"></path><path id="pathSk2v596cn11ef" kvg:type="㇐" d="M18.75,55.45c3.3,1.18,7.39,0.57,10.76,0.05c13.74-2.12,37.73-5.24,51.75-5.88c3.25-0.15,6.54-0.27,9.75,0.42" transform="matrix(1,0,0,1,596,-4)" class="stroke_order_diagram--existing_path"></path><path id="pathSk2v596cn11eg" kvg:type="㇑a" d="M53.25,55c1.12,1.12,1.5,2.5,1.5,3.75c0,1.03,0,20,0,27.75" transform="matrix(1,0,0,1,596,-4)" class="stroke_order_diagram--existing_path"></path><path id="kvg:0662f-s7" kvg:type="㇐b" d="M56.1,68.77C64,68,70.38,67.25,75.71,66.89c1.56-0.11,2.5,0.18,3.29,0.37" transform="matrix(1,0,0,1,596,-4)" class="stroke_order_diagram--current_path"></path><path id="pathSk2v596cn11ei" kvg:type="㇐b" d="M56.1,68.77C64,68,70.38,67.25,75.71,66.89c1.56-0.11,2.5,0.18,3.29,0.37" transform="matrix(1,0,0,1,596,-4)" class="stroke_order_diagram--current_path"></path><circle cx="56.1" cy="68.77" r="8" class="stroke_order_diagram--path_start" transform="matrix(1,0,0,1,596,-4)"></circle><line x1="750" x2="750" y1="1" y2="99" class="stroke_order_diagram--guide_line"></line><line x1="799" x2="799" y1="1" y2="99" class="stroke_order_diagram--bounding_box"></line><path id="pathSk2v596cn11el" kvg:type="㇑" d="M33.77,14.8c0.76,1.2,1,2.18,1.21,3.58c0.81,5.45,2.52,16.08,3.43,21.88c0.36,2.32,0.6,3.87,0.6,4.02" transform="matrix(1,0,0,1,696,-4)" class="stroke_order_diagram--existing_path"></path><path id="pathSk2v596cn11em" kvg:type="㇕a" d="M35.64,16.44c8.49-1.69,23.36-3.94,33.01-4.74c3.48-0.29,5.55,0.37,5.1,4.07c-0.5,4.09-1.81,11.81-3.03,20.03c-0.23,1.55-0.46,3.13-0.7,4.71" transform="matrix(1,0,0,1,696,-4)" class="stroke_order_diagram--existing_path"></path><path id="pathSk2v596cn11en" kvg:type="㇐a" d="M37.75,28.99c9.25-1.24,24.13-3.11,33.36-3.48" transform="matrix(1,0,0,1,696,-4)" class="stroke_order_diagram--existing_path"></path><path id="pathSk2v596cn11eo" kvg:type="㇐a" d="M39.77,42.12c8.48-1.24,19.48-2.63,29.38-3.13" transform="matrix(1,0,0,1,696,-4)" class="stroke_order_diagram--existing_path"></path><path id="pathSk2v596cn11ep" kvg:type="㇐" d="M18.75,55.45c3.3,1.18,7.39,0.57,10.76,0.05c13.74-2.12,37.73-5.24,51.75-5.88c3.25-0.15,6.54-0.27,9.75,0.42" transform="matrix(1,0,0,1,696,-4)" class="stroke_order_diagram--existing_path"></path><path id="pathSk2v596cn11eq" kvg:type="㇑a" d="M53.25,55c1.12,1.12,1.5,2.5,1.5,3.75c0,1.03,0,20,0,27.75" transform="matrix(1,0,0,1,696,-4)" class="stroke_order_diagram--existing_path"></path><path id="pathSk2v596cn11er" kvg:type="㇐b" d="M56.1,68.77C64,68,70.38,67.25,75.71,66.89c1.56-0.11,2.5,0.18,3.29,0.37" transform="matrix(1,0,0,1,696,-4)" class="stroke_order_diagram--existing_path"></path><path id="kvg:0662f-s8" kvg:type="㇒" d="M36,68.14c0.05,0.63,0.11,1.62-0.1,2.52c-1.24,5.31-8.38,16.96-18.15,24.09" transform="matrix(1,0,0,1,696,-4)" class="stroke_order_diagram--current_path"></path><path id="pathSk2v596cn11et" kvg:type="㇒" d="M36,68.14c0.05,0.63,0.11,1.62-0.1,2.52c-1.24,5.31-8.38,16.96-18.15,24.09" transform="matrix(1,0,0,1,696,-4)" class="stroke_order_diagram--current_path"></path><circle cx="36" cy="68.14" r="8" class="stroke_order_diagram--path_start" transform="matrix(1,0,0,1,696,-4)"></circle><line x1="850" x2="850" y1="1" y2="99" class="stroke_order_diagram--guide_line"></line><line x1="899" x2="899" y1="1" y2="99" class="stroke_order_diagram--bounding_box"></line><path id="pathSk2v596cn11ew" kvg:type="㇑" d="M33.77,14.8c0.76,1.2,1,2.18,1.21,3.58c0.81,5.45,2.52,16.08,3.43,21.88c0.36,2.32,0.6,3.87,0.6,4.02" transform="matrix(1,0,0,1,796,-4)" class="stroke_order_diagram--existing_path"></path><path id="pathSk2v596cn11ex" kvg:type="㇕a" d="M35.64,16.44c8.49-1.69,23.36-3.94,33.01-4.74c3.48-0.29,5.55,0.37,5.1,4.07c-0.5,4.09-1.81,11.81-3.03,20.03c-0.23,1.55-0.46,3.13-0.7,4.71" transform="matrix(1,0,0,1,796,-4)" class="stroke_order_diagram--existing_path"></path><path id="pathSk2v596cn11ey" kvg:type="㇐a" d="M37.75,28.99c9.25-1.24,24.13-3.11,33.36-3.48" transform="matrix(1,0,0,1,796,-4)" class="stroke_order_diagram--existing_path"></path><path id="pathSk2v596cn11ez" kvg:type="㇐a" d="M39.77,42.12c8.48-1.24,19.48-2.63,29.38-3.13" transform="matrix(1,0,0,1,796,-4)" class="stroke_order_diagram--existing_path"></path><path id="pathSk2v596cn11f0" kvg:type="㇐" d="M18.75,55.45c3.3,1.18,7.39,0.57,10.76,0.05c13.74-2.12,37.73-5.24,51.75-5.88c3.25-0.15,6.54-0.27,9.75,0.42" transform="matrix(1,0,0,1,796,-4)" class="stroke_order_diagram--existing_path"></path><path id="pathSk2v596cn11f1" kvg:type="㇑a" d="M53.25,55c1.12,1.12,1.5,2.5,1.5,3.75c0,1.03,0,20,0,27.75" transform="matrix(1,0,0,1,796,-4)" class="stroke_order_diagram--existing_path"></path><path id="pathSk2v596cn11f2" kvg:type="㇐b" d="M56.1,68.77C64,68,70.38,67.25,75.71,66.89c1.56-0.11,2.5,0.18,3.29,0.37" transform="matrix(1,0,0,1,796,-4)" class="stroke_order_diagram--existing_path"></path><path id="pathSk2v596cn11f3" kvg:type="㇒" d="M36,68.14c0.05,0.63,0.11,1.62-0.1,2.52c-1.24,5.31-8.38,16.96-18.15,24.09" transform="matrix(1,0,0,1,796,-4)" class="stroke_order_diagram--existing_path"></path><path id="kvg:0662f-s9" kvg:type="㇏" d="M33,80.25c7.24,2.16,30.82,11.12,42.46,15.1c4.12,1.41,7.41,2.4,12.29,3.15" transform="matrix(1,0,0,1,796,-4)" class="stroke_order_diagram--current_path"></path><path id="pathSk2v596cn11f5" kvg:type="㇏" d="M33,80.25c7.24,2.16,30.82,11.12,42.46,15.1c4.12,1.41,7.41,2.4,12.29,3.15" transform="matrix(1,0,0,1,796,-4)" class="stroke_order_diagram--current_path"></path><circle cx="33" cy="80.25" r="8" class="stroke_order_diagram--path_start" transform="matrix(1,0,0,1,796,-4)"></circle></svg>