<svg style="width: 1200px; height: 100px;" viewbox="0 0 1200 100"><style>
.stroke_order_diagram--outer_container {
  width: 100%;
  overflow-x: auto;
  overflow-y: hidden;
}

.stroke_order_diagram--guide_line {
  fill: none;
  stroke: #ddd;
  stroke-width: 3;
  stroke-linecap: square;
  stroke-linejoin: square;
  stroke-dasharray:8, 8;
}

.stroke_order_diagram--bounding_box {
  fill: none;
  stroke: #ddd;
  stroke-width: 4;
  stroke-linecap: square;
  stroke-linejoin: square;
}

.stroke_order_diagram--current_path {
  fill: none;
  stroke: #000;
  stroke-width: 6;
  stroke-linecap: round;
  stroke-linejoin: round;
}

.stroke_order_diagram--existing_path {
  fill: none;
  stroke: #aaa;
  stroke-width: 6;
  stroke-linecap: round;
  stroke-linejoin:round;
}

.stroke_order_diagram--path_start {
  fill: rgba(255, 0, 0, 0.7);
  stroke:none
}</style><desc>Created with Snap</desc><defs></defs><line x1="1" x2="1199" y1="1" y2="1" class="stroke_order_diagram--bounding_box"></line><line x1="1" x2="1" y1="1" y2="99" class="stroke_order_diagram--bounding_box"></line><line x1="1" x2="1199" y1="99" y2="99" class="stroke_order_diagram--bounding_box"></line><line x1="0" x2="1200" y1="50" y2="50" class="stroke_order_diagram--guide_line"></line><line x1="50" x2="50" y1="1" y2="99" class="stroke_order_diagram--guide_line"></line><line x1="99" x2="99" y1="1" y2="99" class="stroke_order_diagram--bounding_box"></line><path id="kvg:0666e-s1" kvg:type="㇔" d="M35.88,13.5c2.99,1.57,7.73,6.45,8.48,8.89" transform="matrix(1,0,0,1,-4,-4)" class="stroke_order_diagram--current_path"></path><path id="pathSk2v596cn26v6" kvg:type="㇔" d="M35.88,13.5c2.99,1.57,7.73,6.45,8.48,8.89" transform="matrix(1,0,0,1,-4,-4)" class="stroke_order_diagram--current_path"></path><circle cx="35.88" cy="13.5" r="8" class="stroke_order_diagram--path_start" transform="matrix(1,0,0,1,-4,-4)"></circle><line x1="150" x2="150" y1="1" y2="99" class="stroke_order_diagram--guide_line"></line><line x1="199" x2="199" y1="1" y2="99" class="stroke_order_diagram--bounding_box"></line><path id="pathSk2v596cn26v9" kvg:type="㇔" d="M35.88,13.5c2.99,1.57,7.73,6.45,8.48,8.89" transform="matrix(1,0,0,1,96,-4)" class="stroke_order_diagram--existing_path"></path><path id="kvg:0666e-s2" kvg:type="㇒" d="M68.78,12.26c0.13,0.71,0,1.36-0.39,1.94c-1.11,2.43-2.05,4.77-5.98,9.4" transform="matrix(1,0,0,1,96,-4)" class="stroke_order_diagram--current_path"></path><path id="pathSk2v596cn26vb" kvg:type="㇒" d="M68.78,12.26c0.13,0.71,0,1.36-0.39,1.94c-1.11,2.43-2.05,4.77-5.98,9.4" transform="matrix(1,0,0,1,96,-4)" class="stroke_order_diagram--current_path"></path><circle cx="68.78" cy="12.26" r="8" class="stroke_order_diagram--path_start" transform="matrix(1,0,0,1,96,-4)"></circle><line x1="250" x2="250" y1="1" y2="99" class="stroke_order_diagram--guide_line"></line><line x1="299" x2="299" y1="1" y2="99" class="stroke_order_diagram--bounding_box"></line><path id="pathSk2v596cn26ve" kvg:type="㇔" d="M35.88,13.5c2.99,1.57,7.73,6.45,8.48,8.89" transform="matrix(1,0,0,1,196,-4)" class="stroke_order_diagram--existing_path"></path><path id="pathSk2v596cn26vf" kvg:type="㇒" d="M68.78,12.26c0.13,0.71,0,1.36-0.39,1.94c-1.11,2.43-2.05,4.77-5.98,9.4" transform="matrix(1,0,0,1,196,-4)" class="stroke_order_diagram--existing_path"></path><path id="kvg:0666e-s3" kvg:type="㇐" d="M25.25,28.65c2.88,0.73,5.4,0.35,7.88,0.13c10.44-0.93,34.61-3.21,44.75-3.8c2.41-0.14,4.76-0.04,7.12,0.53" transform="matrix(1,0,0,1,196,-4)" class="stroke_order_diagram--current_path"></path><path id="pathSk2v596cn26vh" kvg:type="㇐" d="M25.25,28.65c2.88,0.73,5.4,0.35,7.88,0.13c10.44-0.93,34.61-3.21,44.75-3.8c2.41-0.14,4.76-0.04,7.12,0.53" transform="matrix(1,0,0,1,196,-4)" class="stroke_order_diagram--current_path"></path><circle cx="25.25" cy="28.65" r="8" class="stroke_order_diagram--path_start" transform="matrix(1,0,0,1,196,-4)"></circle><line x1="350" x2="350" y1="1" y2="99" class="stroke_order_diagram--guide_line"></line><line x1="399" x2="399" y1="1" y2="99" class="stroke_order_diagram--bounding_box"></line><path id="pathSk2v596cn26vk" kvg:type="㇔" d="M35.88,13.5c2.99,1.57,7.73,6.45,8.48,8.89" transform="matrix(1,0,0,1,296,-4)" class="stroke_order_diagram--existing_path"></path><path id="pathSk2v596cn26vl" kvg:type="㇒" d="M68.78,12.26c0.13,0.71,0,1.36-0.39,1.94c-1.11,2.43-2.05,4.77-5.98,9.4" transform="matrix(1,0,0,1,296,-4)" class="stroke_order_diagram--existing_path"></path><path id="pathSk2v596cn26vm" kvg:type="㇐" d="M25.25,28.65c2.88,0.73,5.4,0.35,7.88,0.13c10.44-0.93,34.61-3.21,44.75-3.8c2.41-0.14,4.76-0.04,7.12,0.53" transform="matrix(1,0,0,1,296,-4)" class="stroke_order_diagram--existing_path"></path><path id="kvg:0666e-s4" kvg:type="㇑a" d="M44.12,31.25c0.94,0.94,0.96,2.48,0.96,3.5c0,8.25,0.03,11,0.03,19.75" transform="matrix(1,0,0,1,296,-4)" class="stroke_order_diagram--current_path"></path><path id="pathSk2v596cn26vo" kvg:type="㇑a" d="M44.12,31.25c0.94,0.94,0.96,2.48,0.96,3.5c0,8.25,0.03,11,0.03,19.75" transform="matrix(1,0,0,1,296,-4)" class="stroke_order_diagram--current_path"></path><circle cx="44.12" cy="31.25" r="8" class="stroke_order_diagram--path_start" transform="matrix(1,0,0,1,296,-4)"></circle><line x1="450" x2="450" y1="1" y2="99" class="stroke_order_diagram--guide_line"></line><line x1="499" x2="499" y1="1" y2="99" class="stroke_order_diagram--bounding_box"></line><path id="pathSk2v596cn26vr" kvg:type="㇔" d="M35.88,13.5c2.99,1.57,7.73,6.45,8.48,8.89" transform="matrix(1,0,0,1,396,-4)" class="stroke_order_diagram--existing_path"></path><path id="pathSk2v596cn26vs" kvg:type="㇒" d="M68.78,12.26c0.13,0.71,0,1.36-0.39,1.94c-1.11,2.43-2.05,4.77-5.98,9.4" transform="matrix(1,0,0,1,396,-4)" class="stroke_order_diagram--existing_path"></path><path id="pathSk2v596cn26vt" kvg:type="㇐" d="M25.25,28.65c2.88,0.73,5.4,0.35,7.88,0.13c10.44-0.93,34.61-3.21,44.75-3.8c2.41-0.14,4.76-0.04,7.12,0.53" transform="matrix(1,0,0,1,396,-4)" class="stroke_order_diagram--existing_path"></path><path id="pathSk2v596cn26vu" kvg:type="㇑a" d="M44.12,31.25c0.94,0.94,0.96,2.48,0.96,3.5c0,8.25,0.03,11,0.03,19.75" transform="matrix(1,0,0,1,396,-4)" class="stroke_order_diagram--existing_path"></path><path id="kvg:0666e-s5" kvg:type="㇑a" d="M62.87,29.25c0.94,0.94,1.24,2.23,1.21,3.25c-0.2,7.38-0.7,12.5-1.22,20.75" transform="matrix(1,0,0,1,396,-4)" class="stroke_order_diagram--current_path"></path><path id="pathSk2v596cn26vw" kvg:type="㇑a" d="M62.87,29.25c0.94,0.94,1.24,2.23,1.21,3.25c-0.2,7.38-0.7,12.5-1.22,20.75" transform="matrix(1,0,0,1,396,-4)" class="stroke_order_diagram--current_path"></path><circle cx="62.87" cy="29.25" r="8" class="stroke_order_diagram--path_start" transform="matrix(1,0,0,1,396,-4)"></circle><line x1="550" x2="550" y1="1" y2="99" class="stroke_order_diagram--guide_line"></line><line x1="599" x2="599" y1="1" y2="99" class="stroke_order_diagram--bounding_box"></line><path id="pathSk2v596cn26vz" kvg:type="㇔" d="M35.88,13.5c2.99,1.57,7.73,6.45,8.48,8.89" transform="matrix(1,0,0,1,496,-4)" class="stroke_order_diagram--existing_path"></path><path id="pathSk2v596cn26w0" kvg:type="㇒" d="M68.78,12.26c0.13,0.71,0,1.36-0.39,1.94c-1.11,2.43-2.05,4.77-5.98,9.4" transform="matrix(1,0,0,1,496,-4)" class="stroke_order_diagram--existing_path"></path><path id="pathSk2v596cn26w1" kvg:type="㇐" d="M25.25,28.65c2.88,0.73,5.4,0.35,7.88,0.13c10.44-0.93,34.61-3.21,44.75-3.8c2.41-0.14,4.76-0.04,7.12,0.53" transform="matrix(1,0,0,1,496,-4)" class="stroke_order_diagram--existing_path"></path><path id="pathSk2v596cn26w2" kvg:type="㇑a" d="M44.12,31.25c0.94,0.94,0.96,2.48,0.96,3.5c0,8.25,0.03,11,0.03,19.75" transform="matrix(1,0,0,1,496,-4)" class="stroke_order_diagram--existing_path"></path><path id="pathSk2v596cn26w3" kvg:type="㇑a" d="M62.87,29.25c0.94,0.94,1.24,2.23,1.21,3.25c-0.2,7.38-0.7,12.5-1.22,20.75" transform="matrix(1,0,0,1,496,-4)" class="stroke_order_diagram--existing_path"></path><path id="kvg:0666e-s6" kvg:type="㇔" d="M23.62,39.12c2.73,1.94,7.05,8,7.73,11.02" transform="matrix(1,0,0,1,496,-4)" class="stroke_order_diagram--current_path"></path><path id="pathSk2v596cn26w5" kvg:type="㇔" d="M23.62,39.12c2.73,1.94,7.05,8,7.73,11.02" transform="matrix(1,0,0,1,496,-4)" class="stroke_order_diagram--current_path"></path><circle cx="23.62" cy="39.12" r="8" class="stroke_order_diagram--path_start" transform="matrix(1,0,0,1,496,-4)"></circle><line x1="650" x2="650" y1="1" y2="99" class="stroke_order_diagram--guide_line"></line><line x1="699" x2="699" y1="1" y2="99" class="stroke_order_diagram--bounding_box"></line><path id="pathSk2v596cn26w8" kvg:type="㇔" d="M35.88,13.5c2.99,1.57,7.73,6.45,8.48,8.89" transform="matrix(1,0,0,1,596,-4)" class="stroke_order_diagram--existing_path"></path><path id="pathSk2v596cn26w9" kvg:type="㇒" d="M68.78,12.26c0.13,0.71,0,1.36-0.39,1.94c-1.11,2.43-2.05,4.77-5.98,9.4" transform="matrix(1,0,0,1,596,-4)" class="stroke_order_diagram--existing_path"></path><path id="pathSk2v596cn26wa" kvg:type="㇐" d="M25.25,28.65c2.88,0.73,5.4,0.35,7.88,0.13c10.44-0.93,34.61-3.21,44.75-3.8c2.41-0.14,4.76-0.04,7.12,0.53" transform="matrix(1,0,0,1,596,-4)" class="stroke_order_diagram--existing_path"></path><path id="pathSk2v596cn26wb" kvg:type="㇑a" d="M44.12,31.25c0.94,0.94,0.96,2.48,0.96,3.5c0,8.25,0.03,11,0.03,19.75" transform="matrix(1,0,0,1,596,-4)" class="stroke_order_diagram--existing_path"></path><path id="pathSk2v596cn26wc" kvg:type="㇑a" d="M62.87,29.25c0.94,0.94,1.24,2.23,1.21,3.25c-0.2,7.38-0.7,12.5-1.22,20.75" transform="matrix(1,0,0,1,596,-4)" class="stroke_order_diagram--existing_path"></path><path id="pathSk2v596cn26wd" kvg:type="㇔" d="M23.62,39.12c2.73,1.94,7.05,8,7.73,11.02" transform="matrix(1,0,0,1,596,-4)" class="stroke_order_diagram--existing_path"></path><path id="kvg:0666e-s7" kvg:type="㇒" d="M82.78,34.26c0.08,0.78,0.06,1.57-0.34,2.23c-1.93,3.13-4.31,6.38-8.53,10.61" transform="matrix(1,0,0,1,596,-4)" class="stroke_order_diagram--current_path"></path><path id="pathSk2v596cn26wf" kvg:type="㇒" d="M82.78,34.26c0.08,0.78,0.06,1.57-0.34,2.23c-1.93,3.13-4.31,6.38-8.53,10.61" transform="matrix(1,0,0,1,596,-4)" class="stroke_order_diagram--current_path"></path><circle cx="82.78" cy="34.26" r="8" class="stroke_order_diagram--path_start" transform="matrix(1,0,0,1,596,-4)"></circle><line x1="750" x2="750" y1="1" y2="99" class="stroke_order_diagram--guide_line"></line><line x1="799" x2="799" y1="1" y2="99" class="stroke_order_diagram--bounding_box"></line><path id="pathSk2v596cn26wi" kvg:type="㇔" d="M35.88,13.5c2.99,1.57,7.73,6.45,8.48,8.89" transform="matrix(1,0,0,1,696,-4)" class="stroke_order_diagram--existing_path"></path><path id="pathSk2v596cn26wj" kvg:type="㇒" d="M68.78,12.26c0.13,0.71,0,1.36-0.39,1.94c-1.11,2.43-2.05,4.77-5.98,9.4" transform="matrix(1,0,0,1,696,-4)" class="stroke_order_diagram--existing_path"></path><path id="pathSk2v596cn26wk" kvg:type="㇐" d="M25.25,28.65c2.88,0.73,5.4,0.35,7.88,0.13c10.44-0.93,34.61-3.21,44.75-3.8c2.41-0.14,4.76-0.04,7.12,0.53" transform="matrix(1,0,0,1,696,-4)" class="stroke_order_diagram--existing_path"></path><path id="pathSk2v596cn26wl" kvg:type="㇑a" d="M44.12,31.25c0.94,0.94,0.96,2.48,0.96,3.5c0,8.25,0.03,11,0.03,19.75" transform="matrix(1,0,0,1,696,-4)" class="stroke_order_diagram--existing_path"></path><path id="pathSk2v596cn26wm" kvg:type="㇑a" d="M62.87,29.25c0.94,0.94,1.24,2.23,1.21,3.25c-0.2,7.38-0.7,12.5-1.22,20.75" transform="matrix(1,0,0,1,696,-4)" class="stroke_order_diagram--existing_path"></path><path id="pathSk2v596cn26wn" kvg:type="㇔" d="M23.62,39.12c2.73,1.94,7.05,8,7.73,11.02" transform="matrix(1,0,0,1,696,-4)" class="stroke_order_diagram--existing_path"></path><path id="pathSk2v596cn26wo" kvg:type="㇒" d="M82.78,34.26c0.08,0.78,0.06,1.57-0.34,2.23c-1.93,3.13-4.31,6.38-8.53,10.61" transform="matrix(1,0,0,1,696,-4)" class="stroke_order_diagram--existing_path"></path><path id="kvg:0666e-s8" kvg:type="㇐" d="M13.75,56.95c2.82,1.01,6.58,1,9.5,0.7c15.08-1.59,44.45-3.96,61.5-4.69c3.45-0.15,7.12,0.12,10.5,0.84" transform="matrix(1,0,0,1,696,-4)" class="stroke_order_diagram--current_path"></path><path id="pathSk2v596cn26wq" kvg:type="㇐" d="M13.75,56.95c2.82,1.01,6.58,1,9.5,0.7c15.08-1.59,44.45-3.96,61.5-4.69c3.45-0.15,7.12,0.12,10.5,0.84" transform="matrix(1,0,0,1,696,-4)" class="stroke_order_diagram--current_path"></path><circle cx="13.75" cy="56.95" r="8" class="stroke_order_diagram--path_start" transform="matrix(1,0,0,1,696,-4)"></circle><line x1="850" x2="850" y1="1" y2="99" class="stroke_order_diagram--guide_line"></line><line x1="899" x2="899" y1="1" y2="99" class="stroke_order_diagram--bounding_box"></line><path id="pathSk2v596cn26wt" kvg:type="㇔" d="M35.88,13.5c2.99,1.57,7.73,6.45,8.48,8.89" transform="matrix(1,0,0,1,796,-4)" class="stroke_order_diagram--existing_path"></path><path id="pathSk2v596cn26wu" kvg:type="㇒" d="M68.78,12.26c0.13,0.71,0,1.36-0.39,1.94c-1.11,2.43-2.05,4.77-5.98,9.4" transform="matrix(1,0,0,1,796,-4)" class="stroke_order_diagram--existing_path"></path><path id="pathSk2v596cn26wv" kvg:type="㇐" d="M25.25,28.65c2.88,0.73,5.4,0.35,7.88,0.13c10.44-0.93,34.61-3.21,44.75-3.8c2.41-0.14,4.76-0.04,7.12,0.53" transform="matrix(1,0,0,1,796,-4)" class="stroke_order_diagram--existing_path"></path><path id="pathSk2v596cn26ww" kvg:type="㇑a" d="M44.12,31.25c0.94,0.94,0.96,2.48,0.96,3.5c0,8.25,0.03,11,0.03,19.75" transform="matrix(1,0,0,1,796,-4)" class="stroke_order_diagram--existing_path"></path><path id="pathSk2v596cn26wx" kvg:type="㇑a" d="M62.87,29.25c0.94,0.94,1.24,2.23,1.21,3.25c-0.2,7.38-0.7,12.5-1.22,20.75" transform="matrix(1,0,0,1,796,-4)" class="stroke_order_diagram--existing_path"></path><path id="pathSk2v596cn26wy" kvg:type="㇔" d="M23.62,39.12c2.73,1.94,7.05,8,7.73,11.02" transform="matrix(1,0,0,1,796,-4)" class="stroke_order_diagram--existing_path"></path><path id="pathSk2v596cn26wz" kvg:type="㇒" d="M82.78,34.26c0.08,0.78,0.06,1.57-0.34,2.23c-1.93,3.13-4.31,6.38-8.53,10.61" transform="matrix(1,0,0,1,796,-4)" class="stroke_order_diagram--existing_path"></path><path id="pathSk2v596cn26x0" kvg:type="㇐" d="M13.75,56.95c2.82,1.01,6.58,1,9.5,0.7c15.08-1.59,44.45-3.96,61.5-4.69c3.45-0.15,7.12,0.12,10.5,0.84" transform="matrix(1,0,0,1,796,-4)" class="stroke_order_diagram--existing_path"></path><path id="kvg:0666e-s9" kvg:type="㇑" d="M34.77,65.9c0.98,0.98,0.97,1.97,0.97,3.48c0,3.22,0,15.89,0,24.37c0,1.7,0,3.24,0,4.49" transform="matrix(1,0,0,1,796,-4)" class="stroke_order_diagram--current_path"></path><path id="pathSk2v596cn26x2" kvg:type="㇑" d="M34.77,65.9c0.98,0.98,0.97,1.97,0.97,3.48c0,3.22,0,15.89,0,24.37c0,1.7,0,3.24,0,4.49" transform="matrix(1,0,0,1,796,-4)" class="stroke_order_diagram--current_path"></path><circle cx="34.77" cy="65.9" r="8" class="stroke_order_diagram--path_start" transform="matrix(1,0,0,1,796,-4)"></circle><line x1="950" x2="950" y1="1" y2="99" class="stroke_order_diagram--guide_line"></line><line x1="999" x2="999" y1="1" y2="99" class="stroke_order_diagram--bounding_box"></line><path id="pathSk2v596cn26x5" kvg:type="㇔" d="M35.88,13.5c2.99,1.57,7.73,6.45,8.48,8.89" transform="matrix(1,0,0,1,896,-4)" class="stroke_order_diagram--existing_path"></path><path id="pathSk2v596cn26x6" kvg:type="㇒" d="M68.78,12.26c0.13,0.71,0,1.36-0.39,1.94c-1.11,2.43-2.05,4.77-5.98,9.4" transform="matrix(1,0,0,1,896,-4)" class="stroke_order_diagram--existing_path"></path><path id="pathSk2v596cn26x7" kvg:type="㇐" d="M25.25,28.65c2.88,0.73,5.4,0.35,7.88,0.13c10.44-0.93,34.61-3.21,44.75-3.8c2.41-0.14,4.76-0.04,7.12,0.53" transform="matrix(1,0,0,1,896,-4)" class="stroke_order_diagram--existing_path"></path><path id="pathSk2v596cn26x8" kvg:type="㇑a" d="M44.12,31.25c0.94,0.94,0.96,2.48,0.96,3.5c0,8.25,0.03,11,0.03,19.75" transform="matrix(1,0,0,1,896,-4)" class="stroke_order_diagram--existing_path"></path><path id="pathSk2v596cn26x9" kvg:type="㇑a" d="M62.87,29.25c0.94,0.94,1.24,2.23,1.21,3.25c-0.2,7.38-0.7,12.5-1.22,20.75" transform="matrix(1,0,0,1,896,-4)" class="stroke_order_diagram--existing_path"></path><path id="pathSk2v596cn26xa" kvg:type="㇔" d="M23.62,39.12c2.73,1.94,7.05,8,7.73,11.02" transform="matrix(1,0,0,1,896,-4)" class="stroke_order_diagram--existing_path"></path><path id="pathSk2v596cn26xb" kvg:type="㇒" d="M82.78,34.26c0.08,0.78,0.06,1.57-0.34,2.23c-1.93,3.13-4.31,6.38-8.53,10.61" transform="matrix(1,0,0,1,896,-4)" class="stroke_order_diagram--existing_path"></path><path id="pathSk2v596cn26xc" kvg:type="㇐" d="M13.75,56.95c2.82,1.01,6.58,1,9.5,0.7c15.08-1.59,44.45-3.96,61.5-4.69c3.45-0.15,7.12,0.12,10.5,0.84" transform="matrix(1,0,0,1,896,-4)" class="stroke_order_diagram--existing_path"></path><path id="pathSk2v596cn26xd" kvg:type="㇑" d="M34.77,65.9c0.98,0.98,0.97,1.97,0.97,3.48c0,3.22,0,15.89,0,24.37c0,1.7,0,3.24,0,4.49" transform="matrix(1,0,0,1,896,-4)" class="stroke_order_diagram--existing_path"></path><path id="kvg:0666e-s10" kvg:type="㇕a" d="M36.54,68.47c2.49-0.18,25.49-2.89,31.45-3.54c2.68-0.29,4.48,0.62,4.48,3.44C72.46,72.5,72.42,84.22,72.39,91c-0.01,2.94-0.02,4.94-0.02,5" transform="matrix(1,0,0,1,896,-4)" class="stroke_order_diagram--current_path"></path><path id="pathSk2v596cn26xf" kvg:type="㇕a" d="M36.54,68.47c2.49-0.18,25.49-2.89,31.45-3.54c2.68-0.29,4.48,0.62,4.48,3.44C72.46,72.5,72.42,84.22,72.39,91c-0.01,2.94-0.02,4.94-0.02,5" transform="matrix(1,0,0,1,896,-4)" class="stroke_order_diagram--current_path"></path><circle cx="36.54" cy="68.47" r="8" class="stroke_order_diagram--path_start" transform="matrix(1,0,0,1,896,-4)"></circle><line x1="1050" x2="1050" y1="1" y2="99" class="stroke_order_diagram--guide_line"></line><line x1="1099" x2="1099" y1="1" y2="99" class="stroke_order_diagram--bounding_box"></line><path id="pathSk2v596cn26xi" kvg:type="㇔" d="M35.88,13.5c2.99,1.57,7.73,6.45,8.48,8.89" transform="matrix(1,0,0,1,996,-4)" class="stroke_order_diagram--existing_path"></path><path id="pathSk2v596cn26xj" kvg:type="㇒" d="M68.78,12.26c0.13,0.71,0,1.36-0.39,1.94c-1.11,2.43-2.05,4.77-5.98,9.4" transform="matrix(1,0,0,1,996,-4)" class="stroke_order_diagram--existing_path"></path><path id="pathSk2v596cn26xk" kvg:type="㇐" d="M25.25,28.65c2.88,0.73,5.4,0.35,7.88,0.13c10.44-0.93,34.61-3.21,44.75-3.8c2.41-0.14,4.76-0.04,7.12,0.53" transform="matrix(1,0,0,1,996,-4)" class="stroke_order_diagram--existing_path"></path><path id="pathSk2v596cn26xl" kvg:type="㇑a" d="M44.12,31.25c0.94,0.94,0.96,2.48,0.96,3.5c0,8.25,0.03,11,0.03,19.75" transform="matrix(1,0,0,1,996,-4)" class="stroke_order_diagram--existing_path"></path><path id="pathSk2v596cn26xm" kvg:type="㇑a" d="M62.87,29.25c0.94,0.94,1.24,2.23,1.21,3.25c-0.2,7.38-0.7,12.5-1.22,20.75" transform="matrix(1,0,0,1,996,-4)" class="stroke_order_diagram--existing_path"></path><path id="pathSk2v596cn26xn" kvg:type="㇔" d="M23.62,39.12c2.73,1.94,7.05,8,7.73,11.02" transform="matrix(1,0,0,1,996,-4)" class="stroke_order_diagram--existing_path"></path><path id="pathSk2v596cn26xo" kvg:type="㇒" d="M82.78,34.26c0.08,0.78,0.06,1.57-0.34,2.23c-1.93,3.13-4.31,6.38-8.53,10.61" transform="matrix(1,0,0,1,996,-4)" class="stroke_order_diagram--existing_path"></path><path id="pathSk2v596cn26xp" kvg:type="㇐" d="M13.75,56.95c2.82,1.01,6.58,1,9.5,0.7c15.08-1.59,44.45-3.96,61.5-4.69c3.45-0.15,7.12,0.12,10.5,0.84" transform="matrix(1,0,0,1,996,-4)" class="stroke_order_diagram--existing_path"></path><path id="pathSk2v596cn26xq" kvg:type="㇑" d="M34.77,65.9c0.98,0.98,0.97,1.97,0.97,3.48c0,3.22,0,15.89,0,24.37c0,1.7,0,3.24,0,4.49" transform="matrix(1,0,0,1,996,-4)" class="stroke_order_diagram--existing_path"></path><path id="pathSk2v596cn26xr" kvg:type="㇕a" d="M36.54,68.47c2.49-0.18,25.49-2.89,31.45-3.54c2.68-0.29,4.48,0.62,4.48,3.44C72.46,72.5,72.42,84.22,72.39,91c-0.01,2.94-0.02,4.94-0.02,5" transform="matrix(1,0,0,1,996,-4)" class="stroke_order_diagram--existing_path"></path><path id="kvg:0666e-s11" kvg:type="㇐a" d="M37.03,81.25c5.6-0.62,30.23-3.1,34.42-3.21" transform="matrix(1,0,0,1,996,-4)" class="stroke_order_diagram--current_path"></path><path id="pathSk2v596cn26xt" kvg:type="㇐a" d="M37.03,81.25c5.6-0.62,30.23-3.1,34.42-3.21" transform="matrix(1,0,0,1,996,-4)" class="stroke_order_diagram--current_path"></path><circle cx="37.03" cy="81.25" r="8" class="stroke_order_diagram--path_start" transform="matrix(1,0,0,1,996,-4)"></circle><line x1="1150" x2="1150" y1="1" y2="99" class="stroke_order_diagram--guide_line"></line><line x1="1199" x2="1199" y1="1" y2="99" class="stroke_order_diagram--bounding_box"></line><path id="pathSk2v596cn26xw" kvg:type="㇔" d="M35.88,13.5c2.99,1.57,7.73,6.45,8.48,8.89" transform="matrix(1,0,0,1,1096,-4)" class="stroke_order_diagram--existing_path"></path><path id="pathSk2v596cn26xx" kvg:type="㇒" d="M68.78,12.26c0.13,0.71,0,1.36-0.39,1.94c-1.11,2.43-2.05,4.77-5.98,9.4" transform="matrix(1,0,0,1,1096,-4)" class="stroke_order_diagram--existing_path"></path><path id="pathSk2v596cn26xy" kvg:type="㇐" d="M25.25,28.65c2.88,0.73,5.4,0.35,7.88,0.13c10.44-0.93,34.61-3.21,44.75-3.8c2.41-0.14,4.76-0.04,7.12,0.53" transform="matrix(1,0,0,1,1096,-4)" class="stroke_order_diagram--existing_path"></path><path id="pathSk2v596cn26xz" kvg:type="㇑a" d="M44.12,31.25c0.94,0.94,0.96,2.48,0.96,3.5c0,8.25,0.03,11,0.03,19.75" transform="matrix(1,0,0,1,1096,-4)" class="stroke_order_diagram--existing_path"></path><path id="pathSk2v596cn26y0" kvg:type="㇑a" d="M62.87,29.25c0.94,0.94,1.24,2.23,1.21,3.25c-0.2,7.38-0.7,12.5-1.22,20.75" transform="matrix(1,0,0,1,1096,-4)" class="stroke_order_diagram--existing_path"></path><path id="pathSk2v596cn26y1" kvg:type="㇔" d="M23.62,39.12c2.73,1.94,7.05,8,7.73,11.02" transform="matrix(1,0,0,1,1096,-4)" class="stroke_order_diagram--existing_path"></path><path id="pathSk2v596cn26y2" kvg:type="㇒" d="M82.78,34.26c0.08,0.78,0.06,1.57-0.34,2.23c-1.93,3.13-4.31,6.38-8.53,10.61" transform="matrix(1,0,0,1,1096,-4)" class="stroke_order_diagram--existing_path"></path><path id="pathSk2v596cn26y3" kvg:type="㇐" d="M13.75,56.95c2.82,1.01,6.58,1,9.5,0.7c15.08-1.59,44.45-3.96,61.5-4.69c3.45-0.15,7.12,0.12,10.5,0.84" transform="matrix(1,0,0,1,1096,-4)" class="stroke_order_diagram--existing_path"></path><path id="pathSk2v596cn26y4" kvg:type="㇑" d="M34.77,65.9c0.98,0.98,0.97,1.97,0.97,3.48c0,3.22,0,15.89,0,24.37c0,1.7,0,3.24,0,4.49" transform="matrix(1,0,0,1,1096,-4)" class="stroke_order_diagram--existing_path"></path><path id="pathSk2v596cn26y5" kvg:type="㇕a" d="M36.54,68.47c2.49-0.18,25.49-2.89,31.45-3.54c2.68-0.29,4.48,0.62,4.48,3.44C72.46,72.5,72.42,84.22,72.39,91c-0.01,2.94-0.02,4.94-0.02,5" transform="matrix(1,0,0,1,1096,-4)" class="stroke_order_diagram--existing_path"></path><path id="pathSk2v596cn26y6" kvg:type="㇐a" d="M37.03,81.25c5.6-0.62,30.23-3.1,34.42-3.21" transform="matrix(1,0,0,1,1096,-4)" class="stroke_order_diagram--existing_path"></path><path id="kvg:0666e-s12" kvg:type="㇐a" d="M36.86,95.56c7.55-0.71,23.89-2.06,34.33-2.73" transform="matrix(1,0,0,1,1096,-4)" class="stroke_order_diagram--current_path"></path><path id="pathSk2v596cn26y8" kvg:type="㇐a" d="M36.86,95.56c7.55-0.71,23.89-2.06,34.33-2.73" transform="matrix(1,0,0,1,1096,-4)" class="stroke_order_diagram--current_path"></path><circle cx="36.86" cy="95.56" r="8" class="stroke_order_diagram--path_start" transform="matrix(1,0,0,1,1096,-4)"></circle></svg>