<svg style="width: 800px; height: 100px;" viewbox="0 0 800 100"><style>
.stroke_order_diagram--outer_container {
  width: 100%;
  overflow-x: auto;
  overflow-y: hidden;
}

.stroke_order_diagram--guide_line {
  fill: none;
  stroke: #ddd;
  stroke-width: 3;
  stroke-linecap: square;
  stroke-linejoin: square;
  stroke-dasharray:8, 8;
}

.stroke_order_diagram--bounding_box {
  fill: none;
  stroke: #ddd;
  stroke-width: 4;
  stroke-linecap: square;
  stroke-linejoin: square;
}

.stroke_order_diagram--current_path {
  fill: none;
  stroke: #000;
  stroke-width: 6;
  stroke-linecap: round;
  stroke-linejoin: round;
}

.stroke_order_diagram--existing_path {
  fill: none;
  stroke: #aaa;
  stroke-width: 6;
  stroke-linecap: round;
  stroke-linejoin:round;
}

.stroke_order_diagram--path_start {
  fill: rgba(255, 0, 0, 0.7);
  stroke:none
}</style><desc>Created with Snap</desc><defs></defs><line x1="1" x2="799" y1="1" y2="1" class="stroke_order_diagram--bounding_box"></line><line x1="1" x2="1" y1="1" y2="99" class="stroke_order_diagram--bounding_box"></line><line x1="1" x2="799" y1="99" y2="99" class="stroke_order_diagram--bounding_box"></line><line x1="0" x2="800" y1="50" y2="50" class="stroke_order_diagram--guide_line"></line><line x1="50" x2="50" y1="1" y2="99" class="stroke_order_diagram--guide_line"></line><line x1="99" x2="99" y1="1" y2="99" class="stroke_order_diagram--bounding_box"></line><path id="kvg:0670d-s1" kvg:type="㇒" d="M19.92,19.5c0.98,0.98,1.41,2.23,1.42,3.25c0.4,41.62-1.72,55.38-9.1,68.75" transform="matrix(1,0,0,1,-4,-4)" class="stroke_order_diagram--current_path"></path><path id="pathSk2v596cnd8j" kvg:type="㇒" d="M19.92,19.5c0.98,0.98,1.41,2.23,1.42,3.25c0.4,41.62-1.72,55.38-9.1,68.75" transform="matrix(1,0,0,1,-4,-4)" class="stroke_order_diagram--current_path"></path><circle cx="19.92" cy="19.5" r="8" class="stroke_order_diagram--path_start" transform="matrix(1,0,0,1,-4,-4)"></circle><line x1="150" x2="150" y1="1" y2="99" class="stroke_order_diagram--guide_line"></line><line x1="199" x2="199" y1="1" y2="99" class="stroke_order_diagram--bounding_box"></line><path id="pathSk2v596cnd8m" kvg:type="㇒" d="M19.92,19.5c0.98,0.98,1.41,2.23,1.42,3.25c0.4,41.62-1.72,55.38-9.1,68.75" transform="matrix(1,0,0,1,96,-4)" class="stroke_order_diagram--existing_path"></path><path id="kvg:0670d-s2" kvg:type="㇆a" d="M22.52,21.25c2.34-0.25,11.84-2.53,13.59-2.75c2.01-0.25,3.91,1.12,3.91,4c0,1.49-0.09,40.25-0.09,60.5c0,12.38-5.68,6.25-8.64,3" transform="matrix(1,0,0,1,96,-4)" class="stroke_order_diagram--current_path"></path><path id="pathSk2v596cnd8o" kvg:type="㇆a" d="M22.52,21.25c2.34-0.25,11.84-2.53,13.59-2.75c2.01-0.25,3.91,1.12,3.91,4c0,1.49-0.09,40.25-0.09,60.5c0,12.38-5.68,6.25-8.64,3" transform="matrix(1,0,0,1,96,-4)" class="stroke_order_diagram--current_path"></path><circle cx="22.52" cy="21.25" r="8" class="stroke_order_diagram--path_start" transform="matrix(1,0,0,1,96,-4)"></circle><line x1="250" x2="250" y1="1" y2="99" class="stroke_order_diagram--guide_line"></line><line x1="299" x2="299" y1="1" y2="99" class="stroke_order_diagram--bounding_box"></line><path id="pathSk2v596cnd8r" kvg:type="㇒" d="M19.92,19.5c0.98,0.98,1.41,2.23,1.42,3.25c0.4,41.62-1.72,55.38-9.1,68.75" transform="matrix(1,0,0,1,196,-4)" class="stroke_order_diagram--existing_path"></path><path id="pathSk2v596cnd8s" kvg:type="㇆a" d="M22.52,21.25c2.34-0.25,11.84-2.53,13.59-2.75c2.01-0.25,3.91,1.12,3.91,4c0,1.49-0.09,40.25-0.09,60.5c0,12.38-5.68,6.25-8.64,3" transform="matrix(1,0,0,1,196,-4)" class="stroke_order_diagram--existing_path"></path><path id="kvg:0670d-s3" kvg:type="㇐a" d="M22.52,39.75C27.75,39,34.5,38,39.15,37.5" transform="matrix(1,0,0,1,196,-4)" class="stroke_order_diagram--current_path"></path><path id="pathSk2v596cnd8u" kvg:type="㇐a" d="M22.52,39.75C27.75,39,34.5,38,39.15,37.5" transform="matrix(1,0,0,1,196,-4)" class="stroke_order_diagram--current_path"></path><circle cx="22.52" cy="39.75" r="8" class="stroke_order_diagram--path_start" transform="matrix(1,0,0,1,196,-4)"></circle><line x1="350" x2="350" y1="1" y2="99" class="stroke_order_diagram--guide_line"></line><line x1="399" x2="399" y1="1" y2="99" class="stroke_order_diagram--bounding_box"></line><path id="pathSk2v596cnd8x" kvg:type="㇒" d="M19.92,19.5c0.98,0.98,1.41,2.23,1.42,3.25c0.4,41.62-1.72,55.38-9.1,68.75" transform="matrix(1,0,0,1,296,-4)" class="stroke_order_diagram--existing_path"></path><path id="pathSk2v596cnd8y" kvg:type="㇆a" d="M22.52,21.25c2.34-0.25,11.84-2.53,13.59-2.75c2.01-0.25,3.91,1.12,3.91,4c0,1.49-0.09,40.25-0.09,60.5c0,12.38-5.68,6.25-8.64,3" transform="matrix(1,0,0,1,296,-4)" class="stroke_order_diagram--existing_path"></path><path id="pathSk2v596cnd8z" kvg:type="㇐a" d="M22.52,39.75C27.75,39,34.5,38,39.15,37.5" transform="matrix(1,0,0,1,296,-4)" class="stroke_order_diagram--existing_path"></path><path id="kvg:0670d-s4" kvg:type="㇐a" d="M22,57.25C27,56.5,33.38,55.5,38.51,55" transform="matrix(1,0,0,1,296,-4)" class="stroke_order_diagram--current_path"></path><path id="pathSk2v596cnd91" kvg:type="㇐a" d="M22,57.25C27,56.5,33.38,55.5,38.51,55" transform="matrix(1,0,0,1,296,-4)" class="stroke_order_diagram--current_path"></path><circle cx="22" cy="57.25" r="8" class="stroke_order_diagram--path_start" transform="matrix(1,0,0,1,296,-4)"></circle><line x1="450" x2="450" y1="1" y2="99" class="stroke_order_diagram--guide_line"></line><line x1="499" x2="499" y1="1" y2="99" class="stroke_order_diagram--bounding_box"></line><path id="pathSk2v596cnd94" kvg:type="㇒" d="M19.92,19.5c0.98,0.98,1.41,2.23,1.42,3.25c0.4,41.62-1.72,55.38-9.1,68.75" transform="matrix(1,0,0,1,396,-4)" class="stroke_order_diagram--existing_path"></path><path id="pathSk2v596cnd95" kvg:type="㇆a" d="M22.52,21.25c2.34-0.25,11.84-2.53,13.59-2.75c2.01-0.25,3.91,1.12,3.91,4c0,1.49-0.09,40.25-0.09,60.5c0,12.38-5.68,6.25-8.64,3" transform="matrix(1,0,0,1,396,-4)" class="stroke_order_diagram--existing_path"></path><path id="pathSk2v596cnd96" kvg:type="㇐a" d="M22.52,39.75C27.75,39,34.5,38,39.15,37.5" transform="matrix(1,0,0,1,396,-4)" class="stroke_order_diagram--existing_path"></path><path id="pathSk2v596cnd97" kvg:type="㇐a" d="M22,57.25C27,56.5,33.38,55.5,38.51,55" transform="matrix(1,0,0,1,396,-4)" class="stroke_order_diagram--existing_path"></path><path id="kvg:0670d-s5" kvg:type="㇆" d="M49.25,17c0.83,0.47,2.46,1.38,4.51,1.13C62.75,17,76.02,15.2,78,15c2.5-0.25,7.41-0.15,5.5,4.75c-1.75,4.5-3.14,8.91-5,12.75c-4,8.25-7.75,3.75-9.75,1.25" transform="matrix(1,0,0,1,396,-4)" class="stroke_order_diagram--current_path"></path><path id="pathSk2v596cnd99" kvg:type="㇆" d="M49.25,17c0.83,0.47,2.46,1.38,4.51,1.13C62.75,17,76.02,15.2,78,15c2.5-0.25,7.41-0.15,5.5,4.75c-1.75,4.5-3.14,8.91-5,12.75c-4,8.25-7.75,3.75-9.75,1.25" transform="matrix(1,0,0,1,396,-4)" class="stroke_order_diagram--current_path"></path><circle cx="49.25" cy="17" r="8" class="stroke_order_diagram--path_start" transform="matrix(1,0,0,1,396,-4)"></circle><line x1="550" x2="550" y1="1" y2="99" class="stroke_order_diagram--guide_line"></line><line x1="599" x2="599" y1="1" y2="99" class="stroke_order_diagram--bounding_box"></line><path id="pathSk2v596cnd9c" kvg:type="㇒" d="M19.92,19.5c0.98,0.98,1.41,2.23,1.42,3.25c0.4,41.62-1.72,55.38-9.1,68.75" transform="matrix(1,0,0,1,496,-4)" class="stroke_order_diagram--existing_path"></path><path id="pathSk2v596cnd9d" kvg:type="㇆a" d="M22.52,21.25c2.34-0.25,11.84-2.53,13.59-2.75c2.01-0.25,3.91,1.12,3.91,4c0,1.49-0.09,40.25-0.09,60.5c0,12.38-5.68,6.25-8.64,3" transform="matrix(1,0,0,1,496,-4)" class="stroke_order_diagram--existing_path"></path><path id="pathSk2v596cnd9e" kvg:type="㇐a" d="M22.52,39.75C27.75,39,34.5,38,39.15,37.5" transform="matrix(1,0,0,1,496,-4)" class="stroke_order_diagram--existing_path"></path><path id="pathSk2v596cnd9f" kvg:type="㇐a" d="M22,57.25C27,56.5,33.38,55.5,38.51,55" transform="matrix(1,0,0,1,496,-4)" class="stroke_order_diagram--existing_path"></path><path id="pathSk2v596cnd9g" kvg:type="㇆" d="M49.25,17c0.83,0.47,2.46,1.38,4.51,1.13C62.75,17,76.02,15.2,78,15c2.5-0.25,7.41-0.15,5.5,4.75c-1.75,4.5-3.14,8.91-5,12.75c-4,8.25-7.75,3.75-9.75,1.25" transform="matrix(1,0,0,1,496,-4)" class="stroke_order_diagram--existing_path"></path><path id="kvg:0670d-s6" kvg:type="㇑" d="M51.87,18.25c0.63,0.63,0.96,2.23,0.96,3.25c0,2.93-0.15,45.78-0.2,65.25c-0.01,3.79-0.02,6.7-0.02,8.25" transform="matrix(1,0,0,1,496,-4)" class="stroke_order_diagram--current_path"></path><path id="pathSk2v596cnd9i" kvg:type="㇑" d="M51.87,18.25c0.63,0.63,0.96,2.23,0.96,3.25c0,2.93-0.15,45.78-0.2,65.25c-0.01,3.79-0.02,6.7-0.02,8.25" transform="matrix(1,0,0,1,496,-4)" class="stroke_order_diagram--current_path"></path><circle cx="51.87" cy="18.25" r="8" class="stroke_order_diagram--path_start" transform="matrix(1,0,0,1,496,-4)"></circle><line x1="650" x2="650" y1="1" y2="99" class="stroke_order_diagram--guide_line"></line><line x1="699" x2="699" y1="1" y2="99" class="stroke_order_diagram--bounding_box"></line><path id="pathSk2v596cnd9l" kvg:type="㇒" d="M19.92,19.5c0.98,0.98,1.41,2.23,1.42,3.25c0.4,41.62-1.72,55.38-9.1,68.75" transform="matrix(1,0,0,1,596,-4)" class="stroke_order_diagram--existing_path"></path><path id="pathSk2v596cnd9m" kvg:type="㇆a" d="M22.52,21.25c2.34-0.25,11.84-2.53,13.59-2.75c2.01-0.25,3.91,1.12,3.91,4c0,1.49-0.09,40.25-0.09,60.5c0,12.38-5.68,6.25-8.64,3" transform="matrix(1,0,0,1,596,-4)" class="stroke_order_diagram--existing_path"></path><path id="pathSk2v596cnd9n" kvg:type="㇐a" d="M22.52,39.75C27.75,39,34.5,38,39.15,37.5" transform="matrix(1,0,0,1,596,-4)" class="stroke_order_diagram--existing_path"></path><path id="pathSk2v596cnd9o" kvg:type="㇐a" d="M22,57.25C27,56.5,33.38,55.5,38.51,55" transform="matrix(1,0,0,1,596,-4)" class="stroke_order_diagram--existing_path"></path><path id="pathSk2v596cnd9p" kvg:type="㇆" d="M49.25,17c0.83,0.47,2.46,1.38,4.51,1.13C62.75,17,76.02,15.2,78,15c2.5-0.25,7.41-0.15,5.5,4.75c-1.75,4.5-3.14,8.91-5,12.75c-4,8.25-7.75,3.75-9.75,1.25" transform="matrix(1,0,0,1,596,-4)" class="stroke_order_diagram--existing_path"></path><path id="pathSk2v596cnd9q" kvg:type="㇑" d="M51.87,18.25c0.63,0.63,0.96,2.23,0.96,3.25c0,2.93-0.15,45.78-0.2,65.25c-0.01,3.79-0.02,6.7-0.02,8.25" transform="matrix(1,0,0,1,596,-4)" class="stroke_order_diagram--existing_path"></path><path id="kvg:0670d-s7" kvg:type="㇇" d="M56.34,50.35c2.03,0.53,3.78,0.51,5.61,0.05c1.83-0.45,16.71-4.66,17.97-5.1c2.87-0.99,4.49,1.17,3.96,3.33C80,64.75,70.25,80.5,60.5,90" transform="matrix(1,0,0,1,596,-4)" class="stroke_order_diagram--current_path"></path><path id="pathSk2v596cnd9s" kvg:type="㇇" d="M56.34,50.35c2.03,0.53,3.78,0.51,5.61,0.05c1.83-0.45,16.71-4.66,17.97-5.1c2.87-0.99,4.49,1.17,3.96,3.33C80,64.75,70.25,80.5,60.5,90" transform="matrix(1,0,0,1,596,-4)" class="stroke_order_diagram--current_path"></path><circle cx="56.34" cy="50.35" r="8" class="stroke_order_diagram--path_start" transform="matrix(1,0,0,1,596,-4)"></circle><line x1="750" x2="750" y1="1" y2="99" class="stroke_order_diagram--guide_line"></line><line x1="799" x2="799" y1="1" y2="99" class="stroke_order_diagram--bounding_box"></line><path id="pathSk2v596cnd9v" kvg:type="㇒" d="M19.92,19.5c0.98,0.98,1.41,2.23,1.42,3.25c0.4,41.62-1.72,55.38-9.1,68.75" transform="matrix(1,0,0,1,696,-4)" class="stroke_order_diagram--existing_path"></path><path id="pathSk2v596cnd9w" kvg:type="㇆a" d="M22.52,21.25c2.34-0.25,11.84-2.53,13.59-2.75c2.01-0.25,3.91,1.12,3.91,4c0,1.49-0.09,40.25-0.09,60.5c0,12.38-5.68,6.25-8.64,3" transform="matrix(1,0,0,1,696,-4)" class="stroke_order_diagram--existing_path"></path><path id="pathSk2v596cnd9x" kvg:type="㇐a" d="M22.52,39.75C27.75,39,34.5,38,39.15,37.5" transform="matrix(1,0,0,1,696,-4)" class="stroke_order_diagram--existing_path"></path><path id="pathSk2v596cnd9y" kvg:type="㇐a" d="M22,57.25C27,56.5,33.38,55.5,38.51,55" transform="matrix(1,0,0,1,696,-4)" class="stroke_order_diagram--existing_path"></path><path id="pathSk2v596cnd9z" kvg:type="㇆" d="M49.25,17c0.83,0.47,2.46,1.38,4.51,1.13C62.75,17,76.02,15.2,78,15c2.5-0.25,7.41-0.15,5.5,4.75c-1.75,4.5-3.14,8.91-5,12.75c-4,8.25-7.75,3.75-9.75,1.25" transform="matrix(1,0,0,1,696,-4)" class="stroke_order_diagram--existing_path"></path><path id="pathSk2v596cnda0" kvg:type="㇑" d="M51.87,18.25c0.63,0.63,0.96,2.23,0.96,3.25c0,2.93-0.15,45.78-0.2,65.25c-0.01,3.79-0.02,6.7-0.02,8.25" transform="matrix(1,0,0,1,696,-4)" class="stroke_order_diagram--existing_path"></path><path id="pathSk2v596cnda1" kvg:type="㇇" d="M56.34,50.35c2.03,0.53,3.78,0.51,5.61,0.05c1.83-0.45,16.71-4.66,17.97-5.1c2.87-0.99,4.49,1.17,3.96,3.33C80,64.75,70.25,80.5,60.5,90" transform="matrix(1,0,0,1,696,-4)" class="stroke_order_diagram--existing_path"></path><path id="kvg:0670d-s8" kvg:type="㇏" d="M59.4,58.98c2.91,0.74,15.91,17.85,26.71,27.92c2.41,2.25,4.39,4.23,7.64,6.04" transform="matrix(1,0,0,1,696,-4)" class="stroke_order_diagram--current_path"></path><path id="pathSk2v596cnda3" kvg:type="㇏" d="M59.4,58.98c2.91,0.74,15.91,17.85,26.71,27.92c2.41,2.25,4.39,4.23,7.64,6.04" transform="matrix(1,0,0,1,696,-4)" class="stroke_order_diagram--current_path"></path><circle cx="59.4" cy="58.98" r="8" class="stroke_order_diagram--path_start" transform="matrix(1,0,0,1,696,-4)"></circle></svg>