<svg style="width: 700px; height: 100px;" viewbox="0 0 700 100"><style>
.stroke_order_diagram--outer_container {
  width: 100%;
  overflow-x: auto;
  overflow-y: hidden;
}

.stroke_order_diagram--guide_line {
  fill: none;
  stroke: #ddd;
  stroke-width: 3;
  stroke-linecap: square;
  stroke-linejoin: square;
  stroke-dasharray:8, 8;
}

.stroke_order_diagram--bounding_box {
  fill: none;
  stroke: #ddd;
  stroke-width: 4;
  stroke-linecap: square;
  stroke-linejoin: square;
}

.stroke_order_diagram--current_path {
  fill: none;
  stroke: #000;
  stroke-width: 6;
  stroke-linecap: round;
  stroke-linejoin: round;
}

.stroke_order_diagram--existing_path {
  fill: none;
  stroke: #aaa;
  stroke-width: 6;
  stroke-linecap: round;
  stroke-linejoin:round;
}

.stroke_order_diagram--path_start {
  fill: rgba(255, 0, 0, 0.7);
  stroke:none
}</style><desc>Created with Snap</desc><defs></defs><line x1="1" x2="699" y1="1" y2="1" class="stroke_order_diagram--bounding_box"></line><line x1="1" x2="1" y1="1" y2="99" class="stroke_order_diagram--bounding_box"></line><line x1="1" x2="699" y1="99" y2="99" class="stroke_order_diagram--bounding_box"></line><line x1="0" x2="700" y1="50" y2="50" class="stroke_order_diagram--guide_line"></line><line x1="50" x2="50" y1="1" y2="99" class="stroke_order_diagram--guide_line"></line><line x1="99" x2="99" y1="1" y2="99" class="stroke_order_diagram--bounding_box"></line><path id="kvg:0675f-s1" kvg:type="㇐" d="M24.25,26.39c2.62,0.36,5.6,0.27,8.01-0.02c10.76-1.28,30.24-3.62,41.86-4.68c3.13-0.28,6-0.32,8.13,0.06" transform="matrix(1,0,0,1,-4,-4)" class="stroke_order_diagram--current_path"></path><path id="pathSk2v596cnucg" kvg:type="㇐" d="M24.25,26.39c2.62,0.36,5.6,0.27,8.01-0.02c10.76-1.28,30.24-3.62,41.86-4.68c3.13-0.28,6-0.32,8.13,0.06" transform="matrix(1,0,0,1,-4,-4)" class="stroke_order_diagram--current_path"></path><circle cx="24.25" cy="26.39" r="8" class="stroke_order_diagram--path_start" transform="matrix(1,0,0,1,-4,-4)"></circle><line x1="150" x2="150" y1="1" y2="99" class="stroke_order_diagram--guide_line"></line><line x1="199" x2="199" y1="1" y2="99" class="stroke_order_diagram--bounding_box"></line><path id="pathSk2v596cnucj" kvg:type="㇐" d="M24.25,26.39c2.62,0.36,5.6,0.27,8.01-0.02c10.76-1.28,30.24-3.62,41.86-4.68c3.13-0.28,6-0.32,8.13,0.06" transform="matrix(1,0,0,1,96,-4)" class="stroke_order_diagram--existing_path"></path><path id="kvg:0675f-s2" kvg:type="㇑" d="M27.25,41.57c0.9,0.9,1.56,2.06,1.79,3.26c0.94,4.9,1.7,10.07,2.38,14.91c0.19,1.37,0.38,2.71,0.56,4.01" transform="matrix(1,0,0,1,96,-4)" class="stroke_order_diagram--current_path"></path><path id="pathSk2v596cnucl" kvg:type="㇑" d="M27.25,41.57c0.9,0.9,1.56,2.06,1.79,3.26c0.94,4.9,1.7,10.07,2.38,14.91c0.19,1.37,0.38,2.71,0.56,4.01" transform="matrix(1,0,0,1,96,-4)" class="stroke_order_diagram--current_path"></path><circle cx="27.25" cy="41.57" r="8" class="stroke_order_diagram--path_start" transform="matrix(1,0,0,1,96,-4)"></circle><line x1="250" x2="250" y1="1" y2="99" class="stroke_order_diagram--guide_line"></line><line x1="299" x2="299" y1="1" y2="99" class="stroke_order_diagram--bounding_box"></line><path id="pathSk2v596cnuco" kvg:type="㇐" d="M24.25,26.39c2.62,0.36,5.6,0.27,8.01-0.02c10.76-1.28,30.24-3.62,41.86-4.68c3.13-0.28,6-0.32,8.13,0.06" transform="matrix(1,0,0,1,196,-4)" class="stroke_order_diagram--existing_path"></path><path id="pathSk2v596cnucp" kvg:type="㇑" d="M27.25,41.57c0.9,0.9,1.56,2.06,1.79,3.26c0.94,4.9,1.7,10.07,2.38,14.91c0.19,1.37,0.38,2.71,0.56,4.01" transform="matrix(1,0,0,1,196,-4)" class="stroke_order_diagram--existing_path"></path><path id="kvg:0675f-s3" kvg:type="㇕b" d="M29.74,43.64C42.5,41.75,69.5,39,76.33,38.49c2.93-0.22,4.77,2.45,4,4.64C78.25,49,77.75,51,76.11,55.49" transform="matrix(1,0,0,1,196,-4)" class="stroke_order_diagram--current_path"></path><path id="pathSk2v596cnucr" kvg:type="㇕b" d="M29.74,43.64C42.5,41.75,69.5,39,76.33,38.49c2.93-0.22,4.77,2.45,4,4.64C78.25,49,77.75,51,76.11,55.49" transform="matrix(1,0,0,1,196,-4)" class="stroke_order_diagram--current_path"></path><circle cx="29.74" cy="43.64" r="8" class="stroke_order_diagram--path_start" transform="matrix(1,0,0,1,196,-4)"></circle><line x1="350" x2="350" y1="1" y2="99" class="stroke_order_diagram--guide_line"></line><line x1="399" x2="399" y1="1" y2="99" class="stroke_order_diagram--bounding_box"></line><path id="pathSk2v596cnucu" kvg:type="㇐" d="M24.25,26.39c2.62,0.36,5.6,0.27,8.01-0.02c10.76-1.28,30.24-3.62,41.86-4.68c3.13-0.28,6-0.32,8.13,0.06" transform="matrix(1,0,0,1,296,-4)" class="stroke_order_diagram--existing_path"></path><path id="pathSk2v596cnucv" kvg:type="㇑" d="M27.25,41.57c0.9,0.9,1.56,2.06,1.79,3.26c0.94,4.9,1.7,10.07,2.38,14.91c0.19,1.37,0.38,2.71,0.56,4.01" transform="matrix(1,0,0,1,296,-4)" class="stroke_order_diagram--existing_path"></path><path id="pathSk2v596cnucw" kvg:type="㇕b" d="M29.74,43.64C42.5,41.75,69.5,39,76.33,38.49c2.93-0.22,4.77,2.45,4,4.64C78.25,49,77.75,51,76.11,55.49" transform="matrix(1,0,0,1,296,-4)" class="stroke_order_diagram--existing_path"></path><path id="kvg:0675f-s4" kvg:type="㇐b" d="M32.92,60.93c10.7-1.02,28.73-3.19,40.46-4.23c1.92-0.17,3.67-0.31,5.19-0.41" transform="matrix(1,0,0,1,296,-4)" class="stroke_order_diagram--current_path"></path><path id="pathSk2v596cnucy" kvg:type="㇐b" d="M32.92,60.93c10.7-1.02,28.73-3.19,40.46-4.23c1.92-0.17,3.67-0.31,5.19-0.41" transform="matrix(1,0,0,1,296,-4)" class="stroke_order_diagram--current_path"></path><circle cx="32.92" cy="60.93" r="8" class="stroke_order_diagram--path_start" transform="matrix(1,0,0,1,296,-4)"></circle><line x1="450" x2="450" y1="1" y2="99" class="stroke_order_diagram--guide_line"></line><line x1="499" x2="499" y1="1" y2="99" class="stroke_order_diagram--bounding_box"></line><path id="pathSk2v596cnud1" kvg:type="㇐" d="M24.25,26.39c2.62,0.36,5.6,0.27,8.01-0.02c10.76-1.28,30.24-3.62,41.86-4.68c3.13-0.28,6-0.32,8.13,0.06" transform="matrix(1,0,0,1,396,-4)" class="stroke_order_diagram--existing_path"></path><path id="pathSk2v596cnud2" kvg:type="㇑" d="M27.25,41.57c0.9,0.9,1.56,2.06,1.79,3.26c0.94,4.9,1.7,10.07,2.38,14.91c0.19,1.37,0.38,2.71,0.56,4.01" transform="matrix(1,0,0,1,396,-4)" class="stroke_order_diagram--existing_path"></path><path id="pathSk2v596cnud3" kvg:type="㇕b" d="M29.74,43.64C42.5,41.75,69.5,39,76.33,38.49c2.93-0.22,4.77,2.45,4,4.64C78.25,49,77.75,51,76.11,55.49" transform="matrix(1,0,0,1,396,-4)" class="stroke_order_diagram--existing_path"></path><path id="pathSk2v596cnud4" kvg:type="㇐b" d="M32.92,60.93c10.7-1.02,28.73-3.19,40.46-4.23c1.92-0.17,3.67-0.31,5.19-0.41" transform="matrix(1,0,0,1,396,-4)" class="stroke_order_diagram--existing_path"></path><path id="kvg:0675f-s5" kvg:type="㇑" d="M52,11.25c1.12,1.12,1.5,2.62,1.5,4c0,0.88,0,55.63,0,76.5c0,3.52,0,6.08,0,7.25" transform="matrix(1,0,0,1,396,-4)" class="stroke_order_diagram--current_path"></path><path id="pathSk2v596cnud6" kvg:type="㇑" d="M52,11.25c1.12,1.12,1.5,2.62,1.5,4c0,0.88,0,55.63,0,76.5c0,3.52,0,6.08,0,7.25" transform="matrix(1,0,0,1,396,-4)" class="stroke_order_diagram--current_path"></path><circle cx="52" cy="11.25" r="8" class="stroke_order_diagram--path_start" transform="matrix(1,0,0,1,396,-4)"></circle><line x1="550" x2="550" y1="1" y2="99" class="stroke_order_diagram--guide_line"></line><line x1="599" x2="599" y1="1" y2="99" class="stroke_order_diagram--bounding_box"></line><path id="pathSk2v596cnud9" kvg:type="㇐" d="M24.25,26.39c2.62,0.36,5.6,0.27,8.01-0.02c10.76-1.28,30.24-3.62,41.86-4.68c3.13-0.28,6-0.32,8.13,0.06" transform="matrix(1,0,0,1,496,-4)" class="stroke_order_diagram--existing_path"></path><path id="pathSk2v596cnuda" kvg:type="㇑" d="M27.25,41.57c0.9,0.9,1.56,2.06,1.79,3.26c0.94,4.9,1.7,10.07,2.38,14.91c0.19,1.37,0.38,2.71,0.56,4.01" transform="matrix(1,0,0,1,496,-4)" class="stroke_order_diagram--existing_path"></path><path id="pathSk2v596cnudb" kvg:type="㇕b" d="M29.74,43.64C42.5,41.75,69.5,39,76.33,38.49c2.93-0.22,4.77,2.45,4,4.64C78.25,49,77.75,51,76.11,55.49" transform="matrix(1,0,0,1,496,-4)" class="stroke_order_diagram--existing_path"></path><path id="pathSk2v596cnudc" kvg:type="㇐b" d="M32.92,60.93c10.7-1.02,28.73-3.19,40.46-4.23c1.92-0.17,3.67-0.31,5.19-0.41" transform="matrix(1,0,0,1,496,-4)" class="stroke_order_diagram--existing_path"></path><path id="pathSk2v596cnudd" kvg:type="㇑" d="M52,11.25c1.12,1.12,1.5,2.62,1.5,4c0,0.88,0,55.63,0,76.5c0,3.52,0,6.08,0,7.25" transform="matrix(1,0,0,1,496,-4)" class="stroke_order_diagram--existing_path"></path><path id="kvg:0675f-s6" kvg:type="㇒" d="M50.38,60c0,1-0.1,1.92-0.84,3.1C42.5,74.38,28.88,86.88,16.5,92.5" transform="matrix(1,0,0,1,496,-4)" class="stroke_order_diagram--current_path"></path><path id="pathSk2v596cnudf" kvg:type="㇒" d="M50.38,60c0,1-0.1,1.92-0.84,3.1C42.5,74.38,28.88,86.88,16.5,92.5" transform="matrix(1,0,0,1,496,-4)" class="stroke_order_diagram--current_path"></path><circle cx="50.38" cy="60" r="8" class="stroke_order_diagram--path_start" transform="matrix(1,0,0,1,496,-4)"></circle><line x1="650" x2="650" y1="1" y2="99" class="stroke_order_diagram--guide_line"></line><line x1="699" x2="699" y1="1" y2="99" class="stroke_order_diagram--bounding_box"></line><path id="pathSk2v596cnudi" kvg:type="㇐" d="M24.25,26.39c2.62,0.36,5.6,0.27,8.01-0.02c10.76-1.28,30.24-3.62,41.86-4.68c3.13-0.28,6-0.32,8.13,0.06" transform="matrix(1,0,0,1,596,-4)" class="stroke_order_diagram--existing_path"></path><path id="pathSk2v596cnudj" kvg:type="㇑" d="M27.25,41.57c0.9,0.9,1.56,2.06,1.79,3.26c0.94,4.9,1.7,10.07,2.38,14.91c0.19,1.37,0.38,2.71,0.56,4.01" transform="matrix(1,0,0,1,596,-4)" class="stroke_order_diagram--existing_path"></path><path id="pathSk2v596cnudk" kvg:type="㇕b" d="M29.74,43.64C42.5,41.75,69.5,39,76.33,38.49c2.93-0.22,4.77,2.45,4,4.64C78.25,49,77.75,51,76.11,55.49" transform="matrix(1,0,0,1,596,-4)" class="stroke_order_diagram--existing_path"></path><path id="pathSk2v596cnudl" kvg:type="㇐b" d="M32.92,60.93c10.7-1.02,28.73-3.19,40.46-4.23c1.92-0.17,3.67-0.31,5.19-0.41" transform="matrix(1,0,0,1,596,-4)" class="stroke_order_diagram--existing_path"></path><path id="pathSk2v596cnudm" kvg:type="㇑" d="M52,11.25c1.12,1.12,1.5,2.62,1.5,4c0,0.88,0,55.63,0,76.5c0,3.52,0,6.08,0,7.25" transform="matrix(1,0,0,1,596,-4)" class="stroke_order_diagram--existing_path"></path><path id="pathSk2v596cnudn" kvg:type="㇒" d="M50.38,60c0,1-0.1,1.92-0.84,3.1C42.5,74.38,28.88,86.88,16.5,92.5" transform="matrix(1,0,0,1,596,-4)" class="stroke_order_diagram--existing_path"></path><path id="kvg:0675f-s7" kvg:type="㇏" d="M56,60.5c4.35,3.21,20.69,16.75,28.89,23.01c2.73,2.08,5.36,3.74,8.49,4.62" transform="matrix(1,0,0,1,596,-4)" class="stroke_order_diagram--current_path"></path><path id="pathSk2v596cnudp" kvg:type="㇏" d="M56,60.5c4.35,3.21,20.69,16.75,28.89,23.01c2.73,2.08,5.36,3.74,8.49,4.62" transform="matrix(1,0,0,1,596,-4)" class="stroke_order_diagram--current_path"></path><circle cx="56" cy="60.5" r="8" class="stroke_order_diagram--path_start" transform="matrix(1,0,0,1,596,-4)"></circle></svg>