<svg style="width: 700px; height: 100px;" viewbox="0 0 700 100"><style>
.stroke_order_diagram--outer_container {
  width: 100%;
  overflow-x: auto;
  overflow-y: hidden;
}

.stroke_order_diagram--guide_line {
  fill: none;
  stroke: #ddd;
  stroke-width: 3;
  stroke-linecap: square;
  stroke-linejoin: square;
  stroke-dasharray:8, 8;
}

.stroke_order_diagram--bounding_box {
  fill: none;
  stroke: #ddd;
  stroke-width: 4;
  stroke-linecap: square;
  stroke-linejoin: square;
}

.stroke_order_diagram--current_path {
  fill: none;
  stroke: #000;
  stroke-width: 6;
  stroke-linecap: round;
  stroke-linejoin: round;
}

.stroke_order_diagram--existing_path {
  fill: none;
  stroke: #aaa;
  stroke-width: 6;
  stroke-linecap: round;
  stroke-linejoin:round;
}

.stroke_order_diagram--path_start {
  fill: rgba(255, 0, 0, 0.7);
  stroke:none
}</style><desc>Created with Snap</desc><defs></defs><line x1="1" x2="699" y1="1" y2="1" class="stroke_order_diagram--bounding_box"></line><line x1="1" x2="1" y1="1" y2="99" class="stroke_order_diagram--bounding_box"></line><line x1="1" x2="699" y1="99" y2="99" class="stroke_order_diagram--bounding_box"></line><line x1="0" x2="700" y1="50" y2="50" class="stroke_order_diagram--guide_line"></line><line x1="50" x2="50" y1="1" y2="99" class="stroke_order_diagram--guide_line"></line><line x1="99" x2="99" y1="1" y2="99" class="stroke_order_diagram--bounding_box"></line><path id="kvg:06750-s1" kvg:type="㇐" d="M13.78,34.47c2.22,0.53,4.65,0.26,6.35,0.05c6.15-0.75,18.88-2.61,25.39-3.65c1.09-0.17,2.56-0.24,3.24,0" transform="matrix(1,0,0,1,-4,-4)" class="stroke_order_diagram--current_path"></path><path id="pathSk2v596cnuaq" kvg:type="㇐" d="M13.78,34.47c2.22,0.53,4.65,0.26,6.35,0.05c6.15-0.75,18.88-2.61,25.39-3.65c1.09-0.17,2.56-0.24,3.24,0" transform="matrix(1,0,0,1,-4,-4)" class="stroke_order_diagram--current_path"></path><circle cx="13.78" cy="34.47" r="8" class="stroke_order_diagram--path_start" transform="matrix(1,0,0,1,-4,-4)"></circle><line x1="150" x2="150" y1="1" y2="99" class="stroke_order_diagram--guide_line"></line><line x1="199" x2="199" y1="1" y2="99" class="stroke_order_diagram--bounding_box"></line><path id="pathSk2v596cnuat" kvg:type="㇐" d="M13.78,34.47c2.22,0.53,4.65,0.26,6.35,0.05c6.15-0.75,18.88-2.61,25.39-3.65c1.09-0.17,2.56-0.24,3.24,0" transform="matrix(1,0,0,1,96,-4)" class="stroke_order_diagram--existing_path"></path><path id="kvg:06750-s2" kvg:type="㇑" d="M34.02,13.5c1.18,1.18,1.86,2.75,1.86,4.92c0,0.82-0.08,52-0.1,72.33c0,3.46-0.01,6.01-0.01,7.25" transform="matrix(1,0,0,1,96,-4)" class="stroke_order_diagram--current_path"></path><path id="pathSk2v596cnuav" kvg:type="㇑" d="M34.02,13.5c1.18,1.18,1.86,2.75,1.86,4.92c0,0.82-0.08,52-0.1,72.33c0,3.46-0.01,6.01-0.01,7.25" transform="matrix(1,0,0,1,96,-4)" class="stroke_order_diagram--current_path"></path><circle cx="34.02" cy="13.5" r="8" class="stroke_order_diagram--path_start" transform="matrix(1,0,0,1,96,-4)"></circle><line x1="250" x2="250" y1="1" y2="99" class="stroke_order_diagram--guide_line"></line><line x1="299" x2="299" y1="1" y2="99" class="stroke_order_diagram--bounding_box"></line><path id="pathSk2v596cnuay" kvg:type="㇐" d="M13.78,34.47c2.22,0.53,4.65,0.26,6.35,0.05c6.15-0.75,18.88-2.61,25.39-3.65c1.09-0.17,2.56-0.24,3.24,0" transform="matrix(1,0,0,1,196,-4)" class="stroke_order_diagram--existing_path"></path><path id="pathSk2v596cnuaz" kvg:type="㇑" d="M34.02,13.5c1.18,1.18,1.86,2.75,1.86,4.92c0,0.82-0.08,52-0.1,72.33c0,3.46-0.01,6.01-0.01,7.25" transform="matrix(1,0,0,1,196,-4)" class="stroke_order_diagram--existing_path"></path><path id="kvg:06750-s3" kvg:type="㇒" d="M34.75,34.38c0,1.62-0.72,3.77-1.13,4.87c-4.87,13-9.99,23.25-20.1,33.59" transform="matrix(1,0,0,1,196,-4)" class="stroke_order_diagram--current_path"></path><path id="pathSk2v596cnub1" kvg:type="㇒" d="M34.75,34.38c0,1.62-0.72,3.77-1.13,4.87c-4.87,13-9.99,23.25-20.1,33.59" transform="matrix(1,0,0,1,196,-4)" class="stroke_order_diagram--current_path"></path><circle cx="34.75" cy="34.38" r="8" class="stroke_order_diagram--path_start" transform="matrix(1,0,0,1,196,-4)"></circle><line x1="350" x2="350" y1="1" y2="99" class="stroke_order_diagram--guide_line"></line><line x1="399" x2="399" y1="1" y2="99" class="stroke_order_diagram--bounding_box"></line><path id="pathSk2v596cnub4" kvg:type="㇐" d="M13.78,34.47c2.22,0.53,4.65,0.26,6.35,0.05c6.15-0.75,18.88-2.61,25.39-3.65c1.09-0.17,2.56-0.24,3.24,0" transform="matrix(1,0,0,1,296,-4)" class="stroke_order_diagram--existing_path"></path><path id="pathSk2v596cnub5" kvg:type="㇑" d="M34.02,13.5c1.18,1.18,1.86,2.75,1.86,4.92c0,0.82-0.08,52-0.1,72.33c0,3.46-0.01,6.01-0.01,7.25" transform="matrix(1,0,0,1,296,-4)" class="stroke_order_diagram--existing_path"></path><path id="pathSk2v596cnub6" kvg:type="㇒" d="M34.75,34.38c0,1.62-0.72,3.77-1.13,4.87c-4.87,13-9.99,23.25-20.1,33.59" transform="matrix(1,0,0,1,296,-4)" class="stroke_order_diagram--existing_path"></path><path id="kvg:06750-s4" kvg:type="㇔/㇏" d="M38.5,44.38c3.13,2.12,8.29,9.01,10.93,13.12" transform="matrix(1,0,0,1,296,-4)" class="stroke_order_diagram--current_path"></path><path id="pathSk2v596cnub8" kvg:type="㇔/㇏" d="M38.5,44.38c3.13,2.12,8.29,9.01,10.93,13.12" transform="matrix(1,0,0,1,296,-4)" class="stroke_order_diagram--current_path"></path><circle cx="38.5" cy="44.38" r="8" class="stroke_order_diagram--path_start" transform="matrix(1,0,0,1,296,-4)"></circle><line x1="450" x2="450" y1="1" y2="99" class="stroke_order_diagram--guide_line"></line><line x1="499" x2="499" y1="1" y2="99" class="stroke_order_diagram--bounding_box"></line><path id="pathSk2v596cnubb" kvg:type="㇐" d="M13.78,34.47c2.22,0.53,4.65,0.26,6.35,0.05c6.15-0.75,18.88-2.61,25.39-3.65c1.09-0.17,2.56-0.24,3.24,0" transform="matrix(1,0,0,1,396,-4)" class="stroke_order_diagram--existing_path"></path><path id="pathSk2v596cnubc" kvg:type="㇑" d="M34.02,13.5c1.18,1.18,1.86,2.75,1.86,4.92c0,0.82-0.08,52-0.1,72.33c0,3.46-0.01,6.01-0.01,7.25" transform="matrix(1,0,0,1,396,-4)" class="stroke_order_diagram--existing_path"></path><path id="pathSk2v596cnubd" kvg:type="㇒" d="M34.75,34.38c0,1.62-0.72,3.77-1.13,4.87c-4.87,13-9.99,23.25-20.1,33.59" transform="matrix(1,0,0,1,396,-4)" class="stroke_order_diagram--existing_path"></path><path id="pathSk2v596cnube" kvg:type="㇔/㇏" d="M38.5,44.38c3.13,2.12,8.29,9.01,10.93,13.12" transform="matrix(1,0,0,1,396,-4)" class="stroke_order_diagram--existing_path"></path><path id="kvg:06750-s5" kvg:type="㇐" d="M52.75,35.75c2.5,0.25,4.25,0.26,6.5,0.01c8.45-0.93,22.25-3.01,32.32-4.26c2.21-0.27,3.54-0.25,4.93,0" transform="matrix(1,0,0,1,396,-4)" class="stroke_order_diagram--current_path"></path><path id="pathSk2v596cnubg" kvg:type="㇐" d="M52.75,35.75c2.5,0.25,4.25,0.26,6.5,0.01c8.45-0.93,22.25-3.01,32.32-4.26c2.21-0.27,3.54-0.25,4.93,0" transform="matrix(1,0,0,1,396,-4)" class="stroke_order_diagram--current_path"></path><circle cx="52.75" cy="35.75" r="8" class="stroke_order_diagram--path_start" transform="matrix(1,0,0,1,396,-4)"></circle><line x1="550" x2="550" y1="1" y2="99" class="stroke_order_diagram--guide_line"></line><line x1="599" x2="599" y1="1" y2="99" class="stroke_order_diagram--bounding_box"></line><path id="pathSk2v596cnubj" kvg:type="㇐" d="M13.78,34.47c2.22,0.53,4.65,0.26,6.35,0.05c6.15-0.75,18.88-2.61,25.39-3.65c1.09-0.17,2.56-0.24,3.24,0" transform="matrix(1,0,0,1,496,-4)" class="stroke_order_diagram--existing_path"></path><path id="pathSk2v596cnubk" kvg:type="㇑" d="M34.02,13.5c1.18,1.18,1.86,2.75,1.86,4.92c0,0.82-0.08,52-0.1,72.33c0,3.46-0.01,6.01-0.01,7.25" transform="matrix(1,0,0,1,496,-4)" class="stroke_order_diagram--existing_path"></path><path id="pathSk2v596cnubl" kvg:type="㇒" d="M34.75,34.38c0,1.62-0.72,3.77-1.13,4.87c-4.87,13-9.99,23.25-20.1,33.59" transform="matrix(1,0,0,1,496,-4)" class="stroke_order_diagram--existing_path"></path><path id="pathSk2v596cnubm" kvg:type="㇔/㇏" d="M38.5,44.38c3.13,2.12,8.29,9.01,10.93,13.12" transform="matrix(1,0,0,1,496,-4)" class="stroke_order_diagram--existing_path"></path><path id="pathSk2v596cnubn" kvg:type="㇐" d="M52.75,35.75c2.5,0.25,4.25,0.26,6.5,0.01c8.45-0.93,22.25-3.01,32.32-4.26c2.21-0.27,3.54-0.25,4.93,0" transform="matrix(1,0,0,1,496,-4)" class="stroke_order_diagram--existing_path"></path><path id="kvg:06750-s6" kvg:type="㇚" d="M78.02,12.83c1.01,1.01,1.51,2.54,1.51,4.27c0,14.56-0.01,66.41-0.01,71.37c0,14.53-6.39,5.66-8.71,3.25" transform="matrix(1,0,0,1,496,-4)" class="stroke_order_diagram--current_path"></path><path id="pathSk2v596cnubp" kvg:type="㇚" d="M78.02,12.83c1.01,1.01,1.51,2.54,1.51,4.27c0,14.56-0.01,66.41-0.01,71.37c0,14.53-6.39,5.66-8.71,3.25" transform="matrix(1,0,0,1,496,-4)" class="stroke_order_diagram--current_path"></path><circle cx="78.02" cy="12.83" r="8" class="stroke_order_diagram--path_start" transform="matrix(1,0,0,1,496,-4)"></circle><line x1="650" x2="650" y1="1" y2="99" class="stroke_order_diagram--guide_line"></line><line x1="699" x2="699" y1="1" y2="99" class="stroke_order_diagram--bounding_box"></line><path id="pathSk2v596cnubs" kvg:type="㇐" d="M13.78,34.47c2.22,0.53,4.65,0.26,6.35,0.05c6.15-0.75,18.88-2.61,25.39-3.65c1.09-0.17,2.56-0.24,3.24,0" transform="matrix(1,0,0,1,596,-4)" class="stroke_order_diagram--existing_path"></path><path id="pathSk2v596cnubt" kvg:type="㇑" d="M34.02,13.5c1.18,1.18,1.86,2.75,1.86,4.92c0,0.82-0.08,52-0.1,72.33c0,3.46-0.01,6.01-0.01,7.25" transform="matrix(1,0,0,1,596,-4)" class="stroke_order_diagram--existing_path"></path><path id="pathSk2v596cnubu" kvg:type="㇒" d="M34.75,34.38c0,1.62-0.72,3.77-1.13,4.87c-4.87,13-9.99,23.25-20.1,33.59" transform="matrix(1,0,0,1,596,-4)" class="stroke_order_diagram--existing_path"></path><path id="pathSk2v596cnubv" kvg:type="㇔/㇏" d="M38.5,44.38c3.13,2.12,8.29,9.01,10.93,13.12" transform="matrix(1,0,0,1,596,-4)" class="stroke_order_diagram--existing_path"></path><path id="pathSk2v596cnubw" kvg:type="㇐" d="M52.75,35.75c2.5,0.25,4.25,0.26,6.5,0.01c8.45-0.93,22.25-3.01,32.32-4.26c2.21-0.27,3.54-0.25,4.93,0" transform="matrix(1,0,0,1,596,-4)" class="stroke_order_diagram--existing_path"></path><path id="pathSk2v596cnubx" kvg:type="㇚" d="M78.02,12.83c1.01,1.01,1.51,2.54,1.51,4.27c0,14.56-0.01,66.41-0.01,71.37c0,14.53-6.39,5.66-8.71,3.25" transform="matrix(1,0,0,1,596,-4)" class="stroke_order_diagram--existing_path"></path><path id="kvg:06750-s7" kvg:type="㇒" d="M81.75,42c0,1.5-0.6,2.98-1.5,4c-8,9-19.37,21.56-35.25,31" transform="matrix(1,0,0,1,596,-4)" class="stroke_order_diagram--current_path"></path><path id="pathSk2v596cnubz" kvg:type="㇒" d="M81.75,42c0,1.5-0.6,2.98-1.5,4c-8,9-19.37,21.56-35.25,31" transform="matrix(1,0,0,1,596,-4)" class="stroke_order_diagram--current_path"></path><circle cx="81.75" cy="42" r="8" class="stroke_order_diagram--path_start" transform="matrix(1,0,0,1,596,-4)"></circle></svg>