<svg style="width: 800px; height: 100px;" viewbox="0 0 800 100"><style>
.stroke_order_diagram--outer_container {
  width: 100%;
  overflow-x: auto;
  overflow-y: hidden;
}

.stroke_order_diagram--guide_line {
  fill: none;
  stroke: #ddd;
  stroke-width: 3;
  stroke-linecap: square;
  stroke-linejoin: square;
  stroke-dasharray:8, 8;
}

.stroke_order_diagram--bounding_box {
  fill: none;
  stroke: #ddd;
  stroke-width: 4;
  stroke-linecap: square;
  stroke-linejoin: square;
}

.stroke_order_diagram--current_path {
  fill: none;
  stroke: #000;
  stroke-width: 6;
  stroke-linecap: round;
  stroke-linejoin: round;
}

.stroke_order_diagram--existing_path {
  fill: none;
  stroke: #aaa;
  stroke-width: 6;
  stroke-linecap: round;
  stroke-linejoin:round;
}

.stroke_order_diagram--path_start {
  fill: rgba(255, 0, 0, 0.7);
  stroke:none
}</style><desc>Created with Snap</desc><defs></defs><line x1="1" x2="799" y1="1" y2="1" class="stroke_order_diagram--bounding_box"></line><line x1="1" x2="1" y1="1" y2="99" class="stroke_order_diagram--bounding_box"></line><line x1="1" x2="799" y1="99" y2="99" class="stroke_order_diagram--bounding_box"></line><line x1="0" x2="800" y1="50" y2="50" class="stroke_order_diagram--guide_line"></line><line x1="50" x2="50" y1="1" y2="99" class="stroke_order_diagram--guide_line"></line><line x1="99" x2="99" y1="1" y2="99" class="stroke_order_diagram--bounding_box"></line><path id="kvg:067a2-s1" kvg:type="㇐" d="M11.03,39.22c2.35,0.66,4.75,0.42,6.37,0.26c5.73-0.56,16.78-2.44,22.89-3.5c0.95-0.16,2.83-0.48,3.73-0.11" transform="matrix(1,0,0,1,-4,-4)" class="stroke_order_diagram--current_path"></path><path id="pathSk2v596cn35sd" kvg:type="㇐" d="M11.03,39.22c2.35,0.66,4.75,0.42,6.37,0.26c5.73-0.56,16.78-2.44,22.89-3.5c0.95-0.16,2.83-0.48,3.73-0.11" transform="matrix(1,0,0,1,-4,-4)" class="stroke_order_diagram--current_path"></path><circle cx="11.03" cy="39.22" r="8" class="stroke_order_diagram--path_start" transform="matrix(1,0,0,1,-4,-4)"></circle><line x1="150" x2="150" y1="1" y2="99" class="stroke_order_diagram--guide_line"></line><line x1="199" x2="199" y1="1" y2="99" class="stroke_order_diagram--bounding_box"></line><path id="pathSk2v596cn35sg" kvg:type="㇐" d="M11.03,39.22c2.35,0.66,4.75,0.42,6.37,0.26c5.73-0.56,16.78-2.44,22.89-3.5c0.95-0.16,2.83-0.48,3.73-0.11" transform="matrix(1,0,0,1,96,-4)" class="stroke_order_diagram--existing_path"></path><path id="kvg:067a2-s2" kvg:type="㇑" d="M28.86,14.5c1.26,1.26,1.79,2.62,1.79,4.42c0,6.22-0.01,49.75-0.02,68.83c0,3.41,0,6.02,0,7.5" transform="matrix(1,0,0,1,96,-4)" class="stroke_order_diagram--current_path"></path><path id="pathSk2v596cn35si" kvg:type="㇑" d="M28.86,14.5c1.26,1.26,1.79,2.62,1.79,4.42c0,6.22-0.01,49.75-0.02,68.83c0,3.41,0,6.02,0,7.5" transform="matrix(1,0,0,1,96,-4)" class="stroke_order_diagram--current_path"></path><circle cx="28.86" cy="14.5" r="8" class="stroke_order_diagram--path_start" transform="matrix(1,0,0,1,96,-4)"></circle><line x1="250" x2="250" y1="1" y2="99" class="stroke_order_diagram--guide_line"></line><line x1="299" x2="299" y1="1" y2="99" class="stroke_order_diagram--bounding_box"></line><path id="pathSk2v596cn35sl" kvg:type="㇐" d="M11.03,39.22c2.35,0.66,4.75,0.42,6.37,0.26c5.73-0.56,16.78-2.44,22.89-3.5c0.95-0.16,2.83-0.48,3.73-0.11" transform="matrix(1,0,0,1,196,-4)" class="stroke_order_diagram--existing_path"></path><path id="pathSk2v596cn35sm" kvg:type="㇑" d="M28.86,14.5c1.26,1.26,1.79,2.62,1.79,4.42c0,6.22-0.01,49.75-0.02,68.83c0,3.41,0,6.02,0,7.5" transform="matrix(1,0,0,1,196,-4)" class="stroke_order_diagram--existing_path"></path><path id="kvg:067a2-s3" kvg:type="㇒" d="M29.69,39.53c0,1.72-1.34,4.73-1.97,6.21c-4.78,11.18-8.29,17.22-16.36,28.35" transform="matrix(1,0,0,1,196,-4)" class="stroke_order_diagram--current_path"></path><path id="pathSk2v596cn35so" kvg:type="㇒" d="M29.69,39.53c0,1.72-1.34,4.73-1.97,6.21c-4.78,11.18-8.29,17.22-16.36,28.35" transform="matrix(1,0,0,1,196,-4)" class="stroke_order_diagram--current_path"></path><circle cx="29.69" cy="39.53" r="8" class="stroke_order_diagram--path_start" transform="matrix(1,0,0,1,196,-4)"></circle><line x1="350" x2="350" y1="1" y2="99" class="stroke_order_diagram--guide_line"></line><line x1="399" x2="399" y1="1" y2="99" class="stroke_order_diagram--bounding_box"></line><path id="pathSk2v596cn35sr" kvg:type="㇐" d="M11.03,39.22c2.35,0.66,4.75,0.42,6.37,0.26c5.73-0.56,16.78-2.44,22.89-3.5c0.95-0.16,2.83-0.48,3.73-0.11" transform="matrix(1,0,0,1,296,-4)" class="stroke_order_diagram--existing_path"></path><path id="pathSk2v596cn35ss" kvg:type="㇑" d="M28.86,14.5c1.26,1.26,1.79,2.62,1.79,4.42c0,6.22-0.01,49.75-0.02,68.83c0,3.41,0,6.02,0,7.5" transform="matrix(1,0,0,1,296,-4)" class="stroke_order_diagram--existing_path"></path><path id="pathSk2v596cn35st" kvg:type="㇒" d="M29.69,39.53c0,1.72-1.34,4.73-1.97,6.21c-4.78,11.18-8.29,17.22-16.36,28.35" transform="matrix(1,0,0,1,296,-4)" class="stroke_order_diagram--existing_path"></path><path id="kvg:067a2-s4" kvg:type="㇔/㇏" d="M33.38,49.62c2.56,1.68,6.1,7.41,8.26,10.66" transform="matrix(1,0,0,1,296,-4)" class="stroke_order_diagram--current_path"></path><path id="pathSk2v596cn35sv" kvg:type="㇔/㇏" d="M33.38,49.62c2.56,1.68,6.1,7.41,8.26,10.66" transform="matrix(1,0,0,1,296,-4)" class="stroke_order_diagram--current_path"></path><circle cx="33.38" cy="49.62" r="8" class="stroke_order_diagram--path_start" transform="matrix(1,0,0,1,296,-4)"></circle><line x1="450" x2="450" y1="1" y2="99" class="stroke_order_diagram--guide_line"></line><line x1="499" x2="499" y1="1" y2="99" class="stroke_order_diagram--bounding_box"></line><path id="pathSk2v596cn35sy" kvg:type="㇐" d="M11.03,39.22c2.35,0.66,4.75,0.42,6.37,0.26c5.73-0.56,16.78-2.44,22.89-3.5c0.95-0.16,2.83-0.48,3.73-0.11" transform="matrix(1,0,0,1,396,-4)" class="stroke_order_diagram--existing_path"></path><path id="pathSk2v596cn35sz" kvg:type="㇑" d="M28.86,14.5c1.26,1.26,1.79,2.62,1.79,4.42c0,6.22-0.01,49.75-0.02,68.83c0,3.41,0,6.02,0,7.5" transform="matrix(1,0,0,1,396,-4)" class="stroke_order_diagram--existing_path"></path><path id="pathSk2v596cn35t0" kvg:type="㇒" d="M29.69,39.53c0,1.72-1.34,4.73-1.97,6.21c-4.78,11.18-8.29,17.22-16.36,28.35" transform="matrix(1,0,0,1,396,-4)" class="stroke_order_diagram--existing_path"></path><path id="pathSk2v596cn35t1" kvg:type="㇔/㇏" d="M33.38,49.62c2.56,1.68,6.1,7.41,8.26,10.66" transform="matrix(1,0,0,1,396,-4)" class="stroke_order_diagram--existing_path"></path><path id="kvg:067a2-s5" kvg:type="㇐" d="M49.13,21.86c2.62,0.77,5.48,0.69,7.89,0.48c9.43-0.81,19.87-2.15,29.61-3.27c2.44-0.28,5.37-0.56,7.43-0.13" transform="matrix(1,0,0,1,396,-4)" class="stroke_order_diagram--current_path"></path><path id="pathSk2v596cn35t3" kvg:type="㇐" d="M49.13,21.86c2.62,0.77,5.48,0.69,7.89,0.48c9.43-0.81,19.87-2.15,29.61-3.27c2.44-0.28,5.37-0.56,7.43-0.13" transform="matrix(1,0,0,1,396,-4)" class="stroke_order_diagram--current_path"></path><circle cx="49.13" cy="21.86" r="8" class="stroke_order_diagram--path_start" transform="matrix(1,0,0,1,396,-4)"></circle><line x1="550" x2="550" y1="1" y2="99" class="stroke_order_diagram--guide_line"></line><line x1="599" x2="599" y1="1" y2="99" class="stroke_order_diagram--bounding_box"></line><path id="pathSk2v596cn35t6" kvg:type="㇐" d="M11.03,39.22c2.35,0.66,4.75,0.42,6.37,0.26c5.73-0.56,16.78-2.44,22.89-3.5c0.95-0.16,2.83-0.48,3.73-0.11" transform="matrix(1,0,0,1,496,-4)" class="stroke_order_diagram--existing_path"></path><path id="pathSk2v596cn35t7" kvg:type="㇑" d="M28.86,14.5c1.26,1.26,1.79,2.62,1.79,4.42c0,6.22-0.01,49.75-0.02,68.83c0,3.41,0,6.02,0,7.5" transform="matrix(1,0,0,1,496,-4)" class="stroke_order_diagram--existing_path"></path><path id="pathSk2v596cn35t8" kvg:type="㇒" d="M29.69,39.53c0,1.72-1.34,4.73-1.97,6.21c-4.78,11.18-8.29,17.22-16.36,28.35" transform="matrix(1,0,0,1,496,-4)" class="stroke_order_diagram--existing_path"></path><path id="pathSk2v596cn35t9" kvg:type="㇔/㇏" d="M33.38,49.62c2.56,1.68,6.1,7.41,8.26,10.66" transform="matrix(1,0,0,1,496,-4)" class="stroke_order_diagram--existing_path"></path><path id="pathSk2v596cn35ta" kvg:type="㇐" d="M49.13,21.86c2.62,0.77,5.48,0.69,7.89,0.48c9.43-0.81,19.87-2.15,29.61-3.27c2.44-0.28,5.37-0.56,7.43-0.13" transform="matrix(1,0,0,1,496,-4)" class="stroke_order_diagram--existing_path"></path><path id="kvg:067a2-s6" kvg:type="㇒" d="M82.05,31.29c0.36,1.1,0.29,2.47-0.32,4.39c-4.48,14.2-10.1,28.45-22.12,40.34" transform="matrix(1,0,0,1,496,-4)" class="stroke_order_diagram--current_path"></path><path id="pathSk2v596cn35tc" kvg:type="㇒" d="M82.05,31.29c0.36,1.1,0.29,2.47-0.32,4.39c-4.48,14.2-10.1,28.45-22.12,40.34" transform="matrix(1,0,0,1,496,-4)" class="stroke_order_diagram--current_path"></path><circle cx="82.05" cy="31.29" r="8" class="stroke_order_diagram--path_start" transform="matrix(1,0,0,1,496,-4)"></circle><line x1="650" x2="650" y1="1" y2="99" class="stroke_order_diagram--guide_line"></line><line x1="699" x2="699" y1="1" y2="99" class="stroke_order_diagram--bounding_box"></line><path id="pathSk2v596cn35tf" kvg:type="㇐" d="M11.03,39.22c2.35,0.66,4.75,0.42,6.37,0.26c5.73-0.56,16.78-2.44,22.89-3.5c0.95-0.16,2.83-0.48,3.73-0.11" transform="matrix(1,0,0,1,596,-4)" class="stroke_order_diagram--existing_path"></path><path id="pathSk2v596cn35tg" kvg:type="㇑" d="M28.86,14.5c1.26,1.26,1.79,2.62,1.79,4.42c0,6.22-0.01,49.75-0.02,68.83c0,3.41,0,6.02,0,7.5" transform="matrix(1,0,0,1,596,-4)" class="stroke_order_diagram--existing_path"></path><path id="pathSk2v596cn35th" kvg:type="㇒" d="M29.69,39.53c0,1.72-1.34,4.73-1.97,6.21c-4.78,11.18-8.29,17.22-16.36,28.35" transform="matrix(1,0,0,1,596,-4)" class="stroke_order_diagram--existing_path"></path><path id="pathSk2v596cn35ti" kvg:type="㇔/㇏" d="M33.38,49.62c2.56,1.68,6.1,7.41,8.26,10.66" transform="matrix(1,0,0,1,596,-4)" class="stroke_order_diagram--existing_path"></path><path id="pathSk2v596cn35tj" kvg:type="㇐" d="M49.13,21.86c2.62,0.77,5.48,0.69,7.89,0.48c9.43-0.81,19.87-2.15,29.61-3.27c2.44-0.28,5.37-0.56,7.43-0.13" transform="matrix(1,0,0,1,596,-4)" class="stroke_order_diagram--existing_path"></path><path id="pathSk2v596cn35tk" kvg:type="㇒" d="M82.05,31.29c0.36,1.1,0.29,2.47-0.32,4.39c-4.48,14.2-10.1,28.45-22.12,40.34" transform="matrix(1,0,0,1,596,-4)" class="stroke_order_diagram--existing_path"></path><path id="kvg:067a2-s7" kvg:type="㇔/㇏" d="M60.04,41.8c9.75,4.84,22.03,21.62,26.91,31.86" transform="matrix(1,0,0,1,596,-4)" class="stroke_order_diagram--current_path"></path><path id="pathSk2v596cn35tm" kvg:type="㇔/㇏" d="M60.04,41.8c9.75,4.84,22.03,21.62,26.91,31.86" transform="matrix(1,0,0,1,596,-4)" class="stroke_order_diagram--current_path"></path><circle cx="60.04" cy="41.8" r="8" class="stroke_order_diagram--path_start" transform="matrix(1,0,0,1,596,-4)"></circle><line x1="750" x2="750" y1="1" y2="99" class="stroke_order_diagram--guide_line"></line><line x1="799" x2="799" y1="1" y2="99" class="stroke_order_diagram--bounding_box"></line><path id="pathSk2v596cn35tp" kvg:type="㇐" d="M11.03,39.22c2.35,0.66,4.75,0.42,6.37,0.26c5.73-0.56,16.78-2.44,22.89-3.5c0.95-0.16,2.83-0.48,3.73-0.11" transform="matrix(1,0,0,1,696,-4)" class="stroke_order_diagram--existing_path"></path><path id="pathSk2v596cn35tq" kvg:type="㇑" d="M28.86,14.5c1.26,1.26,1.79,2.62,1.79,4.42c0,6.22-0.01,49.75-0.02,68.83c0,3.41,0,6.02,0,7.5" transform="matrix(1,0,0,1,696,-4)" class="stroke_order_diagram--existing_path"></path><path id="pathSk2v596cn35tr" kvg:type="㇒" d="M29.69,39.53c0,1.72-1.34,4.73-1.97,6.21c-4.78,11.18-8.29,17.22-16.36,28.35" transform="matrix(1,0,0,1,696,-4)" class="stroke_order_diagram--existing_path"></path><path id="pathSk2v596cn35ts" kvg:type="㇔/㇏" d="M33.38,49.62c2.56,1.68,6.1,7.41,8.26,10.66" transform="matrix(1,0,0,1,696,-4)" class="stroke_order_diagram--existing_path"></path><path id="pathSk2v596cn35tt" kvg:type="㇐" d="M49.13,21.86c2.62,0.77,5.48,0.69,7.89,0.48c9.43-0.81,19.87-2.15,29.61-3.27c2.44-0.28,5.37-0.56,7.43-0.13" transform="matrix(1,0,0,1,696,-4)" class="stroke_order_diagram--existing_path"></path><path id="pathSk2v596cn35tu" kvg:type="㇒" d="M82.05,31.29c0.36,1.1,0.29,2.47-0.32,4.39c-4.48,14.2-10.1,28.45-22.12,40.34" transform="matrix(1,0,0,1,696,-4)" class="stroke_order_diagram--existing_path"></path><path id="pathSk2v596cn35tv" kvg:type="㇔/㇏" d="M60.04,41.8c9.75,4.84,22.03,21.62,26.91,31.86" transform="matrix(1,0,0,1,696,-4)" class="stroke_order_diagram--existing_path"></path><path id="kvg:067a2-s8" kvg:type="㇗" d="M50.38,22.77c1.05,1.05,1.25,2.23,1.25,3.98c0,13.6,0,50.33,0,59.25c0,3.44,0.02,4.86,3.74,4.11c15.38-3.11,27.01-3.73,35.5-3.56c2.31,0.05,5.27,0.73,6.69,1.2" transform="matrix(1,0,0,1,696,-4)" class="stroke_order_diagram--current_path"></path><path id="pathSk2v596cn35tx" kvg:type="㇗" d="M50.38,22.77c1.05,1.05,1.25,2.23,1.25,3.98c0,13.6,0,50.33,0,59.25c0,3.44,0.02,4.86,3.74,4.11c15.38-3.11,27.01-3.73,35.5-3.56c2.31,0.05,5.27,0.73,6.69,1.2" transform="matrix(1,0,0,1,696,-4)" class="stroke_order_diagram--current_path"></path><circle cx="50.38" cy="22.77" r="8" class="stroke_order_diagram--path_start" transform="matrix(1,0,0,1,696,-4)"></circle></svg>