<svg style="width: 900px; height: 100px;" viewbox="0 0 900 100"><style>
.stroke_order_diagram--outer_container {
  width: 100%;
  overflow-x: auto;
  overflow-y: hidden;
}

.stroke_order_diagram--guide_line {
  fill: none;
  stroke: #ddd;
  stroke-width: 3;
  stroke-linecap: square;
  stroke-linejoin: square;
  stroke-dasharray:8, 8;
}

.stroke_order_diagram--bounding_box {
  fill: none;
  stroke: #ddd;
  stroke-width: 4;
  stroke-linecap: square;
  stroke-linejoin: square;
}

.stroke_order_diagram--current_path {
  fill: none;
  stroke: #000;
  stroke-width: 6;
  stroke-linecap: round;
  stroke-linejoin: round;
}

.stroke_order_diagram--existing_path {
  fill: none;
  stroke: #aaa;
  stroke-width: 6;
  stroke-linecap: round;
  stroke-linejoin:round;
}

.stroke_order_diagram--path_start {
  fill: rgba(255, 0, 0, 0.7);
  stroke:none
}</style><desc>Created with Snap</desc><defs></defs><line x1="1" x2="899" y1="1" y2="1" class="stroke_order_diagram--bounding_box"></line><line x1="1" x2="1" y1="1" y2="99" class="stroke_order_diagram--bounding_box"></line><line x1="1" x2="899" y1="99" y2="99" class="stroke_order_diagram--bounding_box"></line><line x1="0" x2="900" y1="50" y2="50" class="stroke_order_diagram--guide_line"></line><line x1="50" x2="50" y1="1" y2="99" class="stroke_order_diagram--guide_line"></line><line x1="99" x2="99" y1="1" y2="99" class="stroke_order_diagram--bounding_box"></line><path id="kvg:06803-s1" kvg:type="㇐" d="M14.78,38.36c0.38,0.26,2.62,0.45,3.63,0.34c4.32-0.45,18.77-2.42,25.72-3.74c1.01-0.19,1.26-0.26,1.89,0" transform="matrix(1,0,0,1,-4,-4)" class="stroke_order_diagram--current_path"></path><path id="pathSk2v596cn4f0z" kvg:type="㇐" d="M14.78,38.36c0.38,0.26,2.62,0.45,3.63,0.34c4.32-0.45,18.77-2.42,25.72-3.74c1.01-0.19,1.26-0.26,1.89,0" transform="matrix(1,0,0,1,-4,-4)" class="stroke_order_diagram--current_path"></path><circle cx="14.78" cy="38.36" r="8" class="stroke_order_diagram--path_start" transform="matrix(1,0,0,1,-4,-4)"></circle><line x1="150" x2="150" y1="1" y2="99" class="stroke_order_diagram--guide_line"></line><line x1="199" x2="199" y1="1" y2="99" class="stroke_order_diagram--bounding_box"></line><path id="pathSk2v596cn4f12" kvg:type="㇐" d="M14.78,38.36c0.38,0.26,2.62,0.45,3.63,0.34c4.32-0.45,18.77-2.42,25.72-3.74c1.01-0.19,1.26-0.26,1.89,0" transform="matrix(1,0,0,1,96,-4)" class="stroke_order_diagram--existing_path"></path><path id="kvg:06803-s2" kvg:type="㇑" d="M31.86,13.5c0.91,0.47,2.54,1.75,2.54,4.42c0,0.95-0.12,70.25-0.3,76.08" transform="matrix(1,0,0,1,96,-4)" class="stroke_order_diagram--current_path"></path><path id="pathSk2v596cn4f14" kvg:type="㇑" d="M31.86,13.5c0.91,0.47,2.54,1.75,2.54,4.42c0,0.95-0.12,70.25-0.3,76.08" transform="matrix(1,0,0,1,96,-4)" class="stroke_order_diagram--current_path"></path><circle cx="31.86" cy="13.5" r="8" class="stroke_order_diagram--path_start" transform="matrix(1,0,0,1,96,-4)"></circle><line x1="250" x2="250" y1="1" y2="99" class="stroke_order_diagram--guide_line"></line><line x1="299" x2="299" y1="1" y2="99" class="stroke_order_diagram--bounding_box"></line><path id="pathSk2v596cn4f17" kvg:type="㇐" d="M14.78,38.36c0.38,0.26,2.62,0.45,3.63,0.34c4.32-0.45,18.77-2.42,25.72-3.74c1.01-0.19,1.26-0.26,1.89,0" transform="matrix(1,0,0,1,196,-4)" class="stroke_order_diagram--existing_path"></path><path id="pathSk2v596cn4f18" kvg:type="㇑" d="M31.86,13.5c0.91,0.47,2.54,1.75,2.54,4.42c0,0.95-0.12,70.25-0.3,76.08" transform="matrix(1,0,0,1,196,-4)" class="stroke_order_diagram--existing_path"></path><path id="kvg:06803-s3" kvg:type="㇒" d="M33.94,40.28C27.23,54.23,23.5,60.13,13.11,72.34" transform="matrix(1,0,0,1,196,-4)" class="stroke_order_diagram--current_path"></path><path id="pathSk2v596cn4f1a" kvg:type="㇒" d="M33.94,40.28C27.23,54.23,23.5,60.13,13.11,72.34" transform="matrix(1,0,0,1,196,-4)" class="stroke_order_diagram--current_path"></path><circle cx="33.94" cy="40.28" r="8" class="stroke_order_diagram--path_start" transform="matrix(1,0,0,1,196,-4)"></circle><line x1="350" x2="350" y1="1" y2="99" class="stroke_order_diagram--guide_line"></line><line x1="399" x2="399" y1="1" y2="99" class="stroke_order_diagram--bounding_box"></line><path id="pathSk2v596cn4f1d" kvg:type="㇐" d="M14.78,38.36c0.38,0.26,2.62,0.45,3.63,0.34c4.32-0.45,18.77-2.42,25.72-3.74c1.01-0.19,1.26-0.26,1.89,0" transform="matrix(1,0,0,1,296,-4)" class="stroke_order_diagram--existing_path"></path><path id="pathSk2v596cn4f1e" kvg:type="㇑" d="M31.86,13.5c0.91,0.47,2.54,1.75,2.54,4.42c0,0.95-0.12,70.25-0.3,76.08" transform="matrix(1,0,0,1,296,-4)" class="stroke_order_diagram--existing_path"></path><path id="pathSk2v596cn4f1f" kvg:type="㇒" d="M33.94,40.28C27.23,54.23,23.5,60.13,13.11,72.34" transform="matrix(1,0,0,1,296,-4)" class="stroke_order_diagram--existing_path"></path><path id="kvg:06803-s4" kvg:type="㇔/㇏" d="M37.47,48.4c2.45,1.32,6.28,5.6,7.91,8.89" transform="matrix(1,0,0,1,296,-4)" class="stroke_order_diagram--current_path"></path><path id="pathSk2v596cn4f1h" kvg:type="㇔/㇏" d="M37.47,48.4c2.45,1.32,6.28,5.6,7.91,8.89" transform="matrix(1,0,0,1,296,-4)" class="stroke_order_diagram--current_path"></path><circle cx="37.47" cy="48.4" r="8" class="stroke_order_diagram--path_start" transform="matrix(1,0,0,1,296,-4)"></circle><line x1="450" x2="450" y1="1" y2="99" class="stroke_order_diagram--guide_line"></line><line x1="499" x2="499" y1="1" y2="99" class="stroke_order_diagram--bounding_box"></line><path id="pathSk2v596cn4f1k" kvg:type="㇐" d="M14.78,38.36c0.38,0.26,2.62,0.45,3.63,0.34c4.32-0.45,18.77-2.42,25.72-3.74c1.01-0.19,1.26-0.26,1.89,0" transform="matrix(1,0,0,1,396,-4)" class="stroke_order_diagram--existing_path"></path><path id="pathSk2v596cn4f1l" kvg:type="㇑" d="M31.86,13.5c0.91,0.47,2.54,1.75,2.54,4.42c0,0.95-0.12,70.25-0.3,76.08" transform="matrix(1,0,0,1,396,-4)" class="stroke_order_diagram--existing_path"></path><path id="pathSk2v596cn4f1m" kvg:type="㇒" d="M33.94,40.28C27.23,54.23,23.5,60.13,13.11,72.34" transform="matrix(1,0,0,1,396,-4)" class="stroke_order_diagram--existing_path"></path><path id="pathSk2v596cn4f1n" kvg:type="㇔/㇏" d="M37.47,48.4c2.45,1.32,6.28,5.6,7.91,8.89" transform="matrix(1,0,0,1,396,-4)" class="stroke_order_diagram--existing_path"></path><path id="kvg:06803-s5" kvg:type="㇒" d="M81.04,14.5c0.07,0.48,0.27,1.4-0.14,1.94c-5.09,6.83-12.63,13.09-25.9,18.6" transform="matrix(1,0,0,1,396,-4)" class="stroke_order_diagram--current_path"></path><path id="pathSk2v596cn4f1p" kvg:type="㇒" d="M81.04,14.5c0.07,0.48,0.27,1.4-0.14,1.94c-5.09,6.83-12.63,13.09-25.9,18.6" transform="matrix(1,0,0,1,396,-4)" class="stroke_order_diagram--current_path"></path><circle cx="81.04" cy="14.5" r="8" class="stroke_order_diagram--path_start" transform="matrix(1,0,0,1,396,-4)"></circle><line x1="550" x2="550" y1="1" y2="99" class="stroke_order_diagram--guide_line"></line><line x1="599" x2="599" y1="1" y2="99" class="stroke_order_diagram--bounding_box"></line><path id="pathSk2v596cn4f1s" kvg:type="㇐" d="M14.78,38.36c0.38,0.26,2.62,0.45,3.63,0.34c4.32-0.45,18.77-2.42,25.72-3.74c1.01-0.19,1.26-0.26,1.89,0" transform="matrix(1,0,0,1,496,-4)" class="stroke_order_diagram--existing_path"></path><path id="pathSk2v596cn4f1t" kvg:type="㇑" d="M31.86,13.5c0.91,0.47,2.54,1.75,2.54,4.42c0,0.95-0.12,70.25-0.3,76.08" transform="matrix(1,0,0,1,496,-4)" class="stroke_order_diagram--existing_path"></path><path id="pathSk2v596cn4f1u" kvg:type="㇒" d="M33.94,40.28C27.23,54.23,23.5,60.13,13.11,72.34" transform="matrix(1,0,0,1,496,-4)" class="stroke_order_diagram--existing_path"></path><path id="pathSk2v596cn4f1v" kvg:type="㇔/㇏" d="M37.47,48.4c2.45,1.32,6.28,5.6,7.91,8.89" transform="matrix(1,0,0,1,496,-4)" class="stroke_order_diagram--existing_path"></path><path id="pathSk2v596cn4f1w" kvg:type="㇒" d="M81.04,14.5c0.07,0.48,0.27,1.4-0.14,1.94c-5.09,6.83-12.63,13.09-25.9,18.6" transform="matrix(1,0,0,1,496,-4)" class="stroke_order_diagram--existing_path"></path><path id="kvg:06803-s6" kvg:type="㇒" d="M53.39,31.53c1.11,0.72,1.42,3.33,1.42,5.19c0,15.28-3.07,35.79-12.01,50.75" transform="matrix(1,0,0,1,496,-4)" class="stroke_order_diagram--current_path"></path><path id="pathSk2v596cn4f1y" kvg:type="㇒" d="M53.39,31.53c1.11,0.72,1.42,3.33,1.42,5.19c0,15.28-3.07,35.79-12.01,50.75" transform="matrix(1,0,0,1,496,-4)" class="stroke_order_diagram--current_path"></path><circle cx="53.39" cy="31.53" r="8" class="stroke_order_diagram--path_start" transform="matrix(1,0,0,1,496,-4)"></circle><line x1="650" x2="650" y1="1" y2="99" class="stroke_order_diagram--guide_line"></line><line x1="699" x2="699" y1="1" y2="99" class="stroke_order_diagram--bounding_box"></line><path id="pathSk2v596cn4f21" kvg:type="㇐" d="M14.78,38.36c0.38,0.26,2.62,0.45,3.63,0.34c4.32-0.45,18.77-2.42,25.72-3.74c1.01-0.19,1.26-0.26,1.89,0" transform="matrix(1,0,0,1,596,-4)" class="stroke_order_diagram--existing_path"></path><path id="pathSk2v596cn4f22" kvg:type="㇑" d="M31.86,13.5c0.91,0.47,2.54,1.75,2.54,4.42c0,0.95-0.12,70.25-0.3,76.08" transform="matrix(1,0,0,1,596,-4)" class="stroke_order_diagram--existing_path"></path><path id="pathSk2v596cn4f23" kvg:type="㇒" d="M33.94,40.28C27.23,54.23,23.5,60.13,13.11,72.34" transform="matrix(1,0,0,1,596,-4)" class="stroke_order_diagram--existing_path"></path><path id="pathSk2v596cn4f24" kvg:type="㇔/㇏" d="M37.47,48.4c2.45,1.32,6.28,5.6,7.91,8.89" transform="matrix(1,0,0,1,596,-4)" class="stroke_order_diagram--existing_path"></path><path id="pathSk2v596cn4f25" kvg:type="㇒" d="M81.04,14.5c0.07,0.48,0.27,1.4-0.14,1.94c-5.09,6.83-12.63,13.09-25.9,18.6" transform="matrix(1,0,0,1,596,-4)" class="stroke_order_diagram--existing_path"></path><path id="pathSk2v596cn4f26" kvg:type="㇒" d="M53.39,31.53c1.11,0.72,1.42,3.33,1.42,5.19c0,15.28-3.07,35.79-12.01,50.75" transform="matrix(1,0,0,1,596,-4)" class="stroke_order_diagram--existing_path"></path><path id="kvg:06803-s7" kvg:type="㇐" d="M56.91,46.4c1.08,0.39,3.05,0.47,4.13,0.39c7.17-0.54,26.02-3.29,34.39-3.5c1.8-0.05,2.87,0.19,3.77,0.38" transform="matrix(1,0,0,1,596,-4)" class="stroke_order_diagram--current_path"></path><path id="pathSk2v596cn4f28" kvg:type="㇐" d="M56.91,46.4c1.08,0.39,3.05,0.47,4.13,0.39c7.17-0.54,26.02-3.29,34.39-3.5c1.8-0.05,2.87,0.19,3.77,0.38" transform="matrix(1,0,0,1,596,-4)" class="stroke_order_diagram--current_path"></path><circle cx="56.91" cy="46.4" r="8" class="stroke_order_diagram--path_start" transform="matrix(1,0,0,1,596,-4)"></circle><line x1="750" x2="750" y1="1" y2="99" class="stroke_order_diagram--guide_line"></line><line x1="799" x2="799" y1="1" y2="99" class="stroke_order_diagram--bounding_box"></line><path id="pathSk2v596cn4f2b" kvg:type="㇐" d="M14.78,38.36c0.38,0.26,2.62,0.45,3.63,0.34c4.32-0.45,18.77-2.42,25.72-3.74c1.01-0.19,1.26-0.26,1.89,0" transform="matrix(1,0,0,1,696,-4)" class="stroke_order_diagram--existing_path"></path><path id="pathSk2v596cn4f2c" kvg:type="㇑" d="M31.86,13.5c0.91,0.47,2.54,1.75,2.54,4.42c0,0.95-0.12,70.25-0.3,76.08" transform="matrix(1,0,0,1,696,-4)" class="stroke_order_diagram--existing_path"></path><path id="pathSk2v596cn4f2d" kvg:type="㇒" d="M33.94,40.28C27.23,54.23,23.5,60.13,13.11,72.34" transform="matrix(1,0,0,1,696,-4)" class="stroke_order_diagram--existing_path"></path><path id="pathSk2v596cn4f2e" kvg:type="㇔/㇏" d="M37.47,48.4c2.45,1.32,6.28,5.6,7.91,8.89" transform="matrix(1,0,0,1,696,-4)" class="stroke_order_diagram--existing_path"></path><path id="pathSk2v596cn4f2f" kvg:type="㇒" d="M81.04,14.5c0.07,0.48,0.27,1.4-0.14,1.94c-5.09,6.83-12.63,13.09-25.9,18.6" transform="matrix(1,0,0,1,696,-4)" class="stroke_order_diagram--existing_path"></path><path id="pathSk2v596cn4f2g" kvg:type="㇒" d="M53.39,31.53c1.11,0.72,1.42,3.33,1.42,5.19c0,15.28-3.07,35.79-12.01,50.75" transform="matrix(1,0,0,1,696,-4)" class="stroke_order_diagram--existing_path"></path><path id="pathSk2v596cn4f2h" kvg:type="㇐" d="M56.91,46.4c1.08,0.39,3.05,0.47,4.13,0.39c7.17-0.54,26.02-3.29,34.39-3.5c1.8-0.05,2.87,0.19,3.77,0.38" transform="matrix(1,0,0,1,696,-4)" class="stroke_order_diagram--existing_path"></path><path id="kvg:06803-s8" kvg:type="㇆" d="M72.77,55.84c4.73,1.66,11.48,4.66,16.02,5.34c2.35,0.35,3.43,1.32,2.88,3.06C88.25,75,82.87,86.1,77.93,92.72c-4.64,6.21-5.33,0.18-6.29-0.4" transform="matrix(1,0,0,1,696,-4)" class="stroke_order_diagram--current_path"></path><path id="pathSk2v596cn4f2j" kvg:type="㇆" d="M72.77,55.84c4.73,1.66,11.48,4.66,16.02,5.34c2.35,0.35,3.43,1.32,2.88,3.06C88.25,75,82.87,86.1,77.93,92.72c-4.64,6.21-5.33,0.18-6.29-0.4" transform="matrix(1,0,0,1,696,-4)" class="stroke_order_diagram--current_path"></path><circle cx="72.77" cy="55.84" r="8" class="stroke_order_diagram--path_start" transform="matrix(1,0,0,1,696,-4)"></circle><line x1="850" x2="850" y1="1" y2="99" class="stroke_order_diagram--guide_line"></line><line x1="899" x2="899" y1="1" y2="99" class="stroke_order_diagram--bounding_box"></line><path id="pathSk2v596cn4f2m" kvg:type="㇐" d="M14.78,38.36c0.38,0.26,2.62,0.45,3.63,0.34c4.32-0.45,18.77-2.42,25.72-3.74c1.01-0.19,1.26-0.26,1.89,0" transform="matrix(1,0,0,1,796,-4)" class="stroke_order_diagram--existing_path"></path><path id="pathSk2v596cn4f2n" kvg:type="㇑" d="M31.86,13.5c0.91,0.47,2.54,1.75,2.54,4.42c0,0.95-0.12,70.25-0.3,76.08" transform="matrix(1,0,0,1,796,-4)" class="stroke_order_diagram--existing_path"></path><path id="pathSk2v596cn4f2o" kvg:type="㇒" d="M33.94,40.28C27.23,54.23,23.5,60.13,13.11,72.34" transform="matrix(1,0,0,1,796,-4)" class="stroke_order_diagram--existing_path"></path><path id="pathSk2v596cn4f2p" kvg:type="㇔/㇏" d="M37.47,48.4c2.45,1.32,6.28,5.6,7.91,8.89" transform="matrix(1,0,0,1,796,-4)" class="stroke_order_diagram--existing_path"></path><path id="pathSk2v596cn4f2q" kvg:type="㇒" d="M81.04,14.5c0.07,0.48,0.27,1.4-0.14,1.94c-5.09,6.83-12.63,13.09-25.9,18.6" transform="matrix(1,0,0,1,796,-4)" class="stroke_order_diagram--existing_path"></path><path id="pathSk2v596cn4f2r" kvg:type="㇒" d="M53.39,31.53c1.11,0.72,1.42,3.33,1.42,5.19c0,15.28-3.07,35.79-12.01,50.75" transform="matrix(1,0,0,1,796,-4)" class="stroke_order_diagram--existing_path"></path><path id="pathSk2v596cn4f2s" kvg:type="㇐" d="M56.91,46.4c1.08,0.39,3.05,0.47,4.13,0.39c7.17-0.54,26.02-3.29,34.39-3.5c1.8-0.05,2.87,0.19,3.77,0.38" transform="matrix(1,0,0,1,796,-4)" class="stroke_order_diagram--existing_path"></path><path id="pathSk2v596cn4f2t" kvg:type="㇆" d="M72.77,55.84c4.73,1.66,11.48,4.66,16.02,5.34c2.35,0.35,3.43,1.32,2.88,3.06C88.25,75,82.87,86.1,77.93,92.72c-4.64,6.21-5.33,0.18-6.29-0.4" transform="matrix(1,0,0,1,796,-4)" class="stroke_order_diagram--existing_path"></path><path id="kvg:06803-s9" kvg:type="㇒" d="M73.02,48.71c0.06,0.94,0.12,2.43-0.12,3.78C71.5,60.46,65,80.5,52.49,88.67" transform="matrix(1,0,0,1,796,-4)" class="stroke_order_diagram--current_path"></path><path id="pathSk2v596cn4f2v" kvg:type="㇒" d="M73.02,48.71c0.06,0.94,0.12,2.43-0.12,3.78C71.5,60.46,65,80.5,52.49,88.67" transform="matrix(1,0,0,1,796,-4)" class="stroke_order_diagram--current_path"></path><circle cx="73.02" cy="48.71" r="8" class="stroke_order_diagram--path_start" transform="matrix(1,0,0,1,796,-4)"></circle></svg>