<svg style="width: 1200px; height: 100px;" viewbox="0 0 1200 100"><style>
.stroke_order_diagram--outer_container {
  width: 100%;
  overflow-x: auto;
  overflow-y: hidden;
}

.stroke_order_diagram--guide_line {
  fill: none;
  stroke: #ddd;
  stroke-width: 3;
  stroke-linecap: square;
  stroke-linejoin: square;
  stroke-dasharray:8, 8;
}

.stroke_order_diagram--bounding_box {
  fill: none;
  stroke: #ddd;
  stroke-width: 4;
  stroke-linecap: square;
  stroke-linejoin: square;
}

.stroke_order_diagram--current_path {
  fill: none;
  stroke: #000;
  stroke-width: 6;
  stroke-linecap: round;
  stroke-linejoin: round;
}

.stroke_order_diagram--existing_path {
  fill: none;
  stroke: #aaa;
  stroke-width: 6;
  stroke-linecap: round;
  stroke-linejoin:round;
}

.stroke_order_diagram--path_start {
  fill: rgba(255, 0, 0, 0.7);
  stroke:none
}</style><desc>Created with Snap</desc><defs></defs><line x1="1" x2="1199" y1="1" y2="1" class="stroke_order_diagram--bounding_box"></line><line x1="1" x2="1" y1="1" y2="99" class="stroke_order_diagram--bounding_box"></line><line x1="1" x2="1199" y1="99" y2="99" class="stroke_order_diagram--bounding_box"></line><line x1="0" x2="1200" y1="50" y2="50" class="stroke_order_diagram--guide_line"></line><line x1="50" x2="50" y1="1" y2="99" class="stroke_order_diagram--guide_line"></line><line x1="99" x2="99" y1="1" y2="99" class="stroke_order_diagram--bounding_box"></line><path id="kvg:068d2-s1" kvg:type="㇐" d="M12.28,39.47c1.97,0.53,4.4,0.44,5.72,0.26c4.65-0.65,12.95-2.45,18.42-3.5c1.27-0.24,3.21-0.6,4.6-0.36" transform="matrix(1,0,0,1,-4,-4)" class="stroke_order_diagram--current_path"></path><path id="pathSk2v596cn26yu" kvg:type="㇐" d="M12.28,39.47c1.97,0.53,4.4,0.44,5.72,0.26c4.65-0.65,12.95-2.45,18.42-3.5c1.27-0.24,3.21-0.6,4.6-0.36" transform="matrix(1,0,0,1,-4,-4)" class="stroke_order_diagram--current_path"></path><circle cx="12.28" cy="39.47" r="8" class="stroke_order_diagram--path_start" transform="matrix(1,0,0,1,-4,-4)"></circle><line x1="150" x2="150" y1="1" y2="99" class="stroke_order_diagram--guide_line"></line><line x1="199" x2="199" y1="1" y2="99" class="stroke_order_diagram--bounding_box"></line><path id="pathSk2v596cn26yx" kvg:type="㇐" d="M12.28,39.47c1.97,0.53,4.4,0.44,5.72,0.26c4.65-0.65,12.95-2.45,18.42-3.5c1.27-0.24,3.21-0.6,4.6-0.36" transform="matrix(1,0,0,1,96,-4)" class="stroke_order_diagram--existing_path"></path><path id="kvg:068d2-s2" kvg:type="㇑" d="M29.11,15.25c0.88,0.88,1.29,2.62,1.29,4.92c0,3.69,0.03,51.38,0.04,70.7c0,3.34,0,5.84,0,7.12" transform="matrix(1,0,0,1,96,-4)" class="stroke_order_diagram--current_path"></path><path id="pathSk2v596cn26yz" kvg:type="㇑" d="M29.11,15.25c0.88,0.88,1.29,2.62,1.29,4.92c0,3.69,0.03,51.38,0.04,70.7c0,3.34,0,5.84,0,7.12" transform="matrix(1,0,0,1,96,-4)" class="stroke_order_diagram--current_path"></path><circle cx="29.11" cy="15.25" r="8" class="stroke_order_diagram--path_start" transform="matrix(1,0,0,1,96,-4)"></circle><line x1="250" x2="250" y1="1" y2="99" class="stroke_order_diagram--guide_line"></line><line x1="299" x2="299" y1="1" y2="99" class="stroke_order_diagram--bounding_box"></line><path id="pathSk2v596cn26z2" kvg:type="㇐" d="M12.28,39.47c1.97,0.53,4.4,0.44,5.72,0.26c4.65-0.65,12.95-2.45,18.42-3.5c1.27-0.24,3.21-0.6,4.6-0.36" transform="matrix(1,0,0,1,196,-4)" class="stroke_order_diagram--existing_path"></path><path id="pathSk2v596cn26z3" kvg:type="㇑" d="M29.11,15.25c0.88,0.88,1.29,2.62,1.29,4.92c0,3.69,0.03,51.38,0.04,70.7c0,3.34,0,5.84,0,7.12" transform="matrix(1,0,0,1,196,-4)" class="stroke_order_diagram--existing_path"></path><path id="kvg:068d2-s3" kvg:type="㇒" d="M29.94,39.53c0,1.09-0.96,3.94-1.42,4.96c-5.07,11.3-8.53,17-16.91,27.85" transform="matrix(1,0,0,1,196,-4)" class="stroke_order_diagram--current_path"></path><path id="pathSk2v596cn26z5" kvg:type="㇒" d="M29.94,39.53c0,1.09-0.96,3.94-1.42,4.96c-5.07,11.3-8.53,17-16.91,27.85" transform="matrix(1,0,0,1,196,-4)" class="stroke_order_diagram--current_path"></path><circle cx="29.94" cy="39.53" r="8" class="stroke_order_diagram--path_start" transform="matrix(1,0,0,1,196,-4)"></circle><line x1="350" x2="350" y1="1" y2="99" class="stroke_order_diagram--guide_line"></line><line x1="399" x2="399" y1="1" y2="99" class="stroke_order_diagram--bounding_box"></line><path id="pathSk2v596cn26z8" kvg:type="㇐" d="M12.28,39.47c1.97,0.53,4.4,0.44,5.72,0.26c4.65-0.65,12.95-2.45,18.42-3.5c1.27-0.24,3.21-0.6,4.6-0.36" transform="matrix(1,0,0,1,296,-4)" class="stroke_order_diagram--existing_path"></path><path id="pathSk2v596cn26z9" kvg:type="㇑" d="M29.11,15.25c0.88,0.88,1.29,2.62,1.29,4.92c0,3.69,0.03,51.38,0.04,70.7c0,3.34,0,5.84,0,7.12" transform="matrix(1,0,0,1,296,-4)" class="stroke_order_diagram--existing_path"></path><path id="pathSk2v596cn26za" kvg:type="㇒" d="M29.94,39.53c0,1.09-0.96,3.94-1.42,4.96c-5.07,11.3-8.53,17-16.91,27.85" transform="matrix(1,0,0,1,296,-4)" class="stroke_order_diagram--existing_path"></path><path id="kvg:068d2-s4" kvg:type="㇔/㇏" d="M33.5,47.12c2.08,1.35,5.5,5.75,7.25,8.38" transform="matrix(1,0,0,1,296,-4)" class="stroke_order_diagram--current_path"></path><path id="pathSk2v596cn26zc" kvg:type="㇔/㇏" d="M33.5,47.12c2.08,1.35,5.5,5.75,7.25,8.38" transform="matrix(1,0,0,1,296,-4)" class="stroke_order_diagram--current_path"></path><circle cx="33.5" cy="47.12" r="8" class="stroke_order_diagram--path_start" transform="matrix(1,0,0,1,296,-4)"></circle><line x1="450" x2="450" y1="1" y2="99" class="stroke_order_diagram--guide_line"></line><line x1="499" x2="499" y1="1" y2="99" class="stroke_order_diagram--bounding_box"></line><path id="pathSk2v596cn26zf" kvg:type="㇐" d="M12.28,39.47c1.97,0.53,4.4,0.44,5.72,0.26c4.65-0.65,12.95-2.45,18.42-3.5c1.27-0.24,3.21-0.6,4.6-0.36" transform="matrix(1,0,0,1,396,-4)" class="stroke_order_diagram--existing_path"></path><path id="pathSk2v596cn26zg" kvg:type="㇑" d="M29.11,15.25c0.88,0.88,1.29,2.62,1.29,4.92c0,3.69,0.03,51.38,0.04,70.7c0,3.34,0,5.84,0,7.12" transform="matrix(1,0,0,1,396,-4)" class="stroke_order_diagram--existing_path"></path><path id="pathSk2v596cn26zh" kvg:type="㇒" d="M29.94,39.53c0,1.09-0.96,3.94-1.42,4.96c-5.07,11.3-8.53,17-16.91,27.85" transform="matrix(1,0,0,1,396,-4)" class="stroke_order_diagram--existing_path"></path><path id="pathSk2v596cn26zi" kvg:type="㇔/㇏" d="M33.5,47.12c2.08,1.35,5.5,5.75,7.25,8.38" transform="matrix(1,0,0,1,396,-4)" class="stroke_order_diagram--existing_path"></path><path id="kvg:068d2-s5" kvg:type="㇐" d="M46.06,24.57c2.57,0.56,4.87,0.39,6.95,0.19c9.48-0.92,18.25-2.29,27.86-2.83c2-0.11,3.94-0.24,5.91,0.22" transform="matrix(1,0,0,1,396,-4)" class="stroke_order_diagram--current_path"></path><path id="pathSk2v596cn26zk" kvg:type="㇐" d="M46.06,24.57c2.57,0.56,4.87,0.39,6.95,0.19c9.48-0.92,18.25-2.29,27.86-2.83c2-0.11,3.94-0.24,5.91,0.22" transform="matrix(1,0,0,1,396,-4)" class="stroke_order_diagram--current_path"></path><circle cx="46.06" cy="24.57" r="8" class="stroke_order_diagram--path_start" transform="matrix(1,0,0,1,396,-4)"></circle><line x1="550" x2="550" y1="1" y2="99" class="stroke_order_diagram--guide_line"></line><line x1="599" x2="599" y1="1" y2="99" class="stroke_order_diagram--bounding_box"></line><path id="pathSk2v596cn26zn" kvg:type="㇐" d="M12.28,39.47c1.97,0.53,4.4,0.44,5.72,0.26c4.65-0.65,12.95-2.45,18.42-3.5c1.27-0.24,3.21-0.6,4.6-0.36" transform="matrix(1,0,0,1,496,-4)" class="stroke_order_diagram--existing_path"></path><path id="pathSk2v596cn26zo" kvg:type="㇑" d="M29.11,15.25c0.88,0.88,1.29,2.62,1.29,4.92c0,3.69,0.03,51.38,0.04,70.7c0,3.34,0,5.84,0,7.12" transform="matrix(1,0,0,1,496,-4)" class="stroke_order_diagram--existing_path"></path><path id="pathSk2v596cn26zp" kvg:type="㇒" d="M29.94,39.53c0,1.09-0.96,3.94-1.42,4.96c-5.07,11.3-8.53,17-16.91,27.85" transform="matrix(1,0,0,1,496,-4)" class="stroke_order_diagram--existing_path"></path><path id="pathSk2v596cn26zq" kvg:type="㇔/㇏" d="M33.5,47.12c2.08,1.35,5.5,5.75,7.25,8.38" transform="matrix(1,0,0,1,496,-4)" class="stroke_order_diagram--existing_path"></path><path id="pathSk2v596cn26zr" kvg:type="㇐" d="M46.06,24.57c2.57,0.56,4.87,0.39,6.95,0.19c9.48-0.92,18.25-2.29,27.86-2.83c2-0.11,3.94-0.24,5.91,0.22" transform="matrix(1,0,0,1,496,-4)" class="stroke_order_diagram--existing_path"></path><path id="kvg:068d2-s6" kvg:type="㇐" d="M47.61,35.97c2.27,0.41,4.1,0.11,5.91-0.07c8.98-0.9,19.02-2.55,26.35-3.16c1.94-0.16,3.89-0.3,5.8,0.19" transform="matrix(1,0,0,1,496,-4)" class="stroke_order_diagram--current_path"></path><path id="pathSk2v596cn26zt" kvg:type="㇐" d="M47.61,35.97c2.27,0.41,4.1,0.11,5.91-0.07c8.98-0.9,19.02-2.55,26.35-3.16c1.94-0.16,3.89-0.3,5.8,0.19" transform="matrix(1,0,0,1,496,-4)" class="stroke_order_diagram--current_path"></path><circle cx="47.61" cy="35.97" r="8" class="stroke_order_diagram--path_start" transform="matrix(1,0,0,1,496,-4)"></circle><line x1="650" x2="650" y1="1" y2="99" class="stroke_order_diagram--guide_line"></line><line x1="699" x2="699" y1="1" y2="99" class="stroke_order_diagram--bounding_box"></line><path id="pathSk2v596cn26zw" kvg:type="㇐" d="M12.28,39.47c1.97,0.53,4.4,0.44,5.72,0.26c4.65-0.65,12.95-2.45,18.42-3.5c1.27-0.24,3.21-0.6,4.6-0.36" transform="matrix(1,0,0,1,596,-4)" class="stroke_order_diagram--existing_path"></path><path id="pathSk2v596cn26zx" kvg:type="㇑" d="M29.11,15.25c0.88,0.88,1.29,2.62,1.29,4.92c0,3.69,0.03,51.38,0.04,70.7c0,3.34,0,5.84,0,7.12" transform="matrix(1,0,0,1,596,-4)" class="stroke_order_diagram--existing_path"></path><path id="pathSk2v596cn26zy" kvg:type="㇒" d="M29.94,39.53c0,1.09-0.96,3.94-1.42,4.96c-5.07,11.3-8.53,17-16.91,27.85" transform="matrix(1,0,0,1,596,-4)" class="stroke_order_diagram--existing_path"></path><path id="pathSk2v596cn26zz" kvg:type="㇔/㇏" d="M33.5,47.12c2.08,1.35,5.5,5.75,7.25,8.38" transform="matrix(1,0,0,1,596,-4)" class="stroke_order_diagram--existing_path"></path><path id="pathSk2v596cn2700" kvg:type="㇐" d="M46.06,24.57c2.57,0.56,4.87,0.39,6.95,0.19c9.48-0.92,18.25-2.29,27.86-2.83c2-0.11,3.94-0.24,5.91,0.22" transform="matrix(1,0,0,1,596,-4)" class="stroke_order_diagram--existing_path"></path><path id="pathSk2v596cn2701" kvg:type="㇐" d="M47.61,35.97c2.27,0.41,4.1,0.11,5.91-0.07c8.98-0.9,19.02-2.55,26.35-3.16c1.94-0.16,3.89-0.3,5.8,0.19" transform="matrix(1,0,0,1,596,-4)" class="stroke_order_diagram--existing_path"></path><path id="kvg:068d2-s7" kvg:type="㇐" d="M42.81,47.68c2.22,0.84,4.9,0.59,7.19,0.29c13.12-1.72,29.63-3.89,39.38-4.3c2.3-0.1,4.63-0.1,6.89,0.41" transform="matrix(1,0,0,1,596,-4)" class="stroke_order_diagram--current_path"></path><path id="pathSk2v596cn2703" kvg:type="㇐" d="M42.81,47.68c2.22,0.84,4.9,0.59,7.19,0.29c13.12-1.72,29.63-3.89,39.38-4.3c2.3-0.1,4.63-0.1,6.89,0.41" transform="matrix(1,0,0,1,596,-4)" class="stroke_order_diagram--current_path"></path><circle cx="42.81" cy="47.68" r="8" class="stroke_order_diagram--path_start" transform="matrix(1,0,0,1,596,-4)"></circle><line x1="750" x2="750" y1="1" y2="99" class="stroke_order_diagram--guide_line"></line><line x1="799" x2="799" y1="1" y2="99" class="stroke_order_diagram--bounding_box"></line><path id="pathSk2v596cn2706" kvg:type="㇐" d="M12.28,39.47c1.97,0.53,4.4,0.44,5.72,0.26c4.65-0.65,12.95-2.45,18.42-3.5c1.27-0.24,3.21-0.6,4.6-0.36" transform="matrix(1,0,0,1,696,-4)" class="stroke_order_diagram--existing_path"></path><path id="pathSk2v596cn2707" kvg:type="㇑" d="M29.11,15.25c0.88,0.88,1.29,2.62,1.29,4.92c0,3.69,0.03,51.38,0.04,70.7c0,3.34,0,5.84,0,7.12" transform="matrix(1,0,0,1,696,-4)" class="stroke_order_diagram--existing_path"></path><path id="pathSk2v596cn2708" kvg:type="㇒" d="M29.94,39.53c0,1.09-0.96,3.94-1.42,4.96c-5.07,11.3-8.53,17-16.91,27.85" transform="matrix(1,0,0,1,696,-4)" class="stroke_order_diagram--existing_path"></path><path id="pathSk2v596cn2709" kvg:type="㇔/㇏" d="M33.5,47.12c2.08,1.35,5.5,5.75,7.25,8.38" transform="matrix(1,0,0,1,696,-4)" class="stroke_order_diagram--existing_path"></path><path id="pathSk2v596cn270a" kvg:type="㇐" d="M46.06,24.57c2.57,0.56,4.87,0.39,6.95,0.19c9.48-0.92,18.25-2.29,27.86-2.83c2-0.11,3.94-0.24,5.91,0.22" transform="matrix(1,0,0,1,696,-4)" class="stroke_order_diagram--existing_path"></path><path id="pathSk2v596cn270b" kvg:type="㇐" d="M47.61,35.97c2.27,0.41,4.1,0.11,5.91-0.07c8.98-0.9,19.02-2.55,26.35-3.16c1.94-0.16,3.89-0.3,5.8,0.19" transform="matrix(1,0,0,1,696,-4)" class="stroke_order_diagram--existing_path"></path><path id="pathSk2v596cn270c" kvg:type="㇐" d="M42.81,47.68c2.22,0.84,4.9,0.59,7.19,0.29c13.12-1.72,29.63-3.89,39.38-4.3c2.3-0.1,4.63-0.1,6.89,0.41" transform="matrix(1,0,0,1,696,-4)" class="stroke_order_diagram--existing_path"></path><path id="kvg:068d2-s8" kvg:type="㇒" d="M66.08,12.5c0.67,1.25,0.85,2.61,0.51,4.53C64,31.62,59,55,39.58,69.23" transform="matrix(1,0,0,1,696,-4)" class="stroke_order_diagram--current_path"></path><path id="pathSk2v596cn270e" kvg:type="㇒" d="M66.08,12.5c0.67,1.25,0.85,2.61,0.51,4.53C64,31.62,59,55,39.58,69.23" transform="matrix(1,0,0,1,696,-4)" class="stroke_order_diagram--current_path"></path><circle cx="66.08" cy="12.5" r="8" class="stroke_order_diagram--path_start" transform="matrix(1,0,0,1,696,-4)"></circle><line x1="850" x2="850" y1="1" y2="99" class="stroke_order_diagram--guide_line"></line><line x1="899" x2="899" y1="1" y2="99" class="stroke_order_diagram--bounding_box"></line><path id="pathSk2v596cn270h" kvg:type="㇐" d="M12.28,39.47c1.97,0.53,4.4,0.44,5.72,0.26c4.65-0.65,12.95-2.45,18.42-3.5c1.27-0.24,3.21-0.6,4.6-0.36" transform="matrix(1,0,0,1,796,-4)" class="stroke_order_diagram--existing_path"></path><path id="pathSk2v596cn270i" kvg:type="㇑" d="M29.11,15.25c0.88,0.88,1.29,2.62,1.29,4.92c0,3.69,0.03,51.38,0.04,70.7c0,3.34,0,5.84,0,7.12" transform="matrix(1,0,0,1,796,-4)" class="stroke_order_diagram--existing_path"></path><path id="pathSk2v596cn270j" kvg:type="㇒" d="M29.94,39.53c0,1.09-0.96,3.94-1.42,4.96c-5.07,11.3-8.53,17-16.91,27.85" transform="matrix(1,0,0,1,796,-4)" class="stroke_order_diagram--existing_path"></path><path id="pathSk2v596cn270k" kvg:type="㇔/㇏" d="M33.5,47.12c2.08,1.35,5.5,5.75,7.25,8.38" transform="matrix(1,0,0,1,796,-4)" class="stroke_order_diagram--existing_path"></path><path id="pathSk2v596cn270l" kvg:type="㇐" d="M46.06,24.57c2.57,0.56,4.87,0.39,6.95,0.19c9.48-0.92,18.25-2.29,27.86-2.83c2-0.11,3.94-0.24,5.91,0.22" transform="matrix(1,0,0,1,796,-4)" class="stroke_order_diagram--existing_path"></path><path id="pathSk2v596cn270m" kvg:type="㇐" d="M47.61,35.97c2.27,0.41,4.1,0.11,5.91-0.07c8.98-0.9,19.02-2.55,26.35-3.16c1.94-0.16,3.89-0.3,5.8,0.19" transform="matrix(1,0,0,1,796,-4)" class="stroke_order_diagram--existing_path"></path><path id="pathSk2v596cn270n" kvg:type="㇐" d="M42.81,47.68c2.22,0.84,4.9,0.59,7.19,0.29c13.12-1.72,29.63-3.89,39.38-4.3c2.3-0.1,4.63-0.1,6.89,0.41" transform="matrix(1,0,0,1,796,-4)" class="stroke_order_diagram--existing_path"></path><path id="pathSk2v596cn270o" kvg:type="㇒" d="M66.08,12.5c0.67,1.25,0.85,2.61,0.51,4.53C64,31.62,59,55,39.58,69.23" transform="matrix(1,0,0,1,796,-4)" class="stroke_order_diagram--existing_path"></path><path id="kvg:068d2-s9" kvg:type="㇏" d="M69.6,39.63C71.12,40.38,86.25,55,90.75,59c1.34,1.19,3.5,2.5,5.67,3.71" transform="matrix(1,0,0,1,796,-4)" class="stroke_order_diagram--current_path"></path><path id="pathSk2v596cn270q" kvg:type="㇏" d="M69.6,39.63C71.12,40.38,86.25,55,90.75,59c1.34,1.19,3.5,2.5,5.67,3.71" transform="matrix(1,0,0,1,796,-4)" class="stroke_order_diagram--current_path"></path><circle cx="69.6" cy="39.63" r="8" class="stroke_order_diagram--path_start" transform="matrix(1,0,0,1,796,-4)"></circle><line x1="950" x2="950" y1="1" y2="99" class="stroke_order_diagram--guide_line"></line><line x1="999" x2="999" y1="1" y2="99" class="stroke_order_diagram--bounding_box"></line><path id="pathSk2v596cn270t" kvg:type="㇐" d="M12.28,39.47c1.97,0.53,4.4,0.44,5.72,0.26c4.65-0.65,12.95-2.45,18.42-3.5c1.27-0.24,3.21-0.6,4.6-0.36" transform="matrix(1,0,0,1,896,-4)" class="stroke_order_diagram--existing_path"></path><path id="pathSk2v596cn270u" kvg:type="㇑" d="M29.11,15.25c0.88,0.88,1.29,2.62,1.29,4.92c0,3.69,0.03,51.38,0.04,70.7c0,3.34,0,5.84,0,7.12" transform="matrix(1,0,0,1,896,-4)" class="stroke_order_diagram--existing_path"></path><path id="pathSk2v596cn270v" kvg:type="㇒" d="M29.94,39.53c0,1.09-0.96,3.94-1.42,4.96c-5.07,11.3-8.53,17-16.91,27.85" transform="matrix(1,0,0,1,896,-4)" class="stroke_order_diagram--existing_path"></path><path id="pathSk2v596cn270w" kvg:type="㇔/㇏" d="M33.5,47.12c2.08,1.35,5.5,5.75,7.25,8.38" transform="matrix(1,0,0,1,896,-4)" class="stroke_order_diagram--existing_path"></path><path id="pathSk2v596cn270x" kvg:type="㇐" d="M46.06,24.57c2.57,0.56,4.87,0.39,6.95,0.19c9.48-0.92,18.25-2.29,27.86-2.83c2-0.11,3.94-0.24,5.91,0.22" transform="matrix(1,0,0,1,896,-4)" class="stroke_order_diagram--existing_path"></path><path id="pathSk2v596cn270y" kvg:type="㇐" d="M47.61,35.97c2.27,0.41,4.1,0.11,5.91-0.07c8.98-0.9,19.02-2.55,26.35-3.16c1.94-0.16,3.89-0.3,5.8,0.19" transform="matrix(1,0,0,1,896,-4)" class="stroke_order_diagram--existing_path"></path><path id="pathSk2v596cn270z" kvg:type="㇐" d="M42.81,47.68c2.22,0.84,4.9,0.59,7.19,0.29c13.12-1.72,29.63-3.89,39.38-4.3c2.3-0.1,4.63-0.1,6.89,0.41" transform="matrix(1,0,0,1,896,-4)" class="stroke_order_diagram--existing_path"></path><path id="pathSk2v596cn2710" kvg:type="㇒" d="M66.08,12.5c0.67,1.25,0.85,2.61,0.51,4.53C64,31.62,59,55,39.58,69.23" transform="matrix(1,0,0,1,896,-4)" class="stroke_order_diagram--existing_path"></path><path id="pathSk2v596cn2711" kvg:type="㇏" d="M69.6,39.63C71.12,40.38,86.25,55,90.75,59c1.34,1.19,3.5,2.5,5.67,3.71" transform="matrix(1,0,0,1,896,-4)" class="stroke_order_diagram--existing_path"></path><path id="kvg:068d2-s10" kvg:type="㇐" d="M54.53,63.93c1.52,0.62,3.13,0.53,4.72,0.46c5.35-0.24,13.97-1.5,18.74-1.86c1.28-0.1,2.37-0.28,3.77-0.06" transform="matrix(1,0,0,1,896,-4)" class="stroke_order_diagram--current_path"></path><path id="pathSk2v596cn2713" kvg:type="㇐" d="M54.53,63.93c1.52,0.62,3.13,0.53,4.72,0.46c5.35-0.24,13.97-1.5,18.74-1.86c1.28-0.1,2.37-0.28,3.77-0.06" transform="matrix(1,0,0,1,896,-4)" class="stroke_order_diagram--current_path"></path><circle cx="54.53" cy="63.93" r="8" class="stroke_order_diagram--path_start" transform="matrix(1,0,0,1,896,-4)"></circle><line x1="1050" x2="1050" y1="1" y2="99" class="stroke_order_diagram--guide_line"></line><line x1="1099" x2="1099" y1="1" y2="99" class="stroke_order_diagram--bounding_box"></line><path id="pathSk2v596cn2716" kvg:type="㇐" d="M12.28,39.47c1.97,0.53,4.4,0.44,5.72,0.26c4.65-0.65,12.95-2.45,18.42-3.5c1.27-0.24,3.21-0.6,4.6-0.36" transform="matrix(1,0,0,1,996,-4)" class="stroke_order_diagram--existing_path"></path><path id="pathSk2v596cn2717" kvg:type="㇑" d="M29.11,15.25c0.88,0.88,1.29,2.62,1.29,4.92c0,3.69,0.03,51.38,0.04,70.7c0,3.34,0,5.84,0,7.12" transform="matrix(1,0,0,1,996,-4)" class="stroke_order_diagram--existing_path"></path><path id="pathSk2v596cn2718" kvg:type="㇒" d="M29.94,39.53c0,1.09-0.96,3.94-1.42,4.96c-5.07,11.3-8.53,17-16.91,27.85" transform="matrix(1,0,0,1,996,-4)" class="stroke_order_diagram--existing_path"></path><path id="pathSk2v596cn2719" kvg:type="㇔/㇏" d="M33.5,47.12c2.08,1.35,5.5,5.75,7.25,8.38" transform="matrix(1,0,0,1,996,-4)" class="stroke_order_diagram--existing_path"></path><path id="pathSk2v596cn271a" kvg:type="㇐" d="M46.06,24.57c2.57,0.56,4.87,0.39,6.95,0.19c9.48-0.92,18.25-2.29,27.86-2.83c2-0.11,3.94-0.24,5.91,0.22" transform="matrix(1,0,0,1,996,-4)" class="stroke_order_diagram--existing_path"></path><path id="pathSk2v596cn271b" kvg:type="㇐" d="M47.61,35.97c2.27,0.41,4.1,0.11,5.91-0.07c8.98-0.9,19.02-2.55,26.35-3.16c1.94-0.16,3.89-0.3,5.8,0.19" transform="matrix(1,0,0,1,996,-4)" class="stroke_order_diagram--existing_path"></path><path id="pathSk2v596cn271c" kvg:type="㇐" d="M42.81,47.68c2.22,0.84,4.9,0.59,7.19,0.29c13.12-1.72,29.63-3.89,39.38-4.3c2.3-0.1,4.63-0.1,6.89,0.41" transform="matrix(1,0,0,1,996,-4)" class="stroke_order_diagram--existing_path"></path><path id="pathSk2v596cn271d" kvg:type="㇒" d="M66.08,12.5c0.67,1.25,0.85,2.61,0.51,4.53C64,31.62,59,55,39.58,69.23" transform="matrix(1,0,0,1,996,-4)" class="stroke_order_diagram--existing_path"></path><path id="pathSk2v596cn271e" kvg:type="㇏" d="M69.6,39.63C71.12,40.38,86.25,55,90.75,59c1.34,1.19,3.5,2.5,5.67,3.71" transform="matrix(1,0,0,1,996,-4)" class="stroke_order_diagram--existing_path"></path><path id="pathSk2v596cn271f" kvg:type="㇐" d="M54.53,63.93c1.52,0.62,3.13,0.53,4.72,0.46c5.35-0.24,13.97-1.5,18.74-1.86c1.28-0.1,2.37-0.28,3.77-0.06" transform="matrix(1,0,0,1,996,-4)" class="stroke_order_diagram--existing_path"></path><path id="kvg:068d2-s11" kvg:type="㇐" d="M46.97,77.59c2.41,0.41,4.87,0.3,6.94,0.1c7.84-0.74,23.93-2.33,31.48-2.43c2.02-0.03,4.2-0.02,6.17,0.45" transform="matrix(1,0,0,1,996,-4)" class="stroke_order_diagram--current_path"></path><path id="pathSk2v596cn271h" kvg:type="㇐" d="M46.97,77.59c2.41,0.41,4.87,0.3,6.94,0.1c7.84-0.74,23.93-2.33,31.48-2.43c2.02-0.03,4.2-0.02,6.17,0.45" transform="matrix(1,0,0,1,996,-4)" class="stroke_order_diagram--current_path"></path><circle cx="46.97" cy="77.59" r="8" class="stroke_order_diagram--path_start" transform="matrix(1,0,0,1,996,-4)"></circle><line x1="1150" x2="1150" y1="1" y2="99" class="stroke_order_diagram--guide_line"></line><line x1="1199" x2="1199" y1="1" y2="99" class="stroke_order_diagram--bounding_box"></line><path id="pathSk2v596cn271k" kvg:type="㇐" d="M12.28,39.47c1.97,0.53,4.4,0.44,5.72,0.26c4.65-0.65,12.95-2.45,18.42-3.5c1.27-0.24,3.21-0.6,4.6-0.36" transform="matrix(1,0,0,1,1096,-4)" class="stroke_order_diagram--existing_path"></path><path id="pathSk2v596cn271l" kvg:type="㇑" d="M29.11,15.25c0.88,0.88,1.29,2.62,1.29,4.92c0,3.69,0.03,51.38,0.04,70.7c0,3.34,0,5.84,0,7.12" transform="matrix(1,0,0,1,1096,-4)" class="stroke_order_diagram--existing_path"></path><path id="pathSk2v596cn271m" kvg:type="㇒" d="M29.94,39.53c0,1.09-0.96,3.94-1.42,4.96c-5.07,11.3-8.53,17-16.91,27.85" transform="matrix(1,0,0,1,1096,-4)" class="stroke_order_diagram--existing_path"></path><path id="pathSk2v596cn271n" kvg:type="㇔/㇏" d="M33.5,47.12c2.08,1.35,5.5,5.75,7.25,8.38" transform="matrix(1,0,0,1,1096,-4)" class="stroke_order_diagram--existing_path"></path><path id="pathSk2v596cn271o" kvg:type="㇐" d="M46.06,24.57c2.57,0.56,4.87,0.39,6.95,0.19c9.48-0.92,18.25-2.29,27.86-2.83c2-0.11,3.94-0.24,5.91,0.22" transform="matrix(1,0,0,1,1096,-4)" class="stroke_order_diagram--existing_path"></path><path id="pathSk2v596cn271p" kvg:type="㇐" d="M47.61,35.97c2.27,0.41,4.1,0.11,5.91-0.07c8.98-0.9,19.02-2.55,26.35-3.16c1.94-0.16,3.89-0.3,5.8,0.19" transform="matrix(1,0,0,1,1096,-4)" class="stroke_order_diagram--existing_path"></path><path id="pathSk2v596cn271q" kvg:type="㇐" d="M42.81,47.68c2.22,0.84,4.9,0.59,7.19,0.29c13.12-1.72,29.63-3.89,39.38-4.3c2.3-0.1,4.63-0.1,6.89,0.41" transform="matrix(1,0,0,1,1096,-4)" class="stroke_order_diagram--existing_path"></path><path id="pathSk2v596cn271r" kvg:type="㇒" d="M66.08,12.5c0.67,1.25,0.85,2.61,0.51,4.53C64,31.62,59,55,39.58,69.23" transform="matrix(1,0,0,1,1096,-4)" class="stroke_order_diagram--existing_path"></path><path id="pathSk2v596cn271s" kvg:type="㇏" d="M69.6,39.63C71.12,40.38,86.25,55,90.75,59c1.34,1.19,3.5,2.5,5.67,3.71" transform="matrix(1,0,0,1,1096,-4)" class="stroke_order_diagram--existing_path"></path><path id="pathSk2v596cn271t" kvg:type="㇐" d="M54.53,63.93c1.52,0.62,3.13,0.53,4.72,0.46c5.35-0.24,13.97-1.5,18.74-1.86c1.28-0.1,2.37-0.28,3.77-0.06" transform="matrix(1,0,0,1,1096,-4)" class="stroke_order_diagram--existing_path"></path><path id="pathSk2v596cn271u" kvg:type="㇐" d="M46.97,77.59c2.41,0.41,4.87,0.3,6.94,0.1c7.84-0.74,23.93-2.33,31.48-2.43c2.02-0.03,4.2-0.02,6.17,0.45" transform="matrix(1,0,0,1,1096,-4)" class="stroke_order_diagram--existing_path"></path><path id="kvg:068d2-s12" kvg:type="㇑" d="M66.61,52.29c0.99,0.99,1.43,2.46,1.43,4.55c0,11.31,0.01,29.16,0.01,38.16c0,2.04-0.04,3.61-0.04,4.5" transform="matrix(1,0,0,1,1096,-4)" class="stroke_order_diagram--current_path"></path><path id="pathSk2v596cn271w" kvg:type="㇑" d="M66.61,52.29c0.99,0.99,1.43,2.46,1.43,4.55c0,11.31,0.01,29.16,0.01,38.16c0,2.04-0.04,3.61-0.04,4.5" transform="matrix(1,0,0,1,1096,-4)" class="stroke_order_diagram--current_path"></path><circle cx="66.61" cy="52.29" r="8" class="stroke_order_diagram--path_start" transform="matrix(1,0,0,1,1096,-4)"></circle></svg>