<svg style="width: 1200px; height: 100px;" viewbox="0 0 1200 100"><style>
.stroke_order_diagram--outer_container {
  width: 100%;
  overflow-x: auto;
  overflow-y: hidden;
}

.stroke_order_diagram--guide_line {
  fill: none;
  stroke: #ddd;
  stroke-width: 3;
  stroke-linecap: square;
  stroke-linejoin: square;
  stroke-dasharray:8, 8;
}

.stroke_order_diagram--bounding_box {
  fill: none;
  stroke: #ddd;
  stroke-width: 4;
  stroke-linecap: square;
  stroke-linejoin: square;
}

.stroke_order_diagram--current_path {
  fill: none;
  stroke: #000;
  stroke-width: 6;
  stroke-linecap: round;
  stroke-linejoin: round;
}

.stroke_order_diagram--existing_path {
  fill: none;
  stroke: #aaa;
  stroke-width: 6;
  stroke-linecap: round;
  stroke-linejoin:round;
}

.stroke_order_diagram--path_start {
  fill: rgba(255, 0, 0, 0.7);
  stroke:none
}</style><desc>Created with Snap</desc><defs></defs><line x1="1" x2="1199" y1="1" y2="1" class="stroke_order_diagram--bounding_box"></line><line x1="1" x2="1" y1="1" y2="99" class="stroke_order_diagram--bounding_box"></line><line x1="1" x2="1199" y1="99" y2="99" class="stroke_order_diagram--bounding_box"></line><line x1="0" x2="1200" y1="50" y2="50" class="stroke_order_diagram--guide_line"></line><line x1="50" x2="50" y1="1" y2="99" class="stroke_order_diagram--guide_line"></line><line x1="99" x2="99" y1="1" y2="99" class="stroke_order_diagram--bounding_box"></line><path id="kvg:0690e-s1" kvg:type="㇐" d="M13.53,41.22c1.3,0.91,5.05,0.36,6.47,0.17c5.57-0.75,16.31-2.28,22-3.28c1.25-0.22,3-0.48,4.27-0.24" transform="matrix(1,0,0,1,-4,-4)" class="stroke_order_diagram--current_path"></path><path id="pathSk2v596cn4pcj" kvg:type="㇐" d="M13.53,41.22c1.3,0.91,5.05,0.36,6.47,0.17c5.57-0.75,16.31-2.28,22-3.28c1.25-0.22,3-0.48,4.27-0.24" transform="matrix(1,0,0,1,-4,-4)" class="stroke_order_diagram--current_path"></path><circle cx="13.53" cy="41.22" r="8" class="stroke_order_diagram--path_start" transform="matrix(1,0,0,1,-4,-4)"></circle><line x1="150" x2="150" y1="1" y2="99" class="stroke_order_diagram--guide_line"></line><line x1="199" x2="199" y1="1" y2="99" class="stroke_order_diagram--bounding_box"></line><path id="pathSk2v596cn4pcm" kvg:type="㇐" d="M13.53,41.22c1.3,0.91,5.05,0.36,6.47,0.17c5.57-0.75,16.31-2.28,22-3.28c1.25-0.22,3-0.48,4.27-0.24" transform="matrix(1,0,0,1,96,-4)" class="stroke_order_diagram--existing_path"></path><path id="kvg:0690e-s2" kvg:type="㇑" d="M31.86,13.5c1.26,1.26,1.79,2.75,1.79,5.67c0,2.57-0.02,50.01-0.02,70.95c0,4.13,0,7.23,0,8.75" transform="matrix(1,0,0,1,96,-4)" class="stroke_order_diagram--current_path"></path><path id="pathSk2v596cn4pco" kvg:type="㇑" d="M31.86,13.5c1.26,1.26,1.79,2.75,1.79,5.67c0,2.57-0.02,50.01-0.02,70.95c0,4.13,0,7.23,0,8.75" transform="matrix(1,0,0,1,96,-4)" class="stroke_order_diagram--current_path"></path><circle cx="31.86" cy="13.5" r="8" class="stroke_order_diagram--path_start" transform="matrix(1,0,0,1,96,-4)"></circle><line x1="250" x2="250" y1="1" y2="99" class="stroke_order_diagram--guide_line"></line><line x1="299" x2="299" y1="1" y2="99" class="stroke_order_diagram--bounding_box"></line><path id="pathSk2v596cn4pcr" kvg:type="㇐" d="M13.53,41.22c1.3,0.91,5.05,0.36,6.47,0.17c5.57-0.75,16.31-2.28,22-3.28c1.25-0.22,3-0.48,4.27-0.24" transform="matrix(1,0,0,1,196,-4)" class="stroke_order_diagram--existing_path"></path><path id="pathSk2v596cn4pcs" kvg:type="㇑" d="M31.86,13.5c1.26,1.26,1.79,2.75,1.79,5.67c0,2.57-0.02,50.01-0.02,70.95c0,4.13,0,7.23,0,8.75" transform="matrix(1,0,0,1,196,-4)" class="stroke_order_diagram--existing_path"></path><path id="kvg:0690e-s3" kvg:type="㇒" d="M33.19,42.28c0,1.59-0.76,4.08-1.28,5.4c-4.03,10.19-8.65,19.94-20.05,33.9" transform="matrix(1,0,0,1,196,-4)" class="stroke_order_diagram--current_path"></path><path id="pathSk2v596cn4pcu" kvg:type="㇒" d="M33.19,42.28c0,1.59-0.76,4.08-1.28,5.4c-4.03,10.19-8.65,19.94-20.05,33.9" transform="matrix(1,0,0,1,196,-4)" class="stroke_order_diagram--current_path"></path><circle cx="33.19" cy="42.28" r="8" class="stroke_order_diagram--path_start" transform="matrix(1,0,0,1,196,-4)"></circle><line x1="350" x2="350" y1="1" y2="99" class="stroke_order_diagram--guide_line"></line><line x1="399" x2="399" y1="1" y2="99" class="stroke_order_diagram--bounding_box"></line><path id="pathSk2v596cn4pcx" kvg:type="㇐" d="M13.53,41.22c1.3,0.91,5.05,0.36,6.47,0.17c5.57-0.75,16.31-2.28,22-3.28c1.25-0.22,3-0.48,4.27-0.24" transform="matrix(1,0,0,1,296,-4)" class="stroke_order_diagram--existing_path"></path><path id="pathSk2v596cn4pcy" kvg:type="㇑" d="M31.86,13.5c1.26,1.26,1.79,2.75,1.79,5.67c0,2.57-0.02,50.01-0.02,70.95c0,4.13,0,7.23,0,8.75" transform="matrix(1,0,0,1,296,-4)" class="stroke_order_diagram--existing_path"></path><path id="pathSk2v596cn4pcz" kvg:type="㇒" d="M33.19,42.28c0,1.59-0.76,4.08-1.28,5.4c-4.03,10.19-8.65,19.94-20.05,33.9" transform="matrix(1,0,0,1,296,-4)" class="stroke_order_diagram--existing_path"></path><path id="kvg:0690e-s4" kvg:type="㇔/㇏" d="M36.25,52.25c2.58,1.94,6.82,8.24,9,12" transform="matrix(1,0,0,1,296,-4)" class="stroke_order_diagram--current_path"></path><path id="pathSk2v596cn4pd1" kvg:type="㇔/㇏" d="M36.25,52.25c2.58,1.94,6.82,8.24,9,12" transform="matrix(1,0,0,1,296,-4)" class="stroke_order_diagram--current_path"></path><circle cx="36.25" cy="52.25" r="8" class="stroke_order_diagram--path_start" transform="matrix(1,0,0,1,296,-4)"></circle><line x1="450" x2="450" y1="1" y2="99" class="stroke_order_diagram--guide_line"></line><line x1="499" x2="499" y1="1" y2="99" class="stroke_order_diagram--bounding_box"></line><path id="pathSk2v596cn4pd4" kvg:type="㇐" d="M13.53,41.22c1.3,0.91,5.05,0.36,6.47,0.17c5.57-0.75,16.31-2.28,22-3.28c1.25-0.22,3-0.48,4.27-0.24" transform="matrix(1,0,0,1,396,-4)" class="stroke_order_diagram--existing_path"></path><path id="pathSk2v596cn4pd5" kvg:type="㇑" d="M31.86,13.5c1.26,1.26,1.79,2.75,1.79,5.67c0,2.57-0.02,50.01-0.02,70.95c0,4.13,0,7.23,0,8.75" transform="matrix(1,0,0,1,396,-4)" class="stroke_order_diagram--existing_path"></path><path id="pathSk2v596cn4pd6" kvg:type="㇒" d="M33.19,42.28c0,1.59-0.76,4.08-1.28,5.4c-4.03,10.19-8.65,19.94-20.05,33.9" transform="matrix(1,0,0,1,396,-4)" class="stroke_order_diagram--existing_path"></path><path id="pathSk2v596cn4pd7" kvg:type="㇔/㇏" d="M36.25,52.25c2.58,1.94,6.82,8.24,9,12" transform="matrix(1,0,0,1,396,-4)" class="stroke_order_diagram--existing_path"></path><path id="kvg:0690e-s5" kvg:type="㇒" d="M63.71,15c0.2,1.78-0.31,3.35-0.95,4.88c-4.07,9.71-9.23,18.42-18.56,30.24" transform="matrix(1,0,0,1,396,-4)" class="stroke_order_diagram--current_path"></path><path id="pathSk2v596cn4pd9" kvg:type="㇒" d="M63.71,15c0.2,1.78-0.31,3.35-0.95,4.88c-4.07,9.71-9.23,18.42-18.56,30.24" transform="matrix(1,0,0,1,396,-4)" class="stroke_order_diagram--current_path"></path><circle cx="63.71" cy="15" r="8" class="stroke_order_diagram--path_start" transform="matrix(1,0,0,1,396,-4)"></circle><line x1="550" x2="550" y1="1" y2="99" class="stroke_order_diagram--guide_line"></line><line x1="599" x2="599" y1="1" y2="99" class="stroke_order_diagram--bounding_box"></line><path id="pathSk2v596cn4pdc" kvg:type="㇐" d="M13.53,41.22c1.3,0.91,5.05,0.36,6.47,0.17c5.57-0.75,16.31-2.28,22-3.28c1.25-0.22,3-0.48,4.27-0.24" transform="matrix(1,0,0,1,496,-4)" class="stroke_order_diagram--existing_path"></path><path id="pathSk2v596cn4pdd" kvg:type="㇑" d="M31.86,13.5c1.26,1.26,1.79,2.75,1.79,5.67c0,2.57-0.02,50.01-0.02,70.95c0,4.13,0,7.23,0,8.75" transform="matrix(1,0,0,1,496,-4)" class="stroke_order_diagram--existing_path"></path><path id="pathSk2v596cn4pde" kvg:type="㇒" d="M33.19,42.28c0,1.59-0.76,4.08-1.28,5.4c-4.03,10.19-8.65,19.94-20.05,33.9" transform="matrix(1,0,0,1,496,-4)" class="stroke_order_diagram--existing_path"></path><path id="pathSk2v596cn4pdf" kvg:type="㇔/㇏" d="M36.25,52.25c2.58,1.94,6.82,8.24,9,12" transform="matrix(1,0,0,1,496,-4)" class="stroke_order_diagram--existing_path"></path><path id="pathSk2v596cn4pdg" kvg:type="㇒" d="M63.71,15c0.2,1.78-0.31,3.35-0.95,4.88c-4.07,9.71-9.23,18.42-18.56,30.24" transform="matrix(1,0,0,1,496,-4)" class="stroke_order_diagram--existing_path"></path><path id="kvg:0690e-s6" kvg:type="㇑" d="M55.57,40.83c1.05,1.05,1.16,2.42,1.16,4.41c0,9.04-0.06,30.57-0.09,42.88c-0.01,3.66-0.01,6.55-0.01,8.12" transform="matrix(1,0,0,1,496,-4)" class="stroke_order_diagram--current_path"></path><path id="pathSk2v596cn4pdi" kvg:type="㇑" d="M55.57,40.83c1.05,1.05,1.16,2.42,1.16,4.41c0,9.04-0.06,30.57-0.09,42.88c-0.01,3.66-0.01,6.55-0.01,8.12" transform="matrix(1,0,0,1,496,-4)" class="stroke_order_diagram--current_path"></path><circle cx="55.57" cy="40.83" r="8" class="stroke_order_diagram--path_start" transform="matrix(1,0,0,1,496,-4)"></circle><line x1="650" x2="650" y1="1" y2="99" class="stroke_order_diagram--guide_line"></line><line x1="699" x2="699" y1="1" y2="99" class="stroke_order_diagram--bounding_box"></line><path id="pathSk2v596cn4pdl" kvg:type="㇐" d="M13.53,41.22c1.3,0.91,5.05,0.36,6.47,0.17c5.57-0.75,16.31-2.28,22-3.28c1.25-0.22,3-0.48,4.27-0.24" transform="matrix(1,0,0,1,596,-4)" class="stroke_order_diagram--existing_path"></path><path id="pathSk2v596cn4pdm" kvg:type="㇑" d="M31.86,13.5c1.26,1.26,1.79,2.75,1.79,5.67c0,2.57-0.02,50.01-0.02,70.95c0,4.13,0,7.23,0,8.75" transform="matrix(1,0,0,1,596,-4)" class="stroke_order_diagram--existing_path"></path><path id="pathSk2v596cn4pdn" kvg:type="㇒" d="M33.19,42.28c0,1.59-0.76,4.08-1.28,5.4c-4.03,10.19-8.65,19.94-20.05,33.9" transform="matrix(1,0,0,1,596,-4)" class="stroke_order_diagram--existing_path"></path><path id="pathSk2v596cn4pdo" kvg:type="㇔/㇏" d="M36.25,52.25c2.58,1.94,6.82,8.24,9,12" transform="matrix(1,0,0,1,596,-4)" class="stroke_order_diagram--existing_path"></path><path id="pathSk2v596cn4pdp" kvg:type="㇒" d="M63.71,15c0.2,1.78-0.31,3.35-0.95,4.88c-4.07,9.71-9.23,18.42-18.56,30.24" transform="matrix(1,0,0,1,596,-4)" class="stroke_order_diagram--existing_path"></path><path id="pathSk2v596cn4pdq" kvg:type="㇑" d="M55.57,40.83c1.05,1.05,1.16,2.42,1.16,4.41c0,9.04-0.06,30.57-0.09,42.88c-0.01,3.66-0.01,6.55-0.01,8.12" transform="matrix(1,0,0,1,596,-4)" class="stroke_order_diagram--existing_path"></path><path id="kvg:0690e-s7" kvg:type="㇒" d="M81.8,15.25c0.08,1.25-0.2,2.65-0.51,3.7c-1.79,5.93-2.86,10.14-6.41,18.43" transform="matrix(1,0,0,1,596,-4)" class="stroke_order_diagram--current_path"></path><path id="pathSk2v596cn4pds" kvg:type="㇒" d="M81.8,15.25c0.08,1.25-0.2,2.65-0.51,3.7c-1.79,5.93-2.86,10.14-6.41,18.43" transform="matrix(1,0,0,1,596,-4)" class="stroke_order_diagram--current_path"></path><circle cx="81.8" cy="15.25" r="8" class="stroke_order_diagram--path_start" transform="matrix(1,0,0,1,596,-4)"></circle><line x1="750" x2="750" y1="1" y2="99" class="stroke_order_diagram--guide_line"></line><line x1="799" x2="799" y1="1" y2="99" class="stroke_order_diagram--bounding_box"></line><path id="pathSk2v596cn4pdv" kvg:type="㇐" d="M13.53,41.22c1.3,0.91,5.05,0.36,6.47,0.17c5.57-0.75,16.31-2.28,22-3.28c1.25-0.22,3-0.48,4.27-0.24" transform="matrix(1,0,0,1,696,-4)" class="stroke_order_diagram--existing_path"></path><path id="pathSk2v596cn4pdw" kvg:type="㇑" d="M31.86,13.5c1.26,1.26,1.79,2.75,1.79,5.67c0,2.57-0.02,50.01-0.02,70.95c0,4.13,0,7.23,0,8.75" transform="matrix(1,0,0,1,696,-4)" class="stroke_order_diagram--existing_path"></path><path id="pathSk2v596cn4pdx" kvg:type="㇒" d="M33.19,42.28c0,1.59-0.76,4.08-1.28,5.4c-4.03,10.19-8.65,19.94-20.05,33.9" transform="matrix(1,0,0,1,696,-4)" class="stroke_order_diagram--existing_path"></path><path id="pathSk2v596cn4pdy" kvg:type="㇔/㇏" d="M36.25,52.25c2.58,1.94,6.82,8.24,9,12" transform="matrix(1,0,0,1,696,-4)" class="stroke_order_diagram--existing_path"></path><path id="pathSk2v596cn4pdz" kvg:type="㇒" d="M63.71,15c0.2,1.78-0.31,3.35-0.95,4.88c-4.07,9.71-9.23,18.42-18.56,30.24" transform="matrix(1,0,0,1,696,-4)" class="stroke_order_diagram--existing_path"></path><path id="pathSk2v596cn4pe0" kvg:type="㇑" d="M55.57,40.83c1.05,1.05,1.16,2.42,1.16,4.41c0,9.04-0.06,30.57-0.09,42.88c-0.01,3.66-0.01,6.55-0.01,8.12" transform="matrix(1,0,0,1,696,-4)" class="stroke_order_diagram--existing_path"></path><path id="pathSk2v596cn4pe1" kvg:type="㇒" d="M81.8,15.25c0.08,1.25-0.2,2.65-0.51,3.7c-1.79,5.93-2.86,10.14-6.41,18.43" transform="matrix(1,0,0,1,696,-4)" class="stroke_order_diagram--existing_path"></path><path id="kvg:0690e-s8" kvg:type="㇐b" d="M57.57,42.55c5.7-0.83,21.38-2.57,30.45-3.66c3.17-0.38,5.53-0.68,6.38-0.84" transform="matrix(1,0,0,1,696,-4)" class="stroke_order_diagram--current_path"></path><path id="pathSk2v596cn4pe3" kvg:type="㇐b" d="M57.57,42.55c5.7-0.83,21.38-2.57,30.45-3.66c3.17-0.38,5.53-0.68,6.38-0.84" transform="matrix(1,0,0,1,696,-4)" class="stroke_order_diagram--current_path"></path><circle cx="57.57" cy="42.55" r="8" class="stroke_order_diagram--path_start" transform="matrix(1,0,0,1,696,-4)"></circle><line x1="850" x2="850" y1="1" y2="99" class="stroke_order_diagram--guide_line"></line><line x1="899" x2="899" y1="1" y2="99" class="stroke_order_diagram--bounding_box"></line><path id="pathSk2v596cn4pe6" kvg:type="㇐" d="M13.53,41.22c1.3,0.91,5.05,0.36,6.47,0.17c5.57-0.75,16.31-2.28,22-3.28c1.25-0.22,3-0.48,4.27-0.24" transform="matrix(1,0,0,1,796,-4)" class="stroke_order_diagram--existing_path"></path><path id="pathSk2v596cn4pe7" kvg:type="㇑" d="M31.86,13.5c1.26,1.26,1.79,2.75,1.79,5.67c0,2.57-0.02,50.01-0.02,70.95c0,4.13,0,7.23,0,8.75" transform="matrix(1,0,0,1,796,-4)" class="stroke_order_diagram--existing_path"></path><path id="pathSk2v596cn4pe8" kvg:type="㇒" d="M33.19,42.28c0,1.59-0.76,4.08-1.28,5.4c-4.03,10.19-8.65,19.94-20.05,33.9" transform="matrix(1,0,0,1,796,-4)" class="stroke_order_diagram--existing_path"></path><path id="pathSk2v596cn4pe9" kvg:type="㇔/㇏" d="M36.25,52.25c2.58,1.94,6.82,8.24,9,12" transform="matrix(1,0,0,1,796,-4)" class="stroke_order_diagram--existing_path"></path><path id="pathSk2v596cn4pea" kvg:type="㇒" d="M63.71,15c0.2,1.78-0.31,3.35-0.95,4.88c-4.07,9.71-9.23,18.42-18.56,30.24" transform="matrix(1,0,0,1,796,-4)" class="stroke_order_diagram--existing_path"></path><path id="pathSk2v596cn4peb" kvg:type="㇑" d="M55.57,40.83c1.05,1.05,1.16,2.42,1.16,4.41c0,9.04-0.06,30.57-0.09,42.88c-0.01,3.66-0.01,6.55-0.01,8.12" transform="matrix(1,0,0,1,796,-4)" class="stroke_order_diagram--existing_path"></path><path id="pathSk2v596cn4pec" kvg:type="㇒" d="M81.8,15.25c0.08,1.25-0.2,2.65-0.51,3.7c-1.79,5.93-2.86,10.14-6.41,18.43" transform="matrix(1,0,0,1,796,-4)" class="stroke_order_diagram--existing_path"></path><path id="pathSk2v596cn4ped" kvg:type="㇐b" d="M57.57,42.55c5.7-0.83,21.38-2.57,30.45-3.66c3.17-0.38,5.53-0.68,6.38-0.84" transform="matrix(1,0,0,1,796,-4)" class="stroke_order_diagram--existing_path"></path><path id="kvg:0690e-s9" kvg:type="㇑a" d="M74.35,42.24c1.08,1.08,1.15,2.38,1.15,4.05c0,7.73-0.12,31.94-0.12,43.83" transform="matrix(1,0,0,1,796,-4)" class="stroke_order_diagram--current_path"></path><path id="pathSk2v596cn4pef" kvg:type="㇑a" d="M74.35,42.24c1.08,1.08,1.15,2.38,1.15,4.05c0,7.73-0.12,31.94-0.12,43.83" transform="matrix(1,0,0,1,796,-4)" class="stroke_order_diagram--current_path"></path><circle cx="74.35" cy="42.24" r="8" class="stroke_order_diagram--path_start" transform="matrix(1,0,0,1,796,-4)"></circle><line x1="950" x2="950" y1="1" y2="99" class="stroke_order_diagram--guide_line"></line><line x1="999" x2="999" y1="1" y2="99" class="stroke_order_diagram--bounding_box"></line><path id="pathSk2v596cn4pei" kvg:type="㇐" d="M13.53,41.22c1.3,0.91,5.05,0.36,6.47,0.17c5.57-0.75,16.31-2.28,22-3.28c1.25-0.22,3-0.48,4.27-0.24" transform="matrix(1,0,0,1,896,-4)" class="stroke_order_diagram--existing_path"></path><path id="pathSk2v596cn4pej" kvg:type="㇑" d="M31.86,13.5c1.26,1.26,1.79,2.75,1.79,5.67c0,2.57-0.02,50.01-0.02,70.95c0,4.13,0,7.23,0,8.75" transform="matrix(1,0,0,1,896,-4)" class="stroke_order_diagram--existing_path"></path><path id="pathSk2v596cn4pek" kvg:type="㇒" d="M33.19,42.28c0,1.59-0.76,4.08-1.28,5.4c-4.03,10.19-8.65,19.94-20.05,33.9" transform="matrix(1,0,0,1,896,-4)" class="stroke_order_diagram--existing_path"></path><path id="pathSk2v596cn4pel" kvg:type="㇔/㇏" d="M36.25,52.25c2.58,1.94,6.82,8.24,9,12" transform="matrix(1,0,0,1,896,-4)" class="stroke_order_diagram--existing_path"></path><path id="pathSk2v596cn4pem" kvg:type="㇒" d="M63.71,15c0.2,1.78-0.31,3.35-0.95,4.88c-4.07,9.71-9.23,18.42-18.56,30.24" transform="matrix(1,0,0,1,896,-4)" class="stroke_order_diagram--existing_path"></path><path id="pathSk2v596cn4pen" kvg:type="㇑" d="M55.57,40.83c1.05,1.05,1.16,2.42,1.16,4.41c0,9.04-0.06,30.57-0.09,42.88c-0.01,3.66-0.01,6.55-0.01,8.12" transform="matrix(1,0,0,1,896,-4)" class="stroke_order_diagram--existing_path"></path><path id="pathSk2v596cn4peo" kvg:type="㇒" d="M81.8,15.25c0.08,1.25-0.2,2.65-0.51,3.7c-1.79,5.93-2.86,10.14-6.41,18.43" transform="matrix(1,0,0,1,896,-4)" class="stroke_order_diagram--existing_path"></path><path id="pathSk2v596cn4pep" kvg:type="㇐b" d="M57.57,42.55c5.7-0.83,21.38-2.57,30.45-3.66c3.17-0.38,5.53-0.68,6.38-0.84" transform="matrix(1,0,0,1,896,-4)" class="stroke_order_diagram--existing_path"></path><path id="pathSk2v596cn4peq" kvg:type="㇑a" d="M74.35,42.24c1.08,1.08,1.15,2.38,1.15,4.05c0,7.73-0.12,31.94-0.12,43.83" transform="matrix(1,0,0,1,896,-4)" class="stroke_order_diagram--existing_path"></path><path id="kvg:0690e-s10" kvg:type="㇐b" d="M57.84,57.46c6.38-0.53,20.62-1.71,28.92-2.5c2.96-0.28,5.17-0.51,5.99-0.65" transform="matrix(1,0,0,1,896,-4)" class="stroke_order_diagram--current_path"></path><path id="pathSk2v596cn4pes" kvg:type="㇐b" d="M57.84,57.46c6.38-0.53,20.62-1.71,28.92-2.5c2.96-0.28,5.17-0.51,5.99-0.65" transform="matrix(1,0,0,1,896,-4)" class="stroke_order_diagram--current_path"></path><circle cx="57.84" cy="57.46" r="8" class="stroke_order_diagram--path_start" transform="matrix(1,0,0,1,896,-4)"></circle><line x1="1050" x2="1050" y1="1" y2="99" class="stroke_order_diagram--guide_line"></line><line x1="1099" x2="1099" y1="1" y2="99" class="stroke_order_diagram--bounding_box"></line><path id="pathSk2v596cn4pev" kvg:type="㇐" d="M13.53,41.22c1.3,0.91,5.05,0.36,6.47,0.17c5.57-0.75,16.31-2.28,22-3.28c1.25-0.22,3-0.48,4.27-0.24" transform="matrix(1,0,0,1,996,-4)" class="stroke_order_diagram--existing_path"></path><path id="pathSk2v596cn4pew" kvg:type="㇑" d="M31.86,13.5c1.26,1.26,1.79,2.75,1.79,5.67c0,2.57-0.02,50.01-0.02,70.95c0,4.13,0,7.23,0,8.75" transform="matrix(1,0,0,1,996,-4)" class="stroke_order_diagram--existing_path"></path><path id="pathSk2v596cn4pex" kvg:type="㇒" d="M33.19,42.28c0,1.59-0.76,4.08-1.28,5.4c-4.03,10.19-8.65,19.94-20.05,33.9" transform="matrix(1,0,0,1,996,-4)" class="stroke_order_diagram--existing_path"></path><path id="pathSk2v596cn4pey" kvg:type="㇔/㇏" d="M36.25,52.25c2.58,1.94,6.82,8.24,9,12" transform="matrix(1,0,0,1,996,-4)" class="stroke_order_diagram--existing_path"></path><path id="pathSk2v596cn4pez" kvg:type="㇒" d="M63.71,15c0.2,1.78-0.31,3.35-0.95,4.88c-4.07,9.71-9.23,18.42-18.56,30.24" transform="matrix(1,0,0,1,996,-4)" class="stroke_order_diagram--existing_path"></path><path id="pathSk2v596cn4pf0" kvg:type="㇑" d="M55.57,40.83c1.05,1.05,1.16,2.42,1.16,4.41c0,9.04-0.06,30.57-0.09,42.88c-0.01,3.66-0.01,6.55-0.01,8.12" transform="matrix(1,0,0,1,996,-4)" class="stroke_order_diagram--existing_path"></path><path id="pathSk2v596cn4pf1" kvg:type="㇒" d="M81.8,15.25c0.08,1.25-0.2,2.65-0.51,3.7c-1.79,5.93-2.86,10.14-6.41,18.43" transform="matrix(1,0,0,1,996,-4)" class="stroke_order_diagram--existing_path"></path><path id="pathSk2v596cn4pf2" kvg:type="㇐b" d="M57.57,42.55c5.7-0.83,21.38-2.57,30.45-3.66c3.17-0.38,5.53-0.68,6.38-0.84" transform="matrix(1,0,0,1,996,-4)" class="stroke_order_diagram--existing_path"></path><path id="pathSk2v596cn4pf3" kvg:type="㇑a" d="M74.35,42.24c1.08,1.08,1.15,2.38,1.15,4.05c0,7.73-0.12,31.94-0.12,43.83" transform="matrix(1,0,0,1,996,-4)" class="stroke_order_diagram--existing_path"></path><path id="pathSk2v596cn4pf4" kvg:type="㇐b" d="M57.84,57.46c6.38-0.53,20.62-1.71,28.92-2.5c2.96-0.28,5.17-0.51,5.99-0.65" transform="matrix(1,0,0,1,996,-4)" class="stroke_order_diagram--existing_path"></path><path id="kvg:0690e-s11" kvg:type="㇐b" d="M57.71,73.42c6-0.41,20.89-1.78,29.42-2.5c2.9-0.25,5.06-0.44,5.89-0.55" transform="matrix(1,0,0,1,996,-4)" class="stroke_order_diagram--current_path"></path><path id="pathSk2v596cn4pf6" kvg:type="㇐b" d="M57.71,73.42c6-0.41,20.89-1.78,29.42-2.5c2.9-0.25,5.06-0.44,5.89-0.55" transform="matrix(1,0,0,1,996,-4)" class="stroke_order_diagram--current_path"></path><circle cx="57.71" cy="73.42" r="8" class="stroke_order_diagram--path_start" transform="matrix(1,0,0,1,996,-4)"></circle><line x1="1150" x2="1150" y1="1" y2="99" class="stroke_order_diagram--guide_line"></line><line x1="1199" x2="1199" y1="1" y2="99" class="stroke_order_diagram--bounding_box"></line><path id="pathSk2v596cn4pf9" kvg:type="㇐" d="M13.53,41.22c1.3,0.91,5.05,0.36,6.47,0.17c5.57-0.75,16.31-2.28,22-3.28c1.25-0.22,3-0.48,4.27-0.24" transform="matrix(1,0,0,1,1096,-4)" class="stroke_order_diagram--existing_path"></path><path id="pathSk2v596cn4pfa" kvg:type="㇑" d="M31.86,13.5c1.26,1.26,1.79,2.75,1.79,5.67c0,2.57-0.02,50.01-0.02,70.95c0,4.13,0,7.23,0,8.75" transform="matrix(1,0,0,1,1096,-4)" class="stroke_order_diagram--existing_path"></path><path id="pathSk2v596cn4pfb" kvg:type="㇒" d="M33.19,42.28c0,1.59-0.76,4.08-1.28,5.4c-4.03,10.19-8.65,19.94-20.05,33.9" transform="matrix(1,0,0,1,1096,-4)" class="stroke_order_diagram--existing_path"></path><path id="pathSk2v596cn4pfc" kvg:type="㇔/㇏" d="M36.25,52.25c2.58,1.94,6.82,8.24,9,12" transform="matrix(1,0,0,1,1096,-4)" class="stroke_order_diagram--existing_path"></path><path id="pathSk2v596cn4pfd" kvg:type="㇒" d="M63.71,15c0.2,1.78-0.31,3.35-0.95,4.88c-4.07,9.71-9.23,18.42-18.56,30.24" transform="matrix(1,0,0,1,1096,-4)" class="stroke_order_diagram--existing_path"></path><path id="pathSk2v596cn4pfe" kvg:type="㇑" d="M55.57,40.83c1.05,1.05,1.16,2.42,1.16,4.41c0,9.04-0.06,30.57-0.09,42.88c-0.01,3.66-0.01,6.55-0.01,8.12" transform="matrix(1,0,0,1,1096,-4)" class="stroke_order_diagram--existing_path"></path><path id="pathSk2v596cn4pff" kvg:type="㇒" d="M81.8,15.25c0.08,1.25-0.2,2.65-0.51,3.7c-1.79,5.93-2.86,10.14-6.41,18.43" transform="matrix(1,0,0,1,1096,-4)" class="stroke_order_diagram--existing_path"></path><path id="pathSk2v596cn4pfg" kvg:type="㇐b" d="M57.57,42.55c5.7-0.83,21.38-2.57,30.45-3.66c3.17-0.38,5.53-0.68,6.38-0.84" transform="matrix(1,0,0,1,1096,-4)" class="stroke_order_diagram--existing_path"></path><path id="pathSk2v596cn4pfh" kvg:type="㇑a" d="M74.35,42.24c1.08,1.08,1.15,2.38,1.15,4.05c0,7.73-0.12,31.94-0.12,43.83" transform="matrix(1,0,0,1,1096,-4)" class="stroke_order_diagram--existing_path"></path><path id="pathSk2v596cn4pfi" kvg:type="㇐b" d="M57.84,57.46c6.38-0.53,20.62-1.71,28.92-2.5c2.96-0.28,5.17-0.51,5.99-0.65" transform="matrix(1,0,0,1,1096,-4)" class="stroke_order_diagram--existing_path"></path><path id="pathSk2v596cn4pfj" kvg:type="㇐b" d="M57.71,73.42c6-0.41,20.89-1.78,29.42-2.5c2.9-0.25,5.06-0.44,5.89-0.55" transform="matrix(1,0,0,1,1096,-4)" class="stroke_order_diagram--existing_path"></path><path id="kvg:0690e-s12" kvg:type="㇐b" d="M57.88,92c6.88-0.38,22.85-1.23,32.88-1.73c3.57-0.18,6.21-0.33,7.04-0.42" transform="matrix(1,0,0,1,1096,-4)" class="stroke_order_diagram--current_path"></path><path id="pathSk2v596cn4pfl" kvg:type="㇐b" d="M57.88,92c6.88-0.38,22.85-1.23,32.88-1.73c3.57-0.18,6.21-0.33,7.04-0.42" transform="matrix(1,0,0,1,1096,-4)" class="stroke_order_diagram--current_path"></path><circle cx="57.88" cy="92" r="8" class="stroke_order_diagram--path_start" transform="matrix(1,0,0,1,1096,-4)"></circle></svg>