<svg style="width: 1300px; height: 100px;" viewbox="0 0 1300 100"><style>
.stroke_order_diagram--outer_container {
  width: 100%;
  overflow-x: auto;
  overflow-y: hidden;
}

.stroke_order_diagram--guide_line {
  fill: none;
  stroke: #ddd;
  stroke-width: 3;
  stroke-linecap: square;
  stroke-linejoin: square;
  stroke-dasharray:8, 8;
}

.stroke_order_diagram--bounding_box {
  fill: none;
  stroke: #ddd;
  stroke-width: 4;
  stroke-linecap: square;
  stroke-linejoin: square;
}

.stroke_order_diagram--current_path {
  fill: none;
  stroke: #000;
  stroke-width: 6;
  stroke-linecap: round;
  stroke-linejoin: round;
}

.stroke_order_diagram--existing_path {
  fill: none;
  stroke: #aaa;
  stroke-width: 6;
  stroke-linecap: round;
  stroke-linejoin:round;
}

.stroke_order_diagram--path_start {
  fill: rgba(255, 0, 0, 0.7);
  stroke:none
}</style><desc>Created with Snap</desc><defs></defs><line x1="1" x2="1299" y1="1" y2="1" class="stroke_order_diagram--bounding_box"></line><line x1="1" x2="1" y1="1" y2="99" class="stroke_order_diagram--bounding_box"></line><line x1="1" x2="1299" y1="99" y2="99" class="stroke_order_diagram--bounding_box"></line><line x1="0" x2="1300" y1="50" y2="50" class="stroke_order_diagram--guide_line"></line><line x1="50" x2="50" y1="1" y2="99" class="stroke_order_diagram--guide_line"></line><line x1="99" x2="99" y1="1" y2="99" class="stroke_order_diagram--bounding_box"></line><path id="kvg:0697d-s1" kvg:type="㇒" d="M52.99,11c0.01,1-0.13,1.85-0.49,2.5c-0.96,2.28-4.06,5.8-6.91,8.18" transform="matrix(1,0,0,1,-4,-4)" class="stroke_order_diagram--current_path"></path><path id="pathSk2v596cnao0" kvg:type="㇒" d="M52.99,11c0.01,1-0.13,1.85-0.49,2.5c-0.96,2.28-4.06,5.8-6.91,8.18" transform="matrix(1,0,0,1,-4,-4)" class="stroke_order_diagram--current_path"></path><circle cx="52.99" cy="11" r="8" class="stroke_order_diagram--path_start" transform="matrix(1,0,0,1,-4,-4)"></circle><line x1="150" x2="150" y1="1" y2="99" class="stroke_order_diagram--guide_line"></line><line x1="199" x2="199" y1="1" y2="99" class="stroke_order_diagram--bounding_box"></line><path id="pathSk2v596cnao3" kvg:type="㇒" d="M52.99,11c0.01,1-0.13,1.85-0.49,2.5c-0.96,2.28-4.06,5.8-6.91,8.18" transform="matrix(1,0,0,1,96,-4)" class="stroke_order_diagram--existing_path"></path><path id="kvg:0697d-s2" kvg:type="㇑" d="M40.25,22.82c1.02,1.2,1.52,2.13,1.59,3.43c0.18,3.66,0.58,14.52,0.93,21.23c0.1,1.93,0.18,3.01,0.21,3.94" transform="matrix(1,0,0,1,96,-4)" class="stroke_order_diagram--current_path"></path><path id="pathSk2v596cnao5" kvg:type="㇑" d="M40.25,22.82c1.02,1.2,1.52,2.13,1.59,3.43c0.18,3.66,0.58,14.52,0.93,21.23c0.1,1.93,0.18,3.01,0.21,3.94" transform="matrix(1,0,0,1,96,-4)" class="stroke_order_diagram--current_path"></path><circle cx="40.25" cy="22.82" r="8" class="stroke_order_diagram--path_start" transform="matrix(1,0,0,1,96,-4)"></circle><line x1="250" x2="250" y1="1" y2="99" class="stroke_order_diagram--guide_line"></line><line x1="299" x2="299" y1="1" y2="99" class="stroke_order_diagram--bounding_box"></line><path id="pathSk2v596cnao8" kvg:type="㇒" d="M52.99,11c0.01,1-0.13,1.85-0.49,2.5c-0.96,2.28-4.06,5.8-6.91,8.18" transform="matrix(1,0,0,1,196,-4)" class="stroke_order_diagram--existing_path"></path><path id="pathSk2v596cnao9" kvg:type="㇑" d="M40.25,22.82c1.02,1.2,1.52,2.13,1.59,3.43c0.18,3.66,0.58,14.52,0.93,21.23c0.1,1.93,0.18,3.01,0.21,3.94" transform="matrix(1,0,0,1,196,-4)" class="stroke_order_diagram--existing_path"></path><path id="kvg:0697d-s3" kvg:type="㇕a" d="M42.02,23.77c0.46-0.02,19.25-2.12,20.85-2.23c1.68-0.12,2.64,1.22,2.64,2.27c0,1.24-0.89,14.65-1.22,23.45c-0.06,1.57-0.1,2.48-0.14,3.64" transform="matrix(1,0,0,1,196,-4)" class="stroke_order_diagram--current_path"></path><path id="pathSk2v596cnaob" kvg:type="㇕a" d="M42.02,23.77c0.46-0.02,19.25-2.12,20.85-2.23c1.68-0.12,2.64,1.22,2.64,2.27c0,1.24-0.89,14.65-1.22,23.45c-0.06,1.57-0.1,2.48-0.14,3.64" transform="matrix(1,0,0,1,196,-4)" class="stroke_order_diagram--current_path"></path><circle cx="42.02" cy="23.77" r="8" class="stroke_order_diagram--path_start" transform="matrix(1,0,0,1,196,-4)"></circle><line x1="350" x2="350" y1="1" y2="99" class="stroke_order_diagram--guide_line"></line><line x1="399" x2="399" y1="1" y2="99" class="stroke_order_diagram--bounding_box"></line><path id="pathSk2v596cnaoe" kvg:type="㇒" d="M52.99,11c0.01,1-0.13,1.85-0.49,2.5c-0.96,2.28-4.06,5.8-6.91,8.18" transform="matrix(1,0,0,1,296,-4)" class="stroke_order_diagram--existing_path"></path><path id="pathSk2v596cnaof" kvg:type="㇑" d="M40.25,22.82c1.02,1.2,1.52,2.13,1.59,3.43c0.18,3.66,0.58,14.52,0.93,21.23c0.1,1.93,0.18,3.01,0.21,3.94" transform="matrix(1,0,0,1,296,-4)" class="stroke_order_diagram--existing_path"></path><path id="pathSk2v596cnaog" kvg:type="㇕a" d="M42.02,23.77c0.46-0.02,19.25-2.12,20.85-2.23c1.68-0.12,2.64,1.22,2.64,2.27c0,1.24-0.89,14.65-1.22,23.45c-0.06,1.57-0.1,2.48-0.14,3.64" transform="matrix(1,0,0,1,296,-4)" class="stroke_order_diagram--existing_path"></path><path id="kvg:0697d-s4" kvg:type="㇐a" d="M43.41,36.12c3,0,17.27-1.75,20.66-1.75" transform="matrix(1,0,0,1,296,-4)" class="stroke_order_diagram--current_path"></path><path id="pathSk2v596cnaoi" kvg:type="㇐a" d="M43.41,36.12c3,0,17.27-1.75,20.66-1.75" transform="matrix(1,0,0,1,296,-4)" class="stroke_order_diagram--current_path"></path><circle cx="43.41" cy="36.12" r="8" class="stroke_order_diagram--path_start" transform="matrix(1,0,0,1,296,-4)"></circle><line x1="450" x2="450" y1="1" y2="99" class="stroke_order_diagram--guide_line"></line><line x1="499" x2="499" y1="1" y2="99" class="stroke_order_diagram--bounding_box"></line><path id="pathSk2v596cnaol" kvg:type="㇒" d="M52.99,11c0.01,1-0.13,1.85-0.49,2.5c-0.96,2.28-4.06,5.8-6.91,8.18" transform="matrix(1,0,0,1,396,-4)" class="stroke_order_diagram--existing_path"></path><path id="pathSk2v596cnaom" kvg:type="㇑" d="M40.25,22.82c1.02,1.2,1.52,2.13,1.59,3.43c0.18,3.66,0.58,14.52,0.93,21.23c0.1,1.93,0.18,3.01,0.21,3.94" transform="matrix(1,0,0,1,396,-4)" class="stroke_order_diagram--existing_path"></path><path id="pathSk2v596cnaon" kvg:type="㇕a" d="M42.02,23.77c0.46-0.02,19.25-2.12,20.85-2.23c1.68-0.12,2.64,1.22,2.64,2.27c0,1.24-0.89,14.65-1.22,23.45c-0.06,1.57-0.1,2.48-0.14,3.64" transform="matrix(1,0,0,1,396,-4)" class="stroke_order_diagram--existing_path"></path><path id="pathSk2v596cnaoo" kvg:type="㇐a" d="M43.41,36.12c3,0,17.27-1.75,20.66-1.75" transform="matrix(1,0,0,1,396,-4)" class="stroke_order_diagram--existing_path"></path><path id="kvg:0697d-s5" kvg:type="㇐a" d="M44.13,49.6c4.43,0,13.11-1.01,18.85-1.01" transform="matrix(1,0,0,1,396,-4)" class="stroke_order_diagram--current_path"></path><path id="pathSk2v596cnaoq" kvg:type="㇐a" d="M44.13,49.6c4.43,0,13.11-1.01,18.85-1.01" transform="matrix(1,0,0,1,396,-4)" class="stroke_order_diagram--current_path"></path><circle cx="44.13" cy="49.6" r="8" class="stroke_order_diagram--path_start" transform="matrix(1,0,0,1,396,-4)"></circle><line x1="550" x2="550" y1="1" y2="99" class="stroke_order_diagram--guide_line"></line><line x1="599" x2="599" y1="1" y2="99" class="stroke_order_diagram--bounding_box"></line><path id="pathSk2v596cnaot" kvg:type="㇒" d="M52.99,11c0.01,1-0.13,1.85-0.49,2.5c-0.96,2.28-4.06,5.8-6.91,8.18" transform="matrix(1,0,0,1,496,-4)" class="stroke_order_diagram--existing_path"></path><path id="pathSk2v596cnaou" kvg:type="㇑" d="M40.25,22.82c1.02,1.2,1.52,2.13,1.59,3.43c0.18,3.66,0.58,14.52,0.93,21.23c0.1,1.93,0.18,3.01,0.21,3.94" transform="matrix(1,0,0,1,496,-4)" class="stroke_order_diagram--existing_path"></path><path id="pathSk2v596cnaov" kvg:type="㇕a" d="M42.02,23.77c0.46-0.02,19.25-2.12,20.85-2.23c1.68-0.12,2.64,1.22,2.64,2.27c0,1.24-0.89,14.65-1.22,23.45c-0.06,1.57-0.1,2.48-0.14,3.64" transform="matrix(1,0,0,1,496,-4)" class="stroke_order_diagram--existing_path"></path><path id="pathSk2v596cnaow" kvg:type="㇐a" d="M43.41,36.12c3,0,17.27-1.75,20.66-1.75" transform="matrix(1,0,0,1,496,-4)" class="stroke_order_diagram--existing_path"></path><path id="pathSk2v596cnaox" kvg:type="㇐a" d="M44.13,49.6c4.43,0,13.11-1.01,18.85-1.01" transform="matrix(1,0,0,1,496,-4)" class="stroke_order_diagram--existing_path"></path><path id="kvg:0697d-s6" kvg:type="㇔" d="M20.22,20c3.89,1.72,10.05,7.07,11.03,9.75" transform="matrix(1,0,0,1,496,-4)" class="stroke_order_diagram--current_path"></path><path id="pathSk2v596cnaoz" kvg:type="㇔" d="M20.22,20c3.89,1.72,10.05,7.07,11.03,9.75" transform="matrix(1,0,0,1,496,-4)" class="stroke_order_diagram--current_path"></path><circle cx="20.22" cy="20" r="8" class="stroke_order_diagram--path_start" transform="matrix(1,0,0,1,496,-4)"></circle><line x1="650" x2="650" y1="1" y2="99" class="stroke_order_diagram--guide_line"></line><line x1="699" x2="699" y1="1" y2="99" class="stroke_order_diagram--bounding_box"></line><path id="pathSk2v596cnap2" kvg:type="㇒" d="M52.99,11c0.01,1-0.13,1.85-0.49,2.5c-0.96,2.28-4.06,5.8-6.91,8.18" transform="matrix(1,0,0,1,596,-4)" class="stroke_order_diagram--existing_path"></path><path id="pathSk2v596cnap3" kvg:type="㇑" d="M40.25,22.82c1.02,1.2,1.52,2.13,1.59,3.43c0.18,3.66,0.58,14.52,0.93,21.23c0.1,1.93,0.18,3.01,0.21,3.94" transform="matrix(1,0,0,1,596,-4)" class="stroke_order_diagram--existing_path"></path><path id="pathSk2v596cnap4" kvg:type="㇕a" d="M42.02,23.77c0.46-0.02,19.25-2.12,20.85-2.23c1.68-0.12,2.64,1.22,2.64,2.27c0,1.24-0.89,14.65-1.22,23.45c-0.06,1.57-0.1,2.48-0.14,3.64" transform="matrix(1,0,0,1,596,-4)" class="stroke_order_diagram--existing_path"></path><path id="pathSk2v596cnap5" kvg:type="㇐a" d="M43.41,36.12c3,0,17.27-1.75,20.66-1.75" transform="matrix(1,0,0,1,596,-4)" class="stroke_order_diagram--existing_path"></path><path id="pathSk2v596cnap6" kvg:type="㇐a" d="M44.13,49.6c4.43,0,13.11-1.01,18.85-1.01" transform="matrix(1,0,0,1,596,-4)" class="stroke_order_diagram--existing_path"></path><path id="pathSk2v596cnap7" kvg:type="㇔" d="M20.22,20c3.89,1.72,10.05,7.07,11.03,9.75" transform="matrix(1,0,0,1,596,-4)" class="stroke_order_diagram--existing_path"></path><path id="kvg:0697d-s7" kvg:type="㇀" d="M16.92,54.38c1.46,0.87,2.81,0.38,3.89-0.5c1.05-0.85,7.42-7.56,11.44-11.88" transform="matrix(1,0,0,1,596,-4)" class="stroke_order_diagram--current_path"></path><path id="pathSk2v596cnap9" kvg:type="㇀" d="M16.92,54.38c1.46,0.87,2.81,0.38,3.89-0.5c1.05-0.85,7.42-7.56,11.44-11.88" transform="matrix(1,0,0,1,596,-4)" class="stroke_order_diagram--current_path"></path><circle cx="16.92" cy="54.38" r="8" class="stroke_order_diagram--path_start" transform="matrix(1,0,0,1,596,-4)"></circle><line x1="750" x2="750" y1="1" y2="99" class="stroke_order_diagram--guide_line"></line><line x1="799" x2="799" y1="1" y2="99" class="stroke_order_diagram--bounding_box"></line><path id="pathSk2v596cnapc" kvg:type="㇒" d="M52.99,11c0.01,1-0.13,1.85-0.49,2.5c-0.96,2.28-4.06,5.8-6.91,8.18" transform="matrix(1,0,0,1,696,-4)" class="stroke_order_diagram--existing_path"></path><path id="pathSk2v596cnapd" kvg:type="㇑" d="M40.25,22.82c1.02,1.2,1.52,2.13,1.59,3.43c0.18,3.66,0.58,14.52,0.93,21.23c0.1,1.93,0.18,3.01,0.21,3.94" transform="matrix(1,0,0,1,696,-4)" class="stroke_order_diagram--existing_path"></path><path id="pathSk2v596cnape" kvg:type="㇕a" d="M42.02,23.77c0.46-0.02,19.25-2.12,20.85-2.23c1.68-0.12,2.64,1.22,2.64,2.27c0,1.24-0.89,14.65-1.22,23.45c-0.06,1.57-0.1,2.48-0.14,3.64" transform="matrix(1,0,0,1,696,-4)" class="stroke_order_diagram--existing_path"></path><path id="pathSk2v596cnapf" kvg:type="㇐a" d="M43.41,36.12c3,0,17.27-1.75,20.66-1.75" transform="matrix(1,0,0,1,696,-4)" class="stroke_order_diagram--existing_path"></path><path id="pathSk2v596cnapg" kvg:type="㇐a" d="M44.13,49.6c4.43,0,13.11-1.01,18.85-1.01" transform="matrix(1,0,0,1,696,-4)" class="stroke_order_diagram--existing_path"></path><path id="pathSk2v596cnaph" kvg:type="㇔" d="M20.22,20c3.89,1.72,10.05,7.07,11.03,9.75" transform="matrix(1,0,0,1,696,-4)" class="stroke_order_diagram--existing_path"></path><path id="pathSk2v596cnapi" kvg:type="㇀" d="M16.92,54.38c1.46,0.87,2.81,0.38,3.89-0.5c1.05-0.85,7.42-7.56,11.44-11.88" transform="matrix(1,0,0,1,696,-4)" class="stroke_order_diagram--existing_path"></path><path id="kvg:0697d-s8" kvg:type="㇒" d="M87.2,17.13c0.02,0.99-0.24,1.86-0.76,2.61c-1.67,2.73-6.03,7.12-9.69,9.26" transform="matrix(1,0,0,1,696,-4)" class="stroke_order_diagram--current_path"></path><path id="pathSk2v596cnapk" kvg:type="㇒" d="M87.2,17.13c0.02,0.99-0.24,1.86-0.76,2.61c-1.67,2.73-6.03,7.12-9.69,9.26" transform="matrix(1,0,0,1,696,-4)" class="stroke_order_diagram--current_path"></path><circle cx="87.2" cy="17.13" r="8" class="stroke_order_diagram--path_start" transform="matrix(1,0,0,1,696,-4)"></circle><line x1="850" x2="850" y1="1" y2="99" class="stroke_order_diagram--guide_line"></line><line x1="899" x2="899" y1="1" y2="99" class="stroke_order_diagram--bounding_box"></line><path id="pathSk2v596cnapn" kvg:type="㇒" d="M52.99,11c0.01,1-0.13,1.85-0.49,2.5c-0.96,2.28-4.06,5.8-6.91,8.18" transform="matrix(1,0,0,1,796,-4)" class="stroke_order_diagram--existing_path"></path><path id="pathSk2v596cnapo" kvg:type="㇑" d="M40.25,22.82c1.02,1.2,1.52,2.13,1.59,3.43c0.18,3.66,0.58,14.52,0.93,21.23c0.1,1.93,0.18,3.01,0.21,3.94" transform="matrix(1,0,0,1,796,-4)" class="stroke_order_diagram--existing_path"></path><path id="pathSk2v596cnapp" kvg:type="㇕a" d="M42.02,23.77c0.46-0.02,19.25-2.12,20.85-2.23c1.68-0.12,2.64,1.22,2.64,2.27c0,1.24-0.89,14.65-1.22,23.45c-0.06,1.57-0.1,2.48-0.14,3.64" transform="matrix(1,0,0,1,796,-4)" class="stroke_order_diagram--existing_path"></path><path id="pathSk2v596cnapq" kvg:type="㇐a" d="M43.41,36.12c3,0,17.27-1.75,20.66-1.75" transform="matrix(1,0,0,1,796,-4)" class="stroke_order_diagram--existing_path"></path><path id="pathSk2v596cnapr" kvg:type="㇐a" d="M44.13,49.6c4.43,0,13.11-1.01,18.85-1.01" transform="matrix(1,0,0,1,796,-4)" class="stroke_order_diagram--existing_path"></path><path id="pathSk2v596cnaps" kvg:type="㇔" d="M20.22,20c3.89,1.72,10.05,7.07,11.03,9.75" transform="matrix(1,0,0,1,796,-4)" class="stroke_order_diagram--existing_path"></path><path id="pathSk2v596cnapt" kvg:type="㇀" d="M16.92,54.38c1.46,0.87,2.81,0.38,3.89-0.5c1.05-0.85,7.42-7.56,11.44-11.88" transform="matrix(1,0,0,1,796,-4)" class="stroke_order_diagram--existing_path"></path><path id="pathSk2v596cnapu" kvg:type="㇒" d="M87.2,17.13c0.02,0.99-0.24,1.86-0.76,2.61c-1.67,2.73-6.03,7.12-9.69,9.26" transform="matrix(1,0,0,1,796,-4)" class="stroke_order_diagram--existing_path"></path><path id="kvg:0697d-s9" kvg:type="㇔" d="M77,40.5c5.12,2.03,12,7.25,14.5,11.5" transform="matrix(1,0,0,1,796,-4)" class="stroke_order_diagram--current_path"></path><path id="pathSk2v596cnapw" kvg:type="㇔" d="M77,40.5c5.12,2.03,12,7.25,14.5,11.5" transform="matrix(1,0,0,1,796,-4)" class="stroke_order_diagram--current_path"></path><circle cx="77" cy="40.5" r="8" class="stroke_order_diagram--path_start" transform="matrix(1,0,0,1,796,-4)"></circle><line x1="950" x2="950" y1="1" y2="99" class="stroke_order_diagram--guide_line"></line><line x1="999" x2="999" y1="1" y2="99" class="stroke_order_diagram--bounding_box"></line><path id="pathSk2v596cnapz" kvg:type="㇒" d="M52.99,11c0.01,1-0.13,1.85-0.49,2.5c-0.96,2.28-4.06,5.8-6.91,8.18" transform="matrix(1,0,0,1,896,-4)" class="stroke_order_diagram--existing_path"></path><path id="pathSk2v596cnaq0" kvg:type="㇑" d="M40.25,22.82c1.02,1.2,1.52,2.13,1.59,3.43c0.18,3.66,0.58,14.52,0.93,21.23c0.1,1.93,0.18,3.01,0.21,3.94" transform="matrix(1,0,0,1,896,-4)" class="stroke_order_diagram--existing_path"></path><path id="pathSk2v596cnaq1" kvg:type="㇕a" d="M42.02,23.77c0.46-0.02,19.25-2.12,20.85-2.23c1.68-0.12,2.64,1.22,2.64,2.27c0,1.24-0.89,14.65-1.22,23.45c-0.06,1.57-0.1,2.48-0.14,3.64" transform="matrix(1,0,0,1,896,-4)" class="stroke_order_diagram--existing_path"></path><path id="pathSk2v596cnaq2" kvg:type="㇐a" d="M43.41,36.12c3,0,17.27-1.75,20.66-1.75" transform="matrix(1,0,0,1,896,-4)" class="stroke_order_diagram--existing_path"></path><path id="pathSk2v596cnaq3" kvg:type="㇐a" d="M44.13,49.6c4.43,0,13.11-1.01,18.85-1.01" transform="matrix(1,0,0,1,896,-4)" class="stroke_order_diagram--existing_path"></path><path id="pathSk2v596cnaq4" kvg:type="㇔" d="M20.22,20c3.89,1.72,10.05,7.07,11.03,9.75" transform="matrix(1,0,0,1,896,-4)" class="stroke_order_diagram--existing_path"></path><path id="pathSk2v596cnaq5" kvg:type="㇀" d="M16.92,54.38c1.46,0.87,2.81,0.38,3.89-0.5c1.05-0.85,7.42-7.56,11.44-11.88" transform="matrix(1,0,0,1,896,-4)" class="stroke_order_diagram--existing_path"></path><path id="pathSk2v596cnaq6" kvg:type="㇒" d="M87.2,17.13c0.02,0.99-0.24,1.86-0.76,2.61c-1.67,2.73-6.03,7.12-9.69,9.26" transform="matrix(1,0,0,1,896,-4)" class="stroke_order_diagram--existing_path"></path><path id="pathSk2v596cnaq7" kvg:type="㇔" d="M77,40.5c5.12,2.03,12,7.25,14.5,11.5" transform="matrix(1,0,0,1,896,-4)" class="stroke_order_diagram--existing_path"></path><path id="kvg:0697d-s10" kvg:type="㇐" d="M17.28,67.66c1.48,0.19,5.44,0.92,9.36,0.57c15.23-1.35,38.23-3.6,56.2-4.19c3.93-0.13,6.61-0.04,9.11,0.5" transform="matrix(1,0,0,1,896,-4)" class="stroke_order_diagram--current_path"></path><path id="pathSk2v596cnaq9" kvg:type="㇐" d="M17.28,67.66c1.48,0.19,5.44,0.92,9.36,0.57c15.23-1.35,38.23-3.6,56.2-4.19c3.93-0.13,6.61-0.04,9.11,0.5" transform="matrix(1,0,0,1,896,-4)" class="stroke_order_diagram--current_path"></path><circle cx="17.28" cy="67.66" r="8" class="stroke_order_diagram--path_start" transform="matrix(1,0,0,1,896,-4)"></circle><line x1="1050" x2="1050" y1="1" y2="99" class="stroke_order_diagram--guide_line"></line><line x1="1099" x2="1099" y1="1" y2="99" class="stroke_order_diagram--bounding_box"></line><path id="pathSk2v596cnaqc" kvg:type="㇒" d="M52.99,11c0.01,1-0.13,1.85-0.49,2.5c-0.96,2.28-4.06,5.8-6.91,8.18" transform="matrix(1,0,0,1,996,-4)" class="stroke_order_diagram--existing_path"></path><path id="pathSk2v596cnaqd" kvg:type="㇑" d="M40.25,22.82c1.02,1.2,1.52,2.13,1.59,3.43c0.18,3.66,0.58,14.52,0.93,21.23c0.1,1.93,0.18,3.01,0.21,3.94" transform="matrix(1,0,0,1,996,-4)" class="stroke_order_diagram--existing_path"></path><path id="pathSk2v596cnaqe" kvg:type="㇕a" d="M42.02,23.77c0.46-0.02,19.25-2.12,20.85-2.23c1.68-0.12,2.64,1.22,2.64,2.27c0,1.24-0.89,14.65-1.22,23.45c-0.06,1.57-0.1,2.48-0.14,3.64" transform="matrix(1,0,0,1,996,-4)" class="stroke_order_diagram--existing_path"></path><path id="pathSk2v596cnaqf" kvg:type="㇐a" d="M43.41,36.12c3,0,17.27-1.75,20.66-1.75" transform="matrix(1,0,0,1,996,-4)" class="stroke_order_diagram--existing_path"></path><path id="pathSk2v596cnaqg" kvg:type="㇐a" d="M44.13,49.6c4.43,0,13.11-1.01,18.85-1.01" transform="matrix(1,0,0,1,996,-4)" class="stroke_order_diagram--existing_path"></path><path id="pathSk2v596cnaqh" kvg:type="㇔" d="M20.22,20c3.89,1.72,10.05,7.07,11.03,9.75" transform="matrix(1,0,0,1,996,-4)" class="stroke_order_diagram--existing_path"></path><path id="pathSk2v596cnaqi" kvg:type="㇀" d="M16.92,54.38c1.46,0.87,2.81,0.38,3.89-0.5c1.05-0.85,7.42-7.56,11.44-11.88" transform="matrix(1,0,0,1,996,-4)" class="stroke_order_diagram--existing_path"></path><path id="pathSk2v596cnaqj" kvg:type="㇒" d="M87.2,17.13c0.02,0.99-0.24,1.86-0.76,2.61c-1.67,2.73-6.03,7.12-9.69,9.26" transform="matrix(1,0,0,1,996,-4)" class="stroke_order_diagram--existing_path"></path><path id="pathSk2v596cnaqk" kvg:type="㇔" d="M77,40.5c5.12,2.03,12,7.25,14.5,11.5" transform="matrix(1,0,0,1,996,-4)" class="stroke_order_diagram--existing_path"></path><path id="pathSk2v596cnaql" kvg:type="㇐" d="M17.28,67.66c1.48,0.19,5.44,0.92,9.36,0.57c15.23-1.35,38.23-3.6,56.2-4.19c3.93-0.13,6.61-0.04,9.11,0.5" transform="matrix(1,0,0,1,996,-4)" class="stroke_order_diagram--existing_path"></path><path id="kvg:0697d-s11" kvg:type="㇑" d="M52.45,54.75c1.05,1,1.63,2.66,1.65,3.74c0.09,4.69,0,25.11-0.12,34.76c-0.03,2.4-0.06,4.12-0.09,4.74" transform="matrix(1,0,0,1,996,-4)" class="stroke_order_diagram--current_path"></path><path id="pathSk2v596cnaqn" kvg:type="㇑" d="M52.45,54.75c1.05,1,1.63,2.66,1.65,3.74c0.09,4.69,0,25.11-0.12,34.76c-0.03,2.4-0.06,4.12-0.09,4.74" transform="matrix(1,0,0,1,996,-4)" class="stroke_order_diagram--current_path"></path><circle cx="52.45" cy="54.75" r="8" class="stroke_order_diagram--path_start" transform="matrix(1,0,0,1,996,-4)"></circle><line x1="1150" x2="1150" y1="1" y2="99" class="stroke_order_diagram--guide_line"></line><line x1="1199" x2="1199" y1="1" y2="99" class="stroke_order_diagram--bounding_box"></line><path id="pathSk2v596cnaqq" kvg:type="㇒" d="M52.99,11c0.01,1-0.13,1.85-0.49,2.5c-0.96,2.28-4.06,5.8-6.91,8.18" transform="matrix(1,0,0,1,1096,-4)" class="stroke_order_diagram--existing_path"></path><path id="pathSk2v596cnaqr" kvg:type="㇑" d="M40.25,22.82c1.02,1.2,1.52,2.13,1.59,3.43c0.18,3.66,0.58,14.52,0.93,21.23c0.1,1.93,0.18,3.01,0.21,3.94" transform="matrix(1,0,0,1,1096,-4)" class="stroke_order_diagram--existing_path"></path><path id="pathSk2v596cnaqs" kvg:type="㇕a" d="M42.02,23.77c0.46-0.02,19.25-2.12,20.85-2.23c1.68-0.12,2.64,1.22,2.64,2.27c0,1.24-0.89,14.65-1.22,23.45c-0.06,1.57-0.1,2.48-0.14,3.64" transform="matrix(1,0,0,1,1096,-4)" class="stroke_order_diagram--existing_path"></path><path id="pathSk2v596cnaqt" kvg:type="㇐a" d="M43.41,36.12c3,0,17.27-1.75,20.66-1.75" transform="matrix(1,0,0,1,1096,-4)" class="stroke_order_diagram--existing_path"></path><path id="pathSk2v596cnaqu" kvg:type="㇐a" d="M44.13,49.6c4.43,0,13.11-1.01,18.85-1.01" transform="matrix(1,0,0,1,1096,-4)" class="stroke_order_diagram--existing_path"></path><path id="pathSk2v596cnaqv" kvg:type="㇔" d="M20.22,20c3.89,1.72,10.05,7.07,11.03,9.75" transform="matrix(1,0,0,1,1096,-4)" class="stroke_order_diagram--existing_path"></path><path id="pathSk2v596cnaqw" kvg:type="㇀" d="M16.92,54.38c1.46,0.87,2.81,0.38,3.89-0.5c1.05-0.85,7.42-7.56,11.44-11.88" transform="matrix(1,0,0,1,1096,-4)" class="stroke_order_diagram--existing_path"></path><path id="pathSk2v596cnaqx" kvg:type="㇒" d="M87.2,17.13c0.02,0.99-0.24,1.86-0.76,2.61c-1.67,2.73-6.03,7.12-9.69,9.26" transform="matrix(1,0,0,1,1096,-4)" class="stroke_order_diagram--existing_path"></path><path id="pathSk2v596cnaqy" kvg:type="㇔" d="M77,40.5c5.12,2.03,12,7.25,14.5,11.5" transform="matrix(1,0,0,1,1096,-4)" class="stroke_order_diagram--existing_path"></path><path id="pathSk2v596cnaqz" kvg:type="㇐" d="M17.28,67.66c1.48,0.19,5.44,0.92,9.36,0.57c15.23-1.35,38.23-3.6,56.2-4.19c3.93-0.13,6.61-0.04,9.11,0.5" transform="matrix(1,0,0,1,1096,-4)" class="stroke_order_diagram--existing_path"></path><path id="pathSk2v596cnar0" kvg:type="㇑" d="M52.45,54.75c1.05,1,1.63,2.66,1.65,3.74c0.09,4.69,0,25.11-0.12,34.76c-0.03,2.4-0.06,4.12-0.09,4.74" transform="matrix(1,0,0,1,1096,-4)" class="stroke_order_diagram--existing_path"></path><path id="kvg:0697d-s12" kvg:type="㇒" d="M49.25,66.75c0,1.25-1.14,2.74-1.81,3.63C40.9,79.16,28.88,89.01,18,93.75" transform="matrix(1,0,0,1,1096,-4)" class="stroke_order_diagram--current_path"></path><path id="pathSk2v596cnar2" kvg:type="㇒" d="M49.25,66.75c0,1.25-1.14,2.74-1.81,3.63C40.9,79.16,28.88,89.01,18,93.75" transform="matrix(1,0,0,1,1096,-4)" class="stroke_order_diagram--current_path"></path><circle cx="49.25" cy="66.75" r="8" class="stroke_order_diagram--path_start" transform="matrix(1,0,0,1,1096,-4)"></circle><line x1="1250" x2="1250" y1="1" y2="99" class="stroke_order_diagram--guide_line"></line><line x1="1299" x2="1299" y1="1" y2="99" class="stroke_order_diagram--bounding_box"></line><path id="pathSk2v596cnar5" kvg:type="㇒" d="M52.99,11c0.01,1-0.13,1.85-0.49,2.5c-0.96,2.28-4.06,5.8-6.91,8.18" transform="matrix(1,0,0,1,1196,-4)" class="stroke_order_diagram--existing_path"></path><path id="pathSk2v596cnar6" kvg:type="㇑" d="M40.25,22.82c1.02,1.2,1.52,2.13,1.59,3.43c0.18,3.66,0.58,14.52,0.93,21.23c0.1,1.93,0.18,3.01,0.21,3.94" transform="matrix(1,0,0,1,1196,-4)" class="stroke_order_diagram--existing_path"></path><path id="pathSk2v596cnar7" kvg:type="㇕a" d="M42.02,23.77c0.46-0.02,19.25-2.12,20.85-2.23c1.68-0.12,2.64,1.22,2.64,2.27c0,1.24-0.89,14.65-1.22,23.45c-0.06,1.57-0.1,2.48-0.14,3.64" transform="matrix(1,0,0,1,1196,-4)" class="stroke_order_diagram--existing_path"></path><path id="pathSk2v596cnar8" kvg:type="㇐a" d="M43.41,36.12c3,0,17.27-1.75,20.66-1.75" transform="matrix(1,0,0,1,1196,-4)" class="stroke_order_diagram--existing_path"></path><path id="pathSk2v596cnar9" kvg:type="㇐a" d="M44.13,49.6c4.43,0,13.11-1.01,18.85-1.01" transform="matrix(1,0,0,1,1196,-4)" class="stroke_order_diagram--existing_path"></path><path id="pathSk2v596cnara" kvg:type="㇔" d="M20.22,20c3.89,1.72,10.05,7.07,11.03,9.75" transform="matrix(1,0,0,1,1196,-4)" class="stroke_order_diagram--existing_path"></path><path id="pathSk2v596cnarb" kvg:type="㇀" d="M16.92,54.38c1.46,0.87,2.81,0.38,3.89-0.5c1.05-0.85,7.42-7.56,11.44-11.88" transform="matrix(1,0,0,1,1196,-4)" class="stroke_order_diagram--existing_path"></path><path id="pathSk2v596cnarc" kvg:type="㇒" d="M87.2,17.13c0.02,0.99-0.24,1.86-0.76,2.61c-1.67,2.73-6.03,7.12-9.69,9.26" transform="matrix(1,0,0,1,1196,-4)" class="stroke_order_diagram--existing_path"></path><path id="pathSk2v596cnard" kvg:type="㇔" d="M77,40.5c5.12,2.03,12,7.25,14.5,11.5" transform="matrix(1,0,0,1,1196,-4)" class="stroke_order_diagram--existing_path"></path><path id="pathSk2v596cnare" kvg:type="㇐" d="M17.28,67.66c1.48,0.19,5.44,0.92,9.36,0.57c15.23-1.35,38.23-3.6,56.2-4.19c3.93-0.13,6.61-0.04,9.11,0.5" transform="matrix(1,0,0,1,1196,-4)" class="stroke_order_diagram--existing_path"></path><path id="pathSk2v596cnarf" kvg:type="㇑" d="M52.45,54.75c1.05,1,1.63,2.66,1.65,3.74c0.09,4.69,0,25.11-0.12,34.76c-0.03,2.4-0.06,4.12-0.09,4.74" transform="matrix(1,0,0,1,1196,-4)" class="stroke_order_diagram--existing_path"></path><path id="pathSk2v596cnarg" kvg:type="㇒" d="M49.25,66.75c0,1.25-1.14,2.74-1.81,3.63C40.9,79.16,28.88,89.01,18,93.75" transform="matrix(1,0,0,1,1196,-4)" class="stroke_order_diagram--existing_path"></path><path id="kvg:0697d-s13" kvg:type="㇏" d="M56.76,67.11C62.25,72,82.25,86,88.79,89.82c1.85,1.08,3.38,1.61,5.21,1.93" transform="matrix(1,0,0,1,1196,-4)" class="stroke_order_diagram--current_path"></path><path id="pathSk2v596cnari" kvg:type="㇏" d="M56.76,67.11C62.25,72,82.25,86,88.79,89.82c1.85,1.08,3.38,1.61,5.21,1.93" transform="matrix(1,0,0,1,1196,-4)" class="stroke_order_diagram--current_path"></path><circle cx="56.76" cy="67.11" r="8" class="stroke_order_diagram--path_start" transform="matrix(1,0,0,1,1196,-4)"></circle></svg>