<svg style="width: 1200px; height: 100px;" viewbox="0 0 1200 100"><style>
.stroke_order_diagram--outer_container {
  width: 100%;
  overflow-x: auto;
  overflow-y: hidden;
}

.stroke_order_diagram--guide_line {
  fill: none;
  stroke: #ddd;
  stroke-width: 3;
  stroke-linecap: square;
  stroke-linejoin: square;
  stroke-dasharray:8, 8;
}

.stroke_order_diagram--bounding_box {
  fill: none;
  stroke: #ddd;
  stroke-width: 4;
  stroke-linecap: square;
  stroke-linejoin: square;
}

.stroke_order_diagram--current_path {
  fill: none;
  stroke: #000;
  stroke-width: 6;
  stroke-linecap: round;
  stroke-linejoin: round;
}

.stroke_order_diagram--existing_path {
  fill: none;
  stroke: #aaa;
  stroke-width: 6;
  stroke-linecap: round;
  stroke-linejoin:round;
}

.stroke_order_diagram--path_start {
  fill: rgba(255, 0, 0, 0.7);
  stroke:none
}</style><desc>Created with Snap</desc><defs></defs><line x1="1" x2="1199" y1="1" y2="1" class="stroke_order_diagram--bounding_box"></line><line x1="1" x2="1" y1="1" y2="99" class="stroke_order_diagram--bounding_box"></line><line x1="1" x2="1199" y1="99" y2="99" class="stroke_order_diagram--bounding_box"></line><line x1="0" x2="1200" y1="50" y2="50" class="stroke_order_diagram--guide_line"></line><line x1="50" x2="50" y1="1" y2="99" class="stroke_order_diagram--guide_line"></line><line x1="99" x2="99" y1="1" y2="99" class="stroke_order_diagram--bounding_box"></line><path id="kvg:06975-s1" kvg:type="㇐" d="M9.78,38.22c1.35,0.16,3.24,0.27,4.47,0.15c4.53-0.44,14.17-1.49,20.16-2.43c1.29-0.2,3.22-0.44,4.86-0.07" transform="matrix(1,0,0,1,-4,-4)" class="stroke_order_diagram--current_path"></path><path id="pathSk2v596cn1tk9" kvg:type="㇐" d="M9.78,38.22c1.35,0.16,3.24,0.27,4.47,0.15c4.53-0.44,14.17-1.49,20.16-2.43c1.29-0.2,3.22-0.44,4.86-0.07" transform="matrix(1,0,0,1,-4,-4)" class="stroke_order_diagram--current_path"></path><circle cx="9.78" cy="38.22" r="8" class="stroke_order_diagram--path_start" transform="matrix(1,0,0,1,-4,-4)"></circle><line x1="150" x2="150" y1="1" y2="99" class="stroke_order_diagram--guide_line"></line><line x1="199" x2="199" y1="1" y2="99" class="stroke_order_diagram--bounding_box"></line><path id="pathSk2v596cn1tkc" kvg:type="㇐" d="M9.78,38.22c1.35,0.16,3.24,0.27,4.47,0.15c4.53-0.44,14.17-1.49,20.16-2.43c1.29-0.2,3.22-0.44,4.86-0.07" transform="matrix(1,0,0,1,96,-4)" class="stroke_order_diagram--existing_path"></path><path id="kvg:06975-s2" kvg:type="㇑" d="M25.86,13c1.01,1.01,1.54,2.38,1.54,3.92c0,0.81,0.14,52.7,0.19,72.58c0.01,3.42,0.01,5.9,0.01,7" transform="matrix(1,0,0,1,96,-4)" class="stroke_order_diagram--current_path"></path><path id="pathSk2v596cn1tke" kvg:type="㇑" d="M25.86,13c1.01,1.01,1.54,2.38,1.54,3.92c0,0.81,0.14,52.7,0.19,72.58c0.01,3.42,0.01,5.9,0.01,7" transform="matrix(1,0,0,1,96,-4)" class="stroke_order_diagram--current_path"></path><circle cx="25.86" cy="13" r="8" class="stroke_order_diagram--path_start" transform="matrix(1,0,0,1,96,-4)"></circle><line x1="250" x2="250" y1="1" y2="99" class="stroke_order_diagram--guide_line"></line><line x1="299" x2="299" y1="1" y2="99" class="stroke_order_diagram--bounding_box"></line><path id="pathSk2v596cn1tkh" kvg:type="㇐" d="M9.78,38.22c1.35,0.16,3.24,0.27,4.47,0.15c4.53-0.44,14.17-1.49,20.16-2.43c1.29-0.2,3.22-0.44,4.86-0.07" transform="matrix(1,0,0,1,196,-4)" class="stroke_order_diagram--existing_path"></path><path id="pathSk2v596cn1tki" kvg:type="㇑" d="M25.86,13c1.01,1.01,1.54,2.38,1.54,3.92c0,0.81,0.14,52.7,0.19,72.58c0.01,3.42,0.01,5.9,0.01,7" transform="matrix(1,0,0,1,196,-4)" class="stroke_order_diagram--existing_path"></path><path id="kvg:06975-s3" kvg:type="㇒" d="M26.69,38.03c0,1.66-0.05,3.42-0.61,4.99c-4.6,13.22-8.03,19.91-15.47,32.31" transform="matrix(1,0,0,1,196,-4)" class="stroke_order_diagram--current_path"></path><path id="pathSk2v596cn1tkk" kvg:type="㇒" d="M26.69,38.03c0,1.66-0.05,3.42-0.61,4.99c-4.6,13.22-8.03,19.91-15.47,32.31" transform="matrix(1,0,0,1,196,-4)" class="stroke_order_diagram--current_path"></path><circle cx="26.69" cy="38.03" r="8" class="stroke_order_diagram--path_start" transform="matrix(1,0,0,1,196,-4)"></circle><line x1="350" x2="350" y1="1" y2="99" class="stroke_order_diagram--guide_line"></line><line x1="399" x2="399" y1="1" y2="99" class="stroke_order_diagram--bounding_box"></line><path id="pathSk2v596cn1tkn" kvg:type="㇐" d="M9.78,38.22c1.35,0.16,3.24,0.27,4.47,0.15c4.53-0.44,14.17-1.49,20.16-2.43c1.29-0.2,3.22-0.44,4.86-0.07" transform="matrix(1,0,0,1,296,-4)" class="stroke_order_diagram--existing_path"></path><path id="pathSk2v596cn1tko" kvg:type="㇑" d="M25.86,13c1.01,1.01,1.54,2.38,1.54,3.92c0,0.81,0.14,52.7,0.19,72.58c0.01,3.42,0.01,5.9,0.01,7" transform="matrix(1,0,0,1,296,-4)" class="stroke_order_diagram--existing_path"></path><path id="pathSk2v596cn1tkp" kvg:type="㇒" d="M26.69,38.03c0,1.66-0.05,3.42-0.61,4.99c-4.6,13.22-8.03,19.91-15.47,32.31" transform="matrix(1,0,0,1,296,-4)" class="stroke_order_diagram--existing_path"></path><path id="kvg:06975-s4" kvg:type="㇔/㇏" d="M30.25,47.75c2.5,2.25,6.38,7.12,7.75,10" transform="matrix(1,0,0,1,296,-4)" class="stroke_order_diagram--current_path"></path><path id="pathSk2v596cn1tkr" kvg:type="㇔/㇏" d="M30.25,47.75c2.5,2.25,6.38,7.12,7.75,10" transform="matrix(1,0,0,1,296,-4)" class="stroke_order_diagram--current_path"></path><circle cx="30.25" cy="47.75" r="8" class="stroke_order_diagram--path_start" transform="matrix(1,0,0,1,296,-4)"></circle><line x1="450" x2="450" y1="1" y2="99" class="stroke_order_diagram--guide_line"></line><line x1="499" x2="499" y1="1" y2="99" class="stroke_order_diagram--bounding_box"></line><path id="pathSk2v596cn1tku" kvg:type="㇐" d="M9.78,38.22c1.35,0.16,3.24,0.27,4.47,0.15c4.53-0.44,14.17-1.49,20.16-2.43c1.29-0.2,3.22-0.44,4.86-0.07" transform="matrix(1,0,0,1,396,-4)" class="stroke_order_diagram--existing_path"></path><path id="pathSk2v596cn1tkv" kvg:type="㇑" d="M25.86,13c1.01,1.01,1.54,2.38,1.54,3.92c0,0.81,0.14,52.7,0.19,72.58c0.01,3.42,0.01,5.9,0.01,7" transform="matrix(1,0,0,1,396,-4)" class="stroke_order_diagram--existing_path"></path><path id="pathSk2v596cn1tkw" kvg:type="㇒" d="M26.69,38.03c0,1.66-0.05,3.42-0.61,4.99c-4.6,13.22-8.03,19.91-15.47,32.31" transform="matrix(1,0,0,1,396,-4)" class="stroke_order_diagram--existing_path"></path><path id="pathSk2v596cn1tkx" kvg:type="㇔/㇏" d="M30.25,47.75c2.5,2.25,6.38,7.12,7.75,10" transform="matrix(1,0,0,1,396,-4)" class="stroke_order_diagram--existing_path"></path><path id="kvg:06975-s5" kvg:type="㇐" d="M43.53,22.2c2.49,0.43,4.76,0.19,7-0.09c10.14-1.27,23.34-2.86,33.25-3.76c2.18-0.2,4.43-0.23,6.58,0.26" transform="matrix(1,0,0,1,396,-4)" class="stroke_order_diagram--current_path"></path><path id="pathSk2v596cn1tkz" kvg:type="㇐" d="M43.53,22.2c2.49,0.43,4.76,0.19,7-0.09c10.14-1.27,23.34-2.86,33.25-3.76c2.18-0.2,4.43-0.23,6.58,0.26" transform="matrix(1,0,0,1,396,-4)" class="stroke_order_diagram--current_path"></path><circle cx="43.53" cy="22.2" r="8" class="stroke_order_diagram--path_start" transform="matrix(1,0,0,1,396,-4)"></circle><line x1="550" x2="550" y1="1" y2="99" class="stroke_order_diagram--guide_line"></line><line x1="599" x2="599" y1="1" y2="99" class="stroke_order_diagram--bounding_box"></line><path id="pathSk2v596cn1tl2" kvg:type="㇐" d="M9.78,38.22c1.35,0.16,3.24,0.27,4.47,0.15c4.53-0.44,14.17-1.49,20.16-2.43c1.29-0.2,3.22-0.44,4.86-0.07" transform="matrix(1,0,0,1,496,-4)" class="stroke_order_diagram--existing_path"></path><path id="pathSk2v596cn1tl3" kvg:type="㇑" d="M25.86,13c1.01,1.01,1.54,2.38,1.54,3.92c0,0.81,0.14,52.7,0.19,72.58c0.01,3.42,0.01,5.9,0.01,7" transform="matrix(1,0,0,1,496,-4)" class="stroke_order_diagram--existing_path"></path><path id="pathSk2v596cn1tl4" kvg:type="㇒" d="M26.69,38.03c0,1.66-0.05,3.42-0.61,4.99c-4.6,13.22-8.03,19.91-15.47,32.31" transform="matrix(1,0,0,1,496,-4)" class="stroke_order_diagram--existing_path"></path><path id="pathSk2v596cn1tl5" kvg:type="㇔/㇏" d="M30.25,47.75c2.5,2.25,6.38,7.12,7.75,10" transform="matrix(1,0,0,1,496,-4)" class="stroke_order_diagram--existing_path"></path><path id="pathSk2v596cn1tl6" kvg:type="㇐" d="M43.53,22.2c2.49,0.43,4.76,0.19,7-0.09c10.14-1.27,23.34-2.86,33.25-3.76c2.18-0.2,4.43-0.23,6.58,0.26" transform="matrix(1,0,0,1,496,-4)" class="stroke_order_diagram--existing_path"></path><path id="kvg:06975-s6" kvg:type="㇉" d="M61.87,23.26c0.63,0.99,0.44,2.91,0.02,3.86c-0.41,0.96-2.67,7.34-3.23,8.33c-1.64,2.88-1.18,4.6,1.48,3.65c1.14-0.41,3.6-1.2,6.06-2.16c2.46-0.96,3.82,0.24,3.89,2.64c0.28,9.04,0.03,24.42-2.5,34.86c-0.95,3.91-2.1,9.1-7.84,4.79" transform="matrix(1,0,0,1,496,-4)" class="stroke_order_diagram--current_path"></path><path id="pathSk2v596cn1tl8" kvg:type="㇉" d="M61.87,23.26c0.63,0.99,0.44,2.91,0.02,3.86c-0.41,0.96-2.67,7.34-3.23,8.33c-1.64,2.88-1.18,4.6,1.48,3.65c1.14-0.41,3.6-1.2,6.06-2.16c2.46-0.96,3.82,0.24,3.89,2.64c0.28,9.04,0.03,24.42-2.5,34.86c-0.95,3.91-2.1,9.1-7.84,4.79" transform="matrix(1,0,0,1,496,-4)" class="stroke_order_diagram--current_path"></path><circle cx="61.87" cy="23.26" r="8" class="stroke_order_diagram--path_start" transform="matrix(1,0,0,1,496,-4)"></circle><line x1="650" x2="650" y1="1" y2="99" class="stroke_order_diagram--guide_line"></line><line x1="699" x2="699" y1="1" y2="99" class="stroke_order_diagram--bounding_box"></line><path id="pathSk2v596cn1tlb" kvg:type="㇐" d="M9.78,38.22c1.35,0.16,3.24,0.27,4.47,0.15c4.53-0.44,14.17-1.49,20.16-2.43c1.29-0.2,3.22-0.44,4.86-0.07" transform="matrix(1,0,0,1,596,-4)" class="stroke_order_diagram--existing_path"></path><path id="pathSk2v596cn1tlc" kvg:type="㇑" d="M25.86,13c1.01,1.01,1.54,2.38,1.54,3.92c0,0.81,0.14,52.7,0.19,72.58c0.01,3.42,0.01,5.9,0.01,7" transform="matrix(1,0,0,1,596,-4)" class="stroke_order_diagram--existing_path"></path><path id="pathSk2v596cn1tld" kvg:type="㇒" d="M26.69,38.03c0,1.66-0.05,3.42-0.61,4.99c-4.6,13.22-8.03,19.91-15.47,32.31" transform="matrix(1,0,0,1,596,-4)" class="stroke_order_diagram--existing_path"></path><path id="pathSk2v596cn1tle" kvg:type="㇔/㇏" d="M30.25,47.75c2.5,2.25,6.38,7.12,7.75,10" transform="matrix(1,0,0,1,596,-4)" class="stroke_order_diagram--existing_path"></path><path id="pathSk2v596cn1tlf" kvg:type="㇐" d="M43.53,22.2c2.49,0.43,4.76,0.19,7-0.09c10.14-1.27,23.34-2.86,33.25-3.76c2.18-0.2,4.43-0.23,6.58,0.26" transform="matrix(1,0,0,1,596,-4)" class="stroke_order_diagram--existing_path"></path><path id="pathSk2v596cn1tlg" kvg:type="㇉" d="M61.87,23.26c0.63,0.99,0.44,2.91,0.02,3.86c-0.41,0.96-2.67,7.34-3.23,8.33c-1.64,2.88-1.18,4.6,1.48,3.65c1.14-0.41,3.6-1.2,6.06-2.16c2.46-0.96,3.82,0.24,3.89,2.64c0.28,9.04,0.03,24.42-2.5,34.86c-0.95,3.91-2.1,9.1-7.84,4.79" transform="matrix(1,0,0,1,596,-4)" class="stroke_order_diagram--existing_path"></path><path id="kvg:06975-s7" kvg:type="㇑" d="M41.94,50.42c0.71,0.75,1.35,1.64,1.42,2.67c0.82,3.62,1.7,9.96,2.36,15.28c0.14,1.15,0.27,2.25,0.39,3.26" transform="matrix(1,0,0,1,596,-4)" class="stroke_order_diagram--current_path"></path><path id="pathSk2v596cn1tli" kvg:type="㇑" d="M41.94,50.42c0.71,0.75,1.35,1.64,1.42,2.67c0.82,3.62,1.7,9.96,2.36,15.28c0.14,1.15,0.27,2.25,0.39,3.26" transform="matrix(1,0,0,1,596,-4)" class="stroke_order_diagram--current_path"></path><circle cx="41.94" cy="50.42" r="8" class="stroke_order_diagram--path_start" transform="matrix(1,0,0,1,596,-4)"></circle><line x1="750" x2="750" y1="1" y2="99" class="stroke_order_diagram--guide_line"></line><line x1="799" x2="799" y1="1" y2="99" class="stroke_order_diagram--bounding_box"></line><path id="pathSk2v596cn1tll" kvg:type="㇐" d="M9.78,38.22c1.35,0.16,3.24,0.27,4.47,0.15c4.53-0.44,14.17-1.49,20.16-2.43c1.29-0.2,3.22-0.44,4.86-0.07" transform="matrix(1,0,0,1,696,-4)" class="stroke_order_diagram--existing_path"></path><path id="pathSk2v596cn1tlm" kvg:type="㇑" d="M25.86,13c1.01,1.01,1.54,2.38,1.54,3.92c0,0.81,0.14,52.7,0.19,72.58c0.01,3.42,0.01,5.9,0.01,7" transform="matrix(1,0,0,1,696,-4)" class="stroke_order_diagram--existing_path"></path><path id="pathSk2v596cn1tln" kvg:type="㇒" d="M26.69,38.03c0,1.66-0.05,3.42-0.61,4.99c-4.6,13.22-8.03,19.91-15.47,32.31" transform="matrix(1,0,0,1,696,-4)" class="stroke_order_diagram--existing_path"></path><path id="pathSk2v596cn1tlo" kvg:type="㇔/㇏" d="M30.25,47.75c2.5,2.25,6.38,7.12,7.75,10" transform="matrix(1,0,0,1,696,-4)" class="stroke_order_diagram--existing_path"></path><path id="pathSk2v596cn1tlp" kvg:type="㇐" d="M43.53,22.2c2.49,0.43,4.76,0.19,7-0.09c10.14-1.27,23.34-2.86,33.25-3.76c2.18-0.2,4.43-0.23,6.58,0.26" transform="matrix(1,0,0,1,696,-4)" class="stroke_order_diagram--existing_path"></path><path id="pathSk2v596cn1tlq" kvg:type="㇉" d="M61.87,23.26c0.63,0.99,0.44,2.91,0.02,3.86c-0.41,0.96-2.67,7.34-3.23,8.33c-1.64,2.88-1.18,4.6,1.48,3.65c1.14-0.41,3.6-1.2,6.06-2.16c2.46-0.96,3.82,0.24,3.89,2.64c0.28,9.04,0.03,24.42-2.5,34.86c-0.95,3.91-2.1,9.1-7.84,4.79" transform="matrix(1,0,0,1,696,-4)" class="stroke_order_diagram--existing_path"></path><path id="pathSk2v596cn1tlr" kvg:type="㇑" d="M41.94,50.42c0.71,0.75,1.35,1.64,1.42,2.67c0.82,3.62,1.7,9.96,2.36,15.28c0.14,1.15,0.27,2.25,0.39,3.26" transform="matrix(1,0,0,1,696,-4)" class="stroke_order_diagram--existing_path"></path><path id="kvg:06975-s8" kvg:type="㇕b" d="M43.65,51.44c5.32-1.17,8.46-1.94,11.6-2.45c2.75-0.44,4.58-0.27,3.9,3.01c-0.79,3.85-1.68,8.13-2.17,14.25" transform="matrix(1,0,0,1,696,-4)" class="stroke_order_diagram--current_path"></path><path id="pathSk2v596cn1tlt" kvg:type="㇕b" d="M43.65,51.44c5.32-1.17,8.46-1.94,11.6-2.45c2.75-0.44,4.58-0.27,3.9,3.01c-0.79,3.85-1.68,8.13-2.17,14.25" transform="matrix(1,0,0,1,696,-4)" class="stroke_order_diagram--current_path"></path><circle cx="43.65" cy="51.44" r="8" class="stroke_order_diagram--path_start" transform="matrix(1,0,0,1,696,-4)"></circle><line x1="850" x2="850" y1="1" y2="99" class="stroke_order_diagram--guide_line"></line><line x1="899" x2="899" y1="1" y2="99" class="stroke_order_diagram--bounding_box"></line><path id="pathSk2v596cn1tlw" kvg:type="㇐" d="M9.78,38.22c1.35,0.16,3.24,0.27,4.47,0.15c4.53-0.44,14.17-1.49,20.16-2.43c1.29-0.2,3.22-0.44,4.86-0.07" transform="matrix(1,0,0,1,796,-4)" class="stroke_order_diagram--existing_path"></path><path id="pathSk2v596cn1tlx" kvg:type="㇑" d="M25.86,13c1.01,1.01,1.54,2.38,1.54,3.92c0,0.81,0.14,52.7,0.19,72.58c0.01,3.42,0.01,5.9,0.01,7" transform="matrix(1,0,0,1,796,-4)" class="stroke_order_diagram--existing_path"></path><path id="pathSk2v596cn1tly" kvg:type="㇒" d="M26.69,38.03c0,1.66-0.05,3.42-0.61,4.99c-4.6,13.22-8.03,19.91-15.47,32.31" transform="matrix(1,0,0,1,796,-4)" class="stroke_order_diagram--existing_path"></path><path id="pathSk2v596cn1tlz" kvg:type="㇔/㇏" d="M30.25,47.75c2.5,2.25,6.38,7.12,7.75,10" transform="matrix(1,0,0,1,796,-4)" class="stroke_order_diagram--existing_path"></path><path id="pathSk2v596cn1tm0" kvg:type="㇐" d="M43.53,22.2c2.49,0.43,4.76,0.19,7-0.09c10.14-1.27,23.34-2.86,33.25-3.76c2.18-0.2,4.43-0.23,6.58,0.26" transform="matrix(1,0,0,1,796,-4)" class="stroke_order_diagram--existing_path"></path><path id="pathSk2v596cn1tm1" kvg:type="㇉" d="M61.87,23.26c0.63,0.99,0.44,2.91,0.02,3.86c-0.41,0.96-2.67,7.34-3.23,8.33c-1.64,2.88-1.18,4.6,1.48,3.65c1.14-0.41,3.6-1.2,6.06-2.16c2.46-0.96,3.82,0.24,3.89,2.64c0.28,9.04,0.03,24.42-2.5,34.86c-0.95,3.91-2.1,9.1-7.84,4.79" transform="matrix(1,0,0,1,796,-4)" class="stroke_order_diagram--existing_path"></path><path id="pathSk2v596cn1tm2" kvg:type="㇑" d="M41.94,50.42c0.71,0.75,1.35,1.64,1.42,2.67c0.82,3.62,1.7,9.96,2.36,15.28c0.14,1.15,0.27,2.25,0.39,3.26" transform="matrix(1,0,0,1,796,-4)" class="stroke_order_diagram--existing_path"></path><path id="pathSk2v596cn1tm3" kvg:type="㇕b" d="M43.65,51.44c5.32-1.17,8.46-1.94,11.6-2.45c2.75-0.44,4.58-0.27,3.9,3.01c-0.79,3.85-1.68,8.13-2.17,14.25" transform="matrix(1,0,0,1,796,-4)" class="stroke_order_diagram--existing_path"></path><path id="kvg:06975-s9" kvg:type="㇐b" d="M47.26,69.04c2.6-0.55,5.39-1.17,8.76-1.56c0.66-0.08,1.35-0.14,2.06-0.2" transform="matrix(1,0,0,1,796,-4)" class="stroke_order_diagram--current_path"></path><path id="pathSk2v596cn1tm5" kvg:type="㇐b" d="M47.26,69.04c2.6-0.55,5.39-1.17,8.76-1.56c0.66-0.08,1.35-0.14,2.06-0.2" transform="matrix(1,0,0,1,796,-4)" class="stroke_order_diagram--current_path"></path><circle cx="47.26" cy="69.04" r="8" class="stroke_order_diagram--path_start" transform="matrix(1,0,0,1,796,-4)"></circle><line x1="950" x2="950" y1="1" y2="99" class="stroke_order_diagram--guide_line"></line><line x1="999" x2="999" y1="1" y2="99" class="stroke_order_diagram--bounding_box"></line><path id="pathSk2v596cn1tm8" kvg:type="㇐" d="M9.78,38.22c1.35,0.16,3.24,0.27,4.47,0.15c4.53-0.44,14.17-1.49,20.16-2.43c1.29-0.2,3.22-0.44,4.86-0.07" transform="matrix(1,0,0,1,896,-4)" class="stroke_order_diagram--existing_path"></path><path id="pathSk2v596cn1tm9" kvg:type="㇑" d="M25.86,13c1.01,1.01,1.54,2.38,1.54,3.92c0,0.81,0.14,52.7,0.19,72.58c0.01,3.42,0.01,5.9,0.01,7" transform="matrix(1,0,0,1,896,-4)" class="stroke_order_diagram--existing_path"></path><path id="pathSk2v596cn1tma" kvg:type="㇒" d="M26.69,38.03c0,1.66-0.05,3.42-0.61,4.99c-4.6,13.22-8.03,19.91-15.47,32.31" transform="matrix(1,0,0,1,896,-4)" class="stroke_order_diagram--existing_path"></path><path id="pathSk2v596cn1tmb" kvg:type="㇔/㇏" d="M30.25,47.75c2.5,2.25,6.38,7.12,7.75,10" transform="matrix(1,0,0,1,896,-4)" class="stroke_order_diagram--existing_path"></path><path id="pathSk2v596cn1tmc" kvg:type="㇐" d="M43.53,22.2c2.49,0.43,4.76,0.19,7-0.09c10.14-1.27,23.34-2.86,33.25-3.76c2.18-0.2,4.43-0.23,6.58,0.26" transform="matrix(1,0,0,1,896,-4)" class="stroke_order_diagram--existing_path"></path><path id="pathSk2v596cn1tmd" kvg:type="㇉" d="M61.87,23.26c0.63,0.99,0.44,2.91,0.02,3.86c-0.41,0.96-2.67,7.34-3.23,8.33c-1.64,2.88-1.18,4.6,1.48,3.65c1.14-0.41,3.6-1.2,6.06-2.16c2.46-0.96,3.82,0.24,3.89,2.64c0.28,9.04,0.03,24.42-2.5,34.86c-0.95,3.91-2.1,9.1-7.84,4.79" transform="matrix(1,0,0,1,896,-4)" class="stroke_order_diagram--existing_path"></path><path id="pathSk2v596cn1tme" kvg:type="㇑" d="M41.94,50.42c0.71,0.75,1.35,1.64,1.42,2.67c0.82,3.62,1.7,9.96,2.36,15.28c0.14,1.15,0.27,2.25,0.39,3.26" transform="matrix(1,0,0,1,896,-4)" class="stroke_order_diagram--existing_path"></path><path id="pathSk2v596cn1tmf" kvg:type="㇕b" d="M43.65,51.44c5.32-1.17,8.46-1.94,11.6-2.45c2.75-0.44,4.58-0.27,3.9,3.01c-0.79,3.85-1.68,8.13-2.17,14.25" transform="matrix(1,0,0,1,896,-4)" class="stroke_order_diagram--existing_path"></path><path id="pathSk2v596cn1tmg" kvg:type="㇐b" d="M47.26,69.04c2.6-0.55,5.39-1.17,8.76-1.56c0.66-0.08,1.35-0.14,2.06-0.2" transform="matrix(1,0,0,1,896,-4)" class="stroke_order_diagram--existing_path"></path><path id="kvg:06975-s10" kvg:type="㇇" d="M75.4,45.7c1.23,0.17,2.74-0.05,4.11-0.37c2.64-0.61,8.03-2.14,10.66-3.04c1.96-0.67,3.16,1.23,2.64,2.84C88.62,58,84.25,68.62,75.63,77.54" transform="matrix(1,0,0,1,896,-4)" class="stroke_order_diagram--current_path"></path><path id="pathSk2v596cn1tmi" kvg:type="㇇" d="M75.4,45.7c1.23,0.17,2.74-0.05,4.11-0.37c2.64-0.61,8.03-2.14,10.66-3.04c1.96-0.67,3.16,1.23,2.64,2.84C88.62,58,84.25,68.62,75.63,77.54" transform="matrix(1,0,0,1,896,-4)" class="stroke_order_diagram--current_path"></path><circle cx="75.4" cy="45.7" r="8" class="stroke_order_diagram--path_start" transform="matrix(1,0,0,1,896,-4)"></circle><line x1="1050" x2="1050" y1="1" y2="99" class="stroke_order_diagram--guide_line"></line><line x1="1099" x2="1099" y1="1" y2="99" class="stroke_order_diagram--bounding_box"></line><path id="pathSk2v596cn1tml" kvg:type="㇐" d="M9.78,38.22c1.35,0.16,3.24,0.27,4.47,0.15c4.53-0.44,14.17-1.49,20.16-2.43c1.29-0.2,3.22-0.44,4.86-0.07" transform="matrix(1,0,0,1,996,-4)" class="stroke_order_diagram--existing_path"></path><path id="pathSk2v596cn1tmm" kvg:type="㇑" d="M25.86,13c1.01,1.01,1.54,2.38,1.54,3.92c0,0.81,0.14,52.7,0.19,72.58c0.01,3.42,0.01,5.9,0.01,7" transform="matrix(1,0,0,1,996,-4)" class="stroke_order_diagram--existing_path"></path><path id="pathSk2v596cn1tmn" kvg:type="㇒" d="M26.69,38.03c0,1.66-0.05,3.42-0.61,4.99c-4.6,13.22-8.03,19.91-15.47,32.31" transform="matrix(1,0,0,1,996,-4)" class="stroke_order_diagram--existing_path"></path><path id="pathSk2v596cn1tmo" kvg:type="㇔/㇏" d="M30.25,47.75c2.5,2.25,6.38,7.12,7.75,10" transform="matrix(1,0,0,1,996,-4)" class="stroke_order_diagram--existing_path"></path><path id="pathSk2v596cn1tmp" kvg:type="㇐" d="M43.53,22.2c2.49,0.43,4.76,0.19,7-0.09c10.14-1.27,23.34-2.86,33.25-3.76c2.18-0.2,4.43-0.23,6.58,0.26" transform="matrix(1,0,0,1,996,-4)" class="stroke_order_diagram--existing_path"></path><path id="pathSk2v596cn1tmq" kvg:type="㇉" d="M61.87,23.26c0.63,0.99,0.44,2.91,0.02,3.86c-0.41,0.96-2.67,7.34-3.23,8.33c-1.64,2.88-1.18,4.6,1.48,3.65c1.14-0.41,3.6-1.2,6.06-2.16c2.46-0.96,3.82,0.24,3.89,2.64c0.28,9.04,0.03,24.42-2.5,34.86c-0.95,3.91-2.1,9.1-7.84,4.79" transform="matrix(1,0,0,1,996,-4)" class="stroke_order_diagram--existing_path"></path><path id="pathSk2v596cn1tmr" kvg:type="㇑" d="M41.94,50.42c0.71,0.75,1.35,1.64,1.42,2.67c0.82,3.62,1.7,9.96,2.36,15.28c0.14,1.15,0.27,2.25,0.39,3.26" transform="matrix(1,0,0,1,996,-4)" class="stroke_order_diagram--existing_path"></path><path id="pathSk2v596cn1tms" kvg:type="㇕b" d="M43.65,51.44c5.32-1.17,8.46-1.94,11.6-2.45c2.75-0.44,4.58-0.27,3.9,3.01c-0.79,3.85-1.68,8.13-2.17,14.25" transform="matrix(1,0,0,1,996,-4)" class="stroke_order_diagram--existing_path"></path><path id="pathSk2v596cn1tmt" kvg:type="㇐b" d="M47.26,69.04c2.6-0.55,5.39-1.17,8.76-1.56c0.66-0.08,1.35-0.14,2.06-0.2" transform="matrix(1,0,0,1,996,-4)" class="stroke_order_diagram--existing_path"></path><path id="pathSk2v596cn1tmu" kvg:type="㇇" d="M75.4,45.7c1.23,0.17,2.74-0.05,4.11-0.37c2.64-0.61,8.03-2.14,10.66-3.04c1.96-0.67,3.16,1.23,2.64,2.84C88.62,58,84.25,68.62,75.63,77.54" transform="matrix(1,0,0,1,996,-4)" class="stroke_order_diagram--existing_path"></path><path id="kvg:06975-s11" kvg:type="㇔/㇏" d="M77.3,54.27C83.5,59,89.5,64.75,94.11,73.1" transform="matrix(1,0,0,1,996,-4)" class="stroke_order_diagram--current_path"></path><path id="pathSk2v596cn1tmw" kvg:type="㇔/㇏" d="M77.3,54.27C83.5,59,89.5,64.75,94.11,73.1" transform="matrix(1,0,0,1,996,-4)" class="stroke_order_diagram--current_path"></path><circle cx="77.3" cy="54.27" r="8" class="stroke_order_diagram--path_start" transform="matrix(1,0,0,1,996,-4)"></circle><line x1="1150" x2="1150" y1="1" y2="99" class="stroke_order_diagram--guide_line"></line><line x1="1199" x2="1199" y1="1" y2="99" class="stroke_order_diagram--bounding_box"></line><path id="pathSk2v596cn1tmz" kvg:type="㇐" d="M9.78,38.22c1.35,0.16,3.24,0.27,4.47,0.15c4.53-0.44,14.17-1.49,20.16-2.43c1.29-0.2,3.22-0.44,4.86-0.07" transform="matrix(1,0,0,1,1096,-4)" class="stroke_order_diagram--existing_path"></path><path id="pathSk2v596cn1tn0" kvg:type="㇑" d="M25.86,13c1.01,1.01,1.54,2.38,1.54,3.92c0,0.81,0.14,52.7,0.19,72.58c0.01,3.42,0.01,5.9,0.01,7" transform="matrix(1,0,0,1,1096,-4)" class="stroke_order_diagram--existing_path"></path><path id="pathSk2v596cn1tn1" kvg:type="㇒" d="M26.69,38.03c0,1.66-0.05,3.42-0.61,4.99c-4.6,13.22-8.03,19.91-15.47,32.31" transform="matrix(1,0,0,1,1096,-4)" class="stroke_order_diagram--existing_path"></path><path id="pathSk2v596cn1tn2" kvg:type="㇔/㇏" d="M30.25,47.75c2.5,2.25,6.38,7.12,7.75,10" transform="matrix(1,0,0,1,1096,-4)" class="stroke_order_diagram--existing_path"></path><path id="pathSk2v596cn1tn3" kvg:type="㇐" d="M43.53,22.2c2.49,0.43,4.76,0.19,7-0.09c10.14-1.27,23.34-2.86,33.25-3.76c2.18-0.2,4.43-0.23,6.58,0.26" transform="matrix(1,0,0,1,1096,-4)" class="stroke_order_diagram--existing_path"></path><path id="pathSk2v596cn1tn4" kvg:type="㇉" d="M61.87,23.26c0.63,0.99,0.44,2.91,0.02,3.86c-0.41,0.96-2.67,7.34-3.23,8.33c-1.64,2.88-1.18,4.6,1.48,3.65c1.14-0.41,3.6-1.2,6.06-2.16c2.46-0.96,3.82,0.24,3.89,2.64c0.28,9.04,0.03,24.42-2.5,34.86c-0.95,3.91-2.1,9.1-7.84,4.79" transform="matrix(1,0,0,1,1096,-4)" class="stroke_order_diagram--existing_path"></path><path id="pathSk2v596cn1tn5" kvg:type="㇑" d="M41.94,50.42c0.71,0.75,1.35,1.64,1.42,2.67c0.82,3.62,1.7,9.96,2.36,15.28c0.14,1.15,0.27,2.25,0.39,3.26" transform="matrix(1,0,0,1,1096,-4)" class="stroke_order_diagram--existing_path"></path><path id="pathSk2v596cn1tn6" kvg:type="㇕b" d="M43.65,51.44c5.32-1.17,8.46-1.94,11.6-2.45c2.75-0.44,4.58-0.27,3.9,3.01c-0.79,3.85-1.68,8.13-2.17,14.25" transform="matrix(1,0,0,1,1096,-4)" class="stroke_order_diagram--existing_path"></path><path id="pathSk2v596cn1tn7" kvg:type="㇐b" d="M47.26,69.04c2.6-0.55,5.39-1.17,8.76-1.56c0.66-0.08,1.35-0.14,2.06-0.2" transform="matrix(1,0,0,1,1096,-4)" class="stroke_order_diagram--existing_path"></path><path id="pathSk2v596cn1tn8" kvg:type="㇇" d="M75.4,45.7c1.23,0.17,2.74-0.05,4.11-0.37c2.64-0.61,8.03-2.14,10.66-3.04c1.96-0.67,3.16,1.23,2.64,2.84C88.62,58,84.25,68.62,75.63,77.54" transform="matrix(1,0,0,1,1096,-4)" class="stroke_order_diagram--existing_path"></path><path id="pathSk2v596cn1tn9" kvg:type="㇔/㇏" d="M77.3,54.27C83.5,59,89.5,64.75,94.11,73.1" transform="matrix(1,0,0,1,1096,-4)" class="stroke_order_diagram--existing_path"></path><path id="kvg:06975-s12" kvg:type="㇐" d="M41,90.98c3.25,0.65,6.41,0.43,9.37,0.17c11.36-0.98,27.93-2.81,41.87-2.96c2.71-0.03,5.48-0.1,8.13,0.52" transform="matrix(1,0,0,1,1096,-4)" class="stroke_order_diagram--current_path"></path><path id="pathSk2v596cn1tnb" kvg:type="㇐" d="M41,90.98c3.25,0.65,6.41,0.43,9.37,0.17c11.36-0.98,27.93-2.81,41.87-2.96c2.71-0.03,5.48-0.1,8.13,0.52" transform="matrix(1,0,0,1,1096,-4)" class="stroke_order_diagram--current_path"></path><circle cx="41" cy="90.98" r="8" class="stroke_order_diagram--path_start" transform="matrix(1,0,0,1,1096,-4)"></circle></svg>