<svg style="width: 1600px; height: 100px;" viewbox="0 0 1600 100"><style>
.stroke_order_diagram--outer_container {
  width: 100%;
  overflow-x: auto;
  overflow-y: hidden;
}

.stroke_order_diagram--guide_line {
  fill: none;
  stroke: #ddd;
  stroke-width: 3;
  stroke-linecap: square;
  stroke-linejoin: square;
  stroke-dasharray:8, 8;
}

.stroke_order_diagram--bounding_box {
  fill: none;
  stroke: #ddd;
  stroke-width: 4;
  stroke-linecap: square;
  stroke-linejoin: square;
}

.stroke_order_diagram--current_path {
  fill: none;
  stroke: #000;
  stroke-width: 6;
  stroke-linecap: round;
  stroke-linejoin: round;
}

.stroke_order_diagram--existing_path {
  fill: none;
  stroke: #aaa;
  stroke-width: 6;
  stroke-linecap: round;
  stroke-linejoin:round;
}

.stroke_order_diagram--path_start {
  fill: rgba(255, 0, 0, 0.7);
  stroke:none
}</style><desc>Created with Snap</desc><defs></defs><line x1="1" x2="1599" y1="1" y2="1" class="stroke_order_diagram--bounding_box"></line><line x1="1" x2="1" y1="1" y2="99" class="stroke_order_diagram--bounding_box"></line><line x1="1" x2="1599" y1="99" y2="99" class="stroke_order_diagram--bounding_box"></line><line x1="0" x2="1600" y1="50" y2="50" class="stroke_order_diagram--guide_line"></line><line x1="50" x2="50" y1="1" y2="99" class="stroke_order_diagram--guide_line"></line><line x1="99" x2="99" y1="1" y2="99" class="stroke_order_diagram--bounding_box"></line><path id="kvg:06a39-s1" kvg:type="㇐" d="M11.53,38.47c1.85,0.53,4.39,0.41,5.71,0.23c4.77-0.63,12.75-2.35,17.84-3.33c0.9-0.17,2.04-0.24,2.93,0" transform="matrix(1,0,0,1,-4,-4)" class="stroke_order_diagram--current_path"></path><path id="pathSk2v596cn32k4" kvg:type="㇐" d="M11.53,38.47c1.85,0.53,4.39,0.41,5.71,0.23c4.77-0.63,12.75-2.35,17.84-3.33c0.9-0.17,2.04-0.24,2.93,0" transform="matrix(1,0,0,1,-4,-4)" class="stroke_order_diagram--current_path"></path><circle cx="11.53" cy="38.47" r="8" class="stroke_order_diagram--path_start" transform="matrix(1,0,0,1,-4,-4)"></circle><line x1="150" x2="150" y1="1" y2="99" class="stroke_order_diagram--guide_line"></line><line x1="199" x2="199" y1="1" y2="99" class="stroke_order_diagram--bounding_box"></line><path id="pathSk2v596cn32k7" kvg:type="㇐" d="M11.53,38.47c1.85,0.53,4.39,0.41,5.71,0.23c4.77-0.63,12.75-2.35,17.84-3.33c0.9-0.17,2.04-0.24,2.93,0" transform="matrix(1,0,0,1,96,-4)" class="stroke_order_diagram--existing_path"></path><path id="kvg:06a39-s2" kvg:type="㇑" d="M27.01,17.45c1.25,1.25,1.74,2.88,1.74,4.92c0,0.82-0.1,46.75-0.1,65.63c0,2.75-0.06,4.69-0.08,5.5" transform="matrix(1,0,0,1,96,-4)" class="stroke_order_diagram--current_path"></path><path id="pathSk2v596cn32k9" kvg:type="㇑" d="M27.01,17.45c1.25,1.25,1.74,2.88,1.74,4.92c0,0.82-0.1,46.75-0.1,65.63c0,2.75-0.06,4.69-0.08,5.5" transform="matrix(1,0,0,1,96,-4)" class="stroke_order_diagram--current_path"></path><circle cx="27.01" cy="17.45" r="8" class="stroke_order_diagram--path_start" transform="matrix(1,0,0,1,96,-4)"></circle><line x1="250" x2="250" y1="1" y2="99" class="stroke_order_diagram--guide_line"></line><line x1="299" x2="299" y1="1" y2="99" class="stroke_order_diagram--bounding_box"></line><path id="pathSk2v596cn32kc" kvg:type="㇐" d="M11.53,38.47c1.85,0.53,4.39,0.41,5.71,0.23c4.77-0.63,12.75-2.35,17.84-3.33c0.9-0.17,2.04-0.24,2.93,0" transform="matrix(1,0,0,1,196,-4)" class="stroke_order_diagram--existing_path"></path><path id="pathSk2v596cn32kd" kvg:type="㇑" d="M27.01,17.45c1.25,1.25,1.74,2.88,1.74,4.92c0,0.82-0.1,46.75-0.1,65.63c0,2.75-0.06,4.69-0.08,5.5" transform="matrix(1,0,0,1,196,-4)" class="stroke_order_diagram--existing_path"></path><path id="kvg:06a39-s3" kvg:type="㇒" d="M27.42,38.78c0,1.84-0.51,4.09-1.49,6.53c-4.56,11.44-7.54,16.94-14.08,28.03" transform="matrix(1,0,0,1,196,-4)" class="stroke_order_diagram--current_path"></path><path id="pathSk2v596cn32kf" kvg:type="㇒" d="M27.42,38.78c0,1.84-0.51,4.09-1.49,6.53c-4.56,11.44-7.54,16.94-14.08,28.03" transform="matrix(1,0,0,1,196,-4)" class="stroke_order_diagram--current_path"></path><circle cx="27.42" cy="38.78" r="8" class="stroke_order_diagram--path_start" transform="matrix(1,0,0,1,196,-4)"></circle><line x1="350" x2="350" y1="1" y2="99" class="stroke_order_diagram--guide_line"></line><line x1="399" x2="399" y1="1" y2="99" class="stroke_order_diagram--bounding_box"></line><path id="pathSk2v596cn32ki" kvg:type="㇐" d="M11.53,38.47c1.85,0.53,4.39,0.41,5.71,0.23c4.77-0.63,12.75-2.35,17.84-3.33c0.9-0.17,2.04-0.24,2.93,0" transform="matrix(1,0,0,1,296,-4)" class="stroke_order_diagram--existing_path"></path><path id="pathSk2v596cn32kj" kvg:type="㇑" d="M27.01,17.45c1.25,1.25,1.74,2.88,1.74,4.92c0,0.82-0.1,46.75-0.1,65.63c0,2.75-0.06,4.69-0.08,5.5" transform="matrix(1,0,0,1,296,-4)" class="stroke_order_diagram--existing_path"></path><path id="pathSk2v596cn32kk" kvg:type="㇒" d="M27.42,38.78c0,1.84-0.51,4.09-1.49,6.53c-4.56,11.44-7.54,16.94-14.08,28.03" transform="matrix(1,0,0,1,296,-4)" class="stroke_order_diagram--existing_path"></path><path id="kvg:06a39-s4" kvg:type="㇔/㇏" d="M31,45.75c2.16,1.54,5.72,6.52,7.55,9.5" transform="matrix(1,0,0,1,296,-4)" class="stroke_order_diagram--current_path"></path><path id="pathSk2v596cn32km" kvg:type="㇔/㇏" d="M31,45.75c2.16,1.54,5.72,6.52,7.55,9.5" transform="matrix(1,0,0,1,296,-4)" class="stroke_order_diagram--current_path"></path><circle cx="31" cy="45.75" r="8" class="stroke_order_diagram--path_start" transform="matrix(1,0,0,1,296,-4)"></circle><line x1="450" x2="450" y1="1" y2="99" class="stroke_order_diagram--guide_line"></line><line x1="499" x2="499" y1="1" y2="99" class="stroke_order_diagram--bounding_box"></line><path id="pathSk2v596cn32kp" kvg:type="㇐" d="M11.53,38.47c1.85,0.53,4.39,0.41,5.71,0.23c4.77-0.63,12.75-2.35,17.84-3.33c0.9-0.17,2.04-0.24,2.93,0" transform="matrix(1,0,0,1,396,-4)" class="stroke_order_diagram--existing_path"></path><path id="pathSk2v596cn32kq" kvg:type="㇑" d="M27.01,17.45c1.25,1.25,1.74,2.88,1.74,4.92c0,0.82-0.1,46.75-0.1,65.63c0,2.75-0.06,4.69-0.08,5.5" transform="matrix(1,0,0,1,396,-4)" class="stroke_order_diagram--existing_path"></path><path id="pathSk2v596cn32kr" kvg:type="㇒" d="M27.42,38.78c0,1.84-0.51,4.09-1.49,6.53c-4.56,11.44-7.54,16.94-14.08,28.03" transform="matrix(1,0,0,1,396,-4)" class="stroke_order_diagram--existing_path"></path><path id="pathSk2v596cn32ks" kvg:type="㇔/㇏" d="M31,45.75c2.16,1.54,5.72,6.52,7.55,9.5" transform="matrix(1,0,0,1,396,-4)" class="stroke_order_diagram--existing_path"></path><path id="kvg:06a39-s5" kvg:type="㇐" d="M40.49,26.1c1.75,0.6,4.19,0.53,6,0.34c5.21-0.53,11.86-1.57,18-2.26c1.39-0.16,2.87-0.43,4.27-0.17" transform="matrix(1,0,0,1,396,-4)" class="stroke_order_diagram--current_path"></path><path id="pathSk2v596cn32ku" kvg:type="㇐" d="M40.49,26.1c1.75,0.6,4.19,0.53,6,0.34c5.21-0.53,11.86-1.57,18-2.26c1.39-0.16,2.87-0.43,4.27-0.17" transform="matrix(1,0,0,1,396,-4)" class="stroke_order_diagram--current_path"></path><circle cx="40.49" cy="26.1" r="8" class="stroke_order_diagram--path_start" transform="matrix(1,0,0,1,396,-4)"></circle><line x1="550" x2="550" y1="1" y2="99" class="stroke_order_diagram--guide_line"></line><line x1="599" x2="599" y1="1" y2="99" class="stroke_order_diagram--bounding_box"></line><path id="pathSk2v596cn32kx" kvg:type="㇐" d="M11.53,38.47c1.85,0.53,4.39,0.41,5.71,0.23c4.77-0.63,12.75-2.35,17.84-3.33c0.9-0.17,2.04-0.24,2.93,0" transform="matrix(1,0,0,1,496,-4)" class="stroke_order_diagram--existing_path"></path><path id="pathSk2v596cn32ky" kvg:type="㇑" d="M27.01,17.45c1.25,1.25,1.74,2.88,1.74,4.92c0,0.82-0.1,46.75-0.1,65.63c0,2.75-0.06,4.69-0.08,5.5" transform="matrix(1,0,0,1,496,-4)" class="stroke_order_diagram--existing_path"></path><path id="pathSk2v596cn32kz" kvg:type="㇒" d="M27.42,38.78c0,1.84-0.51,4.09-1.49,6.53c-4.56,11.44-7.54,16.94-14.08,28.03" transform="matrix(1,0,0,1,496,-4)" class="stroke_order_diagram--existing_path"></path><path id="pathSk2v596cn32l0" kvg:type="㇔/㇏" d="M31,45.75c2.16,1.54,5.72,6.52,7.55,9.5" transform="matrix(1,0,0,1,496,-4)" class="stroke_order_diagram--existing_path"></path><path id="pathSk2v596cn32l1" kvg:type="㇐" d="M40.49,26.1c1.75,0.6,4.19,0.53,6,0.34c5.21-0.53,11.86-1.57,18-2.26c1.39-0.16,2.87-0.43,4.27-0.17" transform="matrix(1,0,0,1,496,-4)" class="stroke_order_diagram--existing_path"></path><path id="kvg:06a39-s6" kvg:type="㇑a" d="M53.37,14.01c0.94,0.94,1.34,2.24,1.34,3.87c0,3.98-0.05,10.12-0.05,19.21" transform="matrix(1,0,0,1,496,-4)" class="stroke_order_diagram--current_path"></path><path id="pathSk2v596cn32l3" kvg:type="㇑a" d="M53.37,14.01c0.94,0.94,1.34,2.24,1.34,3.87c0,3.98-0.05,10.12-0.05,19.21" transform="matrix(1,0,0,1,496,-4)" class="stroke_order_diagram--current_path"></path><circle cx="53.37" cy="14.01" r="8" class="stroke_order_diagram--path_start" transform="matrix(1,0,0,1,496,-4)"></circle><line x1="650" x2="650" y1="1" y2="99" class="stroke_order_diagram--guide_line"></line><line x1="699" x2="699" y1="1" y2="99" class="stroke_order_diagram--bounding_box"></line><path id="pathSk2v596cn32l6" kvg:type="㇐" d="M11.53,38.47c1.85,0.53,4.39,0.41,5.71,0.23c4.77-0.63,12.75-2.35,17.84-3.33c0.9-0.17,2.04-0.24,2.93,0" transform="matrix(1,0,0,1,596,-4)" class="stroke_order_diagram--existing_path"></path><path id="pathSk2v596cn32l7" kvg:type="㇑" d="M27.01,17.45c1.25,1.25,1.74,2.88,1.74,4.92c0,0.82-0.1,46.75-0.1,65.63c0,2.75-0.06,4.69-0.08,5.5" transform="matrix(1,0,0,1,596,-4)" class="stroke_order_diagram--existing_path"></path><path id="pathSk2v596cn32l8" kvg:type="㇒" d="M27.42,38.78c0,1.84-0.51,4.09-1.49,6.53c-4.56,11.44-7.54,16.94-14.08,28.03" transform="matrix(1,0,0,1,596,-4)" class="stroke_order_diagram--existing_path"></path><path id="pathSk2v596cn32l9" kvg:type="㇔/㇏" d="M31,45.75c2.16,1.54,5.72,6.52,7.55,9.5" transform="matrix(1,0,0,1,596,-4)" class="stroke_order_diagram--existing_path"></path><path id="pathSk2v596cn32la" kvg:type="㇐" d="M40.49,26.1c1.75,0.6,4.19,0.53,6,0.34c5.21-0.53,11.86-1.57,18-2.26c1.39-0.16,2.87-0.43,4.27-0.17" transform="matrix(1,0,0,1,596,-4)" class="stroke_order_diagram--existing_path"></path><path id="pathSk2v596cn32lb" kvg:type="㇑a" d="M53.37,14.01c0.94,0.94,1.34,2.24,1.34,3.87c0,3.98-0.05,10.12-0.05,19.21" transform="matrix(1,0,0,1,596,-4)" class="stroke_order_diagram--existing_path"></path><path id="kvg:06a39-s7" kvg:type="㇐" d="M43.61,39.13c0.62,0.19,3.25,0.14,3.87,0.1c3.77-0.23,10.27-1.48,16.17-1.99c1.03-0.09,1.65,0.02,2.17,0.11" transform="matrix(1,0,0,1,596,-4)" class="stroke_order_diagram--current_path"></path><path id="pathSk2v596cn32ld" kvg:type="㇐" d="M43.61,39.13c0.62,0.19,3.25,0.14,3.87,0.1c3.77-0.23,10.27-1.48,16.17-1.99c1.03-0.09,1.65,0.02,2.17,0.11" transform="matrix(1,0,0,1,596,-4)" class="stroke_order_diagram--current_path"></path><circle cx="43.61" cy="39.13" r="8" class="stroke_order_diagram--path_start" transform="matrix(1,0,0,1,596,-4)"></circle><line x1="750" x2="750" y1="1" y2="99" class="stroke_order_diagram--guide_line"></line><line x1="799" x2="799" y1="1" y2="99" class="stroke_order_diagram--bounding_box"></line><path id="pathSk2v596cn32lg" kvg:type="㇐" d="M11.53,38.47c1.85,0.53,4.39,0.41,5.71,0.23c4.77-0.63,12.75-2.35,17.84-3.33c0.9-0.17,2.04-0.24,2.93,0" transform="matrix(1,0,0,1,696,-4)" class="stroke_order_diagram--existing_path"></path><path id="pathSk2v596cn32lh" kvg:type="㇑" d="M27.01,17.45c1.25,1.25,1.74,2.88,1.74,4.92c0,0.82-0.1,46.75-0.1,65.63c0,2.75-0.06,4.69-0.08,5.5" transform="matrix(1,0,0,1,696,-4)" class="stroke_order_diagram--existing_path"></path><path id="pathSk2v596cn32li" kvg:type="㇒" d="M27.42,38.78c0,1.84-0.51,4.09-1.49,6.53c-4.56,11.44-7.54,16.94-14.08,28.03" transform="matrix(1,0,0,1,696,-4)" class="stroke_order_diagram--existing_path"></path><path id="pathSk2v596cn32lj" kvg:type="㇔/㇏" d="M31,45.75c2.16,1.54,5.72,6.52,7.55,9.5" transform="matrix(1,0,0,1,696,-4)" class="stroke_order_diagram--existing_path"></path><path id="pathSk2v596cn32lk" kvg:type="㇐" d="M40.49,26.1c1.75,0.6,4.19,0.53,6,0.34c5.21-0.53,11.86-1.57,18-2.26c1.39-0.16,2.87-0.43,4.27-0.17" transform="matrix(1,0,0,1,696,-4)" class="stroke_order_diagram--existing_path"></path><path id="pathSk2v596cn32ll" kvg:type="㇑a" d="M53.37,14.01c0.94,0.94,1.34,2.24,1.34,3.87c0,3.98-0.05,10.12-0.05,19.21" transform="matrix(1,0,0,1,696,-4)" class="stroke_order_diagram--existing_path"></path><path id="pathSk2v596cn32lm" kvg:type="㇐" d="M43.61,39.13c0.62,0.19,3.25,0.14,3.87,0.1c3.77-0.23,10.27-1.48,16.17-1.99c1.03-0.09,1.65,0.02,2.17,0.11" transform="matrix(1,0,0,1,696,-4)" class="stroke_order_diagram--existing_path"></path><path id="kvg:06a39-s8" kvg:type="㇑" d="M42.99,48.51c0.62,0.62,0.9,1.74,1,2.53c0.39,3.33,0.9,5.17,1.37,9.19c0.14,1.22,0.27,2.4,0.38,3.44" transform="matrix(1,0,0,1,696,-4)" class="stroke_order_diagram--current_path"></path><path id="pathSk2v596cn32lo" kvg:type="㇑" d="M42.99,48.51c0.62,0.62,0.9,1.74,1,2.53c0.39,3.33,0.9,5.17,1.37,9.19c0.14,1.22,0.27,2.4,0.38,3.44" transform="matrix(1,0,0,1,696,-4)" class="stroke_order_diagram--current_path"></path><circle cx="42.99" cy="48.51" r="8" class="stroke_order_diagram--path_start" transform="matrix(1,0,0,1,696,-4)"></circle><line x1="850" x2="850" y1="1" y2="99" class="stroke_order_diagram--guide_line"></line><line x1="899" x2="899" y1="1" y2="99" class="stroke_order_diagram--bounding_box"></line><path id="pathSk2v596cn32lr" kvg:type="㇐" d="M11.53,38.47c1.85,0.53,4.39,0.41,5.71,0.23c4.77-0.63,12.75-2.35,17.84-3.33c0.9-0.17,2.04-0.24,2.93,0" transform="matrix(1,0,0,1,796,-4)" class="stroke_order_diagram--existing_path"></path><path id="pathSk2v596cn32ls" kvg:type="㇑" d="M27.01,17.45c1.25,1.25,1.74,2.88,1.74,4.92c0,0.82-0.1,46.75-0.1,65.63c0,2.75-0.06,4.69-0.08,5.5" transform="matrix(1,0,0,1,796,-4)" class="stroke_order_diagram--existing_path"></path><path id="pathSk2v596cn32lt" kvg:type="㇒" d="M27.42,38.78c0,1.84-0.51,4.09-1.49,6.53c-4.56,11.44-7.54,16.94-14.08,28.03" transform="matrix(1,0,0,1,796,-4)" class="stroke_order_diagram--existing_path"></path><path id="pathSk2v596cn32lu" kvg:type="㇔/㇏" d="M31,45.75c2.16,1.54,5.72,6.52,7.55,9.5" transform="matrix(1,0,0,1,796,-4)" class="stroke_order_diagram--existing_path"></path><path id="pathSk2v596cn32lv" kvg:type="㇐" d="M40.49,26.1c1.75,0.6,4.19,0.53,6,0.34c5.21-0.53,11.86-1.57,18-2.26c1.39-0.16,2.87-0.43,4.27-0.17" transform="matrix(1,0,0,1,796,-4)" class="stroke_order_diagram--existing_path"></path><path id="pathSk2v596cn32lw" kvg:type="㇑a" d="M53.37,14.01c0.94,0.94,1.34,2.24,1.34,3.87c0,3.98-0.05,10.12-0.05,19.21" transform="matrix(1,0,0,1,796,-4)" class="stroke_order_diagram--existing_path"></path><path id="pathSk2v596cn32lx" kvg:type="㇐" d="M43.61,39.13c0.62,0.19,3.25,0.14,3.87,0.1c3.77-0.23,10.27-1.48,16.17-1.99c1.03-0.09,1.65,0.02,2.17,0.11" transform="matrix(1,0,0,1,796,-4)" class="stroke_order_diagram--existing_path"></path><path id="pathSk2v596cn32ly" kvg:type="㇑" d="M42.99,48.51c0.62,0.62,0.9,1.74,1,2.53c0.39,3.33,0.9,5.17,1.37,9.19c0.14,1.22,0.27,2.4,0.38,3.44" transform="matrix(1,0,0,1,796,-4)" class="stroke_order_diagram--existing_path"></path><path id="kvg:06a39-s9" kvg:type="㇕b" d="M45,49.84c4.04-0.86,11.62-2.17,15.52-2.72c2.5-0.35,3.79,0.14,3.08,2.99c-0.65,2.57-1.32,4.53-2.34,8.47" transform="matrix(1,0,0,1,796,-4)" class="stroke_order_diagram--current_path"></path><path id="pathSk2v596cn32m0" kvg:type="㇕b" d="M45,49.84c4.04-0.86,11.62-2.17,15.52-2.72c2.5-0.35,3.79,0.14,3.08,2.99c-0.65,2.57-1.32,4.53-2.34,8.47" transform="matrix(1,0,0,1,796,-4)" class="stroke_order_diagram--current_path"></path><circle cx="45" cy="49.84" r="8" class="stroke_order_diagram--path_start" transform="matrix(1,0,0,1,796,-4)"></circle><line x1="950" x2="950" y1="1" y2="99" class="stroke_order_diagram--guide_line"></line><line x1="999" x2="999" y1="1" y2="99" class="stroke_order_diagram--bounding_box"></line><path id="pathSk2v596cn32m3" kvg:type="㇐" d="M11.53,38.47c1.85,0.53,4.39,0.41,5.71,0.23c4.77-0.63,12.75-2.35,17.84-3.33c0.9-0.17,2.04-0.24,2.93,0" transform="matrix(1,0,0,1,896,-4)" class="stroke_order_diagram--existing_path"></path><path id="pathSk2v596cn32m4" kvg:type="㇑" d="M27.01,17.45c1.25,1.25,1.74,2.88,1.74,4.92c0,0.82-0.1,46.75-0.1,65.63c0,2.75-0.06,4.69-0.08,5.5" transform="matrix(1,0,0,1,896,-4)" class="stroke_order_diagram--existing_path"></path><path id="pathSk2v596cn32m5" kvg:type="㇒" d="M27.42,38.78c0,1.84-0.51,4.09-1.49,6.53c-4.56,11.44-7.54,16.94-14.08,28.03" transform="matrix(1,0,0,1,896,-4)" class="stroke_order_diagram--existing_path"></path><path id="pathSk2v596cn32m6" kvg:type="㇔/㇏" d="M31,45.75c2.16,1.54,5.72,6.52,7.55,9.5" transform="matrix(1,0,0,1,896,-4)" class="stroke_order_diagram--existing_path"></path><path id="pathSk2v596cn32m7" kvg:type="㇐" d="M40.49,26.1c1.75,0.6,4.19,0.53,6,0.34c5.21-0.53,11.86-1.57,18-2.26c1.39-0.16,2.87-0.43,4.27-0.17" transform="matrix(1,0,0,1,896,-4)" class="stroke_order_diagram--existing_path"></path><path id="pathSk2v596cn32m8" kvg:type="㇑a" d="M53.37,14.01c0.94,0.94,1.34,2.24,1.34,3.87c0,3.98-0.05,10.12-0.05,19.21" transform="matrix(1,0,0,1,896,-4)" class="stroke_order_diagram--existing_path"></path><path id="pathSk2v596cn32m9" kvg:type="㇐" d="M43.61,39.13c0.62,0.19,3.25,0.14,3.87,0.1c3.77-0.23,10.27-1.48,16.17-1.99c1.03-0.09,1.65,0.02,2.17,0.11" transform="matrix(1,0,0,1,896,-4)" class="stroke_order_diagram--existing_path"></path><path id="pathSk2v596cn32ma" kvg:type="㇑" d="M42.99,48.51c0.62,0.62,0.9,1.74,1,2.53c0.39,3.33,0.9,5.17,1.37,9.19c0.14,1.22,0.27,2.4,0.38,3.44" transform="matrix(1,0,0,1,896,-4)" class="stroke_order_diagram--existing_path"></path><path id="pathSk2v596cn32mb" kvg:type="㇕b" d="M45,49.84c4.04-0.86,11.62-2.17,15.52-2.72c2.5-0.35,3.79,0.14,3.08,2.99c-0.65,2.57-1.32,4.53-2.34,8.47" transform="matrix(1,0,0,1,896,-4)" class="stroke_order_diagram--existing_path"></path><path id="kvg:06a39-s10" kvg:type="㇐b" d="M46.95,61.77c2.26-0.3,7.4-1.13,11.88-1.81c1.42-0.21,2.67-0.39,3.58-0.48" transform="matrix(1,0,0,1,896,-4)" class="stroke_order_diagram--current_path"></path><path id="pathSk2v596cn32md" kvg:type="㇐b" d="M46.95,61.77c2.26-0.3,7.4-1.13,11.88-1.81c1.42-0.21,2.67-0.39,3.58-0.48" transform="matrix(1,0,0,1,896,-4)" class="stroke_order_diagram--current_path"></path><circle cx="46.95" cy="61.77" r="8" class="stroke_order_diagram--path_start" transform="matrix(1,0,0,1,896,-4)"></circle><line x1="1050" x2="1050" y1="1" y2="99" class="stroke_order_diagram--guide_line"></line><line x1="1099" x2="1099" y1="1" y2="99" class="stroke_order_diagram--bounding_box"></line><path id="pathSk2v596cn32mg" kvg:type="㇐" d="M11.53,38.47c1.85,0.53,4.39,0.41,5.71,0.23c4.77-0.63,12.75-2.35,17.84-3.33c0.9-0.17,2.04-0.24,2.93,0" transform="matrix(1,0,0,1,996,-4)" class="stroke_order_diagram--existing_path"></path><path id="pathSk2v596cn32mh" kvg:type="㇑" d="M27.01,17.45c1.25,1.25,1.74,2.88,1.74,4.92c0,0.82-0.1,46.75-0.1,65.63c0,2.75-0.06,4.69-0.08,5.5" transform="matrix(1,0,0,1,996,-4)" class="stroke_order_diagram--existing_path"></path><path id="pathSk2v596cn32mi" kvg:type="㇒" d="M27.42,38.78c0,1.84-0.51,4.09-1.49,6.53c-4.56,11.44-7.54,16.94-14.08,28.03" transform="matrix(1,0,0,1,996,-4)" class="stroke_order_diagram--existing_path"></path><path id="pathSk2v596cn32mj" kvg:type="㇔/㇏" d="M31,45.75c2.16,1.54,5.72,6.52,7.55,9.5" transform="matrix(1,0,0,1,996,-4)" class="stroke_order_diagram--existing_path"></path><path id="pathSk2v596cn32mk" kvg:type="㇐" d="M40.49,26.1c1.75,0.6,4.19,0.53,6,0.34c5.21-0.53,11.86-1.57,18-2.26c1.39-0.16,2.87-0.43,4.27-0.17" transform="matrix(1,0,0,1,996,-4)" class="stroke_order_diagram--existing_path"></path><path id="pathSk2v596cn32ml" kvg:type="㇑a" d="M53.37,14.01c0.94,0.94,1.34,2.24,1.34,3.87c0,3.98-0.05,10.12-0.05,19.21" transform="matrix(1,0,0,1,996,-4)" class="stroke_order_diagram--existing_path"></path><path id="pathSk2v596cn32mm" kvg:type="㇐" d="M43.61,39.13c0.62,0.19,3.25,0.14,3.87,0.1c3.77-0.23,10.27-1.48,16.17-1.99c1.03-0.09,1.65,0.02,2.17,0.11" transform="matrix(1,0,0,1,996,-4)" class="stroke_order_diagram--existing_path"></path><path id="pathSk2v596cn32mn" kvg:type="㇑" d="M42.99,48.51c0.62,0.62,0.9,1.74,1,2.53c0.39,3.33,0.9,5.17,1.37,9.19c0.14,1.22,0.27,2.4,0.38,3.44" transform="matrix(1,0,0,1,996,-4)" class="stroke_order_diagram--existing_path"></path><path id="pathSk2v596cn32mo" kvg:type="㇕b" d="M45,49.84c4.04-0.86,11.62-2.17,15.52-2.72c2.5-0.35,3.79,0.14,3.08,2.99c-0.65,2.57-1.32,4.53-2.34,8.47" transform="matrix(1,0,0,1,996,-4)" class="stroke_order_diagram--existing_path"></path><path id="pathSk2v596cn32mp" kvg:type="㇐b" d="M46.95,61.77c2.26-0.3,7.4-1.13,11.88-1.81c1.42-0.21,2.67-0.39,3.58-0.48" transform="matrix(1,0,0,1,996,-4)" class="stroke_order_diagram--existing_path"></path><path id="kvg:06a39-s11" kvg:type="㇔" d="M41.41,70.71c1.75,1.89,4.52,7.78,4.96,10.72" transform="matrix(1,0,0,1,996,-4)" class="stroke_order_diagram--current_path"></path><path id="pathSk2v596cn32mr" kvg:type="㇔" d="M41.41,70.71c1.75,1.89,4.52,7.78,4.96,10.72" transform="matrix(1,0,0,1,996,-4)" class="stroke_order_diagram--current_path"></path><circle cx="41.41" cy="70.71" r="8" class="stroke_order_diagram--path_start" transform="matrix(1,0,0,1,996,-4)"></circle><line x1="1150" x2="1150" y1="1" y2="99" class="stroke_order_diagram--guide_line"></line><line x1="1199" x2="1199" y1="1" y2="99" class="stroke_order_diagram--bounding_box"></line><path id="pathSk2v596cn32mu" kvg:type="㇐" d="M11.53,38.47c1.85,0.53,4.39,0.41,5.71,0.23c4.77-0.63,12.75-2.35,17.84-3.33c0.9-0.17,2.04-0.24,2.93,0" transform="matrix(1,0,0,1,1096,-4)" class="stroke_order_diagram--existing_path"></path><path id="pathSk2v596cn32mv" kvg:type="㇑" d="M27.01,17.45c1.25,1.25,1.74,2.88,1.74,4.92c0,0.82-0.1,46.75-0.1,65.63c0,2.75-0.06,4.69-0.08,5.5" transform="matrix(1,0,0,1,1096,-4)" class="stroke_order_diagram--existing_path"></path><path id="pathSk2v596cn32mw" kvg:type="㇒" d="M27.42,38.78c0,1.84-0.51,4.09-1.49,6.53c-4.56,11.44-7.54,16.94-14.08,28.03" transform="matrix(1,0,0,1,1096,-4)" class="stroke_order_diagram--existing_path"></path><path id="pathSk2v596cn32mx" kvg:type="㇔/㇏" d="M31,45.75c2.16,1.54,5.72,6.52,7.55,9.5" transform="matrix(1,0,0,1,1096,-4)" class="stroke_order_diagram--existing_path"></path><path id="pathSk2v596cn32my" kvg:type="㇐" d="M40.49,26.1c1.75,0.6,4.19,0.53,6,0.34c5.21-0.53,11.86-1.57,18-2.26c1.39-0.16,2.87-0.43,4.27-0.17" transform="matrix(1,0,0,1,1096,-4)" class="stroke_order_diagram--existing_path"></path><path id="pathSk2v596cn32mz" kvg:type="㇑a" d="M53.37,14.01c0.94,0.94,1.34,2.24,1.34,3.87c0,3.98-0.05,10.12-0.05,19.21" transform="matrix(1,0,0,1,1096,-4)" class="stroke_order_diagram--existing_path"></path><path id="pathSk2v596cn32n0" kvg:type="㇐" d="M43.61,39.13c0.62,0.19,3.25,0.14,3.87,0.1c3.77-0.23,10.27-1.48,16.17-1.99c1.03-0.09,1.65,0.02,2.17,0.11" transform="matrix(1,0,0,1,1096,-4)" class="stroke_order_diagram--existing_path"></path><path id="pathSk2v596cn32n1" kvg:type="㇑" d="M42.99,48.51c0.62,0.62,0.9,1.74,1,2.53c0.39,3.33,0.9,5.17,1.37,9.19c0.14,1.22,0.27,2.4,0.38,3.44" transform="matrix(1,0,0,1,1096,-4)" class="stroke_order_diagram--existing_path"></path><path id="pathSk2v596cn32n2" kvg:type="㇕b" d="M45,49.84c4.04-0.86,11.62-2.17,15.52-2.72c2.5-0.35,3.79,0.14,3.08,2.99c-0.65,2.57-1.32,4.53-2.34,8.47" transform="matrix(1,0,0,1,1096,-4)" class="stroke_order_diagram--existing_path"></path><path id="pathSk2v596cn32n3" kvg:type="㇐b" d="M46.95,61.77c2.26-0.3,7.4-1.13,11.88-1.81c1.42-0.21,2.67-0.39,3.58-0.48" transform="matrix(1,0,0,1,1096,-4)" class="stroke_order_diagram--existing_path"></path><path id="pathSk2v596cn32n4" kvg:type="㇔" d="M41.41,70.71c1.75,1.89,4.52,7.78,4.96,10.72" transform="matrix(1,0,0,1,1096,-4)" class="stroke_order_diagram--existing_path"></path><path id="kvg:06a39-s12" kvg:type="㇒" d="M60.09,66.37c0.28,0.75,0.31,1.7,0.07,2.51c-1.04,3.49-2.36,7.07-4.72,12.28" transform="matrix(1,0,0,1,1096,-4)" class="stroke_order_diagram--current_path"></path><path id="pathSk2v596cn32n6" kvg:type="㇒" d="M60.09,66.37c0.28,0.75,0.31,1.7,0.07,2.51c-1.04,3.49-2.36,7.07-4.72,12.28" transform="matrix(1,0,0,1,1096,-4)" class="stroke_order_diagram--current_path"></path><circle cx="60.09" cy="66.37" r="8" class="stroke_order_diagram--path_start" transform="matrix(1,0,0,1,1096,-4)"></circle><line x1="1250" x2="1250" y1="1" y2="99" class="stroke_order_diagram--guide_line"></line><line x1="1299" x2="1299" y1="1" y2="99" class="stroke_order_diagram--bounding_box"></line><path id="pathSk2v596cn32n9" kvg:type="㇐" d="M11.53,38.47c1.85,0.53,4.39,0.41,5.71,0.23c4.77-0.63,12.75-2.35,17.84-3.33c0.9-0.17,2.04-0.24,2.93,0" transform="matrix(1,0,0,1,1196,-4)" class="stroke_order_diagram--existing_path"></path><path id="pathSk2v596cn32na" kvg:type="㇑" d="M27.01,17.45c1.25,1.25,1.74,2.88,1.74,4.92c0,0.82-0.1,46.75-0.1,65.63c0,2.75-0.06,4.69-0.08,5.5" transform="matrix(1,0,0,1,1196,-4)" class="stroke_order_diagram--existing_path"></path><path id="pathSk2v596cn32nb" kvg:type="㇒" d="M27.42,38.78c0,1.84-0.51,4.09-1.49,6.53c-4.56,11.44-7.54,16.94-14.08,28.03" transform="matrix(1,0,0,1,1196,-4)" class="stroke_order_diagram--existing_path"></path><path id="pathSk2v596cn32nc" kvg:type="㇔/㇏" d="M31,45.75c2.16,1.54,5.72,6.52,7.55,9.5" transform="matrix(1,0,0,1,1196,-4)" class="stroke_order_diagram--existing_path"></path><path id="pathSk2v596cn32nd" kvg:type="㇐" d="M40.49,26.1c1.75,0.6,4.19,0.53,6,0.34c5.21-0.53,11.86-1.57,18-2.26c1.39-0.16,2.87-0.43,4.27-0.17" transform="matrix(1,0,0,1,1196,-4)" class="stroke_order_diagram--existing_path"></path><path id="pathSk2v596cn32ne" kvg:type="㇑a" d="M53.37,14.01c0.94,0.94,1.34,2.24,1.34,3.87c0,3.98-0.05,10.12-0.05,19.21" transform="matrix(1,0,0,1,1196,-4)" class="stroke_order_diagram--existing_path"></path><path id="pathSk2v596cn32nf" kvg:type="㇐" d="M43.61,39.13c0.62,0.19,3.25,0.14,3.87,0.1c3.77-0.23,10.27-1.48,16.17-1.99c1.03-0.09,1.65,0.02,2.17,0.11" transform="matrix(1,0,0,1,1196,-4)" class="stroke_order_diagram--existing_path"></path><path id="pathSk2v596cn32ng" kvg:type="㇑" d="M42.99,48.51c0.62,0.62,0.9,1.74,1,2.53c0.39,3.33,0.9,5.17,1.37,9.19c0.14,1.22,0.27,2.4,0.38,3.44" transform="matrix(1,0,0,1,1196,-4)" class="stroke_order_diagram--existing_path"></path><path id="pathSk2v596cn32nh" kvg:type="㇕b" d="M45,49.84c4.04-0.86,11.62-2.17,15.52-2.72c2.5-0.35,3.79,0.14,3.08,2.99c-0.65,2.57-1.32,4.53-2.34,8.47" transform="matrix(1,0,0,1,1196,-4)" class="stroke_order_diagram--existing_path"></path><path id="pathSk2v596cn32ni" kvg:type="㇐b" d="M46.95,61.77c2.26-0.3,7.4-1.13,11.88-1.81c1.42-0.21,2.67-0.39,3.58-0.48" transform="matrix(1,0,0,1,1196,-4)" class="stroke_order_diagram--existing_path"></path><path id="pathSk2v596cn32nj" kvg:type="㇔" d="M41.41,70.71c1.75,1.89,4.52,7.78,4.96,10.72" transform="matrix(1,0,0,1,1196,-4)" class="stroke_order_diagram--existing_path"></path><path id="pathSk2v596cn32nk" kvg:type="㇒" d="M60.09,66.37c0.28,0.75,0.31,1.7,0.07,2.51c-1.04,3.49-2.36,7.07-4.72,12.28" transform="matrix(1,0,0,1,1196,-4)" class="stroke_order_diagram--existing_path"></path><path id="kvg:06a39-s13" kvg:type="㇀/㇐" d="M38.2,88.79c0.83,0.91,2.17,1.12,3.91,0.47c11.45-4.3,16.33-6.93,26.51-10.76" transform="matrix(1,0,0,1,1196,-4)" class="stroke_order_diagram--current_path"></path><path id="pathSk2v596cn32nm" kvg:type="㇀/㇐" d="M38.2,88.79c0.83,0.91,2.17,1.12,3.91,0.47c11.45-4.3,16.33-6.93,26.51-10.76" transform="matrix(1,0,0,1,1196,-4)" class="stroke_order_diagram--current_path"></path><circle cx="38.2" cy="88.79" r="8" class="stroke_order_diagram--path_start" transform="matrix(1,0,0,1,1196,-4)"></circle><line x1="1350" x2="1350" y1="1" y2="99" class="stroke_order_diagram--guide_line"></line><line x1="1399" x2="1399" y1="1" y2="99" class="stroke_order_diagram--bounding_box"></line><path id="pathSk2v596cn32np" kvg:type="㇐" d="M11.53,38.47c1.85,0.53,4.39,0.41,5.71,0.23c4.77-0.63,12.75-2.35,17.84-3.33c0.9-0.17,2.04-0.24,2.93,0" transform="matrix(1,0,0,1,1296,-4)" class="stroke_order_diagram--existing_path"></path><path id="pathSk2v596cn32nq" kvg:type="㇑" d="M27.01,17.45c1.25,1.25,1.74,2.88,1.74,4.92c0,0.82-0.1,46.75-0.1,65.63c0,2.75-0.06,4.69-0.08,5.5" transform="matrix(1,0,0,1,1296,-4)" class="stroke_order_diagram--existing_path"></path><path id="pathSk2v596cn32nr" kvg:type="㇒" d="M27.42,38.78c0,1.84-0.51,4.09-1.49,6.53c-4.56,11.44-7.54,16.94-14.08,28.03" transform="matrix(1,0,0,1,1296,-4)" class="stroke_order_diagram--existing_path"></path><path id="pathSk2v596cn32ns" kvg:type="㇔/㇏" d="M31,45.75c2.16,1.54,5.72,6.52,7.55,9.5" transform="matrix(1,0,0,1,1296,-4)" class="stroke_order_diagram--existing_path"></path><path id="pathSk2v596cn32nt" kvg:type="㇐" d="M40.49,26.1c1.75,0.6,4.19,0.53,6,0.34c5.21-0.53,11.86-1.57,18-2.26c1.39-0.16,2.87-0.43,4.27-0.17" transform="matrix(1,0,0,1,1296,-4)" class="stroke_order_diagram--existing_path"></path><path id="pathSk2v596cn32nu" kvg:type="㇑a" d="M53.37,14.01c0.94,0.94,1.34,2.24,1.34,3.87c0,3.98-0.05,10.12-0.05,19.21" transform="matrix(1,0,0,1,1296,-4)" class="stroke_order_diagram--existing_path"></path><path id="pathSk2v596cn32nv" kvg:type="㇐" d="M43.61,39.13c0.62,0.19,3.25,0.14,3.87,0.1c3.77-0.23,10.27-1.48,16.17-1.99c1.03-0.09,1.65,0.02,2.17,0.11" transform="matrix(1,0,0,1,1296,-4)" class="stroke_order_diagram--existing_path"></path><path id="pathSk2v596cn32nw" kvg:type="㇑" d="M42.99,48.51c0.62,0.62,0.9,1.74,1,2.53c0.39,3.33,0.9,5.17,1.37,9.19c0.14,1.22,0.27,2.4,0.38,3.44" transform="matrix(1,0,0,1,1296,-4)" class="stroke_order_diagram--existing_path"></path><path id="pathSk2v596cn32nx" kvg:type="㇕b" d="M45,49.84c4.04-0.86,11.62-2.17,15.52-2.72c2.5-0.35,3.79,0.14,3.08,2.99c-0.65,2.57-1.32,4.53-2.34,8.47" transform="matrix(1,0,0,1,1296,-4)" class="stroke_order_diagram--existing_path"></path><path id="pathSk2v596cn32ny" kvg:type="㇐b" d="M46.95,61.77c2.26-0.3,7.4-1.13,11.88-1.81c1.42-0.21,2.67-0.39,3.58-0.48" transform="matrix(1,0,0,1,1296,-4)" class="stroke_order_diagram--existing_path"></path><path id="pathSk2v596cn32nz" kvg:type="㇔" d="M41.41,70.71c1.75,1.89,4.52,7.78,4.96,10.72" transform="matrix(1,0,0,1,1296,-4)" class="stroke_order_diagram--existing_path"></path><path id="pathSk2v596cn32o0" kvg:type="㇒" d="M60.09,66.37c0.28,0.75,0.31,1.7,0.07,2.51c-1.04,3.49-2.36,7.07-4.72,12.28" transform="matrix(1,0,0,1,1296,-4)" class="stroke_order_diagram--existing_path"></path><path id="pathSk2v596cn32o1" kvg:type="㇀/㇐" d="M38.2,88.79c0.83,0.91,2.17,1.12,3.91,0.47c11.45-4.3,16.33-6.93,26.51-10.76" transform="matrix(1,0,0,1,1296,-4)" class="stroke_order_diagram--existing_path"></path><path id="kvg:06a39-s14" kvg:type="㇐" d="M69.88,41.15c2.5,0.35,4.41,0.3,6.28-0.01c6.2-1.02,12.47-1.64,17.64-2.72c1.49-0.31,3.08-0.54,4.2-0.3" transform="matrix(1,0,0,1,1296,-4)" class="stroke_order_diagram--current_path"></path><path id="pathSk2v596cn32o3" kvg:type="㇐" d="M69.88,41.15c2.5,0.35,4.41,0.3,6.28-0.01c6.2-1.02,12.47-1.64,17.64-2.72c1.49-0.31,3.08-0.54,4.2-0.3" transform="matrix(1,0,0,1,1296,-4)" class="stroke_order_diagram--current_path"></path><circle cx="69.88" cy="41.15" r="8" class="stroke_order_diagram--path_start" transform="matrix(1,0,0,1,1296,-4)"></circle><line x1="1450" x2="1450" y1="1" y2="99" class="stroke_order_diagram--guide_line"></line><line x1="1499" x2="1499" y1="1" y2="99" class="stroke_order_diagram--bounding_box"></line><path id="pathSk2v596cn32o6" kvg:type="㇐" d="M11.53,38.47c1.85,0.53,4.39,0.41,5.71,0.23c4.77-0.63,12.75-2.35,17.84-3.33c0.9-0.17,2.04-0.24,2.93,0" transform="matrix(1,0,0,1,1396,-4)" class="stroke_order_diagram--existing_path"></path><path id="pathSk2v596cn32o7" kvg:type="㇑" d="M27.01,17.45c1.25,1.25,1.74,2.88,1.74,4.92c0,0.82-0.1,46.75-0.1,65.63c0,2.75-0.06,4.69-0.08,5.5" transform="matrix(1,0,0,1,1396,-4)" class="stroke_order_diagram--existing_path"></path><path id="pathSk2v596cn32o8" kvg:type="㇒" d="M27.42,38.78c0,1.84-0.51,4.09-1.49,6.53c-4.56,11.44-7.54,16.94-14.08,28.03" transform="matrix(1,0,0,1,1396,-4)" class="stroke_order_diagram--existing_path"></path><path id="pathSk2v596cn32o9" kvg:type="㇔/㇏" d="M31,45.75c2.16,1.54,5.72,6.52,7.55,9.5" transform="matrix(1,0,0,1,1396,-4)" class="stroke_order_diagram--existing_path"></path><path id="pathSk2v596cn32oa" kvg:type="㇐" d="M40.49,26.1c1.75,0.6,4.19,0.53,6,0.34c5.21-0.53,11.86-1.57,18-2.26c1.39-0.16,2.87-0.43,4.27-0.17" transform="matrix(1,0,0,1,1396,-4)" class="stroke_order_diagram--existing_path"></path><path id="pathSk2v596cn32ob" kvg:type="㇑a" d="M53.37,14.01c0.94,0.94,1.34,2.24,1.34,3.87c0,3.98-0.05,10.12-0.05,19.21" transform="matrix(1,0,0,1,1396,-4)" class="stroke_order_diagram--existing_path"></path><path id="pathSk2v596cn32oc" kvg:type="㇐" d="M43.61,39.13c0.62,0.19,3.25,0.14,3.87,0.1c3.77-0.23,10.27-1.48,16.17-1.99c1.03-0.09,1.65,0.02,2.17,0.11" transform="matrix(1,0,0,1,1396,-4)" class="stroke_order_diagram--existing_path"></path><path id="pathSk2v596cn32od" kvg:type="㇑" d="M42.99,48.51c0.62,0.62,0.9,1.74,1,2.53c0.39,3.33,0.9,5.17,1.37,9.19c0.14,1.22,0.27,2.4,0.38,3.44" transform="matrix(1,0,0,1,1396,-4)" class="stroke_order_diagram--existing_path"></path><path id="pathSk2v596cn32oe" kvg:type="㇕b" d="M45,49.84c4.04-0.86,11.62-2.17,15.52-2.72c2.5-0.35,3.79,0.14,3.08,2.99c-0.65,2.57-1.32,4.53-2.34,8.47" transform="matrix(1,0,0,1,1396,-4)" class="stroke_order_diagram--existing_path"></path><path id="pathSk2v596cn32of" kvg:type="㇐b" d="M46.95,61.77c2.26-0.3,7.4-1.13,11.88-1.81c1.42-0.21,2.67-0.39,3.58-0.48" transform="matrix(1,0,0,1,1396,-4)" class="stroke_order_diagram--existing_path"></path><path id="pathSk2v596cn32og" kvg:type="㇔" d="M41.41,70.71c1.75,1.89,4.52,7.78,4.96,10.72" transform="matrix(1,0,0,1,1396,-4)" class="stroke_order_diagram--existing_path"></path><path id="pathSk2v596cn32oh" kvg:type="㇒" d="M60.09,66.37c0.28,0.75,0.31,1.7,0.07,2.51c-1.04,3.49-2.36,7.07-4.72,12.28" transform="matrix(1,0,0,1,1396,-4)" class="stroke_order_diagram--existing_path"></path><path id="pathSk2v596cn32oi" kvg:type="㇀/㇐" d="M38.2,88.79c0.83,0.91,2.17,1.12,3.91,0.47c11.45-4.3,16.33-6.93,26.51-10.76" transform="matrix(1,0,0,1,1396,-4)" class="stroke_order_diagram--existing_path"></path><path id="pathSk2v596cn32oj" kvg:type="㇐" d="M69.88,41.15c2.5,0.35,4.41,0.3,6.28-0.01c6.2-1.02,12.47-1.64,17.64-2.72c1.49-0.31,3.08-0.54,4.2-0.3" transform="matrix(1,0,0,1,1396,-4)" class="stroke_order_diagram--existing_path"></path><path id="kvg:06a39-s15" kvg:type="㇚" d="M85.02,15.58c1.14,1.14,2.01,2.79,2.01,5.02c0,20.4-0.01,61.91-0.01,66.87c0,12.03-6.27,2.78-7.96,0.75" transform="matrix(1,0,0,1,1396,-4)" class="stroke_order_diagram--current_path"></path><path id="pathSk2v596cn32ol" kvg:type="㇚" d="M85.02,15.58c1.14,1.14,2.01,2.79,2.01,5.02c0,20.4-0.01,61.91-0.01,66.87c0,12.03-6.27,2.78-7.96,0.75" transform="matrix(1,0,0,1,1396,-4)" class="stroke_order_diagram--current_path"></path><circle cx="85.02" cy="15.58" r="8" class="stroke_order_diagram--path_start" transform="matrix(1,0,0,1,1396,-4)"></circle><line x1="1550" x2="1550" y1="1" y2="99" class="stroke_order_diagram--guide_line"></line><line x1="1599" x2="1599" y1="1" y2="99" class="stroke_order_diagram--bounding_box"></line><path id="pathSk2v596cn32oo" kvg:type="㇐" d="M11.53,38.47c1.85,0.53,4.39,0.41,5.71,0.23c4.77-0.63,12.75-2.35,17.84-3.33c0.9-0.17,2.04-0.24,2.93,0" transform="matrix(1,0,0,1,1496,-4)" class="stroke_order_diagram--existing_path"></path><path id="pathSk2v596cn32op" kvg:type="㇑" d="M27.01,17.45c1.25,1.25,1.74,2.88,1.74,4.92c0,0.82-0.1,46.75-0.1,65.63c0,2.75-0.06,4.69-0.08,5.5" transform="matrix(1,0,0,1,1496,-4)" class="stroke_order_diagram--existing_path"></path><path id="pathSk2v596cn32oq" kvg:type="㇒" d="M27.42,38.78c0,1.84-0.51,4.09-1.49,6.53c-4.56,11.44-7.54,16.94-14.08,28.03" transform="matrix(1,0,0,1,1496,-4)" class="stroke_order_diagram--existing_path"></path><path id="pathSk2v596cn32or" kvg:type="㇔/㇏" d="M31,45.75c2.16,1.54,5.72,6.52,7.55,9.5" transform="matrix(1,0,0,1,1496,-4)" class="stroke_order_diagram--existing_path"></path><path id="pathSk2v596cn32os" kvg:type="㇐" d="M40.49,26.1c1.75,0.6,4.19,0.53,6,0.34c5.21-0.53,11.86-1.57,18-2.26c1.39-0.16,2.87-0.43,4.27-0.17" transform="matrix(1,0,0,1,1496,-4)" class="stroke_order_diagram--existing_path"></path><path id="pathSk2v596cn32ot" kvg:type="㇑a" d="M53.37,14.01c0.94,0.94,1.34,2.24,1.34,3.87c0,3.98-0.05,10.12-0.05,19.21" transform="matrix(1,0,0,1,1496,-4)" class="stroke_order_diagram--existing_path"></path><path id="pathSk2v596cn32ou" kvg:type="㇐" d="M43.61,39.13c0.62,0.19,3.25,0.14,3.87,0.1c3.77-0.23,10.27-1.48,16.17-1.99c1.03-0.09,1.65,0.02,2.17,0.11" transform="matrix(1,0,0,1,1496,-4)" class="stroke_order_diagram--existing_path"></path><path id="pathSk2v596cn32ov" kvg:type="㇑" d="M42.99,48.51c0.62,0.62,0.9,1.74,1,2.53c0.39,3.33,0.9,5.17,1.37,9.19c0.14,1.22,0.27,2.4,0.38,3.44" transform="matrix(1,0,0,1,1496,-4)" class="stroke_order_diagram--existing_path"></path><path id="pathSk2v596cn32ow" kvg:type="㇕b" d="M45,49.84c4.04-0.86,11.62-2.17,15.52-2.72c2.5-0.35,3.79,0.14,3.08,2.99c-0.65,2.57-1.32,4.53-2.34,8.47" transform="matrix(1,0,0,1,1496,-4)" class="stroke_order_diagram--existing_path"></path><path id="pathSk2v596cn32ox" kvg:type="㇐b" d="M46.95,61.77c2.26-0.3,7.4-1.13,11.88-1.81c1.42-0.21,2.67-0.39,3.58-0.48" transform="matrix(1,0,0,1,1496,-4)" class="stroke_order_diagram--existing_path"></path><path id="pathSk2v596cn32oy" kvg:type="㇔" d="M41.41,70.71c1.75,1.89,4.52,7.78,4.96,10.72" transform="matrix(1,0,0,1,1496,-4)" class="stroke_order_diagram--existing_path"></path><path id="pathSk2v596cn32oz" kvg:type="㇒" d="M60.09,66.37c0.28,0.75,0.31,1.7,0.07,2.51c-1.04,3.49-2.36,7.07-4.72,12.28" transform="matrix(1,0,0,1,1496,-4)" class="stroke_order_diagram--existing_path"></path><path id="pathSk2v596cn32p0" kvg:type="㇀/㇐" d="M38.2,88.79c0.83,0.91,2.17,1.12,3.91,0.47c11.45-4.3,16.33-6.93,26.51-10.76" transform="matrix(1,0,0,1,1496,-4)" class="stroke_order_diagram--existing_path"></path><path id="pathSk2v596cn32p1" kvg:type="㇐" d="M69.88,41.15c2.5,0.35,4.41,0.3,6.28-0.01c6.2-1.02,12.47-1.64,17.64-2.72c1.49-0.31,3.08-0.54,4.2-0.3" transform="matrix(1,0,0,1,1496,-4)" class="stroke_order_diagram--existing_path"></path><path id="pathSk2v596cn32p2" kvg:type="㇚" d="M85.02,15.58c1.14,1.14,2.01,2.79,2.01,5.02c0,20.4-0.01,61.91-0.01,66.87c0,12.03-6.27,2.78-7.96,0.75" transform="matrix(1,0,0,1,1496,-4)" class="stroke_order_diagram--existing_path"></path><path id="kvg:06a39-s16" kvg:type="㇔" d="M71.96,56.37c2.29,1.85,5.93,7.62,6.5,10.5" transform="matrix(1,0,0,1,1496,-4)" class="stroke_order_diagram--current_path"></path><path id="pathSk2v596cn32p4" kvg:type="㇔" d="M71.96,56.37c2.29,1.85,5.93,7.62,6.5,10.5" transform="matrix(1,0,0,1,1496,-4)" class="stroke_order_diagram--current_path"></path><circle cx="71.96" cy="56.37" r="8" class="stroke_order_diagram--path_start" transform="matrix(1,0,0,1,1496,-4)"></circle></svg>