<svg style="width: 600px; height: 100px;" viewbox="0 0 600 100"><style>
.stroke_order_diagram--outer_container {
  width: 100%;
  overflow-x: auto;
  overflow-y: hidden;
}

.stroke_order_diagram--guide_line {
  fill: none;
  stroke: #ddd;
  stroke-width: 3;
  stroke-linecap: square;
  stroke-linejoin: square;
  stroke-dasharray:8, 8;
}

.stroke_order_diagram--bounding_box {
  fill: none;
  stroke: #ddd;
  stroke-width: 4;
  stroke-linecap: square;
  stroke-linejoin: square;
}

.stroke_order_diagram--current_path {
  fill: none;
  stroke: #000;
  stroke-width: 6;
  stroke-linecap: round;
  stroke-linejoin: round;
}

.stroke_order_diagram--existing_path {
  fill: none;
  stroke: #aaa;
  stroke-width: 6;
  stroke-linecap: round;
  stroke-linejoin:round;
}

.stroke_order_diagram--path_start {
  fill: rgba(255, 0, 0, 0.7);
  stroke:none
}</style><desc>Created with Snap</desc><defs></defs><line x1="1" x2="599" y1="1" y2="1" class="stroke_order_diagram--bounding_box"></line><line x1="1" x2="1" y1="1" y2="99" class="stroke_order_diagram--bounding_box"></line><line x1="1" x2="599" y1="99" y2="99" class="stroke_order_diagram--bounding_box"></line><line x1="0" x2="600" y1="50" y2="50" class="stroke_order_diagram--guide_line"></line><line x1="50" x2="50" y1="1" y2="99" class="stroke_order_diagram--guide_line"></line><line x1="99" x2="99" y1="1" y2="99" class="stroke_order_diagram--bounding_box"></line><path id="kvg:06b21-s1" kvg:type="㇔" d="M17,26.38c4.41,1.57,9.88,5.25,11.75,8.62" transform="matrix(1,0,0,1,-4,-4)" class="stroke_order_diagram--current_path"></path><path id="pathSk2v596cn6o7" kvg:type="㇔" d="M17,26.38c4.41,1.57,9.88,5.25,11.75,8.62" transform="matrix(1,0,0,1,-4,-4)" class="stroke_order_diagram--current_path"></path><circle cx="17" cy="26.38" r="8" class="stroke_order_diagram--path_start" transform="matrix(1,0,0,1,-4,-4)"></circle><line x1="150" x2="150" y1="1" y2="99" class="stroke_order_diagram--guide_line"></line><line x1="199" x2="199" y1="1" y2="99" class="stroke_order_diagram--bounding_box"></line><path id="pathSk2v596cn6oa" kvg:type="㇔" d="M17,26.38c4.41,1.57,9.88,5.25,11.75,8.62" transform="matrix(1,0,0,1,96,-4)" class="stroke_order_diagram--existing_path"></path><path id="kvg:06b21-s2" kvg:type="㇀" d="M12.12,85.87c1.15,0.22,2.28-0.25,3.01-1.2c1.15-1.48,8.1-13.15,12.49-20.67" transform="matrix(1,0,0,1,96,-4)" class="stroke_order_diagram--current_path"></path><path id="pathSk2v596cn6oc" kvg:type="㇀" d="M12.12,85.87c1.15,0.22,2.28-0.25,3.01-1.2c1.15-1.48,8.1-13.15,12.49-20.67" transform="matrix(1,0,0,1,96,-4)" class="stroke_order_diagram--current_path"></path><circle cx="12.12" cy="85.87" r="8" class="stroke_order_diagram--path_start" transform="matrix(1,0,0,1,96,-4)"></circle><line x1="250" x2="250" y1="1" y2="99" class="stroke_order_diagram--guide_line"></line><line x1="299" x2="299" y1="1" y2="99" class="stroke_order_diagram--bounding_box"></line><path id="pathSk2v596cn6of" kvg:type="㇔" d="M17,26.38c4.41,1.57,9.88,5.25,11.75,8.62" transform="matrix(1,0,0,1,196,-4)" class="stroke_order_diagram--existing_path"></path><path id="pathSk2v596cn6og" kvg:type="㇀" d="M12.12,85.87c1.15,0.22,2.28-0.25,3.01-1.2c1.15-1.48,8.1-13.15,12.49-20.67" transform="matrix(1,0,0,1,196,-4)" class="stroke_order_diagram--existing_path"></path><path id="kvg:06b21-s3" kvg:type="㇒" d="M53.95,16c0.43,0.86,0.6,1.9,0.35,2.81C52,26.88,44.88,40,36.25,48.41" transform="matrix(1,0,0,1,196,-4)" class="stroke_order_diagram--current_path"></path><path id="pathSk2v596cn6oi" kvg:type="㇒" d="M53.95,16c0.43,0.86,0.6,1.9,0.35,2.81C52,26.88,44.88,40,36.25,48.41" transform="matrix(1,0,0,1,196,-4)" class="stroke_order_diagram--current_path"></path><circle cx="53.95" cy="16" r="8" class="stroke_order_diagram--path_start" transform="matrix(1,0,0,1,196,-4)"></circle><line x1="350" x2="350" y1="1" y2="99" class="stroke_order_diagram--guide_line"></line><line x1="399" x2="399" y1="1" y2="99" class="stroke_order_diagram--bounding_box"></line><path id="pathSk2v596cn6ol" kvg:type="㇔" d="M17,26.38c4.41,1.57,9.88,5.25,11.75,8.62" transform="matrix(1,0,0,1,296,-4)" class="stroke_order_diagram--existing_path"></path><path id="pathSk2v596cn6om" kvg:type="㇀" d="M12.12,85.87c1.15,0.22,2.28-0.25,3.01-1.2c1.15-1.48,8.1-13.15,12.49-20.67" transform="matrix(1,0,0,1,296,-4)" class="stroke_order_diagram--existing_path"></path><path id="pathSk2v596cn6on" kvg:type="㇒" d="M53.95,16c0.43,0.86,0.6,1.9,0.35,2.81C52,26.88,44.88,40,36.25,48.41" transform="matrix(1,0,0,1,296,-4)" class="stroke_order_diagram--existing_path"></path><path id="kvg:06b21-s4" kvg:type="㇖a" d="M47.36,39.52c1.15,0.29,2.56,0.4,4.31,0.25C54.88,39.5,73.99,34.7,79,33.5c6.25-1.5,6,2.5-3.5,11.4" transform="matrix(1,0,0,1,296,-4)" class="stroke_order_diagram--current_path"></path><path id="pathSk2v596cn6op" kvg:type="㇖a" d="M47.36,39.52c1.15,0.29,2.56,0.4,4.31,0.25C54.88,39.5,73.99,34.7,79,33.5c6.25-1.5,6,2.5-3.5,11.4" transform="matrix(1,0,0,1,296,-4)" class="stroke_order_diagram--current_path"></path><circle cx="47.36" cy="39.52" r="8" class="stroke_order_diagram--path_start" transform="matrix(1,0,0,1,296,-4)"></circle><line x1="450" x2="450" y1="1" y2="99" class="stroke_order_diagram--guide_line"></line><line x1="499" x2="499" y1="1" y2="99" class="stroke_order_diagram--bounding_box"></line><path id="pathSk2v596cn6os" kvg:type="㇔" d="M17,26.38c4.41,1.57,9.88,5.25,11.75,8.62" transform="matrix(1,0,0,1,396,-4)" class="stroke_order_diagram--existing_path"></path><path id="pathSk2v596cn6ot" kvg:type="㇀" d="M12.12,85.87c1.15,0.22,2.28-0.25,3.01-1.2c1.15-1.48,8.1-13.15,12.49-20.67" transform="matrix(1,0,0,1,396,-4)" class="stroke_order_diagram--existing_path"></path><path id="pathSk2v596cn6ou" kvg:type="㇒" d="M53.95,16c0.43,0.86,0.6,1.9,0.35,2.81C52,26.88,44.88,40,36.25,48.41" transform="matrix(1,0,0,1,396,-4)" class="stroke_order_diagram--existing_path"></path><path id="pathSk2v596cn6ov" kvg:type="㇖a" d="M47.36,39.52c1.15,0.29,2.56,0.4,4.31,0.25C54.88,39.5,73.99,34.7,79,33.5c6.25-1.5,6,2.5-3.5,11.4" transform="matrix(1,0,0,1,396,-4)" class="stroke_order_diagram--existing_path"></path><path id="kvg:06b21-s5" kvg:type="㇒" d="M56.77,49.2c0.73,1.3,0.8,2.71,0.58,4.26c-1.85,13.41-9.73,30.41-25.6,39.03" transform="matrix(1,0,0,1,396,-4)" class="stroke_order_diagram--current_path"></path><path id="pathSk2v596cn6ox" kvg:type="㇒" d="M56.77,49.2c0.73,1.3,0.8,2.71,0.58,4.26c-1.85,13.41-9.73,30.41-25.6,39.03" transform="matrix(1,0,0,1,396,-4)" class="stroke_order_diagram--current_path"></path><circle cx="56.77" cy="49.2" r="8" class="stroke_order_diagram--path_start" transform="matrix(1,0,0,1,396,-4)"></circle><line x1="550" x2="550" y1="1" y2="99" class="stroke_order_diagram--guide_line"></line><line x1="599" x2="599" y1="1" y2="99" class="stroke_order_diagram--bounding_box"></line><path id="pathSk2v596cn6p0" kvg:type="㇔" d="M17,26.38c4.41,1.57,9.88,5.25,11.75,8.62" transform="matrix(1,0,0,1,496,-4)" class="stroke_order_diagram--existing_path"></path><path id="pathSk2v596cn6p1" kvg:type="㇀" d="M12.12,85.87c1.15,0.22,2.28-0.25,3.01-1.2c1.15-1.48,8.1-13.15,12.49-20.67" transform="matrix(1,0,0,1,496,-4)" class="stroke_order_diagram--existing_path"></path><path id="pathSk2v596cn6p2" kvg:type="㇒" d="M53.95,16c0.43,0.86,0.6,1.9,0.35,2.81C52,26.88,44.88,40,36.25,48.41" transform="matrix(1,0,0,1,496,-4)" class="stroke_order_diagram--existing_path"></path><path id="pathSk2v596cn6p3" kvg:type="㇖a" d="M47.36,39.52c1.15,0.29,2.56,0.4,4.31,0.25C54.88,39.5,73.99,34.7,79,33.5c6.25-1.5,6,2.5-3.5,11.4" transform="matrix(1,0,0,1,496,-4)" class="stroke_order_diagram--existing_path"></path><path id="pathSk2v596cn6p4" kvg:type="㇒" d="M56.77,49.2c0.73,1.3,0.8,2.71,0.58,4.26c-1.85,13.41-9.73,30.41-25.6,39.03" transform="matrix(1,0,0,1,496,-4)" class="stroke_order_diagram--existing_path"></path><path id="kvg:06b21-s6" kvg:type="㇏" d="M57.42,56.97c5.33,6.16,17.33,19.53,27.25,28.88c2.29,2.16,4.33,3.78,7.83,5.28" transform="matrix(1,0,0,1,496,-4)" class="stroke_order_diagram--current_path"></path><path id="pathSk2v596cn6p6" kvg:type="㇏" d="M57.42,56.97c5.33,6.16,17.33,19.53,27.25,28.88c2.29,2.16,4.33,3.78,7.83,5.28" transform="matrix(1,0,0,1,496,-4)" class="stroke_order_diagram--current_path"></path><circle cx="57.42" cy="56.97" r="8" class="stroke_order_diagram--path_start" transform="matrix(1,0,0,1,496,-4)"></circle></svg>