<svg style="width: 1200px; height: 100px;" viewbox="0 0 1200 100"><style>
.stroke_order_diagram--outer_container {
  width: 100%;
  overflow-x: auto;
  overflow-y: hidden;
}

.stroke_order_diagram--guide_line {
  fill: none;
  stroke: #ddd;
  stroke-width: 3;
  stroke-linecap: square;
  stroke-linejoin: square;
  stroke-dasharray:8, 8;
}

.stroke_order_diagram--bounding_box {
  fill: none;
  stroke: #ddd;
  stroke-width: 4;
  stroke-linecap: square;
  stroke-linejoin: square;
}

.stroke_order_diagram--current_path {
  fill: none;
  stroke: #000;
  stroke-width: 6;
  stroke-linecap: round;
  stroke-linejoin: round;
}

.stroke_order_diagram--existing_path {
  fill: none;
  stroke: #aaa;
  stroke-width: 6;
  stroke-linecap: round;
  stroke-linejoin:round;
}

.stroke_order_diagram--path_start {
  fill: rgba(255, 0, 0, 0.7);
  stroke:none
}</style><desc>Created with Snap</desc><defs></defs><line x1="1" x2="1199" y1="1" y2="1" class="stroke_order_diagram--bounding_box"></line><line x1="1" x2="1" y1="1" y2="99" class="stroke_order_diagram--bounding_box"></line><line x1="1" x2="1199" y1="99" y2="99" class="stroke_order_diagram--bounding_box"></line><line x1="0" x2="1200" y1="50" y2="50" class="stroke_order_diagram--guide_line"></line><line x1="50" x2="50" y1="1" y2="99" class="stroke_order_diagram--guide_line"></line><line x1="99" x2="99" y1="1" y2="99" class="stroke_order_diagram--bounding_box"></line><path id="kvg:06b3a-s1" kvg:type="㇐" d="M12.34,33.34c1.78,0.41,3.76,0.32,5.66,0.07c7.07-0.93,21.96-3.3,30.1-4.2c1.76-0.2,3.52-0.2,5.45,0.05" transform="matrix(1,0,0,1,-4,-4)" class="stroke_order_diagram--current_path"></path><path id="pathSk2v596cn3mz3" kvg:type="㇐" d="M12.34,33.34c1.78,0.41,3.76,0.32,5.66,0.07c7.07-0.93,21.96-3.3,30.1-4.2c1.76-0.2,3.52-0.2,5.45,0.05" transform="matrix(1,0,0,1,-4,-4)" class="stroke_order_diagram--current_path"></path><circle cx="12.34" cy="33.34" r="8" class="stroke_order_diagram--path_start" transform="matrix(1,0,0,1,-4,-4)"></circle><line x1="150" x2="150" y1="1" y2="99" class="stroke_order_diagram--guide_line"></line><line x1="199" x2="199" y1="1" y2="99" class="stroke_order_diagram--bounding_box"></line><path id="pathSk2v596cn3mz6" kvg:type="㇐" d="M12.34,33.34c1.78,0.41,3.76,0.32,5.66,0.07c7.07-0.93,21.96-3.3,30.1-4.2c1.76-0.2,3.52-0.2,5.45,0.05" transform="matrix(1,0,0,1,96,-4)" class="stroke_order_diagram--existing_path"></path><path id="kvg:06b3a-s2" kvg:type="㇑a" d="M22.16,19.28c0.84,0.84,1.13,2.22,1.13,3.61c0,0.97-0.04,40.97-0.04,47.73" transform="matrix(1,0,0,1,96,-4)" class="stroke_order_diagram--current_path"></path><path id="pathSk2v596cn3mz8" kvg:type="㇑a" d="M22.16,19.28c0.84,0.84,1.13,2.22,1.13,3.61c0,0.97-0.04,40.97-0.04,47.73" transform="matrix(1,0,0,1,96,-4)" class="stroke_order_diagram--current_path"></path><circle cx="22.16" cy="19.28" r="8" class="stroke_order_diagram--path_start" transform="matrix(1,0,0,1,96,-4)"></circle><line x1="250" x2="250" y1="1" y2="99" class="stroke_order_diagram--guide_line"></line><line x1="299" x2="299" y1="1" y2="99" class="stroke_order_diagram--bounding_box"></line><path id="pathSk2v596cn3mzb" kvg:type="㇐" d="M12.34,33.34c1.78,0.41,3.76,0.32,5.66,0.07c7.07-0.93,21.96-3.3,30.1-4.2c1.76-0.2,3.52-0.2,5.45,0.05" transform="matrix(1,0,0,1,196,-4)" class="stroke_order_diagram--existing_path"></path><path id="pathSk2v596cn3mzc" kvg:type="㇑a" d="M22.16,19.28c0.84,0.84,1.13,2.22,1.13,3.61c0,0.97-0.04,40.97-0.04,47.73" transform="matrix(1,0,0,1,196,-4)" class="stroke_order_diagram--existing_path"></path><path id="kvg:06b3a-s3" kvg:type="㇑a" d="M40.7,14.25c0.9,0.9,1.38,2.12,1.38,3.61C42.08,24.25,42,60.9,42,68" transform="matrix(1,0,0,1,196,-4)" class="stroke_order_diagram--current_path"></path><path id="pathSk2v596cn3mze" kvg:type="㇑a" d="M40.7,14.25c0.9,0.9,1.38,2.12,1.38,3.61C42.08,24.25,42,60.9,42,68" transform="matrix(1,0,0,1,196,-4)" class="stroke_order_diagram--current_path"></path><circle cx="40.7" cy="14.25" r="8" class="stroke_order_diagram--path_start" transform="matrix(1,0,0,1,196,-4)"></circle><line x1="350" x2="350" y1="1" y2="99" class="stroke_order_diagram--guide_line"></line><line x1="399" x2="399" y1="1" y2="99" class="stroke_order_diagram--bounding_box"></line><path id="pathSk2v596cn3mzh" kvg:type="㇐" d="M12.34,33.34c1.78,0.41,3.76,0.32,5.66,0.07c7.07-0.93,21.96-3.3,30.1-4.2c1.76-0.2,3.52-0.2,5.45,0.05" transform="matrix(1,0,0,1,296,-4)" class="stroke_order_diagram--existing_path"></path><path id="pathSk2v596cn3mzi" kvg:type="㇑a" d="M22.16,19.28c0.84,0.84,1.13,2.22,1.13,3.61c0,0.97-0.04,40.97-0.04,47.73" transform="matrix(1,0,0,1,296,-4)" class="stroke_order_diagram--existing_path"></path><path id="pathSk2v596cn3mzj" kvg:type="㇑a" d="M40.7,14.25c0.9,0.9,1.38,2.12,1.38,3.61C42.08,24.25,42,60.9,42,68" transform="matrix(1,0,0,1,296,-4)" class="stroke_order_diagram--existing_path"></path><path id="kvg:06b3a-s4" kvg:type="㇐a" d="M24.34,45.62c4.29-0.62,13.94-1.89,16.59-2.13" transform="matrix(1,0,0,1,296,-4)" class="stroke_order_diagram--current_path"></path><path id="pathSk2v596cn3mzl" kvg:type="㇐a" d="M24.34,45.62c4.29-0.62,13.94-1.89,16.59-2.13" transform="matrix(1,0,0,1,296,-4)" class="stroke_order_diagram--current_path"></path><circle cx="24.34" cy="45.62" r="8" class="stroke_order_diagram--path_start" transform="matrix(1,0,0,1,296,-4)"></circle><line x1="450" x2="450" y1="1" y2="99" class="stroke_order_diagram--guide_line"></line><line x1="499" x2="499" y1="1" y2="99" class="stroke_order_diagram--bounding_box"></line><path id="pathSk2v596cn3mzo" kvg:type="㇐" d="M12.34,33.34c1.78,0.41,3.76,0.32,5.66,0.07c7.07-0.93,21.96-3.3,30.1-4.2c1.76-0.2,3.52-0.2,5.45,0.05" transform="matrix(1,0,0,1,396,-4)" class="stroke_order_diagram--existing_path"></path><path id="pathSk2v596cn3mzp" kvg:type="㇑a" d="M22.16,19.28c0.84,0.84,1.13,2.22,1.13,3.61c0,0.97-0.04,40.97-0.04,47.73" transform="matrix(1,0,0,1,396,-4)" class="stroke_order_diagram--existing_path"></path><path id="pathSk2v596cn3mzq" kvg:type="㇑a" d="M40.7,14.25c0.9,0.9,1.38,2.12,1.38,3.61C42.08,24.25,42,60.9,42,68" transform="matrix(1,0,0,1,396,-4)" class="stroke_order_diagram--existing_path"></path><path id="pathSk2v596cn3mzr" kvg:type="㇐a" d="M24.34,45.62c4.29-0.62,13.94-1.89,16.59-2.13" transform="matrix(1,0,0,1,396,-4)" class="stroke_order_diagram--existing_path"></path><path id="kvg:06b3a-s5" kvg:type="㇐a" d="M24.41,58.02c3.96-0.52,12.88-1.9,16.59-2.38" transform="matrix(1,0,0,1,396,-4)" class="stroke_order_diagram--current_path"></path><path id="pathSk2v596cn3mzt" kvg:type="㇐a" d="M24.41,58.02c3.96-0.52,12.88-1.9,16.59-2.38" transform="matrix(1,0,0,1,396,-4)" class="stroke_order_diagram--current_path"></path><circle cx="24.41" cy="58.02" r="8" class="stroke_order_diagram--path_start" transform="matrix(1,0,0,1,396,-4)"></circle><line x1="550" x2="550" y1="1" y2="99" class="stroke_order_diagram--guide_line"></line><line x1="599" x2="599" y1="1" y2="99" class="stroke_order_diagram--bounding_box"></line><path id="pathSk2v596cn3mzw" kvg:type="㇐" d="M12.34,33.34c1.78,0.41,3.76,0.32,5.66,0.07c7.07-0.93,21.96-3.3,30.1-4.2c1.76-0.2,3.52-0.2,5.45,0.05" transform="matrix(1,0,0,1,496,-4)" class="stroke_order_diagram--existing_path"></path><path id="pathSk2v596cn3mzx" kvg:type="㇑a" d="M22.16,19.28c0.84,0.84,1.13,2.22,1.13,3.61c0,0.97-0.04,40.97-0.04,47.73" transform="matrix(1,0,0,1,496,-4)" class="stroke_order_diagram--existing_path"></path><path id="pathSk2v596cn3mzy" kvg:type="㇑a" d="M40.7,14.25c0.9,0.9,1.38,2.12,1.38,3.61C42.08,24.25,42,60.9,42,68" transform="matrix(1,0,0,1,496,-4)" class="stroke_order_diagram--existing_path"></path><path id="pathSk2v596cn3mzz" kvg:type="㇐a" d="M24.34,45.62c4.29-0.62,13.94-1.89,16.59-2.13" transform="matrix(1,0,0,1,496,-4)" class="stroke_order_diagram--existing_path"></path><path id="pathSk2v596cn3n00" kvg:type="㇐a" d="M24.41,58.02c3.96-0.52,12.88-1.9,16.59-2.38" transform="matrix(1,0,0,1,496,-4)" class="stroke_order_diagram--existing_path"></path><path id="kvg:06b3a-s6" kvg:type="㇐" d="M9.38,73.43c2.34,0.12,4.59,0.03,6.89-0.36c8.97-1.52,23.04-3.64,32.6-4.69c1.94-0.21,4.51-0.4,6.39,0.19" transform="matrix(1,0,0,1,496,-4)" class="stroke_order_diagram--current_path"></path><path id="pathSk2v596cn3n02" kvg:type="㇐" d="M9.38,73.43c2.34,0.12,4.59,0.03,6.89-0.36c8.97-1.52,23.04-3.64,32.6-4.69c1.94-0.21,4.51-0.4,6.39,0.19" transform="matrix(1,0,0,1,496,-4)" class="stroke_order_diagram--current_path"></path><circle cx="9.38" cy="73.43" r="8" class="stroke_order_diagram--path_start" transform="matrix(1,0,0,1,496,-4)"></circle><line x1="650" x2="650" y1="1" y2="99" class="stroke_order_diagram--guide_line"></line><line x1="699" x2="699" y1="1" y2="99" class="stroke_order_diagram--bounding_box"></line><path id="pathSk2v596cn3n05" kvg:type="㇐" d="M12.34,33.34c1.78,0.41,3.76,0.32,5.66,0.07c7.07-0.93,21.96-3.3,30.1-4.2c1.76-0.2,3.52-0.2,5.45,0.05" transform="matrix(1,0,0,1,596,-4)" class="stroke_order_diagram--existing_path"></path><path id="pathSk2v596cn3n06" kvg:type="㇑a" d="M22.16,19.28c0.84,0.84,1.13,2.22,1.13,3.61c0,0.97-0.04,40.97-0.04,47.73" transform="matrix(1,0,0,1,596,-4)" class="stroke_order_diagram--existing_path"></path><path id="pathSk2v596cn3n07" kvg:type="㇑a" d="M40.7,14.25c0.9,0.9,1.38,2.12,1.38,3.61C42.08,24.25,42,60.9,42,68" transform="matrix(1,0,0,1,596,-4)" class="stroke_order_diagram--existing_path"></path><path id="pathSk2v596cn3n08" kvg:type="㇐a" d="M24.34,45.62c4.29-0.62,13.94-1.89,16.59-2.13" transform="matrix(1,0,0,1,596,-4)" class="stroke_order_diagram--existing_path"></path><path id="pathSk2v596cn3n09" kvg:type="㇐a" d="M24.41,58.02c3.96-0.52,12.88-1.9,16.59-2.38" transform="matrix(1,0,0,1,596,-4)" class="stroke_order_diagram--existing_path"></path><path id="pathSk2v596cn3n0a" kvg:type="㇐" d="M9.38,73.43c2.34,0.12,4.59,0.03,6.89-0.36c8.97-1.52,23.04-3.64,32.6-4.69c1.94-0.21,4.51-0.4,6.39,0.19" transform="matrix(1,0,0,1,596,-4)" class="stroke_order_diagram--existing_path"></path><path id="kvg:06b3a-s7" kvg:type="㇒" d="M25.48,79.21c0.11,0.97-0.08,1.88-0.55,2.74c-1.55,3.33-5.91,8.54-12.18,13.05" transform="matrix(1,0,0,1,596,-4)" class="stroke_order_diagram--current_path"></path><path id="pathSk2v596cn3n0c" kvg:type="㇒" d="M25.48,79.21c0.11,0.97-0.08,1.88-0.55,2.74c-1.55,3.33-5.91,8.54-12.18,13.05" transform="matrix(1,0,0,1,596,-4)" class="stroke_order_diagram--current_path"></path><circle cx="25.48" cy="79.21" r="8" class="stroke_order_diagram--path_start" transform="matrix(1,0,0,1,596,-4)"></circle><line x1="750" x2="750" y1="1" y2="99" class="stroke_order_diagram--guide_line"></line><line x1="799" x2="799" y1="1" y2="99" class="stroke_order_diagram--bounding_box"></line><path id="pathSk2v596cn3n0f" kvg:type="㇐" d="M12.34,33.34c1.78,0.41,3.76,0.32,5.66,0.07c7.07-0.93,21.96-3.3,30.1-4.2c1.76-0.2,3.52-0.2,5.45,0.05" transform="matrix(1,0,0,1,696,-4)" class="stroke_order_diagram--existing_path"></path><path id="pathSk2v596cn3n0g" kvg:type="㇑a" d="M22.16,19.28c0.84,0.84,1.13,2.22,1.13,3.61c0,0.97-0.04,40.97-0.04,47.73" transform="matrix(1,0,0,1,696,-4)" class="stroke_order_diagram--existing_path"></path><path id="pathSk2v596cn3n0h" kvg:type="㇑a" d="M40.7,14.25c0.9,0.9,1.38,2.12,1.38,3.61C42.08,24.25,42,60.9,42,68" transform="matrix(1,0,0,1,696,-4)" class="stroke_order_diagram--existing_path"></path><path id="pathSk2v596cn3n0i" kvg:type="㇐a" d="M24.34,45.62c4.29-0.62,13.94-1.89,16.59-2.13" transform="matrix(1,0,0,1,696,-4)" class="stroke_order_diagram--existing_path"></path><path id="pathSk2v596cn3n0j" kvg:type="㇐a" d="M24.41,58.02c3.96-0.52,12.88-1.9,16.59-2.38" transform="matrix(1,0,0,1,696,-4)" class="stroke_order_diagram--existing_path"></path><path id="pathSk2v596cn3n0k" kvg:type="㇐" d="M9.38,73.43c2.34,0.12,4.59,0.03,6.89-0.36c8.97-1.52,23.04-3.64,32.6-4.69c1.94-0.21,4.51-0.4,6.39,0.19" transform="matrix(1,0,0,1,696,-4)" class="stroke_order_diagram--existing_path"></path><path id="pathSk2v596cn3n0l" kvg:type="㇒" d="M25.48,79.21c0.11,0.97-0.08,1.88-0.55,2.74c-1.55,3.33-5.91,8.54-12.18,13.05" transform="matrix(1,0,0,1,696,-4)" class="stroke_order_diagram--existing_path"></path><path id="kvg:06b3a-s8" kvg:type="㇔/㇏" d="M38.75,77.38c3.09,2.01,7.98,8.25,8.75,11.38" transform="matrix(1,0,0,1,696,-4)" class="stroke_order_diagram--current_path"></path><path id="pathSk2v596cn3n0n" kvg:type="㇔/㇏" d="M38.75,77.38c3.09,2.01,7.98,8.25,8.75,11.38" transform="matrix(1,0,0,1,696,-4)" class="stroke_order_diagram--current_path"></path><circle cx="38.75" cy="77.38" r="8" class="stroke_order_diagram--path_start" transform="matrix(1,0,0,1,696,-4)"></circle><line x1="850" x2="850" y1="1" y2="99" class="stroke_order_diagram--guide_line"></line><line x1="899" x2="899" y1="1" y2="99" class="stroke_order_diagram--bounding_box"></line><path id="pathSk2v596cn3n0q" kvg:type="㇐" d="M12.34,33.34c1.78,0.41,3.76,0.32,5.66,0.07c7.07-0.93,21.96-3.3,30.1-4.2c1.76-0.2,3.52-0.2,5.45,0.05" transform="matrix(1,0,0,1,796,-4)" class="stroke_order_diagram--existing_path"></path><path id="pathSk2v596cn3n0r" kvg:type="㇑a" d="M22.16,19.28c0.84,0.84,1.13,2.22,1.13,3.61c0,0.97-0.04,40.97-0.04,47.73" transform="matrix(1,0,0,1,796,-4)" class="stroke_order_diagram--existing_path"></path><path id="pathSk2v596cn3n0s" kvg:type="㇑a" d="M40.7,14.25c0.9,0.9,1.38,2.12,1.38,3.61C42.08,24.25,42,60.9,42,68" transform="matrix(1,0,0,1,796,-4)" class="stroke_order_diagram--existing_path"></path><path id="pathSk2v596cn3n0t" kvg:type="㇐a" d="M24.34,45.62c4.29-0.62,13.94-1.89,16.59-2.13" transform="matrix(1,0,0,1,796,-4)" class="stroke_order_diagram--existing_path"></path><path id="pathSk2v596cn3n0u" kvg:type="㇐a" d="M24.41,58.02c3.96-0.52,12.88-1.9,16.59-2.38" transform="matrix(1,0,0,1,796,-4)" class="stroke_order_diagram--existing_path"></path><path id="pathSk2v596cn3n0v" kvg:type="㇐" d="M9.38,73.43c2.34,0.12,4.59,0.03,6.89-0.36c8.97-1.52,23.04-3.64,32.6-4.69c1.94-0.21,4.51-0.4,6.39,0.19" transform="matrix(1,0,0,1,796,-4)" class="stroke_order_diagram--existing_path"></path><path id="pathSk2v596cn3n0w" kvg:type="㇒" d="M25.48,79.21c0.11,0.97-0.08,1.88-0.55,2.74c-1.55,3.33-5.91,8.54-12.18,13.05" transform="matrix(1,0,0,1,796,-4)" class="stroke_order_diagram--existing_path"></path><path id="pathSk2v596cn3n0x" kvg:type="㇔/㇏" d="M38.75,77.38c3.09,2.01,7.98,8.25,8.75,11.38" transform="matrix(1,0,0,1,796,-4)" class="stroke_order_diagram--existing_path"></path><path id="kvg:06b3a-s9" kvg:type="㇒" d="M66.68,16.75c0.04,0.83,0.04,2.18-0.33,3.31C63.62,28.38,59.62,40.88,52,51.75" transform="matrix(1,0,0,1,796,-4)" class="stroke_order_diagram--current_path"></path><path id="pathSk2v596cn3n0z" kvg:type="㇒" d="M66.68,16.75c0.04,0.83,0.04,2.18-0.33,3.31C63.62,28.38,59.62,40.88,52,51.75" transform="matrix(1,0,0,1,796,-4)" class="stroke_order_diagram--current_path"></path><circle cx="66.68" cy="16.75" r="8" class="stroke_order_diagram--path_start" transform="matrix(1,0,0,1,796,-4)"></circle><line x1="950" x2="950" y1="1" y2="99" class="stroke_order_diagram--guide_line"></line><line x1="999" x2="999" y1="1" y2="99" class="stroke_order_diagram--bounding_box"></line><path id="pathSk2v596cn3n12" kvg:type="㇐" d="M12.34,33.34c1.78,0.41,3.76,0.32,5.66,0.07c7.07-0.93,21.96-3.3,30.1-4.2c1.76-0.2,3.52-0.2,5.45,0.05" transform="matrix(1,0,0,1,896,-4)" class="stroke_order_diagram--existing_path"></path><path id="pathSk2v596cn3n13" kvg:type="㇑a" d="M22.16,19.28c0.84,0.84,1.13,2.22,1.13,3.61c0,0.97-0.04,40.97-0.04,47.73" transform="matrix(1,0,0,1,896,-4)" class="stroke_order_diagram--existing_path"></path><path id="pathSk2v596cn3n14" kvg:type="㇑a" d="M40.7,14.25c0.9,0.9,1.38,2.12,1.38,3.61C42.08,24.25,42,60.9,42,68" transform="matrix(1,0,0,1,896,-4)" class="stroke_order_diagram--existing_path"></path><path id="pathSk2v596cn3n15" kvg:type="㇐a" d="M24.34,45.62c4.29-0.62,13.94-1.89,16.59-2.13" transform="matrix(1,0,0,1,896,-4)" class="stroke_order_diagram--existing_path"></path><path id="pathSk2v596cn3n16" kvg:type="㇐a" d="M24.41,58.02c3.96-0.52,12.88-1.9,16.59-2.38" transform="matrix(1,0,0,1,896,-4)" class="stroke_order_diagram--existing_path"></path><path id="pathSk2v596cn3n17" kvg:type="㇐" d="M9.38,73.43c2.34,0.12,4.59,0.03,6.89-0.36c8.97-1.52,23.04-3.64,32.6-4.69c1.94-0.21,4.51-0.4,6.39,0.19" transform="matrix(1,0,0,1,896,-4)" class="stroke_order_diagram--existing_path"></path><path id="pathSk2v596cn3n18" kvg:type="㇒" d="M25.48,79.21c0.11,0.97-0.08,1.88-0.55,2.74c-1.55,3.33-5.91,8.54-12.18,13.05" transform="matrix(1,0,0,1,896,-4)" class="stroke_order_diagram--existing_path"></path><path id="pathSk2v596cn3n19" kvg:type="㇔/㇏" d="M38.75,77.38c3.09,2.01,7.98,8.25,8.75,11.38" transform="matrix(1,0,0,1,896,-4)" class="stroke_order_diagram--existing_path"></path><path id="pathSk2v596cn3n1a" kvg:type="㇒" d="M66.68,16.75c0.04,0.83,0.04,2.18-0.33,3.31C63.62,28.38,59.62,40.88,52,51.75" transform="matrix(1,0,0,1,896,-4)" class="stroke_order_diagram--existing_path"></path><path id="kvg:06b3a-s10" kvg:type="㇖a" d="M62.35,39.49c1.9,0.39,3.55,0.25,5.18-0.09c4.16-0.87,16.12-4,17.49-4.34c6.35-1.56,5.48,1.69-1.27,10.19" transform="matrix(1,0,0,1,896,-4)" class="stroke_order_diagram--current_path"></path><path id="pathSk2v596cn3n1c" kvg:type="㇖a" d="M62.35,39.49c1.9,0.39,3.55,0.25,5.18-0.09c4.16-0.87,16.12-4,17.49-4.34c6.35-1.56,5.48,1.69-1.27,10.19" transform="matrix(1,0,0,1,896,-4)" class="stroke_order_diagram--current_path"></path><circle cx="62.35" cy="39.49" r="8" class="stroke_order_diagram--path_start" transform="matrix(1,0,0,1,896,-4)"></circle><line x1="1050" x2="1050" y1="1" y2="99" class="stroke_order_diagram--guide_line"></line><line x1="1099" x2="1099" y1="1" y2="99" class="stroke_order_diagram--bounding_box"></line><path id="pathSk2v596cn3n1f" kvg:type="㇐" d="M12.34,33.34c1.78,0.41,3.76,0.32,5.66,0.07c7.07-0.93,21.96-3.3,30.1-4.2c1.76-0.2,3.52-0.2,5.45,0.05" transform="matrix(1,0,0,1,996,-4)" class="stroke_order_diagram--existing_path"></path><path id="pathSk2v596cn3n1g" kvg:type="㇑a" d="M22.16,19.28c0.84,0.84,1.13,2.22,1.13,3.61c0,0.97-0.04,40.97-0.04,47.73" transform="matrix(1,0,0,1,996,-4)" class="stroke_order_diagram--existing_path"></path><path id="pathSk2v596cn3n1h" kvg:type="㇑a" d="M40.7,14.25c0.9,0.9,1.38,2.12,1.38,3.61C42.08,24.25,42,60.9,42,68" transform="matrix(1,0,0,1,996,-4)" class="stroke_order_diagram--existing_path"></path><path id="pathSk2v596cn3n1i" kvg:type="㇐a" d="M24.34,45.62c4.29-0.62,13.94-1.89,16.59-2.13" transform="matrix(1,0,0,1,996,-4)" class="stroke_order_diagram--existing_path"></path><path id="pathSk2v596cn3n1j" kvg:type="㇐a" d="M24.41,58.02c3.96-0.52,12.88-1.9,16.59-2.38" transform="matrix(1,0,0,1,996,-4)" class="stroke_order_diagram--existing_path"></path><path id="pathSk2v596cn3n1k" kvg:type="㇐" d="M9.38,73.43c2.34,0.12,4.59,0.03,6.89-0.36c8.97-1.52,23.04-3.64,32.6-4.69c1.94-0.21,4.51-0.4,6.39,0.19" transform="matrix(1,0,0,1,996,-4)" class="stroke_order_diagram--existing_path"></path><path id="pathSk2v596cn3n1l" kvg:type="㇒" d="M25.48,79.21c0.11,0.97-0.08,1.88-0.55,2.74c-1.55,3.33-5.91,8.54-12.18,13.05" transform="matrix(1,0,0,1,996,-4)" class="stroke_order_diagram--existing_path"></path><path id="pathSk2v596cn3n1m" kvg:type="㇔/㇏" d="M38.75,77.38c3.09,2.01,7.98,8.25,8.75,11.38" transform="matrix(1,0,0,1,996,-4)" class="stroke_order_diagram--existing_path"></path><path id="pathSk2v596cn3n1n" kvg:type="㇒" d="M66.68,16.75c0.04,0.83,0.04,2.18-0.33,3.31C63.62,28.38,59.62,40.88,52,51.75" transform="matrix(1,0,0,1,996,-4)" class="stroke_order_diagram--existing_path"></path><path id="pathSk2v596cn3n1o" kvg:type="㇖a" d="M62.35,39.49c1.9,0.39,3.55,0.25,5.18-0.09c4.16-0.87,16.12-4,17.49-4.34c6.35-1.56,5.48,1.69-1.27,10.19" transform="matrix(1,0,0,1,996,-4)" class="stroke_order_diagram--existing_path"></path><path id="kvg:06b3a-s11" kvg:type="㇒" d="M67.71,48c0.79,1.38,0.9,3.14,0.63,4.77c-1.72,10.61-7.09,31.73-21.09,42.98" transform="matrix(1,0,0,1,996,-4)" class="stroke_order_diagram--current_path"></path><path id="pathSk2v596cn3n1q" kvg:type="㇒" d="M67.71,48c0.79,1.38,0.9,3.14,0.63,4.77c-1.72,10.61-7.09,31.73-21.09,42.98" transform="matrix(1,0,0,1,996,-4)" class="stroke_order_diagram--current_path"></path><circle cx="67.71" cy="48" r="8" class="stroke_order_diagram--path_start" transform="matrix(1,0,0,1,996,-4)"></circle><line x1="1150" x2="1150" y1="1" y2="99" class="stroke_order_diagram--guide_line"></line><line x1="1199" x2="1199" y1="1" y2="99" class="stroke_order_diagram--bounding_box"></line><path id="pathSk2v596cn3n1t" kvg:type="㇐" d="M12.34,33.34c1.78,0.41,3.76,0.32,5.66,0.07c7.07-0.93,21.96-3.3,30.1-4.2c1.76-0.2,3.52-0.2,5.45,0.05" transform="matrix(1,0,0,1,1096,-4)" class="stroke_order_diagram--existing_path"></path><path id="pathSk2v596cn3n1u" kvg:type="㇑a" d="M22.16,19.28c0.84,0.84,1.13,2.22,1.13,3.61c0,0.97-0.04,40.97-0.04,47.73" transform="matrix(1,0,0,1,1096,-4)" class="stroke_order_diagram--existing_path"></path><path id="pathSk2v596cn3n1v" kvg:type="㇑a" d="M40.7,14.25c0.9,0.9,1.38,2.12,1.38,3.61C42.08,24.25,42,60.9,42,68" transform="matrix(1,0,0,1,1096,-4)" class="stroke_order_diagram--existing_path"></path><path id="pathSk2v596cn3n1w" kvg:type="㇐a" d="M24.34,45.62c4.29-0.62,13.94-1.89,16.59-2.13" transform="matrix(1,0,0,1,1096,-4)" class="stroke_order_diagram--existing_path"></path><path id="pathSk2v596cn3n1x" kvg:type="㇐a" d="M24.41,58.02c3.96-0.52,12.88-1.9,16.59-2.38" transform="matrix(1,0,0,1,1096,-4)" class="stroke_order_diagram--existing_path"></path><path id="pathSk2v596cn3n1y" kvg:type="㇐" d="M9.38,73.43c2.34,0.12,4.59,0.03,6.89-0.36c8.97-1.52,23.04-3.64,32.6-4.69c1.94-0.21,4.51-0.4,6.39,0.19" transform="matrix(1,0,0,1,1096,-4)" class="stroke_order_diagram--existing_path"></path><path id="pathSk2v596cn3n1z" kvg:type="㇒" d="M25.48,79.21c0.11,0.97-0.08,1.88-0.55,2.74c-1.55,3.33-5.91,8.54-12.18,13.05" transform="matrix(1,0,0,1,1096,-4)" class="stroke_order_diagram--existing_path"></path><path id="pathSk2v596cn3n20" kvg:type="㇔/㇏" d="M38.75,77.38c3.09,2.01,7.98,8.25,8.75,11.38" transform="matrix(1,0,0,1,1096,-4)" class="stroke_order_diagram--existing_path"></path><path id="pathSk2v596cn3n21" kvg:type="㇒" d="M66.68,16.75c0.04,0.83,0.04,2.18-0.33,3.31C63.62,28.38,59.62,40.88,52,51.75" transform="matrix(1,0,0,1,1096,-4)" class="stroke_order_diagram--existing_path"></path><path id="pathSk2v596cn3n22" kvg:type="㇖a" d="M62.35,39.49c1.9,0.39,3.55,0.25,5.18-0.09c4.16-0.87,16.12-4,17.49-4.34c6.35-1.56,5.48,1.69-1.27,10.19" transform="matrix(1,0,0,1,1096,-4)" class="stroke_order_diagram--existing_path"></path><path id="pathSk2v596cn3n23" kvg:type="㇒" d="M67.71,48c0.79,1.38,0.9,3.14,0.63,4.77c-1.72,10.61-7.09,31.73-21.09,42.98" transform="matrix(1,0,0,1,1096,-4)" class="stroke_order_diagram--existing_path"></path><path id="kvg:06b3a-s12" kvg:type="㇏" d="M67,61.5c3.75,5.38,12.62,17.12,20.24,25.89c2.15,2.47,4.89,4.98,8.01,7.11" transform="matrix(1,0,0,1,1096,-4)" class="stroke_order_diagram--current_path"></path><path id="pathSk2v596cn3n25" kvg:type="㇏" d="M67,61.5c3.75,5.38,12.62,17.12,20.24,25.89c2.15,2.47,4.89,4.98,8.01,7.11" transform="matrix(1,0,0,1,1096,-4)" class="stroke_order_diagram--current_path"></path><circle cx="67" cy="61.5" r="8" class="stroke_order_diagram--path_start" transform="matrix(1,0,0,1,1096,-4)"></circle></svg>