<svg style="width: 600px; height: 100px;" viewbox="0 0 600 100"><style>
.stroke_order_diagram--outer_container {
  width: 100%;
  overflow-x: auto;
  overflow-y: hidden;
}

.stroke_order_diagram--guide_line {
  fill: none;
  stroke: #ddd;
  stroke-width: 3;
  stroke-linecap: square;
  stroke-linejoin: square;
  stroke-dasharray:8, 8;
}

.stroke_order_diagram--bounding_box {
  fill: none;
  stroke: #ddd;
  stroke-width: 4;
  stroke-linecap: square;
  stroke-linejoin: square;
}

.stroke_order_diagram--current_path {
  fill: none;
  stroke: #000;
  stroke-width: 6;
  stroke-linecap: round;
  stroke-linejoin: round;
}

.stroke_order_diagram--existing_path {
  fill: none;
  stroke: #aaa;
  stroke-width: 6;
  stroke-linecap: round;
  stroke-linejoin:round;
}

.stroke_order_diagram--path_start {
  fill: rgba(255, 0, 0, 0.7);
  stroke:none
}</style><desc>Created with Snap</desc><defs></defs><line x1="1" x2="599" y1="1" y2="1" class="stroke_order_diagram--bounding_box"></line><line x1="1" x2="1" y1="1" y2="99" class="stroke_order_diagram--bounding_box"></line><line x1="1" x2="599" y1="99" y2="99" class="stroke_order_diagram--bounding_box"></line><line x1="0" x2="600" y1="50" y2="50" class="stroke_order_diagram--guide_line"></line><line x1="50" x2="50" y1="1" y2="99" class="stroke_order_diagram--guide_line"></line><line x1="99" x2="99" y1="1" y2="99" class="stroke_order_diagram--bounding_box"></line><path id="kvg:06c5f-s1" kvg:type="㇔" d="M21.76,19.88c4.94,1.71,12.75,7.05,13.99,9.72" transform="matrix(1,0,0,1,-4,-4)" class="stroke_order_diagram--current_path"></path><path id="pathSk2v596cn201k" kvg:type="㇔" d="M21.76,19.88c4.94,1.71,12.75,7.05,13.99,9.72" transform="matrix(1,0,0,1,-4,-4)" class="stroke_order_diagram--current_path"></path><circle cx="21.76" cy="19.88" r="8" class="stroke_order_diagram--path_start" transform="matrix(1,0,0,1,-4,-4)"></circle><line x1="150" x2="150" y1="1" y2="99" class="stroke_order_diagram--guide_line"></line><line x1="199" x2="199" y1="1" y2="99" class="stroke_order_diagram--bounding_box"></line><path id="pathSk2v596cn201n" kvg:type="㇔" d="M21.76,19.88c4.94,1.71,12.75,7.05,13.99,9.72" transform="matrix(1,0,0,1,96,-4)" class="stroke_order_diagram--existing_path"></path><path id="kvg:06c5f-s2" kvg:type="㇔" d="M15.75,41.75c4.59,1.59,11.85,6.53,13,9" transform="matrix(1,0,0,1,96,-4)" class="stroke_order_diagram--current_path"></path><path id="pathSk2v596cn201p" kvg:type="㇔" d="M15.75,41.75c4.59,1.59,11.85,6.53,13,9" transform="matrix(1,0,0,1,96,-4)" class="stroke_order_diagram--current_path"></path><circle cx="15.75" cy="41.75" r="8" class="stroke_order_diagram--path_start" transform="matrix(1,0,0,1,96,-4)"></circle><line x1="250" x2="250" y1="1" y2="99" class="stroke_order_diagram--guide_line"></line><line x1="299" x2="299" y1="1" y2="99" class="stroke_order_diagram--bounding_box"></line><path id="pathSk2v596cn201s" kvg:type="㇔" d="M21.76,19.88c4.94,1.71,12.75,7.05,13.99,9.72" transform="matrix(1,0,0,1,196,-4)" class="stroke_order_diagram--existing_path"></path><path id="pathSk2v596cn201t" kvg:type="㇔" d="M15.75,41.75c4.59,1.59,11.85,6.53,13,9" transform="matrix(1,0,0,1,196,-4)" class="stroke_order_diagram--existing_path"></path><path id="kvg:06c5f-s3" kvg:type="㇀" d="M14.02,88.62c1.39,0.58,2.83,0.38,3.67-0.81C20.71,83.5,27,72.99,29.75,67.5" transform="matrix(1,0,0,1,196,-4)" class="stroke_order_diagram--current_path"></path><path id="pathSk2v596cn201v" kvg:type="㇀" d="M14.02,88.62c1.39,0.58,2.83,0.38,3.67-0.81C20.71,83.5,27,72.99,29.75,67.5" transform="matrix(1,0,0,1,196,-4)" class="stroke_order_diagram--current_path"></path><circle cx="14.02" cy="88.62" r="8" class="stroke_order_diagram--path_start" transform="matrix(1,0,0,1,196,-4)"></circle><line x1="350" x2="350" y1="1" y2="99" class="stroke_order_diagram--guide_line"></line><line x1="399" x2="399" y1="1" y2="99" class="stroke_order_diagram--bounding_box"></line><path id="pathSk2v596cn201y" kvg:type="㇔" d="M21.76,19.88c4.94,1.71,12.75,7.05,13.99,9.72" transform="matrix(1,0,0,1,296,-4)" class="stroke_order_diagram--existing_path"></path><path id="pathSk2v596cn201z" kvg:type="㇔" d="M15.75,41.75c4.59,1.59,11.85,6.53,13,9" transform="matrix(1,0,0,1,296,-4)" class="stroke_order_diagram--existing_path"></path><path id="pathSk2v596cn2020" kvg:type="㇀" d="M14.02,88.62c1.39,0.58,2.83,0.38,3.67-0.81C20.71,83.5,27,72.99,29.75,67.5" transform="matrix(1,0,0,1,296,-4)" class="stroke_order_diagram--existing_path"></path><path id="kvg:06c5f-s4" kvg:type="㇐" d="M44.26,36.06c2.74,0.56,5.66,0.47,7.69,0.18c6.86-0.97,20.58-3.25,27.54-4c1.9-0.21,4.38-0.12,6.14,0.21" transform="matrix(1,0,0,1,296,-4)" class="stroke_order_diagram--current_path"></path><path id="pathSk2v596cn2022" kvg:type="㇐" d="M44.26,36.06c2.74,0.56,5.66,0.47,7.69,0.18c6.86-0.97,20.58-3.25,27.54-4c1.9-0.21,4.38-0.12,6.14,0.21" transform="matrix(1,0,0,1,296,-4)" class="stroke_order_diagram--current_path"></path><circle cx="44.26" cy="36.06" r="8" class="stroke_order_diagram--path_start" transform="matrix(1,0,0,1,296,-4)"></circle><line x1="450" x2="450" y1="1" y2="99" class="stroke_order_diagram--guide_line"></line><line x1="499" x2="499" y1="1" y2="99" class="stroke_order_diagram--bounding_box"></line><path id="pathSk2v596cn2025" kvg:type="㇔" d="M21.76,19.88c4.94,1.71,12.75,7.05,13.99,9.72" transform="matrix(1,0,0,1,396,-4)" class="stroke_order_diagram--existing_path"></path><path id="pathSk2v596cn2026" kvg:type="㇔" d="M15.75,41.75c4.59,1.59,11.85,6.53,13,9" transform="matrix(1,0,0,1,396,-4)" class="stroke_order_diagram--existing_path"></path><path id="pathSk2v596cn2027" kvg:type="㇀" d="M14.02,88.62c1.39,0.58,2.83,0.38,3.67-0.81C20.71,83.5,27,72.99,29.75,67.5" transform="matrix(1,0,0,1,396,-4)" class="stroke_order_diagram--existing_path"></path><path id="pathSk2v596cn2028" kvg:type="㇐" d="M44.26,36.06c2.74,0.56,5.66,0.47,7.69,0.18c6.86-0.97,20.58-3.25,27.54-4c1.9-0.21,4.38-0.12,6.14,0.21" transform="matrix(1,0,0,1,396,-4)" class="stroke_order_diagram--existing_path"></path><path id="kvg:06c5f-s5" kvg:type="㇑a" d="M64.1,37.12c1.08,1.08,1.32,2.51,1.32,5.23c0,10.16-0.05,28.59-0.05,37.03" transform="matrix(1,0,0,1,396,-4)" class="stroke_order_diagram--current_path"></path><path id="pathSk2v596cn202a" kvg:type="㇑a" d="M64.1,37.12c1.08,1.08,1.32,2.51,1.32,5.23c0,10.16-0.05,28.59-0.05,37.03" transform="matrix(1,0,0,1,396,-4)" class="stroke_order_diagram--current_path"></path><circle cx="64.1" cy="37.12" r="8" class="stroke_order_diagram--path_start" transform="matrix(1,0,0,1,396,-4)"></circle><line x1="550" x2="550" y1="1" y2="99" class="stroke_order_diagram--guide_line"></line><line x1="599" x2="599" y1="1" y2="99" class="stroke_order_diagram--bounding_box"></line><path id="pathSk2v596cn202d" kvg:type="㇔" d="M21.76,19.88c4.94,1.71,12.75,7.05,13.99,9.72" transform="matrix(1,0,0,1,496,-4)" class="stroke_order_diagram--existing_path"></path><path id="pathSk2v596cn202e" kvg:type="㇔" d="M15.75,41.75c4.59,1.59,11.85,6.53,13,9" transform="matrix(1,0,0,1,496,-4)" class="stroke_order_diagram--existing_path"></path><path id="pathSk2v596cn202f" kvg:type="㇀" d="M14.02,88.62c1.39,0.58,2.83,0.38,3.67-0.81C20.71,83.5,27,72.99,29.75,67.5" transform="matrix(1,0,0,1,496,-4)" class="stroke_order_diagram--existing_path"></path><path id="pathSk2v596cn202g" kvg:type="㇐" d="M44.26,36.06c2.74,0.56,5.66,0.47,7.69,0.18c6.86-0.97,20.58-3.25,27.54-4c1.9-0.21,4.38-0.12,6.14,0.21" transform="matrix(1,0,0,1,496,-4)" class="stroke_order_diagram--existing_path"></path><path id="pathSk2v596cn202h" kvg:type="㇑a" d="M64.1,37.12c1.08,1.08,1.32,2.51,1.32,5.23c0,10.16-0.05,28.59-0.05,37.03" transform="matrix(1,0,0,1,496,-4)" class="stroke_order_diagram--existing_path"></path><path id="kvg:06c5f-s6" kvg:type="㇐" d="M34.77,82.59c2.61,1.03,6.42,0.82,9.11,0.46c13.62-1.81,28.24-3.43,42.99-4.45c2.59-0.18,6.16-0.01,8.6,1.1" transform="matrix(1,0,0,1,496,-4)" class="stroke_order_diagram--current_path"></path><path id="pathSk2v596cn202j" kvg:type="㇐" d="M34.77,82.59c2.61,1.03,6.42,0.82,9.11,0.46c13.62-1.81,28.24-3.43,42.99-4.45c2.59-0.18,6.16-0.01,8.6,1.1" transform="matrix(1,0,0,1,496,-4)" class="stroke_order_diagram--current_path"></path><circle cx="34.77" cy="82.59" r="8" class="stroke_order_diagram--path_start" transform="matrix(1,0,0,1,496,-4)"></circle></svg>