<svg style="width: 800px; height: 100px;" viewbox="0 0 800 100"><style>
.stroke_order_diagram--outer_container {
  width: 100%;
  overflow-x: auto;
  overflow-y: hidden;
}

.stroke_order_diagram--guide_line {
  fill: none;
  stroke: #ddd;
  stroke-width: 3;
  stroke-linecap: square;
  stroke-linejoin: square;
  stroke-dasharray:8, 8;
}

.stroke_order_diagram--bounding_box {
  fill: none;
  stroke: #ddd;
  stroke-width: 4;
  stroke-linecap: square;
  stroke-linejoin: square;
}

.stroke_order_diagram--current_path {
  fill: none;
  stroke: #000;
  stroke-width: 6;
  stroke-linecap: round;
  stroke-linejoin: round;
}

.stroke_order_diagram--existing_path {
  fill: none;
  stroke: #aaa;
  stroke-width: 6;
  stroke-linecap: round;
  stroke-linejoin:round;
}

.stroke_order_diagram--path_start {
  fill: rgba(255, 0, 0, 0.7);
  stroke:none
}</style><desc>Created with Snap</desc><defs></defs><line x1="1" x2="799" y1="1" y2="1" class="stroke_order_diagram--bounding_box"></line><line x1="1" x2="1" y1="1" y2="99" class="stroke_order_diagram--bounding_box"></line><line x1="1" x2="799" y1="99" y2="99" class="stroke_order_diagram--bounding_box"></line><line x1="0" x2="800" y1="50" y2="50" class="stroke_order_diagram--guide_line"></line><line x1="50" x2="50" y1="1" y2="99" class="stroke_order_diagram--guide_line"></line><line x1="99" x2="99" y1="1" y2="99" class="stroke_order_diagram--bounding_box"></line><path id="kvg:06cb3-s1" kvg:type="㇔" d="M21.88,17.38c4.04,1.59,9.86,5.99,10.88,8.47" transform="matrix(1,0,0,1,-4,-4)" class="stroke_order_diagram--current_path"></path><path id="pathSk2v596cn1r6j" kvg:type="㇔" d="M21.88,17.38c4.04,1.59,9.86,5.99,10.88,8.47" transform="matrix(1,0,0,1,-4,-4)" class="stroke_order_diagram--current_path"></path><circle cx="21.88" cy="17.38" r="8" class="stroke_order_diagram--path_start" transform="matrix(1,0,0,1,-4,-4)"></circle><line x1="150" x2="150" y1="1" y2="99" class="stroke_order_diagram--guide_line"></line><line x1="199" x2="199" y1="1" y2="99" class="stroke_order_diagram--bounding_box"></line><path id="pathSk2v596cn1r6m" kvg:type="㇔" d="M21.88,17.38c4.04,1.59,9.86,5.99,10.88,8.47" transform="matrix(1,0,0,1,96,-4)" class="stroke_order_diagram--existing_path"></path><path id="kvg:06cb3-s2" kvg:type="㇔" d="M16.62,40c4.1,1.19,10.6,4.9,11.62,6.75" transform="matrix(1,0,0,1,96,-4)" class="stroke_order_diagram--current_path"></path><path id="pathSk2v596cn1r6o" kvg:type="㇔" d="M16.62,40c4.1,1.19,10.6,4.9,11.62,6.75" transform="matrix(1,0,0,1,96,-4)" class="stroke_order_diagram--current_path"></path><circle cx="16.62" cy="40" r="8" class="stroke_order_diagram--path_start" transform="matrix(1,0,0,1,96,-4)"></circle><line x1="250" x2="250" y1="1" y2="99" class="stroke_order_diagram--guide_line"></line><line x1="299" x2="299" y1="1" y2="99" class="stroke_order_diagram--bounding_box"></line><path id="pathSk2v596cn1r6r" kvg:type="㇔" d="M21.88,17.38c4.04,1.59,9.86,5.99,10.88,8.47" transform="matrix(1,0,0,1,196,-4)" class="stroke_order_diagram--existing_path"></path><path id="pathSk2v596cn1r6s" kvg:type="㇔" d="M16.62,40c4.1,1.19,10.6,4.9,11.62,6.75" transform="matrix(1,0,0,1,196,-4)" class="stroke_order_diagram--existing_path"></path><path id="kvg:06cb3-s3" kvg:type="㇀" d="M15.44,85.78c1.31,0.55,2.65,0.3,3.43-0.96c2.97-4.74,5.93-10.53,8.63-16.57" transform="matrix(1,0,0,1,196,-4)" class="stroke_order_diagram--current_path"></path><path id="pathSk2v596cn1r6u" kvg:type="㇀" d="M15.44,85.78c1.31,0.55,2.65,0.3,3.43-0.96c2.97-4.74,5.93-10.53,8.63-16.57" transform="matrix(1,0,0,1,196,-4)" class="stroke_order_diagram--current_path"></path><circle cx="15.44" cy="85.78" r="8" class="stroke_order_diagram--path_start" transform="matrix(1,0,0,1,196,-4)"></circle><line x1="350" x2="350" y1="1" y2="99" class="stroke_order_diagram--guide_line"></line><line x1="399" x2="399" y1="1" y2="99" class="stroke_order_diagram--bounding_box"></line><path id="pathSk2v596cn1r6x" kvg:type="㇔" d="M21.88,17.38c4.04,1.59,9.86,5.99,10.88,8.47" transform="matrix(1,0,0,1,296,-4)" class="stroke_order_diagram--existing_path"></path><path id="pathSk2v596cn1r6y" kvg:type="㇔" d="M16.62,40c4.1,1.19,10.6,4.9,11.62,6.75" transform="matrix(1,0,0,1,296,-4)" class="stroke_order_diagram--existing_path"></path><path id="pathSk2v596cn1r6z" kvg:type="㇀" d="M15.44,85.78c1.31,0.55,2.65,0.3,3.43-0.96c2.97-4.74,5.93-10.53,8.63-16.57" transform="matrix(1,0,0,1,296,-4)" class="stroke_order_diagram--existing_path"></path><path id="kvg:06cb3-s4" kvg:type="㇐" d="M41.22,23.13c2.78,0.62,6.17,0.35,8.78,0.04c9.61-1.15,28.85-3.66,39-4.6c2.6-0.24,4.98-0.43,7.53,0.22" transform="matrix(1,0,0,1,296,-4)" class="stroke_order_diagram--current_path"></path><path id="pathSk2v596cn1r71" kvg:type="㇐" d="M41.22,23.13c2.78,0.62,6.17,0.35,8.78,0.04c9.61-1.15,28.85-3.66,39-4.6c2.6-0.24,4.98-0.43,7.53,0.22" transform="matrix(1,0,0,1,296,-4)" class="stroke_order_diagram--current_path"></path><circle cx="41.22" cy="23.13" r="8" class="stroke_order_diagram--path_start" transform="matrix(1,0,0,1,296,-4)"></circle><line x1="450" x2="450" y1="1" y2="99" class="stroke_order_diagram--guide_line"></line><line x1="499" x2="499" y1="1" y2="99" class="stroke_order_diagram--bounding_box"></line><path id="pathSk2v596cn1r74" kvg:type="㇔" d="M21.88,17.38c4.04,1.59,9.86,5.99,10.88,8.47" transform="matrix(1,0,0,1,396,-4)" class="stroke_order_diagram--existing_path"></path><path id="pathSk2v596cn1r75" kvg:type="㇔" d="M16.62,40c4.1,1.19,10.6,4.9,11.62,6.75" transform="matrix(1,0,0,1,396,-4)" class="stroke_order_diagram--existing_path"></path><path id="pathSk2v596cn1r76" kvg:type="㇀" d="M15.44,85.78c1.31,0.55,2.65,0.3,3.43-0.96c2.97-4.74,5.93-10.53,8.63-16.57" transform="matrix(1,0,0,1,396,-4)" class="stroke_order_diagram--existing_path"></path><path id="pathSk2v596cn1r77" kvg:type="㇐" d="M41.22,23.13c2.78,0.62,6.17,0.35,8.78,0.04c9.61-1.15,28.85-3.66,39-4.6c2.6-0.24,4.98-0.43,7.53,0.22" transform="matrix(1,0,0,1,396,-4)" class="stroke_order_diagram--existing_path"></path><path id="kvg:06cb3-s5" kvg:type="㇑" d="M43.08,43.57c0.8,0.8,1.4,1.87,1.48,2.92c0.8,3.45,1.65,9.58,2.32,14.89c0.23,1.78,0.43,3.46,0.61,4.92" transform="matrix(1,0,0,1,396,-4)" class="stroke_order_diagram--current_path"></path><path id="pathSk2v596cn1r79" kvg:type="㇑" d="M43.08,43.57c0.8,0.8,1.4,1.87,1.48,2.92c0.8,3.45,1.65,9.58,2.32,14.89c0.23,1.78,0.43,3.46,0.61,4.92" transform="matrix(1,0,0,1,396,-4)" class="stroke_order_diagram--current_path"></path><circle cx="43.08" cy="43.57" r="8" class="stroke_order_diagram--path_start" transform="matrix(1,0,0,1,396,-4)"></circle><line x1="550" x2="550" y1="1" y2="99" class="stroke_order_diagram--guide_line"></line><line x1="599" x2="599" y1="1" y2="99" class="stroke_order_diagram--bounding_box"></line><path id="pathSk2v596cn1r7c" kvg:type="㇔" d="M21.88,17.38c4.04,1.59,9.86,5.99,10.88,8.47" transform="matrix(1,0,0,1,496,-4)" class="stroke_order_diagram--existing_path"></path><path id="pathSk2v596cn1r7d" kvg:type="㇔" d="M16.62,40c4.1,1.19,10.6,4.9,11.62,6.75" transform="matrix(1,0,0,1,496,-4)" class="stroke_order_diagram--existing_path"></path><path id="pathSk2v596cn1r7e" kvg:type="㇀" d="M15.44,85.78c1.31,0.55,2.65,0.3,3.43-0.96c2.97-4.74,5.93-10.53,8.63-16.57" transform="matrix(1,0,0,1,496,-4)" class="stroke_order_diagram--existing_path"></path><path id="pathSk2v596cn1r7f" kvg:type="㇐" d="M41.22,23.13c2.78,0.62,6.17,0.35,8.78,0.04c9.61-1.15,28.85-3.66,39-4.6c2.6-0.24,4.98-0.43,7.53,0.22" transform="matrix(1,0,0,1,496,-4)" class="stroke_order_diagram--existing_path"></path><path id="pathSk2v596cn1r7g" kvg:type="㇑" d="M43.08,43.57c0.8,0.8,1.4,1.87,1.48,2.92c0.8,3.45,1.65,9.58,2.32,14.89c0.23,1.78,0.43,3.46,0.61,4.92" transform="matrix(1,0,0,1,496,-4)" class="stroke_order_diagram--existing_path"></path><path id="kvg:06cb3-s6" kvg:type="㇕b" d="M45.4,45.55c6.98-1.34,14.04-2.86,18.23-3.5c2.6-0.4,4.12,1.07,3.78,3.33c-0.6,4.04-1.04,6.74-2.22,13.1" transform="matrix(1,0,0,1,496,-4)" class="stroke_order_diagram--current_path"></path><path id="pathSk2v596cn1r7i" kvg:type="㇕b" d="M45.4,45.55c6.98-1.34,14.04-2.86,18.23-3.5c2.6-0.4,4.12,1.07,3.78,3.33c-0.6,4.04-1.04,6.74-2.22,13.1" transform="matrix(1,0,0,1,496,-4)" class="stroke_order_diagram--current_path"></path><circle cx="45.4" cy="45.55" r="8" class="stroke_order_diagram--path_start" transform="matrix(1,0,0,1,496,-4)"></circle><line x1="650" x2="650" y1="1" y2="99" class="stroke_order_diagram--guide_line"></line><line x1="699" x2="699" y1="1" y2="99" class="stroke_order_diagram--bounding_box"></line><path id="pathSk2v596cn1r7l" kvg:type="㇔" d="M21.88,17.38c4.04,1.59,9.86,5.99,10.88,8.47" transform="matrix(1,0,0,1,596,-4)" class="stroke_order_diagram--existing_path"></path><path id="pathSk2v596cn1r7m" kvg:type="㇔" d="M16.62,40c4.1,1.19,10.6,4.9,11.62,6.75" transform="matrix(1,0,0,1,596,-4)" class="stroke_order_diagram--existing_path"></path><path id="pathSk2v596cn1r7n" kvg:type="㇀" d="M15.44,85.78c1.31,0.55,2.65,0.3,3.43-0.96c2.97-4.74,5.93-10.53,8.63-16.57" transform="matrix(1,0,0,1,596,-4)" class="stroke_order_diagram--existing_path"></path><path id="pathSk2v596cn1r7o" kvg:type="㇐" d="M41.22,23.13c2.78,0.62,6.17,0.35,8.78,0.04c9.61-1.15,28.85-3.66,39-4.6c2.6-0.24,4.98-0.43,7.53,0.22" transform="matrix(1,0,0,1,596,-4)" class="stroke_order_diagram--existing_path"></path><path id="pathSk2v596cn1r7p" kvg:type="㇑" d="M43.08,43.57c0.8,0.8,1.4,1.87,1.48,2.92c0.8,3.45,1.65,9.58,2.32,14.89c0.23,1.78,0.43,3.46,0.61,4.92" transform="matrix(1,0,0,1,596,-4)" class="stroke_order_diagram--existing_path"></path><path id="pathSk2v596cn1r7q" kvg:type="㇕b" d="M45.4,45.55c6.98-1.34,14.04-2.86,18.23-3.5c2.6-0.4,4.12,1.07,3.78,3.33c-0.6,4.04-1.04,6.74-2.22,13.1" transform="matrix(1,0,0,1,596,-4)" class="stroke_order_diagram--existing_path"></path><path id="kvg:06cb3-s7" kvg:type="㇐b" d="M48.39,61.83c3.73-0.44,9.92-1.47,15.49-2.29c1.29-0.19,2.55-0.37,3.74-0.53" transform="matrix(1,0,0,1,596,-4)" class="stroke_order_diagram--current_path"></path><path id="pathSk2v596cn1r7s" kvg:type="㇐b" d="M48.39,61.83c3.73-0.44,9.92-1.47,15.49-2.29c1.29-0.19,2.55-0.37,3.74-0.53" transform="matrix(1,0,0,1,596,-4)" class="stroke_order_diagram--current_path"></path><circle cx="48.39" cy="61.83" r="8" class="stroke_order_diagram--path_start" transform="matrix(1,0,0,1,596,-4)"></circle><line x1="750" x2="750" y1="1" y2="99" class="stroke_order_diagram--guide_line"></line><line x1="799" x2="799" y1="1" y2="99" class="stroke_order_diagram--bounding_box"></line><path id="pathSk2v596cn1r7v" kvg:type="㇔" d="M21.88,17.38c4.04,1.59,9.86,5.99,10.88,8.47" transform="matrix(1,0,0,1,696,-4)" class="stroke_order_diagram--existing_path"></path><path id="pathSk2v596cn1r7w" kvg:type="㇔" d="M16.62,40c4.1,1.19,10.6,4.9,11.62,6.75" transform="matrix(1,0,0,1,696,-4)" class="stroke_order_diagram--existing_path"></path><path id="pathSk2v596cn1r7x" kvg:type="㇀" d="M15.44,85.78c1.31,0.55,2.65,0.3,3.43-0.96c2.97-4.74,5.93-10.53,8.63-16.57" transform="matrix(1,0,0,1,696,-4)" class="stroke_order_diagram--existing_path"></path><path id="pathSk2v596cn1r7y" kvg:type="㇐" d="M41.22,23.13c2.78,0.62,6.17,0.35,8.78,0.04c9.61-1.15,28.85-3.66,39-4.6c2.6-0.24,4.98-0.43,7.53,0.22" transform="matrix(1,0,0,1,696,-4)" class="stroke_order_diagram--existing_path"></path><path id="pathSk2v596cn1r7z" kvg:type="㇑" d="M43.08,43.57c0.8,0.8,1.4,1.87,1.48,2.92c0.8,3.45,1.65,9.58,2.32,14.89c0.23,1.78,0.43,3.46,0.61,4.92" transform="matrix(1,0,0,1,696,-4)" class="stroke_order_diagram--existing_path"></path><path id="pathSk2v596cn1r80" kvg:type="㇕b" d="M45.4,45.55c6.98-1.34,14.04-2.86,18.23-3.5c2.6-0.4,4.12,1.07,3.78,3.33c-0.6,4.04-1.04,6.74-2.22,13.1" transform="matrix(1,0,0,1,696,-4)" class="stroke_order_diagram--existing_path"></path><path id="pathSk2v596cn1r81" kvg:type="㇐b" d="M48.39,61.83c3.73-0.44,9.92-1.47,15.49-2.29c1.29-0.19,2.55-0.37,3.74-0.53" transform="matrix(1,0,0,1,696,-4)" class="stroke_order_diagram--existing_path"></path><path id="kvg:06cb3-s8" kvg:type="㇚" d="M82.66,22.34c1.19,1.19,1.89,2.79,1.89,4.68c0,13.68,0.05,55.82,0.05,60.48c0,9-8.21,0.91-9.39-0.27" transform="matrix(1,0,0,1,696,-4)" class="stroke_order_diagram--current_path"></path><path id="pathSk2v596cn1r83" kvg:type="㇚" d="M82.66,22.34c1.19,1.19,1.89,2.79,1.89,4.68c0,13.68,0.05,55.82,0.05,60.48c0,9-8.21,0.91-9.39-0.27" transform="matrix(1,0,0,1,696,-4)" class="stroke_order_diagram--current_path"></path><circle cx="82.66" cy="22.34" r="8" class="stroke_order_diagram--path_start" transform="matrix(1,0,0,1,696,-4)"></circle></svg>