<svg style="width: 800px; height: 100px;" viewbox="0 0 800 100"><style>
.stroke_order_diagram--outer_container {
  width: 100%;
  overflow-x: auto;
  overflow-y: hidden;
}

.stroke_order_diagram--guide_line {
  fill: none;
  stroke: #ddd;
  stroke-width: 3;
  stroke-linecap: square;
  stroke-linejoin: square;
  stroke-dasharray:8, 8;
}

.stroke_order_diagram--bounding_box {
  fill: none;
  stroke: #ddd;
  stroke-width: 4;
  stroke-linecap: square;
  stroke-linejoin: square;
}

.stroke_order_diagram--current_path {
  fill: none;
  stroke: #000;
  stroke-width: 6;
  stroke-linecap: round;
  stroke-linejoin: round;
}

.stroke_order_diagram--existing_path {
  fill: none;
  stroke: #aaa;
  stroke-width: 6;
  stroke-linecap: round;
  stroke-linejoin:round;
}

.stroke_order_diagram--path_start {
  fill: rgba(255, 0, 0, 0.7);
  stroke:none
}</style><desc>Created with Snap</desc><defs></defs><line x1="1" x2="799" y1="1" y2="1" class="stroke_order_diagram--bounding_box"></line><line x1="1" x2="1" y1="1" y2="99" class="stroke_order_diagram--bounding_box"></line><line x1="1" x2="799" y1="99" y2="99" class="stroke_order_diagram--bounding_box"></line><line x1="0" x2="800" y1="50" y2="50" class="stroke_order_diagram--guide_line"></line><line x1="50" x2="50" y1="1" y2="99" class="stroke_order_diagram--guide_line"></line><line x1="99" x2="99" y1="1" y2="99" class="stroke_order_diagram--bounding_box"></line><path id="kvg:06ce1-s1" kvg:type="㇔" d="M21.62,15.38c4.37,1.49,11.28,6.14,12.38,8.47" transform="matrix(1,0,0,1,-4,-4)" class="stroke_order_diagram--current_path"></path><path id="pathSk2v596cn3i76" kvg:type="㇔" d="M21.62,15.38c4.37,1.49,11.28,6.14,12.38,8.47" transform="matrix(1,0,0,1,-4,-4)" class="stroke_order_diagram--current_path"></path><circle cx="21.62" cy="15.38" r="8" class="stroke_order_diagram--path_start" transform="matrix(1,0,0,1,-4,-4)"></circle><line x1="150" x2="150" y1="1" y2="99" class="stroke_order_diagram--guide_line"></line><line x1="199" x2="199" y1="1" y2="99" class="stroke_order_diagram--bounding_box"></line><path id="pathSk2v596cn3i79" kvg:type="㇔" d="M21.62,15.38c4.37,1.49,11.28,6.14,12.38,8.47" transform="matrix(1,0,0,1,96,-4)" class="stroke_order_diagram--existing_path"></path><path id="kvg:06ce1-s2" kvg:type="㇔" d="M15.75,38.5c4.24,1.63,10.94,6.71,12,9.25" transform="matrix(1,0,0,1,96,-4)" class="stroke_order_diagram--current_path"></path><path id="pathSk2v596cn3i7b" kvg:type="㇔" d="M15.75,38.5c4.24,1.63,10.94,6.71,12,9.25" transform="matrix(1,0,0,1,96,-4)" class="stroke_order_diagram--current_path"></path><circle cx="15.75" cy="38.5" r="8" class="stroke_order_diagram--path_start" transform="matrix(1,0,0,1,96,-4)"></circle><line x1="250" x2="250" y1="1" y2="99" class="stroke_order_diagram--guide_line"></line><line x1="299" x2="299" y1="1" y2="99" class="stroke_order_diagram--bounding_box"></line><path id="pathSk2v596cn3i7e" kvg:type="㇔" d="M21.62,15.38c4.37,1.49,11.28,6.14,12.38,8.47" transform="matrix(1,0,0,1,196,-4)" class="stroke_order_diagram--existing_path"></path><path id="pathSk2v596cn3i7f" kvg:type="㇔" d="M15.75,38.5c4.24,1.63,10.94,6.71,12,9.25" transform="matrix(1,0,0,1,196,-4)" class="stroke_order_diagram--existing_path"></path><path id="kvg:06ce1-s3" kvg:type="㇀" d="M14.5,94.48c1.62,0.52,3.11-0.12,4.11-1.75c3.14-5.11,5.79-9.91,8.64-15.74" transform="matrix(1,0,0,1,196,-4)" class="stroke_order_diagram--current_path"></path><path id="pathSk2v596cn3i7h" kvg:type="㇀" d="M14.5,94.48c1.62,0.52,3.11-0.12,4.11-1.75c3.14-5.11,5.79-9.91,8.64-15.74" transform="matrix(1,0,0,1,196,-4)" class="stroke_order_diagram--current_path"></path><circle cx="14.5" cy="94.48" r="8" class="stroke_order_diagram--path_start" transform="matrix(1,0,0,1,196,-4)"></circle><line x1="350" x2="350" y1="1" y2="99" class="stroke_order_diagram--guide_line"></line><line x1="399" x2="399" y1="1" y2="99" class="stroke_order_diagram--bounding_box"></line><path id="pathSk2v596cn3i7k" kvg:type="㇔" d="M21.62,15.38c4.37,1.49,11.28,6.14,12.38,8.47" transform="matrix(1,0,0,1,296,-4)" class="stroke_order_diagram--existing_path"></path><path id="pathSk2v596cn3i7l" kvg:type="㇔" d="M15.75,38.5c4.24,1.63,10.94,6.71,12,9.25" transform="matrix(1,0,0,1,296,-4)" class="stroke_order_diagram--existing_path"></path><path id="pathSk2v596cn3i7m" kvg:type="㇀" d="M14.5,94.48c1.62,0.52,3.11-0.12,4.11-1.75c3.14-5.11,5.79-9.91,8.64-15.74" transform="matrix(1,0,0,1,296,-4)" class="stroke_order_diagram--existing_path"></path><path id="kvg:06ce1-s4" kvg:type="㇒" d="M57.89,12.75c0.07,1.13,0.09,2.1-0.3,3.18c-2.71,7.44-8.44,19.09-16.11,28.52" transform="matrix(1,0,0,1,296,-4)" class="stroke_order_diagram--current_path"></path><path id="pathSk2v596cn3i7o" kvg:type="㇒" d="M57.89,12.75c0.07,1.13,0.09,2.1-0.3,3.18c-2.71,7.44-8.44,19.09-16.11,28.52" transform="matrix(1,0,0,1,296,-4)" class="stroke_order_diagram--current_path"></path><circle cx="57.89" cy="12.75" r="8" class="stroke_order_diagram--path_start" transform="matrix(1,0,0,1,296,-4)"></circle><line x1="450" x2="450" y1="1" y2="99" class="stroke_order_diagram--guide_line"></line><line x1="499" x2="499" y1="1" y2="99" class="stroke_order_diagram--bounding_box"></line><path id="pathSk2v596cn3i7r" kvg:type="㇔" d="M21.62,15.38c4.37,1.49,11.28,6.14,12.38,8.47" transform="matrix(1,0,0,1,396,-4)" class="stroke_order_diagram--existing_path"></path><path id="pathSk2v596cn3i7s" kvg:type="㇔" d="M15.75,38.5c4.24,1.63,10.94,6.71,12,9.25" transform="matrix(1,0,0,1,396,-4)" class="stroke_order_diagram--existing_path"></path><path id="pathSk2v596cn3i7t" kvg:type="㇀" d="M14.5,94.48c1.62,0.52,3.11-0.12,4.11-1.75c3.14-5.11,5.79-9.91,8.64-15.74" transform="matrix(1,0,0,1,396,-4)" class="stroke_order_diagram--existing_path"></path><path id="pathSk2v596cn3i7u" kvg:type="㇒" d="M57.89,12.75c0.07,1.13,0.09,2.1-0.3,3.18c-2.71,7.44-8.44,19.09-16.11,28.52" transform="matrix(1,0,0,1,396,-4)" class="stroke_order_diagram--existing_path"></path><path id="kvg:06ce1-s5" kvg:type="㇆" d="M54.73,29.23c2.52,0.77,5.24,0.45,7.39,0.13c6.38-0.96,19.9-3.43,25.37-4.21c4-0.57,5.96,0.93,5.72,5.1c-0.52,8.81-2.57,22.56-6.13,35.08c-1.59,5.62-3.33,6.76-7.58,2.24" transform="matrix(1,0,0,1,396,-4)" class="stroke_order_diagram--current_path"></path><path id="pathSk2v596cn3i7w" kvg:type="㇆" d="M54.73,29.23c2.52,0.77,5.24,0.45,7.39,0.13c6.38-0.96,19.9-3.43,25.37-4.21c4-0.57,5.96,0.93,5.72,5.1c-0.52,8.81-2.57,22.56-6.13,35.08c-1.59,5.62-3.33,6.76-7.58,2.24" transform="matrix(1,0,0,1,396,-4)" class="stroke_order_diagram--current_path"></path><circle cx="54.73" cy="29.23" r="8" class="stroke_order_diagram--path_start" transform="matrix(1,0,0,1,396,-4)"></circle><line x1="550" x2="550" y1="1" y2="99" class="stroke_order_diagram--guide_line"></line><line x1="599" x2="599" y1="1" y2="99" class="stroke_order_diagram--bounding_box"></line><path id="pathSk2v596cn3i7z" kvg:type="㇔" d="M21.62,15.38c4.37,1.49,11.28,6.14,12.38,8.47" transform="matrix(1,0,0,1,496,-4)" class="stroke_order_diagram--existing_path"></path><path id="pathSk2v596cn3i80" kvg:type="㇔" d="M15.75,38.5c4.24,1.63,10.94,6.71,12,9.25" transform="matrix(1,0,0,1,496,-4)" class="stroke_order_diagram--existing_path"></path><path id="pathSk2v596cn3i81" kvg:type="㇀" d="M14.5,94.48c1.62,0.52,3.11-0.12,4.11-1.75c3.14-5.11,5.79-9.91,8.64-15.74" transform="matrix(1,0,0,1,496,-4)" class="stroke_order_diagram--existing_path"></path><path id="pathSk2v596cn3i82" kvg:type="㇒" d="M57.89,12.75c0.07,1.13,0.09,2.1-0.3,3.18c-2.71,7.44-8.44,19.09-16.11,28.52" transform="matrix(1,0,0,1,496,-4)" class="stroke_order_diagram--existing_path"></path><path id="pathSk2v596cn3i83" kvg:type="㇆" d="M54.73,29.23c2.52,0.77,5.24,0.45,7.39,0.13c6.38-0.96,19.9-3.43,25.37-4.21c4-0.57,5.96,0.93,5.72,5.1c-0.52,8.81-2.57,22.56-6.13,35.08c-1.59,5.62-3.33,6.76-7.58,2.24" transform="matrix(1,0,0,1,496,-4)" class="stroke_order_diagram--existing_path"></path><path id="kvg:06ce1-s6" kvg:type="㇕c" d="M49.48,46.27c2.3,0.89,3.7,0.77,6.15,0.37c5.13-0.84,14.49-2.31,15.58-2.42c1.62-0.16,2.92,1.05,2.32,3.52c-0.52,2.14-2.02,9.01-3.6,15.5" transform="matrix(1,0,0,1,496,-4)" class="stroke_order_diagram--current_path"></path><path id="pathSk2v596cn3i85" kvg:type="㇕c" d="M49.48,46.27c2.3,0.89,3.7,0.77,6.15,0.37c5.13-0.84,14.49-2.31,15.58-2.42c1.62-0.16,2.92,1.05,2.32,3.52c-0.52,2.14-2.02,9.01-3.6,15.5" transform="matrix(1,0,0,1,496,-4)" class="stroke_order_diagram--current_path"></path><circle cx="49.48" cy="46.27" r="8" class="stroke_order_diagram--path_start" transform="matrix(1,0,0,1,496,-4)"></circle><line x1="650" x2="650" y1="1" y2="99" class="stroke_order_diagram--guide_line"></line><line x1="699" x2="699" y1="1" y2="99" class="stroke_order_diagram--bounding_box"></line><path id="pathSk2v596cn3i88" kvg:type="㇔" d="M21.62,15.38c4.37,1.49,11.28,6.14,12.38,8.47" transform="matrix(1,0,0,1,596,-4)" class="stroke_order_diagram--existing_path"></path><path id="pathSk2v596cn3i89" kvg:type="㇔" d="M15.75,38.5c4.24,1.63,10.94,6.71,12,9.25" transform="matrix(1,0,0,1,596,-4)" class="stroke_order_diagram--existing_path"></path><path id="pathSk2v596cn3i8a" kvg:type="㇀" d="M14.5,94.48c1.62,0.52,3.11-0.12,4.11-1.75c3.14-5.11,5.79-9.91,8.64-15.74" transform="matrix(1,0,0,1,596,-4)" class="stroke_order_diagram--existing_path"></path><path id="pathSk2v596cn3i8b" kvg:type="㇒" d="M57.89,12.75c0.07,1.13,0.09,2.1-0.3,3.18c-2.71,7.44-8.44,19.09-16.11,28.52" transform="matrix(1,0,0,1,596,-4)" class="stroke_order_diagram--existing_path"></path><path id="pathSk2v596cn3i8c" kvg:type="㇆" d="M54.73,29.23c2.52,0.77,5.24,0.45,7.39,0.13c6.38-0.96,19.9-3.43,25.37-4.21c4-0.57,5.96,0.93,5.72,5.1c-0.52,8.81-2.57,22.56-6.13,35.08c-1.59,5.62-3.33,6.76-7.58,2.24" transform="matrix(1,0,0,1,596,-4)" class="stroke_order_diagram--existing_path"></path><path id="pathSk2v596cn3i8d" kvg:type="㇕c" d="M49.48,46.27c2.3,0.89,3.7,0.77,6.15,0.37c5.13-0.84,14.49-2.31,15.58-2.42c1.62-0.16,2.92,1.05,2.32,3.52c-0.52,2.14-2.02,9.01-3.6,15.5" transform="matrix(1,0,0,1,596,-4)" class="stroke_order_diagram--existing_path"></path><path id="kvg:06ce1-s7" kvg:type="㇐" d="M48.08,65.14c0.94,0.24,2.3,0.91,3.92,0.87c5.5-0.13,11.14-0.96,16-1.54c2.06-0.25,3-0.35,4.38-0.05" transform="matrix(1,0,0,1,596,-4)" class="stroke_order_diagram--current_path"></path><path id="pathSk2v596cn3i8f" kvg:type="㇐" d="M48.08,65.14c0.94,0.24,2.3,0.91,3.92,0.87c5.5-0.13,11.14-0.96,16-1.54c2.06-0.25,3-0.35,4.38-0.05" transform="matrix(1,0,0,1,596,-4)" class="stroke_order_diagram--current_path"></path><circle cx="48.08" cy="65.14" r="8" class="stroke_order_diagram--path_start" transform="matrix(1,0,0,1,596,-4)"></circle><line x1="750" x2="750" y1="1" y2="99" class="stroke_order_diagram--guide_line"></line><line x1="799" x2="799" y1="1" y2="99" class="stroke_order_diagram--bounding_box"></line><path id="pathSk2v596cn3i8i" kvg:type="㇔" d="M21.62,15.38c4.37,1.49,11.28,6.14,12.38,8.47" transform="matrix(1,0,0,1,696,-4)" class="stroke_order_diagram--existing_path"></path><path id="pathSk2v596cn3i8j" kvg:type="㇔" d="M15.75,38.5c4.24,1.63,10.94,6.71,12,9.25" transform="matrix(1,0,0,1,696,-4)" class="stroke_order_diagram--existing_path"></path><path id="pathSk2v596cn3i8k" kvg:type="㇀" d="M14.5,94.48c1.62,0.52,3.11-0.12,4.11-1.75c3.14-5.11,5.79-9.91,8.64-15.74" transform="matrix(1,0,0,1,696,-4)" class="stroke_order_diagram--existing_path"></path><path id="pathSk2v596cn3i8l" kvg:type="㇒" d="M57.89,12.75c0.07,1.13,0.09,2.1-0.3,3.18c-2.71,7.44-8.44,19.09-16.11,28.52" transform="matrix(1,0,0,1,696,-4)" class="stroke_order_diagram--existing_path"></path><path id="pathSk2v596cn3i8m" kvg:type="㇆" d="M54.73,29.23c2.52,0.77,5.24,0.45,7.39,0.13c6.38-0.96,19.9-3.43,25.37-4.21c4-0.57,5.96,0.93,5.72,5.1c-0.52,8.81-2.57,22.56-6.13,35.08c-1.59,5.62-3.33,6.76-7.58,2.24" transform="matrix(1,0,0,1,696,-4)" class="stroke_order_diagram--existing_path"></path><path id="pathSk2v596cn3i8n" kvg:type="㇕c" d="M49.48,46.27c2.3,0.89,3.7,0.77,6.15,0.37c5.13-0.84,14.49-2.31,15.58-2.42c1.62-0.16,2.92,1.05,2.32,3.52c-0.52,2.14-2.02,9.01-3.6,15.5" transform="matrix(1,0,0,1,696,-4)" class="stroke_order_diagram--existing_path"></path><path id="pathSk2v596cn3i8o" kvg:type="㇐" d="M48.08,65.14c0.94,0.24,2.3,0.91,3.92,0.87c5.5-0.13,11.14-0.96,16-1.54c2.06-0.25,3-0.35,4.38-0.05" transform="matrix(1,0,0,1,696,-4)" class="stroke_order_diagram--existing_path"></path><path id="kvg:06ce1-s8" kvg:type="㇟" d="M48.99,66.53c0.93,0.93,1.1,1.93,1.09,3.65C50.05,75.69,50,81.7,50,85.5c0,10.45,1.25,11.19,22.82,11.19c20.93,0,22.21-1.81,22.21-13.09" transform="matrix(1,0,0,1,696,-4)" class="stroke_order_diagram--current_path"></path><path id="pathSk2v596cn3i8q" kvg:type="㇟" d="M48.99,66.53c0.93,0.93,1.1,1.93,1.09,3.65C50.05,75.69,50,81.7,50,85.5c0,10.45,1.25,11.19,22.82,11.19c20.93,0,22.21-1.81,22.21-13.09" transform="matrix(1,0,0,1,696,-4)" class="stroke_order_diagram--current_path"></path><circle cx="48.99" cy="66.53" r="8" class="stroke_order_diagram--path_start" transform="matrix(1,0,0,1,696,-4)"></circle></svg>