<svg style="width: 900px; height: 100px;" viewbox="0 0 900 100"><style>
.stroke_order_diagram--outer_container {
  width: 100%;
  overflow-x: auto;
  overflow-y: hidden;
}

.stroke_order_diagram--guide_line {
  fill: none;
  stroke: #ddd;
  stroke-width: 3;
  stroke-linecap: square;
  stroke-linejoin: square;
  stroke-dasharray:8, 8;
}

.stroke_order_diagram--bounding_box {
  fill: none;
  stroke: #ddd;
  stroke-width: 4;
  stroke-linecap: square;
  stroke-linejoin: square;
}

.stroke_order_diagram--current_path {
  fill: none;
  stroke: #000;
  stroke-width: 6;
  stroke-linecap: round;
  stroke-linejoin: round;
}

.stroke_order_diagram--existing_path {
  fill: none;
  stroke: #aaa;
  stroke-width: 6;
  stroke-linecap: round;
  stroke-linejoin:round;
}

.stroke_order_diagram--path_start {
  fill: rgba(255, 0, 0, 0.7);
  stroke:none
}</style><desc>Created with Snap</desc><defs></defs><line x1="1" x2="899" y1="1" y2="1" class="stroke_order_diagram--bounding_box"></line><line x1="1" x2="1" y1="1" y2="99" class="stroke_order_diagram--bounding_box"></line><line x1="1" x2="899" y1="99" y2="99" class="stroke_order_diagram--bounding_box"></line><line x1="0" x2="900" y1="50" y2="50" class="stroke_order_diagram--guide_line"></line><line x1="50" x2="50" y1="1" y2="99" class="stroke_order_diagram--guide_line"></line><line x1="99" x2="99" y1="1" y2="99" class="stroke_order_diagram--bounding_box"></line><path id="kvg:06d0b-s1" kvg:type="㇔" d="M20.47,16.1c4.27,1.65,10.89,6.3,11.84,8.45" transform="matrix(1,0,0,1,-4,-4)" class="stroke_order_diagram--current_path"></path><path id="pathSk2v596cnkbv" kvg:type="㇔" d="M20.47,16.1c4.27,1.65,10.89,6.3,11.84,8.45" transform="matrix(1,0,0,1,-4,-4)" class="stroke_order_diagram--current_path"></path><circle cx="20.47" cy="16.1" r="8" class="stroke_order_diagram--path_start" transform="matrix(1,0,0,1,-4,-4)"></circle><line x1="150" x2="150" y1="1" y2="99" class="stroke_order_diagram--guide_line"></line><line x1="199" x2="199" y1="1" y2="99" class="stroke_order_diagram--bounding_box"></line><path id="pathSk2v596cnkby" kvg:type="㇔" d="M20.47,16.1c4.27,1.65,10.89,6.3,11.84,8.45" transform="matrix(1,0,0,1,96,-4)" class="stroke_order_diagram--existing_path"></path><path id="kvg:06d0b-s2" kvg:type="㇔" d="M14.75,38.62c4.55,1.68,11.64,6.24,12.69,8.29" transform="matrix(1,0,0,1,96,-4)" class="stroke_order_diagram--current_path"></path><path id="pathSk2v596cnkc0" kvg:type="㇔" d="M14.75,38.62c4.55,1.68,11.64,6.24,12.69,8.29" transform="matrix(1,0,0,1,96,-4)" class="stroke_order_diagram--current_path"></path><circle cx="14.75" cy="38.62" r="8" class="stroke_order_diagram--path_start" transform="matrix(1,0,0,1,96,-4)"></circle><line x1="250" x2="250" y1="1" y2="99" class="stroke_order_diagram--guide_line"></line><line x1="299" x2="299" y1="1" y2="99" class="stroke_order_diagram--bounding_box"></line><path id="pathSk2v596cnkc3" kvg:type="㇔" d="M20.47,16.1c4.27,1.65,10.89,6.3,11.84,8.45" transform="matrix(1,0,0,1,196,-4)" class="stroke_order_diagram--existing_path"></path><path id="pathSk2v596cnkc4" kvg:type="㇔" d="M14.75,38.62c4.55,1.68,11.64,6.24,12.69,8.29" transform="matrix(1,0,0,1,196,-4)" class="stroke_order_diagram--existing_path"></path><path id="kvg:06d0b-s3" kvg:type="㇀" d="M12,90.11c1.27,0.32,2.51,0.04,3.35-1c3.92-4.86,11.37-15.58,15.04-21.9" transform="matrix(1,0,0,1,196,-4)" class="stroke_order_diagram--current_path"></path><path id="pathSk2v596cnkc6" kvg:type="㇀" d="M12,90.11c1.27,0.32,2.51,0.04,3.35-1c3.92-4.86,11.37-15.58,15.04-21.9" transform="matrix(1,0,0,1,196,-4)" class="stroke_order_diagram--current_path"></path><circle cx="12" cy="90.11" r="8" class="stroke_order_diagram--path_start" transform="matrix(1,0,0,1,196,-4)"></circle><line x1="350" x2="350" y1="1" y2="99" class="stroke_order_diagram--guide_line"></line><line x1="399" x2="399" y1="1" y2="99" class="stroke_order_diagram--bounding_box"></line><path id="pathSk2v596cnkc9" kvg:type="㇔" d="M20.47,16.1c4.27,1.65,10.89,6.3,11.84,8.45" transform="matrix(1,0,0,1,296,-4)" class="stroke_order_diagram--existing_path"></path><path id="pathSk2v596cnkca" kvg:type="㇔" d="M14.75,38.62c4.55,1.68,11.64,6.24,12.69,8.29" transform="matrix(1,0,0,1,296,-4)" class="stroke_order_diagram--existing_path"></path><path id="pathSk2v596cnkcb" kvg:type="㇀" d="M12,90.11c1.27,0.32,2.51,0.04,3.35-1c3.92-4.86,11.37-15.58,15.04-21.9" transform="matrix(1,0,0,1,296,-4)" class="stroke_order_diagram--existing_path"></path><path id="kvg:06d0b-s4" kvg:type="㇔" d="M47.88,14.25c2.78,1.94,7.19,7.96,7.89,10.97" transform="matrix(1,0,0,1,296,-4)" class="stroke_order_diagram--current_path"></path><path id="pathSk2v596cnkcd" kvg:type="㇔" d="M47.88,14.25c2.78,1.94,7.19,7.96,7.89,10.97" transform="matrix(1,0,0,1,296,-4)" class="stroke_order_diagram--current_path"></path><circle cx="47.88" cy="14.25" r="8" class="stroke_order_diagram--path_start" transform="matrix(1,0,0,1,296,-4)"></circle><line x1="450" x2="450" y1="1" y2="99" class="stroke_order_diagram--guide_line"></line><line x1="499" x2="499" y1="1" y2="99" class="stroke_order_diagram--bounding_box"></line><path id="pathSk2v596cnkcg" kvg:type="㇔" d="M20.47,16.1c4.27,1.65,10.89,6.3,11.84,8.45" transform="matrix(1,0,0,1,396,-4)" class="stroke_order_diagram--existing_path"></path><path id="pathSk2v596cnkch" kvg:type="㇔" d="M14.75,38.62c4.55,1.68,11.64,6.24,12.69,8.29" transform="matrix(1,0,0,1,396,-4)" class="stroke_order_diagram--existing_path"></path><path id="pathSk2v596cnkci" kvg:type="㇀" d="M12,90.11c1.27,0.32,2.51,0.04,3.35-1c3.92-4.86,11.37-15.58,15.04-21.9" transform="matrix(1,0,0,1,396,-4)" class="stroke_order_diagram--existing_path"></path><path id="pathSk2v596cnkcj" kvg:type="㇔" d="M47.88,14.25c2.78,1.94,7.19,7.96,7.89,10.97" transform="matrix(1,0,0,1,396,-4)" class="stroke_order_diagram--existing_path"></path><path id="kvg:06d0b-s5" kvg:type="㇒" d="M83.37,11.75c0.04,0.44,0.17,1.17-0.08,1.78c-1.64,3.97-4.83,8.6-10.59,14.04" transform="matrix(1,0,0,1,396,-4)" class="stroke_order_diagram--current_path"></path><path id="pathSk2v596cnkcl" kvg:type="㇒" d="M83.37,11.75c0.04,0.44,0.17,1.17-0.08,1.78c-1.64,3.97-4.83,8.6-10.59,14.04" transform="matrix(1,0,0,1,396,-4)" class="stroke_order_diagram--current_path"></path><circle cx="83.37" cy="11.75" r="8" class="stroke_order_diagram--path_start" transform="matrix(1,0,0,1,396,-4)"></circle><line x1="550" x2="550" y1="1" y2="99" class="stroke_order_diagram--guide_line"></line><line x1="599" x2="599" y1="1" y2="99" class="stroke_order_diagram--bounding_box"></line><path id="pathSk2v596cnkco" kvg:type="㇔" d="M20.47,16.1c4.27,1.65,10.89,6.3,11.84,8.45" transform="matrix(1,0,0,1,496,-4)" class="stroke_order_diagram--existing_path"></path><path id="pathSk2v596cnkcp" kvg:type="㇔" d="M14.75,38.62c4.55,1.68,11.64,6.24,12.69,8.29" transform="matrix(1,0,0,1,496,-4)" class="stroke_order_diagram--existing_path"></path><path id="pathSk2v596cnkcq" kvg:type="㇀" d="M12,90.11c1.27,0.32,2.51,0.04,3.35-1c3.92-4.86,11.37-15.58,15.04-21.9" transform="matrix(1,0,0,1,496,-4)" class="stroke_order_diagram--existing_path"></path><path id="pathSk2v596cnkcr" kvg:type="㇔" d="M47.88,14.25c2.78,1.94,7.19,7.96,7.89,10.97" transform="matrix(1,0,0,1,496,-4)" class="stroke_order_diagram--existing_path"></path><path id="pathSk2v596cnkcs" kvg:type="㇒" d="M83.37,11.75c0.04,0.44,0.17,1.17-0.08,1.78c-1.64,3.97-4.83,8.6-10.59,14.04" transform="matrix(1,0,0,1,496,-4)" class="stroke_order_diagram--existing_path"></path><path id="kvg:06d0b-s6" kvg:type="㇐" d="M43.07,32.89c2.31,0.49,5.31,0.2,7.39,0.01c8.75-0.8,23.4-2.48,31.83-3.06c2.42-0.17,5.21-0.57,7.57,0.17" transform="matrix(1,0,0,1,496,-4)" class="stroke_order_diagram--current_path"></path><path id="pathSk2v596cnkcu" kvg:type="㇐" d="M43.07,32.89c2.31,0.49,5.31,0.2,7.39,0.01c8.75-0.8,23.4-2.48,31.83-3.06c2.42-0.17,5.21-0.57,7.57,0.17" transform="matrix(1,0,0,1,496,-4)" class="stroke_order_diagram--current_path"></path><circle cx="43.07" cy="32.89" r="8" class="stroke_order_diagram--path_start" transform="matrix(1,0,0,1,496,-4)"></circle><line x1="650" x2="650" y1="1" y2="99" class="stroke_order_diagram--guide_line"></line><line x1="699" x2="699" y1="1" y2="99" class="stroke_order_diagram--bounding_box"></line><path id="pathSk2v596cnkcx" kvg:type="㇔" d="M20.47,16.1c4.27,1.65,10.89,6.3,11.84,8.45" transform="matrix(1,0,0,1,596,-4)" class="stroke_order_diagram--existing_path"></path><path id="pathSk2v596cnkcy" kvg:type="㇔" d="M14.75,38.62c4.55,1.68,11.64,6.24,12.69,8.29" transform="matrix(1,0,0,1,596,-4)" class="stroke_order_diagram--existing_path"></path><path id="pathSk2v596cnkcz" kvg:type="㇀" d="M12,90.11c1.27,0.32,2.51,0.04,3.35-1c3.92-4.86,11.37-15.58,15.04-21.9" transform="matrix(1,0,0,1,596,-4)" class="stroke_order_diagram--existing_path"></path><path id="pathSk2v596cnkd0" kvg:type="㇔" d="M47.88,14.25c2.78,1.94,7.19,7.96,7.89,10.97" transform="matrix(1,0,0,1,596,-4)" class="stroke_order_diagram--existing_path"></path><path id="pathSk2v596cnkd1" kvg:type="㇒" d="M83.37,11.75c0.04,0.44,0.17,1.17-0.08,1.78c-1.64,3.97-4.83,8.6-10.59,14.04" transform="matrix(1,0,0,1,596,-4)" class="stroke_order_diagram--existing_path"></path><path id="pathSk2v596cnkd2" kvg:type="㇐" d="M43.07,32.89c2.31,0.49,5.31,0.2,7.39,0.01c8.75-0.8,23.4-2.48,31.83-3.06c2.42-0.17,5.21-0.57,7.57,0.17" transform="matrix(1,0,0,1,596,-4)" class="stroke_order_diagram--existing_path"></path><path id="kvg:06d0b-s7" kvg:type="㇐" d="M48.28,50.89c2.59,0.49,5.06,0.35,7.1,0.24c7.46-0.44,16.67-1.75,23.87-2.56c2.14-0.24,4.38-0.64,6.52-0.3" transform="matrix(1,0,0,1,596,-4)" class="stroke_order_diagram--current_path"></path><path id="pathSk2v596cnkd4" kvg:type="㇐" d="M48.28,50.89c2.59,0.49,5.06,0.35,7.1,0.24c7.46-0.44,16.67-1.75,23.87-2.56c2.14-0.24,4.38-0.64,6.52-0.3" transform="matrix(1,0,0,1,596,-4)" class="stroke_order_diagram--current_path"></path><circle cx="48.28" cy="50.89" r="8" class="stroke_order_diagram--path_start" transform="matrix(1,0,0,1,596,-4)"></circle><line x1="750" x2="750" y1="1" y2="99" class="stroke_order_diagram--guide_line"></line><line x1="799" x2="799" y1="1" y2="99" class="stroke_order_diagram--bounding_box"></line><path id="pathSk2v596cnkd7" kvg:type="㇔" d="M20.47,16.1c4.27,1.65,10.89,6.3,11.84,8.45" transform="matrix(1,0,0,1,696,-4)" class="stroke_order_diagram--existing_path"></path><path id="pathSk2v596cnkd8" kvg:type="㇔" d="M14.75,38.62c4.55,1.68,11.64,6.24,12.69,8.29" transform="matrix(1,0,0,1,696,-4)" class="stroke_order_diagram--existing_path"></path><path id="pathSk2v596cnkd9" kvg:type="㇀" d="M12,90.11c1.27,0.32,2.51,0.04,3.35-1c3.92-4.86,11.37-15.58,15.04-21.9" transform="matrix(1,0,0,1,696,-4)" class="stroke_order_diagram--existing_path"></path><path id="pathSk2v596cnkda" kvg:type="㇔" d="M47.88,14.25c2.78,1.94,7.19,7.96,7.89,10.97" transform="matrix(1,0,0,1,696,-4)" class="stroke_order_diagram--existing_path"></path><path id="pathSk2v596cnkdb" kvg:type="㇒" d="M83.37,11.75c0.04,0.44,0.17,1.17-0.08,1.78c-1.64,3.97-4.83,8.6-10.59,14.04" transform="matrix(1,0,0,1,696,-4)" class="stroke_order_diagram--existing_path"></path><path id="pathSk2v596cnkdc" kvg:type="㇐" d="M43.07,32.89c2.31,0.49,5.31,0.2,7.39,0.01c8.75-0.8,23.4-2.48,31.83-3.06c2.42-0.17,5.21-0.57,7.57,0.17" transform="matrix(1,0,0,1,696,-4)" class="stroke_order_diagram--existing_path"></path><path id="pathSk2v596cnkdd" kvg:type="㇐" d="M48.28,50.89c2.59,0.49,5.06,0.35,7.1,0.24c7.46-0.44,16.67-1.75,23.87-2.56c2.14-0.24,4.38-0.64,6.52-0.3" transform="matrix(1,0,0,1,696,-4)" class="stroke_order_diagram--existing_path"></path><path id="kvg:06d0b-s8" kvg:type="㇐" d="M38,72.45c2.5,0.55,5.3,0.53,7.74,0.19c10.76-1.51,30.31-3.45,42.64-4.38c2.43-0.18,5.71-0.1,8.12,0.25" transform="matrix(1,0,0,1,696,-4)" class="stroke_order_diagram--current_path"></path><path id="pathSk2v596cnkdf" kvg:type="㇐" d="M38,72.45c2.5,0.55,5.3,0.53,7.74,0.19c10.76-1.51,30.31-3.45,42.64-4.38c2.43-0.18,5.71-0.1,8.12,0.25" transform="matrix(1,0,0,1,696,-4)" class="stroke_order_diagram--current_path"></path><circle cx="38" cy="72.45" r="8" class="stroke_order_diagram--path_start" transform="matrix(1,0,0,1,696,-4)"></circle><line x1="850" x2="850" y1="1" y2="99" class="stroke_order_diagram--guide_line"></line><line x1="899" x2="899" y1="1" y2="99" class="stroke_order_diagram--bounding_box"></line><path id="pathSk2v596cnkdi" kvg:type="㇔" d="M20.47,16.1c4.27,1.65,10.89,6.3,11.84,8.45" transform="matrix(1,0,0,1,796,-4)" class="stroke_order_diagram--existing_path"></path><path id="pathSk2v596cnkdj" kvg:type="㇔" d="M14.75,38.62c4.55,1.68,11.64,6.24,12.69,8.29" transform="matrix(1,0,0,1,796,-4)" class="stroke_order_diagram--existing_path"></path><path id="pathSk2v596cnkdk" kvg:type="㇀" d="M12,90.11c1.27,0.32,2.51,0.04,3.35-1c3.92-4.86,11.37-15.58,15.04-21.9" transform="matrix(1,0,0,1,796,-4)" class="stroke_order_diagram--existing_path"></path><path id="pathSk2v596cnkdl" kvg:type="㇔" d="M47.88,14.25c2.78,1.94,7.19,7.96,7.89,10.97" transform="matrix(1,0,0,1,796,-4)" class="stroke_order_diagram--existing_path"></path><path id="pathSk2v596cnkdm" kvg:type="㇒" d="M83.37,11.75c0.04,0.44,0.17,1.17-0.08,1.78c-1.64,3.97-4.83,8.6-10.59,14.04" transform="matrix(1,0,0,1,796,-4)" class="stroke_order_diagram--existing_path"></path><path id="pathSk2v596cnkdn" kvg:type="㇐" d="M43.07,32.89c2.31,0.49,5.31,0.2,7.39,0.01c8.75-0.8,23.4-2.48,31.83-3.06c2.42-0.17,5.21-0.57,7.57,0.17" transform="matrix(1,0,0,1,796,-4)" class="stroke_order_diagram--existing_path"></path><path id="pathSk2v596cnkdo" kvg:type="㇐" d="M48.28,50.89c2.59,0.49,5.06,0.35,7.1,0.24c7.46-0.44,16.67-1.75,23.87-2.56c2.14-0.24,4.38-0.64,6.52-0.3" transform="matrix(1,0,0,1,796,-4)" class="stroke_order_diagram--existing_path"></path><path id="pathSk2v596cnkdp" kvg:type="㇐" d="M38,72.45c2.5,0.55,5.3,0.53,7.74,0.19c10.76-1.51,30.31-3.45,42.64-4.38c2.43-0.18,5.71-0.1,8.12,0.25" transform="matrix(1,0,0,1,796,-4)" class="stroke_order_diagram--existing_path"></path><path id="kvg:06d0b-s9" kvg:type="㇑" d="M65.26,34.25c0.93,0.93,1.46,2.23,1.46,3.25c0,2.83-0.12,37.06-0.17,53.5c-0.01,3.86-0.02,6.74-0.02,8" transform="matrix(1,0,0,1,796,-4)" class="stroke_order_diagram--current_path"></path><path id="pathSk2v596cnkdr" kvg:type="㇑" d="M65.26,34.25c0.93,0.93,1.46,2.23,1.46,3.25c0,2.83-0.12,37.06-0.17,53.5c-0.01,3.86-0.02,6.74-0.02,8" transform="matrix(1,0,0,1,796,-4)" class="stroke_order_diagram--current_path"></path><circle cx="65.26" cy="34.25" r="8" class="stroke_order_diagram--path_start" transform="matrix(1,0,0,1,796,-4)"></circle></svg>