<svg style="width: 1000px; height: 100px;" viewbox="0 0 1000 100"><style>
.stroke_order_diagram--outer_container {
  width: 100%;
  overflow-x: auto;
  overflow-y: hidden;
}

.stroke_order_diagram--guide_line {
  fill: none;
  stroke: #ddd;
  stroke-width: 3;
  stroke-linecap: square;
  stroke-linejoin: square;
  stroke-dasharray:8, 8;
}

.stroke_order_diagram--bounding_box {
  fill: none;
  stroke: #ddd;
  stroke-width: 4;
  stroke-linecap: square;
  stroke-linejoin: square;
}

.stroke_order_diagram--current_path {
  fill: none;
  stroke: #000;
  stroke-width: 6;
  stroke-linecap: round;
  stroke-linejoin: round;
}

.stroke_order_diagram--existing_path {
  fill: none;
  stroke: #aaa;
  stroke-width: 6;
  stroke-linecap: round;
  stroke-linejoin:round;
}

.stroke_order_diagram--path_start {
  fill: rgba(255, 0, 0, 0.7);
  stroke:none
}</style><desc>Created with Snap</desc><defs></defs><line x1="1" x2="999" y1="1" y2="1" class="stroke_order_diagram--bounding_box"></line><line x1="1" x2="1" y1="1" y2="99" class="stroke_order_diagram--bounding_box"></line><line x1="1" x2="999" y1="99" y2="99" class="stroke_order_diagram--bounding_box"></line><line x1="0" x2="1000" y1="50" y2="50" class="stroke_order_diagram--guide_line"></line><line x1="50" x2="50" y1="1" y2="99" class="stroke_order_diagram--guide_line"></line><line x1="99" x2="99" y1="1" y2="99" class="stroke_order_diagram--bounding_box"></line><path id="kvg:06d41-s1" kvg:type="㇔" d="M18.38,18.25c3.31,1.38,8.54,5.69,9.37,7.84" transform="matrix(1,0,0,1,-4,-4)" class="stroke_order_diagram--current_path"></path><path id="pathSk2v596cnmwr" kvg:type="㇔" d="M18.38,18.25c3.31,1.38,8.54,5.69,9.37,7.84" transform="matrix(1,0,0,1,-4,-4)" class="stroke_order_diagram--current_path"></path><circle cx="18.38" cy="18.25" r="8" class="stroke_order_diagram--path_start" transform="matrix(1,0,0,1,-4,-4)"></circle><line x1="150" x2="150" y1="1" y2="99" class="stroke_order_diagram--guide_line"></line><line x1="199" x2="199" y1="1" y2="99" class="stroke_order_diagram--bounding_box"></line><path id="pathSk2v596cnmwu" kvg:type="㇔" d="M18.38,18.25c3.31,1.38,8.54,5.69,9.37,7.84" transform="matrix(1,0,0,1,96,-4)" class="stroke_order_diagram--existing_path"></path><path id="kvg:06d41-s2" kvg:type="㇔" d="M12.12,39.25c3.57,1.59,9.23,6.53,10.12,9" transform="matrix(1,0,0,1,96,-4)" class="stroke_order_diagram--current_path"></path><path id="pathSk2v596cnmww" kvg:type="㇔" d="M12.12,39.25c3.57,1.59,9.23,6.53,10.12,9" transform="matrix(1,0,0,1,96,-4)" class="stroke_order_diagram--current_path"></path><circle cx="12.12" cy="39.25" r="8" class="stroke_order_diagram--path_start" transform="matrix(1,0,0,1,96,-4)"></circle><line x1="250" x2="250" y1="1" y2="99" class="stroke_order_diagram--guide_line"></line><line x1="299" x2="299" y1="1" y2="99" class="stroke_order_diagram--bounding_box"></line><path id="pathSk2v596cnmwz" kvg:type="㇔" d="M18.38,18.25c3.31,1.38,8.54,5.69,9.37,7.84" transform="matrix(1,0,0,1,196,-4)" class="stroke_order_diagram--existing_path"></path><path id="pathSk2v596cnmx0" kvg:type="㇔" d="M12.12,39.25c3.57,1.59,9.23,6.53,10.12,9" transform="matrix(1,0,0,1,196,-4)" class="stroke_order_diagram--existing_path"></path><path id="kvg:06d41-s3" kvg:type="㇀" d="M12.75,88.84c1.36,0.65,2.76,0.38,3.58-1.01c3.02-5.17,6.05-11.49,8.8-18.08" transform="matrix(1,0,0,1,196,-4)" class="stroke_order_diagram--current_path"></path><path id="pathSk2v596cnmx2" kvg:type="㇀" d="M12.75,88.84c1.36,0.65,2.76,0.38,3.58-1.01c3.02-5.17,6.05-11.49,8.8-18.08" transform="matrix(1,0,0,1,196,-4)" class="stroke_order_diagram--current_path"></path><circle cx="12.75" cy="88.84" r="8" class="stroke_order_diagram--path_start" transform="matrix(1,0,0,1,196,-4)"></circle><line x1="350" x2="350" y1="1" y2="99" class="stroke_order_diagram--guide_line"></line><line x1="399" x2="399" y1="1" y2="99" class="stroke_order_diagram--bounding_box"></line><path id="pathSk2v596cnmx5" kvg:type="㇔" d="M18.38,18.25c3.31,1.38,8.54,5.69,9.37,7.84" transform="matrix(1,0,0,1,296,-4)" class="stroke_order_diagram--existing_path"></path><path id="pathSk2v596cnmx6" kvg:type="㇔" d="M12.12,39.25c3.57,1.59,9.23,6.53,10.12,9" transform="matrix(1,0,0,1,296,-4)" class="stroke_order_diagram--existing_path"></path><path id="pathSk2v596cnmx7" kvg:type="㇀" d="M12.75,88.84c1.36,0.65,2.76,0.38,3.58-1.01c3.02-5.17,6.05-11.49,8.8-18.08" transform="matrix(1,0,0,1,296,-4)" class="stroke_order_diagram--existing_path"></path><path id="kvg:06d41-s4" kvg:type="㇑a" d="M58.75,12.75c0.88,0.88,1.3,2.38,1.3,3.37c0,3.06-0.1,4.38-0.1,7.05" transform="matrix(1,0,0,1,296,-4)" class="stroke_order_diagram--current_path"></path><path id="pathSk2v596cnmx9" kvg:type="㇑a" d="M58.75,12.75c0.88,0.88,1.3,2.38,1.3,3.37c0,3.06-0.1,4.38-0.1,7.05" transform="matrix(1,0,0,1,296,-4)" class="stroke_order_diagram--current_path"></path><circle cx="58.75" cy="12.75" r="8" class="stroke_order_diagram--path_start" transform="matrix(1,0,0,1,296,-4)"></circle><line x1="450" x2="450" y1="1" y2="99" class="stroke_order_diagram--guide_line"></line><line x1="499" x2="499" y1="1" y2="99" class="stroke_order_diagram--bounding_box"></line><path id="pathSk2v596cnmxc" kvg:type="㇔" d="M18.38,18.25c3.31,1.38,8.54,5.69,9.37,7.84" transform="matrix(1,0,0,1,396,-4)" class="stroke_order_diagram--existing_path"></path><path id="pathSk2v596cnmxd" kvg:type="㇔" d="M12.12,39.25c3.57,1.59,9.23,6.53,10.12,9" transform="matrix(1,0,0,1,396,-4)" class="stroke_order_diagram--existing_path"></path><path id="pathSk2v596cnmxe" kvg:type="㇀" d="M12.75,88.84c1.36,0.65,2.76,0.38,3.58-1.01c3.02-5.17,6.05-11.49,8.8-18.08" transform="matrix(1,0,0,1,396,-4)" class="stroke_order_diagram--existing_path"></path><path id="pathSk2v596cnmxf" kvg:type="㇑a" d="M58.75,12.75c0.88,0.88,1.3,2.38,1.3,3.37c0,3.06-0.1,4.38-0.1,7.05" transform="matrix(1,0,0,1,396,-4)" class="stroke_order_diagram--existing_path"></path><path id="kvg:06d41-s5" kvg:type="㇐" d="M35.94,26.03c2.58,0.19,4.72,0.33,7.32,0.03c9.27-1.06,28.65-3.45,38.74-4.04c2.16-0.13,4.49-0.42,6.56,0.36" transform="matrix(1,0,0,1,396,-4)" class="stroke_order_diagram--current_path"></path><path id="pathSk2v596cnmxh" kvg:type="㇐" d="M35.94,26.03c2.58,0.19,4.72,0.33,7.32,0.03c9.27-1.06,28.65-3.45,38.74-4.04c2.16-0.13,4.49-0.42,6.56,0.36" transform="matrix(1,0,0,1,396,-4)" class="stroke_order_diagram--current_path"></path><circle cx="35.94" cy="26.03" r="8" class="stroke_order_diagram--path_start" transform="matrix(1,0,0,1,396,-4)"></circle><line x1="550" x2="550" y1="1" y2="99" class="stroke_order_diagram--guide_line"></line><line x1="599" x2="599" y1="1" y2="99" class="stroke_order_diagram--bounding_box"></line><path id="pathSk2v596cnmxk" kvg:type="㇔" d="M18.38,18.25c3.31,1.38,8.54,5.69,9.37,7.84" transform="matrix(1,0,0,1,496,-4)" class="stroke_order_diagram--existing_path"></path><path id="pathSk2v596cnmxl" kvg:type="㇔" d="M12.12,39.25c3.57,1.59,9.23,6.53,10.12,9" transform="matrix(1,0,0,1,496,-4)" class="stroke_order_diagram--existing_path"></path><path id="pathSk2v596cnmxm" kvg:type="㇀" d="M12.75,88.84c1.36,0.65,2.76,0.38,3.58-1.01c3.02-5.17,6.05-11.49,8.8-18.08" transform="matrix(1,0,0,1,496,-4)" class="stroke_order_diagram--existing_path"></path><path id="pathSk2v596cnmxn" kvg:type="㇑a" d="M58.75,12.75c0.88,0.88,1.3,2.38,1.3,3.37c0,3.06-0.1,4.38-0.1,7.05" transform="matrix(1,0,0,1,496,-4)" class="stroke_order_diagram--existing_path"></path><path id="pathSk2v596cnmxo" kvg:type="㇐" d="M35.94,26.03c2.58,0.19,4.72,0.33,7.32,0.03c9.27-1.06,28.65-3.45,38.74-4.04c2.16-0.13,4.49-0.42,6.56,0.36" transform="matrix(1,0,0,1,496,-4)" class="stroke_order_diagram--existing_path"></path><path id="kvg:06d41-s6" kvg:type="㇜" d="M55.69,28.5c0.31,0.88,0.28,2.06-0.3,2.9c-2.76,3.98-5.88,8.35-10.63,14.1c-2.83,3.43-1.76,3.9,1.75,3c10.25-2.62,20.25-4.75,31.75-7.25" transform="matrix(1,0,0,1,496,-4)" class="stroke_order_diagram--current_path"></path><path id="pathSk2v596cnmxq" kvg:type="㇜" d="M55.69,28.5c0.31,0.88,0.28,2.06-0.3,2.9c-2.76,3.98-5.88,8.35-10.63,14.1c-2.83,3.43-1.76,3.9,1.75,3c10.25-2.62,20.25-4.75,31.75-7.25" transform="matrix(1,0,0,1,496,-4)" class="stroke_order_diagram--current_path"></path><circle cx="55.69" cy="28.5" r="8" class="stroke_order_diagram--path_start" transform="matrix(1,0,0,1,496,-4)"></circle><line x1="650" x2="650" y1="1" y2="99" class="stroke_order_diagram--guide_line"></line><line x1="699" x2="699" y1="1" y2="99" class="stroke_order_diagram--bounding_box"></line><path id="pathSk2v596cnmxt" kvg:type="㇔" d="M18.38,18.25c3.31,1.38,8.54,5.69,9.37,7.84" transform="matrix(1,0,0,1,596,-4)" class="stroke_order_diagram--existing_path"></path><path id="pathSk2v596cnmxu" kvg:type="㇔" d="M12.12,39.25c3.57,1.59,9.23,6.53,10.12,9" transform="matrix(1,0,0,1,596,-4)" class="stroke_order_diagram--existing_path"></path><path id="pathSk2v596cnmxv" kvg:type="㇀" d="M12.75,88.84c1.36,0.65,2.76,0.38,3.58-1.01c3.02-5.17,6.05-11.49,8.8-18.08" transform="matrix(1,0,0,1,596,-4)" class="stroke_order_diagram--existing_path"></path><path id="pathSk2v596cnmxw" kvg:type="㇑a" d="M58.75,12.75c0.88,0.88,1.3,2.38,1.3,3.37c0,3.06-0.1,4.38-0.1,7.05" transform="matrix(1,0,0,1,596,-4)" class="stroke_order_diagram--existing_path"></path><path id="pathSk2v596cnmxx" kvg:type="㇐" d="M35.94,26.03c2.58,0.19,4.72,0.33,7.32,0.03c9.27-1.06,28.65-3.45,38.74-4.04c2.16-0.13,4.49-0.42,6.56,0.36" transform="matrix(1,0,0,1,596,-4)" class="stroke_order_diagram--existing_path"></path><path id="pathSk2v596cnmxy" kvg:type="㇜" d="M55.69,28.5c0.31,0.88,0.28,2.06-0.3,2.9c-2.76,3.98-5.88,8.35-10.63,14.1c-2.83,3.43-1.76,3.9,1.75,3c10.25-2.62,20.25-4.75,31.75-7.25" transform="matrix(1,0,0,1,596,-4)" class="stroke_order_diagram--existing_path"></path><path id="kvg:06d41-s7" kvg:type="㇔" d="M70.16,32.1c4.52,2.76,11.67,11.33,12.8,15.62" transform="matrix(1,0,0,1,596,-4)" class="stroke_order_diagram--current_path"></path><path id="pathSk2v596cnmy0" kvg:type="㇔" d="M70.16,32.1c4.52,2.76,11.67,11.33,12.8,15.62" transform="matrix(1,0,0,1,596,-4)" class="stroke_order_diagram--current_path"></path><circle cx="70.16" cy="32.1" r="8" class="stroke_order_diagram--path_start" transform="matrix(1,0,0,1,596,-4)"></circle><line x1="750" x2="750" y1="1" y2="99" class="stroke_order_diagram--guide_line"></line><line x1="799" x2="799" y1="1" y2="99" class="stroke_order_diagram--bounding_box"></line><path id="pathSk2v596cnmy3" kvg:type="㇔" d="M18.38,18.25c3.31,1.38,8.54,5.69,9.37,7.84" transform="matrix(1,0,0,1,696,-4)" class="stroke_order_diagram--existing_path"></path><path id="pathSk2v596cnmy4" kvg:type="㇔" d="M12.12,39.25c3.57,1.59,9.23,6.53,10.12,9" transform="matrix(1,0,0,1,696,-4)" class="stroke_order_diagram--existing_path"></path><path id="pathSk2v596cnmy5" kvg:type="㇀" d="M12.75,88.84c1.36,0.65,2.76,0.38,3.58-1.01c3.02-5.17,6.05-11.49,8.8-18.08" transform="matrix(1,0,0,1,696,-4)" class="stroke_order_diagram--existing_path"></path><path id="pathSk2v596cnmy6" kvg:type="㇑a" d="M58.75,12.75c0.88,0.88,1.3,2.38,1.3,3.37c0,3.06-0.1,4.38-0.1,7.05" transform="matrix(1,0,0,1,696,-4)" class="stroke_order_diagram--existing_path"></path><path id="pathSk2v596cnmy7" kvg:type="㇐" d="M35.94,26.03c2.58,0.19,4.72,0.33,7.32,0.03c9.27-1.06,28.65-3.45,38.74-4.04c2.16-0.13,4.49-0.42,6.56,0.36" transform="matrix(1,0,0,1,696,-4)" class="stroke_order_diagram--existing_path"></path><path id="pathSk2v596cnmy8" kvg:type="㇜" d="M55.69,28.5c0.31,0.88,0.28,2.06-0.3,2.9c-2.76,3.98-5.88,8.35-10.63,14.1c-2.83,3.43-1.76,3.9,1.75,3c10.25-2.62,20.25-4.75,31.75-7.25" transform="matrix(1,0,0,1,696,-4)" class="stroke_order_diagram--existing_path"></path><path id="pathSk2v596cnmy9" kvg:type="㇔" d="M70.16,32.1c4.52,2.76,11.67,11.33,12.8,15.62" transform="matrix(1,0,0,1,696,-4)" class="stroke_order_diagram--existing_path"></path><path id="kvg:06d41-s8" kvg:type="㇒" d="M44.76,56.89c0.8,0.8,0.99,1.95,0.92,3.19c-0.93,16.29-3.56,25.54-13.87,32.89" transform="matrix(1,0,0,1,696,-4)" class="stroke_order_diagram--current_path"></path><path id="pathSk2v596cnmyb" kvg:type="㇒" d="M44.76,56.89c0.8,0.8,0.99,1.95,0.92,3.19c-0.93,16.29-3.56,25.54-13.87,32.89" transform="matrix(1,0,0,1,696,-4)" class="stroke_order_diagram--current_path"></path><circle cx="44.76" cy="56.89" r="8" class="stroke_order_diagram--path_start" transform="matrix(1,0,0,1,696,-4)"></circle><line x1="850" x2="850" y1="1" y2="99" class="stroke_order_diagram--guide_line"></line><line x1="899" x2="899" y1="1" y2="99" class="stroke_order_diagram--bounding_box"></line><path id="pathSk2v596cnmye" kvg:type="㇔" d="M18.38,18.25c3.31,1.38,8.54,5.69,9.37,7.84" transform="matrix(1,0,0,1,796,-4)" class="stroke_order_diagram--existing_path"></path><path id="pathSk2v596cnmyf" kvg:type="㇔" d="M12.12,39.25c3.57,1.59,9.23,6.53,10.12,9" transform="matrix(1,0,0,1,796,-4)" class="stroke_order_diagram--existing_path"></path><path id="pathSk2v596cnmyg" kvg:type="㇀" d="M12.75,88.84c1.36,0.65,2.76,0.38,3.58-1.01c3.02-5.17,6.05-11.49,8.8-18.08" transform="matrix(1,0,0,1,796,-4)" class="stroke_order_diagram--existing_path"></path><path id="pathSk2v596cnmyh" kvg:type="㇑a" d="M58.75,12.75c0.88,0.88,1.3,2.38,1.3,3.37c0,3.06-0.1,4.38-0.1,7.05" transform="matrix(1,0,0,1,796,-4)" class="stroke_order_diagram--existing_path"></path><path id="pathSk2v596cnmyi" kvg:type="㇐" d="M35.94,26.03c2.58,0.19,4.72,0.33,7.32,0.03c9.27-1.06,28.65-3.45,38.74-4.04c2.16-0.13,4.49-0.42,6.56,0.36" transform="matrix(1,0,0,1,796,-4)" class="stroke_order_diagram--existing_path"></path><path id="pathSk2v596cnmyj" kvg:type="㇜" d="M55.69,28.5c0.31,0.88,0.28,2.06-0.3,2.9c-2.76,3.98-5.88,8.35-10.63,14.1c-2.83,3.43-1.76,3.9,1.75,3c10.25-2.62,20.25-4.75,31.75-7.25" transform="matrix(1,0,0,1,796,-4)" class="stroke_order_diagram--existing_path"></path><path id="pathSk2v596cnmyk" kvg:type="㇔" d="M70.16,32.1c4.52,2.76,11.67,11.33,12.8,15.62" transform="matrix(1,0,0,1,796,-4)" class="stroke_order_diagram--existing_path"></path><path id="pathSk2v596cnmyl" kvg:type="㇒" d="M44.76,56.89c0.8,0.8,0.99,1.95,0.92,3.19c-0.93,16.29-3.56,25.54-13.87,32.89" transform="matrix(1,0,0,1,796,-4)" class="stroke_order_diagram--existing_path"></path><path id="kvg:06d41-s9" kvg:type="㇑" d="M57.77,53.87c0.93,0.93,1.51,2.26,1.51,4.02c0,10.8,0,20.84-0.01,27.5c0,2.32,0,4.23,0,5.62" transform="matrix(1,0,0,1,796,-4)" class="stroke_order_diagram--current_path"></path><path id="pathSk2v596cnmyn" kvg:type="㇑" d="M57.77,53.87c0.93,0.93,1.51,2.26,1.51,4.02c0,10.8,0,20.84-0.01,27.5c0,2.32,0,4.23,0,5.62" transform="matrix(1,0,0,1,796,-4)" class="stroke_order_diagram--current_path"></path><circle cx="57.77" cy="53.87" r="8" class="stroke_order_diagram--path_start" transform="matrix(1,0,0,1,796,-4)"></circle><line x1="950" x2="950" y1="1" y2="99" class="stroke_order_diagram--guide_line"></line><line x1="999" x2="999" y1="1" y2="99" class="stroke_order_diagram--bounding_box"></line><path id="pathSk2v596cnmyq" kvg:type="㇔" d="M18.38,18.25c3.31,1.38,8.54,5.69,9.37,7.84" transform="matrix(1,0,0,1,896,-4)" class="stroke_order_diagram--existing_path"></path><path id="pathSk2v596cnmyr" kvg:type="㇔" d="M12.12,39.25c3.57,1.59,9.23,6.53,10.12,9" transform="matrix(1,0,0,1,896,-4)" class="stroke_order_diagram--existing_path"></path><path id="pathSk2v596cnmys" kvg:type="㇀" d="M12.75,88.84c1.36,0.65,2.76,0.38,3.58-1.01c3.02-5.17,6.05-11.49,8.8-18.08" transform="matrix(1,0,0,1,896,-4)" class="stroke_order_diagram--existing_path"></path><path id="pathSk2v596cnmyt" kvg:type="㇑a" d="M58.75,12.75c0.88,0.88,1.3,2.38,1.3,3.37c0,3.06-0.1,4.38-0.1,7.05" transform="matrix(1,0,0,1,896,-4)" class="stroke_order_diagram--existing_path"></path><path id="pathSk2v596cnmyu" kvg:type="㇐" d="M35.94,26.03c2.58,0.19,4.72,0.33,7.32,0.03c9.27-1.06,28.65-3.45,38.74-4.04c2.16-0.13,4.49-0.42,6.56,0.36" transform="matrix(1,0,0,1,896,-4)" class="stroke_order_diagram--existing_path"></path><path id="pathSk2v596cnmyv" kvg:type="㇜" d="M55.69,28.5c0.31,0.88,0.28,2.06-0.3,2.9c-2.76,3.98-5.88,8.35-10.63,14.1c-2.83,3.43-1.76,3.9,1.75,3c10.25-2.62,20.25-4.75,31.75-7.25" transform="matrix(1,0,0,1,896,-4)" class="stroke_order_diagram--existing_path"></path><path id="pathSk2v596cnmyw" kvg:type="㇔" d="M70.16,32.1c4.52,2.76,11.67,11.33,12.8,15.62" transform="matrix(1,0,0,1,896,-4)" class="stroke_order_diagram--existing_path"></path><path id="pathSk2v596cnmyx" kvg:type="㇒" d="M44.76,56.89c0.8,0.8,0.99,1.95,0.92,3.19c-0.93,16.29-3.56,25.54-13.87,32.89" transform="matrix(1,0,0,1,896,-4)" class="stroke_order_diagram--existing_path"></path><path id="pathSk2v596cnmyy" kvg:type="㇑" d="M57.77,53.87c0.93,0.93,1.51,2.26,1.51,4.02c0,10.8,0,20.84-0.01,27.5c0,2.32,0,4.23,0,5.62" transform="matrix(1,0,0,1,896,-4)" class="stroke_order_diagram--existing_path"></path><path id="kvg:06d41-s10" kvg:type="㇟" d="M72.85,50.62c1.02,1.02,1.62,2.63,1.62,4.18c0,8.19-0.03,18.14-0.03,23.7c0,10,0.81,11.53,9.67,11.53C94.62,90.03,96,88.75,96,81.4" transform="matrix(1,0,0,1,896,-4)" class="stroke_order_diagram--current_path"></path><path id="pathSk2v596cnmz0" kvg:type="㇟" d="M72.85,50.62c1.02,1.02,1.62,2.63,1.62,4.18c0,8.19-0.03,18.14-0.03,23.7c0,10,0.81,11.53,9.67,11.53C94.62,90.03,96,88.75,96,81.4" transform="matrix(1,0,0,1,896,-4)" class="stroke_order_diagram--current_path"></path><circle cx="72.85" cy="50.62" r="8" class="stroke_order_diagram--path_start" transform="matrix(1,0,0,1,896,-4)"></circle></svg>