<svg style="width: 1000px; height: 100px;" viewbox="0 0 1000 100"><style>
.stroke_order_diagram--outer_container {
  width: 100%;
  overflow-x: auto;
  overflow-y: hidden;
}

.stroke_order_diagram--guide_line {
  fill: none;
  stroke: #ddd;
  stroke-width: 3;
  stroke-linecap: square;
  stroke-linejoin: square;
  stroke-dasharray:8, 8;
}

.stroke_order_diagram--bounding_box {
  fill: none;
  stroke: #ddd;
  stroke-width: 4;
  stroke-linecap: square;
  stroke-linejoin: square;
}

.stroke_order_diagram--current_path {
  fill: none;
  stroke: #000;
  stroke-width: 6;
  stroke-linecap: round;
  stroke-linejoin: round;
}

.stroke_order_diagram--existing_path {
  fill: none;
  stroke: #aaa;
  stroke-width: 6;
  stroke-linecap: round;
  stroke-linejoin:round;
}

.stroke_order_diagram--path_start {
  fill: rgba(255, 0, 0, 0.7);
  stroke:none
}</style><desc>Created with Snap</desc><defs></defs><line x1="1" x2="999" y1="1" y2="1" class="stroke_order_diagram--bounding_box"></line><line x1="1" x2="1" y1="1" y2="99" class="stroke_order_diagram--bounding_box"></line><line x1="1" x2="999" y1="99" y2="99" class="stroke_order_diagram--bounding_box"></line><line x1="0" x2="1000" y1="50" y2="50" class="stroke_order_diagram--guide_line"></line><line x1="50" x2="50" y1="1" y2="99" class="stroke_order_diagram--guide_line"></line><line x1="99" x2="99" y1="1" y2="99" class="stroke_order_diagram--bounding_box"></line><path id="kvg:06d78-s1" kvg:type="㇔" d="M22.63,16.5c3.66,1.6,9.45,6.6,10.37,9.09" transform="matrix(1,0,0,1,-4,-4)" class="stroke_order_diagram--current_path"></path><path id="pathSk2v596cn3tjx" kvg:type="㇔" d="M22.63,16.5c3.66,1.6,9.45,6.6,10.37,9.09" transform="matrix(1,0,0,1,-4,-4)" class="stroke_order_diagram--current_path"></path><circle cx="22.63" cy="16.5" r="8" class="stroke_order_diagram--path_start" transform="matrix(1,0,0,1,-4,-4)"></circle><line x1="150" x2="150" y1="1" y2="99" class="stroke_order_diagram--guide_line"></line><line x1="199" x2="199" y1="1" y2="99" class="stroke_order_diagram--bounding_box"></line><path id="pathSk2v596cn3tk0" kvg:type="㇔" d="M22.63,16.5c3.66,1.6,9.45,6.6,10.37,9.09" transform="matrix(1,0,0,1,96,-4)" class="stroke_order_diagram--existing_path"></path><path id="kvg:06d78-s2" kvg:type="㇔" d="M14.75,40.75c3.62,1.54,9.34,6.35,10.25,8.75" transform="matrix(1,0,0,1,96,-4)" class="stroke_order_diagram--current_path"></path><path id="pathSk2v596cn3tk2" kvg:type="㇔" d="M14.75,40.75c3.62,1.54,9.34,6.35,10.25,8.75" transform="matrix(1,0,0,1,96,-4)" class="stroke_order_diagram--current_path"></path><circle cx="14.75" cy="40.75" r="8" class="stroke_order_diagram--path_start" transform="matrix(1,0,0,1,96,-4)"></circle><line x1="250" x2="250" y1="1" y2="99" class="stroke_order_diagram--guide_line"></line><line x1="299" x2="299" y1="1" y2="99" class="stroke_order_diagram--bounding_box"></line><path id="pathSk2v596cn3tk5" kvg:type="㇔" d="M22.63,16.5c3.66,1.6,9.45,6.6,10.37,9.09" transform="matrix(1,0,0,1,196,-4)" class="stroke_order_diagram--existing_path"></path><path id="pathSk2v596cn3tk6" kvg:type="㇔" d="M14.75,40.75c3.62,1.54,9.34,6.35,10.25,8.75" transform="matrix(1,0,0,1,196,-4)" class="stroke_order_diagram--existing_path"></path><path id="kvg:06d78-s3" kvg:type="㇀" d="M14.85,87.42c1.34,0.68,2.75,0.48,3.55-0.83c2.87-4.67,5.74-10.38,8.35-16.34" transform="matrix(1,0,0,1,196,-4)" class="stroke_order_diagram--current_path"></path><path id="pathSk2v596cn3tk8" kvg:type="㇀" d="M14.85,87.42c1.34,0.68,2.75,0.48,3.55-0.83c2.87-4.67,5.74-10.38,8.35-16.34" transform="matrix(1,0,0,1,196,-4)" class="stroke_order_diagram--current_path"></path><circle cx="14.85" cy="87.42" r="8" class="stroke_order_diagram--path_start" transform="matrix(1,0,0,1,196,-4)"></circle><line x1="350" x2="350" y1="1" y2="99" class="stroke_order_diagram--guide_line"></line><line x1="399" x2="399" y1="1" y2="99" class="stroke_order_diagram--bounding_box"></line><path id="pathSk2v596cn3tkb" kvg:type="㇔" d="M22.63,16.5c3.66,1.6,9.45,6.6,10.37,9.09" transform="matrix(1,0,0,1,296,-4)" class="stroke_order_diagram--existing_path"></path><path id="pathSk2v596cn3tkc" kvg:type="㇔" d="M14.75,40.75c3.62,1.54,9.34,6.35,10.25,8.75" transform="matrix(1,0,0,1,296,-4)" class="stroke_order_diagram--existing_path"></path><path id="pathSk2v596cn3tkd" kvg:type="㇀" d="M14.85,87.42c1.34,0.68,2.75,0.48,3.55-0.83c2.87-4.67,5.74-10.38,8.35-16.34" transform="matrix(1,0,0,1,296,-4)" class="stroke_order_diagram--existing_path"></path><path id="kvg:06d78-s4" kvg:type="㇕" d="M47.13,16.55c2.11,0.85,4.2,0.59,6.37,0.41c7.3-0.59,25.45-2.42,26.64-2.6c1.46-0.22,3.11,0.64,2.93,2.21c-0.6,5.35-2.08,12.65-2.65,17.21c-0.22,1.77-0.42,3.24-0.57,4.23" transform="matrix(1,0,0,1,296,-4)" class="stroke_order_diagram--current_path"></path><path id="pathSk2v596cn3tkf" kvg:type="㇕" d="M47.13,16.55c2.11,0.85,4.2,0.59,6.37,0.41c7.3-0.59,25.45-2.42,26.64-2.6c1.46-0.22,3.11,0.64,2.93,2.21c-0.6,5.35-2.08,12.65-2.65,17.21c-0.22,1.77-0.42,3.24-0.57,4.23" transform="matrix(1,0,0,1,296,-4)" class="stroke_order_diagram--current_path"></path><circle cx="47.13" cy="16.55" r="8" class="stroke_order_diagram--path_start" transform="matrix(1,0,0,1,296,-4)"></circle><line x1="450" x2="450" y1="1" y2="99" class="stroke_order_diagram--guide_line"></line><line x1="499" x2="499" y1="1" y2="99" class="stroke_order_diagram--bounding_box"></line><path id="pathSk2v596cn3tki" kvg:type="㇔" d="M22.63,16.5c3.66,1.6,9.45,6.6,10.37,9.09" transform="matrix(1,0,0,1,396,-4)" class="stroke_order_diagram--existing_path"></path><path id="pathSk2v596cn3tkj" kvg:type="㇔" d="M14.75,40.75c3.62,1.54,9.34,6.35,10.25,8.75" transform="matrix(1,0,0,1,396,-4)" class="stroke_order_diagram--existing_path"></path><path id="pathSk2v596cn3tkk" kvg:type="㇀" d="M14.85,87.42c1.34,0.68,2.75,0.48,3.55-0.83c2.87-4.67,5.74-10.38,8.35-16.34" transform="matrix(1,0,0,1,396,-4)" class="stroke_order_diagram--existing_path"></path><path id="pathSk2v596cn3tkl" kvg:type="㇕" d="M47.13,16.55c2.11,0.85,4.2,0.59,6.37,0.41c7.3-0.59,25.45-2.42,26.64-2.6c1.46-0.22,3.11,0.64,2.93,2.21c-0.6,5.35-2.08,12.65-2.65,17.21c-0.22,1.77-0.42,3.24-0.57,4.23" transform="matrix(1,0,0,1,396,-4)" class="stroke_order_diagram--existing_path"></path><path id="kvg:06d78-s5" kvg:type="㇐c" d="M46.36,27.29c2.77,0.58,4.9,0.19,7.02,0.01c9.48-0.82,15-1.55,27.34-2.27" transform="matrix(1,0,0,1,396,-4)" class="stroke_order_diagram--current_path"></path><path id="pathSk2v596cn3tkn" kvg:type="㇐c" d="M46.36,27.29c2.77,0.58,4.9,0.19,7.02,0.01c9.48-0.82,15-1.55,27.34-2.27" transform="matrix(1,0,0,1,396,-4)" class="stroke_order_diagram--current_path"></path><circle cx="46.36" cy="27.29" r="8" class="stroke_order_diagram--path_start" transform="matrix(1,0,0,1,396,-4)"></circle><line x1="550" x2="550" y1="1" y2="99" class="stroke_order_diagram--guide_line"></line><line x1="599" x2="599" y1="1" y2="99" class="stroke_order_diagram--bounding_box"></line><path id="pathSk2v596cn3tkq" kvg:type="㇔" d="M22.63,16.5c3.66,1.6,9.45,6.6,10.37,9.09" transform="matrix(1,0,0,1,496,-4)" class="stroke_order_diagram--existing_path"></path><path id="pathSk2v596cn3tkr" kvg:type="㇔" d="M14.75,40.75c3.62,1.54,9.34,6.35,10.25,8.75" transform="matrix(1,0,0,1,496,-4)" class="stroke_order_diagram--existing_path"></path><path id="pathSk2v596cn3tks" kvg:type="㇀" d="M14.85,87.42c1.34,0.68,2.75,0.48,3.55-0.83c2.87-4.67,5.74-10.38,8.35-16.34" transform="matrix(1,0,0,1,496,-4)" class="stroke_order_diagram--existing_path"></path><path id="pathSk2v596cn3tkt" kvg:type="㇕" d="M47.13,16.55c2.11,0.85,4.2,0.59,6.37,0.41c7.3-0.59,25.45-2.42,26.64-2.6c1.46-0.22,3.11,0.64,2.93,2.21c-0.6,5.35-2.08,12.65-2.65,17.21c-0.22,1.77-0.42,3.24-0.57,4.23" transform="matrix(1,0,0,1,496,-4)" class="stroke_order_diagram--existing_path"></path><path id="pathSk2v596cn3tku" kvg:type="㇐c" d="M46.36,27.29c2.77,0.58,4.9,0.19,7.02,0.01c9.48-0.82,15-1.55,27.34-2.27" transform="matrix(1,0,0,1,496,-4)" class="stroke_order_diagram--existing_path"></path><path id="kvg:06d78-s6" kvg:type="㇐c" d="M46.22,37.7c1.96,0.91,4.47,0.46,6.53,0.27c9.44-0.88,15.82-1.74,26.83-2.75" transform="matrix(1,0,0,1,496,-4)" class="stroke_order_diagram--current_path"></path><path id="pathSk2v596cn3tkw" kvg:type="㇐c" d="M46.22,37.7c1.96,0.91,4.47,0.46,6.53,0.27c9.44-0.88,15.82-1.74,26.83-2.75" transform="matrix(1,0,0,1,496,-4)" class="stroke_order_diagram--current_path"></path><circle cx="46.22" cy="37.7" r="8" class="stroke_order_diagram--path_start" transform="matrix(1,0,0,1,496,-4)"></circle><line x1="650" x2="650" y1="1" y2="99" class="stroke_order_diagram--guide_line"></line><line x1="699" x2="699" y1="1" y2="99" class="stroke_order_diagram--bounding_box"></line><path id="pathSk2v596cn3tkz" kvg:type="㇔" d="M22.63,16.5c3.66,1.6,9.45,6.6,10.37,9.09" transform="matrix(1,0,0,1,596,-4)" class="stroke_order_diagram--existing_path"></path><path id="pathSk2v596cn3tl0" kvg:type="㇔" d="M14.75,40.75c3.62,1.54,9.34,6.35,10.25,8.75" transform="matrix(1,0,0,1,596,-4)" class="stroke_order_diagram--existing_path"></path><path id="pathSk2v596cn3tl1" kvg:type="㇀" d="M14.85,87.42c1.34,0.68,2.75,0.48,3.55-0.83c2.87-4.67,5.74-10.38,8.35-16.34" transform="matrix(1,0,0,1,596,-4)" class="stroke_order_diagram--existing_path"></path><path id="pathSk2v596cn3tl2" kvg:type="㇕" d="M47.13,16.55c2.11,0.85,4.2,0.59,6.37,0.41c7.3-0.59,25.45-2.42,26.64-2.6c1.46-0.22,3.11,0.64,2.93,2.21c-0.6,5.35-2.08,12.65-2.65,17.21c-0.22,1.77-0.42,3.24-0.57,4.23" transform="matrix(1,0,0,1,596,-4)" class="stroke_order_diagram--existing_path"></path><path id="pathSk2v596cn3tl3" kvg:type="㇐c" d="M46.36,27.29c2.77,0.58,4.9,0.19,7.02,0.01c9.48-0.82,15-1.55,27.34-2.27" transform="matrix(1,0,0,1,596,-4)" class="stroke_order_diagram--existing_path"></path><path id="pathSk2v596cn3tl4" kvg:type="㇐c" d="M46.22,37.7c1.96,0.91,4.47,0.46,6.53,0.27c9.44-0.88,15.82-1.74,26.83-2.75" transform="matrix(1,0,0,1,596,-4)" class="stroke_order_diagram--existing_path"></path><path id="kvg:06d78-s7" kvg:type="㇔" d="M42.25,48c-0.07,3.2-1.63,11.57-2.19,13.47" transform="matrix(1,0,0,1,596,-4)" class="stroke_order_diagram--current_path"></path><path id="pathSk2v596cn3tl6" kvg:type="㇔" d="M42.25,48c-0.07,3.2-1.63,11.57-2.19,13.47" transform="matrix(1,0,0,1,596,-4)" class="stroke_order_diagram--current_path"></path><circle cx="42.25" cy="48" r="8" class="stroke_order_diagram--path_start" transform="matrix(1,0,0,1,596,-4)"></circle><line x1="750" x2="750" y1="1" y2="99" class="stroke_order_diagram--guide_line"></line><line x1="799" x2="799" y1="1" y2="99" class="stroke_order_diagram--bounding_box"></line><path id="pathSk2v596cn3tl9" kvg:type="㇔" d="M22.63,16.5c3.66,1.6,9.45,6.6,10.37,9.09" transform="matrix(1,0,0,1,696,-4)" class="stroke_order_diagram--existing_path"></path><path id="pathSk2v596cn3tla" kvg:type="㇔" d="M14.75,40.75c3.62,1.54,9.34,6.35,10.25,8.75" transform="matrix(1,0,0,1,696,-4)" class="stroke_order_diagram--existing_path"></path><path id="pathSk2v596cn3tlb" kvg:type="㇀" d="M14.85,87.42c1.34,0.68,2.75,0.48,3.55-0.83c2.87-4.67,5.74-10.38,8.35-16.34" transform="matrix(1,0,0,1,696,-4)" class="stroke_order_diagram--existing_path"></path><path id="pathSk2v596cn3tlc" kvg:type="㇕" d="M47.13,16.55c2.11,0.85,4.2,0.59,6.37,0.41c7.3-0.59,25.45-2.42,26.64-2.6c1.46-0.22,3.11,0.64,2.93,2.21c-0.6,5.35-2.08,12.65-2.65,17.21c-0.22,1.77-0.42,3.24-0.57,4.23" transform="matrix(1,0,0,1,696,-4)" class="stroke_order_diagram--existing_path"></path><path id="pathSk2v596cn3tld" kvg:type="㇐c" d="M46.36,27.29c2.77,0.58,4.9,0.19,7.02,0.01c9.48-0.82,15-1.55,27.34-2.27" transform="matrix(1,0,0,1,696,-4)" class="stroke_order_diagram--existing_path"></path><path id="pathSk2v596cn3tle" kvg:type="㇐c" d="M46.22,37.7c1.96,0.91,4.47,0.46,6.53,0.27c9.44-0.88,15.82-1.74,26.83-2.75" transform="matrix(1,0,0,1,696,-4)" class="stroke_order_diagram--existing_path"></path><path id="pathSk2v596cn3tlf" kvg:type="㇔" d="M42.25,48c-0.07,3.2-1.63,11.57-2.19,13.47" transform="matrix(1,0,0,1,696,-4)" class="stroke_order_diagram--existing_path"></path><path id="kvg:06d78-s8" kvg:type="㇖b" d="M43.3,49.76c10.58-1.01,26.45-3.26,42.74-4.35c12.27-0.82,2.06,7.19,0.91,8.25" transform="matrix(1,0,0,1,696,-4)" class="stroke_order_diagram--current_path"></path><path id="pathSk2v596cn3tlh" kvg:type="㇖b" d="M43.3,49.76c10.58-1.01,26.45-3.26,42.74-4.35c12.27-0.82,2.06,7.19,0.91,8.25" transform="matrix(1,0,0,1,696,-4)" class="stroke_order_diagram--current_path"></path><circle cx="43.3" cy="49.76" r="8" class="stroke_order_diagram--path_start" transform="matrix(1,0,0,1,696,-4)"></circle><line x1="850" x2="850" y1="1" y2="99" class="stroke_order_diagram--guide_line"></line><line x1="899" x2="899" y1="1" y2="99" class="stroke_order_diagram--bounding_box"></line><path id="pathSk2v596cn3tlk" kvg:type="㇔" d="M22.63,16.5c3.66,1.6,9.45,6.6,10.37,9.09" transform="matrix(1,0,0,1,796,-4)" class="stroke_order_diagram--existing_path"></path><path id="pathSk2v596cn3tll" kvg:type="㇔" d="M14.75,40.75c3.62,1.54,9.34,6.35,10.25,8.75" transform="matrix(1,0,0,1,796,-4)" class="stroke_order_diagram--existing_path"></path><path id="pathSk2v596cn3tlm" kvg:type="㇀" d="M14.85,87.42c1.34,0.68,2.75,0.48,3.55-0.83c2.87-4.67,5.74-10.38,8.35-16.34" transform="matrix(1,0,0,1,796,-4)" class="stroke_order_diagram--existing_path"></path><path id="pathSk2v596cn3tln" kvg:type="㇕" d="M47.13,16.55c2.11,0.85,4.2,0.59,6.37,0.41c7.3-0.59,25.45-2.42,26.64-2.6c1.46-0.22,3.11,0.64,2.93,2.21c-0.6,5.35-2.08,12.65-2.65,17.21c-0.22,1.77-0.42,3.24-0.57,4.23" transform="matrix(1,0,0,1,796,-4)" class="stroke_order_diagram--existing_path"></path><path id="pathSk2v596cn3tlo" kvg:type="㇐c" d="M46.36,27.29c2.77,0.58,4.9,0.19,7.02,0.01c9.48-0.82,15-1.55,27.34-2.27" transform="matrix(1,0,0,1,796,-4)" class="stroke_order_diagram--existing_path"></path><path id="pathSk2v596cn3tlp" kvg:type="㇐c" d="M46.22,37.7c1.96,0.91,4.47,0.46,6.53,0.27c9.44-0.88,15.82-1.74,26.83-2.75" transform="matrix(1,0,0,1,796,-4)" class="stroke_order_diagram--existing_path"></path><path id="pathSk2v596cn3tlq" kvg:type="㇔" d="M42.25,48c-0.07,3.2-1.63,11.57-2.19,13.47" transform="matrix(1,0,0,1,796,-4)" class="stroke_order_diagram--existing_path"></path><path id="pathSk2v596cn3tlr" kvg:type="㇖b" d="M43.3,49.76c10.58-1.01,26.45-3.26,42.74-4.35c12.27-0.82,2.06,7.19,0.91,8.25" transform="matrix(1,0,0,1,796,-4)" class="stroke_order_diagram--existing_path"></path><path id="kvg:06d78-s9" kvg:type="㇇" d="M50.18,61.04c2.14,0.39,3.94,0.28,6.09-0.1c4.65-0.81,14.76-2.61,17.87-3.34c3.61-0.85,5.11,0.77,3.11,3.82C68.03,75.5,54.5,87.12,40.2,93.25" transform="matrix(1,0,0,1,796,-4)" class="stroke_order_diagram--current_path"></path><path id="pathSk2v596cn3tlt" kvg:type="㇇" d="M50.18,61.04c2.14,0.39,3.94,0.28,6.09-0.1c4.65-0.81,14.76-2.61,17.87-3.34c3.61-0.85,5.11,0.77,3.11,3.82C68.03,75.5,54.5,87.12,40.2,93.25" transform="matrix(1,0,0,1,796,-4)" class="stroke_order_diagram--current_path"></path><circle cx="50.18" cy="61.04" r="8" class="stroke_order_diagram--path_start" transform="matrix(1,0,0,1,796,-4)"></circle><line x1="950" x2="950" y1="1" y2="99" class="stroke_order_diagram--guide_line"></line><line x1="999" x2="999" y1="1" y2="99" class="stroke_order_diagram--bounding_box"></line><path id="pathSk2v596cn3tlw" kvg:type="㇔" d="M22.63,16.5c3.66,1.6,9.45,6.6,10.37,9.09" transform="matrix(1,0,0,1,896,-4)" class="stroke_order_diagram--existing_path"></path><path id="pathSk2v596cn3tlx" kvg:type="㇔" d="M14.75,40.75c3.62,1.54,9.34,6.35,10.25,8.75" transform="matrix(1,0,0,1,896,-4)" class="stroke_order_diagram--existing_path"></path><path id="pathSk2v596cn3tly" kvg:type="㇀" d="M14.85,87.42c1.34,0.68,2.75,0.48,3.55-0.83c2.87-4.67,5.74-10.38,8.35-16.34" transform="matrix(1,0,0,1,896,-4)" class="stroke_order_diagram--existing_path"></path><path id="pathSk2v596cn3tlz" kvg:type="㇕" d="M47.13,16.55c2.11,0.85,4.2,0.59,6.37,0.41c7.3-0.59,25.45-2.42,26.64-2.6c1.46-0.22,3.11,0.64,2.93,2.21c-0.6,5.35-2.08,12.65-2.65,17.21c-0.22,1.77-0.42,3.24-0.57,4.23" transform="matrix(1,0,0,1,896,-4)" class="stroke_order_diagram--existing_path"></path><path id="pathSk2v596cn3tm0" kvg:type="㇐c" d="M46.36,27.29c2.77,0.58,4.9,0.19,7.02,0.01c9.48-0.82,15-1.55,27.34-2.27" transform="matrix(1,0,0,1,896,-4)" class="stroke_order_diagram--existing_path"></path><path id="pathSk2v596cn3tm1" kvg:type="㇐c" d="M46.22,37.7c1.96,0.91,4.47,0.46,6.53,0.27c9.44-0.88,15.82-1.74,26.83-2.75" transform="matrix(1,0,0,1,896,-4)" class="stroke_order_diagram--existing_path"></path><path id="pathSk2v596cn3tm2" kvg:type="㇔" d="M42.25,48c-0.07,3.2-1.63,11.57-2.19,13.47" transform="matrix(1,0,0,1,896,-4)" class="stroke_order_diagram--existing_path"></path><path id="pathSk2v596cn3tm3" kvg:type="㇖b" d="M43.3,49.76c10.58-1.01,26.45-3.26,42.74-4.35c12.27-0.82,2.06,7.19,0.91,8.25" transform="matrix(1,0,0,1,896,-4)" class="stroke_order_diagram--existing_path"></path><path id="pathSk2v596cn3tm4" kvg:type="㇇" d="M50.18,61.04c2.14,0.39,3.94,0.28,6.09-0.1c4.65-0.81,14.76-2.61,17.87-3.34c3.61-0.85,5.11,0.77,3.11,3.82C68.03,75.5,54.5,87.12,40.2,93.25" transform="matrix(1,0,0,1,896,-4)" class="stroke_order_diagram--existing_path"></path><path id="kvg:06d78-s10" kvg:type="㇏" d="M47.78,66.27c6.47,0.23,21.1,14.48,35.6,23.94c3.11,2.03,5.37,2.54,8.91,3.97" transform="matrix(1,0,0,1,896,-4)" class="stroke_order_diagram--current_path"></path><path id="pathSk2v596cn3tm6" kvg:type="㇏" d="M47.78,66.27c6.47,0.23,21.1,14.48,35.6,23.94c3.11,2.03,5.37,2.54,8.91,3.97" transform="matrix(1,0,0,1,896,-4)" class="stroke_order_diagram--current_path"></path><circle cx="47.78" cy="66.27" r="8" class="stroke_order_diagram--path_start" transform="matrix(1,0,0,1,896,-4)"></circle></svg>