<svg style="width: 1200px; height: 100px;" viewbox="0 0 1200 100"><style>
.stroke_order_diagram--outer_container {
  width: 100%;
  overflow-x: auto;
  overflow-y: hidden;
}

.stroke_order_diagram--guide_line {
  fill: none;
  stroke: #ddd;
  stroke-width: 3;
  stroke-linecap: square;
  stroke-linejoin: square;
  stroke-dasharray:8, 8;
}

.stroke_order_diagram--bounding_box {
  fill: none;
  stroke: #ddd;
  stroke-width: 4;
  stroke-linecap: square;
  stroke-linejoin: square;
}

.stroke_order_diagram--current_path {
  fill: none;
  stroke: #000;
  stroke-width: 6;
  stroke-linecap: round;
  stroke-linejoin: round;
}

.stroke_order_diagram--existing_path {
  fill: none;
  stroke: #aaa;
  stroke-width: 6;
  stroke-linecap: round;
  stroke-linejoin:round;
}

.stroke_order_diagram--path_start {
  fill: rgba(255, 0, 0, 0.7);
  stroke:none
}</style><desc>Created with Snap</desc><defs></defs><line x1="1" x2="1199" y1="1" y2="1" class="stroke_order_diagram--bounding_box"></line><line x1="1" x2="1" y1="1" y2="99" class="stroke_order_diagram--bounding_box"></line><line x1="1" x2="1199" y1="99" y2="99" class="stroke_order_diagram--bounding_box"></line><line x1="0" x2="1200" y1="50" y2="50" class="stroke_order_diagram--guide_line"></line><line x1="50" x2="50" y1="1" y2="99" class="stroke_order_diagram--guide_line"></line><line x1="99" x2="99" y1="1" y2="99" class="stroke_order_diagram--bounding_box"></line><path id="kvg:06e1b-s1" kvg:type="㇔" d="M17.75,15.62c4.24,1.68,10.94,6.35,12,8.97" transform="matrix(1,0,0,1,-4,-4)" class="stroke_order_diagram--current_path"></path><path id="pathSk2v596cn171j" kvg:type="㇔" d="M17.75,15.62c4.24,1.68,10.94,6.35,12,8.97" transform="matrix(1,0,0,1,-4,-4)" class="stroke_order_diagram--current_path"></path><circle cx="17.75" cy="15.62" r="8" class="stroke_order_diagram--path_start" transform="matrix(1,0,0,1,-4,-4)"></circle><line x1="150" x2="150" y1="1" y2="99" class="stroke_order_diagram--guide_line"></line><line x1="199" x2="199" y1="1" y2="99" class="stroke_order_diagram--bounding_box"></line><path id="pathSk2v596cn171m" kvg:type="㇔" d="M17.75,15.62c4.24,1.68,10.94,6.35,12,8.97" transform="matrix(1,0,0,1,96,-4)" class="stroke_order_diagram--existing_path"></path><path id="kvg:06e1b-s2" kvg:type="㇔" d="M15,38.25c3.71,1.28,8.75,5.38,10.75,8" transform="matrix(1,0,0,1,96,-4)" class="stroke_order_diagram--current_path"></path><path id="pathSk2v596cn171o" kvg:type="㇔" d="M15,38.25c3.71,1.28,8.75,5.38,10.75,8" transform="matrix(1,0,0,1,96,-4)" class="stroke_order_diagram--current_path"></path><circle cx="15" cy="38.25" r="8" class="stroke_order_diagram--path_start" transform="matrix(1,0,0,1,96,-4)"></circle><line x1="250" x2="250" y1="1" y2="99" class="stroke_order_diagram--guide_line"></line><line x1="299" x2="299" y1="1" y2="99" class="stroke_order_diagram--bounding_box"></line><path id="pathSk2v596cn171r" kvg:type="㇔" d="M17.75,15.62c4.24,1.68,10.94,6.35,12,8.97" transform="matrix(1,0,0,1,196,-4)" class="stroke_order_diagram--existing_path"></path><path id="pathSk2v596cn171s" kvg:type="㇔" d="M15,38.25c3.71,1.28,8.75,5.38,10.75,8" transform="matrix(1,0,0,1,196,-4)" class="stroke_order_diagram--existing_path"></path><path id="kvg:06e1b-s3" kvg:type="㇀" d="M14.38,86.86c1.28,0.36,2.52,0,3.28-1.22c3.26-5.19,6.51-11.53,9.47-18.15" transform="matrix(1,0,0,1,196,-4)" class="stroke_order_diagram--current_path"></path><path id="pathSk2v596cn171u" kvg:type="㇀" d="M14.38,86.86c1.28,0.36,2.52,0,3.28-1.22c3.26-5.19,6.51-11.53,9.47-18.15" transform="matrix(1,0,0,1,196,-4)" class="stroke_order_diagram--current_path"></path><circle cx="14.38" cy="86.86" r="8" class="stroke_order_diagram--path_start" transform="matrix(1,0,0,1,196,-4)"></circle><line x1="350" x2="350" y1="1" y2="99" class="stroke_order_diagram--guide_line"></line><line x1="399" x2="399" y1="1" y2="99" class="stroke_order_diagram--bounding_box"></line><path id="pathSk2v596cn171x" kvg:type="㇔" d="M17.75,15.62c4.24,1.68,10.94,6.35,12,8.97" transform="matrix(1,0,0,1,296,-4)" class="stroke_order_diagram--existing_path"></path><path id="pathSk2v596cn171y" kvg:type="㇔" d="M15,38.25c3.71,1.28,8.75,5.38,10.75,8" transform="matrix(1,0,0,1,296,-4)" class="stroke_order_diagram--existing_path"></path><path id="pathSk2v596cn171z" kvg:type="㇀" d="M14.38,86.86c1.28,0.36,2.52,0,3.28-1.22c3.26-5.19,6.51-11.53,9.47-18.15" transform="matrix(1,0,0,1,296,-4)" class="stroke_order_diagram--existing_path"></path><path id="kvg:06e1b-s4" kvg:type="㇒" d="M40.26,33.78c0.61,0.61,0.93,1.47,0.93,2.73c0,17.48-2.32,39.5-11.89,53.52" transform="matrix(1,0,0,1,296,-4)" class="stroke_order_diagram--current_path"></path><path id="pathSk2v596cn1721" kvg:type="㇒" d="M40.26,33.78c0.61,0.61,0.93,1.47,0.93,2.73c0,17.48-2.32,39.5-11.89,53.52" transform="matrix(1,0,0,1,296,-4)" class="stroke_order_diagram--current_path"></path><circle cx="40.26" cy="33.78" r="8" class="stroke_order_diagram--path_start" transform="matrix(1,0,0,1,296,-4)"></circle><line x1="450" x2="450" y1="1" y2="99" class="stroke_order_diagram--guide_line"></line><line x1="499" x2="499" y1="1" y2="99" class="stroke_order_diagram--bounding_box"></line><path id="pathSk2v596cn1724" kvg:type="㇔" d="M17.75,15.62c4.24,1.68,10.94,6.35,12,8.97" transform="matrix(1,0,0,1,396,-4)" class="stroke_order_diagram--existing_path"></path><path id="pathSk2v596cn1725" kvg:type="㇔" d="M15,38.25c3.71,1.28,8.75,5.38,10.75,8" transform="matrix(1,0,0,1,396,-4)" class="stroke_order_diagram--existing_path"></path><path id="pathSk2v596cn1726" kvg:type="㇀" d="M14.38,86.86c1.28,0.36,2.52,0,3.28-1.22c3.26-5.19,6.51-11.53,9.47-18.15" transform="matrix(1,0,0,1,396,-4)" class="stroke_order_diagram--existing_path"></path><path id="pathSk2v596cn1727" kvg:type="㇒" d="M40.26,33.78c0.61,0.61,0.93,1.47,0.93,2.73c0,17.48-2.32,39.5-11.89,53.52" transform="matrix(1,0,0,1,396,-4)" class="stroke_order_diagram--existing_path"></path><path id="kvg:06e1b-s5" kvg:type="㇐" d="M37.9,32.94c2.91,0.49,5.31,0.15,7.82-0.17c8.55-1.1,21.07-3.05,34.37-4.21c2.3-0.2,4.9-0.49,7.23,0.1" transform="matrix(1,0,0,1,396,-4)" class="stroke_order_diagram--current_path"></path><path id="pathSk2v596cn1729" kvg:type="㇐" d="M37.9,32.94c2.91,0.49,5.31,0.15,7.82-0.17c8.55-1.1,21.07-3.05,34.37-4.21c2.3-0.2,4.9-0.49,7.23,0.1" transform="matrix(1,0,0,1,396,-4)" class="stroke_order_diagram--current_path"></path><circle cx="37.9" cy="32.94" r="8" class="stroke_order_diagram--path_start" transform="matrix(1,0,0,1,396,-4)"></circle><line x1="550" x2="550" y1="1" y2="99" class="stroke_order_diagram--guide_line"></line><line x1="599" x2="599" y1="1" y2="99" class="stroke_order_diagram--bounding_box"></line><path id="pathSk2v596cn172c" kvg:type="㇔" d="M17.75,15.62c4.24,1.68,10.94,6.35,12,8.97" transform="matrix(1,0,0,1,496,-4)" class="stroke_order_diagram--existing_path"></path><path id="pathSk2v596cn172d" kvg:type="㇔" d="M15,38.25c3.71,1.28,8.75,5.38,10.75,8" transform="matrix(1,0,0,1,496,-4)" class="stroke_order_diagram--existing_path"></path><path id="pathSk2v596cn172e" kvg:type="㇀" d="M14.38,86.86c1.28,0.36,2.52,0,3.28-1.22c3.26-5.19,6.51-11.53,9.47-18.15" transform="matrix(1,0,0,1,496,-4)" class="stroke_order_diagram--existing_path"></path><path id="pathSk2v596cn172f" kvg:type="㇒" d="M40.26,33.78c0.61,0.61,0.93,1.47,0.93,2.73c0,17.48-2.32,39.5-11.89,53.52" transform="matrix(1,0,0,1,496,-4)" class="stroke_order_diagram--existing_path"></path><path id="pathSk2v596cn172g" kvg:type="㇐" d="M37.9,32.94c2.91,0.49,5.31,0.15,7.82-0.17c8.55-1.1,21.07-3.05,34.37-4.21c2.3-0.2,4.9-0.49,7.23,0.1" transform="matrix(1,0,0,1,496,-4)" class="stroke_order_diagram--existing_path"></path><path id="kvg:06e1b-s6" kvg:type="㇐" d="M47.25,48.73c1.5,0.27,2.86,0.1,3.78-0.07c3.25-0.59,6.84-1.41,9.76-2.03c1.5-0.32,2.84-0.36,3.61-0.14" transform="matrix(1,0,0,1,496,-4)" class="stroke_order_diagram--current_path"></path><path id="pathSk2v596cn172i" kvg:type="㇐" d="M47.25,48.73c1.5,0.27,2.86,0.1,3.78-0.07c3.25-0.59,6.84-1.41,9.76-2.03c1.5-0.32,2.84-0.36,3.61-0.14" transform="matrix(1,0,0,1,496,-4)" class="stroke_order_diagram--current_path"></path><circle cx="47.25" cy="48.73" r="8" class="stroke_order_diagram--path_start" transform="matrix(1,0,0,1,496,-4)"></circle><line x1="650" x2="650" y1="1" y2="99" class="stroke_order_diagram--guide_line"></line><line x1="699" x2="699" y1="1" y2="99" class="stroke_order_diagram--bounding_box"></line><path id="pathSk2v596cn172l" kvg:type="㇔" d="M17.75,15.62c4.24,1.68,10.94,6.35,12,8.97" transform="matrix(1,0,0,1,596,-4)" class="stroke_order_diagram--existing_path"></path><path id="pathSk2v596cn172m" kvg:type="㇔" d="M15,38.25c3.71,1.28,8.75,5.38,10.75,8" transform="matrix(1,0,0,1,596,-4)" class="stroke_order_diagram--existing_path"></path><path id="pathSk2v596cn172n" kvg:type="㇀" d="M14.38,86.86c1.28,0.36,2.52,0,3.28-1.22c3.26-5.19,6.51-11.53,9.47-18.15" transform="matrix(1,0,0,1,596,-4)" class="stroke_order_diagram--existing_path"></path><path id="pathSk2v596cn172o" kvg:type="㇒" d="M40.26,33.78c0.61,0.61,0.93,1.47,0.93,2.73c0,17.48-2.32,39.5-11.89,53.52" transform="matrix(1,0,0,1,596,-4)" class="stroke_order_diagram--existing_path"></path><path id="pathSk2v596cn172p" kvg:type="㇐" d="M37.9,32.94c2.91,0.49,5.31,0.15,7.82-0.17c8.55-1.1,21.07-3.05,34.37-4.21c2.3-0.2,4.9-0.49,7.23,0.1" transform="matrix(1,0,0,1,596,-4)" class="stroke_order_diagram--existing_path"></path><path id="pathSk2v596cn172q" kvg:type="㇐" d="M47.25,48.73c1.5,0.27,2.86,0.1,3.78-0.07c3.25-0.59,6.84-1.41,9.76-2.03c1.5-0.32,2.84-0.36,3.61-0.14" transform="matrix(1,0,0,1,596,-4)" class="stroke_order_diagram--existing_path"></path><path id="kvg:06e1b-s7" kvg:type="㇑" d="M45.75,61.11c0.88,0.88,1.36,1.88,1.4,3.04c0.58,2.95,1.04,7.12,1.49,11.35c0.16,1.49,0.31,2.49,0.46,3.95" transform="matrix(1,0,0,1,596,-4)" class="stroke_order_diagram--current_path"></path><path id="pathSk2v596cn172s" kvg:type="㇑" d="M45.75,61.11c0.88,0.88,1.36,1.88,1.4,3.04c0.58,2.95,1.04,7.12,1.49,11.35c0.16,1.49,0.31,2.49,0.46,3.95" transform="matrix(1,0,0,1,596,-4)" class="stroke_order_diagram--current_path"></path><circle cx="45.75" cy="61.11" r="8" class="stroke_order_diagram--path_start" transform="matrix(1,0,0,1,596,-4)"></circle><line x1="750" x2="750" y1="1" y2="99" class="stroke_order_diagram--guide_line"></line><line x1="799" x2="799" y1="1" y2="99" class="stroke_order_diagram--bounding_box"></line><path id="pathSk2v596cn172v" kvg:type="㇔" d="M17.75,15.62c4.24,1.68,10.94,6.35,12,8.97" transform="matrix(1,0,0,1,696,-4)" class="stroke_order_diagram--existing_path"></path><path id="pathSk2v596cn172w" kvg:type="㇔" d="M15,38.25c3.71,1.28,8.75,5.38,10.75,8" transform="matrix(1,0,0,1,696,-4)" class="stroke_order_diagram--existing_path"></path><path id="pathSk2v596cn172x" kvg:type="㇀" d="M14.38,86.86c1.28,0.36,2.52,0,3.28-1.22c3.26-5.19,6.51-11.53,9.47-18.15" transform="matrix(1,0,0,1,696,-4)" class="stroke_order_diagram--existing_path"></path><path id="pathSk2v596cn172y" kvg:type="㇒" d="M40.26,33.78c0.61,0.61,0.93,1.47,0.93,2.73c0,17.48-2.32,39.5-11.89,53.52" transform="matrix(1,0,0,1,696,-4)" class="stroke_order_diagram--existing_path"></path><path id="pathSk2v596cn172z" kvg:type="㇐" d="M37.9,32.94c2.91,0.49,5.31,0.15,7.82-0.17c8.55-1.1,21.07-3.05,34.37-4.21c2.3-0.2,4.9-0.49,7.23,0.1" transform="matrix(1,0,0,1,696,-4)" class="stroke_order_diagram--existing_path"></path><path id="pathSk2v596cn1730" kvg:type="㇐" d="M47.25,48.73c1.5,0.27,2.86,0.1,3.78-0.07c3.25-0.59,6.84-1.41,9.76-2.03c1.5-0.32,2.84-0.36,3.61-0.14" transform="matrix(1,0,0,1,696,-4)" class="stroke_order_diagram--existing_path"></path><path id="pathSk2v596cn1731" kvg:type="㇑" d="M45.75,61.11c0.88,0.88,1.36,1.88,1.4,3.04c0.58,2.95,1.04,7.12,1.49,11.35c0.16,1.49,0.31,2.49,0.46,3.95" transform="matrix(1,0,0,1,696,-4)" class="stroke_order_diagram--existing_path"></path><path id="kvg:06e1b-s8" kvg:type="㇕b" d="M48.1,62.35c5.91-1.19,9.8-2.35,13.27-2.95c2.61-0.45,4.19,0.5,3.6,3.37c-0.7,3.43-1.1,4.99-2.25,10.2" transform="matrix(1,0,0,1,696,-4)" class="stroke_order_diagram--current_path"></path><path id="pathSk2v596cn1733" kvg:type="㇕b" d="M48.1,62.35c5.91-1.19,9.8-2.35,13.27-2.95c2.61-0.45,4.19,0.5,3.6,3.37c-0.7,3.43-1.1,4.99-2.25,10.2" transform="matrix(1,0,0,1,696,-4)" class="stroke_order_diagram--current_path"></path><circle cx="48.1" cy="62.35" r="8" class="stroke_order_diagram--path_start" transform="matrix(1,0,0,1,696,-4)"></circle><line x1="850" x2="850" y1="1" y2="99" class="stroke_order_diagram--guide_line"></line><line x1="899" x2="899" y1="1" y2="99" class="stroke_order_diagram--bounding_box"></line><path id="pathSk2v596cn1736" kvg:type="㇔" d="M17.75,15.62c4.24,1.68,10.94,6.35,12,8.97" transform="matrix(1,0,0,1,796,-4)" class="stroke_order_diagram--existing_path"></path><path id="pathSk2v596cn1737" kvg:type="㇔" d="M15,38.25c3.71,1.28,8.75,5.38,10.75,8" transform="matrix(1,0,0,1,796,-4)" class="stroke_order_diagram--existing_path"></path><path id="pathSk2v596cn1738" kvg:type="㇀" d="M14.38,86.86c1.28,0.36,2.52,0,3.28-1.22c3.26-5.19,6.51-11.53,9.47-18.15" transform="matrix(1,0,0,1,796,-4)" class="stroke_order_diagram--existing_path"></path><path id="pathSk2v596cn1739" kvg:type="㇒" d="M40.26,33.78c0.61,0.61,0.93,1.47,0.93,2.73c0,17.48-2.32,39.5-11.89,53.52" transform="matrix(1,0,0,1,796,-4)" class="stroke_order_diagram--existing_path"></path><path id="pathSk2v596cn173a" kvg:type="㇐" d="M37.9,32.94c2.91,0.49,5.31,0.15,7.82-0.17c8.55-1.1,21.07-3.05,34.37-4.21c2.3-0.2,4.9-0.49,7.23,0.1" transform="matrix(1,0,0,1,796,-4)" class="stroke_order_diagram--existing_path"></path><path id="pathSk2v596cn173b" kvg:type="㇐" d="M47.25,48.73c1.5,0.27,2.86,0.1,3.78-0.07c3.25-0.59,6.84-1.41,9.76-2.03c1.5-0.32,2.84-0.36,3.61-0.14" transform="matrix(1,0,0,1,796,-4)" class="stroke_order_diagram--existing_path"></path><path id="pathSk2v596cn173c" kvg:type="㇑" d="M45.75,61.11c0.88,0.88,1.36,1.88,1.4,3.04c0.58,2.95,1.04,7.12,1.49,11.35c0.16,1.49,0.31,2.49,0.46,3.95" transform="matrix(1,0,0,1,796,-4)" class="stroke_order_diagram--existing_path"></path><path id="pathSk2v596cn173d" kvg:type="㇕b" d="M48.1,62.35c5.91-1.19,9.8-2.35,13.27-2.95c2.61-0.45,4.19,0.5,3.6,3.37c-0.7,3.43-1.1,4.99-2.25,10.2" transform="matrix(1,0,0,1,796,-4)" class="stroke_order_diagram--existing_path"></path><path id="kvg:06e1b-s9" kvg:type="㇐b" d="M50.15,76.38c4.36-0.79,7.15-1.42,11.21-2.08c1.15-0.19,2.39-0.38,3.81-0.58" transform="matrix(1,0,0,1,796,-4)" class="stroke_order_diagram--current_path"></path><path id="pathSk2v596cn173f" kvg:type="㇐b" d="M50.15,76.38c4.36-0.79,7.15-1.42,11.21-2.08c1.15-0.19,2.39-0.38,3.81-0.58" transform="matrix(1,0,0,1,796,-4)" class="stroke_order_diagram--current_path"></path><circle cx="50.15" cy="76.38" r="8" class="stroke_order_diagram--path_start" transform="matrix(1,0,0,1,796,-4)"></circle><line x1="950" x2="950" y1="1" y2="99" class="stroke_order_diagram--guide_line"></line><line x1="999" x2="999" y1="1" y2="99" class="stroke_order_diagram--bounding_box"></line><path id="pathSk2v596cn173i" kvg:type="㇔" d="M17.75,15.62c4.24,1.68,10.94,6.35,12,8.97" transform="matrix(1,0,0,1,896,-4)" class="stroke_order_diagram--existing_path"></path><path id="pathSk2v596cn173j" kvg:type="㇔" d="M15,38.25c3.71,1.28,8.75,5.38,10.75,8" transform="matrix(1,0,0,1,896,-4)" class="stroke_order_diagram--existing_path"></path><path id="pathSk2v596cn173k" kvg:type="㇀" d="M14.38,86.86c1.28,0.36,2.52,0,3.28-1.22c3.26-5.19,6.51-11.53,9.47-18.15" transform="matrix(1,0,0,1,896,-4)" class="stroke_order_diagram--existing_path"></path><path id="pathSk2v596cn173l" kvg:type="㇒" d="M40.26,33.78c0.61,0.61,0.93,1.47,0.93,2.73c0,17.48-2.32,39.5-11.89,53.52" transform="matrix(1,0,0,1,896,-4)" class="stroke_order_diagram--existing_path"></path><path id="pathSk2v596cn173m" kvg:type="㇐" d="M37.9,32.94c2.91,0.49,5.31,0.15,7.82-0.17c8.55-1.1,21.07-3.05,34.37-4.21c2.3-0.2,4.9-0.49,7.23,0.1" transform="matrix(1,0,0,1,896,-4)" class="stroke_order_diagram--existing_path"></path><path id="pathSk2v596cn173n" kvg:type="㇐" d="M47.25,48.73c1.5,0.27,2.86,0.1,3.78-0.07c3.25-0.59,6.84-1.41,9.76-2.03c1.5-0.32,2.84-0.36,3.61-0.14" transform="matrix(1,0,0,1,896,-4)" class="stroke_order_diagram--existing_path"></path><path id="pathSk2v596cn173o" kvg:type="㇑" d="M45.75,61.11c0.88,0.88,1.36,1.88,1.4,3.04c0.58,2.95,1.04,7.12,1.49,11.35c0.16,1.49,0.31,2.49,0.46,3.95" transform="matrix(1,0,0,1,896,-4)" class="stroke_order_diagram--existing_path"></path><path id="pathSk2v596cn173p" kvg:type="㇕b" d="M48.1,62.35c5.91-1.19,9.8-2.35,13.27-2.95c2.61-0.45,4.19,0.5,3.6,3.37c-0.7,3.43-1.1,4.99-2.25,10.2" transform="matrix(1,0,0,1,896,-4)" class="stroke_order_diagram--existing_path"></path><path id="pathSk2v596cn173q" kvg:type="㇐b" d="M50.15,76.38c4.36-0.79,7.15-1.42,11.21-2.08c1.15-0.19,2.39-0.38,3.81-0.58" transform="matrix(1,0,0,1,896,-4)" class="stroke_order_diagram--existing_path"></path><path id="kvg:06e1b-s10" kvg:type="㇂" d="M64,12.75c1.43,1.66,2.11,3.26,2.33,5.95c2.29,27.92,9.42,56.3,23.84,71.22c4.63,4.8,4.76,1.07,4.04-6.29" transform="matrix(1,0,0,1,896,-4)" class="stroke_order_diagram--current_path"></path><path id="pathSk2v596cn173s" kvg:type="㇂" d="M64,12.75c1.43,1.66,2.11,3.26,2.33,5.95c2.29,27.92,9.42,56.3,23.84,71.22c4.63,4.8,4.76,1.07,4.04-6.29" transform="matrix(1,0,0,1,896,-4)" class="stroke_order_diagram--current_path"></path><circle cx="64" cy="12.75" r="8" class="stroke_order_diagram--path_start" transform="matrix(1,0,0,1,896,-4)"></circle><line x1="1050" x2="1050" y1="1" y2="99" class="stroke_order_diagram--guide_line"></line><line x1="1099" x2="1099" y1="1" y2="99" class="stroke_order_diagram--bounding_box"></line><path id="pathSk2v596cn173v" kvg:type="㇔" d="M17.75,15.62c4.24,1.68,10.94,6.35,12,8.97" transform="matrix(1,0,0,1,996,-4)" class="stroke_order_diagram--existing_path"></path><path id="pathSk2v596cn173w" kvg:type="㇔" d="M15,38.25c3.71,1.28,8.75,5.38,10.75,8" transform="matrix(1,0,0,1,996,-4)" class="stroke_order_diagram--existing_path"></path><path id="pathSk2v596cn173x" kvg:type="㇀" d="M14.38,86.86c1.28,0.36,2.52,0,3.28-1.22c3.26-5.19,6.51-11.53,9.47-18.15" transform="matrix(1,0,0,1,996,-4)" class="stroke_order_diagram--existing_path"></path><path id="pathSk2v596cn173y" kvg:type="㇒" d="M40.26,33.78c0.61,0.61,0.93,1.47,0.93,2.73c0,17.48-2.32,39.5-11.89,53.52" transform="matrix(1,0,0,1,996,-4)" class="stroke_order_diagram--existing_path"></path><path id="pathSk2v596cn173z" kvg:type="㇐" d="M37.9,32.94c2.91,0.49,5.31,0.15,7.82-0.17c8.55-1.1,21.07-3.05,34.37-4.21c2.3-0.2,4.9-0.49,7.23,0.1" transform="matrix(1,0,0,1,996,-4)" class="stroke_order_diagram--existing_path"></path><path id="pathSk2v596cn1740" kvg:type="㇐" d="M47.25,48.73c1.5,0.27,2.86,0.1,3.78-0.07c3.25-0.59,6.84-1.41,9.76-2.03c1.5-0.32,2.84-0.36,3.61-0.14" transform="matrix(1,0,0,1,996,-4)" class="stroke_order_diagram--existing_path"></path><path id="pathSk2v596cn1741" kvg:type="㇑" d="M45.75,61.11c0.88,0.88,1.36,1.88,1.4,3.04c0.58,2.95,1.04,7.12,1.49,11.35c0.16,1.49,0.31,2.49,0.46,3.95" transform="matrix(1,0,0,1,996,-4)" class="stroke_order_diagram--existing_path"></path><path id="pathSk2v596cn1742" kvg:type="㇕b" d="M48.1,62.35c5.91-1.19,9.8-2.35,13.27-2.95c2.61-0.45,4.19,0.5,3.6,3.37c-0.7,3.43-1.1,4.99-2.25,10.2" transform="matrix(1,0,0,1,996,-4)" class="stroke_order_diagram--existing_path"></path><path id="pathSk2v596cn1743" kvg:type="㇐b" d="M50.15,76.38c4.36-0.79,7.15-1.42,11.21-2.08c1.15-0.19,2.39-0.38,3.81-0.58" transform="matrix(1,0,0,1,996,-4)" class="stroke_order_diagram--existing_path"></path><path id="pathSk2v596cn1744" kvg:type="㇂" d="M64,12.75c1.43,1.66,2.11,3.26,2.33,5.95c2.29,27.92,9.42,56.3,23.84,71.22c4.63,4.8,4.76,1.07,4.04-6.29" transform="matrix(1,0,0,1,996,-4)" class="stroke_order_diagram--existing_path"></path><path id="kvg:06e1b-s11" kvg:type="㇒" d="M85.59,41.62c0.29,1.01,0.12,2.34-0.12,3.92c-1.42,9.32-9.22,31.34-20.67,43.33" transform="matrix(1,0,0,1,996,-4)" class="stroke_order_diagram--current_path"></path><path id="pathSk2v596cn1746" kvg:type="㇒" d="M85.59,41.62c0.29,1.01,0.12,2.34-0.12,3.92c-1.42,9.32-9.22,31.34-20.67,43.33" transform="matrix(1,0,0,1,996,-4)" class="stroke_order_diagram--current_path"></path><circle cx="85.59" cy="41.62" r="8" class="stroke_order_diagram--path_start" transform="matrix(1,0,0,1,996,-4)"></circle><line x1="1150" x2="1150" y1="1" y2="99" class="stroke_order_diagram--guide_line"></line><line x1="1199" x2="1199" y1="1" y2="99" class="stroke_order_diagram--bounding_box"></line><path id="pathSk2v596cn1749" kvg:type="㇔" d="M17.75,15.62c4.24,1.68,10.94,6.35,12,8.97" transform="matrix(1,0,0,1,1096,-4)" class="stroke_order_diagram--existing_path"></path><path id="pathSk2v596cn174a" kvg:type="㇔" d="M15,38.25c3.71,1.28,8.75,5.38,10.75,8" transform="matrix(1,0,0,1,1096,-4)" class="stroke_order_diagram--existing_path"></path><path id="pathSk2v596cn174b" kvg:type="㇀" d="M14.38,86.86c1.28,0.36,2.52,0,3.28-1.22c3.26-5.19,6.51-11.53,9.47-18.15" transform="matrix(1,0,0,1,1096,-4)" class="stroke_order_diagram--existing_path"></path><path id="pathSk2v596cn174c" kvg:type="㇒" d="M40.26,33.78c0.61,0.61,0.93,1.47,0.93,2.73c0,17.48-2.32,39.5-11.89,53.52" transform="matrix(1,0,0,1,1096,-4)" class="stroke_order_diagram--existing_path"></path><path id="pathSk2v596cn174d" kvg:type="㇐" d="M37.9,32.94c2.91,0.49,5.31,0.15,7.82-0.17c8.55-1.1,21.07-3.05,34.37-4.21c2.3-0.2,4.9-0.49,7.23,0.1" transform="matrix(1,0,0,1,1096,-4)" class="stroke_order_diagram--existing_path"></path><path id="pathSk2v596cn174e" kvg:type="㇐" d="M47.25,48.73c1.5,0.27,2.86,0.1,3.78-0.07c3.25-0.59,6.84-1.41,9.76-2.03c1.5-0.32,2.84-0.36,3.61-0.14" transform="matrix(1,0,0,1,1096,-4)" class="stroke_order_diagram--existing_path"></path><path id="pathSk2v596cn174f" kvg:type="㇑" d="M45.75,61.11c0.88,0.88,1.36,1.88,1.4,3.04c0.58,2.95,1.04,7.12,1.49,11.35c0.16,1.49,0.31,2.49,0.46,3.95" transform="matrix(1,0,0,1,1096,-4)" class="stroke_order_diagram--existing_path"></path><path id="pathSk2v596cn174g" kvg:type="㇕b" d="M48.1,62.35c5.91-1.19,9.8-2.35,13.27-2.95c2.61-0.45,4.19,0.5,3.6,3.37c-0.7,3.43-1.1,4.99-2.25,10.2" transform="matrix(1,0,0,1,1096,-4)" class="stroke_order_diagram--existing_path"></path><path id="pathSk2v596cn174h" kvg:type="㇐b" d="M50.15,76.38c4.36-0.79,7.15-1.42,11.21-2.08c1.15-0.19,2.39-0.38,3.81-0.58" transform="matrix(1,0,0,1,1096,-4)" class="stroke_order_diagram--existing_path"></path><path id="pathSk2v596cn174i" kvg:type="㇂" d="M64,12.75c1.43,1.66,2.11,3.26,2.33,5.95c2.29,27.92,9.42,56.3,23.84,71.22c4.63,4.8,4.76,1.07,4.04-6.29" transform="matrix(1,0,0,1,1096,-4)" class="stroke_order_diagram--existing_path"></path><path id="pathSk2v596cn174j" kvg:type="㇒" d="M85.59,41.62c0.29,1.01,0.12,2.34-0.12,3.92c-1.42,9.32-9.22,31.34-20.67,43.33" transform="matrix(1,0,0,1,1096,-4)" class="stroke_order_diagram--existing_path"></path><path id="kvg:06e1b-s12" kvg:type="㇔" d="M75.53,11.24c2.83,1.58,7.35,5.2,8.67,7.92" transform="matrix(1,0,0,1,1096,-4)" class="stroke_order_diagram--current_path"></path><path id="pathSk2v596cn174l" kvg:type="㇔" d="M75.53,11.24c2.83,1.58,7.35,5.2,8.67,7.92" transform="matrix(1,0,0,1,1096,-4)" class="stroke_order_diagram--current_path"></path><circle cx="75.53" cy="11.24" r="8" class="stroke_order_diagram--path_start" transform="matrix(1,0,0,1,1096,-4)"></circle></svg>