<svg style="width: 1100px; height: 100px;" viewbox="0 0 1100 100"><style>
.stroke_order_diagram--outer_container {
  width: 100%;
  overflow-x: auto;
  overflow-y: hidden;
}

.stroke_order_diagram--guide_line {
  fill: none;
  stroke: #ddd;
  stroke-width: 3;
  stroke-linecap: square;
  stroke-linejoin: square;
  stroke-dasharray:8, 8;
}

.stroke_order_diagram--bounding_box {
  fill: none;
  stroke: #ddd;
  stroke-width: 4;
  stroke-linecap: square;
  stroke-linejoin: square;
}

.stroke_order_diagram--current_path {
  fill: none;
  stroke: #000;
  stroke-width: 6;
  stroke-linecap: round;
  stroke-linejoin: round;
}

.stroke_order_diagram--existing_path {
  fill: none;
  stroke: #aaa;
  stroke-width: 6;
  stroke-linecap: round;
  stroke-linejoin:round;
}

.stroke_order_diagram--path_start {
  fill: rgba(255, 0, 0, 0.7);
  stroke:none
}</style><desc>Created with Snap</desc><defs></defs><line x1="1" x2="1099" y1="1" y2="1" class="stroke_order_diagram--bounding_box"></line><line x1="1" x2="1" y1="1" y2="99" class="stroke_order_diagram--bounding_box"></line><line x1="1" x2="1099" y1="99" y2="99" class="stroke_order_diagram--bounding_box"></line><line x1="0" x2="1100" y1="50" y2="50" class="stroke_order_diagram--guide_line"></line><line x1="50" x2="50" y1="1" y2="99" class="stroke_order_diagram--guide_line"></line><line x1="99" x2="99" y1="1" y2="99" class="stroke_order_diagram--bounding_box"></line><path id="kvg:06e13-s1" kvg:type="㇔" d="M16.5,16.25c4.24,1.6,10.94,6.6,12,9.09" transform="matrix(1,0,0,1,-4,-4)" class="stroke_order_diagram--current_path"></path><path id="pathSk2v596cn4wb5" kvg:type="㇔" d="M16.5,16.25c4.24,1.6,10.94,6.6,12,9.09" transform="matrix(1,0,0,1,-4,-4)" class="stroke_order_diagram--current_path"></path><circle cx="16.5" cy="16.25" r="8" class="stroke_order_diagram--path_start" transform="matrix(1,0,0,1,-4,-4)"></circle><line x1="150" x2="150" y1="1" y2="99" class="stroke_order_diagram--guide_line"></line><line x1="199" x2="199" y1="1" y2="99" class="stroke_order_diagram--bounding_box"></line><path id="pathSk2v596cn4wb8" kvg:type="㇔" d="M16.5,16.25c4.24,1.6,10.94,6.6,12,9.09" transform="matrix(1,0,0,1,96,-4)" class="stroke_order_diagram--existing_path"></path><path id="kvg:06e13-s2" kvg:type="㇔" d="M12.38,40.75c4.1,1.59,10.6,6.53,11.62,9" transform="matrix(1,0,0,1,96,-4)" class="stroke_order_diagram--current_path"></path><path id="pathSk2v596cn4wba" kvg:type="㇔" d="M12.38,40.75c4.1,1.59,10.6,6.53,11.62,9" transform="matrix(1,0,0,1,96,-4)" class="stroke_order_diagram--current_path"></path><circle cx="12.38" cy="40.75" r="8" class="stroke_order_diagram--path_start" transform="matrix(1,0,0,1,96,-4)"></circle><line x1="250" x2="250" y1="1" y2="99" class="stroke_order_diagram--guide_line"></line><line x1="299" x2="299" y1="1" y2="99" class="stroke_order_diagram--bounding_box"></line><path id="pathSk2v596cn4wbd" kvg:type="㇔" d="M16.5,16.25c4.24,1.6,10.94,6.6,12,9.09" transform="matrix(1,0,0,1,196,-4)" class="stroke_order_diagram--existing_path"></path><path id="pathSk2v596cn4wbe" kvg:type="㇔" d="M12.38,40.75c4.1,1.59,10.6,6.53,11.62,9" transform="matrix(1,0,0,1,196,-4)" class="stroke_order_diagram--existing_path"></path><path id="kvg:06e13-s3" kvg:type="㇀" d="M13.81,87.4c1.22,0.55,2.46,0.3,3.19-0.95C19.75,81.75,22.5,76,25,70" transform="matrix(1,0,0,1,196,-4)" class="stroke_order_diagram--current_path"></path><path id="pathSk2v596cn4wbg" kvg:type="㇀" d="M13.81,87.4c1.22,0.55,2.46,0.3,3.19-0.95C19.75,81.75,22.5,76,25,70" transform="matrix(1,0,0,1,196,-4)" class="stroke_order_diagram--current_path"></path><circle cx="13.81" cy="87.4" r="8" class="stroke_order_diagram--path_start" transform="matrix(1,0,0,1,196,-4)"></circle><line x1="350" x2="350" y1="1" y2="99" class="stroke_order_diagram--guide_line"></line><line x1="399" x2="399" y1="1" y2="99" class="stroke_order_diagram--bounding_box"></line><path id="pathSk2v596cn4wbj" kvg:type="㇔" d="M16.5,16.25c4.24,1.6,10.94,6.6,12,9.09" transform="matrix(1,0,0,1,296,-4)" class="stroke_order_diagram--existing_path"></path><path id="pathSk2v596cn4wbk" kvg:type="㇔" d="M12.38,40.75c4.1,1.59,10.6,6.53,11.62,9" transform="matrix(1,0,0,1,296,-4)" class="stroke_order_diagram--existing_path"></path><path id="pathSk2v596cn4wbl" kvg:type="㇀" d="M13.81,87.4c1.22,0.55,2.46,0.3,3.19-0.95C19.75,81.75,22.5,76,25,70" transform="matrix(1,0,0,1,296,-4)" class="stroke_order_diagram--existing_path"></path><path id="kvg:06e13-s4" kvg:type="㇒" d="M75.47,10.89c0,1.11-0.63,1.85-1.39,2.35C70,15.9,58.24,20.61,42.81,23.47" transform="matrix(1,0,0,1,296,-4)" class="stroke_order_diagram--current_path"></path><path id="pathSk2v596cn4wbn" kvg:type="㇒" d="M75.47,10.89c0,1.11-0.63,1.85-1.39,2.35C70,15.9,58.24,20.61,42.81,23.47" transform="matrix(1,0,0,1,296,-4)" class="stroke_order_diagram--current_path"></path><circle cx="75.47" cy="10.89" r="8" class="stroke_order_diagram--path_start" transform="matrix(1,0,0,1,296,-4)"></circle><line x1="450" x2="450" y1="1" y2="99" class="stroke_order_diagram--guide_line"></line><line x1="499" x2="499" y1="1" y2="99" class="stroke_order_diagram--bounding_box"></line><path id="pathSk2v596cn4wbq" kvg:type="㇔" d="M16.5,16.25c4.24,1.6,10.94,6.6,12,9.09" transform="matrix(1,0,0,1,396,-4)" class="stroke_order_diagram--existing_path"></path><path id="pathSk2v596cn4wbr" kvg:type="㇔" d="M12.38,40.75c4.1,1.59,10.6,6.53,11.62,9" transform="matrix(1,0,0,1,396,-4)" class="stroke_order_diagram--existing_path"></path><path id="pathSk2v596cn4wbs" kvg:type="㇀" d="M13.81,87.4c1.22,0.55,2.46,0.3,3.19-0.95C19.75,81.75,22.5,76,25,70" transform="matrix(1,0,0,1,396,-4)" class="stroke_order_diagram--existing_path"></path><path id="pathSk2v596cn4wbt" kvg:type="㇒" d="M75.47,10.89c0,1.11-0.63,1.85-1.39,2.35C70,15.9,58.24,20.61,42.81,23.47" transform="matrix(1,0,0,1,396,-4)" class="stroke_order_diagram--existing_path"></path><path id="kvg:06e13-s5" kvg:type="㇔" d="M40.02,32.33c2.4,1.7,6.19,6.99,6.79,9.63" transform="matrix(1,0,0,1,396,-4)" class="stroke_order_diagram--current_path"></path><path id="pathSk2v596cn4wbv" kvg:type="㇔" d="M40.02,32.33c2.4,1.7,6.19,6.99,6.79,9.63" transform="matrix(1,0,0,1,396,-4)" class="stroke_order_diagram--current_path"></path><circle cx="40.02" cy="32.33" r="8" class="stroke_order_diagram--path_start" transform="matrix(1,0,0,1,396,-4)"></circle><line x1="550" x2="550" y1="1" y2="99" class="stroke_order_diagram--guide_line"></line><line x1="599" x2="599" y1="1" y2="99" class="stroke_order_diagram--bounding_box"></line><path id="pathSk2v596cn4wby" kvg:type="㇔" d="M16.5,16.25c4.24,1.6,10.94,6.6,12,9.09" transform="matrix(1,0,0,1,496,-4)" class="stroke_order_diagram--existing_path"></path><path id="pathSk2v596cn4wbz" kvg:type="㇔" d="M12.38,40.75c4.1,1.59,10.6,6.53,11.62,9" transform="matrix(1,0,0,1,496,-4)" class="stroke_order_diagram--existing_path"></path><path id="pathSk2v596cn4wc0" kvg:type="㇀" d="M13.81,87.4c1.22,0.55,2.46,0.3,3.19-0.95C19.75,81.75,22.5,76,25,70" transform="matrix(1,0,0,1,496,-4)" class="stroke_order_diagram--existing_path"></path><path id="pathSk2v596cn4wc1" kvg:type="㇒" d="M75.47,10.89c0,1.11-0.63,1.85-1.39,2.35C70,15.9,58.24,20.61,42.81,23.47" transform="matrix(1,0,0,1,496,-4)" class="stroke_order_diagram--existing_path"></path><path id="pathSk2v596cn4wc2" kvg:type="㇔" d="M40.02,32.33c2.4,1.7,6.19,6.99,6.79,9.63" transform="matrix(1,0,0,1,496,-4)" class="stroke_order_diagram--existing_path"></path><path id="kvg:06e13-s6" kvg:type="㇔" d="M56.25,27.62c2.49,1.87,6.44,7.69,7.06,10.59" transform="matrix(1,0,0,1,496,-4)" class="stroke_order_diagram--current_path"></path><path id="pathSk2v596cn4wc4" kvg:type="㇔" d="M56.25,27.62c2.49,1.87,6.44,7.69,7.06,10.59" transform="matrix(1,0,0,1,496,-4)" class="stroke_order_diagram--current_path"></path><circle cx="56.25" cy="27.62" r="8" class="stroke_order_diagram--path_start" transform="matrix(1,0,0,1,496,-4)"></circle><line x1="650" x2="650" y1="1" y2="99" class="stroke_order_diagram--guide_line"></line><line x1="699" x2="699" y1="1" y2="99" class="stroke_order_diagram--bounding_box"></line><path id="pathSk2v596cn4wc7" kvg:type="㇔" d="M16.5,16.25c4.24,1.6,10.94,6.6,12,9.09" transform="matrix(1,0,0,1,596,-4)" class="stroke_order_diagram--existing_path"></path><path id="pathSk2v596cn4wc8" kvg:type="㇔" d="M12.38,40.75c4.1,1.59,10.6,6.53,11.62,9" transform="matrix(1,0,0,1,596,-4)" class="stroke_order_diagram--existing_path"></path><path id="pathSk2v596cn4wc9" kvg:type="㇀" d="M13.81,87.4c1.22,0.55,2.46,0.3,3.19-0.95C19.75,81.75,22.5,76,25,70" transform="matrix(1,0,0,1,596,-4)" class="stroke_order_diagram--existing_path"></path><path id="pathSk2v596cn4wca" kvg:type="㇒" d="M75.47,10.89c0,1.11-0.63,1.85-1.39,2.35C70,15.9,58.24,20.61,42.81,23.47" transform="matrix(1,0,0,1,596,-4)" class="stroke_order_diagram--existing_path"></path><path id="pathSk2v596cn4wcb" kvg:type="㇔" d="M40.02,32.33c2.4,1.7,6.19,6.99,6.79,9.63" transform="matrix(1,0,0,1,596,-4)" class="stroke_order_diagram--existing_path"></path><path id="pathSk2v596cn4wcc" kvg:type="㇔" d="M56.25,27.62c2.49,1.87,6.44,7.69,7.06,10.59" transform="matrix(1,0,0,1,596,-4)" class="stroke_order_diagram--existing_path"></path><path id="kvg:06e13-s7" kvg:type="㇒" d="M86.77,24.14c0.11,0.89-0.04,1.73-0.46,2.51C84,30.25,79.88,35.12,73.25,40" transform="matrix(1,0,0,1,596,-4)" class="stroke_order_diagram--current_path"></path><path id="pathSk2v596cn4wce" kvg:type="㇒" d="M86.77,24.14c0.11,0.89-0.04,1.73-0.46,2.51C84,30.25,79.88,35.12,73.25,40" transform="matrix(1,0,0,1,596,-4)" class="stroke_order_diagram--current_path"></path><circle cx="86.77" cy="24.14" r="8" class="stroke_order_diagram--path_start" transform="matrix(1,0,0,1,596,-4)"></circle><line x1="750" x2="750" y1="1" y2="99" class="stroke_order_diagram--guide_line"></line><line x1="799" x2="799" y1="1" y2="99" class="stroke_order_diagram--bounding_box"></line><path id="pathSk2v596cn4wch" kvg:type="㇔" d="M16.5,16.25c4.24,1.6,10.94,6.6,12,9.09" transform="matrix(1,0,0,1,696,-4)" class="stroke_order_diagram--existing_path"></path><path id="pathSk2v596cn4wci" kvg:type="㇔" d="M12.38,40.75c4.1,1.59,10.6,6.53,11.62,9" transform="matrix(1,0,0,1,696,-4)" class="stroke_order_diagram--existing_path"></path><path id="pathSk2v596cn4wcj" kvg:type="㇀" d="M13.81,87.4c1.22,0.55,2.46,0.3,3.19-0.95C19.75,81.75,22.5,76,25,70" transform="matrix(1,0,0,1,696,-4)" class="stroke_order_diagram--existing_path"></path><path id="pathSk2v596cn4wck" kvg:type="㇒" d="M75.47,10.89c0,1.11-0.63,1.85-1.39,2.35C70,15.9,58.24,20.61,42.81,23.47" transform="matrix(1,0,0,1,696,-4)" class="stroke_order_diagram--existing_path"></path><path id="pathSk2v596cn4wcl" kvg:type="㇔" d="M40.02,32.33c2.4,1.7,6.19,6.99,6.79,9.63" transform="matrix(1,0,0,1,696,-4)" class="stroke_order_diagram--existing_path"></path><path id="pathSk2v596cn4wcm" kvg:type="㇔" d="M56.25,27.62c2.49,1.87,6.44,7.69,7.06,10.59" transform="matrix(1,0,0,1,696,-4)" class="stroke_order_diagram--existing_path"></path><path id="pathSk2v596cn4wcn" kvg:type="㇒" d="M86.77,24.14c0.11,0.89-0.04,1.73-0.46,2.51C84,30.25,79.88,35.12,73.25,40" transform="matrix(1,0,0,1,696,-4)" class="stroke_order_diagram--existing_path"></path><path id="kvg:06e13-s8" kvg:type="㇐" d="M42.83,57.44c1.89,0.62,4.6,0.28,6.55,0.07c6.24-0.67,18.37-2.18,25.49-2.55c2.07-0.11,4.23-0.26,6.28,0.15" transform="matrix(1,0,0,1,696,-4)" class="stroke_order_diagram--current_path"></path><path id="pathSk2v596cn4wcp" kvg:type="㇐" d="M42.83,57.44c1.89,0.62,4.6,0.28,6.55,0.07c6.24-0.67,18.37-2.18,25.49-2.55c2.07-0.11,4.23-0.26,6.28,0.15" transform="matrix(1,0,0,1,696,-4)" class="stroke_order_diagram--current_path"></path><circle cx="42.83" cy="57.44" r="8" class="stroke_order_diagram--path_start" transform="matrix(1,0,0,1,696,-4)"></circle><line x1="850" x2="850" y1="1" y2="99" class="stroke_order_diagram--guide_line"></line><line x1="899" x2="899" y1="1" y2="99" class="stroke_order_diagram--bounding_box"></line><path id="pathSk2v596cn4wcs" kvg:type="㇔" d="M16.5,16.25c4.24,1.6,10.94,6.6,12,9.09" transform="matrix(1,0,0,1,796,-4)" class="stroke_order_diagram--existing_path"></path><path id="pathSk2v596cn4wct" kvg:type="㇔" d="M12.38,40.75c4.1,1.59,10.6,6.53,11.62,9" transform="matrix(1,0,0,1,796,-4)" class="stroke_order_diagram--existing_path"></path><path id="pathSk2v596cn4wcu" kvg:type="㇀" d="M13.81,87.4c1.22,0.55,2.46,0.3,3.19-0.95C19.75,81.75,22.5,76,25,70" transform="matrix(1,0,0,1,796,-4)" class="stroke_order_diagram--existing_path"></path><path id="pathSk2v596cn4wcv" kvg:type="㇒" d="M75.47,10.89c0,1.11-0.63,1.85-1.39,2.35C70,15.9,58.24,20.61,42.81,23.47" transform="matrix(1,0,0,1,796,-4)" class="stroke_order_diagram--existing_path"></path><path id="pathSk2v596cn4wcw" kvg:type="㇔" d="M40.02,32.33c2.4,1.7,6.19,6.99,6.79,9.63" transform="matrix(1,0,0,1,796,-4)" class="stroke_order_diagram--existing_path"></path><path id="pathSk2v596cn4wcx" kvg:type="㇔" d="M56.25,27.62c2.49,1.87,6.44,7.69,7.06,10.59" transform="matrix(1,0,0,1,796,-4)" class="stroke_order_diagram--existing_path"></path><path id="pathSk2v596cn4wcy" kvg:type="㇒" d="M86.77,24.14c0.11,0.89-0.04,1.73-0.46,2.51C84,30.25,79.88,35.12,73.25,40" transform="matrix(1,0,0,1,796,-4)" class="stroke_order_diagram--existing_path"></path><path id="pathSk2v596cn4wcz" kvg:type="㇐" d="M42.83,57.44c1.89,0.62,4.6,0.28,6.55,0.07c6.24-0.67,18.37-2.18,25.49-2.55c2.07-0.11,4.23-0.26,6.28,0.15" transform="matrix(1,0,0,1,796,-4)" class="stroke_order_diagram--existing_path"></path><path id="kvg:06e13-s9" kvg:type="㇐" d="M35.07,71.54c2.48,0.8,5.24,0.49,7.8,0.25c9.66-0.93,30.86-2.97,41-3.5c2.4-0.12,4.92-0.36,7.3,0.1" transform="matrix(1,0,0,1,796,-4)" class="stroke_order_diagram--current_path"></path><path id="pathSk2v596cn4wd1" kvg:type="㇐" d="M35.07,71.54c2.48,0.8,5.24,0.49,7.8,0.25c9.66-0.93,30.86-2.97,41-3.5c2.4-0.12,4.92-0.36,7.3,0.1" transform="matrix(1,0,0,1,796,-4)" class="stroke_order_diagram--current_path"></path><circle cx="35.07" cy="71.54" r="8" class="stroke_order_diagram--path_start" transform="matrix(1,0,0,1,796,-4)"></circle><line x1="950" x2="950" y1="1" y2="99" class="stroke_order_diagram--guide_line"></line><line x1="999" x2="999" y1="1" y2="99" class="stroke_order_diagram--bounding_box"></line><path id="pathSk2v596cn4wd4" kvg:type="㇔" d="M16.5,16.25c4.24,1.6,10.94,6.6,12,9.09" transform="matrix(1,0,0,1,896,-4)" class="stroke_order_diagram--existing_path"></path><path id="pathSk2v596cn4wd5" kvg:type="㇔" d="M12.38,40.75c4.1,1.59,10.6,6.53,11.62,9" transform="matrix(1,0,0,1,896,-4)" class="stroke_order_diagram--existing_path"></path><path id="pathSk2v596cn4wd6" kvg:type="㇀" d="M13.81,87.4c1.22,0.55,2.46,0.3,3.19-0.95C19.75,81.75,22.5,76,25,70" transform="matrix(1,0,0,1,896,-4)" class="stroke_order_diagram--existing_path"></path><path id="pathSk2v596cn4wd7" kvg:type="㇒" d="M75.47,10.89c0,1.11-0.63,1.85-1.39,2.35C70,15.9,58.24,20.61,42.81,23.47" transform="matrix(1,0,0,1,896,-4)" class="stroke_order_diagram--existing_path"></path><path id="pathSk2v596cn4wd8" kvg:type="㇔" d="M40.02,32.33c2.4,1.7,6.19,6.99,6.79,9.63" transform="matrix(1,0,0,1,896,-4)" class="stroke_order_diagram--existing_path"></path><path id="pathSk2v596cn4wd9" kvg:type="㇔" d="M56.25,27.62c2.49,1.87,6.44,7.69,7.06,10.59" transform="matrix(1,0,0,1,896,-4)" class="stroke_order_diagram--existing_path"></path><path id="pathSk2v596cn4wda" kvg:type="㇒" d="M86.77,24.14c0.11,0.89-0.04,1.73-0.46,2.51C84,30.25,79.88,35.12,73.25,40" transform="matrix(1,0,0,1,896,-4)" class="stroke_order_diagram--existing_path"></path><path id="pathSk2v596cn4wdb" kvg:type="㇐" d="M42.83,57.44c1.89,0.62,4.6,0.28,6.55,0.07c6.24-0.67,18.37-2.18,25.49-2.55c2.07-0.11,4.23-0.26,6.28,0.15" transform="matrix(1,0,0,1,896,-4)" class="stroke_order_diagram--existing_path"></path><path id="pathSk2v596cn4wdc" kvg:type="㇐" d="M35.07,71.54c2.48,0.8,5.24,0.49,7.8,0.25c9.66-0.93,30.86-2.97,41-3.5c2.4-0.12,4.92-0.36,7.3,0.1" transform="matrix(1,0,0,1,896,-4)" class="stroke_order_diagram--existing_path"></path><path id="kvg:06e13-s10" kvg:type="㇒" d="M60.55,45c0.79,0.79,1.07,2.1,1.12,3.69c1.07,29.56-8.3,41.18-26.93,49.56" transform="matrix(1,0,0,1,896,-4)" class="stroke_order_diagram--current_path"></path><path id="pathSk2v596cn4wde" kvg:type="㇒" d="M60.55,45c0.79,0.79,1.07,2.1,1.12,3.69c1.07,29.56-8.3,41.18-26.93,49.56" transform="matrix(1,0,0,1,896,-4)" class="stroke_order_diagram--current_path"></path><circle cx="60.55" cy="45" r="8" class="stroke_order_diagram--path_start" transform="matrix(1,0,0,1,896,-4)"></circle><line x1="1050" x2="1050" y1="1" y2="99" class="stroke_order_diagram--guide_line"></line><line x1="1099" x2="1099" y1="1" y2="99" class="stroke_order_diagram--bounding_box"></line><path id="pathSk2v596cn4wdh" kvg:type="㇔" d="M16.5,16.25c4.24,1.6,10.94,6.6,12,9.09" transform="matrix(1,0,0,1,996,-4)" class="stroke_order_diagram--existing_path"></path><path id="pathSk2v596cn4wdi" kvg:type="㇔" d="M12.38,40.75c4.1,1.59,10.6,6.53,11.62,9" transform="matrix(1,0,0,1,996,-4)" class="stroke_order_diagram--existing_path"></path><path id="pathSk2v596cn4wdj" kvg:type="㇀" d="M13.81,87.4c1.22,0.55,2.46,0.3,3.19-0.95C19.75,81.75,22.5,76,25,70" transform="matrix(1,0,0,1,996,-4)" class="stroke_order_diagram--existing_path"></path><path id="pathSk2v596cn4wdk" kvg:type="㇒" d="M75.47,10.89c0,1.11-0.63,1.85-1.39,2.35C70,15.9,58.24,20.61,42.81,23.47" transform="matrix(1,0,0,1,996,-4)" class="stroke_order_diagram--existing_path"></path><path id="pathSk2v596cn4wdl" kvg:type="㇔" d="M40.02,32.33c2.4,1.7,6.19,6.99,6.79,9.63" transform="matrix(1,0,0,1,996,-4)" class="stroke_order_diagram--existing_path"></path><path id="pathSk2v596cn4wdm" kvg:type="㇔" d="M56.25,27.62c2.49,1.87,6.44,7.69,7.06,10.59" transform="matrix(1,0,0,1,996,-4)" class="stroke_order_diagram--existing_path"></path><path id="pathSk2v596cn4wdn" kvg:type="㇒" d="M86.77,24.14c0.11,0.89-0.04,1.73-0.46,2.51C84,30.25,79.88,35.12,73.25,40" transform="matrix(1,0,0,1,996,-4)" class="stroke_order_diagram--existing_path"></path><path id="pathSk2v596cn4wdo" kvg:type="㇐" d="M42.83,57.44c1.89,0.62,4.6,0.28,6.55,0.07c6.24-0.67,18.37-2.18,25.49-2.55c2.07-0.11,4.23-0.26,6.28,0.15" transform="matrix(1,0,0,1,996,-4)" class="stroke_order_diagram--existing_path"></path><path id="pathSk2v596cn4wdp" kvg:type="㇐" d="M35.07,71.54c2.48,0.8,5.24,0.49,7.8,0.25c9.66-0.93,30.86-2.97,41-3.5c2.4-0.12,4.92-0.36,7.3,0.1" transform="matrix(1,0,0,1,996,-4)" class="stroke_order_diagram--existing_path"></path><path id="pathSk2v596cn4wdq" kvg:type="㇒" d="M60.55,45c0.79,0.79,1.07,2.1,1.12,3.69c1.07,29.56-8.3,41.18-26.93,49.56" transform="matrix(1,0,0,1,996,-4)" class="stroke_order_diagram--existing_path"></path><path id="kvg:06e13-s11" kvg:type="㇏" d="M60.74,71.63c7.01,6.12,12.38,10.75,22.02,18.41c2.93,2.33,5.95,3.95,9.24,5.72" transform="matrix(1,0,0,1,996,-4)" class="stroke_order_diagram--current_path"></path><path id="pathSk2v596cn4wds" kvg:type="㇏" d="M60.74,71.63c7.01,6.12,12.38,10.75,22.02,18.41c2.93,2.33,5.95,3.95,9.24,5.72" transform="matrix(1,0,0,1,996,-4)" class="stroke_order_diagram--current_path"></path><circle cx="60.74" cy="71.63" r="8" class="stroke_order_diagram--path_start" transform="matrix(1,0,0,1,996,-4)"></circle></svg>