<svg style="width: 1300px; height: 100px;" viewbox="0 0 1300 100"><style>
.stroke_order_diagram--outer_container {
  width: 100%;
  overflow-x: auto;
  overflow-y: hidden;
}

.stroke_order_diagram--guide_line {
  fill: none;
  stroke: #ddd;
  stroke-width: 3;
  stroke-linecap: square;
  stroke-linejoin: square;
  stroke-dasharray:8, 8;
}

.stroke_order_diagram--bounding_box {
  fill: none;
  stroke: #ddd;
  stroke-width: 4;
  stroke-linecap: square;
  stroke-linejoin: square;
}

.stroke_order_diagram--current_path {
  fill: none;
  stroke: #000;
  stroke-width: 6;
  stroke-linecap: round;
  stroke-linejoin: round;
}

.stroke_order_diagram--existing_path {
  fill: none;
  stroke: #aaa;
  stroke-width: 6;
  stroke-linecap: round;
  stroke-linejoin:round;
}

.stroke_order_diagram--path_start {
  fill: rgba(255, 0, 0, 0.7);
  stroke:none
}</style><desc>Created with Snap</desc><defs></defs><line x1="1" x2="1299" y1="1" y2="1" class="stroke_order_diagram--bounding_box"></line><line x1="1" x2="1" y1="1" y2="99" class="stroke_order_diagram--bounding_box"></line><line x1="1" x2="1299" y1="99" y2="99" class="stroke_order_diagram--bounding_box"></line><line x1="0" x2="1300" y1="50" y2="50" class="stroke_order_diagram--guide_line"></line><line x1="50" x2="50" y1="1" y2="99" class="stroke_order_diagram--guide_line"></line><line x1="99" x2="99" y1="1" y2="99" class="stroke_order_diagram--bounding_box"></line><path id="kvg:06ed1-s1" kvg:type="㇔" d="M21.38,14.75c4.1,1.52,10.59,6.23,11.62,8.59" transform="matrix(1,0,0,1,-4,-4)" class="stroke_order_diagram--current_path"></path><path id="pathSk2v596cn35z1" kvg:type="㇔" d="M21.38,14.75c4.1,1.52,10.59,6.23,11.62,8.59" transform="matrix(1,0,0,1,-4,-4)" class="stroke_order_diagram--current_path"></path><circle cx="21.38" cy="14.75" r="8" class="stroke_order_diagram--path_start" transform="matrix(1,0,0,1,-4,-4)"></circle><line x1="150" x2="150" y1="1" y2="99" class="stroke_order_diagram--guide_line"></line><line x1="199" x2="199" y1="1" y2="99" class="stroke_order_diagram--bounding_box"></line><path id="pathSk2v596cn35z4" kvg:type="㇔" d="M21.38,14.75c4.1,1.52,10.59,6.23,11.62,8.59" transform="matrix(1,0,0,1,96,-4)" class="stroke_order_diagram--existing_path"></path><path id="kvg:06ed1-s2" kvg:type="㇔" d="M16.12,42c4.1,1.28,10.6,5.26,11.62,7.25" transform="matrix(1,0,0,1,96,-4)" class="stroke_order_diagram--current_path"></path><path id="pathSk2v596cn35z6" kvg:type="㇔" d="M16.12,42c4.1,1.28,10.6,5.26,11.62,7.25" transform="matrix(1,0,0,1,96,-4)" class="stroke_order_diagram--current_path"></path><circle cx="16.12" cy="42" r="8" class="stroke_order_diagram--path_start" transform="matrix(1,0,0,1,96,-4)"></circle><line x1="250" x2="250" y1="1" y2="99" class="stroke_order_diagram--guide_line"></line><line x1="299" x2="299" y1="1" y2="99" class="stroke_order_diagram--bounding_box"></line><path id="pathSk2v596cn35z9" kvg:type="㇔" d="M21.38,14.75c4.1,1.52,10.59,6.23,11.62,8.59" transform="matrix(1,0,0,1,196,-4)" class="stroke_order_diagram--existing_path"></path><path id="pathSk2v596cn35za" kvg:type="㇔" d="M16.12,42c4.1,1.28,10.6,5.26,11.62,7.25" transform="matrix(1,0,0,1,196,-4)" class="stroke_order_diagram--existing_path"></path><path id="kvg:06ed1-s3" kvg:type="㇀" d="M16.93,88.64c1.32,0.56,2.66,0.31,3.45-0.96C23.34,82.92,26.3,77.08,29,71" transform="matrix(1,0,0,1,196,-4)" class="stroke_order_diagram--current_path"></path><path id="pathSk2v596cn35zc" kvg:type="㇀" d="M16.93,88.64c1.32,0.56,2.66,0.31,3.45-0.96C23.34,82.92,26.3,77.08,29,71" transform="matrix(1,0,0,1,196,-4)" class="stroke_order_diagram--current_path"></path><circle cx="16.93" cy="88.64" r="8" class="stroke_order_diagram--path_start" transform="matrix(1,0,0,1,196,-4)"></circle><line x1="350" x2="350" y1="1" y2="99" class="stroke_order_diagram--guide_line"></line><line x1="399" x2="399" y1="1" y2="99" class="stroke_order_diagram--bounding_box"></line><path id="pathSk2v596cn35zf" kvg:type="㇔" d="M21.38,14.75c4.1,1.52,10.59,6.23,11.62,8.59" transform="matrix(1,0,0,1,296,-4)" class="stroke_order_diagram--existing_path"></path><path id="pathSk2v596cn35zg" kvg:type="㇔" d="M16.12,42c4.1,1.28,10.6,5.26,11.62,7.25" transform="matrix(1,0,0,1,296,-4)" class="stroke_order_diagram--existing_path"></path><path id="pathSk2v596cn35zh" kvg:type="㇀" d="M16.93,88.64c1.32,0.56,2.66,0.31,3.45-0.96C23.34,82.92,26.3,77.08,29,71" transform="matrix(1,0,0,1,296,-4)" class="stroke_order_diagram--existing_path"></path><path id="kvg:06ed1-s4" kvg:type="㇑a" d="M48.47,15.21c0.97,0.97,1.28,2.04,1.4,3.91c0.36,5.54,1.01,20.35,1.01,20.68" transform="matrix(1,0,0,1,296,-4)" class="stroke_order_diagram--current_path"></path><path id="pathSk2v596cn35zj" kvg:type="㇑a" d="M48.47,15.21c0.97,0.97,1.28,2.04,1.4,3.91c0.36,5.54,1.01,20.35,1.01,20.68" transform="matrix(1,0,0,1,296,-4)" class="stroke_order_diagram--current_path"></path><circle cx="48.47" cy="15.21" r="8" class="stroke_order_diagram--path_start" transform="matrix(1,0,0,1,296,-4)"></circle><line x1="450" x2="450" y1="1" y2="99" class="stroke_order_diagram--guide_line"></line><line x1="499" x2="499" y1="1" y2="99" class="stroke_order_diagram--bounding_box"></line><path id="pathSk2v596cn35zm" kvg:type="㇔" d="M21.38,14.75c4.1,1.52,10.59,6.23,11.62,8.59" transform="matrix(1,0,0,1,396,-4)" class="stroke_order_diagram--existing_path"></path><path id="pathSk2v596cn35zn" kvg:type="㇔" d="M16.12,42c4.1,1.28,10.6,5.26,11.62,7.25" transform="matrix(1,0,0,1,396,-4)" class="stroke_order_diagram--existing_path"></path><path id="pathSk2v596cn35zo" kvg:type="㇀" d="M16.93,88.64c1.32,0.56,2.66,0.31,3.45-0.96C23.34,82.92,26.3,77.08,29,71" transform="matrix(1,0,0,1,396,-4)" class="stroke_order_diagram--existing_path"></path><path id="pathSk2v596cn35zp" kvg:type="㇑a" d="M48.47,15.21c0.97,0.97,1.28,2.04,1.4,3.91c0.36,5.54,1.01,20.35,1.01,20.68" transform="matrix(1,0,0,1,396,-4)" class="stroke_order_diagram--existing_path"></path><path id="kvg:06ed1-s5" kvg:type="㇕b" d="M50.13,16.23c4.75-0.65,21.86-3.39,27.37-4.09c3.23-0.41,4.22,0.34,4.03,3.36c-0.4,6.25-1.15,11.87-1.78,20.72" transform="matrix(1,0,0,1,396,-4)" class="stroke_order_diagram--current_path"></path><path id="pathSk2v596cn35zr" kvg:type="㇕b" d="M50.13,16.23c4.75-0.65,21.86-3.39,27.37-4.09c3.23-0.41,4.22,0.34,4.03,3.36c-0.4,6.25-1.15,11.87-1.78,20.72" transform="matrix(1,0,0,1,396,-4)" class="stroke_order_diagram--current_path"></path><circle cx="50.13" cy="16.23" r="8" class="stroke_order_diagram--path_start" transform="matrix(1,0,0,1,396,-4)"></circle><line x1="550" x2="550" y1="1" y2="99" class="stroke_order_diagram--guide_line"></line><line x1="599" x2="599" y1="1" y2="99" class="stroke_order_diagram--bounding_box"></line><path id="pathSk2v596cn35zu" kvg:type="㇔" d="M21.38,14.75c4.1,1.52,10.59,6.23,11.62,8.59" transform="matrix(1,0,0,1,496,-4)" class="stroke_order_diagram--existing_path"></path><path id="pathSk2v596cn35zv" kvg:type="㇔" d="M16.12,42c4.1,1.28,10.6,5.26,11.62,7.25" transform="matrix(1,0,0,1,496,-4)" class="stroke_order_diagram--existing_path"></path><path id="pathSk2v596cn35zw" kvg:type="㇀" d="M16.93,88.64c1.32,0.56,2.66,0.31,3.45-0.96C23.34,82.92,26.3,77.08,29,71" transform="matrix(1,0,0,1,496,-4)" class="stroke_order_diagram--existing_path"></path><path id="pathSk2v596cn35zx" kvg:type="㇑a" d="M48.47,15.21c0.97,0.97,1.28,2.04,1.4,3.91c0.36,5.54,1.01,20.35,1.01,20.68" transform="matrix(1,0,0,1,496,-4)" class="stroke_order_diagram--existing_path"></path><path id="pathSk2v596cn35zy" kvg:type="㇕b" d="M50.13,16.23c4.75-0.65,21.86-3.39,27.37-4.09c3.23-0.41,4.22,0.34,4.03,3.36c-0.4,6.25-1.15,11.87-1.78,20.72" transform="matrix(1,0,0,1,496,-4)" class="stroke_order_diagram--existing_path"></path><path id="kvg:06ed1-s6" kvg:type="㇑a" d="M62.34,23.68c0.8,0.8,1.06,1.69,1.06,2.98c0,5.34,0.1,12.72,0.1,11.32" transform="matrix(1,0,0,1,496,-4)" class="stroke_order_diagram--current_path"></path><path id="pathSk2v596cn3600" kvg:type="㇑a" d="M62.34,23.68c0.8,0.8,1.06,1.69,1.06,2.98c0,5.34,0.1,12.72,0.1,11.32" transform="matrix(1,0,0,1,496,-4)" class="stroke_order_diagram--current_path"></path><circle cx="62.34" cy="23.68" r="8" class="stroke_order_diagram--path_start" transform="matrix(1,0,0,1,496,-4)"></circle><line x1="650" x2="650" y1="1" y2="99" class="stroke_order_diagram--guide_line"></line><line x1="699" x2="699" y1="1" y2="99" class="stroke_order_diagram--bounding_box"></line><path id="pathSk2v596cn3603" kvg:type="㇔" d="M21.38,14.75c4.1,1.52,10.59,6.23,11.62,8.59" transform="matrix(1,0,0,1,596,-4)" class="stroke_order_diagram--existing_path"></path><path id="pathSk2v596cn3604" kvg:type="㇔" d="M16.12,42c4.1,1.28,10.6,5.26,11.62,7.25" transform="matrix(1,0,0,1,596,-4)" class="stroke_order_diagram--existing_path"></path><path id="pathSk2v596cn3605" kvg:type="㇀" d="M16.93,88.64c1.32,0.56,2.66,0.31,3.45-0.96C23.34,82.92,26.3,77.08,29,71" transform="matrix(1,0,0,1,596,-4)" class="stroke_order_diagram--existing_path"></path><path id="pathSk2v596cn3606" kvg:type="㇑a" d="M48.47,15.21c0.97,0.97,1.28,2.04,1.4,3.91c0.36,5.54,1.01,20.35,1.01,20.68" transform="matrix(1,0,0,1,596,-4)" class="stroke_order_diagram--existing_path"></path><path id="pathSk2v596cn3607" kvg:type="㇕b" d="M50.13,16.23c4.75-0.65,21.86-3.39,27.37-4.09c3.23-0.41,4.22,0.34,4.03,3.36c-0.4,6.25-1.15,11.87-1.78,20.72" transform="matrix(1,0,0,1,596,-4)" class="stroke_order_diagram--existing_path"></path><path id="pathSk2v596cn3608" kvg:type="㇑a" d="M62.34,23.68c0.8,0.8,1.06,1.69,1.06,2.98c0,5.34,0.1,12.72,0.1,11.32" transform="matrix(1,0,0,1,596,-4)" class="stroke_order_diagram--existing_path"></path><path id="kvg:06ed1-s7" kvg:type="㇐a" d="M64.32,25.45c4.56-0.7,13.89-2.06,15.96-2.3" transform="matrix(1,0,0,1,596,-4)" class="stroke_order_diagram--current_path"></path><path id="pathSk2v596cn360a" kvg:type="㇐a" d="M64.32,25.45c4.56-0.7,13.89-2.06,15.96-2.3" transform="matrix(1,0,0,1,596,-4)" class="stroke_order_diagram--current_path"></path><circle cx="64.32" cy="25.45" r="8" class="stroke_order_diagram--path_start" transform="matrix(1,0,0,1,596,-4)"></circle><line x1="750" x2="750" y1="1" y2="99" class="stroke_order_diagram--guide_line"></line><line x1="799" x2="799" y1="1" y2="99" class="stroke_order_diagram--bounding_box"></line><path id="pathSk2v596cn360d" kvg:type="㇔" d="M21.38,14.75c4.1,1.52,10.59,6.23,11.62,8.59" transform="matrix(1,0,0,1,696,-4)" class="stroke_order_diagram--existing_path"></path><path id="pathSk2v596cn360e" kvg:type="㇔" d="M16.12,42c4.1,1.28,10.6,5.26,11.62,7.25" transform="matrix(1,0,0,1,696,-4)" class="stroke_order_diagram--existing_path"></path><path id="pathSk2v596cn360f" kvg:type="㇀" d="M16.93,88.64c1.32,0.56,2.66,0.31,3.45-0.96C23.34,82.92,26.3,77.08,29,71" transform="matrix(1,0,0,1,696,-4)" class="stroke_order_diagram--existing_path"></path><path id="pathSk2v596cn360g" kvg:type="㇑a" d="M48.47,15.21c0.97,0.97,1.28,2.04,1.4,3.91c0.36,5.54,1.01,20.35,1.01,20.68" transform="matrix(1,0,0,1,696,-4)" class="stroke_order_diagram--existing_path"></path><path id="pathSk2v596cn360h" kvg:type="㇕b" d="M50.13,16.23c4.75-0.65,21.86-3.39,27.37-4.09c3.23-0.41,4.22,0.34,4.03,3.36c-0.4,6.25-1.15,11.87-1.78,20.72" transform="matrix(1,0,0,1,696,-4)" class="stroke_order_diagram--existing_path"></path><path id="pathSk2v596cn360i" kvg:type="㇑a" d="M62.34,23.68c0.8,0.8,1.06,1.69,1.06,2.98c0,5.34,0.1,12.72,0.1,11.32" transform="matrix(1,0,0,1,696,-4)" class="stroke_order_diagram--existing_path"></path><path id="pathSk2v596cn360j" kvg:type="㇐a" d="M64.32,25.45c4.56-0.7,13.89-2.06,15.96-2.3" transform="matrix(1,0,0,1,696,-4)" class="stroke_order_diagram--existing_path"></path><path id="kvg:06ed1-s8" kvg:type="㇔" d="M39.26,39.07c0,3.47-2.36,12.57-3.18,14.88" transform="matrix(1,0,0,1,696,-4)" class="stroke_order_diagram--current_path"></path><path id="pathSk2v596cn360l" kvg:type="㇔" d="M39.26,39.07c0,3.47-2.36,12.57-3.18,14.88" transform="matrix(1,0,0,1,696,-4)" class="stroke_order_diagram--current_path"></path><circle cx="39.26" cy="39.07" r="8" class="stroke_order_diagram--path_start" transform="matrix(1,0,0,1,696,-4)"></circle><line x1="850" x2="850" y1="1" y2="99" class="stroke_order_diagram--guide_line"></line><line x1="899" x2="899" y1="1" y2="99" class="stroke_order_diagram--bounding_box"></line><path id="pathSk2v596cn360o" kvg:type="㇔" d="M21.38,14.75c4.1,1.52,10.59,6.23,11.62,8.59" transform="matrix(1,0,0,1,796,-4)" class="stroke_order_diagram--existing_path"></path><path id="pathSk2v596cn360p" kvg:type="㇔" d="M16.12,42c4.1,1.28,10.6,5.26,11.62,7.25" transform="matrix(1,0,0,1,796,-4)" class="stroke_order_diagram--existing_path"></path><path id="pathSk2v596cn360q" kvg:type="㇀" d="M16.93,88.64c1.32,0.56,2.66,0.31,3.45-0.96C23.34,82.92,26.3,77.08,29,71" transform="matrix(1,0,0,1,796,-4)" class="stroke_order_diagram--existing_path"></path><path id="pathSk2v596cn360r" kvg:type="㇑a" d="M48.47,15.21c0.97,0.97,1.28,2.04,1.4,3.91c0.36,5.54,1.01,20.35,1.01,20.68" transform="matrix(1,0,0,1,796,-4)" class="stroke_order_diagram--existing_path"></path><path id="pathSk2v596cn360s" kvg:type="㇕b" d="M50.13,16.23c4.75-0.65,21.86-3.39,27.37-4.09c3.23-0.41,4.22,0.34,4.03,3.36c-0.4,6.25-1.15,11.87-1.78,20.72" transform="matrix(1,0,0,1,796,-4)" class="stroke_order_diagram--existing_path"></path><path id="pathSk2v596cn360t" kvg:type="㇑a" d="M62.34,23.68c0.8,0.8,1.06,1.69,1.06,2.98c0,5.34,0.1,12.72,0.1,11.32" transform="matrix(1,0,0,1,796,-4)" class="stroke_order_diagram--existing_path"></path><path id="pathSk2v596cn360u" kvg:type="㇐a" d="M64.32,25.45c4.56-0.7,13.89-2.06,15.96-2.3" transform="matrix(1,0,0,1,796,-4)" class="stroke_order_diagram--existing_path"></path><path id="pathSk2v596cn360v" kvg:type="㇔" d="M39.26,39.07c0,3.47-2.36,12.57-3.18,14.88" transform="matrix(1,0,0,1,796,-4)" class="stroke_order_diagram--existing_path"></path><path id="kvg:06ed1-s9" kvg:type="㇖b" d="M40.14,42.28c9.29-1.39,36.36-4.91,49.97-5.72c9.52-0.57,2.02,5.68-0.36,7.65" transform="matrix(1,0,0,1,796,-4)" class="stroke_order_diagram--current_path"></path><path id="pathSk2v596cn360x" kvg:type="㇖b" d="M40.14,42.28c9.29-1.39,36.36-4.91,49.97-5.72c9.52-0.57,2.02,5.68-0.36,7.65" transform="matrix(1,0,0,1,796,-4)" class="stroke_order_diagram--current_path"></path><circle cx="40.14" cy="42.28" r="8" class="stroke_order_diagram--path_start" transform="matrix(1,0,0,1,796,-4)"></circle><line x1="950" x2="950" y1="1" y2="99" class="stroke_order_diagram--guide_line"></line><line x1="999" x2="999" y1="1" y2="99" class="stroke_order_diagram--bounding_box"></line><path id="pathSk2v596cn3610" kvg:type="㇔" d="M21.38,14.75c4.1,1.52,10.59,6.23,11.62,8.59" transform="matrix(1,0,0,1,896,-4)" class="stroke_order_diagram--existing_path"></path><path id="pathSk2v596cn3611" kvg:type="㇔" d="M16.12,42c4.1,1.28,10.6,5.26,11.62,7.25" transform="matrix(1,0,0,1,896,-4)" class="stroke_order_diagram--existing_path"></path><path id="pathSk2v596cn3612" kvg:type="㇀" d="M16.93,88.64c1.32,0.56,2.66,0.31,3.45-0.96C23.34,82.92,26.3,77.08,29,71" transform="matrix(1,0,0,1,896,-4)" class="stroke_order_diagram--existing_path"></path><path id="pathSk2v596cn3613" kvg:type="㇑a" d="M48.47,15.21c0.97,0.97,1.28,2.04,1.4,3.91c0.36,5.54,1.01,20.35,1.01,20.68" transform="matrix(1,0,0,1,896,-4)" class="stroke_order_diagram--existing_path"></path><path id="pathSk2v596cn3614" kvg:type="㇕b" d="M50.13,16.23c4.75-0.65,21.86-3.39,27.37-4.09c3.23-0.41,4.22,0.34,4.03,3.36c-0.4,6.25-1.15,11.87-1.78,20.72" transform="matrix(1,0,0,1,896,-4)" class="stroke_order_diagram--existing_path"></path><path id="pathSk2v596cn3615" kvg:type="㇑a" d="M62.34,23.68c0.8,0.8,1.06,1.69,1.06,2.98c0,5.34,0.1,12.72,0.1,11.32" transform="matrix(1,0,0,1,896,-4)" class="stroke_order_diagram--existing_path"></path><path id="pathSk2v596cn3616" kvg:type="㇐a" d="M64.32,25.45c4.56-0.7,13.89-2.06,15.96-2.3" transform="matrix(1,0,0,1,896,-4)" class="stroke_order_diagram--existing_path"></path><path id="pathSk2v596cn3617" kvg:type="㇔" d="M39.26,39.07c0,3.47-2.36,12.57-3.18,14.88" transform="matrix(1,0,0,1,896,-4)" class="stroke_order_diagram--existing_path"></path><path id="pathSk2v596cn3618" kvg:type="㇖b" d="M40.14,42.28c9.29-1.39,36.36-4.91,49.97-5.72c9.52-0.57,2.02,5.68-0.36,7.65" transform="matrix(1,0,0,1,896,-4)" class="stroke_order_diagram--existing_path"></path><path id="kvg:06ed1-s10" kvg:type="㇑/㇒" d="M50.11,50.12c0.76,0.76,1.11,1.76,1.11,3.1c0,4.28-0.03,25.5-0.03,37.78c0,3.67-0.01,6.19-0.03,6.55" transform="matrix(1,0,0,1,896,-4)" class="stroke_order_diagram--current_path"></path><path id="pathSk2v596cn361a" kvg:type="㇑/㇒" d="M50.11,50.12c0.76,0.76,1.11,1.76,1.11,3.1c0,4.28-0.03,25.5-0.03,37.78c0,3.67-0.01,6.19-0.03,6.55" transform="matrix(1,0,0,1,896,-4)" class="stroke_order_diagram--current_path"></path><circle cx="50.11" cy="50.12" r="8" class="stroke_order_diagram--path_start" transform="matrix(1,0,0,1,896,-4)"></circle><line x1="1050" x2="1050" y1="1" y2="99" class="stroke_order_diagram--guide_line"></line><line x1="1099" x2="1099" y1="1" y2="99" class="stroke_order_diagram--bounding_box"></line><path id="pathSk2v596cn361d" kvg:type="㇔" d="M21.38,14.75c4.1,1.52,10.59,6.23,11.62,8.59" transform="matrix(1,0,0,1,996,-4)" class="stroke_order_diagram--existing_path"></path><path id="pathSk2v596cn361e" kvg:type="㇔" d="M16.12,42c4.1,1.28,10.6,5.26,11.62,7.25" transform="matrix(1,0,0,1,996,-4)" class="stroke_order_diagram--existing_path"></path><path id="pathSk2v596cn361f" kvg:type="㇀" d="M16.93,88.64c1.32,0.56,2.66,0.31,3.45-0.96C23.34,82.92,26.3,77.08,29,71" transform="matrix(1,0,0,1,996,-4)" class="stroke_order_diagram--existing_path"></path><path id="pathSk2v596cn361g" kvg:type="㇑a" d="M48.47,15.21c0.97,0.97,1.28,2.04,1.4,3.91c0.36,5.54,1.01,20.35,1.01,20.68" transform="matrix(1,0,0,1,996,-4)" class="stroke_order_diagram--existing_path"></path><path id="pathSk2v596cn361h" kvg:type="㇕b" d="M50.13,16.23c4.75-0.65,21.86-3.39,27.37-4.09c3.23-0.41,4.22,0.34,4.03,3.36c-0.4,6.25-1.15,11.87-1.78,20.72" transform="matrix(1,0,0,1,996,-4)" class="stroke_order_diagram--existing_path"></path><path id="pathSk2v596cn361i" kvg:type="㇑a" d="M62.34,23.68c0.8,0.8,1.06,1.69,1.06,2.98c0,5.34,0.1,12.72,0.1,11.32" transform="matrix(1,0,0,1,996,-4)" class="stroke_order_diagram--existing_path"></path><path id="pathSk2v596cn361j" kvg:type="㇐a" d="M64.32,25.45c4.56-0.7,13.89-2.06,15.96-2.3" transform="matrix(1,0,0,1,996,-4)" class="stroke_order_diagram--existing_path"></path><path id="pathSk2v596cn361k" kvg:type="㇔" d="M39.26,39.07c0,3.47-2.36,12.57-3.18,14.88" transform="matrix(1,0,0,1,996,-4)" class="stroke_order_diagram--existing_path"></path><path id="pathSk2v596cn361l" kvg:type="㇖b" d="M40.14,42.28c9.29-1.39,36.36-4.91,49.97-5.72c9.52-0.57,2.02,5.68-0.36,7.65" transform="matrix(1,0,0,1,996,-4)" class="stroke_order_diagram--existing_path"></path><path id="pathSk2v596cn361m" kvg:type="㇑/㇒" d="M50.11,50.12c0.76,0.76,1.11,1.76,1.11,3.1c0,4.28-0.03,25.5-0.03,37.78c0,3.67-0.01,6.19-0.03,6.55" transform="matrix(1,0,0,1,996,-4)" class="stroke_order_diagram--existing_path"></path><path id="kvg:06ed1-s11" kvg:type="㇆a" d="M52.09,51.82c1.95-0.15,17.49-2.22,22.42-2.91c3.71-0.52,5.07,0.3,5.06,4.09c-0.01,5.45-0.05,26.67-0.05,39.83c0,9.09-4.45,3.15-6.3,1.57" transform="matrix(1,0,0,1,996,-4)" class="stroke_order_diagram--current_path"></path><path id="pathSk2v596cn361o" kvg:type="㇆a" d="M52.09,51.82c1.95-0.15,17.49-2.22,22.42-2.91c3.71-0.52,5.07,0.3,5.06,4.09c-0.01,5.45-0.05,26.67-0.05,39.83c0,9.09-4.45,3.15-6.3,1.57" transform="matrix(1,0,0,1,996,-4)" class="stroke_order_diagram--current_path"></path><circle cx="52.09" cy="51.82" r="8" class="stroke_order_diagram--path_start" transform="matrix(1,0,0,1,996,-4)"></circle><line x1="1150" x2="1150" y1="1" y2="99" class="stroke_order_diagram--guide_line"></line><line x1="1199" x2="1199" y1="1" y2="99" class="stroke_order_diagram--bounding_box"></line><path id="pathSk2v596cn361r" kvg:type="㇔" d="M21.38,14.75c4.1,1.52,10.59,6.23,11.62,8.59" transform="matrix(1,0,0,1,1096,-4)" class="stroke_order_diagram--existing_path"></path><path id="pathSk2v596cn361s" kvg:type="㇔" d="M16.12,42c4.1,1.28,10.6,5.26,11.62,7.25" transform="matrix(1,0,0,1,1096,-4)" class="stroke_order_diagram--existing_path"></path><path id="pathSk2v596cn361t" kvg:type="㇀" d="M16.93,88.64c1.32,0.56,2.66,0.31,3.45-0.96C23.34,82.92,26.3,77.08,29,71" transform="matrix(1,0,0,1,1096,-4)" class="stroke_order_diagram--existing_path"></path><path id="pathSk2v596cn361u" kvg:type="㇑a" d="M48.47,15.21c0.97,0.97,1.28,2.04,1.4,3.91c0.36,5.54,1.01,20.35,1.01,20.68" transform="matrix(1,0,0,1,1096,-4)" class="stroke_order_diagram--existing_path"></path><path id="pathSk2v596cn361v" kvg:type="㇕b" d="M50.13,16.23c4.75-0.65,21.86-3.39,27.37-4.09c3.23-0.41,4.22,0.34,4.03,3.36c-0.4,6.25-1.15,11.87-1.78,20.72" transform="matrix(1,0,0,1,1096,-4)" class="stroke_order_diagram--existing_path"></path><path id="pathSk2v596cn361w" kvg:type="㇑a" d="M62.34,23.68c0.8,0.8,1.06,1.69,1.06,2.98c0,5.34,0.1,12.72,0.1,11.32" transform="matrix(1,0,0,1,1096,-4)" class="stroke_order_diagram--existing_path"></path><path id="pathSk2v596cn361x" kvg:type="㇐a" d="M64.32,25.45c4.56-0.7,13.89-2.06,15.96-2.3" transform="matrix(1,0,0,1,1096,-4)" class="stroke_order_diagram--existing_path"></path><path id="pathSk2v596cn361y" kvg:type="㇔" d="M39.26,39.07c0,3.47-2.36,12.57-3.18,14.88" transform="matrix(1,0,0,1,1096,-4)" class="stroke_order_diagram--existing_path"></path><path id="pathSk2v596cn361z" kvg:type="㇖b" d="M40.14,42.28c9.29-1.39,36.36-4.91,49.97-5.72c9.52-0.57,2.02,5.68-0.36,7.65" transform="matrix(1,0,0,1,1096,-4)" class="stroke_order_diagram--existing_path"></path><path id="pathSk2v596cn3620" kvg:type="㇑/㇒" d="M50.11,50.12c0.76,0.76,1.11,1.76,1.11,3.1c0,4.28-0.03,25.5-0.03,37.78c0,3.67-0.01,6.19-0.03,6.55" transform="matrix(1,0,0,1,1096,-4)" class="stroke_order_diagram--existing_path"></path><path id="pathSk2v596cn3621" kvg:type="㇆a" d="M52.09,51.82c1.95-0.15,17.49-2.22,22.42-2.91c3.71-0.52,5.07,0.3,5.06,4.09c-0.01,5.45-0.05,26.67-0.05,39.83c0,9.09-4.45,3.15-6.3,1.57" transform="matrix(1,0,0,1,1096,-4)" class="stroke_order_diagram--existing_path"></path><path id="kvg:06ed1-s12" kvg:type="㇐a" d="M52.34,63.56c7.6-1.05,19.52-2.14,26.19-2.67" transform="matrix(1,0,0,1,1096,-4)" class="stroke_order_diagram--current_path"></path><path id="pathSk2v596cn3623" kvg:type="㇐a" d="M52.34,63.56c7.6-1.05,19.52-2.14,26.19-2.67" transform="matrix(1,0,0,1,1096,-4)" class="stroke_order_diagram--current_path"></path><circle cx="52.34" cy="63.56" r="8" class="stroke_order_diagram--path_start" transform="matrix(1,0,0,1,1096,-4)"></circle><line x1="1250" x2="1250" y1="1" y2="99" class="stroke_order_diagram--guide_line"></line><line x1="1299" x2="1299" y1="1" y2="99" class="stroke_order_diagram--bounding_box"></line><path id="pathSk2v596cn3626" kvg:type="㇔" d="M21.38,14.75c4.1,1.52,10.59,6.23,11.62,8.59" transform="matrix(1,0,0,1,1196,-4)" class="stroke_order_diagram--existing_path"></path><path id="pathSk2v596cn3627" kvg:type="㇔" d="M16.12,42c4.1,1.28,10.6,5.26,11.62,7.25" transform="matrix(1,0,0,1,1196,-4)" class="stroke_order_diagram--existing_path"></path><path id="pathSk2v596cn3628" kvg:type="㇀" d="M16.93,88.64c1.32,0.56,2.66,0.31,3.45-0.96C23.34,82.92,26.3,77.08,29,71" transform="matrix(1,0,0,1,1196,-4)" class="stroke_order_diagram--existing_path"></path><path id="pathSk2v596cn3629" kvg:type="㇑a" d="M48.47,15.21c0.97,0.97,1.28,2.04,1.4,3.91c0.36,5.54,1.01,20.35,1.01,20.68" transform="matrix(1,0,0,1,1196,-4)" class="stroke_order_diagram--existing_path"></path><path id="pathSk2v596cn362a" kvg:type="㇕b" d="M50.13,16.23c4.75-0.65,21.86-3.39,27.37-4.09c3.23-0.41,4.22,0.34,4.03,3.36c-0.4,6.25-1.15,11.87-1.78,20.72" transform="matrix(1,0,0,1,1196,-4)" class="stroke_order_diagram--existing_path"></path><path id="pathSk2v596cn362b" kvg:type="㇑a" d="M62.34,23.68c0.8,0.8,1.06,1.69,1.06,2.98c0,5.34,0.1,12.72,0.1,11.32" transform="matrix(1,0,0,1,1196,-4)" class="stroke_order_diagram--existing_path"></path><path id="pathSk2v596cn362c" kvg:type="㇐a" d="M64.32,25.45c4.56-0.7,13.89-2.06,15.96-2.3" transform="matrix(1,0,0,1,1196,-4)" class="stroke_order_diagram--existing_path"></path><path id="pathSk2v596cn362d" kvg:type="㇔" d="M39.26,39.07c0,3.47-2.36,12.57-3.18,14.88" transform="matrix(1,0,0,1,1196,-4)" class="stroke_order_diagram--existing_path"></path><path id="pathSk2v596cn362e" kvg:type="㇖b" d="M40.14,42.28c9.29-1.39,36.36-4.91,49.97-5.72c9.52-0.57,2.02,5.68-0.36,7.65" transform="matrix(1,0,0,1,1196,-4)" class="stroke_order_diagram--existing_path"></path><path id="pathSk2v596cn362f" kvg:type="㇑/㇒" d="M50.11,50.12c0.76,0.76,1.11,1.76,1.11,3.1c0,4.28-0.03,25.5-0.03,37.78c0,3.67-0.01,6.19-0.03,6.55" transform="matrix(1,0,0,1,1196,-4)" class="stroke_order_diagram--existing_path"></path><path id="pathSk2v596cn362g" kvg:type="㇆a" d="M52.09,51.82c1.95-0.15,17.49-2.22,22.42-2.91c3.71-0.52,5.07,0.3,5.06,4.09c-0.01,5.45-0.05,26.67-0.05,39.83c0,9.09-4.45,3.15-6.3,1.57" transform="matrix(1,0,0,1,1196,-4)" class="stroke_order_diagram--existing_path"></path><path id="pathSk2v596cn362h" kvg:type="㇐a" d="M52.34,63.56c7.6-1.05,19.52-2.14,26.19-2.67" transform="matrix(1,0,0,1,1196,-4)" class="stroke_order_diagram--existing_path"></path><path id="kvg:06ed1-s13" kvg:type="㇐a" d="M52.38,75.92C60.12,75,71.55,74.05,78.4,73.7" transform="matrix(1,0,0,1,1196,-4)" class="stroke_order_diagram--current_path"></path><path id="pathSk2v596cn362j" kvg:type="㇐a" d="M52.38,75.92C60.12,75,71.55,74.05,78.4,73.7" transform="matrix(1,0,0,1,1196,-4)" class="stroke_order_diagram--current_path"></path><circle cx="52.38" cy="75.92" r="8" class="stroke_order_diagram--path_start" transform="matrix(1,0,0,1,1196,-4)"></circle></svg>