<svg style="width: 1400px; height: 100px;" viewbox="0 0 1400 100"><style>
.stroke_order_diagram--outer_container {
  width: 100%;
  overflow-x: auto;
  overflow-y: hidden;
}

.stroke_order_diagram--guide_line {
  fill: none;
  stroke: #ddd;
  stroke-width: 3;
  stroke-linecap: square;
  stroke-linejoin: square;
  stroke-dasharray:8, 8;
}

.stroke_order_diagram--bounding_box {
  fill: none;
  stroke: #ddd;
  stroke-width: 4;
  stroke-linecap: square;
  stroke-linejoin: square;
}

.stroke_order_diagram--current_path {
  fill: none;
  stroke: #000;
  stroke-width: 6;
  stroke-linecap: round;
  stroke-linejoin: round;
}

.stroke_order_diagram--existing_path {
  fill: none;
  stroke: #aaa;
  stroke-width: 6;
  stroke-linecap: round;
  stroke-linejoin:round;
}

.stroke_order_diagram--path_start {
  fill: rgba(255, 0, 0, 0.7);
  stroke:none
}</style><desc>Created with Snap</desc><defs></defs><line x1="1" x2="1399" y1="1" y2="1" class="stroke_order_diagram--bounding_box"></line><line x1="1" x2="1" y1="1" y2="99" class="stroke_order_diagram--bounding_box"></line><line x1="1" x2="1399" y1="99" y2="99" class="stroke_order_diagram--bounding_box"></line><line x1="0" x2="1400" y1="50" y2="50" class="stroke_order_diagram--guide_line"></line><line x1="50" x2="50" y1="1" y2="99" class="stroke_order_diagram--guide_line"></line><line x1="99" x2="99" y1="1" y2="99" class="stroke_order_diagram--bounding_box"></line><path id="kvg:06f23-s1" kvg:type="㇔" d="M18.13,15c3.75,1.52,9.68,6.23,10.62,8.59" transform="matrix(1,0,0,1,-4,-4)" class="stroke_order_diagram--current_path"></path><path id="pathSk2v596cn4pmp" kvg:type="㇔" d="M18.13,15c3.75,1.52,9.68,6.23,10.62,8.59" transform="matrix(1,0,0,1,-4,-4)" class="stroke_order_diagram--current_path"></path><circle cx="18.13" cy="15" r="8" class="stroke_order_diagram--path_start" transform="matrix(1,0,0,1,-4,-4)"></circle><line x1="150" x2="150" y1="1" y2="99" class="stroke_order_diagram--guide_line"></line><line x1="199" x2="199" y1="1" y2="99" class="stroke_order_diagram--bounding_box"></line><path id="pathSk2v596cn4pms" kvg:type="㇔" d="M18.13,15c3.75,1.52,9.68,6.23,10.62,8.59" transform="matrix(1,0,0,1,96,-4)" class="stroke_order_diagram--existing_path"></path><path id="kvg:06f23-s2" kvg:type="㇔" d="M12.5,39c4.24,1.32,10.94,5.44,12,7.5" transform="matrix(1,0,0,1,96,-4)" class="stroke_order_diagram--current_path"></path><path id="pathSk2v596cn4pmu" kvg:type="㇔" d="M12.5,39c4.24,1.32,10.94,5.44,12,7.5" transform="matrix(1,0,0,1,96,-4)" class="stroke_order_diagram--current_path"></path><circle cx="12.5" cy="39" r="8" class="stroke_order_diagram--path_start" transform="matrix(1,0,0,1,96,-4)"></circle><line x1="250" x2="250" y1="1" y2="99" class="stroke_order_diagram--guide_line"></line><line x1="299" x2="299" y1="1" y2="99" class="stroke_order_diagram--bounding_box"></line><path id="pathSk2v596cn4pmx" kvg:type="㇔" d="M18.13,15c3.75,1.52,9.68,6.23,10.62,8.59" transform="matrix(1,0,0,1,196,-4)" class="stroke_order_diagram--existing_path"></path><path id="pathSk2v596cn4pmy" kvg:type="㇔" d="M12.5,39c4.24,1.32,10.94,5.44,12,7.5" transform="matrix(1,0,0,1,196,-4)" class="stroke_order_diagram--existing_path"></path><path id="kvg:06f23-s3" kvg:type="㇀" d="M11.75,89.21c1.5,1.31,3.31,1.36,4.25-0.25c2.75-4.7,5.5-10.45,8-16.45" transform="matrix(1,0,0,1,196,-4)" class="stroke_order_diagram--current_path"></path><path id="pathSk2v596cn4pn0" kvg:type="㇀" d="M11.75,89.21c1.5,1.31,3.31,1.36,4.25-0.25c2.75-4.7,5.5-10.45,8-16.45" transform="matrix(1,0,0,1,196,-4)" class="stroke_order_diagram--current_path"></path><circle cx="11.75" cy="89.21" r="8" class="stroke_order_diagram--path_start" transform="matrix(1,0,0,1,196,-4)"></circle><line x1="350" x2="350" y1="1" y2="99" class="stroke_order_diagram--guide_line"></line><line x1="399" x2="399" y1="1" y2="99" class="stroke_order_diagram--bounding_box"></line><path id="pathSk2v596cn4pn3" kvg:type="㇔" d="M18.13,15c3.75,1.52,9.68,6.23,10.62,8.59" transform="matrix(1,0,0,1,296,-4)" class="stroke_order_diagram--existing_path"></path><path id="pathSk2v596cn4pn4" kvg:type="㇔" d="M12.5,39c4.24,1.32,10.94,5.44,12,7.5" transform="matrix(1,0,0,1,296,-4)" class="stroke_order_diagram--existing_path"></path><path id="pathSk2v596cn4pn5" kvg:type="㇀" d="M11.75,89.21c1.5,1.31,3.31,1.36,4.25-0.25c2.75-4.7,5.5-10.45,8-16.45" transform="matrix(1,0,0,1,296,-4)" class="stroke_order_diagram--existing_path"></path><path id="kvg:06f23-s4" kvg:type="㇐" d="M55.66,24.54c0.7,0.36,1.99,0.48,2.68,0.36c10.19-1.76,20.36-2.16,30.27-3.1c1.16-0.11,1.87,0.17,2.45,0.35" transform="matrix(1,0,0,1,296,-4)" class="stroke_order_diagram--current_path"></path><path id="pathSk2v596cn4pn7" kvg:type="㇐" d="M55.66,24.54c0.7,0.36,1.99,0.48,2.68,0.36c10.19-1.76,20.36-2.16,30.27-3.1c1.16-0.11,1.87,0.17,2.45,0.35" transform="matrix(1,0,0,1,296,-4)" class="stroke_order_diagram--current_path"></path><circle cx="55.66" cy="24.54" r="8" class="stroke_order_diagram--path_start" transform="matrix(1,0,0,1,296,-4)"></circle><line x1="450" x2="450" y1="1" y2="99" class="stroke_order_diagram--guide_line"></line><line x1="499" x2="499" y1="1" y2="99" class="stroke_order_diagram--bounding_box"></line><path id="pathSk2v596cn4pna" kvg:type="㇔" d="M18.13,15c3.75,1.52,9.68,6.23,10.62,8.59" transform="matrix(1,0,0,1,396,-4)" class="stroke_order_diagram--existing_path"></path><path id="pathSk2v596cn4pnb" kvg:type="㇔" d="M12.5,39c4.24,1.32,10.94,5.44,12,7.5" transform="matrix(1,0,0,1,396,-4)" class="stroke_order_diagram--existing_path"></path><path id="pathSk2v596cn4pnc" kvg:type="㇀" d="M11.75,89.21c1.5,1.31,3.31,1.36,4.25-0.25c2.75-4.7,5.5-10.45,8-16.45" transform="matrix(1,0,0,1,396,-4)" class="stroke_order_diagram--existing_path"></path><path id="pathSk2v596cn4pnd" kvg:type="㇐" d="M55.66,24.54c0.7,0.36,1.99,0.48,2.68,0.36c10.19-1.76,20.36-2.16,30.27-3.1c1.16-0.11,1.87,0.17,2.45,0.35" transform="matrix(1,0,0,1,396,-4)" class="stroke_order_diagram--existing_path"></path><path id="kvg:06f23-s5" kvg:type="㇑" d="M55.25,34.24c0.55,0.47,1.24,0.83,1.34,1.45c0.74,4.5,2.89,16.59,3.93,25.11" transform="matrix(1,0,0,1,396,-4)" class="stroke_order_diagram--current_path"></path><path id="pathSk2v596cn4pnf" kvg:type="㇑" d="M55.25,34.24c0.55,0.47,1.24,0.83,1.34,1.45c0.74,4.5,2.89,16.59,3.93,25.11" transform="matrix(1,0,0,1,396,-4)" class="stroke_order_diagram--current_path"></path><circle cx="55.25" cy="34.24" r="8" class="stroke_order_diagram--path_start" transform="matrix(1,0,0,1,396,-4)"></circle><line x1="550" x2="550" y1="1" y2="99" class="stroke_order_diagram--guide_line"></line><line x1="599" x2="599" y1="1" y2="99" class="stroke_order_diagram--bounding_box"></line><path id="pathSk2v596cn4pni" kvg:type="㇔" d="M18.13,15c3.75,1.52,9.68,6.23,10.62,8.59" transform="matrix(1,0,0,1,496,-4)" class="stroke_order_diagram--existing_path"></path><path id="pathSk2v596cn4pnj" kvg:type="㇔" d="M12.5,39c4.24,1.32,10.94,5.44,12,7.5" transform="matrix(1,0,0,1,496,-4)" class="stroke_order_diagram--existing_path"></path><path id="pathSk2v596cn4pnk" kvg:type="㇀" d="M11.75,89.21c1.5,1.31,3.31,1.36,4.25-0.25c2.75-4.7,5.5-10.45,8-16.45" transform="matrix(1,0,0,1,496,-4)" class="stroke_order_diagram--existing_path"></path><path id="pathSk2v596cn4pnl" kvg:type="㇐" d="M55.66,24.54c0.7,0.36,1.99,0.48,2.68,0.36c10.19-1.76,20.36-2.16,30.27-3.1c1.16-0.11,1.87,0.17,2.45,0.35" transform="matrix(1,0,0,1,496,-4)" class="stroke_order_diagram--existing_path"></path><path id="pathSk2v596cn4pnm" kvg:type="㇑" d="M55.25,34.24c0.55,0.47,1.24,0.83,1.34,1.45c0.74,4.5,2.89,16.59,3.93,25.11" transform="matrix(1,0,0,1,496,-4)" class="stroke_order_diagram--existing_path"></path><path id="kvg:06f23-s6" kvg:type="㇕a" d="M57.35,35.94c8.31-0.9,26.5-4.1,32.16-4.24c2.35-0.06,2.83,1.73,2.73,3.14c-0.34,4.85-2.03,15.79-3.89,23.74" transform="matrix(1,0,0,1,496,-4)" class="stroke_order_diagram--current_path"></path><path id="pathSk2v596cn4pno" kvg:type="㇕a" d="M57.35,35.94c8.31-0.9,26.5-4.1,32.16-4.24c2.35-0.06,2.83,1.73,2.73,3.14c-0.34,4.85-2.03,15.79-3.89,23.74" transform="matrix(1,0,0,1,496,-4)" class="stroke_order_diagram--current_path"></path><circle cx="57.35" cy="35.94" r="8" class="stroke_order_diagram--path_start" transform="matrix(1,0,0,1,496,-4)"></circle><line x1="650" x2="650" y1="1" y2="99" class="stroke_order_diagram--guide_line"></line><line x1="699" x2="699" y1="1" y2="99" class="stroke_order_diagram--bounding_box"></line><path id="pathSk2v596cn4pnr" kvg:type="㇔" d="M18.13,15c3.75,1.52,9.68,6.23,10.62,8.59" transform="matrix(1,0,0,1,596,-4)" class="stroke_order_diagram--existing_path"></path><path id="pathSk2v596cn4pns" kvg:type="㇔" d="M12.5,39c4.24,1.32,10.94,5.44,12,7.5" transform="matrix(1,0,0,1,596,-4)" class="stroke_order_diagram--existing_path"></path><path id="pathSk2v596cn4pnt" kvg:type="㇀" d="M11.75,89.21c1.5,1.31,3.31,1.36,4.25-0.25c2.75-4.7,5.5-10.45,8-16.45" transform="matrix(1,0,0,1,596,-4)" class="stroke_order_diagram--existing_path"></path><path id="pathSk2v596cn4pnu" kvg:type="㇐" d="M55.66,24.54c0.7,0.36,1.99,0.48,2.68,0.36c10.19-1.76,20.36-2.16,30.27-3.1c1.16-0.11,1.87,0.17,2.45,0.35" transform="matrix(1,0,0,1,596,-4)" class="stroke_order_diagram--existing_path"></path><path id="pathSk2v596cn4pnv" kvg:type="㇑" d="M55.25,34.24c0.55,0.47,1.24,0.83,1.34,1.45c0.74,4.5,2.89,16.59,3.93,25.11" transform="matrix(1,0,0,1,596,-4)" class="stroke_order_diagram--existing_path"></path><path id="pathSk2v596cn4pnw" kvg:type="㇕a" d="M57.35,35.94c8.31-0.9,26.5-4.1,32.16-4.24c2.35-0.06,2.83,1.73,2.73,3.14c-0.34,4.85-2.03,15.79-3.89,23.74" transform="matrix(1,0,0,1,596,-4)" class="stroke_order_diagram--existing_path"></path><path id="kvg:06f23-s7" kvg:type="㇐a" d="M59.73,47.17c8.25-0.92,20.18-2.92,31.15-3.51" transform="matrix(1,0,0,1,596,-4)" class="stroke_order_diagram--current_path"></path><path id="pathSk2v596cn4pny" kvg:type="㇐a" d="M59.73,47.17c8.25-0.92,20.18-2.92,31.15-3.51" transform="matrix(1,0,0,1,596,-4)" class="stroke_order_diagram--current_path"></path><circle cx="59.73" cy="47.17" r="8" class="stroke_order_diagram--path_start" transform="matrix(1,0,0,1,596,-4)"></circle><line x1="750" x2="750" y1="1" y2="99" class="stroke_order_diagram--guide_line"></line><line x1="799" x2="799" y1="1" y2="99" class="stroke_order_diagram--bounding_box"></line><path id="pathSk2v596cn4po1" kvg:type="㇔" d="M18.13,15c3.75,1.52,9.68,6.23,10.62,8.59" transform="matrix(1,0,0,1,696,-4)" class="stroke_order_diagram--existing_path"></path><path id="pathSk2v596cn4po2" kvg:type="㇔" d="M12.5,39c4.24,1.32,10.94,5.44,12,7.5" transform="matrix(1,0,0,1,696,-4)" class="stroke_order_diagram--existing_path"></path><path id="pathSk2v596cn4po3" kvg:type="㇀" d="M11.75,89.21c1.5,1.31,3.31,1.36,4.25-0.25c2.75-4.7,5.5-10.45,8-16.45" transform="matrix(1,0,0,1,696,-4)" class="stroke_order_diagram--existing_path"></path><path id="pathSk2v596cn4po4" kvg:type="㇐" d="M55.66,24.54c0.7,0.36,1.99,0.48,2.68,0.36c10.19-1.76,20.36-2.16,30.27-3.1c1.16-0.11,1.87,0.17,2.45,0.35" transform="matrix(1,0,0,1,696,-4)" class="stroke_order_diagram--existing_path"></path><path id="pathSk2v596cn4po5" kvg:type="㇑" d="M55.25,34.24c0.55,0.47,1.24,0.83,1.34,1.45c0.74,4.5,2.89,16.59,3.93,25.11" transform="matrix(1,0,0,1,696,-4)" class="stroke_order_diagram--existing_path"></path><path id="pathSk2v596cn4po6" kvg:type="㇕a" d="M57.35,35.94c8.31-0.9,26.5-4.1,32.16-4.24c2.35-0.06,2.83,1.73,2.73,3.14c-0.34,4.85-2.03,15.79-3.89,23.74" transform="matrix(1,0,0,1,696,-4)" class="stroke_order_diagram--existing_path"></path><path id="pathSk2v596cn4po7" kvg:type="㇐a" d="M59.73,47.17c8.25-0.92,20.18-2.92,31.15-3.51" transform="matrix(1,0,0,1,696,-4)" class="stroke_order_diagram--existing_path"></path><path id="kvg:06f23-s8" kvg:type="㇐a" d="M60.57,59.39c7.28-0.94,18.72-2.74,28.2-2.74" transform="matrix(1,0,0,1,696,-4)" class="stroke_order_diagram--current_path"></path><path id="pathSk2v596cn4po9" kvg:type="㇐a" d="M60.57,59.39c7.28-0.94,18.72-2.74,28.2-2.74" transform="matrix(1,0,0,1,696,-4)" class="stroke_order_diagram--current_path"></path><circle cx="60.57" cy="59.39" r="8" class="stroke_order_diagram--path_start" transform="matrix(1,0,0,1,696,-4)"></circle><line x1="850" x2="850" y1="1" y2="99" class="stroke_order_diagram--guide_line"></line><line x1="899" x2="899" y1="1" y2="99" class="stroke_order_diagram--bounding_box"></line><path id="pathSk2v596cn4poc" kvg:type="㇔" d="M18.13,15c3.75,1.52,9.68,6.23,10.62,8.59" transform="matrix(1,0,0,1,796,-4)" class="stroke_order_diagram--existing_path"></path><path id="pathSk2v596cn4pod" kvg:type="㇔" d="M12.5,39c4.24,1.32,10.94,5.44,12,7.5" transform="matrix(1,0,0,1,796,-4)" class="stroke_order_diagram--existing_path"></path><path id="pathSk2v596cn4poe" kvg:type="㇀" d="M11.75,89.21c1.5,1.31,3.31,1.36,4.25-0.25c2.75-4.7,5.5-10.45,8-16.45" transform="matrix(1,0,0,1,796,-4)" class="stroke_order_diagram--existing_path"></path><path id="pathSk2v596cn4pof" kvg:type="㇐" d="M55.66,24.54c0.7,0.36,1.99,0.48,2.68,0.36c10.19-1.76,20.36-2.16,30.27-3.1c1.16-0.11,1.87,0.17,2.45,0.35" transform="matrix(1,0,0,1,796,-4)" class="stroke_order_diagram--existing_path"></path><path id="pathSk2v596cn4pog" kvg:type="㇑" d="M55.25,34.24c0.55,0.47,1.24,0.83,1.34,1.45c0.74,4.5,2.89,16.59,3.93,25.11" transform="matrix(1,0,0,1,796,-4)" class="stroke_order_diagram--existing_path"></path><path id="pathSk2v596cn4poh" kvg:type="㇕a" d="M57.35,35.94c8.31-0.9,26.5-4.1,32.16-4.24c2.35-0.06,2.83,1.73,2.73,3.14c-0.34,4.85-2.03,15.79-3.89,23.74" transform="matrix(1,0,0,1,796,-4)" class="stroke_order_diagram--existing_path"></path><path id="pathSk2v596cn4poi" kvg:type="㇐a" d="M59.73,47.17c8.25-0.92,20.18-2.92,31.15-3.51" transform="matrix(1,0,0,1,796,-4)" class="stroke_order_diagram--existing_path"></path><path id="pathSk2v596cn4poj" kvg:type="㇐a" d="M60.57,59.39c7.28-0.94,18.72-2.74,28.2-2.74" transform="matrix(1,0,0,1,796,-4)" class="stroke_order_diagram--existing_path"></path><path id="kvg:06f23-s9" kvg:type="㇐" d="M53.82,70.72c1,0.72,2.8,0.81,3.82,0.72c10.86-0.94,21.62-2.47,33.37-2.94c1.66-0.07,2.66,0.34,3.49,0.7" transform="matrix(1,0,0,1,796,-4)" class="stroke_order_diagram--current_path"></path><path id="pathSk2v596cn4pol" kvg:type="㇐" d="M53.82,70.72c1,0.72,2.8,0.81,3.82,0.72c10.86-0.94,21.62-2.47,33.37-2.94c1.66-0.07,2.66,0.34,3.49,0.7" transform="matrix(1,0,0,1,796,-4)" class="stroke_order_diagram--current_path"></path><circle cx="53.82" cy="70.72" r="8" class="stroke_order_diagram--path_start" transform="matrix(1,0,0,1,796,-4)"></circle><line x1="950" x2="950" y1="1" y2="99" class="stroke_order_diagram--guide_line"></line><line x1="999" x2="999" y1="1" y2="99" class="stroke_order_diagram--bounding_box"></line><path id="pathSk2v596cn4poo" kvg:type="㇔" d="M18.13,15c3.75,1.52,9.68,6.23,10.62,8.59" transform="matrix(1,0,0,1,896,-4)" class="stroke_order_diagram--existing_path"></path><path id="pathSk2v596cn4pop" kvg:type="㇔" d="M12.5,39c4.24,1.32,10.94,5.44,12,7.5" transform="matrix(1,0,0,1,896,-4)" class="stroke_order_diagram--existing_path"></path><path id="pathSk2v596cn4poq" kvg:type="㇀" d="M11.75,89.21c1.5,1.31,3.31,1.36,4.25-0.25c2.75-4.7,5.5-10.45,8-16.45" transform="matrix(1,0,0,1,896,-4)" class="stroke_order_diagram--existing_path"></path><path id="pathSk2v596cn4por" kvg:type="㇐" d="M55.66,24.54c0.7,0.36,1.99,0.48,2.68,0.36c10.19-1.76,20.36-2.16,30.27-3.1c1.16-0.11,1.87,0.17,2.45,0.35" transform="matrix(1,0,0,1,896,-4)" class="stroke_order_diagram--existing_path"></path><path id="pathSk2v596cn4pos" kvg:type="㇑" d="M55.25,34.24c0.55,0.47,1.24,0.83,1.34,1.45c0.74,4.5,2.89,16.59,3.93,25.11" transform="matrix(1,0,0,1,896,-4)" class="stroke_order_diagram--existing_path"></path><path id="pathSk2v596cn4pot" kvg:type="㇕a" d="M57.35,35.94c8.31-0.9,26.5-4.1,32.16-4.24c2.35-0.06,2.83,1.73,2.73,3.14c-0.34,4.85-2.03,15.79-3.89,23.74" transform="matrix(1,0,0,1,896,-4)" class="stroke_order_diagram--existing_path"></path><path id="pathSk2v596cn4pou" kvg:type="㇐a" d="M59.73,47.17c8.25-0.92,20.18-2.92,31.15-3.51" transform="matrix(1,0,0,1,896,-4)" class="stroke_order_diagram--existing_path"></path><path id="pathSk2v596cn4pov" kvg:type="㇐a" d="M60.57,59.39c7.28-0.94,18.72-2.74,28.2-2.74" transform="matrix(1,0,0,1,896,-4)" class="stroke_order_diagram--existing_path"></path><path id="pathSk2v596cn4pow" kvg:type="㇐" d="M53.82,70.72c1,0.72,2.8,0.81,3.82,0.72c10.86-0.94,21.62-2.47,33.37-2.94c1.66-0.07,2.66,0.34,3.49,0.7" transform="matrix(1,0,0,1,896,-4)" class="stroke_order_diagram--existing_path"></path><path id="kvg:06f23-s10" kvg:type="㇑" d="M71.8,10.63c0.51,0.56,2.2,1.87,2.2,4.79c0,1.12-0.07,63.99-0.17,70.96" transform="matrix(1,0,0,1,896,-4)" class="stroke_order_diagram--current_path"></path><path id="pathSk2v596cn4poy" kvg:type="㇑" d="M71.8,10.63c0.51,0.56,2.2,1.87,2.2,4.79c0,1.12-0.07,63.99-0.17,70.96" transform="matrix(1,0,0,1,896,-4)" class="stroke_order_diagram--current_path"></path><circle cx="71.8" cy="10.63" r="8" class="stroke_order_diagram--path_start" transform="matrix(1,0,0,1,896,-4)"></circle><line x1="1050" x2="1050" y1="1" y2="99" class="stroke_order_diagram--guide_line"></line><line x1="1099" x2="1099" y1="1" y2="99" class="stroke_order_diagram--bounding_box"></line><path id="pathSk2v596cn4pp1" kvg:type="㇔" d="M18.13,15c3.75,1.52,9.68,6.23,10.62,8.59" transform="matrix(1,0,0,1,996,-4)" class="stroke_order_diagram--existing_path"></path><path id="pathSk2v596cn4pp2" kvg:type="㇔" d="M12.5,39c4.24,1.32,10.94,5.44,12,7.5" transform="matrix(1,0,0,1,996,-4)" class="stroke_order_diagram--existing_path"></path><path id="pathSk2v596cn4pp3" kvg:type="㇀" d="M11.75,89.21c1.5,1.31,3.31,1.36,4.25-0.25c2.75-4.7,5.5-10.45,8-16.45" transform="matrix(1,0,0,1,996,-4)" class="stroke_order_diagram--existing_path"></path><path id="pathSk2v596cn4pp4" kvg:type="㇐" d="M55.66,24.54c0.7,0.36,1.99,0.48,2.68,0.36c10.19-1.76,20.36-2.16,30.27-3.1c1.16-0.11,1.87,0.17,2.45,0.35" transform="matrix(1,0,0,1,996,-4)" class="stroke_order_diagram--existing_path"></path><path id="pathSk2v596cn4pp5" kvg:type="㇑" d="M55.25,34.24c0.55,0.47,1.24,0.83,1.34,1.45c0.74,4.5,2.89,16.59,3.93,25.11" transform="matrix(1,0,0,1,996,-4)" class="stroke_order_diagram--existing_path"></path><path id="pathSk2v596cn4pp6" kvg:type="㇕a" d="M57.35,35.94c8.31-0.9,26.5-4.1,32.16-4.24c2.35-0.06,2.83,1.73,2.73,3.14c-0.34,4.85-2.03,15.79-3.89,23.74" transform="matrix(1,0,0,1,996,-4)" class="stroke_order_diagram--existing_path"></path><path id="pathSk2v596cn4pp7" kvg:type="㇐a" d="M59.73,47.17c8.25-0.92,20.18-2.92,31.15-3.51" transform="matrix(1,0,0,1,996,-4)" class="stroke_order_diagram--existing_path"></path><path id="pathSk2v596cn4pp8" kvg:type="㇐a" d="M60.57,59.39c7.28-0.94,18.72-2.74,28.2-2.74" transform="matrix(1,0,0,1,996,-4)" class="stroke_order_diagram--existing_path"></path><path id="pathSk2v596cn4pp9" kvg:type="㇐" d="M53.82,70.72c1,0.72,2.8,0.81,3.82,0.72c10.86-0.94,21.62-2.47,33.37-2.94c1.66-0.07,2.66,0.34,3.49,0.7" transform="matrix(1,0,0,1,996,-4)" class="stroke_order_diagram--existing_path"></path><path id="pathSk2v596cn4ppa" kvg:type="㇑" d="M71.8,10.63c0.51,0.56,2.2,1.87,2.2,4.79c0,1.12-0.07,63.99-0.17,70.96" transform="matrix(1,0,0,1,996,-4)" class="stroke_order_diagram--existing_path"></path><path id="kvg:06f23-s11" kvg:type="㇔" d="M39.53,16.5c2.89,1.74,7.47,7.17,8.19,9.88" transform="matrix(1,0,0,1,996,-4)" class="stroke_order_diagram--current_path"></path><path id="pathSk2v596cn4ppc" kvg:type="㇔" d="M39.53,16.5c2.89,1.74,7.47,7.17,8.19,9.88" transform="matrix(1,0,0,1,996,-4)" class="stroke_order_diagram--current_path"></path><circle cx="39.53" cy="16.5" r="8" class="stroke_order_diagram--path_start" transform="matrix(1,0,0,1,996,-4)"></circle><line x1="1150" x2="1150" y1="1" y2="99" class="stroke_order_diagram--guide_line"></line><line x1="1199" x2="1199" y1="1" y2="99" class="stroke_order_diagram--bounding_box"></line><path id="pathSk2v596cn4ppf" kvg:type="㇔" d="M18.13,15c3.75,1.52,9.68,6.23,10.62,8.59" transform="matrix(1,0,0,1,1096,-4)" class="stroke_order_diagram--existing_path"></path><path id="pathSk2v596cn4ppg" kvg:type="㇔" d="M12.5,39c4.24,1.32,10.94,5.44,12,7.5" transform="matrix(1,0,0,1,1096,-4)" class="stroke_order_diagram--existing_path"></path><path id="pathSk2v596cn4pph" kvg:type="㇀" d="M11.75,89.21c1.5,1.31,3.31,1.36,4.25-0.25c2.75-4.7,5.5-10.45,8-16.45" transform="matrix(1,0,0,1,1096,-4)" class="stroke_order_diagram--existing_path"></path><path id="pathSk2v596cn4ppi" kvg:type="㇐" d="M55.66,24.54c0.7,0.36,1.99,0.48,2.68,0.36c10.19-1.76,20.36-2.16,30.27-3.1c1.16-0.11,1.87,0.17,2.45,0.35" transform="matrix(1,0,0,1,1096,-4)" class="stroke_order_diagram--existing_path"></path><path id="pathSk2v596cn4ppj" kvg:type="㇑" d="M55.25,34.24c0.55,0.47,1.24,0.83,1.34,1.45c0.74,4.5,2.89,16.59,3.93,25.11" transform="matrix(1,0,0,1,1096,-4)" class="stroke_order_diagram--existing_path"></path><path id="pathSk2v596cn4ppk" kvg:type="㇕a" d="M57.35,35.94c8.31-0.9,26.5-4.1,32.16-4.24c2.35-0.06,2.83,1.73,2.73,3.14c-0.34,4.85-2.03,15.79-3.89,23.74" transform="matrix(1,0,0,1,1096,-4)" class="stroke_order_diagram--existing_path"></path><path id="pathSk2v596cn4ppl" kvg:type="㇐a" d="M59.73,47.17c8.25-0.92,20.18-2.92,31.15-3.51" transform="matrix(1,0,0,1,1096,-4)" class="stroke_order_diagram--existing_path"></path><path id="pathSk2v596cn4ppm" kvg:type="㇐a" d="M60.57,59.39c7.28-0.94,18.72-2.74,28.2-2.74" transform="matrix(1,0,0,1,1096,-4)" class="stroke_order_diagram--existing_path"></path><path id="pathSk2v596cn4ppn" kvg:type="㇐" d="M53.82,70.72c1,0.72,2.8,0.81,3.82,0.72c10.86-0.94,21.62-2.47,33.37-2.94c1.66-0.07,2.66,0.34,3.49,0.7" transform="matrix(1,0,0,1,1096,-4)" class="stroke_order_diagram--existing_path"></path><path id="pathSk2v596cn4ppo" kvg:type="㇑" d="M71.8,10.63c0.51,0.56,2.2,1.87,2.2,4.79c0,1.12-0.07,63.99-0.17,70.96" transform="matrix(1,0,0,1,1096,-4)" class="stroke_order_diagram--existing_path"></path><path id="pathSk2v596cn4ppp" kvg:type="㇔" d="M39.53,16.5c2.89,1.74,7.47,7.17,8.19,9.88" transform="matrix(1,0,0,1,1096,-4)" class="stroke_order_diagram--existing_path"></path><path id="kvg:06f23-s12" kvg:type="㇔" d="M34.16,39c3.45,0.99,8.92,4.09,9.79,5.63" transform="matrix(1,0,0,1,1096,-4)" class="stroke_order_diagram--current_path"></path><path id="pathSk2v596cn4ppr" kvg:type="㇔" d="M34.16,39c3.45,0.99,8.92,4.09,9.79,5.63" transform="matrix(1,0,0,1,1096,-4)" class="stroke_order_diagram--current_path"></path><circle cx="34.16" cy="39" r="8" class="stroke_order_diagram--path_start" transform="matrix(1,0,0,1,1096,-4)"></circle><line x1="1250" x2="1250" y1="1" y2="99" class="stroke_order_diagram--guide_line"></line><line x1="1299" x2="1299" y1="1" y2="99" class="stroke_order_diagram--bounding_box"></line><path id="pathSk2v596cn4ppu" kvg:type="㇔" d="M18.13,15c3.75,1.52,9.68,6.23,10.62,8.59" transform="matrix(1,0,0,1,1196,-4)" class="stroke_order_diagram--existing_path"></path><path id="pathSk2v596cn4ppv" kvg:type="㇔" d="M12.5,39c4.24,1.32,10.94,5.44,12,7.5" transform="matrix(1,0,0,1,1196,-4)" class="stroke_order_diagram--existing_path"></path><path id="pathSk2v596cn4ppw" kvg:type="㇀" d="M11.75,89.21c1.5,1.31,3.31,1.36,4.25-0.25c2.75-4.7,5.5-10.45,8-16.45" transform="matrix(1,0,0,1,1196,-4)" class="stroke_order_diagram--existing_path"></path><path id="pathSk2v596cn4ppx" kvg:type="㇐" d="M55.66,24.54c0.7,0.36,1.99,0.48,2.68,0.36c10.19-1.76,20.36-2.16,30.27-3.1c1.16-0.11,1.87,0.17,2.45,0.35" transform="matrix(1,0,0,1,1196,-4)" class="stroke_order_diagram--existing_path"></path><path id="pathSk2v596cn4ppy" kvg:type="㇑" d="M55.25,34.24c0.55,0.47,1.24,0.83,1.34,1.45c0.74,4.5,2.89,16.59,3.93,25.11" transform="matrix(1,0,0,1,1196,-4)" class="stroke_order_diagram--existing_path"></path><path id="pathSk2v596cn4ppz" kvg:type="㇕a" d="M57.35,35.94c8.31-0.9,26.5-4.1,32.16-4.24c2.35-0.06,2.83,1.73,2.73,3.14c-0.34,4.85-2.03,15.79-3.89,23.74" transform="matrix(1,0,0,1,1196,-4)" class="stroke_order_diagram--existing_path"></path><path id="pathSk2v596cn4pq0" kvg:type="㇐a" d="M59.73,47.17c8.25-0.92,20.18-2.92,31.15-3.51" transform="matrix(1,0,0,1,1196,-4)" class="stroke_order_diagram--existing_path"></path><path id="pathSk2v596cn4pq1" kvg:type="㇐a" d="M60.57,59.39c7.28-0.94,18.72-2.74,28.2-2.74" transform="matrix(1,0,0,1,1196,-4)" class="stroke_order_diagram--existing_path"></path><path id="pathSk2v596cn4pq2" kvg:type="㇐" d="M53.82,70.72c1,0.72,2.8,0.81,3.82,0.72c10.86-0.94,21.62-2.47,33.37-2.94c1.66-0.07,2.66,0.34,3.49,0.7" transform="matrix(1,0,0,1,1196,-4)" class="stroke_order_diagram--existing_path"></path><path id="pathSk2v596cn4pq3" kvg:type="㇑" d="M71.8,10.63c0.51,0.56,2.2,1.87,2.2,4.79c0,1.12-0.07,63.99-0.17,70.96" transform="matrix(1,0,0,1,1196,-4)" class="stroke_order_diagram--existing_path"></path><path id="pathSk2v596cn4pq4" kvg:type="㇔" d="M39.53,16.5c2.89,1.74,7.47,7.17,8.19,9.88" transform="matrix(1,0,0,1,1196,-4)" class="stroke_order_diagram--existing_path"></path><path id="pathSk2v596cn4pq5" kvg:type="㇔" d="M34.16,39c3.45,0.99,8.92,4.09,9.79,5.63" transform="matrix(1,0,0,1,1196,-4)" class="stroke_order_diagram--existing_path"></path><path id="kvg:06f23-s13" kvg:type="㇋" d="M33,60.94c1.79,0.85,2.99,0.43,3.78,0.21c0.8-0.21,6.37-2.99,7.56-3.42c1.19-0.43,2.99,1.07,2.19,2.35s-3.19,6.19-3.78,7.26c-0.6,1.07-0.4,2.99,0.8,4.48s2.19,3.2,2.79,4.48c0.6,1.28,0.6,2.35-0.6,3.42c-1.19,1.07-7.17,7.04-8.36,7.47" transform="matrix(1,0,0,1,1196,-4)" class="stroke_order_diagram--current_path"></path><path id="pathSk2v596cn4pq7" kvg:type="㇋" d="M33,60.94c1.79,0.85,2.99,0.43,3.78,0.21c0.8-0.21,6.37-2.99,7.56-3.42c1.19-0.43,2.99,1.07,2.19,2.35s-3.19,6.19-3.78,7.26c-0.6,1.07-0.4,2.99,0.8,4.48s2.19,3.2,2.79,4.48c0.6,1.28,0.6,2.35-0.6,3.42c-1.19,1.07-7.17,7.04-8.36,7.47" transform="matrix(1,0,0,1,1196,-4)" class="stroke_order_diagram--current_path"></path><circle cx="33" cy="60.94" r="8" class="stroke_order_diagram--path_start" transform="matrix(1,0,0,1,1196,-4)"></circle><line x1="1350" x2="1350" y1="1" y2="99" class="stroke_order_diagram--guide_line"></line><line x1="1399" x2="1399" y1="1" y2="99" class="stroke_order_diagram--bounding_box"></line><path id="pathSk2v596cn4pqa" kvg:type="㇔" d="M18.13,15c3.75,1.52,9.68,6.23,10.62,8.59" transform="matrix(1,0,0,1,1296,-4)" class="stroke_order_diagram--existing_path"></path><path id="pathSk2v596cn4pqb" kvg:type="㇔" d="M12.5,39c4.24,1.32,10.94,5.44,12,7.5" transform="matrix(1,0,0,1,1296,-4)" class="stroke_order_diagram--existing_path"></path><path id="pathSk2v596cn4pqc" kvg:type="㇀" d="M11.75,89.21c1.5,1.31,3.31,1.36,4.25-0.25c2.75-4.7,5.5-10.45,8-16.45" transform="matrix(1,0,0,1,1296,-4)" class="stroke_order_diagram--existing_path"></path><path id="pathSk2v596cn4pqd" kvg:type="㇐" d="M55.66,24.54c0.7,0.36,1.99,0.48,2.68,0.36c10.19-1.76,20.36-2.16,30.27-3.1c1.16-0.11,1.87,0.17,2.45,0.35" transform="matrix(1,0,0,1,1296,-4)" class="stroke_order_diagram--existing_path"></path><path id="pathSk2v596cn4pqe" kvg:type="㇑" d="M55.25,34.24c0.55,0.47,1.24,0.83,1.34,1.45c0.74,4.5,2.89,16.59,3.93,25.11" transform="matrix(1,0,0,1,1296,-4)" class="stroke_order_diagram--existing_path"></path><path id="pathSk2v596cn4pqf" kvg:type="㇕a" d="M57.35,35.94c8.31-0.9,26.5-4.1,32.16-4.24c2.35-0.06,2.83,1.73,2.73,3.14c-0.34,4.85-2.03,15.79-3.89,23.74" transform="matrix(1,0,0,1,1296,-4)" class="stroke_order_diagram--existing_path"></path><path id="pathSk2v596cn4pqg" kvg:type="㇐a" d="M59.73,47.17c8.25-0.92,20.18-2.92,31.15-3.51" transform="matrix(1,0,0,1,1296,-4)" class="stroke_order_diagram--existing_path"></path><path id="pathSk2v596cn4pqh" kvg:type="㇐a" d="M60.57,59.39c7.28-0.94,18.72-2.74,28.2-2.74" transform="matrix(1,0,0,1,1296,-4)" class="stroke_order_diagram--existing_path"></path><path id="pathSk2v596cn4pqi" kvg:type="㇐" d="M53.82,70.72c1,0.72,2.8,0.81,3.82,0.72c10.86-0.94,21.62-2.47,33.37-2.94c1.66-0.07,2.66,0.34,3.49,0.7" transform="matrix(1,0,0,1,1296,-4)" class="stroke_order_diagram--existing_path"></path><path id="pathSk2v596cn4pqj" kvg:type="㇑" d="M71.8,10.63c0.51,0.56,2.2,1.87,2.2,4.79c0,1.12-0.07,63.99-0.17,70.96" transform="matrix(1,0,0,1,1296,-4)" class="stroke_order_diagram--existing_path"></path><path id="pathSk2v596cn4pqk" kvg:type="㇔" d="M39.53,16.5c2.89,1.74,7.47,7.17,8.19,9.88" transform="matrix(1,0,0,1,1296,-4)" class="stroke_order_diagram--existing_path"></path><path id="pathSk2v596cn4pql" kvg:type="㇔" d="M34.16,39c3.45,0.99,8.92,4.09,9.79,5.63" transform="matrix(1,0,0,1,1296,-4)" class="stroke_order_diagram--existing_path"></path><path id="pathSk2v596cn4pqm" kvg:type="㇋" d="M33,60.94c1.79,0.85,2.99,0.43,3.78,0.21c0.8-0.21,6.37-2.99,7.56-3.42c1.19-0.43,2.99,1.07,2.19,2.35s-3.19,6.19-3.78,7.26c-0.6,1.07-0.4,2.99,0.8,4.48s2.19,3.2,2.79,4.48c0.6,1.28,0.6,2.35-0.6,3.42c-1.19,1.07-7.17,7.04-8.36,7.47" transform="matrix(1,0,0,1,1296,-4)" class="stroke_order_diagram--existing_path"></path><path id="kvg:06f23-s14" kvg:type="㇏" d="M34,88.07c2.36-0.24,7.07-0.85,10.61-0.37c3.54,0.49,23.64,3.76,27.12,4.39c9.43,1.71,16.7,2.19,23.78,1.34" transform="matrix(1,0,0,1,1296,-4)" class="stroke_order_diagram--current_path"></path><path id="pathSk2v596cn4pqo" kvg:type="㇏" d="M34,88.07c2.36-0.24,7.07-0.85,10.61-0.37c3.54,0.49,23.64,3.76,27.12,4.39c9.43,1.71,16.7,2.19,23.78,1.34" transform="matrix(1,0,0,1,1296,-4)" class="stroke_order_diagram--current_path"></path><circle cx="34" cy="88.07" r="8" class="stroke_order_diagram--path_start" transform="matrix(1,0,0,1,1296,-4)"></circle></svg>