<svg style="width: 1900px; height: 100px;" viewbox="0 0 1900 100"><style>
.stroke_order_diagram--outer_container {
  width: 100%;
  overflow-x: auto;
  overflow-y: hidden;
}

.stroke_order_diagram--guide_line {
  fill: none;
  stroke: #ddd;
  stroke-width: 3;
  stroke-linecap: square;
  stroke-linejoin: square;
  stroke-dasharray:8, 8;
}

.stroke_order_diagram--bounding_box {
  fill: none;
  stroke: #ddd;
  stroke-width: 4;
  stroke-linecap: square;
  stroke-linejoin: square;
}

.stroke_order_diagram--current_path {
  fill: none;
  stroke: #000;
  stroke-width: 6;
  stroke-linecap: round;
  stroke-linejoin: round;
}

.stroke_order_diagram--existing_path {
  fill: none;
  stroke: #aaa;
  stroke-width: 6;
  stroke-linecap: round;
  stroke-linejoin:round;
}

.stroke_order_diagram--path_start {
  fill: rgba(255, 0, 0, 0.7);
  stroke:none
}</style><desc>Created with Snap</desc><defs></defs><line x1="1" x2="1899" y1="1" y2="1" class="stroke_order_diagram--bounding_box"></line><line x1="1" x2="1" y1="1" y2="99" class="stroke_order_diagram--bounding_box"></line><line x1="1" x2="1899" y1="99" y2="99" class="stroke_order_diagram--bounding_box"></line><line x1="0" x2="1900" y1="50" y2="50" class="stroke_order_diagram--guide_line"></line><line x1="50" x2="50" y1="1" y2="99" class="stroke_order_diagram--guide_line"></line><line x1="99" x2="99" y1="1" y2="99" class="stroke_order_diagram--bounding_box"></line><path id="kvg:0702c-s1" kvg:type="㇔" d="M18.75,16.75c3.53,1.3,9.12,5.33,10,7.34" transform="matrix(1,0,0,1,-4,-4)" class="stroke_order_diagram--current_path"></path><path id="pathSk2v596cn32v3" kvg:type="㇔" d="M18.75,16.75c3.53,1.3,9.12,5.33,10,7.34" transform="matrix(1,0,0,1,-4,-4)" class="stroke_order_diagram--current_path"></path><circle cx="18.75" cy="16.75" r="8" class="stroke_order_diagram--path_start" transform="matrix(1,0,0,1,-4,-4)"></circle><line x1="150" x2="150" y1="1" y2="99" class="stroke_order_diagram--guide_line"></line><line x1="199" x2="199" y1="1" y2="99" class="stroke_order_diagram--bounding_box"></line><path id="pathSk2v596cn32v6" kvg:type="㇔" d="M18.75,16.75c3.53,1.3,9.12,5.33,10,7.34" transform="matrix(1,0,0,1,96,-4)" class="stroke_order_diagram--existing_path"></path><path id="kvg:0702c-s2" kvg:type="㇔" d="M12,41.25c3.79,1.15,9.8,4.72,10.75,6.5" transform="matrix(1,0,0,1,96,-4)" class="stroke_order_diagram--current_path"></path><path id="pathSk2v596cn32v8" kvg:type="㇔" d="M12,41.25c3.79,1.15,9.8,4.72,10.75,6.5" transform="matrix(1,0,0,1,96,-4)" class="stroke_order_diagram--current_path"></path><circle cx="12" cy="41.25" r="8" class="stroke_order_diagram--path_start" transform="matrix(1,0,0,1,96,-4)"></circle><line x1="250" x2="250" y1="1" y2="99" class="stroke_order_diagram--guide_line"></line><line x1="299" x2="299" y1="1" y2="99" class="stroke_order_diagram--bounding_box"></line><path id="pathSk2v596cn32vb" kvg:type="㇔" d="M18.75,16.75c3.53,1.3,9.12,5.33,10,7.34" transform="matrix(1,0,0,1,196,-4)" class="stroke_order_diagram--existing_path"></path><path id="pathSk2v596cn32vc" kvg:type="㇔" d="M12,41.25c3.79,1.15,9.8,4.72,10.75,6.5" transform="matrix(1,0,0,1,196,-4)" class="stroke_order_diagram--existing_path"></path><path id="kvg:0702c-s3" kvg:type="㇀" d="M13.12,87.62c1.53,0.31,2.49-0.38,3.27-2.05c2.27-4.88,4.54-10.85,6.6-17.07" transform="matrix(1,0,0,1,196,-4)" class="stroke_order_diagram--current_path"></path><path id="pathSk2v596cn32ve" kvg:type="㇀" d="M13.12,87.62c1.53,0.31,2.49-0.38,3.27-2.05c2.27-4.88,4.54-10.85,6.6-17.07" transform="matrix(1,0,0,1,196,-4)" class="stroke_order_diagram--current_path"></path><circle cx="13.12" cy="87.62" r="8" class="stroke_order_diagram--path_start" transform="matrix(1,0,0,1,196,-4)"></circle><line x1="350" x2="350" y1="1" y2="99" class="stroke_order_diagram--guide_line"></line><line x1="399" x2="399" y1="1" y2="99" class="stroke_order_diagram--bounding_box"></line><path id="pathSk2v596cn32vh" kvg:type="㇔" d="M18.75,16.75c3.53,1.3,9.12,5.33,10,7.34" transform="matrix(1,0,0,1,296,-4)" class="stroke_order_diagram--existing_path"></path><path id="pathSk2v596cn32vi" kvg:type="㇔" d="M12,41.25c3.79,1.15,9.8,4.72,10.75,6.5" transform="matrix(1,0,0,1,296,-4)" class="stroke_order_diagram--existing_path"></path><path id="pathSk2v596cn32vj" kvg:type="㇀" d="M13.12,87.62c1.53,0.31,2.49-0.38,3.27-2.05c2.27-4.88,4.54-10.85,6.6-17.07" transform="matrix(1,0,0,1,296,-4)" class="stroke_order_diagram--existing_path"></path><path id="kvg:0702c-s4" kvg:type="㇐" d="M33.22,27.79c1.78,0.46,3.33,0.55,5.09,0.3C43.17,27.4,51.42,26.1,56,25.66c1.19-0.11,2.9-0.47,4.05-0.04" transform="matrix(1,0,0,1,296,-4)" class="stroke_order_diagram--current_path"></path><path id="pathSk2v596cn32vl" kvg:type="㇐" d="M33.22,27.79c1.78,0.46,3.33,0.55,5.09,0.3C43.17,27.4,51.42,26.1,56,25.66c1.19-0.11,2.9-0.47,4.05-0.04" transform="matrix(1,0,0,1,296,-4)" class="stroke_order_diagram--current_path"></path><circle cx="33.22" cy="27.79" r="8" class="stroke_order_diagram--path_start" transform="matrix(1,0,0,1,296,-4)"></circle><line x1="450" x2="450" y1="1" y2="99" class="stroke_order_diagram--guide_line"></line><line x1="499" x2="499" y1="1" y2="99" class="stroke_order_diagram--bounding_box"></line><path id="pathSk2v596cn32vo" kvg:type="㇔" d="M18.75,16.75c3.53,1.3,9.12,5.33,10,7.34" transform="matrix(1,0,0,1,396,-4)" class="stroke_order_diagram--existing_path"></path><path id="pathSk2v596cn32vp" kvg:type="㇔" d="M12,41.25c3.79,1.15,9.8,4.72,10.75,6.5" transform="matrix(1,0,0,1,396,-4)" class="stroke_order_diagram--existing_path"></path><path id="pathSk2v596cn32vq" kvg:type="㇀" d="M13.12,87.62c1.53,0.31,2.49-0.38,3.27-2.05c2.27-4.88,4.54-10.85,6.6-17.07" transform="matrix(1,0,0,1,396,-4)" class="stroke_order_diagram--existing_path"></path><path id="pathSk2v596cn32vr" kvg:type="㇐" d="M33.22,27.79c1.78,0.46,3.33,0.55,5.09,0.3C43.17,27.4,51.42,26.1,56,25.66c1.19-0.11,2.9-0.47,4.05-0.04" transform="matrix(1,0,0,1,396,-4)" class="stroke_order_diagram--existing_path"></path><path id="kvg:0702c-s5" kvg:type="㇑" d="M31.16,39.9c0.52,0.72,0.82,1.54,0.89,2.44c0.67,3,1.66,7.96,2.21,12.16c0.15,1.18,0.29,2.34,0.39,3.44" transform="matrix(1,0,0,1,396,-4)" class="stroke_order_diagram--current_path"></path><path id="pathSk2v596cn32vt" kvg:type="㇑" d="M31.16,39.9c0.52,0.72,0.82,1.54,0.89,2.44c0.67,3,1.66,7.96,2.21,12.16c0.15,1.18,0.29,2.34,0.39,3.44" transform="matrix(1,0,0,1,396,-4)" class="stroke_order_diagram--current_path"></path><circle cx="31.16" cy="39.9" r="8" class="stroke_order_diagram--path_start" transform="matrix(1,0,0,1,396,-4)"></circle><line x1="550" x2="550" y1="1" y2="99" class="stroke_order_diagram--guide_line"></line><line x1="599" x2="599" y1="1" y2="99" class="stroke_order_diagram--bounding_box"></line><path id="pathSk2v596cn32vw" kvg:type="㇔" d="M18.75,16.75c3.53,1.3,9.12,5.33,10,7.34" transform="matrix(1,0,0,1,496,-4)" class="stroke_order_diagram--existing_path"></path><path id="pathSk2v596cn32vx" kvg:type="㇔" d="M12,41.25c3.79,1.15,9.8,4.72,10.75,6.5" transform="matrix(1,0,0,1,496,-4)" class="stroke_order_diagram--existing_path"></path><path id="pathSk2v596cn32vy" kvg:type="㇀" d="M13.12,87.62c1.53,0.31,2.49-0.38,3.27-2.05c2.27-4.88,4.54-10.85,6.6-17.07" transform="matrix(1,0,0,1,496,-4)" class="stroke_order_diagram--existing_path"></path><path id="pathSk2v596cn32vz" kvg:type="㇐" d="M33.22,27.79c1.78,0.46,3.33,0.55,5.09,0.3C43.17,27.4,51.42,26.1,56,25.66c1.19-0.11,2.9-0.47,4.05-0.04" transform="matrix(1,0,0,1,496,-4)" class="stroke_order_diagram--existing_path"></path><path id="pathSk2v596cn32w0" kvg:type="㇑" d="M31.16,39.9c0.52,0.72,0.82,1.54,0.89,2.44c0.67,3,1.66,7.96,2.21,12.16c0.15,1.18,0.29,2.34,0.39,3.44" transform="matrix(1,0,0,1,496,-4)" class="stroke_order_diagram--existing_path"></path><path id="kvg:0702c-s6" kvg:type="㇕b" d="M33.06,41.15c7.03-1.13,18.51-3.08,22.84-3.69c2.45-0.34,4.2,1.01,3.56,3.76c-1.17,4.97-1.2,6.17-2.12,9.97" transform="matrix(1,0,0,1,496,-4)" class="stroke_order_diagram--current_path"></path><path id="pathSk2v596cn32w2" kvg:type="㇕b" d="M33.06,41.15c7.03-1.13,18.51-3.08,22.84-3.69c2.45-0.34,4.2,1.01,3.56,3.76c-1.17,4.97-1.2,6.17-2.12,9.97" transform="matrix(1,0,0,1,496,-4)" class="stroke_order_diagram--current_path"></path><circle cx="33.06" cy="41.15" r="8" class="stroke_order_diagram--path_start" transform="matrix(1,0,0,1,496,-4)"></circle><line x1="650" x2="650" y1="1" y2="99" class="stroke_order_diagram--guide_line"></line><line x1="699" x2="699" y1="1" y2="99" class="stroke_order_diagram--bounding_box"></line><path id="pathSk2v596cn32w5" kvg:type="㇔" d="M18.75,16.75c3.53,1.3,9.12,5.33,10,7.34" transform="matrix(1,0,0,1,596,-4)" class="stroke_order_diagram--existing_path"></path><path id="pathSk2v596cn32w6" kvg:type="㇔" d="M12,41.25c3.79,1.15,9.8,4.72,10.75,6.5" transform="matrix(1,0,0,1,596,-4)" class="stroke_order_diagram--existing_path"></path><path id="pathSk2v596cn32w7" kvg:type="㇀" d="M13.12,87.62c1.53,0.31,2.49-0.38,3.27-2.05c2.27-4.88,4.54-10.85,6.6-17.07" transform="matrix(1,0,0,1,596,-4)" class="stroke_order_diagram--existing_path"></path><path id="pathSk2v596cn32w8" kvg:type="㇐" d="M33.22,27.79c1.78,0.46,3.33,0.55,5.09,0.3C43.17,27.4,51.42,26.1,56,25.66c1.19-0.11,2.9-0.47,4.05-0.04" transform="matrix(1,0,0,1,596,-4)" class="stroke_order_diagram--existing_path"></path><path id="pathSk2v596cn32w9" kvg:type="㇑" d="M31.16,39.9c0.52,0.72,0.82,1.54,0.89,2.44c0.67,3,1.66,7.96,2.21,12.16c0.15,1.18,0.29,2.34,0.39,3.44" transform="matrix(1,0,0,1,596,-4)" class="stroke_order_diagram--existing_path"></path><path id="pathSk2v596cn32wa" kvg:type="㇕b" d="M33.06,41.15c7.03-1.13,18.51-3.08,22.84-3.69c2.45-0.34,4.2,1.01,3.56,3.76c-1.17,4.97-1.2,6.17-2.12,9.97" transform="matrix(1,0,0,1,596,-4)" class="stroke_order_diagram--existing_path"></path><path id="kvg:0702c-s7" kvg:type="㇐b" d="M35.5,55.55c8.62-1.3,13.37-1.92,19.23-2.7c1.35-0.18,2.62-0.33,3.76-0.45" transform="matrix(1,0,0,1,596,-4)" class="stroke_order_diagram--current_path"></path><path id="pathSk2v596cn32wc" kvg:type="㇐b" d="M35.5,55.55c8.62-1.3,13.37-1.92,19.23-2.7c1.35-0.18,2.62-0.33,3.76-0.45" transform="matrix(1,0,0,1,596,-4)" class="stroke_order_diagram--current_path"></path><circle cx="35.5" cy="55.55" r="8" class="stroke_order_diagram--path_start" transform="matrix(1,0,0,1,596,-4)"></circle><line x1="750" x2="750" y1="1" y2="99" class="stroke_order_diagram--guide_line"></line><line x1="799" x2="799" y1="1" y2="99" class="stroke_order_diagram--bounding_box"></line><path id="pathSk2v596cn32wf" kvg:type="㇔" d="M18.75,16.75c3.53,1.3,9.12,5.33,10,7.34" transform="matrix(1,0,0,1,696,-4)" class="stroke_order_diagram--existing_path"></path><path id="pathSk2v596cn32wg" kvg:type="㇔" d="M12,41.25c3.79,1.15,9.8,4.72,10.75,6.5" transform="matrix(1,0,0,1,696,-4)" class="stroke_order_diagram--existing_path"></path><path id="pathSk2v596cn32wh" kvg:type="㇀" d="M13.12,87.62c1.53,0.31,2.49-0.38,3.27-2.05c2.27-4.88,4.54-10.85,6.6-17.07" transform="matrix(1,0,0,1,696,-4)" class="stroke_order_diagram--existing_path"></path><path id="pathSk2v596cn32wi" kvg:type="㇐" d="M33.22,27.79c1.78,0.46,3.33,0.55,5.09,0.3C43.17,27.4,51.42,26.1,56,25.66c1.19-0.11,2.9-0.47,4.05-0.04" transform="matrix(1,0,0,1,696,-4)" class="stroke_order_diagram--existing_path"></path><path id="pathSk2v596cn32wj" kvg:type="㇑" d="M31.16,39.9c0.52,0.72,0.82,1.54,0.89,2.44c0.67,3,1.66,7.96,2.21,12.16c0.15,1.18,0.29,2.34,0.39,3.44" transform="matrix(1,0,0,1,696,-4)" class="stroke_order_diagram--existing_path"></path><path id="pathSk2v596cn32wk" kvg:type="㇕b" d="M33.06,41.15c7.03-1.13,18.51-3.08,22.84-3.69c2.45-0.34,4.2,1.01,3.56,3.76c-1.17,4.97-1.2,6.17-2.12,9.97" transform="matrix(1,0,0,1,696,-4)" class="stroke_order_diagram--existing_path"></path><path id="pathSk2v596cn32wl" kvg:type="㇐b" d="M35.5,55.55c8.62-1.3,13.37-1.92,19.23-2.7c1.35-0.18,2.62-0.33,3.76-0.45" transform="matrix(1,0,0,1,696,-4)" class="stroke_order_diagram--existing_path"></path><path id="kvg:0702c-s8" kvg:type="㇑" d="M44.6,12.5c0.95,0.95,1.45,2.5,1.45,3.97c0,0.68,0.04,51.07,0.04,71.15c0,4.85,0,7.93-0.01,8.12" transform="matrix(1,0,0,1,696,-4)" class="stroke_order_diagram--current_path"></path><path id="pathSk2v596cn32wn" kvg:type="㇑" d="M44.6,12.5c0.95,0.95,1.45,2.5,1.45,3.97c0,0.68,0.04,51.07,0.04,71.15c0,4.85,0,7.93-0.01,8.12" transform="matrix(1,0,0,1,696,-4)" class="stroke_order_diagram--current_path"></path><circle cx="44.6" cy="12.5" r="8" class="stroke_order_diagram--path_start" transform="matrix(1,0,0,1,696,-4)"></circle><line x1="850" x2="850" y1="1" y2="99" class="stroke_order_diagram--guide_line"></line><line x1="899" x2="899" y1="1" y2="99" class="stroke_order_diagram--bounding_box"></line><path id="pathSk2v596cn32wq" kvg:type="㇔" d="M18.75,16.75c3.53,1.3,9.12,5.33,10,7.34" transform="matrix(1,0,0,1,796,-4)" class="stroke_order_diagram--existing_path"></path><path id="pathSk2v596cn32wr" kvg:type="㇔" d="M12,41.25c3.79,1.15,9.8,4.72,10.75,6.5" transform="matrix(1,0,0,1,796,-4)" class="stroke_order_diagram--existing_path"></path><path id="pathSk2v596cn32ws" kvg:type="㇀" d="M13.12,87.62c1.53,0.31,2.49-0.38,3.27-2.05c2.27-4.88,4.54-10.85,6.6-17.07" transform="matrix(1,0,0,1,796,-4)" class="stroke_order_diagram--existing_path"></path><path id="pathSk2v596cn32wt" kvg:type="㇐" d="M33.22,27.79c1.78,0.46,3.33,0.55,5.09,0.3C43.17,27.4,51.42,26.1,56,25.66c1.19-0.11,2.9-0.47,4.05-0.04" transform="matrix(1,0,0,1,796,-4)" class="stroke_order_diagram--existing_path"></path><path id="pathSk2v596cn32wu" kvg:type="㇑" d="M31.16,39.9c0.52,0.72,0.82,1.54,0.89,2.44c0.67,3,1.66,7.96,2.21,12.16c0.15,1.18,0.29,2.34,0.39,3.44" transform="matrix(1,0,0,1,796,-4)" class="stroke_order_diagram--existing_path"></path><path id="pathSk2v596cn32wv" kvg:type="㇕b" d="M33.06,41.15c7.03-1.13,18.51-3.08,22.84-3.69c2.45-0.34,4.2,1.01,3.56,3.76c-1.17,4.97-1.2,6.17-2.12,9.97" transform="matrix(1,0,0,1,796,-4)" class="stroke_order_diagram--existing_path"></path><path id="pathSk2v596cn32ww" kvg:type="㇐b" d="M35.5,55.55c8.62-1.3,13.37-1.92,19.23-2.7c1.35-0.18,2.62-0.33,3.76-0.45" transform="matrix(1,0,0,1,796,-4)" class="stroke_order_diagram--existing_path"></path><path id="pathSk2v596cn32wx" kvg:type="㇑" d="M44.6,12.5c0.95,0.95,1.45,2.5,1.45,3.97c0,0.68,0.04,51.07,0.04,71.15c0,4.85,0,7.93-0.01,8.12" transform="matrix(1,0,0,1,796,-4)" class="stroke_order_diagram--existing_path"></path><path id="kvg:0702c-s9" kvg:type="㇒" d="M45.28,55.3c0,1.45-0.63,3.06-1.35,4.54c-4.27,8.87-11.18,16.66-18.16,23.7" transform="matrix(1,0,0,1,796,-4)" class="stroke_order_diagram--current_path"></path><path id="pathSk2v596cn32wz" kvg:type="㇒" d="M45.28,55.3c0,1.45-0.63,3.06-1.35,4.54c-4.27,8.87-11.18,16.66-18.16,23.7" transform="matrix(1,0,0,1,796,-4)" class="stroke_order_diagram--current_path"></path><circle cx="45.28" cy="55.3" r="8" class="stroke_order_diagram--path_start" transform="matrix(1,0,0,1,796,-4)"></circle><line x1="950" x2="950" y1="1" y2="99" class="stroke_order_diagram--guide_line"></line><line x1="999" x2="999" y1="1" y2="99" class="stroke_order_diagram--bounding_box"></line><path id="pathSk2v596cn32x2" kvg:type="㇔" d="M18.75,16.75c3.53,1.3,9.12,5.33,10,7.34" transform="matrix(1,0,0,1,896,-4)" class="stroke_order_diagram--existing_path"></path><path id="pathSk2v596cn32x3" kvg:type="㇔" d="M12,41.25c3.79,1.15,9.8,4.72,10.75,6.5" transform="matrix(1,0,0,1,896,-4)" class="stroke_order_diagram--existing_path"></path><path id="pathSk2v596cn32x4" kvg:type="㇀" d="M13.12,87.62c1.53,0.31,2.49-0.38,3.27-2.05c2.27-4.88,4.54-10.85,6.6-17.07" transform="matrix(1,0,0,1,896,-4)" class="stroke_order_diagram--existing_path"></path><path id="pathSk2v596cn32x5" kvg:type="㇐" d="M33.22,27.79c1.78,0.46,3.33,0.55,5.09,0.3C43.17,27.4,51.42,26.1,56,25.66c1.19-0.11,2.9-0.47,4.05-0.04" transform="matrix(1,0,0,1,896,-4)" class="stroke_order_diagram--existing_path"></path><path id="pathSk2v596cn32x6" kvg:type="㇑" d="M31.16,39.9c0.52,0.72,0.82,1.54,0.89,2.44c0.67,3,1.66,7.96,2.21,12.16c0.15,1.18,0.29,2.34,0.39,3.44" transform="matrix(1,0,0,1,896,-4)" class="stroke_order_diagram--existing_path"></path><path id="pathSk2v596cn32x7" kvg:type="㇕b" d="M33.06,41.15c7.03-1.13,18.51-3.08,22.84-3.69c2.45-0.34,4.2,1.01,3.56,3.76c-1.17,4.97-1.2,6.17-2.12,9.97" transform="matrix(1,0,0,1,896,-4)" class="stroke_order_diagram--existing_path"></path><path id="pathSk2v596cn32x8" kvg:type="㇐b" d="M35.5,55.55c8.62-1.3,13.37-1.92,19.23-2.7c1.35-0.18,2.62-0.33,3.76-0.45" transform="matrix(1,0,0,1,896,-4)" class="stroke_order_diagram--existing_path"></path><path id="pathSk2v596cn32x9" kvg:type="㇑" d="M44.6,12.5c0.95,0.95,1.45,2.5,1.45,3.97c0,0.68,0.04,51.07,0.04,71.15c0,4.85,0,7.93-0.01,8.12" transform="matrix(1,0,0,1,896,-4)" class="stroke_order_diagram--existing_path"></path><path id="pathSk2v596cn32xa" kvg:type="㇒" d="M45.28,55.3c0,1.45-0.63,3.06-1.35,4.54c-4.27,8.87-11.18,16.66-18.16,23.7" transform="matrix(1,0,0,1,896,-4)" class="stroke_order_diagram--existing_path"></path><path id="kvg:0702c-s10" kvg:type="㇔/㇏" d="M49.12,64c3.89,1.68,7.02,4.97,8.98,8.32" transform="matrix(1,0,0,1,896,-4)" class="stroke_order_diagram--current_path"></path><path id="pathSk2v596cn32xc" kvg:type="㇔/㇏" d="M49.12,64c3.89,1.68,7.02,4.97,8.98,8.32" transform="matrix(1,0,0,1,896,-4)" class="stroke_order_diagram--current_path"></path><circle cx="49.12" cy="64" r="8" class="stroke_order_diagram--path_start" transform="matrix(1,0,0,1,896,-4)"></circle><line x1="1050" x2="1050" y1="1" y2="99" class="stroke_order_diagram--guide_line"></line><line x1="1099" x2="1099" y1="1" y2="99" class="stroke_order_diagram--bounding_box"></line><path id="pathSk2v596cn32xf" kvg:type="㇔" d="M18.75,16.75c3.53,1.3,9.12,5.33,10,7.34" transform="matrix(1,0,0,1,996,-4)" class="stroke_order_diagram--existing_path"></path><path id="pathSk2v596cn32xg" kvg:type="㇔" d="M12,41.25c3.79,1.15,9.8,4.72,10.75,6.5" transform="matrix(1,0,0,1,996,-4)" class="stroke_order_diagram--existing_path"></path><path id="pathSk2v596cn32xh" kvg:type="㇀" d="M13.12,87.62c1.53,0.31,2.49-0.38,3.27-2.05c2.27-4.88,4.54-10.85,6.6-17.07" transform="matrix(1,0,0,1,996,-4)" class="stroke_order_diagram--existing_path"></path><path id="pathSk2v596cn32xi" kvg:type="㇐" d="M33.22,27.79c1.78,0.46,3.33,0.55,5.09,0.3C43.17,27.4,51.42,26.1,56,25.66c1.19-0.11,2.9-0.47,4.05-0.04" transform="matrix(1,0,0,1,996,-4)" class="stroke_order_diagram--existing_path"></path><path id="pathSk2v596cn32xj" kvg:type="㇑" d="M31.16,39.9c0.52,0.72,0.82,1.54,0.89,2.44c0.67,3,1.66,7.96,2.21,12.16c0.15,1.18,0.29,2.34,0.39,3.44" transform="matrix(1,0,0,1,996,-4)" class="stroke_order_diagram--existing_path"></path><path id="pathSk2v596cn32xk" kvg:type="㇕b" d="M33.06,41.15c7.03-1.13,18.51-3.08,22.84-3.69c2.45-0.34,4.2,1.01,3.56,3.76c-1.17,4.97-1.2,6.17-2.12,9.97" transform="matrix(1,0,0,1,996,-4)" class="stroke_order_diagram--existing_path"></path><path id="pathSk2v596cn32xl" kvg:type="㇐b" d="M35.5,55.55c8.62-1.3,13.37-1.92,19.23-2.7c1.35-0.18,2.62-0.33,3.76-0.45" transform="matrix(1,0,0,1,996,-4)" class="stroke_order_diagram--existing_path"></path><path id="pathSk2v596cn32xm" kvg:type="㇑" d="M44.6,12.5c0.95,0.95,1.45,2.5,1.45,3.97c0,0.68,0.04,51.07,0.04,71.15c0,4.85,0,7.93-0.01,8.12" transform="matrix(1,0,0,1,996,-4)" class="stroke_order_diagram--existing_path"></path><path id="pathSk2v596cn32xn" kvg:type="㇒" d="M45.28,55.3c0,1.45-0.63,3.06-1.35,4.54c-4.27,8.87-11.18,16.66-18.16,23.7" transform="matrix(1,0,0,1,996,-4)" class="stroke_order_diagram--existing_path"></path><path id="pathSk2v596cn32xo" kvg:type="㇔/㇏" d="M49.12,64c3.89,1.68,7.02,4.97,8.98,8.32" transform="matrix(1,0,0,1,996,-4)" class="stroke_order_diagram--existing_path"></path><path id="kvg:0702c-s11" kvg:type="㇐" d="M63.15,18.83c3.1,0.42,4.99,0.35,7.11,0.1c6.7-0.8,13.84-1.66,19.51-2.4c2.13-0.28,4.73-0.52,6.61,0.09" transform="matrix(1,0,0,1,996,-4)" class="stroke_order_diagram--current_path"></path><path id="pathSk2v596cn32xq" kvg:type="㇐" d="M63.15,18.83c3.1,0.42,4.99,0.35,7.11,0.1c6.7-0.8,13.84-1.66,19.51-2.4c2.13-0.28,4.73-0.52,6.61,0.09" transform="matrix(1,0,0,1,996,-4)" class="stroke_order_diagram--current_path"></path><circle cx="63.15" cy="18.83" r="8" class="stroke_order_diagram--path_start" transform="matrix(1,0,0,1,996,-4)"></circle><line x1="1150" x2="1150" y1="1" y2="99" class="stroke_order_diagram--guide_line"></line><line x1="1199" x2="1199" y1="1" y2="99" class="stroke_order_diagram--bounding_box"></line><path id="pathSk2v596cn32xt" kvg:type="㇔" d="M18.75,16.75c3.53,1.3,9.12,5.33,10,7.34" transform="matrix(1,0,0,1,1096,-4)" class="stroke_order_diagram--existing_path"></path><path id="pathSk2v596cn32xu" kvg:type="㇔" d="M12,41.25c3.79,1.15,9.8,4.72,10.75,6.5" transform="matrix(1,0,0,1,1096,-4)" class="stroke_order_diagram--existing_path"></path><path id="pathSk2v596cn32xv" kvg:type="㇀" d="M13.12,87.62c1.53,0.31,2.49-0.38,3.27-2.05c2.27-4.88,4.54-10.85,6.6-17.07" transform="matrix(1,0,0,1,1096,-4)" class="stroke_order_diagram--existing_path"></path><path id="pathSk2v596cn32xw" kvg:type="㇐" d="M33.22,27.79c1.78,0.46,3.33,0.55,5.09,0.3C43.17,27.4,51.42,26.1,56,25.66c1.19-0.11,2.9-0.47,4.05-0.04" transform="matrix(1,0,0,1,1096,-4)" class="stroke_order_diagram--existing_path"></path><path id="pathSk2v596cn32xx" kvg:type="㇑" d="M31.16,39.9c0.52,0.72,0.82,1.54,0.89,2.44c0.67,3,1.66,7.96,2.21,12.16c0.15,1.18,0.29,2.34,0.39,3.44" transform="matrix(1,0,0,1,1096,-4)" class="stroke_order_diagram--existing_path"></path><path id="pathSk2v596cn32xy" kvg:type="㇕b" d="M33.06,41.15c7.03-1.13,18.51-3.08,22.84-3.69c2.45-0.34,4.2,1.01,3.56,3.76c-1.17,4.97-1.2,6.17-2.12,9.97" transform="matrix(1,0,0,1,1096,-4)" class="stroke_order_diagram--existing_path"></path><path id="pathSk2v596cn32xz" kvg:type="㇐b" d="M35.5,55.55c8.62-1.3,13.37-1.92,19.23-2.7c1.35-0.18,2.62-0.33,3.76-0.45" transform="matrix(1,0,0,1,1096,-4)" class="stroke_order_diagram--existing_path"></path><path id="pathSk2v596cn32y0" kvg:type="㇑" d="M44.6,12.5c0.95,0.95,1.45,2.5,1.45,3.97c0,0.68,0.04,51.07,0.04,71.15c0,4.85,0,7.93-0.01,8.12" transform="matrix(1,0,0,1,1096,-4)" class="stroke_order_diagram--existing_path"></path><path id="pathSk2v596cn32y1" kvg:type="㇒" d="M45.28,55.3c0,1.45-0.63,3.06-1.35,4.54c-4.27,8.87-11.18,16.66-18.16,23.7" transform="matrix(1,0,0,1,1096,-4)" class="stroke_order_diagram--existing_path"></path><path id="pathSk2v596cn32y2" kvg:type="㇔/㇏" d="M49.12,64c3.89,1.68,7.02,4.97,8.98,8.32" transform="matrix(1,0,0,1,1096,-4)" class="stroke_order_diagram--existing_path"></path><path id="pathSk2v596cn32y3" kvg:type="㇐" d="M63.15,18.83c3.1,0.42,4.99,0.35,7.11,0.1c6.7-0.8,13.84-1.66,19.51-2.4c2.13-0.28,4.73-0.52,6.61,0.09" transform="matrix(1,0,0,1,1096,-4)" class="stroke_order_diagram--existing_path"></path><path id="kvg:0702c-s12" kvg:type="㇒" d="M79.49,21.08c0.01,0.26,0.02,0.66-0.02,1.03c-0.29,2.16-2.32,7.31-4.59,10.14" transform="matrix(1,0,0,1,1096,-4)" class="stroke_order_diagram--current_path"></path><path id="pathSk2v596cn32y5" kvg:type="㇒" d="M79.49,21.08c0.01,0.26,0.02,0.66-0.02,1.03c-0.29,2.16-2.32,7.31-4.59,10.14" transform="matrix(1,0,0,1,1096,-4)" class="stroke_order_diagram--current_path"></path><circle cx="79.49" cy="21.08" r="8" class="stroke_order_diagram--path_start" transform="matrix(1,0,0,1,1096,-4)"></circle><line x1="1250" x2="1250" y1="1" y2="99" class="stroke_order_diagram--guide_line"></line><line x1="1299" x2="1299" y1="1" y2="99" class="stroke_order_diagram--bounding_box"></line><path id="pathSk2v596cn32y8" kvg:type="㇔" d="M18.75,16.75c3.53,1.3,9.12,5.33,10,7.34" transform="matrix(1,0,0,1,1196,-4)" class="stroke_order_diagram--existing_path"></path><path id="pathSk2v596cn32y9" kvg:type="㇔" d="M12,41.25c3.79,1.15,9.8,4.72,10.75,6.5" transform="matrix(1,0,0,1,1196,-4)" class="stroke_order_diagram--existing_path"></path><path id="pathSk2v596cn32ya" kvg:type="㇀" d="M13.12,87.62c1.53,0.31,2.49-0.38,3.27-2.05c2.27-4.88,4.54-10.85,6.6-17.07" transform="matrix(1,0,0,1,1196,-4)" class="stroke_order_diagram--existing_path"></path><path id="pathSk2v596cn32yb" kvg:type="㇐" d="M33.22,27.79c1.78,0.46,3.33,0.55,5.09,0.3C43.17,27.4,51.42,26.1,56,25.66c1.19-0.11,2.9-0.47,4.05-0.04" transform="matrix(1,0,0,1,1196,-4)" class="stroke_order_diagram--existing_path"></path><path id="pathSk2v596cn32yc" kvg:type="㇑" d="M31.16,39.9c0.52,0.72,0.82,1.54,0.89,2.44c0.67,3,1.66,7.96,2.21,12.16c0.15,1.18,0.29,2.34,0.39,3.44" transform="matrix(1,0,0,1,1196,-4)" class="stroke_order_diagram--existing_path"></path><path id="pathSk2v596cn32yd" kvg:type="㇕b" d="M33.06,41.15c7.03-1.13,18.51-3.08,22.84-3.69c2.45-0.34,4.2,1.01,3.56,3.76c-1.17,4.97-1.2,6.17-2.12,9.97" transform="matrix(1,0,0,1,1196,-4)" class="stroke_order_diagram--existing_path"></path><path id="pathSk2v596cn32ye" kvg:type="㇐b" d="M35.5,55.55c8.62-1.3,13.37-1.92,19.23-2.7c1.35-0.18,2.62-0.33,3.76-0.45" transform="matrix(1,0,0,1,1196,-4)" class="stroke_order_diagram--existing_path"></path><path id="pathSk2v596cn32yf" kvg:type="㇑" d="M44.6,12.5c0.95,0.95,1.45,2.5,1.45,3.97c0,0.68,0.04,51.07,0.04,71.15c0,4.85,0,7.93-0.01,8.12" transform="matrix(1,0,0,1,1196,-4)" class="stroke_order_diagram--existing_path"></path><path id="pathSk2v596cn32yg" kvg:type="㇒" d="M45.28,55.3c0,1.45-0.63,3.06-1.35,4.54c-4.27,8.87-11.18,16.66-18.16,23.7" transform="matrix(1,0,0,1,1196,-4)" class="stroke_order_diagram--existing_path"></path><path id="pathSk2v596cn32yh" kvg:type="㇔/㇏" d="M49.12,64c3.89,1.68,7.02,4.97,8.98,8.32" transform="matrix(1,0,0,1,1196,-4)" class="stroke_order_diagram--existing_path"></path><path id="pathSk2v596cn32yi" kvg:type="㇐" d="M63.15,18.83c3.1,0.42,4.99,0.35,7.11,0.1c6.7-0.8,13.84-1.66,19.51-2.4c2.13-0.28,4.73-0.52,6.61,0.09" transform="matrix(1,0,0,1,1196,-4)" class="stroke_order_diagram--existing_path"></path><path id="pathSk2v596cn32yj" kvg:type="㇒" d="M79.49,21.08c0.01,0.26,0.02,0.66-0.02,1.03c-0.29,2.16-2.32,7.31-4.59,10.14" transform="matrix(1,0,0,1,1196,-4)" class="stroke_order_diagram--existing_path"></path><path id="kvg:0702c-s13" kvg:type="㇑" d="M66.65,34.55c0.97,0.97,1.18,2.41,1.18,3.83c0,1.12-0.05,23.13-0.07,34.5c-0.01,3.05-0.01,5.34-0.01,6.25" transform="matrix(1,0,0,1,1196,-4)" class="stroke_order_diagram--current_path"></path><path id="pathSk2v596cn32yl" kvg:type="㇑" d="M66.65,34.55c0.97,0.97,1.18,2.41,1.18,3.83c0,1.12-0.05,23.13-0.07,34.5c-0.01,3.05-0.01,5.34-0.01,6.25" transform="matrix(1,0,0,1,1196,-4)" class="stroke_order_diagram--current_path"></path><circle cx="66.65" cy="34.55" r="8" class="stroke_order_diagram--path_start" transform="matrix(1,0,0,1,1196,-4)"></circle><line x1="1350" x2="1350" y1="1" y2="99" class="stroke_order_diagram--guide_line"></line><line x1="1399" x2="1399" y1="1" y2="99" class="stroke_order_diagram--bounding_box"></line><path id="pathSk2v596cn32yo" kvg:type="㇔" d="M18.75,16.75c3.53,1.3,9.12,5.33,10,7.34" transform="matrix(1,0,0,1,1296,-4)" class="stroke_order_diagram--existing_path"></path><path id="pathSk2v596cn32yp" kvg:type="㇔" d="M12,41.25c3.79,1.15,9.8,4.72,10.75,6.5" transform="matrix(1,0,0,1,1296,-4)" class="stroke_order_diagram--existing_path"></path><path id="pathSk2v596cn32yq" kvg:type="㇀" d="M13.12,87.62c1.53,0.31,2.49-0.38,3.27-2.05c2.27-4.88,4.54-10.85,6.6-17.07" transform="matrix(1,0,0,1,1296,-4)" class="stroke_order_diagram--existing_path"></path><path id="pathSk2v596cn32yr" kvg:type="㇐" d="M33.22,27.79c1.78,0.46,3.33,0.55,5.09,0.3C43.17,27.4,51.42,26.1,56,25.66c1.19-0.11,2.9-0.47,4.05-0.04" transform="matrix(1,0,0,1,1296,-4)" class="stroke_order_diagram--existing_path"></path><path id="pathSk2v596cn32ys" kvg:type="㇑" d="M31.16,39.9c0.52,0.72,0.82,1.54,0.89,2.44c0.67,3,1.66,7.96,2.21,12.16c0.15,1.18,0.29,2.34,0.39,3.44" transform="matrix(1,0,0,1,1296,-4)" class="stroke_order_diagram--existing_path"></path><path id="pathSk2v596cn32yt" kvg:type="㇕b" d="M33.06,41.15c7.03-1.13,18.51-3.08,22.84-3.69c2.45-0.34,4.2,1.01,3.56,3.76c-1.17,4.97-1.2,6.17-2.12,9.97" transform="matrix(1,0,0,1,1296,-4)" class="stroke_order_diagram--existing_path"></path><path id="pathSk2v596cn32yu" kvg:type="㇐b" d="M35.5,55.55c8.62-1.3,13.37-1.92,19.23-2.7c1.35-0.18,2.62-0.33,3.76-0.45" transform="matrix(1,0,0,1,1296,-4)" class="stroke_order_diagram--existing_path"></path><path id="pathSk2v596cn32yv" kvg:type="㇑" d="M44.6,12.5c0.95,0.95,1.45,2.5,1.45,3.97c0,0.68,0.04,51.07,0.04,71.15c0,4.85,0,7.93-0.01,8.12" transform="matrix(1,0,0,1,1296,-4)" class="stroke_order_diagram--existing_path"></path><path id="pathSk2v596cn32yw" kvg:type="㇒" d="M45.28,55.3c0,1.45-0.63,3.06-1.35,4.54c-4.27,8.87-11.18,16.66-18.16,23.7" transform="matrix(1,0,0,1,1296,-4)" class="stroke_order_diagram--existing_path"></path><path id="pathSk2v596cn32yx" kvg:type="㇔/㇏" d="M49.12,64c3.89,1.68,7.02,4.97,8.98,8.32" transform="matrix(1,0,0,1,1296,-4)" class="stroke_order_diagram--existing_path"></path><path id="pathSk2v596cn32yy" kvg:type="㇐" d="M63.15,18.83c3.1,0.42,4.99,0.35,7.11,0.1c6.7-0.8,13.84-1.66,19.51-2.4c2.13-0.28,4.73-0.52,6.61,0.09" transform="matrix(1,0,0,1,1296,-4)" class="stroke_order_diagram--existing_path"></path><path id="pathSk2v596cn32yz" kvg:type="㇒" d="M79.49,21.08c0.01,0.26,0.02,0.66-0.02,1.03c-0.29,2.16-2.32,7.31-4.59,10.14" transform="matrix(1,0,0,1,1296,-4)" class="stroke_order_diagram--existing_path"></path><path id="pathSk2v596cn32z0" kvg:type="㇑" d="M66.65,34.55c0.97,0.97,1.18,2.41,1.18,3.83c0,1.12-0.05,23.13-0.07,34.5c-0.01,3.05-0.01,5.34-0.01,6.25" transform="matrix(1,0,0,1,1296,-4)" class="stroke_order_diagram--existing_path"></path><path id="kvg:0702c-s14" kvg:type="㇕a" d="M68.48,35.29c5.67-0.9,17.52-2.13,21.4-2.49c2.28-0.21,3.41,0.3,3.41,2.8c0,1.33,0.2,26.07,0.07,36.9c-0.04,2.99-0.06,4.98-0.06,5.21" transform="matrix(1,0,0,1,1296,-4)" class="stroke_order_diagram--current_path"></path><path id="pathSk2v596cn32z2" kvg:type="㇕a" d="M68.48,35.29c5.67-0.9,17.52-2.13,21.4-2.49c2.28-0.21,3.41,0.3,3.41,2.8c0,1.33,0.2,26.07,0.07,36.9c-0.04,2.99-0.06,4.98-0.06,5.21" transform="matrix(1,0,0,1,1296,-4)" class="stroke_order_diagram--current_path"></path><circle cx="68.48" cy="35.29" r="8" class="stroke_order_diagram--path_start" transform="matrix(1,0,0,1,1296,-4)"></circle><line x1="1450" x2="1450" y1="1" y2="99" class="stroke_order_diagram--guide_line"></line><line x1="1499" x2="1499" y1="1" y2="99" class="stroke_order_diagram--bounding_box"></line><path id="pathSk2v596cn32z5" kvg:type="㇔" d="M18.75,16.75c3.53,1.3,9.12,5.33,10,7.34" transform="matrix(1,0,0,1,1396,-4)" class="stroke_order_diagram--existing_path"></path><path id="pathSk2v596cn32z6" kvg:type="㇔" d="M12,41.25c3.79,1.15,9.8,4.72,10.75,6.5" transform="matrix(1,0,0,1,1396,-4)" class="stroke_order_diagram--existing_path"></path><path id="pathSk2v596cn32z7" kvg:type="㇀" d="M13.12,87.62c1.53,0.31,2.49-0.38,3.27-2.05c2.27-4.88,4.54-10.85,6.6-17.07" transform="matrix(1,0,0,1,1396,-4)" class="stroke_order_diagram--existing_path"></path><path id="pathSk2v596cn32z8" kvg:type="㇐" d="M33.22,27.79c1.78,0.46,3.33,0.55,5.09,0.3C43.17,27.4,51.42,26.1,56,25.66c1.19-0.11,2.9-0.47,4.05-0.04" transform="matrix(1,0,0,1,1396,-4)" class="stroke_order_diagram--existing_path"></path><path id="pathSk2v596cn32z9" kvg:type="㇑" d="M31.16,39.9c0.52,0.72,0.82,1.54,0.89,2.44c0.67,3,1.66,7.96,2.21,12.16c0.15,1.18,0.29,2.34,0.39,3.44" transform="matrix(1,0,0,1,1396,-4)" class="stroke_order_diagram--existing_path"></path><path id="pathSk2v596cn32za" kvg:type="㇕b" d="M33.06,41.15c7.03-1.13,18.51-3.08,22.84-3.69c2.45-0.34,4.2,1.01,3.56,3.76c-1.17,4.97-1.2,6.17-2.12,9.97" transform="matrix(1,0,0,1,1396,-4)" class="stroke_order_diagram--existing_path"></path><path id="pathSk2v596cn32zb" kvg:type="㇐b" d="M35.5,55.55c8.62-1.3,13.37-1.92,19.23-2.7c1.35-0.18,2.62-0.33,3.76-0.45" transform="matrix(1,0,0,1,1396,-4)" class="stroke_order_diagram--existing_path"></path><path id="pathSk2v596cn32zc" kvg:type="㇑" d="M44.6,12.5c0.95,0.95,1.45,2.5,1.45,3.97c0,0.68,0.04,51.07,0.04,71.15c0,4.85,0,7.93-0.01,8.12" transform="matrix(1,0,0,1,1396,-4)" class="stroke_order_diagram--existing_path"></path><path id="pathSk2v596cn32zd" kvg:type="㇒" d="M45.28,55.3c0,1.45-0.63,3.06-1.35,4.54c-4.27,8.87-11.18,16.66-18.16,23.7" transform="matrix(1,0,0,1,1396,-4)" class="stroke_order_diagram--existing_path"></path><path id="pathSk2v596cn32ze" kvg:type="㇔/㇏" d="M49.12,64c3.89,1.68,7.02,4.97,8.98,8.32" transform="matrix(1,0,0,1,1396,-4)" class="stroke_order_diagram--existing_path"></path><path id="pathSk2v596cn32zf" kvg:type="㇐" d="M63.15,18.83c3.1,0.42,4.99,0.35,7.11,0.1c6.7-0.8,13.84-1.66,19.51-2.4c2.13-0.28,4.73-0.52,6.61,0.09" transform="matrix(1,0,0,1,1396,-4)" class="stroke_order_diagram--existing_path"></path><path id="pathSk2v596cn32zg" kvg:type="㇒" d="M79.49,21.08c0.01,0.26,0.02,0.66-0.02,1.03c-0.29,2.16-2.32,7.31-4.59,10.14" transform="matrix(1,0,0,1,1396,-4)" class="stroke_order_diagram--existing_path"></path><path id="pathSk2v596cn32zh" kvg:type="㇑" d="M66.65,34.55c0.97,0.97,1.18,2.41,1.18,3.83c0,1.12-0.05,23.13-0.07,34.5c-0.01,3.05-0.01,5.34-0.01,6.25" transform="matrix(1,0,0,1,1396,-4)" class="stroke_order_diagram--existing_path"></path><path id="pathSk2v596cn32zi" kvg:type="㇕a" d="M68.48,35.29c5.67-0.9,17.52-2.13,21.4-2.49c2.28-0.21,3.41,0.3,3.41,2.8c0,1.33,0.2,26.07,0.07,36.9c-0.04,2.99-0.06,4.98-0.06,5.21" transform="matrix(1,0,0,1,1396,-4)" class="stroke_order_diagram--existing_path"></path><path id="kvg:0702c-s15" kvg:type="㇐a" d="M68.94,48.04c3.82-0.57,19.11-1.87,23.8-1.98" transform="matrix(1,0,0,1,1396,-4)" class="stroke_order_diagram--current_path"></path><path id="pathSk2v596cn32zk" kvg:type="㇐a" d="M68.94,48.04c3.82-0.57,19.11-1.87,23.8-1.98" transform="matrix(1,0,0,1,1396,-4)" class="stroke_order_diagram--current_path"></path><circle cx="68.94" cy="48.04" r="8" class="stroke_order_diagram--path_start" transform="matrix(1,0,0,1,1396,-4)"></circle><line x1="1550" x2="1550" y1="1" y2="99" class="stroke_order_diagram--guide_line"></line><line x1="1599" x2="1599" y1="1" y2="99" class="stroke_order_diagram--bounding_box"></line><path id="pathSk2v596cn32zn" kvg:type="㇔" d="M18.75,16.75c3.53,1.3,9.12,5.33,10,7.34" transform="matrix(1,0,0,1,1496,-4)" class="stroke_order_diagram--existing_path"></path><path id="pathSk2v596cn32zo" kvg:type="㇔" d="M12,41.25c3.79,1.15,9.8,4.72,10.75,6.5" transform="matrix(1,0,0,1,1496,-4)" class="stroke_order_diagram--existing_path"></path><path id="pathSk2v596cn32zp" kvg:type="㇀" d="M13.12,87.62c1.53,0.31,2.49-0.38,3.27-2.05c2.27-4.88,4.54-10.85,6.6-17.07" transform="matrix(1,0,0,1,1496,-4)" class="stroke_order_diagram--existing_path"></path><path id="pathSk2v596cn32zq" kvg:type="㇐" d="M33.22,27.79c1.78,0.46,3.33,0.55,5.09,0.3C43.17,27.4,51.42,26.1,56,25.66c1.19-0.11,2.9-0.47,4.05-0.04" transform="matrix(1,0,0,1,1496,-4)" class="stroke_order_diagram--existing_path"></path><path id="pathSk2v596cn32zr" kvg:type="㇑" d="M31.16,39.9c0.52,0.72,0.82,1.54,0.89,2.44c0.67,3,1.66,7.96,2.21,12.16c0.15,1.18,0.29,2.34,0.39,3.44" transform="matrix(1,0,0,1,1496,-4)" class="stroke_order_diagram--existing_path"></path><path id="pathSk2v596cn32zs" kvg:type="㇕b" d="M33.06,41.15c7.03-1.13,18.51-3.08,22.84-3.69c2.45-0.34,4.2,1.01,3.56,3.76c-1.17,4.97-1.2,6.17-2.12,9.97" transform="matrix(1,0,0,1,1496,-4)" class="stroke_order_diagram--existing_path"></path><path id="pathSk2v596cn32zt" kvg:type="㇐b" d="M35.5,55.55c8.62-1.3,13.37-1.92,19.23-2.7c1.35-0.18,2.62-0.33,3.76-0.45" transform="matrix(1,0,0,1,1496,-4)" class="stroke_order_diagram--existing_path"></path><path id="pathSk2v596cn32zu" kvg:type="㇑" d="M44.6,12.5c0.95,0.95,1.45,2.5,1.45,3.97c0,0.68,0.04,51.07,0.04,71.15c0,4.85,0,7.93-0.01,8.12" transform="matrix(1,0,0,1,1496,-4)" class="stroke_order_diagram--existing_path"></path><path id="pathSk2v596cn32zv" kvg:type="㇒" d="M45.28,55.3c0,1.45-0.63,3.06-1.35,4.54c-4.27,8.87-11.18,16.66-18.16,23.7" transform="matrix(1,0,0,1,1496,-4)" class="stroke_order_diagram--existing_path"></path><path id="pathSk2v596cn32zw" kvg:type="㇔/㇏" d="M49.12,64c3.89,1.68,7.02,4.97,8.98,8.32" transform="matrix(1,0,0,1,1496,-4)" class="stroke_order_diagram--existing_path"></path><path id="pathSk2v596cn32zx" kvg:type="㇐" d="M63.15,18.83c3.1,0.42,4.99,0.35,7.11,0.1c6.7-0.8,13.84-1.66,19.51-2.4c2.13-0.28,4.73-0.52,6.61,0.09" transform="matrix(1,0,0,1,1496,-4)" class="stroke_order_diagram--existing_path"></path><path id="pathSk2v596cn32zy" kvg:type="㇒" d="M79.49,21.08c0.01,0.26,0.02,0.66-0.02,1.03c-0.29,2.16-2.32,7.31-4.59,10.14" transform="matrix(1,0,0,1,1496,-4)" class="stroke_order_diagram--existing_path"></path><path id="pathSk2v596cn32zz" kvg:type="㇑" d="M66.65,34.55c0.97,0.97,1.18,2.41,1.18,3.83c0,1.12-0.05,23.13-0.07,34.5c-0.01,3.05-0.01,5.34-0.01,6.25" transform="matrix(1,0,0,1,1496,-4)" class="stroke_order_diagram--existing_path"></path><path id="pathSk2v596cn3300" kvg:type="㇕a" d="M68.48,35.29c5.67-0.9,17.52-2.13,21.4-2.49c2.28-0.21,3.41,0.3,3.41,2.8c0,1.33,0.2,26.07,0.07,36.9c-0.04,2.99-0.06,4.98-0.06,5.21" transform="matrix(1,0,0,1,1496,-4)" class="stroke_order_diagram--existing_path"></path><path id="pathSk2v596cn3301" kvg:type="㇐a" d="M68.94,48.04c3.82-0.57,19.11-1.87,23.8-1.98" transform="matrix(1,0,0,1,1496,-4)" class="stroke_order_diagram--existing_path"></path><path id="kvg:0702c-s16" kvg:type="㇐a" d="M68.84,61.81c7.91-0.31,17.4-0.82,23.39-0.97" transform="matrix(1,0,0,1,1496,-4)" class="stroke_order_diagram--current_path"></path><path id="pathSk2v596cn3303" kvg:type="㇐a" d="M68.84,61.81c7.91-0.31,17.4-0.82,23.39-0.97" transform="matrix(1,0,0,1,1496,-4)" class="stroke_order_diagram--current_path"></path><circle cx="68.84" cy="61.81" r="8" class="stroke_order_diagram--path_start" transform="matrix(1,0,0,1,1496,-4)"></circle><line x1="1650" x2="1650" y1="1" y2="99" class="stroke_order_diagram--guide_line"></line><line x1="1699" x2="1699" y1="1" y2="99" class="stroke_order_diagram--bounding_box"></line><path id="pathSk2v596cn3306" kvg:type="㇔" d="M18.75,16.75c3.53,1.3,9.12,5.33,10,7.34" transform="matrix(1,0,0,1,1596,-4)" class="stroke_order_diagram--existing_path"></path><path id="pathSk2v596cn3307" kvg:type="㇔" d="M12,41.25c3.79,1.15,9.8,4.72,10.75,6.5" transform="matrix(1,0,0,1,1596,-4)" class="stroke_order_diagram--existing_path"></path><path id="pathSk2v596cn3308" kvg:type="㇀" d="M13.12,87.62c1.53,0.31,2.49-0.38,3.27-2.05c2.27-4.88,4.54-10.85,6.6-17.07" transform="matrix(1,0,0,1,1596,-4)" class="stroke_order_diagram--existing_path"></path><path id="pathSk2v596cn3309" kvg:type="㇐" d="M33.22,27.79c1.78,0.46,3.33,0.55,5.09,0.3C43.17,27.4,51.42,26.1,56,25.66c1.19-0.11,2.9-0.47,4.05-0.04" transform="matrix(1,0,0,1,1596,-4)" class="stroke_order_diagram--existing_path"></path><path id="pathSk2v596cn330a" kvg:type="㇑" d="M31.16,39.9c0.52,0.72,0.82,1.54,0.89,2.44c0.67,3,1.66,7.96,2.21,12.16c0.15,1.18,0.29,2.34,0.39,3.44" transform="matrix(1,0,0,1,1596,-4)" class="stroke_order_diagram--existing_path"></path><path id="pathSk2v596cn330b" kvg:type="㇕b" d="M33.06,41.15c7.03-1.13,18.51-3.08,22.84-3.69c2.45-0.34,4.2,1.01,3.56,3.76c-1.17,4.97-1.2,6.17-2.12,9.97" transform="matrix(1,0,0,1,1596,-4)" class="stroke_order_diagram--existing_path"></path><path id="pathSk2v596cn330c" kvg:type="㇐b" d="M35.5,55.55c8.62-1.3,13.37-1.92,19.23-2.7c1.35-0.18,2.62-0.33,3.76-0.45" transform="matrix(1,0,0,1,1596,-4)" class="stroke_order_diagram--existing_path"></path><path id="pathSk2v596cn330d" kvg:type="㇑" d="M44.6,12.5c0.95,0.95,1.45,2.5,1.45,3.97c0,0.68,0.04,51.07,0.04,71.15c0,4.85,0,7.93-0.01,8.12" transform="matrix(1,0,0,1,1596,-4)" class="stroke_order_diagram--existing_path"></path><path id="pathSk2v596cn330e" kvg:type="㇒" d="M45.28,55.3c0,1.45-0.63,3.06-1.35,4.54c-4.27,8.87-11.18,16.66-18.16,23.7" transform="matrix(1,0,0,1,1596,-4)" class="stroke_order_diagram--existing_path"></path><path id="pathSk2v596cn330f" kvg:type="㇔/㇏" d="M49.12,64c3.89,1.68,7.02,4.97,8.98,8.32" transform="matrix(1,0,0,1,1596,-4)" class="stroke_order_diagram--existing_path"></path><path id="pathSk2v596cn330g" kvg:type="㇐" d="M63.15,18.83c3.1,0.42,4.99,0.35,7.11,0.1c6.7-0.8,13.84-1.66,19.51-2.4c2.13-0.28,4.73-0.52,6.61,0.09" transform="matrix(1,0,0,1,1596,-4)" class="stroke_order_diagram--existing_path"></path><path id="pathSk2v596cn330h" kvg:type="㇒" d="M79.49,21.08c0.01,0.26,0.02,0.66-0.02,1.03c-0.29,2.16-2.32,7.31-4.59,10.14" transform="matrix(1,0,0,1,1596,-4)" class="stroke_order_diagram--existing_path"></path><path id="pathSk2v596cn330i" kvg:type="㇑" d="M66.65,34.55c0.97,0.97,1.18,2.41,1.18,3.83c0,1.12-0.05,23.13-0.07,34.5c-0.01,3.05-0.01,5.34-0.01,6.25" transform="matrix(1,0,0,1,1596,-4)" class="stroke_order_diagram--existing_path"></path><path id="pathSk2v596cn330j" kvg:type="㇕a" d="M68.48,35.29c5.67-0.9,17.52-2.13,21.4-2.49c2.28-0.21,3.41,0.3,3.41,2.8c0,1.33,0.2,26.07,0.07,36.9c-0.04,2.99-0.06,4.98-0.06,5.21" transform="matrix(1,0,0,1,1596,-4)" class="stroke_order_diagram--existing_path"></path><path id="pathSk2v596cn330k" kvg:type="㇐a" d="M68.94,48.04c3.82-0.57,19.11-1.87,23.8-1.98" transform="matrix(1,0,0,1,1596,-4)" class="stroke_order_diagram--existing_path"></path><path id="pathSk2v596cn330l" kvg:type="㇐a" d="M68.84,61.81c7.91-0.31,17.4-0.82,23.39-0.97" transform="matrix(1,0,0,1,1596,-4)" class="stroke_order_diagram--existing_path"></path><path id="kvg:0702c-s17" kvg:type="㇐a" d="M69.06,76.35c6.5-0.42,16.76-1.03,23.15-1.19" transform="matrix(1,0,0,1,1596,-4)" class="stroke_order_diagram--current_path"></path><path id="pathSk2v596cn330n" kvg:type="㇐a" d="M69.06,76.35c6.5-0.42,16.76-1.03,23.15-1.19" transform="matrix(1,0,0,1,1596,-4)" class="stroke_order_diagram--current_path"></path><circle cx="69.06" cy="76.35" r="8" class="stroke_order_diagram--path_start" transform="matrix(1,0,0,1,1596,-4)"></circle><line x1="1750" x2="1750" y1="1" y2="99" class="stroke_order_diagram--guide_line"></line><line x1="1799" x2="1799" y1="1" y2="99" class="stroke_order_diagram--bounding_box"></line><path id="pathSk2v596cn330q" kvg:type="㇔" d="M18.75,16.75c3.53,1.3,9.12,5.33,10,7.34" transform="matrix(1,0,0,1,1696,-4)" class="stroke_order_diagram--existing_path"></path><path id="pathSk2v596cn330r" kvg:type="㇔" d="M12,41.25c3.79,1.15,9.8,4.72,10.75,6.5" transform="matrix(1,0,0,1,1696,-4)" class="stroke_order_diagram--existing_path"></path><path id="pathSk2v596cn330s" kvg:type="㇀" d="M13.12,87.62c1.53,0.31,2.49-0.38,3.27-2.05c2.27-4.88,4.54-10.85,6.6-17.07" transform="matrix(1,0,0,1,1696,-4)" class="stroke_order_diagram--existing_path"></path><path id="pathSk2v596cn330t" kvg:type="㇐" d="M33.22,27.79c1.78,0.46,3.33,0.55,5.09,0.3C43.17,27.4,51.42,26.1,56,25.66c1.19-0.11,2.9-0.47,4.05-0.04" transform="matrix(1,0,0,1,1696,-4)" class="stroke_order_diagram--existing_path"></path><path id="pathSk2v596cn330u" kvg:type="㇑" d="M31.16,39.9c0.52,0.72,0.82,1.54,0.89,2.44c0.67,3,1.66,7.96,2.21,12.16c0.15,1.18,0.29,2.34,0.39,3.44" transform="matrix(1,0,0,1,1696,-4)" class="stroke_order_diagram--existing_path"></path><path id="pathSk2v596cn330v" kvg:type="㇕b" d="M33.06,41.15c7.03-1.13,18.51-3.08,22.84-3.69c2.45-0.34,4.2,1.01,3.56,3.76c-1.17,4.97-1.2,6.17-2.12,9.97" transform="matrix(1,0,0,1,1696,-4)" class="stroke_order_diagram--existing_path"></path><path id="pathSk2v596cn330w" kvg:type="㇐b" d="M35.5,55.55c8.62-1.3,13.37-1.92,19.23-2.7c1.35-0.18,2.62-0.33,3.76-0.45" transform="matrix(1,0,0,1,1696,-4)" class="stroke_order_diagram--existing_path"></path><path id="pathSk2v596cn330x" kvg:type="㇑" d="M44.6,12.5c0.95,0.95,1.45,2.5,1.45,3.97c0,0.68,0.04,51.07,0.04,71.15c0,4.85,0,7.93-0.01,8.12" transform="matrix(1,0,0,1,1696,-4)" class="stroke_order_diagram--existing_path"></path><path id="pathSk2v596cn330y" kvg:type="㇒" d="M45.28,55.3c0,1.45-0.63,3.06-1.35,4.54c-4.27,8.87-11.18,16.66-18.16,23.7" transform="matrix(1,0,0,1,1696,-4)" class="stroke_order_diagram--existing_path"></path><path id="pathSk2v596cn330z" kvg:type="㇔/㇏" d="M49.12,64c3.89,1.68,7.02,4.97,8.98,8.32" transform="matrix(1,0,0,1,1696,-4)" class="stroke_order_diagram--existing_path"></path><path id="pathSk2v596cn3310" kvg:type="㇐" d="M63.15,18.83c3.1,0.42,4.99,0.35,7.11,0.1c6.7-0.8,13.84-1.66,19.51-2.4c2.13-0.28,4.73-0.52,6.61,0.09" transform="matrix(1,0,0,1,1696,-4)" class="stroke_order_diagram--existing_path"></path><path id="pathSk2v596cn3311" kvg:type="㇒" d="M79.49,21.08c0.01,0.26,0.02,0.66-0.02,1.03c-0.29,2.16-2.32,7.31-4.59,10.14" transform="matrix(1,0,0,1,1696,-4)" class="stroke_order_diagram--existing_path"></path><path id="pathSk2v596cn3312" kvg:type="㇑" d="M66.65,34.55c0.97,0.97,1.18,2.41,1.18,3.83c0,1.12-0.05,23.13-0.07,34.5c-0.01,3.05-0.01,5.34-0.01,6.25" transform="matrix(1,0,0,1,1696,-4)" class="stroke_order_diagram--existing_path"></path><path id="pathSk2v596cn3313" kvg:type="㇕a" d="M68.48,35.29c5.67-0.9,17.52-2.13,21.4-2.49c2.28-0.21,3.41,0.3,3.41,2.8c0,1.33,0.2,26.07,0.07,36.9c-0.04,2.99-0.06,4.98-0.06,5.21" transform="matrix(1,0,0,1,1696,-4)" class="stroke_order_diagram--existing_path"></path><path id="pathSk2v596cn3314" kvg:type="㇐a" d="M68.94,48.04c3.82-0.57,19.11-1.87,23.8-1.98" transform="matrix(1,0,0,1,1696,-4)" class="stroke_order_diagram--existing_path"></path><path id="pathSk2v596cn3315" kvg:type="㇐a" d="M68.84,61.81c7.91-0.31,17.4-0.82,23.39-0.97" transform="matrix(1,0,0,1,1696,-4)" class="stroke_order_diagram--existing_path"></path><path id="pathSk2v596cn3316" kvg:type="㇐a" d="M69.06,76.35c6.5-0.42,16.76-1.03,23.15-1.19" transform="matrix(1,0,0,1,1696,-4)" class="stroke_order_diagram--existing_path"></path><path id="kvg:0702c-s18" kvg:type="㇒" d="M71.79,84.56c0.21,1.06-0.2,1.99-0.87,2.78c-2.22,2.58-7.14,6.45-13.26,9.08" transform="matrix(1,0,0,1,1696,-4)" class="stroke_order_diagram--current_path"></path><path id="pathSk2v596cn3318" kvg:type="㇒" d="M71.79,84.56c0.21,1.06-0.2,1.99-0.87,2.78c-2.22,2.58-7.14,6.45-13.26,9.08" transform="matrix(1,0,0,1,1696,-4)" class="stroke_order_diagram--current_path"></path><circle cx="71.79" cy="84.56" r="8" class="stroke_order_diagram--path_start" transform="matrix(1,0,0,1,1696,-4)"></circle><line x1="1850" x2="1850" y1="1" y2="99" class="stroke_order_diagram--guide_line"></line><line x1="1899" x2="1899" y1="1" y2="99" class="stroke_order_diagram--bounding_box"></line><path id="pathSk2v596cn331b" kvg:type="㇔" d="M18.75,16.75c3.53,1.3,9.12,5.33,10,7.34" transform="matrix(1,0,0,1,1796,-4)" class="stroke_order_diagram--existing_path"></path><path id="pathSk2v596cn331c" kvg:type="㇔" d="M12,41.25c3.79,1.15,9.8,4.72,10.75,6.5" transform="matrix(1,0,0,1,1796,-4)" class="stroke_order_diagram--existing_path"></path><path id="pathSk2v596cn331d" kvg:type="㇀" d="M13.12,87.62c1.53,0.31,2.49-0.38,3.27-2.05c2.27-4.88,4.54-10.85,6.6-17.07" transform="matrix(1,0,0,1,1796,-4)" class="stroke_order_diagram--existing_path"></path><path id="pathSk2v596cn331e" kvg:type="㇐" d="M33.22,27.79c1.78,0.46,3.33,0.55,5.09,0.3C43.17,27.4,51.42,26.1,56,25.66c1.19-0.11,2.9-0.47,4.05-0.04" transform="matrix(1,0,0,1,1796,-4)" class="stroke_order_diagram--existing_path"></path><path id="pathSk2v596cn331f" kvg:type="㇑" d="M31.16,39.9c0.52,0.72,0.82,1.54,0.89,2.44c0.67,3,1.66,7.96,2.21,12.16c0.15,1.18,0.29,2.34,0.39,3.44" transform="matrix(1,0,0,1,1796,-4)" class="stroke_order_diagram--existing_path"></path><path id="pathSk2v596cn331g" kvg:type="㇕b" d="M33.06,41.15c7.03-1.13,18.51-3.08,22.84-3.69c2.45-0.34,4.2,1.01,3.56,3.76c-1.17,4.97-1.2,6.17-2.12,9.97" transform="matrix(1,0,0,1,1796,-4)" class="stroke_order_diagram--existing_path"></path><path id="pathSk2v596cn331h" kvg:type="㇐b" d="M35.5,55.55c8.62-1.3,13.37-1.92,19.23-2.7c1.35-0.18,2.62-0.33,3.76-0.45" transform="matrix(1,0,0,1,1796,-4)" class="stroke_order_diagram--existing_path"></path><path id="pathSk2v596cn331i" kvg:type="㇑" d="M44.6,12.5c0.95,0.95,1.45,2.5,1.45,3.97c0,0.68,0.04,51.07,0.04,71.15c0,4.85,0,7.93-0.01,8.12" transform="matrix(1,0,0,1,1796,-4)" class="stroke_order_diagram--existing_path"></path><path id="pathSk2v596cn331j" kvg:type="㇒" d="M45.28,55.3c0,1.45-0.63,3.06-1.35,4.54c-4.27,8.87-11.18,16.66-18.16,23.7" transform="matrix(1,0,0,1,1796,-4)" class="stroke_order_diagram--existing_path"></path><path id="pathSk2v596cn331k" kvg:type="㇔/㇏" d="M49.12,64c3.89,1.68,7.02,4.97,8.98,8.32" transform="matrix(1,0,0,1,1796,-4)" class="stroke_order_diagram--existing_path"></path><path id="pathSk2v596cn331l" kvg:type="㇐" d="M63.15,18.83c3.1,0.42,4.99,0.35,7.11,0.1c6.7-0.8,13.84-1.66,19.51-2.4c2.13-0.28,4.73-0.52,6.61,0.09" transform="matrix(1,0,0,1,1796,-4)" class="stroke_order_diagram--existing_path"></path><path id="pathSk2v596cn331m" kvg:type="㇒" d="M79.49,21.08c0.01,0.26,0.02,0.66-0.02,1.03c-0.29,2.16-2.32,7.31-4.59,10.14" transform="matrix(1,0,0,1,1796,-4)" class="stroke_order_diagram--existing_path"></path><path id="pathSk2v596cn331n" kvg:type="㇑" d="M66.65,34.55c0.97,0.97,1.18,2.41,1.18,3.83c0,1.12-0.05,23.13-0.07,34.5c-0.01,3.05-0.01,5.34-0.01,6.25" transform="matrix(1,0,0,1,1796,-4)" class="stroke_order_diagram--existing_path"></path><path id="pathSk2v596cn331o" kvg:type="㇕a" d="M68.48,35.29c5.67-0.9,17.52-2.13,21.4-2.49c2.28-0.21,3.41,0.3,3.41,2.8c0,1.33,0.2,26.07,0.07,36.9c-0.04,2.99-0.06,4.98-0.06,5.21" transform="matrix(1,0,0,1,1796,-4)" class="stroke_order_diagram--existing_path"></path><path id="pathSk2v596cn331p" kvg:type="㇐a" d="M68.94,48.04c3.82-0.57,19.11-1.87,23.8-1.98" transform="matrix(1,0,0,1,1796,-4)" class="stroke_order_diagram--existing_path"></path><path id="pathSk2v596cn331q" kvg:type="㇐a" d="M68.84,61.81c7.91-0.31,17.4-0.82,23.39-0.97" transform="matrix(1,0,0,1,1796,-4)" class="stroke_order_diagram--existing_path"></path><path id="pathSk2v596cn331r" kvg:type="㇐a" d="M69.06,76.35c6.5-0.42,16.76-1.03,23.15-1.19" transform="matrix(1,0,0,1,1796,-4)" class="stroke_order_diagram--existing_path"></path><path id="pathSk2v596cn331s" kvg:type="㇒" d="M71.79,84.56c0.21,1.06-0.2,1.99-0.87,2.78c-2.22,2.58-7.14,6.45-13.26,9.08" transform="matrix(1,0,0,1,1796,-4)" class="stroke_order_diagram--existing_path"></path><path id="kvg:0702c-s19" kvg:type="㇔" d="M85.25,82.75c4.84,3.52,10.95,11.32,12.26,14.27" transform="matrix(1,0,0,1,1796,-4)" class="stroke_order_diagram--current_path"></path><path id="pathSk2v596cn331u" kvg:type="㇔" d="M85.25,82.75c4.84,3.52,10.95,11.32,12.26,14.27" transform="matrix(1,0,0,1,1796,-4)" class="stroke_order_diagram--current_path"></path><circle cx="85.25" cy="82.75" r="8" class="stroke_order_diagram--path_start" transform="matrix(1,0,0,1,1796,-4)"></circle></svg>