<svg style="width: 600px; height: 100px;" viewbox="0 0 600 100"><style>
.stroke_order_diagram--outer_container {
  width: 100%;
  overflow-x: auto;
  overflow-y: hidden;
}

.stroke_order_diagram--guide_line {
  fill: none;
  stroke: #ddd;
  stroke-width: 3;
  stroke-linecap: square;
  stroke-linejoin: square;
  stroke-dasharray:8, 8;
}

.stroke_order_diagram--bounding_box {
  fill: none;
  stroke: #ddd;
  stroke-width: 4;
  stroke-linecap: square;
  stroke-linejoin: square;
}

.stroke_order_diagram--current_path {
  fill: none;
  stroke: #000;
  stroke-width: 6;
  stroke-linecap: round;
  stroke-linejoin: round;
}

.stroke_order_diagram--existing_path {
  fill: none;
  stroke: #aaa;
  stroke-width: 6;
  stroke-linecap: round;
  stroke-linejoin:round;
}

.stroke_order_diagram--path_start {
  fill: rgba(255, 0, 0, 0.7);
  stroke:none
}</style><desc>Created with Snap</desc><defs></defs><line x1="1" x2="599" y1="1" y2="1" class="stroke_order_diagram--bounding_box"></line><line x1="1" x2="1" y1="1" y2="99" class="stroke_order_diagram--bounding_box"></line><line x1="1" x2="599" y1="99" y2="99" class="stroke_order_diagram--bounding_box"></line><line x1="0" x2="600" y1="50" y2="50" class="stroke_order_diagram--guide_line"></line><line x1="50" x2="50" y1="1" y2="99" class="stroke_order_diagram--guide_line"></line><line x1="99" x2="99" y1="1" y2="99" class="stroke_order_diagram--bounding_box"></line><path id="kvg:0706f-s1" kvg:type="㇔" d="M11.62,39.25c1.6,3.23,3.94,12.39,4.38,15.62" transform="matrix(1,0,0,1,-4,-4)" class="stroke_order_diagram--current_path"></path><path id="pathSk2v596cn3pib" kvg:type="㇔" d="M11.62,39.25c1.6,3.23,3.94,12.39,4.38,15.62" transform="matrix(1,0,0,1,-4,-4)" class="stroke_order_diagram--current_path"></path><circle cx="11.62" cy="39.25" r="8" class="stroke_order_diagram--path_start" transform="matrix(1,0,0,1,-4,-4)"></circle><line x1="150" x2="150" y1="1" y2="99" class="stroke_order_diagram--guide_line"></line><line x1="199" x2="199" y1="1" y2="99" class="stroke_order_diagram--bounding_box"></line><path id="pathSk2v596cn3pie" kvg:type="㇔" d="M11.62,39.25c1.6,3.23,3.94,12.39,4.38,15.62" transform="matrix(1,0,0,1,96,-4)" class="stroke_order_diagram--existing_path"></path><path id="kvg:0706f-s2" kvg:type="㇒" d="M46.13,28.75c0.17,1.05-0.08,1.99-0.82,3.02c-0.74,1.03-8.87,9.08-12.56,11.48" transform="matrix(1,0,0,1,96,-4)" class="stroke_order_diagram--current_path"></path><path id="pathSk2v596cn3pig" kvg:type="㇒" d="M46.13,28.75c0.17,1.05-0.08,1.99-0.82,3.02c-0.74,1.03-8.87,9.08-12.56,11.48" transform="matrix(1,0,0,1,96,-4)" class="stroke_order_diagram--current_path"></path><circle cx="46.13" cy="28.75" r="8" class="stroke_order_diagram--path_start" transform="matrix(1,0,0,1,96,-4)"></circle><line x1="250" x2="250" y1="1" y2="99" class="stroke_order_diagram--guide_line"></line><line x1="299" x2="299" y1="1" y2="99" class="stroke_order_diagram--bounding_box"></line><path id="pathSk2v596cn3pij" kvg:type="㇔" d="M11.62,39.25c1.6,3.23,3.94,12.39,4.38,15.62" transform="matrix(1,0,0,1,196,-4)" class="stroke_order_diagram--existing_path"></path><path id="pathSk2v596cn3pik" kvg:type="㇒" d="M46.13,28.75c0.17,1.05-0.08,1.99-0.82,3.02c-0.74,1.03-8.87,9.08-12.56,11.48" transform="matrix(1,0,0,1,196,-4)" class="stroke_order_diagram--existing_path"></path><path id="kvg:0706f-s3" kvg:type="㇒" d="M28.75,16.25c0.76,0.75,1.02,2,1.03,3.25C30,67.12,27,77,11,93" transform="matrix(1,0,0,1,196,-4)" class="stroke_order_diagram--current_path"></path><path id="pathSk2v596cn3pim" kvg:type="㇒" d="M28.75,16.25c0.76,0.75,1.02,2,1.03,3.25C30,67.12,27,77,11,93" transform="matrix(1,0,0,1,196,-4)" class="stroke_order_diagram--current_path"></path><circle cx="28.75" cy="16.25" r="8" class="stroke_order_diagram--path_start" transform="matrix(1,0,0,1,196,-4)"></circle><line x1="350" x2="350" y1="1" y2="99" class="stroke_order_diagram--guide_line"></line><line x1="399" x2="399" y1="1" y2="99" class="stroke_order_diagram--bounding_box"></line><path id="pathSk2v596cn3pip" kvg:type="㇔" d="M11.62,39.25c1.6,3.23,3.94,12.39,4.38,15.62" transform="matrix(1,0,0,1,296,-4)" class="stroke_order_diagram--existing_path"></path><path id="pathSk2v596cn3piq" kvg:type="㇒" d="M46.13,28.75c0.17,1.05-0.08,1.99-0.82,3.02c-0.74,1.03-8.87,9.08-12.56,11.48" transform="matrix(1,0,0,1,296,-4)" class="stroke_order_diagram--existing_path"></path><path id="pathSk2v596cn3pir" kvg:type="㇒" d="M28.75,16.25c0.76,0.75,1.02,2,1.03,3.25C30,67.12,27,77,11,93" transform="matrix(1,0,0,1,296,-4)" class="stroke_order_diagram--existing_path"></path><path id="kvg:0706f-s4" kvg:type="㇔/㇏" d="M30.62,63.75c5.2,2.73,11.76,11.38,13.12,15.25" transform="matrix(1,0,0,1,296,-4)" class="stroke_order_diagram--current_path"></path><path id="pathSk2v596cn3pit" kvg:type="㇔/㇏" d="M30.62,63.75c5.2,2.73,11.76,11.38,13.12,15.25" transform="matrix(1,0,0,1,296,-4)" class="stroke_order_diagram--current_path"></path><circle cx="30.62" cy="63.75" r="8" class="stroke_order_diagram--path_start" transform="matrix(1,0,0,1,296,-4)"></circle><line x1="450" x2="450" y1="1" y2="99" class="stroke_order_diagram--guide_line"></line><line x1="499" x2="499" y1="1" y2="99" class="stroke_order_diagram--bounding_box"></line><path id="pathSk2v596cn3piw" kvg:type="㇔" d="M11.62,39.25c1.6,3.23,3.94,12.39,4.38,15.62" transform="matrix(1,0,0,1,396,-4)" class="stroke_order_diagram--existing_path"></path><path id="pathSk2v596cn3pix" kvg:type="㇒" d="M46.13,28.75c0.17,1.05-0.08,1.99-0.82,3.02c-0.74,1.03-8.87,9.08-12.56,11.48" transform="matrix(1,0,0,1,396,-4)" class="stroke_order_diagram--existing_path"></path><path id="pathSk2v596cn3piy" kvg:type="㇒" d="M28.75,16.25c0.76,0.75,1.02,2,1.03,3.25C30,67.12,27,77,11,93" transform="matrix(1,0,0,1,396,-4)" class="stroke_order_diagram--existing_path"></path><path id="pathSk2v596cn3piz" kvg:type="㇔/㇏" d="M30.62,63.75c5.2,2.73,11.76,11.38,13.12,15.25" transform="matrix(1,0,0,1,396,-4)" class="stroke_order_diagram--existing_path"></path><path id="kvg:0706f-s5" kvg:type="㇐" d="M52.5,26.42c1.82,0.56,5.15,0.53,6.96,0.31c9.17-1.11,23.42-3.11,31.56-3.48c3.02-0.13,4.84,0.27,6.35,0.55" transform="matrix(1,0,0,1,396,-4)" class="stroke_order_diagram--current_path"></path><path id="pathSk2v596cn3pj1" kvg:type="㇐" d="M52.5,26.42c1.82,0.56,5.15,0.53,6.96,0.31c9.17-1.11,23.42-3.11,31.56-3.48c3.02-0.13,4.84,0.27,6.35,0.55" transform="matrix(1,0,0,1,396,-4)" class="stroke_order_diagram--current_path"></path><circle cx="52.5" cy="26.42" r="8" class="stroke_order_diagram--path_start" transform="matrix(1,0,0,1,396,-4)"></circle><line x1="550" x2="550" y1="1" y2="99" class="stroke_order_diagram--guide_line"></line><line x1="599" x2="599" y1="1" y2="99" class="stroke_order_diagram--bounding_box"></line><path id="pathSk2v596cn3pj4" kvg:type="㇔" d="M11.62,39.25c1.6,3.23,3.94,12.39,4.38,15.62" transform="matrix(1,0,0,1,496,-4)" class="stroke_order_diagram--existing_path"></path><path id="pathSk2v596cn3pj5" kvg:type="㇒" d="M46.13,28.75c0.17,1.05-0.08,1.99-0.82,3.02c-0.74,1.03-8.87,9.08-12.56,11.48" transform="matrix(1,0,0,1,496,-4)" class="stroke_order_diagram--existing_path"></path><path id="pathSk2v596cn3pj6" kvg:type="㇒" d="M28.75,16.25c0.76,0.75,1.02,2,1.03,3.25C30,67.12,27,77,11,93" transform="matrix(1,0,0,1,496,-4)" class="stroke_order_diagram--existing_path"></path><path id="pathSk2v596cn3pj7" kvg:type="㇔/㇏" d="M30.62,63.75c5.2,2.73,11.76,11.38,13.12,15.25" transform="matrix(1,0,0,1,496,-4)" class="stroke_order_diagram--existing_path"></path><path id="pathSk2v596cn3pj8" kvg:type="㇐" d="M52.5,26.42c1.82,0.56,5.15,0.53,6.96,0.31c9.17-1.11,23.42-3.11,31.56-3.48c3.02-0.13,4.84,0.27,6.35,0.55" transform="matrix(1,0,0,1,496,-4)" class="stroke_order_diagram--existing_path"></path><path id="kvg:0706f-s6" kvg:type="㇚" d="M78.02,27.58c1.14,1.14,1.75,2.79,1.75,5.06c0,15.86,0,51.23,0,56.8c0,8.97-6.05,2.58-9.71-0.5" transform="matrix(1,0,0,1,496,-4)" class="stroke_order_diagram--current_path"></path><path id="pathSk2v596cn3pja" kvg:type="㇚" d="M78.02,27.58c1.14,1.14,1.75,2.79,1.75,5.06c0,15.86,0,51.23,0,56.8c0,8.97-6.05,2.58-9.71-0.5" transform="matrix(1,0,0,1,496,-4)" class="stroke_order_diagram--current_path"></path><circle cx="78.02" cy="27.58" r="8" class="stroke_order_diagram--path_start" transform="matrix(1,0,0,1,496,-4)"></circle></svg>