<svg style="width: 1200px; height: 100px;" viewbox="0 0 1200 100"><style>
.stroke_order_diagram--outer_container {
  width: 100%;
  overflow-x: auto;
  overflow-y: hidden;
}

.stroke_order_diagram--guide_line {
  fill: none;
  stroke: #ddd;
  stroke-width: 3;
  stroke-linecap: square;
  stroke-linejoin: square;
  stroke-dasharray:8, 8;
}

.stroke_order_diagram--bounding_box {
  fill: none;
  stroke: #ddd;
  stroke-width: 4;
  stroke-linecap: square;
  stroke-linejoin: square;
}

.stroke_order_diagram--current_path {
  fill: none;
  stroke: #000;
  stroke-width: 6;
  stroke-linecap: round;
  stroke-linejoin: round;
}

.stroke_order_diagram--existing_path {
  fill: none;
  stroke: #aaa;
  stroke-width: 6;
  stroke-linecap: round;
  stroke-linejoin:round;
}

.stroke_order_diagram--path_start {
  fill: rgba(255, 0, 0, 0.7);
  stroke:none
}</style><desc>Created with Snap</desc><defs></defs><line x1="1" x2="1199" y1="1" y2="1" class="stroke_order_diagram--bounding_box"></line><line x1="1" x2="1" y1="1" y2="99" class="stroke_order_diagram--bounding_box"></line><line x1="1" x2="1199" y1="99" y2="99" class="stroke_order_diagram--bounding_box"></line><line x1="0" x2="1200" y1="50" y2="50" class="stroke_order_diagram--guide_line"></line><line x1="50" x2="50" y1="1" y2="99" class="stroke_order_diagram--guide_line"></line><line x1="99" x2="99" y1="1" y2="99" class="stroke_order_diagram--bounding_box"></line><path id="kvg:07136-s1" kvg:type="㇒" d="M32.88,14.38c0.5,1.35,0.16,2.57-0.55,4.16c-4.06,9.08-9.31,18.01-15.09,24.07" transform="matrix(1,0,0,1,-4,-4)" class="stroke_order_diagram--current_path"></path><path id="pathSk2v596cnqgz" kvg:type="㇒" d="M32.88,14.38c0.5,1.35,0.16,2.57-0.55,4.16c-4.06,9.08-9.31,18.01-15.09,24.07" transform="matrix(1,0,0,1,-4,-4)" class="stroke_order_diagram--current_path"></path><circle cx="32.88" cy="14.38" r="8" class="stroke_order_diagram--path_start" transform="matrix(1,0,0,1,-4,-4)"></circle><line x1="150" x2="150" y1="1" y2="99" class="stroke_order_diagram--guide_line"></line><line x1="199" x2="199" y1="1" y2="99" class="stroke_order_diagram--bounding_box"></line><path id="pathSk2v596cnqh2" kvg:type="㇒" d="M32.88,14.38c0.5,1.35,0.16,2.57-0.55,4.16c-4.06,9.08-9.31,18.01-15.09,24.07" transform="matrix(1,0,0,1,96,-4)" class="stroke_order_diagram--existing_path"></path><path id="kvg:07136-s2" kvg:type="㇆a" d="M33.88,21.24c0.69,0.18,1.72,0.58,2.88,0.35c3.73-0.71,7.79-1.38,9.98-1.8c3.03-0.58,3.74,0.43,3.02,3.28C46.73,35,33.5,55.75,17.42,66.25" transform="matrix(1,0,0,1,96,-4)" class="stroke_order_diagram--current_path"></path><path id="pathSk2v596cnqh4" kvg:type="㇆a" d="M33.88,21.24c0.69,0.18,1.72,0.58,2.88,0.35c3.73-0.71,7.79-1.38,9.98-1.8c3.03-0.58,3.74,0.43,3.02,3.28C46.73,35,33.5,55.75,17.42,66.25" transform="matrix(1,0,0,1,96,-4)" class="stroke_order_diagram--current_path"></path><circle cx="33.88" cy="21.24" r="8" class="stroke_order_diagram--path_start" transform="matrix(1,0,0,1,96,-4)"></circle><line x1="250" x2="250" y1="1" y2="99" class="stroke_order_diagram--guide_line"></line><line x1="299" x2="299" y1="1" y2="99" class="stroke_order_diagram--bounding_box"></line><path id="pathSk2v596cnqh7" kvg:type="㇒" d="M32.88,14.38c0.5,1.35,0.16,2.57-0.55,4.16c-4.06,9.08-9.31,18.01-15.09,24.07" transform="matrix(1,0,0,1,196,-4)" class="stroke_order_diagram--existing_path"></path><path id="pathSk2v596cnqh8" kvg:type="㇆a" d="M33.88,21.24c0.69,0.18,1.72,0.58,2.88,0.35c3.73-0.71,7.79-1.38,9.98-1.8c3.03-0.58,3.74,0.43,3.02,3.28C46.73,35,33.5,55.75,17.42,66.25" transform="matrix(1,0,0,1,196,-4)" class="stroke_order_diagram--existing_path"></path><path id="kvg:07136-s3" kvg:type="㇐a" d="M29.82,31.84c1.36,0.41,6.81,2.86,9.54,5.31" transform="matrix(1,0,0,1,196,-4)" class="stroke_order_diagram--current_path"></path><path id="pathSk2v596cnqha" kvg:type="㇐a" d="M29.82,31.84c1.36,0.41,6.81,2.86,9.54,5.31" transform="matrix(1,0,0,1,196,-4)" class="stroke_order_diagram--current_path"></path><circle cx="29.82" cy="31.84" r="8" class="stroke_order_diagram--path_start" transform="matrix(1,0,0,1,196,-4)"></circle><line x1="350" x2="350" y1="1" y2="99" class="stroke_order_diagram--guide_line"></line><line x1="399" x2="399" y1="1" y2="99" class="stroke_order_diagram--bounding_box"></line><path id="pathSk2v596cnqhd" kvg:type="㇒" d="M32.88,14.38c0.5,1.35,0.16,2.57-0.55,4.16c-4.06,9.08-9.31,18.01-15.09,24.07" transform="matrix(1,0,0,1,296,-4)" class="stroke_order_diagram--existing_path"></path><path id="pathSk2v596cnqhe" kvg:type="㇆a" d="M33.88,21.24c0.69,0.18,1.72,0.58,2.88,0.35c3.73-0.71,7.79-1.38,9.98-1.8c3.03-0.58,3.74,0.43,3.02,3.28C46.73,35,33.5,55.75,17.42,66.25" transform="matrix(1,0,0,1,296,-4)" class="stroke_order_diagram--existing_path"></path><path id="pathSk2v596cnqhf" kvg:type="㇐a" d="M29.82,31.84c1.36,0.41,6.81,2.86,9.54,5.31" transform="matrix(1,0,0,1,296,-4)" class="stroke_order_diagram--existing_path"></path><path id="kvg:07136-s4" kvg:type="㇐a" d="M21.68,42.77c1.87,0.9,7.46,4.71,9.02,6.73" transform="matrix(1,0,0,1,296,-4)" class="stroke_order_diagram--current_path"></path><path id="pathSk2v596cnqhh" kvg:type="㇐a" d="M21.68,42.77c1.87,0.9,7.46,4.71,9.02,6.73" transform="matrix(1,0,0,1,296,-4)" class="stroke_order_diagram--current_path"></path><circle cx="21.68" cy="42.77" r="8" class="stroke_order_diagram--path_start" transform="matrix(1,0,0,1,296,-4)"></circle><line x1="450" x2="450" y1="1" y2="99" class="stroke_order_diagram--guide_line"></line><line x1="499" x2="499" y1="1" y2="99" class="stroke_order_diagram--bounding_box"></line><path id="pathSk2v596cnqhk" kvg:type="㇒" d="M32.88,14.38c0.5,1.35,0.16,2.57-0.55,4.16c-4.06,9.08-9.31,18.01-15.09,24.07" transform="matrix(1,0,0,1,396,-4)" class="stroke_order_diagram--existing_path"></path><path id="pathSk2v596cnqhl" kvg:type="㇆a" d="M33.88,21.24c0.69,0.18,1.72,0.58,2.88,0.35c3.73-0.71,7.79-1.38,9.98-1.8c3.03-0.58,3.74,0.43,3.02,3.28C46.73,35,33.5,55.75,17.42,66.25" transform="matrix(1,0,0,1,396,-4)" class="stroke_order_diagram--existing_path"></path><path id="pathSk2v596cnqhm" kvg:type="㇐a" d="M29.82,31.84c1.36,0.41,6.81,2.86,9.54,5.31" transform="matrix(1,0,0,1,396,-4)" class="stroke_order_diagram--existing_path"></path><path id="pathSk2v596cnqhn" kvg:type="㇐a" d="M21.68,42.77c1.87,0.9,7.46,4.71,9.02,6.73" transform="matrix(1,0,0,1,396,-4)" class="stroke_order_diagram--existing_path"></path><path id="kvg:07136-s5" kvg:type="㇐" d="M50.38,37.19c0.81,0.32,3.56,0.47,5.12,0.29c8.15-0.99,19.56-2.23,25.02-2.63c1.12-0.08,2.72-0.37,5.22,0.18" transform="matrix(1,0,0,1,396,-4)" class="stroke_order_diagram--current_path"></path><path id="pathSk2v596cnqhp" kvg:type="㇐" d="M50.38,37.19c0.81,0.32,3.56,0.47,5.12,0.29c8.15-0.99,19.56-2.23,25.02-2.63c1.12-0.08,2.72-0.37,5.22,0.18" transform="matrix(1,0,0,1,396,-4)" class="stroke_order_diagram--current_path"></path><circle cx="50.38" cy="37.19" r="8" class="stroke_order_diagram--path_start" transform="matrix(1,0,0,1,396,-4)"></circle><line x1="550" x2="550" y1="1" y2="99" class="stroke_order_diagram--guide_line"></line><line x1="599" x2="599" y1="1" y2="99" class="stroke_order_diagram--bounding_box"></line><path id="pathSk2v596cnqhs" kvg:type="㇒" d="M32.88,14.38c0.5,1.35,0.16,2.57-0.55,4.16c-4.06,9.08-9.31,18.01-15.09,24.07" transform="matrix(1,0,0,1,496,-4)" class="stroke_order_diagram--existing_path"></path><path id="pathSk2v596cnqht" kvg:type="㇆a" d="M33.88,21.24c0.69,0.18,1.72,0.58,2.88,0.35c3.73-0.71,7.79-1.38,9.98-1.8c3.03-0.58,3.74,0.43,3.02,3.28C46.73,35,33.5,55.75,17.42,66.25" transform="matrix(1,0,0,1,496,-4)" class="stroke_order_diagram--existing_path"></path><path id="pathSk2v596cnqhu" kvg:type="㇐a" d="M29.82,31.84c1.36,0.41,6.81,2.86,9.54,5.31" transform="matrix(1,0,0,1,496,-4)" class="stroke_order_diagram--existing_path"></path><path id="pathSk2v596cnqhv" kvg:type="㇐a" d="M21.68,42.77c1.87,0.9,7.46,4.71,9.02,6.73" transform="matrix(1,0,0,1,496,-4)" class="stroke_order_diagram--existing_path"></path><path id="pathSk2v596cnqhw" kvg:type="㇐" d="M50.38,37.19c0.81,0.32,3.56,0.47,5.12,0.29c8.15-0.99,19.56-2.23,25.02-2.63c1.12-0.08,2.72-0.37,5.22,0.18" transform="matrix(1,0,0,1,496,-4)" class="stroke_order_diagram--existing_path"></path><path id="kvg:07136-s6" kvg:type="㇒" d="M66.36,14.08c0.71,0.8,1.22,1.85,1.24,3.45C67.88,37,61.5,60.12,44.03,68.12" transform="matrix(1,0,0,1,496,-4)" class="stroke_order_diagram--current_path"></path><path id="pathSk2v596cnqhy" kvg:type="㇒" d="M66.36,14.08c0.71,0.8,1.22,1.85,1.24,3.45C67.88,37,61.5,60.12,44.03,68.12" transform="matrix(1,0,0,1,496,-4)" class="stroke_order_diagram--current_path"></path><circle cx="66.36" cy="14.08" r="8" class="stroke_order_diagram--path_start" transform="matrix(1,0,0,1,496,-4)"></circle><line x1="650" x2="650" y1="1" y2="99" class="stroke_order_diagram--guide_line"></line><line x1="699" x2="699" y1="1" y2="99" class="stroke_order_diagram--bounding_box"></line><path id="pathSk2v596cnqi1" kvg:type="㇒" d="M32.88,14.38c0.5,1.35,0.16,2.57-0.55,4.16c-4.06,9.08-9.31,18.01-15.09,24.07" transform="matrix(1,0,0,1,596,-4)" class="stroke_order_diagram--existing_path"></path><path id="pathSk2v596cnqi2" kvg:type="㇆a" d="M33.88,21.24c0.69,0.18,1.72,0.58,2.88,0.35c3.73-0.71,7.79-1.38,9.98-1.8c3.03-0.58,3.74,0.43,3.02,3.28C46.73,35,33.5,55.75,17.42,66.25" transform="matrix(1,0,0,1,596,-4)" class="stroke_order_diagram--existing_path"></path><path id="pathSk2v596cnqi3" kvg:type="㇐a" d="M29.82,31.84c1.36,0.41,6.81,2.86,9.54,5.31" transform="matrix(1,0,0,1,596,-4)" class="stroke_order_diagram--existing_path"></path><path id="pathSk2v596cnqi4" kvg:type="㇐a" d="M21.68,42.77c1.87,0.9,7.46,4.71,9.02,6.73" transform="matrix(1,0,0,1,596,-4)" class="stroke_order_diagram--existing_path"></path><path id="pathSk2v596cnqi5" kvg:type="㇐" d="M50.38,37.19c0.81,0.32,3.56,0.47,5.12,0.29c8.15-0.99,19.56-2.23,25.02-2.63c1.12-0.08,2.72-0.37,5.22,0.18" transform="matrix(1,0,0,1,596,-4)" class="stroke_order_diagram--existing_path"></path><path id="pathSk2v596cnqi6" kvg:type="㇒" d="M66.36,14.08c0.71,0.8,1.22,1.85,1.24,3.45C67.88,37,61.5,60.12,44.03,68.12" transform="matrix(1,0,0,1,596,-4)" class="stroke_order_diagram--existing_path"></path><path id="kvg:07136-s7" kvg:type="㇏" d="M66.83,40.23c5.89,7.88,16.79,20.16,23.91,26.16c1.86,1.57,2.63,1.7,3.52,1.84" transform="matrix(1,0,0,1,596,-4)" class="stroke_order_diagram--current_path"></path><path id="pathSk2v596cnqi8" kvg:type="㇏" d="M66.83,40.23c5.89,7.88,16.79,20.16,23.91,26.16c1.86,1.57,2.63,1.7,3.52,1.84" transform="matrix(1,0,0,1,596,-4)" class="stroke_order_diagram--current_path"></path><circle cx="66.83" cy="40.23" r="8" class="stroke_order_diagram--path_start" transform="matrix(1,0,0,1,596,-4)"></circle><line x1="750" x2="750" y1="1" y2="99" class="stroke_order_diagram--guide_line"></line><line x1="799" x2="799" y1="1" y2="99" class="stroke_order_diagram--bounding_box"></line><path id="pathSk2v596cnqib" kvg:type="㇒" d="M32.88,14.38c0.5,1.35,0.16,2.57-0.55,4.16c-4.06,9.08-9.31,18.01-15.09,24.07" transform="matrix(1,0,0,1,696,-4)" class="stroke_order_diagram--existing_path"></path><path id="pathSk2v596cnqic" kvg:type="㇆a" d="M33.88,21.24c0.69,0.18,1.72,0.58,2.88,0.35c3.73-0.71,7.79-1.38,9.98-1.8c3.03-0.58,3.74,0.43,3.02,3.28C46.73,35,33.5,55.75,17.42,66.25" transform="matrix(1,0,0,1,696,-4)" class="stroke_order_diagram--existing_path"></path><path id="pathSk2v596cnqid" kvg:type="㇐a" d="M29.82,31.84c1.36,0.41,6.81,2.86,9.54,5.31" transform="matrix(1,0,0,1,696,-4)" class="stroke_order_diagram--existing_path"></path><path id="pathSk2v596cnqie" kvg:type="㇐a" d="M21.68,42.77c1.87,0.9,7.46,4.71,9.02,6.73" transform="matrix(1,0,0,1,696,-4)" class="stroke_order_diagram--existing_path"></path><path id="pathSk2v596cnqif" kvg:type="㇐" d="M50.38,37.19c0.81,0.32,3.56,0.47,5.12,0.29c8.15-0.99,19.56-2.23,25.02-2.63c1.12-0.08,2.72-0.37,5.22,0.18" transform="matrix(1,0,0,1,696,-4)" class="stroke_order_diagram--existing_path"></path><path id="pathSk2v596cnqig" kvg:type="㇒" d="M66.36,14.08c0.71,0.8,1.22,1.85,1.24,3.45C67.88,37,61.5,60.12,44.03,68.12" transform="matrix(1,0,0,1,696,-4)" class="stroke_order_diagram--existing_path"></path><path id="pathSk2v596cnqih" kvg:type="㇏" d="M66.83,40.23c5.89,7.88,16.79,20.16,23.91,26.16c1.86,1.57,2.63,1.7,3.52,1.84" transform="matrix(1,0,0,1,696,-4)" class="stroke_order_diagram--existing_path"></path><path id="kvg:07136-s8" kvg:type="㇔" d="M77.62,15c4.12,3,7.12,6.74,8.86,10.33" transform="matrix(1,0,0,1,696,-4)" class="stroke_order_diagram--current_path"></path><path id="pathSk2v596cnqij" kvg:type="㇔" d="M77.62,15c4.12,3,7.12,6.74,8.86,10.33" transform="matrix(1,0,0,1,696,-4)" class="stroke_order_diagram--current_path"></path><circle cx="77.62" cy="15" r="8" class="stroke_order_diagram--path_start" transform="matrix(1,0,0,1,696,-4)"></circle><line x1="850" x2="850" y1="1" y2="99" class="stroke_order_diagram--guide_line"></line><line x1="899" x2="899" y1="1" y2="99" class="stroke_order_diagram--bounding_box"></line><path id="pathSk2v596cnqim" kvg:type="㇒" d="M32.88,14.38c0.5,1.35,0.16,2.57-0.55,4.16c-4.06,9.08-9.31,18.01-15.09,24.07" transform="matrix(1,0,0,1,796,-4)" class="stroke_order_diagram--existing_path"></path><path id="pathSk2v596cnqin" kvg:type="㇆a" d="M33.88,21.24c0.69,0.18,1.72,0.58,2.88,0.35c3.73-0.71,7.79-1.38,9.98-1.8c3.03-0.58,3.74,0.43,3.02,3.28C46.73,35,33.5,55.75,17.42,66.25" transform="matrix(1,0,0,1,796,-4)" class="stroke_order_diagram--existing_path"></path><path id="pathSk2v596cnqio" kvg:type="㇐a" d="M29.82,31.84c1.36,0.41,6.81,2.86,9.54,5.31" transform="matrix(1,0,0,1,796,-4)" class="stroke_order_diagram--existing_path"></path><path id="pathSk2v596cnqip" kvg:type="㇐a" d="M21.68,42.77c1.87,0.9,7.46,4.71,9.02,6.73" transform="matrix(1,0,0,1,796,-4)" class="stroke_order_diagram--existing_path"></path><path id="pathSk2v596cnqiq" kvg:type="㇐" d="M50.38,37.19c0.81,0.32,3.56,0.47,5.12,0.29c8.15-0.99,19.56-2.23,25.02-2.63c1.12-0.08,2.72-0.37,5.22,0.18" transform="matrix(1,0,0,1,796,-4)" class="stroke_order_diagram--existing_path"></path><path id="pathSk2v596cnqir" kvg:type="㇒" d="M66.36,14.08c0.71,0.8,1.22,1.85,1.24,3.45C67.88,37,61.5,60.12,44.03,68.12" transform="matrix(1,0,0,1,796,-4)" class="stroke_order_diagram--existing_path"></path><path id="pathSk2v596cnqis" kvg:type="㇏" d="M66.83,40.23c5.89,7.88,16.79,20.16,23.91,26.16c1.86,1.57,2.63,1.7,3.52,1.84" transform="matrix(1,0,0,1,796,-4)" class="stroke_order_diagram--existing_path"></path><path id="pathSk2v596cnqit" kvg:type="㇔" d="M77.62,15c4.12,3,7.12,6.74,8.86,10.33" transform="matrix(1,0,0,1,796,-4)" class="stroke_order_diagram--existing_path"></path><path id="kvg:07136-s9" kvg:type="㇔" d="M20.75,80c0,5.52-4.76,13.67-6,15.25" transform="matrix(1,0,0,1,796,-4)" class="stroke_order_diagram--current_path"></path><path id="pathSk2v596cnqiv" kvg:type="㇔" d="M20.75,80c0,5.52-4.76,13.67-6,15.25" transform="matrix(1,0,0,1,796,-4)" class="stroke_order_diagram--current_path"></path><circle cx="20.75" cy="80" r="8" class="stroke_order_diagram--path_start" transform="matrix(1,0,0,1,796,-4)"></circle><line x1="950" x2="950" y1="1" y2="99" class="stroke_order_diagram--guide_line"></line><line x1="999" x2="999" y1="1" y2="99" class="stroke_order_diagram--bounding_box"></line><path id="pathSk2v596cnqiy" kvg:type="㇒" d="M32.88,14.38c0.5,1.35,0.16,2.57-0.55,4.16c-4.06,9.08-9.31,18.01-15.09,24.07" transform="matrix(1,0,0,1,896,-4)" class="stroke_order_diagram--existing_path"></path><path id="pathSk2v596cnqiz" kvg:type="㇆a" d="M33.88,21.24c0.69,0.18,1.72,0.58,2.88,0.35c3.73-0.71,7.79-1.38,9.98-1.8c3.03-0.58,3.74,0.43,3.02,3.28C46.73,35,33.5,55.75,17.42,66.25" transform="matrix(1,0,0,1,896,-4)" class="stroke_order_diagram--existing_path"></path><path id="pathSk2v596cnqj0" kvg:type="㇐a" d="M29.82,31.84c1.36,0.41,6.81,2.86,9.54,5.31" transform="matrix(1,0,0,1,896,-4)" class="stroke_order_diagram--existing_path"></path><path id="pathSk2v596cnqj1" kvg:type="㇐a" d="M21.68,42.77c1.87,0.9,7.46,4.71,9.02,6.73" transform="matrix(1,0,0,1,896,-4)" class="stroke_order_diagram--existing_path"></path><path id="pathSk2v596cnqj2" kvg:type="㇐" d="M50.38,37.19c0.81,0.32,3.56,0.47,5.12,0.29c8.15-0.99,19.56-2.23,25.02-2.63c1.12-0.08,2.72-0.37,5.22,0.18" transform="matrix(1,0,0,1,896,-4)" class="stroke_order_diagram--existing_path"></path><path id="pathSk2v596cnqj3" kvg:type="㇒" d="M66.36,14.08c0.71,0.8,1.22,1.85,1.24,3.45C67.88,37,61.5,60.12,44.03,68.12" transform="matrix(1,0,0,1,896,-4)" class="stroke_order_diagram--existing_path"></path><path id="pathSk2v596cnqj4" kvg:type="㇏" d="M66.83,40.23c5.89,7.88,16.79,20.16,23.91,26.16c1.86,1.57,2.63,1.7,3.52,1.84" transform="matrix(1,0,0,1,896,-4)" class="stroke_order_diagram--existing_path"></path><path id="pathSk2v596cnqj5" kvg:type="㇔" d="M77.62,15c4.12,3,7.12,6.74,8.86,10.33" transform="matrix(1,0,0,1,896,-4)" class="stroke_order_diagram--existing_path"></path><path id="pathSk2v596cnqj6" kvg:type="㇔" d="M20.75,80c0,5.52-4.76,13.67-6,15.25" transform="matrix(1,0,0,1,896,-4)" class="stroke_order_diagram--existing_path"></path><path id="kvg:07136-s10" kvg:type="㇔" d="M40.5,77.38c2.5,3.38,3.91,12.44,3.92,16.96" transform="matrix(1,0,0,1,896,-4)" class="stroke_order_diagram--current_path"></path><path id="pathSk2v596cnqj8" kvg:type="㇔" d="M40.5,77.38c2.5,3.38,3.91,12.44,3.92,16.96" transform="matrix(1,0,0,1,896,-4)" class="stroke_order_diagram--current_path"></path><circle cx="40.5" cy="77.38" r="8" class="stroke_order_diagram--path_start" transform="matrix(1,0,0,1,896,-4)"></circle><line x1="1050" x2="1050" y1="1" y2="99" class="stroke_order_diagram--guide_line"></line><line x1="1099" x2="1099" y1="1" y2="99" class="stroke_order_diagram--bounding_box"></line><path id="pathSk2v596cnqjb" kvg:type="㇒" d="M32.88,14.38c0.5,1.35,0.16,2.57-0.55,4.16c-4.06,9.08-9.31,18.01-15.09,24.07" transform="matrix(1,0,0,1,996,-4)" class="stroke_order_diagram--existing_path"></path><path id="pathSk2v596cnqjc" kvg:type="㇆a" d="M33.88,21.24c0.69,0.18,1.72,0.58,2.88,0.35c3.73-0.71,7.79-1.38,9.98-1.8c3.03-0.58,3.74,0.43,3.02,3.28C46.73,35,33.5,55.75,17.42,66.25" transform="matrix(1,0,0,1,996,-4)" class="stroke_order_diagram--existing_path"></path><path id="pathSk2v596cnqjd" kvg:type="㇐a" d="M29.82,31.84c1.36,0.41,6.81,2.86,9.54,5.31" transform="matrix(1,0,0,1,996,-4)" class="stroke_order_diagram--existing_path"></path><path id="pathSk2v596cnqje" kvg:type="㇐a" d="M21.68,42.77c1.87,0.9,7.46,4.71,9.02,6.73" transform="matrix(1,0,0,1,996,-4)" class="stroke_order_diagram--existing_path"></path><path id="pathSk2v596cnqjf" kvg:type="㇐" d="M50.38,37.19c0.81,0.32,3.56,0.47,5.12,0.29c8.15-0.99,19.56-2.23,25.02-2.63c1.12-0.08,2.72-0.37,5.22,0.18" transform="matrix(1,0,0,1,996,-4)" class="stroke_order_diagram--existing_path"></path><path id="pathSk2v596cnqjg" kvg:type="㇒" d="M66.36,14.08c0.71,0.8,1.22,1.85,1.24,3.45C67.88,37,61.5,60.12,44.03,68.12" transform="matrix(1,0,0,1,996,-4)" class="stroke_order_diagram--existing_path"></path><path id="pathSk2v596cnqjh" kvg:type="㇏" d="M66.83,40.23c5.89,7.88,16.79,20.16,23.91,26.16c1.86,1.57,2.63,1.7,3.52,1.84" transform="matrix(1,0,0,1,996,-4)" class="stroke_order_diagram--existing_path"></path><path id="pathSk2v596cnqji" kvg:type="㇔" d="M77.62,15c4.12,3,7.12,6.74,8.86,10.33" transform="matrix(1,0,0,1,996,-4)" class="stroke_order_diagram--existing_path"></path><path id="pathSk2v596cnqjj" kvg:type="㇔" d="M20.75,80c0,5.52-4.76,13.67-6,15.25" transform="matrix(1,0,0,1,996,-4)" class="stroke_order_diagram--existing_path"></path><path id="pathSk2v596cnqjk" kvg:type="㇔" d="M40.5,77.38c2.5,3.38,3.91,12.44,3.92,16.96" transform="matrix(1,0,0,1,996,-4)" class="stroke_order_diagram--existing_path"></path><path id="kvg:07136-s11" kvg:type="㇔" d="M61.02,76.84c2.74,2.94,6.29,12.02,6.29,16.53" transform="matrix(1,0,0,1,996,-4)" class="stroke_order_diagram--current_path"></path><path id="pathSk2v596cnqjm" kvg:type="㇔" d="M61.02,76.84c2.74,2.94,6.29,12.02,6.29,16.53" transform="matrix(1,0,0,1,996,-4)" class="stroke_order_diagram--current_path"></path><circle cx="61.02" cy="76.84" r="8" class="stroke_order_diagram--path_start" transform="matrix(1,0,0,1,996,-4)"></circle><line x1="1150" x2="1150" y1="1" y2="99" class="stroke_order_diagram--guide_line"></line><line x1="1199" x2="1199" y1="1" y2="99" class="stroke_order_diagram--bounding_box"></line><path id="pathSk2v596cnqjp" kvg:type="㇒" d="M32.88,14.38c0.5,1.35,0.16,2.57-0.55,4.16c-4.06,9.08-9.31,18.01-15.09,24.07" transform="matrix(1,0,0,1,1096,-4)" class="stroke_order_diagram--existing_path"></path><path id="pathSk2v596cnqjq" kvg:type="㇆a" d="M33.88,21.24c0.69,0.18,1.72,0.58,2.88,0.35c3.73-0.71,7.79-1.38,9.98-1.8c3.03-0.58,3.74,0.43,3.02,3.28C46.73,35,33.5,55.75,17.42,66.25" transform="matrix(1,0,0,1,1096,-4)" class="stroke_order_diagram--existing_path"></path><path id="pathSk2v596cnqjr" kvg:type="㇐a" d="M29.82,31.84c1.36,0.41,6.81,2.86,9.54,5.31" transform="matrix(1,0,0,1,1096,-4)" class="stroke_order_diagram--existing_path"></path><path id="pathSk2v596cnqjs" kvg:type="㇐a" d="M21.68,42.77c1.87,0.9,7.46,4.71,9.02,6.73" transform="matrix(1,0,0,1,1096,-4)" class="stroke_order_diagram--existing_path"></path><path id="pathSk2v596cnqjt" kvg:type="㇐" d="M50.38,37.19c0.81,0.32,3.56,0.47,5.12,0.29c8.15-0.99,19.56-2.23,25.02-2.63c1.12-0.08,2.72-0.37,5.22,0.18" transform="matrix(1,0,0,1,1096,-4)" class="stroke_order_diagram--existing_path"></path><path id="pathSk2v596cnqju" kvg:type="㇒" d="M66.36,14.08c0.71,0.8,1.22,1.85,1.24,3.45C67.88,37,61.5,60.12,44.03,68.12" transform="matrix(1,0,0,1,1096,-4)" class="stroke_order_diagram--existing_path"></path><path id="pathSk2v596cnqjv" kvg:type="㇏" d="M66.83,40.23c5.89,7.88,16.79,20.16,23.91,26.16c1.86,1.57,2.63,1.7,3.52,1.84" transform="matrix(1,0,0,1,1096,-4)" class="stroke_order_diagram--existing_path"></path><path id="pathSk2v596cnqjw" kvg:type="㇔" d="M77.62,15c4.12,3,7.12,6.74,8.86,10.33" transform="matrix(1,0,0,1,1096,-4)" class="stroke_order_diagram--existing_path"></path><path id="pathSk2v596cnqjx" kvg:type="㇔" d="M20.75,80c0,5.52-4.76,13.67-6,15.25" transform="matrix(1,0,0,1,1096,-4)" class="stroke_order_diagram--existing_path"></path><path id="pathSk2v596cnqjy" kvg:type="㇔" d="M40.5,77.38c2.5,3.38,3.91,12.44,3.92,16.96" transform="matrix(1,0,0,1,1096,-4)" class="stroke_order_diagram--existing_path"></path><path id="pathSk2v596cnqjz" kvg:type="㇔" d="M61.02,76.84c2.74,2.94,6.29,12.02,6.29,16.53" transform="matrix(1,0,0,1,1096,-4)" class="stroke_order_diagram--existing_path"></path><path id="kvg:07136-s12" kvg:type="㇔" d="M83.76,77.44c3.5,2.9,8.36,11.85,8.64,16.29" transform="matrix(1,0,0,1,1096,-4)" class="stroke_order_diagram--current_path"></path><path id="pathSk2v596cnqk1" kvg:type="㇔" d="M83.76,77.44c3.5,2.9,8.36,11.85,8.64,16.29" transform="matrix(1,0,0,1,1096,-4)" class="stroke_order_diagram--current_path"></path><circle cx="83.76" cy="77.44" r="8" class="stroke_order_diagram--path_start" transform="matrix(1,0,0,1,1096,-4)"></circle></svg>