<svg style="width: 1100px; height: 100px;" viewbox="0 0 1100 100"><style>
.stroke_order_diagram--outer_container {
  width: 100%;
  overflow-x: auto;
  overflow-y: hidden;
}

.stroke_order_diagram--guide_line {
  fill: none;
  stroke: #ddd;
  stroke-width: 3;
  stroke-linecap: square;
  stroke-linejoin: square;
  stroke-dasharray:8, 8;
}

.stroke_order_diagram--bounding_box {
  fill: none;
  stroke: #ddd;
  stroke-width: 4;
  stroke-linecap: square;
  stroke-linejoin: square;
}

.stroke_order_diagram--current_path {
  fill: none;
  stroke: #000;
  stroke-width: 6;
  stroke-linecap: round;
  stroke-linejoin: round;
}

.stroke_order_diagram--existing_path {
  fill: none;
  stroke: #aaa;
  stroke-width: 6;
  stroke-linecap: round;
  stroke-linejoin:round;
}

.stroke_order_diagram--path_start {
  fill: rgba(255, 0, 0, 0.7);
  stroke:none
}</style><desc>Created with Snap</desc><defs></defs><line x1="1" x2="1099" y1="1" y2="1" class="stroke_order_diagram--bounding_box"></line><line x1="1" x2="1" y1="1" y2="99" class="stroke_order_diagram--bounding_box"></line><line x1="1" x2="1099" y1="99" y2="99" class="stroke_order_diagram--bounding_box"></line><line x1="0" x2="1100" y1="50" y2="50" class="stroke_order_diagram--guide_line"></line><line x1="50" x2="50" y1="1" y2="99" class="stroke_order_diagram--guide_line"></line><line x1="99" x2="99" y1="1" y2="99" class="stroke_order_diagram--bounding_box"></line><path id="kvg:0723d-s1" kvg:type="㇐" d="M21,28.95c2.79,0.99,6.51,0.73,9.4,0.42c12.27-1.32,32.22-4.23,48.47-4.77c2.99-0.1,5.93-0.18,8.88,0.45" transform="matrix(1,0,0,1,-4,-4)" class="stroke_order_diagram--current_path"></path><path id="pathSk2v596cn3n9f" kvg:type="㇐" d="M21,28.95c2.79,0.99,6.51,0.73,9.4,0.42c12.27-1.32,32.22-4.23,48.47-4.77c2.99-0.1,5.93-0.18,8.88,0.45" transform="matrix(1,0,0,1,-4,-4)" class="stroke_order_diagram--current_path"></path><circle cx="21" cy="28.95" r="8" class="stroke_order_diagram--path_start" transform="matrix(1,0,0,1,-4,-4)"></circle><line x1="150" x2="150" y1="1" y2="99" class="stroke_order_diagram--guide_line"></line><line x1="199" x2="199" y1="1" y2="99" class="stroke_order_diagram--bounding_box"></line><path id="pathSk2v596cn3n9i" kvg:type="㇐" d="M21,28.95c2.79,0.99,6.51,0.73,9.4,0.42c12.27-1.32,32.22-4.23,48.47-4.77c2.99-0.1,5.93-0.18,8.88,0.45" transform="matrix(1,0,0,1,96,-4)" class="stroke_order_diagram--existing_path"></path><path id="kvg:0723d-s2" kvg:type="㇒" d="M39.97,35.16c0.14,1.09-0.11,1.92-0.68,2.87c-2.26,3.76-9.2,9.6-18.74,15.42" transform="matrix(1,0,0,1,96,-4)" class="stroke_order_diagram--current_path"></path><path id="pathSk2v596cn3n9k" kvg:type="㇒" d="M39.97,35.16c0.14,1.09-0.11,1.92-0.68,2.87c-2.26,3.76-9.2,9.6-18.74,15.42" transform="matrix(1,0,0,1,96,-4)" class="stroke_order_diagram--current_path"></path><circle cx="39.97" cy="35.16" r="8" class="stroke_order_diagram--path_start" transform="matrix(1,0,0,1,96,-4)"></circle><line x1="250" x2="250" y1="1" y2="99" class="stroke_order_diagram--guide_line"></line><line x1="299" x2="299" y1="1" y2="99" class="stroke_order_diagram--bounding_box"></line><path id="pathSk2v596cn3n9n" kvg:type="㇐" d="M21,28.95c2.79,0.99,6.51,0.73,9.4,0.42c12.27-1.32,32.22-4.23,48.47-4.77c2.99-0.1,5.93-0.18,8.88,0.45" transform="matrix(1,0,0,1,196,-4)" class="stroke_order_diagram--existing_path"></path><path id="pathSk2v596cn3n9o" kvg:type="㇒" d="M39.97,35.16c0.14,1.09-0.11,1.92-0.68,2.87c-2.26,3.76-9.2,9.6-18.74,15.42" transform="matrix(1,0,0,1,196,-4)" class="stroke_order_diagram--existing_path"></path><path id="kvg:0723d-s3" kvg:type="㇏" d="M28.31,40.04c4.23,0.99,9.85,5.98,11.5,9.43" transform="matrix(1,0,0,1,196,-4)" class="stroke_order_diagram--current_path"></path><path id="pathSk2v596cn3n9q" kvg:type="㇏" d="M28.31,40.04c4.23,0.99,9.85,5.98,11.5,9.43" transform="matrix(1,0,0,1,196,-4)" class="stroke_order_diagram--current_path"></path><circle cx="28.31" cy="40.04" r="8" class="stroke_order_diagram--path_start" transform="matrix(1,0,0,1,196,-4)"></circle><line x1="350" x2="350" y1="1" y2="99" class="stroke_order_diagram--guide_line"></line><line x1="399" x2="399" y1="1" y2="99" class="stroke_order_diagram--bounding_box"></line><path id="pathSk2v596cn3n9t" kvg:type="㇐" d="M21,28.95c2.79,0.99,6.51,0.73,9.4,0.42c12.27-1.32,32.22-4.23,48.47-4.77c2.99-0.1,5.93-0.18,8.88,0.45" transform="matrix(1,0,0,1,296,-4)" class="stroke_order_diagram--existing_path"></path><path id="pathSk2v596cn3n9u" kvg:type="㇒" d="M39.97,35.16c0.14,1.09-0.11,1.92-0.68,2.87c-2.26,3.76-9.2,9.6-18.74,15.42" transform="matrix(1,0,0,1,296,-4)" class="stroke_order_diagram--existing_path"></path><path id="pathSk2v596cn3n9v" kvg:type="㇏" d="M28.31,40.04c4.23,0.99,9.85,5.98,11.5,9.43" transform="matrix(1,0,0,1,296,-4)" class="stroke_order_diagram--existing_path"></path><path id="kvg:0723d-s4" kvg:type="㇒" d="M37.48,54.91c0.13,1.03-0.11,1.97-0.7,2.81c-2.03,2.9-7.16,7.53-15.97,13.48" transform="matrix(1,0,0,1,296,-4)" class="stroke_order_diagram--current_path"></path><path id="pathSk2v596cn3n9x" kvg:type="㇒" d="M37.48,54.91c0.13,1.03-0.11,1.97-0.7,2.81c-2.03,2.9-7.16,7.53-15.97,13.48" transform="matrix(1,0,0,1,296,-4)" class="stroke_order_diagram--current_path"></path><circle cx="37.48" cy="54.91" r="8" class="stroke_order_diagram--path_start" transform="matrix(1,0,0,1,296,-4)"></circle><line x1="450" x2="450" y1="1" y2="99" class="stroke_order_diagram--guide_line"></line><line x1="499" x2="499" y1="1" y2="99" class="stroke_order_diagram--bounding_box"></line><path id="pathSk2v596cn3na0" kvg:type="㇐" d="M21,28.95c2.79,0.99,6.51,0.73,9.4,0.42c12.27-1.32,32.22-4.23,48.47-4.77c2.99-0.1,5.93-0.18,8.88,0.45" transform="matrix(1,0,0,1,396,-4)" class="stroke_order_diagram--existing_path"></path><path id="pathSk2v596cn3na1" kvg:type="㇒" d="M39.97,35.16c0.14,1.09-0.11,1.92-0.68,2.87c-2.26,3.76-9.2,9.6-18.74,15.42" transform="matrix(1,0,0,1,396,-4)" class="stroke_order_diagram--existing_path"></path><path id="pathSk2v596cn3na2" kvg:type="㇏" d="M28.31,40.04c4.23,0.99,9.85,5.98,11.5,9.43" transform="matrix(1,0,0,1,396,-4)" class="stroke_order_diagram--existing_path"></path><path id="pathSk2v596cn3na3" kvg:type="㇒" d="M37.48,54.91c0.13,1.03-0.11,1.97-0.7,2.81c-2.03,2.9-7.16,7.53-15.97,13.48" transform="matrix(1,0,0,1,396,-4)" class="stroke_order_diagram--existing_path"></path><path id="kvg:0723d-s5" kvg:type="㇏" d="M24.35,58.66C29,60.5,36,65.75,38.44,69.18" transform="matrix(1,0,0,1,396,-4)" class="stroke_order_diagram--current_path"></path><path id="pathSk2v596cn3na5" kvg:type="㇏" d="M24.35,58.66C29,60.5,36,65.75,38.44,69.18" transform="matrix(1,0,0,1,396,-4)" class="stroke_order_diagram--current_path"></path><circle cx="24.35" cy="58.66" r="8" class="stroke_order_diagram--path_start" transform="matrix(1,0,0,1,396,-4)"></circle><line x1="550" x2="550" y1="1" y2="99" class="stroke_order_diagram--guide_line"></line><line x1="599" x2="599" y1="1" y2="99" class="stroke_order_diagram--bounding_box"></line><path id="pathSk2v596cn3na8" kvg:type="㇐" d="M21,28.95c2.79,0.99,6.51,0.73,9.4,0.42c12.27-1.32,32.22-4.23,48.47-4.77c2.99-0.1,5.93-0.18,8.88,0.45" transform="matrix(1,0,0,1,496,-4)" class="stroke_order_diagram--existing_path"></path><path id="pathSk2v596cn3na9" kvg:type="㇒" d="M39.97,35.16c0.14,1.09-0.11,1.92-0.68,2.87c-2.26,3.76-9.2,9.6-18.74,15.42" transform="matrix(1,0,0,1,496,-4)" class="stroke_order_diagram--existing_path"></path><path id="pathSk2v596cn3naa" kvg:type="㇏" d="M28.31,40.04c4.23,0.99,9.85,5.98,11.5,9.43" transform="matrix(1,0,0,1,496,-4)" class="stroke_order_diagram--existing_path"></path><path id="pathSk2v596cn3nab" kvg:type="㇒" d="M37.48,54.91c0.13,1.03-0.11,1.97-0.7,2.81c-2.03,2.9-7.16,7.53-15.97,13.48" transform="matrix(1,0,0,1,496,-4)" class="stroke_order_diagram--existing_path"></path><path id="pathSk2v596cn3nac" kvg:type="㇏" d="M24.35,58.66C29,60.5,36,65.75,38.44,69.18" transform="matrix(1,0,0,1,496,-4)" class="stroke_order_diagram--existing_path"></path><path id="kvg:0723d-s6" kvg:type="㇒" d="M75.98,32.66c0.13,0.99-0.28,1.91-0.73,2.78c-2.38,3.69-7.39,10.1-15.44,15.77" transform="matrix(1,0,0,1,496,-4)" class="stroke_order_diagram--current_path"></path><path id="pathSk2v596cn3nae" kvg:type="㇒" d="M75.98,32.66c0.13,0.99-0.28,1.91-0.73,2.78c-2.38,3.69-7.39,10.1-15.44,15.77" transform="matrix(1,0,0,1,496,-4)" class="stroke_order_diagram--current_path"></path><circle cx="75.98" cy="32.66" r="8" class="stroke_order_diagram--path_start" transform="matrix(1,0,0,1,496,-4)"></circle><line x1="650" x2="650" y1="1" y2="99" class="stroke_order_diagram--guide_line"></line><line x1="699" x2="699" y1="1" y2="99" class="stroke_order_diagram--bounding_box"></line><path id="pathSk2v596cn3nah" kvg:type="㇐" d="M21,28.95c2.79,0.99,6.51,0.73,9.4,0.42c12.27-1.32,32.22-4.23,48.47-4.77c2.99-0.1,5.93-0.18,8.88,0.45" transform="matrix(1,0,0,1,596,-4)" class="stroke_order_diagram--existing_path"></path><path id="pathSk2v596cn3nai" kvg:type="㇒" d="M39.97,35.16c0.14,1.09-0.11,1.92-0.68,2.87c-2.26,3.76-9.2,9.6-18.74,15.42" transform="matrix(1,0,0,1,596,-4)" class="stroke_order_diagram--existing_path"></path><path id="pathSk2v596cn3naj" kvg:type="㇏" d="M28.31,40.04c4.23,0.99,9.85,5.98,11.5,9.43" transform="matrix(1,0,0,1,596,-4)" class="stroke_order_diagram--existing_path"></path><path id="pathSk2v596cn3nak" kvg:type="㇒" d="M37.48,54.91c0.13,1.03-0.11,1.97-0.7,2.81c-2.03,2.9-7.16,7.53-15.97,13.48" transform="matrix(1,0,0,1,596,-4)" class="stroke_order_diagram--existing_path"></path><path id="pathSk2v596cn3nal" kvg:type="㇏" d="M24.35,58.66C29,60.5,36,65.75,38.44,69.18" transform="matrix(1,0,0,1,596,-4)" class="stroke_order_diagram--existing_path"></path><path id="pathSk2v596cn3nam" kvg:type="㇒" d="M75.98,32.66c0.13,0.99-0.28,1.91-0.73,2.78c-2.38,3.69-7.39,10.1-15.44,15.77" transform="matrix(1,0,0,1,596,-4)" class="stroke_order_diagram--existing_path"></path><path id="kvg:0723d-s7" kvg:type="㇏" d="M64.1,37.11c5.4,2.39,10.9,6.14,14.09,10.06" transform="matrix(1,0,0,1,596,-4)" class="stroke_order_diagram--current_path"></path><path id="pathSk2v596cn3nao" kvg:type="㇏" d="M64.1,37.11c5.4,2.39,10.9,6.14,14.09,10.06" transform="matrix(1,0,0,1,596,-4)" class="stroke_order_diagram--current_path"></path><circle cx="64.1" cy="37.11" r="8" class="stroke_order_diagram--path_start" transform="matrix(1,0,0,1,596,-4)"></circle><line x1="750" x2="750" y1="1" y2="99" class="stroke_order_diagram--guide_line"></line><line x1="799" x2="799" y1="1" y2="99" class="stroke_order_diagram--bounding_box"></line><path id="pathSk2v596cn3nar" kvg:type="㇐" d="M21,28.95c2.79,0.99,6.51,0.73,9.4,0.42c12.27-1.32,32.22-4.23,48.47-4.77c2.99-0.1,5.93-0.18,8.88,0.45" transform="matrix(1,0,0,1,696,-4)" class="stroke_order_diagram--existing_path"></path><path id="pathSk2v596cn3nas" kvg:type="㇒" d="M39.97,35.16c0.14,1.09-0.11,1.92-0.68,2.87c-2.26,3.76-9.2,9.6-18.74,15.42" transform="matrix(1,0,0,1,696,-4)" class="stroke_order_diagram--existing_path"></path><path id="pathSk2v596cn3nat" kvg:type="㇏" d="M28.31,40.04c4.23,0.99,9.85,5.98,11.5,9.43" transform="matrix(1,0,0,1,696,-4)" class="stroke_order_diagram--existing_path"></path><path id="pathSk2v596cn3nau" kvg:type="㇒" d="M37.48,54.91c0.13,1.03-0.11,1.97-0.7,2.81c-2.03,2.9-7.16,7.53-15.97,13.48" transform="matrix(1,0,0,1,696,-4)" class="stroke_order_diagram--existing_path"></path><path id="pathSk2v596cn3nav" kvg:type="㇏" d="M24.35,58.66C29,60.5,36,65.75,38.44,69.18" transform="matrix(1,0,0,1,696,-4)" class="stroke_order_diagram--existing_path"></path><path id="pathSk2v596cn3naw" kvg:type="㇒" d="M75.98,32.66c0.13,0.99-0.28,1.91-0.73,2.78c-2.38,3.69-7.39,10.1-15.44,15.77" transform="matrix(1,0,0,1,696,-4)" class="stroke_order_diagram--existing_path"></path><path id="pathSk2v596cn3nax" kvg:type="㇏" d="M64.1,37.11c5.4,2.39,10.9,6.14,14.09,10.06" transform="matrix(1,0,0,1,696,-4)" class="stroke_order_diagram--existing_path"></path><path id="kvg:0723d-s8" kvg:type="㇒" d="M77.24,52.66c0.1,0.82-0.29,1.59-0.71,2.29c-1.79,3.05-5.69,7.22-12.48,12" transform="matrix(1,0,0,1,696,-4)" class="stroke_order_diagram--current_path"></path><path id="pathSk2v596cn3naz" kvg:type="㇒" d="M77.24,52.66c0.1,0.82-0.29,1.59-0.71,2.29c-1.79,3.05-5.69,7.22-12.48,12" transform="matrix(1,0,0,1,696,-4)" class="stroke_order_diagram--current_path"></path><circle cx="77.24" cy="52.66" r="8" class="stroke_order_diagram--path_start" transform="matrix(1,0,0,1,696,-4)"></circle><line x1="850" x2="850" y1="1" y2="99" class="stroke_order_diagram--guide_line"></line><line x1="899" x2="899" y1="1" y2="99" class="stroke_order_diagram--bounding_box"></line><path id="pathSk2v596cn3nb2" kvg:type="㇐" d="M21,28.95c2.79,0.99,6.51,0.73,9.4,0.42c12.27-1.32,32.22-4.23,48.47-4.77c2.99-0.1,5.93-0.18,8.88,0.45" transform="matrix(1,0,0,1,796,-4)" class="stroke_order_diagram--existing_path"></path><path id="pathSk2v596cn3nb3" kvg:type="㇒" d="M39.97,35.16c0.14,1.09-0.11,1.92-0.68,2.87c-2.26,3.76-9.2,9.6-18.74,15.42" transform="matrix(1,0,0,1,796,-4)" class="stroke_order_diagram--existing_path"></path><path id="pathSk2v596cn3nb4" kvg:type="㇏" d="M28.31,40.04c4.23,0.99,9.85,5.98,11.5,9.43" transform="matrix(1,0,0,1,796,-4)" class="stroke_order_diagram--existing_path"></path><path id="pathSk2v596cn3nb5" kvg:type="㇒" d="M37.48,54.91c0.13,1.03-0.11,1.97-0.7,2.81c-2.03,2.9-7.16,7.53-15.97,13.48" transform="matrix(1,0,0,1,796,-4)" class="stroke_order_diagram--existing_path"></path><path id="pathSk2v596cn3nb6" kvg:type="㇏" d="M24.35,58.66C29,60.5,36,65.75,38.44,69.18" transform="matrix(1,0,0,1,796,-4)" class="stroke_order_diagram--existing_path"></path><path id="pathSk2v596cn3nb7" kvg:type="㇒" d="M75.98,32.66c0.13,0.99-0.28,1.91-0.73,2.78c-2.38,3.69-7.39,10.1-15.44,15.77" transform="matrix(1,0,0,1,796,-4)" class="stroke_order_diagram--existing_path"></path><path id="pathSk2v596cn3nb8" kvg:type="㇏" d="M64.1,37.11c5.4,2.39,10.9,6.14,14.09,10.06" transform="matrix(1,0,0,1,796,-4)" class="stroke_order_diagram--existing_path"></path><path id="pathSk2v596cn3nb9" kvg:type="㇒" d="M77.24,52.66c0.1,0.82-0.29,1.59-0.71,2.29c-1.79,3.05-5.69,7.22-12.48,12" transform="matrix(1,0,0,1,796,-4)" class="stroke_order_diagram--existing_path"></path><path id="kvg:0723d-s9" kvg:type="㇏" d="M64.31,56.79c4.94,2.46,11.69,7.21,15,11.93" transform="matrix(1,0,0,1,796,-4)" class="stroke_order_diagram--current_path"></path><path id="pathSk2v596cn3nbb" kvg:type="㇏" d="M64.31,56.79c4.94,2.46,11.69,7.21,15,11.93" transform="matrix(1,0,0,1,796,-4)" class="stroke_order_diagram--current_path"></path><circle cx="64.31" cy="56.79" r="8" class="stroke_order_diagram--path_start" transform="matrix(1,0,0,1,796,-4)"></circle><line x1="950" x2="950" y1="1" y2="99" class="stroke_order_diagram--guide_line"></line><line x1="999" x2="999" y1="1" y2="99" class="stroke_order_diagram--bounding_box"></line><path id="pathSk2v596cn3nbe" kvg:type="㇐" d="M21,28.95c2.79,0.99,6.51,0.73,9.4,0.42c12.27-1.32,32.22-4.23,48.47-4.77c2.99-0.1,5.93-0.18,8.88,0.45" transform="matrix(1,0,0,1,896,-4)" class="stroke_order_diagram--existing_path"></path><path id="pathSk2v596cn3nbf" kvg:type="㇒" d="M39.97,35.16c0.14,1.09-0.11,1.92-0.68,2.87c-2.26,3.76-9.2,9.6-18.74,15.42" transform="matrix(1,0,0,1,896,-4)" class="stroke_order_diagram--existing_path"></path><path id="pathSk2v596cn3nbg" kvg:type="㇏" d="M28.31,40.04c4.23,0.99,9.85,5.98,11.5,9.43" transform="matrix(1,0,0,1,896,-4)" class="stroke_order_diagram--existing_path"></path><path id="pathSk2v596cn3nbh" kvg:type="㇒" d="M37.48,54.91c0.13,1.03-0.11,1.97-0.7,2.81c-2.03,2.9-7.16,7.53-15.97,13.48" transform="matrix(1,0,0,1,896,-4)" class="stroke_order_diagram--existing_path"></path><path id="pathSk2v596cn3nbi" kvg:type="㇏" d="M24.35,58.66C29,60.5,36,65.75,38.44,69.18" transform="matrix(1,0,0,1,896,-4)" class="stroke_order_diagram--existing_path"></path><path id="pathSk2v596cn3nbj" kvg:type="㇒" d="M75.98,32.66c0.13,0.99-0.28,1.91-0.73,2.78c-2.38,3.69-7.39,10.1-15.44,15.77" transform="matrix(1,0,0,1,896,-4)" class="stroke_order_diagram--existing_path"></path><path id="pathSk2v596cn3nbk" kvg:type="㇏" d="M64.1,37.11c5.4,2.39,10.9,6.14,14.09,10.06" transform="matrix(1,0,0,1,896,-4)" class="stroke_order_diagram--existing_path"></path><path id="pathSk2v596cn3nbl" kvg:type="㇒" d="M77.24,52.66c0.1,0.82-0.29,1.59-0.71,2.29c-1.79,3.05-5.69,7.22-12.48,12" transform="matrix(1,0,0,1,896,-4)" class="stroke_order_diagram--existing_path"></path><path id="pathSk2v596cn3nbm" kvg:type="㇏" d="M64.31,56.79c4.94,2.46,11.69,7.21,15,11.93" transform="matrix(1,0,0,1,896,-4)" class="stroke_order_diagram--existing_path"></path><path id="kvg:0723d-s10" kvg:type="㇒" d="M51.66,12c1.09,1.5,1.38,2.87,1.38,5.74c0,34.2,4.59,59.88-35.48,79.48" transform="matrix(1,0,0,1,896,-4)" class="stroke_order_diagram--current_path"></path><path id="pathSk2v596cn3nbo" kvg:type="㇒" d="M51.66,12c1.09,1.5,1.38,2.87,1.38,5.74c0,34.2,4.59,59.88-35.48,79.48" transform="matrix(1,0,0,1,896,-4)" class="stroke_order_diagram--current_path"></path><circle cx="51.66" cy="12" r="8" class="stroke_order_diagram--path_start" transform="matrix(1,0,0,1,896,-4)"></circle><line x1="1050" x2="1050" y1="1" y2="99" class="stroke_order_diagram--guide_line"></line><line x1="1099" x2="1099" y1="1" y2="99" class="stroke_order_diagram--bounding_box"></line><path id="pathSk2v596cn3nbr" kvg:type="㇐" d="M21,28.95c2.79,0.99,6.51,0.73,9.4,0.42c12.27-1.32,32.22-4.23,48.47-4.77c2.99-0.1,5.93-0.18,8.88,0.45" transform="matrix(1,0,0,1,996,-4)" class="stroke_order_diagram--existing_path"></path><path id="pathSk2v596cn3nbs" kvg:type="㇒" d="M39.97,35.16c0.14,1.09-0.11,1.92-0.68,2.87c-2.26,3.76-9.2,9.6-18.74,15.42" transform="matrix(1,0,0,1,996,-4)" class="stroke_order_diagram--existing_path"></path><path id="pathSk2v596cn3nbt" kvg:type="㇏" d="M28.31,40.04c4.23,0.99,9.85,5.98,11.5,9.43" transform="matrix(1,0,0,1,996,-4)" class="stroke_order_diagram--existing_path"></path><path id="pathSk2v596cn3nbu" kvg:type="㇒" d="M37.48,54.91c0.13,1.03-0.11,1.97-0.7,2.81c-2.03,2.9-7.16,7.53-15.97,13.48" transform="matrix(1,0,0,1,996,-4)" class="stroke_order_diagram--existing_path"></path><path id="pathSk2v596cn3nbv" kvg:type="㇏" d="M24.35,58.66C29,60.5,36,65.75,38.44,69.18" transform="matrix(1,0,0,1,996,-4)" class="stroke_order_diagram--existing_path"></path><path id="pathSk2v596cn3nbw" kvg:type="㇒" d="M75.98,32.66c0.13,0.99-0.28,1.91-0.73,2.78c-2.38,3.69-7.39,10.1-15.44,15.77" transform="matrix(1,0,0,1,996,-4)" class="stroke_order_diagram--existing_path"></path><path id="pathSk2v596cn3nbx" kvg:type="㇏" d="M64.1,37.11c5.4,2.39,10.9,6.14,14.09,10.06" transform="matrix(1,0,0,1,996,-4)" class="stroke_order_diagram--existing_path"></path><path id="pathSk2v596cn3nby" kvg:type="㇒" d="M77.24,52.66c0.1,0.82-0.29,1.59-0.71,2.29c-1.79,3.05-5.69,7.22-12.48,12" transform="matrix(1,0,0,1,996,-4)" class="stroke_order_diagram--existing_path"></path><path id="pathSk2v596cn3nbz" kvg:type="㇏" d="M64.31,56.79c4.94,2.46,11.69,7.21,15,11.93" transform="matrix(1,0,0,1,996,-4)" class="stroke_order_diagram--existing_path"></path><path id="pathSk2v596cn3nc0" kvg:type="㇒" d="M51.66,12c1.09,1.5,1.38,2.87,1.38,5.74c0,34.2,4.59,59.88-35.48,79.48" transform="matrix(1,0,0,1,996,-4)" class="stroke_order_diagram--existing_path"></path><path id="kvg:0723d-s11" kvg:type="㇏" d="M51.25,65C59.12,70.88,71,81.75,81.88,90c3.31,2.51,5.87,3.75,9.62,5.5" transform="matrix(1,0,0,1,996,-4)" class="stroke_order_diagram--current_path"></path><path id="pathSk2v596cn3nc2" kvg:type="㇏" d="M51.25,65C59.12,70.88,71,81.75,81.88,90c3.31,2.51,5.87,3.75,9.62,5.5" transform="matrix(1,0,0,1,996,-4)" class="stroke_order_diagram--current_path"></path><circle cx="51.25" cy="65" r="8" class="stroke_order_diagram--path_start" transform="matrix(1,0,0,1,996,-4)"></circle></svg>