<svg style="width: 800px; height: 100px;" viewbox="0 0 800 100"><style>
.stroke_order_diagram--outer_container {
  width: 100%;
  overflow-x: auto;
  overflow-y: hidden;
}

.stroke_order_diagram--guide_line {
  fill: none;
  stroke: #ddd;
  stroke-width: 3;
  stroke-linecap: square;
  stroke-linejoin: square;
  stroke-dasharray:8, 8;
}

.stroke_order_diagram--bounding_box {
  fill: none;
  stroke: #ddd;
  stroke-width: 4;
  stroke-linecap: square;
  stroke-linejoin: square;
}

.stroke_order_diagram--current_path {
  fill: none;
  stroke: #000;
  stroke-width: 6;
  stroke-linecap: round;
  stroke-linejoin: round;
}

.stroke_order_diagram--existing_path {
  fill: none;
  stroke: #aaa;
  stroke-width: 6;
  stroke-linecap: round;
  stroke-linejoin:round;
}

.stroke_order_diagram--path_start {
  fill: rgba(255, 0, 0, 0.7);
  stroke:none
}</style><desc>Created with Snap</desc><defs></defs><line x1="1" x2="799" y1="1" y2="1" class="stroke_order_diagram--bounding_box"></line><line x1="1" x2="1" y1="1" y2="99" class="stroke_order_diagram--bounding_box"></line><line x1="1" x2="799" y1="99" y2="99" class="stroke_order_diagram--bounding_box"></line><line x1="0" x2="800" y1="50" y2="50" class="stroke_order_diagram--guide_line"></line><line x1="50" x2="50" y1="1" y2="99" class="stroke_order_diagram--guide_line"></line><line x1="99" x2="99" y1="1" y2="99" class="stroke_order_diagram--bounding_box"></line><path id="kvg:07248-s1" kvg:type="㇒" d="M16.82,22.54c0.68,1.21,1.11,2.85,1.12,4.25c0.3,29.46-0.57,46.21-7.35,62.17" transform="matrix(1,0,0,1,-4,-4)" class="stroke_order_diagram--current_path"></path><path id="pathSk2v596cn23ay" kvg:type="㇒" d="M16.82,22.54c0.68,1.21,1.11,2.85,1.12,4.25c0.3,29.46-0.57,46.21-7.35,62.17" transform="matrix(1,0,0,1,-4,-4)" class="stroke_order_diagram--current_path"></path><circle cx="16.82" cy="22.54" r="8" class="stroke_order_diagram--path_start" transform="matrix(1,0,0,1,-4,-4)"></circle><line x1="150" x2="150" y1="1" y2="99" class="stroke_order_diagram--guide_line"></line><line x1="199" x2="199" y1="1" y2="99" class="stroke_order_diagram--bounding_box"></line><path id="pathSk2v596cn23b1" kvg:type="㇒" d="M16.82,22.54c0.68,1.21,1.11,2.85,1.12,4.25c0.3,29.46-0.57,46.21-7.35,62.17" transform="matrix(1,0,0,1,96,-4)" class="stroke_order_diagram--existing_path"></path><path id="kvg:07248-s2" kvg:type="㇑a" d="M30.61,17.75c0.88,0.88,1.36,2.47,1.34,3.55c-0.05,3.41-0.05,15.36-0.05,18.46" transform="matrix(1,0,0,1,96,-4)" class="stroke_order_diagram--current_path"></path><path id="pathSk2v596cn23b3" kvg:type="㇑a" d="M30.61,17.75c0.88,0.88,1.36,2.47,1.34,3.55c-0.05,3.41-0.05,15.36-0.05,18.46" transform="matrix(1,0,0,1,96,-4)" class="stroke_order_diagram--current_path"></path><circle cx="30.61" cy="17.75" r="8" class="stroke_order_diagram--path_start" transform="matrix(1,0,0,1,96,-4)"></circle><line x1="250" x2="250" y1="1" y2="99" class="stroke_order_diagram--guide_line"></line><line x1="299" x2="299" y1="1" y2="99" class="stroke_order_diagram--bounding_box"></line><path id="pathSk2v596cn23b6" kvg:type="㇒" d="M16.82,22.54c0.68,1.21,1.11,2.85,1.12,4.25c0.3,29.46-0.57,46.21-7.35,62.17" transform="matrix(1,0,0,1,196,-4)" class="stroke_order_diagram--existing_path"></path><path id="pathSk2v596cn23b7" kvg:type="㇑a" d="M30.61,17.75c0.88,0.88,1.36,2.47,1.34,3.55c-0.05,3.41-0.05,15.36-0.05,18.46" transform="matrix(1,0,0,1,196,-4)" class="stroke_order_diagram--existing_path"></path><path id="kvg:07248-s3" kvg:type="㇐b" d="M18.53,43.7c4.05-0.61,12.43-2.22,18.1-3.28c1.21-0.23,2.79-0.43,4.02-0.43" transform="matrix(1,0,0,1,196,-4)" class="stroke_order_diagram--current_path"></path><path id="pathSk2v596cn23b9" kvg:type="㇐b" d="M18.53,43.7c4.05-0.61,12.43-2.22,18.1-3.28c1.21-0.23,2.79-0.43,4.02-0.43" transform="matrix(1,0,0,1,196,-4)" class="stroke_order_diagram--current_path"></path><circle cx="18.53" cy="43.7" r="8" class="stroke_order_diagram--path_start" transform="matrix(1,0,0,1,196,-4)"></circle><line x1="350" x2="350" y1="1" y2="99" class="stroke_order_diagram--guide_line"></line><line x1="399" x2="399" y1="1" y2="99" class="stroke_order_diagram--bounding_box"></line><path id="pathSk2v596cn23bc" kvg:type="㇒" d="M16.82,22.54c0.68,1.21,1.11,2.85,1.12,4.25c0.3,29.46-0.57,46.21-7.35,62.17" transform="matrix(1,0,0,1,296,-4)" class="stroke_order_diagram--existing_path"></path><path id="pathSk2v596cn23bd" kvg:type="㇑a" d="M30.61,17.75c0.88,0.88,1.36,2.47,1.34,3.55c-0.05,3.41-0.05,15.36-0.05,18.46" transform="matrix(1,0,0,1,296,-4)" class="stroke_order_diagram--existing_path"></path><path id="pathSk2v596cn23be" kvg:type="㇐b" d="M18.53,43.7c4.05-0.61,12.43-2.22,18.1-3.28c1.21-0.23,2.79-0.43,4.02-0.43" transform="matrix(1,0,0,1,296,-4)" class="stroke_order_diagram--existing_path"></path><path id="kvg:07248-s4" kvg:type="㇕" d="M18.96,60.41c0.19-0.02,1.66-0.15,2.35-0.33c5.01-1.33,8.69-2.09,11.95-2.9c1.74-0.43,2.77,0.66,2.77,2.82c0,0.95,0.13,15.49,0.06,24.5c-0.03,4.17-0.06,7.26-0.06,7.48" transform="matrix(1,0,0,1,296,-4)" class="stroke_order_diagram--current_path"></path><path id="pathSk2v596cn23bg" kvg:type="㇕" d="M18.96,60.41c0.19-0.02,1.66-0.15,2.35-0.33c5.01-1.33,8.69-2.09,11.95-2.9c1.74-0.43,2.77,0.66,2.77,2.82c0,0.95,0.13,15.49,0.06,24.5c-0.03,4.17-0.06,7.26-0.06,7.48" transform="matrix(1,0,0,1,296,-4)" class="stroke_order_diagram--current_path"></path><circle cx="18.96" cy="60.41" r="8" class="stroke_order_diagram--path_start" transform="matrix(1,0,0,1,296,-4)"></circle><line x1="450" x2="450" y1="1" y2="99" class="stroke_order_diagram--guide_line"></line><line x1="499" x2="499" y1="1" y2="99" class="stroke_order_diagram--bounding_box"></line><path id="pathSk2v596cn23bj" kvg:type="㇒" d="M16.82,22.54c0.68,1.21,1.11,2.85,1.12,4.25c0.3,29.46-0.57,46.21-7.35,62.17" transform="matrix(1,0,0,1,396,-4)" class="stroke_order_diagram--existing_path"></path><path id="pathSk2v596cn23bk" kvg:type="㇑a" d="M30.61,17.75c0.88,0.88,1.36,2.47,1.34,3.55c-0.05,3.41-0.05,15.36-0.05,18.46" transform="matrix(1,0,0,1,396,-4)" class="stroke_order_diagram--existing_path"></path><path id="pathSk2v596cn23bl" kvg:type="㇐b" d="M18.53,43.7c4.05-0.61,12.43-2.22,18.1-3.28c1.21-0.23,2.79-0.43,4.02-0.43" transform="matrix(1,0,0,1,396,-4)" class="stroke_order_diagram--existing_path"></path><path id="pathSk2v596cn23bm" kvg:type="㇕" d="M18.96,60.41c0.19-0.02,1.66-0.15,2.35-0.33c5.01-1.33,8.69-2.09,11.95-2.9c1.74-0.43,2.77,0.66,2.77,2.82c0,0.95,0.13,15.49,0.06,24.5c-0.03,4.17-0.06,7.26-0.06,7.48" transform="matrix(1,0,0,1,396,-4)" class="stroke_order_diagram--existing_path"></path><path id="kvg:07248-s5" kvg:type="㇐" d="M50.31,25.04c2.32,0.46,5.2,0.13,7.42-0.28c8.8-1.64,18.5-3.75,26.38-4.75c2.09-0.27,3.75-0.3,5.76,0.28" transform="matrix(1,0,0,1,396,-4)" class="stroke_order_diagram--current_path"></path><path id="pathSk2v596cn23bo" kvg:type="㇐" d="M50.31,25.04c2.32,0.46,5.2,0.13,7.42-0.28c8.8-1.64,18.5-3.75,26.38-4.75c2.09-0.27,3.75-0.3,5.76,0.28" transform="matrix(1,0,0,1,396,-4)" class="stroke_order_diagram--current_path"></path><circle cx="50.31" cy="25.04" r="8" class="stroke_order_diagram--path_start" transform="matrix(1,0,0,1,396,-4)"></circle><line x1="550" x2="550" y1="1" y2="99" class="stroke_order_diagram--guide_line"></line><line x1="599" x2="599" y1="1" y2="99" class="stroke_order_diagram--bounding_box"></line><path id="pathSk2v596cn23br" kvg:type="㇒" d="M16.82,22.54c0.68,1.21,1.11,2.85,1.12,4.25c0.3,29.46-0.57,46.21-7.35,62.17" transform="matrix(1,0,0,1,496,-4)" class="stroke_order_diagram--existing_path"></path><path id="pathSk2v596cn23bs" kvg:type="㇑a" d="M30.61,17.75c0.88,0.88,1.36,2.47,1.34,3.55c-0.05,3.41-0.05,15.36-0.05,18.46" transform="matrix(1,0,0,1,496,-4)" class="stroke_order_diagram--existing_path"></path><path id="pathSk2v596cn23bt" kvg:type="㇐b" d="M18.53,43.7c4.05-0.61,12.43-2.22,18.1-3.28c1.21-0.23,2.79-0.43,4.02-0.43" transform="matrix(1,0,0,1,496,-4)" class="stroke_order_diagram--existing_path"></path><path id="pathSk2v596cn23bu" kvg:type="㇕" d="M18.96,60.41c0.19-0.02,1.66-0.15,2.35-0.33c5.01-1.33,8.69-2.09,11.95-2.9c1.74-0.43,2.77,0.66,2.77,2.82c0,0.95,0.13,15.49,0.06,24.5c-0.03,4.17-0.06,7.26-0.06,7.48" transform="matrix(1,0,0,1,496,-4)" class="stroke_order_diagram--existing_path"></path><path id="pathSk2v596cn23bv" kvg:type="㇐" d="M50.31,25.04c2.32,0.46,5.2,0.13,7.42-0.28c8.8-1.64,18.5-3.75,26.38-4.75c2.09-0.27,3.75-0.3,5.76,0.28" transform="matrix(1,0,0,1,496,-4)" class="stroke_order_diagram--existing_path"></path><path id="kvg:07248-s6" kvg:type="㇒" d="M53.29,25.68c0.7,0.7,1.22,2.07,1.18,3.34c-0.6,20.48-2.6,43.23-12.75,58.69" transform="matrix(1,0,0,1,496,-4)" class="stroke_order_diagram--current_path"></path><path id="pathSk2v596cn23bx" kvg:type="㇒" d="M53.29,25.68c0.7,0.7,1.22,2.07,1.18,3.34c-0.6,20.48-2.6,43.23-12.75,58.69" transform="matrix(1,0,0,1,496,-4)" class="stroke_order_diagram--current_path"></path><circle cx="53.29" cy="25.68" r="8" class="stroke_order_diagram--path_start" transform="matrix(1,0,0,1,496,-4)"></circle><line x1="650" x2="650" y1="1" y2="99" class="stroke_order_diagram--guide_line"></line><line x1="699" x2="699" y1="1" y2="99" class="stroke_order_diagram--bounding_box"></line><path id="pathSk2v596cn23c0" kvg:type="㇒" d="M16.82,22.54c0.68,1.21,1.11,2.85,1.12,4.25c0.3,29.46-0.57,46.21-7.35,62.17" transform="matrix(1,0,0,1,596,-4)" class="stroke_order_diagram--existing_path"></path><path id="pathSk2v596cn23c1" kvg:type="㇑a" d="M30.61,17.75c0.88,0.88,1.36,2.47,1.34,3.55c-0.05,3.41-0.05,15.36-0.05,18.46" transform="matrix(1,0,0,1,596,-4)" class="stroke_order_diagram--existing_path"></path><path id="pathSk2v596cn23c2" kvg:type="㇐b" d="M18.53,43.7c4.05-0.61,12.43-2.22,18.1-3.28c1.21-0.23,2.79-0.43,4.02-0.43" transform="matrix(1,0,0,1,596,-4)" class="stroke_order_diagram--existing_path"></path><path id="pathSk2v596cn23c3" kvg:type="㇕" d="M18.96,60.41c0.19-0.02,1.66-0.15,2.35-0.33c5.01-1.33,8.69-2.09,11.95-2.9c1.74-0.43,2.77,0.66,2.77,2.82c0,0.95,0.13,15.49,0.06,24.5c-0.03,4.17-0.06,7.26-0.06,7.48" transform="matrix(1,0,0,1,596,-4)" class="stroke_order_diagram--existing_path"></path><path id="pathSk2v596cn23c4" kvg:type="㇐" d="M50.31,25.04c2.32,0.46,5.2,0.13,7.42-0.28c8.8-1.64,18.5-3.75,26.38-4.75c2.09-0.27,3.75-0.3,5.76,0.28" transform="matrix(1,0,0,1,596,-4)" class="stroke_order_diagram--existing_path"></path><path id="pathSk2v596cn23c5" kvg:type="㇒" d="M53.29,25.68c0.7,0.7,1.22,2.07,1.18,3.34c-0.6,20.48-2.6,43.23-12.75,58.69" transform="matrix(1,0,0,1,596,-4)" class="stroke_order_diagram--existing_path"></path><path id="kvg:07248-s7" kvg:type="㇇" d="M57.2,44.69c1.3,0.35,3.46,0.38,6.05-0.15c2.59-0.53,16.31-4.56,18.08-5.11c3.04-0.94,4.17,0.9,3.18,4.11C78,64.62,70.12,80.5,48.85,92.26" transform="matrix(1,0,0,1,596,-4)" class="stroke_order_diagram--current_path"></path><path id="pathSk2v596cn23c7" kvg:type="㇇" d="M57.2,44.69c1.3,0.35,3.46,0.38,6.05-0.15c2.59-0.53,16.31-4.56,18.08-5.11c3.04-0.94,4.17,0.9,3.18,4.11C78,64.62,70.12,80.5,48.85,92.26" transform="matrix(1,0,0,1,596,-4)" class="stroke_order_diagram--current_path"></path><circle cx="57.2" cy="44.69" r="8" class="stroke_order_diagram--path_start" transform="matrix(1,0,0,1,596,-4)"></circle><line x1="750" x2="750" y1="1" y2="99" class="stroke_order_diagram--guide_line"></line><line x1="799" x2="799" y1="1" y2="99" class="stroke_order_diagram--bounding_box"></line><path id="pathSk2v596cn23ca" kvg:type="㇒" d="M16.82,22.54c0.68,1.21,1.11,2.85,1.12,4.25c0.3,29.46-0.57,46.21-7.35,62.17" transform="matrix(1,0,0,1,696,-4)" class="stroke_order_diagram--existing_path"></path><path id="pathSk2v596cn23cb" kvg:type="㇑a" d="M30.61,17.75c0.88,0.88,1.36,2.47,1.34,3.55c-0.05,3.41-0.05,15.36-0.05,18.46" transform="matrix(1,0,0,1,696,-4)" class="stroke_order_diagram--existing_path"></path><path id="pathSk2v596cn23cc" kvg:type="㇐b" d="M18.53,43.7c4.05-0.61,12.43-2.22,18.1-3.28c1.21-0.23,2.79-0.43,4.02-0.43" transform="matrix(1,0,0,1,696,-4)" class="stroke_order_diagram--existing_path"></path><path id="pathSk2v596cn23cd" kvg:type="㇕" d="M18.96,60.41c0.19-0.02,1.66-0.15,2.35-0.33c5.01-1.33,8.69-2.09,11.95-2.9c1.74-0.43,2.77,0.66,2.77,2.82c0,0.95,0.13,15.49,0.06,24.5c-0.03,4.17-0.06,7.26-0.06,7.48" transform="matrix(1,0,0,1,696,-4)" class="stroke_order_diagram--existing_path"></path><path id="pathSk2v596cn23ce" kvg:type="㇐" d="M50.31,25.04c2.32,0.46,5.2,0.13,7.42-0.28c8.8-1.64,18.5-3.75,26.38-4.75c2.09-0.27,3.75-0.3,5.76,0.28" transform="matrix(1,0,0,1,696,-4)" class="stroke_order_diagram--existing_path"></path><path id="pathSk2v596cn23cf" kvg:type="㇒" d="M53.29,25.68c0.7,0.7,1.22,2.07,1.18,3.34c-0.6,20.48-2.6,43.23-12.75,58.69" transform="matrix(1,0,0,1,696,-4)" class="stroke_order_diagram--existing_path"></path><path id="pathSk2v596cn23cg" kvg:type="㇇" d="M57.2,44.69c1.3,0.35,3.46,0.38,6.05-0.15c2.59-0.53,16.31-4.56,18.08-5.11c3.04-0.94,4.17,0.9,3.18,4.11C78,64.62,70.12,80.5,48.85,92.26" transform="matrix(1,0,0,1,696,-4)" class="stroke_order_diagram--existing_path"></path><path id="kvg:07248-s8" kvg:type="㇏" d="M58.74,53.63c2.99,0.8,16.66,20.17,27.53,30.59c2.08,2,4.1,4.03,6.81,5.61" transform="matrix(1,0,0,1,696,-4)" class="stroke_order_diagram--current_path"></path><path id="pathSk2v596cn23ci" kvg:type="㇏" d="M58.74,53.63c2.99,0.8,16.66,20.17,27.53,30.59c2.08,2,4.1,4.03,6.81,5.61" transform="matrix(1,0,0,1,696,-4)" class="stroke_order_diagram--current_path"></path><circle cx="58.74" cy="53.63" r="8" class="stroke_order_diagram--path_start" transform="matrix(1,0,0,1,696,-4)"></circle></svg>