<svg style="width: 700px; height: 100px;" viewbox="0 0 700 100"><style>
.stroke_order_diagram--outer_container {
  width: 100%;
  overflow-x: auto;
  overflow-y: hidden;
}

.stroke_order_diagram--guide_line {
  fill: none;
  stroke: #ddd;
  stroke-width: 3;
  stroke-linecap: square;
  stroke-linejoin: square;
  stroke-dasharray:8, 8;
}

.stroke_order_diagram--bounding_box {
  fill: none;
  stroke: #ddd;
  stroke-width: 4;
  stroke-linecap: square;
  stroke-linejoin: square;
}

.stroke_order_diagram--current_path {
  fill: none;
  stroke: #000;
  stroke-width: 6;
  stroke-linecap: round;
  stroke-linejoin: round;
}

.stroke_order_diagram--existing_path {
  fill: none;
  stroke: #aaa;
  stroke-width: 6;
  stroke-linecap: round;
  stroke-linejoin:round;
}

.stroke_order_diagram--path_start {
  fill: rgba(255, 0, 0, 0.7);
  stroke:none
}</style><desc>Created with Snap</desc><defs></defs><line x1="1" x2="699" y1="1" y2="1" class="stroke_order_diagram--bounding_box"></line><line x1="1" x2="1" y1="1" y2="99" class="stroke_order_diagram--bounding_box"></line><line x1="1" x2="699" y1="99" y2="99" class="stroke_order_diagram--bounding_box"></line><line x1="0" x2="700" y1="50" y2="50" class="stroke_order_diagram--guide_line"></line><line x1="50" x2="50" y1="1" y2="99" class="stroke_order_diagram--guide_line"></line><line x1="99" x2="99" y1="1" y2="99" class="stroke_order_diagram--bounding_box"></line><path id="kvg:072c2-s1" kvg:type="㇒" d="M38.8,18.25c0.14,1.17-0.69,2.17-1.32,3.04C31.89,28.93,26.36,34.56,12.75,43" transform="matrix(1,0,0,1,-4,-4)" class="stroke_order_diagram--current_path"></path><path id="pathSk2v596cn3eys" kvg:type="㇒" d="M38.8,18.25c0.14,1.17-0.69,2.17-1.32,3.04C31.89,28.93,26.36,34.56,12.75,43" transform="matrix(1,0,0,1,-4,-4)" class="stroke_order_diagram--current_path"></path><circle cx="38.8" cy="18.25" r="8" class="stroke_order_diagram--path_start" transform="matrix(1,0,0,1,-4,-4)"></circle><line x1="150" x2="150" y1="1" y2="99" class="stroke_order_diagram--guide_line"></line><line x1="199" x2="199" y1="1" y2="99" class="stroke_order_diagram--bounding_box"></line><path id="pathSk2v596cn3eyv" kvg:type="㇒" d="M38.8,18.25c0.14,1.17-0.69,2.17-1.32,3.04C31.89,28.93,26.36,34.56,12.75,43" transform="matrix(1,0,0,1,96,-4)" class="stroke_order_diagram--existing_path"></path><path id="kvg:072c2-s2" kvg:type="㇕va" d="M19,20c23.5,19.75,18.75,79,8,67" transform="matrix(1,0,0,1,96,-4)" class="stroke_order_diagram--current_path"></path><path id="pathSk2v596cn3eyx" kvg:type="㇕va" d="M19,20c23.5,19.75,18.75,79,8,67" transform="matrix(1,0,0,1,96,-4)" class="stroke_order_diagram--current_path"></path><circle cx="19" cy="20" r="8" class="stroke_order_diagram--path_start" transform="matrix(1,0,0,1,96,-4)"></circle><line x1="250" x2="250" y1="1" y2="99" class="stroke_order_diagram--guide_line"></line><line x1="299" x2="299" y1="1" y2="99" class="stroke_order_diagram--bounding_box"></line><path id="pathSk2v596cn3ez0" kvg:type="㇒" d="M38.8,18.25c0.14,1.17-0.69,2.17-1.32,3.04C31.89,28.93,26.36,34.56,12.75,43" transform="matrix(1,0,0,1,196,-4)" class="stroke_order_diagram--existing_path"></path><path id="pathSk2v596cn3ez1" kvg:type="㇕va" d="M19,20c23.5,19.75,18.75,79,8,67" transform="matrix(1,0,0,1,196,-4)" class="stroke_order_diagram--existing_path"></path><path id="kvg:072c2-s3" kvg:type="㇒" d="M30.83,44.25c0.09,1.1,0.16,2.04-0.35,3.05c-4.25,8.52-8.67,14.67-18.98,23.99" transform="matrix(1,0,0,1,196,-4)" class="stroke_order_diagram--current_path"></path><path id="pathSk2v596cn3ez3" kvg:type="㇒" d="M30.83,44.25c0.09,1.1,0.16,2.04-0.35,3.05c-4.25,8.52-8.67,14.67-18.98,23.99" transform="matrix(1,0,0,1,196,-4)" class="stroke_order_diagram--current_path"></path><circle cx="30.83" cy="44.25" r="8" class="stroke_order_diagram--path_start" transform="matrix(1,0,0,1,196,-4)"></circle><line x1="350" x2="350" y1="1" y2="99" class="stroke_order_diagram--guide_line"></line><line x1="399" x2="399" y1="1" y2="99" class="stroke_order_diagram--bounding_box"></line><path id="pathSk2v596cn3ez6" kvg:type="㇒" d="M38.8,18.25c0.14,1.17-0.69,2.17-1.32,3.04C31.89,28.93,26.36,34.56,12.75,43" transform="matrix(1,0,0,1,296,-4)" class="stroke_order_diagram--existing_path"></path><path id="pathSk2v596cn3ez7" kvg:type="㇕va" d="M19,20c23.5,19.75,18.75,79,8,67" transform="matrix(1,0,0,1,296,-4)" class="stroke_order_diagram--existing_path"></path><path id="pathSk2v596cn3ez8" kvg:type="㇒" d="M30.83,44.25c0.09,1.1,0.16,2.04-0.35,3.05c-4.25,8.52-8.67,14.67-18.98,23.99" transform="matrix(1,0,0,1,296,-4)" class="stroke_order_diagram--existing_path"></path><path id="kvg:072c2-s4" kvg:type="㇐" d="M48.4,26.88c2.23,0.49,5.09,0.11,6.98-0.15c6.25-0.85,19.07-2.82,27.01-3.55c2.03-0.19,4.2-0.51,6.16,0.25" transform="matrix(1,0,0,1,296,-4)" class="stroke_order_diagram--current_path"></path><path id="pathSk2v596cn3eza" kvg:type="㇐" d="M48.4,26.88c2.23,0.49,5.09,0.11,6.98-0.15c6.25-0.85,19.07-2.82,27.01-3.55c2.03-0.19,4.2-0.51,6.16,0.25" transform="matrix(1,0,0,1,296,-4)" class="stroke_order_diagram--current_path"></path><circle cx="48.4" cy="26.88" r="8" class="stroke_order_diagram--path_start" transform="matrix(1,0,0,1,296,-4)"></circle><line x1="450" x2="450" y1="1" y2="99" class="stroke_order_diagram--guide_line"></line><line x1="499" x2="499" y1="1" y2="99" class="stroke_order_diagram--bounding_box"></line><path id="pathSk2v596cn3ezd" kvg:type="㇒" d="M38.8,18.25c0.14,1.17-0.69,2.17-1.32,3.04C31.89,28.93,26.36,34.56,12.75,43" transform="matrix(1,0,0,1,396,-4)" class="stroke_order_diagram--existing_path"></path><path id="pathSk2v596cn3eze" kvg:type="㇕va" d="M19,20c23.5,19.75,18.75,79,8,67" transform="matrix(1,0,0,1,396,-4)" class="stroke_order_diagram--existing_path"></path><path id="pathSk2v596cn3ezf" kvg:type="㇒" d="M30.83,44.25c0.09,1.1,0.16,2.04-0.35,3.05c-4.25,8.52-8.67,14.67-18.98,23.99" transform="matrix(1,0,0,1,396,-4)" class="stroke_order_diagram--existing_path"></path><path id="pathSk2v596cn3ezg" kvg:type="㇐" d="M48.4,26.88c2.23,0.49,5.09,0.11,6.98-0.15c6.25-0.85,19.07-2.82,27.01-3.55c2.03-0.19,4.2-0.51,6.16,0.25" transform="matrix(1,0,0,1,396,-4)" class="stroke_order_diagram--existing_path"></path><path id="kvg:072c2-s5" kvg:type="㇑a" d="M66.4,28.5c1.43,1.43,1.67,2.83,1.67,4.75c0,13.41-0.02,28.75-0.02,50.25" transform="matrix(1,0,0,1,396,-4)" class="stroke_order_diagram--current_path"></path><path id="pathSk2v596cn3ezi" kvg:type="㇑a" d="M66.4,28.5c1.43,1.43,1.67,2.83,1.67,4.75c0,13.41-0.02,28.75-0.02,50.25" transform="matrix(1,0,0,1,396,-4)" class="stroke_order_diagram--current_path"></path><circle cx="66.4" cy="28.5" r="8" class="stroke_order_diagram--path_start" transform="matrix(1,0,0,1,396,-4)"></circle><line x1="550" x2="550" y1="1" y2="99" class="stroke_order_diagram--guide_line"></line><line x1="599" x2="599" y1="1" y2="99" class="stroke_order_diagram--bounding_box"></line><path id="pathSk2v596cn3ezl" kvg:type="㇒" d="M38.8,18.25c0.14,1.17-0.69,2.17-1.32,3.04C31.89,28.93,26.36,34.56,12.75,43" transform="matrix(1,0,0,1,496,-4)" class="stroke_order_diagram--existing_path"></path><path id="pathSk2v596cn3ezm" kvg:type="㇕va" d="M19,20c23.5,19.75,18.75,79,8,67" transform="matrix(1,0,0,1,496,-4)" class="stroke_order_diagram--existing_path"></path><path id="pathSk2v596cn3ezn" kvg:type="㇒" d="M30.83,44.25c0.09,1.1,0.16,2.04-0.35,3.05c-4.25,8.52-8.67,14.67-18.98,23.99" transform="matrix(1,0,0,1,496,-4)" class="stroke_order_diagram--existing_path"></path><path id="pathSk2v596cn3ezo" kvg:type="㇐" d="M48.4,26.88c2.23,0.49,5.09,0.11,6.98-0.15c6.25-0.85,19.07-2.82,27.01-3.55c2.03-0.19,4.2-0.51,6.16,0.25" transform="matrix(1,0,0,1,496,-4)" class="stroke_order_diagram--existing_path"></path><path id="pathSk2v596cn3ezp" kvg:type="㇑a" d="M66.4,28.5c1.43,1.43,1.67,2.83,1.67,4.75c0,13.41-0.02,28.75-0.02,50.25" transform="matrix(1,0,0,1,496,-4)" class="stroke_order_diagram--existing_path"></path><path id="kvg:072c2-s6" kvg:type="㇐" d="M49.96,54.53c2.29,0.59,4.9,0.34,6.32,0.18c6.96-0.8,17.14-1.92,24.86-2.71c2.05-0.21,4.33-0.64,6.34,0.01" transform="matrix(1,0,0,1,496,-4)" class="stroke_order_diagram--current_path"></path><path id="pathSk2v596cn3ezr" kvg:type="㇐" d="M49.96,54.53c2.29,0.59,4.9,0.34,6.32,0.18c6.96-0.8,17.14-1.92,24.86-2.71c2.05-0.21,4.33-0.64,6.34,0.01" transform="matrix(1,0,0,1,496,-4)" class="stroke_order_diagram--current_path"></path><circle cx="49.96" cy="54.53" r="8" class="stroke_order_diagram--path_start" transform="matrix(1,0,0,1,496,-4)"></circle><line x1="650" x2="650" y1="1" y2="99" class="stroke_order_diagram--guide_line"></line><line x1="699" x2="699" y1="1" y2="99" class="stroke_order_diagram--bounding_box"></line><path id="pathSk2v596cn3ezu" kvg:type="㇒" d="M38.8,18.25c0.14,1.17-0.69,2.17-1.32,3.04C31.89,28.93,26.36,34.56,12.75,43" transform="matrix(1,0,0,1,596,-4)" class="stroke_order_diagram--existing_path"></path><path id="pathSk2v596cn3ezv" kvg:type="㇕va" d="M19,20c23.5,19.75,18.75,79,8,67" transform="matrix(1,0,0,1,596,-4)" class="stroke_order_diagram--existing_path"></path><path id="pathSk2v596cn3ezw" kvg:type="㇒" d="M30.83,44.25c0.09,1.1,0.16,2.04-0.35,3.05c-4.25,8.52-8.67,14.67-18.98,23.99" transform="matrix(1,0,0,1,596,-4)" class="stroke_order_diagram--existing_path"></path><path id="pathSk2v596cn3ezx" kvg:type="㇐" d="M48.4,26.88c2.23,0.49,5.09,0.11,6.98-0.15c6.25-0.85,19.07-2.82,27.01-3.55c2.03-0.19,4.2-0.51,6.16,0.25" transform="matrix(1,0,0,1,596,-4)" class="stroke_order_diagram--existing_path"></path><path id="pathSk2v596cn3ezy" kvg:type="㇑a" d="M66.4,28.5c1.43,1.43,1.67,2.83,1.67,4.75c0,13.41-0.02,28.75-0.02,50.25" transform="matrix(1,0,0,1,596,-4)" class="stroke_order_diagram--existing_path"></path><path id="pathSk2v596cn3ezz" kvg:type="㇐" d="M49.96,54.53c2.29,0.59,4.9,0.34,6.32,0.18c6.96-0.8,17.14-1.92,24.86-2.71c2.05-0.21,4.33-0.64,6.34,0.01" transform="matrix(1,0,0,1,596,-4)" class="stroke_order_diagram--existing_path"></path><path id="kvg:072c2-s7" kvg:type="㇐" d="M42,85.52c2.55,0.7,5.27,0.89,7.87,0.65c11.5-1.05,22.5-2.17,37.75-2.51c2.53-0.05,5.5,0.33,7.88,1.01" transform="matrix(1,0,0,1,596,-4)" class="stroke_order_diagram--current_path"></path><path id="pathSk2v596cn3f01" kvg:type="㇐" d="M42,85.52c2.55,0.7,5.27,0.89,7.87,0.65c11.5-1.05,22.5-2.17,37.75-2.51c2.53-0.05,5.5,0.33,7.88,1.01" transform="matrix(1,0,0,1,596,-4)" class="stroke_order_diagram--current_path"></path><circle cx="42" cy="85.52" r="8" class="stroke_order_diagram--path_start" transform="matrix(1,0,0,1,596,-4)"></circle></svg>