<svg style="width: 1600px; height: 100px;" viewbox="0 0 1600 100"><style>
.stroke_order_diagram--outer_container {
  width: 100%;
  overflow-x: auto;
  overflow-y: hidden;
}

.stroke_order_diagram--guide_line {
  fill: none;
  stroke: #ddd;
  stroke-width: 3;
  stroke-linecap: square;
  stroke-linejoin: square;
  stroke-dasharray:8, 8;
}

.stroke_order_diagram--bounding_box {
  fill: none;
  stroke: #ddd;
  stroke-width: 4;
  stroke-linecap: square;
  stroke-linejoin: square;
}

.stroke_order_diagram--current_path {
  fill: none;
  stroke: #000;
  stroke-width: 6;
  stroke-linecap: round;
  stroke-linejoin: round;
}

.stroke_order_diagram--existing_path {
  fill: none;
  stroke: #aaa;
  stroke-width: 6;
  stroke-linecap: round;
  stroke-linejoin:round;
}

.stroke_order_diagram--path_start {
  fill: rgba(255, 0, 0, 0.7);
  stroke:none
}</style><desc>Created with Snap</desc><defs></defs><line x1="1" x2="1599" y1="1" y2="1" class="stroke_order_diagram--bounding_box"></line><line x1="1" x2="1" y1="1" y2="99" class="stroke_order_diagram--bounding_box"></line><line x1="1" x2="1599" y1="99" y2="99" class="stroke_order_diagram--bounding_box"></line><line x1="0" x2="1600" y1="50" y2="50" class="stroke_order_diagram--guide_line"></line><line x1="50" x2="50" y1="1" y2="99" class="stroke_order_diagram--guide_line"></line><line x1="99" x2="99" y1="1" y2="99" class="stroke_order_diagram--bounding_box"></line><path id="kvg:07363-s1" kvg:type="㇔" d="M12,22.91c3.02,3.35,6.25,9.22,6.69,10.9" transform="matrix(1,0,0,1,-4,-4)" class="stroke_order_diagram--current_path"></path><path id="pathSk2v596cn1rgy" kvg:type="㇔" d="M12,22.91c3.02,3.35,6.25,9.22,6.69,10.9" transform="matrix(1,0,0,1,-4,-4)" class="stroke_order_diagram--current_path"></path><circle cx="12" cy="22.91" r="8" class="stroke_order_diagram--path_start" transform="matrix(1,0,0,1,-4,-4)"></circle><line x1="150" x2="150" y1="1" y2="99" class="stroke_order_diagram--guide_line"></line><line x1="199" x2="199" y1="1" y2="99" class="stroke_order_diagram--bounding_box"></line><path id="pathSk2v596cn1rh1" kvg:type="㇔" d="M12,22.91c3.02,3.35,6.25,9.22,6.69,10.9" transform="matrix(1,0,0,1,96,-4)" class="stroke_order_diagram--existing_path"></path><path id="kvg:07363-s2" kvg:type="㇔" d="M26.62,20.25c1.54,2.17,5.25,7.85,5.87,11.37" transform="matrix(1,0,0,1,96,-4)" class="stroke_order_diagram--current_path"></path><path id="pathSk2v596cn1rh3" kvg:type="㇔" d="M26.62,20.25c1.54,2.17,5.25,7.85,5.87,11.37" transform="matrix(1,0,0,1,96,-4)" class="stroke_order_diagram--current_path"></path><circle cx="26.62" cy="20.25" r="8" class="stroke_order_diagram--path_start" transform="matrix(1,0,0,1,96,-4)"></circle><line x1="250" x2="250" y1="1" y2="99" class="stroke_order_diagram--guide_line"></line><line x1="299" x2="299" y1="1" y2="99" class="stroke_order_diagram--bounding_box"></line><path id="pathSk2v596cn1rh6" kvg:type="㇔" d="M12,22.91c3.02,3.35,6.25,9.22,6.69,10.9" transform="matrix(1,0,0,1,196,-4)" class="stroke_order_diagram--existing_path"></path><path id="pathSk2v596cn1rh7" kvg:type="㇔" d="M26.62,20.25c1.54,2.17,5.25,7.85,5.87,11.37" transform="matrix(1,0,0,1,196,-4)" class="stroke_order_diagram--existing_path"></path><path id="kvg:07363-s3" kvg:type="㇒" d="M46.16,18.69c0.4,0.68,0.43,1.73-0.15,2.99c-1.01,2.2-4.09,6.76-5.49,8.81" transform="matrix(1,0,0,1,196,-4)" class="stroke_order_diagram--current_path"></path><path id="pathSk2v596cn1rh9" kvg:type="㇒" d="M46.16,18.69c0.4,0.68,0.43,1.73-0.15,2.99c-1.01,2.2-4.09,6.76-5.49,8.81" transform="matrix(1,0,0,1,196,-4)" class="stroke_order_diagram--current_path"></path><circle cx="46.16" cy="18.69" r="8" class="stroke_order_diagram--path_start" transform="matrix(1,0,0,1,196,-4)"></circle><line x1="350" x2="350" y1="1" y2="99" class="stroke_order_diagram--guide_line"></line><line x1="399" x2="399" y1="1" y2="99" class="stroke_order_diagram--bounding_box"></line><path id="pathSk2v596cn1rhc" kvg:type="㇔" d="M12,22.91c3.02,3.35,6.25,9.22,6.69,10.9" transform="matrix(1,0,0,1,296,-4)" class="stroke_order_diagram--existing_path"></path><path id="pathSk2v596cn1rhd" kvg:type="㇔" d="M26.62,20.25c1.54,2.17,5.25,7.85,5.87,11.37" transform="matrix(1,0,0,1,296,-4)" class="stroke_order_diagram--existing_path"></path><path id="pathSk2v596cn1rhe" kvg:type="㇒" d="M46.16,18.69c0.4,0.68,0.43,1.73-0.15,2.99c-1.01,2.2-4.09,6.76-5.49,8.81" transform="matrix(1,0,0,1,296,-4)" class="stroke_order_diagram--existing_path"></path><path id="kvg:07363-s4" kvg:type="㇑" d="M15.55,41.27c0.72,0.72,1.02,1.59,1.33,2.98c1,4.5,1.67,8.85,2.34,13.97c0.17,1.33,0.32,2.63,0.43,3.86" transform="matrix(1,0,0,1,296,-4)" class="stroke_order_diagram--current_path"></path><path id="pathSk2v596cn1rhg" kvg:type="㇑" d="M15.55,41.27c0.72,0.72,1.02,1.59,1.33,2.98c1,4.5,1.67,8.85,2.34,13.97c0.17,1.33,0.32,2.63,0.43,3.86" transform="matrix(1,0,0,1,296,-4)" class="stroke_order_diagram--current_path"></path><circle cx="15.55" cy="41.27" r="8" class="stroke_order_diagram--path_start" transform="matrix(1,0,0,1,296,-4)"></circle><line x1="450" x2="450" y1="1" y2="99" class="stroke_order_diagram--guide_line"></line><line x1="499" x2="499" y1="1" y2="99" class="stroke_order_diagram--bounding_box"></line><path id="pathSk2v596cn1rhj" kvg:type="㇔" d="M12,22.91c3.02,3.35,6.25,9.22,6.69,10.9" transform="matrix(1,0,0,1,396,-4)" class="stroke_order_diagram--existing_path"></path><path id="pathSk2v596cn1rhk" kvg:type="㇔" d="M26.62,20.25c1.54,2.17,5.25,7.85,5.87,11.37" transform="matrix(1,0,0,1,396,-4)" class="stroke_order_diagram--existing_path"></path><path id="pathSk2v596cn1rhl" kvg:type="㇒" d="M46.16,18.69c0.4,0.68,0.43,1.73-0.15,2.99c-1.01,2.2-4.09,6.76-5.49,8.81" transform="matrix(1,0,0,1,396,-4)" class="stroke_order_diagram--existing_path"></path><path id="pathSk2v596cn1rhm" kvg:type="㇑" d="M15.55,41.27c0.72,0.72,1.02,1.59,1.33,2.98c1,4.5,1.67,8.85,2.34,13.97c0.17,1.33,0.32,2.63,0.43,3.86" transform="matrix(1,0,0,1,396,-4)" class="stroke_order_diagram--existing_path"></path><path id="kvg:07363-s5" kvg:type="㇕a" d="M17.09,42.48c8.78-1.98,18.01-3.45,24.53-4.51c4.27-0.7,6.5-0.79,5.98,4.16c-0.36,3.49-0.91,8.43-1.83,12.88c-0.25,1.18-0.52,2.33-0.82,3.41" transform="matrix(1,0,0,1,396,-4)" class="stroke_order_diagram--current_path"></path><path id="pathSk2v596cn1rho" kvg:type="㇕a" d="M17.09,42.48c8.78-1.98,18.01-3.45,24.53-4.51c4.27-0.7,6.5-0.79,5.98,4.16c-0.36,3.49-0.91,8.43-1.83,12.88c-0.25,1.18-0.52,2.33-0.82,3.41" transform="matrix(1,0,0,1,396,-4)" class="stroke_order_diagram--current_path"></path><circle cx="17.09" cy="42.48" r="8" class="stroke_order_diagram--path_start" transform="matrix(1,0,0,1,396,-4)"></circle><line x1="550" x2="550" y1="1" y2="99" class="stroke_order_diagram--guide_line"></line><line x1="599" x2="599" y1="1" y2="99" class="stroke_order_diagram--bounding_box"></line><path id="pathSk2v596cn1rhr" kvg:type="㇔" d="M12,22.91c3.02,3.35,6.25,9.22,6.69,10.9" transform="matrix(1,0,0,1,496,-4)" class="stroke_order_diagram--existing_path"></path><path id="pathSk2v596cn1rhs" kvg:type="㇔" d="M26.62,20.25c1.54,2.17,5.25,7.85,5.87,11.37" transform="matrix(1,0,0,1,496,-4)" class="stroke_order_diagram--existing_path"></path><path id="pathSk2v596cn1rht" kvg:type="㇒" d="M46.16,18.69c0.4,0.68,0.43,1.73-0.15,2.99c-1.01,2.2-4.09,6.76-5.49,8.81" transform="matrix(1,0,0,1,496,-4)" class="stroke_order_diagram--existing_path"></path><path id="pathSk2v596cn1rhu" kvg:type="㇑" d="M15.55,41.27c0.72,0.72,1.02,1.59,1.33,2.98c1,4.5,1.67,8.85,2.34,13.97c0.17,1.33,0.32,2.63,0.43,3.86" transform="matrix(1,0,0,1,496,-4)" class="stroke_order_diagram--existing_path"></path><path id="pathSk2v596cn1rhv" kvg:type="㇕a" d="M17.09,42.48c8.78-1.98,18.01-3.45,24.53-4.51c4.27-0.7,6.5-0.79,5.98,4.16c-0.36,3.49-0.91,8.43-1.83,12.88c-0.25,1.18-0.52,2.33-0.82,3.41" transform="matrix(1,0,0,1,496,-4)" class="stroke_order_diagram--existing_path"></path><path id="kvg:07363-s6" kvg:type="㇑a" d="M31.09,41.16c0.75,0.75,0.97,1.74,0.97,3.09C32.08,49.27,32,53.12,32,57.12" transform="matrix(1,0,0,1,496,-4)" class="stroke_order_diagram--current_path"></path><path id="pathSk2v596cn1rhx" kvg:type="㇑a" d="M31.09,41.16c0.75,0.75,0.97,1.74,0.97,3.09C32.08,49.27,32,53.12,32,57.12" transform="matrix(1,0,0,1,496,-4)" class="stroke_order_diagram--current_path"></path><circle cx="31.09" cy="41.16" r="8" class="stroke_order_diagram--path_start" transform="matrix(1,0,0,1,496,-4)"></circle><line x1="650" x2="650" y1="1" y2="99" class="stroke_order_diagram--guide_line"></line><line x1="699" x2="699" y1="1" y2="99" class="stroke_order_diagram--bounding_box"></line><path id="pathSk2v596cn1ri0" kvg:type="㇔" d="M12,22.91c3.02,3.35,6.25,9.22,6.69,10.9" transform="matrix(1,0,0,1,596,-4)" class="stroke_order_diagram--existing_path"></path><path id="pathSk2v596cn1ri1" kvg:type="㇔" d="M26.62,20.25c1.54,2.17,5.25,7.85,5.87,11.37" transform="matrix(1,0,0,1,596,-4)" class="stroke_order_diagram--existing_path"></path><path id="pathSk2v596cn1ri2" kvg:type="㇒" d="M46.16,18.69c0.4,0.68,0.43,1.73-0.15,2.99c-1.01,2.2-4.09,6.76-5.49,8.81" transform="matrix(1,0,0,1,596,-4)" class="stroke_order_diagram--existing_path"></path><path id="pathSk2v596cn1ri3" kvg:type="㇑" d="M15.55,41.27c0.72,0.72,1.02,1.59,1.33,2.98c1,4.5,1.67,8.85,2.34,13.97c0.17,1.33,0.32,2.63,0.43,3.86" transform="matrix(1,0,0,1,596,-4)" class="stroke_order_diagram--existing_path"></path><path id="pathSk2v596cn1ri4" kvg:type="㇕a" d="M17.09,42.48c8.78-1.98,18.01-3.45,24.53-4.51c4.27-0.7,6.5-0.79,5.98,4.16c-0.36,3.49-0.91,8.43-1.83,12.88c-0.25,1.18-0.52,2.33-0.82,3.41" transform="matrix(1,0,0,1,596,-4)" class="stroke_order_diagram--existing_path"></path><path id="pathSk2v596cn1ri5" kvg:type="㇑a" d="M31.09,41.16c0.75,0.75,0.97,1.74,0.97,3.09C32.08,49.27,32,53.12,32,57.12" transform="matrix(1,0,0,1,596,-4)" class="stroke_order_diagram--existing_path"></path><path id="kvg:07363-s7" kvg:type="㇐a" d="M19.26,51.06c7.61-1.31,19.24-2.81,26.39-3.43" transform="matrix(1,0,0,1,596,-4)" class="stroke_order_diagram--current_path"></path><path id="pathSk2v596cn1ri7" kvg:type="㇐a" d="M19.26,51.06c7.61-1.31,19.24-2.81,26.39-3.43" transform="matrix(1,0,0,1,596,-4)" class="stroke_order_diagram--current_path"></path><circle cx="19.26" cy="51.06" r="8" class="stroke_order_diagram--path_start" transform="matrix(1,0,0,1,596,-4)"></circle><line x1="750" x2="750" y1="1" y2="99" class="stroke_order_diagram--guide_line"></line><line x1="799" x2="799" y1="1" y2="99" class="stroke_order_diagram--bounding_box"></line><path id="pathSk2v596cn1ria" kvg:type="㇔" d="M12,22.91c3.02,3.35,6.25,9.22,6.69,10.9" transform="matrix(1,0,0,1,696,-4)" class="stroke_order_diagram--existing_path"></path><path id="pathSk2v596cn1rib" kvg:type="㇔" d="M26.62,20.25c1.54,2.17,5.25,7.85,5.87,11.37" transform="matrix(1,0,0,1,696,-4)" class="stroke_order_diagram--existing_path"></path><path id="pathSk2v596cn1ric" kvg:type="㇒" d="M46.16,18.69c0.4,0.68,0.43,1.73-0.15,2.99c-1.01,2.2-4.09,6.76-5.49,8.81" transform="matrix(1,0,0,1,696,-4)" class="stroke_order_diagram--existing_path"></path><path id="pathSk2v596cn1rid" kvg:type="㇑" d="M15.55,41.27c0.72,0.72,1.02,1.59,1.33,2.98c1,4.5,1.67,8.85,2.34,13.97c0.17,1.33,0.32,2.63,0.43,3.86" transform="matrix(1,0,0,1,696,-4)" class="stroke_order_diagram--existing_path"></path><path id="pathSk2v596cn1rie" kvg:type="㇕a" d="M17.09,42.48c8.78-1.98,18.01-3.45,24.53-4.51c4.27-0.7,6.5-0.79,5.98,4.16c-0.36,3.49-0.91,8.43-1.83,12.88c-0.25,1.18-0.52,2.33-0.82,3.41" transform="matrix(1,0,0,1,696,-4)" class="stroke_order_diagram--existing_path"></path><path id="pathSk2v596cn1rif" kvg:type="㇑a" d="M31.09,41.16c0.75,0.75,0.97,1.74,0.97,3.09C32.08,49.27,32,53.12,32,57.12" transform="matrix(1,0,0,1,696,-4)" class="stroke_order_diagram--existing_path"></path><path id="pathSk2v596cn1rig" kvg:type="㇐a" d="M19.26,51.06c7.61-1.31,19.24-2.81,26.39-3.43" transform="matrix(1,0,0,1,696,-4)" class="stroke_order_diagram--existing_path"></path><path id="kvg:07363-s8" kvg:type="㇐a" d="M20.8,60.04c5.65-0.65,13.95-1.92,23.22-2.73" transform="matrix(1,0,0,1,696,-4)" class="stroke_order_diagram--current_path"></path><path id="pathSk2v596cn1rii" kvg:type="㇐a" d="M20.8,60.04c5.65-0.65,13.95-1.92,23.22-2.73" transform="matrix(1,0,0,1,696,-4)" class="stroke_order_diagram--current_path"></path><circle cx="20.8" cy="60.04" r="8" class="stroke_order_diagram--path_start" transform="matrix(1,0,0,1,696,-4)"></circle><line x1="850" x2="850" y1="1" y2="99" class="stroke_order_diagram--guide_line"></line><line x1="899" x2="899" y1="1" y2="99" class="stroke_order_diagram--bounding_box"></line><path id="pathSk2v596cn1ril" kvg:type="㇔" d="M12,22.91c3.02,3.35,6.25,9.22,6.69,10.9" transform="matrix(1,0,0,1,796,-4)" class="stroke_order_diagram--existing_path"></path><path id="pathSk2v596cn1rim" kvg:type="㇔" d="M26.62,20.25c1.54,2.17,5.25,7.85,5.87,11.37" transform="matrix(1,0,0,1,796,-4)" class="stroke_order_diagram--existing_path"></path><path id="pathSk2v596cn1rin" kvg:type="㇒" d="M46.16,18.69c0.4,0.68,0.43,1.73-0.15,2.99c-1.01,2.2-4.09,6.76-5.49,8.81" transform="matrix(1,0,0,1,796,-4)" class="stroke_order_diagram--existing_path"></path><path id="pathSk2v596cn1rio" kvg:type="㇑" d="M15.55,41.27c0.72,0.72,1.02,1.59,1.33,2.98c1,4.5,1.67,8.85,2.34,13.97c0.17,1.33,0.32,2.63,0.43,3.86" transform="matrix(1,0,0,1,796,-4)" class="stroke_order_diagram--existing_path"></path><path id="pathSk2v596cn1rip" kvg:type="㇕a" d="M17.09,42.48c8.78-1.98,18.01-3.45,24.53-4.51c4.27-0.7,6.5-0.79,5.98,4.16c-0.36,3.49-0.91,8.43-1.83,12.88c-0.25,1.18-0.52,2.33-0.82,3.41" transform="matrix(1,0,0,1,796,-4)" class="stroke_order_diagram--existing_path"></path><path id="pathSk2v596cn1riq" kvg:type="㇑a" d="M31.09,41.16c0.75,0.75,0.97,1.74,0.97,3.09C32.08,49.27,32,53.12,32,57.12" transform="matrix(1,0,0,1,796,-4)" class="stroke_order_diagram--existing_path"></path><path id="pathSk2v596cn1rir" kvg:type="㇐a" d="M19.26,51.06c7.61-1.31,19.24-2.81,26.39-3.43" transform="matrix(1,0,0,1,796,-4)" class="stroke_order_diagram--existing_path"></path><path id="pathSk2v596cn1ris" kvg:type="㇐a" d="M20.8,60.04c5.65-0.65,13.95-1.92,23.22-2.73" transform="matrix(1,0,0,1,796,-4)" class="stroke_order_diagram--existing_path"></path><path id="kvg:07363-s9" kvg:type="㇐" d="M10.25,68.89c1.88,0.76,4.07,0.38,5.99,0.09c8.13-1.23,19.88-3.1,28.63-3.9c2.28-0.21,4.14-0.62,6.38-0.07" transform="matrix(1,0,0,1,796,-4)" class="stroke_order_diagram--current_path"></path><path id="pathSk2v596cn1riu" kvg:type="㇐" d="M10.25,68.89c1.88,0.76,4.07,0.38,5.99,0.09c8.13-1.23,19.88-3.1,28.63-3.9c2.28-0.21,4.14-0.62,6.38-0.07" transform="matrix(1,0,0,1,796,-4)" class="stroke_order_diagram--current_path"></path><circle cx="10.25" cy="68.89" r="8" class="stroke_order_diagram--path_start" transform="matrix(1,0,0,1,796,-4)"></circle><line x1="950" x2="950" y1="1" y2="99" class="stroke_order_diagram--guide_line"></line><line x1="999" x2="999" y1="1" y2="99" class="stroke_order_diagram--bounding_box"></line><path id="pathSk2v596cn1rix" kvg:type="㇔" d="M12,22.91c3.02,3.35,6.25,9.22,6.69,10.9" transform="matrix(1,0,0,1,896,-4)" class="stroke_order_diagram--existing_path"></path><path id="pathSk2v596cn1riy" kvg:type="㇔" d="M26.62,20.25c1.54,2.17,5.25,7.85,5.87,11.37" transform="matrix(1,0,0,1,896,-4)" class="stroke_order_diagram--existing_path"></path><path id="pathSk2v596cn1riz" kvg:type="㇒" d="M46.16,18.69c0.4,0.68,0.43,1.73-0.15,2.99c-1.01,2.2-4.09,6.76-5.49,8.81" transform="matrix(1,0,0,1,896,-4)" class="stroke_order_diagram--existing_path"></path><path id="pathSk2v596cn1rj0" kvg:type="㇑" d="M15.55,41.27c0.72,0.72,1.02,1.59,1.33,2.98c1,4.5,1.67,8.85,2.34,13.97c0.17,1.33,0.32,2.63,0.43,3.86" transform="matrix(1,0,0,1,896,-4)" class="stroke_order_diagram--existing_path"></path><path id="pathSk2v596cn1rj1" kvg:type="㇕a" d="M17.09,42.48c8.78-1.98,18.01-3.45,24.53-4.51c4.27-0.7,6.5-0.79,5.98,4.16c-0.36,3.49-0.91,8.43-1.83,12.88c-0.25,1.18-0.52,2.33-0.82,3.41" transform="matrix(1,0,0,1,896,-4)" class="stroke_order_diagram--existing_path"></path><path id="pathSk2v596cn1rj2" kvg:type="㇑a" d="M31.09,41.16c0.75,0.75,0.97,1.74,0.97,3.09C32.08,49.27,32,53.12,32,57.12" transform="matrix(1,0,0,1,896,-4)" class="stroke_order_diagram--existing_path"></path><path id="pathSk2v596cn1rj3" kvg:type="㇐a" d="M19.26,51.06c7.61-1.31,19.24-2.81,26.39-3.43" transform="matrix(1,0,0,1,896,-4)" class="stroke_order_diagram--existing_path"></path><path id="pathSk2v596cn1rj4" kvg:type="㇐a" d="M20.8,60.04c5.65-0.65,13.95-1.92,23.22-2.73" transform="matrix(1,0,0,1,896,-4)" class="stroke_order_diagram--existing_path"></path><path id="pathSk2v596cn1rj5" kvg:type="㇐" d="M10.25,68.89c1.88,0.76,4.07,0.38,5.99,0.09c8.13-1.23,19.88-3.1,28.63-3.9c2.28-0.21,4.14-0.62,6.38-0.07" transform="matrix(1,0,0,1,896,-4)" class="stroke_order_diagram--existing_path"></path><path id="kvg:07363-s10" kvg:type="㇑" d="M16.9,76.67c0.77,0.55,1.19,1.32,1.27,2.29c0.67,2.34,1.44,6.12,2.26,9.5c0.39,1.6,0.71,3.11,0.92,4.33" transform="matrix(1,0,0,1,896,-4)" class="stroke_order_diagram--current_path"></path><path id="pathSk2v596cn1rj7" kvg:type="㇑" d="M16.9,76.67c0.77,0.55,1.19,1.32,1.27,2.29c0.67,2.34,1.44,6.12,2.26,9.5c0.39,1.6,0.71,3.11,0.92,4.33" transform="matrix(1,0,0,1,896,-4)" class="stroke_order_diagram--current_path"></path><circle cx="16.9" cy="76.67" r="8" class="stroke_order_diagram--path_start" transform="matrix(1,0,0,1,896,-4)"></circle><line x1="1050" x2="1050" y1="1" y2="99" class="stroke_order_diagram--guide_line"></line><line x1="1099" x2="1099" y1="1" y2="99" class="stroke_order_diagram--bounding_box"></line><path id="pathSk2v596cn1rja" kvg:type="㇔" d="M12,22.91c3.02,3.35,6.25,9.22,6.69,10.9" transform="matrix(1,0,0,1,996,-4)" class="stroke_order_diagram--existing_path"></path><path id="pathSk2v596cn1rjb" kvg:type="㇔" d="M26.62,20.25c1.54,2.17,5.25,7.85,5.87,11.37" transform="matrix(1,0,0,1,996,-4)" class="stroke_order_diagram--existing_path"></path><path id="pathSk2v596cn1rjc" kvg:type="㇒" d="M46.16,18.69c0.4,0.68,0.43,1.73-0.15,2.99c-1.01,2.2-4.09,6.76-5.49,8.81" transform="matrix(1,0,0,1,996,-4)" class="stroke_order_diagram--existing_path"></path><path id="pathSk2v596cn1rjd" kvg:type="㇑" d="M15.55,41.27c0.72,0.72,1.02,1.59,1.33,2.98c1,4.5,1.67,8.85,2.34,13.97c0.17,1.33,0.32,2.63,0.43,3.86" transform="matrix(1,0,0,1,996,-4)" class="stroke_order_diagram--existing_path"></path><path id="pathSk2v596cn1rje" kvg:type="㇕a" d="M17.09,42.48c8.78-1.98,18.01-3.45,24.53-4.51c4.27-0.7,6.5-0.79,5.98,4.16c-0.36,3.49-0.91,8.43-1.83,12.88c-0.25,1.18-0.52,2.33-0.82,3.41" transform="matrix(1,0,0,1,996,-4)" class="stroke_order_diagram--existing_path"></path><path id="pathSk2v596cn1rjf" kvg:type="㇑a" d="M31.09,41.16c0.75,0.75,0.97,1.74,0.97,3.09C32.08,49.27,32,53.12,32,57.12" transform="matrix(1,0,0,1,996,-4)" class="stroke_order_diagram--existing_path"></path><path id="pathSk2v596cn1rjg" kvg:type="㇐a" d="M19.26,51.06c7.61-1.31,19.24-2.81,26.39-3.43" transform="matrix(1,0,0,1,996,-4)" class="stroke_order_diagram--existing_path"></path><path id="pathSk2v596cn1rjh" kvg:type="㇐a" d="M20.8,60.04c5.65-0.65,13.95-1.92,23.22-2.73" transform="matrix(1,0,0,1,996,-4)" class="stroke_order_diagram--existing_path"></path><path id="pathSk2v596cn1rji" kvg:type="㇐" d="M10.25,68.89c1.88,0.76,4.07,0.38,5.99,0.09c8.13-1.23,19.88-3.1,28.63-3.9c2.28-0.21,4.14-0.62,6.38-0.07" transform="matrix(1,0,0,1,996,-4)" class="stroke_order_diagram--existing_path"></path><path id="pathSk2v596cn1rjj" kvg:type="㇑" d="M16.9,76.67c0.77,0.55,1.19,1.32,1.27,2.29c0.67,2.34,1.44,6.12,2.26,9.5c0.39,1.6,0.71,3.11,0.92,4.33" transform="matrix(1,0,0,1,996,-4)" class="stroke_order_diagram--existing_path"></path><path id="kvg:07363-s11" kvg:type="㇕b" d="M19.05,77.99c7.91-1.51,17.89-3.35,22.85-4.09c2.75-0.41,4.36,0.14,3.55,3.12c-0.72,2.65-1.1,4.23-2.57,8.16" transform="matrix(1,0,0,1,996,-4)" class="stroke_order_diagram--current_path"></path><path id="pathSk2v596cn1rjl" kvg:type="㇕b" d="M19.05,77.99c7.91-1.51,17.89-3.35,22.85-4.09c2.75-0.41,4.36,0.14,3.55,3.12c-0.72,2.65-1.1,4.23-2.57,8.16" transform="matrix(1,0,0,1,996,-4)" class="stroke_order_diagram--current_path"></path><circle cx="19.05" cy="77.99" r="8" class="stroke_order_diagram--path_start" transform="matrix(1,0,0,1,996,-4)"></circle><line x1="1150" x2="1150" y1="1" y2="99" class="stroke_order_diagram--guide_line"></line><line x1="1199" x2="1199" y1="1" y2="99" class="stroke_order_diagram--bounding_box"></line><path id="pathSk2v596cn1rjo" kvg:type="㇔" d="M12,22.91c3.02,3.35,6.25,9.22,6.69,10.9" transform="matrix(1,0,0,1,1096,-4)" class="stroke_order_diagram--existing_path"></path><path id="pathSk2v596cn1rjp" kvg:type="㇔" d="M26.62,20.25c1.54,2.17,5.25,7.85,5.87,11.37" transform="matrix(1,0,0,1,1096,-4)" class="stroke_order_diagram--existing_path"></path><path id="pathSk2v596cn1rjq" kvg:type="㇒" d="M46.16,18.69c0.4,0.68,0.43,1.73-0.15,2.99c-1.01,2.2-4.09,6.76-5.49,8.81" transform="matrix(1,0,0,1,1096,-4)" class="stroke_order_diagram--existing_path"></path><path id="pathSk2v596cn1rjr" kvg:type="㇑" d="M15.55,41.27c0.72,0.72,1.02,1.59,1.33,2.98c1,4.5,1.67,8.85,2.34,13.97c0.17,1.33,0.32,2.63,0.43,3.86" transform="matrix(1,0,0,1,1096,-4)" class="stroke_order_diagram--existing_path"></path><path id="pathSk2v596cn1rjs" kvg:type="㇕a" d="M17.09,42.48c8.78-1.98,18.01-3.45,24.53-4.51c4.27-0.7,6.5-0.79,5.98,4.16c-0.36,3.49-0.91,8.43-1.83,12.88c-0.25,1.18-0.52,2.33-0.82,3.41" transform="matrix(1,0,0,1,1096,-4)" class="stroke_order_diagram--existing_path"></path><path id="pathSk2v596cn1rjt" kvg:type="㇑a" d="M31.09,41.16c0.75,0.75,0.97,1.74,0.97,3.09C32.08,49.27,32,53.12,32,57.12" transform="matrix(1,0,0,1,1096,-4)" class="stroke_order_diagram--existing_path"></path><path id="pathSk2v596cn1rju" kvg:type="㇐a" d="M19.26,51.06c7.61-1.31,19.24-2.81,26.39-3.43" transform="matrix(1,0,0,1,1096,-4)" class="stroke_order_diagram--existing_path"></path><path id="pathSk2v596cn1rjv" kvg:type="㇐a" d="M20.8,60.04c5.65-0.65,13.95-1.92,23.22-2.73" transform="matrix(1,0,0,1,1096,-4)" class="stroke_order_diagram--existing_path"></path><path id="pathSk2v596cn1rjw" kvg:type="㇐" d="M10.25,68.89c1.88,0.76,4.07,0.38,5.99,0.09c8.13-1.23,19.88-3.1,28.63-3.9c2.28-0.21,4.14-0.62,6.38-0.07" transform="matrix(1,0,0,1,1096,-4)" class="stroke_order_diagram--existing_path"></path><path id="pathSk2v596cn1rjx" kvg:type="㇑" d="M16.9,76.67c0.77,0.55,1.19,1.32,1.27,2.29c0.67,2.34,1.44,6.12,2.26,9.5c0.39,1.6,0.71,3.11,0.92,4.33" transform="matrix(1,0,0,1,1096,-4)" class="stroke_order_diagram--existing_path"></path><path id="pathSk2v596cn1rjy" kvg:type="㇕b" d="M19.05,77.99c7.91-1.51,17.89-3.35,22.85-4.09c2.75-0.41,4.36,0.14,3.55,3.12c-0.72,2.65-1.1,4.23-2.57,8.16" transform="matrix(1,0,0,1,1096,-4)" class="stroke_order_diagram--existing_path"></path><path id="kvg:07363-s12" kvg:type="㇐b" d="M22.38,89.38c3.43-0.44,13.2-1.99,19.62-2.86c1.48-0.2,2.78-0.37,3.79-0.47" transform="matrix(1,0,0,1,1096,-4)" class="stroke_order_diagram--current_path"></path><path id="pathSk2v596cn1rk0" kvg:type="㇐b" d="M22.38,89.38c3.43-0.44,13.2-1.99,19.62-2.86c1.48-0.2,2.78-0.37,3.79-0.47" transform="matrix(1,0,0,1,1096,-4)" class="stroke_order_diagram--current_path"></path><circle cx="22.38" cy="89.38" r="8" class="stroke_order_diagram--path_start" transform="matrix(1,0,0,1,1096,-4)"></circle><line x1="1250" x2="1250" y1="1" y2="99" class="stroke_order_diagram--guide_line"></line><line x1="1299" x2="1299" y1="1" y2="99" class="stroke_order_diagram--bounding_box"></line><path id="pathSk2v596cn1rk3" kvg:type="㇔" d="M12,22.91c3.02,3.35,6.25,9.22,6.69,10.9" transform="matrix(1,0,0,1,1196,-4)" class="stroke_order_diagram--existing_path"></path><path id="pathSk2v596cn1rk4" kvg:type="㇔" d="M26.62,20.25c1.54,2.17,5.25,7.85,5.87,11.37" transform="matrix(1,0,0,1,1196,-4)" class="stroke_order_diagram--existing_path"></path><path id="pathSk2v596cn1rk5" kvg:type="㇒" d="M46.16,18.69c0.4,0.68,0.43,1.73-0.15,2.99c-1.01,2.2-4.09,6.76-5.49,8.81" transform="matrix(1,0,0,1,1196,-4)" class="stroke_order_diagram--existing_path"></path><path id="pathSk2v596cn1rk6" kvg:type="㇑" d="M15.55,41.27c0.72,0.72,1.02,1.59,1.33,2.98c1,4.5,1.67,8.85,2.34,13.97c0.17,1.33,0.32,2.63,0.43,3.86" transform="matrix(1,0,0,1,1196,-4)" class="stroke_order_diagram--existing_path"></path><path id="pathSk2v596cn1rk7" kvg:type="㇕a" d="M17.09,42.48c8.78-1.98,18.01-3.45,24.53-4.51c4.27-0.7,6.5-0.79,5.98,4.16c-0.36,3.49-0.91,8.43-1.83,12.88c-0.25,1.18-0.52,2.33-0.82,3.41" transform="matrix(1,0,0,1,1196,-4)" class="stroke_order_diagram--existing_path"></path><path id="pathSk2v596cn1rk8" kvg:type="㇑a" d="M31.09,41.16c0.75,0.75,0.97,1.74,0.97,3.09C32.08,49.27,32,53.12,32,57.12" transform="matrix(1,0,0,1,1196,-4)" class="stroke_order_diagram--existing_path"></path><path id="pathSk2v596cn1rk9" kvg:type="㇐a" d="M19.26,51.06c7.61-1.31,19.24-2.81,26.39-3.43" transform="matrix(1,0,0,1,1196,-4)" class="stroke_order_diagram--existing_path"></path><path id="pathSk2v596cn1rka" kvg:type="㇐a" d="M20.8,60.04c5.65-0.65,13.95-1.92,23.22-2.73" transform="matrix(1,0,0,1,1196,-4)" class="stroke_order_diagram--existing_path"></path><path id="pathSk2v596cn1rkb" kvg:type="㇐" d="M10.25,68.89c1.88,0.76,4.07,0.38,5.99,0.09c8.13-1.23,19.88-3.1,28.63-3.9c2.28-0.21,4.14-0.62,6.38-0.07" transform="matrix(1,0,0,1,1196,-4)" class="stroke_order_diagram--existing_path"></path><path id="pathSk2v596cn1rkc" kvg:type="㇑" d="M16.9,76.67c0.77,0.55,1.19,1.32,1.27,2.29c0.67,2.34,1.44,6.12,2.26,9.5c0.39,1.6,0.71,3.11,0.92,4.33" transform="matrix(1,0,0,1,1196,-4)" class="stroke_order_diagram--existing_path"></path><path id="pathSk2v596cn1rkd" kvg:type="㇕b" d="M19.05,77.99c7.91-1.51,17.89-3.35,22.85-4.09c2.75-0.41,4.36,0.14,3.55,3.12c-0.72,2.65-1.1,4.23-2.57,8.16" transform="matrix(1,0,0,1,1196,-4)" class="stroke_order_diagram--existing_path"></path><path id="pathSk2v596cn1rke" kvg:type="㇐b" d="M22.38,89.38c3.43-0.44,13.2-1.99,19.62-2.86c1.48-0.2,2.78-0.37,3.79-0.47" transform="matrix(1,0,0,1,1196,-4)" class="stroke_order_diagram--existing_path"></path><path id="kvg:07363-s13" kvg:type="㇐" d="M54.12,47.36c1.9,0.86,4.61,0.63,6.61,0.31c6.03-0.94,14.38-2.74,20.14-3.56c2.27-0.32,3.89-0.22,6.13,0.34" transform="matrix(1,0,0,1,1196,-4)" class="stroke_order_diagram--current_path"></path><path id="pathSk2v596cn1rkg" kvg:type="㇐" d="M54.12,47.36c1.9,0.86,4.61,0.63,6.61,0.31c6.03-0.94,14.38-2.74,20.14-3.56c2.27-0.32,3.89-0.22,6.13,0.34" transform="matrix(1,0,0,1,1196,-4)" class="stroke_order_diagram--current_path"></path><circle cx="54.12" cy="47.36" r="8" class="stroke_order_diagram--path_start" transform="matrix(1,0,0,1,1196,-4)"></circle><line x1="1350" x2="1350" y1="1" y2="99" class="stroke_order_diagram--guide_line"></line><line x1="1399" x2="1399" y1="1" y2="99" class="stroke_order_diagram--bounding_box"></line><path id="pathSk2v596cn1rkj" kvg:type="㇔" d="M12,22.91c3.02,3.35,6.25,9.22,6.69,10.9" transform="matrix(1,0,0,1,1296,-4)" class="stroke_order_diagram--existing_path"></path><path id="pathSk2v596cn1rkk" kvg:type="㇔" d="M26.62,20.25c1.54,2.17,5.25,7.85,5.87,11.37" transform="matrix(1,0,0,1,1296,-4)" class="stroke_order_diagram--existing_path"></path><path id="pathSk2v596cn1rkl" kvg:type="㇒" d="M46.16,18.69c0.4,0.68,0.43,1.73-0.15,2.99c-1.01,2.2-4.09,6.76-5.49,8.81" transform="matrix(1,0,0,1,1296,-4)" class="stroke_order_diagram--existing_path"></path><path id="pathSk2v596cn1rkm" kvg:type="㇑" d="M15.55,41.27c0.72,0.72,1.02,1.59,1.33,2.98c1,4.5,1.67,8.85,2.34,13.97c0.17,1.33,0.32,2.63,0.43,3.86" transform="matrix(1,0,0,1,1296,-4)" class="stroke_order_diagram--existing_path"></path><path id="pathSk2v596cn1rkn" kvg:type="㇕a" d="M17.09,42.48c8.78-1.98,18.01-3.45,24.53-4.51c4.27-0.7,6.5-0.79,5.98,4.16c-0.36,3.49-0.91,8.43-1.83,12.88c-0.25,1.18-0.52,2.33-0.82,3.41" transform="matrix(1,0,0,1,1296,-4)" class="stroke_order_diagram--existing_path"></path><path id="pathSk2v596cn1rko" kvg:type="㇑a" d="M31.09,41.16c0.75,0.75,0.97,1.74,0.97,3.09C32.08,49.27,32,53.12,32,57.12" transform="matrix(1,0,0,1,1296,-4)" class="stroke_order_diagram--existing_path"></path><path id="pathSk2v596cn1rkp" kvg:type="㇐a" d="M19.26,51.06c7.61-1.31,19.24-2.81,26.39-3.43" transform="matrix(1,0,0,1,1296,-4)" class="stroke_order_diagram--existing_path"></path><path id="pathSk2v596cn1rkq" kvg:type="㇐a" d="M20.8,60.04c5.65-0.65,13.95-1.92,23.22-2.73" transform="matrix(1,0,0,1,1296,-4)" class="stroke_order_diagram--existing_path"></path><path id="pathSk2v596cn1rkr" kvg:type="㇐" d="M10.25,68.89c1.88,0.76,4.07,0.38,5.99,0.09c8.13-1.23,19.88-3.1,28.63-3.9c2.28-0.21,4.14-0.62,6.38-0.07" transform="matrix(1,0,0,1,1296,-4)" class="stroke_order_diagram--existing_path"></path><path id="pathSk2v596cn1rks" kvg:type="㇑" d="M16.9,76.67c0.77,0.55,1.19,1.32,1.27,2.29c0.67,2.34,1.44,6.12,2.26,9.5c0.39,1.6,0.71,3.11,0.92,4.33" transform="matrix(1,0,0,1,1296,-4)" class="stroke_order_diagram--existing_path"></path><path id="pathSk2v596cn1rkt" kvg:type="㇕b" d="M19.05,77.99c7.91-1.51,17.89-3.35,22.85-4.09c2.75-0.41,4.36,0.14,3.55,3.12c-0.72,2.65-1.1,4.23-2.57,8.16" transform="matrix(1,0,0,1,1296,-4)" class="stroke_order_diagram--existing_path"></path><path id="pathSk2v596cn1rku" kvg:type="㇐b" d="M22.38,89.38c3.43-0.44,13.2-1.99,19.62-2.86c1.48-0.2,2.78-0.37,3.79-0.47" transform="matrix(1,0,0,1,1296,-4)" class="stroke_order_diagram--existing_path"></path><path id="pathSk2v596cn1rkv" kvg:type="㇐" d="M54.12,47.36c1.9,0.86,4.61,0.63,6.61,0.31c6.03-0.94,14.38-2.74,20.14-3.56c2.27-0.32,3.89-0.22,6.13,0.34" transform="matrix(1,0,0,1,1296,-4)" class="stroke_order_diagram--existing_path"></path><path id="kvg:07363-s14" kvg:type="㇒" d="M66.82,19c0.59,1.06,0.95,2.1,1.03,4.2C68.88,50.65,65.25,80.25,47,93.25" transform="matrix(1,0,0,1,1296,-4)" class="stroke_order_diagram--current_path"></path><path id="pathSk2v596cn1rkx" kvg:type="㇒" d="M66.82,19c0.59,1.06,0.95,2.1,1.03,4.2C68.88,50.65,65.25,80.25,47,93.25" transform="matrix(1,0,0,1,1296,-4)" class="stroke_order_diagram--current_path"></path><circle cx="66.82" cy="19" r="8" class="stroke_order_diagram--path_start" transform="matrix(1,0,0,1,1296,-4)"></circle><line x1="1450" x2="1450" y1="1" y2="99" class="stroke_order_diagram--guide_line"></line><line x1="1499" x2="1499" y1="1" y2="99" class="stroke_order_diagram--bounding_box"></line><path id="pathSk2v596cn1rl0" kvg:type="㇔" d="M12,22.91c3.02,3.35,6.25,9.22,6.69,10.9" transform="matrix(1,0,0,1,1396,-4)" class="stroke_order_diagram--existing_path"></path><path id="pathSk2v596cn1rl1" kvg:type="㇔" d="M26.62,20.25c1.54,2.17,5.25,7.85,5.87,11.37" transform="matrix(1,0,0,1,1396,-4)" class="stroke_order_diagram--existing_path"></path><path id="pathSk2v596cn1rl2" kvg:type="㇒" d="M46.16,18.69c0.4,0.68,0.43,1.73-0.15,2.99c-1.01,2.2-4.09,6.76-5.49,8.81" transform="matrix(1,0,0,1,1396,-4)" class="stroke_order_diagram--existing_path"></path><path id="pathSk2v596cn1rl3" kvg:type="㇑" d="M15.55,41.27c0.72,0.72,1.02,1.59,1.33,2.98c1,4.5,1.67,8.85,2.34,13.97c0.17,1.33,0.32,2.63,0.43,3.86" transform="matrix(1,0,0,1,1396,-4)" class="stroke_order_diagram--existing_path"></path><path id="pathSk2v596cn1rl4" kvg:type="㇕a" d="M17.09,42.48c8.78-1.98,18.01-3.45,24.53-4.51c4.27-0.7,6.5-0.79,5.98,4.16c-0.36,3.49-0.91,8.43-1.83,12.88c-0.25,1.18-0.52,2.33-0.82,3.41" transform="matrix(1,0,0,1,1396,-4)" class="stroke_order_diagram--existing_path"></path><path id="pathSk2v596cn1rl5" kvg:type="㇑a" d="M31.09,41.16c0.75,0.75,0.97,1.74,0.97,3.09C32.08,49.27,32,53.12,32,57.12" transform="matrix(1,0,0,1,1396,-4)" class="stroke_order_diagram--existing_path"></path><path id="pathSk2v596cn1rl6" kvg:type="㇐a" d="M19.26,51.06c7.61-1.31,19.24-2.81,26.39-3.43" transform="matrix(1,0,0,1,1396,-4)" class="stroke_order_diagram--existing_path"></path><path id="pathSk2v596cn1rl7" kvg:type="㇐a" d="M20.8,60.04c5.65-0.65,13.95-1.92,23.22-2.73" transform="matrix(1,0,0,1,1396,-4)" class="stroke_order_diagram--existing_path"></path><path id="pathSk2v596cn1rl8" kvg:type="㇐" d="M10.25,68.89c1.88,0.76,4.07,0.38,5.99,0.09c8.13-1.23,19.88-3.1,28.63-3.9c2.28-0.21,4.14-0.62,6.38-0.07" transform="matrix(1,0,0,1,1396,-4)" class="stroke_order_diagram--existing_path"></path><path id="pathSk2v596cn1rl9" kvg:type="㇑" d="M16.9,76.67c0.77,0.55,1.19,1.32,1.27,2.29c0.67,2.34,1.44,6.12,2.26,9.5c0.39,1.6,0.71,3.11,0.92,4.33" transform="matrix(1,0,0,1,1396,-4)" class="stroke_order_diagram--existing_path"></path><path id="pathSk2v596cn1rla" kvg:type="㇕b" d="M19.05,77.99c7.91-1.51,17.89-3.35,22.85-4.09c2.75-0.41,4.36,0.14,3.55,3.12c-0.72,2.65-1.1,4.23-2.57,8.16" transform="matrix(1,0,0,1,1396,-4)" class="stroke_order_diagram--existing_path"></path><path id="pathSk2v596cn1rlb" kvg:type="㇐b" d="M22.38,89.38c3.43-0.44,13.2-1.99,19.62-2.86c1.48-0.2,2.78-0.37,3.79-0.47" transform="matrix(1,0,0,1,1396,-4)" class="stroke_order_diagram--existing_path"></path><path id="pathSk2v596cn1rlc" kvg:type="㇐" d="M54.12,47.36c1.9,0.86,4.61,0.63,6.61,0.31c6.03-0.94,14.38-2.74,20.14-3.56c2.27-0.32,3.89-0.22,6.13,0.34" transform="matrix(1,0,0,1,1396,-4)" class="stroke_order_diagram--existing_path"></path><path id="pathSk2v596cn1rld" kvg:type="㇒" d="M66.82,19c0.59,1.06,0.95,2.1,1.03,4.2C68.88,50.65,65.25,80.25,47,93.25" transform="matrix(1,0,0,1,1396,-4)" class="stroke_order_diagram--existing_path"></path><path id="kvg:07363-s15" kvg:type="㇏" d="M67,48.88c4.75,11.25,12.5,24.38,20.47,34.52c1.76,2.24,4.03,5.36,7.03,7.36" transform="matrix(1,0,0,1,1396,-4)" class="stroke_order_diagram--current_path"></path><path id="pathSk2v596cn1rlf" kvg:type="㇏" d="M67,48.88c4.75,11.25,12.5,24.38,20.47,34.52c1.76,2.24,4.03,5.36,7.03,7.36" transform="matrix(1,0,0,1,1396,-4)" class="stroke_order_diagram--current_path"></path><circle cx="67" cy="48.88" r="8" class="stroke_order_diagram--path_start" transform="matrix(1,0,0,1,1396,-4)"></circle><line x1="1550" x2="1550" y1="1" y2="99" class="stroke_order_diagram--guide_line"></line><line x1="1599" x2="1599" y1="1" y2="99" class="stroke_order_diagram--bounding_box"></line><path id="pathSk2v596cn1rli" kvg:type="㇔" d="M12,22.91c3.02,3.35,6.25,9.22,6.69,10.9" transform="matrix(1,0,0,1,1496,-4)" class="stroke_order_diagram--existing_path"></path><path id="pathSk2v596cn1rlj" kvg:type="㇔" d="M26.62,20.25c1.54,2.17,5.25,7.85,5.87,11.37" transform="matrix(1,0,0,1,1496,-4)" class="stroke_order_diagram--existing_path"></path><path id="pathSk2v596cn1rlk" kvg:type="㇒" d="M46.16,18.69c0.4,0.68,0.43,1.73-0.15,2.99c-1.01,2.2-4.09,6.76-5.49,8.81" transform="matrix(1,0,0,1,1496,-4)" class="stroke_order_diagram--existing_path"></path><path id="pathSk2v596cn1rll" kvg:type="㇑" d="M15.55,41.27c0.72,0.72,1.02,1.59,1.33,2.98c1,4.5,1.67,8.85,2.34,13.97c0.17,1.33,0.32,2.63,0.43,3.86" transform="matrix(1,0,0,1,1496,-4)" class="stroke_order_diagram--existing_path"></path><path id="pathSk2v596cn1rlm" kvg:type="㇕a" d="M17.09,42.48c8.78-1.98,18.01-3.45,24.53-4.51c4.27-0.7,6.5-0.79,5.98,4.16c-0.36,3.49-0.91,8.43-1.83,12.88c-0.25,1.18-0.52,2.33-0.82,3.41" transform="matrix(1,0,0,1,1496,-4)" class="stroke_order_diagram--existing_path"></path><path id="pathSk2v596cn1rln" kvg:type="㇑a" d="M31.09,41.16c0.75,0.75,0.97,1.74,0.97,3.09C32.08,49.27,32,53.12,32,57.12" transform="matrix(1,0,0,1,1496,-4)" class="stroke_order_diagram--existing_path"></path><path id="pathSk2v596cn1rlo" kvg:type="㇐a" d="M19.26,51.06c7.61-1.31,19.24-2.81,26.39-3.43" transform="matrix(1,0,0,1,1496,-4)" class="stroke_order_diagram--existing_path"></path><path id="pathSk2v596cn1rlp" kvg:type="㇐a" d="M20.8,60.04c5.65-0.65,13.95-1.92,23.22-2.73" transform="matrix(1,0,0,1,1496,-4)" class="stroke_order_diagram--existing_path"></path><path id="pathSk2v596cn1rlq" kvg:type="㇐" d="M10.25,68.89c1.88,0.76,4.07,0.38,5.99,0.09c8.13-1.23,19.88-3.1,28.63-3.9c2.28-0.21,4.14-0.62,6.38-0.07" transform="matrix(1,0,0,1,1496,-4)" class="stroke_order_diagram--existing_path"></path><path id="pathSk2v596cn1rlr" kvg:type="㇑" d="M16.9,76.67c0.77,0.55,1.19,1.32,1.27,2.29c0.67,2.34,1.44,6.12,2.26,9.5c0.39,1.6,0.71,3.11,0.92,4.33" transform="matrix(1,0,0,1,1496,-4)" class="stroke_order_diagram--existing_path"></path><path id="pathSk2v596cn1rls" kvg:type="㇕b" d="M19.05,77.99c7.91-1.51,17.89-3.35,22.85-4.09c2.75-0.41,4.36,0.14,3.55,3.12c-0.72,2.65-1.1,4.23-2.57,8.16" transform="matrix(1,0,0,1,1496,-4)" class="stroke_order_diagram--existing_path"></path><path id="pathSk2v596cn1rlt" kvg:type="㇐b" d="M22.38,89.38c3.43-0.44,13.2-1.99,19.62-2.86c1.48-0.2,2.78-0.37,3.79-0.47" transform="matrix(1,0,0,1,1496,-4)" class="stroke_order_diagram--existing_path"></path><path id="pathSk2v596cn1rlu" kvg:type="㇐" d="M54.12,47.36c1.9,0.86,4.61,0.63,6.61,0.31c6.03-0.94,14.38-2.74,20.14-3.56c2.27-0.32,3.89-0.22,6.13,0.34" transform="matrix(1,0,0,1,1496,-4)" class="stroke_order_diagram--existing_path"></path><path id="pathSk2v596cn1rlv" kvg:type="㇒" d="M66.82,19c0.59,1.06,0.95,2.1,1.03,4.2C68.88,50.65,65.25,80.25,47,93.25" transform="matrix(1,0,0,1,1496,-4)" class="stroke_order_diagram--existing_path"></path><path id="pathSk2v596cn1rlw" kvg:type="㇏" d="M67,48.88c4.75,11.25,12.5,24.38,20.47,34.52c1.76,2.24,4.03,5.36,7.03,7.36" transform="matrix(1,0,0,1,1496,-4)" class="stroke_order_diagram--existing_path"></path><path id="kvg:07363-s16" kvg:type="㇔" d="M76.83,23.25c5,3.15,6.37,5.55,7.92,8.5" transform="matrix(1,0,0,1,1496,-4)" class="stroke_order_diagram--current_path"></path><path id="pathSk2v596cn1rly" kvg:type="㇔" d="M76.83,23.25c5,3.15,6.37,5.55,7.92,8.5" transform="matrix(1,0,0,1,1496,-4)" class="stroke_order_diagram--current_path"></path><circle cx="76.83" cy="23.25" r="8" class="stroke_order_diagram--path_start" transform="matrix(1,0,0,1,1496,-4)"></circle></svg>