<svg style="width: 400px; height: 100px;" viewbox="0 0 400 100"><style>
.stroke_order_diagram--outer_container {
  width: 100%;
  overflow-x: auto;
  overflow-y: hidden;
}

.stroke_order_diagram--guide_line {
  fill: none;
  stroke: #ddd;
  stroke-width: 3;
  stroke-linecap: square;
  stroke-linejoin: square;
  stroke-dasharray:8, 8;
}

.stroke_order_diagram--bounding_box {
  fill: none;
  stroke: #ddd;
  stroke-width: 4;
  stroke-linecap: square;
  stroke-linejoin: square;
}

.stroke_order_diagram--current_path {
  fill: none;
  stroke: #000;
  stroke-width: 6;
  stroke-linecap: round;
  stroke-linejoin: round;
}

.stroke_order_diagram--existing_path {
  fill: none;
  stroke: #aaa;
  stroke-width: 6;
  stroke-linecap: round;
  stroke-linejoin:round;
}

.stroke_order_diagram--path_start {
  fill: rgba(255, 0, 0, 0.7);
  stroke:none
}</style><desc>Created with Snap</desc><defs></defs><line x1="1" x2="399" y1="1" y2="1" class="stroke_order_diagram--bounding_box"></line><line x1="1" x2="1" y1="1" y2="99" class="stroke_order_diagram--bounding_box"></line><line x1="1" x2="399" y1="99" y2="99" class="stroke_order_diagram--bounding_box"></line><line x1="0" x2="400" y1="50" y2="50" class="stroke_order_diagram--guide_line"></line><line x1="50" x2="50" y1="1" y2="99" class="stroke_order_diagram--guide_line"></line><line x1="99" x2="99" y1="1" y2="99" class="stroke_order_diagram--bounding_box"></line><path id="kvg:0738b-s1" kvg:type="㇐" d="M29.5,21.22c2.7,0.62,5.55,0.08,8.24-0.28c10.59-1.42,22.63-2.81,33.26-3.79c3.01-0.27,6.3-0.55,9.25,0.35" transform="matrix(1,0,0,1,-4,-4)" class="stroke_order_diagram--current_path"></path><path id="pathSk2v596cn117" kvg:type="㇐" d="M29.5,21.22c2.7,0.62,5.55,0.08,8.24-0.28c10.59-1.42,22.63-2.81,33.26-3.79c3.01-0.27,6.3-0.55,9.25,0.35" transform="matrix(1,0,0,1,-4,-4)" class="stroke_order_diagram--current_path"></path><circle cx="29.5" cy="21.22" r="8" class="stroke_order_diagram--path_start" transform="matrix(1,0,0,1,-4,-4)"></circle><line x1="150" x2="150" y1="1" y2="99" class="stroke_order_diagram--guide_line"></line><line x1="199" x2="199" y1="1" y2="99" class="stroke_order_diagram--bounding_box"></line><path id="pathSk2v596cn11a" kvg:type="㇐" d="M29.5,21.22c2.7,0.62,5.55,0.08,8.24-0.28c10.59-1.42,22.63-2.81,33.26-3.79c3.01-0.27,6.3-0.55,9.25,0.35" transform="matrix(1,0,0,1,96,-4)" class="stroke_order_diagram--existing_path"></path><path id="kvg:0738b-s2" kvg:type="㇑a" d="M52.4,22c1.92,2.4,1.92,3.83,1.92,5.75c0,12.13-0.02,57.7-0.02,59.75" transform="matrix(1,0,0,1,96,-4)" class="stroke_order_diagram--current_path"></path><path id="pathSk2v596cn11c" kvg:type="㇑a" d="M52.4,22c1.92,2.4,1.92,3.83,1.92,5.75c0,12.13-0.02,57.7-0.02,59.75" transform="matrix(1,0,0,1,96,-4)" class="stroke_order_diagram--current_path"></path><circle cx="52.4" cy="22" r="8" class="stroke_order_diagram--path_start" transform="matrix(1,0,0,1,96,-4)"></circle><line x1="250" x2="250" y1="1" y2="99" class="stroke_order_diagram--guide_line"></line><line x1="299" x2="299" y1="1" y2="99" class="stroke_order_diagram--bounding_box"></line><path id="pathSk2v596cn11f" kvg:type="㇐" d="M29.5,21.22c2.7,0.62,5.55,0.08,8.24-0.28c10.59-1.42,22.63-2.81,33.26-3.79c3.01-0.27,6.3-0.55,9.25,0.35" transform="matrix(1,0,0,1,196,-4)" class="stroke_order_diagram--existing_path"></path><path id="pathSk2v596cn11g" kvg:type="㇑a" d="M52.4,22c1.92,2.4,1.92,3.83,1.92,5.75c0,12.13-0.02,57.7-0.02,59.75" transform="matrix(1,0,0,1,196,-4)" class="stroke_order_diagram--existing_path"></path><path id="kvg:0738b-s3" kvg:type="㇐" d="M29.25,55c2.62,0.49,5.24,0.3,7.87,0.08c10.32-0.87,22.57-2.65,34.75-3.65c2.95-0.24,5.81-0.27,8.76,0.07" transform="matrix(1,0,0,1,196,-4)" class="stroke_order_diagram--current_path"></path><path id="pathSk2v596cn11i" kvg:type="㇐" d="M29.25,55c2.62,0.49,5.24,0.3,7.87,0.08c10.32-0.87,22.57-2.65,34.75-3.65c2.95-0.24,5.81-0.27,8.76,0.07" transform="matrix(1,0,0,1,196,-4)" class="stroke_order_diagram--current_path"></path><circle cx="29.25" cy="55" r="8" class="stroke_order_diagram--path_start" transform="matrix(1,0,0,1,196,-4)"></circle><line x1="350" x2="350" y1="1" y2="99" class="stroke_order_diagram--guide_line"></line><line x1="399" x2="399" y1="1" y2="99" class="stroke_order_diagram--bounding_box"></line><path id="pathSk2v596cn11l" kvg:type="㇐" d="M29.5,21.22c2.7,0.62,5.55,0.08,8.24-0.28c10.59-1.42,22.63-2.81,33.26-3.79c3.01-0.27,6.3-0.55,9.25,0.35" transform="matrix(1,0,0,1,296,-4)" class="stroke_order_diagram--existing_path"></path><path id="pathSk2v596cn11m" kvg:type="㇑a" d="M52.4,22c1.92,2.4,1.92,3.83,1.92,5.75c0,12.13-0.02,57.7-0.02,59.75" transform="matrix(1,0,0,1,296,-4)" class="stroke_order_diagram--existing_path"></path><path id="pathSk2v596cn11n" kvg:type="㇐" d="M29.25,55c2.62,0.49,5.24,0.3,7.87,0.08c10.32-0.87,22.57-2.65,34.75-3.65c2.95-0.24,5.81-0.27,8.76,0.07" transform="matrix(1,0,0,1,296,-4)" class="stroke_order_diagram--existing_path"></path><path id="kvg:0738b-s4" kvg:type="㇐" d="M13.75,90.99c4.12,0.7,8.14,0.15,12.25-0.29c17.42-1.86,39.2-3.8,59.5-4.61c3.47-0.14,6.86-0.25,10.25,0.65" transform="matrix(1,0,0,1,296,-4)" class="stroke_order_diagram--current_path"></path><path id="pathSk2v596cn11p" kvg:type="㇐" d="M13.75,90.99c4.12,0.7,8.14,0.15,12.25-0.29c17.42-1.86,39.2-3.8,59.5-4.61c3.47-0.14,6.86-0.25,10.25,0.65" transform="matrix(1,0,0,1,296,-4)" class="stroke_order_diagram--current_path"></path><circle cx="13.75" cy="90.99" r="8" class="stroke_order_diagram--path_start" transform="matrix(1,0,0,1,296,-4)"></circle></svg>