<svg style="width: 500px; height: 100px;" viewbox="0 0 500 100"><style>
.stroke_order_diagram--outer_container {
  width: 100%;
  overflow-x: auto;
  overflow-y: hidden;
}

.stroke_order_diagram--guide_line {
  fill: none;
  stroke: #ddd;
  stroke-width: 3;
  stroke-linecap: square;
  stroke-linejoin: square;
  stroke-dasharray:8, 8;
}

.stroke_order_diagram--bounding_box {
  fill: none;
  stroke: #ddd;
  stroke-width: 4;
  stroke-linecap: square;
  stroke-linejoin: square;
}

.stroke_order_diagram--current_path {
  fill: none;
  stroke: #000;
  stroke-width: 6;
  stroke-linecap: round;
  stroke-linejoin: round;
}

.stroke_order_diagram--existing_path {
  fill: none;
  stroke: #aaa;
  stroke-width: 6;
  stroke-linecap: round;
  stroke-linejoin:round;
}

.stroke_order_diagram--path_start {
  fill: rgba(255, 0, 0, 0.7);
  stroke:none
}</style><desc>Created with Snap</desc><defs></defs><line x1="1" x2="499" y1="1" y2="1" class="stroke_order_diagram--bounding_box"></line><line x1="1" x2="1" y1="1" y2="99" class="stroke_order_diagram--bounding_box"></line><line x1="1" x2="499" y1="99" y2="99" class="stroke_order_diagram--bounding_box"></line><line x1="0" x2="500" y1="50" y2="50" class="stroke_order_diagram--guide_line"></line><line x1="50" x2="50" y1="1" y2="99" class="stroke_order_diagram--guide_line"></line><line x1="99" x2="99" y1="1" y2="99" class="stroke_order_diagram--bounding_box"></line><path id="kvg:07530-s1" kvg:type="㇑" d="M18.25,27.48c1.2,1.2,2.11,2.68,2.28,3.95C22,42.25,23.52,62.11,24.81,80c0.17,2.4,0.34,3.75,0.49,6" transform="matrix(1,0,0,1,-4,-4)" class="stroke_order_diagram--current_path"></path><path id="pathSk2v596cn124" kvg:type="㇑" d="M18.25,27.48c1.2,1.2,2.11,2.68,2.28,3.95C22,42.25,23.52,62.11,24.81,80c0.17,2.4,0.34,3.75,0.49,6" transform="matrix(1,0,0,1,-4,-4)" class="stroke_order_diagram--current_path"></path><circle cx="18.25" cy="27.48" r="8" class="stroke_order_diagram--path_start" transform="matrix(1,0,0,1,-4,-4)"></circle><line x1="150" x2="150" y1="1" y2="99" class="stroke_order_diagram--guide_line"></line><line x1="199" x2="199" y1="1" y2="99" class="stroke_order_diagram--bounding_box"></line><path id="pathSk2v596cn127" kvg:type="㇑" d="M18.25,27.48c1.2,1.2,2.11,2.68,2.28,3.95C22,42.25,23.52,62.11,24.81,80c0.17,2.4,0.34,3.75,0.49,6" transform="matrix(1,0,0,1,96,-4)" class="stroke_order_diagram--existing_path"></path><path id="kvg:07530-s2" kvg:type="㇕a" d="M20.85,29.29c8.52-0.54,50.04-3.17,61.58-4.05c4.84-0.37,7.32,2.01,7.04,5.63c-0.69,8.8-2.83,30.69-3.99,46.64c-0.18,2.44-0.34,4.75-0.47,6.86" transform="matrix(1,0,0,1,96,-4)" class="stroke_order_diagram--current_path"></path><path id="pathSk2v596cn129" kvg:type="㇕a" d="M20.85,29.29c8.52-0.54,50.04-3.17,61.58-4.05c4.84-0.37,7.32,2.01,7.04,5.63c-0.69,8.8-2.83,30.69-3.99,46.64c-0.18,2.44-0.34,4.75-0.47,6.86" transform="matrix(1,0,0,1,96,-4)" class="stroke_order_diagram--current_path"></path><circle cx="20.85" cy="29.29" r="8" class="stroke_order_diagram--path_start" transform="matrix(1,0,0,1,96,-4)"></circle><line x1="250" x2="250" y1="1" y2="99" class="stroke_order_diagram--guide_line"></line><line x1="299" x2="299" y1="1" y2="99" class="stroke_order_diagram--bounding_box"></line><path id="pathSk2v596cn12c" kvg:type="㇑" d="M18.25,27.48c1.2,1.2,2.11,2.68,2.28,3.95C22,42.25,23.52,62.11,24.81,80c0.17,2.4,0.34,3.75,0.49,6" transform="matrix(1,0,0,1,196,-4)" class="stroke_order_diagram--existing_path"></path><path id="pathSk2v596cn12d" kvg:type="㇕a" d="M20.85,29.29c8.52-0.54,50.04-3.17,61.58-4.05c4.84-0.37,7.32,2.01,7.04,5.63c-0.69,8.8-2.83,30.69-3.99,46.64c-0.18,2.44-0.34,4.75-0.47,6.86" transform="matrix(1,0,0,1,196,-4)" class="stroke_order_diagram--existing_path"></path><path id="kvg:07530-s3" kvg:type="㇑a" d="M53.25,29c0.88,0.88,1.19,2.12,1.19,3.5c0,9.52,0.31,46.37,0.31,47.25" transform="matrix(1,0,0,1,196,-4)" class="stroke_order_diagram--current_path"></path><path id="pathSk2v596cn12f" kvg:type="㇑a" d="M53.25,29c0.88,0.88,1.19,2.12,1.19,3.5c0,9.52,0.31,46.37,0.31,47.25" transform="matrix(1,0,0,1,196,-4)" class="stroke_order_diagram--current_path"></path><circle cx="53.25" cy="29" r="8" class="stroke_order_diagram--path_start" transform="matrix(1,0,0,1,196,-4)"></circle><line x1="350" x2="350" y1="1" y2="99" class="stroke_order_diagram--guide_line"></line><line x1="399" x2="399" y1="1" y2="99" class="stroke_order_diagram--bounding_box"></line><path id="pathSk2v596cn12i" kvg:type="㇑" d="M18.25,27.48c1.2,1.2,2.11,2.68,2.28,3.95C22,42.25,23.52,62.11,24.81,80c0.17,2.4,0.34,3.75,0.49,6" transform="matrix(1,0,0,1,296,-4)" class="stroke_order_diagram--existing_path"></path><path id="pathSk2v596cn12j" kvg:type="㇕a" d="M20.85,29.29c8.52-0.54,50.04-3.17,61.58-4.05c4.84-0.37,7.32,2.01,7.04,5.63c-0.69,8.8-2.83,30.69-3.99,46.64c-0.18,2.44-0.34,4.75-0.47,6.86" transform="matrix(1,0,0,1,296,-4)" class="stroke_order_diagram--existing_path"></path><path id="pathSk2v596cn12k" kvg:type="㇑a" d="M53.25,29c0.88,0.88,1.19,2.12,1.19,3.5c0,9.52,0.31,46.37,0.31,47.25" transform="matrix(1,0,0,1,296,-4)" class="stroke_order_diagram--existing_path"></path><path id="kvg:07530-s4" kvg:type="㇐a" d="M24,55.5c5.75-0.5,55.12-3.25,62.5-3.5" transform="matrix(1,0,0,1,296,-4)" class="stroke_order_diagram--current_path"></path><path id="pathSk2v596cn12m" kvg:type="㇐a" d="M24,55.5c5.75-0.5,55.12-3.25,62.5-3.5" transform="matrix(1,0,0,1,296,-4)" class="stroke_order_diagram--current_path"></path><circle cx="24" cy="55.5" r="8" class="stroke_order_diagram--path_start" transform="matrix(1,0,0,1,296,-4)"></circle><line x1="450" x2="450" y1="1" y2="99" class="stroke_order_diagram--guide_line"></line><line x1="499" x2="499" y1="1" y2="99" class="stroke_order_diagram--bounding_box"></line><path id="pathSk2v596cn12p" kvg:type="㇑" d="M18.25,27.48c1.2,1.2,2.11,2.68,2.28,3.95C22,42.25,23.52,62.11,24.81,80c0.17,2.4,0.34,3.75,0.49,6" transform="matrix(1,0,0,1,396,-4)" class="stroke_order_diagram--existing_path"></path><path id="pathSk2v596cn12q" kvg:type="㇕a" d="M20.85,29.29c8.52-0.54,50.04-3.17,61.58-4.05c4.84-0.37,7.32,2.01,7.04,5.63c-0.69,8.8-2.83,30.69-3.99,46.64c-0.18,2.44-0.34,4.75-0.47,6.86" transform="matrix(1,0,0,1,396,-4)" class="stroke_order_diagram--existing_path"></path><path id="pathSk2v596cn12r" kvg:type="㇑a" d="M53.25,29c0.88,0.88,1.19,2.12,1.19,3.5c0,9.52,0.31,46.37,0.31,47.25" transform="matrix(1,0,0,1,396,-4)" class="stroke_order_diagram--existing_path"></path><path id="pathSk2v596cn12s" kvg:type="㇐a" d="M24,55.5c5.75-0.5,55.12-3.25,62.5-3.5" transform="matrix(1,0,0,1,396,-4)" class="stroke_order_diagram--existing_path"></path><path id="kvg:07530-s5" kvg:type="㇐a" d="M25.98,83.07c14.77-0.82,39.39-2.07,58.18-2.83" transform="matrix(1,0,0,1,396,-4)" class="stroke_order_diagram--current_path"></path><path id="pathSk2v596cn12u" kvg:type="㇐a" d="M25.98,83.07c14.77-0.82,39.39-2.07,58.18-2.83" transform="matrix(1,0,0,1,396,-4)" class="stroke_order_diagram--current_path"></path><circle cx="25.98" cy="83.07" r="8" class="stroke_order_diagram--path_start" transform="matrix(1,0,0,1,396,-4)"></circle></svg>