<svg style="width: 900px; height: 100px;" viewbox="0 0 900 100"><style>
.stroke_order_diagram--outer_container {
  width: 100%;
  overflow-x: auto;
  overflow-y: hidden;
}

.stroke_order_diagram--guide_line {
  fill: none;
  stroke: #ddd;
  stroke-width: 3;
  stroke-linecap: square;
  stroke-linejoin: square;
  stroke-dasharray:8, 8;
}

.stroke_order_diagram--bounding_box {
  fill: none;
  stroke: #ddd;
  stroke-width: 4;
  stroke-linecap: square;
  stroke-linejoin: square;
}

.stroke_order_diagram--current_path {
  fill: none;
  stroke: #000;
  stroke-width: 6;
  stroke-linecap: round;
  stroke-linejoin: round;
}

.stroke_order_diagram--existing_path {
  fill: none;
  stroke: #aaa;
  stroke-width: 6;
  stroke-linecap: round;
  stroke-linejoin:round;
}

.stroke_order_diagram--path_start {
  fill: rgba(255, 0, 0, 0.7);
  stroke:none
}</style><desc>Created with Snap</desc><defs></defs><line x1="1" x2="899" y1="1" y2="1" class="stroke_order_diagram--bounding_box"></line><line x1="1" x2="1" y1="1" y2="99" class="stroke_order_diagram--bounding_box"></line><line x1="1" x2="899" y1="99" y2="99" class="stroke_order_diagram--bounding_box"></line><line x1="0" x2="900" y1="50" y2="50" class="stroke_order_diagram--guide_line"></line><line x1="50" x2="50" y1="1" y2="99" class="stroke_order_diagram--guide_line"></line><line x1="99" x2="99" y1="1" y2="99" class="stroke_order_diagram--bounding_box"></line><path id="kvg:07551-s1" kvg:type="㇔" d="M13.38,38.38c2.37,2.82,5.81,10.81,6.46,13.62" transform="matrix(1,0,0,1,-4,-4)" class="stroke_order_diagram--current_path"></path><path id="pathSk2v596cn334s" kvg:type="㇔" d="M13.38,38.38c2.37,2.82,5.81,10.81,6.46,13.62" transform="matrix(1,0,0,1,-4,-4)" class="stroke_order_diagram--current_path"></path><circle cx="13.38" cy="38.38" r="8" class="stroke_order_diagram--path_start" transform="matrix(1,0,0,1,-4,-4)"></circle><line x1="150" x2="150" y1="1" y2="99" class="stroke_order_diagram--guide_line"></line><line x1="199" x2="199" y1="1" y2="99" class="stroke_order_diagram--bounding_box"></line><path id="pathSk2v596cn334v" kvg:type="㇔" d="M13.38,38.38c2.37,2.82,5.81,10.81,6.46,13.62" transform="matrix(1,0,0,1,96,-4)" class="stroke_order_diagram--existing_path"></path><path id="kvg:07551-s2" kvg:type="㇒" d="M42.15,29.5c0.35,1.12,0.4,2.24-0.18,3.59c-0.97,2.29-6.41,11.05-9.5,14.16" transform="matrix(1,0,0,1,96,-4)" class="stroke_order_diagram--current_path"></path><path id="pathSk2v596cn334x" kvg:type="㇒" d="M42.15,29.5c0.35,1.12,0.4,2.24-0.18,3.59c-0.97,2.29-6.41,11.05-9.5,14.16" transform="matrix(1,0,0,1,96,-4)" class="stroke_order_diagram--current_path"></path><circle cx="42.15" cy="29.5" r="8" class="stroke_order_diagram--path_start" transform="matrix(1,0,0,1,96,-4)"></circle><line x1="250" x2="250" y1="1" y2="99" class="stroke_order_diagram--guide_line"></line><line x1="299" x2="299" y1="1" y2="99" class="stroke_order_diagram--bounding_box"></line><path id="pathSk2v596cn3350" kvg:type="㇔" d="M13.38,38.38c2.37,2.82,5.81,10.81,6.46,13.62" transform="matrix(1,0,0,1,196,-4)" class="stroke_order_diagram--existing_path"></path><path id="pathSk2v596cn3351" kvg:type="㇒" d="M42.15,29.5c0.35,1.12,0.4,2.24-0.18,3.59c-0.97,2.29-6.41,11.05-9.5,14.16" transform="matrix(1,0,0,1,196,-4)" class="stroke_order_diagram--existing_path"></path><path id="kvg:07551-s3" kvg:type="㇒" d="M28.5,17.25c0.77,0.75,0.97,1.75,1.03,3c2.09,46-3.28,61.62-17.53,73.5" transform="matrix(1,0,0,1,196,-4)" class="stroke_order_diagram--current_path"></path><path id="pathSk2v596cn3353" kvg:type="㇒" d="M28.5,17.25c0.77,0.75,0.97,1.75,1.03,3c2.09,46-3.28,61.62-17.53,73.5" transform="matrix(1,0,0,1,196,-4)" class="stroke_order_diagram--current_path"></path><circle cx="28.5" cy="17.25" r="8" class="stroke_order_diagram--path_start" transform="matrix(1,0,0,1,196,-4)"></circle><line x1="350" x2="350" y1="1" y2="99" class="stroke_order_diagram--guide_line"></line><line x1="399" x2="399" y1="1" y2="99" class="stroke_order_diagram--bounding_box"></line><path id="pathSk2v596cn3356" kvg:type="㇔" d="M13.38,38.38c2.37,2.82,5.81,10.81,6.46,13.62" transform="matrix(1,0,0,1,296,-4)" class="stroke_order_diagram--existing_path"></path><path id="pathSk2v596cn3357" kvg:type="㇒" d="M42.15,29.5c0.35,1.12,0.4,2.24-0.18,3.59c-0.97,2.29-6.41,11.05-9.5,14.16" transform="matrix(1,0,0,1,296,-4)" class="stroke_order_diagram--existing_path"></path><path id="pathSk2v596cn3358" kvg:type="㇒" d="M28.5,17.25c0.77,0.75,0.97,1.75,1.03,3c2.09,46-3.28,61.62-17.53,73.5" transform="matrix(1,0,0,1,296,-4)" class="stroke_order_diagram--existing_path"></path><path id="kvg:07551-s4" kvg:type="㇔/㇏" d="M31.25,66.75c4.45,2.96,10.08,12.31,11.25,16.5" transform="matrix(1,0,0,1,296,-4)" class="stroke_order_diagram--current_path"></path><path id="pathSk2v596cn335a" kvg:type="㇔/㇏" d="M31.25,66.75c4.45,2.96,10.08,12.31,11.25,16.5" transform="matrix(1,0,0,1,296,-4)" class="stroke_order_diagram--current_path"></path><circle cx="31.25" cy="66.75" r="8" class="stroke_order_diagram--path_start" transform="matrix(1,0,0,1,296,-4)"></circle><line x1="450" x2="450" y1="1" y2="99" class="stroke_order_diagram--guide_line"></line><line x1="499" x2="499" y1="1" y2="99" class="stroke_order_diagram--bounding_box"></line><path id="pathSk2v596cn335d" kvg:type="㇔" d="M13.38,38.38c2.37,2.82,5.81,10.81,6.46,13.62" transform="matrix(1,0,0,1,396,-4)" class="stroke_order_diagram--existing_path"></path><path id="pathSk2v596cn335e" kvg:type="㇒" d="M42.15,29.5c0.35,1.12,0.4,2.24-0.18,3.59c-0.97,2.29-6.41,11.05-9.5,14.16" transform="matrix(1,0,0,1,396,-4)" class="stroke_order_diagram--existing_path"></path><path id="pathSk2v596cn335f" kvg:type="㇒" d="M28.5,17.25c0.77,0.75,0.97,1.75,1.03,3c2.09,46-3.28,61.62-17.53,73.5" transform="matrix(1,0,0,1,396,-4)" class="stroke_order_diagram--existing_path"></path><path id="pathSk2v596cn335g" kvg:type="㇔/㇏" d="M31.25,66.75c4.45,2.96,10.08,12.31,11.25,16.5" transform="matrix(1,0,0,1,396,-4)" class="stroke_order_diagram--existing_path"></path><path id="kvg:07551-s5" kvg:type="㇑" d="M53,32.94c1.09,1.09,1.65,2.7,1.71,3.78c0.62,12.35,0.88,27.26,1.38,42.53c0.04,1.16,0.08,2.31,0.12,3.47" transform="matrix(1,0,0,1,396,-4)" class="stroke_order_diagram--current_path"></path><path id="pathSk2v596cn335i" kvg:type="㇑" d="M53,32.94c1.09,1.09,1.65,2.7,1.71,3.78c0.62,12.35,0.88,27.26,1.38,42.53c0.04,1.16,0.08,2.31,0.12,3.47" transform="matrix(1,0,0,1,396,-4)" class="stroke_order_diagram--current_path"></path><circle cx="53" cy="32.94" r="8" class="stroke_order_diagram--path_start" transform="matrix(1,0,0,1,396,-4)"></circle><line x1="550" x2="550" y1="1" y2="99" class="stroke_order_diagram--guide_line"></line><line x1="599" x2="599" y1="1" y2="99" class="stroke_order_diagram--bounding_box"></line><path id="pathSk2v596cn335l" kvg:type="㇔" d="M13.38,38.38c2.37,2.82,5.81,10.81,6.46,13.62" transform="matrix(1,0,0,1,496,-4)" class="stroke_order_diagram--existing_path"></path><path id="pathSk2v596cn335m" kvg:type="㇒" d="M42.15,29.5c0.35,1.12,0.4,2.24-0.18,3.59c-0.97,2.29-6.41,11.05-9.5,14.16" transform="matrix(1,0,0,1,496,-4)" class="stroke_order_diagram--existing_path"></path><path id="pathSk2v596cn335n" kvg:type="㇒" d="M28.5,17.25c0.77,0.75,0.97,1.75,1.03,3c2.09,46-3.28,61.62-17.53,73.5" transform="matrix(1,0,0,1,496,-4)" class="stroke_order_diagram--existing_path"></path><path id="pathSk2v596cn335o" kvg:type="㇔/㇏" d="M31.25,66.75c4.45,2.96,10.08,12.31,11.25,16.5" transform="matrix(1,0,0,1,496,-4)" class="stroke_order_diagram--existing_path"></path><path id="pathSk2v596cn335p" kvg:type="㇑" d="M53,32.94c1.09,1.09,1.65,2.7,1.71,3.78c0.62,12.35,0.88,27.26,1.38,42.53c0.04,1.16,0.08,2.31,0.12,3.47" transform="matrix(1,0,0,1,496,-4)" class="stroke_order_diagram--existing_path"></path><path id="kvg:07551-s6" kvg:type="㇕a" d="M54.88,34.77c10.39-0.89,28.19-2.9,35.95-3.76c2.85-0.32,4.3,2.25,4.14,4.62c-0.51,7.82-1.75,29.09-2.96,40.9c-0.13,1.31-0.27,2.52-0.41,3.58" transform="matrix(1,0,0,1,496,-4)" class="stroke_order_diagram--current_path"></path><path id="pathSk2v596cn335r" kvg:type="㇕a" d="M54.88,34.77c10.39-0.89,28.19-2.9,35.95-3.76c2.85-0.32,4.3,2.25,4.14,4.62c-0.51,7.82-1.75,29.09-2.96,40.9c-0.13,1.31-0.27,2.52-0.41,3.58" transform="matrix(1,0,0,1,496,-4)" class="stroke_order_diagram--current_path"></path><circle cx="54.88" cy="34.77" r="8" class="stroke_order_diagram--path_start" transform="matrix(1,0,0,1,496,-4)"></circle><line x1="650" x2="650" y1="1" y2="99" class="stroke_order_diagram--guide_line"></line><line x1="699" x2="699" y1="1" y2="99" class="stroke_order_diagram--bounding_box"></line><path id="pathSk2v596cn335u" kvg:type="㇔" d="M13.38,38.38c2.37,2.82,5.81,10.81,6.46,13.62" transform="matrix(1,0,0,1,596,-4)" class="stroke_order_diagram--existing_path"></path><path id="pathSk2v596cn335v" kvg:type="㇒" d="M42.15,29.5c0.35,1.12,0.4,2.24-0.18,3.59c-0.97,2.29-6.41,11.05-9.5,14.16" transform="matrix(1,0,0,1,596,-4)" class="stroke_order_diagram--existing_path"></path><path id="pathSk2v596cn335w" kvg:type="㇒" d="M28.5,17.25c0.77,0.75,0.97,1.75,1.03,3c2.09,46-3.28,61.62-17.53,73.5" transform="matrix(1,0,0,1,596,-4)" class="stroke_order_diagram--existing_path"></path><path id="pathSk2v596cn335x" kvg:type="㇔/㇏" d="M31.25,66.75c4.45,2.96,10.08,12.31,11.25,16.5" transform="matrix(1,0,0,1,596,-4)" class="stroke_order_diagram--existing_path"></path><path id="pathSk2v596cn335y" kvg:type="㇑" d="M53,32.94c1.09,1.09,1.65,2.7,1.71,3.78c0.62,12.35,0.88,27.26,1.38,42.53c0.04,1.16,0.08,2.31,0.12,3.47" transform="matrix(1,0,0,1,596,-4)" class="stroke_order_diagram--existing_path"></path><path id="pathSk2v596cn335z" kvg:type="㇕a" d="M54.88,34.77c10.39-0.89,28.19-2.9,35.95-3.76c2.85-0.32,4.3,2.25,4.14,4.62c-0.51,7.82-1.75,29.09-2.96,40.9c-0.13,1.31-0.27,2.52-0.41,3.58" transform="matrix(1,0,0,1,596,-4)" class="stroke_order_diagram--existing_path"></path><path id="kvg:07551-s7" kvg:type="㇑a" d="M72.14,34.52c1.29,1.29,1.96,3.28,1.96,5.24c-0.02,10.77,0.19,34.89,0.19,38.52" transform="matrix(1,0,0,1,596,-4)" class="stroke_order_diagram--current_path"></path><path id="pathSk2v596cn3361" kvg:type="㇑a" d="M72.14,34.52c1.29,1.29,1.96,3.28,1.96,5.24c-0.02,10.77,0.19,34.89,0.19,38.52" transform="matrix(1,0,0,1,596,-4)" class="stroke_order_diagram--current_path"></path><circle cx="72.14" cy="34.52" r="8" class="stroke_order_diagram--path_start" transform="matrix(1,0,0,1,596,-4)"></circle><line x1="750" x2="750" y1="1" y2="99" class="stroke_order_diagram--guide_line"></line><line x1="799" x2="799" y1="1" y2="99" class="stroke_order_diagram--bounding_box"></line><path id="pathSk2v596cn3364" kvg:type="㇔" d="M13.38,38.38c2.37,2.82,5.81,10.81,6.46,13.62" transform="matrix(1,0,0,1,696,-4)" class="stroke_order_diagram--existing_path"></path><path id="pathSk2v596cn3365" kvg:type="㇒" d="M42.15,29.5c0.35,1.12,0.4,2.24-0.18,3.59c-0.97,2.29-6.41,11.05-9.5,14.16" transform="matrix(1,0,0,1,696,-4)" class="stroke_order_diagram--existing_path"></path><path id="pathSk2v596cn3366" kvg:type="㇒" d="M28.5,17.25c0.77,0.75,0.97,1.75,1.03,3c2.09,46-3.28,61.62-17.53,73.5" transform="matrix(1,0,0,1,696,-4)" class="stroke_order_diagram--existing_path"></path><path id="pathSk2v596cn3367" kvg:type="㇔/㇏" d="M31.25,66.75c4.45,2.96,10.08,12.31,11.25,16.5" transform="matrix(1,0,0,1,696,-4)" class="stroke_order_diagram--existing_path"></path><path id="pathSk2v596cn3368" kvg:type="㇑" d="M53,32.94c1.09,1.09,1.65,2.7,1.71,3.78c0.62,12.35,0.88,27.26,1.38,42.53c0.04,1.16,0.08,2.31,0.12,3.47" transform="matrix(1,0,0,1,696,-4)" class="stroke_order_diagram--existing_path"></path><path id="pathSk2v596cn3369" kvg:type="㇕a" d="M54.88,34.77c10.39-0.89,28.19-2.9,35.95-3.76c2.85-0.32,4.3,2.25,4.14,4.62c-0.51,7.82-1.75,29.09-2.96,40.9c-0.13,1.31-0.27,2.52-0.41,3.58" transform="matrix(1,0,0,1,696,-4)" class="stroke_order_diagram--existing_path"></path><path id="pathSk2v596cn336a" kvg:type="㇑a" d="M72.14,34.52c1.29,1.29,1.96,3.28,1.96,5.24c-0.02,10.77,0.19,34.89,0.19,38.52" transform="matrix(1,0,0,1,696,-4)" class="stroke_order_diagram--existing_path"></path><path id="kvg:07551-s8" kvg:type="㇐a" d="M56.74,56.48c5.39-0.73,31.39-2.73,35.65-2.75" transform="matrix(1,0,0,1,696,-4)" class="stroke_order_diagram--current_path"></path><path id="pathSk2v596cn336c" kvg:type="㇐a" d="M56.74,56.48c5.39-0.73,31.39-2.73,35.65-2.75" transform="matrix(1,0,0,1,696,-4)" class="stroke_order_diagram--current_path"></path><circle cx="56.74" cy="56.48" r="8" class="stroke_order_diagram--path_start" transform="matrix(1,0,0,1,696,-4)"></circle><line x1="850" x2="850" y1="1" y2="99" class="stroke_order_diagram--guide_line"></line><line x1="899" x2="899" y1="1" y2="99" class="stroke_order_diagram--bounding_box"></line><path id="pathSk2v596cn336f" kvg:type="㇔" d="M13.38,38.38c2.37,2.82,5.81,10.81,6.46,13.62" transform="matrix(1,0,0,1,796,-4)" class="stroke_order_diagram--existing_path"></path><path id="pathSk2v596cn336g" kvg:type="㇒" d="M42.15,29.5c0.35,1.12,0.4,2.24-0.18,3.59c-0.97,2.29-6.41,11.05-9.5,14.16" transform="matrix(1,0,0,1,796,-4)" class="stroke_order_diagram--existing_path"></path><path id="pathSk2v596cn336h" kvg:type="㇒" d="M28.5,17.25c0.77,0.75,0.97,1.75,1.03,3c2.09,46-3.28,61.62-17.53,73.5" transform="matrix(1,0,0,1,796,-4)" class="stroke_order_diagram--existing_path"></path><path id="pathSk2v596cn336i" kvg:type="㇔/㇏" d="M31.25,66.75c4.45,2.96,10.08,12.31,11.25,16.5" transform="matrix(1,0,0,1,796,-4)" class="stroke_order_diagram--existing_path"></path><path id="pathSk2v596cn336j" kvg:type="㇑" d="M53,32.94c1.09,1.09,1.65,2.7,1.71,3.78c0.62,12.35,0.88,27.26,1.38,42.53c0.04,1.16,0.08,2.31,0.12,3.47" transform="matrix(1,0,0,1,796,-4)" class="stroke_order_diagram--existing_path"></path><path id="pathSk2v596cn336k" kvg:type="㇕a" d="M54.88,34.77c10.39-0.89,28.19-2.9,35.95-3.76c2.85-0.32,4.3,2.25,4.14,4.62c-0.51,7.82-1.75,29.09-2.96,40.9c-0.13,1.31-0.27,2.52-0.41,3.58" transform="matrix(1,0,0,1,796,-4)" class="stroke_order_diagram--existing_path"></path><path id="pathSk2v596cn336l" kvg:type="㇑a" d="M72.14,34.52c1.29,1.29,1.96,3.28,1.96,5.24c-0.02,10.77,0.19,34.89,0.19,38.52" transform="matrix(1,0,0,1,796,-4)" class="stroke_order_diagram--existing_path"></path><path id="pathSk2v596cn336m" kvg:type="㇐a" d="M56.74,56.48c5.39-0.73,31.39-2.73,35.65-2.75" transform="matrix(1,0,0,1,796,-4)" class="stroke_order_diagram--existing_path"></path><path id="kvg:07551-s9" kvg:type="㇐a" d="M57.26,80.42c10.99-0.92,18.99-1.92,33.43-2.71" transform="matrix(1,0,0,1,796,-4)" class="stroke_order_diagram--current_path"></path><path id="pathSk2v596cn336o" kvg:type="㇐a" d="M57.26,80.42c10.99-0.92,18.99-1.92,33.43-2.71" transform="matrix(1,0,0,1,796,-4)" class="stroke_order_diagram--current_path"></path><circle cx="57.26" cy="80.42" r="8" class="stroke_order_diagram--path_start" transform="matrix(1,0,0,1,796,-4)"></circle></svg>