<svg style="width: 1000px; height: 100px;" viewbox="0 0 1000 100"><style>
.stroke_order_diagram--outer_container {
  width: 100%;
  overflow-x: auto;
  overflow-y: hidden;
}

.stroke_order_diagram--guide_line {
  fill: none;
  stroke: #ddd;
  stroke-width: 3;
  stroke-linecap: square;
  stroke-linejoin: square;
  stroke-dasharray:8, 8;
}

.stroke_order_diagram--bounding_box {
  fill: none;
  stroke: #ddd;
  stroke-width: 4;
  stroke-linecap: square;
  stroke-linejoin: square;
}

.stroke_order_diagram--current_path {
  fill: none;
  stroke: #000;
  stroke-width: 6;
  stroke-linecap: round;
  stroke-linejoin: round;
}

.stroke_order_diagram--existing_path {
  fill: none;
  stroke: #aaa;
  stroke-width: 6;
  stroke-linecap: round;
  stroke-linejoin:round;
}

.stroke_order_diagram--path_start {
  fill: rgba(255, 0, 0, 0.7);
  stroke:none
}</style><desc>Created with Snap</desc><defs></defs><line x1="1" x2="999" y1="1" y2="1" class="stroke_order_diagram--bounding_box"></line><line x1="1" x2="1" y1="1" y2="99" class="stroke_order_diagram--bounding_box"></line><line x1="1" x2="999" y1="99" y2="99" class="stroke_order_diagram--bounding_box"></line><line x1="0" x2="1000" y1="50" y2="50" class="stroke_order_diagram--guide_line"></line><line x1="50" x2="50" y1="1" y2="99" class="stroke_order_diagram--guide_line"></line><line x1="99" x2="99" y1="1" y2="99" class="stroke_order_diagram--bounding_box"></line><path id="kvg:07559-s1" kvg:type="㇒" d="M41.07,11.69c0,0.69-0.1,1.38-0.94,2.06c-4.01,3.25-8.68,6.14-14.99,9.14" transform="matrix(1,0,0,1,-4,-4)" class="stroke_order_diagram--current_path"></path><path id="pathSk2v596cnynd" kvg:type="㇒" d="M41.07,11.69c0,0.69-0.1,1.38-0.94,2.06c-4.01,3.25-8.68,6.14-14.99,9.14" transform="matrix(1,0,0,1,-4,-4)" class="stroke_order_diagram--current_path"></path><circle cx="41.07" cy="11.69" r="8" class="stroke_order_diagram--path_start" transform="matrix(1,0,0,1,-4,-4)"></circle><line x1="150" x2="150" y1="1" y2="99" class="stroke_order_diagram--guide_line"></line><line x1="199" x2="199" y1="1" y2="99" class="stroke_order_diagram--bounding_box"></line><path id="pathSk2v596cnyng" kvg:type="㇒" d="M41.07,11.69c0,0.69-0.1,1.38-0.94,2.06c-4.01,3.25-8.68,6.14-14.99,9.14" transform="matrix(1,0,0,1,96,-4)" class="stroke_order_diagram--existing_path"></path><path id="kvg:07559-s2" kvg:type="㇙" d="M21.12,23.1c0.77,0.77,1.32,1.4,1.32,2.59c0,0.81,0.15,17.07,0.15,20.95c0,3,0.66,3.62,3.43,1.91c4.93-3.04,13.1-8.41,18.3-11.81" transform="matrix(1,0,0,1,96,-4)" class="stroke_order_diagram--current_path"></path><path id="pathSk2v596cnyni" kvg:type="㇙" d="M21.12,23.1c0.77,0.77,1.32,1.4,1.32,2.59c0,0.81,0.15,17.07,0.15,20.95c0,3,0.66,3.62,3.43,1.91c4.93-3.04,13.1-8.41,18.3-11.81" transform="matrix(1,0,0,1,96,-4)" class="stroke_order_diagram--current_path"></path><circle cx="21.12" cy="23.1" r="8" class="stroke_order_diagram--path_start" transform="matrix(1,0,0,1,96,-4)"></circle><line x1="250" x2="250" y1="1" y2="99" class="stroke_order_diagram--guide_line"></line><line x1="299" x2="299" y1="1" y2="99" class="stroke_order_diagram--bounding_box"></line><path id="pathSk2v596cnynl" kvg:type="㇒" d="M41.07,11.69c0,0.69-0.1,1.38-0.94,2.06c-4.01,3.25-8.68,6.14-14.99,9.14" transform="matrix(1,0,0,1,196,-4)" class="stroke_order_diagram--existing_path"></path><path id="pathSk2v596cnynm" kvg:type="㇙" d="M21.12,23.1c0.77,0.77,1.32,1.4,1.32,2.59c0,0.81,0.15,17.07,0.15,20.95c0,3,0.66,3.62,3.43,1.91c4.93-3.04,13.1-8.41,18.3-11.81" transform="matrix(1,0,0,1,196,-4)" class="stroke_order_diagram--existing_path"></path><path id="kvg:07559-s3" kvg:type="㇔" d="M40.78,29.37C45,34,48.38,39,50.81,44.65" transform="matrix(1,0,0,1,196,-4)" class="stroke_order_diagram--current_path"></path><path id="pathSk2v596cnyno" kvg:type="㇔" d="M40.78,29.37C45,34,48.38,39,50.81,44.65" transform="matrix(1,0,0,1,196,-4)" class="stroke_order_diagram--current_path"></path><circle cx="40.78" cy="29.37" r="8" class="stroke_order_diagram--path_start" transform="matrix(1,0,0,1,196,-4)"></circle><line x1="350" x2="350" y1="1" y2="99" class="stroke_order_diagram--guide_line"></line><line x1="399" x2="399" y1="1" y2="99" class="stroke_order_diagram--bounding_box"></line><path id="pathSk2v596cnynr" kvg:type="㇒" d="M41.07,11.69c0,0.69-0.1,1.38-0.94,2.06c-4.01,3.25-8.68,6.14-14.99,9.14" transform="matrix(1,0,0,1,296,-4)" class="stroke_order_diagram--existing_path"></path><path id="pathSk2v596cnyns" kvg:type="㇙" d="M21.12,23.1c0.77,0.77,1.32,1.4,1.32,2.59c0,0.81,0.15,17.07,0.15,20.95c0,3,0.66,3.62,3.43,1.91c4.93-3.04,13.1-8.41,18.3-11.81" transform="matrix(1,0,0,1,296,-4)" class="stroke_order_diagram--existing_path"></path><path id="pathSk2v596cnynt" kvg:type="㇔" d="M40.78,29.37C45,34,48.38,39,50.81,44.65" transform="matrix(1,0,0,1,296,-4)" class="stroke_order_diagram--existing_path"></path><path id="kvg:07559-s4" kvg:type="㇆" d="M57.94,17.74c1.12,0.41,2.53,0.36,3.51,0.22c7.98-1.14,20.44-4.34,24.87-4.76c2.88-0.27,4.31,1.17,4.19,4.27c-0.19,5.06-3.76,21.65-7.44,28.63c-2.37,4.49-4.26,1.86-6.41-0.87" transform="matrix(1,0,0,1,296,-4)" class="stroke_order_diagram--current_path"></path><path id="pathSk2v596cnynv" kvg:type="㇆" d="M57.94,17.74c1.12,0.41,2.53,0.36,3.51,0.22c7.98-1.14,20.44-4.34,24.87-4.76c2.88-0.27,4.31,1.17,4.19,4.27c-0.19,5.06-3.76,21.65-7.44,28.63c-2.37,4.49-4.26,1.86-6.41-0.87" transform="matrix(1,0,0,1,296,-4)" class="stroke_order_diagram--current_path"></path><circle cx="57.94" cy="17.74" r="8" class="stroke_order_diagram--path_start" transform="matrix(1,0,0,1,296,-4)"></circle><line x1="450" x2="450" y1="1" y2="99" class="stroke_order_diagram--guide_line"></line><line x1="499" x2="499" y1="1" y2="99" class="stroke_order_diagram--bounding_box"></line><path id="pathSk2v596cnyny" kvg:type="㇒" d="M41.07,11.69c0,0.69-0.1,1.38-0.94,2.06c-4.01,3.25-8.68,6.14-14.99,9.14" transform="matrix(1,0,0,1,396,-4)" class="stroke_order_diagram--existing_path"></path><path id="pathSk2v596cnynz" kvg:type="㇙" d="M21.12,23.1c0.77,0.77,1.32,1.4,1.32,2.59c0,0.81,0.15,17.07,0.15,20.95c0,3,0.66,3.62,3.43,1.91c4.93-3.04,13.1-8.41,18.3-11.81" transform="matrix(1,0,0,1,396,-4)" class="stroke_order_diagram--existing_path"></path><path id="pathSk2v596cnyo0" kvg:type="㇔" d="M40.78,29.37C45,34,48.38,39,50.81,44.65" transform="matrix(1,0,0,1,396,-4)" class="stroke_order_diagram--existing_path"></path><path id="pathSk2v596cnyo1" kvg:type="㇆" d="M57.94,17.74c1.12,0.41,2.53,0.36,3.51,0.22c7.98-1.14,20.44-4.34,24.87-4.76c2.88-0.27,4.31,1.17,4.19,4.27c-0.19,5.06-3.76,21.65-7.44,28.63c-2.37,4.49-4.26,1.86-6.41-0.87" transform="matrix(1,0,0,1,396,-4)" class="stroke_order_diagram--existing_path"></path><path id="kvg:07559-s5" kvg:type="㇒" d="M69.43,20.25c0.32,0.75,0.39,1.79,0.17,2.74c-2.22,9.39-6.1,19.26-14.05,27.9" transform="matrix(1,0,0,1,396,-4)" class="stroke_order_diagram--current_path"></path><path id="pathSk2v596cnyo3" kvg:type="㇒" d="M69.43,20.25c0.32,0.75,0.39,1.79,0.17,2.74c-2.22,9.39-6.1,19.26-14.05,27.9" transform="matrix(1,0,0,1,396,-4)" class="stroke_order_diagram--current_path"></path><circle cx="69.43" cy="20.25" r="8" class="stroke_order_diagram--path_start" transform="matrix(1,0,0,1,396,-4)"></circle><line x1="550" x2="550" y1="1" y2="99" class="stroke_order_diagram--guide_line"></line><line x1="599" x2="599" y1="1" y2="99" class="stroke_order_diagram--bounding_box"></line><path id="pathSk2v596cnyo6" kvg:type="㇒" d="M41.07,11.69c0,0.69-0.1,1.38-0.94,2.06c-4.01,3.25-8.68,6.14-14.99,9.14" transform="matrix(1,0,0,1,496,-4)" class="stroke_order_diagram--existing_path"></path><path id="pathSk2v596cnyo7" kvg:type="㇙" d="M21.12,23.1c0.77,0.77,1.32,1.4,1.32,2.59c0,0.81,0.15,17.07,0.15,20.95c0,3,0.66,3.62,3.43,1.91c4.93-3.04,13.1-8.41,18.3-11.81" transform="matrix(1,0,0,1,496,-4)" class="stroke_order_diagram--existing_path"></path><path id="pathSk2v596cnyo8" kvg:type="㇔" d="M40.78,29.37C45,34,48.38,39,50.81,44.65" transform="matrix(1,0,0,1,496,-4)" class="stroke_order_diagram--existing_path"></path><path id="pathSk2v596cnyo9" kvg:type="㇆" d="M57.94,17.74c1.12,0.41,2.53,0.36,3.51,0.22c7.98-1.14,20.44-4.34,24.87-4.76c2.88-0.27,4.31,1.17,4.19,4.27c-0.19,5.06-3.76,21.65-7.44,28.63c-2.37,4.49-4.26,1.86-6.41-0.87" transform="matrix(1,0,0,1,496,-4)" class="stroke_order_diagram--existing_path"></path><path id="pathSk2v596cnyoa" kvg:type="㇒" d="M69.43,20.25c0.32,0.75,0.39,1.79,0.17,2.74c-2.22,9.39-6.1,19.26-14.05,27.9" transform="matrix(1,0,0,1,496,-4)" class="stroke_order_diagram--existing_path"></path><path id="kvg:07559-s6" kvg:type="㇑" d="M25.19,61.37c0.9,0.91,1.44,2.17,1.58,3.15C28,73.12,29,82.62,30.2,93.74c0.17,1.55,0.27,3.06,0.4,4.51" transform="matrix(1,0,0,1,496,-4)" class="stroke_order_diagram--current_path"></path><path id="pathSk2v596cnyoc" kvg:type="㇑" d="M25.19,61.37c0.9,0.91,1.44,2.17,1.58,3.15C28,73.12,29,82.62,30.2,93.74c0.17,1.55,0.27,3.06,0.4,4.51" transform="matrix(1,0,0,1,496,-4)" class="stroke_order_diagram--current_path"></path><circle cx="25.19" cy="61.37" r="8" class="stroke_order_diagram--path_start" transform="matrix(1,0,0,1,496,-4)"></circle><line x1="650" x2="650" y1="1" y2="99" class="stroke_order_diagram--guide_line"></line><line x1="699" x2="699" y1="1" y2="99" class="stroke_order_diagram--bounding_box"></line><path id="pathSk2v596cnyof" kvg:type="㇒" d="M41.07,11.69c0,0.69-0.1,1.38-0.94,2.06c-4.01,3.25-8.68,6.14-14.99,9.14" transform="matrix(1,0,0,1,596,-4)" class="stroke_order_diagram--existing_path"></path><path id="pathSk2v596cnyog" kvg:type="㇙" d="M21.12,23.1c0.77,0.77,1.32,1.4,1.32,2.59c0,0.81,0.15,17.07,0.15,20.95c0,3,0.66,3.62,3.43,1.91c4.93-3.04,13.1-8.41,18.3-11.81" transform="matrix(1,0,0,1,596,-4)" class="stroke_order_diagram--existing_path"></path><path id="pathSk2v596cnyoh" kvg:type="㇔" d="M40.78,29.37C45,34,48.38,39,50.81,44.65" transform="matrix(1,0,0,1,596,-4)" class="stroke_order_diagram--existing_path"></path><path id="pathSk2v596cnyoi" kvg:type="㇆" d="M57.94,17.74c1.12,0.41,2.53,0.36,3.51,0.22c7.98-1.14,20.44-4.34,24.87-4.76c2.88-0.27,4.31,1.17,4.19,4.27c-0.19,5.06-3.76,21.65-7.44,28.63c-2.37,4.49-4.26,1.86-6.41-0.87" transform="matrix(1,0,0,1,596,-4)" class="stroke_order_diagram--existing_path"></path><path id="pathSk2v596cnyoj" kvg:type="㇒" d="M69.43,20.25c0.32,0.75,0.39,1.79,0.17,2.74c-2.22,9.39-6.1,19.26-14.05,27.9" transform="matrix(1,0,0,1,596,-4)" class="stroke_order_diagram--existing_path"></path><path id="pathSk2v596cnyok" kvg:type="㇑" d="M25.19,61.37c0.9,0.91,1.44,2.17,1.58,3.15C28,73.12,29,82.62,30.2,93.74c0.17,1.55,0.27,3.06,0.4,4.51" transform="matrix(1,0,0,1,596,-4)" class="stroke_order_diagram--existing_path"></path><path id="kvg:07559-s7" kvg:type="㇕a" d="M27.36,63.34c17.89-2.09,41.39-4.24,52.16-4.87c3.96-0.23,5.87,2.28,5.5,5.6c-0.78,7.05-2.12,17.31-4.09,27.66c-0.26,1.36-0.53,2.7-0.8,4" transform="matrix(1,0,0,1,596,-4)" class="stroke_order_diagram--current_path"></path><path id="pathSk2v596cnyom" kvg:type="㇕a" d="M27.36,63.34c17.89-2.09,41.39-4.24,52.16-4.87c3.96-0.23,5.87,2.28,5.5,5.6c-0.78,7.05-2.12,17.31-4.09,27.66c-0.26,1.36-0.53,2.7-0.8,4" transform="matrix(1,0,0,1,596,-4)" class="stroke_order_diagram--current_path"></path><circle cx="27.36" cy="63.34" r="8" class="stroke_order_diagram--path_start" transform="matrix(1,0,0,1,596,-4)"></circle><line x1="750" x2="750" y1="1" y2="99" class="stroke_order_diagram--guide_line"></line><line x1="799" x2="799" y1="1" y2="99" class="stroke_order_diagram--bounding_box"></line><path id="pathSk2v596cnyop" kvg:type="㇒" d="M41.07,11.69c0,0.69-0.1,1.38-0.94,2.06c-4.01,3.25-8.68,6.14-14.99,9.14" transform="matrix(1,0,0,1,696,-4)" class="stroke_order_diagram--existing_path"></path><path id="pathSk2v596cnyoq" kvg:type="㇙" d="M21.12,23.1c0.77,0.77,1.32,1.4,1.32,2.59c0,0.81,0.15,17.07,0.15,20.95c0,3,0.66,3.62,3.43,1.91c4.93-3.04,13.1-8.41,18.3-11.81" transform="matrix(1,0,0,1,696,-4)" class="stroke_order_diagram--existing_path"></path><path id="pathSk2v596cnyor" kvg:type="㇔" d="M40.78,29.37C45,34,48.38,39,50.81,44.65" transform="matrix(1,0,0,1,696,-4)" class="stroke_order_diagram--existing_path"></path><path id="pathSk2v596cnyos" kvg:type="㇆" d="M57.94,17.74c1.12,0.41,2.53,0.36,3.51,0.22c7.98-1.14,20.44-4.34,24.87-4.76c2.88-0.27,4.31,1.17,4.19,4.27c-0.19,5.06-3.76,21.65-7.44,28.63c-2.37,4.49-4.26,1.86-6.41-0.87" transform="matrix(1,0,0,1,696,-4)" class="stroke_order_diagram--existing_path"></path><path id="pathSk2v596cnyot" kvg:type="㇒" d="M69.43,20.25c0.32,0.75,0.39,1.79,0.17,2.74c-2.22,9.39-6.1,19.26-14.05,27.9" transform="matrix(1,0,0,1,696,-4)" class="stroke_order_diagram--existing_path"></path><path id="pathSk2v596cnyou" kvg:type="㇑" d="M25.19,61.37c0.9,0.91,1.44,2.17,1.58,3.15C28,73.12,29,82.62,30.2,93.74c0.17,1.55,0.27,3.06,0.4,4.51" transform="matrix(1,0,0,1,696,-4)" class="stroke_order_diagram--existing_path"></path><path id="pathSk2v596cnyov" kvg:type="㇕a" d="M27.36,63.34c17.89-2.09,41.39-4.24,52.16-4.87c3.96-0.23,5.87,2.28,5.5,5.6c-0.78,7.05-2.12,17.31-4.09,27.66c-0.26,1.36-0.53,2.7-0.8,4" transform="matrix(1,0,0,1,696,-4)" class="stroke_order_diagram--existing_path"></path><path id="kvg:07559-s8" kvg:type="㇑a" d="M52.95,62.16c0.82,0.82,1.19,2.21,1.19,3.58c0,7.95,0.01,24.57,0.01,27.17" transform="matrix(1,0,0,1,696,-4)" class="stroke_order_diagram--current_path"></path><path id="pathSk2v596cnyox" kvg:type="㇑a" d="M52.95,62.16c0.82,0.82,1.19,2.21,1.19,3.58c0,7.95,0.01,24.57,0.01,27.17" transform="matrix(1,0,0,1,696,-4)" class="stroke_order_diagram--current_path"></path><circle cx="52.95" cy="62.16" r="8" class="stroke_order_diagram--path_start" transform="matrix(1,0,0,1,696,-4)"></circle><line x1="850" x2="850" y1="1" y2="99" class="stroke_order_diagram--guide_line"></line><line x1="899" x2="899" y1="1" y2="99" class="stroke_order_diagram--bounding_box"></line><path id="pathSk2v596cnyp0" kvg:type="㇒" d="M41.07,11.69c0,0.69-0.1,1.38-0.94,2.06c-4.01,3.25-8.68,6.14-14.99,9.14" transform="matrix(1,0,0,1,796,-4)" class="stroke_order_diagram--existing_path"></path><path id="pathSk2v596cnyp1" kvg:type="㇙" d="M21.12,23.1c0.77,0.77,1.32,1.4,1.32,2.59c0,0.81,0.15,17.07,0.15,20.95c0,3,0.66,3.62,3.43,1.91c4.93-3.04,13.1-8.41,18.3-11.81" transform="matrix(1,0,0,1,796,-4)" class="stroke_order_diagram--existing_path"></path><path id="pathSk2v596cnyp2" kvg:type="㇔" d="M40.78,29.37C45,34,48.38,39,50.81,44.65" transform="matrix(1,0,0,1,796,-4)" class="stroke_order_diagram--existing_path"></path><path id="pathSk2v596cnyp3" kvg:type="㇆" d="M57.94,17.74c1.12,0.41,2.53,0.36,3.51,0.22c7.98-1.14,20.44-4.34,24.87-4.76c2.88-0.27,4.31,1.17,4.19,4.27c-0.19,5.06-3.76,21.65-7.44,28.63c-2.37,4.49-4.26,1.86-6.41-0.87" transform="matrix(1,0,0,1,796,-4)" class="stroke_order_diagram--existing_path"></path><path id="pathSk2v596cnyp4" kvg:type="㇒" d="M69.43,20.25c0.32,0.75,0.39,1.79,0.17,2.74c-2.22,9.39-6.1,19.26-14.05,27.9" transform="matrix(1,0,0,1,796,-4)" class="stroke_order_diagram--existing_path"></path><path id="pathSk2v596cnyp5" kvg:type="㇑" d="M25.19,61.37c0.9,0.91,1.44,2.17,1.58,3.15C28,73.12,29,82.62,30.2,93.74c0.17,1.55,0.27,3.06,0.4,4.51" transform="matrix(1,0,0,1,796,-4)" class="stroke_order_diagram--existing_path"></path><path id="pathSk2v596cnyp6" kvg:type="㇕a" d="M27.36,63.34c17.89-2.09,41.39-4.24,52.16-4.87c3.96-0.23,5.87,2.28,5.5,5.6c-0.78,7.05-2.12,17.31-4.09,27.66c-0.26,1.36-0.53,2.7-0.8,4" transform="matrix(1,0,0,1,796,-4)" class="stroke_order_diagram--existing_path"></path><path id="pathSk2v596cnyp7" kvg:type="㇑a" d="M52.95,62.16c0.82,0.82,1.19,2.21,1.19,3.58c0,7.95,0.01,24.57,0.01,27.17" transform="matrix(1,0,0,1,796,-4)" class="stroke_order_diagram--existing_path"></path><path id="kvg:07559-s9" kvg:type="㇐a" d="M29.94,78.32C41,77.38,64.5,75,82.79,74.39" transform="matrix(1,0,0,1,796,-4)" class="stroke_order_diagram--current_path"></path><path id="pathSk2v596cnyp9" kvg:type="㇐a" d="M29.94,78.32C41,77.38,64.5,75,82.79,74.39" transform="matrix(1,0,0,1,796,-4)" class="stroke_order_diagram--current_path"></path><circle cx="29.94" cy="78.32" r="8" class="stroke_order_diagram--path_start" transform="matrix(1,0,0,1,796,-4)"></circle><line x1="950" x2="950" y1="1" y2="99" class="stroke_order_diagram--guide_line"></line><line x1="999" x2="999" y1="1" y2="99" class="stroke_order_diagram--bounding_box"></line><path id="pathSk2v596cnypc" kvg:type="㇒" d="M41.07,11.69c0,0.69-0.1,1.38-0.94,2.06c-4.01,3.25-8.68,6.14-14.99,9.14" transform="matrix(1,0,0,1,896,-4)" class="stroke_order_diagram--existing_path"></path><path id="pathSk2v596cnypd" kvg:type="㇙" d="M21.12,23.1c0.77,0.77,1.32,1.4,1.32,2.59c0,0.81,0.15,17.07,0.15,20.95c0,3,0.66,3.62,3.43,1.91c4.93-3.04,13.1-8.41,18.3-11.81" transform="matrix(1,0,0,1,896,-4)" class="stroke_order_diagram--existing_path"></path><path id="pathSk2v596cnype" kvg:type="㇔" d="M40.78,29.37C45,34,48.38,39,50.81,44.65" transform="matrix(1,0,0,1,896,-4)" class="stroke_order_diagram--existing_path"></path><path id="pathSk2v596cnypf" kvg:type="㇆" d="M57.94,17.74c1.12,0.41,2.53,0.36,3.51,0.22c7.98-1.14,20.44-4.34,24.87-4.76c2.88-0.27,4.31,1.17,4.19,4.27c-0.19,5.06-3.76,21.65-7.44,28.63c-2.37,4.49-4.26,1.86-6.41-0.87" transform="matrix(1,0,0,1,896,-4)" class="stroke_order_diagram--existing_path"></path><path id="pathSk2v596cnypg" kvg:type="㇒" d="M69.43,20.25c0.32,0.75,0.39,1.79,0.17,2.74c-2.22,9.39-6.1,19.26-14.05,27.9" transform="matrix(1,0,0,1,896,-4)" class="stroke_order_diagram--existing_path"></path><path id="pathSk2v596cnyph" kvg:type="㇑" d="M25.19,61.37c0.9,0.91,1.44,2.17,1.58,3.15C28,73.12,29,82.62,30.2,93.74c0.17,1.55,0.27,3.06,0.4,4.51" transform="matrix(1,0,0,1,896,-4)" class="stroke_order_diagram--existing_path"></path><path id="pathSk2v596cnypi" kvg:type="㇕a" d="M27.36,63.34c17.89-2.09,41.39-4.24,52.16-4.87c3.96-0.23,5.87,2.28,5.5,5.6c-0.78,7.05-2.12,17.31-4.09,27.66c-0.26,1.36-0.53,2.7-0.8,4" transform="matrix(1,0,0,1,896,-4)" class="stroke_order_diagram--existing_path"></path><path id="pathSk2v596cnypj" kvg:type="㇑a" d="M52.95,62.16c0.82,0.82,1.19,2.21,1.19,3.58c0,7.95,0.01,24.57,0.01,27.17" transform="matrix(1,0,0,1,896,-4)" class="stroke_order_diagram--existing_path"></path><path id="pathSk2v596cnypk" kvg:type="㇐a" d="M29.94,78.32C41,77.38,64.5,75,82.79,74.39" transform="matrix(1,0,0,1,896,-4)" class="stroke_order_diagram--existing_path"></path><path id="kvg:07559-s10" kvg:type="㇐a" d="M31.6,95.58c12.4-0.83,34.15-2.21,47.91-2.6" transform="matrix(1,0,0,1,896,-4)" class="stroke_order_diagram--current_path"></path><path id="pathSk2v596cnypm" kvg:type="㇐a" d="M31.6,95.58c12.4-0.83,34.15-2.21,47.91-2.6" transform="matrix(1,0,0,1,896,-4)" class="stroke_order_diagram--current_path"></path><circle cx="31.6" cy="95.58" r="8" class="stroke_order_diagram--path_start" transform="matrix(1,0,0,1,896,-4)"></circle></svg>