<svg style="width: 1200px; height: 100px;" viewbox="0 0 1200 100"><style>
.stroke_order_diagram--outer_container {
  width: 100%;
  overflow-x: auto;
  overflow-y: hidden;
}

.stroke_order_diagram--guide_line {
  fill: none;
  stroke: #ddd;
  stroke-width: 3;
  stroke-linecap: square;
  stroke-linejoin: square;
  stroke-dasharray:8, 8;
}

.stroke_order_diagram--bounding_box {
  fill: none;
  stroke: #ddd;
  stroke-width: 4;
  stroke-linecap: square;
  stroke-linejoin: square;
}

.stroke_order_diagram--current_path {
  fill: none;
  stroke: #000;
  stroke-width: 6;
  stroke-linecap: round;
  stroke-linejoin: round;
}

.stroke_order_diagram--existing_path {
  fill: none;
  stroke: #aaa;
  stroke-width: 6;
  stroke-linecap: round;
  stroke-linejoin:round;
}

.stroke_order_diagram--path_start {
  fill: rgba(255, 0, 0, 0.7);
  stroke:none
}</style><desc>Created with Snap</desc><defs></defs><line x1="1" x2="1199" y1="1" y2="1" class="stroke_order_diagram--bounding_box"></line><line x1="1" x2="1" y1="1" y2="99" class="stroke_order_diagram--bounding_box"></line><line x1="1" x2="1199" y1="99" y2="99" class="stroke_order_diagram--bounding_box"></line><line x1="0" x2="1200" y1="50" y2="50" class="stroke_order_diagram--guide_line"></line><line x1="50" x2="50" y1="1" y2="99" class="stroke_order_diagram--guide_line"></line><line x1="99" x2="99" y1="1" y2="99" class="stroke_order_diagram--bounding_box"></line><path id="kvg:075e2-s1" kvg:type="㇑a" d="M56.81,10.88c1.09,1.09,1.26,2.49,1.26,3.65c0,0.79,0.08,4.15-0.07,8.96" transform="matrix(1,0,0,1,-4,-4)" class="stroke_order_diagram--current_path"></path><path id="pathSk2v596cn4ww2" kvg:type="㇑a" d="M56.81,10.88c1.09,1.09,1.26,2.49,1.26,3.65c0,0.79,0.08,4.15-0.07,8.96" transform="matrix(1,0,0,1,-4,-4)" class="stroke_order_diagram--current_path"></path><circle cx="56.81" cy="10.88" r="8" class="stroke_order_diagram--path_start" transform="matrix(1,0,0,1,-4,-4)"></circle><line x1="150" x2="150" y1="1" y2="99" class="stroke_order_diagram--guide_line"></line><line x1="199" x2="199" y1="1" y2="99" class="stroke_order_diagram--bounding_box"></line><path id="pathSk2v596cn4ww5" kvg:type="㇑a" d="M56.81,10.88c1.09,1.09,1.26,2.49,1.26,3.65c0,0.79,0.08,4.15-0.07,8.96" transform="matrix(1,0,0,1,96,-4)" class="stroke_order_diagram--existing_path"></path><path id="kvg:075e2-s2" kvg:type="㇐" d="M27.38,25.98c2.79,1,6.49,0.69,9.37,0.3c15.29-2.07,32.46-3.94,45.25-4.77c3.12-0.2,6.05-0.35,9.13,0.31" transform="matrix(1,0,0,1,96,-4)" class="stroke_order_diagram--current_path"></path><path id="pathSk2v596cn4ww7" kvg:type="㇐" d="M27.38,25.98c2.79,1,6.49,0.69,9.37,0.3c15.29-2.07,32.46-3.94,45.25-4.77c3.12-0.2,6.05-0.35,9.13,0.31" transform="matrix(1,0,0,1,96,-4)" class="stroke_order_diagram--current_path"></path><circle cx="27.38" cy="25.98" r="8" class="stroke_order_diagram--path_start" transform="matrix(1,0,0,1,96,-4)"></circle><line x1="250" x2="250" y1="1" y2="99" class="stroke_order_diagram--guide_line"></line><line x1="299" x2="299" y1="1" y2="99" class="stroke_order_diagram--bounding_box"></line><path id="pathSk2v596cn4wwa" kvg:type="㇑a" d="M56.81,10.88c1.09,1.09,1.26,2.49,1.26,3.65c0,0.79,0.08,4.15-0.07,8.96" transform="matrix(1,0,0,1,196,-4)" class="stroke_order_diagram--existing_path"></path><path id="pathSk2v596cn4wwb" kvg:type="㇐" d="M27.38,25.98c2.79,1,6.49,0.69,9.37,0.3c15.29-2.07,32.46-3.94,45.25-4.77c3.12-0.2,6.05-0.35,9.13,0.31" transform="matrix(1,0,0,1,196,-4)" class="stroke_order_diagram--existing_path"></path><path id="kvg:075e2-s3" kvg:type="㇒" d="M29.49,27c1,1,1.51,2.35,1.49,3.5c-0.36,31.75-2.49,49.13-18.18,62.97" transform="matrix(1,0,0,1,196,-4)" class="stroke_order_diagram--current_path"></path><path id="pathSk2v596cn4wwd" kvg:type="㇒" d="M29.49,27c1,1,1.51,2.35,1.49,3.5c-0.36,31.75-2.49,49.13-18.18,62.97" transform="matrix(1,0,0,1,196,-4)" class="stroke_order_diagram--current_path"></path><circle cx="29.49" cy="27" r="8" class="stroke_order_diagram--path_start" transform="matrix(1,0,0,1,196,-4)"></circle><line x1="350" x2="350" y1="1" y2="99" class="stroke_order_diagram--guide_line"></line><line x1="399" x2="399" y1="1" y2="99" class="stroke_order_diagram--bounding_box"></line><path id="pathSk2v596cn4wwg" kvg:type="㇑a" d="M56.81,10.88c1.09,1.09,1.26,2.49,1.26,3.65c0,0.79,0.08,4.15-0.07,8.96" transform="matrix(1,0,0,1,296,-4)" class="stroke_order_diagram--existing_path"></path><path id="pathSk2v596cn4wwh" kvg:type="㇐" d="M27.38,25.98c2.79,1,6.49,0.69,9.37,0.3c15.29-2.07,32.46-3.94,45.25-4.77c3.12-0.2,6.05-0.35,9.13,0.31" transform="matrix(1,0,0,1,296,-4)" class="stroke_order_diagram--existing_path"></path><path id="pathSk2v596cn4wwi" kvg:type="㇒" d="M29.49,27c1,1,1.51,2.35,1.49,3.5c-0.36,31.75-2.49,49.13-18.18,62.97" transform="matrix(1,0,0,1,296,-4)" class="stroke_order_diagram--existing_path"></path><path id="kvg:075e2-s4" kvg:type="㇔" d="M15.12,41c2.78,1.72,7.18,7.07,7.88,9.75" transform="matrix(1,0,0,1,296,-4)" class="stroke_order_diagram--current_path"></path><path id="pathSk2v596cn4wwk" kvg:type="㇔" d="M15.12,41c2.78,1.72,7.18,7.07,7.88,9.75" transform="matrix(1,0,0,1,296,-4)" class="stroke_order_diagram--current_path"></path><circle cx="15.12" cy="41" r="8" class="stroke_order_diagram--path_start" transform="matrix(1,0,0,1,296,-4)"></circle><line x1="450" x2="450" y1="1" y2="99" class="stroke_order_diagram--guide_line"></line><line x1="499" x2="499" y1="1" y2="99" class="stroke_order_diagram--bounding_box"></line><path id="pathSk2v596cn4wwn" kvg:type="㇑a" d="M56.81,10.88c1.09,1.09,1.26,2.49,1.26,3.65c0,0.79,0.08,4.15-0.07,8.96" transform="matrix(1,0,0,1,396,-4)" class="stroke_order_diagram--existing_path"></path><path id="pathSk2v596cn4wwo" kvg:type="㇐" d="M27.38,25.98c2.79,1,6.49,0.69,9.37,0.3c15.29-2.07,32.46-3.94,45.25-4.77c3.12-0.2,6.05-0.35,9.13,0.31" transform="matrix(1,0,0,1,396,-4)" class="stroke_order_diagram--existing_path"></path><path id="pathSk2v596cn4wwp" kvg:type="㇒" d="M29.49,27c1,1,1.51,2.35,1.49,3.5c-0.36,31.75-2.49,49.13-18.18,62.97" transform="matrix(1,0,0,1,396,-4)" class="stroke_order_diagram--existing_path"></path><path id="pathSk2v596cn4wwq" kvg:type="㇔" d="M15.12,41c2.78,1.72,7.18,7.07,7.88,9.75" transform="matrix(1,0,0,1,396,-4)" class="stroke_order_diagram--existing_path"></path><path id="kvg:075e2-s5" kvg:type="㇀" d="M10.67,69.04c1.53,0.67,2.51,0.72,3.85-0.09c5.45-3.28,7.47-4.7,12.47-7.7" transform="matrix(1,0,0,1,396,-4)" class="stroke_order_diagram--current_path"></path><path id="pathSk2v596cn4wws" kvg:type="㇀" d="M10.67,69.04c1.53,0.67,2.51,0.72,3.85-0.09c5.45-3.28,7.47-4.7,12.47-7.7" transform="matrix(1,0,0,1,396,-4)" class="stroke_order_diagram--current_path"></path><circle cx="10.67" cy="69.04" r="8" class="stroke_order_diagram--path_start" transform="matrix(1,0,0,1,396,-4)"></circle><line x1="550" x2="550" y1="1" y2="99" class="stroke_order_diagram--guide_line"></line><line x1="599" x2="599" y1="1" y2="99" class="stroke_order_diagram--bounding_box"></line><path id="pathSk2v596cn4wwv" kvg:type="㇑a" d="M56.81,10.88c1.09,1.09,1.26,2.49,1.26,3.65c0,0.79,0.08,4.15-0.07,8.96" transform="matrix(1,0,0,1,496,-4)" class="stroke_order_diagram--existing_path"></path><path id="pathSk2v596cn4www" kvg:type="㇐" d="M27.38,25.98c2.79,1,6.49,0.69,9.37,0.3c15.29-2.07,32.46-3.94,45.25-4.77c3.12-0.2,6.05-0.35,9.13,0.31" transform="matrix(1,0,0,1,496,-4)" class="stroke_order_diagram--existing_path"></path><path id="pathSk2v596cn4wwx" kvg:type="㇒" d="M29.49,27c1,1,1.51,2.35,1.49,3.5c-0.36,31.75-2.49,49.13-18.18,62.97" transform="matrix(1,0,0,1,496,-4)" class="stroke_order_diagram--existing_path"></path><path id="pathSk2v596cn4wwy" kvg:type="㇔" d="M15.12,41c2.78,1.72,7.18,7.07,7.88,9.75" transform="matrix(1,0,0,1,496,-4)" class="stroke_order_diagram--existing_path"></path><path id="pathSk2v596cn4wwz" kvg:type="㇀" d="M10.67,69.04c1.53,0.67,2.51,0.72,3.85-0.09c5.45-3.28,7.47-4.7,12.47-7.7" transform="matrix(1,0,0,1,496,-4)" class="stroke_order_diagram--existing_path"></path><path id="kvg:075e2-s6" kvg:type="㇒" d="M60.63,33.24c0,0.89-0.61,1.83-1.24,2.4c-3.27,2.99-11.02,7.24-19.81,10.79" transform="matrix(1,0,0,1,496,-4)" class="stroke_order_diagram--current_path"></path><path id="pathSk2v596cn4wx1" kvg:type="㇒" d="M60.63,33.24c0,0.89-0.61,1.83-1.24,2.4c-3.27,2.99-11.02,7.24-19.81,10.79" transform="matrix(1,0,0,1,496,-4)" class="stroke_order_diagram--current_path"></path><circle cx="60.63" cy="33.24" r="8" class="stroke_order_diagram--path_start" transform="matrix(1,0,0,1,496,-4)"></circle><line x1="650" x2="650" y1="1" y2="99" class="stroke_order_diagram--guide_line"></line><line x1="699" x2="699" y1="1" y2="99" class="stroke_order_diagram--bounding_box"></line><path id="pathSk2v596cn4wx4" kvg:type="㇑a" d="M56.81,10.88c1.09,1.09,1.26,2.49,1.26,3.65c0,0.79,0.08,4.15-0.07,8.96" transform="matrix(1,0,0,1,596,-4)" class="stroke_order_diagram--existing_path"></path><path id="pathSk2v596cn4wx5" kvg:type="㇐" d="M27.38,25.98c2.79,1,6.49,0.69,9.37,0.3c15.29-2.07,32.46-3.94,45.25-4.77c3.12-0.2,6.05-0.35,9.13,0.31" transform="matrix(1,0,0,1,596,-4)" class="stroke_order_diagram--existing_path"></path><path id="pathSk2v596cn4wx6" kvg:type="㇒" d="M29.49,27c1,1,1.51,2.35,1.49,3.5c-0.36,31.75-2.49,49.13-18.18,62.97" transform="matrix(1,0,0,1,596,-4)" class="stroke_order_diagram--existing_path"></path><path id="pathSk2v596cn4wx7" kvg:type="㇔" d="M15.12,41c2.78,1.72,7.18,7.07,7.88,9.75" transform="matrix(1,0,0,1,596,-4)" class="stroke_order_diagram--existing_path"></path><path id="pathSk2v596cn4wx8" kvg:type="㇀" d="M10.67,69.04c1.53,0.67,2.51,0.72,3.85-0.09c5.45-3.28,7.47-4.7,12.47-7.7" transform="matrix(1,0,0,1,596,-4)" class="stroke_order_diagram--existing_path"></path><path id="pathSk2v596cn4wx9" kvg:type="㇒" d="M60.63,33.24c0,0.89-0.61,1.83-1.24,2.4c-3.27,2.99-11.02,7.24-19.81,10.79" transform="matrix(1,0,0,1,596,-4)" class="stroke_order_diagram--existing_path"></path><path id="kvg:075e2-s7" kvg:type="㇐" d="M36.87,56.24c1.88,0.64,4.09,0.21,5.5-0.09c5.55-1.18,13.14-2.55,19.52-3.48c1.63-0.24,4.14-0.68,5.77-0.13" transform="matrix(1,0,0,1,596,-4)" class="stroke_order_diagram--current_path"></path><path id="pathSk2v596cn4wxb" kvg:type="㇐" d="M36.87,56.24c1.88,0.64,4.09,0.21,5.5-0.09c5.55-1.18,13.14-2.55,19.52-3.48c1.63-0.24,4.14-0.68,5.77-0.13" transform="matrix(1,0,0,1,596,-4)" class="stroke_order_diagram--current_path"></path><circle cx="36.87" cy="56.24" r="8" class="stroke_order_diagram--path_start" transform="matrix(1,0,0,1,596,-4)"></circle><line x1="750" x2="750" y1="1" y2="99" class="stroke_order_diagram--guide_line"></line><line x1="799" x2="799" y1="1" y2="99" class="stroke_order_diagram--bounding_box"></line><path id="pathSk2v596cn4wxe" kvg:type="㇑a" d="M56.81,10.88c1.09,1.09,1.26,2.49,1.26,3.65c0,0.79,0.08,4.15-0.07,8.96" transform="matrix(1,0,0,1,696,-4)" class="stroke_order_diagram--existing_path"></path><path id="pathSk2v596cn4wxf" kvg:type="㇐" d="M27.38,25.98c2.79,1,6.49,0.69,9.37,0.3c15.29-2.07,32.46-3.94,45.25-4.77c3.12-0.2,6.05-0.35,9.13,0.31" transform="matrix(1,0,0,1,696,-4)" class="stroke_order_diagram--existing_path"></path><path id="pathSk2v596cn4wxg" kvg:type="㇒" d="M29.49,27c1,1,1.51,2.35,1.49,3.5c-0.36,31.75-2.49,49.13-18.18,62.97" transform="matrix(1,0,0,1,696,-4)" class="stroke_order_diagram--existing_path"></path><path id="pathSk2v596cn4wxh" kvg:type="㇔" d="M15.12,41c2.78,1.72,7.18,7.07,7.88,9.75" transform="matrix(1,0,0,1,696,-4)" class="stroke_order_diagram--existing_path"></path><path id="pathSk2v596cn4wxi" kvg:type="㇀" d="M10.67,69.04c1.53,0.67,2.51,0.72,3.85-0.09c5.45-3.28,7.47-4.7,12.47-7.7" transform="matrix(1,0,0,1,696,-4)" class="stroke_order_diagram--existing_path"></path><path id="pathSk2v596cn4wxj" kvg:type="㇒" d="M60.63,33.24c0,0.89-0.61,1.83-1.24,2.4c-3.27,2.99-11.02,7.24-19.81,10.79" transform="matrix(1,0,0,1,696,-4)" class="stroke_order_diagram--existing_path"></path><path id="pathSk2v596cn4wxk" kvg:type="㇐" d="M36.87,56.24c1.88,0.64,4.09,0.21,5.5-0.09c5.55-1.18,13.14-2.55,19.52-3.48c1.63-0.24,4.14-0.68,5.77-0.13" transform="matrix(1,0,0,1,696,-4)" class="stroke_order_diagram--existing_path"></path><path id="kvg:075e2-s8" kvg:type="㇑" d="M52.67,43.5c0.98,0.98,1.38,2.13,1.38,3.88c0,3.34,0.07,31.06,0.01,44.02c-0.02,3.11-0.04,5.37-0.06,6.23" transform="matrix(1,0,0,1,696,-4)" class="stroke_order_diagram--current_path"></path><path id="pathSk2v596cn4wxm" kvg:type="㇑" d="M52.67,43.5c0.98,0.98,1.38,2.13,1.38,3.88c0,3.34,0.07,31.06,0.01,44.02c-0.02,3.11-0.04,5.37-0.06,6.23" transform="matrix(1,0,0,1,696,-4)" class="stroke_order_diagram--current_path"></path><circle cx="52.67" cy="43.5" r="8" class="stroke_order_diagram--path_start" transform="matrix(1,0,0,1,696,-4)"></circle><line x1="850" x2="850" y1="1" y2="99" class="stroke_order_diagram--guide_line"></line><line x1="899" x2="899" y1="1" y2="99" class="stroke_order_diagram--bounding_box"></line><path id="pathSk2v596cn4wxp" kvg:type="㇑a" d="M56.81,10.88c1.09,1.09,1.26,2.49,1.26,3.65c0,0.79,0.08,4.15-0.07,8.96" transform="matrix(1,0,0,1,796,-4)" class="stroke_order_diagram--existing_path"></path><path id="pathSk2v596cn4wxq" kvg:type="㇐" d="M27.38,25.98c2.79,1,6.49,0.69,9.37,0.3c15.29-2.07,32.46-3.94,45.25-4.77c3.12-0.2,6.05-0.35,9.13,0.31" transform="matrix(1,0,0,1,796,-4)" class="stroke_order_diagram--existing_path"></path><path id="pathSk2v596cn4wxr" kvg:type="㇒" d="M29.49,27c1,1,1.51,2.35,1.49,3.5c-0.36,31.75-2.49,49.13-18.18,62.97" transform="matrix(1,0,0,1,796,-4)" class="stroke_order_diagram--existing_path"></path><path id="pathSk2v596cn4wxs" kvg:type="㇔" d="M15.12,41c2.78,1.72,7.18,7.07,7.88,9.75" transform="matrix(1,0,0,1,796,-4)" class="stroke_order_diagram--existing_path"></path><path id="pathSk2v596cn4wxt" kvg:type="㇀" d="M10.67,69.04c1.53,0.67,2.51,0.72,3.85-0.09c5.45-3.28,7.47-4.7,12.47-7.7" transform="matrix(1,0,0,1,796,-4)" class="stroke_order_diagram--existing_path"></path><path id="pathSk2v596cn4wxu" kvg:type="㇒" d="M60.63,33.24c0,0.89-0.61,1.83-1.24,2.4c-3.27,2.99-11.02,7.24-19.81,10.79" transform="matrix(1,0,0,1,796,-4)" class="stroke_order_diagram--existing_path"></path><path id="pathSk2v596cn4wxv" kvg:type="㇐" d="M36.87,56.24c1.88,0.64,4.09,0.21,5.5-0.09c5.55-1.18,13.14-2.55,19.52-3.48c1.63-0.24,4.14-0.68,5.77-0.13" transform="matrix(1,0,0,1,796,-4)" class="stroke_order_diagram--existing_path"></path><path id="pathSk2v596cn4wxw" kvg:type="㇑" d="M52.67,43.5c0.98,0.98,1.38,2.13,1.38,3.88c0,3.34,0.07,31.06,0.01,44.02c-0.02,3.11-0.04,5.37-0.06,6.23" transform="matrix(1,0,0,1,796,-4)" class="stroke_order_diagram--existing_path"></path><path id="kvg:075e2-s9" kvg:type="㇒" d="M53.24,55.93c-0.5,1.29-1.06,2.62-1.66,3.98c-3.59,8.1-8.87,17.12-15.69,23.4" transform="matrix(1,0,0,1,796,-4)" class="stroke_order_diagram--current_path"></path><path id="pathSk2v596cn4wxy" kvg:type="㇒" d="M53.24,55.93c-0.5,1.29-1.06,2.62-1.66,3.98c-3.59,8.1-8.87,17.12-15.69,23.4" transform="matrix(1,0,0,1,796,-4)" class="stroke_order_diagram--current_path"></path><circle cx="53.24" cy="55.93" r="8" class="stroke_order_diagram--path_start" transform="matrix(1,0,0,1,796,-4)"></circle><line x1="950" x2="950" y1="1" y2="99" class="stroke_order_diagram--guide_line"></line><line x1="999" x2="999" y1="1" y2="99" class="stroke_order_diagram--bounding_box"></line><path id="pathSk2v596cn4wy1" kvg:type="㇑a" d="M56.81,10.88c1.09,1.09,1.26,2.49,1.26,3.65c0,0.79,0.08,4.15-0.07,8.96" transform="matrix(1,0,0,1,896,-4)" class="stroke_order_diagram--existing_path"></path><path id="pathSk2v596cn4wy2" kvg:type="㇐" d="M27.38,25.98c2.79,1,6.49,0.69,9.37,0.3c15.29-2.07,32.46-3.94,45.25-4.77c3.12-0.2,6.05-0.35,9.13,0.31" transform="matrix(1,0,0,1,896,-4)" class="stroke_order_diagram--existing_path"></path><path id="pathSk2v596cn4wy3" kvg:type="㇒" d="M29.49,27c1,1,1.51,2.35,1.49,3.5c-0.36,31.75-2.49,49.13-18.18,62.97" transform="matrix(1,0,0,1,896,-4)" class="stroke_order_diagram--existing_path"></path><path id="pathSk2v596cn4wy4" kvg:type="㇔" d="M15.12,41c2.78,1.72,7.18,7.07,7.88,9.75" transform="matrix(1,0,0,1,896,-4)" class="stroke_order_diagram--existing_path"></path><path id="pathSk2v596cn4wy5" kvg:type="㇀" d="M10.67,69.04c1.53,0.67,2.51,0.72,3.85-0.09c5.45-3.28,7.47-4.7,12.47-7.7" transform="matrix(1,0,0,1,896,-4)" class="stroke_order_diagram--existing_path"></path><path id="pathSk2v596cn4wy6" kvg:type="㇒" d="M60.63,33.24c0,0.89-0.61,1.83-1.24,2.4c-3.27,2.99-11.02,7.24-19.81,10.79" transform="matrix(1,0,0,1,896,-4)" class="stroke_order_diagram--existing_path"></path><path id="pathSk2v596cn4wy7" kvg:type="㇐" d="M36.87,56.24c1.88,0.64,4.09,0.21,5.5-0.09c5.55-1.18,13.14-2.55,19.52-3.48c1.63-0.24,4.14-0.68,5.77-0.13" transform="matrix(1,0,0,1,896,-4)" class="stroke_order_diagram--existing_path"></path><path id="pathSk2v596cn4wy8" kvg:type="㇑" d="M52.67,43.5c0.98,0.98,1.38,2.13,1.38,3.88c0,3.34,0.07,31.06,0.01,44.02c-0.02,3.11-0.04,5.37-0.06,6.23" transform="matrix(1,0,0,1,896,-4)" class="stroke_order_diagram--existing_path"></path><path id="pathSk2v596cn4wy9" kvg:type="㇒" d="M53.24,55.93c-0.5,1.29-1.06,2.62-1.66,3.98c-3.59,8.1-8.87,17.12-15.69,23.4" transform="matrix(1,0,0,1,896,-4)" class="stroke_order_diagram--existing_path"></path><path id="kvg:075e2-s10" kvg:type="㇔/㇏" d="M57.13,62.58c4.08,2.4,7.54,7.21,9.74,10.3" transform="matrix(1,0,0,1,896,-4)" class="stroke_order_diagram--current_path"></path><path id="pathSk2v596cn4wyb" kvg:type="㇔/㇏" d="M57.13,62.58c4.08,2.4,7.54,7.21,9.74,10.3" transform="matrix(1,0,0,1,896,-4)" class="stroke_order_diagram--current_path"></path><circle cx="57.13" cy="62.58" r="8" class="stroke_order_diagram--path_start" transform="matrix(1,0,0,1,896,-4)"></circle><line x1="1050" x2="1050" y1="1" y2="99" class="stroke_order_diagram--guide_line"></line><line x1="1099" x2="1099" y1="1" y2="99" class="stroke_order_diagram--bounding_box"></line><path id="pathSk2v596cn4wye" kvg:type="㇑a" d="M56.81,10.88c1.09,1.09,1.26,2.49,1.26,3.65c0,0.79,0.08,4.15-0.07,8.96" transform="matrix(1,0,0,1,996,-4)" class="stroke_order_diagram--existing_path"></path><path id="pathSk2v596cn4wyf" kvg:type="㇐" d="M27.38,25.98c2.79,1,6.49,0.69,9.37,0.3c15.29-2.07,32.46-3.94,45.25-4.77c3.12-0.2,6.05-0.35,9.13,0.31" transform="matrix(1,0,0,1,996,-4)" class="stroke_order_diagram--existing_path"></path><path id="pathSk2v596cn4wyg" kvg:type="㇒" d="M29.49,27c1,1,1.51,2.35,1.49,3.5c-0.36,31.75-2.49,49.13-18.18,62.97" transform="matrix(1,0,0,1,996,-4)" class="stroke_order_diagram--existing_path"></path><path id="pathSk2v596cn4wyh" kvg:type="㇔" d="M15.12,41c2.78,1.72,7.18,7.07,7.88,9.75" transform="matrix(1,0,0,1,996,-4)" class="stroke_order_diagram--existing_path"></path><path id="pathSk2v596cn4wyi" kvg:type="㇀" d="M10.67,69.04c1.53,0.67,2.51,0.72,3.85-0.09c5.45-3.28,7.47-4.7,12.47-7.7" transform="matrix(1,0,0,1,996,-4)" class="stroke_order_diagram--existing_path"></path><path id="pathSk2v596cn4wyj" kvg:type="㇒" d="M60.63,33.24c0,0.89-0.61,1.83-1.24,2.4c-3.27,2.99-11.02,7.24-19.81,10.79" transform="matrix(1,0,0,1,996,-4)" class="stroke_order_diagram--existing_path"></path><path id="pathSk2v596cn4wyk" kvg:type="㇐" d="M36.87,56.24c1.88,0.64,4.09,0.21,5.5-0.09c5.55-1.18,13.14-2.55,19.52-3.48c1.63-0.24,4.14-0.68,5.77-0.13" transform="matrix(1,0,0,1,996,-4)" class="stroke_order_diagram--existing_path"></path><path id="pathSk2v596cn4wyl" kvg:type="㇑" d="M52.67,43.5c0.98,0.98,1.38,2.13,1.38,3.88c0,3.34,0.07,31.06,0.01,44.02c-0.02,3.11-0.04,5.37-0.06,6.23" transform="matrix(1,0,0,1,996,-4)" class="stroke_order_diagram--existing_path"></path><path id="pathSk2v596cn4wym" kvg:type="㇒" d="M53.24,55.93c-0.5,1.29-1.06,2.62-1.66,3.98c-3.59,8.1-8.87,17.12-15.69,23.4" transform="matrix(1,0,0,1,996,-4)" class="stroke_order_diagram--existing_path"></path><path id="pathSk2v596cn4wyn" kvg:type="㇔/㇏" d="M57.13,62.58c4.08,2.4,7.54,7.21,9.74,10.3" transform="matrix(1,0,0,1,996,-4)" class="stroke_order_diagram--existing_path"></path><path id="kvg:075e2-s11" kvg:type="㇑" d="M75.77,40.55c0.7,0.66,1.24,1.83,1.24,3.63c0,7.44,0.04,16.94,0.04,24.82c0,2.86-0.05,5.44-0.05,6.5" transform="matrix(1,0,0,1,996,-4)" class="stroke_order_diagram--current_path"></path><path id="pathSk2v596cn4wyp" kvg:type="㇑" d="M75.77,40.55c0.7,0.66,1.24,1.83,1.24,3.63c0,7.44,0.04,16.94,0.04,24.82c0,2.86-0.05,5.44-0.05,6.5" transform="matrix(1,0,0,1,996,-4)" class="stroke_order_diagram--current_path"></path><circle cx="75.77" cy="40.55" r="8" class="stroke_order_diagram--path_start" transform="matrix(1,0,0,1,996,-4)"></circle><line x1="1150" x2="1150" y1="1" y2="99" class="stroke_order_diagram--guide_line"></line><line x1="1199" x2="1199" y1="1" y2="99" class="stroke_order_diagram--bounding_box"></line><path id="pathSk2v596cn4wys" kvg:type="㇑a" d="M56.81,10.88c1.09,1.09,1.26,2.49,1.26,3.65c0,0.79,0.08,4.15-0.07,8.96" transform="matrix(1,0,0,1,1096,-4)" class="stroke_order_diagram--existing_path"></path><path id="pathSk2v596cn4wyt" kvg:type="㇐" d="M27.38,25.98c2.79,1,6.49,0.69,9.37,0.3c15.29-2.07,32.46-3.94,45.25-4.77c3.12-0.2,6.05-0.35,9.13,0.31" transform="matrix(1,0,0,1,1096,-4)" class="stroke_order_diagram--existing_path"></path><path id="pathSk2v596cn4wyu" kvg:type="㇒" d="M29.49,27c1,1,1.51,2.35,1.49,3.5c-0.36,31.75-2.49,49.13-18.18,62.97" transform="matrix(1,0,0,1,1096,-4)" class="stroke_order_diagram--existing_path"></path><path id="pathSk2v596cn4wyv" kvg:type="㇔" d="M15.12,41c2.78,1.72,7.18,7.07,7.88,9.75" transform="matrix(1,0,0,1,1096,-4)" class="stroke_order_diagram--existing_path"></path><path id="pathSk2v596cn4wyw" kvg:type="㇀" d="M10.67,69.04c1.53,0.67,2.51,0.72,3.85-0.09c5.45-3.28,7.47-4.7,12.47-7.7" transform="matrix(1,0,0,1,1096,-4)" class="stroke_order_diagram--existing_path"></path><path id="pathSk2v596cn4wyx" kvg:type="㇒" d="M60.63,33.24c0,0.89-0.61,1.83-1.24,2.4c-3.27,2.99-11.02,7.24-19.81,10.79" transform="matrix(1,0,0,1,1096,-4)" class="stroke_order_diagram--existing_path"></path><path id="pathSk2v596cn4wyy" kvg:type="㇐" d="M36.87,56.24c1.88,0.64,4.09,0.21,5.5-0.09c5.55-1.18,13.14-2.55,19.52-3.48c1.63-0.24,4.14-0.68,5.77-0.13" transform="matrix(1,0,0,1,1096,-4)" class="stroke_order_diagram--existing_path"></path><path id="pathSk2v596cn4wyz" kvg:type="㇑" d="M52.67,43.5c0.98,0.98,1.38,2.13,1.38,3.88c0,3.34,0.07,31.06,0.01,44.02c-0.02,3.11-0.04,5.37-0.06,6.23" transform="matrix(1,0,0,1,1096,-4)" class="stroke_order_diagram--existing_path"></path><path id="pathSk2v596cn4wz0" kvg:type="㇒" d="M53.24,55.93c-0.5,1.29-1.06,2.62-1.66,3.98c-3.59,8.1-8.87,17.12-15.69,23.4" transform="matrix(1,0,0,1,1096,-4)" class="stroke_order_diagram--existing_path"></path><path id="pathSk2v596cn4wz1" kvg:type="㇔/㇏" d="M57.13,62.58c4.08,2.4,7.54,7.21,9.74,10.3" transform="matrix(1,0,0,1,1096,-4)" class="stroke_order_diagram--existing_path"></path><path id="pathSk2v596cn4wz2" kvg:type="㇑" d="M75.77,40.55c0.7,0.66,1.24,1.83,1.24,3.63c0,7.44,0.04,16.94,0.04,24.82c0,2.86-0.05,5.44-0.05,6.5" transform="matrix(1,0,0,1,1096,-4)" class="stroke_order_diagram--existing_path"></path><path id="kvg:075e2-s12" kvg:type="㇚" d="M89.61,33.07c0.72,0.68,1.28,2.18,1.28,3.99c0,10.94,0.06,50.69,0.06,55.66c0,8.77-4.88,1.12-5.98,0.19" transform="matrix(1,0,0,1,1096,-4)" class="stroke_order_diagram--current_path"></path><path id="pathSk2v596cn4wz4" kvg:type="㇚" d="M89.61,33.07c0.72,0.68,1.28,2.18,1.28,3.99c0,10.94,0.06,50.69,0.06,55.66c0,8.77-4.88,1.12-5.98,0.19" transform="matrix(1,0,0,1,1096,-4)" class="stroke_order_diagram--current_path"></path><circle cx="89.61" cy="33.07" r="8" class="stroke_order_diagram--path_start" transform="matrix(1,0,0,1,1096,-4)"></circle></svg>