<svg style="width: 500px; height: 100px;" viewbox="0 0 500 100"><style>
.stroke_order_diagram--outer_container {
  width: 100%;
  overflow-x: auto;
  overflow-y: hidden;
}

.stroke_order_diagram--guide_line {
  fill: none;
  stroke: #ddd;
  stroke-width: 3;
  stroke-linecap: square;
  stroke-linejoin: square;
  stroke-dasharray:8, 8;
}

.stroke_order_diagram--bounding_box {
  fill: none;
  stroke: #ddd;
  stroke-width: 4;
  stroke-linecap: square;
  stroke-linejoin: square;
}

.stroke_order_diagram--current_path {
  fill: none;
  stroke: #000;
  stroke-width: 6;
  stroke-linecap: round;
  stroke-linejoin: round;
}

.stroke_order_diagram--existing_path {
  fill: none;
  stroke: #aaa;
  stroke-width: 6;
  stroke-linecap: round;
  stroke-linejoin:round;
}

.stroke_order_diagram--path_start {
  fill: rgba(255, 0, 0, 0.7);
  stroke:none
}</style><desc>Created with Snap</desc><defs></defs><line x1="1" x2="499" y1="1" y2="1" class="stroke_order_diagram--bounding_box"></line><line x1="1" x2="1" y1="1" y2="99" class="stroke_order_diagram--bounding_box"></line><line x1="1" x2="499" y1="99" y2="99" class="stroke_order_diagram--bounding_box"></line><line x1="0" x2="500" y1="50" y2="50" class="stroke_order_diagram--guide_line"></line><line x1="50" x2="50" y1="1" y2="99" class="stroke_order_diagram--guide_line"></line><line x1="99" x2="99" y1="1" y2="99" class="stroke_order_diagram--bounding_box"></line><path id="kvg:076ae-s1" kvg:type="㇒" d="M22.41,32.87c1.3,1.3,1.71,2.72,1.7,5.07C24,64.5,22,80.88,11.87,92.63" transform="matrix(1,0,0,1,-4,-4)" class="stroke_order_diagram--current_path"></path><path id="pathSk2v596cn4d1" kvg:type="㇒" d="M22.41,32.87c1.3,1.3,1.71,2.72,1.7,5.07C24,64.5,22,80.88,11.87,92.63" transform="matrix(1,0,0,1,-4,-4)" class="stroke_order_diagram--current_path"></path><circle cx="22.41" cy="32.87" r="8" class="stroke_order_diagram--path_start" transform="matrix(1,0,0,1,-4,-4)"></circle><line x1="150" x2="150" y1="1" y2="99" class="stroke_order_diagram--guide_line"></line><line x1="199" x2="199" y1="1" y2="99" class="stroke_order_diagram--bounding_box"></line><path id="pathSk2v596cn4d4" kvg:type="㇒" d="M22.41,32.87c1.3,1.3,1.71,2.72,1.7,5.07C24,64.5,22,80.88,11.87,92.63" transform="matrix(1,0,0,1,96,-4)" class="stroke_order_diagram--existing_path"></path><path id="kvg:076ae-s2" kvg:type="㇖b" d="M25.14,35.26C45.12,32,66.62,29.62,75.7,29.09c12.11-0.72,5.93,5.29,0.8,10.28" transform="matrix(1,0,0,1,96,-4)" class="stroke_order_diagram--current_path"></path><path id="pathSk2v596cn4d6" kvg:type="㇖b" d="M25.14,35.26C45.12,32,66.62,29.62,75.7,29.09c12.11-0.72,5.93,5.29,0.8,10.28" transform="matrix(1,0,0,1,96,-4)" class="stroke_order_diagram--current_path"></path><circle cx="25.14" cy="35.26" r="8" class="stroke_order_diagram--path_start" transform="matrix(1,0,0,1,96,-4)"></circle><line x1="250" x2="250" y1="1" y2="99" class="stroke_order_diagram--guide_line"></line><line x1="299" x2="299" y1="1" y2="99" class="stroke_order_diagram--bounding_box"></line><path id="pathSk2v596cn4d9" kvg:type="㇒" d="M22.41,32.87c1.3,1.3,1.71,2.72,1.7,5.07C24,64.5,22,80.88,11.87,92.63" transform="matrix(1,0,0,1,196,-4)" class="stroke_order_diagram--existing_path"></path><path id="pathSk2v596cn4da" kvg:type="㇖b" d="M25.14,35.26C45.12,32,66.62,29.62,75.7,29.09c12.11-0.72,5.93,5.29,0.8,10.28" transform="matrix(1,0,0,1,196,-4)" class="stroke_order_diagram--existing_path"></path><path id="kvg:076ae-s3" kvg:type="㇑a" d="M51.87,13.75c1.06,1.06,1.46,2.5,1.46,3.75c0,1.02-0.08,23-0.08,33.25" transform="matrix(1,0,0,1,196,-4)" class="stroke_order_diagram--current_path"></path><path id="pathSk2v596cn4dc" kvg:type="㇑a" d="M51.87,13.75c1.06,1.06,1.46,2.5,1.46,3.75c0,1.02-0.08,23-0.08,33.25" transform="matrix(1,0,0,1,196,-4)" class="stroke_order_diagram--current_path"></path><circle cx="51.87" cy="13.75" r="8" class="stroke_order_diagram--path_start" transform="matrix(1,0,0,1,196,-4)"></circle><line x1="350" x2="350" y1="1" y2="99" class="stroke_order_diagram--guide_line"></line><line x1="399" x2="399" y1="1" y2="99" class="stroke_order_diagram--bounding_box"></line><path id="pathSk2v596cn4df" kvg:type="㇒" d="M22.41,32.87c1.3,1.3,1.71,2.72,1.7,5.07C24,64.5,22,80.88,11.87,92.63" transform="matrix(1,0,0,1,296,-4)" class="stroke_order_diagram--existing_path"></path><path id="pathSk2v596cn4dg" kvg:type="㇖b" d="M25.14,35.26C45.12,32,66.62,29.62,75.7,29.09c12.11-0.72,5.93,5.29,0.8,10.28" transform="matrix(1,0,0,1,296,-4)" class="stroke_order_diagram--existing_path"></path><path id="pathSk2v596cn4dh" kvg:type="㇑a" d="M51.87,13.75c1.06,1.06,1.46,2.5,1.46,3.75c0,1.02-0.08,23-0.08,33.25" transform="matrix(1,0,0,1,296,-4)" class="stroke_order_diagram--existing_path"></path><path id="kvg:076ae-s4" kvg:type="㇇" d="M36,53.94c2.02,0.49,4.11,0.19,6.13-0.17c5.68-1,21.7-4.05,23.58-4.54c3.29-0.86,4.96,0.72,3.12,4.31C59.12,72.5,43.38,85.99,25,95.17" transform="matrix(1,0,0,1,296,-4)" class="stroke_order_diagram--current_path"></path><path id="pathSk2v596cn4dj" kvg:type="㇇" d="M36,53.94c2.02,0.49,4.11,0.19,6.13-0.17c5.68-1,21.7-4.05,23.58-4.54c3.29-0.86,4.96,0.72,3.12,4.31C59.12,72.5,43.38,85.99,25,95.17" transform="matrix(1,0,0,1,296,-4)" class="stroke_order_diagram--current_path"></path><circle cx="36" cy="53.94" r="8" class="stroke_order_diagram--path_start" transform="matrix(1,0,0,1,296,-4)"></circle><line x1="450" x2="450" y1="1" y2="99" class="stroke_order_diagram--guide_line"></line><line x1="499" x2="499" y1="1" y2="99" class="stroke_order_diagram--bounding_box"></line><path id="pathSk2v596cn4dm" kvg:type="㇒" d="M22.41,32.87c1.3,1.3,1.71,2.72,1.7,5.07C24,64.5,22,80.88,11.87,92.63" transform="matrix(1,0,0,1,396,-4)" class="stroke_order_diagram--existing_path"></path><path id="pathSk2v596cn4dn" kvg:type="㇖b" d="M25.14,35.26C45.12,32,66.62,29.62,75.7,29.09c12.11-0.72,5.93,5.29,0.8,10.28" transform="matrix(1,0,0,1,396,-4)" class="stroke_order_diagram--existing_path"></path><path id="pathSk2v596cn4do" kvg:type="㇑a" d="M51.87,13.75c1.06,1.06,1.46,2.5,1.46,3.75c0,1.02-0.08,23-0.08,33.25" transform="matrix(1,0,0,1,396,-4)" class="stroke_order_diagram--existing_path"></path><path id="pathSk2v596cn4dp" kvg:type="㇇" d="M36,53.94c2.02,0.49,4.11,0.19,6.13-0.17c5.68-1,21.7-4.05,23.58-4.54c3.29-0.86,4.96,0.72,3.12,4.31C59.12,72.5,43.38,85.99,25,95.17" transform="matrix(1,0,0,1,396,-4)" class="stroke_order_diagram--existing_path"></path><path id="kvg:076ae-s5" kvg:type="㇏" d="M36.23,62.9c4.67,0.76,26.56,20.08,43.46,29.57c3.08,1.73,6.32,3.56,9.84,4.21" transform="matrix(1,0,0,1,396,-4)" class="stroke_order_diagram--current_path"></path><path id="pathSk2v596cn4dr" kvg:type="㇏" d="M36.23,62.9c4.67,0.76,26.56,20.08,43.46,29.57c3.08,1.73,6.32,3.56,9.84,4.21" transform="matrix(1,0,0,1,396,-4)" class="stroke_order_diagram--current_path"></path><circle cx="36.23" cy="62.9" r="8" class="stroke_order_diagram--path_start" transform="matrix(1,0,0,1,396,-4)"></circle></svg>