<svg style="width: 1700px; height: 100px;" viewbox="0 0 1700 100"><style>
.stroke_order_diagram--outer_container {
  width: 100%;
  overflow-x: auto;
  overflow-y: hidden;
}

.stroke_order_diagram--guide_line {
  fill: none;
  stroke: #ddd;
  stroke-width: 3;
  stroke-linecap: square;
  stroke-linejoin: square;
  stroke-dasharray:8, 8;
}

.stroke_order_diagram--bounding_box {
  fill: none;
  stroke: #ddd;
  stroke-width: 4;
  stroke-linecap: square;
  stroke-linejoin: square;
}

.stroke_order_diagram--current_path {
  fill: none;
  stroke: #000;
  stroke-width: 6;
  stroke-linecap: round;
  stroke-linejoin: round;
}

.stroke_order_diagram--existing_path {
  fill: none;
  stroke: #aaa;
  stroke-width: 6;
  stroke-linecap: round;
  stroke-linejoin:round;
}

.stroke_order_diagram--path_start {
  fill: rgba(255, 0, 0, 0.7);
  stroke:none
}</style><desc>Created with Snap</desc><defs></defs><line x1="1" x2="1699" y1="1" y2="1" class="stroke_order_diagram--bounding_box"></line><line x1="1" x2="1" y1="1" y2="99" class="stroke_order_diagram--bounding_box"></line><line x1="1" x2="1699" y1="99" y2="99" class="stroke_order_diagram--bounding_box"></line><line x1="0" x2="1700" y1="50" y2="50" class="stroke_order_diagram--guide_line"></line><line x1="50" x2="50" y1="1" y2="99" class="stroke_order_diagram--guide_line"></line><line x1="99" x2="99" y1="1" y2="99" class="stroke_order_diagram--bounding_box"></line><path id="kvg:077ad-s1" kvg:type="㇑" d="M12.37,25.59c0.9,0.9,0.91,1.8,0.91,3.69c0,1.47,0.07,55.99,0.07,56.73" transform="matrix(1,0,0,1,-4,-4)" class="stroke_order_diagram--current_path"></path><path id="pathSk2v596cn3ngh" kvg:type="㇑" d="M12.37,25.59c0.9,0.9,0.91,1.8,0.91,3.69c0,1.47,0.07,55.99,0.07,56.73" transform="matrix(1,0,0,1,-4,-4)" class="stroke_order_diagram--current_path"></path><circle cx="12.37" cy="25.59" r="8" class="stroke_order_diagram--path_start" transform="matrix(1,0,0,1,-4,-4)"></circle><line x1="150" x2="150" y1="1" y2="99" class="stroke_order_diagram--guide_line"></line><line x1="199" x2="199" y1="1" y2="99" class="stroke_order_diagram--bounding_box"></line><path id="pathSk2v596cn3ngk" kvg:type="㇑" d="M12.37,25.59c0.9,0.9,0.91,1.8,0.91,3.69c0,1.47,0.07,55.99,0.07,56.73" transform="matrix(1,0,0,1,96,-4)" class="stroke_order_diagram--existing_path"></path><path id="kvg:077ad-s2" kvg:type="㇕a" d="M14.22,27.39c2.45-0.41,9.18-1.57,12.4-2.05c2.83-0.42,3.55,0.87,3.57,3.67c0.06,7.32,0.03,39.88,0.04,54.7" transform="matrix(1,0,0,1,96,-4)" class="stroke_order_diagram--current_path"></path><path id="pathSk2v596cn3ngm" kvg:type="㇕a" d="M14.22,27.39c2.45-0.41,9.18-1.57,12.4-2.05c2.83-0.42,3.55,0.87,3.57,3.67c0.06,7.32,0.03,39.88,0.04,54.7" transform="matrix(1,0,0,1,96,-4)" class="stroke_order_diagram--current_path"></path><circle cx="14.22" cy="27.39" r="8" class="stroke_order_diagram--path_start" transform="matrix(1,0,0,1,96,-4)"></circle><line x1="250" x2="250" y1="1" y2="99" class="stroke_order_diagram--guide_line"></line><line x1="299" x2="299" y1="1" y2="99" class="stroke_order_diagram--bounding_box"></line><path id="pathSk2v596cn3ngp" kvg:type="㇑" d="M12.37,25.59c0.9,0.9,0.91,1.8,0.91,3.69c0,1.47,0.07,55.99,0.07,56.73" transform="matrix(1,0,0,1,196,-4)" class="stroke_order_diagram--existing_path"></path><path id="pathSk2v596cn3ngq" kvg:type="㇕a" d="M14.22,27.39c2.45-0.41,9.18-1.57,12.4-2.05c2.83-0.42,3.55,0.87,3.57,3.67c0.06,7.32,0.03,39.88,0.04,54.7" transform="matrix(1,0,0,1,196,-4)" class="stroke_order_diagram--existing_path"></path><path id="kvg:077ad-s3" kvg:type="㇐a" d="M14.2,44.82c4.59-0.47,9.99-1.19,14.74-1.67" transform="matrix(1,0,0,1,196,-4)" class="stroke_order_diagram--current_path"></path><path id="pathSk2v596cn3ngs" kvg:type="㇐a" d="M14.2,44.82c4.59-0.47,9.99-1.19,14.74-1.67" transform="matrix(1,0,0,1,196,-4)" class="stroke_order_diagram--current_path"></path><circle cx="14.2" cy="44.82" r="8" class="stroke_order_diagram--path_start" transform="matrix(1,0,0,1,196,-4)"></circle><line x1="350" x2="350" y1="1" y2="99" class="stroke_order_diagram--guide_line"></line><line x1="399" x2="399" y1="1" y2="99" class="stroke_order_diagram--bounding_box"></line><path id="pathSk2v596cn3ngv" kvg:type="㇑" d="M12.37,25.59c0.9,0.9,0.91,1.8,0.91,3.69c0,1.47,0.07,55.99,0.07,56.73" transform="matrix(1,0,0,1,296,-4)" class="stroke_order_diagram--existing_path"></path><path id="pathSk2v596cn3ngw" kvg:type="㇕a" d="M14.22,27.39c2.45-0.41,9.18-1.57,12.4-2.05c2.83-0.42,3.55,0.87,3.57,3.67c0.06,7.32,0.03,39.88,0.04,54.7" transform="matrix(1,0,0,1,296,-4)" class="stroke_order_diagram--existing_path"></path><path id="pathSk2v596cn3ngx" kvg:type="㇐a" d="M14.2,44.82c4.59-0.47,9.99-1.19,14.74-1.67" transform="matrix(1,0,0,1,296,-4)" class="stroke_order_diagram--existing_path"></path><path id="kvg:077ad-s4" kvg:type="㇐a" d="M14.32,63.24c4.89-0.49,10.93-1.24,14.86-1.4" transform="matrix(1,0,0,1,296,-4)" class="stroke_order_diagram--current_path"></path><path id="pathSk2v596cn3ngz" kvg:type="㇐a" d="M14.32,63.24c4.89-0.49,10.93-1.24,14.86-1.4" transform="matrix(1,0,0,1,296,-4)" class="stroke_order_diagram--current_path"></path><circle cx="14.32" cy="63.24" r="8" class="stroke_order_diagram--path_start" transform="matrix(1,0,0,1,296,-4)"></circle><line x1="450" x2="450" y1="1" y2="99" class="stroke_order_diagram--guide_line"></line><line x1="499" x2="499" y1="1" y2="99" class="stroke_order_diagram--bounding_box"></line><path id="pathSk2v596cn3nh2" kvg:type="㇑" d="M12.37,25.59c0.9,0.9,0.91,1.8,0.91,3.69c0,1.47,0.07,55.99,0.07,56.73" transform="matrix(1,0,0,1,396,-4)" class="stroke_order_diagram--existing_path"></path><path id="pathSk2v596cn3nh3" kvg:type="㇕a" d="M14.22,27.39c2.45-0.41,9.18-1.57,12.4-2.05c2.83-0.42,3.55,0.87,3.57,3.67c0.06,7.32,0.03,39.88,0.04,54.7" transform="matrix(1,0,0,1,396,-4)" class="stroke_order_diagram--existing_path"></path><path id="pathSk2v596cn3nh4" kvg:type="㇐a" d="M14.2,44.82c4.59-0.47,9.99-1.19,14.74-1.67" transform="matrix(1,0,0,1,396,-4)" class="stroke_order_diagram--existing_path"></path><path id="pathSk2v596cn3nh5" kvg:type="㇐a" d="M14.32,63.24c4.89-0.49,10.93-1.24,14.86-1.4" transform="matrix(1,0,0,1,396,-4)" class="stroke_order_diagram--existing_path"></path><path id="kvg:077ad-s5" kvg:type="㇐a" d="M14.21,83.24c3.85-0.65,10.26-1.38,15.01-1.41" transform="matrix(1,0,0,1,396,-4)" class="stroke_order_diagram--current_path"></path><path id="pathSk2v596cn3nh7" kvg:type="㇐a" d="M14.21,83.24c3.85-0.65,10.26-1.38,15.01-1.41" transform="matrix(1,0,0,1,396,-4)" class="stroke_order_diagram--current_path"></path><circle cx="14.21" cy="83.24" r="8" class="stroke_order_diagram--path_start" transform="matrix(1,0,0,1,396,-4)"></circle><line x1="550" x2="550" y1="1" y2="99" class="stroke_order_diagram--guide_line"></line><line x1="599" x2="599" y1="1" y2="99" class="stroke_order_diagram--bounding_box"></line><path id="pathSk2v596cn3nha" kvg:type="㇑" d="M12.37,25.59c0.9,0.9,0.91,1.8,0.91,3.69c0,1.47,0.07,55.99,0.07,56.73" transform="matrix(1,0,0,1,496,-4)" class="stroke_order_diagram--existing_path"></path><path id="pathSk2v596cn3nhb" kvg:type="㇕a" d="M14.22,27.39c2.45-0.41,9.18-1.57,12.4-2.05c2.83-0.42,3.55,0.87,3.57,3.67c0.06,7.32,0.03,39.88,0.04,54.7" transform="matrix(1,0,0,1,496,-4)" class="stroke_order_diagram--existing_path"></path><path id="pathSk2v596cn3nhc" kvg:type="㇐a" d="M14.2,44.82c4.59-0.47,9.99-1.19,14.74-1.67" transform="matrix(1,0,0,1,496,-4)" class="stroke_order_diagram--existing_path"></path><path id="pathSk2v596cn3nhd" kvg:type="㇐a" d="M14.32,63.24c4.89-0.49,10.93-1.24,14.86-1.4" transform="matrix(1,0,0,1,496,-4)" class="stroke_order_diagram--existing_path"></path><path id="pathSk2v596cn3nhe" kvg:type="㇐a" d="M14.21,83.24c3.85-0.65,10.26-1.38,15.01-1.41" transform="matrix(1,0,0,1,496,-4)" class="stroke_order_diagram--existing_path"></path><path id="kvg:077ad-s6" kvg:type="㇐" d="M40.73,23.6c3.52,0.77,6.88,0.29,9.38-0.06c9.01-1.29,22.73-2.72,32.28-3.43c2.86-0.21,5.77-0.57,8.6,0.07" transform="matrix(1,0,0,1,496,-4)" class="stroke_order_diagram--current_path"></path><path id="pathSk2v596cn3nhg" kvg:type="㇐" d="M40.73,23.6c3.52,0.77,6.88,0.29,9.38-0.06c9.01-1.29,22.73-2.72,32.28-3.43c2.86-0.21,5.77-0.57,8.6,0.07" transform="matrix(1,0,0,1,496,-4)" class="stroke_order_diagram--current_path"></path><circle cx="40.73" cy="23.6" r="8" class="stroke_order_diagram--path_start" transform="matrix(1,0,0,1,496,-4)"></circle><line x1="650" x2="650" y1="1" y2="99" class="stroke_order_diagram--guide_line"></line><line x1="699" x2="699" y1="1" y2="99" class="stroke_order_diagram--bounding_box"></line><path id="pathSk2v596cn3nhj" kvg:type="㇑" d="M12.37,25.59c0.9,0.9,0.91,1.8,0.91,3.69c0,1.47,0.07,55.99,0.07,56.73" transform="matrix(1,0,0,1,596,-4)" class="stroke_order_diagram--existing_path"></path><path id="pathSk2v596cn3nhk" kvg:type="㇕a" d="M14.22,27.39c2.45-0.41,9.18-1.57,12.4-2.05c2.83-0.42,3.55,0.87,3.57,3.67c0.06,7.32,0.03,39.88,0.04,54.7" transform="matrix(1,0,0,1,596,-4)" class="stroke_order_diagram--existing_path"></path><path id="pathSk2v596cn3nhl" kvg:type="㇐a" d="M14.2,44.82c4.59-0.47,9.99-1.19,14.74-1.67" transform="matrix(1,0,0,1,596,-4)" class="stroke_order_diagram--existing_path"></path><path id="pathSk2v596cn3nhm" kvg:type="㇐a" d="M14.32,63.24c4.89-0.49,10.93-1.24,14.86-1.4" transform="matrix(1,0,0,1,596,-4)" class="stroke_order_diagram--existing_path"></path><path id="pathSk2v596cn3nhn" kvg:type="㇐a" d="M14.21,83.24c3.85-0.65,10.26-1.38,15.01-1.41" transform="matrix(1,0,0,1,596,-4)" class="stroke_order_diagram--existing_path"></path><path id="pathSk2v596cn3nho" kvg:type="㇐" d="M40.73,23.6c3.52,0.77,6.88,0.29,9.38-0.06c9.01-1.29,22.73-2.72,32.28-3.43c2.86-0.21,5.77-0.57,8.6,0.07" transform="matrix(1,0,0,1,596,-4)" class="stroke_order_diagram--existing_path"></path><path id="kvg:077ad-s7" kvg:type="㇒" d="M62.26,12.5c0.49,1,0.46,2.13,0.14,3.26C58.5,29.75,51.5,41.38,36.25,51.51" transform="matrix(1,0,0,1,596,-4)" class="stroke_order_diagram--current_path"></path><path id="pathSk2v596cn3nhq" kvg:type="㇒" d="M62.26,12.5c0.49,1,0.46,2.13,0.14,3.26C58.5,29.75,51.5,41.38,36.25,51.51" transform="matrix(1,0,0,1,596,-4)" class="stroke_order_diagram--current_path"></path><circle cx="62.26" cy="12.5" r="8" class="stroke_order_diagram--path_start" transform="matrix(1,0,0,1,596,-4)"></circle><line x1="750" x2="750" y1="1" y2="99" class="stroke_order_diagram--guide_line"></line><line x1="799" x2="799" y1="1" y2="99" class="stroke_order_diagram--bounding_box"></line><path id="pathSk2v596cn3nht" kvg:type="㇑" d="M12.37,25.59c0.9,0.9,0.91,1.8,0.91,3.69c0,1.47,0.07,55.99,0.07,56.73" transform="matrix(1,0,0,1,696,-4)" class="stroke_order_diagram--existing_path"></path><path id="pathSk2v596cn3nhu" kvg:type="㇕a" d="M14.22,27.39c2.45-0.41,9.18-1.57,12.4-2.05c2.83-0.42,3.55,0.87,3.57,3.67c0.06,7.32,0.03,39.88,0.04,54.7" transform="matrix(1,0,0,1,696,-4)" class="stroke_order_diagram--existing_path"></path><path id="pathSk2v596cn3nhv" kvg:type="㇐a" d="M14.2,44.82c4.59-0.47,9.99-1.19,14.74-1.67" transform="matrix(1,0,0,1,696,-4)" class="stroke_order_diagram--existing_path"></path><path id="pathSk2v596cn3nhw" kvg:type="㇐a" d="M14.32,63.24c4.89-0.49,10.93-1.24,14.86-1.4" transform="matrix(1,0,0,1,696,-4)" class="stroke_order_diagram--existing_path"></path><path id="pathSk2v596cn3nhx" kvg:type="㇐a" d="M14.21,83.24c3.85-0.65,10.26-1.38,15.01-1.41" transform="matrix(1,0,0,1,696,-4)" class="stroke_order_diagram--existing_path"></path><path id="pathSk2v596cn3nhy" kvg:type="㇐" d="M40.73,23.6c3.52,0.77,6.88,0.29,9.38-0.06c9.01-1.29,22.73-2.72,32.28-3.43c2.86-0.21,5.77-0.57,8.6,0.07" transform="matrix(1,0,0,1,696,-4)" class="stroke_order_diagram--existing_path"></path><path id="pathSk2v596cn3nhz" kvg:type="㇒" d="M62.26,12.5c0.49,1,0.46,2.13,0.14,3.26C58.5,29.75,51.5,41.38,36.25,51.51" transform="matrix(1,0,0,1,696,-4)" class="stroke_order_diagram--existing_path"></path><path id="kvg:077ad-s8" kvg:type="㇏" d="M68.93,22.42c4.49,4.14,13.12,13.06,19.27,18.26C90.5,42.62,92.5,44,95,45.25" transform="matrix(1,0,0,1,696,-4)" class="stroke_order_diagram--current_path"></path><path id="pathSk2v596cn3ni1" kvg:type="㇏" d="M68.93,22.42c4.49,4.14,13.12,13.06,19.27,18.26C90.5,42.62,92.5,44,95,45.25" transform="matrix(1,0,0,1,696,-4)" class="stroke_order_diagram--current_path"></path><circle cx="68.93" cy="22.42" r="8" class="stroke_order_diagram--path_start" transform="matrix(1,0,0,1,696,-4)"></circle><line x1="850" x2="850" y1="1" y2="99" class="stroke_order_diagram--guide_line"></line><line x1="899" x2="899" y1="1" y2="99" class="stroke_order_diagram--bounding_box"></line><path id="pathSk2v596cn3ni4" kvg:type="㇑" d="M12.37,25.59c0.9,0.9,0.91,1.8,0.91,3.69c0,1.47,0.07,55.99,0.07,56.73" transform="matrix(1,0,0,1,796,-4)" class="stroke_order_diagram--existing_path"></path><path id="pathSk2v596cn3ni5" kvg:type="㇕a" d="M14.22,27.39c2.45-0.41,9.18-1.57,12.4-2.05c2.83-0.42,3.55,0.87,3.57,3.67c0.06,7.32,0.03,39.88,0.04,54.7" transform="matrix(1,0,0,1,796,-4)" class="stroke_order_diagram--existing_path"></path><path id="pathSk2v596cn3ni6" kvg:type="㇐a" d="M14.2,44.82c4.59-0.47,9.99-1.19,14.74-1.67" transform="matrix(1,0,0,1,796,-4)" class="stroke_order_diagram--existing_path"></path><path id="pathSk2v596cn3ni7" kvg:type="㇐a" d="M14.32,63.24c4.89-0.49,10.93-1.24,14.86-1.4" transform="matrix(1,0,0,1,796,-4)" class="stroke_order_diagram--existing_path"></path><path id="pathSk2v596cn3ni8" kvg:type="㇐a" d="M14.21,83.24c3.85-0.65,10.26-1.38,15.01-1.41" transform="matrix(1,0,0,1,796,-4)" class="stroke_order_diagram--existing_path"></path><path id="pathSk2v596cn3ni9" kvg:type="㇐" d="M40.73,23.6c3.52,0.77,6.88,0.29,9.38-0.06c9.01-1.29,22.73-2.72,32.28-3.43c2.86-0.21,5.77-0.57,8.6,0.07" transform="matrix(1,0,0,1,796,-4)" class="stroke_order_diagram--existing_path"></path><path id="pathSk2v596cn3nia" kvg:type="㇒" d="M62.26,12.5c0.49,1,0.46,2.13,0.14,3.26C58.5,29.75,51.5,41.38,36.25,51.51" transform="matrix(1,0,0,1,796,-4)" class="stroke_order_diagram--existing_path"></path><path id="pathSk2v596cn3nib" kvg:type="㇏" d="M68.93,22.42c4.49,4.14,13.12,13.06,19.27,18.26C90.5,42.62,92.5,44,95,45.25" transform="matrix(1,0,0,1,796,-4)" class="stroke_order_diagram--existing_path"></path><path id="kvg:077ad-s9" kvg:type="㇔" d="M40.27,31.83c2.57,1.17,6.65,4.81,7.29,6.63" transform="matrix(1,0,0,1,796,-4)" class="stroke_order_diagram--current_path"></path><path id="pathSk2v596cn3nid" kvg:type="㇔" d="M40.27,31.83c2.57,1.17,6.65,4.81,7.29,6.63" transform="matrix(1,0,0,1,796,-4)" class="stroke_order_diagram--current_path"></path><circle cx="40.27" cy="31.83" r="8" class="stroke_order_diagram--path_start" transform="matrix(1,0,0,1,796,-4)"></circle><line x1="950" x2="950" y1="1" y2="99" class="stroke_order_diagram--guide_line"></line><line x1="999" x2="999" y1="1" y2="99" class="stroke_order_diagram--bounding_box"></line><path id="pathSk2v596cn3nig" kvg:type="㇑" d="M12.37,25.59c0.9,0.9,0.91,1.8,0.91,3.69c0,1.47,0.07,55.99,0.07,56.73" transform="matrix(1,0,0,1,896,-4)" class="stroke_order_diagram--existing_path"></path><path id="pathSk2v596cn3nih" kvg:type="㇕a" d="M14.22,27.39c2.45-0.41,9.18-1.57,12.4-2.05c2.83-0.42,3.55,0.87,3.57,3.67c0.06,7.32,0.03,39.88,0.04,54.7" transform="matrix(1,0,0,1,896,-4)" class="stroke_order_diagram--existing_path"></path><path id="pathSk2v596cn3nii" kvg:type="㇐a" d="M14.2,44.82c4.59-0.47,9.99-1.19,14.74-1.67" transform="matrix(1,0,0,1,896,-4)" class="stroke_order_diagram--existing_path"></path><path id="pathSk2v596cn3nij" kvg:type="㇐a" d="M14.32,63.24c4.89-0.49,10.93-1.24,14.86-1.4" transform="matrix(1,0,0,1,896,-4)" class="stroke_order_diagram--existing_path"></path><path id="pathSk2v596cn3nik" kvg:type="㇐a" d="M14.21,83.24c3.85-0.65,10.26-1.38,15.01-1.41" transform="matrix(1,0,0,1,896,-4)" class="stroke_order_diagram--existing_path"></path><path id="pathSk2v596cn3nil" kvg:type="㇐" d="M40.73,23.6c3.52,0.77,6.88,0.29,9.38-0.06c9.01-1.29,22.73-2.72,32.28-3.43c2.86-0.21,5.77-0.57,8.6,0.07" transform="matrix(1,0,0,1,896,-4)" class="stroke_order_diagram--existing_path"></path><path id="pathSk2v596cn3nim" kvg:type="㇒" d="M62.26,12.5c0.49,1,0.46,2.13,0.14,3.26C58.5,29.75,51.5,41.38,36.25,51.51" transform="matrix(1,0,0,1,896,-4)" class="stroke_order_diagram--existing_path"></path><path id="pathSk2v596cn3nin" kvg:type="㇏" d="M68.93,22.42c4.49,4.14,13.12,13.06,19.27,18.26C90.5,42.62,92.5,44,95,45.25" transform="matrix(1,0,0,1,896,-4)" class="stroke_order_diagram--existing_path"></path><path id="pathSk2v596cn3nio" kvg:type="㇔" d="M40.27,31.83c2.57,1.17,6.65,4.81,7.29,6.63" transform="matrix(1,0,0,1,896,-4)" class="stroke_order_diagram--existing_path"></path><path id="kvg:077ad-s10" kvg:type="㇒" d="M88.77,26.14c0.04,0.29,0.08,0.74-0.08,1.15c-0.49,1.29-2.22,3.4-4.82,5.58" transform="matrix(1,0,0,1,896,-4)" class="stroke_order_diagram--current_path"></path><path id="pathSk2v596cn3niq" kvg:type="㇒" d="M88.77,26.14c0.04,0.29,0.08,0.74-0.08,1.15c-0.49,1.29-2.22,3.4-4.82,5.58" transform="matrix(1,0,0,1,896,-4)" class="stroke_order_diagram--current_path"></path><circle cx="88.77" cy="26.14" r="8" class="stroke_order_diagram--path_start" transform="matrix(1,0,0,1,896,-4)"></circle><line x1="1050" x2="1050" y1="1" y2="99" class="stroke_order_diagram--guide_line"></line><line x1="1099" x2="1099" y1="1" y2="99" class="stroke_order_diagram--bounding_box"></line><path id="pathSk2v596cn3nit" kvg:type="㇑" d="M12.37,25.59c0.9,0.9,0.91,1.8,0.91,3.69c0,1.47,0.07,55.99,0.07,56.73" transform="matrix(1,0,0,1,996,-4)" class="stroke_order_diagram--existing_path"></path><path id="pathSk2v596cn3niu" kvg:type="㇕a" d="M14.22,27.39c2.45-0.41,9.18-1.57,12.4-2.05c2.83-0.42,3.55,0.87,3.57,3.67c0.06,7.32,0.03,39.88,0.04,54.7" transform="matrix(1,0,0,1,996,-4)" class="stroke_order_diagram--existing_path"></path><path id="pathSk2v596cn3niv" kvg:type="㇐a" d="M14.2,44.82c4.59-0.47,9.99-1.19,14.74-1.67" transform="matrix(1,0,0,1,996,-4)" class="stroke_order_diagram--existing_path"></path><path id="pathSk2v596cn3niw" kvg:type="㇐a" d="M14.32,63.24c4.89-0.49,10.93-1.24,14.86-1.4" transform="matrix(1,0,0,1,996,-4)" class="stroke_order_diagram--existing_path"></path><path id="pathSk2v596cn3nix" kvg:type="㇐a" d="M14.21,83.24c3.85-0.65,10.26-1.38,15.01-1.41" transform="matrix(1,0,0,1,996,-4)" class="stroke_order_diagram--existing_path"></path><path id="pathSk2v596cn3niy" kvg:type="㇐" d="M40.73,23.6c3.52,0.77,6.88,0.29,9.38-0.06c9.01-1.29,22.73-2.72,32.28-3.43c2.86-0.21,5.77-0.57,8.6,0.07" transform="matrix(1,0,0,1,996,-4)" class="stroke_order_diagram--existing_path"></path><path id="pathSk2v596cn3niz" kvg:type="㇒" d="M62.26,12.5c0.49,1,0.46,2.13,0.14,3.26C58.5,29.75,51.5,41.38,36.25,51.51" transform="matrix(1,0,0,1,996,-4)" class="stroke_order_diagram--existing_path"></path><path id="pathSk2v596cn3nj0" kvg:type="㇏" d="M68.93,22.42c4.49,4.14,13.12,13.06,19.27,18.26C90.5,42.62,92.5,44,95,45.25" transform="matrix(1,0,0,1,996,-4)" class="stroke_order_diagram--existing_path"></path><path id="pathSk2v596cn3nj1" kvg:type="㇔" d="M40.27,31.83c2.57,1.17,6.65,4.81,7.29,6.63" transform="matrix(1,0,0,1,996,-4)" class="stroke_order_diagram--existing_path"></path><path id="pathSk2v596cn3nj2" kvg:type="㇒" d="M88.77,26.14c0.04,0.29,0.08,0.74-0.08,1.15c-0.49,1.29-2.22,3.4-4.82,5.58" transform="matrix(1,0,0,1,996,-4)" class="stroke_order_diagram--existing_path"></path><path id="kvg:077ad-s11" kvg:type="㇑" d="M47.74,46.32c0.72,0.72,1.13,1.43,1.38,2.58c0.85,3.9,1.82,8.69,2.68,13.37c0.3,1.62,0.58,3.22,0.85,4.77" transform="matrix(1,0,0,1,996,-4)" class="stroke_order_diagram--current_path"></path><path id="pathSk2v596cn3nj4" kvg:type="㇑" d="M47.74,46.32c0.72,0.72,1.13,1.43,1.38,2.58c0.85,3.9,1.82,8.69,2.68,13.37c0.3,1.62,0.58,3.22,0.85,4.77" transform="matrix(1,0,0,1,996,-4)" class="stroke_order_diagram--current_path"></path><circle cx="47.74" cy="46.32" r="8" class="stroke_order_diagram--path_start" transform="matrix(1,0,0,1,996,-4)"></circle><line x1="1150" x2="1150" y1="1" y2="99" class="stroke_order_diagram--guide_line"></line><line x1="1199" x2="1199" y1="1" y2="99" class="stroke_order_diagram--bounding_box"></line><path id="pathSk2v596cn3nj7" kvg:type="㇑" d="M12.37,25.59c0.9,0.9,0.91,1.8,0.91,3.69c0,1.47,0.07,55.99,0.07,56.73" transform="matrix(1,0,0,1,1096,-4)" class="stroke_order_diagram--existing_path"></path><path id="pathSk2v596cn3nj8" kvg:type="㇕a" d="M14.22,27.39c2.45-0.41,9.18-1.57,12.4-2.05c2.83-0.42,3.55,0.87,3.57,3.67c0.06,7.32,0.03,39.88,0.04,54.7" transform="matrix(1,0,0,1,1096,-4)" class="stroke_order_diagram--existing_path"></path><path id="pathSk2v596cn3nj9" kvg:type="㇐a" d="M14.2,44.82c4.59-0.47,9.99-1.19,14.74-1.67" transform="matrix(1,0,0,1,1096,-4)" class="stroke_order_diagram--existing_path"></path><path id="pathSk2v596cn3nja" kvg:type="㇐a" d="M14.32,63.24c4.89-0.49,10.93-1.24,14.86-1.4" transform="matrix(1,0,0,1,1096,-4)" class="stroke_order_diagram--existing_path"></path><path id="pathSk2v596cn3njb" kvg:type="㇐a" d="M14.21,83.24c3.85-0.65,10.26-1.38,15.01-1.41" transform="matrix(1,0,0,1,1096,-4)" class="stroke_order_diagram--existing_path"></path><path id="pathSk2v596cn3njc" kvg:type="㇐" d="M40.73,23.6c3.52,0.77,6.88,0.29,9.38-0.06c9.01-1.29,22.73-2.72,32.28-3.43c2.86-0.21,5.77-0.57,8.6,0.07" transform="matrix(1,0,0,1,1096,-4)" class="stroke_order_diagram--existing_path"></path><path id="pathSk2v596cn3njd" kvg:type="㇒" d="M62.26,12.5c0.49,1,0.46,2.13,0.14,3.26C58.5,29.75,51.5,41.38,36.25,51.51" transform="matrix(1,0,0,1,1096,-4)" class="stroke_order_diagram--existing_path"></path><path id="pathSk2v596cn3nje" kvg:type="㇏" d="M68.93,22.42c4.49,4.14,13.12,13.06,19.27,18.26C90.5,42.62,92.5,44,95,45.25" transform="matrix(1,0,0,1,1096,-4)" class="stroke_order_diagram--existing_path"></path><path id="pathSk2v596cn3njf" kvg:type="㇔" d="M40.27,31.83c2.57,1.17,6.65,4.81,7.29,6.63" transform="matrix(1,0,0,1,1096,-4)" class="stroke_order_diagram--existing_path"></path><path id="pathSk2v596cn3njg" kvg:type="㇒" d="M88.77,26.14c0.04,0.29,0.08,0.74-0.08,1.15c-0.49,1.29-2.22,3.4-4.82,5.58" transform="matrix(1,0,0,1,1096,-4)" class="stroke_order_diagram--existing_path"></path><path id="pathSk2v596cn3njh" kvg:type="㇑" d="M47.74,46.32c0.72,0.72,1.13,1.43,1.38,2.58c0.85,3.9,1.82,8.69,2.68,13.37c0.3,1.62,0.58,3.22,0.85,4.77" transform="matrix(1,0,0,1,1096,-4)" class="stroke_order_diagram--existing_path"></path><path id="kvg:077ad-s12" kvg:type="㇕a" d="M49.87,47.53c7.72-0.87,21.49-2.26,28.63-3.1c3.66-0.43,5.24,0.69,4.69,3.95c-0.56,3.29-1.42,8.06-2.2,12.49c-0.29,1.64-0.56,3.23-0.8,4.68" transform="matrix(1,0,0,1,1096,-4)" class="stroke_order_diagram--current_path"></path><path id="pathSk2v596cn3njj" kvg:type="㇕a" d="M49.87,47.53c7.72-0.87,21.49-2.26,28.63-3.1c3.66-0.43,5.24,0.69,4.69,3.95c-0.56,3.29-1.42,8.06-2.2,12.49c-0.29,1.64-0.56,3.23-0.8,4.68" transform="matrix(1,0,0,1,1096,-4)" class="stroke_order_diagram--current_path"></path><circle cx="49.87" cy="47.53" r="8" class="stroke_order_diagram--path_start" transform="matrix(1,0,0,1,1096,-4)"></circle><line x1="1250" x2="1250" y1="1" y2="99" class="stroke_order_diagram--guide_line"></line><line x1="1299" x2="1299" y1="1" y2="99" class="stroke_order_diagram--bounding_box"></line><path id="pathSk2v596cn3njm" kvg:type="㇑" d="M12.37,25.59c0.9,0.9,0.91,1.8,0.91,3.69c0,1.47,0.07,55.99,0.07,56.73" transform="matrix(1,0,0,1,1196,-4)" class="stroke_order_diagram--existing_path"></path><path id="pathSk2v596cn3njn" kvg:type="㇕a" d="M14.22,27.39c2.45-0.41,9.18-1.57,12.4-2.05c2.83-0.42,3.55,0.87,3.57,3.67c0.06,7.32,0.03,39.88,0.04,54.7" transform="matrix(1,0,0,1,1196,-4)" class="stroke_order_diagram--existing_path"></path><path id="pathSk2v596cn3njo" kvg:type="㇐a" d="M14.2,44.82c4.59-0.47,9.99-1.19,14.74-1.67" transform="matrix(1,0,0,1,1196,-4)" class="stroke_order_diagram--existing_path"></path><path id="pathSk2v596cn3njp" kvg:type="㇐a" d="M14.32,63.24c4.89-0.49,10.93-1.24,14.86-1.4" transform="matrix(1,0,0,1,1196,-4)" class="stroke_order_diagram--existing_path"></path><path id="pathSk2v596cn3njq" kvg:type="㇐a" d="M14.21,83.24c3.85-0.65,10.26-1.38,15.01-1.41" transform="matrix(1,0,0,1,1196,-4)" class="stroke_order_diagram--existing_path"></path><path id="pathSk2v596cn3njr" kvg:type="㇐" d="M40.73,23.6c3.52,0.77,6.88,0.29,9.38-0.06c9.01-1.29,22.73-2.72,32.28-3.43c2.86-0.21,5.77-0.57,8.6,0.07" transform="matrix(1,0,0,1,1196,-4)" class="stroke_order_diagram--existing_path"></path><path id="pathSk2v596cn3njs" kvg:type="㇒" d="M62.26,12.5c0.49,1,0.46,2.13,0.14,3.26C58.5,29.75,51.5,41.38,36.25,51.51" transform="matrix(1,0,0,1,1196,-4)" class="stroke_order_diagram--existing_path"></path><path id="pathSk2v596cn3njt" kvg:type="㇏" d="M68.93,22.42c4.49,4.14,13.12,13.06,19.27,18.26C90.5,42.62,92.5,44,95,45.25" transform="matrix(1,0,0,1,1196,-4)" class="stroke_order_diagram--existing_path"></path><path id="pathSk2v596cn3nju" kvg:type="㇔" d="M40.27,31.83c2.57,1.17,6.65,4.81,7.29,6.63" transform="matrix(1,0,0,1,1196,-4)" class="stroke_order_diagram--existing_path"></path><path id="pathSk2v596cn3njv" kvg:type="㇒" d="M88.77,26.14c0.04,0.29,0.08,0.74-0.08,1.15c-0.49,1.29-2.22,3.4-4.82,5.58" transform="matrix(1,0,0,1,1196,-4)" class="stroke_order_diagram--existing_path"></path><path id="pathSk2v596cn3njw" kvg:type="㇑" d="M47.74,46.32c0.72,0.72,1.13,1.43,1.38,2.58c0.85,3.9,1.82,8.69,2.68,13.37c0.3,1.62,0.58,3.22,0.85,4.77" transform="matrix(1,0,0,1,1196,-4)" class="stroke_order_diagram--existing_path"></path><path id="pathSk2v596cn3njx" kvg:type="㇕a" d="M49.87,47.53c7.72-0.87,21.49-2.26,28.63-3.1c3.66-0.43,5.24,0.69,4.69,3.95c-0.56,3.29-1.42,8.06-2.2,12.49c-0.29,1.64-0.56,3.23-0.8,4.68" transform="matrix(1,0,0,1,1196,-4)" class="stroke_order_diagram--existing_path"></path><path id="kvg:077ad-s13" kvg:type="㇐a" d="M51.7,56.1c2.75-0.37,27.95-2.35,30.22-2.5" transform="matrix(1,0,0,1,1196,-4)" class="stroke_order_diagram--current_path"></path><path id="pathSk2v596cn3njz" kvg:type="㇐a" d="M51.7,56.1c2.75-0.37,27.95-2.35,30.22-2.5" transform="matrix(1,0,0,1,1196,-4)" class="stroke_order_diagram--current_path"></path><circle cx="51.7" cy="56.1" r="8" class="stroke_order_diagram--path_start" transform="matrix(1,0,0,1,1196,-4)"></circle><line x1="1350" x2="1350" y1="1" y2="99" class="stroke_order_diagram--guide_line"></line><line x1="1399" x2="1399" y1="1" y2="99" class="stroke_order_diagram--bounding_box"></line><path id="pathSk2v596cn3nk2" kvg:type="㇑" d="M12.37,25.59c0.9,0.9,0.91,1.8,0.91,3.69c0,1.47,0.07,55.99,0.07,56.73" transform="matrix(1,0,0,1,1296,-4)" class="stroke_order_diagram--existing_path"></path><path id="pathSk2v596cn3nk3" kvg:type="㇕a" d="M14.22,27.39c2.45-0.41,9.18-1.57,12.4-2.05c2.83-0.42,3.55,0.87,3.57,3.67c0.06,7.32,0.03,39.88,0.04,54.7" transform="matrix(1,0,0,1,1296,-4)" class="stroke_order_diagram--existing_path"></path><path id="pathSk2v596cn3nk4" kvg:type="㇐a" d="M14.2,44.82c4.59-0.47,9.99-1.19,14.74-1.67" transform="matrix(1,0,0,1,1296,-4)" class="stroke_order_diagram--existing_path"></path><path id="pathSk2v596cn3nk5" kvg:type="㇐a" d="M14.32,63.24c4.89-0.49,10.93-1.24,14.86-1.4" transform="matrix(1,0,0,1,1296,-4)" class="stroke_order_diagram--existing_path"></path><path id="pathSk2v596cn3nk6" kvg:type="㇐a" d="M14.21,83.24c3.85-0.65,10.26-1.38,15.01-1.41" transform="matrix(1,0,0,1,1296,-4)" class="stroke_order_diagram--existing_path"></path><path id="pathSk2v596cn3nk7" kvg:type="㇐" d="M40.73,23.6c3.52,0.77,6.88,0.29,9.38-0.06c9.01-1.29,22.73-2.72,32.28-3.43c2.86-0.21,5.77-0.57,8.6,0.07" transform="matrix(1,0,0,1,1296,-4)" class="stroke_order_diagram--existing_path"></path><path id="pathSk2v596cn3nk8" kvg:type="㇒" d="M62.26,12.5c0.49,1,0.46,2.13,0.14,3.26C58.5,29.75,51.5,41.38,36.25,51.51" transform="matrix(1,0,0,1,1296,-4)" class="stroke_order_diagram--existing_path"></path><path id="pathSk2v596cn3nk9" kvg:type="㇏" d="M68.93,22.42c4.49,4.14,13.12,13.06,19.27,18.26C90.5,42.62,92.5,44,95,45.25" transform="matrix(1,0,0,1,1296,-4)" class="stroke_order_diagram--existing_path"></path><path id="pathSk2v596cn3nka" kvg:type="㇔" d="M40.27,31.83c2.57,1.17,6.65,4.81,7.29,6.63" transform="matrix(1,0,0,1,1296,-4)" class="stroke_order_diagram--existing_path"></path><path id="pathSk2v596cn3nkb" kvg:type="㇒" d="M88.77,26.14c0.04,0.29,0.08,0.74-0.08,1.15c-0.49,1.29-2.22,3.4-4.82,5.58" transform="matrix(1,0,0,1,1296,-4)" class="stroke_order_diagram--existing_path"></path><path id="pathSk2v596cn3nkc" kvg:type="㇑" d="M47.74,46.32c0.72,0.72,1.13,1.43,1.38,2.58c0.85,3.9,1.82,8.69,2.68,13.37c0.3,1.62,0.58,3.22,0.85,4.77" transform="matrix(1,0,0,1,1296,-4)" class="stroke_order_diagram--existing_path"></path><path id="pathSk2v596cn3nkd" kvg:type="㇕a" d="M49.87,47.53c7.72-0.87,21.49-2.26,28.63-3.1c3.66-0.43,5.24,0.69,4.69,3.95c-0.56,3.29-1.42,8.06-2.2,12.49c-0.29,1.64-0.56,3.23-0.8,4.68" transform="matrix(1,0,0,1,1296,-4)" class="stroke_order_diagram--existing_path"></path><path id="pathSk2v596cn3nke" kvg:type="㇐a" d="M51.7,56.1c2.75-0.37,27.95-2.35,30.22-2.5" transform="matrix(1,0,0,1,1296,-4)" class="stroke_order_diagram--existing_path"></path><path id="kvg:077ad-s14" kvg:type="㇐a" d="M53.59,65.54c6.09-0.41,16.66-1.42,25.86-1.8" transform="matrix(1,0,0,1,1296,-4)" class="stroke_order_diagram--current_path"></path><path id="pathSk2v596cn3nkg" kvg:type="㇐a" d="M53.59,65.54c6.09-0.41,16.66-1.42,25.86-1.8" transform="matrix(1,0,0,1,1296,-4)" class="stroke_order_diagram--current_path"></path><circle cx="53.59" cy="65.54" r="8" class="stroke_order_diagram--path_start" transform="matrix(1,0,0,1,1296,-4)"></circle><line x1="1450" x2="1450" y1="1" y2="99" class="stroke_order_diagram--guide_line"></line><line x1="1499" x2="1499" y1="1" y2="99" class="stroke_order_diagram--bounding_box"></line><path id="pathSk2v596cn3nkj" kvg:type="㇑" d="M12.37,25.59c0.9,0.9,0.91,1.8,0.91,3.69c0,1.47,0.07,55.99,0.07,56.73" transform="matrix(1,0,0,1,1396,-4)" class="stroke_order_diagram--existing_path"></path><path id="pathSk2v596cn3nkk" kvg:type="㇕a" d="M14.22,27.39c2.45-0.41,9.18-1.57,12.4-2.05c2.83-0.42,3.55,0.87,3.57,3.67c0.06,7.32,0.03,39.88,0.04,54.7" transform="matrix(1,0,0,1,1396,-4)" class="stroke_order_diagram--existing_path"></path><path id="pathSk2v596cn3nkl" kvg:type="㇐a" d="M14.2,44.82c4.59-0.47,9.99-1.19,14.74-1.67" transform="matrix(1,0,0,1,1396,-4)" class="stroke_order_diagram--existing_path"></path><path id="pathSk2v596cn3nkm" kvg:type="㇐a" d="M14.32,63.24c4.89-0.49,10.93-1.24,14.86-1.4" transform="matrix(1,0,0,1,1396,-4)" class="stroke_order_diagram--existing_path"></path><path id="pathSk2v596cn3nkn" kvg:type="㇐a" d="M14.21,83.24c3.85-0.65,10.26-1.38,15.01-1.41" transform="matrix(1,0,0,1,1396,-4)" class="stroke_order_diagram--existing_path"></path><path id="pathSk2v596cn3nko" kvg:type="㇐" d="M40.73,23.6c3.52,0.77,6.88,0.29,9.38-0.06c9.01-1.29,22.73-2.72,32.28-3.43c2.86-0.21,5.77-0.57,8.6,0.07" transform="matrix(1,0,0,1,1396,-4)" class="stroke_order_diagram--existing_path"></path><path id="pathSk2v596cn3nkp" kvg:type="㇒" d="M62.26,12.5c0.49,1,0.46,2.13,0.14,3.26C58.5,29.75,51.5,41.38,36.25,51.51" transform="matrix(1,0,0,1,1396,-4)" class="stroke_order_diagram--existing_path"></path><path id="pathSk2v596cn3nkq" kvg:type="㇏" d="M68.93,22.42c4.49,4.14,13.12,13.06,19.27,18.26C90.5,42.62,92.5,44,95,45.25" transform="matrix(1,0,0,1,1396,-4)" class="stroke_order_diagram--existing_path"></path><path id="pathSk2v596cn3nkr" kvg:type="㇔" d="M40.27,31.83c2.57,1.17,6.65,4.81,7.29,6.63" transform="matrix(1,0,0,1,1396,-4)" class="stroke_order_diagram--existing_path"></path><path id="pathSk2v596cn3nks" kvg:type="㇒" d="M88.77,26.14c0.04,0.29,0.08,0.74-0.08,1.15c-0.49,1.29-2.22,3.4-4.82,5.58" transform="matrix(1,0,0,1,1396,-4)" class="stroke_order_diagram--existing_path"></path><path id="pathSk2v596cn3nkt" kvg:type="㇑" d="M47.74,46.32c0.72,0.72,1.13,1.43,1.38,2.58c0.85,3.9,1.82,8.69,2.68,13.37c0.3,1.62,0.58,3.22,0.85,4.77" transform="matrix(1,0,0,1,1396,-4)" class="stroke_order_diagram--existing_path"></path><path id="pathSk2v596cn3nku" kvg:type="㇕a" d="M49.87,47.53c7.72-0.87,21.49-2.26,28.63-3.1c3.66-0.43,5.24,0.69,4.69,3.95c-0.56,3.29-1.42,8.06-2.2,12.49c-0.29,1.64-0.56,3.23-0.8,4.68" transform="matrix(1,0,0,1,1396,-4)" class="stroke_order_diagram--existing_path"></path><path id="pathSk2v596cn3nkv" kvg:type="㇐a" d="M51.7,56.1c2.75-0.37,27.95-2.35,30.22-2.5" transform="matrix(1,0,0,1,1396,-4)" class="stroke_order_diagram--existing_path"></path><path id="pathSk2v596cn3nkw" kvg:type="㇐a" d="M53.59,65.54c6.09-0.41,16.66-1.42,25.86-1.8" transform="matrix(1,0,0,1,1396,-4)" class="stroke_order_diagram--existing_path"></path><path id="kvg:077ad-s15" kvg:type="㇚" d="M66.36,67.37c0.95,0.95,1.27,2.38,1.27,4.23c0,11.82-0.01,16.88-0.01,20.9c0,9.14-5.55,0.73-6.77-0.29" transform="matrix(1,0,0,1,1396,-4)" class="stroke_order_diagram--current_path"></path><path id="pathSk2v596cn3nky" kvg:type="㇚" d="M66.36,67.37c0.95,0.95,1.27,2.38,1.27,4.23c0,11.82-0.01,16.88-0.01,20.9c0,9.14-5.55,0.73-6.77-0.29" transform="matrix(1,0,0,1,1396,-4)" class="stroke_order_diagram--current_path"></path><circle cx="66.36" cy="67.37" r="8" class="stroke_order_diagram--path_start" transform="matrix(1,0,0,1,1396,-4)"></circle><line x1="1550" x2="1550" y1="1" y2="99" class="stroke_order_diagram--guide_line"></line><line x1="1599" x2="1599" y1="1" y2="99" class="stroke_order_diagram--bounding_box"></line><path id="pathSk2v596cn3nl1" kvg:type="㇑" d="M12.37,25.59c0.9,0.9,0.91,1.8,0.91,3.69c0,1.47,0.07,55.99,0.07,56.73" transform="matrix(1,0,0,1,1496,-4)" class="stroke_order_diagram--existing_path"></path><path id="pathSk2v596cn3nl2" kvg:type="㇕a" d="M14.22,27.39c2.45-0.41,9.18-1.57,12.4-2.05c2.83-0.42,3.55,0.87,3.57,3.67c0.06,7.32,0.03,39.88,0.04,54.7" transform="matrix(1,0,0,1,1496,-4)" class="stroke_order_diagram--existing_path"></path><path id="pathSk2v596cn3nl3" kvg:type="㇐a" d="M14.2,44.82c4.59-0.47,9.99-1.19,14.74-1.67" transform="matrix(1,0,0,1,1496,-4)" class="stroke_order_diagram--existing_path"></path><path id="pathSk2v596cn3nl4" kvg:type="㇐a" d="M14.32,63.24c4.89-0.49,10.93-1.24,14.86-1.4" transform="matrix(1,0,0,1,1496,-4)" class="stroke_order_diagram--existing_path"></path><path id="pathSk2v596cn3nl5" kvg:type="㇐a" d="M14.21,83.24c3.85-0.65,10.26-1.38,15.01-1.41" transform="matrix(1,0,0,1,1496,-4)" class="stroke_order_diagram--existing_path"></path><path id="pathSk2v596cn3nl6" kvg:type="㇐" d="M40.73,23.6c3.52,0.77,6.88,0.29,9.38-0.06c9.01-1.29,22.73-2.72,32.28-3.43c2.86-0.21,5.77-0.57,8.6,0.07" transform="matrix(1,0,0,1,1496,-4)" class="stroke_order_diagram--existing_path"></path><path id="pathSk2v596cn3nl7" kvg:type="㇒" d="M62.26,12.5c0.49,1,0.46,2.13,0.14,3.26C58.5,29.75,51.5,41.38,36.25,51.51" transform="matrix(1,0,0,1,1496,-4)" class="stroke_order_diagram--existing_path"></path><path id="pathSk2v596cn3nl8" kvg:type="㇏" d="M68.93,22.42c4.49,4.14,13.12,13.06,19.27,18.26C90.5,42.62,92.5,44,95,45.25" transform="matrix(1,0,0,1,1496,-4)" class="stroke_order_diagram--existing_path"></path><path id="pathSk2v596cn3nl9" kvg:type="㇔" d="M40.27,31.83c2.57,1.17,6.65,4.81,7.29,6.63" transform="matrix(1,0,0,1,1496,-4)" class="stroke_order_diagram--existing_path"></path><path id="pathSk2v596cn3nla" kvg:type="㇒" d="M88.77,26.14c0.04,0.29,0.08,0.74-0.08,1.15c-0.49,1.29-2.22,3.4-4.82,5.58" transform="matrix(1,0,0,1,1496,-4)" class="stroke_order_diagram--existing_path"></path><path id="pathSk2v596cn3nlb" kvg:type="㇑" d="M47.74,46.32c0.72,0.72,1.13,1.43,1.38,2.58c0.85,3.9,1.82,8.69,2.68,13.37c0.3,1.62,0.58,3.22,0.85,4.77" transform="matrix(1,0,0,1,1496,-4)" class="stroke_order_diagram--existing_path"></path><path id="pathSk2v596cn3nlc" kvg:type="㇕a" d="M49.87,47.53c7.72-0.87,21.49-2.26,28.63-3.1c3.66-0.43,5.24,0.69,4.69,3.95c-0.56,3.29-1.42,8.06-2.2,12.49c-0.29,1.64-0.56,3.23-0.8,4.68" transform="matrix(1,0,0,1,1496,-4)" class="stroke_order_diagram--existing_path"></path><path id="pathSk2v596cn3nld" kvg:type="㇐a" d="M51.7,56.1c2.75-0.37,27.95-2.35,30.22-2.5" transform="matrix(1,0,0,1,1496,-4)" class="stroke_order_diagram--existing_path"></path><path id="pathSk2v596cn3nle" kvg:type="㇐a" d="M53.59,65.54c6.09-0.41,16.66-1.42,25.86-1.8" transform="matrix(1,0,0,1,1496,-4)" class="stroke_order_diagram--existing_path"></path><path id="pathSk2v596cn3nlf" kvg:type="㇚" d="M66.36,67.37c0.95,0.95,1.27,2.38,1.27,4.23c0,11.82-0.01,16.88-0.01,20.9c0,9.14-5.55,0.73-6.77-0.29" transform="matrix(1,0,0,1,1496,-4)" class="stroke_order_diagram--existing_path"></path><path id="kvg:077ad-s16" kvg:type="㇒" d="M52.95,74.68c0.13,1.02-0.09,1.95-0.68,2.79c-1.94,3.26-7.35,7.82-16.52,13.79" transform="matrix(1,0,0,1,1496,-4)" class="stroke_order_diagram--current_path"></path><path id="pathSk2v596cn3nlh" kvg:type="㇒" d="M52.95,74.68c0.13,1.02-0.09,1.95-0.68,2.79c-1.94,3.26-7.35,7.82-16.52,13.79" transform="matrix(1,0,0,1,1496,-4)" class="stroke_order_diagram--current_path"></path><circle cx="52.95" cy="74.68" r="8" class="stroke_order_diagram--path_start" transform="matrix(1,0,0,1,1496,-4)"></circle><line x1="1650" x2="1650" y1="1" y2="99" class="stroke_order_diagram--guide_line"></line><line x1="1699" x2="1699" y1="1" y2="99" class="stroke_order_diagram--bounding_box"></line><path id="pathSk2v596cn3nlk" kvg:type="㇑" d="M12.37,25.59c0.9,0.9,0.91,1.8,0.91,3.69c0,1.47,0.07,55.99,0.07,56.73" transform="matrix(1,0,0,1,1596,-4)" class="stroke_order_diagram--existing_path"></path><path id="pathSk2v596cn3nll" kvg:type="㇕a" d="M14.22,27.39c2.45-0.41,9.18-1.57,12.4-2.05c2.83-0.42,3.55,0.87,3.57,3.67c0.06,7.32,0.03,39.88,0.04,54.7" transform="matrix(1,0,0,1,1596,-4)" class="stroke_order_diagram--existing_path"></path><path id="pathSk2v596cn3nlm" kvg:type="㇐a" d="M14.2,44.82c4.59-0.47,9.99-1.19,14.74-1.67" transform="matrix(1,0,0,1,1596,-4)" class="stroke_order_diagram--existing_path"></path><path id="pathSk2v596cn3nln" kvg:type="㇐a" d="M14.32,63.24c4.89-0.49,10.93-1.24,14.86-1.4" transform="matrix(1,0,0,1,1596,-4)" class="stroke_order_diagram--existing_path"></path><path id="pathSk2v596cn3nlo" kvg:type="㇐a" d="M14.21,83.24c3.85-0.65,10.26-1.38,15.01-1.41" transform="matrix(1,0,0,1,1596,-4)" class="stroke_order_diagram--existing_path"></path><path id="pathSk2v596cn3nlp" kvg:type="㇐" d="M40.73,23.6c3.52,0.77,6.88,0.29,9.38-0.06c9.01-1.29,22.73-2.72,32.28-3.43c2.86-0.21,5.77-0.57,8.6,0.07" transform="matrix(1,0,0,1,1596,-4)" class="stroke_order_diagram--existing_path"></path><path id="pathSk2v596cn3nlq" kvg:type="㇒" d="M62.26,12.5c0.49,1,0.46,2.13,0.14,3.26C58.5,29.75,51.5,41.38,36.25,51.51" transform="matrix(1,0,0,1,1596,-4)" class="stroke_order_diagram--existing_path"></path><path id="pathSk2v596cn3nlr" kvg:type="㇏" d="M68.93,22.42c4.49,4.14,13.12,13.06,19.27,18.26C90.5,42.62,92.5,44,95,45.25" transform="matrix(1,0,0,1,1596,-4)" class="stroke_order_diagram--existing_path"></path><path id="pathSk2v596cn3nls" kvg:type="㇔" d="M40.27,31.83c2.57,1.17,6.65,4.81,7.29,6.63" transform="matrix(1,0,0,1,1596,-4)" class="stroke_order_diagram--existing_path"></path><path id="pathSk2v596cn3nlt" kvg:type="㇒" d="M88.77,26.14c0.04,0.29,0.08,0.74-0.08,1.15c-0.49,1.29-2.22,3.4-4.82,5.58" transform="matrix(1,0,0,1,1596,-4)" class="stroke_order_diagram--existing_path"></path><path id="pathSk2v596cn3nlu" kvg:type="㇑" d="M47.74,46.32c0.72,0.72,1.13,1.43,1.38,2.58c0.85,3.9,1.82,8.69,2.68,13.37c0.3,1.62,0.58,3.22,0.85,4.77" transform="matrix(1,0,0,1,1596,-4)" class="stroke_order_diagram--existing_path"></path><path id="pathSk2v596cn3nlv" kvg:type="㇕a" d="M49.87,47.53c7.72-0.87,21.49-2.26,28.63-3.1c3.66-0.43,5.24,0.69,4.69,3.95c-0.56,3.29-1.42,8.06-2.2,12.49c-0.29,1.64-0.56,3.23-0.8,4.68" transform="matrix(1,0,0,1,1596,-4)" class="stroke_order_diagram--existing_path"></path><path id="pathSk2v596cn3nlw" kvg:type="㇐a" d="M51.7,56.1c2.75-0.37,27.95-2.35,30.22-2.5" transform="matrix(1,0,0,1,1596,-4)" class="stroke_order_diagram--existing_path"></path><path id="pathSk2v596cn3nlx" kvg:type="㇐a" d="M53.59,65.54c6.09-0.41,16.66-1.42,25.86-1.8" transform="matrix(1,0,0,1,1596,-4)" class="stroke_order_diagram--existing_path"></path><path id="pathSk2v596cn3nly" kvg:type="㇚" d="M66.36,67.37c0.95,0.95,1.27,2.38,1.27,4.23c0,11.82-0.01,16.88-0.01,20.9c0,9.14-5.55,0.73-6.77-0.29" transform="matrix(1,0,0,1,1596,-4)" class="stroke_order_diagram--existing_path"></path><path id="pathSk2v596cn3nlz" kvg:type="㇒" d="M52.95,74.68c0.13,1.02-0.09,1.95-0.68,2.79c-1.94,3.26-7.35,7.82-16.52,13.79" transform="matrix(1,0,0,1,1596,-4)" class="stroke_order_diagram--existing_path"></path><path id="kvg:077ad-s17" kvg:type="㇔" d="M80.21,74.37C84.81,76.95,92.1,84.98,93.25,89" transform="matrix(1,0,0,1,1596,-4)" class="stroke_order_diagram--current_path"></path><path id="pathSk2v596cn3nm1" kvg:type="㇔" d="M80.21,74.37C84.81,76.95,92.1,84.98,93.25,89" transform="matrix(1,0,0,1,1596,-4)" class="stroke_order_diagram--current_path"></path><circle cx="80.21" cy="74.37" r="8" class="stroke_order_diagram--path_start" transform="matrix(1,0,0,1,1596,-4)"></circle></svg>