<svg style="width: 1200px; height: 100px;" viewbox="0 0 1200 100"><style>
.stroke_order_diagram--outer_container {
  width: 100%;
  overflow-x: auto;
  overflow-y: hidden;
}

.stroke_order_diagram--guide_line {
  fill: none;
  stroke: #ddd;
  stroke-width: 3;
  stroke-linecap: square;
  stroke-linejoin: square;
  stroke-dasharray:8, 8;
}

.stroke_order_diagram--bounding_box {
  fill: none;
  stroke: #ddd;
  stroke-width: 4;
  stroke-linecap: square;
  stroke-linejoin: square;
}

.stroke_order_diagram--current_path {
  fill: none;
  stroke: #000;
  stroke-width: 6;
  stroke-linecap: round;
  stroke-linejoin: round;
}

.stroke_order_diagram--existing_path {
  fill: none;
  stroke: #aaa;
  stroke-width: 6;
  stroke-linecap: round;
  stroke-linejoin:round;
}

.stroke_order_diagram--path_start {
  fill: rgba(255, 0, 0, 0.7);
  stroke:none
}</style><desc>Created with Snap</desc><defs></defs><line x1="1" x2="1199" y1="1" y2="1" class="stroke_order_diagram--bounding_box"></line><line x1="1" x2="1" y1="1" y2="99" class="stroke_order_diagram--bounding_box"></line><line x1="1" x2="1199" y1="99" y2="99" class="stroke_order_diagram--bounding_box"></line><line x1="0" x2="1200" y1="50" y2="50" class="stroke_order_diagram--guide_line"></line><line x1="50" x2="50" y1="1" y2="99" class="stroke_order_diagram--guide_line"></line><line x1="99" x2="99" y1="1" y2="99" class="stroke_order_diagram--bounding_box"></line><path id="kvg:077ed-s1" kvg:type="㇒" d="M25.84,17c0.29,0.75,0.32,1.95,0.18,2.9c-0.79,5.58-6.77,19.35-12.25,26.4" transform="matrix(1,0,0,1,-4,-4)" class="stroke_order_diagram--current_path"></path><path id="pathSk2v596cnnr7" kvg:type="㇒" d="M25.84,17c0.29,0.75,0.32,1.95,0.18,2.9c-0.79,5.58-6.77,19.35-12.25,26.4" transform="matrix(1,0,0,1,-4,-4)" class="stroke_order_diagram--current_path"></path><circle cx="25.84" cy="17" r="8" class="stroke_order_diagram--path_start" transform="matrix(1,0,0,1,-4,-4)"></circle><line x1="150" x2="150" y1="1" y2="99" class="stroke_order_diagram--guide_line"></line><line x1="199" x2="199" y1="1" y2="99" class="stroke_order_diagram--bounding_box"></line><path id="pathSk2v596cnnra" kvg:type="㇒" d="M25.84,17c0.29,0.75,0.32,1.95,0.18,2.9c-0.79,5.58-6.77,19.35-12.25,26.4" transform="matrix(1,0,0,1,96,-4)" class="stroke_order_diagram--existing_path"></path><path id="kvg:077ed-s2" kvg:type="㇐" d="M22.07,35.68c0.93,0.32,2.05,0.23,2.79,0.16c3.18-0.32,8.07-0.97,13.69-2.11c1.09-0.22,3.08-0.48,4.17-0.25" transform="matrix(1,0,0,1,96,-4)" class="stroke_order_diagram--current_path"></path><path id="pathSk2v596cnnrc" kvg:type="㇐" d="M22.07,35.68c0.93,0.32,2.05,0.23,2.79,0.16c3.18-0.32,8.07-0.97,13.69-2.11c1.09-0.22,3.08-0.48,4.17-0.25" transform="matrix(1,0,0,1,96,-4)" class="stroke_order_diagram--current_path"></path><circle cx="22.07" cy="35.68" r="8" class="stroke_order_diagram--path_start" transform="matrix(1,0,0,1,96,-4)"></circle><line x1="250" x2="250" y1="1" y2="99" class="stroke_order_diagram--guide_line"></line><line x1="299" x2="299" y1="1" y2="99" class="stroke_order_diagram--bounding_box"></line><path id="pathSk2v596cnnrf" kvg:type="㇒" d="M25.84,17c0.29,0.75,0.32,1.95,0.18,2.9c-0.79,5.58-6.77,19.35-12.25,26.4" transform="matrix(1,0,0,1,196,-4)" class="stroke_order_diagram--existing_path"></path><path id="pathSk2v596cnnrg" kvg:type="㇐" d="M22.07,35.68c0.93,0.32,2.05,0.23,2.79,0.16c3.18-0.32,8.07-0.97,13.69-2.11c1.09-0.22,3.08-0.48,4.17-0.25" transform="matrix(1,0,0,1,196,-4)" class="stroke_order_diagram--existing_path"></path><path id="kvg:077ed-s3" kvg:type="㇐" d="M10.32,55.34c2.43,0.41,4.64,0.24,6.44-0.01c6.54-0.88,16.6-2.41,23.88-3.19c2.44-0.26,4.49-0.27,6.69,0.33" transform="matrix(1,0,0,1,196,-4)" class="stroke_order_diagram--current_path"></path><path id="pathSk2v596cnnri" kvg:type="㇐" d="M10.32,55.34c2.43,0.41,4.64,0.24,6.44-0.01c6.54-0.88,16.6-2.41,23.88-3.19c2.44-0.26,4.49-0.27,6.69,0.33" transform="matrix(1,0,0,1,196,-4)" class="stroke_order_diagram--current_path"></path><circle cx="10.32" cy="55.34" r="8" class="stroke_order_diagram--path_start" transform="matrix(1,0,0,1,196,-4)"></circle><line x1="350" x2="350" y1="1" y2="99" class="stroke_order_diagram--guide_line"></line><line x1="399" x2="399" y1="1" y2="99" class="stroke_order_diagram--bounding_box"></line><path id="pathSk2v596cnnrl" kvg:type="㇒" d="M25.84,17c0.29,0.75,0.32,1.95,0.18,2.9c-0.79,5.58-6.77,19.35-12.25,26.4" transform="matrix(1,0,0,1,296,-4)" class="stroke_order_diagram--existing_path"></path><path id="pathSk2v596cnnrm" kvg:type="㇐" d="M22.07,35.68c0.93,0.32,2.05,0.23,2.79,0.16c3.18-0.32,8.07-0.97,13.69-2.11c1.09-0.22,3.08-0.48,4.17-0.25" transform="matrix(1,0,0,1,296,-4)" class="stroke_order_diagram--existing_path"></path><path id="pathSk2v596cnnrn" kvg:type="㇐" d="M10.32,55.34c2.43,0.41,4.64,0.24,6.44-0.01c6.54-0.88,16.6-2.41,23.88-3.19c2.44-0.26,4.49-0.27,6.69,0.33" transform="matrix(1,0,0,1,296,-4)" class="stroke_order_diagram--existing_path"></path><path id="kvg:077ed-s4" kvg:type="㇒" d="M29.94,37.28c0.95,0.95,1.49,2.47,1.48,4.19c-0.17,27.28-7.55,43.41-19.67,51.17" transform="matrix(1,0,0,1,296,-4)" class="stroke_order_diagram--current_path"></path><path id="pathSk2v596cnnrp" kvg:type="㇒" d="M29.94,37.28c0.95,0.95,1.49,2.47,1.48,4.19c-0.17,27.28-7.55,43.41-19.67,51.17" transform="matrix(1,0,0,1,296,-4)" class="stroke_order_diagram--current_path"></path><circle cx="29.94" cy="37.28" r="8" class="stroke_order_diagram--path_start" transform="matrix(1,0,0,1,296,-4)"></circle><line x1="450" x2="450" y1="1" y2="99" class="stroke_order_diagram--guide_line"></line><line x1="499" x2="499" y1="1" y2="99" class="stroke_order_diagram--bounding_box"></line><path id="pathSk2v596cnnrs" kvg:type="㇒" d="M25.84,17c0.29,0.75,0.32,1.95,0.18,2.9c-0.79,5.58-6.77,19.35-12.25,26.4" transform="matrix(1,0,0,1,396,-4)" class="stroke_order_diagram--existing_path"></path><path id="pathSk2v596cnnrt" kvg:type="㇐" d="M22.07,35.68c0.93,0.32,2.05,0.23,2.79,0.16c3.18-0.32,8.07-0.97,13.69-2.11c1.09-0.22,3.08-0.48,4.17-0.25" transform="matrix(1,0,0,1,396,-4)" class="stroke_order_diagram--existing_path"></path><path id="pathSk2v596cnnru" kvg:type="㇐" d="M10.32,55.34c2.43,0.41,4.64,0.24,6.44-0.01c6.54-0.88,16.6-2.41,23.88-3.19c2.44-0.26,4.49-0.27,6.69,0.33" transform="matrix(1,0,0,1,396,-4)" class="stroke_order_diagram--existing_path"></path><path id="pathSk2v596cnnrv" kvg:type="㇒" d="M29.94,37.28c0.95,0.95,1.49,2.47,1.48,4.19c-0.17,27.28-7.55,43.41-19.67,51.17" transform="matrix(1,0,0,1,396,-4)" class="stroke_order_diagram--existing_path"></path><path id="kvg:077ed-s5" kvg:type="㇔/㇏" d="M32.25,67.25c3.74,2.49,8.5,7.25,11,12.25" transform="matrix(1,0,0,1,396,-4)" class="stroke_order_diagram--current_path"></path><path id="pathSk2v596cnnrx" kvg:type="㇔/㇏" d="M32.25,67.25c3.74,2.49,8.5,7.25,11,12.25" transform="matrix(1,0,0,1,396,-4)" class="stroke_order_diagram--current_path"></path><circle cx="32.25" cy="67.25" r="8" class="stroke_order_diagram--path_start" transform="matrix(1,0,0,1,396,-4)"></circle><line x1="550" x2="550" y1="1" y2="99" class="stroke_order_diagram--guide_line"></line><line x1="599" x2="599" y1="1" y2="99" class="stroke_order_diagram--bounding_box"></line><path id="pathSk2v596cnns0" kvg:type="㇒" d="M25.84,17c0.29,0.75,0.32,1.95,0.18,2.9c-0.79,5.58-6.77,19.35-12.25,26.4" transform="matrix(1,0,0,1,496,-4)" class="stroke_order_diagram--existing_path"></path><path id="pathSk2v596cnns1" kvg:type="㇐" d="M22.07,35.68c0.93,0.32,2.05,0.23,2.79,0.16c3.18-0.32,8.07-0.97,13.69-2.11c1.09-0.22,3.08-0.48,4.17-0.25" transform="matrix(1,0,0,1,496,-4)" class="stroke_order_diagram--existing_path"></path><path id="pathSk2v596cnns2" kvg:type="㇐" d="M10.32,55.34c2.43,0.41,4.64,0.24,6.44-0.01c6.54-0.88,16.6-2.41,23.88-3.19c2.44-0.26,4.49-0.27,6.69,0.33" transform="matrix(1,0,0,1,496,-4)" class="stroke_order_diagram--existing_path"></path><path id="pathSk2v596cnns3" kvg:type="㇒" d="M29.94,37.28c0.95,0.95,1.49,2.47,1.48,4.19c-0.17,27.28-7.55,43.41-19.67,51.17" transform="matrix(1,0,0,1,496,-4)" class="stroke_order_diagram--existing_path"></path><path id="pathSk2v596cnns4" kvg:type="㇔/㇏" d="M32.25,67.25c3.74,2.49,8.5,7.25,11,12.25" transform="matrix(1,0,0,1,496,-4)" class="stroke_order_diagram--existing_path"></path><path id="kvg:077ed-s6" kvg:type="㇐" d="M52.24,25.14c2.01,0.36,3.83,0.38,5.52,0.23c8.62-0.75,18.07-2.45,26.49-3.06c1.89-0.14,3.68-0.24,5.54,0.19" transform="matrix(1,0,0,1,496,-4)" class="stroke_order_diagram--current_path"></path><path id="pathSk2v596cnns6" kvg:type="㇐" d="M52.24,25.14c2.01,0.36,3.83,0.38,5.52,0.23c8.62-0.75,18.07-2.45,26.49-3.06c1.89-0.14,3.68-0.24,5.54,0.19" transform="matrix(1,0,0,1,496,-4)" class="stroke_order_diagram--current_path"></path><circle cx="52.24" cy="25.14" r="8" class="stroke_order_diagram--path_start" transform="matrix(1,0,0,1,496,-4)"></circle><line x1="650" x2="650" y1="1" y2="99" class="stroke_order_diagram--guide_line"></line><line x1="699" x2="699" y1="1" y2="99" class="stroke_order_diagram--bounding_box"></line><path id="pathSk2v596cnns9" kvg:type="㇒" d="M25.84,17c0.29,0.75,0.32,1.95,0.18,2.9c-0.79,5.58-6.77,19.35-12.25,26.4" transform="matrix(1,0,0,1,596,-4)" class="stroke_order_diagram--existing_path"></path><path id="pathSk2v596cnnsa" kvg:type="㇐" d="M22.07,35.68c0.93,0.32,2.05,0.23,2.79,0.16c3.18-0.32,8.07-0.97,13.69-2.11c1.09-0.22,3.08-0.48,4.17-0.25" transform="matrix(1,0,0,1,596,-4)" class="stroke_order_diagram--existing_path"></path><path id="pathSk2v596cnnsb" kvg:type="㇐" d="M10.32,55.34c2.43,0.41,4.64,0.24,6.44-0.01c6.54-0.88,16.6-2.41,23.88-3.19c2.44-0.26,4.49-0.27,6.69,0.33" transform="matrix(1,0,0,1,596,-4)" class="stroke_order_diagram--existing_path"></path><path id="pathSk2v596cnnsc" kvg:type="㇒" d="M29.94,37.28c0.95,0.95,1.49,2.47,1.48,4.19c-0.17,27.28-7.55,43.41-19.67,51.17" transform="matrix(1,0,0,1,596,-4)" class="stroke_order_diagram--existing_path"></path><path id="pathSk2v596cnnsd" kvg:type="㇔/㇏" d="M32.25,67.25c3.74,2.49,8.5,7.25,11,12.25" transform="matrix(1,0,0,1,596,-4)" class="stroke_order_diagram--existing_path"></path><path id="pathSk2v596cnnse" kvg:type="㇐" d="M52.24,25.14c2.01,0.36,3.83,0.38,5.52,0.23c8.62-0.75,18.07-2.45,26.49-3.06c1.89-0.14,3.68-0.24,5.54,0.19" transform="matrix(1,0,0,1,596,-4)" class="stroke_order_diagram--existing_path"></path><path id="kvg:077ed-s7" kvg:type="㇑" d="M52.79,39.53c1.08,0.72,1.89,1.96,2.17,3.14c0.99,4.18,1.87,9.68,2.83,15.68c0.18,1.11,0.35,2.21,0.51,3.31" transform="matrix(1,0,0,1,596,-4)" class="stroke_order_diagram--current_path"></path><path id="pathSk2v596cnnsg" kvg:type="㇑" d="M52.79,39.53c1.08,0.72,1.89,1.96,2.17,3.14c0.99,4.18,1.87,9.68,2.83,15.68c0.18,1.11,0.35,2.21,0.51,3.31" transform="matrix(1,0,0,1,596,-4)" class="stroke_order_diagram--current_path"></path><circle cx="52.79" cy="39.53" r="8" class="stroke_order_diagram--path_start" transform="matrix(1,0,0,1,596,-4)"></circle><line x1="750" x2="750" y1="1" y2="99" class="stroke_order_diagram--guide_line"></line><line x1="799" x2="799" y1="1" y2="99" class="stroke_order_diagram--bounding_box"></line><path id="pathSk2v596cnnsj" kvg:type="㇒" d="M25.84,17c0.29,0.75,0.32,1.95,0.18,2.9c-0.79,5.58-6.77,19.35-12.25,26.4" transform="matrix(1,0,0,1,696,-4)" class="stroke_order_diagram--existing_path"></path><path id="pathSk2v596cnnsk" kvg:type="㇐" d="M22.07,35.68c0.93,0.32,2.05,0.23,2.79,0.16c3.18-0.32,8.07-0.97,13.69-2.11c1.09-0.22,3.08-0.48,4.17-0.25" transform="matrix(1,0,0,1,696,-4)" class="stroke_order_diagram--existing_path"></path><path id="pathSk2v596cnnsl" kvg:type="㇐" d="M10.32,55.34c2.43,0.41,4.64,0.24,6.44-0.01c6.54-0.88,16.6-2.41,23.88-3.19c2.44-0.26,4.49-0.27,6.69,0.33" transform="matrix(1,0,0,1,696,-4)" class="stroke_order_diagram--existing_path"></path><path id="pathSk2v596cnnsm" kvg:type="㇒" d="M29.94,37.28c0.95,0.95,1.49,2.47,1.48,4.19c-0.17,27.28-7.55,43.41-19.67,51.17" transform="matrix(1,0,0,1,696,-4)" class="stroke_order_diagram--existing_path"></path><path id="pathSk2v596cnnsn" kvg:type="㇔/㇏" d="M32.25,67.25c3.74,2.49,8.5,7.25,11,12.25" transform="matrix(1,0,0,1,696,-4)" class="stroke_order_diagram--existing_path"></path><path id="pathSk2v596cnnso" kvg:type="㇐" d="M52.24,25.14c2.01,0.36,3.83,0.38,5.52,0.23c8.62-0.75,18.07-2.45,26.49-3.06c1.89-0.14,3.68-0.24,5.54,0.19" transform="matrix(1,0,0,1,696,-4)" class="stroke_order_diagram--existing_path"></path><path id="pathSk2v596cnnsp" kvg:type="㇑" d="M52.79,39.53c1.08,0.72,1.89,1.96,2.17,3.14c0.99,4.18,1.87,9.68,2.83,15.68c0.18,1.11,0.35,2.21,0.51,3.31" transform="matrix(1,0,0,1,696,-4)" class="stroke_order_diagram--existing_path"></path><path id="kvg:077ed-s8" kvg:type="㇕b" d="M55.37,40.88c6.67-0.66,22.19-2.89,28.39-3.32c3.41-0.23,4.81,0.88,3.94,4.32c-0.66,2.6-1.27,4.16-3.25,13.66" transform="matrix(1,0,0,1,696,-4)" class="stroke_order_diagram--current_path"></path><path id="pathSk2v596cnnsr" kvg:type="㇕b" d="M55.37,40.88c6.67-0.66,22.19-2.89,28.39-3.32c3.41-0.23,4.81,0.88,3.94,4.32c-0.66,2.6-1.27,4.16-3.25,13.66" transform="matrix(1,0,0,1,696,-4)" class="stroke_order_diagram--current_path"></path><circle cx="55.37" cy="40.88" r="8" class="stroke_order_diagram--path_start" transform="matrix(1,0,0,1,696,-4)"></circle><line x1="850" x2="850" y1="1" y2="99" class="stroke_order_diagram--guide_line"></line><line x1="899" x2="899" y1="1" y2="99" class="stroke_order_diagram--bounding_box"></line><path id="pathSk2v596cnnsu" kvg:type="㇒" d="M25.84,17c0.29,0.75,0.32,1.95,0.18,2.9c-0.79,5.58-6.77,19.35-12.25,26.4" transform="matrix(1,0,0,1,796,-4)" class="stroke_order_diagram--existing_path"></path><path id="pathSk2v596cnnsv" kvg:type="㇐" d="M22.07,35.68c0.93,0.32,2.05,0.23,2.79,0.16c3.18-0.32,8.07-0.97,13.69-2.11c1.09-0.22,3.08-0.48,4.17-0.25" transform="matrix(1,0,0,1,796,-4)" class="stroke_order_diagram--existing_path"></path><path id="pathSk2v596cnnsw" kvg:type="㇐" d="M10.32,55.34c2.43,0.41,4.64,0.24,6.44-0.01c6.54-0.88,16.6-2.41,23.88-3.19c2.44-0.26,4.49-0.27,6.69,0.33" transform="matrix(1,0,0,1,796,-4)" class="stroke_order_diagram--existing_path"></path><path id="pathSk2v596cnnsx" kvg:type="㇒" d="M29.94,37.28c0.95,0.95,1.49,2.47,1.48,4.19c-0.17,27.28-7.55,43.41-19.67,51.17" transform="matrix(1,0,0,1,796,-4)" class="stroke_order_diagram--existing_path"></path><path id="pathSk2v596cnnsy" kvg:type="㇔/㇏" d="M32.25,67.25c3.74,2.49,8.5,7.25,11,12.25" transform="matrix(1,0,0,1,796,-4)" class="stroke_order_diagram--existing_path"></path><path id="pathSk2v596cnnsz" kvg:type="㇐" d="M52.24,25.14c2.01,0.36,3.83,0.38,5.52,0.23c8.62-0.75,18.07-2.45,26.49-3.06c1.89-0.14,3.68-0.24,5.54,0.19" transform="matrix(1,0,0,1,796,-4)" class="stroke_order_diagram--existing_path"></path><path id="pathSk2v596cnnt0" kvg:type="㇑" d="M52.79,39.53c1.08,0.72,1.89,1.96,2.17,3.14c0.99,4.18,1.87,9.68,2.83,15.68c0.18,1.11,0.35,2.21,0.51,3.31" transform="matrix(1,0,0,1,796,-4)" class="stroke_order_diagram--existing_path"></path><path id="pathSk2v596cnnt1" kvg:type="㇕b" d="M55.37,40.88c6.67-0.66,22.19-2.89,28.39-3.32c3.41-0.23,4.81,0.88,3.94,4.32c-0.66,2.6-1.27,4.16-3.25,13.66" transform="matrix(1,0,0,1,796,-4)" class="stroke_order_diagram--existing_path"></path><path id="kvg:077ed-s9" kvg:type="㇐b" d="M58.95,59.1c6.39-0.62,16.13-1.6,23.68-2.17c1.38-0.1,2.69-0.19,3.89-0.26" transform="matrix(1,0,0,1,796,-4)" class="stroke_order_diagram--current_path"></path><path id="pathSk2v596cnnt3" kvg:type="㇐b" d="M58.95,59.1c6.39-0.62,16.13-1.6,23.68-2.17c1.38-0.1,2.69-0.19,3.89-0.26" transform="matrix(1,0,0,1,796,-4)" class="stroke_order_diagram--current_path"></path><circle cx="58.95" cy="59.1" r="8" class="stroke_order_diagram--path_start" transform="matrix(1,0,0,1,796,-4)"></circle><line x1="950" x2="950" y1="1" y2="99" class="stroke_order_diagram--guide_line"></line><line x1="999" x2="999" y1="1" y2="99" class="stroke_order_diagram--bounding_box"></line><path id="pathSk2v596cnnt6" kvg:type="㇒" d="M25.84,17c0.29,0.75,0.32,1.95,0.18,2.9c-0.79,5.58-6.77,19.35-12.25,26.4" transform="matrix(1,0,0,1,896,-4)" class="stroke_order_diagram--existing_path"></path><path id="pathSk2v596cnnt7" kvg:type="㇐" d="M22.07,35.68c0.93,0.32,2.05,0.23,2.79,0.16c3.18-0.32,8.07-0.97,13.69-2.11c1.09-0.22,3.08-0.48,4.17-0.25" transform="matrix(1,0,0,1,896,-4)" class="stroke_order_diagram--existing_path"></path><path id="pathSk2v596cnnt8" kvg:type="㇐" d="M10.32,55.34c2.43,0.41,4.64,0.24,6.44-0.01c6.54-0.88,16.6-2.41,23.88-3.19c2.44-0.26,4.49-0.27,6.69,0.33" transform="matrix(1,0,0,1,896,-4)" class="stroke_order_diagram--existing_path"></path><path id="pathSk2v596cnnt9" kvg:type="㇒" d="M29.94,37.28c0.95,0.95,1.49,2.47,1.48,4.19c-0.17,27.28-7.55,43.41-19.67,51.17" transform="matrix(1,0,0,1,896,-4)" class="stroke_order_diagram--existing_path"></path><path id="pathSk2v596cnnta" kvg:type="㇔/㇏" d="M32.25,67.25c3.74,2.49,8.5,7.25,11,12.25" transform="matrix(1,0,0,1,896,-4)" class="stroke_order_diagram--existing_path"></path><path id="pathSk2v596cnntb" kvg:type="㇐" d="M52.24,25.14c2.01,0.36,3.83,0.38,5.52,0.23c8.62-0.75,18.07-2.45,26.49-3.06c1.89-0.14,3.68-0.24,5.54,0.19" transform="matrix(1,0,0,1,896,-4)" class="stroke_order_diagram--existing_path"></path><path id="pathSk2v596cnntc" kvg:type="㇑" d="M52.79,39.53c1.08,0.72,1.89,1.96,2.17,3.14c0.99,4.18,1.87,9.68,2.83,15.68c0.18,1.11,0.35,2.21,0.51,3.31" transform="matrix(1,0,0,1,896,-4)" class="stroke_order_diagram--existing_path"></path><path id="pathSk2v596cnntd" kvg:type="㇕b" d="M55.37,40.88c6.67-0.66,22.19-2.89,28.39-3.32c3.41-0.23,4.81,0.88,3.94,4.32c-0.66,2.6-1.27,4.16-3.25,13.66" transform="matrix(1,0,0,1,896,-4)" class="stroke_order_diagram--existing_path"></path><path id="pathSk2v596cnnte" kvg:type="㇐b" d="M58.95,59.1c6.39-0.62,16.13-1.6,23.68-2.17c1.38-0.1,2.69-0.19,3.89-0.26" transform="matrix(1,0,0,1,896,-4)" class="stroke_order_diagram--existing_path"></path><path id="kvg:077ed-s10" kvg:type="㇔" d="M56.38,67.75c2.2,2.46,5.69,10.1,6.25,13.93" transform="matrix(1,0,0,1,896,-4)" class="stroke_order_diagram--current_path"></path><path id="pathSk2v596cnntg" kvg:type="㇔" d="M56.38,67.75c2.2,2.46,5.69,10.1,6.25,13.93" transform="matrix(1,0,0,1,896,-4)" class="stroke_order_diagram--current_path"></path><circle cx="56.38" cy="67.75" r="8" class="stroke_order_diagram--path_start" transform="matrix(1,0,0,1,896,-4)"></circle><line x1="1050" x2="1050" y1="1" y2="99" class="stroke_order_diagram--guide_line"></line><line x1="1099" x2="1099" y1="1" y2="99" class="stroke_order_diagram--bounding_box"></line><path id="pathSk2v596cnntj" kvg:type="㇒" d="M25.84,17c0.29,0.75,0.32,1.95,0.18,2.9c-0.79,5.58-6.77,19.35-12.25,26.4" transform="matrix(1,0,0,1,996,-4)" class="stroke_order_diagram--existing_path"></path><path id="pathSk2v596cnntk" kvg:type="㇐" d="M22.07,35.68c0.93,0.32,2.05,0.23,2.79,0.16c3.18-0.32,8.07-0.97,13.69-2.11c1.09-0.22,3.08-0.48,4.17-0.25" transform="matrix(1,0,0,1,996,-4)" class="stroke_order_diagram--existing_path"></path><path id="pathSk2v596cnntl" kvg:type="㇐" d="M10.32,55.34c2.43,0.41,4.64,0.24,6.44-0.01c6.54-0.88,16.6-2.41,23.88-3.19c2.44-0.26,4.49-0.27,6.69,0.33" transform="matrix(1,0,0,1,996,-4)" class="stroke_order_diagram--existing_path"></path><path id="pathSk2v596cnntm" kvg:type="㇒" d="M29.94,37.28c0.95,0.95,1.49,2.47,1.48,4.19c-0.17,27.28-7.55,43.41-19.67,51.17" transform="matrix(1,0,0,1,996,-4)" class="stroke_order_diagram--existing_path"></path><path id="pathSk2v596cnntn" kvg:type="㇔/㇏" d="M32.25,67.25c3.74,2.49,8.5,7.25,11,12.25" transform="matrix(1,0,0,1,996,-4)" class="stroke_order_diagram--existing_path"></path><path id="pathSk2v596cnnto" kvg:type="㇐" d="M52.24,25.14c2.01,0.36,3.83,0.38,5.52,0.23c8.62-0.75,18.07-2.45,26.49-3.06c1.89-0.14,3.68-0.24,5.54,0.19" transform="matrix(1,0,0,1,996,-4)" class="stroke_order_diagram--existing_path"></path><path id="pathSk2v596cnntp" kvg:type="㇑" d="M52.79,39.53c1.08,0.72,1.89,1.96,2.17,3.14c0.99,4.18,1.87,9.68,2.83,15.68c0.18,1.11,0.35,2.21,0.51,3.31" transform="matrix(1,0,0,1,996,-4)" class="stroke_order_diagram--existing_path"></path><path id="pathSk2v596cnntq" kvg:type="㇕b" d="M55.37,40.88c6.67-0.66,22.19-2.89,28.39-3.32c3.41-0.23,4.81,0.88,3.94,4.32c-0.66,2.6-1.27,4.16-3.25,13.66" transform="matrix(1,0,0,1,996,-4)" class="stroke_order_diagram--existing_path"></path><path id="pathSk2v596cnntr" kvg:type="㇐b" d="M58.95,59.1c6.39-0.62,16.13-1.6,23.68-2.17c1.38-0.1,2.69-0.19,3.89-0.26" transform="matrix(1,0,0,1,996,-4)" class="stroke_order_diagram--existing_path"></path><path id="pathSk2v596cnnts" kvg:type="㇔" d="M56.38,67.75c2.2,2.46,5.69,10.1,6.25,13.93" transform="matrix(1,0,0,1,996,-4)" class="stroke_order_diagram--existing_path"></path><path id="kvg:077ed-s11" kvg:type="㇒" d="M82.95,64.34c0.18,0.78,0.12,1.86-0.05,2.59C81.75,71.88,78.88,79,74.88,85.2" transform="matrix(1,0,0,1,996,-4)" class="stroke_order_diagram--current_path"></path><path id="pathSk2v596cnntu" kvg:type="㇒" d="M82.95,64.34c0.18,0.78,0.12,1.86-0.05,2.59C81.75,71.88,78.88,79,74.88,85.2" transform="matrix(1,0,0,1,996,-4)" class="stroke_order_diagram--current_path"></path><circle cx="82.95" cy="64.34" r="8" class="stroke_order_diagram--path_start" transform="matrix(1,0,0,1,996,-4)"></circle><line x1="1150" x2="1150" y1="1" y2="99" class="stroke_order_diagram--guide_line"></line><line x1="1199" x2="1199" y1="1" y2="99" class="stroke_order_diagram--bounding_box"></line><path id="pathSk2v596cnntx" kvg:type="㇒" d="M25.84,17c0.29,0.75,0.32,1.95,0.18,2.9c-0.79,5.58-6.77,19.35-12.25,26.4" transform="matrix(1,0,0,1,1096,-4)" class="stroke_order_diagram--existing_path"></path><path id="pathSk2v596cnnty" kvg:type="㇐" d="M22.07,35.68c0.93,0.32,2.05,0.23,2.79,0.16c3.18-0.32,8.07-0.97,13.69-2.11c1.09-0.22,3.08-0.48,4.17-0.25" transform="matrix(1,0,0,1,1096,-4)" class="stroke_order_diagram--existing_path"></path><path id="pathSk2v596cnntz" kvg:type="㇐" d="M10.32,55.34c2.43,0.41,4.64,0.24,6.44-0.01c6.54-0.88,16.6-2.41,23.88-3.19c2.44-0.26,4.49-0.27,6.69,0.33" transform="matrix(1,0,0,1,1096,-4)" class="stroke_order_diagram--existing_path"></path><path id="pathSk2v596cnnu0" kvg:type="㇒" d="M29.94,37.28c0.95,0.95,1.49,2.47,1.48,4.19c-0.17,27.28-7.55,43.41-19.67,51.17" transform="matrix(1,0,0,1,1096,-4)" class="stroke_order_diagram--existing_path"></path><path id="pathSk2v596cnnu1" kvg:type="㇔/㇏" d="M32.25,67.25c3.74,2.49,8.5,7.25,11,12.25" transform="matrix(1,0,0,1,1096,-4)" class="stroke_order_diagram--existing_path"></path><path id="pathSk2v596cnnu2" kvg:type="㇐" d="M52.24,25.14c2.01,0.36,3.83,0.38,5.52,0.23c8.62-0.75,18.07-2.45,26.49-3.06c1.89-0.14,3.68-0.24,5.54,0.19" transform="matrix(1,0,0,1,1096,-4)" class="stroke_order_diagram--existing_path"></path><path id="pathSk2v596cnnu3" kvg:type="㇑" d="M52.79,39.53c1.08,0.72,1.89,1.96,2.17,3.14c0.99,4.18,1.87,9.68,2.83,15.68c0.18,1.11,0.35,2.21,0.51,3.31" transform="matrix(1,0,0,1,1096,-4)" class="stroke_order_diagram--existing_path"></path><path id="pathSk2v596cnnu4" kvg:type="㇕b" d="M55.37,40.88c6.67-0.66,22.19-2.89,28.39-3.32c3.41-0.23,4.81,0.88,3.94,4.32c-0.66,2.6-1.27,4.16-3.25,13.66" transform="matrix(1,0,0,1,1096,-4)" class="stroke_order_diagram--existing_path"></path><path id="pathSk2v596cnnu5" kvg:type="㇐b" d="M58.95,59.1c6.39-0.62,16.13-1.6,23.68-2.17c1.38-0.1,2.69-0.19,3.89-0.26" transform="matrix(1,0,0,1,1096,-4)" class="stroke_order_diagram--existing_path"></path><path id="pathSk2v596cnnu6" kvg:type="㇔" d="M56.38,67.75c2.2,2.46,5.69,10.1,6.25,13.93" transform="matrix(1,0,0,1,1096,-4)" class="stroke_order_diagram--existing_path"></path><path id="pathSk2v596cnnu7" kvg:type="㇒" d="M82.95,64.34c0.18,0.78,0.12,1.86-0.05,2.59C81.75,71.88,78.88,79,74.88,85.2" transform="matrix(1,0,0,1,1096,-4)" class="stroke_order_diagram--existing_path"></path><path id="kvg:077ed-s12" kvg:type="㇐" d="M45.73,88.76c2.06,0.69,5.84,0.82,7.9,0.69c16.54-1.08,26.21-2.2,39.17-2.31c3.44-0.03,5.5,0.33,7.22,0.67" transform="matrix(1,0,0,1,1096,-4)" class="stroke_order_diagram--current_path"></path><path id="pathSk2v596cnnu9" kvg:type="㇐" d="M45.73,88.76c2.06,0.69,5.84,0.82,7.9,0.69c16.54-1.08,26.21-2.2,39.17-2.31c3.44-0.03,5.5,0.33,7.22,0.67" transform="matrix(1,0,0,1,1096,-4)" class="stroke_order_diagram--current_path"></path><circle cx="45.73" cy="88.76" r="8" class="stroke_order_diagram--path_start" transform="matrix(1,0,0,1,1096,-4)"></circle></svg>