<svg style="width: 1500px; height: 100px;" viewbox="0 0 1500 100"><style>
.stroke_order_diagram--outer_container {
  width: 100%;
  overflow-x: auto;
  overflow-y: hidden;
}

.stroke_order_diagram--guide_line {
  fill: none;
  stroke: #ddd;
  stroke-width: 3;
  stroke-linecap: square;
  stroke-linejoin: square;
  stroke-dasharray:8, 8;
}

.stroke_order_diagram--bounding_box {
  fill: none;
  stroke: #ddd;
  stroke-width: 4;
  stroke-linecap: square;
  stroke-linejoin: square;
}

.stroke_order_diagram--current_path {
  fill: none;
  stroke: #000;
  stroke-width: 6;
  stroke-linecap: round;
  stroke-linejoin: round;
}

.stroke_order_diagram--existing_path {
  fill: none;
  stroke: #aaa;
  stroke-width: 6;
  stroke-linecap: round;
  stroke-linejoin:round;
}

.stroke_order_diagram--path_start {
  fill: rgba(255, 0, 0, 0.7);
  stroke:none
}</style><desc>Created with Snap</desc><defs></defs><line x1="1" x2="1499" y1="1" y2="1" class="stroke_order_diagram--bounding_box"></line><line x1="1" x2="1" y1="1" y2="99" class="stroke_order_diagram--bounding_box"></line><line x1="1" x2="1499" y1="99" y2="99" class="stroke_order_diagram--bounding_box"></line><line x1="0" x2="1500" y1="50" y2="50" class="stroke_order_diagram--guide_line"></line><line x1="50" x2="50" y1="1" y2="99" class="stroke_order_diagram--guide_line"></line><line x1="99" x2="99" y1="1" y2="99" class="stroke_order_diagram--bounding_box"></line><path id="kvg:078ba-s1" kvg:type="㇐" d="M15.13,31.01c1.23,0.26,2.89,0.36,4.12,0.3C25,31,32.38,29.75,39.03,28.72c1.39-0.21,2.98-0.22,4.35-0.05" transform="matrix(1,0,0,1,-4,-4)" class="stroke_order_diagram--current_path"></path><path id="pathSk2v596cn19ji" kvg:type="㇐" d="M15.13,31.01c1.23,0.26,2.89,0.36,4.12,0.3C25,31,32.38,29.75,39.03,28.72c1.39-0.21,2.98-0.22,4.35-0.05" transform="matrix(1,0,0,1,-4,-4)" class="stroke_order_diagram--current_path"></path><circle cx="15.13" cy="31.01" r="8" class="stroke_order_diagram--path_start" transform="matrix(1,0,0,1,-4,-4)"></circle><line x1="150" x2="150" y1="1" y2="99" class="stroke_order_diagram--guide_line"></line><line x1="199" x2="199" y1="1" y2="99" class="stroke_order_diagram--bounding_box"></line><path id="pathSk2v596cn19jl" kvg:type="㇐" d="M15.13,31.01c1.23,0.26,2.89,0.36,4.12,0.3C25,31,32.38,29.75,39.03,28.72c1.39-0.21,2.98-0.22,4.35-0.05" transform="matrix(1,0,0,1,96,-4)" class="stroke_order_diagram--existing_path"></path><path id="kvg:078ba-s2" kvg:type="㇒" d="M26.06,33.43c0.19,0.95,0.11,1.64-0.07,2.98c-1.06,7.9-7.16,25.23-15.49,35.84" transform="matrix(1,0,0,1,96,-4)" class="stroke_order_diagram--current_path"></path><path id="pathSk2v596cn19jn" kvg:type="㇒" d="M26.06,33.43c0.19,0.95,0.11,1.64-0.07,2.98c-1.06,7.9-7.16,25.23-15.49,35.84" transform="matrix(1,0,0,1,96,-4)" class="stroke_order_diagram--current_path"></path><circle cx="26.06" cy="33.43" r="8" class="stroke_order_diagram--path_start" transform="matrix(1,0,0,1,96,-4)"></circle><line x1="250" x2="250" y1="1" y2="99" class="stroke_order_diagram--guide_line"></line><line x1="299" x2="299" y1="1" y2="99" class="stroke_order_diagram--bounding_box"></line><path id="pathSk2v596cn19jq" kvg:type="㇐" d="M15.13,31.01c1.23,0.26,2.89,0.36,4.12,0.3C25,31,32.38,29.75,39.03,28.72c1.39-0.21,2.98-0.22,4.35-0.05" transform="matrix(1,0,0,1,196,-4)" class="stroke_order_diagram--existing_path"></path><path id="pathSk2v596cn19jr" kvg:type="㇒" d="M26.06,33.43c0.19,0.95,0.11,1.64-0.07,2.98c-1.06,7.9-7.16,25.23-15.49,35.84" transform="matrix(1,0,0,1,196,-4)" class="stroke_order_diagram--existing_path"></path><path id="kvg:078ba-s3" kvg:type="㇑" d="M21.5,56.04c0.79,0.79,1.41,1.87,1.51,2.96c0.49,5.44,1.37,11.88,2.01,17.63c0.17,1.51,0.32,2.98,0.44,4.37" transform="matrix(1,0,0,1,196,-4)" class="stroke_order_diagram--current_path"></path><path id="pathSk2v596cn19jt" kvg:type="㇑" d="M21.5,56.04c0.79,0.79,1.41,1.87,1.51,2.96c0.49,5.44,1.37,11.88,2.01,17.63c0.17,1.51,0.32,2.98,0.44,4.37" transform="matrix(1,0,0,1,196,-4)" class="stroke_order_diagram--current_path"></path><circle cx="21.5" cy="56.04" r="8" class="stroke_order_diagram--path_start" transform="matrix(1,0,0,1,196,-4)"></circle><line x1="350" x2="350" y1="1" y2="99" class="stroke_order_diagram--guide_line"></line><line x1="399" x2="399" y1="1" y2="99" class="stroke_order_diagram--bounding_box"></line><path id="pathSk2v596cn19jw" kvg:type="㇐" d="M15.13,31.01c1.23,0.26,2.89,0.36,4.12,0.3C25,31,32.38,29.75,39.03,28.72c1.39-0.21,2.98-0.22,4.35-0.05" transform="matrix(1,0,0,1,296,-4)" class="stroke_order_diagram--existing_path"></path><path id="pathSk2v596cn19jx" kvg:type="㇒" d="M26.06,33.43c0.19,0.95,0.11,1.64-0.07,2.98c-1.06,7.9-7.16,25.23-15.49,35.84" transform="matrix(1,0,0,1,296,-4)" class="stroke_order_diagram--existing_path"></path><path id="pathSk2v596cn19jy" kvg:type="㇑" d="M21.5,56.04c0.79,0.79,1.41,1.87,1.51,2.96c0.49,5.44,1.37,11.88,2.01,17.63c0.17,1.51,0.32,2.98,0.44,4.37" transform="matrix(1,0,0,1,296,-4)" class="stroke_order_diagram--existing_path"></path><path id="kvg:078ba-s4" kvg:type="㇕b" d="M23.98,57.62c5.4-1.29,10.53-2.17,14.04-2.74c2.79-0.46,4.54,0.71,3.9,4.03c-1.05,5.47-1.67,8.72-3.17,15.44" transform="matrix(1,0,0,1,296,-4)" class="stroke_order_diagram--current_path"></path><path id="pathSk2v596cn19k0" kvg:type="㇕b" d="M23.98,57.62c5.4-1.29,10.53-2.17,14.04-2.74c2.79-0.46,4.54,0.71,3.9,4.03c-1.05,5.47-1.67,8.72-3.17,15.44" transform="matrix(1,0,0,1,296,-4)" class="stroke_order_diagram--current_path"></path><circle cx="23.98" cy="57.62" r="8" class="stroke_order_diagram--path_start" transform="matrix(1,0,0,1,296,-4)"></circle><line x1="450" x2="450" y1="1" y2="99" class="stroke_order_diagram--guide_line"></line><line x1="499" x2="499" y1="1" y2="99" class="stroke_order_diagram--bounding_box"></line><path id="pathSk2v596cn19k3" kvg:type="㇐" d="M15.13,31.01c1.23,0.26,2.89,0.36,4.12,0.3C25,31,32.38,29.75,39.03,28.72c1.39-0.21,2.98-0.22,4.35-0.05" transform="matrix(1,0,0,1,396,-4)" class="stroke_order_diagram--existing_path"></path><path id="pathSk2v596cn19k4" kvg:type="㇒" d="M26.06,33.43c0.19,0.95,0.11,1.64-0.07,2.98c-1.06,7.9-7.16,25.23-15.49,35.84" transform="matrix(1,0,0,1,396,-4)" class="stroke_order_diagram--existing_path"></path><path id="pathSk2v596cn19k5" kvg:type="㇑" d="M21.5,56.04c0.79,0.79,1.41,1.87,1.51,2.96c0.49,5.44,1.37,11.88,2.01,17.63c0.17,1.51,0.32,2.98,0.44,4.37" transform="matrix(1,0,0,1,396,-4)" class="stroke_order_diagram--existing_path"></path><path id="pathSk2v596cn19k6" kvg:type="㇕b" d="M23.98,57.62c5.4-1.29,10.53-2.17,14.04-2.74c2.79-0.46,4.54,0.71,3.9,4.03c-1.05,5.47-1.67,8.72-3.17,15.44" transform="matrix(1,0,0,1,396,-4)" class="stroke_order_diagram--existing_path"></path><path id="kvg:078ba-s5" kvg:type="㇐b" d="M26.38,77.5c3.65-0.46,6.91-1.03,11.13-1.61c1.08-0.15,2.22-0.3,3.44-0.44" transform="matrix(1,0,0,1,396,-4)" class="stroke_order_diagram--current_path"></path><path id="pathSk2v596cn19k8" kvg:type="㇐b" d="M26.38,77.5c3.65-0.46,6.91-1.03,11.13-1.61c1.08-0.15,2.22-0.3,3.44-0.44" transform="matrix(1,0,0,1,396,-4)" class="stroke_order_diagram--current_path"></path><circle cx="26.38" cy="77.5" r="8" class="stroke_order_diagram--path_start" transform="matrix(1,0,0,1,396,-4)"></circle><line x1="550" x2="550" y1="1" y2="99" class="stroke_order_diagram--guide_line"></line><line x1="599" x2="599" y1="1" y2="99" class="stroke_order_diagram--bounding_box"></line><path id="pathSk2v596cn19kb" kvg:type="㇐" d="M15.13,31.01c1.23,0.26,2.89,0.36,4.12,0.3C25,31,32.38,29.75,39.03,28.72c1.39-0.21,2.98-0.22,4.35-0.05" transform="matrix(1,0,0,1,496,-4)" class="stroke_order_diagram--existing_path"></path><path id="pathSk2v596cn19kc" kvg:type="㇒" d="M26.06,33.43c0.19,0.95,0.11,1.64-0.07,2.98c-1.06,7.9-7.16,25.23-15.49,35.84" transform="matrix(1,0,0,1,496,-4)" class="stroke_order_diagram--existing_path"></path><path id="pathSk2v596cn19kd" kvg:type="㇑" d="M21.5,56.04c0.79,0.79,1.41,1.87,1.51,2.96c0.49,5.44,1.37,11.88,2.01,17.63c0.17,1.51,0.32,2.98,0.44,4.37" transform="matrix(1,0,0,1,496,-4)" class="stroke_order_diagram--existing_path"></path><path id="pathSk2v596cn19ke" kvg:type="㇕b" d="M23.98,57.62c5.4-1.29,10.53-2.17,14.04-2.74c2.79-0.46,4.54,0.71,3.9,4.03c-1.05,5.47-1.67,8.72-3.17,15.44" transform="matrix(1,0,0,1,496,-4)" class="stroke_order_diagram--existing_path"></path><path id="pathSk2v596cn19kf" kvg:type="㇐b" d="M26.38,77.5c3.65-0.46,6.91-1.03,11.13-1.61c1.08-0.15,2.22-0.3,3.44-0.44" transform="matrix(1,0,0,1,496,-4)" class="stroke_order_diagram--existing_path"></path><path id="kvg:078ba-s6" kvg:type="㇔" d="M51.88,27.62c0,3.48-2.66,13.05-3.88,15.38" transform="matrix(1,0,0,1,496,-4)" class="stroke_order_diagram--current_path"></path><path id="pathSk2v596cn19kh" kvg:type="㇔" d="M51.88,27.62c0,3.48-2.66,13.05-3.88,15.38" transform="matrix(1,0,0,1,496,-4)" class="stroke_order_diagram--current_path"></path><circle cx="51.88" cy="27.62" r="8" class="stroke_order_diagram--path_start" transform="matrix(1,0,0,1,496,-4)"></circle><line x1="650" x2="650" y1="1" y2="99" class="stroke_order_diagram--guide_line"></line><line x1="699" x2="699" y1="1" y2="99" class="stroke_order_diagram--bounding_box"></line><path id="pathSk2v596cn19kk" kvg:type="㇐" d="M15.13,31.01c1.23,0.26,2.89,0.36,4.12,0.3C25,31,32.38,29.75,39.03,28.72c1.39-0.21,2.98-0.22,4.35-0.05" transform="matrix(1,0,0,1,596,-4)" class="stroke_order_diagram--existing_path"></path><path id="pathSk2v596cn19kl" kvg:type="㇒" d="M26.06,33.43c0.19,0.95,0.11,1.64-0.07,2.98c-1.06,7.9-7.16,25.23-15.49,35.84" transform="matrix(1,0,0,1,596,-4)" class="stroke_order_diagram--existing_path"></path><path id="pathSk2v596cn19km" kvg:type="㇑" d="M21.5,56.04c0.79,0.79,1.41,1.87,1.51,2.96c0.49,5.44,1.37,11.88,2.01,17.63c0.17,1.51,0.32,2.98,0.44,4.37" transform="matrix(1,0,0,1,596,-4)" class="stroke_order_diagram--existing_path"></path><path id="pathSk2v596cn19kn" kvg:type="㇕b" d="M23.98,57.62c5.4-1.29,10.53-2.17,14.04-2.74c2.79-0.46,4.54,0.71,3.9,4.03c-1.05,5.47-1.67,8.72-3.17,15.44" transform="matrix(1,0,0,1,596,-4)" class="stroke_order_diagram--existing_path"></path><path id="pathSk2v596cn19ko" kvg:type="㇐b" d="M26.38,77.5c3.65-0.46,6.91-1.03,11.13-1.61c1.08-0.15,2.22-0.3,3.44-0.44" transform="matrix(1,0,0,1,596,-4)" class="stroke_order_diagram--existing_path"></path><path id="pathSk2v596cn19kp" kvg:type="㇔" d="M51.88,27.62c0,3.48-2.66,13.05-3.88,15.38" transform="matrix(1,0,0,1,596,-4)" class="stroke_order_diagram--existing_path"></path><path id="kvg:078ba-s7" kvg:type="㇖b" d="M52.99,29.72c9.88-1.22,30.88-3.99,37.53-4.35c10.38-0.55,2.85,6.25-0.39,9.2" transform="matrix(1,0,0,1,596,-4)" class="stroke_order_diagram--current_path"></path><path id="pathSk2v596cn19kr" kvg:type="㇖b" d="M52.99,29.72c9.88-1.22,30.88-3.99,37.53-4.35c10.38-0.55,2.85,6.25-0.39,9.2" transform="matrix(1,0,0,1,596,-4)" class="stroke_order_diagram--current_path"></path><circle cx="52.99" cy="29.72" r="8" class="stroke_order_diagram--path_start" transform="matrix(1,0,0,1,596,-4)"></circle><line x1="750" x2="750" y1="1" y2="99" class="stroke_order_diagram--guide_line"></line><line x1="799" x2="799" y1="1" y2="99" class="stroke_order_diagram--bounding_box"></line><path id="pathSk2v596cn19ku" kvg:type="㇐" d="M15.13,31.01c1.23,0.26,2.89,0.36,4.12,0.3C25,31,32.38,29.75,39.03,28.72c1.39-0.21,2.98-0.22,4.35-0.05" transform="matrix(1,0,0,1,696,-4)" class="stroke_order_diagram--existing_path"></path><path id="pathSk2v596cn19kv" kvg:type="㇒" d="M26.06,33.43c0.19,0.95,0.11,1.64-0.07,2.98c-1.06,7.9-7.16,25.23-15.49,35.84" transform="matrix(1,0,0,1,696,-4)" class="stroke_order_diagram--existing_path"></path><path id="pathSk2v596cn19kw" kvg:type="㇑" d="M21.5,56.04c0.79,0.79,1.41,1.87,1.51,2.96c0.49,5.44,1.37,11.88,2.01,17.63c0.17,1.51,0.32,2.98,0.44,4.37" transform="matrix(1,0,0,1,696,-4)" class="stroke_order_diagram--existing_path"></path><path id="pathSk2v596cn19kx" kvg:type="㇕b" d="M23.98,57.62c5.4-1.29,10.53-2.17,14.04-2.74c2.79-0.46,4.54,0.71,3.9,4.03c-1.05,5.47-1.67,8.72-3.17,15.44" transform="matrix(1,0,0,1,696,-4)" class="stroke_order_diagram--existing_path"></path><path id="pathSk2v596cn19ky" kvg:type="㇐b" d="M26.38,77.5c3.65-0.46,6.91-1.03,11.13-1.61c1.08-0.15,2.22-0.3,3.44-0.44" transform="matrix(1,0,0,1,696,-4)" class="stroke_order_diagram--existing_path"></path><path id="pathSk2v596cn19kz" kvg:type="㇔" d="M51.88,27.62c0,3.48-2.66,13.05-3.88,15.38" transform="matrix(1,0,0,1,696,-4)" class="stroke_order_diagram--existing_path"></path><path id="pathSk2v596cn19l0" kvg:type="㇖b" d="M52.99,29.72c9.88-1.22,30.88-3.99,37.53-4.35c10.38-0.55,2.85,6.25-0.39,9.2" transform="matrix(1,0,0,1,696,-4)" class="stroke_order_diagram--existing_path"></path><path id="kvg:078ba-s8" kvg:type="㇒" d="M71.42,11.5c0.46,1.12,0.46,2.5,0.13,3.97C68.39,29.53,60.75,48.5,47.5,63.16" transform="matrix(1,0,0,1,696,-4)" class="stroke_order_diagram--current_path"></path><path id="pathSk2v596cn19l2" kvg:type="㇒" d="M71.42,11.5c0.46,1.12,0.46,2.5,0.13,3.97C68.39,29.53,60.75,48.5,47.5,63.16" transform="matrix(1,0,0,1,696,-4)" class="stroke_order_diagram--current_path"></path><circle cx="71.42" cy="11.5" r="8" class="stroke_order_diagram--path_start" transform="matrix(1,0,0,1,696,-4)"></circle><line x1="850" x2="850" y1="1" y2="99" class="stroke_order_diagram--guide_line"></line><line x1="899" x2="899" y1="1" y2="99" class="stroke_order_diagram--bounding_box"></line><path id="pathSk2v596cn19l5" kvg:type="㇐" d="M15.13,31.01c1.23,0.26,2.89,0.36,4.12,0.3C25,31,32.38,29.75,39.03,28.72c1.39-0.21,2.98-0.22,4.35-0.05" transform="matrix(1,0,0,1,796,-4)" class="stroke_order_diagram--existing_path"></path><path id="pathSk2v596cn19l6" kvg:type="㇒" d="M26.06,33.43c0.19,0.95,0.11,1.64-0.07,2.98c-1.06,7.9-7.16,25.23-15.49,35.84" transform="matrix(1,0,0,1,796,-4)" class="stroke_order_diagram--existing_path"></path><path id="pathSk2v596cn19l7" kvg:type="㇑" d="M21.5,56.04c0.79,0.79,1.41,1.87,1.51,2.96c0.49,5.44,1.37,11.88,2.01,17.63c0.17,1.51,0.32,2.98,0.44,4.37" transform="matrix(1,0,0,1,796,-4)" class="stroke_order_diagram--existing_path"></path><path id="pathSk2v596cn19l8" kvg:type="㇕b" d="M23.98,57.62c5.4-1.29,10.53-2.17,14.04-2.74c2.79-0.46,4.54,0.71,3.9,4.03c-1.05,5.47-1.67,8.72-3.17,15.44" transform="matrix(1,0,0,1,796,-4)" class="stroke_order_diagram--existing_path"></path><path id="pathSk2v596cn19l9" kvg:type="㇐b" d="M26.38,77.5c3.65-0.46,6.91-1.03,11.13-1.61c1.08-0.15,2.22-0.3,3.44-0.44" transform="matrix(1,0,0,1,796,-4)" class="stroke_order_diagram--existing_path"></path><path id="pathSk2v596cn19la" kvg:type="㇔" d="M51.88,27.62c0,3.48-2.66,13.05-3.88,15.38" transform="matrix(1,0,0,1,796,-4)" class="stroke_order_diagram--existing_path"></path><path id="pathSk2v596cn19lb" kvg:type="㇖b" d="M52.99,29.72c9.88-1.22,30.88-3.99,37.53-4.35c10.38-0.55,2.85,6.25-0.39,9.2" transform="matrix(1,0,0,1,796,-4)" class="stroke_order_diagram--existing_path"></path><path id="pathSk2v596cn19lc" kvg:type="㇒" d="M71.42,11.5c0.46,1.12,0.46,2.5,0.13,3.97C68.39,29.53,60.75,48.5,47.5,63.16" transform="matrix(1,0,0,1,796,-4)" class="stroke_order_diagram--existing_path"></path><path id="kvg:078ba-s9" kvg:type="㇑" d="M56.4,54.04c0.72,0.72,1,1.97,1,3.09c0,8.19-0.01,24.35-0.02,34.12c0,3.38,0,6,0,7.25" transform="matrix(1,0,0,1,796,-4)" class="stroke_order_diagram--current_path"></path><path id="pathSk2v596cn19le" kvg:type="㇑" d="M56.4,54.04c0.72,0.72,1,1.97,1,3.09c0,8.19-0.01,24.35-0.02,34.12c0,3.38,0,6,0,7.25" transform="matrix(1,0,0,1,796,-4)" class="stroke_order_diagram--current_path"></path><circle cx="56.4" cy="54.04" r="8" class="stroke_order_diagram--path_start" transform="matrix(1,0,0,1,796,-4)"></circle><line x1="950" x2="950" y1="1" y2="99" class="stroke_order_diagram--guide_line"></line><line x1="999" x2="999" y1="1" y2="99" class="stroke_order_diagram--bounding_box"></line><path id="pathSk2v596cn19lh" kvg:type="㇐" d="M15.13,31.01c1.23,0.26,2.89,0.36,4.12,0.3C25,31,32.38,29.75,39.03,28.72c1.39-0.21,2.98-0.22,4.35-0.05" transform="matrix(1,0,0,1,896,-4)" class="stroke_order_diagram--existing_path"></path><path id="pathSk2v596cn19li" kvg:type="㇒" d="M26.06,33.43c0.19,0.95,0.11,1.64-0.07,2.98c-1.06,7.9-7.16,25.23-15.49,35.84" transform="matrix(1,0,0,1,896,-4)" class="stroke_order_diagram--existing_path"></path><path id="pathSk2v596cn19lj" kvg:type="㇑" d="M21.5,56.04c0.79,0.79,1.41,1.87,1.51,2.96c0.49,5.44,1.37,11.88,2.01,17.63c0.17,1.51,0.32,2.98,0.44,4.37" transform="matrix(1,0,0,1,896,-4)" class="stroke_order_diagram--existing_path"></path><path id="pathSk2v596cn19lk" kvg:type="㇕b" d="M23.98,57.62c5.4-1.29,10.53-2.17,14.04-2.74c2.79-0.46,4.54,0.71,3.9,4.03c-1.05,5.47-1.67,8.72-3.17,15.44" transform="matrix(1,0,0,1,896,-4)" class="stroke_order_diagram--existing_path"></path><path id="pathSk2v596cn19ll" kvg:type="㇐b" d="M26.38,77.5c3.65-0.46,6.91-1.03,11.13-1.61c1.08-0.15,2.22-0.3,3.44-0.44" transform="matrix(1,0,0,1,896,-4)" class="stroke_order_diagram--existing_path"></path><path id="pathSk2v596cn19lm" kvg:type="㇔" d="M51.88,27.62c0,3.48-2.66,13.05-3.88,15.38" transform="matrix(1,0,0,1,896,-4)" class="stroke_order_diagram--existing_path"></path><path id="pathSk2v596cn19ln" kvg:type="㇖b" d="M52.99,29.72c9.88-1.22,30.88-3.99,37.53-4.35c10.38-0.55,2.85,6.25-0.39,9.2" transform="matrix(1,0,0,1,896,-4)" class="stroke_order_diagram--existing_path"></path><path id="pathSk2v596cn19lo" kvg:type="㇒" d="M71.42,11.5c0.46,1.12,0.46,2.5,0.13,3.97C68.39,29.53,60.75,48.5,47.5,63.16" transform="matrix(1,0,0,1,896,-4)" class="stroke_order_diagram--existing_path"></path><path id="pathSk2v596cn19lp" kvg:type="㇑" d="M56.4,54.04c0.72,0.72,1,1.97,1,3.09c0,8.19-0.01,24.35-0.02,34.12c0,3.38,0,6,0,7.25" transform="matrix(1,0,0,1,896,-4)" class="stroke_order_diagram--existing_path"></path><path id="kvg:078ba-s10" kvg:type="㇒" d="M79.41,37c0.06,0.63-0.01,1.45-0.19,1.99c-1.15,3.43-2.6,6.08-5.22,10.26" transform="matrix(1,0,0,1,896,-4)" class="stroke_order_diagram--current_path"></path><path id="pathSk2v596cn19lr" kvg:type="㇒" d="M79.41,37c0.06,0.63-0.01,1.45-0.19,1.99c-1.15,3.43-2.6,6.08-5.22,10.26" transform="matrix(1,0,0,1,896,-4)" class="stroke_order_diagram--current_path"></path><circle cx="79.41" cy="37" r="8" class="stroke_order_diagram--path_start" transform="matrix(1,0,0,1,896,-4)"></circle><line x1="1050" x2="1050" y1="1" y2="99" class="stroke_order_diagram--guide_line"></line><line x1="1099" x2="1099" y1="1" y2="99" class="stroke_order_diagram--bounding_box"></line><path id="pathSk2v596cn19lu" kvg:type="㇐" d="M15.13,31.01c1.23,0.26,2.89,0.36,4.12,0.3C25,31,32.38,29.75,39.03,28.72c1.39-0.21,2.98-0.22,4.35-0.05" transform="matrix(1,0,0,1,996,-4)" class="stroke_order_diagram--existing_path"></path><path id="pathSk2v596cn19lv" kvg:type="㇒" d="M26.06,33.43c0.19,0.95,0.11,1.64-0.07,2.98c-1.06,7.9-7.16,25.23-15.49,35.84" transform="matrix(1,0,0,1,996,-4)" class="stroke_order_diagram--existing_path"></path><path id="pathSk2v596cn19lw" kvg:type="㇑" d="M21.5,56.04c0.79,0.79,1.41,1.87,1.51,2.96c0.49,5.44,1.37,11.88,2.01,17.63c0.17,1.51,0.32,2.98,0.44,4.37" transform="matrix(1,0,0,1,996,-4)" class="stroke_order_diagram--existing_path"></path><path id="pathSk2v596cn19lx" kvg:type="㇕b" d="M23.98,57.62c5.4-1.29,10.53-2.17,14.04-2.74c2.79-0.46,4.54,0.71,3.9,4.03c-1.05,5.47-1.67,8.72-3.17,15.44" transform="matrix(1,0,0,1,996,-4)" class="stroke_order_diagram--existing_path"></path><path id="pathSk2v596cn19ly" kvg:type="㇐b" d="M26.38,77.5c3.65-0.46,6.91-1.03,11.13-1.61c1.08-0.15,2.22-0.3,3.44-0.44" transform="matrix(1,0,0,1,996,-4)" class="stroke_order_diagram--existing_path"></path><path id="pathSk2v596cn19lz" kvg:type="㇔" d="M51.88,27.62c0,3.48-2.66,13.05-3.88,15.38" transform="matrix(1,0,0,1,996,-4)" class="stroke_order_diagram--existing_path"></path><path id="pathSk2v596cn19m0" kvg:type="㇖b" d="M52.99,29.72c9.88-1.22,30.88-3.99,37.53-4.35c10.38-0.55,2.85,6.25-0.39,9.2" transform="matrix(1,0,0,1,996,-4)" class="stroke_order_diagram--existing_path"></path><path id="pathSk2v596cn19m1" kvg:type="㇒" d="M71.42,11.5c0.46,1.12,0.46,2.5,0.13,3.97C68.39,29.53,60.75,48.5,47.5,63.16" transform="matrix(1,0,0,1,996,-4)" class="stroke_order_diagram--existing_path"></path><path id="pathSk2v596cn19m2" kvg:type="㇑" d="M56.4,54.04c0.72,0.72,1,1.97,1,3.09c0,8.19-0.01,24.35-0.02,34.12c0,3.38,0,6,0,7.25" transform="matrix(1,0,0,1,996,-4)" class="stroke_order_diagram--existing_path"></path><path id="pathSk2v596cn19m3" kvg:type="㇒" d="M79.41,37c0.06,0.63-0.01,1.45-0.19,1.99c-1.15,3.43-2.6,6.08-5.22,10.26" transform="matrix(1,0,0,1,996,-4)" class="stroke_order_diagram--existing_path"></path><path id="kvg:078ba-s11" kvg:type="㇐b" d="M57.58,52.23c6.07-0.47,21.81-1.83,29.93-2.64c2.31-0.23,4-0.41,4.67-0.52" transform="matrix(1,0,0,1,996,-4)" class="stroke_order_diagram--current_path"></path><path id="pathSk2v596cn19m5" kvg:type="㇐b" d="M57.58,52.23c6.07-0.47,21.81-1.83,29.93-2.64c2.31-0.23,4-0.41,4.67-0.52" transform="matrix(1,0,0,1,996,-4)" class="stroke_order_diagram--current_path"></path><circle cx="57.58" cy="52.23" r="8" class="stroke_order_diagram--path_start" transform="matrix(1,0,0,1,996,-4)"></circle><line x1="1150" x2="1150" y1="1" y2="99" class="stroke_order_diagram--guide_line"></line><line x1="1199" x2="1199" y1="1" y2="99" class="stroke_order_diagram--bounding_box"></line><path id="pathSk2v596cn19m8" kvg:type="㇐" d="M15.13,31.01c1.23,0.26,2.89,0.36,4.12,0.3C25,31,32.38,29.75,39.03,28.72c1.39-0.21,2.98-0.22,4.35-0.05" transform="matrix(1,0,0,1,1096,-4)" class="stroke_order_diagram--existing_path"></path><path id="pathSk2v596cn19m9" kvg:type="㇒" d="M26.06,33.43c0.19,0.95,0.11,1.64-0.07,2.98c-1.06,7.9-7.16,25.23-15.49,35.84" transform="matrix(1,0,0,1,1096,-4)" class="stroke_order_diagram--existing_path"></path><path id="pathSk2v596cn19ma" kvg:type="㇑" d="M21.5,56.04c0.79,0.79,1.41,1.87,1.51,2.96c0.49,5.44,1.37,11.88,2.01,17.63c0.17,1.51,0.32,2.98,0.44,4.37" transform="matrix(1,0,0,1,1096,-4)" class="stroke_order_diagram--existing_path"></path><path id="pathSk2v596cn19mb" kvg:type="㇕b" d="M23.98,57.62c5.4-1.29,10.53-2.17,14.04-2.74c2.79-0.46,4.54,0.71,3.9,4.03c-1.05,5.47-1.67,8.72-3.17,15.44" transform="matrix(1,0,0,1,1096,-4)" class="stroke_order_diagram--existing_path"></path><path id="pathSk2v596cn19mc" kvg:type="㇐b" d="M26.38,77.5c3.65-0.46,6.91-1.03,11.13-1.61c1.08-0.15,2.22-0.3,3.44-0.44" transform="matrix(1,0,0,1,1096,-4)" class="stroke_order_diagram--existing_path"></path><path id="pathSk2v596cn19md" kvg:type="㇔" d="M51.88,27.62c0,3.48-2.66,13.05-3.88,15.38" transform="matrix(1,0,0,1,1096,-4)" class="stroke_order_diagram--existing_path"></path><path id="pathSk2v596cn19me" kvg:type="㇖b" d="M52.99,29.72c9.88-1.22,30.88-3.99,37.53-4.35c10.38-0.55,2.85,6.25-0.39,9.2" transform="matrix(1,0,0,1,1096,-4)" class="stroke_order_diagram--existing_path"></path><path id="pathSk2v596cn19mf" kvg:type="㇒" d="M71.42,11.5c0.46,1.12,0.46,2.5,0.13,3.97C68.39,29.53,60.75,48.5,47.5,63.16" transform="matrix(1,0,0,1,1096,-4)" class="stroke_order_diagram--existing_path"></path><path id="pathSk2v596cn19mg" kvg:type="㇑" d="M56.4,54.04c0.72,0.72,1,1.97,1,3.09c0,8.19-0.01,24.35-0.02,34.12c0,3.38,0,6,0,7.25" transform="matrix(1,0,0,1,1096,-4)" class="stroke_order_diagram--existing_path"></path><path id="pathSk2v596cn19mh" kvg:type="㇒" d="M79.41,37c0.06,0.63-0.01,1.45-0.19,1.99c-1.15,3.43-2.6,6.08-5.22,10.26" transform="matrix(1,0,0,1,1096,-4)" class="stroke_order_diagram--existing_path"></path><path id="pathSk2v596cn19mi" kvg:type="㇐b" d="M57.58,52.23c6.07-0.47,21.81-1.83,29.93-2.64c2.31-0.23,4-0.41,4.67-0.52" transform="matrix(1,0,0,1,1096,-4)" class="stroke_order_diagram--existing_path"></path><path id="kvg:078ba-s12" kvg:type="㇑a" d="M73.81,53.26c0.9,0.9,1.61,2.12,1.61,3.67c0,8.82,0.06,25.57,0.06,32.57" transform="matrix(1,0,0,1,1096,-4)" class="stroke_order_diagram--current_path"></path><path id="pathSk2v596cn19mk" kvg:type="㇑a" d="M73.81,53.26c0.9,0.9,1.61,2.12,1.61,3.67c0,8.82,0.06,25.57,0.06,32.57" transform="matrix(1,0,0,1,1096,-4)" class="stroke_order_diagram--current_path"></path><circle cx="73.81" cy="53.26" r="8" class="stroke_order_diagram--path_start" transform="matrix(1,0,0,1,1096,-4)"></circle><line x1="1250" x2="1250" y1="1" y2="99" class="stroke_order_diagram--guide_line"></line><line x1="1299" x2="1299" y1="1" y2="99" class="stroke_order_diagram--bounding_box"></line><path id="pathSk2v596cn19mn" kvg:type="㇐" d="M15.13,31.01c1.23,0.26,2.89,0.36,4.12,0.3C25,31,32.38,29.75,39.03,28.72c1.39-0.21,2.98-0.22,4.35-0.05" transform="matrix(1,0,0,1,1196,-4)" class="stroke_order_diagram--existing_path"></path><path id="pathSk2v596cn19mo" kvg:type="㇒" d="M26.06,33.43c0.19,0.95,0.11,1.64-0.07,2.98c-1.06,7.9-7.16,25.23-15.49,35.84" transform="matrix(1,0,0,1,1196,-4)" class="stroke_order_diagram--existing_path"></path><path id="pathSk2v596cn19mp" kvg:type="㇑" d="M21.5,56.04c0.79,0.79,1.41,1.87,1.51,2.96c0.49,5.44,1.37,11.88,2.01,17.63c0.17,1.51,0.32,2.98,0.44,4.37" transform="matrix(1,0,0,1,1196,-4)" class="stroke_order_diagram--existing_path"></path><path id="pathSk2v596cn19mq" kvg:type="㇕b" d="M23.98,57.62c5.4-1.29,10.53-2.17,14.04-2.74c2.79-0.46,4.54,0.71,3.9,4.03c-1.05,5.47-1.67,8.72-3.17,15.44" transform="matrix(1,0,0,1,1196,-4)" class="stroke_order_diagram--existing_path"></path><path id="pathSk2v596cn19mr" kvg:type="㇐b" d="M26.38,77.5c3.65-0.46,6.91-1.03,11.13-1.61c1.08-0.15,2.22-0.3,3.44-0.44" transform="matrix(1,0,0,1,1196,-4)" class="stroke_order_diagram--existing_path"></path><path id="pathSk2v596cn19ms" kvg:type="㇔" d="M51.88,27.62c0,3.48-2.66,13.05-3.88,15.38" transform="matrix(1,0,0,1,1196,-4)" class="stroke_order_diagram--existing_path"></path><path id="pathSk2v596cn19mt" kvg:type="㇖b" d="M52.99,29.72c9.88-1.22,30.88-3.99,37.53-4.35c10.38-0.55,2.85,6.25-0.39,9.2" transform="matrix(1,0,0,1,1196,-4)" class="stroke_order_diagram--existing_path"></path><path id="pathSk2v596cn19mu" kvg:type="㇒" d="M71.42,11.5c0.46,1.12,0.46,2.5,0.13,3.97C68.39,29.53,60.75,48.5,47.5,63.16" transform="matrix(1,0,0,1,1196,-4)" class="stroke_order_diagram--existing_path"></path><path id="pathSk2v596cn19mv" kvg:type="㇑" d="M56.4,54.04c0.72,0.72,1,1.97,1,3.09c0,8.19-0.01,24.35-0.02,34.12c0,3.38,0,6,0,7.25" transform="matrix(1,0,0,1,1196,-4)" class="stroke_order_diagram--existing_path"></path><path id="pathSk2v596cn19mw" kvg:type="㇒" d="M79.41,37c0.06,0.63-0.01,1.45-0.19,1.99c-1.15,3.43-2.6,6.08-5.22,10.26" transform="matrix(1,0,0,1,1196,-4)" class="stroke_order_diagram--existing_path"></path><path id="pathSk2v596cn19mx" kvg:type="㇐b" d="M57.58,52.23c6.07-0.47,21.81-1.83,29.93-2.64c2.31-0.23,4-0.41,4.67-0.52" transform="matrix(1,0,0,1,1196,-4)" class="stroke_order_diagram--existing_path"></path><path id="pathSk2v596cn19my" kvg:type="㇑a" d="M73.81,53.26c0.9,0.9,1.61,2.12,1.61,3.67c0,8.82,0.06,25.57,0.06,32.57" transform="matrix(1,0,0,1,1196,-4)" class="stroke_order_diagram--existing_path"></path><path id="kvg:078ba-s13" kvg:type="㇐b" d="M58.86,65.44c5.34-0.58,20-1.71,27.27-2.35c1.89-0.17,3.28-0.3,3.88-0.38" transform="matrix(1,0,0,1,1196,-4)" class="stroke_order_diagram--current_path"></path><path id="pathSk2v596cn19n0" kvg:type="㇐b" d="M58.86,65.44c5.34-0.58,20-1.71,27.27-2.35c1.89-0.17,3.28-0.3,3.88-0.38" transform="matrix(1,0,0,1,1196,-4)" class="stroke_order_diagram--current_path"></path><circle cx="58.86" cy="65.44" r="8" class="stroke_order_diagram--path_start" transform="matrix(1,0,0,1,1196,-4)"></circle><line x1="1350" x2="1350" y1="1" y2="99" class="stroke_order_diagram--guide_line"></line><line x1="1399" x2="1399" y1="1" y2="99" class="stroke_order_diagram--bounding_box"></line><path id="pathSk2v596cn19n3" kvg:type="㇐" d="M15.13,31.01c1.23,0.26,2.89,0.36,4.12,0.3C25,31,32.38,29.75,39.03,28.72c1.39-0.21,2.98-0.22,4.35-0.05" transform="matrix(1,0,0,1,1296,-4)" class="stroke_order_diagram--existing_path"></path><path id="pathSk2v596cn19n4" kvg:type="㇒" d="M26.06,33.43c0.19,0.95,0.11,1.64-0.07,2.98c-1.06,7.9-7.16,25.23-15.49,35.84" transform="matrix(1,0,0,1,1296,-4)" class="stroke_order_diagram--existing_path"></path><path id="pathSk2v596cn19n5" kvg:type="㇑" d="M21.5,56.04c0.79,0.79,1.41,1.87,1.51,2.96c0.49,5.44,1.37,11.88,2.01,17.63c0.17,1.51,0.32,2.98,0.44,4.37" transform="matrix(1,0,0,1,1296,-4)" class="stroke_order_diagram--existing_path"></path><path id="pathSk2v596cn19n6" kvg:type="㇕b" d="M23.98,57.62c5.4-1.29,10.53-2.17,14.04-2.74c2.79-0.46,4.54,0.71,3.9,4.03c-1.05,5.47-1.67,8.72-3.17,15.44" transform="matrix(1,0,0,1,1296,-4)" class="stroke_order_diagram--existing_path"></path><path id="pathSk2v596cn19n7" kvg:type="㇐b" d="M26.38,77.5c3.65-0.46,6.91-1.03,11.13-1.61c1.08-0.15,2.22-0.3,3.44-0.44" transform="matrix(1,0,0,1,1296,-4)" class="stroke_order_diagram--existing_path"></path><path id="pathSk2v596cn19n8" kvg:type="㇔" d="M51.88,27.62c0,3.48-2.66,13.05-3.88,15.38" transform="matrix(1,0,0,1,1296,-4)" class="stroke_order_diagram--existing_path"></path><path id="pathSk2v596cn19n9" kvg:type="㇖b" d="M52.99,29.72c9.88-1.22,30.88-3.99,37.53-4.35c10.38-0.55,2.85,6.25-0.39,9.2" transform="matrix(1,0,0,1,1296,-4)" class="stroke_order_diagram--existing_path"></path><path id="pathSk2v596cn19na" kvg:type="㇒" d="M71.42,11.5c0.46,1.12,0.46,2.5,0.13,3.97C68.39,29.53,60.75,48.5,47.5,63.16" transform="matrix(1,0,0,1,1296,-4)" class="stroke_order_diagram--existing_path"></path><path id="pathSk2v596cn19nb" kvg:type="㇑" d="M56.4,54.04c0.72,0.72,1,1.97,1,3.09c0,8.19-0.01,24.35-0.02,34.12c0,3.38,0,6,0,7.25" transform="matrix(1,0,0,1,1296,-4)" class="stroke_order_diagram--existing_path"></path><path id="pathSk2v596cn19nc" kvg:type="㇒" d="M79.41,37c0.06,0.63-0.01,1.45-0.19,1.99c-1.15,3.43-2.6,6.08-5.22,10.26" transform="matrix(1,0,0,1,1296,-4)" class="stroke_order_diagram--existing_path"></path><path id="pathSk2v596cn19nd" kvg:type="㇐b" d="M57.58,52.23c6.07-0.47,21.81-1.83,29.93-2.64c2.31-0.23,4-0.41,4.67-0.52" transform="matrix(1,0,0,1,1296,-4)" class="stroke_order_diagram--existing_path"></path><path id="pathSk2v596cn19ne" kvg:type="㇑a" d="M73.81,53.26c0.9,0.9,1.61,2.12,1.61,3.67c0,8.82,0.06,25.57,0.06,32.57" transform="matrix(1,0,0,1,1296,-4)" class="stroke_order_diagram--existing_path"></path><path id="pathSk2v596cn19nf" kvg:type="㇐b" d="M58.86,65.44c5.34-0.58,20-1.71,27.27-2.35c1.89-0.17,3.28-0.3,3.88-0.38" transform="matrix(1,0,0,1,1296,-4)" class="stroke_order_diagram--existing_path"></path><path id="kvg:078ba-s14" kvg:type="㇐b" d="M58.54,77.71c5.68-0.49,20.72-1.7,28.08-2.34c1.85-0.16,3.22-0.28,3.83-0.35" transform="matrix(1,0,0,1,1296,-4)" class="stroke_order_diagram--current_path"></path><path id="pathSk2v596cn19nh" kvg:type="㇐b" d="M58.54,77.71c5.68-0.49,20.72-1.7,28.08-2.34c1.85-0.16,3.22-0.28,3.83-0.35" transform="matrix(1,0,0,1,1296,-4)" class="stroke_order_diagram--current_path"></path><circle cx="58.54" cy="77.71" r="8" class="stroke_order_diagram--path_start" transform="matrix(1,0,0,1,1296,-4)"></circle><line x1="1450" x2="1450" y1="1" y2="99" class="stroke_order_diagram--guide_line"></line><line x1="1499" x2="1499" y1="1" y2="99" class="stroke_order_diagram--bounding_box"></line><path id="pathSk2v596cn19nk" kvg:type="㇐" d="M15.13,31.01c1.23,0.26,2.89,0.36,4.12,0.3C25,31,32.38,29.75,39.03,28.72c1.39-0.21,2.98-0.22,4.35-0.05" transform="matrix(1,0,0,1,1396,-4)" class="stroke_order_diagram--existing_path"></path><path id="pathSk2v596cn19nl" kvg:type="㇒" d="M26.06,33.43c0.19,0.95,0.11,1.64-0.07,2.98c-1.06,7.9-7.16,25.23-15.49,35.84" transform="matrix(1,0,0,1,1396,-4)" class="stroke_order_diagram--existing_path"></path><path id="pathSk2v596cn19nm" kvg:type="㇑" d="M21.5,56.04c0.79,0.79,1.41,1.87,1.51,2.96c0.49,5.44,1.37,11.88,2.01,17.63c0.17,1.51,0.32,2.98,0.44,4.37" transform="matrix(1,0,0,1,1396,-4)" class="stroke_order_diagram--existing_path"></path><path id="pathSk2v596cn19nn" kvg:type="㇕b" d="M23.98,57.62c5.4-1.29,10.53-2.17,14.04-2.74c2.79-0.46,4.54,0.71,3.9,4.03c-1.05,5.47-1.67,8.72-3.17,15.44" transform="matrix(1,0,0,1,1396,-4)" class="stroke_order_diagram--existing_path"></path><path id="pathSk2v596cn19no" kvg:type="㇐b" d="M26.38,77.5c3.65-0.46,6.91-1.03,11.13-1.61c1.08-0.15,2.22-0.3,3.44-0.44" transform="matrix(1,0,0,1,1396,-4)" class="stroke_order_diagram--existing_path"></path><path id="pathSk2v596cn19np" kvg:type="㇔" d="M51.88,27.62c0,3.48-2.66,13.05-3.88,15.38" transform="matrix(1,0,0,1,1396,-4)" class="stroke_order_diagram--existing_path"></path><path id="pathSk2v596cn19nq" kvg:type="㇖b" d="M52.99,29.72c9.88-1.22,30.88-3.99,37.53-4.35c10.38-0.55,2.85,6.25-0.39,9.2" transform="matrix(1,0,0,1,1396,-4)" class="stroke_order_diagram--existing_path"></path><path id="pathSk2v596cn19nr" kvg:type="㇒" d="M71.42,11.5c0.46,1.12,0.46,2.5,0.13,3.97C68.39,29.53,60.75,48.5,47.5,63.16" transform="matrix(1,0,0,1,1396,-4)" class="stroke_order_diagram--existing_path"></path><path id="pathSk2v596cn19ns" kvg:type="㇑" d="M56.4,54.04c0.72,0.72,1,1.97,1,3.09c0,8.19-0.01,24.35-0.02,34.12c0,3.38,0,6,0,7.25" transform="matrix(1,0,0,1,1396,-4)" class="stroke_order_diagram--existing_path"></path><path id="pathSk2v596cn19nt" kvg:type="㇒" d="M79.41,37c0.06,0.63-0.01,1.45-0.19,1.99c-1.15,3.43-2.6,6.08-5.22,10.26" transform="matrix(1,0,0,1,1396,-4)" class="stroke_order_diagram--existing_path"></path><path id="pathSk2v596cn19nu" kvg:type="㇐b" d="M57.58,52.23c6.07-0.47,21.81-1.83,29.93-2.64c2.31-0.23,4-0.41,4.67-0.52" transform="matrix(1,0,0,1,1396,-4)" class="stroke_order_diagram--existing_path"></path><path id="pathSk2v596cn19nv" kvg:type="㇑a" d="M73.81,53.26c0.9,0.9,1.61,2.12,1.61,3.67c0,8.82,0.06,25.57,0.06,32.57" transform="matrix(1,0,0,1,1396,-4)" class="stroke_order_diagram--existing_path"></path><path id="pathSk2v596cn19nw" kvg:type="㇐b" d="M58.86,65.44c5.34-0.58,20-1.71,27.27-2.35c1.89-0.17,3.28-0.3,3.88-0.38" transform="matrix(1,0,0,1,1396,-4)" class="stroke_order_diagram--existing_path"></path><path id="pathSk2v596cn19nx" kvg:type="㇐b" d="M58.54,77.71c5.68-0.49,20.72-1.7,28.08-2.34c1.85-0.16,3.22-0.28,3.83-0.35" transform="matrix(1,0,0,1,1396,-4)" class="stroke_order_diagram--existing_path"></path><path id="kvg:078ba-s15" kvg:type="㇐b" d="M58.47,91.39c6.78-0.26,23.29-0.96,32.78-1.6c2.66-0.18,4.58-0.33,5.25-0.43" transform="matrix(1,0,0,1,1396,-4)" class="stroke_order_diagram--current_path"></path><path id="pathSk2v596cn19nz" kvg:type="㇐b" d="M58.47,91.39c6.78-0.26,23.29-0.96,32.78-1.6c2.66-0.18,4.58-0.33,5.25-0.43" transform="matrix(1,0,0,1,1396,-4)" class="stroke_order_diagram--current_path"></path><circle cx="58.47" cy="91.39" r="8" class="stroke_order_diagram--path_start" transform="matrix(1,0,0,1,1396,-4)"></circle></svg>