<svg style="width: 1300px; height: 100px;" viewbox="0 0 1300 100"><style>
.stroke_order_diagram--outer_container {
  width: 100%;
  overflow-x: auto;
  overflow-y: hidden;
}

.stroke_order_diagram--guide_line {
  fill: none;
  stroke: #ddd;
  stroke-width: 3;
  stroke-linecap: square;
  stroke-linejoin: square;
  stroke-dasharray:8, 8;
}

.stroke_order_diagram--bounding_box {
  fill: none;
  stroke: #ddd;
  stroke-width: 4;
  stroke-linecap: square;
  stroke-linejoin: square;
}

.stroke_order_diagram--current_path {
  fill: none;
  stroke: #000;
  stroke-width: 6;
  stroke-linecap: round;
  stroke-linejoin: round;
}

.stroke_order_diagram--existing_path {
  fill: none;
  stroke: #aaa;
  stroke-width: 6;
  stroke-linecap: round;
  stroke-linejoin:round;
}

.stroke_order_diagram--path_start {
  fill: rgba(255, 0, 0, 0.7);
  stroke:none
}</style><desc>Created with Snap</desc><defs></defs><line x1="1" x2="1299" y1="1" y2="1" class="stroke_order_diagram--bounding_box"></line><line x1="1" x2="1" y1="1" y2="99" class="stroke_order_diagram--bounding_box"></line><line x1="1" x2="1299" y1="99" y2="99" class="stroke_order_diagram--bounding_box"></line><line x1="0" x2="1300" y1="50" y2="50" class="stroke_order_diagram--guide_line"></line><line x1="50" x2="50" y1="1" y2="99" class="stroke_order_diagram--guide_line"></line><line x1="99" x2="99" y1="1" y2="99" class="stroke_order_diagram--bounding_box"></line><path id="kvg:07981-s1" kvg:type="㇐" d="M17.66,26.85c0.7,0.17,2.82,0.4,4.69,0.25c6.56-0.52,13.28-1.6,20.36-2.47c1.86-0.23,3.28-0.27,4.45-0.09" transform="matrix(1,0,0,1,-4,-4)" class="stroke_order_diagram--current_path"></path><path id="pathSk2v596cn14fp" kvg:type="㇐" d="M17.66,26.85c0.7,0.17,2.82,0.4,4.69,0.25c6.56-0.52,13.28-1.6,20.36-2.47c1.86-0.23,3.28-0.27,4.45-0.09" transform="matrix(1,0,0,1,-4,-4)" class="stroke_order_diagram--current_path"></path><circle cx="17.66" cy="26.85" r="8" class="stroke_order_diagram--path_start" transform="matrix(1,0,0,1,-4,-4)"></circle><line x1="150" x2="150" y1="1" y2="99" class="stroke_order_diagram--guide_line"></line><line x1="199" x2="199" y1="1" y2="99" class="stroke_order_diagram--bounding_box"></line><path id="pathSk2v596cn14fs" kvg:type="㇐" d="M17.66,26.85c0.7,0.17,2.82,0.4,4.69,0.25c6.56-0.52,13.28-1.6,20.36-2.47c1.86-0.23,3.28-0.27,4.45-0.09" transform="matrix(1,0,0,1,96,-4)" class="stroke_order_diagram--existing_path"></path><path id="kvg:07981-s2" kvg:type="㇑" d="M34.57,13.38c0.9,0.9,1.36,2.12,1.36,3.24c0,6.41,0.01,20.05,0.01,28.01c0,2.14,0,3.87,0,4.94" transform="matrix(1,0,0,1,96,-4)" class="stroke_order_diagram--current_path"></path><path id="pathSk2v596cn14fu" kvg:type="㇑" d="M34.57,13.38c0.9,0.9,1.36,2.12,1.36,3.24c0,6.41,0.01,20.05,0.01,28.01c0,2.14,0,3.87,0,4.94" transform="matrix(1,0,0,1,96,-4)" class="stroke_order_diagram--current_path"></path><circle cx="34.57" cy="13.38" r="8" class="stroke_order_diagram--path_start" transform="matrix(1,0,0,1,96,-4)"></circle><line x1="250" x2="250" y1="1" y2="99" class="stroke_order_diagram--guide_line"></line><line x1="299" x2="299" y1="1" y2="99" class="stroke_order_diagram--bounding_box"></line><path id="pathSk2v596cn14fx" kvg:type="㇐" d="M17.66,26.85c0.7,0.17,2.82,0.4,4.69,0.25c6.56-0.52,13.28-1.6,20.36-2.47c1.86-0.23,3.28-0.27,4.45-0.09" transform="matrix(1,0,0,1,196,-4)" class="stroke_order_diagram--existing_path"></path><path id="pathSk2v596cn14fy" kvg:type="㇑" d="M34.57,13.38c0.9,0.9,1.36,2.12,1.36,3.24c0,6.41,0.01,20.05,0.01,28.01c0,2.14,0,3.87,0,4.94" transform="matrix(1,0,0,1,196,-4)" class="stroke_order_diagram--existing_path"></path><path id="kvg:07981-s3" kvg:type="㇒" d="M34.74,27.47c0,1.16-0.49,2.01-1.13,3.1c-3.85,6.46-11.04,14.52-16.62,18.74" transform="matrix(1,0,0,1,196,-4)" class="stroke_order_diagram--current_path"></path><path id="pathSk2v596cn14g0" kvg:type="㇒" d="M34.74,27.47c0,1.16-0.49,2.01-1.13,3.1c-3.85,6.46-11.04,14.52-16.62,18.74" transform="matrix(1,0,0,1,196,-4)" class="stroke_order_diagram--current_path"></path><circle cx="34.74" cy="27.47" r="8" class="stroke_order_diagram--path_start" transform="matrix(1,0,0,1,196,-4)"></circle><line x1="350" x2="350" y1="1" y2="99" class="stroke_order_diagram--guide_line"></line><line x1="399" x2="399" y1="1" y2="99" class="stroke_order_diagram--bounding_box"></line><path id="pathSk2v596cn14g3" kvg:type="㇐" d="M17.66,26.85c0.7,0.17,2.82,0.4,4.69,0.25c6.56-0.52,13.28-1.6,20.36-2.47c1.86-0.23,3.28-0.27,4.45-0.09" transform="matrix(1,0,0,1,296,-4)" class="stroke_order_diagram--existing_path"></path><path id="pathSk2v596cn14g4" kvg:type="㇑" d="M34.57,13.38c0.9,0.9,1.36,2.12,1.36,3.24c0,6.41,0.01,20.05,0.01,28.01c0,2.14,0,3.87,0,4.94" transform="matrix(1,0,0,1,296,-4)" class="stroke_order_diagram--existing_path"></path><path id="pathSk2v596cn14g5" kvg:type="㇒" d="M34.74,27.47c0,1.16-0.49,2.01-1.13,3.1c-3.85,6.46-11.04,14.52-16.62,18.74" transform="matrix(1,0,0,1,296,-4)" class="stroke_order_diagram--existing_path"></path><path id="kvg:07981-s4" kvg:type="㇔/㇏" d="M39.75,32.25c2.79,1.66,6.28,4.76,8.72,7.37" transform="matrix(1,0,0,1,296,-4)" class="stroke_order_diagram--current_path"></path><path id="pathSk2v596cn14g7" kvg:type="㇔/㇏" d="M39.75,32.25c2.79,1.66,6.28,4.76,8.72,7.37" transform="matrix(1,0,0,1,296,-4)" class="stroke_order_diagram--current_path"></path><circle cx="39.75" cy="32.25" r="8" class="stroke_order_diagram--path_start" transform="matrix(1,0,0,1,296,-4)"></circle><line x1="450" x2="450" y1="1" y2="99" class="stroke_order_diagram--guide_line"></line><line x1="499" x2="499" y1="1" y2="99" class="stroke_order_diagram--bounding_box"></line><path id="pathSk2v596cn14ga" kvg:type="㇐" d="M17.66,26.85c0.7,0.17,2.82,0.4,4.69,0.25c6.56-0.52,13.28-1.6,20.36-2.47c1.86-0.23,3.28-0.27,4.45-0.09" transform="matrix(1,0,0,1,396,-4)" class="stroke_order_diagram--existing_path"></path><path id="pathSk2v596cn14gb" kvg:type="㇑" d="M34.57,13.38c0.9,0.9,1.36,2.12,1.36,3.24c0,6.41,0.01,20.05,0.01,28.01c0,2.14,0,3.87,0,4.94" transform="matrix(1,0,0,1,396,-4)" class="stroke_order_diagram--existing_path"></path><path id="pathSk2v596cn14gc" kvg:type="㇒" d="M34.74,27.47c0,1.16-0.49,2.01-1.13,3.1c-3.85,6.46-11.04,14.52-16.62,18.74" transform="matrix(1,0,0,1,396,-4)" class="stroke_order_diagram--existing_path"></path><path id="pathSk2v596cn14gd" kvg:type="㇔/㇏" d="M39.75,32.25c2.79,1.66,6.28,4.76,8.72,7.37" transform="matrix(1,0,0,1,396,-4)" class="stroke_order_diagram--existing_path"></path><path id="kvg:07981-s5" kvg:type="㇐" d="M54.02,24.35c2.12,0.64,3.96,0.4,6.14,0.11c6.22-0.84,14.87-1.98,23.16-2.66c1.52-0.12,2.84-0.17,3.79,0" transform="matrix(1,0,0,1,396,-4)" class="stroke_order_diagram--current_path"></path><path id="pathSk2v596cn14gf" kvg:type="㇐" d="M54.02,24.35c2.12,0.64,3.96,0.4,6.14,0.11c6.22-0.84,14.87-1.98,23.16-2.66c1.52-0.12,2.84-0.17,3.79,0" transform="matrix(1,0,0,1,396,-4)" class="stroke_order_diagram--current_path"></path><circle cx="54.02" cy="24.35" r="8" class="stroke_order_diagram--path_start" transform="matrix(1,0,0,1,396,-4)"></circle><line x1="550" x2="550" y1="1" y2="99" class="stroke_order_diagram--guide_line"></line><line x1="599" x2="599" y1="1" y2="99" class="stroke_order_diagram--bounding_box"></line><path id="pathSk2v596cn14gi" kvg:type="㇐" d="M17.66,26.85c0.7,0.17,2.82,0.4,4.69,0.25c6.56-0.52,13.28-1.6,20.36-2.47c1.86-0.23,3.28-0.27,4.45-0.09" transform="matrix(1,0,0,1,496,-4)" class="stroke_order_diagram--existing_path"></path><path id="pathSk2v596cn14gj" kvg:type="㇑" d="M34.57,13.38c0.9,0.9,1.36,2.12,1.36,3.24c0,6.41,0.01,20.05,0.01,28.01c0,2.14,0,3.87,0,4.94" transform="matrix(1,0,0,1,496,-4)" class="stroke_order_diagram--existing_path"></path><path id="pathSk2v596cn14gk" kvg:type="㇒" d="M34.74,27.47c0,1.16-0.49,2.01-1.13,3.1c-3.85,6.46-11.04,14.52-16.62,18.74" transform="matrix(1,0,0,1,496,-4)" class="stroke_order_diagram--existing_path"></path><path id="pathSk2v596cn14gl" kvg:type="㇔/㇏" d="M39.75,32.25c2.79,1.66,6.28,4.76,8.72,7.37" transform="matrix(1,0,0,1,496,-4)" class="stroke_order_diagram--existing_path"></path><path id="pathSk2v596cn14gm" kvg:type="㇐" d="M54.02,24.35c2.12,0.64,3.96,0.4,6.14,0.11c6.22-0.84,14.87-1.98,23.16-2.66c1.52-0.12,2.84-0.17,3.79,0" transform="matrix(1,0,0,1,496,-4)" class="stroke_order_diagram--existing_path"></path><path id="kvg:07981-s6" kvg:type="㇑" d="M68.56,10.5c0.97,0.97,1.61,2.38,1.61,3.74c0,4.4,0,20.66-0.12,29.26c-0.03,2.19-0.07,3.88-0.12,4.75" transform="matrix(1,0,0,1,496,-4)" class="stroke_order_diagram--current_path"></path><path id="pathSk2v596cn14go" kvg:type="㇑" d="M68.56,10.5c0.97,0.97,1.61,2.38,1.61,3.74c0,4.4,0,20.66-0.12,29.26c-0.03,2.19-0.07,3.88-0.12,4.75" transform="matrix(1,0,0,1,496,-4)" class="stroke_order_diagram--current_path"></path><circle cx="68.56" cy="10.5" r="8" class="stroke_order_diagram--path_start" transform="matrix(1,0,0,1,496,-4)"></circle><line x1="650" x2="650" y1="1" y2="99" class="stroke_order_diagram--guide_line"></line><line x1="699" x2="699" y1="1" y2="99" class="stroke_order_diagram--bounding_box"></line><path id="pathSk2v596cn14gr" kvg:type="㇐" d="M17.66,26.85c0.7,0.17,2.82,0.4,4.69,0.25c6.56-0.52,13.28-1.6,20.36-2.47c1.86-0.23,3.28-0.27,4.45-0.09" transform="matrix(1,0,0,1,596,-4)" class="stroke_order_diagram--existing_path"></path><path id="pathSk2v596cn14gs" kvg:type="㇑" d="M34.57,13.38c0.9,0.9,1.36,2.12,1.36,3.24c0,6.41,0.01,20.05,0.01,28.01c0,2.14,0,3.87,0,4.94" transform="matrix(1,0,0,1,596,-4)" class="stroke_order_diagram--existing_path"></path><path id="pathSk2v596cn14gt" kvg:type="㇒" d="M34.74,27.47c0,1.16-0.49,2.01-1.13,3.1c-3.85,6.46-11.04,14.52-16.62,18.74" transform="matrix(1,0,0,1,596,-4)" class="stroke_order_diagram--existing_path"></path><path id="pathSk2v596cn14gu" kvg:type="㇔/㇏" d="M39.75,32.25c2.79,1.66,6.28,4.76,8.72,7.37" transform="matrix(1,0,0,1,596,-4)" class="stroke_order_diagram--existing_path"></path><path id="pathSk2v596cn14gv" kvg:type="㇐" d="M54.02,24.35c2.12,0.64,3.96,0.4,6.14,0.11c6.22-0.84,14.87-1.98,23.16-2.66c1.52-0.12,2.84-0.17,3.79,0" transform="matrix(1,0,0,1,596,-4)" class="stroke_order_diagram--existing_path"></path><path id="pathSk2v596cn14gw" kvg:type="㇑" d="M68.56,10.5c0.97,0.97,1.61,2.38,1.61,3.74c0,4.4,0,20.66-0.12,29.26c-0.03,2.19-0.07,3.88-0.12,4.75" transform="matrix(1,0,0,1,596,-4)" class="stroke_order_diagram--existing_path"></path><path id="kvg:07981-s7" kvg:type="㇒" d="M68.99,24.9c0,0.97-0.66,2.13-1.13,3.03c-3.3,6.42-10.83,15.35-17.72,20.96" transform="matrix(1,0,0,1,596,-4)" class="stroke_order_diagram--current_path"></path><path id="pathSk2v596cn14gy" kvg:type="㇒" d="M68.99,24.9c0,0.97-0.66,2.13-1.13,3.03c-3.3,6.42-10.83,15.35-17.72,20.96" transform="matrix(1,0,0,1,596,-4)" class="stroke_order_diagram--current_path"></path><circle cx="68.99" cy="24.9" r="8" class="stroke_order_diagram--path_start" transform="matrix(1,0,0,1,596,-4)"></circle><line x1="750" x2="750" y1="1" y2="99" class="stroke_order_diagram--guide_line"></line><line x1="799" x2="799" y1="1" y2="99" class="stroke_order_diagram--bounding_box"></line><path id="pathSk2v596cn14h1" kvg:type="㇐" d="M17.66,26.85c0.7,0.17,2.82,0.4,4.69,0.25c6.56-0.52,13.28-1.6,20.36-2.47c1.86-0.23,3.28-0.27,4.45-0.09" transform="matrix(1,0,0,1,696,-4)" class="stroke_order_diagram--existing_path"></path><path id="pathSk2v596cn14h2" kvg:type="㇑" d="M34.57,13.38c0.9,0.9,1.36,2.12,1.36,3.24c0,6.41,0.01,20.05,0.01,28.01c0,2.14,0,3.87,0,4.94" transform="matrix(1,0,0,1,696,-4)" class="stroke_order_diagram--existing_path"></path><path id="pathSk2v596cn14h3" kvg:type="㇒" d="M34.74,27.47c0,1.16-0.49,2.01-1.13,3.1c-3.85,6.46-11.04,14.52-16.62,18.74" transform="matrix(1,0,0,1,696,-4)" class="stroke_order_diagram--existing_path"></path><path id="pathSk2v596cn14h4" kvg:type="㇔/㇏" d="M39.75,32.25c2.79,1.66,6.28,4.76,8.72,7.37" transform="matrix(1,0,0,1,696,-4)" class="stroke_order_diagram--existing_path"></path><path id="pathSk2v596cn14h5" kvg:type="㇐" d="M54.02,24.35c2.12,0.64,3.96,0.4,6.14,0.11c6.22-0.84,14.87-1.98,23.16-2.66c1.52-0.12,2.84-0.17,3.79,0" transform="matrix(1,0,0,1,696,-4)" class="stroke_order_diagram--existing_path"></path><path id="pathSk2v596cn14h6" kvg:type="㇑" d="M68.56,10.5c0.97,0.97,1.61,2.38,1.61,3.74c0,4.4,0,20.66-0.12,29.26c-0.03,2.19-0.07,3.88-0.12,4.75" transform="matrix(1,0,0,1,696,-4)" class="stroke_order_diagram--existing_path"></path><path id="pathSk2v596cn14h7" kvg:type="㇒" d="M68.99,24.9c0,0.97-0.66,2.13-1.13,3.03c-3.3,6.42-10.83,15.35-17.72,20.96" transform="matrix(1,0,0,1,696,-4)" class="stroke_order_diagram--existing_path"></path><path id="kvg:07981-s8" kvg:type="㇏" d="M70.59,26.41c6.04,5.78,12.73,12.17,17.6,16.07c1.65,1.32,3.35,2.65,5.35,3.43" transform="matrix(1,0,0,1,696,-4)" class="stroke_order_diagram--current_path"></path><path id="pathSk2v596cn14h9" kvg:type="㇏" d="M70.59,26.41c6.04,5.78,12.73,12.17,17.6,16.07c1.65,1.32,3.35,2.65,5.35,3.43" transform="matrix(1,0,0,1,696,-4)" class="stroke_order_diagram--current_path"></path><circle cx="70.59" cy="26.41" r="8" class="stroke_order_diagram--path_start" transform="matrix(1,0,0,1,696,-4)"></circle><line x1="850" x2="850" y1="1" y2="99" class="stroke_order_diagram--guide_line"></line><line x1="899" x2="899" y1="1" y2="99" class="stroke_order_diagram--bounding_box"></line><path id="pathSk2v596cn14hc" kvg:type="㇐" d="M17.66,26.85c0.7,0.17,2.82,0.4,4.69,0.25c6.56-0.52,13.28-1.6,20.36-2.47c1.86-0.23,3.28-0.27,4.45-0.09" transform="matrix(1,0,0,1,796,-4)" class="stroke_order_diagram--existing_path"></path><path id="pathSk2v596cn14hd" kvg:type="㇑" d="M34.57,13.38c0.9,0.9,1.36,2.12,1.36,3.24c0,6.41,0.01,20.05,0.01,28.01c0,2.14,0,3.87,0,4.94" transform="matrix(1,0,0,1,796,-4)" class="stroke_order_diagram--existing_path"></path><path id="pathSk2v596cn14he" kvg:type="㇒" d="M34.74,27.47c0,1.16-0.49,2.01-1.13,3.1c-3.85,6.46-11.04,14.52-16.62,18.74" transform="matrix(1,0,0,1,796,-4)" class="stroke_order_diagram--existing_path"></path><path id="pathSk2v596cn14hf" kvg:type="㇔/㇏" d="M39.75,32.25c2.79,1.66,6.28,4.76,8.72,7.37" transform="matrix(1,0,0,1,796,-4)" class="stroke_order_diagram--existing_path"></path><path id="pathSk2v596cn14hg" kvg:type="㇐" d="M54.02,24.35c2.12,0.64,3.96,0.4,6.14,0.11c6.22-0.84,14.87-1.98,23.16-2.66c1.52-0.12,2.84-0.17,3.79,0" transform="matrix(1,0,0,1,796,-4)" class="stroke_order_diagram--existing_path"></path><path id="pathSk2v596cn14hh" kvg:type="㇑" d="M68.56,10.5c0.97,0.97,1.61,2.38,1.61,3.74c0,4.4,0,20.66-0.12,29.26c-0.03,2.19-0.07,3.88-0.12,4.75" transform="matrix(1,0,0,1,796,-4)" class="stroke_order_diagram--existing_path"></path><path id="pathSk2v596cn14hi" kvg:type="㇒" d="M68.99,24.9c0,0.97-0.66,2.13-1.13,3.03c-3.3,6.42-10.83,15.35-17.72,20.96" transform="matrix(1,0,0,1,796,-4)" class="stroke_order_diagram--existing_path"></path><path id="pathSk2v596cn14hj" kvg:type="㇏" d="M70.59,26.41c6.04,5.78,12.73,12.17,17.6,16.07c1.65,1.32,3.35,2.65,5.35,3.43" transform="matrix(1,0,0,1,796,-4)" class="stroke_order_diagram--existing_path"></path><path id="kvg:07981-s9" kvg:type="㇐" d="M37.78,55.56c1.84,0.44,3.87,0.26,5.72,0.06c5.35-0.58,13.67-1.58,18.88-1.87c1.72-0.1,3.42-0.14,5.11,0.23" transform="matrix(1,0,0,1,796,-4)" class="stroke_order_diagram--current_path"></path><path id="pathSk2v596cn14hl" kvg:type="㇐" d="M37.78,55.56c1.84,0.44,3.87,0.26,5.72,0.06c5.35-0.58,13.67-1.58,18.88-1.87c1.72-0.1,3.42-0.14,5.11,0.23" transform="matrix(1,0,0,1,796,-4)" class="stroke_order_diagram--current_path"></path><circle cx="37.78" cy="55.56" r="8" class="stroke_order_diagram--path_start" transform="matrix(1,0,0,1,796,-4)"></circle><line x1="950" x2="950" y1="1" y2="99" class="stroke_order_diagram--guide_line"></line><line x1="999" x2="999" y1="1" y2="99" class="stroke_order_diagram--bounding_box"></line><path id="pathSk2v596cn14ho" kvg:type="㇐" d="M17.66,26.85c0.7,0.17,2.82,0.4,4.69,0.25c6.56-0.52,13.28-1.6,20.36-2.47c1.86-0.23,3.28-0.27,4.45-0.09" transform="matrix(1,0,0,1,896,-4)" class="stroke_order_diagram--existing_path"></path><path id="pathSk2v596cn14hp" kvg:type="㇑" d="M34.57,13.38c0.9,0.9,1.36,2.12,1.36,3.24c0,6.41,0.01,20.05,0.01,28.01c0,2.14,0,3.87,0,4.94" transform="matrix(1,0,0,1,896,-4)" class="stroke_order_diagram--existing_path"></path><path id="pathSk2v596cn14hq" kvg:type="㇒" d="M34.74,27.47c0,1.16-0.49,2.01-1.13,3.1c-3.85,6.46-11.04,14.52-16.62,18.74" transform="matrix(1,0,0,1,896,-4)" class="stroke_order_diagram--existing_path"></path><path id="pathSk2v596cn14hr" kvg:type="㇔/㇏" d="M39.75,32.25c2.79,1.66,6.28,4.76,8.72,7.37" transform="matrix(1,0,0,1,896,-4)" class="stroke_order_diagram--existing_path"></path><path id="pathSk2v596cn14hs" kvg:type="㇐" d="M54.02,24.35c2.12,0.64,3.96,0.4,6.14,0.11c6.22-0.84,14.87-1.98,23.16-2.66c1.52-0.12,2.84-0.17,3.79,0" transform="matrix(1,0,0,1,896,-4)" class="stroke_order_diagram--existing_path"></path><path id="pathSk2v596cn14ht" kvg:type="㇑" d="M68.56,10.5c0.97,0.97,1.61,2.38,1.61,3.74c0,4.4,0,20.66-0.12,29.26c-0.03,2.19-0.07,3.88-0.12,4.75" transform="matrix(1,0,0,1,896,-4)" class="stroke_order_diagram--existing_path"></path><path id="pathSk2v596cn14hu" kvg:type="㇒" d="M68.99,24.9c0,0.97-0.66,2.13-1.13,3.03c-3.3,6.42-10.83,15.35-17.72,20.96" transform="matrix(1,0,0,1,896,-4)" class="stroke_order_diagram--existing_path"></path><path id="pathSk2v596cn14hv" kvg:type="㇏" d="M70.59,26.41c6.04,5.78,12.73,12.17,17.6,16.07c1.65,1.32,3.35,2.65,5.35,3.43" transform="matrix(1,0,0,1,896,-4)" class="stroke_order_diagram--existing_path"></path><path id="pathSk2v596cn14hw" kvg:type="㇐" d="M37.78,55.56c1.84,0.44,3.87,0.26,5.72,0.06c5.35-0.58,13.67-1.58,18.88-1.87c1.72-0.1,3.42-0.14,5.11,0.23" transform="matrix(1,0,0,1,896,-4)" class="stroke_order_diagram--existing_path"></path><path id="kvg:07981-s10" kvg:type="㇐" d="M19.28,68.91c3.22,0.71,7.38,0.52,10.71,0.19c12.5-1.23,34.67-3.03,49.89-3.66c3.29-0.13,6.58-0.34,9.83,0.28" transform="matrix(1,0,0,1,896,-4)" class="stroke_order_diagram--current_path"></path><path id="pathSk2v596cn14hy" kvg:type="㇐" d="M19.28,68.91c3.22,0.71,7.38,0.52,10.71,0.19c12.5-1.23,34.67-3.03,49.89-3.66c3.29-0.13,6.58-0.34,9.83,0.28" transform="matrix(1,0,0,1,896,-4)" class="stroke_order_diagram--current_path"></path><circle cx="19.28" cy="68.91" r="8" class="stroke_order_diagram--path_start" transform="matrix(1,0,0,1,896,-4)"></circle><line x1="1050" x2="1050" y1="1" y2="99" class="stroke_order_diagram--guide_line"></line><line x1="1099" x2="1099" y1="1" y2="99" class="stroke_order_diagram--bounding_box"></line><path id="pathSk2v596cn14i1" kvg:type="㇐" d="M17.66,26.85c0.7,0.17,2.82,0.4,4.69,0.25c6.56-0.52,13.28-1.6,20.36-2.47c1.86-0.23,3.28-0.27,4.45-0.09" transform="matrix(1,0,0,1,996,-4)" class="stroke_order_diagram--existing_path"></path><path id="pathSk2v596cn14i2" kvg:type="㇑" d="M34.57,13.38c0.9,0.9,1.36,2.12,1.36,3.24c0,6.41,0.01,20.05,0.01,28.01c0,2.14,0,3.87,0,4.94" transform="matrix(1,0,0,1,996,-4)" class="stroke_order_diagram--existing_path"></path><path id="pathSk2v596cn14i3" kvg:type="㇒" d="M34.74,27.47c0,1.16-0.49,2.01-1.13,3.1c-3.85,6.46-11.04,14.52-16.62,18.74" transform="matrix(1,0,0,1,996,-4)" class="stroke_order_diagram--existing_path"></path><path id="pathSk2v596cn14i4" kvg:type="㇔/㇏" d="M39.75,32.25c2.79,1.66,6.28,4.76,8.72,7.37" transform="matrix(1,0,0,1,996,-4)" class="stroke_order_diagram--existing_path"></path><path id="pathSk2v596cn14i5" kvg:type="㇐" d="M54.02,24.35c2.12,0.64,3.96,0.4,6.14,0.11c6.22-0.84,14.87-1.98,23.16-2.66c1.52-0.12,2.84-0.17,3.79,0" transform="matrix(1,0,0,1,996,-4)" class="stroke_order_diagram--existing_path"></path><path id="pathSk2v596cn14i6" kvg:type="㇑" d="M68.56,10.5c0.97,0.97,1.61,2.38,1.61,3.74c0,4.4,0,20.66-0.12,29.26c-0.03,2.19-0.07,3.88-0.12,4.75" transform="matrix(1,0,0,1,996,-4)" class="stroke_order_diagram--existing_path"></path><path id="pathSk2v596cn14i7" kvg:type="㇒" d="M68.99,24.9c0,0.97-0.66,2.13-1.13,3.03c-3.3,6.42-10.83,15.35-17.72,20.96" transform="matrix(1,0,0,1,996,-4)" class="stroke_order_diagram--existing_path"></path><path id="pathSk2v596cn14i8" kvg:type="㇏" d="M70.59,26.41c6.04,5.78,12.73,12.17,17.6,16.07c1.65,1.32,3.35,2.65,5.35,3.43" transform="matrix(1,0,0,1,996,-4)" class="stroke_order_diagram--existing_path"></path><path id="pathSk2v596cn14i9" kvg:type="㇐" d="M37.78,55.56c1.84,0.44,3.87,0.26,5.72,0.06c5.35-0.58,13.67-1.58,18.88-1.87c1.72-0.1,3.42-0.14,5.11,0.23" transform="matrix(1,0,0,1,996,-4)" class="stroke_order_diagram--existing_path"></path><path id="pathSk2v596cn14ia" kvg:type="㇐" d="M19.28,68.91c3.22,0.71,7.38,0.52,10.71,0.19c12.5-1.23,34.67-3.03,49.89-3.66c3.29-0.13,6.58-0.34,9.83,0.28" transform="matrix(1,0,0,1,996,-4)" class="stroke_order_diagram--existing_path"></path><path id="kvg:07981-s11" kvg:type="㇑" d="M53.52,69.69c1.02,1.02,1.51,2.43,1.51,4.2c0,7.11-0.01,14.21-0.01,18.65c0,9.45-3.77,4.39-7.96,1.22" transform="matrix(1,0,0,1,996,-4)" class="stroke_order_diagram--current_path"></path><path id="pathSk2v596cn14ic" kvg:type="㇑" d="M53.52,69.69c1.02,1.02,1.51,2.43,1.51,4.2c0,7.11-0.01,14.21-0.01,18.65c0,9.45-3.77,4.39-7.96,1.22" transform="matrix(1,0,0,1,996,-4)" class="stroke_order_diagram--current_path"></path><circle cx="53.52" cy="69.69" r="8" class="stroke_order_diagram--path_start" transform="matrix(1,0,0,1,996,-4)"></circle><line x1="1150" x2="1150" y1="1" y2="99" class="stroke_order_diagram--guide_line"></line><line x1="1199" x2="1199" y1="1" y2="99" class="stroke_order_diagram--bounding_box"></line><path id="pathSk2v596cn14if" kvg:type="㇐" d="M17.66,26.85c0.7,0.17,2.82,0.4,4.69,0.25c6.56-0.52,13.28-1.6,20.36-2.47c1.86-0.23,3.28-0.27,4.45-0.09" transform="matrix(1,0,0,1,1096,-4)" class="stroke_order_diagram--existing_path"></path><path id="pathSk2v596cn14ig" kvg:type="㇑" d="M34.57,13.38c0.9,0.9,1.36,2.12,1.36,3.24c0,6.41,0.01,20.05,0.01,28.01c0,2.14,0,3.87,0,4.94" transform="matrix(1,0,0,1,1096,-4)" class="stroke_order_diagram--existing_path"></path><path id="pathSk2v596cn14ih" kvg:type="㇒" d="M34.74,27.47c0,1.16-0.49,2.01-1.13,3.1c-3.85,6.46-11.04,14.52-16.62,18.74" transform="matrix(1,0,0,1,1096,-4)" class="stroke_order_diagram--existing_path"></path><path id="pathSk2v596cn14ii" kvg:type="㇔/㇏" d="M39.75,32.25c2.79,1.66,6.28,4.76,8.72,7.37" transform="matrix(1,0,0,1,1096,-4)" class="stroke_order_diagram--existing_path"></path><path id="pathSk2v596cn14ij" kvg:type="㇐" d="M54.02,24.35c2.12,0.64,3.96,0.4,6.14,0.11c6.22-0.84,14.87-1.98,23.16-2.66c1.52-0.12,2.84-0.17,3.79,0" transform="matrix(1,0,0,1,1096,-4)" class="stroke_order_diagram--existing_path"></path><path id="pathSk2v596cn14ik" kvg:type="㇑" d="M68.56,10.5c0.97,0.97,1.61,2.38,1.61,3.74c0,4.4,0,20.66-0.12,29.26c-0.03,2.19-0.07,3.88-0.12,4.75" transform="matrix(1,0,0,1,1096,-4)" class="stroke_order_diagram--existing_path"></path><path id="pathSk2v596cn14il" kvg:type="㇒" d="M68.99,24.9c0,0.97-0.66,2.13-1.13,3.03c-3.3,6.42-10.83,15.35-17.72,20.96" transform="matrix(1,0,0,1,1096,-4)" class="stroke_order_diagram--existing_path"></path><path id="pathSk2v596cn14im" kvg:type="㇏" d="M70.59,26.41c6.04,5.78,12.73,12.17,17.6,16.07c1.65,1.32,3.35,2.65,5.35,3.43" transform="matrix(1,0,0,1,1096,-4)" class="stroke_order_diagram--existing_path"></path><path id="pathSk2v596cn14in" kvg:type="㇐" d="M37.78,55.56c1.84,0.44,3.87,0.26,5.72,0.06c5.35-0.58,13.67-1.58,18.88-1.87c1.72-0.1,3.42-0.14,5.11,0.23" transform="matrix(1,0,0,1,1096,-4)" class="stroke_order_diagram--existing_path"></path><path id="pathSk2v596cn14io" kvg:type="㇐" d="M19.28,68.91c3.22,0.71,7.38,0.52,10.71,0.19c12.5-1.23,34.67-3.03,49.89-3.66c3.29-0.13,6.58-0.34,9.83,0.28" transform="matrix(1,0,0,1,1096,-4)" class="stroke_order_diagram--existing_path"></path><path id="pathSk2v596cn14ip" kvg:type="㇑" d="M53.52,69.69c1.02,1.02,1.51,2.43,1.51,4.2c0,7.11-0.01,14.21-0.01,18.65c0,9.45-3.77,4.39-7.96,1.22" transform="matrix(1,0,0,1,1096,-4)" class="stroke_order_diagram--existing_path"></path><path id="kvg:07981-s12" kvg:type="㇒" d="M33.27,77.85c0.13,1.06,0,2.09-0.57,2.99C30,85.12,25,89.75,18.5,94.99" transform="matrix(1,0,0,1,1096,-4)" class="stroke_order_diagram--current_path"></path><path id="pathSk2v596cn14ir" kvg:type="㇒" d="M33.27,77.85c0.13,1.06,0,2.09-0.57,2.99C30,85.12,25,89.75,18.5,94.99" transform="matrix(1,0,0,1,1096,-4)" class="stroke_order_diagram--current_path"></path><circle cx="33.27" cy="77.85" r="8" class="stroke_order_diagram--path_start" transform="matrix(1,0,0,1,1096,-4)"></circle><line x1="1250" x2="1250" y1="1" y2="99" class="stroke_order_diagram--guide_line"></line><line x1="1299" x2="1299" y1="1" y2="99" class="stroke_order_diagram--bounding_box"></line><path id="pathSk2v596cn14iu" kvg:type="㇐" d="M17.66,26.85c0.7,0.17,2.82,0.4,4.69,0.25c6.56-0.52,13.28-1.6,20.36-2.47c1.86-0.23,3.28-0.27,4.45-0.09" transform="matrix(1,0,0,1,1196,-4)" class="stroke_order_diagram--existing_path"></path><path id="pathSk2v596cn14iv" kvg:type="㇑" d="M34.57,13.38c0.9,0.9,1.36,2.12,1.36,3.24c0,6.41,0.01,20.05,0.01,28.01c0,2.14,0,3.87,0,4.94" transform="matrix(1,0,0,1,1196,-4)" class="stroke_order_diagram--existing_path"></path><path id="pathSk2v596cn14iw" kvg:type="㇒" d="M34.74,27.47c0,1.16-0.49,2.01-1.13,3.1c-3.85,6.46-11.04,14.52-16.62,18.74" transform="matrix(1,0,0,1,1196,-4)" class="stroke_order_diagram--existing_path"></path><path id="pathSk2v596cn14ix" kvg:type="㇔/㇏" d="M39.75,32.25c2.79,1.66,6.28,4.76,8.72,7.37" transform="matrix(1,0,0,1,1196,-4)" class="stroke_order_diagram--existing_path"></path><path id="pathSk2v596cn14iy" kvg:type="㇐" d="M54.02,24.35c2.12,0.64,3.96,0.4,6.14,0.11c6.22-0.84,14.87-1.98,23.16-2.66c1.52-0.12,2.84-0.17,3.79,0" transform="matrix(1,0,0,1,1196,-4)" class="stroke_order_diagram--existing_path"></path><path id="pathSk2v596cn14iz" kvg:type="㇑" d="M68.56,10.5c0.97,0.97,1.61,2.38,1.61,3.74c0,4.4,0,20.66-0.12,29.26c-0.03,2.19-0.07,3.88-0.12,4.75" transform="matrix(1,0,0,1,1196,-4)" class="stroke_order_diagram--existing_path"></path><path id="pathSk2v596cn14j0" kvg:type="㇒" d="M68.99,24.9c0,0.97-0.66,2.13-1.13,3.03c-3.3,6.42-10.83,15.35-17.72,20.96" transform="matrix(1,0,0,1,1196,-4)" class="stroke_order_diagram--existing_path"></path><path id="pathSk2v596cn14j1" kvg:type="㇏" d="M70.59,26.41c6.04,5.78,12.73,12.17,17.6,16.07c1.65,1.32,3.35,2.65,5.35,3.43" transform="matrix(1,0,0,1,1196,-4)" class="stroke_order_diagram--existing_path"></path><path id="pathSk2v596cn14j2" kvg:type="㇐" d="M37.78,55.56c1.84,0.44,3.87,0.26,5.72,0.06c5.35-0.58,13.67-1.58,18.88-1.87c1.72-0.1,3.42-0.14,5.11,0.23" transform="matrix(1,0,0,1,1196,-4)" class="stroke_order_diagram--existing_path"></path><path id="pathSk2v596cn14j3" kvg:type="㇐" d="M19.28,68.91c3.22,0.71,7.38,0.52,10.71,0.19c12.5-1.23,34.67-3.03,49.89-3.66c3.29-0.13,6.58-0.34,9.83,0.28" transform="matrix(1,0,0,1,1196,-4)" class="stroke_order_diagram--existing_path"></path><path id="pathSk2v596cn14j4" kvg:type="㇑" d="M53.52,69.69c1.02,1.02,1.51,2.43,1.51,4.2c0,7.11-0.01,14.21-0.01,18.65c0,9.45-3.77,4.39-7.96,1.22" transform="matrix(1,0,0,1,1196,-4)" class="stroke_order_diagram--existing_path"></path><path id="pathSk2v596cn14j5" kvg:type="㇒" d="M33.27,77.85c0.13,1.06,0,2.09-0.57,2.99C30,85.12,25,89.75,18.5,94.99" transform="matrix(1,0,0,1,1196,-4)" class="stroke_order_diagram--existing_path"></path><path id="kvg:07981-s13" kvg:type="㇔" d="M72.5,78.1c4.42,2.76,11.64,11.03,12.75,15.33" transform="matrix(1,0,0,1,1196,-4)" class="stroke_order_diagram--current_path"></path><path id="pathSk2v596cn14j7" kvg:type="㇔" d="M72.5,78.1c4.42,2.76,11.64,11.03,12.75,15.33" transform="matrix(1,0,0,1,1196,-4)" class="stroke_order_diagram--current_path"></path><circle cx="72.5" cy="78.1" r="8" class="stroke_order_diagram--path_start" transform="matrix(1,0,0,1,1196,-4)"></circle></svg>