<svg style="width: 1000px; height: 100px;" viewbox="0 0 1000 100"><style>
.stroke_order_diagram--outer_container {
  width: 100%;
  overflow-x: auto;
  overflow-y: hidden;
}

.stroke_order_diagram--guide_line {
  fill: none;
  stroke: #ddd;
  stroke-width: 3;
  stroke-linecap: square;
  stroke-linejoin: square;
  stroke-dasharray:8, 8;
}

.stroke_order_diagram--bounding_box {
  fill: none;
  stroke: #ddd;
  stroke-width: 4;
  stroke-linecap: square;
  stroke-linejoin: square;
}

.stroke_order_diagram--current_path {
  fill: none;
  stroke: #000;
  stroke-width: 6;
  stroke-linecap: round;
  stroke-linejoin: round;
}

.stroke_order_diagram--existing_path {
  fill: none;
  stroke: #aaa;
  stroke-width: 6;
  stroke-linecap: round;
  stroke-linejoin:round;
}

.stroke_order_diagram--path_start {
  fill: rgba(255, 0, 0, 0.7);
  stroke:none
}</style><desc>Created with Snap</desc><defs></defs><line x1="1" x2="999" y1="1" y2="1" class="stroke_order_diagram--bounding_box"></line><line x1="1" x2="1" y1="1" y2="99" class="stroke_order_diagram--bounding_box"></line><line x1="1" x2="999" y1="99" y2="99" class="stroke_order_diagram--bounding_box"></line><line x1="0" x2="1000" y1="50" y2="50" class="stroke_order_diagram--guide_line"></line><line x1="50" x2="50" y1="1" y2="99" class="stroke_order_diagram--guide_line"></line><line x1="99" x2="99" y1="1" y2="99" class="stroke_order_diagram--bounding_box"></line><path id="kvg:079d8-s1" kvg:type="㇒" d="M40.25,15c0,0.75-0.5,1.82-1.25,2.48c-4.25,3.77-11.25,8.27-23.5,14.02" transform="matrix(1,0,0,1,-4,-4)" class="stroke_order_diagram--current_path"></path><path id="pathSk2v596cn2ahh" kvg:type="㇒" d="M40.25,15c0,0.75-0.5,1.82-1.25,2.48c-4.25,3.77-11.25,8.27-23.5,14.02" transform="matrix(1,0,0,1,-4,-4)" class="stroke_order_diagram--current_path"></path><circle cx="40.25" cy="15" r="8" class="stroke_order_diagram--path_start" transform="matrix(1,0,0,1,-4,-4)"></circle><line x1="150" x2="150" y1="1" y2="99" class="stroke_order_diagram--guide_line"></line><line x1="199" x2="199" y1="1" y2="99" class="stroke_order_diagram--bounding_box"></line><path id="pathSk2v596cn2ahk" kvg:type="㇒" d="M40.25,15c0,0.75-0.5,1.82-1.25,2.48c-4.25,3.77-11.25,8.27-23.5,14.02" transform="matrix(1,0,0,1,96,-4)" class="stroke_order_diagram--existing_path"></path><path id="kvg:079d8-s2" kvg:type="㇐" d="M13.12,45.1c2.51,0.28,3.96,0.29,5.86-0.01c6.24-1,18.56-3.66,24.8-4.75c1.02-0.18,2.23-0.34,3.46-0.26" transform="matrix(1,0,0,1,96,-4)" class="stroke_order_diagram--current_path"></path><path id="pathSk2v596cn2ahm" kvg:type="㇐" d="M13.12,45.1c2.51,0.28,3.96,0.29,5.86-0.01c6.24-1,18.56-3.66,24.8-4.75c1.02-0.18,2.23-0.34,3.46-0.26" transform="matrix(1,0,0,1,96,-4)" class="stroke_order_diagram--current_path"></path><circle cx="13.12" cy="45.1" r="8" class="stroke_order_diagram--path_start" transform="matrix(1,0,0,1,96,-4)"></circle><line x1="250" x2="250" y1="1" y2="99" class="stroke_order_diagram--guide_line"></line><line x1="299" x2="299" y1="1" y2="99" class="stroke_order_diagram--bounding_box"></line><path id="pathSk2v596cn2ahp" kvg:type="㇒" d="M40.25,15c0,0.75-0.5,1.82-1.25,2.48c-4.25,3.77-11.25,8.27-23.5,14.02" transform="matrix(1,0,0,1,196,-4)" class="stroke_order_diagram--existing_path"></path><path id="pathSk2v596cn2ahq" kvg:type="㇐" d="M13.12,45.1c2.51,0.28,3.96,0.29,5.86-0.01c6.24-1,18.56-3.66,24.8-4.75c1.02-0.18,2.23-0.34,3.46-0.26" transform="matrix(1,0,0,1,196,-4)" class="stroke_order_diagram--existing_path"></path><path id="kvg:079d8-s3" kvg:type="㇑" d="M32.83,27.16c1.2,1.2,1.41,2.84,1.41,4.69c0,4.26,0,38.49-0.04,55.15c-0.01,4.45-0.02,7.66-0.04,8.75" transform="matrix(1,0,0,1,196,-4)" class="stroke_order_diagram--current_path"></path><path id="pathSk2v596cn2ahs" kvg:type="㇑" d="M32.83,27.16c1.2,1.2,1.41,2.84,1.41,4.69c0,4.26,0,38.49-0.04,55.15c-0.01,4.45-0.02,7.66-0.04,8.75" transform="matrix(1,0,0,1,196,-4)" class="stroke_order_diagram--current_path"></path><circle cx="32.83" cy="27.16" r="8" class="stroke_order_diagram--path_start" transform="matrix(1,0,0,1,196,-4)"></circle><line x1="350" x2="350" y1="1" y2="99" class="stroke_order_diagram--guide_line"></line><line x1="399" x2="399" y1="1" y2="99" class="stroke_order_diagram--bounding_box"></line><path id="pathSk2v596cn2ahv" kvg:type="㇒" d="M40.25,15c0,0.75-0.5,1.82-1.25,2.48c-4.25,3.77-11.25,8.27-23.5,14.02" transform="matrix(1,0,0,1,296,-4)" class="stroke_order_diagram--existing_path"></path><path id="pathSk2v596cn2ahw" kvg:type="㇐" d="M13.12,45.1c2.51,0.28,3.96,0.29,5.86-0.01c6.24-1,18.56-3.66,24.8-4.75c1.02-0.18,2.23-0.34,3.46-0.26" transform="matrix(1,0,0,1,296,-4)" class="stroke_order_diagram--existing_path"></path><path id="pathSk2v596cn2ahx" kvg:type="㇑" d="M32.83,27.16c1.2,1.2,1.41,2.84,1.41,4.69c0,4.26,0,38.49-0.04,55.15c-0.01,4.45-0.02,7.66-0.04,8.75" transform="matrix(1,0,0,1,296,-4)" class="stroke_order_diagram--existing_path"></path><path id="kvg:079d8-s4" kvg:type="㇒" d="M33.68,43.72c0,1.66-0.75,3.66-1.39,5.15c-4.17,9.76-10.42,18.51-17.54,26.64" transform="matrix(1,0,0,1,296,-4)" class="stroke_order_diagram--current_path"></path><path id="pathSk2v596cn2ahz" kvg:type="㇒" d="M33.68,43.72c0,1.66-0.75,3.66-1.39,5.15c-4.17,9.76-10.42,18.51-17.54,26.64" transform="matrix(1,0,0,1,296,-4)" class="stroke_order_diagram--current_path"></path><circle cx="33.68" cy="43.72" r="8" class="stroke_order_diagram--path_start" transform="matrix(1,0,0,1,296,-4)"></circle><line x1="450" x2="450" y1="1" y2="99" class="stroke_order_diagram--guide_line"></line><line x1="499" x2="499" y1="1" y2="99" class="stroke_order_diagram--bounding_box"></line><path id="pathSk2v596cn2ai2" kvg:type="㇒" d="M40.25,15c0,0.75-0.5,1.82-1.25,2.48c-4.25,3.77-11.25,8.27-23.5,14.02" transform="matrix(1,0,0,1,396,-4)" class="stroke_order_diagram--existing_path"></path><path id="pathSk2v596cn2ai3" kvg:type="㇐" d="M13.12,45.1c2.51,0.28,3.96,0.29,5.86-0.01c6.24-1,18.56-3.66,24.8-4.75c1.02-0.18,2.23-0.34,3.46-0.26" transform="matrix(1,0,0,1,396,-4)" class="stroke_order_diagram--existing_path"></path><path id="pathSk2v596cn2ai4" kvg:type="㇑" d="M32.83,27.16c1.2,1.2,1.41,2.84,1.41,4.69c0,4.26,0,38.49-0.04,55.15c-0.01,4.45-0.02,7.66-0.04,8.75" transform="matrix(1,0,0,1,396,-4)" class="stroke_order_diagram--existing_path"></path><path id="pathSk2v596cn2ai5" kvg:type="㇒" d="M33.68,43.72c0,1.66-0.75,3.66-1.39,5.15c-4.17,9.76-10.42,18.51-17.54,26.64" transform="matrix(1,0,0,1,396,-4)" class="stroke_order_diagram--existing_path"></path><path id="kvg:079d8-s5" kvg:type="㇔/㇏" d="M36.5,51.25c3.56,2.45,6.58,7.35,8.5,10.5" transform="matrix(1,0,0,1,396,-4)" class="stroke_order_diagram--current_path"></path><path id="pathSk2v596cn2ai7" kvg:type="㇔/㇏" d="M36.5,51.25c3.56,2.45,6.58,7.35,8.5,10.5" transform="matrix(1,0,0,1,396,-4)" class="stroke_order_diagram--current_path"></path><circle cx="36.5" cy="51.25" r="8" class="stroke_order_diagram--path_start" transform="matrix(1,0,0,1,396,-4)"></circle><line x1="550" x2="550" y1="1" y2="99" class="stroke_order_diagram--guide_line"></line><line x1="599" x2="599" y1="1" y2="99" class="stroke_order_diagram--bounding_box"></line><path id="pathSk2v596cn2aia" kvg:type="㇒" d="M40.25,15c0,0.75-0.5,1.82-1.25,2.48c-4.25,3.77-11.25,8.27-23.5,14.02" transform="matrix(1,0,0,1,496,-4)" class="stroke_order_diagram--existing_path"></path><path id="pathSk2v596cn2aib" kvg:type="㇐" d="M13.12,45.1c2.51,0.28,3.96,0.29,5.86-0.01c6.24-1,18.56-3.66,24.8-4.75c1.02-0.18,2.23-0.34,3.46-0.26" transform="matrix(1,0,0,1,496,-4)" class="stroke_order_diagram--existing_path"></path><path id="pathSk2v596cn2aic" kvg:type="㇑" d="M32.83,27.16c1.2,1.2,1.41,2.84,1.41,4.69c0,4.26,0,38.49-0.04,55.15c-0.01,4.45-0.02,7.66-0.04,8.75" transform="matrix(1,0,0,1,496,-4)" class="stroke_order_diagram--existing_path"></path><path id="pathSk2v596cn2aid" kvg:type="㇒" d="M33.68,43.72c0,1.66-0.75,3.66-1.39,5.15c-4.17,9.76-10.42,18.51-17.54,26.64" transform="matrix(1,0,0,1,496,-4)" class="stroke_order_diagram--existing_path"></path><path id="pathSk2v596cn2aie" kvg:type="㇔/㇏" d="M36.5,51.25c3.56,2.45,6.58,7.35,8.5,10.5" transform="matrix(1,0,0,1,496,-4)" class="stroke_order_diagram--existing_path"></path><path id="kvg:079d8-s6" kvg:type="㇔" d="M61.04,24.5c2.33,5.88,5.74,9.83,6.65,4.34" transform="matrix(1,0,0,1,496,-4)" class="stroke_order_diagram--current_path"></path><path id="pathSk2v596cn2aig" kvg:type="㇔" d="M61.04,24.5c2.33,5.88,5.74,9.83,6.65,4.34" transform="matrix(1,0,0,1,496,-4)" class="stroke_order_diagram--current_path"></path><circle cx="61.04" cy="24.5" r="8" class="stroke_order_diagram--path_start" transform="matrix(1,0,0,1,496,-4)"></circle><line x1="650" x2="650" y1="1" y2="99" class="stroke_order_diagram--guide_line"></line><line x1="699" x2="699" y1="1" y2="99" class="stroke_order_diagram--bounding_box"></line><path id="pathSk2v596cn2aij" kvg:type="㇒" d="M40.25,15c0,0.75-0.5,1.82-1.25,2.48c-4.25,3.77-11.25,8.27-23.5,14.02" transform="matrix(1,0,0,1,596,-4)" class="stroke_order_diagram--existing_path"></path><path id="pathSk2v596cn2aik" kvg:type="㇐" d="M13.12,45.1c2.51,0.28,3.96,0.29,5.86-0.01c6.24-1,18.56-3.66,24.8-4.75c1.02-0.18,2.23-0.34,3.46-0.26" transform="matrix(1,0,0,1,596,-4)" class="stroke_order_diagram--existing_path"></path><path id="pathSk2v596cn2ail" kvg:type="㇑" d="M32.83,27.16c1.2,1.2,1.41,2.84,1.41,4.69c0,4.26,0,38.49-0.04,55.15c-0.01,4.45-0.02,7.66-0.04,8.75" transform="matrix(1,0,0,1,596,-4)" class="stroke_order_diagram--existing_path"></path><path id="pathSk2v596cn2aim" kvg:type="㇒" d="M33.68,43.72c0,1.66-0.75,3.66-1.39,5.15c-4.17,9.76-10.42,18.51-17.54,26.64" transform="matrix(1,0,0,1,596,-4)" class="stroke_order_diagram--existing_path"></path><path id="pathSk2v596cn2ain" kvg:type="㇔/㇏" d="M36.5,51.25c3.56,2.45,6.58,7.35,8.5,10.5" transform="matrix(1,0,0,1,596,-4)" class="stroke_order_diagram--existing_path"></path><path id="pathSk2v596cn2aio" kvg:type="㇔" d="M61.04,24.5c2.33,5.88,5.74,9.83,6.65,4.34" transform="matrix(1,0,0,1,596,-4)" class="stroke_order_diagram--existing_path"></path><path id="kvg:079d8-s7" kvg:type="㇒" d="M81.96,22.67c0.54,1.08,0.65,2.25,0.29,4.62c-2.5,16.46-12,51.83-35.57,66.67" transform="matrix(1,0,0,1,596,-4)" class="stroke_order_diagram--current_path"></path><path id="pathSk2v596cn2aiq" kvg:type="㇒" d="M81.96,22.67c0.54,1.08,0.65,2.25,0.29,4.62c-2.5,16.46-12,51.83-35.57,66.67" transform="matrix(1,0,0,1,596,-4)" class="stroke_order_diagram--current_path"></path><circle cx="81.96" cy="22.67" r="8" class="stroke_order_diagram--path_start" transform="matrix(1,0,0,1,596,-4)"></circle><line x1="750" x2="750" y1="1" y2="99" class="stroke_order_diagram--guide_line"></line><line x1="799" x2="799" y1="1" y2="99" class="stroke_order_diagram--bounding_box"></line><path id="pathSk2v596cn2ait" kvg:type="㇒" d="M40.25,15c0,0.75-0.5,1.82-1.25,2.48c-4.25,3.77-11.25,8.27-23.5,14.02" transform="matrix(1,0,0,1,696,-4)" class="stroke_order_diagram--existing_path"></path><path id="pathSk2v596cn2aiu" kvg:type="㇐" d="M13.12,45.1c2.51,0.28,3.96,0.29,5.86-0.01c6.24-1,18.56-3.66,24.8-4.75c1.02-0.18,2.23-0.34,3.46-0.26" transform="matrix(1,0,0,1,696,-4)" class="stroke_order_diagram--existing_path"></path><path id="pathSk2v596cn2aiv" kvg:type="㇑" d="M32.83,27.16c1.2,1.2,1.41,2.84,1.41,4.69c0,4.26,0,38.49-0.04,55.15c-0.01,4.45-0.02,7.66-0.04,8.75" transform="matrix(1,0,0,1,696,-4)" class="stroke_order_diagram--existing_path"></path><path id="pathSk2v596cn2aiw" kvg:type="㇒" d="M33.68,43.72c0,1.66-0.75,3.66-1.39,5.15c-4.17,9.76-10.42,18.51-17.54,26.64" transform="matrix(1,0,0,1,696,-4)" class="stroke_order_diagram--existing_path"></path><path id="pathSk2v596cn2aix" kvg:type="㇔/㇏" d="M36.5,51.25c3.56,2.45,6.58,7.35,8.5,10.5" transform="matrix(1,0,0,1,696,-4)" class="stroke_order_diagram--existing_path"></path><path id="pathSk2v596cn2aiy" kvg:type="㇔" d="M61.04,24.5c2.33,5.88,5.74,9.83,6.65,4.34" transform="matrix(1,0,0,1,696,-4)" class="stroke_order_diagram--existing_path"></path><path id="pathSk2v596cn2aiz" kvg:type="㇒" d="M81.96,22.67c0.54,1.08,0.65,2.25,0.29,4.62c-2.5,16.46-12,51.83-35.57,66.67" transform="matrix(1,0,0,1,696,-4)" class="stroke_order_diagram--existing_path"></path><path id="kvg:079d8-s8" kvg:type="㇟b" d="M57.95,38.47C62.75,70.88,70.04,86.2,89,90.94c6.99,1.75,8.75-0.44,2.46-10.3" transform="matrix(1,0,0,1,696,-4)" class="stroke_order_diagram--current_path"></path><path id="pathSk2v596cn2aj1" kvg:type="㇟b" d="M57.95,38.47C62.75,70.88,70.04,86.2,89,90.94c6.99,1.75,8.75-0.44,2.46-10.3" transform="matrix(1,0,0,1,696,-4)" class="stroke_order_diagram--current_path"></path><circle cx="57.95" cy="38.47" r="8" class="stroke_order_diagram--path_start" transform="matrix(1,0,0,1,696,-4)"></circle><line x1="850" x2="850" y1="1" y2="99" class="stroke_order_diagram--guide_line"></line><line x1="899" x2="899" y1="1" y2="99" class="stroke_order_diagram--bounding_box"></line><path id="pathSk2v596cn2aj4" kvg:type="㇒" d="M40.25,15c0,0.75-0.5,1.82-1.25,2.48c-4.25,3.77-11.25,8.27-23.5,14.02" transform="matrix(1,0,0,1,796,-4)" class="stroke_order_diagram--existing_path"></path><path id="pathSk2v596cn2aj5" kvg:type="㇐" d="M13.12,45.1c2.51,0.28,3.96,0.29,5.86-0.01c6.24-1,18.56-3.66,24.8-4.75c1.02-0.18,2.23-0.34,3.46-0.26" transform="matrix(1,0,0,1,796,-4)" class="stroke_order_diagram--existing_path"></path><path id="pathSk2v596cn2aj6" kvg:type="㇑" d="M32.83,27.16c1.2,1.2,1.41,2.84,1.41,4.69c0,4.26,0,38.49-0.04,55.15c-0.01,4.45-0.02,7.66-0.04,8.75" transform="matrix(1,0,0,1,796,-4)" class="stroke_order_diagram--existing_path"></path><path id="pathSk2v596cn2aj7" kvg:type="㇒" d="M33.68,43.72c0,1.66-0.75,3.66-1.39,5.15c-4.17,9.76-10.42,18.51-17.54,26.64" transform="matrix(1,0,0,1,796,-4)" class="stroke_order_diagram--existing_path"></path><path id="pathSk2v596cn2aj8" kvg:type="㇔/㇏" d="M36.5,51.25c3.56,2.45,6.58,7.35,8.5,10.5" transform="matrix(1,0,0,1,796,-4)" class="stroke_order_diagram--existing_path"></path><path id="pathSk2v596cn2aj9" kvg:type="㇔" d="M61.04,24.5c2.33,5.88,5.74,9.83,6.65,4.34" transform="matrix(1,0,0,1,796,-4)" class="stroke_order_diagram--existing_path"></path><path id="pathSk2v596cn2aja" kvg:type="㇒" d="M81.96,22.67c0.54,1.08,0.65,2.25,0.29,4.62c-2.5,16.46-12,51.83-35.57,66.67" transform="matrix(1,0,0,1,796,-4)" class="stroke_order_diagram--existing_path"></path><path id="pathSk2v596cn2ajb" kvg:type="㇟b" d="M57.95,38.47C62.75,70.88,70.04,86.2,89,90.94c6.99,1.75,8.75-0.44,2.46-10.3" transform="matrix(1,0,0,1,796,-4)" class="stroke_order_diagram--existing_path"></path><path id="kvg:079d8-s9" kvg:type="㇔" d="M53.12,55.62c0.29,2.69-2.89,14.59-5.2,19.08" transform="matrix(1,0,0,1,796,-4)" class="stroke_order_diagram--current_path"></path><path id="pathSk2v596cn2ajd" kvg:type="㇔" d="M53.12,55.62c0.29,2.69-2.89,14.59-5.2,19.08" transform="matrix(1,0,0,1,796,-4)" class="stroke_order_diagram--current_path"></path><circle cx="53.12" cy="55.62" r="8" class="stroke_order_diagram--path_start" transform="matrix(1,0,0,1,796,-4)"></circle><line x1="950" x2="950" y1="1" y2="99" class="stroke_order_diagram--guide_line"></line><line x1="999" x2="999" y1="1" y2="99" class="stroke_order_diagram--bounding_box"></line><path id="pathSk2v596cn2ajg" kvg:type="㇒" d="M40.25,15c0,0.75-0.5,1.82-1.25,2.48c-4.25,3.77-11.25,8.27-23.5,14.02" transform="matrix(1,0,0,1,896,-4)" class="stroke_order_diagram--existing_path"></path><path id="pathSk2v596cn2ajh" kvg:type="㇐" d="M13.12,45.1c2.51,0.28,3.96,0.29,5.86-0.01c6.24-1,18.56-3.66,24.8-4.75c1.02-0.18,2.23-0.34,3.46-0.26" transform="matrix(1,0,0,1,896,-4)" class="stroke_order_diagram--existing_path"></path><path id="pathSk2v596cn2aji" kvg:type="㇑" d="M32.83,27.16c1.2,1.2,1.41,2.84,1.41,4.69c0,4.26,0,38.49-0.04,55.15c-0.01,4.45-0.02,7.66-0.04,8.75" transform="matrix(1,0,0,1,896,-4)" class="stroke_order_diagram--existing_path"></path><path id="pathSk2v596cn2ajj" kvg:type="㇒" d="M33.68,43.72c0,1.66-0.75,3.66-1.39,5.15c-4.17,9.76-10.42,18.51-17.54,26.64" transform="matrix(1,0,0,1,896,-4)" class="stroke_order_diagram--existing_path"></path><path id="pathSk2v596cn2ajk" kvg:type="㇔/㇏" d="M36.5,51.25c3.56,2.45,6.58,7.35,8.5,10.5" transform="matrix(1,0,0,1,896,-4)" class="stroke_order_diagram--existing_path"></path><path id="pathSk2v596cn2ajl" kvg:type="㇔" d="M61.04,24.5c2.33,5.88,5.74,9.83,6.65,4.34" transform="matrix(1,0,0,1,896,-4)" class="stroke_order_diagram--existing_path"></path><path id="pathSk2v596cn2ajm" kvg:type="㇒" d="M81.96,22.67c0.54,1.08,0.65,2.25,0.29,4.62c-2.5,16.46-12,51.83-35.57,66.67" transform="matrix(1,0,0,1,896,-4)" class="stroke_order_diagram--existing_path"></path><path id="pathSk2v596cn2ajn" kvg:type="㇟b" d="M57.95,38.47C62.75,70.88,70.04,86.2,89,90.94c6.99,1.75,8.75-0.44,2.46-10.3" transform="matrix(1,0,0,1,896,-4)" class="stroke_order_diagram--existing_path"></path><path id="pathSk2v596cn2ajo" kvg:type="㇔" d="M53.12,55.62c0.29,2.69-2.89,14.59-5.2,19.08" transform="matrix(1,0,0,1,896,-4)" class="stroke_order_diagram--existing_path"></path><path id="kvg:079d8-s10" kvg:type="㇔" d="M89.44,48.68c3.15,3.14,6.88,9.57,8.06,15.69" transform="matrix(1,0,0,1,896,-4)" class="stroke_order_diagram--current_path"></path><path id="pathSk2v596cn2ajq" kvg:type="㇔" d="M89.44,48.68c3.15,3.14,6.88,9.57,8.06,15.69" transform="matrix(1,0,0,1,896,-4)" class="stroke_order_diagram--current_path"></path><circle cx="89.44" cy="48.68" r="8" class="stroke_order_diagram--path_start" transform="matrix(1,0,0,1,896,-4)"></circle></svg>