<svg style="width: 1000px; height: 100px;" viewbox="0 0 1000 100"><style>
.stroke_order_diagram--outer_container {
  width: 100%;
  overflow-x: auto;
  overflow-y: hidden;
}

.stroke_order_diagram--guide_line {
  fill: none;
  stroke: #ddd;
  stroke-width: 3;
  stroke-linecap: square;
  stroke-linejoin: square;
  stroke-dasharray:8, 8;
}

.stroke_order_diagram--bounding_box {
  fill: none;
  stroke: #ddd;
  stroke-width: 4;
  stroke-linecap: square;
  stroke-linejoin: square;
}

.stroke_order_diagram--current_path {
  fill: none;
  stroke: #000;
  stroke-width: 6;
  stroke-linecap: round;
  stroke-linejoin: round;
}

.stroke_order_diagram--existing_path {
  fill: none;
  stroke: #aaa;
  stroke-width: 6;
  stroke-linecap: round;
  stroke-linejoin:round;
}

.stroke_order_diagram--path_start {
  fill: rgba(255, 0, 0, 0.7);
  stroke:none
}</style><desc>Created with Snap</desc><defs></defs><line x1="1" x2="999" y1="1" y2="1" class="stroke_order_diagram--bounding_box"></line><line x1="1" x2="1" y1="1" y2="99" class="stroke_order_diagram--bounding_box"></line><line x1="1" x2="999" y1="99" y2="99" class="stroke_order_diagram--bounding_box"></line><line x1="0" x2="1000" y1="50" y2="50" class="stroke_order_diagram--guide_line"></line><line x1="50" x2="50" y1="1" y2="99" class="stroke_order_diagram--guide_line"></line><line x1="99" x2="99" y1="1" y2="99" class="stroke_order_diagram--bounding_box"></line><path id="kvg:079df-s1" kvg:type="㇒" d="M40.25,15.75c-0.13,0.88-0.45,1.9-1.33,2.55c-4.04,2.95-10.54,6.95-22.17,11.45" transform="matrix(1,0,0,1,-4,-4)" class="stroke_order_diagram--current_path"></path><path id="pathSk2v596cn3j7c" kvg:type="㇒" d="M40.25,15.75c-0.13,0.88-0.45,1.9-1.33,2.55c-4.04,2.95-10.54,6.95-22.17,11.45" transform="matrix(1,0,0,1,-4,-4)" class="stroke_order_diagram--current_path"></path><circle cx="40.25" cy="15.75" r="8" class="stroke_order_diagram--path_start" transform="matrix(1,0,0,1,-4,-4)"></circle><line x1="150" x2="150" y1="1" y2="99" class="stroke_order_diagram--guide_line"></line><line x1="199" x2="199" y1="1" y2="99" class="stroke_order_diagram--bounding_box"></line><path id="pathSk2v596cn3j7f" kvg:type="㇒" d="M40.25,15.75c-0.13,0.88-0.45,1.9-1.33,2.55c-4.04,2.95-10.54,6.95-22.17,11.45" transform="matrix(1,0,0,1,96,-4)" class="stroke_order_diagram--existing_path"></path><path id="kvg:079df-s2" kvg:type="㇐" d="M12.87,42.58c2.13,0.67,4.49,0.51,6.14,0.34c5.59-0.55,17.84-2.04,24.04-2.9c1.13-0.16,2.71-0.28,4.19-0.09" transform="matrix(1,0,0,1,96,-4)" class="stroke_order_diagram--current_path"></path><path id="pathSk2v596cn3j7h" kvg:type="㇐" d="M12.87,42.58c2.13,0.67,4.49,0.51,6.14,0.34c5.59-0.55,17.84-2.04,24.04-2.9c1.13-0.16,2.71-0.28,4.19-0.09" transform="matrix(1,0,0,1,96,-4)" class="stroke_order_diagram--current_path"></path><circle cx="12.87" cy="42.58" r="8" class="stroke_order_diagram--path_start" transform="matrix(1,0,0,1,96,-4)"></circle><line x1="250" x2="250" y1="1" y2="99" class="stroke_order_diagram--guide_line"></line><line x1="299" x2="299" y1="1" y2="99" class="stroke_order_diagram--bounding_box"></line><path id="pathSk2v596cn3j7k" kvg:type="㇒" d="M40.25,15.75c-0.13,0.88-0.45,1.9-1.33,2.55c-4.04,2.95-10.54,6.95-22.17,11.45" transform="matrix(1,0,0,1,196,-4)" class="stroke_order_diagram--existing_path"></path><path id="pathSk2v596cn3j7l" kvg:type="㇐" d="M12.87,42.58c2.13,0.67,4.49,0.51,6.14,0.34c5.59-0.55,17.84-2.04,24.04-2.9c1.13-0.16,2.71-0.28,4.19-0.09" transform="matrix(1,0,0,1,196,-4)" class="stroke_order_diagram--existing_path"></path><path id="kvg:079df-s3" kvg:type="㇑" d="M32.08,26.66c1.13,1.13,1.41,2.34,1.41,4.19c0,4.25,0,37.59-0.03,54.4c-0.01,4.58-0.02,7.89-0.04,9" transform="matrix(1,0,0,1,196,-4)" class="stroke_order_diagram--current_path"></path><path id="pathSk2v596cn3j7n" kvg:type="㇑" d="M32.08,26.66c1.13,1.13,1.41,2.34,1.41,4.19c0,4.25,0,37.59-0.03,54.4c-0.01,4.58-0.02,7.89-0.04,9" transform="matrix(1,0,0,1,196,-4)" class="stroke_order_diagram--current_path"></path><circle cx="32.08" cy="26.66" r="8" class="stroke_order_diagram--path_start" transform="matrix(1,0,0,1,196,-4)"></circle><line x1="350" x2="350" y1="1" y2="99" class="stroke_order_diagram--guide_line"></line><line x1="399" x2="399" y1="1" y2="99" class="stroke_order_diagram--bounding_box"></line><path id="pathSk2v596cn3j7q" kvg:type="㇒" d="M40.25,15.75c-0.13,0.88-0.45,1.9-1.33,2.55c-4.04,2.95-10.54,6.95-22.17,11.45" transform="matrix(1,0,0,1,296,-4)" class="stroke_order_diagram--existing_path"></path><path id="pathSk2v596cn3j7r" kvg:type="㇐" d="M12.87,42.58c2.13,0.67,4.49,0.51,6.14,0.34c5.59-0.55,17.84-2.04,24.04-2.9c1.13-0.16,2.71-0.28,4.19-0.09" transform="matrix(1,0,0,1,296,-4)" class="stroke_order_diagram--existing_path"></path><path id="pathSk2v596cn3j7s" kvg:type="㇑" d="M32.08,26.66c1.13,1.13,1.41,2.34,1.41,4.19c0,4.25,0,37.59-0.03,54.4c-0.01,4.58-0.02,7.89-0.04,9" transform="matrix(1,0,0,1,296,-4)" class="stroke_order_diagram--existing_path"></path><path id="kvg:079df-s4" kvg:type="㇒" d="M32.68,42.97c0,1.78-0.91,4.4-1.87,6.43C25.88,59.87,18.7,70.91,9.5,79" transform="matrix(1,0,0,1,296,-4)" class="stroke_order_diagram--current_path"></path><path id="pathSk2v596cn3j7u" kvg:type="㇒" d="M32.68,42.97c0,1.78-0.91,4.4-1.87,6.43C25.88,59.87,18.7,70.91,9.5,79" transform="matrix(1,0,0,1,296,-4)" class="stroke_order_diagram--current_path"></path><circle cx="32.68" cy="42.97" r="8" class="stroke_order_diagram--path_start" transform="matrix(1,0,0,1,296,-4)"></circle><line x1="450" x2="450" y1="1" y2="99" class="stroke_order_diagram--guide_line"></line><line x1="499" x2="499" y1="1" y2="99" class="stroke_order_diagram--bounding_box"></line><path id="pathSk2v596cn3j7x" kvg:type="㇒" d="M40.25,15.75c-0.13,0.88-0.45,1.9-1.33,2.55c-4.04,2.95-10.54,6.95-22.17,11.45" transform="matrix(1,0,0,1,396,-4)" class="stroke_order_diagram--existing_path"></path><path id="pathSk2v596cn3j7y" kvg:type="㇐" d="M12.87,42.58c2.13,0.67,4.49,0.51,6.14,0.34c5.59-0.55,17.84-2.04,24.04-2.9c1.13-0.16,2.71-0.28,4.19-0.09" transform="matrix(1,0,0,1,396,-4)" class="stroke_order_diagram--existing_path"></path><path id="pathSk2v596cn3j7z" kvg:type="㇑" d="M32.08,26.66c1.13,1.13,1.41,2.34,1.41,4.19c0,4.25,0,37.59-0.03,54.4c-0.01,4.58-0.02,7.89-0.04,9" transform="matrix(1,0,0,1,396,-4)" class="stroke_order_diagram--existing_path"></path><path id="pathSk2v596cn3j80" kvg:type="㇒" d="M32.68,42.97c0,1.78-0.91,4.4-1.87,6.43C25.88,59.87,18.7,70.91,9.5,79" transform="matrix(1,0,0,1,396,-4)" class="stroke_order_diagram--existing_path"></path><path id="kvg:079df-s5" kvg:type="㇔/㇏" d="M36.75,52.25c3.56,2.04,6.58,6.12,8.5,8.75" transform="matrix(1,0,0,1,396,-4)" class="stroke_order_diagram--current_path"></path><path id="pathSk2v596cn3j82" kvg:type="㇔/㇏" d="M36.75,52.25c3.56,2.04,6.58,6.12,8.5,8.75" transform="matrix(1,0,0,1,396,-4)" class="stroke_order_diagram--current_path"></path><circle cx="36.75" cy="52.25" r="8" class="stroke_order_diagram--path_start" transform="matrix(1,0,0,1,396,-4)"></circle><line x1="550" x2="550" y1="1" y2="99" class="stroke_order_diagram--guide_line"></line><line x1="599" x2="599" y1="1" y2="99" class="stroke_order_diagram--bounding_box"></line><path id="pathSk2v596cn3j85" kvg:type="㇒" d="M40.25,15.75c-0.13,0.88-0.45,1.9-1.33,2.55c-4.04,2.95-10.54,6.95-22.17,11.45" transform="matrix(1,0,0,1,496,-4)" class="stroke_order_diagram--existing_path"></path><path id="pathSk2v596cn3j86" kvg:type="㇐" d="M12.87,42.58c2.13,0.67,4.49,0.51,6.14,0.34c5.59-0.55,17.84-2.04,24.04-2.9c1.13-0.16,2.71-0.28,4.19-0.09" transform="matrix(1,0,0,1,496,-4)" class="stroke_order_diagram--existing_path"></path><path id="pathSk2v596cn3j87" kvg:type="㇑" d="M32.08,26.66c1.13,1.13,1.41,2.34,1.41,4.19c0,4.25,0,37.59-0.03,54.4c-0.01,4.58-0.02,7.89-0.04,9" transform="matrix(1,0,0,1,496,-4)" class="stroke_order_diagram--existing_path"></path><path id="pathSk2v596cn3j88" kvg:type="㇒" d="M32.68,42.97c0,1.78-0.91,4.4-1.87,6.43C25.88,59.87,18.7,70.91,9.5,79" transform="matrix(1,0,0,1,496,-4)" class="stroke_order_diagram--existing_path"></path><path id="pathSk2v596cn3j89" kvg:type="㇔/㇏" d="M36.75,52.25c3.56,2.04,6.58,6.12,8.5,8.75" transform="matrix(1,0,0,1,496,-4)" class="stroke_order_diagram--existing_path"></path><path id="kvg:079df-s6" kvg:type="㇑a" d="M54.52,24.98c1,1,1.41,2.14,1.41,3.65c0,0.98,0.43,57.8,0.35,59.92" transform="matrix(1,0,0,1,496,-4)" class="stroke_order_diagram--current_path"></path><path id="pathSk2v596cn3j8b" kvg:type="㇑a" d="M54.52,24.98c1,1,1.41,2.14,1.41,3.65c0,0.98,0.43,57.8,0.35,59.92" transform="matrix(1,0,0,1,496,-4)" class="stroke_order_diagram--current_path"></path><circle cx="54.52" cy="24.98" r="8" class="stroke_order_diagram--path_start" transform="matrix(1,0,0,1,496,-4)"></circle><line x1="650" x2="650" y1="1" y2="99" class="stroke_order_diagram--guide_line"></line><line x1="699" x2="699" y1="1" y2="99" class="stroke_order_diagram--bounding_box"></line><path id="pathSk2v596cn3j8e" kvg:type="㇒" d="M40.25,15.75c-0.13,0.88-0.45,1.9-1.33,2.55c-4.04,2.95-10.54,6.95-22.17,11.45" transform="matrix(1,0,0,1,596,-4)" class="stroke_order_diagram--existing_path"></path><path id="pathSk2v596cn3j8f" kvg:type="㇐" d="M12.87,42.58c2.13,0.67,4.49,0.51,6.14,0.34c5.59-0.55,17.84-2.04,24.04-2.9c1.13-0.16,2.71-0.28,4.19-0.09" transform="matrix(1,0,0,1,596,-4)" class="stroke_order_diagram--existing_path"></path><path id="pathSk2v596cn3j8g" kvg:type="㇑" d="M32.08,26.66c1.13,1.13,1.41,2.34,1.41,4.19c0,4.25,0,37.59-0.03,54.4c-0.01,4.58-0.02,7.89-0.04,9" transform="matrix(1,0,0,1,596,-4)" class="stroke_order_diagram--existing_path"></path><path id="pathSk2v596cn3j8h" kvg:type="㇒" d="M32.68,42.97c0,1.78-0.91,4.4-1.87,6.43C25.88,59.87,18.7,70.91,9.5,79" transform="matrix(1,0,0,1,596,-4)" class="stroke_order_diagram--existing_path"></path><path id="pathSk2v596cn3j8i" kvg:type="㇔/㇏" d="M36.75,52.25c3.56,2.04,6.58,6.12,8.5,8.75" transform="matrix(1,0,0,1,596,-4)" class="stroke_order_diagram--existing_path"></path><path id="pathSk2v596cn3j8j" kvg:type="㇑a" d="M54.52,24.98c1,1,1.41,2.14,1.41,3.65c0,0.98,0.43,57.8,0.35,59.92" transform="matrix(1,0,0,1,596,-4)" class="stroke_order_diagram--existing_path"></path><path id="kvg:079df-s7" kvg:type="㇕b" d="M56.81,26.81c6.06-0.81,22.2-2.82,23.86-2.99c2.98-0.29,4.49,1.17,4.49,4.71c0,3.83-0.03,40.33-0.03,57.15" transform="matrix(1,0,0,1,596,-4)" class="stroke_order_diagram--current_path"></path><path id="pathSk2v596cn3j8l" kvg:type="㇕b" d="M56.81,26.81c6.06-0.81,22.2-2.82,23.86-2.99c2.98-0.29,4.49,1.17,4.49,4.71c0,3.83-0.03,40.33-0.03,57.15" transform="matrix(1,0,0,1,596,-4)" class="stroke_order_diagram--current_path"></path><circle cx="56.81" cy="26.81" r="8" class="stroke_order_diagram--path_start" transform="matrix(1,0,0,1,596,-4)"></circle><line x1="750" x2="750" y1="1" y2="99" class="stroke_order_diagram--guide_line"></line><line x1="799" x2="799" y1="1" y2="99" class="stroke_order_diagram--bounding_box"></line><path id="pathSk2v596cn3j8o" kvg:type="㇒" d="M40.25,15.75c-0.13,0.88-0.45,1.9-1.33,2.55c-4.04,2.95-10.54,6.95-22.17,11.45" transform="matrix(1,0,0,1,696,-4)" class="stroke_order_diagram--existing_path"></path><path id="pathSk2v596cn3j8p" kvg:type="㇐" d="M12.87,42.58c2.13,0.67,4.49,0.51,6.14,0.34c5.59-0.55,17.84-2.04,24.04-2.9c1.13-0.16,2.71-0.28,4.19-0.09" transform="matrix(1,0,0,1,696,-4)" class="stroke_order_diagram--existing_path"></path><path id="pathSk2v596cn3j8q" kvg:type="㇑" d="M32.08,26.66c1.13,1.13,1.41,2.34,1.41,4.19c0,4.25,0,37.59-0.03,54.4c-0.01,4.58-0.02,7.89-0.04,9" transform="matrix(1,0,0,1,696,-4)" class="stroke_order_diagram--existing_path"></path><path id="pathSk2v596cn3j8r" kvg:type="㇒" d="M32.68,42.97c0,1.78-0.91,4.4-1.87,6.43C25.88,59.87,18.7,70.91,9.5,79" transform="matrix(1,0,0,1,696,-4)" class="stroke_order_diagram--existing_path"></path><path id="pathSk2v596cn3j8s" kvg:type="㇔/㇏" d="M36.75,52.25c3.56,2.04,6.58,6.12,8.5,8.75" transform="matrix(1,0,0,1,696,-4)" class="stroke_order_diagram--existing_path"></path><path id="pathSk2v596cn3j8t" kvg:type="㇑a" d="M54.52,24.98c1,1,1.41,2.14,1.41,3.65c0,0.98,0.43,57.8,0.35,59.92" transform="matrix(1,0,0,1,696,-4)" class="stroke_order_diagram--existing_path"></path><path id="pathSk2v596cn3j8u" kvg:type="㇕b" d="M56.81,26.81c6.06-0.81,22.2-2.82,23.86-2.99c2.98-0.29,4.49,1.17,4.49,4.71c0,3.83-0.03,40.33-0.03,57.15" transform="matrix(1,0,0,1,696,-4)" class="stroke_order_diagram--existing_path"></path><path id="kvg:079df-s8" kvg:type="㇐a" d="M57.14,46.6c7.62-0.95,20.08-2.31,26.78-2.6" transform="matrix(1,0,0,1,696,-4)" class="stroke_order_diagram--current_path"></path><path id="pathSk2v596cn3j8w" kvg:type="㇐a" d="M57.14,46.6c7.62-0.95,20.08-2.31,26.78-2.6" transform="matrix(1,0,0,1,696,-4)" class="stroke_order_diagram--current_path"></path><circle cx="57.14" cy="46.6" r="8" class="stroke_order_diagram--path_start" transform="matrix(1,0,0,1,696,-4)"></circle><line x1="850" x2="850" y1="1" y2="99" class="stroke_order_diagram--guide_line"></line><line x1="899" x2="899" y1="1" y2="99" class="stroke_order_diagram--bounding_box"></line><path id="pathSk2v596cn3j8z" kvg:type="㇒" d="M40.25,15.75c-0.13,0.88-0.45,1.9-1.33,2.55c-4.04,2.95-10.54,6.95-22.17,11.45" transform="matrix(1,0,0,1,796,-4)" class="stroke_order_diagram--existing_path"></path><path id="pathSk2v596cn3j90" kvg:type="㇐" d="M12.87,42.58c2.13,0.67,4.49,0.51,6.14,0.34c5.59-0.55,17.84-2.04,24.04-2.9c1.13-0.16,2.71-0.28,4.19-0.09" transform="matrix(1,0,0,1,796,-4)" class="stroke_order_diagram--existing_path"></path><path id="pathSk2v596cn3j91" kvg:type="㇑" d="M32.08,26.66c1.13,1.13,1.41,2.34,1.41,4.19c0,4.25,0,37.59-0.03,54.4c-0.01,4.58-0.02,7.89-0.04,9" transform="matrix(1,0,0,1,796,-4)" class="stroke_order_diagram--existing_path"></path><path id="pathSk2v596cn3j92" kvg:type="㇒" d="M32.68,42.97c0,1.78-0.91,4.4-1.87,6.43C25.88,59.87,18.7,70.91,9.5,79" transform="matrix(1,0,0,1,796,-4)" class="stroke_order_diagram--existing_path"></path><path id="pathSk2v596cn3j93" kvg:type="㇔/㇏" d="M36.75,52.25c3.56,2.04,6.58,6.12,8.5,8.75" transform="matrix(1,0,0,1,796,-4)" class="stroke_order_diagram--existing_path"></path><path id="pathSk2v596cn3j94" kvg:type="㇑a" d="M54.52,24.98c1,1,1.41,2.14,1.41,3.65c0,0.98,0.43,57.8,0.35,59.92" transform="matrix(1,0,0,1,796,-4)" class="stroke_order_diagram--existing_path"></path><path id="pathSk2v596cn3j95" kvg:type="㇕b" d="M56.81,26.81c6.06-0.81,22.2-2.82,23.86-2.99c2.98-0.29,4.49,1.17,4.49,4.71c0,3.83-0.03,40.33-0.03,57.15" transform="matrix(1,0,0,1,796,-4)" class="stroke_order_diagram--existing_path"></path><path id="pathSk2v596cn3j96" kvg:type="㇐a" d="M57.14,46.6c7.62-0.95,20.08-2.31,26.78-2.6" transform="matrix(1,0,0,1,796,-4)" class="stroke_order_diagram--existing_path"></path><path id="kvg:079df-s9" kvg:type="㇐a" d="M57.59,65.95c5.95-0.34,19.22-1.92,26.1-1.96" transform="matrix(1,0,0,1,796,-4)" class="stroke_order_diagram--current_path"></path><path id="pathSk2v596cn3j98" kvg:type="㇐a" d="M57.59,65.95c5.95-0.34,19.22-1.92,26.1-1.96" transform="matrix(1,0,0,1,796,-4)" class="stroke_order_diagram--current_path"></path><circle cx="57.59" cy="65.95" r="8" class="stroke_order_diagram--path_start" transform="matrix(1,0,0,1,796,-4)"></circle><line x1="950" x2="950" y1="1" y2="99" class="stroke_order_diagram--guide_line"></line><line x1="999" x2="999" y1="1" y2="99" class="stroke_order_diagram--bounding_box"></line><path id="pathSk2v596cn3j9b" kvg:type="㇒" d="M40.25,15.75c-0.13,0.88-0.45,1.9-1.33,2.55c-4.04,2.95-10.54,6.95-22.17,11.45" transform="matrix(1,0,0,1,896,-4)" class="stroke_order_diagram--existing_path"></path><path id="pathSk2v596cn3j9c" kvg:type="㇐" d="M12.87,42.58c2.13,0.67,4.49,0.51,6.14,0.34c5.59-0.55,17.84-2.04,24.04-2.9c1.13-0.16,2.71-0.28,4.19-0.09" transform="matrix(1,0,0,1,896,-4)" class="stroke_order_diagram--existing_path"></path><path id="pathSk2v596cn3j9d" kvg:type="㇑" d="M32.08,26.66c1.13,1.13,1.41,2.34,1.41,4.19c0,4.25,0,37.59-0.03,54.4c-0.01,4.58-0.02,7.89-0.04,9" transform="matrix(1,0,0,1,896,-4)" class="stroke_order_diagram--existing_path"></path><path id="pathSk2v596cn3j9e" kvg:type="㇒" d="M32.68,42.97c0,1.78-0.91,4.4-1.87,6.43C25.88,59.87,18.7,70.91,9.5,79" transform="matrix(1,0,0,1,896,-4)" class="stroke_order_diagram--existing_path"></path><path id="pathSk2v596cn3j9f" kvg:type="㇔/㇏" d="M36.75,52.25c3.56,2.04,6.58,6.12,8.5,8.75" transform="matrix(1,0,0,1,896,-4)" class="stroke_order_diagram--existing_path"></path><path id="pathSk2v596cn3j9g" kvg:type="㇑a" d="M54.52,24.98c1,1,1.41,2.14,1.41,3.65c0,0.98,0.43,57.8,0.35,59.92" transform="matrix(1,0,0,1,896,-4)" class="stroke_order_diagram--existing_path"></path><path id="pathSk2v596cn3j9h" kvg:type="㇕b" d="M56.81,26.81c6.06-0.81,22.2-2.82,23.86-2.99c2.98-0.29,4.49,1.17,4.49,4.71c0,3.83-0.03,40.33-0.03,57.15" transform="matrix(1,0,0,1,896,-4)" class="stroke_order_diagram--existing_path"></path><path id="pathSk2v596cn3j9i" kvg:type="㇐a" d="M57.14,46.6c7.62-0.95,20.08-2.31,26.78-2.6" transform="matrix(1,0,0,1,896,-4)" class="stroke_order_diagram--existing_path"></path><path id="pathSk2v596cn3j9j" kvg:type="㇐a" d="M57.59,65.95c5.95-0.34,19.22-1.92,26.1-1.96" transform="matrix(1,0,0,1,896,-4)" class="stroke_order_diagram--existing_path"></path><path id="kvg:079df-s10" kvg:type="㇐" d="M43.04,89.34c2.96,0.53,5.97,0.59,8.71,0.41c11.47-0.75,28.29-2.4,39.75-2.7c2.71-0.07,5.46,0.05,8.13,0.59" transform="matrix(1,0,0,1,896,-4)" class="stroke_order_diagram--current_path"></path><path id="pathSk2v596cn3j9l" kvg:type="㇐" d="M43.04,89.34c2.96,0.53,5.97,0.59,8.71,0.41c11.47-0.75,28.29-2.4,39.75-2.7c2.71-0.07,5.46,0.05,8.13,0.59" transform="matrix(1,0,0,1,896,-4)" class="stroke_order_diagram--current_path"></path><circle cx="43.04" cy="89.34" r="8" class="stroke_order_diagram--path_start" transform="matrix(1,0,0,1,896,-4)"></circle></svg>