<svg style="width: 900px; height: 100px;" viewbox="0 0 900 100"><style>
.stroke_order_diagram--outer_container {
  width: 100%;
  overflow-x: auto;
  overflow-y: hidden;
}

.stroke_order_diagram--guide_line {
  fill: none;
  stroke: #ddd;
  stroke-width: 3;
  stroke-linecap: square;
  stroke-linejoin: square;
  stroke-dasharray:8, 8;
}

.stroke_order_diagram--bounding_box {
  fill: none;
  stroke: #ddd;
  stroke-width: 4;
  stroke-linecap: square;
  stroke-linejoin: square;
}

.stroke_order_diagram--current_path {
  fill: none;
  stroke: #000;
  stroke-width: 6;
  stroke-linecap: round;
  stroke-linejoin: round;
}

.stroke_order_diagram--existing_path {
  fill: none;
  stroke: #aaa;
  stroke-width: 6;
  stroke-linecap: round;
  stroke-linejoin:round;
}

.stroke_order_diagram--path_start {
  fill: rgba(255, 0, 0, 0.7);
  stroke:none
}</style><desc>Created with Snap</desc><defs></defs><line x1="1" x2="899" y1="1" y2="1" class="stroke_order_diagram--bounding_box"></line><line x1="1" x2="1" y1="1" y2="99" class="stroke_order_diagram--bounding_box"></line><line x1="1" x2="899" y1="99" y2="99" class="stroke_order_diagram--bounding_box"></line><line x1="0" x2="900" y1="50" y2="50" class="stroke_order_diagram--guide_line"></line><line x1="50" x2="50" y1="1" y2="99" class="stroke_order_diagram--guide_line"></line><line x1="99" x2="99" y1="1" y2="99" class="stroke_order_diagram--bounding_box"></line><path id="kvg:079d2-s1" kvg:type="㇒" d="M43,12.75c-0.12,1-0.61,1.87-1.27,2.56c-3.07,3.27-13.91,8.58-26.61,12.44" transform="matrix(1,0,0,1,-4,-4)" class="stroke_order_diagram--current_path"></path><path id="pathSk2v596cnkji" kvg:type="㇒" d="M43,12.75c-0.12,1-0.61,1.87-1.27,2.56c-3.07,3.27-13.91,8.58-26.61,12.44" transform="matrix(1,0,0,1,-4,-4)" class="stroke_order_diagram--current_path"></path><circle cx="43" cy="12.75" r="8" class="stroke_order_diagram--path_start" transform="matrix(1,0,0,1,-4,-4)"></circle><line x1="150" x2="150" y1="1" y2="99" class="stroke_order_diagram--guide_line"></line><line x1="199" x2="199" y1="1" y2="99" class="stroke_order_diagram--bounding_box"></line><path id="pathSk2v596cnkjl" kvg:type="㇒" d="M43,12.75c-0.12,1-0.61,1.87-1.27,2.56c-3.07,3.27-13.91,8.58-26.61,12.44" transform="matrix(1,0,0,1,96,-4)" class="stroke_order_diagram--existing_path"></path><path id="kvg:079d2-s2" kvg:type="㇐" d="M13.37,42.85c2.26,0.4,5.11-0.01,6.67-0.19c6.53-0.78,17.81-2.81,24.6-3.87c1.39-0.22,3.43-0.43,4.84,0.04" transform="matrix(1,0,0,1,96,-4)" class="stroke_order_diagram--current_path"></path><path id="pathSk2v596cnkjn" kvg:type="㇐" d="M13.37,42.85c2.26,0.4,5.11-0.01,6.67-0.19c6.53-0.78,17.81-2.81,24.6-3.87c1.39-0.22,3.43-0.43,4.84,0.04" transform="matrix(1,0,0,1,96,-4)" class="stroke_order_diagram--current_path"></path><circle cx="13.37" cy="42.85" r="8" class="stroke_order_diagram--path_start" transform="matrix(1,0,0,1,96,-4)"></circle><line x1="250" x2="250" y1="1" y2="99" class="stroke_order_diagram--guide_line"></line><line x1="299" x2="299" y1="1" y2="99" class="stroke_order_diagram--bounding_box"></line><path id="pathSk2v596cnkjq" kvg:type="㇒" d="M43,12.75c-0.12,1-0.61,1.87-1.27,2.56c-3.07,3.27-13.91,8.58-26.61,12.44" transform="matrix(1,0,0,1,196,-4)" class="stroke_order_diagram--existing_path"></path><path id="pathSk2v596cnkjr" kvg:type="㇐" d="M13.37,42.85c2.26,0.4,5.11-0.01,6.67-0.19c6.53-0.78,17.81-2.81,24.6-3.87c1.39-0.22,3.43-0.43,4.84,0.04" transform="matrix(1,0,0,1,196,-4)" class="stroke_order_diagram--existing_path"></path><path id="kvg:079d2-s3" kvg:type="㇑" d="M33.33,23.91c0.7,0.7,1.16,2.22,1.16,3.2c0.06,0.79,0.02,43.22-0.03,62.02c-0.01,4.47-0.03,7.63-0.04,8.62" transform="matrix(1,0,0,1,196,-4)" class="stroke_order_diagram--current_path"></path><path id="pathSk2v596cnkjt" kvg:type="㇑" d="M33.33,23.91c0.7,0.7,1.16,2.22,1.16,3.2c0.06,0.79,0.02,43.22-0.03,62.02c-0.01,4.47-0.03,7.63-0.04,8.62" transform="matrix(1,0,0,1,196,-4)" class="stroke_order_diagram--current_path"></path><circle cx="33.33" cy="23.91" r="8" class="stroke_order_diagram--path_start" transform="matrix(1,0,0,1,196,-4)"></circle><line x1="350" x2="350" y1="1" y2="99" class="stroke_order_diagram--guide_line"></line><line x1="399" x2="399" y1="1" y2="99" class="stroke_order_diagram--bounding_box"></line><path id="pathSk2v596cnkjw" kvg:type="㇒" d="M43,12.75c-0.12,1-0.61,1.87-1.27,2.56c-3.07,3.27-13.91,8.58-26.61,12.44" transform="matrix(1,0,0,1,296,-4)" class="stroke_order_diagram--existing_path"></path><path id="pathSk2v596cnkjx" kvg:type="㇐" d="M13.37,42.85c2.26,0.4,5.11-0.01,6.67-0.19c6.53-0.78,17.81-2.81,24.6-3.87c1.39-0.22,3.43-0.43,4.84,0.04" transform="matrix(1,0,0,1,296,-4)" class="stroke_order_diagram--existing_path"></path><path id="pathSk2v596cnkjy" kvg:type="㇑" d="M33.33,23.91c0.7,0.7,1.16,2.22,1.16,3.2c0.06,0.79,0.02,43.22-0.03,62.02c-0.01,4.47-0.03,7.63-0.04,8.62" transform="matrix(1,0,0,1,296,-4)" class="stroke_order_diagram--existing_path"></path><path id="kvg:079d2-s4" kvg:type="㇒" d="M33.43,41.47c0,1.53-0.3,2.63-0.72,3.62c-4.52,10.68-11.6,23.18-20.96,31.66" transform="matrix(1,0,0,1,296,-4)" class="stroke_order_diagram--current_path"></path><path id="pathSk2v596cnkk0" kvg:type="㇒" d="M33.43,41.47c0,1.53-0.3,2.63-0.72,3.62c-4.52,10.68-11.6,23.18-20.96,31.66" transform="matrix(1,0,0,1,296,-4)" class="stroke_order_diagram--current_path"></path><circle cx="33.43" cy="41.47" r="8" class="stroke_order_diagram--path_start" transform="matrix(1,0,0,1,296,-4)"></circle><line x1="450" x2="450" y1="1" y2="99" class="stroke_order_diagram--guide_line"></line><line x1="499" x2="499" y1="1" y2="99" class="stroke_order_diagram--bounding_box"></line><path id="pathSk2v596cnkk3" kvg:type="㇒" d="M43,12.75c-0.12,1-0.61,1.87-1.27,2.56c-3.07,3.27-13.91,8.58-26.61,12.44" transform="matrix(1,0,0,1,396,-4)" class="stroke_order_diagram--existing_path"></path><path id="pathSk2v596cnkk4" kvg:type="㇐" d="M13.37,42.85c2.26,0.4,5.11-0.01,6.67-0.19c6.53-0.78,17.81-2.81,24.6-3.87c1.39-0.22,3.43-0.43,4.84,0.04" transform="matrix(1,0,0,1,396,-4)" class="stroke_order_diagram--existing_path"></path><path id="pathSk2v596cnkk5" kvg:type="㇑" d="M33.33,23.91c0.7,0.7,1.16,2.22,1.16,3.2c0.06,0.79,0.02,43.22-0.03,62.02c-0.01,4.47-0.03,7.63-0.04,8.62" transform="matrix(1,0,0,1,396,-4)" class="stroke_order_diagram--existing_path"></path><path id="pathSk2v596cnkk6" kvg:type="㇒" d="M33.43,41.47c0,1.53-0.3,2.63-0.72,3.62c-4.52,10.68-11.6,23.18-20.96,31.66" transform="matrix(1,0,0,1,396,-4)" class="stroke_order_diagram--existing_path"></path><path id="kvg:079d2-s5" kvg:type="㇔/㇏" d="M37.25,50.75c3.56,2.33,6.58,7,8.5,10" transform="matrix(1,0,0,1,396,-4)" class="stroke_order_diagram--current_path"></path><path id="pathSk2v596cnkk8" kvg:type="㇔/㇏" d="M37.25,50.75c3.56,2.33,6.58,7,8.5,10" transform="matrix(1,0,0,1,396,-4)" class="stroke_order_diagram--current_path"></path><circle cx="37.25" cy="50.75" r="8" class="stroke_order_diagram--path_start" transform="matrix(1,0,0,1,396,-4)"></circle><line x1="550" x2="550" y1="1" y2="99" class="stroke_order_diagram--guide_line"></line><line x1="599" x2="599" y1="1" y2="99" class="stroke_order_diagram--bounding_box"></line><path id="pathSk2v596cnkkb" kvg:type="㇒" d="M43,12.75c-0.12,1-0.61,1.87-1.27,2.56c-3.07,3.27-13.91,8.58-26.61,12.44" transform="matrix(1,0,0,1,496,-4)" class="stroke_order_diagram--existing_path"></path><path id="pathSk2v596cnkkc" kvg:type="㇐" d="M13.37,42.85c2.26,0.4,5.11-0.01,6.67-0.19c6.53-0.78,17.81-2.81,24.6-3.87c1.39-0.22,3.43-0.43,4.84,0.04" transform="matrix(1,0,0,1,496,-4)" class="stroke_order_diagram--existing_path"></path><path id="pathSk2v596cnkkd" kvg:type="㇑" d="M33.33,23.91c0.7,0.7,1.16,2.22,1.16,3.2c0.06,0.79,0.02,43.22-0.03,62.02c-0.01,4.47-0.03,7.63-0.04,8.62" transform="matrix(1,0,0,1,496,-4)" class="stroke_order_diagram--existing_path"></path><path id="pathSk2v596cnkke" kvg:type="㇒" d="M33.43,41.47c0,1.53-0.3,2.63-0.72,3.62c-4.52,10.68-11.6,23.18-20.96,31.66" transform="matrix(1,0,0,1,496,-4)" class="stroke_order_diagram--existing_path"></path><path id="pathSk2v596cnkkf" kvg:type="㇔/㇏" d="M37.25,50.75c3.56,2.33,6.58,7,8.5,10" transform="matrix(1,0,0,1,496,-4)" class="stroke_order_diagram--existing_path"></path><path id="kvg:079d2-s6" kvg:type="㇚" d="M72.11,15.25c1.01,1.01,1.46,2.25,1.46,3.96c0,10.67-0.2,33.54-0.2,37.04c0,8.5-5.53,0.51-6.69-0.33" transform="matrix(1,0,0,1,496,-4)" class="stroke_order_diagram--current_path"></path><path id="pathSk2v596cnkkh" kvg:type="㇚" d="M72.11,15.25c1.01,1.01,1.46,2.25,1.46,3.96c0,10.67-0.2,33.54-0.2,37.04c0,8.5-5.53,0.51-6.69-0.33" transform="matrix(1,0,0,1,496,-4)" class="stroke_order_diagram--current_path"></path><circle cx="72.11" cy="15.25" r="8" class="stroke_order_diagram--path_start" transform="matrix(1,0,0,1,496,-4)"></circle><line x1="650" x2="650" y1="1" y2="99" class="stroke_order_diagram--guide_line"></line><line x1="699" x2="699" y1="1" y2="99" class="stroke_order_diagram--bounding_box"></line><path id="pathSk2v596cnkkk" kvg:type="㇒" d="M43,12.75c-0.12,1-0.61,1.87-1.27,2.56c-3.07,3.27-13.91,8.58-26.61,12.44" transform="matrix(1,0,0,1,596,-4)" class="stroke_order_diagram--existing_path"></path><path id="pathSk2v596cnkkl" kvg:type="㇐" d="M13.37,42.85c2.26,0.4,5.11-0.01,6.67-0.19c6.53-0.78,17.81-2.81,24.6-3.87c1.39-0.22,3.43-0.43,4.84,0.04" transform="matrix(1,0,0,1,596,-4)" class="stroke_order_diagram--existing_path"></path><path id="pathSk2v596cnkkm" kvg:type="㇑" d="M33.33,23.91c0.7,0.7,1.16,2.22,1.16,3.2c0.06,0.79,0.02,43.22-0.03,62.02c-0.01,4.47-0.03,7.63-0.04,8.62" transform="matrix(1,0,0,1,596,-4)" class="stroke_order_diagram--existing_path"></path><path id="pathSk2v596cnkkn" kvg:type="㇒" d="M33.43,41.47c0,1.53-0.3,2.63-0.72,3.62c-4.52,10.68-11.6,23.18-20.96,31.66" transform="matrix(1,0,0,1,596,-4)" class="stroke_order_diagram--existing_path"></path><path id="pathSk2v596cnkko" kvg:type="㇔/㇏" d="M37.25,50.75c3.56,2.33,6.58,7,8.5,10" transform="matrix(1,0,0,1,596,-4)" class="stroke_order_diagram--existing_path"></path><path id="pathSk2v596cnkkp" kvg:type="㇚" d="M72.11,15.25c1.01,1.01,1.46,2.25,1.46,3.96c0,10.67-0.2,33.54-0.2,37.04c0,8.5-5.53,0.51-6.69-0.33" transform="matrix(1,0,0,1,596,-4)" class="stroke_order_diagram--existing_path"></path><path id="kvg:079d2-s7" kvg:type="㇒" d="M61.7,33.69c0.03,0.45,0.13,1.18-0.07,1.81c-1.4,4.49-6.41,12.65-11.21,16.79" transform="matrix(1,0,0,1,596,-4)" class="stroke_order_diagram--current_path"></path><path id="pathSk2v596cnkkr" kvg:type="㇒" d="M61.7,33.69c0.03,0.45,0.13,1.18-0.07,1.81c-1.4,4.49-6.41,12.65-11.21,16.79" transform="matrix(1,0,0,1,596,-4)" class="stroke_order_diagram--current_path"></path><circle cx="61.7" cy="33.69" r="8" class="stroke_order_diagram--path_start" transform="matrix(1,0,0,1,596,-4)"></circle><line x1="750" x2="750" y1="1" y2="99" class="stroke_order_diagram--guide_line"></line><line x1="799" x2="799" y1="1" y2="99" class="stroke_order_diagram--bounding_box"></line><path id="pathSk2v596cnkku" kvg:type="㇒" d="M43,12.75c-0.12,1-0.61,1.87-1.27,2.56c-3.07,3.27-13.91,8.58-26.61,12.44" transform="matrix(1,0,0,1,696,-4)" class="stroke_order_diagram--existing_path"></path><path id="pathSk2v596cnkkv" kvg:type="㇐" d="M13.37,42.85c2.26,0.4,5.11-0.01,6.67-0.19c6.53-0.78,17.81-2.81,24.6-3.87c1.39-0.22,3.43-0.43,4.84,0.04" transform="matrix(1,0,0,1,696,-4)" class="stroke_order_diagram--existing_path"></path><path id="pathSk2v596cnkkw" kvg:type="㇑" d="M33.33,23.91c0.7,0.7,1.16,2.22,1.16,3.2c0.06,0.79,0.02,43.22-0.03,62.02c-0.01,4.47-0.03,7.63-0.04,8.62" transform="matrix(1,0,0,1,696,-4)" class="stroke_order_diagram--existing_path"></path><path id="pathSk2v596cnkkx" kvg:type="㇒" d="M33.43,41.47c0,1.53-0.3,2.63-0.72,3.62c-4.52,10.68-11.6,23.18-20.96,31.66" transform="matrix(1,0,0,1,696,-4)" class="stroke_order_diagram--existing_path"></path><path id="pathSk2v596cnkky" kvg:type="㇔/㇏" d="M37.25,50.75c3.56,2.33,6.58,7,8.5,10" transform="matrix(1,0,0,1,696,-4)" class="stroke_order_diagram--existing_path"></path><path id="pathSk2v596cnkkz" kvg:type="㇚" d="M72.11,15.25c1.01,1.01,1.46,2.25,1.46,3.96c0,10.67-0.2,33.54-0.2,37.04c0,8.5-5.53,0.51-6.69-0.33" transform="matrix(1,0,0,1,696,-4)" class="stroke_order_diagram--existing_path"></path><path id="pathSk2v596cnkl0" kvg:type="㇒" d="M61.7,33.69c0.03,0.45,0.13,1.18-0.07,1.81c-1.4,4.49-6.41,12.65-11.21,16.79" transform="matrix(1,0,0,1,696,-4)" class="stroke_order_diagram--existing_path"></path><path id="kvg:079d2-s8" kvg:type="㇔" d="M86.68,30.98c4.47,2.95,10.46,10.53,11.57,15.12" transform="matrix(1,0,0,1,696,-4)" class="stroke_order_diagram--current_path"></path><path id="pathSk2v596cnkl2" kvg:type="㇔" d="M86.68,30.98c4.47,2.95,10.46,10.53,11.57,15.12" transform="matrix(1,0,0,1,696,-4)" class="stroke_order_diagram--current_path"></path><circle cx="86.68" cy="30.98" r="8" class="stroke_order_diagram--path_start" transform="matrix(1,0,0,1,696,-4)"></circle><line x1="850" x2="850" y1="1" y2="99" class="stroke_order_diagram--guide_line"></line><line x1="899" x2="899" y1="1" y2="99" class="stroke_order_diagram--bounding_box"></line><path id="pathSk2v596cnkl5" kvg:type="㇒" d="M43,12.75c-0.12,1-0.61,1.87-1.27,2.56c-3.07,3.27-13.91,8.58-26.61,12.44" transform="matrix(1,0,0,1,796,-4)" class="stroke_order_diagram--existing_path"></path><path id="pathSk2v596cnkl6" kvg:type="㇐" d="M13.37,42.85c2.26,0.4,5.11-0.01,6.67-0.19c6.53-0.78,17.81-2.81,24.6-3.87c1.39-0.22,3.43-0.43,4.84,0.04" transform="matrix(1,0,0,1,796,-4)" class="stroke_order_diagram--existing_path"></path><path id="pathSk2v596cnkl7" kvg:type="㇑" d="M33.33,23.91c0.7,0.7,1.16,2.22,1.16,3.2c0.06,0.79,0.02,43.22-0.03,62.02c-0.01,4.47-0.03,7.63-0.04,8.62" transform="matrix(1,0,0,1,796,-4)" class="stroke_order_diagram--existing_path"></path><path id="pathSk2v596cnkl8" kvg:type="㇒" d="M33.43,41.47c0,1.53-0.3,2.63-0.72,3.62c-4.52,10.68-11.6,23.18-20.96,31.66" transform="matrix(1,0,0,1,796,-4)" class="stroke_order_diagram--existing_path"></path><path id="pathSk2v596cnkl9" kvg:type="㇔/㇏" d="M37.25,50.75c3.56,2.33,6.58,7,8.5,10" transform="matrix(1,0,0,1,796,-4)" class="stroke_order_diagram--existing_path"></path><path id="pathSk2v596cnkla" kvg:type="㇚" d="M72.11,15.25c1.01,1.01,1.46,2.25,1.46,3.96c0,10.67-0.2,33.54-0.2,37.04c0,8.5-5.53,0.51-6.69-0.33" transform="matrix(1,0,0,1,796,-4)" class="stroke_order_diagram--existing_path"></path><path id="pathSk2v596cnklb" kvg:type="㇒" d="M61.7,33.69c0.03,0.45,0.13,1.18-0.07,1.81c-1.4,4.49-6.41,12.65-11.21,16.79" transform="matrix(1,0,0,1,796,-4)" class="stroke_order_diagram--existing_path"></path><path id="pathSk2v596cnklc" kvg:type="㇔" d="M86.68,30.98c4.47,2.95,10.46,10.53,11.57,15.12" transform="matrix(1,0,0,1,796,-4)" class="stroke_order_diagram--existing_path"></path><path id="kvg:079d2-s9" kvg:type="㇒" d="M86.55,48.47c0.1,1.15,0.07,2.99-0.46,4.61c-4.46,13.67-19.71,33.54-37.61,43.67" transform="matrix(1,0,0,1,796,-4)" class="stroke_order_diagram--current_path"></path><path id="pathSk2v596cnkle" kvg:type="㇒" d="M86.55,48.47c0.1,1.15,0.07,2.99-0.46,4.61c-4.46,13.67-19.71,33.54-37.61,43.67" transform="matrix(1,0,0,1,796,-4)" class="stroke_order_diagram--current_path"></path><circle cx="86.55" cy="48.47" r="8" class="stroke_order_diagram--path_start" transform="matrix(1,0,0,1,796,-4)"></circle></svg>