<svg style="width: 800px; height: 100px;" viewbox="0 0 800 100"><style>
.stroke_order_diagram--outer_container {
  width: 100%;
  overflow-x: auto;
  overflow-y: hidden;
}

.stroke_order_diagram--guide_line {
  fill: none;
  stroke: #ddd;
  stroke-width: 3;
  stroke-linecap: square;
  stroke-linejoin: square;
  stroke-dasharray:8, 8;
}

.stroke_order_diagram--bounding_box {
  fill: none;
  stroke: #ddd;
  stroke-width: 4;
  stroke-linecap: square;
  stroke-linejoin: square;
}

.stroke_order_diagram--current_path {
  fill: none;
  stroke: #000;
  stroke-width: 6;
  stroke-linecap: round;
  stroke-linejoin: round;
}

.stroke_order_diagram--existing_path {
  fill: none;
  stroke: #aaa;
  stroke-width: 6;
  stroke-linecap: round;
  stroke-linejoin:round;
}

.stroke_order_diagram--path_start {
  fill: rgba(255, 0, 0, 0.7);
  stroke:none
}</style><desc>Created with Snap</desc><defs></defs><line x1="1" x2="799" y1="1" y2="1" class="stroke_order_diagram--bounding_box"></line><line x1="1" x2="1" y1="1" y2="99" class="stroke_order_diagram--bounding_box"></line><line x1="1" x2="799" y1="99" y2="99" class="stroke_order_diagram--bounding_box"></line><line x1="0" x2="800" y1="50" y2="50" class="stroke_order_diagram--guide_line"></line><line x1="50" x2="50" y1="1" y2="99" class="stroke_order_diagram--guide_line"></line><line x1="99" x2="99" y1="1" y2="99" class="stroke_order_diagram--bounding_box"></line><path id="kvg:07a81-s1" kvg:type="㇑a" d="M52.29,12.75c1.04,1.04,1.45,2.12,1.45,3.45c0,3.09-0.08,3.77-0.08,6.58" transform="matrix(1,0,0,1,-4,-4)" class="stroke_order_diagram--current_path"></path><path id="pathSk2v596cn1rmg" kvg:type="㇑a" d="M52.29,12.75c1.04,1.04,1.45,2.12,1.45,3.45c0,3.09-0.08,3.77-0.08,6.58" transform="matrix(1,0,0,1,-4,-4)" class="stroke_order_diagram--current_path"></path><circle cx="52.29" cy="12.75" r="8" class="stroke_order_diagram--path_start" transform="matrix(1,0,0,1,-4,-4)"></circle><line x1="150" x2="150" y1="1" y2="99" class="stroke_order_diagram--guide_line"></line><line x1="199" x2="199" y1="1" y2="99" class="stroke_order_diagram--bounding_box"></line><path id="pathSk2v596cn1rmj" kvg:type="㇑a" d="M52.29,12.75c1.04,1.04,1.45,2.12,1.45,3.45c0,3.09-0.08,3.77-0.08,6.58" transform="matrix(1,0,0,1,96,-4)" class="stroke_order_diagram--existing_path"></path><path id="kvg:07a81-s2" kvg:type="㇔" d="M20.62,24.38c0,4.23-2.2,15.86-3.2,18.68" transform="matrix(1,0,0,1,96,-4)" class="stroke_order_diagram--current_path"></path><path id="pathSk2v596cn1rml" kvg:type="㇔" d="M20.62,24.38c0,4.23-2.2,15.86-3.2,18.68" transform="matrix(1,0,0,1,96,-4)" class="stroke_order_diagram--current_path"></path><circle cx="20.62" cy="24.38" r="8" class="stroke_order_diagram--path_start" transform="matrix(1,0,0,1,96,-4)"></circle><line x1="250" x2="250" y1="1" y2="99" class="stroke_order_diagram--guide_line"></line><line x1="299" x2="299" y1="1" y2="99" class="stroke_order_diagram--bounding_box"></line><path id="pathSk2v596cn1rmo" kvg:type="㇑a" d="M52.29,12.75c1.04,1.04,1.45,2.12,1.45,3.45c0,3.09-0.08,3.77-0.08,6.58" transform="matrix(1,0,0,1,196,-4)" class="stroke_order_diagram--existing_path"></path><path id="pathSk2v596cn1rmp" kvg:type="㇔" d="M20.62,24.38c0,4.23-2.2,15.86-3.2,18.68" transform="matrix(1,0,0,1,196,-4)" class="stroke_order_diagram--existing_path"></path><path id="kvg:07a81-s3" kvg:type="㇖b" d="M21.57,27.61c16.18-2.36,43.06-5.11,61.29-5.58c14.41-0.37,4.39,6.72,0.99,8.73" transform="matrix(1,0,0,1,196,-4)" class="stroke_order_diagram--current_path"></path><path id="pathSk2v596cn1rmr" kvg:type="㇖b" d="M21.57,27.61c16.18-2.36,43.06-5.11,61.29-5.58c14.41-0.37,4.39,6.72,0.99,8.73" transform="matrix(1,0,0,1,196,-4)" class="stroke_order_diagram--current_path"></path><circle cx="21.57" cy="27.61" r="8" class="stroke_order_diagram--path_start" transform="matrix(1,0,0,1,196,-4)"></circle><line x1="350" x2="350" y1="1" y2="99" class="stroke_order_diagram--guide_line"></line><line x1="399" x2="399" y1="1" y2="99" class="stroke_order_diagram--bounding_box"></line><path id="pathSk2v596cn1rmu" kvg:type="㇑a" d="M52.29,12.75c1.04,1.04,1.45,2.12,1.45,3.45c0,3.09-0.08,3.77-0.08,6.58" transform="matrix(1,0,0,1,296,-4)" class="stroke_order_diagram--existing_path"></path><path id="pathSk2v596cn1rmv" kvg:type="㇔" d="M20.62,24.38c0,4.23-2.2,15.86-3.2,18.68" transform="matrix(1,0,0,1,296,-4)" class="stroke_order_diagram--existing_path"></path><path id="pathSk2v596cn1rmw" kvg:type="㇖b" d="M21.57,27.61c16.18-2.36,43.06-5.11,61.29-5.58c14.41-0.37,4.39,6.72,0.99,8.73" transform="matrix(1,0,0,1,296,-4)" class="stroke_order_diagram--existing_path"></path><path id="kvg:07a81-s4" kvg:type="㇒" d="M38.51,35.51c0.09,0.52-0.07,1.37-0.43,2.09C34.86,44.05,31,50.38,22.5,55.62" transform="matrix(1,0,0,1,296,-4)" class="stroke_order_diagram--current_path"></path><path id="pathSk2v596cn1rmy" kvg:type="㇒" d="M38.51,35.51c0.09,0.52-0.07,1.37-0.43,2.09C34.86,44.05,31,50.38,22.5,55.62" transform="matrix(1,0,0,1,296,-4)" class="stroke_order_diagram--current_path"></path><circle cx="38.51" cy="35.51" r="8" class="stroke_order_diagram--path_start" transform="matrix(1,0,0,1,296,-4)"></circle><line x1="450" x2="450" y1="1" y2="99" class="stroke_order_diagram--guide_line"></line><line x1="499" x2="499" y1="1" y2="99" class="stroke_order_diagram--bounding_box"></line><path id="pathSk2v596cn1rn1" kvg:type="㇑a" d="M52.29,12.75c1.04,1.04,1.45,2.12,1.45,3.45c0,3.09-0.08,3.77-0.08,6.58" transform="matrix(1,0,0,1,396,-4)" class="stroke_order_diagram--existing_path"></path><path id="pathSk2v596cn1rn2" kvg:type="㇔" d="M20.62,24.38c0,4.23-2.2,15.86-3.2,18.68" transform="matrix(1,0,0,1,396,-4)" class="stroke_order_diagram--existing_path"></path><path id="pathSk2v596cn1rn3" kvg:type="㇖b" d="M21.57,27.61c16.18-2.36,43.06-5.11,61.29-5.58c14.41-0.37,4.39,6.72,0.99,8.73" transform="matrix(1,0,0,1,396,-4)" class="stroke_order_diagram--existing_path"></path><path id="pathSk2v596cn1rn4" kvg:type="㇒" d="M38.51,35.51c0.09,0.52-0.07,1.37-0.43,2.09C34.86,44.05,31,50.38,22.5,55.62" transform="matrix(1,0,0,1,396,-4)" class="stroke_order_diagram--existing_path"></path><path id="kvg:07a81-s5" kvg:type="㇟a/㇏" d="M60.26,31.98c0.94,0.94,1.18,1.91,1.24,3.09c0.25,5.25,0,2.43,0,5.93c0,4.75,1,6.25,10.5,6.25c7.25,0,11-0.25,12.25-1.75" transform="matrix(1,0,0,1,396,-4)" class="stroke_order_diagram--current_path"></path><path id="pathSk2v596cn1rn6" kvg:type="㇟a/㇏" d="M60.26,31.98c0.94,0.94,1.18,1.91,1.24,3.09c0.25,5.25,0,2.43,0,5.93c0,4.75,1,6.25,10.5,6.25c7.25,0,11-0.25,12.25-1.75" transform="matrix(1,0,0,1,396,-4)" class="stroke_order_diagram--current_path"></path><circle cx="60.26" cy="31.98" r="8" class="stroke_order_diagram--path_start" transform="matrix(1,0,0,1,396,-4)"></circle><line x1="550" x2="550" y1="1" y2="99" class="stroke_order_diagram--guide_line"></line><line x1="599" x2="599" y1="1" y2="99" class="stroke_order_diagram--bounding_box"></line><path id="pathSk2v596cn1rn9" kvg:type="㇑a" d="M52.29,12.75c1.04,1.04,1.45,2.12,1.45,3.45c0,3.09-0.08,3.77-0.08,6.58" transform="matrix(1,0,0,1,496,-4)" class="stroke_order_diagram--existing_path"></path><path id="pathSk2v596cn1rna" kvg:type="㇔" d="M20.62,24.38c0,4.23-2.2,15.86-3.2,18.68" transform="matrix(1,0,0,1,496,-4)" class="stroke_order_diagram--existing_path"></path><path id="pathSk2v596cn1rnb" kvg:type="㇖b" d="M21.57,27.61c16.18-2.36,43.06-5.11,61.29-5.58c14.41-0.37,4.39,6.72,0.99,8.73" transform="matrix(1,0,0,1,496,-4)" class="stroke_order_diagram--existing_path"></path><path id="pathSk2v596cn1rnc" kvg:type="㇒" d="M38.51,35.51c0.09,0.52-0.07,1.37-0.43,2.09C34.86,44.05,31,50.38,22.5,55.62" transform="matrix(1,0,0,1,496,-4)" class="stroke_order_diagram--existing_path"></path><path id="pathSk2v596cn1rnd" kvg:type="㇟a/㇏" d="M60.26,31.98c0.94,0.94,1.18,1.91,1.24,3.09c0.25,5.25,0,2.43,0,5.93c0,4.75,1,6.25,10.5,6.25c7.25,0,11-0.25,12.25-1.75" transform="matrix(1,0,0,1,496,-4)" class="stroke_order_diagram--existing_path"></path><path id="kvg:07a81-s6" kvg:type="㇐" d="M25.23,67.43c3.14,0.69,6.06,0.41,8.62,0.13c13.28-1.48,29.6-3.33,41.65-4.14c2.76-0.19,5.48-0.35,8.21,0.22" transform="matrix(1,0,0,1,496,-4)" class="stroke_order_diagram--current_path"></path><path id="pathSk2v596cn1rnf" kvg:type="㇐" d="M25.23,67.43c3.14,0.69,6.06,0.41,8.62,0.13c13.28-1.48,29.6-3.33,41.65-4.14c2.76-0.19,5.48-0.35,8.21,0.22" transform="matrix(1,0,0,1,496,-4)" class="stroke_order_diagram--current_path"></path><circle cx="25.23" cy="67.43" r="8" class="stroke_order_diagram--path_start" transform="matrix(1,0,0,1,496,-4)"></circle><line x1="650" x2="650" y1="1" y2="99" class="stroke_order_diagram--guide_line"></line><line x1="699" x2="699" y1="1" y2="99" class="stroke_order_diagram--bounding_box"></line><path id="pathSk2v596cn1rni" kvg:type="㇑a" d="M52.29,12.75c1.04,1.04,1.45,2.12,1.45,3.45c0,3.09-0.08,3.77-0.08,6.58" transform="matrix(1,0,0,1,596,-4)" class="stroke_order_diagram--existing_path"></path><path id="pathSk2v596cn1rnj" kvg:type="㇔" d="M20.62,24.38c0,4.23-2.2,15.86-3.2,18.68" transform="matrix(1,0,0,1,596,-4)" class="stroke_order_diagram--existing_path"></path><path id="pathSk2v596cn1rnk" kvg:type="㇖b" d="M21.57,27.61c16.18-2.36,43.06-5.11,61.29-5.58c14.41-0.37,4.39,6.72,0.99,8.73" transform="matrix(1,0,0,1,596,-4)" class="stroke_order_diagram--existing_path"></path><path id="pathSk2v596cn1rnl" kvg:type="㇒" d="M38.51,35.51c0.09,0.52-0.07,1.37-0.43,2.09C34.86,44.05,31,50.38,22.5,55.62" transform="matrix(1,0,0,1,596,-4)" class="stroke_order_diagram--existing_path"></path><path id="pathSk2v596cn1rnm" kvg:type="㇟a/㇏" d="M60.26,31.98c0.94,0.94,1.18,1.91,1.24,3.09c0.25,5.25,0,2.43,0,5.93c0,4.75,1,6.25,10.5,6.25c7.25,0,11-0.25,12.25-1.75" transform="matrix(1,0,0,1,596,-4)" class="stroke_order_diagram--existing_path"></path><path id="pathSk2v596cn1rnn" kvg:type="㇐" d="M25.23,67.43c3.14,0.69,6.06,0.41,8.62,0.13c13.28-1.48,29.6-3.33,41.65-4.14c2.76-0.19,5.48-0.35,8.21,0.22" transform="matrix(1,0,0,1,596,-4)" class="stroke_order_diagram--existing_path"></path><path id="kvg:07a81-s7" kvg:type="㇒" d="M50.97,49.28c0.51,0.68,0.78,1.46,0.76,2.93C51.38,76.88,40.62,89.5,19.5,99" transform="matrix(1,0,0,1,596,-4)" class="stroke_order_diagram--current_path"></path><path id="pathSk2v596cn1rnp" kvg:type="㇒" d="M50.97,49.28c0.51,0.68,0.78,1.46,0.76,2.93C51.38,76.88,40.62,89.5,19.5,99" transform="matrix(1,0,0,1,596,-4)" class="stroke_order_diagram--current_path"></path><circle cx="50.97" cy="49.28" r="8" class="stroke_order_diagram--path_start" transform="matrix(1,0,0,1,596,-4)"></circle><line x1="750" x2="750" y1="1" y2="99" class="stroke_order_diagram--guide_line"></line><line x1="799" x2="799" y1="1" y2="99" class="stroke_order_diagram--bounding_box"></line><path id="pathSk2v596cn1rns" kvg:type="㇑a" d="M52.29,12.75c1.04,1.04,1.45,2.12,1.45,3.45c0,3.09-0.08,3.77-0.08,6.58" transform="matrix(1,0,0,1,696,-4)" class="stroke_order_diagram--existing_path"></path><path id="pathSk2v596cn1rnt" kvg:type="㇔" d="M20.62,24.38c0,4.23-2.2,15.86-3.2,18.68" transform="matrix(1,0,0,1,696,-4)" class="stroke_order_diagram--existing_path"></path><path id="pathSk2v596cn1rnu" kvg:type="㇖b" d="M21.57,27.61c16.18-2.36,43.06-5.11,61.29-5.58c14.41-0.37,4.39,6.72,0.99,8.73" transform="matrix(1,0,0,1,696,-4)" class="stroke_order_diagram--existing_path"></path><path id="pathSk2v596cn1rnv" kvg:type="㇒" d="M38.51,35.51c0.09,0.52-0.07,1.37-0.43,2.09C34.86,44.05,31,50.38,22.5,55.62" transform="matrix(1,0,0,1,696,-4)" class="stroke_order_diagram--existing_path"></path><path id="pathSk2v596cn1rnw" kvg:type="㇟a/㇏" d="M60.26,31.98c0.94,0.94,1.18,1.91,1.24,3.09c0.25,5.25,0,2.43,0,5.93c0,4.75,1,6.25,10.5,6.25c7.25,0,11-0.25,12.25-1.75" transform="matrix(1,0,0,1,696,-4)" class="stroke_order_diagram--existing_path"></path><path id="pathSk2v596cn1rnx" kvg:type="㇐" d="M25.23,67.43c3.14,0.69,6.06,0.41,8.62,0.13c13.28-1.48,29.6-3.33,41.65-4.14c2.76-0.19,5.48-0.35,8.21,0.22" transform="matrix(1,0,0,1,696,-4)" class="stroke_order_diagram--existing_path"></path><path id="pathSk2v596cn1rny" kvg:type="㇒" d="M50.97,49.28c0.51,0.68,0.78,1.46,0.76,2.93C51.38,76.88,40.62,89.5,19.5,99" transform="matrix(1,0,0,1,696,-4)" class="stroke_order_diagram--existing_path"></path><path id="kvg:07a81-s8" kvg:type="㇏" d="M52.29,67.33c7.61,7.06,19.56,18.06,27.96,24.18c2.62,1.91,5.39,3.58,8.25,5.11" transform="matrix(1,0,0,1,696,-4)" class="stroke_order_diagram--current_path"></path><path id="pathSk2v596cn1ro0" kvg:type="㇏" d="M52.29,67.33c7.61,7.06,19.56,18.06,27.96,24.18c2.62,1.91,5.39,3.58,8.25,5.11" transform="matrix(1,0,0,1,696,-4)" class="stroke_order_diagram--current_path"></path><circle cx="52.29" cy="67.33" r="8" class="stroke_order_diagram--path_start" transform="matrix(1,0,0,1,696,-4)"></circle></svg>