<svg style="width: 1300px; height: 100px;" viewbox="0 0 1300 100"><style>
.stroke_order_diagram--outer_container {
  width: 100%;
  overflow-x: auto;
  overflow-y: hidden;
}

.stroke_order_diagram--guide_line {
  fill: none;
  stroke: #ddd;
  stroke-width: 3;
  stroke-linecap: square;
  stroke-linejoin: square;
  stroke-dasharray:8, 8;
}

.stroke_order_diagram--bounding_box {
  fill: none;
  stroke: #ddd;
  stroke-width: 4;
  stroke-linecap: square;
  stroke-linejoin: square;
}

.stroke_order_diagram--current_path {
  fill: none;
  stroke: #000;
  stroke-width: 6;
  stroke-linecap: round;
  stroke-linejoin: round;
}

.stroke_order_diagram--existing_path {
  fill: none;
  stroke: #aaa;
  stroke-width: 6;
  stroke-linecap: round;
  stroke-linejoin:round;
}

.stroke_order_diagram--path_start {
  fill: rgba(255, 0, 0, 0.7);
  stroke:none
}</style><desc>Created with Snap</desc><defs></defs><line x1="1" x2="1299" y1="1" y2="1" class="stroke_order_diagram--bounding_box"></line><line x1="1" x2="1" y1="1" y2="99" class="stroke_order_diagram--bounding_box"></line><line x1="1" x2="1299" y1="99" y2="99" class="stroke_order_diagram--bounding_box"></line><line x1="0" x2="1300" y1="50" y2="50" class="stroke_order_diagram--guide_line"></line><line x1="50" x2="50" y1="1" y2="99" class="stroke_order_diagram--guide_line"></line><line x1="99" x2="99" y1="1" y2="99" class="stroke_order_diagram--bounding_box"></line><path id="kvg:07bc0-s1" kvg:type="㇒" d="M29.5,12c0.03,0.46,0.15,1.22-0.07,1.87C27.88,18.5,23.75,25.62,17,32.25" transform="matrix(1,0,0,1,-4,-4)" class="stroke_order_diagram--current_path"></path><path id="pathSk2v596cn178g" kvg:type="㇒" d="M29.5,12c0.03,0.46,0.15,1.22-0.07,1.87C27.88,18.5,23.75,25.62,17,32.25" transform="matrix(1,0,0,1,-4,-4)" class="stroke_order_diagram--current_path"></path><circle cx="29.5" cy="12" r="8" class="stroke_order_diagram--path_start" transform="matrix(1,0,0,1,-4,-4)"></circle><line x1="150" x2="150" y1="1" y2="99" class="stroke_order_diagram--guide_line"></line><line x1="199" x2="199" y1="1" y2="99" class="stroke_order_diagram--bounding_box"></line><path id="pathSk2v596cn178j" kvg:type="㇒" d="M29.5,12c0.03,0.46,0.15,1.22-0.07,1.87C27.88,18.5,23.75,25.62,17,32.25" transform="matrix(1,0,0,1,96,-4)" class="stroke_order_diagram--existing_path"></path><path id="kvg:07bc0-s2" kvg:type="㇐b" d="M29.48,21.54c3.03,0,12.44-1.44,18.15-1.88c1.28-0.1,2.62-0.03,3.37,0.09" transform="matrix(1,0,0,1,96,-4)" class="stroke_order_diagram--current_path"></path><path id="pathSk2v596cn178l" kvg:type="㇐b" d="M29.48,21.54c3.03,0,12.44-1.44,18.15-1.88c1.28-0.1,2.62-0.03,3.37,0.09" transform="matrix(1,0,0,1,96,-4)" class="stroke_order_diagram--current_path"></path><circle cx="29.48" cy="21.54" r="8" class="stroke_order_diagram--path_start" transform="matrix(1,0,0,1,96,-4)"></circle><line x1="250" x2="250" y1="1" y2="99" class="stroke_order_diagram--guide_line"></line><line x1="299" x2="299" y1="1" y2="99" class="stroke_order_diagram--bounding_box"></line><path id="pathSk2v596cn178o" kvg:type="㇒" d="M29.5,12c0.03,0.46,0.15,1.22-0.07,1.87C27.88,18.5,23.75,25.62,17,32.25" transform="matrix(1,0,0,1,196,-4)" class="stroke_order_diagram--existing_path"></path><path id="pathSk2v596cn178p" kvg:type="㇐b" d="M29.48,21.54c3.03,0,12.44-1.44,18.15-1.88c1.28-0.1,2.62-0.03,3.37,0.09" transform="matrix(1,0,0,1,196,-4)" class="stroke_order_diagram--existing_path"></path><path id="kvg:07bc0-s3" kvg:type="㇔/㇑" d="M35.02,24.33c1.6,1.44,5.14,6.9,5.54,9.13" transform="matrix(1,0,0,1,196,-4)" class="stroke_order_diagram--current_path"></path><path id="pathSk2v596cn178r" kvg:type="㇔/㇑" d="M35.02,24.33c1.6,1.44,5.14,6.9,5.54,9.13" transform="matrix(1,0,0,1,196,-4)" class="stroke_order_diagram--current_path"></path><circle cx="35.02" cy="24.33" r="8" class="stroke_order_diagram--path_start" transform="matrix(1,0,0,1,196,-4)"></circle><line x1="350" x2="350" y1="1" y2="99" class="stroke_order_diagram--guide_line"></line><line x1="399" x2="399" y1="1" y2="99" class="stroke_order_diagram--bounding_box"></line><path id="pathSk2v596cn178u" kvg:type="㇒" d="M29.5,12c0.03,0.46,0.15,1.22-0.07,1.87C27.88,18.5,23.75,25.62,17,32.25" transform="matrix(1,0,0,1,296,-4)" class="stroke_order_diagram--existing_path"></path><path id="pathSk2v596cn178v" kvg:type="㇐b" d="M29.48,21.54c3.03,0,12.44-1.44,18.15-1.88c1.28-0.1,2.62-0.03,3.37,0.09" transform="matrix(1,0,0,1,296,-4)" class="stroke_order_diagram--existing_path"></path><path id="pathSk2v596cn178w" kvg:type="㇔/㇑" d="M35.02,24.33c1.6,1.44,5.14,6.9,5.54,9.13" transform="matrix(1,0,0,1,296,-4)" class="stroke_order_diagram--existing_path"></path><path id="kvg:07bc0-s4" kvg:type="㇒" d="M64,10c0.03,0.4,0.11,1.04-0.05,1.6c-1.22,4.2-5.73,11.86-10.2,17.02" transform="matrix(1,0,0,1,296,-4)" class="stroke_order_diagram--current_path"></path><path id="pathSk2v596cn178y" kvg:type="㇒" d="M64,10c0.03,0.4,0.11,1.04-0.05,1.6c-1.22,4.2-5.73,11.86-10.2,17.02" transform="matrix(1,0,0,1,296,-4)" class="stroke_order_diagram--current_path"></path><circle cx="64" cy="10" r="8" class="stroke_order_diagram--path_start" transform="matrix(1,0,0,1,296,-4)"></circle><line x1="450" x2="450" y1="1" y2="99" class="stroke_order_diagram--guide_line"></line><line x1="499" x2="499" y1="1" y2="99" class="stroke_order_diagram--bounding_box"></line><path id="pathSk2v596cn1791" kvg:type="㇒" d="M29.5,12c0.03,0.46,0.15,1.22-0.07,1.87C27.88,18.5,23.75,25.62,17,32.25" transform="matrix(1,0,0,1,396,-4)" class="stroke_order_diagram--existing_path"></path><path id="pathSk2v596cn1792" kvg:type="㇐b" d="M29.48,21.54c3.03,0,12.44-1.44,18.15-1.88c1.28-0.1,2.62-0.03,3.37,0.09" transform="matrix(1,0,0,1,396,-4)" class="stroke_order_diagram--existing_path"></path><path id="pathSk2v596cn1793" kvg:type="㇔/㇑" d="M35.02,24.33c1.6,1.44,5.14,6.9,5.54,9.13" transform="matrix(1,0,0,1,396,-4)" class="stroke_order_diagram--existing_path"></path><path id="pathSk2v596cn1794" kvg:type="㇒" d="M64,10c0.03,0.4,0.11,1.04-0.05,1.6c-1.22,4.2-5.73,11.86-10.2,17.02" transform="matrix(1,0,0,1,396,-4)" class="stroke_order_diagram--existing_path"></path><path id="kvg:07bc0-s5" kvg:type="㇐b" d="M64.48,19.91c3.77,0,15.31-2.04,22.63-2.77c1.86-0.19,3.51-0.14,4.77-0.05" transform="matrix(1,0,0,1,396,-4)" class="stroke_order_diagram--current_path"></path><path id="pathSk2v596cn1796" kvg:type="㇐b" d="M64.48,19.91c3.77,0,15.31-2.04,22.63-2.77c1.86-0.19,3.51-0.14,4.77-0.05" transform="matrix(1,0,0,1,396,-4)" class="stroke_order_diagram--current_path"></path><circle cx="64.48" cy="19.91" r="8" class="stroke_order_diagram--path_start" transform="matrix(1,0,0,1,396,-4)"></circle><line x1="550" x2="550" y1="1" y2="99" class="stroke_order_diagram--guide_line"></line><line x1="599" x2="599" y1="1" y2="99" class="stroke_order_diagram--bounding_box"></line><path id="pathSk2v596cn1799" kvg:type="㇒" d="M29.5,12c0.03,0.46,0.15,1.22-0.07,1.87C27.88,18.5,23.75,25.62,17,32.25" transform="matrix(1,0,0,1,496,-4)" class="stroke_order_diagram--existing_path"></path><path id="pathSk2v596cn179a" kvg:type="㇐b" d="M29.48,21.54c3.03,0,12.44-1.44,18.15-1.88c1.28-0.1,2.62-0.03,3.37,0.09" transform="matrix(1,0,0,1,496,-4)" class="stroke_order_diagram--existing_path"></path><path id="pathSk2v596cn179b" kvg:type="㇔/㇑" d="M35.02,24.33c1.6,1.44,5.14,6.9,5.54,9.13" transform="matrix(1,0,0,1,496,-4)" class="stroke_order_diagram--existing_path"></path><path id="pathSk2v596cn179c" kvg:type="㇒" d="M64,10c0.03,0.4,0.11,1.04-0.05,1.6c-1.22,4.2-5.73,11.86-10.2,17.02" transform="matrix(1,0,0,1,496,-4)" class="stroke_order_diagram--existing_path"></path><path id="pathSk2v596cn179d" kvg:type="㇐b" d="M64.48,19.91c3.77,0,15.31-2.04,22.63-2.77c1.86-0.19,3.51-0.14,4.77-0.05" transform="matrix(1,0,0,1,496,-4)" class="stroke_order_diagram--existing_path"></path><path id="kvg:07bc0-s6" kvg:type="㇒/㇚" d="M75.26,22.25c0.03,0.37,0.07,0.97-0.07,1.51c-0.48,1.87-2.67,5.61-5.69,9.24" transform="matrix(1,0,0,1,496,-4)" class="stroke_order_diagram--current_path"></path><path id="pathSk2v596cn179f" kvg:type="㇒/㇚" d="M75.26,22.25c0.03,0.37,0.07,0.97-0.07,1.51c-0.48,1.87-2.67,5.61-5.69,9.24" transform="matrix(1,0,0,1,496,-4)" class="stroke_order_diagram--current_path"></path><circle cx="75.26" cy="22.25" r="8" class="stroke_order_diagram--path_start" transform="matrix(1,0,0,1,496,-4)"></circle><line x1="650" x2="650" y1="1" y2="99" class="stroke_order_diagram--guide_line"></line><line x1="699" x2="699" y1="1" y2="99" class="stroke_order_diagram--bounding_box"></line><path id="pathSk2v596cn179i" kvg:type="㇒" d="M29.5,12c0.03,0.46,0.15,1.22-0.07,1.87C27.88,18.5,23.75,25.62,17,32.25" transform="matrix(1,0,0,1,596,-4)" class="stroke_order_diagram--existing_path"></path><path id="pathSk2v596cn179j" kvg:type="㇐b" d="M29.48,21.54c3.03,0,12.44-1.44,18.15-1.88c1.28-0.1,2.62-0.03,3.37,0.09" transform="matrix(1,0,0,1,596,-4)" class="stroke_order_diagram--existing_path"></path><path id="pathSk2v596cn179k" kvg:type="㇔/㇑" d="M35.02,24.33c1.6,1.44,5.14,6.9,5.54,9.13" transform="matrix(1,0,0,1,596,-4)" class="stroke_order_diagram--existing_path"></path><path id="pathSk2v596cn179l" kvg:type="㇒" d="M64,10c0.03,0.4,0.11,1.04-0.05,1.6c-1.22,4.2-5.73,11.86-10.2,17.02" transform="matrix(1,0,0,1,596,-4)" class="stroke_order_diagram--existing_path"></path><path id="pathSk2v596cn179m" kvg:type="㇐b" d="M64.48,19.91c3.77,0,15.31-2.04,22.63-2.77c1.86-0.19,3.51-0.14,4.77-0.05" transform="matrix(1,0,0,1,596,-4)" class="stroke_order_diagram--existing_path"></path><path id="pathSk2v596cn179n" kvg:type="㇒/㇚" d="M75.26,22.25c0.03,0.37,0.07,0.97-0.07,1.51c-0.48,1.87-2.67,5.61-5.69,9.24" transform="matrix(1,0,0,1,596,-4)" class="stroke_order_diagram--existing_path"></path><path id="kvg:07bc0-s7" kvg:type="㇕" d="M21.01,41.69c1.36,1.18,4.48,1.15,6.35,0.94c5.56-0.62,15.62-1.58,19.9-2.06c2.93-0.33,4.62,0.13,4.4,3.43c-0.31,4.49-1.5,12.46-2.36,18.88c-0.24,1.79-0.45,3.46-0.61,4.9" transform="matrix(1,0,0,1,596,-4)" class="stroke_order_diagram--current_path"></path><path id="pathSk2v596cn179p" kvg:type="㇕" d="M21.01,41.69c1.36,1.18,4.48,1.15,6.35,0.94c5.56-0.62,15.62-1.58,19.9-2.06c2.93-0.33,4.62,0.13,4.4,3.43c-0.31,4.49-1.5,12.46-2.36,18.88c-0.24,1.79-0.45,3.46-0.61,4.9" transform="matrix(1,0,0,1,596,-4)" class="stroke_order_diagram--current_path"></path><circle cx="21.01" cy="41.69" r="8" class="stroke_order_diagram--path_start" transform="matrix(1,0,0,1,596,-4)"></circle><line x1="750" x2="750" y1="1" y2="99" class="stroke_order_diagram--guide_line"></line><line x1="799" x2="799" y1="1" y2="99" class="stroke_order_diagram--bounding_box"></line><path id="pathSk2v596cn179s" kvg:type="㇒" d="M29.5,12c0.03,0.46,0.15,1.22-0.07,1.87C27.88,18.5,23.75,25.62,17,32.25" transform="matrix(1,0,0,1,696,-4)" class="stroke_order_diagram--existing_path"></path><path id="pathSk2v596cn179t" kvg:type="㇐b" d="M29.48,21.54c3.03,0,12.44-1.44,18.15-1.88c1.28-0.1,2.62-0.03,3.37,0.09" transform="matrix(1,0,0,1,696,-4)" class="stroke_order_diagram--existing_path"></path><path id="pathSk2v596cn179u" kvg:type="㇔/㇑" d="M35.02,24.33c1.6,1.44,5.14,6.9,5.54,9.13" transform="matrix(1,0,0,1,696,-4)" class="stroke_order_diagram--existing_path"></path><path id="pathSk2v596cn179v" kvg:type="㇒" d="M64,10c0.03,0.4,0.11,1.04-0.05,1.6c-1.22,4.2-5.73,11.86-10.2,17.02" transform="matrix(1,0,0,1,696,-4)" class="stroke_order_diagram--existing_path"></path><path id="pathSk2v596cn179w" kvg:type="㇐b" d="M64.48,19.91c3.77,0,15.31-2.04,22.63-2.77c1.86-0.19,3.51-0.14,4.77-0.05" transform="matrix(1,0,0,1,696,-4)" class="stroke_order_diagram--existing_path"></path><path id="pathSk2v596cn179x" kvg:type="㇒/㇚" d="M75.26,22.25c0.03,0.37,0.07,0.97-0.07,1.51c-0.48,1.87-2.67,5.61-5.69,9.24" transform="matrix(1,0,0,1,696,-4)" class="stroke_order_diagram--existing_path"></path><path id="pathSk2v596cn179y" kvg:type="㇕" d="M21.01,41.69c1.36,1.18,4.48,1.15,6.35,0.94c5.56-0.62,15.62-1.58,19.9-2.06c2.93-0.33,4.62,0.13,4.4,3.43c-0.31,4.49-1.5,12.46-2.36,18.88c-0.24,1.79-0.45,3.46-0.61,4.9" transform="matrix(1,0,0,1,696,-4)" class="stroke_order_diagram--existing_path"></path><path id="kvg:07bc0-s8" kvg:type="㇐a" d="M23.95,54.55c5.43-0.54,19.3-2.05,25.67-2.36" transform="matrix(1,0,0,1,696,-4)" class="stroke_order_diagram--current_path"></path><path id="pathSk2v596cn17a0" kvg:type="㇐a" d="M23.95,54.55c5.43-0.54,19.3-2.05,25.67-2.36" transform="matrix(1,0,0,1,696,-4)" class="stroke_order_diagram--current_path"></path><circle cx="23.95" cy="54.55" r="8" class="stroke_order_diagram--path_start" transform="matrix(1,0,0,1,696,-4)"></circle><line x1="850" x2="850" y1="1" y2="99" class="stroke_order_diagram--guide_line"></line><line x1="899" x2="899" y1="1" y2="99" class="stroke_order_diagram--bounding_box"></line><path id="pathSk2v596cn17a3" kvg:type="㇒" d="M29.5,12c0.03,0.46,0.15,1.22-0.07,1.87C27.88,18.5,23.75,25.62,17,32.25" transform="matrix(1,0,0,1,796,-4)" class="stroke_order_diagram--existing_path"></path><path id="pathSk2v596cn17a4" kvg:type="㇐b" d="M29.48,21.54c3.03,0,12.44-1.44,18.15-1.88c1.28-0.1,2.62-0.03,3.37,0.09" transform="matrix(1,0,0,1,796,-4)" class="stroke_order_diagram--existing_path"></path><path id="pathSk2v596cn17a5" kvg:type="㇔/㇑" d="M35.02,24.33c1.6,1.44,5.14,6.9,5.54,9.13" transform="matrix(1,0,0,1,796,-4)" class="stroke_order_diagram--existing_path"></path><path id="pathSk2v596cn17a6" kvg:type="㇒" d="M64,10c0.03,0.4,0.11,1.04-0.05,1.6c-1.22,4.2-5.73,11.86-10.2,17.02" transform="matrix(1,0,0,1,796,-4)" class="stroke_order_diagram--existing_path"></path><path id="pathSk2v596cn17a7" kvg:type="㇐b" d="M64.48,19.91c3.77,0,15.31-2.04,22.63-2.77c1.86-0.19,3.51-0.14,4.77-0.05" transform="matrix(1,0,0,1,796,-4)" class="stroke_order_diagram--existing_path"></path><path id="pathSk2v596cn17a8" kvg:type="㇒/㇚" d="M75.26,22.25c0.03,0.37,0.07,0.97-0.07,1.51c-0.48,1.87-2.67,5.61-5.69,9.24" transform="matrix(1,0,0,1,796,-4)" class="stroke_order_diagram--existing_path"></path><path id="pathSk2v596cn17a9" kvg:type="㇕" d="M21.01,41.69c1.36,1.18,4.48,1.15,6.35,0.94c5.56-0.62,15.62-1.58,19.9-2.06c2.93-0.33,4.62,0.13,4.4,3.43c-0.31,4.49-1.5,12.46-2.36,18.88c-0.24,1.79-0.45,3.46-0.61,4.9" transform="matrix(1,0,0,1,796,-4)" class="stroke_order_diagram--existing_path"></path><path id="pathSk2v596cn17aa" kvg:type="㇐a" d="M23.95,54.55c5.43-0.54,19.3-2.05,25.67-2.36" transform="matrix(1,0,0,1,796,-4)" class="stroke_order_diagram--existing_path"></path><path id="kvg:07bc0-s9" kvg:type="㇐a" d="M24.16,66.4c7.45-0.87,15.22-1.77,23.71-2.19" transform="matrix(1,0,0,1,796,-4)" class="stroke_order_diagram--current_path"></path><path id="pathSk2v596cn17ac" kvg:type="㇐a" d="M24.16,66.4c7.45-0.87,15.22-1.77,23.71-2.19" transform="matrix(1,0,0,1,796,-4)" class="stroke_order_diagram--current_path"></path><circle cx="24.16" cy="66.4" r="8" class="stroke_order_diagram--path_start" transform="matrix(1,0,0,1,796,-4)"></circle><line x1="950" x2="950" y1="1" y2="99" class="stroke_order_diagram--guide_line"></line><line x1="999" x2="999" y1="1" y2="99" class="stroke_order_diagram--bounding_box"></line><path id="pathSk2v596cn17af" kvg:type="㇒" d="M29.5,12c0.03,0.46,0.15,1.22-0.07,1.87C27.88,18.5,23.75,25.62,17,32.25" transform="matrix(1,0,0,1,896,-4)" class="stroke_order_diagram--existing_path"></path><path id="pathSk2v596cn17ag" kvg:type="㇐b" d="M29.48,21.54c3.03,0,12.44-1.44,18.15-1.88c1.28-0.1,2.62-0.03,3.37,0.09" transform="matrix(1,0,0,1,896,-4)" class="stroke_order_diagram--existing_path"></path><path id="pathSk2v596cn17ah" kvg:type="㇔/㇑" d="M35.02,24.33c1.6,1.44,5.14,6.9,5.54,9.13" transform="matrix(1,0,0,1,896,-4)" class="stroke_order_diagram--existing_path"></path><path id="pathSk2v596cn17ai" kvg:type="㇒" d="M64,10c0.03,0.4,0.11,1.04-0.05,1.6c-1.22,4.2-5.73,11.86-10.2,17.02" transform="matrix(1,0,0,1,896,-4)" class="stroke_order_diagram--existing_path"></path><path id="pathSk2v596cn17aj" kvg:type="㇐b" d="M64.48,19.91c3.77,0,15.31-2.04,22.63-2.77c1.86-0.19,3.51-0.14,4.77-0.05" transform="matrix(1,0,0,1,896,-4)" class="stroke_order_diagram--existing_path"></path><path id="pathSk2v596cn17ak" kvg:type="㇒/㇚" d="M75.26,22.25c0.03,0.37,0.07,0.97-0.07,1.51c-0.48,1.87-2.67,5.61-5.69,9.24" transform="matrix(1,0,0,1,896,-4)" class="stroke_order_diagram--existing_path"></path><path id="pathSk2v596cn17al" kvg:type="㇕" d="M21.01,41.69c1.36,1.18,4.48,1.15,6.35,0.94c5.56-0.62,15.62-1.58,19.9-2.06c2.93-0.33,4.62,0.13,4.4,3.43c-0.31,4.49-1.5,12.46-2.36,18.88c-0.24,1.79-0.45,3.46-0.61,4.9" transform="matrix(1,0,0,1,896,-4)" class="stroke_order_diagram--existing_path"></path><path id="pathSk2v596cn17am" kvg:type="㇐a" d="M23.95,54.55c5.43-0.54,19.3-2.05,25.67-2.36" transform="matrix(1,0,0,1,896,-4)" class="stroke_order_diagram--existing_path"></path><path id="pathSk2v596cn17an" kvg:type="㇐a" d="M24.16,66.4c7.45-0.87,15.22-1.77,23.71-2.19" transform="matrix(1,0,0,1,896,-4)" class="stroke_order_diagram--existing_path"></path><path id="kvg:07bc0-s10" kvg:type="㇙" d="M21.51,41.94c0.83,0.84,1.21,2.18,1.21,3.27c0,1.11,0.25,43.93,0.25,46.63c0,3.15,0.42,4.2,3.37,2.31c2.95-1.9,12.41-7.91,19.16-11.83" transform="matrix(1,0,0,1,896,-4)" class="stroke_order_diagram--current_path"></path><path id="pathSk2v596cn17ap" kvg:type="㇙" d="M21.51,41.94c0.83,0.84,1.21,2.18,1.21,3.27c0,1.11,0.25,43.93,0.25,46.63c0,3.15,0.42,4.2,3.37,2.31c2.95-1.9,12.41-7.91,19.16-11.83" transform="matrix(1,0,0,1,896,-4)" class="stroke_order_diagram--current_path"></path><circle cx="21.51" cy="41.94" r="8" class="stroke_order_diagram--path_start" transform="matrix(1,0,0,1,896,-4)"></circle><line x1="1050" x2="1050" y1="1" y2="99" class="stroke_order_diagram--guide_line"></line><line x1="1099" x2="1099" y1="1" y2="99" class="stroke_order_diagram--bounding_box"></line><path id="pathSk2v596cn17as" kvg:type="㇒" d="M29.5,12c0.03,0.46,0.15,1.22-0.07,1.87C27.88,18.5,23.75,25.62,17,32.25" transform="matrix(1,0,0,1,996,-4)" class="stroke_order_diagram--existing_path"></path><path id="pathSk2v596cn17at" kvg:type="㇐b" d="M29.48,21.54c3.03,0,12.44-1.44,18.15-1.88c1.28-0.1,2.62-0.03,3.37,0.09" transform="matrix(1,0,0,1,996,-4)" class="stroke_order_diagram--existing_path"></path><path id="pathSk2v596cn17au" kvg:type="㇔/㇑" d="M35.02,24.33c1.6,1.44,5.14,6.9,5.54,9.13" transform="matrix(1,0,0,1,996,-4)" class="stroke_order_diagram--existing_path"></path><path id="pathSk2v596cn17av" kvg:type="㇒" d="M64,10c0.03,0.4,0.11,1.04-0.05,1.6c-1.22,4.2-5.73,11.86-10.2,17.02" transform="matrix(1,0,0,1,996,-4)" class="stroke_order_diagram--existing_path"></path><path id="pathSk2v596cn17aw" kvg:type="㇐b" d="M64.48,19.91c3.77,0,15.31-2.04,22.63-2.77c1.86-0.19,3.51-0.14,4.77-0.05" transform="matrix(1,0,0,1,996,-4)" class="stroke_order_diagram--existing_path"></path><path id="pathSk2v596cn17ax" kvg:type="㇒/㇚" d="M75.26,22.25c0.03,0.37,0.07,0.97-0.07,1.51c-0.48,1.87-2.67,5.61-5.69,9.24" transform="matrix(1,0,0,1,996,-4)" class="stroke_order_diagram--existing_path"></path><path id="pathSk2v596cn17ay" kvg:type="㇕" d="M21.01,41.69c1.36,1.18,4.48,1.15,6.35,0.94c5.56-0.62,15.62-1.58,19.9-2.06c2.93-0.33,4.62,0.13,4.4,3.43c-0.31,4.49-1.5,12.46-2.36,18.88c-0.24,1.79-0.45,3.46-0.61,4.9" transform="matrix(1,0,0,1,996,-4)" class="stroke_order_diagram--existing_path"></path><path id="pathSk2v596cn17az" kvg:type="㇐a" d="M23.95,54.55c5.43-0.54,19.3-2.05,25.67-2.36" transform="matrix(1,0,0,1,996,-4)" class="stroke_order_diagram--existing_path"></path><path id="pathSk2v596cn17b0" kvg:type="㇐a" d="M24.16,66.4c7.45-0.87,15.22-1.77,23.71-2.19" transform="matrix(1,0,0,1,996,-4)" class="stroke_order_diagram--existing_path"></path><path id="pathSk2v596cn17b1" kvg:type="㇙" d="M21.51,41.94c0.83,0.84,1.21,2.18,1.21,3.27c0,1.11,0.25,43.93,0.25,46.63c0,3.15,0.42,4.2,3.37,2.31c2.95-1.9,12.41-7.91,19.16-11.83" transform="matrix(1,0,0,1,996,-4)" class="stroke_order_diagram--existing_path"></path><path id="kvg:07bc0-s11" kvg:type="㇔" d="M40.81,73.96c3.61,2.6,9.59,11.03,11.24,17.78" transform="matrix(1,0,0,1,996,-4)" class="stroke_order_diagram--current_path"></path><path id="pathSk2v596cn17b3" kvg:type="㇔" d="M40.81,73.96c3.61,2.6,9.59,11.03,11.24,17.78" transform="matrix(1,0,0,1,996,-4)" class="stroke_order_diagram--current_path"></path><circle cx="40.81" cy="73.96" r="8" class="stroke_order_diagram--path_start" transform="matrix(1,0,0,1,996,-4)"></circle><line x1="1150" x2="1150" y1="1" y2="99" class="stroke_order_diagram--guide_line"></line><line x1="1199" x2="1199" y1="1" y2="99" class="stroke_order_diagram--bounding_box"></line><path id="pathSk2v596cn17b6" kvg:type="㇒" d="M29.5,12c0.03,0.46,0.15,1.22-0.07,1.87C27.88,18.5,23.75,25.62,17,32.25" transform="matrix(1,0,0,1,1096,-4)" class="stroke_order_diagram--existing_path"></path><path id="pathSk2v596cn17b7" kvg:type="㇐b" d="M29.48,21.54c3.03,0,12.44-1.44,18.15-1.88c1.28-0.1,2.62-0.03,3.37,0.09" transform="matrix(1,0,0,1,1096,-4)" class="stroke_order_diagram--existing_path"></path><path id="pathSk2v596cn17b8" kvg:type="㇔/㇑" d="M35.02,24.33c1.6,1.44,5.14,6.9,5.54,9.13" transform="matrix(1,0,0,1,1096,-4)" class="stroke_order_diagram--existing_path"></path><path id="pathSk2v596cn17b9" kvg:type="㇒" d="M64,10c0.03,0.4,0.11,1.04-0.05,1.6c-1.22,4.2-5.73,11.86-10.2,17.02" transform="matrix(1,0,0,1,1096,-4)" class="stroke_order_diagram--existing_path"></path><path id="pathSk2v596cn17ba" kvg:type="㇐b" d="M64.48,19.91c3.77,0,15.31-2.04,22.63-2.77c1.86-0.19,3.51-0.14,4.77-0.05" transform="matrix(1,0,0,1,1096,-4)" class="stroke_order_diagram--existing_path"></path><path id="pathSk2v596cn17bb" kvg:type="㇒/㇚" d="M75.26,22.25c0.03,0.37,0.07,0.97-0.07,1.51c-0.48,1.87-2.67,5.61-5.69,9.24" transform="matrix(1,0,0,1,1096,-4)" class="stroke_order_diagram--existing_path"></path><path id="pathSk2v596cn17bc" kvg:type="㇕" d="M21.01,41.69c1.36,1.18,4.48,1.15,6.35,0.94c5.56-0.62,15.62-1.58,19.9-2.06c2.93-0.33,4.62,0.13,4.4,3.43c-0.31,4.49-1.5,12.46-2.36,18.88c-0.24,1.79-0.45,3.46-0.61,4.9" transform="matrix(1,0,0,1,1096,-4)" class="stroke_order_diagram--existing_path"></path><path id="pathSk2v596cn17bd" kvg:type="㇐a" d="M23.95,54.55c5.43-0.54,19.3-2.05,25.67-2.36" transform="matrix(1,0,0,1,1096,-4)" class="stroke_order_diagram--existing_path"></path><path id="pathSk2v596cn17be" kvg:type="㇐a" d="M24.16,66.4c7.45-0.87,15.22-1.77,23.71-2.19" transform="matrix(1,0,0,1,1096,-4)" class="stroke_order_diagram--existing_path"></path><path id="pathSk2v596cn17bf" kvg:type="㇙" d="M21.51,41.94c0.83,0.84,1.21,2.18,1.21,3.27c0,1.11,0.25,43.93,0.25,46.63c0,3.15,0.42,4.2,3.37,2.31c2.95-1.9,12.41-7.91,19.16-11.83" transform="matrix(1,0,0,1,1096,-4)" class="stroke_order_diagram--existing_path"></path><path id="pathSk2v596cn17bg" kvg:type="㇔" d="M40.81,73.96c3.61,2.6,9.59,11.03,11.24,17.78" transform="matrix(1,0,0,1,1096,-4)" class="stroke_order_diagram--existing_path"></path><path id="kvg:07bc0-s12" kvg:type="㇆" d="M61.25,41.26c1.25,0.49,2.52,0.78,3.98,0.64c6.7-0.68,18.88-2.54,20.65-2.68c3.41-0.26,5.84,0.63,5.54,4.41c-1.02,12.81-2.86,25.13-5.39,34.21c-2.42,8.7-5.4,3.79-7.61,0.49" transform="matrix(1,0,0,1,1096,-4)" class="stroke_order_diagram--current_path"></path><path id="pathSk2v596cn17bi" kvg:type="㇆" d="M61.25,41.26c1.25,0.49,2.52,0.78,3.98,0.64c6.7-0.68,18.88-2.54,20.65-2.68c3.41-0.26,5.84,0.63,5.54,4.41c-1.02,12.81-2.86,25.13-5.39,34.21c-2.42,8.7-5.4,3.79-7.61,0.49" transform="matrix(1,0,0,1,1096,-4)" class="stroke_order_diagram--current_path"></path><circle cx="61.25" cy="41.26" r="8" class="stroke_order_diagram--path_start" transform="matrix(1,0,0,1,1096,-4)"></circle><line x1="1250" x2="1250" y1="1" y2="99" class="stroke_order_diagram--guide_line"></line><line x1="1299" x2="1299" y1="1" y2="99" class="stroke_order_diagram--bounding_box"></line><path id="pathSk2v596cn17bl" kvg:type="㇒" d="M29.5,12c0.03,0.46,0.15,1.22-0.07,1.87C27.88,18.5,23.75,25.62,17,32.25" transform="matrix(1,0,0,1,1196,-4)" class="stroke_order_diagram--existing_path"></path><path id="pathSk2v596cn17bm" kvg:type="㇐b" d="M29.48,21.54c3.03,0,12.44-1.44,18.15-1.88c1.28-0.1,2.62-0.03,3.37,0.09" transform="matrix(1,0,0,1,1196,-4)" class="stroke_order_diagram--existing_path"></path><path id="pathSk2v596cn17bn" kvg:type="㇔/㇑" d="M35.02,24.33c1.6,1.44,5.14,6.9,5.54,9.13" transform="matrix(1,0,0,1,1196,-4)" class="stroke_order_diagram--existing_path"></path><path id="pathSk2v596cn17bo" kvg:type="㇒" d="M64,10c0.03,0.4,0.11,1.04-0.05,1.6c-1.22,4.2-5.73,11.86-10.2,17.02" transform="matrix(1,0,0,1,1196,-4)" class="stroke_order_diagram--existing_path"></path><path id="pathSk2v596cn17bp" kvg:type="㇐b" d="M64.48,19.91c3.77,0,15.31-2.04,22.63-2.77c1.86-0.19,3.51-0.14,4.77-0.05" transform="matrix(1,0,0,1,1196,-4)" class="stroke_order_diagram--existing_path"></path><path id="pathSk2v596cn17bq" kvg:type="㇒/㇚" d="M75.26,22.25c0.03,0.37,0.07,0.97-0.07,1.51c-0.48,1.87-2.67,5.61-5.69,9.24" transform="matrix(1,0,0,1,1196,-4)" class="stroke_order_diagram--existing_path"></path><path id="pathSk2v596cn17br" kvg:type="㇕" d="M21.01,41.69c1.36,1.18,4.48,1.15,6.35,0.94c5.56-0.62,15.62-1.58,19.9-2.06c2.93-0.33,4.62,0.13,4.4,3.43c-0.31,4.49-1.5,12.46-2.36,18.88c-0.24,1.79-0.45,3.46-0.61,4.9" transform="matrix(1,0,0,1,1196,-4)" class="stroke_order_diagram--existing_path"></path><path id="pathSk2v596cn17bs" kvg:type="㇐a" d="M23.95,54.55c5.43-0.54,19.3-2.05,25.67-2.36" transform="matrix(1,0,0,1,1196,-4)" class="stroke_order_diagram--existing_path"></path><path id="pathSk2v596cn17bt" kvg:type="㇐a" d="M24.16,66.4c7.45-0.87,15.22-1.77,23.71-2.19" transform="matrix(1,0,0,1,1196,-4)" class="stroke_order_diagram--existing_path"></path><path id="pathSk2v596cn17bu" kvg:type="㇙" d="M21.51,41.94c0.83,0.84,1.21,2.18,1.21,3.27c0,1.11,0.25,43.93,0.25,46.63c0,3.15,0.42,4.2,3.37,2.31c2.95-1.9,12.41-7.91,19.16-11.83" transform="matrix(1,0,0,1,1196,-4)" class="stroke_order_diagram--existing_path"></path><path id="pathSk2v596cn17bv" kvg:type="㇔" d="M40.81,73.96c3.61,2.6,9.59,11.03,11.24,17.78" transform="matrix(1,0,0,1,1196,-4)" class="stroke_order_diagram--existing_path"></path><path id="pathSk2v596cn17bw" kvg:type="㇆" d="M61.25,41.26c1.25,0.49,2.52,0.78,3.98,0.64c6.7-0.68,18.88-2.54,20.65-2.68c3.41-0.26,5.84,0.63,5.54,4.41c-1.02,12.81-2.86,25.13-5.39,34.21c-2.42,8.7-5.4,3.79-7.61,0.49" transform="matrix(1,0,0,1,1196,-4)" class="stroke_order_diagram--existing_path"></path><path id="kvg:07bc0-s13" kvg:type="㇑" d="M62.87,42.25c1.07,1.06,1.46,2.88,1.46,3.75c0,3.09,0.02,34.6,0.03,48.88c0,2.47,0,4.43,0,5.62" transform="matrix(1,0,0,1,1196,-4)" class="stroke_order_diagram--current_path"></path><path id="pathSk2v596cn17by" kvg:type="㇑" d="M62.87,42.25c1.07,1.06,1.46,2.88,1.46,3.75c0,3.09,0.02,34.6,0.03,48.88c0,2.47,0,4.43,0,5.62" transform="matrix(1,0,0,1,1196,-4)" class="stroke_order_diagram--current_path"></path><circle cx="62.87" cy="42.25" r="8" class="stroke_order_diagram--path_start" transform="matrix(1,0,0,1,1196,-4)"></circle></svg>