<svg style="width: 1900px; height: 100px;" viewbox="0 0 1900 100"><style>
.stroke_order_diagram--outer_container {
  width: 100%;
  overflow-x: auto;
  overflow-y: hidden;
}

.stroke_order_diagram--guide_line {
  fill: none;
  stroke: #ddd;
  stroke-width: 3;
  stroke-linecap: square;
  stroke-linejoin: square;
  stroke-dasharray:8, 8;
}

.stroke_order_diagram--bounding_box {
  fill: none;
  stroke: #ddd;
  stroke-width: 4;
  stroke-linecap: square;
  stroke-linejoin: square;
}

.stroke_order_diagram--current_path {
  fill: none;
  stroke: #000;
  stroke-width: 6;
  stroke-linecap: round;
  stroke-linejoin: round;
}

.stroke_order_diagram--existing_path {
  fill: none;
  stroke: #aaa;
  stroke-width: 6;
  stroke-linecap: round;
  stroke-linejoin:round;
}

.stroke_order_diagram--path_start {
  fill: rgba(255, 0, 0, 0.7);
  stroke:none
}</style><desc>Created with Snap</desc><defs></defs><line x1="1" x2="1899" y1="1" y2="1" class="stroke_order_diagram--bounding_box"></line><line x1="1" x2="1" y1="1" y2="99" class="stroke_order_diagram--bounding_box"></line><line x1="1" x2="1899" y1="99" y2="99" class="stroke_order_diagram--bounding_box"></line><line x1="0" x2="1900" y1="50" y2="50" class="stroke_order_diagram--guide_line"></line><line x1="50" x2="50" y1="1" y2="99" class="stroke_order_diagram--guide_line"></line><line x1="99" x2="99" y1="1" y2="99" class="stroke_order_diagram--bounding_box"></line><path id="kvg:07c3f-s1" kvg:type="㇒" d="M30.5,11.25c0.07,1,0.04,1.68-0.41,2.6C27.86,18.32,22.21,25.49,16,30.5" transform="matrix(1,0,0,1,-4,-4)" class="stroke_order_diagram--current_path"></path><path id="pathSk2v596cn3xls" kvg:type="㇒" d="M30.5,11.25c0.07,1,0.04,1.68-0.41,2.6C27.86,18.32,22.21,25.49,16,30.5" transform="matrix(1,0,0,1,-4,-4)" class="stroke_order_diagram--current_path"></path><circle cx="30.5" cy="11.25" r="8" class="stroke_order_diagram--path_start" transform="matrix(1,0,0,1,-4,-4)"></circle><line x1="150" x2="150" y1="1" y2="99" class="stroke_order_diagram--guide_line"></line><line x1="199" x2="199" y1="1" y2="99" class="stroke_order_diagram--bounding_box"></line><path id="pathSk2v596cn3xlv" kvg:type="㇒" d="M30.5,11.25c0.07,1,0.04,1.68-0.41,2.6C27.86,18.32,22.21,25.49,16,30.5" transform="matrix(1,0,0,1,96,-4)" class="stroke_order_diagram--existing_path"></path><path id="kvg:07c3f-s2" kvg:type="㇐b" d="M28.73,21.29c4.27-0.04,12.02-1.66,17.79-3.17c1.37-0.36,2.61-0.37,3.48-0.37" transform="matrix(1,0,0,1,96,-4)" class="stroke_order_diagram--current_path"></path><path id="pathSk2v596cn3xlx" kvg:type="㇐b" d="M28.73,21.29c4.27-0.04,12.02-1.66,17.79-3.17c1.37-0.36,2.61-0.37,3.48-0.37" transform="matrix(1,0,0,1,96,-4)" class="stroke_order_diagram--current_path"></path><circle cx="28.73" cy="21.29" r="8" class="stroke_order_diagram--path_start" transform="matrix(1,0,0,1,96,-4)"></circle><line x1="250" x2="250" y1="1" y2="99" class="stroke_order_diagram--guide_line"></line><line x1="299" x2="299" y1="1" y2="99" class="stroke_order_diagram--bounding_box"></line><path id="pathSk2v596cn3xm0" kvg:type="㇒" d="M30.5,11.25c0.07,1,0.04,1.68-0.41,2.6C27.86,18.32,22.21,25.49,16,30.5" transform="matrix(1,0,0,1,196,-4)" class="stroke_order_diagram--existing_path"></path><path id="pathSk2v596cn3xm1" kvg:type="㇐b" d="M28.73,21.29c4.27-0.04,12.02-1.66,17.79-3.17c1.37-0.36,2.61-0.37,3.48-0.37" transform="matrix(1,0,0,1,196,-4)" class="stroke_order_diagram--existing_path"></path><path id="kvg:07c3f-s3" kvg:type="㇔/㇑" d="M35.52,23.58c1.87,1.3,4.83,5.36,5.29,7.38" transform="matrix(1,0,0,1,196,-4)" class="stroke_order_diagram--current_path"></path><path id="pathSk2v596cn3xm3" kvg:type="㇔/㇑" d="M35.52,23.58c1.87,1.3,4.83,5.36,5.29,7.38" transform="matrix(1,0,0,1,196,-4)" class="stroke_order_diagram--current_path"></path><circle cx="35.52" cy="23.58" r="8" class="stroke_order_diagram--path_start" transform="matrix(1,0,0,1,196,-4)"></circle><line x1="350" x2="350" y1="1" y2="99" class="stroke_order_diagram--guide_line"></line><line x1="399" x2="399" y1="1" y2="99" class="stroke_order_diagram--bounding_box"></line><path id="pathSk2v596cn3xm6" kvg:type="㇒" d="M30.5,11.25c0.07,1,0.04,1.68-0.41,2.6C27.86,18.32,22.21,25.49,16,30.5" transform="matrix(1,0,0,1,296,-4)" class="stroke_order_diagram--existing_path"></path><path id="pathSk2v596cn3xm7" kvg:type="㇐b" d="M28.73,21.29c4.27-0.04,12.02-1.66,17.79-3.17c1.37-0.36,2.61-0.37,3.48-0.37" transform="matrix(1,0,0,1,296,-4)" class="stroke_order_diagram--existing_path"></path><path id="pathSk2v596cn3xm8" kvg:type="㇔/㇑" d="M35.52,23.58c1.87,1.3,4.83,5.36,5.29,7.38" transform="matrix(1,0,0,1,296,-4)" class="stroke_order_diagram--existing_path"></path><path id="kvg:07c3f-s4" kvg:type="㇒" d="M62,10c0.11,0.81,0,1.58-0.34,2.31c-1.43,3.77-5.53,9.14-9.17,13.44" transform="matrix(1,0,0,1,296,-4)" class="stroke_order_diagram--current_path"></path><path id="pathSk2v596cn3xma" kvg:type="㇒" d="M62,10c0.11,0.81,0,1.58-0.34,2.31c-1.43,3.77-5.53,9.14-9.17,13.44" transform="matrix(1,0,0,1,296,-4)" class="stroke_order_diagram--current_path"></path><circle cx="62" cy="10" r="8" class="stroke_order_diagram--path_start" transform="matrix(1,0,0,1,296,-4)"></circle><line x1="450" x2="450" y1="1" y2="99" class="stroke_order_diagram--guide_line"></line><line x1="499" x2="499" y1="1" y2="99" class="stroke_order_diagram--bounding_box"></line><path id="pathSk2v596cn3xmd" kvg:type="㇒" d="M30.5,11.25c0.07,1,0.04,1.68-0.41,2.6C27.86,18.32,22.21,25.49,16,30.5" transform="matrix(1,0,0,1,396,-4)" class="stroke_order_diagram--existing_path"></path><path id="pathSk2v596cn3xme" kvg:type="㇐b" d="M28.73,21.29c4.27-0.04,12.02-1.66,17.79-3.17c1.37-0.36,2.61-0.37,3.48-0.37" transform="matrix(1,0,0,1,396,-4)" class="stroke_order_diagram--existing_path"></path><path id="pathSk2v596cn3xmf" kvg:type="㇔/㇑" d="M35.52,23.58c1.87,1.3,4.83,5.36,5.29,7.38" transform="matrix(1,0,0,1,396,-4)" class="stroke_order_diagram--existing_path"></path><path id="pathSk2v596cn3xmg" kvg:type="㇒" d="M62,10c0.11,0.81,0,1.58-0.34,2.31c-1.43,3.77-5.53,9.14-9.17,13.44" transform="matrix(1,0,0,1,396,-4)" class="stroke_order_diagram--existing_path"></path><path id="kvg:07c3f-s5" kvg:type="㇐b" d="M62.98,17.16c3.86,0,13.39-1.91,20.28-3.5c1.53-0.35,2.89-0.32,3.87-0.32" transform="matrix(1,0,0,1,396,-4)" class="stroke_order_diagram--current_path"></path><path id="pathSk2v596cn3xmi" kvg:type="㇐b" d="M62.98,17.16c3.86,0,13.39-1.91,20.28-3.5c1.53-0.35,2.89-0.32,3.87-0.32" transform="matrix(1,0,0,1,396,-4)" class="stroke_order_diagram--current_path"></path><circle cx="62.98" cy="17.16" r="8" class="stroke_order_diagram--path_start" transform="matrix(1,0,0,1,396,-4)"></circle><line x1="550" x2="550" y1="1" y2="99" class="stroke_order_diagram--guide_line"></line><line x1="599" x2="599" y1="1" y2="99" class="stroke_order_diagram--bounding_box"></line><path id="pathSk2v596cn3xml" kvg:type="㇒" d="M30.5,11.25c0.07,1,0.04,1.68-0.41,2.6C27.86,18.32,22.21,25.49,16,30.5" transform="matrix(1,0,0,1,496,-4)" class="stroke_order_diagram--existing_path"></path><path id="pathSk2v596cn3xmm" kvg:type="㇐b" d="M28.73,21.29c4.27-0.04,12.02-1.66,17.79-3.17c1.37-0.36,2.61-0.37,3.48-0.37" transform="matrix(1,0,0,1,496,-4)" class="stroke_order_diagram--existing_path"></path><path id="pathSk2v596cn3xmn" kvg:type="㇔/㇑" d="M35.52,23.58c1.87,1.3,4.83,5.36,5.29,7.38" transform="matrix(1,0,0,1,496,-4)" class="stroke_order_diagram--existing_path"></path><path id="pathSk2v596cn3xmo" kvg:type="㇒" d="M62,10c0.11,0.81,0,1.58-0.34,2.31c-1.43,3.77-5.53,9.14-9.17,13.44" transform="matrix(1,0,0,1,496,-4)" class="stroke_order_diagram--existing_path"></path><path id="pathSk2v596cn3xmp" kvg:type="㇐b" d="M62.98,17.16c3.86,0,13.39-1.91,20.28-3.5c1.53-0.35,2.89-0.32,3.87-0.32" transform="matrix(1,0,0,1,496,-4)" class="stroke_order_diagram--existing_path"></path><path id="kvg:07c3f-s6" kvg:type="㇒/㇚" d="M73,17.88c0.04,0.28,0.09,0.72-0.08,1.12c-0.62,1.42-1.99,3.35-5.54,5.75" transform="matrix(1,0,0,1,496,-4)" class="stroke_order_diagram--current_path"></path><path id="pathSk2v596cn3xmr" kvg:type="㇒/㇚" d="M73,17.88c0.04,0.28,0.09,0.72-0.08,1.12c-0.62,1.42-1.99,3.35-5.54,5.75" transform="matrix(1,0,0,1,496,-4)" class="stroke_order_diagram--current_path"></path><circle cx="73" cy="17.88" r="8" class="stroke_order_diagram--path_start" transform="matrix(1,0,0,1,496,-4)"></circle><line x1="650" x2="650" y1="1" y2="99" class="stroke_order_diagram--guide_line"></line><line x1="699" x2="699" y1="1" y2="99" class="stroke_order_diagram--bounding_box"></line><path id="pathSk2v596cn3xmu" kvg:type="㇒" d="M30.5,11.25c0.07,1,0.04,1.68-0.41,2.6C27.86,18.32,22.21,25.49,16,30.5" transform="matrix(1,0,0,1,596,-4)" class="stroke_order_diagram--existing_path"></path><path id="pathSk2v596cn3xmv" kvg:type="㇐b" d="M28.73,21.29c4.27-0.04,12.02-1.66,17.79-3.17c1.37-0.36,2.61-0.37,3.48-0.37" transform="matrix(1,0,0,1,596,-4)" class="stroke_order_diagram--existing_path"></path><path id="pathSk2v596cn3xmw" kvg:type="㇔/㇑" d="M35.52,23.58c1.87,1.3,4.83,5.36,5.29,7.38" transform="matrix(1,0,0,1,596,-4)" class="stroke_order_diagram--existing_path"></path><path id="pathSk2v596cn3xmx" kvg:type="㇒" d="M62,10c0.11,0.81,0,1.58-0.34,2.31c-1.43,3.77-5.53,9.14-9.17,13.44" transform="matrix(1,0,0,1,596,-4)" class="stroke_order_diagram--existing_path"></path><path id="pathSk2v596cn3xmy" kvg:type="㇐b" d="M62.98,17.16c3.86,0,13.39-1.91,20.28-3.5c1.53-0.35,2.89-0.32,3.87-0.32" transform="matrix(1,0,0,1,596,-4)" class="stroke_order_diagram--existing_path"></path><path id="pathSk2v596cn3xmz" kvg:type="㇒/㇚" d="M73,17.88c0.04,0.28,0.09,0.72-0.08,1.12c-0.62,1.42-1.99,3.35-5.54,5.75" transform="matrix(1,0,0,1,596,-4)" class="stroke_order_diagram--existing_path"></path><path id="kvg:07c3f-s7" kvg:type="㇔" d="M23.38,33.88c3.46,1.18,8.94,4.83,9.81,6.66" transform="matrix(1,0,0,1,596,-4)" class="stroke_order_diagram--current_path"></path><path id="pathSk2v596cn3xn1" kvg:type="㇔" d="M23.38,33.88c3.46,1.18,8.94,4.83,9.81,6.66" transform="matrix(1,0,0,1,596,-4)" class="stroke_order_diagram--current_path"></path><circle cx="23.38" cy="33.88" r="8" class="stroke_order_diagram--path_start" transform="matrix(1,0,0,1,596,-4)"></circle><line x1="750" x2="750" y1="1" y2="99" class="stroke_order_diagram--guide_line"></line><line x1="799" x2="799" y1="1" y2="99" class="stroke_order_diagram--bounding_box"></line><path id="pathSk2v596cn3xn4" kvg:type="㇒" d="M30.5,11.25c0.07,1,0.04,1.68-0.41,2.6C27.86,18.32,22.21,25.49,16,30.5" transform="matrix(1,0,0,1,696,-4)" class="stroke_order_diagram--existing_path"></path><path id="pathSk2v596cn3xn5" kvg:type="㇐b" d="M28.73,21.29c4.27-0.04,12.02-1.66,17.79-3.17c1.37-0.36,2.61-0.37,3.48-0.37" transform="matrix(1,0,0,1,696,-4)" class="stroke_order_diagram--existing_path"></path><path id="pathSk2v596cn3xn6" kvg:type="㇔/㇑" d="M35.52,23.58c1.87,1.3,4.83,5.36,5.29,7.38" transform="matrix(1,0,0,1,696,-4)" class="stroke_order_diagram--existing_path"></path><path id="pathSk2v596cn3xn7" kvg:type="㇒" d="M62,10c0.11,0.81,0,1.58-0.34,2.31c-1.43,3.77-5.53,9.14-9.17,13.44" transform="matrix(1,0,0,1,696,-4)" class="stroke_order_diagram--existing_path"></path><path id="pathSk2v596cn3xn8" kvg:type="㇐b" d="M62.98,17.16c3.86,0,13.39-1.91,20.28-3.5c1.53-0.35,2.89-0.32,3.87-0.32" transform="matrix(1,0,0,1,696,-4)" class="stroke_order_diagram--existing_path"></path><path id="pathSk2v596cn3xn9" kvg:type="㇒/㇚" d="M73,17.88c0.04,0.28,0.09,0.72-0.08,1.12c-0.62,1.42-1.99,3.35-5.54,5.75" transform="matrix(1,0,0,1,696,-4)" class="stroke_order_diagram--existing_path"></path><path id="pathSk2v596cn3xna" kvg:type="㇔" d="M23.38,33.88c3.46,1.18,8.94,4.83,9.81,6.66" transform="matrix(1,0,0,1,696,-4)" class="stroke_order_diagram--existing_path"></path><path id="kvg:07c3f-s8" kvg:type="㇔" d="M17,49.62c3.77,1.15,9.73,4.72,10.67,6.5" transform="matrix(1,0,0,1,696,-4)" class="stroke_order_diagram--current_path"></path><path id="pathSk2v596cn3xnc" kvg:type="㇔" d="M17,49.62c3.77,1.15,9.73,4.72,10.67,6.5" transform="matrix(1,0,0,1,696,-4)" class="stroke_order_diagram--current_path"></path><circle cx="17" cy="49.62" r="8" class="stroke_order_diagram--path_start" transform="matrix(1,0,0,1,696,-4)"></circle><line x1="850" x2="850" y1="1" y2="99" class="stroke_order_diagram--guide_line"></line><line x1="899" x2="899" y1="1" y2="99" class="stroke_order_diagram--bounding_box"></line><path id="pathSk2v596cn3xnf" kvg:type="㇒" d="M30.5,11.25c0.07,1,0.04,1.68-0.41,2.6C27.86,18.32,22.21,25.49,16,30.5" transform="matrix(1,0,0,1,796,-4)" class="stroke_order_diagram--existing_path"></path><path id="pathSk2v596cn3xng" kvg:type="㇐b" d="M28.73,21.29c4.27-0.04,12.02-1.66,17.79-3.17c1.37-0.36,2.61-0.37,3.48-0.37" transform="matrix(1,0,0,1,796,-4)" class="stroke_order_diagram--existing_path"></path><path id="pathSk2v596cn3xnh" kvg:type="㇔/㇑" d="M35.52,23.58c1.87,1.3,4.83,5.36,5.29,7.38" transform="matrix(1,0,0,1,796,-4)" class="stroke_order_diagram--existing_path"></path><path id="pathSk2v596cn3xni" kvg:type="㇒" d="M62,10c0.11,0.81,0,1.58-0.34,2.31c-1.43,3.77-5.53,9.14-9.17,13.44" transform="matrix(1,0,0,1,796,-4)" class="stroke_order_diagram--existing_path"></path><path id="pathSk2v596cn3xnj" kvg:type="㇐b" d="M62.98,17.16c3.86,0,13.39-1.91,20.28-3.5c1.53-0.35,2.89-0.32,3.87-0.32" transform="matrix(1,0,0,1,796,-4)" class="stroke_order_diagram--existing_path"></path><path id="pathSk2v596cn3xnk" kvg:type="㇒/㇚" d="M73,17.88c0.04,0.28,0.09,0.72-0.08,1.12c-0.62,1.42-1.99,3.35-5.54,5.75" transform="matrix(1,0,0,1,796,-4)" class="stroke_order_diagram--existing_path"></path><path id="pathSk2v596cn3xnl" kvg:type="㇔" d="M23.38,33.88c3.46,1.18,8.94,4.83,9.81,6.66" transform="matrix(1,0,0,1,796,-4)" class="stroke_order_diagram--existing_path"></path><path id="pathSk2v596cn3xnm" kvg:type="㇔" d="M17,49.62c3.77,1.15,9.73,4.72,10.67,6.5" transform="matrix(1,0,0,1,796,-4)" class="stroke_order_diagram--existing_path"></path><path id="kvg:07c3f-s9" kvg:type="㇀" d="M18.56,92.4c1.15,0.45,2.55-0.26,3.09-1.41c2.88-6.06,3.98-8.5,6.63-14.53" transform="matrix(1,0,0,1,796,-4)" class="stroke_order_diagram--current_path"></path><path id="pathSk2v596cn3xno" kvg:type="㇀" d="M18.56,92.4c1.15,0.45,2.55-0.26,3.09-1.41c2.88-6.06,3.98-8.5,6.63-14.53" transform="matrix(1,0,0,1,796,-4)" class="stroke_order_diagram--current_path"></path><circle cx="18.56" cy="92.4" r="8" class="stroke_order_diagram--path_start" transform="matrix(1,0,0,1,796,-4)"></circle><line x1="950" x2="950" y1="1" y2="99" class="stroke_order_diagram--guide_line"></line><line x1="999" x2="999" y1="1" y2="99" class="stroke_order_diagram--bounding_box"></line><path id="pathSk2v596cn3xnr" kvg:type="㇒" d="M30.5,11.25c0.07,1,0.04,1.68-0.41,2.6C27.86,18.32,22.21,25.49,16,30.5" transform="matrix(1,0,0,1,896,-4)" class="stroke_order_diagram--existing_path"></path><path id="pathSk2v596cn3xns" kvg:type="㇐b" d="M28.73,21.29c4.27-0.04,12.02-1.66,17.79-3.17c1.37-0.36,2.61-0.37,3.48-0.37" transform="matrix(1,0,0,1,896,-4)" class="stroke_order_diagram--existing_path"></path><path id="pathSk2v596cn3xnt" kvg:type="㇔/㇑" d="M35.52,23.58c1.87,1.3,4.83,5.36,5.29,7.38" transform="matrix(1,0,0,1,896,-4)" class="stroke_order_diagram--existing_path"></path><path id="pathSk2v596cn3xnu" kvg:type="㇒" d="M62,10c0.11,0.81,0,1.58-0.34,2.31c-1.43,3.77-5.53,9.14-9.17,13.44" transform="matrix(1,0,0,1,896,-4)" class="stroke_order_diagram--existing_path"></path><path id="pathSk2v596cn3xnv" kvg:type="㇐b" d="M62.98,17.16c3.86,0,13.39-1.91,20.28-3.5c1.53-0.35,2.89-0.32,3.87-0.32" transform="matrix(1,0,0,1,896,-4)" class="stroke_order_diagram--existing_path"></path><path id="pathSk2v596cn3xnw" kvg:type="㇒/㇚" d="M73,17.88c0.04,0.28,0.09,0.72-0.08,1.12c-0.62,1.42-1.99,3.35-5.54,5.75" transform="matrix(1,0,0,1,896,-4)" class="stroke_order_diagram--existing_path"></path><path id="pathSk2v596cn3xnx" kvg:type="㇔" d="M23.38,33.88c3.46,1.18,8.94,4.83,9.81,6.66" transform="matrix(1,0,0,1,896,-4)" class="stroke_order_diagram--existing_path"></path><path id="pathSk2v596cn3xny" kvg:type="㇔" d="M17,49.62c3.77,1.15,9.73,4.72,10.67,6.5" transform="matrix(1,0,0,1,896,-4)" class="stroke_order_diagram--existing_path"></path><path id="pathSk2v596cn3xnz" kvg:type="㇀" d="M18.56,92.4c1.15,0.45,2.55-0.26,3.09-1.41c2.88-6.06,3.98-8.5,6.63-14.53" transform="matrix(1,0,0,1,896,-4)" class="stroke_order_diagram--existing_path"></path><path id="kvg:07c3f-s10" kvg:type="㇐" d="M49.1,36.32c1.98,0.61,4.37,0.34,6.4,0.18c6.85-0.52,16.5-1.63,22.67-2.76c1.65-0.3,2.69-0.1,3.53,0.05" transform="matrix(1,0,0,1,896,-4)" class="stroke_order_diagram--current_path"></path><path id="pathSk2v596cn3xo1" kvg:type="㇐" d="M49.1,36.32c1.98,0.61,4.37,0.34,6.4,0.18c6.85-0.52,16.5-1.63,22.67-2.76c1.65-0.3,2.69-0.1,3.53,0.05" transform="matrix(1,0,0,1,896,-4)" class="stroke_order_diagram--current_path"></path><circle cx="49.1" cy="36.32" r="8" class="stroke_order_diagram--path_start" transform="matrix(1,0,0,1,896,-4)"></circle><line x1="1050" x2="1050" y1="1" y2="99" class="stroke_order_diagram--guide_line"></line><line x1="1099" x2="1099" y1="1" y2="99" class="stroke_order_diagram--bounding_box"></line><path id="pathSk2v596cn3xo4" kvg:type="㇒" d="M30.5,11.25c0.07,1,0.04,1.68-0.41,2.6C27.86,18.32,22.21,25.49,16,30.5" transform="matrix(1,0,0,1,996,-4)" class="stroke_order_diagram--existing_path"></path><path id="pathSk2v596cn3xo5" kvg:type="㇐b" d="M28.73,21.29c4.27-0.04,12.02-1.66,17.79-3.17c1.37-0.36,2.61-0.37,3.48-0.37" transform="matrix(1,0,0,1,996,-4)" class="stroke_order_diagram--existing_path"></path><path id="pathSk2v596cn3xo6" kvg:type="㇔/㇑" d="M35.52,23.58c1.87,1.3,4.83,5.36,5.29,7.38" transform="matrix(1,0,0,1,996,-4)" class="stroke_order_diagram--existing_path"></path><path id="pathSk2v596cn3xo7" kvg:type="㇒" d="M62,10c0.11,0.81,0,1.58-0.34,2.31c-1.43,3.77-5.53,9.14-9.17,13.44" transform="matrix(1,0,0,1,996,-4)" class="stroke_order_diagram--existing_path"></path><path id="pathSk2v596cn3xo8" kvg:type="㇐b" d="M62.98,17.16c3.86,0,13.39-1.91,20.28-3.5c1.53-0.35,2.89-0.32,3.87-0.32" transform="matrix(1,0,0,1,996,-4)" class="stroke_order_diagram--existing_path"></path><path id="pathSk2v596cn3xo9" kvg:type="㇒/㇚" d="M73,17.88c0.04,0.28,0.09,0.72-0.08,1.12c-0.62,1.42-1.99,3.35-5.54,5.75" transform="matrix(1,0,0,1,996,-4)" class="stroke_order_diagram--existing_path"></path><path id="pathSk2v596cn3xoa" kvg:type="㇔" d="M23.38,33.88c3.46,1.18,8.94,4.83,9.81,6.66" transform="matrix(1,0,0,1,996,-4)" class="stroke_order_diagram--existing_path"></path><path id="pathSk2v596cn3xob" kvg:type="㇔" d="M17,49.62c3.77,1.15,9.73,4.72,10.67,6.5" transform="matrix(1,0,0,1,996,-4)" class="stroke_order_diagram--existing_path"></path><path id="pathSk2v596cn3xoc" kvg:type="㇀" d="M18.56,92.4c1.15,0.45,2.55-0.26,3.09-1.41c2.88-6.06,3.98-8.5,6.63-14.53" transform="matrix(1,0,0,1,996,-4)" class="stroke_order_diagram--existing_path"></path><path id="pathSk2v596cn3xod" kvg:type="㇐" d="M49.1,36.32c1.98,0.61,4.37,0.34,6.4,0.18c6.85-0.52,16.5-1.63,22.67-2.76c1.65-0.3,2.69-0.1,3.53,0.05" transform="matrix(1,0,0,1,996,-4)" class="stroke_order_diagram--existing_path"></path><path id="kvg:07c3f-s11" kvg:type="㇑" d="M46.2,45.23c0.53,0.48,0.97,1.99,1.05,2.49c0.38,2.18,1.57,10.36,2.23,15.76c0.2,1.64,0.33,3.08,0.33,4.08" transform="matrix(1,0,0,1,996,-4)" class="stroke_order_diagram--current_path"></path><path id="pathSk2v596cn3xof" kvg:type="㇑" d="M46.2,45.23c0.53,0.48,0.97,1.99,1.05,2.49c0.38,2.18,1.57,10.36,2.23,15.76c0.2,1.64,0.33,3.08,0.33,4.08" transform="matrix(1,0,0,1,996,-4)" class="stroke_order_diagram--current_path"></path><circle cx="46.2" cy="45.23" r="8" class="stroke_order_diagram--path_start" transform="matrix(1,0,0,1,996,-4)"></circle><line x1="1150" x2="1150" y1="1" y2="99" class="stroke_order_diagram--guide_line"></line><line x1="1199" x2="1199" y1="1" y2="99" class="stroke_order_diagram--bounding_box"></line><path id="pathSk2v596cn3xoi" kvg:type="㇒" d="M30.5,11.25c0.07,1,0.04,1.68-0.41,2.6C27.86,18.32,22.21,25.49,16,30.5" transform="matrix(1,0,0,1,1096,-4)" class="stroke_order_diagram--existing_path"></path><path id="pathSk2v596cn3xoj" kvg:type="㇐b" d="M28.73,21.29c4.27-0.04,12.02-1.66,17.79-3.17c1.37-0.36,2.61-0.37,3.48-0.37" transform="matrix(1,0,0,1,1096,-4)" class="stroke_order_diagram--existing_path"></path><path id="pathSk2v596cn3xok" kvg:type="㇔/㇑" d="M35.52,23.58c1.87,1.3,4.83,5.36,5.29,7.38" transform="matrix(1,0,0,1,1096,-4)" class="stroke_order_diagram--existing_path"></path><path id="pathSk2v596cn3xol" kvg:type="㇒" d="M62,10c0.11,0.81,0,1.58-0.34,2.31c-1.43,3.77-5.53,9.14-9.17,13.44" transform="matrix(1,0,0,1,1096,-4)" class="stroke_order_diagram--existing_path"></path><path id="pathSk2v596cn3xom" kvg:type="㇐b" d="M62.98,17.16c3.86,0,13.39-1.91,20.28-3.5c1.53-0.35,2.89-0.32,3.87-0.32" transform="matrix(1,0,0,1,1096,-4)" class="stroke_order_diagram--existing_path"></path><path id="pathSk2v596cn3xon" kvg:type="㇒/㇚" d="M73,17.88c0.04,0.28,0.09,0.72-0.08,1.12c-0.62,1.42-1.99,3.35-5.54,5.75" transform="matrix(1,0,0,1,1096,-4)" class="stroke_order_diagram--existing_path"></path><path id="pathSk2v596cn3xoo" kvg:type="㇔" d="M23.38,33.88c3.46,1.18,8.94,4.83,9.81,6.66" transform="matrix(1,0,0,1,1096,-4)" class="stroke_order_diagram--existing_path"></path><path id="pathSk2v596cn3xop" kvg:type="㇔" d="M17,49.62c3.77,1.15,9.73,4.72,10.67,6.5" transform="matrix(1,0,0,1,1096,-4)" class="stroke_order_diagram--existing_path"></path><path id="pathSk2v596cn3xoq" kvg:type="㇀" d="M18.56,92.4c1.15,0.45,2.55-0.26,3.09-1.41c2.88-6.06,3.98-8.5,6.63-14.53" transform="matrix(1,0,0,1,1096,-4)" class="stroke_order_diagram--existing_path"></path><path id="pathSk2v596cn3xor" kvg:type="㇐" d="M49.1,36.32c1.98,0.61,4.37,0.34,6.4,0.18c6.85-0.52,16.5-1.63,22.67-2.76c1.65-0.3,2.69-0.1,3.53,0.05" transform="matrix(1,0,0,1,1096,-4)" class="stroke_order_diagram--existing_path"></path><path id="pathSk2v596cn3xos" kvg:type="㇑" d="M46.2,45.23c0.53,0.48,0.97,1.99,1.05,2.49c0.38,2.18,1.57,10.36,2.23,15.76c0.2,1.64,0.33,3.08,0.33,4.08" transform="matrix(1,0,0,1,1096,-4)" class="stroke_order_diagram--existing_path"></path><path id="kvg:07c3f-s12" kvg:type="㇕a/㇆" d="M48.06,47.27c6.63-1.08,26.23-3.66,32.95-4.43c3.59-0.41,5.62,0.35,4.95,4.3c-0.39,2.29-0.98,6.32-2.53,12.39c-0.33,1.3-0.71,2.7-1.13,4.2" transform="matrix(1,0,0,1,1096,-4)" class="stroke_order_diagram--current_path"></path><path id="pathSk2v596cn3xou" kvg:type="㇕a/㇆" d="M48.06,47.27c6.63-1.08,26.23-3.66,32.95-4.43c3.59-0.41,5.62,0.35,4.95,4.3c-0.39,2.29-0.98,6.32-2.53,12.39c-0.33,1.3-0.71,2.7-1.13,4.2" transform="matrix(1,0,0,1,1096,-4)" class="stroke_order_diagram--current_path"></path><circle cx="48.06" cy="47.27" r="8" class="stroke_order_diagram--path_start" transform="matrix(1,0,0,1,1096,-4)"></circle><line x1="1250" x2="1250" y1="1" y2="99" class="stroke_order_diagram--guide_line"></line><line x1="1299" x2="1299" y1="1" y2="99" class="stroke_order_diagram--bounding_box"></line><path id="pathSk2v596cn3xox" kvg:type="㇒" d="M30.5,11.25c0.07,1,0.04,1.68-0.41,2.6C27.86,18.32,22.21,25.49,16,30.5" transform="matrix(1,0,0,1,1196,-4)" class="stroke_order_diagram--existing_path"></path><path id="pathSk2v596cn3xoy" kvg:type="㇐b" d="M28.73,21.29c4.27-0.04,12.02-1.66,17.79-3.17c1.37-0.36,2.61-0.37,3.48-0.37" transform="matrix(1,0,0,1,1196,-4)" class="stroke_order_diagram--existing_path"></path><path id="pathSk2v596cn3xoz" kvg:type="㇔/㇑" d="M35.52,23.58c1.87,1.3,4.83,5.36,5.29,7.38" transform="matrix(1,0,0,1,1196,-4)" class="stroke_order_diagram--existing_path"></path><path id="pathSk2v596cn3xp0" kvg:type="㇒" d="M62,10c0.11,0.81,0,1.58-0.34,2.31c-1.43,3.77-5.53,9.14-9.17,13.44" transform="matrix(1,0,0,1,1196,-4)" class="stroke_order_diagram--existing_path"></path><path id="pathSk2v596cn3xp1" kvg:type="㇐b" d="M62.98,17.16c3.86,0,13.39-1.91,20.28-3.5c1.53-0.35,2.89-0.32,3.87-0.32" transform="matrix(1,0,0,1,1196,-4)" class="stroke_order_diagram--existing_path"></path><path id="pathSk2v596cn3xp2" kvg:type="㇒/㇚" d="M73,17.88c0.04,0.28,0.09,0.72-0.08,1.12c-0.62,1.42-1.99,3.35-5.54,5.75" transform="matrix(1,0,0,1,1196,-4)" class="stroke_order_diagram--existing_path"></path><path id="pathSk2v596cn3xp3" kvg:type="㇔" d="M23.38,33.88c3.46,1.18,8.94,4.83,9.81,6.66" transform="matrix(1,0,0,1,1196,-4)" class="stroke_order_diagram--existing_path"></path><path id="pathSk2v596cn3xp4" kvg:type="㇔" d="M17,49.62c3.77,1.15,9.73,4.72,10.67,6.5" transform="matrix(1,0,0,1,1196,-4)" class="stroke_order_diagram--existing_path"></path><path id="pathSk2v596cn3xp5" kvg:type="㇀" d="M18.56,92.4c1.15,0.45,2.55-0.26,3.09-1.41c2.88-6.06,3.98-8.5,6.63-14.53" transform="matrix(1,0,0,1,1196,-4)" class="stroke_order_diagram--existing_path"></path><path id="pathSk2v596cn3xp6" kvg:type="㇐" d="M49.1,36.32c1.98,0.61,4.37,0.34,6.4,0.18c6.85-0.52,16.5-1.63,22.67-2.76c1.65-0.3,2.69-0.1,3.53,0.05" transform="matrix(1,0,0,1,1196,-4)" class="stroke_order_diagram--existing_path"></path><path id="pathSk2v596cn3xp7" kvg:type="㇑" d="M46.2,45.23c0.53,0.48,0.97,1.99,1.05,2.49c0.38,2.18,1.57,10.36,2.23,15.76c0.2,1.64,0.33,3.08,0.33,4.08" transform="matrix(1,0,0,1,1196,-4)" class="stroke_order_diagram--existing_path"></path><path id="pathSk2v596cn3xp8" kvg:type="㇕a/㇆" d="M48.06,47.27c6.63-1.08,26.23-3.66,32.95-4.43c3.59-0.41,5.62,0.35,4.95,4.3c-0.39,2.29-0.98,6.32-2.53,12.39c-0.33,1.3-0.71,2.7-1.13,4.2" transform="matrix(1,0,0,1,1196,-4)" class="stroke_order_diagram--existing_path"></path><path id="kvg:07c3f-s13" kvg:type="㇐a" d="M49.81,55.73c9.07-0.98,24.57-3.11,34.21-3.47" transform="matrix(1,0,0,1,1196,-4)" class="stroke_order_diagram--current_path"></path><path id="pathSk2v596cn3xpa" kvg:type="㇐a" d="M49.81,55.73c9.07-0.98,24.57-3.11,34.21-3.47" transform="matrix(1,0,0,1,1196,-4)" class="stroke_order_diagram--current_path"></path><circle cx="49.81" cy="55.73" r="8" class="stroke_order_diagram--path_start" transform="matrix(1,0,0,1,1196,-4)"></circle><line x1="1350" x2="1350" y1="1" y2="99" class="stroke_order_diagram--guide_line"></line><line x1="1399" x2="1399" y1="1" y2="99" class="stroke_order_diagram--bounding_box"></line><path id="pathSk2v596cn3xpd" kvg:type="㇒" d="M30.5,11.25c0.07,1,0.04,1.68-0.41,2.6C27.86,18.32,22.21,25.49,16,30.5" transform="matrix(1,0,0,1,1296,-4)" class="stroke_order_diagram--existing_path"></path><path id="pathSk2v596cn3xpe" kvg:type="㇐b" d="M28.73,21.29c4.27-0.04,12.02-1.66,17.79-3.17c1.37-0.36,2.61-0.37,3.48-0.37" transform="matrix(1,0,0,1,1296,-4)" class="stroke_order_diagram--existing_path"></path><path id="pathSk2v596cn3xpf" kvg:type="㇔/㇑" d="M35.52,23.58c1.87,1.3,4.83,5.36,5.29,7.38" transform="matrix(1,0,0,1,1296,-4)" class="stroke_order_diagram--existing_path"></path><path id="pathSk2v596cn3xpg" kvg:type="㇒" d="M62,10c0.11,0.81,0,1.58-0.34,2.31c-1.43,3.77-5.53,9.14-9.17,13.44" transform="matrix(1,0,0,1,1296,-4)" class="stroke_order_diagram--existing_path"></path><path id="pathSk2v596cn3xph" kvg:type="㇐b" d="M62.98,17.16c3.86,0,13.39-1.91,20.28-3.5c1.53-0.35,2.89-0.32,3.87-0.32" transform="matrix(1,0,0,1,1296,-4)" class="stroke_order_diagram--existing_path"></path><path id="pathSk2v596cn3xpi" kvg:type="㇒/㇚" d="M73,17.88c0.04,0.28,0.09,0.72-0.08,1.12c-0.62,1.42-1.99,3.35-5.54,5.75" transform="matrix(1,0,0,1,1296,-4)" class="stroke_order_diagram--existing_path"></path><path id="pathSk2v596cn3xpj" kvg:type="㇔" d="M23.38,33.88c3.46,1.18,8.94,4.83,9.81,6.66" transform="matrix(1,0,0,1,1296,-4)" class="stroke_order_diagram--existing_path"></path><path id="pathSk2v596cn3xpk" kvg:type="㇔" d="M17,49.62c3.77,1.15,9.73,4.72,10.67,6.5" transform="matrix(1,0,0,1,1296,-4)" class="stroke_order_diagram--existing_path"></path><path id="pathSk2v596cn3xpl" kvg:type="㇀" d="M18.56,92.4c1.15,0.45,2.55-0.26,3.09-1.41c2.88-6.06,3.98-8.5,6.63-14.53" transform="matrix(1,0,0,1,1296,-4)" class="stroke_order_diagram--existing_path"></path><path id="pathSk2v596cn3xpm" kvg:type="㇐" d="M49.1,36.32c1.98,0.61,4.37,0.34,6.4,0.18c6.85-0.52,16.5-1.63,22.67-2.76c1.65-0.3,2.69-0.1,3.53,0.05" transform="matrix(1,0,0,1,1296,-4)" class="stroke_order_diagram--existing_path"></path><path id="pathSk2v596cn3xpn" kvg:type="㇑" d="M46.2,45.23c0.53,0.48,0.97,1.99,1.05,2.49c0.38,2.18,1.57,10.36,2.23,15.76c0.2,1.64,0.33,3.08,0.33,4.08" transform="matrix(1,0,0,1,1296,-4)" class="stroke_order_diagram--existing_path"></path><path id="pathSk2v596cn3xpo" kvg:type="㇕a/㇆" d="M48.06,47.27c6.63-1.08,26.23-3.66,32.95-4.43c3.59-0.41,5.62,0.35,4.95,4.3c-0.39,2.29-0.98,6.32-2.53,12.39c-0.33,1.3-0.71,2.7-1.13,4.2" transform="matrix(1,0,0,1,1296,-4)" class="stroke_order_diagram--existing_path"></path><path id="pathSk2v596cn3xpp" kvg:type="㇐a" d="M49.81,55.73c9.07-0.98,24.57-3.11,34.21-3.47" transform="matrix(1,0,0,1,1296,-4)" class="stroke_order_diagram--existing_path"></path><path id="kvg:07c3f-s14" kvg:type="㇐a" d="M50.72,65.26c8.53-1.14,24.29-2.62,30.78-2.86" transform="matrix(1,0,0,1,1296,-4)" class="stroke_order_diagram--current_path"></path><path id="pathSk2v596cn3xpr" kvg:type="㇐a" d="M50.72,65.26c8.53-1.14,24.29-2.62,30.78-2.86" transform="matrix(1,0,0,1,1296,-4)" class="stroke_order_diagram--current_path"></path><circle cx="50.72" cy="65.26" r="8" class="stroke_order_diagram--path_start" transform="matrix(1,0,0,1,1296,-4)"></circle><line x1="1450" x2="1450" y1="1" y2="99" class="stroke_order_diagram--guide_line"></line><line x1="1499" x2="1499" y1="1" y2="99" class="stroke_order_diagram--bounding_box"></line><path id="pathSk2v596cn3xpu" kvg:type="㇒" d="M30.5,11.25c0.07,1,0.04,1.68-0.41,2.6C27.86,18.32,22.21,25.49,16,30.5" transform="matrix(1,0,0,1,1396,-4)" class="stroke_order_diagram--existing_path"></path><path id="pathSk2v596cn3xpv" kvg:type="㇐b" d="M28.73,21.29c4.27-0.04,12.02-1.66,17.79-3.17c1.37-0.36,2.61-0.37,3.48-0.37" transform="matrix(1,0,0,1,1396,-4)" class="stroke_order_diagram--existing_path"></path><path id="pathSk2v596cn3xpw" kvg:type="㇔/㇑" d="M35.52,23.58c1.87,1.3,4.83,5.36,5.29,7.38" transform="matrix(1,0,0,1,1396,-4)" class="stroke_order_diagram--existing_path"></path><path id="pathSk2v596cn3xpx" kvg:type="㇒" d="M62,10c0.11,0.81,0,1.58-0.34,2.31c-1.43,3.77-5.53,9.14-9.17,13.44" transform="matrix(1,0,0,1,1396,-4)" class="stroke_order_diagram--existing_path"></path><path id="pathSk2v596cn3xpy" kvg:type="㇐b" d="M62.98,17.16c3.86,0,13.39-1.91,20.28-3.5c1.53-0.35,2.89-0.32,3.87-0.32" transform="matrix(1,0,0,1,1396,-4)" class="stroke_order_diagram--existing_path"></path><path id="pathSk2v596cn3xpz" kvg:type="㇒/㇚" d="M73,17.88c0.04,0.28,0.09,0.72-0.08,1.12c-0.62,1.42-1.99,3.35-5.54,5.75" transform="matrix(1,0,0,1,1396,-4)" class="stroke_order_diagram--existing_path"></path><path id="pathSk2v596cn3xq0" kvg:type="㇔" d="M23.38,33.88c3.46,1.18,8.94,4.83,9.81,6.66" transform="matrix(1,0,0,1,1396,-4)" class="stroke_order_diagram--existing_path"></path><path id="pathSk2v596cn3xq1" kvg:type="㇔" d="M17,49.62c3.77,1.15,9.73,4.72,10.67,6.5" transform="matrix(1,0,0,1,1396,-4)" class="stroke_order_diagram--existing_path"></path><path id="pathSk2v596cn3xq2" kvg:type="㇀" d="M18.56,92.4c1.15,0.45,2.55-0.26,3.09-1.41c2.88-6.06,3.98-8.5,6.63-14.53" transform="matrix(1,0,0,1,1396,-4)" class="stroke_order_diagram--existing_path"></path><path id="pathSk2v596cn3xq3" kvg:type="㇐" d="M49.1,36.32c1.98,0.61,4.37,0.34,6.4,0.18c6.85-0.52,16.5-1.63,22.67-2.76c1.65-0.3,2.69-0.1,3.53,0.05" transform="matrix(1,0,0,1,1396,-4)" class="stroke_order_diagram--existing_path"></path><path id="pathSk2v596cn3xq4" kvg:type="㇑" d="M46.2,45.23c0.53,0.48,0.97,1.99,1.05,2.49c0.38,2.18,1.57,10.36,2.23,15.76c0.2,1.64,0.33,3.08,0.33,4.08" transform="matrix(1,0,0,1,1396,-4)" class="stroke_order_diagram--existing_path"></path><path id="pathSk2v596cn3xq5" kvg:type="㇕a/㇆" d="M48.06,47.27c6.63-1.08,26.23-3.66,32.95-4.43c3.59-0.41,5.62,0.35,4.95,4.3c-0.39,2.29-0.98,6.32-2.53,12.39c-0.33,1.3-0.71,2.7-1.13,4.2" transform="matrix(1,0,0,1,1396,-4)" class="stroke_order_diagram--existing_path"></path><path id="pathSk2v596cn3xq6" kvg:type="㇐a" d="M49.81,55.73c9.07-0.98,24.57-3.11,34.21-3.47" transform="matrix(1,0,0,1,1396,-4)" class="stroke_order_diagram--existing_path"></path><path id="pathSk2v596cn3xq7" kvg:type="㇐a" d="M50.72,65.26c8.53-1.14,24.29-2.62,30.78-2.86" transform="matrix(1,0,0,1,1396,-4)" class="stroke_order_diagram--existing_path"></path><path id="kvg:07c3f-s15" kvg:type="㇑a" d="M64.21,29.25c0.96,0.95,1.26,2.37,1.26,3.51c0,0.79-0.1,24.86-0.1,29.74" transform="matrix(1,0,0,1,1396,-4)" class="stroke_order_diagram--current_path"></path><path id="pathSk2v596cn3xq9" kvg:type="㇑a" d="M64.21,29.25c0.96,0.95,1.26,2.37,1.26,3.51c0,0.79-0.1,24.86-0.1,29.74" transform="matrix(1,0,0,1,1396,-4)" class="stroke_order_diagram--current_path"></path><circle cx="64.21" cy="29.25" r="8" class="stroke_order_diagram--path_start" transform="matrix(1,0,0,1,1396,-4)"></circle><line x1="1550" x2="1550" y1="1" y2="99" class="stroke_order_diagram--guide_line"></line><line x1="1599" x2="1599" y1="1" y2="99" class="stroke_order_diagram--bounding_box"></line><path id="pathSk2v596cn3xqc" kvg:type="㇒" d="M30.5,11.25c0.07,1,0.04,1.68-0.41,2.6C27.86,18.32,22.21,25.49,16,30.5" transform="matrix(1,0,0,1,1496,-4)" class="stroke_order_diagram--existing_path"></path><path id="pathSk2v596cn3xqd" kvg:type="㇐b" d="M28.73,21.29c4.27-0.04,12.02-1.66,17.79-3.17c1.37-0.36,2.61-0.37,3.48-0.37" transform="matrix(1,0,0,1,1496,-4)" class="stroke_order_diagram--existing_path"></path><path id="pathSk2v596cn3xqe" kvg:type="㇔/㇑" d="M35.52,23.58c1.87,1.3,4.83,5.36,5.29,7.38" transform="matrix(1,0,0,1,1496,-4)" class="stroke_order_diagram--existing_path"></path><path id="pathSk2v596cn3xqf" kvg:type="㇒" d="M62,10c0.11,0.81,0,1.58-0.34,2.31c-1.43,3.77-5.53,9.14-9.17,13.44" transform="matrix(1,0,0,1,1496,-4)" class="stroke_order_diagram--existing_path"></path><path id="pathSk2v596cn3xqg" kvg:type="㇐b" d="M62.98,17.16c3.86,0,13.39-1.91,20.28-3.5c1.53-0.35,2.89-0.32,3.87-0.32" transform="matrix(1,0,0,1,1496,-4)" class="stroke_order_diagram--existing_path"></path><path id="pathSk2v596cn3xqh" kvg:type="㇒/㇚" d="M73,17.88c0.04,0.28,0.09,0.72-0.08,1.12c-0.62,1.42-1.99,3.35-5.54,5.75" transform="matrix(1,0,0,1,1496,-4)" class="stroke_order_diagram--existing_path"></path><path id="pathSk2v596cn3xqi" kvg:type="㇔" d="M23.38,33.88c3.46,1.18,8.94,4.83,9.81,6.66" transform="matrix(1,0,0,1,1496,-4)" class="stroke_order_diagram--existing_path"></path><path id="pathSk2v596cn3xqj" kvg:type="㇔" d="M17,49.62c3.77,1.15,9.73,4.72,10.67,6.5" transform="matrix(1,0,0,1,1496,-4)" class="stroke_order_diagram--existing_path"></path><path id="pathSk2v596cn3xqk" kvg:type="㇀" d="M18.56,92.4c1.15,0.45,2.55-0.26,3.09-1.41c2.88-6.06,3.98-8.5,6.63-14.53" transform="matrix(1,0,0,1,1496,-4)" class="stroke_order_diagram--existing_path"></path><path id="pathSk2v596cn3xql" kvg:type="㇐" d="M49.1,36.32c1.98,0.61,4.37,0.34,6.4,0.18c6.85-0.52,16.5-1.63,22.67-2.76c1.65-0.3,2.69-0.1,3.53,0.05" transform="matrix(1,0,0,1,1496,-4)" class="stroke_order_diagram--existing_path"></path><path id="pathSk2v596cn3xqm" kvg:type="㇑" d="M46.2,45.23c0.53,0.48,0.97,1.99,1.05,2.49c0.38,2.18,1.57,10.36,2.23,15.76c0.2,1.64,0.33,3.08,0.33,4.08" transform="matrix(1,0,0,1,1496,-4)" class="stroke_order_diagram--existing_path"></path><path id="pathSk2v596cn3xqn" kvg:type="㇕a/㇆" d="M48.06,47.27c6.63-1.08,26.23-3.66,32.95-4.43c3.59-0.41,5.62,0.35,4.95,4.3c-0.39,2.29-0.98,6.32-2.53,12.39c-0.33,1.3-0.71,2.7-1.13,4.2" transform="matrix(1,0,0,1,1496,-4)" class="stroke_order_diagram--existing_path"></path><path id="pathSk2v596cn3xqo" kvg:type="㇐a" d="M49.81,55.73c9.07-0.98,24.57-3.11,34.21-3.47" transform="matrix(1,0,0,1,1496,-4)" class="stroke_order_diagram--existing_path"></path><path id="pathSk2v596cn3xqp" kvg:type="㇐a" d="M50.72,65.26c8.53-1.14,24.29-2.62,30.78-2.86" transform="matrix(1,0,0,1,1496,-4)" class="stroke_order_diagram--existing_path"></path><path id="pathSk2v596cn3xqq" kvg:type="㇑a" d="M64.21,29.25c0.96,0.95,1.26,2.37,1.26,3.51c0,0.79-0.1,24.86-0.1,29.74" transform="matrix(1,0,0,1,1496,-4)" class="stroke_order_diagram--existing_path"></path><path id="kvg:07c3f-s16" kvg:type="㇔" d="M83.34,27.5c2.69,1.3,6.96,5.36,7.63,7.39" transform="matrix(1,0,0,1,1496,-4)" class="stroke_order_diagram--current_path"></path><path id="pathSk2v596cn3xqs" kvg:type="㇔" d="M83.34,27.5c2.69,1.3,6.96,5.36,7.63,7.39" transform="matrix(1,0,0,1,1496,-4)" class="stroke_order_diagram--current_path"></path><circle cx="83.34" cy="27.5" r="8" class="stroke_order_diagram--path_start" transform="matrix(1,0,0,1,1496,-4)"></circle><line x1="1650" x2="1650" y1="1" y2="99" class="stroke_order_diagram--guide_line"></line><line x1="1699" x2="1699" y1="1" y2="99" class="stroke_order_diagram--bounding_box"></line><path id="pathSk2v596cn3xqv" kvg:type="㇒" d="M30.5,11.25c0.07,1,0.04,1.68-0.41,2.6C27.86,18.32,22.21,25.49,16,30.5" transform="matrix(1,0,0,1,1596,-4)" class="stroke_order_diagram--existing_path"></path><path id="pathSk2v596cn3xqw" kvg:type="㇐b" d="M28.73,21.29c4.27-0.04,12.02-1.66,17.79-3.17c1.37-0.36,2.61-0.37,3.48-0.37" transform="matrix(1,0,0,1,1596,-4)" class="stroke_order_diagram--existing_path"></path><path id="pathSk2v596cn3xqx" kvg:type="㇔/㇑" d="M35.52,23.58c1.87,1.3,4.83,5.36,5.29,7.38" transform="matrix(1,0,0,1,1596,-4)" class="stroke_order_diagram--existing_path"></path><path id="pathSk2v596cn3xqy" kvg:type="㇒" d="M62,10c0.11,0.81,0,1.58-0.34,2.31c-1.43,3.77-5.53,9.14-9.17,13.44" transform="matrix(1,0,0,1,1596,-4)" class="stroke_order_diagram--existing_path"></path><path id="pathSk2v596cn3xqz" kvg:type="㇐b" d="M62.98,17.16c3.86,0,13.39-1.91,20.28-3.5c1.53-0.35,2.89-0.32,3.87-0.32" transform="matrix(1,0,0,1,1596,-4)" class="stroke_order_diagram--existing_path"></path><path id="pathSk2v596cn3xr0" kvg:type="㇒/㇚" d="M73,17.88c0.04,0.28,0.09,0.72-0.08,1.12c-0.62,1.42-1.99,3.35-5.54,5.75" transform="matrix(1,0,0,1,1596,-4)" class="stroke_order_diagram--existing_path"></path><path id="pathSk2v596cn3xr1" kvg:type="㇔" d="M23.38,33.88c3.46,1.18,8.94,4.83,9.81,6.66" transform="matrix(1,0,0,1,1596,-4)" class="stroke_order_diagram--existing_path"></path><path id="pathSk2v596cn3xr2" kvg:type="㇔" d="M17,49.62c3.77,1.15,9.73,4.72,10.67,6.5" transform="matrix(1,0,0,1,1596,-4)" class="stroke_order_diagram--existing_path"></path><path id="pathSk2v596cn3xr3" kvg:type="㇀" d="M18.56,92.4c1.15,0.45,2.55-0.26,3.09-1.41c2.88-6.06,3.98-8.5,6.63-14.53" transform="matrix(1,0,0,1,1596,-4)" class="stroke_order_diagram--existing_path"></path><path id="pathSk2v596cn3xr4" kvg:type="㇐" d="M49.1,36.32c1.98,0.61,4.37,0.34,6.4,0.18c6.85-0.52,16.5-1.63,22.67-2.76c1.65-0.3,2.69-0.1,3.53,0.05" transform="matrix(1,0,0,1,1596,-4)" class="stroke_order_diagram--existing_path"></path><path id="pathSk2v596cn3xr5" kvg:type="㇑" d="M46.2,45.23c0.53,0.48,0.97,1.99,1.05,2.49c0.38,2.18,1.57,10.36,2.23,15.76c0.2,1.64,0.33,3.08,0.33,4.08" transform="matrix(1,0,0,1,1596,-4)" class="stroke_order_diagram--existing_path"></path><path id="pathSk2v596cn3xr6" kvg:type="㇕a/㇆" d="M48.06,47.27c6.63-1.08,26.23-3.66,32.95-4.43c3.59-0.41,5.62,0.35,4.95,4.3c-0.39,2.29-0.98,6.32-2.53,12.39c-0.33,1.3-0.71,2.7-1.13,4.2" transform="matrix(1,0,0,1,1596,-4)" class="stroke_order_diagram--existing_path"></path><path id="pathSk2v596cn3xr7" kvg:type="㇐a" d="M49.81,55.73c9.07-0.98,24.57-3.11,34.21-3.47" transform="matrix(1,0,0,1,1596,-4)" class="stroke_order_diagram--existing_path"></path><path id="pathSk2v596cn3xr8" kvg:type="㇐a" d="M50.72,65.26c8.53-1.14,24.29-2.62,30.78-2.86" transform="matrix(1,0,0,1,1596,-4)" class="stroke_order_diagram--existing_path"></path><path id="pathSk2v596cn3xr9" kvg:type="㇑a" d="M64.21,29.25c0.96,0.95,1.26,2.37,1.26,3.51c0,0.79-0.1,24.86-0.1,29.74" transform="matrix(1,0,0,1,1596,-4)" class="stroke_order_diagram--existing_path"></path><path id="pathSk2v596cn3xra" kvg:type="㇔" d="M83.34,27.5c2.69,1.3,6.96,5.36,7.63,7.39" transform="matrix(1,0,0,1,1596,-4)" class="stroke_order_diagram--existing_path"></path><path id="kvg:07c3f-s17" kvg:type="㇐" d="M36.12,76.48c2.16,0.93,5.39,0.63,7.64,0.35c12.62-1.58,31.15-2.96,43.61-3.73c2.73-0.17,4.92-0.2,7.55,0.48" transform="matrix(1,0,0,1,1596,-4)" class="stroke_order_diagram--current_path"></path><path id="pathSk2v596cn3xrc" kvg:type="㇐" d="M36.12,76.48c2.16,0.93,5.39,0.63,7.64,0.35c12.62-1.58,31.15-2.96,43.61-3.73c2.73-0.17,4.92-0.2,7.55,0.48" transform="matrix(1,0,0,1,1596,-4)" class="stroke_order_diagram--current_path"></path><circle cx="36.12" cy="76.48" r="8" class="stroke_order_diagram--path_start" transform="matrix(1,0,0,1,1596,-4)"></circle><line x1="1750" x2="1750" y1="1" y2="99" class="stroke_order_diagram--guide_line"></line><line x1="1799" x2="1799" y1="1" y2="99" class="stroke_order_diagram--bounding_box"></line><path id="pathSk2v596cn3xrf" kvg:type="㇒" d="M30.5,11.25c0.07,1,0.04,1.68-0.41,2.6C27.86,18.32,22.21,25.49,16,30.5" transform="matrix(1,0,0,1,1696,-4)" class="stroke_order_diagram--existing_path"></path><path id="pathSk2v596cn3xrg" kvg:type="㇐b" d="M28.73,21.29c4.27-0.04,12.02-1.66,17.79-3.17c1.37-0.36,2.61-0.37,3.48-0.37" transform="matrix(1,0,0,1,1696,-4)" class="stroke_order_diagram--existing_path"></path><path id="pathSk2v596cn3xrh" kvg:type="㇔/㇑" d="M35.52,23.58c1.87,1.3,4.83,5.36,5.29,7.38" transform="matrix(1,0,0,1,1696,-4)" class="stroke_order_diagram--existing_path"></path><path id="pathSk2v596cn3xri" kvg:type="㇒" d="M62,10c0.11,0.81,0,1.58-0.34,2.31c-1.43,3.77-5.53,9.14-9.17,13.44" transform="matrix(1,0,0,1,1696,-4)" class="stroke_order_diagram--existing_path"></path><path id="pathSk2v596cn3xrj" kvg:type="㇐b" d="M62.98,17.16c3.86,0,13.39-1.91,20.28-3.5c1.53-0.35,2.89-0.32,3.87-0.32" transform="matrix(1,0,0,1,1696,-4)" class="stroke_order_diagram--existing_path"></path><path id="pathSk2v596cn3xrk" kvg:type="㇒/㇚" d="M73,17.88c0.04,0.28,0.09,0.72-0.08,1.12c-0.62,1.42-1.99,3.35-5.54,5.75" transform="matrix(1,0,0,1,1696,-4)" class="stroke_order_diagram--existing_path"></path><path id="pathSk2v596cn3xrl" kvg:type="㇔" d="M23.38,33.88c3.46,1.18,8.94,4.83,9.81,6.66" transform="matrix(1,0,0,1,1696,-4)" class="stroke_order_diagram--existing_path"></path><path id="pathSk2v596cn3xrm" kvg:type="㇔" d="M17,49.62c3.77,1.15,9.73,4.72,10.67,6.5" transform="matrix(1,0,0,1,1696,-4)" class="stroke_order_diagram--existing_path"></path><path id="pathSk2v596cn3xrn" kvg:type="㇀" d="M18.56,92.4c1.15,0.45,2.55-0.26,3.09-1.41c2.88-6.06,3.98-8.5,6.63-14.53" transform="matrix(1,0,0,1,1696,-4)" class="stroke_order_diagram--existing_path"></path><path id="pathSk2v596cn3xro" kvg:type="㇐" d="M49.1,36.32c1.98,0.61,4.37,0.34,6.4,0.18c6.85-0.52,16.5-1.63,22.67-2.76c1.65-0.3,2.69-0.1,3.53,0.05" transform="matrix(1,0,0,1,1696,-4)" class="stroke_order_diagram--existing_path"></path><path id="pathSk2v596cn3xrp" kvg:type="㇑" d="M46.2,45.23c0.53,0.48,0.97,1.99,1.05,2.49c0.38,2.18,1.57,10.36,2.23,15.76c0.2,1.64,0.33,3.08,0.33,4.08" transform="matrix(1,0,0,1,1696,-4)" class="stroke_order_diagram--existing_path"></path><path id="pathSk2v596cn3xrq" kvg:type="㇕a/㇆" d="M48.06,47.27c6.63-1.08,26.23-3.66,32.95-4.43c3.59-0.41,5.62,0.35,4.95,4.3c-0.39,2.29-0.98,6.32-2.53,12.39c-0.33,1.3-0.71,2.7-1.13,4.2" transform="matrix(1,0,0,1,1696,-4)" class="stroke_order_diagram--existing_path"></path><path id="pathSk2v596cn3xrr" kvg:type="㇐a" d="M49.81,55.73c9.07-0.98,24.57-3.11,34.21-3.47" transform="matrix(1,0,0,1,1696,-4)" class="stroke_order_diagram--existing_path"></path><path id="pathSk2v596cn3xrs" kvg:type="㇐a" d="M50.72,65.26c8.53-1.14,24.29-2.62,30.78-2.86" transform="matrix(1,0,0,1,1696,-4)" class="stroke_order_diagram--existing_path"></path><path id="pathSk2v596cn3xrt" kvg:type="㇑a" d="M64.21,29.25c0.96,0.95,1.26,2.37,1.26,3.51c0,0.79-0.1,24.86-0.1,29.74" transform="matrix(1,0,0,1,1696,-4)" class="stroke_order_diagram--existing_path"></path><path id="pathSk2v596cn3xru" kvg:type="㇔" d="M83.34,27.5c2.69,1.3,6.96,5.36,7.63,7.39" transform="matrix(1,0,0,1,1696,-4)" class="stroke_order_diagram--existing_path"></path><path id="pathSk2v596cn3xrv" kvg:type="㇐" d="M36.12,76.48c2.16,0.93,5.39,0.63,7.64,0.35c12.62-1.58,31.15-2.96,43.61-3.73c2.73-0.17,4.92-0.2,7.55,0.48" transform="matrix(1,0,0,1,1696,-4)" class="stroke_order_diagram--existing_path"></path><path id="kvg:07c3f-s18" kvg:type="㇚" d="M73.91,65.98c0.93,0.93,1.1,1.77,1.1,3.46c0,11.88,0.08,21.81,0.08,24.69c0,7.99-5.09,1.24-6.58-0.1" transform="matrix(1,0,0,1,1696,-4)" class="stroke_order_diagram--current_path"></path><path id="pathSk2v596cn3xrx" kvg:type="㇚" d="M73.91,65.98c0.93,0.93,1.1,1.77,1.1,3.46c0,11.88,0.08,21.81,0.08,24.69c0,7.99-5.09,1.24-6.58-0.1" transform="matrix(1,0,0,1,1696,-4)" class="stroke_order_diagram--current_path"></path><circle cx="73.91" cy="65.98" r="8" class="stroke_order_diagram--path_start" transform="matrix(1,0,0,1,1696,-4)"></circle><line x1="1850" x2="1850" y1="1" y2="99" class="stroke_order_diagram--guide_line"></line><line x1="1899" x2="1899" y1="1" y2="99" class="stroke_order_diagram--bounding_box"></line><path id="pathSk2v596cn3xs0" kvg:type="㇒" d="M30.5,11.25c0.07,1,0.04,1.68-0.41,2.6C27.86,18.32,22.21,25.49,16,30.5" transform="matrix(1,0,0,1,1796,-4)" class="stroke_order_diagram--existing_path"></path><path id="pathSk2v596cn3xs1" kvg:type="㇐b" d="M28.73,21.29c4.27-0.04,12.02-1.66,17.79-3.17c1.37-0.36,2.61-0.37,3.48-0.37" transform="matrix(1,0,0,1,1796,-4)" class="stroke_order_diagram--existing_path"></path><path id="pathSk2v596cn3xs2" kvg:type="㇔/㇑" d="M35.52,23.58c1.87,1.3,4.83,5.36,5.29,7.38" transform="matrix(1,0,0,1,1796,-4)" class="stroke_order_diagram--existing_path"></path><path id="pathSk2v596cn3xs3" kvg:type="㇒" d="M62,10c0.11,0.81,0,1.58-0.34,2.31c-1.43,3.77-5.53,9.14-9.17,13.44" transform="matrix(1,0,0,1,1796,-4)" class="stroke_order_diagram--existing_path"></path><path id="pathSk2v596cn3xs4" kvg:type="㇐b" d="M62.98,17.16c3.86,0,13.39-1.91,20.28-3.5c1.53-0.35,2.89-0.32,3.87-0.32" transform="matrix(1,0,0,1,1796,-4)" class="stroke_order_diagram--existing_path"></path><path id="pathSk2v596cn3xs5" kvg:type="㇒/㇚" d="M73,17.88c0.04,0.28,0.09,0.72-0.08,1.12c-0.62,1.42-1.99,3.35-5.54,5.75" transform="matrix(1,0,0,1,1796,-4)" class="stroke_order_diagram--existing_path"></path><path id="pathSk2v596cn3xs6" kvg:type="㇔" d="M23.38,33.88c3.46,1.18,8.94,4.83,9.81,6.66" transform="matrix(1,0,0,1,1796,-4)" class="stroke_order_diagram--existing_path"></path><path id="pathSk2v596cn3xs7" kvg:type="㇔" d="M17,49.62c3.77,1.15,9.73,4.72,10.67,6.5" transform="matrix(1,0,0,1,1796,-4)" class="stroke_order_diagram--existing_path"></path><path id="pathSk2v596cn3xs8" kvg:type="㇀" d="M18.56,92.4c1.15,0.45,2.55-0.26,3.09-1.41c2.88-6.06,3.98-8.5,6.63-14.53" transform="matrix(1,0,0,1,1796,-4)" class="stroke_order_diagram--existing_path"></path><path id="pathSk2v596cn3xs9" kvg:type="㇐" d="M49.1,36.32c1.98,0.61,4.37,0.34,6.4,0.18c6.85-0.52,16.5-1.63,22.67-2.76c1.65-0.3,2.69-0.1,3.53,0.05" transform="matrix(1,0,0,1,1796,-4)" class="stroke_order_diagram--existing_path"></path><path id="pathSk2v596cn3xsa" kvg:type="㇑" d="M46.2,45.23c0.53,0.48,0.97,1.99,1.05,2.49c0.38,2.18,1.57,10.36,2.23,15.76c0.2,1.64,0.33,3.08,0.33,4.08" transform="matrix(1,0,0,1,1796,-4)" class="stroke_order_diagram--existing_path"></path><path id="pathSk2v596cn3xsb" kvg:type="㇕a/㇆" d="M48.06,47.27c6.63-1.08,26.23-3.66,32.95-4.43c3.59-0.41,5.62,0.35,4.95,4.3c-0.39,2.29-0.98,6.32-2.53,12.39c-0.33,1.3-0.71,2.7-1.13,4.2" transform="matrix(1,0,0,1,1796,-4)" class="stroke_order_diagram--existing_path"></path><path id="pathSk2v596cn3xsc" kvg:type="㇐a" d="M49.81,55.73c9.07-0.98,24.57-3.11,34.21-3.47" transform="matrix(1,0,0,1,1796,-4)" class="stroke_order_diagram--existing_path"></path><path id="pathSk2v596cn3xsd" kvg:type="㇐a" d="M50.72,65.26c8.53-1.14,24.29-2.62,30.78-2.86" transform="matrix(1,0,0,1,1796,-4)" class="stroke_order_diagram--existing_path"></path><path id="pathSk2v596cn3xse" kvg:type="㇑a" d="M64.21,29.25c0.96,0.95,1.26,2.37,1.26,3.51c0,0.79-0.1,24.86-0.1,29.74" transform="matrix(1,0,0,1,1796,-4)" class="stroke_order_diagram--existing_path"></path><path id="pathSk2v596cn3xsf" kvg:type="㇔" d="M83.34,27.5c2.69,1.3,6.96,5.36,7.63,7.39" transform="matrix(1,0,0,1,1796,-4)" class="stroke_order_diagram--existing_path"></path><path id="pathSk2v596cn3xsg" kvg:type="㇐" d="M36.12,76.48c2.16,0.93,5.39,0.63,7.64,0.35c12.62-1.58,31.15-2.96,43.61-3.73c2.73-0.17,4.92-0.2,7.55,0.48" transform="matrix(1,0,0,1,1796,-4)" class="stroke_order_diagram--existing_path"></path><path id="pathSk2v596cn3xsh" kvg:type="㇚" d="M73.91,65.98c0.93,0.93,1.1,1.77,1.1,3.46c0,11.88,0.08,21.81,0.08,24.69c0,7.99-5.09,1.24-6.58-0.1" transform="matrix(1,0,0,1,1796,-4)" class="stroke_order_diagram--existing_path"></path><path id="kvg:07c3f-s19" kvg:type="㇔" d="M50.46,83.08c2.27,1.15,5.87,4.75,6.44,6.54" transform="matrix(1,0,0,1,1796,-4)" class="stroke_order_diagram--current_path"></path><path id="pathSk2v596cn3xsj" kvg:type="㇔" d="M50.46,83.08c2.27,1.15,5.87,4.75,6.44,6.54" transform="matrix(1,0,0,1,1796,-4)" class="stroke_order_diagram--current_path"></path><circle cx="50.46" cy="83.08" r="8" class="stroke_order_diagram--path_start" transform="matrix(1,0,0,1,1796,-4)"></circle></svg>