<svg style="width: 1800px; height: 100px;" viewbox="0 0 1800 100"><style>
.stroke_order_diagram--outer_container {
  width: 100%;
  overflow-x: auto;
  overflow-y: hidden;
}

.stroke_order_diagram--guide_line {
  fill: none;
  stroke: #ddd;
  stroke-width: 3;
  stroke-linecap: square;
  stroke-linejoin: square;
  stroke-dasharray:8, 8;
}

.stroke_order_diagram--bounding_box {
  fill: none;
  stroke: #ddd;
  stroke-width: 4;
  stroke-linecap: square;
  stroke-linejoin: square;
}

.stroke_order_diagram--current_path {
  fill: none;
  stroke: #000;
  stroke-width: 6;
  stroke-linecap: round;
  stroke-linejoin: round;
}

.stroke_order_diagram--existing_path {
  fill: none;
  stroke: #aaa;
  stroke-width: 6;
  stroke-linecap: round;
  stroke-linejoin:round;
}

.stroke_order_diagram--path_start {
  fill: rgba(255, 0, 0, 0.7);
  stroke:none
}</style><desc>Created with Snap</desc><defs></defs><line x1="1" x2="1799" y1="1" y2="1" class="stroke_order_diagram--bounding_box"></line><line x1="1" x2="1" y1="1" y2="99" class="stroke_order_diagram--bounding_box"></line><line x1="1" x2="1799" y1="99" y2="99" class="stroke_order_diagram--bounding_box"></line><line x1="0" x2="1800" y1="50" y2="50" class="stroke_order_diagram--guide_line"></line><line x1="50" x2="50" y1="1" y2="99" class="stroke_order_diagram--guide_line"></line><line x1="99" x2="99" y1="1" y2="99" class="stroke_order_diagram--bounding_box"></line><path id="kvg:07ce7-s1" kvg:type="㇔" d="M13.94,24.64c2.47,2.03,6.19,7.76,6.81,10.91" transform="matrix(1,0,0,1,-4,-4)" class="stroke_order_diagram--current_path"></path><path id="pathSk2v596cn444l" kvg:type="㇔" d="M13.94,24.64c2.47,2.03,6.19,7.76,6.81,10.91" transform="matrix(1,0,0,1,-4,-4)" class="stroke_order_diagram--current_path"></path><circle cx="13.94" cy="24.64" r="8" class="stroke_order_diagram--path_start" transform="matrix(1,0,0,1,-4,-4)"></circle><line x1="150" x2="150" y1="1" y2="99" class="stroke_order_diagram--guide_line"></line><line x1="199" x2="199" y1="1" y2="99" class="stroke_order_diagram--bounding_box"></line><path id="pathSk2v596cn444o" kvg:type="㇔" d="M13.94,24.64c2.47,2.03,6.19,7.76,6.81,10.91" transform="matrix(1,0,0,1,96,-4)" class="stroke_order_diagram--existing_path"></path><path id="kvg:07ce7-s2" kvg:type="㇒" d="M43.51,20.22c0.12,0.84-0.03,1.63-0.44,2.37c-1.18,2.93-3.25,6.65-6.75,11.7" transform="matrix(1,0,0,1,96,-4)" class="stroke_order_diagram--current_path"></path><path id="pathSk2v596cn444q" kvg:type="㇒" d="M43.51,20.22c0.12,0.84-0.03,1.63-0.44,2.37c-1.18,2.93-3.25,6.65-6.75,11.7" transform="matrix(1,0,0,1,96,-4)" class="stroke_order_diagram--current_path"></path><circle cx="43.51" cy="20.22" r="8" class="stroke_order_diagram--path_start" transform="matrix(1,0,0,1,96,-4)"></circle><line x1="250" x2="250" y1="1" y2="99" class="stroke_order_diagram--guide_line"></line><line x1="299" x2="299" y1="1" y2="99" class="stroke_order_diagram--bounding_box"></line><path id="pathSk2v596cn444t" kvg:type="㇔" d="M13.94,24.64c2.47,2.03,6.19,7.76,6.81,10.91" transform="matrix(1,0,0,1,196,-4)" class="stroke_order_diagram--existing_path"></path><path id="pathSk2v596cn444u" kvg:type="㇒" d="M43.51,20.22c0.12,0.84-0.03,1.63-0.44,2.37c-1.18,2.93-3.25,6.65-6.75,11.7" transform="matrix(1,0,0,1,196,-4)" class="stroke_order_diagram--existing_path"></path><path id="kvg:07ce7-s3" kvg:type="㇐" d="M11.35,43.27c1.85,0.79,4.07,0.91,6.04,0.57c6.99-1.21,12.99-2.34,19.35-3.77c1.44-0.32,3.39-0.7,4.87-0.55" transform="matrix(1,0,0,1,196,-4)" class="stroke_order_diagram--current_path"></path><path id="pathSk2v596cn444w" kvg:type="㇐" d="M11.35,43.27c1.85,0.79,4.07,0.91,6.04,0.57c6.99-1.21,12.99-2.34,19.35-3.77c1.44-0.32,3.39-0.7,4.87-0.55" transform="matrix(1,0,0,1,196,-4)" class="stroke_order_diagram--current_path"></path><circle cx="11.35" cy="43.27" r="8" class="stroke_order_diagram--path_start" transform="matrix(1,0,0,1,196,-4)"></circle><line x1="350" x2="350" y1="1" y2="99" class="stroke_order_diagram--guide_line"></line><line x1="399" x2="399" y1="1" y2="99" class="stroke_order_diagram--bounding_box"></line><path id="pathSk2v596cn444z" kvg:type="㇔" d="M13.94,24.64c2.47,2.03,6.19,7.76,6.81,10.91" transform="matrix(1,0,0,1,296,-4)" class="stroke_order_diagram--existing_path"></path><path id="pathSk2v596cn4450" kvg:type="㇒" d="M43.51,20.22c0.12,0.84-0.03,1.63-0.44,2.37c-1.18,2.93-3.25,6.65-6.75,11.7" transform="matrix(1,0,0,1,296,-4)" class="stroke_order_diagram--existing_path"></path><path id="pathSk2v596cn4451" kvg:type="㇐" d="M11.35,43.27c1.85,0.79,4.07,0.91,6.04,0.57c6.99-1.21,12.99-2.34,19.35-3.77c1.44-0.32,3.39-0.7,4.87-0.55" transform="matrix(1,0,0,1,296,-4)" class="stroke_order_diagram--existing_path"></path><path id="kvg:07ce7-s4" kvg:type="㇑" d="M28.52,14.71c0.82,0.82,1.09,2.04,1.09,3.44c0,4.85-0.09,50.22-0.09,69.6c0,3.88-0.02,5.71-0.02,7.38" transform="matrix(1,0,0,1,296,-4)" class="stroke_order_diagram--current_path"></path><path id="pathSk2v596cn4453" kvg:type="㇑" d="M28.52,14.71c0.82,0.82,1.09,2.04,1.09,3.44c0,4.85-0.09,50.22-0.09,69.6c0,3.88-0.02,5.71-0.02,7.38" transform="matrix(1,0,0,1,296,-4)" class="stroke_order_diagram--current_path"></path><circle cx="28.52" cy="14.71" r="8" class="stroke_order_diagram--path_start" transform="matrix(1,0,0,1,296,-4)"></circle><line x1="450" x2="450" y1="1" y2="99" class="stroke_order_diagram--guide_line"></line><line x1="499" x2="499" y1="1" y2="99" class="stroke_order_diagram--bounding_box"></line><path id="pathSk2v596cn4456" kvg:type="㇔" d="M13.94,24.64c2.47,2.03,6.19,7.76,6.81,10.91" transform="matrix(1,0,0,1,396,-4)" class="stroke_order_diagram--existing_path"></path><path id="pathSk2v596cn4457" kvg:type="㇒" d="M43.51,20.22c0.12,0.84-0.03,1.63-0.44,2.37c-1.18,2.93-3.25,6.65-6.75,11.7" transform="matrix(1,0,0,1,396,-4)" class="stroke_order_diagram--existing_path"></path><path id="pathSk2v596cn4458" kvg:type="㇐" d="M11.35,43.27c1.85,0.79,4.07,0.91,6.04,0.57c6.99-1.21,12.99-2.34,19.35-3.77c1.44-0.32,3.39-0.7,4.87-0.55" transform="matrix(1,0,0,1,396,-4)" class="stroke_order_diagram--existing_path"></path><path id="pathSk2v596cn4459" kvg:type="㇑" d="M28.52,14.71c0.82,0.82,1.09,2.04,1.09,3.44c0,4.85-0.09,50.22-0.09,69.6c0,3.88-0.02,5.71-0.02,7.38" transform="matrix(1,0,0,1,396,-4)" class="stroke_order_diagram--existing_path"></path><path id="kvg:07ce7-s5" kvg:type="㇒" d="M29.27,43.46c0,1.66-0.85,5.44-2.01,7.99c-3.39,7.43-9.14,18.3-16.01,27.28" transform="matrix(1,0,0,1,396,-4)" class="stroke_order_diagram--current_path"></path><path id="pathSk2v596cn445b" kvg:type="㇒" d="M29.27,43.46c0,1.66-0.85,5.44-2.01,7.99c-3.39,7.43-9.14,18.3-16.01,27.28" transform="matrix(1,0,0,1,396,-4)" class="stroke_order_diagram--current_path"></path><circle cx="29.27" cy="43.46" r="8" class="stroke_order_diagram--path_start" transform="matrix(1,0,0,1,396,-4)"></circle><line x1="550" x2="550" y1="1" y2="99" class="stroke_order_diagram--guide_line"></line><line x1="599" x2="599" y1="1" y2="99" class="stroke_order_diagram--bounding_box"></line><path id="pathSk2v596cn445e" kvg:type="㇔" d="M13.94,24.64c2.47,2.03,6.19,7.76,6.81,10.91" transform="matrix(1,0,0,1,496,-4)" class="stroke_order_diagram--existing_path"></path><path id="pathSk2v596cn445f" kvg:type="㇒" d="M43.51,20.22c0.12,0.84-0.03,1.63-0.44,2.37c-1.18,2.93-3.25,6.65-6.75,11.7" transform="matrix(1,0,0,1,496,-4)" class="stroke_order_diagram--existing_path"></path><path id="pathSk2v596cn445g" kvg:type="㇐" d="M11.35,43.27c1.85,0.79,4.07,0.91,6.04,0.57c6.99-1.21,12.99-2.34,19.35-3.77c1.44-0.32,3.39-0.7,4.87-0.55" transform="matrix(1,0,0,1,496,-4)" class="stroke_order_diagram--existing_path"></path><path id="pathSk2v596cn445h" kvg:type="㇑" d="M28.52,14.71c0.82,0.82,1.09,2.04,1.09,3.44c0,4.85-0.09,50.22-0.09,69.6c0,3.88-0.02,5.71-0.02,7.38" transform="matrix(1,0,0,1,496,-4)" class="stroke_order_diagram--existing_path"></path><path id="pathSk2v596cn445i" kvg:type="㇒" d="M29.27,43.46c0,1.66-0.85,5.44-2.01,7.99c-3.39,7.43-9.14,18.3-16.01,27.28" transform="matrix(1,0,0,1,496,-4)" class="stroke_order_diagram--existing_path"></path><path id="kvg:07ce7-s6" kvg:type="㇔/㇏" d="M31.62,51.82c4.63,3.06,8.25,7.18,9.9,10.15" transform="matrix(1,0,0,1,496,-4)" class="stroke_order_diagram--current_path"></path><path id="pathSk2v596cn445k" kvg:type="㇔/㇏" d="M31.62,51.82c4.63,3.06,8.25,7.18,9.9,10.15" transform="matrix(1,0,0,1,496,-4)" class="stroke_order_diagram--current_path"></path><circle cx="31.62" cy="51.82" r="8" class="stroke_order_diagram--path_start" transform="matrix(1,0,0,1,496,-4)"></circle><line x1="650" x2="650" y1="1" y2="99" class="stroke_order_diagram--guide_line"></line><line x1="699" x2="699" y1="1" y2="99" class="stroke_order_diagram--bounding_box"></line><path id="pathSk2v596cn445n" kvg:type="㇔" d="M13.94,24.64c2.47,2.03,6.19,7.76,6.81,10.91" transform="matrix(1,0,0,1,596,-4)" class="stroke_order_diagram--existing_path"></path><path id="pathSk2v596cn445o" kvg:type="㇒" d="M43.51,20.22c0.12,0.84-0.03,1.63-0.44,2.37c-1.18,2.93-3.25,6.65-6.75,11.7" transform="matrix(1,0,0,1,596,-4)" class="stroke_order_diagram--existing_path"></path><path id="pathSk2v596cn445p" kvg:type="㇐" d="M11.35,43.27c1.85,0.79,4.07,0.91,6.04,0.57c6.99-1.21,12.99-2.34,19.35-3.77c1.44-0.32,3.39-0.7,4.87-0.55" transform="matrix(1,0,0,1,596,-4)" class="stroke_order_diagram--existing_path"></path><path id="pathSk2v596cn445q" kvg:type="㇑" d="M28.52,14.71c0.82,0.82,1.09,2.04,1.09,3.44c0,4.85-0.09,50.22-0.09,69.6c0,3.88-0.02,5.71-0.02,7.38" transform="matrix(1,0,0,1,596,-4)" class="stroke_order_diagram--existing_path"></path><path id="pathSk2v596cn445r" kvg:type="㇒" d="M29.27,43.46c0,1.66-0.85,5.44-2.01,7.99c-3.39,7.43-9.14,18.3-16.01,27.28" transform="matrix(1,0,0,1,596,-4)" class="stroke_order_diagram--existing_path"></path><path id="pathSk2v596cn445s" kvg:type="㇔/㇏" d="M31.62,51.82c4.63,3.06,8.25,7.18,9.9,10.15" transform="matrix(1,0,0,1,596,-4)" class="stroke_order_diagram--existing_path"></path><path id="kvg:07ce7-s7" kvg:type="㇑" d="M50.46,15.56c1.01,1.04,1.44,2.11,1.64,3.55c0.45,3.19,1.38,9.36,1.97,13.13c0.31,1.97,0.67,3.74,0.81,4.34" transform="matrix(1,0,0,1,596,-4)" class="stroke_order_diagram--current_path"></path><path id="pathSk2v596cn445u" kvg:type="㇑" d="M50.46,15.56c1.01,1.04,1.44,2.11,1.64,3.55c0.45,3.19,1.38,9.36,1.97,13.13c0.31,1.97,0.67,3.74,0.81,4.34" transform="matrix(1,0,0,1,596,-4)" class="stroke_order_diagram--current_path"></path><circle cx="50.46" cy="15.56" r="8" class="stroke_order_diagram--path_start" transform="matrix(1,0,0,1,596,-4)"></circle><line x1="750" x2="750" y1="1" y2="99" class="stroke_order_diagram--guide_line"></line><line x1="799" x2="799" y1="1" y2="99" class="stroke_order_diagram--bounding_box"></line><path id="pathSk2v596cn445x" kvg:type="㇔" d="M13.94,24.64c2.47,2.03,6.19,7.76,6.81,10.91" transform="matrix(1,0,0,1,696,-4)" class="stroke_order_diagram--existing_path"></path><path id="pathSk2v596cn445y" kvg:type="㇒" d="M43.51,20.22c0.12,0.84-0.03,1.63-0.44,2.37c-1.18,2.93-3.25,6.65-6.75,11.7" transform="matrix(1,0,0,1,696,-4)" class="stroke_order_diagram--existing_path"></path><path id="pathSk2v596cn445z" kvg:type="㇐" d="M11.35,43.27c1.85,0.79,4.07,0.91,6.04,0.57c6.99-1.21,12.99-2.34,19.35-3.77c1.44-0.32,3.39-0.7,4.87-0.55" transform="matrix(1,0,0,1,696,-4)" class="stroke_order_diagram--existing_path"></path><path id="pathSk2v596cn4460" kvg:type="㇑" d="M28.52,14.71c0.82,0.82,1.09,2.04,1.09,3.44c0,4.85-0.09,50.22-0.09,69.6c0,3.88-0.02,5.71-0.02,7.38" transform="matrix(1,0,0,1,696,-4)" class="stroke_order_diagram--existing_path"></path><path id="pathSk2v596cn4461" kvg:type="㇒" d="M29.27,43.46c0,1.66-0.85,5.44-2.01,7.99c-3.39,7.43-9.14,18.3-16.01,27.28" transform="matrix(1,0,0,1,696,-4)" class="stroke_order_diagram--existing_path"></path><path id="pathSk2v596cn4462" kvg:type="㇔/㇏" d="M31.62,51.82c4.63,3.06,8.25,7.18,9.9,10.15" transform="matrix(1,0,0,1,696,-4)" class="stroke_order_diagram--existing_path"></path><path id="pathSk2v596cn4463" kvg:type="㇑" d="M50.46,15.56c1.01,1.04,1.44,2.11,1.64,3.55c0.45,3.19,1.38,9.36,1.97,13.13c0.31,1.97,0.67,3.74,0.81,4.34" transform="matrix(1,0,0,1,696,-4)" class="stroke_order_diagram--existing_path"></path><path id="kvg:07ce7-s8" kvg:type="㇕a" d="M52.56,17.04c4.32-0.6,22.72-2.37,29.81-2.92c3.07-0.24,4.74,0.52,4.29,4c-0.34,2.63-1.51,6.93-2.87,11.88c-0.34,1.25-0.73,2.55-1.15,3.9" transform="matrix(1,0,0,1,696,-4)" class="stroke_order_diagram--current_path"></path><path id="pathSk2v596cn4465" kvg:type="㇕a" d="M52.56,17.04c4.32-0.6,22.72-2.37,29.81-2.92c3.07-0.24,4.74,0.52,4.29,4c-0.34,2.63-1.51,6.93-2.87,11.88c-0.34,1.25-0.73,2.55-1.15,3.9" transform="matrix(1,0,0,1,696,-4)" class="stroke_order_diagram--current_path"></path><circle cx="52.56" cy="17.04" r="8" class="stroke_order_diagram--path_start" transform="matrix(1,0,0,1,696,-4)"></circle><line x1="850" x2="850" y1="1" y2="99" class="stroke_order_diagram--guide_line"></line><line x1="899" x2="899" y1="1" y2="99" class="stroke_order_diagram--bounding_box"></line><path id="pathSk2v596cn4468" kvg:type="㇔" d="M13.94,24.64c2.47,2.03,6.19,7.76,6.81,10.91" transform="matrix(1,0,0,1,796,-4)" class="stroke_order_diagram--existing_path"></path><path id="pathSk2v596cn4469" kvg:type="㇒" d="M43.51,20.22c0.12,0.84-0.03,1.63-0.44,2.37c-1.18,2.93-3.25,6.65-6.75,11.7" transform="matrix(1,0,0,1,796,-4)" class="stroke_order_diagram--existing_path"></path><path id="pathSk2v596cn446a" kvg:type="㇐" d="M11.35,43.27c1.85,0.79,4.07,0.91,6.04,0.57c6.99-1.21,12.99-2.34,19.35-3.77c1.44-0.32,3.39-0.7,4.87-0.55" transform="matrix(1,0,0,1,796,-4)" class="stroke_order_diagram--existing_path"></path><path id="pathSk2v596cn446b" kvg:type="㇑" d="M28.52,14.71c0.82,0.82,1.09,2.04,1.09,3.44c0,4.85-0.09,50.22-0.09,69.6c0,3.88-0.02,5.71-0.02,7.38" transform="matrix(1,0,0,1,796,-4)" class="stroke_order_diagram--existing_path"></path><path id="pathSk2v596cn446c" kvg:type="㇒" d="M29.27,43.46c0,1.66-0.85,5.44-2.01,7.99c-3.39,7.43-9.14,18.3-16.01,27.28" transform="matrix(1,0,0,1,796,-4)" class="stroke_order_diagram--existing_path"></path><path id="pathSk2v596cn446d" kvg:type="㇔/㇏" d="M31.62,51.82c4.63,3.06,8.25,7.18,9.9,10.15" transform="matrix(1,0,0,1,796,-4)" class="stroke_order_diagram--existing_path"></path><path id="pathSk2v596cn446e" kvg:type="㇑" d="M50.46,15.56c1.01,1.04,1.44,2.11,1.64,3.55c0.45,3.19,1.38,9.36,1.97,13.13c0.31,1.97,0.67,3.74,0.81,4.34" transform="matrix(1,0,0,1,796,-4)" class="stroke_order_diagram--existing_path"></path><path id="pathSk2v596cn446f" kvg:type="㇕a" d="M52.56,17.04c4.32-0.6,22.72-2.37,29.81-2.92c3.07-0.24,4.74,0.52,4.29,4c-0.34,2.63-1.51,6.93-2.87,11.88c-0.34,1.25-0.73,2.55-1.15,3.9" transform="matrix(1,0,0,1,796,-4)" class="stroke_order_diagram--existing_path"></path><path id="kvg:07ce7-s9" kvg:type="㇐a" d="M54.09,25.66c5.37-0.51,26.74-2.29,30.29-2.29" transform="matrix(1,0,0,1,796,-4)" class="stroke_order_diagram--current_path"></path><path id="pathSk2v596cn446h" kvg:type="㇐a" d="M54.09,25.66c5.37-0.51,26.74-2.29,30.29-2.29" transform="matrix(1,0,0,1,796,-4)" class="stroke_order_diagram--current_path"></path><circle cx="54.09" cy="25.66" r="8" class="stroke_order_diagram--path_start" transform="matrix(1,0,0,1,796,-4)"></circle><line x1="950" x2="950" y1="1" y2="99" class="stroke_order_diagram--guide_line"></line><line x1="999" x2="999" y1="1" y2="99" class="stroke_order_diagram--bounding_box"></line><path id="pathSk2v596cn446k" kvg:type="㇔" d="M13.94,24.64c2.47,2.03,6.19,7.76,6.81,10.91" transform="matrix(1,0,0,1,896,-4)" class="stroke_order_diagram--existing_path"></path><path id="pathSk2v596cn446l" kvg:type="㇒" d="M43.51,20.22c0.12,0.84-0.03,1.63-0.44,2.37c-1.18,2.93-3.25,6.65-6.75,11.7" transform="matrix(1,0,0,1,896,-4)" class="stroke_order_diagram--existing_path"></path><path id="pathSk2v596cn446m" kvg:type="㇐" d="M11.35,43.27c1.85,0.79,4.07,0.91,6.04,0.57c6.99-1.21,12.99-2.34,19.35-3.77c1.44-0.32,3.39-0.7,4.87-0.55" transform="matrix(1,0,0,1,896,-4)" class="stroke_order_diagram--existing_path"></path><path id="pathSk2v596cn446n" kvg:type="㇑" d="M28.52,14.71c0.82,0.82,1.09,2.04,1.09,3.44c0,4.85-0.09,50.22-0.09,69.6c0,3.88-0.02,5.71-0.02,7.38" transform="matrix(1,0,0,1,896,-4)" class="stroke_order_diagram--existing_path"></path><path id="pathSk2v596cn446o" kvg:type="㇒" d="M29.27,43.46c0,1.66-0.85,5.44-2.01,7.99c-3.39,7.43-9.14,18.3-16.01,27.28" transform="matrix(1,0,0,1,896,-4)" class="stroke_order_diagram--existing_path"></path><path id="pathSk2v596cn446p" kvg:type="㇔/㇏" d="M31.62,51.82c4.63,3.06,8.25,7.18,9.9,10.15" transform="matrix(1,0,0,1,896,-4)" class="stroke_order_diagram--existing_path"></path><path id="pathSk2v596cn446q" kvg:type="㇑" d="M50.46,15.56c1.01,1.04,1.44,2.11,1.64,3.55c0.45,3.19,1.38,9.36,1.97,13.13c0.31,1.97,0.67,3.74,0.81,4.34" transform="matrix(1,0,0,1,896,-4)" class="stroke_order_diagram--existing_path"></path><path id="pathSk2v596cn446r" kvg:type="㇕a" d="M52.56,17.04c4.32-0.6,22.72-2.37,29.81-2.92c3.07-0.24,4.74,0.52,4.29,4c-0.34,2.63-1.51,6.93-2.87,11.88c-0.34,1.25-0.73,2.55-1.15,3.9" transform="matrix(1,0,0,1,896,-4)" class="stroke_order_diagram--existing_path"></path><path id="pathSk2v596cn446s" kvg:type="㇐a" d="M54.09,25.66c5.37-0.51,26.74-2.29,30.29-2.29" transform="matrix(1,0,0,1,896,-4)" class="stroke_order_diagram--existing_path"></path><path id="kvg:07ce7-s10" kvg:type="㇐a" d="M55.6,34.55c7.35-0.76,17.84-1.66,25.92-2.4" transform="matrix(1,0,0,1,896,-4)" class="stroke_order_diagram--current_path"></path><path id="pathSk2v596cn446u" kvg:type="㇐a" d="M55.6,34.55c7.35-0.76,17.84-1.66,25.92-2.4" transform="matrix(1,0,0,1,896,-4)" class="stroke_order_diagram--current_path"></path><circle cx="55.6" cy="34.55" r="8" class="stroke_order_diagram--path_start" transform="matrix(1,0,0,1,896,-4)"></circle><line x1="1050" x2="1050" y1="1" y2="99" class="stroke_order_diagram--guide_line"></line><line x1="1099" x2="1099" y1="1" y2="99" class="stroke_order_diagram--bounding_box"></line><path id="pathSk2v596cn446x" kvg:type="㇔" d="M13.94,24.64c2.47,2.03,6.19,7.76,6.81,10.91" transform="matrix(1,0,0,1,996,-4)" class="stroke_order_diagram--existing_path"></path><path id="pathSk2v596cn446y" kvg:type="㇒" d="M43.51,20.22c0.12,0.84-0.03,1.63-0.44,2.37c-1.18,2.93-3.25,6.65-6.75,11.7" transform="matrix(1,0,0,1,996,-4)" class="stroke_order_diagram--existing_path"></path><path id="pathSk2v596cn446z" kvg:type="㇐" d="M11.35,43.27c1.85,0.79,4.07,0.91,6.04,0.57c6.99-1.21,12.99-2.34,19.35-3.77c1.44-0.32,3.39-0.7,4.87-0.55" transform="matrix(1,0,0,1,996,-4)" class="stroke_order_diagram--existing_path"></path><path id="pathSk2v596cn4470" kvg:type="㇑" d="M28.52,14.71c0.82,0.82,1.09,2.04,1.09,3.44c0,4.85-0.09,50.22-0.09,69.6c0,3.88-0.02,5.71-0.02,7.38" transform="matrix(1,0,0,1,996,-4)" class="stroke_order_diagram--existing_path"></path><path id="pathSk2v596cn4471" kvg:type="㇒" d="M29.27,43.46c0,1.66-0.85,5.44-2.01,7.99c-3.39,7.43-9.14,18.3-16.01,27.28" transform="matrix(1,0,0,1,996,-4)" class="stroke_order_diagram--existing_path"></path><path id="pathSk2v596cn4472" kvg:type="㇔/㇏" d="M31.62,51.82c4.63,3.06,8.25,7.18,9.9,10.15" transform="matrix(1,0,0,1,996,-4)" class="stroke_order_diagram--existing_path"></path><path id="pathSk2v596cn4473" kvg:type="㇑" d="M50.46,15.56c1.01,1.04,1.44,2.11,1.64,3.55c0.45,3.19,1.38,9.36,1.97,13.13c0.31,1.97,0.67,3.74,0.81,4.34" transform="matrix(1,0,0,1,996,-4)" class="stroke_order_diagram--existing_path"></path><path id="pathSk2v596cn4474" kvg:type="㇕a" d="M52.56,17.04c4.32-0.6,22.72-2.37,29.81-2.92c3.07-0.24,4.74,0.52,4.29,4c-0.34,2.63-1.51,6.93-2.87,11.88c-0.34,1.25-0.73,2.55-1.15,3.9" transform="matrix(1,0,0,1,996,-4)" class="stroke_order_diagram--existing_path"></path><path id="pathSk2v596cn4475" kvg:type="㇐a" d="M54.09,25.66c5.37-0.51,26.74-2.29,30.29-2.29" transform="matrix(1,0,0,1,996,-4)" class="stroke_order_diagram--existing_path"></path><path id="pathSk2v596cn4476" kvg:type="㇐a" d="M55.6,34.55c7.35-0.76,17.84-1.66,25.92-2.4" transform="matrix(1,0,0,1,996,-4)" class="stroke_order_diagram--existing_path"></path><path id="kvg:07ce7-s11" kvg:type="㇐" d="M44.16,44.45c2.14,0.9,5.45,0.55,7.7,0.27c12.02-1.48,28.26-2.89,38.64-3.54c2.62-0.16,4.8-0.21,7.34,0.44" transform="matrix(1,0,0,1,996,-4)" class="stroke_order_diagram--current_path"></path><path id="pathSk2v596cn4478" kvg:type="㇐" d="M44.16,44.45c2.14,0.9,5.45,0.55,7.7,0.27c12.02-1.48,28.26-2.89,38.64-3.54c2.62-0.16,4.8-0.21,7.34,0.44" transform="matrix(1,0,0,1,996,-4)" class="stroke_order_diagram--current_path"></path><circle cx="44.16" cy="44.45" r="8" class="stroke_order_diagram--path_start" transform="matrix(1,0,0,1,996,-4)"></circle><line x1="1150" x2="1150" y1="1" y2="99" class="stroke_order_diagram--guide_line"></line><line x1="1199" x2="1199" y1="1" y2="99" class="stroke_order_diagram--bounding_box"></line><path id="pathSk2v596cn447b" kvg:type="㇔" d="M13.94,24.64c2.47,2.03,6.19,7.76,6.81,10.91" transform="matrix(1,0,0,1,1096,-4)" class="stroke_order_diagram--existing_path"></path><path id="pathSk2v596cn447c" kvg:type="㇒" d="M43.51,20.22c0.12,0.84-0.03,1.63-0.44,2.37c-1.18,2.93-3.25,6.65-6.75,11.7" transform="matrix(1,0,0,1,1096,-4)" class="stroke_order_diagram--existing_path"></path><path id="pathSk2v596cn447d" kvg:type="㇐" d="M11.35,43.27c1.85,0.79,4.07,0.91,6.04,0.57c6.99-1.21,12.99-2.34,19.35-3.77c1.44-0.32,3.39-0.7,4.87-0.55" transform="matrix(1,0,0,1,1096,-4)" class="stroke_order_diagram--existing_path"></path><path id="pathSk2v596cn447e" kvg:type="㇑" d="M28.52,14.71c0.82,0.82,1.09,2.04,1.09,3.44c0,4.85-0.09,50.22-0.09,69.6c0,3.88-0.02,5.71-0.02,7.38" transform="matrix(1,0,0,1,1096,-4)" class="stroke_order_diagram--existing_path"></path><path id="pathSk2v596cn447f" kvg:type="㇒" d="M29.27,43.46c0,1.66-0.85,5.44-2.01,7.99c-3.39,7.43-9.14,18.3-16.01,27.28" transform="matrix(1,0,0,1,1096,-4)" class="stroke_order_diagram--existing_path"></path><path id="pathSk2v596cn447g" kvg:type="㇔/㇏" d="M31.62,51.82c4.63,3.06,8.25,7.18,9.9,10.15" transform="matrix(1,0,0,1,1096,-4)" class="stroke_order_diagram--existing_path"></path><path id="pathSk2v596cn447h" kvg:type="㇑" d="M50.46,15.56c1.01,1.04,1.44,2.11,1.64,3.55c0.45,3.19,1.38,9.36,1.97,13.13c0.31,1.97,0.67,3.74,0.81,4.34" transform="matrix(1,0,0,1,1096,-4)" class="stroke_order_diagram--existing_path"></path><path id="pathSk2v596cn447i" kvg:type="㇕a" d="M52.56,17.04c4.32-0.6,22.72-2.37,29.81-2.92c3.07-0.24,4.74,0.52,4.29,4c-0.34,2.63-1.51,6.93-2.87,11.88c-0.34,1.25-0.73,2.55-1.15,3.9" transform="matrix(1,0,0,1,1096,-4)" class="stroke_order_diagram--existing_path"></path><path id="pathSk2v596cn447j" kvg:type="㇐a" d="M54.09,25.66c5.37-0.51,26.74-2.29,30.29-2.29" transform="matrix(1,0,0,1,1096,-4)" class="stroke_order_diagram--existing_path"></path><path id="pathSk2v596cn447k" kvg:type="㇐a" d="M55.6,34.55c7.35-0.76,17.84-1.66,25.92-2.4" transform="matrix(1,0,0,1,1096,-4)" class="stroke_order_diagram--existing_path"></path><path id="pathSk2v596cn447l" kvg:type="㇐" d="M44.16,44.45c2.14,0.9,5.45,0.55,7.7,0.27c12.02-1.48,28.26-2.89,38.64-3.54c2.62-0.16,4.8-0.21,7.34,0.44" transform="matrix(1,0,0,1,1096,-4)" class="stroke_order_diagram--existing_path"></path><path id="kvg:07ce7-s12" kvg:type="㇑" d="M50.31,52.69c0.93,0.93,1.31,2.06,1.55,3.42c0.59,3.43,1.18,7.49,1.92,11.63c0.25,1.42,0.49,2.82,0.68,4.19" transform="matrix(1,0,0,1,1096,-4)" class="stroke_order_diagram--current_path"></path><path id="pathSk2v596cn447n" kvg:type="㇑" d="M50.31,52.69c0.93,0.93,1.31,2.06,1.55,3.42c0.59,3.43,1.18,7.49,1.92,11.63c0.25,1.42,0.49,2.82,0.68,4.19" transform="matrix(1,0,0,1,1096,-4)" class="stroke_order_diagram--current_path"></path><circle cx="50.31" cy="52.69" r="8" class="stroke_order_diagram--path_start" transform="matrix(1,0,0,1,1096,-4)"></circle><line x1="1250" x2="1250" y1="1" y2="99" class="stroke_order_diagram--guide_line"></line><line x1="1299" x2="1299" y1="1" y2="99" class="stroke_order_diagram--bounding_box"></line><path id="pathSk2v596cn447q" kvg:type="㇔" d="M13.94,24.64c2.47,2.03,6.19,7.76,6.81,10.91" transform="matrix(1,0,0,1,1196,-4)" class="stroke_order_diagram--existing_path"></path><path id="pathSk2v596cn447r" kvg:type="㇒" d="M43.51,20.22c0.12,0.84-0.03,1.63-0.44,2.37c-1.18,2.93-3.25,6.65-6.75,11.7" transform="matrix(1,0,0,1,1196,-4)" class="stroke_order_diagram--existing_path"></path><path id="pathSk2v596cn447s" kvg:type="㇐" d="M11.35,43.27c1.85,0.79,4.07,0.91,6.04,0.57c6.99-1.21,12.99-2.34,19.35-3.77c1.44-0.32,3.39-0.7,4.87-0.55" transform="matrix(1,0,0,1,1196,-4)" class="stroke_order_diagram--existing_path"></path><path id="pathSk2v596cn447t" kvg:type="㇑" d="M28.52,14.71c0.82,0.82,1.09,2.04,1.09,3.44c0,4.85-0.09,50.22-0.09,69.6c0,3.88-0.02,5.71-0.02,7.38" transform="matrix(1,0,0,1,1196,-4)" class="stroke_order_diagram--existing_path"></path><path id="pathSk2v596cn447u" kvg:type="㇒" d="M29.27,43.46c0,1.66-0.85,5.44-2.01,7.99c-3.39,7.43-9.14,18.3-16.01,27.28" transform="matrix(1,0,0,1,1196,-4)" class="stroke_order_diagram--existing_path"></path><path id="pathSk2v596cn447v" kvg:type="㇔/㇏" d="M31.62,51.82c4.63,3.06,8.25,7.18,9.9,10.15" transform="matrix(1,0,0,1,1196,-4)" class="stroke_order_diagram--existing_path"></path><path id="pathSk2v596cn447w" kvg:type="㇑" d="M50.46,15.56c1.01,1.04,1.44,2.11,1.64,3.55c0.45,3.19,1.38,9.36,1.97,13.13c0.31,1.97,0.67,3.74,0.81,4.34" transform="matrix(1,0,0,1,1196,-4)" class="stroke_order_diagram--existing_path"></path><path id="pathSk2v596cn447x" kvg:type="㇕a" d="M52.56,17.04c4.32-0.6,22.72-2.37,29.81-2.92c3.07-0.24,4.74,0.52,4.29,4c-0.34,2.63-1.51,6.93-2.87,11.88c-0.34,1.25-0.73,2.55-1.15,3.9" transform="matrix(1,0,0,1,1196,-4)" class="stroke_order_diagram--existing_path"></path><path id="pathSk2v596cn447y" kvg:type="㇐a" d="M54.09,25.66c5.37-0.51,26.74-2.29,30.29-2.29" transform="matrix(1,0,0,1,1196,-4)" class="stroke_order_diagram--existing_path"></path><path id="pathSk2v596cn447z" kvg:type="㇐a" d="M55.6,34.55c7.35-0.76,17.84-1.66,25.92-2.4" transform="matrix(1,0,0,1,1196,-4)" class="stroke_order_diagram--existing_path"></path><path id="pathSk2v596cn4480" kvg:type="㇐" d="M44.16,44.45c2.14,0.9,5.45,0.55,7.7,0.27c12.02-1.48,28.26-2.89,38.64-3.54c2.62-0.16,4.8-0.21,7.34,0.44" transform="matrix(1,0,0,1,1196,-4)" class="stroke_order_diagram--existing_path"></path><path id="pathSk2v596cn4481" kvg:type="㇑" d="M50.31,52.69c0.93,0.93,1.31,2.06,1.55,3.42c0.59,3.43,1.18,7.49,1.92,11.63c0.25,1.42,0.49,2.82,0.68,4.19" transform="matrix(1,0,0,1,1196,-4)" class="stroke_order_diagram--existing_path"></path><path id="kvg:07ce7-s13" kvg:type="㇕a" d="M52.23,53.63c11.62-1.27,23.2-2.5,32.03-3.17c2.51-0.19,4.53,0.35,3.99,3.52c-0.41,2.47-1.28,7.43-2.25,11.83c-0.32,1.45-0.65,2.89-0.98,4.24" transform="matrix(1,0,0,1,1196,-4)" class="stroke_order_diagram--current_path"></path><path id="pathSk2v596cn4483" kvg:type="㇕a" d="M52.23,53.63c11.62-1.27,23.2-2.5,32.03-3.17c2.51-0.19,4.53,0.35,3.99,3.52c-0.41,2.47-1.28,7.43-2.25,11.83c-0.32,1.45-0.65,2.89-0.98,4.24" transform="matrix(1,0,0,1,1196,-4)" class="stroke_order_diagram--current_path"></path><circle cx="52.23" cy="53.63" r="8" class="stroke_order_diagram--path_start" transform="matrix(1,0,0,1,1196,-4)"></circle><line x1="1350" x2="1350" y1="1" y2="99" class="stroke_order_diagram--guide_line"></line><line x1="1399" x2="1399" y1="1" y2="99" class="stroke_order_diagram--bounding_box"></line><path id="pathSk2v596cn4486" kvg:type="㇔" d="M13.94,24.64c2.47,2.03,6.19,7.76,6.81,10.91" transform="matrix(1,0,0,1,1296,-4)" class="stroke_order_diagram--existing_path"></path><path id="pathSk2v596cn4487" kvg:type="㇒" d="M43.51,20.22c0.12,0.84-0.03,1.63-0.44,2.37c-1.18,2.93-3.25,6.65-6.75,11.7" transform="matrix(1,0,0,1,1296,-4)" class="stroke_order_diagram--existing_path"></path><path id="pathSk2v596cn4488" kvg:type="㇐" d="M11.35,43.27c1.85,0.79,4.07,0.91,6.04,0.57c6.99-1.21,12.99-2.34,19.35-3.77c1.44-0.32,3.39-0.7,4.87-0.55" transform="matrix(1,0,0,1,1296,-4)" class="stroke_order_diagram--existing_path"></path><path id="pathSk2v596cn4489" kvg:type="㇑" d="M28.52,14.71c0.82,0.82,1.09,2.04,1.09,3.44c0,4.85-0.09,50.22-0.09,69.6c0,3.88-0.02,5.71-0.02,7.38" transform="matrix(1,0,0,1,1296,-4)" class="stroke_order_diagram--existing_path"></path><path id="pathSk2v596cn448a" kvg:type="㇒" d="M29.27,43.46c0,1.66-0.85,5.44-2.01,7.99c-3.39,7.43-9.14,18.3-16.01,27.28" transform="matrix(1,0,0,1,1296,-4)" class="stroke_order_diagram--existing_path"></path><path id="pathSk2v596cn448b" kvg:type="㇔/㇏" d="M31.62,51.82c4.63,3.06,8.25,7.18,9.9,10.15" transform="matrix(1,0,0,1,1296,-4)" class="stroke_order_diagram--existing_path"></path><path id="pathSk2v596cn448c" kvg:type="㇑" d="M50.46,15.56c1.01,1.04,1.44,2.11,1.64,3.55c0.45,3.19,1.38,9.36,1.97,13.13c0.31,1.97,0.67,3.74,0.81,4.34" transform="matrix(1,0,0,1,1296,-4)" class="stroke_order_diagram--existing_path"></path><path id="pathSk2v596cn448d" kvg:type="㇕a" d="M52.56,17.04c4.32-0.6,22.72-2.37,29.81-2.92c3.07-0.24,4.74,0.52,4.29,4c-0.34,2.63-1.51,6.93-2.87,11.88c-0.34,1.25-0.73,2.55-1.15,3.9" transform="matrix(1,0,0,1,1296,-4)" class="stroke_order_diagram--existing_path"></path><path id="pathSk2v596cn448e" kvg:type="㇐a" d="M54.09,25.66c5.37-0.51,26.74-2.29,30.29-2.29" transform="matrix(1,0,0,1,1296,-4)" class="stroke_order_diagram--existing_path"></path><path id="pathSk2v596cn448f" kvg:type="㇐a" d="M55.6,34.55c7.35-0.76,17.84-1.66,25.92-2.4" transform="matrix(1,0,0,1,1296,-4)" class="stroke_order_diagram--existing_path"></path><path id="pathSk2v596cn448g" kvg:type="㇐" d="M44.16,44.45c2.14,0.9,5.45,0.55,7.7,0.27c12.02-1.48,28.26-2.89,38.64-3.54c2.62-0.16,4.8-0.21,7.34,0.44" transform="matrix(1,0,0,1,1296,-4)" class="stroke_order_diagram--existing_path"></path><path id="pathSk2v596cn448h" kvg:type="㇑" d="M50.31,52.69c0.93,0.93,1.31,2.06,1.55,3.42c0.59,3.43,1.18,7.49,1.92,11.63c0.25,1.42,0.49,2.82,0.68,4.19" transform="matrix(1,0,0,1,1296,-4)" class="stroke_order_diagram--existing_path"></path><path id="pathSk2v596cn448i" kvg:type="㇕a" d="M52.23,53.63c11.62-1.27,23.2-2.5,32.03-3.17c2.51-0.19,4.53,0.35,3.99,3.52c-0.41,2.47-1.28,7.43-2.25,11.83c-0.32,1.45-0.65,2.89-0.98,4.24" transform="matrix(1,0,0,1,1296,-4)" class="stroke_order_diagram--existing_path"></path><path id="kvg:07ce7-s14" kvg:type="㇐a" d="M53.88,61.38c3.35-0.25,29.55-2.45,32.31-2.55" transform="matrix(1,0,0,1,1296,-4)" class="stroke_order_diagram--current_path"></path><path id="pathSk2v596cn448k" kvg:type="㇐a" d="M53.88,61.38c3.35-0.25,29.55-2.45,32.31-2.55" transform="matrix(1,0,0,1,1296,-4)" class="stroke_order_diagram--current_path"></path><circle cx="53.88" cy="61.38" r="8" class="stroke_order_diagram--path_start" transform="matrix(1,0,0,1,1296,-4)"></circle><line x1="1450" x2="1450" y1="1" y2="99" class="stroke_order_diagram--guide_line"></line><line x1="1499" x2="1499" y1="1" y2="99" class="stroke_order_diagram--bounding_box"></line><path id="pathSk2v596cn448n" kvg:type="㇔" d="M13.94,24.64c2.47,2.03,6.19,7.76,6.81,10.91" transform="matrix(1,0,0,1,1396,-4)" class="stroke_order_diagram--existing_path"></path><path id="pathSk2v596cn448o" kvg:type="㇒" d="M43.51,20.22c0.12,0.84-0.03,1.63-0.44,2.37c-1.18,2.93-3.25,6.65-6.75,11.7" transform="matrix(1,0,0,1,1396,-4)" class="stroke_order_diagram--existing_path"></path><path id="pathSk2v596cn448p" kvg:type="㇐" d="M11.35,43.27c1.85,0.79,4.07,0.91,6.04,0.57c6.99-1.21,12.99-2.34,19.35-3.77c1.44-0.32,3.39-0.7,4.87-0.55" transform="matrix(1,0,0,1,1396,-4)" class="stroke_order_diagram--existing_path"></path><path id="pathSk2v596cn448q" kvg:type="㇑" d="M28.52,14.71c0.82,0.82,1.09,2.04,1.09,3.44c0,4.85-0.09,50.22-0.09,69.6c0,3.88-0.02,5.71-0.02,7.38" transform="matrix(1,0,0,1,1396,-4)" class="stroke_order_diagram--existing_path"></path><path id="pathSk2v596cn448r" kvg:type="㇒" d="M29.27,43.46c0,1.66-0.85,5.44-2.01,7.99c-3.39,7.43-9.14,18.3-16.01,27.28" transform="matrix(1,0,0,1,1396,-4)" class="stroke_order_diagram--existing_path"></path><path id="pathSk2v596cn448s" kvg:type="㇔/㇏" d="M31.62,51.82c4.63,3.06,8.25,7.18,9.9,10.15" transform="matrix(1,0,0,1,1396,-4)" class="stroke_order_diagram--existing_path"></path><path id="pathSk2v596cn448t" kvg:type="㇑" d="M50.46,15.56c1.01,1.04,1.44,2.11,1.64,3.55c0.45,3.19,1.38,9.36,1.97,13.13c0.31,1.97,0.67,3.74,0.81,4.34" transform="matrix(1,0,0,1,1396,-4)" class="stroke_order_diagram--existing_path"></path><path id="pathSk2v596cn448u" kvg:type="㇕a" d="M52.56,17.04c4.32-0.6,22.72-2.37,29.81-2.92c3.07-0.24,4.74,0.52,4.29,4c-0.34,2.63-1.51,6.93-2.87,11.88c-0.34,1.25-0.73,2.55-1.15,3.9" transform="matrix(1,0,0,1,1396,-4)" class="stroke_order_diagram--existing_path"></path><path id="pathSk2v596cn448v" kvg:type="㇐a" d="M54.09,25.66c5.37-0.51,26.74-2.29,30.29-2.29" transform="matrix(1,0,0,1,1396,-4)" class="stroke_order_diagram--existing_path"></path><path id="pathSk2v596cn448w" kvg:type="㇐a" d="M55.6,34.55c7.35-0.76,17.84-1.66,25.92-2.4" transform="matrix(1,0,0,1,1396,-4)" class="stroke_order_diagram--existing_path"></path><path id="pathSk2v596cn448x" kvg:type="㇐" d="M44.16,44.45c2.14,0.9,5.45,0.55,7.7,0.27c12.02-1.48,28.26-2.89,38.64-3.54c2.62-0.16,4.8-0.21,7.34,0.44" transform="matrix(1,0,0,1,1396,-4)" class="stroke_order_diagram--existing_path"></path><path id="pathSk2v596cn448y" kvg:type="㇑" d="M50.31,52.69c0.93,0.93,1.31,2.06,1.55,3.42c0.59,3.43,1.18,7.49,1.92,11.63c0.25,1.42,0.49,2.82,0.68,4.19" transform="matrix(1,0,0,1,1396,-4)" class="stroke_order_diagram--existing_path"></path><path id="pathSk2v596cn448z" kvg:type="㇕a" d="M52.23,53.63c11.62-1.27,23.2-2.5,32.03-3.17c2.51-0.19,4.53,0.35,3.99,3.52c-0.41,2.47-1.28,7.43-2.25,11.83c-0.32,1.45-0.65,2.89-0.98,4.24" transform="matrix(1,0,0,1,1396,-4)" class="stroke_order_diagram--existing_path"></path><path id="pathSk2v596cn4490" kvg:type="㇐a" d="M53.88,61.38c3.35-0.25,29.55-2.45,32.31-2.55" transform="matrix(1,0,0,1,1396,-4)" class="stroke_order_diagram--existing_path"></path><path id="kvg:07ce7-s15" kvg:type="㇐a" d="M55.63,70.04c7.27-0.22,18.35-1.44,28.4-1.81" transform="matrix(1,0,0,1,1396,-4)" class="stroke_order_diagram--current_path"></path><path id="pathSk2v596cn4492" kvg:type="㇐a" d="M55.63,70.04c7.27-0.22,18.35-1.44,28.4-1.81" transform="matrix(1,0,0,1,1396,-4)" class="stroke_order_diagram--current_path"></path><circle cx="55.63" cy="70.04" r="8" class="stroke_order_diagram--path_start" transform="matrix(1,0,0,1,1396,-4)"></circle><line x1="1550" x2="1550" y1="1" y2="99" class="stroke_order_diagram--guide_line"></line><line x1="1599" x2="1599" y1="1" y2="99" class="stroke_order_diagram--bounding_box"></line><path id="pathSk2v596cn4495" kvg:type="㇔" d="M13.94,24.64c2.47,2.03,6.19,7.76,6.81,10.91" transform="matrix(1,0,0,1,1496,-4)" class="stroke_order_diagram--existing_path"></path><path id="pathSk2v596cn4496" kvg:type="㇒" d="M43.51,20.22c0.12,0.84-0.03,1.63-0.44,2.37c-1.18,2.93-3.25,6.65-6.75,11.7" transform="matrix(1,0,0,1,1496,-4)" class="stroke_order_diagram--existing_path"></path><path id="pathSk2v596cn4497" kvg:type="㇐" d="M11.35,43.27c1.85,0.79,4.07,0.91,6.04,0.57c6.99-1.21,12.99-2.34,19.35-3.77c1.44-0.32,3.39-0.7,4.87-0.55" transform="matrix(1,0,0,1,1496,-4)" class="stroke_order_diagram--existing_path"></path><path id="pathSk2v596cn4498" kvg:type="㇑" d="M28.52,14.71c0.82,0.82,1.09,2.04,1.09,3.44c0,4.85-0.09,50.22-0.09,69.6c0,3.88-0.02,5.71-0.02,7.38" transform="matrix(1,0,0,1,1496,-4)" class="stroke_order_diagram--existing_path"></path><path id="pathSk2v596cn4499" kvg:type="㇒" d="M29.27,43.46c0,1.66-0.85,5.44-2.01,7.99c-3.39,7.43-9.14,18.3-16.01,27.28" transform="matrix(1,0,0,1,1496,-4)" class="stroke_order_diagram--existing_path"></path><path id="pathSk2v596cn449a" kvg:type="㇔/㇏" d="M31.62,51.82c4.63,3.06,8.25,7.18,9.9,10.15" transform="matrix(1,0,0,1,1496,-4)" class="stroke_order_diagram--existing_path"></path><path id="pathSk2v596cn449b" kvg:type="㇑" d="M50.46,15.56c1.01,1.04,1.44,2.11,1.64,3.55c0.45,3.19,1.38,9.36,1.97,13.13c0.31,1.97,0.67,3.74,0.81,4.34" transform="matrix(1,0,0,1,1496,-4)" class="stroke_order_diagram--existing_path"></path><path id="pathSk2v596cn449c" kvg:type="㇕a" d="M52.56,17.04c4.32-0.6,22.72-2.37,29.81-2.92c3.07-0.24,4.74,0.52,4.29,4c-0.34,2.63-1.51,6.93-2.87,11.88c-0.34,1.25-0.73,2.55-1.15,3.9" transform="matrix(1,0,0,1,1496,-4)" class="stroke_order_diagram--existing_path"></path><path id="pathSk2v596cn449d" kvg:type="㇐a" d="M54.09,25.66c5.37-0.51,26.74-2.29,30.29-2.29" transform="matrix(1,0,0,1,1496,-4)" class="stroke_order_diagram--existing_path"></path><path id="pathSk2v596cn449e" kvg:type="㇐a" d="M55.6,34.55c7.35-0.76,17.84-1.66,25.92-2.4" transform="matrix(1,0,0,1,1496,-4)" class="stroke_order_diagram--existing_path"></path><path id="pathSk2v596cn449f" kvg:type="㇐" d="M44.16,44.45c2.14,0.9,5.45,0.55,7.7,0.27c12.02-1.48,28.26-2.89,38.64-3.54c2.62-0.16,4.8-0.21,7.34,0.44" transform="matrix(1,0,0,1,1496,-4)" class="stroke_order_diagram--existing_path"></path><path id="pathSk2v596cn449g" kvg:type="㇑" d="M50.31,52.69c0.93,0.93,1.31,2.06,1.55,3.42c0.59,3.43,1.18,7.49,1.92,11.63c0.25,1.42,0.49,2.82,0.68,4.19" transform="matrix(1,0,0,1,1496,-4)" class="stroke_order_diagram--existing_path"></path><path id="pathSk2v596cn449h" kvg:type="㇕a" d="M52.23,53.63c11.62-1.27,23.2-2.5,32.03-3.17c2.51-0.19,4.53,0.35,3.99,3.52c-0.41,2.47-1.28,7.43-2.25,11.83c-0.32,1.45-0.65,2.89-0.98,4.24" transform="matrix(1,0,0,1,1496,-4)" class="stroke_order_diagram--existing_path"></path><path id="pathSk2v596cn449i" kvg:type="㇐a" d="M53.88,61.38c3.35-0.25,29.55-2.45,32.31-2.55" transform="matrix(1,0,0,1,1496,-4)" class="stroke_order_diagram--existing_path"></path><path id="pathSk2v596cn449j" kvg:type="㇐a" d="M55.63,70.04c7.27-0.22,18.35-1.44,28.4-1.81" transform="matrix(1,0,0,1,1496,-4)" class="stroke_order_diagram--existing_path"></path><path id="kvg:07ce7-s16" kvg:type="㇑a" d="M67.71,53.27c0.89,0.89,1.11,1.98,1.11,3.54c0,9.58,0.05,30.96,0.05,33.32" transform="matrix(1,0,0,1,1496,-4)" class="stroke_order_diagram--current_path"></path><path id="pathSk2v596cn449l" kvg:type="㇑a" d="M67.71,53.27c0.89,0.89,1.11,1.98,1.11,3.54c0,9.58,0.05,30.96,0.05,33.32" transform="matrix(1,0,0,1,1496,-4)" class="stroke_order_diagram--current_path"></path><circle cx="67.71" cy="53.27" r="8" class="stroke_order_diagram--path_start" transform="matrix(1,0,0,1,1496,-4)"></circle><line x1="1650" x2="1650" y1="1" y2="99" class="stroke_order_diagram--guide_line"></line><line x1="1699" x2="1699" y1="1" y2="99" class="stroke_order_diagram--bounding_box"></line><path id="pathSk2v596cn449o" kvg:type="㇔" d="M13.94,24.64c2.47,2.03,6.19,7.76,6.81,10.91" transform="matrix(1,0,0,1,1596,-4)" class="stroke_order_diagram--existing_path"></path><path id="pathSk2v596cn449p" kvg:type="㇒" d="M43.51,20.22c0.12,0.84-0.03,1.63-0.44,2.37c-1.18,2.93-3.25,6.65-6.75,11.7" transform="matrix(1,0,0,1,1596,-4)" class="stroke_order_diagram--existing_path"></path><path id="pathSk2v596cn449q" kvg:type="㇐" d="M11.35,43.27c1.85,0.79,4.07,0.91,6.04,0.57c6.99-1.21,12.99-2.34,19.35-3.77c1.44-0.32,3.39-0.7,4.87-0.55" transform="matrix(1,0,0,1,1596,-4)" class="stroke_order_diagram--existing_path"></path><path id="pathSk2v596cn449r" kvg:type="㇑" d="M28.52,14.71c0.82,0.82,1.09,2.04,1.09,3.44c0,4.85-0.09,50.22-0.09,69.6c0,3.88-0.02,5.71-0.02,7.38" transform="matrix(1,0,0,1,1596,-4)" class="stroke_order_diagram--existing_path"></path><path id="pathSk2v596cn449s" kvg:type="㇒" d="M29.27,43.46c0,1.66-0.85,5.44-2.01,7.99c-3.39,7.43-9.14,18.3-16.01,27.28" transform="matrix(1,0,0,1,1596,-4)" class="stroke_order_diagram--existing_path"></path><path id="pathSk2v596cn449t" kvg:type="㇔/㇏" d="M31.62,51.82c4.63,3.06,8.25,7.18,9.9,10.15" transform="matrix(1,0,0,1,1596,-4)" class="stroke_order_diagram--existing_path"></path><path id="pathSk2v596cn449u" kvg:type="㇑" d="M50.46,15.56c1.01,1.04,1.44,2.11,1.64,3.55c0.45,3.19,1.38,9.36,1.97,13.13c0.31,1.97,0.67,3.74,0.81,4.34" transform="matrix(1,0,0,1,1596,-4)" class="stroke_order_diagram--existing_path"></path><path id="pathSk2v596cn449v" kvg:type="㇕a" d="M52.56,17.04c4.32-0.6,22.72-2.37,29.81-2.92c3.07-0.24,4.74,0.52,4.29,4c-0.34,2.63-1.51,6.93-2.87,11.88c-0.34,1.25-0.73,2.55-1.15,3.9" transform="matrix(1,0,0,1,1596,-4)" class="stroke_order_diagram--existing_path"></path><path id="pathSk2v596cn449w" kvg:type="㇐a" d="M54.09,25.66c5.37-0.51,26.74-2.29,30.29-2.29" transform="matrix(1,0,0,1,1596,-4)" class="stroke_order_diagram--existing_path"></path><path id="pathSk2v596cn449x" kvg:type="㇐a" d="M55.6,34.55c7.35-0.76,17.84-1.66,25.92-2.4" transform="matrix(1,0,0,1,1596,-4)" class="stroke_order_diagram--existing_path"></path><path id="pathSk2v596cn449y" kvg:type="㇐" d="M44.16,44.45c2.14,0.9,5.45,0.55,7.7,0.27c12.02-1.48,28.26-2.89,38.64-3.54c2.62-0.16,4.8-0.21,7.34,0.44" transform="matrix(1,0,0,1,1596,-4)" class="stroke_order_diagram--existing_path"></path><path id="pathSk2v596cn449z" kvg:type="㇑" d="M50.31,52.69c0.93,0.93,1.31,2.06,1.55,3.42c0.59,3.43,1.18,7.49,1.92,11.63c0.25,1.42,0.49,2.82,0.68,4.19" transform="matrix(1,0,0,1,1596,-4)" class="stroke_order_diagram--existing_path"></path><path id="pathSk2v596cn44a0" kvg:type="㇕a" d="M52.23,53.63c11.62-1.27,23.2-2.5,32.03-3.17c2.51-0.19,4.53,0.35,3.99,3.52c-0.41,2.47-1.28,7.43-2.25,11.83c-0.32,1.45-0.65,2.89-0.98,4.24" transform="matrix(1,0,0,1,1596,-4)" class="stroke_order_diagram--existing_path"></path><path id="pathSk2v596cn44a1" kvg:type="㇐a" d="M53.88,61.38c3.35-0.25,29.55-2.45,32.31-2.55" transform="matrix(1,0,0,1,1596,-4)" class="stroke_order_diagram--existing_path"></path><path id="pathSk2v596cn44a2" kvg:type="㇐a" d="M55.63,70.04c7.27-0.22,18.35-1.44,28.4-1.81" transform="matrix(1,0,0,1,1596,-4)" class="stroke_order_diagram--existing_path"></path><path id="pathSk2v596cn44a3" kvg:type="㇑a" d="M67.71,53.27c0.89,0.89,1.11,1.98,1.11,3.54c0,9.58,0.05,30.96,0.05,33.32" transform="matrix(1,0,0,1,1596,-4)" class="stroke_order_diagram--existing_path"></path><path id="kvg:07ce7-s17" kvg:type="㇐" d="M52.36,79.85c1.79,0.57,3.53,0.73,5.38,0.6c6.79-0.46,15.24-1.3,23.5-1.9c1.68-0.12,3.29-0.25,4.96,0.07" transform="matrix(1,0,0,1,1596,-4)" class="stroke_order_diagram--current_path"></path><path id="pathSk2v596cn44a5" kvg:type="㇐" d="M52.36,79.85c1.79,0.57,3.53,0.73,5.38,0.6c6.79-0.46,15.24-1.3,23.5-1.9c1.68-0.12,3.29-0.25,4.96,0.07" transform="matrix(1,0,0,1,1596,-4)" class="stroke_order_diagram--current_path"></path><circle cx="52.36" cy="79.85" r="8" class="stroke_order_diagram--path_start" transform="matrix(1,0,0,1,1596,-4)"></circle><line x1="1750" x2="1750" y1="1" y2="99" class="stroke_order_diagram--guide_line"></line><line x1="1799" x2="1799" y1="1" y2="99" class="stroke_order_diagram--bounding_box"></line><path id="pathSk2v596cn44a8" kvg:type="㇔" d="M13.94,24.64c2.47,2.03,6.19,7.76,6.81,10.91" transform="matrix(1,0,0,1,1696,-4)" class="stroke_order_diagram--existing_path"></path><path id="pathSk2v596cn44a9" kvg:type="㇒" d="M43.51,20.22c0.12,0.84-0.03,1.63-0.44,2.37c-1.18,2.93-3.25,6.65-6.75,11.7" transform="matrix(1,0,0,1,1696,-4)" class="stroke_order_diagram--existing_path"></path><path id="pathSk2v596cn44aa" kvg:type="㇐" d="M11.35,43.27c1.85,0.79,4.07,0.91,6.04,0.57c6.99-1.21,12.99-2.34,19.35-3.77c1.44-0.32,3.39-0.7,4.87-0.55" transform="matrix(1,0,0,1,1696,-4)" class="stroke_order_diagram--existing_path"></path><path id="pathSk2v596cn44ab" kvg:type="㇑" d="M28.52,14.71c0.82,0.82,1.09,2.04,1.09,3.44c0,4.85-0.09,50.22-0.09,69.6c0,3.88-0.02,5.71-0.02,7.38" transform="matrix(1,0,0,1,1696,-4)" class="stroke_order_diagram--existing_path"></path><path id="pathSk2v596cn44ac" kvg:type="㇒" d="M29.27,43.46c0,1.66-0.85,5.44-2.01,7.99c-3.39,7.43-9.14,18.3-16.01,27.28" transform="matrix(1,0,0,1,1696,-4)" class="stroke_order_diagram--existing_path"></path><path id="pathSk2v596cn44ad" kvg:type="㇔/㇏" d="M31.62,51.82c4.63,3.06,8.25,7.18,9.9,10.15" transform="matrix(1,0,0,1,1696,-4)" class="stroke_order_diagram--existing_path"></path><path id="pathSk2v596cn44ae" kvg:type="㇑" d="M50.46,15.56c1.01,1.04,1.44,2.11,1.64,3.55c0.45,3.19,1.38,9.36,1.97,13.13c0.31,1.97,0.67,3.74,0.81,4.34" transform="matrix(1,0,0,1,1696,-4)" class="stroke_order_diagram--existing_path"></path><path id="pathSk2v596cn44af" kvg:type="㇕a" d="M52.56,17.04c4.32-0.6,22.72-2.37,29.81-2.92c3.07-0.24,4.74,0.52,4.29,4c-0.34,2.63-1.51,6.93-2.87,11.88c-0.34,1.25-0.73,2.55-1.15,3.9" transform="matrix(1,0,0,1,1696,-4)" class="stroke_order_diagram--existing_path"></path><path id="pathSk2v596cn44ag" kvg:type="㇐a" d="M54.09,25.66c5.37-0.51,26.74-2.29,30.29-2.29" transform="matrix(1,0,0,1,1696,-4)" class="stroke_order_diagram--existing_path"></path><path id="pathSk2v596cn44ah" kvg:type="㇐a" d="M55.6,34.55c7.35-0.76,17.84-1.66,25.92-2.4" transform="matrix(1,0,0,1,1696,-4)" class="stroke_order_diagram--existing_path"></path><path id="pathSk2v596cn44ai" kvg:type="㇐" d="M44.16,44.45c2.14,0.9,5.45,0.55,7.7,0.27c12.02-1.48,28.26-2.89,38.64-3.54c2.62-0.16,4.8-0.21,7.34,0.44" transform="matrix(1,0,0,1,1696,-4)" class="stroke_order_diagram--existing_path"></path><path id="pathSk2v596cn44aj" kvg:type="㇑" d="M50.31,52.69c0.93,0.93,1.31,2.06,1.55,3.42c0.59,3.43,1.18,7.49,1.92,11.63c0.25,1.42,0.49,2.82,0.68,4.19" transform="matrix(1,0,0,1,1696,-4)" class="stroke_order_diagram--existing_path"></path><path id="pathSk2v596cn44ak" kvg:type="㇕a" d="M52.23,53.63c11.62-1.27,23.2-2.5,32.03-3.17c2.51-0.19,4.53,0.35,3.99,3.52c-0.41,2.47-1.28,7.43-2.25,11.83c-0.32,1.45-0.65,2.89-0.98,4.24" transform="matrix(1,0,0,1,1696,-4)" class="stroke_order_diagram--existing_path"></path><path id="pathSk2v596cn44al" kvg:type="㇐a" d="M53.88,61.38c3.35-0.25,29.55-2.45,32.31-2.55" transform="matrix(1,0,0,1,1696,-4)" class="stroke_order_diagram--existing_path"></path><path id="pathSk2v596cn44am" kvg:type="㇐a" d="M55.63,70.04c7.27-0.22,18.35-1.44,28.4-1.81" transform="matrix(1,0,0,1,1696,-4)" class="stroke_order_diagram--existing_path"></path><path id="pathSk2v596cn44an" kvg:type="㇑a" d="M67.71,53.27c0.89,0.89,1.11,1.98,1.11,3.54c0,9.58,0.05,30.96,0.05,33.32" transform="matrix(1,0,0,1,1696,-4)" class="stroke_order_diagram--existing_path"></path><path id="pathSk2v596cn44ao" kvg:type="㇐" d="M52.36,79.85c1.79,0.57,3.53,0.73,5.38,0.6c6.79-0.46,15.24-1.3,23.5-1.9c1.68-0.12,3.29-0.25,4.96,0.07" transform="matrix(1,0,0,1,1696,-4)" class="stroke_order_diagram--existing_path"></path><path id="kvg:07ce7-s18" kvg:type="㇐" d="M43.75,91.23c3.09,0.86,5.82,0.74,8.99,0.54c10.23-0.63,24.36-1.85,35.63-2.12c2.76-0.07,5.5,0.1,8.2,0.75" transform="matrix(1,0,0,1,1696,-4)" class="stroke_order_diagram--current_path"></path><path id="pathSk2v596cn44aq" kvg:type="㇐" d="M43.75,91.23c3.09,0.86,5.82,0.74,8.99,0.54c10.23-0.63,24.36-1.85,35.63-2.12c2.76-0.07,5.5,0.1,8.2,0.75" transform="matrix(1,0,0,1,1696,-4)" class="stroke_order_diagram--current_path"></path><circle cx="43.75" cy="91.23" r="8" class="stroke_order_diagram--path_start" transform="matrix(1,0,0,1,1696,-4)"></circle></svg>