<svg style="width: 1000px; height: 100px;" viewbox="0 0 1000 100"><style>
.stroke_order_diagram--outer_container {
  width: 100%;
  overflow-x: auto;
  overflow-y: hidden;
}

.stroke_order_diagram--guide_line {
  fill: none;
  stroke: #ddd;
  stroke-width: 3;
  stroke-linecap: square;
  stroke-linejoin: square;
  stroke-dasharray:8, 8;
}

.stroke_order_diagram--bounding_box {
  fill: none;
  stroke: #ddd;
  stroke-width: 4;
  stroke-linecap: square;
  stroke-linejoin: square;
}

.stroke_order_diagram--current_path {
  fill: none;
  stroke: #000;
  stroke-width: 6;
  stroke-linecap: round;
  stroke-linejoin: round;
}

.stroke_order_diagram--existing_path {
  fill: none;
  stroke: #aaa;
  stroke-width: 6;
  stroke-linecap: round;
  stroke-linejoin:round;
}

.stroke_order_diagram--path_start {
  fill: rgba(255, 0, 0, 0.7);
  stroke:none
}</style><desc>Created with Snap</desc><defs></defs><line x1="1" x2="999" y1="1" y2="1" class="stroke_order_diagram--bounding_box"></line><line x1="1" x2="1" y1="1" y2="99" class="stroke_order_diagram--bounding_box"></line><line x1="1" x2="999" y1="99" y2="99" class="stroke_order_diagram--bounding_box"></line><line x1="0" x2="1000" y1="50" y2="50" class="stroke_order_diagram--guide_line"></line><line x1="50" x2="50" y1="1" y2="99" class="stroke_order_diagram--guide_line"></line><line x1="99" x2="99" y1="1" y2="99" class="stroke_order_diagram--bounding_box"></line><path id="kvg:07d0b-s1" kvg:type="㇜" d="M27.88,14.92c0.34,1.34,0.5,2.4-0.17,3.8c-2.83,5.9-6.7,12.15-11.05,18.47c-1.2,1.75-0.74,3.14,0.5,3.6c3.6,1.34,5.47,1.95,8.97,3.56" transform="matrix(1,0,0,1,-4,-4)" class="stroke_order_diagram--current_path"></path><path id="pathSk2v596cn4c3b" kvg:type="㇜" d="M27.88,14.92c0.34,1.34,0.5,2.4-0.17,3.8c-2.83,5.9-6.7,12.15-11.05,18.47c-1.2,1.75-0.74,3.14,0.5,3.6c3.6,1.34,5.47,1.95,8.97,3.56" transform="matrix(1,0,0,1,-4,-4)" class="stroke_order_diagram--current_path"></path><circle cx="27.88" cy="14.92" r="8" class="stroke_order_diagram--path_start" transform="matrix(1,0,0,1,-4,-4)"></circle><line x1="150" x2="150" y1="1" y2="99" class="stroke_order_diagram--guide_line"></line><line x1="199" x2="199" y1="1" y2="99" class="stroke_order_diagram--bounding_box"></line><path id="pathSk2v596cn4c3e" kvg:type="㇜" d="M27.88,14.92c0.34,1.34,0.5,2.4-0.17,3.8c-2.83,5.9-6.7,12.15-11.05,18.47c-1.2,1.75-0.74,3.14,0.5,3.6c3.6,1.34,5.47,1.95,8.97,3.56" transform="matrix(1,0,0,1,96,-4)" class="stroke_order_diagram--existing_path"></path><path id="kvg:07d0b-s2" kvg:type="㇜" d="M39.55,23.93c0.47,1.56,0.02,2.91-0.8,4.2c-6.13,9.5-15.42,22.81-23.18,30.83c-1.83,1.89-0.95,3.54,1.4,2.84c5.03-1.5,16.03-5.43,23.29-7.78" transform="matrix(1,0,0,1,96,-4)" class="stroke_order_diagram--current_path"></path><path id="pathSk2v596cn4c3g" kvg:type="㇜" d="M39.55,23.93c0.47,1.56,0.02,2.91-0.8,4.2c-6.13,9.5-15.42,22.81-23.18,30.83c-1.83,1.89-0.95,3.54,1.4,2.84c5.03-1.5,16.03-5.43,23.29-7.78" transform="matrix(1,0,0,1,96,-4)" class="stroke_order_diagram--current_path"></path><circle cx="39.55" cy="23.93" r="8" class="stroke_order_diagram--path_start" transform="matrix(1,0,0,1,96,-4)"></circle><line x1="250" x2="250" y1="1" y2="99" class="stroke_order_diagram--guide_line"></line><line x1="299" x2="299" y1="1" y2="99" class="stroke_order_diagram--bounding_box"></line><path id="pathSk2v596cn4c3j" kvg:type="㇜" d="M27.88,14.92c0.34,1.34,0.5,2.4-0.17,3.8c-2.83,5.9-6.7,12.15-11.05,18.47c-1.2,1.75-0.74,3.14,0.5,3.6c3.6,1.34,5.47,1.95,8.97,3.56" transform="matrix(1,0,0,1,196,-4)" class="stroke_order_diagram--existing_path"></path><path id="pathSk2v596cn4c3k" kvg:type="㇜" d="M39.55,23.93c0.47,1.56,0.02,2.91-0.8,4.2c-6.13,9.5-15.42,22.81-23.18,30.83c-1.83,1.89-0.95,3.54,1.4,2.84c5.03-1.5,16.03-5.43,23.29-7.78" transform="matrix(1,0,0,1,196,-4)" class="stroke_order_diagram--existing_path"></path><path id="kvg:07d0b-s3" kvg:type="㇔" d="M36.88,46.88c2.43,2.18,6.27,8.96,6.87,12.35" transform="matrix(1,0,0,1,196,-4)" class="stroke_order_diagram--current_path"></path><path id="pathSk2v596cn4c3m" kvg:type="㇔" d="M36.88,46.88c2.43,2.18,6.27,8.96,6.87,12.35" transform="matrix(1,0,0,1,196,-4)" class="stroke_order_diagram--current_path"></path><circle cx="36.88" cy="46.88" r="8" class="stroke_order_diagram--path_start" transform="matrix(1,0,0,1,196,-4)"></circle><line x1="350" x2="350" y1="1" y2="99" class="stroke_order_diagram--guide_line"></line><line x1="399" x2="399" y1="1" y2="99" class="stroke_order_diagram--bounding_box"></line><path id="pathSk2v596cn4c3p" kvg:type="㇜" d="M27.88,14.92c0.34,1.34,0.5,2.4-0.17,3.8c-2.83,5.9-6.7,12.15-11.05,18.47c-1.2,1.75-0.74,3.14,0.5,3.6c3.6,1.34,5.47,1.95,8.97,3.56" transform="matrix(1,0,0,1,296,-4)" class="stroke_order_diagram--existing_path"></path><path id="pathSk2v596cn4c3q" kvg:type="㇜" d="M39.55,23.93c0.47,1.56,0.02,2.91-0.8,4.2c-6.13,9.5-15.42,22.81-23.18,30.83c-1.83,1.89-0.95,3.54,1.4,2.84c5.03-1.5,16.03-5.43,23.29-7.78" transform="matrix(1,0,0,1,296,-4)" class="stroke_order_diagram--existing_path"></path><path id="pathSk2v596cn4c3r" kvg:type="㇔" d="M36.88,46.88c2.43,2.18,6.27,8.96,6.87,12.35" transform="matrix(1,0,0,1,296,-4)" class="stroke_order_diagram--existing_path"></path><path id="kvg:07d0b-s4" kvg:type="㇑" d="M29.39,60.62c0.87,0.87,1.23,2.01,1.23,3.84c0,8.34-0.02,16.54,0,23.49c0,2.46-0.12,4.34-0.12,6.67" transform="matrix(1,0,0,1,296,-4)" class="stroke_order_diagram--current_path"></path><path id="pathSk2v596cn4c3t" kvg:type="㇑" d="M29.39,60.62c0.87,0.87,1.23,2.01,1.23,3.84c0,8.34-0.02,16.54,0,23.49c0,2.46-0.12,4.34-0.12,6.67" transform="matrix(1,0,0,1,296,-4)" class="stroke_order_diagram--current_path"></path><circle cx="29.39" cy="60.62" r="8" class="stroke_order_diagram--path_start" transform="matrix(1,0,0,1,296,-4)"></circle><line x1="450" x2="450" y1="1" y2="99" class="stroke_order_diagram--guide_line"></line><line x1="499" x2="499" y1="1" y2="99" class="stroke_order_diagram--bounding_box"></line><path id="pathSk2v596cn4c3w" kvg:type="㇜" d="M27.88,14.92c0.34,1.34,0.5,2.4-0.17,3.8c-2.83,5.9-6.7,12.15-11.05,18.47c-1.2,1.75-0.74,3.14,0.5,3.6c3.6,1.34,5.47,1.95,8.97,3.56" transform="matrix(1,0,0,1,396,-4)" class="stroke_order_diagram--existing_path"></path><path id="pathSk2v596cn4c3x" kvg:type="㇜" d="M39.55,23.93c0.47,1.56,0.02,2.91-0.8,4.2c-6.13,9.5-15.42,22.81-23.18,30.83c-1.83,1.89-0.95,3.54,1.4,2.84c5.03-1.5,16.03-5.43,23.29-7.78" transform="matrix(1,0,0,1,396,-4)" class="stroke_order_diagram--existing_path"></path><path id="pathSk2v596cn4c3y" kvg:type="㇔" d="M36.88,46.88c2.43,2.18,6.27,8.96,6.87,12.35" transform="matrix(1,0,0,1,396,-4)" class="stroke_order_diagram--existing_path"></path><path id="pathSk2v596cn4c3z" kvg:type="㇑" d="M29.39,60.62c0.87,0.87,1.23,2.01,1.23,3.84c0,8.34-0.02,16.54,0,23.49c0,2.46-0.12,4.34-0.12,6.67" transform="matrix(1,0,0,1,396,-4)" class="stroke_order_diagram--existing_path"></path><path id="kvg:07d0b-s5" kvg:type="㇒" d="M20.6,70.35c0.27,1.28,0.27,2.28-0.16,3.47c-1.61,4.49-6.55,12.85-9.2,16.62" transform="matrix(1,0,0,1,396,-4)" class="stroke_order_diagram--current_path"></path><path id="pathSk2v596cn4c41" kvg:type="㇒" d="M20.6,70.35c0.27,1.28,0.27,2.28-0.16,3.47c-1.61,4.49-6.55,12.85-9.2,16.62" transform="matrix(1,0,0,1,396,-4)" class="stroke_order_diagram--current_path"></path><circle cx="20.6" cy="70.35" r="8" class="stroke_order_diagram--path_start" transform="matrix(1,0,0,1,396,-4)"></circle><line x1="550" x2="550" y1="1" y2="99" class="stroke_order_diagram--guide_line"></line><line x1="599" x2="599" y1="1" y2="99" class="stroke_order_diagram--bounding_box"></line><path id="pathSk2v596cn4c44" kvg:type="㇜" d="M27.88,14.92c0.34,1.34,0.5,2.4-0.17,3.8c-2.83,5.9-6.7,12.15-11.05,18.47c-1.2,1.75-0.74,3.14,0.5,3.6c3.6,1.34,5.47,1.95,8.97,3.56" transform="matrix(1,0,0,1,496,-4)" class="stroke_order_diagram--existing_path"></path><path id="pathSk2v596cn4c45" kvg:type="㇜" d="M39.55,23.93c0.47,1.56,0.02,2.91-0.8,4.2c-6.13,9.5-15.42,22.81-23.18,30.83c-1.83,1.89-0.95,3.54,1.4,2.84c5.03-1.5,16.03-5.43,23.29-7.78" transform="matrix(1,0,0,1,496,-4)" class="stroke_order_diagram--existing_path"></path><path id="pathSk2v596cn4c46" kvg:type="㇔" d="M36.88,46.88c2.43,2.18,6.27,8.96,6.87,12.35" transform="matrix(1,0,0,1,496,-4)" class="stroke_order_diagram--existing_path"></path><path id="pathSk2v596cn4c47" kvg:type="㇑" d="M29.39,60.62c0.87,0.87,1.23,2.01,1.23,3.84c0,8.34-0.02,16.54,0,23.49c0,2.46-0.12,4.34-0.12,6.67" transform="matrix(1,0,0,1,496,-4)" class="stroke_order_diagram--existing_path"></path><path id="pathSk2v596cn4c48" kvg:type="㇒" d="M20.6,70.35c0.27,1.28,0.27,2.28-0.16,3.47c-1.61,4.49-6.55,12.85-9.2,16.62" transform="matrix(1,0,0,1,496,-4)" class="stroke_order_diagram--existing_path"></path><path id="kvg:07d0b-s6" kvg:type="㇔" d="M39.18,67.54c2.87,3.18,5.08,10.56,5.74,13.44" transform="matrix(1,0,0,1,496,-4)" class="stroke_order_diagram--current_path"></path><path id="pathSk2v596cn4c4a" kvg:type="㇔" d="M39.18,67.54c2.87,3.18,5.08,10.56,5.74,13.44" transform="matrix(1,0,0,1,496,-4)" class="stroke_order_diagram--current_path"></path><circle cx="39.18" cy="67.54" r="8" class="stroke_order_diagram--path_start" transform="matrix(1,0,0,1,496,-4)"></circle><line x1="650" x2="650" y1="1" y2="99" class="stroke_order_diagram--guide_line"></line><line x1="699" x2="699" y1="1" y2="99" class="stroke_order_diagram--bounding_box"></line><path id="pathSk2v596cn4c4d" kvg:type="㇜" d="M27.88,14.92c0.34,1.34,0.5,2.4-0.17,3.8c-2.83,5.9-6.7,12.15-11.05,18.47c-1.2,1.75-0.74,3.14,0.5,3.6c3.6,1.34,5.47,1.95,8.97,3.56" transform="matrix(1,0,0,1,596,-4)" class="stroke_order_diagram--existing_path"></path><path id="pathSk2v596cn4c4e" kvg:type="㇜" d="M39.55,23.93c0.47,1.56,0.02,2.91-0.8,4.2c-6.13,9.5-15.42,22.81-23.18,30.83c-1.83,1.89-0.95,3.54,1.4,2.84c5.03-1.5,16.03-5.43,23.29-7.78" transform="matrix(1,0,0,1,596,-4)" class="stroke_order_diagram--existing_path"></path><path id="pathSk2v596cn4c4f" kvg:type="㇔" d="M36.88,46.88c2.43,2.18,6.27,8.96,6.87,12.35" transform="matrix(1,0,0,1,596,-4)" class="stroke_order_diagram--existing_path"></path><path id="pathSk2v596cn4c4g" kvg:type="㇑" d="M29.39,60.62c0.87,0.87,1.23,2.01,1.23,3.84c0,8.34-0.02,16.54,0,23.49c0,2.46-0.12,4.34-0.12,6.67" transform="matrix(1,0,0,1,596,-4)" class="stroke_order_diagram--existing_path"></path><path id="pathSk2v596cn4c4h" kvg:type="㇒" d="M20.6,70.35c0.27,1.28,0.27,2.28-0.16,3.47c-1.61,4.49-6.55,12.85-9.2,16.62" transform="matrix(1,0,0,1,596,-4)" class="stroke_order_diagram--existing_path"></path><path id="pathSk2v596cn4c4i" kvg:type="㇔" d="M39.18,67.54c2.87,3.18,5.08,10.56,5.74,13.44" transform="matrix(1,0,0,1,596,-4)" class="stroke_order_diagram--existing_path"></path><path id="kvg:07d0b-s7" kvg:type="㇑a" d="M67.68,15.7c0.87,0.87,1.44,1.8,1.44,3.44c0,3.95-0.02,11.32-0.07,14.15" transform="matrix(1,0,0,1,596,-4)" class="stroke_order_diagram--current_path"></path><path id="pathSk2v596cn4c4k" kvg:type="㇑a" d="M67.68,15.7c0.87,0.87,1.44,1.8,1.44,3.44c0,3.95-0.02,11.32-0.07,14.15" transform="matrix(1,0,0,1,596,-4)" class="stroke_order_diagram--current_path"></path><circle cx="67.68" cy="15.7" r="8" class="stroke_order_diagram--path_start" transform="matrix(1,0,0,1,596,-4)"></circle><line x1="750" x2="750" y1="1" y2="99" class="stroke_order_diagram--guide_line"></line><line x1="799" x2="799" y1="1" y2="99" class="stroke_order_diagram--bounding_box"></line><path id="pathSk2v596cn4c4n" kvg:type="㇜" d="M27.88,14.92c0.34,1.34,0.5,2.4-0.17,3.8c-2.83,5.9-6.7,12.15-11.05,18.47c-1.2,1.75-0.74,3.14,0.5,3.6c3.6,1.34,5.47,1.95,8.97,3.56" transform="matrix(1,0,0,1,696,-4)" class="stroke_order_diagram--existing_path"></path><path id="pathSk2v596cn4c4o" kvg:type="㇜" d="M39.55,23.93c0.47,1.56,0.02,2.91-0.8,4.2c-6.13,9.5-15.42,22.81-23.18,30.83c-1.83,1.89-0.95,3.54,1.4,2.84c5.03-1.5,16.03-5.43,23.29-7.78" transform="matrix(1,0,0,1,696,-4)" class="stroke_order_diagram--existing_path"></path><path id="pathSk2v596cn4c4p" kvg:type="㇔" d="M36.88,46.88c2.43,2.18,6.27,8.96,6.87,12.35" transform="matrix(1,0,0,1,696,-4)" class="stroke_order_diagram--existing_path"></path><path id="pathSk2v596cn4c4q" kvg:type="㇑" d="M29.39,60.62c0.87,0.87,1.23,2.01,1.23,3.84c0,8.34-0.02,16.54,0,23.49c0,2.46-0.12,4.34-0.12,6.67" transform="matrix(1,0,0,1,696,-4)" class="stroke_order_diagram--existing_path"></path><path id="pathSk2v596cn4c4r" kvg:type="㇒" d="M20.6,70.35c0.27,1.28,0.27,2.28-0.16,3.47c-1.61,4.49-6.55,12.85-9.2,16.62" transform="matrix(1,0,0,1,696,-4)" class="stroke_order_diagram--existing_path"></path><path id="pathSk2v596cn4c4s" kvg:type="㇔" d="M39.18,67.54c2.87,3.18,5.08,10.56,5.74,13.44" transform="matrix(1,0,0,1,696,-4)" class="stroke_order_diagram--existing_path"></path><path id="pathSk2v596cn4c4t" kvg:type="㇑a" d="M67.68,15.7c0.87,0.87,1.44,1.8,1.44,3.44c0,3.95-0.02,11.32-0.07,14.15" transform="matrix(1,0,0,1,696,-4)" class="stroke_order_diagram--existing_path"></path><path id="kvg:07d0b-s8" kvg:type="㇐" d="M45.5,35.46c2.87,0.32,5.45,0.31,8.37,0.03c8.92-0.87,24.94-2.85,34.25-3.54c2.35-0.17,5.62-0.2,7.79,0.35" transform="matrix(1,0,0,1,696,-4)" class="stroke_order_diagram--current_path"></path><path id="pathSk2v596cn4c4v" kvg:type="㇐" d="M45.5,35.46c2.87,0.32,5.45,0.31,8.37,0.03c8.92-0.87,24.94-2.85,34.25-3.54c2.35-0.17,5.62-0.2,7.79,0.35" transform="matrix(1,0,0,1,696,-4)" class="stroke_order_diagram--current_path"></path><circle cx="45.5" cy="35.46" r="8" class="stroke_order_diagram--path_start" transform="matrix(1,0,0,1,696,-4)"></circle><line x1="850" x2="850" y1="1" y2="99" class="stroke_order_diagram--guide_line"></line><line x1="899" x2="899" y1="1" y2="99" class="stroke_order_diagram--bounding_box"></line><path id="pathSk2v596cn4c4y" kvg:type="㇜" d="M27.88,14.92c0.34,1.34,0.5,2.4-0.17,3.8c-2.83,5.9-6.7,12.15-11.05,18.47c-1.2,1.75-0.74,3.14,0.5,3.6c3.6,1.34,5.47,1.95,8.97,3.56" transform="matrix(1,0,0,1,796,-4)" class="stroke_order_diagram--existing_path"></path><path id="pathSk2v596cn4c4z" kvg:type="㇜" d="M39.55,23.93c0.47,1.56,0.02,2.91-0.8,4.2c-6.13,9.5-15.42,22.81-23.18,30.83c-1.83,1.89-0.95,3.54,1.4,2.84c5.03-1.5,16.03-5.43,23.29-7.78" transform="matrix(1,0,0,1,796,-4)" class="stroke_order_diagram--existing_path"></path><path id="pathSk2v596cn4c50" kvg:type="㇔" d="M36.88,46.88c2.43,2.18,6.27,8.96,6.87,12.35" transform="matrix(1,0,0,1,796,-4)" class="stroke_order_diagram--existing_path"></path><path id="pathSk2v596cn4c51" kvg:type="㇑" d="M29.39,60.62c0.87,0.87,1.23,2.01,1.23,3.84c0,8.34-0.02,16.54,0,23.49c0,2.46-0.12,4.34-0.12,6.67" transform="matrix(1,0,0,1,796,-4)" class="stroke_order_diagram--existing_path"></path><path id="pathSk2v596cn4c52" kvg:type="㇒" d="M20.6,70.35c0.27,1.28,0.27,2.28-0.16,3.47c-1.61,4.49-6.55,12.85-9.2,16.62" transform="matrix(1,0,0,1,796,-4)" class="stroke_order_diagram--existing_path"></path><path id="pathSk2v596cn4c53" kvg:type="㇔" d="M39.18,67.54c2.87,3.18,5.08,10.56,5.74,13.44" transform="matrix(1,0,0,1,796,-4)" class="stroke_order_diagram--existing_path"></path><path id="pathSk2v596cn4c54" kvg:type="㇑a" d="M67.68,15.7c0.87,0.87,1.44,1.8,1.44,3.44c0,3.95-0.02,11.32-0.07,14.15" transform="matrix(1,0,0,1,796,-4)" class="stroke_order_diagram--existing_path"></path><path id="pathSk2v596cn4c55" kvg:type="㇐" d="M45.5,35.46c2.87,0.32,5.45,0.31,8.37,0.03c8.92-0.87,24.94-2.85,34.25-3.54c2.35-0.17,5.62-0.2,7.79,0.35" transform="matrix(1,0,0,1,796,-4)" class="stroke_order_diagram--existing_path"></path><path id="kvg:07d0b-s9" kvg:type="㇒" d="M81.97,37.22c0.46,1.21,0.57,2.3-0.02,4.55C76.5,62.75,64.5,83.25,44.81,91.3" transform="matrix(1,0,0,1,796,-4)" class="stroke_order_diagram--current_path"></path><path id="pathSk2v596cn4c57" kvg:type="㇒" d="M81.97,37.22c0.46,1.21,0.57,2.3-0.02,4.55C76.5,62.75,64.5,83.25,44.81,91.3" transform="matrix(1,0,0,1,796,-4)" class="stroke_order_diagram--current_path"></path><circle cx="81.97" cy="37.22" r="8" class="stroke_order_diagram--path_start" transform="matrix(1,0,0,1,796,-4)"></circle><line x1="950" x2="950" y1="1" y2="99" class="stroke_order_diagram--guide_line"></line><line x1="999" x2="999" y1="1" y2="99" class="stroke_order_diagram--bounding_box"></line><path id="pathSk2v596cn4c5a" kvg:type="㇜" d="M27.88,14.92c0.34,1.34,0.5,2.4-0.17,3.8c-2.83,5.9-6.7,12.15-11.05,18.47c-1.2,1.75-0.74,3.14,0.5,3.6c3.6,1.34,5.47,1.95,8.97,3.56" transform="matrix(1,0,0,1,896,-4)" class="stroke_order_diagram--existing_path"></path><path id="pathSk2v596cn4c5b" kvg:type="㇜" d="M39.55,23.93c0.47,1.56,0.02,2.91-0.8,4.2c-6.13,9.5-15.42,22.81-23.18,30.83c-1.83,1.89-0.95,3.54,1.4,2.84c5.03-1.5,16.03-5.43,23.29-7.78" transform="matrix(1,0,0,1,896,-4)" class="stroke_order_diagram--existing_path"></path><path id="pathSk2v596cn4c5c" kvg:type="㇔" d="M36.88,46.88c2.43,2.18,6.27,8.96,6.87,12.35" transform="matrix(1,0,0,1,896,-4)" class="stroke_order_diagram--existing_path"></path><path id="pathSk2v596cn4c5d" kvg:type="㇑" d="M29.39,60.62c0.87,0.87,1.23,2.01,1.23,3.84c0,8.34-0.02,16.54,0,23.49c0,2.46-0.12,4.34-0.12,6.67" transform="matrix(1,0,0,1,896,-4)" class="stroke_order_diagram--existing_path"></path><path id="pathSk2v596cn4c5e" kvg:type="㇒" d="M20.6,70.35c0.27,1.28,0.27,2.28-0.16,3.47c-1.61,4.49-6.55,12.85-9.2,16.62" transform="matrix(1,0,0,1,896,-4)" class="stroke_order_diagram--existing_path"></path><path id="pathSk2v596cn4c5f" kvg:type="㇔" d="M39.18,67.54c2.87,3.18,5.08,10.56,5.74,13.44" transform="matrix(1,0,0,1,896,-4)" class="stroke_order_diagram--existing_path"></path><path id="pathSk2v596cn4c5g" kvg:type="㇑a" d="M67.68,15.7c0.87,0.87,1.44,1.8,1.44,3.44c0,3.95-0.02,11.32-0.07,14.15" transform="matrix(1,0,0,1,896,-4)" class="stroke_order_diagram--existing_path"></path><path id="pathSk2v596cn4c5h" kvg:type="㇐" d="M45.5,35.46c2.87,0.32,5.45,0.31,8.37,0.03c8.92-0.87,24.94-2.85,34.25-3.54c2.35-0.17,5.62-0.2,7.79,0.35" transform="matrix(1,0,0,1,896,-4)" class="stroke_order_diagram--existing_path"></path><path id="pathSk2v596cn4c5i" kvg:type="㇒" d="M81.97,37.22c0.46,1.21,0.57,2.3-0.02,4.55C76.5,62.75,64.5,83.25,44.81,91.3" transform="matrix(1,0,0,1,896,-4)" class="stroke_order_diagram--existing_path"></path><path id="kvg:07d0b-s10" kvg:type="㇏" d="M52.57,49.51C58.25,50,71.12,70.96,82.71,82.79c2.11,2.15,5.54,5.21,9.04,7.15" transform="matrix(1,0,0,1,896,-4)" class="stroke_order_diagram--current_path"></path><path id="pathSk2v596cn4c5k" kvg:type="㇏" d="M52.57,49.51C58.25,50,71.12,70.96,82.71,82.79c2.11,2.15,5.54,5.21,9.04,7.15" transform="matrix(1,0,0,1,896,-4)" class="stroke_order_diagram--current_path"></path><circle cx="52.57" cy="49.51" r="8" class="stroke_order_diagram--path_start" transform="matrix(1,0,0,1,896,-4)"></circle></svg>