<svg style="width: 900px; height: 100px;" viewbox="0 0 900 100"><style>
.stroke_order_diagram--outer_container {
  width: 100%;
  overflow-x: auto;
  overflow-y: hidden;
}

.stroke_order_diagram--guide_line {
  fill: none;
  stroke: #ddd;
  stroke-width: 3;
  stroke-linecap: square;
  stroke-linejoin: square;
  stroke-dasharray:8, 8;
}

.stroke_order_diagram--bounding_box {
  fill: none;
  stroke: #ddd;
  stroke-width: 4;
  stroke-linecap: square;
  stroke-linejoin: square;
}

.stroke_order_diagram--current_path {
  fill: none;
  stroke: #000;
  stroke-width: 6;
  stroke-linecap: round;
  stroke-linejoin: round;
}

.stroke_order_diagram--existing_path {
  fill: none;
  stroke: #aaa;
  stroke-width: 6;
  stroke-linecap: round;
  stroke-linejoin:round;
}

.stroke_order_diagram--path_start {
  fill: rgba(255, 0, 0, 0.7);
  stroke:none
}</style><desc>Created with Snap</desc><defs></defs><line x1="1" x2="899" y1="1" y2="1" class="stroke_order_diagram--bounding_box"></line><line x1="1" x2="1" y1="1" y2="99" class="stroke_order_diagram--bounding_box"></line><line x1="1" x2="899" y1="99" y2="99" class="stroke_order_diagram--bounding_box"></line><line x1="0" x2="900" y1="50" y2="50" class="stroke_order_diagram--guide_line"></line><line x1="50" x2="50" y1="1" y2="99" class="stroke_order_diagram--guide_line"></line><line x1="99" x2="99" y1="1" y2="99" class="stroke_order_diagram--bounding_box"></line><path id="kvg:07d05-s1" kvg:type="㇜" d="M30.08,17.17c0.29,1.14,0.23,2.57-0.4,3.74C26.95,26,23.68,31.37,19.65,36.18c-0.9,1.07-0.8,2.53,0.35,2.95c3.09,1.11,6.62,2.25,9.12,3.99" transform="matrix(1,0,0,1,-4,-4)" class="stroke_order_diagram--current_path"></path><path id="pathSk2v596cn2glg" kvg:type="㇜" d="M30.08,17.17c0.29,1.14,0.23,2.57-0.4,3.74C26.95,26,23.68,31.37,19.65,36.18c-0.9,1.07-0.8,2.53,0.35,2.95c3.09,1.11,6.62,2.25,9.12,3.99" transform="matrix(1,0,0,1,-4,-4)" class="stroke_order_diagram--current_path"></path><circle cx="30.08" cy="17.17" r="8" class="stroke_order_diagram--path_start" transform="matrix(1,0,0,1,-4,-4)"></circle><line x1="150" x2="150" y1="1" y2="99" class="stroke_order_diagram--guide_line"></line><line x1="199" x2="199" y1="1" y2="99" class="stroke_order_diagram--bounding_box"></line><path id="pathSk2v596cn2glj" kvg:type="㇜" d="M30.08,17.17c0.29,1.14,0.23,2.57-0.4,3.74C26.95,26,23.68,31.37,19.65,36.18c-0.9,1.07-0.8,2.53,0.35,2.95c3.09,1.11,6.62,2.25,9.12,3.99" transform="matrix(1,0,0,1,96,-4)" class="stroke_order_diagram--existing_path"></path><path id="kvg:07d05-s2" kvg:type="㇜" d="M41.8,26.43c0.2,0.82-0.07,2.5-0.5,3.09c-6.8,9.23-15.55,20.11-23.48,28.69c-2.45,2.66-1.27,4.74,1.65,3.84C26.12,60,31,58.12,41.02,54.77" transform="matrix(1,0,0,1,96,-4)" class="stroke_order_diagram--current_path"></path><path id="pathSk2v596cn2gll" kvg:type="㇜" d="M41.8,26.43c0.2,0.82-0.07,2.5-0.5,3.09c-6.8,9.23-15.55,20.11-23.48,28.69c-2.45,2.66-1.27,4.74,1.65,3.84C26.12,60,31,58.12,41.02,54.77" transform="matrix(1,0,0,1,96,-4)" class="stroke_order_diagram--current_path"></path><circle cx="41.8" cy="26.43" r="8" class="stroke_order_diagram--path_start" transform="matrix(1,0,0,1,96,-4)"></circle><line x1="250" x2="250" y1="1" y2="99" class="stroke_order_diagram--guide_line"></line><line x1="299" x2="299" y1="1" y2="99" class="stroke_order_diagram--bounding_box"></line><path id="pathSk2v596cn2glo" kvg:type="㇜" d="M30.08,17.17c0.29,1.14,0.23,2.57-0.4,3.74C26.95,26,23.68,31.37,19.65,36.18c-0.9,1.07-0.8,2.53,0.35,2.95c3.09,1.11,6.62,2.25,9.12,3.99" transform="matrix(1,0,0,1,196,-4)" class="stroke_order_diagram--existing_path"></path><path id="pathSk2v596cn2glp" kvg:type="㇜" d="M41.8,26.43c0.2,0.82-0.07,2.5-0.5,3.09c-6.8,9.23-15.55,20.11-23.48,28.69c-2.45,2.66-1.27,4.74,1.65,3.84C26.12,60,31,58.12,41.02,54.77" transform="matrix(1,0,0,1,196,-4)" class="stroke_order_diagram--existing_path"></path><path id="kvg:07d05-s3" kvg:type="㇔" d="M38.38,48.38c2.34,2.22,6.04,9.14,6.62,12.6" transform="matrix(1,0,0,1,196,-4)" class="stroke_order_diagram--current_path"></path><path id="pathSk2v596cn2glr" kvg:type="㇔" d="M38.38,48.38c2.34,2.22,6.04,9.14,6.62,12.6" transform="matrix(1,0,0,1,196,-4)" class="stroke_order_diagram--current_path"></path><circle cx="38.38" cy="48.38" r="8" class="stroke_order_diagram--path_start" transform="matrix(1,0,0,1,196,-4)"></circle><line x1="350" x2="350" y1="1" y2="99" class="stroke_order_diagram--guide_line"></line><line x1="399" x2="399" y1="1" y2="99" class="stroke_order_diagram--bounding_box"></line><path id="pathSk2v596cn2glu" kvg:type="㇜" d="M30.08,17.17c0.29,1.14,0.23,2.57-0.4,3.74C26.95,26,23.68,31.37,19.65,36.18c-0.9,1.07-0.8,2.53,0.35,2.95c3.09,1.11,6.62,2.25,9.12,3.99" transform="matrix(1,0,0,1,296,-4)" class="stroke_order_diagram--existing_path"></path><path id="pathSk2v596cn2glv" kvg:type="㇜" d="M41.8,26.43c0.2,0.82-0.07,2.5-0.5,3.09c-6.8,9.23-15.55,20.11-23.48,28.69c-2.45,2.66-1.27,4.74,1.65,3.84C26.12,60,31,58.12,41.02,54.77" transform="matrix(1,0,0,1,296,-4)" class="stroke_order_diagram--existing_path"></path><path id="pathSk2v596cn2glw" kvg:type="㇔" d="M38.38,48.38c2.34,2.22,6.04,9.14,6.62,12.6" transform="matrix(1,0,0,1,296,-4)" class="stroke_order_diagram--existing_path"></path><path id="kvg:07d05-s4" kvg:type="㇑" d="M29.89,60.62c0.87,0.87,1.23,2.13,1.23,3.59c0,9.05-0.12,16.62-0.17,22.54c-0.02,1.79-0.03,3.51-0.03,5.17" transform="matrix(1,0,0,1,296,-4)" class="stroke_order_diagram--current_path"></path><path id="pathSk2v596cn2gly" kvg:type="㇑" d="M29.89,60.62c0.87,0.87,1.23,2.13,1.23,3.59c0,9.05-0.12,16.62-0.17,22.54c-0.02,1.79-0.03,3.51-0.03,5.17" transform="matrix(1,0,0,1,296,-4)" class="stroke_order_diagram--current_path"></path><circle cx="29.89" cy="60.62" r="8" class="stroke_order_diagram--path_start" transform="matrix(1,0,0,1,296,-4)"></circle><line x1="450" x2="450" y1="1" y2="99" class="stroke_order_diagram--guide_line"></line><line x1="499" x2="499" y1="1" y2="99" class="stroke_order_diagram--bounding_box"></line><path id="pathSk2v596cn2gm1" kvg:type="㇜" d="M30.08,17.17c0.29,1.14,0.23,2.57-0.4,3.74C26.95,26,23.68,31.37,19.65,36.18c-0.9,1.07-0.8,2.53,0.35,2.95c3.09,1.11,6.62,2.25,9.12,3.99" transform="matrix(1,0,0,1,396,-4)" class="stroke_order_diagram--existing_path"></path><path id="pathSk2v596cn2gm2" kvg:type="㇜" d="M41.8,26.43c0.2,0.82-0.07,2.5-0.5,3.09c-6.8,9.23-15.55,20.11-23.48,28.69c-2.45,2.66-1.27,4.74,1.65,3.84C26.12,60,31,58.12,41.02,54.77" transform="matrix(1,0,0,1,396,-4)" class="stroke_order_diagram--existing_path"></path><path id="pathSk2v596cn2gm3" kvg:type="㇔" d="M38.38,48.38c2.34,2.22,6.04,9.14,6.62,12.6" transform="matrix(1,0,0,1,396,-4)" class="stroke_order_diagram--existing_path"></path><path id="pathSk2v596cn2gm4" kvg:type="㇑" d="M29.89,60.62c0.87,0.87,1.23,2.13,1.23,3.59c0,9.05-0.12,16.62-0.17,22.54c-0.02,1.79-0.03,3.51-0.03,5.17" transform="matrix(1,0,0,1,396,-4)" class="stroke_order_diagram--existing_path"></path><path id="kvg:07d05-s5" kvg:type="㇒" d="M19.87,70.6c0.13,0.86,0.11,2.55-0.13,3.16c-1.57,4.01-5.51,11.73-7.74,15.17" transform="matrix(1,0,0,1,396,-4)" class="stroke_order_diagram--current_path"></path><path id="pathSk2v596cn2gm6" kvg:type="㇒" d="M19.87,70.6c0.13,0.86,0.11,2.55-0.13,3.16c-1.57,4.01-5.51,11.73-7.74,15.17" transform="matrix(1,0,0,1,396,-4)" class="stroke_order_diagram--current_path"></path><circle cx="19.87" cy="70.6" r="8" class="stroke_order_diagram--path_start" transform="matrix(1,0,0,1,396,-4)"></circle><line x1="550" x2="550" y1="1" y2="99" class="stroke_order_diagram--guide_line"></line><line x1="599" x2="599" y1="1" y2="99" class="stroke_order_diagram--bounding_box"></line><path id="pathSk2v596cn2gm9" kvg:type="㇜" d="M30.08,17.17c0.29,1.14,0.23,2.57-0.4,3.74C26.95,26,23.68,31.37,19.65,36.18c-0.9,1.07-0.8,2.53,0.35,2.95c3.09,1.11,6.62,2.25,9.12,3.99" transform="matrix(1,0,0,1,496,-4)" class="stroke_order_diagram--existing_path"></path><path id="pathSk2v596cn2gma" kvg:type="㇜" d="M41.8,26.43c0.2,0.82-0.07,2.5-0.5,3.09c-6.8,9.23-15.55,20.11-23.48,28.69c-2.45,2.66-1.27,4.74,1.65,3.84C26.12,60,31,58.12,41.02,54.77" transform="matrix(1,0,0,1,496,-4)" class="stroke_order_diagram--existing_path"></path><path id="pathSk2v596cn2gmb" kvg:type="㇔" d="M38.38,48.38c2.34,2.22,6.04,9.14,6.62,12.6" transform="matrix(1,0,0,1,496,-4)" class="stroke_order_diagram--existing_path"></path><path id="pathSk2v596cn2gmc" kvg:type="㇑" d="M29.89,60.62c0.87,0.87,1.23,2.13,1.23,3.59c0,9.05-0.12,16.62-0.17,22.54c-0.02,1.79-0.03,3.51-0.03,5.17" transform="matrix(1,0,0,1,496,-4)" class="stroke_order_diagram--existing_path"></path><path id="pathSk2v596cn2gmd" kvg:type="㇒" d="M19.87,70.6c0.13,0.86,0.11,2.55-0.13,3.16c-1.57,4.01-5.51,11.73-7.74,15.17" transform="matrix(1,0,0,1,496,-4)" class="stroke_order_diagram--existing_path"></path><path id="kvg:07d05-s6" kvg:type="㇔" d="M40.18,66.04c2.75,2.47,4.85,8.2,5.49,10.44" transform="matrix(1,0,0,1,496,-4)" class="stroke_order_diagram--current_path"></path><path id="pathSk2v596cn2gmf" kvg:type="㇔" d="M40.18,66.04c2.75,2.47,4.85,8.2,5.49,10.44" transform="matrix(1,0,0,1,496,-4)" class="stroke_order_diagram--current_path"></path><circle cx="40.18" cy="66.04" r="8" class="stroke_order_diagram--path_start" transform="matrix(1,0,0,1,496,-4)"></circle><line x1="650" x2="650" y1="1" y2="99" class="stroke_order_diagram--guide_line"></line><line x1="699" x2="699" y1="1" y2="99" class="stroke_order_diagram--bounding_box"></line><path id="pathSk2v596cn2gmi" kvg:type="㇜" d="M30.08,17.17c0.29,1.14,0.23,2.57-0.4,3.74C26.95,26,23.68,31.37,19.65,36.18c-0.9,1.07-0.8,2.53,0.35,2.95c3.09,1.11,6.62,2.25,9.12,3.99" transform="matrix(1,0,0,1,596,-4)" class="stroke_order_diagram--existing_path"></path><path id="pathSk2v596cn2gmj" kvg:type="㇜" d="M41.8,26.43c0.2,0.82-0.07,2.5-0.5,3.09c-6.8,9.23-15.55,20.11-23.48,28.69c-2.45,2.66-1.27,4.74,1.65,3.84C26.12,60,31,58.12,41.02,54.77" transform="matrix(1,0,0,1,596,-4)" class="stroke_order_diagram--existing_path"></path><path id="pathSk2v596cn2gmk" kvg:type="㇔" d="M38.38,48.38c2.34,2.22,6.04,9.14,6.62,12.6" transform="matrix(1,0,0,1,596,-4)" class="stroke_order_diagram--existing_path"></path><path id="pathSk2v596cn2gml" kvg:type="㇑" d="M29.89,60.62c0.87,0.87,1.23,2.13,1.23,3.59c0,9.05-0.12,16.62-0.17,22.54c-0.02,1.79-0.03,3.51-0.03,5.17" transform="matrix(1,0,0,1,596,-4)" class="stroke_order_diagram--existing_path"></path><path id="pathSk2v596cn2gmm" kvg:type="㇒" d="M19.87,70.6c0.13,0.86,0.11,2.55-0.13,3.16c-1.57,4.01-5.51,11.73-7.74,15.17" transform="matrix(1,0,0,1,596,-4)" class="stroke_order_diagram--existing_path"></path><path id="pathSk2v596cn2gmn" kvg:type="㇔" d="M40.18,66.04c2.75,2.47,4.85,8.2,5.49,10.44" transform="matrix(1,0,0,1,596,-4)" class="stroke_order_diagram--existing_path"></path><path id="kvg:07d05-s7" kvg:type="㇐" d="M52.75,36.29c2.12,0.46,4.54,0.48,6.14,0.21c5.84-0.98,18.54-3.45,24.61-4.25c1.53-0.2,3.5-0.26,5,0.18" transform="matrix(1,0,0,1,596,-4)" class="stroke_order_diagram--current_path"></path><path id="pathSk2v596cn2gmp" kvg:type="㇐" d="M52.75,36.29c2.12,0.46,4.54,0.48,6.14,0.21c5.84-0.98,18.54-3.45,24.61-4.25c1.53-0.2,3.5-0.26,5,0.18" transform="matrix(1,0,0,1,596,-4)" class="stroke_order_diagram--current_path"></path><circle cx="52.75" cy="36.29" r="8" class="stroke_order_diagram--path_start" transform="matrix(1,0,0,1,596,-4)"></circle><line x1="750" x2="750" y1="1" y2="99" class="stroke_order_diagram--guide_line"></line><line x1="799" x2="799" y1="1" y2="99" class="stroke_order_diagram--bounding_box"></line><path id="pathSk2v596cn2gms" kvg:type="㇜" d="M30.08,17.17c0.29,1.14,0.23,2.57-0.4,3.74C26.95,26,23.68,31.37,19.65,36.18c-0.9,1.07-0.8,2.53,0.35,2.95c3.09,1.11,6.62,2.25,9.12,3.99" transform="matrix(1,0,0,1,696,-4)" class="stroke_order_diagram--existing_path"></path><path id="pathSk2v596cn2gmt" kvg:type="㇜" d="M41.8,26.43c0.2,0.82-0.07,2.5-0.5,3.09c-6.8,9.23-15.55,20.11-23.48,28.69c-2.45,2.66-1.27,4.74,1.65,3.84C26.12,60,31,58.12,41.02,54.77" transform="matrix(1,0,0,1,696,-4)" class="stroke_order_diagram--existing_path"></path><path id="pathSk2v596cn2gmu" kvg:type="㇔" d="M38.38,48.38c2.34,2.22,6.04,9.14,6.62,12.6" transform="matrix(1,0,0,1,696,-4)" class="stroke_order_diagram--existing_path"></path><path id="pathSk2v596cn2gmv" kvg:type="㇑" d="M29.89,60.62c0.87,0.87,1.23,2.13,1.23,3.59c0,9.05-0.12,16.62-0.17,22.54c-0.02,1.79-0.03,3.51-0.03,5.17" transform="matrix(1,0,0,1,696,-4)" class="stroke_order_diagram--existing_path"></path><path id="pathSk2v596cn2gmw" kvg:type="㇒" d="M19.87,70.6c0.13,0.86,0.11,2.55-0.13,3.16c-1.57,4.01-5.51,11.73-7.74,15.17" transform="matrix(1,0,0,1,696,-4)" class="stroke_order_diagram--existing_path"></path><path id="pathSk2v596cn2gmx" kvg:type="㇔" d="M40.18,66.04c2.75,2.47,4.85,8.2,5.49,10.44" transform="matrix(1,0,0,1,696,-4)" class="stroke_order_diagram--existing_path"></path><path id="pathSk2v596cn2gmy" kvg:type="㇐" d="M52.75,36.29c2.12,0.46,4.54,0.48,6.14,0.21c5.84-0.98,18.54-3.45,24.61-4.25c1.53-0.2,3.5-0.26,5,0.18" transform="matrix(1,0,0,1,696,-4)" class="stroke_order_diagram--existing_path"></path><path id="kvg:07d05-s8" kvg:type="㇑a" d="M69.04,37.5c0.92,0.92,1.41,2.25,1.41,3.74c0,13.44,0.02,22.76,0.02,38.51" transform="matrix(1,0,0,1,696,-4)" class="stroke_order_diagram--current_path"></path><path id="pathSk2v596cn2gn0" kvg:type="㇑a" d="M69.04,37.5c0.92,0.92,1.41,2.25,1.41,3.74c0,13.44,0.02,22.76,0.02,38.51" transform="matrix(1,0,0,1,696,-4)" class="stroke_order_diagram--current_path"></path><circle cx="69.04" cy="37.5" r="8" class="stroke_order_diagram--path_start" transform="matrix(1,0,0,1,696,-4)"></circle><line x1="850" x2="850" y1="1" y2="99" class="stroke_order_diagram--guide_line"></line><line x1="899" x2="899" y1="1" y2="99" class="stroke_order_diagram--bounding_box"></line><path id="pathSk2v596cn2gn3" kvg:type="㇜" d="M30.08,17.17c0.29,1.14,0.23,2.57-0.4,3.74C26.95,26,23.68,31.37,19.65,36.18c-0.9,1.07-0.8,2.53,0.35,2.95c3.09,1.11,6.62,2.25,9.12,3.99" transform="matrix(1,0,0,1,796,-4)" class="stroke_order_diagram--existing_path"></path><path id="pathSk2v596cn2gn4" kvg:type="㇜" d="M41.8,26.43c0.2,0.82-0.07,2.5-0.5,3.09c-6.8,9.23-15.55,20.11-23.48,28.69c-2.45,2.66-1.27,4.74,1.65,3.84C26.12,60,31,58.12,41.02,54.77" transform="matrix(1,0,0,1,796,-4)" class="stroke_order_diagram--existing_path"></path><path id="pathSk2v596cn2gn5" kvg:type="㇔" d="M38.38,48.38c2.34,2.22,6.04,9.14,6.62,12.6" transform="matrix(1,0,0,1,796,-4)" class="stroke_order_diagram--existing_path"></path><path id="pathSk2v596cn2gn6" kvg:type="㇑" d="M29.89,60.62c0.87,0.87,1.23,2.13,1.23,3.59c0,9.05-0.12,16.62-0.17,22.54c-0.02,1.79-0.03,3.51-0.03,5.17" transform="matrix(1,0,0,1,796,-4)" class="stroke_order_diagram--existing_path"></path><path id="pathSk2v596cn2gn7" kvg:type="㇒" d="M19.87,70.6c0.13,0.86,0.11,2.55-0.13,3.16c-1.57,4.01-5.51,11.73-7.74,15.17" transform="matrix(1,0,0,1,796,-4)" class="stroke_order_diagram--existing_path"></path><path id="pathSk2v596cn2gn8" kvg:type="㇔" d="M40.18,66.04c2.75,2.47,4.85,8.2,5.49,10.44" transform="matrix(1,0,0,1,796,-4)" class="stroke_order_diagram--existing_path"></path><path id="pathSk2v596cn2gn9" kvg:type="㇐" d="M52.75,36.29c2.12,0.46,4.54,0.48,6.14,0.21c5.84-0.98,18.54-3.45,24.61-4.25c1.53-0.2,3.5-0.26,5,0.18" transform="matrix(1,0,0,1,796,-4)" class="stroke_order_diagram--existing_path"></path><path id="pathSk2v596cn2gna" kvg:type="㇑a" d="M69.04,37.5c0.92,0.92,1.41,2.25,1.41,3.74c0,13.44,0.02,22.76,0.02,38.51" transform="matrix(1,0,0,1,796,-4)" class="stroke_order_diagram--existing_path"></path><path id="kvg:07d05-s9" kvg:type="㇐" d="M45.5,82.87c2.36,0.82,5.78,0.81,8.15,0.41c11.98-2.03,24.6-4.16,35.86-4.77c2.41-0.13,5.49-0.08,7.74,0.82" transform="matrix(1,0,0,1,796,-4)" class="stroke_order_diagram--current_path"></path><path id="pathSk2v596cn2gnc" kvg:type="㇐" d="M45.5,82.87c2.36,0.82,5.78,0.81,8.15,0.41c11.98-2.03,24.6-4.16,35.86-4.77c2.41-0.13,5.49-0.08,7.74,0.82" transform="matrix(1,0,0,1,796,-4)" class="stroke_order_diagram--current_path"></path><circle cx="45.5" cy="82.87" r="8" class="stroke_order_diagram--path_start" transform="matrix(1,0,0,1,796,-4)"></circle></svg>