<svg style="width: 900px; height: 100px;" viewbox="0 0 900 100"><style>
.stroke_order_diagram--outer_container {
  width: 100%;
  overflow-x: auto;
  overflow-y: hidden;
}

.stroke_order_diagram--guide_line {
  fill: none;
  stroke: #ddd;
  stroke-width: 3;
  stroke-linecap: square;
  stroke-linejoin: square;
  stroke-dasharray:8, 8;
}

.stroke_order_diagram--bounding_box {
  fill: none;
  stroke: #ddd;
  stroke-width: 4;
  stroke-linecap: square;
  stroke-linejoin: square;
}

.stroke_order_diagram--current_path {
  fill: none;
  stroke: #000;
  stroke-width: 6;
  stroke-linecap: round;
  stroke-linejoin: round;
}

.stroke_order_diagram--existing_path {
  fill: none;
  stroke: #aaa;
  stroke-width: 6;
  stroke-linecap: round;
  stroke-linejoin:round;
}

.stroke_order_diagram--path_start {
  fill: rgba(255, 0, 0, 0.7);
  stroke:none
}</style><desc>Created with Snap</desc><defs></defs><line x1="1" x2="899" y1="1" y2="1" class="stroke_order_diagram--bounding_box"></line><line x1="1" x2="1" y1="1" y2="99" class="stroke_order_diagram--bounding_box"></line><line x1="1" x2="899" y1="99" y2="99" class="stroke_order_diagram--bounding_box"></line><line x1="0" x2="900" y1="50" y2="50" class="stroke_order_diagram--guide_line"></line><line x1="50" x2="50" y1="1" y2="99" class="stroke_order_diagram--guide_line"></line><line x1="99" x2="99" y1="1" y2="99" class="stroke_order_diagram--bounding_box"></line><path id="kvg:07d1a-s1" kvg:type="㇜" d="M26.9,16.5c0.31,1.21,0.21,2.42-0.41,3.69c-3.36,6.93-7.24,12.31-11.32,17.04c-0.93,1.87-0.7,2.98,0.69,3.34c3.02,1.34,6.35,3.1,8.95,5.16" transform="matrix(1,0,0,1,-4,-4)" class="stroke_order_diagram--current_path"></path><path id="pathSk2v596cnku5" kvg:type="㇜" d="M26.9,16.5c0.31,1.21,0.21,2.42-0.41,3.69c-3.36,6.93-7.24,12.31-11.32,17.04c-0.93,1.87-0.7,2.98,0.69,3.34c3.02,1.34,6.35,3.1,8.95,5.16" transform="matrix(1,0,0,1,-4,-4)" class="stroke_order_diagram--current_path"></path><circle cx="26.9" cy="16.5" r="8" class="stroke_order_diagram--path_start" transform="matrix(1,0,0,1,-4,-4)"></circle><line x1="150" x2="150" y1="1" y2="99" class="stroke_order_diagram--guide_line"></line><line x1="199" x2="199" y1="1" y2="99" class="stroke_order_diagram--bounding_box"></line><path id="pathSk2v596cnku8" kvg:type="㇜" d="M26.9,16.5c0.31,1.21,0.21,2.42-0.41,3.69c-3.36,6.93-7.24,12.31-11.32,17.04c-0.93,1.87-0.7,2.98,0.69,3.34c3.02,1.34,6.35,3.1,8.95,5.16" transform="matrix(1,0,0,1,96,-4)" class="stroke_order_diagram--existing_path"></path><path id="kvg:07d1a-s2" kvg:type="㇜" d="M37.28,27.19c0.34,1.31,0.22,2.56-0.5,3.69c-5.35,8.44-13.02,18.5-21.03,27.32c-1.38,1.53-0.04,3.95,1.99,3.3c4.99-1.61,13.56-4.63,19.26-6" transform="matrix(1,0,0,1,96,-4)" class="stroke_order_diagram--current_path"></path><path id="pathSk2v596cnkua" kvg:type="㇜" d="M37.28,27.19c0.34,1.31,0.22,2.56-0.5,3.69c-5.35,8.44-13.02,18.5-21.03,27.32c-1.38,1.53-0.04,3.95,1.99,3.3c4.99-1.61,13.56-4.63,19.26-6" transform="matrix(1,0,0,1,96,-4)" class="stroke_order_diagram--current_path"></path><circle cx="37.28" cy="27.19" r="8" class="stroke_order_diagram--path_start" transform="matrix(1,0,0,1,96,-4)"></circle><line x1="250" x2="250" y1="1" y2="99" class="stroke_order_diagram--guide_line"></line><line x1="299" x2="299" y1="1" y2="99" class="stroke_order_diagram--bounding_box"></line><path id="pathSk2v596cnkud" kvg:type="㇜" d="M26.9,16.5c0.31,1.21,0.21,2.42-0.41,3.69c-3.36,6.93-7.24,12.31-11.32,17.04c-0.93,1.87-0.7,2.98,0.69,3.34c3.02,1.34,6.35,3.1,8.95,5.16" transform="matrix(1,0,0,1,196,-4)" class="stroke_order_diagram--existing_path"></path><path id="pathSk2v596cnkue" kvg:type="㇜" d="M37.28,27.19c0.34,1.31,0.22,2.56-0.5,3.69c-5.35,8.44-13.02,18.5-21.03,27.32c-1.38,1.53-0.04,3.95,1.99,3.3c4.99-1.61,13.56-4.63,19.26-6" transform="matrix(1,0,0,1,196,-4)" class="stroke_order_diagram--existing_path"></path><path id="kvg:07d1a-s3" kvg:type="㇔" d="M34.25,48.75c2.38,2.12,5.65,9.21,6.25,12.5" transform="matrix(1,0,0,1,196,-4)" class="stroke_order_diagram--current_path"></path><path id="pathSk2v596cnkug" kvg:type="㇔" d="M34.25,48.75c2.38,2.12,5.65,9.21,6.25,12.5" transform="matrix(1,0,0,1,196,-4)" class="stroke_order_diagram--current_path"></path><circle cx="34.25" cy="48.75" r="8" class="stroke_order_diagram--path_start" transform="matrix(1,0,0,1,196,-4)"></circle><line x1="350" x2="350" y1="1" y2="99" class="stroke_order_diagram--guide_line"></line><line x1="399" x2="399" y1="1" y2="99" class="stroke_order_diagram--bounding_box"></line><path id="pathSk2v596cnkuj" kvg:type="㇜" d="M26.9,16.5c0.31,1.21,0.21,2.42-0.41,3.69c-3.36,6.93-7.24,12.31-11.32,17.04c-0.93,1.87-0.7,2.98,0.69,3.34c3.02,1.34,6.35,3.1,8.95,5.16" transform="matrix(1,0,0,1,296,-4)" class="stroke_order_diagram--existing_path"></path><path id="pathSk2v596cnkuk" kvg:type="㇜" d="M37.28,27.19c0.34,1.31,0.22,2.56-0.5,3.69c-5.35,8.44-13.02,18.5-21.03,27.32c-1.38,1.53-0.04,3.95,1.99,3.3c4.99-1.61,13.56-4.63,19.26-6" transform="matrix(1,0,0,1,296,-4)" class="stroke_order_diagram--existing_path"></path><path id="pathSk2v596cnkul" kvg:type="㇔" d="M34.25,48.75c2.38,2.12,5.65,9.21,6.25,12.5" transform="matrix(1,0,0,1,296,-4)" class="stroke_order_diagram--existing_path"></path><path id="kvg:07d1a-s4" kvg:type="㇑" d="M25.83,61.51c0.83,0.83,1.28,2.48,1.28,4.28c0,7.65,0.16,17.41,0.11,23.84c-0.02,2.15-0.02,3.93-0.02,5.12" transform="matrix(1,0,0,1,296,-4)" class="stroke_order_diagram--current_path"></path><path id="pathSk2v596cnkun" kvg:type="㇑" d="M25.83,61.51c0.83,0.83,1.28,2.48,1.28,4.28c0,7.65,0.16,17.41,0.11,23.84c-0.02,2.15-0.02,3.93-0.02,5.12" transform="matrix(1,0,0,1,296,-4)" class="stroke_order_diagram--current_path"></path><circle cx="25.83" cy="61.51" r="8" class="stroke_order_diagram--path_start" transform="matrix(1,0,0,1,296,-4)"></circle><line x1="450" x2="450" y1="1" y2="99" class="stroke_order_diagram--guide_line"></line><line x1="499" x2="499" y1="1" y2="99" class="stroke_order_diagram--bounding_box"></line><path id="pathSk2v596cnkuq" kvg:type="㇜" d="M26.9,16.5c0.31,1.21,0.21,2.42-0.41,3.69c-3.36,6.93-7.24,12.31-11.32,17.04c-0.93,1.87-0.7,2.98,0.69,3.34c3.02,1.34,6.35,3.1,8.95,5.16" transform="matrix(1,0,0,1,396,-4)" class="stroke_order_diagram--existing_path"></path><path id="pathSk2v596cnkur" kvg:type="㇜" d="M37.28,27.19c0.34,1.31,0.22,2.56-0.5,3.69c-5.35,8.44-13.02,18.5-21.03,27.32c-1.38,1.53-0.04,3.95,1.99,3.3c4.99-1.61,13.56-4.63,19.26-6" transform="matrix(1,0,0,1,396,-4)" class="stroke_order_diagram--existing_path"></path><path id="pathSk2v596cnkus" kvg:type="㇔" d="M34.25,48.75c2.38,2.12,5.65,9.21,6.25,12.5" transform="matrix(1,0,0,1,396,-4)" class="stroke_order_diagram--existing_path"></path><path id="pathSk2v596cnkut" kvg:type="㇑" d="M25.83,61.51c0.83,0.83,1.28,2.48,1.28,4.28c0,7.65,0.16,17.41,0.11,23.84c-0.02,2.15-0.02,3.93-0.02,5.12" transform="matrix(1,0,0,1,396,-4)" class="stroke_order_diagram--existing_path"></path><path id="kvg:07d1a-s5" kvg:type="㇒" d="M17.75,71.5c0.25,0.88,0.08,2.04-0.13,2.6C16,78.5,13.38,84,10.5,87.5" transform="matrix(1,0,0,1,396,-4)" class="stroke_order_diagram--current_path"></path><path id="pathSk2v596cnkuv" kvg:type="㇒" d="M17.75,71.5c0.25,0.88,0.08,2.04-0.13,2.6C16,78.5,13.38,84,10.5,87.5" transform="matrix(1,0,0,1,396,-4)" class="stroke_order_diagram--current_path"></path><circle cx="17.75" cy="71.5" r="8" class="stroke_order_diagram--path_start" transform="matrix(1,0,0,1,396,-4)"></circle><line x1="550" x2="550" y1="1" y2="99" class="stroke_order_diagram--guide_line"></line><line x1="599" x2="599" y1="1" y2="99" class="stroke_order_diagram--bounding_box"></line><path id="pathSk2v596cnkuy" kvg:type="㇜" d="M26.9,16.5c0.31,1.21,0.21,2.42-0.41,3.69c-3.36,6.93-7.24,12.31-11.32,17.04c-0.93,1.87-0.7,2.98,0.69,3.34c3.02,1.34,6.35,3.1,8.95,5.16" transform="matrix(1,0,0,1,496,-4)" class="stroke_order_diagram--existing_path"></path><path id="pathSk2v596cnkuz" kvg:type="㇜" d="M37.28,27.19c0.34,1.31,0.22,2.56-0.5,3.69c-5.35,8.44-13.02,18.5-21.03,27.32c-1.38,1.53-0.04,3.95,1.99,3.3c4.99-1.61,13.56-4.63,19.26-6" transform="matrix(1,0,0,1,496,-4)" class="stroke_order_diagram--existing_path"></path><path id="pathSk2v596cnkv0" kvg:type="㇔" d="M34.25,48.75c2.38,2.12,5.65,9.21,6.25,12.5" transform="matrix(1,0,0,1,496,-4)" class="stroke_order_diagram--existing_path"></path><path id="pathSk2v596cnkv1" kvg:type="㇑" d="M25.83,61.51c0.83,0.83,1.28,2.48,1.28,4.28c0,7.65,0.16,17.41,0.11,23.84c-0.02,2.15-0.02,3.93-0.02,5.12" transform="matrix(1,0,0,1,496,-4)" class="stroke_order_diagram--existing_path"></path><path id="pathSk2v596cnkv2" kvg:type="㇒" d="M17.75,71.5c0.25,0.88,0.08,2.04-0.13,2.6C16,78.5,13.38,84,10.5,87.5" transform="matrix(1,0,0,1,496,-4)" class="stroke_order_diagram--existing_path"></path><path id="kvg:07d1a-s6" kvg:type="㇔" d="M34.75,67.38c2.12,3.19,3.51,7.24,4.25,10.38" transform="matrix(1,0,0,1,496,-4)" class="stroke_order_diagram--current_path"></path><path id="pathSk2v596cnkv4" kvg:type="㇔" d="M34.75,67.38c2.12,3.19,3.51,7.24,4.25,10.38" transform="matrix(1,0,0,1,496,-4)" class="stroke_order_diagram--current_path"></path><circle cx="34.75" cy="67.38" r="8" class="stroke_order_diagram--path_start" transform="matrix(1,0,0,1,496,-4)"></circle><line x1="650" x2="650" y1="1" y2="99" class="stroke_order_diagram--guide_line"></line><line x1="699" x2="699" y1="1" y2="99" class="stroke_order_diagram--bounding_box"></line><path id="pathSk2v596cnkv7" kvg:type="㇜" d="M26.9,16.5c0.31,1.21,0.21,2.42-0.41,3.69c-3.36,6.93-7.24,12.31-11.32,17.04c-0.93,1.87-0.7,2.98,0.69,3.34c3.02,1.34,6.35,3.1,8.95,5.16" transform="matrix(1,0,0,1,596,-4)" class="stroke_order_diagram--existing_path"></path><path id="pathSk2v596cnkv8" kvg:type="㇜" d="M37.28,27.19c0.34,1.31,0.22,2.56-0.5,3.69c-5.35,8.44-13.02,18.5-21.03,27.32c-1.38,1.53-0.04,3.95,1.99,3.3c4.99-1.61,13.56-4.63,19.26-6" transform="matrix(1,0,0,1,596,-4)" class="stroke_order_diagram--existing_path"></path><path id="pathSk2v596cnkv9" kvg:type="㇔" d="M34.25,48.75c2.38,2.12,5.65,9.21,6.25,12.5" transform="matrix(1,0,0,1,596,-4)" class="stroke_order_diagram--existing_path"></path><path id="pathSk2v596cnkva" kvg:type="㇑" d="M25.83,61.51c0.83,0.83,1.28,2.48,1.28,4.28c0,7.65,0.16,17.41,0.11,23.84c-0.02,2.15-0.02,3.93-0.02,5.12" transform="matrix(1,0,0,1,596,-4)" class="stroke_order_diagram--existing_path"></path><path id="pathSk2v596cnkvb" kvg:type="㇒" d="M17.75,71.5c0.25,0.88,0.08,2.04-0.13,2.6C16,78.5,13.38,84,10.5,87.5" transform="matrix(1,0,0,1,596,-4)" class="stroke_order_diagram--existing_path"></path><path id="pathSk2v596cnkvc" kvg:type="㇔" d="M34.75,67.38c2.12,3.19,3.51,7.24,4.25,10.38" transform="matrix(1,0,0,1,596,-4)" class="stroke_order_diagram--existing_path"></path><path id="kvg:07d1a-s7" kvg:type="㇒" d="M55.84,30.05c1.04,1.09,1.12,3.39,0.89,5.26c-1.65,13.88-6.75,36.3-17.59,50.59" transform="matrix(1,0,0,1,596,-4)" class="stroke_order_diagram--current_path"></path><path id="pathSk2v596cnkve" kvg:type="㇒" d="M55.84,30.05c1.04,1.09,1.12,3.39,0.89,5.26c-1.65,13.88-6.75,36.3-17.59,50.59" transform="matrix(1,0,0,1,596,-4)" class="stroke_order_diagram--current_path"></path><circle cx="55.84" cy="30.05" r="8" class="stroke_order_diagram--path_start" transform="matrix(1,0,0,1,596,-4)"></circle><line x1="750" x2="750" y1="1" y2="99" class="stroke_order_diagram--guide_line"></line><line x1="799" x2="799" y1="1" y2="99" class="stroke_order_diagram--bounding_box"></line><path id="pathSk2v596cnkvh" kvg:type="㇜" d="M26.9,16.5c0.31,1.21,0.21,2.42-0.41,3.69c-3.36,6.93-7.24,12.31-11.32,17.04c-0.93,1.87-0.7,2.98,0.69,3.34c3.02,1.34,6.35,3.1,8.95,5.16" transform="matrix(1,0,0,1,696,-4)" class="stroke_order_diagram--existing_path"></path><path id="pathSk2v596cnkvi" kvg:type="㇜" d="M37.28,27.19c0.34,1.31,0.22,2.56-0.5,3.69c-5.35,8.44-13.02,18.5-21.03,27.32c-1.38,1.53-0.04,3.95,1.99,3.3c4.99-1.61,13.56-4.63,19.26-6" transform="matrix(1,0,0,1,696,-4)" class="stroke_order_diagram--existing_path"></path><path id="pathSk2v596cnkvj" kvg:type="㇔" d="M34.25,48.75c2.38,2.12,5.65,9.21,6.25,12.5" transform="matrix(1,0,0,1,696,-4)" class="stroke_order_diagram--existing_path"></path><path id="pathSk2v596cnkvk" kvg:type="㇑" d="M25.83,61.51c0.83,0.83,1.28,2.48,1.28,4.28c0,7.65,0.16,17.41,0.11,23.84c-0.02,2.15-0.02,3.93-0.02,5.12" transform="matrix(1,0,0,1,696,-4)" class="stroke_order_diagram--existing_path"></path><path id="pathSk2v596cnkvl" kvg:type="㇒" d="M17.75,71.5c0.25,0.88,0.08,2.04-0.13,2.6C16,78.5,13.38,84,10.5,87.5" transform="matrix(1,0,0,1,696,-4)" class="stroke_order_diagram--existing_path"></path><path id="pathSk2v596cnkvm" kvg:type="㇔" d="M34.75,67.38c2.12,3.19,3.51,7.24,4.25,10.38" transform="matrix(1,0,0,1,696,-4)" class="stroke_order_diagram--existing_path"></path><path id="pathSk2v596cnkvn" kvg:type="㇒" d="M55.84,30.05c1.04,1.09,1.12,3.39,0.89,5.26c-1.65,13.88-6.75,36.3-17.59,50.59" transform="matrix(1,0,0,1,696,-4)" class="stroke_order_diagram--existing_path"></path><path id="kvg:07d1a-s8" kvg:type="㇋" d="M48,26.5c2.62,0.88,6.25,0.75,8.75,0S73,22,77,20.75s5.05,0.78,3.5,3.75c-14.38,27.5-15.62,23-1,20c2.69-0.55,3.67,1.23,3,3.5c-5.75,19.5-16.75,34.12-34.75,43.5" transform="matrix(1,0,0,1,696,-4)" class="stroke_order_diagram--current_path"></path><path id="pathSk2v596cnkvp" kvg:type="㇋" d="M48,26.5c2.62,0.88,6.25,0.75,8.75,0S73,22,77,20.75s5.05,0.78,3.5,3.75c-14.38,27.5-15.62,23-1,20c2.69-0.55,3.67,1.23,3,3.5c-5.75,19.5-16.75,34.12-34.75,43.5" transform="matrix(1,0,0,1,696,-4)" class="stroke_order_diagram--current_path"></path><circle cx="48" cy="26.5" r="8" class="stroke_order_diagram--path_start" transform="matrix(1,0,0,1,696,-4)"></circle><line x1="850" x2="850" y1="1" y2="99" class="stroke_order_diagram--guide_line"></line><line x1="899" x2="899" y1="1" y2="99" class="stroke_order_diagram--bounding_box"></line><path id="pathSk2v596cnkvs" kvg:type="㇜" d="M26.9,16.5c0.31,1.21,0.21,2.42-0.41,3.69c-3.36,6.93-7.24,12.31-11.32,17.04c-0.93,1.87-0.7,2.98,0.69,3.34c3.02,1.34,6.35,3.1,8.95,5.16" transform="matrix(1,0,0,1,796,-4)" class="stroke_order_diagram--existing_path"></path><path id="pathSk2v596cnkvt" kvg:type="㇜" d="M37.28,27.19c0.34,1.31,0.22,2.56-0.5,3.69c-5.35,8.44-13.02,18.5-21.03,27.32c-1.38,1.53-0.04,3.95,1.99,3.3c4.99-1.61,13.56-4.63,19.26-6" transform="matrix(1,0,0,1,796,-4)" class="stroke_order_diagram--existing_path"></path><path id="pathSk2v596cnkvu" kvg:type="㇔" d="M34.25,48.75c2.38,2.12,5.65,9.21,6.25,12.5" transform="matrix(1,0,0,1,796,-4)" class="stroke_order_diagram--existing_path"></path><path id="pathSk2v596cnkvv" kvg:type="㇑" d="M25.83,61.51c0.83,0.83,1.28,2.48,1.28,4.28c0,7.65,0.16,17.41,0.11,23.84c-0.02,2.15-0.02,3.93-0.02,5.12" transform="matrix(1,0,0,1,796,-4)" class="stroke_order_diagram--existing_path"></path><path id="pathSk2v596cnkvw" kvg:type="㇒" d="M17.75,71.5c0.25,0.88,0.08,2.04-0.13,2.6C16,78.5,13.38,84,10.5,87.5" transform="matrix(1,0,0,1,796,-4)" class="stroke_order_diagram--existing_path"></path><path id="pathSk2v596cnkvx" kvg:type="㇔" d="M34.75,67.38c2.12,3.19,3.51,7.24,4.25,10.38" transform="matrix(1,0,0,1,796,-4)" class="stroke_order_diagram--existing_path"></path><path id="pathSk2v596cnkvy" kvg:type="㇒" d="M55.84,30.05c1.04,1.09,1.12,3.39,0.89,5.26c-1.65,13.88-6.75,36.3-17.59,50.59" transform="matrix(1,0,0,1,796,-4)" class="stroke_order_diagram--existing_path"></path><path id="pathSk2v596cnkvz" kvg:type="㇋" d="M48,26.5c2.62,0.88,6.25,0.75,8.75,0S73,22,77,20.75s5.05,0.78,3.5,3.75c-14.38,27.5-15.62,23-1,20c2.69-0.55,3.67,1.23,3,3.5c-5.75,19.5-16.75,34.12-34.75,43.5" transform="matrix(1,0,0,1,796,-4)" class="stroke_order_diagram--existing_path"></path><path id="kvg:07d1a-s9" kvg:type="㇏" d="M54.75,53.75c7,6,28.5,30.25,35.55,34.54c2.25,1.37,3.7,2.47,5.7,2.96" transform="matrix(1,0,0,1,796,-4)" class="stroke_order_diagram--current_path"></path><path id="pathSk2v596cnkw1" kvg:type="㇏" d="M54.75,53.75c7,6,28.5,30.25,35.55,34.54c2.25,1.37,3.7,2.47,5.7,2.96" transform="matrix(1,0,0,1,796,-4)" class="stroke_order_diagram--current_path"></path><circle cx="54.75" cy="53.75" r="8" class="stroke_order_diagram--path_start" transform="matrix(1,0,0,1,796,-4)"></circle></svg>