<svg style="width: 1200px; height: 100px;" viewbox="0 0 1200 100"><style>
.stroke_order_diagram--outer_container {
  width: 100%;
  overflow-x: auto;
  overflow-y: hidden;
}

.stroke_order_diagram--guide_line {
  fill: none;
  stroke: #ddd;
  stroke-width: 3;
  stroke-linecap: square;
  stroke-linejoin: square;
  stroke-dasharray:8, 8;
}

.stroke_order_diagram--bounding_box {
  fill: none;
  stroke: #ddd;
  stroke-width: 4;
  stroke-linecap: square;
  stroke-linejoin: square;
}

.stroke_order_diagram--current_path {
  fill: none;
  stroke: #000;
  stroke-width: 6;
  stroke-linecap: round;
  stroke-linejoin: round;
}

.stroke_order_diagram--existing_path {
  fill: none;
  stroke: #aaa;
  stroke-width: 6;
  stroke-linecap: round;
  stroke-linejoin:round;
}

.stroke_order_diagram--path_start {
  fill: rgba(255, 0, 0, 0.7);
  stroke:none
}</style><desc>Created with Snap</desc><defs></defs><line x1="1" x2="1199" y1="1" y2="1" class="stroke_order_diagram--bounding_box"></line><line x1="1" x2="1" y1="1" y2="99" class="stroke_order_diagram--bounding_box"></line><line x1="1" x2="1199" y1="99" y2="99" class="stroke_order_diagram--bounding_box"></line><line x1="0" x2="1200" y1="50" y2="50" class="stroke_order_diagram--guide_line"></line><line x1="50" x2="50" y1="1" y2="99" class="stroke_order_diagram--guide_line"></line><line x1="99" x2="99" y1="1" y2="99" class="stroke_order_diagram--bounding_box"></line><path id="kvg:07d2b-s1" kvg:type="㇑a" d="M36.13,13.32c1.09,1.09,1.41,2.43,1.41,3.92c0,1-0.04,15.76-0.04,21.01" transform="matrix(1,0,0,1,-4,-4)" class="stroke_order_diagram--current_path"></path><path id="pathSk2v596cn3u8k" kvg:type="㇑a" d="M36.13,13.32c1.09,1.09,1.41,2.43,1.41,3.92c0,1-0.04,15.76-0.04,21.01" transform="matrix(1,0,0,1,-4,-4)" class="stroke_order_diagram--current_path"></path><circle cx="36.13" cy="13.32" r="8" class="stroke_order_diagram--path_start" transform="matrix(1,0,0,1,-4,-4)"></circle><line x1="150" x2="150" y1="1" y2="99" class="stroke_order_diagram--guide_line"></line><line x1="199" x2="199" y1="1" y2="99" class="stroke_order_diagram--bounding_box"></line><path id="pathSk2v596cn3u8n" kvg:type="㇑a" d="M36.13,13.32c1.09,1.09,1.41,2.43,1.41,3.92c0,1-0.04,15.76-0.04,21.01" transform="matrix(1,0,0,1,96,-4)" class="stroke_order_diagram--existing_path"></path><path id="kvg:07d2b-s2" kvg:type="㇐b" d="M38.58,26.08c4.37-0.68,6.32-1.12,10.26-1.77c1.03-0.17,2.12-0.5,3.14-0.16" transform="matrix(1,0,0,1,96,-4)" class="stroke_order_diagram--current_path"></path><path id="pathSk2v596cn3u8p" kvg:type="㇐b" d="M38.58,26.08c4.37-0.68,6.32-1.12,10.26-1.77c1.03-0.17,2.12-0.5,3.14-0.16" transform="matrix(1,0,0,1,96,-4)" class="stroke_order_diagram--current_path"></path><circle cx="38.58" cy="26.08" r="8" class="stroke_order_diagram--path_start" transform="matrix(1,0,0,1,96,-4)"></circle><line x1="250" x2="250" y1="1" y2="99" class="stroke_order_diagram--guide_line"></line><line x1="299" x2="299" y1="1" y2="99" class="stroke_order_diagram--bounding_box"></line><path id="pathSk2v596cn3u8s" kvg:type="㇑a" d="M36.13,13.32c1.09,1.09,1.41,2.43,1.41,3.92c0,1-0.04,15.76-0.04,21.01" transform="matrix(1,0,0,1,196,-4)" class="stroke_order_diagram--existing_path"></path><path id="pathSk2v596cn3u8t" kvg:type="㇐b" d="M38.58,26.08c4.37-0.68,6.32-1.12,10.26-1.77c1.03-0.17,2.12-0.5,3.14-0.16" transform="matrix(1,0,0,1,196,-4)" class="stroke_order_diagram--existing_path"></path><path id="kvg:07d2b-s3" kvg:type="㇑a" d="M23.02,24.31c0.96,0.96,1.41,2.19,1.41,3.92c0,5.36,0.03,10.64,0.03,15.08" transform="matrix(1,0,0,1,196,-4)" class="stroke_order_diagram--current_path"></path><path id="pathSk2v596cn3u8v" kvg:type="㇑a" d="M23.02,24.31c0.96,0.96,1.41,2.19,1.41,3.92c0,5.36,0.03,10.64,0.03,15.08" transform="matrix(1,0,0,1,196,-4)" class="stroke_order_diagram--current_path"></path><circle cx="23.02" cy="24.31" r="8" class="stroke_order_diagram--path_start" transform="matrix(1,0,0,1,196,-4)"></circle><line x1="350" x2="350" y1="1" y2="99" class="stroke_order_diagram--guide_line"></line><line x1="399" x2="399" y1="1" y2="99" class="stroke_order_diagram--bounding_box"></line><path id="pathSk2v596cn3u8y" kvg:type="㇑a" d="M36.13,13.32c1.09,1.09,1.41,2.43,1.41,3.92c0,1-0.04,15.76-0.04,21.01" transform="matrix(1,0,0,1,296,-4)" class="stroke_order_diagram--existing_path"></path><path id="pathSk2v596cn3u8z" kvg:type="㇐b" d="M38.58,26.08c4.37-0.68,6.32-1.12,10.26-1.77c1.03-0.17,2.12-0.5,3.14-0.16" transform="matrix(1,0,0,1,296,-4)" class="stroke_order_diagram--existing_path"></path><path id="pathSk2v596cn3u90" kvg:type="㇑a" d="M23.02,24.31c0.96,0.96,1.41,2.19,1.41,3.92c0,5.36,0.03,10.64,0.03,15.08" transform="matrix(1,0,0,1,296,-4)" class="stroke_order_diagram--existing_path"></path><path id="kvg:07d2b-s4" kvg:type="㇀/㇐" d="M14,46.57c1.03,1.03,2.48,0.96,3.59,0.52c8.94-3.54,18.54-7.22,33.43-13.09" transform="matrix(1,0,0,1,296,-4)" class="stroke_order_diagram--current_path"></path><path id="pathSk2v596cn3u92" kvg:type="㇀/㇐" d="M14,46.57c1.03,1.03,2.48,0.96,3.59,0.52c8.94-3.54,18.54-7.22,33.43-13.09" transform="matrix(1,0,0,1,296,-4)" class="stroke_order_diagram--current_path"></path><circle cx="14" cy="46.57" r="8" class="stroke_order_diagram--path_start" transform="matrix(1,0,0,1,296,-4)"></circle><line x1="450" x2="450" y1="1" y2="99" class="stroke_order_diagram--guide_line"></line><line x1="499" x2="499" y1="1" y2="99" class="stroke_order_diagram--bounding_box"></line><path id="pathSk2v596cn3u95" kvg:type="㇑a" d="M36.13,13.32c1.09,1.09,1.41,2.43,1.41,3.92c0,1-0.04,15.76-0.04,21.01" transform="matrix(1,0,0,1,396,-4)" class="stroke_order_diagram--existing_path"></path><path id="pathSk2v596cn3u96" kvg:type="㇐b" d="M38.58,26.08c4.37-0.68,6.32-1.12,10.26-1.77c1.03-0.17,2.12-0.5,3.14-0.16" transform="matrix(1,0,0,1,396,-4)" class="stroke_order_diagram--existing_path"></path><path id="pathSk2v596cn3u97" kvg:type="㇑a" d="M23.02,24.31c0.96,0.96,1.41,2.19,1.41,3.92c0,5.36,0.03,10.64,0.03,15.08" transform="matrix(1,0,0,1,396,-4)" class="stroke_order_diagram--existing_path"></path><path id="pathSk2v596cn3u98" kvg:type="㇀/㇐" d="M14,46.57c1.03,1.03,2.48,0.96,3.59,0.52c8.94-3.54,18.54-7.22,33.43-13.09" transform="matrix(1,0,0,1,396,-4)" class="stroke_order_diagram--existing_path"></path><path id="kvg:07d2b-s5" kvg:type="㇒" d="M85.44,13.98c0,0.9-0.81,2.25-1.35,2.75c-3.26,2.96-9.09,6.4-16.88,9.57" transform="matrix(1,0,0,1,396,-4)" class="stroke_order_diagram--current_path"></path><path id="pathSk2v596cn3u9a" kvg:type="㇒" d="M85.44,13.98c0,0.9-0.81,2.25-1.35,2.75c-3.26,2.96-9.09,6.4-16.88,9.57" transform="matrix(1,0,0,1,396,-4)" class="stroke_order_diagram--current_path"></path><circle cx="85.44" cy="13.98" r="8" class="stroke_order_diagram--path_start" transform="matrix(1,0,0,1,396,-4)"></circle><line x1="550" x2="550" y1="1" y2="99" class="stroke_order_diagram--guide_line"></line><line x1="599" x2="599" y1="1" y2="99" class="stroke_order_diagram--bounding_box"></line><path id="pathSk2v596cn3u9d" kvg:type="㇑a" d="M36.13,13.32c1.09,1.09,1.41,2.43,1.41,3.92c0,1-0.04,15.76-0.04,21.01" transform="matrix(1,0,0,1,496,-4)" class="stroke_order_diagram--existing_path"></path><path id="pathSk2v596cn3u9e" kvg:type="㇐b" d="M38.58,26.08c4.37-0.68,6.32-1.12,10.26-1.77c1.03-0.17,2.12-0.5,3.14-0.16" transform="matrix(1,0,0,1,496,-4)" class="stroke_order_diagram--existing_path"></path><path id="pathSk2v596cn3u9f" kvg:type="㇑a" d="M23.02,24.31c0.96,0.96,1.41,2.19,1.41,3.92c0,5.36,0.03,10.64,0.03,15.08" transform="matrix(1,0,0,1,496,-4)" class="stroke_order_diagram--existing_path"></path><path id="pathSk2v596cn3u9g" kvg:type="㇀/㇐" d="M14,46.57c1.03,1.03,2.48,0.96,3.59,0.52c8.94-3.54,18.54-7.22,33.43-13.09" transform="matrix(1,0,0,1,496,-4)" class="stroke_order_diagram--existing_path"></path><path id="pathSk2v596cn3u9h" kvg:type="㇒" d="M85.44,13.98c0,0.9-0.81,2.25-1.35,2.75c-3.26,2.96-9.09,6.4-16.88,9.57" transform="matrix(1,0,0,1,496,-4)" class="stroke_order_diagram--existing_path"></path><path id="kvg:07d2b-s6" kvg:type="㇟" d="M63.06,11.71c0.8,0.8,1.22,2.16,1.22,3.49c0,1.59-0.03,7.2-0.03,16.17c0,7.1,1.25,8.76,14.05,8.76c11.45,0,12.95-1.64,12.95-8.84" transform="matrix(1,0,0,1,496,-4)" class="stroke_order_diagram--current_path"></path><path id="pathSk2v596cn3u9j" kvg:type="㇟" d="M63.06,11.71c0.8,0.8,1.22,2.16,1.22,3.49c0,1.59-0.03,7.2-0.03,16.17c0,7.1,1.25,8.76,14.05,8.76c11.45,0,12.95-1.64,12.95-8.84" transform="matrix(1,0,0,1,496,-4)" class="stroke_order_diagram--current_path"></path><circle cx="63.06" cy="11.71" r="8" class="stroke_order_diagram--path_start" transform="matrix(1,0,0,1,496,-4)"></circle><line x1="650" x2="650" y1="1" y2="99" class="stroke_order_diagram--guide_line"></line><line x1="699" x2="699" y1="1" y2="99" class="stroke_order_diagram--bounding_box"></line><path id="pathSk2v596cn3u9m" kvg:type="㇑a" d="M36.13,13.32c1.09,1.09,1.41,2.43,1.41,3.92c0,1-0.04,15.76-0.04,21.01" transform="matrix(1,0,0,1,596,-4)" class="stroke_order_diagram--existing_path"></path><path id="pathSk2v596cn3u9n" kvg:type="㇐b" d="M38.58,26.08c4.37-0.68,6.32-1.12,10.26-1.77c1.03-0.17,2.12-0.5,3.14-0.16" transform="matrix(1,0,0,1,596,-4)" class="stroke_order_diagram--existing_path"></path><path id="pathSk2v596cn3u9o" kvg:type="㇑a" d="M23.02,24.31c0.96,0.96,1.41,2.19,1.41,3.92c0,5.36,0.03,10.64,0.03,15.08" transform="matrix(1,0,0,1,596,-4)" class="stroke_order_diagram--existing_path"></path><path id="pathSk2v596cn3u9p" kvg:type="㇀/㇐" d="M14,46.57c1.03,1.03,2.48,0.96,3.59,0.52c8.94-3.54,18.54-7.22,33.43-13.09" transform="matrix(1,0,0,1,596,-4)" class="stroke_order_diagram--existing_path"></path><path id="pathSk2v596cn3u9q" kvg:type="㇒" d="M85.44,13.98c0,0.9-0.81,2.25-1.35,2.75c-3.26,2.96-9.09,6.4-16.88,9.57" transform="matrix(1,0,0,1,596,-4)" class="stroke_order_diagram--existing_path"></path><path id="pathSk2v596cn3u9r" kvg:type="㇟" d="M63.06,11.71c0.8,0.8,1.22,2.16,1.22,3.49c0,1.59-0.03,7.2-0.03,16.17c0,7.1,1.25,8.76,14.05,8.76c11.45,0,12.95-1.64,12.95-8.84" transform="matrix(1,0,0,1,596,-4)" class="stroke_order_diagram--existing_path"></path><path id="kvg:07d2b-s7" kvg:type="㇜" d="M52.5,39.5c0.25,1.38-0.09,2.47-1.5,3.75c-2.88,2.62-5.75,5-10.75,8.5c-1.02,0.72-0.74,2.47,0.25,2.75c3.5,1,6,2.5,10.25,5.25" transform="matrix(1,0,0,1,596,-4)" class="stroke_order_diagram--current_path"></path><path id="pathSk2v596cn3u9t" kvg:type="㇜" d="M52.5,39.5c0.25,1.38-0.09,2.47-1.5,3.75c-2.88,2.62-5.75,5-10.75,8.5c-1.02,0.72-0.74,2.47,0.25,2.75c3.5,1,6,2.5,10.25,5.25" transform="matrix(1,0,0,1,596,-4)" class="stroke_order_diagram--current_path"></path><circle cx="52.5" cy="39.5" r="8" class="stroke_order_diagram--path_start" transform="matrix(1,0,0,1,596,-4)"></circle><line x1="750" x2="750" y1="1" y2="99" class="stroke_order_diagram--guide_line"></line><line x1="799" x2="799" y1="1" y2="99" class="stroke_order_diagram--bounding_box"></line><path id="pathSk2v596cn3u9w" kvg:type="㇑a" d="M36.13,13.32c1.09,1.09,1.41,2.43,1.41,3.92c0,1-0.04,15.76-0.04,21.01" transform="matrix(1,0,0,1,696,-4)" class="stroke_order_diagram--existing_path"></path><path id="pathSk2v596cn3u9x" kvg:type="㇐b" d="M38.58,26.08c4.37-0.68,6.32-1.12,10.26-1.77c1.03-0.17,2.12-0.5,3.14-0.16" transform="matrix(1,0,0,1,696,-4)" class="stroke_order_diagram--existing_path"></path><path id="pathSk2v596cn3u9y" kvg:type="㇑a" d="M23.02,24.31c0.96,0.96,1.41,2.19,1.41,3.92c0,5.36,0.03,10.64,0.03,15.08" transform="matrix(1,0,0,1,696,-4)" class="stroke_order_diagram--existing_path"></path><path id="pathSk2v596cn3u9z" kvg:type="㇀/㇐" d="M14,46.57c1.03,1.03,2.48,0.96,3.59,0.52c8.94-3.54,18.54-7.22,33.43-13.09" transform="matrix(1,0,0,1,696,-4)" class="stroke_order_diagram--existing_path"></path><path id="pathSk2v596cn3ua0" kvg:type="㇒" d="M85.44,13.98c0,0.9-0.81,2.25-1.35,2.75c-3.26,2.96-9.09,6.4-16.88,9.57" transform="matrix(1,0,0,1,696,-4)" class="stroke_order_diagram--existing_path"></path><path id="pathSk2v596cn3ua1" kvg:type="㇟" d="M63.06,11.71c0.8,0.8,1.22,2.16,1.22,3.49c0,1.59-0.03,7.2-0.03,16.17c0,7.1,1.25,8.76,14.05,8.76c11.45,0,12.95-1.64,12.95-8.84" transform="matrix(1,0,0,1,696,-4)" class="stroke_order_diagram--existing_path"></path><path id="pathSk2v596cn3ua2" kvg:type="㇜" d="M52.5,39.5c0.25,1.38-0.09,2.47-1.5,3.75c-2.88,2.62-5.75,5-10.75,8.5c-1.02,0.72-0.74,2.47,0.25,2.75c3.5,1,6,2.5,10.25,5.25" transform="matrix(1,0,0,1,696,-4)" class="stroke_order_diagram--existing_path"></path><path id="kvg:07d2b-s8" kvg:type="㇜" d="M65.75,46.5c0.12,1.62-0.25,2.75-1.5,3.75c-10.31,8.25-18.25,13-29.75,20c-1.97,1.2-1.54,2.31,0.5,2c10-1.5,25.62-3.88,37.62-5.88" transform="matrix(1,0,0,1,696,-4)" class="stroke_order_diagram--current_path"></path><path id="pathSk2v596cn3ua4" kvg:type="㇜" d="M65.75,46.5c0.12,1.62-0.25,2.75-1.5,3.75c-10.31,8.25-18.25,13-29.75,20c-1.97,1.2-1.54,2.31,0.5,2c10-1.5,25.62-3.88,37.62-5.88" transform="matrix(1,0,0,1,696,-4)" class="stroke_order_diagram--current_path"></path><circle cx="65.75" cy="46.5" r="8" class="stroke_order_diagram--path_start" transform="matrix(1,0,0,1,696,-4)"></circle><line x1="850" x2="850" y1="1" y2="99" class="stroke_order_diagram--guide_line"></line><line x1="899" x2="899" y1="1" y2="99" class="stroke_order_diagram--bounding_box"></line><path id="pathSk2v596cn3ua7" kvg:type="㇑a" d="M36.13,13.32c1.09,1.09,1.41,2.43,1.41,3.92c0,1-0.04,15.76-0.04,21.01" transform="matrix(1,0,0,1,796,-4)" class="stroke_order_diagram--existing_path"></path><path id="pathSk2v596cn3ua8" kvg:type="㇐b" d="M38.58,26.08c4.37-0.68,6.32-1.12,10.26-1.77c1.03-0.17,2.12-0.5,3.14-0.16" transform="matrix(1,0,0,1,796,-4)" class="stroke_order_diagram--existing_path"></path><path id="pathSk2v596cn3ua9" kvg:type="㇑a" d="M23.02,24.31c0.96,0.96,1.41,2.19,1.41,3.92c0,5.36,0.03,10.64,0.03,15.08" transform="matrix(1,0,0,1,796,-4)" class="stroke_order_diagram--existing_path"></path><path id="pathSk2v596cn3uaa" kvg:type="㇀/㇐" d="M14,46.57c1.03,1.03,2.48,0.96,3.59,0.52c8.94-3.54,18.54-7.22,33.43-13.09" transform="matrix(1,0,0,1,796,-4)" class="stroke_order_diagram--existing_path"></path><path id="pathSk2v596cn3uab" kvg:type="㇒" d="M85.44,13.98c0,0.9-0.81,2.25-1.35,2.75c-3.26,2.96-9.09,6.4-16.88,9.57" transform="matrix(1,0,0,1,796,-4)" class="stroke_order_diagram--existing_path"></path><path id="pathSk2v596cn3uac" kvg:type="㇟" d="M63.06,11.71c0.8,0.8,1.22,2.16,1.22,3.49c0,1.59-0.03,7.2-0.03,16.17c0,7.1,1.25,8.76,14.05,8.76c11.45,0,12.95-1.64,12.95-8.84" transform="matrix(1,0,0,1,796,-4)" class="stroke_order_diagram--existing_path"></path><path id="pathSk2v596cn3uad" kvg:type="㇜" d="M52.5,39.5c0.25,1.38-0.09,2.47-1.5,3.75c-2.88,2.62-5.75,5-10.75,8.5c-1.02,0.72-0.74,2.47,0.25,2.75c3.5,1,6,2.5,10.25,5.25" transform="matrix(1,0,0,1,796,-4)" class="stroke_order_diagram--existing_path"></path><path id="pathSk2v596cn3uae" kvg:type="㇜" d="M65.75,46.5c0.12,1.62-0.25,2.75-1.5,3.75c-10.31,8.25-18.25,13-29.75,20c-1.97,1.2-1.54,2.31,0.5,2c10-1.5,25.62-3.88,37.62-5.88" transform="matrix(1,0,0,1,796,-4)" class="stroke_order_diagram--existing_path"></path><path id="kvg:07d2b-s9" kvg:type="㇔" d="M69.25,61.25c3.44,2.21,8.89,9.07,9.75,12.5" transform="matrix(1,0,0,1,796,-4)" class="stroke_order_diagram--current_path"></path><path id="pathSk2v596cn3uag" kvg:type="㇔" d="M69.25,61.25c3.44,2.21,8.89,9.07,9.75,12.5" transform="matrix(1,0,0,1,796,-4)" class="stroke_order_diagram--current_path"></path><circle cx="69.25" cy="61.25" r="8" class="stroke_order_diagram--path_start" transform="matrix(1,0,0,1,796,-4)"></circle><line x1="950" x2="950" y1="1" y2="99" class="stroke_order_diagram--guide_line"></line><line x1="999" x2="999" y1="1" y2="99" class="stroke_order_diagram--bounding_box"></line><path id="pathSk2v596cn3uaj" kvg:type="㇑a" d="M36.13,13.32c1.09,1.09,1.41,2.43,1.41,3.92c0,1-0.04,15.76-0.04,21.01" transform="matrix(1,0,0,1,896,-4)" class="stroke_order_diagram--existing_path"></path><path id="pathSk2v596cn3uak" kvg:type="㇐b" d="M38.58,26.08c4.37-0.68,6.32-1.12,10.26-1.77c1.03-0.17,2.12-0.5,3.14-0.16" transform="matrix(1,0,0,1,896,-4)" class="stroke_order_diagram--existing_path"></path><path id="pathSk2v596cn3ual" kvg:type="㇑a" d="M23.02,24.31c0.96,0.96,1.41,2.19,1.41,3.92c0,5.36,0.03,10.64,0.03,15.08" transform="matrix(1,0,0,1,896,-4)" class="stroke_order_diagram--existing_path"></path><path id="pathSk2v596cn3uam" kvg:type="㇀/㇐" d="M14,46.57c1.03,1.03,2.48,0.96,3.59,0.52c8.94-3.54,18.54-7.22,33.43-13.09" transform="matrix(1,0,0,1,896,-4)" class="stroke_order_diagram--existing_path"></path><path id="pathSk2v596cn3uan" kvg:type="㇒" d="M85.44,13.98c0,0.9-0.81,2.25-1.35,2.75c-3.26,2.96-9.09,6.4-16.88,9.57" transform="matrix(1,0,0,1,896,-4)" class="stroke_order_diagram--existing_path"></path><path id="pathSk2v596cn3uao" kvg:type="㇟" d="M63.06,11.71c0.8,0.8,1.22,2.16,1.22,3.49c0,1.59-0.03,7.2-0.03,16.17c0,7.1,1.25,8.76,14.05,8.76c11.45,0,12.95-1.64,12.95-8.84" transform="matrix(1,0,0,1,896,-4)" class="stroke_order_diagram--existing_path"></path><path id="pathSk2v596cn3uap" kvg:type="㇜" d="M52.5,39.5c0.25,1.38-0.09,2.47-1.5,3.75c-2.88,2.62-5.75,5-10.75,8.5c-1.02,0.72-0.74,2.47,0.25,2.75c3.5,1,6,2.5,10.25,5.25" transform="matrix(1,0,0,1,896,-4)" class="stroke_order_diagram--existing_path"></path><path id="pathSk2v596cn3uaq" kvg:type="㇜" d="M65.75,46.5c0.12,1.62-0.25,2.75-1.5,3.75c-10.31,8.25-18.25,13-29.75,20c-1.97,1.2-1.54,2.31,0.5,2c10-1.5,25.62-3.88,37.62-5.88" transform="matrix(1,0,0,1,896,-4)" class="stroke_order_diagram--existing_path"></path><path id="pathSk2v596cn3uar" kvg:type="㇔" d="M69.25,61.25c3.44,2.21,8.89,9.07,9.75,12.5" transform="matrix(1,0,0,1,896,-4)" class="stroke_order_diagram--existing_path"></path><path id="kvg:07d2b-s10" kvg:type="㇑" d="M53.73,73.25c1.01,1.01,1.3,2.38,1.3,4.54c0,4.56,0.04,10.08,0.04,15.45c0,1.83-0.06,3.54-0.06,5" transform="matrix(1,0,0,1,896,-4)" class="stroke_order_diagram--current_path"></path><path id="pathSk2v596cn3uat" kvg:type="㇑" d="M53.73,73.25c1.01,1.01,1.3,2.38,1.3,4.54c0,4.56,0.04,10.08,0.04,15.45c0,1.83-0.06,3.54-0.06,5" transform="matrix(1,0,0,1,896,-4)" class="stroke_order_diagram--current_path"></path><circle cx="53.73" cy="73.25" r="8" class="stroke_order_diagram--path_start" transform="matrix(1,0,0,1,896,-4)"></circle><line x1="1050" x2="1050" y1="1" y2="99" class="stroke_order_diagram--guide_line"></line><line x1="1099" x2="1099" y1="1" y2="99" class="stroke_order_diagram--bounding_box"></line><path id="pathSk2v596cn3uaw" kvg:type="㇑a" d="M36.13,13.32c1.09,1.09,1.41,2.43,1.41,3.92c0,1-0.04,15.76-0.04,21.01" transform="matrix(1,0,0,1,996,-4)" class="stroke_order_diagram--existing_path"></path><path id="pathSk2v596cn3uax" kvg:type="㇐b" d="M38.58,26.08c4.37-0.68,6.32-1.12,10.26-1.77c1.03-0.17,2.12-0.5,3.14-0.16" transform="matrix(1,0,0,1,996,-4)" class="stroke_order_diagram--existing_path"></path><path id="pathSk2v596cn3uay" kvg:type="㇑a" d="M23.02,24.31c0.96,0.96,1.41,2.19,1.41,3.92c0,5.36,0.03,10.64,0.03,15.08" transform="matrix(1,0,0,1,996,-4)" class="stroke_order_diagram--existing_path"></path><path id="pathSk2v596cn3uaz" kvg:type="㇀/㇐" d="M14,46.57c1.03,1.03,2.48,0.96,3.59,0.52c8.94-3.54,18.54-7.22,33.43-13.09" transform="matrix(1,0,0,1,996,-4)" class="stroke_order_diagram--existing_path"></path><path id="pathSk2v596cn3ub0" kvg:type="㇒" d="M85.44,13.98c0,0.9-0.81,2.25-1.35,2.75c-3.26,2.96-9.09,6.4-16.88,9.57" transform="matrix(1,0,0,1,996,-4)" class="stroke_order_diagram--existing_path"></path><path id="pathSk2v596cn3ub1" kvg:type="㇟" d="M63.06,11.71c0.8,0.8,1.22,2.16,1.22,3.49c0,1.59-0.03,7.2-0.03,16.17c0,7.1,1.25,8.76,14.05,8.76c11.45,0,12.95-1.64,12.95-8.84" transform="matrix(1,0,0,1,996,-4)" class="stroke_order_diagram--existing_path"></path><path id="pathSk2v596cn3ub2" kvg:type="㇜" d="M52.5,39.5c0.25,1.38-0.09,2.47-1.5,3.75c-2.88,2.62-5.75,5-10.75,8.5c-1.02,0.72-0.74,2.47,0.25,2.75c3.5,1,6,2.5,10.25,5.25" transform="matrix(1,0,0,1,996,-4)" class="stroke_order_diagram--existing_path"></path><path id="pathSk2v596cn3ub3" kvg:type="㇜" d="M65.75,46.5c0.12,1.62-0.25,2.75-1.5,3.75c-10.31,8.25-18.25,13-29.75,20c-1.97,1.2-1.54,2.31,0.5,2c10-1.5,25.62-3.88,37.62-5.88" transform="matrix(1,0,0,1,996,-4)" class="stroke_order_diagram--existing_path"></path><path id="pathSk2v596cn3ub4" kvg:type="㇔" d="M69.25,61.25c3.44,2.21,8.89,9.07,9.75,12.5" transform="matrix(1,0,0,1,996,-4)" class="stroke_order_diagram--existing_path"></path><path id="pathSk2v596cn3ub5" kvg:type="㇑" d="M53.73,73.25c1.01,1.01,1.3,2.38,1.3,4.54c0,4.56,0.04,10.08,0.04,15.45c0,1.83-0.06,3.54-0.06,5" transform="matrix(1,0,0,1,996,-4)" class="stroke_order_diagram--existing_path"></path><path id="kvg:07d2b-s11" kvg:type="㇒" d="M39.46,81.75c0.16,1.25-0.21,2-1.31,2.89c-3.69,3-12.1,8.59-17.4,11.11" transform="matrix(1,0,0,1,996,-4)" class="stroke_order_diagram--current_path"></path><path id="pathSk2v596cn3ub7" kvg:type="㇒" d="M39.46,81.75c0.16,1.25-0.21,2-1.31,2.89c-3.69,3-12.1,8.59-17.4,11.11" transform="matrix(1,0,0,1,996,-4)" class="stroke_order_diagram--current_path"></path><circle cx="39.46" cy="81.75" r="8" class="stroke_order_diagram--path_start" transform="matrix(1,0,0,1,996,-4)"></circle><line x1="1150" x2="1150" y1="1" y2="99" class="stroke_order_diagram--guide_line"></line><line x1="1199" x2="1199" y1="1" y2="99" class="stroke_order_diagram--bounding_box"></line><path id="pathSk2v596cn3uba" kvg:type="㇑a" d="M36.13,13.32c1.09,1.09,1.41,2.43,1.41,3.92c0,1-0.04,15.76-0.04,21.01" transform="matrix(1,0,0,1,1096,-4)" class="stroke_order_diagram--existing_path"></path><path id="pathSk2v596cn3ubb" kvg:type="㇐b" d="M38.58,26.08c4.37-0.68,6.32-1.12,10.26-1.77c1.03-0.17,2.12-0.5,3.14-0.16" transform="matrix(1,0,0,1,1096,-4)" class="stroke_order_diagram--existing_path"></path><path id="pathSk2v596cn3ubc" kvg:type="㇑a" d="M23.02,24.31c0.96,0.96,1.41,2.19,1.41,3.92c0,5.36,0.03,10.64,0.03,15.08" transform="matrix(1,0,0,1,1096,-4)" class="stroke_order_diagram--existing_path"></path><path id="pathSk2v596cn3ubd" kvg:type="㇀/㇐" d="M14,46.57c1.03,1.03,2.48,0.96,3.59,0.52c8.94-3.54,18.54-7.22,33.43-13.09" transform="matrix(1,0,0,1,1096,-4)" class="stroke_order_diagram--existing_path"></path><path id="pathSk2v596cn3ube" kvg:type="㇒" d="M85.44,13.98c0,0.9-0.81,2.25-1.35,2.75c-3.26,2.96-9.09,6.4-16.88,9.57" transform="matrix(1,0,0,1,1096,-4)" class="stroke_order_diagram--existing_path"></path><path id="pathSk2v596cn3ubf" kvg:type="㇟" d="M63.06,11.71c0.8,0.8,1.22,2.16,1.22,3.49c0,1.59-0.03,7.2-0.03,16.17c0,7.1,1.25,8.76,14.05,8.76c11.45,0,12.95-1.64,12.95-8.84" transform="matrix(1,0,0,1,1096,-4)" class="stroke_order_diagram--existing_path"></path><path id="pathSk2v596cn3ubg" kvg:type="㇜" d="M52.5,39.5c0.25,1.38-0.09,2.47-1.5,3.75c-2.88,2.62-5.75,5-10.75,8.5c-1.02,0.72-0.74,2.47,0.25,2.75c3.5,1,6,2.5,10.25,5.25" transform="matrix(1,0,0,1,1096,-4)" class="stroke_order_diagram--existing_path"></path><path id="pathSk2v596cn3ubh" kvg:type="㇜" d="M65.75,46.5c0.12,1.62-0.25,2.75-1.5,3.75c-10.31,8.25-18.25,13-29.75,20c-1.97,1.2-1.54,2.31,0.5,2c10-1.5,25.62-3.88,37.62-5.88" transform="matrix(1,0,0,1,1096,-4)" class="stroke_order_diagram--existing_path"></path><path id="pathSk2v596cn3ubi" kvg:type="㇔" d="M69.25,61.25c3.44,2.21,8.89,9.07,9.75,12.5" transform="matrix(1,0,0,1,1096,-4)" class="stroke_order_diagram--existing_path"></path><path id="pathSk2v596cn3ubj" kvg:type="㇑" d="M53.73,73.25c1.01,1.01,1.3,2.38,1.3,4.54c0,4.56,0.04,10.08,0.04,15.45c0,1.83-0.06,3.54-0.06,5" transform="matrix(1,0,0,1,1096,-4)" class="stroke_order_diagram--existing_path"></path><path id="pathSk2v596cn3ubk" kvg:type="㇒" d="M39.46,81.75c0.16,1.25-0.21,2-1.31,2.89c-3.69,3-12.1,8.59-17.4,11.11" transform="matrix(1,0,0,1,1096,-4)" class="stroke_order_diagram--existing_path"></path><path id="kvg:07d2b-s12" kvg:type="㇔" d="M72,81.5c5.21,2.52,14.14,9.23,16,11.75" transform="matrix(1,0,0,1,1096,-4)" class="stroke_order_diagram--current_path"></path><path id="pathSk2v596cn3ubm" kvg:type="㇔" d="M72,81.5c5.21,2.52,14.14,9.23,16,11.75" transform="matrix(1,0,0,1,1096,-4)" class="stroke_order_diagram--current_path"></path><circle cx="72" cy="81.5" r="8" class="stroke_order_diagram--path_start" transform="matrix(1,0,0,1,1096,-4)"></circle></svg>