<svg style="width: 1200px; height: 100px;" viewbox="0 0 1200 100"><style>
.stroke_order_diagram--outer_container {
  width: 100%;
  overflow-x: auto;
  overflow-y: hidden;
}

.stroke_order_diagram--guide_line {
  fill: none;
  stroke: #ddd;
  stroke-width: 3;
  stroke-linecap: square;
  stroke-linejoin: square;
  stroke-dasharray:8, 8;
}

.stroke_order_diagram--bounding_box {
  fill: none;
  stroke: #ddd;
  stroke-width: 4;
  stroke-linecap: square;
  stroke-linejoin: square;
}

.stroke_order_diagram--current_path {
  fill: none;
  stroke: #000;
  stroke-width: 6;
  stroke-linecap: round;
  stroke-linejoin: round;
}

.stroke_order_diagram--existing_path {
  fill: none;
  stroke: #aaa;
  stroke-width: 6;
  stroke-linecap: round;
  stroke-linejoin:round;
}

.stroke_order_diagram--path_start {
  fill: rgba(255, 0, 0, 0.7);
  stroke:none
}</style><desc>Created with Snap</desc><defs></defs><line x1="1" x2="1199" y1="1" y2="1" class="stroke_order_diagram--bounding_box"></line><line x1="1" x2="1" y1="1" y2="99" class="stroke_order_diagram--bounding_box"></line><line x1="1" x2="1199" y1="99" y2="99" class="stroke_order_diagram--bounding_box"></line><line x1="0" x2="1200" y1="50" y2="50" class="stroke_order_diagram--guide_line"></line><line x1="50" x2="50" y1="1" y2="99" class="stroke_order_diagram--guide_line"></line><line x1="99" x2="99" y1="1" y2="99" class="stroke_order_diagram--bounding_box"></line><path id="kvg:07d61-s1" kvg:type="㇜" d="M29.13,13.92c0.34,1.34,0.57,2.43-0.17,3.8c-3.7,6.78-7.49,12.56-12.05,17.72c-1.15,1.31-1.15,2.68,0.5,3.35c3.56,1.45,4.6,1.83,8.47,4.31" transform="matrix(1,0,0,1,-4,-4)" class="stroke_order_diagram--current_path"></path><path id="pathSk2v596cn17ck" kvg:type="㇜" d="M29.13,13.92c0.34,1.34,0.57,2.43-0.17,3.8c-3.7,6.78-7.49,12.56-12.05,17.72c-1.15,1.31-1.15,2.68,0.5,3.35c3.56,1.45,4.6,1.83,8.47,4.31" transform="matrix(1,0,0,1,-4,-4)" class="stroke_order_diagram--current_path"></path><circle cx="29.13" cy="13.92" r="8" class="stroke_order_diagram--path_start" transform="matrix(1,0,0,1,-4,-4)"></circle><line x1="150" x2="150" y1="1" y2="99" class="stroke_order_diagram--guide_line"></line><line x1="199" x2="199" y1="1" y2="99" class="stroke_order_diagram--bounding_box"></line><path id="pathSk2v596cn17cn" kvg:type="㇜" d="M29.13,13.92c0.34,1.34,0.57,2.43-0.17,3.8c-3.7,6.78-7.49,12.56-12.05,17.72c-1.15,1.31-1.15,2.68,0.5,3.35c3.56,1.45,4.6,1.83,8.47,4.31" transform="matrix(1,0,0,1,96,-4)" class="stroke_order_diagram--existing_path"></path><path id="kvg:07d61-s2" kvg:type="㇜" d="M40.8,22.93c0.32,0.95,0.07,2.2-0.75,3.34c-6.62,9.2-16.3,20.98-24.73,30.19c-1.78,1.94,0.46,2.98,1.65,2.59c5-1.61,15.87-4.49,22.29-6.03" transform="matrix(1,0,0,1,96,-4)" class="stroke_order_diagram--current_path"></path><path id="pathSk2v596cn17cp" kvg:type="㇜" d="M40.8,22.93c0.32,0.95,0.07,2.2-0.75,3.34c-6.62,9.2-16.3,20.98-24.73,30.19c-1.78,1.94,0.46,2.98,1.65,2.59c5-1.61,15.87-4.49,22.29-6.03" transform="matrix(1,0,0,1,96,-4)" class="stroke_order_diagram--current_path"></path><circle cx="40.8" cy="22.93" r="8" class="stroke_order_diagram--path_start" transform="matrix(1,0,0,1,96,-4)"></circle><line x1="250" x2="250" y1="1" y2="99" class="stroke_order_diagram--guide_line"></line><line x1="299" x2="299" y1="1" y2="99" class="stroke_order_diagram--bounding_box"></line><path id="pathSk2v596cn17cs" kvg:type="㇜" d="M29.13,13.92c0.34,1.34,0.57,2.43-0.17,3.8c-3.7,6.78-7.49,12.56-12.05,17.72c-1.15,1.31-1.15,2.68,0.5,3.35c3.56,1.45,4.6,1.83,8.47,4.31" transform="matrix(1,0,0,1,196,-4)" class="stroke_order_diagram--existing_path"></path><path id="pathSk2v596cn17ct" kvg:type="㇜" d="M40.8,22.93c0.32,0.95,0.07,2.2-0.75,3.34c-6.62,9.2-16.3,20.98-24.73,30.19c-1.78,1.94,0.46,2.98,1.65,2.59c5-1.61,15.87-4.49,22.29-6.03" transform="matrix(1,0,0,1,196,-4)" class="stroke_order_diagram--existing_path"></path><path id="kvg:07d61-s3" kvg:type="㇔" d="M36.63,46.63c2.16,2,5.58,8.24,6.12,11.35" transform="matrix(1,0,0,1,196,-4)" class="stroke_order_diagram--current_path"></path><path id="pathSk2v596cn17cv" kvg:type="㇔" d="M36.63,46.63c2.16,2,5.58,8.24,6.12,11.35" transform="matrix(1,0,0,1,196,-4)" class="stroke_order_diagram--current_path"></path><circle cx="36.63" cy="46.63" r="8" class="stroke_order_diagram--path_start" transform="matrix(1,0,0,1,196,-4)"></circle><line x1="350" x2="350" y1="1" y2="99" class="stroke_order_diagram--guide_line"></line><line x1="399" x2="399" y1="1" y2="99" class="stroke_order_diagram--bounding_box"></line><path id="pathSk2v596cn17cy" kvg:type="㇜" d="M29.13,13.92c0.34,1.34,0.57,2.43-0.17,3.8c-3.7,6.78-7.49,12.56-12.05,17.72c-1.15,1.31-1.15,2.68,0.5,3.35c3.56,1.45,4.6,1.83,8.47,4.31" transform="matrix(1,0,0,1,296,-4)" class="stroke_order_diagram--existing_path"></path><path id="pathSk2v596cn17cz" kvg:type="㇜" d="M40.8,22.93c0.32,0.95,0.07,2.2-0.75,3.34c-6.62,9.2-16.3,20.98-24.73,30.19c-1.78,1.94,0.46,2.98,1.65,2.59c5-1.61,15.87-4.49,22.29-6.03" transform="matrix(1,0,0,1,296,-4)" class="stroke_order_diagram--existing_path"></path><path id="pathSk2v596cn17d0" kvg:type="㇔" d="M36.63,46.63c2.16,2,5.58,8.24,6.12,11.35" transform="matrix(1,0,0,1,296,-4)" class="stroke_order_diagram--existing_path"></path><path id="kvg:07d61-s4" kvg:type="㇑" d="M27.15,58.41c0.87,0.87,1.23,2.01,1.23,3.84c0,8.45,0.02,18.61,0.03,25.5c0.01,2.73,0.01,5.1,0.01,6.92" transform="matrix(1,0,0,1,296,-4)" class="stroke_order_diagram--current_path"></path><path id="pathSk2v596cn17d2" kvg:type="㇑" d="M27.15,58.41c0.87,0.87,1.23,2.01,1.23,3.84c0,8.45,0.02,18.61,0.03,25.5c0.01,2.73,0.01,5.1,0.01,6.92" transform="matrix(1,0,0,1,296,-4)" class="stroke_order_diagram--current_path"></path><circle cx="27.15" cy="58.41" r="8" class="stroke_order_diagram--path_start" transform="matrix(1,0,0,1,296,-4)"></circle><line x1="450" x2="450" y1="1" y2="99" class="stroke_order_diagram--guide_line"></line><line x1="499" x2="499" y1="1" y2="99" class="stroke_order_diagram--bounding_box"></line><path id="pathSk2v596cn17d5" kvg:type="㇜" d="M29.13,13.92c0.34,1.34,0.57,2.43-0.17,3.8c-3.7,6.78-7.49,12.56-12.05,17.72c-1.15,1.31-1.15,2.68,0.5,3.35c3.56,1.45,4.6,1.83,8.47,4.31" transform="matrix(1,0,0,1,396,-4)" class="stroke_order_diagram--existing_path"></path><path id="pathSk2v596cn17d6" kvg:type="㇜" d="M40.8,22.93c0.32,0.95,0.07,2.2-0.75,3.34c-6.62,9.2-16.3,20.98-24.73,30.19c-1.78,1.94,0.46,2.98,1.65,2.59c5-1.61,15.87-4.49,22.29-6.03" transform="matrix(1,0,0,1,396,-4)" class="stroke_order_diagram--existing_path"></path><path id="pathSk2v596cn17d7" kvg:type="㇔" d="M36.63,46.63c2.16,2,5.58,8.24,6.12,11.35" transform="matrix(1,0,0,1,396,-4)" class="stroke_order_diagram--existing_path"></path><path id="pathSk2v596cn17d8" kvg:type="㇑" d="M27.15,58.41c0.87,0.87,1.23,2.01,1.23,3.84c0,8.45,0.02,18.61,0.03,25.5c0.01,2.73,0.01,5.1,0.01,6.92" transform="matrix(1,0,0,1,396,-4)" class="stroke_order_diagram--existing_path"></path><path id="kvg:07d61-s5" kvg:type="㇒" d="M19.13,69.6c0.12,0.96,0.1,2.11-0.12,2.8c-1.42,4.5-4.63,12.85-7.51,17.53" transform="matrix(1,0,0,1,396,-4)" class="stroke_order_diagram--current_path"></path><path id="pathSk2v596cn17da" kvg:type="㇒" d="M19.13,69.6c0.12,0.96,0.1,2.11-0.12,2.8c-1.42,4.5-4.63,12.85-7.51,17.53" transform="matrix(1,0,0,1,396,-4)" class="stroke_order_diagram--current_path"></path><circle cx="19.13" cy="69.6" r="8" class="stroke_order_diagram--path_start" transform="matrix(1,0,0,1,396,-4)"></circle><line x1="550" x2="550" y1="1" y2="99" class="stroke_order_diagram--guide_line"></line><line x1="599" x2="599" y1="1" y2="99" class="stroke_order_diagram--bounding_box"></line><path id="pathSk2v596cn17dd" kvg:type="㇜" d="M29.13,13.92c0.34,1.34,0.57,2.43-0.17,3.8c-3.7,6.78-7.49,12.56-12.05,17.72c-1.15,1.31-1.15,2.68,0.5,3.35c3.56,1.45,4.6,1.83,8.47,4.31" transform="matrix(1,0,0,1,496,-4)" class="stroke_order_diagram--existing_path"></path><path id="pathSk2v596cn17de" kvg:type="㇜" d="M40.8,22.93c0.32,0.95,0.07,2.2-0.75,3.34c-6.62,9.2-16.3,20.98-24.73,30.19c-1.78,1.94,0.46,2.98,1.65,2.59c5-1.61,15.87-4.49,22.29-6.03" transform="matrix(1,0,0,1,496,-4)" class="stroke_order_diagram--existing_path"></path><path id="pathSk2v596cn17df" kvg:type="㇔" d="M36.63,46.63c2.16,2,5.58,8.24,6.12,11.35" transform="matrix(1,0,0,1,496,-4)" class="stroke_order_diagram--existing_path"></path><path id="pathSk2v596cn17dg" kvg:type="㇑" d="M27.15,58.41c0.87,0.87,1.23,2.01,1.23,3.84c0,8.45,0.02,18.61,0.03,25.5c0.01,2.73,0.01,5.1,0.01,6.92" transform="matrix(1,0,0,1,496,-4)" class="stroke_order_diagram--existing_path"></path><path id="pathSk2v596cn17dh" kvg:type="㇒" d="M19.13,69.6c0.12,0.96,0.1,2.11-0.12,2.8c-1.42,4.5-4.63,12.85-7.51,17.53" transform="matrix(1,0,0,1,496,-4)" class="stroke_order_diagram--existing_path"></path><path id="kvg:07d61-s6" kvg:type="㇔" d="M35.75,68.5c3.34,3.42,5.9,11.37,6.67,14.47" transform="matrix(1,0,0,1,496,-4)" class="stroke_order_diagram--current_path"></path><path id="pathSk2v596cn17dj" kvg:type="㇔" d="M35.75,68.5c3.34,3.42,5.9,11.37,6.67,14.47" transform="matrix(1,0,0,1,496,-4)" class="stroke_order_diagram--current_path"></path><circle cx="35.75" cy="68.5" r="8" class="stroke_order_diagram--path_start" transform="matrix(1,0,0,1,496,-4)"></circle><line x1="650" x2="650" y1="1" y2="99" class="stroke_order_diagram--guide_line"></line><line x1="699" x2="699" y1="1" y2="99" class="stroke_order_diagram--bounding_box"></line><path id="pathSk2v596cn17dm" kvg:type="㇜" d="M29.13,13.92c0.34,1.34,0.57,2.43-0.17,3.8c-3.7,6.78-7.49,12.56-12.05,17.72c-1.15,1.31-1.15,2.68,0.5,3.35c3.56,1.45,4.6,1.83,8.47,4.31" transform="matrix(1,0,0,1,596,-4)" class="stroke_order_diagram--existing_path"></path><path id="pathSk2v596cn17dn" kvg:type="㇜" d="M40.8,22.93c0.32,0.95,0.07,2.2-0.75,3.34c-6.62,9.2-16.3,20.98-24.73,30.19c-1.78,1.94,0.46,2.98,1.65,2.59c5-1.61,15.87-4.49,22.29-6.03" transform="matrix(1,0,0,1,596,-4)" class="stroke_order_diagram--existing_path"></path><path id="pathSk2v596cn17do" kvg:type="㇔" d="M36.63,46.63c2.16,2,5.58,8.24,6.12,11.35" transform="matrix(1,0,0,1,596,-4)" class="stroke_order_diagram--existing_path"></path><path id="pathSk2v596cn17dp" kvg:type="㇑" d="M27.15,58.41c0.87,0.87,1.23,2.01,1.23,3.84c0,8.45,0.02,18.61,0.03,25.5c0.01,2.73,0.01,5.1,0.01,6.92" transform="matrix(1,0,0,1,596,-4)" class="stroke_order_diagram--existing_path"></path><path id="pathSk2v596cn17dq" kvg:type="㇒" d="M19.13,69.6c0.12,0.96,0.1,2.11-0.12,2.8c-1.42,4.5-4.63,12.85-7.51,17.53" transform="matrix(1,0,0,1,596,-4)" class="stroke_order_diagram--existing_path"></path><path id="pathSk2v596cn17dr" kvg:type="㇔" d="M35.75,68.5c3.34,3.42,5.9,11.37,6.67,14.47" transform="matrix(1,0,0,1,596,-4)" class="stroke_order_diagram--existing_path"></path><path id="kvg:07d61-s7" kvg:type="㇒" d="M62.54,14.25c0.05,0.66,0,1.74-0.35,2.63c-2.69,6.87-8.69,15.87-17.37,25.44" transform="matrix(1,0,0,1,596,-4)" class="stroke_order_diagram--current_path"></path><path id="pathSk2v596cn17dt" kvg:type="㇒" d="M62.54,14.25c0.05,0.66,0,1.74-0.35,2.63c-2.69,6.87-8.69,15.87-17.37,25.44" transform="matrix(1,0,0,1,596,-4)" class="stroke_order_diagram--current_path"></path><circle cx="62.54" cy="14.25" r="8" class="stroke_order_diagram--path_start" transform="matrix(1,0,0,1,596,-4)"></circle><line x1="750" x2="750" y1="1" y2="99" class="stroke_order_diagram--guide_line"></line><line x1="799" x2="799" y1="1" y2="99" class="stroke_order_diagram--bounding_box"></line><path id="pathSk2v596cn17dw" kvg:type="㇜" d="M29.13,13.92c0.34,1.34,0.57,2.43-0.17,3.8c-3.7,6.78-7.49,12.56-12.05,17.72c-1.15,1.31-1.15,2.68,0.5,3.35c3.56,1.45,4.6,1.83,8.47,4.31" transform="matrix(1,0,0,1,696,-4)" class="stroke_order_diagram--existing_path"></path><path id="pathSk2v596cn17dx" kvg:type="㇜" d="M40.8,22.93c0.32,0.95,0.07,2.2-0.75,3.34c-6.62,9.2-16.3,20.98-24.73,30.19c-1.78,1.94,0.46,2.98,1.65,2.59c5-1.61,15.87-4.49,22.29-6.03" transform="matrix(1,0,0,1,696,-4)" class="stroke_order_diagram--existing_path"></path><path id="pathSk2v596cn17dy" kvg:type="㇔" d="M36.63,46.63c2.16,2,5.58,8.24,6.12,11.35" transform="matrix(1,0,0,1,696,-4)" class="stroke_order_diagram--existing_path"></path><path id="pathSk2v596cn17dz" kvg:type="㇑" d="M27.15,58.41c0.87,0.87,1.23,2.01,1.23,3.84c0,8.45,0.02,18.61,0.03,25.5c0.01,2.73,0.01,5.1,0.01,6.92" transform="matrix(1,0,0,1,696,-4)" class="stroke_order_diagram--existing_path"></path><path id="pathSk2v596cn17e0" kvg:type="㇒" d="M19.13,69.6c0.12,0.96,0.1,2.11-0.12,2.8c-1.42,4.5-4.63,12.85-7.51,17.53" transform="matrix(1,0,0,1,696,-4)" class="stroke_order_diagram--existing_path"></path><path id="pathSk2v596cn17e1" kvg:type="㇔" d="M35.75,68.5c3.34,3.42,5.9,11.37,6.67,14.47" transform="matrix(1,0,0,1,696,-4)" class="stroke_order_diagram--existing_path"></path><path id="pathSk2v596cn17e2" kvg:type="㇒" d="M62.54,14.25c0.05,0.66,0,1.74-0.35,2.63c-2.69,6.87-8.69,15.87-17.37,25.44" transform="matrix(1,0,0,1,696,-4)" class="stroke_order_diagram--existing_path"></path><path id="kvg:07d61-s8" kvg:type="㇇" d="M62.51,22.16c0.33,0.04,1.78,0.11,2.71-0.11c4.4-1.05,9.71-2.34,14.19-3.43c3.08-0.75,3.95,1.1,3.16,3.14c-4.31,11.13-21.56,37.68-40.9,45.02" transform="matrix(1,0,0,1,696,-4)" class="stroke_order_diagram--current_path"></path><path id="pathSk2v596cn17e4" kvg:type="㇇" d="M62.51,22.16c0.33,0.04,1.78,0.11,2.71-0.11c4.4-1.05,9.71-2.34,14.19-3.43c3.08-0.75,3.95,1.1,3.16,3.14c-4.31,11.13-21.56,37.68-40.9,45.02" transform="matrix(1,0,0,1,696,-4)" class="stroke_order_diagram--current_path"></path><circle cx="62.51" cy="22.16" r="8" class="stroke_order_diagram--path_start" transform="matrix(1,0,0,1,696,-4)"></circle><line x1="850" x2="850" y1="1" y2="99" class="stroke_order_diagram--guide_line"></line><line x1="899" x2="899" y1="1" y2="99" class="stroke_order_diagram--bounding_box"></line><path id="pathSk2v596cn17e7" kvg:type="㇜" d="M29.13,13.92c0.34,1.34,0.57,2.43-0.17,3.8c-3.7,6.78-7.49,12.56-12.05,17.72c-1.15,1.31-1.15,2.68,0.5,3.35c3.56,1.45,4.6,1.83,8.47,4.31" transform="matrix(1,0,0,1,796,-4)" class="stroke_order_diagram--existing_path"></path><path id="pathSk2v596cn17e8" kvg:type="㇜" d="M40.8,22.93c0.32,0.95,0.07,2.2-0.75,3.34c-6.62,9.2-16.3,20.98-24.73,30.19c-1.78,1.94,0.46,2.98,1.65,2.59c5-1.61,15.87-4.49,22.29-6.03" transform="matrix(1,0,0,1,796,-4)" class="stroke_order_diagram--existing_path"></path><path id="pathSk2v596cn17e9" kvg:type="㇔" d="M36.63,46.63c2.16,2,5.58,8.24,6.12,11.35" transform="matrix(1,0,0,1,796,-4)" class="stroke_order_diagram--existing_path"></path><path id="pathSk2v596cn17ea" kvg:type="㇑" d="M27.15,58.41c0.87,0.87,1.23,2.01,1.23,3.84c0,8.45,0.02,18.61,0.03,25.5c0.01,2.73,0.01,5.1,0.01,6.92" transform="matrix(1,0,0,1,796,-4)" class="stroke_order_diagram--existing_path"></path><path id="pathSk2v596cn17eb" kvg:type="㇒" d="M19.13,69.6c0.12,0.96,0.1,2.11-0.12,2.8c-1.42,4.5-4.63,12.85-7.51,17.53" transform="matrix(1,0,0,1,796,-4)" class="stroke_order_diagram--existing_path"></path><path id="pathSk2v596cn17ec" kvg:type="㇔" d="M35.75,68.5c3.34,3.42,5.9,11.37,6.67,14.47" transform="matrix(1,0,0,1,796,-4)" class="stroke_order_diagram--existing_path"></path><path id="pathSk2v596cn17ed" kvg:type="㇒" d="M62.54,14.25c0.05,0.66,0,1.74-0.35,2.63c-2.69,6.87-8.69,15.87-17.37,25.44" transform="matrix(1,0,0,1,796,-4)" class="stroke_order_diagram--existing_path"></path><path id="pathSk2v596cn17ee" kvg:type="㇇" d="M62.51,22.16c0.33,0.04,1.78,0.11,2.71-0.11c4.4-1.05,9.71-2.34,14.19-3.43c3.08-0.75,3.95,1.1,3.16,3.14c-4.31,11.13-21.56,37.68-40.9,45.02" transform="matrix(1,0,0,1,796,-4)" class="stroke_order_diagram--existing_path"></path><path id="kvg:07d61-s9" kvg:type="㇏" d="M56.9,29.83c4.23,4.35,19.57,18.66,28.51,25.67c2.69,2.11,5.58,3.96,8.65,5.45" transform="matrix(1,0,0,1,796,-4)" class="stroke_order_diagram--current_path"></path><path id="pathSk2v596cn17eg" kvg:type="㇏" d="M56.9,29.83c4.23,4.35,19.57,18.66,28.51,25.67c2.69,2.11,5.58,3.96,8.65,5.45" transform="matrix(1,0,0,1,796,-4)" class="stroke_order_diagram--current_path"></path><circle cx="56.9" cy="29.83" r="8" class="stroke_order_diagram--path_start" transform="matrix(1,0,0,1,796,-4)"></circle><line x1="950" x2="950" y1="1" y2="99" class="stroke_order_diagram--guide_line"></line><line x1="999" x2="999" y1="1" y2="99" class="stroke_order_diagram--bounding_box"></line><path id="pathSk2v596cn17ej" kvg:type="㇜" d="M29.13,13.92c0.34,1.34,0.57,2.43-0.17,3.8c-3.7,6.78-7.49,12.56-12.05,17.72c-1.15,1.31-1.15,2.68,0.5,3.35c3.56,1.45,4.6,1.83,8.47,4.31" transform="matrix(1,0,0,1,896,-4)" class="stroke_order_diagram--existing_path"></path><path id="pathSk2v596cn17ek" kvg:type="㇜" d="M40.8,22.93c0.32,0.95,0.07,2.2-0.75,3.34c-6.62,9.2-16.3,20.98-24.73,30.19c-1.78,1.94,0.46,2.98,1.65,2.59c5-1.61,15.87-4.49,22.29-6.03" transform="matrix(1,0,0,1,896,-4)" class="stroke_order_diagram--existing_path"></path><path id="pathSk2v596cn17el" kvg:type="㇔" d="M36.63,46.63c2.16,2,5.58,8.24,6.12,11.35" transform="matrix(1,0,0,1,896,-4)" class="stroke_order_diagram--existing_path"></path><path id="pathSk2v596cn17em" kvg:type="㇑" d="M27.15,58.41c0.87,0.87,1.23,2.01,1.23,3.84c0,8.45,0.02,18.61,0.03,25.5c0.01,2.73,0.01,5.1,0.01,6.92" transform="matrix(1,0,0,1,896,-4)" class="stroke_order_diagram--existing_path"></path><path id="pathSk2v596cn17en" kvg:type="㇒" d="M19.13,69.6c0.12,0.96,0.1,2.11-0.12,2.8c-1.42,4.5-4.63,12.85-7.51,17.53" transform="matrix(1,0,0,1,896,-4)" class="stroke_order_diagram--existing_path"></path><path id="pathSk2v596cn17eo" kvg:type="㇔" d="M35.75,68.5c3.34,3.42,5.9,11.37,6.67,14.47" transform="matrix(1,0,0,1,896,-4)" class="stroke_order_diagram--existing_path"></path><path id="pathSk2v596cn17ep" kvg:type="㇒" d="M62.54,14.25c0.05,0.66,0,1.74-0.35,2.63c-2.69,6.87-8.69,15.87-17.37,25.44" transform="matrix(1,0,0,1,896,-4)" class="stroke_order_diagram--existing_path"></path><path id="pathSk2v596cn17eq" kvg:type="㇇" d="M62.51,22.16c0.33,0.04,1.78,0.11,2.71-0.11c4.4-1.05,9.71-2.34,14.19-3.43c3.08-0.75,3.95,1.1,3.16,3.14c-4.31,11.13-21.56,37.68-40.9,45.02" transform="matrix(1,0,0,1,896,-4)" class="stroke_order_diagram--existing_path"></path><path id="pathSk2v596cn17er" kvg:type="㇏" d="M56.9,29.83c4.23,4.35,19.57,18.66,28.51,25.67c2.69,2.11,5.58,3.96,8.65,5.45" transform="matrix(1,0,0,1,896,-4)" class="stroke_order_diagram--existing_path"></path><path id="kvg:07d61-s10" kvg:type="㇑" d="M54.58,68.76c0.75,0.8,1.17,1.75,1.25,2.85c0.79,5.52,1.55,11.56,2.19,17.92c0.19,1.94,0.38,3.79,0.56,5.43" transform="matrix(1,0,0,1,896,-4)" class="stroke_order_diagram--current_path"></path><path id="pathSk2v596cn17et" kvg:type="㇑" d="M54.58,68.76c0.75,0.8,1.17,1.75,1.25,2.85c0.79,5.52,1.55,11.56,2.19,17.92c0.19,1.94,0.38,3.79,0.56,5.43" transform="matrix(1,0,0,1,896,-4)" class="stroke_order_diagram--current_path"></path><circle cx="54.58" cy="68.76" r="8" class="stroke_order_diagram--path_start" transform="matrix(1,0,0,1,896,-4)"></circle><line x1="1050" x2="1050" y1="1" y2="99" class="stroke_order_diagram--guide_line"></line><line x1="1099" x2="1099" y1="1" y2="99" class="stroke_order_diagram--bounding_box"></line><path id="pathSk2v596cn17ew" kvg:type="㇜" d="M29.13,13.92c0.34,1.34,0.57,2.43-0.17,3.8c-3.7,6.78-7.49,12.56-12.05,17.72c-1.15,1.31-1.15,2.68,0.5,3.35c3.56,1.45,4.6,1.83,8.47,4.31" transform="matrix(1,0,0,1,996,-4)" class="stroke_order_diagram--existing_path"></path><path id="pathSk2v596cn17ex" kvg:type="㇜" d="M40.8,22.93c0.32,0.95,0.07,2.2-0.75,3.34c-6.62,9.2-16.3,20.98-24.73,30.19c-1.78,1.94,0.46,2.98,1.65,2.59c5-1.61,15.87-4.49,22.29-6.03" transform="matrix(1,0,0,1,996,-4)" class="stroke_order_diagram--existing_path"></path><path id="pathSk2v596cn17ey" kvg:type="㇔" d="M36.63,46.63c2.16,2,5.58,8.24,6.12,11.35" transform="matrix(1,0,0,1,996,-4)" class="stroke_order_diagram--existing_path"></path><path id="pathSk2v596cn17ez" kvg:type="㇑" d="M27.15,58.41c0.87,0.87,1.23,2.01,1.23,3.84c0,8.45,0.02,18.61,0.03,25.5c0.01,2.73,0.01,5.1,0.01,6.92" transform="matrix(1,0,0,1,996,-4)" class="stroke_order_diagram--existing_path"></path><path id="pathSk2v596cn17f0" kvg:type="㇒" d="M19.13,69.6c0.12,0.96,0.1,2.11-0.12,2.8c-1.42,4.5-4.63,12.85-7.51,17.53" transform="matrix(1,0,0,1,996,-4)" class="stroke_order_diagram--existing_path"></path><path id="pathSk2v596cn17f1" kvg:type="㇔" d="M35.75,68.5c3.34,3.42,5.9,11.37,6.67,14.47" transform="matrix(1,0,0,1,996,-4)" class="stroke_order_diagram--existing_path"></path><path id="pathSk2v596cn17f2" kvg:type="㇒" d="M62.54,14.25c0.05,0.66,0,1.74-0.35,2.63c-2.69,6.87-8.69,15.87-17.37,25.44" transform="matrix(1,0,0,1,996,-4)" class="stroke_order_diagram--existing_path"></path><path id="pathSk2v596cn17f3" kvg:type="㇇" d="M62.51,22.16c0.33,0.04,1.78,0.11,2.71-0.11c4.4-1.05,9.71-2.34,14.19-3.43c3.08-0.75,3.95,1.1,3.16,3.14c-4.31,11.13-21.56,37.68-40.9,45.02" transform="matrix(1,0,0,1,996,-4)" class="stroke_order_diagram--existing_path"></path><path id="pathSk2v596cn17f4" kvg:type="㇏" d="M56.9,29.83c4.23,4.35,19.57,18.66,28.51,25.67c2.69,2.11,5.58,3.96,8.65,5.45" transform="matrix(1,0,0,1,996,-4)" class="stroke_order_diagram--existing_path"></path><path id="pathSk2v596cn17f5" kvg:type="㇑" d="M54.58,68.76c0.75,0.8,1.17,1.75,1.25,2.85c0.79,5.52,1.55,11.56,2.19,17.92c0.19,1.94,0.38,3.79,0.56,5.43" transform="matrix(1,0,0,1,996,-4)" class="stroke_order_diagram--existing_path"></path><path id="kvg:07d61-s11" kvg:type="㇕b" d="M56.83,70.97c8.68-1.25,19.36-2.46,24.94-3.07c3.57-0.39,5.31,0.18,4.26,4.12C84.5,77.75,83.25,83,81.57,90" transform="matrix(1,0,0,1,996,-4)" class="stroke_order_diagram--current_path"></path><path id="pathSk2v596cn17f7" kvg:type="㇕b" d="M56.83,70.97c8.68-1.25,19.36-2.46,24.94-3.07c3.57-0.39,5.31,0.18,4.26,4.12C84.5,77.75,83.25,83,81.57,90" transform="matrix(1,0,0,1,996,-4)" class="stroke_order_diagram--current_path"></path><circle cx="56.83" cy="70.97" r="8" class="stroke_order_diagram--path_start" transform="matrix(1,0,0,1,996,-4)"></circle><line x1="1150" x2="1150" y1="1" y2="99" class="stroke_order_diagram--guide_line"></line><line x1="1199" x2="1199" y1="1" y2="99" class="stroke_order_diagram--bounding_box"></line><path id="pathSk2v596cn17fa" kvg:type="㇜" d="M29.13,13.92c0.34,1.34,0.57,2.43-0.17,3.8c-3.7,6.78-7.49,12.56-12.05,17.72c-1.15,1.31-1.15,2.68,0.5,3.35c3.56,1.45,4.6,1.83,8.47,4.31" transform="matrix(1,0,0,1,1096,-4)" class="stroke_order_diagram--existing_path"></path><path id="pathSk2v596cn17fb" kvg:type="㇜" d="M40.8,22.93c0.32,0.95,0.07,2.2-0.75,3.34c-6.62,9.2-16.3,20.98-24.73,30.19c-1.78,1.94,0.46,2.98,1.65,2.59c5-1.61,15.87-4.49,22.29-6.03" transform="matrix(1,0,0,1,1096,-4)" class="stroke_order_diagram--existing_path"></path><path id="pathSk2v596cn17fc" kvg:type="㇔" d="M36.63,46.63c2.16,2,5.58,8.24,6.12,11.35" transform="matrix(1,0,0,1,1096,-4)" class="stroke_order_diagram--existing_path"></path><path id="pathSk2v596cn17fd" kvg:type="㇑" d="M27.15,58.41c0.87,0.87,1.23,2.01,1.23,3.84c0,8.45,0.02,18.61,0.03,25.5c0.01,2.73,0.01,5.1,0.01,6.92" transform="matrix(1,0,0,1,1096,-4)" class="stroke_order_diagram--existing_path"></path><path id="pathSk2v596cn17fe" kvg:type="㇒" d="M19.13,69.6c0.12,0.96,0.1,2.11-0.12,2.8c-1.42,4.5-4.63,12.85-7.51,17.53" transform="matrix(1,0,0,1,1096,-4)" class="stroke_order_diagram--existing_path"></path><path id="pathSk2v596cn17ff" kvg:type="㇔" d="M35.75,68.5c3.34,3.42,5.9,11.37,6.67,14.47" transform="matrix(1,0,0,1,1096,-4)" class="stroke_order_diagram--existing_path"></path><path id="pathSk2v596cn17fg" kvg:type="㇒" d="M62.54,14.25c0.05,0.66,0,1.74-0.35,2.63c-2.69,6.87-8.69,15.87-17.37,25.44" transform="matrix(1,0,0,1,1096,-4)" class="stroke_order_diagram--existing_path"></path><path id="pathSk2v596cn17fh" kvg:type="㇇" d="M62.51,22.16c0.33,0.04,1.78,0.11,2.71-0.11c4.4-1.05,9.71-2.34,14.19-3.43c3.08-0.75,3.95,1.1,3.16,3.14c-4.31,11.13-21.56,37.68-40.9,45.02" transform="matrix(1,0,0,1,1096,-4)" class="stroke_order_diagram--existing_path"></path><path id="pathSk2v596cn17fi" kvg:type="㇏" d="M56.9,29.83c4.23,4.35,19.57,18.66,28.51,25.67c2.69,2.11,5.58,3.96,8.65,5.45" transform="matrix(1,0,0,1,1096,-4)" class="stroke_order_diagram--existing_path"></path><path id="pathSk2v596cn17fj" kvg:type="㇑" d="M54.58,68.76c0.75,0.8,1.17,1.75,1.25,2.85c0.79,5.52,1.55,11.56,2.19,17.92c0.19,1.94,0.38,3.79,0.56,5.43" transform="matrix(1,0,0,1,1096,-4)" class="stroke_order_diagram--existing_path"></path><path id="pathSk2v596cn17fk" kvg:type="㇕b" d="M56.83,70.97c8.68-1.25,19.36-2.46,24.94-3.07c3.57-0.39,5.31,0.18,4.26,4.12C84.5,77.75,83.25,83,81.57,90" transform="matrix(1,0,0,1,1096,-4)" class="stroke_order_diagram--existing_path"></path><path id="kvg:07d61-s12" kvg:type="㇐b" d="M59.51,92.13c5.49-0.38,12.9-0.94,20.03-1.5c1.8-0.14,3.34,0,4.84,0" transform="matrix(1,0,0,1,1096,-4)" class="stroke_order_diagram--current_path"></path><path id="pathSk2v596cn17fm" kvg:type="㇐b" d="M59.51,92.13c5.49-0.38,12.9-0.94,20.03-1.5c1.8-0.14,3.34,0,4.84,0" transform="matrix(1,0,0,1,1096,-4)" class="stroke_order_diagram--current_path"></path><circle cx="59.51" cy="92.13" r="8" class="stroke_order_diagram--path_start" transform="matrix(1,0,0,1,1096,-4)"></circle></svg>