<svg style="width: 1300px; height: 100px;" viewbox="0 0 1300 100"><style>
.stroke_order_diagram--outer_container {
  width: 100%;
  overflow-x: auto;
  overflow-y: hidden;
}

.stroke_order_diagram--guide_line {
  fill: none;
  stroke: #ddd;
  stroke-width: 3;
  stroke-linecap: square;
  stroke-linejoin: square;
  stroke-dasharray:8, 8;
}

.stroke_order_diagram--bounding_box {
  fill: none;
  stroke: #ddd;
  stroke-width: 4;
  stroke-linecap: square;
  stroke-linejoin: square;
}

.stroke_order_diagram--current_path {
  fill: none;
  stroke: #000;
  stroke-width: 6;
  stroke-linecap: round;
  stroke-linejoin: round;
}

.stroke_order_diagram--existing_path {
  fill: none;
  stroke: #aaa;
  stroke-width: 6;
  stroke-linecap: round;
  stroke-linejoin:round;
}

.stroke_order_diagram--path_start {
  fill: rgba(255, 0, 0, 0.7);
  stroke:none
}</style><desc>Created with Snap</desc><defs></defs><line x1="1" x2="1299" y1="1" y2="1" class="stroke_order_diagram--bounding_box"></line><line x1="1" x2="1" y1="1" y2="99" class="stroke_order_diagram--bounding_box"></line><line x1="1" x2="1299" y1="99" y2="99" class="stroke_order_diagram--bounding_box"></line><line x1="0" x2="1300" y1="50" y2="50" class="stroke_order_diagram--guide_line"></line><line x1="50" x2="50" y1="1" y2="99" class="stroke_order_diagram--guide_line"></line><line x1="99" x2="99" y1="1" y2="99" class="stroke_order_diagram--bounding_box"></line><path id="kvg:07d79-s1" kvg:type="㇜" d="M33.13,14.17c0.34,1.34,0.32,2.68-0.42,4.05c-3.08,5.65-7.49,12.82-12.05,17.97c-0.63,0.71-0.68,3.1,0,3.35c3.6,1.34,6.22,1.95,10.22,4.31" transform="matrix(1,0,0,1,-4,-4)" class="stroke_order_diagram--current_path"></path><path id="pathSk2v596cn4qcf" kvg:type="㇜" d="M33.13,14.17c0.34,1.34,0.32,2.68-0.42,4.05c-3.08,5.65-7.49,12.82-12.05,17.97c-0.63,0.71-0.68,3.1,0,3.35c3.6,1.34,6.22,1.95,10.22,4.31" transform="matrix(1,0,0,1,-4,-4)" class="stroke_order_diagram--current_path"></path><circle cx="33.13" cy="14.17" r="8" class="stroke_order_diagram--path_start" transform="matrix(1,0,0,1,-4,-4)"></circle><line x1="150" x2="150" y1="1" y2="99" class="stroke_order_diagram--guide_line"></line><line x1="199" x2="199" y1="1" y2="99" class="stroke_order_diagram--bounding_box"></line><path id="pathSk2v596cn4qci" kvg:type="㇜" d="M33.13,14.17c0.34,1.34,0.32,2.68-0.42,4.05c-3.08,5.65-7.49,12.82-12.05,17.97c-0.63,0.71-0.68,3.1,0,3.35c3.6,1.34,6.22,1.95,10.22,4.31" transform="matrix(1,0,0,1,96,-4)" class="stroke_order_diagram--existing_path"></path><path id="kvg:07d79-s2" kvg:type="㇜" d="M43.55,26.93c0.32,1.07,0.32,2.32-0.25,3.09c-7.3,9.8-15.74,19.68-23.73,27.94c-1.83,1.89-0.7,3.42,1.65,2.84c5.1-1.25,16.87-4.74,23.29-6.28" transform="matrix(1,0,0,1,96,-4)" class="stroke_order_diagram--current_path"></path><path id="pathSk2v596cn4qck" kvg:type="㇜" d="M43.55,26.93c0.32,1.07,0.32,2.32-0.25,3.09c-7.3,9.8-15.74,19.68-23.73,27.94c-1.83,1.89-0.7,3.42,1.65,2.84c5.1-1.25,16.87-4.74,23.29-6.28" transform="matrix(1,0,0,1,96,-4)" class="stroke_order_diagram--current_path"></path><circle cx="43.55" cy="26.93" r="8" class="stroke_order_diagram--path_start" transform="matrix(1,0,0,1,96,-4)"></circle><line x1="250" x2="250" y1="1" y2="99" class="stroke_order_diagram--guide_line"></line><line x1="299" x2="299" y1="1" y2="99" class="stroke_order_diagram--bounding_box"></line><path id="pathSk2v596cn4qcn" kvg:type="㇜" d="M33.13,14.17c0.34,1.34,0.32,2.68-0.42,4.05c-3.08,5.65-7.49,12.82-12.05,17.97c-0.63,0.71-0.68,3.1,0,3.35c3.6,1.34,6.22,1.95,10.22,4.31" transform="matrix(1,0,0,1,196,-4)" class="stroke_order_diagram--existing_path"></path><path id="pathSk2v596cn4qco" kvg:type="㇜" d="M43.55,26.93c0.32,1.07,0.32,2.32-0.25,3.09c-7.3,9.8-15.74,19.68-23.73,27.94c-1.83,1.89-0.7,3.42,1.65,2.84c5.1-1.25,16.87-4.74,23.29-6.28" transform="matrix(1,0,0,1,196,-4)" class="stroke_order_diagram--existing_path"></path><path id="kvg:07d79-s3" kvg:type="㇔" d="M40.62,48.62c2.51,2.27,6.5,9.33,7.12,12.86" transform="matrix(1,0,0,1,196,-4)" class="stroke_order_diagram--current_path"></path><path id="pathSk2v596cn4qcq" kvg:type="㇔" d="M40.62,48.62c2.51,2.27,6.5,9.33,7.12,12.86" transform="matrix(1,0,0,1,196,-4)" class="stroke_order_diagram--current_path"></path><circle cx="40.62" cy="48.62" r="8" class="stroke_order_diagram--path_start" transform="matrix(1,0,0,1,196,-4)"></circle><line x1="350" x2="350" y1="1" y2="99" class="stroke_order_diagram--guide_line"></line><line x1="399" x2="399" y1="1" y2="99" class="stroke_order_diagram--bounding_box"></line><path id="pathSk2v596cn4qct" kvg:type="㇜" d="M33.13,14.17c0.34,1.34,0.32,2.68-0.42,4.05c-3.08,5.65-7.49,12.82-12.05,17.97c-0.63,0.71-0.68,3.1,0,3.35c3.6,1.34,6.22,1.95,10.22,4.31" transform="matrix(1,0,0,1,296,-4)" class="stroke_order_diagram--existing_path"></path><path id="pathSk2v596cn4qcu" kvg:type="㇜" d="M43.55,26.93c0.32,1.07,0.32,2.32-0.25,3.09c-7.3,9.8-15.74,19.68-23.73,27.94c-1.83,1.89-0.7,3.42,1.65,2.84c5.1-1.25,16.87-4.74,23.29-6.28" transform="matrix(1,0,0,1,296,-4)" class="stroke_order_diagram--existing_path"></path><path id="pathSk2v596cn4qcv" kvg:type="㇔" d="M40.62,48.62c2.51,2.27,6.5,9.33,7.12,12.86" transform="matrix(1,0,0,1,296,-4)" class="stroke_order_diagram--existing_path"></path><path id="kvg:07d79-s4" kvg:type="㇑" d="M32.39,61.12c0.81,0.81,1.23,2.26,1.23,3.84c0,7.42-0.09,16.79-0.09,23.54c0,2.96-0.11,4-0.11,6.42" transform="matrix(1,0,0,1,296,-4)" class="stroke_order_diagram--current_path"></path><path id="pathSk2v596cn4qcx" kvg:type="㇑" d="M32.39,61.12c0.81,0.81,1.23,2.26,1.23,3.84c0,7.42-0.09,16.79-0.09,23.54c0,2.96-0.11,4-0.11,6.42" transform="matrix(1,0,0,1,296,-4)" class="stroke_order_diagram--current_path"></path><circle cx="32.39" cy="61.12" r="8" class="stroke_order_diagram--path_start" transform="matrix(1,0,0,1,296,-4)"></circle><line x1="450" x2="450" y1="1" y2="99" class="stroke_order_diagram--guide_line"></line><line x1="499" x2="499" y1="1" y2="99" class="stroke_order_diagram--bounding_box"></line><path id="pathSk2v596cn4qd0" kvg:type="㇜" d="M33.13,14.17c0.34,1.34,0.32,2.68-0.42,4.05c-3.08,5.65-7.49,12.82-12.05,17.97c-0.63,0.71-0.68,3.1,0,3.35c3.6,1.34,6.22,1.95,10.22,4.31" transform="matrix(1,0,0,1,396,-4)" class="stroke_order_diagram--existing_path"></path><path id="pathSk2v596cn4qd1" kvg:type="㇜" d="M43.55,26.93c0.32,1.07,0.32,2.32-0.25,3.09c-7.3,9.8-15.74,19.68-23.73,27.94c-1.83,1.89-0.7,3.42,1.65,2.84c5.1-1.25,16.87-4.74,23.29-6.28" transform="matrix(1,0,0,1,396,-4)" class="stroke_order_diagram--existing_path"></path><path id="pathSk2v596cn4qd2" kvg:type="㇔" d="M40.62,48.62c2.51,2.27,6.5,9.33,7.12,12.86" transform="matrix(1,0,0,1,396,-4)" class="stroke_order_diagram--existing_path"></path><path id="pathSk2v596cn4qd3" kvg:type="㇑" d="M32.39,61.12c0.81,0.81,1.23,2.26,1.23,3.84c0,7.42-0.09,16.79-0.09,23.54c0,2.96-0.11,4-0.11,6.42" transform="matrix(1,0,0,1,396,-4)" class="stroke_order_diagram--existing_path"></path><path id="kvg:07d79-s5" kvg:type="㇒" d="M24.12,70.75c0.18,0.92,0.15,2.5-0.18,3.16c-2.12,4.32-7.18,12.89-10.19,16.59" transform="matrix(1,0,0,1,396,-4)" class="stroke_order_diagram--current_path"></path><path id="pathSk2v596cn4qd5" kvg:type="㇒" d="M24.12,70.75c0.18,0.92,0.15,2.5-0.18,3.16c-2.12,4.32-7.18,12.89-10.19,16.59" transform="matrix(1,0,0,1,396,-4)" class="stroke_order_diagram--current_path"></path><circle cx="24.12" cy="70.75" r="8" class="stroke_order_diagram--path_start" transform="matrix(1,0,0,1,396,-4)"></circle><line x1="550" x2="550" y1="1" y2="99" class="stroke_order_diagram--guide_line"></line><line x1="599" x2="599" y1="1" y2="99" class="stroke_order_diagram--bounding_box"></line><path id="pathSk2v596cn4qd8" kvg:type="㇜" d="M33.13,14.17c0.34,1.34,0.32,2.68-0.42,4.05c-3.08,5.65-7.49,12.82-12.05,17.97c-0.63,0.71-0.68,3.1,0,3.35c3.6,1.34,6.22,1.95,10.22,4.31" transform="matrix(1,0,0,1,496,-4)" class="stroke_order_diagram--existing_path"></path><path id="pathSk2v596cn4qd9" kvg:type="㇜" d="M43.55,26.93c0.32,1.07,0.32,2.32-0.25,3.09c-7.3,9.8-15.74,19.68-23.73,27.94c-1.83,1.89-0.7,3.42,1.65,2.84c5.1-1.25,16.87-4.74,23.29-6.28" transform="matrix(1,0,0,1,496,-4)" class="stroke_order_diagram--existing_path"></path><path id="pathSk2v596cn4qda" kvg:type="㇔" d="M40.62,48.62c2.51,2.27,6.5,9.33,7.12,12.86" transform="matrix(1,0,0,1,496,-4)" class="stroke_order_diagram--existing_path"></path><path id="pathSk2v596cn4qdb" kvg:type="㇑" d="M32.39,61.12c0.81,0.81,1.23,2.26,1.23,3.84c0,7.42-0.09,16.79-0.09,23.54c0,2.96-0.11,4-0.11,6.42" transform="matrix(1,0,0,1,496,-4)" class="stroke_order_diagram--existing_path"></path><path id="pathSk2v596cn4qdc" kvg:type="㇒" d="M24.12,70.75c0.18,0.92,0.15,2.5-0.18,3.16c-2.12,4.32-7.18,12.89-10.19,16.59" transform="matrix(1,0,0,1,496,-4)" class="stroke_order_diagram--existing_path"></path><path id="kvg:07d79-s6" kvg:type="㇔" d="M41.5,70.12c3.71,3.63,6.56,12.06,7.42,15.35" transform="matrix(1,0,0,1,496,-4)" class="stroke_order_diagram--current_path"></path><path id="pathSk2v596cn4qde" kvg:type="㇔" d="M41.5,70.12c3.71,3.63,6.56,12.06,7.42,15.35" transform="matrix(1,0,0,1,496,-4)" class="stroke_order_diagram--current_path"></path><circle cx="41.5" cy="70.12" r="8" class="stroke_order_diagram--path_start" transform="matrix(1,0,0,1,496,-4)"></circle><line x1="650" x2="650" y1="1" y2="99" class="stroke_order_diagram--guide_line"></line><line x1="699" x2="699" y1="1" y2="99" class="stroke_order_diagram--bounding_box"></line><path id="pathSk2v596cn4qdh" kvg:type="㇜" d="M33.13,14.17c0.34,1.34,0.32,2.68-0.42,4.05c-3.08,5.65-7.49,12.82-12.05,17.97c-0.63,0.71-0.68,3.1,0,3.35c3.6,1.34,6.22,1.95,10.22,4.31" transform="matrix(1,0,0,1,596,-4)" class="stroke_order_diagram--existing_path"></path><path id="pathSk2v596cn4qdi" kvg:type="㇜" d="M43.55,26.93c0.32,1.07,0.32,2.32-0.25,3.09c-7.3,9.8-15.74,19.68-23.73,27.94c-1.83,1.89-0.7,3.42,1.65,2.84c5.1-1.25,16.87-4.74,23.29-6.28" transform="matrix(1,0,0,1,596,-4)" class="stroke_order_diagram--existing_path"></path><path id="pathSk2v596cn4qdj" kvg:type="㇔" d="M40.62,48.62c2.51,2.27,6.5,9.33,7.12,12.86" transform="matrix(1,0,0,1,596,-4)" class="stroke_order_diagram--existing_path"></path><path id="pathSk2v596cn4qdk" kvg:type="㇑" d="M32.39,61.12c0.81,0.81,1.23,2.26,1.23,3.84c0,7.42-0.09,16.79-0.09,23.54c0,2.96-0.11,4-0.11,6.42" transform="matrix(1,0,0,1,596,-4)" class="stroke_order_diagram--existing_path"></path><path id="pathSk2v596cn4qdl" kvg:type="㇒" d="M24.12,70.75c0.18,0.92,0.15,2.5-0.18,3.16c-2.12,4.32-7.18,12.89-10.19,16.59" transform="matrix(1,0,0,1,596,-4)" class="stroke_order_diagram--existing_path"></path><path id="pathSk2v596cn4qdm" kvg:type="㇔" d="M41.5,70.12c3.71,3.63,6.56,12.06,7.42,15.35" transform="matrix(1,0,0,1,596,-4)" class="stroke_order_diagram--existing_path"></path><path id="kvg:07d79-s7" kvg:type="㇑" d="M55.21,15.98c0.71,0.71,1.16,1.52,1.33,2.35c0.89,4.31,1.79,8.89,2.5,13.41c0.21,1.34,0.41,2.61,0.58,3.72" transform="matrix(1,0,0,1,596,-4)" class="stroke_order_diagram--current_path"></path><path id="pathSk2v596cn4qdo" kvg:type="㇑" d="M55.21,15.98c0.71,0.71,1.16,1.52,1.33,2.35c0.89,4.31,1.79,8.89,2.5,13.41c0.21,1.34,0.41,2.61,0.58,3.72" transform="matrix(1,0,0,1,596,-4)" class="stroke_order_diagram--current_path"></path><circle cx="55.21" cy="15.98" r="8" class="stroke_order_diagram--path_start" transform="matrix(1,0,0,1,596,-4)"></circle><line x1="750" x2="750" y1="1" y2="99" class="stroke_order_diagram--guide_line"></line><line x1="799" x2="799" y1="1" y2="99" class="stroke_order_diagram--bounding_box"></line><path id="pathSk2v596cn4qdr" kvg:type="㇜" d="M33.13,14.17c0.34,1.34,0.32,2.68-0.42,4.05c-3.08,5.65-7.49,12.82-12.05,17.97c-0.63,0.71-0.68,3.1,0,3.35c3.6,1.34,6.22,1.95,10.22,4.31" transform="matrix(1,0,0,1,696,-4)" class="stroke_order_diagram--existing_path"></path><path id="pathSk2v596cn4qds" kvg:type="㇜" d="M43.55,26.93c0.32,1.07,0.32,2.32-0.25,3.09c-7.3,9.8-15.74,19.68-23.73,27.94c-1.83,1.89-0.7,3.42,1.65,2.84c5.1-1.25,16.87-4.74,23.29-6.28" transform="matrix(1,0,0,1,696,-4)" class="stroke_order_diagram--existing_path"></path><path id="pathSk2v596cn4qdt" kvg:type="㇔" d="M40.62,48.62c2.51,2.27,6.5,9.33,7.12,12.86" transform="matrix(1,0,0,1,696,-4)" class="stroke_order_diagram--existing_path"></path><path id="pathSk2v596cn4qdu" kvg:type="㇑" d="M32.39,61.12c0.81,0.81,1.23,2.26,1.23,3.84c0,7.42-0.09,16.79-0.09,23.54c0,2.96-0.11,4-0.11,6.42" transform="matrix(1,0,0,1,696,-4)" class="stroke_order_diagram--existing_path"></path><path id="pathSk2v596cn4qdv" kvg:type="㇒" d="M24.12,70.75c0.18,0.92,0.15,2.5-0.18,3.16c-2.12,4.32-7.18,12.89-10.19,16.59" transform="matrix(1,0,0,1,696,-4)" class="stroke_order_diagram--existing_path"></path><path id="pathSk2v596cn4qdw" kvg:type="㇔" d="M41.5,70.12c3.71,3.63,6.56,12.06,7.42,15.35" transform="matrix(1,0,0,1,696,-4)" class="stroke_order_diagram--existing_path"></path><path id="pathSk2v596cn4qdx" kvg:type="㇑" d="M55.21,15.98c0.71,0.71,1.16,1.52,1.33,2.35c0.89,4.31,1.79,8.89,2.5,13.41c0.21,1.34,0.41,2.61,0.58,3.72" transform="matrix(1,0,0,1,696,-4)" class="stroke_order_diagram--existing_path"></path><path id="kvg:07d79-s8" kvg:type="㇕b" d="M57.17,17.54c7.81-1.16,22.21-2.44,28.33-3c2.84-0.26,4.62,0.51,3.78,3.6c-0.95,3.46-1.91,6.36-3.59,12.02" transform="matrix(1,0,0,1,696,-4)" class="stroke_order_diagram--current_path"></path><path id="pathSk2v596cn4qdz" kvg:type="㇕b" d="M57.17,17.54c7.81-1.16,22.21-2.44,28.33-3c2.84-0.26,4.62,0.51,3.78,3.6c-0.95,3.46-1.91,6.36-3.59,12.02" transform="matrix(1,0,0,1,696,-4)" class="stroke_order_diagram--current_path"></path><circle cx="57.17" cy="17.54" r="8" class="stroke_order_diagram--path_start" transform="matrix(1,0,0,1,696,-4)"></circle><line x1="850" x2="850" y1="1" y2="99" class="stroke_order_diagram--guide_line"></line><line x1="899" x2="899" y1="1" y2="99" class="stroke_order_diagram--bounding_box"></line><path id="pathSk2v596cn4qe2" kvg:type="㇜" d="M33.13,14.17c0.34,1.34,0.32,2.68-0.42,4.05c-3.08,5.65-7.49,12.82-12.05,17.97c-0.63,0.71-0.68,3.1,0,3.35c3.6,1.34,6.22,1.95,10.22,4.31" transform="matrix(1,0,0,1,796,-4)" class="stroke_order_diagram--existing_path"></path><path id="pathSk2v596cn4qe3" kvg:type="㇜" d="M43.55,26.93c0.32,1.07,0.32,2.32-0.25,3.09c-7.3,9.8-15.74,19.68-23.73,27.94c-1.83,1.89-0.7,3.42,1.65,2.84c5.1-1.25,16.87-4.74,23.29-6.28" transform="matrix(1,0,0,1,796,-4)" class="stroke_order_diagram--existing_path"></path><path id="pathSk2v596cn4qe4" kvg:type="㇔" d="M40.62,48.62c2.51,2.27,6.5,9.33,7.12,12.86" transform="matrix(1,0,0,1,796,-4)" class="stroke_order_diagram--existing_path"></path><path id="pathSk2v596cn4qe5" kvg:type="㇑" d="M32.39,61.12c0.81,0.81,1.23,2.26,1.23,3.84c0,7.42-0.09,16.79-0.09,23.54c0,2.96-0.11,4-0.11,6.42" transform="matrix(1,0,0,1,796,-4)" class="stroke_order_diagram--existing_path"></path><path id="pathSk2v596cn4qe6" kvg:type="㇒" d="M24.12,70.75c0.18,0.92,0.15,2.5-0.18,3.16c-2.12,4.32-7.18,12.89-10.19,16.59" transform="matrix(1,0,0,1,796,-4)" class="stroke_order_diagram--existing_path"></path><path id="pathSk2v596cn4qe7" kvg:type="㇔" d="M41.5,70.12c3.71,3.63,6.56,12.06,7.42,15.35" transform="matrix(1,0,0,1,796,-4)" class="stroke_order_diagram--existing_path"></path><path id="pathSk2v596cn4qe8" kvg:type="㇑" d="M55.21,15.98c0.71,0.71,1.16,1.52,1.33,2.35c0.89,4.31,1.79,8.89,2.5,13.41c0.21,1.34,0.41,2.61,0.58,3.72" transform="matrix(1,0,0,1,796,-4)" class="stroke_order_diagram--existing_path"></path><path id="pathSk2v596cn4qe9" kvg:type="㇕b" d="M57.17,17.54c7.81-1.16,22.21-2.44,28.33-3c2.84-0.26,4.62,0.51,3.78,3.6c-0.95,3.46-1.91,6.36-3.59,12.02" transform="matrix(1,0,0,1,796,-4)" class="stroke_order_diagram--existing_path"></path><path id="kvg:07d79-s9" kvg:type="㇐b" d="M60.48,33.44c4.36-0.41,15.32-1.55,23.78-2.05c1.76-0.1,3.39-0.19,4.83-0.25" transform="matrix(1,0,0,1,796,-4)" class="stroke_order_diagram--current_path"></path><path id="pathSk2v596cn4qeb" kvg:type="㇐b" d="M60.48,33.44c4.36-0.41,15.32-1.55,23.78-2.05c1.76-0.1,3.39-0.19,4.83-0.25" transform="matrix(1,0,0,1,796,-4)" class="stroke_order_diagram--current_path"></path><circle cx="60.48" cy="33.44" r="8" class="stroke_order_diagram--path_start" transform="matrix(1,0,0,1,796,-4)"></circle><line x1="950" x2="950" y1="1" y2="99" class="stroke_order_diagram--guide_line"></line><line x1="999" x2="999" y1="1" y2="99" class="stroke_order_diagram--bounding_box"></line><path id="pathSk2v596cn4qee" kvg:type="㇜" d="M33.13,14.17c0.34,1.34,0.32,2.68-0.42,4.05c-3.08,5.65-7.49,12.82-12.05,17.97c-0.63,0.71-0.68,3.1,0,3.35c3.6,1.34,6.22,1.95,10.22,4.31" transform="matrix(1,0,0,1,896,-4)" class="stroke_order_diagram--existing_path"></path><path id="pathSk2v596cn4qef" kvg:type="㇜" d="M43.55,26.93c0.32,1.07,0.32,2.32-0.25,3.09c-7.3,9.8-15.74,19.68-23.73,27.94c-1.83,1.89-0.7,3.42,1.65,2.84c5.1-1.25,16.87-4.74,23.29-6.28" transform="matrix(1,0,0,1,896,-4)" class="stroke_order_diagram--existing_path"></path><path id="pathSk2v596cn4qeg" kvg:type="㇔" d="M40.62,48.62c2.51,2.27,6.5,9.33,7.12,12.86" transform="matrix(1,0,0,1,896,-4)" class="stroke_order_diagram--existing_path"></path><path id="pathSk2v596cn4qeh" kvg:type="㇑" d="M32.39,61.12c0.81,0.81,1.23,2.26,1.23,3.84c0,7.42-0.09,16.79-0.09,23.54c0,2.96-0.11,4-0.11,6.42" transform="matrix(1,0,0,1,896,-4)" class="stroke_order_diagram--existing_path"></path><path id="pathSk2v596cn4qei" kvg:type="㇒" d="M24.12,70.75c0.18,0.92,0.15,2.5-0.18,3.16c-2.12,4.32-7.18,12.89-10.19,16.59" transform="matrix(1,0,0,1,896,-4)" class="stroke_order_diagram--existing_path"></path><path id="pathSk2v596cn4qej" kvg:type="㇔" d="M41.5,70.12c3.71,3.63,6.56,12.06,7.42,15.35" transform="matrix(1,0,0,1,896,-4)" class="stroke_order_diagram--existing_path"></path><path id="pathSk2v596cn4qek" kvg:type="㇑" d="M55.21,15.98c0.71,0.71,1.16,1.52,1.33,2.35c0.89,4.31,1.79,8.89,2.5,13.41c0.21,1.34,0.41,2.61,0.58,3.72" transform="matrix(1,0,0,1,896,-4)" class="stroke_order_diagram--existing_path"></path><path id="pathSk2v596cn4qel" kvg:type="㇕b" d="M57.17,17.54c7.81-1.16,22.21-2.44,28.33-3c2.84-0.26,4.62,0.51,3.78,3.6c-0.95,3.46-1.91,6.36-3.59,12.02" transform="matrix(1,0,0,1,896,-4)" class="stroke_order_diagram--existing_path"></path><path id="pathSk2v596cn4qem" kvg:type="㇐b" d="M60.48,33.44c4.36-0.41,15.32-1.55,23.78-2.05c1.76-0.1,3.39-0.19,4.83-0.25" transform="matrix(1,0,0,1,896,-4)" class="stroke_order_diagram--existing_path"></path><path id="kvg:07d79-s10" kvg:type="㇑/㇒" d="M56.74,44.03c0.87,0.87,1.46,1.85,1.46,3.18c0,5.67-0.02,28.42-0.02,40.55c0,3.42-0.01,5.74-0.03,6.13" transform="matrix(1,0,0,1,896,-4)" class="stroke_order_diagram--current_path"></path><path id="pathSk2v596cn4qeo" kvg:type="㇑/㇒" d="M56.74,44.03c0.87,0.87,1.46,1.85,1.46,3.18c0,5.67-0.02,28.42-0.02,40.55c0,3.42-0.01,5.74-0.03,6.13" transform="matrix(1,0,0,1,896,-4)" class="stroke_order_diagram--current_path"></path><circle cx="56.74" cy="44.03" r="8" class="stroke_order_diagram--path_start" transform="matrix(1,0,0,1,896,-4)"></circle><line x1="1050" x2="1050" y1="1" y2="99" class="stroke_order_diagram--guide_line"></line><line x1="1099" x2="1099" y1="1" y2="99" class="stroke_order_diagram--bounding_box"></line><path id="pathSk2v596cn4qer" kvg:type="㇜" d="M33.13,14.17c0.34,1.34,0.32,2.68-0.42,4.05c-3.08,5.65-7.49,12.82-12.05,17.97c-0.63,0.71-0.68,3.1,0,3.35c3.6,1.34,6.22,1.95,10.22,4.31" transform="matrix(1,0,0,1,996,-4)" class="stroke_order_diagram--existing_path"></path><path id="pathSk2v596cn4qes" kvg:type="㇜" d="M43.55,26.93c0.32,1.07,0.32,2.32-0.25,3.09c-7.3,9.8-15.74,19.68-23.73,27.94c-1.83,1.89-0.7,3.42,1.65,2.84c5.1-1.25,16.87-4.74,23.29-6.28" transform="matrix(1,0,0,1,996,-4)" class="stroke_order_diagram--existing_path"></path><path id="pathSk2v596cn4qet" kvg:type="㇔" d="M40.62,48.62c2.51,2.27,6.5,9.33,7.12,12.86" transform="matrix(1,0,0,1,996,-4)" class="stroke_order_diagram--existing_path"></path><path id="pathSk2v596cn4qeu" kvg:type="㇑" d="M32.39,61.12c0.81,0.81,1.23,2.26,1.23,3.84c0,7.42-0.09,16.79-0.09,23.54c0,2.96-0.11,4-0.11,6.42" transform="matrix(1,0,0,1,996,-4)" class="stroke_order_diagram--existing_path"></path><path id="pathSk2v596cn4qev" kvg:type="㇒" d="M24.12,70.75c0.18,0.92,0.15,2.5-0.18,3.16c-2.12,4.32-7.18,12.89-10.19,16.59" transform="matrix(1,0,0,1,996,-4)" class="stroke_order_diagram--existing_path"></path><path id="pathSk2v596cn4qew" kvg:type="㇔" d="M41.5,70.12c3.71,3.63,6.56,12.06,7.42,15.35" transform="matrix(1,0,0,1,996,-4)" class="stroke_order_diagram--existing_path"></path><path id="pathSk2v596cn4qex" kvg:type="㇑" d="M55.21,15.98c0.71,0.71,1.16,1.52,1.33,2.35c0.89,4.31,1.79,8.89,2.5,13.41c0.21,1.34,0.41,2.61,0.58,3.72" transform="matrix(1,0,0,1,996,-4)" class="stroke_order_diagram--existing_path"></path><path id="pathSk2v596cn4qey" kvg:type="㇕b" d="M57.17,17.54c7.81-1.16,22.21-2.44,28.33-3c2.84-0.26,4.62,0.51,3.78,3.6c-0.95,3.46-1.91,6.36-3.59,12.02" transform="matrix(1,0,0,1,996,-4)" class="stroke_order_diagram--existing_path"></path><path id="pathSk2v596cn4qez" kvg:type="㇐b" d="M60.48,33.44c4.36-0.41,15.32-1.55,23.78-2.05c1.76-0.1,3.39-0.19,4.83-0.25" transform="matrix(1,0,0,1,996,-4)" class="stroke_order_diagram--existing_path"></path><path id="pathSk2v596cn4qf0" kvg:type="㇑/㇒" d="M56.74,44.03c0.87,0.87,1.46,1.85,1.46,3.18c0,5.67-0.02,28.42-0.02,40.55c0,3.42-0.01,5.74-0.03,6.13" transform="matrix(1,0,0,1,996,-4)" class="stroke_order_diagram--existing_path"></path><path id="kvg:07d79-s11" kvg:type="㇆a" d="M59.16,46.09c2.43-0.2,24.45-2.37,26.26-2.6c3.24-0.4,4.55,0.88,4.55,3.6c0,5.91-0.11,24.61-0.11,41.01c0,10.52-5.61,2.39-7.63,0.57" transform="matrix(1,0,0,1,996,-4)" class="stroke_order_diagram--current_path"></path><path id="pathSk2v596cn4qf2" kvg:type="㇆a" d="M59.16,46.09c2.43-0.2,24.45-2.37,26.26-2.6c3.24-0.4,4.55,0.88,4.55,3.6c0,5.91-0.11,24.61-0.11,41.01c0,10.52-5.61,2.39-7.63,0.57" transform="matrix(1,0,0,1,996,-4)" class="stroke_order_diagram--current_path"></path><circle cx="59.16" cy="46.09" r="8" class="stroke_order_diagram--path_start" transform="matrix(1,0,0,1,996,-4)"></circle><line x1="1150" x2="1150" y1="1" y2="99" class="stroke_order_diagram--guide_line"></line><line x1="1199" x2="1199" y1="1" y2="99" class="stroke_order_diagram--bounding_box"></line><path id="pathSk2v596cn4qf5" kvg:type="㇜" d="M33.13,14.17c0.34,1.34,0.32,2.68-0.42,4.05c-3.08,5.65-7.49,12.82-12.05,17.97c-0.63,0.71-0.68,3.1,0,3.35c3.6,1.34,6.22,1.95,10.22,4.31" transform="matrix(1,0,0,1,1096,-4)" class="stroke_order_diagram--existing_path"></path><path id="pathSk2v596cn4qf6" kvg:type="㇜" d="M43.55,26.93c0.32,1.07,0.32,2.32-0.25,3.09c-7.3,9.8-15.74,19.68-23.73,27.94c-1.83,1.89-0.7,3.42,1.65,2.84c5.1-1.25,16.87-4.74,23.29-6.28" transform="matrix(1,0,0,1,1096,-4)" class="stroke_order_diagram--existing_path"></path><path id="pathSk2v596cn4qf7" kvg:type="㇔" d="M40.62,48.62c2.51,2.27,6.5,9.33,7.12,12.86" transform="matrix(1,0,0,1,1096,-4)" class="stroke_order_diagram--existing_path"></path><path id="pathSk2v596cn4qf8" kvg:type="㇑" d="M32.39,61.12c0.81,0.81,1.23,2.26,1.23,3.84c0,7.42-0.09,16.79-0.09,23.54c0,2.96-0.11,4-0.11,6.42" transform="matrix(1,0,0,1,1096,-4)" class="stroke_order_diagram--existing_path"></path><path id="pathSk2v596cn4qf9" kvg:type="㇒" d="M24.12,70.75c0.18,0.92,0.15,2.5-0.18,3.16c-2.12,4.32-7.18,12.89-10.19,16.59" transform="matrix(1,0,0,1,1096,-4)" class="stroke_order_diagram--existing_path"></path><path id="pathSk2v596cn4qfa" kvg:type="㇔" d="M41.5,70.12c3.71,3.63,6.56,12.06,7.42,15.35" transform="matrix(1,0,0,1,1096,-4)" class="stroke_order_diagram--existing_path"></path><path id="pathSk2v596cn4qfb" kvg:type="㇑" d="M55.21,15.98c0.71,0.71,1.16,1.52,1.33,2.35c0.89,4.31,1.79,8.89,2.5,13.41c0.21,1.34,0.41,2.61,0.58,3.72" transform="matrix(1,0,0,1,1096,-4)" class="stroke_order_diagram--existing_path"></path><path id="pathSk2v596cn4qfc" kvg:type="㇕b" d="M57.17,17.54c7.81-1.16,22.21-2.44,28.33-3c2.84-0.26,4.62,0.51,3.78,3.6c-0.95,3.46-1.91,6.36-3.59,12.02" transform="matrix(1,0,0,1,1096,-4)" class="stroke_order_diagram--existing_path"></path><path id="pathSk2v596cn4qfd" kvg:type="㇐b" d="M60.48,33.44c4.36-0.41,15.32-1.55,23.78-2.05c1.76-0.1,3.39-0.19,4.83-0.25" transform="matrix(1,0,0,1,1096,-4)" class="stroke_order_diagram--existing_path"></path><path id="pathSk2v596cn4qfe" kvg:type="㇑/㇒" d="M56.74,44.03c0.87,0.87,1.46,1.85,1.46,3.18c0,5.67-0.02,28.42-0.02,40.55c0,3.42-0.01,5.74-0.03,6.13" transform="matrix(1,0,0,1,1096,-4)" class="stroke_order_diagram--existing_path"></path><path id="pathSk2v596cn4qff" kvg:type="㇆a" d="M59.16,46.09c2.43-0.2,24.45-2.37,26.26-2.6c3.24-0.4,4.55,0.88,4.55,3.6c0,5.91-0.11,24.61-0.11,41.01c0,10.52-5.61,2.39-7.63,0.57" transform="matrix(1,0,0,1,1096,-4)" class="stroke_order_diagram--existing_path"></path><path id="kvg:07d79-s12" kvg:type="㇐a" d="M59.41,59.92c8.34-0.54,22.36-1.79,29.64-2.39" transform="matrix(1,0,0,1,1096,-4)" class="stroke_order_diagram--current_path"></path><path id="pathSk2v596cn4qfh" kvg:type="㇐a" d="M59.41,59.92c8.34-0.54,22.36-1.79,29.64-2.39" transform="matrix(1,0,0,1,1096,-4)" class="stroke_order_diagram--current_path"></path><circle cx="59.41" cy="59.92" r="8" class="stroke_order_diagram--path_start" transform="matrix(1,0,0,1,1096,-4)"></circle><line x1="1250" x2="1250" y1="1" y2="99" class="stroke_order_diagram--guide_line"></line><line x1="1299" x2="1299" y1="1" y2="99" class="stroke_order_diagram--bounding_box"></line><path id="pathSk2v596cn4qfk" kvg:type="㇜" d="M33.13,14.17c0.34,1.34,0.32,2.68-0.42,4.05c-3.08,5.65-7.49,12.82-12.05,17.97c-0.63,0.71-0.68,3.1,0,3.35c3.6,1.34,6.22,1.95,10.22,4.31" transform="matrix(1,0,0,1,1196,-4)" class="stroke_order_diagram--existing_path"></path><path id="pathSk2v596cn4qfl" kvg:type="㇜" d="M43.55,26.93c0.32,1.07,0.32,2.32-0.25,3.09c-7.3,9.8-15.74,19.68-23.73,27.94c-1.83,1.89-0.7,3.42,1.65,2.84c5.1-1.25,16.87-4.74,23.29-6.28" transform="matrix(1,0,0,1,1196,-4)" class="stroke_order_diagram--existing_path"></path><path id="pathSk2v596cn4qfm" kvg:type="㇔" d="M40.62,48.62c2.51,2.27,6.5,9.33,7.12,12.86" transform="matrix(1,0,0,1,1196,-4)" class="stroke_order_diagram--existing_path"></path><path id="pathSk2v596cn4qfn" kvg:type="㇑" d="M32.39,61.12c0.81,0.81,1.23,2.26,1.23,3.84c0,7.42-0.09,16.79-0.09,23.54c0,2.96-0.11,4-0.11,6.42" transform="matrix(1,0,0,1,1196,-4)" class="stroke_order_diagram--existing_path"></path><path id="pathSk2v596cn4qfo" kvg:type="㇒" d="M24.12,70.75c0.18,0.92,0.15,2.5-0.18,3.16c-2.12,4.32-7.18,12.89-10.19,16.59" transform="matrix(1,0,0,1,1196,-4)" class="stroke_order_diagram--existing_path"></path><path id="pathSk2v596cn4qfp" kvg:type="㇔" d="M41.5,70.12c3.71,3.63,6.56,12.06,7.42,15.35" transform="matrix(1,0,0,1,1196,-4)" class="stroke_order_diagram--existing_path"></path><path id="pathSk2v596cn4qfq" kvg:type="㇑" d="M55.21,15.98c0.71,0.71,1.16,1.52,1.33,2.35c0.89,4.31,1.79,8.89,2.5,13.41c0.21,1.34,0.41,2.61,0.58,3.72" transform="matrix(1,0,0,1,1196,-4)" class="stroke_order_diagram--existing_path"></path><path id="pathSk2v596cn4qfr" kvg:type="㇕b" d="M57.17,17.54c7.81-1.16,22.21-2.44,28.33-3c2.84-0.26,4.62,0.51,3.78,3.6c-0.95,3.46-1.91,6.36-3.59,12.02" transform="matrix(1,0,0,1,1196,-4)" class="stroke_order_diagram--existing_path"></path><path id="pathSk2v596cn4qfs" kvg:type="㇐b" d="M60.48,33.44c4.36-0.41,15.32-1.55,23.78-2.05c1.76-0.1,3.39-0.19,4.83-0.25" transform="matrix(1,0,0,1,1196,-4)" class="stroke_order_diagram--existing_path"></path><path id="pathSk2v596cn4qft" kvg:type="㇑/㇒" d="M56.74,44.03c0.87,0.87,1.46,1.85,1.46,3.18c0,5.67-0.02,28.42-0.02,40.55c0,3.42-0.01,5.74-0.03,6.13" transform="matrix(1,0,0,1,1196,-4)" class="stroke_order_diagram--existing_path"></path><path id="pathSk2v596cn4qfu" kvg:type="㇆a" d="M59.16,46.09c2.43-0.2,24.45-2.37,26.26-2.6c3.24-0.4,4.55,0.88,4.55,3.6c0,5.91-0.11,24.61-0.11,41.01c0,10.52-5.61,2.39-7.63,0.57" transform="matrix(1,0,0,1,1196,-4)" class="stroke_order_diagram--existing_path"></path><path id="pathSk2v596cn4qfv" kvg:type="㇐a" d="M59.41,59.92c8.34-0.54,22.36-1.79,29.64-2.39" transform="matrix(1,0,0,1,1196,-4)" class="stroke_order_diagram--existing_path"></path><path id="kvg:07d79-s13" kvg:type="㇐a" d="M59.27,72.66c6.48-0.61,22.39-1.93,29.88-2.33" transform="matrix(1,0,0,1,1196,-4)" class="stroke_order_diagram--current_path"></path><path id="pathSk2v596cn4qfx" kvg:type="㇐a" d="M59.27,72.66c6.48-0.61,22.39-1.93,29.88-2.33" transform="matrix(1,0,0,1,1196,-4)" class="stroke_order_diagram--current_path"></path><circle cx="59.27" cy="72.66" r="8" class="stroke_order_diagram--path_start" transform="matrix(1,0,0,1,1196,-4)"></circle></svg>