<svg style="width: 1700px; height: 100px;" viewbox="0 0 1700 100"><style>
.stroke_order_diagram--outer_container {
  width: 100%;
  overflow-x: auto;
  overflow-y: hidden;
}

.stroke_order_diagram--guide_line {
  fill: none;
  stroke: #ddd;
  stroke-width: 3;
  stroke-linecap: square;
  stroke-linejoin: square;
  stroke-dasharray:8, 8;
}

.stroke_order_diagram--bounding_box {
  fill: none;
  stroke: #ddd;
  stroke-width: 4;
  stroke-linecap: square;
  stroke-linejoin: square;
}

.stroke_order_diagram--current_path {
  fill: none;
  stroke: #000;
  stroke-width: 6;
  stroke-linecap: round;
  stroke-linejoin: round;
}

.stroke_order_diagram--existing_path {
  fill: none;
  stroke: #aaa;
  stroke-width: 6;
  stroke-linecap: round;
  stroke-linejoin:round;
}

.stroke_order_diagram--path_start {
  fill: rgba(255, 0, 0, 0.7);
  stroke:none
}</style><desc>Created with Snap</desc><defs></defs><line x1="1" x2="1699" y1="1" y2="1" class="stroke_order_diagram--bounding_box"></line><line x1="1" x2="1" y1="1" y2="99" class="stroke_order_diagram--bounding_box"></line><line x1="1" x2="1699" y1="99" y2="99" class="stroke_order_diagram--bounding_box"></line><line x1="0" x2="1700" y1="50" y2="50" class="stroke_order_diagram--guide_line"></line><line x1="50" x2="50" y1="1" y2="99" class="stroke_order_diagram--guide_line"></line><line x1="99" x2="99" y1="1" y2="99" class="stroke_order_diagram--bounding_box"></line><path id="kvg:07e4a-s1" kvg:type="㇜" d="M26.13,15.42c0.34,1.34,0.25,2.4-0.42,3.8c-3.08,6.4-6.58,11.65-11.3,17.72c-0.96,1.24-0.65,2.68,0.5,3.35c3.2,1.86,3.72,2.08,7.72,4.81" transform="matrix(1,0,0,1,-4,-4)" class="stroke_order_diagram--current_path"></path><path id="pathSk2v596cn484a" kvg:type="㇜" d="M26.13,15.42c0.34,1.34,0.25,2.4-0.42,3.8c-3.08,6.4-6.58,11.65-11.3,17.72c-0.96,1.24-0.65,2.68,0.5,3.35c3.2,1.86,3.72,2.08,7.72,4.81" transform="matrix(1,0,0,1,-4,-4)" class="stroke_order_diagram--current_path"></path><circle cx="26.13" cy="15.42" r="8" class="stroke_order_diagram--path_start" transform="matrix(1,0,0,1,-4,-4)"></circle><line x1="150" x2="150" y1="1" y2="99" class="stroke_order_diagram--guide_line"></line><line x1="199" x2="199" y1="1" y2="99" class="stroke_order_diagram--bounding_box"></line><path id="pathSk2v596cn484d" kvg:type="㇜" d="M26.13,15.42c0.34,1.34,0.25,2.4-0.42,3.8c-3.08,6.4-6.58,11.65-11.3,17.72c-0.96,1.24-0.65,2.68,0.5,3.35c3.2,1.86,3.72,2.08,7.72,4.81" transform="matrix(1,0,0,1,96,-4)" class="stroke_order_diagram--existing_path"></path><path id="kvg:07e4a-s2" kvg:type="㇜" d="M36.3,23.18c0.32,1.32,0.2,2.7-0.5,3.84c-5.9,9.68-12.55,19.73-20.48,29.69c-1.64,2.06,0.46,2.98,1.65,2.59c5-1.61,11.37-2.99,17.79-4.53" transform="matrix(1,0,0,1,96,-4)" class="stroke_order_diagram--current_path"></path><path id="pathSk2v596cn484f" kvg:type="㇜" d="M36.3,23.18c0.32,1.32,0.2,2.7-0.5,3.84c-5.9,9.68-12.55,19.73-20.48,29.69c-1.64,2.06,0.46,2.98,1.65,2.59c5-1.61,11.37-2.99,17.79-4.53" transform="matrix(1,0,0,1,96,-4)" class="stroke_order_diagram--current_path"></path><circle cx="36.3" cy="23.18" r="8" class="stroke_order_diagram--path_start" transform="matrix(1,0,0,1,96,-4)"></circle><line x1="250" x2="250" y1="1" y2="99" class="stroke_order_diagram--guide_line"></line><line x1="299" x2="299" y1="1" y2="99" class="stroke_order_diagram--bounding_box"></line><path id="pathSk2v596cn484i" kvg:type="㇜" d="M26.13,15.42c0.34,1.34,0.25,2.4-0.42,3.8c-3.08,6.4-6.58,11.65-11.3,17.72c-0.96,1.24-0.65,2.68,0.5,3.35c3.2,1.86,3.72,2.08,7.72,4.81" transform="matrix(1,0,0,1,196,-4)" class="stroke_order_diagram--existing_path"></path><path id="pathSk2v596cn484j" kvg:type="㇜" d="M36.3,23.18c0.32,1.32,0.2,2.7-0.5,3.84c-5.9,9.68-12.55,19.73-20.48,29.69c-1.64,2.06,0.46,2.98,1.65,2.59c5-1.61,11.37-2.99,17.79-4.53" transform="matrix(1,0,0,1,196,-4)" class="stroke_order_diagram--existing_path"></path><path id="kvg:07e4a-s3" kvg:type="㇔" d="M31.75,48c1.94,1.81,5.01,7.42,5.5,10.23" transform="matrix(1,0,0,1,196,-4)" class="stroke_order_diagram--current_path"></path><path id="pathSk2v596cn484l" kvg:type="㇔" d="M31.75,48c1.94,1.81,5.01,7.42,5.5,10.23" transform="matrix(1,0,0,1,196,-4)" class="stroke_order_diagram--current_path"></path><circle cx="31.75" cy="48" r="8" class="stroke_order_diagram--path_start" transform="matrix(1,0,0,1,196,-4)"></circle><line x1="350" x2="350" y1="1" y2="99" class="stroke_order_diagram--guide_line"></line><line x1="399" x2="399" y1="1" y2="99" class="stroke_order_diagram--bounding_box"></line><path id="pathSk2v596cn484o" kvg:type="㇜" d="M26.13,15.42c0.34,1.34,0.25,2.4-0.42,3.8c-3.08,6.4-6.58,11.65-11.3,17.72c-0.96,1.24-0.65,2.68,0.5,3.35c3.2,1.86,3.72,2.08,7.72,4.81" transform="matrix(1,0,0,1,296,-4)" class="stroke_order_diagram--existing_path"></path><path id="pathSk2v596cn484p" kvg:type="㇜" d="M36.3,23.18c0.32,1.32,0.2,2.7-0.5,3.84c-5.9,9.68-12.55,19.73-20.48,29.69c-1.64,2.06,0.46,2.98,1.65,2.59c5-1.61,11.37-2.99,17.79-4.53" transform="matrix(1,0,0,1,296,-4)" class="stroke_order_diagram--existing_path"></path><path id="pathSk2v596cn484q" kvg:type="㇔" d="M31.75,48c1.94,1.81,5.01,7.42,5.5,10.23" transform="matrix(1,0,0,1,296,-4)" class="stroke_order_diagram--existing_path"></path><path id="kvg:07e4a-s4" kvg:type="㇑" d="M24.89,59.62c0.93,0.93,1.48,2.25,1.48,4.34c0,8.99-0.02,19.92,0,26.24c0.01,2.49-0.12,3.78-0.12,5.18" transform="matrix(1,0,0,1,296,-4)" class="stroke_order_diagram--current_path"></path><path id="pathSk2v596cn484s" kvg:type="㇑" d="M24.89,59.62c0.93,0.93,1.48,2.25,1.48,4.34c0,8.99-0.02,19.92,0,26.24c0.01,2.49-0.12,3.78-0.12,5.18" transform="matrix(1,0,0,1,296,-4)" class="stroke_order_diagram--current_path"></path><circle cx="24.89" cy="59.62" r="8" class="stroke_order_diagram--path_start" transform="matrix(1,0,0,1,296,-4)"></circle><line x1="450" x2="450" y1="1" y2="99" class="stroke_order_diagram--guide_line"></line><line x1="499" x2="499" y1="1" y2="99" class="stroke_order_diagram--bounding_box"></line><path id="pathSk2v596cn484v" kvg:type="㇜" d="M26.13,15.42c0.34,1.34,0.25,2.4-0.42,3.8c-3.08,6.4-6.58,11.65-11.3,17.72c-0.96,1.24-0.65,2.68,0.5,3.35c3.2,1.86,3.72,2.08,7.72,4.81" transform="matrix(1,0,0,1,396,-4)" class="stroke_order_diagram--existing_path"></path><path id="pathSk2v596cn484w" kvg:type="㇜" d="M36.3,23.18c0.32,1.32,0.2,2.7-0.5,3.84c-5.9,9.68-12.55,19.73-20.48,29.69c-1.64,2.06,0.46,2.98,1.65,2.59c5-1.61,11.37-2.99,17.79-4.53" transform="matrix(1,0,0,1,396,-4)" class="stroke_order_diagram--existing_path"></path><path id="pathSk2v596cn484x" kvg:type="㇔" d="M31.75,48c1.94,1.81,5.01,7.42,5.5,10.23" transform="matrix(1,0,0,1,396,-4)" class="stroke_order_diagram--existing_path"></path><path id="pathSk2v596cn484y" kvg:type="㇑" d="M24.89,59.62c0.93,0.93,1.48,2.25,1.48,4.34c0,8.99-0.02,19.92,0,26.24c0.01,2.49-0.12,3.78-0.12,5.18" transform="matrix(1,0,0,1,396,-4)" class="stroke_order_diagram--existing_path"></path><path id="kvg:07e4a-s5" kvg:type="㇒" d="M17.12,69.6c0.13,0.88,0.09,2.36-0.13,2.99c-1.87,5.29-3.62,10.16-7.62,15.79" transform="matrix(1,0,0,1,396,-4)" class="stroke_order_diagram--current_path"></path><path id="pathSk2v596cn4850" kvg:type="㇒" d="M17.12,69.6c0.13,0.88,0.09,2.36-0.13,2.99c-1.87,5.29-3.62,10.16-7.62,15.79" transform="matrix(1,0,0,1,396,-4)" class="stroke_order_diagram--current_path"></path><circle cx="17.12" cy="69.6" r="8" class="stroke_order_diagram--path_start" transform="matrix(1,0,0,1,396,-4)"></circle><line x1="550" x2="550" y1="1" y2="99" class="stroke_order_diagram--guide_line"></line><line x1="599" x2="599" y1="1" y2="99" class="stroke_order_diagram--bounding_box"></line><path id="pathSk2v596cn4853" kvg:type="㇜" d="M26.13,15.42c0.34,1.34,0.25,2.4-0.42,3.8c-3.08,6.4-6.58,11.65-11.3,17.72c-0.96,1.24-0.65,2.68,0.5,3.35c3.2,1.86,3.72,2.08,7.72,4.81" transform="matrix(1,0,0,1,496,-4)" class="stroke_order_diagram--existing_path"></path><path id="pathSk2v596cn4854" kvg:type="㇜" d="M36.3,23.18c0.32,1.32,0.2,2.7-0.5,3.84c-5.9,9.68-12.55,19.73-20.48,29.69c-1.64,2.06,0.46,2.98,1.65,2.59c5-1.61,11.37-2.99,17.79-4.53" transform="matrix(1,0,0,1,496,-4)" class="stroke_order_diagram--existing_path"></path><path id="pathSk2v596cn4855" kvg:type="㇔" d="M31.75,48c1.94,1.81,5.01,7.42,5.5,10.23" transform="matrix(1,0,0,1,496,-4)" class="stroke_order_diagram--existing_path"></path><path id="pathSk2v596cn4856" kvg:type="㇑" d="M24.89,59.62c0.93,0.93,1.48,2.25,1.48,4.34c0,8.99-0.02,19.92,0,26.24c0.01,2.49-0.12,3.78-0.12,5.18" transform="matrix(1,0,0,1,496,-4)" class="stroke_order_diagram--existing_path"></path><path id="pathSk2v596cn4857" kvg:type="㇒" d="M17.12,69.6c0.13,0.88,0.09,2.36-0.13,2.99c-1.87,5.29-3.62,10.16-7.62,15.79" transform="matrix(1,0,0,1,496,-4)" class="stroke_order_diagram--existing_path"></path><path id="kvg:07e4a-s6" kvg:type="㇔" d="M32.43,67.66c2.5,3.26,4.41,10.85,4.99,13.81" transform="matrix(1,0,0,1,496,-4)" class="stroke_order_diagram--current_path"></path><path id="pathSk2v596cn4859" kvg:type="㇔" d="M32.43,67.66c2.5,3.26,4.41,10.85,4.99,13.81" transform="matrix(1,0,0,1,496,-4)" class="stroke_order_diagram--current_path"></path><circle cx="32.43" cy="67.66" r="8" class="stroke_order_diagram--path_start" transform="matrix(1,0,0,1,496,-4)"></circle><line x1="650" x2="650" y1="1" y2="99" class="stroke_order_diagram--guide_line"></line><line x1="699" x2="699" y1="1" y2="99" class="stroke_order_diagram--bounding_box"></line><path id="pathSk2v596cn485c" kvg:type="㇜" d="M26.13,15.42c0.34,1.34,0.25,2.4-0.42,3.8c-3.08,6.4-6.58,11.65-11.3,17.72c-0.96,1.24-0.65,2.68,0.5,3.35c3.2,1.86,3.72,2.08,7.72,4.81" transform="matrix(1,0,0,1,596,-4)" class="stroke_order_diagram--existing_path"></path><path id="pathSk2v596cn485d" kvg:type="㇜" d="M36.3,23.18c0.32,1.32,0.2,2.7-0.5,3.84c-5.9,9.68-12.55,19.73-20.48,29.69c-1.64,2.06,0.46,2.98,1.65,2.59c5-1.61,11.37-2.99,17.79-4.53" transform="matrix(1,0,0,1,596,-4)" class="stroke_order_diagram--existing_path"></path><path id="pathSk2v596cn485e" kvg:type="㇔" d="M31.75,48c1.94,1.81,5.01,7.42,5.5,10.23" transform="matrix(1,0,0,1,596,-4)" class="stroke_order_diagram--existing_path"></path><path id="pathSk2v596cn485f" kvg:type="㇑" d="M24.89,59.62c0.93,0.93,1.48,2.25,1.48,4.34c0,8.99-0.02,19.92,0,26.24c0.01,2.49-0.12,3.78-0.12,5.18" transform="matrix(1,0,0,1,596,-4)" class="stroke_order_diagram--existing_path"></path><path id="pathSk2v596cn485g" kvg:type="㇒" d="M17.12,69.6c0.13,0.88,0.09,2.36-0.13,2.99c-1.87,5.29-3.62,10.16-7.62,15.79" transform="matrix(1,0,0,1,596,-4)" class="stroke_order_diagram--existing_path"></path><path id="pathSk2v596cn485h" kvg:type="㇔" d="M32.43,67.66c2.5,3.26,4.41,10.85,4.99,13.81" transform="matrix(1,0,0,1,596,-4)" class="stroke_order_diagram--existing_path"></path><path id="kvg:07e4a-s7" kvg:type="㇐" d="M41.97,32.38c1.34,0.45,2.92,0.4,4.28,0.16c5.88-1.03,11.12-1.66,15.86-2.31c1.33-0.18,2.74-0.17,4.07,0.09" transform="matrix(1,0,0,1,596,-4)" class="stroke_order_diagram--current_path"></path><path id="pathSk2v596cn485j" kvg:type="㇐" d="M41.97,32.38c1.34,0.45,2.92,0.4,4.28,0.16c5.88-1.03,11.12-1.66,15.86-2.31c1.33-0.18,2.74-0.17,4.07,0.09" transform="matrix(1,0,0,1,596,-4)" class="stroke_order_diagram--current_path"></path><circle cx="41.97" cy="32.38" r="8" class="stroke_order_diagram--path_start" transform="matrix(1,0,0,1,596,-4)"></circle><line x1="750" x2="750" y1="1" y2="99" class="stroke_order_diagram--guide_line"></line><line x1="799" x2="799" y1="1" y2="99" class="stroke_order_diagram--bounding_box"></line><path id="pathSk2v596cn485m" kvg:type="㇜" d="M26.13,15.42c0.34,1.34,0.25,2.4-0.42,3.8c-3.08,6.4-6.58,11.65-11.3,17.72c-0.96,1.24-0.65,2.68,0.5,3.35c3.2,1.86,3.72,2.08,7.72,4.81" transform="matrix(1,0,0,1,696,-4)" class="stroke_order_diagram--existing_path"></path><path id="pathSk2v596cn485n" kvg:type="㇜" d="M36.3,23.18c0.32,1.32,0.2,2.7-0.5,3.84c-5.9,9.68-12.55,19.73-20.48,29.69c-1.64,2.06,0.46,2.98,1.65,2.59c5-1.61,11.37-2.99,17.79-4.53" transform="matrix(1,0,0,1,696,-4)" class="stroke_order_diagram--existing_path"></path><path id="pathSk2v596cn485o" kvg:type="㇔" d="M31.75,48c1.94,1.81,5.01,7.42,5.5,10.23" transform="matrix(1,0,0,1,696,-4)" class="stroke_order_diagram--existing_path"></path><path id="pathSk2v596cn485p" kvg:type="㇑" d="M24.89,59.62c0.93,0.93,1.48,2.25,1.48,4.34c0,8.99-0.02,19.92,0,26.24c0.01,2.49-0.12,3.78-0.12,5.18" transform="matrix(1,0,0,1,696,-4)" class="stroke_order_diagram--existing_path"></path><path id="pathSk2v596cn485q" kvg:type="㇒" d="M17.12,69.6c0.13,0.88,0.09,2.36-0.13,2.99c-1.87,5.29-3.62,10.16-7.62,15.79" transform="matrix(1,0,0,1,696,-4)" class="stroke_order_diagram--existing_path"></path><path id="pathSk2v596cn485r" kvg:type="㇔" d="M32.43,67.66c2.5,3.26,4.41,10.85,4.99,13.81" transform="matrix(1,0,0,1,696,-4)" class="stroke_order_diagram--existing_path"></path><path id="pathSk2v596cn485s" kvg:type="㇐" d="M41.97,32.38c1.34,0.45,2.92,0.4,4.28,0.16c5.88-1.03,11.12-1.66,15.86-2.31c1.33-0.18,2.74-0.17,4.07,0.09" transform="matrix(1,0,0,1,696,-4)" class="stroke_order_diagram--existing_path"></path><path id="kvg:07e4a-s8" kvg:type="㇑a" d="M53.25,15.87c1,1,1.33,2.01,1.33,3.76c0,4.5-0.09,22.12-0.09,24.25" transform="matrix(1,0,0,1,696,-4)" class="stroke_order_diagram--current_path"></path><path id="pathSk2v596cn485u" kvg:type="㇑a" d="M53.25,15.87c1,1,1.33,2.01,1.33,3.76c0,4.5-0.09,22.12-0.09,24.25" transform="matrix(1,0,0,1,696,-4)" class="stroke_order_diagram--current_path"></path><circle cx="53.25" cy="15.87" r="8" class="stroke_order_diagram--path_start" transform="matrix(1,0,0,1,696,-4)"></circle><line x1="850" x2="850" y1="1" y2="99" class="stroke_order_diagram--guide_line"></line><line x1="899" x2="899" y1="1" y2="99" class="stroke_order_diagram--bounding_box"></line><path id="pathSk2v596cn485x" kvg:type="㇜" d="M26.13,15.42c0.34,1.34,0.25,2.4-0.42,3.8c-3.08,6.4-6.58,11.65-11.3,17.72c-0.96,1.24-0.65,2.68,0.5,3.35c3.2,1.86,3.72,2.08,7.72,4.81" transform="matrix(1,0,0,1,796,-4)" class="stroke_order_diagram--existing_path"></path><path id="pathSk2v596cn485y" kvg:type="㇜" d="M36.3,23.18c0.32,1.32,0.2,2.7-0.5,3.84c-5.9,9.68-12.55,19.73-20.48,29.69c-1.64,2.06,0.46,2.98,1.65,2.59c5-1.61,11.37-2.99,17.79-4.53" transform="matrix(1,0,0,1,796,-4)" class="stroke_order_diagram--existing_path"></path><path id="pathSk2v596cn485z" kvg:type="㇔" d="M31.75,48c1.94,1.81,5.01,7.42,5.5,10.23" transform="matrix(1,0,0,1,796,-4)" class="stroke_order_diagram--existing_path"></path><path id="pathSk2v596cn4860" kvg:type="㇑" d="M24.89,59.62c0.93,0.93,1.48,2.25,1.48,4.34c0,8.99-0.02,19.92,0,26.24c0.01,2.49-0.12,3.78-0.12,5.18" transform="matrix(1,0,0,1,796,-4)" class="stroke_order_diagram--existing_path"></path><path id="pathSk2v596cn4861" kvg:type="㇒" d="M17.12,69.6c0.13,0.88,0.09,2.36-0.13,2.99c-1.87,5.29-3.62,10.16-7.62,15.79" transform="matrix(1,0,0,1,796,-4)" class="stroke_order_diagram--existing_path"></path><path id="pathSk2v596cn4862" kvg:type="㇔" d="M32.43,67.66c2.5,3.26,4.41,10.85,4.99,13.81" transform="matrix(1,0,0,1,796,-4)" class="stroke_order_diagram--existing_path"></path><path id="pathSk2v596cn4863" kvg:type="㇐" d="M41.97,32.38c1.34,0.45,2.92,0.4,4.28,0.16c5.88-1.03,11.12-1.66,15.86-2.31c1.33-0.18,2.74-0.17,4.07,0.09" transform="matrix(1,0,0,1,796,-4)" class="stroke_order_diagram--existing_path"></path><path id="pathSk2v596cn4864" kvg:type="㇑a" d="M53.25,15.87c1,1,1.33,2.01,1.33,3.76c0,4.5-0.09,22.12-0.09,24.25" transform="matrix(1,0,0,1,796,-4)" class="stroke_order_diagram--existing_path"></path><path id="kvg:07e4a-s9" kvg:type="㇐" d="M37.13,46.23c2.87,0.65,5.91,0.35,8.11,0.06c14.04-1.84,28.2-4.49,39.26-5.48c2.58-0.23,5.02-0.47,7.54,0.26" transform="matrix(1,0,0,1,796,-4)" class="stroke_order_diagram--current_path"></path><path id="pathSk2v596cn4866" kvg:type="㇐" d="M37.13,46.23c2.87,0.65,5.91,0.35,8.11,0.06c14.04-1.84,28.2-4.49,39.26-5.48c2.58-0.23,5.02-0.47,7.54,0.26" transform="matrix(1,0,0,1,796,-4)" class="stroke_order_diagram--current_path"></path><circle cx="37.13" cy="46.23" r="8" class="stroke_order_diagram--path_start" transform="matrix(1,0,0,1,796,-4)"></circle><line x1="950" x2="950" y1="1" y2="99" class="stroke_order_diagram--guide_line"></line><line x1="999" x2="999" y1="1" y2="99" class="stroke_order_diagram--bounding_box"></line><path id="pathSk2v596cn4869" kvg:type="㇜" d="M26.13,15.42c0.34,1.34,0.25,2.4-0.42,3.8c-3.08,6.4-6.58,11.65-11.3,17.72c-0.96,1.24-0.65,2.68,0.5,3.35c3.2,1.86,3.72,2.08,7.72,4.81" transform="matrix(1,0,0,1,896,-4)" class="stroke_order_diagram--existing_path"></path><path id="pathSk2v596cn486a" kvg:type="㇜" d="M36.3,23.18c0.32,1.32,0.2,2.7-0.5,3.84c-5.9,9.68-12.55,19.73-20.48,29.69c-1.64,2.06,0.46,2.98,1.65,2.59c5-1.61,11.37-2.99,17.79-4.53" transform="matrix(1,0,0,1,896,-4)" class="stroke_order_diagram--existing_path"></path><path id="pathSk2v596cn486b" kvg:type="㇔" d="M31.75,48c1.94,1.81,5.01,7.42,5.5,10.23" transform="matrix(1,0,0,1,896,-4)" class="stroke_order_diagram--existing_path"></path><path id="pathSk2v596cn486c" kvg:type="㇑" d="M24.89,59.62c0.93,0.93,1.48,2.25,1.48,4.34c0,8.99-0.02,19.92,0,26.24c0.01,2.49-0.12,3.78-0.12,5.18" transform="matrix(1,0,0,1,896,-4)" class="stroke_order_diagram--existing_path"></path><path id="pathSk2v596cn486d" kvg:type="㇒" d="M17.12,69.6c0.13,0.88,0.09,2.36-0.13,2.99c-1.87,5.29-3.62,10.16-7.62,15.79" transform="matrix(1,0,0,1,896,-4)" class="stroke_order_diagram--existing_path"></path><path id="pathSk2v596cn486e" kvg:type="㇔" d="M32.43,67.66c2.5,3.26,4.41,10.85,4.99,13.81" transform="matrix(1,0,0,1,896,-4)" class="stroke_order_diagram--existing_path"></path><path id="pathSk2v596cn486f" kvg:type="㇐" d="M41.97,32.38c1.34,0.45,2.92,0.4,4.28,0.16c5.88-1.03,11.12-1.66,15.86-2.31c1.33-0.18,2.74-0.17,4.07,0.09" transform="matrix(1,0,0,1,896,-4)" class="stroke_order_diagram--existing_path"></path><path id="pathSk2v596cn486g" kvg:type="㇑a" d="M53.25,15.87c1,1,1.33,2.01,1.33,3.76c0,4.5-0.09,22.12-0.09,24.25" transform="matrix(1,0,0,1,896,-4)" class="stroke_order_diagram--existing_path"></path><path id="pathSk2v596cn486h" kvg:type="㇐" d="M37.13,46.23c2.87,0.65,5.91,0.35,8.11,0.06c14.04-1.84,28.2-4.49,39.26-5.48c2.58-0.23,5.02-0.47,7.54,0.26" transform="matrix(1,0,0,1,896,-4)" class="stroke_order_diagram--existing_path"></path><path id="kvg:07e4a-s10" kvg:type="㇑a" d="M49.59,48.35c0.84,0.84,1.32,2.27,1.32,3.61c0,0.82,0.08,28.91,0.08,35.85" transform="matrix(1,0,0,1,896,-4)" class="stroke_order_diagram--current_path"></path><path id="pathSk2v596cn486j" kvg:type="㇑a" d="M49.59,48.35c0.84,0.84,1.32,2.27,1.32,3.61c0,0.82,0.08,28.91,0.08,35.85" transform="matrix(1,0,0,1,896,-4)" class="stroke_order_diagram--current_path"></path><circle cx="49.59" cy="48.35" r="8" class="stroke_order_diagram--path_start" transform="matrix(1,0,0,1,896,-4)"></circle><line x1="1050" x2="1050" y1="1" y2="99" class="stroke_order_diagram--guide_line"></line><line x1="1099" x2="1099" y1="1" y2="99" class="stroke_order_diagram--bounding_box"></line><path id="pathSk2v596cn486m" kvg:type="㇜" d="M26.13,15.42c0.34,1.34,0.25,2.4-0.42,3.8c-3.08,6.4-6.58,11.65-11.3,17.72c-0.96,1.24-0.65,2.68,0.5,3.35c3.2,1.86,3.72,2.08,7.72,4.81" transform="matrix(1,0,0,1,996,-4)" class="stroke_order_diagram--existing_path"></path><path id="pathSk2v596cn486n" kvg:type="㇜" d="M36.3,23.18c0.32,1.32,0.2,2.7-0.5,3.84c-5.9,9.68-12.55,19.73-20.48,29.69c-1.64,2.06,0.46,2.98,1.65,2.59c5-1.61,11.37-2.99,17.79-4.53" transform="matrix(1,0,0,1,996,-4)" class="stroke_order_diagram--existing_path"></path><path id="pathSk2v596cn486o" kvg:type="㇔" d="M31.75,48c1.94,1.81,5.01,7.42,5.5,10.23" transform="matrix(1,0,0,1,996,-4)" class="stroke_order_diagram--existing_path"></path><path id="pathSk2v596cn486p" kvg:type="㇑" d="M24.89,59.62c0.93,0.93,1.48,2.25,1.48,4.34c0,8.99-0.02,19.92,0,26.24c0.01,2.49-0.12,3.78-0.12,5.18" transform="matrix(1,0,0,1,996,-4)" class="stroke_order_diagram--existing_path"></path><path id="pathSk2v596cn486q" kvg:type="㇒" d="M17.12,69.6c0.13,0.88,0.09,2.36-0.13,2.99c-1.87,5.29-3.62,10.16-7.62,15.79" transform="matrix(1,0,0,1,996,-4)" class="stroke_order_diagram--existing_path"></path><path id="pathSk2v596cn486r" kvg:type="㇔" d="M32.43,67.66c2.5,3.26,4.41,10.85,4.99,13.81" transform="matrix(1,0,0,1,996,-4)" class="stroke_order_diagram--existing_path"></path><path id="pathSk2v596cn486s" kvg:type="㇐" d="M41.97,32.38c1.34,0.45,2.92,0.4,4.28,0.16c5.88-1.03,11.12-1.66,15.86-2.31c1.33-0.18,2.74-0.17,4.07,0.09" transform="matrix(1,0,0,1,996,-4)" class="stroke_order_diagram--existing_path"></path><path id="pathSk2v596cn486t" kvg:type="㇑a" d="M53.25,15.87c1,1,1.33,2.01,1.33,3.76c0,4.5-0.09,22.12-0.09,24.25" transform="matrix(1,0,0,1,996,-4)" class="stroke_order_diagram--existing_path"></path><path id="pathSk2v596cn486u" kvg:type="㇐" d="M37.13,46.23c2.87,0.65,5.91,0.35,8.11,0.06c14.04-1.84,28.2-4.49,39.26-5.48c2.58-0.23,5.02-0.47,7.54,0.26" transform="matrix(1,0,0,1,996,-4)" class="stroke_order_diagram--existing_path"></path><path id="pathSk2v596cn486v" kvg:type="㇑a" d="M49.59,48.35c0.84,0.84,1.32,2.27,1.32,3.61c0,0.82,0.08,28.91,0.08,35.85" transform="matrix(1,0,0,1,996,-4)" class="stroke_order_diagram--existing_path"></path><path id="kvg:07e4a-s11" kvg:type="㇑a" d="M59.28,47.25c0.86,0.86,1.32,2.25,1.32,3.61c0,0.82-0.1,27.91-0.1,33.64" transform="matrix(1,0,0,1,996,-4)" class="stroke_order_diagram--current_path"></path><path id="pathSk2v596cn486x" kvg:type="㇑a" d="M59.28,47.25c0.86,0.86,1.32,2.25,1.32,3.61c0,0.82-0.1,27.91-0.1,33.64" transform="matrix(1,0,0,1,996,-4)" class="stroke_order_diagram--current_path"></path><circle cx="59.28" cy="47.25" r="8" class="stroke_order_diagram--path_start" transform="matrix(1,0,0,1,996,-4)"></circle><line x1="1150" x2="1150" y1="1" y2="99" class="stroke_order_diagram--guide_line"></line><line x1="1199" x2="1199" y1="1" y2="99" class="stroke_order_diagram--bounding_box"></line><path id="pathSk2v596cn4870" kvg:type="㇜" d="M26.13,15.42c0.34,1.34,0.25,2.4-0.42,3.8c-3.08,6.4-6.58,11.65-11.3,17.72c-0.96,1.24-0.65,2.68,0.5,3.35c3.2,1.86,3.72,2.08,7.72,4.81" transform="matrix(1,0,0,1,1096,-4)" class="stroke_order_diagram--existing_path"></path><path id="pathSk2v596cn4871" kvg:type="㇜" d="M36.3,23.18c0.32,1.32,0.2,2.7-0.5,3.84c-5.9,9.68-12.55,19.73-20.48,29.69c-1.64,2.06,0.46,2.98,1.65,2.59c5-1.61,11.37-2.99,17.79-4.53" transform="matrix(1,0,0,1,1096,-4)" class="stroke_order_diagram--existing_path"></path><path id="pathSk2v596cn4872" kvg:type="㇔" d="M31.75,48c1.94,1.81,5.01,7.42,5.5,10.23" transform="matrix(1,0,0,1,1096,-4)" class="stroke_order_diagram--existing_path"></path><path id="pathSk2v596cn4873" kvg:type="㇑" d="M24.89,59.62c0.93,0.93,1.48,2.25,1.48,4.34c0,8.99-0.02,19.92,0,26.24c0.01,2.49-0.12,3.78-0.12,5.18" transform="matrix(1,0,0,1,1096,-4)" class="stroke_order_diagram--existing_path"></path><path id="pathSk2v596cn4874" kvg:type="㇒" d="M17.12,69.6c0.13,0.88,0.09,2.36-0.13,2.99c-1.87,5.29-3.62,10.16-7.62,15.79" transform="matrix(1,0,0,1,1096,-4)" class="stroke_order_diagram--existing_path"></path><path id="pathSk2v596cn4875" kvg:type="㇔" d="M32.43,67.66c2.5,3.26,4.41,10.85,4.99,13.81" transform="matrix(1,0,0,1,1096,-4)" class="stroke_order_diagram--existing_path"></path><path id="pathSk2v596cn4876" kvg:type="㇐" d="M41.97,32.38c1.34,0.45,2.92,0.4,4.28,0.16c5.88-1.03,11.12-1.66,15.86-2.31c1.33-0.18,2.74-0.17,4.07,0.09" transform="matrix(1,0,0,1,1096,-4)" class="stroke_order_diagram--existing_path"></path><path id="pathSk2v596cn4877" kvg:type="㇑a" d="M53.25,15.87c1,1,1.33,2.01,1.33,3.76c0,4.5-0.09,22.12-0.09,24.25" transform="matrix(1,0,0,1,1096,-4)" class="stroke_order_diagram--existing_path"></path><path id="pathSk2v596cn4878" kvg:type="㇐" d="M37.13,46.23c2.87,0.65,5.91,0.35,8.11,0.06c14.04-1.84,28.2-4.49,39.26-5.48c2.58-0.23,5.02-0.47,7.54,0.26" transform="matrix(1,0,0,1,1096,-4)" class="stroke_order_diagram--existing_path"></path><path id="pathSk2v596cn4879" kvg:type="㇑a" d="M49.59,48.35c0.84,0.84,1.32,2.27,1.32,3.61c0,0.82,0.08,28.91,0.08,35.85" transform="matrix(1,0,0,1,1096,-4)" class="stroke_order_diagram--existing_path"></path><path id="pathSk2v596cn487a" kvg:type="㇑a" d="M59.28,47.25c0.86,0.86,1.32,2.25,1.32,3.61c0,0.82-0.1,27.91-0.1,33.64" transform="matrix(1,0,0,1,1096,-4)" class="stroke_order_diagram--existing_path"></path><path id="kvg:07e4a-s12" kvg:type="㇔" d="M39.97,63.57c1.55,2.24,4,9.2,4.39,12.68" transform="matrix(1,0,0,1,1096,-4)" class="stroke_order_diagram--current_path"></path><path id="pathSk2v596cn487c" kvg:type="㇔" d="M39.97,63.57c1.55,2.24,4,9.2,4.39,12.68" transform="matrix(1,0,0,1,1096,-4)" class="stroke_order_diagram--current_path"></path><circle cx="39.97" cy="63.57" r="8" class="stroke_order_diagram--path_start" transform="matrix(1,0,0,1,1096,-4)"></circle><line x1="1250" x2="1250" y1="1" y2="99" class="stroke_order_diagram--guide_line"></line><line x1="1299" x2="1299" y1="1" y2="99" class="stroke_order_diagram--bounding_box"></line><path id="pathSk2v596cn487f" kvg:type="㇜" d="M26.13,15.42c0.34,1.34,0.25,2.4-0.42,3.8c-3.08,6.4-6.58,11.65-11.3,17.72c-0.96,1.24-0.65,2.68,0.5,3.35c3.2,1.86,3.72,2.08,7.72,4.81" transform="matrix(1,0,0,1,1196,-4)" class="stroke_order_diagram--existing_path"></path><path id="pathSk2v596cn487g" kvg:type="㇜" d="M36.3,23.18c0.32,1.32,0.2,2.7-0.5,3.84c-5.9,9.68-12.55,19.73-20.48,29.69c-1.64,2.06,0.46,2.98,1.65,2.59c5-1.61,11.37-2.99,17.79-4.53" transform="matrix(1,0,0,1,1196,-4)" class="stroke_order_diagram--existing_path"></path><path id="pathSk2v596cn487h" kvg:type="㇔" d="M31.75,48c1.94,1.81,5.01,7.42,5.5,10.23" transform="matrix(1,0,0,1,1196,-4)" class="stroke_order_diagram--existing_path"></path><path id="pathSk2v596cn487i" kvg:type="㇑" d="M24.89,59.62c0.93,0.93,1.48,2.25,1.48,4.34c0,8.99-0.02,19.92,0,26.24c0.01,2.49-0.12,3.78-0.12,5.18" transform="matrix(1,0,0,1,1196,-4)" class="stroke_order_diagram--existing_path"></path><path id="pathSk2v596cn487j" kvg:type="㇒" d="M17.12,69.6c0.13,0.88,0.09,2.36-0.13,2.99c-1.87,5.29-3.62,10.16-7.62,15.79" transform="matrix(1,0,0,1,1196,-4)" class="stroke_order_diagram--existing_path"></path><path id="pathSk2v596cn487k" kvg:type="㇔" d="M32.43,67.66c2.5,3.26,4.41,10.85,4.99,13.81" transform="matrix(1,0,0,1,1196,-4)" class="stroke_order_diagram--existing_path"></path><path id="pathSk2v596cn487l" kvg:type="㇐" d="M41.97,32.38c1.34,0.45,2.92,0.4,4.28,0.16c5.88-1.03,11.12-1.66,15.86-2.31c1.33-0.18,2.74-0.17,4.07,0.09" transform="matrix(1,0,0,1,1196,-4)" class="stroke_order_diagram--existing_path"></path><path id="pathSk2v596cn487m" kvg:type="㇑a" d="M53.25,15.87c1,1,1.33,2.01,1.33,3.76c0,4.5-0.09,22.12-0.09,24.25" transform="matrix(1,0,0,1,1196,-4)" class="stroke_order_diagram--existing_path"></path><path id="pathSk2v596cn487n" kvg:type="㇐" d="M37.13,46.23c2.87,0.65,5.91,0.35,8.11,0.06c14.04-1.84,28.2-4.49,39.26-5.48c2.58-0.23,5.02-0.47,7.54,0.26" transform="matrix(1,0,0,1,1196,-4)" class="stroke_order_diagram--existing_path"></path><path id="pathSk2v596cn487o" kvg:type="㇑a" d="M49.59,48.35c0.84,0.84,1.32,2.27,1.32,3.61c0,0.82,0.08,28.91,0.08,35.85" transform="matrix(1,0,0,1,1196,-4)" class="stroke_order_diagram--existing_path"></path><path id="pathSk2v596cn487p" kvg:type="㇑a" d="M59.28,47.25c0.86,0.86,1.32,2.25,1.32,3.61c0,0.82-0.1,27.91-0.1,33.64" transform="matrix(1,0,0,1,1196,-4)" class="stroke_order_diagram--existing_path"></path><path id="pathSk2v596cn487q" kvg:type="㇔" d="M39.97,63.57c1.55,2.24,4,9.2,4.39,12.68" transform="matrix(1,0,0,1,1196,-4)" class="stroke_order_diagram--existing_path"></path><path id="kvg:07e4a-s13" kvg:type="㇒" d="M69.76,57.84c0.11,0.77-0.01,1.49-0.35,2.18c-1.1,3.07-2.24,5.65-5.78,10.11" transform="matrix(1,0,0,1,1196,-4)" class="stroke_order_diagram--current_path"></path><path id="pathSk2v596cn487s" kvg:type="㇒" d="M69.76,57.84c0.11,0.77-0.01,1.49-0.35,2.18c-1.1,3.07-2.24,5.65-5.78,10.11" transform="matrix(1,0,0,1,1196,-4)" class="stroke_order_diagram--current_path"></path><circle cx="69.76" cy="57.84" r="8" class="stroke_order_diagram--path_start" transform="matrix(1,0,0,1,1196,-4)"></circle><line x1="1350" x2="1350" y1="1" y2="99" class="stroke_order_diagram--guide_line"></line><line x1="1399" x2="1399" y1="1" y2="99" class="stroke_order_diagram--bounding_box"></line><path id="pathSk2v596cn487v" kvg:type="㇜" d="M26.13,15.42c0.34,1.34,0.25,2.4-0.42,3.8c-3.08,6.4-6.58,11.65-11.3,17.72c-0.96,1.24-0.65,2.68,0.5,3.35c3.2,1.86,3.72,2.08,7.72,4.81" transform="matrix(1,0,0,1,1296,-4)" class="stroke_order_diagram--existing_path"></path><path id="pathSk2v596cn487w" kvg:type="㇜" d="M36.3,23.18c0.32,1.32,0.2,2.7-0.5,3.84c-5.9,9.68-12.55,19.73-20.48,29.69c-1.64,2.06,0.46,2.98,1.65,2.59c5-1.61,11.37-2.99,17.79-4.53" transform="matrix(1,0,0,1,1296,-4)" class="stroke_order_diagram--existing_path"></path><path id="pathSk2v596cn487x" kvg:type="㇔" d="M31.75,48c1.94,1.81,5.01,7.42,5.5,10.23" transform="matrix(1,0,0,1,1296,-4)" class="stroke_order_diagram--existing_path"></path><path id="pathSk2v596cn487y" kvg:type="㇑" d="M24.89,59.62c0.93,0.93,1.48,2.25,1.48,4.34c0,8.99-0.02,19.92,0,26.24c0.01,2.49-0.12,3.78-0.12,5.18" transform="matrix(1,0,0,1,1296,-4)" class="stroke_order_diagram--existing_path"></path><path id="pathSk2v596cn487z" kvg:type="㇒" d="M17.12,69.6c0.13,0.88,0.09,2.36-0.13,2.99c-1.87,5.29-3.62,10.16-7.62,15.79" transform="matrix(1,0,0,1,1296,-4)" class="stroke_order_diagram--existing_path"></path><path id="pathSk2v596cn4880" kvg:type="㇔" d="M32.43,67.66c2.5,3.26,4.41,10.85,4.99,13.81" transform="matrix(1,0,0,1,1296,-4)" class="stroke_order_diagram--existing_path"></path><path id="pathSk2v596cn4881" kvg:type="㇐" d="M41.97,32.38c1.34,0.45,2.92,0.4,4.28,0.16c5.88-1.03,11.12-1.66,15.86-2.31c1.33-0.18,2.74-0.17,4.07,0.09" transform="matrix(1,0,0,1,1296,-4)" class="stroke_order_diagram--existing_path"></path><path id="pathSk2v596cn4882" kvg:type="㇑a" d="M53.25,15.87c1,1,1.33,2.01,1.33,3.76c0,4.5-0.09,22.12-0.09,24.25" transform="matrix(1,0,0,1,1296,-4)" class="stroke_order_diagram--existing_path"></path><path id="pathSk2v596cn4883" kvg:type="㇐" d="M37.13,46.23c2.87,0.65,5.91,0.35,8.11,0.06c14.04-1.84,28.2-4.49,39.26-5.48c2.58-0.23,5.02-0.47,7.54,0.26" transform="matrix(1,0,0,1,1296,-4)" class="stroke_order_diagram--existing_path"></path><path id="pathSk2v596cn4884" kvg:type="㇑a" d="M49.59,48.35c0.84,0.84,1.32,2.27,1.32,3.61c0,0.82,0.08,28.91,0.08,35.85" transform="matrix(1,0,0,1,1296,-4)" class="stroke_order_diagram--existing_path"></path><path id="pathSk2v596cn4885" kvg:type="㇑a" d="M59.28,47.25c0.86,0.86,1.32,2.25,1.32,3.61c0,0.82-0.1,27.91-0.1,33.64" transform="matrix(1,0,0,1,1296,-4)" class="stroke_order_diagram--existing_path"></path><path id="pathSk2v596cn4886" kvg:type="㇔" d="M39.97,63.57c1.55,2.24,4,9.2,4.39,12.68" transform="matrix(1,0,0,1,1296,-4)" class="stroke_order_diagram--existing_path"></path><path id="pathSk2v596cn4887" kvg:type="㇒" d="M69.76,57.84c0.11,0.77-0.01,1.49-0.35,2.18c-1.1,3.07-2.24,5.65-5.78,10.11" transform="matrix(1,0,0,1,1296,-4)" class="stroke_order_diagram--existing_path"></path><path id="kvg:07e4a-s14" kvg:type="㇀/㇐" d="M39.54,91.44c1.21,0.68,2.8,0.74,3.56,0.47C51.38,89,64.75,84,71.45,81.82" transform="matrix(1,0,0,1,1296,-4)" class="stroke_order_diagram--current_path"></path><path id="pathSk2v596cn4889" kvg:type="㇀/㇐" d="M39.54,91.44c1.21,0.68,2.8,0.74,3.56,0.47C51.38,89,64.75,84,71.45,81.82" transform="matrix(1,0,0,1,1296,-4)" class="stroke_order_diagram--current_path"></path><circle cx="39.54" cy="91.44" r="8" class="stroke_order_diagram--path_start" transform="matrix(1,0,0,1,1296,-4)"></circle><line x1="1450" x2="1450" y1="1" y2="99" class="stroke_order_diagram--guide_line"></line><line x1="1499" x2="1499" y1="1" y2="99" class="stroke_order_diagram--bounding_box"></line><path id="pathSk2v596cn488c" kvg:type="㇜" d="M26.13,15.42c0.34,1.34,0.25,2.4-0.42,3.8c-3.08,6.4-6.58,11.65-11.3,17.72c-0.96,1.24-0.65,2.68,0.5,3.35c3.2,1.86,3.72,2.08,7.72,4.81" transform="matrix(1,0,0,1,1396,-4)" class="stroke_order_diagram--existing_path"></path><path id="pathSk2v596cn488d" kvg:type="㇜" d="M36.3,23.18c0.32,1.32,0.2,2.7-0.5,3.84c-5.9,9.68-12.55,19.73-20.48,29.69c-1.64,2.06,0.46,2.98,1.65,2.59c5-1.61,11.37-2.99,17.79-4.53" transform="matrix(1,0,0,1,1396,-4)" class="stroke_order_diagram--existing_path"></path><path id="pathSk2v596cn488e" kvg:type="㇔" d="M31.75,48c1.94,1.81,5.01,7.42,5.5,10.23" transform="matrix(1,0,0,1,1396,-4)" class="stroke_order_diagram--existing_path"></path><path id="pathSk2v596cn488f" kvg:type="㇑" d="M24.89,59.62c0.93,0.93,1.48,2.25,1.48,4.34c0,8.99-0.02,19.92,0,26.24c0.01,2.49-0.12,3.78-0.12,5.18" transform="matrix(1,0,0,1,1396,-4)" class="stroke_order_diagram--existing_path"></path><path id="pathSk2v596cn488g" kvg:type="㇒" d="M17.12,69.6c0.13,0.88,0.09,2.36-0.13,2.99c-1.87,5.29-3.62,10.16-7.62,15.79" transform="matrix(1,0,0,1,1396,-4)" class="stroke_order_diagram--existing_path"></path><path id="pathSk2v596cn488h" kvg:type="㇔" d="M32.43,67.66c2.5,3.26,4.41,10.85,4.99,13.81" transform="matrix(1,0,0,1,1396,-4)" class="stroke_order_diagram--existing_path"></path><path id="pathSk2v596cn488i" kvg:type="㇐" d="M41.97,32.38c1.34,0.45,2.92,0.4,4.28,0.16c5.88-1.03,11.12-1.66,15.86-2.31c1.33-0.18,2.74-0.17,4.07,0.09" transform="matrix(1,0,0,1,1396,-4)" class="stroke_order_diagram--existing_path"></path><path id="pathSk2v596cn488j" kvg:type="㇑a" d="M53.25,15.87c1,1,1.33,2.01,1.33,3.76c0,4.5-0.09,22.12-0.09,24.25" transform="matrix(1,0,0,1,1396,-4)" class="stroke_order_diagram--existing_path"></path><path id="pathSk2v596cn488k" kvg:type="㇐" d="M37.13,46.23c2.87,0.65,5.91,0.35,8.11,0.06c14.04-1.84,28.2-4.49,39.26-5.48c2.58-0.23,5.02-0.47,7.54,0.26" transform="matrix(1,0,0,1,1396,-4)" class="stroke_order_diagram--existing_path"></path><path id="pathSk2v596cn488l" kvg:type="㇑a" d="M49.59,48.35c0.84,0.84,1.32,2.27,1.32,3.61c0,0.82,0.08,28.91,0.08,35.85" transform="matrix(1,0,0,1,1396,-4)" class="stroke_order_diagram--existing_path"></path><path id="pathSk2v596cn488m" kvg:type="㇑a" d="M59.28,47.25c0.86,0.86,1.32,2.25,1.32,3.61c0,0.82-0.1,27.91-0.1,33.64" transform="matrix(1,0,0,1,1396,-4)" class="stroke_order_diagram--existing_path"></path><path id="pathSk2v596cn488n" kvg:type="㇔" d="M39.97,63.57c1.55,2.24,4,9.2,4.39,12.68" transform="matrix(1,0,0,1,1396,-4)" class="stroke_order_diagram--existing_path"></path><path id="pathSk2v596cn488o" kvg:type="㇒" d="M69.76,57.84c0.11,0.77-0.01,1.49-0.35,2.18c-1.1,3.07-2.24,5.65-5.78,10.11" transform="matrix(1,0,0,1,1396,-4)" class="stroke_order_diagram--existing_path"></path><path id="pathSk2v596cn488p" kvg:type="㇀/㇐" d="M39.54,91.44c1.21,0.68,2.8,0.74,3.56,0.47C51.38,89,64.75,84,71.45,81.82" transform="matrix(1,0,0,1,1396,-4)" class="stroke_order_diagram--existing_path"></path><path id="kvg:07e4a-s15" kvg:type="㇂" d="M68.95,11.75c1.21,1.21,1.55,2.5,1.74,5.72c1.85,31.01,7.43,64.03,22.79,77.47c4.51,3.94,3.88,0.78,3.31-7.26" transform="matrix(1,0,0,1,1396,-4)" class="stroke_order_diagram--current_path"></path><path id="pathSk2v596cn488r" kvg:type="㇂" d="M68.95,11.75c1.21,1.21,1.55,2.5,1.74,5.72c1.85,31.01,7.43,64.03,22.79,77.47c4.51,3.94,3.88,0.78,3.31-7.26" transform="matrix(1,0,0,1,1396,-4)" class="stroke_order_diagram--current_path"></path><circle cx="68.95" cy="11.75" r="8" class="stroke_order_diagram--path_start" transform="matrix(1,0,0,1,1396,-4)"></circle><line x1="1550" x2="1550" y1="1" y2="99" class="stroke_order_diagram--guide_line"></line><line x1="1599" x2="1599" y1="1" y2="99" class="stroke_order_diagram--bounding_box"></line><path id="pathSk2v596cn488u" kvg:type="㇜" d="M26.13,15.42c0.34,1.34,0.25,2.4-0.42,3.8c-3.08,6.4-6.58,11.65-11.3,17.72c-0.96,1.24-0.65,2.68,0.5,3.35c3.2,1.86,3.72,2.08,7.72,4.81" transform="matrix(1,0,0,1,1496,-4)" class="stroke_order_diagram--existing_path"></path><path id="pathSk2v596cn488v" kvg:type="㇜" d="M36.3,23.18c0.32,1.32,0.2,2.7-0.5,3.84c-5.9,9.68-12.55,19.73-20.48,29.69c-1.64,2.06,0.46,2.98,1.65,2.59c5-1.61,11.37-2.99,17.79-4.53" transform="matrix(1,0,0,1,1496,-4)" class="stroke_order_diagram--existing_path"></path><path id="pathSk2v596cn488w" kvg:type="㇔" d="M31.75,48c1.94,1.81,5.01,7.42,5.5,10.23" transform="matrix(1,0,0,1,1496,-4)" class="stroke_order_diagram--existing_path"></path><path id="pathSk2v596cn488x" kvg:type="㇑" d="M24.89,59.62c0.93,0.93,1.48,2.25,1.48,4.34c0,8.99-0.02,19.92,0,26.24c0.01,2.49-0.12,3.78-0.12,5.18" transform="matrix(1,0,0,1,1496,-4)" class="stroke_order_diagram--existing_path"></path><path id="pathSk2v596cn488y" kvg:type="㇒" d="M17.12,69.6c0.13,0.88,0.09,2.36-0.13,2.99c-1.87,5.29-3.62,10.16-7.62,15.79" transform="matrix(1,0,0,1,1496,-4)" class="stroke_order_diagram--existing_path"></path><path id="pathSk2v596cn488z" kvg:type="㇔" d="M32.43,67.66c2.5,3.26,4.41,10.85,4.99,13.81" transform="matrix(1,0,0,1,1496,-4)" class="stroke_order_diagram--existing_path"></path><path id="pathSk2v596cn4890" kvg:type="㇐" d="M41.97,32.38c1.34,0.45,2.92,0.4,4.28,0.16c5.88-1.03,11.12-1.66,15.86-2.31c1.33-0.18,2.74-0.17,4.07,0.09" transform="matrix(1,0,0,1,1496,-4)" class="stroke_order_diagram--existing_path"></path><path id="pathSk2v596cn4891" kvg:type="㇑a" d="M53.25,15.87c1,1,1.33,2.01,1.33,3.76c0,4.5-0.09,22.12-0.09,24.25" transform="matrix(1,0,0,1,1496,-4)" class="stroke_order_diagram--existing_path"></path><path id="pathSk2v596cn4892" kvg:type="㇐" d="M37.13,46.23c2.87,0.65,5.91,0.35,8.11,0.06c14.04-1.84,28.2-4.49,39.26-5.48c2.58-0.23,5.02-0.47,7.54,0.26" transform="matrix(1,0,0,1,1496,-4)" class="stroke_order_diagram--existing_path"></path><path id="pathSk2v596cn4893" kvg:type="㇑a" d="M49.59,48.35c0.84,0.84,1.32,2.27,1.32,3.61c0,0.82,0.08,28.91,0.08,35.85" transform="matrix(1,0,0,1,1496,-4)" class="stroke_order_diagram--existing_path"></path><path id="pathSk2v596cn4894" kvg:type="㇑a" d="M59.28,47.25c0.86,0.86,1.32,2.25,1.32,3.61c0,0.82-0.1,27.91-0.1,33.64" transform="matrix(1,0,0,1,1496,-4)" class="stroke_order_diagram--existing_path"></path><path id="pathSk2v596cn4895" kvg:type="㇔" d="M39.97,63.57c1.55,2.24,4,9.2,4.39,12.68" transform="matrix(1,0,0,1,1496,-4)" class="stroke_order_diagram--existing_path"></path><path id="pathSk2v596cn4896" kvg:type="㇒" d="M69.76,57.84c0.11,0.77-0.01,1.49-0.35,2.18c-1.1,3.07-2.24,5.65-5.78,10.11" transform="matrix(1,0,0,1,1496,-4)" class="stroke_order_diagram--existing_path"></path><path id="pathSk2v596cn4897" kvg:type="㇀/㇐" d="M39.54,91.44c1.21,0.68,2.8,0.74,3.56,0.47C51.38,89,64.75,84,71.45,81.82" transform="matrix(1,0,0,1,1496,-4)" class="stroke_order_diagram--existing_path"></path><path id="pathSk2v596cn4898" kvg:type="㇂" d="M68.95,11.75c1.21,1.21,1.55,2.5,1.74,5.72c1.85,31.01,7.43,64.03,22.79,77.47c4.51,3.94,3.88,0.78,3.31-7.26" transform="matrix(1,0,0,1,1496,-4)" class="stroke_order_diagram--existing_path"></path><path id="kvg:07e4a-s16" kvg:type="㇒" d="M88.88,51.14c0.05,0.94,0.17,2.44-0.1,3.77C87,63.45,81.21,80.79,71.29,91.47" transform="matrix(1,0,0,1,1496,-4)" class="stroke_order_diagram--current_path"></path><path id="pathSk2v596cn489a" kvg:type="㇒" d="M88.88,51.14c0.05,0.94,0.17,2.44-0.1,3.77C87,63.45,81.21,80.79,71.29,91.47" transform="matrix(1,0,0,1,1496,-4)" class="stroke_order_diagram--current_path"></path><circle cx="88.88" cy="51.14" r="8" class="stroke_order_diagram--path_start" transform="matrix(1,0,0,1,1496,-4)"></circle><line x1="1650" x2="1650" y1="1" y2="99" class="stroke_order_diagram--guide_line"></line><line x1="1699" x2="1699" y1="1" y2="99" class="stroke_order_diagram--bounding_box"></line><path id="pathSk2v596cn489d" kvg:type="㇜" d="M26.13,15.42c0.34,1.34,0.25,2.4-0.42,3.8c-3.08,6.4-6.58,11.65-11.3,17.72c-0.96,1.24-0.65,2.68,0.5,3.35c3.2,1.86,3.72,2.08,7.72,4.81" transform="matrix(1,0,0,1,1596,-4)" class="stroke_order_diagram--existing_path"></path><path id="pathSk2v596cn489e" kvg:type="㇜" d="M36.3,23.18c0.32,1.32,0.2,2.7-0.5,3.84c-5.9,9.68-12.55,19.73-20.48,29.69c-1.64,2.06,0.46,2.98,1.65,2.59c5-1.61,11.37-2.99,17.79-4.53" transform="matrix(1,0,0,1,1596,-4)" class="stroke_order_diagram--existing_path"></path><path id="pathSk2v596cn489f" kvg:type="㇔" d="M31.75,48c1.94,1.81,5.01,7.42,5.5,10.23" transform="matrix(1,0,0,1,1596,-4)" class="stroke_order_diagram--existing_path"></path><path id="pathSk2v596cn489g" kvg:type="㇑" d="M24.89,59.62c0.93,0.93,1.48,2.25,1.48,4.34c0,8.99-0.02,19.92,0,26.24c0.01,2.49-0.12,3.78-0.12,5.18" transform="matrix(1,0,0,1,1596,-4)" class="stroke_order_diagram--existing_path"></path><path id="pathSk2v596cn489h" kvg:type="㇒" d="M17.12,69.6c0.13,0.88,0.09,2.36-0.13,2.99c-1.87,5.29-3.62,10.16-7.62,15.79" transform="matrix(1,0,0,1,1596,-4)" class="stroke_order_diagram--existing_path"></path><path id="pathSk2v596cn489i" kvg:type="㇔" d="M32.43,67.66c2.5,3.26,4.41,10.85,4.99,13.81" transform="matrix(1,0,0,1,1596,-4)" class="stroke_order_diagram--existing_path"></path><path id="pathSk2v596cn489j" kvg:type="㇐" d="M41.97,32.38c1.34,0.45,2.92,0.4,4.28,0.16c5.88-1.03,11.12-1.66,15.86-2.31c1.33-0.18,2.74-0.17,4.07,0.09" transform="matrix(1,0,0,1,1596,-4)" class="stroke_order_diagram--existing_path"></path><path id="pathSk2v596cn489k" kvg:type="㇑a" d="M53.25,15.87c1,1,1.33,2.01,1.33,3.76c0,4.5-0.09,22.12-0.09,24.25" transform="matrix(1,0,0,1,1596,-4)" class="stroke_order_diagram--existing_path"></path><path id="pathSk2v596cn489l" kvg:type="㇐" d="M37.13,46.23c2.87,0.65,5.91,0.35,8.11,0.06c14.04-1.84,28.2-4.49,39.26-5.48c2.58-0.23,5.02-0.47,7.54,0.26" transform="matrix(1,0,0,1,1596,-4)" class="stroke_order_diagram--existing_path"></path><path id="pathSk2v596cn489m" kvg:type="㇑a" d="M49.59,48.35c0.84,0.84,1.32,2.27,1.32,3.61c0,0.82,0.08,28.91,0.08,35.85" transform="matrix(1,0,0,1,1596,-4)" class="stroke_order_diagram--existing_path"></path><path id="pathSk2v596cn489n" kvg:type="㇑a" d="M59.28,47.25c0.86,0.86,1.32,2.25,1.32,3.61c0,0.82-0.1,27.91-0.1,33.64" transform="matrix(1,0,0,1,1596,-4)" class="stroke_order_diagram--existing_path"></path><path id="pathSk2v596cn489o" kvg:type="㇔" d="M39.97,63.57c1.55,2.24,4,9.2,4.39,12.68" transform="matrix(1,0,0,1,1596,-4)" class="stroke_order_diagram--existing_path"></path><path id="pathSk2v596cn489p" kvg:type="㇒" d="M69.76,57.84c0.11,0.77-0.01,1.49-0.35,2.18c-1.1,3.07-2.24,5.65-5.78,10.11" transform="matrix(1,0,0,1,1596,-4)" class="stroke_order_diagram--existing_path"></path><path id="pathSk2v596cn489q" kvg:type="㇀/㇐" d="M39.54,91.44c1.21,0.68,2.8,0.74,3.56,0.47C51.38,89,64.75,84,71.45,81.82" transform="matrix(1,0,0,1,1596,-4)" class="stroke_order_diagram--existing_path"></path><path id="pathSk2v596cn489r" kvg:type="㇂" d="M68.95,11.75c1.21,1.21,1.55,2.5,1.74,5.72c1.85,31.01,7.43,64.03,22.79,77.47c4.51,3.94,3.88,0.78,3.31-7.26" transform="matrix(1,0,0,1,1596,-4)" class="stroke_order_diagram--existing_path"></path><path id="pathSk2v596cn489s" kvg:type="㇒" d="M88.88,51.14c0.05,0.94,0.17,2.44-0.1,3.77C87,63.45,81.21,80.79,71.29,91.47" transform="matrix(1,0,0,1,1596,-4)" class="stroke_order_diagram--existing_path"></path><path id="kvg:07e4a-s17" kvg:type="㇔" d="M81.48,19.5c2.84,1.7,7.38,5.59,8.7,8.5" transform="matrix(1,0,0,1,1596,-4)" class="stroke_order_diagram--current_path"></path><path id="pathSk2v596cn489u" kvg:type="㇔" d="M81.48,19.5c2.84,1.7,7.38,5.59,8.7,8.5" transform="matrix(1,0,0,1,1596,-4)" class="stroke_order_diagram--current_path"></path><circle cx="81.48" cy="19.5" r="8" class="stroke_order_diagram--path_start" transform="matrix(1,0,0,1,1596,-4)"></circle></svg>