<svg style="width: 1200px; height: 100px;" viewbox="0 0 1200 100"><style>
.stroke_order_diagram--outer_container {
  width: 100%;
  overflow-x: auto;
  overflow-y: hidden;
}

.stroke_order_diagram--guide_line {
  fill: none;
  stroke: #ddd;
  stroke-width: 3;
  stroke-linecap: square;
  stroke-linejoin: square;
  stroke-dasharray:8, 8;
}

.stroke_order_diagram--bounding_box {
  fill: none;
  stroke: #ddd;
  stroke-width: 4;
  stroke-linecap: square;
  stroke-linejoin: square;
}

.stroke_order_diagram--current_path {
  fill: none;
  stroke: #000;
  stroke-width: 6;
  stroke-linecap: round;
  stroke-linejoin: round;
}

.stroke_order_diagram--existing_path {
  fill: none;
  stroke: #aaa;
  stroke-width: 6;
  stroke-linecap: round;
  stroke-linejoin:round;
}

.stroke_order_diagram--path_start {
  fill: rgba(255, 0, 0, 0.7);
  stroke:none
}</style><desc>Created with Snap</desc><defs></defs><line x1="1" x2="1199" y1="1" y2="1" class="stroke_order_diagram--bounding_box"></line><line x1="1" x2="1" y1="1" y2="99" class="stroke_order_diagram--bounding_box"></line><line x1="1" x2="1199" y1="99" y2="99" class="stroke_order_diagram--bounding_box"></line><line x1="0" x2="1200" y1="50" y2="50" class="stroke_order_diagram--guide_line"></line><line x1="50" x2="50" y1="1" y2="99" class="stroke_order_diagram--guide_line"></line><line x1="99" x2="99" y1="1" y2="99" class="stroke_order_diagram--bounding_box"></line><path id="kvg:07fd4-s1" kvg:type="㇔" d="M15.04,14.59c2.8,2.52,7.23,10.35,7.93,14.27" transform="matrix(1,0,0,1,-4,-4)" class="stroke_order_diagram--current_path"></path><path id="pathSk2v596cn3fos" kvg:type="㇔" d="M15.04,14.59c2.8,2.52,7.23,10.35,7.93,14.27" transform="matrix(1,0,0,1,-4,-4)" class="stroke_order_diagram--current_path"></path><circle cx="15.04" cy="14.59" r="8" class="stroke_order_diagram--path_start" transform="matrix(1,0,0,1,-4,-4)"></circle><line x1="150" x2="150" y1="1" y2="99" class="stroke_order_diagram--guide_line"></line><line x1="199" x2="199" y1="1" y2="99" class="stroke_order_diagram--bounding_box"></line><path id="pathSk2v596cn3fov" kvg:type="㇔" d="M15.04,14.59c2.8,2.52,7.23,10.35,7.93,14.27" transform="matrix(1,0,0,1,96,-4)" class="stroke_order_diagram--existing_path"></path><path id="kvg:07fd4-s2" kvg:type="㇒" d="M39.88,13.14c0.09,1.03-0.03,2.02-0.38,2.98c-1.88,3.75-4.85,8.33-9.83,14.32" transform="matrix(1,0,0,1,96,-4)" class="stroke_order_diagram--current_path"></path><path id="pathSk2v596cn3fox" kvg:type="㇒" d="M39.88,13.14c0.09,1.03-0.03,2.02-0.38,2.98c-1.88,3.75-4.85,8.33-9.83,14.32" transform="matrix(1,0,0,1,96,-4)" class="stroke_order_diagram--current_path"></path><circle cx="39.88" cy="13.14" r="8" class="stroke_order_diagram--path_start" transform="matrix(1,0,0,1,96,-4)"></circle><line x1="250" x2="250" y1="1" y2="99" class="stroke_order_diagram--guide_line"></line><line x1="299" x2="299" y1="1" y2="99" class="stroke_order_diagram--bounding_box"></line><path id="pathSk2v596cn3fp0" kvg:type="㇔" d="M15.04,14.59c2.8,2.52,7.23,10.35,7.93,14.27" transform="matrix(1,0,0,1,196,-4)" class="stroke_order_diagram--existing_path"></path><path id="pathSk2v596cn3fp1" kvg:type="㇒" d="M39.88,13.14c0.09,1.03-0.03,2.02-0.38,2.98c-1.88,3.75-4.85,8.33-9.83,14.32" transform="matrix(1,0,0,1,196,-4)" class="stroke_order_diagram--existing_path"></path><path id="kvg:07fd4-s3" kvg:type="㇐" d="M12.21,34.14c1.82,0.57,3.57,0.46,5.44,0.31c5.49-0.42,14.26-1.45,19.97-2.05c1.58-0.17,2.76-0.41,4.49-0.23" transform="matrix(1,0,0,1,196,-4)" class="stroke_order_diagram--current_path"></path><path id="pathSk2v596cn3fp3" kvg:type="㇐" d="M12.21,34.14c1.82,0.57,3.57,0.46,5.44,0.31c5.49-0.42,14.26-1.45,19.97-2.05c1.58-0.17,2.76-0.41,4.49-0.23" transform="matrix(1,0,0,1,196,-4)" class="stroke_order_diagram--current_path"></path><circle cx="12.21" cy="34.14" r="8" class="stroke_order_diagram--path_start" transform="matrix(1,0,0,1,196,-4)"></circle><line x1="350" x2="350" y1="1" y2="99" class="stroke_order_diagram--guide_line"></line><line x1="399" x2="399" y1="1" y2="99" class="stroke_order_diagram--bounding_box"></line><path id="pathSk2v596cn3fp6" kvg:type="㇔" d="M15.04,14.59c2.8,2.52,7.23,10.35,7.93,14.27" transform="matrix(1,0,0,1,296,-4)" class="stroke_order_diagram--existing_path"></path><path id="pathSk2v596cn3fp7" kvg:type="㇒" d="M39.88,13.14c0.09,1.03-0.03,2.02-0.38,2.98c-1.88,3.75-4.85,8.33-9.83,14.32" transform="matrix(1,0,0,1,296,-4)" class="stroke_order_diagram--existing_path"></path><path id="pathSk2v596cn3fp8" kvg:type="㇐" d="M12.21,34.14c1.82,0.57,3.57,0.46,5.44,0.31c5.49-0.42,14.26-1.45,19.97-2.05c1.58-0.17,2.76-0.41,4.49-0.23" transform="matrix(1,0,0,1,296,-4)" class="stroke_order_diagram--existing_path"></path><path id="kvg:07fd4-s4" kvg:type="㇐" d="M12.93,48.19c1.3,0.53,3.58,0.4,4.94,0.26c5.25-0.55,13.62-1.95,19.02-2.73c1.46-0.21,3.04-0.37,4.45-0.02" transform="matrix(1,0,0,1,296,-4)" class="stroke_order_diagram--current_path"></path><path id="pathSk2v596cn3fpa" kvg:type="㇐" d="M12.93,48.19c1.3,0.53,3.58,0.4,4.94,0.26c5.25-0.55,13.62-1.95,19.02-2.73c1.46-0.21,3.04-0.37,4.45-0.02" transform="matrix(1,0,0,1,296,-4)" class="stroke_order_diagram--current_path"></path><circle cx="12.93" cy="48.19" r="8" class="stroke_order_diagram--path_start" transform="matrix(1,0,0,1,296,-4)"></circle><line x1="450" x2="450" y1="1" y2="99" class="stroke_order_diagram--guide_line"></line><line x1="499" x2="499" y1="1" y2="99" class="stroke_order_diagram--bounding_box"></line><path id="pathSk2v596cn3fpd" kvg:type="㇔" d="M15.04,14.59c2.8,2.52,7.23,10.35,7.93,14.27" transform="matrix(1,0,0,1,396,-4)" class="stroke_order_diagram--existing_path"></path><path id="pathSk2v596cn3fpe" kvg:type="㇒" d="M39.88,13.14c0.09,1.03-0.03,2.02-0.38,2.98c-1.88,3.75-4.85,8.33-9.83,14.32" transform="matrix(1,0,0,1,396,-4)" class="stroke_order_diagram--existing_path"></path><path id="pathSk2v596cn3fpf" kvg:type="㇐" d="M12.21,34.14c1.82,0.57,3.57,0.46,5.44,0.31c5.49-0.42,14.26-1.45,19.97-2.05c1.58-0.17,2.76-0.41,4.49-0.23" transform="matrix(1,0,0,1,396,-4)" class="stroke_order_diagram--existing_path"></path><path id="pathSk2v596cn3fpg" kvg:type="㇐" d="M12.93,48.19c1.3,0.53,3.58,0.4,4.94,0.26c5.25-0.55,13.62-1.95,19.02-2.73c1.46-0.21,3.04-0.37,4.45-0.02" transform="matrix(1,0,0,1,396,-4)" class="stroke_order_diagram--existing_path"></path><path id="kvg:07fd4-s5" kvg:type="㇐" d="M10,65.47c0.74,0.75,2.81,0.98,3.79,0.69C22,63.75,31.38,61,41.16,58.42" transform="matrix(1,0,0,1,396,-4)" class="stroke_order_diagram--current_path"></path><path id="pathSk2v596cn3fpi" kvg:type="㇐" d="M10,65.47c0.74,0.75,2.81,0.98,3.79,0.69C22,63.75,31.38,61,41.16,58.42" transform="matrix(1,0,0,1,396,-4)" class="stroke_order_diagram--current_path"></path><circle cx="10" cy="65.47" r="8" class="stroke_order_diagram--path_start" transform="matrix(1,0,0,1,396,-4)"></circle><line x1="550" x2="550" y1="1" y2="99" class="stroke_order_diagram--guide_line"></line><line x1="599" x2="599" y1="1" y2="99" class="stroke_order_diagram--bounding_box"></line><path id="pathSk2v596cn3fpl" kvg:type="㇔" d="M15.04,14.59c2.8,2.52,7.23,10.35,7.93,14.27" transform="matrix(1,0,0,1,496,-4)" class="stroke_order_diagram--existing_path"></path><path id="pathSk2v596cn3fpm" kvg:type="㇒" d="M39.88,13.14c0.09,1.03-0.03,2.02-0.38,2.98c-1.88,3.75-4.85,8.33-9.83,14.32" transform="matrix(1,0,0,1,496,-4)" class="stroke_order_diagram--existing_path"></path><path id="pathSk2v596cn3fpn" kvg:type="㇐" d="M12.21,34.14c1.82,0.57,3.57,0.46,5.44,0.31c5.49-0.42,14.26-1.45,19.97-2.05c1.58-0.17,2.76-0.41,4.49-0.23" transform="matrix(1,0,0,1,496,-4)" class="stroke_order_diagram--existing_path"></path><path id="pathSk2v596cn3fpo" kvg:type="㇐" d="M12.93,48.19c1.3,0.53,3.58,0.4,4.94,0.26c5.25-0.55,13.62-1.95,19.02-2.73c1.46-0.21,3.04-0.37,4.45-0.02" transform="matrix(1,0,0,1,496,-4)" class="stroke_order_diagram--existing_path"></path><path id="pathSk2v596cn3fpp" kvg:type="㇐" d="M10,65.47c0.74,0.75,2.81,0.98,3.79,0.69C22,63.75,31.38,61,41.16,58.42" transform="matrix(1,0,0,1,496,-4)" class="stroke_order_diagram--existing_path"></path><path id="kvg:07fd4-s6" kvg:type="㇒" d="M26.9,34.81c0.89,0.9,1.02,2.5,1.02,3.31C28,75.12,26.75,84.25,14.75,95.5" transform="matrix(1,0,0,1,496,-4)" class="stroke_order_diagram--current_path"></path><path id="pathSk2v596cn3fpr" kvg:type="㇒" d="M26.9,34.81c0.89,0.9,1.02,2.5,1.02,3.31C28,75.12,26.75,84.25,14.75,95.5" transform="matrix(1,0,0,1,496,-4)" class="stroke_order_diagram--current_path"></path><circle cx="26.9" cy="34.81" r="8" class="stroke_order_diagram--path_start" transform="matrix(1,0,0,1,496,-4)"></circle><line x1="650" x2="650" y1="1" y2="99" class="stroke_order_diagram--guide_line"></line><line x1="699" x2="699" y1="1" y2="99" class="stroke_order_diagram--bounding_box"></line><path id="pathSk2v596cn3fpu" kvg:type="㇔" d="M15.04,14.59c2.8,2.52,7.23,10.35,7.93,14.27" transform="matrix(1,0,0,1,596,-4)" class="stroke_order_diagram--existing_path"></path><path id="pathSk2v596cn3fpv" kvg:type="㇒" d="M39.88,13.14c0.09,1.03-0.03,2.02-0.38,2.98c-1.88,3.75-4.85,8.33-9.83,14.32" transform="matrix(1,0,0,1,596,-4)" class="stroke_order_diagram--existing_path"></path><path id="pathSk2v596cn3fpw" kvg:type="㇐" d="M12.21,34.14c1.82,0.57,3.57,0.46,5.44,0.31c5.49-0.42,14.26-1.45,19.97-2.05c1.58-0.17,2.76-0.41,4.49-0.23" transform="matrix(1,0,0,1,596,-4)" class="stroke_order_diagram--existing_path"></path><path id="pathSk2v596cn3fpx" kvg:type="㇐" d="M12.93,48.19c1.3,0.53,3.58,0.4,4.94,0.26c5.25-0.55,13.62-1.95,19.02-2.73c1.46-0.21,3.04-0.37,4.45-0.02" transform="matrix(1,0,0,1,596,-4)" class="stroke_order_diagram--existing_path"></path><path id="pathSk2v596cn3fpy" kvg:type="㇐" d="M10,65.47c0.74,0.75,2.81,0.98,3.79,0.69C22,63.75,31.38,61,41.16,58.42" transform="matrix(1,0,0,1,596,-4)" class="stroke_order_diagram--existing_path"></path><path id="pathSk2v596cn3fpz" kvg:type="㇒" d="M26.9,34.81c0.89,0.9,1.02,2.5,1.02,3.31C28,75.12,26.75,84.25,14.75,95.5" transform="matrix(1,0,0,1,596,-4)" class="stroke_order_diagram--existing_path"></path><path id="kvg:07fd4-s7" kvg:type="㇆" d="M42.88,25.82c2.12,0.56,3.1,0.45,4.97,0.09c3.2-0.6,9.49-2.11,13.94-3.11c3-0.68,4.51,0.39,4.51,3.57c0,7.7,0.01,50.94,0.01,62.25c0,9.17-5.69,1.5-7.75-0.67" transform="matrix(1,0,0,1,596,-4)" class="stroke_order_diagram--current_path"></path><path id="pathSk2v596cn3fq1" kvg:type="㇆" d="M42.88,25.82c2.12,0.56,3.1,0.45,4.97,0.09c3.2-0.6,9.49-2.11,13.94-3.11c3-0.68,4.51,0.39,4.51,3.57c0,7.7,0.01,50.94,0.01,62.25c0,9.17-5.69,1.5-7.75-0.67" transform="matrix(1,0,0,1,596,-4)" class="stroke_order_diagram--current_path"></path><circle cx="42.88" cy="25.82" r="8" class="stroke_order_diagram--path_start" transform="matrix(1,0,0,1,596,-4)"></circle><line x1="750" x2="750" y1="1" y2="99" class="stroke_order_diagram--guide_line"></line><line x1="799" x2="799" y1="1" y2="99" class="stroke_order_diagram--bounding_box"></line><path id="pathSk2v596cn3fq4" kvg:type="㇔" d="M15.04,14.59c2.8,2.52,7.23,10.35,7.93,14.27" transform="matrix(1,0,0,1,696,-4)" class="stroke_order_diagram--existing_path"></path><path id="pathSk2v596cn3fq5" kvg:type="㇒" d="M39.88,13.14c0.09,1.03-0.03,2.02-0.38,2.98c-1.88,3.75-4.85,8.33-9.83,14.32" transform="matrix(1,0,0,1,696,-4)" class="stroke_order_diagram--existing_path"></path><path id="pathSk2v596cn3fq6" kvg:type="㇐" d="M12.21,34.14c1.82,0.57,3.57,0.46,5.44,0.31c5.49-0.42,14.26-1.45,19.97-2.05c1.58-0.17,2.76-0.41,4.49-0.23" transform="matrix(1,0,0,1,696,-4)" class="stroke_order_diagram--existing_path"></path><path id="pathSk2v596cn3fq7" kvg:type="㇐" d="M12.93,48.19c1.3,0.53,3.58,0.4,4.94,0.26c5.25-0.55,13.62-1.95,19.02-2.73c1.46-0.21,3.04-0.37,4.45-0.02" transform="matrix(1,0,0,1,696,-4)" class="stroke_order_diagram--existing_path"></path><path id="pathSk2v596cn3fq8" kvg:type="㇐" d="M10,65.47c0.74,0.75,2.81,0.98,3.79,0.69C22,63.75,31.38,61,41.16,58.42" transform="matrix(1,0,0,1,696,-4)" class="stroke_order_diagram--existing_path"></path><path id="pathSk2v596cn3fq9" kvg:type="㇒" d="M26.9,34.81c0.89,0.9,1.02,2.5,1.02,3.31C28,75.12,26.75,84.25,14.75,95.5" transform="matrix(1,0,0,1,696,-4)" class="stroke_order_diagram--existing_path"></path><path id="pathSk2v596cn3fqa" kvg:type="㇆" d="M42.88,25.82c2.12,0.56,3.1,0.45,4.97,0.09c3.2-0.6,9.49-2.11,13.94-3.11c3-0.68,4.51,0.39,4.51,3.57c0,7.7,0.01,50.94,0.01,62.25c0,9.17-5.69,1.5-7.75-0.67" transform="matrix(1,0,0,1,696,-4)" class="stroke_order_diagram--existing_path"></path><path id="kvg:07fd4-s8" kvg:type="㇔" d="M48.03,40.44c2.63,1.25,6.79,5.14,7.45,7.09" transform="matrix(1,0,0,1,696,-4)" class="stroke_order_diagram--current_path"></path><path id="pathSk2v596cn3fqc" kvg:type="㇔" d="M48.03,40.44c2.63,1.25,6.79,5.14,7.45,7.09" transform="matrix(1,0,0,1,696,-4)" class="stroke_order_diagram--current_path"></path><circle cx="48.03" cy="40.44" r="8" class="stroke_order_diagram--path_start" transform="matrix(1,0,0,1,696,-4)"></circle><line x1="850" x2="850" y1="1" y2="99" class="stroke_order_diagram--guide_line"></line><line x1="899" x2="899" y1="1" y2="99" class="stroke_order_diagram--bounding_box"></line><path id="pathSk2v596cn3fqf" kvg:type="㇔" d="M15.04,14.59c2.8,2.52,7.23,10.35,7.93,14.27" transform="matrix(1,0,0,1,796,-4)" class="stroke_order_diagram--existing_path"></path><path id="pathSk2v596cn3fqg" kvg:type="㇒" d="M39.88,13.14c0.09,1.03-0.03,2.02-0.38,2.98c-1.88,3.75-4.85,8.33-9.83,14.32" transform="matrix(1,0,0,1,796,-4)" class="stroke_order_diagram--existing_path"></path><path id="pathSk2v596cn3fqh" kvg:type="㇐" d="M12.21,34.14c1.82,0.57,3.57,0.46,5.44,0.31c5.49-0.42,14.26-1.45,19.97-2.05c1.58-0.17,2.76-0.41,4.49-0.23" transform="matrix(1,0,0,1,796,-4)" class="stroke_order_diagram--existing_path"></path><path id="pathSk2v596cn3fqi" kvg:type="㇐" d="M12.93,48.19c1.3,0.53,3.58,0.4,4.94,0.26c5.25-0.55,13.62-1.95,19.02-2.73c1.46-0.21,3.04-0.37,4.45-0.02" transform="matrix(1,0,0,1,796,-4)" class="stroke_order_diagram--existing_path"></path><path id="pathSk2v596cn3fqj" kvg:type="㇐" d="M10,65.47c0.74,0.75,2.81,0.98,3.79,0.69C22,63.75,31.38,61,41.16,58.42" transform="matrix(1,0,0,1,796,-4)" class="stroke_order_diagram--existing_path"></path><path id="pathSk2v596cn3fqk" kvg:type="㇒" d="M26.9,34.81c0.89,0.9,1.02,2.5,1.02,3.31C28,75.12,26.75,84.25,14.75,95.5" transform="matrix(1,0,0,1,796,-4)" class="stroke_order_diagram--existing_path"></path><path id="pathSk2v596cn3fql" kvg:type="㇆" d="M42.88,25.82c2.12,0.56,3.1,0.45,4.97,0.09c3.2-0.6,9.49-2.11,13.94-3.11c3-0.68,4.51,0.39,4.51,3.57c0,7.7,0.01,50.94,0.01,62.25c0,9.17-5.69,1.5-7.75-0.67" transform="matrix(1,0,0,1,796,-4)" class="stroke_order_diagram--existing_path"></path><path id="pathSk2v596cn3fqm" kvg:type="㇔" d="M48.03,40.44c2.63,1.25,6.79,5.14,7.45,7.09" transform="matrix(1,0,0,1,796,-4)" class="stroke_order_diagram--existing_path"></path><path id="kvg:07fd4-s9" kvg:type="㇀" d="M47.25,68.3c1.75,0.7,2.5,0.28,3.58-1.24c0.64-0.89,4.81-6.84,7.53-11.14" transform="matrix(1,0,0,1,796,-4)" class="stroke_order_diagram--current_path"></path><path id="pathSk2v596cn3fqo" kvg:type="㇀" d="M47.25,68.3c1.75,0.7,2.5,0.28,3.58-1.24c0.64-0.89,4.81-6.84,7.53-11.14" transform="matrix(1,0,0,1,796,-4)" class="stroke_order_diagram--current_path"></path><circle cx="47.25" cy="68.3" r="8" class="stroke_order_diagram--path_start" transform="matrix(1,0,0,1,796,-4)"></circle><line x1="950" x2="950" y1="1" y2="99" class="stroke_order_diagram--guide_line"></line><line x1="999" x2="999" y1="1" y2="99" class="stroke_order_diagram--bounding_box"></line><path id="pathSk2v596cn3fqr" kvg:type="㇔" d="M15.04,14.59c2.8,2.52,7.23,10.35,7.93,14.27" transform="matrix(1,0,0,1,896,-4)" class="stroke_order_diagram--existing_path"></path><path id="pathSk2v596cn3fqs" kvg:type="㇒" d="M39.88,13.14c0.09,1.03-0.03,2.02-0.38,2.98c-1.88,3.75-4.85,8.33-9.83,14.32" transform="matrix(1,0,0,1,896,-4)" class="stroke_order_diagram--existing_path"></path><path id="pathSk2v596cn3fqt" kvg:type="㇐" d="M12.21,34.14c1.82,0.57,3.57,0.46,5.44,0.31c5.49-0.42,14.26-1.45,19.97-2.05c1.58-0.17,2.76-0.41,4.49-0.23" transform="matrix(1,0,0,1,896,-4)" class="stroke_order_diagram--existing_path"></path><path id="pathSk2v596cn3fqu" kvg:type="㇐" d="M12.93,48.19c1.3,0.53,3.58,0.4,4.94,0.26c5.25-0.55,13.62-1.95,19.02-2.73c1.46-0.21,3.04-0.37,4.45-0.02" transform="matrix(1,0,0,1,896,-4)" class="stroke_order_diagram--existing_path"></path><path id="pathSk2v596cn3fqv" kvg:type="㇐" d="M10,65.47c0.74,0.75,2.81,0.98,3.79,0.69C22,63.75,31.38,61,41.16,58.42" transform="matrix(1,0,0,1,896,-4)" class="stroke_order_diagram--existing_path"></path><path id="pathSk2v596cn3fqw" kvg:type="㇒" d="M26.9,34.81c0.89,0.9,1.02,2.5,1.02,3.31C28,75.12,26.75,84.25,14.75,95.5" transform="matrix(1,0,0,1,896,-4)" class="stroke_order_diagram--existing_path"></path><path id="pathSk2v596cn3fqx" kvg:type="㇆" d="M42.88,25.82c2.12,0.56,3.1,0.45,4.97,0.09c3.2-0.6,9.49-2.11,13.94-3.11c3-0.68,4.51,0.39,4.51,3.57c0,7.7,0.01,50.94,0.01,62.25c0,9.17-5.69,1.5-7.75-0.67" transform="matrix(1,0,0,1,896,-4)" class="stroke_order_diagram--existing_path"></path><path id="pathSk2v596cn3fqy" kvg:type="㇔" d="M48.03,40.44c2.63,1.25,6.79,5.14,7.45,7.09" transform="matrix(1,0,0,1,896,-4)" class="stroke_order_diagram--existing_path"></path><path id="pathSk2v596cn3fqz" kvg:type="㇀" d="M47.25,68.3c1.75,0.7,2.5,0.28,3.58-1.24c0.64-0.89,4.81-6.84,7.53-11.14" transform="matrix(1,0,0,1,896,-4)" class="stroke_order_diagram--existing_path"></path><path id="kvg:07fd4-s10" kvg:type="㇆" d="M73.21,24.79c1.79,0.46,3.61,0.26,5.47-0.16c3.46-0.78,9.01-2.13,12.83-2.94c2.98-0.63,4.77,0.04,4.77,3.31c0,6.28,0.01,52.56,0.01,63.88c0,8.67-5.67,1.12-7.25-0.42" transform="matrix(1,0,0,1,896,-4)" class="stroke_order_diagram--current_path"></path><path id="pathSk2v596cn3fr1" kvg:type="㇆" d="M73.21,24.79c1.79,0.46,3.61,0.26,5.47-0.16c3.46-0.78,9.01-2.13,12.83-2.94c2.98-0.63,4.77,0.04,4.77,3.31c0,6.28,0.01,52.56,0.01,63.88c0,8.67-5.67,1.12-7.25-0.42" transform="matrix(1,0,0,1,896,-4)" class="stroke_order_diagram--current_path"></path><circle cx="73.21" cy="24.79" r="8" class="stroke_order_diagram--path_start" transform="matrix(1,0,0,1,896,-4)"></circle><line x1="1050" x2="1050" y1="1" y2="99" class="stroke_order_diagram--guide_line"></line><line x1="1099" x2="1099" y1="1" y2="99" class="stroke_order_diagram--bounding_box"></line><path id="pathSk2v596cn3fr4" kvg:type="㇔" d="M15.04,14.59c2.8,2.52,7.23,10.35,7.93,14.27" transform="matrix(1,0,0,1,996,-4)" class="stroke_order_diagram--existing_path"></path><path id="pathSk2v596cn3fr5" kvg:type="㇒" d="M39.88,13.14c0.09,1.03-0.03,2.02-0.38,2.98c-1.88,3.75-4.85,8.33-9.83,14.32" transform="matrix(1,0,0,1,996,-4)" class="stroke_order_diagram--existing_path"></path><path id="pathSk2v596cn3fr6" kvg:type="㇐" d="M12.21,34.14c1.82,0.57,3.57,0.46,5.44,0.31c5.49-0.42,14.26-1.45,19.97-2.05c1.58-0.17,2.76-0.41,4.49-0.23" transform="matrix(1,0,0,1,996,-4)" class="stroke_order_diagram--existing_path"></path><path id="pathSk2v596cn3fr7" kvg:type="㇐" d="M12.93,48.19c1.3,0.53,3.58,0.4,4.94,0.26c5.25-0.55,13.62-1.95,19.02-2.73c1.46-0.21,3.04-0.37,4.45-0.02" transform="matrix(1,0,0,1,996,-4)" class="stroke_order_diagram--existing_path"></path><path id="pathSk2v596cn3fr8" kvg:type="㇐" d="M10,65.47c0.74,0.75,2.81,0.98,3.79,0.69C22,63.75,31.38,61,41.16,58.42" transform="matrix(1,0,0,1,996,-4)" class="stroke_order_diagram--existing_path"></path><path id="pathSk2v596cn3fr9" kvg:type="㇒" d="M26.9,34.81c0.89,0.9,1.02,2.5,1.02,3.31C28,75.12,26.75,84.25,14.75,95.5" transform="matrix(1,0,0,1,996,-4)" class="stroke_order_diagram--existing_path"></path><path id="pathSk2v596cn3fra" kvg:type="㇆" d="M42.88,25.82c2.12,0.56,3.1,0.45,4.97,0.09c3.2-0.6,9.49-2.11,13.94-3.11c3-0.68,4.51,0.39,4.51,3.57c0,7.7,0.01,50.94,0.01,62.25c0,9.17-5.69,1.5-7.75-0.67" transform="matrix(1,0,0,1,996,-4)" class="stroke_order_diagram--existing_path"></path><path id="pathSk2v596cn3frb" kvg:type="㇔" d="M48.03,40.44c2.63,1.25,6.79,5.14,7.45,7.09" transform="matrix(1,0,0,1,996,-4)" class="stroke_order_diagram--existing_path"></path><path id="pathSk2v596cn3frc" kvg:type="㇀" d="M47.25,68.3c1.75,0.7,2.5,0.28,3.58-1.24c0.64-0.89,4.81-6.84,7.53-11.14" transform="matrix(1,0,0,1,996,-4)" class="stroke_order_diagram--existing_path"></path><path id="pathSk2v596cn3frd" kvg:type="㇆" d="M73.21,24.79c1.79,0.46,3.61,0.26,5.47-0.16c3.46-0.78,9.01-2.13,12.83-2.94c2.98-0.63,4.77,0.04,4.77,3.31c0,6.28,0.01,52.56,0.01,63.88c0,8.67-5.67,1.12-7.25-0.42" transform="matrix(1,0,0,1,996,-4)" class="stroke_order_diagram--existing_path"></path><path id="kvg:07fd4-s11" kvg:type="㇔" d="M78.06,39.81c2.45,1.23,5.44,4.57,6.95,6.96" transform="matrix(1,0,0,1,996,-4)" class="stroke_order_diagram--current_path"></path><path id="pathSk2v596cn3frf" kvg:type="㇔" d="M78.06,39.81c2.45,1.23,5.44,4.57,6.95,6.96" transform="matrix(1,0,0,1,996,-4)" class="stroke_order_diagram--current_path"></path><circle cx="78.06" cy="39.81" r="8" class="stroke_order_diagram--path_start" transform="matrix(1,0,0,1,996,-4)"></circle><line x1="1150" x2="1150" y1="1" y2="99" class="stroke_order_diagram--guide_line"></line><line x1="1199" x2="1199" y1="1" y2="99" class="stroke_order_diagram--bounding_box"></line><path id="pathSk2v596cn3fri" kvg:type="㇔" d="M15.04,14.59c2.8,2.52,7.23,10.35,7.93,14.27" transform="matrix(1,0,0,1,1096,-4)" class="stroke_order_diagram--existing_path"></path><path id="pathSk2v596cn3frj" kvg:type="㇒" d="M39.88,13.14c0.09,1.03-0.03,2.02-0.38,2.98c-1.88,3.75-4.85,8.33-9.83,14.32" transform="matrix(1,0,0,1,1096,-4)" class="stroke_order_diagram--existing_path"></path><path id="pathSk2v596cn3frk" kvg:type="㇐" d="M12.21,34.14c1.82,0.57,3.57,0.46,5.44,0.31c5.49-0.42,14.26-1.45,19.97-2.05c1.58-0.17,2.76-0.41,4.49-0.23" transform="matrix(1,0,0,1,1096,-4)" class="stroke_order_diagram--existing_path"></path><path id="pathSk2v596cn3frl" kvg:type="㇐" d="M12.93,48.19c1.3,0.53,3.58,0.4,4.94,0.26c5.25-0.55,13.62-1.95,19.02-2.73c1.46-0.21,3.04-0.37,4.45-0.02" transform="matrix(1,0,0,1,1096,-4)" class="stroke_order_diagram--existing_path"></path><path id="pathSk2v596cn3frm" kvg:type="㇐" d="M10,65.47c0.74,0.75,2.81,0.98,3.79,0.69C22,63.75,31.38,61,41.16,58.42" transform="matrix(1,0,0,1,1096,-4)" class="stroke_order_diagram--existing_path"></path><path id="pathSk2v596cn3frn" kvg:type="㇒" d="M26.9,34.81c0.89,0.9,1.02,2.5,1.02,3.31C28,75.12,26.75,84.25,14.75,95.5" transform="matrix(1,0,0,1,1096,-4)" class="stroke_order_diagram--existing_path"></path><path id="pathSk2v596cn3fro" kvg:type="㇆" d="M42.88,25.82c2.12,0.56,3.1,0.45,4.97,0.09c3.2-0.6,9.49-2.11,13.94-3.11c3-0.68,4.51,0.39,4.51,3.57c0,7.7,0.01,50.94,0.01,62.25c0,9.17-5.69,1.5-7.75-0.67" transform="matrix(1,0,0,1,1096,-4)" class="stroke_order_diagram--existing_path"></path><path id="pathSk2v596cn3frp" kvg:type="㇔" d="M48.03,40.44c2.63,1.25,6.79,5.14,7.45,7.09" transform="matrix(1,0,0,1,1096,-4)" class="stroke_order_diagram--existing_path"></path><path id="pathSk2v596cn3frq" kvg:type="㇀" d="M47.25,68.3c1.75,0.7,2.5,0.28,3.58-1.24c0.64-0.89,4.81-6.84,7.53-11.14" transform="matrix(1,0,0,1,1096,-4)" class="stroke_order_diagram--existing_path"></path><path id="pathSk2v596cn3frr" kvg:type="㇆" d="M73.21,24.79c1.79,0.46,3.61,0.26,5.47-0.16c3.46-0.78,9.01-2.13,12.83-2.94c2.98-0.63,4.77,0.04,4.77,3.31c0,6.28,0.01,52.56,0.01,63.88c0,8.67-5.67,1.12-7.25-0.42" transform="matrix(1,0,0,1,1096,-4)" class="stroke_order_diagram--existing_path"></path><path id="pathSk2v596cn3frs" kvg:type="㇔" d="M78.06,39.81c2.45,1.23,5.44,4.57,6.95,6.96" transform="matrix(1,0,0,1,1096,-4)" class="stroke_order_diagram--existing_path"></path><path id="kvg:07fd4-s12" kvg:type="㇀" d="M76.28,65.18c1.22,0.57,2.62,0.48,3.78-0.71c2.19-2.22,5.83-5.82,8.58-8.81" transform="matrix(1,0,0,1,1096,-4)" class="stroke_order_diagram--current_path"></path><path id="pathSk2v596cn3fru" kvg:type="㇀" d="M76.28,65.18c1.22,0.57,2.62,0.48,3.78-0.71c2.19-2.22,5.83-5.82,8.58-8.81" transform="matrix(1,0,0,1,1096,-4)" class="stroke_order_diagram--current_path"></path><circle cx="76.28" cy="65.18" r="8" class="stroke_order_diagram--path_start" transform="matrix(1,0,0,1,1096,-4)"></circle></svg>