<svg style="width: 900px; height: 100px;" viewbox="0 0 900 100"><style>
.stroke_order_diagram--outer_container {
  width: 100%;
  overflow-x: auto;
  overflow-y: hidden;
}

.stroke_order_diagram--guide_line {
  fill: none;
  stroke: #ddd;
  stroke-width: 3;
  stroke-linecap: square;
  stroke-linejoin: square;
  stroke-dasharray:8, 8;
}

.stroke_order_diagram--bounding_box {
  fill: none;
  stroke: #ddd;
  stroke-width: 4;
  stroke-linecap: square;
  stroke-linejoin: square;
}

.stroke_order_diagram--current_path {
  fill: none;
  stroke: #000;
  stroke-width: 6;
  stroke-linecap: round;
  stroke-linejoin: round;
}

.stroke_order_diagram--existing_path {
  fill: none;
  stroke: #aaa;
  stroke-width: 6;
  stroke-linecap: round;
  stroke-linejoin:round;
}

.stroke_order_diagram--path_start {
  fill: rgba(255, 0, 0, 0.7);
  stroke:none
}</style><desc>Created with Snap</desc><defs></defs><line x1="1" x2="899" y1="1" y2="1" class="stroke_order_diagram--bounding_box"></line><line x1="1" x2="1" y1="1" y2="99" class="stroke_order_diagram--bounding_box"></line><line x1="1" x2="899" y1="99" y2="99" class="stroke_order_diagram--bounding_box"></line><line x1="0" x2="900" y1="50" y2="50" class="stroke_order_diagram--guide_line"></line><line x1="50" x2="50" y1="1" y2="99" class="stroke_order_diagram--guide_line"></line><line x1="99" x2="99" y1="1" y2="99" class="stroke_order_diagram--bounding_box"></line><path id="kvg:08010-s1" kvg:type="㇐" d="M13.82,21.12c2.43,0.76,4.86,0.32,6.82,0.06c7.19-0.94,19.6-2.79,27.75-3.49c2.06-0.18,4.16-0.43,6.15,0.26" transform="matrix(1,0,0,1,-4,-4)" class="stroke_order_diagram--current_path"></path><path id="pathSk2v596cn3pyr" kvg:type="㇐" d="M13.82,21.12c2.43,0.76,4.86,0.32,6.82,0.06c7.19-0.94,19.6-2.79,27.75-3.49c2.06-0.18,4.16-0.43,6.15,0.26" transform="matrix(1,0,0,1,-4,-4)" class="stroke_order_diagram--current_path"></path><circle cx="13.82" cy="21.12" r="8" class="stroke_order_diagram--path_start" transform="matrix(1,0,0,1,-4,-4)"></circle><line x1="150" x2="150" y1="1" y2="99" class="stroke_order_diagram--guide_line"></line><line x1="199" x2="199" y1="1" y2="99" class="stroke_order_diagram--bounding_box"></line><path id="pathSk2v596cn3pyu" kvg:type="㇐" d="M13.82,21.12c2.43,0.76,4.86,0.32,6.82,0.06c7.19-0.94,19.6-2.79,27.75-3.49c2.06-0.18,4.16-0.43,6.15,0.26" transform="matrix(1,0,0,1,96,-4)" class="stroke_order_diagram--existing_path"></path><path id="kvg:08010-s2" kvg:type="㇒" d="M33.56,23.45c0.03,0.44,0.06,1.14-0.06,1.77c-0.51,2.59-2.68,7.33-5.87,11.66" transform="matrix(1,0,0,1,96,-4)" class="stroke_order_diagram--current_path"></path><path id="pathSk2v596cn3pyw" kvg:type="㇒" d="M33.56,23.45c0.03,0.44,0.06,1.14-0.06,1.77c-0.51,2.59-2.68,7.33-5.87,11.66" transform="matrix(1,0,0,1,96,-4)" class="stroke_order_diagram--current_path"></path><circle cx="33.56" cy="23.45" r="8" class="stroke_order_diagram--path_start" transform="matrix(1,0,0,1,96,-4)"></circle><line x1="250" x2="250" y1="1" y2="99" class="stroke_order_diagram--guide_line"></line><line x1="299" x2="299" y1="1" y2="99" class="stroke_order_diagram--bounding_box"></line><path id="pathSk2v596cn3pyz" kvg:type="㇐" d="M13.82,21.12c2.43,0.76,4.86,0.32,6.82,0.06c7.19-0.94,19.6-2.79,27.75-3.49c2.06-0.18,4.16-0.43,6.15,0.26" transform="matrix(1,0,0,1,196,-4)" class="stroke_order_diagram--existing_path"></path><path id="pathSk2v596cn3pz0" kvg:type="㇒" d="M33.56,23.45c0.03,0.44,0.06,1.14-0.06,1.77c-0.51,2.59-2.68,7.33-5.87,11.66" transform="matrix(1,0,0,1,196,-4)" class="stroke_order_diagram--existing_path"></path><path id="kvg:08010-s3" kvg:type="㇑" d="M14,39.82c1.15,1.15,1.09,2.43,1.09,3.78C15.09,50,15,69.14,15,80.18c0,2.87,0,4.95,0,5.7" transform="matrix(1,0,0,1,196,-4)" class="stroke_order_diagram--current_path"></path><path id="pathSk2v596cn3pz2" kvg:type="㇑" d="M14,39.82c1.15,1.15,1.09,2.43,1.09,3.78C15.09,50,15,69.14,15,80.18c0,2.87,0,4.95,0,5.7" transform="matrix(1,0,0,1,196,-4)" class="stroke_order_diagram--current_path"></path><circle cx="14" cy="39.82" r="8" class="stroke_order_diagram--path_start" transform="matrix(1,0,0,1,196,-4)"></circle><line x1="350" x2="350" y1="1" y2="99" class="stroke_order_diagram--guide_line"></line><line x1="399" x2="399" y1="1" y2="99" class="stroke_order_diagram--bounding_box"></line><path id="pathSk2v596cn3pz5" kvg:type="㇐" d="M13.82,21.12c2.43,0.76,4.86,0.32,6.82,0.06c7.19-0.94,19.6-2.79,27.75-3.49c2.06-0.18,4.16-0.43,6.15,0.26" transform="matrix(1,0,0,1,296,-4)" class="stroke_order_diagram--existing_path"></path><path id="pathSk2v596cn3pz6" kvg:type="㇒" d="M33.56,23.45c0.03,0.44,0.06,1.14-0.06,1.77c-0.51,2.59-2.68,7.33-5.87,11.66" transform="matrix(1,0,0,1,296,-4)" class="stroke_order_diagram--existing_path"></path><path id="pathSk2v596cn3pz7" kvg:type="㇑" d="M14,39.82c1.15,1.15,1.09,2.43,1.09,3.78C15.09,50,15,69.14,15,80.18c0,2.87,0,4.95,0,5.7" transform="matrix(1,0,0,1,296,-4)" class="stroke_order_diagram--existing_path"></path><path id="kvg:08010-s4" kvg:type="㇆a" d="M15.38,41.25c7.72-1.21,25.87-3.66,32.14-4.49C50.86,36.32,53,36.6,53,40.5c0,6.8-0.03,32.25-0.03,38.59c0,11.41-3.21,5.66-5.67,2.94" transform="matrix(1,0,0,1,296,-4)" class="stroke_order_diagram--current_path"></path><path id="pathSk2v596cn3pz9" kvg:type="㇆a" d="M15.38,41.25c7.72-1.21,25.87-3.66,32.14-4.49C50.86,36.32,53,36.6,53,40.5c0,6.8-0.03,32.25-0.03,38.59c0,11.41-3.21,5.66-5.67,2.94" transform="matrix(1,0,0,1,296,-4)" class="stroke_order_diagram--current_path"></path><circle cx="15.38" cy="41.25" r="8" class="stroke_order_diagram--path_start" transform="matrix(1,0,0,1,296,-4)"></circle><line x1="450" x2="450" y1="1" y2="99" class="stroke_order_diagram--guide_line"></line><line x1="499" x2="499" y1="1" y2="99" class="stroke_order_diagram--bounding_box"></line><path id="pathSk2v596cn3pzc" kvg:type="㇐" d="M13.82,21.12c2.43,0.76,4.86,0.32,6.82,0.06c7.19-0.94,19.6-2.79,27.75-3.49c2.06-0.18,4.16-0.43,6.15,0.26" transform="matrix(1,0,0,1,396,-4)" class="stroke_order_diagram--existing_path"></path><path id="pathSk2v596cn3pzd" kvg:type="㇒" d="M33.56,23.45c0.03,0.44,0.06,1.14-0.06,1.77c-0.51,2.59-2.68,7.33-5.87,11.66" transform="matrix(1,0,0,1,396,-4)" class="stroke_order_diagram--existing_path"></path><path id="pathSk2v596cn3pze" kvg:type="㇑" d="M14,39.82c1.15,1.15,1.09,2.43,1.09,3.78C15.09,50,15,69.14,15,80.18c0,2.87,0,4.95,0,5.7" transform="matrix(1,0,0,1,396,-4)" class="stroke_order_diagram--existing_path"></path><path id="pathSk2v596cn3pzf" kvg:type="㇆a" d="M15.38,41.25c7.72-1.21,25.87-3.66,32.14-4.49C50.86,36.32,53,36.6,53,40.5c0,6.8-0.03,32.25-0.03,38.59c0,11.41-3.21,5.66-5.67,2.94" transform="matrix(1,0,0,1,396,-4)" class="stroke_order_diagram--existing_path"></path><path id="kvg:08010-s5" kvg:type="㇑" d="M27.06,42.22c0.98,0.98,1.04,2.65,1.04,4.82c0,9.34,0.04,17.34-0.04,25.46c-0.02,2.07-0.04,4.16-0.04,6.31" transform="matrix(1,0,0,1,396,-4)" class="stroke_order_diagram--current_path"></path><path id="pathSk2v596cn3pzh" kvg:type="㇑" d="M27.06,42.22c0.98,0.98,1.04,2.65,1.04,4.82c0,9.34,0.04,17.34-0.04,25.46c-0.02,2.07-0.04,4.16-0.04,6.31" transform="matrix(1,0,0,1,396,-4)" class="stroke_order_diagram--current_path"></path><circle cx="27.06" cy="42.22" r="8" class="stroke_order_diagram--path_start" transform="matrix(1,0,0,1,396,-4)"></circle><line x1="550" x2="550" y1="1" y2="99" class="stroke_order_diagram--guide_line"></line><line x1="599" x2="599" y1="1" y2="99" class="stroke_order_diagram--bounding_box"></line><path id="pathSk2v596cn3pzk" kvg:type="㇐" d="M13.82,21.12c2.43,0.76,4.86,0.32,6.82,0.06c7.19-0.94,19.6-2.79,27.75-3.49c2.06-0.18,4.16-0.43,6.15,0.26" transform="matrix(1,0,0,1,496,-4)" class="stroke_order_diagram--existing_path"></path><path id="pathSk2v596cn3pzl" kvg:type="㇒" d="M33.56,23.45c0.03,0.44,0.06,1.14-0.06,1.77c-0.51,2.59-2.68,7.33-5.87,11.66" transform="matrix(1,0,0,1,496,-4)" class="stroke_order_diagram--existing_path"></path><path id="pathSk2v596cn3pzm" kvg:type="㇑" d="M14,39.82c1.15,1.15,1.09,2.43,1.09,3.78C15.09,50,15,69.14,15,80.18c0,2.87,0,4.95,0,5.7" transform="matrix(1,0,0,1,496,-4)" class="stroke_order_diagram--existing_path"></path><path id="pathSk2v596cn3pzn" kvg:type="㇆a" d="M15.38,41.25c7.72-1.21,25.87-3.66,32.14-4.49C50.86,36.32,53,36.6,53,40.5c0,6.8-0.03,32.25-0.03,38.59c0,11.41-3.21,5.66-5.67,2.94" transform="matrix(1,0,0,1,496,-4)" class="stroke_order_diagram--existing_path"></path><path id="pathSk2v596cn3pzo" kvg:type="㇑" d="M27.06,42.22c0.98,0.98,1.04,2.65,1.04,4.82c0,9.34,0.04,17.34-0.04,25.46c-0.02,2.07-0.04,4.16-0.04,6.31" transform="matrix(1,0,0,1,496,-4)" class="stroke_order_diagram--existing_path"></path><path id="kvg:08010-s6" kvg:type="㇑" d="M38.09,40.13c1.01,1.01,1.29,2.24,1.29,4.07c0,10.97,0.08,20.13,0.03,27.52c-0.02,2.58-0.03,5.07-0.03,7.54" transform="matrix(1,0,0,1,496,-4)" class="stroke_order_diagram--current_path"></path><path id="pathSk2v596cn3pzq" kvg:type="㇑" d="M38.09,40.13c1.01,1.01,1.29,2.24,1.29,4.07c0,10.97,0.08,20.13,0.03,27.52c-0.02,2.58-0.03,5.07-0.03,7.54" transform="matrix(1,0,0,1,496,-4)" class="stroke_order_diagram--current_path"></path><circle cx="38.09" cy="40.13" r="8" class="stroke_order_diagram--path_start" transform="matrix(1,0,0,1,496,-4)"></circle><line x1="650" x2="650" y1="1" y2="99" class="stroke_order_diagram--guide_line"></line><line x1="699" x2="699" y1="1" y2="99" class="stroke_order_diagram--bounding_box"></line><path id="pathSk2v596cn3pzt" kvg:type="㇐" d="M13.82,21.12c2.43,0.76,4.86,0.32,6.82,0.06c7.19-0.94,19.6-2.79,27.75-3.49c2.06-0.18,4.16-0.43,6.15,0.26" transform="matrix(1,0,0,1,596,-4)" class="stroke_order_diagram--existing_path"></path><path id="pathSk2v596cn3pzu" kvg:type="㇒" d="M33.56,23.45c0.03,0.44,0.06,1.14-0.06,1.77c-0.51,2.59-2.68,7.33-5.87,11.66" transform="matrix(1,0,0,1,596,-4)" class="stroke_order_diagram--existing_path"></path><path id="pathSk2v596cn3pzv" kvg:type="㇑" d="M14,39.82c1.15,1.15,1.09,2.43,1.09,3.78C15.09,50,15,69.14,15,80.18c0,2.87,0,4.95,0,5.7" transform="matrix(1,0,0,1,596,-4)" class="stroke_order_diagram--existing_path"></path><path id="pathSk2v596cn3pzw" kvg:type="㇆a" d="M15.38,41.25c7.72-1.21,25.87-3.66,32.14-4.49C50.86,36.32,53,36.6,53,40.5c0,6.8-0.03,32.25-0.03,38.59c0,11.41-3.21,5.66-5.67,2.94" transform="matrix(1,0,0,1,596,-4)" class="stroke_order_diagram--existing_path"></path><path id="pathSk2v596cn3pzx" kvg:type="㇑" d="M27.06,42.22c0.98,0.98,1.04,2.65,1.04,4.82c0,9.34,0.04,17.34-0.04,25.46c-0.02,2.07-0.04,4.16-0.04,6.31" transform="matrix(1,0,0,1,596,-4)" class="stroke_order_diagram--existing_path"></path><path id="pathSk2v596cn3pzy" kvg:type="㇑" d="M38.09,40.13c1.01,1.01,1.29,2.24,1.29,4.07c0,10.97,0.08,20.13,0.03,27.52c-0.02,2.58-0.03,5.07-0.03,7.54" transform="matrix(1,0,0,1,596,-4)" class="stroke_order_diagram--existing_path"></path><path id="kvg:08010-s7" kvg:type="㇐" d="M59.81,41.23c2.59,0.6,4.59,0.47,7.2,0.06c7.24-1.12,18.17-3.07,26.12-4.02c1.94-0.23,4.37-0.4,6.12,0.22" transform="matrix(1,0,0,1,596,-4)" class="stroke_order_diagram--current_path"></path><path id="pathSk2v596cn3q00" kvg:type="㇐" d="M59.81,41.23c2.59,0.6,4.59,0.47,7.2,0.06c7.24-1.12,18.17-3.07,26.12-4.02c1.94-0.23,4.37-0.4,6.12,0.22" transform="matrix(1,0,0,1,596,-4)" class="stroke_order_diagram--current_path"></path><circle cx="59.81" cy="41.23" r="8" class="stroke_order_diagram--path_start" transform="matrix(1,0,0,1,596,-4)"></circle><line x1="750" x2="750" y1="1" y2="99" class="stroke_order_diagram--guide_line"></line><line x1="799" x2="799" y1="1" y2="99" class="stroke_order_diagram--bounding_box"></line><path id="pathSk2v596cn3q03" kvg:type="㇐" d="M13.82,21.12c2.43,0.76,4.86,0.32,6.82,0.06c7.19-0.94,19.6-2.79,27.75-3.49c2.06-0.18,4.16-0.43,6.15,0.26" transform="matrix(1,0,0,1,696,-4)" class="stroke_order_diagram--existing_path"></path><path id="pathSk2v596cn3q04" kvg:type="㇒" d="M33.56,23.45c0.03,0.44,0.06,1.14-0.06,1.77c-0.51,2.59-2.68,7.33-5.87,11.66" transform="matrix(1,0,0,1,696,-4)" class="stroke_order_diagram--existing_path"></path><path id="pathSk2v596cn3q05" kvg:type="㇑" d="M14,39.82c1.15,1.15,1.09,2.43,1.09,3.78C15.09,50,15,69.14,15,80.18c0,2.87,0,4.95,0,5.7" transform="matrix(1,0,0,1,696,-4)" class="stroke_order_diagram--existing_path"></path><path id="pathSk2v596cn3q06" kvg:type="㇆a" d="M15.38,41.25c7.72-1.21,25.87-3.66,32.14-4.49C50.86,36.32,53,36.6,53,40.5c0,6.8-0.03,32.25-0.03,38.59c0,11.41-3.21,5.66-5.67,2.94" transform="matrix(1,0,0,1,696,-4)" class="stroke_order_diagram--existing_path"></path><path id="pathSk2v596cn3q07" kvg:type="㇑" d="M27.06,42.22c0.98,0.98,1.04,2.65,1.04,4.82c0,9.34,0.04,17.34-0.04,25.46c-0.02,2.07-0.04,4.16-0.04,6.31" transform="matrix(1,0,0,1,696,-4)" class="stroke_order_diagram--existing_path"></path><path id="pathSk2v596cn3q08" kvg:type="㇑" d="M38.09,40.13c1.01,1.01,1.29,2.24,1.29,4.07c0,10.97,0.08,20.13,0.03,27.52c-0.02,2.58-0.03,5.07-0.03,7.54" transform="matrix(1,0,0,1,696,-4)" class="stroke_order_diagram--existing_path"></path><path id="pathSk2v596cn3q09" kvg:type="㇐" d="M59.81,41.23c2.59,0.6,4.59,0.47,7.2,0.06c7.24-1.12,18.17-3.07,26.12-4.02c1.94-0.23,4.37-0.4,6.12,0.22" transform="matrix(1,0,0,1,696,-4)" class="stroke_order_diagram--existing_path"></path><path id="kvg:08010-s8" kvg:type="㇚" d="M83.21,14.08c0.98,0.98,1.56,2.29,1.56,4.6c0,19.79,0.03,66.39,0.03,71.2c0,11.67-6.32,1.73-8.16,0.24" transform="matrix(1,0,0,1,696,-4)" class="stroke_order_diagram--current_path"></path><path id="pathSk2v596cn3q0b" kvg:type="㇚" d="M83.21,14.08c0.98,0.98,1.56,2.29,1.56,4.6c0,19.79,0.03,66.39,0.03,71.2c0,11.67-6.32,1.73-8.16,0.24" transform="matrix(1,0,0,1,696,-4)" class="stroke_order_diagram--current_path"></path><circle cx="83.21" cy="14.08" r="8" class="stroke_order_diagram--path_start" transform="matrix(1,0,0,1,696,-4)"></circle><line x1="850" x2="850" y1="1" y2="99" class="stroke_order_diagram--guide_line"></line><line x1="899" x2="899" y1="1" y2="99" class="stroke_order_diagram--bounding_box"></line><path id="pathSk2v596cn3q0e" kvg:type="㇐" d="M13.82,21.12c2.43,0.76,4.86,0.32,6.82,0.06c7.19-0.94,19.6-2.79,27.75-3.49c2.06-0.18,4.16-0.43,6.15,0.26" transform="matrix(1,0,0,1,796,-4)" class="stroke_order_diagram--existing_path"></path><path id="pathSk2v596cn3q0f" kvg:type="㇒" d="M33.56,23.45c0.03,0.44,0.06,1.14-0.06,1.77c-0.51,2.59-2.68,7.33-5.87,11.66" transform="matrix(1,0,0,1,796,-4)" class="stroke_order_diagram--existing_path"></path><path id="pathSk2v596cn3q0g" kvg:type="㇑" d="M14,39.82c1.15,1.15,1.09,2.43,1.09,3.78C15.09,50,15,69.14,15,80.18c0,2.87,0,4.95,0,5.7" transform="matrix(1,0,0,1,796,-4)" class="stroke_order_diagram--existing_path"></path><path id="pathSk2v596cn3q0h" kvg:type="㇆a" d="M15.38,41.25c7.72-1.21,25.87-3.66,32.14-4.49C50.86,36.32,53,36.6,53,40.5c0,6.8-0.03,32.25-0.03,38.59c0,11.41-3.21,5.66-5.67,2.94" transform="matrix(1,0,0,1,796,-4)" class="stroke_order_diagram--existing_path"></path><path id="pathSk2v596cn3q0i" kvg:type="㇑" d="M27.06,42.22c0.98,0.98,1.04,2.65,1.04,4.82c0,9.34,0.04,17.34-0.04,25.46c-0.02,2.07-0.04,4.16-0.04,6.31" transform="matrix(1,0,0,1,796,-4)" class="stroke_order_diagram--existing_path"></path><path id="pathSk2v596cn3q0j" kvg:type="㇑" d="M38.09,40.13c1.01,1.01,1.29,2.24,1.29,4.07c0,10.97,0.08,20.13,0.03,27.52c-0.02,2.58-0.03,5.07-0.03,7.54" transform="matrix(1,0,0,1,796,-4)" class="stroke_order_diagram--existing_path"></path><path id="pathSk2v596cn3q0k" kvg:type="㇐" d="M59.81,41.23c2.59,0.6,4.59,0.47,7.2,0.06c7.24-1.12,18.17-3.07,26.12-4.02c1.94-0.23,4.37-0.4,6.12,0.22" transform="matrix(1,0,0,1,796,-4)" class="stroke_order_diagram--existing_path"></path><path id="pathSk2v596cn3q0l" kvg:type="㇚" d="M83.21,14.08c0.98,0.98,1.56,2.29,1.56,4.6c0,19.79,0.03,66.39,0.03,71.2c0,11.67-6.32,1.73-8.16,0.24" transform="matrix(1,0,0,1,796,-4)" class="stroke_order_diagram--existing_path"></path><path id="kvg:08010-s9" kvg:type="㇔" d="M63.88,55.38c2.47,1.92,6.38,7.89,7,10.87" transform="matrix(1,0,0,1,796,-4)" class="stroke_order_diagram--current_path"></path><path id="pathSk2v596cn3q0n" kvg:type="㇔" d="M63.88,55.38c2.47,1.92,6.38,7.89,7,10.87" transform="matrix(1,0,0,1,796,-4)" class="stroke_order_diagram--current_path"></path><circle cx="63.88" cy="55.38" r="8" class="stroke_order_diagram--path_start" transform="matrix(1,0,0,1,796,-4)"></circle></svg>