<svg style="width: 600px; height: 100px;" viewbox="0 0 600 100"><style>
.stroke_order_diagram--outer_container {
  width: 100%;
  overflow-x: auto;
  overflow-y: hidden;
}

.stroke_order_diagram--guide_line {
  fill: none;
  stroke: #ddd;
  stroke-width: 3;
  stroke-linecap: square;
  stroke-linejoin: square;
  stroke-dasharray:8, 8;
}

.stroke_order_diagram--bounding_box {
  fill: none;
  stroke: #ddd;
  stroke-width: 4;
  stroke-linecap: square;
  stroke-linejoin: square;
}

.stroke_order_diagram--current_path {
  fill: none;
  stroke: #000;
  stroke-width: 6;
  stroke-linecap: round;
  stroke-linejoin: round;
}

.stroke_order_diagram--existing_path {
  fill: none;
  stroke: #aaa;
  stroke-width: 6;
  stroke-linecap: round;
  stroke-linejoin:round;
}

.stroke_order_diagram--path_start {
  fill: rgba(255, 0, 0, 0.7);
  stroke:none
}</style><desc>Created with Snap</desc><defs></defs><line x1="1" x2="599" y1="1" y2="1" class="stroke_order_diagram--bounding_box"></line><line x1="1" x2="1" y1="1" y2="99" class="stroke_order_diagram--bounding_box"></line><line x1="1" x2="599" y1="99" y2="99" class="stroke_order_diagram--bounding_box"></line><line x1="0" x2="600" y1="50" y2="50" class="stroke_order_diagram--guide_line"></line><line x1="50" x2="50" y1="1" y2="99" class="stroke_order_diagram--guide_line"></line><line x1="99" x2="99" y1="1" y2="99" class="stroke_order_diagram--bounding_box"></line><path id="kvg:08089-s1" kvg:type="㇑" d="M19,30.27c1.11,1.11,1.44,2.82,1.44,4.56c0,5.46,0.16,39.85,0.21,53.67c0.01,3.04,0.02,5.09,0.02,5.61" transform="matrix(1,0,0,1,-4,-4)" class="stroke_order_diagram--current_path"></path><path id="pathSk2v596cn4m8" kvg:type="㇑" d="M19,30.27c1.11,1.11,1.44,2.82,1.44,4.56c0,5.46,0.16,39.85,0.21,53.67c0.01,3.04,0.02,5.09,0.02,5.61" transform="matrix(1,0,0,1,-4,-4)" class="stroke_order_diagram--current_path"></path><circle cx="19" cy="30.27" r="8" class="stroke_order_diagram--path_start" transform="matrix(1,0,0,1,-4,-4)"></circle><line x1="150" x2="150" y1="1" y2="99" class="stroke_order_diagram--guide_line"></line><line x1="199" x2="199" y1="1" y2="99" class="stroke_order_diagram--bounding_box"></line><path id="pathSk2v596cn4mb" kvg:type="㇑" d="M19,30.27c1.11,1.11,1.44,2.82,1.44,4.56c0,5.46,0.16,39.85,0.21,53.67c0.01,3.04,0.02,5.09,0.02,5.61" transform="matrix(1,0,0,1,96,-4)" class="stroke_order_diagram--existing_path"></path><path id="kvg:08089-s2" kvg:type="㇆a" d="M21.01,32.11c16.09-1.31,61.86-4.76,63.38-4.76c3.86,0,5.92,1.9,5.92,5.3c0,1.91,0.24,54.28,0.24,58.68c0,9.67-6.04,2.42-9.44-0.71" transform="matrix(1,0,0,1,96,-4)" class="stroke_order_diagram--current_path"></path><path id="pathSk2v596cn4md" kvg:type="㇆a" d="M21.01,32.11c16.09-1.31,61.86-4.76,63.38-4.76c3.86,0,5.92,1.9,5.92,5.3c0,1.91,0.24,54.28,0.24,58.68c0,9.67-6.04,2.42-9.44-0.71" transform="matrix(1,0,0,1,96,-4)" class="stroke_order_diagram--current_path"></path><circle cx="21.01" cy="32.11" r="8" class="stroke_order_diagram--path_start" transform="matrix(1,0,0,1,96,-4)"></circle><line x1="250" x2="250" y1="1" y2="99" class="stroke_order_diagram--guide_line"></line><line x1="299" x2="299" y1="1" y2="99" class="stroke_order_diagram--bounding_box"></line><path id="pathSk2v596cn4mg" kvg:type="㇑" d="M19,30.27c1.11,1.11,1.44,2.82,1.44,4.56c0,5.46,0.16,39.85,0.21,53.67c0.01,3.04,0.02,5.09,0.02,5.61" transform="matrix(1,0,0,1,196,-4)" class="stroke_order_diagram--existing_path"></path><path id="pathSk2v596cn4mh" kvg:type="㇆a" d="M21.01,32.11c16.09-1.31,61.86-4.76,63.38-4.76c3.86,0,5.92,1.9,5.92,5.3c0,1.91,0.24,54.28,0.24,58.68c0,9.67-6.04,2.42-9.44-0.71" transform="matrix(1,0,0,1,196,-4)" class="stroke_order_diagram--existing_path"></path><path id="kvg:08089-s3" kvg:type="㇒" d="M53.28,12.75C54,14,54.03,15.33,54.1,16.79c0.65,13.46-8.35,34.46-24.6,38.71" transform="matrix(1,0,0,1,196,-4)" class="stroke_order_diagram--current_path"></path><path id="pathSk2v596cn4mj" kvg:type="㇒" d="M53.28,12.75C54,14,54.03,15.33,54.1,16.79c0.65,13.46-8.35,34.46-24.6,38.71" transform="matrix(1,0,0,1,196,-4)" class="stroke_order_diagram--current_path"></path><circle cx="53.28" cy="12.75" r="8" class="stroke_order_diagram--path_start" transform="matrix(1,0,0,1,196,-4)"></circle><line x1="350" x2="350" y1="1" y2="99" class="stroke_order_diagram--guide_line"></line><line x1="399" x2="399" y1="1" y2="99" class="stroke_order_diagram--bounding_box"></line><path id="pathSk2v596cn4mm" kvg:type="㇑" d="M19,30.27c1.11,1.11,1.44,2.82,1.44,4.56c0,5.46,0.16,39.85,0.21,53.67c0.01,3.04,0.02,5.09,0.02,5.61" transform="matrix(1,0,0,1,296,-4)" class="stroke_order_diagram--existing_path"></path><path id="pathSk2v596cn4mn" kvg:type="㇆a" d="M21.01,32.11c16.09-1.31,61.86-4.76,63.38-4.76c3.86,0,5.92,1.9,5.92,5.3c0,1.91,0.24,54.28,0.24,58.68c0,9.67-6.04,2.42-9.44-0.71" transform="matrix(1,0,0,1,296,-4)" class="stroke_order_diagram--existing_path"></path><path id="pathSk2v596cn4mo" kvg:type="㇒" d="M53.28,12.75C54,14,54.03,15.33,54.1,16.79c0.65,13.46-8.35,34.46-24.6,38.71" transform="matrix(1,0,0,1,296,-4)" class="stroke_order_diagram--existing_path"></path><path id="kvg:08089-s4" kvg:type="㇔" d="M54.5,37.25c8.56,3.18,22.11,13.06,24.25,18" transform="matrix(1,0,0,1,296,-4)" class="stroke_order_diagram--current_path"></path><path id="pathSk2v596cn4mq" kvg:type="㇔" d="M54.5,37.25c8.56,3.18,22.11,13.06,24.25,18" transform="matrix(1,0,0,1,296,-4)" class="stroke_order_diagram--current_path"></path><circle cx="54.5" cy="37.25" r="8" class="stroke_order_diagram--path_start" transform="matrix(1,0,0,1,296,-4)"></circle><line x1="450" x2="450" y1="1" y2="99" class="stroke_order_diagram--guide_line"></line><line x1="499" x2="499" y1="1" y2="99" class="stroke_order_diagram--bounding_box"></line><path id="pathSk2v596cn4mt" kvg:type="㇑" d="M19,30.27c1.11,1.11,1.44,2.82,1.44,4.56c0,5.46,0.16,39.85,0.21,53.67c0.01,3.04,0.02,5.09,0.02,5.61" transform="matrix(1,0,0,1,396,-4)" class="stroke_order_diagram--existing_path"></path><path id="pathSk2v596cn4mu" kvg:type="㇆a" d="M21.01,32.11c16.09-1.31,61.86-4.76,63.38-4.76c3.86,0,5.92,1.9,5.92,5.3c0,1.91,0.24,54.28,0.24,58.68c0,9.67-6.04,2.42-9.44-0.71" transform="matrix(1,0,0,1,396,-4)" class="stroke_order_diagram--existing_path"></path><path id="pathSk2v596cn4mv" kvg:type="㇒" d="M53.28,12.75C54,14,54.03,15.33,54.1,16.79c0.65,13.46-8.35,34.46-24.6,38.71" transform="matrix(1,0,0,1,396,-4)" class="stroke_order_diagram--existing_path"></path><path id="pathSk2v596cn4mw" kvg:type="㇔" d="M54.5,37.25c8.56,3.18,22.11,13.06,24.25,18" transform="matrix(1,0,0,1,396,-4)" class="stroke_order_diagram--existing_path"></path><path id="kvg:08089-s5" kvg:type="㇒" d="M52,51.38c0.12,1.22,0.05,2.34-0.47,3.45c-3.28,7.05-11.03,17.05-21.23,22.4" transform="matrix(1,0,0,1,396,-4)" class="stroke_order_diagram--current_path"></path><path id="pathSk2v596cn4my" kvg:type="㇒" d="M52,51.38c0.12,1.22,0.05,2.34-0.47,3.45c-3.28,7.05-11.03,17.05-21.23,22.4" transform="matrix(1,0,0,1,396,-4)" class="stroke_order_diagram--current_path"></path><circle cx="52" cy="51.38" r="8" class="stroke_order_diagram--path_start" transform="matrix(1,0,0,1,396,-4)"></circle><line x1="550" x2="550" y1="1" y2="99" class="stroke_order_diagram--guide_line"></line><line x1="599" x2="599" y1="1" y2="99" class="stroke_order_diagram--bounding_box"></line><path id="pathSk2v596cn4n1" kvg:type="㇑" d="M19,30.27c1.11,1.11,1.44,2.82,1.44,4.56c0,5.46,0.16,39.85,0.21,53.67c0.01,3.04,0.02,5.09,0.02,5.61" transform="matrix(1,0,0,1,496,-4)" class="stroke_order_diagram--existing_path"></path><path id="pathSk2v596cn4n2" kvg:type="㇆a" d="M21.01,32.11c16.09-1.31,61.86-4.76,63.38-4.76c3.86,0,5.92,1.9,5.92,5.3c0,1.91,0.24,54.28,0.24,58.68c0,9.67-6.04,2.42-9.44-0.71" transform="matrix(1,0,0,1,496,-4)" class="stroke_order_diagram--existing_path"></path><path id="pathSk2v596cn4n3" kvg:type="㇒" d="M53.28,12.75C54,14,54.03,15.33,54.1,16.79c0.65,13.46-8.35,34.46-24.6,38.71" transform="matrix(1,0,0,1,496,-4)" class="stroke_order_diagram--existing_path"></path><path id="pathSk2v596cn4n4" kvg:type="㇔" d="M54.5,37.25c8.56,3.18,22.11,13.06,24.25,18" transform="matrix(1,0,0,1,496,-4)" class="stroke_order_diagram--existing_path"></path><path id="pathSk2v596cn4n5" kvg:type="㇒" d="M52,51.38c0.12,1.22,0.05,2.34-0.47,3.45c-3.28,7.05-11.03,17.05-21.23,22.4" transform="matrix(1,0,0,1,496,-4)" class="stroke_order_diagram--existing_path"></path><path id="kvg:08089-s6" kvg:type="㇔" d="M52,62.25C60.47,65.03,73.88,73.68,76,78" transform="matrix(1,0,0,1,496,-4)" class="stroke_order_diagram--current_path"></path><path id="pathSk2v596cn4n7" kvg:type="㇔" d="M52,62.25C60.47,65.03,73.88,73.68,76,78" transform="matrix(1,0,0,1,496,-4)" class="stroke_order_diagram--current_path"></path><circle cx="52" cy="62.25" r="8" class="stroke_order_diagram--path_start" transform="matrix(1,0,0,1,496,-4)"></circle></svg>