<svg style="width: 900px; height: 100px;" viewbox="0 0 900 100"><style>
.stroke_order_diagram--outer_container {
  width: 100%;
  overflow-x: auto;
  overflow-y: hidden;
}

.stroke_order_diagram--guide_line {
  fill: none;
  stroke: #ddd;
  stroke-width: 3;
  stroke-linecap: square;
  stroke-linejoin: square;
  stroke-dasharray:8, 8;
}

.stroke_order_diagram--bounding_box {
  fill: none;
  stroke: #ddd;
  stroke-width: 4;
  stroke-linecap: square;
  stroke-linejoin: square;
}

.stroke_order_diagram--current_path {
  fill: none;
  stroke: #000;
  stroke-width: 6;
  stroke-linecap: round;
  stroke-linejoin: round;
}

.stroke_order_diagram--existing_path {
  fill: none;
  stroke: #aaa;
  stroke-width: 6;
  stroke-linecap: round;
  stroke-linejoin:round;
}

.stroke_order_diagram--path_start {
  fill: rgba(255, 0, 0, 0.7);
  stroke:none
}</style><desc>Created with Snap</desc><defs></defs><line x1="1" x2="899" y1="1" y2="1" class="stroke_order_diagram--bounding_box"></line><line x1="1" x2="1" y1="1" y2="99" class="stroke_order_diagram--bounding_box"></line><line x1="1" x2="899" y1="99" y2="99" class="stroke_order_diagram--bounding_box"></line><line x1="0" x2="900" y1="50" y2="50" class="stroke_order_diagram--guide_line"></line><line x1="50" x2="50" y1="1" y2="99" class="stroke_order_diagram--guide_line"></line><line x1="99" x2="99" y1="1" y2="99" class="stroke_order_diagram--bounding_box"></line><path id="kvg:080c6-s1" kvg:type="㇒" d="M19.75,18.33c0.77,0.78,1.13,1.99,1.14,2.98c0.36,34.44-1.02,54.94-9.39,72.02" transform="matrix(1,0,0,1,-4,-4)" class="stroke_order_diagram--current_path"></path><path id="pathSk2v596cn4u4d" kvg:type="㇒" d="M19.75,18.33c0.77,0.78,1.13,1.99,1.14,2.98c0.36,34.44-1.02,54.94-9.39,72.02" transform="matrix(1,0,0,1,-4,-4)" class="stroke_order_diagram--current_path"></path><circle cx="19.75" cy="18.33" r="8" class="stroke_order_diagram--path_start" transform="matrix(1,0,0,1,-4,-4)"></circle><line x1="150" x2="150" y1="1" y2="99" class="stroke_order_diagram--guide_line"></line><line x1="199" x2="199" y1="1" y2="99" class="stroke_order_diagram--bounding_box"></line><path id="pathSk2v596cn4u4g" kvg:type="㇒" d="M19.75,18.33c0.77,0.78,1.13,1.99,1.14,2.98c0.36,34.44-1.02,54.94-9.39,72.02" transform="matrix(1,0,0,1,96,-4)" class="stroke_order_diagram--existing_path"></path><path id="kvg:080c6-s2" kvg:type="㇆a" d="M21.78,19.53c3.77-0.73,11.68-2.48,15.22-3.01c2.84-0.42,3.78,0.99,3.78,3.72c0,8.62-0.03,49.55-0.03,67.88c0,9.44-2.5,3.62-6.01,1.17" transform="matrix(1,0,0,1,96,-4)" class="stroke_order_diagram--current_path"></path><path id="pathSk2v596cn4u4i" kvg:type="㇆a" d="M21.78,19.53c3.77-0.73,11.68-2.48,15.22-3.01c2.84-0.42,3.78,0.99,3.78,3.72c0,8.62-0.03,49.55-0.03,67.88c0,9.44-2.5,3.62-6.01,1.17" transform="matrix(1,0,0,1,96,-4)" class="stroke_order_diagram--current_path"></path><circle cx="21.78" cy="19.53" r="8" class="stroke_order_diagram--path_start" transform="matrix(1,0,0,1,96,-4)"></circle><line x1="250" x2="250" y1="1" y2="99" class="stroke_order_diagram--guide_line"></line><line x1="299" x2="299" y1="1" y2="99" class="stroke_order_diagram--bounding_box"></line><path id="pathSk2v596cn4u4l" kvg:type="㇒" d="M19.75,18.33c0.77,0.78,1.13,1.99,1.14,2.98c0.36,34.44-1.02,54.94-9.39,72.02" transform="matrix(1,0,0,1,196,-4)" class="stroke_order_diagram--existing_path"></path><path id="pathSk2v596cn4u4m" kvg:type="㇆a" d="M21.78,19.53c3.77-0.73,11.68-2.48,15.22-3.01c2.84-0.42,3.78,0.99,3.78,3.72c0,8.62-0.03,49.55-0.03,67.88c0,9.44-2.5,3.62-6.01,1.17" transform="matrix(1,0,0,1,196,-4)" class="stroke_order_diagram--existing_path"></path><path id="kvg:080c6-s3" kvg:type="㇐a" d="M22.03,39.83c6.13-0.75,11.79-1.58,17.56-2.24" transform="matrix(1,0,0,1,196,-4)" class="stroke_order_diagram--current_path"></path><path id="pathSk2v596cn4u4o" kvg:type="㇐a" d="M22.03,39.83c6.13-0.75,11.79-1.58,17.56-2.24" transform="matrix(1,0,0,1,196,-4)" class="stroke_order_diagram--current_path"></path><circle cx="22.03" cy="39.83" r="8" class="stroke_order_diagram--path_start" transform="matrix(1,0,0,1,196,-4)"></circle><line x1="350" x2="350" y1="1" y2="99" class="stroke_order_diagram--guide_line"></line><line x1="399" x2="399" y1="1" y2="99" class="stroke_order_diagram--bounding_box"></line><path id="pathSk2v596cn4u4r" kvg:type="㇒" d="M19.75,18.33c0.77,0.78,1.13,1.99,1.14,2.98c0.36,34.44-1.02,54.94-9.39,72.02" transform="matrix(1,0,0,1,296,-4)" class="stroke_order_diagram--existing_path"></path><path id="pathSk2v596cn4u4s" kvg:type="㇆a" d="M21.78,19.53c3.77-0.73,11.68-2.48,15.22-3.01c2.84-0.42,3.78,0.99,3.78,3.72c0,8.62-0.03,49.55-0.03,67.88c0,9.44-2.5,3.62-6.01,1.17" transform="matrix(1,0,0,1,296,-4)" class="stroke_order_diagram--existing_path"></path><path id="pathSk2v596cn4u4t" kvg:type="㇐a" d="M22.03,39.83c6.13-0.75,11.79-1.58,17.56-2.24" transform="matrix(1,0,0,1,296,-4)" class="stroke_order_diagram--existing_path"></path><path id="kvg:080c6-s4" kvg:type="㇐a" d="M21.22,59.2c5.28-0.45,12.89-1.36,18.49-1.81" transform="matrix(1,0,0,1,296,-4)" class="stroke_order_diagram--current_path"></path><path id="pathSk2v596cn4u4v" kvg:type="㇐a" d="M21.22,59.2c5.28-0.45,12.89-1.36,18.49-1.81" transform="matrix(1,0,0,1,296,-4)" class="stroke_order_diagram--current_path"></path><circle cx="21.22" cy="59.2" r="8" class="stroke_order_diagram--path_start" transform="matrix(1,0,0,1,296,-4)"></circle><line x1="450" x2="450" y1="1" y2="99" class="stroke_order_diagram--guide_line"></line><line x1="499" x2="499" y1="1" y2="99" class="stroke_order_diagram--bounding_box"></line><path id="pathSk2v596cn4u4y" kvg:type="㇒" d="M19.75,18.33c0.77,0.78,1.13,1.99,1.14,2.98c0.36,34.44-1.02,54.94-9.39,72.02" transform="matrix(1,0,0,1,396,-4)" class="stroke_order_diagram--existing_path"></path><path id="pathSk2v596cn4u4z" kvg:type="㇆a" d="M21.78,19.53c3.77-0.73,11.68-2.48,15.22-3.01c2.84-0.42,3.78,0.99,3.78,3.72c0,8.62-0.03,49.55-0.03,67.88c0,9.44-2.5,3.62-6.01,1.17" transform="matrix(1,0,0,1,396,-4)" class="stroke_order_diagram--existing_path"></path><path id="pathSk2v596cn4u50" kvg:type="㇐a" d="M22.03,39.83c6.13-0.75,11.79-1.58,17.56-2.24" transform="matrix(1,0,0,1,396,-4)" class="stroke_order_diagram--existing_path"></path><path id="pathSk2v596cn4u51" kvg:type="㇐a" d="M21.22,59.2c5.28-0.45,12.89-1.36,18.49-1.81" transform="matrix(1,0,0,1,396,-4)" class="stroke_order_diagram--existing_path"></path><path id="kvg:080c6-s5" kvg:type="㇑" d="M56.45,19.53c0.95,0.95,1.15,2.15,1.15,3.83c0,1.4,0,28.52,0,42.39c0,2.79,0,5,0,6.3" transform="matrix(1,0,0,1,396,-4)" class="stroke_order_diagram--current_path"></path><path id="pathSk2v596cn4u53" kvg:type="㇑" d="M56.45,19.53c0.95,0.95,1.15,2.15,1.15,3.83c0,1.4,0,28.52,0,42.39c0,2.79,0,5,0,6.3" transform="matrix(1,0,0,1,396,-4)" class="stroke_order_diagram--current_path"></path><circle cx="56.45" cy="19.53" r="8" class="stroke_order_diagram--path_start" transform="matrix(1,0,0,1,396,-4)"></circle><line x1="550" x2="550" y1="1" y2="99" class="stroke_order_diagram--guide_line"></line><line x1="599" x2="599" y1="1" y2="99" class="stroke_order_diagram--bounding_box"></line><path id="pathSk2v596cn4u56" kvg:type="㇒" d="M19.75,18.33c0.77,0.78,1.13,1.99,1.14,2.98c0.36,34.44-1.02,54.94-9.39,72.02" transform="matrix(1,0,0,1,496,-4)" class="stroke_order_diagram--existing_path"></path><path id="pathSk2v596cn4u57" kvg:type="㇆a" d="M21.78,19.53c3.77-0.73,11.68-2.48,15.22-3.01c2.84-0.42,3.78,0.99,3.78,3.72c0,8.62-0.03,49.55-0.03,67.88c0,9.44-2.5,3.62-6.01,1.17" transform="matrix(1,0,0,1,496,-4)" class="stroke_order_diagram--existing_path"></path><path id="pathSk2v596cn4u58" kvg:type="㇐a" d="M22.03,39.83c6.13-0.75,11.79-1.58,17.56-2.24" transform="matrix(1,0,0,1,496,-4)" class="stroke_order_diagram--existing_path"></path><path id="pathSk2v596cn4u59" kvg:type="㇐a" d="M21.22,59.2c5.28-0.45,12.89-1.36,18.49-1.81" transform="matrix(1,0,0,1,496,-4)" class="stroke_order_diagram--existing_path"></path><path id="pathSk2v596cn4u5a" kvg:type="㇑" d="M56.45,19.53c0.95,0.95,1.15,2.15,1.15,3.83c0,1.4,0,28.52,0,42.39c0,2.79,0,5,0,6.3" transform="matrix(1,0,0,1,496,-4)" class="stroke_order_diagram--existing_path"></path><path id="kvg:080c6-s6" kvg:type="㇕a" d="M58.62,20.72c5.88-0.85,17.88-2.6,23.03-3.23c2.76-0.34,4.22,0.57,4.22,3.38c0,1.83,0.01,29.54,0.02,42.62c0,3.89,0,6.5,0,6.77" transform="matrix(1,0,0,1,496,-4)" class="stroke_order_diagram--current_path"></path><path id="pathSk2v596cn4u5c" kvg:type="㇕a" d="M58.62,20.72c5.88-0.85,17.88-2.6,23.03-3.23c2.76-0.34,4.22,0.57,4.22,3.38c0,1.83,0.01,29.54,0.02,42.62c0,3.89,0,6.5,0,6.77" transform="matrix(1,0,0,1,496,-4)" class="stroke_order_diagram--current_path"></path><circle cx="58.62" cy="20.72" r="8" class="stroke_order_diagram--path_start" transform="matrix(1,0,0,1,496,-4)"></circle><line x1="650" x2="650" y1="1" y2="99" class="stroke_order_diagram--guide_line"></line><line x1="699" x2="699" y1="1" y2="99" class="stroke_order_diagram--bounding_box"></line><path id="pathSk2v596cn4u5f" kvg:type="㇒" d="M19.75,18.33c0.77,0.78,1.13,1.99,1.14,2.98c0.36,34.44-1.02,54.94-9.39,72.02" transform="matrix(1,0,0,1,596,-4)" class="stroke_order_diagram--existing_path"></path><path id="pathSk2v596cn4u5g" kvg:type="㇆a" d="M21.78,19.53c3.77-0.73,11.68-2.48,15.22-3.01c2.84-0.42,3.78,0.99,3.78,3.72c0,8.62-0.03,49.55-0.03,67.88c0,9.44-2.5,3.62-6.01,1.17" transform="matrix(1,0,0,1,596,-4)" class="stroke_order_diagram--existing_path"></path><path id="pathSk2v596cn4u5h" kvg:type="㇐a" d="M22.03,39.83c6.13-0.75,11.79-1.58,17.56-2.24" transform="matrix(1,0,0,1,596,-4)" class="stroke_order_diagram--existing_path"></path><path id="pathSk2v596cn4u5i" kvg:type="㇐a" d="M21.22,59.2c5.28-0.45,12.89-1.36,18.49-1.81" transform="matrix(1,0,0,1,596,-4)" class="stroke_order_diagram--existing_path"></path><path id="pathSk2v596cn4u5j" kvg:type="㇑" d="M56.45,19.53c0.95,0.95,1.15,2.15,1.15,3.83c0,1.4,0,28.52,0,42.39c0,2.79,0,5,0,6.3" transform="matrix(1,0,0,1,596,-4)" class="stroke_order_diagram--existing_path"></path><path id="pathSk2v596cn4u5k" kvg:type="㇕a" d="M58.62,20.72c5.88-0.85,17.88-2.6,23.03-3.23c2.76-0.34,4.22,0.57,4.22,3.38c0,1.83,0.01,29.54,0.02,42.62c0,3.89,0,6.5,0,6.77" transform="matrix(1,0,0,1,596,-4)" class="stroke_order_diagram--existing_path"></path><path id="kvg:080c6-s7" kvg:type="㇐a" d="M58.77,44.06c8.98-1.06,17.73-2.31,25.88-2.45" transform="matrix(1,0,0,1,596,-4)" class="stroke_order_diagram--current_path"></path><path id="pathSk2v596cn4u5m" kvg:type="㇐a" d="M58.77,44.06c8.98-1.06,17.73-2.31,25.88-2.45" transform="matrix(1,0,0,1,596,-4)" class="stroke_order_diagram--current_path"></path><circle cx="58.77" cy="44.06" r="8" class="stroke_order_diagram--path_start" transform="matrix(1,0,0,1,596,-4)"></circle><line x1="750" x2="750" y1="1" y2="99" class="stroke_order_diagram--guide_line"></line><line x1="799" x2="799" y1="1" y2="99" class="stroke_order_diagram--bounding_box"></line><path id="pathSk2v596cn4u5p" kvg:type="㇒" d="M19.75,18.33c0.77,0.78,1.13,1.99,1.14,2.98c0.36,34.44-1.02,54.94-9.39,72.02" transform="matrix(1,0,0,1,696,-4)" class="stroke_order_diagram--existing_path"></path><path id="pathSk2v596cn4u5q" kvg:type="㇆a" d="M21.78,19.53c3.77-0.73,11.68-2.48,15.22-3.01c2.84-0.42,3.78,0.99,3.78,3.72c0,8.62-0.03,49.55-0.03,67.88c0,9.44-2.5,3.62-6.01,1.17" transform="matrix(1,0,0,1,696,-4)" class="stroke_order_diagram--existing_path"></path><path id="pathSk2v596cn4u5r" kvg:type="㇐a" d="M22.03,39.83c6.13-0.75,11.79-1.58,17.56-2.24" transform="matrix(1,0,0,1,696,-4)" class="stroke_order_diagram--existing_path"></path><path id="pathSk2v596cn4u5s" kvg:type="㇐a" d="M21.22,59.2c5.28-0.45,12.89-1.36,18.49-1.81" transform="matrix(1,0,0,1,696,-4)" class="stroke_order_diagram--existing_path"></path><path id="pathSk2v596cn4u5t" kvg:type="㇑" d="M56.45,19.53c0.95,0.95,1.15,2.15,1.15,3.83c0,1.4,0,28.52,0,42.39c0,2.79,0,5,0,6.3" transform="matrix(1,0,0,1,696,-4)" class="stroke_order_diagram--existing_path"></path><path id="pathSk2v596cn4u5u" kvg:type="㇕a" d="M58.62,20.72c5.88-0.85,17.88-2.6,23.03-3.23c2.76-0.34,4.22,0.57,4.22,3.38c0,1.83,0.01,29.54,0.02,42.62c0,3.89,0,6.5,0,6.77" transform="matrix(1,0,0,1,696,-4)" class="stroke_order_diagram--existing_path"></path><path id="pathSk2v596cn4u5v" kvg:type="㇐a" d="M58.77,44.06c8.98-1.06,17.73-2.31,25.88-2.45" transform="matrix(1,0,0,1,696,-4)" class="stroke_order_diagram--existing_path"></path><path id="kvg:080c6-s8" kvg:type="㇐a" d="M58.62,68.16c5.13-0.41,17.75-1.78,25.84-2.31" transform="matrix(1,0,0,1,696,-4)" class="stroke_order_diagram--current_path"></path><path id="pathSk2v596cn4u5x" kvg:type="㇐a" d="M58.62,68.16c5.13-0.41,17.75-1.78,25.84-2.31" transform="matrix(1,0,0,1,696,-4)" class="stroke_order_diagram--current_path"></path><circle cx="58.62" cy="68.16" r="8" class="stroke_order_diagram--path_start" transform="matrix(1,0,0,1,696,-4)"></circle><line x1="850" x2="850" y1="1" y2="99" class="stroke_order_diagram--guide_line"></line><line x1="899" x2="899" y1="1" y2="99" class="stroke_order_diagram--bounding_box"></line><path id="pathSk2v596cn4u60" kvg:type="㇒" d="M19.75,18.33c0.77,0.78,1.13,1.99,1.14,2.98c0.36,34.44-1.02,54.94-9.39,72.02" transform="matrix(1,0,0,1,796,-4)" class="stroke_order_diagram--existing_path"></path><path id="pathSk2v596cn4u61" kvg:type="㇆a" d="M21.78,19.53c3.77-0.73,11.68-2.48,15.22-3.01c2.84-0.42,3.78,0.99,3.78,3.72c0,8.62-0.03,49.55-0.03,67.88c0,9.44-2.5,3.62-6.01,1.17" transform="matrix(1,0,0,1,796,-4)" class="stroke_order_diagram--existing_path"></path><path id="pathSk2v596cn4u62" kvg:type="㇐a" d="M22.03,39.83c6.13-0.75,11.79-1.58,17.56-2.24" transform="matrix(1,0,0,1,796,-4)" class="stroke_order_diagram--existing_path"></path><path id="pathSk2v596cn4u63" kvg:type="㇐a" d="M21.22,59.2c5.28-0.45,12.89-1.36,18.49-1.81" transform="matrix(1,0,0,1,796,-4)" class="stroke_order_diagram--existing_path"></path><path id="pathSk2v596cn4u64" kvg:type="㇑" d="M56.45,19.53c0.95,0.95,1.15,2.15,1.15,3.83c0,1.4,0,28.52,0,42.39c0,2.79,0,5,0,6.3" transform="matrix(1,0,0,1,796,-4)" class="stroke_order_diagram--existing_path"></path><path id="pathSk2v596cn4u65" kvg:type="㇕a" d="M58.62,20.72c5.88-0.85,17.88-2.6,23.03-3.23c2.76-0.34,4.22,0.57,4.22,3.38c0,1.83,0.01,29.54,0.02,42.62c0,3.89,0,6.5,0,6.77" transform="matrix(1,0,0,1,796,-4)" class="stroke_order_diagram--existing_path"></path><path id="pathSk2v596cn4u66" kvg:type="㇐a" d="M58.77,44.06c8.98-1.06,17.73-2.31,25.88-2.45" transform="matrix(1,0,0,1,796,-4)" class="stroke_order_diagram--existing_path"></path><path id="pathSk2v596cn4u67" kvg:type="㇐a" d="M58.62,68.16c5.13-0.41,17.75-1.78,25.84-2.31" transform="matrix(1,0,0,1,796,-4)" class="stroke_order_diagram--existing_path"></path><path id="kvg:080c6-s9" kvg:type="㇐" d="M47.25,86.03c3,0.72,5.53,0.42,7.89,0.28c9.69-0.58,26.45-2.2,36.49-2.55c2.29-0.08,4.64,0.01,6.88,0.64" transform="matrix(1,0,0,1,796,-4)" class="stroke_order_diagram--current_path"></path><path id="pathSk2v596cn4u69" kvg:type="㇐" d="M47.25,86.03c3,0.72,5.53,0.42,7.89,0.28c9.69-0.58,26.45-2.2,36.49-2.55c2.29-0.08,4.64,0.01,6.88,0.64" transform="matrix(1,0,0,1,796,-4)" class="stroke_order_diagram--current_path"></path><circle cx="47.25" cy="86.03" r="8" class="stroke_order_diagram--path_start" transform="matrix(1,0,0,1,796,-4)"></circle></svg>