<svg style="width: 1000px; height: 100px;" viewbox="0 0 1000 100"><style>
.stroke_order_diagram--outer_container {
  width: 100%;
  overflow-x: auto;
  overflow-y: hidden;
}

.stroke_order_diagram--guide_line {
  fill: none;
  stroke: #ddd;
  stroke-width: 3;
  stroke-linecap: square;
  stroke-linejoin: square;
  stroke-dasharray:8, 8;
}

.stroke_order_diagram--bounding_box {
  fill: none;
  stroke: #ddd;
  stroke-width: 4;
  stroke-linecap: square;
  stroke-linejoin: square;
}

.stroke_order_diagram--current_path {
  fill: none;
  stroke: #000;
  stroke-width: 6;
  stroke-linecap: round;
  stroke-linejoin: round;
}

.stroke_order_diagram--existing_path {
  fill: none;
  stroke: #aaa;
  stroke-width: 6;
  stroke-linecap: round;
  stroke-linejoin:round;
}

.stroke_order_diagram--path_start {
  fill: rgba(255, 0, 0, 0.7);
  stroke:none
}</style><desc>Created with Snap</desc><defs></defs><line x1="1" x2="999" y1="1" y2="1" class="stroke_order_diagram--bounding_box"></line><line x1="1" x2="1" y1="1" y2="99" class="stroke_order_diagram--bounding_box"></line><line x1="1" x2="999" y1="99" y2="99" class="stroke_order_diagram--bounding_box"></line><line x1="0" x2="1000" y1="50" y2="50" class="stroke_order_diagram--guide_line"></line><line x1="50" x2="50" y1="1" y2="99" class="stroke_order_diagram--guide_line"></line><line x1="99" x2="99" y1="1" y2="99" class="stroke_order_diagram--bounding_box"></line><path id="kvg:08105-s1" kvg:type="㇆" d="M35,19.21c1.76,0.41,3.42,0.58,5.25,0.35c6.96-0.9,19.69-3.25,24.87-3.97c3.14-0.44,4.5,0.55,3.69,3.23c-1.43,4.71-3.03,7.86-7.06,12.69c-2.94,3.52-4.25,0.75-5.5-1.25" transform="matrix(1,0,0,1,-4,-4)" class="stroke_order_diagram--current_path"></path><path id="pathSk2v596cn3q17" kvg:type="㇆" d="M35,19.21c1.76,0.41,3.42,0.58,5.25,0.35c6.96-0.9,19.69-3.25,24.87-3.97c3.14-0.44,4.5,0.55,3.69,3.23c-1.43,4.71-3.03,7.86-7.06,12.69c-2.94,3.52-4.25,0.75-5.5-1.25" transform="matrix(1,0,0,1,-4,-4)" class="stroke_order_diagram--current_path"></path><circle cx="35" cy="19.21" r="8" class="stroke_order_diagram--path_start" transform="matrix(1,0,0,1,-4,-4)"></circle><line x1="150" x2="150" y1="1" y2="99" class="stroke_order_diagram--guide_line"></line><line x1="199" x2="199" y1="1" y2="99" class="stroke_order_diagram--bounding_box"></line><path id="pathSk2v596cn3q1a" kvg:type="㇆" d="M35,19.21c1.76,0.41,3.42,0.58,5.25,0.35c6.96-0.9,19.69-3.25,24.87-3.97c3.14-0.44,4.5,0.55,3.69,3.23c-1.43,4.71-3.03,7.86-7.06,12.69c-2.94,3.52-4.25,0.75-5.5-1.25" transform="matrix(1,0,0,1,96,-4)" class="stroke_order_diagram--existing_path"></path><path id="kvg:08105-s2" kvg:type="㇒" d="M56.09,8.43c0.09,1.17,0.01,1.93-0.5,3c-2.63,5.56-7.48,12.18-14.37,18.56" transform="matrix(1,0,0,1,96,-4)" class="stroke_order_diagram--current_path"></path><path id="pathSk2v596cn3q1c" kvg:type="㇒" d="M56.09,8.43c0.09,1.17,0.01,1.93-0.5,3c-2.63,5.56-7.48,12.18-14.37,18.56" transform="matrix(1,0,0,1,96,-4)" class="stroke_order_diagram--current_path"></path><circle cx="56.09" cy="8.43" r="8" class="stroke_order_diagram--path_start" transform="matrix(1,0,0,1,96,-4)"></circle><line x1="250" x2="250" y1="1" y2="99" class="stroke_order_diagram--guide_line"></line><line x1="299" x2="299" y1="1" y2="99" class="stroke_order_diagram--bounding_box"></line><path id="pathSk2v596cn3q1f" kvg:type="㇆" d="M35,19.21c1.76,0.41,3.42,0.58,5.25,0.35c6.96-0.9,19.69-3.25,24.87-3.97c3.14-0.44,4.5,0.55,3.69,3.23c-1.43,4.71-3.03,7.86-7.06,12.69c-2.94,3.52-4.25,0.75-5.5-1.25" transform="matrix(1,0,0,1,196,-4)" class="stroke_order_diagram--existing_path"></path><path id="pathSk2v596cn3q1g" kvg:type="㇒" d="M56.09,8.43c0.09,1.17,0.01,1.93-0.5,3c-2.63,5.56-7.48,12.18-14.37,18.56" transform="matrix(1,0,0,1,196,-4)" class="stroke_order_diagram--existing_path"></path><path id="kvg:08105-s3" kvg:type="㇆" d="M14.02,41.43c2.19,0.65,3.87,0.54,6.11,0.25c6.04-0.8,17.98-2.62,22.75-3.2c2.76-0.34,3.39,1.72,2.57,3.93c-1.31,3.52-4.24,8.22-7.22,12.04c-2.26,2.9-3.74,1.31-4.85-0.21" transform="matrix(1,0,0,1,196,-4)" class="stroke_order_diagram--current_path"></path><path id="pathSk2v596cn3q1i" kvg:type="㇆" d="M14.02,41.43c2.19,0.65,3.87,0.54,6.11,0.25c6.04-0.8,17.98-2.62,22.75-3.2c2.76-0.34,3.39,1.72,2.57,3.93c-1.31,3.52-4.24,8.22-7.22,12.04c-2.26,2.9-3.74,1.31-4.85-0.21" transform="matrix(1,0,0,1,196,-4)" class="stroke_order_diagram--current_path"></path><circle cx="14.02" cy="41.43" r="8" class="stroke_order_diagram--path_start" transform="matrix(1,0,0,1,196,-4)"></circle><line x1="350" x2="350" y1="1" y2="99" class="stroke_order_diagram--guide_line"></line><line x1="399" x2="399" y1="1" y2="99" class="stroke_order_diagram--bounding_box"></line><path id="pathSk2v596cn3q1l" kvg:type="㇆" d="M35,19.21c1.76,0.41,3.42,0.58,5.25,0.35c6.96-0.9,19.69-3.25,24.87-3.97c3.14-0.44,4.5,0.55,3.69,3.23c-1.43,4.71-3.03,7.86-7.06,12.69c-2.94,3.52-4.25,0.75-5.5-1.25" transform="matrix(1,0,0,1,296,-4)" class="stroke_order_diagram--existing_path"></path><path id="pathSk2v596cn3q1m" kvg:type="㇒" d="M56.09,8.43c0.09,1.17,0.01,1.93-0.5,3c-2.63,5.56-7.48,12.18-14.37,18.56" transform="matrix(1,0,0,1,296,-4)" class="stroke_order_diagram--existing_path"></path><path id="pathSk2v596cn3q1n" kvg:type="㇆" d="M14.02,41.43c2.19,0.65,3.87,0.54,6.11,0.25c6.04-0.8,17.98-2.62,22.75-3.2c2.76-0.34,3.39,1.72,2.57,3.93c-1.31,3.52-4.24,8.22-7.22,12.04c-2.26,2.9-3.74,1.31-4.85-0.21" transform="matrix(1,0,0,1,296,-4)" class="stroke_order_diagram--existing_path"></path><path id="kvg:08105-s4" kvg:type="㇒" d="M33.69,32.27c0.05,0.65-0.03,1.7-0.35,2.6c-2.84,8.01-8.46,18.01-18.45,24.34" transform="matrix(1,0,0,1,296,-4)" class="stroke_order_diagram--current_path"></path><path id="pathSk2v596cn3q1p" kvg:type="㇒" d="M33.69,32.27c0.05,0.65-0.03,1.7-0.35,2.6c-2.84,8.01-8.46,18.01-18.45,24.34" transform="matrix(1,0,0,1,296,-4)" class="stroke_order_diagram--current_path"></path><circle cx="33.69" cy="32.27" r="8" class="stroke_order_diagram--path_start" transform="matrix(1,0,0,1,296,-4)"></circle><line x1="450" x2="450" y1="1" y2="99" class="stroke_order_diagram--guide_line"></line><line x1="499" x2="499" y1="1" y2="99" class="stroke_order_diagram--bounding_box"></line><path id="pathSk2v596cn3q1s" kvg:type="㇆" d="M35,19.21c1.76,0.41,3.42,0.58,5.25,0.35c6.96-0.9,19.69-3.25,24.87-3.97c3.14-0.44,4.5,0.55,3.69,3.23c-1.43,4.71-3.03,7.86-7.06,12.69c-2.94,3.52-4.25,0.75-5.5-1.25" transform="matrix(1,0,0,1,396,-4)" class="stroke_order_diagram--existing_path"></path><path id="pathSk2v596cn3q1t" kvg:type="㇒" d="M56.09,8.43c0.09,1.17,0.01,1.93-0.5,3c-2.63,5.56-7.48,12.18-14.37,18.56" transform="matrix(1,0,0,1,396,-4)" class="stroke_order_diagram--existing_path"></path><path id="pathSk2v596cn3q1u" kvg:type="㇆" d="M14.02,41.43c2.19,0.65,3.87,0.54,6.11,0.25c6.04-0.8,17.98-2.62,22.75-3.2c2.76-0.34,3.39,1.72,2.57,3.93c-1.31,3.52-4.24,8.22-7.22,12.04c-2.26,2.9-3.74,1.31-4.85-0.21" transform="matrix(1,0,0,1,396,-4)" class="stroke_order_diagram--existing_path"></path><path id="pathSk2v596cn3q1v" kvg:type="㇒" d="M33.69,32.27c0.05,0.65-0.03,1.7-0.35,2.6c-2.84,8.01-8.46,18.01-18.45,24.34" transform="matrix(1,0,0,1,396,-4)" class="stroke_order_diagram--existing_path"></path><path id="kvg:08105-s5" kvg:type="㇆" d="M56.6,38.5c1.48,0.58,3.94,0.58,5.5,0.35c7.46-1.12,21.69-3.22,24.82-3.54c2.27-0.23,3.26,1.61,2.77,3.15c-1.43,4.54-2.93,9.29-6.57,13.8c-3.1,3.85-4.87,1.24-6.04-0.35" transform="matrix(1,0,0,1,396,-4)" class="stroke_order_diagram--current_path"></path><path id="pathSk2v596cn3q1x" kvg:type="㇆" d="M56.6,38.5c1.48,0.58,3.94,0.58,5.5,0.35c7.46-1.12,21.69-3.22,24.82-3.54c2.27-0.23,3.26,1.61,2.77,3.15c-1.43,4.54-2.93,9.29-6.57,13.8c-3.1,3.85-4.87,1.24-6.04-0.35" transform="matrix(1,0,0,1,396,-4)" class="stroke_order_diagram--current_path"></path><circle cx="56.6" cy="38.5" r="8" class="stroke_order_diagram--path_start" transform="matrix(1,0,0,1,396,-4)"></circle><line x1="550" x2="550" y1="1" y2="99" class="stroke_order_diagram--guide_line"></line><line x1="599" x2="599" y1="1" y2="99" class="stroke_order_diagram--bounding_box"></line><path id="pathSk2v596cn3q20" kvg:type="㇆" d="M35,19.21c1.76,0.41,3.42,0.58,5.25,0.35c6.96-0.9,19.69-3.25,24.87-3.97c3.14-0.44,4.5,0.55,3.69,3.23c-1.43,4.71-3.03,7.86-7.06,12.69c-2.94,3.52-4.25,0.75-5.5-1.25" transform="matrix(1,0,0,1,496,-4)" class="stroke_order_diagram--existing_path"></path><path id="pathSk2v596cn3q21" kvg:type="㇒" d="M56.09,8.43c0.09,1.17,0.01,1.93-0.5,3c-2.63,5.56-7.48,12.18-14.37,18.56" transform="matrix(1,0,0,1,496,-4)" class="stroke_order_diagram--existing_path"></path><path id="pathSk2v596cn3q22" kvg:type="㇆" d="M14.02,41.43c2.19,0.65,3.87,0.54,6.11,0.25c6.04-0.8,17.98-2.62,22.75-3.2c2.76-0.34,3.39,1.72,2.57,3.93c-1.31,3.52-4.24,8.22-7.22,12.04c-2.26,2.9-3.74,1.31-4.85-0.21" transform="matrix(1,0,0,1,496,-4)" class="stroke_order_diagram--existing_path"></path><path id="pathSk2v596cn3q23" kvg:type="㇒" d="M33.69,32.27c0.05,0.65-0.03,1.7-0.35,2.6c-2.84,8.01-8.46,18.01-18.45,24.34" transform="matrix(1,0,0,1,496,-4)" class="stroke_order_diagram--existing_path"></path><path id="pathSk2v596cn3q24" kvg:type="㇆" d="M56.6,38.5c1.48,0.58,3.94,0.58,5.5,0.35c7.46-1.12,21.69-3.22,24.82-3.54c2.27-0.23,3.26,1.61,2.77,3.15c-1.43,4.54-2.93,9.29-6.57,13.8c-3.1,3.85-4.87,1.24-6.04-0.35" transform="matrix(1,0,0,1,496,-4)" class="stroke_order_diagram--existing_path"></path><path id="kvg:08105-s6" kvg:type="㇒" d="M76.81,27.4c0.09,1.22,0.03,2.21-0.41,3.36c-2.66,6.99-7.54,14.8-17.32,22.56" transform="matrix(1,0,0,1,496,-4)" class="stroke_order_diagram--current_path"></path><path id="pathSk2v596cn3q26" kvg:type="㇒" d="M76.81,27.4c0.09,1.22,0.03,2.21-0.41,3.36c-2.66,6.99-7.54,14.8-17.32,22.56" transform="matrix(1,0,0,1,496,-4)" class="stroke_order_diagram--current_path"></path><circle cx="76.81" cy="27.4" r="8" class="stroke_order_diagram--path_start" transform="matrix(1,0,0,1,496,-4)"></circle><line x1="650" x2="650" y1="1" y2="99" class="stroke_order_diagram--guide_line"></line><line x1="699" x2="699" y1="1" y2="99" class="stroke_order_diagram--bounding_box"></line><path id="pathSk2v596cn3q29" kvg:type="㇆" d="M35,19.21c1.76,0.41,3.42,0.58,5.25,0.35c6.96-0.9,19.69-3.25,24.87-3.97c3.14-0.44,4.5,0.55,3.69,3.23c-1.43,4.71-3.03,7.86-7.06,12.69c-2.94,3.52-4.25,0.75-5.5-1.25" transform="matrix(1,0,0,1,596,-4)" class="stroke_order_diagram--existing_path"></path><path id="pathSk2v596cn3q2a" kvg:type="㇒" d="M56.09,8.43c0.09,1.17,0.01,1.93-0.5,3c-2.63,5.56-7.48,12.18-14.37,18.56" transform="matrix(1,0,0,1,596,-4)" class="stroke_order_diagram--existing_path"></path><path id="pathSk2v596cn3q2b" kvg:type="㇆" d="M14.02,41.43c2.19,0.65,3.87,0.54,6.11,0.25c6.04-0.8,17.98-2.62,22.75-3.2c2.76-0.34,3.39,1.72,2.57,3.93c-1.31,3.52-4.24,8.22-7.22,12.04c-2.26,2.9-3.74,1.31-4.85-0.21" transform="matrix(1,0,0,1,596,-4)" class="stroke_order_diagram--existing_path"></path><path id="pathSk2v596cn3q2c" kvg:type="㇒" d="M33.69,32.27c0.05,0.65-0.03,1.7-0.35,2.6c-2.84,8.01-8.46,18.01-18.45,24.34" transform="matrix(1,0,0,1,596,-4)" class="stroke_order_diagram--existing_path"></path><path id="pathSk2v596cn3q2d" kvg:type="㇆" d="M56.6,38.5c1.48,0.58,3.94,0.58,5.5,0.35c7.46-1.12,21.69-3.22,24.82-3.54c2.27-0.23,3.26,1.61,2.77,3.15c-1.43,4.54-2.93,9.29-6.57,13.8c-3.1,3.85-4.87,1.24-6.04-0.35" transform="matrix(1,0,0,1,596,-4)" class="stroke_order_diagram--existing_path"></path><path id="pathSk2v596cn3q2e" kvg:type="㇒" d="M76.81,27.4c0.09,1.22,0.03,2.21-0.41,3.36c-2.66,6.99-7.54,14.8-17.32,22.56" transform="matrix(1,0,0,1,596,-4)" class="stroke_order_diagram--existing_path"></path><path id="kvg:08105-s7" kvg:type="㇑/㇒" d="M40,58.6c0.89,0.89,1.02,1.9,1.02,3.13c0,2.59-0.01,22.18-0.02,32.65c0,3.38,0,5.83,0,6.5" transform="matrix(1,0,0,1,596,-4)" class="stroke_order_diagram--current_path"></path><path id="pathSk2v596cn3q2g" kvg:type="㇑/㇒" d="M40,58.6c0.89,0.89,1.02,1.9,1.02,3.13c0,2.59-0.01,22.18-0.02,32.65c0,3.38,0,5.83,0,6.5" transform="matrix(1,0,0,1,596,-4)" class="stroke_order_diagram--current_path"></path><circle cx="40" cy="58.6" r="8" class="stroke_order_diagram--path_start" transform="matrix(1,0,0,1,596,-4)"></circle><line x1="750" x2="750" y1="1" y2="99" class="stroke_order_diagram--guide_line"></line><line x1="799" x2="799" y1="1" y2="99" class="stroke_order_diagram--bounding_box"></line><path id="pathSk2v596cn3q2j" kvg:type="㇆" d="M35,19.21c1.76,0.41,3.42,0.58,5.25,0.35c6.96-0.9,19.69-3.25,24.87-3.97c3.14-0.44,4.5,0.55,3.69,3.23c-1.43,4.71-3.03,7.86-7.06,12.69c-2.94,3.52-4.25,0.75-5.5-1.25" transform="matrix(1,0,0,1,696,-4)" class="stroke_order_diagram--existing_path"></path><path id="pathSk2v596cn3q2k" kvg:type="㇒" d="M56.09,8.43c0.09,1.17,0.01,1.93-0.5,3c-2.63,5.56-7.48,12.18-14.37,18.56" transform="matrix(1,0,0,1,696,-4)" class="stroke_order_diagram--existing_path"></path><path id="pathSk2v596cn3q2l" kvg:type="㇆" d="M14.02,41.43c2.19,0.65,3.87,0.54,6.11,0.25c6.04-0.8,17.98-2.62,22.75-3.2c2.76-0.34,3.39,1.72,2.57,3.93c-1.31,3.52-4.24,8.22-7.22,12.04c-2.26,2.9-3.74,1.31-4.85-0.21" transform="matrix(1,0,0,1,696,-4)" class="stroke_order_diagram--existing_path"></path><path id="pathSk2v596cn3q2m" kvg:type="㇒" d="M33.69,32.27c0.05,0.65-0.03,1.7-0.35,2.6c-2.84,8.01-8.46,18.01-18.45,24.34" transform="matrix(1,0,0,1,696,-4)" class="stroke_order_diagram--existing_path"></path><path id="pathSk2v596cn3q2n" kvg:type="㇆" d="M56.6,38.5c1.48,0.58,3.94,0.58,5.5,0.35c7.46-1.12,21.69-3.22,24.82-3.54c2.27-0.23,3.26,1.61,2.77,3.15c-1.43,4.54-2.93,9.29-6.57,13.8c-3.1,3.85-4.87,1.24-6.04-0.35" transform="matrix(1,0,0,1,696,-4)" class="stroke_order_diagram--existing_path"></path><path id="pathSk2v596cn3q2o" kvg:type="㇒" d="M76.81,27.4c0.09,1.22,0.03,2.21-0.41,3.36c-2.66,6.99-7.54,14.8-17.32,22.56" transform="matrix(1,0,0,1,696,-4)" class="stroke_order_diagram--existing_path"></path><path id="pathSk2v596cn3q2p" kvg:type="㇑/㇒" d="M40,58.6c0.89,0.89,1.02,1.9,1.02,3.13c0,2.59-0.01,22.18-0.02,32.65c0,3.38,0,5.83,0,6.5" transform="matrix(1,0,0,1,696,-4)" class="stroke_order_diagram--existing_path"></path><path id="kvg:08105-s8" kvg:type="㇆a" d="M42.29,60.14c2.55-0.2,25.4-3.05,27.3-3.27c3.39-0.4,4.24,2.51,4.24,3.77c0,5.36-0.08,23.03-0.08,33.61c0,10.32-5.4,3.03-7.52,1.24" transform="matrix(1,0,0,1,696,-4)" class="stroke_order_diagram--current_path"></path><path id="pathSk2v596cn3q2r" kvg:type="㇆a" d="M42.29,60.14c2.55-0.2,25.4-3.05,27.3-3.27c3.39-0.4,4.24,2.51,4.24,3.77c0,5.36-0.08,23.03-0.08,33.61c0,10.32-5.4,3.03-7.52,1.24" transform="matrix(1,0,0,1,696,-4)" class="stroke_order_diagram--current_path"></path><circle cx="42.29" cy="60.14" r="8" class="stroke_order_diagram--path_start" transform="matrix(1,0,0,1,696,-4)"></circle><line x1="850" x2="850" y1="1" y2="99" class="stroke_order_diagram--guide_line"></line><line x1="899" x2="899" y1="1" y2="99" class="stroke_order_diagram--bounding_box"></line><path id="pathSk2v596cn3q2u" kvg:type="㇆" d="M35,19.21c1.76,0.41,3.42,0.58,5.25,0.35c6.96-0.9,19.69-3.25,24.87-3.97c3.14-0.44,4.5,0.55,3.69,3.23c-1.43,4.71-3.03,7.86-7.06,12.69c-2.94,3.52-4.25,0.75-5.5-1.25" transform="matrix(1,0,0,1,796,-4)" class="stroke_order_diagram--existing_path"></path><path id="pathSk2v596cn3q2v" kvg:type="㇒" d="M56.09,8.43c0.09,1.17,0.01,1.93-0.5,3c-2.63,5.56-7.48,12.18-14.37,18.56" transform="matrix(1,0,0,1,796,-4)" class="stroke_order_diagram--existing_path"></path><path id="pathSk2v596cn3q2w" kvg:type="㇆" d="M14.02,41.43c2.19,0.65,3.87,0.54,6.11,0.25c6.04-0.8,17.98-2.62,22.75-3.2c2.76-0.34,3.39,1.72,2.57,3.93c-1.31,3.52-4.24,8.22-7.22,12.04c-2.26,2.9-3.74,1.31-4.85-0.21" transform="matrix(1,0,0,1,796,-4)" class="stroke_order_diagram--existing_path"></path><path id="pathSk2v596cn3q2x" kvg:type="㇒" d="M33.69,32.27c0.05,0.65-0.03,1.7-0.35,2.6c-2.84,8.01-8.46,18.01-18.45,24.34" transform="matrix(1,0,0,1,796,-4)" class="stroke_order_diagram--existing_path"></path><path id="pathSk2v596cn3q2y" kvg:type="㇆" d="M56.6,38.5c1.48,0.58,3.94,0.58,5.5,0.35c7.46-1.12,21.69-3.22,24.82-3.54c2.27-0.23,3.26,1.61,2.77,3.15c-1.43,4.54-2.93,9.29-6.57,13.8c-3.1,3.85-4.87,1.24-6.04-0.35" transform="matrix(1,0,0,1,796,-4)" class="stroke_order_diagram--existing_path"></path><path id="pathSk2v596cn3q2z" kvg:type="㇒" d="M76.81,27.4c0.09,1.22,0.03,2.21-0.41,3.36c-2.66,6.99-7.54,14.8-17.32,22.56" transform="matrix(1,0,0,1,796,-4)" class="stroke_order_diagram--existing_path"></path><path id="pathSk2v596cn3q30" kvg:type="㇑/㇒" d="M40,58.6c0.89,0.89,1.02,1.9,1.02,3.13c0,2.59-0.01,22.18-0.02,32.65c0,3.38,0,5.83,0,6.5" transform="matrix(1,0,0,1,796,-4)" class="stroke_order_diagram--existing_path"></path><path id="pathSk2v596cn3q31" kvg:type="㇆a" d="M42.29,60.14c2.55-0.2,25.4-3.05,27.3-3.27c3.39-0.4,4.24,2.51,4.24,3.77c0,5.36-0.08,23.03-0.08,33.61c0,10.32-5.4,3.03-7.52,1.24" transform="matrix(1,0,0,1,796,-4)" class="stroke_order_diagram--existing_path"></path><path id="kvg:08105-s9" kvg:type="㇐a" d="M42.29,70.43C54,69.25,62.25,68.5,72.85,67.85" transform="matrix(1,0,0,1,796,-4)" class="stroke_order_diagram--current_path"></path><path id="pathSk2v596cn3q33" kvg:type="㇐a" d="M42.29,70.43C54,69.25,62.25,68.5,72.85,67.85" transform="matrix(1,0,0,1,796,-4)" class="stroke_order_diagram--current_path"></path><circle cx="42.29" cy="70.43" r="8" class="stroke_order_diagram--path_start" transform="matrix(1,0,0,1,796,-4)"></circle><line x1="950" x2="950" y1="1" y2="99" class="stroke_order_diagram--guide_line"></line><line x1="999" x2="999" y1="1" y2="99" class="stroke_order_diagram--bounding_box"></line><path id="pathSk2v596cn3q36" kvg:type="㇆" d="M35,19.21c1.76,0.41,3.42,0.58,5.25,0.35c6.96-0.9,19.69-3.25,24.87-3.97c3.14-0.44,4.5,0.55,3.69,3.23c-1.43,4.71-3.03,7.86-7.06,12.69c-2.94,3.52-4.25,0.75-5.5-1.25" transform="matrix(1,0,0,1,896,-4)" class="stroke_order_diagram--existing_path"></path><path id="pathSk2v596cn3q37" kvg:type="㇒" d="M56.09,8.43c0.09,1.17,0.01,1.93-0.5,3c-2.63,5.56-7.48,12.18-14.37,18.56" transform="matrix(1,0,0,1,896,-4)" class="stroke_order_diagram--existing_path"></path><path id="pathSk2v596cn3q38" kvg:type="㇆" d="M14.02,41.43c2.19,0.65,3.87,0.54,6.11,0.25c6.04-0.8,17.98-2.62,22.75-3.2c2.76-0.34,3.39,1.72,2.57,3.93c-1.31,3.52-4.24,8.22-7.22,12.04c-2.26,2.9-3.74,1.31-4.85-0.21" transform="matrix(1,0,0,1,896,-4)" class="stroke_order_diagram--existing_path"></path><path id="pathSk2v596cn3q39" kvg:type="㇒" d="M33.69,32.27c0.05,0.65-0.03,1.7-0.35,2.6c-2.84,8.01-8.46,18.01-18.45,24.34" transform="matrix(1,0,0,1,896,-4)" class="stroke_order_diagram--existing_path"></path><path id="pathSk2v596cn3q3a" kvg:type="㇆" d="M56.6,38.5c1.48,0.58,3.94,0.58,5.5,0.35c7.46-1.12,21.69-3.22,24.82-3.54c2.27-0.23,3.26,1.61,2.77,3.15c-1.43,4.54-2.93,9.29-6.57,13.8c-3.1,3.85-4.87,1.24-6.04-0.35" transform="matrix(1,0,0,1,896,-4)" class="stroke_order_diagram--existing_path"></path><path id="pathSk2v596cn3q3b" kvg:type="㇒" d="M76.81,27.4c0.09,1.22,0.03,2.21-0.41,3.36c-2.66,6.99-7.54,14.8-17.32,22.56" transform="matrix(1,0,0,1,896,-4)" class="stroke_order_diagram--existing_path"></path><path id="pathSk2v596cn3q3c" kvg:type="㇑/㇒" d="M40,58.6c0.89,0.89,1.02,1.9,1.02,3.13c0,2.59-0.01,22.18-0.02,32.65c0,3.38,0,5.83,0,6.5" transform="matrix(1,0,0,1,896,-4)" class="stroke_order_diagram--existing_path"></path><path id="pathSk2v596cn3q3d" kvg:type="㇆a" d="M42.29,60.14c2.55-0.2,25.4-3.05,27.3-3.27c3.39-0.4,4.24,2.51,4.24,3.77c0,5.36-0.08,23.03-0.08,33.61c0,10.32-5.4,3.03-7.52,1.24" transform="matrix(1,0,0,1,896,-4)" class="stroke_order_diagram--existing_path"></path><path id="pathSk2v596cn3q3e" kvg:type="㇐a" d="M42.29,70.43C54,69.25,62.25,68.5,72.85,67.85" transform="matrix(1,0,0,1,896,-4)" class="stroke_order_diagram--existing_path"></path><path id="kvg:08105-s10" kvg:type="㇐a" d="M42.18,81.36c6.79-0.6,22.64-1.63,30.49-2.03" transform="matrix(1,0,0,1,896,-4)" class="stroke_order_diagram--current_path"></path><path id="pathSk2v596cn3q3g" kvg:type="㇐a" d="M42.18,81.36c6.79-0.6,22.64-1.63,30.49-2.03" transform="matrix(1,0,0,1,896,-4)" class="stroke_order_diagram--current_path"></path><circle cx="42.18" cy="81.36" r="8" class="stroke_order_diagram--path_start" transform="matrix(1,0,0,1,896,-4)"></circle></svg>