<svg style="width: 1100px; height: 100px;" viewbox="0 0 1100 100"><style>
.stroke_order_diagram--outer_container {
  width: 100%;
  overflow-x: auto;
  overflow-y: hidden;
}

.stroke_order_diagram--guide_line {
  fill: none;
  stroke: #ddd;
  stroke-width: 3;
  stroke-linecap: square;
  stroke-linejoin: square;
  stroke-dasharray:8, 8;
}

.stroke_order_diagram--bounding_box {
  fill: none;
  stroke: #ddd;
  stroke-width: 4;
  stroke-linecap: square;
  stroke-linejoin: square;
}

.stroke_order_diagram--current_path {
  fill: none;
  stroke: #000;
  stroke-width: 6;
  stroke-linecap: round;
  stroke-linejoin: round;
}

.stroke_order_diagram--existing_path {
  fill: none;
  stroke: #aaa;
  stroke-width: 6;
  stroke-linecap: round;
  stroke-linejoin:round;
}

.stroke_order_diagram--path_start {
  fill: rgba(255, 0, 0, 0.7);
  stroke:none
}</style><desc>Created with Snap</desc><defs></defs><line x1="1" x2="1099" y1="1" y2="1" class="stroke_order_diagram--bounding_box"></line><line x1="1" x2="1" y1="1" y2="99" class="stroke_order_diagram--bounding_box"></line><line x1="1" x2="1099" y1="99" y2="99" class="stroke_order_diagram--bounding_box"></line><line x1="0" x2="1100" y1="50" y2="50" class="stroke_order_diagram--guide_line"></line><line x1="50" x2="50" y1="1" y2="99" class="stroke_order_diagram--guide_line"></line><line x1="99" x2="99" y1="1" y2="99" class="stroke_order_diagram--bounding_box"></line><path id="kvg:08236-s1" kvg:type="㇒" d="M34.95,13.75c0.17,1.12-0.09,2.03-0.75,3.47C33,19.88,32.25,21.75,28.5,27.5" transform="matrix(1,0,0,1,-4,-4)" class="stroke_order_diagram--current_path"></path><path id="pathSk2v596cn4jme" kvg:type="㇒" d="M34.95,13.75c0.17,1.12-0.09,2.03-0.75,3.47C33,19.88,32.25,21.75,28.5,27.5" transform="matrix(1,0,0,1,-4,-4)" class="stroke_order_diagram--current_path"></path><circle cx="34.95" cy="13.75" r="8" class="stroke_order_diagram--path_start" transform="matrix(1,0,0,1,-4,-4)"></circle><line x1="150" x2="150" y1="1" y2="99" class="stroke_order_diagram--guide_line"></line><line x1="199" x2="199" y1="1" y2="99" class="stroke_order_diagram--bounding_box"></line><path id="pathSk2v596cn4jmh" kvg:type="㇒" d="M34.95,13.75c0.17,1.12-0.09,2.03-0.75,3.47C33,19.88,32.25,21.75,28.5,27.5" transform="matrix(1,0,0,1,96,-4)" class="stroke_order_diagram--existing_path"></path><path id="kvg:08236-s2" kvg:type="㇒" d="M20.65,29.22c1.19,1.19,1.2,2.75,1.25,4.34C23,66,21,85.75,14.5,95.5" transform="matrix(1,0,0,1,96,-4)" class="stroke_order_diagram--current_path"></path><path id="pathSk2v596cn4jmj" kvg:type="㇒" d="M20.65,29.22c1.19,1.19,1.2,2.75,1.25,4.34C23,66,21,85.75,14.5,95.5" transform="matrix(1,0,0,1,96,-4)" class="stroke_order_diagram--current_path"></path><circle cx="20.65" cy="29.22" r="8" class="stroke_order_diagram--path_start" transform="matrix(1,0,0,1,96,-4)"></circle><line x1="250" x2="250" y1="1" y2="99" class="stroke_order_diagram--guide_line"></line><line x1="299" x2="299" y1="1" y2="99" class="stroke_order_diagram--bounding_box"></line><path id="pathSk2v596cn4jmm" kvg:type="㇒" d="M34.95,13.75c0.17,1.12-0.09,2.03-0.75,3.47C33,19.88,32.25,21.75,28.5,27.5" transform="matrix(1,0,0,1,196,-4)" class="stroke_order_diagram--existing_path"></path><path id="pathSk2v596cn4jmn" kvg:type="㇒" d="M20.65,29.22c1.19,1.19,1.2,2.75,1.25,4.34C23,66,21,85.75,14.5,95.5" transform="matrix(1,0,0,1,196,-4)" class="stroke_order_diagram--existing_path"></path><path id="kvg:08236-s3" kvg:type="㇆a" d="M22.75,31.31c5.75-1.31,15.33-3.23,19.1-4c2.15-0.44,3.6,0.69,3.6,3.75c0,2.22,0.05,55.64,0.05,58.82c0,9.3-5.4,1.94-6.15,1.34" transform="matrix(1,0,0,1,196,-4)" class="stroke_order_diagram--current_path"></path><path id="pathSk2v596cn4jmp" kvg:type="㇆a" d="M22.75,31.31c5.75-1.31,15.33-3.23,19.1-4c2.15-0.44,3.6,0.69,3.6,3.75c0,2.22,0.05,55.64,0.05,58.82c0,9.3-5.4,1.94-6.15,1.34" transform="matrix(1,0,0,1,196,-4)" class="stroke_order_diagram--current_path"></path><circle cx="22.75" cy="31.31" r="8" class="stroke_order_diagram--path_start" transform="matrix(1,0,0,1,196,-4)"></circle><line x1="350" x2="350" y1="1" y2="99" class="stroke_order_diagram--guide_line"></line><line x1="399" x2="399" y1="1" y2="99" class="stroke_order_diagram--bounding_box"></line><path id="pathSk2v596cn4jms" kvg:type="㇒" d="M34.95,13.75c0.17,1.12-0.09,2.03-0.75,3.47C33,19.88,32.25,21.75,28.5,27.5" transform="matrix(1,0,0,1,296,-4)" class="stroke_order_diagram--existing_path"></path><path id="pathSk2v596cn4jmt" kvg:type="㇒" d="M20.65,29.22c1.19,1.19,1.2,2.75,1.25,4.34C23,66,21,85.75,14.5,95.5" transform="matrix(1,0,0,1,296,-4)" class="stroke_order_diagram--existing_path"></path><path id="pathSk2v596cn4jmu" kvg:type="㇆a" d="M22.75,31.31c5.75-1.31,15.33-3.23,19.1-4c2.15-0.44,3.6,0.69,3.6,3.75c0,2.22,0.05,55.64,0.05,58.82c0,9.3-5.4,1.94-6.15,1.34" transform="matrix(1,0,0,1,296,-4)" class="stroke_order_diagram--existing_path"></path><path id="kvg:08236-s4" kvg:type="㇔" d="M30.5,36.62c1.54,1.78,4.66,5.74,5.75,8.62" transform="matrix(1,0,0,1,296,-4)" class="stroke_order_diagram--current_path"></path><path id="pathSk2v596cn4jmw" kvg:type="㇔" d="M30.5,36.62c1.54,1.78,4.66,5.74,5.75,8.62" transform="matrix(1,0,0,1,296,-4)" class="stroke_order_diagram--current_path"></path><circle cx="30.5" cy="36.62" r="8" class="stroke_order_diagram--path_start" transform="matrix(1,0,0,1,296,-4)"></circle><line x1="450" x2="450" y1="1" y2="99" class="stroke_order_diagram--guide_line"></line><line x1="499" x2="499" y1="1" y2="99" class="stroke_order_diagram--bounding_box"></line><path id="pathSk2v596cn4jmz" kvg:type="㇒" d="M34.95,13.75c0.17,1.12-0.09,2.03-0.75,3.47C33,19.88,32.25,21.75,28.5,27.5" transform="matrix(1,0,0,1,396,-4)" class="stroke_order_diagram--existing_path"></path><path id="pathSk2v596cn4jn0" kvg:type="㇒" d="M20.65,29.22c1.19,1.19,1.2,2.75,1.25,4.34C23,66,21,85.75,14.5,95.5" transform="matrix(1,0,0,1,396,-4)" class="stroke_order_diagram--existing_path"></path><path id="pathSk2v596cn4jn1" kvg:type="㇆a" d="M22.75,31.31c5.75-1.31,15.33-3.23,19.1-4c2.15-0.44,3.6,0.69,3.6,3.75c0,2.22,0.05,55.64,0.05,58.82c0,9.3-5.4,1.94-6.15,1.34" transform="matrix(1,0,0,1,396,-4)" class="stroke_order_diagram--existing_path"></path><path id="pathSk2v596cn4jn2" kvg:type="㇔" d="M30.5,36.62c1.54,1.78,4.66,5.74,5.75,8.62" transform="matrix(1,0,0,1,396,-4)" class="stroke_order_diagram--existing_path"></path><path id="kvg:08236-s5" kvg:type="㇑" d="M33.05,54.64c0.97,0.97,1.2,2.29,1.2,3.56c0,3.3,0.1,9.46,0.1,15.3c0,2.13,0,3.25,0,4.91" transform="matrix(1,0,0,1,396,-4)" class="stroke_order_diagram--current_path"></path><path id="pathSk2v596cn4jn4" kvg:type="㇑" d="M33.05,54.64c0.97,0.97,1.2,2.29,1.2,3.56c0,3.3,0.1,9.46,0.1,15.3c0,2.13,0,3.25,0,4.91" transform="matrix(1,0,0,1,396,-4)" class="stroke_order_diagram--current_path"></path><circle cx="33.05" cy="54.64" r="8" class="stroke_order_diagram--path_start" transform="matrix(1,0,0,1,396,-4)"></circle><line x1="550" x2="550" y1="1" y2="99" class="stroke_order_diagram--guide_line"></line><line x1="599" x2="599" y1="1" y2="99" class="stroke_order_diagram--bounding_box"></line><path id="pathSk2v596cn4jn7" kvg:type="㇒" d="M34.95,13.75c0.17,1.12-0.09,2.03-0.75,3.47C33,19.88,32.25,21.75,28.5,27.5" transform="matrix(1,0,0,1,496,-4)" class="stroke_order_diagram--existing_path"></path><path id="pathSk2v596cn4jn8" kvg:type="㇒" d="M20.65,29.22c1.19,1.19,1.2,2.75,1.25,4.34C23,66,21,85.75,14.5,95.5" transform="matrix(1,0,0,1,496,-4)" class="stroke_order_diagram--existing_path"></path><path id="pathSk2v596cn4jn9" kvg:type="㇆a" d="M22.75,31.31c5.75-1.31,15.33-3.23,19.1-4c2.15-0.44,3.6,0.69,3.6,3.75c0,2.22,0.05,55.64,0.05,58.82c0,9.3-5.4,1.94-6.15,1.34" transform="matrix(1,0,0,1,496,-4)" class="stroke_order_diagram--existing_path"></path><path id="pathSk2v596cn4jna" kvg:type="㇔" d="M30.5,36.62c1.54,1.78,4.66,5.74,5.75,8.62" transform="matrix(1,0,0,1,496,-4)" class="stroke_order_diagram--existing_path"></path><path id="pathSk2v596cn4jnb" kvg:type="㇑" d="M33.05,54.64c0.97,0.97,1.2,2.29,1.2,3.56c0,3.3,0.1,9.46,0.1,15.3c0,2.13,0,3.25,0,4.91" transform="matrix(1,0,0,1,496,-4)" class="stroke_order_diagram--existing_path"></path><path id="kvg:08236-s6" kvg:type="㇀/㇐" d="M11.5,58.5c0.88,1.5,2.15,1.47,3.5,1c5.75-2,28.25-9.38,35.25-11.5" transform="matrix(1,0,0,1,496,-4)" class="stroke_order_diagram--current_path"></path><path id="pathSk2v596cn4jnd" kvg:type="㇀/㇐" d="M11.5,58.5c0.88,1.5,2.15,1.47,3.5,1c5.75-2,28.25-9.38,35.25-11.5" transform="matrix(1,0,0,1,496,-4)" class="stroke_order_diagram--current_path"></path><circle cx="11.5" cy="58.5" r="8" class="stroke_order_diagram--path_start" transform="matrix(1,0,0,1,496,-4)"></circle><line x1="650" x2="650" y1="1" y2="99" class="stroke_order_diagram--guide_line"></line><line x1="699" x2="699" y1="1" y2="99" class="stroke_order_diagram--bounding_box"></line><path id="pathSk2v596cn4jng" kvg:type="㇒" d="M34.95,13.75c0.17,1.12-0.09,2.03-0.75,3.47C33,19.88,32.25,21.75,28.5,27.5" transform="matrix(1,0,0,1,596,-4)" class="stroke_order_diagram--existing_path"></path><path id="pathSk2v596cn4jnh" kvg:type="㇒" d="M20.65,29.22c1.19,1.19,1.2,2.75,1.25,4.34C23,66,21,85.75,14.5,95.5" transform="matrix(1,0,0,1,596,-4)" class="stroke_order_diagram--existing_path"></path><path id="pathSk2v596cn4jni" kvg:type="㇆a" d="M22.75,31.31c5.75-1.31,15.33-3.23,19.1-4c2.15-0.44,3.6,0.69,3.6,3.75c0,2.22,0.05,55.64,0.05,58.82c0,9.3-5.4,1.94-6.15,1.34" transform="matrix(1,0,0,1,596,-4)" class="stroke_order_diagram--existing_path"></path><path id="pathSk2v596cn4jnj" kvg:type="㇔" d="M30.5,36.62c1.54,1.78,4.66,5.74,5.75,8.62" transform="matrix(1,0,0,1,596,-4)" class="stroke_order_diagram--existing_path"></path><path id="pathSk2v596cn4jnk" kvg:type="㇑" d="M33.05,54.64c0.97,0.97,1.2,2.29,1.2,3.56c0,3.3,0.1,9.46,0.1,15.3c0,2.13,0,3.25,0,4.91" transform="matrix(1,0,0,1,596,-4)" class="stroke_order_diagram--existing_path"></path><path id="pathSk2v596cn4jnl" kvg:type="㇀/㇐" d="M11.5,58.5c0.88,1.5,2.15,1.47,3.5,1c5.75-2,28.25-9.38,35.25-11.5" transform="matrix(1,0,0,1,596,-4)" class="stroke_order_diagram--existing_path"></path><path id="kvg:08236-s7" kvg:type="㇒" d="M73.75,15c0.13,1.12-0.11,1.92-0.37,2.59c-2.13,5.41-4.5,11.79-9.19,19.12" transform="matrix(1,0,0,1,596,-4)" class="stroke_order_diagram--current_path"></path><path id="pathSk2v596cn4jnn" kvg:type="㇒" d="M73.75,15c0.13,1.12-0.11,1.92-0.37,2.59c-2.13,5.41-4.5,11.79-9.19,19.12" transform="matrix(1,0,0,1,596,-4)" class="stroke_order_diagram--current_path"></path><circle cx="73.75" cy="15" r="8" class="stroke_order_diagram--path_start" transform="matrix(1,0,0,1,596,-4)"></circle><line x1="750" x2="750" y1="1" y2="99" class="stroke_order_diagram--guide_line"></line><line x1="799" x2="799" y1="1" y2="99" class="stroke_order_diagram--bounding_box"></line><path id="pathSk2v596cn4jnq" kvg:type="㇒" d="M34.95,13.75c0.17,1.12-0.09,2.03-0.75,3.47C33,19.88,32.25,21.75,28.5,27.5" transform="matrix(1,0,0,1,696,-4)" class="stroke_order_diagram--existing_path"></path><path id="pathSk2v596cn4jnr" kvg:type="㇒" d="M20.65,29.22c1.19,1.19,1.2,2.75,1.25,4.34C23,66,21,85.75,14.5,95.5" transform="matrix(1,0,0,1,696,-4)" class="stroke_order_diagram--existing_path"></path><path id="pathSk2v596cn4jns" kvg:type="㇆a" d="M22.75,31.31c5.75-1.31,15.33-3.23,19.1-4c2.15-0.44,3.6,0.69,3.6,3.75c0,2.22,0.05,55.64,0.05,58.82c0,9.3-5.4,1.94-6.15,1.34" transform="matrix(1,0,0,1,696,-4)" class="stroke_order_diagram--existing_path"></path><path id="pathSk2v596cn4jnt" kvg:type="㇔" d="M30.5,36.62c1.54,1.78,4.66,5.74,5.75,8.62" transform="matrix(1,0,0,1,696,-4)" class="stroke_order_diagram--existing_path"></path><path id="pathSk2v596cn4jnu" kvg:type="㇑" d="M33.05,54.64c0.97,0.97,1.2,2.29,1.2,3.56c0,3.3,0.1,9.46,0.1,15.3c0,2.13,0,3.25,0,4.91" transform="matrix(1,0,0,1,696,-4)" class="stroke_order_diagram--existing_path"></path><path id="pathSk2v596cn4jnv" kvg:type="㇀/㇐" d="M11.5,58.5c0.88,1.5,2.15,1.47,3.5,1c5.75-2,28.25-9.38,35.25-11.5" transform="matrix(1,0,0,1,696,-4)" class="stroke_order_diagram--existing_path"></path><path id="pathSk2v596cn4jnw" kvg:type="㇒" d="M73.75,15c0.13,1.12-0.11,1.92-0.37,2.59c-2.13,5.41-4.5,11.79-9.19,19.12" transform="matrix(1,0,0,1,696,-4)" class="stroke_order_diagram--existing_path"></path><path id="kvg:08236-s8" kvg:type="㇑" d="M57.44,38.43c1.12,1.12,1.35,2.47,1.35,4.2c0,1.99,0.47,27.85,0.83,41.62c0.06,2.4,0.1,4.46,0.1,6" transform="matrix(1,0,0,1,696,-4)" class="stroke_order_diagram--current_path"></path><path id="pathSk2v596cn4jny" kvg:type="㇑" d="M57.44,38.43c1.12,1.12,1.35,2.47,1.35,4.2c0,1.99,0.47,27.85,0.83,41.62c0.06,2.4,0.1,4.46,0.1,6" transform="matrix(1,0,0,1,696,-4)" class="stroke_order_diagram--current_path"></path><circle cx="57.44" cy="38.43" r="8" class="stroke_order_diagram--path_start" transform="matrix(1,0,0,1,696,-4)"></circle><line x1="850" x2="850" y1="1" y2="99" class="stroke_order_diagram--guide_line"></line><line x1="899" x2="899" y1="1" y2="99" class="stroke_order_diagram--bounding_box"></line><path id="pathSk2v596cn4jo1" kvg:type="㇒" d="M34.95,13.75c0.17,1.12-0.09,2.03-0.75,3.47C33,19.88,32.25,21.75,28.5,27.5" transform="matrix(1,0,0,1,796,-4)" class="stroke_order_diagram--existing_path"></path><path id="pathSk2v596cn4jo2" kvg:type="㇒" d="M20.65,29.22c1.19,1.19,1.2,2.75,1.25,4.34C23,66,21,85.75,14.5,95.5" transform="matrix(1,0,0,1,796,-4)" class="stroke_order_diagram--existing_path"></path><path id="pathSk2v596cn4jo3" kvg:type="㇆a" d="M22.75,31.31c5.75-1.31,15.33-3.23,19.1-4c2.15-0.44,3.6,0.69,3.6,3.75c0,2.22,0.05,55.64,0.05,58.82c0,9.3-5.4,1.94-6.15,1.34" transform="matrix(1,0,0,1,796,-4)" class="stroke_order_diagram--existing_path"></path><path id="pathSk2v596cn4jo4" kvg:type="㇔" d="M30.5,36.62c1.54,1.78,4.66,5.74,5.75,8.62" transform="matrix(1,0,0,1,796,-4)" class="stroke_order_diagram--existing_path"></path><path id="pathSk2v596cn4jo5" kvg:type="㇑" d="M33.05,54.64c0.97,0.97,1.2,2.29,1.2,3.56c0,3.3,0.1,9.46,0.1,15.3c0,2.13,0,3.25,0,4.91" transform="matrix(1,0,0,1,796,-4)" class="stroke_order_diagram--existing_path"></path><path id="pathSk2v596cn4jo6" kvg:type="㇀/㇐" d="M11.5,58.5c0.88,1.5,2.15,1.47,3.5,1c5.75-2,28.25-9.38,35.25-11.5" transform="matrix(1,0,0,1,796,-4)" class="stroke_order_diagram--existing_path"></path><path id="pathSk2v596cn4jo7" kvg:type="㇒" d="M73.75,15c0.13,1.12-0.11,1.92-0.37,2.59c-2.13,5.41-4.5,11.79-9.19,19.12" transform="matrix(1,0,0,1,796,-4)" class="stroke_order_diagram--existing_path"></path><path id="pathSk2v596cn4jo8" kvg:type="㇑" d="M57.44,38.43c1.12,1.12,1.35,2.47,1.35,4.2c0,1.99,0.47,27.85,0.83,41.62c0.06,2.4,0.1,4.46,0.1,6" transform="matrix(1,0,0,1,796,-4)" class="stroke_order_diagram--existing_path"></path><path id="kvg:08236-s9" kvg:type="㇕a" d="M59.62,39.99c4.02-0.64,20.64-3.2,26.9-4.1c3.05-0.44,5.28,0.19,5.28,3.87c0,4.09-0.13,27.5-0.61,42.74c-0.07,2.16-0.14,4.17-0.21,5.94" transform="matrix(1,0,0,1,796,-4)" class="stroke_order_diagram--current_path"></path><path id="pathSk2v596cn4joa" kvg:type="㇕a" d="M59.62,39.99c4.02-0.64,20.64-3.2,26.9-4.1c3.05-0.44,5.28,0.19,5.28,3.87c0,4.09-0.13,27.5-0.61,42.74c-0.07,2.16-0.14,4.17-0.21,5.94" transform="matrix(1,0,0,1,796,-4)" class="stroke_order_diagram--current_path"></path><circle cx="59.62" cy="39.99" r="8" class="stroke_order_diagram--path_start" transform="matrix(1,0,0,1,796,-4)"></circle><line x1="950" x2="950" y1="1" y2="99" class="stroke_order_diagram--guide_line"></line><line x1="999" x2="999" y1="1" y2="99" class="stroke_order_diagram--bounding_box"></line><path id="pathSk2v596cn4jod" kvg:type="㇒" d="M34.95,13.75c0.17,1.12-0.09,2.03-0.75,3.47C33,19.88,32.25,21.75,28.5,27.5" transform="matrix(1,0,0,1,896,-4)" class="stroke_order_diagram--existing_path"></path><path id="pathSk2v596cn4joe" kvg:type="㇒" d="M20.65,29.22c1.19,1.19,1.2,2.75,1.25,4.34C23,66,21,85.75,14.5,95.5" transform="matrix(1,0,0,1,896,-4)" class="stroke_order_diagram--existing_path"></path><path id="pathSk2v596cn4jof" kvg:type="㇆a" d="M22.75,31.31c5.75-1.31,15.33-3.23,19.1-4c2.15-0.44,3.6,0.69,3.6,3.75c0,2.22,0.05,55.64,0.05,58.82c0,9.3-5.4,1.94-6.15,1.34" transform="matrix(1,0,0,1,896,-4)" class="stroke_order_diagram--existing_path"></path><path id="pathSk2v596cn4jog" kvg:type="㇔" d="M30.5,36.62c1.54,1.78,4.66,5.74,5.75,8.62" transform="matrix(1,0,0,1,896,-4)" class="stroke_order_diagram--existing_path"></path><path id="pathSk2v596cn4joh" kvg:type="㇑" d="M33.05,54.64c0.97,0.97,1.2,2.29,1.2,3.56c0,3.3,0.1,9.46,0.1,15.3c0,2.13,0,3.25,0,4.91" transform="matrix(1,0,0,1,896,-4)" class="stroke_order_diagram--existing_path"></path><path id="pathSk2v596cn4joi" kvg:type="㇀/㇐" d="M11.5,58.5c0.88,1.5,2.15,1.47,3.5,1c5.75-2,28.25-9.38,35.25-11.5" transform="matrix(1,0,0,1,896,-4)" class="stroke_order_diagram--existing_path"></path><path id="pathSk2v596cn4joj" kvg:type="㇒" d="M73.75,15c0.13,1.12-0.11,1.92-0.37,2.59c-2.13,5.41-4.5,11.79-9.19,19.12" transform="matrix(1,0,0,1,896,-4)" class="stroke_order_diagram--existing_path"></path><path id="pathSk2v596cn4jok" kvg:type="㇑" d="M57.44,38.43c1.12,1.12,1.35,2.47,1.35,4.2c0,1.99,0.47,27.85,0.83,41.62c0.06,2.4,0.1,4.46,0.1,6" transform="matrix(1,0,0,1,896,-4)" class="stroke_order_diagram--existing_path"></path><path id="pathSk2v596cn4jol" kvg:type="㇕a" d="M59.62,39.99c4.02-0.64,20.64-3.2,26.9-4.1c3.05-0.44,5.28,0.19,5.28,3.87c0,4.09-0.13,27.5-0.61,42.74c-0.07,2.16-0.14,4.17-0.21,5.94" transform="matrix(1,0,0,1,896,-4)" class="stroke_order_diagram--existing_path"></path><path id="kvg:08236-s10" kvg:type="㇐a" d="M59.84,61.51c7.91-1.01,25.91-3.06,30.66-3.06" transform="matrix(1,0,0,1,896,-4)" class="stroke_order_diagram--current_path"></path><path id="pathSk2v596cn4jon" kvg:type="㇐a" d="M59.84,61.51c7.91-1.01,25.91-3.06,30.66-3.06" transform="matrix(1,0,0,1,896,-4)" class="stroke_order_diagram--current_path"></path><circle cx="59.84" cy="61.51" r="8" class="stroke_order_diagram--path_start" transform="matrix(1,0,0,1,896,-4)"></circle><line x1="1050" x2="1050" y1="1" y2="99" class="stroke_order_diagram--guide_line"></line><line x1="1099" x2="1099" y1="1" y2="99" class="stroke_order_diagram--bounding_box"></line><path id="pathSk2v596cn4joq" kvg:type="㇒" d="M34.95,13.75c0.17,1.12-0.09,2.03-0.75,3.47C33,19.88,32.25,21.75,28.5,27.5" transform="matrix(1,0,0,1,996,-4)" class="stroke_order_diagram--existing_path"></path><path id="pathSk2v596cn4jor" kvg:type="㇒" d="M20.65,29.22c1.19,1.19,1.2,2.75,1.25,4.34C23,66,21,85.75,14.5,95.5" transform="matrix(1,0,0,1,996,-4)" class="stroke_order_diagram--existing_path"></path><path id="pathSk2v596cn4jos" kvg:type="㇆a" d="M22.75,31.31c5.75-1.31,15.33-3.23,19.1-4c2.15-0.44,3.6,0.69,3.6,3.75c0,2.22,0.05,55.64,0.05,58.82c0,9.3-5.4,1.94-6.15,1.34" transform="matrix(1,0,0,1,996,-4)" class="stroke_order_diagram--existing_path"></path><path id="pathSk2v596cn4jot" kvg:type="㇔" d="M30.5,36.62c1.54,1.78,4.66,5.74,5.75,8.62" transform="matrix(1,0,0,1,996,-4)" class="stroke_order_diagram--existing_path"></path><path id="pathSk2v596cn4jou" kvg:type="㇑" d="M33.05,54.64c0.97,0.97,1.2,2.29,1.2,3.56c0,3.3,0.1,9.46,0.1,15.3c0,2.13,0,3.25,0,4.91" transform="matrix(1,0,0,1,996,-4)" class="stroke_order_diagram--existing_path"></path><path id="pathSk2v596cn4jov" kvg:type="㇀/㇐" d="M11.5,58.5c0.88,1.5,2.15,1.47,3.5,1c5.75-2,28.25-9.38,35.25-11.5" transform="matrix(1,0,0,1,996,-4)" class="stroke_order_diagram--existing_path"></path><path id="pathSk2v596cn4jow" kvg:type="㇒" d="M73.75,15c0.13,1.12-0.11,1.92-0.37,2.59c-2.13,5.41-4.5,11.79-9.19,19.12" transform="matrix(1,0,0,1,996,-4)" class="stroke_order_diagram--existing_path"></path><path id="pathSk2v596cn4jox" kvg:type="㇑" d="M57.44,38.43c1.12,1.12,1.35,2.47,1.35,4.2c0,1.99,0.47,27.85,0.83,41.62c0.06,2.4,0.1,4.46,0.1,6" transform="matrix(1,0,0,1,996,-4)" class="stroke_order_diagram--existing_path"></path><path id="pathSk2v596cn4joy" kvg:type="㇕a" d="M59.62,39.99c4.02-0.64,20.64-3.2,26.9-4.1c3.05-0.44,5.28,0.19,5.28,3.87c0,4.09-0.13,27.5-0.61,42.74c-0.07,2.16-0.14,4.17-0.21,5.94" transform="matrix(1,0,0,1,996,-4)" class="stroke_order_diagram--existing_path"></path><path id="pathSk2v596cn4joz" kvg:type="㇐a" d="M59.84,61.51c7.91-1.01,25.91-3.06,30.66-3.06" transform="matrix(1,0,0,1,996,-4)" class="stroke_order_diagram--existing_path"></path><path id="kvg:08236-s11" kvg:type="㇐a" d="M60.71,86.68c7.78-0.7,21.04-1.86,29.33-2.18" transform="matrix(1,0,0,1,996,-4)" class="stroke_order_diagram--current_path"></path><path id="pathSk2v596cn4jp1" kvg:type="㇐a" d="M60.71,86.68c7.78-0.7,21.04-1.86,29.33-2.18" transform="matrix(1,0,0,1,996,-4)" class="stroke_order_diagram--current_path"></path><circle cx="60.71" cy="86.68" r="8" class="stroke_order_diagram--path_start" transform="matrix(1,0,0,1,996,-4)"></circle></svg>