<svg style="width: 600px; height: 100px;" viewbox="0 0 600 100"><style>
.stroke_order_diagram--outer_container {
  width: 100%;
  overflow-x: auto;
  overflow-y: hidden;
}

.stroke_order_diagram--guide_line {
  fill: none;
  stroke: #ddd;
  stroke-width: 3;
  stroke-linecap: square;
  stroke-linejoin: square;
  stroke-dasharray:8, 8;
}

.stroke_order_diagram--bounding_box {
  fill: none;
  stroke: #ddd;
  stroke-width: 4;
  stroke-linecap: square;
  stroke-linejoin: square;
}

.stroke_order_diagram--current_path {
  fill: none;
  stroke: #000;
  stroke-width: 6;
  stroke-linecap: round;
  stroke-linejoin: round;
}

.stroke_order_diagram--existing_path {
  fill: none;
  stroke: #aaa;
  stroke-width: 6;
  stroke-linecap: round;
  stroke-linejoin:round;
}

.stroke_order_diagram--path_start {
  fill: rgba(255, 0, 0, 0.7);
  stroke:none
}</style><desc>Created with Snap</desc><defs></defs><line x1="1" x2="599" y1="1" y2="1" class="stroke_order_diagram--bounding_box"></line><line x1="1" x2="1" y1="1" y2="99" class="stroke_order_diagram--bounding_box"></line><line x1="1" x2="599" y1="99" y2="99" class="stroke_order_diagram--bounding_box"></line><line x1="0" x2="600" y1="50" y2="50" class="stroke_order_diagram--guide_line"></line><line x1="50" x2="50" y1="1" y2="99" class="stroke_order_diagram--guide_line"></line><line x1="99" x2="99" y1="1" y2="99" class="stroke_order_diagram--bounding_box"></line><path id="kvg:0829d-s1" kvg:type="㇐" d="M14.5,29.45c2.88,0.68,6.63,0.76,9.52,0.34c15.11-2.17,40.04-4.68,54.86-5.36c3.29-0.15,6.64-0.38,9.88,0.41" transform="matrix(1,0,0,1,-4,-4)" class="stroke_order_diagram--current_path"></path><path id="pathSk2v596cn36x7" kvg:type="㇐" d="M14.5,29.45c2.88,0.68,6.63,0.76,9.52,0.34c15.11-2.17,40.04-4.68,54.86-5.36c3.29-0.15,6.64-0.38,9.88,0.41" transform="matrix(1,0,0,1,-4,-4)" class="stroke_order_diagram--current_path"></path><circle cx="14.5" cy="29.45" r="8" class="stroke_order_diagram--path_start" transform="matrix(1,0,0,1,-4,-4)"></circle><line x1="150" x2="150" y1="1" y2="99" class="stroke_order_diagram--guide_line"></line><line x1="199" x2="199" y1="1" y2="99" class="stroke_order_diagram--bounding_box"></line><path id="pathSk2v596cn36xa" kvg:type="㇐" d="M14.5,29.45c2.88,0.68,6.63,0.76,9.52,0.34c15.11-2.17,40.04-4.68,54.86-5.36c3.29-0.15,6.64-0.38,9.88,0.41" transform="matrix(1,0,0,1,96,-4)" class="stroke_order_diagram--existing_path"></path><path id="kvg:0829d-s2" kvg:type="㇑a" d="M31.15,14.25c1.05,1.05,1.57,2.53,1.78,3.49c1.94,8.98,3.86,17.74,4.42,21.01" transform="matrix(1,0,0,1,96,-4)" class="stroke_order_diagram--current_path"></path><path id="pathSk2v596cn36xc" kvg:type="㇑a" d="M31.15,14.25c1.05,1.05,1.57,2.53,1.78,3.49c1.94,8.98,3.86,17.74,4.42,21.01" transform="matrix(1,0,0,1,96,-4)" class="stroke_order_diagram--current_path"></path><circle cx="31.15" cy="14.25" r="8" class="stroke_order_diagram--path_start" transform="matrix(1,0,0,1,96,-4)"></circle><line x1="250" x2="250" y1="1" y2="99" class="stroke_order_diagram--guide_line"></line><line x1="299" x2="299" y1="1" y2="99" class="stroke_order_diagram--bounding_box"></line><path id="pathSk2v596cn36xf" kvg:type="㇐" d="M14.5,29.45c2.88,0.68,6.63,0.76,9.52,0.34c15.11-2.17,40.04-4.68,54.86-5.36c3.29-0.15,6.64-0.38,9.88,0.41" transform="matrix(1,0,0,1,196,-4)" class="stroke_order_diagram--existing_path"></path><path id="pathSk2v596cn36xg" kvg:type="㇑a" d="M31.15,14.25c1.05,1.05,1.57,2.53,1.78,3.49c1.94,8.98,3.86,17.74,4.42,21.01" transform="matrix(1,0,0,1,196,-4)" class="stroke_order_diagram--existing_path"></path><path id="kvg:0829d-s3" kvg:type="㇑a" d="M68.25,11.75c0.42,1.18,0.77,2,0.5,3.5c-1.25,7-3,13.25-5,21.75" transform="matrix(1,0,0,1,196,-4)" class="stroke_order_diagram--current_path"></path><path id="pathSk2v596cn36xi" kvg:type="㇑a" d="M68.25,11.75c0.42,1.18,0.77,2,0.5,3.5c-1.25,7-3,13.25-5,21.75" transform="matrix(1,0,0,1,196,-4)" class="stroke_order_diagram--current_path"></path><circle cx="68.25" cy="11.75" r="8" class="stroke_order_diagram--path_start" transform="matrix(1,0,0,1,196,-4)"></circle><line x1="350" x2="350" y1="1" y2="99" class="stroke_order_diagram--guide_line"></line><line x1="399" x2="399" y1="1" y2="99" class="stroke_order_diagram--bounding_box"></line><path id="pathSk2v596cn36xl" kvg:type="㇐" d="M14.5,29.45c2.88,0.68,6.63,0.76,9.52,0.34c15.11-2.17,40.04-4.68,54.86-5.36c3.29-0.15,6.64-0.38,9.88,0.41" transform="matrix(1,0,0,1,296,-4)" class="stroke_order_diagram--existing_path"></path><path id="pathSk2v596cn36xm" kvg:type="㇑a" d="M31.15,14.25c1.05,1.05,1.57,2.53,1.78,3.49c1.94,8.98,3.86,17.74,4.42,21.01" transform="matrix(1,0,0,1,296,-4)" class="stroke_order_diagram--existing_path"></path><path id="pathSk2v596cn36xn" kvg:type="㇑a" d="M68.25,11.75c0.42,1.18,0.77,2,0.5,3.5c-1.25,7-3,13.25-5,21.75" transform="matrix(1,0,0,1,296,-4)" class="stroke_order_diagram--existing_path"></path><path id="kvg:0829d-s4" kvg:type="㇑a" d="M49.4,38.25c1.11,1.11,1.42,2.12,1.42,4.27c0,3.9-0.06,7.06-0.06,10.6" transform="matrix(1,0,0,1,296,-4)" class="stroke_order_diagram--current_path"></path><path id="pathSk2v596cn36xp" kvg:type="㇑a" d="M49.4,38.25c1.11,1.11,1.42,2.12,1.42,4.27c0,3.9-0.06,7.06-0.06,10.6" transform="matrix(1,0,0,1,296,-4)" class="stroke_order_diagram--current_path"></path><circle cx="49.4" cy="38.25" r="8" class="stroke_order_diagram--path_start" transform="matrix(1,0,0,1,296,-4)"></circle><line x1="450" x2="450" y1="1" y2="99" class="stroke_order_diagram--guide_line"></line><line x1="499" x2="499" y1="1" y2="99" class="stroke_order_diagram--bounding_box"></line><path id="pathSk2v596cn36xs" kvg:type="㇐" d="M14.5,29.45c2.88,0.68,6.63,0.76,9.52,0.34c15.11-2.17,40.04-4.68,54.86-5.36c3.29-0.15,6.64-0.38,9.88,0.41" transform="matrix(1,0,0,1,396,-4)" class="stroke_order_diagram--existing_path"></path><path id="pathSk2v596cn36xt" kvg:type="㇑a" d="M31.15,14.25c1.05,1.05,1.57,2.53,1.78,3.49c1.94,8.98,3.86,17.74,4.42,21.01" transform="matrix(1,0,0,1,396,-4)" class="stroke_order_diagram--existing_path"></path><path id="pathSk2v596cn36xu" kvg:type="㇑a" d="M68.25,11.75c0.42,1.18,0.77,2,0.5,3.5c-1.25,7-3,13.25-5,21.75" transform="matrix(1,0,0,1,396,-4)" class="stroke_order_diagram--existing_path"></path><path id="pathSk2v596cn36xv" kvg:type="㇑a" d="M49.4,38.25c1.11,1.11,1.42,2.12,1.42,4.27c0,3.9-0.06,7.06-0.06,10.6" transform="matrix(1,0,0,1,396,-4)" class="stroke_order_diagram--existing_path"></path><path id="kvg:0829d-s5" kvg:type="㇇" d="M23.08,58.5c2.92,0.75,5.83,0.5,8.55-0.12c13-3,27-6,36.2-8.13c6.85-1.59,8.89,1.28,3.25,6c-14.33,12-26.45,18.88-42.83,27.5" transform="matrix(1,0,0,1,396,-4)" class="stroke_order_diagram--current_path"></path><path id="pathSk2v596cn36xx" kvg:type="㇇" d="M23.08,58.5c2.92,0.75,5.83,0.5,8.55-0.12c13-3,27-6,36.2-8.13c6.85-1.59,8.89,1.28,3.25,6c-14.33,12-26.45,18.88-42.83,27.5" transform="matrix(1,0,0,1,396,-4)" class="stroke_order_diagram--current_path"></path><circle cx="23.08" cy="58.5" r="8" class="stroke_order_diagram--path_start" transform="matrix(1,0,0,1,396,-4)"></circle><line x1="550" x2="550" y1="1" y2="99" class="stroke_order_diagram--guide_line"></line><line x1="599" x2="599" y1="1" y2="99" class="stroke_order_diagram--bounding_box"></line><path id="pathSk2v596cn36y0" kvg:type="㇐" d="M14.5,29.45c2.88,0.68,6.63,0.76,9.52,0.34c15.11-2.17,40.04-4.68,54.86-5.36c3.29-0.15,6.64-0.38,9.88,0.41" transform="matrix(1,0,0,1,496,-4)" class="stroke_order_diagram--existing_path"></path><path id="pathSk2v596cn36y1" kvg:type="㇑a" d="M31.15,14.25c1.05,1.05,1.57,2.53,1.78,3.49c1.94,8.98,3.86,17.74,4.42,21.01" transform="matrix(1,0,0,1,496,-4)" class="stroke_order_diagram--existing_path"></path><path id="pathSk2v596cn36y2" kvg:type="㇑a" d="M68.25,11.75c0.42,1.18,0.77,2,0.5,3.5c-1.25,7-3,13.25-5,21.75" transform="matrix(1,0,0,1,496,-4)" class="stroke_order_diagram--existing_path"></path><path id="pathSk2v596cn36y3" kvg:type="㇑a" d="M49.4,38.25c1.11,1.11,1.42,2.12,1.42,4.27c0,3.9-0.06,7.06-0.06,10.6" transform="matrix(1,0,0,1,496,-4)" class="stroke_order_diagram--existing_path"></path><path id="pathSk2v596cn36y4" kvg:type="㇇" d="M23.08,58.5c2.92,0.75,5.83,0.5,8.55-0.12c13-3,27-6,36.2-8.13c6.85-1.59,8.89,1.28,3.25,6c-14.33,12-26.45,18.88-42.83,27.5" transform="matrix(1,0,0,1,496,-4)" class="stroke_order_diagram--existing_path"></path><path id="kvg:0829d-s6" kvg:type="㇏a" d="M13.25,84.25c2.88-0.38,5.21-0.13,7.13,0.06c19.77,2,37.62,6.82,54.95,10.07c6.9,1.3,9.08,1.38,15.92,1.62" transform="matrix(1,0,0,1,496,-4)" class="stroke_order_diagram--current_path"></path><path id="pathSk2v596cn36y6" kvg:type="㇏a" d="M13.25,84.25c2.88-0.38,5.21-0.13,7.13,0.06c19.77,2,37.62,6.82,54.95,10.07c6.9,1.3,9.08,1.38,15.92,1.62" transform="matrix(1,0,0,1,496,-4)" class="stroke_order_diagram--current_path"></path><circle cx="13.25" cy="84.25" r="8" class="stroke_order_diagram--path_start" transform="matrix(1,0,0,1,496,-4)"></circle></svg>