<svg style="width: 1100px; height: 100px;" viewbox="0 0 1100 100"><style>
.stroke_order_diagram--outer_container {
  width: 100%;
  overflow-x: auto;
  overflow-y: hidden;
}

.stroke_order_diagram--guide_line {
  fill: none;
  stroke: #ddd;
  stroke-width: 3;
  stroke-linecap: square;
  stroke-linejoin: square;
  stroke-dasharray:8, 8;
}

.stroke_order_diagram--bounding_box {
  fill: none;
  stroke: #ddd;
  stroke-width: 4;
  stroke-linecap: square;
  stroke-linejoin: square;
}

.stroke_order_diagram--current_path {
  fill: none;
  stroke: #000;
  stroke-width: 6;
  stroke-linecap: round;
  stroke-linejoin: round;
}

.stroke_order_diagram--existing_path {
  fill: none;
  stroke: #aaa;
  stroke-width: 6;
  stroke-linecap: round;
  stroke-linejoin:round;
}

.stroke_order_diagram--path_start {
  fill: rgba(255, 0, 0, 0.7);
  stroke:none
}</style><desc>Created with Snap</desc><defs></defs><line x1="1" x2="1099" y1="1" y2="1" class="stroke_order_diagram--bounding_box"></line><line x1="1" x2="1" y1="1" y2="99" class="stroke_order_diagram--bounding_box"></line><line x1="1" x2="1099" y1="99" y2="99" class="stroke_order_diagram--bounding_box"></line><line x1="0" x2="1100" y1="50" y2="50" class="stroke_order_diagram--guide_line"></line><line x1="50" x2="50" y1="1" y2="99" class="stroke_order_diagram--guide_line"></line><line x1="99" x2="99" y1="1" y2="99" class="stroke_order_diagram--bounding_box"></line><path id="kvg:0840c-s1" kvg:type="㇐" d="M15.5,21.71c2.92,0.88,6.62,0.64,9.62,0.35c15.46-1.5,41.23-3.31,56.38-3.75c3.47-0.1,6.98-0.3,10.42,0.32" transform="matrix(1,0,0,1,-4,-4)" class="stroke_order_diagram--current_path"></path><path id="pathSk2v596cn4mrf" kvg:type="㇐" d="M15.5,21.71c2.92,0.88,6.62,0.64,9.62,0.35c15.46-1.5,41.23-3.31,56.38-3.75c3.47-0.1,6.98-0.3,10.42,0.32" transform="matrix(1,0,0,1,-4,-4)" class="stroke_order_diagram--current_path"></path><circle cx="15.5" cy="21.71" r="8" class="stroke_order_diagram--path_start" transform="matrix(1,0,0,1,-4,-4)"></circle><line x1="150" x2="150" y1="1" y2="99" class="stroke_order_diagram--guide_line"></line><line x1="199" x2="199" y1="1" y2="99" class="stroke_order_diagram--bounding_box"></line><path id="pathSk2v596cn4mri" kvg:type="㇐" d="M15.5,21.71c2.92,0.88,6.62,0.64,9.62,0.35c15.46-1.5,41.23-3.31,56.38-3.75c3.47-0.1,6.98-0.3,10.42,0.32" transform="matrix(1,0,0,1,96,-4)" class="stroke_order_diagram--existing_path"></path><path id="kvg:0840c-s2" kvg:type="㇑a" d="M36.94,10.95c1.31,0.92,1.73,1.92,1.88,2.74c1.18,6.43,2.05,11.81,2.84,16.06" transform="matrix(1,0,0,1,96,-4)" class="stroke_order_diagram--current_path"></path><path id="pathSk2v596cn4mrk" kvg:type="㇑a" d="M36.94,10.95c1.31,0.92,1.73,1.92,1.88,2.74c1.18,6.43,2.05,11.81,2.84,16.06" transform="matrix(1,0,0,1,96,-4)" class="stroke_order_diagram--current_path"></path><circle cx="36.94" cy="10.95" r="8" class="stroke_order_diagram--path_start" transform="matrix(1,0,0,1,96,-4)"></circle><line x1="250" x2="250" y1="1" y2="99" class="stroke_order_diagram--guide_line"></line><line x1="299" x2="299" y1="1" y2="99" class="stroke_order_diagram--bounding_box"></line><path id="pathSk2v596cn4mrn" kvg:type="㇐" d="M15.5,21.71c2.92,0.88,6.62,0.64,9.62,0.35c15.46-1.5,41.23-3.31,56.38-3.75c3.47-0.1,6.98-0.3,10.42,0.32" transform="matrix(1,0,0,1,196,-4)" class="stroke_order_diagram--existing_path"></path><path id="pathSk2v596cn4mro" kvg:type="㇑a" d="M36.94,10.95c1.31,0.92,1.73,1.92,1.88,2.74c1.18,6.43,2.05,11.81,2.84,16.06" transform="matrix(1,0,0,1,196,-4)" class="stroke_order_diagram--existing_path"></path><path id="kvg:0840c-s3" kvg:type="㇑a" d="M68.25,9.92c0.42,1.01,0.53,1.96,0.25,3.25c-1,4.58-2,8.46-4.22,15.55" transform="matrix(1,0,0,1,196,-4)" class="stroke_order_diagram--current_path"></path><path id="pathSk2v596cn4mrq" kvg:type="㇑a" d="M68.25,9.92c0.42,1.01,0.53,1.96,0.25,3.25c-1,4.58-2,8.46-4.22,15.55" transform="matrix(1,0,0,1,196,-4)" class="stroke_order_diagram--current_path"></path><circle cx="68.25" cy="9.92" r="8" class="stroke_order_diagram--path_start" transform="matrix(1,0,0,1,196,-4)"></circle><line x1="350" x2="350" y1="1" y2="99" class="stroke_order_diagram--guide_line"></line><line x1="399" x2="399" y1="1" y2="99" class="stroke_order_diagram--bounding_box"></line><path id="pathSk2v596cn4mrt" kvg:type="㇐" d="M15.5,21.71c2.92,0.88,6.62,0.64,9.62,0.35c15.46-1.5,41.23-3.31,56.38-3.75c3.47-0.1,6.98-0.3,10.42,0.32" transform="matrix(1,0,0,1,296,-4)" class="stroke_order_diagram--existing_path"></path><path id="pathSk2v596cn4mru" kvg:type="㇑a" d="M36.94,10.95c1.31,0.92,1.73,1.92,1.88,2.74c1.18,6.43,2.05,11.81,2.84,16.06" transform="matrix(1,0,0,1,296,-4)" class="stroke_order_diagram--existing_path"></path><path id="pathSk2v596cn4mrv" kvg:type="㇑a" d="M68.25,9.92c0.42,1.01,0.53,1.96,0.25,3.25c-1,4.58-2,8.46-4.22,15.55" transform="matrix(1,0,0,1,296,-4)" class="stroke_order_diagram--existing_path"></path><path id="kvg:0840c-s4" kvg:type="㇑" d="M19,42.39c0.8,0.8,1.03,1.73,1.03,3.04c0,3.26,0,22.18,0,32.44c0,2.91,0,5.13,0,6.09" transform="matrix(1,0,0,1,296,-4)" class="stroke_order_diagram--current_path"></path><path id="pathSk2v596cn4mrx" kvg:type="㇑" d="M19,42.39c0.8,0.8,1.03,1.73,1.03,3.04c0,3.26,0,22.18,0,32.44c0,2.91,0,5.13,0,6.09" transform="matrix(1,0,0,1,296,-4)" class="stroke_order_diagram--current_path"></path><circle cx="19" cy="42.39" r="8" class="stroke_order_diagram--path_start" transform="matrix(1,0,0,1,296,-4)"></circle><line x1="450" x2="450" y1="1" y2="99" class="stroke_order_diagram--guide_line"></line><line x1="499" x2="499" y1="1" y2="99" class="stroke_order_diagram--bounding_box"></line><path id="pathSk2v596cn4ms0" kvg:type="㇐" d="M15.5,21.71c2.92,0.88,6.62,0.64,9.62,0.35c15.46-1.5,41.23-3.31,56.38-3.75c3.47-0.1,6.98-0.3,10.42,0.32" transform="matrix(1,0,0,1,396,-4)" class="stroke_order_diagram--existing_path"></path><path id="pathSk2v596cn4ms1" kvg:type="㇑a" d="M36.94,10.95c1.31,0.92,1.73,1.92,1.88,2.74c1.18,6.43,2.05,11.81,2.84,16.06" transform="matrix(1,0,0,1,396,-4)" class="stroke_order_diagram--existing_path"></path><path id="pathSk2v596cn4ms2" kvg:type="㇑a" d="M68.25,9.92c0.42,1.01,0.53,1.96,0.25,3.25c-1,4.58-2,8.46-4.22,15.55" transform="matrix(1,0,0,1,396,-4)" class="stroke_order_diagram--existing_path"></path><path id="pathSk2v596cn4ms3" kvg:type="㇑" d="M19,42.39c0.8,0.8,1.03,1.73,1.03,3.04c0,3.26,0,22.18,0,32.44c0,2.91,0,5.13,0,6.09" transform="matrix(1,0,0,1,396,-4)" class="stroke_order_diagram--existing_path"></path><path id="kvg:0840c-s5" kvg:type="㇕a" d="M20.93,44.76c3.67-0.65,13.93-2.23,18.32-2.81c2.89-0.38,4.21,0.65,4.21,3.68c0,5.5,0.01,25.25,0.01,30.88c0,2.8,0.03,5.07,0.03,6.38" transform="matrix(1,0,0,1,396,-4)" class="stroke_order_diagram--current_path"></path><path id="pathSk2v596cn4ms5" kvg:type="㇕a" d="M20.93,44.76c3.67-0.65,13.93-2.23,18.32-2.81c2.89-0.38,4.21,0.65,4.21,3.68c0,5.5,0.01,25.25,0.01,30.88c0,2.8,0.03,5.07,0.03,6.38" transform="matrix(1,0,0,1,396,-4)" class="stroke_order_diagram--current_path"></path><circle cx="20.93" cy="44.76" r="8" class="stroke_order_diagram--path_start" transform="matrix(1,0,0,1,396,-4)"></circle><line x1="550" x2="550" y1="1" y2="99" class="stroke_order_diagram--guide_line"></line><line x1="599" x2="599" y1="1" y2="99" class="stroke_order_diagram--bounding_box"></line><path id="pathSk2v596cn4ms8" kvg:type="㇐" d="M15.5,21.71c2.92,0.88,6.62,0.64,9.62,0.35c15.46-1.5,41.23-3.31,56.38-3.75c3.47-0.1,6.98-0.3,10.42,0.32" transform="matrix(1,0,0,1,496,-4)" class="stroke_order_diagram--existing_path"></path><path id="pathSk2v596cn4ms9" kvg:type="㇑a" d="M36.94,10.95c1.31,0.92,1.73,1.92,1.88,2.74c1.18,6.43,2.05,11.81,2.84,16.06" transform="matrix(1,0,0,1,496,-4)" class="stroke_order_diagram--existing_path"></path><path id="pathSk2v596cn4msa" kvg:type="㇑a" d="M68.25,9.92c0.42,1.01,0.53,1.96,0.25,3.25c-1,4.58-2,8.46-4.22,15.55" transform="matrix(1,0,0,1,496,-4)" class="stroke_order_diagram--existing_path"></path><path id="pathSk2v596cn4msb" kvg:type="㇑" d="M19,42.39c0.8,0.8,1.03,1.73,1.03,3.04c0,3.26,0,22.18,0,32.44c0,2.91,0,5.13,0,6.09" transform="matrix(1,0,0,1,496,-4)" class="stroke_order_diagram--existing_path"></path><path id="pathSk2v596cn4msc" kvg:type="㇕a" d="M20.93,44.76c3.67-0.65,13.93-2.23,18.32-2.81c2.89-0.38,4.21,0.65,4.21,3.68c0,5.5,0.01,25.25,0.01,30.88c0,2.8,0.03,5.07,0.03,6.38" transform="matrix(1,0,0,1,496,-4)" class="stroke_order_diagram--existing_path"></path><path id="kvg:0840c-s6" kvg:type="㇐a" d="M21.07,61.87c4.81-0.49,15.56-1.99,21.27-2.11" transform="matrix(1,0,0,1,496,-4)" class="stroke_order_diagram--current_path"></path><path id="pathSk2v596cn4mse" kvg:type="㇐a" d="M21.07,61.87c4.81-0.49,15.56-1.99,21.27-2.11" transform="matrix(1,0,0,1,496,-4)" class="stroke_order_diagram--current_path"></path><circle cx="21.07" cy="61.87" r="8" class="stroke_order_diagram--path_start" transform="matrix(1,0,0,1,496,-4)"></circle><line x1="650" x2="650" y1="1" y2="99" class="stroke_order_diagram--guide_line"></line><line x1="699" x2="699" y1="1" y2="99" class="stroke_order_diagram--bounding_box"></line><path id="pathSk2v596cn4msh" kvg:type="㇐" d="M15.5,21.71c2.92,0.88,6.62,0.64,9.62,0.35c15.46-1.5,41.23-3.31,56.38-3.75c3.47-0.1,6.98-0.3,10.42,0.32" transform="matrix(1,0,0,1,596,-4)" class="stroke_order_diagram--existing_path"></path><path id="pathSk2v596cn4msi" kvg:type="㇑a" d="M36.94,10.95c1.31,0.92,1.73,1.92,1.88,2.74c1.18,6.43,2.05,11.81,2.84,16.06" transform="matrix(1,0,0,1,596,-4)" class="stroke_order_diagram--existing_path"></path><path id="pathSk2v596cn4msj" kvg:type="㇑a" d="M68.25,9.92c0.42,1.01,0.53,1.96,0.25,3.25c-1,4.58-2,8.46-4.22,15.55" transform="matrix(1,0,0,1,596,-4)" class="stroke_order_diagram--existing_path"></path><path id="pathSk2v596cn4msk" kvg:type="㇑" d="M19,42.39c0.8,0.8,1.03,1.73,1.03,3.04c0,3.26,0,22.18,0,32.44c0,2.91,0,5.13,0,6.09" transform="matrix(1,0,0,1,596,-4)" class="stroke_order_diagram--existing_path"></path><path id="pathSk2v596cn4msl" kvg:type="㇕a" d="M20.93,44.76c3.67-0.65,13.93-2.23,18.32-2.81c2.89-0.38,4.21,0.65,4.21,3.68c0,5.5,0.01,25.25,0.01,30.88c0,2.8,0.03,5.07,0.03,6.38" transform="matrix(1,0,0,1,596,-4)" class="stroke_order_diagram--existing_path"></path><path id="pathSk2v596cn4msm" kvg:type="㇐a" d="M21.07,61.87c4.81-0.49,15.56-1.99,21.27-2.11" transform="matrix(1,0,0,1,596,-4)" class="stroke_order_diagram--existing_path"></path><path id="kvg:0840c-s7" kvg:type="㇐a" d="M21.18,81.24c7.7-0.87,13.57-1.74,20.95-2.12" transform="matrix(1,0,0,1,596,-4)" class="stroke_order_diagram--current_path"></path><path id="pathSk2v596cn4mso" kvg:type="㇐a" d="M21.18,81.24c7.7-0.87,13.57-1.74,20.95-2.12" transform="matrix(1,0,0,1,596,-4)" class="stroke_order_diagram--current_path"></path><circle cx="21.18" cy="81.24" r="8" class="stroke_order_diagram--path_start" transform="matrix(1,0,0,1,596,-4)"></circle><line x1="750" x2="750" y1="1" y2="99" class="stroke_order_diagram--guide_line"></line><line x1="799" x2="799" y1="1" y2="99" class="stroke_order_diagram--bounding_box"></line><path id="pathSk2v596cn4msr" kvg:type="㇐" d="M15.5,21.71c2.92,0.88,6.62,0.64,9.62,0.35c15.46-1.5,41.23-3.31,56.38-3.75c3.47-0.1,6.98-0.3,10.42,0.32" transform="matrix(1,0,0,1,696,-4)" class="stroke_order_diagram--existing_path"></path><path id="pathSk2v596cn4mss" kvg:type="㇑a" d="M36.94,10.95c1.31,0.92,1.73,1.92,1.88,2.74c1.18,6.43,2.05,11.81,2.84,16.06" transform="matrix(1,0,0,1,696,-4)" class="stroke_order_diagram--existing_path"></path><path id="pathSk2v596cn4mst" kvg:type="㇑a" d="M68.25,9.92c0.42,1.01,0.53,1.96,0.25,3.25c-1,4.58-2,8.46-4.22,15.55" transform="matrix(1,0,0,1,696,-4)" class="stroke_order_diagram--existing_path"></path><path id="pathSk2v596cn4msu" kvg:type="㇑" d="M19,42.39c0.8,0.8,1.03,1.73,1.03,3.04c0,3.26,0,22.18,0,32.44c0,2.91,0,5.13,0,6.09" transform="matrix(1,0,0,1,696,-4)" class="stroke_order_diagram--existing_path"></path><path id="pathSk2v596cn4msv" kvg:type="㇕a" d="M20.93,44.76c3.67-0.65,13.93-2.23,18.32-2.81c2.89-0.38,4.21,0.65,4.21,3.68c0,5.5,0.01,25.25,0.01,30.88c0,2.8,0.03,5.07,0.03,6.38" transform="matrix(1,0,0,1,696,-4)" class="stroke_order_diagram--existing_path"></path><path id="pathSk2v596cn4msw" kvg:type="㇐a" d="M21.07,61.87c4.81-0.49,15.56-1.99,21.27-2.11" transform="matrix(1,0,0,1,696,-4)" class="stroke_order_diagram--existing_path"></path><path id="pathSk2v596cn4msx" kvg:type="㇐a" d="M21.18,81.24c7.7-0.87,13.57-1.74,20.95-2.12" transform="matrix(1,0,0,1,696,-4)" class="stroke_order_diagram--existing_path"></path><path id="kvg:0840c-s8" kvg:type="㇒" d="M59.22,34.74c0.9,0.9,0.95,2.01,0.99,3.41c0.92,34.6-0.83,45.48-15.46,59.36" transform="matrix(1,0,0,1,696,-4)" class="stroke_order_diagram--current_path"></path><path id="pathSk2v596cn4msz" kvg:type="㇒" d="M59.22,34.74c0.9,0.9,0.95,2.01,0.99,3.41c0.92,34.6-0.83,45.48-15.46,59.36" transform="matrix(1,0,0,1,696,-4)" class="stroke_order_diagram--current_path"></path><circle cx="59.22" cy="34.74" r="8" class="stroke_order_diagram--path_start" transform="matrix(1,0,0,1,696,-4)"></circle><line x1="850" x2="850" y1="1" y2="99" class="stroke_order_diagram--guide_line"></line><line x1="899" x2="899" y1="1" y2="99" class="stroke_order_diagram--bounding_box"></line><path id="pathSk2v596cn4mt2" kvg:type="㇐" d="M15.5,21.71c2.92,0.88,6.62,0.64,9.62,0.35c15.46-1.5,41.23-3.31,56.38-3.75c3.47-0.1,6.98-0.3,10.42,0.32" transform="matrix(1,0,0,1,796,-4)" class="stroke_order_diagram--existing_path"></path><path id="pathSk2v596cn4mt3" kvg:type="㇑a" d="M36.94,10.95c1.31,0.92,1.73,1.92,1.88,2.74c1.18,6.43,2.05,11.81,2.84,16.06" transform="matrix(1,0,0,1,796,-4)" class="stroke_order_diagram--existing_path"></path><path id="pathSk2v596cn4mt4" kvg:type="㇑a" d="M68.25,9.92c0.42,1.01,0.53,1.96,0.25,3.25c-1,4.58-2,8.46-4.22,15.55" transform="matrix(1,0,0,1,796,-4)" class="stroke_order_diagram--existing_path"></path><path id="pathSk2v596cn4mt5" kvg:type="㇑" d="M19,42.39c0.8,0.8,1.03,1.73,1.03,3.04c0,3.26,0,22.18,0,32.44c0,2.91,0,5.13,0,6.09" transform="matrix(1,0,0,1,796,-4)" class="stroke_order_diagram--existing_path"></path><path id="pathSk2v596cn4mt6" kvg:type="㇕a" d="M20.93,44.76c3.67-0.65,13.93-2.23,18.32-2.81c2.89-0.38,4.21,0.65,4.21,3.68c0,5.5,0.01,25.25,0.01,30.88c0,2.8,0.03,5.07,0.03,6.38" transform="matrix(1,0,0,1,796,-4)" class="stroke_order_diagram--existing_path"></path><path id="pathSk2v596cn4mt7" kvg:type="㇐a" d="M21.07,61.87c4.81-0.49,15.56-1.99,21.27-2.11" transform="matrix(1,0,0,1,796,-4)" class="stroke_order_diagram--existing_path"></path><path id="pathSk2v596cn4mt8" kvg:type="㇐a" d="M21.18,81.24c7.7-0.87,13.57-1.74,20.95-2.12" transform="matrix(1,0,0,1,796,-4)" class="stroke_order_diagram--existing_path"></path><path id="pathSk2v596cn4mt9" kvg:type="㇒" d="M59.22,34.74c0.9,0.9,0.95,2.01,0.99,3.41c0.92,34.6-0.83,45.48-15.46,59.36" transform="matrix(1,0,0,1,796,-4)" class="stroke_order_diagram--existing_path"></path><path id="kvg:0840c-s9" kvg:type="㇆a" d="M61.2,37.04c1.98-0.2,17.68-2.54,20.79-2.81c2.66-0.23,4.04,0.52,4.04,3.57c0,4.45,0.01,37.87,0.01,54.14c0,8.84-6.41,1.11-7.37,0.31" transform="matrix(1,0,0,1,796,-4)" class="stroke_order_diagram--current_path"></path><path id="pathSk2v596cn4mtb" kvg:type="㇆a" d="M61.2,37.04c1.98-0.2,17.68-2.54,20.79-2.81c2.66-0.23,4.04,0.52,4.04,3.57c0,4.45,0.01,37.87,0.01,54.14c0,8.84-6.41,1.11-7.37,0.31" transform="matrix(1,0,0,1,796,-4)" class="stroke_order_diagram--current_path"></path><circle cx="61.2" cy="37.04" r="8" class="stroke_order_diagram--path_start" transform="matrix(1,0,0,1,796,-4)"></circle><line x1="950" x2="950" y1="1" y2="99" class="stroke_order_diagram--guide_line"></line><line x1="999" x2="999" y1="1" y2="99" class="stroke_order_diagram--bounding_box"></line><path id="pathSk2v596cn4mte" kvg:type="㇐" d="M15.5,21.71c2.92,0.88,6.62,0.64,9.62,0.35c15.46-1.5,41.23-3.31,56.38-3.75c3.47-0.1,6.98-0.3,10.42,0.32" transform="matrix(1,0,0,1,896,-4)" class="stroke_order_diagram--existing_path"></path><path id="pathSk2v596cn4mtf" kvg:type="㇑a" d="M36.94,10.95c1.31,0.92,1.73,1.92,1.88,2.74c1.18,6.43,2.05,11.81,2.84,16.06" transform="matrix(1,0,0,1,896,-4)" class="stroke_order_diagram--existing_path"></path><path id="pathSk2v596cn4mtg" kvg:type="㇑a" d="M68.25,9.92c0.42,1.01,0.53,1.96,0.25,3.25c-1,4.58-2,8.46-4.22,15.55" transform="matrix(1,0,0,1,896,-4)" class="stroke_order_diagram--existing_path"></path><path id="pathSk2v596cn4mth" kvg:type="㇑" d="M19,42.39c0.8,0.8,1.03,1.73,1.03,3.04c0,3.26,0,22.18,0,32.44c0,2.91,0,5.13,0,6.09" transform="matrix(1,0,0,1,896,-4)" class="stroke_order_diagram--existing_path"></path><path id="pathSk2v596cn4mti" kvg:type="㇕a" d="M20.93,44.76c3.67-0.65,13.93-2.23,18.32-2.81c2.89-0.38,4.21,0.65,4.21,3.68c0,5.5,0.01,25.25,0.01,30.88c0,2.8,0.03,5.07,0.03,6.38" transform="matrix(1,0,0,1,896,-4)" class="stroke_order_diagram--existing_path"></path><path id="pathSk2v596cn4mtj" kvg:type="㇐a" d="M21.07,61.87c4.81-0.49,15.56-1.99,21.27-2.11" transform="matrix(1,0,0,1,896,-4)" class="stroke_order_diagram--existing_path"></path><path id="pathSk2v596cn4mtk" kvg:type="㇐a" d="M21.18,81.24c7.7-0.87,13.57-1.74,20.95-2.12" transform="matrix(1,0,0,1,896,-4)" class="stroke_order_diagram--existing_path"></path><path id="pathSk2v596cn4mtl" kvg:type="㇒" d="M59.22,34.74c0.9,0.9,0.95,2.01,0.99,3.41c0.92,34.6-0.83,45.48-15.46,59.36" transform="matrix(1,0,0,1,896,-4)" class="stroke_order_diagram--existing_path"></path><path id="pathSk2v596cn4mtm" kvg:type="㇆a" d="M61.2,37.04c1.98-0.2,17.68-2.54,20.79-2.81c2.66-0.23,4.04,0.52,4.04,3.57c0,4.45,0.01,37.87,0.01,54.14c0,8.84-6.41,1.11-7.37,0.31" transform="matrix(1,0,0,1,896,-4)" class="stroke_order_diagram--existing_path"></path><path id="kvg:0840c-s10" kvg:type="㇐a" d="M61.45,52.67c6.2-0.4,16.05-1.54,23.43-1.86" transform="matrix(1,0,0,1,896,-4)" class="stroke_order_diagram--current_path"></path><path id="pathSk2v596cn4mto" kvg:type="㇐a" d="M61.45,52.67c6.2-0.4,16.05-1.54,23.43-1.86" transform="matrix(1,0,0,1,896,-4)" class="stroke_order_diagram--current_path"></path><circle cx="61.45" cy="52.67" r="8" class="stroke_order_diagram--path_start" transform="matrix(1,0,0,1,896,-4)"></circle><line x1="1050" x2="1050" y1="1" y2="99" class="stroke_order_diagram--guide_line"></line><line x1="1099" x2="1099" y1="1" y2="99" class="stroke_order_diagram--bounding_box"></line><path id="pathSk2v596cn4mtr" kvg:type="㇐" d="M15.5,21.71c2.92,0.88,6.62,0.64,9.62,0.35c15.46-1.5,41.23-3.31,56.38-3.75c3.47-0.1,6.98-0.3,10.42,0.32" transform="matrix(1,0,0,1,996,-4)" class="stroke_order_diagram--existing_path"></path><path id="pathSk2v596cn4mts" kvg:type="㇑a" d="M36.94,10.95c1.31,0.92,1.73,1.92,1.88,2.74c1.18,6.43,2.05,11.81,2.84,16.06" transform="matrix(1,0,0,1,996,-4)" class="stroke_order_diagram--existing_path"></path><path id="pathSk2v596cn4mtt" kvg:type="㇑a" d="M68.25,9.92c0.42,1.01,0.53,1.96,0.25,3.25c-1,4.58-2,8.46-4.22,15.55" transform="matrix(1,0,0,1,996,-4)" class="stroke_order_diagram--existing_path"></path><path id="pathSk2v596cn4mtu" kvg:type="㇑" d="M19,42.39c0.8,0.8,1.03,1.73,1.03,3.04c0,3.26,0,22.18,0,32.44c0,2.91,0,5.13,0,6.09" transform="matrix(1,0,0,1,996,-4)" class="stroke_order_diagram--existing_path"></path><path id="pathSk2v596cn4mtv" kvg:type="㇕a" d="M20.93,44.76c3.67-0.65,13.93-2.23,18.32-2.81c2.89-0.38,4.21,0.65,4.21,3.68c0,5.5,0.01,25.25,0.01,30.88c0,2.8,0.03,5.07,0.03,6.38" transform="matrix(1,0,0,1,996,-4)" class="stroke_order_diagram--existing_path"></path><path id="pathSk2v596cn4mtw" kvg:type="㇐a" d="M21.07,61.87c4.81-0.49,15.56-1.99,21.27-2.11" transform="matrix(1,0,0,1,996,-4)" class="stroke_order_diagram--existing_path"></path><path id="pathSk2v596cn4mtx" kvg:type="㇐a" d="M21.18,81.24c7.7-0.87,13.57-1.74,20.95-2.12" transform="matrix(1,0,0,1,996,-4)" class="stroke_order_diagram--existing_path"></path><path id="pathSk2v596cn4mty" kvg:type="㇒" d="M59.22,34.74c0.9,0.9,0.95,2.01,0.99,3.41c0.92,34.6-0.83,45.48-15.46,59.36" transform="matrix(1,0,0,1,996,-4)" class="stroke_order_diagram--existing_path"></path><path id="pathSk2v596cn4mtz" kvg:type="㇆a" d="M61.2,37.04c1.98-0.2,17.68-2.54,20.79-2.81c2.66-0.23,4.04,0.52,4.04,3.57c0,4.45,0.01,37.87,0.01,54.14c0,8.84-6.41,1.11-7.37,0.31" transform="matrix(1,0,0,1,996,-4)" class="stroke_order_diagram--existing_path"></path><path id="pathSk2v596cn4mu0" kvg:type="㇐a" d="M61.45,52.67c6.2-0.4,16.05-1.54,23.43-1.86" transform="matrix(1,0,0,1,996,-4)" class="stroke_order_diagram--existing_path"></path><path id="kvg:0840c-s11" kvg:type="㇐a" d="M60.73,69.38C66,68.78,77.38,68,85.05,67.68" transform="matrix(1,0,0,1,996,-4)" class="stroke_order_diagram--current_path"></path><path id="pathSk2v596cn4mu2" kvg:type="㇐a" d="M60.73,69.38C66,68.78,77.38,68,85.05,67.68" transform="matrix(1,0,0,1,996,-4)" class="stroke_order_diagram--current_path"></path><circle cx="60.73" cy="69.38" r="8" class="stroke_order_diagram--path_start" transform="matrix(1,0,0,1,996,-4)"></circle></svg>