<svg style="width: 1200px; height: 100px;" viewbox="0 0 1200 100"><style>
.stroke_order_diagram--outer_container {
  width: 100%;
  overflow-x: auto;
  overflow-y: hidden;
}

.stroke_order_diagram--guide_line {
  fill: none;
  stroke: #ddd;
  stroke-width: 3;
  stroke-linecap: square;
  stroke-linejoin: square;
  stroke-dasharray:8, 8;
}

.stroke_order_diagram--bounding_box {
  fill: none;
  stroke: #ddd;
  stroke-width: 4;
  stroke-linecap: square;
  stroke-linejoin: square;
}

.stroke_order_diagram--current_path {
  fill: none;
  stroke: #000;
  stroke-width: 6;
  stroke-linecap: round;
  stroke-linejoin: round;
}

.stroke_order_diagram--existing_path {
  fill: none;
  stroke: #aaa;
  stroke-width: 6;
  stroke-linecap: round;
  stroke-linejoin:round;
}

.stroke_order_diagram--path_start {
  fill: rgba(255, 0, 0, 0.7);
  stroke:none
}</style><desc>Created with Snap</desc><defs></defs><line x1="1" x2="1199" y1="1" y2="1" class="stroke_order_diagram--bounding_box"></line><line x1="1" x2="1" y1="1" y2="99" class="stroke_order_diagram--bounding_box"></line><line x1="1" x2="1199" y1="99" y2="99" class="stroke_order_diagram--bounding_box"></line><line x1="0" x2="1200" y1="50" y2="50" class="stroke_order_diagram--guide_line"></line><line x1="50" x2="50" y1="1" y2="99" class="stroke_order_diagram--guide_line"></line><line x1="99" x2="99" y1="1" y2="99" class="stroke_order_diagram--bounding_box"></line><path id="kvg:08475-s1" kvg:type="㇐" d="M20.5,23.7c2.92,0.68,5.69,0.64,8.64,0.29c14.99-1.75,36.05-2.91,49.75-3.33c3.29-0.1,6.36-0.02,9.62,0.44" transform="matrix(1,0,0,1,-4,-4)" class="stroke_order_diagram--current_path"></path><path id="pathSk2v596cn48re" kvg:type="㇐" d="M20.5,23.7c2.92,0.68,5.69,0.64,8.64,0.29c14.99-1.75,36.05-2.91,49.75-3.33c3.29-0.1,6.36-0.02,9.62,0.44" transform="matrix(1,0,0,1,-4,-4)" class="stroke_order_diagram--current_path"></path><circle cx="20.5" cy="23.7" r="8" class="stroke_order_diagram--path_start" transform="matrix(1,0,0,1,-4,-4)"></circle><line x1="150" x2="150" y1="1" y2="99" class="stroke_order_diagram--guide_line"></line><line x1="199" x2="199" y1="1" y2="99" class="stroke_order_diagram--bounding_box"></line><path id="pathSk2v596cn48rh" kvg:type="㇐" d="M20.5,23.7c2.92,0.68,5.69,0.64,8.64,0.29c14.99-1.75,36.05-2.91,49.75-3.33c3.29-0.1,6.36-0.02,9.62,0.44" transform="matrix(1,0,0,1,96,-4)" class="stroke_order_diagram--existing_path"></path><path id="kvg:08475-s2" kvg:type="㇑a" d="M38.38,12.25c1.12,0.88,1.46,1.74,1.6,2.45c1.29,6.6,2.4,12.9,2.77,15.3" transform="matrix(1,0,0,1,96,-4)" class="stroke_order_diagram--current_path"></path><path id="pathSk2v596cn48rj" kvg:type="㇑a" d="M38.38,12.25c1.12,0.88,1.46,1.74,1.6,2.45c1.29,6.6,2.4,12.9,2.77,15.3" transform="matrix(1,0,0,1,96,-4)" class="stroke_order_diagram--current_path"></path><circle cx="38.38" cy="12.25" r="8" class="stroke_order_diagram--path_start" transform="matrix(1,0,0,1,96,-4)"></circle><line x1="250" x2="250" y1="1" y2="99" class="stroke_order_diagram--guide_line"></line><line x1="299" x2="299" y1="1" y2="99" class="stroke_order_diagram--bounding_box"></line><path id="pathSk2v596cn48rm" kvg:type="㇐" d="M20.5,23.7c2.92,0.68,5.69,0.64,8.64,0.29c14.99-1.75,36.05-2.91,49.75-3.33c3.29-0.1,6.36-0.02,9.62,0.44" transform="matrix(1,0,0,1,196,-4)" class="stroke_order_diagram--existing_path"></path><path id="pathSk2v596cn48rn" kvg:type="㇑a" d="M38.38,12.25c1.12,0.88,1.46,1.74,1.6,2.45c1.29,6.6,2.4,12.9,2.77,15.3" transform="matrix(1,0,0,1,196,-4)" class="stroke_order_diagram--existing_path"></path><path id="kvg:08475-s3" kvg:type="㇑a" d="M67.39,10.25c0.48,1,0.48,1.97,0.22,3.17c-1.24,5.83-2.12,10.7-3.64,16.33" transform="matrix(1,0,0,1,196,-4)" class="stroke_order_diagram--current_path"></path><path id="pathSk2v596cn48rp" kvg:type="㇑a" d="M67.39,10.25c0.48,1,0.48,1.97,0.22,3.17c-1.24,5.83-2.12,10.7-3.64,16.33" transform="matrix(1,0,0,1,196,-4)" class="stroke_order_diagram--current_path"></path><circle cx="67.39" cy="10.25" r="8" class="stroke_order_diagram--path_start" transform="matrix(1,0,0,1,196,-4)"></circle><line x1="350" x2="350" y1="1" y2="99" class="stroke_order_diagram--guide_line"></line><line x1="399" x2="399" y1="1" y2="99" class="stroke_order_diagram--bounding_box"></line><path id="pathSk2v596cn48rs" kvg:type="㇐" d="M20.5,23.7c2.92,0.68,5.69,0.64,8.64,0.29c14.99-1.75,36.05-2.91,49.75-3.33c3.29-0.1,6.36-0.02,9.62,0.44" transform="matrix(1,0,0,1,296,-4)" class="stroke_order_diagram--existing_path"></path><path id="pathSk2v596cn48rt" kvg:type="㇑a" d="M38.38,12.25c1.12,0.88,1.46,1.74,1.6,2.45c1.29,6.6,2.4,12.9,2.77,15.3" transform="matrix(1,0,0,1,296,-4)" class="stroke_order_diagram--existing_path"></path><path id="pathSk2v596cn48ru" kvg:type="㇑a" d="M67.39,10.25c0.48,1,0.48,1.97,0.22,3.17c-1.24,5.83-2.12,10.7-3.64,16.33" transform="matrix(1,0,0,1,296,-4)" class="stroke_order_diagram--existing_path"></path><path id="kvg:08475-s4" kvg:type="㇇" d="M28.48,38.17c1.32,0.5,2.59,0.56,4.7,0.17c5.19-0.96,7.19-1.34,11.91-2.58c3.42-0.9,4.21,0.68,3.09,3.37c-2.64,6.32-16.53,24.16-33.88,29.9" transform="matrix(1,0,0,1,296,-4)" class="stroke_order_diagram--current_path"></path><path id="pathSk2v596cn48rw" kvg:type="㇇" d="M28.48,38.17c1.32,0.5,2.59,0.56,4.7,0.17c5.19-0.96,7.19-1.34,11.91-2.58c3.42-0.9,4.21,0.68,3.09,3.37c-2.64,6.32-16.53,24.16-33.88,29.9" transform="matrix(1,0,0,1,296,-4)" class="stroke_order_diagram--current_path"></path><circle cx="28.48" cy="38.17" r="8" class="stroke_order_diagram--path_start" transform="matrix(1,0,0,1,296,-4)"></circle><line x1="450" x2="450" y1="1" y2="99" class="stroke_order_diagram--guide_line"></line><line x1="499" x2="499" y1="1" y2="99" class="stroke_order_diagram--bounding_box"></line><path id="pathSk2v596cn48rz" kvg:type="㇐" d="M20.5,23.7c2.92,0.68,5.69,0.64,8.64,0.29c14.99-1.75,36.05-2.91,49.75-3.33c3.29-0.1,6.36-0.02,9.62,0.44" transform="matrix(1,0,0,1,396,-4)" class="stroke_order_diagram--existing_path"></path><path id="pathSk2v596cn48s0" kvg:type="㇑a" d="M38.38,12.25c1.12,0.88,1.46,1.74,1.6,2.45c1.29,6.6,2.4,12.9,2.77,15.3" transform="matrix(1,0,0,1,396,-4)" class="stroke_order_diagram--existing_path"></path><path id="pathSk2v596cn48s1" kvg:type="㇑a" d="M67.39,10.25c0.48,1,0.48,1.97,0.22,3.17c-1.24,5.83-2.12,10.7-3.64,16.33" transform="matrix(1,0,0,1,396,-4)" class="stroke_order_diagram--existing_path"></path><path id="pathSk2v596cn48s2" kvg:type="㇇" d="M28.48,38.17c1.32,0.5,2.59,0.56,4.7,0.17c5.19-0.96,7.19-1.34,11.91-2.58c3.42-0.9,4.21,0.68,3.09,3.37c-2.64,6.32-16.53,24.16-33.88,29.9" transform="matrix(1,0,0,1,396,-4)" class="stroke_order_diagram--existing_path"></path><path id="kvg:08475-s5" kvg:type="㇔" d="M24.56,45.46c2.84,1.36,7.33,5.58,8.04,7.69" transform="matrix(1,0,0,1,396,-4)" class="stroke_order_diagram--current_path"></path><path id="pathSk2v596cn48s4" kvg:type="㇔" d="M24.56,45.46c2.84,1.36,7.33,5.58,8.04,7.69" transform="matrix(1,0,0,1,396,-4)" class="stroke_order_diagram--current_path"></path><circle cx="24.56" cy="45.46" r="8" class="stroke_order_diagram--path_start" transform="matrix(1,0,0,1,396,-4)"></circle><line x1="550" x2="550" y1="1" y2="99" class="stroke_order_diagram--guide_line"></line><line x1="599" x2="599" y1="1" y2="99" class="stroke_order_diagram--bounding_box"></line><path id="pathSk2v596cn48s7" kvg:type="㇐" d="M20.5,23.7c2.92,0.68,5.69,0.64,8.64,0.29c14.99-1.75,36.05-2.91,49.75-3.33c3.29-0.1,6.36-0.02,9.62,0.44" transform="matrix(1,0,0,1,496,-4)" class="stroke_order_diagram--existing_path"></path><path id="pathSk2v596cn48s8" kvg:type="㇑a" d="M38.38,12.25c1.12,0.88,1.46,1.74,1.6,2.45c1.29,6.6,2.4,12.9,2.77,15.3" transform="matrix(1,0,0,1,496,-4)" class="stroke_order_diagram--existing_path"></path><path id="pathSk2v596cn48s9" kvg:type="㇑a" d="M67.39,10.25c0.48,1,0.48,1.97,0.22,3.17c-1.24,5.83-2.12,10.7-3.64,16.33" transform="matrix(1,0,0,1,496,-4)" class="stroke_order_diagram--existing_path"></path><path id="pathSk2v596cn48sa" kvg:type="㇇" d="M28.48,38.17c1.32,0.5,2.59,0.56,4.7,0.17c5.19-0.96,7.19-1.34,11.91-2.58c3.42-0.9,4.21,0.68,3.09,3.37c-2.64,6.32-16.53,24.16-33.88,29.9" transform="matrix(1,0,0,1,496,-4)" class="stroke_order_diagram--existing_path"></path><path id="pathSk2v596cn48sb" kvg:type="㇔" d="M24.56,45.46c2.84,1.36,7.33,5.58,8.04,7.69" transform="matrix(1,0,0,1,496,-4)" class="stroke_order_diagram--existing_path"></path><path id="kvg:08475-s6" kvg:type="㇒" d="M72.53,34.14c0.06,0.53-0.3,1.28-0.67,1.68c-1.99,2.17-3.37,3.05-7.82,5.81" transform="matrix(1,0,0,1,496,-4)" class="stroke_order_diagram--current_path"></path><path id="pathSk2v596cn48sd" kvg:type="㇒" d="M72.53,34.14c0.06,0.53-0.3,1.28-0.67,1.68c-1.99,2.17-3.37,3.05-7.82,5.81" transform="matrix(1,0,0,1,496,-4)" class="stroke_order_diagram--current_path"></path><circle cx="72.53" cy="34.14" r="8" class="stroke_order_diagram--path_start" transform="matrix(1,0,0,1,496,-4)"></circle><line x1="650" x2="650" y1="1" y2="99" class="stroke_order_diagram--guide_line"></line><line x1="699" x2="699" y1="1" y2="99" class="stroke_order_diagram--bounding_box"></line><path id="pathSk2v596cn48sg" kvg:type="㇐" d="M20.5,23.7c2.92,0.68,5.69,0.64,8.64,0.29c14.99-1.75,36.05-2.91,49.75-3.33c3.29-0.1,6.36-0.02,9.62,0.44" transform="matrix(1,0,0,1,596,-4)" class="stroke_order_diagram--existing_path"></path><path id="pathSk2v596cn48sh" kvg:type="㇑a" d="M38.38,12.25c1.12,0.88,1.46,1.74,1.6,2.45c1.29,6.6,2.4,12.9,2.77,15.3" transform="matrix(1,0,0,1,596,-4)" class="stroke_order_diagram--existing_path"></path><path id="pathSk2v596cn48si" kvg:type="㇑a" d="M67.39,10.25c0.48,1,0.48,1.97,0.22,3.17c-1.24,5.83-2.12,10.7-3.64,16.33" transform="matrix(1,0,0,1,596,-4)" class="stroke_order_diagram--existing_path"></path><path id="pathSk2v596cn48sj" kvg:type="㇇" d="M28.48,38.17c1.32,0.5,2.59,0.56,4.7,0.17c5.19-0.96,7.19-1.34,11.91-2.58c3.42-0.9,4.21,0.68,3.09,3.37c-2.64,6.32-16.53,24.16-33.88,29.9" transform="matrix(1,0,0,1,596,-4)" class="stroke_order_diagram--existing_path"></path><path id="pathSk2v596cn48sk" kvg:type="㇔" d="M24.56,45.46c2.84,1.36,7.33,5.58,8.04,7.69" transform="matrix(1,0,0,1,596,-4)" class="stroke_order_diagram--existing_path"></path><path id="pathSk2v596cn48sl" kvg:type="㇒" d="M72.53,34.14c0.06,0.53-0.3,1.28-0.67,1.68c-1.99,2.17-3.37,3.05-7.82,5.81" transform="matrix(1,0,0,1,596,-4)" class="stroke_order_diagram--existing_path"></path><path id="kvg:08475-s7" kvg:type="㇏" d="M54.19,36.45c2.22,1.3,18.64,15.07,27.48,21.91c2.66,2.06,5.86,3.47,8.78,5.1" transform="matrix(1,0,0,1,596,-4)" class="stroke_order_diagram--current_path"></path><path id="pathSk2v596cn48sn" kvg:type="㇏" d="M54.19,36.45c2.22,1.3,18.64,15.07,27.48,21.91c2.66,2.06,5.86,3.47,8.78,5.1" transform="matrix(1,0,0,1,596,-4)" class="stroke_order_diagram--current_path"></path><circle cx="54.19" cy="36.45" r="8" class="stroke_order_diagram--path_start" transform="matrix(1,0,0,1,596,-4)"></circle><line x1="750" x2="750" y1="1" y2="99" class="stroke_order_diagram--guide_line"></line><line x1="799" x2="799" y1="1" y2="99" class="stroke_order_diagram--bounding_box"></line><path id="pathSk2v596cn48sq" kvg:type="㇐" d="M20.5,23.7c2.92,0.68,5.69,0.64,8.64,0.29c14.99-1.75,36.05-2.91,49.75-3.33c3.29-0.1,6.36-0.02,9.62,0.44" transform="matrix(1,0,0,1,696,-4)" class="stroke_order_diagram--existing_path"></path><path id="pathSk2v596cn48sr" kvg:type="㇑a" d="M38.38,12.25c1.12,0.88,1.46,1.74,1.6,2.45c1.29,6.6,2.4,12.9,2.77,15.3" transform="matrix(1,0,0,1,696,-4)" class="stroke_order_diagram--existing_path"></path><path id="pathSk2v596cn48ss" kvg:type="㇑a" d="M67.39,10.25c0.48,1,0.48,1.97,0.22,3.17c-1.24,5.83-2.12,10.7-3.64,16.33" transform="matrix(1,0,0,1,696,-4)" class="stroke_order_diagram--existing_path"></path><path id="pathSk2v596cn48st" kvg:type="㇇" d="M28.48,38.17c1.32,0.5,2.59,0.56,4.7,0.17c5.19-0.96,7.19-1.34,11.91-2.58c3.42-0.9,4.21,0.68,3.09,3.37c-2.64,6.32-16.53,24.16-33.88,29.9" transform="matrix(1,0,0,1,696,-4)" class="stroke_order_diagram--existing_path"></path><path id="pathSk2v596cn48su" kvg:type="㇔" d="M24.56,45.46c2.84,1.36,7.33,5.58,8.04,7.69" transform="matrix(1,0,0,1,696,-4)" class="stroke_order_diagram--existing_path"></path><path id="pathSk2v596cn48sv" kvg:type="㇒" d="M72.53,34.14c0.06,0.53-0.3,1.28-0.67,1.68c-1.99,2.17-3.37,3.05-7.82,5.81" transform="matrix(1,0,0,1,696,-4)" class="stroke_order_diagram--existing_path"></path><path id="pathSk2v596cn48sw" kvg:type="㇏" d="M54.19,36.45c2.22,1.3,18.64,15.07,27.48,21.91c2.66,2.06,5.86,3.47,8.78,5.1" transform="matrix(1,0,0,1,696,-4)" class="stroke_order_diagram--existing_path"></path><path id="kvg:08475-s8" kvg:type="㇒" d="M84.98,42.23c0,0.77-0.41,1.33-0.93,1.67c-2.42,1.6-4.54,2.97-9.29,4.97" transform="matrix(1,0,0,1,696,-4)" class="stroke_order_diagram--current_path"></path><path id="pathSk2v596cn48sy" kvg:type="㇒" d="M84.98,42.23c0,0.77-0.41,1.33-0.93,1.67c-2.42,1.6-4.54,2.97-9.29,4.97" transform="matrix(1,0,0,1,696,-4)" class="stroke_order_diagram--current_path"></path><circle cx="84.98" cy="42.23" r="8" class="stroke_order_diagram--path_start" transform="matrix(1,0,0,1,696,-4)"></circle><line x1="850" x2="850" y1="1" y2="99" class="stroke_order_diagram--guide_line"></line><line x1="899" x2="899" y1="1" y2="99" class="stroke_order_diagram--bounding_box"></line><path id="pathSk2v596cn48t1" kvg:type="㇐" d="M20.5,23.7c2.92,0.68,5.69,0.64,8.64,0.29c14.99-1.75,36.05-2.91,49.75-3.33c3.29-0.1,6.36-0.02,9.62,0.44" transform="matrix(1,0,0,1,796,-4)" class="stroke_order_diagram--existing_path"></path><path id="pathSk2v596cn48t2" kvg:type="㇑a" d="M38.38,12.25c1.12,0.88,1.46,1.74,1.6,2.45c1.29,6.6,2.4,12.9,2.77,15.3" transform="matrix(1,0,0,1,796,-4)" class="stroke_order_diagram--existing_path"></path><path id="pathSk2v596cn48t3" kvg:type="㇑a" d="M67.39,10.25c0.48,1,0.48,1.97,0.22,3.17c-1.24,5.83-2.12,10.7-3.64,16.33" transform="matrix(1,0,0,1,796,-4)" class="stroke_order_diagram--existing_path"></path><path id="pathSk2v596cn48t4" kvg:type="㇇" d="M28.48,38.17c1.32,0.5,2.59,0.56,4.7,0.17c5.19-0.96,7.19-1.34,11.91-2.58c3.42-0.9,4.21,0.68,3.09,3.37c-2.64,6.32-16.53,24.16-33.88,29.9" transform="matrix(1,0,0,1,796,-4)" class="stroke_order_diagram--existing_path"></path><path id="pathSk2v596cn48t5" kvg:type="㇔" d="M24.56,45.46c2.84,1.36,7.33,5.58,8.04,7.69" transform="matrix(1,0,0,1,796,-4)" class="stroke_order_diagram--existing_path"></path><path id="pathSk2v596cn48t6" kvg:type="㇒" d="M72.53,34.14c0.06,0.53-0.3,1.28-0.67,1.68c-1.99,2.17-3.37,3.05-7.82,5.81" transform="matrix(1,0,0,1,796,-4)" class="stroke_order_diagram--existing_path"></path><path id="pathSk2v596cn48t7" kvg:type="㇏" d="M54.19,36.45c2.22,1.3,18.64,15.07,27.48,21.91c2.66,2.06,5.86,3.47,8.78,5.1" transform="matrix(1,0,0,1,796,-4)" class="stroke_order_diagram--existing_path"></path><path id="pathSk2v596cn48t8" kvg:type="㇒" d="M84.98,42.23c0,0.77-0.41,1.33-0.93,1.67c-2.42,1.6-4.54,2.97-9.29,4.97" transform="matrix(1,0,0,1,796,-4)" class="stroke_order_diagram--existing_path"></path><path id="kvg:08475-s9" kvg:type="㇐" d="M38.31,58.69c1.51,0.59,3.54,0.56,5.09,0.35c6.61-0.91,13.19-1.64,19.48-2.05c1.79-0.12,3.62-0.08,5.39,0.34" transform="matrix(1,0,0,1,796,-4)" class="stroke_order_diagram--current_path"></path><path id="pathSk2v596cn48ta" kvg:type="㇐" d="M38.31,58.69c1.51,0.59,3.54,0.56,5.09,0.35c6.61-0.91,13.19-1.64,19.48-2.05c1.79-0.12,3.62-0.08,5.39,0.34" transform="matrix(1,0,0,1,796,-4)" class="stroke_order_diagram--current_path"></path><circle cx="38.31" cy="58.69" r="8" class="stroke_order_diagram--path_start" transform="matrix(1,0,0,1,796,-4)"></circle><line x1="950" x2="950" y1="1" y2="99" class="stroke_order_diagram--guide_line"></line><line x1="999" x2="999" y1="1" y2="99" class="stroke_order_diagram--bounding_box"></line><path id="pathSk2v596cn48td" kvg:type="㇐" d="M20.5,23.7c2.92,0.68,5.69,0.64,8.64,0.29c14.99-1.75,36.05-2.91,49.75-3.33c3.29-0.1,6.36-0.02,9.62,0.44" transform="matrix(1,0,0,1,896,-4)" class="stroke_order_diagram--existing_path"></path><path id="pathSk2v596cn48te" kvg:type="㇑a" d="M38.38,12.25c1.12,0.88,1.46,1.74,1.6,2.45c1.29,6.6,2.4,12.9,2.77,15.3" transform="matrix(1,0,0,1,896,-4)" class="stroke_order_diagram--existing_path"></path><path id="pathSk2v596cn48tf" kvg:type="㇑a" d="M67.39,10.25c0.48,1,0.48,1.97,0.22,3.17c-1.24,5.83-2.12,10.7-3.64,16.33" transform="matrix(1,0,0,1,896,-4)" class="stroke_order_diagram--existing_path"></path><path id="pathSk2v596cn48tg" kvg:type="㇇" d="M28.48,38.17c1.32,0.5,2.59,0.56,4.7,0.17c5.19-0.96,7.19-1.34,11.91-2.58c3.42-0.9,4.21,0.68,3.09,3.37c-2.64,6.32-16.53,24.16-33.88,29.9" transform="matrix(1,0,0,1,896,-4)" class="stroke_order_diagram--existing_path"></path><path id="pathSk2v596cn48th" kvg:type="㇔" d="M24.56,45.46c2.84,1.36,7.33,5.58,8.04,7.69" transform="matrix(1,0,0,1,896,-4)" class="stroke_order_diagram--existing_path"></path><path id="pathSk2v596cn48ti" kvg:type="㇒" d="M72.53,34.14c0.06,0.53-0.3,1.28-0.67,1.68c-1.99,2.17-3.37,3.05-7.82,5.81" transform="matrix(1,0,0,1,896,-4)" class="stroke_order_diagram--existing_path"></path><path id="pathSk2v596cn48tj" kvg:type="㇏" d="M54.19,36.45c2.22,1.3,18.64,15.07,27.48,21.91c2.66,2.06,5.86,3.47,8.78,5.1" transform="matrix(1,0,0,1,896,-4)" class="stroke_order_diagram--existing_path"></path><path id="pathSk2v596cn48tk" kvg:type="㇒" d="M84.98,42.23c0,0.77-0.41,1.33-0.93,1.67c-2.42,1.6-4.54,2.97-9.29,4.97" transform="matrix(1,0,0,1,896,-4)" class="stroke_order_diagram--existing_path"></path><path id="pathSk2v596cn48tl" kvg:type="㇐" d="M38.31,58.69c1.51,0.59,3.54,0.56,5.09,0.35c6.61-0.91,13.19-1.64,19.48-2.05c1.79-0.12,3.62-0.08,5.39,0.34" transform="matrix(1,0,0,1,896,-4)" class="stroke_order_diagram--existing_path"></path><path id="kvg:08475-s10" kvg:type="㇐" d="M26.26,74.66c2.53,0.65,5.59,0.59,8.15,0.38c8.22-0.67,26.57-2.17,36.6-2.76c3.42-0.2,6.54-0.17,9.91,0.5" transform="matrix(1,0,0,1,896,-4)" class="stroke_order_diagram--current_path"></path><path id="pathSk2v596cn48tn" kvg:type="㇐" d="M26.26,74.66c2.53,0.65,5.59,0.59,8.15,0.38c8.22-0.67,26.57-2.17,36.6-2.76c3.42-0.2,6.54-0.17,9.91,0.5" transform="matrix(1,0,0,1,896,-4)" class="stroke_order_diagram--current_path"></path><circle cx="26.26" cy="74.66" r="8" class="stroke_order_diagram--path_start" transform="matrix(1,0,0,1,896,-4)"></circle><line x1="1050" x2="1050" y1="1" y2="99" class="stroke_order_diagram--guide_line"></line><line x1="1099" x2="1099" y1="1" y2="99" class="stroke_order_diagram--bounding_box"></line><path id="pathSk2v596cn48tq" kvg:type="㇐" d="M20.5,23.7c2.92,0.68,5.69,0.64,8.64,0.29c14.99-1.75,36.05-2.91,49.75-3.33c3.29-0.1,6.36-0.02,9.62,0.44" transform="matrix(1,0,0,1,996,-4)" class="stroke_order_diagram--existing_path"></path><path id="pathSk2v596cn48tr" kvg:type="㇑a" d="M38.38,12.25c1.12,0.88,1.46,1.74,1.6,2.45c1.29,6.6,2.4,12.9,2.77,15.3" transform="matrix(1,0,0,1,996,-4)" class="stroke_order_diagram--existing_path"></path><path id="pathSk2v596cn48ts" kvg:type="㇑a" d="M67.39,10.25c0.48,1,0.48,1.97,0.22,3.17c-1.24,5.83-2.12,10.7-3.64,16.33" transform="matrix(1,0,0,1,996,-4)" class="stroke_order_diagram--existing_path"></path><path id="pathSk2v596cn48tt" kvg:type="㇇" d="M28.48,38.17c1.32,0.5,2.59,0.56,4.7,0.17c5.19-0.96,7.19-1.34,11.91-2.58c3.42-0.9,4.21,0.68,3.09,3.37c-2.64,6.32-16.53,24.16-33.88,29.9" transform="matrix(1,0,0,1,996,-4)" class="stroke_order_diagram--existing_path"></path><path id="pathSk2v596cn48tu" kvg:type="㇔" d="M24.56,45.46c2.84,1.36,7.33,5.58,8.04,7.69" transform="matrix(1,0,0,1,996,-4)" class="stroke_order_diagram--existing_path"></path><path id="pathSk2v596cn48tv" kvg:type="㇒" d="M72.53,34.14c0.06,0.53-0.3,1.28-0.67,1.68c-1.99,2.17-3.37,3.05-7.82,5.81" transform="matrix(1,0,0,1,996,-4)" class="stroke_order_diagram--existing_path"></path><path id="pathSk2v596cn48tw" kvg:type="㇏" d="M54.19,36.45c2.22,1.3,18.64,15.07,27.48,21.91c2.66,2.06,5.86,3.47,8.78,5.1" transform="matrix(1,0,0,1,996,-4)" class="stroke_order_diagram--existing_path"></path><path id="pathSk2v596cn48tx" kvg:type="㇒" d="M84.98,42.23c0,0.77-0.41,1.33-0.93,1.67c-2.42,1.6-4.54,2.97-9.29,4.97" transform="matrix(1,0,0,1,996,-4)" class="stroke_order_diagram--existing_path"></path><path id="pathSk2v596cn48ty" kvg:type="㇐" d="M38.31,58.69c1.51,0.59,3.54,0.56,5.09,0.35c6.61-0.91,13.19-1.64,19.48-2.05c1.79-0.12,3.62-0.08,5.39,0.34" transform="matrix(1,0,0,1,996,-4)" class="stroke_order_diagram--existing_path"></path><path id="pathSk2v596cn48tz" kvg:type="㇐" d="M26.26,74.66c2.53,0.65,5.59,0.59,8.15,0.38c8.22-0.67,26.57-2.17,36.6-2.76c3.42-0.2,6.54-0.17,9.91,0.5" transform="matrix(1,0,0,1,996,-4)" class="stroke_order_diagram--existing_path"></path><path id="kvg:08475-s11" kvg:type="㇒" d="M52.2,61.12c0.55,0.61,1.06,2.1,1.05,3.28C53.12,83.12,41.5,94.38,24.57,99.75" transform="matrix(1,0,0,1,996,-4)" class="stroke_order_diagram--current_path"></path><path id="pathSk2v596cn48u1" kvg:type="㇒" d="M52.2,61.12c0.55,0.61,1.06,2.1,1.05,3.28C53.12,83.12,41.5,94.38,24.57,99.75" transform="matrix(1,0,0,1,996,-4)" class="stroke_order_diagram--current_path"></path><circle cx="52.2" cy="61.12" r="8" class="stroke_order_diagram--path_start" transform="matrix(1,0,0,1,996,-4)"></circle><line x1="1150" x2="1150" y1="1" y2="99" class="stroke_order_diagram--guide_line"></line><line x1="1199" x2="1199" y1="1" y2="99" class="stroke_order_diagram--bounding_box"></line><path id="pathSk2v596cn48u4" kvg:type="㇐" d="M20.5,23.7c2.92,0.68,5.69,0.64,8.64,0.29c14.99-1.75,36.05-2.91,49.75-3.33c3.29-0.1,6.36-0.02,9.62,0.44" transform="matrix(1,0,0,1,1096,-4)" class="stroke_order_diagram--existing_path"></path><path id="pathSk2v596cn48u5" kvg:type="㇑a" d="M38.38,12.25c1.12,0.88,1.46,1.74,1.6,2.45c1.29,6.6,2.4,12.9,2.77,15.3" transform="matrix(1,0,0,1,1096,-4)" class="stroke_order_diagram--existing_path"></path><path id="pathSk2v596cn48u6" kvg:type="㇑a" d="M67.39,10.25c0.48,1,0.48,1.97,0.22,3.17c-1.24,5.83-2.12,10.7-3.64,16.33" transform="matrix(1,0,0,1,1096,-4)" class="stroke_order_diagram--existing_path"></path><path id="pathSk2v596cn48u7" kvg:type="㇇" d="M28.48,38.17c1.32,0.5,2.59,0.56,4.7,0.17c5.19-0.96,7.19-1.34,11.91-2.58c3.42-0.9,4.21,0.68,3.09,3.37c-2.64,6.32-16.53,24.16-33.88,29.9" transform="matrix(1,0,0,1,1096,-4)" class="stroke_order_diagram--existing_path"></path><path id="pathSk2v596cn48u8" kvg:type="㇔" d="M24.56,45.46c2.84,1.36,7.33,5.58,8.04,7.69" transform="matrix(1,0,0,1,1096,-4)" class="stroke_order_diagram--existing_path"></path><path id="pathSk2v596cn48u9" kvg:type="㇒" d="M72.53,34.14c0.06,0.53-0.3,1.28-0.67,1.68c-1.99,2.17-3.37,3.05-7.82,5.81" transform="matrix(1,0,0,1,1096,-4)" class="stroke_order_diagram--existing_path"></path><path id="pathSk2v596cn48ua" kvg:type="㇏" d="M54.19,36.45c2.22,1.3,18.64,15.07,27.48,21.91c2.66,2.06,5.86,3.47,8.78,5.1" transform="matrix(1,0,0,1,1096,-4)" class="stroke_order_diagram--existing_path"></path><path id="pathSk2v596cn48ub" kvg:type="㇒" d="M84.98,42.23c0,0.77-0.41,1.33-0.93,1.67c-2.42,1.6-4.54,2.97-9.29,4.97" transform="matrix(1,0,0,1,1096,-4)" class="stroke_order_diagram--existing_path"></path><path id="pathSk2v596cn48uc" kvg:type="㇐" d="M38.31,58.69c1.51,0.59,3.54,0.56,5.09,0.35c6.61-0.91,13.19-1.64,19.48-2.05c1.79-0.12,3.62-0.08,5.39,0.34" transform="matrix(1,0,0,1,1096,-4)" class="stroke_order_diagram--existing_path"></path><path id="pathSk2v596cn48ud" kvg:type="㇐" d="M26.26,74.66c2.53,0.65,5.59,0.59,8.15,0.38c8.22-0.67,26.57-2.17,36.6-2.76c3.42-0.2,6.54-0.17,9.91,0.5" transform="matrix(1,0,0,1,1096,-4)" class="stroke_order_diagram--existing_path"></path><path id="pathSk2v596cn48ue" kvg:type="㇒" d="M52.2,61.12c0.55,0.61,1.06,2.1,1.05,3.28C53.12,83.12,41.5,94.38,24.57,99.75" transform="matrix(1,0,0,1,1096,-4)" class="stroke_order_diagram--existing_path"></path><path id="kvg:08475-s12" kvg:type="㇏" d="M52.63,74.16c6.7,5.74,21.22,19.27,27.91,23.11c2.28,1.31,3.07,1.5,4.11,1.62" transform="matrix(1,0,0,1,1096,-4)" class="stroke_order_diagram--current_path"></path><path id="pathSk2v596cn48ug" kvg:type="㇏" d="M52.63,74.16c6.7,5.74,21.22,19.27,27.91,23.11c2.28,1.31,3.07,1.5,4.11,1.62" transform="matrix(1,0,0,1,1096,-4)" class="stroke_order_diagram--current_path"></path><circle cx="52.63" cy="74.16" r="8" class="stroke_order_diagram--path_start" transform="matrix(1,0,0,1,1096,-4)"></circle></svg>