<svg style="width: 1100px; height: 100px;" viewbox="0 0 1100 100"><style>
.stroke_order_diagram--outer_container {
  width: 100%;
  overflow-x: auto;
  overflow-y: hidden;
}

.stroke_order_diagram--guide_line {
  fill: none;
  stroke: #ddd;
  stroke-width: 3;
  stroke-linecap: square;
  stroke-linejoin: square;
  stroke-dasharray:8, 8;
}

.stroke_order_diagram--bounding_box {
  fill: none;
  stroke: #ddd;
  stroke-width: 4;
  stroke-linecap: square;
  stroke-linejoin: square;
}

.stroke_order_diagram--current_path {
  fill: none;
  stroke: #000;
  stroke-width: 6;
  stroke-linecap: round;
  stroke-linejoin: round;
}

.stroke_order_diagram--existing_path {
  fill: none;
  stroke: #aaa;
  stroke-width: 6;
  stroke-linecap: round;
  stroke-linejoin:round;
}

.stroke_order_diagram--path_start {
  fill: rgba(255, 0, 0, 0.7);
  stroke:none
}</style><desc>Created with Snap</desc><defs></defs><line x1="1" x2="1099" y1="1" y2="1" class="stroke_order_diagram--bounding_box"></line><line x1="1" x2="1" y1="1" y2="99" class="stroke_order_diagram--bounding_box"></line><line x1="1" x2="1099" y1="99" y2="99" class="stroke_order_diagram--bounding_box"></line><line x1="0" x2="1100" y1="50" y2="50" class="stroke_order_diagram--guide_line"></line><line x1="50" x2="50" y1="1" y2="99" class="stroke_order_diagram--guide_line"></line><line x1="99" x2="99" y1="1" y2="99" class="stroke_order_diagram--bounding_box"></line><path id="kvg:0888b-s1" kvg:type="㇒" d="M36.72,13.21c0.21,1.35-0.06,3.11-0.72,4.26c-4.23,7.35-8.05,13.92-17.75,22.87" transform="matrix(1,0,0,1,-4,-4)" class="stroke_order_diagram--current_path"></path><path id="pathSk2v596cn3716" kvg:type="㇒" d="M36.72,13.21c0.21,1.35-0.06,3.11-0.72,4.26c-4.23,7.35-8.05,13.92-17.75,22.87" transform="matrix(1,0,0,1,-4,-4)" class="stroke_order_diagram--current_path"></path><circle cx="36.72" cy="13.21" r="8" class="stroke_order_diagram--path_start" transform="matrix(1,0,0,1,-4,-4)"></circle><line x1="150" x2="150" y1="1" y2="99" class="stroke_order_diagram--guide_line"></line><line x1="199" x2="199" y1="1" y2="99" class="stroke_order_diagram--bounding_box"></line><path id="pathSk2v596cn3719" kvg:type="㇒" d="M36.72,13.21c0.21,1.35-0.06,3.11-0.72,4.26c-4.23,7.35-8.05,13.92-17.75,22.87" transform="matrix(1,0,0,1,96,-4)" class="stroke_order_diagram--existing_path"></path><path id="kvg:0888b-s2" kvg:type="㇑" d="M30.22,29.33c0.85,0.85,1.31,2.05,1.31,3.22c0,6.48,0.02,12.12,0.03,17.45c0,1.83,0.01,3.51,0.01,4.97" transform="matrix(1,0,0,1,96,-4)" class="stroke_order_diagram--current_path"></path><path id="pathSk2v596cn371b" kvg:type="㇑" d="M30.22,29.33c0.85,0.85,1.31,2.05,1.31,3.22c0,6.48,0.02,12.12,0.03,17.45c0,1.83,0.01,3.51,0.01,4.97" transform="matrix(1,0,0,1,96,-4)" class="stroke_order_diagram--current_path"></path><circle cx="30.22" cy="29.33" r="8" class="stroke_order_diagram--path_start" transform="matrix(1,0,0,1,96,-4)"></circle><line x1="250" x2="250" y1="1" y2="99" class="stroke_order_diagram--guide_line"></line><line x1="299" x2="299" y1="1" y2="99" class="stroke_order_diagram--bounding_box"></line><path id="pathSk2v596cn371e" kvg:type="㇒" d="M36.72,13.21c0.21,1.35-0.06,3.11-0.72,4.26c-4.23,7.35-8.05,13.92-17.75,22.87" transform="matrix(1,0,0,1,196,-4)" class="stroke_order_diagram--existing_path"></path><path id="pathSk2v596cn371f" kvg:type="㇑" d="M30.22,29.33c0.85,0.85,1.31,2.05,1.31,3.22c0,6.48,0.02,12.12,0.03,17.45c0,1.83,0.01,3.51,0.01,4.97" transform="matrix(1,0,0,1,196,-4)" class="stroke_order_diagram--existing_path"></path><path id="kvg:0888b-s3" kvg:type="㇐" d="M44.41,29.48c2.16,0.52,4.93,0.41,7.11-0.1c6.98-1.63,16.8-3.66,25.24-4.96c2.31-0.35,4.72-0.6,7.04-0.15" transform="matrix(1,0,0,1,196,-4)" class="stroke_order_diagram--current_path"></path><path id="pathSk2v596cn371h" kvg:type="㇐" d="M44.41,29.48c2.16,0.52,4.93,0.41,7.11-0.1c6.98-1.63,16.8-3.66,25.24-4.96c2.31-0.35,4.72-0.6,7.04-0.15" transform="matrix(1,0,0,1,196,-4)" class="stroke_order_diagram--current_path"></path><circle cx="44.41" cy="29.48" r="8" class="stroke_order_diagram--path_start" transform="matrix(1,0,0,1,196,-4)"></circle><line x1="350" x2="350" y1="1" y2="99" class="stroke_order_diagram--guide_line"></line><line x1="399" x2="399" y1="1" y2="99" class="stroke_order_diagram--bounding_box"></line><path id="pathSk2v596cn371k" kvg:type="㇒" d="M36.72,13.21c0.21,1.35-0.06,3.11-0.72,4.26c-4.23,7.35-8.05,13.92-17.75,22.87" transform="matrix(1,0,0,1,296,-4)" class="stroke_order_diagram--existing_path"></path><path id="pathSk2v596cn371l" kvg:type="㇑" d="M30.22,29.33c0.85,0.85,1.31,2.05,1.31,3.22c0,6.48,0.02,12.12,0.03,17.45c0,1.83,0.01,3.51,0.01,4.97" transform="matrix(1,0,0,1,296,-4)" class="stroke_order_diagram--existing_path"></path><path id="pathSk2v596cn371m" kvg:type="㇐" d="M44.41,29.48c2.16,0.52,4.93,0.41,7.11-0.1c6.98-1.63,16.8-3.66,25.24-4.96c2.31-0.35,4.72-0.6,7.04-0.15" transform="matrix(1,0,0,1,296,-4)" class="stroke_order_diagram--existing_path"></path><path id="kvg:0888b-s4" kvg:type="㇂" d="M55.08,10.54c1.62,0.88,2.45,2.23,3.13,4C63.62,28.75,69.5,40,86.75,50.09c5.67,3.32,5.45,0.38,4.65-3.5" transform="matrix(1,0,0,1,296,-4)" class="stroke_order_diagram--current_path"></path><path id="pathSk2v596cn371o" kvg:type="㇂" d="M55.08,10.54c1.62,0.88,2.45,2.23,3.13,4C63.62,28.75,69.5,40,86.75,50.09c5.67,3.32,5.45,0.38,4.65-3.5" transform="matrix(1,0,0,1,296,-4)" class="stroke_order_diagram--current_path"></path><circle cx="55.08" cy="10.54" r="8" class="stroke_order_diagram--path_start" transform="matrix(1,0,0,1,296,-4)"></circle><line x1="450" x2="450" y1="1" y2="99" class="stroke_order_diagram--guide_line"></line><line x1="499" x2="499" y1="1" y2="99" class="stroke_order_diagram--bounding_box"></line><path id="pathSk2v596cn371r" kvg:type="㇒" d="M36.72,13.21c0.21,1.35-0.06,3.11-0.72,4.26c-4.23,7.35-8.05,13.92-17.75,22.87" transform="matrix(1,0,0,1,396,-4)" class="stroke_order_diagram--existing_path"></path><path id="pathSk2v596cn371s" kvg:type="㇑" d="M30.22,29.33c0.85,0.85,1.31,2.05,1.31,3.22c0,6.48,0.02,12.12,0.03,17.45c0,1.83,0.01,3.51,0.01,4.97" transform="matrix(1,0,0,1,396,-4)" class="stroke_order_diagram--existing_path"></path><path id="pathSk2v596cn371t" kvg:type="㇐" d="M44.41,29.48c2.16,0.52,4.93,0.41,7.11-0.1c6.98-1.63,16.8-3.66,25.24-4.96c2.31-0.35,4.72-0.6,7.04-0.15" transform="matrix(1,0,0,1,396,-4)" class="stroke_order_diagram--existing_path"></path><path id="pathSk2v596cn371u" kvg:type="㇂" d="M55.08,10.54c1.62,0.88,2.45,2.23,3.13,4C63.62,28.75,69.5,40,86.75,50.09c5.67,3.32,5.45,0.38,4.65-3.5" transform="matrix(1,0,0,1,396,-4)" class="stroke_order_diagram--existing_path"></path><path id="kvg:0888b-s5" kvg:type="㇔" d="M78.6,11.46c2.99,1.19,7.77,3.93,9.17,5.97" transform="matrix(1,0,0,1,396,-4)" class="stroke_order_diagram--current_path"></path><path id="pathSk2v596cn371w" kvg:type="㇔" d="M78.6,11.46c2.99,1.19,7.77,3.93,9.17,5.97" transform="matrix(1,0,0,1,396,-4)" class="stroke_order_diagram--current_path"></path><circle cx="78.6" cy="11.46" r="8" class="stroke_order_diagram--path_start" transform="matrix(1,0,0,1,396,-4)"></circle><line x1="550" x2="550" y1="1" y2="99" class="stroke_order_diagram--guide_line"></line><line x1="599" x2="599" y1="1" y2="99" class="stroke_order_diagram--bounding_box"></line><path id="pathSk2v596cn371z" kvg:type="㇒" d="M36.72,13.21c0.21,1.35-0.06,3.11-0.72,4.26c-4.23,7.35-8.05,13.92-17.75,22.87" transform="matrix(1,0,0,1,496,-4)" class="stroke_order_diagram--existing_path"></path><path id="pathSk2v596cn3720" kvg:type="㇑" d="M30.22,29.33c0.85,0.85,1.31,2.05,1.31,3.22c0,6.48,0.02,12.12,0.03,17.45c0,1.83,0.01,3.51,0.01,4.97" transform="matrix(1,0,0,1,496,-4)" class="stroke_order_diagram--existing_path"></path><path id="pathSk2v596cn3721" kvg:type="㇐" d="M44.41,29.48c2.16,0.52,4.93,0.41,7.11-0.1c6.98-1.63,16.8-3.66,25.24-4.96c2.31-0.35,4.72-0.6,7.04-0.15" transform="matrix(1,0,0,1,496,-4)" class="stroke_order_diagram--existing_path"></path><path id="pathSk2v596cn3722" kvg:type="㇂" d="M55.08,10.54c1.62,0.88,2.45,2.23,3.13,4C63.62,28.75,69.5,40,86.75,50.09c5.67,3.32,5.45,0.38,4.65-3.5" transform="matrix(1,0,0,1,496,-4)" class="stroke_order_diagram--existing_path"></path><path id="pathSk2v596cn3723" kvg:type="㇔" d="M78.6,11.46c2.99,1.19,7.77,3.93,9.17,5.97" transform="matrix(1,0,0,1,496,-4)" class="stroke_order_diagram--existing_path"></path><path id="kvg:0888b-s6" kvg:type="㇑a" d="M53,48.45c1.15,1.15,1.5,2.67,1.5,3.68c0,1.88,0,3.22,0,5.75" transform="matrix(1,0,0,1,496,-4)" class="stroke_order_diagram--current_path"></path><path id="pathSk2v596cn3725" kvg:type="㇑a" d="M53,48.45c1.15,1.15,1.5,2.67,1.5,3.68c0,1.88,0,3.22,0,5.75" transform="matrix(1,0,0,1,496,-4)" class="stroke_order_diagram--current_path"></path><circle cx="53" cy="48.45" r="8" class="stroke_order_diagram--path_start" transform="matrix(1,0,0,1,496,-4)"></circle><line x1="650" x2="650" y1="1" y2="99" class="stroke_order_diagram--guide_line"></line><line x1="699" x2="699" y1="1" y2="99" class="stroke_order_diagram--bounding_box"></line><path id="pathSk2v596cn3728" kvg:type="㇒" d="M36.72,13.21c0.21,1.35-0.06,3.11-0.72,4.26c-4.23,7.35-8.05,13.92-17.75,22.87" transform="matrix(1,0,0,1,596,-4)" class="stroke_order_diagram--existing_path"></path><path id="pathSk2v596cn3729" kvg:type="㇑" d="M30.22,29.33c0.85,0.85,1.31,2.05,1.31,3.22c0,6.48,0.02,12.12,0.03,17.45c0,1.83,0.01,3.51,0.01,4.97" transform="matrix(1,0,0,1,596,-4)" class="stroke_order_diagram--existing_path"></path><path id="pathSk2v596cn372a" kvg:type="㇐" d="M44.41,29.48c2.16,0.52,4.93,0.41,7.11-0.1c6.98-1.63,16.8-3.66,25.24-4.96c2.31-0.35,4.72-0.6,7.04-0.15" transform="matrix(1,0,0,1,596,-4)" class="stroke_order_diagram--existing_path"></path><path id="pathSk2v596cn372b" kvg:type="㇂" d="M55.08,10.54c1.62,0.88,2.45,2.23,3.13,4C63.62,28.75,69.5,40,86.75,50.09c5.67,3.32,5.45,0.38,4.65-3.5" transform="matrix(1,0,0,1,596,-4)" class="stroke_order_diagram--existing_path"></path><path id="pathSk2v596cn372c" kvg:type="㇔" d="M78.6,11.46c2.99,1.19,7.77,3.93,9.17,5.97" transform="matrix(1,0,0,1,596,-4)" class="stroke_order_diagram--existing_path"></path><path id="pathSk2v596cn372d" kvg:type="㇑a" d="M53,48.45c1.15,1.15,1.5,2.67,1.5,3.68c0,1.88,0,3.22,0,5.75" transform="matrix(1,0,0,1,596,-4)" class="stroke_order_diagram--existing_path"></path><path id="kvg:0888b-s7" kvg:type="㇐" d="M22.75,61.64c3.38,0.61,6.64,0.31,10.13-0.17c13.24-1.84,31.03-3.83,43.98-4.48c2.78-0.14,6.18-0.7,8.89,0.2" transform="matrix(1,0,0,1,596,-4)" class="stroke_order_diagram--current_path"></path><path id="pathSk2v596cn372f" kvg:type="㇐" d="M22.75,61.64c3.38,0.61,6.64,0.31,10.13-0.17c13.24-1.84,31.03-3.83,43.98-4.48c2.78-0.14,6.18-0.7,8.89,0.2" transform="matrix(1,0,0,1,596,-4)" class="stroke_order_diagram--current_path"></path><circle cx="22.75" cy="61.64" r="8" class="stroke_order_diagram--path_start" transform="matrix(1,0,0,1,596,-4)"></circle><line x1="750" x2="750" y1="1" y2="99" class="stroke_order_diagram--guide_line"></line><line x1="799" x2="799" y1="1" y2="99" class="stroke_order_diagram--bounding_box"></line><path id="pathSk2v596cn372i" kvg:type="㇒" d="M36.72,13.21c0.21,1.35-0.06,3.11-0.72,4.26c-4.23,7.35-8.05,13.92-17.75,22.87" transform="matrix(1,0,0,1,696,-4)" class="stroke_order_diagram--existing_path"></path><path id="pathSk2v596cn372j" kvg:type="㇑" d="M30.22,29.33c0.85,0.85,1.31,2.05,1.31,3.22c0,6.48,0.02,12.12,0.03,17.45c0,1.83,0.01,3.51,0.01,4.97" transform="matrix(1,0,0,1,696,-4)" class="stroke_order_diagram--existing_path"></path><path id="pathSk2v596cn372k" kvg:type="㇐" d="M44.41,29.48c2.16,0.52,4.93,0.41,7.11-0.1c6.98-1.63,16.8-3.66,25.24-4.96c2.31-0.35,4.72-0.6,7.04-0.15" transform="matrix(1,0,0,1,696,-4)" class="stroke_order_diagram--existing_path"></path><path id="pathSk2v596cn372l" kvg:type="㇂" d="M55.08,10.54c1.62,0.88,2.45,2.23,3.13,4C63.62,28.75,69.5,40,86.75,50.09c5.67,3.32,5.45,0.38,4.65-3.5" transform="matrix(1,0,0,1,696,-4)" class="stroke_order_diagram--existing_path"></path><path id="pathSk2v596cn372m" kvg:type="㇔" d="M78.6,11.46c2.99,1.19,7.77,3.93,9.17,5.97" transform="matrix(1,0,0,1,696,-4)" class="stroke_order_diagram--existing_path"></path><path id="pathSk2v596cn372n" kvg:type="㇑a" d="M53,48.45c1.15,1.15,1.5,2.67,1.5,3.68c0,1.88,0,3.22,0,5.75" transform="matrix(1,0,0,1,696,-4)" class="stroke_order_diagram--existing_path"></path><path id="pathSk2v596cn372o" kvg:type="㇐" d="M22.75,61.64c3.38,0.61,6.64,0.31,10.13-0.17c13.24-1.84,31.03-3.83,43.98-4.48c2.78-0.14,6.18-0.7,8.89,0.2" transform="matrix(1,0,0,1,696,-4)" class="stroke_order_diagram--existing_path"></path><path id="kvg:0888b-s8" kvg:type="㇒" d="M49.14,60.42c0,1.53-0.8,2.6-1.67,3.76c-4.8,6.44-14.59,17.57-27.92,24.39" transform="matrix(1,0,0,1,696,-4)" class="stroke_order_diagram--current_path"></path><path id="pathSk2v596cn372q" kvg:type="㇒" d="M49.14,60.42c0,1.53-0.8,2.6-1.67,3.76c-4.8,6.44-14.59,17.57-27.92,24.39" transform="matrix(1,0,0,1,696,-4)" class="stroke_order_diagram--current_path"></path><circle cx="49.14" cy="60.42" r="8" class="stroke_order_diagram--path_start" transform="matrix(1,0,0,1,696,-4)"></circle><line x1="850" x2="850" y1="1" y2="99" class="stroke_order_diagram--guide_line"></line><line x1="899" x2="899" y1="1" y2="99" class="stroke_order_diagram--bounding_box"></line><path id="pathSk2v596cn372t" kvg:type="㇒" d="M36.72,13.21c0.21,1.35-0.06,3.11-0.72,4.26c-4.23,7.35-8.05,13.92-17.75,22.87" transform="matrix(1,0,0,1,796,-4)" class="stroke_order_diagram--existing_path"></path><path id="pathSk2v596cn372u" kvg:type="㇑" d="M30.22,29.33c0.85,0.85,1.31,2.05,1.31,3.22c0,6.48,0.02,12.12,0.03,17.45c0,1.83,0.01,3.51,0.01,4.97" transform="matrix(1,0,0,1,796,-4)" class="stroke_order_diagram--existing_path"></path><path id="pathSk2v596cn372v" kvg:type="㇐" d="M44.41,29.48c2.16,0.52,4.93,0.41,7.11-0.1c6.98-1.63,16.8-3.66,25.24-4.96c2.31-0.35,4.72-0.6,7.04-0.15" transform="matrix(1,0,0,1,796,-4)" class="stroke_order_diagram--existing_path"></path><path id="pathSk2v596cn372w" kvg:type="㇂" d="M55.08,10.54c1.62,0.88,2.45,2.23,3.13,4C63.62,28.75,69.5,40,86.75,50.09c5.67,3.32,5.45,0.38,4.65-3.5" transform="matrix(1,0,0,1,796,-4)" class="stroke_order_diagram--existing_path"></path><path id="pathSk2v596cn372x" kvg:type="㇔" d="M78.6,11.46c2.99,1.19,7.77,3.93,9.17,5.97" transform="matrix(1,0,0,1,796,-4)" class="stroke_order_diagram--existing_path"></path><path id="pathSk2v596cn372y" kvg:type="㇑a" d="M53,48.45c1.15,1.15,1.5,2.67,1.5,3.68c0,1.88,0,3.22,0,5.75" transform="matrix(1,0,0,1,796,-4)" class="stroke_order_diagram--existing_path"></path><path id="pathSk2v596cn372z" kvg:type="㇐" d="M22.75,61.64c3.38,0.61,6.64,0.31,10.13-0.17c13.24-1.84,31.03-3.83,43.98-4.48c2.78-0.14,6.18-0.7,8.89,0.2" transform="matrix(1,0,0,1,796,-4)" class="stroke_order_diagram--existing_path"></path><path id="pathSk2v596cn3730" kvg:type="㇒" d="M49.14,60.42c0,1.53-0.8,2.6-1.67,3.76c-4.8,6.44-14.59,17.57-27.92,24.39" transform="matrix(1,0,0,1,796,-4)" class="stroke_order_diagram--existing_path"></path><path id="kvg:0888b-s9" kvg:type="㇙" d="M40.62,77.2c0.84,0.84,0.95,1.88,0.94,2.66c-0.03,9.84-0.06,15.29-0.06,16.95s1.12,2.61,2.53,1.36c1.42-1.25,13.05-9.36,14.94-10.61" transform="matrix(1,0,0,1,796,-4)" class="stroke_order_diagram--current_path"></path><path id="pathSk2v596cn3732" kvg:type="㇙" d="M40.62,77.2c0.84,0.84,0.95,1.88,0.94,2.66c-0.03,9.84-0.06,15.29-0.06,16.95s1.12,2.61,2.53,1.36c1.42-1.25,13.05-9.36,14.94-10.61" transform="matrix(1,0,0,1,796,-4)" class="stroke_order_diagram--current_path"></path><circle cx="40.62" cy="77.2" r="8" class="stroke_order_diagram--path_start" transform="matrix(1,0,0,1,796,-4)"></circle><line x1="950" x2="950" y1="1" y2="99" class="stroke_order_diagram--guide_line"></line><line x1="999" x2="999" y1="1" y2="99" class="stroke_order_diagram--bounding_box"></line><path id="pathSk2v596cn3735" kvg:type="㇒" d="M36.72,13.21c0.21,1.35-0.06,3.11-0.72,4.26c-4.23,7.35-8.05,13.92-17.75,22.87" transform="matrix(1,0,0,1,896,-4)" class="stroke_order_diagram--existing_path"></path><path id="pathSk2v596cn3736" kvg:type="㇑" d="M30.22,29.33c0.85,0.85,1.31,2.05,1.31,3.22c0,6.48,0.02,12.12,0.03,17.45c0,1.83,0.01,3.51,0.01,4.97" transform="matrix(1,0,0,1,896,-4)" class="stroke_order_diagram--existing_path"></path><path id="pathSk2v596cn3737" kvg:type="㇐" d="M44.41,29.48c2.16,0.52,4.93,0.41,7.11-0.1c6.98-1.63,16.8-3.66,25.24-4.96c2.31-0.35,4.72-0.6,7.04-0.15" transform="matrix(1,0,0,1,896,-4)" class="stroke_order_diagram--existing_path"></path><path id="pathSk2v596cn3738" kvg:type="㇂" d="M55.08,10.54c1.62,0.88,2.45,2.23,3.13,4C63.62,28.75,69.5,40,86.75,50.09c5.67,3.32,5.45,0.38,4.65-3.5" transform="matrix(1,0,0,1,896,-4)" class="stroke_order_diagram--existing_path"></path><path id="pathSk2v596cn3739" kvg:type="㇔" d="M78.6,11.46c2.99,1.19,7.77,3.93,9.17,5.97" transform="matrix(1,0,0,1,896,-4)" class="stroke_order_diagram--existing_path"></path><path id="pathSk2v596cn373a" kvg:type="㇑a" d="M53,48.45c1.15,1.15,1.5,2.67,1.5,3.68c0,1.88,0,3.22,0,5.75" transform="matrix(1,0,0,1,896,-4)" class="stroke_order_diagram--existing_path"></path><path id="pathSk2v596cn373b" kvg:type="㇐" d="M22.75,61.64c3.38,0.61,6.64,0.31,10.13-0.17c13.24-1.84,31.03-3.83,43.98-4.48c2.78-0.14,6.18-0.7,8.89,0.2" transform="matrix(1,0,0,1,896,-4)" class="stroke_order_diagram--existing_path"></path><path id="pathSk2v596cn373c" kvg:type="㇒" d="M49.14,60.42c0,1.53-0.8,2.6-1.67,3.76c-4.8,6.44-14.59,17.57-27.92,24.39" transform="matrix(1,0,0,1,896,-4)" class="stroke_order_diagram--existing_path"></path><path id="pathSk2v596cn373d" kvg:type="㇙" d="M40.62,77.2c0.84,0.84,0.95,1.88,0.94,2.66c-0.03,9.84-0.06,15.29-0.06,16.95s1.12,2.61,2.53,1.36c1.42-1.25,13.05-9.36,14.94-10.61" transform="matrix(1,0,0,1,896,-4)" class="stroke_order_diagram--existing_path"></path><path id="kvg:0888b-s10" kvg:type="㇒" d="M73.86,63.96c0.03,0.24-0.15,1.17-0.34,1.48c-1.18,1.99-4.87,4.84-10.89,8.81" transform="matrix(1,0,0,1,896,-4)" class="stroke_order_diagram--current_path"></path><path id="pathSk2v596cn373f" kvg:type="㇒" d="M73.86,63.96c0.03,0.24-0.15,1.17-0.34,1.48c-1.18,1.99-4.87,4.84-10.89,8.81" transform="matrix(1,0,0,1,896,-4)" class="stroke_order_diagram--current_path"></path><circle cx="73.86" cy="63.96" r="8" class="stroke_order_diagram--path_start" transform="matrix(1,0,0,1,896,-4)"></circle><line x1="1050" x2="1050" y1="1" y2="99" class="stroke_order_diagram--guide_line"></line><line x1="1099" x2="1099" y1="1" y2="99" class="stroke_order_diagram--bounding_box"></line><path id="pathSk2v596cn373i" kvg:type="㇒" d="M36.72,13.21c0.21,1.35-0.06,3.11-0.72,4.26c-4.23,7.35-8.05,13.92-17.75,22.87" transform="matrix(1,0,0,1,996,-4)" class="stroke_order_diagram--existing_path"></path><path id="pathSk2v596cn373j" kvg:type="㇑" d="M30.22,29.33c0.85,0.85,1.31,2.05,1.31,3.22c0,6.48,0.02,12.12,0.03,17.45c0,1.83,0.01,3.51,0.01,4.97" transform="matrix(1,0,0,1,996,-4)" class="stroke_order_diagram--existing_path"></path><path id="pathSk2v596cn373k" kvg:type="㇐" d="M44.41,29.48c2.16,0.52,4.93,0.41,7.11-0.1c6.98-1.63,16.8-3.66,25.24-4.96c2.31-0.35,4.72-0.6,7.04-0.15" transform="matrix(1,0,0,1,996,-4)" class="stroke_order_diagram--existing_path"></path><path id="pathSk2v596cn373l" kvg:type="㇂" d="M55.08,10.54c1.62,0.88,2.45,2.23,3.13,4C63.62,28.75,69.5,40,86.75,50.09c5.67,3.32,5.45,0.38,4.65-3.5" transform="matrix(1,0,0,1,996,-4)" class="stroke_order_diagram--existing_path"></path><path id="pathSk2v596cn373m" kvg:type="㇔" d="M78.6,11.46c2.99,1.19,7.77,3.93,9.17,5.97" transform="matrix(1,0,0,1,996,-4)" class="stroke_order_diagram--existing_path"></path><path id="pathSk2v596cn373n" kvg:type="㇑a" d="M53,48.45c1.15,1.15,1.5,2.67,1.5,3.68c0,1.88,0,3.22,0,5.75" transform="matrix(1,0,0,1,996,-4)" class="stroke_order_diagram--existing_path"></path><path id="pathSk2v596cn373o" kvg:type="㇐" d="M22.75,61.64c3.38,0.61,6.64,0.31,10.13-0.17c13.24-1.84,31.03-3.83,43.98-4.48c2.78-0.14,6.18-0.7,8.89,0.2" transform="matrix(1,0,0,1,996,-4)" class="stroke_order_diagram--existing_path"></path><path id="pathSk2v596cn373p" kvg:type="㇒" d="M49.14,60.42c0,1.53-0.8,2.6-1.67,3.76c-4.8,6.44-14.59,17.57-27.92,24.39" transform="matrix(1,0,0,1,996,-4)" class="stroke_order_diagram--existing_path"></path><path id="pathSk2v596cn373q" kvg:type="㇙" d="M40.62,77.2c0.84,0.84,0.95,1.88,0.94,2.66c-0.03,9.84-0.06,15.29-0.06,16.95s1.12,2.61,2.53,1.36c1.42-1.25,13.05-9.36,14.94-10.61" transform="matrix(1,0,0,1,996,-4)" class="stroke_order_diagram--existing_path"></path><path id="pathSk2v596cn373r" kvg:type="㇒" d="M73.86,63.96c0.03,0.24-0.15,1.17-0.34,1.48c-1.18,1.99-4.87,4.84-10.89,8.81" transform="matrix(1,0,0,1,996,-4)" class="stroke_order_diagram--existing_path"></path><path id="kvg:0888b-s11" kvg:type="㇏" d="M48.51,67.91c2.86,0.72,21.75,15.27,31.81,21.86c3.15,2.06,6.93,4.23,9.93,5.15" transform="matrix(1,0,0,1,996,-4)" class="stroke_order_diagram--current_path"></path><path id="pathSk2v596cn373t" kvg:type="㇏" d="M48.51,67.91c2.86,0.72,21.75,15.27,31.81,21.86c3.15,2.06,6.93,4.23,9.93,5.15" transform="matrix(1,0,0,1,996,-4)" class="stroke_order_diagram--current_path"></path><circle cx="48.51" cy="67.91" r="8" class="stroke_order_diagram--path_start" transform="matrix(1,0,0,1,996,-4)"></circle></svg>