<svg style="width: 1200px; height: 100px;" viewbox="0 0 1200 100"><style>
.stroke_order_diagram--outer_container {
  width: 100%;
  overflow-x: auto;
  overflow-y: hidden;
}

.stroke_order_diagram--guide_line {
  fill: none;
  stroke: #ddd;
  stroke-width: 3;
  stroke-linecap: square;
  stroke-linejoin: square;
  stroke-dasharray:8, 8;
}

.stroke_order_diagram--bounding_box {
  fill: none;
  stroke: #ddd;
  stroke-width: 4;
  stroke-linecap: square;
  stroke-linejoin: square;
}

.stroke_order_diagram--current_path {
  fill: none;
  stroke: #000;
  stroke-width: 6;
  stroke-linecap: round;
  stroke-linejoin: round;
}

.stroke_order_diagram--existing_path {
  fill: none;
  stroke: #aaa;
  stroke-width: 6;
  stroke-linecap: round;
  stroke-linejoin:round;
}

.stroke_order_diagram--path_start {
  fill: rgba(255, 0, 0, 0.7);
  stroke:none
}</style><desc>Created with Snap</desc><defs></defs><line x1="1" x2="1199" y1="1" y2="1" class="stroke_order_diagram--bounding_box"></line><line x1="1" x2="1" y1="1" y2="99" class="stroke_order_diagram--bounding_box"></line><line x1="1" x2="1199" y1="99" y2="99" class="stroke_order_diagram--bounding_box"></line><line x1="0" x2="1200" y1="50" y2="50" class="stroke_order_diagram--guide_line"></line><line x1="50" x2="50" y1="1" y2="99" class="stroke_order_diagram--guide_line"></line><line x1="99" x2="99" y1="1" y2="99" class="stroke_order_diagram--bounding_box"></line><path id="kvg:088c1-s1" kvg:type="㇐" d="M23.63,25.63c1.68,0.45,3.54,0.3,5.24,0.16c6.57-0.5,14.34-1.94,20.32-2.48c1.62-0.14,2.87-0.12,3.68,0.01" transform="matrix(1,0,0,1,-4,-4)" class="stroke_order_diagram--current_path"></path><path id="pathSk2v596cn1iz2" kvg:type="㇐" d="M23.63,25.63c1.68,0.45,3.54,0.3,5.24,0.16c6.57-0.5,14.34-1.94,20.32-2.48c1.62-0.14,2.87-0.12,3.68,0.01" transform="matrix(1,0,0,1,-4,-4)" class="stroke_order_diagram--current_path"></path><circle cx="23.63" cy="25.63" r="8" class="stroke_order_diagram--path_start" transform="matrix(1,0,0,1,-4,-4)"></circle><line x1="150" x2="150" y1="1" y2="99" class="stroke_order_diagram--guide_line"></line><line x1="199" x2="199" y1="1" y2="99" class="stroke_order_diagram--bounding_box"></line><path id="pathSk2v596cn1iz5" kvg:type="㇐" d="M23.63,25.63c1.68,0.45,3.54,0.3,5.24,0.16c6.57-0.5,14.34-1.94,20.32-2.48c1.62-0.14,2.87-0.12,3.68,0.01" transform="matrix(1,0,0,1,96,-4)" class="stroke_order_diagram--existing_path"></path><path id="kvg:088c1-s2" kvg:type="㇑a" d="M39.42,12.87c0.67,0.67,1.27,2.13,1.27,3.64c0,3.5,0.14,16.5,0.14,21.36" transform="matrix(1,0,0,1,96,-4)" class="stroke_order_diagram--current_path"></path><path id="pathSk2v596cn1iz7" kvg:type="㇑a" d="M39.42,12.87c0.67,0.67,1.27,2.13,1.27,3.64c0,3.5,0.14,16.5,0.14,21.36" transform="matrix(1,0,0,1,96,-4)" class="stroke_order_diagram--current_path"></path><circle cx="39.42" cy="12.87" r="8" class="stroke_order_diagram--path_start" transform="matrix(1,0,0,1,96,-4)"></circle><line x1="250" x2="250" y1="1" y2="99" class="stroke_order_diagram--guide_line"></line><line x1="299" x2="299" y1="1" y2="99" class="stroke_order_diagram--bounding_box"></line><path id="pathSk2v596cn1iza" kvg:type="㇐" d="M23.63,25.63c1.68,0.45,3.54,0.3,5.24,0.16c6.57-0.5,14.34-1.94,20.32-2.48c1.62-0.14,2.87-0.12,3.68,0.01" transform="matrix(1,0,0,1,196,-4)" class="stroke_order_diagram--existing_path"></path><path id="pathSk2v596cn1izb" kvg:type="㇑a" d="M39.42,12.87c0.67,0.67,1.27,2.13,1.27,3.64c0,3.5,0.14,16.5,0.14,21.36" transform="matrix(1,0,0,1,196,-4)" class="stroke_order_diagram--existing_path"></path><path id="kvg:088c1-s3" kvg:type="㇐" d="M13.13,40.73c3.12,1.11,7.15,0.64,10.37,0.23c19.02-2.41,44.54-6.14,60.62-7.21c3.07-0.2,5.99-0.32,9.01,0.33" transform="matrix(1,0,0,1,196,-4)" class="stroke_order_diagram--current_path"></path><path id="pathSk2v596cn1izd" kvg:type="㇐" d="M13.13,40.73c3.12,1.11,7.15,0.64,10.37,0.23c19.02-2.41,44.54-6.14,60.62-7.21c3.07-0.2,5.99-0.32,9.01,0.33" transform="matrix(1,0,0,1,196,-4)" class="stroke_order_diagram--current_path"></path><circle cx="13.13" cy="40.73" r="8" class="stroke_order_diagram--path_start" transform="matrix(1,0,0,1,196,-4)"></circle><line x1="350" x2="350" y1="1" y2="99" class="stroke_order_diagram--guide_line"></line><line x1="399" x2="399" y1="1" y2="99" class="stroke_order_diagram--bounding_box"></line><path id="pathSk2v596cn1izg" kvg:type="㇐" d="M23.63,25.63c1.68,0.45,3.54,0.3,5.24,0.16c6.57-0.5,14.34-1.94,20.32-2.48c1.62-0.14,2.87-0.12,3.68,0.01" transform="matrix(1,0,0,1,296,-4)" class="stroke_order_diagram--existing_path"></path><path id="pathSk2v596cn1izh" kvg:type="㇑a" d="M39.42,12.87c0.67,0.67,1.27,2.13,1.27,3.64c0,3.5,0.14,16.5,0.14,21.36" transform="matrix(1,0,0,1,296,-4)" class="stroke_order_diagram--existing_path"></path><path id="pathSk2v596cn1izi" kvg:type="㇐" d="M13.13,40.73c3.12,1.11,7.15,0.64,10.37,0.23c19.02-2.41,44.54-6.14,60.62-7.21c3.07-0.2,5.99-0.32,9.01,0.33" transform="matrix(1,0,0,1,296,-4)" class="stroke_order_diagram--existing_path"></path><path id="kvg:088c1-s4" kvg:type="㇑a" d="M39.85,44.5c0.7,0.7,1.22,2.12,1.22,3.58c0,2.76-0.11,3.67-0.11,6.28" transform="matrix(1,0,0,1,296,-4)" class="stroke_order_diagram--current_path"></path><path id="pathSk2v596cn1izk" kvg:type="㇑a" d="M39.85,44.5c0.7,0.7,1.22,2.12,1.22,3.58c0,2.76-0.11,3.67-0.11,6.28" transform="matrix(1,0,0,1,296,-4)" class="stroke_order_diagram--current_path"></path><circle cx="39.85" cy="44.5" r="8" class="stroke_order_diagram--path_start" transform="matrix(1,0,0,1,296,-4)"></circle><line x1="450" x2="450" y1="1" y2="99" class="stroke_order_diagram--guide_line"></line><line x1="499" x2="499" y1="1" y2="99" class="stroke_order_diagram--bounding_box"></line><path id="pathSk2v596cn1izn" kvg:type="㇐" d="M23.63,25.63c1.68,0.45,3.54,0.3,5.24,0.16c6.57-0.5,14.34-1.94,20.32-2.48c1.62-0.14,2.87-0.12,3.68,0.01" transform="matrix(1,0,0,1,396,-4)" class="stroke_order_diagram--existing_path"></path><path id="pathSk2v596cn1izo" kvg:type="㇑a" d="M39.42,12.87c0.67,0.67,1.27,2.13,1.27,3.64c0,3.5,0.14,16.5,0.14,21.36" transform="matrix(1,0,0,1,396,-4)" class="stroke_order_diagram--existing_path"></path><path id="pathSk2v596cn1izp" kvg:type="㇐" d="M13.13,40.73c3.12,1.11,7.15,0.64,10.37,0.23c19.02-2.41,44.54-6.14,60.62-7.21c3.07-0.2,5.99-0.32,9.01,0.33" transform="matrix(1,0,0,1,396,-4)" class="stroke_order_diagram--existing_path"></path><path id="pathSk2v596cn1izq" kvg:type="㇑a" d="M39.85,44.5c0.7,0.7,1.22,2.12,1.22,3.58c0,2.76-0.11,3.67-0.11,6.28" transform="matrix(1,0,0,1,396,-4)" class="stroke_order_diagram--existing_path"></path><path id="kvg:088c1-s5" kvg:type="㇐" d="M19,56.97c2.31,0.14,4.56,0.32,6.89,0.1c9.99-0.95,18.74-2.32,27.37-3.39c1.66-0.2,3.27-0.4,4.9,0.1" transform="matrix(1,0,0,1,396,-4)" class="stroke_order_diagram--current_path"></path><path id="pathSk2v596cn1izs" kvg:type="㇐" d="M19,56.97c2.31,0.14,4.56,0.32,6.89,0.1c9.99-0.95,18.74-2.32,27.37-3.39c1.66-0.2,3.27-0.4,4.9,0.1" transform="matrix(1,0,0,1,396,-4)" class="stroke_order_diagram--current_path"></path><circle cx="19" cy="56.97" r="8" class="stroke_order_diagram--path_start" transform="matrix(1,0,0,1,396,-4)"></circle><line x1="550" x2="550" y1="1" y2="99" class="stroke_order_diagram--guide_line"></line><line x1="599" x2="599" y1="1" y2="99" class="stroke_order_diagram--bounding_box"></line><path id="pathSk2v596cn1izv" kvg:type="㇐" d="M23.63,25.63c1.68,0.45,3.54,0.3,5.24,0.16c6.57-0.5,14.34-1.94,20.32-2.48c1.62-0.14,2.87-0.12,3.68,0.01" transform="matrix(1,0,0,1,496,-4)" class="stroke_order_diagram--existing_path"></path><path id="pathSk2v596cn1izw" kvg:type="㇑a" d="M39.42,12.87c0.67,0.67,1.27,2.13,1.27,3.64c0,3.5,0.14,16.5,0.14,21.36" transform="matrix(1,0,0,1,496,-4)" class="stroke_order_diagram--existing_path"></path><path id="pathSk2v596cn1izx" kvg:type="㇐" d="M13.13,40.73c3.12,1.11,7.15,0.64,10.37,0.23c19.02-2.41,44.54-6.14,60.62-7.21c3.07-0.2,5.99-0.32,9.01,0.33" transform="matrix(1,0,0,1,496,-4)" class="stroke_order_diagram--existing_path"></path><path id="pathSk2v596cn1izy" kvg:type="㇑a" d="M39.85,44.5c0.7,0.7,1.22,2.12,1.22,3.58c0,2.76-0.11,3.67-0.11,6.28" transform="matrix(1,0,0,1,496,-4)" class="stroke_order_diagram--existing_path"></path><path id="pathSk2v596cn1izz" kvg:type="㇐" d="M19,56.97c2.31,0.14,4.56,0.32,6.89,0.1c9.99-0.95,18.74-2.32,27.37-3.39c1.66-0.2,3.27-0.4,4.9,0.1" transform="matrix(1,0,0,1,496,-4)" class="stroke_order_diagram--existing_path"></path><path id="kvg:088c1-s6" kvg:type="㇒" d="M36.77,58.82c0.07,0.59,0.16,1.67-0.38,2.38C32,67,26.5,73.38,13.29,82.97" transform="matrix(1,0,0,1,496,-4)" class="stroke_order_diagram--current_path"></path><path id="pathSk2v596cn1j01" kvg:type="㇒" d="M36.77,58.82c0.07,0.59,0.16,1.67-0.38,2.38C32,67,26.5,73.38,13.29,82.97" transform="matrix(1,0,0,1,496,-4)" class="stroke_order_diagram--current_path"></path><circle cx="36.77" cy="58.82" r="8" class="stroke_order_diagram--path_start" transform="matrix(1,0,0,1,496,-4)"></circle><line x1="650" x2="650" y1="1" y2="99" class="stroke_order_diagram--guide_line"></line><line x1="699" x2="699" y1="1" y2="99" class="stroke_order_diagram--bounding_box"></line><path id="pathSk2v596cn1j04" kvg:type="㇐" d="M23.63,25.63c1.68,0.45,3.54,0.3,5.24,0.16c6.57-0.5,14.34-1.94,20.32-2.48c1.62-0.14,2.87-0.12,3.68,0.01" transform="matrix(1,0,0,1,596,-4)" class="stroke_order_diagram--existing_path"></path><path id="pathSk2v596cn1j05" kvg:type="㇑a" d="M39.42,12.87c0.67,0.67,1.27,2.13,1.27,3.64c0,3.5,0.14,16.5,0.14,21.36" transform="matrix(1,0,0,1,596,-4)" class="stroke_order_diagram--existing_path"></path><path id="pathSk2v596cn1j06" kvg:type="㇐" d="M13.13,40.73c3.12,1.11,7.15,0.64,10.37,0.23c19.02-2.41,44.54-6.14,60.62-7.21c3.07-0.2,5.99-0.32,9.01,0.33" transform="matrix(1,0,0,1,596,-4)" class="stroke_order_diagram--existing_path"></path><path id="pathSk2v596cn1j07" kvg:type="㇑a" d="M39.85,44.5c0.7,0.7,1.22,2.12,1.22,3.58c0,2.76-0.11,3.67-0.11,6.28" transform="matrix(1,0,0,1,596,-4)" class="stroke_order_diagram--existing_path"></path><path id="pathSk2v596cn1j08" kvg:type="㇐" d="M19,56.97c2.31,0.14,4.56,0.32,6.89,0.1c9.99-0.95,18.74-2.32,27.37-3.39c1.66-0.2,3.27-0.4,4.9,0.1" transform="matrix(1,0,0,1,596,-4)" class="stroke_order_diagram--existing_path"></path><path id="pathSk2v596cn1j09" kvg:type="㇒" d="M36.77,58.82c0.07,0.59,0.16,1.67-0.38,2.38C32,67,26.5,73.38,13.29,82.97" transform="matrix(1,0,0,1,596,-4)" class="stroke_order_diagram--existing_path"></path><path id="kvg:088c1-s7" kvg:type="㇙" d="M28.91,73.38c0.79,0.79,1.14,1.87,1.14,3.24c0,3.25-0.14,7.38-0.14,11.19c0,1.24,1.23,1.92,2.21,1.01c3.38-3.08,7.25-7.58,10.94-10.52" transform="matrix(1,0,0,1,596,-4)" class="stroke_order_diagram--current_path"></path><path id="pathSk2v596cn1j0b" kvg:type="㇙" d="M28.91,73.38c0.79,0.79,1.14,1.87,1.14,3.24c0,3.25-0.14,7.38-0.14,11.19c0,1.24,1.23,1.92,2.21,1.01c3.38-3.08,7.25-7.58,10.94-10.52" transform="matrix(1,0,0,1,596,-4)" class="stroke_order_diagram--current_path"></path><circle cx="28.91" cy="73.38" r="8" class="stroke_order_diagram--path_start" transform="matrix(1,0,0,1,596,-4)"></circle><line x1="750" x2="750" y1="1" y2="99" class="stroke_order_diagram--guide_line"></line><line x1="799" x2="799" y1="1" y2="99" class="stroke_order_diagram--bounding_box"></line><path id="pathSk2v596cn1j0e" kvg:type="㇐" d="M23.63,25.63c1.68,0.45,3.54,0.3,5.24,0.16c6.57-0.5,14.34-1.94,20.32-2.48c1.62-0.14,2.87-0.12,3.68,0.01" transform="matrix(1,0,0,1,696,-4)" class="stroke_order_diagram--existing_path"></path><path id="pathSk2v596cn1j0f" kvg:type="㇑a" d="M39.42,12.87c0.67,0.67,1.27,2.13,1.27,3.64c0,3.5,0.14,16.5,0.14,21.36" transform="matrix(1,0,0,1,696,-4)" class="stroke_order_diagram--existing_path"></path><path id="pathSk2v596cn1j0g" kvg:type="㇐" d="M13.13,40.73c3.12,1.11,7.15,0.64,10.37,0.23c19.02-2.41,44.54-6.14,60.62-7.21c3.07-0.2,5.99-0.32,9.01,0.33" transform="matrix(1,0,0,1,696,-4)" class="stroke_order_diagram--existing_path"></path><path id="pathSk2v596cn1j0h" kvg:type="㇑a" d="M39.85,44.5c0.7,0.7,1.22,2.12,1.22,3.58c0,2.76-0.11,3.67-0.11,6.28" transform="matrix(1,0,0,1,696,-4)" class="stroke_order_diagram--existing_path"></path><path id="pathSk2v596cn1j0i" kvg:type="㇐" d="M19,56.97c2.31,0.14,4.56,0.32,6.89,0.1c9.99-0.95,18.74-2.32,27.37-3.39c1.66-0.2,3.27-0.4,4.9,0.1" transform="matrix(1,0,0,1,696,-4)" class="stroke_order_diagram--existing_path"></path><path id="pathSk2v596cn1j0j" kvg:type="㇒" d="M36.77,58.82c0.07,0.59,0.16,1.67-0.38,2.38C32,67,26.5,73.38,13.29,82.97" transform="matrix(1,0,0,1,696,-4)" class="stroke_order_diagram--existing_path"></path><path id="pathSk2v596cn1j0k" kvg:type="㇙" d="M28.91,73.38c0.79,0.79,1.14,1.87,1.14,3.24c0,3.25-0.14,7.38-0.14,11.19c0,1.24,1.23,1.92,2.21,1.01c3.38-3.08,7.25-7.58,10.94-10.52" transform="matrix(1,0,0,1,696,-4)" class="stroke_order_diagram--existing_path"></path><path id="kvg:088c1-s8" kvg:type="㇒" d="M56.18,59.96c0.02,0.21,0.21,1.01,0.09,1.29c-0.73,1.73-3.02,4.21-6.76,7.66" transform="matrix(1,0,0,1,696,-4)" class="stroke_order_diagram--current_path"></path><path id="pathSk2v596cn1j0m" kvg:type="㇒" d="M56.18,59.96c0.02,0.21,0.21,1.01,0.09,1.29c-0.73,1.73-3.02,4.21-6.76,7.66" transform="matrix(1,0,0,1,696,-4)" class="stroke_order_diagram--current_path"></path><circle cx="56.18" cy="59.96" r="8" class="stroke_order_diagram--path_start" transform="matrix(1,0,0,1,696,-4)"></circle><line x1="850" x2="850" y1="1" y2="99" class="stroke_order_diagram--guide_line"></line><line x1="899" x2="899" y1="1" y2="99" class="stroke_order_diagram--bounding_box"></line><path id="pathSk2v596cn1j0p" kvg:type="㇐" d="M23.63,25.63c1.68,0.45,3.54,0.3,5.24,0.16c6.57-0.5,14.34-1.94,20.32-2.48c1.62-0.14,2.87-0.12,3.68,0.01" transform="matrix(1,0,0,1,796,-4)" class="stroke_order_diagram--existing_path"></path><path id="pathSk2v596cn1j0q" kvg:type="㇑a" d="M39.42,12.87c0.67,0.67,1.27,2.13,1.27,3.64c0,3.5,0.14,16.5,0.14,21.36" transform="matrix(1,0,0,1,796,-4)" class="stroke_order_diagram--existing_path"></path><path id="pathSk2v596cn1j0r" kvg:type="㇐" d="M13.13,40.73c3.12,1.11,7.15,0.64,10.37,0.23c19.02-2.41,44.54-6.14,60.62-7.21c3.07-0.2,5.99-0.32,9.01,0.33" transform="matrix(1,0,0,1,796,-4)" class="stroke_order_diagram--existing_path"></path><path id="pathSk2v596cn1j0s" kvg:type="㇑a" d="M39.85,44.5c0.7,0.7,1.22,2.12,1.22,3.58c0,2.76-0.11,3.67-0.11,6.28" transform="matrix(1,0,0,1,796,-4)" class="stroke_order_diagram--existing_path"></path><path id="pathSk2v596cn1j0t" kvg:type="㇐" d="M19,56.97c2.31,0.14,4.56,0.32,6.89,0.1c9.99-0.95,18.74-2.32,27.37-3.39c1.66-0.2,3.27-0.4,4.9,0.1" transform="matrix(1,0,0,1,796,-4)" class="stroke_order_diagram--existing_path"></path><path id="pathSk2v596cn1j0u" kvg:type="㇒" d="M36.77,58.82c0.07,0.59,0.16,1.67-0.38,2.38C32,67,26.5,73.38,13.29,82.97" transform="matrix(1,0,0,1,796,-4)" class="stroke_order_diagram--existing_path"></path><path id="pathSk2v596cn1j0v" kvg:type="㇙" d="M28.91,73.38c0.79,0.79,1.14,1.87,1.14,3.24c0,3.25-0.14,7.38-0.14,11.19c0,1.24,1.23,1.92,2.21,1.01c3.38-3.08,7.25-7.58,10.94-10.52" transform="matrix(1,0,0,1,796,-4)" class="stroke_order_diagram--existing_path"></path><path id="pathSk2v596cn1j0w" kvg:type="㇒" d="M56.18,59.96c0.02,0.21,0.21,1.01,0.09,1.29c-0.73,1.73-3.02,4.21-6.76,7.66" transform="matrix(1,0,0,1,796,-4)" class="stroke_order_diagram--existing_path"></path><path id="kvg:088c1-s9" kvg:type="㇔/㇏" d="M42.12,65.56c6.88,4.19,12.63,9.69,18.21,18.18" transform="matrix(1,0,0,1,796,-4)" class="stroke_order_diagram--current_path"></path><path id="pathSk2v596cn1j0y" kvg:type="㇔/㇏" d="M42.12,65.56c6.88,4.19,12.63,9.69,18.21,18.18" transform="matrix(1,0,0,1,796,-4)" class="stroke_order_diagram--current_path"></path><circle cx="42.12" cy="65.56" r="8" class="stroke_order_diagram--path_start" transform="matrix(1,0,0,1,796,-4)"></circle><line x1="950" x2="950" y1="1" y2="99" class="stroke_order_diagram--guide_line"></line><line x1="999" x2="999" y1="1" y2="99" class="stroke_order_diagram--bounding_box"></line><path id="pathSk2v596cn1j11" kvg:type="㇐" d="M23.63,25.63c1.68,0.45,3.54,0.3,5.24,0.16c6.57-0.5,14.34-1.94,20.32-2.48c1.62-0.14,2.87-0.12,3.68,0.01" transform="matrix(1,0,0,1,896,-4)" class="stroke_order_diagram--existing_path"></path><path id="pathSk2v596cn1j12" kvg:type="㇑a" d="M39.42,12.87c0.67,0.67,1.27,2.13,1.27,3.64c0,3.5,0.14,16.5,0.14,21.36" transform="matrix(1,0,0,1,896,-4)" class="stroke_order_diagram--existing_path"></path><path id="pathSk2v596cn1j13" kvg:type="㇐" d="M13.13,40.73c3.12,1.11,7.15,0.64,10.37,0.23c19.02-2.41,44.54-6.14,60.62-7.21c3.07-0.2,5.99-0.32,9.01,0.33" transform="matrix(1,0,0,1,896,-4)" class="stroke_order_diagram--existing_path"></path><path id="pathSk2v596cn1j14" kvg:type="㇑a" d="M39.85,44.5c0.7,0.7,1.22,2.12,1.22,3.58c0,2.76-0.11,3.67-0.11,6.28" transform="matrix(1,0,0,1,896,-4)" class="stroke_order_diagram--existing_path"></path><path id="pathSk2v596cn1j15" kvg:type="㇐" d="M19,56.97c2.31,0.14,4.56,0.32,6.89,0.1c9.99-0.95,18.74-2.32,27.37-3.39c1.66-0.2,3.27-0.4,4.9,0.1" transform="matrix(1,0,0,1,896,-4)" class="stroke_order_diagram--existing_path"></path><path id="pathSk2v596cn1j16" kvg:type="㇒" d="M36.77,58.82c0.07,0.59,0.16,1.67-0.38,2.38C32,67,26.5,73.38,13.29,82.97" transform="matrix(1,0,0,1,896,-4)" class="stroke_order_diagram--existing_path"></path><path id="pathSk2v596cn1j17" kvg:type="㇙" d="M28.91,73.38c0.79,0.79,1.14,1.87,1.14,3.24c0,3.25-0.14,7.38-0.14,11.19c0,1.24,1.23,1.92,2.21,1.01c3.38-3.08,7.25-7.58,10.94-10.52" transform="matrix(1,0,0,1,896,-4)" class="stroke_order_diagram--existing_path"></path><path id="pathSk2v596cn1j18" kvg:type="㇒" d="M56.18,59.96c0.02,0.21,0.21,1.01,0.09,1.29c-0.73,1.73-3.02,4.21-6.76,7.66" transform="matrix(1,0,0,1,896,-4)" class="stroke_order_diagram--existing_path"></path><path id="pathSk2v596cn1j19" kvg:type="㇔/㇏" d="M42.12,65.56c6.88,4.19,12.63,9.69,18.21,18.18" transform="matrix(1,0,0,1,896,-4)" class="stroke_order_diagram--existing_path"></path><path id="kvg:088c1-s10" kvg:type="㇂" d="M56.75,9.5c1.56,1.84,2.23,3.35,2.53,7.31c2.59,33.44,11.84,61.69,30.64,77.86c5.52,4.75,5.01,0.29,4.23-7.86" transform="matrix(1,0,0,1,896,-4)" class="stroke_order_diagram--current_path"></path><path id="pathSk2v596cn1j1b" kvg:type="㇂" d="M56.75,9.5c1.56,1.84,2.23,3.35,2.53,7.31c2.59,33.44,11.84,61.69,30.64,77.86c5.52,4.75,5.01,0.29,4.23-7.86" transform="matrix(1,0,0,1,896,-4)" class="stroke_order_diagram--current_path"></path><circle cx="56.75" cy="9.5" r="8" class="stroke_order_diagram--path_start" transform="matrix(1,0,0,1,896,-4)"></circle><line x1="1050" x2="1050" y1="1" y2="99" class="stroke_order_diagram--guide_line"></line><line x1="1099" x2="1099" y1="1" y2="99" class="stroke_order_diagram--bounding_box"></line><path id="pathSk2v596cn1j1e" kvg:type="㇐" d="M23.63,25.63c1.68,0.45,3.54,0.3,5.24,0.16c6.57-0.5,14.34-1.94,20.32-2.48c1.62-0.14,2.87-0.12,3.68,0.01" transform="matrix(1,0,0,1,996,-4)" class="stroke_order_diagram--existing_path"></path><path id="pathSk2v596cn1j1f" kvg:type="㇑a" d="M39.42,12.87c0.67,0.67,1.27,2.13,1.27,3.64c0,3.5,0.14,16.5,0.14,21.36" transform="matrix(1,0,0,1,996,-4)" class="stroke_order_diagram--existing_path"></path><path id="pathSk2v596cn1j1g" kvg:type="㇐" d="M13.13,40.73c3.12,1.11,7.15,0.64,10.37,0.23c19.02-2.41,44.54-6.14,60.62-7.21c3.07-0.2,5.99-0.32,9.01,0.33" transform="matrix(1,0,0,1,996,-4)" class="stroke_order_diagram--existing_path"></path><path id="pathSk2v596cn1j1h" kvg:type="㇑a" d="M39.85,44.5c0.7,0.7,1.22,2.12,1.22,3.58c0,2.76-0.11,3.67-0.11,6.28" transform="matrix(1,0,0,1,996,-4)" class="stroke_order_diagram--existing_path"></path><path id="pathSk2v596cn1j1i" kvg:type="㇐" d="M19,56.97c2.31,0.14,4.56,0.32,6.89,0.1c9.99-0.95,18.74-2.32,27.37-3.39c1.66-0.2,3.27-0.4,4.9,0.1" transform="matrix(1,0,0,1,996,-4)" class="stroke_order_diagram--existing_path"></path><path id="pathSk2v596cn1j1j" kvg:type="㇒" d="M36.77,58.82c0.07,0.59,0.16,1.67-0.38,2.38C32,67,26.5,73.38,13.29,82.97" transform="matrix(1,0,0,1,996,-4)" class="stroke_order_diagram--existing_path"></path><path id="pathSk2v596cn1j1k" kvg:type="㇙" d="M28.91,73.38c0.79,0.79,1.14,1.87,1.14,3.24c0,3.25-0.14,7.38-0.14,11.19c0,1.24,1.23,1.92,2.21,1.01c3.38-3.08,7.25-7.58,10.94-10.52" transform="matrix(1,0,0,1,996,-4)" class="stroke_order_diagram--existing_path"></path><path id="pathSk2v596cn1j1l" kvg:type="㇒" d="M56.18,59.96c0.02,0.21,0.21,1.01,0.09,1.29c-0.73,1.73-3.02,4.21-6.76,7.66" transform="matrix(1,0,0,1,996,-4)" class="stroke_order_diagram--existing_path"></path><path id="pathSk2v596cn1j1m" kvg:type="㇔/㇏" d="M42.12,65.56c6.88,4.19,12.63,9.69,18.21,18.18" transform="matrix(1,0,0,1,996,-4)" class="stroke_order_diagram--existing_path"></path><path id="pathSk2v596cn1j1n" kvg:type="㇂" d="M56.75,9.5c1.56,1.84,2.23,3.35,2.53,7.31c2.59,33.44,11.84,61.69,30.64,77.86c5.52,4.75,5.01,0.29,4.23-7.86" transform="matrix(1,0,0,1,996,-4)" class="stroke_order_diagram--existing_path"></path><path id="kvg:088c1-s11" kvg:type="㇒" d="M82.97,44.64c0.4,1.48,0.33,3-0.17,4.76c-3.43,12.1-12.26,34.39-28,48.57" transform="matrix(1,0,0,1,996,-4)" class="stroke_order_diagram--current_path"></path><path id="pathSk2v596cn1j1p" kvg:type="㇒" d="M82.97,44.64c0.4,1.48,0.33,3-0.17,4.76c-3.43,12.1-12.26,34.39-28,48.57" transform="matrix(1,0,0,1,996,-4)" class="stroke_order_diagram--current_path"></path><circle cx="82.97" cy="44.64" r="8" class="stroke_order_diagram--path_start" transform="matrix(1,0,0,1,996,-4)"></circle><line x1="1150" x2="1150" y1="1" y2="99" class="stroke_order_diagram--guide_line"></line><line x1="1199" x2="1199" y1="1" y2="99" class="stroke_order_diagram--bounding_box"></line><path id="pathSk2v596cn1j1s" kvg:type="㇐" d="M23.63,25.63c1.68,0.45,3.54,0.3,5.24,0.16c6.57-0.5,14.34-1.94,20.32-2.48c1.62-0.14,2.87-0.12,3.68,0.01" transform="matrix(1,0,0,1,1096,-4)" class="stroke_order_diagram--existing_path"></path><path id="pathSk2v596cn1j1t" kvg:type="㇑a" d="M39.42,12.87c0.67,0.67,1.27,2.13,1.27,3.64c0,3.5,0.14,16.5,0.14,21.36" transform="matrix(1,0,0,1,1096,-4)" class="stroke_order_diagram--existing_path"></path><path id="pathSk2v596cn1j1u" kvg:type="㇐" d="M13.13,40.73c3.12,1.11,7.15,0.64,10.37,0.23c19.02-2.41,44.54-6.14,60.62-7.21c3.07-0.2,5.99-0.32,9.01,0.33" transform="matrix(1,0,0,1,1096,-4)" class="stroke_order_diagram--existing_path"></path><path id="pathSk2v596cn1j1v" kvg:type="㇑a" d="M39.85,44.5c0.7,0.7,1.22,2.12,1.22,3.58c0,2.76-0.11,3.67-0.11,6.28" transform="matrix(1,0,0,1,1096,-4)" class="stroke_order_diagram--existing_path"></path><path id="pathSk2v596cn1j1w" kvg:type="㇐" d="M19,56.97c2.31,0.14,4.56,0.32,6.89,0.1c9.99-0.95,18.74-2.32,27.37-3.39c1.66-0.2,3.27-0.4,4.9,0.1" transform="matrix(1,0,0,1,1096,-4)" class="stroke_order_diagram--existing_path"></path><path id="pathSk2v596cn1j1x" kvg:type="㇒" d="M36.77,58.82c0.07,0.59,0.16,1.67-0.38,2.38C32,67,26.5,73.38,13.29,82.97" transform="matrix(1,0,0,1,1096,-4)" class="stroke_order_diagram--existing_path"></path><path id="pathSk2v596cn1j1y" kvg:type="㇙" d="M28.91,73.38c0.79,0.79,1.14,1.87,1.14,3.24c0,3.25-0.14,7.38-0.14,11.19c0,1.24,1.23,1.92,2.21,1.01c3.38-3.08,7.25-7.58,10.94-10.52" transform="matrix(1,0,0,1,1096,-4)" class="stroke_order_diagram--existing_path"></path><path id="pathSk2v596cn1j1z" kvg:type="㇒" d="M56.18,59.96c0.02,0.21,0.21,1.01,0.09,1.29c-0.73,1.73-3.02,4.21-6.76,7.66" transform="matrix(1,0,0,1,1096,-4)" class="stroke_order_diagram--existing_path"></path><path id="pathSk2v596cn1j20" kvg:type="㇔/㇏" d="M42.12,65.56c6.88,4.19,12.63,9.69,18.21,18.18" transform="matrix(1,0,0,1,1096,-4)" class="stroke_order_diagram--existing_path"></path><path id="pathSk2v596cn1j21" kvg:type="㇂" d="M56.75,9.5c1.56,1.84,2.23,3.35,2.53,7.31c2.59,33.44,11.84,61.69,30.64,77.86c5.52,4.75,5.01,0.29,4.23-7.86" transform="matrix(1,0,0,1,1096,-4)" class="stroke_order_diagram--existing_path"></path><path id="pathSk2v596cn1j22" kvg:type="㇒" d="M82.97,44.64c0.4,1.48,0.33,3-0.17,4.76c-3.43,12.1-12.26,34.39-28,48.57" transform="matrix(1,0,0,1,1096,-4)" class="stroke_order_diagram--existing_path"></path><path id="kvg:088c1-s12" kvg:type="㇔" d="M74.25,15c3.18,1.85,8.27,6.08,9.75,9.25" transform="matrix(1,0,0,1,1096,-4)" class="stroke_order_diagram--current_path"></path><path id="pathSk2v596cn1j24" kvg:type="㇔" d="M74.25,15c3.18,1.85,8.27,6.08,9.75,9.25" transform="matrix(1,0,0,1,1096,-4)" class="stroke_order_diagram--current_path"></path><circle cx="74.25" cy="15" r="8" class="stroke_order_diagram--path_start" transform="matrix(1,0,0,1,1096,-4)"></circle></svg>