<svg style="width: 1300px; height: 100px;" viewbox="0 0 1300 100"><style>
.stroke_order_diagram--outer_container {
  width: 100%;
  overflow-x: auto;
  overflow-y: hidden;
}

.stroke_order_diagram--guide_line {
  fill: none;
  stroke: #ddd;
  stroke-width: 3;
  stroke-linecap: square;
  stroke-linejoin: square;
  stroke-dasharray:8, 8;
}

.stroke_order_diagram--bounding_box {
  fill: none;
  stroke: #ddd;
  stroke-width: 4;
  stroke-linecap: square;
  stroke-linejoin: square;
}

.stroke_order_diagram--current_path {
  fill: none;
  stroke: #000;
  stroke-width: 6;
  stroke-linecap: round;
  stroke-linejoin: round;
}

.stroke_order_diagram--existing_path {
  fill: none;
  stroke: #aaa;
  stroke-width: 6;
  stroke-linecap: round;
  stroke-linejoin:round;
}

.stroke_order_diagram--path_start {
  fill: rgba(255, 0, 0, 0.7);
  stroke:none
}</style><desc>Created with Snap</desc><defs></defs><line x1="1" x2="1299" y1="1" y2="1" class="stroke_order_diagram--bounding_box"></line><line x1="1" x2="1" y1="1" y2="99" class="stroke_order_diagram--bounding_box"></line><line x1="1" x2="1299" y1="99" y2="99" class="stroke_order_diagram--bounding_box"></line><line x1="0" x2="1300" y1="50" y2="50" class="stroke_order_diagram--guide_line"></line><line x1="50" x2="50" y1="1" y2="99" class="stroke_order_diagram--guide_line"></line><line x1="99" x2="99" y1="1" y2="99" class="stroke_order_diagram--bounding_box"></line><path id="kvg:088cf-s1" kvg:type="㇑a" d="M52.69,8.5c1.03,1.03,1.45,2.12,1.45,3.77c0,1.98-0.02,1.79-0.02,4.98" transform="matrix(1,0,0,1,-4,-4)" class="stroke_order_diagram--current_path"></path><path id="pathSk2v596cn2ej0" kvg:type="㇑a" d="M52.69,8.5c1.03,1.03,1.45,2.12,1.45,3.77c0,1.98-0.02,1.79-0.02,4.98" transform="matrix(1,0,0,1,-4,-4)" class="stroke_order_diagram--current_path"></path><circle cx="52.69" cy="8.5" r="8" class="stroke_order_diagram--path_start" transform="matrix(1,0,0,1,-4,-4)"></circle><line x1="150" x2="150" y1="1" y2="99" class="stroke_order_diagram--guide_line"></line><line x1="199" x2="199" y1="1" y2="99" class="stroke_order_diagram--bounding_box"></line><path id="pathSk2v596cn2ej3" kvg:type="㇑a" d="M52.69,8.5c1.03,1.03,1.45,2.12,1.45,3.77c0,1.98-0.02,1.79-0.02,4.98" transform="matrix(1,0,0,1,96,-4)" class="stroke_order_diagram--existing_path"></path><path id="kvg:088cf-s2" kvg:type="㇐" d="M16,21.11c3.38,0.24,6.74,0.23,10.12-0.12c13.14-1.38,40.73-3.9,56.13-4.62c3.2-0.15,6.62-0.48,9.75,0.3" transform="matrix(1,0,0,1,96,-4)" class="stroke_order_diagram--current_path"></path><path id="pathSk2v596cn2ej5" kvg:type="㇐" d="M16,21.11c3.38,0.24,6.74,0.23,10.12-0.12c13.14-1.38,40.73-3.9,56.13-4.62c3.2-0.15,6.62-0.48,9.75,0.3" transform="matrix(1,0,0,1,96,-4)" class="stroke_order_diagram--current_path"></path><circle cx="16" cy="21.11" r="8" class="stroke_order_diagram--path_start" transform="matrix(1,0,0,1,96,-4)"></circle><line x1="250" x2="250" y1="1" y2="99" class="stroke_order_diagram--guide_line"></line><line x1="299" x2="299" y1="1" y2="99" class="stroke_order_diagram--bounding_box"></line><path id="pathSk2v596cn2ej8" kvg:type="㇑a" d="M52.69,8.5c1.03,1.03,1.45,2.12,1.45,3.77c0,1.98-0.02,1.79-0.02,4.98" transform="matrix(1,0,0,1,196,-4)" class="stroke_order_diagram--existing_path"></path><path id="pathSk2v596cn2ej9" kvg:type="㇐" d="M16,21.11c3.38,0.24,6.74,0.23,10.12-0.12c13.14-1.38,40.73-3.9,56.13-4.62c3.2-0.15,6.62-0.48,9.75,0.3" transform="matrix(1,0,0,1,196,-4)" class="stroke_order_diagram--existing_path"></path><path id="kvg:088cf-s3" kvg:type="㇑" d="M28.3,28.66c0.71,0.71,1.11,1.73,1.37,2.58c1.33,4.39,2.78,10.38,3.8,16.43c0.23,1.34,0.43,2.63,0.6,3.84" transform="matrix(1,0,0,1,196,-4)" class="stroke_order_diagram--current_path"></path><path id="pathSk2v596cn2ejb" kvg:type="㇑" d="M28.3,28.66c0.71,0.71,1.11,1.73,1.37,2.58c1.33,4.39,2.78,10.38,3.8,16.43c0.23,1.34,0.43,2.63,0.6,3.84" transform="matrix(1,0,0,1,196,-4)" class="stroke_order_diagram--current_path"></path><circle cx="28.3" cy="28.66" r="8" class="stroke_order_diagram--path_start" transform="matrix(1,0,0,1,196,-4)"></circle><line x1="350" x2="350" y1="1" y2="99" class="stroke_order_diagram--guide_line"></line><line x1="399" x2="399" y1="1" y2="99" class="stroke_order_diagram--bounding_box"></line><path id="pathSk2v596cn2eje" kvg:type="㇑a" d="M52.69,8.5c1.03,1.03,1.45,2.12,1.45,3.77c0,1.98-0.02,1.79-0.02,4.98" transform="matrix(1,0,0,1,296,-4)" class="stroke_order_diagram--existing_path"></path><path id="pathSk2v596cn2ejf" kvg:type="㇐" d="M16,21.11c3.38,0.24,6.74,0.23,10.12-0.12c13.14-1.38,40.73-3.9,56.13-4.62c3.2-0.15,6.62-0.48,9.75,0.3" transform="matrix(1,0,0,1,296,-4)" class="stroke_order_diagram--existing_path"></path><path id="pathSk2v596cn2ejg" kvg:type="㇑" d="M28.3,28.66c0.71,0.71,1.11,1.73,1.37,2.58c1.33,4.39,2.78,10.38,3.8,16.43c0.23,1.34,0.43,2.63,0.6,3.84" transform="matrix(1,0,0,1,296,-4)" class="stroke_order_diagram--existing_path"></path><path id="kvg:088cf-s4" kvg:type="㇕a" d="M30.5,30.17c14.38-1.54,35.62-3.54,46.03-4.39c2.48-0.2,3.97,1.34,3.6,3.29c-0.94,4.93-2.3,10.06-3.75,14.31c-0.43,1.27-0.89,2.49-1.38,3.64" transform="matrix(1,0,0,1,296,-4)" class="stroke_order_diagram--current_path"></path><path id="pathSk2v596cn2eji" kvg:type="㇕a" d="M30.5,30.17c14.38-1.54,35.62-3.54,46.03-4.39c2.48-0.2,3.97,1.34,3.6,3.29c-0.94,4.93-2.3,10.06-3.75,14.31c-0.43,1.27-0.89,2.49-1.38,3.64" transform="matrix(1,0,0,1,296,-4)" class="stroke_order_diagram--current_path"></path><circle cx="30.5" cy="30.17" r="8" class="stroke_order_diagram--path_start" transform="matrix(1,0,0,1,296,-4)"></circle><line x1="450" x2="450" y1="1" y2="99" class="stroke_order_diagram--guide_line"></line><line x1="499" x2="499" y1="1" y2="99" class="stroke_order_diagram--bounding_box"></line><path id="pathSk2v596cn2ejl" kvg:type="㇑a" d="M52.69,8.5c1.03,1.03,1.45,2.12,1.45,3.77c0,1.98-0.02,1.79-0.02,4.98" transform="matrix(1,0,0,1,396,-4)" class="stroke_order_diagram--existing_path"></path><path id="pathSk2v596cn2ejm" kvg:type="㇐" d="M16,21.11c3.38,0.24,6.74,0.23,10.12-0.12c13.14-1.38,40.73-3.9,56.13-4.62c3.2-0.15,6.62-0.48,9.75,0.3" transform="matrix(1,0,0,1,396,-4)" class="stroke_order_diagram--existing_path"></path><path id="pathSk2v596cn2ejn" kvg:type="㇑" d="M28.3,28.66c0.71,0.71,1.11,1.73,1.37,2.58c1.33,4.39,2.78,10.38,3.8,16.43c0.23,1.34,0.43,2.63,0.6,3.84" transform="matrix(1,0,0,1,396,-4)" class="stroke_order_diagram--existing_path"></path><path id="pathSk2v596cn2ejo" kvg:type="㇕a" d="M30.5,30.17c14.38-1.54,35.62-3.54,46.03-4.39c2.48-0.2,3.97,1.34,3.6,3.29c-0.94,4.93-2.3,10.06-3.75,14.31c-0.43,1.27-0.89,2.49-1.38,3.64" transform="matrix(1,0,0,1,396,-4)" class="stroke_order_diagram--existing_path"></path><path id="kvg:088cf-s5" kvg:type="㇐a" d="M33.37,39.51c8.75-0.89,34.38-3.14,43.98-3.77" transform="matrix(1,0,0,1,396,-4)" class="stroke_order_diagram--current_path"></path><path id="pathSk2v596cn2ejq" kvg:type="㇐a" d="M33.37,39.51c8.75-0.89,34.38-3.14,43.98-3.77" transform="matrix(1,0,0,1,396,-4)" class="stroke_order_diagram--current_path"></path><circle cx="33.37" cy="39.51" r="8" class="stroke_order_diagram--path_start" transform="matrix(1,0,0,1,396,-4)"></circle><line x1="550" x2="550" y1="1" y2="99" class="stroke_order_diagram--guide_line"></line><line x1="599" x2="599" y1="1" y2="99" class="stroke_order_diagram--bounding_box"></line><path id="pathSk2v596cn2ejt" kvg:type="㇑a" d="M52.69,8.5c1.03,1.03,1.45,2.12,1.45,3.77c0,1.98-0.02,1.79-0.02,4.98" transform="matrix(1,0,0,1,496,-4)" class="stroke_order_diagram--existing_path"></path><path id="pathSk2v596cn2eju" kvg:type="㇐" d="M16,21.11c3.38,0.24,6.74,0.23,10.12-0.12c13.14-1.38,40.73-3.9,56.13-4.62c3.2-0.15,6.62-0.48,9.75,0.3" transform="matrix(1,0,0,1,496,-4)" class="stroke_order_diagram--existing_path"></path><path id="pathSk2v596cn2ejv" kvg:type="㇑" d="M28.3,28.66c0.71,0.71,1.11,1.73,1.37,2.58c1.33,4.39,2.78,10.38,3.8,16.43c0.23,1.34,0.43,2.63,0.6,3.84" transform="matrix(1,0,0,1,496,-4)" class="stroke_order_diagram--existing_path"></path><path id="pathSk2v596cn2ejw" kvg:type="㇕a" d="M30.5,30.17c14.38-1.54,35.62-3.54,46.03-4.39c2.48-0.2,3.97,1.34,3.6,3.29c-0.94,4.93-2.3,10.06-3.75,14.31c-0.43,1.27-0.89,2.49-1.38,3.64" transform="matrix(1,0,0,1,496,-4)" class="stroke_order_diagram--existing_path"></path><path id="pathSk2v596cn2ejx" kvg:type="㇐a" d="M33.37,39.51c8.75-0.89,34.38-3.14,43.98-3.77" transform="matrix(1,0,0,1,496,-4)" class="stroke_order_diagram--existing_path"></path><path id="kvg:088cf-s6" kvg:type="㇐a" d="M34.98,49.47C47,48,61.86,46.61,74.5,45.94" transform="matrix(1,0,0,1,496,-4)" class="stroke_order_diagram--current_path"></path><path id="pathSk2v596cn2ejz" kvg:type="㇐a" d="M34.98,49.47C47,48,61.86,46.61,74.5,45.94" transform="matrix(1,0,0,1,496,-4)" class="stroke_order_diagram--current_path"></path><circle cx="34.98" cy="49.47" r="8" class="stroke_order_diagram--path_start" transform="matrix(1,0,0,1,496,-4)"></circle><line x1="650" x2="650" y1="1" y2="99" class="stroke_order_diagram--guide_line"></line><line x1="699" x2="699" y1="1" y2="99" class="stroke_order_diagram--bounding_box"></line><path id="pathSk2v596cn2ek2" kvg:type="㇑a" d="M52.69,8.5c1.03,1.03,1.45,2.12,1.45,3.77c0,1.98-0.02,1.79-0.02,4.98" transform="matrix(1,0,0,1,596,-4)" class="stroke_order_diagram--existing_path"></path><path id="pathSk2v596cn2ek3" kvg:type="㇐" d="M16,21.11c3.38,0.24,6.74,0.23,10.12-0.12c13.14-1.38,40.73-3.9,56.13-4.62c3.2-0.15,6.62-0.48,9.75,0.3" transform="matrix(1,0,0,1,596,-4)" class="stroke_order_diagram--existing_path"></path><path id="pathSk2v596cn2ek4" kvg:type="㇑" d="M28.3,28.66c0.71,0.71,1.11,1.73,1.37,2.58c1.33,4.39,2.78,10.38,3.8,16.43c0.23,1.34,0.43,2.63,0.6,3.84" transform="matrix(1,0,0,1,596,-4)" class="stroke_order_diagram--existing_path"></path><path id="pathSk2v596cn2ek5" kvg:type="㇕a" d="M30.5,30.17c14.38-1.54,35.62-3.54,46.03-4.39c2.48-0.2,3.97,1.34,3.6,3.29c-0.94,4.93-2.3,10.06-3.75,14.31c-0.43,1.27-0.89,2.49-1.38,3.64" transform="matrix(1,0,0,1,596,-4)" class="stroke_order_diagram--existing_path"></path><path id="pathSk2v596cn2ek6" kvg:type="㇐a" d="M33.37,39.51c8.75-0.89,34.38-3.14,43.98-3.77" transform="matrix(1,0,0,1,596,-4)" class="stroke_order_diagram--existing_path"></path><path id="pathSk2v596cn2ek7" kvg:type="㇐a" d="M34.98,49.47C47,48,61.86,46.61,74.5,45.94" transform="matrix(1,0,0,1,596,-4)" class="stroke_order_diagram--existing_path"></path><path id="kvg:088cf-s7" kvg:type="㇑a" d="M52.92,30.43c0.95,0.95,1.4,2.07,1.4,3.57c0,15.11-0.07,27.65-0.07,31.75" transform="matrix(1,0,0,1,596,-4)" class="stroke_order_diagram--current_path"></path><path id="pathSk2v596cn2ek9" kvg:type="㇑a" d="M52.92,30.43c0.95,0.95,1.4,2.07,1.4,3.57c0,15.11-0.07,27.65-0.07,31.75" transform="matrix(1,0,0,1,596,-4)" class="stroke_order_diagram--current_path"></path><circle cx="52.92" cy="30.43" r="8" class="stroke_order_diagram--path_start" transform="matrix(1,0,0,1,596,-4)"></circle><line x1="750" x2="750" y1="1" y2="99" class="stroke_order_diagram--guide_line"></line><line x1="799" x2="799" y1="1" y2="99" class="stroke_order_diagram--bounding_box"></line><path id="pathSk2v596cn2ekc" kvg:type="㇑a" d="M52.69,8.5c1.03,1.03,1.45,2.12,1.45,3.77c0,1.98-0.02,1.79-0.02,4.98" transform="matrix(1,0,0,1,696,-4)" class="stroke_order_diagram--existing_path"></path><path id="pathSk2v596cn2ekd" kvg:type="㇐" d="M16,21.11c3.38,0.24,6.74,0.23,10.12-0.12c13.14-1.38,40.73-3.9,56.13-4.62c3.2-0.15,6.62-0.48,9.75,0.3" transform="matrix(1,0,0,1,696,-4)" class="stroke_order_diagram--existing_path"></path><path id="pathSk2v596cn2eke" kvg:type="㇑" d="M28.3,28.66c0.71,0.71,1.11,1.73,1.37,2.58c1.33,4.39,2.78,10.38,3.8,16.43c0.23,1.34,0.43,2.63,0.6,3.84" transform="matrix(1,0,0,1,696,-4)" class="stroke_order_diagram--existing_path"></path><path id="pathSk2v596cn2ekf" kvg:type="㇕a" d="M30.5,30.17c14.38-1.54,35.62-3.54,46.03-4.39c2.48-0.2,3.97,1.34,3.6,3.29c-0.94,4.93-2.3,10.06-3.75,14.31c-0.43,1.27-0.89,2.49-1.38,3.64" transform="matrix(1,0,0,1,696,-4)" class="stroke_order_diagram--existing_path"></path><path id="pathSk2v596cn2ekg" kvg:type="㇐a" d="M33.37,39.51c8.75-0.89,34.38-3.14,43.98-3.77" transform="matrix(1,0,0,1,696,-4)" class="stroke_order_diagram--existing_path"></path><path id="pathSk2v596cn2ekh" kvg:type="㇐a" d="M34.98,49.47C47,48,61.86,46.61,74.5,45.94" transform="matrix(1,0,0,1,696,-4)" class="stroke_order_diagram--existing_path"></path><path id="pathSk2v596cn2eki" kvg:type="㇑a" d="M52.92,30.43c0.95,0.95,1.4,2.07,1.4,3.57c0,15.11-0.07,27.65-0.07,31.75" transform="matrix(1,0,0,1,696,-4)" class="stroke_order_diagram--existing_path"></path><path id="kvg:088cf-s8" kvg:type="㇐" d="M34.5,58.05c1.62,0.45,3.54,0.39,5.13,0.19c8.87-1.12,19.49-2.62,29.24-3.49c1.84-0.17,3.73-0.24,5.54,0.24" transform="matrix(1,0,0,1,696,-4)" class="stroke_order_diagram--current_path"></path><path id="pathSk2v596cn2ekk" kvg:type="㇐" d="M34.5,58.05c1.62,0.45,3.54,0.39,5.13,0.19c8.87-1.12,19.49-2.62,29.24-3.49c1.84-0.17,3.73-0.24,5.54,0.24" transform="matrix(1,0,0,1,696,-4)" class="stroke_order_diagram--current_path"></path><circle cx="34.5" cy="58.05" r="8" class="stroke_order_diagram--path_start" transform="matrix(1,0,0,1,696,-4)"></circle><line x1="850" x2="850" y1="1" y2="99" class="stroke_order_diagram--guide_line"></line><line x1="899" x2="899" y1="1" y2="99" class="stroke_order_diagram--bounding_box"></line><path id="pathSk2v596cn2ekn" kvg:type="㇑a" d="M52.69,8.5c1.03,1.03,1.45,2.12,1.45,3.77c0,1.98-0.02,1.79-0.02,4.98" transform="matrix(1,0,0,1,796,-4)" class="stroke_order_diagram--existing_path"></path><path id="pathSk2v596cn2eko" kvg:type="㇐" d="M16,21.11c3.38,0.24,6.74,0.23,10.12-0.12c13.14-1.38,40.73-3.9,56.13-4.62c3.2-0.15,6.62-0.48,9.75,0.3" transform="matrix(1,0,0,1,796,-4)" class="stroke_order_diagram--existing_path"></path><path id="pathSk2v596cn2ekp" kvg:type="㇑" d="M28.3,28.66c0.71,0.71,1.11,1.73,1.37,2.58c1.33,4.39,2.78,10.38,3.8,16.43c0.23,1.34,0.43,2.63,0.6,3.84" transform="matrix(1,0,0,1,796,-4)" class="stroke_order_diagram--existing_path"></path><path id="pathSk2v596cn2ekq" kvg:type="㇕a" d="M30.5,30.17c14.38-1.54,35.62-3.54,46.03-4.39c2.48-0.2,3.97,1.34,3.6,3.29c-0.94,4.93-2.3,10.06-3.75,14.31c-0.43,1.27-0.89,2.49-1.38,3.64" transform="matrix(1,0,0,1,796,-4)" class="stroke_order_diagram--existing_path"></path><path id="pathSk2v596cn2ekr" kvg:type="㇐a" d="M33.37,39.51c8.75-0.89,34.38-3.14,43.98-3.77" transform="matrix(1,0,0,1,796,-4)" class="stroke_order_diagram--existing_path"></path><path id="pathSk2v596cn2eks" kvg:type="㇐a" d="M34.98,49.47C47,48,61.86,46.61,74.5,45.94" transform="matrix(1,0,0,1,796,-4)" class="stroke_order_diagram--existing_path"></path><path id="pathSk2v596cn2ekt" kvg:type="㇑a" d="M52.92,30.43c0.95,0.95,1.4,2.07,1.4,3.57c0,15.11-0.07,27.65-0.07,31.75" transform="matrix(1,0,0,1,796,-4)" class="stroke_order_diagram--existing_path"></path><path id="pathSk2v596cn2eku" kvg:type="㇐" d="M34.5,58.05c1.62,0.45,3.54,0.39,5.13,0.19c8.87-1.12,19.49-2.62,29.24-3.49c1.84-0.17,3.73-0.24,5.54,0.24" transform="matrix(1,0,0,1,796,-4)" class="stroke_order_diagram--existing_path"></path><path id="kvg:088cf-s9" kvg:type="㇐" d="M19.57,69.35c3.18,0.65,6.14,0.55,8.95,0.24c14.35-1.59,35.15-4.38,50.73-5.02c3.23-0.13,6.38-0.45,9.69,0.17" transform="matrix(1,0,0,1,796,-4)" class="stroke_order_diagram--current_path"></path><path id="pathSk2v596cn2ekw" kvg:type="㇐" d="M19.57,69.35c3.18,0.65,6.14,0.55,8.95,0.24c14.35-1.59,35.15-4.38,50.73-5.02c3.23-0.13,6.38-0.45,9.69,0.17" transform="matrix(1,0,0,1,796,-4)" class="stroke_order_diagram--current_path"></path><circle cx="19.57" cy="69.35" r="8" class="stroke_order_diagram--path_start" transform="matrix(1,0,0,1,796,-4)"></circle><line x1="950" x2="950" y1="1" y2="99" class="stroke_order_diagram--guide_line"></line><line x1="999" x2="999" y1="1" y2="99" class="stroke_order_diagram--bounding_box"></line><path id="pathSk2v596cn2ekz" kvg:type="㇑a" d="M52.69,8.5c1.03,1.03,1.45,2.12,1.45,3.77c0,1.98-0.02,1.79-0.02,4.98" transform="matrix(1,0,0,1,896,-4)" class="stroke_order_diagram--existing_path"></path><path id="pathSk2v596cn2el0" kvg:type="㇐" d="M16,21.11c3.38,0.24,6.74,0.23,10.12-0.12c13.14-1.38,40.73-3.9,56.13-4.62c3.2-0.15,6.62-0.48,9.75,0.3" transform="matrix(1,0,0,1,896,-4)" class="stroke_order_diagram--existing_path"></path><path id="pathSk2v596cn2el1" kvg:type="㇑" d="M28.3,28.66c0.71,0.71,1.11,1.73,1.37,2.58c1.33,4.39,2.78,10.38,3.8,16.43c0.23,1.34,0.43,2.63,0.6,3.84" transform="matrix(1,0,0,1,896,-4)" class="stroke_order_diagram--existing_path"></path><path id="pathSk2v596cn2el2" kvg:type="㇕a" d="M30.5,30.17c14.38-1.54,35.62-3.54,46.03-4.39c2.48-0.2,3.97,1.34,3.6,3.29c-0.94,4.93-2.3,10.06-3.75,14.31c-0.43,1.27-0.89,2.49-1.38,3.64" transform="matrix(1,0,0,1,896,-4)" class="stroke_order_diagram--existing_path"></path><path id="pathSk2v596cn2el3" kvg:type="㇐a" d="M33.37,39.51c8.75-0.89,34.38-3.14,43.98-3.77" transform="matrix(1,0,0,1,896,-4)" class="stroke_order_diagram--existing_path"></path><path id="pathSk2v596cn2el4" kvg:type="㇐a" d="M34.98,49.47C47,48,61.86,46.61,74.5,45.94" transform="matrix(1,0,0,1,896,-4)" class="stroke_order_diagram--existing_path"></path><path id="pathSk2v596cn2el5" kvg:type="㇑a" d="M52.92,30.43c0.95,0.95,1.4,2.07,1.4,3.57c0,15.11-0.07,27.65-0.07,31.75" transform="matrix(1,0,0,1,896,-4)" class="stroke_order_diagram--existing_path"></path><path id="pathSk2v596cn2el6" kvg:type="㇐" d="M34.5,58.05c1.62,0.45,3.54,0.39,5.13,0.19c8.87-1.12,19.49-2.62,29.24-3.49c1.84-0.17,3.73-0.24,5.54,0.24" transform="matrix(1,0,0,1,896,-4)" class="stroke_order_diagram--existing_path"></path><path id="pathSk2v596cn2el7" kvg:type="㇐" d="M19.57,69.35c3.18,0.65,6.14,0.55,8.95,0.24c14.35-1.59,35.15-4.38,50.73-5.02c3.23-0.13,6.38-0.45,9.69,0.17" transform="matrix(1,0,0,1,896,-4)" class="stroke_order_diagram--existing_path"></path><path id="kvg:088cf-s10" kvg:type="㇒" d="M47.73,68.14c-0.23,1.23-1.15,2.69-1.92,3.54c-3.88,4.27-13.1,11.34-28.5,16.54" transform="matrix(1,0,0,1,896,-4)" class="stroke_order_diagram--current_path"></path><path id="pathSk2v596cn2el9" kvg:type="㇒" d="M47.73,68.14c-0.23,1.23-1.15,2.69-1.92,3.54c-3.88,4.27-13.1,11.34-28.5,16.54" transform="matrix(1,0,0,1,896,-4)" class="stroke_order_diagram--current_path"></path><circle cx="47.73" cy="68.14" r="8" class="stroke_order_diagram--path_start" transform="matrix(1,0,0,1,896,-4)"></circle><line x1="1050" x2="1050" y1="1" y2="99" class="stroke_order_diagram--guide_line"></line><line x1="1099" x2="1099" y1="1" y2="99" class="stroke_order_diagram--bounding_box"></line><path id="pathSk2v596cn2elc" kvg:type="㇑a" d="M52.69,8.5c1.03,1.03,1.45,2.12,1.45,3.77c0,1.98-0.02,1.79-0.02,4.98" transform="matrix(1,0,0,1,996,-4)" class="stroke_order_diagram--existing_path"></path><path id="pathSk2v596cn2eld" kvg:type="㇐" d="M16,21.11c3.38,0.24,6.74,0.23,10.12-0.12c13.14-1.38,40.73-3.9,56.13-4.62c3.2-0.15,6.62-0.48,9.75,0.3" transform="matrix(1,0,0,1,996,-4)" class="stroke_order_diagram--existing_path"></path><path id="pathSk2v596cn2ele" kvg:type="㇑" d="M28.3,28.66c0.71,0.71,1.11,1.73,1.37,2.58c1.33,4.39,2.78,10.38,3.8,16.43c0.23,1.34,0.43,2.63,0.6,3.84" transform="matrix(1,0,0,1,996,-4)" class="stroke_order_diagram--existing_path"></path><path id="pathSk2v596cn2elf" kvg:type="㇕a" d="M30.5,30.17c14.38-1.54,35.62-3.54,46.03-4.39c2.48-0.2,3.97,1.34,3.6,3.29c-0.94,4.93-2.3,10.06-3.75,14.31c-0.43,1.27-0.89,2.49-1.38,3.64" transform="matrix(1,0,0,1,996,-4)" class="stroke_order_diagram--existing_path"></path><path id="pathSk2v596cn2elg" kvg:type="㇐a" d="M33.37,39.51c8.75-0.89,34.38-3.14,43.98-3.77" transform="matrix(1,0,0,1,996,-4)" class="stroke_order_diagram--existing_path"></path><path id="pathSk2v596cn2elh" kvg:type="㇐a" d="M34.98,49.47C47,48,61.86,46.61,74.5,45.94" transform="matrix(1,0,0,1,996,-4)" class="stroke_order_diagram--existing_path"></path><path id="pathSk2v596cn2eli" kvg:type="㇑a" d="M52.92,30.43c0.95,0.95,1.4,2.07,1.4,3.57c0,15.11-0.07,27.65-0.07,31.75" transform="matrix(1,0,0,1,996,-4)" class="stroke_order_diagram--existing_path"></path><path id="pathSk2v596cn2elj" kvg:type="㇐" d="M34.5,58.05c1.62,0.45,3.54,0.39,5.13,0.19c8.87-1.12,19.49-2.62,29.24-3.49c1.84-0.17,3.73-0.24,5.54,0.24" transform="matrix(1,0,0,1,996,-4)" class="stroke_order_diagram--existing_path"></path><path id="pathSk2v596cn2elk" kvg:type="㇐" d="M19.57,69.35c3.18,0.65,6.14,0.55,8.95,0.24c14.35-1.59,35.15-4.38,50.73-5.02c3.23-0.13,6.38-0.45,9.69,0.17" transform="matrix(1,0,0,1,996,-4)" class="stroke_order_diagram--existing_path"></path><path id="pathSk2v596cn2ell" kvg:type="㇒" d="M47.73,68.14c-0.23,1.23-1.15,2.69-1.92,3.54c-3.88,4.27-13.1,11.34-28.5,16.54" transform="matrix(1,0,0,1,996,-4)" class="stroke_order_diagram--existing_path"></path><path id="kvg:088cf-s11" kvg:type="㇙" d="M40.25,80.5c0.69,0.69,1,1.75,1,3c0,5.26-0.07,7.62-0.07,11.43c0,2.42,0.7,2.87,2.43,1.64c3.02-2.15,11.24-7.86,15.1-9.84" transform="matrix(1,0,0,1,996,-4)" class="stroke_order_diagram--current_path"></path><path id="pathSk2v596cn2eln" kvg:type="㇙" d="M40.25,80.5c0.69,0.69,1,1.75,1,3c0,5.26-0.07,7.62-0.07,11.43c0,2.42,0.7,2.87,2.43,1.64c3.02-2.15,11.24-7.86,15.1-9.84" transform="matrix(1,0,0,1,996,-4)" class="stroke_order_diagram--current_path"></path><circle cx="40.25" cy="80.5" r="8" class="stroke_order_diagram--path_start" transform="matrix(1,0,0,1,996,-4)"></circle><line x1="1150" x2="1150" y1="1" y2="99" class="stroke_order_diagram--guide_line"></line><line x1="1199" x2="1199" y1="1" y2="99" class="stroke_order_diagram--bounding_box"></line><path id="pathSk2v596cn2elq" kvg:type="㇑a" d="M52.69,8.5c1.03,1.03,1.45,2.12,1.45,3.77c0,1.98-0.02,1.79-0.02,4.98" transform="matrix(1,0,0,1,1096,-4)" class="stroke_order_diagram--existing_path"></path><path id="pathSk2v596cn2elr" kvg:type="㇐" d="M16,21.11c3.38,0.24,6.74,0.23,10.12-0.12c13.14-1.38,40.73-3.9,56.13-4.62c3.2-0.15,6.62-0.48,9.75,0.3" transform="matrix(1,0,0,1,1096,-4)" class="stroke_order_diagram--existing_path"></path><path id="pathSk2v596cn2els" kvg:type="㇑" d="M28.3,28.66c0.71,0.71,1.11,1.73,1.37,2.58c1.33,4.39,2.78,10.38,3.8,16.43c0.23,1.34,0.43,2.63,0.6,3.84" transform="matrix(1,0,0,1,1096,-4)" class="stroke_order_diagram--existing_path"></path><path id="pathSk2v596cn2elt" kvg:type="㇕a" d="M30.5,30.17c14.38-1.54,35.62-3.54,46.03-4.39c2.48-0.2,3.97,1.34,3.6,3.29c-0.94,4.93-2.3,10.06-3.75,14.31c-0.43,1.27-0.89,2.49-1.38,3.64" transform="matrix(1,0,0,1,1096,-4)" class="stroke_order_diagram--existing_path"></path><path id="pathSk2v596cn2elu" kvg:type="㇐a" d="M33.37,39.51c8.75-0.89,34.38-3.14,43.98-3.77" transform="matrix(1,0,0,1,1096,-4)" class="stroke_order_diagram--existing_path"></path><path id="pathSk2v596cn2elv" kvg:type="㇐a" d="M34.98,49.47C47,48,61.86,46.61,74.5,45.94" transform="matrix(1,0,0,1,1096,-4)" class="stroke_order_diagram--existing_path"></path><path id="pathSk2v596cn2elw" kvg:type="㇑a" d="M52.92,30.43c0.95,0.95,1.4,2.07,1.4,3.57c0,15.11-0.07,27.65-0.07,31.75" transform="matrix(1,0,0,1,1096,-4)" class="stroke_order_diagram--existing_path"></path><path id="pathSk2v596cn2elx" kvg:type="㇐" d="M34.5,58.05c1.62,0.45,3.54,0.39,5.13,0.19c8.87-1.12,19.49-2.62,29.24-3.49c1.84-0.17,3.73-0.24,5.54,0.24" transform="matrix(1,0,0,1,1096,-4)" class="stroke_order_diagram--existing_path"></path><path id="pathSk2v596cn2ely" kvg:type="㇐" d="M19.57,69.35c3.18,0.65,6.14,0.55,8.95,0.24c14.35-1.59,35.15-4.38,50.73-5.02c3.23-0.13,6.38-0.45,9.69,0.17" transform="matrix(1,0,0,1,1096,-4)" class="stroke_order_diagram--existing_path"></path><path id="pathSk2v596cn2elz" kvg:type="㇒" d="M47.73,68.14c-0.23,1.23-1.15,2.69-1.92,3.54c-3.88,4.27-13.1,11.34-28.5,16.54" transform="matrix(1,0,0,1,1096,-4)" class="stroke_order_diagram--existing_path"></path><path id="pathSk2v596cn2em0" kvg:type="㇙" d="M40.25,80.5c0.69,0.69,1,1.75,1,3c0,5.26-0.07,7.62-0.07,11.43c0,2.42,0.7,2.87,2.43,1.64c3.02-2.15,11.24-7.86,15.1-9.84" transform="matrix(1,0,0,1,1096,-4)" class="stroke_order_diagram--existing_path"></path><path id="kvg:088cf-s12" kvg:type="㇒" d="M73.94,67.89c0.08,0.79-0.33,1.51-0.8,2.09c-1.57,1.97-3.39,3.9-7.83,7.74" transform="matrix(1,0,0,1,1096,-4)" class="stroke_order_diagram--current_path"></path><path id="pathSk2v596cn2em2" kvg:type="㇒" d="M73.94,67.89c0.08,0.79-0.33,1.51-0.8,2.09c-1.57,1.97-3.39,3.9-7.83,7.74" transform="matrix(1,0,0,1,1096,-4)" class="stroke_order_diagram--current_path"></path><circle cx="73.94" cy="67.89" r="8" class="stroke_order_diagram--path_start" transform="matrix(1,0,0,1,1096,-4)"></circle><line x1="1250" x2="1250" y1="1" y2="99" class="stroke_order_diagram--guide_line"></line><line x1="1299" x2="1299" y1="1" y2="99" class="stroke_order_diagram--bounding_box"></line><path id="pathSk2v596cn2em5" kvg:type="㇑a" d="M52.69,8.5c1.03,1.03,1.45,2.12,1.45,3.77c0,1.98-0.02,1.79-0.02,4.98" transform="matrix(1,0,0,1,1196,-4)" class="stroke_order_diagram--existing_path"></path><path id="pathSk2v596cn2em6" kvg:type="㇐" d="M16,21.11c3.38,0.24,6.74,0.23,10.12-0.12c13.14-1.38,40.73-3.9,56.13-4.62c3.2-0.15,6.62-0.48,9.75,0.3" transform="matrix(1,0,0,1,1196,-4)" class="stroke_order_diagram--existing_path"></path><path id="pathSk2v596cn2em7" kvg:type="㇑" d="M28.3,28.66c0.71,0.71,1.11,1.73,1.37,2.58c1.33,4.39,2.78,10.38,3.8,16.43c0.23,1.34,0.43,2.63,0.6,3.84" transform="matrix(1,0,0,1,1196,-4)" class="stroke_order_diagram--existing_path"></path><path id="pathSk2v596cn2em8" kvg:type="㇕a" d="M30.5,30.17c14.38-1.54,35.62-3.54,46.03-4.39c2.48-0.2,3.97,1.34,3.6,3.29c-0.94,4.93-2.3,10.06-3.75,14.31c-0.43,1.27-0.89,2.49-1.38,3.64" transform="matrix(1,0,0,1,1196,-4)" class="stroke_order_diagram--existing_path"></path><path id="pathSk2v596cn2em9" kvg:type="㇐a" d="M33.37,39.51c8.75-0.89,34.38-3.14,43.98-3.77" transform="matrix(1,0,0,1,1196,-4)" class="stroke_order_diagram--existing_path"></path><path id="pathSk2v596cn2ema" kvg:type="㇐a" d="M34.98,49.47C47,48,61.86,46.61,74.5,45.94" transform="matrix(1,0,0,1,1196,-4)" class="stroke_order_diagram--existing_path"></path><path id="pathSk2v596cn2emb" kvg:type="㇑a" d="M52.92,30.43c0.95,0.95,1.4,2.07,1.4,3.57c0,15.11-0.07,27.65-0.07,31.75" transform="matrix(1,0,0,1,1196,-4)" class="stroke_order_diagram--existing_path"></path><path id="pathSk2v596cn2emc" kvg:type="㇐" d="M34.5,58.05c1.62,0.45,3.54,0.39,5.13,0.19c8.87-1.12,19.49-2.62,29.24-3.49c1.84-0.17,3.73-0.24,5.54,0.24" transform="matrix(1,0,0,1,1196,-4)" class="stroke_order_diagram--existing_path"></path><path id="pathSk2v596cn2emd" kvg:type="㇐" d="M19.57,69.35c3.18,0.65,6.14,0.55,8.95,0.24c14.35-1.59,35.15-4.38,50.73-5.02c3.23-0.13,6.38-0.45,9.69,0.17" transform="matrix(1,0,0,1,1196,-4)" class="stroke_order_diagram--existing_path"></path><path id="pathSk2v596cn2eme" kvg:type="㇒" d="M47.73,68.14c-0.23,1.23-1.15,2.69-1.92,3.54c-3.88,4.27-13.1,11.34-28.5,16.54" transform="matrix(1,0,0,1,1196,-4)" class="stroke_order_diagram--existing_path"></path><path id="pathSk2v596cn2emf" kvg:type="㇙" d="M40.25,80.5c0.69,0.69,1,1.75,1,3c0,5.26-0.07,7.62-0.07,11.43c0,2.42,0.7,2.87,2.43,1.64c3.02-2.15,11.24-7.86,15.1-9.84" transform="matrix(1,0,0,1,1196,-4)" class="stroke_order_diagram--existing_path"></path><path id="pathSk2v596cn2emg" kvg:type="㇒" d="M73.94,67.89c0.08,0.79-0.33,1.51-0.8,2.09c-1.57,1.97-3.39,3.9-7.83,7.74" transform="matrix(1,0,0,1,1196,-4)" class="stroke_order_diagram--existing_path"></path><path id="kvg:088cf-s13" kvg:type="㇏" d="M50.75,71.25C55.25,72.5,72,84,85.65,90.71c2.13,1.05,6.47,3.24,8.6,3.54" transform="matrix(1,0,0,1,1196,-4)" class="stroke_order_diagram--current_path"></path><path id="pathSk2v596cn2emi" kvg:type="㇏" d="M50.75,71.25C55.25,72.5,72,84,85.65,90.71c2.13,1.05,6.47,3.24,8.6,3.54" transform="matrix(1,0,0,1,1196,-4)" class="stroke_order_diagram--current_path"></path><circle cx="50.75" cy="71.25" r="8" class="stroke_order_diagram--path_start" transform="matrix(1,0,0,1,1196,-4)"></circle></svg>