<svg style="width: 600px; height: 100px;" viewbox="0 0 600 100"><style>
.stroke_order_diagram--outer_container {
  width: 100%;
  overflow-x: auto;
  overflow-y: hidden;
}

.stroke_order_diagram--guide_line {
  fill: none;
  stroke: #ddd;
  stroke-width: 3;
  stroke-linecap: square;
  stroke-linejoin: square;
  stroke-dasharray:8, 8;
}

.stroke_order_diagram--bounding_box {
  fill: none;
  stroke: #ddd;
  stroke-width: 4;
  stroke-linecap: square;
  stroke-linejoin: square;
}

.stroke_order_diagram--current_path {
  fill: none;
  stroke: #000;
  stroke-width: 6;
  stroke-linecap: round;
  stroke-linejoin: round;
}

.stroke_order_diagram--existing_path {
  fill: none;
  stroke: #aaa;
  stroke-width: 6;
  stroke-linecap: round;
  stroke-linejoin:round;
}

.stroke_order_diagram--path_start {
  fill: rgba(255, 0, 0, 0.7);
  stroke:none
}</style><desc>Created with Snap</desc><defs></defs><line x1="1" x2="599" y1="1" y2="1" class="stroke_order_diagram--bounding_box"></line><line x1="1" x2="1" y1="1" y2="99" class="stroke_order_diagram--bounding_box"></line><line x1="1" x2="599" y1="99" y2="99" class="stroke_order_diagram--bounding_box"></line><line x1="0" x2="600" y1="50" y2="50" class="stroke_order_diagram--guide_line"></line><line x1="50" x2="50" y1="1" y2="99" class="stroke_order_diagram--guide_line"></line><line x1="99" x2="99" y1="1" y2="99" class="stroke_order_diagram--bounding_box"></line><path id="kvg:0897f-s1" kvg:type="㇐" d="M20.63,24.22c2.31,0.34,6.05,0.3,8.35,0.09c15.15-1.43,36.18-3.38,49.83-4.02c3.84-0.18,6.66-0.09,8.58,0.08" transform="matrix(1,0,0,1,-4,-4)" class="stroke_order_diagram--current_path"></path><path id="pathSk2v596cn4ub" kvg:type="㇐" d="M20.63,24.22c2.31,0.34,6.05,0.3,8.35,0.09c15.15-1.43,36.18-3.38,49.83-4.02c3.84-0.18,6.66-0.09,8.58,0.08" transform="matrix(1,0,0,1,-4,-4)" class="stroke_order_diagram--current_path"></path><circle cx="20.63" cy="24.22" r="8" class="stroke_order_diagram--path_start" transform="matrix(1,0,0,1,-4,-4)"></circle><line x1="150" x2="150" y1="1" y2="99" class="stroke_order_diagram--guide_line"></line><line x1="199" x2="199" y1="1" y2="99" class="stroke_order_diagram--bounding_box"></line><path id="pathSk2v596cn4ue" kvg:type="㇐" d="M20.63,24.22c2.31,0.34,6.05,0.3,8.35,0.09c15.15-1.43,36.18-3.38,49.83-4.02c3.84-0.18,6.66-0.09,8.58,0.08" transform="matrix(1,0,0,1,96,-4)" class="stroke_order_diagram--existing_path"></path><path id="kvg:0897f-s2" kvg:type="㇑" d="M18.25,48.63c1.25,1.25,2.14,3.42,2.33,4.49c1.25,6.77,3.24,20.18,5.12,33.35c0.27,1.87,0.53,3.72,0.77,5.53" transform="matrix(1,0,0,1,96,-4)" class="stroke_order_diagram--current_path"></path><path id="pathSk2v596cn4ug" kvg:type="㇑" d="M18.25,48.63c1.25,1.25,2.14,3.42,2.33,4.49c1.25,6.77,3.24,20.18,5.12,33.35c0.27,1.87,0.53,3.72,0.77,5.53" transform="matrix(1,0,0,1,96,-4)" class="stroke_order_diagram--current_path"></path><circle cx="18.25" cy="48.63" r="8" class="stroke_order_diagram--path_start" transform="matrix(1,0,0,1,96,-4)"></circle><line x1="250" x2="250" y1="1" y2="99" class="stroke_order_diagram--guide_line"></line><line x1="299" x2="299" y1="1" y2="99" class="stroke_order_diagram--bounding_box"></line><path id="pathSk2v596cn4uj" kvg:type="㇐" d="M20.63,24.22c2.31,0.34,6.05,0.3,8.35,0.09c15.15-1.43,36.18-3.38,49.83-4.02c3.84-0.18,6.66-0.09,8.58,0.08" transform="matrix(1,0,0,1,196,-4)" class="stroke_order_diagram--existing_path"></path><path id="pathSk2v596cn4uk" kvg:type="㇑" d="M18.25,48.63c1.25,1.25,2.14,3.42,2.33,4.49c1.25,6.77,3.24,20.18,5.12,33.35c0.27,1.87,0.53,3.72,0.77,5.53" transform="matrix(1,0,0,1,196,-4)" class="stroke_order_diagram--existing_path"></path><path id="kvg:0897f-s3" kvg:type="㇕a" d="M20.75,50.26c17.77-1.6,53.73-5.05,63.68-5.27c4.51-0.1,7.27,2.79,6.55,6.54c-1.6,8.35-4.1,21.97-6.49,32.97c-0.36,1.68-0.61,2.5-1.13,4.6" transform="matrix(1,0,0,1,196,-4)" class="stroke_order_diagram--current_path"></path><path id="pathSk2v596cn4um" kvg:type="㇕a" d="M20.75,50.26c17.77-1.6,53.73-5.05,63.68-5.27c4.51-0.1,7.27,2.79,6.55,6.54c-1.6,8.35-4.1,21.97-6.49,32.97c-0.36,1.68-0.61,2.5-1.13,4.6" transform="matrix(1,0,0,1,196,-4)" class="stroke_order_diagram--current_path"></path><circle cx="20.75" cy="50.26" r="8" class="stroke_order_diagram--path_start" transform="matrix(1,0,0,1,196,-4)"></circle><line x1="350" x2="350" y1="1" y2="99" class="stroke_order_diagram--guide_line"></line><line x1="399" x2="399" y1="1" y2="99" class="stroke_order_diagram--bounding_box"></line><path id="pathSk2v596cn4up" kvg:type="㇐" d="M20.63,24.22c2.31,0.34,6.05,0.3,8.35,0.09c15.15-1.43,36.18-3.38,49.83-4.02c3.84-0.18,6.66-0.09,8.58,0.08" transform="matrix(1,0,0,1,296,-4)" class="stroke_order_diagram--existing_path"></path><path id="pathSk2v596cn4uq" kvg:type="㇑" d="M18.25,48.63c1.25,1.25,2.14,3.42,2.33,4.49c1.25,6.77,3.24,20.18,5.12,33.35c0.27,1.87,0.53,3.72,0.77,5.53" transform="matrix(1,0,0,1,296,-4)" class="stroke_order_diagram--existing_path"></path><path id="pathSk2v596cn4ur" kvg:type="㇕a" d="M20.75,50.26c17.77-1.6,53.73-5.05,63.68-5.27c4.51-0.1,7.27,2.79,6.55,6.54c-1.6,8.35-4.1,21.97-6.49,32.97c-0.36,1.68-0.61,2.5-1.13,4.6" transform="matrix(1,0,0,1,296,-4)" class="stroke_order_diagram--existing_path"></path><path id="kvg:0897f-s4" kvg:type="㇒" d="M42.75,26.75c0.5,1.25,0.81,3.99,0.85,5.73C43.98,48.84,42,64.5,30.64,73.77" transform="matrix(1,0,0,1,296,-4)" class="stroke_order_diagram--current_path"></path><path id="pathSk2v596cn4ut" kvg:type="㇒" d="M42.75,26.75c0.5,1.25,0.81,3.99,0.85,5.73C43.98,48.84,42,64.5,30.64,73.77" transform="matrix(1,0,0,1,296,-4)" class="stroke_order_diagram--current_path"></path><circle cx="42.75" cy="26.75" r="8" class="stroke_order_diagram--path_start" transform="matrix(1,0,0,1,296,-4)"></circle><line x1="450" x2="450" y1="1" y2="99" class="stroke_order_diagram--guide_line"></line><line x1="499" x2="499" y1="1" y2="99" class="stroke_order_diagram--bounding_box"></line><path id="pathSk2v596cn4uw" kvg:type="㇐" d="M20.63,24.22c2.31,0.34,6.05,0.3,8.35,0.09c15.15-1.43,36.18-3.38,49.83-4.02c3.84-0.18,6.66-0.09,8.58,0.08" transform="matrix(1,0,0,1,396,-4)" class="stroke_order_diagram--existing_path"></path><path id="pathSk2v596cn4ux" kvg:type="㇑" d="M18.25,48.63c1.25,1.25,2.14,3.42,2.33,4.49c1.25,6.77,3.24,20.18,5.12,33.35c0.27,1.87,0.53,3.72,0.77,5.53" transform="matrix(1,0,0,1,396,-4)" class="stroke_order_diagram--existing_path"></path><path id="pathSk2v596cn4uy" kvg:type="㇕a" d="M20.75,50.26c17.77-1.6,53.73-5.05,63.68-5.27c4.51-0.1,7.27,2.79,6.55,6.54c-1.6,8.35-4.1,21.97-6.49,32.97c-0.36,1.68-0.61,2.5-1.13,4.6" transform="matrix(1,0,0,1,396,-4)" class="stroke_order_diagram--existing_path"></path><path id="pathSk2v596cn4uz" kvg:type="㇒" d="M42.75,26.75c0.5,1.25,0.81,3.99,0.85,5.73C43.98,48.84,42,64.5,30.64,73.77" transform="matrix(1,0,0,1,396,-4)" class="stroke_order_diagram--existing_path"></path><path id="kvg:0897f-s5" kvg:type="㇟a" d="M60.6,24.46c0.94,1.12,1.74,2.94,1.74,4.67c0,13.33-0.45,21.61-0.45,27.37c0,10.25,0.62,11.14,11.36,11.14c6.38,0,8.94-0.54,10.55-1.53" transform="matrix(1,0,0,1,396,-4)" class="stroke_order_diagram--current_path"></path><path id="pathSk2v596cn4v1" kvg:type="㇟a" d="M60.6,24.46c0.94,1.12,1.74,2.94,1.74,4.67c0,13.33-0.45,21.61-0.45,27.37c0,10.25,0.62,11.14,11.36,11.14c6.38,0,8.94-0.54,10.55-1.53" transform="matrix(1,0,0,1,396,-4)" class="stroke_order_diagram--current_path"></path><circle cx="60.6" cy="24.46" r="8" class="stroke_order_diagram--path_start" transform="matrix(1,0,0,1,396,-4)"></circle><line x1="550" x2="550" y1="1" y2="99" class="stroke_order_diagram--guide_line"></line><line x1="599" x2="599" y1="1" y2="99" class="stroke_order_diagram--bounding_box"></line><path id="pathSk2v596cn4v4" kvg:type="㇐" d="M20.63,24.22c2.31,0.34,6.05,0.3,8.35,0.09c15.15-1.43,36.18-3.38,49.83-4.02c3.84-0.18,6.66-0.09,8.58,0.08" transform="matrix(1,0,0,1,496,-4)" class="stroke_order_diagram--existing_path"></path><path id="pathSk2v596cn4v5" kvg:type="㇑" d="M18.25,48.63c1.25,1.25,2.14,3.42,2.33,4.49c1.25,6.77,3.24,20.18,5.12,33.35c0.27,1.87,0.53,3.72,0.77,5.53" transform="matrix(1,0,0,1,496,-4)" class="stroke_order_diagram--existing_path"></path><path id="pathSk2v596cn4v6" kvg:type="㇕a" d="M20.75,50.26c17.77-1.6,53.73-5.05,63.68-5.27c4.51-0.1,7.27,2.79,6.55,6.54c-1.6,8.35-4.1,21.97-6.49,32.97c-0.36,1.68-0.61,2.5-1.13,4.6" transform="matrix(1,0,0,1,496,-4)" class="stroke_order_diagram--existing_path"></path><path id="pathSk2v596cn4v7" kvg:type="㇒" d="M42.75,26.75c0.5,1.25,0.81,3.99,0.85,5.73C43.98,48.84,42,64.5,30.64,73.77" transform="matrix(1,0,0,1,496,-4)" class="stroke_order_diagram--existing_path"></path><path id="pathSk2v596cn4v8" kvg:type="㇟a" d="M60.6,24.46c0.94,1.12,1.74,2.94,1.74,4.67c0,13.33-0.45,21.61-0.45,27.37c0,10.25,0.62,11.14,11.36,11.14c6.38,0,8.94-0.54,10.55-1.53" transform="matrix(1,0,0,1,496,-4)" class="stroke_order_diagram--existing_path"></path><path id="kvg:0897f-s6" kvg:type="㇐a" d="M27.34,88.55C40.75,88,66.69,86.2,83,85.97" transform="matrix(1,0,0,1,496,-4)" class="stroke_order_diagram--current_path"></path><path id="pathSk2v596cn4va" kvg:type="㇐a" d="M27.34,88.55C40.75,88,66.69,86.2,83,85.97" transform="matrix(1,0,0,1,496,-4)" class="stroke_order_diagram--current_path"></path><circle cx="27.34" cy="88.55" r="8" class="stroke_order_diagram--path_start" transform="matrix(1,0,0,1,496,-4)"></circle></svg>