<svg style="width: 900px; height: 100px;" viewbox="0 0 900 100"><style>
.stroke_order_diagram--outer_container {
  width: 100%;
  overflow-x: auto;
  overflow-y: hidden;
}

.stroke_order_diagram--guide_line {
  fill: none;
  stroke: #ddd;
  stroke-width: 3;
  stroke-linecap: square;
  stroke-linejoin: square;
  stroke-dasharray:8, 8;
}

.stroke_order_diagram--bounding_box {
  fill: none;
  stroke: #ddd;
  stroke-width: 4;
  stroke-linecap: square;
  stroke-linejoin: square;
}

.stroke_order_diagram--current_path {
  fill: none;
  stroke: #000;
  stroke-width: 6;
  stroke-linecap: round;
  stroke-linejoin: round;
}

.stroke_order_diagram--existing_path {
  fill: none;
  stroke: #aaa;
  stroke-width: 6;
  stroke-linecap: round;
  stroke-linejoin:round;
}

.stroke_order_diagram--path_start {
  fill: rgba(255, 0, 0, 0.7);
  stroke:none
}</style><desc>Created with Snap</desc><defs></defs><line x1="1" x2="899" y1="1" y2="1" class="stroke_order_diagram--bounding_box"></line><line x1="1" x2="1" y1="1" y2="99" class="stroke_order_diagram--bounding_box"></line><line x1="1" x2="899" y1="99" y2="99" class="stroke_order_diagram--bounding_box"></line><line x1="0" x2="900" y1="50" y2="50" class="stroke_order_diagram--guide_line"></line><line x1="50" x2="50" y1="1" y2="99" class="stroke_order_diagram--guide_line"></line><line x1="99" x2="99" y1="1" y2="99" class="stroke_order_diagram--bounding_box"></line><path id="kvg:08981-s1" kvg:type="㇐" d="M21,17.24c1.78,0.73,5.05,0.84,6.84,0.73c13.66-0.84,39.57-3.31,50.42-4c2.97-0.19,4.87-0.34,6.24-0.04" transform="matrix(1,0,0,1,-4,-4)" class="stroke_order_diagram--current_path"></path><path id="pathSk2v596cndux" kvg:type="㇐" d="M21,17.24c1.78,0.73,5.05,0.84,6.84,0.73c13.66-0.84,39.57-3.31,50.42-4c2.97-0.19,4.87-0.34,6.24-0.04" transform="matrix(1,0,0,1,-4,-4)" class="stroke_order_diagram--current_path"></path><circle cx="21" cy="17.24" r="8" class="stroke_order_diagram--path_start" transform="matrix(1,0,0,1,-4,-4)"></circle><line x1="150" x2="150" y1="1" y2="99" class="stroke_order_diagram--guide_line"></line><line x1="199" x2="199" y1="1" y2="99" class="stroke_order_diagram--bounding_box"></line><path id="pathSk2v596cndv0" kvg:type="㇐" d="M21,17.24c1.78,0.73,5.05,0.84,6.84,0.73c13.66-0.84,39.57-3.31,50.42-4c2.97-0.19,4.87-0.34,6.24-0.04" transform="matrix(1,0,0,1,96,-4)" class="stroke_order_diagram--existing_path"></path><path id="kvg:08981-s2" kvg:type="㇑" d="M22.75,31.19c0.78,0.78,1.46,1.75,1.57,2.88c0.83,3.01,1.49,7.88,2.12,12.18c0.22,1.5,0.43,2.94,0.65,4.2" transform="matrix(1,0,0,1,96,-4)" class="stroke_order_diagram--current_path"></path><path id="pathSk2v596cndv2" kvg:type="㇑" d="M22.75,31.19c0.78,0.78,1.46,1.75,1.57,2.88c0.83,3.01,1.49,7.88,2.12,12.18c0.22,1.5,0.43,2.94,0.65,4.2" transform="matrix(1,0,0,1,96,-4)" class="stroke_order_diagram--current_path"></path><circle cx="22.75" cy="31.19" r="8" class="stroke_order_diagram--path_start" transform="matrix(1,0,0,1,96,-4)"></circle><line x1="250" x2="250" y1="1" y2="99" class="stroke_order_diagram--guide_line"></line><line x1="299" x2="299" y1="1" y2="99" class="stroke_order_diagram--bounding_box"></line><path id="pathSk2v596cndv5" kvg:type="㇐" d="M21,17.24c1.78,0.73,5.05,0.84,6.84,0.73c13.66-0.84,39.57-3.31,50.42-4c2.97-0.19,4.87-0.34,6.24-0.04" transform="matrix(1,0,0,1,196,-4)" class="stroke_order_diagram--existing_path"></path><path id="pathSk2v596cndv6" kvg:type="㇑" d="M22.75,31.19c0.78,0.78,1.46,1.75,1.57,2.88c0.83,3.01,1.49,7.88,2.12,12.18c0.22,1.5,0.43,2.94,0.65,4.2" transform="matrix(1,0,0,1,196,-4)" class="stroke_order_diagram--existing_path"></path><path id="kvg:08981-s3" kvg:type="㇕a" d="M25.29,33.28c20.46-2.78,40.83-4.65,54.33-5.54c3.65-0.24,5.58,0.93,4.45,5.03c-0.81,2.92-1.86,6.35-3.15,9.87c-0.5,1.37-1.04,2.75-1.61,4.12" transform="matrix(1,0,0,1,196,-4)" class="stroke_order_diagram--current_path"></path><path id="pathSk2v596cndv8" kvg:type="㇕a" d="M25.29,33.28c20.46-2.78,40.83-4.65,54.33-5.54c3.65-0.24,5.58,0.93,4.45,5.03c-0.81,2.92-1.86,6.35-3.15,9.87c-0.5,1.37-1.04,2.75-1.61,4.12" transform="matrix(1,0,0,1,196,-4)" class="stroke_order_diagram--current_path"></path><circle cx="25.29" cy="33.28" r="8" class="stroke_order_diagram--path_start" transform="matrix(1,0,0,1,196,-4)"></circle><line x1="350" x2="350" y1="1" y2="99" class="stroke_order_diagram--guide_line"></line><line x1="399" x2="399" y1="1" y2="99" class="stroke_order_diagram--bounding_box"></line><path id="pathSk2v596cndvb" kvg:type="㇐" d="M21,17.24c1.78,0.73,5.05,0.84,6.84,0.73c13.66-0.84,39.57-3.31,50.42-4c2.97-0.19,4.87-0.34,6.24-0.04" transform="matrix(1,0,0,1,296,-4)" class="stroke_order_diagram--existing_path"></path><path id="pathSk2v596cndvc" kvg:type="㇑" d="M22.75,31.19c0.78,0.78,1.46,1.75,1.57,2.88c0.83,3.01,1.49,7.88,2.12,12.18c0.22,1.5,0.43,2.94,0.65,4.2" transform="matrix(1,0,0,1,296,-4)" class="stroke_order_diagram--existing_path"></path><path id="pathSk2v596cndvd" kvg:type="㇕a" d="M25.29,33.28c20.46-2.78,40.83-4.65,54.33-5.54c3.65-0.24,5.58,0.93,4.45,5.03c-0.81,2.92-1.86,6.35-3.15,9.87c-0.5,1.37-1.04,2.75-1.61,4.12" transform="matrix(1,0,0,1,296,-4)" class="stroke_order_diagram--existing_path"></path><path id="kvg:08981-s4" kvg:type="㇑a/㇒" d="M42.37,20c1.13,1.13,1.62,2.48,1.71,3.5c0.42,4.75,1.17,13,1.67,22.5" transform="matrix(1,0,0,1,296,-4)" class="stroke_order_diagram--current_path"></path><path id="pathSk2v596cndvf" kvg:type="㇑a/㇒" d="M42.37,20c1.13,1.13,1.62,2.48,1.71,3.5c0.42,4.75,1.17,13,1.67,22.5" transform="matrix(1,0,0,1,296,-4)" class="stroke_order_diagram--current_path"></path><circle cx="42.37" cy="20" r="8" class="stroke_order_diagram--path_start" transform="matrix(1,0,0,1,296,-4)"></circle><line x1="450" x2="450" y1="1" y2="99" class="stroke_order_diagram--guide_line"></line><line x1="499" x2="499" y1="1" y2="99" class="stroke_order_diagram--bounding_box"></line><path id="pathSk2v596cndvi" kvg:type="㇐" d="M21,17.24c1.78,0.73,5.05,0.84,6.84,0.73c13.66-0.84,39.57-3.31,50.42-4c2.97-0.19,4.87-0.34,6.24-0.04" transform="matrix(1,0,0,1,396,-4)" class="stroke_order_diagram--existing_path"></path><path id="pathSk2v596cndvj" kvg:type="㇑" d="M22.75,31.19c0.78,0.78,1.46,1.75,1.57,2.88c0.83,3.01,1.49,7.88,2.12,12.18c0.22,1.5,0.43,2.94,0.65,4.2" transform="matrix(1,0,0,1,396,-4)" class="stroke_order_diagram--existing_path"></path><path id="pathSk2v596cndvk" kvg:type="㇕a" d="M25.29,33.28c20.46-2.78,40.83-4.65,54.33-5.54c3.65-0.24,5.58,0.93,4.45,5.03c-0.81,2.92-1.86,6.35-3.15,9.87c-0.5,1.37-1.04,2.75-1.61,4.12" transform="matrix(1,0,0,1,396,-4)" class="stroke_order_diagram--existing_path"></path><path id="pathSk2v596cndvl" kvg:type="㇑a/㇒" d="M42.37,20c1.13,1.13,1.62,2.48,1.71,3.5c0.42,4.75,1.17,13,1.67,22.5" transform="matrix(1,0,0,1,396,-4)" class="stroke_order_diagram--existing_path"></path><path id="kvg:08981-s5" kvg:type="㇑a/㇟" d="M63.12,18c0.88,0.88,1.51,2.98,1.13,5.25c-1,6-1.25,10.5-3.25,21.75" transform="matrix(1,0,0,1,396,-4)" class="stroke_order_diagram--current_path"></path><path id="pathSk2v596cndvn" kvg:type="㇑a/㇟" d="M63.12,18c0.88,0.88,1.51,2.98,1.13,5.25c-1,6-1.25,10.5-3.25,21.75" transform="matrix(1,0,0,1,396,-4)" class="stroke_order_diagram--current_path"></path><circle cx="63.12" cy="18" r="8" class="stroke_order_diagram--path_start" transform="matrix(1,0,0,1,396,-4)"></circle><line x1="550" x2="550" y1="1" y2="99" class="stroke_order_diagram--guide_line"></line><line x1="599" x2="599" y1="1" y2="99" class="stroke_order_diagram--bounding_box"></line><path id="pathSk2v596cndvq" kvg:type="㇐" d="M21,17.24c1.78,0.73,5.05,0.84,6.84,0.73c13.66-0.84,39.57-3.31,50.42-4c2.97-0.19,4.87-0.34,6.24-0.04" transform="matrix(1,0,0,1,496,-4)" class="stroke_order_diagram--existing_path"></path><path id="pathSk2v596cndvr" kvg:type="㇑" d="M22.75,31.19c0.78,0.78,1.46,1.75,1.57,2.88c0.83,3.01,1.49,7.88,2.12,12.18c0.22,1.5,0.43,2.94,0.65,4.2" transform="matrix(1,0,0,1,496,-4)" class="stroke_order_diagram--existing_path"></path><path id="pathSk2v596cndvs" kvg:type="㇕a" d="M25.29,33.28c20.46-2.78,40.83-4.65,54.33-5.54c3.65-0.24,5.58,0.93,4.45,5.03c-0.81,2.92-1.86,6.35-3.15,9.87c-0.5,1.37-1.04,2.75-1.61,4.12" transform="matrix(1,0,0,1,496,-4)" class="stroke_order_diagram--existing_path"></path><path id="pathSk2v596cndvt" kvg:type="㇑a/㇒" d="M42.37,20c1.13,1.13,1.62,2.48,1.71,3.5c0.42,4.75,1.17,13,1.67,22.5" transform="matrix(1,0,0,1,496,-4)" class="stroke_order_diagram--existing_path"></path><path id="pathSk2v596cndvu" kvg:type="㇑a/㇟" d="M63.12,18c0.88,0.88,1.51,2.98,1.13,5.25c-1,6-1.25,10.5-3.25,21.75" transform="matrix(1,0,0,1,496,-4)" class="stroke_order_diagram--existing_path"></path><path id="kvg:08981-s6" kvg:type="㇐a" d="M28,48.38c15.63-1.25,32.25-2.38,50.7-3.13" transform="matrix(1,0,0,1,496,-4)" class="stroke_order_diagram--current_path"></path><path id="pathSk2v596cndvw" kvg:type="㇐a" d="M28,48.38c15.63-1.25,32.25-2.38,50.7-3.13" transform="matrix(1,0,0,1,496,-4)" class="stroke_order_diagram--current_path"></path><circle cx="28" cy="48.38" r="8" class="stroke_order_diagram--path_start" transform="matrix(1,0,0,1,496,-4)"></circle><line x1="650" x2="650" y1="1" y2="99" class="stroke_order_diagram--guide_line"></line><line x1="699" x2="699" y1="1" y2="99" class="stroke_order_diagram--bounding_box"></line><path id="pathSk2v596cndvz" kvg:type="㇐" d="M21,17.24c1.78,0.73,5.05,0.84,6.84,0.73c13.66-0.84,39.57-3.31,50.42-4c2.97-0.19,4.87-0.34,6.24-0.04" transform="matrix(1,0,0,1,596,-4)" class="stroke_order_diagram--existing_path"></path><path id="pathSk2v596cndw0" kvg:type="㇑" d="M22.75,31.19c0.78,0.78,1.46,1.75,1.57,2.88c0.83,3.01,1.49,7.88,2.12,12.18c0.22,1.5,0.43,2.94,0.65,4.2" transform="matrix(1,0,0,1,596,-4)" class="stroke_order_diagram--existing_path"></path><path id="pathSk2v596cndw1" kvg:type="㇕a" d="M25.29,33.28c20.46-2.78,40.83-4.65,54.33-5.54c3.65-0.24,5.58,0.93,4.45,5.03c-0.81,2.92-1.86,6.35-3.15,9.87c-0.5,1.37-1.04,2.75-1.61,4.12" transform="matrix(1,0,0,1,596,-4)" class="stroke_order_diagram--existing_path"></path><path id="pathSk2v596cndw2" kvg:type="㇑a/㇒" d="M42.37,20c1.13,1.13,1.62,2.48,1.71,3.5c0.42,4.75,1.17,13,1.67,22.5" transform="matrix(1,0,0,1,596,-4)" class="stroke_order_diagram--existing_path"></path><path id="pathSk2v596cndw3" kvg:type="㇑a/㇟" d="M63.12,18c0.88,0.88,1.51,2.98,1.13,5.25c-1,6-1.25,10.5-3.25,21.75" transform="matrix(1,0,0,1,596,-4)" class="stroke_order_diagram--existing_path"></path><path id="pathSk2v596cndw4" kvg:type="㇐a" d="M28,48.38c15.63-1.25,32.25-2.38,50.7-3.13" transform="matrix(1,0,0,1,596,-4)" class="stroke_order_diagram--existing_path"></path><path id="kvg:08981-s7" kvg:type="㇛" d="M47.28,52.87c0.51,1.25,0.28,2.87-0.26,4.39c-1.77,5-4.2,10.5-10.59,19.28c-1.39,1.91-0.3,2.61,0.74,2.71c11.31,1.13,23.41,4.23,32.95,10.94c3.18,2.24,6.07,4.88,8.56,7.98" transform="matrix(1,0,0,1,596,-4)" class="stroke_order_diagram--current_path"></path><path id="pathSk2v596cndw6" kvg:type="㇛" d="M47.28,52.87c0.51,1.25,0.28,2.87-0.26,4.39c-1.77,5-4.2,10.5-10.59,19.28c-1.39,1.91-0.3,2.61,0.74,2.71c11.31,1.13,23.41,4.23,32.95,10.94c3.18,2.24,6.07,4.88,8.56,7.98" transform="matrix(1,0,0,1,596,-4)" class="stroke_order_diagram--current_path"></path><circle cx="47.28" cy="52.87" r="8" class="stroke_order_diagram--path_start" transform="matrix(1,0,0,1,596,-4)"></circle><line x1="750" x2="750" y1="1" y2="99" class="stroke_order_diagram--guide_line"></line><line x1="799" x2="799" y1="1" y2="99" class="stroke_order_diagram--bounding_box"></line><path id="pathSk2v596cndw9" kvg:type="㇐" d="M21,17.24c1.78,0.73,5.05,0.84,6.84,0.73c13.66-0.84,39.57-3.31,50.42-4c2.97-0.19,4.87-0.34,6.24-0.04" transform="matrix(1,0,0,1,696,-4)" class="stroke_order_diagram--existing_path"></path><path id="pathSk2v596cndwa" kvg:type="㇑" d="M22.75,31.19c0.78,0.78,1.46,1.75,1.57,2.88c0.83,3.01,1.49,7.88,2.12,12.18c0.22,1.5,0.43,2.94,0.65,4.2" transform="matrix(1,0,0,1,696,-4)" class="stroke_order_diagram--existing_path"></path><path id="pathSk2v596cndwb" kvg:type="㇕a" d="M25.29,33.28c20.46-2.78,40.83-4.65,54.33-5.54c3.65-0.24,5.58,0.93,4.45,5.03c-0.81,2.92-1.86,6.35-3.15,9.87c-0.5,1.37-1.04,2.75-1.61,4.12" transform="matrix(1,0,0,1,696,-4)" class="stroke_order_diagram--existing_path"></path><path id="pathSk2v596cndwc" kvg:type="㇑a/㇒" d="M42.37,20c1.13,1.13,1.62,2.48,1.71,3.5c0.42,4.75,1.17,13,1.67,22.5" transform="matrix(1,0,0,1,696,-4)" class="stroke_order_diagram--existing_path"></path><path id="pathSk2v596cndwd" kvg:type="㇑a/㇟" d="M63.12,18c0.88,0.88,1.51,2.98,1.13,5.25c-1,6-1.25,10.5-3.25,21.75" transform="matrix(1,0,0,1,696,-4)" class="stroke_order_diagram--existing_path"></path><path id="pathSk2v596cndwe" kvg:type="㇐a" d="M28,48.38c15.63-1.25,32.25-2.38,50.7-3.13" transform="matrix(1,0,0,1,696,-4)" class="stroke_order_diagram--existing_path"></path><path id="pathSk2v596cndwf" kvg:type="㇛" d="M47.28,52.87c0.51,1.25,0.28,2.87-0.26,4.39c-1.77,5-4.2,10.5-10.59,19.28c-1.39,1.91-0.3,2.61,0.74,2.71c11.31,1.13,23.41,4.23,32.95,10.94c3.18,2.24,6.07,4.88,8.56,7.98" transform="matrix(1,0,0,1,696,-4)" class="stroke_order_diagram--existing_path"></path><path id="kvg:08981-s8" kvg:type="㇒" d="M69.62,57.75c0.25,1.5,0.22,3.35-0.26,4.77c-3.96,11.46-14.07,30.7-43.12,37.73" transform="matrix(1,0,0,1,696,-4)" class="stroke_order_diagram--current_path"></path><path id="pathSk2v596cndwh" kvg:type="㇒" d="M69.62,57.75c0.25,1.5,0.22,3.35-0.26,4.77c-3.96,11.46-14.07,30.7-43.12,37.73" transform="matrix(1,0,0,1,696,-4)" class="stroke_order_diagram--current_path"></path><circle cx="69.62" cy="57.75" r="8" class="stroke_order_diagram--path_start" transform="matrix(1,0,0,1,696,-4)"></circle><line x1="850" x2="850" y1="1" y2="99" class="stroke_order_diagram--guide_line"></line><line x1="899" x2="899" y1="1" y2="99" class="stroke_order_diagram--bounding_box"></line><path id="pathSk2v596cndwk" kvg:type="㇐" d="M21,17.24c1.78,0.73,5.05,0.84,6.84,0.73c13.66-0.84,39.57-3.31,50.42-4c2.97-0.19,4.87-0.34,6.24-0.04" transform="matrix(1,0,0,1,796,-4)" class="stroke_order_diagram--existing_path"></path><path id="pathSk2v596cndwl" kvg:type="㇑" d="M22.75,31.19c0.78,0.78,1.46,1.75,1.57,2.88c0.83,3.01,1.49,7.88,2.12,12.18c0.22,1.5,0.43,2.94,0.65,4.2" transform="matrix(1,0,0,1,796,-4)" class="stroke_order_diagram--existing_path"></path><path id="pathSk2v596cndwm" kvg:type="㇕a" d="M25.29,33.28c20.46-2.78,40.83-4.65,54.33-5.54c3.65-0.24,5.58,0.93,4.45,5.03c-0.81,2.92-1.86,6.35-3.15,9.87c-0.5,1.37-1.04,2.75-1.61,4.12" transform="matrix(1,0,0,1,796,-4)" class="stroke_order_diagram--existing_path"></path><path id="pathSk2v596cndwn" kvg:type="㇑a/㇒" d="M42.37,20c1.13,1.13,1.62,2.48,1.71,3.5c0.42,4.75,1.17,13,1.67,22.5" transform="matrix(1,0,0,1,796,-4)" class="stroke_order_diagram--existing_path"></path><path id="pathSk2v596cndwo" kvg:type="㇑a/㇟" d="M63.12,18c0.88,0.88,1.51,2.98,1.13,5.25c-1,6-1.25,10.5-3.25,21.75" transform="matrix(1,0,0,1,796,-4)" class="stroke_order_diagram--existing_path"></path><path id="pathSk2v596cndwp" kvg:type="㇐a" d="M28,48.38c15.63-1.25,32.25-2.38,50.7-3.13" transform="matrix(1,0,0,1,796,-4)" class="stroke_order_diagram--existing_path"></path><path id="pathSk2v596cndwq" kvg:type="㇛" d="M47.28,52.87c0.51,1.25,0.28,2.87-0.26,4.39c-1.77,5-4.2,10.5-10.59,19.28c-1.39,1.91-0.3,2.61,0.74,2.71c11.31,1.13,23.41,4.23,32.95,10.94c3.18,2.24,6.07,4.88,8.56,7.98" transform="matrix(1,0,0,1,796,-4)" class="stroke_order_diagram--existing_path"></path><path id="pathSk2v596cndwr" kvg:type="㇒" d="M69.62,57.75c0.25,1.5,0.22,3.35-0.26,4.77c-3.96,11.46-14.07,30.7-43.12,37.73" transform="matrix(1,0,0,1,796,-4)" class="stroke_order_diagram--existing_path"></path><path id="kvg:08981-s9" kvg:type="㇐" d="M13.13,66.65c3,0.62,6.21,0.39,9.25,0.19c15.85-1.01,45.88-3.34,65.5-4c2.69-0.09,7.32,0.31,9.5,0.9" transform="matrix(1,0,0,1,796,-4)" class="stroke_order_diagram--current_path"></path><path id="pathSk2v596cndwt" kvg:type="㇐" d="M13.13,66.65c3,0.62,6.21,0.39,9.25,0.19c15.85-1.01,45.88-3.34,65.5-4c2.69-0.09,7.32,0.31,9.5,0.9" transform="matrix(1,0,0,1,796,-4)" class="stroke_order_diagram--current_path"></path><circle cx="13.13" cy="66.65" r="8" class="stroke_order_diagram--path_start" transform="matrix(1,0,0,1,796,-4)"></circle></svg>