<svg style="width: 1000px; height: 100px;" viewbox="0 0 1000 100"><style>
.stroke_order_diagram--outer_container {
  width: 100%;
  overflow-x: auto;
  overflow-y: hidden;
}

.stroke_order_diagram--guide_line {
  fill: none;
  stroke: #ddd;
  stroke-width: 3;
  stroke-linecap: square;
  stroke-linejoin: square;
  stroke-dasharray:8, 8;
}

.stroke_order_diagram--bounding_box {
  fill: none;
  stroke: #ddd;
  stroke-width: 4;
  stroke-linecap: square;
  stroke-linejoin: square;
}

.stroke_order_diagram--current_path {
  fill: none;
  stroke: #000;
  stroke-width: 6;
  stroke-linecap: round;
  stroke-linejoin: round;
}

.stroke_order_diagram--existing_path {
  fill: none;
  stroke: #aaa;
  stroke-width: 6;
  stroke-linecap: round;
  stroke-linejoin:round;
}

.stroke_order_diagram--path_start {
  fill: rgba(255, 0, 0, 0.7);
  stroke:none
}</style><desc>Created with Snap</desc><defs></defs><line x1="1" x2="999" y1="1" y2="1" class="stroke_order_diagram--bounding_box"></line><line x1="1" x2="1" y1="1" y2="99" class="stroke_order_diagram--bounding_box"></line><line x1="1" x2="999" y1="99" y2="99" class="stroke_order_diagram--bounding_box"></line><line x1="0" x2="1000" y1="50" y2="50" class="stroke_order_diagram--guide_line"></line><line x1="50" x2="50" y1="1" y2="99" class="stroke_order_diagram--guide_line"></line><line x1="99" x2="99" y1="1" y2="99" class="stroke_order_diagram--bounding_box"></line><path id="kvg:08a13-s1" kvg:type="㇔" d="M23.88,13.25c3.4,1.72,8.78,7.07,9.62,9.75" transform="matrix(1,0,0,1,-4,-4)" class="stroke_order_diagram--current_path"></path><path id="pathSk2v596cn1528" kvg:type="㇔" d="M23.88,13.25c3.4,1.72,8.78,7.07,9.62,9.75" transform="matrix(1,0,0,1,-4,-4)" class="stroke_order_diagram--current_path"></path><circle cx="23.88" cy="13.25" r="8" class="stroke_order_diagram--path_start" transform="matrix(1,0,0,1,-4,-4)"></circle><line x1="150" x2="150" y1="1" y2="99" class="stroke_order_diagram--guide_line"></line><line x1="199" x2="199" y1="1" y2="99" class="stroke_order_diagram--bounding_box"></line><path id="pathSk2v596cn152b" kvg:type="㇔" d="M23.88,13.25c3.4,1.72,8.78,7.07,9.62,9.75" transform="matrix(1,0,0,1,96,-4)" class="stroke_order_diagram--existing_path"></path><path id="kvg:08a13-s2" kvg:type="㇐" d="M13.62,31.58c1.52,0.56,3.7,0.24,5.27,0.13c7.06-0.52,16.37-1.97,21.88-2.61c1.54-0.18,3.05-0.51,4.58-0.18" transform="matrix(1,0,0,1,96,-4)" class="stroke_order_diagram--current_path"></path><path id="pathSk2v596cn152d" kvg:type="㇐" d="M13.62,31.58c1.52,0.56,3.7,0.24,5.27,0.13c7.06-0.52,16.37-1.97,21.88-2.61c1.54-0.18,3.05-0.51,4.58-0.18" transform="matrix(1,0,0,1,96,-4)" class="stroke_order_diagram--current_path"></path><circle cx="13.62" cy="31.58" r="8" class="stroke_order_diagram--path_start" transform="matrix(1,0,0,1,96,-4)"></circle><line x1="250" x2="250" y1="1" y2="99" class="stroke_order_diagram--guide_line"></line><line x1="299" x2="299" y1="1" y2="99" class="stroke_order_diagram--bounding_box"></line><path id="pathSk2v596cn152g" kvg:type="㇔" d="M23.88,13.25c3.4,1.72,8.78,7.07,9.62,9.75" transform="matrix(1,0,0,1,196,-4)" class="stroke_order_diagram--existing_path"></path><path id="pathSk2v596cn152h" kvg:type="㇐" d="M13.62,31.58c1.52,0.56,3.7,0.24,5.27,0.13c7.06-0.52,16.37-1.97,21.88-2.61c1.54-0.18,3.05-0.51,4.58-0.18" transform="matrix(1,0,0,1,196,-4)" class="stroke_order_diagram--existing_path"></path><path id="kvg:08a13-s3" kvg:type="㇐" d="M18.98,44.56c1.17,0.37,2.81,0.15,4.02,0.07c3.83-0.25,10.63-1.25,13.93-2.04c1.45-0.34,2.99-0.63,4.46-0.35" transform="matrix(1,0,0,1,196,-4)" class="stroke_order_diagram--current_path"></path><path id="pathSk2v596cn152j" kvg:type="㇐" d="M18.98,44.56c1.17,0.37,2.81,0.15,4.02,0.07c3.83-0.25,10.63-1.25,13.93-2.04c1.45-0.34,2.99-0.63,4.46-0.35" transform="matrix(1,0,0,1,196,-4)" class="stroke_order_diagram--current_path"></path><circle cx="18.98" cy="44.56" r="8" class="stroke_order_diagram--path_start" transform="matrix(1,0,0,1,196,-4)"></circle><line x1="350" x2="350" y1="1" y2="99" class="stroke_order_diagram--guide_line"></line><line x1="399" x2="399" y1="1" y2="99" class="stroke_order_diagram--bounding_box"></line><path id="pathSk2v596cn152m" kvg:type="㇔" d="M23.88,13.25c3.4,1.72,8.78,7.07,9.62,9.75" transform="matrix(1,0,0,1,296,-4)" class="stroke_order_diagram--existing_path"></path><path id="pathSk2v596cn152n" kvg:type="㇐" d="M13.62,31.58c1.52,0.56,3.7,0.24,5.27,0.13c7.06-0.52,16.37-1.97,21.88-2.61c1.54-0.18,3.05-0.51,4.58-0.18" transform="matrix(1,0,0,1,296,-4)" class="stroke_order_diagram--existing_path"></path><path id="pathSk2v596cn152o" kvg:type="㇐" d="M18.98,44.56c1.17,0.37,2.81,0.15,4.02,0.07c3.83-0.25,10.63-1.25,13.93-2.04c1.45-0.34,2.99-0.63,4.46-0.35" transform="matrix(1,0,0,1,296,-4)" class="stroke_order_diagram--existing_path"></path><path id="kvg:08a13-s4" kvg:type="㇐" d="M19.48,56.08c0.98,0.34,2.36,0.15,3.4,0.08c3.24-0.22,9.07-1.21,12.76-1.49c1.5-0.11,3.24-0.3,4.89-0.21" transform="matrix(1,0,0,1,296,-4)" class="stroke_order_diagram--current_path"></path><path id="pathSk2v596cn152q" kvg:type="㇐" d="M19.48,56.08c0.98,0.34,2.36,0.15,3.4,0.08c3.24-0.22,9.07-1.21,12.76-1.49c1.5-0.11,3.24-0.3,4.89-0.21" transform="matrix(1,0,0,1,296,-4)" class="stroke_order_diagram--current_path"></path><circle cx="19.48" cy="56.08" r="8" class="stroke_order_diagram--path_start" transform="matrix(1,0,0,1,296,-4)"></circle><line x1="450" x2="450" y1="1" y2="99" class="stroke_order_diagram--guide_line"></line><line x1="499" x2="499" y1="1" y2="99" class="stroke_order_diagram--bounding_box"></line><path id="pathSk2v596cn152t" kvg:type="㇔" d="M23.88,13.25c3.4,1.72,8.78,7.07,9.62,9.75" transform="matrix(1,0,0,1,396,-4)" class="stroke_order_diagram--existing_path"></path><path id="pathSk2v596cn152u" kvg:type="㇐" d="M13.62,31.58c1.52,0.56,3.7,0.24,5.27,0.13c7.06-0.52,16.37-1.97,21.88-2.61c1.54-0.18,3.05-0.51,4.58-0.18" transform="matrix(1,0,0,1,396,-4)" class="stroke_order_diagram--existing_path"></path><path id="pathSk2v596cn152v" kvg:type="㇐" d="M18.98,44.56c1.17,0.37,2.81,0.15,4.02,0.07c3.83-0.25,10.63-1.25,13.93-2.04c1.45-0.34,2.99-0.63,4.46-0.35" transform="matrix(1,0,0,1,396,-4)" class="stroke_order_diagram--existing_path"></path><path id="pathSk2v596cn152w" kvg:type="㇐" d="M19.48,56.08c0.98,0.34,2.36,0.15,3.4,0.08c3.24-0.22,9.07-1.21,12.76-1.49c1.5-0.11,3.24-0.3,4.89-0.21" transform="matrix(1,0,0,1,396,-4)" class="stroke_order_diagram--existing_path"></path><path id="kvg:08a13-s5" kvg:type="㇑" d="M18.64,69.4c0.72,0.62,1.1,1.4,1.12,2.34c0.74,3.72,1.33,9.34,1.77,15c0.08,1,0.15,2.01,0.22,3" transform="matrix(1,0,0,1,396,-4)" class="stroke_order_diagram--current_path"></path><path id="pathSk2v596cn152y" kvg:type="㇑" d="M18.64,69.4c0.72,0.62,1.1,1.4,1.12,2.34c0.74,3.72,1.33,9.34,1.77,15c0.08,1,0.15,2.01,0.22,3" transform="matrix(1,0,0,1,396,-4)" class="stroke_order_diagram--current_path"></path><circle cx="18.64" cy="69.4" r="8" class="stroke_order_diagram--path_start" transform="matrix(1,0,0,1,396,-4)"></circle><line x1="550" x2="550" y1="1" y2="99" class="stroke_order_diagram--guide_line"></line><line x1="599" x2="599" y1="1" y2="99" class="stroke_order_diagram--bounding_box"></line><path id="pathSk2v596cn1531" kvg:type="㇔" d="M23.88,13.25c3.4,1.72,8.78,7.07,9.62,9.75" transform="matrix(1,0,0,1,496,-4)" class="stroke_order_diagram--existing_path"></path><path id="pathSk2v596cn1532" kvg:type="㇐" d="M13.62,31.58c1.52,0.56,3.7,0.24,5.27,0.13c7.06-0.52,16.37-1.97,21.88-2.61c1.54-0.18,3.05-0.51,4.58-0.18" transform="matrix(1,0,0,1,496,-4)" class="stroke_order_diagram--existing_path"></path><path id="pathSk2v596cn1533" kvg:type="㇐" d="M18.98,44.56c1.17,0.37,2.81,0.15,4.02,0.07c3.83-0.25,10.63-1.25,13.93-2.04c1.45-0.34,2.99-0.63,4.46-0.35" transform="matrix(1,0,0,1,496,-4)" class="stroke_order_diagram--existing_path"></path><path id="pathSk2v596cn1534" kvg:type="㇐" d="M19.48,56.08c0.98,0.34,2.36,0.15,3.4,0.08c3.24-0.22,9.07-1.21,12.76-1.49c1.5-0.11,3.24-0.3,4.89-0.21" transform="matrix(1,0,0,1,496,-4)" class="stroke_order_diagram--existing_path"></path><path id="pathSk2v596cn1535" kvg:type="㇑" d="M18.64,69.4c0.72,0.62,1.1,1.4,1.12,2.34c0.74,3.72,1.33,9.34,1.77,15c0.08,1,0.15,2.01,0.22,3" transform="matrix(1,0,0,1,496,-4)" class="stroke_order_diagram--existing_path"></path><path id="kvg:08a13-s6" kvg:type="㇕b" d="M20.56,70.87c5.99-0.83,10.99-1.72,16.44-2.56c2.72-0.42,3.65,0.73,3.17,3.34c-0.71,3.82-1.07,7.68-2.5,14.06" transform="matrix(1,0,0,1,496,-4)" class="stroke_order_diagram--current_path"></path><path id="pathSk2v596cn1537" kvg:type="㇕b" d="M20.56,70.87c5.99-0.83,10.99-1.72,16.44-2.56c2.72-0.42,3.65,0.73,3.17,3.34c-0.71,3.82-1.07,7.68-2.5,14.06" transform="matrix(1,0,0,1,496,-4)" class="stroke_order_diagram--current_path"></path><circle cx="20.56" cy="70.87" r="8" class="stroke_order_diagram--path_start" transform="matrix(1,0,0,1,496,-4)"></circle><line x1="650" x2="650" y1="1" y2="99" class="stroke_order_diagram--guide_line"></line><line x1="699" x2="699" y1="1" y2="99" class="stroke_order_diagram--bounding_box"></line><path id="pathSk2v596cn153a" kvg:type="㇔" d="M23.88,13.25c3.4,1.72,8.78,7.07,9.62,9.75" transform="matrix(1,0,0,1,596,-4)" class="stroke_order_diagram--existing_path"></path><path id="pathSk2v596cn153b" kvg:type="㇐" d="M13.62,31.58c1.52,0.56,3.7,0.24,5.27,0.13c7.06-0.52,16.37-1.97,21.88-2.61c1.54-0.18,3.05-0.51,4.58-0.18" transform="matrix(1,0,0,1,596,-4)" class="stroke_order_diagram--existing_path"></path><path id="pathSk2v596cn153c" kvg:type="㇐" d="M18.98,44.56c1.17,0.37,2.81,0.15,4.02,0.07c3.83-0.25,10.63-1.25,13.93-2.04c1.45-0.34,2.99-0.63,4.46-0.35" transform="matrix(1,0,0,1,596,-4)" class="stroke_order_diagram--existing_path"></path><path id="pathSk2v596cn153d" kvg:type="㇐" d="M19.48,56.08c0.98,0.34,2.36,0.15,3.4,0.08c3.24-0.22,9.07-1.21,12.76-1.49c1.5-0.11,3.24-0.3,4.89-0.21" transform="matrix(1,0,0,1,596,-4)" class="stroke_order_diagram--existing_path"></path><path id="pathSk2v596cn153e" kvg:type="㇑" d="M18.64,69.4c0.72,0.62,1.1,1.4,1.12,2.34c0.74,3.72,1.33,9.34,1.77,15c0.08,1,0.15,2.01,0.22,3" transform="matrix(1,0,0,1,596,-4)" class="stroke_order_diagram--existing_path"></path><path id="pathSk2v596cn153f" kvg:type="㇕b" d="M20.56,70.87c5.99-0.83,10.99-1.72,16.44-2.56c2.72-0.42,3.65,0.73,3.17,3.34c-0.71,3.82-1.07,7.68-2.5,14.06" transform="matrix(1,0,0,1,596,-4)" class="stroke_order_diagram--existing_path"></path><path id="kvg:08a13-s7" kvg:type="㇐b" d="M22.47,87.8c4.18-0.47,7.64-0.92,13.78-1.36c0.91-0.07,1.88-0.13,2.91-0.2" transform="matrix(1,0,0,1,596,-4)" class="stroke_order_diagram--current_path"></path><path id="pathSk2v596cn153h" kvg:type="㇐b" d="M22.47,87.8c4.18-0.47,7.64-0.92,13.78-1.36c0.91-0.07,1.88-0.13,2.91-0.2" transform="matrix(1,0,0,1,596,-4)" class="stroke_order_diagram--current_path"></path><circle cx="22.47" cy="87.8" r="8" class="stroke_order_diagram--path_start" transform="matrix(1,0,0,1,596,-4)"></circle><line x1="750" x2="750" y1="1" y2="99" class="stroke_order_diagram--guide_line"></line><line x1="799" x2="799" y1="1" y2="99" class="stroke_order_diagram--bounding_box"></line><path id="pathSk2v596cn153k" kvg:type="㇔" d="M23.88,13.25c3.4,1.72,8.78,7.07,9.62,9.75" transform="matrix(1,0,0,1,696,-4)" class="stroke_order_diagram--existing_path"></path><path id="pathSk2v596cn153l" kvg:type="㇐" d="M13.62,31.58c1.52,0.56,3.7,0.24,5.27,0.13c7.06-0.52,16.37-1.97,21.88-2.61c1.54-0.18,3.05-0.51,4.58-0.18" transform="matrix(1,0,0,1,696,-4)" class="stroke_order_diagram--existing_path"></path><path id="pathSk2v596cn153m" kvg:type="㇐" d="M18.98,44.56c1.17,0.37,2.81,0.15,4.02,0.07c3.83-0.25,10.63-1.25,13.93-2.04c1.45-0.34,2.99-0.63,4.46-0.35" transform="matrix(1,0,0,1,696,-4)" class="stroke_order_diagram--existing_path"></path><path id="pathSk2v596cn153n" kvg:type="㇐" d="M19.48,56.08c0.98,0.34,2.36,0.15,3.4,0.08c3.24-0.22,9.07-1.21,12.76-1.49c1.5-0.11,3.24-0.3,4.89-0.21" transform="matrix(1,0,0,1,696,-4)" class="stroke_order_diagram--existing_path"></path><path id="pathSk2v596cn153o" kvg:type="㇑" d="M18.64,69.4c0.72,0.62,1.1,1.4,1.12,2.34c0.74,3.72,1.33,9.34,1.77,15c0.08,1,0.15,2.01,0.22,3" transform="matrix(1,0,0,1,696,-4)" class="stroke_order_diagram--existing_path"></path><path id="pathSk2v596cn153p" kvg:type="㇕b" d="M20.56,70.87c5.99-0.83,10.99-1.72,16.44-2.56c2.72-0.42,3.65,0.73,3.17,3.34c-0.71,3.82-1.07,7.68-2.5,14.06" transform="matrix(1,0,0,1,696,-4)" class="stroke_order_diagram--existing_path"></path><path id="pathSk2v596cn153q" kvg:type="㇐b" d="M22.47,87.8c4.18-0.47,7.64-0.92,13.78-1.36c0.91-0.07,1.88-0.13,2.91-0.2" transform="matrix(1,0,0,1,696,-4)" class="stroke_order_diagram--existing_path"></path><path id="kvg:08a13-s8" kvg:type="㇒" d="M54.72,20.18c1.12,1.12,1.69,2.7,1.69,4.62C56.5,70.5,53.5,81.25,41.5,93" transform="matrix(1,0,0,1,696,-4)" class="stroke_order_diagram--current_path"></path><path id="pathSk2v596cn153s" kvg:type="㇒" d="M54.72,20.18c1.12,1.12,1.69,2.7,1.69,4.62C56.5,70.5,53.5,81.25,41.5,93" transform="matrix(1,0,0,1,696,-4)" class="stroke_order_diagram--current_path"></path><circle cx="54.72" cy="20.18" r="8" class="stroke_order_diagram--path_start" transform="matrix(1,0,0,1,696,-4)"></circle><line x1="850" x2="850" y1="1" y2="99" class="stroke_order_diagram--guide_line"></line><line x1="899" x2="899" y1="1" y2="99" class="stroke_order_diagram--bounding_box"></line><path id="pathSk2v596cn153v" kvg:type="㇔" d="M23.88,13.25c3.4,1.72,8.78,7.07,9.62,9.75" transform="matrix(1,0,0,1,796,-4)" class="stroke_order_diagram--existing_path"></path><path id="pathSk2v596cn153w" kvg:type="㇐" d="M13.62,31.58c1.52,0.56,3.7,0.24,5.27,0.13c7.06-0.52,16.37-1.97,21.88-2.61c1.54-0.18,3.05-0.51,4.58-0.18" transform="matrix(1,0,0,1,796,-4)" class="stroke_order_diagram--existing_path"></path><path id="pathSk2v596cn153x" kvg:type="㇐" d="M18.98,44.56c1.17,0.37,2.81,0.15,4.02,0.07c3.83-0.25,10.63-1.25,13.93-2.04c1.45-0.34,2.99-0.63,4.46-0.35" transform="matrix(1,0,0,1,796,-4)" class="stroke_order_diagram--existing_path"></path><path id="pathSk2v596cn153y" kvg:type="㇐" d="M19.48,56.08c0.98,0.34,2.36,0.15,3.4,0.08c3.24-0.22,9.07-1.21,12.76-1.49c1.5-0.11,3.24-0.3,4.89-0.21" transform="matrix(1,0,0,1,796,-4)" class="stroke_order_diagram--existing_path"></path><path id="pathSk2v596cn153z" kvg:type="㇑" d="M18.64,69.4c0.72,0.62,1.1,1.4,1.12,2.34c0.74,3.72,1.33,9.34,1.77,15c0.08,1,0.15,2.01,0.22,3" transform="matrix(1,0,0,1,796,-4)" class="stroke_order_diagram--existing_path"></path><path id="pathSk2v596cn1540" kvg:type="㇕b" d="M20.56,70.87c5.99-0.83,10.99-1.72,16.44-2.56c2.72-0.42,3.65,0.73,3.17,3.34c-0.71,3.82-1.07,7.68-2.5,14.06" transform="matrix(1,0,0,1,796,-4)" class="stroke_order_diagram--existing_path"></path><path id="pathSk2v596cn1541" kvg:type="㇐b" d="M22.47,87.8c4.18-0.47,7.64-0.92,13.78-1.36c0.91-0.07,1.88-0.13,2.91-0.2" transform="matrix(1,0,0,1,796,-4)" class="stroke_order_diagram--existing_path"></path><path id="pathSk2v596cn1542" kvg:type="㇒" d="M54.72,20.18c1.12,1.12,1.69,2.7,1.69,4.62C56.5,70.5,53.5,81.25,41.5,93" transform="matrix(1,0,0,1,796,-4)" class="stroke_order_diagram--existing_path"></path><path id="kvg:08a13-s9" kvg:type="㇑" d="M71.75,18.88c1.06,1.06,1.41,2.37,1.41,3.65c0,0.58-0.04,31.38-0.09,45.84c-0.01,3.56-0.03,6.12-0.05,7.01" transform="matrix(1,0,0,1,796,-4)" class="stroke_order_diagram--current_path"></path><path id="pathSk2v596cn1544" kvg:type="㇑" d="M71.75,18.88c1.06,1.06,1.41,2.37,1.41,3.65c0,0.58-0.04,31.38-0.09,45.84c-0.01,3.56-0.03,6.12-0.05,7.01" transform="matrix(1,0,0,1,796,-4)" class="stroke_order_diagram--current_path"></path><circle cx="71.75" cy="18.88" r="8" class="stroke_order_diagram--path_start" transform="matrix(1,0,0,1,796,-4)"></circle><line x1="950" x2="950" y1="1" y2="99" class="stroke_order_diagram--guide_line"></line><line x1="999" x2="999" y1="1" y2="99" class="stroke_order_diagram--bounding_box"></line><path id="pathSk2v596cn1547" kvg:type="㇔" d="M23.88,13.25c3.4,1.72,8.78,7.07,9.62,9.75" transform="matrix(1,0,0,1,896,-4)" class="stroke_order_diagram--existing_path"></path><path id="pathSk2v596cn1548" kvg:type="㇐" d="M13.62,31.58c1.52,0.56,3.7,0.24,5.27,0.13c7.06-0.52,16.37-1.97,21.88-2.61c1.54-0.18,3.05-0.51,4.58-0.18" transform="matrix(1,0,0,1,896,-4)" class="stroke_order_diagram--existing_path"></path><path id="pathSk2v596cn1549" kvg:type="㇐" d="M18.98,44.56c1.17,0.37,2.81,0.15,4.02,0.07c3.83-0.25,10.63-1.25,13.93-2.04c1.45-0.34,2.99-0.63,4.46-0.35" transform="matrix(1,0,0,1,896,-4)" class="stroke_order_diagram--existing_path"></path><path id="pathSk2v596cn154a" kvg:type="㇐" d="M19.48,56.08c0.98,0.34,2.36,0.15,3.4,0.08c3.24-0.22,9.07-1.21,12.76-1.49c1.5-0.11,3.24-0.3,4.89-0.21" transform="matrix(1,0,0,1,896,-4)" class="stroke_order_diagram--existing_path"></path><path id="pathSk2v596cn154b" kvg:type="㇑" d="M18.64,69.4c0.72,0.62,1.1,1.4,1.12,2.34c0.74,3.72,1.33,9.34,1.77,15c0.08,1,0.15,2.01,0.22,3" transform="matrix(1,0,0,1,896,-4)" class="stroke_order_diagram--existing_path"></path><path id="pathSk2v596cn154c" kvg:type="㇕b" d="M20.56,70.87c5.99-0.83,10.99-1.72,16.44-2.56c2.72-0.42,3.65,0.73,3.17,3.34c-0.71,3.82-1.07,7.68-2.5,14.06" transform="matrix(1,0,0,1,896,-4)" class="stroke_order_diagram--existing_path"></path><path id="pathSk2v596cn154d" kvg:type="㇐b" d="M22.47,87.8c4.18-0.47,7.64-0.92,13.78-1.36c0.91-0.07,1.88-0.13,2.91-0.2" transform="matrix(1,0,0,1,896,-4)" class="stroke_order_diagram--existing_path"></path><path id="pathSk2v596cn154e" kvg:type="㇒" d="M54.72,20.18c1.12,1.12,1.69,2.7,1.69,4.62C56.5,70.5,53.5,81.25,41.5,93" transform="matrix(1,0,0,1,896,-4)" class="stroke_order_diagram--existing_path"></path><path id="pathSk2v596cn154f" kvg:type="㇑" d="M71.75,18.88c1.06,1.06,1.41,2.37,1.41,3.65c0,0.58-0.04,31.38-0.09,45.84c-0.01,3.56-0.03,6.12-0.05,7.01" transform="matrix(1,0,0,1,896,-4)" class="stroke_order_diagram--existing_path"></path><path id="kvg:08a13-s10" kvg:type="㇑" d="M89.81,15.13c1.09,1.09,1.51,2.49,1.51,4c0,0.79,0,50.1,0,69.12c0,2.96,0,5.19,0,6.38" transform="matrix(1,0,0,1,896,-4)" class="stroke_order_diagram--current_path"></path><path id="pathSk2v596cn154h" kvg:type="㇑" d="M89.81,15.13c1.09,1.09,1.51,2.49,1.51,4c0,0.79,0,50.1,0,69.12c0,2.96,0,5.19,0,6.38" transform="matrix(1,0,0,1,896,-4)" class="stroke_order_diagram--current_path"></path><circle cx="89.81" cy="15.13" r="8" class="stroke_order_diagram--path_start" transform="matrix(1,0,0,1,896,-4)"></circle></svg>