<svg style="width: 1000px; height: 100px;" viewbox="0 0 1000 100"><style>
.stroke_order_diagram--outer_container {
  width: 100%;
  overflow-x: auto;
  overflow-y: hidden;
}

.stroke_order_diagram--guide_line {
  fill: none;
  stroke: #ddd;
  stroke-width: 3;
  stroke-linecap: square;
  stroke-linejoin: square;
  stroke-dasharray:8, 8;
}

.stroke_order_diagram--bounding_box {
  fill: none;
  stroke: #ddd;
  stroke-width: 4;
  stroke-linecap: square;
  stroke-linejoin: square;
}

.stroke_order_diagram--current_path {
  fill: none;
  stroke: #000;
  stroke-width: 6;
  stroke-linecap: round;
  stroke-linejoin: round;
}

.stroke_order_diagram--existing_path {
  fill: none;
  stroke: #aaa;
  stroke-width: 6;
  stroke-linecap: round;
  stroke-linejoin:round;
}

.stroke_order_diagram--path_start {
  fill: rgba(255, 0, 0, 0.7);
  stroke:none
}</style><desc>Created with Snap</desc><defs></defs><line x1="1" x2="999" y1="1" y2="1" class="stroke_order_diagram--bounding_box"></line><line x1="1" x2="1" y1="1" y2="99" class="stroke_order_diagram--bounding_box"></line><line x1="1" x2="999" y1="99" y2="99" class="stroke_order_diagram--bounding_box"></line><line x1="0" x2="1000" y1="50" y2="50" class="stroke_order_diagram--guide_line"></line><line x1="50" x2="50" y1="1" y2="99" class="stroke_order_diagram--guide_line"></line><line x1="99" x2="99" y1="1" y2="99" class="stroke_order_diagram--bounding_box"></line><path id="kvg:08a17-s1" kvg:type="㇔" d="M24.8,15.75c2.52,1.5,6.5,6.17,7.13,8.5" transform="matrix(1,0,0,1,-4,-4)" class="stroke_order_diagram--current_path"></path><path id="pathSk2v596cn2t81" kvg:type="㇔" d="M24.8,15.75c2.52,1.5,6.5,6.17,7.13,8.5" transform="matrix(1,0,0,1,-4,-4)" class="stroke_order_diagram--current_path"></path><circle cx="24.8" cy="15.75" r="8" class="stroke_order_diagram--path_start" transform="matrix(1,0,0,1,-4,-4)"></circle><line x1="150" x2="150" y1="1" y2="99" class="stroke_order_diagram--guide_line"></line><line x1="199" x2="199" y1="1" y2="99" class="stroke_order_diagram--bounding_box"></line><path id="pathSk2v596cn2t84" kvg:type="㇔" d="M24.8,15.75c2.52,1.5,6.5,6.17,7.13,8.5" transform="matrix(1,0,0,1,96,-4)" class="stroke_order_diagram--existing_path"></path><path id="kvg:08a17-s2" kvg:type="㇐" d="M12.62,33.58c0.71,0.23,3.4,0.27,4.1,0.23c8.73-0.42,15.15-1.81,22.33-2.62c1.17-0.13,2.95-0.14,3.54-0.02" transform="matrix(1,0,0,1,96,-4)" class="stroke_order_diagram--current_path"></path><path id="pathSk2v596cn2t86" kvg:type="㇐" d="M12.62,33.58c0.71,0.23,3.4,0.27,4.1,0.23c8.73-0.42,15.15-1.81,22.33-2.62c1.17-0.13,2.95-0.14,3.54-0.02" transform="matrix(1,0,0,1,96,-4)" class="stroke_order_diagram--current_path"></path><circle cx="12.62" cy="33.58" r="8" class="stroke_order_diagram--path_start" transform="matrix(1,0,0,1,96,-4)"></circle><line x1="250" x2="250" y1="1" y2="99" class="stroke_order_diagram--guide_line"></line><line x1="299" x2="299" y1="1" y2="99" class="stroke_order_diagram--bounding_box"></line><path id="pathSk2v596cn2t89" kvg:type="㇔" d="M24.8,15.75c2.52,1.5,6.5,6.17,7.13,8.5" transform="matrix(1,0,0,1,196,-4)" class="stroke_order_diagram--existing_path"></path><path id="pathSk2v596cn2t8a" kvg:type="㇐" d="M12.62,33.58c0.71,0.23,3.4,0.27,4.1,0.23c8.73-0.42,15.15-1.81,22.33-2.62c1.17-0.13,2.95-0.14,3.54-0.02" transform="matrix(1,0,0,1,196,-4)" class="stroke_order_diagram--existing_path"></path><path id="kvg:08a17-s3" kvg:type="㇐" d="M18.68,47.31c1.35,0.38,3.19,0.16,4.59,0.06c4.1-0.29,8.36-1.43,12.47-1.99c1.09-0.15,2.45-0.32,3.54-0.13" transform="matrix(1,0,0,1,196,-4)" class="stroke_order_diagram--current_path"></path><path id="pathSk2v596cn2t8c" kvg:type="㇐" d="M18.68,47.31c1.35,0.38,3.19,0.16,4.59,0.06c4.1-0.29,8.36-1.43,12.47-1.99c1.09-0.15,2.45-0.32,3.54-0.13" transform="matrix(1,0,0,1,196,-4)" class="stroke_order_diagram--current_path"></path><circle cx="18.68" cy="47.31" r="8" class="stroke_order_diagram--path_start" transform="matrix(1,0,0,1,196,-4)"></circle><line x1="350" x2="350" y1="1" y2="99" class="stroke_order_diagram--guide_line"></line><line x1="399" x2="399" y1="1" y2="99" class="stroke_order_diagram--bounding_box"></line><path id="pathSk2v596cn2t8f" kvg:type="㇔" d="M24.8,15.75c2.52,1.5,6.5,6.17,7.13,8.5" transform="matrix(1,0,0,1,296,-4)" class="stroke_order_diagram--existing_path"></path><path id="pathSk2v596cn2t8g" kvg:type="㇐" d="M12.62,33.58c0.71,0.23,3.4,0.27,4.1,0.23c8.73-0.42,15.15-1.81,22.33-2.62c1.17-0.13,2.95-0.14,3.54-0.02" transform="matrix(1,0,0,1,296,-4)" class="stroke_order_diagram--existing_path"></path><path id="pathSk2v596cn2t8h" kvg:type="㇐" d="M18.68,47.31c1.35,0.38,3.19,0.16,4.59,0.06c4.1-0.29,8.36-1.43,12.47-1.99c1.09-0.15,2.45-0.32,3.54-0.13" transform="matrix(1,0,0,1,296,-4)" class="stroke_order_diagram--existing_path"></path><path id="kvg:08a17-s4" kvg:type="㇐" d="M19.8,60.08c1.22,0.37,2.94,0.4,4.2,0.31c3.61-0.26,8.04-1.36,11.37-1.9c1.23-0.2,2.73-0.49,3.96-0.27" transform="matrix(1,0,0,1,296,-4)" class="stroke_order_diagram--current_path"></path><path id="pathSk2v596cn2t8j" kvg:type="㇐" d="M19.8,60.08c1.22,0.37,2.94,0.4,4.2,0.31c3.61-0.26,8.04-1.36,11.37-1.9c1.23-0.2,2.73-0.49,3.96-0.27" transform="matrix(1,0,0,1,296,-4)" class="stroke_order_diagram--current_path"></path><circle cx="19.8" cy="60.08" r="8" class="stroke_order_diagram--path_start" transform="matrix(1,0,0,1,296,-4)"></circle><line x1="450" x2="450" y1="1" y2="99" class="stroke_order_diagram--guide_line"></line><line x1="499" x2="499" y1="1" y2="99" class="stroke_order_diagram--bounding_box"></line><path id="pathSk2v596cn2t8m" kvg:type="㇔" d="M24.8,15.75c2.52,1.5,6.5,6.17,7.13,8.5" transform="matrix(1,0,0,1,396,-4)" class="stroke_order_diagram--existing_path"></path><path id="pathSk2v596cn2t8n" kvg:type="㇐" d="M12.62,33.58c0.71,0.23,3.4,0.27,4.1,0.23c8.73-0.42,15.15-1.81,22.33-2.62c1.17-0.13,2.95-0.14,3.54-0.02" transform="matrix(1,0,0,1,396,-4)" class="stroke_order_diagram--existing_path"></path><path id="pathSk2v596cn2t8o" kvg:type="㇐" d="M18.68,47.31c1.35,0.38,3.19,0.16,4.59,0.06c4.1-0.29,8.36-1.43,12.47-1.99c1.09-0.15,2.45-0.32,3.54-0.13" transform="matrix(1,0,0,1,396,-4)" class="stroke_order_diagram--existing_path"></path><path id="pathSk2v596cn2t8p" kvg:type="㇐" d="M19.8,60.08c1.22,0.37,2.94,0.4,4.2,0.31c3.61-0.26,8.04-1.36,11.37-1.9c1.23-0.2,2.73-0.49,3.96-0.27" transform="matrix(1,0,0,1,396,-4)" class="stroke_order_diagram--existing_path"></path><path id="kvg:08a17-s5" kvg:type="㇑" d="M18.64,72.46c0.82,0.82,1.07,1.95,1.26,2.9c0.61,3.13,1.42,8.01,2.11,12.35c0.26,1.62,0.49,3.17,0.69,4.53" transform="matrix(1,0,0,1,396,-4)" class="stroke_order_diagram--current_path"></path><path id="pathSk2v596cn2t8r" kvg:type="㇑" d="M18.64,72.46c0.82,0.82,1.07,1.95,1.26,2.9c0.61,3.13,1.42,8.01,2.11,12.35c0.26,1.62,0.49,3.17,0.69,4.53" transform="matrix(1,0,0,1,396,-4)" class="stroke_order_diagram--current_path"></path><circle cx="18.64" cy="72.46" r="8" class="stroke_order_diagram--path_start" transform="matrix(1,0,0,1,396,-4)"></circle><line x1="550" x2="550" y1="1" y2="99" class="stroke_order_diagram--guide_line"></line><line x1="599" x2="599" y1="1" y2="99" class="stroke_order_diagram--bounding_box"></line><path id="pathSk2v596cn2t8u" kvg:type="㇔" d="M24.8,15.75c2.52,1.5,6.5,6.17,7.13,8.5" transform="matrix(1,0,0,1,496,-4)" class="stroke_order_diagram--existing_path"></path><path id="pathSk2v596cn2t8v" kvg:type="㇐" d="M12.62,33.58c0.71,0.23,3.4,0.27,4.1,0.23c8.73-0.42,15.15-1.81,22.33-2.62c1.17-0.13,2.95-0.14,3.54-0.02" transform="matrix(1,0,0,1,496,-4)" class="stroke_order_diagram--existing_path"></path><path id="pathSk2v596cn2t8w" kvg:type="㇐" d="M18.68,47.31c1.35,0.38,3.19,0.16,4.59,0.06c4.1-0.29,8.36-1.43,12.47-1.99c1.09-0.15,2.45-0.32,3.54-0.13" transform="matrix(1,0,0,1,496,-4)" class="stroke_order_diagram--existing_path"></path><path id="pathSk2v596cn2t8x" kvg:type="㇐" d="M19.8,60.08c1.22,0.37,2.94,0.4,4.2,0.31c3.61-0.26,8.04-1.36,11.37-1.9c1.23-0.2,2.73-0.49,3.96-0.27" transform="matrix(1,0,0,1,496,-4)" class="stroke_order_diagram--existing_path"></path><path id="pathSk2v596cn2t8y" kvg:type="㇑" d="M18.64,72.46c0.82,0.82,1.07,1.95,1.26,2.9c0.61,3.13,1.42,8.01,2.11,12.35c0.26,1.62,0.49,3.17,0.69,4.53" transform="matrix(1,0,0,1,496,-4)" class="stroke_order_diagram--existing_path"></path><path id="kvg:08a17-s6" kvg:type="㇕b" d="M20.76,73.8c5.82-1.08,10.43-2,14.98-2.74c3.77-0.62,5.18-0.15,4.47,3.85c-0.57,3.2-1.52,6.81-2.74,11.91" transform="matrix(1,0,0,1,496,-4)" class="stroke_order_diagram--current_path"></path><path id="pathSk2v596cn2t90" kvg:type="㇕b" d="M20.76,73.8c5.82-1.08,10.43-2,14.98-2.74c3.77-0.62,5.18-0.15,4.47,3.85c-0.57,3.2-1.52,6.81-2.74,11.91" transform="matrix(1,0,0,1,496,-4)" class="stroke_order_diagram--current_path"></path><circle cx="20.76" cy="73.8" r="8" class="stroke_order_diagram--path_start" transform="matrix(1,0,0,1,496,-4)"></circle><line x1="650" x2="650" y1="1" y2="99" class="stroke_order_diagram--guide_line"></line><line x1="699" x2="699" y1="1" y2="99" class="stroke_order_diagram--bounding_box"></line><path id="pathSk2v596cn2t93" kvg:type="㇔" d="M24.8,15.75c2.52,1.5,6.5,6.17,7.13,8.5" transform="matrix(1,0,0,1,596,-4)" class="stroke_order_diagram--existing_path"></path><path id="pathSk2v596cn2t94" kvg:type="㇐" d="M12.62,33.58c0.71,0.23,3.4,0.27,4.1,0.23c8.73-0.42,15.15-1.81,22.33-2.62c1.17-0.13,2.95-0.14,3.54-0.02" transform="matrix(1,0,0,1,596,-4)" class="stroke_order_diagram--existing_path"></path><path id="pathSk2v596cn2t95" kvg:type="㇐" d="M18.68,47.31c1.35,0.38,3.19,0.16,4.59,0.06c4.1-0.29,8.36-1.43,12.47-1.99c1.09-0.15,2.45-0.32,3.54-0.13" transform="matrix(1,0,0,1,596,-4)" class="stroke_order_diagram--existing_path"></path><path id="pathSk2v596cn2t96" kvg:type="㇐" d="M19.8,60.08c1.22,0.37,2.94,0.4,4.2,0.31c3.61-0.26,8.04-1.36,11.37-1.9c1.23-0.2,2.73-0.49,3.96-0.27" transform="matrix(1,0,0,1,596,-4)" class="stroke_order_diagram--existing_path"></path><path id="pathSk2v596cn2t97" kvg:type="㇑" d="M18.64,72.46c0.82,0.82,1.07,1.95,1.26,2.9c0.61,3.13,1.42,8.01,2.11,12.35c0.26,1.62,0.49,3.17,0.69,4.53" transform="matrix(1,0,0,1,596,-4)" class="stroke_order_diagram--existing_path"></path><path id="pathSk2v596cn2t98" kvg:type="㇕b" d="M20.76,73.8c5.82-1.08,10.43-2,14.98-2.74c3.77-0.62,5.18-0.15,4.47,3.85c-0.57,3.2-1.52,6.81-2.74,11.91" transform="matrix(1,0,0,1,596,-4)" class="stroke_order_diagram--existing_path"></path><path id="kvg:08a17-s7" kvg:type="㇐b" d="M23.47,90.14c5.15-1.09,8.2-1.63,12.31-2.18c1.1-0.15,2.29-0.3,3.65-0.46" transform="matrix(1,0,0,1,596,-4)" class="stroke_order_diagram--current_path"></path><path id="pathSk2v596cn2t9a" kvg:type="㇐b" d="M23.47,90.14c5.15-1.09,8.2-1.63,12.31-2.18c1.1-0.15,2.29-0.3,3.65-0.46" transform="matrix(1,0,0,1,596,-4)" class="stroke_order_diagram--current_path"></path><circle cx="23.47" cy="90.14" r="8" class="stroke_order_diagram--path_start" transform="matrix(1,0,0,1,596,-4)"></circle><line x1="750" x2="750" y1="1" y2="99" class="stroke_order_diagram--guide_line"></line><line x1="799" x2="799" y1="1" y2="99" class="stroke_order_diagram--bounding_box"></line><path id="pathSk2v596cn2t9d" kvg:type="㇔" d="M24.8,15.75c2.52,1.5,6.5,6.17,7.13,8.5" transform="matrix(1,0,0,1,696,-4)" class="stroke_order_diagram--existing_path"></path><path id="pathSk2v596cn2t9e" kvg:type="㇐" d="M12.62,33.58c0.71,0.23,3.4,0.27,4.1,0.23c8.73-0.42,15.15-1.81,22.33-2.62c1.17-0.13,2.95-0.14,3.54-0.02" transform="matrix(1,0,0,1,696,-4)" class="stroke_order_diagram--existing_path"></path><path id="pathSk2v596cn2t9f" kvg:type="㇐" d="M18.68,47.31c1.35,0.38,3.19,0.16,4.59,0.06c4.1-0.29,8.36-1.43,12.47-1.99c1.09-0.15,2.45-0.32,3.54-0.13" transform="matrix(1,0,0,1,696,-4)" class="stroke_order_diagram--existing_path"></path><path id="pathSk2v596cn2t9g" kvg:type="㇐" d="M19.8,60.08c1.22,0.37,2.94,0.4,4.2,0.31c3.61-0.26,8.04-1.36,11.37-1.9c1.23-0.2,2.73-0.49,3.96-0.27" transform="matrix(1,0,0,1,696,-4)" class="stroke_order_diagram--existing_path"></path><path id="pathSk2v596cn2t9h" kvg:type="㇑" d="M18.64,72.46c0.82,0.82,1.07,1.95,1.26,2.9c0.61,3.13,1.42,8.01,2.11,12.35c0.26,1.62,0.49,3.17,0.69,4.53" transform="matrix(1,0,0,1,696,-4)" class="stroke_order_diagram--existing_path"></path><path id="pathSk2v596cn2t9i" kvg:type="㇕b" d="M20.76,73.8c5.82-1.08,10.43-2,14.98-2.74c3.77-0.62,5.18-0.15,4.47,3.85c-0.57,3.2-1.52,6.81-2.74,11.91" transform="matrix(1,0,0,1,696,-4)" class="stroke_order_diagram--existing_path"></path><path id="pathSk2v596cn2t9j" kvg:type="㇐b" d="M23.47,90.14c5.15-1.09,8.2-1.63,12.31-2.18c1.1-0.15,2.29-0.3,3.65-0.46" transform="matrix(1,0,0,1,696,-4)" class="stroke_order_diagram--existing_path"></path><path id="kvg:08a17-s8" kvg:type="㇒" d="M79.03,16c0.08,0.52-0.15,1.54-0.65,2.09c-6.25,6.79-14.75,14.29-27.88,20.21" transform="matrix(1,0,0,1,696,-4)" class="stroke_order_diagram--current_path"></path><path id="pathSk2v596cn2t9l" kvg:type="㇒" d="M79.03,16c0.08,0.52-0.15,1.54-0.65,2.09c-6.25,6.79-14.75,14.29-27.88,20.21" transform="matrix(1,0,0,1,696,-4)" class="stroke_order_diagram--current_path"></path><circle cx="79.03" cy="16" r="8" class="stroke_order_diagram--path_start" transform="matrix(1,0,0,1,696,-4)"></circle><line x1="850" x2="850" y1="1" y2="99" class="stroke_order_diagram--guide_line"></line><line x1="899" x2="899" y1="1" y2="99" class="stroke_order_diagram--bounding_box"></line><path id="pathSk2v596cn2t9o" kvg:type="㇔" d="M24.8,15.75c2.52,1.5,6.5,6.17,7.13,8.5" transform="matrix(1,0,0,1,796,-4)" class="stroke_order_diagram--existing_path"></path><path id="pathSk2v596cn2t9p" kvg:type="㇐" d="M12.62,33.58c0.71,0.23,3.4,0.27,4.1,0.23c8.73-0.42,15.15-1.81,22.33-2.62c1.17-0.13,2.95-0.14,3.54-0.02" transform="matrix(1,0,0,1,796,-4)" class="stroke_order_diagram--existing_path"></path><path id="pathSk2v596cn2t9q" kvg:type="㇐" d="M18.68,47.31c1.35,0.38,3.19,0.16,4.59,0.06c4.1-0.29,8.36-1.43,12.47-1.99c1.09-0.15,2.45-0.32,3.54-0.13" transform="matrix(1,0,0,1,796,-4)" class="stroke_order_diagram--existing_path"></path><path id="pathSk2v596cn2t9r" kvg:type="㇐" d="M19.8,60.08c1.22,0.37,2.94,0.4,4.2,0.31c3.61-0.26,8.04-1.36,11.37-1.9c1.23-0.2,2.73-0.49,3.96-0.27" transform="matrix(1,0,0,1,796,-4)" class="stroke_order_diagram--existing_path"></path><path id="pathSk2v596cn2t9s" kvg:type="㇑" d="M18.64,72.46c0.82,0.82,1.07,1.95,1.26,2.9c0.61,3.13,1.42,8.01,2.11,12.35c0.26,1.62,0.49,3.17,0.69,4.53" transform="matrix(1,0,0,1,796,-4)" class="stroke_order_diagram--existing_path"></path><path id="pathSk2v596cn2t9t" kvg:type="㇕b" d="M20.76,73.8c5.82-1.08,10.43-2,14.98-2.74c3.77-0.62,5.18-0.15,4.47,3.85c-0.57,3.2-1.52,6.81-2.74,11.91" transform="matrix(1,0,0,1,796,-4)" class="stroke_order_diagram--existing_path"></path><path id="pathSk2v596cn2t9u" kvg:type="㇐b" d="M23.47,90.14c5.15-1.09,8.2-1.63,12.31-2.18c1.1-0.15,2.29-0.3,3.65-0.46" transform="matrix(1,0,0,1,796,-4)" class="stroke_order_diagram--existing_path"></path><path id="pathSk2v596cn2t9v" kvg:type="㇒" d="M79.03,16c0.08,0.52-0.15,1.54-0.65,2.09c-6.25,6.79-14.75,14.29-27.88,20.21" transform="matrix(1,0,0,1,796,-4)" class="stroke_order_diagram--existing_path"></path><path id="kvg:08a17-s9" kvg:type="㇐" d="M46,55.41c3.5,0.59,5.69,0.49,8.15-0.15c9.6-2.5,23.35-5.13,32.35-6.5c2.28-0.35,4.49-0.38,6.75,0.17" transform="matrix(1,0,0,1,796,-4)" class="stroke_order_diagram--current_path"></path><path id="pathSk2v596cn2t9x" kvg:type="㇐" d="M46,55.41c3.5,0.59,5.69,0.49,8.15-0.15c9.6-2.5,23.35-5.13,32.35-6.5c2.28-0.35,4.49-0.38,6.75,0.17" transform="matrix(1,0,0,1,796,-4)" class="stroke_order_diagram--current_path"></path><circle cx="46" cy="55.41" r="8" class="stroke_order_diagram--path_start" transform="matrix(1,0,0,1,796,-4)"></circle><line x1="950" x2="950" y1="1" y2="99" class="stroke_order_diagram--guide_line"></line><line x1="999" x2="999" y1="1" y2="99" class="stroke_order_diagram--bounding_box"></line><path id="pathSk2v596cn2ta0" kvg:type="㇔" d="M24.8,15.75c2.52,1.5,6.5,6.17,7.13,8.5" transform="matrix(1,0,0,1,896,-4)" class="stroke_order_diagram--existing_path"></path><path id="pathSk2v596cn2ta1" kvg:type="㇐" d="M12.62,33.58c0.71,0.23,3.4,0.27,4.1,0.23c8.73-0.42,15.15-1.81,22.33-2.62c1.17-0.13,2.95-0.14,3.54-0.02" transform="matrix(1,0,0,1,896,-4)" class="stroke_order_diagram--existing_path"></path><path id="pathSk2v596cn2ta2" kvg:type="㇐" d="M18.68,47.31c1.35,0.38,3.19,0.16,4.59,0.06c4.1-0.29,8.36-1.43,12.47-1.99c1.09-0.15,2.45-0.32,3.54-0.13" transform="matrix(1,0,0,1,896,-4)" class="stroke_order_diagram--existing_path"></path><path id="pathSk2v596cn2ta3" kvg:type="㇐" d="M19.8,60.08c1.22,0.37,2.94,0.4,4.2,0.31c3.61-0.26,8.04-1.36,11.37-1.9c1.23-0.2,2.73-0.49,3.96-0.27" transform="matrix(1,0,0,1,896,-4)" class="stroke_order_diagram--existing_path"></path><path id="pathSk2v596cn2ta4" kvg:type="㇑" d="M18.64,72.46c0.82,0.82,1.07,1.95,1.26,2.9c0.61,3.13,1.42,8.01,2.11,12.35c0.26,1.62,0.49,3.17,0.69,4.53" transform="matrix(1,0,0,1,896,-4)" class="stroke_order_diagram--existing_path"></path><path id="pathSk2v596cn2ta5" kvg:type="㇕b" d="M20.76,73.8c5.82-1.08,10.43-2,14.98-2.74c3.77-0.62,5.18-0.15,4.47,3.85c-0.57,3.2-1.52,6.81-2.74,11.91" transform="matrix(1,0,0,1,896,-4)" class="stroke_order_diagram--existing_path"></path><path id="pathSk2v596cn2ta6" kvg:type="㇐b" d="M23.47,90.14c5.15-1.09,8.2-1.63,12.31-2.18c1.1-0.15,2.29-0.3,3.65-0.46" transform="matrix(1,0,0,1,896,-4)" class="stroke_order_diagram--existing_path"></path><path id="pathSk2v596cn2ta7" kvg:type="㇒" d="M79.03,16c0.08,0.52-0.15,1.54-0.65,2.09c-6.25,6.79-14.75,14.29-27.88,20.21" transform="matrix(1,0,0,1,896,-4)" class="stroke_order_diagram--existing_path"></path><path id="pathSk2v596cn2ta8" kvg:type="㇐" d="M46,55.41c3.5,0.59,5.69,0.49,8.15-0.15c9.6-2.5,23.35-5.13,32.35-6.5c2.28-0.35,4.49-0.38,6.75,0.17" transform="matrix(1,0,0,1,896,-4)" class="stroke_order_diagram--existing_path"></path><path id="kvg:08a17-s10" kvg:type="㇟" d="M64.25,33.79c0.85,0.85,1.32,2.22,1.32,3.36c0,3.55-0.07,40-0.07,43.48c0,7.79,2.12,9.59,14.02,9.59c13.01,0,13.88-2.51,13.88-9.68" transform="matrix(1,0,0,1,896,-4)" class="stroke_order_diagram--current_path"></path><path id="pathSk2v596cn2taa" kvg:type="㇟" d="M64.25,33.79c0.85,0.85,1.32,2.22,1.32,3.36c0,3.55-0.07,40-0.07,43.48c0,7.79,2.12,9.59,14.02,9.59c13.01,0,13.88-2.51,13.88-9.68" transform="matrix(1,0,0,1,896,-4)" class="stroke_order_diagram--current_path"></path><circle cx="64.25" cy="33.79" r="8" class="stroke_order_diagram--path_start" transform="matrix(1,0,0,1,896,-4)"></circle></svg>