<svg style="width: 1100px; height: 100px;" viewbox="0 0 1100 100"><style>
.stroke_order_diagram--outer_container {
  width: 100%;
  overflow-x: auto;
  overflow-y: hidden;
}

.stroke_order_diagram--guide_line {
  fill: none;
  stroke: #ddd;
  stroke-width: 3;
  stroke-linecap: square;
  stroke-linejoin: square;
  stroke-dasharray:8, 8;
}

.stroke_order_diagram--bounding_box {
  fill: none;
  stroke: #ddd;
  stroke-width: 4;
  stroke-linecap: square;
  stroke-linejoin: square;
}

.stroke_order_diagram--current_path {
  fill: none;
  stroke: #000;
  stroke-width: 6;
  stroke-linecap: round;
  stroke-linejoin: round;
}

.stroke_order_diagram--existing_path {
  fill: none;
  stroke: #aaa;
  stroke-width: 6;
  stroke-linecap: round;
  stroke-linejoin:round;
}

.stroke_order_diagram--path_start {
  fill: rgba(255, 0, 0, 0.7);
  stroke:none
}</style><desc>Created with Snap</desc><defs></defs><line x1="1" x2="1099" y1="1" y2="1" class="stroke_order_diagram--bounding_box"></line><line x1="1" x2="1" y1="1" y2="99" class="stroke_order_diagram--bounding_box"></line><line x1="1" x2="1099" y1="99" y2="99" class="stroke_order_diagram--bounding_box"></line><line x1="0" x2="1100" y1="50" y2="50" class="stroke_order_diagram--guide_line"></line><line x1="50" x2="50" y1="1" y2="99" class="stroke_order_diagram--guide_line"></line><line x1="99" x2="99" y1="1" y2="99" class="stroke_order_diagram--bounding_box"></line><path id="kvg:08a31-s1" kvg:type="㇔" d="M24.63,15.75c2.25,1.5,5.81,6.17,6.37,8.5" transform="matrix(1,0,0,1,-4,-4)" class="stroke_order_diagram--current_path"></path><path id="pathSk2v596cn1552" kvg:type="㇔" d="M24.63,15.75c2.25,1.5,5.81,6.17,6.37,8.5" transform="matrix(1,0,0,1,-4,-4)" class="stroke_order_diagram--current_path"></path><circle cx="24.63" cy="15.75" r="8" class="stroke_order_diagram--path_start" transform="matrix(1,0,0,1,-4,-4)"></circle><line x1="150" x2="150" y1="1" y2="99" class="stroke_order_diagram--guide_line"></line><line x1="199" x2="199" y1="1" y2="99" class="stroke_order_diagram--bounding_box"></line><path id="pathSk2v596cn1555" kvg:type="㇔" d="M24.63,15.75c2.25,1.5,5.81,6.17,6.37,8.5" transform="matrix(1,0,0,1,96,-4)" class="stroke_order_diagram--existing_path"></path><path id="kvg:08a31-s2" kvg:type="㇐" d="M11.12,34.33c1.46,0.54,3.5,0.26,5.01,0.15c6.84-0.48,15.86-1.64,21.88-2.49c1.69-0.24,3.63-0.69,5.33-0.32" transform="matrix(1,0,0,1,96,-4)" class="stroke_order_diagram--current_path"></path><path id="pathSk2v596cn1557" kvg:type="㇐" d="M11.12,34.33c1.46,0.54,3.5,0.26,5.01,0.15c6.84-0.48,15.86-1.64,21.88-2.49c1.69-0.24,3.63-0.69,5.33-0.32" transform="matrix(1,0,0,1,96,-4)" class="stroke_order_diagram--current_path"></path><circle cx="11.12" cy="34.33" r="8" class="stroke_order_diagram--path_start" transform="matrix(1,0,0,1,96,-4)"></circle><line x1="250" x2="250" y1="1" y2="99" class="stroke_order_diagram--guide_line"></line><line x1="299" x2="299" y1="1" y2="99" class="stroke_order_diagram--bounding_box"></line><path id="pathSk2v596cn155a" kvg:type="㇔" d="M24.63,15.75c2.25,1.5,5.81,6.17,6.37,8.5" transform="matrix(1,0,0,1,196,-4)" class="stroke_order_diagram--existing_path"></path><path id="pathSk2v596cn155b" kvg:type="㇐" d="M11.12,34.33c1.46,0.54,3.5,0.26,5.01,0.15c6.84-0.48,15.86-1.64,21.88-2.49c1.69-0.24,3.63-0.69,5.33-0.32" transform="matrix(1,0,0,1,196,-4)" class="stroke_order_diagram--existing_path"></path><path id="kvg:08a31-s3" kvg:type="㇐" d="M18.23,47.81c1.16,0.37,2.82,0.41,4.03,0.32c3.68-0.29,8.79-1.49,12.86-2.11c1.24-0.19,2.78-0.5,4.02-0.26" transform="matrix(1,0,0,1,196,-4)" class="stroke_order_diagram--current_path"></path><path id="pathSk2v596cn155d" kvg:type="㇐" d="M18.23,47.81c1.16,0.37,2.82,0.41,4.03,0.32c3.68-0.29,8.79-1.49,12.86-2.11c1.24-0.19,2.78-0.5,4.02-0.26" transform="matrix(1,0,0,1,196,-4)" class="stroke_order_diagram--current_path"></path><circle cx="18.23" cy="47.81" r="8" class="stroke_order_diagram--path_start" transform="matrix(1,0,0,1,196,-4)"></circle><line x1="350" x2="350" y1="1" y2="99" class="stroke_order_diagram--guide_line"></line><line x1="399" x2="399" y1="1" y2="99" class="stroke_order_diagram--bounding_box"></line><path id="pathSk2v596cn155g" kvg:type="㇔" d="M24.63,15.75c2.25,1.5,5.81,6.17,6.37,8.5" transform="matrix(1,0,0,1,296,-4)" class="stroke_order_diagram--existing_path"></path><path id="pathSk2v596cn155h" kvg:type="㇐" d="M11.12,34.33c1.46,0.54,3.5,0.26,5.01,0.15c6.84-0.48,15.86-1.64,21.88-2.49c1.69-0.24,3.63-0.69,5.33-0.32" transform="matrix(1,0,0,1,296,-4)" class="stroke_order_diagram--existing_path"></path><path id="pathSk2v596cn155i" kvg:type="㇐" d="M18.23,47.81c1.16,0.37,2.82,0.41,4.03,0.32c3.68-0.29,8.79-1.49,12.86-2.11c1.24-0.19,2.78-0.5,4.02-0.26" transform="matrix(1,0,0,1,296,-4)" class="stroke_order_diagram--existing_path"></path><path id="kvg:08a31-s4" kvg:type="㇐" d="M18.73,60.58c1.15,0.39,2.97,0.38,4.15,0.27c3.45-0.31,8.62-1.23,12.48-1.91c1.26-0.22,2.91-0.48,4.17-0.23" transform="matrix(1,0,0,1,296,-4)" class="stroke_order_diagram--current_path"></path><path id="pathSk2v596cn155k" kvg:type="㇐" d="M18.73,60.58c1.15,0.39,2.97,0.38,4.15,0.27c3.45-0.31,8.62-1.23,12.48-1.91c1.26-0.22,2.91-0.48,4.17-0.23" transform="matrix(1,0,0,1,296,-4)" class="stroke_order_diagram--current_path"></path><circle cx="18.73" cy="60.58" r="8" class="stroke_order_diagram--path_start" transform="matrix(1,0,0,1,296,-4)"></circle><line x1="450" x2="450" y1="1" y2="99" class="stroke_order_diagram--guide_line"></line><line x1="499" x2="499" y1="1" y2="99" class="stroke_order_diagram--bounding_box"></line><path id="pathSk2v596cn155n" kvg:type="㇔" d="M24.63,15.75c2.25,1.5,5.81,6.17,6.37,8.5" transform="matrix(1,0,0,1,396,-4)" class="stroke_order_diagram--existing_path"></path><path id="pathSk2v596cn155o" kvg:type="㇐" d="M11.12,34.33c1.46,0.54,3.5,0.26,5.01,0.15c6.84-0.48,15.86-1.64,21.88-2.49c1.69-0.24,3.63-0.69,5.33-0.32" transform="matrix(1,0,0,1,396,-4)" class="stroke_order_diagram--existing_path"></path><path id="pathSk2v596cn155p" kvg:type="㇐" d="M18.23,47.81c1.16,0.37,2.82,0.41,4.03,0.32c3.68-0.29,8.79-1.49,12.86-2.11c1.24-0.19,2.78-0.5,4.02-0.26" transform="matrix(1,0,0,1,396,-4)" class="stroke_order_diagram--existing_path"></path><path id="pathSk2v596cn155q" kvg:type="㇐" d="M18.73,60.58c1.15,0.39,2.97,0.38,4.15,0.27c3.45-0.31,8.62-1.23,12.48-1.91c1.26-0.22,2.91-0.48,4.17-0.23" transform="matrix(1,0,0,1,396,-4)" class="stroke_order_diagram--existing_path"></path><path id="kvg:08a31-s5" kvg:type="㇑" d="M17.14,73.15c0.69,0.58,1.11,1.47,1.35,2.45c0.87,3.61,1.72,9.32,2.5,14.4c0.17,1.12,0.34,2.22,0.51,3.25" transform="matrix(1,0,0,1,396,-4)" class="stroke_order_diagram--current_path"></path><path id="pathSk2v596cn155s" kvg:type="㇑" d="M17.14,73.15c0.69,0.58,1.11,1.47,1.35,2.45c0.87,3.61,1.72,9.32,2.5,14.4c0.17,1.12,0.34,2.22,0.51,3.25" transform="matrix(1,0,0,1,396,-4)" class="stroke_order_diagram--current_path"></path><circle cx="17.14" cy="73.15" r="8" class="stroke_order_diagram--path_start" transform="matrix(1,0,0,1,396,-4)"></circle><line x1="550" x2="550" y1="1" y2="99" class="stroke_order_diagram--guide_line"></line><line x1="599" x2="599" y1="1" y2="99" class="stroke_order_diagram--bounding_box"></line><path id="pathSk2v596cn155v" kvg:type="㇔" d="M24.63,15.75c2.25,1.5,5.81,6.17,6.37,8.5" transform="matrix(1,0,0,1,496,-4)" class="stroke_order_diagram--existing_path"></path><path id="pathSk2v596cn155w" kvg:type="㇐" d="M11.12,34.33c1.46,0.54,3.5,0.26,5.01,0.15c6.84-0.48,15.86-1.64,21.88-2.49c1.69-0.24,3.63-0.69,5.33-0.32" transform="matrix(1,0,0,1,496,-4)" class="stroke_order_diagram--existing_path"></path><path id="pathSk2v596cn155x" kvg:type="㇐" d="M18.23,47.81c1.16,0.37,2.82,0.41,4.03,0.32c3.68-0.29,8.79-1.49,12.86-2.11c1.24-0.19,2.78-0.5,4.02-0.26" transform="matrix(1,0,0,1,496,-4)" class="stroke_order_diagram--existing_path"></path><path id="pathSk2v596cn155y" kvg:type="㇐" d="M18.73,60.58c1.15,0.39,2.97,0.38,4.15,0.27c3.45-0.31,8.62-1.23,12.48-1.91c1.26-0.22,2.91-0.48,4.17-0.23" transform="matrix(1,0,0,1,496,-4)" class="stroke_order_diagram--existing_path"></path><path id="pathSk2v596cn155z" kvg:type="㇑" d="M17.14,73.15c0.69,0.58,1.11,1.47,1.35,2.45c0.87,3.61,1.72,9.32,2.5,14.4c0.17,1.12,0.34,2.22,0.51,3.25" transform="matrix(1,0,0,1,496,-4)" class="stroke_order_diagram--existing_path"></path><path id="kvg:08a31-s6" kvg:type="㇕b" d="M19.31,74.62c5.7-0.79,12.12-2.02,17.58-2.92c2.7-0.44,4.72-0.37,4.04,2.84c-0.8,3.78-1.57,7.23-3,13.67" transform="matrix(1,0,0,1,496,-4)" class="stroke_order_diagram--current_path"></path><path id="pathSk2v596cn1561" kvg:type="㇕b" d="M19.31,74.62c5.7-0.79,12.12-2.02,17.58-2.92c2.7-0.44,4.72-0.37,4.04,2.84c-0.8,3.78-1.57,7.23-3,13.67" transform="matrix(1,0,0,1,496,-4)" class="stroke_order_diagram--current_path"></path><circle cx="19.31" cy="74.62" r="8" class="stroke_order_diagram--path_start" transform="matrix(1,0,0,1,496,-4)"></circle><line x1="650" x2="650" y1="1" y2="99" class="stroke_order_diagram--guide_line"></line><line x1="699" x2="699" y1="1" y2="99" class="stroke_order_diagram--bounding_box"></line><path id="pathSk2v596cn1564" kvg:type="㇔" d="M24.63,15.75c2.25,1.5,5.81,6.17,6.37,8.5" transform="matrix(1,0,0,1,596,-4)" class="stroke_order_diagram--existing_path"></path><path id="pathSk2v596cn1565" kvg:type="㇐" d="M11.12,34.33c1.46,0.54,3.5,0.26,5.01,0.15c6.84-0.48,15.86-1.64,21.88-2.49c1.69-0.24,3.63-0.69,5.33-0.32" transform="matrix(1,0,0,1,596,-4)" class="stroke_order_diagram--existing_path"></path><path id="pathSk2v596cn1566" kvg:type="㇐" d="M18.23,47.81c1.16,0.37,2.82,0.41,4.03,0.32c3.68-0.29,8.79-1.49,12.86-2.11c1.24-0.19,2.78-0.5,4.02-0.26" transform="matrix(1,0,0,1,596,-4)" class="stroke_order_diagram--existing_path"></path><path id="pathSk2v596cn1567" kvg:type="㇐" d="M18.73,60.58c1.15,0.39,2.97,0.38,4.15,0.27c3.45-0.31,8.62-1.23,12.48-1.91c1.26-0.22,2.91-0.48,4.17-0.23" transform="matrix(1,0,0,1,596,-4)" class="stroke_order_diagram--existing_path"></path><path id="pathSk2v596cn1568" kvg:type="㇑" d="M17.14,73.15c0.69,0.58,1.11,1.47,1.35,2.45c0.87,3.61,1.72,9.32,2.5,14.4c0.17,1.12,0.34,2.22,0.51,3.25" transform="matrix(1,0,0,1,596,-4)" class="stroke_order_diagram--existing_path"></path><path id="pathSk2v596cn1569" kvg:type="㇕b" d="M19.31,74.62c5.7-0.79,12.12-2.02,17.58-2.92c2.7-0.44,4.72-0.37,4.04,2.84c-0.8,3.78-1.57,7.23-3,13.67" transform="matrix(1,0,0,1,596,-4)" class="stroke_order_diagram--existing_path"></path><path id="kvg:08a31-s7" kvg:type="㇐b" d="M22.47,91.05c3.4-0.38,8.16-0.93,14.15-1.67c0.98-0.12,2-0.25,3.04-0.38" transform="matrix(1,0,0,1,596,-4)" class="stroke_order_diagram--current_path"></path><path id="pathSk2v596cn156b" kvg:type="㇐b" d="M22.47,91.05c3.4-0.38,8.16-0.93,14.15-1.67c0.98-0.12,2-0.25,3.04-0.38" transform="matrix(1,0,0,1,596,-4)" class="stroke_order_diagram--current_path"></path><circle cx="22.47" cy="91.05" r="8" class="stroke_order_diagram--path_start" transform="matrix(1,0,0,1,596,-4)"></circle><line x1="750" x2="750" y1="1" y2="99" class="stroke_order_diagram--guide_line"></line><line x1="799" x2="799" y1="1" y2="99" class="stroke_order_diagram--bounding_box"></line><path id="pathSk2v596cn156e" kvg:type="㇔" d="M24.63,15.75c2.25,1.5,5.81,6.17,6.37,8.5" transform="matrix(1,0,0,1,696,-4)" class="stroke_order_diagram--existing_path"></path><path id="pathSk2v596cn156f" kvg:type="㇐" d="M11.12,34.33c1.46,0.54,3.5,0.26,5.01,0.15c6.84-0.48,15.86-1.64,21.88-2.49c1.69-0.24,3.63-0.69,5.33-0.32" transform="matrix(1,0,0,1,696,-4)" class="stroke_order_diagram--existing_path"></path><path id="pathSk2v596cn156g" kvg:type="㇐" d="M18.23,47.81c1.16,0.37,2.82,0.41,4.03,0.32c3.68-0.29,8.79-1.49,12.86-2.11c1.24-0.19,2.78-0.5,4.02-0.26" transform="matrix(1,0,0,1,696,-4)" class="stroke_order_diagram--existing_path"></path><path id="pathSk2v596cn156h" kvg:type="㇐" d="M18.73,60.58c1.15,0.39,2.97,0.38,4.15,0.27c3.45-0.31,8.62-1.23,12.48-1.91c1.26-0.22,2.91-0.48,4.17-0.23" transform="matrix(1,0,0,1,696,-4)" class="stroke_order_diagram--existing_path"></path><path id="pathSk2v596cn156i" kvg:type="㇑" d="M17.14,73.15c0.69,0.58,1.11,1.47,1.35,2.45c0.87,3.61,1.72,9.32,2.5,14.4c0.17,1.12,0.34,2.22,0.51,3.25" transform="matrix(1,0,0,1,696,-4)" class="stroke_order_diagram--existing_path"></path><path id="pathSk2v596cn156j" kvg:type="㇕b" d="M19.31,74.62c5.7-0.79,12.12-2.02,17.58-2.92c2.7-0.44,4.72-0.37,4.04,2.84c-0.8,3.78-1.57,7.23-3,13.67" transform="matrix(1,0,0,1,696,-4)" class="stroke_order_diagram--existing_path"></path><path id="pathSk2v596cn156k" kvg:type="㇐b" d="M22.47,91.05c3.4-0.38,8.16-0.93,14.15-1.67c0.98-0.12,2-0.25,3.04-0.38" transform="matrix(1,0,0,1,696,-4)" class="stroke_order_diagram--existing_path"></path><path id="kvg:08a31-s8" kvg:type="㇒" d="M63.49,13.14c0.14,0.98,0.02,2.1-0.35,3.21c-2.52,7.65-8.06,20-16.53,29.93" transform="matrix(1,0,0,1,696,-4)" class="stroke_order_diagram--current_path"></path><path id="pathSk2v596cn156m" kvg:type="㇒" d="M63.49,13.14c0.14,0.98,0.02,2.1-0.35,3.21c-2.52,7.65-8.06,20-16.53,29.93" transform="matrix(1,0,0,1,696,-4)" class="stroke_order_diagram--current_path"></path><circle cx="63.49" cy="13.14" r="8" class="stroke_order_diagram--path_start" transform="matrix(1,0,0,1,696,-4)"></circle><line x1="850" x2="850" y1="1" y2="99" class="stroke_order_diagram--guide_line"></line><line x1="899" x2="899" y1="1" y2="99" class="stroke_order_diagram--bounding_box"></line><path id="pathSk2v596cn156p" kvg:type="㇔" d="M24.63,15.75c2.25,1.5,5.81,6.17,6.37,8.5" transform="matrix(1,0,0,1,796,-4)" class="stroke_order_diagram--existing_path"></path><path id="pathSk2v596cn156q" kvg:type="㇐" d="M11.12,34.33c1.46,0.54,3.5,0.26,5.01,0.15c6.84-0.48,15.86-1.64,21.88-2.49c1.69-0.24,3.63-0.69,5.33-0.32" transform="matrix(1,0,0,1,796,-4)" class="stroke_order_diagram--existing_path"></path><path id="pathSk2v596cn156r" kvg:type="㇐" d="M18.23,47.81c1.16,0.37,2.82,0.41,4.03,0.32c3.68-0.29,8.79-1.49,12.86-2.11c1.24-0.19,2.78-0.5,4.02-0.26" transform="matrix(1,0,0,1,796,-4)" class="stroke_order_diagram--existing_path"></path><path id="pathSk2v596cn156s" kvg:type="㇐" d="M18.73,60.58c1.15,0.39,2.97,0.38,4.15,0.27c3.45-0.31,8.62-1.23,12.48-1.91c1.26-0.22,2.91-0.48,4.17-0.23" transform="matrix(1,0,0,1,796,-4)" class="stroke_order_diagram--existing_path"></path><path id="pathSk2v596cn156t" kvg:type="㇑" d="M17.14,73.15c0.69,0.58,1.11,1.47,1.35,2.45c0.87,3.61,1.72,9.32,2.5,14.4c0.17,1.12,0.34,2.22,0.51,3.25" transform="matrix(1,0,0,1,796,-4)" class="stroke_order_diagram--existing_path"></path><path id="pathSk2v596cn156u" kvg:type="㇕b" d="M19.31,74.62c5.7-0.79,12.12-2.02,17.58-2.92c2.7-0.44,4.72-0.37,4.04,2.84c-0.8,3.78-1.57,7.23-3,13.67" transform="matrix(1,0,0,1,796,-4)" class="stroke_order_diagram--existing_path"></path><path id="pathSk2v596cn156v" kvg:type="㇐b" d="M22.47,91.05c3.4-0.38,8.16-0.93,14.15-1.67c0.98-0.12,2-0.25,3.04-0.38" transform="matrix(1,0,0,1,796,-4)" class="stroke_order_diagram--existing_path"></path><path id="pathSk2v596cn156w" kvg:type="㇒" d="M63.49,13.14c0.14,0.98,0.02,2.1-0.35,3.21c-2.52,7.65-8.06,20-16.53,29.93" transform="matrix(1,0,0,1,796,-4)" class="stroke_order_diagram--existing_path"></path><path id="kvg:08a31-s9" kvg:type="㇐" d="M57.79,35c0.96,0.12,1.88,0.03,2.54-0.04c6.29-0.59,15.42-2.09,23.56-4.03c1.71-0.41,3.89-0.61,5.64-0.27" transform="matrix(1,0,0,1,796,-4)" class="stroke_order_diagram--current_path"></path><path id="pathSk2v596cn156y" kvg:type="㇐" d="M57.79,35c0.96,0.12,1.88,0.03,2.54-0.04c6.29-0.59,15.42-2.09,23.56-4.03c1.71-0.41,3.89-0.61,5.64-0.27" transform="matrix(1,0,0,1,796,-4)" class="stroke_order_diagram--current_path"></path><circle cx="57.79" cy="35" r="8" class="stroke_order_diagram--path_start" transform="matrix(1,0,0,1,796,-4)"></circle><line x1="950" x2="950" y1="1" y2="99" class="stroke_order_diagram--guide_line"></line><line x1="999" x2="999" y1="1" y2="99" class="stroke_order_diagram--bounding_box"></line><path id="pathSk2v596cn1571" kvg:type="㇔" d="M24.63,15.75c2.25,1.5,5.81,6.17,6.37,8.5" transform="matrix(1,0,0,1,896,-4)" class="stroke_order_diagram--existing_path"></path><path id="pathSk2v596cn1572" kvg:type="㇐" d="M11.12,34.33c1.46,0.54,3.5,0.26,5.01,0.15c6.84-0.48,15.86-1.64,21.88-2.49c1.69-0.24,3.63-0.69,5.33-0.32" transform="matrix(1,0,0,1,896,-4)" class="stroke_order_diagram--existing_path"></path><path id="pathSk2v596cn1573" kvg:type="㇐" d="M18.23,47.81c1.16,0.37,2.82,0.41,4.03,0.32c3.68-0.29,8.79-1.49,12.86-2.11c1.24-0.19,2.78-0.5,4.02-0.26" transform="matrix(1,0,0,1,896,-4)" class="stroke_order_diagram--existing_path"></path><path id="pathSk2v596cn1574" kvg:type="㇐" d="M18.73,60.58c1.15,0.39,2.97,0.38,4.15,0.27c3.45-0.31,8.62-1.23,12.48-1.91c1.26-0.22,2.91-0.48,4.17-0.23" transform="matrix(1,0,0,1,896,-4)" class="stroke_order_diagram--existing_path"></path><path id="pathSk2v596cn1575" kvg:type="㇑" d="M17.14,73.15c0.69,0.58,1.11,1.47,1.35,2.45c0.87,3.61,1.72,9.32,2.5,14.4c0.17,1.12,0.34,2.22,0.51,3.25" transform="matrix(1,0,0,1,896,-4)" class="stroke_order_diagram--existing_path"></path><path id="pathSk2v596cn1576" kvg:type="㇕b" d="M19.31,74.62c5.7-0.79,12.12-2.02,17.58-2.92c2.7-0.44,4.72-0.37,4.04,2.84c-0.8,3.78-1.57,7.23-3,13.67" transform="matrix(1,0,0,1,896,-4)" class="stroke_order_diagram--existing_path"></path><path id="pathSk2v596cn1577" kvg:type="㇐b" d="M22.47,91.05c3.4-0.38,8.16-0.93,14.15-1.67c0.98-0.12,2-0.25,3.04-0.38" transform="matrix(1,0,0,1,896,-4)" class="stroke_order_diagram--existing_path"></path><path id="pathSk2v596cn1578" kvg:type="㇒" d="M63.49,13.14c0.14,0.98,0.02,2.1-0.35,3.21c-2.52,7.65-8.06,20-16.53,29.93" transform="matrix(1,0,0,1,896,-4)" class="stroke_order_diagram--existing_path"></path><path id="pathSk2v596cn1579" kvg:type="㇐" d="M57.79,35c0.96,0.12,1.88,0.03,2.54-0.04c6.29-0.59,15.42-2.09,23.56-4.03c1.71-0.41,3.89-0.61,5.64-0.27" transform="matrix(1,0,0,1,896,-4)" class="stroke_order_diagram--existing_path"></path><path id="kvg:08a31-s10" kvg:type="㇐" d="M45,57.13c3.06,0.62,5.9,0.63,8.61,0.34c11.52-1.22,25.52-2.97,36.1-3.47c3.9-0.19,6.22-0.1,9.04,0.45" transform="matrix(1,0,0,1,896,-4)" class="stroke_order_diagram--current_path"></path><path id="pathSk2v596cn157b" kvg:type="㇐" d="M45,57.13c3.06,0.62,5.9,0.63,8.61,0.34c11.52-1.22,25.52-2.97,36.1-3.47c3.9-0.19,6.22-0.1,9.04,0.45" transform="matrix(1,0,0,1,896,-4)" class="stroke_order_diagram--current_path"></path><circle cx="45" cy="57.13" r="8" class="stroke_order_diagram--path_start" transform="matrix(1,0,0,1,896,-4)"></circle><line x1="1050" x2="1050" y1="1" y2="99" class="stroke_order_diagram--guide_line"></line><line x1="1099" x2="1099" y1="1" y2="99" class="stroke_order_diagram--bounding_box"></line><path id="pathSk2v596cn157e" kvg:type="㇔" d="M24.63,15.75c2.25,1.5,5.81,6.17,6.37,8.5" transform="matrix(1,0,0,1,996,-4)" class="stroke_order_diagram--existing_path"></path><path id="pathSk2v596cn157f" kvg:type="㇐" d="M11.12,34.33c1.46,0.54,3.5,0.26,5.01,0.15c6.84-0.48,15.86-1.64,21.88-2.49c1.69-0.24,3.63-0.69,5.33-0.32" transform="matrix(1,0,0,1,996,-4)" class="stroke_order_diagram--existing_path"></path><path id="pathSk2v596cn157g" kvg:type="㇐" d="M18.23,47.81c1.16,0.37,2.82,0.41,4.03,0.32c3.68-0.29,8.79-1.49,12.86-2.11c1.24-0.19,2.78-0.5,4.02-0.26" transform="matrix(1,0,0,1,996,-4)" class="stroke_order_diagram--existing_path"></path><path id="pathSk2v596cn157h" kvg:type="㇐" d="M18.73,60.58c1.15,0.39,2.97,0.38,4.15,0.27c3.45-0.31,8.62-1.23,12.48-1.91c1.26-0.22,2.91-0.48,4.17-0.23" transform="matrix(1,0,0,1,996,-4)" class="stroke_order_diagram--existing_path"></path><path id="pathSk2v596cn157i" kvg:type="㇑" d="M17.14,73.15c0.69,0.58,1.11,1.47,1.35,2.45c0.87,3.61,1.72,9.32,2.5,14.4c0.17,1.12,0.34,2.22,0.51,3.25" transform="matrix(1,0,0,1,996,-4)" class="stroke_order_diagram--existing_path"></path><path id="pathSk2v596cn157j" kvg:type="㇕b" d="M19.31,74.62c5.7-0.79,12.12-2.02,17.58-2.92c2.7-0.44,4.72-0.37,4.04,2.84c-0.8,3.78-1.57,7.23-3,13.67" transform="matrix(1,0,0,1,996,-4)" class="stroke_order_diagram--existing_path"></path><path id="pathSk2v596cn157k" kvg:type="㇐b" d="M22.47,91.05c3.4-0.38,8.16-0.93,14.15-1.67c0.98-0.12,2-0.25,3.04-0.38" transform="matrix(1,0,0,1,996,-4)" class="stroke_order_diagram--existing_path"></path><path id="pathSk2v596cn157l" kvg:type="㇒" d="M63.49,13.14c0.14,0.98,0.02,2.1-0.35,3.21c-2.52,7.65-8.06,20-16.53,29.93" transform="matrix(1,0,0,1,996,-4)" class="stroke_order_diagram--existing_path"></path><path id="pathSk2v596cn157m" kvg:type="㇐" d="M57.79,35c0.96,0.12,1.88,0.03,2.54-0.04c6.29-0.59,15.42-2.09,23.56-4.03c1.71-0.41,3.89-0.61,5.64-0.27" transform="matrix(1,0,0,1,996,-4)" class="stroke_order_diagram--existing_path"></path><path id="pathSk2v596cn157n" kvg:type="㇐" d="M45,57.13c3.06,0.62,5.9,0.63,8.61,0.34c11.52-1.22,25.52-2.97,36.1-3.47c3.9-0.19,6.22-0.1,9.04,0.45" transform="matrix(1,0,0,1,996,-4)" class="stroke_order_diagram--existing_path"></path><path id="kvg:08a31-s11" kvg:type="㇑" d="M70.57,36.52c1.02,1.02,1.51,2.73,1.51,4.36c0,0.7-0.03,32.9-0.08,48.25c-0.01,3.72-0.03,6.45-0.04,7.51" transform="matrix(1,0,0,1,996,-4)" class="stroke_order_diagram--current_path"></path><path id="pathSk2v596cn157p" kvg:type="㇑" d="M70.57,36.52c1.02,1.02,1.51,2.73,1.51,4.36c0,0.7-0.03,32.9-0.08,48.25c-0.01,3.72-0.03,6.45-0.04,7.51" transform="matrix(1,0,0,1,996,-4)" class="stroke_order_diagram--current_path"></path><circle cx="70.57" cy="36.52" r="8" class="stroke_order_diagram--path_start" transform="matrix(1,0,0,1,996,-4)"></circle></svg>