<svg style="width: 1200px; height: 100px;" viewbox="0 0 1200 100"><style>
.stroke_order_diagram--outer_container {
  width: 100%;
  overflow-x: auto;
  overflow-y: hidden;
}

.stroke_order_diagram--guide_line {
  fill: none;
  stroke: #ddd;
  stroke-width: 3;
  stroke-linecap: square;
  stroke-linejoin: square;
  stroke-dasharray:8, 8;
}

.stroke_order_diagram--bounding_box {
  fill: none;
  stroke: #ddd;
  stroke-width: 4;
  stroke-linecap: square;
  stroke-linejoin: square;
}

.stroke_order_diagram--current_path {
  fill: none;
  stroke: #000;
  stroke-width: 6;
  stroke-linecap: round;
  stroke-linejoin: round;
}

.stroke_order_diagram--existing_path {
  fill: none;
  stroke: #aaa;
  stroke-width: 6;
  stroke-linecap: round;
  stroke-linejoin:round;
}

.stroke_order_diagram--path_start {
  fill: rgba(255, 0, 0, 0.7);
  stroke:none
}</style><desc>Created with Snap</desc><defs></defs><line x1="1" x2="1199" y1="1" y2="1" class="stroke_order_diagram--bounding_box"></line><line x1="1" x2="1" y1="1" y2="99" class="stroke_order_diagram--bounding_box"></line><line x1="1" x2="1199" y1="99" y2="99" class="stroke_order_diagram--bounding_box"></line><line x1="0" x2="1200" y1="50" y2="50" class="stroke_order_diagram--guide_line"></line><line x1="50" x2="50" y1="1" y2="99" class="stroke_order_diagram--guide_line"></line><line x1="99" x2="99" y1="1" y2="99" class="stroke_order_diagram--bounding_box"></line><path id="kvg:08a34-s1" kvg:type="㇔" d="M26.43,14.5c2.65,1.77,6.84,7.25,7.5,10" transform="matrix(1,0,0,1,-4,-4)" class="stroke_order_diagram--current_path"></path><path id="pathSk2v596cn1ozf" kvg:type="㇔" d="M26.43,14.5c2.65,1.77,6.84,7.25,7.5,10" transform="matrix(1,0,0,1,-4,-4)" class="stroke_order_diagram--current_path"></path><circle cx="26.43" cy="14.5" r="8" class="stroke_order_diagram--path_start" transform="matrix(1,0,0,1,-4,-4)"></circle><line x1="150" x2="150" y1="1" y2="99" class="stroke_order_diagram--guide_line"></line><line x1="199" x2="199" y1="1" y2="99" class="stroke_order_diagram--bounding_box"></line><path id="pathSk2v596cn1ozi" kvg:type="㇔" d="M26.43,14.5c2.65,1.77,6.84,7.25,7.5,10" transform="matrix(1,0,0,1,96,-4)" class="stroke_order_diagram--existing_path"></path><path id="kvg:08a34-s2" kvg:type="㇐" d="M12.62,34.83c1.61,0.53,3.72,0.26,5.39,0.16C25.82,34.55,34.6,33.45,41,32.5c1.43-0.21,3.42-0.36,4.84-0.08" transform="matrix(1,0,0,1,96,-4)" class="stroke_order_diagram--current_path"></path><path id="pathSk2v596cn1ozk" kvg:type="㇐" d="M12.62,34.83c1.61,0.53,3.72,0.26,5.39,0.16C25.82,34.55,34.6,33.45,41,32.5c1.43-0.21,3.42-0.36,4.84-0.08" transform="matrix(1,0,0,1,96,-4)" class="stroke_order_diagram--current_path"></path><circle cx="12.62" cy="34.83" r="8" class="stroke_order_diagram--path_start" transform="matrix(1,0,0,1,96,-4)"></circle><line x1="250" x2="250" y1="1" y2="99" class="stroke_order_diagram--guide_line"></line><line x1="299" x2="299" y1="1" y2="99" class="stroke_order_diagram--bounding_box"></line><path id="pathSk2v596cn1ozn" kvg:type="㇔" d="M26.43,14.5c2.65,1.77,6.84,7.25,7.5,10" transform="matrix(1,0,0,1,196,-4)" class="stroke_order_diagram--existing_path"></path><path id="pathSk2v596cn1ozo" kvg:type="㇐" d="M12.62,34.83c1.61,0.53,3.72,0.26,5.39,0.16C25.82,34.55,34.6,33.45,41,32.5c1.43-0.21,3.42-0.36,4.84-0.08" transform="matrix(1,0,0,1,196,-4)" class="stroke_order_diagram--existing_path"></path><path id="kvg:08a34-s3" kvg:type="㇐" d="M19.68,48.31c1.22,0.35,2.81,0.16,4.07,0.1c4.08-0.21,9.22-1.03,13.38-1.65c1.45-0.22,3.19-0.5,4.64-0.25" transform="matrix(1,0,0,1,196,-4)" class="stroke_order_diagram--current_path"></path><path id="pathSk2v596cn1ozq" kvg:type="㇐" d="M19.68,48.31c1.22,0.35,2.81,0.16,4.07,0.1c4.08-0.21,9.22-1.03,13.38-1.65c1.45-0.22,3.19-0.5,4.64-0.25" transform="matrix(1,0,0,1,196,-4)" class="stroke_order_diagram--current_path"></path><circle cx="19.68" cy="48.31" r="8" class="stroke_order_diagram--path_start" transform="matrix(1,0,0,1,196,-4)"></circle><line x1="350" x2="350" y1="1" y2="99" class="stroke_order_diagram--guide_line"></line><line x1="399" x2="399" y1="1" y2="99" class="stroke_order_diagram--bounding_box"></line><path id="pathSk2v596cn1ozt" kvg:type="㇔" d="M26.43,14.5c2.65,1.77,6.84,7.25,7.5,10" transform="matrix(1,0,0,1,296,-4)" class="stroke_order_diagram--existing_path"></path><path id="pathSk2v596cn1ozu" kvg:type="㇐" d="M12.62,34.83c1.61,0.53,3.72,0.26,5.39,0.16C25.82,34.55,34.6,33.45,41,32.5c1.43-0.21,3.42-0.36,4.84-0.08" transform="matrix(1,0,0,1,296,-4)" class="stroke_order_diagram--existing_path"></path><path id="pathSk2v596cn1ozv" kvg:type="㇐" d="M19.68,48.31c1.22,0.35,2.81,0.16,4.07,0.1c4.08-0.21,9.22-1.03,13.38-1.65c1.45-0.22,3.19-0.5,4.64-0.25" transform="matrix(1,0,0,1,296,-4)" class="stroke_order_diagram--existing_path"></path><path id="kvg:08a34-s4" kvg:type="㇐" d="M21.3,61.58c1.13,0.35,2.66,0.15,3.84,0.08c3.72-0.21,9.02-1.09,13.12-1.79c1.26-0.21,2.82-0.38,4.07-0.15" transform="matrix(1,0,0,1,296,-4)" class="stroke_order_diagram--current_path"></path><path id="pathSk2v596cn1ozx" kvg:type="㇐" d="M21.3,61.58c1.13,0.35,2.66,0.15,3.84,0.08c3.72-0.21,9.02-1.09,13.12-1.79c1.26-0.21,2.82-0.38,4.07-0.15" transform="matrix(1,0,0,1,296,-4)" class="stroke_order_diagram--current_path"></path><circle cx="21.3" cy="61.58" r="8" class="stroke_order_diagram--path_start" transform="matrix(1,0,0,1,296,-4)"></circle><line x1="450" x2="450" y1="1" y2="99" class="stroke_order_diagram--guide_line"></line><line x1="499" x2="499" y1="1" y2="99" class="stroke_order_diagram--bounding_box"></line><path id="pathSk2v596cn1p00" kvg:type="㇔" d="M26.43,14.5c2.65,1.77,6.84,7.25,7.5,10" transform="matrix(1,0,0,1,396,-4)" class="stroke_order_diagram--existing_path"></path><path id="pathSk2v596cn1p01" kvg:type="㇐" d="M12.62,34.83c1.61,0.53,3.72,0.26,5.39,0.16C25.82,34.55,34.6,33.45,41,32.5c1.43-0.21,3.42-0.36,4.84-0.08" transform="matrix(1,0,0,1,396,-4)" class="stroke_order_diagram--existing_path"></path><path id="pathSk2v596cn1p02" kvg:type="㇐" d="M19.68,48.31c1.22,0.35,2.81,0.16,4.07,0.1c4.08-0.21,9.22-1.03,13.38-1.65c1.45-0.22,3.19-0.5,4.64-0.25" transform="matrix(1,0,0,1,396,-4)" class="stroke_order_diagram--existing_path"></path><path id="pathSk2v596cn1p03" kvg:type="㇐" d="M21.3,61.58c1.13,0.35,2.66,0.15,3.84,0.08c3.72-0.21,9.02-1.09,13.12-1.79c1.26-0.21,2.82-0.38,4.07-0.15" transform="matrix(1,0,0,1,396,-4)" class="stroke_order_diagram--existing_path"></path><path id="kvg:08a34-s5" kvg:type="㇑" d="M19.51,74.3c0.84,0.84,1.23,1.85,1.45,2.84c0.73,3.3,1.56,8.49,2.32,13.1c0.25,1.51,0.49,2.96,0.72,4.26" transform="matrix(1,0,0,1,396,-4)" class="stroke_order_diagram--current_path"></path><path id="pathSk2v596cn1p05" kvg:type="㇑" d="M19.51,74.3c0.84,0.84,1.23,1.85,1.45,2.84c0.73,3.3,1.56,8.49,2.32,13.1c0.25,1.51,0.49,2.96,0.72,4.26" transform="matrix(1,0,0,1,396,-4)" class="stroke_order_diagram--current_path"></path><circle cx="19.51" cy="74.3" r="8" class="stroke_order_diagram--path_start" transform="matrix(1,0,0,1,396,-4)"></circle><line x1="550" x2="550" y1="1" y2="99" class="stroke_order_diagram--guide_line"></line><line x1="599" x2="599" y1="1" y2="99" class="stroke_order_diagram--bounding_box"></line><path id="pathSk2v596cn1p08" kvg:type="㇔" d="M26.43,14.5c2.65,1.77,6.84,7.25,7.5,10" transform="matrix(1,0,0,1,496,-4)" class="stroke_order_diagram--existing_path"></path><path id="pathSk2v596cn1p09" kvg:type="㇐" d="M12.62,34.83c1.61,0.53,3.72,0.26,5.39,0.16C25.82,34.55,34.6,33.45,41,32.5c1.43-0.21,3.42-0.36,4.84-0.08" transform="matrix(1,0,0,1,496,-4)" class="stroke_order_diagram--existing_path"></path><path id="pathSk2v596cn1p0a" kvg:type="㇐" d="M19.68,48.31c1.22,0.35,2.81,0.16,4.07,0.1c4.08-0.21,9.22-1.03,13.38-1.65c1.45-0.22,3.19-0.5,4.64-0.25" transform="matrix(1,0,0,1,496,-4)" class="stroke_order_diagram--existing_path"></path><path id="pathSk2v596cn1p0b" kvg:type="㇐" d="M21.3,61.58c1.13,0.35,2.66,0.15,3.84,0.08c3.72-0.21,9.02-1.09,13.12-1.79c1.26-0.21,2.82-0.38,4.07-0.15" transform="matrix(1,0,0,1,496,-4)" class="stroke_order_diagram--existing_path"></path><path id="pathSk2v596cn1p0c" kvg:type="㇑" d="M19.51,74.3c0.84,0.84,1.23,1.85,1.45,2.84c0.73,3.3,1.56,8.49,2.32,13.1c0.25,1.51,0.49,2.96,0.72,4.26" transform="matrix(1,0,0,1,496,-4)" class="stroke_order_diagram--existing_path"></path><path id="kvg:08a34-s6" kvg:type="㇕b" d="M21.59,75.44c6.24-0.79,12.32-1.6,18.05-2.39c2.6-0.36,3.83,0.29,3.28,2.99c-0.74,3.6-1.67,7.23-3.14,13.26" transform="matrix(1,0,0,1,496,-4)" class="stroke_order_diagram--current_path"></path><path id="pathSk2v596cn1p0e" kvg:type="㇕b" d="M21.59,75.44c6.24-0.79,12.32-1.6,18.05-2.39c2.6-0.36,3.83,0.29,3.28,2.99c-0.74,3.6-1.67,7.23-3.14,13.26" transform="matrix(1,0,0,1,496,-4)" class="stroke_order_diagram--current_path"></path><circle cx="21.59" cy="75.44" r="8" class="stroke_order_diagram--path_start" transform="matrix(1,0,0,1,496,-4)"></circle><line x1="650" x2="650" y1="1" y2="99" class="stroke_order_diagram--guide_line"></line><line x1="699" x2="699" y1="1" y2="99" class="stroke_order_diagram--bounding_box"></line><path id="pathSk2v596cn1p0h" kvg:type="㇔" d="M26.43,14.5c2.65,1.77,6.84,7.25,7.5,10" transform="matrix(1,0,0,1,596,-4)" class="stroke_order_diagram--existing_path"></path><path id="pathSk2v596cn1p0i" kvg:type="㇐" d="M12.62,34.83c1.61,0.53,3.72,0.26,5.39,0.16C25.82,34.55,34.6,33.45,41,32.5c1.43-0.21,3.42-0.36,4.84-0.08" transform="matrix(1,0,0,1,596,-4)" class="stroke_order_diagram--existing_path"></path><path id="pathSk2v596cn1p0j" kvg:type="㇐" d="M19.68,48.31c1.22,0.35,2.81,0.16,4.07,0.1c4.08-0.21,9.22-1.03,13.38-1.65c1.45-0.22,3.19-0.5,4.64-0.25" transform="matrix(1,0,0,1,596,-4)" class="stroke_order_diagram--existing_path"></path><path id="pathSk2v596cn1p0k" kvg:type="㇐" d="M21.3,61.58c1.13,0.35,2.66,0.15,3.84,0.08c3.72-0.21,9.02-1.09,13.12-1.79c1.26-0.21,2.82-0.38,4.07-0.15" transform="matrix(1,0,0,1,596,-4)" class="stroke_order_diagram--existing_path"></path><path id="pathSk2v596cn1p0l" kvg:type="㇑" d="M19.51,74.3c0.84,0.84,1.23,1.85,1.45,2.84c0.73,3.3,1.56,8.49,2.32,13.1c0.25,1.51,0.49,2.96,0.72,4.26" transform="matrix(1,0,0,1,596,-4)" class="stroke_order_diagram--existing_path"></path><path id="pathSk2v596cn1p0m" kvg:type="㇕b" d="M21.59,75.44c6.24-0.79,12.32-1.6,18.05-2.39c2.6-0.36,3.83,0.29,3.28,2.99c-0.74,3.6-1.67,7.23-3.14,13.26" transform="matrix(1,0,0,1,596,-4)" class="stroke_order_diagram--existing_path"></path><path id="kvg:08a34-s7" kvg:type="㇐b" d="M24.79,91.99c4.02-0.41,8.25-1.01,13.22-1.54c1.21-0.13,2.61-0.17,3.82-0.17" transform="matrix(1,0,0,1,596,-4)" class="stroke_order_diagram--current_path"></path><path id="pathSk2v596cn1p0o" kvg:type="㇐b" d="M24.79,91.99c4.02-0.41,8.25-1.01,13.22-1.54c1.21-0.13,2.61-0.17,3.82-0.17" transform="matrix(1,0,0,1,596,-4)" class="stroke_order_diagram--current_path"></path><circle cx="24.79" cy="91.99" r="8" class="stroke_order_diagram--path_start" transform="matrix(1,0,0,1,596,-4)"></circle><line x1="750" x2="750" y1="1" y2="99" class="stroke_order_diagram--guide_line"></line><line x1="799" x2="799" y1="1" y2="99" class="stroke_order_diagram--bounding_box"></line><path id="pathSk2v596cn1p0r" kvg:type="㇔" d="M26.43,14.5c2.65,1.77,6.84,7.25,7.5,10" transform="matrix(1,0,0,1,696,-4)" class="stroke_order_diagram--existing_path"></path><path id="pathSk2v596cn1p0s" kvg:type="㇐" d="M12.62,34.83c1.61,0.53,3.72,0.26,5.39,0.16C25.82,34.55,34.6,33.45,41,32.5c1.43-0.21,3.42-0.36,4.84-0.08" transform="matrix(1,0,0,1,696,-4)" class="stroke_order_diagram--existing_path"></path><path id="pathSk2v596cn1p0t" kvg:type="㇐" d="M19.68,48.31c1.22,0.35,2.81,0.16,4.07,0.1c4.08-0.21,9.22-1.03,13.38-1.65c1.45-0.22,3.19-0.5,4.64-0.25" transform="matrix(1,0,0,1,696,-4)" class="stroke_order_diagram--existing_path"></path><path id="pathSk2v596cn1p0u" kvg:type="㇐" d="M21.3,61.58c1.13,0.35,2.66,0.15,3.84,0.08c3.72-0.21,9.02-1.09,13.12-1.79c1.26-0.21,2.82-0.38,4.07-0.15" transform="matrix(1,0,0,1,696,-4)" class="stroke_order_diagram--existing_path"></path><path id="pathSk2v596cn1p0v" kvg:type="㇑" d="M19.51,74.3c0.84,0.84,1.23,1.85,1.45,2.84c0.73,3.3,1.56,8.49,2.32,13.1c0.25,1.51,0.49,2.96,0.72,4.26" transform="matrix(1,0,0,1,696,-4)" class="stroke_order_diagram--existing_path"></path><path id="pathSk2v596cn1p0w" kvg:type="㇕b" d="M21.59,75.44c6.24-0.79,12.32-1.6,18.05-2.39c2.6-0.36,3.83,0.29,3.28,2.99c-0.74,3.6-1.67,7.23-3.14,13.26" transform="matrix(1,0,0,1,696,-4)" class="stroke_order_diagram--existing_path"></path><path id="pathSk2v596cn1p0x" kvg:type="㇐b" d="M24.79,91.99c4.02-0.41,8.25-1.01,13.22-1.54c1.21-0.13,2.61-0.17,3.82-0.17" transform="matrix(1,0,0,1,696,-4)" class="stroke_order_diagram--existing_path"></path><path id="kvg:08a34-s8" kvg:type="㇒" d="M79.14,14.5c0.15,1.16-0.19,1.91-1.01,2.75c-4.88,5-10.75,9.75-19.83,14.39" transform="matrix(1,0,0,1,696,-4)" class="stroke_order_diagram--current_path"></path><path id="pathSk2v596cn1p0z" kvg:type="㇒" d="M79.14,14.5c0.15,1.16-0.19,1.91-1.01,2.75c-4.88,5-10.75,9.75-19.83,14.39" transform="matrix(1,0,0,1,696,-4)" class="stroke_order_diagram--current_path"></path><circle cx="79.14" cy="14.5" r="8" class="stroke_order_diagram--path_start" transform="matrix(1,0,0,1,696,-4)"></circle><line x1="850" x2="850" y1="1" y2="99" class="stroke_order_diagram--guide_line"></line><line x1="899" x2="899" y1="1" y2="99" class="stroke_order_diagram--bounding_box"></line><path id="pathSk2v596cn1p12" kvg:type="㇔" d="M26.43,14.5c2.65,1.77,6.84,7.25,7.5,10" transform="matrix(1,0,0,1,796,-4)" class="stroke_order_diagram--existing_path"></path><path id="pathSk2v596cn1p13" kvg:type="㇐" d="M12.62,34.83c1.61,0.53,3.72,0.26,5.39,0.16C25.82,34.55,34.6,33.45,41,32.5c1.43-0.21,3.42-0.36,4.84-0.08" transform="matrix(1,0,0,1,796,-4)" class="stroke_order_diagram--existing_path"></path><path id="pathSk2v596cn1p14" kvg:type="㇐" d="M19.68,48.31c1.22,0.35,2.81,0.16,4.07,0.1c4.08-0.21,9.22-1.03,13.38-1.65c1.45-0.22,3.19-0.5,4.64-0.25" transform="matrix(1,0,0,1,796,-4)" class="stroke_order_diagram--existing_path"></path><path id="pathSk2v596cn1p15" kvg:type="㇐" d="M21.3,61.58c1.13,0.35,2.66,0.15,3.84,0.08c3.72-0.21,9.02-1.09,13.12-1.79c1.26-0.21,2.82-0.38,4.07-0.15" transform="matrix(1,0,0,1,796,-4)" class="stroke_order_diagram--existing_path"></path><path id="pathSk2v596cn1p16" kvg:type="㇑" d="M19.51,74.3c0.84,0.84,1.23,1.85,1.45,2.84c0.73,3.3,1.56,8.49,2.32,13.1c0.25,1.51,0.49,2.96,0.72,4.26" transform="matrix(1,0,0,1,796,-4)" class="stroke_order_diagram--existing_path"></path><path id="pathSk2v596cn1p17" kvg:type="㇕b" d="M21.59,75.44c6.24-0.79,12.32-1.6,18.05-2.39c2.6-0.36,3.83,0.29,3.28,2.99c-0.74,3.6-1.67,7.23-3.14,13.26" transform="matrix(1,0,0,1,796,-4)" class="stroke_order_diagram--existing_path"></path><path id="pathSk2v596cn1p18" kvg:type="㇐b" d="M24.79,91.99c4.02-0.41,8.25-1.01,13.22-1.54c1.21-0.13,2.61-0.17,3.82-0.17" transform="matrix(1,0,0,1,796,-4)" class="stroke_order_diagram--existing_path"></path><path id="pathSk2v596cn1p19" kvg:type="㇒" d="M79.14,14.5c0.15,1.16-0.19,1.91-1.01,2.75c-4.88,5-10.75,9.75-19.83,14.39" transform="matrix(1,0,0,1,796,-4)" class="stroke_order_diagram--existing_path"></path><path id="kvg:08a34-s9" kvg:type="㇒" d="M54.84,31.79c1.19,1.19,1.35,2.3,1.37,4.29c0.29,33.68-1.76,45.54-8.19,54.7" transform="matrix(1,0,0,1,796,-4)" class="stroke_order_diagram--current_path"></path><path id="pathSk2v596cn1p1b" kvg:type="㇒" d="M54.84,31.79c1.19,1.19,1.35,2.3,1.37,4.29c0.29,33.68-1.76,45.54-8.19,54.7" transform="matrix(1,0,0,1,796,-4)" class="stroke_order_diagram--current_path"></path><circle cx="54.84" cy="31.79" r="8" class="stroke_order_diagram--path_start" transform="matrix(1,0,0,1,796,-4)"></circle><line x1="950" x2="950" y1="1" y2="99" class="stroke_order_diagram--guide_line"></line><line x1="999" x2="999" y1="1" y2="99" class="stroke_order_diagram--bounding_box"></line><path id="pathSk2v596cn1p1e" kvg:type="㇔" d="M26.43,14.5c2.65,1.77,6.84,7.25,7.5,10" transform="matrix(1,0,0,1,896,-4)" class="stroke_order_diagram--existing_path"></path><path id="pathSk2v596cn1p1f" kvg:type="㇐" d="M12.62,34.83c1.61,0.53,3.72,0.26,5.39,0.16C25.82,34.55,34.6,33.45,41,32.5c1.43-0.21,3.42-0.36,4.84-0.08" transform="matrix(1,0,0,1,896,-4)" class="stroke_order_diagram--existing_path"></path><path id="pathSk2v596cn1p1g" kvg:type="㇐" d="M19.68,48.31c1.22,0.35,2.81,0.16,4.07,0.1c4.08-0.21,9.22-1.03,13.38-1.65c1.45-0.22,3.19-0.5,4.64-0.25" transform="matrix(1,0,0,1,896,-4)" class="stroke_order_diagram--existing_path"></path><path id="pathSk2v596cn1p1h" kvg:type="㇐" d="M21.3,61.58c1.13,0.35,2.66,0.15,3.84,0.08c3.72-0.21,9.02-1.09,13.12-1.79c1.26-0.21,2.82-0.38,4.07-0.15" transform="matrix(1,0,0,1,896,-4)" class="stroke_order_diagram--existing_path"></path><path id="pathSk2v596cn1p1i" kvg:type="㇑" d="M19.51,74.3c0.84,0.84,1.23,1.85,1.45,2.84c0.73,3.3,1.56,8.49,2.32,13.1c0.25,1.51,0.49,2.96,0.72,4.26" transform="matrix(1,0,0,1,896,-4)" class="stroke_order_diagram--existing_path"></path><path id="pathSk2v596cn1p1j" kvg:type="㇕b" d="M21.59,75.44c6.24-0.79,12.32-1.6,18.05-2.39c2.6-0.36,3.83,0.29,3.28,2.99c-0.74,3.6-1.67,7.23-3.14,13.26" transform="matrix(1,0,0,1,896,-4)" class="stroke_order_diagram--existing_path"></path><path id="pathSk2v596cn1p1k" kvg:type="㇐b" d="M24.79,91.99c4.02-0.41,8.25-1.01,13.22-1.54c1.21-0.13,2.61-0.17,3.82-0.17" transform="matrix(1,0,0,1,896,-4)" class="stroke_order_diagram--existing_path"></path><path id="pathSk2v596cn1p1l" kvg:type="㇒" d="M79.14,14.5c0.15,1.16-0.19,1.91-1.01,2.75c-4.88,5-10.75,9.75-19.83,14.39" transform="matrix(1,0,0,1,896,-4)" class="stroke_order_diagram--existing_path"></path><path id="pathSk2v596cn1p1m" kvg:type="㇒" d="M54.84,31.79c1.19,1.19,1.35,2.3,1.37,4.29c0.29,33.68-1.76,45.54-8.19,54.7" transform="matrix(1,0,0,1,896,-4)" class="stroke_order_diagram--existing_path"></path><path id="kvg:08a34-s10" kvg:type="㇐" d="M58.78,44.75c1.97,0,3.28-0.23,4.53-0.39c8.36-1.04,18.98-2.78,27.74-4.27c1.91-0.33,4.07-0.79,6-0.31" transform="matrix(1,0,0,1,896,-4)" class="stroke_order_diagram--current_path"></path><path id="pathSk2v596cn1p1o" kvg:type="㇐" d="M58.78,44.75c1.97,0,3.28-0.23,4.53-0.39c8.36-1.04,18.98-2.78,27.74-4.27c1.91-0.33,4.07-0.79,6-0.31" transform="matrix(1,0,0,1,896,-4)" class="stroke_order_diagram--current_path"></path><circle cx="58.78" cy="44.75" r="8" class="stroke_order_diagram--path_start" transform="matrix(1,0,0,1,896,-4)"></circle><line x1="1050" x2="1050" y1="1" y2="99" class="stroke_order_diagram--guide_line"></line><line x1="1099" x2="1099" y1="1" y2="99" class="stroke_order_diagram--bounding_box"></line><path id="pathSk2v596cn1p1r" kvg:type="㇔" d="M26.43,14.5c2.65,1.77,6.84,7.25,7.5,10" transform="matrix(1,0,0,1,996,-4)" class="stroke_order_diagram--existing_path"></path><path id="pathSk2v596cn1p1s" kvg:type="㇐" d="M12.62,34.83c1.61,0.53,3.72,0.26,5.39,0.16C25.82,34.55,34.6,33.45,41,32.5c1.43-0.21,3.42-0.36,4.84-0.08" transform="matrix(1,0,0,1,996,-4)" class="stroke_order_diagram--existing_path"></path><path id="pathSk2v596cn1p1t" kvg:type="㇐" d="M19.68,48.31c1.22,0.35,2.81,0.16,4.07,0.1c4.08-0.21,9.22-1.03,13.38-1.65c1.45-0.22,3.19-0.5,4.64-0.25" transform="matrix(1,0,0,1,996,-4)" class="stroke_order_diagram--existing_path"></path><path id="pathSk2v596cn1p1u" kvg:type="㇐" d="M21.3,61.58c1.13,0.35,2.66,0.15,3.84,0.08c3.72-0.21,9.02-1.09,13.12-1.79c1.26-0.21,2.82-0.38,4.07-0.15" transform="matrix(1,0,0,1,996,-4)" class="stroke_order_diagram--existing_path"></path><path id="pathSk2v596cn1p1v" kvg:type="㇑" d="M19.51,74.3c0.84,0.84,1.23,1.85,1.45,2.84c0.73,3.3,1.56,8.49,2.32,13.1c0.25,1.51,0.49,2.96,0.72,4.26" transform="matrix(1,0,0,1,996,-4)" class="stroke_order_diagram--existing_path"></path><path id="pathSk2v596cn1p1w" kvg:type="㇕b" d="M21.59,75.44c6.24-0.79,12.32-1.6,18.05-2.39c2.6-0.36,3.83,0.29,3.28,2.99c-0.74,3.6-1.67,7.23-3.14,13.26" transform="matrix(1,0,0,1,996,-4)" class="stroke_order_diagram--existing_path"></path><path id="pathSk2v596cn1p1x" kvg:type="㇐b" d="M24.79,91.99c4.02-0.41,8.25-1.01,13.22-1.54c1.21-0.13,2.61-0.17,3.82-0.17" transform="matrix(1,0,0,1,996,-4)" class="stroke_order_diagram--existing_path"></path><path id="pathSk2v596cn1p1y" kvg:type="㇒" d="M79.14,14.5c0.15,1.16-0.19,1.91-1.01,2.75c-4.88,5-10.75,9.75-19.83,14.39" transform="matrix(1,0,0,1,996,-4)" class="stroke_order_diagram--existing_path"></path><path id="pathSk2v596cn1p1z" kvg:type="㇒" d="M54.84,31.79c1.19,1.19,1.35,2.3,1.37,4.29c0.29,33.68-1.76,45.54-8.19,54.7" transform="matrix(1,0,0,1,996,-4)" class="stroke_order_diagram--existing_path"></path><path id="pathSk2v596cn1p20" kvg:type="㇐" d="M58.78,44.75c1.97,0,3.28-0.23,4.53-0.39c8.36-1.04,18.98-2.78,27.74-4.27c1.91-0.33,4.07-0.79,6-0.31" transform="matrix(1,0,0,1,996,-4)" class="stroke_order_diagram--existing_path"></path><path id="kvg:08a34-s11" kvg:type="㇑" d="M78.75,44.6c1.26,1.26,1.56,2.77,1.56,4.49c0,0.73,0.05,27.71,0.06,41.9c0,4.76,0,8.08-0.01,8.5" transform="matrix(1,0,0,1,996,-4)" class="stroke_order_diagram--current_path"></path><path id="pathSk2v596cn1p22" kvg:type="㇑" d="M78.75,44.6c1.26,1.26,1.56,2.77,1.56,4.49c0,0.73,0.05,27.71,0.06,41.9c0,4.76,0,8.08-0.01,8.5" transform="matrix(1,0,0,1,996,-4)" class="stroke_order_diagram--current_path"></path><circle cx="78.75" cy="44.6" r="8" class="stroke_order_diagram--path_start" transform="matrix(1,0,0,1,996,-4)"></circle><line x1="1150" x2="1150" y1="1" y2="99" class="stroke_order_diagram--guide_line"></line><line x1="1199" x2="1199" y1="1" y2="99" class="stroke_order_diagram--bounding_box"></line><path id="pathSk2v596cn1p25" kvg:type="㇔" d="M26.43,14.5c2.65,1.77,6.84,7.25,7.5,10" transform="matrix(1,0,0,1,1096,-4)" class="stroke_order_diagram--existing_path"></path><path id="pathSk2v596cn1p26" kvg:type="㇐" d="M12.62,34.83c1.61,0.53,3.72,0.26,5.39,0.16C25.82,34.55,34.6,33.45,41,32.5c1.43-0.21,3.42-0.36,4.84-0.08" transform="matrix(1,0,0,1,1096,-4)" class="stroke_order_diagram--existing_path"></path><path id="pathSk2v596cn1p27" kvg:type="㇐" d="M19.68,48.31c1.22,0.35,2.81,0.16,4.07,0.1c4.08-0.21,9.22-1.03,13.38-1.65c1.45-0.22,3.19-0.5,4.64-0.25" transform="matrix(1,0,0,1,1096,-4)" class="stroke_order_diagram--existing_path"></path><path id="pathSk2v596cn1p28" kvg:type="㇐" d="M21.3,61.58c1.13,0.35,2.66,0.15,3.84,0.08c3.72-0.21,9.02-1.09,13.12-1.79c1.26-0.21,2.82-0.38,4.07-0.15" transform="matrix(1,0,0,1,1096,-4)" class="stroke_order_diagram--existing_path"></path><path id="pathSk2v596cn1p29" kvg:type="㇑" d="M19.51,74.3c0.84,0.84,1.23,1.85,1.45,2.84c0.73,3.3,1.56,8.49,2.32,13.1c0.25,1.51,0.49,2.96,0.72,4.26" transform="matrix(1,0,0,1,1096,-4)" class="stroke_order_diagram--existing_path"></path><path id="pathSk2v596cn1p2a" kvg:type="㇕b" d="M21.59,75.44c6.24-0.79,12.32-1.6,18.05-2.39c2.6-0.36,3.83,0.29,3.28,2.99c-0.74,3.6-1.67,7.23-3.14,13.26" transform="matrix(1,0,0,1,1096,-4)" class="stroke_order_diagram--existing_path"></path><path id="pathSk2v596cn1p2b" kvg:type="㇐b" d="M24.79,91.99c4.02-0.41,8.25-1.01,13.22-1.54c1.21-0.13,2.61-0.17,3.82-0.17" transform="matrix(1,0,0,1,1096,-4)" class="stroke_order_diagram--existing_path"></path><path id="pathSk2v596cn1p2c" kvg:type="㇒" d="M79.14,14.5c0.15,1.16-0.19,1.91-1.01,2.75c-4.88,5-10.75,9.75-19.83,14.39" transform="matrix(1,0,0,1,1096,-4)" class="stroke_order_diagram--existing_path"></path><path id="pathSk2v596cn1p2d" kvg:type="㇒" d="M54.84,31.79c1.19,1.19,1.35,2.3,1.37,4.29c0.29,33.68-1.76,45.54-8.19,54.7" transform="matrix(1,0,0,1,1096,-4)" class="stroke_order_diagram--existing_path"></path><path id="pathSk2v596cn1p2e" kvg:type="㇐" d="M58.78,44.75c1.97,0,3.28-0.23,4.53-0.39c8.36-1.04,18.98-2.78,27.74-4.27c1.91-0.33,4.07-0.79,6-0.31" transform="matrix(1,0,0,1,1096,-4)" class="stroke_order_diagram--existing_path"></path><path id="pathSk2v596cn1p2f" kvg:type="㇑" d="M78.75,44.6c1.26,1.26,1.56,2.77,1.56,4.49c0,0.73,0.05,27.71,0.06,41.9c0,4.76,0,8.08-0.01,8.5" transform="matrix(1,0,0,1,1096,-4)" class="stroke_order_diagram--existing_path"></path><path id="kvg:08a34-s12" kvg:type="㇔" d="M68.91,59.73c9.71,3.27,21.84,9.9,26.58,15.47" transform="matrix(1,0,0,1,1096,-4)" class="stroke_order_diagram--current_path"></path><path id="pathSk2v596cn1p2h" kvg:type="㇔" d="M68.91,59.73c9.71,3.27,21.84,9.9,26.58,15.47" transform="matrix(1,0,0,1,1096,-4)" class="stroke_order_diagram--current_path"></path><circle cx="68.91" cy="59.73" r="8" class="stroke_order_diagram--path_start" transform="matrix(1,0,0,1,1096,-4)"></circle></svg>