<svg style="width: 1500px; height: 100px;" viewbox="0 0 1500 100"><style>
.stroke_order_diagram--outer_container {
  width: 100%;
  overflow-x: auto;
  overflow-y: hidden;
}

.stroke_order_diagram--guide_line {
  fill: none;
  stroke: #ddd;
  stroke-width: 3;
  stroke-linecap: square;
  stroke-linejoin: square;
  stroke-dasharray:8, 8;
}

.stroke_order_diagram--bounding_box {
  fill: none;
  stroke: #ddd;
  stroke-width: 4;
  stroke-linecap: square;
  stroke-linejoin: square;
}

.stroke_order_diagram--current_path {
  fill: none;
  stroke: #000;
  stroke-width: 6;
  stroke-linecap: round;
  stroke-linejoin: round;
}

.stroke_order_diagram--existing_path {
  fill: none;
  stroke: #aaa;
  stroke-width: 6;
  stroke-linecap: round;
  stroke-linejoin:round;
}

.stroke_order_diagram--path_start {
  fill: rgba(255, 0, 0, 0.7);
  stroke:none
}</style><desc>Created with Snap</desc><defs></defs><line x1="1" x2="1499" y1="1" y2="1" class="stroke_order_diagram--bounding_box"></line><line x1="1" x2="1" y1="1" y2="99" class="stroke_order_diagram--bounding_box"></line><line x1="1" x2="1499" y1="99" y2="99" class="stroke_order_diagram--bounding_box"></line><line x1="0" x2="1500" y1="50" y2="50" class="stroke_order_diagram--guide_line"></line><line x1="50" x2="50" y1="1" y2="99" class="stroke_order_diagram--guide_line"></line><line x1="99" x2="99" y1="1" y2="99" class="stroke_order_diagram--bounding_box"></line><path id="kvg:08a95-s1" kvg:type="㇔" d="M19.3,14c2.52,1.5,6.5,6.17,7.13,8.5" transform="matrix(1,0,0,1,-4,-4)" class="stroke_order_diagram--current_path"></path><path id="pathSk2v596cn1g79" kvg:type="㇔" d="M19.3,14c2.52,1.5,6.5,6.17,7.13,8.5" transform="matrix(1,0,0,1,-4,-4)" class="stroke_order_diagram--current_path"></path><circle cx="19.3" cy="14" r="8" class="stroke_order_diagram--path_start" transform="matrix(1,0,0,1,-4,-4)"></circle><line x1="150" x2="150" y1="1" y2="99" class="stroke_order_diagram--guide_line"></line><line x1="199" x2="199" y1="1" y2="99" class="stroke_order_diagram--bounding_box"></line><path id="pathSk2v596cn1g7c" kvg:type="㇔" d="M19.3,14c2.52,1.5,6.5,6.17,7.13,8.5" transform="matrix(1,0,0,1,96,-4)" class="stroke_order_diagram--existing_path"></path><path id="kvg:08a95-s2" kvg:type="㇐" d="M7.62,32.83c1.48,0.48,3.37,0.31,4.9,0.15c6.6-0.68,15.1-2.23,21.14-3.15c1.43-0.22,3-0.44,4.44-0.16" transform="matrix(1,0,0,1,96,-4)" class="stroke_order_diagram--current_path"></path><path id="pathSk2v596cn1g7e" kvg:type="㇐" d="M7.62,32.83c1.48,0.48,3.37,0.31,4.9,0.15c6.6-0.68,15.1-2.23,21.14-3.15c1.43-0.22,3-0.44,4.44-0.16" transform="matrix(1,0,0,1,96,-4)" class="stroke_order_diagram--current_path"></path><circle cx="7.62" cy="32.83" r="8" class="stroke_order_diagram--path_start" transform="matrix(1,0,0,1,96,-4)"></circle><line x1="250" x2="250" y1="1" y2="99" class="stroke_order_diagram--guide_line"></line><line x1="299" x2="299" y1="1" y2="99" class="stroke_order_diagram--bounding_box"></line><path id="pathSk2v596cn1g7h" kvg:type="㇔" d="M19.3,14c2.52,1.5,6.5,6.17,7.13,8.5" transform="matrix(1,0,0,1,196,-4)" class="stroke_order_diagram--existing_path"></path><path id="pathSk2v596cn1g7i" kvg:type="㇐" d="M7.62,32.83c1.48,0.48,3.37,0.31,4.9,0.15c6.6-0.68,15.1-2.23,21.14-3.15c1.43-0.22,3-0.44,4.44-0.16" transform="matrix(1,0,0,1,196,-4)" class="stroke_order_diagram--existing_path"></path><path id="kvg:08a95-s3" kvg:type="㇐" d="M13.68,46.06c1.32,0.38,3.01,0.2,4.35-0.04c4.52-0.82,8.16-1.6,12.2-2.27c1.25-0.21,2.54-0.22,3.79-0.01" transform="matrix(1,0,0,1,196,-4)" class="stroke_order_diagram--current_path"></path><path id="pathSk2v596cn1g7k" kvg:type="㇐" d="M13.68,46.06c1.32,0.38,3.01,0.2,4.35-0.04c4.52-0.82,8.16-1.6,12.2-2.27c1.25-0.21,2.54-0.22,3.79-0.01" transform="matrix(1,0,0,1,196,-4)" class="stroke_order_diagram--current_path"></path><circle cx="13.68" cy="46.06" r="8" class="stroke_order_diagram--path_start" transform="matrix(1,0,0,1,196,-4)"></circle><line x1="350" x2="350" y1="1" y2="99" class="stroke_order_diagram--guide_line"></line><line x1="399" x2="399" y1="1" y2="99" class="stroke_order_diagram--bounding_box"></line><path id="pathSk2v596cn1g7n" kvg:type="㇔" d="M19.3,14c2.52,1.5,6.5,6.17,7.13,8.5" transform="matrix(1,0,0,1,296,-4)" class="stroke_order_diagram--existing_path"></path><path id="pathSk2v596cn1g7o" kvg:type="㇐" d="M7.62,32.83c1.48,0.48,3.37,0.31,4.9,0.15c6.6-0.68,15.1-2.23,21.14-3.15c1.43-0.22,3-0.44,4.44-0.16" transform="matrix(1,0,0,1,296,-4)" class="stroke_order_diagram--existing_path"></path><path id="pathSk2v596cn1g7p" kvg:type="㇐" d="M13.68,46.06c1.32,0.38,3.01,0.2,4.35-0.04c4.52-0.82,8.16-1.6,12.2-2.27c1.25-0.21,2.54-0.22,3.79-0.01" transform="matrix(1,0,0,1,296,-4)" class="stroke_order_diagram--existing_path"></path><path id="kvg:08a95-s4" kvg:type="㇐" d="M14.3,58.08c1.13,0.35,3.02,0.18,4.2,0.05c3.5-0.38,8.2-1.29,11.62-1.66c1.22-0.13,2.63-0.35,3.96-0.25" transform="matrix(1,0,0,1,296,-4)" class="stroke_order_diagram--current_path"></path><path id="pathSk2v596cn1g7r" kvg:type="㇐" d="M14.3,58.08c1.13,0.35,3.02,0.18,4.2,0.05c3.5-0.38,8.2-1.29,11.62-1.66c1.22-0.13,2.63-0.35,3.96-0.25" transform="matrix(1,0,0,1,296,-4)" class="stroke_order_diagram--current_path"></path><circle cx="14.3" cy="58.08" r="8" class="stroke_order_diagram--path_start" transform="matrix(1,0,0,1,296,-4)"></circle><line x1="450" x2="450" y1="1" y2="99" class="stroke_order_diagram--guide_line"></line><line x1="499" x2="499" y1="1" y2="99" class="stroke_order_diagram--bounding_box"></line><path id="pathSk2v596cn1g7u" kvg:type="㇔" d="M19.3,14c2.52,1.5,6.5,6.17,7.13,8.5" transform="matrix(1,0,0,1,396,-4)" class="stroke_order_diagram--existing_path"></path><path id="pathSk2v596cn1g7v" kvg:type="㇐" d="M7.62,32.83c1.48,0.48,3.37,0.31,4.9,0.15c6.6-0.68,15.1-2.23,21.14-3.15c1.43-0.22,3-0.44,4.44-0.16" transform="matrix(1,0,0,1,396,-4)" class="stroke_order_diagram--existing_path"></path><path id="pathSk2v596cn1g7w" kvg:type="㇐" d="M13.68,46.06c1.32,0.38,3.01,0.2,4.35-0.04c4.52-0.82,8.16-1.6,12.2-2.27c1.25-0.21,2.54-0.22,3.79-0.01" transform="matrix(1,0,0,1,396,-4)" class="stroke_order_diagram--existing_path"></path><path id="pathSk2v596cn1g7x" kvg:type="㇐" d="M14.3,58.08c1.13,0.35,3.02,0.18,4.2,0.05c3.5-0.38,8.2-1.29,11.62-1.66c1.22-0.13,2.63-0.35,3.96-0.25" transform="matrix(1,0,0,1,396,-4)" class="stroke_order_diagram--existing_path"></path><path id="kvg:08a95-s5" kvg:type="㇑" d="M13.01,70.51c0.87,0.87,1.24,2.12,1.39,2.86c0.71,3.4,1.37,8.69,2.03,13.32c0.2,1.38,0.37,2.68,0.52,3.82" transform="matrix(1,0,0,1,396,-4)" class="stroke_order_diagram--current_path"></path><path id="pathSk2v596cn1g7z" kvg:type="㇑" d="M13.01,70.51c0.87,0.87,1.24,2.12,1.39,2.86c0.71,3.4,1.37,8.69,2.03,13.32c0.2,1.38,0.37,2.68,0.52,3.82" transform="matrix(1,0,0,1,396,-4)" class="stroke_order_diagram--current_path"></path><circle cx="13.01" cy="70.51" r="8" class="stroke_order_diagram--path_start" transform="matrix(1,0,0,1,396,-4)"></circle><line x1="550" x2="550" y1="1" y2="99" class="stroke_order_diagram--guide_line"></line><line x1="599" x2="599" y1="1" y2="99" class="stroke_order_diagram--bounding_box"></line><path id="pathSk2v596cn1g82" kvg:type="㇔" d="M19.3,14c2.52,1.5,6.5,6.17,7.13,8.5" transform="matrix(1,0,0,1,496,-4)" class="stroke_order_diagram--existing_path"></path><path id="pathSk2v596cn1g83" kvg:type="㇐" d="M7.62,32.83c1.48,0.48,3.37,0.31,4.9,0.15c6.6-0.68,15.1-2.23,21.14-3.15c1.43-0.22,3-0.44,4.44-0.16" transform="matrix(1,0,0,1,496,-4)" class="stroke_order_diagram--existing_path"></path><path id="pathSk2v596cn1g84" kvg:type="㇐" d="M13.68,46.06c1.32,0.38,3.01,0.2,4.35-0.04c4.52-0.82,8.16-1.6,12.2-2.27c1.25-0.21,2.54-0.22,3.79-0.01" transform="matrix(1,0,0,1,496,-4)" class="stroke_order_diagram--existing_path"></path><path id="pathSk2v596cn1g85" kvg:type="㇐" d="M14.3,58.08c1.13,0.35,3.02,0.18,4.2,0.05c3.5-0.38,8.2-1.29,11.62-1.66c1.22-0.13,2.63-0.35,3.96-0.25" transform="matrix(1,0,0,1,496,-4)" class="stroke_order_diagram--existing_path"></path><path id="pathSk2v596cn1g86" kvg:type="㇑" d="M13.01,70.51c0.87,0.87,1.24,2.12,1.39,2.86c0.71,3.4,1.37,8.69,2.03,13.32c0.2,1.38,0.37,2.68,0.52,3.82" transform="matrix(1,0,0,1,496,-4)" class="stroke_order_diagram--existing_path"></path><path id="kvg:08a95-s6" kvg:type="㇕b" d="M14.76,71.62c5.75-0.76,11.54-1.95,16.88-2.78c2.59-0.41,3.86,0.17,3.3,2.9c-0.73,3.56-1.33,7.3-2.71,13.2" transform="matrix(1,0,0,1,496,-4)" class="stroke_order_diagram--current_path"></path><path id="pathSk2v596cn1g88" kvg:type="㇕b" d="M14.76,71.62c5.75-0.76,11.54-1.95,16.88-2.78c2.59-0.41,3.86,0.17,3.3,2.9c-0.73,3.56-1.33,7.3-2.71,13.2" transform="matrix(1,0,0,1,496,-4)" class="stroke_order_diagram--current_path"></path><circle cx="14.76" cy="71.62" r="8" class="stroke_order_diagram--path_start" transform="matrix(1,0,0,1,496,-4)"></circle><line x1="650" x2="650" y1="1" y2="99" class="stroke_order_diagram--guide_line"></line><line x1="699" x2="699" y1="1" y2="99" class="stroke_order_diagram--bounding_box"></line><path id="pathSk2v596cn1g8b" kvg:type="㇔" d="M19.3,14c2.52,1.5,6.5,6.17,7.13,8.5" transform="matrix(1,0,0,1,596,-4)" class="stroke_order_diagram--existing_path"></path><path id="pathSk2v596cn1g8c" kvg:type="㇐" d="M7.62,32.83c1.48,0.48,3.37,0.31,4.9,0.15c6.6-0.68,15.1-2.23,21.14-3.15c1.43-0.22,3-0.44,4.44-0.16" transform="matrix(1,0,0,1,596,-4)" class="stroke_order_diagram--existing_path"></path><path id="pathSk2v596cn1g8d" kvg:type="㇐" d="M13.68,46.06c1.32,0.38,3.01,0.2,4.35-0.04c4.52-0.82,8.16-1.6,12.2-2.27c1.25-0.21,2.54-0.22,3.79-0.01" transform="matrix(1,0,0,1,596,-4)" class="stroke_order_diagram--existing_path"></path><path id="pathSk2v596cn1g8e" kvg:type="㇐" d="M14.3,58.08c1.13,0.35,3.02,0.18,4.2,0.05c3.5-0.38,8.2-1.29,11.62-1.66c1.22-0.13,2.63-0.35,3.96-0.25" transform="matrix(1,0,0,1,596,-4)" class="stroke_order_diagram--existing_path"></path><path id="pathSk2v596cn1g8f" kvg:type="㇑" d="M13.01,70.51c0.87,0.87,1.24,2.12,1.39,2.86c0.71,3.4,1.37,8.69,2.03,13.32c0.2,1.38,0.37,2.68,0.52,3.82" transform="matrix(1,0,0,1,596,-4)" class="stroke_order_diagram--existing_path"></path><path id="pathSk2v596cn1g8g" kvg:type="㇕b" d="M14.76,71.62c5.75-0.76,11.54-1.95,16.88-2.78c2.59-0.41,3.86,0.17,3.3,2.9c-0.73,3.56-1.33,7.3-2.71,13.2" transform="matrix(1,0,0,1,596,-4)" class="stroke_order_diagram--existing_path"></path><path id="kvg:08a95-s7" kvg:type="㇐b" d="M17.47,87.81c4.01-0.43,8.73-1.29,13.83-1.87c0.84-0.1,1.83-0.19,2.63-0.06" transform="matrix(1,0,0,1,596,-4)" class="stroke_order_diagram--current_path"></path><path id="pathSk2v596cn1g8i" kvg:type="㇐b" d="M17.47,87.81c4.01-0.43,8.73-1.29,13.83-1.87c0.84-0.1,1.83-0.19,2.63-0.06" transform="matrix(1,0,0,1,596,-4)" class="stroke_order_diagram--current_path"></path><circle cx="17.47" cy="87.81" r="8" class="stroke_order_diagram--path_start" transform="matrix(1,0,0,1,596,-4)"></circle><line x1="750" x2="750" y1="1" y2="99" class="stroke_order_diagram--guide_line"></line><line x1="799" x2="799" y1="1" y2="99" class="stroke_order_diagram--bounding_box"></line><path id="pathSk2v596cn1g8l" kvg:type="㇔" d="M19.3,14c2.52,1.5,6.5,6.17,7.13,8.5" transform="matrix(1,0,0,1,696,-4)" class="stroke_order_diagram--existing_path"></path><path id="pathSk2v596cn1g8m" kvg:type="㇐" d="M7.62,32.83c1.48,0.48,3.37,0.31,4.9,0.15c6.6-0.68,15.1-2.23,21.14-3.15c1.43-0.22,3-0.44,4.44-0.16" transform="matrix(1,0,0,1,696,-4)" class="stroke_order_diagram--existing_path"></path><path id="pathSk2v596cn1g8n" kvg:type="㇐" d="M13.68,46.06c1.32,0.38,3.01,0.2,4.35-0.04c4.52-0.82,8.16-1.6,12.2-2.27c1.25-0.21,2.54-0.22,3.79-0.01" transform="matrix(1,0,0,1,696,-4)" class="stroke_order_diagram--existing_path"></path><path id="pathSk2v596cn1g8o" kvg:type="㇐" d="M14.3,58.08c1.13,0.35,3.02,0.18,4.2,0.05c3.5-0.38,8.2-1.29,11.62-1.66c1.22-0.13,2.63-0.35,3.96-0.25" transform="matrix(1,0,0,1,696,-4)" class="stroke_order_diagram--existing_path"></path><path id="pathSk2v596cn1g8p" kvg:type="㇑" d="M13.01,70.51c0.87,0.87,1.24,2.12,1.39,2.86c0.71,3.4,1.37,8.69,2.03,13.32c0.2,1.38,0.37,2.68,0.52,3.82" transform="matrix(1,0,0,1,696,-4)" class="stroke_order_diagram--existing_path"></path><path id="pathSk2v596cn1g8q" kvg:type="㇕b" d="M14.76,71.62c5.75-0.76,11.54-1.95,16.88-2.78c2.59-0.41,3.86,0.17,3.3,2.9c-0.73,3.56-1.33,7.3-2.71,13.2" transform="matrix(1,0,0,1,696,-4)" class="stroke_order_diagram--existing_path"></path><path id="pathSk2v596cn1g8r" kvg:type="㇐b" d="M17.47,87.81c4.01-0.43,8.73-1.29,13.83-1.87c0.84-0.1,1.83-0.19,2.63-0.06" transform="matrix(1,0,0,1,696,-4)" class="stroke_order_diagram--existing_path"></path><path id="kvg:08a95-s8" kvg:type="㇒" d="M85.84,15.25c0.06,0.39-0.23,1.41-0.62,1.82c-4.84,5.06-9.47,8.81-21.51,14.48" transform="matrix(1,0,0,1,696,-4)" class="stroke_order_diagram--current_path"></path><path id="pathSk2v596cn1g8t" kvg:type="㇒" d="M85.84,15.25c0.06,0.39-0.23,1.41-0.62,1.82c-4.84,5.06-9.47,8.81-21.51,14.48" transform="matrix(1,0,0,1,696,-4)" class="stroke_order_diagram--current_path"></path><circle cx="85.84" cy="15.25" r="8" class="stroke_order_diagram--path_start" transform="matrix(1,0,0,1,696,-4)"></circle><line x1="850" x2="850" y1="1" y2="99" class="stroke_order_diagram--guide_line"></line><line x1="899" x2="899" y1="1" y2="99" class="stroke_order_diagram--bounding_box"></line><path id="pathSk2v596cn1g8w" kvg:type="㇔" d="M19.3,14c2.52,1.5,6.5,6.17,7.13,8.5" transform="matrix(1,0,0,1,796,-4)" class="stroke_order_diagram--existing_path"></path><path id="pathSk2v596cn1g8x" kvg:type="㇐" d="M7.62,32.83c1.48,0.48,3.37,0.31,4.9,0.15c6.6-0.68,15.1-2.23,21.14-3.15c1.43-0.22,3-0.44,4.44-0.16" transform="matrix(1,0,0,1,796,-4)" class="stroke_order_diagram--existing_path"></path><path id="pathSk2v596cn1g8y" kvg:type="㇐" d="M13.68,46.06c1.32,0.38,3.01,0.2,4.35-0.04c4.52-0.82,8.16-1.6,12.2-2.27c1.25-0.21,2.54-0.22,3.79-0.01" transform="matrix(1,0,0,1,796,-4)" class="stroke_order_diagram--existing_path"></path><path id="pathSk2v596cn1g8z" kvg:type="㇐" d="M14.3,58.08c1.13,0.35,3.02,0.18,4.2,0.05c3.5-0.38,8.2-1.29,11.62-1.66c1.22-0.13,2.63-0.35,3.96-0.25" transform="matrix(1,0,0,1,796,-4)" class="stroke_order_diagram--existing_path"></path><path id="pathSk2v596cn1g90" kvg:type="㇑" d="M13.01,70.51c0.87,0.87,1.24,2.12,1.39,2.86c0.71,3.4,1.37,8.69,2.03,13.32c0.2,1.38,0.37,2.68,0.52,3.82" transform="matrix(1,0,0,1,796,-4)" class="stroke_order_diagram--existing_path"></path><path id="pathSk2v596cn1g91" kvg:type="㇕b" d="M14.76,71.62c5.75-0.76,11.54-1.95,16.88-2.78c2.59-0.41,3.86,0.17,3.3,2.9c-0.73,3.56-1.33,7.3-2.71,13.2" transform="matrix(1,0,0,1,796,-4)" class="stroke_order_diagram--existing_path"></path><path id="pathSk2v596cn1g92" kvg:type="㇐b" d="M17.47,87.81c4.01-0.43,8.73-1.29,13.83-1.87c0.84-0.1,1.83-0.19,2.63-0.06" transform="matrix(1,0,0,1,796,-4)" class="stroke_order_diagram--existing_path"></path><path id="pathSk2v596cn1g93" kvg:type="㇒" d="M85.84,15.25c0.06,0.39-0.23,1.41-0.62,1.82c-4.84,5.06-9.47,8.81-21.51,14.48" transform="matrix(1,0,0,1,796,-4)" class="stroke_order_diagram--existing_path"></path><path id="kvg:08a95-s9" kvg:type="㇑a" d="M77.17,28c0.79,0.79,1.22,1.75,1.22,2.86c0,1.03,0.11,30.8,0.11,37.89" transform="matrix(1,0,0,1,796,-4)" class="stroke_order_diagram--current_path"></path><path id="pathSk2v596cn1g95" kvg:type="㇑a" d="M77.17,28c0.79,0.79,1.22,1.75,1.22,2.86c0,1.03,0.11,30.8,0.11,37.89" transform="matrix(1,0,0,1,796,-4)" class="stroke_order_diagram--current_path"></path><circle cx="77.17" cy="28" r="8" class="stroke_order_diagram--path_start" transform="matrix(1,0,0,1,796,-4)"></circle><line x1="950" x2="950" y1="1" y2="99" class="stroke_order_diagram--guide_line"></line><line x1="999" x2="999" y1="1" y2="99" class="stroke_order_diagram--bounding_box"></line><path id="pathSk2v596cn1g98" kvg:type="㇔" d="M19.3,14c2.52,1.5,6.5,6.17,7.13,8.5" transform="matrix(1,0,0,1,896,-4)" class="stroke_order_diagram--existing_path"></path><path id="pathSk2v596cn1g99" kvg:type="㇐" d="M7.62,32.83c1.48,0.48,3.37,0.31,4.9,0.15c6.6-0.68,15.1-2.23,21.14-3.15c1.43-0.22,3-0.44,4.44-0.16" transform="matrix(1,0,0,1,896,-4)" class="stroke_order_diagram--existing_path"></path><path id="pathSk2v596cn1g9a" kvg:type="㇐" d="M13.68,46.06c1.32,0.38,3.01,0.2,4.35-0.04c4.52-0.82,8.16-1.6,12.2-2.27c1.25-0.21,2.54-0.22,3.79-0.01" transform="matrix(1,0,0,1,896,-4)" class="stroke_order_diagram--existing_path"></path><path id="pathSk2v596cn1g9b" kvg:type="㇐" d="M14.3,58.08c1.13,0.35,3.02,0.18,4.2,0.05c3.5-0.38,8.2-1.29,11.62-1.66c1.22-0.13,2.63-0.35,3.96-0.25" transform="matrix(1,0,0,1,896,-4)" class="stroke_order_diagram--existing_path"></path><path id="pathSk2v596cn1g9c" kvg:type="㇑" d="M13.01,70.51c0.87,0.87,1.24,2.12,1.39,2.86c0.71,3.4,1.37,8.69,2.03,13.32c0.2,1.38,0.37,2.68,0.52,3.82" transform="matrix(1,0,0,1,896,-4)" class="stroke_order_diagram--existing_path"></path><path id="pathSk2v596cn1g9d" kvg:type="㇕b" d="M14.76,71.62c5.75-0.76,11.54-1.95,16.88-2.78c2.59-0.41,3.86,0.17,3.3,2.9c-0.73,3.56-1.33,7.3-2.71,13.2" transform="matrix(1,0,0,1,896,-4)" class="stroke_order_diagram--existing_path"></path><path id="pathSk2v596cn1g9e" kvg:type="㇐b" d="M17.47,87.81c4.01-0.43,8.73-1.29,13.83-1.87c0.84-0.1,1.83-0.19,2.63-0.06" transform="matrix(1,0,0,1,896,-4)" class="stroke_order_diagram--existing_path"></path><path id="pathSk2v596cn1g9f" kvg:type="㇒" d="M85.84,15.25c0.06,0.39-0.23,1.41-0.62,1.82c-4.84,5.06-9.47,8.81-21.51,14.48" transform="matrix(1,0,0,1,896,-4)" class="stroke_order_diagram--existing_path"></path><path id="pathSk2v596cn1g9g" kvg:type="㇑a" d="M77.17,28c0.79,0.79,1.22,1.75,1.22,2.86c0,1.03,0.11,30.8,0.11,37.89" transform="matrix(1,0,0,1,896,-4)" class="stroke_order_diagram--existing_path"></path><path id="kvg:08a95-s10" kvg:type="㇐b" d="M79.48,46.06c4.05-0.5,7.06-1.14,11.14-1.57c1.02-0.11,2.23-0.38,3.24-0.11" transform="matrix(1,0,0,1,896,-4)" class="stroke_order_diagram--current_path"></path><path id="pathSk2v596cn1g9i" kvg:type="㇐b" d="M79.48,46.06c4.05-0.5,7.06-1.14,11.14-1.57c1.02-0.11,2.23-0.38,3.24-0.11" transform="matrix(1,0,0,1,896,-4)" class="stroke_order_diagram--current_path"></path><circle cx="79.48" cy="46.06" r="8" class="stroke_order_diagram--path_start" transform="matrix(1,0,0,1,896,-4)"></circle><line x1="1050" x2="1050" y1="1" y2="99" class="stroke_order_diagram--guide_line"></line><line x1="1099" x2="1099" y1="1" y2="99" class="stroke_order_diagram--bounding_box"></line><path id="pathSk2v596cn1g9l" kvg:type="㇔" d="M19.3,14c2.52,1.5,6.5,6.17,7.13,8.5" transform="matrix(1,0,0,1,996,-4)" class="stroke_order_diagram--existing_path"></path><path id="pathSk2v596cn1g9m" kvg:type="㇐" d="M7.62,32.83c1.48,0.48,3.37,0.31,4.9,0.15c6.6-0.68,15.1-2.23,21.14-3.15c1.43-0.22,3-0.44,4.44-0.16" transform="matrix(1,0,0,1,996,-4)" class="stroke_order_diagram--existing_path"></path><path id="pathSk2v596cn1g9n" kvg:type="㇐" d="M13.68,46.06c1.32,0.38,3.01,0.2,4.35-0.04c4.52-0.82,8.16-1.6,12.2-2.27c1.25-0.21,2.54-0.22,3.79-0.01" transform="matrix(1,0,0,1,996,-4)" class="stroke_order_diagram--existing_path"></path><path id="pathSk2v596cn1g9o" kvg:type="㇐" d="M14.3,58.08c1.13,0.35,3.02,0.18,4.2,0.05c3.5-0.38,8.2-1.29,11.62-1.66c1.22-0.13,2.63-0.35,3.96-0.25" transform="matrix(1,0,0,1,996,-4)" class="stroke_order_diagram--existing_path"></path><path id="pathSk2v596cn1g9p" kvg:type="㇑" d="M13.01,70.51c0.87,0.87,1.24,2.12,1.39,2.86c0.71,3.4,1.37,8.69,2.03,13.32c0.2,1.38,0.37,2.68,0.52,3.82" transform="matrix(1,0,0,1,996,-4)" class="stroke_order_diagram--existing_path"></path><path id="pathSk2v596cn1g9q" kvg:type="㇕b" d="M14.76,71.62c5.75-0.76,11.54-1.95,16.88-2.78c2.59-0.41,3.86,0.17,3.3,2.9c-0.73,3.56-1.33,7.3-2.71,13.2" transform="matrix(1,0,0,1,996,-4)" class="stroke_order_diagram--existing_path"></path><path id="pathSk2v596cn1g9r" kvg:type="㇐b" d="M17.47,87.81c4.01-0.43,8.73-1.29,13.83-1.87c0.84-0.1,1.83-0.19,2.63-0.06" transform="matrix(1,0,0,1,996,-4)" class="stroke_order_diagram--existing_path"></path><path id="pathSk2v596cn1g9s" kvg:type="㇒" d="M85.84,15.25c0.06,0.39-0.23,1.41-0.62,1.82c-4.84,5.06-9.47,8.81-21.51,14.48" transform="matrix(1,0,0,1,996,-4)" class="stroke_order_diagram--existing_path"></path><path id="pathSk2v596cn1g9t" kvg:type="㇑a" d="M77.17,28c0.79,0.79,1.22,1.75,1.22,2.86c0,1.03,0.11,30.8,0.11,37.89" transform="matrix(1,0,0,1,996,-4)" class="stroke_order_diagram--existing_path"></path><path id="pathSk2v596cn1g9u" kvg:type="㇐b" d="M79.48,46.06c4.05-0.5,7.06-1.14,11.14-1.57c1.02-0.11,2.23-0.38,3.24-0.11" transform="matrix(1,0,0,1,996,-4)" class="stroke_order_diagram--existing_path"></path><path id="kvg:08a95-s11" kvg:type="㇑a" d="M65.7,47.93c0.87,0.87,1.22,2.12,1.22,2.86c0,2.46,0.04,13.09,0.04,18.83" transform="matrix(1,0,0,1,996,-4)" class="stroke_order_diagram--current_path"></path><path id="pathSk2v596cn1g9w" kvg:type="㇑a" d="M65.7,47.93c0.87,0.87,1.22,2.12,1.22,2.86c0,2.46,0.04,13.09,0.04,18.83" transform="matrix(1,0,0,1,996,-4)" class="stroke_order_diagram--current_path"></path><circle cx="65.7" cy="47.93" r="8" class="stroke_order_diagram--path_start" transform="matrix(1,0,0,1,996,-4)"></circle><line x1="1150" x2="1150" y1="1" y2="99" class="stroke_order_diagram--guide_line"></line><line x1="1199" x2="1199" y1="1" y2="99" class="stroke_order_diagram--bounding_box"></line><path id="pathSk2v596cn1g9z" kvg:type="㇔" d="M19.3,14c2.52,1.5,6.5,6.17,7.13,8.5" transform="matrix(1,0,0,1,1096,-4)" class="stroke_order_diagram--existing_path"></path><path id="pathSk2v596cn1ga0" kvg:type="㇐" d="M7.62,32.83c1.48,0.48,3.37,0.31,4.9,0.15c6.6-0.68,15.1-2.23,21.14-3.15c1.43-0.22,3-0.44,4.44-0.16" transform="matrix(1,0,0,1,1096,-4)" class="stroke_order_diagram--existing_path"></path><path id="pathSk2v596cn1ga1" kvg:type="㇐" d="M13.68,46.06c1.32,0.38,3.01,0.2,4.35-0.04c4.52-0.82,8.16-1.6,12.2-2.27c1.25-0.21,2.54-0.22,3.79-0.01" transform="matrix(1,0,0,1,1096,-4)" class="stroke_order_diagram--existing_path"></path><path id="pathSk2v596cn1ga2" kvg:type="㇐" d="M14.3,58.08c1.13,0.35,3.02,0.18,4.2,0.05c3.5-0.38,8.2-1.29,11.62-1.66c1.22-0.13,2.63-0.35,3.96-0.25" transform="matrix(1,0,0,1,1096,-4)" class="stroke_order_diagram--existing_path"></path><path id="pathSk2v596cn1ga3" kvg:type="㇑" d="M13.01,70.51c0.87,0.87,1.24,2.12,1.39,2.86c0.71,3.4,1.37,8.69,2.03,13.32c0.2,1.38,0.37,2.68,0.52,3.82" transform="matrix(1,0,0,1,1096,-4)" class="stroke_order_diagram--existing_path"></path><path id="pathSk2v596cn1ga4" kvg:type="㇕b" d="M14.76,71.62c5.75-0.76,11.54-1.95,16.88-2.78c2.59-0.41,3.86,0.17,3.3,2.9c-0.73,3.56-1.33,7.3-2.71,13.2" transform="matrix(1,0,0,1,1096,-4)" class="stroke_order_diagram--existing_path"></path><path id="pathSk2v596cn1ga5" kvg:type="㇐b" d="M17.47,87.81c4.01-0.43,8.73-1.29,13.83-1.87c0.84-0.1,1.83-0.19,2.63-0.06" transform="matrix(1,0,0,1,1096,-4)" class="stroke_order_diagram--existing_path"></path><path id="pathSk2v596cn1ga6" kvg:type="㇒" d="M85.84,15.25c0.06,0.39-0.23,1.41-0.62,1.82c-4.84,5.06-9.47,8.81-21.51,14.48" transform="matrix(1,0,0,1,1096,-4)" class="stroke_order_diagram--existing_path"></path><path id="pathSk2v596cn1ga7" kvg:type="㇑a" d="M77.17,28c0.79,0.79,1.22,1.75,1.22,2.86c0,1.03,0.11,30.8,0.11,37.89" transform="matrix(1,0,0,1,1096,-4)" class="stroke_order_diagram--existing_path"></path><path id="pathSk2v596cn1ga8" kvg:type="㇐b" d="M79.48,46.06c4.05-0.5,7.06-1.14,11.14-1.57c1.02-0.11,2.23-0.38,3.24-0.11" transform="matrix(1,0,0,1,1096,-4)" class="stroke_order_diagram--existing_path"></path><path id="pathSk2v596cn1ga9" kvg:type="㇑a" d="M65.7,47.93c0.87,0.87,1.22,2.12,1.22,2.86c0,2.46,0.04,13.09,0.04,18.83" transform="matrix(1,0,0,1,1096,-4)" class="stroke_order_diagram--existing_path"></path><path id="kvg:08a95-s12" kvg:type="㇐" d="M62.02,70.71c1.73,0.29,3.61,0.29,5.09,0.15c8.26-0.74,18.56-1.9,24.6-2.24c1.22-0.07,3.33,0.11,4.03,0.29" transform="matrix(1,0,0,1,1096,-4)" class="stroke_order_diagram--current_path"></path><path id="pathSk2v596cn1gab" kvg:type="㇐" d="M62.02,70.71c1.73,0.29,3.61,0.29,5.09,0.15c8.26-0.74,18.56-1.9,24.6-2.24c1.22-0.07,3.33,0.11,4.03,0.29" transform="matrix(1,0,0,1,1096,-4)" class="stroke_order_diagram--current_path"></path><circle cx="62.02" cy="70.71" r="8" class="stroke_order_diagram--path_start" transform="matrix(1,0,0,1,1096,-4)"></circle><line x1="1250" x2="1250" y1="1" y2="99" class="stroke_order_diagram--guide_line"></line><line x1="1299" x2="1299" y1="1" y2="99" class="stroke_order_diagram--bounding_box"></line><path id="pathSk2v596cn1gae" kvg:type="㇔" d="M19.3,14c2.52,1.5,6.5,6.17,7.13,8.5" transform="matrix(1,0,0,1,1196,-4)" class="stroke_order_diagram--existing_path"></path><path id="pathSk2v596cn1gaf" kvg:type="㇐" d="M7.62,32.83c1.48,0.48,3.37,0.31,4.9,0.15c6.6-0.68,15.1-2.23,21.14-3.15c1.43-0.22,3-0.44,4.44-0.16" transform="matrix(1,0,0,1,1196,-4)" class="stroke_order_diagram--existing_path"></path><path id="pathSk2v596cn1gag" kvg:type="㇐" d="M13.68,46.06c1.32,0.38,3.01,0.2,4.35-0.04c4.52-0.82,8.16-1.6,12.2-2.27c1.25-0.21,2.54-0.22,3.79-0.01" transform="matrix(1,0,0,1,1196,-4)" class="stroke_order_diagram--existing_path"></path><path id="pathSk2v596cn1gah" kvg:type="㇐" d="M14.3,58.08c1.13,0.35,3.02,0.18,4.2,0.05c3.5-0.38,8.2-1.29,11.62-1.66c1.22-0.13,2.63-0.35,3.96-0.25" transform="matrix(1,0,0,1,1196,-4)" class="stroke_order_diagram--existing_path"></path><path id="pathSk2v596cn1gai" kvg:type="㇑" d="M13.01,70.51c0.87,0.87,1.24,2.12,1.39,2.86c0.71,3.4,1.37,8.69,2.03,13.32c0.2,1.38,0.37,2.68,0.52,3.82" transform="matrix(1,0,0,1,1196,-4)" class="stroke_order_diagram--existing_path"></path><path id="pathSk2v596cn1gaj" kvg:type="㇕b" d="M14.76,71.62c5.75-0.76,11.54-1.95,16.88-2.78c2.59-0.41,3.86,0.17,3.3,2.9c-0.73,3.56-1.33,7.3-2.71,13.2" transform="matrix(1,0,0,1,1196,-4)" class="stroke_order_diagram--existing_path"></path><path id="pathSk2v596cn1gak" kvg:type="㇐b" d="M17.47,87.81c4.01-0.43,8.73-1.29,13.83-1.87c0.84-0.1,1.83-0.19,2.63-0.06" transform="matrix(1,0,0,1,1196,-4)" class="stroke_order_diagram--existing_path"></path><path id="pathSk2v596cn1gal" kvg:type="㇒" d="M85.84,15.25c0.06,0.39-0.23,1.41-0.62,1.82c-4.84,5.06-9.47,8.81-21.51,14.48" transform="matrix(1,0,0,1,1196,-4)" class="stroke_order_diagram--existing_path"></path><path id="pathSk2v596cn1gam" kvg:type="㇑a" d="M77.17,28c0.79,0.79,1.22,1.75,1.22,2.86c0,1.03,0.11,30.8,0.11,37.89" transform="matrix(1,0,0,1,1196,-4)" class="stroke_order_diagram--existing_path"></path><path id="pathSk2v596cn1gan" kvg:type="㇐b" d="M79.48,46.06c4.05-0.5,7.06-1.14,11.14-1.57c1.02-0.11,2.23-0.38,3.24-0.11" transform="matrix(1,0,0,1,1196,-4)" class="stroke_order_diagram--existing_path"></path><path id="pathSk2v596cn1gao" kvg:type="㇑a" d="M65.7,47.93c0.87,0.87,1.22,2.12,1.22,2.86c0,2.46,0.04,13.09,0.04,18.83" transform="matrix(1,0,0,1,1196,-4)" class="stroke_order_diagram--existing_path"></path><path id="pathSk2v596cn1gap" kvg:type="㇐" d="M62.02,70.71c1.73,0.29,3.61,0.29,5.09,0.15c8.26-0.74,18.56-1.9,24.6-2.24c1.22-0.07,3.33,0.11,4.03,0.29" transform="matrix(1,0,0,1,1196,-4)" class="stroke_order_diagram--existing_path"></path><path id="kvg:08a95-s13" kvg:type="㇇" d="M38.21,36.12c1.07,0.56,3.04,0.44,4.55,0.06c1.5-0.38,5.16-1.98,8.38-4c1.48-0.93,2.86-0.43,2.15,1.69c-0.84,2.51-5.17,14.75-7.74,20.89" transform="matrix(1,0,0,1,1196,-4)" class="stroke_order_diagram--current_path"></path><path id="pathSk2v596cn1gar" kvg:type="㇇" d="M38.21,36.12c1.07,0.56,3.04,0.44,4.55,0.06c1.5-0.38,5.16-1.98,8.38-4c1.48-0.93,2.86-0.43,2.15,1.69c-0.84,2.51-5.17,14.75-7.74,20.89" transform="matrix(1,0,0,1,1196,-4)" class="stroke_order_diagram--current_path"></path><circle cx="38.21" cy="36.12" r="8" class="stroke_order_diagram--path_start" transform="matrix(1,0,0,1,1196,-4)"></circle><line x1="1350" x2="1350" y1="1" y2="99" class="stroke_order_diagram--guide_line"></line><line x1="1399" x2="1399" y1="1" y2="99" class="stroke_order_diagram--bounding_box"></line><path id="pathSk2v596cn1gau" kvg:type="㇔" d="M19.3,14c2.52,1.5,6.5,6.17,7.13,8.5" transform="matrix(1,0,0,1,1296,-4)" class="stroke_order_diagram--existing_path"></path><path id="pathSk2v596cn1gav" kvg:type="㇐" d="M7.62,32.83c1.48,0.48,3.37,0.31,4.9,0.15c6.6-0.68,15.1-2.23,21.14-3.15c1.43-0.22,3-0.44,4.44-0.16" transform="matrix(1,0,0,1,1296,-4)" class="stroke_order_diagram--existing_path"></path><path id="pathSk2v596cn1gaw" kvg:type="㇐" d="M13.68,46.06c1.32,0.38,3.01,0.2,4.35-0.04c4.52-0.82,8.16-1.6,12.2-2.27c1.25-0.21,2.54-0.22,3.79-0.01" transform="matrix(1,0,0,1,1296,-4)" class="stroke_order_diagram--existing_path"></path><path id="pathSk2v596cn1gax" kvg:type="㇐" d="M14.3,58.08c1.13,0.35,3.02,0.18,4.2,0.05c3.5-0.38,8.2-1.29,11.62-1.66c1.22-0.13,2.63-0.35,3.96-0.25" transform="matrix(1,0,0,1,1296,-4)" class="stroke_order_diagram--existing_path"></path><path id="pathSk2v596cn1gay" kvg:type="㇑" d="M13.01,70.51c0.87,0.87,1.24,2.12,1.39,2.86c0.71,3.4,1.37,8.69,2.03,13.32c0.2,1.38,0.37,2.68,0.52,3.82" transform="matrix(1,0,0,1,1296,-4)" class="stroke_order_diagram--existing_path"></path><path id="pathSk2v596cn1gaz" kvg:type="㇕b" d="M14.76,71.62c5.75-0.76,11.54-1.95,16.88-2.78c2.59-0.41,3.86,0.17,3.3,2.9c-0.73,3.56-1.33,7.3-2.71,13.2" transform="matrix(1,0,0,1,1296,-4)" class="stroke_order_diagram--existing_path"></path><path id="pathSk2v596cn1gb0" kvg:type="㇐b" d="M17.47,87.81c4.01-0.43,8.73-1.29,13.83-1.87c0.84-0.1,1.83-0.19,2.63-0.06" transform="matrix(1,0,0,1,1296,-4)" class="stroke_order_diagram--existing_path"></path><path id="pathSk2v596cn1gb1" kvg:type="㇒" d="M85.84,15.25c0.06,0.39-0.23,1.41-0.62,1.82c-4.84,5.06-9.47,8.81-21.51,14.48" transform="matrix(1,0,0,1,1296,-4)" class="stroke_order_diagram--existing_path"></path><path id="pathSk2v596cn1gb2" kvg:type="㇑a" d="M77.17,28c0.79,0.79,1.22,1.75,1.22,2.86c0,1.03,0.11,30.8,0.11,37.89" transform="matrix(1,0,0,1,1296,-4)" class="stroke_order_diagram--existing_path"></path><path id="pathSk2v596cn1gb3" kvg:type="㇐b" d="M79.48,46.06c4.05-0.5,7.06-1.14,11.14-1.57c1.02-0.11,2.23-0.38,3.24-0.11" transform="matrix(1,0,0,1,1296,-4)" class="stroke_order_diagram--existing_path"></path><path id="pathSk2v596cn1gb4" kvg:type="㇑a" d="M65.7,47.93c0.87,0.87,1.22,2.12,1.22,2.86c0,2.46,0.04,13.09,0.04,18.83" transform="matrix(1,0,0,1,1296,-4)" class="stroke_order_diagram--existing_path"></path><path id="pathSk2v596cn1gb5" kvg:type="㇐" d="M62.02,70.71c1.73,0.29,3.61,0.29,5.09,0.15c8.26-0.74,18.56-1.9,24.6-2.24c1.22-0.07,3.33,0.11,4.03,0.29" transform="matrix(1,0,0,1,1296,-4)" class="stroke_order_diagram--existing_path"></path><path id="pathSk2v596cn1gb6" kvg:type="㇇" d="M38.21,36.12c1.07,0.56,3.04,0.44,4.55,0.06c1.5-0.38,5.16-1.98,8.38-4c1.48-0.93,2.86-0.43,2.15,1.69c-0.84,2.51-5.17,14.75-7.74,20.89" transform="matrix(1,0,0,1,1296,-4)" class="stroke_order_diagram--existing_path"></path><path id="kvg:08a95-s14" kvg:type="㇇a" d="M45.46,55.26C49,54,52.6,52.95,54.31,52.05c2.44-1.3,4.4-1.08,3.6,2.26C54.75,67.5,50,83,37.68,92.25" transform="matrix(1,0,0,1,1296,-4)" class="stroke_order_diagram--current_path"></path><path id="pathSk2v596cn1gb8" kvg:type="㇇a" d="M45.46,55.26C49,54,52.6,52.95,54.31,52.05c2.44-1.3,4.4-1.08,3.6,2.26C54.75,67.5,50,83,37.68,92.25" transform="matrix(1,0,0,1,1296,-4)" class="stroke_order_diagram--current_path"></path><circle cx="45.46" cy="55.26" r="8" class="stroke_order_diagram--path_start" transform="matrix(1,0,0,1,1296,-4)"></circle><line x1="1450" x2="1450" y1="1" y2="99" class="stroke_order_diagram--guide_line"></line><line x1="1499" x2="1499" y1="1" y2="99" class="stroke_order_diagram--bounding_box"></line><path id="pathSk2v596cn1gbb" kvg:type="㇔" d="M19.3,14c2.52,1.5,6.5,6.17,7.13,8.5" transform="matrix(1,0,0,1,1396,-4)" class="stroke_order_diagram--existing_path"></path><path id="pathSk2v596cn1gbc" kvg:type="㇐" d="M7.62,32.83c1.48,0.48,3.37,0.31,4.9,0.15c6.6-0.68,15.1-2.23,21.14-3.15c1.43-0.22,3-0.44,4.44-0.16" transform="matrix(1,0,0,1,1396,-4)" class="stroke_order_diagram--existing_path"></path><path id="pathSk2v596cn1gbd" kvg:type="㇐" d="M13.68,46.06c1.32,0.38,3.01,0.2,4.35-0.04c4.52-0.82,8.16-1.6,12.2-2.27c1.25-0.21,2.54-0.22,3.79-0.01" transform="matrix(1,0,0,1,1396,-4)" class="stroke_order_diagram--existing_path"></path><path id="pathSk2v596cn1gbe" kvg:type="㇐" d="M14.3,58.08c1.13,0.35,3.02,0.18,4.2,0.05c3.5-0.38,8.2-1.29,11.62-1.66c1.22-0.13,2.63-0.35,3.96-0.25" transform="matrix(1,0,0,1,1396,-4)" class="stroke_order_diagram--existing_path"></path><path id="pathSk2v596cn1gbf" kvg:type="㇑" d="M13.01,70.51c0.87,0.87,1.24,2.12,1.39,2.86c0.71,3.4,1.37,8.69,2.03,13.32c0.2,1.38,0.37,2.68,0.52,3.82" transform="matrix(1,0,0,1,1396,-4)" class="stroke_order_diagram--existing_path"></path><path id="pathSk2v596cn1gbg" kvg:type="㇕b" d="M14.76,71.62c5.75-0.76,11.54-1.95,16.88-2.78c2.59-0.41,3.86,0.17,3.3,2.9c-0.73,3.56-1.33,7.3-2.71,13.2" transform="matrix(1,0,0,1,1396,-4)" class="stroke_order_diagram--existing_path"></path><path id="pathSk2v596cn1gbh" kvg:type="㇐b" d="M17.47,87.81c4.01-0.43,8.73-1.29,13.83-1.87c0.84-0.1,1.83-0.19,2.63-0.06" transform="matrix(1,0,0,1,1396,-4)" class="stroke_order_diagram--existing_path"></path><path id="pathSk2v596cn1gbi" kvg:type="㇒" d="M85.84,15.25c0.06,0.39-0.23,1.41-0.62,1.82c-4.84,5.06-9.47,8.81-21.51,14.48" transform="matrix(1,0,0,1,1396,-4)" class="stroke_order_diagram--existing_path"></path><path id="pathSk2v596cn1gbj" kvg:type="㇑a" d="M77.17,28c0.79,0.79,1.22,1.75,1.22,2.86c0,1.03,0.11,30.8,0.11,37.89" transform="matrix(1,0,0,1,1396,-4)" class="stroke_order_diagram--existing_path"></path><path id="pathSk2v596cn1gbk" kvg:type="㇐b" d="M79.48,46.06c4.05-0.5,7.06-1.14,11.14-1.57c1.02-0.11,2.23-0.38,3.24-0.11" transform="matrix(1,0,0,1,1396,-4)" class="stroke_order_diagram--existing_path"></path><path id="pathSk2v596cn1gbl" kvg:type="㇑a" d="M65.7,47.93c0.87,0.87,1.22,2.12,1.22,2.86c0,2.46,0.04,13.09,0.04,18.83" transform="matrix(1,0,0,1,1396,-4)" class="stroke_order_diagram--existing_path"></path><path id="pathSk2v596cn1gbm" kvg:type="㇐" d="M62.02,70.71c1.73,0.29,3.61,0.29,5.09,0.15c8.26-0.74,18.56-1.9,24.6-2.24c1.22-0.07,3.33,0.11,4.03,0.29" transform="matrix(1,0,0,1,1396,-4)" class="stroke_order_diagram--existing_path"></path><path id="pathSk2v596cn1gbn" kvg:type="㇇" d="M38.21,36.12c1.07,0.56,3.04,0.44,4.55,0.06c1.5-0.38,5.16-1.98,8.38-4c1.48-0.93,2.86-0.43,2.15,1.69c-0.84,2.51-5.17,14.75-7.74,20.89" transform="matrix(1,0,0,1,1396,-4)" class="stroke_order_diagram--existing_path"></path><path id="pathSk2v596cn1gbo" kvg:type="㇇a" d="M45.46,55.26C49,54,52.6,52.95,54.31,52.05c2.44-1.3,4.4-1.08,3.6,2.26C54.75,67.5,50,83,37.68,92.25" transform="matrix(1,0,0,1,1396,-4)" class="stroke_order_diagram--existing_path"></path><path id="kvg:08a95-s15" kvg:type="㇏" d="M39.5,64.75c4.03-0.17,22.62,14.12,42.76,24.49c3.67,1.89,8.36,3.64,12.49,4.76" transform="matrix(1,0,0,1,1396,-4)" class="stroke_order_diagram--current_path"></path><path id="pathSk2v596cn1gbq" kvg:type="㇏" d="M39.5,64.75c4.03-0.17,22.62,14.12,42.76,24.49c3.67,1.89,8.36,3.64,12.49,4.76" transform="matrix(1,0,0,1,1396,-4)" class="stroke_order_diagram--current_path"></path><circle cx="39.5" cy="64.75" r="8" class="stroke_order_diagram--path_start" transform="matrix(1,0,0,1,1396,-4)"></circle></svg>