<svg style="width: 1400px; height: 100px;" viewbox="0 0 1400 100"><style>
.stroke_order_diagram--outer_container {
  width: 100%;
  overflow-x: auto;
  overflow-y: hidden;
}

.stroke_order_diagram--guide_line {
  fill: none;
  stroke: #ddd;
  stroke-width: 3;
  stroke-linecap: square;
  stroke-linejoin: square;
  stroke-dasharray:8, 8;
}

.stroke_order_diagram--bounding_box {
  fill: none;
  stroke: #ddd;
  stroke-width: 4;
  stroke-linecap: square;
  stroke-linejoin: square;
}

.stroke_order_diagram--current_path {
  fill: none;
  stroke: #000;
  stroke-width: 6;
  stroke-linecap: round;
  stroke-linejoin: round;
}

.stroke_order_diagram--existing_path {
  fill: none;
  stroke: #aaa;
  stroke-width: 6;
  stroke-linecap: round;
  stroke-linejoin:round;
}

.stroke_order_diagram--path_start {
  fill: rgba(255, 0, 0, 0.7);
  stroke:none
}</style><desc>Created with Snap</desc><defs></defs><line x1="1" x2="1399" y1="1" y2="1" class="stroke_order_diagram--bounding_box"></line><line x1="1" x2="1" y1="1" y2="99" class="stroke_order_diagram--bounding_box"></line><line x1="1" x2="1399" y1="99" y2="99" class="stroke_order_diagram--bounding_box"></line><line x1="0" x2="1400" y1="50" y2="50" class="stroke_order_diagram--guide_line"></line><line x1="50" x2="50" y1="1" y2="99" class="stroke_order_diagram--guide_line"></line><line x1="99" x2="99" y1="1" y2="99" class="stroke_order_diagram--bounding_box"></line><path id="kvg:08a98-s1" kvg:type="㇔" d="M21.8,14.75c2.52,1.5,6.25,6.42,6.88,8.75" transform="matrix(1,0,0,1,-4,-4)" class="stroke_order_diagram--current_path"></path><path id="pathSk2v596cn1v3p" kvg:type="㇔" d="M21.8,14.75c2.52,1.5,6.25,6.42,6.88,8.75" transform="matrix(1,0,0,1,-4,-4)" class="stroke_order_diagram--current_path"></path><circle cx="21.8" cy="14.75" r="8" class="stroke_order_diagram--path_start" transform="matrix(1,0,0,1,-4,-4)"></circle><line x1="150" x2="150" y1="1" y2="99" class="stroke_order_diagram--guide_line"></line><line x1="199" x2="199" y1="1" y2="99" class="stroke_order_diagram--bounding_box"></line><path id="pathSk2v596cn1v3s" kvg:type="㇔" d="M21.8,14.75c2.52,1.5,6.25,6.42,6.88,8.75" transform="matrix(1,0,0,1,96,-4)" class="stroke_order_diagram--existing_path"></path><path id="kvg:08a98-s2" kvg:type="㇐" d="M11.12,32.68c1.57,0.68,4.17,0.51,5.77,0.36c7.18-0.69,14.21-2.76,19.03-3.74c1.04-0.21,2.4-0.12,2.92,0.02" transform="matrix(1,0,0,1,96,-4)" class="stroke_order_diagram--current_path"></path><path id="pathSk2v596cn1v3u" kvg:type="㇐" d="M11.12,32.68c1.57,0.68,4.17,0.51,5.77,0.36c7.18-0.69,14.21-2.76,19.03-3.74c1.04-0.21,2.4-0.12,2.92,0.02" transform="matrix(1,0,0,1,96,-4)" class="stroke_order_diagram--current_path"></path><circle cx="11.12" cy="32.68" r="8" class="stroke_order_diagram--path_start" transform="matrix(1,0,0,1,96,-4)"></circle><line x1="250" x2="250" y1="1" y2="99" class="stroke_order_diagram--guide_line"></line><line x1="299" x2="299" y1="1" y2="99" class="stroke_order_diagram--bounding_box"></line><path id="pathSk2v596cn1v3x" kvg:type="㇔" d="M21.8,14.75c2.52,1.5,6.25,6.42,6.88,8.75" transform="matrix(1,0,0,1,196,-4)" class="stroke_order_diagram--existing_path"></path><path id="pathSk2v596cn1v3y" kvg:type="㇐" d="M11.12,32.68c1.57,0.68,4.17,0.51,5.77,0.36c7.18-0.69,14.21-2.76,19.03-3.74c1.04-0.21,2.4-0.12,2.92,0.02" transform="matrix(1,0,0,1,196,-4)" class="stroke_order_diagram--existing_path"></path><path id="kvg:08a98-s3" kvg:type="㇐" d="M15.93,46.06c1.4,0.4,3.03,0.19,4.47,0c5.06-0.65,10.31-2.22,13.34-2.68c0.99-0.15,2.28-0.56,3.29-0.38" transform="matrix(1,0,0,1,196,-4)" class="stroke_order_diagram--current_path"></path><path id="pathSk2v596cn1v40" kvg:type="㇐" d="M15.93,46.06c1.4,0.4,3.03,0.19,4.47,0c5.06-0.65,10.31-2.22,13.34-2.68c0.99-0.15,2.28-0.56,3.29-0.38" transform="matrix(1,0,0,1,196,-4)" class="stroke_order_diagram--current_path"></path><circle cx="15.93" cy="46.06" r="8" class="stroke_order_diagram--path_start" transform="matrix(1,0,0,1,196,-4)"></circle><line x1="350" x2="350" y1="1" y2="99" class="stroke_order_diagram--guide_line"></line><line x1="399" x2="399" y1="1" y2="99" class="stroke_order_diagram--bounding_box"></line><path id="pathSk2v596cn1v43" kvg:type="㇔" d="M21.8,14.75c2.52,1.5,6.25,6.42,6.88,8.75" transform="matrix(1,0,0,1,296,-4)" class="stroke_order_diagram--existing_path"></path><path id="pathSk2v596cn1v44" kvg:type="㇐" d="M11.12,32.68c1.57,0.68,4.17,0.51,5.77,0.36c7.18-0.69,14.21-2.76,19.03-3.74c1.04-0.21,2.4-0.12,2.92,0.02" transform="matrix(1,0,0,1,296,-4)" class="stroke_order_diagram--existing_path"></path><path id="pathSk2v596cn1v45" kvg:type="㇐" d="M15.93,46.06c1.4,0.4,3.03,0.19,4.47,0c5.06-0.65,10.31-2.22,13.34-2.68c0.99-0.15,2.28-0.56,3.29-0.38" transform="matrix(1,0,0,1,296,-4)" class="stroke_order_diagram--existing_path"></path><path id="kvg:08a98-s4" kvg:type="㇐" d="M17.55,58.13c0.98,0.37,2.79,0.52,3.83,0.33c4.37-0.83,9.12-2.26,12.27-2.92c0.91-0.19,2.26-0.57,3.19-0.37" transform="matrix(1,0,0,1,296,-4)" class="stroke_order_diagram--current_path"></path><path id="pathSk2v596cn1v47" kvg:type="㇐" d="M17.55,58.13c0.98,0.37,2.79,0.52,3.83,0.33c4.37-0.83,9.12-2.26,12.27-2.92c0.91-0.19,2.26-0.57,3.19-0.37" transform="matrix(1,0,0,1,296,-4)" class="stroke_order_diagram--current_path"></path><circle cx="17.55" cy="58.13" r="8" class="stroke_order_diagram--path_start" transform="matrix(1,0,0,1,296,-4)"></circle><line x1="450" x2="450" y1="1" y2="99" class="stroke_order_diagram--guide_line"></line><line x1="499" x2="499" y1="1" y2="99" class="stroke_order_diagram--bounding_box"></line><path id="pathSk2v596cn1v4a" kvg:type="㇔" d="M21.8,14.75c2.52,1.5,6.25,6.42,6.88,8.75" transform="matrix(1,0,0,1,396,-4)" class="stroke_order_diagram--existing_path"></path><path id="pathSk2v596cn1v4b" kvg:type="㇐" d="M11.12,32.68c1.57,0.68,4.17,0.51,5.77,0.36c7.18-0.69,14.21-2.76,19.03-3.74c1.04-0.21,2.4-0.12,2.92,0.02" transform="matrix(1,0,0,1,396,-4)" class="stroke_order_diagram--existing_path"></path><path id="pathSk2v596cn1v4c" kvg:type="㇐" d="M15.93,46.06c1.4,0.4,3.03,0.19,4.47,0c5.06-0.65,10.31-2.22,13.34-2.68c0.99-0.15,2.28-0.56,3.29-0.38" transform="matrix(1,0,0,1,396,-4)" class="stroke_order_diagram--existing_path"></path><path id="pathSk2v596cn1v4d" kvg:type="㇐" d="M17.55,58.13c0.98,0.37,2.79,0.52,3.83,0.33c4.37-0.83,9.12-2.26,12.27-2.92c0.91-0.19,2.26-0.57,3.19-0.37" transform="matrix(1,0,0,1,396,-4)" class="stroke_order_diagram--existing_path"></path><path id="kvg:08a98-s5" kvg:type="㇑" d="M16.51,73.28c0.77,0.81,0.93,2.05,1.12,3.08c0.62,3.3,1.31,8.55,1.96,13.14c0.24,1.72,0.48,3.36,0.71,4.76" transform="matrix(1,0,0,1,396,-4)" class="stroke_order_diagram--current_path"></path><path id="pathSk2v596cn1v4f" kvg:type="㇑" d="M16.51,73.28c0.77,0.81,0.93,2.05,1.12,3.08c0.62,3.3,1.31,8.55,1.96,13.14c0.24,1.72,0.48,3.36,0.71,4.76" transform="matrix(1,0,0,1,396,-4)" class="stroke_order_diagram--current_path"></path><circle cx="16.51" cy="73.28" r="8" class="stroke_order_diagram--path_start" transform="matrix(1,0,0,1,396,-4)"></circle><line x1="550" x2="550" y1="1" y2="99" class="stroke_order_diagram--guide_line"></line><line x1="599" x2="599" y1="1" y2="99" class="stroke_order_diagram--bounding_box"></line><path id="pathSk2v596cn1v4i" kvg:type="㇔" d="M21.8,14.75c2.52,1.5,6.25,6.42,6.88,8.75" transform="matrix(1,0,0,1,496,-4)" class="stroke_order_diagram--existing_path"></path><path id="pathSk2v596cn1v4j" kvg:type="㇐" d="M11.12,32.68c1.57,0.68,4.17,0.51,5.77,0.36c7.18-0.69,14.21-2.76,19.03-3.74c1.04-0.21,2.4-0.12,2.92,0.02" transform="matrix(1,0,0,1,496,-4)" class="stroke_order_diagram--existing_path"></path><path id="pathSk2v596cn1v4k" kvg:type="㇐" d="M15.93,46.06c1.4,0.4,3.03,0.19,4.47,0c5.06-0.65,10.31-2.22,13.34-2.68c0.99-0.15,2.28-0.56,3.29-0.38" transform="matrix(1,0,0,1,496,-4)" class="stroke_order_diagram--existing_path"></path><path id="pathSk2v596cn1v4l" kvg:type="㇐" d="M17.55,58.13c0.98,0.37,2.79,0.52,3.83,0.33c4.37-0.83,9.12-2.26,12.27-2.92c0.91-0.19,2.26-0.57,3.19-0.37" transform="matrix(1,0,0,1,496,-4)" class="stroke_order_diagram--existing_path"></path><path id="pathSk2v596cn1v4m" kvg:type="㇑" d="M16.51,73.28c0.77,0.81,0.93,2.05,1.12,3.08c0.62,3.3,1.31,8.55,1.96,13.14c0.24,1.72,0.48,3.36,0.71,4.76" transform="matrix(1,0,0,1,496,-4)" class="stroke_order_diagram--existing_path"></path><path id="kvg:08a98-s6" kvg:type="㇕b" d="M18.54,74.9c6.8-1.51,11.18-2.72,16.6-3.74c2.78-0.52,4.17,0,3.5,2.98c-0.78,3.51-1.59,7.58-2.98,13.46" transform="matrix(1,0,0,1,496,-4)" class="stroke_order_diagram--current_path"></path><path id="pathSk2v596cn1v4o" kvg:type="㇕b" d="M18.54,74.9c6.8-1.51,11.18-2.72,16.6-3.74c2.78-0.52,4.17,0,3.5,2.98c-0.78,3.51-1.59,7.58-2.98,13.46" transform="matrix(1,0,0,1,496,-4)" class="stroke_order_diagram--current_path"></path><circle cx="18.54" cy="74.9" r="8" class="stroke_order_diagram--path_start" transform="matrix(1,0,0,1,496,-4)"></circle><line x1="650" x2="650" y1="1" y2="99" class="stroke_order_diagram--guide_line"></line><line x1="699" x2="699" y1="1" y2="99" class="stroke_order_diagram--bounding_box"></line><path id="pathSk2v596cn1v4r" kvg:type="㇔" d="M21.8,14.75c2.52,1.5,6.25,6.42,6.88,8.75" transform="matrix(1,0,0,1,596,-4)" class="stroke_order_diagram--existing_path"></path><path id="pathSk2v596cn1v4s" kvg:type="㇐" d="M11.12,32.68c1.57,0.68,4.17,0.51,5.77,0.36c7.18-0.69,14.21-2.76,19.03-3.74c1.04-0.21,2.4-0.12,2.92,0.02" transform="matrix(1,0,0,1,596,-4)" class="stroke_order_diagram--existing_path"></path><path id="pathSk2v596cn1v4t" kvg:type="㇐" d="M15.93,46.06c1.4,0.4,3.03,0.19,4.47,0c5.06-0.65,10.31-2.22,13.34-2.68c0.99-0.15,2.28-0.56,3.29-0.38" transform="matrix(1,0,0,1,596,-4)" class="stroke_order_diagram--existing_path"></path><path id="pathSk2v596cn1v4u" kvg:type="㇐" d="M17.55,58.13c0.98,0.37,2.79,0.52,3.83,0.33c4.37-0.83,9.12-2.26,12.27-2.92c0.91-0.19,2.26-0.57,3.19-0.37" transform="matrix(1,0,0,1,596,-4)" class="stroke_order_diagram--existing_path"></path><path id="pathSk2v596cn1v4v" kvg:type="㇑" d="M16.51,73.28c0.77,0.81,0.93,2.05,1.12,3.08c0.62,3.3,1.31,8.55,1.96,13.14c0.24,1.72,0.48,3.36,0.71,4.76" transform="matrix(1,0,0,1,596,-4)" class="stroke_order_diagram--existing_path"></path><path id="pathSk2v596cn1v4w" kvg:type="㇕b" d="M18.54,74.9c6.8-1.51,11.18-2.72,16.6-3.74c2.78-0.52,4.17,0,3.5,2.98c-0.78,3.51-1.59,7.58-2.98,13.46" transform="matrix(1,0,0,1,596,-4)" class="stroke_order_diagram--existing_path"></path><path id="kvg:08a98-s7" kvg:type="㇐b" d="M20.83,91.27c3.74-0.4,8.04-1.34,12.88-2.11c1.35-0.21,2.75-0.42,4.19-0.59" transform="matrix(1,0,0,1,596,-4)" class="stroke_order_diagram--current_path"></path><path id="pathSk2v596cn1v4y" kvg:type="㇐b" d="M20.83,91.27c3.74-0.4,8.04-1.34,12.88-2.11c1.35-0.21,2.75-0.42,4.19-0.59" transform="matrix(1,0,0,1,596,-4)" class="stroke_order_diagram--current_path"></path><circle cx="20.83" cy="91.27" r="8" class="stroke_order_diagram--path_start" transform="matrix(1,0,0,1,596,-4)"></circle><line x1="750" x2="750" y1="1" y2="99" class="stroke_order_diagram--guide_line"></line><line x1="799" x2="799" y1="1" y2="99" class="stroke_order_diagram--bounding_box"></line><path id="pathSk2v596cn1v51" kvg:type="㇔" d="M21.8,14.75c2.52,1.5,6.25,6.42,6.88,8.75" transform="matrix(1,0,0,1,696,-4)" class="stroke_order_diagram--existing_path"></path><path id="pathSk2v596cn1v52" kvg:type="㇐" d="M11.12,32.68c1.57,0.68,4.17,0.51,5.77,0.36c7.18-0.69,14.21-2.76,19.03-3.74c1.04-0.21,2.4-0.12,2.92,0.02" transform="matrix(1,0,0,1,696,-4)" class="stroke_order_diagram--existing_path"></path><path id="pathSk2v596cn1v53" kvg:type="㇐" d="M15.93,46.06c1.4,0.4,3.03,0.19,4.47,0c5.06-0.65,10.31-2.22,13.34-2.68c0.99-0.15,2.28-0.56,3.29-0.38" transform="matrix(1,0,0,1,696,-4)" class="stroke_order_diagram--existing_path"></path><path id="pathSk2v596cn1v54" kvg:type="㇐" d="M17.55,58.13c0.98,0.37,2.79,0.52,3.83,0.33c4.37-0.83,9.12-2.26,12.27-2.92c0.91-0.19,2.26-0.57,3.19-0.37" transform="matrix(1,0,0,1,696,-4)" class="stroke_order_diagram--existing_path"></path><path id="pathSk2v596cn1v55" kvg:type="㇑" d="M16.51,73.28c0.77,0.81,0.93,2.05,1.12,3.08c0.62,3.3,1.31,8.55,1.96,13.14c0.24,1.72,0.48,3.36,0.71,4.76" transform="matrix(1,0,0,1,696,-4)" class="stroke_order_diagram--existing_path"></path><path id="pathSk2v596cn1v56" kvg:type="㇕b" d="M18.54,74.9c6.8-1.51,11.18-2.72,16.6-3.74c2.78-0.52,4.17,0,3.5,2.98c-0.78,3.51-1.59,7.58-2.98,13.46" transform="matrix(1,0,0,1,696,-4)" class="stroke_order_diagram--existing_path"></path><path id="pathSk2v596cn1v57" kvg:type="㇐b" d="M20.83,91.27c3.74-0.4,8.04-1.34,12.88-2.11c1.35-0.21,2.75-0.42,4.19-0.59" transform="matrix(1,0,0,1,696,-4)" class="stroke_order_diagram--existing_path"></path><path id="kvg:08a98-s8" kvg:type="㇒" d="M79.8,11.75c-0.17,0.88-0.92,1.69-1.79,2.14c-5.57,2.89-14.3,5.81-25.41,8.55" transform="matrix(1,0,0,1,696,-4)" class="stroke_order_diagram--current_path"></path><path id="pathSk2v596cn1v59" kvg:type="㇒" d="M79.8,11.75c-0.17,0.88-0.92,1.69-1.79,2.14c-5.57,2.89-14.3,5.81-25.41,8.55" transform="matrix(1,0,0,1,696,-4)" class="stroke_order_diagram--current_path"></path><circle cx="79.8" cy="11.75" r="8" class="stroke_order_diagram--path_start" transform="matrix(1,0,0,1,696,-4)"></circle><line x1="850" x2="850" y1="1" y2="99" class="stroke_order_diagram--guide_line"></line><line x1="899" x2="899" y1="1" y2="99" class="stroke_order_diagram--bounding_box"></line><path id="pathSk2v596cn1v5c" kvg:type="㇔" d="M21.8,14.75c2.52,1.5,6.25,6.42,6.88,8.75" transform="matrix(1,0,0,1,796,-4)" class="stroke_order_diagram--existing_path"></path><path id="pathSk2v596cn1v5d" kvg:type="㇐" d="M11.12,32.68c1.57,0.68,4.17,0.51,5.77,0.36c7.18-0.69,14.21-2.76,19.03-3.74c1.04-0.21,2.4-0.12,2.92,0.02" transform="matrix(1,0,0,1,796,-4)" class="stroke_order_diagram--existing_path"></path><path id="pathSk2v596cn1v5e" kvg:type="㇐" d="M15.93,46.06c1.4,0.4,3.03,0.19,4.47,0c5.06-0.65,10.31-2.22,13.34-2.68c0.99-0.15,2.28-0.56,3.29-0.38" transform="matrix(1,0,0,1,796,-4)" class="stroke_order_diagram--existing_path"></path><path id="pathSk2v596cn1v5f" kvg:type="㇐" d="M17.55,58.13c0.98,0.37,2.79,0.52,3.83,0.33c4.37-0.83,9.12-2.26,12.27-2.92c0.91-0.19,2.26-0.57,3.19-0.37" transform="matrix(1,0,0,1,796,-4)" class="stroke_order_diagram--existing_path"></path><path id="pathSk2v596cn1v5g" kvg:type="㇑" d="M16.51,73.28c0.77,0.81,0.93,2.05,1.12,3.08c0.62,3.3,1.31,8.55,1.96,13.14c0.24,1.72,0.48,3.36,0.71,4.76" transform="matrix(1,0,0,1,796,-4)" class="stroke_order_diagram--existing_path"></path><path id="pathSk2v596cn1v5h" kvg:type="㇕b" d="M18.54,74.9c6.8-1.51,11.18-2.72,16.6-3.74c2.78-0.52,4.17,0,3.5,2.98c-0.78,3.51-1.59,7.58-2.98,13.46" transform="matrix(1,0,0,1,796,-4)" class="stroke_order_diagram--existing_path"></path><path id="pathSk2v596cn1v5i" kvg:type="㇐b" d="M20.83,91.27c3.74-0.4,8.04-1.34,12.88-2.11c1.35-0.21,2.75-0.42,4.19-0.59" transform="matrix(1,0,0,1,796,-4)" class="stroke_order_diagram--existing_path"></path><path id="pathSk2v596cn1v5j" kvg:type="㇒" d="M79.8,11.75c-0.17,0.88-0.92,1.69-1.79,2.14c-5.57,2.89-14.3,5.81-25.41,8.55" transform="matrix(1,0,0,1,796,-4)" class="stroke_order_diagram--existing_path"></path><path id="kvg:08a98-s9" kvg:type="㇐" d="M45.61,33.29c1.64,0.68,5.01,0.3,6.78,0.05c8.85-1.25,23.86-3.59,34.38-4.73c2.09-0.23,4.53-0.24,6.57,0.27" transform="matrix(1,0,0,1,796,-4)" class="stroke_order_diagram--current_path"></path><path id="pathSk2v596cn1v5l" kvg:type="㇐" d="M45.61,33.29c1.64,0.68,5.01,0.3,6.78,0.05c8.85-1.25,23.86-3.59,34.38-4.73c2.09-0.23,4.53-0.24,6.57,0.27" transform="matrix(1,0,0,1,796,-4)" class="stroke_order_diagram--current_path"></path><circle cx="45.61" cy="33.29" r="8" class="stroke_order_diagram--path_start" transform="matrix(1,0,0,1,796,-4)"></circle><line x1="950" x2="950" y1="1" y2="99" class="stroke_order_diagram--guide_line"></line><line x1="999" x2="999" y1="1" y2="99" class="stroke_order_diagram--bounding_box"></line><path id="pathSk2v596cn1v5o" kvg:type="㇔" d="M21.8,14.75c2.52,1.5,6.25,6.42,6.88,8.75" transform="matrix(1,0,0,1,896,-4)" class="stroke_order_diagram--existing_path"></path><path id="pathSk2v596cn1v5p" kvg:type="㇐" d="M11.12,32.68c1.57,0.68,4.17,0.51,5.77,0.36c7.18-0.69,14.21-2.76,19.03-3.74c1.04-0.21,2.4-0.12,2.92,0.02" transform="matrix(1,0,0,1,896,-4)" class="stroke_order_diagram--existing_path"></path><path id="pathSk2v596cn1v5q" kvg:type="㇐" d="M15.93,46.06c1.4,0.4,3.03,0.19,4.47,0c5.06-0.65,10.31-2.22,13.34-2.68c0.99-0.15,2.28-0.56,3.29-0.38" transform="matrix(1,0,0,1,896,-4)" class="stroke_order_diagram--existing_path"></path><path id="pathSk2v596cn1v5r" kvg:type="㇐" d="M17.55,58.13c0.98,0.37,2.79,0.52,3.83,0.33c4.37-0.83,9.12-2.26,12.27-2.92c0.91-0.19,2.26-0.57,3.19-0.37" transform="matrix(1,0,0,1,896,-4)" class="stroke_order_diagram--existing_path"></path><path id="pathSk2v596cn1v5s" kvg:type="㇑" d="M16.51,73.28c0.77,0.81,0.93,2.05,1.12,3.08c0.62,3.3,1.31,8.55,1.96,13.14c0.24,1.72,0.48,3.36,0.71,4.76" transform="matrix(1,0,0,1,896,-4)" class="stroke_order_diagram--existing_path"></path><path id="pathSk2v596cn1v5t" kvg:type="㇕b" d="M18.54,74.9c6.8-1.51,11.18-2.72,16.6-3.74c2.78-0.52,4.17,0,3.5,2.98c-0.78,3.51-1.59,7.58-2.98,13.46" transform="matrix(1,0,0,1,896,-4)" class="stroke_order_diagram--existing_path"></path><path id="pathSk2v596cn1v5u" kvg:type="㇐b" d="M20.83,91.27c3.74-0.4,8.04-1.34,12.88-2.11c1.35-0.21,2.75-0.42,4.19-0.59" transform="matrix(1,0,0,1,896,-4)" class="stroke_order_diagram--existing_path"></path><path id="pathSk2v596cn1v5v" kvg:type="㇒" d="M79.8,11.75c-0.17,0.88-0.92,1.69-1.79,2.14c-5.57,2.89-14.3,5.81-25.41,8.55" transform="matrix(1,0,0,1,896,-4)" class="stroke_order_diagram--existing_path"></path><path id="pathSk2v596cn1v5w" kvg:type="㇐" d="M45.61,33.29c1.64,0.68,5.01,0.3,6.78,0.05c8.85-1.25,23.86-3.59,34.38-4.73c2.09-0.23,4.53-0.24,6.57,0.27" transform="matrix(1,0,0,1,896,-4)" class="stroke_order_diagram--existing_path"></path><path id="kvg:08a98-s10" kvg:type="㇑" d="M68.07,20.7c0.87,0.87,1.2,1.93,1.2,3.16c0,0.61,0.07,11.66,0.07,19.16c0,2.32-0.06,4.29-0.09,5.48" transform="matrix(1,0,0,1,896,-4)" class="stroke_order_diagram--current_path"></path><path id="pathSk2v596cn1v5y" kvg:type="㇑" d="M68.07,20.7c0.87,0.87,1.2,1.93,1.2,3.16c0,0.61,0.07,11.66,0.07,19.16c0,2.32-0.06,4.29-0.09,5.48" transform="matrix(1,0,0,1,896,-4)" class="stroke_order_diagram--current_path"></path><circle cx="68.07" cy="20.7" r="8" class="stroke_order_diagram--path_start" transform="matrix(1,0,0,1,896,-4)"></circle><line x1="1050" x2="1050" y1="1" y2="99" class="stroke_order_diagram--guide_line"></line><line x1="1099" x2="1099" y1="1" y2="99" class="stroke_order_diagram--bounding_box"></line><path id="pathSk2v596cn1v61" kvg:type="㇔" d="M21.8,14.75c2.52,1.5,6.25,6.42,6.88,8.75" transform="matrix(1,0,0,1,996,-4)" class="stroke_order_diagram--existing_path"></path><path id="pathSk2v596cn1v62" kvg:type="㇐" d="M11.12,32.68c1.57,0.68,4.17,0.51,5.77,0.36c7.18-0.69,14.21-2.76,19.03-3.74c1.04-0.21,2.4-0.12,2.92,0.02" transform="matrix(1,0,0,1,996,-4)" class="stroke_order_diagram--existing_path"></path><path id="pathSk2v596cn1v63" kvg:type="㇐" d="M15.93,46.06c1.4,0.4,3.03,0.19,4.47,0c5.06-0.65,10.31-2.22,13.34-2.68c0.99-0.15,2.28-0.56,3.29-0.38" transform="matrix(1,0,0,1,996,-4)" class="stroke_order_diagram--existing_path"></path><path id="pathSk2v596cn1v64" kvg:type="㇐" d="M17.55,58.13c0.98,0.37,2.79,0.52,3.83,0.33c4.37-0.83,9.12-2.26,12.27-2.92c0.91-0.19,2.26-0.57,3.19-0.37" transform="matrix(1,0,0,1,996,-4)" class="stroke_order_diagram--existing_path"></path><path id="pathSk2v596cn1v65" kvg:type="㇑" d="M16.51,73.28c0.77,0.81,0.93,2.05,1.12,3.08c0.62,3.3,1.31,8.55,1.96,13.14c0.24,1.72,0.48,3.36,0.71,4.76" transform="matrix(1,0,0,1,996,-4)" class="stroke_order_diagram--existing_path"></path><path id="pathSk2v596cn1v66" kvg:type="㇕b" d="M18.54,74.9c6.8-1.51,11.18-2.72,16.6-3.74c2.78-0.52,4.17,0,3.5,2.98c-0.78,3.51-1.59,7.58-2.98,13.46" transform="matrix(1,0,0,1,996,-4)" class="stroke_order_diagram--existing_path"></path><path id="pathSk2v596cn1v67" kvg:type="㇐b" d="M20.83,91.27c3.74-0.4,8.04-1.34,12.88-2.11c1.35-0.21,2.75-0.42,4.19-0.59" transform="matrix(1,0,0,1,996,-4)" class="stroke_order_diagram--existing_path"></path><path id="pathSk2v596cn1v68" kvg:type="㇒" d="M79.8,11.75c-0.17,0.88-0.92,1.69-1.79,2.14c-5.57,2.89-14.3,5.81-25.41,8.55" transform="matrix(1,0,0,1,996,-4)" class="stroke_order_diagram--existing_path"></path><path id="pathSk2v596cn1v69" kvg:type="㇐" d="M45.61,33.29c1.64,0.68,5.01,0.3,6.78,0.05c8.85-1.25,23.86-3.59,34.38-4.73c2.09-0.23,4.53-0.24,6.57,0.27" transform="matrix(1,0,0,1,996,-4)" class="stroke_order_diagram--existing_path"></path><path id="pathSk2v596cn1v6a" kvg:type="㇑" d="M68.07,20.7c0.87,0.87,1.2,1.93,1.2,3.16c0,0.61,0.07,11.66,0.07,19.16c0,2.32-0.06,4.29-0.09,5.48" transform="matrix(1,0,0,1,996,-4)" class="stroke_order_diagram--existing_path"></path><path id="kvg:08a98-s11" kvg:type="㇒" d="M66.6,31.32c0,0.81-0.64,2.63-1.53,3.87C60,42.25,54.53,48.63,45.23,53.86" transform="matrix(1,0,0,1,996,-4)" class="stroke_order_diagram--current_path"></path><path id="pathSk2v596cn1v6c" kvg:type="㇒" d="M66.6,31.32c0,0.81-0.64,2.63-1.53,3.87C60,42.25,54.53,48.63,45.23,53.86" transform="matrix(1,0,0,1,996,-4)" class="stroke_order_diagram--current_path"></path><circle cx="66.6" cy="31.32" r="8" class="stroke_order_diagram--path_start" transform="matrix(1,0,0,1,996,-4)"></circle><line x1="1150" x2="1150" y1="1" y2="99" class="stroke_order_diagram--guide_line"></line><line x1="1199" x2="1199" y1="1" y2="99" class="stroke_order_diagram--bounding_box"></line><path id="pathSk2v596cn1v6f" kvg:type="㇔" d="M21.8,14.75c2.52,1.5,6.25,6.42,6.88,8.75" transform="matrix(1,0,0,1,1096,-4)" class="stroke_order_diagram--existing_path"></path><path id="pathSk2v596cn1v6g" kvg:type="㇐" d="M11.12,32.68c1.57,0.68,4.17,0.51,5.77,0.36c7.18-0.69,14.21-2.76,19.03-3.74c1.04-0.21,2.4-0.12,2.92,0.02" transform="matrix(1,0,0,1,1096,-4)" class="stroke_order_diagram--existing_path"></path><path id="pathSk2v596cn1v6h" kvg:type="㇐" d="M15.93,46.06c1.4,0.4,3.03,0.19,4.47,0c5.06-0.65,10.31-2.22,13.34-2.68c0.99-0.15,2.28-0.56,3.29-0.38" transform="matrix(1,0,0,1,1096,-4)" class="stroke_order_diagram--existing_path"></path><path id="pathSk2v596cn1v6i" kvg:type="㇐" d="M17.55,58.13c0.98,0.37,2.79,0.52,3.83,0.33c4.37-0.83,9.12-2.26,12.27-2.92c0.91-0.19,2.26-0.57,3.19-0.37" transform="matrix(1,0,0,1,1096,-4)" class="stroke_order_diagram--existing_path"></path><path id="pathSk2v596cn1v6j" kvg:type="㇑" d="M16.51,73.28c0.77,0.81,0.93,2.05,1.12,3.08c0.62,3.3,1.31,8.55,1.96,13.14c0.24,1.72,0.48,3.36,0.71,4.76" transform="matrix(1,0,0,1,1096,-4)" class="stroke_order_diagram--existing_path"></path><path id="pathSk2v596cn1v6k" kvg:type="㇕b" d="M18.54,74.9c6.8-1.51,11.18-2.72,16.6-3.74c2.78-0.52,4.17,0,3.5,2.98c-0.78,3.51-1.59,7.58-2.98,13.46" transform="matrix(1,0,0,1,1096,-4)" class="stroke_order_diagram--existing_path"></path><path id="pathSk2v596cn1v6l" kvg:type="㇐b" d="M20.83,91.27c3.74-0.4,8.04-1.34,12.88-2.11c1.35-0.21,2.75-0.42,4.19-0.59" transform="matrix(1,0,0,1,1096,-4)" class="stroke_order_diagram--existing_path"></path><path id="pathSk2v596cn1v6m" kvg:type="㇒" d="M79.8,11.75c-0.17,0.88-0.92,1.69-1.79,2.14c-5.57,2.89-14.3,5.81-25.41,8.55" transform="matrix(1,0,0,1,1096,-4)" class="stroke_order_diagram--existing_path"></path><path id="pathSk2v596cn1v6n" kvg:type="㇐" d="M45.61,33.29c1.64,0.68,5.01,0.3,6.78,0.05c8.85-1.25,23.86-3.59,34.38-4.73c2.09-0.23,4.53-0.24,6.57,0.27" transform="matrix(1,0,0,1,1096,-4)" class="stroke_order_diagram--existing_path"></path><path id="pathSk2v596cn1v6o" kvg:type="㇑" d="M68.07,20.7c0.87,0.87,1.2,1.93,1.2,3.16c0,0.61,0.07,11.66,0.07,19.16c0,2.32-0.06,4.29-0.09,5.48" transform="matrix(1,0,0,1,1096,-4)" class="stroke_order_diagram--existing_path"></path><path id="pathSk2v596cn1v6p" kvg:type="㇒" d="M66.6,31.32c0,0.81-0.64,2.63-1.53,3.87C60,42.25,54.53,48.63,45.23,53.86" transform="matrix(1,0,0,1,1096,-4)" class="stroke_order_diagram--existing_path"></path><path id="kvg:08a98-s12" kvg:type="㇏" d="M71.62,32.12c2.58,1.82,10.41,8.31,16.12,12.32c1.87,1.31,3.51,2.31,6.02,3.1" transform="matrix(1,0,0,1,1096,-4)" class="stroke_order_diagram--current_path"></path><path id="pathSk2v596cn1v6r" kvg:type="㇏" d="M71.62,32.12c2.58,1.82,10.41,8.31,16.12,12.32c1.87,1.31,3.51,2.31,6.02,3.1" transform="matrix(1,0,0,1,1096,-4)" class="stroke_order_diagram--current_path"></path><circle cx="71.62" cy="32.12" r="8" class="stroke_order_diagram--path_start" transform="matrix(1,0,0,1,1096,-4)"></circle><line x1="1250" x2="1250" y1="1" y2="99" class="stroke_order_diagram--guide_line"></line><line x1="1299" x2="1299" y1="1" y2="99" class="stroke_order_diagram--bounding_box"></line><path id="pathSk2v596cn1v6u" kvg:type="㇔" d="M21.8,14.75c2.52,1.5,6.25,6.42,6.88,8.75" transform="matrix(1,0,0,1,1196,-4)" class="stroke_order_diagram--existing_path"></path><path id="pathSk2v596cn1v6v" kvg:type="㇐" d="M11.12,32.68c1.57,0.68,4.17,0.51,5.77,0.36c7.18-0.69,14.21-2.76,19.03-3.74c1.04-0.21,2.4-0.12,2.92,0.02" transform="matrix(1,0,0,1,1196,-4)" class="stroke_order_diagram--existing_path"></path><path id="pathSk2v596cn1v6w" kvg:type="㇐" d="M15.93,46.06c1.4,0.4,3.03,0.19,4.47,0c5.06-0.65,10.31-2.22,13.34-2.68c0.99-0.15,2.28-0.56,3.29-0.38" transform="matrix(1,0,0,1,1196,-4)" class="stroke_order_diagram--existing_path"></path><path id="pathSk2v596cn1v6x" kvg:type="㇐" d="M17.55,58.13c0.98,0.37,2.79,0.52,3.83,0.33c4.37-0.83,9.12-2.26,12.27-2.92c0.91-0.19,2.26-0.57,3.19-0.37" transform="matrix(1,0,0,1,1196,-4)" class="stroke_order_diagram--existing_path"></path><path id="pathSk2v596cn1v6y" kvg:type="㇑" d="M16.51,73.28c0.77,0.81,0.93,2.05,1.12,3.08c0.62,3.3,1.31,8.55,1.96,13.14c0.24,1.72,0.48,3.36,0.71,4.76" transform="matrix(1,0,0,1,1196,-4)" class="stroke_order_diagram--existing_path"></path><path id="pathSk2v596cn1v6z" kvg:type="㇕b" d="M18.54,74.9c6.8-1.51,11.18-2.72,16.6-3.74c2.78-0.52,4.17,0,3.5,2.98c-0.78,3.51-1.59,7.58-2.98,13.46" transform="matrix(1,0,0,1,1196,-4)" class="stroke_order_diagram--existing_path"></path><path id="pathSk2v596cn1v70" kvg:type="㇐b" d="M20.83,91.27c3.74-0.4,8.04-1.34,12.88-2.11c1.35-0.21,2.75-0.42,4.19-0.59" transform="matrix(1,0,0,1,1196,-4)" class="stroke_order_diagram--existing_path"></path><path id="pathSk2v596cn1v71" kvg:type="㇒" d="M79.8,11.75c-0.17,0.88-0.92,1.69-1.79,2.14c-5.57,2.89-14.3,5.81-25.41,8.55" transform="matrix(1,0,0,1,1196,-4)" class="stroke_order_diagram--existing_path"></path><path id="pathSk2v596cn1v72" kvg:type="㇐" d="M45.61,33.29c1.64,0.68,5.01,0.3,6.78,0.05c8.85-1.25,23.86-3.59,34.38-4.73c2.09-0.23,4.53-0.24,6.57,0.27" transform="matrix(1,0,0,1,1196,-4)" class="stroke_order_diagram--existing_path"></path><path id="pathSk2v596cn1v73" kvg:type="㇑" d="M68.07,20.7c0.87,0.87,1.2,1.93,1.2,3.16c0,0.61,0.07,11.66,0.07,19.16c0,2.32-0.06,4.29-0.09,5.48" transform="matrix(1,0,0,1,1196,-4)" class="stroke_order_diagram--existing_path"></path><path id="pathSk2v596cn1v74" kvg:type="㇒" d="M66.6,31.32c0,0.81-0.64,2.63-1.53,3.87C60,42.25,54.53,48.63,45.23,53.86" transform="matrix(1,0,0,1,1196,-4)" class="stroke_order_diagram--existing_path"></path><path id="pathSk2v596cn1v75" kvg:type="㇏" d="M71.62,32.12c2.58,1.82,10.41,8.31,16.12,12.32c1.87,1.31,3.51,2.31,6.02,3.1" transform="matrix(1,0,0,1,1196,-4)" class="stroke_order_diagram--existing_path"></path><path id="kvg:08a98-s13" kvg:type="㇒" d="M65.01,58.27c0.41,0.76,0.4,2.01-0.04,3.2C61.25,71.5,56.25,84.5,42.85,95.17" transform="matrix(1,0,0,1,1196,-4)" class="stroke_order_diagram--current_path"></path><path id="pathSk2v596cn1v77" kvg:type="㇒" d="M65.01,58.27c0.41,0.76,0.4,2.01-0.04,3.2C61.25,71.5,56.25,84.5,42.85,95.17" transform="matrix(1,0,0,1,1196,-4)" class="stroke_order_diagram--current_path"></path><circle cx="65.01" cy="58.27" r="8" class="stroke_order_diagram--path_start" transform="matrix(1,0,0,1,1196,-4)"></circle><line x1="1350" x2="1350" y1="1" y2="99" class="stroke_order_diagram--guide_line"></line><line x1="1399" x2="1399" y1="1" y2="99" class="stroke_order_diagram--bounding_box"></line><path id="pathSk2v596cn1v7a" kvg:type="㇔" d="M21.8,14.75c2.52,1.5,6.25,6.42,6.88,8.75" transform="matrix(1,0,0,1,1296,-4)" class="stroke_order_diagram--existing_path"></path><path id="pathSk2v596cn1v7b" kvg:type="㇐" d="M11.12,32.68c1.57,0.68,4.17,0.51,5.77,0.36c7.18-0.69,14.21-2.76,19.03-3.74c1.04-0.21,2.4-0.12,2.92,0.02" transform="matrix(1,0,0,1,1296,-4)" class="stroke_order_diagram--existing_path"></path><path id="pathSk2v596cn1v7c" kvg:type="㇐" d="M15.93,46.06c1.4,0.4,3.03,0.19,4.47,0c5.06-0.65,10.31-2.22,13.34-2.68c0.99-0.15,2.28-0.56,3.29-0.38" transform="matrix(1,0,0,1,1296,-4)" class="stroke_order_diagram--existing_path"></path><path id="pathSk2v596cn1v7d" kvg:type="㇐" d="M17.55,58.13c0.98,0.37,2.79,0.52,3.83,0.33c4.37-0.83,9.12-2.26,12.27-2.92c0.91-0.19,2.26-0.57,3.19-0.37" transform="matrix(1,0,0,1,1296,-4)" class="stroke_order_diagram--existing_path"></path><path id="pathSk2v596cn1v7e" kvg:type="㇑" d="M16.51,73.28c0.77,0.81,0.93,2.05,1.12,3.08c0.62,3.3,1.31,8.55,1.96,13.14c0.24,1.72,0.48,3.36,0.71,4.76" transform="matrix(1,0,0,1,1296,-4)" class="stroke_order_diagram--existing_path"></path><path id="pathSk2v596cn1v7f" kvg:type="㇕b" d="M18.54,74.9c6.8-1.51,11.18-2.72,16.6-3.74c2.78-0.52,4.17,0,3.5,2.98c-0.78,3.51-1.59,7.58-2.98,13.46" transform="matrix(1,0,0,1,1296,-4)" class="stroke_order_diagram--existing_path"></path><path id="pathSk2v596cn1v7g" kvg:type="㇐b" d="M20.83,91.27c3.74-0.4,8.04-1.34,12.88-2.11c1.35-0.21,2.75-0.42,4.19-0.59" transform="matrix(1,0,0,1,1296,-4)" class="stroke_order_diagram--existing_path"></path><path id="pathSk2v596cn1v7h" kvg:type="㇒" d="M79.8,11.75c-0.17,0.88-0.92,1.69-1.79,2.14c-5.57,2.89-14.3,5.81-25.41,8.55" transform="matrix(1,0,0,1,1296,-4)" class="stroke_order_diagram--existing_path"></path><path id="pathSk2v596cn1v7i" kvg:type="㇐" d="M45.61,33.29c1.64,0.68,5.01,0.3,6.78,0.05c8.85-1.25,23.86-3.59,34.38-4.73c2.09-0.23,4.53-0.24,6.57,0.27" transform="matrix(1,0,0,1,1296,-4)" class="stroke_order_diagram--existing_path"></path><path id="pathSk2v596cn1v7j" kvg:type="㇑" d="M68.07,20.7c0.87,0.87,1.2,1.93,1.2,3.16c0,0.61,0.07,11.66,0.07,19.16c0,2.32-0.06,4.29-0.09,5.48" transform="matrix(1,0,0,1,1296,-4)" class="stroke_order_diagram--existing_path"></path><path id="pathSk2v596cn1v7k" kvg:type="㇒" d="M66.6,31.32c0,0.81-0.64,2.63-1.53,3.87C60,42.25,54.53,48.63,45.23,53.86" transform="matrix(1,0,0,1,1296,-4)" class="stroke_order_diagram--existing_path"></path><path id="pathSk2v596cn1v7l" kvg:type="㇏" d="M71.62,32.12c2.58,1.82,10.41,8.31,16.12,12.32c1.87,1.31,3.51,2.31,6.02,3.1" transform="matrix(1,0,0,1,1296,-4)" class="stroke_order_diagram--existing_path"></path><path id="pathSk2v596cn1v7m" kvg:type="㇒" d="M65.01,58.27c0.41,0.76,0.4,2.01-0.04,3.2C61.25,71.5,56.25,84.5,42.85,95.17" transform="matrix(1,0,0,1,1296,-4)" class="stroke_order_diagram--existing_path"></path><path id="kvg:08a98-s14" kvg:type="㇌" d="M54.1,54.95c1.7,0.78,4.38,0.74,6.19,0.39c6.96-1.34,11.21-2.22,18.1-3.56c1.81-0.35,2.21,1.48,1.71,2.74C72.5,73.75,69,69,88.07,65.62c2.66-0.47,3.43,1.63,2.9,3.73c-1.83,7.39-6.44,18.84-11.72,24.97c-3.15,3.65-5.63,2.3-7.87-0.85" transform="matrix(1,0,0,1,1296,-4)" class="stroke_order_diagram--current_path"></path><path id="pathSk2v596cn1v7o" kvg:type="㇌" d="M54.1,54.95c1.7,0.78,4.38,0.74,6.19,0.39c6.96-1.34,11.21-2.22,18.1-3.56c1.81-0.35,2.21,1.48,1.71,2.74C72.5,73.75,69,69,88.07,65.62c2.66-0.47,3.43,1.63,2.9,3.73c-1.83,7.39-6.44,18.84-11.72,24.97c-3.15,3.65-5.63,2.3-7.87-0.85" transform="matrix(1,0,0,1,1296,-4)" class="stroke_order_diagram--current_path"></path><circle cx="54.1" cy="54.95" r="8" class="stroke_order_diagram--path_start" transform="matrix(1,0,0,1,1296,-4)"></circle></svg>