<svg style="width: 1300px; height: 100px;" viewbox="0 0 1300 100"><style>
.stroke_order_diagram--outer_container {
  width: 100%;
  overflow-x: auto;
  overflow-y: hidden;
}

.stroke_order_diagram--guide_line {
  fill: none;
  stroke: #ddd;
  stroke-width: 3;
  stroke-linecap: square;
  stroke-linejoin: square;
  stroke-dasharray:8, 8;
}

.stroke_order_diagram--bounding_box {
  fill: none;
  stroke: #ddd;
  stroke-width: 4;
  stroke-linecap: square;
  stroke-linejoin: square;
}

.stroke_order_diagram--current_path {
  fill: none;
  stroke: #000;
  stroke-width: 6;
  stroke-linecap: round;
  stroke-linejoin: round;
}

.stroke_order_diagram--existing_path {
  fill: none;
  stroke: #aaa;
  stroke-width: 6;
  stroke-linecap: round;
  stroke-linejoin:round;
}

.stroke_order_diagram--path_start {
  fill: rgba(255, 0, 0, 0.7);
  stroke:none
}</style><desc>Created with Snap</desc><defs></defs><line x1="1" x2="1299" y1="1" y2="1" class="stroke_order_diagram--bounding_box"></line><line x1="1" x2="1" y1="1" y2="99" class="stroke_order_diagram--bounding_box"></line><line x1="1" x2="1299" y1="99" y2="99" class="stroke_order_diagram--bounding_box"></line><line x1="0" x2="1300" y1="50" y2="50" class="stroke_order_diagram--guide_line"></line><line x1="50" x2="50" y1="1" y2="99" class="stroke_order_diagram--guide_line"></line><line x1="99" x2="99" y1="1" y2="99" class="stroke_order_diagram--bounding_box"></line><path id="kvg:08aa0-s1" kvg:type="㇔" d="M22.8,14.5c2.16,1.41,5.59,5.8,6.13,8" transform="matrix(1,0,0,1,-4,-4)" class="stroke_order_diagram--current_path"></path><path id="pathSk2v596cn33x4" kvg:type="㇔" d="M22.8,14.5c2.16,1.41,5.59,5.8,6.13,8" transform="matrix(1,0,0,1,-4,-4)" class="stroke_order_diagram--current_path"></path><circle cx="22.8" cy="14.5" r="8" class="stroke_order_diagram--path_start" transform="matrix(1,0,0,1,-4,-4)"></circle><line x1="150" x2="150" y1="1" y2="99" class="stroke_order_diagram--guide_line"></line><line x1="199" x2="199" y1="1" y2="99" class="stroke_order_diagram--bounding_box"></line><path id="pathSk2v596cn33x7" kvg:type="㇔" d="M22.8,14.5c2.16,1.41,5.59,5.8,6.13,8" transform="matrix(1,0,0,1,96,-4)" class="stroke_order_diagram--existing_path"></path><path id="kvg:08aa0-s2" kvg:type="㇐" d="M10.12,32.83c1.44,0.47,3.3,0.33,4.79,0.15c8.15-0.93,15.89-2.25,22.15-3.04c1.17-0.15,2.95-0.14,3.54-0.02" transform="matrix(1,0,0,1,96,-4)" class="stroke_order_diagram--current_path"></path><path id="pathSk2v596cn33x9" kvg:type="㇐" d="M10.12,32.83c1.44,0.47,3.3,0.33,4.79,0.15c8.15-0.93,15.89-2.25,22.15-3.04c1.17-0.15,2.95-0.14,3.54-0.02" transform="matrix(1,0,0,1,96,-4)" class="stroke_order_diagram--current_path"></path><circle cx="10.12" cy="32.83" r="8" class="stroke_order_diagram--path_start" transform="matrix(1,0,0,1,96,-4)"></circle><line x1="250" x2="250" y1="1" y2="99" class="stroke_order_diagram--guide_line"></line><line x1="299" x2="299" y1="1" y2="99" class="stroke_order_diagram--bounding_box"></line><path id="pathSk2v596cn33xc" kvg:type="㇔" d="M22.8,14.5c2.16,1.41,5.59,5.8,6.13,8" transform="matrix(1,0,0,1,196,-4)" class="stroke_order_diagram--existing_path"></path><path id="pathSk2v596cn33xd" kvg:type="㇐" d="M10.12,32.83c1.44,0.47,3.3,0.33,4.79,0.15c8.15-0.93,15.89-2.25,22.15-3.04c1.17-0.15,2.95-0.14,3.54-0.02" transform="matrix(1,0,0,1,196,-4)" class="stroke_order_diagram--existing_path"></path><path id="kvg:08aa0-s3" kvg:type="㇐" d="M16.18,46.06c1.31,0.37,2.88,0.14,4.19-0.1c3.96-0.72,7.85-1.36,11.63-1.94c1.61-0.25,3.4-0.55,5.02-0.27" transform="matrix(1,0,0,1,196,-4)" class="stroke_order_diagram--current_path"></path><path id="pathSk2v596cn33xf" kvg:type="㇐" d="M16.18,46.06c1.31,0.37,2.88,0.14,4.19-0.1c3.96-0.72,7.85-1.36,11.63-1.94c1.61-0.25,3.4-0.55,5.02-0.27" transform="matrix(1,0,0,1,196,-4)" class="stroke_order_diagram--current_path"></path><circle cx="16.18" cy="46.06" r="8" class="stroke_order_diagram--path_start" transform="matrix(1,0,0,1,196,-4)"></circle><line x1="350" x2="350" y1="1" y2="99" class="stroke_order_diagram--guide_line"></line><line x1="399" x2="399" y1="1" y2="99" class="stroke_order_diagram--bounding_box"></line><path id="pathSk2v596cn33xi" kvg:type="㇔" d="M22.8,14.5c2.16,1.41,5.59,5.8,6.13,8" transform="matrix(1,0,0,1,296,-4)" class="stroke_order_diagram--existing_path"></path><path id="pathSk2v596cn33xj" kvg:type="㇐" d="M10.12,32.83c1.44,0.47,3.3,0.33,4.79,0.15c8.15-0.93,15.89-2.25,22.15-3.04c1.17-0.15,2.95-0.14,3.54-0.02" transform="matrix(1,0,0,1,296,-4)" class="stroke_order_diagram--existing_path"></path><path id="pathSk2v596cn33xk" kvg:type="㇐" d="M16.18,46.06c1.31,0.37,2.88,0.14,4.19-0.1c3.96-0.72,7.85-1.36,11.63-1.94c1.61-0.25,3.4-0.55,5.02-0.27" transform="matrix(1,0,0,1,296,-4)" class="stroke_order_diagram--existing_path"></path><path id="kvg:08aa0-s4" kvg:type="㇐" d="M16.8,58.33c1.13,0.35,2.66,0.17,3.83,0.04c3.92-0.45,8.84-1.36,12.25-1.89c1.43-0.22,2.52-0.52,3.96-0.26" transform="matrix(1,0,0,1,296,-4)" class="stroke_order_diagram--current_path"></path><path id="pathSk2v596cn33xm" kvg:type="㇐" d="M16.8,58.33c1.13,0.35,2.66,0.17,3.83,0.04c3.92-0.45,8.84-1.36,12.25-1.89c1.43-0.22,2.52-0.52,3.96-0.26" transform="matrix(1,0,0,1,296,-4)" class="stroke_order_diagram--current_path"></path><circle cx="16.8" cy="58.33" r="8" class="stroke_order_diagram--path_start" transform="matrix(1,0,0,1,296,-4)"></circle><line x1="450" x2="450" y1="1" y2="99" class="stroke_order_diagram--guide_line"></line><line x1="499" x2="499" y1="1" y2="99" class="stroke_order_diagram--bounding_box"></line><path id="pathSk2v596cn33xp" kvg:type="㇔" d="M22.8,14.5c2.16,1.41,5.59,5.8,6.13,8" transform="matrix(1,0,0,1,396,-4)" class="stroke_order_diagram--existing_path"></path><path id="pathSk2v596cn33xq" kvg:type="㇐" d="M10.12,32.83c1.44,0.47,3.3,0.33,4.79,0.15c8.15-0.93,15.89-2.25,22.15-3.04c1.17-0.15,2.95-0.14,3.54-0.02" transform="matrix(1,0,0,1,396,-4)" class="stroke_order_diagram--existing_path"></path><path id="pathSk2v596cn33xr" kvg:type="㇐" d="M16.18,46.06c1.31,0.37,2.88,0.14,4.19-0.1c3.96-0.72,7.85-1.36,11.63-1.94c1.61-0.25,3.4-0.55,5.02-0.27" transform="matrix(1,0,0,1,396,-4)" class="stroke_order_diagram--existing_path"></path><path id="pathSk2v596cn33xs" kvg:type="㇐" d="M16.8,58.33c1.13,0.35,2.66,0.17,3.83,0.04c3.92-0.45,8.84-1.36,12.25-1.89c1.43-0.22,2.52-0.52,3.96-0.26" transform="matrix(1,0,0,1,396,-4)" class="stroke_order_diagram--existing_path"></path><path id="kvg:08aa0-s5" kvg:type="㇑" d="M15.76,70.67c0.78,0.78,1.24,1.92,1.45,2.93c0.65,3.2,1.27,8.19,1.89,12.88c0.19,1.46,0.28,2.83,0.5,4.05" transform="matrix(1,0,0,1,396,-4)" class="stroke_order_diagram--current_path"></path><path id="pathSk2v596cn33xu" kvg:type="㇑" d="M15.76,70.67c0.78,0.78,1.24,1.92,1.45,2.93c0.65,3.2,1.27,8.19,1.89,12.88c0.19,1.46,0.28,2.83,0.5,4.05" transform="matrix(1,0,0,1,396,-4)" class="stroke_order_diagram--current_path"></path><circle cx="15.76" cy="70.67" r="8" class="stroke_order_diagram--path_start" transform="matrix(1,0,0,1,396,-4)"></circle><line x1="550" x2="550" y1="1" y2="99" class="stroke_order_diagram--guide_line"></line><line x1="599" x2="599" y1="1" y2="99" class="stroke_order_diagram--bounding_box"></line><path id="pathSk2v596cn33xx" kvg:type="㇔" d="M22.8,14.5c2.16,1.41,5.59,5.8,6.13,8" transform="matrix(1,0,0,1,496,-4)" class="stroke_order_diagram--existing_path"></path><path id="pathSk2v596cn33xy" kvg:type="㇐" d="M10.12,32.83c1.44,0.47,3.3,0.33,4.79,0.15c8.15-0.93,15.89-2.25,22.15-3.04c1.17-0.15,2.95-0.14,3.54-0.02" transform="matrix(1,0,0,1,496,-4)" class="stroke_order_diagram--existing_path"></path><path id="pathSk2v596cn33xz" kvg:type="㇐" d="M16.18,46.06c1.31,0.37,2.88,0.14,4.19-0.1c3.96-0.72,7.85-1.36,11.63-1.94c1.61-0.25,3.4-0.55,5.02-0.27" transform="matrix(1,0,0,1,496,-4)" class="stroke_order_diagram--existing_path"></path><path id="pathSk2v596cn33y0" kvg:type="㇐" d="M16.8,58.33c1.13,0.35,2.66,0.17,3.83,0.04c3.92-0.45,8.84-1.36,12.25-1.89c1.43-0.22,2.52-0.52,3.96-0.26" transform="matrix(1,0,0,1,496,-4)" class="stroke_order_diagram--existing_path"></path><path id="pathSk2v596cn33y1" kvg:type="㇑" d="M15.76,70.67c0.78,0.78,1.24,1.92,1.45,2.93c0.65,3.2,1.27,8.19,1.89,12.88c0.19,1.46,0.28,2.83,0.5,4.05" transform="matrix(1,0,0,1,496,-4)" class="stroke_order_diagram--existing_path"></path><path id="kvg:08aa0-s6" kvg:type="㇕b" d="M18.05,71.74c6.63-1.03,10.77-1.72,16.05-2.46c2.51-0.35,3.91,0.12,3.32,2.83c-0.76,3.49-1.37,7.32-2.8,13.04" transform="matrix(1,0,0,1,496,-4)" class="stroke_order_diagram--current_path"></path><path id="pathSk2v596cn33y3" kvg:type="㇕b" d="M18.05,71.74c6.63-1.03,10.77-1.72,16.05-2.46c2.51-0.35,3.91,0.12,3.32,2.83c-0.76,3.49-1.37,7.32-2.8,13.04" transform="matrix(1,0,0,1,496,-4)" class="stroke_order_diagram--current_path"></path><circle cx="18.05" cy="71.74" r="8" class="stroke_order_diagram--path_start" transform="matrix(1,0,0,1,496,-4)"></circle><line x1="650" x2="650" y1="1" y2="99" class="stroke_order_diagram--guide_line"></line><line x1="699" x2="699" y1="1" y2="99" class="stroke_order_diagram--bounding_box"></line><path id="pathSk2v596cn33y6" kvg:type="㇔" d="M22.8,14.5c2.16,1.41,5.59,5.8,6.13,8" transform="matrix(1,0,0,1,596,-4)" class="stroke_order_diagram--existing_path"></path><path id="pathSk2v596cn33y7" kvg:type="㇐" d="M10.12,32.83c1.44,0.47,3.3,0.33,4.79,0.15c8.15-0.93,15.89-2.25,22.15-3.04c1.17-0.15,2.95-0.14,3.54-0.02" transform="matrix(1,0,0,1,596,-4)" class="stroke_order_diagram--existing_path"></path><path id="pathSk2v596cn33y8" kvg:type="㇐" d="M16.18,46.06c1.31,0.37,2.88,0.14,4.19-0.1c3.96-0.72,7.85-1.36,11.63-1.94c1.61-0.25,3.4-0.55,5.02-0.27" transform="matrix(1,0,0,1,596,-4)" class="stroke_order_diagram--existing_path"></path><path id="pathSk2v596cn33y9" kvg:type="㇐" d="M16.8,58.33c1.13,0.35,2.66,0.17,3.83,0.04c3.92-0.45,8.84-1.36,12.25-1.89c1.43-0.22,2.52-0.52,3.96-0.26" transform="matrix(1,0,0,1,596,-4)" class="stroke_order_diagram--existing_path"></path><path id="pathSk2v596cn33ya" kvg:type="㇑" d="M15.76,70.67c0.78,0.78,1.24,1.92,1.45,2.93c0.65,3.2,1.27,8.19,1.89,12.88c0.19,1.46,0.28,2.83,0.5,4.05" transform="matrix(1,0,0,1,596,-4)" class="stroke_order_diagram--existing_path"></path><path id="pathSk2v596cn33yb" kvg:type="㇕b" d="M18.05,71.74c6.63-1.03,10.77-1.72,16.05-2.46c2.51-0.35,3.91,0.12,3.32,2.83c-0.76,3.49-1.37,7.32-2.8,13.04" transform="matrix(1,0,0,1,596,-4)" class="stroke_order_diagram--existing_path"></path><path id="kvg:08aa0-s7" kvg:type="㇐b" d="M20.63,87.94c3.91-0.39,7.28-1.05,12.12-1.68c1.15-0.15,2.35-0.3,3.63-0.44" transform="matrix(1,0,0,1,596,-4)" class="stroke_order_diagram--current_path"></path><path id="pathSk2v596cn33yd" kvg:type="㇐b" d="M20.63,87.94c3.91-0.39,7.28-1.05,12.12-1.68c1.15-0.15,2.35-0.3,3.63-0.44" transform="matrix(1,0,0,1,596,-4)" class="stroke_order_diagram--current_path"></path><circle cx="20.63" cy="87.94" r="8" class="stroke_order_diagram--path_start" transform="matrix(1,0,0,1,596,-4)"></circle><line x1="750" x2="750" y1="1" y2="99" class="stroke_order_diagram--guide_line"></line><line x1="799" x2="799" y1="1" y2="99" class="stroke_order_diagram--bounding_box"></line><path id="pathSk2v596cn33yg" kvg:type="㇔" d="M22.8,14.5c2.16,1.41,5.59,5.8,6.13,8" transform="matrix(1,0,0,1,696,-4)" class="stroke_order_diagram--existing_path"></path><path id="pathSk2v596cn33yh" kvg:type="㇐" d="M10.12,32.83c1.44,0.47,3.3,0.33,4.79,0.15c8.15-0.93,15.89-2.25,22.15-3.04c1.17-0.15,2.95-0.14,3.54-0.02" transform="matrix(1,0,0,1,696,-4)" class="stroke_order_diagram--existing_path"></path><path id="pathSk2v596cn33yi" kvg:type="㇐" d="M16.18,46.06c1.31,0.37,2.88,0.14,4.19-0.1c3.96-0.72,7.85-1.36,11.63-1.94c1.61-0.25,3.4-0.55,5.02-0.27" transform="matrix(1,0,0,1,696,-4)" class="stroke_order_diagram--existing_path"></path><path id="pathSk2v596cn33yj" kvg:type="㇐" d="M16.8,58.33c1.13,0.35,2.66,0.17,3.83,0.04c3.92-0.45,8.84-1.36,12.25-1.89c1.43-0.22,2.52-0.52,3.96-0.26" transform="matrix(1,0,0,1,696,-4)" class="stroke_order_diagram--existing_path"></path><path id="pathSk2v596cn33yk" kvg:type="㇑" d="M15.76,70.67c0.78,0.78,1.24,1.92,1.45,2.93c0.65,3.2,1.27,8.19,1.89,12.88c0.19,1.46,0.28,2.83,0.5,4.05" transform="matrix(1,0,0,1,696,-4)" class="stroke_order_diagram--existing_path"></path><path id="pathSk2v596cn33yl" kvg:type="㇕b" d="M18.05,71.74c6.63-1.03,10.77-1.72,16.05-2.46c2.51-0.35,3.91,0.12,3.32,2.83c-0.76,3.49-1.37,7.32-2.8,13.04" transform="matrix(1,0,0,1,696,-4)" class="stroke_order_diagram--existing_path"></path><path id="pathSk2v596cn33ym" kvg:type="㇐b" d="M20.63,87.94c3.91-0.39,7.28-1.05,12.12-1.68c1.15-0.15,2.35-0.3,3.63-0.44" transform="matrix(1,0,0,1,696,-4)" class="stroke_order_diagram--existing_path"></path><path id="kvg:08aa0-s8" kvg:type="㇒" d="M48.15,33.75c0.86,0.86,1.26,2.25,1.26,3.49c0,18.01,0.09,39.76-9.35,55.97" transform="matrix(1,0,0,1,696,-4)" class="stroke_order_diagram--current_path"></path><path id="pathSk2v596cn33yo" kvg:type="㇒" d="M48.15,33.75c0.86,0.86,1.26,2.25,1.26,3.49c0,18.01,0.09,39.76-9.35,55.97" transform="matrix(1,0,0,1,696,-4)" class="stroke_order_diagram--current_path"></path><circle cx="48.15" cy="33.75" r="8" class="stroke_order_diagram--path_start" transform="matrix(1,0,0,1,696,-4)"></circle><line x1="850" x2="850" y1="1" y2="99" class="stroke_order_diagram--guide_line"></line><line x1="899" x2="899" y1="1" y2="99" class="stroke_order_diagram--bounding_box"></line><path id="pathSk2v596cn33yr" kvg:type="㇔" d="M22.8,14.5c2.16,1.41,5.59,5.8,6.13,8" transform="matrix(1,0,0,1,796,-4)" class="stroke_order_diagram--existing_path"></path><path id="pathSk2v596cn33ys" kvg:type="㇐" d="M10.12,32.83c1.44,0.47,3.3,0.33,4.79,0.15c8.15-0.93,15.89-2.25,22.15-3.04c1.17-0.15,2.95-0.14,3.54-0.02" transform="matrix(1,0,0,1,796,-4)" class="stroke_order_diagram--existing_path"></path><path id="pathSk2v596cn33yt" kvg:type="㇐" d="M16.18,46.06c1.31,0.37,2.88,0.14,4.19-0.1c3.96-0.72,7.85-1.36,11.63-1.94c1.61-0.25,3.4-0.55,5.02-0.27" transform="matrix(1,0,0,1,796,-4)" class="stroke_order_diagram--existing_path"></path><path id="pathSk2v596cn33yu" kvg:type="㇐" d="M16.8,58.33c1.13,0.35,2.66,0.17,3.83,0.04c3.92-0.45,8.84-1.36,12.25-1.89c1.43-0.22,2.52-0.52,3.96-0.26" transform="matrix(1,0,0,1,796,-4)" class="stroke_order_diagram--existing_path"></path><path id="pathSk2v596cn33yv" kvg:type="㇑" d="M15.76,70.67c0.78,0.78,1.24,1.92,1.45,2.93c0.65,3.2,1.27,8.19,1.89,12.88c0.19,1.46,0.28,2.83,0.5,4.05" transform="matrix(1,0,0,1,796,-4)" class="stroke_order_diagram--existing_path"></path><path id="pathSk2v596cn33yw" kvg:type="㇕b" d="M18.05,71.74c6.63-1.03,10.77-1.72,16.05-2.46c2.51-0.35,3.91,0.12,3.32,2.83c-0.76,3.49-1.37,7.32-2.8,13.04" transform="matrix(1,0,0,1,796,-4)" class="stroke_order_diagram--existing_path"></path><path id="pathSk2v596cn33yx" kvg:type="㇐b" d="M20.63,87.94c3.91-0.39,7.28-1.05,12.12-1.68c1.15-0.15,2.35-0.3,3.63-0.44" transform="matrix(1,0,0,1,796,-4)" class="stroke_order_diagram--existing_path"></path><path id="pathSk2v596cn33yy" kvg:type="㇒" d="M48.15,33.75c0.86,0.86,1.26,2.25,1.26,3.49c0,18.01,0.09,39.76-9.35,55.97" transform="matrix(1,0,0,1,796,-4)" class="stroke_order_diagram--existing_path"></path><path id="kvg:08aa0-s9" kvg:type="㇐" d="M49.43,35.2c1.03,0.54,2.93,0.39,3.96,0.29c8.07-0.79,27.37-3.35,33.24-4.03c1.83-0.21,4.01-0.48,5.8,0.08" transform="matrix(1,0,0,1,796,-4)" class="stroke_order_diagram--current_path"></path><path id="pathSk2v596cn33z0" kvg:type="㇐" d="M49.43,35.2c1.03,0.54,2.93,0.39,3.96,0.29c8.07-0.79,27.37-3.35,33.24-4.03c1.83-0.21,4.01-0.48,5.8,0.08" transform="matrix(1,0,0,1,796,-4)" class="stroke_order_diagram--current_path"></path><circle cx="49.43" cy="35.2" r="8" class="stroke_order_diagram--path_start" transform="matrix(1,0,0,1,796,-4)"></circle><line x1="950" x2="950" y1="1" y2="99" class="stroke_order_diagram--guide_line"></line><line x1="999" x2="999" y1="1" y2="99" class="stroke_order_diagram--bounding_box"></line><path id="pathSk2v596cn33z3" kvg:type="㇔" d="M22.8,14.5c2.16,1.41,5.59,5.8,6.13,8" transform="matrix(1,0,0,1,896,-4)" class="stroke_order_diagram--existing_path"></path><path id="pathSk2v596cn33z4" kvg:type="㇐" d="M10.12,32.83c1.44,0.47,3.3,0.33,4.79,0.15c8.15-0.93,15.89-2.25,22.15-3.04c1.17-0.15,2.95-0.14,3.54-0.02" transform="matrix(1,0,0,1,896,-4)" class="stroke_order_diagram--existing_path"></path><path id="pathSk2v596cn33z5" kvg:type="㇐" d="M16.18,46.06c1.31,0.37,2.88,0.14,4.19-0.1c3.96-0.72,7.85-1.36,11.63-1.94c1.61-0.25,3.4-0.55,5.02-0.27" transform="matrix(1,0,0,1,896,-4)" class="stroke_order_diagram--existing_path"></path><path id="pathSk2v596cn33z6" kvg:type="㇐" d="M16.8,58.33c1.13,0.35,2.66,0.17,3.83,0.04c3.92-0.45,8.84-1.36,12.25-1.89c1.43-0.22,2.52-0.52,3.96-0.26" transform="matrix(1,0,0,1,896,-4)" class="stroke_order_diagram--existing_path"></path><path id="pathSk2v596cn33z7" kvg:type="㇑" d="M15.76,70.67c0.78,0.78,1.24,1.92,1.45,2.93c0.65,3.2,1.27,8.19,1.89,12.88c0.19,1.46,0.28,2.83,0.5,4.05" transform="matrix(1,0,0,1,896,-4)" class="stroke_order_diagram--existing_path"></path><path id="pathSk2v596cn33z8" kvg:type="㇕b" d="M18.05,71.74c6.63-1.03,10.77-1.72,16.05-2.46c2.51-0.35,3.91,0.12,3.32,2.83c-0.76,3.49-1.37,7.32-2.8,13.04" transform="matrix(1,0,0,1,896,-4)" class="stroke_order_diagram--existing_path"></path><path id="pathSk2v596cn33z9" kvg:type="㇐b" d="M20.63,87.94c3.91-0.39,7.28-1.05,12.12-1.68c1.15-0.15,2.35-0.3,3.63-0.44" transform="matrix(1,0,0,1,896,-4)" class="stroke_order_diagram--existing_path"></path><path id="pathSk2v596cn33za" kvg:type="㇒" d="M48.15,33.75c0.86,0.86,1.26,2.25,1.26,3.49c0,18.01,0.09,39.76-9.35,55.97" transform="matrix(1,0,0,1,896,-4)" class="stroke_order_diagram--existing_path"></path><path id="pathSk2v596cn33zb" kvg:type="㇐" d="M49.43,35.2c1.03,0.54,2.93,0.39,3.96,0.29c8.07-0.79,27.37-3.35,33.24-4.03c1.83-0.21,4.01-0.48,5.8,0.08" transform="matrix(1,0,0,1,896,-4)" class="stroke_order_diagram--existing_path"></path><path id="kvg:08aa0-s10" kvg:type="㇆" d="M50.35,56.51c3.9-0.76,10.62-2.16,12.01-2.27c1.61-0.12,3.18,0.93,2.94,3.42c-0.21,2.17-1.59,16-4.23,24.05c-1.57,4.79-3.62,4.99-6.08,1.17" transform="matrix(1,0,0,1,896,-4)" class="stroke_order_diagram--current_path"></path><path id="pathSk2v596cn33zd" kvg:type="㇆" d="M50.35,56.51c3.9-0.76,10.62-2.16,12.01-2.27c1.61-0.12,3.18,0.93,2.94,3.42c-0.21,2.17-1.59,16-4.23,24.05c-1.57,4.79-3.62,4.99-6.08,1.17" transform="matrix(1,0,0,1,896,-4)" class="stroke_order_diagram--current_path"></path><circle cx="50.35" cy="56.51" r="8" class="stroke_order_diagram--path_start" transform="matrix(1,0,0,1,896,-4)"></circle><line x1="1050" x2="1050" y1="1" y2="99" class="stroke_order_diagram--guide_line"></line><line x1="1099" x2="1099" y1="1" y2="99" class="stroke_order_diagram--bounding_box"></line><path id="pathSk2v596cn33zg" kvg:type="㇔" d="M22.8,14.5c2.16,1.41,5.59,5.8,6.13,8" transform="matrix(1,0,0,1,996,-4)" class="stroke_order_diagram--existing_path"></path><path id="pathSk2v596cn33zh" kvg:type="㇐" d="M10.12,32.83c1.44,0.47,3.3,0.33,4.79,0.15c8.15-0.93,15.89-2.25,22.15-3.04c1.17-0.15,2.95-0.14,3.54-0.02" transform="matrix(1,0,0,1,996,-4)" class="stroke_order_diagram--existing_path"></path><path id="pathSk2v596cn33zi" kvg:type="㇐" d="M16.18,46.06c1.31,0.37,2.88,0.14,4.19-0.1c3.96-0.72,7.85-1.36,11.63-1.94c1.61-0.25,3.4-0.55,5.02-0.27" transform="matrix(1,0,0,1,996,-4)" class="stroke_order_diagram--existing_path"></path><path id="pathSk2v596cn33zj" kvg:type="㇐" d="M16.8,58.33c1.13,0.35,2.66,0.17,3.83,0.04c3.92-0.45,8.84-1.36,12.25-1.89c1.43-0.22,2.52-0.52,3.96-0.26" transform="matrix(1,0,0,1,996,-4)" class="stroke_order_diagram--existing_path"></path><path id="pathSk2v596cn33zk" kvg:type="㇑" d="M15.76,70.67c0.78,0.78,1.24,1.92,1.45,2.93c0.65,3.2,1.27,8.19,1.89,12.88c0.19,1.46,0.28,2.83,0.5,4.05" transform="matrix(1,0,0,1,996,-4)" class="stroke_order_diagram--existing_path"></path><path id="pathSk2v596cn33zl" kvg:type="㇕b" d="M18.05,71.74c6.63-1.03,10.77-1.72,16.05-2.46c2.51-0.35,3.91,0.12,3.32,2.83c-0.76,3.49-1.37,7.32-2.8,13.04" transform="matrix(1,0,0,1,996,-4)" class="stroke_order_diagram--existing_path"></path><path id="pathSk2v596cn33zm" kvg:type="㇐b" d="M20.63,87.94c3.91-0.39,7.28-1.05,12.12-1.68c1.15-0.15,2.35-0.3,3.63-0.44" transform="matrix(1,0,0,1,996,-4)" class="stroke_order_diagram--existing_path"></path><path id="pathSk2v596cn33zn" kvg:type="㇒" d="M48.15,33.75c0.86,0.86,1.26,2.25,1.26,3.49c0,18.01,0.09,39.76-9.35,55.97" transform="matrix(1,0,0,1,996,-4)" class="stroke_order_diagram--existing_path"></path><path id="pathSk2v596cn33zo" kvg:type="㇐" d="M49.43,35.2c1.03,0.54,2.93,0.39,3.96,0.29c8.07-0.79,27.37-3.35,33.24-4.03c1.83-0.21,4.01-0.48,5.8,0.08" transform="matrix(1,0,0,1,996,-4)" class="stroke_order_diagram--existing_path"></path><path id="pathSk2v596cn33zp" kvg:type="㇆" d="M50.35,56.51c3.9-0.76,10.62-2.16,12.01-2.27c1.61-0.12,3.18,0.93,2.94,3.42c-0.21,2.17-1.59,16-4.23,24.05c-1.57,4.79-3.62,4.99-6.08,1.17" transform="matrix(1,0,0,1,996,-4)" class="stroke_order_diagram--existing_path"></path><path id="kvg:08aa0-s11" kvg:type="㇂" d="M65.99,9.5c1.22,1.87,1.67,2.39,1.98,6.42C70.38,46.75,79,79.75,94.27,94.14c4.53,4.26,4.12,0.8,3.51-7.5" transform="matrix(1,0,0,1,996,-4)" class="stroke_order_diagram--current_path"></path><path id="pathSk2v596cn33zr" kvg:type="㇂" d="M65.99,9.5c1.22,1.87,1.67,2.39,1.98,6.42C70.38,46.75,79,79.75,94.27,94.14c4.53,4.26,4.12,0.8,3.51-7.5" transform="matrix(1,0,0,1,996,-4)" class="stroke_order_diagram--current_path"></path><circle cx="65.99" cy="9.5" r="8" class="stroke_order_diagram--path_start" transform="matrix(1,0,0,1,996,-4)"></circle><line x1="1150" x2="1150" y1="1" y2="99" class="stroke_order_diagram--guide_line"></line><line x1="1199" x2="1199" y1="1" y2="99" class="stroke_order_diagram--bounding_box"></line><path id="pathSk2v596cn33zu" kvg:type="㇔" d="M22.8,14.5c2.16,1.41,5.59,5.8,6.13,8" transform="matrix(1,0,0,1,1096,-4)" class="stroke_order_diagram--existing_path"></path><path id="pathSk2v596cn33zv" kvg:type="㇐" d="M10.12,32.83c1.44,0.47,3.3,0.33,4.79,0.15c8.15-0.93,15.89-2.25,22.15-3.04c1.17-0.15,2.95-0.14,3.54-0.02" transform="matrix(1,0,0,1,1096,-4)" class="stroke_order_diagram--existing_path"></path><path id="pathSk2v596cn33zw" kvg:type="㇐" d="M16.18,46.06c1.31,0.37,2.88,0.14,4.19-0.1c3.96-0.72,7.85-1.36,11.63-1.94c1.61-0.25,3.4-0.55,5.02-0.27" transform="matrix(1,0,0,1,1096,-4)" class="stroke_order_diagram--existing_path"></path><path id="pathSk2v596cn33zx" kvg:type="㇐" d="M16.8,58.33c1.13,0.35,2.66,0.17,3.83,0.04c3.92-0.45,8.84-1.36,12.25-1.89c1.43-0.22,2.52-0.52,3.96-0.26" transform="matrix(1,0,0,1,1096,-4)" class="stroke_order_diagram--existing_path"></path><path id="pathSk2v596cn33zy" kvg:type="㇑" d="M15.76,70.67c0.78,0.78,1.24,1.92,1.45,2.93c0.65,3.2,1.27,8.19,1.89,12.88c0.19,1.46,0.28,2.83,0.5,4.05" transform="matrix(1,0,0,1,1096,-4)" class="stroke_order_diagram--existing_path"></path><path id="pathSk2v596cn33zz" kvg:type="㇕b" d="M18.05,71.74c6.63-1.03,10.77-1.72,16.05-2.46c2.51-0.35,3.91,0.12,3.32,2.83c-0.76,3.49-1.37,7.32-2.8,13.04" transform="matrix(1,0,0,1,1096,-4)" class="stroke_order_diagram--existing_path"></path><path id="pathSk2v596cn3400" kvg:type="㇐b" d="M20.63,87.94c3.91-0.39,7.28-1.05,12.12-1.68c1.15-0.15,2.35-0.3,3.63-0.44" transform="matrix(1,0,0,1,1096,-4)" class="stroke_order_diagram--existing_path"></path><path id="pathSk2v596cn3401" kvg:type="㇒" d="M48.15,33.75c0.86,0.86,1.26,2.25,1.26,3.49c0,18.01,0.09,39.76-9.35,55.97" transform="matrix(1,0,0,1,1096,-4)" class="stroke_order_diagram--existing_path"></path><path id="pathSk2v596cn3402" kvg:type="㇐" d="M49.43,35.2c1.03,0.54,2.93,0.39,3.96,0.29c8.07-0.79,27.37-3.35,33.24-4.03c1.83-0.21,4.01-0.48,5.8,0.08" transform="matrix(1,0,0,1,1096,-4)" class="stroke_order_diagram--existing_path"></path><path id="pathSk2v596cn3403" kvg:type="㇆" d="M50.35,56.51c3.9-0.76,10.62-2.16,12.01-2.27c1.61-0.12,3.18,0.93,2.94,3.42c-0.21,2.17-1.59,16-4.23,24.05c-1.57,4.79-3.62,4.99-6.08,1.17" transform="matrix(1,0,0,1,1096,-4)" class="stroke_order_diagram--existing_path"></path><path id="pathSk2v596cn3404" kvg:type="㇂" d="M65.99,9.5c1.22,1.87,1.67,2.39,1.98,6.42C70.38,46.75,79,79.75,94.27,94.14c4.53,4.26,4.12,0.8,3.51-7.5" transform="matrix(1,0,0,1,1096,-4)" class="stroke_order_diagram--existing_path"></path><path id="kvg:08aa0-s12" kvg:type="㇒" d="M88.84,44.14c0.41,1.11,0.44,2.51,0.1,4.17c-2.31,11.44-8.69,34.81-26.59,45.65" transform="matrix(1,0,0,1,1096,-4)" class="stroke_order_diagram--current_path"></path><path id="pathSk2v596cn3406" kvg:type="㇒" d="M88.84,44.14c0.41,1.11,0.44,2.51,0.1,4.17c-2.31,11.44-8.69,34.81-26.59,45.65" transform="matrix(1,0,0,1,1096,-4)" class="stroke_order_diagram--current_path"></path><circle cx="88.84" cy="44.14" r="8" class="stroke_order_diagram--path_start" transform="matrix(1,0,0,1,1096,-4)"></circle><line x1="1250" x2="1250" y1="1" y2="99" class="stroke_order_diagram--guide_line"></line><line x1="1299" x2="1299" y1="1" y2="99" class="stroke_order_diagram--bounding_box"></line><path id="pathSk2v596cn3409" kvg:type="㇔" d="M22.8,14.5c2.16,1.41,5.59,5.8,6.13,8" transform="matrix(1,0,0,1,1196,-4)" class="stroke_order_diagram--existing_path"></path><path id="pathSk2v596cn340a" kvg:type="㇐" d="M10.12,32.83c1.44,0.47,3.3,0.33,4.79,0.15c8.15-0.93,15.89-2.25,22.15-3.04c1.17-0.15,2.95-0.14,3.54-0.02" transform="matrix(1,0,0,1,1196,-4)" class="stroke_order_diagram--existing_path"></path><path id="pathSk2v596cn340b" kvg:type="㇐" d="M16.18,46.06c1.31,0.37,2.88,0.14,4.19-0.1c3.96-0.72,7.85-1.36,11.63-1.94c1.61-0.25,3.4-0.55,5.02-0.27" transform="matrix(1,0,0,1,1196,-4)" class="stroke_order_diagram--existing_path"></path><path id="pathSk2v596cn340c" kvg:type="㇐" d="M16.8,58.33c1.13,0.35,2.66,0.17,3.83,0.04c3.92-0.45,8.84-1.36,12.25-1.89c1.43-0.22,2.52-0.52,3.96-0.26" transform="matrix(1,0,0,1,1196,-4)" class="stroke_order_diagram--existing_path"></path><path id="pathSk2v596cn340d" kvg:type="㇑" d="M15.76,70.67c0.78,0.78,1.24,1.92,1.45,2.93c0.65,3.2,1.27,8.19,1.89,12.88c0.19,1.46,0.28,2.83,0.5,4.05" transform="matrix(1,0,0,1,1196,-4)" class="stroke_order_diagram--existing_path"></path><path id="pathSk2v596cn340e" kvg:type="㇕b" d="M18.05,71.74c6.63-1.03,10.77-1.72,16.05-2.46c2.51-0.35,3.91,0.12,3.32,2.83c-0.76,3.49-1.37,7.32-2.8,13.04" transform="matrix(1,0,0,1,1196,-4)" class="stroke_order_diagram--existing_path"></path><path id="pathSk2v596cn340f" kvg:type="㇐b" d="M20.63,87.94c3.91-0.39,7.28-1.05,12.12-1.68c1.15-0.15,2.35-0.3,3.63-0.44" transform="matrix(1,0,0,1,1196,-4)" class="stroke_order_diagram--existing_path"></path><path id="pathSk2v596cn340g" kvg:type="㇒" d="M48.15,33.75c0.86,0.86,1.26,2.25,1.26,3.49c0,18.01,0.09,39.76-9.35,55.97" transform="matrix(1,0,0,1,1196,-4)" class="stroke_order_diagram--existing_path"></path><path id="pathSk2v596cn340h" kvg:type="㇐" d="M49.43,35.2c1.03,0.54,2.93,0.39,3.96,0.29c8.07-0.79,27.37-3.35,33.24-4.03c1.83-0.21,4.01-0.48,5.8,0.08" transform="matrix(1,0,0,1,1196,-4)" class="stroke_order_diagram--existing_path"></path><path id="pathSk2v596cn340i" kvg:type="㇆" d="M50.35,56.51c3.9-0.76,10.62-2.16,12.01-2.27c1.61-0.12,3.18,0.93,2.94,3.42c-0.21,2.17-1.59,16-4.23,24.05c-1.57,4.79-3.62,4.99-6.08,1.17" transform="matrix(1,0,0,1,1196,-4)" class="stroke_order_diagram--existing_path"></path><path id="pathSk2v596cn340j" kvg:type="㇂" d="M65.99,9.5c1.22,1.87,1.67,2.39,1.98,6.42C70.38,46.75,79,79.75,94.27,94.14c4.53,4.26,4.12,0.8,3.51-7.5" transform="matrix(1,0,0,1,1196,-4)" class="stroke_order_diagram--existing_path"></path><path id="pathSk2v596cn340k" kvg:type="㇒" d="M88.84,44.14c0.41,1.11,0.44,2.51,0.1,4.17c-2.31,11.44-8.69,34.81-26.59,45.65" transform="matrix(1,0,0,1,1196,-4)" class="stroke_order_diagram--existing_path"></path><path id="kvg:08aa0-s13" kvg:type="㇔" d="M81.88,13.12c2.45,1.77,6.38,5.83,7.52,8.88" transform="matrix(1,0,0,1,1196,-4)" class="stroke_order_diagram--current_path"></path><path id="pathSk2v596cn340m" kvg:type="㇔" d="M81.88,13.12c2.45,1.77,6.38,5.83,7.52,8.88" transform="matrix(1,0,0,1,1196,-4)" class="stroke_order_diagram--current_path"></path><circle cx="81.88" cy="13.12" r="8" class="stroke_order_diagram--path_start" transform="matrix(1,0,0,1,1196,-4)"></circle></svg>