<svg style="width: 1500px; height: 100px;" viewbox="0 0 1500 100"><style>
.stroke_order_diagram--outer_container {
  width: 100%;
  overflow-x: auto;
  overflow-y: hidden;
}

.stroke_order_diagram--guide_line {
  fill: none;
  stroke: #ddd;
  stroke-width: 3;
  stroke-linecap: square;
  stroke-linejoin: square;
  stroke-dasharray:8, 8;
}

.stroke_order_diagram--bounding_box {
  fill: none;
  stroke: #ddd;
  stroke-width: 4;
  stroke-linecap: square;
  stroke-linejoin: square;
}

.stroke_order_diagram--current_path {
  fill: none;
  stroke: #000;
  stroke-width: 6;
  stroke-linecap: round;
  stroke-linejoin: round;
}

.stroke_order_diagram--existing_path {
  fill: none;
  stroke: #aaa;
  stroke-width: 6;
  stroke-linecap: round;
  stroke-linejoin:round;
}

.stroke_order_diagram--path_start {
  fill: rgba(255, 0, 0, 0.7);
  stroke:none
}</style><desc>Created with Snap</desc><defs></defs><line x1="1" x2="1499" y1="1" y2="1" class="stroke_order_diagram--bounding_box"></line><line x1="1" x2="1" y1="1" y2="99" class="stroke_order_diagram--bounding_box"></line><line x1="1" x2="1499" y1="99" y2="99" class="stroke_order_diagram--bounding_box"></line><line x1="0" x2="1500" y1="50" y2="50" class="stroke_order_diagram--guide_line"></line><line x1="50" x2="50" y1="1" y2="99" class="stroke_order_diagram--guide_line"></line><line x1="99" x2="99" y1="1" y2="99" class="stroke_order_diagram--bounding_box"></line><path id="kvg:08acb-s1" kvg:type="㇔" d="M25.8,15.25c2.34,1.41,6.04,5.8,6.63,8" transform="matrix(1,0,0,1,-4,-4)" class="stroke_order_diagram--current_path"></path><path id="pathSk2v596cn21ip" kvg:type="㇔" d="M25.8,15.25c2.34,1.41,6.04,5.8,6.63,8" transform="matrix(1,0,0,1,-4,-4)" class="stroke_order_diagram--current_path"></path><circle cx="25.8" cy="15.25" r="8" class="stroke_order_diagram--path_start" transform="matrix(1,0,0,1,-4,-4)"></circle><line x1="150" x2="150" y1="1" y2="99" class="stroke_order_diagram--guide_line"></line><line x1="199" x2="199" y1="1" y2="99" class="stroke_order_diagram--bounding_box"></line><path id="pathSk2v596cn21is" kvg:type="㇔" d="M25.8,15.25c2.34,1.41,6.04,5.8,6.63,8" transform="matrix(1,0,0,1,96,-4)" class="stroke_order_diagram--existing_path"></path><path id="kvg:08acb-s2" kvg:type="㇐" d="M13.62,33.58c1.9,0.62,4.19,0.52,6.14,0.25c8.74-1.2,14.95-2.17,20.8-3.39c1.16-0.24,2.7-0.14,3.29-0.02" transform="matrix(1,0,0,1,96,-4)" class="stroke_order_diagram--current_path"></path><path id="pathSk2v596cn21iu" kvg:type="㇐" d="M13.62,33.58c1.9,0.62,4.19,0.52,6.14,0.25c8.74-1.2,14.95-2.17,20.8-3.39c1.16-0.24,2.7-0.14,3.29-0.02" transform="matrix(1,0,0,1,96,-4)" class="stroke_order_diagram--current_path"></path><circle cx="13.62" cy="33.58" r="8" class="stroke_order_diagram--path_start" transform="matrix(1,0,0,1,96,-4)"></circle><line x1="250" x2="250" y1="1" y2="99" class="stroke_order_diagram--guide_line"></line><line x1="299" x2="299" y1="1" y2="99" class="stroke_order_diagram--bounding_box"></line><path id="pathSk2v596cn21ix" kvg:type="㇔" d="M25.8,15.25c2.34,1.41,6.04,5.8,6.63,8" transform="matrix(1,0,0,1,196,-4)" class="stroke_order_diagram--existing_path"></path><path id="pathSk2v596cn21iy" kvg:type="㇐" d="M13.62,33.58c1.9,0.62,4.19,0.52,6.14,0.25c8.74-1.2,14.95-2.17,20.8-3.39c1.16-0.24,2.7-0.14,3.29-0.02" transform="matrix(1,0,0,1,196,-4)" class="stroke_order_diagram--existing_path"></path><path id="kvg:08acb-s3" kvg:type="㇐" d="M19.68,46.81c1.3,0.37,2.99,0.19,4.31,0c4.25-0.63,8.42-1.47,12.38-2.06c1.07-0.16,2.32-0.44,3.39-0.25" transform="matrix(1,0,0,1,196,-4)" class="stroke_order_diagram--current_path"></path><path id="pathSk2v596cn21j0" kvg:type="㇐" d="M19.68,46.81c1.3,0.37,2.99,0.19,4.31,0c4.25-0.63,8.42-1.47,12.38-2.06c1.07-0.16,2.32-0.44,3.39-0.25" transform="matrix(1,0,0,1,196,-4)" class="stroke_order_diagram--current_path"></path><circle cx="19.68" cy="46.81" r="8" class="stroke_order_diagram--path_start" transform="matrix(1,0,0,1,196,-4)"></circle><line x1="350" x2="350" y1="1" y2="99" class="stroke_order_diagram--guide_line"></line><line x1="399" x2="399" y1="1" y2="99" class="stroke_order_diagram--bounding_box"></line><path id="pathSk2v596cn21j3" kvg:type="㇔" d="M25.8,15.25c2.34,1.41,6.04,5.8,6.63,8" transform="matrix(1,0,0,1,296,-4)" class="stroke_order_diagram--existing_path"></path><path id="pathSk2v596cn21j4" kvg:type="㇐" d="M13.62,33.58c1.9,0.62,4.19,0.52,6.14,0.25c8.74-1.2,14.95-2.17,20.8-3.39c1.16-0.24,2.7-0.14,3.29-0.02" transform="matrix(1,0,0,1,296,-4)" class="stroke_order_diagram--existing_path"></path><path id="pathSk2v596cn21j5" kvg:type="㇐" d="M19.68,46.81c1.3,0.37,2.99,0.19,4.31,0c4.25-0.63,8.42-1.47,12.38-2.06c1.07-0.16,2.32-0.44,3.39-0.25" transform="matrix(1,0,0,1,296,-4)" class="stroke_order_diagram--existing_path"></path><path id="kvg:08acb-s4" kvg:type="㇐" d="M20.3,59.08c1.04,0.32,2.74,0.21,3.84,0.08c4.24-0.5,8.6-1.42,12.63-1.96c1.03-0.14,2.28-0.41,3.32-0.23" transform="matrix(1,0,0,1,296,-4)" class="stroke_order_diagram--current_path"></path><path id="pathSk2v596cn21j7" kvg:type="㇐" d="M20.3,59.08c1.04,0.32,2.74,0.21,3.84,0.08c4.24-0.5,8.6-1.42,12.63-1.96c1.03-0.14,2.28-0.41,3.32-0.23" transform="matrix(1,0,0,1,296,-4)" class="stroke_order_diagram--current_path"></path><circle cx="20.3" cy="59.08" r="8" class="stroke_order_diagram--path_start" transform="matrix(1,0,0,1,296,-4)"></circle><line x1="450" x2="450" y1="1" y2="99" class="stroke_order_diagram--guide_line"></line><line x1="499" x2="499" y1="1" y2="99" class="stroke_order_diagram--bounding_box"></line><path id="pathSk2v596cn21ja" kvg:type="㇔" d="M25.8,15.25c2.34,1.41,6.04,5.8,6.63,8" transform="matrix(1,0,0,1,396,-4)" class="stroke_order_diagram--existing_path"></path><path id="pathSk2v596cn21jb" kvg:type="㇐" d="M13.62,33.58c1.9,0.62,4.19,0.52,6.14,0.25c8.74-1.2,14.95-2.17,20.8-3.39c1.16-0.24,2.7-0.14,3.29-0.02" transform="matrix(1,0,0,1,396,-4)" class="stroke_order_diagram--existing_path"></path><path id="pathSk2v596cn21jc" kvg:type="㇐" d="M19.68,46.81c1.3,0.37,2.99,0.19,4.31,0c4.25-0.63,8.42-1.47,12.38-2.06c1.07-0.16,2.32-0.44,3.39-0.25" transform="matrix(1,0,0,1,396,-4)" class="stroke_order_diagram--existing_path"></path><path id="pathSk2v596cn21jd" kvg:type="㇐" d="M20.3,59.08c1.04,0.32,2.74,0.21,3.84,0.08c4.24-0.5,8.6-1.42,12.63-1.96c1.03-0.14,2.28-0.41,3.32-0.23" transform="matrix(1,0,0,1,396,-4)" class="stroke_order_diagram--existing_path"></path><path id="kvg:08acb-s5" kvg:type="㇑" d="M19.26,71.49c0.79,0.78,0.97,1.99,1.17,3c0.64,3.1,1.3,7.76,1.85,12.01c0.21,1.6,0.43,3.13,0.66,4.51" transform="matrix(1,0,0,1,396,-4)" class="stroke_order_diagram--current_path"></path><path id="pathSk2v596cn21jf" kvg:type="㇑" d="M19.26,71.49c0.79,0.78,0.97,1.99,1.17,3c0.64,3.1,1.3,7.76,1.85,12.01c0.21,1.6,0.43,3.13,0.66,4.51" transform="matrix(1,0,0,1,396,-4)" class="stroke_order_diagram--current_path"></path><circle cx="19.26" cy="71.49" r="8" class="stroke_order_diagram--path_start" transform="matrix(1,0,0,1,396,-4)"></circle><line x1="550" x2="550" y1="1" y2="99" class="stroke_order_diagram--guide_line"></line><line x1="599" x2="599" y1="1" y2="99" class="stroke_order_diagram--bounding_box"></line><path id="pathSk2v596cn21ji" kvg:type="㇔" d="M25.8,15.25c2.34,1.41,6.04,5.8,6.63,8" transform="matrix(1,0,0,1,496,-4)" class="stroke_order_diagram--existing_path"></path><path id="pathSk2v596cn21jj" kvg:type="㇐" d="M13.62,33.58c1.9,0.62,4.19,0.52,6.14,0.25c8.74-1.2,14.95-2.17,20.8-3.39c1.16-0.24,2.7-0.14,3.29-0.02" transform="matrix(1,0,0,1,496,-4)" class="stroke_order_diagram--existing_path"></path><path id="pathSk2v596cn21jk" kvg:type="㇐" d="M19.68,46.81c1.3,0.37,2.99,0.19,4.31,0c4.25-0.63,8.42-1.47,12.38-2.06c1.07-0.16,2.32-0.44,3.39-0.25" transform="matrix(1,0,0,1,496,-4)" class="stroke_order_diagram--existing_path"></path><path id="pathSk2v596cn21jl" kvg:type="㇐" d="M20.3,59.08c1.04,0.32,2.74,0.21,3.84,0.08c4.24-0.5,8.6-1.42,12.63-1.96c1.03-0.14,2.28-0.41,3.32-0.23" transform="matrix(1,0,0,1,496,-4)" class="stroke_order_diagram--existing_path"></path><path id="pathSk2v596cn21jm" kvg:type="㇑" d="M19.26,71.49c0.79,0.78,0.97,1.99,1.17,3c0.64,3.1,1.3,7.76,1.85,12.01c0.21,1.6,0.43,3.13,0.66,4.51" transform="matrix(1,0,0,1,496,-4)" class="stroke_order_diagram--existing_path"></path><path id="kvg:08acb-s6" kvg:type="㇕b" d="M21.01,72.58c5.13-0.67,9.82-1.63,14.62-2.45c3.62-0.62,5.63-0.55,4.86,3.64c-0.58,3.15-1.03,6.5-2.26,11.73" transform="matrix(1,0,0,1,496,-4)" class="stroke_order_diagram--current_path"></path><path id="pathSk2v596cn21jo" kvg:type="㇕b" d="M21.01,72.58c5.13-0.67,9.82-1.63,14.62-2.45c3.62-0.62,5.63-0.55,4.86,3.64c-0.58,3.15-1.03,6.5-2.26,11.73" transform="matrix(1,0,0,1,496,-4)" class="stroke_order_diagram--current_path"></path><circle cx="21.01" cy="72.58" r="8" class="stroke_order_diagram--path_start" transform="matrix(1,0,0,1,496,-4)"></circle><line x1="650" x2="650" y1="1" y2="99" class="stroke_order_diagram--guide_line"></line><line x1="699" x2="699" y1="1" y2="99" class="stroke_order_diagram--bounding_box"></line><path id="pathSk2v596cn21jr" kvg:type="㇔" d="M25.8,15.25c2.34,1.41,6.04,5.8,6.63,8" transform="matrix(1,0,0,1,596,-4)" class="stroke_order_diagram--existing_path"></path><path id="pathSk2v596cn21js" kvg:type="㇐" d="M13.62,33.58c1.9,0.62,4.19,0.52,6.14,0.25c8.74-1.2,14.95-2.17,20.8-3.39c1.16-0.24,2.7-0.14,3.29-0.02" transform="matrix(1,0,0,1,596,-4)" class="stroke_order_diagram--existing_path"></path><path id="pathSk2v596cn21jt" kvg:type="㇐" d="M19.68,46.81c1.3,0.37,2.99,0.19,4.31,0c4.25-0.63,8.42-1.47,12.38-2.06c1.07-0.16,2.32-0.44,3.39-0.25" transform="matrix(1,0,0,1,596,-4)" class="stroke_order_diagram--existing_path"></path><path id="pathSk2v596cn21ju" kvg:type="㇐" d="M20.3,59.08c1.04,0.32,2.74,0.21,3.84,0.08c4.24-0.5,8.6-1.42,12.63-1.96c1.03-0.14,2.28-0.41,3.32-0.23" transform="matrix(1,0,0,1,596,-4)" class="stroke_order_diagram--existing_path"></path><path id="pathSk2v596cn21jv" kvg:type="㇑" d="M19.26,71.49c0.79,0.78,0.97,1.99,1.17,3c0.64,3.1,1.3,7.76,1.85,12.01c0.21,1.6,0.43,3.13,0.66,4.51" transform="matrix(1,0,0,1,596,-4)" class="stroke_order_diagram--existing_path"></path><path id="pathSk2v596cn21jw" kvg:type="㇕b" d="M21.01,72.58c5.13-0.67,9.82-1.63,14.62-2.45c3.62-0.62,5.63-0.55,4.86,3.64c-0.58,3.15-1.03,6.5-2.26,11.73" transform="matrix(1,0,0,1,596,-4)" class="stroke_order_diagram--existing_path"></path><path id="kvg:08acb-s7" kvg:type="㇐b" d="M24.22,88.6c3.88-0.36,7.48-0.96,12.37-1.53c0.93-0.11,1.9-0.22,2.91-0.32" transform="matrix(1,0,0,1,596,-4)" class="stroke_order_diagram--current_path"></path><path id="pathSk2v596cn21jy" kvg:type="㇐b" d="M24.22,88.6c3.88-0.36,7.48-0.96,12.37-1.53c0.93-0.11,1.9-0.22,2.91-0.32" transform="matrix(1,0,0,1,596,-4)" class="stroke_order_diagram--current_path"></path><circle cx="24.22" cy="88.6" r="8" class="stroke_order_diagram--path_start" transform="matrix(1,0,0,1,596,-4)"></circle><line x1="750" x2="750" y1="1" y2="99" class="stroke_order_diagram--guide_line"></line><line x1="799" x2="799" y1="1" y2="99" class="stroke_order_diagram--bounding_box"></line><path id="pathSk2v596cn21k1" kvg:type="㇔" d="M25.8,15.25c2.34,1.41,6.04,5.8,6.63,8" transform="matrix(1,0,0,1,696,-4)" class="stroke_order_diagram--existing_path"></path><path id="pathSk2v596cn21k2" kvg:type="㇐" d="M13.62,33.58c1.9,0.62,4.19,0.52,6.14,0.25c8.74-1.2,14.95-2.17,20.8-3.39c1.16-0.24,2.7-0.14,3.29-0.02" transform="matrix(1,0,0,1,696,-4)" class="stroke_order_diagram--existing_path"></path><path id="pathSk2v596cn21k3" kvg:type="㇐" d="M19.68,46.81c1.3,0.37,2.99,0.19,4.31,0c4.25-0.63,8.42-1.47,12.38-2.06c1.07-0.16,2.32-0.44,3.39-0.25" transform="matrix(1,0,0,1,696,-4)" class="stroke_order_diagram--existing_path"></path><path id="pathSk2v596cn21k4" kvg:type="㇐" d="M20.3,59.08c1.04,0.32,2.74,0.21,3.84,0.08c4.24-0.5,8.6-1.42,12.63-1.96c1.03-0.14,2.28-0.41,3.32-0.23" transform="matrix(1,0,0,1,696,-4)" class="stroke_order_diagram--existing_path"></path><path id="pathSk2v596cn21k5" kvg:type="㇑" d="M19.26,71.49c0.79,0.78,0.97,1.99,1.17,3c0.64,3.1,1.3,7.76,1.85,12.01c0.21,1.6,0.43,3.13,0.66,4.51" transform="matrix(1,0,0,1,696,-4)" class="stroke_order_diagram--existing_path"></path><path id="pathSk2v596cn21k6" kvg:type="㇕b" d="M21.01,72.58c5.13-0.67,9.82-1.63,14.62-2.45c3.62-0.62,5.63-0.55,4.86,3.64c-0.58,3.15-1.03,6.5-2.26,11.73" transform="matrix(1,0,0,1,696,-4)" class="stroke_order_diagram--existing_path"></path><path id="pathSk2v596cn21k7" kvg:type="㇐b" d="M24.22,88.6c3.88-0.36,7.48-0.96,12.37-1.53c0.93-0.11,1.9-0.22,2.91-0.32" transform="matrix(1,0,0,1,696,-4)" class="stroke_order_diagram--existing_path"></path><path id="kvg:08acb-s8" kvg:type="㇐" d="M51.66,22.89c1.72,0.36,3.77,0.28,5.48,0.1c6.45-0.67,18.61-2.49,25.51-3.09c1.74-0.15,2.95-0.2,4.68-0.05" transform="matrix(1,0,0,1,696,-4)" class="stroke_order_diagram--current_path"></path><path id="pathSk2v596cn21k9" kvg:type="㇐" d="M51.66,22.89c1.72,0.36,3.77,0.28,5.48,0.1c6.45-0.67,18.61-2.49,25.51-3.09c1.74-0.15,2.95-0.2,4.68-0.05" transform="matrix(1,0,0,1,696,-4)" class="stroke_order_diagram--current_path"></path><circle cx="51.66" cy="22.89" r="8" class="stroke_order_diagram--path_start" transform="matrix(1,0,0,1,696,-4)"></circle><line x1="850" x2="850" y1="1" y2="99" class="stroke_order_diagram--guide_line"></line><line x1="899" x2="899" y1="1" y2="99" class="stroke_order_diagram--bounding_box"></line><path id="pathSk2v596cn21kc" kvg:type="㇔" d="M25.8,15.25c2.34,1.41,6.04,5.8,6.63,8" transform="matrix(1,0,0,1,796,-4)" class="stroke_order_diagram--existing_path"></path><path id="pathSk2v596cn21kd" kvg:type="㇐" d="M13.62,33.58c1.9,0.62,4.19,0.52,6.14,0.25c8.74-1.2,14.95-2.17,20.8-3.39c1.16-0.24,2.7-0.14,3.29-0.02" transform="matrix(1,0,0,1,796,-4)" class="stroke_order_diagram--existing_path"></path><path id="pathSk2v596cn21ke" kvg:type="㇐" d="M19.68,46.81c1.3,0.37,2.99,0.19,4.31,0c4.25-0.63,8.42-1.47,12.38-2.06c1.07-0.16,2.32-0.44,3.39-0.25" transform="matrix(1,0,0,1,796,-4)" class="stroke_order_diagram--existing_path"></path><path id="pathSk2v596cn21kf" kvg:type="㇐" d="M20.3,59.08c1.04,0.32,2.74,0.21,3.84,0.08c4.24-0.5,8.6-1.42,12.63-1.96c1.03-0.14,2.28-0.41,3.32-0.23" transform="matrix(1,0,0,1,796,-4)" class="stroke_order_diagram--existing_path"></path><path id="pathSk2v596cn21kg" kvg:type="㇑" d="M19.26,71.49c0.79,0.78,0.97,1.99,1.17,3c0.64,3.1,1.3,7.76,1.85,12.01c0.21,1.6,0.43,3.13,0.66,4.51" transform="matrix(1,0,0,1,796,-4)" class="stroke_order_diagram--existing_path"></path><path id="pathSk2v596cn21kh" kvg:type="㇕b" d="M21.01,72.58c5.13-0.67,9.82-1.63,14.62-2.45c3.62-0.62,5.63-0.55,4.86,3.64c-0.58,3.15-1.03,6.5-2.26,11.73" transform="matrix(1,0,0,1,796,-4)" class="stroke_order_diagram--existing_path"></path><path id="pathSk2v596cn21ki" kvg:type="㇐b" d="M24.22,88.6c3.88-0.36,7.48-0.96,12.37-1.53c0.93-0.11,1.9-0.22,2.91-0.32" transform="matrix(1,0,0,1,796,-4)" class="stroke_order_diagram--existing_path"></path><path id="pathSk2v596cn21kj" kvg:type="㇐" d="M51.66,22.89c1.72,0.36,3.77,0.28,5.48,0.1c6.45-0.67,18.61-2.49,25.51-3.09c1.74-0.15,2.95-0.2,4.68-0.05" transform="matrix(1,0,0,1,796,-4)" class="stroke_order_diagram--existing_path"></path><path id="kvg:08acb-s9" kvg:type="㇑a" d="M67.51,12.38c0.87,0.87,1.29,1.99,1.29,3.49c0,3.13-0.04,18.63-0.04,26.13" transform="matrix(1,0,0,1,796,-4)" class="stroke_order_diagram--current_path"></path><path id="pathSk2v596cn21kl" kvg:type="㇑a" d="M67.51,12.38c0.87,0.87,1.29,1.99,1.29,3.49c0,3.13-0.04,18.63-0.04,26.13" transform="matrix(1,0,0,1,796,-4)" class="stroke_order_diagram--current_path"></path><circle cx="67.51" cy="12.38" r="8" class="stroke_order_diagram--path_start" transform="matrix(1,0,0,1,796,-4)"></circle><line x1="950" x2="950" y1="1" y2="99" class="stroke_order_diagram--guide_line"></line><line x1="999" x2="999" y1="1" y2="99" class="stroke_order_diagram--bounding_box"></line><path id="pathSk2v596cn21ko" kvg:type="㇔" d="M25.8,15.25c2.34,1.41,6.04,5.8,6.63,8" transform="matrix(1,0,0,1,896,-4)" class="stroke_order_diagram--existing_path"></path><path id="pathSk2v596cn21kp" kvg:type="㇐" d="M13.62,33.58c1.9,0.62,4.19,0.52,6.14,0.25c8.74-1.2,14.95-2.17,20.8-3.39c1.16-0.24,2.7-0.14,3.29-0.02" transform="matrix(1,0,0,1,896,-4)" class="stroke_order_diagram--existing_path"></path><path id="pathSk2v596cn21kq" kvg:type="㇐" d="M19.68,46.81c1.3,0.37,2.99,0.19,4.31,0c4.25-0.63,8.42-1.47,12.38-2.06c1.07-0.16,2.32-0.44,3.39-0.25" transform="matrix(1,0,0,1,896,-4)" class="stroke_order_diagram--existing_path"></path><path id="pathSk2v596cn21kr" kvg:type="㇐" d="M20.3,59.08c1.04,0.32,2.74,0.21,3.84,0.08c4.24-0.5,8.6-1.42,12.63-1.96c1.03-0.14,2.28-0.41,3.32-0.23" transform="matrix(1,0,0,1,896,-4)" class="stroke_order_diagram--existing_path"></path><path id="pathSk2v596cn21ks" kvg:type="㇑" d="M19.26,71.49c0.79,0.78,0.97,1.99,1.17,3c0.64,3.1,1.3,7.76,1.85,12.01c0.21,1.6,0.43,3.13,0.66,4.51" transform="matrix(1,0,0,1,896,-4)" class="stroke_order_diagram--existing_path"></path><path id="pathSk2v596cn21kt" kvg:type="㇕b" d="M21.01,72.58c5.13-0.67,9.82-1.63,14.62-2.45c3.62-0.62,5.63-0.55,4.86,3.64c-0.58,3.15-1.03,6.5-2.26,11.73" transform="matrix(1,0,0,1,896,-4)" class="stroke_order_diagram--existing_path"></path><path id="pathSk2v596cn21ku" kvg:type="㇐b" d="M24.22,88.6c3.88-0.36,7.48-0.96,12.37-1.53c0.93-0.11,1.9-0.22,2.91-0.32" transform="matrix(1,0,0,1,896,-4)" class="stroke_order_diagram--existing_path"></path><path id="pathSk2v596cn21kv" kvg:type="㇐" d="M51.66,22.89c1.72,0.36,3.77,0.28,5.48,0.1c6.45-0.67,18.61-2.49,25.51-3.09c1.74-0.15,2.95-0.2,4.68-0.05" transform="matrix(1,0,0,1,896,-4)" class="stroke_order_diagram--existing_path"></path><path id="pathSk2v596cn21kw" kvg:type="㇑a" d="M67.51,12.38c0.87,0.87,1.29,1.99,1.29,3.49c0,3.13-0.04,18.63-0.04,26.13" transform="matrix(1,0,0,1,896,-4)" class="stroke_order_diagram--existing_path"></path><path id="kvg:08acb-s10" kvg:type="㇐" d="M52.83,32.61c2.05,0.39,3.89,0.27,5.68,0.01c7.62-1.12,15.49-1.87,22.12-2.37c1.84-0.14,3.45-0.13,5.28-0.01" transform="matrix(1,0,0,1,896,-4)" class="stroke_order_diagram--current_path"></path><path id="pathSk2v596cn21ky" kvg:type="㇐" d="M52.83,32.61c2.05,0.39,3.89,0.27,5.68,0.01c7.62-1.12,15.49-1.87,22.12-2.37c1.84-0.14,3.45-0.13,5.28-0.01" transform="matrix(1,0,0,1,896,-4)" class="stroke_order_diagram--current_path"></path><circle cx="52.83" cy="32.61" r="8" class="stroke_order_diagram--path_start" transform="matrix(1,0,0,1,896,-4)"></circle><line x1="1050" x2="1050" y1="1" y2="99" class="stroke_order_diagram--guide_line"></line><line x1="1099" x2="1099" y1="1" y2="99" class="stroke_order_diagram--bounding_box"></line><path id="pathSk2v596cn21l1" kvg:type="㇔" d="M25.8,15.25c2.34,1.41,6.04,5.8,6.63,8" transform="matrix(1,0,0,1,996,-4)" class="stroke_order_diagram--existing_path"></path><path id="pathSk2v596cn21l2" kvg:type="㇐" d="M13.62,33.58c1.9,0.62,4.19,0.52,6.14,0.25c8.74-1.2,14.95-2.17,20.8-3.39c1.16-0.24,2.7-0.14,3.29-0.02" transform="matrix(1,0,0,1,996,-4)" class="stroke_order_diagram--existing_path"></path><path id="pathSk2v596cn21l3" kvg:type="㇐" d="M19.68,46.81c1.3,0.37,2.99,0.19,4.31,0c4.25-0.63,8.42-1.47,12.38-2.06c1.07-0.16,2.32-0.44,3.39-0.25" transform="matrix(1,0,0,1,996,-4)" class="stroke_order_diagram--existing_path"></path><path id="pathSk2v596cn21l4" kvg:type="㇐" d="M20.3,59.08c1.04,0.32,2.74,0.21,3.84,0.08c4.24-0.5,8.6-1.42,12.63-1.96c1.03-0.14,2.28-0.41,3.32-0.23" transform="matrix(1,0,0,1,996,-4)" class="stroke_order_diagram--existing_path"></path><path id="pathSk2v596cn21l5" kvg:type="㇑" d="M19.26,71.49c0.79,0.78,0.97,1.99,1.17,3c0.64,3.1,1.3,7.76,1.85,12.01c0.21,1.6,0.43,3.13,0.66,4.51" transform="matrix(1,0,0,1,996,-4)" class="stroke_order_diagram--existing_path"></path><path id="pathSk2v596cn21l6" kvg:type="㇕b" d="M21.01,72.58c5.13-0.67,9.82-1.63,14.62-2.45c3.62-0.62,5.63-0.55,4.86,3.64c-0.58,3.15-1.03,6.5-2.26,11.73" transform="matrix(1,0,0,1,996,-4)" class="stroke_order_diagram--existing_path"></path><path id="pathSk2v596cn21l7" kvg:type="㇐b" d="M24.22,88.6c3.88-0.36,7.48-0.96,12.37-1.53c0.93-0.11,1.9-0.22,2.91-0.32" transform="matrix(1,0,0,1,996,-4)" class="stroke_order_diagram--existing_path"></path><path id="pathSk2v596cn21l8" kvg:type="㇐" d="M51.66,22.89c1.72,0.36,3.77,0.28,5.48,0.1c6.45-0.67,18.61-2.49,25.51-3.09c1.74-0.15,2.95-0.2,4.68-0.05" transform="matrix(1,0,0,1,996,-4)" class="stroke_order_diagram--existing_path"></path><path id="pathSk2v596cn21l9" kvg:type="㇑a" d="M67.51,12.38c0.87,0.87,1.29,1.99,1.29,3.49c0,3.13-0.04,18.63-0.04,26.13" transform="matrix(1,0,0,1,996,-4)" class="stroke_order_diagram--existing_path"></path><path id="pathSk2v596cn21la" kvg:type="㇐" d="M52.83,32.61c2.05,0.39,3.89,0.27,5.68,0.01c7.62-1.12,15.49-1.87,22.12-2.37c1.84-0.14,3.45-0.13,5.28-0.01" transform="matrix(1,0,0,1,996,-4)" class="stroke_order_diagram--existing_path"></path><path id="kvg:08acb-s11" kvg:type="㇐" d="M45.63,44.49c2.95,0.69,6.3,0.25,9.26-0.1c9.33-1.11,23.75-2.54,32.74-3.05c3.62-0.21,7.25-0.33,9.62,0.31" transform="matrix(1,0,0,1,996,-4)" class="stroke_order_diagram--current_path"></path><path id="pathSk2v596cn21lc" kvg:type="㇐" d="M45.63,44.49c2.95,0.69,6.3,0.25,9.26-0.1c9.33-1.11,23.75-2.54,32.74-3.05c3.62-0.21,7.25-0.33,9.62,0.31" transform="matrix(1,0,0,1,996,-4)" class="stroke_order_diagram--current_path"></path><circle cx="45.63" cy="44.49" r="8" class="stroke_order_diagram--path_start" transform="matrix(1,0,0,1,996,-4)"></circle><line x1="1150" x2="1150" y1="1" y2="99" class="stroke_order_diagram--guide_line"></line><line x1="1199" x2="1199" y1="1" y2="99" class="stroke_order_diagram--bounding_box"></line><path id="pathSk2v596cn21lf" kvg:type="㇔" d="M25.8,15.25c2.34,1.41,6.04,5.8,6.63,8" transform="matrix(1,0,0,1,1096,-4)" class="stroke_order_diagram--existing_path"></path><path id="pathSk2v596cn21lg" kvg:type="㇐" d="M13.62,33.58c1.9,0.62,4.19,0.52,6.14,0.25c8.74-1.2,14.95-2.17,20.8-3.39c1.16-0.24,2.7-0.14,3.29-0.02" transform="matrix(1,0,0,1,1096,-4)" class="stroke_order_diagram--existing_path"></path><path id="pathSk2v596cn21lh" kvg:type="㇐" d="M19.68,46.81c1.3,0.37,2.99,0.19,4.31,0c4.25-0.63,8.42-1.47,12.38-2.06c1.07-0.16,2.32-0.44,3.39-0.25" transform="matrix(1,0,0,1,1096,-4)" class="stroke_order_diagram--existing_path"></path><path id="pathSk2v596cn21li" kvg:type="㇐" d="M20.3,59.08c1.04,0.32,2.74,0.21,3.84,0.08c4.24-0.5,8.6-1.42,12.63-1.96c1.03-0.14,2.28-0.41,3.32-0.23" transform="matrix(1,0,0,1,1096,-4)" class="stroke_order_diagram--existing_path"></path><path id="pathSk2v596cn21lj" kvg:type="㇑" d="M19.26,71.49c0.79,0.78,0.97,1.99,1.17,3c0.64,3.1,1.3,7.76,1.85,12.01c0.21,1.6,0.43,3.13,0.66,4.51" transform="matrix(1,0,0,1,1096,-4)" class="stroke_order_diagram--existing_path"></path><path id="pathSk2v596cn21lk" kvg:type="㇕b" d="M21.01,72.58c5.13-0.67,9.82-1.63,14.62-2.45c3.62-0.62,5.63-0.55,4.86,3.64c-0.58,3.15-1.03,6.5-2.26,11.73" transform="matrix(1,0,0,1,1096,-4)" class="stroke_order_diagram--existing_path"></path><path id="pathSk2v596cn21ll" kvg:type="㇐b" d="M24.22,88.6c3.88-0.36,7.48-0.96,12.37-1.53c0.93-0.11,1.9-0.22,2.91-0.32" transform="matrix(1,0,0,1,1096,-4)" class="stroke_order_diagram--existing_path"></path><path id="pathSk2v596cn21lm" kvg:type="㇐" d="M51.66,22.89c1.72,0.36,3.77,0.28,5.48,0.1c6.45-0.67,18.61-2.49,25.51-3.09c1.74-0.15,2.95-0.2,4.68-0.05" transform="matrix(1,0,0,1,1096,-4)" class="stroke_order_diagram--existing_path"></path><path id="pathSk2v596cn21ln" kvg:type="㇑a" d="M67.51,12.38c0.87,0.87,1.29,1.99,1.29,3.49c0,3.13-0.04,18.63-0.04,26.13" transform="matrix(1,0,0,1,1096,-4)" class="stroke_order_diagram--existing_path"></path><path id="pathSk2v596cn21lo" kvg:type="㇐" d="M52.83,32.61c2.05,0.39,3.89,0.27,5.68,0.01c7.62-1.12,15.49-1.87,22.12-2.37c1.84-0.14,3.45-0.13,5.28-0.01" transform="matrix(1,0,0,1,1096,-4)" class="stroke_order_diagram--existing_path"></path><path id="pathSk2v596cn21lp" kvg:type="㇐" d="M45.63,44.49c2.95,0.69,6.3,0.25,9.26-0.1c9.33-1.11,23.75-2.54,32.74-3.05c3.62-0.21,7.25-0.33,9.62,0.31" transform="matrix(1,0,0,1,1096,-4)" class="stroke_order_diagram--existing_path"></path><path id="kvg:08acb-s12" kvg:type="㇑/㇒" d="M55.06,52.1c0.8,0.8,1.09,2.03,1.09,3.05c0,4.57-0.01,21.51-0.02,35.61c0,2.39,0,4.7,0,6.86" transform="matrix(1,0,0,1,1096,-4)" class="stroke_order_diagram--current_path"></path><path id="pathSk2v596cn21lr" kvg:type="㇑/㇒" d="M55.06,52.1c0.8,0.8,1.09,2.03,1.09,3.05c0,4.57-0.01,21.51-0.02,35.61c0,2.39,0,4.7,0,6.86" transform="matrix(1,0,0,1,1096,-4)" class="stroke_order_diagram--current_path"></path><circle cx="55.06" cy="52.1" r="8" class="stroke_order_diagram--path_start" transform="matrix(1,0,0,1,1096,-4)"></circle><line x1="1250" x2="1250" y1="1" y2="99" class="stroke_order_diagram--guide_line"></line><line x1="1299" x2="1299" y1="1" y2="99" class="stroke_order_diagram--bounding_box"></line><path id="pathSk2v596cn21lu" kvg:type="㇔" d="M25.8,15.25c2.34,1.41,6.04,5.8,6.63,8" transform="matrix(1,0,0,1,1196,-4)" class="stroke_order_diagram--existing_path"></path><path id="pathSk2v596cn21lv" kvg:type="㇐" d="M13.62,33.58c1.9,0.62,4.19,0.52,6.14,0.25c8.74-1.2,14.95-2.17,20.8-3.39c1.16-0.24,2.7-0.14,3.29-0.02" transform="matrix(1,0,0,1,1196,-4)" class="stroke_order_diagram--existing_path"></path><path id="pathSk2v596cn21lw" kvg:type="㇐" d="M19.68,46.81c1.3,0.37,2.99,0.19,4.31,0c4.25-0.63,8.42-1.47,12.38-2.06c1.07-0.16,2.32-0.44,3.39-0.25" transform="matrix(1,0,0,1,1196,-4)" class="stroke_order_diagram--existing_path"></path><path id="pathSk2v596cn21lx" kvg:type="㇐" d="M20.3,59.08c1.04,0.32,2.74,0.21,3.84,0.08c4.24-0.5,8.6-1.42,12.63-1.96c1.03-0.14,2.28-0.41,3.32-0.23" transform="matrix(1,0,0,1,1196,-4)" class="stroke_order_diagram--existing_path"></path><path id="pathSk2v596cn21ly" kvg:type="㇑" d="M19.26,71.49c0.79,0.78,0.97,1.99,1.17,3c0.64,3.1,1.3,7.76,1.85,12.01c0.21,1.6,0.43,3.13,0.66,4.51" transform="matrix(1,0,0,1,1196,-4)" class="stroke_order_diagram--existing_path"></path><path id="pathSk2v596cn21lz" kvg:type="㇕b" d="M21.01,72.58c5.13-0.67,9.82-1.63,14.62-2.45c3.62-0.62,5.63-0.55,4.86,3.64c-0.58,3.15-1.03,6.5-2.26,11.73" transform="matrix(1,0,0,1,1196,-4)" class="stroke_order_diagram--existing_path"></path><path id="pathSk2v596cn21m0" kvg:type="㇐b" d="M24.22,88.6c3.88-0.36,7.48-0.96,12.37-1.53c0.93-0.11,1.9-0.22,2.91-0.32" transform="matrix(1,0,0,1,1196,-4)" class="stroke_order_diagram--existing_path"></path><path id="pathSk2v596cn21m1" kvg:type="㇐" d="M51.66,22.89c1.72,0.36,3.77,0.28,5.48,0.1c6.45-0.67,18.61-2.49,25.51-3.09c1.74-0.15,2.95-0.2,4.68-0.05" transform="matrix(1,0,0,1,1196,-4)" class="stroke_order_diagram--existing_path"></path><path id="pathSk2v596cn21m2" kvg:type="㇑a" d="M67.51,12.38c0.87,0.87,1.29,1.99,1.29,3.49c0,3.13-0.04,18.63-0.04,26.13" transform="matrix(1,0,0,1,1196,-4)" class="stroke_order_diagram--existing_path"></path><path id="pathSk2v596cn21m3" kvg:type="㇐" d="M52.83,32.61c2.05,0.39,3.89,0.27,5.68,0.01c7.62-1.12,15.49-1.87,22.12-2.37c1.84-0.14,3.45-0.13,5.28-0.01" transform="matrix(1,0,0,1,1196,-4)" class="stroke_order_diagram--existing_path"></path><path id="pathSk2v596cn21m4" kvg:type="㇐" d="M45.63,44.49c2.95,0.69,6.3,0.25,9.26-0.1c9.33-1.11,23.75-2.54,32.74-3.05c3.62-0.21,7.25-0.33,9.62,0.31" transform="matrix(1,0,0,1,1196,-4)" class="stroke_order_diagram--existing_path"></path><path id="pathSk2v596cn21m5" kvg:type="㇑/㇒" d="M55.06,52.1c0.8,0.8,1.09,2.03,1.09,3.05c0,4.57-0.01,21.51-0.02,35.61c0,2.39,0,4.7,0,6.86" transform="matrix(1,0,0,1,1196,-4)" class="stroke_order_diagram--existing_path"></path><path id="kvg:08acb-s13" kvg:type="㇆a" d="M56.67,53.35c6.6-0.85,19.12-2.63,23.32-3.18c2.91-0.38,4.4,0.96,4.4,3.93c0,3.15-0.02,26.77-0.02,37.77c0,9.76-5.47,1.61-6.2,0.93" transform="matrix(1,0,0,1,1196,-4)" class="stroke_order_diagram--current_path"></path><path id="pathSk2v596cn21m7" kvg:type="㇆a" d="M56.67,53.35c6.6-0.85,19.12-2.63,23.32-3.18c2.91-0.38,4.4,0.96,4.4,3.93c0,3.15-0.02,26.77-0.02,37.77c0,9.76-5.47,1.61-6.2,0.93" transform="matrix(1,0,0,1,1196,-4)" class="stroke_order_diagram--current_path"></path><circle cx="56.67" cy="53.35" r="8" class="stroke_order_diagram--path_start" transform="matrix(1,0,0,1,1196,-4)"></circle><line x1="1350" x2="1350" y1="1" y2="99" class="stroke_order_diagram--guide_line"></line><line x1="1399" x2="1399" y1="1" y2="99" class="stroke_order_diagram--bounding_box"></line><path id="pathSk2v596cn21ma" kvg:type="㇔" d="M25.8,15.25c2.34,1.41,6.04,5.8,6.63,8" transform="matrix(1,0,0,1,1296,-4)" class="stroke_order_diagram--existing_path"></path><path id="pathSk2v596cn21mb" kvg:type="㇐" d="M13.62,33.58c1.9,0.62,4.19,0.52,6.14,0.25c8.74-1.2,14.95-2.17,20.8-3.39c1.16-0.24,2.7-0.14,3.29-0.02" transform="matrix(1,0,0,1,1296,-4)" class="stroke_order_diagram--existing_path"></path><path id="pathSk2v596cn21mc" kvg:type="㇐" d="M19.68,46.81c1.3,0.37,2.99,0.19,4.31,0c4.25-0.63,8.42-1.47,12.38-2.06c1.07-0.16,2.32-0.44,3.39-0.25" transform="matrix(1,0,0,1,1296,-4)" class="stroke_order_diagram--existing_path"></path><path id="pathSk2v596cn21md" kvg:type="㇐" d="M20.3,59.08c1.04,0.32,2.74,0.21,3.84,0.08c4.24-0.5,8.6-1.42,12.63-1.96c1.03-0.14,2.28-0.41,3.32-0.23" transform="matrix(1,0,0,1,1296,-4)" class="stroke_order_diagram--existing_path"></path><path id="pathSk2v596cn21me" kvg:type="㇑" d="M19.26,71.49c0.79,0.78,0.97,1.99,1.17,3c0.64,3.1,1.3,7.76,1.85,12.01c0.21,1.6,0.43,3.13,0.66,4.51" transform="matrix(1,0,0,1,1296,-4)" class="stroke_order_diagram--existing_path"></path><path id="pathSk2v596cn21mf" kvg:type="㇕b" d="M21.01,72.58c5.13-0.67,9.82-1.63,14.62-2.45c3.62-0.62,5.63-0.55,4.86,3.64c-0.58,3.15-1.03,6.5-2.26,11.73" transform="matrix(1,0,0,1,1296,-4)" class="stroke_order_diagram--existing_path"></path><path id="pathSk2v596cn21mg" kvg:type="㇐b" d="M24.22,88.6c3.88-0.36,7.48-0.96,12.37-1.53c0.93-0.11,1.9-0.22,2.91-0.32" transform="matrix(1,0,0,1,1296,-4)" class="stroke_order_diagram--existing_path"></path><path id="pathSk2v596cn21mh" kvg:type="㇐" d="M51.66,22.89c1.72,0.36,3.77,0.28,5.48,0.1c6.45-0.67,18.61-2.49,25.51-3.09c1.74-0.15,2.95-0.2,4.68-0.05" transform="matrix(1,0,0,1,1296,-4)" class="stroke_order_diagram--existing_path"></path><path id="pathSk2v596cn21mi" kvg:type="㇑a" d="M67.51,12.38c0.87,0.87,1.29,1.99,1.29,3.49c0,3.13-0.04,18.63-0.04,26.13" transform="matrix(1,0,0,1,1296,-4)" class="stroke_order_diagram--existing_path"></path><path id="pathSk2v596cn21mj" kvg:type="㇐" d="M52.83,32.61c2.05,0.39,3.89,0.27,5.68,0.01c7.62-1.12,15.49-1.87,22.12-2.37c1.84-0.14,3.45-0.13,5.28-0.01" transform="matrix(1,0,0,1,1296,-4)" class="stroke_order_diagram--existing_path"></path><path id="pathSk2v596cn21mk" kvg:type="㇐" d="M45.63,44.49c2.95,0.69,6.3,0.25,9.26-0.1c9.33-1.11,23.75-2.54,32.74-3.05c3.62-0.21,7.25-0.33,9.62,0.31" transform="matrix(1,0,0,1,1296,-4)" class="stroke_order_diagram--existing_path"></path><path id="pathSk2v596cn21ml" kvg:type="㇑/㇒" d="M55.06,52.1c0.8,0.8,1.09,2.03,1.09,3.05c0,4.57-0.01,21.51-0.02,35.61c0,2.39,0,4.7,0,6.86" transform="matrix(1,0,0,1,1296,-4)" class="stroke_order_diagram--existing_path"></path><path id="pathSk2v596cn21mm" kvg:type="㇆a" d="M56.67,53.35c6.6-0.85,19.12-2.63,23.32-3.18c2.91-0.38,4.4,0.96,4.4,3.93c0,3.15-0.02,26.77-0.02,37.77c0,9.76-5.47,1.61-6.2,0.93" transform="matrix(1,0,0,1,1296,-4)" class="stroke_order_diagram--existing_path"></path><path id="kvg:08acb-s14" kvg:type="㇐a" d="M57.23,64.27c7.27-0.77,18.14-1.65,25.89-2.2" transform="matrix(1,0,0,1,1296,-4)" class="stroke_order_diagram--current_path"></path><path id="pathSk2v596cn21mo" kvg:type="㇐a" d="M57.23,64.27c7.27-0.77,18.14-1.65,25.89-2.2" transform="matrix(1,0,0,1,1296,-4)" class="stroke_order_diagram--current_path"></path><circle cx="57.23" cy="64.27" r="8" class="stroke_order_diagram--path_start" transform="matrix(1,0,0,1,1296,-4)"></circle><line x1="1450" x2="1450" y1="1" y2="99" class="stroke_order_diagram--guide_line"></line><line x1="1499" x2="1499" y1="1" y2="99" class="stroke_order_diagram--bounding_box"></line><path id="pathSk2v596cn21mr" kvg:type="㇔" d="M25.8,15.25c2.34,1.41,6.04,5.8,6.63,8" transform="matrix(1,0,0,1,1396,-4)" class="stroke_order_diagram--existing_path"></path><path id="pathSk2v596cn21ms" kvg:type="㇐" d="M13.62,33.58c1.9,0.62,4.19,0.52,6.14,0.25c8.74-1.2,14.95-2.17,20.8-3.39c1.16-0.24,2.7-0.14,3.29-0.02" transform="matrix(1,0,0,1,1396,-4)" class="stroke_order_diagram--existing_path"></path><path id="pathSk2v596cn21mt" kvg:type="㇐" d="M19.68,46.81c1.3,0.37,2.99,0.19,4.31,0c4.25-0.63,8.42-1.47,12.38-2.06c1.07-0.16,2.32-0.44,3.39-0.25" transform="matrix(1,0,0,1,1396,-4)" class="stroke_order_diagram--existing_path"></path><path id="pathSk2v596cn21mu" kvg:type="㇐" d="M20.3,59.08c1.04,0.32,2.74,0.21,3.84,0.08c4.24-0.5,8.6-1.42,12.63-1.96c1.03-0.14,2.28-0.41,3.32-0.23" transform="matrix(1,0,0,1,1396,-4)" class="stroke_order_diagram--existing_path"></path><path id="pathSk2v596cn21mv" kvg:type="㇑" d="M19.26,71.49c0.79,0.78,0.97,1.99,1.17,3c0.64,3.1,1.3,7.76,1.85,12.01c0.21,1.6,0.43,3.13,0.66,4.51" transform="matrix(1,0,0,1,1396,-4)" class="stroke_order_diagram--existing_path"></path><path id="pathSk2v596cn21mw" kvg:type="㇕b" d="M21.01,72.58c5.13-0.67,9.82-1.63,14.62-2.45c3.62-0.62,5.63-0.55,4.86,3.64c-0.58,3.15-1.03,6.5-2.26,11.73" transform="matrix(1,0,0,1,1396,-4)" class="stroke_order_diagram--existing_path"></path><path id="pathSk2v596cn21mx" kvg:type="㇐b" d="M24.22,88.6c3.88-0.36,7.48-0.96,12.37-1.53c0.93-0.11,1.9-0.22,2.91-0.32" transform="matrix(1,0,0,1,1396,-4)" class="stroke_order_diagram--existing_path"></path><path id="pathSk2v596cn21my" kvg:type="㇐" d="M51.66,22.89c1.72,0.36,3.77,0.28,5.48,0.1c6.45-0.67,18.61-2.49,25.51-3.09c1.74-0.15,2.95-0.2,4.68-0.05" transform="matrix(1,0,0,1,1396,-4)" class="stroke_order_diagram--existing_path"></path><path id="pathSk2v596cn21mz" kvg:type="㇑a" d="M67.51,12.38c0.87,0.87,1.29,1.99,1.29,3.49c0,3.13-0.04,18.63-0.04,26.13" transform="matrix(1,0,0,1,1396,-4)" class="stroke_order_diagram--existing_path"></path><path id="pathSk2v596cn21n0" kvg:type="㇐" d="M52.83,32.61c2.05,0.39,3.89,0.27,5.68,0.01c7.62-1.12,15.49-1.87,22.12-2.37c1.84-0.14,3.45-0.13,5.28-0.01" transform="matrix(1,0,0,1,1396,-4)" class="stroke_order_diagram--existing_path"></path><path id="pathSk2v596cn21n1" kvg:type="㇐" d="M45.63,44.49c2.95,0.69,6.3,0.25,9.26-0.1c9.33-1.11,23.75-2.54,32.74-3.05c3.62-0.21,7.25-0.33,9.62,0.31" transform="matrix(1,0,0,1,1396,-4)" class="stroke_order_diagram--existing_path"></path><path id="pathSk2v596cn21n2" kvg:type="㇑/㇒" d="M55.06,52.1c0.8,0.8,1.09,2.03,1.09,3.05c0,4.57-0.01,21.51-0.02,35.61c0,2.39,0,4.7,0,6.86" transform="matrix(1,0,0,1,1396,-4)" class="stroke_order_diagram--existing_path"></path><path id="pathSk2v596cn21n3" kvg:type="㇆a" d="M56.67,53.35c6.6-0.85,19.12-2.63,23.32-3.18c2.91-0.38,4.4,0.96,4.4,3.93c0,3.15-0.02,26.77-0.02,37.77c0,9.76-5.47,1.61-6.2,0.93" transform="matrix(1,0,0,1,1396,-4)" class="stroke_order_diagram--existing_path"></path><path id="pathSk2v596cn21n4" kvg:type="㇐a" d="M57.23,64.27c7.27-0.77,18.14-1.65,25.89-2.2" transform="matrix(1,0,0,1,1396,-4)" class="stroke_order_diagram--existing_path"></path><path id="kvg:08acb-s15" kvg:type="㇐a" d="M57.28,76.29c7.72-0.66,19.1-1.66,25.98-1.9" transform="matrix(1,0,0,1,1396,-4)" class="stroke_order_diagram--current_path"></path><path id="pathSk2v596cn21n6" kvg:type="㇐a" d="M57.28,76.29c7.72-0.66,19.1-1.66,25.98-1.9" transform="matrix(1,0,0,1,1396,-4)" class="stroke_order_diagram--current_path"></path><circle cx="57.28" cy="76.29" r="8" class="stroke_order_diagram--path_start" transform="matrix(1,0,0,1,1396,-4)"></circle></svg>