<svg style="width: 2000px; height: 100px;" viewbox="0 0 2000 100"><style>
.stroke_order_diagram--outer_container {
  width: 100%;
  overflow-x: auto;
  overflow-y: hidden;
}

.stroke_order_diagram--guide_line {
  fill: none;
  stroke: #ddd;
  stroke-width: 3;
  stroke-linecap: square;
  stroke-linejoin: square;
  stroke-dasharray:8, 8;
}

.stroke_order_diagram--bounding_box {
  fill: none;
  stroke: #ddd;
  stroke-width: 4;
  stroke-linecap: square;
  stroke-linejoin: square;
}

.stroke_order_diagram--current_path {
  fill: none;
  stroke: #000;
  stroke-width: 6;
  stroke-linecap: round;
  stroke-linejoin: round;
}

.stroke_order_diagram--existing_path {
  fill: none;
  stroke: #aaa;
  stroke-width: 6;
  stroke-linecap: round;
  stroke-linejoin:round;
}

.stroke_order_diagram--path_start {
  fill: rgba(255, 0, 0, 0.7);
  stroke:none
}</style><desc>Created with Snap</desc><defs></defs><line x1="1" x2="1999" y1="1" y2="1" class="stroke_order_diagram--bounding_box"></line><line x1="1" x2="1" y1="1" y2="99" class="stroke_order_diagram--bounding_box"></line><line x1="1" x2="1999" y1="99" y2="99" class="stroke_order_diagram--bounding_box"></line><line x1="0" x2="2000" y1="50" y2="50" class="stroke_order_diagram--guide_line"></line><line x1="50" x2="50" y1="1" y2="99" class="stroke_order_diagram--guide_line"></line><line x1="99" x2="99" y1="1" y2="99" class="stroke_order_diagram--bounding_box"></line><path id="kvg:08b72-s1" kvg:type="㇔" d="M23.88,14.5c2.76,1.46,7.12,5.98,7.81,8.25" transform="matrix(1,0,0,1,-4,-4)" class="stroke_order_diagram--current_path"></path><path id="pathSk2v596cn2wii" kvg:type="㇔" d="M23.88,14.5c2.76,1.46,7.12,5.98,7.81,8.25" transform="matrix(1,0,0,1,-4,-4)" class="stroke_order_diagram--current_path"></path><circle cx="23.88" cy="14.5" r="8" class="stroke_order_diagram--path_start" transform="matrix(1,0,0,1,-4,-4)"></circle><line x1="150" x2="150" y1="1" y2="99" class="stroke_order_diagram--guide_line"></line><line x1="199" x2="199" y1="1" y2="99" class="stroke_order_diagram--bounding_box"></line><path id="pathSk2v596cn2wil" kvg:type="㇔" d="M23.88,14.5c2.76,1.46,7.12,5.98,7.81,8.25" transform="matrix(1,0,0,1,96,-4)" class="stroke_order_diagram--existing_path"></path><path id="kvg:08b72-s2" kvg:type="㇐" d="M13.12,32.33c1.61,0.53,3.72,0.27,5.39,0.16c8.06-0.52,13.37-1.36,20.55-2.05c1.18-0.11,2.95,0.11,3.54,0.23" transform="matrix(1,0,0,1,96,-4)" class="stroke_order_diagram--current_path"></path><path id="pathSk2v596cn2win" kvg:type="㇐" d="M13.12,32.33c1.61,0.53,3.72,0.27,5.39,0.16c8.06-0.52,13.37-1.36,20.55-2.05c1.18-0.11,2.95,0.11,3.54,0.23" transform="matrix(1,0,0,1,96,-4)" class="stroke_order_diagram--current_path"></path><circle cx="13.12" cy="32.33" r="8" class="stroke_order_diagram--path_start" transform="matrix(1,0,0,1,96,-4)"></circle><line x1="250" x2="250" y1="1" y2="99" class="stroke_order_diagram--guide_line"></line><line x1="299" x2="299" y1="1" y2="99" class="stroke_order_diagram--bounding_box"></line><path id="pathSk2v596cn2wiq" kvg:type="㇔" d="M23.88,14.5c2.76,1.46,7.12,5.98,7.81,8.25" transform="matrix(1,0,0,1,196,-4)" class="stroke_order_diagram--existing_path"></path><path id="pathSk2v596cn2wir" kvg:type="㇐" d="M13.12,32.33c1.61,0.53,3.72,0.27,5.39,0.16c8.06-0.52,13.37-1.36,20.55-2.05c1.18-0.11,2.95,0.11,3.54,0.23" transform="matrix(1,0,0,1,196,-4)" class="stroke_order_diagram--existing_path"></path><path id="kvg:08b72-s3" kvg:type="㇐" d="M17.68,45.81c1.63,0.46,3.04,0.4,4.7,0.18c4.09-0.55,8.11-1.31,12.11-1.86c1.48-0.2,2.57-0.38,4.04-0.13" transform="matrix(1,0,0,1,196,-4)" class="stroke_order_diagram--current_path"></path><path id="pathSk2v596cn2wit" kvg:type="㇐" d="M17.68,45.81c1.63,0.46,3.04,0.4,4.7,0.18c4.09-0.55,8.11-1.31,12.11-1.86c1.48-0.2,2.57-0.38,4.04-0.13" transform="matrix(1,0,0,1,196,-4)" class="stroke_order_diagram--current_path"></path><circle cx="17.68" cy="45.81" r="8" class="stroke_order_diagram--path_start" transform="matrix(1,0,0,1,196,-4)"></circle><line x1="350" x2="350" y1="1" y2="99" class="stroke_order_diagram--guide_line"></line><line x1="399" x2="399" y1="1" y2="99" class="stroke_order_diagram--bounding_box"></line><path id="pathSk2v596cn2wiw" kvg:type="㇔" d="M23.88,14.5c2.76,1.46,7.12,5.98,7.81,8.25" transform="matrix(1,0,0,1,296,-4)" class="stroke_order_diagram--existing_path"></path><path id="pathSk2v596cn2wix" kvg:type="㇐" d="M13.12,32.33c1.61,0.53,3.72,0.27,5.39,0.16c8.06-0.52,13.37-1.36,20.55-2.05c1.18-0.11,2.95,0.11,3.54,0.23" transform="matrix(1,0,0,1,296,-4)" class="stroke_order_diagram--existing_path"></path><path id="pathSk2v596cn2wiy" kvg:type="㇐" d="M17.68,45.81c1.63,0.46,3.04,0.4,4.7,0.18c4.09-0.55,8.11-1.31,12.11-1.86c1.48-0.2,2.57-0.38,4.04-0.13" transform="matrix(1,0,0,1,296,-4)" class="stroke_order_diagram--existing_path"></path><path id="kvg:08b72-s4" kvg:type="㇐" d="M17.8,58.83c1.18,0.36,2.86,0.16,4.08,0.06c3.69-0.31,8.51-1.33,12.37-1.9c1.26-0.19,2.82-0.5,4.08-0.27" transform="matrix(1,0,0,1,296,-4)" class="stroke_order_diagram--current_path"></path><path id="pathSk2v596cn2wj0" kvg:type="㇐" d="M17.8,58.83c1.18,0.36,2.86,0.16,4.08,0.06c3.69-0.31,8.51-1.33,12.37-1.9c1.26-0.19,2.82-0.5,4.08-0.27" transform="matrix(1,0,0,1,296,-4)" class="stroke_order_diagram--current_path"></path><circle cx="17.8" cy="58.83" r="8" class="stroke_order_diagram--path_start" transform="matrix(1,0,0,1,296,-4)"></circle><line x1="450" x2="450" y1="1" y2="99" class="stroke_order_diagram--guide_line"></line><line x1="499" x2="499" y1="1" y2="99" class="stroke_order_diagram--bounding_box"></line><path id="pathSk2v596cn2wj3" kvg:type="㇔" d="M23.88,14.5c2.76,1.46,7.12,5.98,7.81,8.25" transform="matrix(1,0,0,1,396,-4)" class="stroke_order_diagram--existing_path"></path><path id="pathSk2v596cn2wj4" kvg:type="㇐" d="M13.12,32.33c1.61,0.53,3.72,0.27,5.39,0.16c8.06-0.52,13.37-1.36,20.55-2.05c1.18-0.11,2.95,0.11,3.54,0.23" transform="matrix(1,0,0,1,396,-4)" class="stroke_order_diagram--existing_path"></path><path id="pathSk2v596cn2wj5" kvg:type="㇐" d="M17.68,45.81c1.63,0.46,3.04,0.4,4.7,0.18c4.09-0.55,8.11-1.31,12.11-1.86c1.48-0.2,2.57-0.38,4.04-0.13" transform="matrix(1,0,0,1,396,-4)" class="stroke_order_diagram--existing_path"></path><path id="pathSk2v596cn2wj6" kvg:type="㇐" d="M17.8,58.83c1.18,0.36,2.86,0.16,4.08,0.06c3.69-0.31,8.51-1.33,12.37-1.9c1.26-0.19,2.82-0.5,4.08-0.27" transform="matrix(1,0,0,1,396,-4)" class="stroke_order_diagram--existing_path"></path><path id="kvg:08b72-s5" kvg:type="㇑" d="M18.26,71.4c0.76,0.71,1.1,1.86,1.25,2.84c0.74,4.88,1.33,9.11,1.93,14.73c0.14,1.26,0.27,2.52,0.42,3.78" transform="matrix(1,0,0,1,396,-4)" class="stroke_order_diagram--current_path"></path><path id="pathSk2v596cn2wj8" kvg:type="㇑" d="M18.26,71.4c0.76,0.71,1.1,1.86,1.25,2.84c0.74,4.88,1.33,9.11,1.93,14.73c0.14,1.26,0.27,2.52,0.42,3.78" transform="matrix(1,0,0,1,396,-4)" class="stroke_order_diagram--current_path"></path><circle cx="18.26" cy="71.4" r="8" class="stroke_order_diagram--path_start" transform="matrix(1,0,0,1,396,-4)"></circle><line x1="550" x2="550" y1="1" y2="99" class="stroke_order_diagram--guide_line"></line><line x1="599" x2="599" y1="1" y2="99" class="stroke_order_diagram--bounding_box"></line><path id="pathSk2v596cn2wjb" kvg:type="㇔" d="M23.88,14.5c2.76,1.46,7.12,5.98,7.81,8.25" transform="matrix(1,0,0,1,496,-4)" class="stroke_order_diagram--existing_path"></path><path id="pathSk2v596cn2wjc" kvg:type="㇐" d="M13.12,32.33c1.61,0.53,3.72,0.27,5.39,0.16c8.06-0.52,13.37-1.36,20.55-2.05c1.18-0.11,2.95,0.11,3.54,0.23" transform="matrix(1,0,0,1,496,-4)" class="stroke_order_diagram--existing_path"></path><path id="pathSk2v596cn2wjd" kvg:type="㇐" d="M17.68,45.81c1.63,0.46,3.04,0.4,4.7,0.18c4.09-0.55,8.11-1.31,12.11-1.86c1.48-0.2,2.57-0.38,4.04-0.13" transform="matrix(1,0,0,1,496,-4)" class="stroke_order_diagram--existing_path"></path><path id="pathSk2v596cn2wje" kvg:type="㇐" d="M17.8,58.83c1.18,0.36,2.86,0.16,4.08,0.06c3.69-0.31,8.51-1.33,12.37-1.9c1.26-0.19,2.82-0.5,4.08-0.27" transform="matrix(1,0,0,1,496,-4)" class="stroke_order_diagram--existing_path"></path><path id="pathSk2v596cn2wjf" kvg:type="㇑" d="M18.26,71.4c0.76,0.71,1.1,1.86,1.25,2.84c0.74,4.88,1.33,9.11,1.93,14.73c0.14,1.26,0.27,2.52,0.42,3.78" transform="matrix(1,0,0,1,496,-4)" class="stroke_order_diagram--existing_path"></path><path id="kvg:08b72-s6" kvg:type="㇕b" d="M20.19,72.87c4.31-0.67,8.26-1.63,13.83-2.47c3.3-0.5,4.81-0.01,4.01,3.48c-1.02,4.48-1.92,8.81-2.98,14.33" transform="matrix(1,0,0,1,496,-4)" class="stroke_order_diagram--current_path"></path><path id="pathSk2v596cn2wjh" kvg:type="㇕b" d="M20.19,72.87c4.31-0.67,8.26-1.63,13.83-2.47c3.3-0.5,4.81-0.01,4.01,3.48c-1.02,4.48-1.92,8.81-2.98,14.33" transform="matrix(1,0,0,1,496,-4)" class="stroke_order_diagram--current_path"></path><circle cx="20.19" cy="72.87" r="8" class="stroke_order_diagram--path_start" transform="matrix(1,0,0,1,496,-4)"></circle><line x1="650" x2="650" y1="1" y2="99" class="stroke_order_diagram--guide_line"></line><line x1="699" x2="699" y1="1" y2="99" class="stroke_order_diagram--bounding_box"></line><path id="pathSk2v596cn2wjk" kvg:type="㇔" d="M23.88,14.5c2.76,1.46,7.12,5.98,7.81,8.25" transform="matrix(1,0,0,1,596,-4)" class="stroke_order_diagram--existing_path"></path><path id="pathSk2v596cn2wjl" kvg:type="㇐" d="M13.12,32.33c1.61,0.53,3.72,0.27,5.39,0.16c8.06-0.52,13.37-1.36,20.55-2.05c1.18-0.11,2.95,0.11,3.54,0.23" transform="matrix(1,0,0,1,596,-4)" class="stroke_order_diagram--existing_path"></path><path id="pathSk2v596cn2wjm" kvg:type="㇐" d="M17.68,45.81c1.63,0.46,3.04,0.4,4.7,0.18c4.09-0.55,8.11-1.31,12.11-1.86c1.48-0.2,2.57-0.38,4.04-0.13" transform="matrix(1,0,0,1,596,-4)" class="stroke_order_diagram--existing_path"></path><path id="pathSk2v596cn2wjn" kvg:type="㇐" d="M17.8,58.83c1.18,0.36,2.86,0.16,4.08,0.06c3.69-0.31,8.51-1.33,12.37-1.9c1.26-0.19,2.82-0.5,4.08-0.27" transform="matrix(1,0,0,1,596,-4)" class="stroke_order_diagram--existing_path"></path><path id="pathSk2v596cn2wjo" kvg:type="㇑" d="M18.26,71.4c0.76,0.71,1.1,1.86,1.25,2.84c0.74,4.88,1.33,9.11,1.93,14.73c0.14,1.26,0.27,2.52,0.42,3.78" transform="matrix(1,0,0,1,596,-4)" class="stroke_order_diagram--existing_path"></path><path id="pathSk2v596cn2wjp" kvg:type="㇕b" d="M20.19,72.87c4.31-0.67,8.26-1.63,13.83-2.47c3.3-0.5,4.81-0.01,4.01,3.48c-1.02,4.48-1.92,8.81-2.98,14.33" transform="matrix(1,0,0,1,596,-4)" class="stroke_order_diagram--existing_path"></path><path id="kvg:08b72-s7" kvg:type="㇐b" d="M22.92,90.8c4.39-0.44,5.9-0.81,10.88-1.39c1.12-0.13,2.45-0.28,3.68-0.17" transform="matrix(1,0,0,1,596,-4)" class="stroke_order_diagram--current_path"></path><path id="pathSk2v596cn2wjr" kvg:type="㇐b" d="M22.92,90.8c4.39-0.44,5.9-0.81,10.88-1.39c1.12-0.13,2.45-0.28,3.68-0.17" transform="matrix(1,0,0,1,596,-4)" class="stroke_order_diagram--current_path"></path><circle cx="22.92" cy="90.8" r="8" class="stroke_order_diagram--path_start" transform="matrix(1,0,0,1,596,-4)"></circle><line x1="750" x2="750" y1="1" y2="99" class="stroke_order_diagram--guide_line"></line><line x1="799" x2="799" y1="1" y2="99" class="stroke_order_diagram--bounding_box"></line><path id="pathSk2v596cn2wju" kvg:type="㇔" d="M23.88,14.5c2.76,1.46,7.12,5.98,7.81,8.25" transform="matrix(1,0,0,1,696,-4)" class="stroke_order_diagram--existing_path"></path><path id="pathSk2v596cn2wjv" kvg:type="㇐" d="M13.12,32.33c1.61,0.53,3.72,0.27,5.39,0.16c8.06-0.52,13.37-1.36,20.55-2.05c1.18-0.11,2.95,0.11,3.54,0.23" transform="matrix(1,0,0,1,696,-4)" class="stroke_order_diagram--existing_path"></path><path id="pathSk2v596cn2wjw" kvg:type="㇐" d="M17.68,45.81c1.63,0.46,3.04,0.4,4.7,0.18c4.09-0.55,8.11-1.31,12.11-1.86c1.48-0.2,2.57-0.38,4.04-0.13" transform="matrix(1,0,0,1,696,-4)" class="stroke_order_diagram--existing_path"></path><path id="pathSk2v596cn2wjx" kvg:type="㇐" d="M17.8,58.83c1.18,0.36,2.86,0.16,4.08,0.06c3.69-0.31,8.51-1.33,12.37-1.9c1.26-0.19,2.82-0.5,4.08-0.27" transform="matrix(1,0,0,1,696,-4)" class="stroke_order_diagram--existing_path"></path><path id="pathSk2v596cn2wjy" kvg:type="㇑" d="M18.26,71.4c0.76,0.71,1.1,1.86,1.25,2.84c0.74,4.88,1.33,9.11,1.93,14.73c0.14,1.26,0.27,2.52,0.42,3.78" transform="matrix(1,0,0,1,696,-4)" class="stroke_order_diagram--existing_path"></path><path id="pathSk2v596cn2wjz" kvg:type="㇕b" d="M20.19,72.87c4.31-0.67,8.26-1.63,13.83-2.47c3.3-0.5,4.81-0.01,4.01,3.48c-1.02,4.48-1.92,8.81-2.98,14.33" transform="matrix(1,0,0,1,696,-4)" class="stroke_order_diagram--existing_path"></path><path id="pathSk2v596cn2wk0" kvg:type="㇐b" d="M22.92,90.8c4.39-0.44,5.9-0.81,10.88-1.39c1.12-0.13,2.45-0.28,3.68-0.17" transform="matrix(1,0,0,1,696,-4)" class="stroke_order_diagram--existing_path"></path><path id="kvg:08b72-s8" kvg:type="㇑a" d="M64.39,11.25c0.93,0.93,1.35,1.88,1.35,3.34c0,2.77-0.09,3.91-0.09,6.43" transform="matrix(1,0,0,1,696,-4)" class="stroke_order_diagram--current_path"></path><path id="pathSk2v596cn2wk2" kvg:type="㇑a" d="M64.39,11.25c0.93,0.93,1.35,1.88,1.35,3.34c0,2.77-0.09,3.91-0.09,6.43" transform="matrix(1,0,0,1,696,-4)" class="stroke_order_diagram--current_path"></path><circle cx="64.39" cy="11.25" r="8" class="stroke_order_diagram--path_start" transform="matrix(1,0,0,1,696,-4)"></circle><line x1="850" x2="850" y1="1" y2="99" class="stroke_order_diagram--guide_line"></line><line x1="899" x2="899" y1="1" y2="99" class="stroke_order_diagram--bounding_box"></line><path id="pathSk2v596cn2wk5" kvg:type="㇔" d="M23.88,14.5c2.76,1.46,7.12,5.98,7.81,8.25" transform="matrix(1,0,0,1,796,-4)" class="stroke_order_diagram--existing_path"></path><path id="pathSk2v596cn2wk6" kvg:type="㇐" d="M13.12,32.33c1.61,0.53,3.72,0.27,5.39,0.16c8.06-0.52,13.37-1.36,20.55-2.05c1.18-0.11,2.95,0.11,3.54,0.23" transform="matrix(1,0,0,1,796,-4)" class="stroke_order_diagram--existing_path"></path><path id="pathSk2v596cn2wk7" kvg:type="㇐" d="M17.68,45.81c1.63,0.46,3.04,0.4,4.7,0.18c4.09-0.55,8.11-1.31,12.11-1.86c1.48-0.2,2.57-0.38,4.04-0.13" transform="matrix(1,0,0,1,796,-4)" class="stroke_order_diagram--existing_path"></path><path id="pathSk2v596cn2wk8" kvg:type="㇐" d="M17.8,58.83c1.18,0.36,2.86,0.16,4.08,0.06c3.69-0.31,8.51-1.33,12.37-1.9c1.26-0.19,2.82-0.5,4.08-0.27" transform="matrix(1,0,0,1,796,-4)" class="stroke_order_diagram--existing_path"></path><path id="pathSk2v596cn2wk9" kvg:type="㇑" d="M18.26,71.4c0.76,0.71,1.1,1.86,1.25,2.84c0.74,4.88,1.33,9.11,1.93,14.73c0.14,1.26,0.27,2.52,0.42,3.78" transform="matrix(1,0,0,1,796,-4)" class="stroke_order_diagram--existing_path"></path><path id="pathSk2v596cn2wka" kvg:type="㇕b" d="M20.19,72.87c4.31-0.67,8.26-1.63,13.83-2.47c3.3-0.5,4.81-0.01,4.01,3.48c-1.02,4.48-1.92,8.81-2.98,14.33" transform="matrix(1,0,0,1,796,-4)" class="stroke_order_diagram--existing_path"></path><path id="pathSk2v596cn2wkb" kvg:type="㇐b" d="M22.92,90.8c4.39-0.44,5.9-0.81,10.88-1.39c1.12-0.13,2.45-0.28,3.68-0.17" transform="matrix(1,0,0,1,796,-4)" class="stroke_order_diagram--existing_path"></path><path id="pathSk2v596cn2wkc" kvg:type="㇑a" d="M64.39,11.25c0.93,0.93,1.35,1.88,1.35,3.34c0,2.77-0.09,3.91-0.09,6.43" transform="matrix(1,0,0,1,796,-4)" class="stroke_order_diagram--existing_path"></path><path id="kvg:08b72-s9" kvg:type="㇐" d="M46.12,23.85c2.32,0.46,4.79,0.22,7.15-0.07c8.31-1.01,21.49-2.78,30.49-3.48c2.18-0.17,4.62-0.42,6.63-0.03" transform="matrix(1,0,0,1,796,-4)" class="stroke_order_diagram--current_path"></path><path id="pathSk2v596cn2wke" kvg:type="㇐" d="M46.12,23.85c2.32,0.46,4.79,0.22,7.15-0.07c8.31-1.01,21.49-2.78,30.49-3.48c2.18-0.17,4.62-0.42,6.63-0.03" transform="matrix(1,0,0,1,796,-4)" class="stroke_order_diagram--current_path"></path><circle cx="46.12" cy="23.85" r="8" class="stroke_order_diagram--path_start" transform="matrix(1,0,0,1,796,-4)"></circle><line x1="950" x2="950" y1="1" y2="99" class="stroke_order_diagram--guide_line"></line><line x1="999" x2="999" y1="1" y2="99" class="stroke_order_diagram--bounding_box"></line><path id="pathSk2v596cn2wkh" kvg:type="㇔" d="M23.88,14.5c2.76,1.46,7.12,5.98,7.81,8.25" transform="matrix(1,0,0,1,896,-4)" class="stroke_order_diagram--existing_path"></path><path id="pathSk2v596cn2wki" kvg:type="㇐" d="M13.12,32.33c1.61,0.53,3.72,0.27,5.39,0.16c8.06-0.52,13.37-1.36,20.55-2.05c1.18-0.11,2.95,0.11,3.54,0.23" transform="matrix(1,0,0,1,896,-4)" class="stroke_order_diagram--existing_path"></path><path id="pathSk2v596cn2wkj" kvg:type="㇐" d="M17.68,45.81c1.63,0.46,3.04,0.4,4.7,0.18c4.09-0.55,8.11-1.31,12.11-1.86c1.48-0.2,2.57-0.38,4.04-0.13" transform="matrix(1,0,0,1,896,-4)" class="stroke_order_diagram--existing_path"></path><path id="pathSk2v596cn2wkk" kvg:type="㇐" d="M17.8,58.83c1.18,0.36,2.86,0.16,4.08,0.06c3.69-0.31,8.51-1.33,12.37-1.9c1.26-0.19,2.82-0.5,4.08-0.27" transform="matrix(1,0,0,1,896,-4)" class="stroke_order_diagram--existing_path"></path><path id="pathSk2v596cn2wkl" kvg:type="㇑" d="M18.26,71.4c0.76,0.71,1.1,1.86,1.25,2.84c0.74,4.88,1.33,9.11,1.93,14.73c0.14,1.26,0.27,2.52,0.42,3.78" transform="matrix(1,0,0,1,896,-4)" class="stroke_order_diagram--existing_path"></path><path id="pathSk2v596cn2wkm" kvg:type="㇕b" d="M20.19,72.87c4.31-0.67,8.26-1.63,13.83-2.47c3.3-0.5,4.81-0.01,4.01,3.48c-1.02,4.48-1.92,8.81-2.98,14.33" transform="matrix(1,0,0,1,896,-4)" class="stroke_order_diagram--existing_path"></path><path id="pathSk2v596cn2wkn" kvg:type="㇐b" d="M22.92,90.8c4.39-0.44,5.9-0.81,10.88-1.39c1.12-0.13,2.45-0.28,3.68-0.17" transform="matrix(1,0,0,1,896,-4)" class="stroke_order_diagram--existing_path"></path><path id="pathSk2v596cn2wko" kvg:type="㇑a" d="M64.39,11.25c0.93,0.93,1.35,1.88,1.35,3.34c0,2.77-0.09,3.91-0.09,6.43" transform="matrix(1,0,0,1,896,-4)" class="stroke_order_diagram--existing_path"></path><path id="pathSk2v596cn2wkp" kvg:type="㇐" d="M46.12,23.85c2.32,0.46,4.79,0.22,7.15-0.07c8.31-1.01,21.49-2.78,30.49-3.48c2.18-0.17,4.62-0.42,6.63-0.03" transform="matrix(1,0,0,1,896,-4)" class="stroke_order_diagram--existing_path"></path><path id="kvg:08b72-s10" kvg:type="㇒" d="M57.77,27.14c0.08,0.67-0.04,1.29-0.37,1.86c-1.22,2.52-4.97,6.87-10.1,10.21" transform="matrix(1,0,0,1,896,-4)" class="stroke_order_diagram--current_path"></path><path id="pathSk2v596cn2wkr" kvg:type="㇒" d="M57.77,27.14c0.08,0.67-0.04,1.29-0.37,1.86c-1.22,2.52-4.97,6.87-10.1,10.21" transform="matrix(1,0,0,1,896,-4)" class="stroke_order_diagram--current_path"></path><circle cx="57.77" cy="27.14" r="8" class="stroke_order_diagram--path_start" transform="matrix(1,0,0,1,896,-4)"></circle><line x1="1050" x2="1050" y1="1" y2="99" class="stroke_order_diagram--guide_line"></line><line x1="1099" x2="1099" y1="1" y2="99" class="stroke_order_diagram--bounding_box"></line><path id="pathSk2v596cn2wku" kvg:type="㇔" d="M23.88,14.5c2.76,1.46,7.12,5.98,7.81,8.25" transform="matrix(1,0,0,1,996,-4)" class="stroke_order_diagram--existing_path"></path><path id="pathSk2v596cn2wkv" kvg:type="㇐" d="M13.12,32.33c1.61,0.53,3.72,0.27,5.39,0.16c8.06-0.52,13.37-1.36,20.55-2.05c1.18-0.11,2.95,0.11,3.54,0.23" transform="matrix(1,0,0,1,996,-4)" class="stroke_order_diagram--existing_path"></path><path id="pathSk2v596cn2wkw" kvg:type="㇐" d="M17.68,45.81c1.63,0.46,3.04,0.4,4.7,0.18c4.09-0.55,8.11-1.31,12.11-1.86c1.48-0.2,2.57-0.38,4.04-0.13" transform="matrix(1,0,0,1,996,-4)" class="stroke_order_diagram--existing_path"></path><path id="pathSk2v596cn2wkx" kvg:type="㇐" d="M17.8,58.83c1.18,0.36,2.86,0.16,4.08,0.06c3.69-0.31,8.51-1.33,12.37-1.9c1.26-0.19,2.82-0.5,4.08-0.27" transform="matrix(1,0,0,1,996,-4)" class="stroke_order_diagram--existing_path"></path><path id="pathSk2v596cn2wky" kvg:type="㇑" d="M18.26,71.4c0.76,0.71,1.1,1.86,1.25,2.84c0.74,4.88,1.33,9.11,1.93,14.73c0.14,1.26,0.27,2.52,0.42,3.78" transform="matrix(1,0,0,1,996,-4)" class="stroke_order_diagram--existing_path"></path><path id="pathSk2v596cn2wkz" kvg:type="㇕b" d="M20.19,72.87c4.31-0.67,8.26-1.63,13.83-2.47c3.3-0.5,4.81-0.01,4.01,3.48c-1.02,4.48-1.92,8.81-2.98,14.33" transform="matrix(1,0,0,1,996,-4)" class="stroke_order_diagram--existing_path"></path><path id="pathSk2v596cn2wl0" kvg:type="㇐b" d="M22.92,90.8c4.39-0.44,5.9-0.81,10.88-1.39c1.12-0.13,2.45-0.28,3.68-0.17" transform="matrix(1,0,0,1,996,-4)" class="stroke_order_diagram--existing_path"></path><path id="pathSk2v596cn2wl1" kvg:type="㇑a" d="M64.39,11.25c0.93,0.93,1.35,1.88,1.35,3.34c0,2.77-0.09,3.91-0.09,6.43" transform="matrix(1,0,0,1,996,-4)" class="stroke_order_diagram--existing_path"></path><path id="pathSk2v596cn2wl2" kvg:type="㇐" d="M46.12,23.85c2.32,0.46,4.79,0.22,7.15-0.07c8.31-1.01,21.49-2.78,30.49-3.48c2.18-0.17,4.62-0.42,6.63-0.03" transform="matrix(1,0,0,1,996,-4)" class="stroke_order_diagram--existing_path"></path><path id="pathSk2v596cn2wl3" kvg:type="㇒" d="M57.77,27.14c0.08,0.67-0.04,1.29-0.37,1.86c-1.22,2.52-4.97,6.87-10.1,10.21" transform="matrix(1,0,0,1,996,-4)" class="stroke_order_diagram--existing_path"></path><path id="kvg:08b72-s11" kvg:type="㇔" d="M75.64,26.33c5,1.26,12.92,5.18,14.17,7.13" transform="matrix(1,0,0,1,996,-4)" class="stroke_order_diagram--current_path"></path><path id="pathSk2v596cn2wl5" kvg:type="㇔" d="M75.64,26.33c5,1.26,12.92,5.18,14.17,7.13" transform="matrix(1,0,0,1,996,-4)" class="stroke_order_diagram--current_path"></path><circle cx="75.64" cy="26.33" r="8" class="stroke_order_diagram--path_start" transform="matrix(1,0,0,1,996,-4)"></circle><line x1="1150" x2="1150" y1="1" y2="99" class="stroke_order_diagram--guide_line"></line><line x1="1199" x2="1199" y1="1" y2="99" class="stroke_order_diagram--bounding_box"></line><path id="pathSk2v596cn2wl8" kvg:type="㇔" d="M23.88,14.5c2.76,1.46,7.12,5.98,7.81,8.25" transform="matrix(1,0,0,1,1096,-4)" class="stroke_order_diagram--existing_path"></path><path id="pathSk2v596cn2wl9" kvg:type="㇐" d="M13.12,32.33c1.61,0.53,3.72,0.27,5.39,0.16c8.06-0.52,13.37-1.36,20.55-2.05c1.18-0.11,2.95,0.11,3.54,0.23" transform="matrix(1,0,0,1,1096,-4)" class="stroke_order_diagram--existing_path"></path><path id="pathSk2v596cn2wla" kvg:type="㇐" d="M17.68,45.81c1.63,0.46,3.04,0.4,4.7,0.18c4.09-0.55,8.11-1.31,12.11-1.86c1.48-0.2,2.57-0.38,4.04-0.13" transform="matrix(1,0,0,1,1096,-4)" class="stroke_order_diagram--existing_path"></path><path id="pathSk2v596cn2wlb" kvg:type="㇐" d="M17.8,58.83c1.18,0.36,2.86,0.16,4.08,0.06c3.69-0.31,8.51-1.33,12.37-1.9c1.26-0.19,2.82-0.5,4.08-0.27" transform="matrix(1,0,0,1,1096,-4)" class="stroke_order_diagram--existing_path"></path><path id="pathSk2v596cn2wlc" kvg:type="㇑" d="M18.26,71.4c0.76,0.71,1.1,1.86,1.25,2.84c0.74,4.88,1.33,9.11,1.93,14.73c0.14,1.26,0.27,2.52,0.42,3.78" transform="matrix(1,0,0,1,1096,-4)" class="stroke_order_diagram--existing_path"></path><path id="pathSk2v596cn2wld" kvg:type="㇕b" d="M20.19,72.87c4.31-0.67,8.26-1.63,13.83-2.47c3.3-0.5,4.81-0.01,4.01,3.48c-1.02,4.48-1.92,8.81-2.98,14.33" transform="matrix(1,0,0,1,1096,-4)" class="stroke_order_diagram--existing_path"></path><path id="pathSk2v596cn2wle" kvg:type="㇐b" d="M22.92,90.8c4.39-0.44,5.9-0.81,10.88-1.39c1.12-0.13,2.45-0.28,3.68-0.17" transform="matrix(1,0,0,1,1096,-4)" class="stroke_order_diagram--existing_path"></path><path id="pathSk2v596cn2wlf" kvg:type="㇑a" d="M64.39,11.25c0.93,0.93,1.35,1.88,1.35,3.34c0,2.77-0.09,3.91-0.09,6.43" transform="matrix(1,0,0,1,1096,-4)" class="stroke_order_diagram--existing_path"></path><path id="pathSk2v596cn2wlg" kvg:type="㇐" d="M46.12,23.85c2.32,0.46,4.79,0.22,7.15-0.07c8.31-1.01,21.49-2.78,30.49-3.48c2.18-0.17,4.62-0.42,6.63-0.03" transform="matrix(1,0,0,1,1096,-4)" class="stroke_order_diagram--existing_path"></path><path id="pathSk2v596cn2wlh" kvg:type="㇒" d="M57.77,27.14c0.08,0.67-0.04,1.29-0.37,1.86c-1.22,2.52-4.97,6.87-10.1,10.21" transform="matrix(1,0,0,1,1096,-4)" class="stroke_order_diagram--existing_path"></path><path id="pathSk2v596cn2wli" kvg:type="㇔" d="M75.64,26.33c5,1.26,12.92,5.18,14.17,7.13" transform="matrix(1,0,0,1,1096,-4)" class="stroke_order_diagram--existing_path"></path><path id="kvg:08b72-s12" kvg:type="㇐" d="M52.25,42.77c1.74,0.71,4.33,0.54,6.13,0.36c6.19-0.62,15.87-1.9,22.38-2.58c1.6-0.17,2.93-0.29,4.49,0.09" transform="matrix(1,0,0,1,1096,-4)" class="stroke_order_diagram--current_path"></path><path id="pathSk2v596cn2wlk" kvg:type="㇐" d="M52.25,42.77c1.74,0.71,4.33,0.54,6.13,0.36c6.19-0.62,15.87-1.9,22.38-2.58c1.6-0.17,2.93-0.29,4.49,0.09" transform="matrix(1,0,0,1,1096,-4)" class="stroke_order_diagram--current_path"></path><circle cx="52.25" cy="42.77" r="8" class="stroke_order_diagram--path_start" transform="matrix(1,0,0,1,1096,-4)"></circle><line x1="1250" x2="1250" y1="1" y2="99" class="stroke_order_diagram--guide_line"></line><line x1="1299" x2="1299" y1="1" y2="99" class="stroke_order_diagram--bounding_box"></line><path id="pathSk2v596cn2wln" kvg:type="㇔" d="M23.88,14.5c2.76,1.46,7.12,5.98,7.81,8.25" transform="matrix(1,0,0,1,1196,-4)" class="stroke_order_diagram--existing_path"></path><path id="pathSk2v596cn2wlo" kvg:type="㇐" d="M13.12,32.33c1.61,0.53,3.72,0.27,5.39,0.16c8.06-0.52,13.37-1.36,20.55-2.05c1.18-0.11,2.95,0.11,3.54,0.23" transform="matrix(1,0,0,1,1196,-4)" class="stroke_order_diagram--existing_path"></path><path id="pathSk2v596cn2wlp" kvg:type="㇐" d="M17.68,45.81c1.63,0.46,3.04,0.4,4.7,0.18c4.09-0.55,8.11-1.31,12.11-1.86c1.48-0.2,2.57-0.38,4.04-0.13" transform="matrix(1,0,0,1,1196,-4)" class="stroke_order_diagram--existing_path"></path><path id="pathSk2v596cn2wlq" kvg:type="㇐" d="M17.8,58.83c1.18,0.36,2.86,0.16,4.08,0.06c3.69-0.31,8.51-1.33,12.37-1.9c1.26-0.19,2.82-0.5,4.08-0.27" transform="matrix(1,0,0,1,1196,-4)" class="stroke_order_diagram--existing_path"></path><path id="pathSk2v596cn2wlr" kvg:type="㇑" d="M18.26,71.4c0.76,0.71,1.1,1.86,1.25,2.84c0.74,4.88,1.33,9.11,1.93,14.73c0.14,1.26,0.27,2.52,0.42,3.78" transform="matrix(1,0,0,1,1196,-4)" class="stroke_order_diagram--existing_path"></path><path id="pathSk2v596cn2wls" kvg:type="㇕b" d="M20.19,72.87c4.31-0.67,8.26-1.63,13.83-2.47c3.3-0.5,4.81-0.01,4.01,3.48c-1.02,4.48-1.92,8.81-2.98,14.33" transform="matrix(1,0,0,1,1196,-4)" class="stroke_order_diagram--existing_path"></path><path id="pathSk2v596cn2wlt" kvg:type="㇐b" d="M22.92,90.8c4.39-0.44,5.9-0.81,10.88-1.39c1.12-0.13,2.45-0.28,3.68-0.17" transform="matrix(1,0,0,1,1196,-4)" class="stroke_order_diagram--existing_path"></path><path id="pathSk2v596cn2wlu" kvg:type="㇑a" d="M64.39,11.25c0.93,0.93,1.35,1.88,1.35,3.34c0,2.77-0.09,3.91-0.09,6.43" transform="matrix(1,0,0,1,1196,-4)" class="stroke_order_diagram--existing_path"></path><path id="pathSk2v596cn2wlv" kvg:type="㇐" d="M46.12,23.85c2.32,0.46,4.79,0.22,7.15-0.07c8.31-1.01,21.49-2.78,30.49-3.48c2.18-0.17,4.62-0.42,6.63-0.03" transform="matrix(1,0,0,1,1196,-4)" class="stroke_order_diagram--existing_path"></path><path id="pathSk2v596cn2wlw" kvg:type="㇒" d="M57.77,27.14c0.08,0.67-0.04,1.29-0.37,1.86c-1.22,2.52-4.97,6.87-10.1,10.21" transform="matrix(1,0,0,1,1196,-4)" class="stroke_order_diagram--existing_path"></path><path id="pathSk2v596cn2wlx" kvg:type="㇔" d="M75.64,26.33c5,1.26,12.92,5.18,14.17,7.13" transform="matrix(1,0,0,1,1196,-4)" class="stroke_order_diagram--existing_path"></path><path id="pathSk2v596cn2wly" kvg:type="㇐" d="M52.25,42.77c1.74,0.71,4.33,0.54,6.13,0.36c6.19-0.62,15.87-1.9,22.38-2.58c1.6-0.17,2.93-0.29,4.49,0.09" transform="matrix(1,0,0,1,1196,-4)" class="stroke_order_diagram--existing_path"></path><path id="kvg:08b72-s13" kvg:type="㇑a" d="M59.37,37.5c0.94,0.94,1.21,2.38,1.21,4c0,5.25,0.03,13.5,0.03,20.75" transform="matrix(1,0,0,1,1196,-4)" class="stroke_order_diagram--current_path"></path><path id="pathSk2v596cn2wm0" kvg:type="㇑a" d="M59.37,37.5c0.94,0.94,1.21,2.38,1.21,4c0,5.25,0.03,13.5,0.03,20.75" transform="matrix(1,0,0,1,1196,-4)" class="stroke_order_diagram--current_path"></path><circle cx="59.37" cy="37.5" r="8" class="stroke_order_diagram--path_start" transform="matrix(1,0,0,1,1196,-4)"></circle><line x1="1350" x2="1350" y1="1" y2="99" class="stroke_order_diagram--guide_line"></line><line x1="1399" x2="1399" y1="1" y2="99" class="stroke_order_diagram--bounding_box"></line><path id="pathSk2v596cn2wm3" kvg:type="㇔" d="M23.88,14.5c2.76,1.46,7.12,5.98,7.81,8.25" transform="matrix(1,0,0,1,1296,-4)" class="stroke_order_diagram--existing_path"></path><path id="pathSk2v596cn2wm4" kvg:type="㇐" d="M13.12,32.33c1.61,0.53,3.72,0.27,5.39,0.16c8.06-0.52,13.37-1.36,20.55-2.05c1.18-0.11,2.95,0.11,3.54,0.23" transform="matrix(1,0,0,1,1296,-4)" class="stroke_order_diagram--existing_path"></path><path id="pathSk2v596cn2wm5" kvg:type="㇐" d="M17.68,45.81c1.63,0.46,3.04,0.4,4.7,0.18c4.09-0.55,8.11-1.31,12.11-1.86c1.48-0.2,2.57-0.38,4.04-0.13" transform="matrix(1,0,0,1,1296,-4)" class="stroke_order_diagram--existing_path"></path><path id="pathSk2v596cn2wm6" kvg:type="㇐" d="M17.8,58.83c1.18,0.36,2.86,0.16,4.08,0.06c3.69-0.31,8.51-1.33,12.37-1.9c1.26-0.19,2.82-0.5,4.08-0.27" transform="matrix(1,0,0,1,1296,-4)" class="stroke_order_diagram--existing_path"></path><path id="pathSk2v596cn2wm7" kvg:type="㇑" d="M18.26,71.4c0.76,0.71,1.1,1.86,1.25,2.84c0.74,4.88,1.33,9.11,1.93,14.73c0.14,1.26,0.27,2.52,0.42,3.78" transform="matrix(1,0,0,1,1296,-4)" class="stroke_order_diagram--existing_path"></path><path id="pathSk2v596cn2wm8" kvg:type="㇕b" d="M20.19,72.87c4.31-0.67,8.26-1.63,13.83-2.47c3.3-0.5,4.81-0.01,4.01,3.48c-1.02,4.48-1.92,8.81-2.98,14.33" transform="matrix(1,0,0,1,1296,-4)" class="stroke_order_diagram--existing_path"></path><path id="pathSk2v596cn2wm9" kvg:type="㇐b" d="M22.92,90.8c4.39-0.44,5.9-0.81,10.88-1.39c1.12-0.13,2.45-0.28,3.68-0.17" transform="matrix(1,0,0,1,1296,-4)" class="stroke_order_diagram--existing_path"></path><path id="pathSk2v596cn2wma" kvg:type="㇑a" d="M64.39,11.25c0.93,0.93,1.35,1.88,1.35,3.34c0,2.77-0.09,3.91-0.09,6.43" transform="matrix(1,0,0,1,1296,-4)" class="stroke_order_diagram--existing_path"></path><path id="pathSk2v596cn2wmb" kvg:type="㇐" d="M46.12,23.85c2.32,0.46,4.79,0.22,7.15-0.07c8.31-1.01,21.49-2.78,30.49-3.48c2.18-0.17,4.62-0.42,6.63-0.03" transform="matrix(1,0,0,1,1296,-4)" class="stroke_order_diagram--existing_path"></path><path id="pathSk2v596cn2wmc" kvg:type="㇒" d="M57.77,27.14c0.08,0.67-0.04,1.29-0.37,1.86c-1.22,2.52-4.97,6.87-10.1,10.21" transform="matrix(1,0,0,1,1296,-4)" class="stroke_order_diagram--existing_path"></path><path id="pathSk2v596cn2wmd" kvg:type="㇔" d="M75.64,26.33c5,1.26,12.92,5.18,14.17,7.13" transform="matrix(1,0,0,1,1296,-4)" class="stroke_order_diagram--existing_path"></path><path id="pathSk2v596cn2wme" kvg:type="㇐" d="M52.25,42.77c1.74,0.71,4.33,0.54,6.13,0.36c6.19-0.62,15.87-1.9,22.38-2.58c1.6-0.17,2.93-0.29,4.49,0.09" transform="matrix(1,0,0,1,1296,-4)" class="stroke_order_diagram--existing_path"></path><path id="pathSk2v596cn2wmf" kvg:type="㇑a" d="M59.37,37.5c0.94,0.94,1.21,2.38,1.21,4c0,5.25,0.03,13.5,0.03,20.75" transform="matrix(1,0,0,1,1296,-4)" class="stroke_order_diagram--existing_path"></path><path id="kvg:08b72-s14" kvg:type="㇑a" d="M75.87,33.25c0.88,1.5,1.13,2.47,0.96,4C76.12,43.62,75.75,54.12,75,61" transform="matrix(1,0,0,1,1296,-4)" class="stroke_order_diagram--current_path"></path><path id="pathSk2v596cn2wmh" kvg:type="㇑a" d="M75.87,33.25c0.88,1.5,1.13,2.47,0.96,4C76.12,43.62,75.75,54.12,75,61" transform="matrix(1,0,0,1,1296,-4)" class="stroke_order_diagram--current_path"></path><circle cx="75.87" cy="33.25" r="8" class="stroke_order_diagram--path_start" transform="matrix(1,0,0,1,1296,-4)"></circle><line x1="1450" x2="1450" y1="1" y2="99" class="stroke_order_diagram--guide_line"></line><line x1="1499" x2="1499" y1="1" y2="99" class="stroke_order_diagram--bounding_box"></line><path id="pathSk2v596cn2wmk" kvg:type="㇔" d="M23.88,14.5c2.76,1.46,7.12,5.98,7.81,8.25" transform="matrix(1,0,0,1,1396,-4)" class="stroke_order_diagram--existing_path"></path><path id="pathSk2v596cn2wml" kvg:type="㇐" d="M13.12,32.33c1.61,0.53,3.72,0.27,5.39,0.16c8.06-0.52,13.37-1.36,20.55-2.05c1.18-0.11,2.95,0.11,3.54,0.23" transform="matrix(1,0,0,1,1396,-4)" class="stroke_order_diagram--existing_path"></path><path id="pathSk2v596cn2wmm" kvg:type="㇐" d="M17.68,45.81c1.63,0.46,3.04,0.4,4.7,0.18c4.09-0.55,8.11-1.31,12.11-1.86c1.48-0.2,2.57-0.38,4.04-0.13" transform="matrix(1,0,0,1,1396,-4)" class="stroke_order_diagram--existing_path"></path><path id="pathSk2v596cn2wmn" kvg:type="㇐" d="M17.8,58.83c1.18,0.36,2.86,0.16,4.08,0.06c3.69-0.31,8.51-1.33,12.37-1.9c1.26-0.19,2.82-0.5,4.08-0.27" transform="matrix(1,0,0,1,1396,-4)" class="stroke_order_diagram--existing_path"></path><path id="pathSk2v596cn2wmo" kvg:type="㇑" d="M18.26,71.4c0.76,0.71,1.1,1.86,1.25,2.84c0.74,4.88,1.33,9.11,1.93,14.73c0.14,1.26,0.27,2.52,0.42,3.78" transform="matrix(1,0,0,1,1396,-4)" class="stroke_order_diagram--existing_path"></path><path id="pathSk2v596cn2wmp" kvg:type="㇕b" d="M20.19,72.87c4.31-0.67,8.26-1.63,13.83-2.47c3.3-0.5,4.81-0.01,4.01,3.48c-1.02,4.48-1.92,8.81-2.98,14.33" transform="matrix(1,0,0,1,1396,-4)" class="stroke_order_diagram--existing_path"></path><path id="pathSk2v596cn2wmq" kvg:type="㇐b" d="M22.92,90.8c4.39-0.44,5.9-0.81,10.88-1.39c1.12-0.13,2.45-0.28,3.68-0.17" transform="matrix(1,0,0,1,1396,-4)" class="stroke_order_diagram--existing_path"></path><path id="pathSk2v596cn2wmr" kvg:type="㇑a" d="M64.39,11.25c0.93,0.93,1.35,1.88,1.35,3.34c0,2.77-0.09,3.91-0.09,6.43" transform="matrix(1,0,0,1,1396,-4)" class="stroke_order_diagram--existing_path"></path><path id="pathSk2v596cn2wms" kvg:type="㇐" d="M46.12,23.85c2.32,0.46,4.79,0.22,7.15-0.07c8.31-1.01,21.49-2.78,30.49-3.48c2.18-0.17,4.62-0.42,6.63-0.03" transform="matrix(1,0,0,1,1396,-4)" class="stroke_order_diagram--existing_path"></path><path id="pathSk2v596cn2wmt" kvg:type="㇒" d="M57.77,27.14c0.08,0.67-0.04,1.29-0.37,1.86c-1.22,2.52-4.97,6.87-10.1,10.21" transform="matrix(1,0,0,1,1396,-4)" class="stroke_order_diagram--existing_path"></path><path id="pathSk2v596cn2wmu" kvg:type="㇔" d="M75.64,26.33c5,1.26,12.92,5.18,14.17,7.13" transform="matrix(1,0,0,1,1396,-4)" class="stroke_order_diagram--existing_path"></path><path id="pathSk2v596cn2wmv" kvg:type="㇐" d="M52.25,42.77c1.74,0.71,4.33,0.54,6.13,0.36c6.19-0.62,15.87-1.9,22.38-2.58c1.6-0.17,2.93-0.29,4.49,0.09" transform="matrix(1,0,0,1,1396,-4)" class="stroke_order_diagram--existing_path"></path><path id="pathSk2v596cn2wmw" kvg:type="㇑a" d="M59.37,37.5c0.94,0.94,1.21,2.38,1.21,4c0,5.25,0.03,13.5,0.03,20.75" transform="matrix(1,0,0,1,1396,-4)" class="stroke_order_diagram--existing_path"></path><path id="pathSk2v596cn2wmx" kvg:type="㇑a" d="M75.87,33.25c0.88,1.5,1.13,2.47,0.96,4C76.12,43.62,75.75,54.12,75,61" transform="matrix(1,0,0,1,1396,-4)" class="stroke_order_diagram--existing_path"></path><path id="kvg:08b72-s15" kvg:type="㇐" d="M50,53.27c1.95,0.79,4.35,0.54,6.38,0.35c6.88-0.64,20.03-2.12,26.99-2.85c1.46-0.15,2.7-0.23,4.12,0.12" transform="matrix(1,0,0,1,1396,-4)" class="stroke_order_diagram--current_path"></path><path id="pathSk2v596cn2wmz" kvg:type="㇐" d="M50,53.27c1.95,0.79,4.35,0.54,6.38,0.35c6.88-0.64,20.03-2.12,26.99-2.85c1.46-0.15,2.7-0.23,4.12,0.12" transform="matrix(1,0,0,1,1396,-4)" class="stroke_order_diagram--current_path"></path><circle cx="50" cy="53.27" r="8" class="stroke_order_diagram--path_start" transform="matrix(1,0,0,1,1396,-4)"></circle><line x1="1550" x2="1550" y1="1" y2="99" class="stroke_order_diagram--guide_line"></line><line x1="1599" x2="1599" y1="1" y2="99" class="stroke_order_diagram--bounding_box"></line><path id="pathSk2v596cn2wn2" kvg:type="㇔" d="M23.88,14.5c2.76,1.46,7.12,5.98,7.81,8.25" transform="matrix(1,0,0,1,1496,-4)" class="stroke_order_diagram--existing_path"></path><path id="pathSk2v596cn2wn3" kvg:type="㇐" d="M13.12,32.33c1.61,0.53,3.72,0.27,5.39,0.16c8.06-0.52,13.37-1.36,20.55-2.05c1.18-0.11,2.95,0.11,3.54,0.23" transform="matrix(1,0,0,1,1496,-4)" class="stroke_order_diagram--existing_path"></path><path id="pathSk2v596cn2wn4" kvg:type="㇐" d="M17.68,45.81c1.63,0.46,3.04,0.4,4.7,0.18c4.09-0.55,8.11-1.31,12.11-1.86c1.48-0.2,2.57-0.38,4.04-0.13" transform="matrix(1,0,0,1,1496,-4)" class="stroke_order_diagram--existing_path"></path><path id="pathSk2v596cn2wn5" kvg:type="㇐" d="M17.8,58.83c1.18,0.36,2.86,0.16,4.08,0.06c3.69-0.31,8.51-1.33,12.37-1.9c1.26-0.19,2.82-0.5,4.08-0.27" transform="matrix(1,0,0,1,1496,-4)" class="stroke_order_diagram--existing_path"></path><path id="pathSk2v596cn2wn6" kvg:type="㇑" d="M18.26,71.4c0.76,0.71,1.1,1.86,1.25,2.84c0.74,4.88,1.33,9.11,1.93,14.73c0.14,1.26,0.27,2.52,0.42,3.78" transform="matrix(1,0,0,1,1496,-4)" class="stroke_order_diagram--existing_path"></path><path id="pathSk2v596cn2wn7" kvg:type="㇕b" d="M20.19,72.87c4.31-0.67,8.26-1.63,13.83-2.47c3.3-0.5,4.81-0.01,4.01,3.48c-1.02,4.48-1.92,8.81-2.98,14.33" transform="matrix(1,0,0,1,1496,-4)" class="stroke_order_diagram--existing_path"></path><path id="pathSk2v596cn2wn8" kvg:type="㇐b" d="M22.92,90.8c4.39-0.44,5.9-0.81,10.88-1.39c1.12-0.13,2.45-0.28,3.68-0.17" transform="matrix(1,0,0,1,1496,-4)" class="stroke_order_diagram--existing_path"></path><path id="pathSk2v596cn2wn9" kvg:type="㇑a" d="M64.39,11.25c0.93,0.93,1.35,1.88,1.35,3.34c0,2.77-0.09,3.91-0.09,6.43" transform="matrix(1,0,0,1,1496,-4)" class="stroke_order_diagram--existing_path"></path><path id="pathSk2v596cn2wna" kvg:type="㇐" d="M46.12,23.85c2.32,0.46,4.79,0.22,7.15-0.07c8.31-1.01,21.49-2.78,30.49-3.48c2.18-0.17,4.62-0.42,6.63-0.03" transform="matrix(1,0,0,1,1496,-4)" class="stroke_order_diagram--existing_path"></path><path id="pathSk2v596cn2wnb" kvg:type="㇒" d="M57.77,27.14c0.08,0.67-0.04,1.29-0.37,1.86c-1.22,2.52-4.97,6.87-10.1,10.21" transform="matrix(1,0,0,1,1496,-4)" class="stroke_order_diagram--existing_path"></path><path id="pathSk2v596cn2wnc" kvg:type="㇔" d="M75.64,26.33c5,1.26,12.92,5.18,14.17,7.13" transform="matrix(1,0,0,1,1496,-4)" class="stroke_order_diagram--existing_path"></path><path id="pathSk2v596cn2wnd" kvg:type="㇐" d="M52.25,42.77c1.74,0.71,4.33,0.54,6.13,0.36c6.19-0.62,15.87-1.9,22.38-2.58c1.6-0.17,2.93-0.29,4.49,0.09" transform="matrix(1,0,0,1,1496,-4)" class="stroke_order_diagram--existing_path"></path><path id="pathSk2v596cn2wne" kvg:type="㇑a" d="M59.37,37.5c0.94,0.94,1.21,2.38,1.21,4c0,5.25,0.03,13.5,0.03,20.75" transform="matrix(1,0,0,1,1496,-4)" class="stroke_order_diagram--existing_path"></path><path id="pathSk2v596cn2wnf" kvg:type="㇑a" d="M75.87,33.25c0.88,1.5,1.13,2.47,0.96,4C76.12,43.62,75.75,54.12,75,61" transform="matrix(1,0,0,1,1496,-4)" class="stroke_order_diagram--existing_path"></path><path id="pathSk2v596cn2wng" kvg:type="㇐" d="M50,53.27c1.95,0.79,4.35,0.54,6.38,0.35c6.88-0.64,20.03-2.12,26.99-2.85c1.46-0.15,2.7-0.23,4.12,0.12" transform="matrix(1,0,0,1,1496,-4)" class="stroke_order_diagram--existing_path"></path><path id="kvg:08b72-s16" kvg:type="㇐" d="M45.25,63.89c2.62,0.61,4.87,0.33,7.01,0.17c9.19-0.69,28.53-2.69,36.36-3.12c2-0.11,4.16-0.16,6.13,0.32" transform="matrix(1,0,0,1,1496,-4)" class="stroke_order_diagram--current_path"></path><path id="pathSk2v596cn2wni" kvg:type="㇐" d="M45.25,63.89c2.62,0.61,4.87,0.33,7.01,0.17c9.19-0.69,28.53-2.69,36.36-3.12c2-0.11,4.16-0.16,6.13,0.32" transform="matrix(1,0,0,1,1496,-4)" class="stroke_order_diagram--current_path"></path><circle cx="45.25" cy="63.89" r="8" class="stroke_order_diagram--path_start" transform="matrix(1,0,0,1,1496,-4)"></circle><line x1="1650" x2="1650" y1="1" y2="99" class="stroke_order_diagram--guide_line"></line><line x1="1699" x2="1699" y1="1" y2="99" class="stroke_order_diagram--bounding_box"></line><path id="pathSk2v596cn2wnl" kvg:type="㇔" d="M23.88,14.5c2.76,1.46,7.12,5.98,7.81,8.25" transform="matrix(1,0,0,1,1596,-4)" class="stroke_order_diagram--existing_path"></path><path id="pathSk2v596cn2wnm" kvg:type="㇐" d="M13.12,32.33c1.61,0.53,3.72,0.27,5.39,0.16c8.06-0.52,13.37-1.36,20.55-2.05c1.18-0.11,2.95,0.11,3.54,0.23" transform="matrix(1,0,0,1,1596,-4)" class="stroke_order_diagram--existing_path"></path><path id="pathSk2v596cn2wnn" kvg:type="㇐" d="M17.68,45.81c1.63,0.46,3.04,0.4,4.7,0.18c4.09-0.55,8.11-1.31,12.11-1.86c1.48-0.2,2.57-0.38,4.04-0.13" transform="matrix(1,0,0,1,1596,-4)" class="stroke_order_diagram--existing_path"></path><path id="pathSk2v596cn2wno" kvg:type="㇐" d="M17.8,58.83c1.18,0.36,2.86,0.16,4.08,0.06c3.69-0.31,8.51-1.33,12.37-1.9c1.26-0.19,2.82-0.5,4.08-0.27" transform="matrix(1,0,0,1,1596,-4)" class="stroke_order_diagram--existing_path"></path><path id="pathSk2v596cn2wnp" kvg:type="㇑" d="M18.26,71.4c0.76,0.71,1.1,1.86,1.25,2.84c0.74,4.88,1.33,9.11,1.93,14.73c0.14,1.26,0.27,2.52,0.42,3.78" transform="matrix(1,0,0,1,1596,-4)" class="stroke_order_diagram--existing_path"></path><path id="pathSk2v596cn2wnq" kvg:type="㇕b" d="M20.19,72.87c4.31-0.67,8.26-1.63,13.83-2.47c3.3-0.5,4.81-0.01,4.01,3.48c-1.02,4.48-1.92,8.81-2.98,14.33" transform="matrix(1,0,0,1,1596,-4)" class="stroke_order_diagram--existing_path"></path><path id="pathSk2v596cn2wnr" kvg:type="㇐b" d="M22.92,90.8c4.39-0.44,5.9-0.81,10.88-1.39c1.12-0.13,2.45-0.28,3.68-0.17" transform="matrix(1,0,0,1,1596,-4)" class="stroke_order_diagram--existing_path"></path><path id="pathSk2v596cn2wns" kvg:type="㇑a" d="M64.39,11.25c0.93,0.93,1.35,1.88,1.35,3.34c0,2.77-0.09,3.91-0.09,6.43" transform="matrix(1,0,0,1,1596,-4)" class="stroke_order_diagram--existing_path"></path><path id="pathSk2v596cn2wnt" kvg:type="㇐" d="M46.12,23.85c2.32,0.46,4.79,0.22,7.15-0.07c8.31-1.01,21.49-2.78,30.49-3.48c2.18-0.17,4.62-0.42,6.63-0.03" transform="matrix(1,0,0,1,1596,-4)" class="stroke_order_diagram--existing_path"></path><path id="pathSk2v596cn2wnu" kvg:type="㇒" d="M57.77,27.14c0.08,0.67-0.04,1.29-0.37,1.86c-1.22,2.52-4.97,6.87-10.1,10.21" transform="matrix(1,0,0,1,1596,-4)" class="stroke_order_diagram--existing_path"></path><path id="pathSk2v596cn2wnv" kvg:type="㇔" d="M75.64,26.33c5,1.26,12.92,5.18,14.17,7.13" transform="matrix(1,0,0,1,1596,-4)" class="stroke_order_diagram--existing_path"></path><path id="pathSk2v596cn2wnw" kvg:type="㇐" d="M52.25,42.77c1.74,0.71,4.33,0.54,6.13,0.36c6.19-0.62,15.87-1.9,22.38-2.58c1.6-0.17,2.93-0.29,4.49,0.09" transform="matrix(1,0,0,1,1596,-4)" class="stroke_order_diagram--existing_path"></path><path id="pathSk2v596cn2wnx" kvg:type="㇑a" d="M59.37,37.5c0.94,0.94,1.21,2.38,1.21,4c0,5.25,0.03,13.5,0.03,20.75" transform="matrix(1,0,0,1,1596,-4)" class="stroke_order_diagram--existing_path"></path><path id="pathSk2v596cn2wny" kvg:type="㇑a" d="M75.87,33.25c0.88,1.5,1.13,2.47,0.96,4C76.12,43.62,75.75,54.12,75,61" transform="matrix(1,0,0,1,1596,-4)" class="stroke_order_diagram--existing_path"></path><path id="pathSk2v596cn2wnz" kvg:type="㇐" d="M50,53.27c1.95,0.79,4.35,0.54,6.38,0.35c6.88-0.64,20.03-2.12,26.99-2.85c1.46-0.15,2.7-0.23,4.12,0.12" transform="matrix(1,0,0,1,1596,-4)" class="stroke_order_diagram--existing_path"></path><path id="pathSk2v596cn2wo0" kvg:type="㇐" d="M45.25,63.89c2.62,0.61,4.87,0.33,7.01,0.17c9.19-0.69,28.53-2.69,36.36-3.12c2-0.11,4.16-0.16,6.13,0.32" transform="matrix(1,0,0,1,1596,-4)" class="stroke_order_diagram--existing_path"></path><path id="kvg:08b72-s17" kvg:type="㇒" d="M63.27,65.39c0.06,0.47,0,1.25-0.37,1.89c-2.36,4.11-7.78,9.97-20.15,17.58" transform="matrix(1,0,0,1,1596,-4)" class="stroke_order_diagram--current_path"></path><path id="pathSk2v596cn2wo2" kvg:type="㇒" d="M63.27,65.39c0.06,0.47,0,1.25-0.37,1.89c-2.36,4.11-7.78,9.97-20.15,17.58" transform="matrix(1,0,0,1,1596,-4)" class="stroke_order_diagram--current_path"></path><circle cx="63.27" cy="65.39" r="8" class="stroke_order_diagram--path_start" transform="matrix(1,0,0,1,1596,-4)"></circle><line x1="1750" x2="1750" y1="1" y2="99" class="stroke_order_diagram--guide_line"></line><line x1="1799" x2="1799" y1="1" y2="99" class="stroke_order_diagram--bounding_box"></line><path id="pathSk2v596cn2wo5" kvg:type="㇔" d="M23.88,14.5c2.76,1.46,7.12,5.98,7.81,8.25" transform="matrix(1,0,0,1,1696,-4)" class="stroke_order_diagram--existing_path"></path><path id="pathSk2v596cn2wo6" kvg:type="㇐" d="M13.12,32.33c1.61,0.53,3.72,0.27,5.39,0.16c8.06-0.52,13.37-1.36,20.55-2.05c1.18-0.11,2.95,0.11,3.54,0.23" transform="matrix(1,0,0,1,1696,-4)" class="stroke_order_diagram--existing_path"></path><path id="pathSk2v596cn2wo7" kvg:type="㇐" d="M17.68,45.81c1.63,0.46,3.04,0.4,4.7,0.18c4.09-0.55,8.11-1.31,12.11-1.86c1.48-0.2,2.57-0.38,4.04-0.13" transform="matrix(1,0,0,1,1696,-4)" class="stroke_order_diagram--existing_path"></path><path id="pathSk2v596cn2wo8" kvg:type="㇐" d="M17.8,58.83c1.18,0.36,2.86,0.16,4.08,0.06c3.69-0.31,8.51-1.33,12.37-1.9c1.26-0.19,2.82-0.5,4.08-0.27" transform="matrix(1,0,0,1,1696,-4)" class="stroke_order_diagram--existing_path"></path><path id="pathSk2v596cn2wo9" kvg:type="㇑" d="M18.26,71.4c0.76,0.71,1.1,1.86,1.25,2.84c0.74,4.88,1.33,9.11,1.93,14.73c0.14,1.26,0.27,2.52,0.42,3.78" transform="matrix(1,0,0,1,1696,-4)" class="stroke_order_diagram--existing_path"></path><path id="pathSk2v596cn2woa" kvg:type="㇕b" d="M20.19,72.87c4.31-0.67,8.26-1.63,13.83-2.47c3.3-0.5,4.81-0.01,4.01,3.48c-1.02,4.48-1.92,8.81-2.98,14.33" transform="matrix(1,0,0,1,1696,-4)" class="stroke_order_diagram--existing_path"></path><path id="pathSk2v596cn2wob" kvg:type="㇐b" d="M22.92,90.8c4.39-0.44,5.9-0.81,10.88-1.39c1.12-0.13,2.45-0.28,3.68-0.17" transform="matrix(1,0,0,1,1696,-4)" class="stroke_order_diagram--existing_path"></path><path id="pathSk2v596cn2woc" kvg:type="㇑a" d="M64.39,11.25c0.93,0.93,1.35,1.88,1.35,3.34c0,2.77-0.09,3.91-0.09,6.43" transform="matrix(1,0,0,1,1696,-4)" class="stroke_order_diagram--existing_path"></path><path id="pathSk2v596cn2wod" kvg:type="㇐" d="M46.12,23.85c2.32,0.46,4.79,0.22,7.15-0.07c8.31-1.01,21.49-2.78,30.49-3.48c2.18-0.17,4.62-0.42,6.63-0.03" transform="matrix(1,0,0,1,1696,-4)" class="stroke_order_diagram--existing_path"></path><path id="pathSk2v596cn2woe" kvg:type="㇒" d="M57.77,27.14c0.08,0.67-0.04,1.29-0.37,1.86c-1.22,2.52-4.97,6.87-10.1,10.21" transform="matrix(1,0,0,1,1696,-4)" class="stroke_order_diagram--existing_path"></path><path id="pathSk2v596cn2wof" kvg:type="㇔" d="M75.64,26.33c5,1.26,12.92,5.18,14.17,7.13" transform="matrix(1,0,0,1,1696,-4)" class="stroke_order_diagram--existing_path"></path><path id="pathSk2v596cn2wog" kvg:type="㇐" d="M52.25,42.77c1.74,0.71,4.33,0.54,6.13,0.36c6.19-0.62,15.87-1.9,22.38-2.58c1.6-0.17,2.93-0.29,4.49,0.09" transform="matrix(1,0,0,1,1696,-4)" class="stroke_order_diagram--existing_path"></path><path id="pathSk2v596cn2woh" kvg:type="㇑a" d="M59.37,37.5c0.94,0.94,1.21,2.38,1.21,4c0,5.25,0.03,13.5,0.03,20.75" transform="matrix(1,0,0,1,1696,-4)" class="stroke_order_diagram--existing_path"></path><path id="pathSk2v596cn2woi" kvg:type="㇑a" d="M75.87,33.25c0.88,1.5,1.13,2.47,0.96,4C76.12,43.62,75.75,54.12,75,61" transform="matrix(1,0,0,1,1696,-4)" class="stroke_order_diagram--existing_path"></path><path id="pathSk2v596cn2woj" kvg:type="㇐" d="M50,53.27c1.95,0.79,4.35,0.54,6.38,0.35c6.88-0.64,20.03-2.12,26.99-2.85c1.46-0.15,2.7-0.23,4.12,0.12" transform="matrix(1,0,0,1,1696,-4)" class="stroke_order_diagram--existing_path"></path><path id="pathSk2v596cn2wok" kvg:type="㇐" d="M45.25,63.89c2.62,0.61,4.87,0.33,7.01,0.17c9.19-0.69,28.53-2.69,36.36-3.12c2-0.11,4.16-0.16,6.13,0.32" transform="matrix(1,0,0,1,1696,-4)" class="stroke_order_diagram--existing_path"></path><path id="pathSk2v596cn2wol" kvg:type="㇒" d="M63.27,65.39c0.06,0.47,0,1.25-0.37,1.89c-2.36,4.11-7.78,9.97-20.15,17.58" transform="matrix(1,0,0,1,1696,-4)" class="stroke_order_diagram--existing_path"></path><path id="kvg:08b72-s18" kvg:type="㇙" d="M56.59,78.2c0.73,0.73,1.16,1.93,1.16,3.31c0,7.77,0.04,11.91,0.04,13.22s0.78,2.06,1.77,1.08c0.99-0.99,10.25-8.29,11.57-9.27" transform="matrix(1,0,0,1,1696,-4)" class="stroke_order_diagram--current_path"></path><path id="pathSk2v596cn2won" kvg:type="㇙" d="M56.59,78.2c0.73,0.73,1.16,1.93,1.16,3.31c0,7.77,0.04,11.91,0.04,13.22s0.78,2.06,1.77,1.08c0.99-0.99,10.25-8.29,11.57-9.27" transform="matrix(1,0,0,1,1696,-4)" class="stroke_order_diagram--current_path"></path><circle cx="56.59" cy="78.2" r="8" class="stroke_order_diagram--path_start" transform="matrix(1,0,0,1,1696,-4)"></circle><line x1="1850" x2="1850" y1="1" y2="99" class="stroke_order_diagram--guide_line"></line><line x1="1899" x2="1899" y1="1" y2="99" class="stroke_order_diagram--bounding_box"></line><path id="pathSk2v596cn2woq" kvg:type="㇔" d="M23.88,14.5c2.76,1.46,7.12,5.98,7.81,8.25" transform="matrix(1,0,0,1,1796,-4)" class="stroke_order_diagram--existing_path"></path><path id="pathSk2v596cn2wor" kvg:type="㇐" d="M13.12,32.33c1.61,0.53,3.72,0.27,5.39,0.16c8.06-0.52,13.37-1.36,20.55-2.05c1.18-0.11,2.95,0.11,3.54,0.23" transform="matrix(1,0,0,1,1796,-4)" class="stroke_order_diagram--existing_path"></path><path id="pathSk2v596cn2wos" kvg:type="㇐" d="M17.68,45.81c1.63,0.46,3.04,0.4,4.7,0.18c4.09-0.55,8.11-1.31,12.11-1.86c1.48-0.2,2.57-0.38,4.04-0.13" transform="matrix(1,0,0,1,1796,-4)" class="stroke_order_diagram--existing_path"></path><path id="pathSk2v596cn2wot" kvg:type="㇐" d="M17.8,58.83c1.18,0.36,2.86,0.16,4.08,0.06c3.69-0.31,8.51-1.33,12.37-1.9c1.26-0.19,2.82-0.5,4.08-0.27" transform="matrix(1,0,0,1,1796,-4)" class="stroke_order_diagram--existing_path"></path><path id="pathSk2v596cn2wou" kvg:type="㇑" d="M18.26,71.4c0.76,0.71,1.1,1.86,1.25,2.84c0.74,4.88,1.33,9.11,1.93,14.73c0.14,1.26,0.27,2.52,0.42,3.78" transform="matrix(1,0,0,1,1796,-4)" class="stroke_order_diagram--existing_path"></path><path id="pathSk2v596cn2wov" kvg:type="㇕b" d="M20.19,72.87c4.31-0.67,8.26-1.63,13.83-2.47c3.3-0.5,4.81-0.01,4.01,3.48c-1.02,4.48-1.92,8.81-2.98,14.33" transform="matrix(1,0,0,1,1796,-4)" class="stroke_order_diagram--existing_path"></path><path id="pathSk2v596cn2wow" kvg:type="㇐b" d="M22.92,90.8c4.39-0.44,5.9-0.81,10.88-1.39c1.12-0.13,2.45-0.28,3.68-0.17" transform="matrix(1,0,0,1,1796,-4)" class="stroke_order_diagram--existing_path"></path><path id="pathSk2v596cn2wox" kvg:type="㇑a" d="M64.39,11.25c0.93,0.93,1.35,1.88,1.35,3.34c0,2.77-0.09,3.91-0.09,6.43" transform="matrix(1,0,0,1,1796,-4)" class="stroke_order_diagram--existing_path"></path><path id="pathSk2v596cn2woy" kvg:type="㇐" d="M46.12,23.85c2.32,0.46,4.79,0.22,7.15-0.07c8.31-1.01,21.49-2.78,30.49-3.48c2.18-0.17,4.62-0.42,6.63-0.03" transform="matrix(1,0,0,1,1796,-4)" class="stroke_order_diagram--existing_path"></path><path id="pathSk2v596cn2woz" kvg:type="㇒" d="M57.77,27.14c0.08,0.67-0.04,1.29-0.37,1.86c-1.22,2.52-4.97,6.87-10.1,10.21" transform="matrix(1,0,0,1,1796,-4)" class="stroke_order_diagram--existing_path"></path><path id="pathSk2v596cn2wp0" kvg:type="㇔" d="M75.64,26.33c5,1.26,12.92,5.18,14.17,7.13" transform="matrix(1,0,0,1,1796,-4)" class="stroke_order_diagram--existing_path"></path><path id="pathSk2v596cn2wp1" kvg:type="㇐" d="M52.25,42.77c1.74,0.71,4.33,0.54,6.13,0.36c6.19-0.62,15.87-1.9,22.38-2.58c1.6-0.17,2.93-0.29,4.49,0.09" transform="matrix(1,0,0,1,1796,-4)" class="stroke_order_diagram--existing_path"></path><path id="pathSk2v596cn2wp2" kvg:type="㇑a" d="M59.37,37.5c0.94,0.94,1.21,2.38,1.21,4c0,5.25,0.03,13.5,0.03,20.75" transform="matrix(1,0,0,1,1796,-4)" class="stroke_order_diagram--existing_path"></path><path id="pathSk2v596cn2wp3" kvg:type="㇑a" d="M75.87,33.25c0.88,1.5,1.13,2.47,0.96,4C76.12,43.62,75.75,54.12,75,61" transform="matrix(1,0,0,1,1796,-4)" class="stroke_order_diagram--existing_path"></path><path id="pathSk2v596cn2wp4" kvg:type="㇐" d="M50,53.27c1.95,0.79,4.35,0.54,6.38,0.35c6.88-0.64,20.03-2.12,26.99-2.85c1.46-0.15,2.7-0.23,4.12,0.12" transform="matrix(1,0,0,1,1796,-4)" class="stroke_order_diagram--existing_path"></path><path id="pathSk2v596cn2wp5" kvg:type="㇐" d="M45.25,63.89c2.62,0.61,4.87,0.33,7.01,0.17c9.19-0.69,28.53-2.69,36.36-3.12c2-0.11,4.16-0.16,6.13,0.32" transform="matrix(1,0,0,1,1796,-4)" class="stroke_order_diagram--existing_path"></path><path id="pathSk2v596cn2wp6" kvg:type="㇒" d="M63.27,65.39c0.06,0.47,0,1.25-0.37,1.89c-2.36,4.11-7.78,9.97-20.15,17.58" transform="matrix(1,0,0,1,1796,-4)" class="stroke_order_diagram--existing_path"></path><path id="pathSk2v596cn2wp7" kvg:type="㇙" d="M56.59,78.2c0.73,0.73,1.16,1.93,1.16,3.31c0,7.77,0.04,11.91,0.04,13.22s0.78,2.06,1.77,1.08c0.99-0.99,10.25-8.29,11.57-9.27" transform="matrix(1,0,0,1,1796,-4)" class="stroke_order_diagram--existing_path"></path><path id="kvg:08b72-s19" kvg:type="㇒" d="M82.9,67.44c0.02,0.23-0.01,1.09-0.14,1.39c-0.86,1.87-3.32,4.78-7.72,8.49" transform="matrix(1,0,0,1,1796,-4)" class="stroke_order_diagram--current_path"></path><path id="pathSk2v596cn2wp9" kvg:type="㇒" d="M82.9,67.44c0.02,0.23-0.01,1.09-0.14,1.39c-0.86,1.87-3.32,4.78-7.72,8.49" transform="matrix(1,0,0,1,1796,-4)" class="stroke_order_diagram--current_path"></path><circle cx="82.9" cy="67.44" r="8" class="stroke_order_diagram--path_start" transform="matrix(1,0,0,1,1796,-4)"></circle><line x1="1950" x2="1950" y1="1" y2="99" class="stroke_order_diagram--guide_line"></line><line x1="1999" x2="1999" y1="1" y2="99" class="stroke_order_diagram--bounding_box"></line><path id="pathSk2v596cn2wpc" kvg:type="㇔" d="M23.88,14.5c2.76,1.46,7.12,5.98,7.81,8.25" transform="matrix(1,0,0,1,1896,-4)" class="stroke_order_diagram--existing_path"></path><path id="pathSk2v596cn2wpd" kvg:type="㇐" d="M13.12,32.33c1.61,0.53,3.72,0.27,5.39,0.16c8.06-0.52,13.37-1.36,20.55-2.05c1.18-0.11,2.95,0.11,3.54,0.23" transform="matrix(1,0,0,1,1896,-4)" class="stroke_order_diagram--existing_path"></path><path id="pathSk2v596cn2wpe" kvg:type="㇐" d="M17.68,45.81c1.63,0.46,3.04,0.4,4.7,0.18c4.09-0.55,8.11-1.31,12.11-1.86c1.48-0.2,2.57-0.38,4.04-0.13" transform="matrix(1,0,0,1,1896,-4)" class="stroke_order_diagram--existing_path"></path><path id="pathSk2v596cn2wpf" kvg:type="㇐" d="M17.8,58.83c1.18,0.36,2.86,0.16,4.08,0.06c3.69-0.31,8.51-1.33,12.37-1.9c1.26-0.19,2.82-0.5,4.08-0.27" transform="matrix(1,0,0,1,1896,-4)" class="stroke_order_diagram--existing_path"></path><path id="pathSk2v596cn2wpg" kvg:type="㇑" d="M18.26,71.4c0.76,0.71,1.1,1.86,1.25,2.84c0.74,4.88,1.33,9.11,1.93,14.73c0.14,1.26,0.27,2.52,0.42,3.78" transform="matrix(1,0,0,1,1896,-4)" class="stroke_order_diagram--existing_path"></path><path id="pathSk2v596cn2wph" kvg:type="㇕b" d="M20.19,72.87c4.31-0.67,8.26-1.63,13.83-2.47c3.3-0.5,4.81-0.01,4.01,3.48c-1.02,4.48-1.92,8.81-2.98,14.33" transform="matrix(1,0,0,1,1896,-4)" class="stroke_order_diagram--existing_path"></path><path id="pathSk2v596cn2wpi" kvg:type="㇐b" d="M22.92,90.8c4.39-0.44,5.9-0.81,10.88-1.39c1.12-0.13,2.45-0.28,3.68-0.17" transform="matrix(1,0,0,1,1896,-4)" class="stroke_order_diagram--existing_path"></path><path id="pathSk2v596cn2wpj" kvg:type="㇑a" d="M64.39,11.25c0.93,0.93,1.35,1.88,1.35,3.34c0,2.77-0.09,3.91-0.09,6.43" transform="matrix(1,0,0,1,1896,-4)" class="stroke_order_diagram--existing_path"></path><path id="pathSk2v596cn2wpk" kvg:type="㇐" d="M46.12,23.85c2.32,0.46,4.79,0.22,7.15-0.07c8.31-1.01,21.49-2.78,30.49-3.48c2.18-0.17,4.62-0.42,6.63-0.03" transform="matrix(1,0,0,1,1896,-4)" class="stroke_order_diagram--existing_path"></path><path id="pathSk2v596cn2wpl" kvg:type="㇒" d="M57.77,27.14c0.08,0.67-0.04,1.29-0.37,1.86c-1.22,2.52-4.97,6.87-10.1,10.21" transform="matrix(1,0,0,1,1896,-4)" class="stroke_order_diagram--existing_path"></path><path id="pathSk2v596cn2wpm" kvg:type="㇔" d="M75.64,26.33c5,1.26,12.92,5.18,14.17,7.13" transform="matrix(1,0,0,1,1896,-4)" class="stroke_order_diagram--existing_path"></path><path id="pathSk2v596cn2wpn" kvg:type="㇐" d="M52.25,42.77c1.74,0.71,4.33,0.54,6.13,0.36c6.19-0.62,15.87-1.9,22.38-2.58c1.6-0.17,2.93-0.29,4.49,0.09" transform="matrix(1,0,0,1,1896,-4)" class="stroke_order_diagram--existing_path"></path><path id="pathSk2v596cn2wpo" kvg:type="㇑a" d="M59.37,37.5c0.94,0.94,1.21,2.38,1.21,4c0,5.25,0.03,13.5,0.03,20.75" transform="matrix(1,0,0,1,1896,-4)" class="stroke_order_diagram--existing_path"></path><path id="pathSk2v596cn2wpp" kvg:type="㇑a" d="M75.87,33.25c0.88,1.5,1.13,2.47,0.96,4C76.12,43.62,75.75,54.12,75,61" transform="matrix(1,0,0,1,1896,-4)" class="stroke_order_diagram--existing_path"></path><path id="pathSk2v596cn2wpq" kvg:type="㇐" d="M50,53.27c1.95,0.79,4.35,0.54,6.38,0.35c6.88-0.64,20.03-2.12,26.99-2.85c1.46-0.15,2.7-0.23,4.12,0.12" transform="matrix(1,0,0,1,1896,-4)" class="stroke_order_diagram--existing_path"></path><path id="pathSk2v596cn2wpr" kvg:type="㇐" d="M45.25,63.89c2.62,0.61,4.87,0.33,7.01,0.17c9.19-0.69,28.53-2.69,36.36-3.12c2-0.11,4.16-0.16,6.13,0.32" transform="matrix(1,0,0,1,1896,-4)" class="stroke_order_diagram--existing_path"></path><path id="pathSk2v596cn2wps" kvg:type="㇒" d="M63.27,65.39c0.06,0.47,0,1.25-0.37,1.89c-2.36,4.11-7.78,9.97-20.15,17.58" transform="matrix(1,0,0,1,1896,-4)" class="stroke_order_diagram--existing_path"></path><path id="pathSk2v596cn2wpt" kvg:type="㇙" d="M56.59,78.2c0.73,0.73,1.16,1.93,1.16,3.31c0,7.77,0.04,11.91,0.04,13.22s0.78,2.06,1.77,1.08c0.99-0.99,10.25-8.29,11.57-9.27" transform="matrix(1,0,0,1,1896,-4)" class="stroke_order_diagram--existing_path"></path><path id="pathSk2v596cn2wpu" kvg:type="㇒" d="M82.9,67.44c0.02,0.23-0.01,1.09-0.14,1.39c-0.86,1.87-3.32,4.78-7.72,8.49" transform="matrix(1,0,0,1,1896,-4)" class="stroke_order_diagram--existing_path"></path><path id="kvg:08b72-s20" kvg:type="㇏" d="M68.5,73.25c1.16,0.66,13.05,11.44,19.32,16.68c2.01,1.68,3.3,2.94,6.48,4.23" transform="matrix(1,0,0,1,1896,-4)" class="stroke_order_diagram--current_path"></path><path id="pathSk2v596cn2wpw" kvg:type="㇏" d="M68.5,73.25c1.16,0.66,13.05,11.44,19.32,16.68c2.01,1.68,3.3,2.94,6.48,4.23" transform="matrix(1,0,0,1,1896,-4)" class="stroke_order_diagram--current_path"></path><circle cx="68.5" cy="73.25" r="8" class="stroke_order_diagram--path_start" transform="matrix(1,0,0,1,1896,-4)"></circle></svg>