<svg style="width: 1600px; height: 100px;" viewbox="0 0 1600 100"><style>
.stroke_order_diagram--outer_container {
  width: 100%;
  overflow-x: auto;
  overflow-y: hidden;
}

.stroke_order_diagram--guide_line {
  fill: none;
  stroke: #ddd;
  stroke-width: 3;
  stroke-linecap: square;
  stroke-linejoin: square;
  stroke-dasharray:8, 8;
}

.stroke_order_diagram--bounding_box {
  fill: none;
  stroke: #ddd;
  stroke-width: 4;
  stroke-linecap: square;
  stroke-linejoin: square;
}

.stroke_order_diagram--current_path {
  fill: none;
  stroke: #000;
  stroke-width: 6;
  stroke-linecap: round;
  stroke-linejoin: round;
}

.stroke_order_diagram--existing_path {
  fill: none;
  stroke: #aaa;
  stroke-width: 6;
  stroke-linecap: round;
  stroke-linejoin:round;
}

.stroke_order_diagram--path_start {
  fill: rgba(255, 0, 0, 0.7);
  stroke:none
}</style><desc>Created with Snap</desc><defs></defs><line x1="1" x2="1599" y1="1" y2="1" class="stroke_order_diagram--bounding_box"></line><line x1="1" x2="1" y1="1" y2="99" class="stroke_order_diagram--bounding_box"></line><line x1="1" x2="1599" y1="99" y2="99" class="stroke_order_diagram--bounding_box"></line><line x1="0" x2="1600" y1="50" y2="50" class="stroke_order_diagram--guide_line"></line><line x1="50" x2="50" y1="1" y2="99" class="stroke_order_diagram--guide_line"></line><line x1="99" x2="99" y1="1" y2="99" class="stroke_order_diagram--bounding_box"></line><path id="kvg:08ce2-s1" kvg:type="㇑" d="M23.54,15.08c0.69,0.69,0.9,1.54,0.9,2.58c0,4.97,0.03,20.05,0.03,28.58c0,1.89,0,3.9,0,4.82" transform="matrix(1,0,0,1,-4,-4)" class="stroke_order_diagram--current_path"></path><path id="pathSk2v596cn3qkt" kvg:type="㇑" d="M23.54,15.08c0.69,0.69,0.9,1.54,0.9,2.58c0,4.97,0.03,20.05,0.03,28.58c0,1.89,0,3.9,0,4.82" transform="matrix(1,0,0,1,-4,-4)" class="stroke_order_diagram--current_path"></path><circle cx="23.54" cy="15.08" r="8" class="stroke_order_diagram--path_start" transform="matrix(1,0,0,1,-4,-4)"></circle><line x1="150" x2="150" y1="1" y2="99" class="stroke_order_diagram--guide_line"></line><line x1="199" x2="199" y1="1" y2="99" class="stroke_order_diagram--bounding_box"></line><path id="pathSk2v596cn3qkw" kvg:type="㇑" d="M23.54,15.08c0.69,0.69,0.9,1.54,0.9,2.58c0,4.97,0.03,20.05,0.03,28.58c0,1.89,0,3.9,0,4.82" transform="matrix(1,0,0,1,96,-4)" class="stroke_order_diagram--existing_path"></path><path id="kvg:08ce2-s2" kvg:type="㇐b" d="M25.28,16.09c6.34-0.84,13.72-1.81,20.99-2.55c1.59-0.16,3.1-0.33,4.7-0.08" transform="matrix(1,0,0,1,96,-4)" class="stroke_order_diagram--current_path"></path><path id="pathSk2v596cn3qky" kvg:type="㇐b" d="M25.28,16.09c6.34-0.84,13.72-1.81,20.99-2.55c1.59-0.16,3.1-0.33,4.7-0.08" transform="matrix(1,0,0,1,96,-4)" class="stroke_order_diagram--current_path"></path><circle cx="25.28" cy="16.09" r="8" class="stroke_order_diagram--path_start" transform="matrix(1,0,0,1,96,-4)"></circle><line x1="250" x2="250" y1="1" y2="99" class="stroke_order_diagram--guide_line"></line><line x1="299" x2="299" y1="1" y2="99" class="stroke_order_diagram--bounding_box"></line><path id="pathSk2v596cn3ql1" kvg:type="㇑" d="M23.54,15.08c0.69,0.69,0.9,1.54,0.9,2.58c0,4.97,0.03,20.05,0.03,28.58c0,1.89,0,3.9,0,4.82" transform="matrix(1,0,0,1,196,-4)" class="stroke_order_diagram--existing_path"></path><path id="pathSk2v596cn3ql2" kvg:type="㇐b" d="M25.28,16.09c6.34-0.84,13.72-1.81,20.99-2.55c1.59-0.16,3.1-0.33,4.7-0.08" transform="matrix(1,0,0,1,196,-4)" class="stroke_order_diagram--existing_path"></path><path id="kvg:08ce2-s3" kvg:type="㇑a" d="M37.34,15.89c0.63,0.63,0.9,1.36,0.9,2.08c0,2.03-0.07,3.89-0.11,6.53" transform="matrix(1,0,0,1,196,-4)" class="stroke_order_diagram--current_path"></path><path id="pathSk2v596cn3ql4" kvg:type="㇑a" d="M37.34,15.89c0.63,0.63,0.9,1.36,0.9,2.08c0,2.03-0.07,3.89-0.11,6.53" transform="matrix(1,0,0,1,196,-4)" class="stroke_order_diagram--current_path"></path><circle cx="37.34" cy="15.89" r="8" class="stroke_order_diagram--path_start" transform="matrix(1,0,0,1,196,-4)"></circle><line x1="350" x2="350" y1="1" y2="99" class="stroke_order_diagram--guide_line"></line><line x1="399" x2="399" y1="1" y2="99" class="stroke_order_diagram--bounding_box"></line><path id="pathSk2v596cn3ql7" kvg:type="㇑" d="M23.54,15.08c0.69,0.69,0.9,1.54,0.9,2.58c0,4.97,0.03,20.05,0.03,28.58c0,1.89,0,3.9,0,4.82" transform="matrix(1,0,0,1,296,-4)" class="stroke_order_diagram--existing_path"></path><path id="pathSk2v596cn3ql8" kvg:type="㇐b" d="M25.28,16.09c6.34-0.84,13.72-1.81,20.99-2.55c1.59-0.16,3.1-0.33,4.7-0.08" transform="matrix(1,0,0,1,296,-4)" class="stroke_order_diagram--existing_path"></path><path id="pathSk2v596cn3ql9" kvg:type="㇑a" d="M37.34,15.89c0.63,0.63,0.9,1.36,0.9,2.08c0,2.03-0.07,3.89-0.11,6.53" transform="matrix(1,0,0,1,296,-4)" class="stroke_order_diagram--existing_path"></path><path id="kvg:08ce2-s4" kvg:type="㇕b" d="M25.66,27.47c7.01-1.06,15.05-2.29,20.36-3.06c2.37-0.34,4.25-0.5,3.56,2.36c-0.48,2-1.59,4.79-2.03,6.96" transform="matrix(1,0,0,1,296,-4)" class="stroke_order_diagram--current_path"></path><path id="pathSk2v596cn3qlb" kvg:type="㇕b" d="M25.66,27.47c7.01-1.06,15.05-2.29,20.36-3.06c2.37-0.34,4.25-0.5,3.56,2.36c-0.48,2-1.59,4.79-2.03,6.96" transform="matrix(1,0,0,1,296,-4)" class="stroke_order_diagram--current_path"></path><circle cx="25.66" cy="27.47" r="8" class="stroke_order_diagram--path_start" transform="matrix(1,0,0,1,296,-4)"></circle><line x1="450" x2="450" y1="1" y2="99" class="stroke_order_diagram--guide_line"></line><line x1="499" x2="499" y1="1" y2="99" class="stroke_order_diagram--bounding_box"></line><path id="pathSk2v596cn3qle" kvg:type="㇑" d="M23.54,15.08c0.69,0.69,0.9,1.54,0.9,2.58c0,4.97,0.03,20.05,0.03,28.58c0,1.89,0,3.9,0,4.82" transform="matrix(1,0,0,1,396,-4)" class="stroke_order_diagram--existing_path"></path><path id="pathSk2v596cn3qlf" kvg:type="㇐b" d="M25.28,16.09c6.34-0.84,13.72-1.81,20.99-2.55c1.59-0.16,3.1-0.33,4.7-0.08" transform="matrix(1,0,0,1,396,-4)" class="stroke_order_diagram--existing_path"></path><path id="pathSk2v596cn3qlg" kvg:type="㇑a" d="M37.34,15.89c0.63,0.63,0.9,1.36,0.9,2.08c0,2.03-0.07,3.89-0.11,6.53" transform="matrix(1,0,0,1,396,-4)" class="stroke_order_diagram--existing_path"></path><path id="pathSk2v596cn3qlh" kvg:type="㇕b" d="M25.66,27.47c7.01-1.06,15.05-2.29,20.36-3.06c2.37-0.34,4.25-0.5,3.56,2.36c-0.48,2-1.59,4.79-2.03,6.96" transform="matrix(1,0,0,1,396,-4)" class="stroke_order_diagram--existing_path"></path><path id="kvg:08ce2-s5" kvg:type="㇐b" d="M25.63,37.72c2.44-0.36,12.51-1.73,18.89-2.5c1.95-0.24,3.46-0.42,4.16-0.5" transform="matrix(1,0,0,1,396,-4)" class="stroke_order_diagram--current_path"></path><path id="pathSk2v596cn3qlj" kvg:type="㇐b" d="M25.63,37.72c2.44-0.36,12.51-1.73,18.89-2.5c1.95-0.24,3.46-0.42,4.16-0.5" transform="matrix(1,0,0,1,396,-4)" class="stroke_order_diagram--current_path"></path><circle cx="25.63" cy="37.72" r="8" class="stroke_order_diagram--path_start" transform="matrix(1,0,0,1,396,-4)"></circle><line x1="550" x2="550" y1="1" y2="99" class="stroke_order_diagram--guide_line"></line><line x1="599" x2="599" y1="1" y2="99" class="stroke_order_diagram--bounding_box"></line><path id="pathSk2v596cn3qlm" kvg:type="㇑" d="M23.54,15.08c0.69,0.69,0.9,1.54,0.9,2.58c0,4.97,0.03,20.05,0.03,28.58c0,1.89,0,3.9,0,4.82" transform="matrix(1,0,0,1,496,-4)" class="stroke_order_diagram--existing_path"></path><path id="pathSk2v596cn3qln" kvg:type="㇐b" d="M25.28,16.09c6.34-0.84,13.72-1.81,20.99-2.55c1.59-0.16,3.1-0.33,4.7-0.08" transform="matrix(1,0,0,1,496,-4)" class="stroke_order_diagram--existing_path"></path><path id="pathSk2v596cn3qlo" kvg:type="㇑a" d="M37.34,15.89c0.63,0.63,0.9,1.36,0.9,2.08c0,2.03-0.07,3.89-0.11,6.53" transform="matrix(1,0,0,1,496,-4)" class="stroke_order_diagram--existing_path"></path><path id="pathSk2v596cn3qlp" kvg:type="㇕b" d="M25.66,27.47c7.01-1.06,15.05-2.29,20.36-3.06c2.37-0.34,4.25-0.5,3.56,2.36c-0.48,2-1.59,4.79-2.03,6.96" transform="matrix(1,0,0,1,496,-4)" class="stroke_order_diagram--existing_path"></path><path id="pathSk2v596cn3qlq" kvg:type="㇐b" d="M25.63,37.72c2.44-0.36,12.51-1.73,18.89-2.5c1.95-0.24,3.46-0.42,4.16-0.5" transform="matrix(1,0,0,1,496,-4)" class="stroke_order_diagram--existing_path"></path><path id="kvg:08ce2-s6" kvg:type="㇑a" d="M37.8,36.86c0.6,0.6,0.65,1.39,0.65,2.33c0,1.43-0.07,2.99-0.07,6.06" transform="matrix(1,0,0,1,496,-4)" class="stroke_order_diagram--current_path"></path><path id="pathSk2v596cn3qls" kvg:type="㇑a" d="M37.8,36.86c0.6,0.6,0.65,1.39,0.65,2.33c0,1.43-0.07,2.99-0.07,6.06" transform="matrix(1,0,0,1,496,-4)" class="stroke_order_diagram--current_path"></path><circle cx="37.8" cy="36.86" r="8" class="stroke_order_diagram--path_start" transform="matrix(1,0,0,1,496,-4)"></circle><line x1="650" x2="650" y1="1" y2="99" class="stroke_order_diagram--guide_line"></line><line x1="699" x2="699" y1="1" y2="99" class="stroke_order_diagram--bounding_box"></line><path id="pathSk2v596cn3qlv" kvg:type="㇑" d="M23.54,15.08c0.69,0.69,0.9,1.54,0.9,2.58c0,4.97,0.03,20.05,0.03,28.58c0,1.89,0,3.9,0,4.82" transform="matrix(1,0,0,1,596,-4)" class="stroke_order_diagram--existing_path"></path><path id="pathSk2v596cn3qlw" kvg:type="㇐b" d="M25.28,16.09c6.34-0.84,13.72-1.81,20.99-2.55c1.59-0.16,3.1-0.33,4.7-0.08" transform="matrix(1,0,0,1,596,-4)" class="stroke_order_diagram--existing_path"></path><path id="pathSk2v596cn3qlx" kvg:type="㇑a" d="M37.34,15.89c0.63,0.63,0.9,1.36,0.9,2.08c0,2.03-0.07,3.89-0.11,6.53" transform="matrix(1,0,0,1,596,-4)" class="stroke_order_diagram--existing_path"></path><path id="pathSk2v596cn3qly" kvg:type="㇕b" d="M25.66,27.47c7.01-1.06,15.05-2.29,20.36-3.06c2.37-0.34,4.25-0.5,3.56,2.36c-0.48,2-1.59,4.79-2.03,6.96" transform="matrix(1,0,0,1,596,-4)" class="stroke_order_diagram--existing_path"></path><path id="pathSk2v596cn3qlz" kvg:type="㇐b" d="M25.63,37.72c2.44-0.36,12.51-1.73,18.89-2.5c1.95-0.24,3.46-0.42,4.16-0.5" transform="matrix(1,0,0,1,596,-4)" class="stroke_order_diagram--existing_path"></path><path id="pathSk2v596cn3qm0" kvg:type="㇑a" d="M37.8,36.86c0.6,0.6,0.65,1.39,0.65,2.33c0,1.43-0.07,2.99-0.07,6.06" transform="matrix(1,0,0,1,596,-4)" class="stroke_order_diagram--existing_path"></path><path id="kvg:08ce2-s7" kvg:type="㇐b" d="M25.63,48.26c2.85-0.42,11.74-1.64,18.88-2.44c1.51-0.17,3.26-0.58,4.77-0.35" transform="matrix(1,0,0,1,596,-4)" class="stroke_order_diagram--current_path"></path><path id="pathSk2v596cn3qm2" kvg:type="㇐b" d="M25.63,48.26c2.85-0.42,11.74-1.64,18.88-2.44c1.51-0.17,3.26-0.58,4.77-0.35" transform="matrix(1,0,0,1,596,-4)" class="stroke_order_diagram--current_path"></path><circle cx="25.63" cy="48.26" r="8" class="stroke_order_diagram--path_start" transform="matrix(1,0,0,1,596,-4)"></circle><line x1="750" x2="750" y1="1" y2="99" class="stroke_order_diagram--guide_line"></line><line x1="799" x2="799" y1="1" y2="99" class="stroke_order_diagram--bounding_box"></line><path id="pathSk2v596cn3qm5" kvg:type="㇑" d="M23.54,15.08c0.69,0.69,0.9,1.54,0.9,2.58c0,4.97,0.03,20.05,0.03,28.58c0,1.89,0,3.9,0,4.82" transform="matrix(1,0,0,1,696,-4)" class="stroke_order_diagram--existing_path"></path><path id="pathSk2v596cn3qm6" kvg:type="㇐b" d="M25.28,16.09c6.34-0.84,13.72-1.81,20.99-2.55c1.59-0.16,3.1-0.33,4.7-0.08" transform="matrix(1,0,0,1,696,-4)" class="stroke_order_diagram--existing_path"></path><path id="pathSk2v596cn3qm7" kvg:type="㇑a" d="M37.34,15.89c0.63,0.63,0.9,1.36,0.9,2.08c0,2.03-0.07,3.89-0.11,6.53" transform="matrix(1,0,0,1,696,-4)" class="stroke_order_diagram--existing_path"></path><path id="pathSk2v596cn3qm8" kvg:type="㇕b" d="M25.66,27.47c7.01-1.06,15.05-2.29,20.36-3.06c2.37-0.34,4.25-0.5,3.56,2.36c-0.48,2-1.59,4.79-2.03,6.96" transform="matrix(1,0,0,1,696,-4)" class="stroke_order_diagram--existing_path"></path><path id="pathSk2v596cn3qm9" kvg:type="㇐b" d="M25.63,37.72c2.44-0.36,12.51-1.73,18.89-2.5c1.95-0.24,3.46-0.42,4.16-0.5" transform="matrix(1,0,0,1,696,-4)" class="stroke_order_diagram--existing_path"></path><path id="pathSk2v596cn3qma" kvg:type="㇑a" d="M37.8,36.86c0.6,0.6,0.65,1.39,0.65,2.33c0,1.43-0.07,2.99-0.07,6.06" transform="matrix(1,0,0,1,696,-4)" class="stroke_order_diagram--existing_path"></path><path id="pathSk2v596cn3qmb" kvg:type="㇐b" d="M25.63,48.26c2.85-0.42,11.74-1.64,18.88-2.44c1.51-0.17,3.26-0.58,4.77-0.35" transform="matrix(1,0,0,1,696,-4)" class="stroke_order_diagram--existing_path"></path><path id="kvg:08ce2-s8" kvg:type="㇇" d="M58.83,16.69c1.96,0.44,3.94,0.28,5.92-0.15c3.98-0.86,10.42-2.52,13.38-3.25c2.31-0.58,4.32,0.75,3.12,3.27c-5.5,11.56-13.87,21.69-24.75,27.91" transform="matrix(1,0,0,1,696,-4)" class="stroke_order_diagram--current_path"></path><path id="pathSk2v596cn3qmd" kvg:type="㇇" d="M58.83,16.69c1.96,0.44,3.94,0.28,5.92-0.15c3.98-0.86,10.42-2.52,13.38-3.25c2.31-0.58,4.32,0.75,3.12,3.27c-5.5,11.56-13.87,21.69-24.75,27.91" transform="matrix(1,0,0,1,696,-4)" class="stroke_order_diagram--current_path"></path><circle cx="58.83" cy="16.69" r="8" class="stroke_order_diagram--path_start" transform="matrix(1,0,0,1,696,-4)"></circle><line x1="850" x2="850" y1="1" y2="99" class="stroke_order_diagram--guide_line"></line><line x1="899" x2="899" y1="1" y2="99" class="stroke_order_diagram--bounding_box"></line><path id="pathSk2v596cn3qmg" kvg:type="㇑" d="M23.54,15.08c0.69,0.69,0.9,1.54,0.9,2.58c0,4.97,0.03,20.05,0.03,28.58c0,1.89,0,3.9,0,4.82" transform="matrix(1,0,0,1,796,-4)" class="stroke_order_diagram--existing_path"></path><path id="pathSk2v596cn3qmh" kvg:type="㇐b" d="M25.28,16.09c6.34-0.84,13.72-1.81,20.99-2.55c1.59-0.16,3.1-0.33,4.7-0.08" transform="matrix(1,0,0,1,796,-4)" class="stroke_order_diagram--existing_path"></path><path id="pathSk2v596cn3qmi" kvg:type="㇑a" d="M37.34,15.89c0.63,0.63,0.9,1.36,0.9,2.08c0,2.03-0.07,3.89-0.11,6.53" transform="matrix(1,0,0,1,796,-4)" class="stroke_order_diagram--existing_path"></path><path id="pathSk2v596cn3qmj" kvg:type="㇕b" d="M25.66,27.47c7.01-1.06,15.05-2.29,20.36-3.06c2.37-0.34,4.25-0.5,3.56,2.36c-0.48,2-1.59,4.79-2.03,6.96" transform="matrix(1,0,0,1,796,-4)" class="stroke_order_diagram--existing_path"></path><path id="pathSk2v596cn3qmk" kvg:type="㇐b" d="M25.63,37.72c2.44-0.36,12.51-1.73,18.89-2.5c1.95-0.24,3.46-0.42,4.16-0.5" transform="matrix(1,0,0,1,796,-4)" class="stroke_order_diagram--existing_path"></path><path id="pathSk2v596cn3qml" kvg:type="㇑a" d="M37.8,36.86c0.6,0.6,0.65,1.39,0.65,2.33c0,1.43-0.07,2.99-0.07,6.06" transform="matrix(1,0,0,1,796,-4)" class="stroke_order_diagram--existing_path"></path><path id="pathSk2v596cn3qmm" kvg:type="㇐b" d="M25.63,48.26c2.85-0.42,11.74-1.64,18.88-2.44c1.51-0.17,3.26-0.58,4.77-0.35" transform="matrix(1,0,0,1,796,-4)" class="stroke_order_diagram--existing_path"></path><path id="pathSk2v596cn3qmn" kvg:type="㇇" d="M58.83,16.69c1.96,0.44,3.94,0.28,5.92-0.15c3.98-0.86,10.42-2.52,13.38-3.25c2.31-0.58,4.32,0.75,3.12,3.27c-5.5,11.56-13.87,21.69-24.75,27.91" transform="matrix(1,0,0,1,796,-4)" class="stroke_order_diagram--existing_path"></path><path id="kvg:08ce2-s9" kvg:type="㇏" d="M57.52,23.04C60.47,23.56,72.25,35,82.55,42.62c2.07,1.53,3.92,2.74,6.2,3.9" transform="matrix(1,0,0,1,796,-4)" class="stroke_order_diagram--current_path"></path><path id="pathSk2v596cn3qmp" kvg:type="㇏" d="M57.52,23.04C60.47,23.56,72.25,35,82.55,42.62c2.07,1.53,3.92,2.74,6.2,3.9" transform="matrix(1,0,0,1,796,-4)" class="stroke_order_diagram--current_path"></path><circle cx="57.52" cy="23.04" r="8" class="stroke_order_diagram--path_start" transform="matrix(1,0,0,1,796,-4)"></circle><line x1="950" x2="950" y1="1" y2="99" class="stroke_order_diagram--guide_line"></line><line x1="999" x2="999" y1="1" y2="99" class="stroke_order_diagram--bounding_box"></line><path id="pathSk2v596cn3qms" kvg:type="㇑" d="M23.54,15.08c0.69,0.69,0.9,1.54,0.9,2.58c0,4.97,0.03,20.05,0.03,28.58c0,1.89,0,3.9,0,4.82" transform="matrix(1,0,0,1,896,-4)" class="stroke_order_diagram--existing_path"></path><path id="pathSk2v596cn3qmt" kvg:type="㇐b" d="M25.28,16.09c6.34-0.84,13.72-1.81,20.99-2.55c1.59-0.16,3.1-0.33,4.7-0.08" transform="matrix(1,0,0,1,896,-4)" class="stroke_order_diagram--existing_path"></path><path id="pathSk2v596cn3qmu" kvg:type="㇑a" d="M37.34,15.89c0.63,0.63,0.9,1.36,0.9,2.08c0,2.03-0.07,3.89-0.11,6.53" transform="matrix(1,0,0,1,896,-4)" class="stroke_order_diagram--existing_path"></path><path id="pathSk2v596cn3qmv" kvg:type="㇕b" d="M25.66,27.47c7.01-1.06,15.05-2.29,20.36-3.06c2.37-0.34,4.25-0.5,3.56,2.36c-0.48,2-1.59,4.79-2.03,6.96" transform="matrix(1,0,0,1,896,-4)" class="stroke_order_diagram--existing_path"></path><path id="pathSk2v596cn3qmw" kvg:type="㇐b" d="M25.63,37.72c2.44-0.36,12.51-1.73,18.89-2.5c1.95-0.24,3.46-0.42,4.16-0.5" transform="matrix(1,0,0,1,896,-4)" class="stroke_order_diagram--existing_path"></path><path id="pathSk2v596cn3qmx" kvg:type="㇑a" d="M37.8,36.86c0.6,0.6,0.65,1.39,0.65,2.33c0,1.43-0.07,2.99-0.07,6.06" transform="matrix(1,0,0,1,896,-4)" class="stroke_order_diagram--existing_path"></path><path id="pathSk2v596cn3qmy" kvg:type="㇐b" d="M25.63,48.26c2.85-0.42,11.74-1.64,18.88-2.44c1.51-0.17,3.26-0.58,4.77-0.35" transform="matrix(1,0,0,1,896,-4)" class="stroke_order_diagram--existing_path"></path><path id="pathSk2v596cn3qmz" kvg:type="㇇" d="M58.83,16.69c1.96,0.44,3.94,0.28,5.92-0.15c3.98-0.86,10.42-2.52,13.38-3.25c2.31-0.58,4.32,0.75,3.12,3.27c-5.5,11.56-13.87,21.69-24.75,27.91" transform="matrix(1,0,0,1,896,-4)" class="stroke_order_diagram--existing_path"></path><path id="pathSk2v596cn3qn0" kvg:type="㇏" d="M57.52,23.04C60.47,23.56,72.25,35,82.55,42.62c2.07,1.53,3.92,2.74,6.2,3.9" transform="matrix(1,0,0,1,896,-4)" class="stroke_order_diagram--existing_path"></path><path id="kvg:08ce2-s10" kvg:type="㇑" d="M37.34,51.85c0.78,0.78,1.08,1.85,1.08,2.88c0,3.38-0.07,16.96-0.1,25.02c-0.01,2.42-0.02,4.33-0.02,5.33" transform="matrix(1,0,0,1,896,-4)" class="stroke_order_diagram--current_path"></path><path id="pathSk2v596cn3qn2" kvg:type="㇑" d="M37.34,51.85c0.78,0.78,1.08,1.85,1.08,2.88c0,3.38-0.07,16.96-0.1,25.02c-0.01,2.42-0.02,4.33-0.02,5.33" transform="matrix(1,0,0,1,896,-4)" class="stroke_order_diagram--current_path"></path><circle cx="37.34" cy="51.85" r="8" class="stroke_order_diagram--path_start" transform="matrix(1,0,0,1,896,-4)"></circle><line x1="1050" x2="1050" y1="1" y2="99" class="stroke_order_diagram--guide_line"></line><line x1="1099" x2="1099" y1="1" y2="99" class="stroke_order_diagram--bounding_box"></line><path id="pathSk2v596cn3qn5" kvg:type="㇑" d="M23.54,15.08c0.69,0.69,0.9,1.54,0.9,2.58c0,4.97,0.03,20.05,0.03,28.58c0,1.89,0,3.9,0,4.82" transform="matrix(1,0,0,1,996,-4)" class="stroke_order_diagram--existing_path"></path><path id="pathSk2v596cn3qn6" kvg:type="㇐b" d="M25.28,16.09c6.34-0.84,13.72-1.81,20.99-2.55c1.59-0.16,3.1-0.33,4.7-0.08" transform="matrix(1,0,0,1,996,-4)" class="stroke_order_diagram--existing_path"></path><path id="pathSk2v596cn3qn7" kvg:type="㇑a" d="M37.34,15.89c0.63,0.63,0.9,1.36,0.9,2.08c0,2.03-0.07,3.89-0.11,6.53" transform="matrix(1,0,0,1,996,-4)" class="stroke_order_diagram--existing_path"></path><path id="pathSk2v596cn3qn8" kvg:type="㇕b" d="M25.66,27.47c7.01-1.06,15.05-2.29,20.36-3.06c2.37-0.34,4.25-0.5,3.56,2.36c-0.48,2-1.59,4.79-2.03,6.96" transform="matrix(1,0,0,1,996,-4)" class="stroke_order_diagram--existing_path"></path><path id="pathSk2v596cn3qn9" kvg:type="㇐b" d="M25.63,37.72c2.44-0.36,12.51-1.73,18.89-2.5c1.95-0.24,3.46-0.42,4.16-0.5" transform="matrix(1,0,0,1,996,-4)" class="stroke_order_diagram--existing_path"></path><path id="pathSk2v596cn3qna" kvg:type="㇑a" d="M37.8,36.86c0.6,0.6,0.65,1.39,0.65,2.33c0,1.43-0.07,2.99-0.07,6.06" transform="matrix(1,0,0,1,996,-4)" class="stroke_order_diagram--existing_path"></path><path id="pathSk2v596cn3qnb" kvg:type="㇐b" d="M25.63,48.26c2.85-0.42,11.74-1.64,18.88-2.44c1.51-0.17,3.26-0.58,4.77-0.35" transform="matrix(1,0,0,1,996,-4)" class="stroke_order_diagram--existing_path"></path><path id="pathSk2v596cn3qnc" kvg:type="㇇" d="M58.83,16.69c1.96,0.44,3.94,0.28,5.92-0.15c3.98-0.86,10.42-2.52,13.38-3.25c2.31-0.58,4.32,0.75,3.12,3.27c-5.5,11.56-13.87,21.69-24.75,27.91" transform="matrix(1,0,0,1,996,-4)" class="stroke_order_diagram--existing_path"></path><path id="pathSk2v596cn3qnd" kvg:type="㇏" d="M57.52,23.04C60.47,23.56,72.25,35,82.55,42.62c2.07,1.53,3.92,2.74,6.2,3.9" transform="matrix(1,0,0,1,996,-4)" class="stroke_order_diagram--existing_path"></path><path id="pathSk2v596cn3qne" kvg:type="㇑" d="M37.34,51.85c0.78,0.78,1.08,1.85,1.08,2.88c0,3.38-0.07,16.96-0.1,25.02c-0.01,2.42-0.02,4.33-0.02,5.33" transform="matrix(1,0,0,1,996,-4)" class="stroke_order_diagram--existing_path"></path><path id="kvg:08ce2-s11" kvg:type="㇕a" d="M39.32,53.17c4.93-0.67,25.36-3.03,28.15-3.18c2.32-0.13,3.96,1.01,3.96,3.18c0,2.77-0.01,15.96-0.04,23.82c-0.01,3.04-0.01,5.17-0.01,5.39" transform="matrix(1,0,0,1,996,-4)" class="stroke_order_diagram--current_path"></path><path id="pathSk2v596cn3qng" kvg:type="㇕a" d="M39.32,53.17c4.93-0.67,25.36-3.03,28.15-3.18c2.32-0.13,3.96,1.01,3.96,3.18c0,2.77-0.01,15.96-0.04,23.82c-0.01,3.04-0.01,5.17-0.01,5.39" transform="matrix(1,0,0,1,996,-4)" class="stroke_order_diagram--current_path"></path><circle cx="39.32" cy="53.17" r="8" class="stroke_order_diagram--path_start" transform="matrix(1,0,0,1,996,-4)"></circle><line x1="1150" x2="1150" y1="1" y2="99" class="stroke_order_diagram--guide_line"></line><line x1="1199" x2="1199" y1="1" y2="99" class="stroke_order_diagram--bounding_box"></line><path id="pathSk2v596cn3qnj" kvg:type="㇑" d="M23.54,15.08c0.69,0.69,0.9,1.54,0.9,2.58c0,4.97,0.03,20.05,0.03,28.58c0,1.89,0,3.9,0,4.82" transform="matrix(1,0,0,1,1096,-4)" class="stroke_order_diagram--existing_path"></path><path id="pathSk2v596cn3qnk" kvg:type="㇐b" d="M25.28,16.09c6.34-0.84,13.72-1.81,20.99-2.55c1.59-0.16,3.1-0.33,4.7-0.08" transform="matrix(1,0,0,1,1096,-4)" class="stroke_order_diagram--existing_path"></path><path id="pathSk2v596cn3qnl" kvg:type="㇑a" d="M37.34,15.89c0.63,0.63,0.9,1.36,0.9,2.08c0,2.03-0.07,3.89-0.11,6.53" transform="matrix(1,0,0,1,1096,-4)" class="stroke_order_diagram--existing_path"></path><path id="pathSk2v596cn3qnm" kvg:type="㇕b" d="M25.66,27.47c7.01-1.06,15.05-2.29,20.36-3.06c2.37-0.34,4.25-0.5,3.56,2.36c-0.48,2-1.59,4.79-2.03,6.96" transform="matrix(1,0,0,1,1096,-4)" class="stroke_order_diagram--existing_path"></path><path id="pathSk2v596cn3qnn" kvg:type="㇐b" d="M25.63,37.72c2.44-0.36,12.51-1.73,18.89-2.5c1.95-0.24,3.46-0.42,4.16-0.5" transform="matrix(1,0,0,1,1096,-4)" class="stroke_order_diagram--existing_path"></path><path id="pathSk2v596cn3qno" kvg:type="㇑a" d="M37.8,36.86c0.6,0.6,0.65,1.39,0.65,2.33c0,1.43-0.07,2.99-0.07,6.06" transform="matrix(1,0,0,1,1096,-4)" class="stroke_order_diagram--existing_path"></path><path id="pathSk2v596cn3qnp" kvg:type="㇐b" d="M25.63,48.26c2.85-0.42,11.74-1.64,18.88-2.44c1.51-0.17,3.26-0.58,4.77-0.35" transform="matrix(1,0,0,1,1096,-4)" class="stroke_order_diagram--existing_path"></path><path id="pathSk2v596cn3qnq" kvg:type="㇇" d="M58.83,16.69c1.96,0.44,3.94,0.28,5.92-0.15c3.98-0.86,10.42-2.52,13.38-3.25c2.31-0.58,4.32,0.75,3.12,3.27c-5.5,11.56-13.87,21.69-24.75,27.91" transform="matrix(1,0,0,1,1096,-4)" class="stroke_order_diagram--existing_path"></path><path id="pathSk2v596cn3qnr" kvg:type="㇏" d="M57.52,23.04C60.47,23.56,72.25,35,82.55,42.62c2.07,1.53,3.92,2.74,6.2,3.9" transform="matrix(1,0,0,1,1096,-4)" class="stroke_order_diagram--existing_path"></path><path id="pathSk2v596cn3qns" kvg:type="㇑" d="M37.34,51.85c0.78,0.78,1.08,1.85,1.08,2.88c0,3.38-0.07,16.96-0.1,25.02c-0.01,2.42-0.02,4.33-0.02,5.33" transform="matrix(1,0,0,1,1096,-4)" class="stroke_order_diagram--existing_path"></path><path id="pathSk2v596cn3qnt" kvg:type="㇕a" d="M39.32,53.17c4.93-0.67,25.36-3.03,28.15-3.18c2.32-0.13,3.96,1.01,3.96,3.18c0,2.77-0.01,15.96-0.04,23.82c-0.01,3.04-0.01,5.17-0.01,5.39" transform="matrix(1,0,0,1,1096,-4)" class="stroke_order_diagram--existing_path"></path><path id="kvg:08ce2-s12" kvg:type="㇐a" d="M39.52,63.31c9.86-1.06,24.11-2.69,30.57-3.09" transform="matrix(1,0,0,1,1096,-4)" class="stroke_order_diagram--current_path"></path><path id="pathSk2v596cn3qnv" kvg:type="㇐a" d="M39.52,63.31c9.86-1.06,24.11-2.69,30.57-3.09" transform="matrix(1,0,0,1,1096,-4)" class="stroke_order_diagram--current_path"></path><circle cx="39.52" cy="63.31" r="8" class="stroke_order_diagram--path_start" transform="matrix(1,0,0,1,1096,-4)"></circle><line x1="1250" x2="1250" y1="1" y2="99" class="stroke_order_diagram--guide_line"></line><line x1="1299" x2="1299" y1="1" y2="99" class="stroke_order_diagram--bounding_box"></line><path id="pathSk2v596cn3qny" kvg:type="㇑" d="M23.54,15.08c0.69,0.69,0.9,1.54,0.9,2.58c0,4.97,0.03,20.05,0.03,28.58c0,1.89,0,3.9,0,4.82" transform="matrix(1,0,0,1,1196,-4)" class="stroke_order_diagram--existing_path"></path><path id="pathSk2v596cn3qnz" kvg:type="㇐b" d="M25.28,16.09c6.34-0.84,13.72-1.81,20.99-2.55c1.59-0.16,3.1-0.33,4.7-0.08" transform="matrix(1,0,0,1,1196,-4)" class="stroke_order_diagram--existing_path"></path><path id="pathSk2v596cn3qo0" kvg:type="㇑a" d="M37.34,15.89c0.63,0.63,0.9,1.36,0.9,2.08c0,2.03-0.07,3.89-0.11,6.53" transform="matrix(1,0,0,1,1196,-4)" class="stroke_order_diagram--existing_path"></path><path id="pathSk2v596cn3qo1" kvg:type="㇕b" d="M25.66,27.47c7.01-1.06,15.05-2.29,20.36-3.06c2.37-0.34,4.25-0.5,3.56,2.36c-0.48,2-1.59,4.79-2.03,6.96" transform="matrix(1,0,0,1,1196,-4)" class="stroke_order_diagram--existing_path"></path><path id="pathSk2v596cn3qo2" kvg:type="㇐b" d="M25.63,37.72c2.44-0.36,12.51-1.73,18.89-2.5c1.95-0.24,3.46-0.42,4.16-0.5" transform="matrix(1,0,0,1,1196,-4)" class="stroke_order_diagram--existing_path"></path><path id="pathSk2v596cn3qo3" kvg:type="㇑a" d="M37.8,36.86c0.6,0.6,0.65,1.39,0.65,2.33c0,1.43-0.07,2.99-0.07,6.06" transform="matrix(1,0,0,1,1196,-4)" class="stroke_order_diagram--existing_path"></path><path id="pathSk2v596cn3qo4" kvg:type="㇐b" d="M25.63,48.26c2.85-0.42,11.74-1.64,18.88-2.44c1.51-0.17,3.26-0.58,4.77-0.35" transform="matrix(1,0,0,1,1196,-4)" class="stroke_order_diagram--existing_path"></path><path id="pathSk2v596cn3qo5" kvg:type="㇇" d="M58.83,16.69c1.96,0.44,3.94,0.28,5.92-0.15c3.98-0.86,10.42-2.52,13.38-3.25c2.31-0.58,4.32,0.75,3.12,3.27c-5.5,11.56-13.87,21.69-24.75,27.91" transform="matrix(1,0,0,1,1196,-4)" class="stroke_order_diagram--existing_path"></path><path id="pathSk2v596cn3qo6" kvg:type="㇏" d="M57.52,23.04C60.47,23.56,72.25,35,82.55,42.62c2.07,1.53,3.92,2.74,6.2,3.9" transform="matrix(1,0,0,1,1196,-4)" class="stroke_order_diagram--existing_path"></path><path id="pathSk2v596cn3qo7" kvg:type="㇑" d="M37.34,51.85c0.78,0.78,1.08,1.85,1.08,2.88c0,3.38-0.07,16.96-0.1,25.02c-0.01,2.42-0.02,4.33-0.02,5.33" transform="matrix(1,0,0,1,1196,-4)" class="stroke_order_diagram--existing_path"></path><path id="pathSk2v596cn3qo8" kvg:type="㇕a" d="M39.32,53.17c4.93-0.67,25.36-3.03,28.15-3.18c2.32-0.13,3.96,1.01,3.96,3.18c0,2.77-0.01,15.96-0.04,23.82c-0.01,3.04-0.01,5.17-0.01,5.39" transform="matrix(1,0,0,1,1196,-4)" class="stroke_order_diagram--existing_path"></path><path id="pathSk2v596cn3qo9" kvg:type="㇐a" d="M39.52,63.31c9.86-1.06,24.11-2.69,30.57-3.09" transform="matrix(1,0,0,1,1196,-4)" class="stroke_order_diagram--existing_path"></path><path id="kvg:08ce2-s13" kvg:type="㇐a" d="M39.52,73.05c8.9-1.04,20.48-2.05,30.71-2.8" transform="matrix(1,0,0,1,1196,-4)" class="stroke_order_diagram--current_path"></path><path id="pathSk2v596cn3qob" kvg:type="㇐a" d="M39.52,73.05c8.9-1.04,20.48-2.05,30.71-2.8" transform="matrix(1,0,0,1,1196,-4)" class="stroke_order_diagram--current_path"></path><circle cx="39.52" cy="73.05" r="8" class="stroke_order_diagram--path_start" transform="matrix(1,0,0,1,1196,-4)"></circle><line x1="1350" x2="1350" y1="1" y2="99" class="stroke_order_diagram--guide_line"></line><line x1="1399" x2="1399" y1="1" y2="99" class="stroke_order_diagram--bounding_box"></line><path id="pathSk2v596cn3qoe" kvg:type="㇑" d="M23.54,15.08c0.69,0.69,0.9,1.54,0.9,2.58c0,4.97,0.03,20.05,0.03,28.58c0,1.89,0,3.9,0,4.82" transform="matrix(1,0,0,1,1296,-4)" class="stroke_order_diagram--existing_path"></path><path id="pathSk2v596cn3qof" kvg:type="㇐b" d="M25.28,16.09c6.34-0.84,13.72-1.81,20.99-2.55c1.59-0.16,3.1-0.33,4.7-0.08" transform="matrix(1,0,0,1,1296,-4)" class="stroke_order_diagram--existing_path"></path><path id="pathSk2v596cn3qog" kvg:type="㇑a" d="M37.34,15.89c0.63,0.63,0.9,1.36,0.9,2.08c0,2.03-0.07,3.89-0.11,6.53" transform="matrix(1,0,0,1,1296,-4)" class="stroke_order_diagram--existing_path"></path><path id="pathSk2v596cn3qoh" kvg:type="㇕b" d="M25.66,27.47c7.01-1.06,15.05-2.29,20.36-3.06c2.37-0.34,4.25-0.5,3.56,2.36c-0.48,2-1.59,4.79-2.03,6.96" transform="matrix(1,0,0,1,1296,-4)" class="stroke_order_diagram--existing_path"></path><path id="pathSk2v596cn3qoi" kvg:type="㇐b" d="M25.63,37.72c2.44-0.36,12.51-1.73,18.89-2.5c1.95-0.24,3.46-0.42,4.16-0.5" transform="matrix(1,0,0,1,1296,-4)" class="stroke_order_diagram--existing_path"></path><path id="pathSk2v596cn3qoj" kvg:type="㇑a" d="M37.8,36.86c0.6,0.6,0.65,1.39,0.65,2.33c0,1.43-0.07,2.99-0.07,6.06" transform="matrix(1,0,0,1,1296,-4)" class="stroke_order_diagram--existing_path"></path><path id="pathSk2v596cn3qok" kvg:type="㇐b" d="M25.63,48.26c2.85-0.42,11.74-1.64,18.88-2.44c1.51-0.17,3.26-0.58,4.77-0.35" transform="matrix(1,0,0,1,1296,-4)" class="stroke_order_diagram--existing_path"></path><path id="pathSk2v596cn3qol" kvg:type="㇇" d="M58.83,16.69c1.96,0.44,3.94,0.28,5.92-0.15c3.98-0.86,10.42-2.52,13.38-3.25c2.31-0.58,4.32,0.75,3.12,3.27c-5.5,11.56-13.87,21.69-24.75,27.91" transform="matrix(1,0,0,1,1296,-4)" class="stroke_order_diagram--existing_path"></path><path id="pathSk2v596cn3qom" kvg:type="㇏" d="M57.52,23.04C60.47,23.56,72.25,35,82.55,42.62c2.07,1.53,3.92,2.74,6.2,3.9" transform="matrix(1,0,0,1,1296,-4)" class="stroke_order_diagram--existing_path"></path><path id="pathSk2v596cn3qon" kvg:type="㇑" d="M37.34,51.85c0.78,0.78,1.08,1.85,1.08,2.88c0,3.38-0.07,16.96-0.1,25.02c-0.01,2.42-0.02,4.33-0.02,5.33" transform="matrix(1,0,0,1,1296,-4)" class="stroke_order_diagram--existing_path"></path><path id="pathSk2v596cn3qoo" kvg:type="㇕a" d="M39.32,53.17c4.93-0.67,25.36-3.03,28.15-3.18c2.32-0.13,3.96,1.01,3.96,3.18c0,2.77-0.01,15.96-0.04,23.82c-0.01,3.04-0.01,5.17-0.01,5.39" transform="matrix(1,0,0,1,1296,-4)" class="stroke_order_diagram--existing_path"></path><path id="pathSk2v596cn3qop" kvg:type="㇐a" d="M39.52,63.31c9.86-1.06,24.11-2.69,30.57-3.09" transform="matrix(1,0,0,1,1296,-4)" class="stroke_order_diagram--existing_path"></path><path id="pathSk2v596cn3qoq" kvg:type="㇐a" d="M39.52,73.05c8.9-1.04,20.48-2.05,30.71-2.8" transform="matrix(1,0,0,1,1296,-4)" class="stroke_order_diagram--existing_path"></path><path id="kvg:08ce2-s14" kvg:type="㇐a" d="M39.56,83.24c9.44-0.99,21.32-2.12,30.71-2.55" transform="matrix(1,0,0,1,1296,-4)" class="stroke_order_diagram--current_path"></path><path id="pathSk2v596cn3qos" kvg:type="㇐a" d="M39.56,83.24c9.44-0.99,21.32-2.12,30.71-2.55" transform="matrix(1,0,0,1,1296,-4)" class="stroke_order_diagram--current_path"></path><circle cx="39.56" cy="83.24" r="8" class="stroke_order_diagram--path_start" transform="matrix(1,0,0,1,1296,-4)"></circle><line x1="1450" x2="1450" y1="1" y2="99" class="stroke_order_diagram--guide_line"></line><line x1="1499" x2="1499" y1="1" y2="99" class="stroke_order_diagram--bounding_box"></line><path id="pathSk2v596cn3qov" kvg:type="㇑" d="M23.54,15.08c0.69,0.69,0.9,1.54,0.9,2.58c0,4.97,0.03,20.05,0.03,28.58c0,1.89,0,3.9,0,4.82" transform="matrix(1,0,0,1,1396,-4)" class="stroke_order_diagram--existing_path"></path><path id="pathSk2v596cn3qow" kvg:type="㇐b" d="M25.28,16.09c6.34-0.84,13.72-1.81,20.99-2.55c1.59-0.16,3.1-0.33,4.7-0.08" transform="matrix(1,0,0,1,1396,-4)" class="stroke_order_diagram--existing_path"></path><path id="pathSk2v596cn3qox" kvg:type="㇑a" d="M37.34,15.89c0.63,0.63,0.9,1.36,0.9,2.08c0,2.03-0.07,3.89-0.11,6.53" transform="matrix(1,0,0,1,1396,-4)" class="stroke_order_diagram--existing_path"></path><path id="pathSk2v596cn3qoy" kvg:type="㇕b" d="M25.66,27.47c7.01-1.06,15.05-2.29,20.36-3.06c2.37-0.34,4.25-0.5,3.56,2.36c-0.48,2-1.59,4.79-2.03,6.96" transform="matrix(1,0,0,1,1396,-4)" class="stroke_order_diagram--existing_path"></path><path id="pathSk2v596cn3qoz" kvg:type="㇐b" d="M25.63,37.72c2.44-0.36,12.51-1.73,18.89-2.5c1.95-0.24,3.46-0.42,4.16-0.5" transform="matrix(1,0,0,1,1396,-4)" class="stroke_order_diagram--existing_path"></path><path id="pathSk2v596cn3qp0" kvg:type="㇑a" d="M37.8,36.86c0.6,0.6,0.65,1.39,0.65,2.33c0,1.43-0.07,2.99-0.07,6.06" transform="matrix(1,0,0,1,1396,-4)" class="stroke_order_diagram--existing_path"></path><path id="pathSk2v596cn3qp1" kvg:type="㇐b" d="M25.63,48.26c2.85-0.42,11.74-1.64,18.88-2.44c1.51-0.17,3.26-0.58,4.77-0.35" transform="matrix(1,0,0,1,1396,-4)" class="stroke_order_diagram--existing_path"></path><path id="pathSk2v596cn3qp2" kvg:type="㇇" d="M58.83,16.69c1.96,0.44,3.94,0.28,5.92-0.15c3.98-0.86,10.42-2.52,13.38-3.25c2.31-0.58,4.32,0.75,3.12,3.27c-5.5,11.56-13.87,21.69-24.75,27.91" transform="matrix(1,0,0,1,1396,-4)" class="stroke_order_diagram--existing_path"></path><path id="pathSk2v596cn3qp3" kvg:type="㇏" d="M57.52,23.04C60.47,23.56,72.25,35,82.55,42.62c2.07,1.53,3.92,2.74,6.2,3.9" transform="matrix(1,0,0,1,1396,-4)" class="stroke_order_diagram--existing_path"></path><path id="pathSk2v596cn3qp4" kvg:type="㇑" d="M37.34,51.85c0.78,0.78,1.08,1.85,1.08,2.88c0,3.38-0.07,16.96-0.1,25.02c-0.01,2.42-0.02,4.33-0.02,5.33" transform="matrix(1,0,0,1,1396,-4)" class="stroke_order_diagram--existing_path"></path><path id="pathSk2v596cn3qp5" kvg:type="㇕a" d="M39.32,53.17c4.93-0.67,25.36-3.03,28.15-3.18c2.32-0.13,3.96,1.01,3.96,3.18c0,2.77-0.01,15.96-0.04,23.82c-0.01,3.04-0.01,5.17-0.01,5.39" transform="matrix(1,0,0,1,1396,-4)" class="stroke_order_diagram--existing_path"></path><path id="pathSk2v596cn3qp6" kvg:type="㇐a" d="M39.52,63.31c9.86-1.06,24.11-2.69,30.57-3.09" transform="matrix(1,0,0,1,1396,-4)" class="stroke_order_diagram--existing_path"></path><path id="pathSk2v596cn3qp7" kvg:type="㇐a" d="M39.52,73.05c8.9-1.04,20.48-2.05,30.71-2.8" transform="matrix(1,0,0,1,1396,-4)" class="stroke_order_diagram--existing_path"></path><path id="pathSk2v596cn3qp8" kvg:type="㇐a" d="M39.56,83.24c9.44-0.99,21.32-2.12,30.71-2.55" transform="matrix(1,0,0,1,1396,-4)" class="stroke_order_diagram--existing_path"></path><path id="kvg:08ce2-s15" kvg:type="㇒" d="M43.05,86.72c0,0.91-0.48,1.92-1.25,2.6c-2.33,2.03-9.26,6.03-13.92,8.43" transform="matrix(1,0,0,1,1396,-4)" class="stroke_order_diagram--current_path"></path><path id="pathSk2v596cn3qpa" kvg:type="㇒" d="M43.05,86.72c0,0.91-0.48,1.92-1.25,2.6c-2.33,2.03-9.26,6.03-13.92,8.43" transform="matrix(1,0,0,1,1396,-4)" class="stroke_order_diagram--current_path"></path><circle cx="43.05" cy="86.72" r="8" class="stroke_order_diagram--path_start" transform="matrix(1,0,0,1,1396,-4)"></circle><line x1="1550" x2="1550" y1="1" y2="99" class="stroke_order_diagram--guide_line"></line><line x1="1599" x2="1599" y1="1" y2="99" class="stroke_order_diagram--bounding_box"></line><path id="pathSk2v596cn3qpd" kvg:type="㇑" d="M23.54,15.08c0.69,0.69,0.9,1.54,0.9,2.58c0,4.97,0.03,20.05,0.03,28.58c0,1.89,0,3.9,0,4.82" transform="matrix(1,0,0,1,1496,-4)" class="stroke_order_diagram--existing_path"></path><path id="pathSk2v596cn3qpe" kvg:type="㇐b" d="M25.28,16.09c6.34-0.84,13.72-1.81,20.99-2.55c1.59-0.16,3.1-0.33,4.7-0.08" transform="matrix(1,0,0,1,1496,-4)" class="stroke_order_diagram--existing_path"></path><path id="pathSk2v596cn3qpf" kvg:type="㇑a" d="M37.34,15.89c0.63,0.63,0.9,1.36,0.9,2.08c0,2.03-0.07,3.89-0.11,6.53" transform="matrix(1,0,0,1,1496,-4)" class="stroke_order_diagram--existing_path"></path><path id="pathSk2v596cn3qpg" kvg:type="㇕b" d="M25.66,27.47c7.01-1.06,15.05-2.29,20.36-3.06c2.37-0.34,4.25-0.5,3.56,2.36c-0.48,2-1.59,4.79-2.03,6.96" transform="matrix(1,0,0,1,1496,-4)" class="stroke_order_diagram--existing_path"></path><path id="pathSk2v596cn3qph" kvg:type="㇐b" d="M25.63,37.72c2.44-0.36,12.51-1.73,18.89-2.5c1.95-0.24,3.46-0.42,4.16-0.5" transform="matrix(1,0,0,1,1496,-4)" class="stroke_order_diagram--existing_path"></path><path id="pathSk2v596cn3qpi" kvg:type="㇑a" d="M37.8,36.86c0.6,0.6,0.65,1.39,0.65,2.33c0,1.43-0.07,2.99-0.07,6.06" transform="matrix(1,0,0,1,1496,-4)" class="stroke_order_diagram--existing_path"></path><path id="pathSk2v596cn3qpj" kvg:type="㇐b" d="M25.63,48.26c2.85-0.42,11.74-1.64,18.88-2.44c1.51-0.17,3.26-0.58,4.77-0.35" transform="matrix(1,0,0,1,1496,-4)" class="stroke_order_diagram--existing_path"></path><path id="pathSk2v596cn3qpk" kvg:type="㇇" d="M58.83,16.69c1.96,0.44,3.94,0.28,5.92-0.15c3.98-0.86,10.42-2.52,13.38-3.25c2.31-0.58,4.32,0.75,3.12,3.27c-5.5,11.56-13.87,21.69-24.75,27.91" transform="matrix(1,0,0,1,1496,-4)" class="stroke_order_diagram--existing_path"></path><path id="pathSk2v596cn3qpl" kvg:type="㇏" d="M57.52,23.04C60.47,23.56,72.25,35,82.55,42.62c2.07,1.53,3.92,2.74,6.2,3.9" transform="matrix(1,0,0,1,1496,-4)" class="stroke_order_diagram--existing_path"></path><path id="pathSk2v596cn3qpm" kvg:type="㇑" d="M37.34,51.85c0.78,0.78,1.08,1.85,1.08,2.88c0,3.38-0.07,16.96-0.1,25.02c-0.01,2.42-0.02,4.33-0.02,5.33" transform="matrix(1,0,0,1,1496,-4)" class="stroke_order_diagram--existing_path"></path><path id="pathSk2v596cn3qpn" kvg:type="㇕a" d="M39.32,53.17c4.93-0.67,25.36-3.03,28.15-3.18c2.32-0.13,3.96,1.01,3.96,3.18c0,2.77-0.01,15.96-0.04,23.82c-0.01,3.04-0.01,5.17-0.01,5.39" transform="matrix(1,0,0,1,1496,-4)" class="stroke_order_diagram--existing_path"></path><path id="pathSk2v596cn3qpo" kvg:type="㇐a" d="M39.52,63.31c9.86-1.06,24.11-2.69,30.57-3.09" transform="matrix(1,0,0,1,1496,-4)" class="stroke_order_diagram--existing_path"></path><path id="pathSk2v596cn3qpp" kvg:type="㇐a" d="M39.52,73.05c8.9-1.04,20.48-2.05,30.71-2.8" transform="matrix(1,0,0,1,1496,-4)" class="stroke_order_diagram--existing_path"></path><path id="pathSk2v596cn3qpq" kvg:type="㇐a" d="M39.56,83.24c9.44-0.99,21.32-2.12,30.71-2.55" transform="matrix(1,0,0,1,1496,-4)" class="stroke_order_diagram--existing_path"></path><path id="pathSk2v596cn3qpr" kvg:type="㇒" d="M43.05,86.72c0,0.91-0.48,1.92-1.25,2.6c-2.33,2.03-9.26,6.03-13.92,8.43" transform="matrix(1,0,0,1,1496,-4)" class="stroke_order_diagram--existing_path"></path><path id="kvg:08ce2-s16" kvg:type="㇔" d="M64.62,86.75c5.7,2.81,12.44,7.9,14,10.36" transform="matrix(1,0,0,1,1496,-4)" class="stroke_order_diagram--current_path"></path><path id="pathSk2v596cn3qpt" kvg:type="㇔" d="M64.62,86.75c5.7,2.81,12.44,7.9,14,10.36" transform="matrix(1,0,0,1,1496,-4)" class="stroke_order_diagram--current_path"></path><circle cx="64.62" cy="86.75" r="8" class="stroke_order_diagram--path_start" transform="matrix(1,0,0,1,1496,-4)"></circle></svg>