<svg style="width: 1800px; height: 100px;" viewbox="0 0 1800 100"><style>
.stroke_order_diagram--outer_container {
  width: 100%;
  overflow-x: auto;
  overflow-y: hidden;
}

.stroke_order_diagram--guide_line {
  fill: none;
  stroke: #ddd;
  stroke-width: 3;
  stroke-linecap: square;
  stroke-linejoin: square;
  stroke-dasharray:8, 8;
}

.stroke_order_diagram--bounding_box {
  fill: none;
  stroke: #ddd;
  stroke-width: 4;
  stroke-linecap: square;
  stroke-linejoin: square;
}

.stroke_order_diagram--current_path {
  fill: none;
  stroke: #000;
  stroke-width: 6;
  stroke-linecap: round;
  stroke-linejoin: round;
}

.stroke_order_diagram--existing_path {
  fill: none;
  stroke: #aaa;
  stroke-width: 6;
  stroke-linecap: round;
  stroke-linejoin:round;
}

.stroke_order_diagram--path_start {
  fill: rgba(255, 0, 0, 0.7);
  stroke:none
}</style><desc>Created with Snap</desc><defs></defs><line x1="1" x2="1799" y1="1" y2="1" class="stroke_order_diagram--bounding_box"></line><line x1="1" x2="1" y1="1" y2="99" class="stroke_order_diagram--bounding_box"></line><line x1="1" x2="1799" y1="99" y2="99" class="stroke_order_diagram--bounding_box"></line><line x1="0" x2="1800" y1="50" y2="50" class="stroke_order_diagram--guide_line"></line><line x1="50" x2="50" y1="1" y2="99" class="stroke_order_diagram--guide_line"></line><line x1="99" x2="99" y1="1" y2="99" class="stroke_order_diagram--bounding_box"></line><path id="kvg:08d05-s1" kvg:type="㇐" d="M19.82,16.64c0.86,0.19,2.45,0.21,3.31,0.19c6.62-0.21,13.62-1.26,21.66-1.8c1.43-0.1,2.3,0.09,3.02,0.18" transform="matrix(1,0,0,1,-4,-4)" class="stroke_order_diagram--current_path"></path><path id="pathSk2v596cn1jec" kvg:type="㇐" d="M19.82,16.64c0.86,0.19,2.45,0.21,3.31,0.19c6.62-0.21,13.62-1.26,21.66-1.8c1.43-0.1,2.3,0.09,3.02,0.18" transform="matrix(1,0,0,1,-4,-4)" class="stroke_order_diagram--current_path"></path><circle cx="19.82" cy="16.64" r="8" class="stroke_order_diagram--path_start" transform="matrix(1,0,0,1,-4,-4)"></circle><line x1="150" x2="150" y1="1" y2="99" class="stroke_order_diagram--guide_line"></line><line x1="199" x2="199" y1="1" y2="99" class="stroke_order_diagram--bounding_box"></line><path id="pathSk2v596cn1jef" kvg:type="㇐" d="M19.82,16.64c0.86,0.19,2.45,0.21,3.31,0.19c6.62-0.21,13.62-1.26,21.66-1.8c1.43-0.1,2.3,0.09,3.02,0.18" transform="matrix(1,0,0,1,96,-4)" class="stroke_order_diagram--existing_path"></path><path id="kvg:08d05-s2" kvg:type="㇑a" d="M32.53,9c0.11,0.14,1.56,0.74,1.56,1.65c0,5.83,0.18,3.54,0.18,11.25" transform="matrix(1,0,0,1,96,-4)" class="stroke_order_diagram--current_path"></path><path id="pathSk2v596cn1jeh" kvg:type="㇑a" d="M32.53,9c0.11,0.14,1.56,0.74,1.56,1.65c0,5.83,0.18,3.54,0.18,11.25" transform="matrix(1,0,0,1,96,-4)" class="stroke_order_diagram--current_path"></path><circle cx="32.53" cy="9" r="8" class="stroke_order_diagram--path_start" transform="matrix(1,0,0,1,96,-4)"></circle><line x1="250" x2="250" y1="1" y2="99" class="stroke_order_diagram--guide_line"></line><line x1="299" x2="299" y1="1" y2="99" class="stroke_order_diagram--bounding_box"></line><path id="pathSk2v596cn1jek" kvg:type="㇐" d="M19.82,16.64c0.86,0.19,2.45,0.21,3.31,0.19c6.62-0.21,13.62-1.26,21.66-1.8c1.43-0.1,2.3,0.09,3.02,0.18" transform="matrix(1,0,0,1,196,-4)" class="stroke_order_diagram--existing_path"></path><path id="pathSk2v596cn1jel" kvg:type="㇑a" d="M32.53,9c0.11,0.14,1.56,0.74,1.56,1.65c0,5.83,0.18,3.54,0.18,11.25" transform="matrix(1,0,0,1,196,-4)" class="stroke_order_diagram--existing_path"></path><path id="kvg:08d05-s3" kvg:type="㇐" d="M15.41,23.94c1.34,0.26,3.79,0.29,5.13,0.26c4.21-0.09,21.21-2.55,27.12-2.66c2.23-0.04,3.57,0.12,4.68,0.26" transform="matrix(1,0,0,1,196,-4)" class="stroke_order_diagram--current_path"></path><path id="pathSk2v596cn1jen" kvg:type="㇐" d="M15.41,23.94c1.34,0.26,3.79,0.29,5.13,0.26c4.21-0.09,21.21-2.55,27.12-2.66c2.23-0.04,3.57,0.12,4.68,0.26" transform="matrix(1,0,0,1,196,-4)" class="stroke_order_diagram--current_path"></path><circle cx="15.41" cy="23.94" r="8" class="stroke_order_diagram--path_start" transform="matrix(1,0,0,1,196,-4)"></circle><line x1="350" x2="350" y1="1" y2="99" class="stroke_order_diagram--guide_line"></line><line x1="399" x2="399" y1="1" y2="99" class="stroke_order_diagram--bounding_box"></line><path id="pathSk2v596cn1jeq" kvg:type="㇐" d="M19.82,16.64c0.86,0.19,2.45,0.21,3.31,0.19c6.62-0.21,13.62-1.26,21.66-1.8c1.43-0.1,2.3,0.09,3.02,0.18" transform="matrix(1,0,0,1,296,-4)" class="stroke_order_diagram--existing_path"></path><path id="pathSk2v596cn1jer" kvg:type="㇑a" d="M32.53,9c0.11,0.14,1.56,0.74,1.56,1.65c0,5.83,0.18,3.54,0.18,11.25" transform="matrix(1,0,0,1,296,-4)" class="stroke_order_diagram--existing_path"></path><path id="pathSk2v596cn1jes" kvg:type="㇐" d="M15.41,23.94c1.34,0.26,3.79,0.29,5.13,0.26c4.21-0.09,21.21-2.55,27.12-2.66c2.23-0.04,3.57,0.12,4.68,0.26" transform="matrix(1,0,0,1,296,-4)" class="stroke_order_diagram--existing_path"></path><path id="kvg:08d05-s4" kvg:type="㇑a" d="M32.8,26.36c0.67,0.23,1.78,1.14,1.78,1.6c0,1.71-0.21,2.67-0.09,4.12" transform="matrix(1,0,0,1,296,-4)" class="stroke_order_diagram--current_path"></path><path id="pathSk2v596cn1jeu" kvg:type="㇑a" d="M32.8,26.36c0.67,0.23,1.78,1.14,1.78,1.6c0,1.71-0.21,2.67-0.09,4.12" transform="matrix(1,0,0,1,296,-4)" class="stroke_order_diagram--current_path"></path><circle cx="32.8" cy="26.36" r="8" class="stroke_order_diagram--path_start" transform="matrix(1,0,0,1,296,-4)"></circle><line x1="450" x2="450" y1="1" y2="99" class="stroke_order_diagram--guide_line"></line><line x1="499" x2="499" y1="1" y2="99" class="stroke_order_diagram--bounding_box"></line><path id="pathSk2v596cn1jex" kvg:type="㇐" d="M19.82,16.64c0.86,0.19,2.45,0.21,3.31,0.19c6.62-0.21,13.62-1.26,21.66-1.8c1.43-0.1,2.3,0.09,3.02,0.18" transform="matrix(1,0,0,1,396,-4)" class="stroke_order_diagram--existing_path"></path><path id="pathSk2v596cn1jey" kvg:type="㇑a" d="M32.53,9c0.11,0.14,1.56,0.74,1.56,1.65c0,5.83,0.18,3.54,0.18,11.25" transform="matrix(1,0,0,1,396,-4)" class="stroke_order_diagram--existing_path"></path><path id="pathSk2v596cn1jez" kvg:type="㇐" d="M15.41,23.94c1.34,0.26,3.79,0.29,5.13,0.26c4.21-0.09,21.21-2.55,27.12-2.66c2.23-0.04,3.57,0.12,4.68,0.26" transform="matrix(1,0,0,1,396,-4)" class="stroke_order_diagram--existing_path"></path><path id="pathSk2v596cn1jf0" kvg:type="㇑a" d="M32.8,26.36c0.67,0.23,1.78,1.14,1.78,1.6c0,1.71-0.21,2.67-0.09,4.12" transform="matrix(1,0,0,1,396,-4)" class="stroke_order_diagram--existing_path"></path><path id="kvg:08d05-s5" kvg:type="㇐" d="M15.5,34.09c0.9,0.15,2.79,0.2,3.62,0.21c7.13,0.1,22.13-2.15,29.96-2.64c1.4-0.09,2.12,0.02,3.17,0.27" transform="matrix(1,0,0,1,396,-4)" class="stroke_order_diagram--current_path"></path><path id="pathSk2v596cn1jf2" kvg:type="㇐" d="M15.5,34.09c0.9,0.15,2.79,0.2,3.62,0.21c7.13,0.1,22.13-2.15,29.96-2.64c1.4-0.09,2.12,0.02,3.17,0.27" transform="matrix(1,0,0,1,396,-4)" class="stroke_order_diagram--current_path"></path><circle cx="15.5" cy="34.09" r="8" class="stroke_order_diagram--path_start" transform="matrix(1,0,0,1,396,-4)"></circle><line x1="550" x2="550" y1="1" y2="99" class="stroke_order_diagram--guide_line"></line><line x1="599" x2="599" y1="1" y2="99" class="stroke_order_diagram--bounding_box"></line><path id="pathSk2v596cn1jf5" kvg:type="㇐" d="M19.82,16.64c0.86,0.19,2.45,0.21,3.31,0.19c6.62-0.21,13.62-1.26,21.66-1.8c1.43-0.1,2.3,0.09,3.02,0.18" transform="matrix(1,0,0,1,496,-4)" class="stroke_order_diagram--existing_path"></path><path id="pathSk2v596cn1jf6" kvg:type="㇑a" d="M32.53,9c0.11,0.14,1.56,0.74,1.56,1.65c0,5.83,0.18,3.54,0.18,11.25" transform="matrix(1,0,0,1,496,-4)" class="stroke_order_diagram--existing_path"></path><path id="pathSk2v596cn1jf7" kvg:type="㇐" d="M15.41,23.94c1.34,0.26,3.79,0.29,5.13,0.26c4.21-0.09,21.21-2.55,27.12-2.66c2.23-0.04,3.57,0.12,4.68,0.26" transform="matrix(1,0,0,1,496,-4)" class="stroke_order_diagram--existing_path"></path><path id="pathSk2v596cn1jf8" kvg:type="㇑a" d="M32.8,26.36c0.67,0.23,1.78,1.14,1.78,1.6c0,1.71-0.21,2.67-0.09,4.12" transform="matrix(1,0,0,1,496,-4)" class="stroke_order_diagram--existing_path"></path><path id="pathSk2v596cn1jf9" kvg:type="㇐" d="M15.5,34.09c0.9,0.15,2.79,0.2,3.62,0.21c7.13,0.1,22.13-2.15,29.96-2.64c1.4-0.09,2.12,0.02,3.17,0.27" transform="matrix(1,0,0,1,496,-4)" class="stroke_order_diagram--existing_path"></path><path id="kvg:08d05-s6" kvg:type="㇆a" d="M32.93,37.91C36.27,38.97,41,39,44.74,38.98c0.63,0,1.25,0.96,1.14,1.66c-0.28,1.87-5.86,9.02-8.24,10.54c-2.59,1.65-3.89-0.68-4.58-1.79" transform="matrix(1,0,0,1,496,-4)" class="stroke_order_diagram--current_path"></path><path id="pathSk2v596cn1jfb" kvg:type="㇆a" d="M32.93,37.91C36.27,38.97,41,39,44.74,38.98c0.63,0,1.25,0.96,1.14,1.66c-0.28,1.87-5.86,9.02-8.24,10.54c-2.59,1.65-3.89-0.68-4.58-1.79" transform="matrix(1,0,0,1,496,-4)" class="stroke_order_diagram--current_path"></path><circle cx="32.93" cy="37.91" r="8" class="stroke_order_diagram--path_start" transform="matrix(1,0,0,1,496,-4)"></circle><line x1="650" x2="650" y1="1" y2="99" class="stroke_order_diagram--guide_line"></line><line x1="699" x2="699" y1="1" y2="99" class="stroke_order_diagram--bounding_box"></line><path id="pathSk2v596cn1jfe" kvg:type="㇐" d="M19.82,16.64c0.86,0.19,2.45,0.21,3.31,0.19c6.62-0.21,13.62-1.26,21.66-1.8c1.43-0.1,2.3,0.09,3.02,0.18" transform="matrix(1,0,0,1,596,-4)" class="stroke_order_diagram--existing_path"></path><path id="pathSk2v596cn1jff" kvg:type="㇑a" d="M32.53,9c0.11,0.14,1.56,0.74,1.56,1.65c0,5.83,0.18,3.54,0.18,11.25" transform="matrix(1,0,0,1,596,-4)" class="stroke_order_diagram--existing_path"></path><path id="pathSk2v596cn1jfg" kvg:type="㇐" d="M15.41,23.94c1.34,0.26,3.79,0.29,5.13,0.26c4.21-0.09,21.21-2.55,27.12-2.66c2.23-0.04,3.57,0.12,4.68,0.26" transform="matrix(1,0,0,1,596,-4)" class="stroke_order_diagram--existing_path"></path><path id="pathSk2v596cn1jfh" kvg:type="㇑a" d="M32.8,26.36c0.67,0.23,1.78,1.14,1.78,1.6c0,1.71-0.21,2.67-0.09,4.12" transform="matrix(1,0,0,1,596,-4)" class="stroke_order_diagram--existing_path"></path><path id="pathSk2v596cn1jfi" kvg:type="㇐" d="M15.5,34.09c0.9,0.15,2.79,0.2,3.62,0.21c7.13,0.1,22.13-2.15,29.96-2.64c1.4-0.09,2.12,0.02,3.17,0.27" transform="matrix(1,0,0,1,596,-4)" class="stroke_order_diagram--existing_path"></path><path id="pathSk2v596cn1jfj" kvg:type="㇆a" d="M32.93,37.91C36.27,38.97,41,39,44.74,38.98c0.63,0,1.25,0.96,1.14,1.66c-0.28,1.87-5.86,9.02-8.24,10.54c-2.59,1.65-3.89-0.68-4.58-1.79" transform="matrix(1,0,0,1,596,-4)" class="stroke_order_diagram--existing_path"></path><path id="kvg:08d05-s7" kvg:type="㇒" d="M32.06,35.44c0.25,0.48,0.2,1.02-0.1,1.56c-2.05,3.71-7.71,9.51-17.17,14.73" transform="matrix(1,0,0,1,596,-4)" class="stroke_order_diagram--current_path"></path><path id="pathSk2v596cn1jfl" kvg:type="㇒" d="M32.06,35.44c0.25,0.48,0.2,1.02-0.1,1.56c-2.05,3.71-7.71,9.51-17.17,14.73" transform="matrix(1,0,0,1,596,-4)" class="stroke_order_diagram--current_path"></path><circle cx="32.06" cy="35.44" r="8" class="stroke_order_diagram--path_start" transform="matrix(1,0,0,1,596,-4)"></circle><line x1="750" x2="750" y1="1" y2="99" class="stroke_order_diagram--guide_line"></line><line x1="799" x2="799" y1="1" y2="99" class="stroke_order_diagram--bounding_box"></line><path id="pathSk2v596cn1jfo" kvg:type="㇐" d="M19.82,16.64c0.86,0.19,2.45,0.21,3.31,0.19c6.62-0.21,13.62-1.26,21.66-1.8c1.43-0.1,2.3,0.09,3.02,0.18" transform="matrix(1,0,0,1,696,-4)" class="stroke_order_diagram--existing_path"></path><path id="pathSk2v596cn1jfp" kvg:type="㇑a" d="M32.53,9c0.11,0.14,1.56,0.74,1.56,1.65c0,5.83,0.18,3.54,0.18,11.25" transform="matrix(1,0,0,1,696,-4)" class="stroke_order_diagram--existing_path"></path><path id="pathSk2v596cn1jfq" kvg:type="㇐" d="M15.41,23.94c1.34,0.26,3.79,0.29,5.13,0.26c4.21-0.09,21.21-2.55,27.12-2.66c2.23-0.04,3.57,0.12,4.68,0.26" transform="matrix(1,0,0,1,696,-4)" class="stroke_order_diagram--existing_path"></path><path id="pathSk2v596cn1jfr" kvg:type="㇑a" d="M32.8,26.36c0.67,0.23,1.78,1.14,1.78,1.6c0,1.71-0.21,2.67-0.09,4.12" transform="matrix(1,0,0,1,696,-4)" class="stroke_order_diagram--existing_path"></path><path id="pathSk2v596cn1jfs" kvg:type="㇐" d="M15.5,34.09c0.9,0.15,2.79,0.2,3.62,0.21c7.13,0.1,22.13-2.15,29.96-2.64c1.4-0.09,2.12,0.02,3.17,0.27" transform="matrix(1,0,0,1,696,-4)" class="stroke_order_diagram--existing_path"></path><path id="pathSk2v596cn1jft" kvg:type="㇆a" d="M32.93,37.91C36.27,38.97,41,39,44.74,38.98c0.63,0,1.25,0.96,1.14,1.66c-0.28,1.87-5.86,9.02-8.24,10.54c-2.59,1.65-3.89-0.68-4.58-1.79" transform="matrix(1,0,0,1,696,-4)" class="stroke_order_diagram--existing_path"></path><path id="pathSk2v596cn1jfu" kvg:type="㇒" d="M32.06,35.44c0.25,0.48,0.2,1.02-0.1,1.56c-2.05,3.71-7.71,9.51-17.17,14.73" transform="matrix(1,0,0,1,696,-4)" class="stroke_order_diagram--existing_path"></path><path id="kvg:08d05-s8" kvg:type="㇒" d="M66.6,9.35c0.03,0.43,0.08,1.11-0.06,1.71C65.6,15.2,62.25,22,55.77,28.54" transform="matrix(1,0,0,1,696,-4)" class="stroke_order_diagram--current_path"></path><path id="pathSk2v596cn1jfw" kvg:type="㇒" d="M66.6,9.35c0.03,0.43,0.08,1.11-0.06,1.71C65.6,15.2,62.25,22,55.77,28.54" transform="matrix(1,0,0,1,696,-4)" class="stroke_order_diagram--current_path"></path><circle cx="66.6" cy="9.35" r="8" class="stroke_order_diagram--path_start" transform="matrix(1,0,0,1,696,-4)"></circle><line x1="850" x2="850" y1="1" y2="99" class="stroke_order_diagram--guide_line"></line><line x1="899" x2="899" y1="1" y2="99" class="stroke_order_diagram--bounding_box"></line><path id="pathSk2v596cn1jfz" kvg:type="㇐" d="M19.82,16.64c0.86,0.19,2.45,0.21,3.31,0.19c6.62-0.21,13.62-1.26,21.66-1.8c1.43-0.1,2.3,0.09,3.02,0.18" transform="matrix(1,0,0,1,796,-4)" class="stroke_order_diagram--existing_path"></path><path id="pathSk2v596cn1jg0" kvg:type="㇑a" d="M32.53,9c0.11,0.14,1.56,0.74,1.56,1.65c0,5.83,0.18,3.54,0.18,11.25" transform="matrix(1,0,0,1,796,-4)" class="stroke_order_diagram--existing_path"></path><path id="pathSk2v596cn1jg1" kvg:type="㇐" d="M15.41,23.94c1.34,0.26,3.79,0.29,5.13,0.26c4.21-0.09,21.21-2.55,27.12-2.66c2.23-0.04,3.57,0.12,4.68,0.26" transform="matrix(1,0,0,1,796,-4)" class="stroke_order_diagram--existing_path"></path><path id="pathSk2v596cn1jg2" kvg:type="㇑a" d="M32.8,26.36c0.67,0.23,1.78,1.14,1.78,1.6c0,1.71-0.21,2.67-0.09,4.12" transform="matrix(1,0,0,1,796,-4)" class="stroke_order_diagram--existing_path"></path><path id="pathSk2v596cn1jg3" kvg:type="㇐" d="M15.5,34.09c0.9,0.15,2.79,0.2,3.62,0.21c7.13,0.1,22.13-2.15,29.96-2.64c1.4-0.09,2.12,0.02,3.17,0.27" transform="matrix(1,0,0,1,796,-4)" class="stroke_order_diagram--existing_path"></path><path id="pathSk2v596cn1jg4" kvg:type="㇆a" d="M32.93,37.91C36.27,38.97,41,39,44.74,38.98c0.63,0,1.25,0.96,1.14,1.66c-0.28,1.87-5.86,9.02-8.24,10.54c-2.59,1.65-3.89-0.68-4.58-1.79" transform="matrix(1,0,0,1,796,-4)" class="stroke_order_diagram--existing_path"></path><path id="pathSk2v596cn1jg5" kvg:type="㇒" d="M32.06,35.44c0.25,0.48,0.2,1.02-0.1,1.56c-2.05,3.71-7.71,9.51-17.17,14.73" transform="matrix(1,0,0,1,796,-4)" class="stroke_order_diagram--existing_path"></path><path id="pathSk2v596cn1jg6" kvg:type="㇒" d="M66.6,9.35c0.03,0.43,0.08,1.11-0.06,1.71C65.6,15.2,62.25,22,55.77,28.54" transform="matrix(1,0,0,1,796,-4)" class="stroke_order_diagram--existing_path"></path><path id="kvg:08d05-s9" kvg:type="㇐" d="M65.58,20.4c0.03-0.1,1.54,0.29,2.09,0.26c5.67-0.3,11.36-2.91,20.01-3.39c0.97-0.05,1.57-0.01,1.82,0.05" transform="matrix(1,0,0,1,796,-4)" class="stroke_order_diagram--current_path"></path><path id="pathSk2v596cn1jg8" kvg:type="㇐" d="M65.58,20.4c0.03-0.1,1.54,0.29,2.09,0.26c5.67-0.3,11.36-2.91,20.01-3.39c0.97-0.05,1.57-0.01,1.82,0.05" transform="matrix(1,0,0,1,796,-4)" class="stroke_order_diagram--current_path"></path><circle cx="65.58" cy="20.4" r="8" class="stroke_order_diagram--path_start" transform="matrix(1,0,0,1,796,-4)"></circle><line x1="950" x2="950" y1="1" y2="99" class="stroke_order_diagram--guide_line"></line><line x1="999" x2="999" y1="1" y2="99" class="stroke_order_diagram--bounding_box"></line><path id="pathSk2v596cn1jgb" kvg:type="㇐" d="M19.82,16.64c0.86,0.19,2.45,0.21,3.31,0.19c6.62-0.21,13.62-1.26,21.66-1.8c1.43-0.1,2.3,0.09,3.02,0.18" transform="matrix(1,0,0,1,896,-4)" class="stroke_order_diagram--existing_path"></path><path id="pathSk2v596cn1jgc" kvg:type="㇑a" d="M32.53,9c0.11,0.14,1.56,0.74,1.56,1.65c0,5.83,0.18,3.54,0.18,11.25" transform="matrix(1,0,0,1,896,-4)" class="stroke_order_diagram--existing_path"></path><path id="pathSk2v596cn1jgd" kvg:type="㇐" d="M15.41,23.94c1.34,0.26,3.79,0.29,5.13,0.26c4.21-0.09,21.21-2.55,27.12-2.66c2.23-0.04,3.57,0.12,4.68,0.26" transform="matrix(1,0,0,1,896,-4)" class="stroke_order_diagram--existing_path"></path><path id="pathSk2v596cn1jge" kvg:type="㇑a" d="M32.8,26.36c0.67,0.23,1.78,1.14,1.78,1.6c0,1.71-0.21,2.67-0.09,4.12" transform="matrix(1,0,0,1,896,-4)" class="stroke_order_diagram--existing_path"></path><path id="pathSk2v596cn1jgf" kvg:type="㇐" d="M15.5,34.09c0.9,0.15,2.79,0.2,3.62,0.21c7.13,0.1,22.13-2.15,29.96-2.64c1.4-0.09,2.12,0.02,3.17,0.27" transform="matrix(1,0,0,1,896,-4)" class="stroke_order_diagram--existing_path"></path><path id="pathSk2v596cn1jgg" kvg:type="㇆a" d="M32.93,37.91C36.27,38.97,41,39,44.74,38.98c0.63,0,1.25,0.96,1.14,1.66c-0.28,1.87-5.86,9.02-8.24,10.54c-2.59,1.65-3.89-0.68-4.58-1.79" transform="matrix(1,0,0,1,896,-4)" class="stroke_order_diagram--existing_path"></path><path id="pathSk2v596cn1jgh" kvg:type="㇒" d="M32.06,35.44c0.25,0.48,0.2,1.02-0.1,1.56c-2.05,3.71-7.71,9.51-17.17,14.73" transform="matrix(1,0,0,1,896,-4)" class="stroke_order_diagram--existing_path"></path><path id="pathSk2v596cn1jgi" kvg:type="㇒" d="M66.6,9.35c0.03,0.43,0.08,1.11-0.06,1.71C65.6,15.2,62.25,22,55.77,28.54" transform="matrix(1,0,0,1,896,-4)" class="stroke_order_diagram--existing_path"></path><path id="pathSk2v596cn1jgj" kvg:type="㇐" d="M65.58,20.4c0.03-0.1,1.54,0.29,2.09,0.26c5.67-0.3,11.36-2.91,20.01-3.39c0.97-0.05,1.57-0.01,1.82,0.05" transform="matrix(1,0,0,1,896,-4)" class="stroke_order_diagram--existing_path"></path><path id="kvg:08d05-s10" kvg:type="㇒" d="M78.54,22.48c0.42,0.64,0.64,1.11,0.21,2.28c-3.94,10.71-12.92,20.27-25.87,23.99" transform="matrix(1,0,0,1,896,-4)" class="stroke_order_diagram--current_path"></path><path id="pathSk2v596cn1jgl" kvg:type="㇒" d="M78.54,22.48c0.42,0.64,0.64,1.11,0.21,2.28c-3.94,10.71-12.92,20.27-25.87,23.99" transform="matrix(1,0,0,1,896,-4)" class="stroke_order_diagram--current_path"></path><circle cx="78.54" cy="22.48" r="8" class="stroke_order_diagram--path_start" transform="matrix(1,0,0,1,896,-4)"></circle><line x1="1050" x2="1050" y1="1" y2="99" class="stroke_order_diagram--guide_line"></line><line x1="1099" x2="1099" y1="1" y2="99" class="stroke_order_diagram--bounding_box"></line><path id="pathSk2v596cn1jgo" kvg:type="㇐" d="M19.82,16.64c0.86,0.19,2.45,0.21,3.31,0.19c6.62-0.21,13.62-1.26,21.66-1.8c1.43-0.1,2.3,0.09,3.02,0.18" transform="matrix(1,0,0,1,996,-4)" class="stroke_order_diagram--existing_path"></path><path id="pathSk2v596cn1jgp" kvg:type="㇑a" d="M32.53,9c0.11,0.14,1.56,0.74,1.56,1.65c0,5.83,0.18,3.54,0.18,11.25" transform="matrix(1,0,0,1,996,-4)" class="stroke_order_diagram--existing_path"></path><path id="pathSk2v596cn1jgq" kvg:type="㇐" d="M15.41,23.94c1.34,0.26,3.79,0.29,5.13,0.26c4.21-0.09,21.21-2.55,27.12-2.66c2.23-0.04,3.57,0.12,4.68,0.26" transform="matrix(1,0,0,1,996,-4)" class="stroke_order_diagram--existing_path"></path><path id="pathSk2v596cn1jgr" kvg:type="㇑a" d="M32.8,26.36c0.67,0.23,1.78,1.14,1.78,1.6c0,1.71-0.21,2.67-0.09,4.12" transform="matrix(1,0,0,1,996,-4)" class="stroke_order_diagram--existing_path"></path><path id="pathSk2v596cn1jgs" kvg:type="㇐" d="M15.5,34.09c0.9,0.15,2.79,0.2,3.62,0.21c7.13,0.1,22.13-2.15,29.96-2.64c1.4-0.09,2.12,0.02,3.17,0.27" transform="matrix(1,0,0,1,996,-4)" class="stroke_order_diagram--existing_path"></path><path id="pathSk2v596cn1jgt" kvg:type="㇆a" d="M32.93,37.91C36.27,38.97,41,39,44.74,38.98c0.63,0,1.25,0.96,1.14,1.66c-0.28,1.87-5.86,9.02-8.24,10.54c-2.59,1.65-3.89-0.68-4.58-1.79" transform="matrix(1,0,0,1,996,-4)" class="stroke_order_diagram--existing_path"></path><path id="pathSk2v596cn1jgu" kvg:type="㇒" d="M32.06,35.44c0.25,0.48,0.2,1.02-0.1,1.56c-2.05,3.71-7.71,9.51-17.17,14.73" transform="matrix(1,0,0,1,996,-4)" class="stroke_order_diagram--existing_path"></path><path id="pathSk2v596cn1jgv" kvg:type="㇒" d="M66.6,9.35c0.03,0.43,0.08,1.11-0.06,1.71C65.6,15.2,62.25,22,55.77,28.54" transform="matrix(1,0,0,1,996,-4)" class="stroke_order_diagram--existing_path"></path><path id="pathSk2v596cn1jgw" kvg:type="㇐" d="M65.58,20.4c0.03-0.1,1.54,0.29,2.09,0.26c5.67-0.3,11.36-2.91,20.01-3.39c0.97-0.05,1.57-0.01,1.82,0.05" transform="matrix(1,0,0,1,996,-4)" class="stroke_order_diagram--existing_path"></path><path id="pathSk2v596cn1jgx" kvg:type="㇒" d="M78.54,22.48c0.42,0.64,0.64,1.11,0.21,2.28c-3.94,10.71-12.92,20.27-25.87,23.99" transform="matrix(1,0,0,1,996,-4)" class="stroke_order_diagram--existing_path"></path><path id="kvg:08d05-s11" kvg:type="㇏" d="M61.24,29.04C67.25,31.75,79,42.5,89.11,46.92c1.66,0.73,2.76,0.78,4.14,0.85" transform="matrix(1,0,0,1,996,-4)" class="stroke_order_diagram--current_path"></path><path id="pathSk2v596cn1jgz" kvg:type="㇏" d="M61.24,29.04C67.25,31.75,79,42.5,89.11,46.92c1.66,0.73,2.76,0.78,4.14,0.85" transform="matrix(1,0,0,1,996,-4)" class="stroke_order_diagram--current_path"></path><circle cx="61.24" cy="29.04" r="8" class="stroke_order_diagram--path_start" transform="matrix(1,0,0,1,996,-4)"></circle><line x1="1150" x2="1150" y1="1" y2="99" class="stroke_order_diagram--guide_line"></line><line x1="1199" x2="1199" y1="1" y2="99" class="stroke_order_diagram--bounding_box"></line><path id="pathSk2v596cn1jh2" kvg:type="㇐" d="M19.82,16.64c0.86,0.19,2.45,0.21,3.31,0.19c6.62-0.21,13.62-1.26,21.66-1.8c1.43-0.1,2.3,0.09,3.02,0.18" transform="matrix(1,0,0,1,1096,-4)" class="stroke_order_diagram--existing_path"></path><path id="pathSk2v596cn1jh3" kvg:type="㇑a" d="M32.53,9c0.11,0.14,1.56,0.74,1.56,1.65c0,5.83,0.18,3.54,0.18,11.25" transform="matrix(1,0,0,1,1096,-4)" class="stroke_order_diagram--existing_path"></path><path id="pathSk2v596cn1jh4" kvg:type="㇐" d="M15.41,23.94c1.34,0.26,3.79,0.29,5.13,0.26c4.21-0.09,21.21-2.55,27.12-2.66c2.23-0.04,3.57,0.12,4.68,0.26" transform="matrix(1,0,0,1,1096,-4)" class="stroke_order_diagram--existing_path"></path><path id="pathSk2v596cn1jh5" kvg:type="㇑a" d="M32.8,26.36c0.67,0.23,1.78,1.14,1.78,1.6c0,1.71-0.21,2.67-0.09,4.12" transform="matrix(1,0,0,1,1096,-4)" class="stroke_order_diagram--existing_path"></path><path id="pathSk2v596cn1jh6" kvg:type="㇐" d="M15.5,34.09c0.9,0.15,2.79,0.2,3.62,0.21c7.13,0.1,22.13-2.15,29.96-2.64c1.4-0.09,2.12,0.02,3.17,0.27" transform="matrix(1,0,0,1,1096,-4)" class="stroke_order_diagram--existing_path"></path><path id="pathSk2v596cn1jh7" kvg:type="㇆a" d="M32.93,37.91C36.27,38.97,41,39,44.74,38.98c0.63,0,1.25,0.96,1.14,1.66c-0.28,1.87-5.86,9.02-8.24,10.54c-2.59,1.65-3.89-0.68-4.58-1.79" transform="matrix(1,0,0,1,1096,-4)" class="stroke_order_diagram--existing_path"></path><path id="pathSk2v596cn1jh8" kvg:type="㇒" d="M32.06,35.44c0.25,0.48,0.2,1.02-0.1,1.56c-2.05,3.71-7.71,9.51-17.17,14.73" transform="matrix(1,0,0,1,1096,-4)" class="stroke_order_diagram--existing_path"></path><path id="pathSk2v596cn1jh9" kvg:type="㇒" d="M66.6,9.35c0.03,0.43,0.08,1.11-0.06,1.71C65.6,15.2,62.25,22,55.77,28.54" transform="matrix(1,0,0,1,1096,-4)" class="stroke_order_diagram--existing_path"></path><path id="pathSk2v596cn1jha" kvg:type="㇐" d="M65.58,20.4c0.03-0.1,1.54,0.29,2.09,0.26c5.67-0.3,11.36-2.91,20.01-3.39c0.97-0.05,1.57-0.01,1.82,0.05" transform="matrix(1,0,0,1,1096,-4)" class="stroke_order_diagram--existing_path"></path><path id="pathSk2v596cn1jhb" kvg:type="㇒" d="M78.54,22.48c0.42,0.64,0.64,1.11,0.21,2.28c-3.94,10.71-12.92,20.27-25.87,23.99" transform="matrix(1,0,0,1,1096,-4)" class="stroke_order_diagram--existing_path"></path><path id="pathSk2v596cn1jhc" kvg:type="㇏" d="M61.24,29.04C67.25,31.75,79,42.5,89.11,46.92c1.66,0.73,2.76,0.78,4.14,0.85" transform="matrix(1,0,0,1,1096,-4)" class="stroke_order_diagram--existing_path"></path><path id="kvg:08d05-s12" kvg:type="㇑" d="M37.15,55.79c0.52,0.69,1.28,1.19,1.28,2.12c0,0.94,0.24,24.99-0.38,28.92" transform="matrix(1,0,0,1,1096,-4)" class="stroke_order_diagram--current_path"></path><path id="pathSk2v596cn1jhe" kvg:type="㇑" d="M37.15,55.79c0.52,0.69,1.28,1.19,1.28,2.12c0,0.94,0.24,24.99-0.38,28.92" transform="matrix(1,0,0,1,1096,-4)" class="stroke_order_diagram--current_path"></path><circle cx="37.15" cy="55.79" r="8" class="stroke_order_diagram--path_start" transform="matrix(1,0,0,1,1096,-4)"></circle><line x1="1250" x2="1250" y1="1" y2="99" class="stroke_order_diagram--guide_line"></line><line x1="1299" x2="1299" y1="1" y2="99" class="stroke_order_diagram--bounding_box"></line><path id="pathSk2v596cn1jhh" kvg:type="㇐" d="M19.82,16.64c0.86,0.19,2.45,0.21,3.31,0.19c6.62-0.21,13.62-1.26,21.66-1.8c1.43-0.1,2.3,0.09,3.02,0.18" transform="matrix(1,0,0,1,1196,-4)" class="stroke_order_diagram--existing_path"></path><path id="pathSk2v596cn1jhi" kvg:type="㇑a" d="M32.53,9c0.11,0.14,1.56,0.74,1.56,1.65c0,5.83,0.18,3.54,0.18,11.25" transform="matrix(1,0,0,1,1196,-4)" class="stroke_order_diagram--existing_path"></path><path id="pathSk2v596cn1jhj" kvg:type="㇐" d="M15.41,23.94c1.34,0.26,3.79,0.29,5.13,0.26c4.21-0.09,21.21-2.55,27.12-2.66c2.23-0.04,3.57,0.12,4.68,0.26" transform="matrix(1,0,0,1,1196,-4)" class="stroke_order_diagram--existing_path"></path><path id="pathSk2v596cn1jhk" kvg:type="㇑a" d="M32.8,26.36c0.67,0.23,1.78,1.14,1.78,1.6c0,1.71-0.21,2.67-0.09,4.12" transform="matrix(1,0,0,1,1196,-4)" class="stroke_order_diagram--existing_path"></path><path id="pathSk2v596cn1jhl" kvg:type="㇐" d="M15.5,34.09c0.9,0.15,2.79,0.2,3.62,0.21c7.13,0.1,22.13-2.15,29.96-2.64c1.4-0.09,2.12,0.02,3.17,0.27" transform="matrix(1,0,0,1,1196,-4)" class="stroke_order_diagram--existing_path"></path><path id="pathSk2v596cn1jhm" kvg:type="㇆a" d="M32.93,37.91C36.27,38.97,41,39,44.74,38.98c0.63,0,1.25,0.96,1.14,1.66c-0.28,1.87-5.86,9.02-8.24,10.54c-2.59,1.65-3.89-0.68-4.58-1.79" transform="matrix(1,0,0,1,1196,-4)" class="stroke_order_diagram--existing_path"></path><path id="pathSk2v596cn1jhn" kvg:type="㇒" d="M32.06,35.44c0.25,0.48,0.2,1.02-0.1,1.56c-2.05,3.71-7.71,9.51-17.17,14.73" transform="matrix(1,0,0,1,1196,-4)" class="stroke_order_diagram--existing_path"></path><path id="pathSk2v596cn1jho" kvg:type="㇒" d="M66.6,9.35c0.03,0.43,0.08,1.11-0.06,1.71C65.6,15.2,62.25,22,55.77,28.54" transform="matrix(1,0,0,1,1196,-4)" class="stroke_order_diagram--existing_path"></path><path id="pathSk2v596cn1jhp" kvg:type="㇐" d="M65.58,20.4c0.03-0.1,1.54,0.29,2.09,0.26c5.67-0.3,11.36-2.91,20.01-3.39c0.97-0.05,1.57-0.01,1.82,0.05" transform="matrix(1,0,0,1,1196,-4)" class="stroke_order_diagram--existing_path"></path><path id="pathSk2v596cn1jhq" kvg:type="㇒" d="M78.54,22.48c0.42,0.64,0.64,1.11,0.21,2.28c-3.94,10.71-12.92,20.27-25.87,23.99" transform="matrix(1,0,0,1,1196,-4)" class="stroke_order_diagram--existing_path"></path><path id="pathSk2v596cn1jhr" kvg:type="㇏" d="M61.24,29.04C67.25,31.75,79,42.5,89.11,46.92c1.66,0.73,2.76,0.78,4.14,0.85" transform="matrix(1,0,0,1,1196,-4)" class="stroke_order_diagram--existing_path"></path><path id="pathSk2v596cn1jhs" kvg:type="㇑" d="M37.15,55.79c0.52,0.69,1.28,1.19,1.28,2.12c0,0.94,0.24,24.99-0.38,28.92" transform="matrix(1,0,0,1,1196,-4)" class="stroke_order_diagram--existing_path"></path><path id="kvg:08d05-s13" kvg:type="㇕a" d="M39.3,57.21c2.95-0.2,26.96-2.48,29.63-2.9c1.79-0.28,3.16,0.84,3.44,2.28C72.75,58.65,71.7,85,71.7,85.69" transform="matrix(1,0,0,1,1196,-4)" class="stroke_order_diagram--current_path"></path><path id="pathSk2v596cn1jhu" kvg:type="㇕a" d="M39.3,57.21c2.95-0.2,26.96-2.48,29.63-2.9c1.79-0.28,3.16,0.84,3.44,2.28C72.75,58.65,71.7,85,71.7,85.69" transform="matrix(1,0,0,1,1196,-4)" class="stroke_order_diagram--current_path"></path><circle cx="39.3" cy="57.21" r="8" class="stroke_order_diagram--path_start" transform="matrix(1,0,0,1,1196,-4)"></circle><line x1="1350" x2="1350" y1="1" y2="99" class="stroke_order_diagram--guide_line"></line><line x1="1399" x2="1399" y1="1" y2="99" class="stroke_order_diagram--bounding_box"></line><path id="pathSk2v596cn1jhx" kvg:type="㇐" d="M19.82,16.64c0.86,0.19,2.45,0.21,3.31,0.19c6.62-0.21,13.62-1.26,21.66-1.8c1.43-0.1,2.3,0.09,3.02,0.18" transform="matrix(1,0,0,1,1296,-4)" class="stroke_order_diagram--existing_path"></path><path id="pathSk2v596cn1jhy" kvg:type="㇑a" d="M32.53,9c0.11,0.14,1.56,0.74,1.56,1.65c0,5.83,0.18,3.54,0.18,11.25" transform="matrix(1,0,0,1,1296,-4)" class="stroke_order_diagram--existing_path"></path><path id="pathSk2v596cn1jhz" kvg:type="㇐" d="M15.41,23.94c1.34,0.26,3.79,0.29,5.13,0.26c4.21-0.09,21.21-2.55,27.12-2.66c2.23-0.04,3.57,0.12,4.68,0.26" transform="matrix(1,0,0,1,1296,-4)" class="stroke_order_diagram--existing_path"></path><path id="pathSk2v596cn1ji0" kvg:type="㇑a" d="M32.8,26.36c0.67,0.23,1.78,1.14,1.78,1.6c0,1.71-0.21,2.67-0.09,4.12" transform="matrix(1,0,0,1,1296,-4)" class="stroke_order_diagram--existing_path"></path><path id="pathSk2v596cn1ji1" kvg:type="㇐" d="M15.5,34.09c0.9,0.15,2.79,0.2,3.62,0.21c7.13,0.1,22.13-2.15,29.96-2.64c1.4-0.09,2.12,0.02,3.17,0.27" transform="matrix(1,0,0,1,1296,-4)" class="stroke_order_diagram--existing_path"></path><path id="pathSk2v596cn1ji2" kvg:type="㇆a" d="M32.93,37.91C36.27,38.97,41,39,44.74,38.98c0.63,0,1.25,0.96,1.14,1.66c-0.28,1.87-5.86,9.02-8.24,10.54c-2.59,1.65-3.89-0.68-4.58-1.79" transform="matrix(1,0,0,1,1296,-4)" class="stroke_order_diagram--existing_path"></path><path id="pathSk2v596cn1ji3" kvg:type="㇒" d="M32.06,35.44c0.25,0.48,0.2,1.02-0.1,1.56c-2.05,3.71-7.71,9.51-17.17,14.73" transform="matrix(1,0,0,1,1296,-4)" class="stroke_order_diagram--existing_path"></path><path id="pathSk2v596cn1ji4" kvg:type="㇒" d="M66.6,9.35c0.03,0.43,0.08,1.11-0.06,1.71C65.6,15.2,62.25,22,55.77,28.54" transform="matrix(1,0,0,1,1296,-4)" class="stroke_order_diagram--existing_path"></path><path id="pathSk2v596cn1ji5" kvg:type="㇐" d="M65.58,20.4c0.03-0.1,1.54,0.29,2.09,0.26c5.67-0.3,11.36-2.91,20.01-3.39c0.97-0.05,1.57-0.01,1.82,0.05" transform="matrix(1,0,0,1,1296,-4)" class="stroke_order_diagram--existing_path"></path><path id="pathSk2v596cn1ji6" kvg:type="㇒" d="M78.54,22.48c0.42,0.64,0.64,1.11,0.21,2.28c-3.94,10.71-12.92,20.27-25.87,23.99" transform="matrix(1,0,0,1,1296,-4)" class="stroke_order_diagram--existing_path"></path><path id="pathSk2v596cn1ji7" kvg:type="㇏" d="M61.24,29.04C67.25,31.75,79,42.5,89.11,46.92c1.66,0.73,2.76,0.78,4.14,0.85" transform="matrix(1,0,0,1,1296,-4)" class="stroke_order_diagram--existing_path"></path><path id="pathSk2v596cn1ji8" kvg:type="㇑" d="M37.15,55.79c0.52,0.69,1.28,1.19,1.28,2.12c0,0.94,0.24,24.99-0.38,28.92" transform="matrix(1,0,0,1,1296,-4)" class="stroke_order_diagram--existing_path"></path><path id="pathSk2v596cn1ji9" kvg:type="㇕a" d="M39.3,57.21c2.95-0.2,26.96-2.48,29.63-2.9c1.79-0.28,3.16,0.84,3.44,2.28C72.75,58.65,71.7,85,71.7,85.69" transform="matrix(1,0,0,1,1296,-4)" class="stroke_order_diagram--existing_path"></path><path id="kvg:08d05-s14" kvg:type="㇐a" d="M38.49,66.44c5.52-0.42,28.41-2.11,33.14-2.25" transform="matrix(1,0,0,1,1296,-4)" class="stroke_order_diagram--current_path"></path><path id="pathSk2v596cn1jib" kvg:type="㇐a" d="M38.49,66.44c5.52-0.42,28.41-2.11,33.14-2.25" transform="matrix(1,0,0,1,1296,-4)" class="stroke_order_diagram--current_path"></path><circle cx="38.49" cy="66.44" r="8" class="stroke_order_diagram--path_start" transform="matrix(1,0,0,1,1296,-4)"></circle><line x1="1450" x2="1450" y1="1" y2="99" class="stroke_order_diagram--guide_line"></line><line x1="1499" x2="1499" y1="1" y2="99" class="stroke_order_diagram--bounding_box"></line><path id="pathSk2v596cn1jie" kvg:type="㇐" d="M19.82,16.64c0.86,0.19,2.45,0.21,3.31,0.19c6.62-0.21,13.62-1.26,21.66-1.8c1.43-0.1,2.3,0.09,3.02,0.18" transform="matrix(1,0,0,1,1396,-4)" class="stroke_order_diagram--existing_path"></path><path id="pathSk2v596cn1jif" kvg:type="㇑a" d="M32.53,9c0.11,0.14,1.56,0.74,1.56,1.65c0,5.83,0.18,3.54,0.18,11.25" transform="matrix(1,0,0,1,1396,-4)" class="stroke_order_diagram--existing_path"></path><path id="pathSk2v596cn1jig" kvg:type="㇐" d="M15.41,23.94c1.34,0.26,3.79,0.29,5.13,0.26c4.21-0.09,21.21-2.55,27.12-2.66c2.23-0.04,3.57,0.12,4.68,0.26" transform="matrix(1,0,0,1,1396,-4)" class="stroke_order_diagram--existing_path"></path><path id="pathSk2v596cn1jih" kvg:type="㇑a" d="M32.8,26.36c0.67,0.23,1.78,1.14,1.78,1.6c0,1.71-0.21,2.67-0.09,4.12" transform="matrix(1,0,0,1,1396,-4)" class="stroke_order_diagram--existing_path"></path><path id="pathSk2v596cn1jii" kvg:type="㇐" d="M15.5,34.09c0.9,0.15,2.79,0.2,3.62,0.21c7.13,0.1,22.13-2.15,29.96-2.64c1.4-0.09,2.12,0.02,3.17,0.27" transform="matrix(1,0,0,1,1396,-4)" class="stroke_order_diagram--existing_path"></path><path id="pathSk2v596cn1jij" kvg:type="㇆a" d="M32.93,37.91C36.27,38.97,41,39,44.74,38.98c0.63,0,1.25,0.96,1.14,1.66c-0.28,1.87-5.86,9.02-8.24,10.54c-2.59,1.65-3.89-0.68-4.58-1.79" transform="matrix(1,0,0,1,1396,-4)" class="stroke_order_diagram--existing_path"></path><path id="pathSk2v596cn1jik" kvg:type="㇒" d="M32.06,35.44c0.25,0.48,0.2,1.02-0.1,1.56c-2.05,3.71-7.71,9.51-17.17,14.73" transform="matrix(1,0,0,1,1396,-4)" class="stroke_order_diagram--existing_path"></path><path id="pathSk2v596cn1jil" kvg:type="㇒" d="M66.6,9.35c0.03,0.43,0.08,1.11-0.06,1.71C65.6,15.2,62.25,22,55.77,28.54" transform="matrix(1,0,0,1,1396,-4)" class="stroke_order_diagram--existing_path"></path><path id="pathSk2v596cn1jim" kvg:type="㇐" d="M65.58,20.4c0.03-0.1,1.54,0.29,2.09,0.26c5.67-0.3,11.36-2.91,20.01-3.39c0.97-0.05,1.57-0.01,1.82,0.05" transform="matrix(1,0,0,1,1396,-4)" class="stroke_order_diagram--existing_path"></path><path id="pathSk2v596cn1jin" kvg:type="㇒" d="M78.54,22.48c0.42,0.64,0.64,1.11,0.21,2.28c-3.94,10.71-12.92,20.27-25.87,23.99" transform="matrix(1,0,0,1,1396,-4)" class="stroke_order_diagram--existing_path"></path><path id="pathSk2v596cn1jio" kvg:type="㇏" d="M61.24,29.04C67.25,31.75,79,42.5,89.11,46.92c1.66,0.73,2.76,0.78,4.14,0.85" transform="matrix(1,0,0,1,1396,-4)" class="stroke_order_diagram--existing_path"></path><path id="pathSk2v596cn1jip" kvg:type="㇑" d="M37.15,55.79c0.52,0.69,1.28,1.19,1.28,2.12c0,0.94,0.24,24.99-0.38,28.92" transform="matrix(1,0,0,1,1396,-4)" class="stroke_order_diagram--existing_path"></path><path id="pathSk2v596cn1jiq" kvg:type="㇕a" d="M39.3,57.21c2.95-0.2,26.96-2.48,29.63-2.9c1.79-0.28,3.16,0.84,3.44,2.28C72.75,58.65,71.7,85,71.7,85.69" transform="matrix(1,0,0,1,1396,-4)" class="stroke_order_diagram--existing_path"></path><path id="pathSk2v596cn1jir" kvg:type="㇐a" d="M38.49,66.44c5.52-0.42,28.41-2.11,33.14-2.25" transform="matrix(1,0,0,1,1396,-4)" class="stroke_order_diagram--existing_path"></path><path id="kvg:08d05-s15" kvg:type="㇐a" d="M38.73,75.54c8.32-0.74,24.11-1.66,32.93-2.01" transform="matrix(1,0,0,1,1396,-4)" class="stroke_order_diagram--current_path"></path><path id="pathSk2v596cn1jit" kvg:type="㇐a" d="M38.73,75.54c8.32-0.74,24.11-1.66,32.93-2.01" transform="matrix(1,0,0,1,1396,-4)" class="stroke_order_diagram--current_path"></path><circle cx="38.73" cy="75.54" r="8" class="stroke_order_diagram--path_start" transform="matrix(1,0,0,1,1396,-4)"></circle><line x1="1550" x2="1550" y1="1" y2="99" class="stroke_order_diagram--guide_line"></line><line x1="1599" x2="1599" y1="1" y2="99" class="stroke_order_diagram--bounding_box"></line><path id="pathSk2v596cn1jiw" kvg:type="㇐" d="M19.82,16.64c0.86,0.19,2.45,0.21,3.31,0.19c6.62-0.21,13.62-1.26,21.66-1.8c1.43-0.1,2.3,0.09,3.02,0.18" transform="matrix(1,0,0,1,1496,-4)" class="stroke_order_diagram--existing_path"></path><path id="pathSk2v596cn1jix" kvg:type="㇑a" d="M32.53,9c0.11,0.14,1.56,0.74,1.56,1.65c0,5.83,0.18,3.54,0.18,11.25" transform="matrix(1,0,0,1,1496,-4)" class="stroke_order_diagram--existing_path"></path><path id="pathSk2v596cn1jiy" kvg:type="㇐" d="M15.41,23.94c1.34,0.26,3.79,0.29,5.13,0.26c4.21-0.09,21.21-2.55,27.12-2.66c2.23-0.04,3.57,0.12,4.68,0.26" transform="matrix(1,0,0,1,1496,-4)" class="stroke_order_diagram--existing_path"></path><path id="pathSk2v596cn1jiz" kvg:type="㇑a" d="M32.8,26.36c0.67,0.23,1.78,1.14,1.78,1.6c0,1.71-0.21,2.67-0.09,4.12" transform="matrix(1,0,0,1,1496,-4)" class="stroke_order_diagram--existing_path"></path><path id="pathSk2v596cn1jj0" kvg:type="㇐" d="M15.5,34.09c0.9,0.15,2.79,0.2,3.62,0.21c7.13,0.1,22.13-2.15,29.96-2.64c1.4-0.09,2.12,0.02,3.17,0.27" transform="matrix(1,0,0,1,1496,-4)" class="stroke_order_diagram--existing_path"></path><path id="pathSk2v596cn1jj1" kvg:type="㇆a" d="M32.93,37.91C36.27,38.97,41,39,44.74,38.98c0.63,0,1.25,0.96,1.14,1.66c-0.28,1.87-5.86,9.02-8.24,10.54c-2.59,1.65-3.89-0.68-4.58-1.79" transform="matrix(1,0,0,1,1496,-4)" class="stroke_order_diagram--existing_path"></path><path id="pathSk2v596cn1jj2" kvg:type="㇒" d="M32.06,35.44c0.25,0.48,0.2,1.02-0.1,1.56c-2.05,3.71-7.71,9.51-17.17,14.73" transform="matrix(1,0,0,1,1496,-4)" class="stroke_order_diagram--existing_path"></path><path id="pathSk2v596cn1jj3" kvg:type="㇒" d="M66.6,9.35c0.03,0.43,0.08,1.11-0.06,1.71C65.6,15.2,62.25,22,55.77,28.54" transform="matrix(1,0,0,1,1496,-4)" class="stroke_order_diagram--existing_path"></path><path id="pathSk2v596cn1jj4" kvg:type="㇐" d="M65.58,20.4c0.03-0.1,1.54,0.29,2.09,0.26c5.67-0.3,11.36-2.91,20.01-3.39c0.97-0.05,1.57-0.01,1.82,0.05" transform="matrix(1,0,0,1,1496,-4)" class="stroke_order_diagram--existing_path"></path><path id="pathSk2v596cn1jj5" kvg:type="㇒" d="M78.54,22.48c0.42,0.64,0.64,1.11,0.21,2.28c-3.94,10.71-12.92,20.27-25.87,23.99" transform="matrix(1,0,0,1,1496,-4)" class="stroke_order_diagram--existing_path"></path><path id="pathSk2v596cn1jj6" kvg:type="㇏" d="M61.24,29.04C67.25,31.75,79,42.5,89.11,46.92c1.66,0.73,2.76,0.78,4.14,0.85" transform="matrix(1,0,0,1,1496,-4)" class="stroke_order_diagram--existing_path"></path><path id="pathSk2v596cn1jj7" kvg:type="㇑" d="M37.15,55.79c0.52,0.69,1.28,1.19,1.28,2.12c0,0.94,0.24,24.99-0.38,28.92" transform="matrix(1,0,0,1,1496,-4)" class="stroke_order_diagram--existing_path"></path><path id="pathSk2v596cn1jj8" kvg:type="㇕a" d="M39.3,57.21c2.95-0.2,26.96-2.48,29.63-2.9c1.79-0.28,3.16,0.84,3.44,2.28C72.75,58.65,71.7,85,71.7,85.69" transform="matrix(1,0,0,1,1496,-4)" class="stroke_order_diagram--existing_path"></path><path id="pathSk2v596cn1jj9" kvg:type="㇐a" d="M38.49,66.44c5.52-0.42,28.41-2.11,33.14-2.25" transform="matrix(1,0,0,1,1496,-4)" class="stroke_order_diagram--existing_path"></path><path id="pathSk2v596cn1jja" kvg:type="㇐a" d="M38.73,75.54c8.32-0.74,24.11-1.66,32.93-2.01" transform="matrix(1,0,0,1,1496,-4)" class="stroke_order_diagram--existing_path"></path><path id="kvg:08d05-s16" kvg:type="㇐a" d="M38.35,85c8.32-0.61,25.73-1.55,33.31-1.77" transform="matrix(1,0,0,1,1496,-4)" class="stroke_order_diagram--current_path"></path><path id="pathSk2v596cn1jjc" kvg:type="㇐a" d="M38.35,85c8.32-0.61,25.73-1.55,33.31-1.77" transform="matrix(1,0,0,1,1496,-4)" class="stroke_order_diagram--current_path"></path><circle cx="38.35" cy="85" r="8" class="stroke_order_diagram--path_start" transform="matrix(1,0,0,1,1496,-4)"></circle><line x1="1650" x2="1650" y1="1" y2="99" class="stroke_order_diagram--guide_line"></line><line x1="1699" x2="1699" y1="1" y2="99" class="stroke_order_diagram--bounding_box"></line><path id="pathSk2v596cn1jjf" kvg:type="㇐" d="M19.82,16.64c0.86,0.19,2.45,0.21,3.31,0.19c6.62-0.21,13.62-1.26,21.66-1.8c1.43-0.1,2.3,0.09,3.02,0.18" transform="matrix(1,0,0,1,1596,-4)" class="stroke_order_diagram--existing_path"></path><path id="pathSk2v596cn1jjg" kvg:type="㇑a" d="M32.53,9c0.11,0.14,1.56,0.74,1.56,1.65c0,5.83,0.18,3.54,0.18,11.25" transform="matrix(1,0,0,1,1596,-4)" class="stroke_order_diagram--existing_path"></path><path id="pathSk2v596cn1jjh" kvg:type="㇐" d="M15.41,23.94c1.34,0.26,3.79,0.29,5.13,0.26c4.21-0.09,21.21-2.55,27.12-2.66c2.23-0.04,3.57,0.12,4.68,0.26" transform="matrix(1,0,0,1,1596,-4)" class="stroke_order_diagram--existing_path"></path><path id="pathSk2v596cn1jji" kvg:type="㇑a" d="M32.8,26.36c0.67,0.23,1.78,1.14,1.78,1.6c0,1.71-0.21,2.67-0.09,4.12" transform="matrix(1,0,0,1,1596,-4)" class="stroke_order_diagram--existing_path"></path><path id="pathSk2v596cn1jjj" kvg:type="㇐" d="M15.5,34.09c0.9,0.15,2.79,0.2,3.62,0.21c7.13,0.1,22.13-2.15,29.96-2.64c1.4-0.09,2.12,0.02,3.17,0.27" transform="matrix(1,0,0,1,1596,-4)" class="stroke_order_diagram--existing_path"></path><path id="pathSk2v596cn1jjk" kvg:type="㇆a" d="M32.93,37.91C36.27,38.97,41,39,44.74,38.98c0.63,0,1.25,0.96,1.14,1.66c-0.28,1.87-5.86,9.02-8.24,10.54c-2.59,1.65-3.89-0.68-4.58-1.79" transform="matrix(1,0,0,1,1596,-4)" class="stroke_order_diagram--existing_path"></path><path id="pathSk2v596cn1jjl" kvg:type="㇒" d="M32.06,35.44c0.25,0.48,0.2,1.02-0.1,1.56c-2.05,3.71-7.71,9.51-17.17,14.73" transform="matrix(1,0,0,1,1596,-4)" class="stroke_order_diagram--existing_path"></path><path id="pathSk2v596cn1jjm" kvg:type="㇒" d="M66.6,9.35c0.03,0.43,0.08,1.11-0.06,1.71C65.6,15.2,62.25,22,55.77,28.54" transform="matrix(1,0,0,1,1596,-4)" class="stroke_order_diagram--existing_path"></path><path id="pathSk2v596cn1jjn" kvg:type="㇐" d="M65.58,20.4c0.03-0.1,1.54,0.29,2.09,0.26c5.67-0.3,11.36-2.91,20.01-3.39c0.97-0.05,1.57-0.01,1.82,0.05" transform="matrix(1,0,0,1,1596,-4)" class="stroke_order_diagram--existing_path"></path><path id="pathSk2v596cn1jjo" kvg:type="㇒" d="M78.54,22.48c0.42,0.64,0.64,1.11,0.21,2.28c-3.94,10.71-12.92,20.27-25.87,23.99" transform="matrix(1,0,0,1,1596,-4)" class="stroke_order_diagram--existing_path"></path><path id="pathSk2v596cn1jjp" kvg:type="㇏" d="M61.24,29.04C67.25,31.75,79,42.5,89.11,46.92c1.66,0.73,2.76,0.78,4.14,0.85" transform="matrix(1,0,0,1,1596,-4)" class="stroke_order_diagram--existing_path"></path><path id="pathSk2v596cn1jjq" kvg:type="㇑" d="M37.15,55.79c0.52,0.69,1.28,1.19,1.28,2.12c0,0.94,0.24,24.99-0.38,28.92" transform="matrix(1,0,0,1,1596,-4)" class="stroke_order_diagram--existing_path"></path><path id="pathSk2v596cn1jjr" kvg:type="㇕a" d="M39.3,57.21c2.95-0.2,26.96-2.48,29.63-2.9c1.79-0.28,3.16,0.84,3.44,2.28C72.75,58.65,71.7,85,71.7,85.69" transform="matrix(1,0,0,1,1596,-4)" class="stroke_order_diagram--existing_path"></path><path id="pathSk2v596cn1jjs" kvg:type="㇐a" d="M38.49,66.44c5.52-0.42,28.41-2.11,33.14-2.25" transform="matrix(1,0,0,1,1596,-4)" class="stroke_order_diagram--existing_path"></path><path id="pathSk2v596cn1jjt" kvg:type="㇐a" d="M38.73,75.54c8.32-0.74,24.11-1.66,32.93-2.01" transform="matrix(1,0,0,1,1596,-4)" class="stroke_order_diagram--existing_path"></path><path id="pathSk2v596cn1jju" kvg:type="㇐a" d="M38.35,85c8.32-0.61,25.73-1.55,33.31-1.77" transform="matrix(1,0,0,1,1596,-4)" class="stroke_order_diagram--existing_path"></path><path id="kvg:08d05-s17" kvg:type="㇒" d="M43.56,89.32c0.51,0.96-0.39,1.9-1.4,2.59c-3.07,2.11-11.13,6.6-17.26,9.09" transform="matrix(1,0,0,1,1596,-4)" class="stroke_order_diagram--current_path"></path><path id="pathSk2v596cn1jjw" kvg:type="㇒" d="M43.56,89.32c0.51,0.96-0.39,1.9-1.4,2.59c-3.07,2.11-11.13,6.6-17.26,9.09" transform="matrix(1,0,0,1,1596,-4)" class="stroke_order_diagram--current_path"></path><circle cx="43.56" cy="89.32" r="8" class="stroke_order_diagram--path_start" transform="matrix(1,0,0,1,1596,-4)"></circle><line x1="1750" x2="1750" y1="1" y2="99" class="stroke_order_diagram--guide_line"></line><line x1="1799" x2="1799" y1="1" y2="99" class="stroke_order_diagram--bounding_box"></line><path id="pathSk2v596cn1jjz" kvg:type="㇐" d="M19.82,16.64c0.86,0.19,2.45,0.21,3.31,0.19c6.62-0.21,13.62-1.26,21.66-1.8c1.43-0.1,2.3,0.09,3.02,0.18" transform="matrix(1,0,0,1,1696,-4)" class="stroke_order_diagram--existing_path"></path><path id="pathSk2v596cn1jk0" kvg:type="㇑a" d="M32.53,9c0.11,0.14,1.56,0.74,1.56,1.65c0,5.83,0.18,3.54,0.18,11.25" transform="matrix(1,0,0,1,1696,-4)" class="stroke_order_diagram--existing_path"></path><path id="pathSk2v596cn1jk1" kvg:type="㇐" d="M15.41,23.94c1.34,0.26,3.79,0.29,5.13,0.26c4.21-0.09,21.21-2.55,27.12-2.66c2.23-0.04,3.57,0.12,4.68,0.26" transform="matrix(1,0,0,1,1696,-4)" class="stroke_order_diagram--existing_path"></path><path id="pathSk2v596cn1jk2" kvg:type="㇑a" d="M32.8,26.36c0.67,0.23,1.78,1.14,1.78,1.6c0,1.71-0.21,2.67-0.09,4.12" transform="matrix(1,0,0,1,1696,-4)" class="stroke_order_diagram--existing_path"></path><path id="pathSk2v596cn1jk3" kvg:type="㇐" d="M15.5,34.09c0.9,0.15,2.79,0.2,3.62,0.21c7.13,0.1,22.13-2.15,29.96-2.64c1.4-0.09,2.12,0.02,3.17,0.27" transform="matrix(1,0,0,1,1696,-4)" class="stroke_order_diagram--existing_path"></path><path id="pathSk2v596cn1jk4" kvg:type="㇆a" d="M32.93,37.91C36.27,38.97,41,39,44.74,38.98c0.63,0,1.25,0.96,1.14,1.66c-0.28,1.87-5.86,9.02-8.24,10.54c-2.59,1.65-3.89-0.68-4.58-1.79" transform="matrix(1,0,0,1,1696,-4)" class="stroke_order_diagram--existing_path"></path><path id="pathSk2v596cn1jk5" kvg:type="㇒" d="M32.06,35.44c0.25,0.48,0.2,1.02-0.1,1.56c-2.05,3.71-7.71,9.51-17.17,14.73" transform="matrix(1,0,0,1,1696,-4)" class="stroke_order_diagram--existing_path"></path><path id="pathSk2v596cn1jk6" kvg:type="㇒" d="M66.6,9.35c0.03,0.43,0.08,1.11-0.06,1.71C65.6,15.2,62.25,22,55.77,28.54" transform="matrix(1,0,0,1,1696,-4)" class="stroke_order_diagram--existing_path"></path><path id="pathSk2v596cn1jk7" kvg:type="㇐" d="M65.58,20.4c0.03-0.1,1.54,0.29,2.09,0.26c5.67-0.3,11.36-2.91,20.01-3.39c0.97-0.05,1.57-0.01,1.82,0.05" transform="matrix(1,0,0,1,1696,-4)" class="stroke_order_diagram--existing_path"></path><path id="pathSk2v596cn1jk8" kvg:type="㇒" d="M78.54,22.48c0.42,0.64,0.64,1.11,0.21,2.28c-3.94,10.71-12.92,20.27-25.87,23.99" transform="matrix(1,0,0,1,1696,-4)" class="stroke_order_diagram--existing_path"></path><path id="pathSk2v596cn1jk9" kvg:type="㇏" d="M61.24,29.04C67.25,31.75,79,42.5,89.11,46.92c1.66,0.73,2.76,0.78,4.14,0.85" transform="matrix(1,0,0,1,1696,-4)" class="stroke_order_diagram--existing_path"></path><path id="pathSk2v596cn1jka" kvg:type="㇑" d="M37.15,55.79c0.52,0.69,1.28,1.19,1.28,2.12c0,0.94,0.24,24.99-0.38,28.92" transform="matrix(1,0,0,1,1696,-4)" class="stroke_order_diagram--existing_path"></path><path id="pathSk2v596cn1jkb" kvg:type="㇕a" d="M39.3,57.21c2.95-0.2,26.96-2.48,29.63-2.9c1.79-0.28,3.16,0.84,3.44,2.28C72.75,58.65,71.7,85,71.7,85.69" transform="matrix(1,0,0,1,1696,-4)" class="stroke_order_diagram--existing_path"></path><path id="pathSk2v596cn1jkc" kvg:type="㇐a" d="M38.49,66.44c5.52-0.42,28.41-2.11,33.14-2.25" transform="matrix(1,0,0,1,1696,-4)" class="stroke_order_diagram--existing_path"></path><path id="pathSk2v596cn1jkd" kvg:type="㇐a" d="M38.73,75.54c8.32-0.74,24.11-1.66,32.93-2.01" transform="matrix(1,0,0,1,1696,-4)" class="stroke_order_diagram--existing_path"></path><path id="pathSk2v596cn1jke" kvg:type="㇐a" d="M38.35,85c8.32-0.61,25.73-1.55,33.31-1.77" transform="matrix(1,0,0,1,1696,-4)" class="stroke_order_diagram--existing_path"></path><path id="pathSk2v596cn1jkf" kvg:type="㇒" d="M43.56,89.32c0.51,0.96-0.39,1.9-1.4,2.59c-3.07,2.11-11.13,6.6-17.26,9.09" transform="matrix(1,0,0,1,1696,-4)" class="stroke_order_diagram--existing_path"></path><path id="kvg:08d05-s18" kvg:type="㇔" d="M63.55,88.73c7.05,3.15,15.38,8.87,17.3,11.62" transform="matrix(1,0,0,1,1696,-4)" class="stroke_order_diagram--current_path"></path><path id="pathSk2v596cn1jkh" kvg:type="㇔" d="M63.55,88.73c7.05,3.15,15.38,8.87,17.3,11.62" transform="matrix(1,0,0,1,1696,-4)" class="stroke_order_diagram--current_path"></path><circle cx="63.55" cy="88.73" r="8" class="stroke_order_diagram--path_start" transform="matrix(1,0,0,1,1696,-4)"></circle></svg>