<svg style="width: 1200px; height: 100px;" viewbox="0 0 1200 100"><style>
.stroke_order_diagram--outer_container {
  width: 100%;
  overflow-x: auto;
  overflow-y: hidden;
}

.stroke_order_diagram--guide_line {
  fill: none;
  stroke: #ddd;
  stroke-width: 3;
  stroke-linecap: square;
  stroke-linejoin: square;
  stroke-dasharray:8, 8;
}

.stroke_order_diagram--bounding_box {
  fill: none;
  stroke: #ddd;
  stroke-width: 4;
  stroke-linecap: square;
  stroke-linejoin: square;
}

.stroke_order_diagram--current_path {
  fill: none;
  stroke: #000;
  stroke-width: 6;
  stroke-linecap: round;
  stroke-linejoin: round;
}

.stroke_order_diagram--existing_path {
  fill: none;
  stroke: #aaa;
  stroke-width: 6;
  stroke-linecap: round;
  stroke-linejoin:round;
}

.stroke_order_diagram--path_start {
  fill: rgba(255, 0, 0, 0.7);
  stroke:none
}</style><desc>Created with Snap</desc><defs></defs><line x1="1" x2="1199" y1="1" y2="1" class="stroke_order_diagram--bounding_box"></line><line x1="1" x2="1" y1="1" y2="99" class="stroke_order_diagram--bounding_box"></line><line x1="1" x2="1199" y1="99" y2="99" class="stroke_order_diagram--bounding_box"></line><line x1="0" x2="1200" y1="50" y2="50" class="stroke_order_diagram--guide_line"></line><line x1="50" x2="50" y1="1" y2="99" class="stroke_order_diagram--guide_line"></line><line x1="99" x2="99" y1="1" y2="99" class="stroke_order_diagram--bounding_box"></line><path id="kvg:08d8a-s1" kvg:type="㇐" d="M18.69,30.41c1.53,0.65,2.98,0.48,4.58,0.33c5.41-0.52,13.44-1.73,18.24-2.25c1.24-0.13,2.24-0.24,3.55-0.11" transform="matrix(1,0,0,1,-4,-4)" class="stroke_order_diagram--current_path"></path><path id="pathSk2v596cn246r" kvg:type="㇐" d="M18.69,30.41c1.53,0.65,2.98,0.48,4.58,0.33c5.41-0.52,13.44-1.73,18.24-2.25c1.24-0.13,2.24-0.24,3.55-0.11" transform="matrix(1,0,0,1,-4,-4)" class="stroke_order_diagram--current_path"></path><circle cx="18.69" cy="30.41" r="8" class="stroke_order_diagram--path_start" transform="matrix(1,0,0,1,-4,-4)"></circle><line x1="150" x2="150" y1="1" y2="99" class="stroke_order_diagram--guide_line"></line><line x1="199" x2="199" y1="1" y2="99" class="stroke_order_diagram--bounding_box"></line><path id="pathSk2v596cn246u" kvg:type="㇐" d="M18.69,30.41c1.53,0.65,2.98,0.48,4.58,0.33c5.41-0.52,13.44-1.73,18.24-2.25c1.24-0.13,2.24-0.24,3.55-0.11" transform="matrix(1,0,0,1,96,-4)" class="stroke_order_diagram--existing_path"></path><path id="kvg:08d8a-s2" kvg:type="㇑a" d="M32.9,13.83c1.02,1.02,1.23,2.16,1.23,3.42c0,8.38,0.02,22.77,0.02,25.62" transform="matrix(1,0,0,1,96,-4)" class="stroke_order_diagram--current_path"></path><path id="pathSk2v596cn246w" kvg:type="㇑a" d="M32.9,13.83c1.02,1.02,1.23,2.16,1.23,3.42c0,8.38,0.02,22.77,0.02,25.62" transform="matrix(1,0,0,1,96,-4)" class="stroke_order_diagram--current_path"></path><circle cx="32.9" cy="13.83" r="8" class="stroke_order_diagram--path_start" transform="matrix(1,0,0,1,96,-4)"></circle><line x1="250" x2="250" y1="1" y2="99" class="stroke_order_diagram--guide_line"></line><line x1="299" x2="299" y1="1" y2="99" class="stroke_order_diagram--bounding_box"></line><path id="pathSk2v596cn246z" kvg:type="㇐" d="M18.69,30.41c1.53,0.65,2.98,0.48,4.58,0.33c5.41-0.52,13.44-1.73,18.24-2.25c1.24-0.13,2.24-0.24,3.55-0.11" transform="matrix(1,0,0,1,196,-4)" class="stroke_order_diagram--existing_path"></path><path id="pathSk2v596cn2470" kvg:type="㇑a" d="M32.9,13.83c1.02,1.02,1.23,2.16,1.23,3.42c0,8.38,0.02,22.77,0.02,25.62" transform="matrix(1,0,0,1,196,-4)" class="stroke_order_diagram--existing_path"></path><path id="kvg:08d8a-s3" kvg:type="㇐" d="M14.46,46.12c1.67,0.76,4.17,0.45,5.92,0.17c7.19-1.16,14.94-2.3,21.38-3.11c1.93-0.24,4.24-0.31,6.03,0.04" transform="matrix(1,0,0,1,196,-4)" class="stroke_order_diagram--current_path"></path><path id="pathSk2v596cn2472" kvg:type="㇐" d="M14.46,46.12c1.67,0.76,4.17,0.45,5.92,0.17c7.19-1.16,14.94-2.3,21.38-3.11c1.93-0.24,4.24-0.31,6.03,0.04" transform="matrix(1,0,0,1,196,-4)" class="stroke_order_diagram--current_path"></path><circle cx="14.46" cy="46.12" r="8" class="stroke_order_diagram--path_start" transform="matrix(1,0,0,1,196,-4)"></circle><line x1="350" x2="350" y1="1" y2="99" class="stroke_order_diagram--guide_line"></line><line x1="399" x2="399" y1="1" y2="99" class="stroke_order_diagram--bounding_box"></line><path id="pathSk2v596cn2475" kvg:type="㇐" d="M18.69,30.41c1.53,0.65,2.98,0.48,4.58,0.33c5.41-0.52,13.44-1.73,18.24-2.25c1.24-0.13,2.24-0.24,3.55-0.11" transform="matrix(1,0,0,1,296,-4)" class="stroke_order_diagram--existing_path"></path><path id="pathSk2v596cn2476" kvg:type="㇑a" d="M32.9,13.83c1.02,1.02,1.23,2.16,1.23,3.42c0,8.38,0.02,22.77,0.02,25.62" transform="matrix(1,0,0,1,296,-4)" class="stroke_order_diagram--existing_path"></path><path id="pathSk2v596cn2477" kvg:type="㇐" d="M14.46,46.12c1.67,0.76,4.17,0.45,5.92,0.17c7.19-1.16,14.94-2.3,21.38-3.11c1.93-0.24,4.24-0.31,6.03,0.04" transform="matrix(1,0,0,1,296,-4)" class="stroke_order_diagram--existing_path"></path><path id="kvg:08d8a-s4" kvg:type="㇑a" d="M33.29,46.55c0.83,0.83,1.16,2.08,1.16,3.29c0,0.96-0.07,20.77-0.07,27.78" transform="matrix(1,0,0,1,296,-4)" class="stroke_order_diagram--current_path"></path><path id="pathSk2v596cn2479" kvg:type="㇑a" d="M33.29,46.55c0.83,0.83,1.16,2.08,1.16,3.29c0,0.96-0.07,20.77-0.07,27.78" transform="matrix(1,0,0,1,296,-4)" class="stroke_order_diagram--current_path"></path><circle cx="33.29" cy="46.55" r="8" class="stroke_order_diagram--path_start" transform="matrix(1,0,0,1,296,-4)"></circle><line x1="450" x2="450" y1="1" y2="99" class="stroke_order_diagram--guide_line"></line><line x1="499" x2="499" y1="1" y2="99" class="stroke_order_diagram--bounding_box"></line><path id="pathSk2v596cn247c" kvg:type="㇐" d="M18.69,30.41c1.53,0.65,2.98,0.48,4.58,0.33c5.41-0.52,13.44-1.73,18.24-2.25c1.24-0.13,2.24-0.24,3.55-0.11" transform="matrix(1,0,0,1,396,-4)" class="stroke_order_diagram--existing_path"></path><path id="pathSk2v596cn247d" kvg:type="㇑a" d="M32.9,13.83c1.02,1.02,1.23,2.16,1.23,3.42c0,8.38,0.02,22.77,0.02,25.62" transform="matrix(1,0,0,1,396,-4)" class="stroke_order_diagram--existing_path"></path><path id="pathSk2v596cn247e" kvg:type="㇐" d="M14.46,46.12c1.67,0.76,4.17,0.45,5.92,0.17c7.19-1.16,14.94-2.3,21.38-3.11c1.93-0.24,4.24-0.31,6.03,0.04" transform="matrix(1,0,0,1,396,-4)" class="stroke_order_diagram--existing_path"></path><path id="pathSk2v596cn247f" kvg:type="㇑a" d="M33.29,46.55c0.83,0.83,1.16,2.08,1.16,3.29c0,0.96-0.07,20.77-0.07,27.78" transform="matrix(1,0,0,1,396,-4)" class="stroke_order_diagram--existing_path"></path><path id="kvg:08d8a-s5" kvg:type="㇐c" d="M35.57,61.34c3.94-0.47,8.26-1.69,9.96-1.69c1.03,0,1.64-0.08,2.16,0.1" transform="matrix(1,0,0,1,396,-4)" class="stroke_order_diagram--current_path"></path><path id="pathSk2v596cn247h" kvg:type="㇐c" d="M35.57,61.34c3.94-0.47,8.26-1.69,9.96-1.69c1.03,0,1.64-0.08,2.16,0.1" transform="matrix(1,0,0,1,396,-4)" class="stroke_order_diagram--current_path"></path><circle cx="35.57" cy="61.34" r="8" class="stroke_order_diagram--path_start" transform="matrix(1,0,0,1,396,-4)"></circle><line x1="550" x2="550" y1="1" y2="99" class="stroke_order_diagram--guide_line"></line><line x1="599" x2="599" y1="1" y2="99" class="stroke_order_diagram--bounding_box"></line><path id="pathSk2v596cn247k" kvg:type="㇐" d="M18.69,30.41c1.53,0.65,2.98,0.48,4.58,0.33c5.41-0.52,13.44-1.73,18.24-2.25c1.24-0.13,2.24-0.24,3.55-0.11" transform="matrix(1,0,0,1,496,-4)" class="stroke_order_diagram--existing_path"></path><path id="pathSk2v596cn247l" kvg:type="㇑a" d="M32.9,13.83c1.02,1.02,1.23,2.16,1.23,3.42c0,8.38,0.02,22.77,0.02,25.62" transform="matrix(1,0,0,1,496,-4)" class="stroke_order_diagram--existing_path"></path><path id="pathSk2v596cn247m" kvg:type="㇐" d="M14.46,46.12c1.67,0.76,4.17,0.45,5.92,0.17c7.19-1.16,14.94-2.3,21.38-3.11c1.93-0.24,4.24-0.31,6.03,0.04" transform="matrix(1,0,0,1,496,-4)" class="stroke_order_diagram--existing_path"></path><path id="pathSk2v596cn247n" kvg:type="㇑a" d="M33.29,46.55c0.83,0.83,1.16,2.08,1.16,3.29c0,0.96-0.07,20.77-0.07,27.78" transform="matrix(1,0,0,1,496,-4)" class="stroke_order_diagram--existing_path"></path><path id="pathSk2v596cn247o" kvg:type="㇐c" d="M35.57,61.34c3.94-0.47,8.26-1.69,9.96-1.69c1.03,0,1.64-0.08,2.16,0.1" transform="matrix(1,0,0,1,496,-4)" class="stroke_order_diagram--existing_path"></path><path id="kvg:08d8a-s6" kvg:type="㇒" d="M22.02,56.8c0.48,1.07,0.32,2.29,0.18,3.57c-0.85,7.52-3.7,22.38-12.2,33.9" transform="matrix(1,0,0,1,496,-4)" class="stroke_order_diagram--current_path"></path><path id="pathSk2v596cn247q" kvg:type="㇒" d="M22.02,56.8c0.48,1.07,0.32,2.29,0.18,3.57c-0.85,7.52-3.7,22.38-12.2,33.9" transform="matrix(1,0,0,1,496,-4)" class="stroke_order_diagram--current_path"></path><circle cx="22.02" cy="56.8" r="8" class="stroke_order_diagram--path_start" transform="matrix(1,0,0,1,496,-4)"></circle><line x1="650" x2="650" y1="1" y2="99" class="stroke_order_diagram--guide_line"></line><line x1="699" x2="699" y1="1" y2="99" class="stroke_order_diagram--bounding_box"></line><path id="pathSk2v596cn247t" kvg:type="㇐" d="M18.69,30.41c1.53,0.65,2.98,0.48,4.58,0.33c5.41-0.52,13.44-1.73,18.24-2.25c1.24-0.13,2.24-0.24,3.55-0.11" transform="matrix(1,0,0,1,596,-4)" class="stroke_order_diagram--existing_path"></path><path id="pathSk2v596cn247u" kvg:type="㇑a" d="M32.9,13.83c1.02,1.02,1.23,2.16,1.23,3.42c0,8.38,0.02,22.77,0.02,25.62" transform="matrix(1,0,0,1,596,-4)" class="stroke_order_diagram--existing_path"></path><path id="pathSk2v596cn247v" kvg:type="㇐" d="M14.46,46.12c1.67,0.76,4.17,0.45,5.92,0.17c7.19-1.16,14.94-2.3,21.38-3.11c1.93-0.24,4.24-0.31,6.03,0.04" transform="matrix(1,0,0,1,596,-4)" class="stroke_order_diagram--existing_path"></path><path id="pathSk2v596cn247w" kvg:type="㇑a" d="M33.29,46.55c0.83,0.83,1.16,2.08,1.16,3.29c0,0.96-0.07,20.77-0.07,27.78" transform="matrix(1,0,0,1,596,-4)" class="stroke_order_diagram--existing_path"></path><path id="pathSk2v596cn247x" kvg:type="㇐c" d="M35.57,61.34c3.94-0.47,8.26-1.69,9.96-1.69c1.03,0,1.64-0.08,2.16,0.1" transform="matrix(1,0,0,1,596,-4)" class="stroke_order_diagram--existing_path"></path><path id="pathSk2v596cn247y" kvg:type="㇒" d="M22.02,56.8c0.48,1.07,0.32,2.29,0.18,3.57c-0.85,7.52-3.7,22.38-12.2,33.9" transform="matrix(1,0,0,1,596,-4)" class="stroke_order_diagram--existing_path"></path><path id="kvg:08d8a-s7" kvg:type="㇏" d="M20.67,74.74C31.86,77.06,60.07,88.75,75,93.17c5.17,1.53,10.56,2.67,15.89,3.49" transform="matrix(1,0,0,1,596,-4)" class="stroke_order_diagram--current_path"></path><path id="pathSk2v596cn2480" kvg:type="㇏" d="M20.67,74.74C31.86,77.06,60.07,88.75,75,93.17c5.17,1.53,10.56,2.67,15.89,3.49" transform="matrix(1,0,0,1,596,-4)" class="stroke_order_diagram--current_path"></path><circle cx="20.67" cy="74.74" r="8" class="stroke_order_diagram--path_start" transform="matrix(1,0,0,1,596,-4)"></circle><line x1="750" x2="750" y1="1" y2="99" class="stroke_order_diagram--guide_line"></line><line x1="799" x2="799" y1="1" y2="99" class="stroke_order_diagram--bounding_box"></line><path id="pathSk2v596cn2483" kvg:type="㇐" d="M18.69,30.41c1.53,0.65,2.98,0.48,4.58,0.33c5.41-0.52,13.44-1.73,18.24-2.25c1.24-0.13,2.24-0.24,3.55-0.11" transform="matrix(1,0,0,1,696,-4)" class="stroke_order_diagram--existing_path"></path><path id="pathSk2v596cn2484" kvg:type="㇑a" d="M32.9,13.83c1.02,1.02,1.23,2.16,1.23,3.42c0,8.38,0.02,22.77,0.02,25.62" transform="matrix(1,0,0,1,696,-4)" class="stroke_order_diagram--existing_path"></path><path id="pathSk2v596cn2485" kvg:type="㇐" d="M14.46,46.12c1.67,0.76,4.17,0.45,5.92,0.17c7.19-1.16,14.94-2.3,21.38-3.11c1.93-0.24,4.24-0.31,6.03,0.04" transform="matrix(1,0,0,1,696,-4)" class="stroke_order_diagram--existing_path"></path><path id="pathSk2v596cn2486" kvg:type="㇑a" d="M33.29,46.55c0.83,0.83,1.16,2.08,1.16,3.29c0,0.96-0.07,20.77-0.07,27.78" transform="matrix(1,0,0,1,696,-4)" class="stroke_order_diagram--existing_path"></path><path id="pathSk2v596cn2487" kvg:type="㇐c" d="M35.57,61.34c3.94-0.47,8.26-1.69,9.96-1.69c1.03,0,1.64-0.08,2.16,0.1" transform="matrix(1,0,0,1,696,-4)" class="stroke_order_diagram--existing_path"></path><path id="pathSk2v596cn2488" kvg:type="㇒" d="M22.02,56.8c0.48,1.07,0.32,2.29,0.18,3.57c-0.85,7.52-3.7,22.38-12.2,33.9" transform="matrix(1,0,0,1,696,-4)" class="stroke_order_diagram--existing_path"></path><path id="pathSk2v596cn2489" kvg:type="㇏" d="M20.67,74.74C31.86,77.06,60.07,88.75,75,93.17c5.17,1.53,10.56,2.67,15.89,3.49" transform="matrix(1,0,0,1,696,-4)" class="stroke_order_diagram--existing_path"></path><path id="kvg:08d8a-s8" kvg:type="㇙" d="M53.77,36.45c0.83,0.83,1.18,1.93,1.18,3.05c0,0.79-0.22,30.03-0.37,31.98c-0.13,1.76,0.68,2.41,2.14,0.97c4.78-4.7,7.4-7.2,12.68-11.82" transform="matrix(1,0,0,1,696,-4)" class="stroke_order_diagram--current_path"></path><path id="pathSk2v596cn248b" kvg:type="㇙" d="M53.77,36.45c0.83,0.83,1.18,1.93,1.18,3.05c0,0.79-0.22,30.03-0.37,31.98c-0.13,1.76,0.68,2.41,2.14,0.97c4.78-4.7,7.4-7.2,12.68-11.82" transform="matrix(1,0,0,1,696,-4)" class="stroke_order_diagram--current_path"></path><circle cx="53.77" cy="36.45" r="8" class="stroke_order_diagram--path_start" transform="matrix(1,0,0,1,696,-4)"></circle><line x1="850" x2="850" y1="1" y2="99" class="stroke_order_diagram--guide_line"></line><line x1="899" x2="899" y1="1" y2="99" class="stroke_order_diagram--bounding_box"></line><path id="pathSk2v596cn248e" kvg:type="㇐" d="M18.69,30.41c1.53,0.65,2.98,0.48,4.58,0.33c5.41-0.52,13.44-1.73,18.24-2.25c1.24-0.13,2.24-0.24,3.55-0.11" transform="matrix(1,0,0,1,796,-4)" class="stroke_order_diagram--existing_path"></path><path id="pathSk2v596cn248f" kvg:type="㇑a" d="M32.9,13.83c1.02,1.02,1.23,2.16,1.23,3.42c0,8.38,0.02,22.77,0.02,25.62" transform="matrix(1,0,0,1,796,-4)" class="stroke_order_diagram--existing_path"></path><path id="pathSk2v596cn248g" kvg:type="㇐" d="M14.46,46.12c1.67,0.76,4.17,0.45,5.92,0.17c7.19-1.16,14.94-2.3,21.38-3.11c1.93-0.24,4.24-0.31,6.03,0.04" transform="matrix(1,0,0,1,796,-4)" class="stroke_order_diagram--existing_path"></path><path id="pathSk2v596cn248h" kvg:type="㇑a" d="M33.29,46.55c0.83,0.83,1.16,2.08,1.16,3.29c0,0.96-0.07,20.77-0.07,27.78" transform="matrix(1,0,0,1,796,-4)" class="stroke_order_diagram--existing_path"></path><path id="pathSk2v596cn248i" kvg:type="㇐c" d="M35.57,61.34c3.94-0.47,8.26-1.69,9.96-1.69c1.03,0,1.64-0.08,2.16,0.1" transform="matrix(1,0,0,1,796,-4)" class="stroke_order_diagram--existing_path"></path><path id="pathSk2v596cn248j" kvg:type="㇒" d="M22.02,56.8c0.48,1.07,0.32,2.29,0.18,3.57c-0.85,7.52-3.7,22.38-12.2,33.9" transform="matrix(1,0,0,1,796,-4)" class="stroke_order_diagram--existing_path"></path><path id="pathSk2v596cn248k" kvg:type="㇏" d="M20.67,74.74C31.86,77.06,60.07,88.75,75,93.17c5.17,1.53,10.56,2.67,15.89,3.49" transform="matrix(1,0,0,1,796,-4)" class="stroke_order_diagram--existing_path"></path><path id="pathSk2v596cn248l" kvg:type="㇙" d="M53.77,36.45c0.83,0.83,1.18,1.93,1.18,3.05c0,0.79-0.22,30.03-0.37,31.98c-0.13,1.76,0.68,2.41,2.14,0.97c4.78-4.7,7.4-7.2,12.68-11.82" transform="matrix(1,0,0,1,796,-4)" class="stroke_order_diagram--existing_path"></path><path id="kvg:08d8a-s9" kvg:type="㇐" d="M51.59,35.57C53.5,36,55.31,35.89,57,35.76C67,35,75.38,33.5,83.51,31.58c1.34-0.32,3.61-0.54,4.96-0.13" transform="matrix(1,0,0,1,796,-4)" class="stroke_order_diagram--current_path"></path><path id="pathSk2v596cn248n" kvg:type="㇐" d="M51.59,35.57C53.5,36,55.31,35.89,57,35.76C67,35,75.38,33.5,83.51,31.58c1.34-0.32,3.61-0.54,4.96-0.13" transform="matrix(1,0,0,1,796,-4)" class="stroke_order_diagram--current_path"></path><circle cx="51.59" cy="35.57" r="8" class="stroke_order_diagram--path_start" transform="matrix(1,0,0,1,796,-4)"></circle><line x1="950" x2="950" y1="1" y2="99" class="stroke_order_diagram--guide_line"></line><line x1="999" x2="999" y1="1" y2="99" class="stroke_order_diagram--bounding_box"></line><path id="pathSk2v596cn248q" kvg:type="㇐" d="M18.69,30.41c1.53,0.65,2.98,0.48,4.58,0.33c5.41-0.52,13.44-1.73,18.24-2.25c1.24-0.13,2.24-0.24,3.55-0.11" transform="matrix(1,0,0,1,896,-4)" class="stroke_order_diagram--existing_path"></path><path id="pathSk2v596cn248r" kvg:type="㇑a" d="M32.9,13.83c1.02,1.02,1.23,2.16,1.23,3.42c0,8.38,0.02,22.77,0.02,25.62" transform="matrix(1,0,0,1,896,-4)" class="stroke_order_diagram--existing_path"></path><path id="pathSk2v596cn248s" kvg:type="㇐" d="M14.46,46.12c1.67,0.76,4.17,0.45,5.92,0.17c7.19-1.16,14.94-2.3,21.38-3.11c1.93-0.24,4.24-0.31,6.03,0.04" transform="matrix(1,0,0,1,896,-4)" class="stroke_order_diagram--existing_path"></path><path id="pathSk2v596cn248t" kvg:type="㇑a" d="M33.29,46.55c0.83,0.83,1.16,2.08,1.16,3.29c0,0.96-0.07,20.77-0.07,27.78" transform="matrix(1,0,0,1,896,-4)" class="stroke_order_diagram--existing_path"></path><path id="pathSk2v596cn248u" kvg:type="㇐c" d="M35.57,61.34c3.94-0.47,8.26-1.69,9.96-1.69c1.03,0,1.64-0.08,2.16,0.1" transform="matrix(1,0,0,1,896,-4)" class="stroke_order_diagram--existing_path"></path><path id="pathSk2v596cn248v" kvg:type="㇒" d="M22.02,56.8c0.48,1.07,0.32,2.29,0.18,3.57c-0.85,7.52-3.7,22.38-12.2,33.9" transform="matrix(1,0,0,1,896,-4)" class="stroke_order_diagram--existing_path"></path><path id="pathSk2v596cn248w" kvg:type="㇏" d="M20.67,74.74C31.86,77.06,60.07,88.75,75,93.17c5.17,1.53,10.56,2.67,15.89,3.49" transform="matrix(1,0,0,1,896,-4)" class="stroke_order_diagram--existing_path"></path><path id="pathSk2v596cn248x" kvg:type="㇙" d="M53.77,36.45c0.83,0.83,1.18,1.93,1.18,3.05c0,0.79-0.22,30.03-0.37,31.98c-0.13,1.76,0.68,2.41,2.14,0.97c4.78-4.7,7.4-7.2,12.68-11.82" transform="matrix(1,0,0,1,896,-4)" class="stroke_order_diagram--existing_path"></path><path id="pathSk2v596cn248y" kvg:type="㇐" d="M51.59,35.57C53.5,36,55.31,35.89,57,35.76C67,35,75.38,33.5,83.51,31.58c1.34-0.32,3.61-0.54,4.96-0.13" transform="matrix(1,0,0,1,896,-4)" class="stroke_order_diagram--existing_path"></path><path id="kvg:08d8a-s10" kvg:type="㇂" d="M63.41,11.21c1.29,1.51,1.71,2.94,2.02,6.18C68,43.81,75.46,66.29,88.66,78.73c5.59,5.27,6.59,4.65,5.75-4.29" transform="matrix(1,0,0,1,896,-4)" class="stroke_order_diagram--current_path"></path><path id="pathSk2v596cn2490" kvg:type="㇂" d="M63.41,11.21c1.29,1.51,1.71,2.94,2.02,6.18C68,43.81,75.46,66.29,88.66,78.73c5.59,5.27,6.59,4.65,5.75-4.29" transform="matrix(1,0,0,1,896,-4)" class="stroke_order_diagram--current_path"></path><circle cx="63.41" cy="11.21" r="8" class="stroke_order_diagram--path_start" transform="matrix(1,0,0,1,896,-4)"></circle><line x1="1050" x2="1050" y1="1" y2="99" class="stroke_order_diagram--guide_line"></line><line x1="1099" x2="1099" y1="1" y2="99" class="stroke_order_diagram--bounding_box"></line><path id="pathSk2v596cn2493" kvg:type="㇐" d="M18.69,30.41c1.53,0.65,2.98,0.48,4.58,0.33c5.41-0.52,13.44-1.73,18.24-2.25c1.24-0.13,2.24-0.24,3.55-0.11" transform="matrix(1,0,0,1,996,-4)" class="stroke_order_diagram--existing_path"></path><path id="pathSk2v596cn2494" kvg:type="㇑a" d="M32.9,13.83c1.02,1.02,1.23,2.16,1.23,3.42c0,8.38,0.02,22.77,0.02,25.62" transform="matrix(1,0,0,1,996,-4)" class="stroke_order_diagram--existing_path"></path><path id="pathSk2v596cn2495" kvg:type="㇐" d="M14.46,46.12c1.67,0.76,4.17,0.45,5.92,0.17c7.19-1.16,14.94-2.3,21.38-3.11c1.93-0.24,4.24-0.31,6.03,0.04" transform="matrix(1,0,0,1,996,-4)" class="stroke_order_diagram--existing_path"></path><path id="pathSk2v596cn2496" kvg:type="㇑a" d="M33.29,46.55c0.83,0.83,1.16,2.08,1.16,3.29c0,0.96-0.07,20.77-0.07,27.78" transform="matrix(1,0,0,1,996,-4)" class="stroke_order_diagram--existing_path"></path><path id="pathSk2v596cn2497" kvg:type="㇐c" d="M35.57,61.34c3.94-0.47,8.26-1.69,9.96-1.69c1.03,0,1.64-0.08,2.16,0.1" transform="matrix(1,0,0,1,996,-4)" class="stroke_order_diagram--existing_path"></path><path id="pathSk2v596cn2498" kvg:type="㇒" d="M22.02,56.8c0.48,1.07,0.32,2.29,0.18,3.57c-0.85,7.52-3.7,22.38-12.2,33.9" transform="matrix(1,0,0,1,996,-4)" class="stroke_order_diagram--existing_path"></path><path id="pathSk2v596cn2499" kvg:type="㇏" d="M20.67,74.74C31.86,77.06,60.07,88.75,75,93.17c5.17,1.53,10.56,2.67,15.89,3.49" transform="matrix(1,0,0,1,996,-4)" class="stroke_order_diagram--existing_path"></path><path id="pathSk2v596cn249a" kvg:type="㇙" d="M53.77,36.45c0.83,0.83,1.18,1.93,1.18,3.05c0,0.79-0.22,30.03-0.37,31.98c-0.13,1.76,0.68,2.41,2.14,0.97c4.78-4.7,7.4-7.2,12.68-11.82" transform="matrix(1,0,0,1,996,-4)" class="stroke_order_diagram--existing_path"></path><path id="pathSk2v596cn249b" kvg:type="㇐" d="M51.59,35.57C53.5,36,55.31,35.89,57,35.76C67,35,75.38,33.5,83.51,31.58c1.34-0.32,3.61-0.54,4.96-0.13" transform="matrix(1,0,0,1,996,-4)" class="stroke_order_diagram--existing_path"></path><path id="pathSk2v596cn249c" kvg:type="㇂" d="M63.41,11.21c1.29,1.51,1.71,2.94,2.02,6.18C68,43.81,75.46,66.29,88.66,78.73c5.59,5.27,6.59,4.65,5.75-4.29" transform="matrix(1,0,0,1,996,-4)" class="stroke_order_diagram--existing_path"></path><path id="kvg:08d8a-s11" kvg:type="㇒" d="M87.28,41.17c0.06,0.88,0.13,2.28-0.12,3.55c-1.49,7.48-10.07,24.71-21.8,34.75" transform="matrix(1,0,0,1,996,-4)" class="stroke_order_diagram--current_path"></path><path id="pathSk2v596cn249e" kvg:type="㇒" d="M87.28,41.17c0.06,0.88,0.13,2.28-0.12,3.55c-1.49,7.48-10.07,24.71-21.8,34.75" transform="matrix(1,0,0,1,996,-4)" class="stroke_order_diagram--current_path"></path><circle cx="87.28" cy="41.17" r="8" class="stroke_order_diagram--path_start" transform="matrix(1,0,0,1,996,-4)"></circle><line x1="1150" x2="1150" y1="1" y2="99" class="stroke_order_diagram--guide_line"></line><line x1="1199" x2="1199" y1="1" y2="99" class="stroke_order_diagram--bounding_box"></line><path id="pathSk2v596cn249h" kvg:type="㇐" d="M18.69,30.41c1.53,0.65,2.98,0.48,4.58,0.33c5.41-0.52,13.44-1.73,18.24-2.25c1.24-0.13,2.24-0.24,3.55-0.11" transform="matrix(1,0,0,1,1096,-4)" class="stroke_order_diagram--existing_path"></path><path id="pathSk2v596cn249i" kvg:type="㇑a" d="M32.9,13.83c1.02,1.02,1.23,2.16,1.23,3.42c0,8.38,0.02,22.77,0.02,25.62" transform="matrix(1,0,0,1,1096,-4)" class="stroke_order_diagram--existing_path"></path><path id="pathSk2v596cn249j" kvg:type="㇐" d="M14.46,46.12c1.67,0.76,4.17,0.45,5.92,0.17c7.19-1.16,14.94-2.3,21.38-3.11c1.93-0.24,4.24-0.31,6.03,0.04" transform="matrix(1,0,0,1,1096,-4)" class="stroke_order_diagram--existing_path"></path><path id="pathSk2v596cn249k" kvg:type="㇑a" d="M33.29,46.55c0.83,0.83,1.16,2.08,1.16,3.29c0,0.96-0.07,20.77-0.07,27.78" transform="matrix(1,0,0,1,1096,-4)" class="stroke_order_diagram--existing_path"></path><path id="pathSk2v596cn249l" kvg:type="㇐c" d="M35.57,61.34c3.94-0.47,8.26-1.69,9.96-1.69c1.03,0,1.64-0.08,2.16,0.1" transform="matrix(1,0,0,1,1096,-4)" class="stroke_order_diagram--existing_path"></path><path id="pathSk2v596cn249m" kvg:type="㇒" d="M22.02,56.8c0.48,1.07,0.32,2.29,0.18,3.57c-0.85,7.52-3.7,22.38-12.2,33.9" transform="matrix(1,0,0,1,1096,-4)" class="stroke_order_diagram--existing_path"></path><path id="pathSk2v596cn249n" kvg:type="㇏" d="M20.67,74.74C31.86,77.06,60.07,88.75,75,93.17c5.17,1.53,10.56,2.67,15.89,3.49" transform="matrix(1,0,0,1,1096,-4)" class="stroke_order_diagram--existing_path"></path><path id="pathSk2v596cn249o" kvg:type="㇙" d="M53.77,36.45c0.83,0.83,1.18,1.93,1.18,3.05c0,0.79-0.22,30.03-0.37,31.98c-0.13,1.76,0.68,2.41,2.14,0.97c4.78-4.7,7.4-7.2,12.68-11.82" transform="matrix(1,0,0,1,1096,-4)" class="stroke_order_diagram--existing_path"></path><path id="pathSk2v596cn249p" kvg:type="㇐" d="M51.59,35.57C53.5,36,55.31,35.89,57,35.76C67,35,75.38,33.5,83.51,31.58c1.34-0.32,3.61-0.54,4.96-0.13" transform="matrix(1,0,0,1,1096,-4)" class="stroke_order_diagram--existing_path"></path><path id="pathSk2v596cn249q" kvg:type="㇂" d="M63.41,11.21c1.29,1.51,1.71,2.94,2.02,6.18C68,43.81,75.46,66.29,88.66,78.73c5.59,5.27,6.59,4.65,5.75-4.29" transform="matrix(1,0,0,1,1096,-4)" class="stroke_order_diagram--existing_path"></path><path id="pathSk2v596cn249r" kvg:type="㇒" d="M87.28,41.17c0.06,0.88,0.13,2.28-0.12,3.55c-1.49,7.48-10.07,24.71-21.8,34.75" transform="matrix(1,0,0,1,1096,-4)" class="stroke_order_diagram--existing_path"></path><path id="kvg:08d8a-s12" kvg:type="㇔" d="M77.5,12.5c2.85,1.87,7.41,6.15,8.74,9.36" transform="matrix(1,0,0,1,1096,-4)" class="stroke_order_diagram--current_path"></path><path id="pathSk2v596cn249t" kvg:type="㇔" d="M77.5,12.5c2.85,1.87,7.41,6.15,8.74,9.36" transform="matrix(1,0,0,1,1096,-4)" class="stroke_order_diagram--current_path"></path><circle cx="77.5" cy="12.5" r="8" class="stroke_order_diagram--path_start" transform="matrix(1,0,0,1,1096,-4)"></circle></svg>