<svg style="width: 1100px; height: 100px;" viewbox="0 0 1100 100"><style>
.stroke_order_diagram--outer_container {
  width: 100%;
  overflow-x: auto;
  overflow-y: hidden;
}

.stroke_order_diagram--guide_line {
  fill: none;
  stroke: #ddd;
  stroke-width: 3;
  stroke-linecap: square;
  stroke-linejoin: square;
  stroke-dasharray:8, 8;
}

.stroke_order_diagram--bounding_box {
  fill: none;
  stroke: #ddd;
  stroke-width: 4;
  stroke-linecap: square;
  stroke-linejoin: square;
}

.stroke_order_diagram--current_path {
  fill: none;
  stroke: #000;
  stroke-width: 6;
  stroke-linecap: round;
  stroke-linejoin: round;
}

.stroke_order_diagram--existing_path {
  fill: none;
  stroke: #aaa;
  stroke-width: 6;
  stroke-linecap: round;
  stroke-linejoin:round;
}

.stroke_order_diagram--path_start {
  fill: rgba(255, 0, 0, 0.7);
  stroke:none
}</style><desc>Created with Snap</desc><defs></defs><line x1="1" x2="1099" y1="1" y2="1" class="stroke_order_diagram--bounding_box"></line><line x1="1" x2="1" y1="1" y2="99" class="stroke_order_diagram--bounding_box"></line><line x1="1" x2="1099" y1="99" y2="99" class="stroke_order_diagram--bounding_box"></line><line x1="0" x2="1100" y1="50" y2="50" class="stroke_order_diagram--guide_line"></line><line x1="50" x2="50" y1="1" y2="99" class="stroke_order_diagram--guide_line"></line><line x1="99" x2="99" y1="1" y2="99" class="stroke_order_diagram--bounding_box"></line><path id="kvg:08edf-s1" kvg:type="㇐" d="M14.83,28.96c1.87,0.05,3.67,0.46,5.56,0.18c5.87-0.85,15.12-2.1,22.87-3c1.7-0.2,3.27-0.51,4.92,0.09" transform="matrix(1,0,0,1,-4,-4)" class="stroke_order_diagram--current_path"></path><path id="pathSk2v596cn41zq" kvg:type="㇐" d="M14.83,28.96c1.87,0.05,3.67,0.46,5.56,0.18c5.87-0.85,15.12-2.1,22.87-3c1.7-0.2,3.27-0.51,4.92,0.09" transform="matrix(1,0,0,1,-4,-4)" class="stroke_order_diagram--current_path"></path><circle cx="14.83" cy="28.96" r="8" class="stroke_order_diagram--path_start" transform="matrix(1,0,0,1,-4,-4)"></circle><line x1="150" x2="150" y1="1" y2="99" class="stroke_order_diagram--guide_line"></line><line x1="199" x2="199" y1="1" y2="99" class="stroke_order_diagram--bounding_box"></line><path id="pathSk2v596cn41zt" kvg:type="㇐" d="M14.83,28.96c1.87,0.05,3.67,0.46,5.56,0.18c5.87-0.85,15.12-2.1,22.87-3c1.7-0.2,3.27-0.51,4.92,0.09" transform="matrix(1,0,0,1,96,-4)" class="stroke_order_diagram--existing_path"></path><path id="kvg:08edf-s2" kvg:type="㇑" d="M13.31,40.04c0.89,0.89,1.19,1.96,1.44,3.08c0.9,4.06,2.02,11.63,3.15,19.89c0.17,1.28,0.34,2.53,0.48,3.73" transform="matrix(1,0,0,1,96,-4)" class="stroke_order_diagram--current_path"></path><path id="pathSk2v596cn41zv" kvg:type="㇑" d="M13.31,40.04c0.89,0.89,1.19,1.96,1.44,3.08c0.9,4.06,2.02,11.63,3.15,19.89c0.17,1.28,0.34,2.53,0.48,3.73" transform="matrix(1,0,0,1,96,-4)" class="stroke_order_diagram--current_path"></path><circle cx="13.31" cy="40.04" r="8" class="stroke_order_diagram--path_start" transform="matrix(1,0,0,1,96,-4)"></circle><line x1="250" x2="250" y1="1" y2="99" class="stroke_order_diagram--guide_line"></line><line x1="299" x2="299" y1="1" y2="99" class="stroke_order_diagram--bounding_box"></line><path id="pathSk2v596cn41zy" kvg:type="㇐" d="M14.83,28.96c1.87,0.05,3.67,0.46,5.56,0.18c5.87-0.85,15.12-2.1,22.87-3c1.7-0.2,3.27-0.51,4.92,0.09" transform="matrix(1,0,0,1,196,-4)" class="stroke_order_diagram--existing_path"></path><path id="pathSk2v596cn41zz" kvg:type="㇑" d="M13.31,40.04c0.89,0.89,1.19,1.96,1.44,3.08c0.9,4.06,2.02,11.63,3.15,19.89c0.17,1.28,0.34,2.53,0.48,3.73" transform="matrix(1,0,0,1,196,-4)" class="stroke_order_diagram--existing_path"></path><path id="kvg:08edf-s3" kvg:type="㇕a" d="M15.48,41.47C24.13,39.93,38.02,38,45,37.5c3.42-0.24,5.21,0.24,4.81,4c-0.49,4.56-1.94,11.39-3.61,17.85c-0.26,1-0.52,1.98-0.77,2.94" transform="matrix(1,0,0,1,196,-4)" class="stroke_order_diagram--current_path"></path><path id="pathSk2v596cn4201" kvg:type="㇕a" d="M15.48,41.47C24.13,39.93,38.02,38,45,37.5c3.42-0.24,5.21,0.24,4.81,4c-0.49,4.56-1.94,11.39-3.61,17.85c-0.26,1-0.52,1.98-0.77,2.94" transform="matrix(1,0,0,1,196,-4)" class="stroke_order_diagram--current_path"></path><circle cx="15.48" cy="41.47" r="8" class="stroke_order_diagram--path_start" transform="matrix(1,0,0,1,196,-4)"></circle><line x1="350" x2="350" y1="1" y2="99" class="stroke_order_diagram--guide_line"></line><line x1="399" x2="399" y1="1" y2="99" class="stroke_order_diagram--bounding_box"></line><path id="pathSk2v596cn4204" kvg:type="㇐" d="M14.83,28.96c1.87,0.05,3.67,0.46,5.56,0.18c5.87-0.85,15.12-2.1,22.87-3c1.7-0.2,3.27-0.51,4.92,0.09" transform="matrix(1,0,0,1,296,-4)" class="stroke_order_diagram--existing_path"></path><path id="pathSk2v596cn4205" kvg:type="㇑" d="M13.31,40.04c0.89,0.89,1.19,1.96,1.44,3.08c0.9,4.06,2.02,11.63,3.15,19.89c0.17,1.28,0.34,2.53,0.48,3.73" transform="matrix(1,0,0,1,296,-4)" class="stroke_order_diagram--existing_path"></path><path id="pathSk2v596cn4206" kvg:type="㇕a" d="M15.48,41.47C24.13,39.93,38.02,38,45,37.5c3.42-0.24,5.21,0.24,4.81,4c-0.49,4.56-1.94,11.39-3.61,17.85c-0.26,1-0.52,1.98-0.77,2.94" transform="matrix(1,0,0,1,296,-4)" class="stroke_order_diagram--existing_path"></path><path id="kvg:08edf-s4" kvg:type="㇐a" d="M17.74,52.18c9.03-0.98,16.77-2.39,29.54-3.07" transform="matrix(1,0,0,1,296,-4)" class="stroke_order_diagram--current_path"></path><path id="pathSk2v596cn4208" kvg:type="㇐a" d="M17.74,52.18c9.03-0.98,16.77-2.39,29.54-3.07" transform="matrix(1,0,0,1,296,-4)" class="stroke_order_diagram--current_path"></path><circle cx="17.74" cy="52.18" r="8" class="stroke_order_diagram--path_start" transform="matrix(1,0,0,1,296,-4)"></circle><line x1="450" x2="450" y1="1" y2="99" class="stroke_order_diagram--guide_line"></line><line x1="499" x2="499" y1="1" y2="99" class="stroke_order_diagram--bounding_box"></line><path id="pathSk2v596cn420b" kvg:type="㇐" d="M14.83,28.96c1.87,0.05,3.67,0.46,5.56,0.18c5.87-0.85,15.12-2.1,22.87-3c1.7-0.2,3.27-0.51,4.92,0.09" transform="matrix(1,0,0,1,396,-4)" class="stroke_order_diagram--existing_path"></path><path id="pathSk2v596cn420c" kvg:type="㇑" d="M13.31,40.04c0.89,0.89,1.19,1.96,1.44,3.08c0.9,4.06,2.02,11.63,3.15,19.89c0.17,1.28,0.34,2.53,0.48,3.73" transform="matrix(1,0,0,1,396,-4)" class="stroke_order_diagram--existing_path"></path><path id="pathSk2v596cn420d" kvg:type="㇕a" d="M15.48,41.47C24.13,39.93,38.02,38,45,37.5c3.42-0.24,5.21,0.24,4.81,4c-0.49,4.56-1.94,11.39-3.61,17.85c-0.26,1-0.52,1.98-0.77,2.94" transform="matrix(1,0,0,1,396,-4)" class="stroke_order_diagram--existing_path"></path><path id="pathSk2v596cn420e" kvg:type="㇐a" d="M17.74,52.18c9.03-0.98,16.77-2.39,29.54-3.07" transform="matrix(1,0,0,1,396,-4)" class="stroke_order_diagram--existing_path"></path><path id="kvg:08edf-s5" kvg:type="㇐a" d="M19.42,64.26C26.62,63,35.75,61.5,44.5,61" transform="matrix(1,0,0,1,396,-4)" class="stroke_order_diagram--current_path"></path><path id="pathSk2v596cn420g" kvg:type="㇐a" d="M19.42,64.26C26.62,63,35.75,61.5,44.5,61" transform="matrix(1,0,0,1,396,-4)" class="stroke_order_diagram--current_path"></path><circle cx="19.42" cy="64.26" r="8" class="stroke_order_diagram--path_start" transform="matrix(1,0,0,1,396,-4)"></circle><line x1="550" x2="550" y1="1" y2="99" class="stroke_order_diagram--guide_line"></line><line x1="599" x2="599" y1="1" y2="99" class="stroke_order_diagram--bounding_box"></line><path id="pathSk2v596cn420j" kvg:type="㇐" d="M14.83,28.96c1.87,0.05,3.67,0.46,5.56,0.18c5.87-0.85,15.12-2.1,22.87-3c1.7-0.2,3.27-0.51,4.92,0.09" transform="matrix(1,0,0,1,496,-4)" class="stroke_order_diagram--existing_path"></path><path id="pathSk2v596cn420k" kvg:type="㇑" d="M13.31,40.04c0.89,0.89,1.19,1.96,1.44,3.08c0.9,4.06,2.02,11.63,3.15,19.89c0.17,1.28,0.34,2.53,0.48,3.73" transform="matrix(1,0,0,1,496,-4)" class="stroke_order_diagram--existing_path"></path><path id="pathSk2v596cn420l" kvg:type="㇕a" d="M15.48,41.47C24.13,39.93,38.02,38,45,37.5c3.42-0.24,5.21,0.24,4.81,4c-0.49,4.56-1.94,11.39-3.61,17.85c-0.26,1-0.52,1.98-0.77,2.94" transform="matrix(1,0,0,1,496,-4)" class="stroke_order_diagram--existing_path"></path><path id="pathSk2v596cn420m" kvg:type="㇐a" d="M17.74,52.18c9.03-0.98,16.77-2.39,29.54-3.07" transform="matrix(1,0,0,1,496,-4)" class="stroke_order_diagram--existing_path"></path><path id="pathSk2v596cn420n" kvg:type="㇐a" d="M19.42,64.26C26.62,63,35.75,61.5,44.5,61" transform="matrix(1,0,0,1,496,-4)" class="stroke_order_diagram--existing_path"></path><path id="kvg:08edf-s6" kvg:type="㇐" d="M10.28,78.4c2.22,0.48,4.13,0.2,6.35-0.14c9.46-1.47,20.37-3,29-4.17c2.38-0.32,4.52-0.61,6.85,0.15" transform="matrix(1,0,0,1,496,-4)" class="stroke_order_diagram--current_path"></path><path id="pathSk2v596cn420p" kvg:type="㇐" d="M10.28,78.4c2.22,0.48,4.13,0.2,6.35-0.14c9.46-1.47,20.37-3,29-4.17c2.38-0.32,4.52-0.61,6.85,0.15" transform="matrix(1,0,0,1,496,-4)" class="stroke_order_diagram--current_path"></path><circle cx="10.28" cy="78.4" r="8" class="stroke_order_diagram--path_start" transform="matrix(1,0,0,1,496,-4)"></circle><line x1="650" x2="650" y1="1" y2="99" class="stroke_order_diagram--guide_line"></line><line x1="699" x2="699" y1="1" y2="99" class="stroke_order_diagram--bounding_box"></line><path id="pathSk2v596cn420s" kvg:type="㇐" d="M14.83,28.96c1.87,0.05,3.67,0.46,5.56,0.18c5.87-0.85,15.12-2.1,22.87-3c1.7-0.2,3.27-0.51,4.92,0.09" transform="matrix(1,0,0,1,596,-4)" class="stroke_order_diagram--existing_path"></path><path id="pathSk2v596cn420t" kvg:type="㇑" d="M13.31,40.04c0.89,0.89,1.19,1.96,1.44,3.08c0.9,4.06,2.02,11.63,3.15,19.89c0.17,1.28,0.34,2.53,0.48,3.73" transform="matrix(1,0,0,1,596,-4)" class="stroke_order_diagram--existing_path"></path><path id="pathSk2v596cn420u" kvg:type="㇕a" d="M15.48,41.47C24.13,39.93,38.02,38,45,37.5c3.42-0.24,5.21,0.24,4.81,4c-0.49,4.56-1.94,11.39-3.61,17.85c-0.26,1-0.52,1.98-0.77,2.94" transform="matrix(1,0,0,1,596,-4)" class="stroke_order_diagram--existing_path"></path><path id="pathSk2v596cn420v" kvg:type="㇐a" d="M17.74,52.18c9.03-0.98,16.77-2.39,29.54-3.07" transform="matrix(1,0,0,1,596,-4)" class="stroke_order_diagram--existing_path"></path><path id="pathSk2v596cn420w" kvg:type="㇐a" d="M19.42,64.26C26.62,63,35.75,61.5,44.5,61" transform="matrix(1,0,0,1,596,-4)" class="stroke_order_diagram--existing_path"></path><path id="pathSk2v596cn420x" kvg:type="㇐" d="M10.28,78.4c2.22,0.48,4.13,0.2,6.35-0.14c9.46-1.47,20.37-3,29-4.17c2.38-0.32,4.52-0.61,6.85,0.15" transform="matrix(1,0,0,1,596,-4)" class="stroke_order_diagram--existing_path"></path><path id="kvg:08edf-s7" kvg:type="㇑" d="M30.8,12.13c1.09,1.09,1.23,2.37,1.23,3.9c0,0.97,0.09,53.49,0.01,73.59c-0.02,3.54-0.03,6.07-0.04,7.13" transform="matrix(1,0,0,1,596,-4)" class="stroke_order_diagram--current_path"></path><path id="pathSk2v596cn420z" kvg:type="㇑" d="M30.8,12.13c1.09,1.09,1.23,2.37,1.23,3.9c0,0.97,0.09,53.49,0.01,73.59c-0.02,3.54-0.03,6.07-0.04,7.13" transform="matrix(1,0,0,1,596,-4)" class="stroke_order_diagram--current_path"></path><circle cx="30.8" cy="12.13" r="8" class="stroke_order_diagram--path_start" transform="matrix(1,0,0,1,596,-4)"></circle><line x1="750" x2="750" y1="1" y2="99" class="stroke_order_diagram--guide_line"></line><line x1="799" x2="799" y1="1" y2="99" class="stroke_order_diagram--bounding_box"></line><path id="pathSk2v596cn4212" kvg:type="㇐" d="M14.83,28.96c1.87,0.05,3.67,0.46,5.56,0.18c5.87-0.85,15.12-2.1,22.87-3c1.7-0.2,3.27-0.51,4.92,0.09" transform="matrix(1,0,0,1,696,-4)" class="stroke_order_diagram--existing_path"></path><path id="pathSk2v596cn4213" kvg:type="㇑" d="M13.31,40.04c0.89,0.89,1.19,1.96,1.44,3.08c0.9,4.06,2.02,11.63,3.15,19.89c0.17,1.28,0.34,2.53,0.48,3.73" transform="matrix(1,0,0,1,696,-4)" class="stroke_order_diagram--existing_path"></path><path id="pathSk2v596cn4214" kvg:type="㇕a" d="M15.48,41.47C24.13,39.93,38.02,38,45,37.5c3.42-0.24,5.21,0.24,4.81,4c-0.49,4.56-1.94,11.39-3.61,17.85c-0.26,1-0.52,1.98-0.77,2.94" transform="matrix(1,0,0,1,696,-4)" class="stroke_order_diagram--existing_path"></path><path id="pathSk2v596cn4215" kvg:type="㇐a" d="M17.74,52.18c9.03-0.98,16.77-2.39,29.54-3.07" transform="matrix(1,0,0,1,696,-4)" class="stroke_order_diagram--existing_path"></path><path id="pathSk2v596cn4216" kvg:type="㇐a" d="M19.42,64.26C26.62,63,35.75,61.5,44.5,61" transform="matrix(1,0,0,1,696,-4)" class="stroke_order_diagram--existing_path"></path><path id="pathSk2v596cn4217" kvg:type="㇐" d="M10.28,78.4c2.22,0.48,4.13,0.2,6.35-0.14c9.46-1.47,20.37-3,29-4.17c2.38-0.32,4.52-0.61,6.85,0.15" transform="matrix(1,0,0,1,696,-4)" class="stroke_order_diagram--existing_path"></path><path id="pathSk2v596cn4218" kvg:type="㇑" d="M30.8,12.13c1.09,1.09,1.23,2.37,1.23,3.9c0,0.97,0.09,53.49,0.01,73.59c-0.02,3.54-0.03,6.07-0.04,7.13" transform="matrix(1,0,0,1,696,-4)" class="stroke_order_diagram--existing_path"></path><path id="kvg:08edf-s8" kvg:type="㇒" d="M66.93,16.75c0.32,1,0.33,1.63,0.17,2.81c-0.98,6.98-5.85,20.94-13.35,32.19" transform="matrix(1,0,0,1,696,-4)" class="stroke_order_diagram--current_path"></path><path id="pathSk2v596cn421a" kvg:type="㇒" d="M66.93,16.75c0.32,1,0.33,1.63,0.17,2.81c-0.98,6.98-5.85,20.94-13.35,32.19" transform="matrix(1,0,0,1,696,-4)" class="stroke_order_diagram--current_path"></path><circle cx="66.93" cy="16.75" r="8" class="stroke_order_diagram--path_start" transform="matrix(1,0,0,1,696,-4)"></circle><line x1="850" x2="850" y1="1" y2="99" class="stroke_order_diagram--guide_line"></line><line x1="899" x2="899" y1="1" y2="99" class="stroke_order_diagram--bounding_box"></line><path id="pathSk2v596cn421d" kvg:type="㇐" d="M14.83,28.96c1.87,0.05,3.67,0.46,5.56,0.18c5.87-0.85,15.12-2.1,22.87-3c1.7-0.2,3.27-0.51,4.92,0.09" transform="matrix(1,0,0,1,796,-4)" class="stroke_order_diagram--existing_path"></path><path id="pathSk2v596cn421e" kvg:type="㇑" d="M13.31,40.04c0.89,0.89,1.19,1.96,1.44,3.08c0.9,4.06,2.02,11.63,3.15,19.89c0.17,1.28,0.34,2.53,0.48,3.73" transform="matrix(1,0,0,1,796,-4)" class="stroke_order_diagram--existing_path"></path><path id="pathSk2v596cn421f" kvg:type="㇕a" d="M15.48,41.47C24.13,39.93,38.02,38,45,37.5c3.42-0.24,5.21,0.24,4.81,4c-0.49,4.56-1.94,11.39-3.61,17.85c-0.26,1-0.52,1.98-0.77,2.94" transform="matrix(1,0,0,1,796,-4)" class="stroke_order_diagram--existing_path"></path><path id="pathSk2v596cn421g" kvg:type="㇐a" d="M17.74,52.18c9.03-0.98,16.77-2.39,29.54-3.07" transform="matrix(1,0,0,1,796,-4)" class="stroke_order_diagram--existing_path"></path><path id="pathSk2v596cn421h" kvg:type="㇐a" d="M19.42,64.26C26.62,63,35.75,61.5,44.5,61" transform="matrix(1,0,0,1,796,-4)" class="stroke_order_diagram--existing_path"></path><path id="pathSk2v596cn421i" kvg:type="㇐" d="M10.28,78.4c2.22,0.48,4.13,0.2,6.35-0.14c9.46-1.47,20.37-3,29-4.17c2.38-0.32,4.52-0.61,6.85,0.15" transform="matrix(1,0,0,1,796,-4)" class="stroke_order_diagram--existing_path"></path><path id="pathSk2v596cn421j" kvg:type="㇑" d="M30.8,12.13c1.09,1.09,1.23,2.37,1.23,3.9c0,0.97,0.09,53.49,0.01,73.59c-0.02,3.54-0.03,6.07-0.04,7.13" transform="matrix(1,0,0,1,796,-4)" class="stroke_order_diagram--existing_path"></path><path id="pathSk2v596cn421k" kvg:type="㇒" d="M66.93,16.75c0.32,1,0.33,1.63,0.17,2.81c-0.98,6.98-5.85,20.94-13.35,32.19" transform="matrix(1,0,0,1,796,-4)" class="stroke_order_diagram--existing_path"></path><path id="kvg:08edf-s9" kvg:type="㇖a" d="M64.1,38.99c0.89,0.36,2.57,0.18,3.92-0.14c1.64-0.39,16-3.35,19.5-4.04C93.5,33.62,91.75,38.25,85,46" transform="matrix(1,0,0,1,796,-4)" class="stroke_order_diagram--current_path"></path><path id="pathSk2v596cn421m" kvg:type="㇖a" d="M64.1,38.99c0.89,0.36,2.57,0.18,3.92-0.14c1.64-0.39,16-3.35,19.5-4.04C93.5,33.62,91.75,38.25,85,46" transform="matrix(1,0,0,1,796,-4)" class="stroke_order_diagram--current_path"></path><circle cx="64.1" cy="38.99" r="8" class="stroke_order_diagram--path_start" transform="matrix(1,0,0,1,796,-4)"></circle><line x1="950" x2="950" y1="1" y2="99" class="stroke_order_diagram--guide_line"></line><line x1="999" x2="999" y1="1" y2="99" class="stroke_order_diagram--bounding_box"></line><path id="pathSk2v596cn421p" kvg:type="㇐" d="M14.83,28.96c1.87,0.05,3.67,0.46,5.56,0.18c5.87-0.85,15.12-2.1,22.87-3c1.7-0.2,3.27-0.51,4.92,0.09" transform="matrix(1,0,0,1,896,-4)" class="stroke_order_diagram--existing_path"></path><path id="pathSk2v596cn421q" kvg:type="㇑" d="M13.31,40.04c0.89,0.89,1.19,1.96,1.44,3.08c0.9,4.06,2.02,11.63,3.15,19.89c0.17,1.28,0.34,2.53,0.48,3.73" transform="matrix(1,0,0,1,896,-4)" class="stroke_order_diagram--existing_path"></path><path id="pathSk2v596cn421r" kvg:type="㇕a" d="M15.48,41.47C24.13,39.93,38.02,38,45,37.5c3.42-0.24,5.21,0.24,4.81,4c-0.49,4.56-1.94,11.39-3.61,17.85c-0.26,1-0.52,1.98-0.77,2.94" transform="matrix(1,0,0,1,896,-4)" class="stroke_order_diagram--existing_path"></path><path id="pathSk2v596cn421s" kvg:type="㇐a" d="M17.74,52.18c9.03-0.98,16.77-2.39,29.54-3.07" transform="matrix(1,0,0,1,896,-4)" class="stroke_order_diagram--existing_path"></path><path id="pathSk2v596cn421t" kvg:type="㇐a" d="M19.42,64.26C26.62,63,35.75,61.5,44.5,61" transform="matrix(1,0,0,1,896,-4)" class="stroke_order_diagram--existing_path"></path><path id="pathSk2v596cn421u" kvg:type="㇐" d="M10.28,78.4c2.22,0.48,4.13,0.2,6.35-0.14c9.46-1.47,20.37-3,29-4.17c2.38-0.32,4.52-0.61,6.85,0.15" transform="matrix(1,0,0,1,896,-4)" class="stroke_order_diagram--existing_path"></path><path id="pathSk2v596cn421v" kvg:type="㇑" d="M30.8,12.13c1.09,1.09,1.23,2.37,1.23,3.9c0,0.97,0.09,53.49,0.01,73.59c-0.02,3.54-0.03,6.07-0.04,7.13" transform="matrix(1,0,0,1,896,-4)" class="stroke_order_diagram--existing_path"></path><path id="pathSk2v596cn421w" kvg:type="㇒" d="M66.93,16.75c0.32,1,0.33,1.63,0.17,2.81c-0.98,6.98-5.85,20.94-13.35,32.19" transform="matrix(1,0,0,1,896,-4)" class="stroke_order_diagram--existing_path"></path><path id="pathSk2v596cn421x" kvg:type="㇖a" d="M64.1,38.99c0.89,0.36,2.57,0.18,3.92-0.14c1.64-0.39,16-3.35,19.5-4.04C93.5,33.62,91.75,38.25,85,46" transform="matrix(1,0,0,1,896,-4)" class="stroke_order_diagram--existing_path"></path><path id="kvg:08edf-s10" kvg:type="㇒" d="M67.96,48c0.83,0.83,0.79,2.38,0.63,4.02c-0.96,10.23-6.34,32.48-20.34,43.73" transform="matrix(1,0,0,1,896,-4)" class="stroke_order_diagram--current_path"></path><path id="pathSk2v596cn421z" kvg:type="㇒" d="M67.96,48c0.83,0.83,0.79,2.38,0.63,4.02c-0.96,10.23-6.34,32.48-20.34,43.73" transform="matrix(1,0,0,1,896,-4)" class="stroke_order_diagram--current_path"></path><circle cx="67.96" cy="48" r="8" class="stroke_order_diagram--path_start" transform="matrix(1,0,0,1,896,-4)"></circle><line x1="1050" x2="1050" y1="1" y2="99" class="stroke_order_diagram--guide_line"></line><line x1="1099" x2="1099" y1="1" y2="99" class="stroke_order_diagram--bounding_box"></line><path id="pathSk2v596cn4222" kvg:type="㇐" d="M14.83,28.96c1.87,0.05,3.67,0.46,5.56,0.18c5.87-0.85,15.12-2.1,22.87-3c1.7-0.2,3.27-0.51,4.92,0.09" transform="matrix(1,0,0,1,996,-4)" class="stroke_order_diagram--existing_path"></path><path id="pathSk2v596cn4223" kvg:type="㇑" d="M13.31,40.04c0.89,0.89,1.19,1.96,1.44,3.08c0.9,4.06,2.02,11.63,3.15,19.89c0.17,1.28,0.34,2.53,0.48,3.73" transform="matrix(1,0,0,1,996,-4)" class="stroke_order_diagram--existing_path"></path><path id="pathSk2v596cn4224" kvg:type="㇕a" d="M15.48,41.47C24.13,39.93,38.02,38,45,37.5c3.42-0.24,5.21,0.24,4.81,4c-0.49,4.56-1.94,11.39-3.61,17.85c-0.26,1-0.52,1.98-0.77,2.94" transform="matrix(1,0,0,1,996,-4)" class="stroke_order_diagram--existing_path"></path><path id="pathSk2v596cn4225" kvg:type="㇐a" d="M17.74,52.18c9.03-0.98,16.77-2.39,29.54-3.07" transform="matrix(1,0,0,1,996,-4)" class="stroke_order_diagram--existing_path"></path><path id="pathSk2v596cn4226" kvg:type="㇐a" d="M19.42,64.26C26.62,63,35.75,61.5,44.5,61" transform="matrix(1,0,0,1,996,-4)" class="stroke_order_diagram--existing_path"></path><path id="pathSk2v596cn4227" kvg:type="㇐" d="M10.28,78.4c2.22,0.48,4.13,0.2,6.35-0.14c9.46-1.47,20.37-3,29-4.17c2.38-0.32,4.52-0.61,6.85,0.15" transform="matrix(1,0,0,1,996,-4)" class="stroke_order_diagram--existing_path"></path><path id="pathSk2v596cn4228" kvg:type="㇑" d="M30.8,12.13c1.09,1.09,1.23,2.37,1.23,3.9c0,0.97,0.09,53.49,0.01,73.59c-0.02,3.54-0.03,6.07-0.04,7.13" transform="matrix(1,0,0,1,996,-4)" class="stroke_order_diagram--existing_path"></path><path id="pathSk2v596cn4229" kvg:type="㇒" d="M66.93,16.75c0.32,1,0.33,1.63,0.17,2.81c-0.98,6.98-5.85,20.94-13.35,32.19" transform="matrix(1,0,0,1,996,-4)" class="stroke_order_diagram--existing_path"></path><path id="pathSk2v596cn422a" kvg:type="㇖a" d="M64.1,38.99c0.89,0.36,2.57,0.18,3.92-0.14c1.64-0.39,16-3.35,19.5-4.04C93.5,33.62,91.75,38.25,85,46" transform="matrix(1,0,0,1,996,-4)" class="stroke_order_diagram--existing_path"></path><path id="pathSk2v596cn422b" kvg:type="㇒" d="M67.96,48c0.83,0.83,0.79,2.38,0.63,4.02c-0.96,10.23-6.34,32.48-20.34,43.73" transform="matrix(1,0,0,1,996,-4)" class="stroke_order_diagram--existing_path"></path><path id="kvg:08edf-s11" kvg:type="㇏" d="M68,62.5c3.62,5.17,12.73,18.24,20.05,25.66c2.02,2.05,3.83,3.72,6.45,5.34" transform="matrix(1,0,0,1,996,-4)" class="stroke_order_diagram--current_path"></path><path id="pathSk2v596cn422d" kvg:type="㇏" d="M68,62.5c3.62,5.17,12.73,18.24,20.05,25.66c2.02,2.05,3.83,3.72,6.45,5.34" transform="matrix(1,0,0,1,996,-4)" class="stroke_order_diagram--current_path"></path><circle cx="68" cy="62.5" r="8" class="stroke_order_diagram--path_start" transform="matrix(1,0,0,1,996,-4)"></circle></svg>