<svg style="width: 700px; height: 100px;" viewbox="0 0 700 100"><style>
.stroke_order_diagram--outer_container {
  width: 100%;
  overflow-x: auto;
  overflow-y: hidden;
}

.stroke_order_diagram--guide_line {
  fill: none;
  stroke: #ddd;
  stroke-width: 3;
  stroke-linecap: square;
  stroke-linejoin: square;
  stroke-dasharray:8, 8;
}

.stroke_order_diagram--bounding_box {
  fill: none;
  stroke: #ddd;
  stroke-width: 4;
  stroke-linecap: square;
  stroke-linejoin: square;
}

.stroke_order_diagram--current_path {
  fill: none;
  stroke: #000;
  stroke-width: 6;
  stroke-linecap: round;
  stroke-linejoin: round;
}

.stroke_order_diagram--existing_path {
  fill: none;
  stroke: #aaa;
  stroke-width: 6;
  stroke-linecap: round;
  stroke-linejoin:round;
}

.stroke_order_diagram--path_start {
  fill: rgba(255, 0, 0, 0.7);
  stroke:none
}</style><desc>Created with Snap</desc><defs></defs><line x1="1" x2="699" y1="1" y2="1" class="stroke_order_diagram--bounding_box"></line><line x1="1" x2="1" y1="1" y2="99" class="stroke_order_diagram--bounding_box"></line><line x1="1" x2="699" y1="99" y2="99" class="stroke_order_diagram--bounding_box"></line><line x1="0" x2="700" y1="50" y2="50" class="stroke_order_diagram--guide_line"></line><line x1="50" x2="50" y1="1" y2="99" class="stroke_order_diagram--guide_line"></line><line x1="99" x2="99" y1="1" y2="99" class="stroke_order_diagram--bounding_box"></line><path id="kvg:08fd4-s1" kvg:type="㇐" d="M47.29,21.2c2.34,0.68,5.1,0.4,7.36,0.13c7.2-0.88,15.44-3.19,22.73-3.69c2.12-0.15,4.28-0.19,6.36,0.32" transform="matrix(1,0,0,1,-4,-4)" class="stroke_order_diagram--current_path"></path><path id="pathSk2v596cne90" kvg:type="㇐" d="M47.29,21.2c2.34,0.68,5.1,0.4,7.36,0.13c7.2-0.88,15.44-3.19,22.73-3.69c2.12-0.15,4.28-0.19,6.36,0.32" transform="matrix(1,0,0,1,-4,-4)" class="stroke_order_diagram--current_path"></path><circle cx="47.29" cy="21.2" r="8" class="stroke_order_diagram--path_start" transform="matrix(1,0,0,1,-4,-4)"></circle><line x1="150" x2="150" y1="1" y2="99" class="stroke_order_diagram--guide_line"></line><line x1="199" x2="199" y1="1" y2="99" class="stroke_order_diagram--bounding_box"></line><path id="pathSk2v596cne93" kvg:type="㇐" d="M47.29,21.2c2.34,0.68,5.1,0.4,7.36,0.13c7.2-0.88,15.44-3.19,22.73-3.69c2.12-0.15,4.28-0.19,6.36,0.32" transform="matrix(1,0,0,1,96,-4)" class="stroke_order_diagram--existing_path"></path><path id="kvg:08fd4-s2" kvg:type="㇒" d="M49.86,21.63c0.94,0.94,1.26,2.36,1.18,4.1c-0.92,19.77-3.92,34.02-13.2,47" transform="matrix(1,0,0,1,96,-4)" class="stroke_order_diagram--current_path"></path><path id="pathSk2v596cne95" kvg:type="㇒" d="M49.86,21.63c0.94,0.94,1.26,2.36,1.18,4.1c-0.92,19.77-3.92,34.02-13.2,47" transform="matrix(1,0,0,1,96,-4)" class="stroke_order_diagram--current_path"></path><circle cx="49.86" cy="21.63" r="8" class="stroke_order_diagram--path_start" transform="matrix(1,0,0,1,96,-4)"></circle><line x1="250" x2="250" y1="1" y2="99" class="stroke_order_diagram--guide_line"></line><line x1="299" x2="299" y1="1" y2="99" class="stroke_order_diagram--bounding_box"></line><path id="pathSk2v596cne98" kvg:type="㇐" d="M47.29,21.2c2.34,0.68,5.1,0.4,7.36,0.13c7.2-0.88,15.44-3.19,22.73-3.69c2.12-0.15,4.28-0.19,6.36,0.32" transform="matrix(1,0,0,1,196,-4)" class="stroke_order_diagram--existing_path"></path><path id="pathSk2v596cne99" kvg:type="㇒" d="M49.86,21.63c0.94,0.94,1.26,2.36,1.18,4.1c-0.92,19.77-3.92,34.02-13.2,47" transform="matrix(1,0,0,1,196,-4)" class="stroke_order_diagram--existing_path"></path><path id="kvg:08fd4-s3" kvg:type="㇇" d="M54.16,38.25c1.24,0.29,2.39,0.48,4.87,0.04c2.48-0.44,15.15-3.97,16.85-4.4c1.7-0.44,3.66,1.09,3.07,2.7C72.5,54.38,62.88,69.62,44.91,77.51" transform="matrix(1,0,0,1,196,-4)" class="stroke_order_diagram--current_path"></path><path id="pathSk2v596cne9b" kvg:type="㇇" d="M54.16,38.25c1.24,0.29,2.39,0.48,4.87,0.04c2.48-0.44,15.15-3.97,16.85-4.4c1.7-0.44,3.66,1.09,3.07,2.7C72.5,54.38,62.88,69.62,44.91,77.51" transform="matrix(1,0,0,1,196,-4)" class="stroke_order_diagram--current_path"></path><circle cx="54.16" cy="38.25" r="8" class="stroke_order_diagram--path_start" transform="matrix(1,0,0,1,196,-4)"></circle><line x1="350" x2="350" y1="1" y2="99" class="stroke_order_diagram--guide_line"></line><line x1="399" x2="399" y1="1" y2="99" class="stroke_order_diagram--bounding_box"></line><path id="pathSk2v596cne9e" kvg:type="㇐" d="M47.29,21.2c2.34,0.68,5.1,0.4,7.36,0.13c7.2-0.88,15.44-3.19,22.73-3.69c2.12-0.15,4.28-0.19,6.36,0.32" transform="matrix(1,0,0,1,296,-4)" class="stroke_order_diagram--existing_path"></path><path id="pathSk2v596cne9f" kvg:type="㇒" d="M49.86,21.63c0.94,0.94,1.26,2.36,1.18,4.1c-0.92,19.77-3.92,34.02-13.2,47" transform="matrix(1,0,0,1,296,-4)" class="stroke_order_diagram--existing_path"></path><path id="pathSk2v596cne9g" kvg:type="㇇" d="M54.16,38.25c1.24,0.29,2.39,0.48,4.87,0.04c2.48-0.44,15.15-3.97,16.85-4.4c1.7-0.44,3.66,1.09,3.07,2.7C72.5,54.38,62.88,69.62,44.91,77.51" transform="matrix(1,0,0,1,296,-4)" class="stroke_order_diagram--existing_path"></path><path id="kvg:08fd4-s4" kvg:type="㇏" d="M54.14,47.38c3.21,0.65,17.21,16.04,28.92,24.68c2.48,1.83,5.25,3.99,8.32,4.7" transform="matrix(1,0,0,1,296,-4)" class="stroke_order_diagram--current_path"></path><path id="pathSk2v596cne9i" kvg:type="㇏" d="M54.14,47.38c3.21,0.65,17.21,16.04,28.92,24.68c2.48,1.83,5.25,3.99,8.32,4.7" transform="matrix(1,0,0,1,296,-4)" class="stroke_order_diagram--current_path"></path><circle cx="54.14" cy="47.38" r="8" class="stroke_order_diagram--path_start" transform="matrix(1,0,0,1,296,-4)"></circle><line x1="450" x2="450" y1="1" y2="99" class="stroke_order_diagram--guide_line"></line><line x1="499" x2="499" y1="1" y2="99" class="stroke_order_diagram--bounding_box"></line><path id="pathSk2v596cne9l" kvg:type="㇐" d="M47.29,21.2c2.34,0.68,5.1,0.4,7.36,0.13c7.2-0.88,15.44-3.19,22.73-3.69c2.12-0.15,4.28-0.19,6.36,0.32" transform="matrix(1,0,0,1,396,-4)" class="stroke_order_diagram--existing_path"></path><path id="pathSk2v596cne9m" kvg:type="㇒" d="M49.86,21.63c0.94,0.94,1.26,2.36,1.18,4.1c-0.92,19.77-3.92,34.02-13.2,47" transform="matrix(1,0,0,1,396,-4)" class="stroke_order_diagram--existing_path"></path><path id="pathSk2v596cne9n" kvg:type="㇇" d="M54.16,38.25c1.24,0.29,2.39,0.48,4.87,0.04c2.48-0.44,15.15-3.97,16.85-4.4c1.7-0.44,3.66,1.09,3.07,2.7C72.5,54.38,62.88,69.62,44.91,77.51" transform="matrix(1,0,0,1,396,-4)" class="stroke_order_diagram--existing_path"></path><path id="pathSk2v596cne9o" kvg:type="㇏" d="M54.14,47.38c3.21,0.65,17.21,16.04,28.92,24.68c2.48,1.83,5.25,3.99,8.32,4.7" transform="matrix(1,0,0,1,396,-4)" class="stroke_order_diagram--existing_path"></path><path id="kvg:08fd4-s5" kvg:type="㇔" d="M18.71,22.5c3.63,1.39,9.38,5.72,10.29,7.88" transform="matrix(1,0,0,1,396,-4)" class="stroke_order_diagram--current_path"></path><path id="pathSk2v596cne9q" kvg:type="㇔" d="M18.71,22.5c3.63,1.39,9.38,5.72,10.29,7.88" transform="matrix(1,0,0,1,396,-4)" class="stroke_order_diagram--current_path"></path><circle cx="18.71" cy="22.5" r="8" class="stroke_order_diagram--path_start" transform="matrix(1,0,0,1,396,-4)"></circle><line x1="550" x2="550" y1="1" y2="99" class="stroke_order_diagram--guide_line"></line><line x1="599" x2="599" y1="1" y2="99" class="stroke_order_diagram--bounding_box"></line><path id="pathSk2v596cne9t" kvg:type="㇐" d="M47.29,21.2c2.34,0.68,5.1,0.4,7.36,0.13c7.2-0.88,15.44-3.19,22.73-3.69c2.12-0.15,4.28-0.19,6.36,0.32" transform="matrix(1,0,0,1,496,-4)" class="stroke_order_diagram--existing_path"></path><path id="pathSk2v596cne9u" kvg:type="㇒" d="M49.86,21.63c0.94,0.94,1.26,2.36,1.18,4.1c-0.92,19.77-3.92,34.02-13.2,47" transform="matrix(1,0,0,1,496,-4)" class="stroke_order_diagram--existing_path"></path><path id="pathSk2v596cne9v" kvg:type="㇇" d="M54.16,38.25c1.24,0.29,2.39,0.48,4.87,0.04c2.48-0.44,15.15-3.97,16.85-4.4c1.7-0.44,3.66,1.09,3.07,2.7C72.5,54.38,62.88,69.62,44.91,77.51" transform="matrix(1,0,0,1,496,-4)" class="stroke_order_diagram--existing_path"></path><path id="pathSk2v596cne9w" kvg:type="㇏" d="M54.14,47.38c3.21,0.65,17.21,16.04,28.92,24.68c2.48,1.83,5.25,3.99,8.32,4.7" transform="matrix(1,0,0,1,496,-4)" class="stroke_order_diagram--existing_path"></path><path id="pathSk2v596cne9x" kvg:type="㇔" d="M18.71,22.5c3.63,1.39,9.38,5.72,10.29,7.88" transform="matrix(1,0,0,1,496,-4)" class="stroke_order_diagram--existing_path"></path><path id="kvg:08fd4-s6" kvg:type="㇋" d="M14.75,51.5c2.25,1,3.75,0.5,4.75,0.25s7.75-3.25,9.25-3.75c3.7-1.23,4.4,0.75,1.61,3.96c-9.49,10.91-7.99,8.54-1.11,14.54c1.93,1.69,0.77,4.27-0.75,5.5c-3.88,3.12-10.25,8.62-12.75,10.5" transform="matrix(1,0,0,1,496,-4)" class="stroke_order_diagram--current_path"></path><path id="pathSk2v596cne9z" kvg:type="㇋" d="M14.75,51.5c2.25,1,3.75,0.5,4.75,0.25s7.75-3.25,9.25-3.75c3.7-1.23,4.4,0.75,1.61,3.96c-9.49,10.91-7.99,8.54-1.11,14.54c1.93,1.69,0.77,4.27-0.75,5.5c-3.88,3.12-10.25,8.62-12.75,10.5" transform="matrix(1,0,0,1,496,-4)" class="stroke_order_diagram--current_path"></path><circle cx="14.75" cy="51.5" r="8" class="stroke_order_diagram--path_start" transform="matrix(1,0,0,1,496,-4)"></circle><line x1="650" x2="650" y1="1" y2="99" class="stroke_order_diagram--guide_line"></line><line x1="699" x2="699" y1="1" y2="99" class="stroke_order_diagram--bounding_box"></line><path id="pathSk2v596cnea2" kvg:type="㇐" d="M47.29,21.2c2.34,0.68,5.1,0.4,7.36,0.13c7.2-0.88,15.44-3.19,22.73-3.69c2.12-0.15,4.28-0.19,6.36,0.32" transform="matrix(1,0,0,1,596,-4)" class="stroke_order_diagram--existing_path"></path><path id="pathSk2v596cnea3" kvg:type="㇒" d="M49.86,21.63c0.94,0.94,1.26,2.36,1.18,4.1c-0.92,19.77-3.92,34.02-13.2,47" transform="matrix(1,0,0,1,596,-4)" class="stroke_order_diagram--existing_path"></path><path id="pathSk2v596cnea4" kvg:type="㇇" d="M54.16,38.25c1.24,0.29,2.39,0.48,4.87,0.04c2.48-0.44,15.15-3.97,16.85-4.4c1.7-0.44,3.66,1.09,3.07,2.7C72.5,54.38,62.88,69.62,44.91,77.51" transform="matrix(1,0,0,1,596,-4)" class="stroke_order_diagram--existing_path"></path><path id="pathSk2v596cnea5" kvg:type="㇏" d="M54.14,47.38c3.21,0.65,17.21,16.04,28.92,24.68c2.48,1.83,5.25,3.99,8.32,4.7" transform="matrix(1,0,0,1,596,-4)" class="stroke_order_diagram--existing_path"></path><path id="pathSk2v596cnea6" kvg:type="㇔" d="M18.71,22.5c3.63,1.39,9.38,5.72,10.29,7.88" transform="matrix(1,0,0,1,596,-4)" class="stroke_order_diagram--existing_path"></path><path id="pathSk2v596cnea7" kvg:type="㇋" d="M14.75,51.5c2.25,1,3.75,0.5,4.75,0.25s7.75-3.25,9.25-3.75c3.7-1.23,4.4,0.75,1.61,3.96c-9.49,10.91-7.99,8.54-1.11,14.54c1.93,1.69,0.77,4.27-0.75,5.5c-3.88,3.12-10.25,8.62-12.75,10.5" transform="matrix(1,0,0,1,596,-4)" class="stroke_order_diagram--existing_path"></path><path id="kvg:08fd4-s7" kvg:type="㇏a" d="M12.25,84.25c4.38-1,10.5-1.5,15-0.5s29.99,6.04,34.5,7c11.12,2.38,20.38,3.25,28.16,3.8" transform="matrix(1,0,0,1,596,-4)" class="stroke_order_diagram--current_path"></path><path id="pathSk2v596cnea9" kvg:type="㇏a" d="M12.25,84.25c4.38-1,10.5-1.5,15-0.5s29.99,6.04,34.5,7c11.12,2.38,20.38,3.25,28.16,3.8" transform="matrix(1,0,0,1,596,-4)" class="stroke_order_diagram--current_path"></path><circle cx="12.25" cy="84.25" r="8" class="stroke_order_diagram--path_start" transform="matrix(1,0,0,1,596,-4)"></circle></svg>