<svg style="width: 1200px; height: 100px;" viewbox="0 0 1200 100"><style>
.stroke_order_diagram--outer_container {
  width: 100%;
  overflow-x: auto;
  overflow-y: hidden;
}

.stroke_order_diagram--guide_line {
  fill: none;
  stroke: #ddd;
  stroke-width: 3;
  stroke-linecap: square;
  stroke-linejoin: square;
  stroke-dasharray:8, 8;
}

.stroke_order_diagram--bounding_box {
  fill: none;
  stroke: #ddd;
  stroke-width: 4;
  stroke-linecap: square;
  stroke-linejoin: square;
}

.stroke_order_diagram--current_path {
  fill: none;
  stroke: #000;
  stroke-width: 6;
  stroke-linecap: round;
  stroke-linejoin: round;
}

.stroke_order_diagram--existing_path {
  fill: none;
  stroke: #aaa;
  stroke-width: 6;
  stroke-linecap: round;
  stroke-linejoin:round;
}

.stroke_order_diagram--path_start {
  fill: rgba(255, 0, 0, 0.7);
  stroke:none
}</style><desc>Created with Snap</desc><defs></defs><line x1="1" x2="1199" y1="1" y2="1" class="stroke_order_diagram--bounding_box"></line><line x1="1" x2="1" y1="1" y2="99" class="stroke_order_diagram--bounding_box"></line><line x1="1" x2="1199" y1="99" y2="99" class="stroke_order_diagram--bounding_box"></line><line x1="0" x2="1200" y1="50" y2="50" class="stroke_order_diagram--guide_line"></line><line x1="50" x2="50" y1="1" y2="99" class="stroke_order_diagram--guide_line"></line><line x1="99" x2="99" y1="1" y2="99" class="stroke_order_diagram--bounding_box"></line><path id="kvg:0904b-s1" kvg:type="㇔" d="M42.88,15.75c-0.1,3.3-2.52,10.03-3.38,12" transform="matrix(1,0,0,1,-4,-4)" class="stroke_order_diagram--current_path"></path><path id="pathSk2v596cnhik" kvg:type="㇔" d="M42.88,15.75c-0.1,3.3-2.52,10.03-3.38,12" transform="matrix(1,0,0,1,-4,-4)" class="stroke_order_diagram--current_path"></path><circle cx="42.88" cy="15.75" r="8" class="stroke_order_diagram--path_start" transform="matrix(1,0,0,1,-4,-4)"></circle><line x1="150" x2="150" y1="1" y2="99" class="stroke_order_diagram--guide_line"></line><line x1="199" x2="199" y1="1" y2="99" class="stroke_order_diagram--bounding_box"></line><path id="pathSk2v596cnhin" kvg:type="㇔" d="M42.88,15.75c-0.1,3.3-2.52,10.03-3.38,12" transform="matrix(1,0,0,1,96,-4)" class="stroke_order_diagram--existing_path"></path><path id="kvg:0904b-s2" kvg:type="㇖b" d="M43.58,18.04c11.79-1.73,28.79-3.79,41.2-4.54c6.23-0.38,4.22,4-0.93,7.98" transform="matrix(1,0,0,1,96,-4)" class="stroke_order_diagram--current_path"></path><path id="pathSk2v596cnhip" kvg:type="㇖b" d="M43.58,18.04c11.79-1.73,28.79-3.79,41.2-4.54c6.23-0.38,4.22,4-0.93,7.98" transform="matrix(1,0,0,1,96,-4)" class="stroke_order_diagram--current_path"></path><circle cx="43.58" cy="18.04" r="8" class="stroke_order_diagram--path_start" transform="matrix(1,0,0,1,96,-4)"></circle><line x1="250" x2="250" y1="1" y2="99" class="stroke_order_diagram--guide_line"></line><line x1="299" x2="299" y1="1" y2="99" class="stroke_order_diagram--bounding_box"></line><path id="pathSk2v596cnhis" kvg:type="㇔" d="M42.88,15.75c-0.1,3.3-2.52,10.03-3.38,12" transform="matrix(1,0,0,1,196,-4)" class="stroke_order_diagram--existing_path"></path><path id="pathSk2v596cnhit" kvg:type="㇖b" d="M43.58,18.04c11.79-1.73,28.79-3.79,41.2-4.54c6.23-0.38,4.22,4-0.93,7.98" transform="matrix(1,0,0,1,196,-4)" class="stroke_order_diagram--existing_path"></path><path id="kvg:0904b-s3" kvg:type="㇐" d="M48.43,28.32c1.57,0.3,3.95,0.14,5.71-0.06c6.53-0.76,13.77-1.78,20.74-2.4c1.77-0.16,3.6-0.19,5.35,0.22" transform="matrix(1,0,0,1,196,-4)" class="stroke_order_diagram--current_path"></path><path id="pathSk2v596cnhiv" kvg:type="㇐" d="M48.43,28.32c1.57,0.3,3.95,0.14,5.71-0.06c6.53-0.76,13.77-1.78,20.74-2.4c1.77-0.16,3.6-0.19,5.35,0.22" transform="matrix(1,0,0,1,196,-4)" class="stroke_order_diagram--current_path"></path><circle cx="48.43" cy="28.32" r="8" class="stroke_order_diagram--path_start" transform="matrix(1,0,0,1,196,-4)"></circle><line x1="350" x2="350" y1="1" y2="99" class="stroke_order_diagram--guide_line"></line><line x1="399" x2="399" y1="1" y2="99" class="stroke_order_diagram--bounding_box"></line><path id="pathSk2v596cnhiy" kvg:type="㇔" d="M42.88,15.75c-0.1,3.3-2.52,10.03-3.38,12" transform="matrix(1,0,0,1,296,-4)" class="stroke_order_diagram--existing_path"></path><path id="pathSk2v596cnhiz" kvg:type="㇖b" d="M43.58,18.04c11.79-1.73,28.79-3.79,41.2-4.54c6.23-0.38,4.22,4-0.93,7.98" transform="matrix(1,0,0,1,296,-4)" class="stroke_order_diagram--existing_path"></path><path id="pathSk2v596cnhj0" kvg:type="㇐" d="M48.43,28.32c1.57,0.3,3.95,0.14,5.71-0.06c6.53-0.76,13.77-1.78,20.74-2.4c1.77-0.16,3.6-0.19,5.35,0.22" transform="matrix(1,0,0,1,296,-4)" class="stroke_order_diagram--existing_path"></path><path id="kvg:0904b-s4" kvg:type="㇑" d="M46.08,37.83c0.92,0.92,1.2,2.01,1.29,2.58c0.61,3.57,1.83,10.77,2.87,18.06c0.17,1.16,0.32,2.3,0.46,3.38" transform="matrix(1,0,0,1,296,-4)" class="stroke_order_diagram--current_path"></path><path id="pathSk2v596cnhj2" kvg:type="㇑" d="M46.08,37.83c0.92,0.92,1.2,2.01,1.29,2.58c0.61,3.57,1.83,10.77,2.87,18.06c0.17,1.16,0.32,2.3,0.46,3.38" transform="matrix(1,0,0,1,296,-4)" class="stroke_order_diagram--current_path"></path><circle cx="46.08" cy="37.83" r="8" class="stroke_order_diagram--path_start" transform="matrix(1,0,0,1,296,-4)"></circle><line x1="450" x2="450" y1="1" y2="99" class="stroke_order_diagram--guide_line"></line><line x1="499" x2="499" y1="1" y2="99" class="stroke_order_diagram--bounding_box"></line><path id="pathSk2v596cnhj5" kvg:type="㇔" d="M42.88,15.75c-0.1,3.3-2.52,10.03-3.38,12" transform="matrix(1,0,0,1,396,-4)" class="stroke_order_diagram--existing_path"></path><path id="pathSk2v596cnhj6" kvg:type="㇖b" d="M43.58,18.04c11.79-1.73,28.79-3.79,41.2-4.54c6.23-0.38,4.22,4-0.93,7.98" transform="matrix(1,0,0,1,396,-4)" class="stroke_order_diagram--existing_path"></path><path id="pathSk2v596cnhj7" kvg:type="㇐" d="M48.43,28.32c1.57,0.3,3.95,0.14,5.71-0.06c6.53-0.76,13.77-1.78,20.74-2.4c1.77-0.16,3.6-0.19,5.35,0.22" transform="matrix(1,0,0,1,396,-4)" class="stroke_order_diagram--existing_path"></path><path id="pathSk2v596cnhj8" kvg:type="㇑" d="M46.08,37.83c0.92,0.92,1.2,2.01,1.29,2.58c0.61,3.57,1.83,10.77,2.87,18.06c0.17,1.16,0.32,2.3,0.46,3.38" transform="matrix(1,0,0,1,396,-4)" class="stroke_order_diagram--existing_path"></path><path id="kvg:0904b-s5" kvg:type="㇕a" d="M48.51,39.06c8.85-1.1,26.09-3.65,30.95-4.1c2.3-0.21,3.8,0.79,3.63,3.43c-0.25,3.83-1.92,11.09-3.23,17.83c-0.22,1.12-0.45,2.21-0.71,3.26" transform="matrix(1,0,0,1,396,-4)" class="stroke_order_diagram--current_path"></path><path id="pathSk2v596cnhja" kvg:type="㇕a" d="M48.51,39.06c8.85-1.1,26.09-3.65,30.95-4.1c2.3-0.21,3.8,0.79,3.63,3.43c-0.25,3.83-1.92,11.09-3.23,17.83c-0.22,1.12-0.45,2.21-0.71,3.26" transform="matrix(1,0,0,1,396,-4)" class="stroke_order_diagram--current_path"></path><circle cx="48.51" cy="39.06" r="8" class="stroke_order_diagram--path_start" transform="matrix(1,0,0,1,396,-4)"></circle><line x1="550" x2="550" y1="1" y2="99" class="stroke_order_diagram--guide_line"></line><line x1="599" x2="599" y1="1" y2="99" class="stroke_order_diagram--bounding_box"></line><path id="pathSk2v596cnhjd" kvg:type="㇔" d="M42.88,15.75c-0.1,3.3-2.52,10.03-3.38,12" transform="matrix(1,0,0,1,496,-4)" class="stroke_order_diagram--existing_path"></path><path id="pathSk2v596cnhje" kvg:type="㇖b" d="M43.58,18.04c11.79-1.73,28.79-3.79,41.2-4.54c6.23-0.38,4.22,4-0.93,7.98" transform="matrix(1,0,0,1,496,-4)" class="stroke_order_diagram--existing_path"></path><path id="pathSk2v596cnhjf" kvg:type="㇐" d="M48.43,28.32c1.57,0.3,3.95,0.14,5.71-0.06c6.53-0.76,13.77-1.78,20.74-2.4c1.77-0.16,3.6-0.19,5.35,0.22" transform="matrix(1,0,0,1,496,-4)" class="stroke_order_diagram--existing_path"></path><path id="pathSk2v596cnhjg" kvg:type="㇑" d="M46.08,37.83c0.92,0.92,1.2,2.01,1.29,2.58c0.61,3.57,1.83,10.77,2.87,18.06c0.17,1.16,0.32,2.3,0.46,3.38" transform="matrix(1,0,0,1,496,-4)" class="stroke_order_diagram--existing_path"></path><path id="pathSk2v596cnhjh" kvg:type="㇕a" d="M48.51,39.06c8.85-1.1,26.09-3.65,30.95-4.1c2.3-0.21,3.8,0.79,3.63,3.43c-0.25,3.83-1.92,11.09-3.23,17.83c-0.22,1.12-0.45,2.21-0.71,3.26" transform="matrix(1,0,0,1,496,-4)" class="stroke_order_diagram--existing_path"></path><path id="kvg:0904b-s6" kvg:type="㇐a" d="M50.25,49.24c7.38-0.99,21.5-3.24,30.52-3.73" transform="matrix(1,0,0,1,496,-4)" class="stroke_order_diagram--current_path"></path><path id="pathSk2v596cnhjj" kvg:type="㇐a" d="M50.25,49.24c7.38-0.99,21.5-3.24,30.52-3.73" transform="matrix(1,0,0,1,496,-4)" class="stroke_order_diagram--current_path"></path><circle cx="50.25" cy="49.24" r="8" class="stroke_order_diagram--path_start" transform="matrix(1,0,0,1,496,-4)"></circle><line x1="650" x2="650" y1="1" y2="99" class="stroke_order_diagram--guide_line"></line><line x1="699" x2="699" y1="1" y2="99" class="stroke_order_diagram--bounding_box"></line><path id="pathSk2v596cnhjm" kvg:type="㇔" d="M42.88,15.75c-0.1,3.3-2.52,10.03-3.38,12" transform="matrix(1,0,0,1,596,-4)" class="stroke_order_diagram--existing_path"></path><path id="pathSk2v596cnhjn" kvg:type="㇖b" d="M43.58,18.04c11.79-1.73,28.79-3.79,41.2-4.54c6.23-0.38,4.22,4-0.93,7.98" transform="matrix(1,0,0,1,596,-4)" class="stroke_order_diagram--existing_path"></path><path id="pathSk2v596cnhjo" kvg:type="㇐" d="M48.43,28.32c1.57,0.3,3.95,0.14,5.71-0.06c6.53-0.76,13.77-1.78,20.74-2.4c1.77-0.16,3.6-0.19,5.35,0.22" transform="matrix(1,0,0,1,596,-4)" class="stroke_order_diagram--existing_path"></path><path id="pathSk2v596cnhjp" kvg:type="㇑" d="M46.08,37.83c0.92,0.92,1.2,2.01,1.29,2.58c0.61,3.57,1.83,10.77,2.87,18.06c0.17,1.16,0.32,2.3,0.46,3.38" transform="matrix(1,0,0,1,596,-4)" class="stroke_order_diagram--existing_path"></path><path id="pathSk2v596cnhjq" kvg:type="㇕a" d="M48.51,39.06c8.85-1.1,26.09-3.65,30.95-4.1c2.3-0.21,3.8,0.79,3.63,3.43c-0.25,3.83-1.92,11.09-3.23,17.83c-0.22,1.12-0.45,2.21-0.71,3.26" transform="matrix(1,0,0,1,596,-4)" class="stroke_order_diagram--existing_path"></path><path id="pathSk2v596cnhjr" kvg:type="㇐a" d="M50.25,49.24c7.38-0.99,21.5-3.24,30.52-3.73" transform="matrix(1,0,0,1,596,-4)" class="stroke_order_diagram--existing_path"></path><path id="kvg:0904b-s7" kvg:type="㇐a" d="M51.5,59.56c7.02-0.86,18.75-2.19,26.89-2.69" transform="matrix(1,0,0,1,596,-4)" class="stroke_order_diagram--current_path"></path><path id="pathSk2v596cnhjt" kvg:type="㇐a" d="M51.5,59.56c7.02-0.86,18.75-2.19,26.89-2.69" transform="matrix(1,0,0,1,596,-4)" class="stroke_order_diagram--current_path"></path><circle cx="51.5" cy="59.56" r="8" class="stroke_order_diagram--path_start" transform="matrix(1,0,0,1,596,-4)"></circle><line x1="750" x2="750" y1="1" y2="99" class="stroke_order_diagram--guide_line"></line><line x1="799" x2="799" y1="1" y2="99" class="stroke_order_diagram--bounding_box"></line><path id="pathSk2v596cnhjw" kvg:type="㇔" d="M42.88,15.75c-0.1,3.3-2.52,10.03-3.38,12" transform="matrix(1,0,0,1,696,-4)" class="stroke_order_diagram--existing_path"></path><path id="pathSk2v596cnhjx" kvg:type="㇖b" d="M43.58,18.04c11.79-1.73,28.79-3.79,41.2-4.54c6.23-0.38,4.22,4-0.93,7.98" transform="matrix(1,0,0,1,696,-4)" class="stroke_order_diagram--existing_path"></path><path id="pathSk2v596cnhjy" kvg:type="㇐" d="M48.43,28.32c1.57,0.3,3.95,0.14,5.71-0.06c6.53-0.76,13.77-1.78,20.74-2.4c1.77-0.16,3.6-0.19,5.35,0.22" transform="matrix(1,0,0,1,696,-4)" class="stroke_order_diagram--existing_path"></path><path id="pathSk2v596cnhjz" kvg:type="㇑" d="M46.08,37.83c0.92,0.92,1.2,2.01,1.29,2.58c0.61,3.57,1.83,10.77,2.87,18.06c0.17,1.16,0.32,2.3,0.46,3.38" transform="matrix(1,0,0,1,696,-4)" class="stroke_order_diagram--existing_path"></path><path id="pathSk2v596cnhk0" kvg:type="㇕a" d="M48.51,39.06c8.85-1.1,26.09-3.65,30.95-4.1c2.3-0.21,3.8,0.79,3.63,3.43c-0.25,3.83-1.92,11.09-3.23,17.83c-0.22,1.12-0.45,2.21-0.71,3.26" transform="matrix(1,0,0,1,696,-4)" class="stroke_order_diagram--existing_path"></path><path id="pathSk2v596cnhk1" kvg:type="㇐a" d="M50.25,49.24c7.38-0.99,21.5-3.24,30.52-3.73" transform="matrix(1,0,0,1,696,-4)" class="stroke_order_diagram--existing_path"></path><path id="pathSk2v596cnhk2" kvg:type="㇐a" d="M51.5,59.56c7.02-0.86,18.75-2.19,26.89-2.69" transform="matrix(1,0,0,1,696,-4)" class="stroke_order_diagram--existing_path"></path><path id="kvg:0904b-s8" kvg:type="㇐" d="M40.29,70.38c2.96,0.75,5.35,0.67,7.96,0.43c10.72-0.99,24.7-2.28,34.88-2.85c2.7-0.15,5.19-0.09,7.84,0.46" transform="matrix(1,0,0,1,696,-4)" class="stroke_order_diagram--current_path"></path><path id="pathSk2v596cnhk4" kvg:type="㇐" d="M40.29,70.38c2.96,0.75,5.35,0.67,7.96,0.43c10.72-0.99,24.7-2.28,34.88-2.85c2.7-0.15,5.19-0.09,7.84,0.46" transform="matrix(1,0,0,1,696,-4)" class="stroke_order_diagram--current_path"></path><circle cx="40.29" cy="70.38" r="8" class="stroke_order_diagram--path_start" transform="matrix(1,0,0,1,696,-4)"></circle><line x1="850" x2="850" y1="1" y2="99" class="stroke_order_diagram--guide_line"></line><line x1="899" x2="899" y1="1" y2="99" class="stroke_order_diagram--bounding_box"></line><path id="pathSk2v596cnhk7" kvg:type="㇔" d="M42.88,15.75c-0.1,3.3-2.52,10.03-3.38,12" transform="matrix(1,0,0,1,796,-4)" class="stroke_order_diagram--existing_path"></path><path id="pathSk2v596cnhk8" kvg:type="㇖b" d="M43.58,18.04c11.79-1.73,28.79-3.79,41.2-4.54c6.23-0.38,4.22,4-0.93,7.98" transform="matrix(1,0,0,1,796,-4)" class="stroke_order_diagram--existing_path"></path><path id="pathSk2v596cnhk9" kvg:type="㇐" d="M48.43,28.32c1.57,0.3,3.95,0.14,5.71-0.06c6.53-0.76,13.77-1.78,20.74-2.4c1.77-0.16,3.6-0.19,5.35,0.22" transform="matrix(1,0,0,1,796,-4)" class="stroke_order_diagram--existing_path"></path><path id="pathSk2v596cnhka" kvg:type="㇑" d="M46.08,37.83c0.92,0.92,1.2,2.01,1.29,2.58c0.61,3.57,1.83,10.77,2.87,18.06c0.17,1.16,0.32,2.3,0.46,3.38" transform="matrix(1,0,0,1,796,-4)" class="stroke_order_diagram--existing_path"></path><path id="pathSk2v596cnhkb" kvg:type="㇕a" d="M48.51,39.06c8.85-1.1,26.09-3.65,30.95-4.1c2.3-0.21,3.8,0.79,3.63,3.43c-0.25,3.83-1.92,11.09-3.23,17.83c-0.22,1.12-0.45,2.21-0.71,3.26" transform="matrix(1,0,0,1,796,-4)" class="stroke_order_diagram--existing_path"></path><path id="pathSk2v596cnhkc" kvg:type="㇐a" d="M50.25,49.24c7.38-0.99,21.5-3.24,30.52-3.73" transform="matrix(1,0,0,1,796,-4)" class="stroke_order_diagram--existing_path"></path><path id="pathSk2v596cnhkd" kvg:type="㇐a" d="M51.5,59.56c7.02-0.86,18.75-2.19,26.89-2.69" transform="matrix(1,0,0,1,796,-4)" class="stroke_order_diagram--existing_path"></path><path id="pathSk2v596cnhke" kvg:type="㇐" d="M40.29,70.38c2.96,0.75,5.35,0.67,7.96,0.43c10.72-0.99,24.7-2.28,34.88-2.85c2.7-0.15,5.19-0.09,7.84,0.46" transform="matrix(1,0,0,1,796,-4)" class="stroke_order_diagram--existing_path"></path><path id="kvg:0904b-s9" kvg:type="㇑" d="M62.61,18.04c0.99,0.99,1.64,2.21,1.64,3.62c0,0.88-0.02,42.01-0.11,58.34c-0.02,2.91-0.03,5.03-0.05,6" transform="matrix(1,0,0,1,796,-4)" class="stroke_order_diagram--current_path"></path><path id="pathSk2v596cnhkg" kvg:type="㇑" d="M62.61,18.04c0.99,0.99,1.64,2.21,1.64,3.62c0,0.88-0.02,42.01-0.11,58.34c-0.02,2.91-0.03,5.03-0.05,6" transform="matrix(1,0,0,1,796,-4)" class="stroke_order_diagram--current_path"></path><circle cx="62.61" cy="18.04" r="8" class="stroke_order_diagram--path_start" transform="matrix(1,0,0,1,796,-4)"></circle><line x1="950" x2="950" y1="1" y2="99" class="stroke_order_diagram--guide_line"></line><line x1="999" x2="999" y1="1" y2="99" class="stroke_order_diagram--bounding_box"></line><path id="pathSk2v596cnhkj" kvg:type="㇔" d="M42.88,15.75c-0.1,3.3-2.52,10.03-3.38,12" transform="matrix(1,0,0,1,896,-4)" class="stroke_order_diagram--existing_path"></path><path id="pathSk2v596cnhkk" kvg:type="㇖b" d="M43.58,18.04c11.79-1.73,28.79-3.79,41.2-4.54c6.23-0.38,4.22,4-0.93,7.98" transform="matrix(1,0,0,1,896,-4)" class="stroke_order_diagram--existing_path"></path><path id="pathSk2v596cnhkl" kvg:type="㇐" d="M48.43,28.32c1.57,0.3,3.95,0.14,5.71-0.06c6.53-0.76,13.77-1.78,20.74-2.4c1.77-0.16,3.6-0.19,5.35,0.22" transform="matrix(1,0,0,1,896,-4)" class="stroke_order_diagram--existing_path"></path><path id="pathSk2v596cnhkm" kvg:type="㇑" d="M46.08,37.83c0.92,0.92,1.2,2.01,1.29,2.58c0.61,3.57,1.83,10.77,2.87,18.06c0.17,1.16,0.32,2.3,0.46,3.38" transform="matrix(1,0,0,1,896,-4)" class="stroke_order_diagram--existing_path"></path><path id="pathSk2v596cnhkn" kvg:type="㇕a" d="M48.51,39.06c8.85-1.1,26.09-3.65,30.95-4.1c2.3-0.21,3.8,0.79,3.63,3.43c-0.25,3.83-1.92,11.09-3.23,17.83c-0.22,1.12-0.45,2.21-0.71,3.26" transform="matrix(1,0,0,1,896,-4)" class="stroke_order_diagram--existing_path"></path><path id="pathSk2v596cnhko" kvg:type="㇐a" d="M50.25,49.24c7.38-0.99,21.5-3.24,30.52-3.73" transform="matrix(1,0,0,1,896,-4)" class="stroke_order_diagram--existing_path"></path><path id="pathSk2v596cnhkp" kvg:type="㇐a" d="M51.5,59.56c7.02-0.86,18.75-2.19,26.89-2.69" transform="matrix(1,0,0,1,896,-4)" class="stroke_order_diagram--existing_path"></path><path id="pathSk2v596cnhkq" kvg:type="㇐" d="M40.29,70.38c2.96,0.75,5.35,0.67,7.96,0.43c10.72-0.99,24.7-2.28,34.88-2.85c2.7-0.15,5.19-0.09,7.84,0.46" transform="matrix(1,0,0,1,896,-4)" class="stroke_order_diagram--existing_path"></path><path id="pathSk2v596cnhkr" kvg:type="㇑" d="M62.61,18.04c0.99,0.99,1.64,2.21,1.64,3.62c0,0.88-0.02,42.01-0.11,58.34c-0.02,2.91-0.03,5.03-0.05,6" transform="matrix(1,0,0,1,896,-4)" class="stroke_order_diagram--existing_path"></path><path id="kvg:0904b-s10" kvg:type="㇔" d="M18.75,20c3.35,1.61,8.66,6.63,9.5,9.13" transform="matrix(1,0,0,1,896,-4)" class="stroke_order_diagram--current_path"></path><path id="pathSk2v596cnhkt" kvg:type="㇔" d="M18.75,20c3.35,1.61,8.66,6.63,9.5,9.13" transform="matrix(1,0,0,1,896,-4)" class="stroke_order_diagram--current_path"></path><circle cx="18.75" cy="20" r="8" class="stroke_order_diagram--path_start" transform="matrix(1,0,0,1,896,-4)"></circle><line x1="1050" x2="1050" y1="1" y2="99" class="stroke_order_diagram--guide_line"></line><line x1="1099" x2="1099" y1="1" y2="99" class="stroke_order_diagram--bounding_box"></line><path id="pathSk2v596cnhkw" kvg:type="㇔" d="M42.88,15.75c-0.1,3.3-2.52,10.03-3.38,12" transform="matrix(1,0,0,1,996,-4)" class="stroke_order_diagram--existing_path"></path><path id="pathSk2v596cnhkx" kvg:type="㇖b" d="M43.58,18.04c11.79-1.73,28.79-3.79,41.2-4.54c6.23-0.38,4.22,4-0.93,7.98" transform="matrix(1,0,0,1,996,-4)" class="stroke_order_diagram--existing_path"></path><path id="pathSk2v596cnhky" kvg:type="㇐" d="M48.43,28.32c1.57,0.3,3.95,0.14,5.71-0.06c6.53-0.76,13.77-1.78,20.74-2.4c1.77-0.16,3.6-0.19,5.35,0.22" transform="matrix(1,0,0,1,996,-4)" class="stroke_order_diagram--existing_path"></path><path id="pathSk2v596cnhkz" kvg:type="㇑" d="M46.08,37.83c0.92,0.92,1.2,2.01,1.29,2.58c0.61,3.57,1.83,10.77,2.87,18.06c0.17,1.16,0.32,2.3,0.46,3.38" transform="matrix(1,0,0,1,996,-4)" class="stroke_order_diagram--existing_path"></path><path id="pathSk2v596cnhl0" kvg:type="㇕a" d="M48.51,39.06c8.85-1.1,26.09-3.65,30.95-4.1c2.3-0.21,3.8,0.79,3.63,3.43c-0.25,3.83-1.92,11.09-3.23,17.83c-0.22,1.12-0.45,2.21-0.71,3.26" transform="matrix(1,0,0,1,996,-4)" class="stroke_order_diagram--existing_path"></path><path id="pathSk2v596cnhl1" kvg:type="㇐a" d="M50.25,49.24c7.38-0.99,21.5-3.24,30.52-3.73" transform="matrix(1,0,0,1,996,-4)" class="stroke_order_diagram--existing_path"></path><path id="pathSk2v596cnhl2" kvg:type="㇐a" d="M51.5,59.56c7.02-0.86,18.75-2.19,26.89-2.69" transform="matrix(1,0,0,1,996,-4)" class="stroke_order_diagram--existing_path"></path><path id="pathSk2v596cnhl3" kvg:type="㇐" d="M40.29,70.38c2.96,0.75,5.35,0.67,7.96,0.43c10.72-0.99,24.7-2.28,34.88-2.85c2.7-0.15,5.19-0.09,7.84,0.46" transform="matrix(1,0,0,1,996,-4)" class="stroke_order_diagram--existing_path"></path><path id="pathSk2v596cnhl4" kvg:type="㇑" d="M62.61,18.04c0.99,0.99,1.64,2.21,1.64,3.62c0,0.88-0.02,42.01-0.11,58.34c-0.02,2.91-0.03,5.03-0.05,6" transform="matrix(1,0,0,1,996,-4)" class="stroke_order_diagram--existing_path"></path><path id="pathSk2v596cnhl5" kvg:type="㇔" d="M18.75,20c3.35,1.61,8.66,6.63,9.5,9.13" transform="matrix(1,0,0,1,996,-4)" class="stroke_order_diagram--existing_path"></path><path id="kvg:0904b-s11" kvg:type="㇋" d="M13.25,50.5C15.5,51.5,17,51,18,50.75S27.25,47.5,28.75,47c3.25-1.08,3.59,1.06,1.44,4.1C23,61.25,23.25,61,30.72,67.27c2.88,2.42,2.8,3.84,0.53,5.73c-1.5,1.25-9.25,8-10.75,8.5" transform="matrix(1,0,0,1,996,-4)" class="stroke_order_diagram--current_path"></path><path id="pathSk2v596cnhl7" kvg:type="㇋" d="M13.25,50.5C15.5,51.5,17,51,18,50.75S27.25,47.5,28.75,47c3.25-1.08,3.59,1.06,1.44,4.1C23,61.25,23.25,61,30.72,67.27c2.88,2.42,2.8,3.84,0.53,5.73c-1.5,1.25-9.25,8-10.75,8.5" transform="matrix(1,0,0,1,996,-4)" class="stroke_order_diagram--current_path"></path><circle cx="13.25" cy="50.5" r="8" class="stroke_order_diagram--path_start" transform="matrix(1,0,0,1,996,-4)"></circle><line x1="1150" x2="1150" y1="1" y2="99" class="stroke_order_diagram--guide_line"></line><line x1="1199" x2="1199" y1="1" y2="99" class="stroke_order_diagram--bounding_box"></line><path id="pathSk2v596cnhla" kvg:type="㇔" d="M42.88,15.75c-0.1,3.3-2.52,10.03-3.38,12" transform="matrix(1,0,0,1,1096,-4)" class="stroke_order_diagram--existing_path"></path><path id="pathSk2v596cnhlb" kvg:type="㇖b" d="M43.58,18.04c11.79-1.73,28.79-3.79,41.2-4.54c6.23-0.38,4.22,4-0.93,7.98" transform="matrix(1,0,0,1,1096,-4)" class="stroke_order_diagram--existing_path"></path><path id="pathSk2v596cnhlc" kvg:type="㇐" d="M48.43,28.32c1.57,0.3,3.95,0.14,5.71-0.06c6.53-0.76,13.77-1.78,20.74-2.4c1.77-0.16,3.6-0.19,5.35,0.22" transform="matrix(1,0,0,1,1096,-4)" class="stroke_order_diagram--existing_path"></path><path id="pathSk2v596cnhld" kvg:type="㇑" d="M46.08,37.83c0.92,0.92,1.2,2.01,1.29,2.58c0.61,3.57,1.83,10.77,2.87,18.06c0.17,1.16,0.32,2.3,0.46,3.38" transform="matrix(1,0,0,1,1096,-4)" class="stroke_order_diagram--existing_path"></path><path id="pathSk2v596cnhle" kvg:type="㇕a" d="M48.51,39.06c8.85-1.1,26.09-3.65,30.95-4.1c2.3-0.21,3.8,0.79,3.63,3.43c-0.25,3.83-1.92,11.09-3.23,17.83c-0.22,1.12-0.45,2.21-0.71,3.26" transform="matrix(1,0,0,1,1096,-4)" class="stroke_order_diagram--existing_path"></path><path id="pathSk2v596cnhlf" kvg:type="㇐a" d="M50.25,49.24c7.38-0.99,21.5-3.24,30.52-3.73" transform="matrix(1,0,0,1,1096,-4)" class="stroke_order_diagram--existing_path"></path><path id="pathSk2v596cnhlg" kvg:type="㇐a" d="M51.5,59.56c7.02-0.86,18.75-2.19,26.89-2.69" transform="matrix(1,0,0,1,1096,-4)" class="stroke_order_diagram--existing_path"></path><path id="pathSk2v596cnhlh" kvg:type="㇐" d="M40.29,70.38c2.96,0.75,5.35,0.67,7.96,0.43c10.72-0.99,24.7-2.28,34.88-2.85c2.7-0.15,5.19-0.09,7.84,0.46" transform="matrix(1,0,0,1,1096,-4)" class="stroke_order_diagram--existing_path"></path><path id="pathSk2v596cnhli" kvg:type="㇑" d="M62.61,18.04c0.99,0.99,1.64,2.21,1.64,3.62c0,0.88-0.02,42.01-0.11,58.34c-0.02,2.91-0.03,5.03-0.05,6" transform="matrix(1,0,0,1,1096,-4)" class="stroke_order_diagram--existing_path"></path><path id="pathSk2v596cnhlj" kvg:type="㇔" d="M18.75,20c3.35,1.61,8.66,6.63,9.5,9.13" transform="matrix(1,0,0,1,1096,-4)" class="stroke_order_diagram--existing_path"></path><path id="pathSk2v596cnhlk" kvg:type="㇋" d="M13.25,50.5C15.5,51.5,17,51,18,50.75S27.25,47.5,28.75,47c3.25-1.08,3.59,1.06,1.44,4.1C23,61.25,23.25,61,30.72,67.27c2.88,2.42,2.8,3.84,0.53,5.73c-1.5,1.25-9.25,8-10.75,8.5" transform="matrix(1,0,0,1,1096,-4)" class="stroke_order_diagram--existing_path"></path><path id="kvg:0904b-s12" kvg:type="㇏a" d="M16.25,83c3-0.5,9-1.75,13.5-0.75s29.32,7.71,33.75,9c12,3.5,21.25,4.5,30.25,2.75" transform="matrix(1,0,0,1,1096,-4)" class="stroke_order_diagram--current_path"></path><path id="pathSk2v596cnhlm" kvg:type="㇏a" d="M16.25,83c3-0.5,9-1.75,13.5-0.75s29.32,7.71,33.75,9c12,3.5,21.25,4.5,30.25,2.75" transform="matrix(1,0,0,1,1096,-4)" class="stroke_order_diagram--current_path"></path><circle cx="16.25" cy="83" r="8" class="stroke_order_diagram--path_start" transform="matrix(1,0,0,1,1096,-4)"></circle></svg>