<svg style="width: 1200px; height: 100px;" viewbox="0 0 1200 100"><style>
.stroke_order_diagram--outer_container {
  width: 100%;
  overflow-x: auto;
  overflow-y: hidden;
}

.stroke_order_diagram--guide_line {
  fill: none;
  stroke: #ddd;
  stroke-width: 3;
  stroke-linecap: square;
  stroke-linejoin: square;
  stroke-dasharray:8, 8;
}

.stroke_order_diagram--bounding_box {
  fill: none;
  stroke: #ddd;
  stroke-width: 4;
  stroke-linecap: square;
  stroke-linejoin: square;
}

.stroke_order_diagram--current_path {
  fill: none;
  stroke: #000;
  stroke-width: 6;
  stroke-linecap: round;
  stroke-linejoin: round;
}

.stroke_order_diagram--existing_path {
  fill: none;
  stroke: #aaa;
  stroke-width: 6;
  stroke-linecap: round;
  stroke-linejoin:round;
}

.stroke_order_diagram--path_start {
  fill: rgba(255, 0, 0, 0.7);
  stroke:none
}</style><desc>Created with Snap</desc><defs></defs><line x1="1" x2="1199" y1="1" y2="1" class="stroke_order_diagram--bounding_box"></line><line x1="1" x2="1" y1="1" y2="99" class="stroke_order_diagram--bounding_box"></line><line x1="1" x2="1199" y1="99" y2="99" class="stroke_order_diagram--bounding_box"></line><line x1="0" x2="1200" y1="50" y2="50" class="stroke_order_diagram--guide_line"></line><line x1="50" x2="50" y1="1" y2="99" class="stroke_order_diagram--guide_line"></line><line x1="99" x2="99" y1="1" y2="99" class="stroke_order_diagram--bounding_box"></line><path id="kvg:0904d-s1" kvg:type="㇐" d="M45.97,15.68c1.58,0.57,4.15,0.42,5.79,0.28c7.28-0.6,19.39-2,26.25-2.58c1.88-0.16,3.76-0.39,5.62,0.01" transform="matrix(1,0,0,1,-4,-4)" class="stroke_order_diagram--current_path"></path><path id="pathSk2v596cn4n8o" kvg:type="㇐" d="M45.97,15.68c1.58,0.57,4.15,0.42,5.79,0.28c7.28-0.6,19.39-2,26.25-2.58c1.88-0.16,3.76-0.39,5.62,0.01" transform="matrix(1,0,0,1,-4,-4)" class="stroke_order_diagram--current_path"></path><circle cx="45.97" cy="15.68" r="8" class="stroke_order_diagram--path_start" transform="matrix(1,0,0,1,-4,-4)"></circle><line x1="150" x2="150" y1="1" y2="99" class="stroke_order_diagram--guide_line"></line><line x1="199" x2="199" y1="1" y2="99" class="stroke_order_diagram--bounding_box"></line><path id="pathSk2v596cn4n8r" kvg:type="㇐" d="M45.97,15.68c1.58,0.57,4.15,0.42,5.79,0.28c7.28-0.6,19.39-2,26.25-2.58c1.88-0.16,3.76-0.39,5.62,0.01" transform="matrix(1,0,0,1,96,-4)" class="stroke_order_diagram--existing_path"></path><path id="kvg:0904d-s2" kvg:type="㇕c" d="M46.26,28.31c1.49,0.44,2.71,0.6,4,0.47c8.74-0.9,22.43-2.46,29.75-3.53c2.35-0.34,5.67-0.36,4.91,3.23c-0.84,4-1.93,5.6-3.04,9.51" transform="matrix(1,0,0,1,96,-4)" class="stroke_order_diagram--current_path"></path><path id="pathSk2v596cn4n8t" kvg:type="㇕c" d="M46.26,28.31c1.49,0.44,2.71,0.6,4,0.47c8.74-0.9,22.43-2.46,29.75-3.53c2.35-0.34,5.67-0.36,4.91,3.23c-0.84,4-1.93,5.6-3.04,9.51" transform="matrix(1,0,0,1,96,-4)" class="stroke_order_diagram--current_path"></path><circle cx="46.26" cy="28.31" r="8" class="stroke_order_diagram--path_start" transform="matrix(1,0,0,1,96,-4)"></circle><line x1="250" x2="250" y1="1" y2="99" class="stroke_order_diagram--guide_line"></line><line x1="299" x2="299" y1="1" y2="99" class="stroke_order_diagram--bounding_box"></line><path id="pathSk2v596cn4n8w" kvg:type="㇐" d="M45.97,15.68c1.58,0.57,4.15,0.42,5.79,0.28c7.28-0.6,19.39-2,26.25-2.58c1.88-0.16,3.76-0.39,5.62,0.01" transform="matrix(1,0,0,1,196,-4)" class="stroke_order_diagram--existing_path"></path><path id="pathSk2v596cn4n8x" kvg:type="㇕c" d="M46.26,28.31c1.49,0.44,2.71,0.6,4,0.47c8.74-0.9,22.43-2.46,29.75-3.53c2.35-0.34,5.67-0.36,4.91,3.23c-0.84,4-1.93,5.6-3.04,9.51" transform="matrix(1,0,0,1,196,-4)" class="stroke_order_diagram--existing_path"></path><path id="kvg:0904d-s3" kvg:type="㇐b" d="M49.61,42.38c5.39-0.63,18.93-2.16,29.24-3.15c2.04-0.2,3.88-0.36,5.4-0.48" transform="matrix(1,0,0,1,196,-4)" class="stroke_order_diagram--current_path"></path><path id="pathSk2v596cn4n8z" kvg:type="㇐b" d="M49.61,42.38c5.39-0.63,18.93-2.16,29.24-3.15c2.04-0.2,3.88-0.36,5.4-0.48" transform="matrix(1,0,0,1,196,-4)" class="stroke_order_diagram--current_path"></path><circle cx="49.61" cy="42.38" r="8" class="stroke_order_diagram--path_start" transform="matrix(1,0,0,1,196,-4)"></circle><line x1="350" x2="350" y1="1" y2="99" class="stroke_order_diagram--guide_line"></line><line x1="399" x2="399" y1="1" y2="99" class="stroke_order_diagram--bounding_box"></line><path id="pathSk2v596cn4n92" kvg:type="㇐" d="M45.97,15.68c1.58,0.57,4.15,0.42,5.79,0.28c7.28-0.6,19.39-2,26.25-2.58c1.88-0.16,3.76-0.39,5.62,0.01" transform="matrix(1,0,0,1,296,-4)" class="stroke_order_diagram--existing_path"></path><path id="pathSk2v596cn4n93" kvg:type="㇕c" d="M46.26,28.31c1.49,0.44,2.71,0.6,4,0.47c8.74-0.9,22.43-2.46,29.75-3.53c2.35-0.34,5.67-0.36,4.91,3.23c-0.84,4-1.93,5.6-3.04,9.51" transform="matrix(1,0,0,1,296,-4)" class="stroke_order_diagram--existing_path"></path><path id="pathSk2v596cn4n94" kvg:type="㇐b" d="M49.61,42.38c5.39-0.63,18.93-2.16,29.24-3.15c2.04-0.2,3.88-0.36,5.4-0.48" transform="matrix(1,0,0,1,296,-4)" class="stroke_order_diagram--existing_path"></path><path id="kvg:0904d-s4" kvg:type="㇒" d="M47.48,29.21c0.91,0.91,1.41,2.38,1.42,3.85c0.13,18.53-4.78,31.87-13.02,39.68" transform="matrix(1,0,0,1,296,-4)" class="stroke_order_diagram--current_path"></path><path id="pathSk2v596cn4n96" kvg:type="㇒" d="M47.48,29.21c0.91,0.91,1.41,2.38,1.42,3.85c0.13,18.53-4.78,31.87-13.02,39.68" transform="matrix(1,0,0,1,296,-4)" class="stroke_order_diagram--current_path"></path><circle cx="47.48" cy="29.21" r="8" class="stroke_order_diagram--path_start" transform="matrix(1,0,0,1,296,-4)"></circle><line x1="450" x2="450" y1="1" y2="99" class="stroke_order_diagram--guide_line"></line><line x1="499" x2="499" y1="1" y2="99" class="stroke_order_diagram--bounding_box"></line><path id="pathSk2v596cn4n99" kvg:type="㇐" d="M45.97,15.68c1.58,0.57,4.15,0.42,5.79,0.28c7.28-0.6,19.39-2,26.25-2.58c1.88-0.16,3.76-0.39,5.62,0.01" transform="matrix(1,0,0,1,396,-4)" class="stroke_order_diagram--existing_path"></path><path id="pathSk2v596cn4n9a" kvg:type="㇕c" d="M46.26,28.31c1.49,0.44,2.71,0.6,4,0.47c8.74-0.9,22.43-2.46,29.75-3.53c2.35-0.34,5.67-0.36,4.91,3.23c-0.84,4-1.93,5.6-3.04,9.51" transform="matrix(1,0,0,1,396,-4)" class="stroke_order_diagram--existing_path"></path><path id="pathSk2v596cn4n9b" kvg:type="㇐b" d="M49.61,42.38c5.39-0.63,18.93-2.16,29.24-3.15c2.04-0.2,3.88-0.36,5.4-0.48" transform="matrix(1,0,0,1,396,-4)" class="stroke_order_diagram--existing_path"></path><path id="pathSk2v596cn4n9c" kvg:type="㇒" d="M47.48,29.21c0.91,0.91,1.41,2.38,1.42,3.85c0.13,18.53-4.78,31.87-13.02,39.68" transform="matrix(1,0,0,1,396,-4)" class="stroke_order_diagram--existing_path"></path><path id="kvg:0904d-s5" kvg:type="㇑" d="M49.65,53.47c0.81,0.81,1.05,1.78,1.05,3.1c0,0.78-0.09,11.53-0.01,19.05c0.03,3.27-0.06,4.89-0.06,5.38" transform="matrix(1,0,0,1,396,-4)" class="stroke_order_diagram--current_path"></path><path id="pathSk2v596cn4n9e" kvg:type="㇑" d="M49.65,53.47c0.81,0.81,1.05,1.78,1.05,3.1c0,0.78-0.09,11.53-0.01,19.05c0.03,3.27-0.06,4.89-0.06,5.38" transform="matrix(1,0,0,1,396,-4)" class="stroke_order_diagram--current_path"></path><circle cx="49.65" cy="53.47" r="8" class="stroke_order_diagram--path_start" transform="matrix(1,0,0,1,396,-4)"></circle><line x1="550" x2="550" y1="1" y2="99" class="stroke_order_diagram--guide_line"></line><line x1="599" x2="599" y1="1" y2="99" class="stroke_order_diagram--bounding_box"></line><path id="pathSk2v596cn4n9h" kvg:type="㇐" d="M45.97,15.68c1.58,0.57,4.15,0.42,5.79,0.28c7.28-0.6,19.39-2,26.25-2.58c1.88-0.16,3.76-0.39,5.62,0.01" transform="matrix(1,0,0,1,496,-4)" class="stroke_order_diagram--existing_path"></path><path id="pathSk2v596cn4n9i" kvg:type="㇕c" d="M46.26,28.31c1.49,0.44,2.71,0.6,4,0.47c8.74-0.9,22.43-2.46,29.75-3.53c2.35-0.34,5.67-0.36,4.91,3.23c-0.84,4-1.93,5.6-3.04,9.51" transform="matrix(1,0,0,1,496,-4)" class="stroke_order_diagram--existing_path"></path><path id="pathSk2v596cn4n9j" kvg:type="㇐b" d="M49.61,42.38c5.39-0.63,18.93-2.16,29.24-3.15c2.04-0.2,3.88-0.36,5.4-0.48" transform="matrix(1,0,0,1,496,-4)" class="stroke_order_diagram--existing_path"></path><path id="pathSk2v596cn4n9k" kvg:type="㇒" d="M47.48,29.21c0.91,0.91,1.41,2.38,1.42,3.85c0.13,18.53-4.78,31.87-13.02,39.68" transform="matrix(1,0,0,1,496,-4)" class="stroke_order_diagram--existing_path"></path><path id="pathSk2v596cn4n9l" kvg:type="㇑" d="M49.65,53.47c0.81,0.81,1.05,1.78,1.05,3.1c0,0.78-0.09,11.53-0.01,19.05c0.03,3.27-0.06,4.89-0.06,5.38" transform="matrix(1,0,0,1,496,-4)" class="stroke_order_diagram--existing_path"></path><path id="kvg:0904d-s6" kvg:type="㇆a" d="M51.57,54.8c6.18-0.86,25.31-3.33,32.45-4.19c3.29-0.39,5.66,0.64,5.66,3.75c0,6.39-0.05,19.14-0.05,22.51c0,7.63-3.89,3.13-5.25,1.82" transform="matrix(1,0,0,1,496,-4)" class="stroke_order_diagram--current_path"></path><path id="pathSk2v596cn4n9n" kvg:type="㇆a" d="M51.57,54.8c6.18-0.86,25.31-3.33,32.45-4.19c3.29-0.39,5.66,0.64,5.66,3.75c0,6.39-0.05,19.14-0.05,22.51c0,7.63-3.89,3.13-5.25,1.82" transform="matrix(1,0,0,1,496,-4)" class="stroke_order_diagram--current_path"></path><circle cx="51.57" cy="54.8" r="8" class="stroke_order_diagram--path_start" transform="matrix(1,0,0,1,496,-4)"></circle><line x1="650" x2="650" y1="1" y2="99" class="stroke_order_diagram--guide_line"></line><line x1="699" x2="699" y1="1" y2="99" class="stroke_order_diagram--bounding_box"></line><path id="pathSk2v596cn4n9q" kvg:type="㇐" d="M45.97,15.68c1.58,0.57,4.15,0.42,5.79,0.28c7.28-0.6,19.39-2,26.25-2.58c1.88-0.16,3.76-0.39,5.62,0.01" transform="matrix(1,0,0,1,596,-4)" class="stroke_order_diagram--existing_path"></path><path id="pathSk2v596cn4n9r" kvg:type="㇕c" d="M46.26,28.31c1.49,0.44,2.71,0.6,4,0.47c8.74-0.9,22.43-2.46,29.75-3.53c2.35-0.34,5.67-0.36,4.91,3.23c-0.84,4-1.93,5.6-3.04,9.51" transform="matrix(1,0,0,1,596,-4)" class="stroke_order_diagram--existing_path"></path><path id="pathSk2v596cn4n9s" kvg:type="㇐b" d="M49.61,42.38c5.39-0.63,18.93-2.16,29.24-3.15c2.04-0.2,3.88-0.36,5.4-0.48" transform="matrix(1,0,0,1,596,-4)" class="stroke_order_diagram--existing_path"></path><path id="pathSk2v596cn4n9t" kvg:type="㇒" d="M47.48,29.21c0.91,0.91,1.41,2.38,1.42,3.85c0.13,18.53-4.78,31.87-13.02,39.68" transform="matrix(1,0,0,1,596,-4)" class="stroke_order_diagram--existing_path"></path><path id="pathSk2v596cn4n9u" kvg:type="㇑" d="M49.65,53.47c0.81,0.81,1.05,1.78,1.05,3.1c0,0.78-0.09,11.53-0.01,19.05c0.03,3.27-0.06,4.89-0.06,5.38" transform="matrix(1,0,0,1,596,-4)" class="stroke_order_diagram--existing_path"></path><path id="pathSk2v596cn4n9v" kvg:type="㇆a" d="M51.57,54.8c6.18-0.86,25.31-3.33,32.45-4.19c3.29-0.39,5.66,0.64,5.66,3.75c0,6.39-0.05,19.14-0.05,22.51c0,7.63-3.89,3.13-5.25,1.82" transform="matrix(1,0,0,1,596,-4)" class="stroke_order_diagram--existing_path"></path><path id="kvg:0904d-s7" kvg:type="㇐a" d="M52,66.75c6.75-0.88,25.75-3.38,36.55-3.85" transform="matrix(1,0,0,1,596,-4)" class="stroke_order_diagram--current_path"></path><path id="pathSk2v596cn4n9x" kvg:type="㇐a" d="M52,66.75c6.75-0.88,25.75-3.38,36.55-3.85" transform="matrix(1,0,0,1,596,-4)" class="stroke_order_diagram--current_path"></path><circle cx="52" cy="66.75" r="8" class="stroke_order_diagram--path_start" transform="matrix(1,0,0,1,596,-4)"></circle><line x1="750" x2="750" y1="1" y2="99" class="stroke_order_diagram--guide_line"></line><line x1="799" x2="799" y1="1" y2="99" class="stroke_order_diagram--bounding_box"></line><path id="pathSk2v596cn4na0" kvg:type="㇐" d="M45.97,15.68c1.58,0.57,4.15,0.42,5.79,0.28c7.28-0.6,19.39-2,26.25-2.58c1.88-0.16,3.76-0.39,5.62,0.01" transform="matrix(1,0,0,1,696,-4)" class="stroke_order_diagram--existing_path"></path><path id="pathSk2v596cn4na1" kvg:type="㇕c" d="M46.26,28.31c1.49,0.44,2.71,0.6,4,0.47c8.74-0.9,22.43-2.46,29.75-3.53c2.35-0.34,5.67-0.36,4.91,3.23c-0.84,4-1.93,5.6-3.04,9.51" transform="matrix(1,0,0,1,696,-4)" class="stroke_order_diagram--existing_path"></path><path id="pathSk2v596cn4na2" kvg:type="㇐b" d="M49.61,42.38c5.39-0.63,18.93-2.16,29.24-3.15c2.04-0.2,3.88-0.36,5.4-0.48" transform="matrix(1,0,0,1,696,-4)" class="stroke_order_diagram--existing_path"></path><path id="pathSk2v596cn4na3" kvg:type="㇒" d="M47.48,29.21c0.91,0.91,1.41,2.38,1.42,3.85c0.13,18.53-4.78,31.87-13.02,39.68" transform="matrix(1,0,0,1,696,-4)" class="stroke_order_diagram--existing_path"></path><path id="pathSk2v596cn4na4" kvg:type="㇑" d="M49.65,53.47c0.81,0.81,1.05,1.78,1.05,3.1c0,0.78-0.09,11.53-0.01,19.05c0.03,3.27-0.06,4.89-0.06,5.38" transform="matrix(1,0,0,1,696,-4)" class="stroke_order_diagram--existing_path"></path><path id="pathSk2v596cn4na5" kvg:type="㇆a" d="M51.57,54.8c6.18-0.86,25.31-3.33,32.45-4.19c3.29-0.39,5.66,0.64,5.66,3.75c0,6.39-0.05,19.14-0.05,22.51c0,7.63-3.89,3.13-5.25,1.82" transform="matrix(1,0,0,1,696,-4)" class="stroke_order_diagram--existing_path"></path><path id="pathSk2v596cn4na6" kvg:type="㇐a" d="M52,66.75c6.75-0.88,25.75-3.38,36.55-3.85" transform="matrix(1,0,0,1,696,-4)" class="stroke_order_diagram--existing_path"></path><path id="kvg:0904d-s8" kvg:type="㇑" d="M61.68,55.79c0.7,0.7,0.89,1.71,0.89,2.79c0,0.31,0.06,10.94-0.03,17.67c-0.04,2.52,0.01,3.44-0.04,4.12" transform="matrix(1,0,0,1,696,-4)" class="stroke_order_diagram--current_path"></path><path id="pathSk2v596cn4na8" kvg:type="㇑" d="M61.68,55.79c0.7,0.7,0.89,1.71,0.89,2.79c0,0.31,0.06,10.94-0.03,17.67c-0.04,2.52,0.01,3.44-0.04,4.12" transform="matrix(1,0,0,1,696,-4)" class="stroke_order_diagram--current_path"></path><circle cx="61.68" cy="55.79" r="8" class="stroke_order_diagram--path_start" transform="matrix(1,0,0,1,696,-4)"></circle><line x1="850" x2="850" y1="1" y2="99" class="stroke_order_diagram--guide_line"></line><line x1="899" x2="899" y1="1" y2="99" class="stroke_order_diagram--bounding_box"></line><path id="pathSk2v596cn4nab" kvg:type="㇐" d="M45.97,15.68c1.58,0.57,4.15,0.42,5.79,0.28c7.28-0.6,19.39-2,26.25-2.58c1.88-0.16,3.76-0.39,5.62,0.01" transform="matrix(1,0,0,1,796,-4)" class="stroke_order_diagram--existing_path"></path><path id="pathSk2v596cn4nac" kvg:type="㇕c" d="M46.26,28.31c1.49,0.44,2.71,0.6,4,0.47c8.74-0.9,22.43-2.46,29.75-3.53c2.35-0.34,5.67-0.36,4.91,3.23c-0.84,4-1.93,5.6-3.04,9.51" transform="matrix(1,0,0,1,796,-4)" class="stroke_order_diagram--existing_path"></path><path id="pathSk2v596cn4nad" kvg:type="㇐b" d="M49.61,42.38c5.39-0.63,18.93-2.16,29.24-3.15c2.04-0.2,3.88-0.36,5.4-0.48" transform="matrix(1,0,0,1,796,-4)" class="stroke_order_diagram--existing_path"></path><path id="pathSk2v596cn4nae" kvg:type="㇒" d="M47.48,29.21c0.91,0.91,1.41,2.38,1.42,3.85c0.13,18.53-4.78,31.87-13.02,39.68" transform="matrix(1,0,0,1,796,-4)" class="stroke_order_diagram--existing_path"></path><path id="pathSk2v596cn4naf" kvg:type="㇑" d="M49.65,53.47c0.81,0.81,1.05,1.78,1.05,3.1c0,0.78-0.09,11.53-0.01,19.05c0.03,3.27-0.06,4.89-0.06,5.38" transform="matrix(1,0,0,1,796,-4)" class="stroke_order_diagram--existing_path"></path><path id="pathSk2v596cn4nag" kvg:type="㇆a" d="M51.57,54.8c6.18-0.86,25.31-3.33,32.45-4.19c3.29-0.39,5.66,0.64,5.66,3.75c0,6.39-0.05,19.14-0.05,22.51c0,7.63-3.89,3.13-5.25,1.82" transform="matrix(1,0,0,1,796,-4)" class="stroke_order_diagram--existing_path"></path><path id="pathSk2v596cn4nah" kvg:type="㇐a" d="M52,66.75c6.75-0.88,25.75-3.38,36.55-3.85" transform="matrix(1,0,0,1,796,-4)" class="stroke_order_diagram--existing_path"></path><path id="pathSk2v596cn4nai" kvg:type="㇑" d="M61.68,55.79c0.7,0.7,0.89,1.71,0.89,2.79c0,0.31,0.06,10.94-0.03,17.67c-0.04,2.52,0.01,3.44-0.04,4.12" transform="matrix(1,0,0,1,796,-4)" class="stroke_order_diagram--existing_path"></path><path id="kvg:0904d-s9" kvg:type="㇑" d="M73.5,54.23c0.76,0.76,1.14,1.64,1.14,2.54c0,0.22,0.07,11.11,0.09,17.72c0.01,2.77,0.01,4.79,0,4.98" transform="matrix(1,0,0,1,796,-4)" class="stroke_order_diagram--current_path"></path><path id="pathSk2v596cn4nak" kvg:type="㇑" d="M73.5,54.23c0.76,0.76,1.14,1.64,1.14,2.54c0,0.22,0.07,11.11,0.09,17.72c0.01,2.77,0.01,4.79,0,4.98" transform="matrix(1,0,0,1,796,-4)" class="stroke_order_diagram--current_path"></path><circle cx="73.5" cy="54.23" r="8" class="stroke_order_diagram--path_start" transform="matrix(1,0,0,1,796,-4)"></circle><line x1="950" x2="950" y1="1" y2="99" class="stroke_order_diagram--guide_line"></line><line x1="999" x2="999" y1="1" y2="99" class="stroke_order_diagram--bounding_box"></line><path id="pathSk2v596cn4nan" kvg:type="㇐" d="M45.97,15.68c1.58,0.57,4.15,0.42,5.79,0.28c7.28-0.6,19.39-2,26.25-2.58c1.88-0.16,3.76-0.39,5.62,0.01" transform="matrix(1,0,0,1,896,-4)" class="stroke_order_diagram--existing_path"></path><path id="pathSk2v596cn4nao" kvg:type="㇕c" d="M46.26,28.31c1.49,0.44,2.71,0.6,4,0.47c8.74-0.9,22.43-2.46,29.75-3.53c2.35-0.34,5.67-0.36,4.91,3.23c-0.84,4-1.93,5.6-3.04,9.51" transform="matrix(1,0,0,1,896,-4)" class="stroke_order_diagram--existing_path"></path><path id="pathSk2v596cn4nap" kvg:type="㇐b" d="M49.61,42.38c5.39-0.63,18.93-2.16,29.24-3.15c2.04-0.2,3.88-0.36,5.4-0.48" transform="matrix(1,0,0,1,896,-4)" class="stroke_order_diagram--existing_path"></path><path id="pathSk2v596cn4naq" kvg:type="㇒" d="M47.48,29.21c0.91,0.91,1.41,2.38,1.42,3.85c0.13,18.53-4.78,31.87-13.02,39.68" transform="matrix(1,0,0,1,896,-4)" class="stroke_order_diagram--existing_path"></path><path id="pathSk2v596cn4nar" kvg:type="㇑" d="M49.65,53.47c0.81,0.81,1.05,1.78,1.05,3.1c0,0.78-0.09,11.53-0.01,19.05c0.03,3.27-0.06,4.89-0.06,5.38" transform="matrix(1,0,0,1,896,-4)" class="stroke_order_diagram--existing_path"></path><path id="pathSk2v596cn4nas" kvg:type="㇆a" d="M51.57,54.8c6.18-0.86,25.31-3.33,32.45-4.19c3.29-0.39,5.66,0.64,5.66,3.75c0,6.39-0.05,19.14-0.05,22.51c0,7.63-3.89,3.13-5.25,1.82" transform="matrix(1,0,0,1,896,-4)" class="stroke_order_diagram--existing_path"></path><path id="pathSk2v596cn4nat" kvg:type="㇐a" d="M52,66.75c6.75-0.88,25.75-3.38,36.55-3.85" transform="matrix(1,0,0,1,896,-4)" class="stroke_order_diagram--existing_path"></path><path id="pathSk2v596cn4nau" kvg:type="㇑" d="M61.68,55.79c0.7,0.7,0.89,1.71,0.89,2.79c0,0.31,0.06,10.94-0.03,17.67c-0.04,2.52,0.01,3.44-0.04,4.12" transform="matrix(1,0,0,1,896,-4)" class="stroke_order_diagram--existing_path"></path><path id="pathSk2v596cn4nav" kvg:type="㇑" d="M73.5,54.23c0.76,0.76,1.14,1.64,1.14,2.54c0,0.22,0.07,11.11,0.09,17.72c0.01,2.77,0.01,4.79,0,4.98" transform="matrix(1,0,0,1,896,-4)" class="stroke_order_diagram--existing_path"></path><path id="kvg:0904d-s10" kvg:type="㇔" d="M16.71,21.5C20.69,22.98,27,27.58,28,29.88" transform="matrix(1,0,0,1,896,-4)" class="stroke_order_diagram--current_path"></path><path id="pathSk2v596cn4nax" kvg:type="㇔" d="M16.71,21.5C20.69,22.98,27,27.58,28,29.88" transform="matrix(1,0,0,1,896,-4)" class="stroke_order_diagram--current_path"></path><circle cx="16.71" cy="21.5" r="8" class="stroke_order_diagram--path_start" transform="matrix(1,0,0,1,896,-4)"></circle><line x1="1050" x2="1050" y1="1" y2="99" class="stroke_order_diagram--guide_line"></line><line x1="1099" x2="1099" y1="1" y2="99" class="stroke_order_diagram--bounding_box"></line><path id="pathSk2v596cn4nb0" kvg:type="㇐" d="M45.97,15.68c1.58,0.57,4.15,0.42,5.79,0.28c7.28-0.6,19.39-2,26.25-2.58c1.88-0.16,3.76-0.39,5.62,0.01" transform="matrix(1,0,0,1,996,-4)" class="stroke_order_diagram--existing_path"></path><path id="pathSk2v596cn4nb1" kvg:type="㇕c" d="M46.26,28.31c1.49,0.44,2.71,0.6,4,0.47c8.74-0.9,22.43-2.46,29.75-3.53c2.35-0.34,5.67-0.36,4.91,3.23c-0.84,4-1.93,5.6-3.04,9.51" transform="matrix(1,0,0,1,996,-4)" class="stroke_order_diagram--existing_path"></path><path id="pathSk2v596cn4nb2" kvg:type="㇐b" d="M49.61,42.38c5.39-0.63,18.93-2.16,29.24-3.15c2.04-0.2,3.88-0.36,5.4-0.48" transform="matrix(1,0,0,1,996,-4)" class="stroke_order_diagram--existing_path"></path><path id="pathSk2v596cn4nb3" kvg:type="㇒" d="M47.48,29.21c0.91,0.91,1.41,2.38,1.42,3.85c0.13,18.53-4.78,31.87-13.02,39.68" transform="matrix(1,0,0,1,996,-4)" class="stroke_order_diagram--existing_path"></path><path id="pathSk2v596cn4nb4" kvg:type="㇑" d="M49.65,53.47c0.81,0.81,1.05,1.78,1.05,3.1c0,0.78-0.09,11.53-0.01,19.05c0.03,3.27-0.06,4.89-0.06,5.38" transform="matrix(1,0,0,1,996,-4)" class="stroke_order_diagram--existing_path"></path><path id="pathSk2v596cn4nb5" kvg:type="㇆a" d="M51.57,54.8c6.18-0.86,25.31-3.33,32.45-4.19c3.29-0.39,5.66,0.64,5.66,3.75c0,6.39-0.05,19.14-0.05,22.51c0,7.63-3.89,3.13-5.25,1.82" transform="matrix(1,0,0,1,996,-4)" class="stroke_order_diagram--existing_path"></path><path id="pathSk2v596cn4nb6" kvg:type="㇐a" d="M52,66.75c6.75-0.88,25.75-3.38,36.55-3.85" transform="matrix(1,0,0,1,996,-4)" class="stroke_order_diagram--existing_path"></path><path id="pathSk2v596cn4nb7" kvg:type="㇑" d="M61.68,55.79c0.7,0.7,0.89,1.71,0.89,2.79c0,0.31,0.06,10.94-0.03,17.67c-0.04,2.52,0.01,3.44-0.04,4.12" transform="matrix(1,0,0,1,996,-4)" class="stroke_order_diagram--existing_path"></path><path id="pathSk2v596cn4nb8" kvg:type="㇑" d="M73.5,54.23c0.76,0.76,1.14,1.64,1.14,2.54c0,0.22,0.07,11.11,0.09,17.72c0.01,2.77,0.01,4.79,0,4.98" transform="matrix(1,0,0,1,996,-4)" class="stroke_order_diagram--existing_path"></path><path id="pathSk2v596cn4nb9" kvg:type="㇔" d="M16.71,21.5C20.69,22.98,27,27.58,28,29.88" transform="matrix(1,0,0,1,996,-4)" class="stroke_order_diagram--existing_path"></path><path id="kvg:0904d-s11" kvg:type="㇋" d="M12.75,50.39c2.25,0.91,3.78,0.56,4.75,0.23c2.5-0.87,8.62-3.49,10.75-4.37c1.45-0.6,3,1.38,2,2.74C20,62.88,19.62,57,30,66.2c1.16,1.03,1,2.74-0.5,3.88S18,78.5,13.5,81.75" transform="matrix(1,0,0,1,996,-4)" class="stroke_order_diagram--current_path"></path><path id="pathSk2v596cn4nbb" kvg:type="㇋" d="M12.75,50.39c2.25,0.91,3.78,0.56,4.75,0.23c2.5-0.87,8.62-3.49,10.75-4.37c1.45-0.6,3,1.38,2,2.74C20,62.88,19.62,57,30,66.2c1.16,1.03,1,2.74-0.5,3.88S18,78.5,13.5,81.75" transform="matrix(1,0,0,1,996,-4)" class="stroke_order_diagram--current_path"></path><circle cx="12.75" cy="50.39" r="8" class="stroke_order_diagram--path_start" transform="matrix(1,0,0,1,996,-4)"></circle><line x1="1150" x2="1150" y1="1" y2="99" class="stroke_order_diagram--guide_line"></line><line x1="1199" x2="1199" y1="1" y2="99" class="stroke_order_diagram--bounding_box"></line><path id="pathSk2v596cn4nbe" kvg:type="㇐" d="M45.97,15.68c1.58,0.57,4.15,0.42,5.79,0.28c7.28-0.6,19.39-2,26.25-2.58c1.88-0.16,3.76-0.39,5.62,0.01" transform="matrix(1,0,0,1,1096,-4)" class="stroke_order_diagram--existing_path"></path><path id="pathSk2v596cn4nbf" kvg:type="㇕c" d="M46.26,28.31c1.49,0.44,2.71,0.6,4,0.47c8.74-0.9,22.43-2.46,29.75-3.53c2.35-0.34,5.67-0.36,4.91,3.23c-0.84,4-1.93,5.6-3.04,9.51" transform="matrix(1,0,0,1,1096,-4)" class="stroke_order_diagram--existing_path"></path><path id="pathSk2v596cn4nbg" kvg:type="㇐b" d="M49.61,42.38c5.39-0.63,18.93-2.16,29.24-3.15c2.04-0.2,3.88-0.36,5.4-0.48" transform="matrix(1,0,0,1,1096,-4)" class="stroke_order_diagram--existing_path"></path><path id="pathSk2v596cn4nbh" kvg:type="㇒" d="M47.48,29.21c0.91,0.91,1.41,2.38,1.42,3.85c0.13,18.53-4.78,31.87-13.02,39.68" transform="matrix(1,0,0,1,1096,-4)" class="stroke_order_diagram--existing_path"></path><path id="pathSk2v596cn4nbi" kvg:type="㇑" d="M49.65,53.47c0.81,0.81,1.05,1.78,1.05,3.1c0,0.78-0.09,11.53-0.01,19.05c0.03,3.27-0.06,4.89-0.06,5.38" transform="matrix(1,0,0,1,1096,-4)" class="stroke_order_diagram--existing_path"></path><path id="pathSk2v596cn4nbj" kvg:type="㇆a" d="M51.57,54.8c6.18-0.86,25.31-3.33,32.45-4.19c3.29-0.39,5.66,0.64,5.66,3.75c0,6.39-0.05,19.14-0.05,22.51c0,7.63-3.89,3.13-5.25,1.82" transform="matrix(1,0,0,1,1096,-4)" class="stroke_order_diagram--existing_path"></path><path id="pathSk2v596cn4nbk" kvg:type="㇐a" d="M52,66.75c6.75-0.88,25.75-3.38,36.55-3.85" transform="matrix(1,0,0,1,1096,-4)" class="stroke_order_diagram--existing_path"></path><path id="pathSk2v596cn4nbl" kvg:type="㇑" d="M61.68,55.79c0.7,0.7,0.89,1.71,0.89,2.79c0,0.31,0.06,10.94-0.03,17.67c-0.04,2.52,0.01,3.44-0.04,4.12" transform="matrix(1,0,0,1,1096,-4)" class="stroke_order_diagram--existing_path"></path><path id="pathSk2v596cn4nbm" kvg:type="㇑" d="M73.5,54.23c0.76,0.76,1.14,1.64,1.14,2.54c0,0.22,0.07,11.11,0.09,17.72c0.01,2.77,0.01,4.79,0,4.98" transform="matrix(1,0,0,1,1096,-4)" class="stroke_order_diagram--existing_path"></path><path id="pathSk2v596cn4nbn" kvg:type="㇔" d="M16.71,21.5C20.69,22.98,27,27.58,28,29.88" transform="matrix(1,0,0,1,1096,-4)" class="stroke_order_diagram--existing_path"></path><path id="pathSk2v596cn4nbo" kvg:type="㇋" d="M12.75,50.39c2.25,0.91,3.78,0.56,4.75,0.23c2.5-0.87,8.62-3.49,10.75-4.37c1.45-0.6,3,1.38,2,2.74C20,62.88,19.62,57,30,66.2c1.16,1.03,1,2.74-0.5,3.88S18,78.5,13.5,81.75" transform="matrix(1,0,0,1,1096,-4)" class="stroke_order_diagram--existing_path"></path><path id="kvg:0904d-s12" kvg:type="㇏a" d="M10.25,82.96c4.12-0.83,8.7-0.67,14.41-0.22c9.72,0.76,26.89,5.9,36.81,8.65C74.5,95,78,95.5,89,96.53" transform="matrix(1,0,0,1,1096,-4)" class="stroke_order_diagram--current_path"></path><path id="pathSk2v596cn4nbq" kvg:type="㇏a" d="M10.25,82.96c4.12-0.83,8.7-0.67,14.41-0.22c9.72,0.76,26.89,5.9,36.81,8.65C74.5,95,78,95.5,89,96.53" transform="matrix(1,0,0,1,1096,-4)" class="stroke_order_diagram--current_path"></path><circle cx="10.25" cy="82.96" r="8" class="stroke_order_diagram--path_start" transform="matrix(1,0,0,1,1096,-4)"></circle></svg>