<svg style="width: 1200px; height: 100px;" viewbox="0 0 1200 100"><style>
.stroke_order_diagram--outer_container {
  width: 100%;
  overflow-x: auto;
  overflow-y: hidden;
}

.stroke_order_diagram--guide_line {
  fill: none;
  stroke: #ddd;
  stroke-width: 3;
  stroke-linecap: square;
  stroke-linejoin: square;
  stroke-dasharray:8, 8;
}

.stroke_order_diagram--bounding_box {
  fill: none;
  stroke: #ddd;
  stroke-width: 4;
  stroke-linecap: square;
  stroke-linejoin: square;
}

.stroke_order_diagram--current_path {
  fill: none;
  stroke: #000;
  stroke-width: 6;
  stroke-linecap: round;
  stroke-linejoin: round;
}

.stroke_order_diagram--existing_path {
  fill: none;
  stroke: #aaa;
  stroke-width: 6;
  stroke-linecap: round;
  stroke-linejoin:round;
}

.stroke_order_diagram--path_start {
  fill: rgba(255, 0, 0, 0.7);
  stroke:none
}</style><desc>Created with Snap</desc><defs></defs><line x1="1" x2="1199" y1="1" y2="1" class="stroke_order_diagram--bounding_box"></line><line x1="1" x2="1" y1="1" y2="99" class="stroke_order_diagram--bounding_box"></line><line x1="1" x2="1199" y1="99" y2="99" class="stroke_order_diagram--bounding_box"></line><line x1="0" x2="1200" y1="50" y2="50" class="stroke_order_diagram--guide_line"></line><line x1="50" x2="50" y1="1" y2="99" class="stroke_order_diagram--guide_line"></line><line x1="99" x2="99" y1="1" y2="99" class="stroke_order_diagram--bounding_box"></line><path id="kvg:0904e-s1" kvg:type="㇑a" d="M48.8,15.94c1,1,1.32,2.56,1.55,4.2c0.95,6.89,1.65,15.93,2.18,24.55" transform="matrix(1,0,0,1,-4,-4)" class="stroke_order_diagram--current_path"></path><path id="pathSk2v596cn1gjo" kvg:type="㇑a" d="M48.8,15.94c1,1,1.32,2.56,1.55,4.2c0.95,6.89,1.65,15.93,2.18,24.55" transform="matrix(1,0,0,1,-4,-4)" class="stroke_order_diagram--current_path"></path><circle cx="48.8" cy="15.94" r="8" class="stroke_order_diagram--path_start" transform="matrix(1,0,0,1,-4,-4)"></circle><line x1="150" x2="150" y1="1" y2="99" class="stroke_order_diagram--guide_line"></line><line x1="199" x2="199" y1="1" y2="99" class="stroke_order_diagram--bounding_box"></line><path id="pathSk2v596cn1gjr" kvg:type="㇑a" d="M48.8,15.94c1,1,1.32,2.56,1.55,4.2c0.95,6.89,1.65,15.93,2.18,24.55" transform="matrix(1,0,0,1,96,-4)" class="stroke_order_diagram--existing_path"></path><path id="kvg:0904e-s2" kvg:type="㇕b" d="M50.35,17.12c5.51-0.7,20.88-2.44,27.67-3.18c3.68-0.4,5.23,0.68,4.91,4.44c-0.48,5.57-1.69,18.42-2.32,23.71" transform="matrix(1,0,0,1,96,-4)" class="stroke_order_diagram--current_path"></path><path id="pathSk2v596cn1gjt" kvg:type="㇕b" d="M50.35,17.12c5.51-0.7,20.88-2.44,27.67-3.18c3.68-0.4,5.23,0.68,4.91,4.44c-0.48,5.57-1.69,18.42-2.32,23.71" transform="matrix(1,0,0,1,96,-4)" class="stroke_order_diagram--current_path"></path><circle cx="50.35" cy="17.12" r="8" class="stroke_order_diagram--path_start" transform="matrix(1,0,0,1,96,-4)"></circle><line x1="250" x2="250" y1="1" y2="99" class="stroke_order_diagram--guide_line"></line><line x1="299" x2="299" y1="1" y2="99" class="stroke_order_diagram--bounding_box"></line><path id="pathSk2v596cn1gjw" kvg:type="㇑a" d="M48.8,15.94c1,1,1.32,2.56,1.55,4.2c0.95,6.89,1.65,15.93,2.18,24.55" transform="matrix(1,0,0,1,196,-4)" class="stroke_order_diagram--existing_path"></path><path id="pathSk2v596cn1gjx" kvg:type="㇕b" d="M50.35,17.12c5.51-0.7,20.88-2.44,27.67-3.18c3.68-0.4,5.23,0.68,4.91,4.44c-0.48,5.57-1.69,18.42-2.32,23.71" transform="matrix(1,0,0,1,196,-4)" class="stroke_order_diagram--existing_path"></path><path id="kvg:0904e-s3" kvg:type="㇑a" d="M64.14,27.29c0.85,0.85,1.37,2.08,1.37,3.23c0,0.85-0.06,7.1-0.06,12.87" transform="matrix(1,0,0,1,196,-4)" class="stroke_order_diagram--current_path"></path><path id="pathSk2v596cn1gjz" kvg:type="㇑a" d="M64.14,27.29c0.85,0.85,1.37,2.08,1.37,3.23c0,0.85-0.06,7.1-0.06,12.87" transform="matrix(1,0,0,1,196,-4)" class="stroke_order_diagram--current_path"></path><circle cx="64.14" cy="27.29" r="8" class="stroke_order_diagram--path_start" transform="matrix(1,0,0,1,196,-4)"></circle><line x1="350" x2="350" y1="1" y2="99" class="stroke_order_diagram--guide_line"></line><line x1="399" x2="399" y1="1" y2="99" class="stroke_order_diagram--bounding_box"></line><path id="pathSk2v596cn1gk2" kvg:type="㇑a" d="M48.8,15.94c1,1,1.32,2.56,1.55,4.2c0.95,6.89,1.65,15.93,2.18,24.55" transform="matrix(1,0,0,1,296,-4)" class="stroke_order_diagram--existing_path"></path><path id="pathSk2v596cn1gk3" kvg:type="㇕b" d="M50.35,17.12c5.51-0.7,20.88-2.44,27.67-3.18c3.68-0.4,5.23,0.68,4.91,4.44c-0.48,5.57-1.69,18.42-2.32,23.71" transform="matrix(1,0,0,1,296,-4)" class="stroke_order_diagram--existing_path"></path><path id="pathSk2v596cn1gk4" kvg:type="㇑a" d="M64.14,27.29c0.85,0.85,1.37,2.08,1.37,3.23c0,0.85-0.06,7.1-0.06,12.87" transform="matrix(1,0,0,1,296,-4)" class="stroke_order_diagram--existing_path"></path><path id="kvg:0904e-s4" kvg:type="㇐a" d="M66.38,28.88c2.45-0.21,11.1-1.43,14.6-1.85" transform="matrix(1,0,0,1,296,-4)" class="stroke_order_diagram--current_path"></path><path id="pathSk2v596cn1gk6" kvg:type="㇐a" d="M66.38,28.88c2.45-0.21,11.1-1.43,14.6-1.85" transform="matrix(1,0,0,1,296,-4)" class="stroke_order_diagram--current_path"></path><circle cx="66.38" cy="28.88" r="8" class="stroke_order_diagram--path_start" transform="matrix(1,0,0,1,296,-4)"></circle><line x1="450" x2="450" y1="1" y2="99" class="stroke_order_diagram--guide_line"></line><line x1="499" x2="499" y1="1" y2="99" class="stroke_order_diagram--bounding_box"></line><path id="pathSk2v596cn1gk9" kvg:type="㇑a" d="M48.8,15.94c1,1,1.32,2.56,1.55,4.2c0.95,6.89,1.65,15.93,2.18,24.55" transform="matrix(1,0,0,1,396,-4)" class="stroke_order_diagram--existing_path"></path><path id="pathSk2v596cn1gka" kvg:type="㇕b" d="M50.35,17.12c5.51-0.7,20.88-2.44,27.67-3.18c3.68-0.4,5.23,0.68,4.91,4.44c-0.48,5.57-1.69,18.42-2.32,23.71" transform="matrix(1,0,0,1,396,-4)" class="stroke_order_diagram--existing_path"></path><path id="pathSk2v596cn1gkb" kvg:type="㇑a" d="M64.14,27.29c0.85,0.85,1.37,2.08,1.37,3.23c0,0.85-0.06,7.1-0.06,12.87" transform="matrix(1,0,0,1,396,-4)" class="stroke_order_diagram--existing_path"></path><path id="pathSk2v596cn1gkc" kvg:type="㇐a" d="M66.38,28.88c2.45-0.21,11.1-1.43,14.6-1.85" transform="matrix(1,0,0,1,396,-4)" class="stroke_order_diagram--existing_path"></path><path id="kvg:0904e-s5" kvg:type="㇑" d="M41.75,44.69c1.15,1.15,1.46,2.74,1.65,4.62c0.86,8.55,1.73,17.44,2.52,24.69c0.22,2.02,0.43,3.92,0.63,5.65" transform="matrix(1,0,0,1,396,-4)" class="stroke_order_diagram--current_path"></path><path id="pathSk2v596cn1gke" kvg:type="㇑" d="M41.75,44.69c1.15,1.15,1.46,2.74,1.65,4.62c0.86,8.55,1.73,17.44,2.52,24.69c0.22,2.02,0.43,3.92,0.63,5.65" transform="matrix(1,0,0,1,396,-4)" class="stroke_order_diagram--current_path"></path><circle cx="41.75" cy="44.69" r="8" class="stroke_order_diagram--path_start" transform="matrix(1,0,0,1,396,-4)"></circle><line x1="550" x2="550" y1="1" y2="99" class="stroke_order_diagram--guide_line"></line><line x1="599" x2="599" y1="1" y2="99" class="stroke_order_diagram--bounding_box"></line><path id="pathSk2v596cn1gkh" kvg:type="㇑a" d="M48.8,15.94c1,1,1.32,2.56,1.55,4.2c0.95,6.89,1.65,15.93,2.18,24.55" transform="matrix(1,0,0,1,496,-4)" class="stroke_order_diagram--existing_path"></path><path id="pathSk2v596cn1gki" kvg:type="㇕b" d="M50.35,17.12c5.51-0.7,20.88-2.44,27.67-3.18c3.68-0.4,5.23,0.68,4.91,4.44c-0.48,5.57-1.69,18.42-2.32,23.71" transform="matrix(1,0,0,1,496,-4)" class="stroke_order_diagram--existing_path"></path><path id="pathSk2v596cn1gkj" kvg:type="㇑a" d="M64.14,27.29c0.85,0.85,1.37,2.08,1.37,3.23c0,0.85-0.06,7.1-0.06,12.87" transform="matrix(1,0,0,1,496,-4)" class="stroke_order_diagram--existing_path"></path><path id="pathSk2v596cn1gkk" kvg:type="㇐a" d="M66.38,28.88c2.45-0.21,11.1-1.43,14.6-1.85" transform="matrix(1,0,0,1,496,-4)" class="stroke_order_diagram--existing_path"></path><path id="pathSk2v596cn1gkl" kvg:type="㇑" d="M41.75,44.69c1.15,1.15,1.46,2.74,1.65,4.62c0.86,8.55,1.73,17.44,2.52,24.69c0.22,2.02,0.43,3.92,0.63,5.65" transform="matrix(1,0,0,1,496,-4)" class="stroke_order_diagram--existing_path"></path><path id="kvg:0904e-s6" kvg:type="㇆a" d="M44.15,46.8c5.59-0.71,32-3.05,41.1-3.95c4.66-0.46,7.02,0.75,6.71,5.78c-0.43,7.04-2.43,22.39-4.93,29.24c-2.89,7.91-5.23,2.74-7.33,0.01" transform="matrix(1,0,0,1,496,-4)" class="stroke_order_diagram--current_path"></path><path id="pathSk2v596cn1gkn" kvg:type="㇆a" d="M44.15,46.8c5.59-0.71,32-3.05,41.1-3.95c4.66-0.46,7.02,0.75,6.71,5.78c-0.43,7.04-2.43,22.39-4.93,29.24c-2.89,7.91-5.23,2.74-7.33,0.01" transform="matrix(1,0,0,1,496,-4)" class="stroke_order_diagram--current_path"></path><circle cx="44.15" cy="46.8" r="8" class="stroke_order_diagram--path_start" transform="matrix(1,0,0,1,496,-4)"></circle><line x1="650" x2="650" y1="1" y2="99" class="stroke_order_diagram--guide_line"></line><line x1="699" x2="699" y1="1" y2="99" class="stroke_order_diagram--bounding_box"></line><path id="pathSk2v596cn1gkq" kvg:type="㇑a" d="M48.8,15.94c1,1,1.32,2.56,1.55,4.2c0.95,6.89,1.65,15.93,2.18,24.55" transform="matrix(1,0,0,1,596,-4)" class="stroke_order_diagram--existing_path"></path><path id="pathSk2v596cn1gkr" kvg:type="㇕b" d="M50.35,17.12c5.51-0.7,20.88-2.44,27.67-3.18c3.68-0.4,5.23,0.68,4.91,4.44c-0.48,5.57-1.69,18.42-2.32,23.71" transform="matrix(1,0,0,1,596,-4)" class="stroke_order_diagram--existing_path"></path><path id="pathSk2v596cn1gks" kvg:type="㇑a" d="M64.14,27.29c0.85,0.85,1.37,2.08,1.37,3.23c0,0.85-0.06,7.1-0.06,12.87" transform="matrix(1,0,0,1,596,-4)" class="stroke_order_diagram--existing_path"></path><path id="pathSk2v596cn1gkt" kvg:type="㇐a" d="M66.38,28.88c2.45-0.21,11.1-1.43,14.6-1.85" transform="matrix(1,0,0,1,596,-4)" class="stroke_order_diagram--existing_path"></path><path id="pathSk2v596cn1gku" kvg:type="㇑" d="M41.75,44.69c1.15,1.15,1.46,2.74,1.65,4.62c0.86,8.55,1.73,17.44,2.52,24.69c0.22,2.02,0.43,3.92,0.63,5.65" transform="matrix(1,0,0,1,596,-4)" class="stroke_order_diagram--existing_path"></path><path id="pathSk2v596cn1gkv" kvg:type="㇆a" d="M44.15,46.8c5.59-0.71,32-3.05,41.1-3.95c4.66-0.46,7.02,0.75,6.71,5.78c-0.43,7.04-2.43,22.39-4.93,29.24c-2.89,7.91-5.23,2.74-7.33,0.01" transform="matrix(1,0,0,1,596,-4)" class="stroke_order_diagram--existing_path"></path><path id="kvg:0904e-s7" kvg:type="㇑" d="M56,55.77c0.8,0.8,0.99,1.52,1.15,2.47c0.55,3.33,0.9,5.72,1.51,9c0.19,1.03,0.41,2.14,0.67,3.4" transform="matrix(1,0,0,1,596,-4)" class="stroke_order_diagram--current_path"></path><path id="pathSk2v596cn1gkx" kvg:type="㇑" d="M56,55.77c0.8,0.8,0.99,1.52,1.15,2.47c0.55,3.33,0.9,5.72,1.51,9c0.19,1.03,0.41,2.14,0.67,3.4" transform="matrix(1,0,0,1,596,-4)" class="stroke_order_diagram--current_path"></path><circle cx="56" cy="55.77" r="8" class="stroke_order_diagram--path_start" transform="matrix(1,0,0,1,596,-4)"></circle><line x1="750" x2="750" y1="1" y2="99" class="stroke_order_diagram--guide_line"></line><line x1="799" x2="799" y1="1" y2="99" class="stroke_order_diagram--bounding_box"></line><path id="pathSk2v596cn1gl0" kvg:type="㇑a" d="M48.8,15.94c1,1,1.32,2.56,1.55,4.2c0.95,6.89,1.65,15.93,2.18,24.55" transform="matrix(1,0,0,1,696,-4)" class="stroke_order_diagram--existing_path"></path><path id="pathSk2v596cn1gl1" kvg:type="㇕b" d="M50.35,17.12c5.51-0.7,20.88-2.44,27.67-3.18c3.68-0.4,5.23,0.68,4.91,4.44c-0.48,5.57-1.69,18.42-2.32,23.71" transform="matrix(1,0,0,1,696,-4)" class="stroke_order_diagram--existing_path"></path><path id="pathSk2v596cn1gl2" kvg:type="㇑a" d="M64.14,27.29c0.85,0.85,1.37,2.08,1.37,3.23c0,0.85-0.06,7.1-0.06,12.87" transform="matrix(1,0,0,1,696,-4)" class="stroke_order_diagram--existing_path"></path><path id="pathSk2v596cn1gl3" kvg:type="㇐a" d="M66.38,28.88c2.45-0.21,11.1-1.43,14.6-1.85" transform="matrix(1,0,0,1,696,-4)" class="stroke_order_diagram--existing_path"></path><path id="pathSk2v596cn1gl4" kvg:type="㇑" d="M41.75,44.69c1.15,1.15,1.46,2.74,1.65,4.62c0.86,8.55,1.73,17.44,2.52,24.69c0.22,2.02,0.43,3.92,0.63,5.65" transform="matrix(1,0,0,1,696,-4)" class="stroke_order_diagram--existing_path"></path><path id="pathSk2v596cn1gl5" kvg:type="㇆a" d="M44.15,46.8c5.59-0.71,32-3.05,41.1-3.95c4.66-0.46,7.02,0.75,6.71,5.78c-0.43,7.04-2.43,22.39-4.93,29.24c-2.89,7.91-5.23,2.74-7.33,0.01" transform="matrix(1,0,0,1,696,-4)" class="stroke_order_diagram--existing_path"></path><path id="pathSk2v596cn1gl6" kvg:type="㇑" d="M56,55.77c0.8,0.8,0.99,1.52,1.15,2.47c0.55,3.33,0.9,5.72,1.51,9c0.19,1.03,0.41,2.14,0.67,3.4" transform="matrix(1,0,0,1,696,-4)" class="stroke_order_diagram--existing_path"></path><path id="kvg:0904e-s8" kvg:type="㇕b" d="M57.99,56.82c7.14-0.94,12.18-1.58,15.64-2.02c2.54-0.32,3.5,0.38,2.93,2.97c-0.68,3.08-1.42,5.13-2.22,8.12" transform="matrix(1,0,0,1,696,-4)" class="stroke_order_diagram--current_path"></path><path id="pathSk2v596cn1gl8" kvg:type="㇕b" d="M57.99,56.82c7.14-0.94,12.18-1.58,15.64-2.02c2.54-0.32,3.5,0.38,2.93,2.97c-0.68,3.08-1.42,5.13-2.22,8.12" transform="matrix(1,0,0,1,696,-4)" class="stroke_order_diagram--current_path"></path><circle cx="57.99" cy="56.82" r="8" class="stroke_order_diagram--path_start" transform="matrix(1,0,0,1,696,-4)"></circle><line x1="850" x2="850" y1="1" y2="99" class="stroke_order_diagram--guide_line"></line><line x1="899" x2="899" y1="1" y2="99" class="stroke_order_diagram--bounding_box"></line><path id="pathSk2v596cn1glb" kvg:type="㇑a" d="M48.8,15.94c1,1,1.32,2.56,1.55,4.2c0.95,6.89,1.65,15.93,2.18,24.55" transform="matrix(1,0,0,1,796,-4)" class="stroke_order_diagram--existing_path"></path><path id="pathSk2v596cn1glc" kvg:type="㇕b" d="M50.35,17.12c5.51-0.7,20.88-2.44,27.67-3.18c3.68-0.4,5.23,0.68,4.91,4.44c-0.48,5.57-1.69,18.42-2.32,23.71" transform="matrix(1,0,0,1,796,-4)" class="stroke_order_diagram--existing_path"></path><path id="pathSk2v596cn1gld" kvg:type="㇑a" d="M64.14,27.29c0.85,0.85,1.37,2.08,1.37,3.23c0,0.85-0.06,7.1-0.06,12.87" transform="matrix(1,0,0,1,796,-4)" class="stroke_order_diagram--existing_path"></path><path id="pathSk2v596cn1gle" kvg:type="㇐a" d="M66.38,28.88c2.45-0.21,11.1-1.43,14.6-1.85" transform="matrix(1,0,0,1,796,-4)" class="stroke_order_diagram--existing_path"></path><path id="pathSk2v596cn1glf" kvg:type="㇑" d="M41.75,44.69c1.15,1.15,1.46,2.74,1.65,4.62c0.86,8.55,1.73,17.44,2.52,24.69c0.22,2.02,0.43,3.92,0.63,5.65" transform="matrix(1,0,0,1,796,-4)" class="stroke_order_diagram--existing_path"></path><path id="pathSk2v596cn1glg" kvg:type="㇆a" d="M44.15,46.8c5.59-0.71,32-3.05,41.1-3.95c4.66-0.46,7.02,0.75,6.71,5.78c-0.43,7.04-2.43,22.39-4.93,29.24c-2.89,7.91-5.23,2.74-7.33,0.01" transform="matrix(1,0,0,1,796,-4)" class="stroke_order_diagram--existing_path"></path><path id="pathSk2v596cn1glh" kvg:type="㇑" d="M56,55.77c0.8,0.8,0.99,1.52,1.15,2.47c0.55,3.33,0.9,5.72,1.51,9c0.19,1.03,0.41,2.14,0.67,3.4" transform="matrix(1,0,0,1,796,-4)" class="stroke_order_diagram--existing_path"></path><path id="pathSk2v596cn1gli" kvg:type="㇕b" d="M57.99,56.82c7.14-0.94,12.18-1.58,15.64-2.02c2.54-0.32,3.5,0.38,2.93,2.97c-0.68,3.08-1.42,5.13-2.22,8.12" transform="matrix(1,0,0,1,796,-4)" class="stroke_order_diagram--existing_path"></path><path id="kvg:0904e-s9" kvg:type="㇐b" d="M60.22,68.44c3.26-0.39,7.78-0.85,12.32-1.4c1.11-0.14,2.22-0.28,3.32-0.42" transform="matrix(1,0,0,1,796,-4)" class="stroke_order_diagram--current_path"></path><path id="pathSk2v596cn1glk" kvg:type="㇐b" d="M60.22,68.44c3.26-0.39,7.78-0.85,12.32-1.4c1.11-0.14,2.22-0.28,3.32-0.42" transform="matrix(1,0,0,1,796,-4)" class="stroke_order_diagram--current_path"></path><circle cx="60.22" cy="68.44" r="8" class="stroke_order_diagram--path_start" transform="matrix(1,0,0,1,796,-4)"></circle><line x1="950" x2="950" y1="1" y2="99" class="stroke_order_diagram--guide_line"></line><line x1="999" x2="999" y1="1" y2="99" class="stroke_order_diagram--bounding_box"></line><path id="pathSk2v596cn1gln" kvg:type="㇑a" d="M48.8,15.94c1,1,1.32,2.56,1.55,4.2c0.95,6.89,1.65,15.93,2.18,24.55" transform="matrix(1,0,0,1,896,-4)" class="stroke_order_diagram--existing_path"></path><path id="pathSk2v596cn1glo" kvg:type="㇕b" d="M50.35,17.12c5.51-0.7,20.88-2.44,27.67-3.18c3.68-0.4,5.23,0.68,4.91,4.44c-0.48,5.57-1.69,18.42-2.32,23.71" transform="matrix(1,0,0,1,896,-4)" class="stroke_order_diagram--existing_path"></path><path id="pathSk2v596cn1glp" kvg:type="㇑a" d="M64.14,27.29c0.85,0.85,1.37,2.08,1.37,3.23c0,0.85-0.06,7.1-0.06,12.87" transform="matrix(1,0,0,1,896,-4)" class="stroke_order_diagram--existing_path"></path><path id="pathSk2v596cn1glq" kvg:type="㇐a" d="M66.38,28.88c2.45-0.21,11.1-1.43,14.6-1.85" transform="matrix(1,0,0,1,896,-4)" class="stroke_order_diagram--existing_path"></path><path id="pathSk2v596cn1glr" kvg:type="㇑" d="M41.75,44.69c1.15,1.15,1.46,2.74,1.65,4.62c0.86,8.55,1.73,17.44,2.52,24.69c0.22,2.02,0.43,3.92,0.63,5.65" transform="matrix(1,0,0,1,896,-4)" class="stroke_order_diagram--existing_path"></path><path id="pathSk2v596cn1gls" kvg:type="㇆a" d="M44.15,46.8c5.59-0.71,32-3.05,41.1-3.95c4.66-0.46,7.02,0.75,6.71,5.78c-0.43,7.04-2.43,22.39-4.93,29.24c-2.89,7.91-5.23,2.74-7.33,0.01" transform="matrix(1,0,0,1,896,-4)" class="stroke_order_diagram--existing_path"></path><path id="pathSk2v596cn1glt" kvg:type="㇑" d="M56,55.77c0.8,0.8,0.99,1.52,1.15,2.47c0.55,3.33,0.9,5.72,1.51,9c0.19,1.03,0.41,2.14,0.67,3.4" transform="matrix(1,0,0,1,896,-4)" class="stroke_order_diagram--existing_path"></path><path id="pathSk2v596cn1glu" kvg:type="㇕b" d="M57.99,56.82c7.14-0.94,12.18-1.58,15.64-2.02c2.54-0.32,3.5,0.38,2.93,2.97c-0.68,3.08-1.42,5.13-2.22,8.12" transform="matrix(1,0,0,1,896,-4)" class="stroke_order_diagram--existing_path"></path><path id="pathSk2v596cn1glv" kvg:type="㇐b" d="M60.22,68.44c3.26-0.39,7.78-0.85,12.32-1.4c1.11-0.14,2.22-0.28,3.32-0.42" transform="matrix(1,0,0,1,896,-4)" class="stroke_order_diagram--existing_path"></path><path id="kvg:0904e-s10" kvg:type="㇔" d="M20.38,19.12c3.84,1.77,9.92,7.26,10.88,10.01" transform="matrix(1,0,0,1,896,-4)" class="stroke_order_diagram--current_path"></path><path id="pathSk2v596cn1glx" kvg:type="㇔" d="M20.38,19.12c3.84,1.77,9.92,7.26,10.88,10.01" transform="matrix(1,0,0,1,896,-4)" class="stroke_order_diagram--current_path"></path><circle cx="20.38" cy="19.12" r="8" class="stroke_order_diagram--path_start" transform="matrix(1,0,0,1,896,-4)"></circle><line x1="1050" x2="1050" y1="1" y2="99" class="stroke_order_diagram--guide_line"></line><line x1="1099" x2="1099" y1="1" y2="99" class="stroke_order_diagram--bounding_box"></line><path id="pathSk2v596cn1gm0" kvg:type="㇑a" d="M48.8,15.94c1,1,1.32,2.56,1.55,4.2c0.95,6.89,1.65,15.93,2.18,24.55" transform="matrix(1,0,0,1,996,-4)" class="stroke_order_diagram--existing_path"></path><path id="pathSk2v596cn1gm1" kvg:type="㇕b" d="M50.35,17.12c5.51-0.7,20.88-2.44,27.67-3.18c3.68-0.4,5.23,0.68,4.91,4.44c-0.48,5.57-1.69,18.42-2.32,23.71" transform="matrix(1,0,0,1,996,-4)" class="stroke_order_diagram--existing_path"></path><path id="pathSk2v596cn1gm2" kvg:type="㇑a" d="M64.14,27.29c0.85,0.85,1.37,2.08,1.37,3.23c0,0.85-0.06,7.1-0.06,12.87" transform="matrix(1,0,0,1,996,-4)" class="stroke_order_diagram--existing_path"></path><path id="pathSk2v596cn1gm3" kvg:type="㇐a" d="M66.38,28.88c2.45-0.21,11.1-1.43,14.6-1.85" transform="matrix(1,0,0,1,996,-4)" class="stroke_order_diagram--existing_path"></path><path id="pathSk2v596cn1gm4" kvg:type="㇑" d="M41.75,44.69c1.15,1.15,1.46,2.74,1.65,4.62c0.86,8.55,1.73,17.44,2.52,24.69c0.22,2.02,0.43,3.92,0.63,5.65" transform="matrix(1,0,0,1,996,-4)" class="stroke_order_diagram--existing_path"></path><path id="pathSk2v596cn1gm5" kvg:type="㇆a" d="M44.15,46.8c5.59-0.71,32-3.05,41.1-3.95c4.66-0.46,7.02,0.75,6.71,5.78c-0.43,7.04-2.43,22.39-4.93,29.24c-2.89,7.91-5.23,2.74-7.33,0.01" transform="matrix(1,0,0,1,996,-4)" class="stroke_order_diagram--existing_path"></path><path id="pathSk2v596cn1gm6" kvg:type="㇑" d="M56,55.77c0.8,0.8,0.99,1.52,1.15,2.47c0.55,3.33,0.9,5.72,1.51,9c0.19,1.03,0.41,2.14,0.67,3.4" transform="matrix(1,0,0,1,996,-4)" class="stroke_order_diagram--existing_path"></path><path id="pathSk2v596cn1gm7" kvg:type="㇕b" d="M57.99,56.82c7.14-0.94,12.18-1.58,15.64-2.02c2.54-0.32,3.5,0.38,2.93,2.97c-0.68,3.08-1.42,5.13-2.22,8.12" transform="matrix(1,0,0,1,996,-4)" class="stroke_order_diagram--existing_path"></path><path id="pathSk2v596cn1gm8" kvg:type="㇐b" d="M60.22,68.44c3.26-0.39,7.78-0.85,12.32-1.4c1.11-0.14,2.22-0.28,3.32-0.42" transform="matrix(1,0,0,1,996,-4)" class="stroke_order_diagram--existing_path"></path><path id="pathSk2v596cn1gm9" kvg:type="㇔" d="M20.38,19.12c3.84,1.77,9.92,7.26,10.88,10.01" transform="matrix(1,0,0,1,996,-4)" class="stroke_order_diagram--existing_path"></path><path id="kvg:0904e-s11" kvg:type="㇋" d="M12.75,50.75c2.25,1,3.75,0.5,4.75,0.25s9.75-3.75,11.25-4.25s3.16,0.57,2.25,2.5c-6.75,14.25-7.38,9.75-0.25,19c1.48,1.92,1.25,3.25-0.25,4.5S21.5,81,20,81.5" transform="matrix(1,0,0,1,996,-4)" class="stroke_order_diagram--current_path"></path><path id="pathSk2v596cn1gmb" kvg:type="㇋" d="M12.75,50.75c2.25,1,3.75,0.5,4.75,0.25s9.75-3.75,11.25-4.25s3.16,0.57,2.25,2.5c-6.75,14.25-7.38,9.75-0.25,19c1.48,1.92,1.25,3.25-0.25,4.5S21.5,81,20,81.5" transform="matrix(1,0,0,1,996,-4)" class="stroke_order_diagram--current_path"></path><circle cx="12.75" cy="50.75" r="8" class="stroke_order_diagram--path_start" transform="matrix(1,0,0,1,996,-4)"></circle><line x1="1150" x2="1150" y1="1" y2="99" class="stroke_order_diagram--guide_line"></line><line x1="1199" x2="1199" y1="1" y2="99" class="stroke_order_diagram--bounding_box"></line><path id="pathSk2v596cn1gme" kvg:type="㇑a" d="M48.8,15.94c1,1,1.32,2.56,1.55,4.2c0.95,6.89,1.65,15.93,2.18,24.55" transform="matrix(1,0,0,1,1096,-4)" class="stroke_order_diagram--existing_path"></path><path id="pathSk2v596cn1gmf" kvg:type="㇕b" d="M50.35,17.12c5.51-0.7,20.88-2.44,27.67-3.18c3.68-0.4,5.23,0.68,4.91,4.44c-0.48,5.57-1.69,18.42-2.32,23.71" transform="matrix(1,0,0,1,1096,-4)" class="stroke_order_diagram--existing_path"></path><path id="pathSk2v596cn1gmg" kvg:type="㇑a" d="M64.14,27.29c0.85,0.85,1.37,2.08,1.37,3.23c0,0.85-0.06,7.1-0.06,12.87" transform="matrix(1,0,0,1,1096,-4)" class="stroke_order_diagram--existing_path"></path><path id="pathSk2v596cn1gmh" kvg:type="㇐a" d="M66.38,28.88c2.45-0.21,11.1-1.43,14.6-1.85" transform="matrix(1,0,0,1,1096,-4)" class="stroke_order_diagram--existing_path"></path><path id="pathSk2v596cn1gmi" kvg:type="㇑" d="M41.75,44.69c1.15,1.15,1.46,2.74,1.65,4.62c0.86,8.55,1.73,17.44,2.52,24.69c0.22,2.02,0.43,3.92,0.63,5.65" transform="matrix(1,0,0,1,1096,-4)" class="stroke_order_diagram--existing_path"></path><path id="pathSk2v596cn1gmj" kvg:type="㇆a" d="M44.15,46.8c5.59-0.71,32-3.05,41.1-3.95c4.66-0.46,7.02,0.75,6.71,5.78c-0.43,7.04-2.43,22.39-4.93,29.24c-2.89,7.91-5.23,2.74-7.33,0.01" transform="matrix(1,0,0,1,1096,-4)" class="stroke_order_diagram--existing_path"></path><path id="pathSk2v596cn1gmk" kvg:type="㇑" d="M56,55.77c0.8,0.8,0.99,1.52,1.15,2.47c0.55,3.33,0.9,5.72,1.51,9c0.19,1.03,0.41,2.14,0.67,3.4" transform="matrix(1,0,0,1,1096,-4)" class="stroke_order_diagram--existing_path"></path><path id="pathSk2v596cn1gml" kvg:type="㇕b" d="M57.99,56.82c7.14-0.94,12.18-1.58,15.64-2.02c2.54-0.32,3.5,0.38,2.93,2.97c-0.68,3.08-1.42,5.13-2.22,8.12" transform="matrix(1,0,0,1,1096,-4)" class="stroke_order_diagram--existing_path"></path><path id="pathSk2v596cn1gmm" kvg:type="㇐b" d="M60.22,68.44c3.26-0.39,7.78-0.85,12.32-1.4c1.11-0.14,2.22-0.28,3.32-0.42" transform="matrix(1,0,0,1,1096,-4)" class="stroke_order_diagram--existing_path"></path><path id="pathSk2v596cn1gmn" kvg:type="㇔" d="M20.38,19.12c3.84,1.77,9.92,7.26,10.88,10.01" transform="matrix(1,0,0,1,1096,-4)" class="stroke_order_diagram--existing_path"></path><path id="pathSk2v596cn1gmo" kvg:type="㇋" d="M12.75,50.75c2.25,1,3.75,0.5,4.75,0.25s9.75-3.75,11.25-4.25s3.16,0.57,2.25,2.5c-6.75,14.25-7.38,9.75-0.25,19c1.48,1.92,1.25,3.25-0.25,4.5S21.5,81,20,81.5" transform="matrix(1,0,0,1,1096,-4)" class="stroke_order_diagram--existing_path"></path><path id="kvg:0904e-s12" kvg:type="㇏a" d="M15.25,83.25c3-0.5,8.94-1.17,13.5-0.5c6,0.88,30.07,7.21,34.5,8.5c12,3.5,17.38,4.38,26.75,4.5" transform="matrix(1,0,0,1,1096,-4)" class="stroke_order_diagram--current_path"></path><path id="pathSk2v596cn1gmq" kvg:type="㇏a" d="M15.25,83.25c3-0.5,8.94-1.17,13.5-0.5c6,0.88,30.07,7.21,34.5,8.5c12,3.5,17.38,4.38,26.75,4.5" transform="matrix(1,0,0,1,1096,-4)" class="stroke_order_diagram--current_path"></path><circle cx="15.25" cy="83.25" r="8" class="stroke_order_diagram--path_start" transform="matrix(1,0,0,1,1096,-4)"></circle></svg>