<svg style="width: 1000px; height: 100px;" viewbox="0 0 1000 100"><style>
.stroke_order_diagram--outer_container {
  width: 100%;
  overflow-x: auto;
  overflow-y: hidden;
}

.stroke_order_diagram--guide_line {
  fill: none;
  stroke: #ddd;
  stroke-width: 3;
  stroke-linecap: square;
  stroke-linejoin: square;
  stroke-dasharray:8, 8;
}

.stroke_order_diagram--bounding_box {
  fill: none;
  stroke: #ddd;
  stroke-width: 4;
  stroke-linecap: square;
  stroke-linejoin: square;
}

.stroke_order_diagram--current_path {
  fill: none;
  stroke: #000;
  stroke-width: 6;
  stroke-linecap: round;
  stroke-linejoin: round;
}

.stroke_order_diagram--existing_path {
  fill: none;
  stroke: #aaa;
  stroke-width: 6;
  stroke-linecap: round;
  stroke-linejoin:round;
}

.stroke_order_diagram--path_start {
  fill: rgba(255, 0, 0, 0.7);
  stroke:none
}</style><desc>Created with Snap</desc><defs></defs><line x1="1" x2="999" y1="1" y2="1" class="stroke_order_diagram--bounding_box"></line><line x1="1" x2="1" y1="1" y2="99" class="stroke_order_diagram--bounding_box"></line><line x1="1" x2="999" y1="99" y2="99" class="stroke_order_diagram--bounding_box"></line><line x1="0" x2="1000" y1="50" y2="50" class="stroke_order_diagram--guide_line"></line><line x1="50" x2="50" y1="1" y2="99" class="stroke_order_diagram--guide_line"></line><line x1="99" x2="99" y1="1" y2="99" class="stroke_order_diagram--bounding_box"></line><path id="kvg:091dd-s1" kvg:type="㇒" d="M34.75,14.24c0,1.34-0.07,2.55-0.49,3.84c-2.15,6.56-12.08,23.06-20.29,30.55" transform="matrix(1,0,0,1,-4,-4)" class="stroke_order_diagram--current_path"></path><path id="pathSk2v596cn1sfb" kvg:type="㇒" d="M34.75,14.24c0,1.34-0.07,2.55-0.49,3.84c-2.15,6.56-12.08,23.06-20.29,30.55" transform="matrix(1,0,0,1,-4,-4)" class="stroke_order_diagram--current_path"></path><circle cx="34.75" cy="14.24" r="8" class="stroke_order_diagram--path_start" transform="matrix(1,0,0,1,-4,-4)"></circle><line x1="150" x2="150" y1="1" y2="99" class="stroke_order_diagram--guide_line"></line><line x1="199" x2="199" y1="1" y2="99" class="stroke_order_diagram--bounding_box"></line><path id="pathSk2v596cn1sfe" kvg:type="㇒" d="M34.75,14.24c0,1.34-0.07,2.55-0.49,3.84c-2.15,6.56-12.08,23.06-20.29,30.55" transform="matrix(1,0,0,1,96,-4)" class="stroke_order_diagram--existing_path"></path><path id="kvg:091dd-s2" kvg:type="㇔/㇏" d="M36.64,20.46c5.86,2.29,10.61,5.79,15.11,10.29" transform="matrix(1,0,0,1,96,-4)" class="stroke_order_diagram--current_path"></path><path id="pathSk2v596cn1sfg" kvg:type="㇔/㇏" d="M36.64,20.46c5.86,2.29,10.61,5.79,15.11,10.29" transform="matrix(1,0,0,1,96,-4)" class="stroke_order_diagram--current_path"></path><circle cx="36.64" cy="20.46" r="8" class="stroke_order_diagram--path_start" transform="matrix(1,0,0,1,96,-4)"></circle><line x1="250" x2="250" y1="1" y2="99" class="stroke_order_diagram--guide_line"></line><line x1="299" x2="299" y1="1" y2="99" class="stroke_order_diagram--bounding_box"></line><path id="pathSk2v596cn1sfj" kvg:type="㇒" d="M34.75,14.24c0,1.34-0.07,2.55-0.49,3.84c-2.15,6.56-12.08,23.06-20.29,30.55" transform="matrix(1,0,0,1,196,-4)" class="stroke_order_diagram--existing_path"></path><path id="pathSk2v596cn1sfk" kvg:type="㇔/㇏" d="M36.64,20.46c5.86,2.29,10.61,5.79,15.11,10.29" transform="matrix(1,0,0,1,196,-4)" class="stroke_order_diagram--existing_path"></path><path id="kvg:091dd-s3" kvg:type="㇐" d="M26,42.5c1.5,0,2.19,0.15,2.67,0.06c4.83-0.93,10.08-2.06,13.44-2.75c0.72-0.15,0.9-0.05,2.15-0.05" transform="matrix(1,0,0,1,196,-4)" class="stroke_order_diagram--current_path"></path><path id="pathSk2v596cn1sfm" kvg:type="㇐" d="M26,42.5c1.5,0,2.19,0.15,2.67,0.06c4.83-0.93,10.08-2.06,13.44-2.75c0.72-0.15,0.9-0.05,2.15-0.05" transform="matrix(1,0,0,1,196,-4)" class="stroke_order_diagram--current_path"></path><circle cx="26" cy="42.5" r="8" class="stroke_order_diagram--path_start" transform="matrix(1,0,0,1,196,-4)"></circle><line x1="350" x2="350" y1="1" y2="99" class="stroke_order_diagram--guide_line"></line><line x1="399" x2="399" y1="1" y2="99" class="stroke_order_diagram--bounding_box"></line><path id="pathSk2v596cn1sfp" kvg:type="㇒" d="M34.75,14.24c0,1.34-0.07,2.55-0.49,3.84c-2.15,6.56-12.08,23.06-20.29,30.55" transform="matrix(1,0,0,1,296,-4)" class="stroke_order_diagram--existing_path"></path><path id="pathSk2v596cn1sfq" kvg:type="㇔/㇏" d="M36.64,20.46c5.86,2.29,10.61,5.79,15.11,10.29" transform="matrix(1,0,0,1,296,-4)" class="stroke_order_diagram--existing_path"></path><path id="pathSk2v596cn1sfr" kvg:type="㇐" d="M26,42.5c1.5,0,2.19,0.15,2.67,0.06c4.83-0.93,10.08-2.06,13.44-2.75c0.72-0.15,0.9-0.05,2.15-0.05" transform="matrix(1,0,0,1,296,-4)" class="stroke_order_diagram--existing_path"></path><path id="kvg:091dd-s4" kvg:type="㇐" d="M15.59,56.81c2.16,0.44,4.54,0.29,6.16,0.04c6.73-1.07,18.55-3.78,26.04-5.52c1.11-0.26,2.09-0.2,3.49-0.1" transform="matrix(1,0,0,1,296,-4)" class="stroke_order_diagram--current_path"></path><path id="pathSk2v596cn1sft" kvg:type="㇐" d="M15.59,56.81c2.16,0.44,4.54,0.29,6.16,0.04c6.73-1.07,18.55-3.78,26.04-5.52c1.11-0.26,2.09-0.2,3.49-0.1" transform="matrix(1,0,0,1,296,-4)" class="stroke_order_diagram--current_path"></path><circle cx="15.59" cy="56.81" r="8" class="stroke_order_diagram--path_start" transform="matrix(1,0,0,1,296,-4)"></circle><line x1="450" x2="450" y1="1" y2="99" class="stroke_order_diagram--guide_line"></line><line x1="499" x2="499" y1="1" y2="99" class="stroke_order_diagram--bounding_box"></line><path id="pathSk2v596cn1sfw" kvg:type="㇒" d="M34.75,14.24c0,1.34-0.07,2.55-0.49,3.84c-2.15,6.56-12.08,23.06-20.29,30.55" transform="matrix(1,0,0,1,396,-4)" class="stroke_order_diagram--existing_path"></path><path id="pathSk2v596cn1sfx" kvg:type="㇔/㇏" d="M36.64,20.46c5.86,2.29,10.61,5.79,15.11,10.29" transform="matrix(1,0,0,1,396,-4)" class="stroke_order_diagram--existing_path"></path><path id="pathSk2v596cn1sfy" kvg:type="㇐" d="M26,42.5c1.5,0,2.19,0.15,2.67,0.06c4.83-0.93,10.08-2.06,13.44-2.75c0.72-0.15,0.9-0.05,2.15-0.05" transform="matrix(1,0,0,1,396,-4)" class="stroke_order_diagram--existing_path"></path><path id="pathSk2v596cn1sfz" kvg:type="㇐" d="M15.59,56.81c2.16,0.44,4.54,0.29,6.16,0.04c6.73-1.07,18.55-3.78,26.04-5.52c1.11-0.26,2.09-0.2,3.49-0.1" transform="matrix(1,0,0,1,396,-4)" class="stroke_order_diagram--existing_path"></path><path id="kvg:091dd-s5" kvg:type="㇑a" d="M34.45,43.94c0.93,0.93,1.49,2.18,1.49,3.39c0,4.35,0.06,27.42,0.06,34.23" transform="matrix(1,0,0,1,396,-4)" class="stroke_order_diagram--current_path"></path><path id="pathSk2v596cn1sg1" kvg:type="㇑a" d="M34.45,43.94c0.93,0.93,1.49,2.18,1.49,3.39c0,4.35,0.06,27.42,0.06,34.23" transform="matrix(1,0,0,1,396,-4)" class="stroke_order_diagram--current_path"></path><circle cx="34.45" cy="43.94" r="8" class="stroke_order_diagram--path_start" transform="matrix(1,0,0,1,396,-4)"></circle><line x1="550" x2="550" y1="1" y2="99" class="stroke_order_diagram--guide_line"></line><line x1="599" x2="599" y1="1" y2="99" class="stroke_order_diagram--bounding_box"></line><path id="pathSk2v596cn1sg4" kvg:type="㇒" d="M34.75,14.24c0,1.34-0.07,2.55-0.49,3.84c-2.15,6.56-12.08,23.06-20.29,30.55" transform="matrix(1,0,0,1,496,-4)" class="stroke_order_diagram--existing_path"></path><path id="pathSk2v596cn1sg5" kvg:type="㇔/㇏" d="M36.64,20.46c5.86,2.29,10.61,5.79,15.11,10.29" transform="matrix(1,0,0,1,496,-4)" class="stroke_order_diagram--existing_path"></path><path id="pathSk2v596cn1sg6" kvg:type="㇐" d="M26,42.5c1.5,0,2.19,0.15,2.67,0.06c4.83-0.93,10.08-2.06,13.44-2.75c0.72-0.15,0.9-0.05,2.15-0.05" transform="matrix(1,0,0,1,496,-4)" class="stroke_order_diagram--existing_path"></path><path id="pathSk2v596cn1sg7" kvg:type="㇐" d="M15.59,56.81c2.16,0.44,4.54,0.29,6.16,0.04c6.73-1.07,18.55-3.78,26.04-5.52c1.11-0.26,2.09-0.2,3.49-0.1" transform="matrix(1,0,0,1,496,-4)" class="stroke_order_diagram--existing_path"></path><path id="pathSk2v596cn1sg8" kvg:type="㇑a" d="M34.45,43.94c0.93,0.93,1.49,2.18,1.49,3.39c0,4.35,0.06,27.42,0.06,34.23" transform="matrix(1,0,0,1,496,-4)" class="stroke_order_diagram--existing_path"></path><path id="kvg:091dd-s6" kvg:type="㇔" d="M18,67.5c4.6,3.54,6.85,7.38,7.79,9.45" transform="matrix(1,0,0,1,496,-4)" class="stroke_order_diagram--current_path"></path><path id="pathSk2v596cn1sga" kvg:type="㇔" d="M18,67.5c4.6,3.54,6.85,7.38,7.79,9.45" transform="matrix(1,0,0,1,496,-4)" class="stroke_order_diagram--current_path"></path><circle cx="18" cy="67.5" r="8" class="stroke_order_diagram--path_start" transform="matrix(1,0,0,1,496,-4)"></circle><line x1="650" x2="650" y1="1" y2="99" class="stroke_order_diagram--guide_line"></line><line x1="699" x2="699" y1="1" y2="99" class="stroke_order_diagram--bounding_box"></line><path id="pathSk2v596cn1sgd" kvg:type="㇒" d="M34.75,14.24c0,1.34-0.07,2.55-0.49,3.84c-2.15,6.56-12.08,23.06-20.29,30.55" transform="matrix(1,0,0,1,596,-4)" class="stroke_order_diagram--existing_path"></path><path id="pathSk2v596cn1sge" kvg:type="㇔/㇏" d="M36.64,20.46c5.86,2.29,10.61,5.79,15.11,10.29" transform="matrix(1,0,0,1,596,-4)" class="stroke_order_diagram--existing_path"></path><path id="pathSk2v596cn1sgf" kvg:type="㇐" d="M26,42.5c1.5,0,2.19,0.15,2.67,0.06c4.83-0.93,10.08-2.06,13.44-2.75c0.72-0.15,0.9-0.05,2.15-0.05" transform="matrix(1,0,0,1,596,-4)" class="stroke_order_diagram--existing_path"></path><path id="pathSk2v596cn1sgg" kvg:type="㇐" d="M15.59,56.81c2.16,0.44,4.54,0.29,6.16,0.04c6.73-1.07,18.55-3.78,26.04-5.52c1.11-0.26,2.09-0.2,3.49-0.1" transform="matrix(1,0,0,1,596,-4)" class="stroke_order_diagram--existing_path"></path><path id="pathSk2v596cn1sgh" kvg:type="㇑a" d="M34.45,43.94c0.93,0.93,1.49,2.18,1.49,3.39c0,4.35,0.06,27.42,0.06,34.23" transform="matrix(1,0,0,1,596,-4)" class="stroke_order_diagram--existing_path"></path><path id="pathSk2v596cn1sgi" kvg:type="㇔" d="M18,67.5c4.6,3.54,6.85,7.38,7.79,9.45" transform="matrix(1,0,0,1,596,-4)" class="stroke_order_diagram--existing_path"></path><path id="kvg:091dd-s7" kvg:type="㇒" d="M50.09,60.05c0.16,0.7,0.04,1.7-0.31,2.37c-1.16,2.21-3.03,5.33-8.11,10.86" transform="matrix(1,0,0,1,596,-4)" class="stroke_order_diagram--current_path"></path><path id="pathSk2v596cn1sgk" kvg:type="㇒" d="M50.09,60.05c0.16,0.7,0.04,1.7-0.31,2.37c-1.16,2.21-3.03,5.33-8.11,10.86" transform="matrix(1,0,0,1,596,-4)" class="stroke_order_diagram--current_path"></path><circle cx="50.09" cy="60.05" r="8" class="stroke_order_diagram--path_start" transform="matrix(1,0,0,1,596,-4)"></circle><line x1="750" x2="750" y1="1" y2="99" class="stroke_order_diagram--guide_line"></line><line x1="799" x2="799" y1="1" y2="99" class="stroke_order_diagram--bounding_box"></line><path id="pathSk2v596cn1sgn" kvg:type="㇒" d="M34.75,14.24c0,1.34-0.07,2.55-0.49,3.84c-2.15,6.56-12.08,23.06-20.29,30.55" transform="matrix(1,0,0,1,696,-4)" class="stroke_order_diagram--existing_path"></path><path id="pathSk2v596cn1sgo" kvg:type="㇔/㇏" d="M36.64,20.46c5.86,2.29,10.61,5.79,15.11,10.29" transform="matrix(1,0,0,1,696,-4)" class="stroke_order_diagram--existing_path"></path><path id="pathSk2v596cn1sgp" kvg:type="㇐" d="M26,42.5c1.5,0,2.19,0.15,2.67,0.06c4.83-0.93,10.08-2.06,13.44-2.75c0.72-0.15,0.9-0.05,2.15-0.05" transform="matrix(1,0,0,1,696,-4)" class="stroke_order_diagram--existing_path"></path><path id="pathSk2v596cn1sgq" kvg:type="㇐" d="M15.59,56.81c2.16,0.44,4.54,0.29,6.16,0.04c6.73-1.07,18.55-3.78,26.04-5.52c1.11-0.26,2.09-0.2,3.49-0.1" transform="matrix(1,0,0,1,696,-4)" class="stroke_order_diagram--existing_path"></path><path id="pathSk2v596cn1sgr" kvg:type="㇑a" d="M34.45,43.94c0.93,0.93,1.49,2.18,1.49,3.39c0,4.35,0.06,27.42,0.06,34.23" transform="matrix(1,0,0,1,696,-4)" class="stroke_order_diagram--existing_path"></path><path id="pathSk2v596cn1sgs" kvg:type="㇔" d="M18,67.5c4.6,3.54,6.85,7.38,7.79,9.45" transform="matrix(1,0,0,1,696,-4)" class="stroke_order_diagram--existing_path"></path><path id="pathSk2v596cn1sgt" kvg:type="㇒" d="M50.09,60.05c0.16,0.7,0.04,1.7-0.31,2.37c-1.16,2.21-3.03,5.33-8.11,10.86" transform="matrix(1,0,0,1,696,-4)" class="stroke_order_diagram--existing_path"></path><path id="kvg:091dd-s8" kvg:type="㇀/㇐" d="M14.5,90.25c1,0.75,2.42,0.68,3.5,0.25c1.25-0.5,21.25-9.75,34.25-15.75" transform="matrix(1,0,0,1,696,-4)" class="stroke_order_diagram--current_path"></path><path id="pathSk2v596cn1sgv" kvg:type="㇀/㇐" d="M14.5,90.25c1,0.75,2.42,0.68,3.5,0.25c1.25-0.5,21.25-9.75,34.25-15.75" transform="matrix(1,0,0,1,696,-4)" class="stroke_order_diagram--current_path"></path><circle cx="14.5" cy="90.25" r="8" class="stroke_order_diagram--path_start" transform="matrix(1,0,0,1,696,-4)"></circle><line x1="850" x2="850" y1="1" y2="99" class="stroke_order_diagram--guide_line"></line><line x1="899" x2="899" y1="1" y2="99" class="stroke_order_diagram--bounding_box"></line><path id="pathSk2v596cn1sgy" kvg:type="㇒" d="M34.75,14.24c0,1.34-0.07,2.55-0.49,3.84c-2.15,6.56-12.08,23.06-20.29,30.55" transform="matrix(1,0,0,1,796,-4)" class="stroke_order_diagram--existing_path"></path><path id="pathSk2v596cn1sgz" kvg:type="㇔/㇏" d="M36.64,20.46c5.86,2.29,10.61,5.79,15.11,10.29" transform="matrix(1,0,0,1,796,-4)" class="stroke_order_diagram--existing_path"></path><path id="pathSk2v596cn1sh0" kvg:type="㇐" d="M26,42.5c1.5,0,2.19,0.15,2.67,0.06c4.83-0.93,10.08-2.06,13.44-2.75c0.72-0.15,0.9-0.05,2.15-0.05" transform="matrix(1,0,0,1,796,-4)" class="stroke_order_diagram--existing_path"></path><path id="pathSk2v596cn1sh1" kvg:type="㇐" d="M15.59,56.81c2.16,0.44,4.54,0.29,6.16,0.04c6.73-1.07,18.55-3.78,26.04-5.52c1.11-0.26,2.09-0.2,3.49-0.1" transform="matrix(1,0,0,1,796,-4)" class="stroke_order_diagram--existing_path"></path><path id="pathSk2v596cn1sh2" kvg:type="㇑a" d="M34.45,43.94c0.93,0.93,1.49,2.18,1.49,3.39c0,4.35,0.06,27.42,0.06,34.23" transform="matrix(1,0,0,1,796,-4)" class="stroke_order_diagram--existing_path"></path><path id="pathSk2v596cn1sh3" kvg:type="㇔" d="M18,67.5c4.6,3.54,6.85,7.38,7.79,9.45" transform="matrix(1,0,0,1,796,-4)" class="stroke_order_diagram--existing_path"></path><path id="pathSk2v596cn1sh4" kvg:type="㇒" d="M50.09,60.05c0.16,0.7,0.04,1.7-0.31,2.37c-1.16,2.21-3.03,5.33-8.11,10.86" transform="matrix(1,0,0,1,796,-4)" class="stroke_order_diagram--existing_path"></path><path id="pathSk2v596cn1sh5" kvg:type="㇀/㇐" d="M14.5,90.25c1,0.75,2.42,0.68,3.5,0.25c1.25-0.5,21.25-9.75,34.25-15.75" transform="matrix(1,0,0,1,796,-4)" class="stroke_order_diagram--existing_path"></path><path id="kvg:091dd-s9" kvg:type="㇐" d="M56.44,46.72c1.91,0.83,4.91,0.58,6.92,0.34c9.2-1.1,22.47-3.46,30.52-4.82c1.6-0.27,3.03-0.2,4.63-0.01" transform="matrix(1,0,0,1,796,-4)" class="stroke_order_diagram--current_path"></path><path id="pathSk2v596cn1sh7" kvg:type="㇐" d="M56.44,46.72c1.91,0.83,4.91,0.58,6.92,0.34c9.2-1.1,22.47-3.46,30.52-4.82c1.6-0.27,3.03-0.2,4.63-0.01" transform="matrix(1,0,0,1,796,-4)" class="stroke_order_diagram--current_path"></path><circle cx="56.44" cy="46.72" r="8" class="stroke_order_diagram--path_start" transform="matrix(1,0,0,1,796,-4)"></circle><line x1="950" x2="950" y1="1" y2="99" class="stroke_order_diagram--guide_line"></line><line x1="999" x2="999" y1="1" y2="99" class="stroke_order_diagram--bounding_box"></line><path id="pathSk2v596cn1sha" kvg:type="㇒" d="M34.75,14.24c0,1.34-0.07,2.55-0.49,3.84c-2.15,6.56-12.08,23.06-20.29,30.55" transform="matrix(1,0,0,1,896,-4)" class="stroke_order_diagram--existing_path"></path><path id="pathSk2v596cn1shb" kvg:type="㇔/㇏" d="M36.64,20.46c5.86,2.29,10.61,5.79,15.11,10.29" transform="matrix(1,0,0,1,896,-4)" class="stroke_order_diagram--existing_path"></path><path id="pathSk2v596cn1shc" kvg:type="㇐" d="M26,42.5c1.5,0,2.19,0.15,2.67,0.06c4.83-0.93,10.08-2.06,13.44-2.75c0.72-0.15,0.9-0.05,2.15-0.05" transform="matrix(1,0,0,1,896,-4)" class="stroke_order_diagram--existing_path"></path><path id="pathSk2v596cn1shd" kvg:type="㇐" d="M15.59,56.81c2.16,0.44,4.54,0.29,6.16,0.04c6.73-1.07,18.55-3.78,26.04-5.52c1.11-0.26,2.09-0.2,3.49-0.1" transform="matrix(1,0,0,1,896,-4)" class="stroke_order_diagram--existing_path"></path><path id="pathSk2v596cn1she" kvg:type="㇑a" d="M34.45,43.94c0.93,0.93,1.49,2.18,1.49,3.39c0,4.35,0.06,27.42,0.06,34.23" transform="matrix(1,0,0,1,896,-4)" class="stroke_order_diagram--existing_path"></path><path id="pathSk2v596cn1shf" kvg:type="㇔" d="M18,67.5c4.6,3.54,6.85,7.38,7.79,9.45" transform="matrix(1,0,0,1,896,-4)" class="stroke_order_diagram--existing_path"></path><path id="pathSk2v596cn1shg" kvg:type="㇒" d="M50.09,60.05c0.16,0.7,0.04,1.7-0.31,2.37c-1.16,2.21-3.03,5.33-8.11,10.86" transform="matrix(1,0,0,1,896,-4)" class="stroke_order_diagram--existing_path"></path><path id="pathSk2v596cn1shh" kvg:type="㇀/㇐" d="M14.5,90.25c1,0.75,2.42,0.68,3.5,0.25c1.25-0.5,21.25-9.75,34.25-15.75" transform="matrix(1,0,0,1,896,-4)" class="stroke_order_diagram--existing_path"></path><path id="pathSk2v596cn1shi" kvg:type="㇐" d="M56.44,46.72c1.91,0.83,4.91,0.58,6.92,0.34c9.2-1.1,22.47-3.46,30.52-4.82c1.6-0.27,3.03-0.2,4.63-0.01" transform="matrix(1,0,0,1,896,-4)" class="stroke_order_diagram--existing_path"></path><path id="kvg:091dd-s10" kvg:type="㇑" d="M75.12,12.75c0.94,0.94,1.46,2.38,1.46,3.75c0,0.72,0.02,55.68,0.03,75.12c0,3.28,0,5.55,0,6.38" transform="matrix(1,0,0,1,896,-4)" class="stroke_order_diagram--current_path"></path><path id="pathSk2v596cn1shk" kvg:type="㇑" d="M75.12,12.75c0.94,0.94,1.46,2.38,1.46,3.75c0,0.72,0.02,55.68,0.03,75.12c0,3.28,0,5.55,0,6.38" transform="matrix(1,0,0,1,896,-4)" class="stroke_order_diagram--current_path"></path><circle cx="75.12" cy="12.75" r="8" class="stroke_order_diagram--path_start" transform="matrix(1,0,0,1,896,-4)"></circle></svg>