<svg style="width: 1400px; height: 100px;" viewbox="0 0 1400 100"><style>
.stroke_order_diagram--outer_container {
  width: 100%;
  overflow-x: auto;
  overflow-y: hidden;
}

.stroke_order_diagram--guide_line {
  fill: none;
  stroke: #ddd;
  stroke-width: 3;
  stroke-linecap: square;
  stroke-linejoin: square;
  stroke-dasharray:8, 8;
}

.stroke_order_diagram--bounding_box {
  fill: none;
  stroke: #ddd;
  stroke-width: 4;
  stroke-linecap: square;
  stroke-linejoin: square;
}

.stroke_order_diagram--current_path {
  fill: none;
  stroke: #000;
  stroke-width: 6;
  stroke-linecap: round;
  stroke-linejoin: round;
}

.stroke_order_diagram--existing_path {
  fill: none;
  stroke: #aaa;
  stroke-width: 6;
  stroke-linecap: round;
  stroke-linejoin:round;
}

.stroke_order_diagram--path_start {
  fill: rgba(255, 0, 0, 0.7);
  stroke:none
}</style><desc>Created with Snap</desc><defs></defs><line x1="1" x2="1399" y1="1" y2="1" class="stroke_order_diagram--bounding_box"></line><line x1="1" x2="1" y1="1" y2="99" class="stroke_order_diagram--bounding_box"></line><line x1="1" x2="1399" y1="99" y2="99" class="stroke_order_diagram--bounding_box"></line><line x1="0" x2="1400" y1="50" y2="50" class="stroke_order_diagram--guide_line"></line><line x1="50" x2="50" y1="1" y2="99" class="stroke_order_diagram--guide_line"></line><line x1="99" x2="99" y1="1" y2="99" class="stroke_order_diagram--bounding_box"></line><path id="kvg:09283-s1" kvg:type="㇒" d="M29,18.99c0,1.02-0.04,1.71-0.36,2.68c-1.69,5.17-10,18.84-17.17,24.98" transform="matrix(1,0,0,1,-4,-4)" class="stroke_order_diagram--current_path"></path><path id="pathSk2v596cn2x5c" kvg:type="㇒" d="M29,18.99c0,1.02-0.04,1.71-0.36,2.68c-1.69,5.17-10,18.84-17.17,24.98" transform="matrix(1,0,0,1,-4,-4)" class="stroke_order_diagram--current_path"></path><circle cx="29" cy="18.99" r="8" class="stroke_order_diagram--path_start" transform="matrix(1,0,0,1,-4,-4)"></circle><line x1="150" x2="150" y1="1" y2="99" class="stroke_order_diagram--guide_line"></line><line x1="199" x2="199" y1="1" y2="99" class="stroke_order_diagram--bounding_box"></line><path id="pathSk2v596cn2x5f" kvg:type="㇒" d="M29,18.99c0,1.02-0.04,1.71-0.36,2.68c-1.69,5.17-10,18.84-17.17,24.98" transform="matrix(1,0,0,1,96,-4)" class="stroke_order_diagram--existing_path"></path><path id="kvg:09283-s2" kvg:type="㇔/㇏" d="M30.77,24.19c4.33,1.76,9.87,6.46,11.98,10.9" transform="matrix(1,0,0,1,96,-4)" class="stroke_order_diagram--current_path"></path><path id="pathSk2v596cn2x5h" kvg:type="㇔/㇏" d="M30.77,24.19c4.33,1.76,9.87,6.46,11.98,10.9" transform="matrix(1,0,0,1,96,-4)" class="stroke_order_diagram--current_path"></path><circle cx="30.77" cy="24.19" r="8" class="stroke_order_diagram--path_start" transform="matrix(1,0,0,1,96,-4)"></circle><line x1="250" x2="250" y1="1" y2="99" class="stroke_order_diagram--guide_line"></line><line x1="299" x2="299" y1="1" y2="99" class="stroke_order_diagram--bounding_box"></line><path id="pathSk2v596cn2x5k" kvg:type="㇒" d="M29,18.99c0,1.02-0.04,1.71-0.36,2.68c-1.69,5.17-10,18.84-17.17,24.98" transform="matrix(1,0,0,1,196,-4)" class="stroke_order_diagram--existing_path"></path><path id="pathSk2v596cn2x5l" kvg:type="㇔/㇏" d="M30.77,24.19c4.33,1.76,9.87,6.46,11.98,10.9" transform="matrix(1,0,0,1,196,-4)" class="stroke_order_diagram--existing_path"></path><path id="kvg:09283-s3" kvg:type="㇐" d="M19.5,43.65C20.75,44,21.83,44,23,43.88c3.92-0.41,8.92-1.74,13.63-2.49c1.07-0.17,2.04-0.2,3.12-0.2" transform="matrix(1,0,0,1,196,-4)" class="stroke_order_diagram--current_path"></path><path id="pathSk2v596cn2x5n" kvg:type="㇐" d="M19.5,43.65C20.75,44,21.83,44,23,43.88c3.92-0.41,8.92-1.74,13.63-2.49c1.07-0.17,2.04-0.2,3.12-0.2" transform="matrix(1,0,0,1,196,-4)" class="stroke_order_diagram--current_path"></path><circle cx="19.5" cy="43.65" r="8" class="stroke_order_diagram--path_start" transform="matrix(1,0,0,1,196,-4)"></circle><line x1="350" x2="350" y1="1" y2="99" class="stroke_order_diagram--guide_line"></line><line x1="399" x2="399" y1="1" y2="99" class="stroke_order_diagram--bounding_box"></line><path id="pathSk2v596cn2x5q" kvg:type="㇒" d="M29,18.99c0,1.02-0.04,1.71-0.36,2.68c-1.69,5.17-10,18.84-17.17,24.98" transform="matrix(1,0,0,1,296,-4)" class="stroke_order_diagram--existing_path"></path><path id="pathSk2v596cn2x5r" kvg:type="㇔/㇏" d="M30.77,24.19c4.33,1.76,9.87,6.46,11.98,10.9" transform="matrix(1,0,0,1,296,-4)" class="stroke_order_diagram--existing_path"></path><path id="pathSk2v596cn2x5s" kvg:type="㇐" d="M19.5,43.65C20.75,44,21.83,44,23,43.88c3.92-0.41,8.92-1.74,13.63-2.49c1.07-0.17,2.04-0.2,3.12-0.2" transform="matrix(1,0,0,1,296,-4)" class="stroke_order_diagram--existing_path"></path><path id="kvg:09283-s4" kvg:type="㇐" d="M12.34,56.1c1.46,0.78,4.34,0.56,5.91,0.37c6.05-0.75,15.56-2.63,21.79-3.55c0.74-0.11,2.09-0.29,3.49-0.1" transform="matrix(1,0,0,1,296,-4)" class="stroke_order_diagram--current_path"></path><path id="pathSk2v596cn2x5u" kvg:type="㇐" d="M12.34,56.1c1.46,0.78,4.34,0.56,5.91,0.37c6.05-0.75,15.56-2.63,21.79-3.55c0.74-0.11,2.09-0.29,3.49-0.1" transform="matrix(1,0,0,1,296,-4)" class="stroke_order_diagram--current_path"></path><circle cx="12.34" cy="56.1" r="8" class="stroke_order_diagram--path_start" transform="matrix(1,0,0,1,296,-4)"></circle><line x1="450" x2="450" y1="1" y2="99" class="stroke_order_diagram--guide_line"></line><line x1="499" x2="499" y1="1" y2="99" class="stroke_order_diagram--bounding_box"></line><path id="pathSk2v596cn2x5x" kvg:type="㇒" d="M29,18.99c0,1.02-0.04,1.71-0.36,2.68c-1.69,5.17-10,18.84-17.17,24.98" transform="matrix(1,0,0,1,396,-4)" class="stroke_order_diagram--existing_path"></path><path id="pathSk2v596cn2x5y" kvg:type="㇔/㇏" d="M30.77,24.19c4.33,1.76,9.87,6.46,11.98,10.9" transform="matrix(1,0,0,1,396,-4)" class="stroke_order_diagram--existing_path"></path><path id="pathSk2v596cn2x5z" kvg:type="㇐" d="M19.5,43.65C20.75,44,21.83,44,23,43.88c3.92-0.41,8.92-1.74,13.63-2.49c1.07-0.17,2.04-0.2,3.12-0.2" transform="matrix(1,0,0,1,396,-4)" class="stroke_order_diagram--existing_path"></path><path id="pathSk2v596cn2x60" kvg:type="㇐" d="M12.34,56.1c1.46,0.78,4.34,0.56,5.91,0.37c6.05-0.75,15.56-2.63,21.79-3.55c0.74-0.11,2.09-0.29,3.49-0.1" transform="matrix(1,0,0,1,396,-4)" class="stroke_order_diagram--existing_path"></path><path id="kvg:09283-s5" kvg:type="㇑a" d="M27.7,45.55c0.82,0.82,1.24,1.7,1.24,3.07c0,4.24,0.06,29.01,0.06,35.61" transform="matrix(1,0,0,1,396,-4)" class="stroke_order_diagram--current_path"></path><path id="pathSk2v596cn2x62" kvg:type="㇑a" d="M27.7,45.55c0.82,0.82,1.24,1.7,1.24,3.07c0,4.24,0.06,29.01,0.06,35.61" transform="matrix(1,0,0,1,396,-4)" class="stroke_order_diagram--current_path"></path><circle cx="27.7" cy="45.55" r="8" class="stroke_order_diagram--path_start" transform="matrix(1,0,0,1,396,-4)"></circle><line x1="550" x2="550" y1="1" y2="99" class="stroke_order_diagram--guide_line"></line><line x1="599" x2="599" y1="1" y2="99" class="stroke_order_diagram--bounding_box"></line><path id="pathSk2v596cn2x65" kvg:type="㇒" d="M29,18.99c0,1.02-0.04,1.71-0.36,2.68c-1.69,5.17-10,18.84-17.17,24.98" transform="matrix(1,0,0,1,496,-4)" class="stroke_order_diagram--existing_path"></path><path id="pathSk2v596cn2x66" kvg:type="㇔/㇏" d="M30.77,24.19c4.33,1.76,9.87,6.46,11.98,10.9" transform="matrix(1,0,0,1,496,-4)" class="stroke_order_diagram--existing_path"></path><path id="pathSk2v596cn2x67" kvg:type="㇐" d="M19.5,43.65C20.75,44,21.83,44,23,43.88c3.92-0.41,8.92-1.74,13.63-2.49c1.07-0.17,2.04-0.2,3.12-0.2" transform="matrix(1,0,0,1,496,-4)" class="stroke_order_diagram--existing_path"></path><path id="pathSk2v596cn2x68" kvg:type="㇐" d="M12.34,56.1c1.46,0.78,4.34,0.56,5.91,0.37c6.05-0.75,15.56-2.63,21.79-3.55c0.74-0.11,2.09-0.29,3.49-0.1" transform="matrix(1,0,0,1,496,-4)" class="stroke_order_diagram--existing_path"></path><path id="pathSk2v596cn2x69" kvg:type="㇑a" d="M27.7,45.55c0.82,0.82,1.24,1.7,1.24,3.07c0,4.24,0.06,29.01,0.06,35.61" transform="matrix(1,0,0,1,496,-4)" class="stroke_order_diagram--existing_path"></path><path id="kvg:09283-s6" kvg:type="㇔" d="M14.64,66.53c3.63,4.38,5.41,9.13,6.15,11.68" transform="matrix(1,0,0,1,496,-4)" class="stroke_order_diagram--current_path"></path><path id="pathSk2v596cn2x6b" kvg:type="㇔" d="M14.64,66.53c3.63,4.38,5.41,9.13,6.15,11.68" transform="matrix(1,0,0,1,496,-4)" class="stroke_order_diagram--current_path"></path><circle cx="14.64" cy="66.53" r="8" class="stroke_order_diagram--path_start" transform="matrix(1,0,0,1,496,-4)"></circle><line x1="650" x2="650" y1="1" y2="99" class="stroke_order_diagram--guide_line"></line><line x1="699" x2="699" y1="1" y2="99" class="stroke_order_diagram--bounding_box"></line><path id="pathSk2v596cn2x6e" kvg:type="㇒" d="M29,18.99c0,1.02-0.04,1.71-0.36,2.68c-1.69,5.17-10,18.84-17.17,24.98" transform="matrix(1,0,0,1,596,-4)" class="stroke_order_diagram--existing_path"></path><path id="pathSk2v596cn2x6f" kvg:type="㇔/㇏" d="M30.77,24.19c4.33,1.76,9.87,6.46,11.98,10.9" transform="matrix(1,0,0,1,596,-4)" class="stroke_order_diagram--existing_path"></path><path id="pathSk2v596cn2x6g" kvg:type="㇐" d="M19.5,43.65C20.75,44,21.83,44,23,43.88c3.92-0.41,8.92-1.74,13.63-2.49c1.07-0.17,2.04-0.2,3.12-0.2" transform="matrix(1,0,0,1,596,-4)" class="stroke_order_diagram--existing_path"></path><path id="pathSk2v596cn2x6h" kvg:type="㇐" d="M12.34,56.1c1.46,0.78,4.34,0.56,5.91,0.37c6.05-0.75,15.56-2.63,21.79-3.55c0.74-0.11,2.09-0.29,3.49-0.1" transform="matrix(1,0,0,1,596,-4)" class="stroke_order_diagram--existing_path"></path><path id="pathSk2v596cn2x6i" kvg:type="㇑a" d="M27.7,45.55c0.82,0.82,1.24,1.7,1.24,3.07c0,4.24,0.06,29.01,0.06,35.61" transform="matrix(1,0,0,1,596,-4)" class="stroke_order_diagram--existing_path"></path><path id="pathSk2v596cn2x6j" kvg:type="㇔" d="M14.64,66.53c3.63,4.38,5.41,9.13,6.15,11.68" transform="matrix(1,0,0,1,596,-4)" class="stroke_order_diagram--existing_path"></path><path id="kvg:09283-s7" kvg:type="㇒" d="M41.43,62.45c0.32,0.79,0.45,2.02,0.11,2.6c-1.79,3.07-2.82,4.84-6.37,9.86" transform="matrix(1,0,0,1,596,-4)" class="stroke_order_diagram--current_path"></path><path id="pathSk2v596cn2x6l" kvg:type="㇒" d="M41.43,62.45c0.32,0.79,0.45,2.02,0.11,2.6c-1.79,3.07-2.82,4.84-6.37,9.86" transform="matrix(1,0,0,1,596,-4)" class="stroke_order_diagram--current_path"></path><circle cx="41.43" cy="62.45" r="8" class="stroke_order_diagram--path_start" transform="matrix(1,0,0,1,596,-4)"></circle><line x1="750" x2="750" y1="1" y2="99" class="stroke_order_diagram--guide_line"></line><line x1="799" x2="799" y1="1" y2="99" class="stroke_order_diagram--bounding_box"></line><path id="pathSk2v596cn2x6o" kvg:type="㇒" d="M29,18.99c0,1.02-0.04,1.71-0.36,2.68c-1.69,5.17-10,18.84-17.17,24.98" transform="matrix(1,0,0,1,696,-4)" class="stroke_order_diagram--existing_path"></path><path id="pathSk2v596cn2x6p" kvg:type="㇔/㇏" d="M30.77,24.19c4.33,1.76,9.87,6.46,11.98,10.9" transform="matrix(1,0,0,1,696,-4)" class="stroke_order_diagram--existing_path"></path><path id="pathSk2v596cn2x6q" kvg:type="㇐" d="M19.5,43.65C20.75,44,21.83,44,23,43.88c3.92-0.41,8.92-1.74,13.63-2.49c1.07-0.17,2.04-0.2,3.12-0.2" transform="matrix(1,0,0,1,696,-4)" class="stroke_order_diagram--existing_path"></path><path id="pathSk2v596cn2x6r" kvg:type="㇐" d="M12.34,56.1c1.46,0.78,4.34,0.56,5.91,0.37c6.05-0.75,15.56-2.63,21.79-3.55c0.74-0.11,2.09-0.29,3.49-0.1" transform="matrix(1,0,0,1,696,-4)" class="stroke_order_diagram--existing_path"></path><path id="pathSk2v596cn2x6s" kvg:type="㇑a" d="M27.7,45.55c0.82,0.82,1.24,1.7,1.24,3.07c0,4.24,0.06,29.01,0.06,35.61" transform="matrix(1,0,0,1,696,-4)" class="stroke_order_diagram--existing_path"></path><path id="pathSk2v596cn2x6t" kvg:type="㇔" d="M14.64,66.53c3.63,4.38,5.41,9.13,6.15,11.68" transform="matrix(1,0,0,1,696,-4)" class="stroke_order_diagram--existing_path"></path><path id="pathSk2v596cn2x6u" kvg:type="㇒" d="M41.43,62.45c0.32,0.79,0.45,2.02,0.11,2.6c-1.79,3.07-2.82,4.84-6.37,9.86" transform="matrix(1,0,0,1,696,-4)" class="stroke_order_diagram--existing_path"></path><path id="kvg:09283-s8" kvg:type="㇀/㇐" d="M13.5,89.04c1.12,0.96,2.47,1.14,4,0.46c4.25-1.88,10-4.25,23.75-10.22" transform="matrix(1,0,0,1,696,-4)" class="stroke_order_diagram--current_path"></path><path id="pathSk2v596cn2x6w" kvg:type="㇀/㇐" d="M13.5,89.04c1.12,0.96,2.47,1.14,4,0.46c4.25-1.88,10-4.25,23.75-10.22" transform="matrix(1,0,0,1,696,-4)" class="stroke_order_diagram--current_path"></path><circle cx="13.5" cy="89.04" r="8" class="stroke_order_diagram--path_start" transform="matrix(1,0,0,1,696,-4)"></circle><line x1="850" x2="850" y1="1" y2="99" class="stroke_order_diagram--guide_line"></line><line x1="899" x2="899" y1="1" y2="99" class="stroke_order_diagram--bounding_box"></line><path id="pathSk2v596cn2x6z" kvg:type="㇒" d="M29,18.99c0,1.02-0.04,1.71-0.36,2.68c-1.69,5.17-10,18.84-17.17,24.98" transform="matrix(1,0,0,1,796,-4)" class="stroke_order_diagram--existing_path"></path><path id="pathSk2v596cn2x70" kvg:type="㇔/㇏" d="M30.77,24.19c4.33,1.76,9.87,6.46,11.98,10.9" transform="matrix(1,0,0,1,796,-4)" class="stroke_order_diagram--existing_path"></path><path id="pathSk2v596cn2x71" kvg:type="㇐" d="M19.5,43.65C20.75,44,21.83,44,23,43.88c3.92-0.41,8.92-1.74,13.63-2.49c1.07-0.17,2.04-0.2,3.12-0.2" transform="matrix(1,0,0,1,796,-4)" class="stroke_order_diagram--existing_path"></path><path id="pathSk2v596cn2x72" kvg:type="㇐" d="M12.34,56.1c1.46,0.78,4.34,0.56,5.91,0.37c6.05-0.75,15.56-2.63,21.79-3.55c0.74-0.11,2.09-0.29,3.49-0.1" transform="matrix(1,0,0,1,796,-4)" class="stroke_order_diagram--existing_path"></path><path id="pathSk2v596cn2x73" kvg:type="㇑a" d="M27.7,45.55c0.82,0.82,1.24,1.7,1.24,3.07c0,4.24,0.06,29.01,0.06,35.61" transform="matrix(1,0,0,1,796,-4)" class="stroke_order_diagram--existing_path"></path><path id="pathSk2v596cn2x74" kvg:type="㇔" d="M14.64,66.53c3.63,4.38,5.41,9.13,6.15,11.68" transform="matrix(1,0,0,1,796,-4)" class="stroke_order_diagram--existing_path"></path><path id="pathSk2v596cn2x75" kvg:type="㇒" d="M41.43,62.45c0.32,0.79,0.45,2.02,0.11,2.6c-1.79,3.07-2.82,4.84-6.37,9.86" transform="matrix(1,0,0,1,796,-4)" class="stroke_order_diagram--existing_path"></path><path id="pathSk2v596cn2x76" kvg:type="㇀/㇐" d="M13.5,89.04c1.12,0.96,2.47,1.14,4,0.46c4.25-1.88,10-4.25,23.75-10.22" transform="matrix(1,0,0,1,796,-4)" class="stroke_order_diagram--existing_path"></path><path id="kvg:09283-s9" kvg:type="㇑a" d="M68.33,17.49c1.09,1.09,1.46,2.38,1.46,3.84c0,3.57-0.04,5.21-0.04,9.66" transform="matrix(1,0,0,1,796,-4)" class="stroke_order_diagram--current_path"></path><path id="pathSk2v596cn2x78" kvg:type="㇑a" d="M68.33,17.49c1.09,1.09,1.46,2.38,1.46,3.84c0,3.57-0.04,5.21-0.04,9.66" transform="matrix(1,0,0,1,796,-4)" class="stroke_order_diagram--current_path"></path><circle cx="68.33" cy="17.49" r="8" class="stroke_order_diagram--path_start" transform="matrix(1,0,0,1,796,-4)"></circle><line x1="950" x2="950" y1="1" y2="99" class="stroke_order_diagram--guide_line"></line><line x1="999" x2="999" y1="1" y2="99" class="stroke_order_diagram--bounding_box"></line><path id="pathSk2v596cn2x7b" kvg:type="㇒" d="M29,18.99c0,1.02-0.04,1.71-0.36,2.68c-1.69,5.17-10,18.84-17.17,24.98" transform="matrix(1,0,0,1,896,-4)" class="stroke_order_diagram--existing_path"></path><path id="pathSk2v596cn2x7c" kvg:type="㇔/㇏" d="M30.77,24.19c4.33,1.76,9.87,6.46,11.98,10.9" transform="matrix(1,0,0,1,896,-4)" class="stroke_order_diagram--existing_path"></path><path id="pathSk2v596cn2x7d" kvg:type="㇐" d="M19.5,43.65C20.75,44,21.83,44,23,43.88c3.92-0.41,8.92-1.74,13.63-2.49c1.07-0.17,2.04-0.2,3.12-0.2" transform="matrix(1,0,0,1,896,-4)" class="stroke_order_diagram--existing_path"></path><path id="pathSk2v596cn2x7e" kvg:type="㇐" d="M12.34,56.1c1.46,0.78,4.34,0.56,5.91,0.37c6.05-0.75,15.56-2.63,21.79-3.55c0.74-0.11,2.09-0.29,3.49-0.1" transform="matrix(1,0,0,1,896,-4)" class="stroke_order_diagram--existing_path"></path><path id="pathSk2v596cn2x7f" kvg:type="㇑a" d="M27.7,45.55c0.82,0.82,1.24,1.7,1.24,3.07c0,4.24,0.06,29.01,0.06,35.61" transform="matrix(1,0,0,1,896,-4)" class="stroke_order_diagram--existing_path"></path><path id="pathSk2v596cn2x7g" kvg:type="㇔" d="M14.64,66.53c3.63,4.38,5.41,9.13,6.15,11.68" transform="matrix(1,0,0,1,896,-4)" class="stroke_order_diagram--existing_path"></path><path id="pathSk2v596cn2x7h" kvg:type="㇒" d="M41.43,62.45c0.32,0.79,0.45,2.02,0.11,2.6c-1.79,3.07-2.82,4.84-6.37,9.86" transform="matrix(1,0,0,1,896,-4)" class="stroke_order_diagram--existing_path"></path><path id="pathSk2v596cn2x7i" kvg:type="㇀/㇐" d="M13.5,89.04c1.12,0.96,2.47,1.14,4,0.46c4.25-1.88,10-4.25,23.75-10.22" transform="matrix(1,0,0,1,896,-4)" class="stroke_order_diagram--existing_path"></path><path id="pathSk2v596cn2x7j" kvg:type="㇑a" d="M68.33,17.49c1.09,1.09,1.46,2.38,1.46,3.84c0,3.57-0.04,5.21-0.04,9.66" transform="matrix(1,0,0,1,896,-4)" class="stroke_order_diagram--existing_path"></path><path id="kvg:09283-s10" kvg:type="㇐" d="M48.85,33.81c2.5,0.17,4.65,0.37,7.15-0.04c9.25-1.51,23.13-2.92,32.13-3.58c1.99-0.15,4.09-0.47,6.02,0.23" transform="matrix(1,0,0,1,896,-4)" class="stroke_order_diagram--current_path"></path><path id="pathSk2v596cn2x7l" kvg:type="㇐" d="M48.85,33.81c2.5,0.17,4.65,0.37,7.15-0.04c9.25-1.51,23.13-2.92,32.13-3.58c1.99-0.15,4.09-0.47,6.02,0.23" transform="matrix(1,0,0,1,896,-4)" class="stroke_order_diagram--current_path"></path><circle cx="48.85" cy="33.81" r="8" class="stroke_order_diagram--path_start" transform="matrix(1,0,0,1,896,-4)"></circle><line x1="1050" x2="1050" y1="1" y2="99" class="stroke_order_diagram--guide_line"></line><line x1="1099" x2="1099" y1="1" y2="99" class="stroke_order_diagram--bounding_box"></line><path id="pathSk2v596cn2x7o" kvg:type="㇒" d="M29,18.99c0,1.02-0.04,1.71-0.36,2.68c-1.69,5.17-10,18.84-17.17,24.98" transform="matrix(1,0,0,1,996,-4)" class="stroke_order_diagram--existing_path"></path><path id="pathSk2v596cn2x7p" kvg:type="㇔/㇏" d="M30.77,24.19c4.33,1.76,9.87,6.46,11.98,10.9" transform="matrix(1,0,0,1,996,-4)" class="stroke_order_diagram--existing_path"></path><path id="pathSk2v596cn2x7q" kvg:type="㇐" d="M19.5,43.65C20.75,44,21.83,44,23,43.88c3.92-0.41,8.92-1.74,13.63-2.49c1.07-0.17,2.04-0.2,3.12-0.2" transform="matrix(1,0,0,1,996,-4)" class="stroke_order_diagram--existing_path"></path><path id="pathSk2v596cn2x7r" kvg:type="㇐" d="M12.34,56.1c1.46,0.78,4.34,0.56,5.91,0.37c6.05-0.75,15.56-2.63,21.79-3.55c0.74-0.11,2.09-0.29,3.49-0.1" transform="matrix(1,0,0,1,996,-4)" class="stroke_order_diagram--existing_path"></path><path id="pathSk2v596cn2x7s" kvg:type="㇑a" d="M27.7,45.55c0.82,0.82,1.24,1.7,1.24,3.07c0,4.24,0.06,29.01,0.06,35.61" transform="matrix(1,0,0,1,996,-4)" class="stroke_order_diagram--existing_path"></path><path id="pathSk2v596cn2x7t" kvg:type="㇔" d="M14.64,66.53c3.63,4.38,5.41,9.13,6.15,11.68" transform="matrix(1,0,0,1,996,-4)" class="stroke_order_diagram--existing_path"></path><path id="pathSk2v596cn2x7u" kvg:type="㇒" d="M41.43,62.45c0.32,0.79,0.45,2.02,0.11,2.6c-1.79,3.07-2.82,4.84-6.37,9.86" transform="matrix(1,0,0,1,996,-4)" class="stroke_order_diagram--existing_path"></path><path id="pathSk2v596cn2x7v" kvg:type="㇀/㇐" d="M13.5,89.04c1.12,0.96,2.47,1.14,4,0.46c4.25-1.88,10-4.25,23.75-10.22" transform="matrix(1,0,0,1,996,-4)" class="stroke_order_diagram--existing_path"></path><path id="pathSk2v596cn2x7w" kvg:type="㇑a" d="M68.33,17.49c1.09,1.09,1.46,2.38,1.46,3.84c0,3.57-0.04,5.21-0.04,9.66" transform="matrix(1,0,0,1,996,-4)" class="stroke_order_diagram--existing_path"></path><path id="pathSk2v596cn2x7x" kvg:type="㇐" d="M48.85,33.81c2.5,0.17,4.65,0.37,7.15-0.04c9.25-1.51,23.13-2.92,32.13-3.58c1.99-0.15,4.09-0.47,6.02,0.23" transform="matrix(1,0,0,1,996,-4)" class="stroke_order_diagram--existing_path"></path><path id="kvg:09283-s11" kvg:type="㇜" d="M68.09,35.85c0.28,1.03,0.06,1.93-0.6,2.77C62.88,44.5,59,48.12,53.76,52.83c-1.87,1.67-1.93,3.33,0.9,2.85c6.89-1.17,18.93-4.29,28.51-6.25" transform="matrix(1,0,0,1,996,-4)" class="stroke_order_diagram--current_path"></path><path id="pathSk2v596cn2x7z" kvg:type="㇜" d="M68.09,35.85c0.28,1.03,0.06,1.93-0.6,2.77C62.88,44.5,59,48.12,53.76,52.83c-1.87,1.67-1.93,3.33,0.9,2.85c6.89-1.17,18.93-4.29,28.51-6.25" transform="matrix(1,0,0,1,996,-4)" class="stroke_order_diagram--current_path"></path><circle cx="68.09" cy="35.85" r="8" class="stroke_order_diagram--path_start" transform="matrix(1,0,0,1,996,-4)"></circle><line x1="1150" x2="1150" y1="1" y2="99" class="stroke_order_diagram--guide_line"></line><line x1="1199" x2="1199" y1="1" y2="99" class="stroke_order_diagram--bounding_box"></line><path id="pathSk2v596cn2x82" kvg:type="㇒" d="M29,18.99c0,1.02-0.04,1.71-0.36,2.68c-1.69,5.17-10,18.84-17.17,24.98" transform="matrix(1,0,0,1,1096,-4)" class="stroke_order_diagram--existing_path"></path><path id="pathSk2v596cn2x83" kvg:type="㇔/㇏" d="M30.77,24.19c4.33,1.76,9.87,6.46,11.98,10.9" transform="matrix(1,0,0,1,1096,-4)" class="stroke_order_diagram--existing_path"></path><path id="pathSk2v596cn2x84" kvg:type="㇐" d="M19.5,43.65C20.75,44,21.83,44,23,43.88c3.92-0.41,8.92-1.74,13.63-2.49c1.07-0.17,2.04-0.2,3.12-0.2" transform="matrix(1,0,0,1,1096,-4)" class="stroke_order_diagram--existing_path"></path><path id="pathSk2v596cn2x85" kvg:type="㇐" d="M12.34,56.1c1.46,0.78,4.34,0.56,5.91,0.37c6.05-0.75,15.56-2.63,21.79-3.55c0.74-0.11,2.09-0.29,3.49-0.1" transform="matrix(1,0,0,1,1096,-4)" class="stroke_order_diagram--existing_path"></path><path id="pathSk2v596cn2x86" kvg:type="㇑a" d="M27.7,45.55c0.82,0.82,1.24,1.7,1.24,3.07c0,4.24,0.06,29.01,0.06,35.61" transform="matrix(1,0,0,1,1096,-4)" class="stroke_order_diagram--existing_path"></path><path id="pathSk2v596cn2x87" kvg:type="㇔" d="M14.64,66.53c3.63,4.38,5.41,9.13,6.15,11.68" transform="matrix(1,0,0,1,1096,-4)" class="stroke_order_diagram--existing_path"></path><path id="pathSk2v596cn2x88" kvg:type="㇒" d="M41.43,62.45c0.32,0.79,0.45,2.02,0.11,2.6c-1.79,3.07-2.82,4.84-6.37,9.86" transform="matrix(1,0,0,1,1096,-4)" class="stroke_order_diagram--existing_path"></path><path id="pathSk2v596cn2x89" kvg:type="㇀/㇐" d="M13.5,89.04c1.12,0.96,2.47,1.14,4,0.46c4.25-1.88,10-4.25,23.75-10.22" transform="matrix(1,0,0,1,1096,-4)" class="stroke_order_diagram--existing_path"></path><path id="pathSk2v596cn2x8a" kvg:type="㇑a" d="M68.33,17.49c1.09,1.09,1.46,2.38,1.46,3.84c0,3.57-0.04,5.21-0.04,9.66" transform="matrix(1,0,0,1,1096,-4)" class="stroke_order_diagram--existing_path"></path><path id="pathSk2v596cn2x8b" kvg:type="㇐" d="M48.85,33.81c2.5,0.17,4.65,0.37,7.15-0.04c9.25-1.51,23.13-2.92,32.13-3.58c1.99-0.15,4.09-0.47,6.02,0.23" transform="matrix(1,0,0,1,1096,-4)" class="stroke_order_diagram--existing_path"></path><path id="pathSk2v596cn2x8c" kvg:type="㇜" d="M68.09,35.85c0.28,1.03,0.06,1.93-0.6,2.77C62.88,44.5,59,48.12,53.76,52.83c-1.87,1.67-1.93,3.33,0.9,2.85c6.89-1.17,18.93-4.29,28.51-6.25" transform="matrix(1,0,0,1,1096,-4)" class="stroke_order_diagram--existing_path"></path><path id="kvg:09283-s12" kvg:type="㇔" d="M78,42.88c3.59,2.35,9.28,9.66,10.18,13.31" transform="matrix(1,0,0,1,1096,-4)" class="stroke_order_diagram--current_path"></path><path id="pathSk2v596cn2x8e" kvg:type="㇔" d="M78,42.88c3.59,2.35,9.28,9.66,10.18,13.31" transform="matrix(1,0,0,1,1096,-4)" class="stroke_order_diagram--current_path"></path><circle cx="78" cy="42.88" r="8" class="stroke_order_diagram--path_start" transform="matrix(1,0,0,1,1096,-4)"></circle><line x1="1250" x2="1250" y1="1" y2="99" class="stroke_order_diagram--guide_line"></line><line x1="1299" x2="1299" y1="1" y2="99" class="stroke_order_diagram--bounding_box"></line><path id="pathSk2v596cn2x8h" kvg:type="㇒" d="M29,18.99c0,1.02-0.04,1.71-0.36,2.68c-1.69,5.17-10,18.84-17.17,24.98" transform="matrix(1,0,0,1,1196,-4)" class="stroke_order_diagram--existing_path"></path><path id="pathSk2v596cn2x8i" kvg:type="㇔/㇏" d="M30.77,24.19c4.33,1.76,9.87,6.46,11.98,10.9" transform="matrix(1,0,0,1,1196,-4)" class="stroke_order_diagram--existing_path"></path><path id="pathSk2v596cn2x8j" kvg:type="㇐" d="M19.5,43.65C20.75,44,21.83,44,23,43.88c3.92-0.41,8.92-1.74,13.63-2.49c1.07-0.17,2.04-0.2,3.12-0.2" transform="matrix(1,0,0,1,1196,-4)" class="stroke_order_diagram--existing_path"></path><path id="pathSk2v596cn2x8k" kvg:type="㇐" d="M12.34,56.1c1.46,0.78,4.34,0.56,5.91,0.37c6.05-0.75,15.56-2.63,21.79-3.55c0.74-0.11,2.09-0.29,3.49-0.1" transform="matrix(1,0,0,1,1196,-4)" class="stroke_order_diagram--existing_path"></path><path id="pathSk2v596cn2x8l" kvg:type="㇑a" d="M27.7,45.55c0.82,0.82,1.24,1.7,1.24,3.07c0,4.24,0.06,29.01,0.06,35.61" transform="matrix(1,0,0,1,1196,-4)" class="stroke_order_diagram--existing_path"></path><path id="pathSk2v596cn2x8m" kvg:type="㇔" d="M14.64,66.53c3.63,4.38,5.41,9.13,6.15,11.68" transform="matrix(1,0,0,1,1196,-4)" class="stroke_order_diagram--existing_path"></path><path id="pathSk2v596cn2x8n" kvg:type="㇒" d="M41.43,62.45c0.32,0.79,0.45,2.02,0.11,2.6c-1.79,3.07-2.82,4.84-6.37,9.86" transform="matrix(1,0,0,1,1196,-4)" class="stroke_order_diagram--existing_path"></path><path id="pathSk2v596cn2x8o" kvg:type="㇀/㇐" d="M13.5,89.04c1.12,0.96,2.47,1.14,4,0.46c4.25-1.88,10-4.25,23.75-10.22" transform="matrix(1,0,0,1,1196,-4)" class="stroke_order_diagram--existing_path"></path><path id="pathSk2v596cn2x8p" kvg:type="㇑a" d="M68.33,17.49c1.09,1.09,1.46,2.38,1.46,3.84c0,3.57-0.04,5.21-0.04,9.66" transform="matrix(1,0,0,1,1196,-4)" class="stroke_order_diagram--existing_path"></path><path id="pathSk2v596cn2x8q" kvg:type="㇐" d="M48.85,33.81c2.5,0.17,4.65,0.37,7.15-0.04c9.25-1.51,23.13-2.92,32.13-3.58c1.99-0.15,4.09-0.47,6.02,0.23" transform="matrix(1,0,0,1,1196,-4)" class="stroke_order_diagram--existing_path"></path><path id="pathSk2v596cn2x8r" kvg:type="㇜" d="M68.09,35.85c0.28,1.03,0.06,1.93-0.6,2.77C62.88,44.5,59,48.12,53.76,52.83c-1.87,1.67-1.93,3.33,0.9,2.85c6.89-1.17,18.93-4.29,28.51-6.25" transform="matrix(1,0,0,1,1196,-4)" class="stroke_order_diagram--existing_path"></path><path id="pathSk2v596cn2x8s" kvg:type="㇔" d="M78,42.88c3.59,2.35,9.28,9.66,10.18,13.31" transform="matrix(1,0,0,1,1196,-4)" class="stroke_order_diagram--existing_path"></path><path id="kvg:09283-s13" kvg:type="㇒" d="M61.36,58.27c0.68,0.68,0.71,2.09,0.64,3.28c-0.5,7.95-8.75,24.95-20.88,32.18" transform="matrix(1,0,0,1,1196,-4)" class="stroke_order_diagram--current_path"></path><path id="pathSk2v596cn2x8u" kvg:type="㇒" d="M61.36,58.27c0.68,0.68,0.71,2.09,0.64,3.28c-0.5,7.95-8.75,24.95-20.88,32.18" transform="matrix(1,0,0,1,1196,-4)" class="stroke_order_diagram--current_path"></path><circle cx="61.36" cy="58.27" r="8" class="stroke_order_diagram--path_start" transform="matrix(1,0,0,1,1196,-4)"></circle><line x1="1350" x2="1350" y1="1" y2="99" class="stroke_order_diagram--guide_line"></line><line x1="1399" x2="1399" y1="1" y2="99" class="stroke_order_diagram--bounding_box"></line><path id="pathSk2v596cn2x8x" kvg:type="㇒" d="M29,18.99c0,1.02-0.04,1.71-0.36,2.68c-1.69,5.17-10,18.84-17.17,24.98" transform="matrix(1,0,0,1,1296,-4)" class="stroke_order_diagram--existing_path"></path><path id="pathSk2v596cn2x8y" kvg:type="㇔/㇏" d="M30.77,24.19c4.33,1.76,9.87,6.46,11.98,10.9" transform="matrix(1,0,0,1,1296,-4)" class="stroke_order_diagram--existing_path"></path><path id="pathSk2v596cn2x8z" kvg:type="㇐" d="M19.5,43.65C20.75,44,21.83,44,23,43.88c3.92-0.41,8.92-1.74,13.63-2.49c1.07-0.17,2.04-0.2,3.12-0.2" transform="matrix(1,0,0,1,1296,-4)" class="stroke_order_diagram--existing_path"></path><path id="pathSk2v596cn2x90" kvg:type="㇐" d="M12.34,56.1c1.46,0.78,4.34,0.56,5.91,0.37c6.05-0.75,15.56-2.63,21.79-3.55c0.74-0.11,2.09-0.29,3.49-0.1" transform="matrix(1,0,0,1,1296,-4)" class="stroke_order_diagram--existing_path"></path><path id="pathSk2v596cn2x91" kvg:type="㇑a" d="M27.7,45.55c0.82,0.82,1.24,1.7,1.24,3.07c0,4.24,0.06,29.01,0.06,35.61" transform="matrix(1,0,0,1,1296,-4)" class="stroke_order_diagram--existing_path"></path><path id="pathSk2v596cn2x92" kvg:type="㇔" d="M14.64,66.53c3.63,4.38,5.41,9.13,6.15,11.68" transform="matrix(1,0,0,1,1296,-4)" class="stroke_order_diagram--existing_path"></path><path id="pathSk2v596cn2x93" kvg:type="㇒" d="M41.43,62.45c0.32,0.79,0.45,2.02,0.11,2.6c-1.79,3.07-2.82,4.84-6.37,9.86" transform="matrix(1,0,0,1,1296,-4)" class="stroke_order_diagram--existing_path"></path><path id="pathSk2v596cn2x94" kvg:type="㇀/㇐" d="M13.5,89.04c1.12,0.96,2.47,1.14,4,0.46c4.25-1.88,10-4.25,23.75-10.22" transform="matrix(1,0,0,1,1296,-4)" class="stroke_order_diagram--existing_path"></path><path id="pathSk2v596cn2x95" kvg:type="㇑a" d="M68.33,17.49c1.09,1.09,1.46,2.38,1.46,3.84c0,3.57-0.04,5.21-0.04,9.66" transform="matrix(1,0,0,1,1296,-4)" class="stroke_order_diagram--existing_path"></path><path id="pathSk2v596cn2x96" kvg:type="㇐" d="M48.85,33.81c2.5,0.17,4.65,0.37,7.15-0.04c9.25-1.51,23.13-2.92,32.13-3.58c1.99-0.15,4.09-0.47,6.02,0.23" transform="matrix(1,0,0,1,1296,-4)" class="stroke_order_diagram--existing_path"></path><path id="pathSk2v596cn2x97" kvg:type="㇜" d="M68.09,35.85c0.28,1.03,0.06,1.93-0.6,2.77C62.88,44.5,59,48.12,53.76,52.83c-1.87,1.67-1.93,3.33,0.9,2.85c6.89-1.17,18.93-4.29,28.51-6.25" transform="matrix(1,0,0,1,1296,-4)" class="stroke_order_diagram--existing_path"></path><path id="pathSk2v596cn2x98" kvg:type="㇔" d="M78,42.88c3.59,2.35,9.28,9.66,10.18,13.31" transform="matrix(1,0,0,1,1296,-4)" class="stroke_order_diagram--existing_path"></path><path id="pathSk2v596cn2x99" kvg:type="㇒" d="M61.36,58.27c0.68,0.68,0.71,2.09,0.64,3.28c-0.5,7.95-8.75,24.95-20.88,32.18" transform="matrix(1,0,0,1,1296,-4)" class="stroke_order_diagram--existing_path"></path><path id="kvg:09283-s14" kvg:type="㇟" d="M73.39,54.81c0.84,0.84,1.34,2.44,1.34,3.88c0,8.56-0.07,20.61-0.07,26.43c0,8.02,1.09,9.55,10.51,9.55c9.33,0,10.5-1.16,10.5-8.78" transform="matrix(1,0,0,1,1296,-4)" class="stroke_order_diagram--current_path"></path><path id="pathSk2v596cn2x9b" kvg:type="㇟" d="M73.39,54.81c0.84,0.84,1.34,2.44,1.34,3.88c0,8.56-0.07,20.61-0.07,26.43c0,8.02,1.09,9.55,10.51,9.55c9.33,0,10.5-1.16,10.5-8.78" transform="matrix(1,0,0,1,1296,-4)" class="stroke_order_diagram--current_path"></path><circle cx="73.39" cy="54.81" r="8" class="stroke_order_diagram--path_start" transform="matrix(1,0,0,1,1296,-4)"></circle></svg>