<svg style="width: 1600px; height: 100px;" viewbox="0 0 1600 100"><style>
.stroke_order_diagram--outer_container {
  width: 100%;
  overflow-x: auto;
  overflow-y: hidden;
}

.stroke_order_diagram--guide_line {
  fill: none;
  stroke: #ddd;
  stroke-width: 3;
  stroke-linecap: square;
  stroke-linejoin: square;
  stroke-dasharray:8, 8;
}

.stroke_order_diagram--bounding_box {
  fill: none;
  stroke: #ddd;
  stroke-width: 4;
  stroke-linecap: square;
  stroke-linejoin: square;
}

.stroke_order_diagram--current_path {
  fill: none;
  stroke: #000;
  stroke-width: 6;
  stroke-linecap: round;
  stroke-linejoin: round;
}

.stroke_order_diagram--existing_path {
  fill: none;
  stroke: #aaa;
  stroke-width: 6;
  stroke-linecap: round;
  stroke-linejoin:round;
}

.stroke_order_diagram--path_start {
  fill: rgba(255, 0, 0, 0.7);
  stroke:none
}</style><desc>Created with Snap</desc><defs></defs><line x1="1" x2="1599" y1="1" y2="1" class="stroke_order_diagram--bounding_box"></line><line x1="1" x2="1" y1="1" y2="99" class="stroke_order_diagram--bounding_box"></line><line x1="1" x2="1599" y1="99" y2="99" class="stroke_order_diagram--bounding_box"></line><line x1="0" x2="1600" y1="50" y2="50" class="stroke_order_diagram--guide_line"></line><line x1="50" x2="50" y1="1" y2="99" class="stroke_order_diagram--guide_line"></line><line x1="99" x2="99" y1="1" y2="99" class="stroke_order_diagram--bounding_box"></line><path id="kvg:0932c-s1" kvg:type="㇒" d="M29,13.99c0.25,1.01-0.02,1.99-0.39,2.89c-2.24,5.62-9.24,19.87-17.64,28.74" transform="matrix(1,0,0,1,-4,-4)" class="stroke_order_diagram--current_path"></path><path id="pathSk2v596cn3k0v" kvg:type="㇒" d="M29,13.99c0.25,1.01-0.02,1.99-0.39,2.89c-2.24,5.62-9.24,19.87-17.64,28.74" transform="matrix(1,0,0,1,-4,-4)" class="stroke_order_diagram--current_path"></path><circle cx="29" cy="13.99" r="8" class="stroke_order_diagram--path_start" transform="matrix(1,0,0,1,-4,-4)"></circle><line x1="150" x2="150" y1="1" y2="99" class="stroke_order_diagram--guide_line"></line><line x1="199" x2="199" y1="1" y2="99" class="stroke_order_diagram--bounding_box"></line><path id="pathSk2v596cn3k0y" kvg:type="㇒" d="M29,13.99c0.25,1.01-0.02,1.99-0.39,2.89c-2.24,5.62-9.24,19.87-17.64,28.74" transform="matrix(1,0,0,1,96,-4)" class="stroke_order_diagram--existing_path"></path><path id="kvg:0932c-s2" kvg:type="㇔/㇏" d="M30.89,19.46c4.98,2.41,9.48,5.91,13.11,11.04" transform="matrix(1,0,0,1,96,-4)" class="stroke_order_diagram--current_path"></path><path id="pathSk2v596cn3k10" kvg:type="㇔/㇏" d="M30.89,19.46c4.98,2.41,9.48,5.91,13.11,11.04" transform="matrix(1,0,0,1,96,-4)" class="stroke_order_diagram--current_path"></path><circle cx="30.89" cy="19.46" r="8" class="stroke_order_diagram--path_start" transform="matrix(1,0,0,1,96,-4)"></circle><line x1="250" x2="250" y1="1" y2="99" class="stroke_order_diagram--guide_line"></line><line x1="299" x2="299" y1="1" y2="99" class="stroke_order_diagram--bounding_box"></line><path id="pathSk2v596cn3k13" kvg:type="㇒" d="M29,13.99c0.25,1.01-0.02,1.99-0.39,2.89c-2.24,5.62-9.24,19.87-17.64,28.74" transform="matrix(1,0,0,1,196,-4)" class="stroke_order_diagram--existing_path"></path><path id="pathSk2v596cn3k14" kvg:type="㇔/㇏" d="M30.89,19.46c4.98,2.41,9.48,5.91,13.11,11.04" transform="matrix(1,0,0,1,196,-4)" class="stroke_order_diagram--existing_path"></path><path id="kvg:0932c-s3" kvg:type="㇐" d="M19.5,39.75c1.37,0,2.64,0.08,4.01-0.07c3.74-0.41,8.39-1.41,12.61-2.27c1.11-0.23,2.5-0.16,3.63-0.16" transform="matrix(1,0,0,1,196,-4)" class="stroke_order_diagram--current_path"></path><path id="pathSk2v596cn3k16" kvg:type="㇐" d="M19.5,39.75c1.37,0,2.64,0.08,4.01-0.07c3.74-0.41,8.39-1.41,12.61-2.27c1.11-0.23,2.5-0.16,3.63-0.16" transform="matrix(1,0,0,1,196,-4)" class="stroke_order_diagram--current_path"></path><circle cx="19.5" cy="39.75" r="8" class="stroke_order_diagram--path_start" transform="matrix(1,0,0,1,196,-4)"></circle><line x1="350" x2="350" y1="1" y2="99" class="stroke_order_diagram--guide_line"></line><line x1="399" x2="399" y1="1" y2="99" class="stroke_order_diagram--bounding_box"></line><path id="pathSk2v596cn3k19" kvg:type="㇒" d="M29,13.99c0.25,1.01-0.02,1.99-0.39,2.89c-2.24,5.62-9.24,19.87-17.64,28.74" transform="matrix(1,0,0,1,296,-4)" class="stroke_order_diagram--existing_path"></path><path id="pathSk2v596cn3k1a" kvg:type="㇔/㇏" d="M30.89,19.46c4.98,2.41,9.48,5.91,13.11,11.04" transform="matrix(1,0,0,1,296,-4)" class="stroke_order_diagram--existing_path"></path><path id="pathSk2v596cn3k1b" kvg:type="㇐" d="M19.5,39.75c1.37,0,2.64,0.08,4.01-0.07c3.74-0.41,8.39-1.41,12.61-2.27c1.11-0.23,2.5-0.16,3.63-0.16" transform="matrix(1,0,0,1,296,-4)" class="stroke_order_diagram--existing_path"></path><path id="kvg:0932c-s4" kvg:type="㇐" d="M12.59,55.06c2.29,0.69,4.59,0.6,6.55,0.39c5.98-0.65,15.03-2.09,20.15-2.88c0.74-0.11,2.38-0.38,3.49-0.1" transform="matrix(1,0,0,1,296,-4)" class="stroke_order_diagram--current_path"></path><path id="pathSk2v596cn3k1d" kvg:type="㇐" d="M12.59,55.06c2.29,0.69,4.59,0.6,6.55,0.39c5.98-0.65,15.03-2.09,20.15-2.88c0.74-0.11,2.38-0.38,3.49-0.1" transform="matrix(1,0,0,1,296,-4)" class="stroke_order_diagram--current_path"></path><circle cx="12.59" cy="55.06" r="8" class="stroke_order_diagram--path_start" transform="matrix(1,0,0,1,296,-4)"></circle><line x1="450" x2="450" y1="1" y2="99" class="stroke_order_diagram--guide_line"></line><line x1="499" x2="499" y1="1" y2="99" class="stroke_order_diagram--bounding_box"></line><path id="pathSk2v596cn3k1g" kvg:type="㇒" d="M29,13.99c0.25,1.01-0.02,1.99-0.39,2.89c-2.24,5.62-9.24,19.87-17.64,28.74" transform="matrix(1,0,0,1,396,-4)" class="stroke_order_diagram--existing_path"></path><path id="pathSk2v596cn3k1h" kvg:type="㇔/㇏" d="M30.89,19.46c4.98,2.41,9.48,5.91,13.11,11.04" transform="matrix(1,0,0,1,396,-4)" class="stroke_order_diagram--existing_path"></path><path id="pathSk2v596cn3k1i" kvg:type="㇐" d="M19.5,39.75c1.37,0,2.64,0.08,4.01-0.07c3.74-0.41,8.39-1.41,12.61-2.27c1.11-0.23,2.5-0.16,3.63-0.16" transform="matrix(1,0,0,1,396,-4)" class="stroke_order_diagram--existing_path"></path><path id="pathSk2v596cn3k1j" kvg:type="㇐" d="M12.59,55.06c2.29,0.69,4.59,0.6,6.55,0.39c5.98-0.65,15.03-2.09,20.15-2.88c0.74-0.11,2.38-0.38,3.49-0.1" transform="matrix(1,0,0,1,396,-4)" class="stroke_order_diagram--existing_path"></path><path id="kvg:0932c-s5" kvg:type="㇑a" d="M28.45,41.19c1.06,1.06,0.99,2.18,0.99,3.89c0,4.35,0.06,31.42,0.06,36.98" transform="matrix(1,0,0,1,396,-4)" class="stroke_order_diagram--current_path"></path><path id="pathSk2v596cn3k1l" kvg:type="㇑a" d="M28.45,41.19c1.06,1.06,0.99,2.18,0.99,3.89c0,4.35,0.06,31.42,0.06,36.98" transform="matrix(1,0,0,1,396,-4)" class="stroke_order_diagram--current_path"></path><circle cx="28.45" cy="41.19" r="8" class="stroke_order_diagram--path_start" transform="matrix(1,0,0,1,396,-4)"></circle><line x1="550" x2="550" y1="1" y2="99" class="stroke_order_diagram--guide_line"></line><line x1="599" x2="599" y1="1" y2="99" class="stroke_order_diagram--bounding_box"></line><path id="pathSk2v596cn3k1o" kvg:type="㇒" d="M29,13.99c0.25,1.01-0.02,1.99-0.39,2.89c-2.24,5.62-9.24,19.87-17.64,28.74" transform="matrix(1,0,0,1,496,-4)" class="stroke_order_diagram--existing_path"></path><path id="pathSk2v596cn3k1p" kvg:type="㇔/㇏" d="M30.89,19.46c4.98,2.41,9.48,5.91,13.11,11.04" transform="matrix(1,0,0,1,496,-4)" class="stroke_order_diagram--existing_path"></path><path id="pathSk2v596cn3k1q" kvg:type="㇐" d="M19.5,39.75c1.37,0,2.64,0.08,4.01-0.07c3.74-0.41,8.39-1.41,12.61-2.27c1.11-0.23,2.5-0.16,3.63-0.16" transform="matrix(1,0,0,1,496,-4)" class="stroke_order_diagram--existing_path"></path><path id="pathSk2v596cn3k1r" kvg:type="㇐" d="M12.59,55.06c2.29,0.69,4.59,0.6,6.55,0.39c5.98-0.65,15.03-2.09,20.15-2.88c0.74-0.11,2.38-0.38,3.49-0.1" transform="matrix(1,0,0,1,496,-4)" class="stroke_order_diagram--existing_path"></path><path id="pathSk2v596cn3k1s" kvg:type="㇑a" d="M28.45,41.19c1.06,1.06,0.99,2.18,0.99,3.89c0,4.35,0.06,31.42,0.06,36.98" transform="matrix(1,0,0,1,496,-4)" class="stroke_order_diagram--existing_path"></path><path id="kvg:0932c-s6" kvg:type="㇔" d="M15.38,67.5c3.35,4.2,4.98,8.75,5.67,11.2" transform="matrix(1,0,0,1,496,-4)" class="stroke_order_diagram--current_path"></path><path id="pathSk2v596cn3k1u" kvg:type="㇔" d="M15.38,67.5c3.35,4.2,4.98,8.75,5.67,11.2" transform="matrix(1,0,0,1,496,-4)" class="stroke_order_diagram--current_path"></path><circle cx="15.38" cy="67.5" r="8" class="stroke_order_diagram--path_start" transform="matrix(1,0,0,1,496,-4)"></circle><line x1="650" x2="650" y1="1" y2="99" class="stroke_order_diagram--guide_line"></line><line x1="699" x2="699" y1="1" y2="99" class="stroke_order_diagram--bounding_box"></line><path id="pathSk2v596cn3k1x" kvg:type="㇒" d="M29,13.99c0.25,1.01-0.02,1.99-0.39,2.89c-2.24,5.62-9.24,19.87-17.64,28.74" transform="matrix(1,0,0,1,596,-4)" class="stroke_order_diagram--existing_path"></path><path id="pathSk2v596cn3k1y" kvg:type="㇔/㇏" d="M30.89,19.46c4.98,2.41,9.48,5.91,13.11,11.04" transform="matrix(1,0,0,1,596,-4)" class="stroke_order_diagram--existing_path"></path><path id="pathSk2v596cn3k1z" kvg:type="㇐" d="M19.5,39.75c1.37,0,2.64,0.08,4.01-0.07c3.74-0.41,8.39-1.41,12.61-2.27c1.11-0.23,2.5-0.16,3.63-0.16" transform="matrix(1,0,0,1,596,-4)" class="stroke_order_diagram--existing_path"></path><path id="pathSk2v596cn3k20" kvg:type="㇐" d="M12.59,55.06c2.29,0.69,4.59,0.6,6.55,0.39c5.98-0.65,15.03-2.09,20.15-2.88c0.74-0.11,2.38-0.38,3.49-0.1" transform="matrix(1,0,0,1,596,-4)" class="stroke_order_diagram--existing_path"></path><path id="pathSk2v596cn3k21" kvg:type="㇑a" d="M28.45,41.19c1.06,1.06,0.99,2.18,0.99,3.89c0,4.35,0.06,31.42,0.06,36.98" transform="matrix(1,0,0,1,596,-4)" class="stroke_order_diagram--existing_path"></path><path id="pathSk2v596cn3k22" kvg:type="㇔" d="M15.38,67.5c3.35,4.2,4.98,8.75,5.67,11.2" transform="matrix(1,0,0,1,596,-4)" class="stroke_order_diagram--existing_path"></path><path id="kvg:0932c-s7" kvg:type="㇒" d="M41.23,61.8c0.28,0.71,0.34,1.8,0.07,2.35C40,66.75,38.75,69,35.67,73.03" transform="matrix(1,0,0,1,596,-4)" class="stroke_order_diagram--current_path"></path><path id="pathSk2v596cn3k24" kvg:type="㇒" d="M41.23,61.8c0.28,0.71,0.34,1.8,0.07,2.35C40,66.75,38.75,69,35.67,73.03" transform="matrix(1,0,0,1,596,-4)" class="stroke_order_diagram--current_path"></path><circle cx="41.23" cy="61.8" r="8" class="stroke_order_diagram--path_start" transform="matrix(1,0,0,1,596,-4)"></circle><line x1="750" x2="750" y1="1" y2="99" class="stroke_order_diagram--guide_line"></line><line x1="799" x2="799" y1="1" y2="99" class="stroke_order_diagram--bounding_box"></line><path id="pathSk2v596cn3k27" kvg:type="㇒" d="M29,13.99c0.25,1.01-0.02,1.99-0.39,2.89c-2.24,5.62-9.24,19.87-17.64,28.74" transform="matrix(1,0,0,1,696,-4)" class="stroke_order_diagram--existing_path"></path><path id="pathSk2v596cn3k28" kvg:type="㇔/㇏" d="M30.89,19.46c4.98,2.41,9.48,5.91,13.11,11.04" transform="matrix(1,0,0,1,696,-4)" class="stroke_order_diagram--existing_path"></path><path id="pathSk2v596cn3k29" kvg:type="㇐" d="M19.5,39.75c1.37,0,2.64,0.08,4.01-0.07c3.74-0.41,8.39-1.41,12.61-2.27c1.11-0.23,2.5-0.16,3.63-0.16" transform="matrix(1,0,0,1,696,-4)" class="stroke_order_diagram--existing_path"></path><path id="pathSk2v596cn3k2a" kvg:type="㇐" d="M12.59,55.06c2.29,0.69,4.59,0.6,6.55,0.39c5.98-0.65,15.03-2.09,20.15-2.88c0.74-0.11,2.38-0.38,3.49-0.1" transform="matrix(1,0,0,1,696,-4)" class="stroke_order_diagram--existing_path"></path><path id="pathSk2v596cn3k2b" kvg:type="㇑a" d="M28.45,41.19c1.06,1.06,0.99,2.18,0.99,3.89c0,4.35,0.06,31.42,0.06,36.98" transform="matrix(1,0,0,1,696,-4)" class="stroke_order_diagram--existing_path"></path><path id="pathSk2v596cn3k2c" kvg:type="㇔" d="M15.38,67.5c3.35,4.2,4.98,8.75,5.67,11.2" transform="matrix(1,0,0,1,696,-4)" class="stroke_order_diagram--existing_path"></path><path id="pathSk2v596cn3k2d" kvg:type="㇒" d="M41.23,61.8c0.28,0.71,0.34,1.8,0.07,2.35C40,66.75,38.75,69,35.67,73.03" transform="matrix(1,0,0,1,696,-4)" class="stroke_order_diagram--existing_path"></path><path id="kvg:0932c-s8" kvg:type="㇀/㇐" d="M13.5,88.25c1.38,1.12,2.7,0.98,3.75,0.5c7.12-3.25,11.88-5.25,24.25-11" transform="matrix(1,0,0,1,696,-4)" class="stroke_order_diagram--current_path"></path><path id="pathSk2v596cn3k2f" kvg:type="㇀/㇐" d="M13.5,88.25c1.38,1.12,2.7,0.98,3.75,0.5c7.12-3.25,11.88-5.25,24.25-11" transform="matrix(1,0,0,1,696,-4)" class="stroke_order_diagram--current_path"></path><circle cx="13.5" cy="88.25" r="8" class="stroke_order_diagram--path_start" transform="matrix(1,0,0,1,696,-4)"></circle><line x1="850" x2="850" y1="1" y2="99" class="stroke_order_diagram--guide_line"></line><line x1="899" x2="899" y1="1" y2="99" class="stroke_order_diagram--bounding_box"></line><path id="pathSk2v596cn3k2i" kvg:type="㇒" d="M29,13.99c0.25,1.01-0.02,1.99-0.39,2.89c-2.24,5.62-9.24,19.87-17.64,28.74" transform="matrix(1,0,0,1,796,-4)" class="stroke_order_diagram--existing_path"></path><path id="pathSk2v596cn3k2j" kvg:type="㇔/㇏" d="M30.89,19.46c4.98,2.41,9.48,5.91,13.11,11.04" transform="matrix(1,0,0,1,796,-4)" class="stroke_order_diagram--existing_path"></path><path id="pathSk2v596cn3k2k" kvg:type="㇐" d="M19.5,39.75c1.37,0,2.64,0.08,4.01-0.07c3.74-0.41,8.39-1.41,12.61-2.27c1.11-0.23,2.5-0.16,3.63-0.16" transform="matrix(1,0,0,1,796,-4)" class="stroke_order_diagram--existing_path"></path><path id="pathSk2v596cn3k2l" kvg:type="㇐" d="M12.59,55.06c2.29,0.69,4.59,0.6,6.55,0.39c5.98-0.65,15.03-2.09,20.15-2.88c0.74-0.11,2.38-0.38,3.49-0.1" transform="matrix(1,0,0,1,796,-4)" class="stroke_order_diagram--existing_path"></path><path id="pathSk2v596cn3k2m" kvg:type="㇑a" d="M28.45,41.19c1.06,1.06,0.99,2.18,0.99,3.89c0,4.35,0.06,31.42,0.06,36.98" transform="matrix(1,0,0,1,796,-4)" class="stroke_order_diagram--existing_path"></path><path id="pathSk2v596cn3k2n" kvg:type="㇔" d="M15.38,67.5c3.35,4.2,4.98,8.75,5.67,11.2" transform="matrix(1,0,0,1,796,-4)" class="stroke_order_diagram--existing_path"></path><path id="pathSk2v596cn3k2o" kvg:type="㇒" d="M41.23,61.8c0.28,0.71,0.34,1.8,0.07,2.35C40,66.75,38.75,69,35.67,73.03" transform="matrix(1,0,0,1,796,-4)" class="stroke_order_diagram--existing_path"></path><path id="pathSk2v596cn3k2p" kvg:type="㇀/㇐" d="M13.5,88.25c1.38,1.12,2.7,0.98,3.75,0.5c7.12-3.25,11.88-5.25,24.25-11" transform="matrix(1,0,0,1,796,-4)" class="stroke_order_diagram--existing_path"></path><path id="kvg:0932c-s9" kvg:type="㇐" d="M48.46,26.17c2.54,0.46,5.06,0.03,7.19-0.2c7.07-0.76,16.42-2.18,24.6-2.82c2.29-0.18,4.67-0.48,6.92,0.15" transform="matrix(1,0,0,1,796,-4)" class="stroke_order_diagram--current_path"></path><path id="pathSk2v596cn3k2r" kvg:type="㇐" d="M48.46,26.17c2.54,0.46,5.06,0.03,7.19-0.2c7.07-0.76,16.42-2.18,24.6-2.82c2.29-0.18,4.67-0.48,6.92,0.15" transform="matrix(1,0,0,1,796,-4)" class="stroke_order_diagram--current_path"></path><circle cx="48.46" cy="26.17" r="8" class="stroke_order_diagram--path_start" transform="matrix(1,0,0,1,796,-4)"></circle><line x1="950" x2="950" y1="1" y2="99" class="stroke_order_diagram--guide_line"></line><line x1="999" x2="999" y1="1" y2="99" class="stroke_order_diagram--bounding_box"></line><path id="pathSk2v596cn3k2u" kvg:type="㇒" d="M29,13.99c0.25,1.01-0.02,1.99-0.39,2.89c-2.24,5.62-9.24,19.87-17.64,28.74" transform="matrix(1,0,0,1,896,-4)" class="stroke_order_diagram--existing_path"></path><path id="pathSk2v596cn3k2v" kvg:type="㇔/㇏" d="M30.89,19.46c4.98,2.41,9.48,5.91,13.11,11.04" transform="matrix(1,0,0,1,896,-4)" class="stroke_order_diagram--existing_path"></path><path id="pathSk2v596cn3k2w" kvg:type="㇐" d="M19.5,39.75c1.37,0,2.64,0.08,4.01-0.07c3.74-0.41,8.39-1.41,12.61-2.27c1.11-0.23,2.5-0.16,3.63-0.16" transform="matrix(1,0,0,1,896,-4)" class="stroke_order_diagram--existing_path"></path><path id="pathSk2v596cn3k2x" kvg:type="㇐" d="M12.59,55.06c2.29,0.69,4.59,0.6,6.55,0.39c5.98-0.65,15.03-2.09,20.15-2.88c0.74-0.11,2.38-0.38,3.49-0.1" transform="matrix(1,0,0,1,896,-4)" class="stroke_order_diagram--existing_path"></path><path id="pathSk2v596cn3k2y" kvg:type="㇑a" d="M28.45,41.19c1.06,1.06,0.99,2.18,0.99,3.89c0,4.35,0.06,31.42,0.06,36.98" transform="matrix(1,0,0,1,896,-4)" class="stroke_order_diagram--existing_path"></path><path id="pathSk2v596cn3k2z" kvg:type="㇔" d="M15.38,67.5c3.35,4.2,4.98,8.75,5.67,11.2" transform="matrix(1,0,0,1,896,-4)" class="stroke_order_diagram--existing_path"></path><path id="pathSk2v596cn3k30" kvg:type="㇒" d="M41.23,61.8c0.28,0.71,0.34,1.8,0.07,2.35C40,66.75,38.75,69,35.67,73.03" transform="matrix(1,0,0,1,896,-4)" class="stroke_order_diagram--existing_path"></path><path id="pathSk2v596cn3k31" kvg:type="㇀/㇐" d="M13.5,88.25c1.38,1.12,2.7,0.98,3.75,0.5c7.12-3.25,11.88-5.25,24.25-11" transform="matrix(1,0,0,1,896,-4)" class="stroke_order_diagram--existing_path"></path><path id="pathSk2v596cn3k32" kvg:type="㇐" d="M48.46,26.17c2.54,0.46,5.06,0.03,7.19-0.2c7.07-0.76,16.42-2.18,24.6-2.82c2.29-0.18,4.67-0.48,6.92,0.15" transform="matrix(1,0,0,1,896,-4)" class="stroke_order_diagram--existing_path"></path><path id="kvg:0932c-s10" kvg:type="㇑" d="M47.66,38.64c1.04,1.04,1.33,2.22,1.51,3.62c0.4,3.12,1.54,10.85,2.27,16.01c0.37,2.64,0.76,5.11,0.87,5.97" transform="matrix(1,0,0,1,896,-4)" class="stroke_order_diagram--current_path"></path><path id="pathSk2v596cn3k34" kvg:type="㇑" d="M47.66,38.64c1.04,1.04,1.33,2.22,1.51,3.62c0.4,3.12,1.54,10.85,2.27,16.01c0.37,2.64,0.76,5.11,0.87,5.97" transform="matrix(1,0,0,1,896,-4)" class="stroke_order_diagram--current_path"></path><circle cx="47.66" cy="38.64" r="8" class="stroke_order_diagram--path_start" transform="matrix(1,0,0,1,896,-4)"></circle><line x1="1050" x2="1050" y1="1" y2="99" class="stroke_order_diagram--guide_line"></line><line x1="1099" x2="1099" y1="1" y2="99" class="stroke_order_diagram--bounding_box"></line><path id="pathSk2v596cn3k37" kvg:type="㇒" d="M29,13.99c0.25,1.01-0.02,1.99-0.39,2.89c-2.24,5.62-9.24,19.87-17.64,28.74" transform="matrix(1,0,0,1,996,-4)" class="stroke_order_diagram--existing_path"></path><path id="pathSk2v596cn3k38" kvg:type="㇔/㇏" d="M30.89,19.46c4.98,2.41,9.48,5.91,13.11,11.04" transform="matrix(1,0,0,1,996,-4)" class="stroke_order_diagram--existing_path"></path><path id="pathSk2v596cn3k39" kvg:type="㇐" d="M19.5,39.75c1.37,0,2.64,0.08,4.01-0.07c3.74-0.41,8.39-1.41,12.61-2.27c1.11-0.23,2.5-0.16,3.63-0.16" transform="matrix(1,0,0,1,996,-4)" class="stroke_order_diagram--existing_path"></path><path id="pathSk2v596cn3k3a" kvg:type="㇐" d="M12.59,55.06c2.29,0.69,4.59,0.6,6.55,0.39c5.98-0.65,15.03-2.09,20.15-2.88c0.74-0.11,2.38-0.38,3.49-0.1" transform="matrix(1,0,0,1,996,-4)" class="stroke_order_diagram--existing_path"></path><path id="pathSk2v596cn3k3b" kvg:type="㇑a" d="M28.45,41.19c1.06,1.06,0.99,2.18,0.99,3.89c0,4.35,0.06,31.42,0.06,36.98" transform="matrix(1,0,0,1,996,-4)" class="stroke_order_diagram--existing_path"></path><path id="pathSk2v596cn3k3c" kvg:type="㇔" d="M15.38,67.5c3.35,4.2,4.98,8.75,5.67,11.2" transform="matrix(1,0,0,1,996,-4)" class="stroke_order_diagram--existing_path"></path><path id="pathSk2v596cn3k3d" kvg:type="㇒" d="M41.23,61.8c0.28,0.71,0.34,1.8,0.07,2.35C40,66.75,38.75,69,35.67,73.03" transform="matrix(1,0,0,1,996,-4)" class="stroke_order_diagram--existing_path"></path><path id="pathSk2v596cn3k3e" kvg:type="㇀/㇐" d="M13.5,88.25c1.38,1.12,2.7,0.98,3.75,0.5c7.12-3.25,11.88-5.25,24.25-11" transform="matrix(1,0,0,1,996,-4)" class="stroke_order_diagram--existing_path"></path><path id="pathSk2v596cn3k3f" kvg:type="㇐" d="M48.46,26.17c2.54,0.46,5.06,0.03,7.19-0.2c7.07-0.76,16.42-2.18,24.6-2.82c2.29-0.18,4.67-0.48,6.92,0.15" transform="matrix(1,0,0,1,996,-4)" class="stroke_order_diagram--existing_path"></path><path id="pathSk2v596cn3k3g" kvg:type="㇑" d="M47.66,38.64c1.04,1.04,1.33,2.22,1.51,3.62c0.4,3.12,1.54,10.85,2.27,16.01c0.37,2.64,0.76,5.11,0.87,5.97" transform="matrix(1,0,0,1,996,-4)" class="stroke_order_diagram--existing_path"></path><path id="kvg:0932c-s11" kvg:type="㇕a" d="M49.4,39.39c5.44-0.57,27.93-3.12,34.22-3.76c2.66-0.27,4.54,1.17,4.19,4.02c-0.7,5.53-1.32,10.31-2.57,17.64c-0.22,1.3-0.46,2.7-0.73,4.22" transform="matrix(1,0,0,1,996,-4)" class="stroke_order_diagram--current_path"></path><path id="pathSk2v596cn3k3i" kvg:type="㇕a" d="M49.4,39.39c5.44-0.57,27.93-3.12,34.22-3.76c2.66-0.27,4.54,1.17,4.19,4.02c-0.7,5.53-1.32,10.31-2.57,17.64c-0.22,1.3-0.46,2.7-0.73,4.22" transform="matrix(1,0,0,1,996,-4)" class="stroke_order_diagram--current_path"></path><circle cx="49.4" cy="39.39" r="8" class="stroke_order_diagram--path_start" transform="matrix(1,0,0,1,996,-4)"></circle><line x1="1150" x2="1150" y1="1" y2="99" class="stroke_order_diagram--guide_line"></line><line x1="1199" x2="1199" y1="1" y2="99" class="stroke_order_diagram--bounding_box"></line><path id="pathSk2v596cn3k3l" kvg:type="㇒" d="M29,13.99c0.25,1.01-0.02,1.99-0.39,2.89c-2.24,5.62-9.24,19.87-17.64,28.74" transform="matrix(1,0,0,1,1096,-4)" class="stroke_order_diagram--existing_path"></path><path id="pathSk2v596cn3k3m" kvg:type="㇔/㇏" d="M30.89,19.46c4.98,2.41,9.48,5.91,13.11,11.04" transform="matrix(1,0,0,1,1096,-4)" class="stroke_order_diagram--existing_path"></path><path id="pathSk2v596cn3k3n" kvg:type="㇐" d="M19.5,39.75c1.37,0,2.64,0.08,4.01-0.07c3.74-0.41,8.39-1.41,12.61-2.27c1.11-0.23,2.5-0.16,3.63-0.16" transform="matrix(1,0,0,1,1096,-4)" class="stroke_order_diagram--existing_path"></path><path id="pathSk2v596cn3k3o" kvg:type="㇐" d="M12.59,55.06c2.29,0.69,4.59,0.6,6.55,0.39c5.98-0.65,15.03-2.09,20.15-2.88c0.74-0.11,2.38-0.38,3.49-0.1" transform="matrix(1,0,0,1,1096,-4)" class="stroke_order_diagram--existing_path"></path><path id="pathSk2v596cn3k3p" kvg:type="㇑a" d="M28.45,41.19c1.06,1.06,0.99,2.18,0.99,3.89c0,4.35,0.06,31.42,0.06,36.98" transform="matrix(1,0,0,1,1096,-4)" class="stroke_order_diagram--existing_path"></path><path id="pathSk2v596cn3k3q" kvg:type="㇔" d="M15.38,67.5c3.35,4.2,4.98,8.75,5.67,11.2" transform="matrix(1,0,0,1,1096,-4)" class="stroke_order_diagram--existing_path"></path><path id="pathSk2v596cn3k3r" kvg:type="㇒" d="M41.23,61.8c0.28,0.71,0.34,1.8,0.07,2.35C40,66.75,38.75,69,35.67,73.03" transform="matrix(1,0,0,1,1096,-4)" class="stroke_order_diagram--existing_path"></path><path id="pathSk2v596cn3k3s" kvg:type="㇀/㇐" d="M13.5,88.25c1.38,1.12,2.7,0.98,3.75,0.5c7.12-3.25,11.88-5.25,24.25-11" transform="matrix(1,0,0,1,1096,-4)" class="stroke_order_diagram--existing_path"></path><path id="pathSk2v596cn3k3t" kvg:type="㇐" d="M48.46,26.17c2.54,0.46,5.06,0.03,7.19-0.2c7.07-0.76,16.42-2.18,24.6-2.82c2.29-0.18,4.67-0.48,6.92,0.15" transform="matrix(1,0,0,1,1096,-4)" class="stroke_order_diagram--existing_path"></path><path id="pathSk2v596cn3k3u" kvg:type="㇑" d="M47.66,38.64c1.04,1.04,1.33,2.22,1.51,3.62c0.4,3.12,1.54,10.85,2.27,16.01c0.37,2.64,0.76,5.11,0.87,5.97" transform="matrix(1,0,0,1,1096,-4)" class="stroke_order_diagram--existing_path"></path><path id="pathSk2v596cn3k3v" kvg:type="㇕a" d="M49.4,39.39c5.44-0.57,27.93-3.12,34.22-3.76c2.66-0.27,4.54,1.17,4.19,4.02c-0.7,5.53-1.32,10.31-2.57,17.64c-0.22,1.3-0.46,2.7-0.73,4.22" transform="matrix(1,0,0,1,1096,-4)" class="stroke_order_diagram--existing_path"></path><path id="kvg:0932c-s12" kvg:type="㇐a" d="M51.61,50.59c5.99-0.71,24.64-2.84,33.94-3.2" transform="matrix(1,0,0,1,1096,-4)" class="stroke_order_diagram--current_path"></path><path id="pathSk2v596cn3k3x" kvg:type="㇐a" d="M51.61,50.59c5.99-0.71,24.64-2.84,33.94-3.2" transform="matrix(1,0,0,1,1096,-4)" class="stroke_order_diagram--current_path"></path><circle cx="51.61" cy="50.59" r="8" class="stroke_order_diagram--path_start" transform="matrix(1,0,0,1,1096,-4)"></circle><line x1="1250" x2="1250" y1="1" y2="99" class="stroke_order_diagram--guide_line"></line><line x1="1299" x2="1299" y1="1" y2="99" class="stroke_order_diagram--bounding_box"></line><path id="pathSk2v596cn3k40" kvg:type="㇒" d="M29,13.99c0.25,1.01-0.02,1.99-0.39,2.89c-2.24,5.62-9.24,19.87-17.64,28.74" transform="matrix(1,0,0,1,1196,-4)" class="stroke_order_diagram--existing_path"></path><path id="pathSk2v596cn3k41" kvg:type="㇔/㇏" d="M30.89,19.46c4.98,2.41,9.48,5.91,13.11,11.04" transform="matrix(1,0,0,1,1196,-4)" class="stroke_order_diagram--existing_path"></path><path id="pathSk2v596cn3k42" kvg:type="㇐" d="M19.5,39.75c1.37,0,2.64,0.08,4.01-0.07c3.74-0.41,8.39-1.41,12.61-2.27c1.11-0.23,2.5-0.16,3.63-0.16" transform="matrix(1,0,0,1,1196,-4)" class="stroke_order_diagram--existing_path"></path><path id="pathSk2v596cn3k43" kvg:type="㇐" d="M12.59,55.06c2.29,0.69,4.59,0.6,6.55,0.39c5.98-0.65,15.03-2.09,20.15-2.88c0.74-0.11,2.38-0.38,3.49-0.1" transform="matrix(1,0,0,1,1196,-4)" class="stroke_order_diagram--existing_path"></path><path id="pathSk2v596cn3k44" kvg:type="㇑a" d="M28.45,41.19c1.06,1.06,0.99,2.18,0.99,3.89c0,4.35,0.06,31.42,0.06,36.98" transform="matrix(1,0,0,1,1196,-4)" class="stroke_order_diagram--existing_path"></path><path id="pathSk2v596cn3k45" kvg:type="㇔" d="M15.38,67.5c3.35,4.2,4.98,8.75,5.67,11.2" transform="matrix(1,0,0,1,1196,-4)" class="stroke_order_diagram--existing_path"></path><path id="pathSk2v596cn3k46" kvg:type="㇒" d="M41.23,61.8c0.28,0.71,0.34,1.8,0.07,2.35C40,66.75,38.75,69,35.67,73.03" transform="matrix(1,0,0,1,1196,-4)" class="stroke_order_diagram--existing_path"></path><path id="pathSk2v596cn3k47" kvg:type="㇀/㇐" d="M13.5,88.25c1.38,1.12,2.7,0.98,3.75,0.5c7.12-3.25,11.88-5.25,24.25-11" transform="matrix(1,0,0,1,1196,-4)" class="stroke_order_diagram--existing_path"></path><path id="pathSk2v596cn3k48" kvg:type="㇐" d="M48.46,26.17c2.54,0.46,5.06,0.03,7.19-0.2c7.07-0.76,16.42-2.18,24.6-2.82c2.29-0.18,4.67-0.48,6.92,0.15" transform="matrix(1,0,0,1,1196,-4)" class="stroke_order_diagram--existing_path"></path><path id="pathSk2v596cn3k49" kvg:type="㇑" d="M47.66,38.64c1.04,1.04,1.33,2.22,1.51,3.62c0.4,3.12,1.54,10.85,2.27,16.01c0.37,2.64,0.76,5.11,0.87,5.97" transform="matrix(1,0,0,1,1196,-4)" class="stroke_order_diagram--existing_path"></path><path id="pathSk2v596cn3k4a" kvg:type="㇕a" d="M49.4,39.39c5.44-0.57,27.93-3.12,34.22-3.76c2.66-0.27,4.54,1.17,4.19,4.02c-0.7,5.53-1.32,10.31-2.57,17.64c-0.22,1.3-0.46,2.7-0.73,4.22" transform="matrix(1,0,0,1,1196,-4)" class="stroke_order_diagram--existing_path"></path><path id="pathSk2v596cn3k4b" kvg:type="㇐a" d="M51.61,50.59c5.99-0.71,24.64-2.84,33.94-3.2" transform="matrix(1,0,0,1,1196,-4)" class="stroke_order_diagram--existing_path"></path><path id="kvg:0932c-s13" kvg:type="㇐a" d="M53.52,61.57c6.46-0.46,22.4-2.15,30.45-2.55" transform="matrix(1,0,0,1,1196,-4)" class="stroke_order_diagram--current_path"></path><path id="pathSk2v596cn3k4d" kvg:type="㇐a" d="M53.52,61.57c6.46-0.46,22.4-2.15,30.45-2.55" transform="matrix(1,0,0,1,1196,-4)" class="stroke_order_diagram--current_path"></path><circle cx="53.52" cy="61.57" r="8" class="stroke_order_diagram--path_start" transform="matrix(1,0,0,1,1196,-4)"></circle><line x1="1350" x2="1350" y1="1" y2="99" class="stroke_order_diagram--guide_line"></line><line x1="1399" x2="1399" y1="1" y2="99" class="stroke_order_diagram--bounding_box"></line><path id="pathSk2v596cn3k4g" kvg:type="㇒" d="M29,13.99c0.25,1.01-0.02,1.99-0.39,2.89c-2.24,5.62-9.24,19.87-17.64,28.74" transform="matrix(1,0,0,1,1296,-4)" class="stroke_order_diagram--existing_path"></path><path id="pathSk2v596cn3k4h" kvg:type="㇔/㇏" d="M30.89,19.46c4.98,2.41,9.48,5.91,13.11,11.04" transform="matrix(1,0,0,1,1296,-4)" class="stroke_order_diagram--existing_path"></path><path id="pathSk2v596cn3k4i" kvg:type="㇐" d="M19.5,39.75c1.37,0,2.64,0.08,4.01-0.07c3.74-0.41,8.39-1.41,12.61-2.27c1.11-0.23,2.5-0.16,3.63-0.16" transform="matrix(1,0,0,1,1296,-4)" class="stroke_order_diagram--existing_path"></path><path id="pathSk2v596cn3k4j" kvg:type="㇐" d="M12.59,55.06c2.29,0.69,4.59,0.6,6.55,0.39c5.98-0.65,15.03-2.09,20.15-2.88c0.74-0.11,2.38-0.38,3.49-0.1" transform="matrix(1,0,0,1,1296,-4)" class="stroke_order_diagram--existing_path"></path><path id="pathSk2v596cn3k4k" kvg:type="㇑a" d="M28.45,41.19c1.06,1.06,0.99,2.18,0.99,3.89c0,4.35,0.06,31.42,0.06,36.98" transform="matrix(1,0,0,1,1296,-4)" class="stroke_order_diagram--existing_path"></path><path id="pathSk2v596cn3k4l" kvg:type="㇔" d="M15.38,67.5c3.35,4.2,4.98,8.75,5.67,11.2" transform="matrix(1,0,0,1,1296,-4)" class="stroke_order_diagram--existing_path"></path><path id="pathSk2v596cn3k4m" kvg:type="㇒" d="M41.23,61.8c0.28,0.71,0.34,1.8,0.07,2.35C40,66.75,38.75,69,35.67,73.03" transform="matrix(1,0,0,1,1296,-4)" class="stroke_order_diagram--existing_path"></path><path id="pathSk2v596cn3k4n" kvg:type="㇀/㇐" d="M13.5,88.25c1.38,1.12,2.7,0.98,3.75,0.5c7.12-3.25,11.88-5.25,24.25-11" transform="matrix(1,0,0,1,1296,-4)" class="stroke_order_diagram--existing_path"></path><path id="pathSk2v596cn3k4o" kvg:type="㇐" d="M48.46,26.17c2.54,0.46,5.06,0.03,7.19-0.2c7.07-0.76,16.42-2.18,24.6-2.82c2.29-0.18,4.67-0.48,6.92,0.15" transform="matrix(1,0,0,1,1296,-4)" class="stroke_order_diagram--existing_path"></path><path id="pathSk2v596cn3k4p" kvg:type="㇑" d="M47.66,38.64c1.04,1.04,1.33,2.22,1.51,3.62c0.4,3.12,1.54,10.85,2.27,16.01c0.37,2.64,0.76,5.11,0.87,5.97" transform="matrix(1,0,0,1,1296,-4)" class="stroke_order_diagram--existing_path"></path><path id="pathSk2v596cn3k4q" kvg:type="㇕a" d="M49.4,39.39c5.44-0.57,27.93-3.12,34.22-3.76c2.66-0.27,4.54,1.17,4.19,4.02c-0.7,5.53-1.32,10.31-2.57,17.64c-0.22,1.3-0.46,2.7-0.73,4.22" transform="matrix(1,0,0,1,1296,-4)" class="stroke_order_diagram--existing_path"></path><path id="pathSk2v596cn3k4r" kvg:type="㇐a" d="M51.61,50.59c5.99-0.71,24.64-2.84,33.94-3.2" transform="matrix(1,0,0,1,1296,-4)" class="stroke_order_diagram--existing_path"></path><path id="pathSk2v596cn3k4s" kvg:type="㇐a" d="M53.52,61.57c6.46-0.46,22.4-2.15,30.45-2.55" transform="matrix(1,0,0,1,1296,-4)" class="stroke_order_diagram--existing_path"></path><path id="kvg:0932c-s14" kvg:type="㇑" d="M65.69,12c1.09,1.09,1.47,2.5,1.47,4.25c0,3.88,0.01,56.88,0.01,74.5c0,4.24-0.01,6.96-0.04,8" transform="matrix(1,0,0,1,1296,-4)" class="stroke_order_diagram--current_path"></path><path id="pathSk2v596cn3k4u" kvg:type="㇑" d="M65.69,12c1.09,1.09,1.47,2.5,1.47,4.25c0,3.88,0.01,56.88,0.01,74.5c0,4.24-0.01,6.96-0.04,8" transform="matrix(1,0,0,1,1296,-4)" class="stroke_order_diagram--current_path"></path><circle cx="65.69" cy="12" r="8" class="stroke_order_diagram--path_start" transform="matrix(1,0,0,1,1296,-4)"></circle><line x1="1450" x2="1450" y1="1" y2="99" class="stroke_order_diagram--guide_line"></line><line x1="1499" x2="1499" y1="1" y2="99" class="stroke_order_diagram--bounding_box"></line><path id="pathSk2v596cn3k4x" kvg:type="㇒" d="M29,13.99c0.25,1.01-0.02,1.99-0.39,2.89c-2.24,5.62-9.24,19.87-17.64,28.74" transform="matrix(1,0,0,1,1396,-4)" class="stroke_order_diagram--existing_path"></path><path id="pathSk2v596cn3k4y" kvg:type="㇔/㇏" d="M30.89,19.46c4.98,2.41,9.48,5.91,13.11,11.04" transform="matrix(1,0,0,1,1396,-4)" class="stroke_order_diagram--existing_path"></path><path id="pathSk2v596cn3k4z" kvg:type="㇐" d="M19.5,39.75c1.37,0,2.64,0.08,4.01-0.07c3.74-0.41,8.39-1.41,12.61-2.27c1.11-0.23,2.5-0.16,3.63-0.16" transform="matrix(1,0,0,1,1396,-4)" class="stroke_order_diagram--existing_path"></path><path id="pathSk2v596cn3k50" kvg:type="㇐" d="M12.59,55.06c2.29,0.69,4.59,0.6,6.55,0.39c5.98-0.65,15.03-2.09,20.15-2.88c0.74-0.11,2.38-0.38,3.49-0.1" transform="matrix(1,0,0,1,1396,-4)" class="stroke_order_diagram--existing_path"></path><path id="pathSk2v596cn3k51" kvg:type="㇑a" d="M28.45,41.19c1.06,1.06,0.99,2.18,0.99,3.89c0,4.35,0.06,31.42,0.06,36.98" transform="matrix(1,0,0,1,1396,-4)" class="stroke_order_diagram--existing_path"></path><path id="pathSk2v596cn3k52" kvg:type="㇔" d="M15.38,67.5c3.35,4.2,4.98,8.75,5.67,11.2" transform="matrix(1,0,0,1,1396,-4)" class="stroke_order_diagram--existing_path"></path><path id="pathSk2v596cn3k53" kvg:type="㇒" d="M41.23,61.8c0.28,0.71,0.34,1.8,0.07,2.35C40,66.75,38.75,69,35.67,73.03" transform="matrix(1,0,0,1,1396,-4)" class="stroke_order_diagram--existing_path"></path><path id="pathSk2v596cn3k54" kvg:type="㇀/㇐" d="M13.5,88.25c1.38,1.12,2.7,0.98,3.75,0.5c7.12-3.25,11.88-5.25,24.25-11" transform="matrix(1,0,0,1,1396,-4)" class="stroke_order_diagram--existing_path"></path><path id="pathSk2v596cn3k55" kvg:type="㇐" d="M48.46,26.17c2.54,0.46,5.06,0.03,7.19-0.2c7.07-0.76,16.42-2.18,24.6-2.82c2.29-0.18,4.67-0.48,6.92,0.15" transform="matrix(1,0,0,1,1396,-4)" class="stroke_order_diagram--existing_path"></path><path id="pathSk2v596cn3k56" kvg:type="㇑" d="M47.66,38.64c1.04,1.04,1.33,2.22,1.51,3.62c0.4,3.12,1.54,10.85,2.27,16.01c0.37,2.64,0.76,5.11,0.87,5.97" transform="matrix(1,0,0,1,1396,-4)" class="stroke_order_diagram--existing_path"></path><path id="pathSk2v596cn3k57" kvg:type="㇕a" d="M49.4,39.39c5.44-0.57,27.93-3.12,34.22-3.76c2.66-0.27,4.54,1.17,4.19,4.02c-0.7,5.53-1.32,10.31-2.57,17.64c-0.22,1.3-0.46,2.7-0.73,4.22" transform="matrix(1,0,0,1,1396,-4)" class="stroke_order_diagram--existing_path"></path><path id="pathSk2v596cn3k58" kvg:type="㇐a" d="M51.61,50.59c5.99-0.71,24.64-2.84,33.94-3.2" transform="matrix(1,0,0,1,1396,-4)" class="stroke_order_diagram--existing_path"></path><path id="pathSk2v596cn3k59" kvg:type="㇐a" d="M53.52,61.57c6.46-0.46,22.4-2.15,30.45-2.55" transform="matrix(1,0,0,1,1396,-4)" class="stroke_order_diagram--existing_path"></path><path id="pathSk2v596cn3k5a" kvg:type="㇑" d="M65.69,12c1.09,1.09,1.47,2.5,1.47,4.25c0,3.88,0.01,56.88,0.01,74.5c0,4.24-0.01,6.96-0.04,8" transform="matrix(1,0,0,1,1396,-4)" class="stroke_order_diagram--existing_path"></path><path id="kvg:0932c-s15" kvg:type="㇒" d="M65.19,61.5c0,1.25-0.45,2.4-1.72,4.48C57.5,75.69,47.77,86.54,39.5,91.5" transform="matrix(1,0,0,1,1396,-4)" class="stroke_order_diagram--current_path"></path><path id="pathSk2v596cn3k5c" kvg:type="㇒" d="M65.19,61.5c0,1.25-0.45,2.4-1.72,4.48C57.5,75.69,47.77,86.54,39.5,91.5" transform="matrix(1,0,0,1,1396,-4)" class="stroke_order_diagram--current_path"></path><circle cx="65.19" cy="61.5" r="8" class="stroke_order_diagram--path_start" transform="matrix(1,0,0,1,1396,-4)"></circle><line x1="1550" x2="1550" y1="1" y2="99" class="stroke_order_diagram--guide_line"></line><line x1="1599" x2="1599" y1="1" y2="99" class="stroke_order_diagram--bounding_box"></line><path id="pathSk2v596cn3k5f" kvg:type="㇒" d="M29,13.99c0.25,1.01-0.02,1.99-0.39,2.89c-2.24,5.62-9.24,19.87-17.64,28.74" transform="matrix(1,0,0,1,1496,-4)" class="stroke_order_diagram--existing_path"></path><path id="pathSk2v596cn3k5g" kvg:type="㇔/㇏" d="M30.89,19.46c4.98,2.41,9.48,5.91,13.11,11.04" transform="matrix(1,0,0,1,1496,-4)" class="stroke_order_diagram--existing_path"></path><path id="pathSk2v596cn3k5h" kvg:type="㇐" d="M19.5,39.75c1.37,0,2.64,0.08,4.01-0.07c3.74-0.41,8.39-1.41,12.61-2.27c1.11-0.23,2.5-0.16,3.63-0.16" transform="matrix(1,0,0,1,1496,-4)" class="stroke_order_diagram--existing_path"></path><path id="pathSk2v596cn3k5i" kvg:type="㇐" d="M12.59,55.06c2.29,0.69,4.59,0.6,6.55,0.39c5.98-0.65,15.03-2.09,20.15-2.88c0.74-0.11,2.38-0.38,3.49-0.1" transform="matrix(1,0,0,1,1496,-4)" class="stroke_order_diagram--existing_path"></path><path id="pathSk2v596cn3k5j" kvg:type="㇑a" d="M28.45,41.19c1.06,1.06,0.99,2.18,0.99,3.89c0,4.35,0.06,31.42,0.06,36.98" transform="matrix(1,0,0,1,1496,-4)" class="stroke_order_diagram--existing_path"></path><path id="pathSk2v596cn3k5k" kvg:type="㇔" d="M15.38,67.5c3.35,4.2,4.98,8.75,5.67,11.2" transform="matrix(1,0,0,1,1496,-4)" class="stroke_order_diagram--existing_path"></path><path id="pathSk2v596cn3k5l" kvg:type="㇒" d="M41.23,61.8c0.28,0.71,0.34,1.8,0.07,2.35C40,66.75,38.75,69,35.67,73.03" transform="matrix(1,0,0,1,1496,-4)" class="stroke_order_diagram--existing_path"></path><path id="pathSk2v596cn3k5m" kvg:type="㇀/㇐" d="M13.5,88.25c1.38,1.12,2.7,0.98,3.75,0.5c7.12-3.25,11.88-5.25,24.25-11" transform="matrix(1,0,0,1,1496,-4)" class="stroke_order_diagram--existing_path"></path><path id="pathSk2v596cn3k5n" kvg:type="㇐" d="M48.46,26.17c2.54,0.46,5.06,0.03,7.19-0.2c7.07-0.76,16.42-2.18,24.6-2.82c2.29-0.18,4.67-0.48,6.92,0.15" transform="matrix(1,0,0,1,1496,-4)" class="stroke_order_diagram--existing_path"></path><path id="pathSk2v596cn3k5o" kvg:type="㇑" d="M47.66,38.64c1.04,1.04,1.33,2.22,1.51,3.62c0.4,3.12,1.54,10.85,2.27,16.01c0.37,2.64,0.76,5.11,0.87,5.97" transform="matrix(1,0,0,1,1496,-4)" class="stroke_order_diagram--existing_path"></path><path id="pathSk2v596cn3k5p" kvg:type="㇕a" d="M49.4,39.39c5.44-0.57,27.93-3.12,34.22-3.76c2.66-0.27,4.54,1.17,4.19,4.02c-0.7,5.53-1.32,10.31-2.57,17.64c-0.22,1.3-0.46,2.7-0.73,4.22" transform="matrix(1,0,0,1,1496,-4)" class="stroke_order_diagram--existing_path"></path><path id="pathSk2v596cn3k5q" kvg:type="㇐a" d="M51.61,50.59c5.99-0.71,24.64-2.84,33.94-3.2" transform="matrix(1,0,0,1,1496,-4)" class="stroke_order_diagram--existing_path"></path><path id="pathSk2v596cn3k5r" kvg:type="㇐a" d="M53.52,61.57c6.46-0.46,22.4-2.15,30.45-2.55" transform="matrix(1,0,0,1,1496,-4)" class="stroke_order_diagram--existing_path"></path><path id="pathSk2v596cn3k5s" kvg:type="㇑" d="M65.69,12c1.09,1.09,1.47,2.5,1.47,4.25c0,3.88,0.01,56.88,0.01,74.5c0,4.24-0.01,6.96-0.04,8" transform="matrix(1,0,0,1,1496,-4)" class="stroke_order_diagram--existing_path"></path><path id="pathSk2v596cn3k5t" kvg:type="㇒" d="M65.19,61.5c0,1.25-0.45,2.4-1.72,4.48C57.5,75.69,47.77,86.54,39.5,91.5" transform="matrix(1,0,0,1,1496,-4)" class="stroke_order_diagram--existing_path"></path><path id="kvg:0932c-s16" kvg:type="㇏" d="M68.19,61.5c5.97,7.11,14.09,16.83,19.57,22.12c2,1.93,4.37,4.38,6.99,5.88" transform="matrix(1,0,0,1,1496,-4)" class="stroke_order_diagram--current_path"></path><path id="pathSk2v596cn3k5v" kvg:type="㇏" d="M68.19,61.5c5.97,7.11,14.09,16.83,19.57,22.12c2,1.93,4.37,4.38,6.99,5.88" transform="matrix(1,0,0,1,1496,-4)" class="stroke_order_diagram--current_path"></path><circle cx="68.19" cy="61.5" r="8" class="stroke_order_diagram--path_start" transform="matrix(1,0,0,1,1496,-4)"></circle></svg>