<svg style="width: 1600px; height: 100px;" viewbox="0 0 1600 100"><style>
.stroke_order_diagram--outer_container {
  width: 100%;
  overflow-x: auto;
  overflow-y: hidden;
}

.stroke_order_diagram--guide_line {
  fill: none;
  stroke: #ddd;
  stroke-width: 3;
  stroke-linecap: square;
  stroke-linejoin: square;
  stroke-dasharray:8, 8;
}

.stroke_order_diagram--bounding_box {
  fill: none;
  stroke: #ddd;
  stroke-width: 4;
  stroke-linecap: square;
  stroke-linejoin: square;
}

.stroke_order_diagram--current_path {
  fill: none;
  stroke: #000;
  stroke-width: 6;
  stroke-linecap: round;
  stroke-linejoin: round;
}

.stroke_order_diagram--existing_path {
  fill: none;
  stroke: #aaa;
  stroke-width: 6;
  stroke-linecap: round;
  stroke-linejoin:round;
}

.stroke_order_diagram--path_start {
  fill: rgba(255, 0, 0, 0.7);
  stroke:none
}</style><desc>Created with Snap</desc><defs></defs><line x1="1" x2="1599" y1="1" y2="1" class="stroke_order_diagram--bounding_box"></line><line x1="1" x2="1" y1="1" y2="99" class="stroke_order_diagram--bounding_box"></line><line x1="1" x2="1599" y1="99" y2="99" class="stroke_order_diagram--bounding_box"></line><line x1="0" x2="1600" y1="50" y2="50" class="stroke_order_diagram--guide_line"></line><line x1="50" x2="50" y1="1" y2="99" class="stroke_order_diagram--guide_line"></line><line x1="99" x2="99" y1="1" y2="99" class="stroke_order_diagram--bounding_box"></line><path id="kvg:09332-s1" kvg:type="㇒" d="M30,13.74c0,0.81,0.05,1.45-0.15,2.42c-1.03,5.04-10.34,21.87-18.73,29.34" transform="matrix(1,0,0,1,-4,-4)" class="stroke_order_diagram--current_path"></path><path id="pathSk2v596cn1yeu" kvg:type="㇒" d="M30,13.74c0,0.81,0.05,1.45-0.15,2.42c-1.03,5.04-10.34,21.87-18.73,29.34" transform="matrix(1,0,0,1,-4,-4)" class="stroke_order_diagram--current_path"></path><circle cx="30" cy="13.74" r="8" class="stroke_order_diagram--path_start" transform="matrix(1,0,0,1,-4,-4)"></circle><line x1="150" x2="150" y1="1" y2="99" class="stroke_order_diagram--guide_line"></line><line x1="199" x2="199" y1="1" y2="99" class="stroke_order_diagram--bounding_box"></line><path id="pathSk2v596cn1yex" kvg:type="㇒" d="M30,13.74c0,0.81,0.05,1.45-0.15,2.42c-1.03,5.04-10.34,21.87-18.73,29.34" transform="matrix(1,0,0,1,96,-4)" class="stroke_order_diagram--existing_path"></path><path id="kvg:09332-s2" kvg:type="㇔/㇏" d="M32.53,20.3c4.47,2.57,8.72,6.95,11.22,12.2" transform="matrix(1,0,0,1,96,-4)" class="stroke_order_diagram--current_path"></path><path id="pathSk2v596cn1yez" kvg:type="㇔/㇏" d="M32.53,20.3c4.47,2.57,8.72,6.95,11.22,12.2" transform="matrix(1,0,0,1,96,-4)" class="stroke_order_diagram--current_path"></path><circle cx="32.53" cy="20.3" r="8" class="stroke_order_diagram--path_start" transform="matrix(1,0,0,1,96,-4)"></circle><line x1="250" x2="250" y1="1" y2="99" class="stroke_order_diagram--guide_line"></line><line x1="299" x2="299" y1="1" y2="99" class="stroke_order_diagram--bounding_box"></line><path id="pathSk2v596cn1yf2" kvg:type="㇒" d="M30,13.74c0,0.81,0.05,1.45-0.15,2.42c-1.03,5.04-10.34,21.87-18.73,29.34" transform="matrix(1,0,0,1,196,-4)" class="stroke_order_diagram--existing_path"></path><path id="pathSk2v596cn1yf3" kvg:type="㇔/㇏" d="M32.53,20.3c4.47,2.57,8.72,6.95,11.22,12.2" transform="matrix(1,0,0,1,196,-4)" class="stroke_order_diagram--existing_path"></path><path id="kvg:09332-s3" kvg:type="㇐" d="M21,40c1.38,0.12,2.41,0.09,3.63-0.03c3.87-0.36,8.52-1.25,12.76-1.8c1.05-0.14,2.04-0.17,3.1-0.17" transform="matrix(1,0,0,1,196,-4)" class="stroke_order_diagram--current_path"></path><path id="pathSk2v596cn1yf5" kvg:type="㇐" d="M21,40c1.38,0.12,2.41,0.09,3.63-0.03c3.87-0.36,8.52-1.25,12.76-1.8c1.05-0.14,2.04-0.17,3.1-0.17" transform="matrix(1,0,0,1,196,-4)" class="stroke_order_diagram--current_path"></path><circle cx="21" cy="40" r="8" class="stroke_order_diagram--path_start" transform="matrix(1,0,0,1,196,-4)"></circle><line x1="350" x2="350" y1="1" y2="99" class="stroke_order_diagram--guide_line"></line><line x1="399" x2="399" y1="1" y2="99" class="stroke_order_diagram--bounding_box"></line><path id="pathSk2v596cn1yf8" kvg:type="㇒" d="M30,13.74c0,0.81,0.05,1.45-0.15,2.42c-1.03,5.04-10.34,21.87-18.73,29.34" transform="matrix(1,0,0,1,296,-4)" class="stroke_order_diagram--existing_path"></path><path id="pathSk2v596cn1yf9" kvg:type="㇔/㇏" d="M32.53,20.3c4.47,2.57,8.72,6.95,11.22,12.2" transform="matrix(1,0,0,1,296,-4)" class="stroke_order_diagram--existing_path"></path><path id="pathSk2v596cn1yfa" kvg:type="㇐" d="M21,40c1.38,0.12,2.41,0.09,3.63-0.03c3.87-0.36,8.52-1.25,12.76-1.8c1.05-0.14,2.04-0.17,3.1-0.17" transform="matrix(1,0,0,1,296,-4)" class="stroke_order_diagram--existing_path"></path><path id="kvg:09332-s4" kvg:type="㇐" d="M12.59,55.23c1.91,0.52,4.11,0.53,5.79,0.36c7.37-0.72,13.79-1.61,20.52-2.76c1.22-0.21,2.72-0.21,3.87-0.07" transform="matrix(1,0,0,1,296,-4)" class="stroke_order_diagram--current_path"></path><path id="pathSk2v596cn1yfc" kvg:type="㇐" d="M12.59,55.23c1.91,0.52,4.11,0.53,5.79,0.36c7.37-0.72,13.79-1.61,20.52-2.76c1.22-0.21,2.72-0.21,3.87-0.07" transform="matrix(1,0,0,1,296,-4)" class="stroke_order_diagram--current_path"></path><circle cx="12.59" cy="55.23" r="8" class="stroke_order_diagram--path_start" transform="matrix(1,0,0,1,296,-4)"></circle><line x1="450" x2="450" y1="1" y2="99" class="stroke_order_diagram--guide_line"></line><line x1="499" x2="499" y1="1" y2="99" class="stroke_order_diagram--bounding_box"></line><path id="pathSk2v596cn1yff" kvg:type="㇒" d="M30,13.74c0,0.81,0.05,1.45-0.15,2.42c-1.03,5.04-10.34,21.87-18.73,29.34" transform="matrix(1,0,0,1,396,-4)" class="stroke_order_diagram--existing_path"></path><path id="pathSk2v596cn1yfg" kvg:type="㇔/㇏" d="M32.53,20.3c4.47,2.57,8.72,6.95,11.22,12.2" transform="matrix(1,0,0,1,396,-4)" class="stroke_order_diagram--existing_path"></path><path id="pathSk2v596cn1yfh" kvg:type="㇐" d="M21,40c1.38,0.12,2.41,0.09,3.63-0.03c3.87-0.36,8.52-1.25,12.76-1.8c1.05-0.14,2.04-0.17,3.1-0.17" transform="matrix(1,0,0,1,396,-4)" class="stroke_order_diagram--existing_path"></path><path id="pathSk2v596cn1yfi" kvg:type="㇐" d="M12.59,55.23c1.91,0.52,4.11,0.53,5.79,0.36c7.37-0.72,13.79-1.61,20.52-2.76c1.22-0.21,2.72-0.21,3.87-0.07" transform="matrix(1,0,0,1,396,-4)" class="stroke_order_diagram--existing_path"></path><path id="kvg:09332-s5" kvg:type="㇑a" d="M29.45,40.94c0.99,0.99,1.24,2.18,1.24,3.39c0,4.17,0.06,31.79,0.06,36.98" transform="matrix(1,0,0,1,396,-4)" class="stroke_order_diagram--current_path"></path><path id="pathSk2v596cn1yfk" kvg:type="㇑a" d="M29.45,40.94c0.99,0.99,1.24,2.18,1.24,3.39c0,4.17,0.06,31.79,0.06,36.98" transform="matrix(1,0,0,1,396,-4)" class="stroke_order_diagram--current_path"></path><circle cx="29.45" cy="40.94" r="8" class="stroke_order_diagram--path_start" transform="matrix(1,0,0,1,396,-4)"></circle><line x1="550" x2="550" y1="1" y2="99" class="stroke_order_diagram--guide_line"></line><line x1="599" x2="599" y1="1" y2="99" class="stroke_order_diagram--bounding_box"></line><path id="pathSk2v596cn1yfn" kvg:type="㇒" d="M30,13.74c0,0.81,0.05,1.45-0.15,2.42c-1.03,5.04-10.34,21.87-18.73,29.34" transform="matrix(1,0,0,1,496,-4)" class="stroke_order_diagram--existing_path"></path><path id="pathSk2v596cn1yfo" kvg:type="㇔/㇏" d="M32.53,20.3c4.47,2.57,8.72,6.95,11.22,12.2" transform="matrix(1,0,0,1,496,-4)" class="stroke_order_diagram--existing_path"></path><path id="pathSk2v596cn1yfp" kvg:type="㇐" d="M21,40c1.38,0.12,2.41,0.09,3.63-0.03c3.87-0.36,8.52-1.25,12.76-1.8c1.05-0.14,2.04-0.17,3.1-0.17" transform="matrix(1,0,0,1,496,-4)" class="stroke_order_diagram--existing_path"></path><path id="pathSk2v596cn1yfq" kvg:type="㇐" d="M12.59,55.23c1.91,0.52,4.11,0.53,5.79,0.36c7.37-0.72,13.79-1.61,20.52-2.76c1.22-0.21,2.72-0.21,3.87-0.07" transform="matrix(1,0,0,1,496,-4)" class="stroke_order_diagram--existing_path"></path><path id="pathSk2v596cn1yfr" kvg:type="㇑a" d="M29.45,40.94c0.99,0.99,1.24,2.18,1.24,3.39c0,4.17,0.06,31.79,0.06,36.98" transform="matrix(1,0,0,1,496,-4)" class="stroke_order_diagram--existing_path"></path><path id="kvg:09332-s6" kvg:type="㇔" d="M16.38,65.62c2.9,4.43,4.32,9.24,4.92,11.82" transform="matrix(1,0,0,1,496,-4)" class="stroke_order_diagram--current_path"></path><path id="pathSk2v596cn1yft" kvg:type="㇔" d="M16.38,65.62c2.9,4.43,4.32,9.24,4.92,11.82" transform="matrix(1,0,0,1,496,-4)" class="stroke_order_diagram--current_path"></path><circle cx="16.38" cy="65.62" r="8" class="stroke_order_diagram--path_start" transform="matrix(1,0,0,1,496,-4)"></circle><line x1="650" x2="650" y1="1" y2="99" class="stroke_order_diagram--guide_line"></line><line x1="699" x2="699" y1="1" y2="99" class="stroke_order_diagram--bounding_box"></line><path id="pathSk2v596cn1yfw" kvg:type="㇒" d="M30,13.74c0,0.81,0.05,1.45-0.15,2.42c-1.03,5.04-10.34,21.87-18.73,29.34" transform="matrix(1,0,0,1,596,-4)" class="stroke_order_diagram--existing_path"></path><path id="pathSk2v596cn1yfx" kvg:type="㇔/㇏" d="M32.53,20.3c4.47,2.57,8.72,6.95,11.22,12.2" transform="matrix(1,0,0,1,596,-4)" class="stroke_order_diagram--existing_path"></path><path id="pathSk2v596cn1yfy" kvg:type="㇐" d="M21,40c1.38,0.12,2.41,0.09,3.63-0.03c3.87-0.36,8.52-1.25,12.76-1.8c1.05-0.14,2.04-0.17,3.1-0.17" transform="matrix(1,0,0,1,596,-4)" class="stroke_order_diagram--existing_path"></path><path id="pathSk2v596cn1yfz" kvg:type="㇐" d="M12.59,55.23c1.91,0.52,4.11,0.53,5.79,0.36c7.37-0.72,13.79-1.61,20.52-2.76c1.22-0.21,2.72-0.21,3.87-0.07" transform="matrix(1,0,0,1,596,-4)" class="stroke_order_diagram--existing_path"></path><path id="pathSk2v596cn1yg0" kvg:type="㇑a" d="M29.45,40.94c0.99,0.99,1.24,2.18,1.24,3.39c0,4.17,0.06,31.79,0.06,36.98" transform="matrix(1,0,0,1,596,-4)" class="stroke_order_diagram--existing_path"></path><path id="pathSk2v596cn1yg1" kvg:type="㇔" d="M16.38,65.62c2.9,4.43,4.32,9.24,4.92,11.82" transform="matrix(1,0,0,1,596,-4)" class="stroke_order_diagram--existing_path"></path><path id="kvg:09332-s7" kvg:type="㇒" d="M41.54,60.3c0.23,0.71,0.35,1.75,0.26,2.35c-0.23,1.54-2.05,4.36-4.63,8.88" transform="matrix(1,0,0,1,596,-4)" class="stroke_order_diagram--current_path"></path><path id="pathSk2v596cn1yg3" kvg:type="㇒" d="M41.54,60.3c0.23,0.71,0.35,1.75,0.26,2.35c-0.23,1.54-2.05,4.36-4.63,8.88" transform="matrix(1,0,0,1,596,-4)" class="stroke_order_diagram--current_path"></path><circle cx="41.54" cy="60.3" r="8" class="stroke_order_diagram--path_start" transform="matrix(1,0,0,1,596,-4)"></circle><line x1="750" x2="750" y1="1" y2="99" class="stroke_order_diagram--guide_line"></line><line x1="799" x2="799" y1="1" y2="99" class="stroke_order_diagram--bounding_box"></line><path id="pathSk2v596cn1yg6" kvg:type="㇒" d="M30,13.74c0,0.81,0.05,1.45-0.15,2.42c-1.03,5.04-10.34,21.87-18.73,29.34" transform="matrix(1,0,0,1,696,-4)" class="stroke_order_diagram--existing_path"></path><path id="pathSk2v596cn1yg7" kvg:type="㇔/㇏" d="M32.53,20.3c4.47,2.57,8.72,6.95,11.22,12.2" transform="matrix(1,0,0,1,696,-4)" class="stroke_order_diagram--existing_path"></path><path id="pathSk2v596cn1yg8" kvg:type="㇐" d="M21,40c1.38,0.12,2.41,0.09,3.63-0.03c3.87-0.36,8.52-1.25,12.76-1.8c1.05-0.14,2.04-0.17,3.1-0.17" transform="matrix(1,0,0,1,696,-4)" class="stroke_order_diagram--existing_path"></path><path id="pathSk2v596cn1yg9" kvg:type="㇐" d="M12.59,55.23c1.91,0.52,4.11,0.53,5.79,0.36c7.37-0.72,13.79-1.61,20.52-2.76c1.22-0.21,2.72-0.21,3.87-0.07" transform="matrix(1,0,0,1,696,-4)" class="stroke_order_diagram--existing_path"></path><path id="pathSk2v596cn1yga" kvg:type="㇑a" d="M29.45,40.94c0.99,0.99,1.24,2.18,1.24,3.39c0,4.17,0.06,31.79,0.06,36.98" transform="matrix(1,0,0,1,696,-4)" class="stroke_order_diagram--existing_path"></path><path id="pathSk2v596cn1ygb" kvg:type="㇔" d="M16.38,65.62c2.9,4.43,4.32,9.24,4.92,11.82" transform="matrix(1,0,0,1,696,-4)" class="stroke_order_diagram--existing_path"></path><path id="pathSk2v596cn1ygc" kvg:type="㇒" d="M41.54,60.3c0.23,0.71,0.35,1.75,0.26,2.35c-0.23,1.54-2.05,4.36-4.63,8.88" transform="matrix(1,0,0,1,696,-4)" class="stroke_order_diagram--existing_path"></path><path id="kvg:09332-s8" kvg:type="㇀/㇐" d="M14.25,88c1,0.62,2.42,0.68,3.5,0.25c1.25-0.5,12-6,25-12" transform="matrix(1,0,0,1,696,-4)" class="stroke_order_diagram--current_path"></path><path id="pathSk2v596cn1yge" kvg:type="㇀/㇐" d="M14.25,88c1,0.62,2.42,0.68,3.5,0.25c1.25-0.5,12-6,25-12" transform="matrix(1,0,0,1,696,-4)" class="stroke_order_diagram--current_path"></path><circle cx="14.25" cy="88" r="8" class="stroke_order_diagram--path_start" transform="matrix(1,0,0,1,696,-4)"></circle><line x1="850" x2="850" y1="1" y2="99" class="stroke_order_diagram--guide_line"></line><line x1="899" x2="899" y1="1" y2="99" class="stroke_order_diagram--bounding_box"></line><path id="pathSk2v596cn1ygh" kvg:type="㇒" d="M30,13.74c0,0.81,0.05,1.45-0.15,2.42c-1.03,5.04-10.34,21.87-18.73,29.34" transform="matrix(1,0,0,1,796,-4)" class="stroke_order_diagram--existing_path"></path><path id="pathSk2v596cn1ygi" kvg:type="㇔/㇏" d="M32.53,20.3c4.47,2.57,8.72,6.95,11.22,12.2" transform="matrix(1,0,0,1,796,-4)" class="stroke_order_diagram--existing_path"></path><path id="pathSk2v596cn1ygj" kvg:type="㇐" d="M21,40c1.38,0.12,2.41,0.09,3.63-0.03c3.87-0.36,8.52-1.25,12.76-1.8c1.05-0.14,2.04-0.17,3.1-0.17" transform="matrix(1,0,0,1,796,-4)" class="stroke_order_diagram--existing_path"></path><path id="pathSk2v596cn1ygk" kvg:type="㇐" d="M12.59,55.23c1.91,0.52,4.11,0.53,5.79,0.36c7.37-0.72,13.79-1.61,20.52-2.76c1.22-0.21,2.72-0.21,3.87-0.07" transform="matrix(1,0,0,1,796,-4)" class="stroke_order_diagram--existing_path"></path><path id="pathSk2v596cn1ygl" kvg:type="㇑a" d="M29.45,40.94c0.99,0.99,1.24,2.18,1.24,3.39c0,4.17,0.06,31.79,0.06,36.98" transform="matrix(1,0,0,1,796,-4)" class="stroke_order_diagram--existing_path"></path><path id="pathSk2v596cn1ygm" kvg:type="㇔" d="M16.38,65.62c2.9,4.43,4.32,9.24,4.92,11.82" transform="matrix(1,0,0,1,796,-4)" class="stroke_order_diagram--existing_path"></path><path id="pathSk2v596cn1ygn" kvg:type="㇒" d="M41.54,60.3c0.23,0.71,0.35,1.75,0.26,2.35c-0.23,1.54-2.05,4.36-4.63,8.88" transform="matrix(1,0,0,1,796,-4)" class="stroke_order_diagram--existing_path"></path><path id="pathSk2v596cn1ygo" kvg:type="㇀/㇐" d="M14.25,88c1,0.62,2.42,0.68,3.5,0.25c1.25-0.5,12-6,25-12" transform="matrix(1,0,0,1,796,-4)" class="stroke_order_diagram--existing_path"></path><path id="kvg:09332-s9" kvg:type="㇕c" d="M50.53,17.5c1.97,0.5,3.37,0.69,5.46,0.5c8.27-0.75,18.02-1.88,24.19-2.25c1.82-0.11,3.25,1.5,2.8,4c-1.19,6.54-1.8,11-3.39,22.25" transform="matrix(1,0,0,1,796,-4)" class="stroke_order_diagram--current_path"></path><path id="pathSk2v596cn1ygq" kvg:type="㇕c" d="M50.53,17.5c1.97,0.5,3.37,0.69,5.46,0.5c8.27-0.75,18.02-1.88,24.19-2.25c1.82-0.11,3.25,1.5,2.8,4c-1.19,6.54-1.8,11-3.39,22.25" transform="matrix(1,0,0,1,796,-4)" class="stroke_order_diagram--current_path"></path><circle cx="50.53" cy="17.5" r="8" class="stroke_order_diagram--path_start" transform="matrix(1,0,0,1,796,-4)"></circle><line x1="950" x2="950" y1="1" y2="99" class="stroke_order_diagram--guide_line"></line><line x1="999" x2="999" y1="1" y2="99" class="stroke_order_diagram--bounding_box"></line><path id="pathSk2v596cn1ygt" kvg:type="㇒" d="M30,13.74c0,0.81,0.05,1.45-0.15,2.42c-1.03,5.04-10.34,21.87-18.73,29.34" transform="matrix(1,0,0,1,896,-4)" class="stroke_order_diagram--existing_path"></path><path id="pathSk2v596cn1ygu" kvg:type="㇔/㇏" d="M32.53,20.3c4.47,2.57,8.72,6.95,11.22,12.2" transform="matrix(1,0,0,1,896,-4)" class="stroke_order_diagram--existing_path"></path><path id="pathSk2v596cn1ygv" kvg:type="㇐" d="M21,40c1.38,0.12,2.41,0.09,3.63-0.03c3.87-0.36,8.52-1.25,12.76-1.8c1.05-0.14,2.04-0.17,3.1-0.17" transform="matrix(1,0,0,1,896,-4)" class="stroke_order_diagram--existing_path"></path><path id="pathSk2v596cn1ygw" kvg:type="㇐" d="M12.59,55.23c1.91,0.52,4.11,0.53,5.79,0.36c7.37-0.72,13.79-1.61,20.52-2.76c1.22-0.21,2.72-0.21,3.87-0.07" transform="matrix(1,0,0,1,896,-4)" class="stroke_order_diagram--existing_path"></path><path id="pathSk2v596cn1ygx" kvg:type="㇑a" d="M29.45,40.94c0.99,0.99,1.24,2.18,1.24,3.39c0,4.17,0.06,31.79,0.06,36.98" transform="matrix(1,0,0,1,896,-4)" class="stroke_order_diagram--existing_path"></path><path id="pathSk2v596cn1ygy" kvg:type="㇔" d="M16.38,65.62c2.9,4.43,4.32,9.24,4.92,11.82" transform="matrix(1,0,0,1,896,-4)" class="stroke_order_diagram--existing_path"></path><path id="pathSk2v596cn1ygz" kvg:type="㇒" d="M41.54,60.3c0.23,0.71,0.35,1.75,0.26,2.35c-0.23,1.54-2.05,4.36-4.63,8.88" transform="matrix(1,0,0,1,896,-4)" class="stroke_order_diagram--existing_path"></path><path id="pathSk2v596cn1yh0" kvg:type="㇀/㇐" d="M14.25,88c1,0.62,2.42,0.68,3.5,0.25c1.25-0.5,12-6,25-12" transform="matrix(1,0,0,1,896,-4)" class="stroke_order_diagram--existing_path"></path><path id="pathSk2v596cn1yh1" kvg:type="㇕c" d="M50.53,17.5c1.97,0.5,3.37,0.69,5.46,0.5c8.27-0.75,18.02-1.88,24.19-2.25c1.82-0.11,3.25,1.5,2.8,4c-1.19,6.54-1.8,11-3.39,22.25" transform="matrix(1,0,0,1,896,-4)" class="stroke_order_diagram--existing_path"></path><path id="kvg:09332-s10" kvg:type="㇐c" d="M52.25,30.75c2.38,0.62,3.64,0.63,5.91,0.5c4.34-0.25,16.21-2,21.91-2.25" transform="matrix(1,0,0,1,896,-4)" class="stroke_order_diagram--current_path"></path><path id="pathSk2v596cn1yh3" kvg:type="㇐c" d="M52.25,30.75c2.38,0.62,3.64,0.63,5.91,0.5c4.34-0.25,16.21-2,21.91-2.25" transform="matrix(1,0,0,1,896,-4)" class="stroke_order_diagram--current_path"></path><circle cx="52.25" cy="30.75" r="8" class="stroke_order_diagram--path_start" transform="matrix(1,0,0,1,896,-4)"></circle><line x1="1050" x2="1050" y1="1" y2="99" class="stroke_order_diagram--guide_line"></line><line x1="1099" x2="1099" y1="1" y2="99" class="stroke_order_diagram--bounding_box"></line><path id="pathSk2v596cn1yh6" kvg:type="㇒" d="M30,13.74c0,0.81,0.05,1.45-0.15,2.42c-1.03,5.04-10.34,21.87-18.73,29.34" transform="matrix(1,0,0,1,996,-4)" class="stroke_order_diagram--existing_path"></path><path id="pathSk2v596cn1yh7" kvg:type="㇔/㇏" d="M32.53,20.3c4.47,2.57,8.72,6.95,11.22,12.2" transform="matrix(1,0,0,1,996,-4)" class="stroke_order_diagram--existing_path"></path><path id="pathSk2v596cn1yh8" kvg:type="㇐" d="M21,40c1.38,0.12,2.41,0.09,3.63-0.03c3.87-0.36,8.52-1.25,12.76-1.8c1.05-0.14,2.04-0.17,3.1-0.17" transform="matrix(1,0,0,1,996,-4)" class="stroke_order_diagram--existing_path"></path><path id="pathSk2v596cn1yh9" kvg:type="㇐" d="M12.59,55.23c1.91,0.52,4.11,0.53,5.79,0.36c7.37-0.72,13.79-1.61,20.52-2.76c1.22-0.21,2.72-0.21,3.87-0.07" transform="matrix(1,0,0,1,996,-4)" class="stroke_order_diagram--existing_path"></path><path id="pathSk2v596cn1yha" kvg:type="㇑a" d="M29.45,40.94c0.99,0.99,1.24,2.18,1.24,3.39c0,4.17,0.06,31.79,0.06,36.98" transform="matrix(1,0,0,1,996,-4)" class="stroke_order_diagram--existing_path"></path><path id="pathSk2v596cn1yhb" kvg:type="㇔" d="M16.38,65.62c2.9,4.43,4.32,9.24,4.92,11.82" transform="matrix(1,0,0,1,996,-4)" class="stroke_order_diagram--existing_path"></path><path id="pathSk2v596cn1yhc" kvg:type="㇒" d="M41.54,60.3c0.23,0.71,0.35,1.75,0.26,2.35c-0.23,1.54-2.05,4.36-4.63,8.88" transform="matrix(1,0,0,1,996,-4)" class="stroke_order_diagram--existing_path"></path><path id="pathSk2v596cn1yhd" kvg:type="㇀/㇐" d="M14.25,88c1,0.62,2.42,0.68,3.5,0.25c1.25-0.5,12-6,25-12" transform="matrix(1,0,0,1,996,-4)" class="stroke_order_diagram--existing_path"></path><path id="pathSk2v596cn1yhe" kvg:type="㇕c" d="M50.53,17.5c1.97,0.5,3.37,0.69,5.46,0.5c8.27-0.75,18.02-1.88,24.19-2.25c1.82-0.11,3.25,1.5,2.8,4c-1.19,6.54-1.8,11-3.39,22.25" transform="matrix(1,0,0,1,996,-4)" class="stroke_order_diagram--existing_path"></path><path id="pathSk2v596cn1yhf" kvg:type="㇐c" d="M52.25,30.75c2.38,0.62,3.64,0.63,5.91,0.5c4.34-0.25,16.21-2,21.91-2.25" transform="matrix(1,0,0,1,996,-4)" class="stroke_order_diagram--existing_path"></path><path id="kvg:09332-s11" kvg:type="㇐" d="M45.39,45.68c2.15,0.29,4.21,0.24,6.37,0.04c10.69-1.02,26.35-2.88,37.12-3.31c2-0.08,3.99-0.13,5.98,0.1" transform="matrix(1,0,0,1,996,-4)" class="stroke_order_diagram--current_path"></path><path id="pathSk2v596cn1yhh" kvg:type="㇐" d="M45.39,45.68c2.15,0.29,4.21,0.24,6.37,0.04c10.69-1.02,26.35-2.88,37.12-3.31c2-0.08,3.99-0.13,5.98,0.1" transform="matrix(1,0,0,1,996,-4)" class="stroke_order_diagram--current_path"></path><circle cx="45.39" cy="45.68" r="8" class="stroke_order_diagram--path_start" transform="matrix(1,0,0,1,996,-4)"></circle><line x1="1150" x2="1150" y1="1" y2="99" class="stroke_order_diagram--guide_line"></line><line x1="1199" x2="1199" y1="1" y2="99" class="stroke_order_diagram--bounding_box"></line><path id="pathSk2v596cn1yhk" kvg:type="㇒" d="M30,13.74c0,0.81,0.05,1.45-0.15,2.42c-1.03,5.04-10.34,21.87-18.73,29.34" transform="matrix(1,0,0,1,1096,-4)" class="stroke_order_diagram--existing_path"></path><path id="pathSk2v596cn1yhl" kvg:type="㇔/㇏" d="M32.53,20.3c4.47,2.57,8.72,6.95,11.22,12.2" transform="matrix(1,0,0,1,1096,-4)" class="stroke_order_diagram--existing_path"></path><path id="pathSk2v596cn1yhm" kvg:type="㇐" d="M21,40c1.38,0.12,2.41,0.09,3.63-0.03c3.87-0.36,8.52-1.25,12.76-1.8c1.05-0.14,2.04-0.17,3.1-0.17" transform="matrix(1,0,0,1,1096,-4)" class="stroke_order_diagram--existing_path"></path><path id="pathSk2v596cn1yhn" kvg:type="㇐" d="M12.59,55.23c1.91,0.52,4.11,0.53,5.79,0.36c7.37-0.72,13.79-1.61,20.52-2.76c1.22-0.21,2.72-0.21,3.87-0.07" transform="matrix(1,0,0,1,1096,-4)" class="stroke_order_diagram--existing_path"></path><path id="pathSk2v596cn1yho" kvg:type="㇑a" d="M29.45,40.94c0.99,0.99,1.24,2.18,1.24,3.39c0,4.17,0.06,31.79,0.06,36.98" transform="matrix(1,0,0,1,1096,-4)" class="stroke_order_diagram--existing_path"></path><path id="pathSk2v596cn1yhp" kvg:type="㇔" d="M16.38,65.62c2.9,4.43,4.32,9.24,4.92,11.82" transform="matrix(1,0,0,1,1096,-4)" class="stroke_order_diagram--existing_path"></path><path id="pathSk2v596cn1yhq" kvg:type="㇒" d="M41.54,60.3c0.23,0.71,0.35,1.75,0.26,2.35c-0.23,1.54-2.05,4.36-4.63,8.88" transform="matrix(1,0,0,1,1096,-4)" class="stroke_order_diagram--existing_path"></path><path id="pathSk2v596cn1yhr" kvg:type="㇀/㇐" d="M14.25,88c1,0.62,2.42,0.68,3.5,0.25c1.25-0.5,12-6,25-12" transform="matrix(1,0,0,1,1096,-4)" class="stroke_order_diagram--existing_path"></path><path id="pathSk2v596cn1yhs" kvg:type="㇕c" d="M50.53,17.5c1.97,0.5,3.37,0.69,5.46,0.5c8.27-0.75,18.02-1.88,24.19-2.25c1.82-0.11,3.25,1.5,2.8,4c-1.19,6.54-1.8,11-3.39,22.25" transform="matrix(1,0,0,1,1096,-4)" class="stroke_order_diagram--existing_path"></path><path id="pathSk2v596cn1yht" kvg:type="㇐c" d="M52.25,30.75c2.38,0.62,3.64,0.63,5.91,0.5c4.34-0.25,16.21-2,21.91-2.25" transform="matrix(1,0,0,1,1096,-4)" class="stroke_order_diagram--existing_path"></path><path id="pathSk2v596cn1yhu" kvg:type="㇐" d="M45.39,45.68c2.15,0.29,4.21,0.24,6.37,0.04c10.69-1.02,26.35-2.88,37.12-3.31c2-0.08,3.99-0.13,5.98,0.1" transform="matrix(1,0,0,1,1096,-4)" class="stroke_order_diagram--existing_path"></path><path id="kvg:09332-s12" kvg:type="㇚" d="M67.27,46.58c0.89,0.89,1.26,2.42,1.26,4.52c0,14.56-0.01,33.41-0.01,38.37c0,13.03-5.71,4-7.21,2.75" transform="matrix(1,0,0,1,1096,-4)" class="stroke_order_diagram--current_path"></path><path id="pathSk2v596cn1yhw" kvg:type="㇚" d="M67.27,46.58c0.89,0.89,1.26,2.42,1.26,4.52c0,14.56-0.01,33.41-0.01,38.37c0,13.03-5.71,4-7.21,2.75" transform="matrix(1,0,0,1,1096,-4)" class="stroke_order_diagram--current_path"></path><circle cx="67.27" cy="46.58" r="8" class="stroke_order_diagram--path_start" transform="matrix(1,0,0,1,1096,-4)"></circle><line x1="1250" x2="1250" y1="1" y2="99" class="stroke_order_diagram--guide_line"></line><line x1="1299" x2="1299" y1="1" y2="99" class="stroke_order_diagram--bounding_box"></line><path id="pathSk2v596cn1yhz" kvg:type="㇒" d="M30,13.74c0,0.81,0.05,1.45-0.15,2.42c-1.03,5.04-10.34,21.87-18.73,29.34" transform="matrix(1,0,0,1,1196,-4)" class="stroke_order_diagram--existing_path"></path><path id="pathSk2v596cn1yi0" kvg:type="㇔/㇏" d="M32.53,20.3c4.47,2.57,8.72,6.95,11.22,12.2" transform="matrix(1,0,0,1,1196,-4)" class="stroke_order_diagram--existing_path"></path><path id="pathSk2v596cn1yi1" kvg:type="㇐" d="M21,40c1.38,0.12,2.41,0.09,3.63-0.03c3.87-0.36,8.52-1.25,12.76-1.8c1.05-0.14,2.04-0.17,3.1-0.17" transform="matrix(1,0,0,1,1196,-4)" class="stroke_order_diagram--existing_path"></path><path id="pathSk2v596cn1yi2" kvg:type="㇐" d="M12.59,55.23c1.91,0.52,4.11,0.53,5.79,0.36c7.37-0.72,13.79-1.61,20.52-2.76c1.22-0.21,2.72-0.21,3.87-0.07" transform="matrix(1,0,0,1,1196,-4)" class="stroke_order_diagram--existing_path"></path><path id="pathSk2v596cn1yi3" kvg:type="㇑a" d="M29.45,40.94c0.99,0.99,1.24,2.18,1.24,3.39c0,4.17,0.06,31.79,0.06,36.98" transform="matrix(1,0,0,1,1196,-4)" class="stroke_order_diagram--existing_path"></path><path id="pathSk2v596cn1yi4" kvg:type="㇔" d="M16.38,65.62c2.9,4.43,4.32,9.24,4.92,11.82" transform="matrix(1,0,0,1,1196,-4)" class="stroke_order_diagram--existing_path"></path><path id="pathSk2v596cn1yi5" kvg:type="㇒" d="M41.54,60.3c0.23,0.71,0.35,1.75,0.26,2.35c-0.23,1.54-2.05,4.36-4.63,8.88" transform="matrix(1,0,0,1,1196,-4)" class="stroke_order_diagram--existing_path"></path><path id="pathSk2v596cn1yi6" kvg:type="㇀/㇐" d="M14.25,88c1,0.62,2.42,0.68,3.5,0.25c1.25-0.5,12-6,25-12" transform="matrix(1,0,0,1,1196,-4)" class="stroke_order_diagram--existing_path"></path><path id="pathSk2v596cn1yi7" kvg:type="㇕c" d="M50.53,17.5c1.97,0.5,3.37,0.69,5.46,0.5c8.27-0.75,18.02-1.88,24.19-2.25c1.82-0.11,3.25,1.5,2.8,4c-1.19,6.54-1.8,11-3.39,22.25" transform="matrix(1,0,0,1,1196,-4)" class="stroke_order_diagram--existing_path"></path><path id="pathSk2v596cn1yi8" kvg:type="㇐c" d="M52.25,30.75c2.38,0.62,3.64,0.63,5.91,0.5c4.34-0.25,16.21-2,21.91-2.25" transform="matrix(1,0,0,1,1196,-4)" class="stroke_order_diagram--existing_path"></path><path id="pathSk2v596cn1yi9" kvg:type="㇐" d="M45.39,45.68c2.15,0.29,4.21,0.24,6.37,0.04c10.69-1.02,26.35-2.88,37.12-3.31c2-0.08,3.99-0.13,5.98,0.1" transform="matrix(1,0,0,1,1196,-4)" class="stroke_order_diagram--existing_path"></path><path id="pathSk2v596cn1yia" kvg:type="㇚" d="M67.27,46.58c0.89,0.89,1.26,2.42,1.26,4.52c0,14.56-0.01,33.41-0.01,38.37c0,13.03-5.71,4-7.21,2.75" transform="matrix(1,0,0,1,1196,-4)" class="stroke_order_diagram--existing_path"></path><path id="kvg:09332-s13" kvg:type="㇔" d="M49.75,58.25c2.74,1.63,7.07,6.71,7.75,9.25" transform="matrix(1,0,0,1,1196,-4)" class="stroke_order_diagram--current_path"></path><path id="pathSk2v596cn1yic" kvg:type="㇔" d="M49.75,58.25c2.74,1.63,7.07,6.71,7.75,9.25" transform="matrix(1,0,0,1,1196,-4)" class="stroke_order_diagram--current_path"></path><circle cx="49.75" cy="58.25" r="8" class="stroke_order_diagram--path_start" transform="matrix(1,0,0,1,1196,-4)"></circle><line x1="1350" x2="1350" y1="1" y2="99" class="stroke_order_diagram--guide_line"></line><line x1="1399" x2="1399" y1="1" y2="99" class="stroke_order_diagram--bounding_box"></line><path id="pathSk2v596cn1yif" kvg:type="㇒" d="M30,13.74c0,0.81,0.05,1.45-0.15,2.42c-1.03,5.04-10.34,21.87-18.73,29.34" transform="matrix(1,0,0,1,1296,-4)" class="stroke_order_diagram--existing_path"></path><path id="pathSk2v596cn1yig" kvg:type="㇔/㇏" d="M32.53,20.3c4.47,2.57,8.72,6.95,11.22,12.2" transform="matrix(1,0,0,1,1296,-4)" class="stroke_order_diagram--existing_path"></path><path id="pathSk2v596cn1yih" kvg:type="㇐" d="M21,40c1.38,0.12,2.41,0.09,3.63-0.03c3.87-0.36,8.52-1.25,12.76-1.8c1.05-0.14,2.04-0.17,3.1-0.17" transform="matrix(1,0,0,1,1296,-4)" class="stroke_order_diagram--existing_path"></path><path id="pathSk2v596cn1yii" kvg:type="㇐" d="M12.59,55.23c1.91,0.52,4.11,0.53,5.79,0.36c7.37-0.72,13.79-1.61,20.52-2.76c1.22-0.21,2.72-0.21,3.87-0.07" transform="matrix(1,0,0,1,1296,-4)" class="stroke_order_diagram--existing_path"></path><path id="pathSk2v596cn1yij" kvg:type="㇑a" d="M29.45,40.94c0.99,0.99,1.24,2.18,1.24,3.39c0,4.17,0.06,31.79,0.06,36.98" transform="matrix(1,0,0,1,1296,-4)" class="stroke_order_diagram--existing_path"></path><path id="pathSk2v596cn1yik" kvg:type="㇔" d="M16.38,65.62c2.9,4.43,4.32,9.24,4.92,11.82" transform="matrix(1,0,0,1,1296,-4)" class="stroke_order_diagram--existing_path"></path><path id="pathSk2v596cn1yil" kvg:type="㇒" d="M41.54,60.3c0.23,0.71,0.35,1.75,0.26,2.35c-0.23,1.54-2.05,4.36-4.63,8.88" transform="matrix(1,0,0,1,1296,-4)" class="stroke_order_diagram--existing_path"></path><path id="pathSk2v596cn1yim" kvg:type="㇀/㇐" d="M14.25,88c1,0.62,2.42,0.68,3.5,0.25c1.25-0.5,12-6,25-12" transform="matrix(1,0,0,1,1296,-4)" class="stroke_order_diagram--existing_path"></path><path id="pathSk2v596cn1yin" kvg:type="㇕c" d="M50.53,17.5c1.97,0.5,3.37,0.69,5.46,0.5c8.27-0.75,18.02-1.88,24.19-2.25c1.82-0.11,3.25,1.5,2.8,4c-1.19,6.54-1.8,11-3.39,22.25" transform="matrix(1,0,0,1,1296,-4)" class="stroke_order_diagram--existing_path"></path><path id="pathSk2v596cn1yio" kvg:type="㇐c" d="M52.25,30.75c2.38,0.62,3.64,0.63,5.91,0.5c4.34-0.25,16.21-2,21.91-2.25" transform="matrix(1,0,0,1,1296,-4)" class="stroke_order_diagram--existing_path"></path><path id="pathSk2v596cn1yip" kvg:type="㇐" d="M45.39,45.68c2.15,0.29,4.21,0.24,6.37,0.04c10.69-1.02,26.35-2.88,37.12-3.31c2-0.08,3.99-0.13,5.98,0.1" transform="matrix(1,0,0,1,1296,-4)" class="stroke_order_diagram--existing_path"></path><path id="pathSk2v596cn1yiq" kvg:type="㇚" d="M67.27,46.58c0.89,0.89,1.26,2.42,1.26,4.52c0,14.56-0.01,33.41-0.01,38.37c0,13.03-5.71,4-7.21,2.75" transform="matrix(1,0,0,1,1296,-4)" class="stroke_order_diagram--existing_path"></path><path id="pathSk2v596cn1yir" kvg:type="㇔" d="M49.75,58.25c2.74,1.63,7.07,6.71,7.75,9.25" transform="matrix(1,0,0,1,1296,-4)" class="stroke_order_diagram--existing_path"></path><path id="kvg:09332-s14" kvg:type="㇀" d="M43.64,87.14c1.1,0.83,2.14,0.96,3.31-0.1c0.93-0.84,8.38-8.27,12.3-12.29" transform="matrix(1,0,0,1,1296,-4)" class="stroke_order_diagram--current_path"></path><path id="pathSk2v596cn1yit" kvg:type="㇀" d="M43.64,87.14c1.1,0.83,2.14,0.96,3.31-0.1c0.93-0.84,8.38-8.27,12.3-12.29" transform="matrix(1,0,0,1,1296,-4)" class="stroke_order_diagram--current_path"></path><circle cx="43.64" cy="87.14" r="8" class="stroke_order_diagram--path_start" transform="matrix(1,0,0,1,1296,-4)"></circle><line x1="1450" x2="1450" y1="1" y2="99" class="stroke_order_diagram--guide_line"></line><line x1="1499" x2="1499" y1="1" y2="99" class="stroke_order_diagram--bounding_box"></line><path id="pathSk2v596cn1yiw" kvg:type="㇒" d="M30,13.74c0,0.81,0.05,1.45-0.15,2.42c-1.03,5.04-10.34,21.87-18.73,29.34" transform="matrix(1,0,0,1,1396,-4)" class="stroke_order_diagram--existing_path"></path><path id="pathSk2v596cn1yix" kvg:type="㇔/㇏" d="M32.53,20.3c4.47,2.57,8.72,6.95,11.22,12.2" transform="matrix(1,0,0,1,1396,-4)" class="stroke_order_diagram--existing_path"></path><path id="pathSk2v596cn1yiy" kvg:type="㇐" d="M21,40c1.38,0.12,2.41,0.09,3.63-0.03c3.87-0.36,8.52-1.25,12.76-1.8c1.05-0.14,2.04-0.17,3.1-0.17" transform="matrix(1,0,0,1,1396,-4)" class="stroke_order_diagram--existing_path"></path><path id="pathSk2v596cn1yiz" kvg:type="㇐" d="M12.59,55.23c1.91,0.52,4.11,0.53,5.79,0.36c7.37-0.72,13.79-1.61,20.52-2.76c1.22-0.21,2.72-0.21,3.87-0.07" transform="matrix(1,0,0,1,1396,-4)" class="stroke_order_diagram--existing_path"></path><path id="pathSk2v596cn1yj0" kvg:type="㇑a" d="M29.45,40.94c0.99,0.99,1.24,2.18,1.24,3.39c0,4.17,0.06,31.79,0.06,36.98" transform="matrix(1,0,0,1,1396,-4)" class="stroke_order_diagram--existing_path"></path><path id="pathSk2v596cn1yj1" kvg:type="㇔" d="M16.38,65.62c2.9,4.43,4.32,9.24,4.92,11.82" transform="matrix(1,0,0,1,1396,-4)" class="stroke_order_diagram--existing_path"></path><path id="pathSk2v596cn1yj2" kvg:type="㇒" d="M41.54,60.3c0.23,0.71,0.35,1.75,0.26,2.35c-0.23,1.54-2.05,4.36-4.63,8.88" transform="matrix(1,0,0,1,1396,-4)" class="stroke_order_diagram--existing_path"></path><path id="pathSk2v596cn1yj3" kvg:type="㇀/㇐" d="M14.25,88c1,0.62,2.42,0.68,3.5,0.25c1.25-0.5,12-6,25-12" transform="matrix(1,0,0,1,1396,-4)" class="stroke_order_diagram--existing_path"></path><path id="pathSk2v596cn1yj4" kvg:type="㇕c" d="M50.53,17.5c1.97,0.5,3.37,0.69,5.46,0.5c8.27-0.75,18.02-1.88,24.19-2.25c1.82-0.11,3.25,1.5,2.8,4c-1.19,6.54-1.8,11-3.39,22.25" transform="matrix(1,0,0,1,1396,-4)" class="stroke_order_diagram--existing_path"></path><path id="pathSk2v596cn1yj5" kvg:type="㇐c" d="M52.25,30.75c2.38,0.62,3.64,0.63,5.91,0.5c4.34-0.25,16.21-2,21.91-2.25" transform="matrix(1,0,0,1,1396,-4)" class="stroke_order_diagram--existing_path"></path><path id="pathSk2v596cn1yj6" kvg:type="㇐" d="M45.39,45.68c2.15,0.29,4.21,0.24,6.37,0.04c10.69-1.02,26.35-2.88,37.12-3.31c2-0.08,3.99-0.13,5.98,0.1" transform="matrix(1,0,0,1,1396,-4)" class="stroke_order_diagram--existing_path"></path><path id="pathSk2v596cn1yj7" kvg:type="㇚" d="M67.27,46.58c0.89,0.89,1.26,2.42,1.26,4.52c0,14.56-0.01,33.41-0.01,38.37c0,13.03-5.71,4-7.21,2.75" transform="matrix(1,0,0,1,1396,-4)" class="stroke_order_diagram--existing_path"></path><path id="pathSk2v596cn1yj8" kvg:type="㇔" d="M49.75,58.25c2.74,1.63,7.07,6.71,7.75,9.25" transform="matrix(1,0,0,1,1396,-4)" class="stroke_order_diagram--existing_path"></path><path id="pathSk2v596cn1yj9" kvg:type="㇀" d="M43.64,87.14c1.1,0.83,2.14,0.96,3.31-0.1c0.93-0.84,8.38-8.27,12.3-12.29" transform="matrix(1,0,0,1,1396,-4)" class="stroke_order_diagram--existing_path"></path><path id="kvg:09332-s15" kvg:type="㇒" d="M87.78,51.64c0.1,1.04-0.32,2.08-0.98,3C84.38,58,83,59.5,78.06,63.72" transform="matrix(1,0,0,1,1396,-4)" class="stroke_order_diagram--current_path"></path><path id="pathSk2v596cn1yjb" kvg:type="㇒" d="M87.78,51.64c0.1,1.04-0.32,2.08-0.98,3C84.38,58,83,59.5,78.06,63.72" transform="matrix(1,0,0,1,1396,-4)" class="stroke_order_diagram--current_path"></path><circle cx="87.78" cy="51.64" r="8" class="stroke_order_diagram--path_start" transform="matrix(1,0,0,1,1396,-4)"></circle><line x1="1550" x2="1550" y1="1" y2="99" class="stroke_order_diagram--guide_line"></line><line x1="1599" x2="1599" y1="1" y2="99" class="stroke_order_diagram--bounding_box"></line><path id="pathSk2v596cn1yje" kvg:type="㇒" d="M30,13.74c0,0.81,0.05,1.45-0.15,2.42c-1.03,5.04-10.34,21.87-18.73,29.34" transform="matrix(1,0,0,1,1496,-4)" class="stroke_order_diagram--existing_path"></path><path id="pathSk2v596cn1yjf" kvg:type="㇔/㇏" d="M32.53,20.3c4.47,2.57,8.72,6.95,11.22,12.2" transform="matrix(1,0,0,1,1496,-4)" class="stroke_order_diagram--existing_path"></path><path id="pathSk2v596cn1yjg" kvg:type="㇐" d="M21,40c1.38,0.12,2.41,0.09,3.63-0.03c3.87-0.36,8.52-1.25,12.76-1.8c1.05-0.14,2.04-0.17,3.1-0.17" transform="matrix(1,0,0,1,1496,-4)" class="stroke_order_diagram--existing_path"></path><path id="pathSk2v596cn1yjh" kvg:type="㇐" d="M12.59,55.23c1.91,0.52,4.11,0.53,5.79,0.36c7.37-0.72,13.79-1.61,20.52-2.76c1.22-0.21,2.72-0.21,3.87-0.07" transform="matrix(1,0,0,1,1496,-4)" class="stroke_order_diagram--existing_path"></path><path id="pathSk2v596cn1yji" kvg:type="㇑a" d="M29.45,40.94c0.99,0.99,1.24,2.18,1.24,3.39c0,4.17,0.06,31.79,0.06,36.98" transform="matrix(1,0,0,1,1496,-4)" class="stroke_order_diagram--existing_path"></path><path id="pathSk2v596cn1yjj" kvg:type="㇔" d="M16.38,65.62c2.9,4.43,4.32,9.24,4.92,11.82" transform="matrix(1,0,0,1,1496,-4)" class="stroke_order_diagram--existing_path"></path><path id="pathSk2v596cn1yjk" kvg:type="㇒" d="M41.54,60.3c0.23,0.71,0.35,1.75,0.26,2.35c-0.23,1.54-2.05,4.36-4.63,8.88" transform="matrix(1,0,0,1,1496,-4)" class="stroke_order_diagram--existing_path"></path><path id="pathSk2v596cn1yjl" kvg:type="㇀/㇐" d="M14.25,88c1,0.62,2.42,0.68,3.5,0.25c1.25-0.5,12-6,25-12" transform="matrix(1,0,0,1,1496,-4)" class="stroke_order_diagram--existing_path"></path><path id="pathSk2v596cn1yjm" kvg:type="㇕c" d="M50.53,17.5c1.97,0.5,3.37,0.69,5.46,0.5c8.27-0.75,18.02-1.88,24.19-2.25c1.82-0.11,3.25,1.5,2.8,4c-1.19,6.54-1.8,11-3.39,22.25" transform="matrix(1,0,0,1,1496,-4)" class="stroke_order_diagram--existing_path"></path><path id="pathSk2v596cn1yjn" kvg:type="㇐c" d="M52.25,30.75c2.38,0.62,3.64,0.63,5.91,0.5c4.34-0.25,16.21-2,21.91-2.25" transform="matrix(1,0,0,1,1496,-4)" class="stroke_order_diagram--existing_path"></path><path id="pathSk2v596cn1yjo" kvg:type="㇐" d="M45.39,45.68c2.15,0.29,4.21,0.24,6.37,0.04c10.69-1.02,26.35-2.88,37.12-3.31c2-0.08,3.99-0.13,5.98,0.1" transform="matrix(1,0,0,1,1496,-4)" class="stroke_order_diagram--existing_path"></path><path id="pathSk2v596cn1yjp" kvg:type="㇚" d="M67.27,46.58c0.89,0.89,1.26,2.42,1.26,4.52c0,14.56-0.01,33.41-0.01,38.37c0,13.03-5.71,4-7.21,2.75" transform="matrix(1,0,0,1,1496,-4)" class="stroke_order_diagram--existing_path"></path><path id="pathSk2v596cn1yjq" kvg:type="㇔" d="M49.75,58.25c2.74,1.63,7.07,6.71,7.75,9.25" transform="matrix(1,0,0,1,1496,-4)" class="stroke_order_diagram--existing_path"></path><path id="pathSk2v596cn1yjr" kvg:type="㇀" d="M43.64,87.14c1.1,0.83,2.14,0.96,3.31-0.1c0.93-0.84,8.38-8.27,12.3-12.29" transform="matrix(1,0,0,1,1496,-4)" class="stroke_order_diagram--existing_path"></path><path id="pathSk2v596cn1yjs" kvg:type="㇒" d="M87.78,51.64c0.1,1.04-0.32,2.08-0.98,3C84.38,58,83,59.5,78.06,63.72" transform="matrix(1,0,0,1,1496,-4)" class="stroke_order_diagram--existing_path"></path><path id="kvg:09332-s16" kvg:type="㇏" d="M74.25,70.25c1.9,0.63,10.89,10.8,15.64,15.74c1.53,1.59,3.36,3.26,4.73,4.01" transform="matrix(1,0,0,1,1496,-4)" class="stroke_order_diagram--current_path"></path><path id="pathSk2v596cn1yju" kvg:type="㇏" d="M74.25,70.25c1.9,0.63,10.89,10.8,15.64,15.74c1.53,1.59,3.36,3.26,4.73,4.01" transform="matrix(1,0,0,1,1496,-4)" class="stroke_order_diagram--current_path"></path><circle cx="74.25" cy="70.25" r="8" class="stroke_order_diagram--path_start" transform="matrix(1,0,0,1,1496,-4)"></circle></svg>