<svg style="width: 800px; height: 100px;" viewbox="0 0 800 100"><style>
.stroke_order_diagram--outer_container {
  width: 100%;
  overflow-x: auto;
  overflow-y: hidden;
}

.stroke_order_diagram--guide_line {
  fill: none;
  stroke: #ddd;
  stroke-width: 3;
  stroke-linecap: square;
  stroke-linejoin: square;
  stroke-dasharray:8, 8;
}

.stroke_order_diagram--bounding_box {
  fill: none;
  stroke: #ddd;
  stroke-width: 4;
  stroke-linecap: square;
  stroke-linejoin: square;
}

.stroke_order_diagram--current_path {
  fill: none;
  stroke: #000;
  stroke-width: 6;
  stroke-linecap: round;
  stroke-linejoin: round;
}

.stroke_order_diagram--existing_path {
  fill: none;
  stroke: #aaa;
  stroke-width: 6;
  stroke-linecap: round;
  stroke-linejoin:round;
}

.stroke_order_diagram--path_start {
  fill: rgba(255, 0, 0, 0.7);
  stroke:none
}</style><desc>Created with Snap</desc><defs></defs><line x1="1" x2="799" y1="1" y2="1" class="stroke_order_diagram--bounding_box"></line><line x1="1" x2="1" y1="1" y2="99" class="stroke_order_diagram--bounding_box"></line><line x1="1" x2="799" y1="99" y2="99" class="stroke_order_diagram--bounding_box"></line><line x1="0" x2="800" y1="50" y2="50" class="stroke_order_diagram--guide_line"></line><line x1="50" x2="50" y1="1" y2="99" class="stroke_order_diagram--guide_line"></line><line x1="99" x2="99" y1="1" y2="99" class="stroke_order_diagram--bounding_box"></line><path id="kvg:09577-s1" kvg:type="㇑a" d="M34,14.75C35.25,16,36,18,36,19.5s0,33.5,0,35.75" transform="matrix(1,0,0,1,-4,-4)" class="stroke_order_diagram--current_path"></path><path id="pathSk2v596cn7fy" kvg:type="㇑a" d="M34,14.75C35.25,16,36,18,36,19.5s0,33.5,0,35.75" transform="matrix(1,0,0,1,-4,-4)" class="stroke_order_diagram--current_path"></path><circle cx="34" cy="14.75" r="8" class="stroke_order_diagram--path_start" transform="matrix(1,0,0,1,-4,-4)"></circle><line x1="150" x2="150" y1="1" y2="99" class="stroke_order_diagram--guide_line"></line><line x1="199" x2="199" y1="1" y2="99" class="stroke_order_diagram--bounding_box"></line><path id="pathSk2v596cn7g1" kvg:type="㇑a" d="M34,14.75C35.25,16,36,18,36,19.5s0,33.5,0,35.75" transform="matrix(1,0,0,1,96,-4)" class="stroke_order_diagram--existing_path"></path><path id="kvg:09577-s2" kvg:type="㇐b" d="M37.75,16c9.6-0.15,21.73-3.26,26.63-4.2c1.97-0.38,3.9-0.41,5.87,0.06" transform="matrix(1,0,0,1,96,-4)" class="stroke_order_diagram--current_path"></path><path id="pathSk2v596cn7g3" kvg:type="㇐b" d="M37.75,16c9.6-0.15,21.73-3.26,26.63-4.2c1.97-0.38,3.9-0.41,5.87,0.06" transform="matrix(1,0,0,1,96,-4)" class="stroke_order_diagram--current_path"></path><circle cx="37.75" cy="16" r="8" class="stroke_order_diagram--path_start" transform="matrix(1,0,0,1,96,-4)"></circle><line x1="250" x2="250" y1="1" y2="99" class="stroke_order_diagram--guide_line"></line><line x1="299" x2="299" y1="1" y2="99" class="stroke_order_diagram--bounding_box"></line><path id="pathSk2v596cn7g6" kvg:type="㇑a" d="M34,14.75C35.25,16,36,18,36,19.5s0,33.5,0,35.75" transform="matrix(1,0,0,1,196,-4)" class="stroke_order_diagram--existing_path"></path><path id="pathSk2v596cn7g7" kvg:type="㇐b" d="M37.75,16c9.6-0.15,21.73-3.26,26.63-4.2c1.97-0.38,3.9-0.41,5.87,0.06" transform="matrix(1,0,0,1,196,-4)" class="stroke_order_diagram--existing_path"></path><path id="kvg:09577-s3" kvg:type="㇐b" d="M37.25,29.5C48.12,28.25,57,27,64,25.72c1.96-0.36,3.76-0.25,5.25,0.06" transform="matrix(1,0,0,1,196,-4)" class="stroke_order_diagram--current_path"></path><path id="pathSk2v596cn7g9" kvg:type="㇐b" d="M37.25,29.5C48.12,28.25,57,27,64,25.72c1.96-0.36,3.76-0.25,5.25,0.06" transform="matrix(1,0,0,1,196,-4)" class="stroke_order_diagram--current_path"></path><circle cx="37.25" cy="29.5" r="8" class="stroke_order_diagram--path_start" transform="matrix(1,0,0,1,196,-4)"></circle><line x1="350" x2="350" y1="1" y2="99" class="stroke_order_diagram--guide_line"></line><line x1="399" x2="399" y1="1" y2="99" class="stroke_order_diagram--bounding_box"></line><path id="pathSk2v596cn7gc" kvg:type="㇑a" d="M34,14.75C35.25,16,36,18,36,19.5s0,33.5,0,35.75" transform="matrix(1,0,0,1,296,-4)" class="stroke_order_diagram--existing_path"></path><path id="pathSk2v596cn7gd" kvg:type="㇐b" d="M37.75,16c9.6-0.15,21.73-3.26,26.63-4.2c1.97-0.38,3.9-0.41,5.87,0.06" transform="matrix(1,0,0,1,296,-4)" class="stroke_order_diagram--existing_path"></path><path id="pathSk2v596cn7ge" kvg:type="㇐b" d="M37.25,29.5C48.12,28.25,57,27,64,25.72c1.96-0.36,3.76-0.25,5.25,0.06" transform="matrix(1,0,0,1,296,-4)" class="stroke_order_diagram--existing_path"></path><path id="kvg:09577-s4" kvg:type="㇐b" d="M37.5,42.5c8.88-0.86,21.62-2.62,26.75-3.53c1.97-0.35,3.88-0.32,5.75,0" transform="matrix(1,0,0,1,296,-4)" class="stroke_order_diagram--current_path"></path><path id="pathSk2v596cn7gg" kvg:type="㇐b" d="M37.5,42.5c8.88-0.86,21.62-2.62,26.75-3.53c1.97-0.35,3.88-0.32,5.75,0" transform="matrix(1,0,0,1,296,-4)" class="stroke_order_diagram--current_path"></path><circle cx="37.5" cy="42.5" r="8" class="stroke_order_diagram--path_start" transform="matrix(1,0,0,1,296,-4)"></circle><line x1="450" x2="450" y1="1" y2="99" class="stroke_order_diagram--guide_line"></line><line x1="499" x2="499" y1="1" y2="99" class="stroke_order_diagram--bounding_box"></line><path id="pathSk2v596cn7gj" kvg:type="㇑a" d="M34,14.75C35.25,16,36,18,36,19.5s0,33.5,0,35.75" transform="matrix(1,0,0,1,396,-4)" class="stroke_order_diagram--existing_path"></path><path id="pathSk2v596cn7gk" kvg:type="㇐b" d="M37.75,16c9.6-0.15,21.73-3.26,26.63-4.2c1.97-0.38,3.9-0.41,5.87,0.06" transform="matrix(1,0,0,1,396,-4)" class="stroke_order_diagram--existing_path"></path><path id="pathSk2v596cn7gl" kvg:type="㇐b" d="M37.25,29.5C48.12,28.25,57,27,64,25.72c1.96-0.36,3.76-0.25,5.25,0.06" transform="matrix(1,0,0,1,396,-4)" class="stroke_order_diagram--existing_path"></path><path id="pathSk2v596cn7gm" kvg:type="㇐b" d="M37.5,42.5c8.88-0.86,21.62-2.62,26.75-3.53c1.97-0.35,3.88-0.32,5.75,0" transform="matrix(1,0,0,1,396,-4)" class="stroke_order_diagram--existing_path"></path><path id="kvg:09577-s5" kvg:type="㇐" d="M10.88,58.23c3.14,0.86,6.44,0.68,9.62,0.29c19.73-2.35,44.86-6.1,65-7.61c2.97-0.22,5.7-0.08,8.63,0.4" transform="matrix(1,0,0,1,396,-4)" class="stroke_order_diagram--current_path"></path><path id="pathSk2v596cn7go" kvg:type="㇐" d="M10.88,58.23c3.14,0.86,6.44,0.68,9.62,0.29c19.73-2.35,44.86-6.1,65-7.61c2.97-0.22,5.7-0.08,8.63,0.4" transform="matrix(1,0,0,1,396,-4)" class="stroke_order_diagram--current_path"></path><circle cx="10.88" cy="58.23" r="8" class="stroke_order_diagram--path_start" transform="matrix(1,0,0,1,396,-4)"></circle><line x1="550" x2="550" y1="1" y2="99" class="stroke_order_diagram--guide_line"></line><line x1="599" x2="599" y1="1" y2="99" class="stroke_order_diagram--bounding_box"></line><path id="pathSk2v596cn7gr" kvg:type="㇑a" d="M34,14.75C35.25,16,36,18,36,19.5s0,33.5,0,35.75" transform="matrix(1,0,0,1,496,-4)" class="stroke_order_diagram--existing_path"></path><path id="pathSk2v596cn7gs" kvg:type="㇐b" d="M37.75,16c9.6-0.15,21.73-3.26,26.63-4.2c1.97-0.38,3.9-0.41,5.87,0.06" transform="matrix(1,0,0,1,496,-4)" class="stroke_order_diagram--existing_path"></path><path id="pathSk2v596cn7gt" kvg:type="㇐b" d="M37.25,29.5C48.12,28.25,57,27,64,25.72c1.96-0.36,3.76-0.25,5.25,0.06" transform="matrix(1,0,0,1,496,-4)" class="stroke_order_diagram--existing_path"></path><path id="pathSk2v596cn7gu" kvg:type="㇐b" d="M37.5,42.5c8.88-0.86,21.62-2.62,26.75-3.53c1.97-0.35,3.88-0.32,5.75,0" transform="matrix(1,0,0,1,496,-4)" class="stroke_order_diagram--existing_path"></path><path id="pathSk2v596cn7gv" kvg:type="㇐" d="M10.88,58.23c3.14,0.86,6.44,0.68,9.62,0.29c19.73-2.35,44.86-6.1,65-7.61c2.97-0.22,5.7-0.08,8.63,0.4" transform="matrix(1,0,0,1,496,-4)" class="stroke_order_diagram--existing_path"></path><path id="kvg:09577-s6" kvg:type="㇙" d="M31.25,60.25c0.94,0.94,1.39,2.38,1.39,4c0,11.82-0.7,28.19-0.7,30.19s1.65,3.14,3.74,1.64c2.09-1.5,17.25-11.09,20.03-12.59" transform="matrix(1,0,0,1,496,-4)" class="stroke_order_diagram--current_path"></path><path id="pathSk2v596cn7gx" kvg:type="㇙" d="M31.25,60.25c0.94,0.94,1.39,2.38,1.39,4c0,11.82-0.7,28.19-0.7,30.19s1.65,3.14,3.74,1.64c2.09-1.5,17.25-11.09,20.03-12.59" transform="matrix(1,0,0,1,496,-4)" class="stroke_order_diagram--current_path"></path><circle cx="31.25" cy="60.25" r="8" class="stroke_order_diagram--path_start" transform="matrix(1,0,0,1,496,-4)"></circle><line x1="650" x2="650" y1="1" y2="99" class="stroke_order_diagram--guide_line"></line><line x1="699" x2="699" y1="1" y2="99" class="stroke_order_diagram--bounding_box"></line><path id="pathSk2v596cn7h0" kvg:type="㇑a" d="M34,14.75C35.25,16,36,18,36,19.5s0,33.5,0,35.75" transform="matrix(1,0,0,1,596,-4)" class="stroke_order_diagram--existing_path"></path><path id="pathSk2v596cn7h1" kvg:type="㇐b" d="M37.75,16c9.6-0.15,21.73-3.26,26.63-4.2c1.97-0.38,3.9-0.41,5.87,0.06" transform="matrix(1,0,0,1,596,-4)" class="stroke_order_diagram--existing_path"></path><path id="pathSk2v596cn7h2" kvg:type="㇐b" d="M37.25,29.5C48.12,28.25,57,27,64,25.72c1.96-0.36,3.76-0.25,5.25,0.06" transform="matrix(1,0,0,1,596,-4)" class="stroke_order_diagram--existing_path"></path><path id="pathSk2v596cn7h3" kvg:type="㇐b" d="M37.5,42.5c8.88-0.86,21.62-2.62,26.75-3.53c1.97-0.35,3.88-0.32,5.75,0" transform="matrix(1,0,0,1,596,-4)" class="stroke_order_diagram--existing_path"></path><path id="pathSk2v596cn7h4" kvg:type="㇐" d="M10.88,58.23c3.14,0.86,6.44,0.68,9.62,0.29c19.73-2.35,44.86-6.1,65-7.61c2.97-0.22,5.7-0.08,8.63,0.4" transform="matrix(1,0,0,1,596,-4)" class="stroke_order_diagram--existing_path"></path><path id="pathSk2v596cn7h5" kvg:type="㇙" d="M31.25,60.25c0.94,0.94,1.39,2.38,1.39,4c0,11.82-0.7,28.19-0.7,30.19s1.65,3.14,3.74,1.64c2.09-1.5,17.25-11.09,20.03-12.59" transform="matrix(1,0,0,1,596,-4)" class="stroke_order_diagram--existing_path"></path><path id="kvg:09577-s7" kvg:type="㇒" d="M76.52,55.25c0.23,1.25-0.33,2.45-1.05,3.41C73.5,61.25,69.62,65,64.62,68.75" transform="matrix(1,0,0,1,596,-4)" class="stroke_order_diagram--current_path"></path><path id="pathSk2v596cn7h7" kvg:type="㇒" d="M76.52,55.25c0.23,1.25-0.33,2.45-1.05,3.41C73.5,61.25,69.62,65,64.62,68.75" transform="matrix(1,0,0,1,596,-4)" class="stroke_order_diagram--current_path"></path><circle cx="76.52" cy="55.25" r="8" class="stroke_order_diagram--path_start" transform="matrix(1,0,0,1,596,-4)"></circle><line x1="750" x2="750" y1="1" y2="99" class="stroke_order_diagram--guide_line"></line><line x1="799" x2="799" y1="1" y2="99" class="stroke_order_diagram--bounding_box"></line><path id="pathSk2v596cn7ha" kvg:type="㇑a" d="M34,14.75C35.25,16,36,18,36,19.5s0,33.5,0,35.75" transform="matrix(1,0,0,1,696,-4)" class="stroke_order_diagram--existing_path"></path><path id="pathSk2v596cn7hb" kvg:type="㇐b" d="M37.75,16c9.6-0.15,21.73-3.26,26.63-4.2c1.97-0.38,3.9-0.41,5.87,0.06" transform="matrix(1,0,0,1,696,-4)" class="stroke_order_diagram--existing_path"></path><path id="pathSk2v596cn7hc" kvg:type="㇐b" d="M37.25,29.5C48.12,28.25,57,27,64,25.72c1.96-0.36,3.76-0.25,5.25,0.06" transform="matrix(1,0,0,1,696,-4)" class="stroke_order_diagram--existing_path"></path><path id="pathSk2v596cn7hd" kvg:type="㇐b" d="M37.5,42.5c8.88-0.86,21.62-2.62,26.75-3.53c1.97-0.35,3.88-0.32,5.75,0" transform="matrix(1,0,0,1,696,-4)" class="stroke_order_diagram--existing_path"></path><path id="pathSk2v596cn7he" kvg:type="㇐" d="M10.88,58.23c3.14,0.86,6.44,0.68,9.62,0.29c19.73-2.35,44.86-6.1,65-7.61c2.97-0.22,5.7-0.08,8.63,0.4" transform="matrix(1,0,0,1,696,-4)" class="stroke_order_diagram--existing_path"></path><path id="pathSk2v596cn7hf" kvg:type="㇙" d="M31.25,60.25c0.94,0.94,1.39,2.38,1.39,4c0,11.82-0.7,28.19-0.7,30.19s1.65,3.14,3.74,1.64c2.09-1.5,17.25-11.09,20.03-12.59" transform="matrix(1,0,0,1,696,-4)" class="stroke_order_diagram--existing_path"></path><path id="pathSk2v596cn7hg" kvg:type="㇒" d="M76.52,55.25c0.23,1.25-0.33,2.45-1.05,3.41C73.5,61.25,69.62,65,64.62,68.75" transform="matrix(1,0,0,1,696,-4)" class="stroke_order_diagram--existing_path"></path><path id="kvg:09577-s8" kvg:type="㇏" d="M46.5,62.25c8.21,0,34.52,25.9,44.28,29.5C93.12,92.61,94.51,93,97,93.5" transform="matrix(1,0,0,1,696,-4)" class="stroke_order_diagram--current_path"></path><path id="pathSk2v596cn7hi" kvg:type="㇏" d="M46.5,62.25c8.21,0,34.52,25.9,44.28,29.5C93.12,92.61,94.51,93,97,93.5" transform="matrix(1,0,0,1,696,-4)" class="stroke_order_diagram--current_path"></path><circle cx="46.5" cy="62.25" r="8" class="stroke_order_diagram--path_start" transform="matrix(1,0,0,1,696,-4)"></circle></svg>