<svg style="width: 1800px; height: 100px;" viewbox="0 0 1800 100"><style>
.stroke_order_diagram--outer_container {
  width: 100%;
  overflow-x: auto;
  overflow-y: hidden;
}

.stroke_order_diagram--guide_line {
  fill: none;
  stroke: #ddd;
  stroke-width: 3;
  stroke-linecap: square;
  stroke-linejoin: square;
  stroke-dasharray:8, 8;
}

.stroke_order_diagram--bounding_box {
  fill: none;
  stroke: #ddd;
  stroke-width: 4;
  stroke-linecap: square;
  stroke-linejoin: square;
}

.stroke_order_diagram--current_path {
  fill: none;
  stroke: #000;
  stroke-width: 6;
  stroke-linecap: round;
  stroke-linejoin: round;
}

.stroke_order_diagram--existing_path {
  fill: none;
  stroke: #aaa;
  stroke-width: 6;
  stroke-linecap: round;
  stroke-linejoin:round;
}

.stroke_order_diagram--path_start {
  fill: rgba(255, 0, 0, 0.7);
  stroke:none
}</style><desc>Created with Snap</desc><defs></defs><line x1="1" x2="1799" y1="1" y2="1" class="stroke_order_diagram--bounding_box"></line><line x1="1" x2="1" y1="1" y2="99" class="stroke_order_diagram--bounding_box"></line><line x1="1" x2="1799" y1="99" y2="99" class="stroke_order_diagram--bounding_box"></line><line x1="0" x2="1800" y1="50" y2="50" class="stroke_order_diagram--guide_line"></line><line x1="50" x2="50" y1="1" y2="99" class="stroke_order_diagram--guide_line"></line><line x1="99" x2="99" y1="1" y2="99" class="stroke_order_diagram--bounding_box"></line><path id="kvg:095d8-s1" kvg:type="㇑" d="M19.14,16.29c1.03,1.03,1.18,2.21,1.18,3.65c0,0.62,0.02,48.76,0.02,67.94c0,4.61,0,7.55-0.01,7.75" transform="matrix(1,0,0,1,-4,-4)" class="stroke_order_diagram--current_path"></path><path id="pathSk2v596cn2qt0" kvg:type="㇑" d="M19.14,16.29c1.03,1.03,1.18,2.21,1.18,3.65c0,0.62,0.02,48.76,0.02,67.94c0,4.61,0,7.55-0.01,7.75" transform="matrix(1,0,0,1,-4,-4)" class="stroke_order_diagram--current_path"></path><circle cx="19.14" cy="16.29" r="8" class="stroke_order_diagram--path_start" transform="matrix(1,0,0,1,-4,-4)"></circle><line x1="150" x2="150" y1="1" y2="99" class="stroke_order_diagram--guide_line"></line><line x1="199" x2="199" y1="1" y2="99" class="stroke_order_diagram--bounding_box"></line><path id="pathSk2v596cn2qt3" kvg:type="㇑" d="M19.14,16.29c1.03,1.03,1.18,2.21,1.18,3.65c0,0.62,0.02,48.76,0.02,67.94c0,4.61,0,7.55-0.01,7.75" transform="matrix(1,0,0,1,96,-4)" class="stroke_order_diagram--existing_path"></path><path id="kvg:095d8-s2" kvg:type="㇕a" d="M21.27,17.58c2.44-0.1,15.86-2.55,18.08-2.67c1.85-0.1,2.65,1.2,2.65,2.46c0,1.15,0.09,11.12,0.09,16.62c0,0.6,0.03,3.58,0.03,4.19" transform="matrix(1,0,0,1,96,-4)" class="stroke_order_diagram--current_path"></path><path id="pathSk2v596cn2qt5" kvg:type="㇕a" d="M21.27,17.58c2.44-0.1,15.86-2.55,18.08-2.67c1.85-0.1,2.65,1.2,2.65,2.46c0,1.15,0.09,11.12,0.09,16.62c0,0.6,0.03,3.58,0.03,4.19" transform="matrix(1,0,0,1,96,-4)" class="stroke_order_diagram--current_path"></path><circle cx="21.27" cy="17.58" r="8" class="stroke_order_diagram--path_start" transform="matrix(1,0,0,1,96,-4)"></circle><line x1="250" x2="250" y1="1" y2="99" class="stroke_order_diagram--guide_line"></line><line x1="299" x2="299" y1="1" y2="99" class="stroke_order_diagram--bounding_box"></line><path id="pathSk2v596cn2qt8" kvg:type="㇑" d="M19.14,16.29c1.03,1.03,1.18,2.21,1.18,3.65c0,0.62,0.02,48.76,0.02,67.94c0,4.61,0,7.55-0.01,7.75" transform="matrix(1,0,0,1,196,-4)" class="stroke_order_diagram--existing_path"></path><path id="pathSk2v596cn2qt9" kvg:type="㇕a" d="M21.27,17.58c2.44-0.1,15.86-2.55,18.08-2.67c1.85-0.1,2.65,1.2,2.65,2.46c0,1.15,0.09,11.12,0.09,16.62c0,0.6,0.03,3.58,0.03,4.19" transform="matrix(1,0,0,1,196,-4)" class="stroke_order_diagram--existing_path"></path><path id="kvg:095d8-s3" kvg:type="㇐a" d="M21.45,27.64c5.99-0.59,12.67-1.39,19.88-2.01" transform="matrix(1,0,0,1,196,-4)" class="stroke_order_diagram--current_path"></path><path id="pathSk2v596cn2qtb" kvg:type="㇐a" d="M21.45,27.64c5.99-0.59,12.67-1.39,19.88-2.01" transform="matrix(1,0,0,1,196,-4)" class="stroke_order_diagram--current_path"></path><circle cx="21.45" cy="27.64" r="8" class="stroke_order_diagram--path_start" transform="matrix(1,0,0,1,196,-4)"></circle><line x1="350" x2="350" y1="1" y2="99" class="stroke_order_diagram--guide_line"></line><line x1="399" x2="399" y1="1" y2="99" class="stroke_order_diagram--bounding_box"></line><path id="pathSk2v596cn2qte" kvg:type="㇑" d="M19.14,16.29c1.03,1.03,1.18,2.21,1.18,3.65c0,0.62,0.02,48.76,0.02,67.94c0,4.61,0,7.55-0.01,7.75" transform="matrix(1,0,0,1,296,-4)" class="stroke_order_diagram--existing_path"></path><path id="pathSk2v596cn2qtf" kvg:type="㇕a" d="M21.27,17.58c2.44-0.1,15.86-2.55,18.08-2.67c1.85-0.1,2.65,1.2,2.65,2.46c0,1.15,0.09,11.12,0.09,16.62c0,0.6,0.03,3.58,0.03,4.19" transform="matrix(1,0,0,1,296,-4)" class="stroke_order_diagram--existing_path"></path><path id="pathSk2v596cn2qtg" kvg:type="㇐a" d="M21.45,27.64c5.99-0.59,12.67-1.39,19.88-2.01" transform="matrix(1,0,0,1,296,-4)" class="stroke_order_diagram--existing_path"></path><path id="kvg:095d8-s4" kvg:type="㇐a" d="M21.77,37.98c4.73-0.6,13.48-1.48,18.81-1.81" transform="matrix(1,0,0,1,296,-4)" class="stroke_order_diagram--current_path"></path><path id="pathSk2v596cn2qti" kvg:type="㇐a" d="M21.77,37.98c4.73-0.6,13.48-1.48,18.81-1.81" transform="matrix(1,0,0,1,296,-4)" class="stroke_order_diagram--current_path"></path><circle cx="21.77" cy="37.98" r="8" class="stroke_order_diagram--path_start" transform="matrix(1,0,0,1,296,-4)"></circle><line x1="450" x2="450" y1="1" y2="99" class="stroke_order_diagram--guide_line"></line><line x1="499" x2="499" y1="1" y2="99" class="stroke_order_diagram--bounding_box"></line><path id="pathSk2v596cn2qtl" kvg:type="㇑" d="M19.14,16.29c1.03,1.03,1.18,2.21,1.18,3.65c0,0.62,0.02,48.76,0.02,67.94c0,4.61,0,7.55-0.01,7.75" transform="matrix(1,0,0,1,396,-4)" class="stroke_order_diagram--existing_path"></path><path id="pathSk2v596cn2qtm" kvg:type="㇕a" d="M21.27,17.58c2.44-0.1,15.86-2.55,18.08-2.67c1.85-0.1,2.65,1.2,2.65,2.46c0,1.15,0.09,11.12,0.09,16.62c0,0.6,0.03,3.58,0.03,4.19" transform="matrix(1,0,0,1,396,-4)" class="stroke_order_diagram--existing_path"></path><path id="pathSk2v596cn2qtn" kvg:type="㇐a" d="M21.45,27.64c5.99-0.59,12.67-1.39,19.88-2.01" transform="matrix(1,0,0,1,396,-4)" class="stroke_order_diagram--existing_path"></path><path id="pathSk2v596cn2qto" kvg:type="㇐a" d="M21.77,37.98c4.73-0.6,13.48-1.48,18.81-1.81" transform="matrix(1,0,0,1,396,-4)" class="stroke_order_diagram--existing_path"></path><path id="kvg:095d8-s5" kvg:type="㇑" d="M64.94,14.01c0.84,0.84,0.88,1.86,0.88,2.98c0,0.55-0.02,10.53-0.04,16.26c0,1.97,0.04,3.38,0.04,4.52" transform="matrix(1,0,0,1,396,-4)" class="stroke_order_diagram--current_path"></path><path id="pathSk2v596cn2qtq" kvg:type="㇑" d="M64.94,14.01c0.84,0.84,0.88,1.86,0.88,2.98c0,0.55-0.02,10.53-0.04,16.26c0,1.97,0.04,3.38,0.04,4.52" transform="matrix(1,0,0,1,396,-4)" class="stroke_order_diagram--current_path"></path><circle cx="64.94" cy="14.01" r="8" class="stroke_order_diagram--path_start" transform="matrix(1,0,0,1,396,-4)"></circle><line x1="550" x2="550" y1="1" y2="99" class="stroke_order_diagram--guide_line"></line><line x1="599" x2="599" y1="1" y2="99" class="stroke_order_diagram--bounding_box"></line><path id="pathSk2v596cn2qtt" kvg:type="㇑" d="M19.14,16.29c1.03,1.03,1.18,2.21,1.18,3.65c0,0.62,0.02,48.76,0.02,67.94c0,4.61,0,7.55-0.01,7.75" transform="matrix(1,0,0,1,496,-4)" class="stroke_order_diagram--existing_path"></path><path id="pathSk2v596cn2qtu" kvg:type="㇕a" d="M21.27,17.58c2.44-0.1,15.86-2.55,18.08-2.67c1.85-0.1,2.65,1.2,2.65,2.46c0,1.15,0.09,11.12,0.09,16.62c0,0.6,0.03,3.58,0.03,4.19" transform="matrix(1,0,0,1,496,-4)" class="stroke_order_diagram--existing_path"></path><path id="pathSk2v596cn2qtv" kvg:type="㇐a" d="M21.45,27.64c5.99-0.59,12.67-1.39,19.88-2.01" transform="matrix(1,0,0,1,496,-4)" class="stroke_order_diagram--existing_path"></path><path id="pathSk2v596cn2qtw" kvg:type="㇐a" d="M21.77,37.98c4.73-0.6,13.48-1.48,18.81-1.81" transform="matrix(1,0,0,1,496,-4)" class="stroke_order_diagram--existing_path"></path><path id="pathSk2v596cn2qtx" kvg:type="㇑" d="M64.94,14.01c0.84,0.84,0.88,1.86,0.88,2.98c0,0.55-0.02,10.53-0.04,16.26c0,1.97,0.04,3.38,0.04,4.52" transform="matrix(1,0,0,1,496,-4)" class="stroke_order_diagram--existing_path"></path><path id="kvg:095d8-s6" kvg:type="㇆a" d="M66.55,14.91c2.49-0.11,19.21-1.79,21.49-1.92c2.36-0.13,2.97,1.28,2.97,3.26c0,20.74,0,61.66,0,75.44c0,9.05-4.98,1.53-7.15-0.64" transform="matrix(1,0,0,1,496,-4)" class="stroke_order_diagram--current_path"></path><path id="pathSk2v596cn2qtz" kvg:type="㇆a" d="M66.55,14.91c2.49-0.11,19.21-1.79,21.49-1.92c2.36-0.13,2.97,1.28,2.97,3.26c0,20.74,0,61.66,0,75.44c0,9.05-4.98,1.53-7.15-0.64" transform="matrix(1,0,0,1,496,-4)" class="stroke_order_diagram--current_path"></path><circle cx="66.55" cy="14.91" r="8" class="stroke_order_diagram--path_start" transform="matrix(1,0,0,1,496,-4)"></circle><line x1="650" x2="650" y1="1" y2="99" class="stroke_order_diagram--guide_line"></line><line x1="699" x2="699" y1="1" y2="99" class="stroke_order_diagram--bounding_box"></line><path id="pathSk2v596cn2qu2" kvg:type="㇑" d="M19.14,16.29c1.03,1.03,1.18,2.21,1.18,3.65c0,0.62,0.02,48.76,0.02,67.94c0,4.61,0,7.55-0.01,7.75" transform="matrix(1,0,0,1,596,-4)" class="stroke_order_diagram--existing_path"></path><path id="pathSk2v596cn2qu3" kvg:type="㇕a" d="M21.27,17.58c2.44-0.1,15.86-2.55,18.08-2.67c1.85-0.1,2.65,1.2,2.65,2.46c0,1.15,0.09,11.12,0.09,16.62c0,0.6,0.03,3.58,0.03,4.19" transform="matrix(1,0,0,1,596,-4)" class="stroke_order_diagram--existing_path"></path><path id="pathSk2v596cn2qu4" kvg:type="㇐a" d="M21.45,27.64c5.99-0.59,12.67-1.39,19.88-2.01" transform="matrix(1,0,0,1,596,-4)" class="stroke_order_diagram--existing_path"></path><path id="pathSk2v596cn2qu5" kvg:type="㇐a" d="M21.77,37.98c4.73-0.6,13.48-1.48,18.81-1.81" transform="matrix(1,0,0,1,596,-4)" class="stroke_order_diagram--existing_path"></path><path id="pathSk2v596cn2qu6" kvg:type="㇑" d="M64.94,14.01c0.84,0.84,0.88,1.86,0.88,2.98c0,0.55-0.02,10.53-0.04,16.26c0,1.97,0.04,3.38,0.04,4.52" transform="matrix(1,0,0,1,596,-4)" class="stroke_order_diagram--existing_path"></path><path id="pathSk2v596cn2qu7" kvg:type="㇆a" d="M66.55,14.91c2.49-0.11,19.21-1.79,21.49-1.92c2.36-0.13,2.97,1.28,2.97,3.26c0,20.74,0,61.66,0,75.44c0,9.05-4.98,1.53-7.15-0.64" transform="matrix(1,0,0,1,596,-4)" class="stroke_order_diagram--existing_path"></path><path id="kvg:095d8-s7" kvg:type="㇐a" d="M66.99,24.72c5.26-0.34,19.09-1.49,22.9-1.49" transform="matrix(1,0,0,1,596,-4)" class="stroke_order_diagram--current_path"></path><path id="pathSk2v596cn2qu9" kvg:type="㇐a" d="M66.99,24.72c5.26-0.34,19.09-1.49,22.9-1.49" transform="matrix(1,0,0,1,596,-4)" class="stroke_order_diagram--current_path"></path><circle cx="66.99" cy="24.72" r="8" class="stroke_order_diagram--path_start" transform="matrix(1,0,0,1,596,-4)"></circle><line x1="750" x2="750" y1="1" y2="99" class="stroke_order_diagram--guide_line"></line><line x1="799" x2="799" y1="1" y2="99" class="stroke_order_diagram--bounding_box"></line><path id="pathSk2v596cn2quc" kvg:type="㇑" d="M19.14,16.29c1.03,1.03,1.18,2.21,1.18,3.65c0,0.62,0.02,48.76,0.02,67.94c0,4.61,0,7.55-0.01,7.75" transform="matrix(1,0,0,1,696,-4)" class="stroke_order_diagram--existing_path"></path><path id="pathSk2v596cn2qud" kvg:type="㇕a" d="M21.27,17.58c2.44-0.1,15.86-2.55,18.08-2.67c1.85-0.1,2.65,1.2,2.65,2.46c0,1.15,0.09,11.12,0.09,16.62c0,0.6,0.03,3.58,0.03,4.19" transform="matrix(1,0,0,1,696,-4)" class="stroke_order_diagram--existing_path"></path><path id="pathSk2v596cn2que" kvg:type="㇐a" d="M21.45,27.64c5.99-0.59,12.67-1.39,19.88-2.01" transform="matrix(1,0,0,1,696,-4)" class="stroke_order_diagram--existing_path"></path><path id="pathSk2v596cn2quf" kvg:type="㇐a" d="M21.77,37.98c4.73-0.6,13.48-1.48,18.81-1.81" transform="matrix(1,0,0,1,696,-4)" class="stroke_order_diagram--existing_path"></path><path id="pathSk2v596cn2qug" kvg:type="㇑" d="M64.94,14.01c0.84,0.84,0.88,1.86,0.88,2.98c0,0.55-0.02,10.53-0.04,16.26c0,1.97,0.04,3.38,0.04,4.52" transform="matrix(1,0,0,1,696,-4)" class="stroke_order_diagram--existing_path"></path><path id="pathSk2v596cn2quh" kvg:type="㇆a" d="M66.55,14.91c2.49-0.11,19.21-1.79,21.49-1.92c2.36-0.13,2.97,1.28,2.97,3.26c0,20.74,0,61.66,0,75.44c0,9.05-4.98,1.53-7.15-0.64" transform="matrix(1,0,0,1,696,-4)" class="stroke_order_diagram--existing_path"></path><path id="pathSk2v596cn2qui" kvg:type="㇐a" d="M66.99,24.72c5.26-0.34,19.09-1.49,22.9-1.49" transform="matrix(1,0,0,1,696,-4)" class="stroke_order_diagram--existing_path"></path><path id="kvg:095d8-s8" kvg:type="㇐a" d="M67.05,35.51c6.32-0.26,15.2-1.26,22.8-1.31" transform="matrix(1,0,0,1,696,-4)" class="stroke_order_diagram--current_path"></path><path id="pathSk2v596cn2quk" kvg:type="㇐a" d="M67.05,35.51c6.32-0.26,15.2-1.26,22.8-1.31" transform="matrix(1,0,0,1,696,-4)" class="stroke_order_diagram--current_path"></path><circle cx="67.05" cy="35.51" r="8" class="stroke_order_diagram--path_start" transform="matrix(1,0,0,1,696,-4)"></circle><line x1="850" x2="850" y1="1" y2="99" class="stroke_order_diagram--guide_line"></line><line x1="899" x2="899" y1="1" y2="99" class="stroke_order_diagram--bounding_box"></line><path id="pathSk2v596cn2qun" kvg:type="㇑" d="M19.14,16.29c1.03,1.03,1.18,2.21,1.18,3.65c0,0.62,0.02,48.76,0.02,67.94c0,4.61,0,7.55-0.01,7.75" transform="matrix(1,0,0,1,796,-4)" class="stroke_order_diagram--existing_path"></path><path id="pathSk2v596cn2quo" kvg:type="㇕a" d="M21.27,17.58c2.44-0.1,15.86-2.55,18.08-2.67c1.85-0.1,2.65,1.2,2.65,2.46c0,1.15,0.09,11.12,0.09,16.62c0,0.6,0.03,3.58,0.03,4.19" transform="matrix(1,0,0,1,796,-4)" class="stroke_order_diagram--existing_path"></path><path id="pathSk2v596cn2qup" kvg:type="㇐a" d="M21.45,27.64c5.99-0.59,12.67-1.39,19.88-2.01" transform="matrix(1,0,0,1,796,-4)" class="stroke_order_diagram--existing_path"></path><path id="pathSk2v596cn2quq" kvg:type="㇐a" d="M21.77,37.98c4.73-0.6,13.48-1.48,18.81-1.81" transform="matrix(1,0,0,1,796,-4)" class="stroke_order_diagram--existing_path"></path><path id="pathSk2v596cn2qur" kvg:type="㇑" d="M64.94,14.01c0.84,0.84,0.88,1.86,0.88,2.98c0,0.55-0.02,10.53-0.04,16.26c0,1.97,0.04,3.38,0.04,4.52" transform="matrix(1,0,0,1,796,-4)" class="stroke_order_diagram--existing_path"></path><path id="pathSk2v596cn2qus" kvg:type="㇆a" d="M66.55,14.91c2.49-0.11,19.21-1.79,21.49-1.92c2.36-0.13,2.97,1.28,2.97,3.26c0,20.74,0,61.66,0,75.44c0,9.05-4.98,1.53-7.15-0.64" transform="matrix(1,0,0,1,796,-4)" class="stroke_order_diagram--existing_path"></path><path id="pathSk2v596cn2qut" kvg:type="㇐a" d="M66.99,24.72c5.26-0.34,19.09-1.49,22.9-1.49" transform="matrix(1,0,0,1,796,-4)" class="stroke_order_diagram--existing_path"></path><path id="pathSk2v596cn2quu" kvg:type="㇐a" d="M67.05,35.51c6.32-0.26,15.2-1.26,22.8-1.31" transform="matrix(1,0,0,1,796,-4)" class="stroke_order_diagram--existing_path"></path><path id="kvg:095d8-s9" kvg:type="㇐" d="M26.88,47.26c1.12,0.62,2.38,0.76,4.54,0.46c5.04-0.68,8.44-1.16,16.09-2c1.33-0.15,2.73-0.31,4.05,0.06" transform="matrix(1,0,0,1,796,-4)" class="stroke_order_diagram--current_path"></path><path id="pathSk2v596cn2quw" kvg:type="㇐" d="M26.88,47.26c1.12,0.62,2.38,0.76,4.54,0.46c5.04-0.68,8.44-1.16,16.09-2c1.33-0.15,2.73-0.31,4.05,0.06" transform="matrix(1,0,0,1,796,-4)" class="stroke_order_diagram--current_path"></path><circle cx="26.88" cy="47.26" r="8" class="stroke_order_diagram--path_start" transform="matrix(1,0,0,1,796,-4)"></circle><line x1="950" x2="950" y1="1" y2="99" class="stroke_order_diagram--guide_line"></line><line x1="999" x2="999" y1="1" y2="99" class="stroke_order_diagram--bounding_box"></line><path id="pathSk2v596cn2quz" kvg:type="㇑" d="M19.14,16.29c1.03,1.03,1.18,2.21,1.18,3.65c0,0.62,0.02,48.76,0.02,67.94c0,4.61,0,7.55-0.01,7.75" transform="matrix(1,0,0,1,896,-4)" class="stroke_order_diagram--existing_path"></path><path id="pathSk2v596cn2qv0" kvg:type="㇕a" d="M21.27,17.58c2.44-0.1,15.86-2.55,18.08-2.67c1.85-0.1,2.65,1.2,2.65,2.46c0,1.15,0.09,11.12,0.09,16.62c0,0.6,0.03,3.58,0.03,4.19" transform="matrix(1,0,0,1,896,-4)" class="stroke_order_diagram--existing_path"></path><path id="pathSk2v596cn2qv1" kvg:type="㇐a" d="M21.45,27.64c5.99-0.59,12.67-1.39,19.88-2.01" transform="matrix(1,0,0,1,896,-4)" class="stroke_order_diagram--existing_path"></path><path id="pathSk2v596cn2qv2" kvg:type="㇐a" d="M21.77,37.98c4.73-0.6,13.48-1.48,18.81-1.81" transform="matrix(1,0,0,1,896,-4)" class="stroke_order_diagram--existing_path"></path><path id="pathSk2v596cn2qv3" kvg:type="㇑" d="M64.94,14.01c0.84,0.84,0.88,1.86,0.88,2.98c0,0.55-0.02,10.53-0.04,16.26c0,1.97,0.04,3.38,0.04,4.52" transform="matrix(1,0,0,1,896,-4)" class="stroke_order_diagram--existing_path"></path><path id="pathSk2v596cn2qv4" kvg:type="㇆a" d="M66.55,14.91c2.49-0.11,19.21-1.79,21.49-1.92c2.36-0.13,2.97,1.28,2.97,3.26c0,20.74,0,61.66,0,75.44c0,9.05-4.98,1.53-7.15-0.64" transform="matrix(1,0,0,1,896,-4)" class="stroke_order_diagram--existing_path"></path><path id="pathSk2v596cn2qv5" kvg:type="㇐a" d="M66.99,24.72c5.26-0.34,19.09-1.49,22.9-1.49" transform="matrix(1,0,0,1,896,-4)" class="stroke_order_diagram--existing_path"></path><path id="pathSk2v596cn2qv6" kvg:type="㇐a" d="M67.05,35.51c6.32-0.26,15.2-1.26,22.8-1.31" transform="matrix(1,0,0,1,896,-4)" class="stroke_order_diagram--existing_path"></path><path id="pathSk2v596cn2qv7" kvg:type="㇐" d="M26.88,47.26c1.12,0.62,2.38,0.76,4.54,0.46c5.04-0.68,8.44-1.16,16.09-2c1.33-0.15,2.73-0.31,4.05,0.06" transform="matrix(1,0,0,1,896,-4)" class="stroke_order_diagram--existing_path"></path><path id="kvg:095d8-s10" kvg:type="㇑" d="M29.84,54.95c0.26,0.22,0.58,0.89,0.63,1.18c0.26,1.59,1.11,4.83,1.73,8.13c0.2,1.08,0.4,2.17,0.6,3.2" transform="matrix(1,0,0,1,896,-4)" class="stroke_order_diagram--current_path"></path><path id="pathSk2v596cn2qv9" kvg:type="㇑" d="M29.84,54.95c0.26,0.22,0.58,0.89,0.63,1.18c0.26,1.59,1.11,4.83,1.73,8.13c0.2,1.08,0.4,2.17,0.6,3.2" transform="matrix(1,0,0,1,896,-4)" class="stroke_order_diagram--current_path"></path><circle cx="29.84" cy="54.95" r="8" class="stroke_order_diagram--path_start" transform="matrix(1,0,0,1,896,-4)"></circle><line x1="1050" x2="1050" y1="1" y2="99" class="stroke_order_diagram--guide_line"></line><line x1="1099" x2="1099" y1="1" y2="99" class="stroke_order_diagram--bounding_box"></line><path id="pathSk2v596cn2qvc" kvg:type="㇑" d="M19.14,16.29c1.03,1.03,1.18,2.21,1.18,3.65c0,0.62,0.02,48.76,0.02,67.94c0,4.61,0,7.55-0.01,7.75" transform="matrix(1,0,0,1,996,-4)" class="stroke_order_diagram--existing_path"></path><path id="pathSk2v596cn2qvd" kvg:type="㇕a" d="M21.27,17.58c2.44-0.1,15.86-2.55,18.08-2.67c1.85-0.1,2.65,1.2,2.65,2.46c0,1.15,0.09,11.12,0.09,16.62c0,0.6,0.03,3.58,0.03,4.19" transform="matrix(1,0,0,1,996,-4)" class="stroke_order_diagram--existing_path"></path><path id="pathSk2v596cn2qve" kvg:type="㇐a" d="M21.45,27.64c5.99-0.59,12.67-1.39,19.88-2.01" transform="matrix(1,0,0,1,996,-4)" class="stroke_order_diagram--existing_path"></path><path id="pathSk2v596cn2qvf" kvg:type="㇐a" d="M21.77,37.98c4.73-0.6,13.48-1.48,18.81-1.81" transform="matrix(1,0,0,1,996,-4)" class="stroke_order_diagram--existing_path"></path><path id="pathSk2v596cn2qvg" kvg:type="㇑" d="M64.94,14.01c0.84,0.84,0.88,1.86,0.88,2.98c0,0.55-0.02,10.53-0.04,16.26c0,1.97,0.04,3.38,0.04,4.52" transform="matrix(1,0,0,1,996,-4)" class="stroke_order_diagram--existing_path"></path><path id="pathSk2v596cn2qvh" kvg:type="㇆a" d="M66.55,14.91c2.49-0.11,19.21-1.79,21.49-1.92c2.36-0.13,2.97,1.28,2.97,3.26c0,20.74,0,61.66,0,75.44c0,9.05-4.98,1.53-7.15-0.64" transform="matrix(1,0,0,1,996,-4)" class="stroke_order_diagram--existing_path"></path><path id="pathSk2v596cn2qvi" kvg:type="㇐a" d="M66.99,24.72c5.26-0.34,19.09-1.49,22.9-1.49" transform="matrix(1,0,0,1,996,-4)" class="stroke_order_diagram--existing_path"></path><path id="pathSk2v596cn2qvj" kvg:type="㇐a" d="M67.05,35.51c6.32-0.26,15.2-1.26,22.8-1.31" transform="matrix(1,0,0,1,996,-4)" class="stroke_order_diagram--existing_path"></path><path id="pathSk2v596cn2qvk" kvg:type="㇐" d="M26.88,47.26c1.12,0.62,2.38,0.76,4.54,0.46c5.04-0.68,8.44-1.16,16.09-2c1.33-0.15,2.73-0.31,4.05,0.06" transform="matrix(1,0,0,1,996,-4)" class="stroke_order_diagram--existing_path"></path><path id="pathSk2v596cn2qvl" kvg:type="㇑" d="M29.84,54.95c0.26,0.22,0.58,0.89,0.63,1.18c0.26,1.59,1.11,4.83,1.73,8.13c0.2,1.08,0.4,2.17,0.6,3.2" transform="matrix(1,0,0,1,996,-4)" class="stroke_order_diagram--existing_path"></path><path id="kvg:095d8-s11" kvg:type="㇕b" d="M30.83,55.81c3.31-0.36,10.76-1.45,14.67-1.81c2.48-0.23,3.66,0.14,2.96,2.81c-0.51,1.93-1.11,4.19-2.22,7.71" transform="matrix(1,0,0,1,996,-4)" class="stroke_order_diagram--current_path"></path><path id="pathSk2v596cn2qvn" kvg:type="㇕b" d="M30.83,55.81c3.31-0.36,10.76-1.45,14.67-1.81c2.48-0.23,3.66,0.14,2.96,2.81c-0.51,1.93-1.11,4.19-2.22,7.71" transform="matrix(1,0,0,1,996,-4)" class="stroke_order_diagram--current_path"></path><circle cx="30.83" cy="55.81" r="8" class="stroke_order_diagram--path_start" transform="matrix(1,0,0,1,996,-4)"></circle><line x1="1150" x2="1150" y1="1" y2="99" class="stroke_order_diagram--guide_line"></line><line x1="1199" x2="1199" y1="1" y2="99" class="stroke_order_diagram--bounding_box"></line><path id="pathSk2v596cn2qvq" kvg:type="㇑" d="M19.14,16.29c1.03,1.03,1.18,2.21,1.18,3.65c0,0.62,0.02,48.76,0.02,67.94c0,4.61,0,7.55-0.01,7.75" transform="matrix(1,0,0,1,1096,-4)" class="stroke_order_diagram--existing_path"></path><path id="pathSk2v596cn2qvr" kvg:type="㇕a" d="M21.27,17.58c2.44-0.1,15.86-2.55,18.08-2.67c1.85-0.1,2.65,1.2,2.65,2.46c0,1.15,0.09,11.12,0.09,16.62c0,0.6,0.03,3.58,0.03,4.19" transform="matrix(1,0,0,1,1096,-4)" class="stroke_order_diagram--existing_path"></path><path id="pathSk2v596cn2qvs" kvg:type="㇐a" d="M21.45,27.64c5.99-0.59,12.67-1.39,19.88-2.01" transform="matrix(1,0,0,1,1096,-4)" class="stroke_order_diagram--existing_path"></path><path id="pathSk2v596cn2qvt" kvg:type="㇐a" d="M21.77,37.98c4.73-0.6,13.48-1.48,18.81-1.81" transform="matrix(1,0,0,1,1096,-4)" class="stroke_order_diagram--existing_path"></path><path id="pathSk2v596cn2qvu" kvg:type="㇑" d="M64.94,14.01c0.84,0.84,0.88,1.86,0.88,2.98c0,0.55-0.02,10.53-0.04,16.26c0,1.97,0.04,3.38,0.04,4.52" transform="matrix(1,0,0,1,1096,-4)" class="stroke_order_diagram--existing_path"></path><path id="pathSk2v596cn2qvv" kvg:type="㇆a" d="M66.55,14.91c2.49-0.11,19.21-1.79,21.49-1.92c2.36-0.13,2.97,1.28,2.97,3.26c0,20.74,0,61.66,0,75.44c0,9.05-4.98,1.53-7.15-0.64" transform="matrix(1,0,0,1,1096,-4)" class="stroke_order_diagram--existing_path"></path><path id="pathSk2v596cn2qvw" kvg:type="㇐a" d="M66.99,24.72c5.26-0.34,19.09-1.49,22.9-1.49" transform="matrix(1,0,0,1,1096,-4)" class="stroke_order_diagram--existing_path"></path><path id="pathSk2v596cn2qvx" kvg:type="㇐a" d="M67.05,35.51c6.32-0.26,15.2-1.26,22.8-1.31" transform="matrix(1,0,0,1,1096,-4)" class="stroke_order_diagram--existing_path"></path><path id="pathSk2v596cn2qvy" kvg:type="㇐" d="M26.88,47.26c1.12,0.62,2.38,0.76,4.54,0.46c5.04-0.68,8.44-1.16,16.09-2c1.33-0.15,2.73-0.31,4.05,0.06" transform="matrix(1,0,0,1,1096,-4)" class="stroke_order_diagram--existing_path"></path><path id="pathSk2v596cn2qvz" kvg:type="㇑" d="M29.84,54.95c0.26,0.22,0.58,0.89,0.63,1.18c0.26,1.59,1.11,4.83,1.73,8.13c0.2,1.08,0.4,2.17,0.6,3.2" transform="matrix(1,0,0,1,1096,-4)" class="stroke_order_diagram--existing_path"></path><path id="pathSk2v596cn2qw0" kvg:type="㇕b" d="M30.83,55.81c3.31-0.36,10.76-1.45,14.67-1.81c2.48-0.23,3.66,0.14,2.96,2.81c-0.51,1.93-1.11,4.19-2.22,7.71" transform="matrix(1,0,0,1,1096,-4)" class="stroke_order_diagram--existing_path"></path><path id="kvg:095d8-s12" kvg:type="㇐b" d="M33.75,66.38c2.77-0.28,6.68-1.01,10.51-1.26c1.35-0.09,2.34-0.15,3.37-0.17" transform="matrix(1,0,0,1,1096,-4)" class="stroke_order_diagram--current_path"></path><path id="pathSk2v596cn2qw2" kvg:type="㇐b" d="M33.75,66.38c2.77-0.28,6.68-1.01,10.51-1.26c1.35-0.09,2.34-0.15,3.37-0.17" transform="matrix(1,0,0,1,1096,-4)" class="stroke_order_diagram--current_path"></path><circle cx="33.75" cy="66.38" r="8" class="stroke_order_diagram--path_start" transform="matrix(1,0,0,1,1096,-4)"></circle><line x1="1250" x2="1250" y1="1" y2="99" class="stroke_order_diagram--guide_line"></line><line x1="1299" x2="1299" y1="1" y2="99" class="stroke_order_diagram--bounding_box"></line><path id="pathSk2v596cn2qw5" kvg:type="㇑" d="M19.14,16.29c1.03,1.03,1.18,2.21,1.18,3.65c0,0.62,0.02,48.76,0.02,67.94c0,4.61,0,7.55-0.01,7.75" transform="matrix(1,0,0,1,1196,-4)" class="stroke_order_diagram--existing_path"></path><path id="pathSk2v596cn2qw6" kvg:type="㇕a" d="M21.27,17.58c2.44-0.1,15.86-2.55,18.08-2.67c1.85-0.1,2.65,1.2,2.65,2.46c0,1.15,0.09,11.12,0.09,16.62c0,0.6,0.03,3.58,0.03,4.19" transform="matrix(1,0,0,1,1196,-4)" class="stroke_order_diagram--existing_path"></path><path id="pathSk2v596cn2qw7" kvg:type="㇐a" d="M21.45,27.64c5.99-0.59,12.67-1.39,19.88-2.01" transform="matrix(1,0,0,1,1196,-4)" class="stroke_order_diagram--existing_path"></path><path id="pathSk2v596cn2qw8" kvg:type="㇐a" d="M21.77,37.98c4.73-0.6,13.48-1.48,18.81-1.81" transform="matrix(1,0,0,1,1196,-4)" class="stroke_order_diagram--existing_path"></path><path id="pathSk2v596cn2qw9" kvg:type="㇑" d="M64.94,14.01c0.84,0.84,0.88,1.86,0.88,2.98c0,0.55-0.02,10.53-0.04,16.26c0,1.97,0.04,3.38,0.04,4.52" transform="matrix(1,0,0,1,1196,-4)" class="stroke_order_diagram--existing_path"></path><path id="pathSk2v596cn2qwa" kvg:type="㇆a" d="M66.55,14.91c2.49-0.11,19.21-1.79,21.49-1.92c2.36-0.13,2.97,1.28,2.97,3.26c0,20.74,0,61.66,0,75.44c0,9.05-4.98,1.53-7.15-0.64" transform="matrix(1,0,0,1,1196,-4)" class="stroke_order_diagram--existing_path"></path><path id="pathSk2v596cn2qwb" kvg:type="㇐a" d="M66.99,24.72c5.26-0.34,19.09-1.49,22.9-1.49" transform="matrix(1,0,0,1,1196,-4)" class="stroke_order_diagram--existing_path"></path><path id="pathSk2v596cn2qwc" kvg:type="㇐a" d="M67.05,35.51c6.32-0.26,15.2-1.26,22.8-1.31" transform="matrix(1,0,0,1,1196,-4)" class="stroke_order_diagram--existing_path"></path><path id="pathSk2v596cn2qwd" kvg:type="㇐" d="M26.88,47.26c1.12,0.62,2.38,0.76,4.54,0.46c5.04-0.68,8.44-1.16,16.09-2c1.33-0.15,2.73-0.31,4.05,0.06" transform="matrix(1,0,0,1,1196,-4)" class="stroke_order_diagram--existing_path"></path><path id="pathSk2v596cn2qwe" kvg:type="㇑" d="M29.84,54.95c0.26,0.22,0.58,0.89,0.63,1.18c0.26,1.59,1.11,4.83,1.73,8.13c0.2,1.08,0.4,2.17,0.6,3.2" transform="matrix(1,0,0,1,1196,-4)" class="stroke_order_diagram--existing_path"></path><path id="pathSk2v596cn2qwf" kvg:type="㇕b" d="M30.83,55.81c3.31-0.36,10.76-1.45,14.67-1.81c2.48-0.23,3.66,0.14,2.96,2.81c-0.51,1.93-1.11,4.19-2.22,7.71" transform="matrix(1,0,0,1,1196,-4)" class="stroke_order_diagram--existing_path"></path><path id="pathSk2v596cn2qwg" kvg:type="㇐b" d="M33.75,66.38c2.77-0.28,6.68-1.01,10.51-1.26c1.35-0.09,2.34-0.15,3.37-0.17" transform="matrix(1,0,0,1,1196,-4)" class="stroke_order_diagram--existing_path"></path><path id="kvg:095d8-s13" kvg:type="㇔" d="M33.28,72.98c1.07,1.21,2.77,5.54,3.04,7.43" transform="matrix(1,0,0,1,1196,-4)" class="stroke_order_diagram--current_path"></path><path id="pathSk2v596cn2qwi" kvg:type="㇔" d="M33.28,72.98c1.07,1.21,2.77,5.54,3.04,7.43" transform="matrix(1,0,0,1,1196,-4)" class="stroke_order_diagram--current_path"></path><circle cx="33.28" cy="72.98" r="8" class="stroke_order_diagram--path_start" transform="matrix(1,0,0,1,1196,-4)"></circle><line x1="1350" x2="1350" y1="1" y2="99" class="stroke_order_diagram--guide_line"></line><line x1="1399" x2="1399" y1="1" y2="99" class="stroke_order_diagram--bounding_box"></line><path id="pathSk2v596cn2qwl" kvg:type="㇑" d="M19.14,16.29c1.03,1.03,1.18,2.21,1.18,3.65c0,0.62,0.02,48.76,0.02,67.94c0,4.61,0,7.55-0.01,7.75" transform="matrix(1,0,0,1,1296,-4)" class="stroke_order_diagram--existing_path"></path><path id="pathSk2v596cn2qwm" kvg:type="㇕a" d="M21.27,17.58c2.44-0.1,15.86-2.55,18.08-2.67c1.85-0.1,2.65,1.2,2.65,2.46c0,1.15,0.09,11.12,0.09,16.62c0,0.6,0.03,3.58,0.03,4.19" transform="matrix(1,0,0,1,1296,-4)" class="stroke_order_diagram--existing_path"></path><path id="pathSk2v596cn2qwn" kvg:type="㇐a" d="M21.45,27.64c5.99-0.59,12.67-1.39,19.88-2.01" transform="matrix(1,0,0,1,1296,-4)" class="stroke_order_diagram--existing_path"></path><path id="pathSk2v596cn2qwo" kvg:type="㇐a" d="M21.77,37.98c4.73-0.6,13.48-1.48,18.81-1.81" transform="matrix(1,0,0,1,1296,-4)" class="stroke_order_diagram--existing_path"></path><path id="pathSk2v596cn2qwp" kvg:type="㇑" d="M64.94,14.01c0.84,0.84,0.88,1.86,0.88,2.98c0,0.55-0.02,10.53-0.04,16.26c0,1.97,0.04,3.38,0.04,4.52" transform="matrix(1,0,0,1,1296,-4)" class="stroke_order_diagram--existing_path"></path><path id="pathSk2v596cn2qwq" kvg:type="㇆a" d="M66.55,14.91c2.49-0.11,19.21-1.79,21.49-1.92c2.36-0.13,2.97,1.28,2.97,3.26c0,20.74,0,61.66,0,75.44c0,9.05-4.98,1.53-7.15-0.64" transform="matrix(1,0,0,1,1296,-4)" class="stroke_order_diagram--existing_path"></path><path id="pathSk2v596cn2qwr" kvg:type="㇐a" d="M66.99,24.72c5.26-0.34,19.09-1.49,22.9-1.49" transform="matrix(1,0,0,1,1296,-4)" class="stroke_order_diagram--existing_path"></path><path id="pathSk2v596cn2qws" kvg:type="㇐a" d="M67.05,35.51c6.32-0.26,15.2-1.26,22.8-1.31" transform="matrix(1,0,0,1,1296,-4)" class="stroke_order_diagram--existing_path"></path><path id="pathSk2v596cn2qwt" kvg:type="㇐" d="M26.88,47.26c1.12,0.62,2.38,0.76,4.54,0.46c5.04-0.68,8.44-1.16,16.09-2c1.33-0.15,2.73-0.31,4.05,0.06" transform="matrix(1,0,0,1,1296,-4)" class="stroke_order_diagram--existing_path"></path><path id="pathSk2v596cn2qwu" kvg:type="㇑" d="M29.84,54.95c0.26,0.22,0.58,0.89,0.63,1.18c0.26,1.59,1.11,4.83,1.73,8.13c0.2,1.08,0.4,2.17,0.6,3.2" transform="matrix(1,0,0,1,1296,-4)" class="stroke_order_diagram--existing_path"></path><path id="pathSk2v596cn2qwv" kvg:type="㇕b" d="M30.83,55.81c3.31-0.36,10.76-1.45,14.67-1.81c2.48-0.23,3.66,0.14,2.96,2.81c-0.51,1.93-1.11,4.19-2.22,7.71" transform="matrix(1,0,0,1,1296,-4)" class="stroke_order_diagram--existing_path"></path><path id="pathSk2v596cn2qww" kvg:type="㇐b" d="M33.75,66.38c2.77-0.28,6.68-1.01,10.51-1.26c1.35-0.09,2.34-0.15,3.37-0.17" transform="matrix(1,0,0,1,1296,-4)" class="stroke_order_diagram--existing_path"></path><path id="pathSk2v596cn2qwx" kvg:type="㇔" d="M33.28,72.98c1.07,1.21,2.77,5.54,3.04,7.43" transform="matrix(1,0,0,1,1296,-4)" class="stroke_order_diagram--existing_path"></path><path id="kvg:095d8-s14" kvg:type="㇒" d="M46.91,70.76c0.01,0.24,0.06,0.63-0.02,0.97c-0.64,2.89-1.64,5.64-3.52,9.27" transform="matrix(1,0,0,1,1296,-4)" class="stroke_order_diagram--current_path"></path><path id="pathSk2v596cn2qwz" kvg:type="㇒" d="M46.91,70.76c0.01,0.24,0.06,0.63-0.02,0.97c-0.64,2.89-1.64,5.64-3.52,9.27" transform="matrix(1,0,0,1,1296,-4)" class="stroke_order_diagram--current_path"></path><circle cx="46.91" cy="70.76" r="8" class="stroke_order_diagram--path_start" transform="matrix(1,0,0,1,1296,-4)"></circle><line x1="1450" x2="1450" y1="1" y2="99" class="stroke_order_diagram--guide_line"></line><line x1="1499" x2="1499" y1="1" y2="99" class="stroke_order_diagram--bounding_box"></line><path id="pathSk2v596cn2qx2" kvg:type="㇑" d="M19.14,16.29c1.03,1.03,1.18,2.21,1.18,3.65c0,0.62,0.02,48.76,0.02,67.94c0,4.61,0,7.55-0.01,7.75" transform="matrix(1,0,0,1,1396,-4)" class="stroke_order_diagram--existing_path"></path><path id="pathSk2v596cn2qx3" kvg:type="㇕a" d="M21.27,17.58c2.44-0.1,15.86-2.55,18.08-2.67c1.85-0.1,2.65,1.2,2.65,2.46c0,1.15,0.09,11.12,0.09,16.62c0,0.6,0.03,3.58,0.03,4.19" transform="matrix(1,0,0,1,1396,-4)" class="stroke_order_diagram--existing_path"></path><path id="pathSk2v596cn2qx4" kvg:type="㇐a" d="M21.45,27.64c5.99-0.59,12.67-1.39,19.88-2.01" transform="matrix(1,0,0,1,1396,-4)" class="stroke_order_diagram--existing_path"></path><path id="pathSk2v596cn2qx5" kvg:type="㇐a" d="M21.77,37.98c4.73-0.6,13.48-1.48,18.81-1.81" transform="matrix(1,0,0,1,1396,-4)" class="stroke_order_diagram--existing_path"></path><path id="pathSk2v596cn2qx6" kvg:type="㇑" d="M64.94,14.01c0.84,0.84,0.88,1.86,0.88,2.98c0,0.55-0.02,10.53-0.04,16.26c0,1.97,0.04,3.38,0.04,4.52" transform="matrix(1,0,0,1,1396,-4)" class="stroke_order_diagram--existing_path"></path><path id="pathSk2v596cn2qx7" kvg:type="㇆a" d="M66.55,14.91c2.49-0.11,19.21-1.79,21.49-1.92c2.36-0.13,2.97,1.28,2.97,3.26c0,20.74,0,61.66,0,75.44c0,9.05-4.98,1.53-7.15-0.64" transform="matrix(1,0,0,1,1396,-4)" class="stroke_order_diagram--existing_path"></path><path id="pathSk2v596cn2qx8" kvg:type="㇐a" d="M66.99,24.72c5.26-0.34,19.09-1.49,22.9-1.49" transform="matrix(1,0,0,1,1396,-4)" class="stroke_order_diagram--existing_path"></path><path id="pathSk2v596cn2qx9" kvg:type="㇐a" d="M67.05,35.51c6.32-0.26,15.2-1.26,22.8-1.31" transform="matrix(1,0,0,1,1396,-4)" class="stroke_order_diagram--existing_path"></path><path id="pathSk2v596cn2qxa" kvg:type="㇐" d="M26.88,47.26c1.12,0.62,2.38,0.76,4.54,0.46c5.04-0.68,8.44-1.16,16.09-2c1.33-0.15,2.73-0.31,4.05,0.06" transform="matrix(1,0,0,1,1396,-4)" class="stroke_order_diagram--existing_path"></path><path id="pathSk2v596cn2qxb" kvg:type="㇑" d="M29.84,54.95c0.26,0.22,0.58,0.89,0.63,1.18c0.26,1.59,1.11,4.83,1.73,8.13c0.2,1.08,0.4,2.17,0.6,3.2" transform="matrix(1,0,0,1,1396,-4)" class="stroke_order_diagram--existing_path"></path><path id="pathSk2v596cn2qxc" kvg:type="㇕b" d="M30.83,55.81c3.31-0.36,10.76-1.45,14.67-1.81c2.48-0.23,3.66,0.14,2.96,2.81c-0.51,1.93-1.11,4.19-2.22,7.71" transform="matrix(1,0,0,1,1396,-4)" class="stroke_order_diagram--existing_path"></path><path id="pathSk2v596cn2qxd" kvg:type="㇐b" d="M33.75,66.38c2.77-0.28,6.68-1.01,10.51-1.26c1.35-0.09,2.34-0.15,3.37-0.17" transform="matrix(1,0,0,1,1396,-4)" class="stroke_order_diagram--existing_path"></path><path id="pathSk2v596cn2qxe" kvg:type="㇔" d="M33.28,72.98c1.07,1.21,2.77,5.54,3.04,7.43" transform="matrix(1,0,0,1,1396,-4)" class="stroke_order_diagram--existing_path"></path><path id="pathSk2v596cn2qxf" kvg:type="㇒" d="M46.91,70.76c0.01,0.24,0.06,0.63-0.02,0.97c-0.64,2.89-1.64,5.64-3.52,9.27" transform="matrix(1,0,0,1,1396,-4)" class="stroke_order_diagram--existing_path"></path><path id="kvg:095d8-s15" kvg:type="㇀/㇐" d="M29.47,86.2c0.78,0.8,1.92,1.09,3.14,0.64c6.27-2.34,10.27-3.96,17.31-6.54" transform="matrix(1,0,0,1,1396,-4)" class="stroke_order_diagram--current_path"></path><path id="pathSk2v596cn2qxh" kvg:type="㇀/㇐" d="M29.47,86.2c0.78,0.8,1.92,1.09,3.14,0.64c6.27-2.34,10.27-3.96,17.31-6.54" transform="matrix(1,0,0,1,1396,-4)" class="stroke_order_diagram--current_path"></path><circle cx="29.47" cy="86.2" r="8" class="stroke_order_diagram--path_start" transform="matrix(1,0,0,1,1396,-4)"></circle><line x1="1550" x2="1550" y1="1" y2="99" class="stroke_order_diagram--guide_line"></line><line x1="1599" x2="1599" y1="1" y2="99" class="stroke_order_diagram--bounding_box"></line><path id="pathSk2v596cn2qxk" kvg:type="㇑" d="M19.14,16.29c1.03,1.03,1.18,2.21,1.18,3.65c0,0.62,0.02,48.76,0.02,67.94c0,4.61,0,7.55-0.01,7.75" transform="matrix(1,0,0,1,1496,-4)" class="stroke_order_diagram--existing_path"></path><path id="pathSk2v596cn2qxl" kvg:type="㇕a" d="M21.27,17.58c2.44-0.1,15.86-2.55,18.08-2.67c1.85-0.1,2.65,1.2,2.65,2.46c0,1.15,0.09,11.12,0.09,16.62c0,0.6,0.03,3.58,0.03,4.19" transform="matrix(1,0,0,1,1496,-4)" class="stroke_order_diagram--existing_path"></path><path id="pathSk2v596cn2qxm" kvg:type="㇐a" d="M21.45,27.64c5.99-0.59,12.67-1.39,19.88-2.01" transform="matrix(1,0,0,1,1496,-4)" class="stroke_order_diagram--existing_path"></path><path id="pathSk2v596cn2qxn" kvg:type="㇐a" d="M21.77,37.98c4.73-0.6,13.48-1.48,18.81-1.81" transform="matrix(1,0,0,1,1496,-4)" class="stroke_order_diagram--existing_path"></path><path id="pathSk2v596cn2qxo" kvg:type="㇑" d="M64.94,14.01c0.84,0.84,0.88,1.86,0.88,2.98c0,0.55-0.02,10.53-0.04,16.26c0,1.97,0.04,3.38,0.04,4.52" transform="matrix(1,0,0,1,1496,-4)" class="stroke_order_diagram--existing_path"></path><path id="pathSk2v596cn2qxp" kvg:type="㇆a" d="M66.55,14.91c2.49-0.11,19.21-1.79,21.49-1.92c2.36-0.13,2.97,1.28,2.97,3.26c0,20.74,0,61.66,0,75.44c0,9.05-4.98,1.53-7.15-0.64" transform="matrix(1,0,0,1,1496,-4)" class="stroke_order_diagram--existing_path"></path><path id="pathSk2v596cn2qxq" kvg:type="㇐a" d="M66.99,24.72c5.26-0.34,19.09-1.49,22.9-1.49" transform="matrix(1,0,0,1,1496,-4)" class="stroke_order_diagram--existing_path"></path><path id="pathSk2v596cn2qxr" kvg:type="㇐a" d="M67.05,35.51c6.32-0.26,15.2-1.26,22.8-1.31" transform="matrix(1,0,0,1,1496,-4)" class="stroke_order_diagram--existing_path"></path><path id="pathSk2v596cn2qxs" kvg:type="㇐" d="M26.88,47.26c1.12,0.62,2.38,0.76,4.54,0.46c5.04-0.68,8.44-1.16,16.09-2c1.33-0.15,2.73-0.31,4.05,0.06" transform="matrix(1,0,0,1,1496,-4)" class="stroke_order_diagram--existing_path"></path><path id="pathSk2v596cn2qxt" kvg:type="㇑" d="M29.84,54.95c0.26,0.22,0.58,0.89,0.63,1.18c0.26,1.59,1.11,4.83,1.73,8.13c0.2,1.08,0.4,2.17,0.6,3.2" transform="matrix(1,0,0,1,1496,-4)" class="stroke_order_diagram--existing_path"></path><path id="pathSk2v596cn2qxu" kvg:type="㇕b" d="M30.83,55.81c3.31-0.36,10.76-1.45,14.67-1.81c2.48-0.23,3.66,0.14,2.96,2.81c-0.51,1.93-1.11,4.19-2.22,7.71" transform="matrix(1,0,0,1,1496,-4)" class="stroke_order_diagram--existing_path"></path><path id="pathSk2v596cn2qxv" kvg:type="㇐b" d="M33.75,66.38c2.77-0.28,6.68-1.01,10.51-1.26c1.35-0.09,2.34-0.15,3.37-0.17" transform="matrix(1,0,0,1,1496,-4)" class="stroke_order_diagram--existing_path"></path><path id="pathSk2v596cn2qxw" kvg:type="㇔" d="M33.28,72.98c1.07,1.21,2.77,5.54,3.04,7.43" transform="matrix(1,0,0,1,1496,-4)" class="stroke_order_diagram--existing_path"></path><path id="pathSk2v596cn2qxx" kvg:type="㇒" d="M46.91,70.76c0.01,0.24,0.06,0.63-0.02,0.97c-0.64,2.89-1.64,5.64-3.52,9.27" transform="matrix(1,0,0,1,1496,-4)" class="stroke_order_diagram--existing_path"></path><path id="pathSk2v596cn2qxy" kvg:type="㇀/㇐" d="M29.47,86.2c0.78,0.8,1.92,1.09,3.14,0.64c6.27-2.34,10.27-3.96,17.31-6.54" transform="matrix(1,0,0,1,1496,-4)" class="stroke_order_diagram--existing_path"></path><path id="kvg:095d8-s16" kvg:type="㇐" d="M56.39,54.07c1.49,0.3,3.47,0.27,5.01,0.04c5.41-0.82,10.7-1.89,16.73-2.37c1.58-0.12,2.97-0.31,4.49,0.15" transform="matrix(1,0,0,1,1496,-4)" class="stroke_order_diagram--current_path"></path><path id="pathSk2v596cn2qy0" kvg:type="㇐" d="M56.39,54.07c1.49,0.3,3.47,0.27,5.01,0.04c5.41-0.82,10.7-1.89,16.73-2.37c1.58-0.12,2.97-0.31,4.49,0.15" transform="matrix(1,0,0,1,1496,-4)" class="stroke_order_diagram--current_path"></path><circle cx="56.39" cy="54.07" r="8" class="stroke_order_diagram--path_start" transform="matrix(1,0,0,1,1496,-4)"></circle><line x1="1650" x2="1650" y1="1" y2="99" class="stroke_order_diagram--guide_line"></line><line x1="1699" x2="1699" y1="1" y2="99" class="stroke_order_diagram--bounding_box"></line><path id="pathSk2v596cn2qy3" kvg:type="㇑" d="M19.14,16.29c1.03,1.03,1.18,2.21,1.18,3.65c0,0.62,0.02,48.76,0.02,67.94c0,4.61,0,7.55-0.01,7.75" transform="matrix(1,0,0,1,1596,-4)" class="stroke_order_diagram--existing_path"></path><path id="pathSk2v596cn2qy4" kvg:type="㇕a" d="M21.27,17.58c2.44-0.1,15.86-2.55,18.08-2.67c1.85-0.1,2.65,1.2,2.65,2.46c0,1.15,0.09,11.12,0.09,16.62c0,0.6,0.03,3.58,0.03,4.19" transform="matrix(1,0,0,1,1596,-4)" class="stroke_order_diagram--existing_path"></path><path id="pathSk2v596cn2qy5" kvg:type="㇐a" d="M21.45,27.64c5.99-0.59,12.67-1.39,19.88-2.01" transform="matrix(1,0,0,1,1596,-4)" class="stroke_order_diagram--existing_path"></path><path id="pathSk2v596cn2qy6" kvg:type="㇐a" d="M21.77,37.98c4.73-0.6,13.48-1.48,18.81-1.81" transform="matrix(1,0,0,1,1596,-4)" class="stroke_order_diagram--existing_path"></path><path id="pathSk2v596cn2qy7" kvg:type="㇑" d="M64.94,14.01c0.84,0.84,0.88,1.86,0.88,2.98c0,0.55-0.02,10.53-0.04,16.26c0,1.97,0.04,3.38,0.04,4.52" transform="matrix(1,0,0,1,1596,-4)" class="stroke_order_diagram--existing_path"></path><path id="pathSk2v596cn2qy8" kvg:type="㇆a" d="M66.55,14.91c2.49-0.11,19.21-1.79,21.49-1.92c2.36-0.13,2.97,1.28,2.97,3.26c0,20.74,0,61.66,0,75.44c0,9.05-4.98,1.53-7.15-0.64" transform="matrix(1,0,0,1,1596,-4)" class="stroke_order_diagram--existing_path"></path><path id="pathSk2v596cn2qy9" kvg:type="㇐a" d="M66.99,24.72c5.26-0.34,19.09-1.49,22.9-1.49" transform="matrix(1,0,0,1,1596,-4)" class="stroke_order_diagram--existing_path"></path><path id="pathSk2v596cn2qya" kvg:type="㇐a" d="M67.05,35.51c6.32-0.26,15.2-1.26,22.8-1.31" transform="matrix(1,0,0,1,1596,-4)" class="stroke_order_diagram--existing_path"></path><path id="pathSk2v596cn2qyb" kvg:type="㇐" d="M26.88,47.26c1.12,0.62,2.38,0.76,4.54,0.46c5.04-0.68,8.44-1.16,16.09-2c1.33-0.15,2.73-0.31,4.05,0.06" transform="matrix(1,0,0,1,1596,-4)" class="stroke_order_diagram--existing_path"></path><path id="pathSk2v596cn2qyc" kvg:type="㇑" d="M29.84,54.95c0.26,0.22,0.58,0.89,0.63,1.18c0.26,1.59,1.11,4.83,1.73,8.13c0.2,1.08,0.4,2.17,0.6,3.2" transform="matrix(1,0,0,1,1596,-4)" class="stroke_order_diagram--existing_path"></path><path id="pathSk2v596cn2qyd" kvg:type="㇕b" d="M30.83,55.81c3.31-0.36,10.76-1.45,14.67-1.81c2.48-0.23,3.66,0.14,2.96,2.81c-0.51,1.93-1.11,4.19-2.22,7.71" transform="matrix(1,0,0,1,1596,-4)" class="stroke_order_diagram--existing_path"></path><path id="pathSk2v596cn2qye" kvg:type="㇐b" d="M33.75,66.38c2.77-0.28,6.68-1.01,10.51-1.26c1.35-0.09,2.34-0.15,3.37-0.17" transform="matrix(1,0,0,1,1596,-4)" class="stroke_order_diagram--existing_path"></path><path id="pathSk2v596cn2qyf" kvg:type="㇔" d="M33.28,72.98c1.07,1.21,2.77,5.54,3.04,7.43" transform="matrix(1,0,0,1,1596,-4)" class="stroke_order_diagram--existing_path"></path><path id="pathSk2v596cn2qyg" kvg:type="㇒" d="M46.91,70.76c0.01,0.24,0.06,0.63-0.02,0.97c-0.64,2.89-1.64,5.64-3.52,9.27" transform="matrix(1,0,0,1,1596,-4)" class="stroke_order_diagram--existing_path"></path><path id="pathSk2v596cn2qyh" kvg:type="㇀/㇐" d="M29.47,86.2c0.78,0.8,1.92,1.09,3.14,0.64c6.27-2.34,10.27-3.96,17.31-6.54" transform="matrix(1,0,0,1,1596,-4)" class="stroke_order_diagram--existing_path"></path><path id="pathSk2v596cn2qyi" kvg:type="㇐" d="M56.39,54.07c1.49,0.3,3.47,0.27,5.01,0.04c5.41-0.82,10.7-1.89,16.73-2.37c1.58-0.12,2.97-0.31,4.49,0.15" transform="matrix(1,0,0,1,1596,-4)" class="stroke_order_diagram--existing_path"></path><path id="kvg:095d8-s17" kvg:type="㇚" d="M72.27,41.21c1.01,1.01,1.27,2.17,1.27,3.63c0,12.5-0.04,36-0.04,39.04c0,7.37-4.6,1.09-5.95,0.15" transform="matrix(1,0,0,1,1596,-4)" class="stroke_order_diagram--current_path"></path><path id="pathSk2v596cn2qyk" kvg:type="㇚" d="M72.27,41.21c1.01,1.01,1.27,2.17,1.27,3.63c0,12.5-0.04,36-0.04,39.04c0,7.37-4.6,1.09-5.95,0.15" transform="matrix(1,0,0,1,1596,-4)" class="stroke_order_diagram--current_path"></path><circle cx="72.27" cy="41.21" r="8" class="stroke_order_diagram--path_start" transform="matrix(1,0,0,1,1596,-4)"></circle><line x1="1750" x2="1750" y1="1" y2="99" class="stroke_order_diagram--guide_line"></line><line x1="1799" x2="1799" y1="1" y2="99" class="stroke_order_diagram--bounding_box"></line><path id="pathSk2v596cn2qyn" kvg:type="㇑" d="M19.14,16.29c1.03,1.03,1.18,2.21,1.18,3.65c0,0.62,0.02,48.76,0.02,67.94c0,4.61,0,7.55-0.01,7.75" transform="matrix(1,0,0,1,1696,-4)" class="stroke_order_diagram--existing_path"></path><path id="pathSk2v596cn2qyo" kvg:type="㇕a" d="M21.27,17.58c2.44-0.1,15.86-2.55,18.08-2.67c1.85-0.1,2.65,1.2,2.65,2.46c0,1.15,0.09,11.12,0.09,16.62c0,0.6,0.03,3.58,0.03,4.19" transform="matrix(1,0,0,1,1696,-4)" class="stroke_order_diagram--existing_path"></path><path id="pathSk2v596cn2qyp" kvg:type="㇐a" d="M21.45,27.64c5.99-0.59,12.67-1.39,19.88-2.01" transform="matrix(1,0,0,1,1696,-4)" class="stroke_order_diagram--existing_path"></path><path id="pathSk2v596cn2qyq" kvg:type="㇐a" d="M21.77,37.98c4.73-0.6,13.48-1.48,18.81-1.81" transform="matrix(1,0,0,1,1696,-4)" class="stroke_order_diagram--existing_path"></path><path id="pathSk2v596cn2qyr" kvg:type="㇑" d="M64.94,14.01c0.84,0.84,0.88,1.86,0.88,2.98c0,0.55-0.02,10.53-0.04,16.26c0,1.97,0.04,3.38,0.04,4.52" transform="matrix(1,0,0,1,1696,-4)" class="stroke_order_diagram--existing_path"></path><path id="pathSk2v596cn2qys" kvg:type="㇆a" d="M66.55,14.91c2.49-0.11,19.21-1.79,21.49-1.92c2.36-0.13,2.97,1.28,2.97,3.26c0,20.74,0,61.66,0,75.44c0,9.05-4.98,1.53-7.15-0.64" transform="matrix(1,0,0,1,1696,-4)" class="stroke_order_diagram--existing_path"></path><path id="pathSk2v596cn2qyt" kvg:type="㇐a" d="M66.99,24.72c5.26-0.34,19.09-1.49,22.9-1.49" transform="matrix(1,0,0,1,1696,-4)" class="stroke_order_diagram--existing_path"></path><path id="pathSk2v596cn2qyu" kvg:type="㇐a" d="M67.05,35.51c6.32-0.26,15.2-1.26,22.8-1.31" transform="matrix(1,0,0,1,1696,-4)" class="stroke_order_diagram--existing_path"></path><path id="pathSk2v596cn2qyv" kvg:type="㇐" d="M26.88,47.26c1.12,0.62,2.38,0.76,4.54,0.46c5.04-0.68,8.44-1.16,16.09-2c1.33-0.15,2.73-0.31,4.05,0.06" transform="matrix(1,0,0,1,1696,-4)" class="stroke_order_diagram--existing_path"></path><path id="pathSk2v596cn2qyw" kvg:type="㇑" d="M29.84,54.95c0.26,0.22,0.58,0.89,0.63,1.18c0.26,1.59,1.11,4.83,1.73,8.13c0.2,1.08,0.4,2.17,0.6,3.2" transform="matrix(1,0,0,1,1696,-4)" class="stroke_order_diagram--existing_path"></path><path id="pathSk2v596cn2qyx" kvg:type="㇕b" d="M30.83,55.81c3.31-0.36,10.76-1.45,14.67-1.81c2.48-0.23,3.66,0.14,2.96,2.81c-0.51,1.93-1.11,4.19-2.22,7.71" transform="matrix(1,0,0,1,1696,-4)" class="stroke_order_diagram--existing_path"></path><path id="pathSk2v596cn2qyy" kvg:type="㇐b" d="M33.75,66.38c2.77-0.28,6.68-1.01,10.51-1.26c1.35-0.09,2.34-0.15,3.37-0.17" transform="matrix(1,0,0,1,1696,-4)" class="stroke_order_diagram--existing_path"></path><path id="pathSk2v596cn2qyz" kvg:type="㇔" d="M33.28,72.98c1.07,1.21,2.77,5.54,3.04,7.43" transform="matrix(1,0,0,1,1696,-4)" class="stroke_order_diagram--existing_path"></path><path id="pathSk2v596cn2qz0" kvg:type="㇒" d="M46.91,70.76c0.01,0.24,0.06,0.63-0.02,0.97c-0.64,2.89-1.64,5.64-3.52,9.27" transform="matrix(1,0,0,1,1696,-4)" class="stroke_order_diagram--existing_path"></path><path id="pathSk2v596cn2qz1" kvg:type="㇀/㇐" d="M29.47,86.2c0.78,0.8,1.92,1.09,3.14,0.64c6.27-2.34,10.27-3.96,17.31-6.54" transform="matrix(1,0,0,1,1696,-4)" class="stroke_order_diagram--existing_path"></path><path id="pathSk2v596cn2qz2" kvg:type="㇐" d="M56.39,54.07c1.49,0.3,3.47,0.27,5.01,0.04c5.41-0.82,10.7-1.89,16.73-2.37c1.58-0.12,2.97-0.31,4.49,0.15" transform="matrix(1,0,0,1,1696,-4)" class="stroke_order_diagram--existing_path"></path><path id="pathSk2v596cn2qz3" kvg:type="㇚" d="M72.27,41.21c1.01,1.01,1.27,2.17,1.27,3.63c0,12.5-0.04,36-0.04,39.04c0,7.37-4.6,1.09-5.95,0.15" transform="matrix(1,0,0,1,1696,-4)" class="stroke_order_diagram--existing_path"></path><path id="kvg:095d8-s18" kvg:type="㇔" d="M58.88,64.75c2.1,1.63,5.42,6.69,5.94,9.22" transform="matrix(1,0,0,1,1696,-4)" class="stroke_order_diagram--current_path"></path><path id="pathSk2v596cn2qz5" kvg:type="㇔" d="M58.88,64.75c2.1,1.63,5.42,6.69,5.94,9.22" transform="matrix(1,0,0,1,1696,-4)" class="stroke_order_diagram--current_path"></path><circle cx="58.88" cy="64.75" r="8" class="stroke_order_diagram--path_start" transform="matrix(1,0,0,1,1696,-4)"></circle></svg>