<svg style="width: 800px; height: 100px;" viewbox="0 0 800 100"><style>
.stroke_order_diagram--outer_container {
  width: 100%;
  overflow-x: auto;
  overflow-y: hidden;
}

.stroke_order_diagram--guide_line {
  fill: none;
  stroke: #ddd;
  stroke-width: 3;
  stroke-linecap: square;
  stroke-linejoin: square;
  stroke-dasharray:8, 8;
}

.stroke_order_diagram--bounding_box {
  fill: none;
  stroke: #ddd;
  stroke-width: 4;
  stroke-linecap: square;
  stroke-linejoin: square;
}

.stroke_order_diagram--current_path {
  fill: none;
  stroke: #000;
  stroke-width: 6;
  stroke-linecap: round;
  stroke-linejoin: round;
}

.stroke_order_diagram--existing_path {
  fill: none;
  stroke: #aaa;
  stroke-width: 6;
  stroke-linecap: round;
  stroke-linejoin:round;
}

.stroke_order_diagram--path_start {
  fill: rgba(255, 0, 0, 0.7);
  stroke:none
}</style><desc>Created with Snap</desc><defs></defs><line x1="1" x2="799" y1="1" y2="1" class="stroke_order_diagram--bounding_box"></line><line x1="1" x2="1" y1="1" y2="99" class="stroke_order_diagram--bounding_box"></line><line x1="1" x2="799" y1="99" y2="99" class="stroke_order_diagram--bounding_box"></line><line x1="0" x2="800" y1="50" y2="50" class="stroke_order_diagram--guide_line"></line><line x1="50" x2="50" y1="1" y2="99" class="stroke_order_diagram--guide_line"></line><line x1="99" x2="99" y1="1" y2="99" class="stroke_order_diagram--bounding_box"></line><path id="kvg:0963f-s1" kvg:type="㇇" d="M16.92,20.42c1.58,0.83,3.41,0.54,4.96,0.18c4.25-0.97,8.82-2.69,11.04-3.43c3-1,4.7,0.6,3.67,3.08C35.12,23.75,31.5,33,29,38" transform="matrix(1,0,0,1,-4,-4)" class="stroke_order_diagram--current_path"></path><path id="pathSk2v596cn4d5q" kvg:type="㇇" d="M16.92,20.42c1.58,0.83,3.41,0.54,4.96,0.18c4.25-0.97,8.82-2.69,11.04-3.43c3-1,4.7,0.6,3.67,3.08C35.12,23.75,31.5,33,29,38" transform="matrix(1,0,0,1,-4,-4)" class="stroke_order_diagram--current_path"></path><circle cx="16.92" cy="20.42" r="8" class="stroke_order_diagram--path_start" transform="matrix(1,0,0,1,-4,-4)"></circle><line x1="150" x2="150" y1="1" y2="99" class="stroke_order_diagram--guide_line"></line><line x1="199" x2="199" y1="1" y2="99" class="stroke_order_diagram--bounding_box"></line><path id="pathSk2v596cn4d5t" kvg:type="㇇" d="M16.92,20.42c1.58,0.83,3.41,0.54,4.96,0.18c4.25-0.97,8.82-2.69,11.04-3.43c3-1,4.7,0.6,3.67,3.08C35.12,23.75,31.5,33,29,38" transform="matrix(1,0,0,1,96,-4)" class="stroke_order_diagram--existing_path"></path><path id="kvg:0963f-s2" kvg:type="㇕va" d="M29,38.5c10.11,7.7,9.62,29.62,1.01,25.29" transform="matrix(1,0,0,1,96,-4)" class="stroke_order_diagram--current_path"></path><path id="pathSk2v596cn4d5v" kvg:type="㇕va" d="M29,38.5c10.11,7.7,9.62,29.62,1.01,25.29" transform="matrix(1,0,0,1,96,-4)" class="stroke_order_diagram--current_path"></path><circle cx="29" cy="38.5" r="8" class="stroke_order_diagram--path_start" transform="matrix(1,0,0,1,96,-4)"></circle><line x1="250" x2="250" y1="1" y2="99" class="stroke_order_diagram--guide_line"></line><line x1="299" x2="299" y1="1" y2="99" class="stroke_order_diagram--bounding_box"></line><path id="pathSk2v596cn4d5y" kvg:type="㇇" d="M16.92,20.42c1.58,0.83,3.41,0.54,4.96,0.18c4.25-0.97,8.82-2.69,11.04-3.43c3-1,4.7,0.6,3.67,3.08C35.12,23.75,31.5,33,29,38" transform="matrix(1,0,0,1,196,-4)" class="stroke_order_diagram--existing_path"></path><path id="pathSk2v596cn4d5z" kvg:type="㇕va" d="M29,38.5c10.11,7.7,9.62,29.62,1.01,25.29" transform="matrix(1,0,0,1,196,-4)" class="stroke_order_diagram--existing_path"></path><path id="kvg:0963f-s3" kvg:type="㇑" d="M18.87,21.5c1.06,1.06,1.21,2.25,1.21,3.75c0,3.66,0.02,44.29,0.03,61.38c0,2.75,0,4.88,0,6.12" transform="matrix(1,0,0,1,196,-4)" class="stroke_order_diagram--current_path"></path><path id="pathSk2v596cn4d61" kvg:type="㇑" d="M18.87,21.5c1.06,1.06,1.21,2.25,1.21,3.75c0,3.66,0.02,44.29,0.03,61.38c0,2.75,0,4.88,0,6.12" transform="matrix(1,0,0,1,196,-4)" class="stroke_order_diagram--current_path"></path><circle cx="18.87" cy="21.5" r="8" class="stroke_order_diagram--path_start" transform="matrix(1,0,0,1,196,-4)"></circle><line x1="350" x2="350" y1="1" y2="99" class="stroke_order_diagram--guide_line"></line><line x1="399" x2="399" y1="1" y2="99" class="stroke_order_diagram--bounding_box"></line><path id="pathSk2v596cn4d64" kvg:type="㇇" d="M16.92,20.42c1.58,0.83,3.41,0.54,4.96,0.18c4.25-0.97,8.82-2.69,11.04-3.43c3-1,4.7,0.6,3.67,3.08C35.12,23.75,31.5,33,29,38" transform="matrix(1,0,0,1,296,-4)" class="stroke_order_diagram--existing_path"></path><path id="pathSk2v596cn4d65" kvg:type="㇕va" d="M29,38.5c10.11,7.7,9.62,29.62,1.01,25.29" transform="matrix(1,0,0,1,296,-4)" class="stroke_order_diagram--existing_path"></path><path id="pathSk2v596cn4d66" kvg:type="㇑" d="M18.87,21.5c1.06,1.06,1.21,2.25,1.21,3.75c0,3.66,0.02,44.29,0.03,61.38c0,2.75,0,4.88,0,6.12" transform="matrix(1,0,0,1,296,-4)" class="stroke_order_diagram--existing_path"></path><path id="kvg:0963f-s4" kvg:type="㇐" d="M42.5,22.73c3.75,0.65,6.73,0.43,9.77-0.01c8.9-1.28,22.52-3.61,32.72-4.96c3.2-0.42,5.86-0.37,9.02,0.31" transform="matrix(1,0,0,1,296,-4)" class="stroke_order_diagram--current_path"></path><path id="pathSk2v596cn4d68" kvg:type="㇐" d="M42.5,22.73c3.75,0.65,6.73,0.43,9.77-0.01c8.9-1.28,22.52-3.61,32.72-4.96c3.2-0.42,5.86-0.37,9.02,0.31" transform="matrix(1,0,0,1,296,-4)" class="stroke_order_diagram--current_path"></path><circle cx="42.5" cy="22.73" r="8" class="stroke_order_diagram--path_start" transform="matrix(1,0,0,1,296,-4)"></circle><line x1="450" x2="450" y1="1" y2="99" class="stroke_order_diagram--guide_line"></line><line x1="499" x2="499" y1="1" y2="99" class="stroke_order_diagram--bounding_box"></line><path id="pathSk2v596cn4d6b" kvg:type="㇇" d="M16.92,20.42c1.58,0.83,3.41,0.54,4.96,0.18c4.25-0.97,8.82-2.69,11.04-3.43c3-1,4.7,0.6,3.67,3.08C35.12,23.75,31.5,33,29,38" transform="matrix(1,0,0,1,396,-4)" class="stroke_order_diagram--existing_path"></path><path id="pathSk2v596cn4d6c" kvg:type="㇕va" d="M29,38.5c10.11,7.7,9.62,29.62,1.01,25.29" transform="matrix(1,0,0,1,396,-4)" class="stroke_order_diagram--existing_path"></path><path id="pathSk2v596cn4d6d" kvg:type="㇑" d="M18.87,21.5c1.06,1.06,1.21,2.25,1.21,3.75c0,3.66,0.02,44.29,0.03,61.38c0,2.75,0,4.88,0,6.12" transform="matrix(1,0,0,1,396,-4)" class="stroke_order_diagram--existing_path"></path><path id="pathSk2v596cn4d6e" kvg:type="㇐" d="M42.5,22.73c3.75,0.65,6.73,0.43,9.77-0.01c8.9-1.28,22.52-3.61,32.72-4.96c3.2-0.42,5.86-0.37,9.02,0.31" transform="matrix(1,0,0,1,396,-4)" class="stroke_order_diagram--existing_path"></path><path id="kvg:0963f-s5" kvg:type="㇑" d="M46.37,39.76c0.85,0.61,1.34,1.44,1.46,2.47c0.91,3.41,1.48,9.45,2.35,14.74c0.25,1.51,0.48,2.97,0.68,4.28" transform="matrix(1,0,0,1,396,-4)" class="stroke_order_diagram--current_path"></path><path id="pathSk2v596cn4d6g" kvg:type="㇑" d="M46.37,39.76c0.85,0.61,1.34,1.44,1.46,2.47c0.91,3.41,1.48,9.45,2.35,14.74c0.25,1.51,0.48,2.97,0.68,4.28" transform="matrix(1,0,0,1,396,-4)" class="stroke_order_diagram--current_path"></path><circle cx="46.37" cy="39.76" r="8" class="stroke_order_diagram--path_start" transform="matrix(1,0,0,1,396,-4)"></circle><line x1="550" x2="550" y1="1" y2="99" class="stroke_order_diagram--guide_line"></line><line x1="599" x2="599" y1="1" y2="99" class="stroke_order_diagram--bounding_box"></line><path id="pathSk2v596cn4d6j" kvg:type="㇇" d="M16.92,20.42c1.58,0.83,3.41,0.54,4.96,0.18c4.25-0.97,8.82-2.69,11.04-3.43c3-1,4.7,0.6,3.67,3.08C35.12,23.75,31.5,33,29,38" transform="matrix(1,0,0,1,496,-4)" class="stroke_order_diagram--existing_path"></path><path id="pathSk2v596cn4d6k" kvg:type="㇕va" d="M29,38.5c10.11,7.7,9.62,29.62,1.01,25.29" transform="matrix(1,0,0,1,496,-4)" class="stroke_order_diagram--existing_path"></path><path id="pathSk2v596cn4d6l" kvg:type="㇑" d="M18.87,21.5c1.06,1.06,1.21,2.25,1.21,3.75c0,3.66,0.02,44.29,0.03,61.38c0,2.75,0,4.88,0,6.12" transform="matrix(1,0,0,1,496,-4)" class="stroke_order_diagram--existing_path"></path><path id="pathSk2v596cn4d6m" kvg:type="㇐" d="M42.5,22.73c3.75,0.65,6.73,0.43,9.77-0.01c8.9-1.28,22.52-3.61,32.72-4.96c3.2-0.42,5.86-0.37,9.02,0.31" transform="matrix(1,0,0,1,496,-4)" class="stroke_order_diagram--existing_path"></path><path id="pathSk2v596cn4d6n" kvg:type="㇑" d="M46.37,39.76c0.85,0.61,1.34,1.44,1.46,2.47c0.91,3.41,1.48,9.45,2.35,14.74c0.25,1.51,0.48,2.97,0.68,4.28" transform="matrix(1,0,0,1,496,-4)" class="stroke_order_diagram--existing_path"></path><path id="kvg:0963f-s6" kvg:type="㇕b" d="M48.75,41.49c7.23-1.6,11.66-2.6,15.88-3.21c3.32-0.47,5.46-0.07,4.59,3.74c-0.96,4.17-2.08,9.58-3.44,14.66" transform="matrix(1,0,0,1,496,-4)" class="stroke_order_diagram--current_path"></path><path id="pathSk2v596cn4d6p" kvg:type="㇕b" d="M48.75,41.49c7.23-1.6,11.66-2.6,15.88-3.21c3.32-0.47,5.46-0.07,4.59,3.74c-0.96,4.17-2.08,9.58-3.44,14.66" transform="matrix(1,0,0,1,496,-4)" class="stroke_order_diagram--current_path"></path><circle cx="48.75" cy="41.49" r="8" class="stroke_order_diagram--path_start" transform="matrix(1,0,0,1,496,-4)"></circle><line x1="650" x2="650" y1="1" y2="99" class="stroke_order_diagram--guide_line"></line><line x1="699" x2="699" y1="1" y2="99" class="stroke_order_diagram--bounding_box"></line><path id="pathSk2v596cn4d6s" kvg:type="㇇" d="M16.92,20.42c1.58,0.83,3.41,0.54,4.96,0.18c4.25-0.97,8.82-2.69,11.04-3.43c3-1,4.7,0.6,3.67,3.08C35.12,23.75,31.5,33,29,38" transform="matrix(1,0,0,1,596,-4)" class="stroke_order_diagram--existing_path"></path><path id="pathSk2v596cn4d6t" kvg:type="㇕va" d="M29,38.5c10.11,7.7,9.62,29.62,1.01,25.29" transform="matrix(1,0,0,1,596,-4)" class="stroke_order_diagram--existing_path"></path><path id="pathSk2v596cn4d6u" kvg:type="㇑" d="M18.87,21.5c1.06,1.06,1.21,2.25,1.21,3.75c0,3.66,0.02,44.29,0.03,61.38c0,2.75,0,4.88,0,6.12" transform="matrix(1,0,0,1,596,-4)" class="stroke_order_diagram--existing_path"></path><path id="pathSk2v596cn4d6v" kvg:type="㇐" d="M42.5,22.73c3.75,0.65,6.73,0.43,9.77-0.01c8.9-1.28,22.52-3.61,32.72-4.96c3.2-0.42,5.86-0.37,9.02,0.31" transform="matrix(1,0,0,1,596,-4)" class="stroke_order_diagram--existing_path"></path><path id="pathSk2v596cn4d6w" kvg:type="㇑" d="M46.37,39.76c0.85,0.61,1.34,1.44,1.46,2.47c0.91,3.41,1.48,9.45,2.35,14.74c0.25,1.51,0.48,2.97,0.68,4.28" transform="matrix(1,0,0,1,596,-4)" class="stroke_order_diagram--existing_path"></path><path id="pathSk2v596cn4d6x" kvg:type="㇕b" d="M48.75,41.49c7.23-1.6,11.66-2.6,15.88-3.21c3.32-0.47,5.46-0.07,4.59,3.74c-0.96,4.17-2.08,9.58-3.44,14.66" transform="matrix(1,0,0,1,596,-4)" class="stroke_order_diagram--existing_path"></path><path id="kvg:0963f-s7" kvg:type="㇐b" d="M51.57,59.53c4.7-0.44,7.64-1.14,12.92-1.84c1.24-0.16,2.59-0.33,4.1-0.48" transform="matrix(1,0,0,1,596,-4)" class="stroke_order_diagram--current_path"></path><path id="pathSk2v596cn4d6z" kvg:type="㇐b" d="M51.57,59.53c4.7-0.44,7.64-1.14,12.92-1.84c1.24-0.16,2.59-0.33,4.1-0.48" transform="matrix(1,0,0,1,596,-4)" class="stroke_order_diagram--current_path"></path><circle cx="51.57" cy="59.53" r="8" class="stroke_order_diagram--path_start" transform="matrix(1,0,0,1,596,-4)"></circle><line x1="750" x2="750" y1="1" y2="99" class="stroke_order_diagram--guide_line"></line><line x1="799" x2="799" y1="1" y2="99" class="stroke_order_diagram--bounding_box"></line><path id="pathSk2v596cn4d72" kvg:type="㇇" d="M16.92,20.42c1.58,0.83,3.41,0.54,4.96,0.18c4.25-0.97,8.82-2.69,11.04-3.43c3-1,4.7,0.6,3.67,3.08C35.12,23.75,31.5,33,29,38" transform="matrix(1,0,0,1,696,-4)" class="stroke_order_diagram--existing_path"></path><path id="pathSk2v596cn4d73" kvg:type="㇕va" d="M29,38.5c10.11,7.7,9.62,29.62,1.01,25.29" transform="matrix(1,0,0,1,696,-4)" class="stroke_order_diagram--existing_path"></path><path id="pathSk2v596cn4d74" kvg:type="㇑" d="M18.87,21.5c1.06,1.06,1.21,2.25,1.21,3.75c0,3.66,0.02,44.29,0.03,61.38c0,2.75,0,4.88,0,6.12" transform="matrix(1,0,0,1,696,-4)" class="stroke_order_diagram--existing_path"></path><path id="pathSk2v596cn4d75" kvg:type="㇐" d="M42.5,22.73c3.75,0.65,6.73,0.43,9.77-0.01c8.9-1.28,22.52-3.61,32.72-4.96c3.2-0.42,5.86-0.37,9.02,0.31" transform="matrix(1,0,0,1,696,-4)" class="stroke_order_diagram--existing_path"></path><path id="pathSk2v596cn4d76" kvg:type="㇑" d="M46.37,39.76c0.85,0.61,1.34,1.44,1.46,2.47c0.91,3.41,1.48,9.45,2.35,14.74c0.25,1.51,0.48,2.97,0.68,4.28" transform="matrix(1,0,0,1,696,-4)" class="stroke_order_diagram--existing_path"></path><path id="pathSk2v596cn4d77" kvg:type="㇕b" d="M48.75,41.49c7.23-1.6,11.66-2.6,15.88-3.21c3.32-0.47,5.46-0.07,4.59,3.74c-0.96,4.17-2.08,9.58-3.44,14.66" transform="matrix(1,0,0,1,696,-4)" class="stroke_order_diagram--existing_path"></path><path id="pathSk2v596cn4d78" kvg:type="㇐b" d="M51.57,59.53c4.7-0.44,7.64-1.14,12.92-1.84c1.24-0.16,2.59-0.33,4.1-0.48" transform="matrix(1,0,0,1,696,-4)" class="stroke_order_diagram--existing_path"></path><path id="kvg:0963f-s8" kvg:type="㇚" d="M83.08,21.08c1.17,1.17,1.51,2.92,1.51,4.77c0,14.56-0.01,56.94-0.01,61.9c0,10.38-5.96,2-7.46,0.75" transform="matrix(1,0,0,1,696,-4)" class="stroke_order_diagram--current_path"></path><path id="pathSk2v596cn4d7a" kvg:type="㇚" d="M83.08,21.08c1.17,1.17,1.51,2.92,1.51,4.77c0,14.56-0.01,56.94-0.01,61.9c0,10.38-5.96,2-7.46,0.75" transform="matrix(1,0,0,1,696,-4)" class="stroke_order_diagram--current_path"></path><circle cx="83.08" cy="21.08" r="8" class="stroke_order_diagram--path_start" transform="matrix(1,0,0,1,696,-4)"></circle></svg>