<svg style="width: 1000px; height: 100px;" viewbox="0 0 1000 100"><style>
.stroke_order_diagram--outer_container {
  width: 100%;
  overflow-x: auto;
  overflow-y: hidden;
}

.stroke_order_diagram--guide_line {
  fill: none;
  stroke: #ddd;
  stroke-width: 3;
  stroke-linecap: square;
  stroke-linejoin: square;
  stroke-dasharray:8, 8;
}

.stroke_order_diagram--bounding_box {
  fill: none;
  stroke: #ddd;
  stroke-width: 4;
  stroke-linecap: square;
  stroke-linejoin: square;
}

.stroke_order_diagram--current_path {
  fill: none;
  stroke: #000;
  stroke-width: 6;
  stroke-linecap: round;
  stroke-linejoin: round;
}

.stroke_order_diagram--existing_path {
  fill: none;
  stroke: #aaa;
  stroke-width: 6;
  stroke-linecap: round;
  stroke-linejoin:round;
}

.stroke_order_diagram--path_start {
  fill: rgba(255, 0, 0, 0.7);
  stroke:none
}</style><desc>Created with Snap</desc><defs></defs><line x1="1" x2="999" y1="1" y2="1" class="stroke_order_diagram--bounding_box"></line><line x1="1" x2="1" y1="1" y2="99" class="stroke_order_diagram--bounding_box"></line><line x1="1" x2="999" y1="99" y2="99" class="stroke_order_diagram--bounding_box"></line><line x1="0" x2="1000" y1="50" y2="50" class="stroke_order_diagram--guide_line"></line><line x1="50" x2="50" y1="1" y2="99" class="stroke_order_diagram--guide_line"></line><line x1="99" x2="99" y1="1" y2="99" class="stroke_order_diagram--bounding_box"></line><path id="kvg:0964d-s1" kvg:type="㇇" d="M12.5,21c1.62,0.5,3.38,0.62,5.08,0.35c5.02-0.8,10.17-2.23,13.5-3.17c3.02-0.85,4.41,1.31,3.1,3.77c-1.31,2.46-6.89,14.43-9.19,17.95" transform="matrix(1,0,0,1,-4,-4)" class="stroke_order_diagram--current_path"></path><path id="pathSk2v596cn2i08" kvg:type="㇇" d="M12.5,21c1.62,0.5,3.38,0.62,5.08,0.35c5.02-0.8,10.17-2.23,13.5-3.17c3.02-0.85,4.41,1.31,3.1,3.77c-1.31,2.46-6.89,14.43-9.19,17.95" transform="matrix(1,0,0,1,-4,-4)" class="stroke_order_diagram--current_path"></path><circle cx="12.5" cy="21" r="8" class="stroke_order_diagram--path_start" transform="matrix(1,0,0,1,-4,-4)"></circle><line x1="150" x2="150" y1="1" y2="99" class="stroke_order_diagram--guide_line"></line><line x1="199" x2="199" y1="1" y2="99" class="stroke_order_diagram--bounding_box"></line><path id="pathSk2v596cn2i0b" kvg:type="㇇" d="M12.5,21c1.62,0.5,3.38,0.62,5.08,0.35c5.02-0.8,10.17-2.23,13.5-3.17c3.02-0.85,4.41,1.31,3.1,3.77c-1.31,2.46-6.89,14.43-9.19,17.95" transform="matrix(1,0,0,1,96,-4)" class="stroke_order_diagram--existing_path"></path><path id="kvg:0964d-s2" kvg:type="㇕va" d="M24.99,39.91c13.51,9.47,10.63,35.72-0.17,27.66" transform="matrix(1,0,0,1,96,-4)" class="stroke_order_diagram--current_path"></path><path id="pathSk2v596cn2i0d" kvg:type="㇕va" d="M24.99,39.91c13.51,9.47,10.63,35.72-0.17,27.66" transform="matrix(1,0,0,1,96,-4)" class="stroke_order_diagram--current_path"></path><circle cx="24.99" cy="39.91" r="8" class="stroke_order_diagram--path_start" transform="matrix(1,0,0,1,96,-4)"></circle><line x1="250" x2="250" y1="1" y2="99" class="stroke_order_diagram--guide_line"></line><line x1="299" x2="299" y1="1" y2="99" class="stroke_order_diagram--bounding_box"></line><path id="pathSk2v596cn2i0g" kvg:type="㇇" d="M12.5,21c1.62,0.5,3.38,0.62,5.08,0.35c5.02-0.8,10.17-2.23,13.5-3.17c3.02-0.85,4.41,1.31,3.1,3.77c-1.31,2.46-6.89,14.43-9.19,17.95" transform="matrix(1,0,0,1,196,-4)" class="stroke_order_diagram--existing_path"></path><path id="pathSk2v596cn2i0h" kvg:type="㇕va" d="M24.99,39.91c13.51,9.47,10.63,35.72-0.17,27.66" transform="matrix(1,0,0,1,196,-4)" class="stroke_order_diagram--existing_path"></path><path id="kvg:0964d-s3" kvg:type="㇑" d="M13.79,21.85c0.93,0.93,1.43,2.27,1.43,3.43c0,0.89,0.31,42.56,0.15,60.96c-0.04,3.95-0.07,6.83-0.11,8" transform="matrix(1,0,0,1,196,-4)" class="stroke_order_diagram--current_path"></path><path id="pathSk2v596cn2i0j" kvg:type="㇑" d="M13.79,21.85c0.93,0.93,1.43,2.27,1.43,3.43c0,0.89,0.31,42.56,0.15,60.96c-0.04,3.95-0.07,6.83-0.11,8" transform="matrix(1,0,0,1,196,-4)" class="stroke_order_diagram--current_path"></path><circle cx="13.79" cy="21.85" r="8" class="stroke_order_diagram--path_start" transform="matrix(1,0,0,1,196,-4)"></circle><line x1="350" x2="350" y1="1" y2="99" class="stroke_order_diagram--guide_line"></line><line x1="399" x2="399" y1="1" y2="99" class="stroke_order_diagram--bounding_box"></line><path id="pathSk2v596cn2i0m" kvg:type="㇇" d="M12.5,21c1.62,0.5,3.38,0.62,5.08,0.35c5.02-0.8,10.17-2.23,13.5-3.17c3.02-0.85,4.41,1.31,3.1,3.77c-1.31,2.46-6.89,14.43-9.19,17.95" transform="matrix(1,0,0,1,296,-4)" class="stroke_order_diagram--existing_path"></path><path id="pathSk2v596cn2i0n" kvg:type="㇕va" d="M24.99,39.91c13.51,9.47,10.63,35.72-0.17,27.66" transform="matrix(1,0,0,1,296,-4)" class="stroke_order_diagram--existing_path"></path><path id="pathSk2v596cn2i0o" kvg:type="㇑" d="M13.79,21.85c0.93,0.93,1.43,2.27,1.43,3.43c0,0.89,0.31,42.56,0.15,60.96c-0.04,3.95-0.07,6.83-0.11,8" transform="matrix(1,0,0,1,296,-4)" class="stroke_order_diagram--existing_path"></path><path id="kvg:0964d-s4" kvg:type="㇒" d="M55.69,13.25c0.05,0.51,0.1,1.32-0.09,2.05c-1.11,4.33-7.46,13.83-16.15,19.65" transform="matrix(1,0,0,1,296,-4)" class="stroke_order_diagram--current_path"></path><path id="pathSk2v596cn2i0q" kvg:type="㇒" d="M55.69,13.25c0.05,0.51,0.1,1.32-0.09,2.05c-1.11,4.33-7.46,13.83-16.15,19.65" transform="matrix(1,0,0,1,296,-4)" class="stroke_order_diagram--current_path"></path><circle cx="55.69" cy="13.25" r="8" class="stroke_order_diagram--path_start" transform="matrix(1,0,0,1,296,-4)"></circle><line x1="450" x2="450" y1="1" y2="99" class="stroke_order_diagram--guide_line"></line><line x1="499" x2="499" y1="1" y2="99" class="stroke_order_diagram--bounding_box"></line><path id="pathSk2v596cn2i0t" kvg:type="㇇" d="M12.5,21c1.62,0.5,3.38,0.62,5.08,0.35c5.02-0.8,10.17-2.23,13.5-3.17c3.02-0.85,4.41,1.31,3.1,3.77c-1.31,2.46-6.89,14.43-9.19,17.95" transform="matrix(1,0,0,1,396,-4)" class="stroke_order_diagram--existing_path"></path><path id="pathSk2v596cn2i0u" kvg:type="㇕va" d="M24.99,39.91c13.51,9.47,10.63,35.72-0.17,27.66" transform="matrix(1,0,0,1,396,-4)" class="stroke_order_diagram--existing_path"></path><path id="pathSk2v596cn2i0v" kvg:type="㇑" d="M13.79,21.85c0.93,0.93,1.43,2.27,1.43,3.43c0,0.89,0.31,42.56,0.15,60.96c-0.04,3.95-0.07,6.83-0.11,8" transform="matrix(1,0,0,1,396,-4)" class="stroke_order_diagram--existing_path"></path><path id="pathSk2v596cn2i0w" kvg:type="㇒" d="M55.69,13.25c0.05,0.51,0.1,1.32-0.09,2.05c-1.11,4.33-7.46,13.83-16.15,19.65" transform="matrix(1,0,0,1,396,-4)" class="stroke_order_diagram--existing_path"></path><path id="kvg:0964d-s5" kvg:type="㇇" d="M58.43,16.24c0.94,0.14,1.9,0.08,2.63-0.09c2.81-0.65,8.7-1.85,12.22-2.73c2.41-0.61,3.94,0.62,2.98,2.84c-4.14,9.62-18.64,29.12-35.52,35.73" transform="matrix(1,0,0,1,396,-4)" class="stroke_order_diagram--current_path"></path><path id="pathSk2v596cn2i0y" kvg:type="㇇" d="M58.43,16.24c0.94,0.14,1.9,0.08,2.63-0.09c2.81-0.65,8.7-1.85,12.22-2.73c2.41-0.61,3.94,0.62,2.98,2.84c-4.14,9.62-18.64,29.12-35.52,35.73" transform="matrix(1,0,0,1,396,-4)" class="stroke_order_diagram--current_path"></path><circle cx="58.43" cy="16.24" r="8" class="stroke_order_diagram--path_start" transform="matrix(1,0,0,1,396,-4)"></circle><line x1="550" x2="550" y1="1" y2="99" class="stroke_order_diagram--guide_line"></line><line x1="599" x2="599" y1="1" y2="99" class="stroke_order_diagram--bounding_box"></line><path id="pathSk2v596cn2i11" kvg:type="㇇" d="M12.5,21c1.62,0.5,3.38,0.62,5.08,0.35c5.02-0.8,10.17-2.23,13.5-3.17c3.02-0.85,4.41,1.31,3.1,3.77c-1.31,2.46-6.89,14.43-9.19,17.95" transform="matrix(1,0,0,1,496,-4)" class="stroke_order_diagram--existing_path"></path><path id="pathSk2v596cn2i12" kvg:type="㇕va" d="M24.99,39.91c13.51,9.47,10.63,35.72-0.17,27.66" transform="matrix(1,0,0,1,496,-4)" class="stroke_order_diagram--existing_path"></path><path id="pathSk2v596cn2i13" kvg:type="㇑" d="M13.79,21.85c0.93,0.93,1.43,2.27,1.43,3.43c0,0.89,0.31,42.56,0.15,60.96c-0.04,3.95-0.07,6.83-0.11,8" transform="matrix(1,0,0,1,496,-4)" class="stroke_order_diagram--existing_path"></path><path id="pathSk2v596cn2i14" kvg:type="㇒" d="M55.69,13.25c0.05,0.51,0.1,1.32-0.09,2.05c-1.11,4.33-7.46,13.83-16.15,19.65" transform="matrix(1,0,0,1,496,-4)" class="stroke_order_diagram--existing_path"></path><path id="pathSk2v596cn2i15" kvg:type="㇇" d="M58.43,16.24c0.94,0.14,1.9,0.08,2.63-0.09c2.81-0.65,8.7-1.85,12.22-2.73c2.41-0.61,3.94,0.62,2.98,2.84c-4.14,9.62-18.64,29.12-35.52,35.73" transform="matrix(1,0,0,1,496,-4)" class="stroke_order_diagram--existing_path"></path><path id="kvg:0964d-s6" kvg:type="㇏" d="M53.03,25.59c3.41,0.61,24.1,15.26,32.98,20.89c2.47,1.56,5,2.87,7.74,3.9" transform="matrix(1,0,0,1,496,-4)" class="stroke_order_diagram--current_path"></path><path id="pathSk2v596cn2i17" kvg:type="㇏" d="M53.03,25.59c3.41,0.61,24.1,15.26,32.98,20.89c2.47,1.56,5,2.87,7.74,3.9" transform="matrix(1,0,0,1,496,-4)" class="stroke_order_diagram--current_path"></path><circle cx="53.03" cy="25.59" r="8" class="stroke_order_diagram--path_start" transform="matrix(1,0,0,1,496,-4)"></circle><line x1="650" x2="650" y1="1" y2="99" class="stroke_order_diagram--guide_line"></line><line x1="699" x2="699" y1="1" y2="99" class="stroke_order_diagram--bounding_box"></line><path id="pathSk2v596cn2i1a" kvg:type="㇇" d="M12.5,21c1.62,0.5,3.38,0.62,5.08,0.35c5.02-0.8,10.17-2.23,13.5-3.17c3.02-0.85,4.41,1.31,3.1,3.77c-1.31,2.46-6.89,14.43-9.19,17.95" transform="matrix(1,0,0,1,596,-4)" class="stroke_order_diagram--existing_path"></path><path id="pathSk2v596cn2i1b" kvg:type="㇕va" d="M24.99,39.91c13.51,9.47,10.63,35.72-0.17,27.66" transform="matrix(1,0,0,1,596,-4)" class="stroke_order_diagram--existing_path"></path><path id="pathSk2v596cn2i1c" kvg:type="㇑" d="M13.79,21.85c0.93,0.93,1.43,2.27,1.43,3.43c0,0.89,0.31,42.56,0.15,60.96c-0.04,3.95-0.07,6.83-0.11,8" transform="matrix(1,0,0,1,596,-4)" class="stroke_order_diagram--existing_path"></path><path id="pathSk2v596cn2i1d" kvg:type="㇒" d="M55.69,13.25c0.05,0.51,0.1,1.32-0.09,2.05c-1.11,4.33-7.46,13.83-16.15,19.65" transform="matrix(1,0,0,1,596,-4)" class="stroke_order_diagram--existing_path"></path><path id="pathSk2v596cn2i1e" kvg:type="㇇" d="M58.43,16.24c0.94,0.14,1.9,0.08,2.63-0.09c2.81-0.65,8.7-1.85,12.22-2.73c2.41-0.61,3.94,0.62,2.98,2.84c-4.14,9.62-18.64,29.12-35.52,35.73" transform="matrix(1,0,0,1,596,-4)" class="stroke_order_diagram--existing_path"></path><path id="pathSk2v596cn2i1f" kvg:type="㇏" d="M53.03,25.59c3.41,0.61,24.1,15.26,32.98,20.89c2.47,1.56,5,2.87,7.74,3.9" transform="matrix(1,0,0,1,596,-4)" class="stroke_order_diagram--existing_path"></path><path id="kvg:0964d-s7" kvg:type="㇐" d="M46.75,57c2,0.38,3.96,0.26,5.65,0.13c6.48-0.51,18.13-2.13,24.61-2.62c1.89-0.14,3.88-0.31,5.74,0.14" transform="matrix(1,0,0,1,596,-4)" class="stroke_order_diagram--current_path"></path><path id="pathSk2v596cn2i1h" kvg:type="㇐" d="M46.75,57c2,0.38,3.96,0.26,5.65,0.13c6.48-0.51,18.13-2.13,24.61-2.62c1.89-0.14,3.88-0.31,5.74,0.14" transform="matrix(1,0,0,1,596,-4)" class="stroke_order_diagram--current_path"></path><circle cx="46.75" cy="57" r="8" class="stroke_order_diagram--path_start" transform="matrix(1,0,0,1,596,-4)"></circle><line x1="750" x2="750" y1="1" y2="99" class="stroke_order_diagram--guide_line"></line><line x1="799" x2="799" y1="1" y2="99" class="stroke_order_diagram--bounding_box"></line><path id="pathSk2v596cn2i1k" kvg:type="㇇" d="M12.5,21c1.62,0.5,3.38,0.62,5.08,0.35c5.02-0.8,10.17-2.23,13.5-3.17c3.02-0.85,4.41,1.31,3.1,3.77c-1.31,2.46-6.89,14.43-9.19,17.95" transform="matrix(1,0,0,1,696,-4)" class="stroke_order_diagram--existing_path"></path><path id="pathSk2v596cn2i1l" kvg:type="㇕va" d="M24.99,39.91c13.51,9.47,10.63,35.72-0.17,27.66" transform="matrix(1,0,0,1,696,-4)" class="stroke_order_diagram--existing_path"></path><path id="pathSk2v596cn2i1m" kvg:type="㇑" d="M13.79,21.85c0.93,0.93,1.43,2.27,1.43,3.43c0,0.89,0.31,42.56,0.15,60.96c-0.04,3.95-0.07,6.83-0.11,8" transform="matrix(1,0,0,1,696,-4)" class="stroke_order_diagram--existing_path"></path><path id="pathSk2v596cn2i1n" kvg:type="㇒" d="M55.69,13.25c0.05,0.51,0.1,1.32-0.09,2.05c-1.11,4.33-7.46,13.83-16.15,19.65" transform="matrix(1,0,0,1,696,-4)" class="stroke_order_diagram--existing_path"></path><path id="pathSk2v596cn2i1o" kvg:type="㇇" d="M58.43,16.24c0.94,0.14,1.9,0.08,2.63-0.09c2.81-0.65,8.7-1.85,12.22-2.73c2.41-0.61,3.94,0.62,2.98,2.84c-4.14,9.62-18.64,29.12-35.52,35.73" transform="matrix(1,0,0,1,696,-4)" class="stroke_order_diagram--existing_path"></path><path id="pathSk2v596cn2i1p" kvg:type="㇏" d="M53.03,25.59c3.41,0.61,24.1,15.26,32.98,20.89c2.47,1.56,5,2.87,7.74,3.9" transform="matrix(1,0,0,1,696,-4)" class="stroke_order_diagram--existing_path"></path><path id="pathSk2v596cn2i1q" kvg:type="㇐" d="M46.75,57c2,0.38,3.96,0.26,5.65,0.13c6.48-0.51,18.13-2.13,24.61-2.62c1.89-0.14,3.88-0.31,5.74,0.14" transform="matrix(1,0,0,1,696,-4)" class="stroke_order_diagram--existing_path"></path><path id="kvg:0964d-s8" kvg:type="㇑a" d="M50.41,57.87c0.74,0.74,1.09,1.88,1.02,2.93c-0.35,5.45-0.31,9.21-0.65,13.46" transform="matrix(1,0,0,1,696,-4)" class="stroke_order_diagram--current_path"></path><path id="pathSk2v596cn2i1s" kvg:type="㇑a" d="M50.41,57.87c0.74,0.74,1.09,1.88,1.02,2.93c-0.35,5.45-0.31,9.21-0.65,13.46" transform="matrix(1,0,0,1,696,-4)" class="stroke_order_diagram--current_path"></path><circle cx="50.41" cy="57.87" r="8" class="stroke_order_diagram--path_start" transform="matrix(1,0,0,1,696,-4)"></circle><line x1="850" x2="850" y1="1" y2="99" class="stroke_order_diagram--guide_line"></line><line x1="899" x2="899" y1="1" y2="99" class="stroke_order_diagram--bounding_box"></line><path id="pathSk2v596cn2i1v" kvg:type="㇇" d="M12.5,21c1.62,0.5,3.38,0.62,5.08,0.35c5.02-0.8,10.17-2.23,13.5-3.17c3.02-0.85,4.41,1.31,3.1,3.77c-1.31,2.46-6.89,14.43-9.19,17.95" transform="matrix(1,0,0,1,796,-4)" class="stroke_order_diagram--existing_path"></path><path id="pathSk2v596cn2i1w" kvg:type="㇕va" d="M24.99,39.91c13.51,9.47,10.63,35.72-0.17,27.66" transform="matrix(1,0,0,1,796,-4)" class="stroke_order_diagram--existing_path"></path><path id="pathSk2v596cn2i1x" kvg:type="㇑" d="M13.79,21.85c0.93,0.93,1.43,2.27,1.43,3.43c0,0.89,0.31,42.56,0.15,60.96c-0.04,3.95-0.07,6.83-0.11,8" transform="matrix(1,0,0,1,796,-4)" class="stroke_order_diagram--existing_path"></path><path id="pathSk2v596cn2i1y" kvg:type="㇒" d="M55.69,13.25c0.05,0.51,0.1,1.32-0.09,2.05c-1.11,4.33-7.46,13.83-16.15,19.65" transform="matrix(1,0,0,1,796,-4)" class="stroke_order_diagram--existing_path"></path><path id="pathSk2v596cn2i1z" kvg:type="㇇" d="M58.43,16.24c0.94,0.14,1.9,0.08,2.63-0.09c2.81-0.65,8.7-1.85,12.22-2.73c2.41-0.61,3.94,0.62,2.98,2.84c-4.14,9.62-18.64,29.12-35.52,35.73" transform="matrix(1,0,0,1,796,-4)" class="stroke_order_diagram--existing_path"></path><path id="pathSk2v596cn2i20" kvg:type="㇏" d="M53.03,25.59c3.41,0.61,24.1,15.26,32.98,20.89c2.47,1.56,5,2.87,7.74,3.9" transform="matrix(1,0,0,1,796,-4)" class="stroke_order_diagram--existing_path"></path><path id="pathSk2v596cn2i21" kvg:type="㇐" d="M46.75,57c2,0.38,3.96,0.26,5.65,0.13c6.48-0.51,18.13-2.13,24.61-2.62c1.89-0.14,3.88-0.31,5.74,0.14" transform="matrix(1,0,0,1,796,-4)" class="stroke_order_diagram--existing_path"></path><path id="pathSk2v596cn2i22" kvg:type="㇑a" d="M50.41,57.87c0.74,0.74,1.09,1.88,1.02,2.93c-0.35,5.45-0.31,9.21-0.65,13.46" transform="matrix(1,0,0,1,796,-4)" class="stroke_order_diagram--existing_path"></path><path id="kvg:0964d-s9" kvg:type="㇐" d="M39.25,75.64c3.12,0.49,5.26,0.35,7.65,0.05c11.35-1.44,29.62-3.5,38.58-4c2.39-0.13,4.63-0.21,7.02,0.32" transform="matrix(1,0,0,1,796,-4)" class="stroke_order_diagram--current_path"></path><path id="pathSk2v596cn2i24" kvg:type="㇐" d="M39.25,75.64c3.12,0.49,5.26,0.35,7.65,0.05c11.35-1.44,29.62-3.5,38.58-4c2.39-0.13,4.63-0.21,7.02,0.32" transform="matrix(1,0,0,1,796,-4)" class="stroke_order_diagram--current_path"></path><circle cx="39.25" cy="75.64" r="8" class="stroke_order_diagram--path_start" transform="matrix(1,0,0,1,796,-4)"></circle><line x1="950" x2="950" y1="1" y2="99" class="stroke_order_diagram--guide_line"></line><line x1="999" x2="999" y1="1" y2="99" class="stroke_order_diagram--bounding_box"></line><path id="pathSk2v596cn2i27" kvg:type="㇇" d="M12.5,21c1.62,0.5,3.38,0.62,5.08,0.35c5.02-0.8,10.17-2.23,13.5-3.17c3.02-0.85,4.41,1.31,3.1,3.77c-1.31,2.46-6.89,14.43-9.19,17.95" transform="matrix(1,0,0,1,896,-4)" class="stroke_order_diagram--existing_path"></path><path id="pathSk2v596cn2i28" kvg:type="㇕va" d="M24.99,39.91c13.51,9.47,10.63,35.72-0.17,27.66" transform="matrix(1,0,0,1,896,-4)" class="stroke_order_diagram--existing_path"></path><path id="pathSk2v596cn2i29" kvg:type="㇑" d="M13.79,21.85c0.93,0.93,1.43,2.27,1.43,3.43c0,0.89,0.31,42.56,0.15,60.96c-0.04,3.95-0.07,6.83-0.11,8" transform="matrix(1,0,0,1,896,-4)" class="stroke_order_diagram--existing_path"></path><path id="pathSk2v596cn2i2a" kvg:type="㇒" d="M55.69,13.25c0.05,0.51,0.1,1.32-0.09,2.05c-1.11,4.33-7.46,13.83-16.15,19.65" transform="matrix(1,0,0,1,896,-4)" class="stroke_order_diagram--existing_path"></path><path id="pathSk2v596cn2i2b" kvg:type="㇇" d="M58.43,16.24c0.94,0.14,1.9,0.08,2.63-0.09c2.81-0.65,8.7-1.85,12.22-2.73c2.41-0.61,3.94,0.62,2.98,2.84c-4.14,9.62-18.64,29.12-35.52,35.73" transform="matrix(1,0,0,1,896,-4)" class="stroke_order_diagram--existing_path"></path><path id="pathSk2v596cn2i2c" kvg:type="㇏" d="M53.03,25.59c3.41,0.61,24.1,15.26,32.98,20.89c2.47,1.56,5,2.87,7.74,3.9" transform="matrix(1,0,0,1,896,-4)" class="stroke_order_diagram--existing_path"></path><path id="pathSk2v596cn2i2d" kvg:type="㇐" d="M46.75,57c2,0.38,3.96,0.26,5.65,0.13c6.48-0.51,18.13-2.13,24.61-2.62c1.89-0.14,3.88-0.31,5.74,0.14" transform="matrix(1,0,0,1,896,-4)" class="stroke_order_diagram--existing_path"></path><path id="pathSk2v596cn2i2e" kvg:type="㇑a" d="M50.41,57.87c0.74,0.74,1.09,1.88,1.02,2.93c-0.35,5.45-0.31,9.21-0.65,13.46" transform="matrix(1,0,0,1,896,-4)" class="stroke_order_diagram--existing_path"></path><path id="pathSk2v596cn2i2f" kvg:type="㇐" d="M39.25,75.64c3.12,0.49,5.26,0.35,7.65,0.05c11.35-1.44,29.62-3.5,38.58-4c2.39-0.13,4.63-0.21,7.02,0.32" transform="matrix(1,0,0,1,896,-4)" class="stroke_order_diagram--existing_path"></path><path id="kvg:0964d-s10" kvg:type="㇑" d="M66.62,45.75c0.94,0.94,1.27,2.5,1.27,4.17c0,2.75-0.13,29.08-0.13,41.83c0,2.58-0.06,4.53-0.1,5.5" transform="matrix(1,0,0,1,896,-4)" class="stroke_order_diagram--current_path"></path><path id="pathSk2v596cn2i2h" kvg:type="㇑" d="M66.62,45.75c0.94,0.94,1.27,2.5,1.27,4.17c0,2.75-0.13,29.08-0.13,41.83c0,2.58-0.06,4.53-0.1,5.5" transform="matrix(1,0,0,1,896,-4)" class="stroke_order_diagram--current_path"></path><circle cx="66.62" cy="45.75" r="8" class="stroke_order_diagram--path_start" transform="matrix(1,0,0,1,896,-4)"></circle></svg>