<svg style="width: 1000px; height: 100px;" viewbox="0 0 1000 100"><style>
.stroke_order_diagram--outer_container {
  width: 100%;
  overflow-x: auto;
  overflow-y: hidden;
}

.stroke_order_diagram--guide_line {
  fill: none;
  stroke: #ddd;
  stroke-width: 3;
  stroke-linecap: square;
  stroke-linejoin: square;
  stroke-dasharray:8, 8;
}

.stroke_order_diagram--bounding_box {
  fill: none;
  stroke: #ddd;
  stroke-width: 4;
  stroke-linecap: square;
  stroke-linejoin: square;
}

.stroke_order_diagram--current_path {
  fill: none;
  stroke: #000;
  stroke-width: 6;
  stroke-linecap: round;
  stroke-linejoin: round;
}

.stroke_order_diagram--existing_path {
  fill: none;
  stroke: #aaa;
  stroke-width: 6;
  stroke-linecap: round;
  stroke-linejoin:round;
}

.stroke_order_diagram--path_start {
  fill: rgba(255, 0, 0, 0.7);
  stroke:none
}</style><desc>Created with Snap</desc><defs></defs><line x1="1" x2="999" y1="1" y2="1" class="stroke_order_diagram--bounding_box"></line><line x1="1" x2="1" y1="1" y2="99" class="stroke_order_diagram--bounding_box"></line><line x1="1" x2="999" y1="99" y2="99" class="stroke_order_diagram--bounding_box"></line><line x1="0" x2="1000" y1="50" y2="50" class="stroke_order_diagram--guide_line"></line><line x1="50" x2="50" y1="1" y2="99" class="stroke_order_diagram--guide_line"></line><line x1="99" x2="99" y1="1" y2="99" class="stroke_order_diagram--bounding_box"></line><path id="kvg:09664-s1" kvg:type="㇇" d="M12.67,21.92c1.08,0.46,2.36,0.59,3.62,0.33c5.46-1.12,10.97-2.87,13.38-3.58c3.96-1.17,5.71,0.96,4.17,4.08C32.65,25.16,27.33,35.67,25,39" transform="matrix(1,0,0,1,-4,-4)" class="stroke_order_diagram--current_path"></path><path id="pathSk2v596cn289a" kvg:type="㇇" d="M12.67,21.92c1.08,0.46,2.36,0.59,3.62,0.33c5.46-1.12,10.97-2.87,13.38-3.58c3.96-1.17,5.71,0.96,4.17,4.08C32.65,25.16,27.33,35.67,25,39" transform="matrix(1,0,0,1,-4,-4)" class="stroke_order_diagram--current_path"></path><circle cx="12.67" cy="21.92" r="8" class="stroke_order_diagram--path_start" transform="matrix(1,0,0,1,-4,-4)"></circle><line x1="150" x2="150" y1="1" y2="99" class="stroke_order_diagram--guide_line"></line><line x1="199" x2="199" y1="1" y2="99" class="stroke_order_diagram--bounding_box"></line><path id="pathSk2v596cn289d" kvg:type="㇇" d="M12.67,21.92c1.08,0.46,2.36,0.59,3.62,0.33c5.46-1.12,10.97-2.87,13.38-3.58c3.96-1.17,5.71,0.96,4.17,4.08C32.65,25.16,27.33,35.67,25,39" transform="matrix(1,0,0,1,96,-4)" class="stroke_order_diagram--existing_path"></path><path id="kvg:09664-s2" kvg:type="㇕va" d="M25,39c13.62,8.62,8.38,34-0.83,26.5" transform="matrix(1,0,0,1,96,-4)" class="stroke_order_diagram--current_path"></path><path id="pathSk2v596cn289f" kvg:type="㇕va" d="M25,39c13.62,8.62,8.38,34-0.83,26.5" transform="matrix(1,0,0,1,96,-4)" class="stroke_order_diagram--current_path"></path><circle cx="25" cy="39" r="8" class="stroke_order_diagram--path_start" transform="matrix(1,0,0,1,96,-4)"></circle><line x1="250" x2="250" y1="1" y2="99" class="stroke_order_diagram--guide_line"></line><line x1="299" x2="299" y1="1" y2="99" class="stroke_order_diagram--bounding_box"></line><path id="pathSk2v596cn289i" kvg:type="㇇" d="M12.67,21.92c1.08,0.46,2.36,0.59,3.62,0.33c5.46-1.12,10.97-2.87,13.38-3.58c3.96-1.17,5.71,0.96,4.17,4.08C32.65,25.16,27.33,35.67,25,39" transform="matrix(1,0,0,1,196,-4)" class="stroke_order_diagram--existing_path"></path><path id="pathSk2v596cn289j" kvg:type="㇕va" d="M25,39c13.62,8.62,8.38,34-0.83,26.5" transform="matrix(1,0,0,1,196,-4)" class="stroke_order_diagram--existing_path"></path><path id="kvg:09664-s3" kvg:type="㇑" d="M14.37,23c0.81,0.81,0.96,2.12,0.96,3.25c0,0.85-0.11,39.5-0.11,59.75c0,3.74-0.07,6.44-0.11,7.5" transform="matrix(1,0,0,1,196,-4)" class="stroke_order_diagram--current_path"></path><path id="pathSk2v596cn289l" kvg:type="㇑" d="M14.37,23c0.81,0.81,0.96,2.12,0.96,3.25c0,0.85-0.11,39.5-0.11,59.75c0,3.74-0.07,6.44-0.11,7.5" transform="matrix(1,0,0,1,196,-4)" class="stroke_order_diagram--current_path"></path><circle cx="14.37" cy="23" r="8" class="stroke_order_diagram--path_start" transform="matrix(1,0,0,1,196,-4)"></circle><line x1="350" x2="350" y1="1" y2="99" class="stroke_order_diagram--guide_line"></line><line x1="399" x2="399" y1="1" y2="99" class="stroke_order_diagram--bounding_box"></line><path id="pathSk2v596cn289o" kvg:type="㇇" d="M12.67,21.92c1.08,0.46,2.36,0.59,3.62,0.33c5.46-1.12,10.97-2.87,13.38-3.58c3.96-1.17,5.71,0.96,4.17,4.08C32.65,25.16,27.33,35.67,25,39" transform="matrix(1,0,0,1,296,-4)" class="stroke_order_diagram--existing_path"></path><path id="pathSk2v596cn289p" kvg:type="㇕va" d="M25,39c13.62,8.62,8.38,34-0.83,26.5" transform="matrix(1,0,0,1,296,-4)" class="stroke_order_diagram--existing_path"></path><path id="pathSk2v596cn289q" kvg:type="㇑" d="M14.37,23c0.81,0.81,0.96,2.12,0.96,3.25c0,0.85-0.11,39.5-0.11,59.75c0,3.74-0.07,6.44-0.11,7.5" transform="matrix(1,0,0,1,296,-4)" class="stroke_order_diagram--existing_path"></path><path id="kvg:09664-s4" kvg:type="㇒" d="M62.56,12.75c0.08,0.92,0.05,2.44-0.42,3.7c-2.9,7.84-9.02,23.8-22.68,35.13" transform="matrix(1,0,0,1,296,-4)" class="stroke_order_diagram--current_path"></path><path id="pathSk2v596cn289s" kvg:type="㇒" d="M62.56,12.75c0.08,0.92,0.05,2.44-0.42,3.7c-2.9,7.84-9.02,23.8-22.68,35.13" transform="matrix(1,0,0,1,296,-4)" class="stroke_order_diagram--current_path"></path><circle cx="62.56" cy="12.75" r="8" class="stroke_order_diagram--path_start" transform="matrix(1,0,0,1,296,-4)"></circle><line x1="450" x2="450" y1="1" y2="99" class="stroke_order_diagram--guide_line"></line><line x1="499" x2="499" y1="1" y2="99" class="stroke_order_diagram--bounding_box"></line><path id="pathSk2v596cn289v" kvg:type="㇇" d="M12.67,21.92c1.08,0.46,2.36,0.59,3.62,0.33c5.46-1.12,10.97-2.87,13.38-3.58c3.96-1.17,5.71,0.96,4.17,4.08C32.65,25.16,27.33,35.67,25,39" transform="matrix(1,0,0,1,396,-4)" class="stroke_order_diagram--existing_path"></path><path id="pathSk2v596cn289w" kvg:type="㇕va" d="M25,39c13.62,8.62,8.38,34-0.83,26.5" transform="matrix(1,0,0,1,396,-4)" class="stroke_order_diagram--existing_path"></path><path id="pathSk2v596cn289x" kvg:type="㇑" d="M14.37,23c0.81,0.81,0.96,2.12,0.96,3.25c0,0.85-0.11,39.5-0.11,59.75c0,3.74-0.07,6.44-0.11,7.5" transform="matrix(1,0,0,1,396,-4)" class="stroke_order_diagram--existing_path"></path><path id="pathSk2v596cn289y" kvg:type="㇒" d="M62.56,12.75c0.08,0.92,0.05,2.44-0.42,3.7c-2.9,7.84-9.02,23.8-22.68,35.13" transform="matrix(1,0,0,1,396,-4)" class="stroke_order_diagram--existing_path"></path><path id="kvg:09664-s5" kvg:type="㇏" d="M63.29,16.24c5.21,6.14,16.77,18.36,24.08,25.52c1.73,1.69,4.63,4.25,7.67,5.8" transform="matrix(1,0,0,1,396,-4)" class="stroke_order_diagram--current_path"></path><path id="pathSk2v596cn28a0" kvg:type="㇏" d="M63.29,16.24c5.21,6.14,16.77,18.36,24.08,25.52c1.73,1.69,4.63,4.25,7.67,5.8" transform="matrix(1,0,0,1,396,-4)" class="stroke_order_diagram--current_path"></path><circle cx="63.29" cy="16.24" r="8" class="stroke_order_diagram--path_start" transform="matrix(1,0,0,1,396,-4)"></circle><line x1="550" x2="550" y1="1" y2="99" class="stroke_order_diagram--guide_line"></line><line x1="599" x2="599" y1="1" y2="99" class="stroke_order_diagram--bounding_box"></line><path id="pathSk2v596cn28a3" kvg:type="㇇" d="M12.67,21.92c1.08,0.46,2.36,0.59,3.62,0.33c5.46-1.12,10.97-2.87,13.38-3.58c3.96-1.17,5.71,0.96,4.17,4.08C32.65,25.16,27.33,35.67,25,39" transform="matrix(1,0,0,1,496,-4)" class="stroke_order_diagram--existing_path"></path><path id="pathSk2v596cn28a4" kvg:type="㇕va" d="M25,39c13.62,8.62,8.38,34-0.83,26.5" transform="matrix(1,0,0,1,496,-4)" class="stroke_order_diagram--existing_path"></path><path id="pathSk2v596cn28a5" kvg:type="㇑" d="M14.37,23c0.81,0.81,0.96,2.12,0.96,3.25c0,0.85-0.11,39.5-0.11,59.75c0,3.74-0.07,6.44-0.11,7.5" transform="matrix(1,0,0,1,496,-4)" class="stroke_order_diagram--existing_path"></path><path id="pathSk2v596cn28a6" kvg:type="㇒" d="M62.56,12.75c0.08,0.92,0.05,2.44-0.42,3.7c-2.9,7.84-9.02,23.8-22.68,35.13" transform="matrix(1,0,0,1,496,-4)" class="stroke_order_diagram--existing_path"></path><path id="pathSk2v596cn28a7" kvg:type="㇏" d="M63.29,16.24c5.21,6.14,16.77,18.36,24.08,25.52c1.73,1.69,4.63,4.25,7.67,5.8" transform="matrix(1,0,0,1,496,-4)" class="stroke_order_diagram--existing_path"></path><path id="kvg:09664-s6" kvg:type="㇐" d="M52.75,46.93c1.17,0.48,3.24,0.45,4.5,0.35c5.51-0.43,13.63-1.47,18.62-1.98c1.37-0.14,2.26-0.3,3.88-0.17" transform="matrix(1,0,0,1,496,-4)" class="stroke_order_diagram--current_path"></path><path id="pathSk2v596cn28a9" kvg:type="㇐" d="M52.75,46.93c1.17,0.48,3.24,0.45,4.5,0.35c5.51-0.43,13.63-1.47,18.62-1.98c1.37-0.14,2.26-0.3,3.88-0.17" transform="matrix(1,0,0,1,496,-4)" class="stroke_order_diagram--current_path"></path><circle cx="52.75" cy="46.93" r="8" class="stroke_order_diagram--path_start" transform="matrix(1,0,0,1,496,-4)"></circle><line x1="650" x2="650" y1="1" y2="99" class="stroke_order_diagram--guide_line"></line><line x1="699" x2="699" y1="1" y2="99" class="stroke_order_diagram--bounding_box"></line><path id="pathSk2v596cn28ac" kvg:type="㇇" d="M12.67,21.92c1.08,0.46,2.36,0.59,3.62,0.33c5.46-1.12,10.97-2.87,13.38-3.58c3.96-1.17,5.71,0.96,4.17,4.08C32.65,25.16,27.33,35.67,25,39" transform="matrix(1,0,0,1,596,-4)" class="stroke_order_diagram--existing_path"></path><path id="pathSk2v596cn28ad" kvg:type="㇕va" d="M25,39c13.62,8.62,8.38,34-0.83,26.5" transform="matrix(1,0,0,1,596,-4)" class="stroke_order_diagram--existing_path"></path><path id="pathSk2v596cn28ae" kvg:type="㇑" d="M14.37,23c0.81,0.81,0.96,2.12,0.96,3.25c0,0.85-0.11,39.5-0.11,59.75c0,3.74-0.07,6.44-0.11,7.5" transform="matrix(1,0,0,1,596,-4)" class="stroke_order_diagram--existing_path"></path><path id="pathSk2v596cn28af" kvg:type="㇒" d="M62.56,12.75c0.08,0.92,0.05,2.44-0.42,3.7c-2.9,7.84-9.02,23.8-22.68,35.13" transform="matrix(1,0,0,1,596,-4)" class="stroke_order_diagram--existing_path"></path><path id="pathSk2v596cn28ag" kvg:type="㇏" d="M63.29,16.24c5.21,6.14,16.77,18.36,24.08,25.52c1.73,1.69,4.63,4.25,7.67,5.8" transform="matrix(1,0,0,1,596,-4)" class="stroke_order_diagram--existing_path"></path><path id="pathSk2v596cn28ah" kvg:type="㇐" d="M52.75,46.93c1.17,0.48,3.24,0.45,4.5,0.35c5.51-0.43,13.63-1.47,18.62-1.98c1.37-0.14,2.26-0.3,3.88-0.17" transform="matrix(1,0,0,1,596,-4)" class="stroke_order_diagram--existing_path"></path><path id="kvg:09664-s7" kvg:type="㇐" d="M45.99,63.16c2.14,0.72,4.27,0.63,6.02,0.51c9.12-0.67,22.7-2.39,30.65-2.74c1.69-0.07,2.96-0.08,3.81,0.11" transform="matrix(1,0,0,1,596,-4)" class="stroke_order_diagram--current_path"></path><path id="pathSk2v596cn28aj" kvg:type="㇐" d="M45.99,63.16c2.14,0.72,4.27,0.63,6.02,0.51c9.12-0.67,22.7-2.39,30.65-2.74c1.69-0.07,2.96-0.08,3.81,0.11" transform="matrix(1,0,0,1,596,-4)" class="stroke_order_diagram--current_path"></path><circle cx="45.99" cy="63.16" r="8" class="stroke_order_diagram--path_start" transform="matrix(1,0,0,1,596,-4)"></circle><line x1="750" x2="750" y1="1" y2="99" class="stroke_order_diagram--guide_line"></line><line x1="799" x2="799" y1="1" y2="99" class="stroke_order_diagram--bounding_box"></line><path id="pathSk2v596cn28am" kvg:type="㇇" d="M12.67,21.92c1.08,0.46,2.36,0.59,3.62,0.33c5.46-1.12,10.97-2.87,13.38-3.58c3.96-1.17,5.71,0.96,4.17,4.08C32.65,25.16,27.33,35.67,25,39" transform="matrix(1,0,0,1,696,-4)" class="stroke_order_diagram--existing_path"></path><path id="pathSk2v596cn28an" kvg:type="㇕va" d="M25,39c13.62,8.62,8.38,34-0.83,26.5" transform="matrix(1,0,0,1,696,-4)" class="stroke_order_diagram--existing_path"></path><path id="pathSk2v596cn28ao" kvg:type="㇑" d="M14.37,23c0.81,0.81,0.96,2.12,0.96,3.25c0,0.85-0.11,39.5-0.11,59.75c0,3.74-0.07,6.44-0.11,7.5" transform="matrix(1,0,0,1,696,-4)" class="stroke_order_diagram--existing_path"></path><path id="pathSk2v596cn28ap" kvg:type="㇒" d="M62.56,12.75c0.08,0.92,0.05,2.44-0.42,3.7c-2.9,7.84-9.02,23.8-22.68,35.13" transform="matrix(1,0,0,1,696,-4)" class="stroke_order_diagram--existing_path"></path><path id="pathSk2v596cn28aq" kvg:type="㇏" d="M63.29,16.24c5.21,6.14,16.77,18.36,24.08,25.52c1.73,1.69,4.63,4.25,7.67,5.8" transform="matrix(1,0,0,1,696,-4)" class="stroke_order_diagram--existing_path"></path><path id="pathSk2v596cn28ar" kvg:type="㇐" d="M52.75,46.93c1.17,0.48,3.24,0.45,4.5,0.35c5.51-0.43,13.63-1.47,18.62-1.98c1.37-0.14,2.26-0.3,3.88-0.17" transform="matrix(1,0,0,1,696,-4)" class="stroke_order_diagram--existing_path"></path><path id="pathSk2v596cn28as" kvg:type="㇐" d="M45.99,63.16c2.14,0.72,4.27,0.63,6.02,0.51c9.12-0.67,22.7-2.39,30.65-2.74c1.69-0.07,2.96-0.08,3.81,0.11" transform="matrix(1,0,0,1,696,-4)" class="stroke_order_diagram--existing_path"></path><path id="kvg:09664-s8" kvg:type="㇚" d="M65.04,49.05c1.08,1.08,1.46,2.32,1.46,4.05c0,18.93,0,31.76,0,36.52c0,10.8-5.96,1.92-7.4,0.72" transform="matrix(1,0,0,1,696,-4)" class="stroke_order_diagram--current_path"></path><path id="pathSk2v596cn28au" kvg:type="㇚" d="M65.04,49.05c1.08,1.08,1.46,2.32,1.46,4.05c0,18.93,0,31.76,0,36.52c0,10.8-5.96,1.92-7.4,0.72" transform="matrix(1,0,0,1,696,-4)" class="stroke_order_diagram--current_path"></path><circle cx="65.04" cy="49.05" r="8" class="stroke_order_diagram--path_start" transform="matrix(1,0,0,1,696,-4)"></circle><line x1="850" x2="850" y1="1" y2="99" class="stroke_order_diagram--guide_line"></line><line x1="899" x2="899" y1="1" y2="99" class="stroke_order_diagram--bounding_box"></line><path id="pathSk2v596cn28ax" kvg:type="㇇" d="M12.67,21.92c1.08,0.46,2.36,0.59,3.62,0.33c5.46-1.12,10.97-2.87,13.38-3.58c3.96-1.17,5.71,0.96,4.17,4.08C32.65,25.16,27.33,35.67,25,39" transform="matrix(1,0,0,1,796,-4)" class="stroke_order_diagram--existing_path"></path><path id="pathSk2v596cn28ay" kvg:type="㇕va" d="M25,39c13.62,8.62,8.38,34-0.83,26.5" transform="matrix(1,0,0,1,796,-4)" class="stroke_order_diagram--existing_path"></path><path id="pathSk2v596cn28az" kvg:type="㇑" d="M14.37,23c0.81,0.81,0.96,2.12,0.96,3.25c0,0.85-0.11,39.5-0.11,59.75c0,3.74-0.07,6.44-0.11,7.5" transform="matrix(1,0,0,1,796,-4)" class="stroke_order_diagram--existing_path"></path><path id="pathSk2v596cn28b0" kvg:type="㇒" d="M62.56,12.75c0.08,0.92,0.05,2.44-0.42,3.7c-2.9,7.84-9.02,23.8-22.68,35.13" transform="matrix(1,0,0,1,796,-4)" class="stroke_order_diagram--existing_path"></path><path id="pathSk2v596cn28b1" kvg:type="㇏" d="M63.29,16.24c5.21,6.14,16.77,18.36,24.08,25.52c1.73,1.69,4.63,4.25,7.67,5.8" transform="matrix(1,0,0,1,796,-4)" class="stroke_order_diagram--existing_path"></path><path id="pathSk2v596cn28b2" kvg:type="㇐" d="M52.75,46.93c1.17,0.48,3.24,0.45,4.5,0.35c5.51-0.43,13.63-1.47,18.62-1.98c1.37-0.14,2.26-0.3,3.88-0.17" transform="matrix(1,0,0,1,796,-4)" class="stroke_order_diagram--existing_path"></path><path id="pathSk2v596cn28b3" kvg:type="㇐" d="M45.99,63.16c2.14,0.72,4.27,0.63,6.02,0.51c9.12-0.67,22.7-2.39,30.65-2.74c1.69-0.07,2.96-0.08,3.81,0.11" transform="matrix(1,0,0,1,796,-4)" class="stroke_order_diagram--existing_path"></path><path id="pathSk2v596cn28b4" kvg:type="㇚" d="M65.04,49.05c1.08,1.08,1.46,2.32,1.46,4.05c0,18.93,0,31.76,0,36.52c0,10.8-5.96,1.92-7.4,0.72" transform="matrix(1,0,0,1,796,-4)" class="stroke_order_diagram--existing_path"></path><path id="kvg:09664-s9" kvg:type="㇒" d="M50.97,73.25c0.1,0.95-0.01,1.98-0.51,2.8c-2.24,3.71-6.97,8.41-14.58,13.71" transform="matrix(1,0,0,1,796,-4)" class="stroke_order_diagram--current_path"></path><path id="pathSk2v596cn28b6" kvg:type="㇒" d="M50.97,73.25c0.1,0.95-0.01,1.98-0.51,2.8c-2.24,3.71-6.97,8.41-14.58,13.71" transform="matrix(1,0,0,1,796,-4)" class="stroke_order_diagram--current_path"></path><circle cx="50.97" cy="73.25" r="8" class="stroke_order_diagram--path_start" transform="matrix(1,0,0,1,796,-4)"></circle><line x1="950" x2="950" y1="1" y2="99" class="stroke_order_diagram--guide_line"></line><line x1="999" x2="999" y1="1" y2="99" class="stroke_order_diagram--bounding_box"></line><path id="pathSk2v596cn28b9" kvg:type="㇇" d="M12.67,21.92c1.08,0.46,2.36,0.59,3.62,0.33c5.46-1.12,10.97-2.87,13.38-3.58c3.96-1.17,5.71,0.96,4.17,4.08C32.65,25.16,27.33,35.67,25,39" transform="matrix(1,0,0,1,896,-4)" class="stroke_order_diagram--existing_path"></path><path id="pathSk2v596cn28ba" kvg:type="㇕va" d="M25,39c13.62,8.62,8.38,34-0.83,26.5" transform="matrix(1,0,0,1,896,-4)" class="stroke_order_diagram--existing_path"></path><path id="pathSk2v596cn28bb" kvg:type="㇑" d="M14.37,23c0.81,0.81,0.96,2.12,0.96,3.25c0,0.85-0.11,39.5-0.11,59.75c0,3.74-0.07,6.44-0.11,7.5" transform="matrix(1,0,0,1,896,-4)" class="stroke_order_diagram--existing_path"></path><path id="pathSk2v596cn28bc" kvg:type="㇒" d="M62.56,12.75c0.08,0.92,0.05,2.44-0.42,3.7c-2.9,7.84-9.02,23.8-22.68,35.13" transform="matrix(1,0,0,1,896,-4)" class="stroke_order_diagram--existing_path"></path><path id="pathSk2v596cn28bd" kvg:type="㇏" d="M63.29,16.24c5.21,6.14,16.77,18.36,24.08,25.52c1.73,1.69,4.63,4.25,7.67,5.8" transform="matrix(1,0,0,1,896,-4)" class="stroke_order_diagram--existing_path"></path><path id="pathSk2v596cn28be" kvg:type="㇐" d="M52.75,46.93c1.17,0.48,3.24,0.45,4.5,0.35c5.51-0.43,13.63-1.47,18.62-1.98c1.37-0.14,2.26-0.3,3.88-0.17" transform="matrix(1,0,0,1,896,-4)" class="stroke_order_diagram--existing_path"></path><path id="pathSk2v596cn28bf" kvg:type="㇐" d="M45.99,63.16c2.14,0.72,4.27,0.63,6.02,0.51c9.12-0.67,22.7-2.39,30.65-2.74c1.69-0.07,2.96-0.08,3.81,0.11" transform="matrix(1,0,0,1,896,-4)" class="stroke_order_diagram--existing_path"></path><path id="pathSk2v596cn28bg" kvg:type="㇚" d="M65.04,49.05c1.08,1.08,1.46,2.32,1.46,4.05c0,18.93,0,31.76,0,36.52c0,10.8-5.96,1.92-7.4,0.72" transform="matrix(1,0,0,1,896,-4)" class="stroke_order_diagram--existing_path"></path><path id="pathSk2v596cn28bh" kvg:type="㇒" d="M50.97,73.25c0.1,0.95-0.01,1.98-0.51,2.8c-2.24,3.71-6.97,8.41-14.58,13.71" transform="matrix(1,0,0,1,896,-4)" class="stroke_order_diagram--existing_path"></path><path id="kvg:09664-s10" kvg:type="㇔" d="M77.38,73.62c4.71,2.75,12.16,11.3,13.34,15.58" transform="matrix(1,0,0,1,896,-4)" class="stroke_order_diagram--current_path"></path><path id="pathSk2v596cn28bj" kvg:type="㇔" d="M77.38,73.62c4.71,2.75,12.16,11.3,13.34,15.58" transform="matrix(1,0,0,1,896,-4)" class="stroke_order_diagram--current_path"></path><circle cx="77.38" cy="73.62" r="8" class="stroke_order_diagram--path_start" transform="matrix(1,0,0,1,896,-4)"></circle></svg>