<svg style="width: 1200px; height: 100px;" viewbox="0 0 1200 100"><style>
.stroke_order_diagram--outer_container {
  width: 100%;
  overflow-x: auto;
  overflow-y: hidden;
}

.stroke_order_diagram--guide_line {
  fill: none;
  stroke: #ddd;
  stroke-width: 3;
  stroke-linecap: square;
  stroke-linejoin: square;
  stroke-dasharray:8, 8;
}

.stroke_order_diagram--bounding_box {
  fill: none;
  stroke: #ddd;
  stroke-width: 4;
  stroke-linecap: square;
  stroke-linejoin: square;
}

.stroke_order_diagram--current_path {
  fill: none;
  stroke: #000;
  stroke-width: 6;
  stroke-linecap: round;
  stroke-linejoin: round;
}

.stroke_order_diagram--existing_path {
  fill: none;
  stroke: #aaa;
  stroke-width: 6;
  stroke-linecap: round;
  stroke-linejoin:round;
}

.stroke_order_diagram--path_start {
  fill: rgba(255, 0, 0, 0.7);
  stroke:none
}</style><desc>Created with Snap</desc><defs></defs><line x1="1" x2="1199" y1="1" y2="1" class="stroke_order_diagram--bounding_box"></line><line x1="1" x2="1" y1="1" y2="99" class="stroke_order_diagram--bounding_box"></line><line x1="1" x2="1199" y1="99" y2="99" class="stroke_order_diagram--bounding_box"></line><line x1="0" x2="1200" y1="50" y2="50" class="stroke_order_diagram--guide_line"></line><line x1="50" x2="50" y1="1" y2="99" class="stroke_order_diagram--guide_line"></line><line x1="99" x2="99" y1="1" y2="99" class="stroke_order_diagram--bounding_box"></line><path id="kvg:0967d-s1" kvg:type="㇇" d="M15.92,18.17c1.46,0.71,3.08,0.72,3.84,0.62c5.12-0.66,9.74-1.41,12.91-2.12c3.09-0.69,4.27,1.63,3.17,4.08C34.38,24,30.5,32.38,28,37" transform="matrix(1,0,0,1,-4,-4)" class="stroke_order_diagram--current_path"></path><path id="pathSk2v596cnoen" kvg:type="㇇" d="M15.92,18.17c1.46,0.71,3.08,0.72,3.84,0.62c5.12-0.66,9.74-1.41,12.91-2.12c3.09-0.69,4.27,1.63,3.17,4.08C34.38,24,30.5,32.38,28,37" transform="matrix(1,0,0,1,-4,-4)" class="stroke_order_diagram--current_path"></path><circle cx="15.92" cy="18.17" r="8" class="stroke_order_diagram--path_start" transform="matrix(1,0,0,1,-4,-4)"></circle><line x1="150" x2="150" y1="1" y2="99" class="stroke_order_diagram--guide_line"></line><line x1="199" x2="199" y1="1" y2="99" class="stroke_order_diagram--bounding_box"></line><path id="pathSk2v596cnoeq" kvg:type="㇇" d="M15.92,18.17c1.46,0.71,3.08,0.72,3.84,0.62c5.12-0.66,9.74-1.41,12.91-2.12c3.09-0.69,4.27,1.63,3.17,4.08C34.38,24,30.5,32.38,28,37" transform="matrix(1,0,0,1,96,-4)" class="stroke_order_diagram--existing_path"></path><path id="kvg:0967d-s2" kvg:type="㇕va" d="M27.75,37.5c14.12,9.75,9.12,35.5-0.58,26.75" transform="matrix(1,0,0,1,96,-4)" class="stroke_order_diagram--current_path"></path><path id="pathSk2v596cnoes" kvg:type="㇕va" d="M27.75,37.5c14.12,9.75,9.12,35.5-0.58,26.75" transform="matrix(1,0,0,1,96,-4)" class="stroke_order_diagram--current_path"></path><circle cx="27.75" cy="37.5" r="8" class="stroke_order_diagram--path_start" transform="matrix(1,0,0,1,96,-4)"></circle><line x1="250" x2="250" y1="1" y2="99" class="stroke_order_diagram--guide_line"></line><line x1="299" x2="299" y1="1" y2="99" class="stroke_order_diagram--bounding_box"></line><path id="pathSk2v596cnoev" kvg:type="㇇" d="M15.92,18.17c1.46,0.71,3.08,0.72,3.84,0.62c5.12-0.66,9.74-1.41,12.91-2.12c3.09-0.69,4.27,1.63,3.17,4.08C34.38,24,30.5,32.38,28,37" transform="matrix(1,0,0,1,196,-4)" class="stroke_order_diagram--existing_path"></path><path id="pathSk2v596cnoew" kvg:type="㇕va" d="M27.75,37.5c14.12,9.75,9.12,35.5-0.58,26.75" transform="matrix(1,0,0,1,196,-4)" class="stroke_order_diagram--existing_path"></path><path id="kvg:0967d-s3" kvg:type="㇑" d="M17.12,18.75c0.63,0.63,1.21,1.73,1.21,2.75c0,2.84,0.02,48.88,0.03,67.12c0,3.44,0,5.88,0,6.88" transform="matrix(1,0,0,1,196,-4)" class="stroke_order_diagram--current_path"></path><path id="pathSk2v596cnoey" kvg:type="㇑" d="M17.12,18.75c0.63,0.63,1.21,1.73,1.21,2.75c0,2.84,0.02,48.88,0.03,67.12c0,3.44,0,5.88,0,6.88" transform="matrix(1,0,0,1,196,-4)" class="stroke_order_diagram--current_path"></path><circle cx="17.12" cy="18.75" r="8" class="stroke_order_diagram--path_start" transform="matrix(1,0,0,1,196,-4)"></circle><line x1="350" x2="350" y1="1" y2="99" class="stroke_order_diagram--guide_line"></line><line x1="399" x2="399" y1="1" y2="99" class="stroke_order_diagram--bounding_box"></line><path id="pathSk2v596cnof1" kvg:type="㇇" d="M15.92,18.17c1.46,0.71,3.08,0.72,3.84,0.62c5.12-0.66,9.74-1.41,12.91-2.12c3.09-0.69,4.27,1.63,3.17,4.08C34.38,24,30.5,32.38,28,37" transform="matrix(1,0,0,1,296,-4)" class="stroke_order_diagram--existing_path"></path><path id="pathSk2v596cnof2" kvg:type="㇕va" d="M27.75,37.5c14.12,9.75,9.12,35.5-0.58,26.75" transform="matrix(1,0,0,1,296,-4)" class="stroke_order_diagram--existing_path"></path><path id="pathSk2v596cnof3" kvg:type="㇑" d="M17.12,18.75c0.63,0.63,1.21,1.73,1.21,2.75c0,2.84,0.02,48.88,0.03,67.12c0,3.44,0,5.88,0,6.88" transform="matrix(1,0,0,1,296,-4)" class="stroke_order_diagram--existing_path"></path><path id="kvg:0967d-s4" kvg:type="㇑" d="M50.82,15.51c0.84,0.84,1.43,1.62,1.56,2.83c0.57,5.28,1.27,10.88,2.38,18.91c0.1,0.77,0.21,1.56,0.33,2.37" transform="matrix(1,0,0,1,296,-4)" class="stroke_order_diagram--current_path"></path><path id="pathSk2v596cnof5" kvg:type="㇑" d="M50.82,15.51c0.84,0.84,1.43,1.62,1.56,2.83c0.57,5.28,1.27,10.88,2.38,18.91c0.1,0.77,0.21,1.56,0.33,2.37" transform="matrix(1,0,0,1,296,-4)" class="stroke_order_diagram--current_path"></path><circle cx="50.82" cy="15.51" r="8" class="stroke_order_diagram--path_start" transform="matrix(1,0,0,1,296,-4)"></circle><line x1="450" x2="450" y1="1" y2="99" class="stroke_order_diagram--guide_line"></line><line x1="499" x2="499" y1="1" y2="99" class="stroke_order_diagram--bounding_box"></line><path id="pathSk2v596cnof8" kvg:type="㇇" d="M15.92,18.17c1.46,0.71,3.08,0.72,3.84,0.62c5.12-0.66,9.74-1.41,12.91-2.12c3.09-0.69,4.27,1.63,3.17,4.08C34.38,24,30.5,32.38,28,37" transform="matrix(1,0,0,1,396,-4)" class="stroke_order_diagram--existing_path"></path><path id="pathSk2v596cnof9" kvg:type="㇕va" d="M27.75,37.5c14.12,9.75,9.12,35.5-0.58,26.75" transform="matrix(1,0,0,1,396,-4)" class="stroke_order_diagram--existing_path"></path><path id="pathSk2v596cnofa" kvg:type="㇑" d="M17.12,18.75c0.63,0.63,1.21,1.73,1.21,2.75c0,2.84,0.02,48.88,0.03,67.12c0,3.44,0,5.88,0,6.88" transform="matrix(1,0,0,1,396,-4)" class="stroke_order_diagram--existing_path"></path><path id="pathSk2v596cnofb" kvg:type="㇑" d="M50.82,15.51c0.84,0.84,1.43,1.62,1.56,2.83c0.57,5.28,1.27,10.88,2.38,18.91c0.1,0.77,0.21,1.56,0.33,2.37" transform="matrix(1,0,0,1,396,-4)" class="stroke_order_diagram--existing_path"></path><path id="kvg:0967d-s5" kvg:type="㇕a" d="M52.57,16.66c4.86-0.65,18.44-2.69,26.08-3.46c3.1-0.31,4.54,1.08,4.15,3.69c-0.92,6.11-2.27,12.97-3.63,18.15c-0.24,0.92-0.47,1.78-0.69,2.56" transform="matrix(1,0,0,1,396,-4)" class="stroke_order_diagram--current_path"></path><path id="pathSk2v596cnofd" kvg:type="㇕a" d="M52.57,16.66c4.86-0.65,18.44-2.69,26.08-3.46c3.1-0.31,4.54,1.08,4.15,3.69c-0.92,6.11-2.27,12.97-3.63,18.15c-0.24,0.92-0.47,1.78-0.69,2.56" transform="matrix(1,0,0,1,396,-4)" class="stroke_order_diagram--current_path"></path><circle cx="52.57" cy="16.66" r="8" class="stroke_order_diagram--path_start" transform="matrix(1,0,0,1,396,-4)"></circle><line x1="550" x2="550" y1="1" y2="99" class="stroke_order_diagram--guide_line"></line><line x1="599" x2="599" y1="1" y2="99" class="stroke_order_diagram--bounding_box"></line><path id="pathSk2v596cnofg" kvg:type="㇇" d="M15.92,18.17c1.46,0.71,3.08,0.72,3.84,0.62c5.12-0.66,9.74-1.41,12.91-2.12c3.09-0.69,4.27,1.63,3.17,4.08C34.38,24,30.5,32.38,28,37" transform="matrix(1,0,0,1,496,-4)" class="stroke_order_diagram--existing_path"></path><path id="pathSk2v596cnofh" kvg:type="㇕va" d="M27.75,37.5c14.12,9.75,9.12,35.5-0.58,26.75" transform="matrix(1,0,0,1,496,-4)" class="stroke_order_diagram--existing_path"></path><path id="pathSk2v596cnofi" kvg:type="㇑" d="M17.12,18.75c0.63,0.63,1.21,1.73,1.21,2.75c0,2.84,0.02,48.88,0.03,67.12c0,3.44,0,5.88,0,6.88" transform="matrix(1,0,0,1,496,-4)" class="stroke_order_diagram--existing_path"></path><path id="pathSk2v596cnofj" kvg:type="㇑" d="M50.82,15.51c0.84,0.84,1.43,1.62,1.56,2.83c0.57,5.28,1.27,10.88,2.38,18.91c0.1,0.77,0.21,1.56,0.33,2.37" transform="matrix(1,0,0,1,496,-4)" class="stroke_order_diagram--existing_path"></path><path id="pathSk2v596cnofk" kvg:type="㇕a" d="M52.57,16.66c4.86-0.65,18.44-2.69,26.08-3.46c3.1-0.31,4.54,1.08,4.15,3.69c-0.92,6.11-2.27,12.97-3.63,18.15c-0.24,0.92-0.47,1.78-0.69,2.56" transform="matrix(1,0,0,1,496,-4)" class="stroke_order_diagram--existing_path"></path><path id="kvg:0967d-s6" kvg:type="㇐a" d="M54.65,26.85c3.72-0.48,18.6-2.35,25.91-2.68" transform="matrix(1,0,0,1,496,-4)" class="stroke_order_diagram--current_path"></path><path id="pathSk2v596cnofm" kvg:type="㇐a" d="M54.65,26.85c3.72-0.48,18.6-2.35,25.91-2.68" transform="matrix(1,0,0,1,496,-4)" class="stroke_order_diagram--current_path"></path><circle cx="54.65" cy="26.85" r="8" class="stroke_order_diagram--path_start" transform="matrix(1,0,0,1,496,-4)"></circle><line x1="650" x2="650" y1="1" y2="99" class="stroke_order_diagram--guide_line"></line><line x1="699" x2="699" y1="1" y2="99" class="stroke_order_diagram--bounding_box"></line><path id="pathSk2v596cnofp" kvg:type="㇇" d="M15.92,18.17c1.46,0.71,3.08,0.72,3.84,0.62c5.12-0.66,9.74-1.41,12.91-2.12c3.09-0.69,4.27,1.63,3.17,4.08C34.38,24,30.5,32.38,28,37" transform="matrix(1,0,0,1,596,-4)" class="stroke_order_diagram--existing_path"></path><path id="pathSk2v596cnofq" kvg:type="㇕va" d="M27.75,37.5c14.12,9.75,9.12,35.5-0.58,26.75" transform="matrix(1,0,0,1,596,-4)" class="stroke_order_diagram--existing_path"></path><path id="pathSk2v596cnofr" kvg:type="㇑" d="M17.12,18.75c0.63,0.63,1.21,1.73,1.21,2.75c0,2.84,0.02,48.88,0.03,67.12c0,3.44,0,5.88,0,6.88" transform="matrix(1,0,0,1,596,-4)" class="stroke_order_diagram--existing_path"></path><path id="pathSk2v596cnofs" kvg:type="㇑" d="M50.82,15.51c0.84,0.84,1.43,1.62,1.56,2.83c0.57,5.28,1.27,10.88,2.38,18.91c0.1,0.77,0.21,1.56,0.33,2.37" transform="matrix(1,0,0,1,596,-4)" class="stroke_order_diagram--existing_path"></path><path id="pathSk2v596cnoft" kvg:type="㇕a" d="M52.57,16.66c4.86-0.65,18.44-2.69,26.08-3.46c3.1-0.31,4.54,1.08,4.15,3.69c-0.92,6.11-2.27,12.97-3.63,18.15c-0.24,0.92-0.47,1.78-0.69,2.56" transform="matrix(1,0,0,1,596,-4)" class="stroke_order_diagram--existing_path"></path><path id="pathSk2v596cnofu" kvg:type="㇐a" d="M54.65,26.85c3.72-0.48,18.6-2.35,25.91-2.68" transform="matrix(1,0,0,1,596,-4)" class="stroke_order_diagram--existing_path"></path><path id="kvg:0967d-s7" kvg:type="㇐a" d="M55.85,37.78c4.37-0.55,16.64-1.95,22.08-2.42" transform="matrix(1,0,0,1,596,-4)" class="stroke_order_diagram--current_path"></path><path id="pathSk2v596cnofw" kvg:type="㇐a" d="M55.85,37.78c4.37-0.55,16.64-1.95,22.08-2.42" transform="matrix(1,0,0,1,596,-4)" class="stroke_order_diagram--current_path"></path><circle cx="55.85" cy="37.78" r="8" class="stroke_order_diagram--path_start" transform="matrix(1,0,0,1,596,-4)"></circle><line x1="750" x2="750" y1="1" y2="99" class="stroke_order_diagram--guide_line"></line><line x1="799" x2="799" y1="1" y2="99" class="stroke_order_diagram--bounding_box"></line><path id="pathSk2v596cnofz" kvg:type="㇇" d="M15.92,18.17c1.46,0.71,3.08,0.72,3.84,0.62c5.12-0.66,9.74-1.41,12.91-2.12c3.09-0.69,4.27,1.63,3.17,4.08C34.38,24,30.5,32.38,28,37" transform="matrix(1,0,0,1,696,-4)" class="stroke_order_diagram--existing_path"></path><path id="pathSk2v596cnog0" kvg:type="㇕va" d="M27.75,37.5c14.12,9.75,9.12,35.5-0.58,26.75" transform="matrix(1,0,0,1,696,-4)" class="stroke_order_diagram--existing_path"></path><path id="pathSk2v596cnog1" kvg:type="㇑" d="M17.12,18.75c0.63,0.63,1.21,1.73,1.21,2.75c0,2.84,0.02,48.88,0.03,67.12c0,3.44,0,5.88,0,6.88" transform="matrix(1,0,0,1,696,-4)" class="stroke_order_diagram--existing_path"></path><path id="pathSk2v596cnog2" kvg:type="㇑" d="M50.82,15.51c0.84,0.84,1.43,1.62,1.56,2.83c0.57,5.28,1.27,10.88,2.38,18.91c0.1,0.77,0.21,1.56,0.33,2.37" transform="matrix(1,0,0,1,696,-4)" class="stroke_order_diagram--existing_path"></path><path id="pathSk2v596cnog3" kvg:type="㇕a" d="M52.57,16.66c4.86-0.65,18.44-2.69,26.08-3.46c3.1-0.31,4.54,1.08,4.15,3.69c-0.92,6.11-2.27,12.97-3.63,18.15c-0.24,0.92-0.47,1.78-0.69,2.56" transform="matrix(1,0,0,1,696,-4)" class="stroke_order_diagram--existing_path"></path><path id="pathSk2v596cnog4" kvg:type="㇐a" d="M54.65,26.85c3.72-0.48,18.6-2.35,25.91-2.68" transform="matrix(1,0,0,1,696,-4)" class="stroke_order_diagram--existing_path"></path><path id="pathSk2v596cnog5" kvg:type="㇐a" d="M55.85,37.78c4.37-0.55,16.64-1.95,22.08-2.42" transform="matrix(1,0,0,1,696,-4)" class="stroke_order_diagram--existing_path"></path><path id="kvg:0967d-s8" kvg:type="㇐" d="M42.84,49.6c2.8,0.45,5.65,0.52,8.92,0.02c8.87-1.37,25.62-3.12,35.85-3.88c2.56-0.19,5.23-0.32,7.77,0.17" transform="matrix(1,0,0,1,696,-4)" class="stroke_order_diagram--current_path"></path><path id="pathSk2v596cnog7" kvg:type="㇐" d="M42.84,49.6c2.8,0.45,5.65,0.52,8.92,0.02c8.87-1.37,25.62-3.12,35.85-3.88c2.56-0.19,5.23-0.32,7.77,0.17" transform="matrix(1,0,0,1,696,-4)" class="stroke_order_diagram--current_path"></path><circle cx="42.84" cy="49.6" r="8" class="stroke_order_diagram--path_start" transform="matrix(1,0,0,1,696,-4)"></circle><line x1="850" x2="850" y1="1" y2="99" class="stroke_order_diagram--guide_line"></line><line x1="899" x2="899" y1="1" y2="99" class="stroke_order_diagram--bounding_box"></line><path id="pathSk2v596cnoga" kvg:type="㇇" d="M15.92,18.17c1.46,0.71,3.08,0.72,3.84,0.62c5.12-0.66,9.74-1.41,12.91-2.12c3.09-0.69,4.27,1.63,3.17,4.08C34.38,24,30.5,32.38,28,37" transform="matrix(1,0,0,1,796,-4)" class="stroke_order_diagram--existing_path"></path><path id="pathSk2v596cnogb" kvg:type="㇕va" d="M27.75,37.5c14.12,9.75,9.12,35.5-0.58,26.75" transform="matrix(1,0,0,1,796,-4)" class="stroke_order_diagram--existing_path"></path><path id="pathSk2v596cnogc" kvg:type="㇑" d="M17.12,18.75c0.63,0.63,1.21,1.73,1.21,2.75c0,2.84,0.02,48.88,0.03,67.12c0,3.44,0,5.88,0,6.88" transform="matrix(1,0,0,1,796,-4)" class="stroke_order_diagram--existing_path"></path><path id="pathSk2v596cnogd" kvg:type="㇑" d="M50.82,15.51c0.84,0.84,1.43,1.62,1.56,2.83c0.57,5.28,1.27,10.88,2.38,18.91c0.1,0.77,0.21,1.56,0.33,2.37" transform="matrix(1,0,0,1,796,-4)" class="stroke_order_diagram--existing_path"></path><path id="pathSk2v596cnoge" kvg:type="㇕a" d="M52.57,16.66c4.86-0.65,18.44-2.69,26.08-3.46c3.1-0.31,4.54,1.08,4.15,3.69c-0.92,6.11-2.27,12.97-3.63,18.15c-0.24,0.92-0.47,1.78-0.69,2.56" transform="matrix(1,0,0,1,796,-4)" class="stroke_order_diagram--existing_path"></path><path id="pathSk2v596cnogf" kvg:type="㇐a" d="M54.65,26.85c3.72-0.48,18.6-2.35,25.91-2.68" transform="matrix(1,0,0,1,796,-4)" class="stroke_order_diagram--existing_path"></path><path id="pathSk2v596cnogg" kvg:type="㇐a" d="M55.85,37.78c4.37-0.55,16.64-1.95,22.08-2.42" transform="matrix(1,0,0,1,796,-4)" class="stroke_order_diagram--existing_path"></path><path id="pathSk2v596cnogh" kvg:type="㇐" d="M42.84,49.6c2.8,0.45,5.65,0.52,8.92,0.02c8.87-1.37,25.62-3.12,35.85-3.88c2.56-0.19,5.23-0.32,7.77,0.17" transform="matrix(1,0,0,1,796,-4)" class="stroke_order_diagram--existing_path"></path><path id="kvg:0967d-s9" kvg:type="㇒" d="M56.88,52.12c-0.04,0.49-0.07,1.29-0.43,1.97c-1.96,3.64-8.75,12.41-18.01,17.74" transform="matrix(1,0,0,1,796,-4)" class="stroke_order_diagram--current_path"></path><path id="pathSk2v596cnogj" kvg:type="㇒" d="M56.88,52.12c-0.04,0.49-0.07,1.29-0.43,1.97c-1.96,3.64-8.75,12.41-18.01,17.74" transform="matrix(1,0,0,1,796,-4)" class="stroke_order_diagram--current_path"></path><circle cx="56.88" cy="52.12" r="8" class="stroke_order_diagram--path_start" transform="matrix(1,0,0,1,796,-4)"></circle><line x1="950" x2="950" y1="1" y2="99" class="stroke_order_diagram--guide_line"></line><line x1="999" x2="999" y1="1" y2="99" class="stroke_order_diagram--bounding_box"></line><path id="pathSk2v596cnogm" kvg:type="㇇" d="M15.92,18.17c1.46,0.71,3.08,0.72,3.84,0.62c5.12-0.66,9.74-1.41,12.91-2.12c3.09-0.69,4.27,1.63,3.17,4.08C34.38,24,30.5,32.38,28,37" transform="matrix(1,0,0,1,896,-4)" class="stroke_order_diagram--existing_path"></path><path id="pathSk2v596cnogn" kvg:type="㇕va" d="M27.75,37.5c14.12,9.75,9.12,35.5-0.58,26.75" transform="matrix(1,0,0,1,896,-4)" class="stroke_order_diagram--existing_path"></path><path id="pathSk2v596cnogo" kvg:type="㇑" d="M17.12,18.75c0.63,0.63,1.21,1.73,1.21,2.75c0,2.84,0.02,48.88,0.03,67.12c0,3.44,0,5.88,0,6.88" transform="matrix(1,0,0,1,896,-4)" class="stroke_order_diagram--existing_path"></path><path id="pathSk2v596cnogp" kvg:type="㇑" d="M50.82,15.51c0.84,0.84,1.43,1.62,1.56,2.83c0.57,5.28,1.27,10.88,2.38,18.91c0.1,0.77,0.21,1.56,0.33,2.37" transform="matrix(1,0,0,1,896,-4)" class="stroke_order_diagram--existing_path"></path><path id="pathSk2v596cnogq" kvg:type="㇕a" d="M52.57,16.66c4.86-0.65,18.44-2.69,26.08-3.46c3.1-0.31,4.54,1.08,4.15,3.69c-0.92,6.11-2.27,12.97-3.63,18.15c-0.24,0.92-0.47,1.78-0.69,2.56" transform="matrix(1,0,0,1,896,-4)" class="stroke_order_diagram--existing_path"></path><path id="pathSk2v596cnogr" kvg:type="㇐a" d="M54.65,26.85c3.72-0.48,18.6-2.35,25.91-2.68" transform="matrix(1,0,0,1,896,-4)" class="stroke_order_diagram--existing_path"></path><path id="pathSk2v596cnogs" kvg:type="㇐a" d="M55.85,37.78c4.37-0.55,16.64-1.95,22.08-2.42" transform="matrix(1,0,0,1,896,-4)" class="stroke_order_diagram--existing_path"></path><path id="pathSk2v596cnogt" kvg:type="㇐" d="M42.84,49.6c2.8,0.45,5.65,0.52,8.92,0.02c8.87-1.37,25.62-3.12,35.85-3.88c2.56-0.19,5.23-0.32,7.77,0.17" transform="matrix(1,0,0,1,896,-4)" class="stroke_order_diagram--existing_path"></path><path id="pathSk2v596cnogu" kvg:type="㇒" d="M56.88,52.12c-0.04,0.49-0.07,1.29-0.43,1.97c-1.96,3.64-8.75,12.41-18.01,17.74" transform="matrix(1,0,0,1,896,-4)" class="stroke_order_diagram--existing_path"></path><path id="kvg:0967d-s10" kvg:type="㇆" d="M57.3,59.95c0.99,0.57,2.77,0.66,3.76,0.6c2.81-0.18,24.14-2.57,27.72-2.68c3.58-0.11,4.23,2.57,3.28,5.82c-1.41,4.82-4.02,17.2-11.36,28.36c-3.13,4.75-5.36,5.45-9.33,1.18" transform="matrix(1,0,0,1,896,-4)" class="stroke_order_diagram--current_path"></path><path id="pathSk2v596cnogw" kvg:type="㇆" d="M57.3,59.95c0.99,0.57,2.77,0.66,3.76,0.6c2.81-0.18,24.14-2.57,27.72-2.68c3.58-0.11,4.23,2.57,3.28,5.82c-1.41,4.82-4.02,17.2-11.36,28.36c-3.13,4.75-5.36,5.45-9.33,1.18" transform="matrix(1,0,0,1,896,-4)" class="stroke_order_diagram--current_path"></path><circle cx="57.3" cy="59.95" r="8" class="stroke_order_diagram--path_start" transform="matrix(1,0,0,1,896,-4)"></circle><line x1="1050" x2="1050" y1="1" y2="99" class="stroke_order_diagram--guide_line"></line><line x1="1099" x2="1099" y1="1" y2="99" class="stroke_order_diagram--bounding_box"></line><path id="pathSk2v596cnogz" kvg:type="㇇" d="M15.92,18.17c1.46,0.71,3.08,0.72,3.84,0.62c5.12-0.66,9.74-1.41,12.91-2.12c3.09-0.69,4.27,1.63,3.17,4.08C34.38,24,30.5,32.38,28,37" transform="matrix(1,0,0,1,996,-4)" class="stroke_order_diagram--existing_path"></path><path id="pathSk2v596cnoh0" kvg:type="㇕va" d="M27.75,37.5c14.12,9.75,9.12,35.5-0.58,26.75" transform="matrix(1,0,0,1,996,-4)" class="stroke_order_diagram--existing_path"></path><path id="pathSk2v596cnoh1" kvg:type="㇑" d="M17.12,18.75c0.63,0.63,1.21,1.73,1.21,2.75c0,2.84,0.02,48.88,0.03,67.12c0,3.44,0,5.88,0,6.88" transform="matrix(1,0,0,1,996,-4)" class="stroke_order_diagram--existing_path"></path><path id="pathSk2v596cnoh2" kvg:type="㇑" d="M50.82,15.51c0.84,0.84,1.43,1.62,1.56,2.83c0.57,5.28,1.27,10.88,2.38,18.91c0.1,0.77,0.21,1.56,0.33,2.37" transform="matrix(1,0,0,1,996,-4)" class="stroke_order_diagram--existing_path"></path><path id="pathSk2v596cnoh3" kvg:type="㇕a" d="M52.57,16.66c4.86-0.65,18.44-2.69,26.08-3.46c3.1-0.31,4.54,1.08,4.15,3.69c-0.92,6.11-2.27,12.97-3.63,18.15c-0.24,0.92-0.47,1.78-0.69,2.56" transform="matrix(1,0,0,1,996,-4)" class="stroke_order_diagram--existing_path"></path><path id="pathSk2v596cnoh4" kvg:type="㇐a" d="M54.65,26.85c3.72-0.48,18.6-2.35,25.91-2.68" transform="matrix(1,0,0,1,996,-4)" class="stroke_order_diagram--existing_path"></path><path id="pathSk2v596cnoh5" kvg:type="㇐a" d="M55.85,37.78c4.37-0.55,16.64-1.95,22.08-2.42" transform="matrix(1,0,0,1,996,-4)" class="stroke_order_diagram--existing_path"></path><path id="pathSk2v596cnoh6" kvg:type="㇐" d="M42.84,49.6c2.8,0.45,5.65,0.52,8.92,0.02c8.87-1.37,25.62-3.12,35.85-3.88c2.56-0.19,5.23-0.32,7.77,0.17" transform="matrix(1,0,0,1,996,-4)" class="stroke_order_diagram--existing_path"></path><path id="pathSk2v596cnoh7" kvg:type="㇒" d="M56.88,52.12c-0.04,0.49-0.07,1.29-0.43,1.97c-1.96,3.64-8.75,12.41-18.01,17.74" transform="matrix(1,0,0,1,996,-4)" class="stroke_order_diagram--existing_path"></path><path id="pathSk2v596cnoh8" kvg:type="㇆" d="M57.3,59.95c0.99,0.57,2.77,0.66,3.76,0.6c2.81-0.18,24.14-2.57,27.72-2.68c3.58-0.11,4.23,2.57,3.28,5.82c-1.41,4.82-4.02,17.2-11.36,28.36c-3.13,4.75-5.36,5.45-9.33,1.18" transform="matrix(1,0,0,1,996,-4)" class="stroke_order_diagram--existing_path"></path><path id="kvg:0967d-s11" kvg:type="㇒" d="M61.76,63.86c-0.02,0.41-0.04,1.06-0.38,1.63c-3.33,5.6-11.15,13.36-21.25,17.89" transform="matrix(1,0,0,1,996,-4)" class="stroke_order_diagram--current_path"></path><path id="pathSk2v596cnoha" kvg:type="㇒" d="M61.76,63.86c-0.02,0.41-0.04,1.06-0.38,1.63c-3.33,5.6-11.15,13.36-21.25,17.89" transform="matrix(1,0,0,1,996,-4)" class="stroke_order_diagram--current_path"></path><circle cx="61.76" cy="63.86" r="8" class="stroke_order_diagram--path_start" transform="matrix(1,0,0,1,996,-4)"></circle><line x1="1150" x2="1150" y1="1" y2="99" class="stroke_order_diagram--guide_line"></line><line x1="1199" x2="1199" y1="1" y2="99" class="stroke_order_diagram--bounding_box"></line><path id="pathSk2v596cnohd" kvg:type="㇇" d="M15.92,18.17c1.46,0.71,3.08,0.72,3.84,0.62c5.12-0.66,9.74-1.41,12.91-2.12c3.09-0.69,4.27,1.63,3.17,4.08C34.38,24,30.5,32.38,28,37" transform="matrix(1,0,0,1,1096,-4)" class="stroke_order_diagram--existing_path"></path><path id="pathSk2v596cnohe" kvg:type="㇕va" d="M27.75,37.5c14.12,9.75,9.12,35.5-0.58,26.75" transform="matrix(1,0,0,1,1096,-4)" class="stroke_order_diagram--existing_path"></path><path id="pathSk2v596cnohf" kvg:type="㇑" d="M17.12,18.75c0.63,0.63,1.21,1.73,1.21,2.75c0,2.84,0.02,48.88,0.03,67.12c0,3.44,0,5.88,0,6.88" transform="matrix(1,0,0,1,1096,-4)" class="stroke_order_diagram--existing_path"></path><path id="pathSk2v596cnohg" kvg:type="㇑" d="M50.82,15.51c0.84,0.84,1.43,1.62,1.56,2.83c0.57,5.28,1.27,10.88,2.38,18.91c0.1,0.77,0.21,1.56,0.33,2.37" transform="matrix(1,0,0,1,1096,-4)" class="stroke_order_diagram--existing_path"></path><path id="pathSk2v596cnohh" kvg:type="㇕a" d="M52.57,16.66c4.86-0.65,18.44-2.69,26.08-3.46c3.1-0.31,4.54,1.08,4.15,3.69c-0.92,6.11-2.27,12.97-3.63,18.15c-0.24,0.92-0.47,1.78-0.69,2.56" transform="matrix(1,0,0,1,1096,-4)" class="stroke_order_diagram--existing_path"></path><path id="pathSk2v596cnohi" kvg:type="㇐a" d="M54.65,26.85c3.72-0.48,18.6-2.35,25.91-2.68" transform="matrix(1,0,0,1,1096,-4)" class="stroke_order_diagram--existing_path"></path><path id="pathSk2v596cnohj" kvg:type="㇐a" d="M55.85,37.78c4.37-0.55,16.64-1.95,22.08-2.42" transform="matrix(1,0,0,1,1096,-4)" class="stroke_order_diagram--existing_path"></path><path id="pathSk2v596cnohk" kvg:type="㇐" d="M42.84,49.6c2.8,0.45,5.65,0.52,8.92,0.02c8.87-1.37,25.62-3.12,35.85-3.88c2.56-0.19,5.23-0.32,7.77,0.17" transform="matrix(1,0,0,1,1096,-4)" class="stroke_order_diagram--existing_path"></path><path id="pathSk2v596cnohl" kvg:type="㇒" d="M56.88,52.12c-0.04,0.49-0.07,1.29-0.43,1.97c-1.96,3.64-8.75,12.41-18.01,17.74" transform="matrix(1,0,0,1,1096,-4)" class="stroke_order_diagram--existing_path"></path><path id="pathSk2v596cnohm" kvg:type="㇆" d="M57.3,59.95c0.99,0.57,2.77,0.66,3.76,0.6c2.81-0.18,24.14-2.57,27.72-2.68c3.58-0.11,4.23,2.57,3.28,5.82c-1.41,4.82-4.02,17.2-11.36,28.36c-3.13,4.75-5.36,5.45-9.33,1.18" transform="matrix(1,0,0,1,1096,-4)" class="stroke_order_diagram--existing_path"></path><path id="pathSk2v596cnohn" kvg:type="㇒" d="M61.76,63.86c-0.02,0.41-0.04,1.06-0.38,1.63c-3.33,5.6-11.15,13.36-21.25,17.89" transform="matrix(1,0,0,1,1096,-4)" class="stroke_order_diagram--existing_path"></path><path id="kvg:0967d-s12" kvg:type="㇒" d="M77.03,62.32c-0.05,0.86-0.16,2.22-0.77,3.45c-3.57,7.25-14.39,20.38-30.19,28.08" transform="matrix(1,0,0,1,1096,-4)" class="stroke_order_diagram--current_path"></path><path id="pathSk2v596cnohp" kvg:type="㇒" d="M77.03,62.32c-0.05,0.86-0.16,2.22-0.77,3.45c-3.57,7.25-14.39,20.38-30.19,28.08" transform="matrix(1,0,0,1,1096,-4)" class="stroke_order_diagram--current_path"></path><circle cx="77.03" cy="62.32" r="8" class="stroke_order_diagram--path_start" transform="matrix(1,0,0,1,1096,-4)"></circle></svg>