<svg style="width: 1200px; height: 100px;" viewbox="0 0 1200 100"><style>
.stroke_order_diagram--outer_container {
  width: 100%;
  overflow-x: auto;
  overflow-y: hidden;
}

.stroke_order_diagram--guide_line {
  fill: none;
  stroke: #ddd;
  stroke-width: 3;
  stroke-linecap: square;
  stroke-linejoin: square;
  stroke-dasharray:8, 8;
}

.stroke_order_diagram--bounding_box {
  fill: none;
  stroke: #ddd;
  stroke-width: 4;
  stroke-linecap: square;
  stroke-linejoin: square;
}

.stroke_order_diagram--current_path {
  fill: none;
  stroke: #000;
  stroke-width: 6;
  stroke-linecap: round;
  stroke-linejoin: round;
}

.stroke_order_diagram--existing_path {
  fill: none;
  stroke: #aaa;
  stroke-width: 6;
  stroke-linecap: round;
  stroke-linejoin:round;
}

.stroke_order_diagram--path_start {
  fill: rgba(255, 0, 0, 0.7);
  stroke:none
}</style><desc>Created with Snap</desc><defs></defs><line x1="1" x2="1199" y1="1" y2="1" class="stroke_order_diagram--bounding_box"></line><line x1="1" x2="1" y1="1" y2="99" class="stroke_order_diagram--bounding_box"></line><line x1="1" x2="1199" y1="99" y2="99" class="stroke_order_diagram--bounding_box"></line><line x1="0" x2="1200" y1="50" y2="50" class="stroke_order_diagram--guide_line"></line><line x1="50" x2="50" y1="1" y2="99" class="stroke_order_diagram--guide_line"></line><line x1="99" x2="99" y1="1" y2="99" class="stroke_order_diagram--bounding_box"></line><path id="kvg:0968e-s1" kvg:type="㇇" d="M16.75,17c1.25,0.75,2.44,1.22,3.52,1.11c3.61-0.36,11.95-2.63,14.4-3.44c3-1,4.71,0.96,2.92,4.08C36.25,21.08,29.33,31.67,27,35" transform="matrix(1,0,0,1,-4,-4)" class="stroke_order_diagram--current_path"></path><path id="pathSk2v596cnoib" kvg:type="㇇" d="M16.75,17c1.25,0.75,2.44,1.22,3.52,1.11c3.61-0.36,11.95-2.63,14.4-3.44c3-1,4.71,0.96,2.92,4.08C36.25,21.08,29.33,31.67,27,35" transform="matrix(1,0,0,1,-4,-4)" class="stroke_order_diagram--current_path"></path><circle cx="16.75" cy="17" r="8" class="stroke_order_diagram--path_start" transform="matrix(1,0,0,1,-4,-4)"></circle><line x1="150" x2="150" y1="1" y2="99" class="stroke_order_diagram--guide_line"></line><line x1="199" x2="199" y1="1" y2="99" class="stroke_order_diagram--bounding_box"></line><path id="pathSk2v596cnoie" kvg:type="㇇" d="M16.75,17c1.25,0.75,2.44,1.22,3.52,1.11c3.61-0.36,11.95-2.63,14.4-3.44c3-1,4.71,0.96,2.92,4.08C36.25,21.08,29.33,31.67,27,35" transform="matrix(1,0,0,1,96,-4)" class="stroke_order_diagram--existing_path"></path><path id="kvg:0968e-s2" kvg:type="㇕va" d="M27,35c13.38,10.12,11.5,35.75,0.67,29" transform="matrix(1,0,0,1,96,-4)" class="stroke_order_diagram--current_path"></path><path id="pathSk2v596cnoig" kvg:type="㇕va" d="M27,35c13.38,10.12,11.5,35.75,0.67,29" transform="matrix(1,0,0,1,96,-4)" class="stroke_order_diagram--current_path"></path><circle cx="27" cy="35" r="8" class="stroke_order_diagram--path_start" transform="matrix(1,0,0,1,96,-4)"></circle><line x1="250" x2="250" y1="1" y2="99" class="stroke_order_diagram--guide_line"></line><line x1="299" x2="299" y1="1" y2="99" class="stroke_order_diagram--bounding_box"></line><path id="pathSk2v596cnoij" kvg:type="㇇" d="M16.75,17c1.25,0.75,2.44,1.22,3.52,1.11c3.61-0.36,11.95-2.63,14.4-3.44c3-1,4.71,0.96,2.92,4.08C36.25,21.08,29.33,31.67,27,35" transform="matrix(1,0,0,1,196,-4)" class="stroke_order_diagram--existing_path"></path><path id="pathSk2v596cnoik" kvg:type="㇕va" d="M27,35c13.38,10.12,11.5,35.75,0.67,29" transform="matrix(1,0,0,1,196,-4)" class="stroke_order_diagram--existing_path"></path><path id="kvg:0968e-s3" kvg:type="㇑" d="M17.62,17.5c0.81,0.81,0.96,2.12,0.96,3.25c0,0.9,0.05,53.46-0.14,70.25c-0.03,2.33-0.05,3.99-0.08,4.75" transform="matrix(1,0,0,1,196,-4)" class="stroke_order_diagram--current_path"></path><path id="pathSk2v596cnoim" kvg:type="㇑" d="M17.62,17.5c0.81,0.81,0.96,2.12,0.96,3.25c0,0.9,0.05,53.46-0.14,70.25c-0.03,2.33-0.05,3.99-0.08,4.75" transform="matrix(1,0,0,1,196,-4)" class="stroke_order_diagram--current_path"></path><circle cx="17.62" cy="17.5" r="8" class="stroke_order_diagram--path_start" transform="matrix(1,0,0,1,196,-4)"></circle><line x1="350" x2="350" y1="1" y2="99" class="stroke_order_diagram--guide_line"></line><line x1="399" x2="399" y1="1" y2="99" class="stroke_order_diagram--bounding_box"></line><path id="pathSk2v596cnoip" kvg:type="㇇" d="M16.75,17c1.25,0.75,2.44,1.22,3.52,1.11c3.61-0.36,11.95-2.63,14.4-3.44c3-1,4.71,0.96,2.92,4.08C36.25,21.08,29.33,31.67,27,35" transform="matrix(1,0,0,1,296,-4)" class="stroke_order_diagram--existing_path"></path><path id="pathSk2v596cnoiq" kvg:type="㇕va" d="M27,35c13.38,10.12,11.5,35.75,0.67,29" transform="matrix(1,0,0,1,296,-4)" class="stroke_order_diagram--existing_path"></path><path id="pathSk2v596cnoir" kvg:type="㇑" d="M17.62,17.5c0.81,0.81,0.96,2.12,0.96,3.25c0,0.9,0.05,53.46-0.14,70.25c-0.03,2.33-0.05,3.99-0.08,4.75" transform="matrix(1,0,0,1,296,-4)" class="stroke_order_diagram--existing_path"></path><path id="kvg:0968e-s4" kvg:type="㇐b" d="M49.25,30c3.25-0.75,7.91-1.73,10-2.25c1.5-0.38,3-0.5,3.75-0.25" transform="matrix(1,0,0,1,296,-4)" class="stroke_order_diagram--current_path"></path><path id="pathSk2v596cnoit" kvg:type="㇐b" d="M49.25,30c3.25-0.75,7.91-1.73,10-2.25c1.5-0.38,3-0.5,3.75-0.25" transform="matrix(1,0,0,1,296,-4)" class="stroke_order_diagram--current_path"></path><circle cx="49.25" cy="30" r="8" class="stroke_order_diagram--path_start" transform="matrix(1,0,0,1,296,-4)"></circle><line x1="450" x2="450" y1="1" y2="99" class="stroke_order_diagram--guide_line"></line><line x1="499" x2="499" y1="1" y2="99" class="stroke_order_diagram--bounding_box"></line><path id="pathSk2v596cnoiw" kvg:type="㇇" d="M16.75,17c1.25,0.75,2.44,1.22,3.52,1.11c3.61-0.36,11.95-2.63,14.4-3.44c3-1,4.71,0.96,2.92,4.08C36.25,21.08,29.33,31.67,27,35" transform="matrix(1,0,0,1,396,-4)" class="stroke_order_diagram--existing_path"></path><path id="pathSk2v596cnoix" kvg:type="㇕va" d="M27,35c13.38,10.12,11.5,35.75,0.67,29" transform="matrix(1,0,0,1,396,-4)" class="stroke_order_diagram--existing_path"></path><path id="pathSk2v596cnoiy" kvg:type="㇑" d="M17.62,17.5c0.81,0.81,0.96,2.12,0.96,3.25c0,0.9,0.05,53.46-0.14,70.25c-0.03,2.33-0.05,3.99-0.08,4.75" transform="matrix(1,0,0,1,396,-4)" class="stroke_order_diagram--existing_path"></path><path id="pathSk2v596cnoiz" kvg:type="㇐b" d="M49.25,30c3.25-0.75,7.91-1.73,10-2.25c1.5-0.38,3-0.5,3.75-0.25" transform="matrix(1,0,0,1,396,-4)" class="stroke_order_diagram--existing_path"></path><path id="kvg:0968e-s5" kvg:type="㇙" d="M47,14.89c0.9,0.58,1.26,1.66,1.26,2.49c0,3.37,0.54,28-0.03,31c-0.48,2.49,0.4,2.49,3.12,0.84c5.38-3.26,7.88-4.91,11.58-7.41" transform="matrix(1,0,0,1,396,-4)" class="stroke_order_diagram--current_path"></path><path id="pathSk2v596cnoj1" kvg:type="㇙" d="M47,14.89c0.9,0.58,1.26,1.66,1.26,2.49c0,3.37,0.54,28-0.03,31c-0.48,2.49,0.4,2.49,3.12,0.84c5.38-3.26,7.88-4.91,11.58-7.41" transform="matrix(1,0,0,1,396,-4)" class="stroke_order_diagram--current_path"></path><circle cx="47" cy="14.89" r="8" class="stroke_order_diagram--path_start" transform="matrix(1,0,0,1,396,-4)"></circle><line x1="550" x2="550" y1="1" y2="99" class="stroke_order_diagram--guide_line"></line><line x1="599" x2="599" y1="1" y2="99" class="stroke_order_diagram--bounding_box"></line><path id="pathSk2v596cnoj4" kvg:type="㇇" d="M16.75,17c1.25,0.75,2.44,1.22,3.52,1.11c3.61-0.36,11.95-2.63,14.4-3.44c3-1,4.71,0.96,2.92,4.08C36.25,21.08,29.33,31.67,27,35" transform="matrix(1,0,0,1,496,-4)" class="stroke_order_diagram--existing_path"></path><path id="pathSk2v596cnoj5" kvg:type="㇕va" d="M27,35c13.38,10.12,11.5,35.75,0.67,29" transform="matrix(1,0,0,1,496,-4)" class="stroke_order_diagram--existing_path"></path><path id="pathSk2v596cnoj6" kvg:type="㇑" d="M17.62,17.5c0.81,0.81,0.96,2.12,0.96,3.25c0,0.9,0.05,53.46-0.14,70.25c-0.03,2.33-0.05,3.99-0.08,4.75" transform="matrix(1,0,0,1,496,-4)" class="stroke_order_diagram--existing_path"></path><path id="pathSk2v596cnoj7" kvg:type="㇐b" d="M49.25,30c3.25-0.75,7.91-1.73,10-2.25c1.5-0.38,3-0.5,3.75-0.25" transform="matrix(1,0,0,1,496,-4)" class="stroke_order_diagram--existing_path"></path><path id="pathSk2v596cnoj8" kvg:type="㇙" d="M47,14.89c0.9,0.58,1.26,1.66,1.26,2.49c0,3.37,0.54,28-0.03,31c-0.48,2.49,0.4,2.49,3.12,0.84c5.38-3.26,7.88-4.91,11.58-7.41" transform="matrix(1,0,0,1,496,-4)" class="stroke_order_diagram--existing_path"></path><path id="kvg:0968e-s6" kvg:type="㇒" d="M91.08,17.76c0,1.11-0.64,1.98-1.08,2.39c-3.75,3.47-7.75,6.72-16.41,10.93" transform="matrix(1,0,0,1,496,-4)" class="stroke_order_diagram--current_path"></path><path id="pathSk2v596cnoja" kvg:type="㇒" d="M91.08,17.76c0,1.11-0.64,1.98-1.08,2.39c-3.75,3.47-7.75,6.72-16.41,10.93" transform="matrix(1,0,0,1,496,-4)" class="stroke_order_diagram--current_path"></path><circle cx="91.08" cy="17.76" r="8" class="stroke_order_diagram--path_start" transform="matrix(1,0,0,1,496,-4)"></circle><line x1="650" x2="650" y1="1" y2="99" class="stroke_order_diagram--guide_line"></line><line x1="699" x2="699" y1="1" y2="99" class="stroke_order_diagram--bounding_box"></line><path id="pathSk2v596cnojd" kvg:type="㇇" d="M16.75,17c1.25,0.75,2.44,1.22,3.52,1.11c3.61-0.36,11.95-2.63,14.4-3.44c3-1,4.71,0.96,2.92,4.08C36.25,21.08,29.33,31.67,27,35" transform="matrix(1,0,0,1,596,-4)" class="stroke_order_diagram--existing_path"></path><path id="pathSk2v596cnoje" kvg:type="㇕va" d="M27,35c13.38,10.12,11.5,35.75,0.67,29" transform="matrix(1,0,0,1,596,-4)" class="stroke_order_diagram--existing_path"></path><path id="pathSk2v596cnojf" kvg:type="㇑" d="M17.62,17.5c0.81,0.81,0.96,2.12,0.96,3.25c0,0.9,0.05,53.46-0.14,70.25c-0.03,2.33-0.05,3.99-0.08,4.75" transform="matrix(1,0,0,1,596,-4)" class="stroke_order_diagram--existing_path"></path><path id="pathSk2v596cnojg" kvg:type="㇐b" d="M49.25,30c3.25-0.75,7.91-1.73,10-2.25c1.5-0.38,3-0.5,3.75-0.25" transform="matrix(1,0,0,1,596,-4)" class="stroke_order_diagram--existing_path"></path><path id="pathSk2v596cnojh" kvg:type="㇙" d="M47,14.89c0.9,0.58,1.26,1.66,1.26,2.49c0,3.37,0.54,28-0.03,31c-0.48,2.49,0.4,2.49,3.12,0.84c5.38-3.26,7.88-4.91,11.58-7.41" transform="matrix(1,0,0,1,596,-4)" class="stroke_order_diagram--existing_path"></path><path id="pathSk2v596cnoji" kvg:type="㇒" d="M91.08,17.76c0,1.11-0.64,1.98-1.08,2.39c-3.75,3.47-7.75,6.72-16.41,10.93" transform="matrix(1,0,0,1,596,-4)" class="stroke_order_diagram--existing_path"></path><path id="kvg:0968e-s7" kvg:type="㇟" d="M71.35,13.25c0.7,0.7,1.12,1.77,1.12,2.52c0,3.1-0.19,21.07-0.19,23.35c0,8.12,0.71,9.2,11.58,9.2c9.76,0,10.7-0.95,10.7-7.65" transform="matrix(1,0,0,1,596,-4)" class="stroke_order_diagram--current_path"></path><path id="pathSk2v596cnojk" kvg:type="㇟" d="M71.35,13.25c0.7,0.7,1.12,1.77,1.12,2.52c0,3.1-0.19,21.07-0.19,23.35c0,8.12,0.71,9.2,11.58,9.2c9.76,0,10.7-0.95,10.7-7.65" transform="matrix(1,0,0,1,596,-4)" class="stroke_order_diagram--current_path"></path><circle cx="71.35" cy="13.25" r="8" class="stroke_order_diagram--path_start" transform="matrix(1,0,0,1,596,-4)"></circle><line x1="750" x2="750" y1="1" y2="99" class="stroke_order_diagram--guide_line"></line><line x1="799" x2="799" y1="1" y2="99" class="stroke_order_diagram--bounding_box"></line><path id="pathSk2v596cnojn" kvg:type="㇇" d="M16.75,17c1.25,0.75,2.44,1.22,3.52,1.11c3.61-0.36,11.95-2.63,14.4-3.44c3-1,4.71,0.96,2.92,4.08C36.25,21.08,29.33,31.67,27,35" transform="matrix(1,0,0,1,696,-4)" class="stroke_order_diagram--existing_path"></path><path id="pathSk2v596cnojo" kvg:type="㇕va" d="M27,35c13.38,10.12,11.5,35.75,0.67,29" transform="matrix(1,0,0,1,696,-4)" class="stroke_order_diagram--existing_path"></path><path id="pathSk2v596cnojp" kvg:type="㇑" d="M17.62,17.5c0.81,0.81,0.96,2.12,0.96,3.25c0,0.9,0.05,53.46-0.14,70.25c-0.03,2.33-0.05,3.99-0.08,4.75" transform="matrix(1,0,0,1,696,-4)" class="stroke_order_diagram--existing_path"></path><path id="pathSk2v596cnojq" kvg:type="㇐b" d="M49.25,30c3.25-0.75,7.91-1.73,10-2.25c1.5-0.38,3-0.5,3.75-0.25" transform="matrix(1,0,0,1,696,-4)" class="stroke_order_diagram--existing_path"></path><path id="pathSk2v596cnojr" kvg:type="㇙" d="M47,14.89c0.9,0.58,1.26,1.66,1.26,2.49c0,3.37,0.54,28-0.03,31c-0.48,2.49,0.4,2.49,3.12,0.84c5.38-3.26,7.88-4.91,11.58-7.41" transform="matrix(1,0,0,1,696,-4)" class="stroke_order_diagram--existing_path"></path><path id="pathSk2v596cnojs" kvg:type="㇒" d="M91.08,17.76c0,1.11-0.64,1.98-1.08,2.39c-3.75,3.47-7.75,6.72-16.41,10.93" transform="matrix(1,0,0,1,696,-4)" class="stroke_order_diagram--existing_path"></path><path id="pathSk2v596cnojt" kvg:type="㇟" d="M71.35,13.25c0.7,0.7,1.12,1.77,1.12,2.52c0,3.1-0.19,21.07-0.19,23.35c0,8.12,0.71,9.2,11.58,9.2c9.76,0,10.7-0.95,10.7-7.65" transform="matrix(1,0,0,1,696,-4)" class="stroke_order_diagram--existing_path"></path><path id="kvg:0968e-s8" kvg:type="㇒" d="M66.17,48.25c0.21,0.75,0.1,1.91-0.15,2.39c-1.76,3.24-4.57,7.35-7.26,10.61" transform="matrix(1,0,0,1,696,-4)" class="stroke_order_diagram--current_path"></path><path id="pathSk2v596cnojv" kvg:type="㇒" d="M66.17,48.25c0.21,0.75,0.1,1.91-0.15,2.39c-1.76,3.24-4.57,7.35-7.26,10.61" transform="matrix(1,0,0,1,696,-4)" class="stroke_order_diagram--current_path"></path><circle cx="66.17" cy="48.25" r="8" class="stroke_order_diagram--path_start" transform="matrix(1,0,0,1,696,-4)"></circle><line x1="850" x2="850" y1="1" y2="99" class="stroke_order_diagram--guide_line"></line><line x1="899" x2="899" y1="1" y2="99" class="stroke_order_diagram--bounding_box"></line><path id="pathSk2v596cnojy" kvg:type="㇇" d="M16.75,17c1.25,0.75,2.44,1.22,3.52,1.11c3.61-0.36,11.95-2.63,14.4-3.44c3-1,4.71,0.96,2.92,4.08C36.25,21.08,29.33,31.67,27,35" transform="matrix(1,0,0,1,796,-4)" class="stroke_order_diagram--existing_path"></path><path id="pathSk2v596cnojz" kvg:type="㇕va" d="M27,35c13.38,10.12,11.5,35.75,0.67,29" transform="matrix(1,0,0,1,796,-4)" class="stroke_order_diagram--existing_path"></path><path id="pathSk2v596cnok0" kvg:type="㇑" d="M17.62,17.5c0.81,0.81,0.96,2.12,0.96,3.25c0,0.9,0.05,53.46-0.14,70.25c-0.03,2.33-0.05,3.99-0.08,4.75" transform="matrix(1,0,0,1,796,-4)" class="stroke_order_diagram--existing_path"></path><path id="pathSk2v596cnok1" kvg:type="㇐b" d="M49.25,30c3.25-0.75,7.91-1.73,10-2.25c1.5-0.38,3-0.5,3.75-0.25" transform="matrix(1,0,0,1,796,-4)" class="stroke_order_diagram--existing_path"></path><path id="pathSk2v596cnok2" kvg:type="㇙" d="M47,14.89c0.9,0.58,1.26,1.66,1.26,2.49c0,3.37,0.54,28-0.03,31c-0.48,2.49,0.4,2.49,3.12,0.84c5.38-3.26,7.88-4.91,11.58-7.41" transform="matrix(1,0,0,1,796,-4)" class="stroke_order_diagram--existing_path"></path><path id="pathSk2v596cnok3" kvg:type="㇒" d="M91.08,17.76c0,1.11-0.64,1.98-1.08,2.39c-3.75,3.47-7.75,6.72-16.41,10.93" transform="matrix(1,0,0,1,796,-4)" class="stroke_order_diagram--existing_path"></path><path id="pathSk2v596cnok4" kvg:type="㇟" d="M71.35,13.25c0.7,0.7,1.12,1.77,1.12,2.52c0,3.1-0.19,21.07-0.19,23.35c0,8.12,0.71,9.2,11.58,9.2c9.76,0,10.7-0.95,10.7-7.65" transform="matrix(1,0,0,1,796,-4)" class="stroke_order_diagram--existing_path"></path><path id="pathSk2v596cnok5" kvg:type="㇒" d="M66.17,48.25c0.21,0.75,0.1,1.91-0.15,2.39c-1.76,3.24-4.57,7.35-7.26,10.61" transform="matrix(1,0,0,1,796,-4)" class="stroke_order_diagram--existing_path"></path><path id="kvg:0968e-s9" kvg:type="㇑" d="M51.84,62.22c0.66,0.66,0.97,1.53,0.97,2.66c0,1-0.17,20.55-0.02,28.87c0.02,1.14,0.04,2.08,0.07,2.75" transform="matrix(1,0,0,1,796,-4)" class="stroke_order_diagram--current_path"></path><path id="pathSk2v596cnok7" kvg:type="㇑" d="M51.84,62.22c0.66,0.66,0.97,1.53,0.97,2.66c0,1-0.17,20.55-0.02,28.87c0.02,1.14,0.04,2.08,0.07,2.75" transform="matrix(1,0,0,1,796,-4)" class="stroke_order_diagram--current_path"></path><circle cx="51.84" cy="62.22" r="8" class="stroke_order_diagram--path_start" transform="matrix(1,0,0,1,796,-4)"></circle><line x1="950" x2="950" y1="1" y2="99" class="stroke_order_diagram--guide_line"></line><line x1="999" x2="999" y1="1" y2="99" class="stroke_order_diagram--bounding_box"></line><path id="pathSk2v596cnoka" kvg:type="㇇" d="M16.75,17c1.25,0.75,2.44,1.22,3.52,1.11c3.61-0.36,11.95-2.63,14.4-3.44c3-1,4.71,0.96,2.92,4.08C36.25,21.08,29.33,31.67,27,35" transform="matrix(1,0,0,1,896,-4)" class="stroke_order_diagram--existing_path"></path><path id="pathSk2v596cnokb" kvg:type="㇕va" d="M27,35c13.38,10.12,11.5,35.75,0.67,29" transform="matrix(1,0,0,1,896,-4)" class="stroke_order_diagram--existing_path"></path><path id="pathSk2v596cnokc" kvg:type="㇑" d="M17.62,17.5c0.81,0.81,0.96,2.12,0.96,3.25c0,0.9,0.05,53.46-0.14,70.25c-0.03,2.33-0.05,3.99-0.08,4.75" transform="matrix(1,0,0,1,896,-4)" class="stroke_order_diagram--existing_path"></path><path id="pathSk2v596cnokd" kvg:type="㇐b" d="M49.25,30c3.25-0.75,7.91-1.73,10-2.25c1.5-0.38,3-0.5,3.75-0.25" transform="matrix(1,0,0,1,896,-4)" class="stroke_order_diagram--existing_path"></path><path id="pathSk2v596cnoke" kvg:type="㇙" d="M47,14.89c0.9,0.58,1.26,1.66,1.26,2.49c0,3.37,0.54,28-0.03,31c-0.48,2.49,0.4,2.49,3.12,0.84c5.38-3.26,7.88-4.91,11.58-7.41" transform="matrix(1,0,0,1,896,-4)" class="stroke_order_diagram--existing_path"></path><path id="pathSk2v596cnokf" kvg:type="㇒" d="M91.08,17.76c0,1.11-0.64,1.98-1.08,2.39c-3.75,3.47-7.75,6.72-16.41,10.93" transform="matrix(1,0,0,1,896,-4)" class="stroke_order_diagram--existing_path"></path><path id="pathSk2v596cnokg" kvg:type="㇟" d="M71.35,13.25c0.7,0.7,1.12,1.77,1.12,2.52c0,3.1-0.19,21.07-0.19,23.35c0,8.12,0.71,9.2,11.58,9.2c9.76,0,10.7-0.95,10.7-7.65" transform="matrix(1,0,0,1,896,-4)" class="stroke_order_diagram--existing_path"></path><path id="pathSk2v596cnokh" kvg:type="㇒" d="M66.17,48.25c0.21,0.75,0.1,1.91-0.15,2.39c-1.76,3.24-4.57,7.35-7.26,10.61" transform="matrix(1,0,0,1,896,-4)" class="stroke_order_diagram--existing_path"></path><path id="pathSk2v596cnoki" kvg:type="㇑" d="M51.84,62.22c0.66,0.66,0.97,1.53,0.97,2.66c0,1-0.17,20.55-0.02,28.87c0.02,1.14,0.04,2.08,0.07,2.75" transform="matrix(1,0,0,1,896,-4)" class="stroke_order_diagram--existing_path"></path><path id="kvg:0968e-s10" kvg:type="㇕a" d="M53.78,64.09c7.29-1.02,25.28-3.45,27.32-3.59c2.06-0.14,3.77,1,3.73,3.54c-0.08,5.88-0.46,17.59-0.96,29.23c-0.06,1.49-0.13,0.36-0.31,2.92" transform="matrix(1,0,0,1,896,-4)" class="stroke_order_diagram--current_path"></path><path id="pathSk2v596cnokk" kvg:type="㇕a" d="M53.78,64.09c7.29-1.02,25.28-3.45,27.32-3.59c2.06-0.14,3.77,1,3.73,3.54c-0.08,5.88-0.46,17.59-0.96,29.23c-0.06,1.49-0.13,0.36-0.31,2.92" transform="matrix(1,0,0,1,896,-4)" class="stroke_order_diagram--current_path"></path><circle cx="53.78" cy="64.09" r="8" class="stroke_order_diagram--path_start" transform="matrix(1,0,0,1,896,-4)"></circle><line x1="1050" x2="1050" y1="1" y2="99" class="stroke_order_diagram--guide_line"></line><line x1="1099" x2="1099" y1="1" y2="99" class="stroke_order_diagram--bounding_box"></line><path id="pathSk2v596cnokn" kvg:type="㇇" d="M16.75,17c1.25,0.75,2.44,1.22,3.52,1.11c3.61-0.36,11.95-2.63,14.4-3.44c3-1,4.71,0.96,2.92,4.08C36.25,21.08,29.33,31.67,27,35" transform="matrix(1,0,0,1,996,-4)" class="stroke_order_diagram--existing_path"></path><path id="pathSk2v596cnoko" kvg:type="㇕va" d="M27,35c13.38,10.12,11.5,35.75,0.67,29" transform="matrix(1,0,0,1,996,-4)" class="stroke_order_diagram--existing_path"></path><path id="pathSk2v596cnokp" kvg:type="㇑" d="M17.62,17.5c0.81,0.81,0.96,2.12,0.96,3.25c0,0.9,0.05,53.46-0.14,70.25c-0.03,2.33-0.05,3.99-0.08,4.75" transform="matrix(1,0,0,1,996,-4)" class="stroke_order_diagram--existing_path"></path><path id="pathSk2v596cnokq" kvg:type="㇐b" d="M49.25,30c3.25-0.75,7.91-1.73,10-2.25c1.5-0.38,3-0.5,3.75-0.25" transform="matrix(1,0,0,1,996,-4)" class="stroke_order_diagram--existing_path"></path><path id="pathSk2v596cnokr" kvg:type="㇙" d="M47,14.89c0.9,0.58,1.26,1.66,1.26,2.49c0,3.37,0.54,28-0.03,31c-0.48,2.49,0.4,2.49,3.12,0.84c5.38-3.26,7.88-4.91,11.58-7.41" transform="matrix(1,0,0,1,996,-4)" class="stroke_order_diagram--existing_path"></path><path id="pathSk2v596cnoks" kvg:type="㇒" d="M91.08,17.76c0,1.11-0.64,1.98-1.08,2.39c-3.75,3.47-7.75,6.72-16.41,10.93" transform="matrix(1,0,0,1,996,-4)" class="stroke_order_diagram--existing_path"></path><path id="pathSk2v596cnokt" kvg:type="㇟" d="M71.35,13.25c0.7,0.7,1.12,1.77,1.12,2.52c0,3.1-0.19,21.07-0.19,23.35c0,8.12,0.71,9.2,11.58,9.2c9.76,0,10.7-0.95,10.7-7.65" transform="matrix(1,0,0,1,996,-4)" class="stroke_order_diagram--existing_path"></path><path id="pathSk2v596cnoku" kvg:type="㇒" d="M66.17,48.25c0.21,0.75,0.1,1.91-0.15,2.39c-1.76,3.24-4.57,7.35-7.26,10.61" transform="matrix(1,0,0,1,996,-4)" class="stroke_order_diagram--existing_path"></path><path id="pathSk2v596cnokv" kvg:type="㇑" d="M51.84,62.22c0.66,0.66,0.97,1.53,0.97,2.66c0,1-0.17,20.55-0.02,28.87c0.02,1.14,0.04,2.08,0.07,2.75" transform="matrix(1,0,0,1,996,-4)" class="stroke_order_diagram--existing_path"></path><path id="pathSk2v596cnokw" kvg:type="㇕a" d="M53.78,64.09c7.29-1.02,25.28-3.45,27.32-3.59c2.06-0.14,3.77,1,3.73,3.54c-0.08,5.88-0.46,17.59-0.96,29.23c-0.06,1.49-0.13,0.36-0.31,2.92" transform="matrix(1,0,0,1,996,-4)" class="stroke_order_diagram--existing_path"></path><path id="kvg:0968e-s11" kvg:type="㇐a" d="M54.36,77.82c5.27-0.32,24.02-1.82,28.97-1.91" transform="matrix(1,0,0,1,996,-4)" class="stroke_order_diagram--current_path"></path><path id="pathSk2v596cnoky" kvg:type="㇐a" d="M54.36,77.82c5.27-0.32,24.02-1.82,28.97-1.91" transform="matrix(1,0,0,1,996,-4)" class="stroke_order_diagram--current_path"></path><circle cx="54.36" cy="77.82" r="8" class="stroke_order_diagram--path_start" transform="matrix(1,0,0,1,996,-4)"></circle><line x1="1150" x2="1150" y1="1" y2="99" class="stroke_order_diagram--guide_line"></line><line x1="1199" x2="1199" y1="1" y2="99" class="stroke_order_diagram--bounding_box"></line><path id="pathSk2v596cnol1" kvg:type="㇇" d="M16.75,17c1.25,0.75,2.44,1.22,3.52,1.11c3.61-0.36,11.95-2.63,14.4-3.44c3-1,4.71,0.96,2.92,4.08C36.25,21.08,29.33,31.67,27,35" transform="matrix(1,0,0,1,1096,-4)" class="stroke_order_diagram--existing_path"></path><path id="pathSk2v596cnol2" kvg:type="㇕va" d="M27,35c13.38,10.12,11.5,35.75,0.67,29" transform="matrix(1,0,0,1,1096,-4)" class="stroke_order_diagram--existing_path"></path><path id="pathSk2v596cnol3" kvg:type="㇑" d="M17.62,17.5c0.81,0.81,0.96,2.12,0.96,3.25c0,0.9,0.05,53.46-0.14,70.25c-0.03,2.33-0.05,3.99-0.08,4.75" transform="matrix(1,0,0,1,1096,-4)" class="stroke_order_diagram--existing_path"></path><path id="pathSk2v596cnol4" kvg:type="㇐b" d="M49.25,30c3.25-0.75,7.91-1.73,10-2.25c1.5-0.38,3-0.5,3.75-0.25" transform="matrix(1,0,0,1,1096,-4)" class="stroke_order_diagram--existing_path"></path><path id="pathSk2v596cnol5" kvg:type="㇙" d="M47,14.89c0.9,0.58,1.26,1.66,1.26,2.49c0,3.37,0.54,28-0.03,31c-0.48,2.49,0.4,2.49,3.12,0.84c5.38-3.26,7.88-4.91,11.58-7.41" transform="matrix(1,0,0,1,1096,-4)" class="stroke_order_diagram--existing_path"></path><path id="pathSk2v596cnol6" kvg:type="㇒" d="M91.08,17.76c0,1.11-0.64,1.98-1.08,2.39c-3.75,3.47-7.75,6.72-16.41,10.93" transform="matrix(1,0,0,1,1096,-4)" class="stroke_order_diagram--existing_path"></path><path id="pathSk2v596cnol7" kvg:type="㇟" d="M71.35,13.25c0.7,0.7,1.12,1.77,1.12,2.52c0,3.1-0.19,21.07-0.19,23.35c0,8.12,0.71,9.2,11.58,9.2c9.76,0,10.7-0.95,10.7-7.65" transform="matrix(1,0,0,1,1096,-4)" class="stroke_order_diagram--existing_path"></path><path id="pathSk2v596cnol8" kvg:type="㇒" d="M66.17,48.25c0.21,0.75,0.1,1.91-0.15,2.39c-1.76,3.24-4.57,7.35-7.26,10.61" transform="matrix(1,0,0,1,1096,-4)" class="stroke_order_diagram--existing_path"></path><path id="pathSk2v596cnol9" kvg:type="㇑" d="M51.84,62.22c0.66,0.66,0.97,1.53,0.97,2.66c0,1-0.17,20.55-0.02,28.87c0.02,1.14,0.04,2.08,0.07,2.75" transform="matrix(1,0,0,1,1096,-4)" class="stroke_order_diagram--existing_path"></path><path id="pathSk2v596cnola" kvg:type="㇕a" d="M53.78,64.09c7.29-1.02,25.28-3.45,27.32-3.59c2.06-0.14,3.77,1,3.73,3.54c-0.08,5.88-0.46,17.59-0.96,29.23c-0.06,1.49-0.13,0.36-0.31,2.92" transform="matrix(1,0,0,1,1096,-4)" class="stroke_order_diagram--existing_path"></path><path id="pathSk2v596cnolb" kvg:type="㇐a" d="M54.36,77.82c5.27-0.32,24.02-1.82,28.97-1.91" transform="matrix(1,0,0,1,1096,-4)" class="stroke_order_diagram--existing_path"></path><path id="kvg:0968e-s12" kvg:type="㇐a" d="M54.15,94.19c6.1-0.19,21.44-1.38,28.48-1.38" transform="matrix(1,0,0,1,1096,-4)" class="stroke_order_diagram--current_path"></path><path id="pathSk2v596cnold" kvg:type="㇐a" d="M54.15,94.19c6.1-0.19,21.44-1.38,28.48-1.38" transform="matrix(1,0,0,1,1096,-4)" class="stroke_order_diagram--current_path"></path><circle cx="54.15" cy="94.19" r="8" class="stroke_order_diagram--path_start" transform="matrix(1,0,0,1,1096,-4)"></circle></svg>