<svg style="width: 1300px; height: 100px;" viewbox="0 0 1300 100"><style>
.stroke_order_diagram--outer_container {
  width: 100%;
  overflow-x: auto;
  overflow-y: hidden;
}

.stroke_order_diagram--guide_line {
  fill: none;
  stroke: #ddd;
  stroke-width: 3;
  stroke-linecap: square;
  stroke-linejoin: square;
  stroke-dasharray:8, 8;
}

.stroke_order_diagram--bounding_box {
  fill: none;
  stroke: #ddd;
  stroke-width: 4;
  stroke-linecap: square;
  stroke-linejoin: square;
}

.stroke_order_diagram--current_path {
  fill: none;
  stroke: #000;
  stroke-width: 6;
  stroke-linecap: round;
  stroke-linejoin: round;
}

.stroke_order_diagram--existing_path {
  fill: none;
  stroke: #aaa;
  stroke-width: 6;
  stroke-linecap: round;
  stroke-linejoin:round;
}

.stroke_order_diagram--path_start {
  fill: rgba(255, 0, 0, 0.7);
  stroke:none
}</style><desc>Created with Snap</desc><defs></defs><line x1="1" x2="1299" y1="1" y2="1" class="stroke_order_diagram--bounding_box"></line><line x1="1" x2="1" y1="1" y2="99" class="stroke_order_diagram--bounding_box"></line><line x1="1" x2="1299" y1="99" y2="99" class="stroke_order_diagram--bounding_box"></line><line x1="0" x2="1300" y1="50" y2="50" class="stroke_order_diagram--guide_line"></line><line x1="50" x2="50" y1="1" y2="99" class="stroke_order_diagram--guide_line"></line><line x1="99" x2="99" y1="1" y2="99" class="stroke_order_diagram--bounding_box"></line><path id="kvg:09694-s1" kvg:type="㇇" d="M17.87,18.75c2,0.5,4.22,0.4,5.47,0.11c3.9-0.9,8.05-1.69,10.32-2.45c3-1,4.91,0.7,3.67,3.08c-2.08,4-5.71,11.25-8.33,16" transform="matrix(1,0,0,1,-4,-4)" class="stroke_order_diagram--current_path"></path><path id="pathSk2v596cn3v2d" kvg:type="㇇" d="M17.87,18.75c2,0.5,4.22,0.4,5.47,0.11c3.9-0.9,8.05-1.69,10.32-2.45c3-1,4.91,0.7,3.67,3.08c-2.08,4-5.71,11.25-8.33,16" transform="matrix(1,0,0,1,-4,-4)" class="stroke_order_diagram--current_path"></path><circle cx="17.87" cy="18.75" r="8" class="stroke_order_diagram--path_start" transform="matrix(1,0,0,1,-4,-4)"></circle><line x1="150" x2="150" y1="1" y2="99" class="stroke_order_diagram--guide_line"></line><line x1="199" x2="199" y1="1" y2="99" class="stroke_order_diagram--bounding_box"></line><path id="pathSk2v596cn3v2g" kvg:type="㇇" d="M17.87,18.75c2,0.5,4.22,0.4,5.47,0.11c3.9-0.9,8.05-1.69,10.32-2.45c3-1,4.91,0.7,3.67,3.08c-2.08,4-5.71,11.25-8.33,16" transform="matrix(1,0,0,1,96,-4)" class="stroke_order_diagram--existing_path"></path><path id="kvg:09694-s2" kvg:type="㇕va" d="M29,35.5C41.75,46.75,36.5,72,27.67,62" transform="matrix(1,0,0,1,96,-4)" class="stroke_order_diagram--current_path"></path><path id="pathSk2v596cn3v2i" kvg:type="㇕va" d="M29,35.5C41.75,46.75,36.5,72,27.67,62" transform="matrix(1,0,0,1,96,-4)" class="stroke_order_diagram--current_path"></path><circle cx="29" cy="35.5" r="8" class="stroke_order_diagram--path_start" transform="matrix(1,0,0,1,96,-4)"></circle><line x1="250" x2="250" y1="1" y2="99" class="stroke_order_diagram--guide_line"></line><line x1="299" x2="299" y1="1" y2="99" class="stroke_order_diagram--bounding_box"></line><path id="pathSk2v596cn3v2l" kvg:type="㇇" d="M17.87,18.75c2,0.5,4.22,0.4,5.47,0.11c3.9-0.9,8.05-1.69,10.32-2.45c3-1,4.91,0.7,3.67,3.08c-2.08,4-5.71,11.25-8.33,16" transform="matrix(1,0,0,1,196,-4)" class="stroke_order_diagram--existing_path"></path><path id="pathSk2v596cn3v2m" kvg:type="㇕va" d="M29,35.5C41.75,46.75,36.5,72,27.67,62" transform="matrix(1,0,0,1,196,-4)" class="stroke_order_diagram--existing_path"></path><path id="kvg:09694-s3" kvg:type="㇑" d="M18.87,19.5c0.94,0.94,0.96,2.23,0.96,3.25c0,2.68,0.02,44.46,0.03,62.38c0,3.77,0,6.43,0,7.37" transform="matrix(1,0,0,1,196,-4)" class="stroke_order_diagram--current_path"></path><path id="pathSk2v596cn3v2o" kvg:type="㇑" d="M18.87,19.5c0.94,0.94,0.96,2.23,0.96,3.25c0,2.68,0.02,44.46,0.03,62.38c0,3.77,0,6.43,0,7.37" transform="matrix(1,0,0,1,196,-4)" class="stroke_order_diagram--current_path"></path><circle cx="18.87" cy="19.5" r="8" class="stroke_order_diagram--path_start" transform="matrix(1,0,0,1,196,-4)"></circle><line x1="350" x2="350" y1="1" y2="99" class="stroke_order_diagram--guide_line"></line><line x1="399" x2="399" y1="1" y2="99" class="stroke_order_diagram--bounding_box"></line><path id="pathSk2v596cn3v2r" kvg:type="㇇" d="M17.87,18.75c2,0.5,4.22,0.4,5.47,0.11c3.9-0.9,8.05-1.69,10.32-2.45c3-1,4.91,0.7,3.67,3.08c-2.08,4-5.71,11.25-8.33,16" transform="matrix(1,0,0,1,296,-4)" class="stroke_order_diagram--existing_path"></path><path id="pathSk2v596cn3v2s" kvg:type="㇕va" d="M29,35.5C41.75,46.75,36.5,72,27.67,62" transform="matrix(1,0,0,1,296,-4)" class="stroke_order_diagram--existing_path"></path><path id="pathSk2v596cn3v2t" kvg:type="㇑" d="M18.87,19.5c0.94,0.94,0.96,2.23,0.96,3.25c0,2.68,0.02,44.46,0.03,62.38c0,3.77,0,6.43,0,7.37" transform="matrix(1,0,0,1,296,-4)" class="stroke_order_diagram--existing_path"></path><path id="kvg:09694-s4" kvg:type="㇐" d="M48.61,16.99c2.39,0.51,4.62,0.38,6.4,0.1c8.62-1.34,19.14-2.46,27.86-3.37c2.04-0.21,4.35-0.25,6.33,0.31" transform="matrix(1,0,0,1,296,-4)" class="stroke_order_diagram--current_path"></path><path id="pathSk2v596cn3v2v" kvg:type="㇐" d="M48.61,16.99c2.39,0.51,4.62,0.38,6.4,0.1c8.62-1.34,19.14-2.46,27.86-3.37c2.04-0.21,4.35-0.25,6.33,0.31" transform="matrix(1,0,0,1,296,-4)" class="stroke_order_diagram--current_path"></path><circle cx="48.61" cy="16.99" r="8" class="stroke_order_diagram--path_start" transform="matrix(1,0,0,1,296,-4)"></circle><line x1="450" x2="450" y1="1" y2="99" class="stroke_order_diagram--guide_line"></line><line x1="499" x2="499" y1="1" y2="99" class="stroke_order_diagram--bounding_box"></line><path id="pathSk2v596cn3v2y" kvg:type="㇇" d="M17.87,18.75c2,0.5,4.22,0.4,5.47,0.11c3.9-0.9,8.05-1.69,10.32-2.45c3-1,4.91,0.7,3.67,3.08c-2.08,4-5.71,11.25-8.33,16" transform="matrix(1,0,0,1,396,-4)" class="stroke_order_diagram--existing_path"></path><path id="pathSk2v596cn3v2z" kvg:type="㇕va" d="M29,35.5C41.75,46.75,36.5,72,27.67,62" transform="matrix(1,0,0,1,396,-4)" class="stroke_order_diagram--existing_path"></path><path id="pathSk2v596cn3v30" kvg:type="㇑" d="M18.87,19.5c0.94,0.94,0.96,2.23,0.96,3.25c0,2.68,0.02,44.46,0.03,62.38c0,3.77,0,6.43,0,7.37" transform="matrix(1,0,0,1,396,-4)" class="stroke_order_diagram--existing_path"></path><path id="pathSk2v596cn3v31" kvg:type="㇐" d="M48.61,16.99c2.39,0.51,4.62,0.38,6.4,0.1c8.62-1.34,19.14-2.46,27.86-3.37c2.04-0.21,4.35-0.25,6.33,0.31" transform="matrix(1,0,0,1,396,-4)" class="stroke_order_diagram--existing_path"></path><path id="kvg:09694-s5" kvg:type="㇑" d="M49.13,28.09c0.89,0.89,1.41,1.97,1.52,2.87c0.68,2.36,1.02,5.67,1.55,9.27c0.24,1.65,0.48,3.25,0.7,4.64" transform="matrix(1,0,0,1,396,-4)" class="stroke_order_diagram--current_path"></path><path id="pathSk2v596cn3v33" kvg:type="㇑" d="M49.13,28.09c0.89,0.89,1.41,1.97,1.52,2.87c0.68,2.36,1.02,5.67,1.55,9.27c0.24,1.65,0.48,3.25,0.7,4.64" transform="matrix(1,0,0,1,396,-4)" class="stroke_order_diagram--current_path"></path><circle cx="49.13" cy="28.09" r="8" class="stroke_order_diagram--path_start" transform="matrix(1,0,0,1,396,-4)"></circle><line x1="550" x2="550" y1="1" y2="99" class="stroke_order_diagram--guide_line"></line><line x1="599" x2="599" y1="1" y2="99" class="stroke_order_diagram--bounding_box"></line><path id="pathSk2v596cn3v36" kvg:type="㇇" d="M17.87,18.75c2,0.5,4.22,0.4,5.47,0.11c3.9-0.9,8.05-1.69,10.32-2.45c3-1,4.91,0.7,3.67,3.08c-2.08,4-5.71,11.25-8.33,16" transform="matrix(1,0,0,1,496,-4)" class="stroke_order_diagram--existing_path"></path><path id="pathSk2v596cn3v37" kvg:type="㇕va" d="M29,35.5C41.75,46.75,36.5,72,27.67,62" transform="matrix(1,0,0,1,496,-4)" class="stroke_order_diagram--existing_path"></path><path id="pathSk2v596cn3v38" kvg:type="㇑" d="M18.87,19.5c0.94,0.94,0.96,2.23,0.96,3.25c0,2.68,0.02,44.46,0.03,62.38c0,3.77,0,6.43,0,7.37" transform="matrix(1,0,0,1,496,-4)" class="stroke_order_diagram--existing_path"></path><path id="pathSk2v596cn3v39" kvg:type="㇐" d="M48.61,16.99c2.39,0.51,4.62,0.38,6.4,0.1c8.62-1.34,19.14-2.46,27.86-3.37c2.04-0.21,4.35-0.25,6.33,0.31" transform="matrix(1,0,0,1,496,-4)" class="stroke_order_diagram--existing_path"></path><path id="pathSk2v596cn3v3a" kvg:type="㇑" d="M49.13,28.09c0.89,0.89,1.41,1.97,1.52,2.87c0.68,2.36,1.02,5.67,1.55,9.27c0.24,1.65,0.48,3.25,0.7,4.64" transform="matrix(1,0,0,1,496,-4)" class="stroke_order_diagram--existing_path"></path><path id="kvg:09694-s6" kvg:type="㇕b" d="M51.38,29.53c8.17-1.42,22.67-3.51,29.38-4.32c2.86-0.35,5.55-0.28,4.51,3.34c-0.94,3.28-2.29,7.06-3.39,10.45" transform="matrix(1,0,0,1,496,-4)" class="stroke_order_diagram--current_path"></path><path id="pathSk2v596cn3v3c" kvg:type="㇕b" d="M51.38,29.53c8.17-1.42,22.67-3.51,29.38-4.32c2.86-0.35,5.55-0.28,4.51,3.34c-0.94,3.28-2.29,7.06-3.39,10.45" transform="matrix(1,0,0,1,496,-4)" class="stroke_order_diagram--current_path"></path><circle cx="51.38" cy="29.53" r="8" class="stroke_order_diagram--path_start" transform="matrix(1,0,0,1,496,-4)"></circle><line x1="650" x2="650" y1="1" y2="99" class="stroke_order_diagram--guide_line"></line><line x1="699" x2="699" y1="1" y2="99" class="stroke_order_diagram--bounding_box"></line><path id="pathSk2v596cn3v3f" kvg:type="㇇" d="M17.87,18.75c2,0.5,4.22,0.4,5.47,0.11c3.9-0.9,8.05-1.69,10.32-2.45c3-1,4.91,0.7,3.67,3.08c-2.08,4-5.71,11.25-8.33,16" transform="matrix(1,0,0,1,596,-4)" class="stroke_order_diagram--existing_path"></path><path id="pathSk2v596cn3v3g" kvg:type="㇕va" d="M29,35.5C41.75,46.75,36.5,72,27.67,62" transform="matrix(1,0,0,1,596,-4)" class="stroke_order_diagram--existing_path"></path><path id="pathSk2v596cn3v3h" kvg:type="㇑" d="M18.87,19.5c0.94,0.94,0.96,2.23,0.96,3.25c0,2.68,0.02,44.46,0.03,62.38c0,3.77,0,6.43,0,7.37" transform="matrix(1,0,0,1,596,-4)" class="stroke_order_diagram--existing_path"></path><path id="pathSk2v596cn3v3i" kvg:type="㇐" d="M48.61,16.99c2.39,0.51,4.62,0.38,6.4,0.1c8.62-1.34,19.14-2.46,27.86-3.37c2.04-0.21,4.35-0.25,6.33,0.31" transform="matrix(1,0,0,1,596,-4)" class="stroke_order_diagram--existing_path"></path><path id="pathSk2v596cn3v3j" kvg:type="㇑" d="M49.13,28.09c0.89,0.89,1.41,1.97,1.52,2.87c0.68,2.36,1.02,5.67,1.55,9.27c0.24,1.65,0.48,3.25,0.7,4.64" transform="matrix(1,0,0,1,596,-4)" class="stroke_order_diagram--existing_path"></path><path id="pathSk2v596cn3v3k" kvg:type="㇕b" d="M51.38,29.53c8.17-1.42,22.67-3.51,29.38-4.32c2.86-0.35,5.55-0.28,4.51,3.34c-0.94,3.28-2.29,7.06-3.39,10.45" transform="matrix(1,0,0,1,596,-4)" class="stroke_order_diagram--existing_path"></path><path id="kvg:09694-s7" kvg:type="㇐b" d="M53.74,42.73c5.51-0.73,15.63-1.85,25.25-2.82c1.85-0.19,3.44-0.38,4.63-0.47" transform="matrix(1,0,0,1,596,-4)" class="stroke_order_diagram--current_path"></path><path id="pathSk2v596cn3v3m" kvg:type="㇐b" d="M53.74,42.73c5.51-0.73,15.63-1.85,25.25-2.82c1.85-0.19,3.44-0.38,4.63-0.47" transform="matrix(1,0,0,1,596,-4)" class="stroke_order_diagram--current_path"></path><circle cx="53.74" cy="42.73" r="8" class="stroke_order_diagram--path_start" transform="matrix(1,0,0,1,596,-4)"></circle><line x1="750" x2="750" y1="1" y2="99" class="stroke_order_diagram--guide_line"></line><line x1="799" x2="799" y1="1" y2="99" class="stroke_order_diagram--bounding_box"></line><path id="pathSk2v596cn3v3p" kvg:type="㇇" d="M17.87,18.75c2,0.5,4.22,0.4,5.47,0.11c3.9-0.9,8.05-1.69,10.32-2.45c3-1,4.91,0.7,3.67,3.08c-2.08,4-5.71,11.25-8.33,16" transform="matrix(1,0,0,1,696,-4)" class="stroke_order_diagram--existing_path"></path><path id="pathSk2v596cn3v3q" kvg:type="㇕va" d="M29,35.5C41.75,46.75,36.5,72,27.67,62" transform="matrix(1,0,0,1,696,-4)" class="stroke_order_diagram--existing_path"></path><path id="pathSk2v596cn3v3r" kvg:type="㇑" d="M18.87,19.5c0.94,0.94,0.96,2.23,0.96,3.25c0,2.68,0.02,44.46,0.03,62.38c0,3.77,0,6.43,0,7.37" transform="matrix(1,0,0,1,696,-4)" class="stroke_order_diagram--existing_path"></path><path id="pathSk2v596cn3v3s" kvg:type="㇐" d="M48.61,16.99c2.39,0.51,4.62,0.38,6.4,0.1c8.62-1.34,19.14-2.46,27.86-3.37c2.04-0.21,4.35-0.25,6.33,0.31" transform="matrix(1,0,0,1,696,-4)" class="stroke_order_diagram--existing_path"></path><path id="pathSk2v596cn3v3t" kvg:type="㇑" d="M49.13,28.09c0.89,0.89,1.41,1.97,1.52,2.87c0.68,2.36,1.02,5.67,1.55,9.27c0.24,1.65,0.48,3.25,0.7,4.64" transform="matrix(1,0,0,1,696,-4)" class="stroke_order_diagram--existing_path"></path><path id="pathSk2v596cn3v3u" kvg:type="㇕b" d="M51.38,29.53c8.17-1.42,22.67-3.51,29.38-4.32c2.86-0.35,5.55-0.28,4.51,3.34c-0.94,3.28-2.29,7.06-3.39,10.45" transform="matrix(1,0,0,1,696,-4)" class="stroke_order_diagram--existing_path"></path><path id="pathSk2v596cn3v3v" kvg:type="㇐b" d="M53.74,42.73c5.51-0.73,15.63-1.85,25.25-2.82c1.85-0.19,3.44-0.38,4.63-0.47" transform="matrix(1,0,0,1,696,-4)" class="stroke_order_diagram--existing_path"></path><path id="kvg:09694-s8" kvg:type="㇑" d="M44.27,52.93c1.09,1.09,1.2,2.2,1.2,4.08c0,2.37-0.09,17.94-0.08,27.25c0,3.41,0.01,5.79,0.01,6" transform="matrix(1,0,0,1,696,-4)" class="stroke_order_diagram--current_path"></path><path id="pathSk2v596cn3v3x" kvg:type="㇑" d="M44.27,52.93c1.09,1.09,1.2,2.2,1.2,4.08c0,2.37-0.09,17.94-0.08,27.25c0,3.41,0.01,5.79,0.01,6" transform="matrix(1,0,0,1,696,-4)" class="stroke_order_diagram--current_path"></path><circle cx="44.27" cy="52.93" r="8" class="stroke_order_diagram--path_start" transform="matrix(1,0,0,1,696,-4)"></circle><line x1="850" x2="850" y1="1" y2="99" class="stroke_order_diagram--guide_line"></line><line x1="899" x2="899" y1="1" y2="99" class="stroke_order_diagram--bounding_box"></line><path id="pathSk2v596cn3v40" kvg:type="㇇" d="M17.87,18.75c2,0.5,4.22,0.4,5.47,0.11c3.9-0.9,8.05-1.69,10.32-2.45c3-1,4.91,0.7,3.67,3.08c-2.08,4-5.71,11.25-8.33,16" transform="matrix(1,0,0,1,796,-4)" class="stroke_order_diagram--existing_path"></path><path id="pathSk2v596cn3v41" kvg:type="㇕va" d="M29,35.5C41.75,46.75,36.5,72,27.67,62" transform="matrix(1,0,0,1,796,-4)" class="stroke_order_diagram--existing_path"></path><path id="pathSk2v596cn3v42" kvg:type="㇑" d="M18.87,19.5c0.94,0.94,0.96,2.23,0.96,3.25c0,2.68,0.02,44.46,0.03,62.38c0,3.77,0,6.43,0,7.37" transform="matrix(1,0,0,1,796,-4)" class="stroke_order_diagram--existing_path"></path><path id="pathSk2v596cn3v43" kvg:type="㇐" d="M48.61,16.99c2.39,0.51,4.62,0.38,6.4,0.1c8.62-1.34,19.14-2.46,27.86-3.37c2.04-0.21,4.35-0.25,6.33,0.31" transform="matrix(1,0,0,1,796,-4)" class="stroke_order_diagram--existing_path"></path><path id="pathSk2v596cn3v44" kvg:type="㇑" d="M49.13,28.09c0.89,0.89,1.41,1.97,1.52,2.87c0.68,2.36,1.02,5.67,1.55,9.27c0.24,1.65,0.48,3.25,0.7,4.64" transform="matrix(1,0,0,1,796,-4)" class="stroke_order_diagram--existing_path"></path><path id="pathSk2v596cn3v45" kvg:type="㇕b" d="M51.38,29.53c8.17-1.42,22.67-3.51,29.38-4.32c2.86-0.35,5.55-0.28,4.51,3.34c-0.94,3.28-2.29,7.06-3.39,10.45" transform="matrix(1,0,0,1,796,-4)" class="stroke_order_diagram--existing_path"></path><path id="pathSk2v596cn3v46" kvg:type="㇐b" d="M53.74,42.73c5.51-0.73,15.63-1.85,25.25-2.82c1.85-0.19,3.44-0.38,4.63-0.47" transform="matrix(1,0,0,1,796,-4)" class="stroke_order_diagram--existing_path"></path><path id="pathSk2v596cn3v47" kvg:type="㇑" d="M44.27,52.93c1.09,1.09,1.2,2.2,1.2,4.08c0,2.37-0.09,17.94-0.08,27.25c0,3.41,0.01,5.79,0.01,6" transform="matrix(1,0,0,1,796,-4)" class="stroke_order_diagram--existing_path"></path><path id="kvg:09694-s9" kvg:type="㇆a" d="M46.22,54.76c6.21-0.77,35.27-4.42,43.16-5.38c3.91-0.48,5.1,1.16,5.1,4.88c-0.01,7.2-0.03,32.47-0.03,36.79c0,7.7-4.58,2.08-6.85,0" transform="matrix(1,0,0,1,796,-4)" class="stroke_order_diagram--current_path"></path><path id="pathSk2v596cn3v49" kvg:type="㇆a" d="M46.22,54.76c6.21-0.77,35.27-4.42,43.16-5.38c3.91-0.48,5.1,1.16,5.1,4.88c-0.01,7.2-0.03,32.47-0.03,36.79c0,7.7-4.58,2.08-6.85,0" transform="matrix(1,0,0,1,796,-4)" class="stroke_order_diagram--current_path"></path><circle cx="46.22" cy="54.76" r="8" class="stroke_order_diagram--path_start" transform="matrix(1,0,0,1,796,-4)"></circle><line x1="950" x2="950" y1="1" y2="99" class="stroke_order_diagram--guide_line"></line><line x1="999" x2="999" y1="1" y2="99" class="stroke_order_diagram--bounding_box"></line><path id="pathSk2v596cn3v4c" kvg:type="㇇" d="M17.87,18.75c2,0.5,4.22,0.4,5.47,0.11c3.9-0.9,8.05-1.69,10.32-2.45c3-1,4.91,0.7,3.67,3.08c-2.08,4-5.71,11.25-8.33,16" transform="matrix(1,0,0,1,896,-4)" class="stroke_order_diagram--existing_path"></path><path id="pathSk2v596cn3v4d" kvg:type="㇕va" d="M29,35.5C41.75,46.75,36.5,72,27.67,62" transform="matrix(1,0,0,1,896,-4)" class="stroke_order_diagram--existing_path"></path><path id="pathSk2v596cn3v4e" kvg:type="㇑" d="M18.87,19.5c0.94,0.94,0.96,2.23,0.96,3.25c0,2.68,0.02,44.46,0.03,62.38c0,3.77,0,6.43,0,7.37" transform="matrix(1,0,0,1,896,-4)" class="stroke_order_diagram--existing_path"></path><path id="pathSk2v596cn3v4f" kvg:type="㇐" d="M48.61,16.99c2.39,0.51,4.62,0.38,6.4,0.1c8.62-1.34,19.14-2.46,27.86-3.37c2.04-0.21,4.35-0.25,6.33,0.31" transform="matrix(1,0,0,1,896,-4)" class="stroke_order_diagram--existing_path"></path><path id="pathSk2v596cn3v4g" kvg:type="㇑" d="M49.13,28.09c0.89,0.89,1.41,1.97,1.52,2.87c0.68,2.36,1.02,5.67,1.55,9.27c0.24,1.65,0.48,3.25,0.7,4.64" transform="matrix(1,0,0,1,896,-4)" class="stroke_order_diagram--existing_path"></path><path id="pathSk2v596cn3v4h" kvg:type="㇕b" d="M51.38,29.53c8.17-1.42,22.67-3.51,29.38-4.32c2.86-0.35,5.55-0.28,4.51,3.34c-0.94,3.28-2.29,7.06-3.39,10.45" transform="matrix(1,0,0,1,896,-4)" class="stroke_order_diagram--existing_path"></path><path id="pathSk2v596cn3v4i" kvg:type="㇐b" d="M53.74,42.73c5.51-0.73,15.63-1.85,25.25-2.82c1.85-0.19,3.44-0.38,4.63-0.47" transform="matrix(1,0,0,1,896,-4)" class="stroke_order_diagram--existing_path"></path><path id="pathSk2v596cn3v4j" kvg:type="㇑" d="M44.27,52.93c1.09,1.09,1.2,2.2,1.2,4.08c0,2.37-0.09,17.94-0.08,27.25c0,3.41,0.01,5.79,0.01,6" transform="matrix(1,0,0,1,896,-4)" class="stroke_order_diagram--existing_path"></path><path id="pathSk2v596cn3v4k" kvg:type="㇆a" d="M46.22,54.76c6.21-0.77,35.27-4.42,43.16-5.38c3.91-0.48,5.1,1.16,5.1,4.88c-0.01,7.2-0.03,32.47-0.03,36.79c0,7.7-4.58,2.08-6.85,0" transform="matrix(1,0,0,1,896,-4)" class="stroke_order_diagram--existing_path"></path><path id="kvg:09694-s10" kvg:type="㇒" d="M61.07,55.6c0.18,0.9,0.19,1.95-0.35,2.77c-2.48,3.76-4.73,7.01-8.73,10.38" transform="matrix(1,0,0,1,896,-4)" class="stroke_order_diagram--current_path"></path><path id="pathSk2v596cn3v4m" kvg:type="㇒" d="M61.07,55.6c0.18,0.9,0.19,1.95-0.35,2.77c-2.48,3.76-4.73,7.01-8.73,10.38" transform="matrix(1,0,0,1,896,-4)" class="stroke_order_diagram--current_path"></path><circle cx="61.07" cy="55.6" r="8" class="stroke_order_diagram--path_start" transform="matrix(1,0,0,1,896,-4)"></circle><line x1="1050" x2="1050" y1="1" y2="99" class="stroke_order_diagram--guide_line"></line><line x1="1099" x2="1099" y1="1" y2="99" class="stroke_order_diagram--bounding_box"></line><path id="pathSk2v596cn3v4p" kvg:type="㇇" d="M17.87,18.75c2,0.5,4.22,0.4,5.47,0.11c3.9-0.9,8.05-1.69,10.32-2.45c3-1,4.91,0.7,3.67,3.08c-2.08,4-5.71,11.25-8.33,16" transform="matrix(1,0,0,1,996,-4)" class="stroke_order_diagram--existing_path"></path><path id="pathSk2v596cn3v4q" kvg:type="㇕va" d="M29,35.5C41.75,46.75,36.5,72,27.67,62" transform="matrix(1,0,0,1,996,-4)" class="stroke_order_diagram--existing_path"></path><path id="pathSk2v596cn3v4r" kvg:type="㇑" d="M18.87,19.5c0.94,0.94,0.96,2.23,0.96,3.25c0,2.68,0.02,44.46,0.03,62.38c0,3.77,0,6.43,0,7.37" transform="matrix(1,0,0,1,996,-4)" class="stroke_order_diagram--existing_path"></path><path id="pathSk2v596cn3v4s" kvg:type="㇐" d="M48.61,16.99c2.39,0.51,4.62,0.38,6.4,0.1c8.62-1.34,19.14-2.46,27.86-3.37c2.04-0.21,4.35-0.25,6.33,0.31" transform="matrix(1,0,0,1,996,-4)" class="stroke_order_diagram--existing_path"></path><path id="pathSk2v596cn3v4t" kvg:type="㇑" d="M49.13,28.09c0.89,0.89,1.41,1.97,1.52,2.87c0.68,2.36,1.02,5.67,1.55,9.27c0.24,1.65,0.48,3.25,0.7,4.64" transform="matrix(1,0,0,1,996,-4)" class="stroke_order_diagram--existing_path"></path><path id="pathSk2v596cn3v4u" kvg:type="㇕b" d="M51.38,29.53c8.17-1.42,22.67-3.51,29.38-4.32c2.86-0.35,5.55-0.28,4.51,3.34c-0.94,3.28-2.29,7.06-3.39,10.45" transform="matrix(1,0,0,1,996,-4)" class="stroke_order_diagram--existing_path"></path><path id="pathSk2v596cn3v4v" kvg:type="㇐b" d="M53.74,42.73c5.51-0.73,15.63-1.85,25.25-2.82c1.85-0.19,3.44-0.38,4.63-0.47" transform="matrix(1,0,0,1,996,-4)" class="stroke_order_diagram--existing_path"></path><path id="pathSk2v596cn3v4w" kvg:type="㇑" d="M44.27,52.93c1.09,1.09,1.2,2.2,1.2,4.08c0,2.37-0.09,17.94-0.08,27.25c0,3.41,0.01,5.79,0.01,6" transform="matrix(1,0,0,1,996,-4)" class="stroke_order_diagram--existing_path"></path><path id="pathSk2v596cn3v4x" kvg:type="㇆a" d="M46.22,54.76c6.21-0.77,35.27-4.42,43.16-5.38c3.91-0.48,5.1,1.16,5.1,4.88c-0.01,7.2-0.03,32.47-0.03,36.79c0,7.7-4.58,2.08-6.85,0" transform="matrix(1,0,0,1,996,-4)" class="stroke_order_diagram--existing_path"></path><path id="pathSk2v596cn3v4y" kvg:type="㇒" d="M61.07,55.6c0.18,0.9,0.19,1.95-0.35,2.77c-2.48,3.76-4.73,7.01-8.73,10.38" transform="matrix(1,0,0,1,996,-4)" class="stroke_order_diagram--existing_path"></path><path id="kvg:09694-s11" kvg:type="㇟" d="M71.3,53.35c0.67,0.67,0.64,1.59,0.66,2.72c0,1.72,0.07,2.68,0.07,4.13c0,3.29,1.09,3.81,7.21,3.81c3.77,0,6.26-0.55,6.79-0.87" transform="matrix(1,0,0,1,996,-4)" class="stroke_order_diagram--current_path"></path><path id="pathSk2v596cn3v50" kvg:type="㇟" d="M71.3,53.35c0.67,0.67,0.64,1.59,0.66,2.72c0,1.72,0.07,2.68,0.07,4.13c0,3.29,1.09,3.81,7.21,3.81c3.77,0,6.26-0.55,6.79-0.87" transform="matrix(1,0,0,1,996,-4)" class="stroke_order_diagram--current_path"></path><circle cx="71.3" cy="53.35" r="8" class="stroke_order_diagram--path_start" transform="matrix(1,0,0,1,996,-4)"></circle><line x1="1150" x2="1150" y1="1" y2="99" class="stroke_order_diagram--guide_line"></line><line x1="1199" x2="1199" y1="1" y2="99" class="stroke_order_diagram--bounding_box"></line><path id="pathSk2v596cn3v53" kvg:type="㇇" d="M17.87,18.75c2,0.5,4.22,0.4,5.47,0.11c3.9-0.9,8.05-1.69,10.32-2.45c3-1,4.91,0.7,3.67,3.08c-2.08,4-5.71,11.25-8.33,16" transform="matrix(1,0,0,1,1096,-4)" class="stroke_order_diagram--existing_path"></path><path id="pathSk2v596cn3v54" kvg:type="㇕va" d="M29,35.5C41.75,46.75,36.5,72,27.67,62" transform="matrix(1,0,0,1,1096,-4)" class="stroke_order_diagram--existing_path"></path><path id="pathSk2v596cn3v55" kvg:type="㇑" d="M18.87,19.5c0.94,0.94,0.96,2.23,0.96,3.25c0,2.68,0.02,44.46,0.03,62.38c0,3.77,0,6.43,0,7.37" transform="matrix(1,0,0,1,1096,-4)" class="stroke_order_diagram--existing_path"></path><path id="pathSk2v596cn3v56" kvg:type="㇐" d="M48.61,16.99c2.39,0.51,4.62,0.38,6.4,0.1c8.62-1.34,19.14-2.46,27.86-3.37c2.04-0.21,4.35-0.25,6.33,0.31" transform="matrix(1,0,0,1,1096,-4)" class="stroke_order_diagram--existing_path"></path><path id="pathSk2v596cn3v57" kvg:type="㇑" d="M49.13,28.09c0.89,0.89,1.41,1.97,1.52,2.87c0.68,2.36,1.02,5.67,1.55,9.27c0.24,1.65,0.48,3.25,0.7,4.64" transform="matrix(1,0,0,1,1096,-4)" class="stroke_order_diagram--existing_path"></path><path id="pathSk2v596cn3v58" kvg:type="㇕b" d="M51.38,29.53c8.17-1.42,22.67-3.51,29.38-4.32c2.86-0.35,5.55-0.28,4.51,3.34c-0.94,3.28-2.29,7.06-3.39,10.45" transform="matrix(1,0,0,1,1096,-4)" class="stroke_order_diagram--existing_path"></path><path id="pathSk2v596cn3v59" kvg:type="㇐b" d="M53.74,42.73c5.51-0.73,15.63-1.85,25.25-2.82c1.85-0.19,3.44-0.38,4.63-0.47" transform="matrix(1,0,0,1,1096,-4)" class="stroke_order_diagram--existing_path"></path><path id="pathSk2v596cn3v5a" kvg:type="㇑" d="M44.27,52.93c1.09,1.09,1.2,2.2,1.2,4.08c0,2.37-0.09,17.94-0.08,27.25c0,3.41,0.01,5.79,0.01,6" transform="matrix(1,0,0,1,1096,-4)" class="stroke_order_diagram--existing_path"></path><path id="pathSk2v596cn3v5b" kvg:type="㇆a" d="M46.22,54.76c6.21-0.77,35.27-4.42,43.16-5.38c3.91-0.48,5.1,1.16,5.1,4.88c-0.01,7.2-0.03,32.47-0.03,36.79c0,7.7-4.58,2.08-6.85,0" transform="matrix(1,0,0,1,1096,-4)" class="stroke_order_diagram--existing_path"></path><path id="pathSk2v596cn3v5c" kvg:type="㇒" d="M61.07,55.6c0.18,0.9,0.19,1.95-0.35,2.77c-2.48,3.76-4.73,7.01-8.73,10.38" transform="matrix(1,0,0,1,1096,-4)" class="stroke_order_diagram--existing_path"></path><path id="pathSk2v596cn3v5d" kvg:type="㇟" d="M71.3,53.35c0.67,0.67,0.64,1.59,0.66,2.72c0,1.72,0.07,2.68,0.07,4.13c0,3.29,1.09,3.81,7.21,3.81c3.77,0,6.26-0.55,6.79-0.87" transform="matrix(1,0,0,1,1096,-4)" class="stroke_order_diagram--existing_path"></path><path id="kvg:09694-s12" kvg:type="㇐" d="M54.62,73.89c1.43,0.59,3.3,0.65,4.79,0.5c4.7-0.48,14.22-2.16,20.59-2.95c1.23-0.15,3.12-0.33,4.32-0.03" transform="matrix(1,0,0,1,1096,-4)" class="stroke_order_diagram--current_path"></path><path id="pathSk2v596cn3v5f" kvg:type="㇐" d="M54.62,73.89c1.43,0.59,3.3,0.65,4.79,0.5c4.7-0.48,14.22-2.16,20.59-2.95c1.23-0.15,3.12-0.33,4.32-0.03" transform="matrix(1,0,0,1,1096,-4)" class="stroke_order_diagram--current_path"></path><circle cx="54.62" cy="73.89" r="8" class="stroke_order_diagram--path_start" transform="matrix(1,0,0,1,1096,-4)"></circle><line x1="1250" x2="1250" y1="1" y2="99" class="stroke_order_diagram--guide_line"></line><line x1="1299" x2="1299" y1="1" y2="99" class="stroke_order_diagram--bounding_box"></line><path id="pathSk2v596cn3v5i" kvg:type="㇇" d="M17.87,18.75c2,0.5,4.22,0.4,5.47,0.11c3.9-0.9,8.05-1.69,10.32-2.45c3-1,4.91,0.7,3.67,3.08c-2.08,4-5.71,11.25-8.33,16" transform="matrix(1,0,0,1,1196,-4)" class="stroke_order_diagram--existing_path"></path><path id="pathSk2v596cn3v5j" kvg:type="㇕va" d="M29,35.5C41.75,46.75,36.5,72,27.67,62" transform="matrix(1,0,0,1,1196,-4)" class="stroke_order_diagram--existing_path"></path><path id="pathSk2v596cn3v5k" kvg:type="㇑" d="M18.87,19.5c0.94,0.94,0.96,2.23,0.96,3.25c0,2.68,0.02,44.46,0.03,62.38c0,3.77,0,6.43,0,7.37" transform="matrix(1,0,0,1,1196,-4)" class="stroke_order_diagram--existing_path"></path><path id="pathSk2v596cn3v5l" kvg:type="㇐" d="M48.61,16.99c2.39,0.51,4.62,0.38,6.4,0.1c8.62-1.34,19.14-2.46,27.86-3.37c2.04-0.21,4.35-0.25,6.33,0.31" transform="matrix(1,0,0,1,1196,-4)" class="stroke_order_diagram--existing_path"></path><path id="pathSk2v596cn3v5m" kvg:type="㇑" d="M49.13,28.09c0.89,0.89,1.41,1.97,1.52,2.87c0.68,2.36,1.02,5.67,1.55,9.27c0.24,1.65,0.48,3.25,0.7,4.64" transform="matrix(1,0,0,1,1196,-4)" class="stroke_order_diagram--existing_path"></path><path id="pathSk2v596cn3v5n" kvg:type="㇕b" d="M51.38,29.53c8.17-1.42,22.67-3.51,29.38-4.32c2.86-0.35,5.55-0.28,4.51,3.34c-0.94,3.28-2.29,7.06-3.39,10.45" transform="matrix(1,0,0,1,1196,-4)" class="stroke_order_diagram--existing_path"></path><path id="pathSk2v596cn3v5o" kvg:type="㇐b" d="M53.74,42.73c5.51-0.73,15.63-1.85,25.25-2.82c1.85-0.19,3.44-0.38,4.63-0.47" transform="matrix(1,0,0,1,1196,-4)" class="stroke_order_diagram--existing_path"></path><path id="pathSk2v596cn3v5p" kvg:type="㇑" d="M44.27,52.93c1.09,1.09,1.2,2.2,1.2,4.08c0,2.37-0.09,17.94-0.08,27.25c0,3.41,0.01,5.79,0.01,6" transform="matrix(1,0,0,1,1196,-4)" class="stroke_order_diagram--existing_path"></path><path id="pathSk2v596cn3v5q" kvg:type="㇆a" d="M46.22,54.76c6.21-0.77,35.27-4.42,43.16-5.38c3.91-0.48,5.1,1.16,5.1,4.88c-0.01,7.2-0.03,32.47-0.03,36.79c0,7.7-4.58,2.08-6.85,0" transform="matrix(1,0,0,1,1196,-4)" class="stroke_order_diagram--existing_path"></path><path id="pathSk2v596cn3v5r" kvg:type="㇒" d="M61.07,55.6c0.18,0.9,0.19,1.95-0.35,2.77c-2.48,3.76-4.73,7.01-8.73,10.38" transform="matrix(1,0,0,1,1196,-4)" class="stroke_order_diagram--existing_path"></path><path id="pathSk2v596cn3v5s" kvg:type="㇟" d="M71.3,53.35c0.67,0.67,0.64,1.59,0.66,2.72c0,1.72,0.07,2.68,0.07,4.13c0,3.29,1.09,3.81,7.21,3.81c3.77,0,6.26-0.55,6.79-0.87" transform="matrix(1,0,0,1,1196,-4)" class="stroke_order_diagram--existing_path"></path><path id="pathSk2v596cn3v5t" kvg:type="㇐" d="M54.62,73.89c1.43,0.59,3.3,0.65,4.79,0.5c4.7-0.48,14.22-2.16,20.59-2.95c1.23-0.15,3.12-0.33,4.32-0.03" transform="matrix(1,0,0,1,1196,-4)" class="stroke_order_diagram--existing_path"></path><path id="kvg:09694-s13" kvg:type="㇑" d="M67.04,74.28c0.78,0.78,1.22,1.34,1.22,2.87c0,2.02,0.04,7.66,0.06,11.85c0.01,1.63,0.01,3.04,0.01,3.93" transform="matrix(1,0,0,1,1196,-4)" class="stroke_order_diagram--current_path"></path><path id="pathSk2v596cn3v5v" kvg:type="㇑" d="M67.04,74.28c0.78,0.78,1.22,1.34,1.22,2.87c0,2.02,0.04,7.66,0.06,11.85c0.01,1.63,0.01,3.04,0.01,3.93" transform="matrix(1,0,0,1,1196,-4)" class="stroke_order_diagram--current_path"></path><circle cx="67.04" cy="74.28" r="8" class="stroke_order_diagram--path_start" transform="matrix(1,0,0,1,1196,-4)"></circle></svg>