<svg style="width: 1400px; height: 100px;" viewbox="0 0 1400 100"><style>
.stroke_order_diagram--outer_container {
  width: 100%;
  overflow-x: auto;
  overflow-y: hidden;
}

.stroke_order_diagram--guide_line {
  fill: none;
  stroke: #ddd;
  stroke-width: 3;
  stroke-linecap: square;
  stroke-linejoin: square;
  stroke-dasharray:8, 8;
}

.stroke_order_diagram--bounding_box {
  fill: none;
  stroke: #ddd;
  stroke-width: 4;
  stroke-linecap: square;
  stroke-linejoin: square;
}

.stroke_order_diagram--current_path {
  fill: none;
  stroke: #000;
  stroke-width: 6;
  stroke-linecap: round;
  stroke-linejoin: round;
}

.stroke_order_diagram--existing_path {
  fill: none;
  stroke: #aaa;
  stroke-width: 6;
  stroke-linecap: round;
  stroke-linejoin:round;
}

.stroke_order_diagram--path_start {
  fill: rgba(255, 0, 0, 0.7);
  stroke:none
}</style><desc>Created with Snap</desc><defs></defs><line x1="1" x2="1399" y1="1" y2="1" class="stroke_order_diagram--bounding_box"></line><line x1="1" x2="1" y1="1" y2="99" class="stroke_order_diagram--bounding_box"></line><line x1="1" x2="1399" y1="99" y2="99" class="stroke_order_diagram--bounding_box"></line><line x1="0" x2="1400" y1="50" y2="50" class="stroke_order_diagram--guide_line"></line><line x1="50" x2="50" y1="1" y2="99" class="stroke_order_diagram--guide_line"></line><line x1="99" x2="99" y1="1" y2="99" class="stroke_order_diagram--bounding_box"></line><path id="kvg:096a0-s1" kvg:type="㇇" d="M16.67,18.92c1.58,0.83,2.96,0.71,4.8,0.41c4.57-0.74,9.66-1.82,12.95-2.66c3.07-0.78,4.55,1.65,3.42,4.08c-2.08,4.5-5.71,12.88-9.08,19" transform="matrix(1,0,0,1,-4,-4)" class="stroke_order_diagram--current_path"></path><path id="pathSk2v596cn1pi3" kvg:type="㇇" d="M16.67,18.92c1.58,0.83,2.96,0.71,4.8,0.41c4.57-0.74,9.66-1.82,12.95-2.66c3.07-0.78,4.55,1.65,3.42,4.08c-2.08,4.5-5.71,12.88-9.08,19" transform="matrix(1,0,0,1,-4,-4)" class="stroke_order_diagram--current_path"></path><circle cx="16.67" cy="18.92" r="8" class="stroke_order_diagram--path_start" transform="matrix(1,0,0,1,-4,-4)"></circle><line x1="150" x2="150" y1="1" y2="99" class="stroke_order_diagram--guide_line"></line><line x1="199" x2="199" y1="1" y2="99" class="stroke_order_diagram--bounding_box"></line><path id="pathSk2v596cn1pi6" kvg:type="㇇" d="M16.67,18.92c1.58,0.83,2.96,0.71,4.8,0.41c4.57-0.74,9.66-1.82,12.95-2.66c3.07-0.78,4.55,1.65,3.42,4.08c-2.08,4.5-5.71,12.88-9.08,19" transform="matrix(1,0,0,1,96,-4)" class="stroke_order_diagram--existing_path"></path><path id="kvg:096a0-s2" kvg:type="㇕va" d="M28.75,39.75c10.5,9.5,10.5,33.75-1.08,25.75" transform="matrix(1,0,0,1,96,-4)" class="stroke_order_diagram--current_path"></path><path id="pathSk2v596cn1pi8" kvg:type="㇕va" d="M28.75,39.75c10.5,9.5,10.5,33.75-1.08,25.75" transform="matrix(1,0,0,1,96,-4)" class="stroke_order_diagram--current_path"></path><circle cx="28.75" cy="39.75" r="8" class="stroke_order_diagram--path_start" transform="matrix(1,0,0,1,96,-4)"></circle><line x1="250" x2="250" y1="1" y2="99" class="stroke_order_diagram--guide_line"></line><line x1="299" x2="299" y1="1" y2="99" class="stroke_order_diagram--bounding_box"></line><path id="pathSk2v596cn1pib" kvg:type="㇇" d="M16.67,18.92c1.58,0.83,2.96,0.71,4.8,0.41c4.57-0.74,9.66-1.82,12.95-2.66c3.07-0.78,4.55,1.65,3.42,4.08c-2.08,4.5-5.71,12.88-9.08,19" transform="matrix(1,0,0,1,196,-4)" class="stroke_order_diagram--existing_path"></path><path id="pathSk2v596cn1pic" kvg:type="㇕va" d="M28.75,39.75c10.5,9.5,10.5,33.75-1.08,25.75" transform="matrix(1,0,0,1,196,-4)" class="stroke_order_diagram--existing_path"></path><path id="kvg:096a0-s3" kvg:type="㇑" d="M17.62,19.5c0.88,0.88,1.21,2.25,1.21,3.75c0,4.22,0.02,45.96,0.03,64.12c0,3.88,0,6.63,0,7.62" transform="matrix(1,0,0,1,196,-4)" class="stroke_order_diagram--current_path"></path><path id="pathSk2v596cn1pie" kvg:type="㇑" d="M17.62,19.5c0.88,0.88,1.21,2.25,1.21,3.75c0,4.22,0.02,45.96,0.03,64.12c0,3.88,0,6.63,0,7.62" transform="matrix(1,0,0,1,196,-4)" class="stroke_order_diagram--current_path"></path><circle cx="17.62" cy="19.5" r="8" class="stroke_order_diagram--path_start" transform="matrix(1,0,0,1,196,-4)"></circle><line x1="350" x2="350" y1="1" y2="99" class="stroke_order_diagram--guide_line"></line><line x1="399" x2="399" y1="1" y2="99" class="stroke_order_diagram--bounding_box"></line><path id="pathSk2v596cn1pih" kvg:type="㇇" d="M16.67,18.92c1.58,0.83,2.96,0.71,4.8,0.41c4.57-0.74,9.66-1.82,12.95-2.66c3.07-0.78,4.55,1.65,3.42,4.08c-2.08,4.5-5.71,12.88-9.08,19" transform="matrix(1,0,0,1,296,-4)" class="stroke_order_diagram--existing_path"></path><path id="pathSk2v596cn1pii" kvg:type="㇕va" d="M28.75,39.75c10.5,9.5,10.5,33.75-1.08,25.75" transform="matrix(1,0,0,1,296,-4)" class="stroke_order_diagram--existing_path"></path><path id="pathSk2v596cn1pij" kvg:type="㇑" d="M17.62,19.5c0.88,0.88,1.21,2.25,1.21,3.75c0,4.22,0.02,45.96,0.03,64.12c0,3.88,0,6.63,0,7.62" transform="matrix(1,0,0,1,296,-4)" class="stroke_order_diagram--existing_path"></path><path id="kvg:096a0-s4" kvg:type="㇒" d="M74.51,13.64c0,0.73-0.55,1.58-1.21,2.06c-3.42,2.49-14.29,6.25-26.01,8.16" transform="matrix(1,0,0,1,296,-4)" class="stroke_order_diagram--current_path"></path><path id="pathSk2v596cn1pil" kvg:type="㇒" d="M74.51,13.64c0,0.73-0.55,1.58-1.21,2.06c-3.42,2.49-14.29,6.25-26.01,8.16" transform="matrix(1,0,0,1,296,-4)" class="stroke_order_diagram--current_path"></path><circle cx="74.51" cy="13.64" r="8" class="stroke_order_diagram--path_start" transform="matrix(1,0,0,1,296,-4)"></circle><line x1="450" x2="450" y1="1" y2="99" class="stroke_order_diagram--guide_line"></line><line x1="499" x2="499" y1="1" y2="99" class="stroke_order_diagram--bounding_box"></line><path id="pathSk2v596cn1pio" kvg:type="㇇" d="M16.67,18.92c1.58,0.83,2.96,0.71,4.8,0.41c4.57-0.74,9.66-1.82,12.95-2.66c3.07-0.78,4.55,1.65,3.42,4.08c-2.08,4.5-5.71,12.88-9.08,19" transform="matrix(1,0,0,1,396,-4)" class="stroke_order_diagram--existing_path"></path><path id="pathSk2v596cn1pip" kvg:type="㇕va" d="M28.75,39.75c10.5,9.5,10.5,33.75-1.08,25.75" transform="matrix(1,0,0,1,396,-4)" class="stroke_order_diagram--existing_path"></path><path id="pathSk2v596cn1piq" kvg:type="㇑" d="M17.62,19.5c0.88,0.88,1.21,2.25,1.21,3.75c0,4.22,0.02,45.96,0.03,64.12c0,3.88,0,6.63,0,7.62" transform="matrix(1,0,0,1,396,-4)" class="stroke_order_diagram--existing_path"></path><path id="pathSk2v596cn1pir" kvg:type="㇒" d="M74.51,13.64c0,0.73-0.55,1.58-1.21,2.06c-3.42,2.49-14.29,6.25-26.01,8.16" transform="matrix(1,0,0,1,396,-4)" class="stroke_order_diagram--existing_path"></path><path id="kvg:096a0-s5" kvg:type="㇔" d="M47.64,26.85c1.79,1.83,4.63,7.52,5.07,10.36" transform="matrix(1,0,0,1,396,-4)" class="stroke_order_diagram--current_path"></path><path id="pathSk2v596cn1pit" kvg:type="㇔" d="M47.64,26.85c1.79,1.83,4.63,7.52,5.07,10.36" transform="matrix(1,0,0,1,396,-4)" class="stroke_order_diagram--current_path"></path><circle cx="47.64" cy="26.85" r="8" class="stroke_order_diagram--path_start" transform="matrix(1,0,0,1,396,-4)"></circle><line x1="550" x2="550" y1="1" y2="99" class="stroke_order_diagram--guide_line"></line><line x1="599" x2="599" y1="1" y2="99" class="stroke_order_diagram--bounding_box"></line><path id="pathSk2v596cn1piw" kvg:type="㇇" d="M16.67,18.92c1.58,0.83,2.96,0.71,4.8,0.41c4.57-0.74,9.66-1.82,12.95-2.66c3.07-0.78,4.55,1.65,3.42,4.08c-2.08,4.5-5.71,12.88-9.08,19" transform="matrix(1,0,0,1,496,-4)" class="stroke_order_diagram--existing_path"></path><path id="pathSk2v596cn1pix" kvg:type="㇕va" d="M28.75,39.75c10.5,9.5,10.5,33.75-1.08,25.75" transform="matrix(1,0,0,1,496,-4)" class="stroke_order_diagram--existing_path"></path><path id="pathSk2v596cn1piy" kvg:type="㇑" d="M17.62,19.5c0.88,0.88,1.21,2.25,1.21,3.75c0,4.22,0.02,45.96,0.03,64.12c0,3.88,0,6.63,0,7.62" transform="matrix(1,0,0,1,496,-4)" class="stroke_order_diagram--existing_path"></path><path id="pathSk2v596cn1piz" kvg:type="㇒" d="M74.51,13.64c0,0.73-0.55,1.58-1.21,2.06c-3.42,2.49-14.29,6.25-26.01,8.16" transform="matrix(1,0,0,1,496,-4)" class="stroke_order_diagram--existing_path"></path><path id="pathSk2v596cn1pj0" kvg:type="㇔" d="M47.64,26.85c1.79,1.83,4.63,7.52,5.07,10.36" transform="matrix(1,0,0,1,496,-4)" class="stroke_order_diagram--existing_path"></path><path id="kvg:096a0-s6" kvg:type="㇔" d="M61,26.12c1.96,1.78,5.08,7.31,5.57,10.07" transform="matrix(1,0,0,1,496,-4)" class="stroke_order_diagram--current_path"></path><path id="pathSk2v596cn1pj2" kvg:type="㇔" d="M61,26.12c1.96,1.78,5.08,7.31,5.57,10.07" transform="matrix(1,0,0,1,496,-4)" class="stroke_order_diagram--current_path"></path><circle cx="61" cy="26.12" r="8" class="stroke_order_diagram--path_start" transform="matrix(1,0,0,1,496,-4)"></circle><line x1="650" x2="650" y1="1" y2="99" class="stroke_order_diagram--guide_line"></line><line x1="699" x2="699" y1="1" y2="99" class="stroke_order_diagram--bounding_box"></line><path id="pathSk2v596cn1pj5" kvg:type="㇇" d="M16.67,18.92c1.58,0.83,2.96,0.71,4.8,0.41c4.57-0.74,9.66-1.82,12.95-2.66c3.07-0.78,4.55,1.65,3.42,4.08c-2.08,4.5-5.71,12.88-9.08,19" transform="matrix(1,0,0,1,596,-4)" class="stroke_order_diagram--existing_path"></path><path id="pathSk2v596cn1pj6" kvg:type="㇕va" d="M28.75,39.75c10.5,9.5,10.5,33.75-1.08,25.75" transform="matrix(1,0,0,1,596,-4)" class="stroke_order_diagram--existing_path"></path><path id="pathSk2v596cn1pj7" kvg:type="㇑" d="M17.62,19.5c0.88,0.88,1.21,2.25,1.21,3.75c0,4.22,0.02,45.96,0.03,64.12c0,3.88,0,6.63,0,7.62" transform="matrix(1,0,0,1,596,-4)" class="stroke_order_diagram--existing_path"></path><path id="pathSk2v596cn1pj8" kvg:type="㇒" d="M74.51,13.64c0,0.73-0.55,1.58-1.21,2.06c-3.42,2.49-14.29,6.25-26.01,8.16" transform="matrix(1,0,0,1,596,-4)" class="stroke_order_diagram--existing_path"></path><path id="pathSk2v596cn1pj9" kvg:type="㇔" d="M47.64,26.85c1.79,1.83,4.63,7.52,5.07,10.36" transform="matrix(1,0,0,1,596,-4)" class="stroke_order_diagram--existing_path"></path><path id="pathSk2v596cn1pja" kvg:type="㇔" d="M61,26.12c1.96,1.78,5.08,7.31,5.57,10.07" transform="matrix(1,0,0,1,596,-4)" class="stroke_order_diagram--existing_path"></path><path id="kvg:096a0-s7" kvg:type="㇒" d="M83.65,23.16c0.09,0.92-0.03,1.81-0.48,2.61c-2.04,3.6-4.67,6.6-9.58,11.16" transform="matrix(1,0,0,1,596,-4)" class="stroke_order_diagram--current_path"></path><path id="pathSk2v596cn1pjc" kvg:type="㇒" d="M83.65,23.16c0.09,0.92-0.03,1.81-0.48,2.61c-2.04,3.6-4.67,6.6-9.58,11.16" transform="matrix(1,0,0,1,596,-4)" class="stroke_order_diagram--current_path"></path><circle cx="83.65" cy="23.16" r="8" class="stroke_order_diagram--path_start" transform="matrix(1,0,0,1,596,-4)"></circle><line x1="750" x2="750" y1="1" y2="99" class="stroke_order_diagram--guide_line"></line><line x1="799" x2="799" y1="1" y2="99" class="stroke_order_diagram--bounding_box"></line><path id="pathSk2v596cn1pjf" kvg:type="㇇" d="M16.67,18.92c1.58,0.83,2.96,0.71,4.8,0.41c4.57-0.74,9.66-1.82,12.95-2.66c3.07-0.78,4.55,1.65,3.42,4.08c-2.08,4.5-5.71,12.88-9.08,19" transform="matrix(1,0,0,1,696,-4)" class="stroke_order_diagram--existing_path"></path><path id="pathSk2v596cn1pjg" kvg:type="㇕va" d="M28.75,39.75c10.5,9.5,10.5,33.75-1.08,25.75" transform="matrix(1,0,0,1,696,-4)" class="stroke_order_diagram--existing_path"></path><path id="pathSk2v596cn1pjh" kvg:type="㇑" d="M17.62,19.5c0.88,0.88,1.21,2.25,1.21,3.75c0,4.22,0.02,45.96,0.03,64.12c0,3.88,0,6.63,0,7.62" transform="matrix(1,0,0,1,696,-4)" class="stroke_order_diagram--existing_path"></path><path id="pathSk2v596cn1pji" kvg:type="㇒" d="M74.51,13.64c0,0.73-0.55,1.58-1.21,2.06c-3.42,2.49-14.29,6.25-26.01,8.16" transform="matrix(1,0,0,1,696,-4)" class="stroke_order_diagram--existing_path"></path><path id="pathSk2v596cn1pjj" kvg:type="㇔" d="M47.64,26.85c1.79,1.83,4.63,7.52,5.07,10.36" transform="matrix(1,0,0,1,696,-4)" class="stroke_order_diagram--existing_path"></path><path id="pathSk2v596cn1pjk" kvg:type="㇔" d="M61,26.12c1.96,1.78,5.08,7.31,5.57,10.07" transform="matrix(1,0,0,1,696,-4)" class="stroke_order_diagram--existing_path"></path><path id="pathSk2v596cn1pjl" kvg:type="㇒" d="M83.65,23.16c0.09,0.92-0.03,1.81-0.48,2.61c-2.04,3.6-4.67,6.6-9.58,11.16" transform="matrix(1,0,0,1,696,-4)" class="stroke_order_diagram--existing_path"></path><path id="kvg:096a0-s8" kvg:type="㇕" d="M45.16,43.19c1.77,0.22,3.12,0.37,4.75,0.19c11.84-1.26,22.37-2.79,29.22-3.63c2.28-0.28,3.89,1.11,3.54,3.32c-0.75,4.7-1.87,10.18-3.02,16.41c-0.27,1.46-0.54,2.95-0.81,4.46" transform="matrix(1,0,0,1,696,-4)" class="stroke_order_diagram--current_path"></path><path id="pathSk2v596cn1pjn" kvg:type="㇕" d="M45.16,43.19c1.77,0.22,3.12,0.37,4.75,0.19c11.84-1.26,22.37-2.79,29.22-3.63c2.28-0.28,3.89,1.11,3.54,3.32c-0.75,4.7-1.87,10.18-3.02,16.41c-0.27,1.46-0.54,2.95-0.81,4.46" transform="matrix(1,0,0,1,696,-4)" class="stroke_order_diagram--current_path"></path><circle cx="45.16" cy="43.19" r="8" class="stroke_order_diagram--path_start" transform="matrix(1,0,0,1,696,-4)"></circle><line x1="850" x2="850" y1="1" y2="99" class="stroke_order_diagram--guide_line"></line><line x1="899" x2="899" y1="1" y2="99" class="stroke_order_diagram--bounding_box"></line><path id="pathSk2v596cn1pjq" kvg:type="㇇" d="M16.67,18.92c1.58,0.83,2.96,0.71,4.8,0.41c4.57-0.74,9.66-1.82,12.95-2.66c3.07-0.78,4.55,1.65,3.42,4.08c-2.08,4.5-5.71,12.88-9.08,19" transform="matrix(1,0,0,1,796,-4)" class="stroke_order_diagram--existing_path"></path><path id="pathSk2v596cn1pjr" kvg:type="㇕va" d="M28.75,39.75c10.5,9.5,10.5,33.75-1.08,25.75" transform="matrix(1,0,0,1,796,-4)" class="stroke_order_diagram--existing_path"></path><path id="pathSk2v596cn1pjs" kvg:type="㇑" d="M17.62,19.5c0.88,0.88,1.21,2.25,1.21,3.75c0,4.22,0.02,45.96,0.03,64.12c0,3.88,0,6.63,0,7.62" transform="matrix(1,0,0,1,796,-4)" class="stroke_order_diagram--existing_path"></path><path id="pathSk2v596cn1pjt" kvg:type="㇒" d="M74.51,13.64c0,0.73-0.55,1.58-1.21,2.06c-3.42,2.49-14.29,6.25-26.01,8.16" transform="matrix(1,0,0,1,796,-4)" class="stroke_order_diagram--existing_path"></path><path id="pathSk2v596cn1pju" kvg:type="㇔" d="M47.64,26.85c1.79,1.83,4.63,7.52,5.07,10.36" transform="matrix(1,0,0,1,796,-4)" class="stroke_order_diagram--existing_path"></path><path id="pathSk2v596cn1pjv" kvg:type="㇔" d="M61,26.12c1.96,1.78,5.08,7.31,5.57,10.07" transform="matrix(1,0,0,1,796,-4)" class="stroke_order_diagram--existing_path"></path><path id="pathSk2v596cn1pjw" kvg:type="㇒" d="M83.65,23.16c0.09,0.92-0.03,1.81-0.48,2.61c-2.04,3.6-4.67,6.6-9.58,11.16" transform="matrix(1,0,0,1,796,-4)" class="stroke_order_diagram--existing_path"></path><path id="pathSk2v596cn1pjx" kvg:type="㇕" d="M45.16,43.19c1.77,0.22,3.12,0.37,4.75,0.19c11.84-1.26,22.37-2.79,29.22-3.63c2.28-0.28,3.89,1.11,3.54,3.32c-0.75,4.7-1.87,10.18-3.02,16.41c-0.27,1.46-0.54,2.95-0.81,4.46" transform="matrix(1,0,0,1,796,-4)" class="stroke_order_diagram--existing_path"></path><path id="kvg:096a0-s9" kvg:type="㇐c" d="M45.63,52.96c1.37,0.42,2.61,0.5,4.23,0.33c15.02-1.66,22.89-2.78,30.45-3.56" transform="matrix(1,0,0,1,796,-4)" class="stroke_order_diagram--current_path"></path><path id="pathSk2v596cn1pjz" kvg:type="㇐c" d="M45.63,52.96c1.37,0.42,2.61,0.5,4.23,0.33c15.02-1.66,22.89-2.78,30.45-3.56" transform="matrix(1,0,0,1,796,-4)" class="stroke_order_diagram--current_path"></path><circle cx="45.63" cy="52.96" r="8" class="stroke_order_diagram--path_start" transform="matrix(1,0,0,1,796,-4)"></circle><line x1="950" x2="950" y1="1" y2="99" class="stroke_order_diagram--guide_line"></line><line x1="999" x2="999" y1="1" y2="99" class="stroke_order_diagram--bounding_box"></line><path id="pathSk2v596cn1pk2" kvg:type="㇇" d="M16.67,18.92c1.58,0.83,2.96,0.71,4.8,0.41c4.57-0.74,9.66-1.82,12.95-2.66c3.07-0.78,4.55,1.65,3.42,4.08c-2.08,4.5-5.71,12.88-9.08,19" transform="matrix(1,0,0,1,896,-4)" class="stroke_order_diagram--existing_path"></path><path id="pathSk2v596cn1pk3" kvg:type="㇕va" d="M28.75,39.75c10.5,9.5,10.5,33.75-1.08,25.75" transform="matrix(1,0,0,1,896,-4)" class="stroke_order_diagram--existing_path"></path><path id="pathSk2v596cn1pk4" kvg:type="㇑" d="M17.62,19.5c0.88,0.88,1.21,2.25,1.21,3.75c0,4.22,0.02,45.96,0.03,64.12c0,3.88,0,6.63,0,7.62" transform="matrix(1,0,0,1,896,-4)" class="stroke_order_diagram--existing_path"></path><path id="pathSk2v596cn1pk5" kvg:type="㇒" d="M74.51,13.64c0,0.73-0.55,1.58-1.21,2.06c-3.42,2.49-14.29,6.25-26.01,8.16" transform="matrix(1,0,0,1,896,-4)" class="stroke_order_diagram--existing_path"></path><path id="pathSk2v596cn1pk6" kvg:type="㇔" d="M47.64,26.85c1.79,1.83,4.63,7.52,5.07,10.36" transform="matrix(1,0,0,1,896,-4)" class="stroke_order_diagram--existing_path"></path><path id="pathSk2v596cn1pk7" kvg:type="㇔" d="M61,26.12c1.96,1.78,5.08,7.31,5.57,10.07" transform="matrix(1,0,0,1,896,-4)" class="stroke_order_diagram--existing_path"></path><path id="pathSk2v596cn1pk8" kvg:type="㇒" d="M83.65,23.16c0.09,0.92-0.03,1.81-0.48,2.61c-2.04,3.6-4.67,6.6-9.58,11.16" transform="matrix(1,0,0,1,896,-4)" class="stroke_order_diagram--existing_path"></path><path id="pathSk2v596cn1pk9" kvg:type="㇕" d="M45.16,43.19c1.77,0.22,3.12,0.37,4.75,0.19c11.84-1.26,22.37-2.79,29.22-3.63c2.28-0.28,3.89,1.11,3.54,3.32c-0.75,4.7-1.87,10.18-3.02,16.41c-0.27,1.46-0.54,2.95-0.81,4.46" transform="matrix(1,0,0,1,896,-4)" class="stroke_order_diagram--existing_path"></path><path id="pathSk2v596cn1pka" kvg:type="㇐c" d="M45.63,52.96c1.37,0.42,2.61,0.5,4.23,0.33c15.02-1.66,22.89-2.78,30.45-3.56" transform="matrix(1,0,0,1,896,-4)" class="stroke_order_diagram--existing_path"></path><path id="kvg:096a0-s10" kvg:type="㇐c" d="M46.49,63.99c1.51,0.26,3.11,0.29,4.43,0.16c11.33-1.14,18.45-2.77,27.19-3.53" transform="matrix(1,0,0,1,896,-4)" class="stroke_order_diagram--current_path"></path><path id="pathSk2v596cn1pkc" kvg:type="㇐c" d="M46.49,63.99c1.51,0.26,3.11,0.29,4.43,0.16c11.33-1.14,18.45-2.77,27.19-3.53" transform="matrix(1,0,0,1,896,-4)" class="stroke_order_diagram--current_path"></path><circle cx="46.49" cy="63.99" r="8" class="stroke_order_diagram--path_start" transform="matrix(1,0,0,1,896,-4)"></circle><line x1="1050" x2="1050" y1="1" y2="99" class="stroke_order_diagram--guide_line"></line><line x1="1099" x2="1099" y1="1" y2="99" class="stroke_order_diagram--bounding_box"></line><path id="pathSk2v596cn1pkf" kvg:type="㇇" d="M16.67,18.92c1.58,0.83,2.96,0.71,4.8,0.41c4.57-0.74,9.66-1.82,12.95-2.66c3.07-0.78,4.55,1.65,3.42,4.08c-2.08,4.5-5.71,12.88-9.08,19" transform="matrix(1,0,0,1,996,-4)" class="stroke_order_diagram--existing_path"></path><path id="pathSk2v596cn1pkg" kvg:type="㇕va" d="M28.75,39.75c10.5,9.5,10.5,33.75-1.08,25.75" transform="matrix(1,0,0,1,996,-4)" class="stroke_order_diagram--existing_path"></path><path id="pathSk2v596cn1pkh" kvg:type="㇑" d="M17.62,19.5c0.88,0.88,1.21,2.25,1.21,3.75c0,4.22,0.02,45.96,0.03,64.12c0,3.88,0,6.63,0,7.62" transform="matrix(1,0,0,1,996,-4)" class="stroke_order_diagram--existing_path"></path><path id="pathSk2v596cn1pki" kvg:type="㇒" d="M74.51,13.64c0,0.73-0.55,1.58-1.21,2.06c-3.42,2.49-14.29,6.25-26.01,8.16" transform="matrix(1,0,0,1,996,-4)" class="stroke_order_diagram--existing_path"></path><path id="pathSk2v596cn1pkj" kvg:type="㇔" d="M47.64,26.85c1.79,1.83,4.63,7.52,5.07,10.36" transform="matrix(1,0,0,1,996,-4)" class="stroke_order_diagram--existing_path"></path><path id="pathSk2v596cn1pkk" kvg:type="㇔" d="M61,26.12c1.96,1.78,5.08,7.31,5.57,10.07" transform="matrix(1,0,0,1,996,-4)" class="stroke_order_diagram--existing_path"></path><path id="pathSk2v596cn1pkl" kvg:type="㇒" d="M83.65,23.16c0.09,0.92-0.03,1.81-0.48,2.61c-2.04,3.6-4.67,6.6-9.58,11.16" transform="matrix(1,0,0,1,996,-4)" class="stroke_order_diagram--existing_path"></path><path id="pathSk2v596cn1pkm" kvg:type="㇕" d="M45.16,43.19c1.77,0.22,3.12,0.37,4.75,0.19c11.84-1.26,22.37-2.79,29.22-3.63c2.28-0.28,3.89,1.11,3.54,3.32c-0.75,4.7-1.87,10.18-3.02,16.41c-0.27,1.46-0.54,2.95-0.81,4.46" transform="matrix(1,0,0,1,996,-4)" class="stroke_order_diagram--existing_path"></path><path id="pathSk2v596cn1pkn" kvg:type="㇐c" d="M45.63,52.96c1.37,0.42,2.61,0.5,4.23,0.33c15.02-1.66,22.89-2.78,30.45-3.56" transform="matrix(1,0,0,1,996,-4)" class="stroke_order_diagram--existing_path"></path><path id="pathSk2v596cn1pko" kvg:type="㇐c" d="M46.49,63.99c1.51,0.26,3.11,0.29,4.43,0.16c11.33-1.14,18.45-2.77,27.19-3.53" transform="matrix(1,0,0,1,996,-4)" class="stroke_order_diagram--existing_path"></path><path id="kvg:096a0-s11" kvg:type="㇔" d="M40.75,77.75c0.3,2.24-2.97,12.15-5.35,15.89" transform="matrix(1,0,0,1,996,-4)" class="stroke_order_diagram--current_path"></path><path id="pathSk2v596cn1pkq" kvg:type="㇔" d="M40.75,77.75c0.3,2.24-2.97,12.15-5.35,15.89" transform="matrix(1,0,0,1,996,-4)" class="stroke_order_diagram--current_path"></path><circle cx="40.75" cy="77.75" r="8" class="stroke_order_diagram--path_start" transform="matrix(1,0,0,1,996,-4)"></circle><line x1="1150" x2="1150" y1="1" y2="99" class="stroke_order_diagram--guide_line"></line><line x1="1199" x2="1199" y1="1" y2="99" class="stroke_order_diagram--bounding_box"></line><path id="pathSk2v596cn1pkt" kvg:type="㇇" d="M16.67,18.92c1.58,0.83,2.96,0.71,4.8,0.41c4.57-0.74,9.66-1.82,12.95-2.66c3.07-0.78,4.55,1.65,3.42,4.08c-2.08,4.5-5.71,12.88-9.08,19" transform="matrix(1,0,0,1,1096,-4)" class="stroke_order_diagram--existing_path"></path><path id="pathSk2v596cn1pku" kvg:type="㇕va" d="M28.75,39.75c10.5,9.5,10.5,33.75-1.08,25.75" transform="matrix(1,0,0,1,1096,-4)" class="stroke_order_diagram--existing_path"></path><path id="pathSk2v596cn1pkv" kvg:type="㇑" d="M17.62,19.5c0.88,0.88,1.21,2.25,1.21,3.75c0,4.22,0.02,45.96,0.03,64.12c0,3.88,0,6.63,0,7.62" transform="matrix(1,0,0,1,1096,-4)" class="stroke_order_diagram--existing_path"></path><path id="pathSk2v596cn1pkw" kvg:type="㇒" d="M74.51,13.64c0,0.73-0.55,1.58-1.21,2.06c-3.42,2.49-14.29,6.25-26.01,8.16" transform="matrix(1,0,0,1,1096,-4)" class="stroke_order_diagram--existing_path"></path><path id="pathSk2v596cn1pkx" kvg:type="㇔" d="M47.64,26.85c1.79,1.83,4.63,7.52,5.07,10.36" transform="matrix(1,0,0,1,1096,-4)" class="stroke_order_diagram--existing_path"></path><path id="pathSk2v596cn1pky" kvg:type="㇔" d="M61,26.12c1.96,1.78,5.08,7.31,5.57,10.07" transform="matrix(1,0,0,1,1096,-4)" class="stroke_order_diagram--existing_path"></path><path id="pathSk2v596cn1pkz" kvg:type="㇒" d="M83.65,23.16c0.09,0.92-0.03,1.81-0.48,2.61c-2.04,3.6-4.67,6.6-9.58,11.16" transform="matrix(1,0,0,1,1096,-4)" class="stroke_order_diagram--existing_path"></path><path id="pathSk2v596cn1pl0" kvg:type="㇕" d="M45.16,43.19c1.77,0.22,3.12,0.37,4.75,0.19c11.84-1.26,22.37-2.79,29.22-3.63c2.28-0.28,3.89,1.11,3.54,3.32c-0.75,4.7-1.87,10.18-3.02,16.41c-0.27,1.46-0.54,2.95-0.81,4.46" transform="matrix(1,0,0,1,1096,-4)" class="stroke_order_diagram--existing_path"></path><path id="pathSk2v596cn1pl1" kvg:type="㇐c" d="M45.63,52.96c1.37,0.42,2.61,0.5,4.23,0.33c15.02-1.66,22.89-2.78,30.45-3.56" transform="matrix(1,0,0,1,1096,-4)" class="stroke_order_diagram--existing_path"></path><path id="pathSk2v596cn1pl2" kvg:type="㇐c" d="M46.49,63.99c1.51,0.26,3.11,0.29,4.43,0.16c11.33-1.14,18.45-2.77,27.19-3.53" transform="matrix(1,0,0,1,1096,-4)" class="stroke_order_diagram--existing_path"></path><path id="pathSk2v596cn1pl3" kvg:type="㇔" d="M40.75,77.75c0.3,2.24-2.97,12.15-5.35,15.89" transform="matrix(1,0,0,1,1096,-4)" class="stroke_order_diagram--existing_path"></path><path id="kvg:096a0-s12" kvg:type="㇟b" d="M49.93,73.63c6.82,17.62,17.32,21.87,34.14,20.26c6.9-0.66,7.68-4.39,1.99-7.51" transform="matrix(1,0,0,1,1096,-4)" class="stroke_order_diagram--current_path"></path><path id="pathSk2v596cn1pl5" kvg:type="㇟b" d="M49.93,73.63c6.82,17.62,17.32,21.87,34.14,20.26c6.9-0.66,7.68-4.39,1.99-7.51" transform="matrix(1,0,0,1,1096,-4)" class="stroke_order_diagram--current_path"></path><circle cx="49.93" cy="73.63" r="8" class="stroke_order_diagram--path_start" transform="matrix(1,0,0,1,1096,-4)"></circle><line x1="1250" x2="1250" y1="1" y2="99" class="stroke_order_diagram--guide_line"></line><line x1="1299" x2="1299" y1="1" y2="99" class="stroke_order_diagram--bounding_box"></line><path id="pathSk2v596cn1pl8" kvg:type="㇇" d="M16.67,18.92c1.58,0.83,2.96,0.71,4.8,0.41c4.57-0.74,9.66-1.82,12.95-2.66c3.07-0.78,4.55,1.65,3.42,4.08c-2.08,4.5-5.71,12.88-9.08,19" transform="matrix(1,0,0,1,1196,-4)" class="stroke_order_diagram--existing_path"></path><path id="pathSk2v596cn1pl9" kvg:type="㇕va" d="M28.75,39.75c10.5,9.5,10.5,33.75-1.08,25.75" transform="matrix(1,0,0,1,1196,-4)" class="stroke_order_diagram--existing_path"></path><path id="pathSk2v596cn1pla" kvg:type="㇑" d="M17.62,19.5c0.88,0.88,1.21,2.25,1.21,3.75c0,4.22,0.02,45.96,0.03,64.12c0,3.88,0,6.63,0,7.62" transform="matrix(1,0,0,1,1196,-4)" class="stroke_order_diagram--existing_path"></path><path id="pathSk2v596cn1plb" kvg:type="㇒" d="M74.51,13.64c0,0.73-0.55,1.58-1.21,2.06c-3.42,2.49-14.29,6.25-26.01,8.16" transform="matrix(1,0,0,1,1196,-4)" class="stroke_order_diagram--existing_path"></path><path id="pathSk2v596cn1plc" kvg:type="㇔" d="M47.64,26.85c1.79,1.83,4.63,7.52,5.07,10.36" transform="matrix(1,0,0,1,1196,-4)" class="stroke_order_diagram--existing_path"></path><path id="pathSk2v596cn1pld" kvg:type="㇔" d="M61,26.12c1.96,1.78,5.08,7.31,5.57,10.07" transform="matrix(1,0,0,1,1196,-4)" class="stroke_order_diagram--existing_path"></path><path id="pathSk2v596cn1ple" kvg:type="㇒" d="M83.65,23.16c0.09,0.92-0.03,1.81-0.48,2.61c-2.04,3.6-4.67,6.6-9.58,11.16" transform="matrix(1,0,0,1,1196,-4)" class="stroke_order_diagram--existing_path"></path><path id="pathSk2v596cn1plf" kvg:type="㇕" d="M45.16,43.19c1.77,0.22,3.12,0.37,4.75,0.19c11.84-1.26,22.37-2.79,29.22-3.63c2.28-0.28,3.89,1.11,3.54,3.32c-0.75,4.7-1.87,10.18-3.02,16.41c-0.27,1.46-0.54,2.95-0.81,4.46" transform="matrix(1,0,0,1,1196,-4)" class="stroke_order_diagram--existing_path"></path><path id="pathSk2v596cn1plg" kvg:type="㇐c" d="M45.63,52.96c1.37,0.42,2.61,0.5,4.23,0.33c15.02-1.66,22.89-2.78,30.45-3.56" transform="matrix(1,0,0,1,1196,-4)" class="stroke_order_diagram--existing_path"></path><path id="pathSk2v596cn1plh" kvg:type="㇐c" d="M46.49,63.99c1.51,0.26,3.11,0.29,4.43,0.16c11.33-1.14,18.45-2.77,27.19-3.53" transform="matrix(1,0,0,1,1196,-4)" class="stroke_order_diagram--existing_path"></path><path id="pathSk2v596cn1pli" kvg:type="㇔" d="M40.75,77.75c0.3,2.24-2.97,12.15-5.35,15.89" transform="matrix(1,0,0,1,1196,-4)" class="stroke_order_diagram--existing_path"></path><path id="pathSk2v596cn1plj" kvg:type="㇟b" d="M49.93,73.63c6.82,17.62,17.32,21.87,34.14,20.26c6.9-0.66,7.68-4.39,1.99-7.51" transform="matrix(1,0,0,1,1196,-4)" class="stroke_order_diagram--existing_path"></path><path id="kvg:096a0-s13" kvg:type="㇔" d="M62.19,71.99c1.28,2.72,4.31,9.01,5.44,3.96" transform="matrix(1,0,0,1,1196,-4)" class="stroke_order_diagram--current_path"></path><path id="pathSk2v596cn1pll" kvg:type="㇔" d="M62.19,71.99c1.28,2.72,4.31,9.01,5.44,3.96" transform="matrix(1,0,0,1,1196,-4)" class="stroke_order_diagram--current_path"></path><circle cx="62.19" cy="71.99" r="8" class="stroke_order_diagram--path_start" transform="matrix(1,0,0,1,1196,-4)"></circle><line x1="1350" x2="1350" y1="1" y2="99" class="stroke_order_diagram--guide_line"></line><line x1="1399" x2="1399" y1="1" y2="99" class="stroke_order_diagram--bounding_box"></line><path id="pathSk2v596cn1plo" kvg:type="㇇" d="M16.67,18.92c1.58,0.83,2.96,0.71,4.8,0.41c4.57-0.74,9.66-1.82,12.95-2.66c3.07-0.78,4.55,1.65,3.42,4.08c-2.08,4.5-5.71,12.88-9.08,19" transform="matrix(1,0,0,1,1296,-4)" class="stroke_order_diagram--existing_path"></path><path id="pathSk2v596cn1plp" kvg:type="㇕va" d="M28.75,39.75c10.5,9.5,10.5,33.75-1.08,25.75" transform="matrix(1,0,0,1,1296,-4)" class="stroke_order_diagram--existing_path"></path><path id="pathSk2v596cn1plq" kvg:type="㇑" d="M17.62,19.5c0.88,0.88,1.21,2.25,1.21,3.75c0,4.22,0.02,45.96,0.03,64.12c0,3.88,0,6.63,0,7.62" transform="matrix(1,0,0,1,1296,-4)" class="stroke_order_diagram--existing_path"></path><path id="pathSk2v596cn1plr" kvg:type="㇒" d="M74.51,13.64c0,0.73-0.55,1.58-1.21,2.06c-3.42,2.49-14.29,6.25-26.01,8.16" transform="matrix(1,0,0,1,1296,-4)" class="stroke_order_diagram--existing_path"></path><path id="pathSk2v596cn1pls" kvg:type="㇔" d="M47.64,26.85c1.79,1.83,4.63,7.52,5.07,10.36" transform="matrix(1,0,0,1,1296,-4)" class="stroke_order_diagram--existing_path"></path><path id="pathSk2v596cn1plt" kvg:type="㇔" d="M61,26.12c1.96,1.78,5.08,7.31,5.57,10.07" transform="matrix(1,0,0,1,1296,-4)" class="stroke_order_diagram--existing_path"></path><path id="pathSk2v596cn1plu" kvg:type="㇒" d="M83.65,23.16c0.09,0.92-0.03,1.81-0.48,2.61c-2.04,3.6-4.67,6.6-9.58,11.16" transform="matrix(1,0,0,1,1296,-4)" class="stroke_order_diagram--existing_path"></path><path id="pathSk2v596cn1plv" kvg:type="㇕" d="M45.16,43.19c1.77,0.22,3.12,0.37,4.75,0.19c11.84-1.26,22.37-2.79,29.22-3.63c2.28-0.28,3.89,1.11,3.54,3.32c-0.75,4.7-1.87,10.18-3.02,16.41c-0.27,1.46-0.54,2.95-0.81,4.46" transform="matrix(1,0,0,1,1296,-4)" class="stroke_order_diagram--existing_path"></path><path id="pathSk2v596cn1plw" kvg:type="㇐c" d="M45.63,52.96c1.37,0.42,2.61,0.5,4.23,0.33c15.02-1.66,22.89-2.78,30.45-3.56" transform="matrix(1,0,0,1,1296,-4)" class="stroke_order_diagram--existing_path"></path><path id="pathSk2v596cn1plx" kvg:type="㇐c" d="M46.49,63.99c1.51,0.26,3.11,0.29,4.43,0.16c11.33-1.14,18.45-2.77,27.19-3.53" transform="matrix(1,0,0,1,1296,-4)" class="stroke_order_diagram--existing_path"></path><path id="pathSk2v596cn1ply" kvg:type="㇔" d="M40.75,77.75c0.3,2.24-2.97,12.15-5.35,15.89" transform="matrix(1,0,0,1,1296,-4)" class="stroke_order_diagram--existing_path"></path><path id="pathSk2v596cn1plz" kvg:type="㇟b" d="M49.93,73.63c6.82,17.62,17.32,21.87,34.14,20.26c6.9-0.66,7.68-4.39,1.99-7.51" transform="matrix(1,0,0,1,1296,-4)" class="stroke_order_diagram--existing_path"></path><path id="pathSk2v596cn1pm0" kvg:type="㇔" d="M62.19,71.99c1.28,2.72,4.31,9.01,5.44,3.96" transform="matrix(1,0,0,1,1296,-4)" class="stroke_order_diagram--existing_path"></path><path id="kvg:096a0-s14" kvg:type="㇔" d="M85.17,70.06c3.5,2.64,7.44,6.56,10.31,11.8" transform="matrix(1,0,0,1,1296,-4)" class="stroke_order_diagram--current_path"></path><path id="pathSk2v596cn1pm2" kvg:type="㇔" d="M85.17,70.06c3.5,2.64,7.44,6.56,10.31,11.8" transform="matrix(1,0,0,1,1296,-4)" class="stroke_order_diagram--current_path"></path><circle cx="85.17" cy="70.06" r="8" class="stroke_order_diagram--path_start" transform="matrix(1,0,0,1,1296,-4)"></circle></svg>