<svg style="width: 1200px; height: 100px;" viewbox="0 0 1200 100"><style>
.stroke_order_diagram--outer_container {
  width: 100%;
  overflow-x: auto;
  overflow-y: hidden;
}

.stroke_order_diagram--guide_line {
  fill: none;
  stroke: #ddd;
  stroke-width: 3;
  stroke-linecap: square;
  stroke-linejoin: square;
  stroke-dasharray:8, 8;
}

.stroke_order_diagram--bounding_box {
  fill: none;
  stroke: #ddd;
  stroke-width: 4;
  stroke-linecap: square;
  stroke-linejoin: square;
}

.stroke_order_diagram--current_path {
  fill: none;
  stroke: #000;
  stroke-width: 6;
  stroke-linecap: round;
  stroke-linejoin: round;
}

.stroke_order_diagram--existing_path {
  fill: none;
  stroke: #aaa;
  stroke-width: 6;
  stroke-linecap: round;
  stroke-linejoin:round;
}

.stroke_order_diagram--path_start {
  fill: rgba(255, 0, 0, 0.7);
  stroke:none
}</style><desc>Created with Snap</desc><defs></defs><line x1="1" x2="1199" y1="1" y2="1" class="stroke_order_diagram--bounding_box"></line><line x1="1" x2="1" y1="1" y2="99" class="stroke_order_diagram--bounding_box"></line><line x1="1" x2="1199" y1="99" y2="99" class="stroke_order_diagram--bounding_box"></line><line x1="0" x2="1200" y1="50" y2="50" class="stroke_order_diagram--guide_line"></line><line x1="50" x2="50" y1="1" y2="99" class="stroke_order_diagram--guide_line"></line><line x1="99" x2="99" y1="1" y2="99" class="stroke_order_diagram--bounding_box"></line><path id="kvg:096c7-s1" kvg:type="㇐" d="M26.63,17.47c2.66,0.84,6.28,0.43,9,0.1C47.75,16.12,59,15.25,75,14.1c2.94-0.21,5.96-0.42,8.87,0.13" transform="matrix(1,0,0,1,-4,-4)" class="stroke_order_diagram--current_path"></path><path id="pathSk2v596cn2xkx" kvg:type="㇐" d="M26.63,17.47c2.66,0.84,6.28,0.43,9,0.1C47.75,16.12,59,15.25,75,14.1c2.94-0.21,5.96-0.42,8.87,0.13" transform="matrix(1,0,0,1,-4,-4)" class="stroke_order_diagram--current_path"></path><circle cx="26.63" cy="17.47" r="8" class="stroke_order_diagram--path_start" transform="matrix(1,0,0,1,-4,-4)"></circle><line x1="150" x2="150" y1="1" y2="99" class="stroke_order_diagram--guide_line"></line><line x1="199" x2="199" y1="1" y2="99" class="stroke_order_diagram--bounding_box"></line><path id="pathSk2v596cn2xl0" kvg:type="㇐" d="M26.63,17.47c2.66,0.84,6.28,0.43,9,0.1C47.75,16.12,59,15.25,75,14.1c2.94-0.21,5.96-0.42,8.87,0.13" transform="matrix(1,0,0,1,96,-4)" class="stroke_order_diagram--existing_path"></path><path id="kvg:096c7-s2" kvg:type="㇕c" d="M28.33,29.73c1.26,0.27,3.17,0.82,5.64,0.55C48.25,28.75,62,27,73.25,26.22c4.64-0.32,6.75,1.15,5.71,4.39c-1.06,3.27-1.16,4.09-2.65,9.17" transform="matrix(1,0,0,1,96,-4)" class="stroke_order_diagram--current_path"></path><path id="pathSk2v596cn2xl2" kvg:type="㇕c" d="M28.33,29.73c1.26,0.27,3.17,0.82,5.64,0.55C48.25,28.75,62,27,73.25,26.22c4.64-0.32,6.75,1.15,5.71,4.39c-1.06,3.27-1.16,4.09-2.65,9.17" transform="matrix(1,0,0,1,96,-4)" class="stroke_order_diagram--current_path"></path><circle cx="28.33" cy="29.73" r="8" class="stroke_order_diagram--path_start" transform="matrix(1,0,0,1,96,-4)"></circle><line x1="250" x2="250" y1="1" y2="99" class="stroke_order_diagram--guide_line"></line><line x1="299" x2="299" y1="1" y2="99" class="stroke_order_diagram--bounding_box"></line><path id="pathSk2v596cn2xl5" kvg:type="㇐" d="M26.63,17.47c2.66,0.84,6.28,0.43,9,0.1C47.75,16.12,59,15.25,75,14.1c2.94-0.21,5.96-0.42,8.87,0.13" transform="matrix(1,0,0,1,196,-4)" class="stroke_order_diagram--existing_path"></path><path id="pathSk2v596cn2xl6" kvg:type="㇕c" d="M28.33,29.73c1.26,0.27,3.17,0.82,5.64,0.55C48.25,28.75,62,27,73.25,26.22c4.64-0.32,6.75,1.15,5.71,4.39c-1.06,3.27-1.16,4.09-2.65,9.17" transform="matrix(1,0,0,1,196,-4)" class="stroke_order_diagram--existing_path"></path><path id="kvg:096c7-s3" kvg:type="㇐b" d="M32.65,45.25c7.54-0.66,28.59-3.1,41.11-4.38c1.76-0.18,3.35-0.09,4.74-0.23" transform="matrix(1,0,0,1,196,-4)" class="stroke_order_diagram--current_path"></path><path id="pathSk2v596cn2xl8" kvg:type="㇐b" d="M32.65,45.25c7.54-0.66,28.59-3.1,41.11-4.38c1.76-0.18,3.35-0.09,4.74-0.23" transform="matrix(1,0,0,1,196,-4)" class="stroke_order_diagram--current_path"></path><circle cx="32.65" cy="45.25" r="8" class="stroke_order_diagram--path_start" transform="matrix(1,0,0,1,196,-4)"></circle><line x1="350" x2="350" y1="1" y2="99" class="stroke_order_diagram--guide_line"></line><line x1="399" x2="399" y1="1" y2="99" class="stroke_order_diagram--bounding_box"></line><path id="pathSk2v596cn2xlb" kvg:type="㇐" d="M26.63,17.47c2.66,0.84,6.28,0.43,9,0.1C47.75,16.12,59,15.25,75,14.1c2.94-0.21,5.96-0.42,8.87,0.13" transform="matrix(1,0,0,1,296,-4)" class="stroke_order_diagram--existing_path"></path><path id="pathSk2v596cn2xlc" kvg:type="㇕c" d="M28.33,29.73c1.26,0.27,3.17,0.82,5.64,0.55C48.25,28.75,62,27,73.25,26.22c4.64-0.32,6.75,1.15,5.71,4.39c-1.06,3.27-1.16,4.09-2.65,9.17" transform="matrix(1,0,0,1,296,-4)" class="stroke_order_diagram--existing_path"></path><path id="pathSk2v596cn2xld" kvg:type="㇐b" d="M32.65,45.25c7.54-0.66,28.59-3.1,41.11-4.38c1.76-0.18,3.35-0.09,4.74-0.23" transform="matrix(1,0,0,1,296,-4)" class="stroke_order_diagram--existing_path"></path><path id="kvg:096c7-s4" kvg:type="㇒" d="M31.02,30.68c1.28,1.28,1.48,3.03,1.39,5.15C31.38,60.12,25.75,81.25,13,93" transform="matrix(1,0,0,1,296,-4)" class="stroke_order_diagram--current_path"></path><path id="pathSk2v596cn2xlf" kvg:type="㇒" d="M31.02,30.68c1.28,1.28,1.48,3.03,1.39,5.15C31.38,60.12,25.75,81.25,13,93" transform="matrix(1,0,0,1,296,-4)" class="stroke_order_diagram--current_path"></path><circle cx="31.02" cy="30.68" r="8" class="stroke_order_diagram--path_start" transform="matrix(1,0,0,1,296,-4)"></circle><line x1="450" x2="450" y1="1" y2="99" class="stroke_order_diagram--guide_line"></line><line x1="499" x2="499" y1="1" y2="99" class="stroke_order_diagram--bounding_box"></line><path id="pathSk2v596cn2xli" kvg:type="㇐" d="M26.63,17.47c2.66,0.84,6.28,0.43,9,0.1C47.75,16.12,59,15.25,75,14.1c2.94-0.21,5.96-0.42,8.87,0.13" transform="matrix(1,0,0,1,396,-4)" class="stroke_order_diagram--existing_path"></path><path id="pathSk2v596cn2xlj" kvg:type="㇕c" d="M28.33,29.73c1.26,0.27,3.17,0.82,5.64,0.55C48.25,28.75,62,27,73.25,26.22c4.64-0.32,6.75,1.15,5.71,4.39c-1.06,3.27-1.16,4.09-2.65,9.17" transform="matrix(1,0,0,1,396,-4)" class="stroke_order_diagram--existing_path"></path><path id="pathSk2v596cn2xlk" kvg:type="㇐b" d="M32.65,45.25c7.54-0.66,28.59-3.1,41.11-4.38c1.76-0.18,3.35-0.09,4.74-0.23" transform="matrix(1,0,0,1,396,-4)" class="stroke_order_diagram--existing_path"></path><path id="pathSk2v596cn2xll" kvg:type="㇒" d="M31.02,30.68c1.28,1.28,1.48,3.03,1.39,5.15C31.38,60.12,25.75,81.25,13,93" transform="matrix(1,0,0,1,396,-4)" class="stroke_order_diagram--existing_path"></path><path id="kvg:096c7-s5" kvg:type="㇒" d="M48.12,47.75c0.18,1.28-0.3,2.7-0.87,3.79c-3.64,6.97-8.26,12.37-16.62,20.85" transform="matrix(1,0,0,1,396,-4)" class="stroke_order_diagram--current_path"></path><path id="pathSk2v596cn2xln" kvg:type="㇒" d="M48.12,47.75c0.18,1.28-0.3,2.7-0.87,3.79c-3.64,6.97-8.26,12.37-16.62,20.85" transform="matrix(1,0,0,1,396,-4)" class="stroke_order_diagram--current_path"></path><circle cx="48.12" cy="47.75" r="8" class="stroke_order_diagram--path_start" transform="matrix(1,0,0,1,396,-4)"></circle><line x1="550" x2="550" y1="1" y2="99" class="stroke_order_diagram--guide_line"></line><line x1="599" x2="599" y1="1" y2="99" class="stroke_order_diagram--bounding_box"></line><path id="pathSk2v596cn2xlq" kvg:type="㇐" d="M26.63,17.47c2.66,0.84,6.28,0.43,9,0.1C47.75,16.12,59,15.25,75,14.1c2.94-0.21,5.96-0.42,8.87,0.13" transform="matrix(1,0,0,1,496,-4)" class="stroke_order_diagram--existing_path"></path><path id="pathSk2v596cn2xlr" kvg:type="㇕c" d="M28.33,29.73c1.26,0.27,3.17,0.82,5.64,0.55C48.25,28.75,62,27,73.25,26.22c4.64-0.32,6.75,1.15,5.71,4.39c-1.06,3.27-1.16,4.09-2.65,9.17" transform="matrix(1,0,0,1,496,-4)" class="stroke_order_diagram--existing_path"></path><path id="pathSk2v596cn2xls" kvg:type="㇐b" d="M32.65,45.25c7.54-0.66,28.59-3.1,41.11-4.38c1.76-0.18,3.35-0.09,4.74-0.23" transform="matrix(1,0,0,1,496,-4)" class="stroke_order_diagram--existing_path"></path><path id="pathSk2v596cn2xlt" kvg:type="㇒" d="M31.02,30.68c1.28,1.28,1.48,3.03,1.39,5.15C31.38,60.12,25.75,81.25,13,93" transform="matrix(1,0,0,1,496,-4)" class="stroke_order_diagram--existing_path"></path><path id="pathSk2v596cn2xlu" kvg:type="㇒" d="M48.12,47.75c0.18,1.28-0.3,2.7-0.87,3.79c-3.64,6.97-8.26,12.37-16.62,20.85" transform="matrix(1,0,0,1,496,-4)" class="stroke_order_diagram--existing_path"></path><path id="kvg:096c7-s6" kvg:type="㇑" d="M42.92,60.82c0.57,0.57,0.92,1.37,0.92,2.16c0,5.35,0.01,20.01,0.01,30.15c0,2.23,0,4.23,0,5.88" transform="matrix(1,0,0,1,496,-4)" class="stroke_order_diagram--current_path"></path><path id="pathSk2v596cn2xlw" kvg:type="㇑" d="M42.92,60.82c0.57,0.57,0.92,1.37,0.92,2.16c0,5.35,0.01,20.01,0.01,30.15c0,2.23,0,4.23,0,5.88" transform="matrix(1,0,0,1,496,-4)" class="stroke_order_diagram--current_path"></path><circle cx="42.92" cy="60.82" r="8" class="stroke_order_diagram--path_start" transform="matrix(1,0,0,1,496,-4)"></circle><line x1="650" x2="650" y1="1" y2="99" class="stroke_order_diagram--guide_line"></line><line x1="699" x2="699" y1="1" y2="99" class="stroke_order_diagram--bounding_box"></line><path id="pathSk2v596cn2xlz" kvg:type="㇐" d="M26.63,17.47c2.66,0.84,6.28,0.43,9,0.1C47.75,16.12,59,15.25,75,14.1c2.94-0.21,5.96-0.42,8.87,0.13" transform="matrix(1,0,0,1,596,-4)" class="stroke_order_diagram--existing_path"></path><path id="pathSk2v596cn2xm0" kvg:type="㇕c" d="M28.33,29.73c1.26,0.27,3.17,0.82,5.64,0.55C48.25,28.75,62,27,73.25,26.22c4.64-0.32,6.75,1.15,5.71,4.39c-1.06,3.27-1.16,4.09-2.65,9.17" transform="matrix(1,0,0,1,596,-4)" class="stroke_order_diagram--existing_path"></path><path id="pathSk2v596cn2xm1" kvg:type="㇐b" d="M32.65,45.25c7.54-0.66,28.59-3.1,41.11-4.38c1.76-0.18,3.35-0.09,4.74-0.23" transform="matrix(1,0,0,1,596,-4)" class="stroke_order_diagram--existing_path"></path><path id="pathSk2v596cn2xm2" kvg:type="㇒" d="M31.02,30.68c1.28,1.28,1.48,3.03,1.39,5.15C31.38,60.12,25.75,81.25,13,93" transform="matrix(1,0,0,1,596,-4)" class="stroke_order_diagram--existing_path"></path><path id="pathSk2v596cn2xm3" kvg:type="㇒" d="M48.12,47.75c0.18,1.28-0.3,2.7-0.87,3.79c-3.64,6.97-8.26,12.37-16.62,20.85" transform="matrix(1,0,0,1,596,-4)" class="stroke_order_diagram--existing_path"></path><path id="pathSk2v596cn2xm4" kvg:type="㇑" d="M42.92,60.82c0.57,0.57,0.92,1.37,0.92,2.16c0,5.35,0.01,20.01,0.01,30.15c0,2.23,0,4.23,0,5.88" transform="matrix(1,0,0,1,596,-4)" class="stroke_order_diagram--existing_path"></path><path id="kvg:096c7-s7" kvg:type="㇒" d="M68,45.25c0.06,0.64-0.02,1.48-0.2,2.02c-0.95,2.78-2.35,5.05-4.16,8" transform="matrix(1,0,0,1,596,-4)" class="stroke_order_diagram--current_path"></path><path id="pathSk2v596cn2xm6" kvg:type="㇒" d="M68,45.25c0.06,0.64-0.02,1.48-0.2,2.02c-0.95,2.78-2.35,5.05-4.16,8" transform="matrix(1,0,0,1,596,-4)" class="stroke_order_diagram--current_path"></path><circle cx="68" cy="45.25" r="8" class="stroke_order_diagram--path_start" transform="matrix(1,0,0,1,596,-4)"></circle><line x1="750" x2="750" y1="1" y2="99" class="stroke_order_diagram--guide_line"></line><line x1="799" x2="799" y1="1" y2="99" class="stroke_order_diagram--bounding_box"></line><path id="pathSk2v596cn2xm9" kvg:type="㇐" d="M26.63,17.47c2.66,0.84,6.28,0.43,9,0.1C47.75,16.12,59,15.25,75,14.1c2.94-0.21,5.96-0.42,8.87,0.13" transform="matrix(1,0,0,1,696,-4)" class="stroke_order_diagram--existing_path"></path><path id="pathSk2v596cn2xma" kvg:type="㇕c" d="M28.33,29.73c1.26,0.27,3.17,0.82,5.64,0.55C48.25,28.75,62,27,73.25,26.22c4.64-0.32,6.75,1.15,5.71,4.39c-1.06,3.27-1.16,4.09-2.65,9.17" transform="matrix(1,0,0,1,696,-4)" class="stroke_order_diagram--existing_path"></path><path id="pathSk2v596cn2xmb" kvg:type="㇐b" d="M32.65,45.25c7.54-0.66,28.59-3.1,41.11-4.38c1.76-0.18,3.35-0.09,4.74-0.23" transform="matrix(1,0,0,1,696,-4)" class="stroke_order_diagram--existing_path"></path><path id="pathSk2v596cn2xmc" kvg:type="㇒" d="M31.02,30.68c1.28,1.28,1.48,3.03,1.39,5.15C31.38,60.12,25.75,81.25,13,93" transform="matrix(1,0,0,1,696,-4)" class="stroke_order_diagram--existing_path"></path><path id="pathSk2v596cn2xmd" kvg:type="㇒" d="M48.12,47.75c0.18,1.28-0.3,2.7-0.87,3.79c-3.64,6.97-8.26,12.37-16.62,20.85" transform="matrix(1,0,0,1,696,-4)" class="stroke_order_diagram--existing_path"></path><path id="pathSk2v596cn2xme" kvg:type="㇑" d="M42.92,60.82c0.57,0.57,0.92,1.37,0.92,2.16c0,5.35,0.01,20.01,0.01,30.15c0,2.23,0,4.23,0,5.88" transform="matrix(1,0,0,1,696,-4)" class="stroke_order_diagram--existing_path"></path><path id="pathSk2v596cn2xmf" kvg:type="㇒" d="M68,45.25c0.06,0.64-0.02,1.48-0.2,2.02c-0.95,2.78-2.35,5.05-4.16,8" transform="matrix(1,0,0,1,696,-4)" class="stroke_order_diagram--existing_path"></path><path id="kvg:096c7-s8" kvg:type="㇐b" d="M43.56,59.61c6.42-0.62,28.23-2.82,38.44-3.88c2.54-0.27,4.36-0.46,5.05-0.55" transform="matrix(1,0,0,1,696,-4)" class="stroke_order_diagram--current_path"></path><path id="pathSk2v596cn2xmh" kvg:type="㇐b" d="M43.56,59.61c6.42-0.62,28.23-2.82,38.44-3.88c2.54-0.27,4.36-0.46,5.05-0.55" transform="matrix(1,0,0,1,696,-4)" class="stroke_order_diagram--current_path"></path><circle cx="43.56" cy="59.61" r="8" class="stroke_order_diagram--path_start" transform="matrix(1,0,0,1,696,-4)"></circle><line x1="850" x2="850" y1="1" y2="99" class="stroke_order_diagram--guide_line"></line><line x1="899" x2="899" y1="1" y2="99" class="stroke_order_diagram--bounding_box"></line><path id="pathSk2v596cn2xmk" kvg:type="㇐" d="M26.63,17.47c2.66,0.84,6.28,0.43,9,0.1C47.75,16.12,59,15.25,75,14.1c2.94-0.21,5.96-0.42,8.87,0.13" transform="matrix(1,0,0,1,796,-4)" class="stroke_order_diagram--existing_path"></path><path id="pathSk2v596cn2xml" kvg:type="㇕c" d="M28.33,29.73c1.26,0.27,3.17,0.82,5.64,0.55C48.25,28.75,62,27,73.25,26.22c4.64-0.32,6.75,1.15,5.71,4.39c-1.06,3.27-1.16,4.09-2.65,9.17" transform="matrix(1,0,0,1,796,-4)" class="stroke_order_diagram--existing_path"></path><path id="pathSk2v596cn2xmm" kvg:type="㇐b" d="M32.65,45.25c7.54-0.66,28.59-3.1,41.11-4.38c1.76-0.18,3.35-0.09,4.74-0.23" transform="matrix(1,0,0,1,796,-4)" class="stroke_order_diagram--existing_path"></path><path id="pathSk2v596cn2xmn" kvg:type="㇒" d="M31.02,30.68c1.28,1.28,1.48,3.03,1.39,5.15C31.38,60.12,25.75,81.25,13,93" transform="matrix(1,0,0,1,796,-4)" class="stroke_order_diagram--existing_path"></path><path id="pathSk2v596cn2xmo" kvg:type="㇒" d="M48.12,47.75c0.18,1.28-0.3,2.7-0.87,3.79c-3.64,6.97-8.26,12.37-16.62,20.85" transform="matrix(1,0,0,1,796,-4)" class="stroke_order_diagram--existing_path"></path><path id="pathSk2v596cn2xmp" kvg:type="㇑" d="M42.92,60.82c0.57,0.57,0.92,1.37,0.92,2.16c0,5.35,0.01,20.01,0.01,30.15c0,2.23,0,4.23,0,5.88" transform="matrix(1,0,0,1,796,-4)" class="stroke_order_diagram--existing_path"></path><path id="pathSk2v596cn2xmq" kvg:type="㇒" d="M68,45.25c0.06,0.64-0.02,1.48-0.2,2.02c-0.95,2.78-2.35,5.05-4.16,8" transform="matrix(1,0,0,1,796,-4)" class="stroke_order_diagram--existing_path"></path><path id="pathSk2v596cn2xmr" kvg:type="㇐b" d="M43.56,59.61c6.42-0.62,28.23-2.82,38.44-3.88c2.54-0.27,4.36-0.46,5.05-0.55" transform="matrix(1,0,0,1,796,-4)" class="stroke_order_diagram--existing_path"></path><path id="kvg:096c7-s9" kvg:type="㇑a" d="M63.79,58.8c0.71,0.71,0.95,1.58,0.95,2.99c0,5.34-0.11,21.19-0.11,30.09" transform="matrix(1,0,0,1,796,-4)" class="stroke_order_diagram--current_path"></path><path id="pathSk2v596cn2xmt" kvg:type="㇑a" d="M63.79,58.8c0.71,0.71,0.95,1.58,0.95,2.99c0,5.34-0.11,21.19-0.11,30.09" transform="matrix(1,0,0,1,796,-4)" class="stroke_order_diagram--current_path"></path><circle cx="63.79" cy="58.8" r="8" class="stroke_order_diagram--path_start" transform="matrix(1,0,0,1,796,-4)"></circle><line x1="950" x2="950" y1="1" y2="99" class="stroke_order_diagram--guide_line"></line><line x1="999" x2="999" y1="1" y2="99" class="stroke_order_diagram--bounding_box"></line><path id="pathSk2v596cn2xmw" kvg:type="㇐" d="M26.63,17.47c2.66,0.84,6.28,0.43,9,0.1C47.75,16.12,59,15.25,75,14.1c2.94-0.21,5.96-0.42,8.87,0.13" transform="matrix(1,0,0,1,896,-4)" class="stroke_order_diagram--existing_path"></path><path id="pathSk2v596cn2xmx" kvg:type="㇕c" d="M28.33,29.73c1.26,0.27,3.17,0.82,5.64,0.55C48.25,28.75,62,27,73.25,26.22c4.64-0.32,6.75,1.15,5.71,4.39c-1.06,3.27-1.16,4.09-2.65,9.17" transform="matrix(1,0,0,1,896,-4)" class="stroke_order_diagram--existing_path"></path><path id="pathSk2v596cn2xmy" kvg:type="㇐b" d="M32.65,45.25c7.54-0.66,28.59-3.1,41.11-4.38c1.76-0.18,3.35-0.09,4.74-0.23" transform="matrix(1,0,0,1,896,-4)" class="stroke_order_diagram--existing_path"></path><path id="pathSk2v596cn2xmz" kvg:type="㇒" d="M31.02,30.68c1.28,1.28,1.48,3.03,1.39,5.15C31.38,60.12,25.75,81.25,13,93" transform="matrix(1,0,0,1,896,-4)" class="stroke_order_diagram--existing_path"></path><path id="pathSk2v596cn2xn0" kvg:type="㇒" d="M48.12,47.75c0.18,1.28-0.3,2.7-0.87,3.79c-3.64,6.97-8.26,12.37-16.62,20.85" transform="matrix(1,0,0,1,896,-4)" class="stroke_order_diagram--existing_path"></path><path id="pathSk2v596cn2xn1" kvg:type="㇑" d="M42.92,60.82c0.57,0.57,0.92,1.37,0.92,2.16c0,5.35,0.01,20.01,0.01,30.15c0,2.23,0,4.23,0,5.88" transform="matrix(1,0,0,1,896,-4)" class="stroke_order_diagram--existing_path"></path><path id="pathSk2v596cn2xn2" kvg:type="㇒" d="M68,45.25c0.06,0.64-0.02,1.48-0.2,2.02c-0.95,2.78-2.35,5.05-4.16,8" transform="matrix(1,0,0,1,896,-4)" class="stroke_order_diagram--existing_path"></path><path id="pathSk2v596cn2xn3" kvg:type="㇐b" d="M43.56,59.61c6.42-0.62,28.23-2.82,38.44-3.88c2.54-0.27,4.36-0.46,5.05-0.55" transform="matrix(1,0,0,1,896,-4)" class="stroke_order_diagram--existing_path"></path><path id="pathSk2v596cn2xn4" kvg:type="㇑a" d="M63.79,58.8c0.71,0.71,0.95,1.58,0.95,2.99c0,5.34-0.11,21.19-0.11,30.09" transform="matrix(1,0,0,1,896,-4)" class="stroke_order_diagram--existing_path"></path><path id="kvg:096c7-s10" kvg:type="㇐b" d="M44.99,69.92c6.27-0.53,24.57-1.89,32.53-2.54c1.65-0.14,2.86-0.24,3.42-0.3" transform="matrix(1,0,0,1,896,-4)" class="stroke_order_diagram--current_path"></path><path id="pathSk2v596cn2xn6" kvg:type="㇐b" d="M44.99,69.92c6.27-0.53,24.57-1.89,32.53-2.54c1.65-0.14,2.86-0.24,3.42-0.3" transform="matrix(1,0,0,1,896,-4)" class="stroke_order_diagram--current_path"></path><circle cx="44.99" cy="69.92" r="8" class="stroke_order_diagram--path_start" transform="matrix(1,0,0,1,896,-4)"></circle><line x1="1050" x2="1050" y1="1" y2="99" class="stroke_order_diagram--guide_line"></line><line x1="1099" x2="1099" y1="1" y2="99" class="stroke_order_diagram--bounding_box"></line><path id="pathSk2v596cn2xn9" kvg:type="㇐" d="M26.63,17.47c2.66,0.84,6.28,0.43,9,0.1C47.75,16.12,59,15.25,75,14.1c2.94-0.21,5.96-0.42,8.87,0.13" transform="matrix(1,0,0,1,996,-4)" class="stroke_order_diagram--existing_path"></path><path id="pathSk2v596cn2xna" kvg:type="㇕c" d="M28.33,29.73c1.26,0.27,3.17,0.82,5.64,0.55C48.25,28.75,62,27,73.25,26.22c4.64-0.32,6.75,1.15,5.71,4.39c-1.06,3.27-1.16,4.09-2.65,9.17" transform="matrix(1,0,0,1,996,-4)" class="stroke_order_diagram--existing_path"></path><path id="pathSk2v596cn2xnb" kvg:type="㇐b" d="M32.65,45.25c7.54-0.66,28.59-3.1,41.11-4.38c1.76-0.18,3.35-0.09,4.74-0.23" transform="matrix(1,0,0,1,996,-4)" class="stroke_order_diagram--existing_path"></path><path id="pathSk2v596cn2xnc" kvg:type="㇒" d="M31.02,30.68c1.28,1.28,1.48,3.03,1.39,5.15C31.38,60.12,25.75,81.25,13,93" transform="matrix(1,0,0,1,996,-4)" class="stroke_order_diagram--existing_path"></path><path id="pathSk2v596cn2xnd" kvg:type="㇒" d="M48.12,47.75c0.18,1.28-0.3,2.7-0.87,3.79c-3.64,6.97-8.26,12.37-16.62,20.85" transform="matrix(1,0,0,1,996,-4)" class="stroke_order_diagram--existing_path"></path><path id="pathSk2v596cn2xne" kvg:type="㇑" d="M42.92,60.82c0.57,0.57,0.92,1.37,0.92,2.16c0,5.35,0.01,20.01,0.01,30.15c0,2.23,0,4.23,0,5.88" transform="matrix(1,0,0,1,996,-4)" class="stroke_order_diagram--existing_path"></path><path id="pathSk2v596cn2xnf" kvg:type="㇒" d="M68,45.25c0.06,0.64-0.02,1.48-0.2,2.02c-0.95,2.78-2.35,5.05-4.16,8" transform="matrix(1,0,0,1,996,-4)" class="stroke_order_diagram--existing_path"></path><path id="pathSk2v596cn2xng" kvg:type="㇐b" d="M43.56,59.61c6.42-0.62,28.23-2.82,38.44-3.88c2.54-0.27,4.36-0.46,5.05-0.55" transform="matrix(1,0,0,1,996,-4)" class="stroke_order_diagram--existing_path"></path><path id="pathSk2v596cn2xnh" kvg:type="㇑a" d="M63.79,58.8c0.71,0.71,0.95,1.58,0.95,2.99c0,5.34-0.11,21.19-0.11,30.09" transform="matrix(1,0,0,1,996,-4)" class="stroke_order_diagram--existing_path"></path><path id="pathSk2v596cn2xni" kvg:type="㇐b" d="M44.99,69.92c6.27-0.53,24.57-1.89,32.53-2.54c1.65-0.14,2.86-0.24,3.42-0.3" transform="matrix(1,0,0,1,996,-4)" class="stroke_order_diagram--existing_path"></path><path id="kvg:096c7-s11" kvg:type="㇐b" d="M44.07,81.68c6.48-0.44,24.19-1.9,32.46-2.59c1.92-0.16,3.33-0.28,3.97-0.33" transform="matrix(1,0,0,1,996,-4)" class="stroke_order_diagram--current_path"></path><path id="pathSk2v596cn2xnk" kvg:type="㇐b" d="M44.07,81.68c6.48-0.44,24.19-1.9,32.46-2.59c1.92-0.16,3.33-0.28,3.97-0.33" transform="matrix(1,0,0,1,996,-4)" class="stroke_order_diagram--current_path"></path><circle cx="44.07" cy="81.68" r="8" class="stroke_order_diagram--path_start" transform="matrix(1,0,0,1,996,-4)"></circle><line x1="1150" x2="1150" y1="1" y2="99" class="stroke_order_diagram--guide_line"></line><line x1="1199" x2="1199" y1="1" y2="99" class="stroke_order_diagram--bounding_box"></line><path id="pathSk2v596cn2xnn" kvg:type="㇐" d="M26.63,17.47c2.66,0.84,6.28,0.43,9,0.1C47.75,16.12,59,15.25,75,14.1c2.94-0.21,5.96-0.42,8.87,0.13" transform="matrix(1,0,0,1,1096,-4)" class="stroke_order_diagram--existing_path"></path><path id="pathSk2v596cn2xno" kvg:type="㇕c" d="M28.33,29.73c1.26,0.27,3.17,0.82,5.64,0.55C48.25,28.75,62,27,73.25,26.22c4.64-0.32,6.75,1.15,5.71,4.39c-1.06,3.27-1.16,4.09-2.65,9.17" transform="matrix(1,0,0,1,1096,-4)" class="stroke_order_diagram--existing_path"></path><path id="pathSk2v596cn2xnp" kvg:type="㇐b" d="M32.65,45.25c7.54-0.66,28.59-3.1,41.11-4.38c1.76-0.18,3.35-0.09,4.74-0.23" transform="matrix(1,0,0,1,1096,-4)" class="stroke_order_diagram--existing_path"></path><path id="pathSk2v596cn2xnq" kvg:type="㇒" d="M31.02,30.68c1.28,1.28,1.48,3.03,1.39,5.15C31.38,60.12,25.75,81.25,13,93" transform="matrix(1,0,0,1,1096,-4)" class="stroke_order_diagram--existing_path"></path><path id="pathSk2v596cn2xnr" kvg:type="㇒" d="M48.12,47.75c0.18,1.28-0.3,2.7-0.87,3.79c-3.64,6.97-8.26,12.37-16.62,20.85" transform="matrix(1,0,0,1,1096,-4)" class="stroke_order_diagram--existing_path"></path><path id="pathSk2v596cn2xns" kvg:type="㇑" d="M42.92,60.82c0.57,0.57,0.92,1.37,0.92,2.16c0,5.35,0.01,20.01,0.01,30.15c0,2.23,0,4.23,0,5.88" transform="matrix(1,0,0,1,1096,-4)" class="stroke_order_diagram--existing_path"></path><path id="pathSk2v596cn2xnt" kvg:type="㇒" d="M68,45.25c0.06,0.64-0.02,1.48-0.2,2.02c-0.95,2.78-2.35,5.05-4.16,8" transform="matrix(1,0,0,1,1096,-4)" class="stroke_order_diagram--existing_path"></path><path id="pathSk2v596cn2xnu" kvg:type="㇐b" d="M43.56,59.61c6.42-0.62,28.23-2.82,38.44-3.88c2.54-0.27,4.36-0.46,5.05-0.55" transform="matrix(1,0,0,1,1096,-4)" class="stroke_order_diagram--existing_path"></path><path id="pathSk2v596cn2xnv" kvg:type="㇑a" d="M63.79,58.8c0.71,0.71,0.95,1.58,0.95,2.99c0,5.34-0.11,21.19-0.11,30.09" transform="matrix(1,0,0,1,1096,-4)" class="stroke_order_diagram--existing_path"></path><path id="pathSk2v596cn2xnw" kvg:type="㇐b" d="M44.99,69.92c6.27-0.53,24.57-1.89,32.53-2.54c1.65-0.14,2.86-0.24,3.42-0.3" transform="matrix(1,0,0,1,1096,-4)" class="stroke_order_diagram--existing_path"></path><path id="pathSk2v596cn2xnx" kvg:type="㇐b" d="M44.07,81.68c6.48-0.44,24.19-1.9,32.46-2.59c1.92-0.16,3.33-0.28,3.97-0.33" transform="matrix(1,0,0,1,1096,-4)" class="stroke_order_diagram--existing_path"></path><path id="kvg:096c7-s12" kvg:type="㇐b" d="M44.97,94.43c6.33-0.61,27.85-2.22,38.68-2.97c1.9-0.13,3.82-0.21,5.72-0.44" transform="matrix(1,0,0,1,1096,-4)" class="stroke_order_diagram--current_path"></path><path id="pathSk2v596cn2xnz" kvg:type="㇐b" d="M44.97,94.43c6.33-0.61,27.85-2.22,38.68-2.97c1.9-0.13,3.82-0.21,5.72-0.44" transform="matrix(1,0,0,1,1096,-4)" class="stroke_order_diagram--current_path"></path><circle cx="44.97" cy="94.43" r="8" class="stroke_order_diagram--path_start" transform="matrix(1,0,0,1,1096,-4)"></circle></svg>