<svg style="width: 800px; height: 100px;" viewbox="0 0 800 100"><style>
.stroke_order_diagram--outer_container {
  width: 100%;
  overflow-x: auto;
  overflow-y: hidden;
}

.stroke_order_diagram--guide_line {
  fill: none;
  stroke: #ddd;
  stroke-width: 3;
  stroke-linecap: square;
  stroke-linejoin: square;
  stroke-dasharray:8, 8;
}

.stroke_order_diagram--bounding_box {
  fill: none;
  stroke: #ddd;
  stroke-width: 4;
  stroke-linecap: square;
  stroke-linejoin: square;
}

.stroke_order_diagram--current_path {
  fill: none;
  stroke: #000;
  stroke-width: 6;
  stroke-linecap: round;
  stroke-linejoin: round;
}

.stroke_order_diagram--existing_path {
  fill: none;
  stroke: #aaa;
  stroke-width: 6;
  stroke-linecap: round;
  stroke-linejoin:round;
}

.stroke_order_diagram--path_start {
  fill: rgba(255, 0, 0, 0.7);
  stroke:none
}</style><desc>Created with Snap</desc><defs></defs><line x1="1" x2="799" y1="1" y2="1" class="stroke_order_diagram--bounding_box"></line><line x1="1" x2="1" y1="1" y2="99" class="stroke_order_diagram--bounding_box"></line><line x1="1" x2="799" y1="99" y2="99" class="stroke_order_diagram--bounding_box"></line><line x1="0" x2="800" y1="50" y2="50" class="stroke_order_diagram--guide_line"></line><line x1="50" x2="50" y1="1" y2="99" class="stroke_order_diagram--guide_line"></line><line x1="99" x2="99" y1="1" y2="99" class="stroke_order_diagram--bounding_box"></line><path id="kvg:09752-s1" kvg:type="㇐" d="M32.13,21.42c1.62,0.38,4.59,0.54,6.21,0.38c9.16-0.92,21.57-2.3,34.18-3.13c2.69-0.18,3.81-0.09,5.23-0.02" transform="matrix(1,0,0,1,-4,-4)" class="stroke_order_diagram--current_path"></path><path id="pathSk2v596cn5a8" kvg:type="㇐" d="M32.13,21.42c1.62,0.38,4.59,0.54,6.21,0.38c9.16-0.92,21.57-2.3,34.18-3.13c2.69-0.18,3.81-0.09,5.23-0.02" transform="matrix(1,0,0,1,-4,-4)" class="stroke_order_diagram--current_path"></path><circle cx="32.13" cy="21.42" r="8" class="stroke_order_diagram--path_start" transform="matrix(1,0,0,1,-4,-4)"></circle><line x1="150" x2="150" y1="1" y2="99" class="stroke_order_diagram--guide_line"></line><line x1="199" x2="199" y1="1" y2="99" class="stroke_order_diagram--bounding_box"></line><path id="pathSk2v596cn5ab" kvg:type="㇐" d="M32.13,21.42c1.62,0.38,4.59,0.54,6.21,0.38c9.16-0.92,21.57-2.3,34.18-3.13c2.69-0.18,3.81-0.09,5.23-0.02" transform="matrix(1,0,0,1,96,-4)" class="stroke_order_diagram--existing_path"></path><path id="kvg:09752-s2" kvg:type="㇑a" d="M52.81,8.63c1.15,1.15,1.76,2.62,1.76,4.42c0,0.43-0.09,28.62-0.07,30.19" transform="matrix(1,0,0,1,96,-4)" class="stroke_order_diagram--current_path"></path><path id="pathSk2v596cn5ad" kvg:type="㇑a" d="M52.81,8.63c1.15,1.15,1.76,2.62,1.76,4.42c0,0.43-0.09,28.62-0.07,30.19" transform="matrix(1,0,0,1,96,-4)" class="stroke_order_diagram--current_path"></path><circle cx="52.81" cy="8.63" r="8" class="stroke_order_diagram--path_start" transform="matrix(1,0,0,1,96,-4)"></circle><line x1="250" x2="250" y1="1" y2="99" class="stroke_order_diagram--guide_line"></line><line x1="299" x2="299" y1="1" y2="99" class="stroke_order_diagram--bounding_box"></line><path id="pathSk2v596cn5ag" kvg:type="㇐" d="M32.13,21.42c1.62,0.38,4.59,0.54,6.21,0.38c9.16-0.92,21.57-2.3,34.18-3.13c2.69-0.18,3.81-0.09,5.23-0.02" transform="matrix(1,0,0,1,196,-4)" class="stroke_order_diagram--existing_path"></path><path id="pathSk2v596cn5ah" kvg:type="㇑a" d="M52.81,8.63c1.15,1.15,1.76,2.62,1.76,4.42c0,0.43-0.09,28.62-0.07,30.19" transform="matrix(1,0,0,1,196,-4)" class="stroke_order_diagram--existing_path"></path><path id="kvg:09752-s3" kvg:type="㇐" d="M34,33.37c2.39,0.62,4.73,0.4,7.13,0.05c9.07-1.31,22.36-2.96,28.71-3.46c2.21-0.17,3.85-0.08,5.03-0.02" transform="matrix(1,0,0,1,196,-4)" class="stroke_order_diagram--current_path"></path><path id="pathSk2v596cn5aj" kvg:type="㇐" d="M34,33.37c2.39,0.62,4.73,0.4,7.13,0.05c9.07-1.31,22.36-2.96,28.71-3.46c2.21-0.17,3.85-0.08,5.03-0.02" transform="matrix(1,0,0,1,196,-4)" class="stroke_order_diagram--current_path"></path><circle cx="34" cy="33.37" r="8" class="stroke_order_diagram--path_start" transform="matrix(1,0,0,1,196,-4)"></circle><line x1="350" x2="350" y1="1" y2="99" class="stroke_order_diagram--guide_line"></line><line x1="399" x2="399" y1="1" y2="99" class="stroke_order_diagram--bounding_box"></line><path id="pathSk2v596cn5am" kvg:type="㇐" d="M32.13,21.42c1.62,0.38,4.59,0.54,6.21,0.38c9.16-0.92,21.57-2.3,34.18-3.13c2.69-0.18,3.81-0.09,5.23-0.02" transform="matrix(1,0,0,1,296,-4)" class="stroke_order_diagram--existing_path"></path><path id="pathSk2v596cn5an" kvg:type="㇑a" d="M52.81,8.63c1.15,1.15,1.76,2.62,1.76,4.42c0,0.43-0.09,28.62-0.07,30.19" transform="matrix(1,0,0,1,296,-4)" class="stroke_order_diagram--existing_path"></path><path id="pathSk2v596cn5ao" kvg:type="㇐" d="M34,33.37c2.39,0.62,4.73,0.4,7.13,0.05c9.07-1.31,22.36-2.96,28.71-3.46c2.21-0.17,3.85-0.08,5.03-0.02" transform="matrix(1,0,0,1,296,-4)" class="stroke_order_diagram--existing_path"></path><path id="kvg:09752-s4" kvg:type="㇐" d="M13.5,47c2.5,0.75,5.8,0.86,8.88,0.55c19.41-1.93,51.54-5.05,65.69-5.8c3.1-0.16,7.07,0,9.3,0.73" transform="matrix(1,0,0,1,296,-4)" class="stroke_order_diagram--current_path"></path><path id="pathSk2v596cn5aq" kvg:type="㇐" d="M13.5,47c2.5,0.75,5.8,0.86,8.88,0.55c19.41-1.93,51.54-5.05,65.69-5.8c3.1-0.16,7.07,0,9.3,0.73" transform="matrix(1,0,0,1,296,-4)" class="stroke_order_diagram--current_path"></path><circle cx="13.5" cy="47" r="8" class="stroke_order_diagram--path_start" transform="matrix(1,0,0,1,296,-4)"></circle><line x1="450" x2="450" y1="1" y2="99" class="stroke_order_diagram--guide_line"></line><line x1="499" x2="499" y1="1" y2="99" class="stroke_order_diagram--bounding_box"></line><path id="pathSk2v596cn5at" kvg:type="㇐" d="M32.13,21.42c1.62,0.38,4.59,0.54,6.21,0.38c9.16-0.92,21.57-2.3,34.18-3.13c2.69-0.18,3.81-0.09,5.23-0.02" transform="matrix(1,0,0,1,396,-4)" class="stroke_order_diagram--existing_path"></path><path id="pathSk2v596cn5au" kvg:type="㇑a" d="M52.81,8.63c1.15,1.15,1.76,2.62,1.76,4.42c0,0.43-0.09,28.62-0.07,30.19" transform="matrix(1,0,0,1,396,-4)" class="stroke_order_diagram--existing_path"></path><path id="pathSk2v596cn5av" kvg:type="㇐" d="M34,33.37c2.39,0.62,4.73,0.4,7.13,0.05c9.07-1.31,22.36-2.96,28.71-3.46c2.21-0.17,3.85-0.08,5.03-0.02" transform="matrix(1,0,0,1,396,-4)" class="stroke_order_diagram--existing_path"></path><path id="pathSk2v596cn5aw" kvg:type="㇐" d="M13.5,47c2.5,0.75,5.8,0.86,8.88,0.55c19.41-1.93,51.54-5.05,65.69-5.8c3.1-0.16,7.07,0,9.3,0.73" transform="matrix(1,0,0,1,396,-4)" class="stroke_order_diagram--existing_path"></path><path id="kvg:09752-s5" kvg:type="㇑/㇒" d="M36.26,54.19c1.09,1.09,1.59,2.89,1.59,3.52c0,4.92,0,20.42,0,34.56c0,2.23-0.1,4.11-0.1,6.24" transform="matrix(1,0,0,1,396,-4)" class="stroke_order_diagram--current_path"></path><path id="pathSk2v596cn5ay" kvg:type="㇑/㇒" d="M36.26,54.19c1.09,1.09,1.59,2.89,1.59,3.52c0,4.92,0,20.42,0,34.56c0,2.23-0.1,4.11-0.1,6.24" transform="matrix(1,0,0,1,396,-4)" class="stroke_order_diagram--current_path"></path><circle cx="36.26" cy="54.19" r="8" class="stroke_order_diagram--path_start" transform="matrix(1,0,0,1,396,-4)"></circle><line x1="550" x2="550" y1="1" y2="99" class="stroke_order_diagram--guide_line"></line><line x1="599" x2="599" y1="1" y2="99" class="stroke_order_diagram--bounding_box"></line><path id="pathSk2v596cn5b1" kvg:type="㇐" d="M32.13,21.42c1.62,0.38,4.59,0.54,6.21,0.38c9.16-0.92,21.57-2.3,34.18-3.13c2.69-0.18,3.81-0.09,5.23-0.02" transform="matrix(1,0,0,1,496,-4)" class="stroke_order_diagram--existing_path"></path><path id="pathSk2v596cn5b2" kvg:type="㇑a" d="M52.81,8.63c1.15,1.15,1.76,2.62,1.76,4.42c0,0.43-0.09,28.62-0.07,30.19" transform="matrix(1,0,0,1,496,-4)" class="stroke_order_diagram--existing_path"></path><path id="pathSk2v596cn5b3" kvg:type="㇐" d="M34,33.37c2.39,0.62,4.73,0.4,7.13,0.05c9.07-1.31,22.36-2.96,28.71-3.46c2.21-0.17,3.85-0.08,5.03-0.02" transform="matrix(1,0,0,1,496,-4)" class="stroke_order_diagram--existing_path"></path><path id="pathSk2v596cn5b4" kvg:type="㇐" d="M13.5,47c2.5,0.75,5.8,0.86,8.88,0.55c19.41-1.93,51.54-5.05,65.69-5.8c3.1-0.16,7.07,0,9.3,0.73" transform="matrix(1,0,0,1,496,-4)" class="stroke_order_diagram--existing_path"></path><path id="pathSk2v596cn5b5" kvg:type="㇑/㇒" d="M36.26,54.19c1.09,1.09,1.59,2.89,1.59,3.52c0,4.92,0,20.42,0,34.56c0,2.23-0.1,4.11-0.1,6.24" transform="matrix(1,0,0,1,496,-4)" class="stroke_order_diagram--existing_path"></path><path id="kvg:09752-s6" kvg:type="㇆a" d="M38.2,55.78c0.59-0.03,29.02-2.73,30.58-2.8c2.47-0.11,3.73,0.89,3.73,3.05c0,3.72,0.08,26.23,0.08,38.15c0,10.58-6.97,1.31-7.86,0.57" transform="matrix(1,0,0,1,496,-4)" class="stroke_order_diagram--current_path"></path><path id="pathSk2v596cn5b7" kvg:type="㇆a" d="M38.2,55.78c0.59-0.03,29.02-2.73,30.58-2.8c2.47-0.11,3.73,0.89,3.73,3.05c0,3.72,0.08,26.23,0.08,38.15c0,10.58-6.97,1.31-7.86,0.57" transform="matrix(1,0,0,1,496,-4)" class="stroke_order_diagram--current_path"></path><circle cx="38.2" cy="55.78" r="8" class="stroke_order_diagram--path_start" transform="matrix(1,0,0,1,496,-4)"></circle><line x1="650" x2="650" y1="1" y2="99" class="stroke_order_diagram--guide_line"></line><line x1="699" x2="699" y1="1" y2="99" class="stroke_order_diagram--bounding_box"></line><path id="pathSk2v596cn5ba" kvg:type="㇐" d="M32.13,21.42c1.62,0.38,4.59,0.54,6.21,0.38c9.16-0.92,21.57-2.3,34.18-3.13c2.69-0.18,3.81-0.09,5.23-0.02" transform="matrix(1,0,0,1,596,-4)" class="stroke_order_diagram--existing_path"></path><path id="pathSk2v596cn5bb" kvg:type="㇑a" d="M52.81,8.63c1.15,1.15,1.76,2.62,1.76,4.42c0,0.43-0.09,28.62-0.07,30.19" transform="matrix(1,0,0,1,596,-4)" class="stroke_order_diagram--existing_path"></path><path id="pathSk2v596cn5bc" kvg:type="㇐" d="M34,33.37c2.39,0.62,4.73,0.4,7.13,0.05c9.07-1.31,22.36-2.96,28.71-3.46c2.21-0.17,3.85-0.08,5.03-0.02" transform="matrix(1,0,0,1,596,-4)" class="stroke_order_diagram--existing_path"></path><path id="pathSk2v596cn5bd" kvg:type="㇐" d="M13.5,47c2.5,0.75,5.8,0.86,8.88,0.55c19.41-1.93,51.54-5.05,65.69-5.8c3.1-0.16,7.07,0,9.3,0.73" transform="matrix(1,0,0,1,596,-4)" class="stroke_order_diagram--existing_path"></path><path id="pathSk2v596cn5be" kvg:type="㇑/㇒" d="M36.26,54.19c1.09,1.09,1.59,2.89,1.59,3.52c0,4.92,0,20.42,0,34.56c0,2.23-0.1,4.11-0.1,6.24" transform="matrix(1,0,0,1,596,-4)" class="stroke_order_diagram--existing_path"></path><path id="pathSk2v596cn5bf" kvg:type="㇆a" d="M38.2,55.78c0.59-0.03,29.02-2.73,30.58-2.8c2.47-0.11,3.73,0.89,3.73,3.05c0,3.72,0.08,26.23,0.08,38.15c0,10.58-6.97,1.31-7.86,0.57" transform="matrix(1,0,0,1,596,-4)" class="stroke_order_diagram--existing_path"></path><path id="kvg:09752-s7" kvg:type="㇐a" d="M39.2,67.61c5.93-0.23,24.72-2.4,32.25-2.4" transform="matrix(1,0,0,1,596,-4)" class="stroke_order_diagram--current_path"></path><path id="pathSk2v596cn5bh" kvg:type="㇐a" d="M39.2,67.61c5.93-0.23,24.72-2.4,32.25-2.4" transform="matrix(1,0,0,1,596,-4)" class="stroke_order_diagram--current_path"></path><circle cx="39.2" cy="67.61" r="8" class="stroke_order_diagram--path_start" transform="matrix(1,0,0,1,596,-4)"></circle><line x1="750" x2="750" y1="1" y2="99" class="stroke_order_diagram--guide_line"></line><line x1="799" x2="799" y1="1" y2="99" class="stroke_order_diagram--bounding_box"></line><path id="pathSk2v596cn5bk" kvg:type="㇐" d="M32.13,21.42c1.62,0.38,4.59,0.54,6.21,0.38c9.16-0.92,21.57-2.3,34.18-3.13c2.69-0.18,3.81-0.09,5.23-0.02" transform="matrix(1,0,0,1,696,-4)" class="stroke_order_diagram--existing_path"></path><path id="pathSk2v596cn5bl" kvg:type="㇑a" d="M52.81,8.63c1.15,1.15,1.76,2.62,1.76,4.42c0,0.43-0.09,28.62-0.07,30.19" transform="matrix(1,0,0,1,696,-4)" class="stroke_order_diagram--existing_path"></path><path id="pathSk2v596cn5bm" kvg:type="㇐" d="M34,33.37c2.39,0.62,4.73,0.4,7.13,0.05c9.07-1.31,22.36-2.96,28.71-3.46c2.21-0.17,3.85-0.08,5.03-0.02" transform="matrix(1,0,0,1,696,-4)" class="stroke_order_diagram--existing_path"></path><path id="pathSk2v596cn5bn" kvg:type="㇐" d="M13.5,47c2.5,0.75,5.8,0.86,8.88,0.55c19.41-1.93,51.54-5.05,65.69-5.8c3.1-0.16,7.07,0,9.3,0.73" transform="matrix(1,0,0,1,696,-4)" class="stroke_order_diagram--existing_path"></path><path id="pathSk2v596cn5bo" kvg:type="㇑/㇒" d="M36.26,54.19c1.09,1.09,1.59,2.89,1.59,3.52c0,4.92,0,20.42,0,34.56c0,2.23-0.1,4.11-0.1,6.24" transform="matrix(1,0,0,1,696,-4)" class="stroke_order_diagram--existing_path"></path><path id="pathSk2v596cn5bp" kvg:type="㇆a" d="M38.2,55.78c0.59-0.03,29.02-2.73,30.58-2.8c2.47-0.11,3.73,0.89,3.73,3.05c0,3.72,0.08,26.23,0.08,38.15c0,10.58-6.97,1.31-7.86,0.57" transform="matrix(1,0,0,1,696,-4)" class="stroke_order_diagram--existing_path"></path><path id="pathSk2v596cn5bq" kvg:type="㇐a" d="M39.2,67.61c5.93-0.23,24.72-2.4,32.25-2.4" transform="matrix(1,0,0,1,696,-4)" class="stroke_order_diagram--existing_path"></path><path id="kvg:09752-s8" kvg:type="㇐a" d="M39.12,79.23c5.88-0.35,24.26-1.98,32.13-2.31" transform="matrix(1,0,0,1,696,-4)" class="stroke_order_diagram--current_path"></path><path id="pathSk2v596cn5bs" kvg:type="㇐a" d="M39.12,79.23c5.88-0.35,24.26-1.98,32.13-2.31" transform="matrix(1,0,0,1,696,-4)" class="stroke_order_diagram--current_path"></path><circle cx="39.12" cy="79.23" r="8" class="stroke_order_diagram--path_start" transform="matrix(1,0,0,1,696,-4)"></circle></svg>