<svg style="width: 2000px; height: 100px;" viewbox="0 0 2000 100"><style>
.stroke_order_diagram--outer_container {
  width: 100%;
  overflow-x: auto;
  overflow-y: hidden;
}

.stroke_order_diagram--guide_line {
  fill: none;
  stroke: #ddd;
  stroke-width: 3;
  stroke-linecap: square;
  stroke-linejoin: square;
  stroke-dasharray:8, 8;
}

.stroke_order_diagram--bounding_box {
  fill: none;
  stroke: #ddd;
  stroke-width: 4;
  stroke-linecap: square;
  stroke-linejoin: square;
}

.stroke_order_diagram--current_path {
  fill: none;
  stroke: #000;
  stroke-width: 6;
  stroke-linecap: round;
  stroke-linejoin: round;
}

.stroke_order_diagram--existing_path {
  fill: none;
  stroke: #aaa;
  stroke-width: 6;
  stroke-linecap: round;
  stroke-linejoin:round;
}

.stroke_order_diagram--path_start {
  fill: rgba(255, 0, 0, 0.7);
  stroke:none
}</style><desc>Created with Snap</desc><defs></defs><line x1="1" x2="1999" y1="1" y2="1" class="stroke_order_diagram--bounding_box"></line><line x1="1" x2="1" y1="1" y2="99" class="stroke_order_diagram--bounding_box"></line><line x1="1" x2="1999" y1="99" y2="99" class="stroke_order_diagram--bounding_box"></line><line x1="0" x2="2000" y1="50" y2="50" class="stroke_order_diagram--guide_line"></line><line x1="50" x2="50" y1="1" y2="99" class="stroke_order_diagram--guide_line"></line><line x1="99" x2="99" y1="1" y2="99" class="stroke_order_diagram--bounding_box"></line><path id="kvg:097ff-s1" kvg:type="㇜" d="M25.25,11.87c0.32,0.83,0.36,1.9-0.16,2.85c-2.18,4.02-4.34,6.28-6.32,8.35c-0.52,0.54-0.34,1.36,0.27,1.61c3.09,1.32,3.34,1.32,6.2,2.99" transform="matrix(1,0,0,1,-4,-4)" class="stroke_order_diagram--current_path"></path><path id="pathSk2v596cn1pmw" kvg:type="㇜" d="M25.25,11.87c0.32,0.83,0.36,1.9-0.16,2.85c-2.18,4.02-4.34,6.28-6.32,8.35c-0.52,0.54-0.34,1.36,0.27,1.61c3.09,1.32,3.34,1.32,6.2,2.99" transform="matrix(1,0,0,1,-4,-4)" class="stroke_order_diagram--current_path"></path><circle cx="25.25" cy="11.87" r="8" class="stroke_order_diagram--path_start" transform="matrix(1,0,0,1,-4,-4)"></circle><line x1="150" x2="150" y1="1" y2="99" class="stroke_order_diagram--guide_line"></line><line x1="199" x2="199" y1="1" y2="99" class="stroke_order_diagram--bounding_box"></line><path id="pathSk2v596cn1pmz" kvg:type="㇜" d="M25.25,11.87c0.32,0.83,0.36,1.9-0.16,2.85c-2.18,4.02-4.34,6.28-6.32,8.35c-0.52,0.54-0.34,1.36,0.27,1.61c3.09,1.32,3.34,1.32,6.2,2.99" transform="matrix(1,0,0,1,96,-4)" class="stroke_order_diagram--existing_path"></path><path id="kvg:097ff-s2" kvg:type="㇜" d="M34.65,17.65c0.35,0.98,0.23,2.1-0.45,2.91c-3.15,3.76-9.82,10.26-15.45,14.94c-2.21,1.84-2.18,3.77,1.17,2.72c5.08-1.59,7.71-2.34,13.56-3.55" transform="matrix(1,0,0,1,96,-4)" class="stroke_order_diagram--current_path"></path><path id="pathSk2v596cn1pn1" kvg:type="㇜" d="M34.65,17.65c0.35,0.98,0.23,2.1-0.45,2.91c-3.15,3.76-9.82,10.26-15.45,14.94c-2.21,1.84-2.18,3.77,1.17,2.72c5.08-1.59,7.71-2.34,13.56-3.55" transform="matrix(1,0,0,1,96,-4)" class="stroke_order_diagram--current_path"></path><circle cx="34.65" cy="17.65" r="8" class="stroke_order_diagram--path_start" transform="matrix(1,0,0,1,96,-4)"></circle><line x1="250" x2="250" y1="1" y2="99" class="stroke_order_diagram--guide_line"></line><line x1="299" x2="299" y1="1" y2="99" class="stroke_order_diagram--bounding_box"></line><path id="pathSk2v596cn1pn4" kvg:type="㇜" d="M25.25,11.87c0.32,0.83,0.36,1.9-0.16,2.85c-2.18,4.02-4.34,6.28-6.32,8.35c-0.52,0.54-0.34,1.36,0.27,1.61c3.09,1.32,3.34,1.32,6.2,2.99" transform="matrix(1,0,0,1,196,-4)" class="stroke_order_diagram--existing_path"></path><path id="pathSk2v596cn1pn5" kvg:type="㇜" d="M34.65,17.65c0.35,0.98,0.23,2.1-0.45,2.91c-3.15,3.76-9.82,10.26-15.45,14.94c-2.21,1.84-2.18,3.77,1.17,2.72c5.08-1.59,7.71-2.34,13.56-3.55" transform="matrix(1,0,0,1,196,-4)" class="stroke_order_diagram--existing_path"></path><path id="kvg:097ff-s3" kvg:type="㇒/㇔" d="M35.44,29.22c0.22,0.31,0.58,1.46,0.4,2.25C34.5,37.25,30.75,45,21.21,52.51" transform="matrix(1,0,0,1,196,-4)" class="stroke_order_diagram--current_path"></path><path id="pathSk2v596cn1pn7" kvg:type="㇒/㇔" d="M35.44,29.22c0.22,0.31,0.58,1.46,0.4,2.25C34.5,37.25,30.75,45,21.21,52.51" transform="matrix(1,0,0,1,196,-4)" class="stroke_order_diagram--current_path"></path><circle cx="35.44" cy="29.22" r="8" class="stroke_order_diagram--path_start" transform="matrix(1,0,0,1,196,-4)"></circle><line x1="350" x2="350" y1="1" y2="99" class="stroke_order_diagram--guide_line"></line><line x1="399" x2="399" y1="1" y2="99" class="stroke_order_diagram--bounding_box"></line><path id="pathSk2v596cn1pna" kvg:type="㇜" d="M25.25,11.87c0.32,0.83,0.36,1.9-0.16,2.85c-2.18,4.02-4.34,6.28-6.32,8.35c-0.52,0.54-0.34,1.36,0.27,1.61c3.09,1.32,3.34,1.32,6.2,2.99" transform="matrix(1,0,0,1,296,-4)" class="stroke_order_diagram--existing_path"></path><path id="pathSk2v596cn1pnb" kvg:type="㇜" d="M34.65,17.65c0.35,0.98,0.23,2.1-0.45,2.91c-3.15,3.76-9.82,10.26-15.45,14.94c-2.21,1.84-2.18,3.77,1.17,2.72c5.08-1.59,7.71-2.34,13.56-3.55" transform="matrix(1,0,0,1,296,-4)" class="stroke_order_diagram--existing_path"></path><path id="pathSk2v596cn1pnc" kvg:type="㇒/㇔" d="M35.44,29.22c0.22,0.31,0.58,1.46,0.4,2.25C34.5,37.25,30.75,45,21.21,52.51" transform="matrix(1,0,0,1,296,-4)" class="stroke_order_diagram--existing_path"></path><path id="kvg:097ff-s4" kvg:type="㇕" d="M42.61,14.18c1.39,0.57,3.41,0.69,5.13,0.5c3.64-0.4,9.91-1.05,12.52-1.34c3.06-0.35,4.24-0.11,3.72,3.01c-0.52,3.14-0.71,6.86-1.46,10.65c-0.2,1.01-0.41,2.02-0.64,3.03" transform="matrix(1,0,0,1,296,-4)" class="stroke_order_diagram--current_path"></path><path id="pathSk2v596cn1pne" kvg:type="㇕" d="M42.61,14.18c1.39,0.57,3.41,0.69,5.13,0.5c3.64-0.4,9.91-1.05,12.52-1.34c3.06-0.35,4.24-0.11,3.72,3.01c-0.52,3.14-0.71,6.86-1.46,10.65c-0.2,1.01-0.41,2.02-0.64,3.03" transform="matrix(1,0,0,1,296,-4)" class="stroke_order_diagram--current_path"></path><circle cx="42.61" cy="14.18" r="8" class="stroke_order_diagram--path_start" transform="matrix(1,0,0,1,296,-4)"></circle><line x1="450" x2="450" y1="1" y2="99" class="stroke_order_diagram--guide_line"></line><line x1="499" x2="499" y1="1" y2="99" class="stroke_order_diagram--bounding_box"></line><path id="pathSk2v596cn1pnh" kvg:type="㇜" d="M25.25,11.87c0.32,0.83,0.36,1.9-0.16,2.85c-2.18,4.02-4.34,6.28-6.32,8.35c-0.52,0.54-0.34,1.36,0.27,1.61c3.09,1.32,3.34,1.32,6.2,2.99" transform="matrix(1,0,0,1,396,-4)" class="stroke_order_diagram--existing_path"></path><path id="pathSk2v596cn1pni" kvg:type="㇜" d="M34.65,17.65c0.35,0.98,0.23,2.1-0.45,2.91c-3.15,3.76-9.82,10.26-15.45,14.94c-2.21,1.84-2.18,3.77,1.17,2.72c5.08-1.59,7.71-2.34,13.56-3.55" transform="matrix(1,0,0,1,396,-4)" class="stroke_order_diagram--existing_path"></path><path id="pathSk2v596cn1pnj" kvg:type="㇒/㇔" d="M35.44,29.22c0.22,0.31,0.58,1.46,0.4,2.25C34.5,37.25,30.75,45,21.21,52.51" transform="matrix(1,0,0,1,396,-4)" class="stroke_order_diagram--existing_path"></path><path id="pathSk2v596cn1pnk" kvg:type="㇕" d="M42.61,14.18c1.39,0.57,3.41,0.69,5.13,0.5c3.64-0.4,9.91-1.05,12.52-1.34c3.06-0.35,4.24-0.11,3.72,3.01c-0.52,3.14-0.71,6.86-1.46,10.65c-0.2,1.01-0.41,2.02-0.64,3.03" transform="matrix(1,0,0,1,396,-4)" class="stroke_order_diagram--existing_path"></path><path id="kvg:097ff-s5" kvg:type="㇐a" d="M45.87,22.3c4.63-0.43,11.38-1.3,16.02-1.65" transform="matrix(1,0,0,1,396,-4)" class="stroke_order_diagram--current_path"></path><path id="pathSk2v596cn1pnm" kvg:type="㇐a" d="M45.87,22.3c4.63-0.43,11.38-1.3,16.02-1.65" transform="matrix(1,0,0,1,396,-4)" class="stroke_order_diagram--current_path"></path><circle cx="45.87" cy="22.3" r="8" class="stroke_order_diagram--path_start" transform="matrix(1,0,0,1,396,-4)"></circle><line x1="550" x2="550" y1="1" y2="99" class="stroke_order_diagram--guide_line"></line><line x1="599" x2="599" y1="1" y2="99" class="stroke_order_diagram--bounding_box"></line><path id="pathSk2v596cn1pnp" kvg:type="㇜" d="M25.25,11.87c0.32,0.83,0.36,1.9-0.16,2.85c-2.18,4.02-4.34,6.28-6.32,8.35c-0.52,0.54-0.34,1.36,0.27,1.61c3.09,1.32,3.34,1.32,6.2,2.99" transform="matrix(1,0,0,1,496,-4)" class="stroke_order_diagram--existing_path"></path><path id="pathSk2v596cn1pnq" kvg:type="㇜" d="M34.65,17.65c0.35,0.98,0.23,2.1-0.45,2.91c-3.15,3.76-9.82,10.26-15.45,14.94c-2.21,1.84-2.18,3.77,1.17,2.72c5.08-1.59,7.71-2.34,13.56-3.55" transform="matrix(1,0,0,1,496,-4)" class="stroke_order_diagram--existing_path"></path><path id="pathSk2v596cn1pnr" kvg:type="㇒/㇔" d="M35.44,29.22c0.22,0.31,0.58,1.46,0.4,2.25C34.5,37.25,30.75,45,21.21,52.51" transform="matrix(1,0,0,1,496,-4)" class="stroke_order_diagram--existing_path"></path><path id="pathSk2v596cn1pns" kvg:type="㇕" d="M42.61,14.18c1.39,0.57,3.41,0.69,5.13,0.5c3.64-0.4,9.91-1.05,12.52-1.34c3.06-0.35,4.24-0.11,3.72,3.01c-0.52,3.14-0.71,6.86-1.46,10.65c-0.2,1.01-0.41,2.02-0.64,3.03" transform="matrix(1,0,0,1,496,-4)" class="stroke_order_diagram--existing_path"></path><path id="pathSk2v596cn1pnt" kvg:type="㇐a" d="M45.87,22.3c4.63-0.43,11.38-1.3,16.02-1.65" transform="matrix(1,0,0,1,496,-4)" class="stroke_order_diagram--existing_path"></path><path id="kvg:097ff-s6" kvg:type="㇐a" d="M45.78,30.09c4.85-0.59,10.47-1.21,15.5-1.53" transform="matrix(1,0,0,1,496,-4)" class="stroke_order_diagram--current_path"></path><path id="pathSk2v596cn1pnv" kvg:type="㇐a" d="M45.78,30.09c4.85-0.59,10.47-1.21,15.5-1.53" transform="matrix(1,0,0,1,496,-4)" class="stroke_order_diagram--current_path"></path><circle cx="45.78" cy="30.09" r="8" class="stroke_order_diagram--path_start" transform="matrix(1,0,0,1,496,-4)"></circle><line x1="650" x2="650" y1="1" y2="99" class="stroke_order_diagram--guide_line"></line><line x1="699" x2="699" y1="1" y2="99" class="stroke_order_diagram--bounding_box"></line><path id="pathSk2v596cn1pny" kvg:type="㇜" d="M25.25,11.87c0.32,0.83,0.36,1.9-0.16,2.85c-2.18,4.02-4.34,6.28-6.32,8.35c-0.52,0.54-0.34,1.36,0.27,1.61c3.09,1.32,3.34,1.32,6.2,2.99" transform="matrix(1,0,0,1,596,-4)" class="stroke_order_diagram--existing_path"></path><path id="pathSk2v596cn1pnz" kvg:type="㇜" d="M34.65,17.65c0.35,0.98,0.23,2.1-0.45,2.91c-3.15,3.76-9.82,10.26-15.45,14.94c-2.21,1.84-2.18,3.77,1.17,2.72c5.08-1.59,7.71-2.34,13.56-3.55" transform="matrix(1,0,0,1,596,-4)" class="stroke_order_diagram--existing_path"></path><path id="pathSk2v596cn1po0" kvg:type="㇒/㇔" d="M35.44,29.22c0.22,0.31,0.58,1.46,0.4,2.25C34.5,37.25,30.75,45,21.21,52.51" transform="matrix(1,0,0,1,596,-4)" class="stroke_order_diagram--existing_path"></path><path id="pathSk2v596cn1po1" kvg:type="㇕" d="M42.61,14.18c1.39,0.57,3.41,0.69,5.13,0.5c3.64-0.4,9.91-1.05,12.52-1.34c3.06-0.35,4.24-0.11,3.72,3.01c-0.52,3.14-0.71,6.86-1.46,10.65c-0.2,1.01-0.41,2.02-0.64,3.03" transform="matrix(1,0,0,1,596,-4)" class="stroke_order_diagram--existing_path"></path><path id="pathSk2v596cn1po2" kvg:type="㇐a" d="M45.87,22.3c4.63-0.43,11.38-1.3,16.02-1.65" transform="matrix(1,0,0,1,596,-4)" class="stroke_order_diagram--existing_path"></path><path id="pathSk2v596cn1po3" kvg:type="㇐a" d="M45.78,30.09c4.85-0.59,10.47-1.21,15.5-1.53" transform="matrix(1,0,0,1,596,-4)" class="stroke_order_diagram--existing_path"></path><path id="kvg:097ff-s7" kvg:type="㇙" d="M43.61,15.18c0.73,0.73,0.96,1.82,0.96,2.85c0,4.34-0.08,20.23-0.08,23.97c0,1.38,0.5,1.88,2.16,1.15c2-0.88,7.85-3.78,11.92-5.33" transform="matrix(1,0,0,1,596,-4)" class="stroke_order_diagram--current_path"></path><path id="pathSk2v596cn1po5" kvg:type="㇙" d="M43.61,15.18c0.73,0.73,0.96,1.82,0.96,2.85c0,4.34-0.08,20.23-0.08,23.97c0,1.38,0.5,1.88,2.16,1.15c2-0.88,7.85-3.78,11.92-5.33" transform="matrix(1,0,0,1,596,-4)" class="stroke_order_diagram--current_path"></path><circle cx="43.61" cy="15.18" r="8" class="stroke_order_diagram--path_start" transform="matrix(1,0,0,1,596,-4)"></circle><line x1="750" x2="750" y1="1" y2="99" class="stroke_order_diagram--guide_line"></line><line x1="799" x2="799" y1="1" y2="99" class="stroke_order_diagram--bounding_box"></line><path id="pathSk2v596cn1po8" kvg:type="㇜" d="M25.25,11.87c0.32,0.83,0.36,1.9-0.16,2.85c-2.18,4.02-4.34,6.28-6.32,8.35c-0.52,0.54-0.34,1.36,0.27,1.61c3.09,1.32,3.34,1.32,6.2,2.99" transform="matrix(1,0,0,1,696,-4)" class="stroke_order_diagram--existing_path"></path><path id="pathSk2v596cn1po9" kvg:type="㇜" d="M34.65,17.65c0.35,0.98,0.23,2.1-0.45,2.91c-3.15,3.76-9.82,10.26-15.45,14.94c-2.21,1.84-2.18,3.77,1.17,2.72c5.08-1.59,7.71-2.34,13.56-3.55" transform="matrix(1,0,0,1,696,-4)" class="stroke_order_diagram--existing_path"></path><path id="pathSk2v596cn1poa" kvg:type="㇒/㇔" d="M35.44,29.22c0.22,0.31,0.58,1.46,0.4,2.25C34.5,37.25,30.75,45,21.21,52.51" transform="matrix(1,0,0,1,696,-4)" class="stroke_order_diagram--existing_path"></path><path id="pathSk2v596cn1pob" kvg:type="㇕" d="M42.61,14.18c1.39,0.57,3.41,0.69,5.13,0.5c3.64-0.4,9.91-1.05,12.52-1.34c3.06-0.35,4.24-0.11,3.72,3.01c-0.52,3.14-0.71,6.86-1.46,10.65c-0.2,1.01-0.41,2.02-0.64,3.03" transform="matrix(1,0,0,1,696,-4)" class="stroke_order_diagram--existing_path"></path><path id="pathSk2v596cn1poc" kvg:type="㇐a" d="M45.87,22.3c4.63-0.43,11.38-1.3,16.02-1.65" transform="matrix(1,0,0,1,696,-4)" class="stroke_order_diagram--existing_path"></path><path id="pathSk2v596cn1pod" kvg:type="㇐a" d="M45.78,30.09c4.85-0.59,10.47-1.21,15.5-1.53" transform="matrix(1,0,0,1,696,-4)" class="stroke_order_diagram--existing_path"></path><path id="pathSk2v596cn1poe" kvg:type="㇙" d="M43.61,15.18c0.73,0.73,0.96,1.82,0.96,2.85c0,4.34-0.08,20.23-0.08,23.97c0,1.38,0.5,1.88,2.16,1.15c2-0.88,7.85-3.78,11.92-5.33" transform="matrix(1,0,0,1,696,-4)" class="stroke_order_diagram--existing_path"></path><path id="kvg:097ff-s8" kvg:type="㇔" d="M56.75,33.65c2.28,1.71,5.87,6.29,7.17,9.91" transform="matrix(1,0,0,1,696,-4)" class="stroke_order_diagram--current_path"></path><path id="pathSk2v596cn1pog" kvg:type="㇔" d="M56.75,33.65c2.28,1.71,5.87,6.29,7.17,9.91" transform="matrix(1,0,0,1,696,-4)" class="stroke_order_diagram--current_path"></path><circle cx="56.75" cy="33.65" r="8" class="stroke_order_diagram--path_start" transform="matrix(1,0,0,1,696,-4)"></circle><line x1="850" x2="850" y1="1" y2="99" class="stroke_order_diagram--guide_line"></line><line x1="899" x2="899" y1="1" y2="99" class="stroke_order_diagram--bounding_box"></line><path id="pathSk2v596cn1poj" kvg:type="㇜" d="M25.25,11.87c0.32,0.83,0.36,1.9-0.16,2.85c-2.18,4.02-4.34,6.28-6.32,8.35c-0.52,0.54-0.34,1.36,0.27,1.61c3.09,1.32,3.34,1.32,6.2,2.99" transform="matrix(1,0,0,1,796,-4)" class="stroke_order_diagram--existing_path"></path><path id="pathSk2v596cn1pok" kvg:type="㇜" d="M34.65,17.65c0.35,0.98,0.23,2.1-0.45,2.91c-3.15,3.76-9.82,10.26-15.45,14.94c-2.21,1.84-2.18,3.77,1.17,2.72c5.08-1.59,7.71-2.34,13.56-3.55" transform="matrix(1,0,0,1,796,-4)" class="stroke_order_diagram--existing_path"></path><path id="pathSk2v596cn1pol" kvg:type="㇒/㇔" d="M35.44,29.22c0.22,0.31,0.58,1.46,0.4,2.25C34.5,37.25,30.75,45,21.21,52.51" transform="matrix(1,0,0,1,796,-4)" class="stroke_order_diagram--existing_path"></path><path id="pathSk2v596cn1pom" kvg:type="㇕" d="M42.61,14.18c1.39,0.57,3.41,0.69,5.13,0.5c3.64-0.4,9.91-1.05,12.52-1.34c3.06-0.35,4.24-0.11,3.72,3.01c-0.52,3.14-0.71,6.86-1.46,10.65c-0.2,1.01-0.41,2.02-0.64,3.03" transform="matrix(1,0,0,1,796,-4)" class="stroke_order_diagram--existing_path"></path><path id="pathSk2v596cn1pon" kvg:type="㇐a" d="M45.87,22.3c4.63-0.43,11.38-1.3,16.02-1.65" transform="matrix(1,0,0,1,796,-4)" class="stroke_order_diagram--existing_path"></path><path id="pathSk2v596cn1poo" kvg:type="㇐a" d="M45.78,30.09c4.85-0.59,10.47-1.21,15.5-1.53" transform="matrix(1,0,0,1,796,-4)" class="stroke_order_diagram--existing_path"></path><path id="pathSk2v596cn1pop" kvg:type="㇙" d="M43.61,15.18c0.73,0.73,0.96,1.82,0.96,2.85c0,4.34-0.08,20.23-0.08,23.97c0,1.38,0.5,1.88,2.16,1.15c2-0.88,7.85-3.78,11.92-5.33" transform="matrix(1,0,0,1,796,-4)" class="stroke_order_diagram--existing_path"></path><path id="pathSk2v596cn1poq" kvg:type="㇔" d="M56.75,33.65c2.28,1.71,5.87,6.29,7.17,9.91" transform="matrix(1,0,0,1,796,-4)" class="stroke_order_diagram--existing_path"></path><path id="kvg:097ff-s9" kvg:type="㇇" d="M72.39,13.71c1.36,0.29,2.41,0.31,3.35,0.21c4.75-0.49,8.68-0.98,10.95-1.46c2.72-0.58,3.84,1.59,2.98,3.2c-1.18,2.22-2.68,4.09-6.47,9.07" transform="matrix(1,0,0,1,796,-4)" class="stroke_order_diagram--current_path"></path><path id="pathSk2v596cn1pos" kvg:type="㇇" d="M72.39,13.71c1.36,0.29,2.41,0.31,3.35,0.21c4.75-0.49,8.68-0.98,10.95-1.46c2.72-0.58,3.84,1.59,2.98,3.2c-1.18,2.22-2.68,4.09-6.47,9.07" transform="matrix(1,0,0,1,796,-4)" class="stroke_order_diagram--current_path"></path><circle cx="72.39" cy="13.71" r="8" class="stroke_order_diagram--path_start" transform="matrix(1,0,0,1,796,-4)"></circle><line x1="950" x2="950" y1="1" y2="99" class="stroke_order_diagram--guide_line"></line><line x1="999" x2="999" y1="1" y2="99" class="stroke_order_diagram--bounding_box"></line><path id="pathSk2v596cn1pov" kvg:type="㇜" d="M25.25,11.87c0.32,0.83,0.36,1.9-0.16,2.85c-2.18,4.02-4.34,6.28-6.32,8.35c-0.52,0.54-0.34,1.36,0.27,1.61c3.09,1.32,3.34,1.32,6.2,2.99" transform="matrix(1,0,0,1,896,-4)" class="stroke_order_diagram--existing_path"></path><path id="pathSk2v596cn1pow" kvg:type="㇜" d="M34.65,17.65c0.35,0.98,0.23,2.1-0.45,2.91c-3.15,3.76-9.82,10.26-15.45,14.94c-2.21,1.84-2.18,3.77,1.17,2.72c5.08-1.59,7.71-2.34,13.56-3.55" transform="matrix(1,0,0,1,896,-4)" class="stroke_order_diagram--existing_path"></path><path id="pathSk2v596cn1pox" kvg:type="㇒/㇔" d="M35.44,29.22c0.22,0.31,0.58,1.46,0.4,2.25C34.5,37.25,30.75,45,21.21,52.51" transform="matrix(1,0,0,1,896,-4)" class="stroke_order_diagram--existing_path"></path><path id="pathSk2v596cn1poy" kvg:type="㇕" d="M42.61,14.18c1.39,0.57,3.41,0.69,5.13,0.5c3.64-0.4,9.91-1.05,12.52-1.34c3.06-0.35,4.24-0.11,3.72,3.01c-0.52,3.14-0.71,6.86-1.46,10.65c-0.2,1.01-0.41,2.02-0.64,3.03" transform="matrix(1,0,0,1,896,-4)" class="stroke_order_diagram--existing_path"></path><path id="pathSk2v596cn1poz" kvg:type="㇐a" d="M45.87,22.3c4.63-0.43,11.38-1.3,16.02-1.65" transform="matrix(1,0,0,1,896,-4)" class="stroke_order_diagram--existing_path"></path><path id="pathSk2v596cn1pp0" kvg:type="㇐a" d="M45.78,30.09c4.85-0.59,10.47-1.21,15.5-1.53" transform="matrix(1,0,0,1,896,-4)" class="stroke_order_diagram--existing_path"></path><path id="pathSk2v596cn1pp1" kvg:type="㇙" d="M43.61,15.18c0.73,0.73,0.96,1.82,0.96,2.85c0,4.34-0.08,20.23-0.08,23.97c0,1.38,0.5,1.88,2.16,1.15c2-0.88,7.85-3.78,11.92-5.33" transform="matrix(1,0,0,1,896,-4)" class="stroke_order_diagram--existing_path"></path><path id="pathSk2v596cn1pp2" kvg:type="㇔" d="M56.75,33.65c2.28,1.71,5.87,6.29,7.17,9.91" transform="matrix(1,0,0,1,896,-4)" class="stroke_order_diagram--existing_path"></path><path id="pathSk2v596cn1pp3" kvg:type="㇇" d="M72.39,13.71c1.36,0.29,2.41,0.31,3.35,0.21c4.75-0.49,8.68-0.98,10.95-1.46c2.72-0.58,3.84,1.59,2.98,3.2c-1.18,2.22-2.68,4.09-6.47,9.07" transform="matrix(1,0,0,1,896,-4)" class="stroke_order_diagram--existing_path"></path><path id="kvg:097ff-s10" kvg:type="㇕va" d="M83.21,24.72C94.75,32.5,90,47.38,81.97,41.68" transform="matrix(1,0,0,1,896,-4)" class="stroke_order_diagram--current_path"></path><path id="pathSk2v596cn1pp5" kvg:type="㇕va" d="M83.21,24.72C94.75,32.5,90,47.38,81.97,41.68" transform="matrix(1,0,0,1,896,-4)" class="stroke_order_diagram--current_path"></path><circle cx="83.21" cy="24.72" r="8" class="stroke_order_diagram--path_start" transform="matrix(1,0,0,1,896,-4)"></circle><line x1="1050" x2="1050" y1="1" y2="99" class="stroke_order_diagram--guide_line"></line><line x1="1099" x2="1099" y1="1" y2="99" class="stroke_order_diagram--bounding_box"></line><path id="pathSk2v596cn1pp8" kvg:type="㇜" d="M25.25,11.87c0.32,0.83,0.36,1.9-0.16,2.85c-2.18,4.02-4.34,6.28-6.32,8.35c-0.52,0.54-0.34,1.36,0.27,1.61c3.09,1.32,3.34,1.32,6.2,2.99" transform="matrix(1,0,0,1,996,-4)" class="stroke_order_diagram--existing_path"></path><path id="pathSk2v596cn1pp9" kvg:type="㇜" d="M34.65,17.65c0.35,0.98,0.23,2.1-0.45,2.91c-3.15,3.76-9.82,10.26-15.45,14.94c-2.21,1.84-2.18,3.77,1.17,2.72c5.08-1.59,7.71-2.34,13.56-3.55" transform="matrix(1,0,0,1,996,-4)" class="stroke_order_diagram--existing_path"></path><path id="pathSk2v596cn1ppa" kvg:type="㇒/㇔" d="M35.44,29.22c0.22,0.31,0.58,1.46,0.4,2.25C34.5,37.25,30.75,45,21.21,52.51" transform="matrix(1,0,0,1,996,-4)" class="stroke_order_diagram--existing_path"></path><path id="pathSk2v596cn1ppb" kvg:type="㇕" d="M42.61,14.18c1.39,0.57,3.41,0.69,5.13,0.5c3.64-0.4,9.91-1.05,12.52-1.34c3.06-0.35,4.24-0.11,3.72,3.01c-0.52,3.14-0.71,6.86-1.46,10.65c-0.2,1.01-0.41,2.02-0.64,3.03" transform="matrix(1,0,0,1,996,-4)" class="stroke_order_diagram--existing_path"></path><path id="pathSk2v596cn1ppc" kvg:type="㇐a" d="M45.87,22.3c4.63-0.43,11.38-1.3,16.02-1.65" transform="matrix(1,0,0,1,996,-4)" class="stroke_order_diagram--existing_path"></path><path id="pathSk2v596cn1ppd" kvg:type="㇐a" d="M45.78,30.09c4.85-0.59,10.47-1.21,15.5-1.53" transform="matrix(1,0,0,1,996,-4)" class="stroke_order_diagram--existing_path"></path><path id="pathSk2v596cn1ppe" kvg:type="㇙" d="M43.61,15.18c0.73,0.73,0.96,1.82,0.96,2.85c0,4.34-0.08,20.23-0.08,23.97c0,1.38,0.5,1.88,2.16,1.15c2-0.88,7.85-3.78,11.92-5.33" transform="matrix(1,0,0,1,996,-4)" class="stroke_order_diagram--existing_path"></path><path id="pathSk2v596cn1ppf" kvg:type="㇔" d="M56.75,33.65c2.28,1.71,5.87,6.29,7.17,9.91" transform="matrix(1,0,0,1,996,-4)" class="stroke_order_diagram--existing_path"></path><path id="pathSk2v596cn1ppg" kvg:type="㇇" d="M72.39,13.71c1.36,0.29,2.41,0.31,3.35,0.21c4.75-0.49,8.68-0.98,10.95-1.46c2.72-0.58,3.84,1.59,2.98,3.2c-1.18,2.22-2.68,4.09-6.47,9.07" transform="matrix(1,0,0,1,996,-4)" class="stroke_order_diagram--existing_path"></path><path id="pathSk2v596cn1pph" kvg:type="㇕va" d="M83.21,24.72C94.75,32.5,90,47.38,81.97,41.68" transform="matrix(1,0,0,1,996,-4)" class="stroke_order_diagram--existing_path"></path><path id="kvg:097ff-s11" kvg:type="㇑" d="M73.51,14.64c0.93,0.93,1.28,1.99,1.28,3.15c0,2.69-0.03,13.72-0.04,23.09c0,1.82,0,3.52,0,5" transform="matrix(1,0,0,1,996,-4)" class="stroke_order_diagram--current_path"></path><path id="pathSk2v596cn1ppj" kvg:type="㇑" d="M73.51,14.64c0.93,0.93,1.28,1.99,1.28,3.15c0,2.69-0.03,13.72-0.04,23.09c0,1.82,0,3.52,0,5" transform="matrix(1,0,0,1,996,-4)" class="stroke_order_diagram--current_path"></path><circle cx="73.51" cy="14.64" r="8" class="stroke_order_diagram--path_start" transform="matrix(1,0,0,1,996,-4)"></circle><line x1="1150" x2="1150" y1="1" y2="99" class="stroke_order_diagram--guide_line"></line><line x1="1199" x2="1199" y1="1" y2="99" class="stroke_order_diagram--bounding_box"></line><path id="pathSk2v596cn1ppm" kvg:type="㇜" d="M25.25,11.87c0.32,0.83,0.36,1.9-0.16,2.85c-2.18,4.02-4.34,6.28-6.32,8.35c-0.52,0.54-0.34,1.36,0.27,1.61c3.09,1.32,3.34,1.32,6.2,2.99" transform="matrix(1,0,0,1,1096,-4)" class="stroke_order_diagram--existing_path"></path><path id="pathSk2v596cn1ppn" kvg:type="㇜" d="M34.65,17.65c0.35,0.98,0.23,2.1-0.45,2.91c-3.15,3.76-9.82,10.26-15.45,14.94c-2.21,1.84-2.18,3.77,1.17,2.72c5.08-1.59,7.71-2.34,13.56-3.55" transform="matrix(1,0,0,1,1096,-4)" class="stroke_order_diagram--existing_path"></path><path id="pathSk2v596cn1ppo" kvg:type="㇒/㇔" d="M35.44,29.22c0.22,0.31,0.58,1.46,0.4,2.25C34.5,37.25,30.75,45,21.21,52.51" transform="matrix(1,0,0,1,1096,-4)" class="stroke_order_diagram--existing_path"></path><path id="pathSk2v596cn1ppp" kvg:type="㇕" d="M42.61,14.18c1.39,0.57,3.41,0.69,5.13,0.5c3.64-0.4,9.91-1.05,12.52-1.34c3.06-0.35,4.24-0.11,3.72,3.01c-0.52,3.14-0.71,6.86-1.46,10.65c-0.2,1.01-0.41,2.02-0.64,3.03" transform="matrix(1,0,0,1,1096,-4)" class="stroke_order_diagram--existing_path"></path><path id="pathSk2v596cn1ppq" kvg:type="㇐a" d="M45.87,22.3c4.63-0.43,11.38-1.3,16.02-1.65" transform="matrix(1,0,0,1,1096,-4)" class="stroke_order_diagram--existing_path"></path><path id="pathSk2v596cn1ppr" kvg:type="㇐a" d="M45.78,30.09c4.85-0.59,10.47-1.21,15.5-1.53" transform="matrix(1,0,0,1,1096,-4)" class="stroke_order_diagram--existing_path"></path><path id="pathSk2v596cn1pps" kvg:type="㇙" d="M43.61,15.18c0.73,0.73,0.96,1.82,0.96,2.85c0,4.34-0.08,20.23-0.08,23.97c0,1.38,0.5,1.88,2.16,1.15c2-0.88,7.85-3.78,11.92-5.33" transform="matrix(1,0,0,1,1096,-4)" class="stroke_order_diagram--existing_path"></path><path id="pathSk2v596cn1ppt" kvg:type="㇔" d="M56.75,33.65c2.28,1.71,5.87,6.29,7.17,9.91" transform="matrix(1,0,0,1,1096,-4)" class="stroke_order_diagram--existing_path"></path><path id="pathSk2v596cn1ppu" kvg:type="㇇" d="M72.39,13.71c1.36,0.29,2.41,0.31,3.35,0.21c4.75-0.49,8.68-0.98,10.95-1.46c2.72-0.58,3.84,1.59,2.98,3.2c-1.18,2.22-2.68,4.09-6.47,9.07" transform="matrix(1,0,0,1,1096,-4)" class="stroke_order_diagram--existing_path"></path><path id="pathSk2v596cn1ppv" kvg:type="㇕va" d="M83.21,24.72C94.75,32.5,90,47.38,81.97,41.68" transform="matrix(1,0,0,1,1096,-4)" class="stroke_order_diagram--existing_path"></path><path id="pathSk2v596cn1ppw" kvg:type="㇑" d="M73.51,14.64c0.93,0.93,1.28,1.99,1.28,3.15c0,2.69-0.03,13.72-0.04,23.09c0,1.82,0,3.52,0,5" transform="matrix(1,0,0,1,1096,-4)" class="stroke_order_diagram--existing_path"></path><path id="kvg:097ff-s12" kvg:type="㇑a" d="M52.79,45.5c0.85,0.86,1.22,2,1.22,3.09c0,0.91-0.01,3.01-0.01,4.04" transform="matrix(1,0,0,1,1096,-4)" class="stroke_order_diagram--current_path"></path><path id="pathSk2v596cn1ppy" kvg:type="㇑a" d="M52.79,45.5c0.85,0.86,1.22,2,1.22,3.09c0,0.91-0.01,3.01-0.01,4.04" transform="matrix(1,0,0,1,1096,-4)" class="stroke_order_diagram--current_path"></path><circle cx="52.79" cy="45.5" r="8" class="stroke_order_diagram--path_start" transform="matrix(1,0,0,1,1096,-4)"></circle><line x1="1250" x2="1250" y1="1" y2="99" class="stroke_order_diagram--guide_line"></line><line x1="1299" x2="1299" y1="1" y2="99" class="stroke_order_diagram--bounding_box"></line><path id="pathSk2v596cn1pq1" kvg:type="㇜" d="M25.25,11.87c0.32,0.83,0.36,1.9-0.16,2.85c-2.18,4.02-4.34,6.28-6.32,8.35c-0.52,0.54-0.34,1.36,0.27,1.61c3.09,1.32,3.34,1.32,6.2,2.99" transform="matrix(1,0,0,1,1196,-4)" class="stroke_order_diagram--existing_path"></path><path id="pathSk2v596cn1pq2" kvg:type="㇜" d="M34.65,17.65c0.35,0.98,0.23,2.1-0.45,2.91c-3.15,3.76-9.82,10.26-15.45,14.94c-2.21,1.84-2.18,3.77,1.17,2.72c5.08-1.59,7.71-2.34,13.56-3.55" transform="matrix(1,0,0,1,1196,-4)" class="stroke_order_diagram--existing_path"></path><path id="pathSk2v596cn1pq3" kvg:type="㇒/㇔" d="M35.44,29.22c0.22,0.31,0.58,1.46,0.4,2.25C34.5,37.25,30.75,45,21.21,52.51" transform="matrix(1,0,0,1,1196,-4)" class="stroke_order_diagram--existing_path"></path><path id="pathSk2v596cn1pq4" kvg:type="㇕" d="M42.61,14.18c1.39,0.57,3.41,0.69,5.13,0.5c3.64-0.4,9.91-1.05,12.52-1.34c3.06-0.35,4.24-0.11,3.72,3.01c-0.52,3.14-0.71,6.86-1.46,10.65c-0.2,1.01-0.41,2.02-0.64,3.03" transform="matrix(1,0,0,1,1196,-4)" class="stroke_order_diagram--existing_path"></path><path id="pathSk2v596cn1pq5" kvg:type="㇐a" d="M45.87,22.3c4.63-0.43,11.38-1.3,16.02-1.65" transform="matrix(1,0,0,1,1196,-4)" class="stroke_order_diagram--existing_path"></path><path id="pathSk2v596cn1pq6" kvg:type="㇐a" d="M45.78,30.09c4.85-0.59,10.47-1.21,15.5-1.53" transform="matrix(1,0,0,1,1196,-4)" class="stroke_order_diagram--existing_path"></path><path id="pathSk2v596cn1pq7" kvg:type="㇙" d="M43.61,15.18c0.73,0.73,0.96,1.82,0.96,2.85c0,4.34-0.08,20.23-0.08,23.97c0,1.38,0.5,1.88,2.16,1.15c2-0.88,7.85-3.78,11.92-5.33" transform="matrix(1,0,0,1,1196,-4)" class="stroke_order_diagram--existing_path"></path><path id="pathSk2v596cn1pq8" kvg:type="㇔" d="M56.75,33.65c2.28,1.71,5.87,6.29,7.17,9.91" transform="matrix(1,0,0,1,1196,-4)" class="stroke_order_diagram--existing_path"></path><path id="pathSk2v596cn1pq9" kvg:type="㇇" d="M72.39,13.71c1.36,0.29,2.41,0.31,3.35,0.21c4.75-0.49,8.68-0.98,10.95-1.46c2.72-0.58,3.84,1.59,2.98,3.2c-1.18,2.22-2.68,4.09-6.47,9.07" transform="matrix(1,0,0,1,1196,-4)" class="stroke_order_diagram--existing_path"></path><path id="pathSk2v596cn1pqa" kvg:type="㇕va" d="M83.21,24.72C94.75,32.5,90,47.38,81.97,41.68" transform="matrix(1,0,0,1,1196,-4)" class="stroke_order_diagram--existing_path"></path><path id="pathSk2v596cn1pqb" kvg:type="㇑" d="M73.51,14.64c0.93,0.93,1.28,1.99,1.28,3.15c0,2.69-0.03,13.72-0.04,23.09c0,1.82,0,3.52,0,5" transform="matrix(1,0,0,1,1196,-4)" class="stroke_order_diagram--existing_path"></path><path id="pathSk2v596cn1pqc" kvg:type="㇑a" d="M52.79,45.5c0.85,0.86,1.22,2,1.22,3.09c0,0.91-0.01,3.01-0.01,4.04" transform="matrix(1,0,0,1,1196,-4)" class="stroke_order_diagram--existing_path"></path><path id="kvg:097ff-s13" kvg:type="㇐" d="M31.59,55.21c2.28,0.41,4.24,0.16,6.54-0.1c6.42-0.72,20.55-2.25,32.74-3.09c2.19-0.15,4.12,0.1,6.3,0.45" transform="matrix(1,0,0,1,1196,-4)" class="stroke_order_diagram--current_path"></path><path id="pathSk2v596cn1pqe" kvg:type="㇐" d="M31.59,55.21c2.28,0.41,4.24,0.16,6.54-0.1c6.42-0.72,20.55-2.25,32.74-3.09c2.19-0.15,4.12,0.1,6.3,0.45" transform="matrix(1,0,0,1,1196,-4)" class="stroke_order_diagram--current_path"></path><circle cx="31.59" cy="55.21" r="8" class="stroke_order_diagram--path_start" transform="matrix(1,0,0,1,1196,-4)"></circle><line x1="1350" x2="1350" y1="1" y2="99" class="stroke_order_diagram--guide_line"></line><line x1="1399" x2="1399" y1="1" y2="99" class="stroke_order_diagram--bounding_box"></line><path id="pathSk2v596cn1pqh" kvg:type="㇜" d="M25.25,11.87c0.32,0.83,0.36,1.9-0.16,2.85c-2.18,4.02-4.34,6.28-6.32,8.35c-0.52,0.54-0.34,1.36,0.27,1.61c3.09,1.32,3.34,1.32,6.2,2.99" transform="matrix(1,0,0,1,1296,-4)" class="stroke_order_diagram--existing_path"></path><path id="pathSk2v596cn1pqi" kvg:type="㇜" d="M34.65,17.65c0.35,0.98,0.23,2.1-0.45,2.91c-3.15,3.76-9.82,10.26-15.45,14.94c-2.21,1.84-2.18,3.77,1.17,2.72c5.08-1.59,7.71-2.34,13.56-3.55" transform="matrix(1,0,0,1,1296,-4)" class="stroke_order_diagram--existing_path"></path><path id="pathSk2v596cn1pqj" kvg:type="㇒/㇔" d="M35.44,29.22c0.22,0.31,0.58,1.46,0.4,2.25C34.5,37.25,30.75,45,21.21,52.51" transform="matrix(1,0,0,1,1296,-4)" class="stroke_order_diagram--existing_path"></path><path id="pathSk2v596cn1pqk" kvg:type="㇕" d="M42.61,14.18c1.39,0.57,3.41,0.69,5.13,0.5c3.64-0.4,9.91-1.05,12.52-1.34c3.06-0.35,4.24-0.11,3.72,3.01c-0.52,3.14-0.71,6.86-1.46,10.65c-0.2,1.01-0.41,2.02-0.64,3.03" transform="matrix(1,0,0,1,1296,-4)" class="stroke_order_diagram--existing_path"></path><path id="pathSk2v596cn1pql" kvg:type="㇐a" d="M45.87,22.3c4.63-0.43,11.38-1.3,16.02-1.65" transform="matrix(1,0,0,1,1296,-4)" class="stroke_order_diagram--existing_path"></path><path id="pathSk2v596cn1pqm" kvg:type="㇐a" d="M45.78,30.09c4.85-0.59,10.47-1.21,15.5-1.53" transform="matrix(1,0,0,1,1296,-4)" class="stroke_order_diagram--existing_path"></path><path id="pathSk2v596cn1pqn" kvg:type="㇙" d="M43.61,15.18c0.73,0.73,0.96,1.82,0.96,2.85c0,4.34-0.08,20.23-0.08,23.97c0,1.38,0.5,1.88,2.16,1.15c2-0.88,7.85-3.78,11.92-5.33" transform="matrix(1,0,0,1,1296,-4)" class="stroke_order_diagram--existing_path"></path><path id="pathSk2v596cn1pqo" kvg:type="㇔" d="M56.75,33.65c2.28,1.71,5.87,6.29,7.17,9.91" transform="matrix(1,0,0,1,1296,-4)" class="stroke_order_diagram--existing_path"></path><path id="pathSk2v596cn1pqp" kvg:type="㇇" d="M72.39,13.71c1.36,0.29,2.41,0.31,3.35,0.21c4.75-0.49,8.68-0.98,10.95-1.46c2.72-0.58,3.84,1.59,2.98,3.2c-1.18,2.22-2.68,4.09-6.47,9.07" transform="matrix(1,0,0,1,1296,-4)" class="stroke_order_diagram--existing_path"></path><path id="pathSk2v596cn1pqq" kvg:type="㇕va" d="M83.21,24.72C94.75,32.5,90,47.38,81.97,41.68" transform="matrix(1,0,0,1,1296,-4)" class="stroke_order_diagram--existing_path"></path><path id="pathSk2v596cn1pqr" kvg:type="㇑" d="M73.51,14.64c0.93,0.93,1.28,1.99,1.28,3.15c0,2.69-0.03,13.72-0.04,23.09c0,1.82,0,3.52,0,5" transform="matrix(1,0,0,1,1296,-4)" class="stroke_order_diagram--existing_path"></path><path id="pathSk2v596cn1pqs" kvg:type="㇑a" d="M52.79,45.5c0.85,0.86,1.22,2,1.22,3.09c0,0.91-0.01,3.01-0.01,4.04" transform="matrix(1,0,0,1,1296,-4)" class="stroke_order_diagram--existing_path"></path><path id="pathSk2v596cn1pqt" kvg:type="㇐" d="M31.59,55.21c2.28,0.41,4.24,0.16,6.54-0.1c6.42-0.72,20.55-2.25,32.74-3.09c2.19-0.15,4.12,0.1,6.3,0.45" transform="matrix(1,0,0,1,1296,-4)" class="stroke_order_diagram--existing_path"></path><path id="kvg:097ff-s14" kvg:type="㇔" d="M39.38,57c2.42,2.56,2.91,5.02,3.26,6.82" transform="matrix(1,0,0,1,1296,-4)" class="stroke_order_diagram--current_path"></path><path id="pathSk2v596cn1pqv" kvg:type="㇔" d="M39.38,57c2.42,2.56,2.91,5.02,3.26,6.82" transform="matrix(1,0,0,1,1296,-4)" class="stroke_order_diagram--current_path"></path><circle cx="39.38" cy="57" r="8" class="stroke_order_diagram--path_start" transform="matrix(1,0,0,1,1296,-4)"></circle><line x1="1450" x2="1450" y1="1" y2="99" class="stroke_order_diagram--guide_line"></line><line x1="1499" x2="1499" y1="1" y2="99" class="stroke_order_diagram--bounding_box"></line><path id="pathSk2v596cn1pqy" kvg:type="㇜" d="M25.25,11.87c0.32,0.83,0.36,1.9-0.16,2.85c-2.18,4.02-4.34,6.28-6.32,8.35c-0.52,0.54-0.34,1.36,0.27,1.61c3.09,1.32,3.34,1.32,6.2,2.99" transform="matrix(1,0,0,1,1396,-4)" class="stroke_order_diagram--existing_path"></path><path id="pathSk2v596cn1pqz" kvg:type="㇜" d="M34.65,17.65c0.35,0.98,0.23,2.1-0.45,2.91c-3.15,3.76-9.82,10.26-15.45,14.94c-2.21,1.84-2.18,3.77,1.17,2.72c5.08-1.59,7.71-2.34,13.56-3.55" transform="matrix(1,0,0,1,1396,-4)" class="stroke_order_diagram--existing_path"></path><path id="pathSk2v596cn1pr0" kvg:type="㇒/㇔" d="M35.44,29.22c0.22,0.31,0.58,1.46,0.4,2.25C34.5,37.25,30.75,45,21.21,52.51" transform="matrix(1,0,0,1,1396,-4)" class="stroke_order_diagram--existing_path"></path><path id="pathSk2v596cn1pr1" kvg:type="㇕" d="M42.61,14.18c1.39,0.57,3.41,0.69,5.13,0.5c3.64-0.4,9.91-1.05,12.52-1.34c3.06-0.35,4.24-0.11,3.72,3.01c-0.52,3.14-0.71,6.86-1.46,10.65c-0.2,1.01-0.41,2.02-0.64,3.03" transform="matrix(1,0,0,1,1396,-4)" class="stroke_order_diagram--existing_path"></path><path id="pathSk2v596cn1pr2" kvg:type="㇐a" d="M45.87,22.3c4.63-0.43,11.38-1.3,16.02-1.65" transform="matrix(1,0,0,1,1396,-4)" class="stroke_order_diagram--existing_path"></path><path id="pathSk2v596cn1pr3" kvg:type="㇐a" d="M45.78,30.09c4.85-0.59,10.47-1.21,15.5-1.53" transform="matrix(1,0,0,1,1396,-4)" class="stroke_order_diagram--existing_path"></path><path id="pathSk2v596cn1pr4" kvg:type="㇙" d="M43.61,15.18c0.73,0.73,0.96,1.82,0.96,2.85c0,4.34-0.08,20.23-0.08,23.97c0,1.38,0.5,1.88,2.16,1.15c2-0.88,7.85-3.78,11.92-5.33" transform="matrix(1,0,0,1,1396,-4)" class="stroke_order_diagram--existing_path"></path><path id="pathSk2v596cn1pr5" kvg:type="㇔" d="M56.75,33.65c2.28,1.71,5.87,6.29,7.17,9.91" transform="matrix(1,0,0,1,1396,-4)" class="stroke_order_diagram--existing_path"></path><path id="pathSk2v596cn1pr6" kvg:type="㇇" d="M72.39,13.71c1.36,0.29,2.41,0.31,3.35,0.21c4.75-0.49,8.68-0.98,10.95-1.46c2.72-0.58,3.84,1.59,2.98,3.2c-1.18,2.22-2.68,4.09-6.47,9.07" transform="matrix(1,0,0,1,1396,-4)" class="stroke_order_diagram--existing_path"></path><path id="pathSk2v596cn1pr7" kvg:type="㇕va" d="M83.21,24.72C94.75,32.5,90,47.38,81.97,41.68" transform="matrix(1,0,0,1,1396,-4)" class="stroke_order_diagram--existing_path"></path><path id="pathSk2v596cn1pr8" kvg:type="㇑" d="M73.51,14.64c0.93,0.93,1.28,1.99,1.28,3.15c0,2.69-0.03,13.72-0.04,23.09c0,1.82,0,3.52,0,5" transform="matrix(1,0,0,1,1396,-4)" class="stroke_order_diagram--existing_path"></path><path id="pathSk2v596cn1pr9" kvg:type="㇑a" d="M52.79,45.5c0.85,0.86,1.22,2,1.22,3.09c0,0.91-0.01,3.01-0.01,4.04" transform="matrix(1,0,0,1,1396,-4)" class="stroke_order_diagram--existing_path"></path><path id="pathSk2v596cn1pra" kvg:type="㇐" d="M31.59,55.21c2.28,0.41,4.24,0.16,6.54-0.1c6.42-0.72,20.55-2.25,32.74-3.09c2.19-0.15,4.12,0.1,6.3,0.45" transform="matrix(1,0,0,1,1396,-4)" class="stroke_order_diagram--existing_path"></path><path id="pathSk2v596cn1prb" kvg:type="㇔" d="M39.38,57c2.42,2.56,2.91,5.02,3.26,6.82" transform="matrix(1,0,0,1,1396,-4)" class="stroke_order_diagram--existing_path"></path><path id="kvg:097ff-s15" kvg:type="㇒" d="M66.35,55.4c0.1,0.55-0.1,1.31-0.19,1.5c-0.92,1.91-2.1,4.01-2.78,5.1" transform="matrix(1,0,0,1,1396,-4)" class="stroke_order_diagram--current_path"></path><path id="pathSk2v596cn1prd" kvg:type="㇒" d="M66.35,55.4c0.1,0.55-0.1,1.31-0.19,1.5c-0.92,1.91-2.1,4.01-2.78,5.1" transform="matrix(1,0,0,1,1396,-4)" class="stroke_order_diagram--current_path"></path><circle cx="66.35" cy="55.4" r="8" class="stroke_order_diagram--path_start" transform="matrix(1,0,0,1,1396,-4)"></circle><line x1="1550" x2="1550" y1="1" y2="99" class="stroke_order_diagram--guide_line"></line><line x1="1599" x2="1599" y1="1" y2="99" class="stroke_order_diagram--bounding_box"></line><path id="pathSk2v596cn1prg" kvg:type="㇜" d="M25.25,11.87c0.32,0.83,0.36,1.9-0.16,2.85c-2.18,4.02-4.34,6.28-6.32,8.35c-0.52,0.54-0.34,1.36,0.27,1.61c3.09,1.32,3.34,1.32,6.2,2.99" transform="matrix(1,0,0,1,1496,-4)" class="stroke_order_diagram--existing_path"></path><path id="pathSk2v596cn1prh" kvg:type="㇜" d="M34.65,17.65c0.35,0.98,0.23,2.1-0.45,2.91c-3.15,3.76-9.82,10.26-15.45,14.94c-2.21,1.84-2.18,3.77,1.17,2.72c5.08-1.59,7.71-2.34,13.56-3.55" transform="matrix(1,0,0,1,1496,-4)" class="stroke_order_diagram--existing_path"></path><path id="pathSk2v596cn1pri" kvg:type="㇒/㇔" d="M35.44,29.22c0.22,0.31,0.58,1.46,0.4,2.25C34.5,37.25,30.75,45,21.21,52.51" transform="matrix(1,0,0,1,1496,-4)" class="stroke_order_diagram--existing_path"></path><path id="pathSk2v596cn1prj" kvg:type="㇕" d="M42.61,14.18c1.39,0.57,3.41,0.69,5.13,0.5c3.64-0.4,9.91-1.05,12.52-1.34c3.06-0.35,4.24-0.11,3.72,3.01c-0.52,3.14-0.71,6.86-1.46,10.65c-0.2,1.01-0.41,2.02-0.64,3.03" transform="matrix(1,0,0,1,1496,-4)" class="stroke_order_diagram--existing_path"></path><path id="pathSk2v596cn1prk" kvg:type="㇐a" d="M45.87,22.3c4.63-0.43,11.38-1.3,16.02-1.65" transform="matrix(1,0,0,1,1496,-4)" class="stroke_order_diagram--existing_path"></path><path id="pathSk2v596cn1prl" kvg:type="㇐a" d="M45.78,30.09c4.85-0.59,10.47-1.21,15.5-1.53" transform="matrix(1,0,0,1,1496,-4)" class="stroke_order_diagram--existing_path"></path><path id="pathSk2v596cn1prm" kvg:type="㇙" d="M43.61,15.18c0.73,0.73,0.96,1.82,0.96,2.85c0,4.34-0.08,20.23-0.08,23.97c0,1.38,0.5,1.88,2.16,1.15c2-0.88,7.85-3.78,11.92-5.33" transform="matrix(1,0,0,1,1496,-4)" class="stroke_order_diagram--existing_path"></path><path id="pathSk2v596cn1prn" kvg:type="㇔" d="M56.75,33.65c2.28,1.71,5.87,6.29,7.17,9.91" transform="matrix(1,0,0,1,1496,-4)" class="stroke_order_diagram--existing_path"></path><path id="pathSk2v596cn1pro" kvg:type="㇇" d="M72.39,13.71c1.36,0.29,2.41,0.31,3.35,0.21c4.75-0.49,8.68-0.98,10.95-1.46c2.72-0.58,3.84,1.59,2.98,3.2c-1.18,2.22-2.68,4.09-6.47,9.07" transform="matrix(1,0,0,1,1496,-4)" class="stroke_order_diagram--existing_path"></path><path id="pathSk2v596cn1prp" kvg:type="㇕va" d="M83.21,24.72C94.75,32.5,90,47.38,81.97,41.68" transform="matrix(1,0,0,1,1496,-4)" class="stroke_order_diagram--existing_path"></path><path id="pathSk2v596cn1prq" kvg:type="㇑" d="M73.51,14.64c0.93,0.93,1.28,1.99,1.28,3.15c0,2.69-0.03,13.72-0.04,23.09c0,1.82,0,3.52,0,5" transform="matrix(1,0,0,1,1496,-4)" class="stroke_order_diagram--existing_path"></path><path id="pathSk2v596cn1prr" kvg:type="㇑a" d="M52.79,45.5c0.85,0.86,1.22,2,1.22,3.09c0,0.91-0.01,3.01-0.01,4.04" transform="matrix(1,0,0,1,1496,-4)" class="stroke_order_diagram--existing_path"></path><path id="pathSk2v596cn1prs" kvg:type="㇐" d="M31.59,55.21c2.28,0.41,4.24,0.16,6.54-0.1c6.42-0.72,20.55-2.25,32.74-3.09c2.19-0.15,4.12,0.1,6.3,0.45" transform="matrix(1,0,0,1,1496,-4)" class="stroke_order_diagram--existing_path"></path><path id="pathSk2v596cn1prt" kvg:type="㇔" d="M39.38,57c2.42,2.56,2.91,5.02,3.26,6.82" transform="matrix(1,0,0,1,1496,-4)" class="stroke_order_diagram--existing_path"></path><path id="pathSk2v596cn1pru" kvg:type="㇒" d="M66.35,55.4c0.1,0.55-0.1,1.31-0.19,1.5c-0.92,1.91-2.1,4.01-2.78,5.1" transform="matrix(1,0,0,1,1496,-4)" class="stroke_order_diagram--existing_path"></path><path id="kvg:097ff-s16" kvg:type="㇐" d="M16.25,68.2c3.25,0.67,6.42,0.67,9.37,0.29c20.25-2.61,39.04-4.37,57-4.95c5-0.16,8.25-0.04,11.12,0.68" transform="matrix(1,0,0,1,1496,-4)" class="stroke_order_diagram--current_path"></path><path id="pathSk2v596cn1prw" kvg:type="㇐" d="M16.25,68.2c3.25,0.67,6.42,0.67,9.37,0.29c20.25-2.61,39.04-4.37,57-4.95c5-0.16,8.25-0.04,11.12,0.68" transform="matrix(1,0,0,1,1496,-4)" class="stroke_order_diagram--current_path"></path><circle cx="16.25" cy="68.2" r="8" class="stroke_order_diagram--path_start" transform="matrix(1,0,0,1,1496,-4)"></circle><line x1="1650" x2="1650" y1="1" y2="99" class="stroke_order_diagram--guide_line"></line><line x1="1699" x2="1699" y1="1" y2="99" class="stroke_order_diagram--bounding_box"></line><path id="pathSk2v596cn1prz" kvg:type="㇜" d="M25.25,11.87c0.32,0.83,0.36,1.9-0.16,2.85c-2.18,4.02-4.34,6.28-6.32,8.35c-0.52,0.54-0.34,1.36,0.27,1.61c3.09,1.32,3.34,1.32,6.2,2.99" transform="matrix(1,0,0,1,1596,-4)" class="stroke_order_diagram--existing_path"></path><path id="pathSk2v596cn1ps0" kvg:type="㇜" d="M34.65,17.65c0.35,0.98,0.23,2.1-0.45,2.91c-3.15,3.76-9.82,10.26-15.45,14.94c-2.21,1.84-2.18,3.77,1.17,2.72c5.08-1.59,7.71-2.34,13.56-3.55" transform="matrix(1,0,0,1,1596,-4)" class="stroke_order_diagram--existing_path"></path><path id="pathSk2v596cn1ps1" kvg:type="㇒/㇔" d="M35.44,29.22c0.22,0.31,0.58,1.46,0.4,2.25C34.5,37.25,30.75,45,21.21,52.51" transform="matrix(1,0,0,1,1596,-4)" class="stroke_order_diagram--existing_path"></path><path id="pathSk2v596cn1ps2" kvg:type="㇕" d="M42.61,14.18c1.39,0.57,3.41,0.69,5.13,0.5c3.64-0.4,9.91-1.05,12.52-1.34c3.06-0.35,4.24-0.11,3.72,3.01c-0.52,3.14-0.71,6.86-1.46,10.65c-0.2,1.01-0.41,2.02-0.64,3.03" transform="matrix(1,0,0,1,1596,-4)" class="stroke_order_diagram--existing_path"></path><path id="pathSk2v596cn1ps3" kvg:type="㇐a" d="M45.87,22.3c4.63-0.43,11.38-1.3,16.02-1.65" transform="matrix(1,0,0,1,1596,-4)" class="stroke_order_diagram--existing_path"></path><path id="pathSk2v596cn1ps4" kvg:type="㇐a" d="M45.78,30.09c4.85-0.59,10.47-1.21,15.5-1.53" transform="matrix(1,0,0,1,1596,-4)" class="stroke_order_diagram--existing_path"></path><path id="pathSk2v596cn1ps5" kvg:type="㇙" d="M43.61,15.18c0.73,0.73,0.96,1.82,0.96,2.85c0,4.34-0.08,20.23-0.08,23.97c0,1.38,0.5,1.88,2.16,1.15c2-0.88,7.85-3.78,11.92-5.33" transform="matrix(1,0,0,1,1596,-4)" class="stroke_order_diagram--existing_path"></path><path id="pathSk2v596cn1ps6" kvg:type="㇔" d="M56.75,33.65c2.28,1.71,5.87,6.29,7.17,9.91" transform="matrix(1,0,0,1,1596,-4)" class="stroke_order_diagram--existing_path"></path><path id="pathSk2v596cn1ps7" kvg:type="㇇" d="M72.39,13.71c1.36,0.29,2.41,0.31,3.35,0.21c4.75-0.49,8.68-0.98,10.95-1.46c2.72-0.58,3.84,1.59,2.98,3.2c-1.18,2.22-2.68,4.09-6.47,9.07" transform="matrix(1,0,0,1,1596,-4)" class="stroke_order_diagram--existing_path"></path><path id="pathSk2v596cn1ps8" kvg:type="㇕va" d="M83.21,24.72C94.75,32.5,90,47.38,81.97,41.68" transform="matrix(1,0,0,1,1596,-4)" class="stroke_order_diagram--existing_path"></path><path id="pathSk2v596cn1ps9" kvg:type="㇑" d="M73.51,14.64c0.93,0.93,1.28,1.99,1.28,3.15c0,2.69-0.03,13.72-0.04,23.09c0,1.82,0,3.52,0,5" transform="matrix(1,0,0,1,1596,-4)" class="stroke_order_diagram--existing_path"></path><path id="pathSk2v596cn1psa" kvg:type="㇑a" d="M52.79,45.5c0.85,0.86,1.22,2,1.22,3.09c0,0.91-0.01,3.01-0.01,4.04" transform="matrix(1,0,0,1,1596,-4)" class="stroke_order_diagram--existing_path"></path><path id="pathSk2v596cn1psb" kvg:type="㇐" d="M31.59,55.21c2.28,0.41,4.24,0.16,6.54-0.1c6.42-0.72,20.55-2.25,32.74-3.09c2.19-0.15,4.12,0.1,6.3,0.45" transform="matrix(1,0,0,1,1596,-4)" class="stroke_order_diagram--existing_path"></path><path id="pathSk2v596cn1psc" kvg:type="㇔" d="M39.38,57c2.42,2.56,2.91,5.02,3.26,6.82" transform="matrix(1,0,0,1,1596,-4)" class="stroke_order_diagram--existing_path"></path><path id="pathSk2v596cn1psd" kvg:type="㇒" d="M66.35,55.4c0.1,0.55-0.1,1.31-0.19,1.5c-0.92,1.91-2.1,4.01-2.78,5.1" transform="matrix(1,0,0,1,1596,-4)" class="stroke_order_diagram--existing_path"></path><path id="pathSk2v596cn1pse" kvg:type="㇐" d="M16.25,68.2c3.25,0.67,6.42,0.67,9.37,0.29c20.25-2.61,39.04-4.37,57-4.95c5-0.16,8.25-0.04,11.12,0.68" transform="matrix(1,0,0,1,1596,-4)" class="stroke_order_diagram--existing_path"></path><path id="kvg:097ff-s17" kvg:type="㇑" d="M35.03,74.06c0.83,0.83,1.22,1.81,1.53,3.08c0.36,1.48,1.77,11.04,2.58,16.59c0.34,2.28,0.57,3.88,0.57,3.97" transform="matrix(1,0,0,1,1596,-4)" class="stroke_order_diagram--current_path"></path><path id="pathSk2v596cn1psg" kvg:type="㇑" d="M35.03,74.06c0.83,0.83,1.22,1.81,1.53,3.08c0.36,1.48,1.77,11.04,2.58,16.59c0.34,2.28,0.57,3.88,0.57,3.97" transform="matrix(1,0,0,1,1596,-4)" class="stroke_order_diagram--current_path"></path><circle cx="35.03" cy="74.06" r="8" class="stroke_order_diagram--path_start" transform="matrix(1,0,0,1,1596,-4)"></circle><line x1="1750" x2="1750" y1="1" y2="99" class="stroke_order_diagram--guide_line"></line><line x1="1799" x2="1799" y1="1" y2="99" class="stroke_order_diagram--bounding_box"></line><path id="pathSk2v596cn1psj" kvg:type="㇜" d="M25.25,11.87c0.32,0.83,0.36,1.9-0.16,2.85c-2.18,4.02-4.34,6.28-6.32,8.35c-0.52,0.54-0.34,1.36,0.27,1.61c3.09,1.32,3.34,1.32,6.2,2.99" transform="matrix(1,0,0,1,1696,-4)" class="stroke_order_diagram--existing_path"></path><path id="pathSk2v596cn1psk" kvg:type="㇜" d="M34.65,17.65c0.35,0.98,0.23,2.1-0.45,2.91c-3.15,3.76-9.82,10.26-15.45,14.94c-2.21,1.84-2.18,3.77,1.17,2.72c5.08-1.59,7.71-2.34,13.56-3.55" transform="matrix(1,0,0,1,1696,-4)" class="stroke_order_diagram--existing_path"></path><path id="pathSk2v596cn1psl" kvg:type="㇒/㇔" d="M35.44,29.22c0.22,0.31,0.58,1.46,0.4,2.25C34.5,37.25,30.75,45,21.21,52.51" transform="matrix(1,0,0,1,1696,-4)" class="stroke_order_diagram--existing_path"></path><path id="pathSk2v596cn1psm" kvg:type="㇕" d="M42.61,14.18c1.39,0.57,3.41,0.69,5.13,0.5c3.64-0.4,9.91-1.05,12.52-1.34c3.06-0.35,4.24-0.11,3.72,3.01c-0.52,3.14-0.71,6.86-1.46,10.65c-0.2,1.01-0.41,2.02-0.64,3.03" transform="matrix(1,0,0,1,1696,-4)" class="stroke_order_diagram--existing_path"></path><path id="pathSk2v596cn1psn" kvg:type="㇐a" d="M45.87,22.3c4.63-0.43,11.38-1.3,16.02-1.65" transform="matrix(1,0,0,1,1696,-4)" class="stroke_order_diagram--existing_path"></path><path id="pathSk2v596cn1pso" kvg:type="㇐a" d="M45.78,30.09c4.85-0.59,10.47-1.21,15.5-1.53" transform="matrix(1,0,0,1,1696,-4)" class="stroke_order_diagram--existing_path"></path><path id="pathSk2v596cn1psp" kvg:type="㇙" d="M43.61,15.18c0.73,0.73,0.96,1.82,0.96,2.85c0,4.34-0.08,20.23-0.08,23.97c0,1.38,0.5,1.88,2.16,1.15c2-0.88,7.85-3.78,11.92-5.33" transform="matrix(1,0,0,1,1696,-4)" class="stroke_order_diagram--existing_path"></path><path id="pathSk2v596cn1psq" kvg:type="㇔" d="M56.75,33.65c2.28,1.71,5.87,6.29,7.17,9.91" transform="matrix(1,0,0,1,1696,-4)" class="stroke_order_diagram--existing_path"></path><path id="pathSk2v596cn1psr" kvg:type="㇇" d="M72.39,13.71c1.36,0.29,2.41,0.31,3.35,0.21c4.75-0.49,8.68-0.98,10.95-1.46c2.72-0.58,3.84,1.59,2.98,3.2c-1.18,2.22-2.68,4.09-6.47,9.07" transform="matrix(1,0,0,1,1696,-4)" class="stroke_order_diagram--existing_path"></path><path id="pathSk2v596cn1pss" kvg:type="㇕va" d="M83.21,24.72C94.75,32.5,90,47.38,81.97,41.68" transform="matrix(1,0,0,1,1696,-4)" class="stroke_order_diagram--existing_path"></path><path id="pathSk2v596cn1pst" kvg:type="㇑" d="M73.51,14.64c0.93,0.93,1.28,1.99,1.28,3.15c0,2.69-0.03,13.72-0.04,23.09c0,1.82,0,3.52,0,5" transform="matrix(1,0,0,1,1696,-4)" class="stroke_order_diagram--existing_path"></path><path id="pathSk2v596cn1psu" kvg:type="㇑a" d="M52.79,45.5c0.85,0.86,1.22,2,1.22,3.09c0,0.91-0.01,3.01-0.01,4.04" transform="matrix(1,0,0,1,1696,-4)" class="stroke_order_diagram--existing_path"></path><path id="pathSk2v596cn1psv" kvg:type="㇐" d="M31.59,55.21c2.28,0.41,4.24,0.16,6.54-0.1c6.42-0.72,20.55-2.25,32.74-3.09c2.19-0.15,4.12,0.1,6.3,0.45" transform="matrix(1,0,0,1,1696,-4)" class="stroke_order_diagram--existing_path"></path><path id="pathSk2v596cn1psw" kvg:type="㇔" d="M39.38,57c2.42,2.56,2.91,5.02,3.26,6.82" transform="matrix(1,0,0,1,1696,-4)" class="stroke_order_diagram--existing_path"></path><path id="pathSk2v596cn1psx" kvg:type="㇒" d="M66.35,55.4c0.1,0.55-0.1,1.31-0.19,1.5c-0.92,1.91-2.1,4.01-2.78,5.1" transform="matrix(1,0,0,1,1696,-4)" class="stroke_order_diagram--existing_path"></path><path id="pathSk2v596cn1psy" kvg:type="㇐" d="M16.25,68.2c3.25,0.67,6.42,0.67,9.37,0.29c20.25-2.61,39.04-4.37,57-4.95c5-0.16,8.25-0.04,11.12,0.68" transform="matrix(1,0,0,1,1696,-4)" class="stroke_order_diagram--existing_path"></path><path id="pathSk2v596cn1psz" kvg:type="㇑" d="M35.03,74.06c0.83,0.83,1.22,1.81,1.53,3.08c0.36,1.48,1.77,11.04,2.58,16.59c0.34,2.28,0.57,3.88,0.57,3.97" transform="matrix(1,0,0,1,1696,-4)" class="stroke_order_diagram--existing_path"></path><path id="kvg:097ff-s18" kvg:type="㇕a" d="M37.2,75.12c6.05-0.87,29.84-3.59,32.53-3.46c2.02,0.09,3.77,0.84,3.41,3.6c-0.08,0.64-1.47,9.6-2.44,15.78c-0.25,1.6-0.49,3.04-0.69,4.15" transform="matrix(1,0,0,1,1696,-4)" class="stroke_order_diagram--current_path"></path><path id="pathSk2v596cn1pt1" kvg:type="㇕a" d="M37.2,75.12c6.05-0.87,29.84-3.59,32.53-3.46c2.02,0.09,3.77,0.84,3.41,3.6c-0.08,0.64-1.47,9.6-2.44,15.78c-0.25,1.6-0.49,3.04-0.69,4.15" transform="matrix(1,0,0,1,1696,-4)" class="stroke_order_diagram--current_path"></path><circle cx="37.2" cy="75.12" r="8" class="stroke_order_diagram--path_start" transform="matrix(1,0,0,1,1696,-4)"></circle><line x1="1850" x2="1850" y1="1" y2="99" class="stroke_order_diagram--guide_line"></line><line x1="1899" x2="1899" y1="1" y2="99" class="stroke_order_diagram--bounding_box"></line><path id="pathSk2v596cn1pt4" kvg:type="㇜" d="M25.25,11.87c0.32,0.83,0.36,1.9-0.16,2.85c-2.18,4.02-4.34,6.28-6.32,8.35c-0.52,0.54-0.34,1.36,0.27,1.61c3.09,1.32,3.34,1.32,6.2,2.99" transform="matrix(1,0,0,1,1796,-4)" class="stroke_order_diagram--existing_path"></path><path id="pathSk2v596cn1pt5" kvg:type="㇜" d="M34.65,17.65c0.35,0.98,0.23,2.1-0.45,2.91c-3.15,3.76-9.82,10.26-15.45,14.94c-2.21,1.84-2.18,3.77,1.17,2.72c5.08-1.59,7.71-2.34,13.56-3.55" transform="matrix(1,0,0,1,1796,-4)" class="stroke_order_diagram--existing_path"></path><path id="pathSk2v596cn1pt6" kvg:type="㇒/㇔" d="M35.44,29.22c0.22,0.31,0.58,1.46,0.4,2.25C34.5,37.25,30.75,45,21.21,52.51" transform="matrix(1,0,0,1,1796,-4)" class="stroke_order_diagram--existing_path"></path><path id="pathSk2v596cn1pt7" kvg:type="㇕" d="M42.61,14.18c1.39,0.57,3.41,0.69,5.13,0.5c3.64-0.4,9.91-1.05,12.52-1.34c3.06-0.35,4.24-0.11,3.72,3.01c-0.52,3.14-0.71,6.86-1.46,10.65c-0.2,1.01-0.41,2.02-0.64,3.03" transform="matrix(1,0,0,1,1796,-4)" class="stroke_order_diagram--existing_path"></path><path id="pathSk2v596cn1pt8" kvg:type="㇐a" d="M45.87,22.3c4.63-0.43,11.38-1.3,16.02-1.65" transform="matrix(1,0,0,1,1796,-4)" class="stroke_order_diagram--existing_path"></path><path id="pathSk2v596cn1pt9" kvg:type="㇐a" d="M45.78,30.09c4.85-0.59,10.47-1.21,15.5-1.53" transform="matrix(1,0,0,1,1796,-4)" class="stroke_order_diagram--existing_path"></path><path id="pathSk2v596cn1pta" kvg:type="㇙" d="M43.61,15.18c0.73,0.73,0.96,1.82,0.96,2.85c0,4.34-0.08,20.23-0.08,23.97c0,1.38,0.5,1.88,2.16,1.15c2-0.88,7.85-3.78,11.92-5.33" transform="matrix(1,0,0,1,1796,-4)" class="stroke_order_diagram--existing_path"></path><path id="pathSk2v596cn1ptb" kvg:type="㇔" d="M56.75,33.65c2.28,1.71,5.87,6.29,7.17,9.91" transform="matrix(1,0,0,1,1796,-4)" class="stroke_order_diagram--existing_path"></path><path id="pathSk2v596cn1ptc" kvg:type="㇇" d="M72.39,13.71c1.36,0.29,2.41,0.31,3.35,0.21c4.75-0.49,8.68-0.98,10.95-1.46c2.72-0.58,3.84,1.59,2.98,3.2c-1.18,2.22-2.68,4.09-6.47,9.07" transform="matrix(1,0,0,1,1796,-4)" class="stroke_order_diagram--existing_path"></path><path id="pathSk2v596cn1ptd" kvg:type="㇕va" d="M83.21,24.72C94.75,32.5,90,47.38,81.97,41.68" transform="matrix(1,0,0,1,1796,-4)" class="stroke_order_diagram--existing_path"></path><path id="pathSk2v596cn1pte" kvg:type="㇑" d="M73.51,14.64c0.93,0.93,1.28,1.99,1.28,3.15c0,2.69-0.03,13.72-0.04,23.09c0,1.82,0,3.52,0,5" transform="matrix(1,0,0,1,1796,-4)" class="stroke_order_diagram--existing_path"></path><path id="pathSk2v596cn1ptf" kvg:type="㇑a" d="M52.79,45.5c0.85,0.86,1.22,2,1.22,3.09c0,0.91-0.01,3.01-0.01,4.04" transform="matrix(1,0,0,1,1796,-4)" class="stroke_order_diagram--existing_path"></path><path id="pathSk2v596cn1ptg" kvg:type="㇐" d="M31.59,55.21c2.28,0.41,4.24,0.16,6.54-0.1c6.42-0.72,20.55-2.25,32.74-3.09c2.19-0.15,4.12,0.1,6.3,0.45" transform="matrix(1,0,0,1,1796,-4)" class="stroke_order_diagram--existing_path"></path><path id="pathSk2v596cn1pth" kvg:type="㇔" d="M39.38,57c2.42,2.56,2.91,5.02,3.26,6.82" transform="matrix(1,0,0,1,1796,-4)" class="stroke_order_diagram--existing_path"></path><path id="pathSk2v596cn1pti" kvg:type="㇒" d="M66.35,55.4c0.1,0.55-0.1,1.31-0.19,1.5c-0.92,1.91-2.1,4.01-2.78,5.1" transform="matrix(1,0,0,1,1796,-4)" class="stroke_order_diagram--existing_path"></path><path id="pathSk2v596cn1ptj" kvg:type="㇐" d="M16.25,68.2c3.25,0.67,6.42,0.67,9.37,0.29c20.25-2.61,39.04-4.37,57-4.95c5-0.16,8.25-0.04,11.12,0.68" transform="matrix(1,0,0,1,1796,-4)" class="stroke_order_diagram--existing_path"></path><path id="pathSk2v596cn1ptk" kvg:type="㇑" d="M35.03,74.06c0.83,0.83,1.22,1.81,1.53,3.08c0.36,1.48,1.77,11.04,2.58,16.59c0.34,2.28,0.57,3.88,0.57,3.97" transform="matrix(1,0,0,1,1796,-4)" class="stroke_order_diagram--existing_path"></path><path id="pathSk2v596cn1ptl" kvg:type="㇕a" d="M37.2,75.12c6.05-0.87,29.84-3.59,32.53-3.46c2.02,0.09,3.77,0.84,3.41,3.6c-0.08,0.64-1.47,9.6-2.44,15.78c-0.25,1.6-0.49,3.04-0.69,4.15" transform="matrix(1,0,0,1,1796,-4)" class="stroke_order_diagram--existing_path"></path><path id="kvg:097ff-s19" kvg:type="㇐a" d="M38.73,84.32c8.52-0.7,24.02-2.2,32.34-2.6" transform="matrix(1,0,0,1,1796,-4)" class="stroke_order_diagram--current_path"></path><path id="pathSk2v596cn1ptn" kvg:type="㇐a" d="M38.73,84.32c8.52-0.7,24.02-2.2,32.34-2.6" transform="matrix(1,0,0,1,1796,-4)" class="stroke_order_diagram--current_path"></path><circle cx="38.73" cy="84.32" r="8" class="stroke_order_diagram--path_start" transform="matrix(1,0,0,1,1796,-4)"></circle><line x1="1950" x2="1950" y1="1" y2="99" class="stroke_order_diagram--guide_line"></line><line x1="1999" x2="1999" y1="1" y2="99" class="stroke_order_diagram--bounding_box"></line><path id="pathSk2v596cn1ptq" kvg:type="㇜" d="M25.25,11.87c0.32,0.83,0.36,1.9-0.16,2.85c-2.18,4.02-4.34,6.28-6.32,8.35c-0.52,0.54-0.34,1.36,0.27,1.61c3.09,1.32,3.34,1.32,6.2,2.99" transform="matrix(1,0,0,1,1896,-4)" class="stroke_order_diagram--existing_path"></path><path id="pathSk2v596cn1ptr" kvg:type="㇜" d="M34.65,17.65c0.35,0.98,0.23,2.1-0.45,2.91c-3.15,3.76-9.82,10.26-15.45,14.94c-2.21,1.84-2.18,3.77,1.17,2.72c5.08-1.59,7.71-2.34,13.56-3.55" transform="matrix(1,0,0,1,1896,-4)" class="stroke_order_diagram--existing_path"></path><path id="pathSk2v596cn1pts" kvg:type="㇒/㇔" d="M35.44,29.22c0.22,0.31,0.58,1.46,0.4,2.25C34.5,37.25,30.75,45,21.21,52.51" transform="matrix(1,0,0,1,1896,-4)" class="stroke_order_diagram--existing_path"></path><path id="pathSk2v596cn1ptt" kvg:type="㇕" d="M42.61,14.18c1.39,0.57,3.41,0.69,5.13,0.5c3.64-0.4,9.91-1.05,12.52-1.34c3.06-0.35,4.24-0.11,3.72,3.01c-0.52,3.14-0.71,6.86-1.46,10.65c-0.2,1.01-0.41,2.02-0.64,3.03" transform="matrix(1,0,0,1,1896,-4)" class="stroke_order_diagram--existing_path"></path><path id="pathSk2v596cn1ptu" kvg:type="㇐a" d="M45.87,22.3c4.63-0.43,11.38-1.3,16.02-1.65" transform="matrix(1,0,0,1,1896,-4)" class="stroke_order_diagram--existing_path"></path><path id="pathSk2v596cn1ptv" kvg:type="㇐a" d="M45.78,30.09c4.85-0.59,10.47-1.21,15.5-1.53" transform="matrix(1,0,0,1,1896,-4)" class="stroke_order_diagram--existing_path"></path><path id="pathSk2v596cn1ptw" kvg:type="㇙" d="M43.61,15.18c0.73,0.73,0.96,1.82,0.96,2.85c0,4.34-0.08,20.23-0.08,23.97c0,1.38,0.5,1.88,2.16,1.15c2-0.88,7.85-3.78,11.92-5.33" transform="matrix(1,0,0,1,1896,-4)" class="stroke_order_diagram--existing_path"></path><path id="pathSk2v596cn1ptx" kvg:type="㇔" d="M56.75,33.65c2.28,1.71,5.87,6.29,7.17,9.91" transform="matrix(1,0,0,1,1896,-4)" class="stroke_order_diagram--existing_path"></path><path id="pathSk2v596cn1pty" kvg:type="㇇" d="M72.39,13.71c1.36,0.29,2.41,0.31,3.35,0.21c4.75-0.49,8.68-0.98,10.95-1.46c2.72-0.58,3.84,1.59,2.98,3.2c-1.18,2.22-2.68,4.09-6.47,9.07" transform="matrix(1,0,0,1,1896,-4)" class="stroke_order_diagram--existing_path"></path><path id="pathSk2v596cn1ptz" kvg:type="㇕va" d="M83.21,24.72C94.75,32.5,90,47.38,81.97,41.68" transform="matrix(1,0,0,1,1896,-4)" class="stroke_order_diagram--existing_path"></path><path id="pathSk2v596cn1pu0" kvg:type="㇑" d="M73.51,14.64c0.93,0.93,1.28,1.99,1.28,3.15c0,2.69-0.03,13.72-0.04,23.09c0,1.82,0,3.52,0,5" transform="matrix(1,0,0,1,1896,-4)" class="stroke_order_diagram--existing_path"></path><path id="pathSk2v596cn1pu1" kvg:type="㇑a" d="M52.79,45.5c0.85,0.86,1.22,2,1.22,3.09c0,0.91-0.01,3.01-0.01,4.04" transform="matrix(1,0,0,1,1896,-4)" class="stroke_order_diagram--existing_path"></path><path id="pathSk2v596cn1pu2" kvg:type="㇐" d="M31.59,55.21c2.28,0.41,4.24,0.16,6.54-0.1c6.42-0.72,20.55-2.25,32.74-3.09c2.19-0.15,4.12,0.1,6.3,0.45" transform="matrix(1,0,0,1,1896,-4)" class="stroke_order_diagram--existing_path"></path><path id="pathSk2v596cn1pu3" kvg:type="㇔" d="M39.38,57c2.42,2.56,2.91,5.02,3.26,6.82" transform="matrix(1,0,0,1,1896,-4)" class="stroke_order_diagram--existing_path"></path><path id="pathSk2v596cn1pu4" kvg:type="㇒" d="M66.35,55.4c0.1,0.55-0.1,1.31-0.19,1.5c-0.92,1.91-2.1,4.01-2.78,5.1" transform="matrix(1,0,0,1,1896,-4)" class="stroke_order_diagram--existing_path"></path><path id="pathSk2v596cn1pu5" kvg:type="㇐" d="M16.25,68.2c3.25,0.67,6.42,0.67,9.37,0.29c20.25-2.61,39.04-4.37,57-4.95c5-0.16,8.25-0.04,11.12,0.68" transform="matrix(1,0,0,1,1896,-4)" class="stroke_order_diagram--existing_path"></path><path id="pathSk2v596cn1pu6" kvg:type="㇑" d="M35.03,74.06c0.83,0.83,1.22,1.81,1.53,3.08c0.36,1.48,1.77,11.04,2.58,16.59c0.34,2.28,0.57,3.88,0.57,3.97" transform="matrix(1,0,0,1,1896,-4)" class="stroke_order_diagram--existing_path"></path><path id="pathSk2v596cn1pu7" kvg:type="㇕a" d="M37.2,75.12c6.05-0.87,29.84-3.59,32.53-3.46c2.02,0.09,3.77,0.84,3.41,3.6c-0.08,0.64-1.47,9.6-2.44,15.78c-0.25,1.6-0.49,3.04-0.69,4.15" transform="matrix(1,0,0,1,1896,-4)" class="stroke_order_diagram--existing_path"></path><path id="pathSk2v596cn1pu8" kvg:type="㇐a" d="M38.73,84.32c8.52-0.7,24.02-2.2,32.34-2.6" transform="matrix(1,0,0,1,1896,-4)" class="stroke_order_diagram--existing_path"></path><path id="kvg:097ff-s20" kvg:type="㇐a" d="M40.2,94.88c7.42-0.5,18.67-1.63,29.02-2.2" transform="matrix(1,0,0,1,1896,-4)" class="stroke_order_diagram--current_path"></path><path id="pathSk2v596cn1pua" kvg:type="㇐a" d="M40.2,94.88c7.42-0.5,18.67-1.63,29.02-2.2" transform="matrix(1,0,0,1,1896,-4)" class="stroke_order_diagram--current_path"></path><circle cx="40.2" cy="94.88" r="8" class="stroke_order_diagram--path_start" transform="matrix(1,0,0,1,1896,-4)"></circle></svg>