<svg style="width: 1300px; height: 100px;" viewbox="0 0 1300 100"><style>
.stroke_order_diagram--outer_container {
  width: 100%;
  overflow-x: auto;
  overflow-y: hidden;
}

.stroke_order_diagram--guide_line {
  fill: none;
  stroke: #ddd;
  stroke-width: 3;
  stroke-linecap: square;
  stroke-linejoin: square;
  stroke-dasharray:8, 8;
}

.stroke_order_diagram--bounding_box {
  fill: none;
  stroke: #ddd;
  stroke-width: 4;
  stroke-linecap: square;
  stroke-linejoin: square;
}

.stroke_order_diagram--current_path {
  fill: none;
  stroke: #000;
  stroke-width: 6;
  stroke-linecap: round;
  stroke-linejoin: round;
}

.stroke_order_diagram--existing_path {
  fill: none;
  stroke: #aaa;
  stroke-width: 6;
  stroke-linecap: round;
  stroke-linejoin:round;
}

.stroke_order_diagram--path_start {
  fill: rgba(255, 0, 0, 0.7);
  stroke:none
}</style><desc>Created with Snap</desc><defs></defs><line x1="1" x2="1299" y1="1" y2="1" class="stroke_order_diagram--bounding_box"></line><line x1="1" x2="1" y1="1" y2="99" class="stroke_order_diagram--bounding_box"></line><line x1="1" x2="1299" y1="99" y2="99" class="stroke_order_diagram--bounding_box"></line><line x1="0" x2="1300" y1="50" y2="50" class="stroke_order_diagram--guide_line"></line><line x1="50" x2="50" y1="1" y2="99" class="stroke_order_diagram--guide_line"></line><line x1="99" x2="99" y1="1" y2="99" class="stroke_order_diagram--bounding_box"></line><path id="kvg:09811-s1" kvg:type="㇐" d="M16.48,22.46c1.52,0.41,3.66,0.19,4.91,0.07c4.98-0.49,12.18-1.62,18.09-2.27c1.69-0.19,3.85-0.37,5.49,0.21" transform="matrix(1,0,0,1,-4,-4)" class="stroke_order_diagram--current_path"></path><path id="pathSk2v596cnv1w" kvg:type="㇐" d="M16.48,22.46c1.52,0.41,3.66,0.19,4.91,0.07c4.98-0.49,12.18-1.62,18.09-2.27c1.69-0.19,3.85-0.37,5.49,0.21" transform="matrix(1,0,0,1,-4,-4)" class="stroke_order_diagram--current_path"></path><circle cx="16.48" cy="22.46" r="8" class="stroke_order_diagram--path_start" transform="matrix(1,0,0,1,-4,-4)"></circle><line x1="150" x2="150" y1="1" y2="99" class="stroke_order_diagram--guide_line"></line><line x1="199" x2="199" y1="1" y2="99" class="stroke_order_diagram--bounding_box"></line><path id="pathSk2v596cnv1z" kvg:type="㇐" d="M16.48,22.46c1.52,0.41,3.66,0.19,4.91,0.07c4.98-0.49,12.18-1.62,18.09-2.27c1.69-0.19,3.85-0.37,5.49,0.21" transform="matrix(1,0,0,1,96,-4)" class="stroke_order_diagram--existing_path"></path><path id="kvg:09811-s2" kvg:type="㇐" d="M12.05,44.68c1.95,0.32,3.8,0.11,5.44-0.11c7.57-1.02,20.6-3.31,28.38-4.37c1.97-0.27,3.86-0.64,5.78,0.06" transform="matrix(1,0,0,1,96,-4)" class="stroke_order_diagram--current_path"></path><path id="pathSk2v596cnv21" kvg:type="㇐" d="M12.05,44.68c1.95,0.32,3.8,0.11,5.44-0.11c7.57-1.02,20.6-3.31,28.38-4.37c1.97-0.27,3.86-0.64,5.78,0.06" transform="matrix(1,0,0,1,96,-4)" class="stroke_order_diagram--current_path"></path><circle cx="12.05" cy="44.68" r="8" class="stroke_order_diagram--path_start" transform="matrix(1,0,0,1,96,-4)"></circle><line x1="250" x2="250" y1="1" y2="99" class="stroke_order_diagram--guide_line"></line><line x1="299" x2="299" y1="1" y2="99" class="stroke_order_diagram--bounding_box"></line><path id="pathSk2v596cnv24" kvg:type="㇐" d="M16.48,22.46c1.52,0.41,3.66,0.19,4.91,0.07c4.98-0.49,12.18-1.62,18.09-2.27c1.69-0.19,3.85-0.37,5.49,0.21" transform="matrix(1,0,0,1,196,-4)" class="stroke_order_diagram--existing_path"></path><path id="pathSk2v596cnv25" kvg:type="㇐" d="M12.05,44.68c1.95,0.32,3.8,0.11,5.44-0.11c7.57-1.02,20.6-3.31,28.38-4.37c1.97-0.27,3.86-0.64,5.78,0.06" transform="matrix(1,0,0,1,196,-4)" class="stroke_order_diagram--existing_path"></path><path id="kvg:09811-s3" kvg:type="㇒" d="M24.09,46.19c0.92,0.92,1.25,2.29,1.19,3.86C24.75,66.25,22.62,82.12,12.5,93" transform="matrix(1,0,0,1,196,-4)" class="stroke_order_diagram--current_path"></path><path id="pathSk2v596cnv27" kvg:type="㇒" d="M24.09,46.19c0.92,0.92,1.25,2.29,1.19,3.86C24.75,66.25,22.62,82.12,12.5,93" transform="matrix(1,0,0,1,196,-4)" class="stroke_order_diagram--current_path"></path><circle cx="24.09" cy="46.19" r="8" class="stroke_order_diagram--path_start" transform="matrix(1,0,0,1,196,-4)"></circle><line x1="350" x2="350" y1="1" y2="99" class="stroke_order_diagram--guide_line"></line><line x1="399" x2="399" y1="1" y2="99" class="stroke_order_diagram--bounding_box"></line><path id="pathSk2v596cnv2a" kvg:type="㇐" d="M16.48,22.46c1.52,0.41,3.66,0.19,4.91,0.07c4.98-0.49,12.18-1.62,18.09-2.27c1.69-0.19,3.85-0.37,5.49,0.21" transform="matrix(1,0,0,1,296,-4)" class="stroke_order_diagram--existing_path"></path><path id="pathSk2v596cnv2b" kvg:type="㇐" d="M12.05,44.68c1.95,0.32,3.8,0.11,5.44-0.11c7.57-1.02,20.6-3.31,28.38-4.37c1.97-0.27,3.86-0.64,5.78,0.06" transform="matrix(1,0,0,1,296,-4)" class="stroke_order_diagram--existing_path"></path><path id="pathSk2v596cnv2c" kvg:type="㇒" d="M24.09,46.19c0.92,0.92,1.25,2.29,1.19,3.86C24.75,66.25,22.62,82.12,12.5,93" transform="matrix(1,0,0,1,296,-4)" class="stroke_order_diagram--existing_path"></path><path id="kvg:09811-s4" kvg:type="㇙/㇟" d="M36.13,44.7c1.02,1.02,1.5,2.43,1.5,4.22c0,10.11,0.12,31.21,0.12,36.46c0,4.75,1.5,5.38,4.75,1.88c3.27-3.52,4.75-5.75,8.22-10.01" transform="matrix(1,0,0,1,296,-4)" class="stroke_order_diagram--current_path"></path><path id="pathSk2v596cnv2e" kvg:type="㇙/㇟" d="M36.13,44.7c1.02,1.02,1.5,2.43,1.5,4.22c0,10.11,0.12,31.21,0.12,36.46c0,4.75,1.5,5.38,4.75,1.88c3.27-3.52,4.75-5.75,8.22-10.01" transform="matrix(1,0,0,1,296,-4)" class="stroke_order_diagram--current_path"></path><circle cx="36.13" cy="44.7" r="8" class="stroke_order_diagram--path_start" transform="matrix(1,0,0,1,296,-4)"></circle><line x1="450" x2="450" y1="1" y2="99" class="stroke_order_diagram--guide_line"></line><line x1="499" x2="499" y1="1" y2="99" class="stroke_order_diagram--bounding_box"></line><path id="pathSk2v596cnv2h" kvg:type="㇐" d="M16.48,22.46c1.52,0.41,3.66,0.19,4.91,0.07c4.98-0.49,12.18-1.62,18.09-2.27c1.69-0.19,3.85-0.37,5.49,0.21" transform="matrix(1,0,0,1,396,-4)" class="stroke_order_diagram--existing_path"></path><path id="pathSk2v596cnv2i" kvg:type="㇐" d="M12.05,44.68c1.95,0.32,3.8,0.11,5.44-0.11c7.57-1.02,20.6-3.31,28.38-4.37c1.97-0.27,3.86-0.64,5.78,0.06" transform="matrix(1,0,0,1,396,-4)" class="stroke_order_diagram--existing_path"></path><path id="pathSk2v596cnv2j" kvg:type="㇒" d="M24.09,46.19c0.92,0.92,1.25,2.29,1.19,3.86C24.75,66.25,22.62,82.12,12.5,93" transform="matrix(1,0,0,1,396,-4)" class="stroke_order_diagram--existing_path"></path><path id="pathSk2v596cnv2k" kvg:type="㇙/㇟" d="M36.13,44.7c1.02,1.02,1.5,2.43,1.5,4.22c0,10.11,0.12,31.21,0.12,36.46c0,4.75,1.5,5.38,4.75,1.88c3.27-3.52,4.75-5.75,8.22-10.01" transform="matrix(1,0,0,1,396,-4)" class="stroke_order_diagram--existing_path"></path><path id="kvg:09811-s5" kvg:type="㇐" d="M55.81,20.53c2.23,0.25,4.35,0.14,6.56-0.09c10.53-1.12,19.42-3.05,28.01-3.61c2.17-0.14,5.06-0.63,7.13,0.21" transform="matrix(1,0,0,1,396,-4)" class="stroke_order_diagram--current_path"></path><path id="pathSk2v596cnv2m" kvg:type="㇐" d="M55.81,20.53c2.23,0.25,4.35,0.14,6.56-0.09c10.53-1.12,19.42-3.05,28.01-3.61c2.17-0.14,5.06-0.63,7.13,0.21" transform="matrix(1,0,0,1,396,-4)" class="stroke_order_diagram--current_path"></path><circle cx="55.81" cy="20.53" r="8" class="stroke_order_diagram--path_start" transform="matrix(1,0,0,1,396,-4)"></circle><line x1="550" x2="550" y1="1" y2="99" class="stroke_order_diagram--guide_line"></line><line x1="599" x2="599" y1="1" y2="99" class="stroke_order_diagram--bounding_box"></line><path id="pathSk2v596cnv2p" kvg:type="㇐" d="M16.48,22.46c1.52,0.41,3.66,0.19,4.91,0.07c4.98-0.49,12.18-1.62,18.09-2.27c1.69-0.19,3.85-0.37,5.49,0.21" transform="matrix(1,0,0,1,496,-4)" class="stroke_order_diagram--existing_path"></path><path id="pathSk2v596cnv2q" kvg:type="㇐" d="M12.05,44.68c1.95,0.32,3.8,0.11,5.44-0.11c7.57-1.02,20.6-3.31,28.38-4.37c1.97-0.27,3.86-0.64,5.78,0.06" transform="matrix(1,0,0,1,496,-4)" class="stroke_order_diagram--existing_path"></path><path id="pathSk2v596cnv2r" kvg:type="㇒" d="M24.09,46.19c0.92,0.92,1.25,2.29,1.19,3.86C24.75,66.25,22.62,82.12,12.5,93" transform="matrix(1,0,0,1,496,-4)" class="stroke_order_diagram--existing_path"></path><path id="pathSk2v596cnv2s" kvg:type="㇙/㇟" d="M36.13,44.7c1.02,1.02,1.5,2.43,1.5,4.22c0,10.11,0.12,31.21,0.12,36.46c0,4.75,1.5,5.38,4.75,1.88c3.27-3.52,4.75-5.75,8.22-10.01" transform="matrix(1,0,0,1,496,-4)" class="stroke_order_diagram--existing_path"></path><path id="pathSk2v596cnv2t" kvg:type="㇐" d="M55.81,20.53c2.23,0.25,4.35,0.14,6.56-0.09c10.53-1.12,19.42-3.05,28.01-3.61c2.17-0.14,5.06-0.63,7.13,0.21" transform="matrix(1,0,0,1,496,-4)" class="stroke_order_diagram--existing_path"></path><path id="kvg:09811-s6" kvg:type="㇒" d="M72.88,22.01c0.25,0.99,0.12,1.74-0.28,2.6c-1.21,2.59-3.05,5.3-5.1,8.24" transform="matrix(1,0,0,1,496,-4)" class="stroke_order_diagram--current_path"></path><path id="pathSk2v596cnv2v" kvg:type="㇒" d="M72.88,22.01c0.25,0.99,0.12,1.74-0.28,2.6c-1.21,2.59-3.05,5.3-5.1,8.24" transform="matrix(1,0,0,1,496,-4)" class="stroke_order_diagram--current_path"></path><circle cx="72.88" cy="22.01" r="8" class="stroke_order_diagram--path_start" transform="matrix(1,0,0,1,496,-4)"></circle><line x1="650" x2="650" y1="1" y2="99" class="stroke_order_diagram--guide_line"></line><line x1="699" x2="699" y1="1" y2="99" class="stroke_order_diagram--bounding_box"></line><path id="pathSk2v596cnv2y" kvg:type="㇐" d="M16.48,22.46c1.52,0.41,3.66,0.19,4.91,0.07c4.98-0.49,12.18-1.62,18.09-2.27c1.69-0.19,3.85-0.37,5.49,0.21" transform="matrix(1,0,0,1,596,-4)" class="stroke_order_diagram--existing_path"></path><path id="pathSk2v596cnv2z" kvg:type="㇐" d="M12.05,44.68c1.95,0.32,3.8,0.11,5.44-0.11c7.57-1.02,20.6-3.31,28.38-4.37c1.97-0.27,3.86-0.64,5.78,0.06" transform="matrix(1,0,0,1,596,-4)" class="stroke_order_diagram--existing_path"></path><path id="pathSk2v596cnv30" kvg:type="㇒" d="M24.09,46.19c0.92,0.92,1.25,2.29,1.19,3.86C24.75,66.25,22.62,82.12,12.5,93" transform="matrix(1,0,0,1,596,-4)" class="stroke_order_diagram--existing_path"></path><path id="pathSk2v596cnv31" kvg:type="㇙/㇟" d="M36.13,44.7c1.02,1.02,1.5,2.43,1.5,4.22c0,10.11,0.12,31.21,0.12,36.46c0,4.75,1.5,5.38,4.75,1.88c3.27-3.52,4.75-5.75,8.22-10.01" transform="matrix(1,0,0,1,596,-4)" class="stroke_order_diagram--existing_path"></path><path id="pathSk2v596cnv32" kvg:type="㇐" d="M55.81,20.53c2.23,0.25,4.35,0.14,6.56-0.09c10.53-1.12,19.42-3.05,28.01-3.61c2.17-0.14,5.06-0.63,7.13,0.21" transform="matrix(1,0,0,1,596,-4)" class="stroke_order_diagram--existing_path"></path><path id="pathSk2v596cnv33" kvg:type="㇒" d="M72.88,22.01c0.25,0.99,0.12,1.74-0.28,2.6c-1.21,2.59-3.05,5.3-5.1,8.24" transform="matrix(1,0,0,1,596,-4)" class="stroke_order_diagram--existing_path"></path><path id="kvg:09811-s7" kvg:type="㇑" d="M59.81,34.08c0.44,0.67,1.09,1.92,1.08,3.31c0,0.73,0.06,21.19,0.08,33.73c0,2.33,0.01,4.39,0.01,6" transform="matrix(1,0,0,1,596,-4)" class="stroke_order_diagram--current_path"></path><path id="pathSk2v596cnv35" kvg:type="㇑" d="M59.81,34.08c0.44,0.67,1.09,1.92,1.08,3.31c0,0.73,0.06,21.19,0.08,33.73c0,2.33,0.01,4.39,0.01,6" transform="matrix(1,0,0,1,596,-4)" class="stroke_order_diagram--current_path"></path><circle cx="59.81" cy="34.08" r="8" class="stroke_order_diagram--path_start" transform="matrix(1,0,0,1,596,-4)"></circle><line x1="750" x2="750" y1="1" y2="99" class="stroke_order_diagram--guide_line"></line><line x1="799" x2="799" y1="1" y2="99" class="stroke_order_diagram--bounding_box"></line><path id="pathSk2v596cnv38" kvg:type="㇐" d="M16.48,22.46c1.52,0.41,3.66,0.19,4.91,0.07c4.98-0.49,12.18-1.62,18.09-2.27c1.69-0.19,3.85-0.37,5.49,0.21" transform="matrix(1,0,0,1,696,-4)" class="stroke_order_diagram--existing_path"></path><path id="pathSk2v596cnv39" kvg:type="㇐" d="M12.05,44.68c1.95,0.32,3.8,0.11,5.44-0.11c7.57-1.02,20.6-3.31,28.38-4.37c1.97-0.27,3.86-0.64,5.78,0.06" transform="matrix(1,0,0,1,696,-4)" class="stroke_order_diagram--existing_path"></path><path id="pathSk2v596cnv3a" kvg:type="㇒" d="M24.09,46.19c0.92,0.92,1.25,2.29,1.19,3.86C24.75,66.25,22.62,82.12,12.5,93" transform="matrix(1,0,0,1,696,-4)" class="stroke_order_diagram--existing_path"></path><path id="pathSk2v596cnv3b" kvg:type="㇙/㇟" d="M36.13,44.7c1.02,1.02,1.5,2.43,1.5,4.22c0,10.11,0.12,31.21,0.12,36.46c0,4.75,1.5,5.38,4.75,1.88c3.27-3.52,4.75-5.75,8.22-10.01" transform="matrix(1,0,0,1,696,-4)" class="stroke_order_diagram--existing_path"></path><path id="pathSk2v596cnv3c" kvg:type="㇐" d="M55.81,20.53c2.23,0.25,4.35,0.14,6.56-0.09c10.53-1.12,19.42-3.05,28.01-3.61c2.17-0.14,5.06-0.63,7.13,0.21" transform="matrix(1,0,0,1,696,-4)" class="stroke_order_diagram--existing_path"></path><path id="pathSk2v596cnv3d" kvg:type="㇒" d="M72.88,22.01c0.25,0.99,0.12,1.74-0.28,2.6c-1.21,2.59-3.05,5.3-5.1,8.24" transform="matrix(1,0,0,1,696,-4)" class="stroke_order_diagram--existing_path"></path><path id="pathSk2v596cnv3e" kvg:type="㇑" d="M59.81,34.08c0.44,0.67,1.09,1.92,1.08,3.31c0,0.73,0.06,21.19,0.08,33.73c0,2.33,0.01,4.39,0.01,6" transform="matrix(1,0,0,1,696,-4)" class="stroke_order_diagram--existing_path"></path><path id="kvg:09811-s8" kvg:type="㇕a" d="M62.16,35.14c5.09-0.52,20.34-2.39,24.67-2.66c1.93-0.12,3.27,0.89,3.27,3.52c0,1.41-0.02,23.21-0.02,36.12c0,2.01,0,3.8,0,5.27" transform="matrix(1,0,0,1,696,-4)" class="stroke_order_diagram--current_path"></path><path id="pathSk2v596cnv3g" kvg:type="㇕a" d="M62.16,35.14c5.09-0.52,20.34-2.39,24.67-2.66c1.93-0.12,3.27,0.89,3.27,3.52c0,1.41-0.02,23.21-0.02,36.12c0,2.01,0,3.8,0,5.27" transform="matrix(1,0,0,1,696,-4)" class="stroke_order_diagram--current_path"></path><circle cx="62.16" cy="35.14" r="8" class="stroke_order_diagram--path_start" transform="matrix(1,0,0,1,696,-4)"></circle><line x1="850" x2="850" y1="1" y2="99" class="stroke_order_diagram--guide_line"></line><line x1="899" x2="899" y1="1" y2="99" class="stroke_order_diagram--bounding_box"></line><path id="pathSk2v596cnv3j" kvg:type="㇐" d="M16.48,22.46c1.52,0.41,3.66,0.19,4.91,0.07c4.98-0.49,12.18-1.62,18.09-2.27c1.69-0.19,3.85-0.37,5.49,0.21" transform="matrix(1,0,0,1,796,-4)" class="stroke_order_diagram--existing_path"></path><path id="pathSk2v596cnv3k" kvg:type="㇐" d="M12.05,44.68c1.95,0.32,3.8,0.11,5.44-0.11c7.57-1.02,20.6-3.31,28.38-4.37c1.97-0.27,3.86-0.64,5.78,0.06" transform="matrix(1,0,0,1,796,-4)" class="stroke_order_diagram--existing_path"></path><path id="pathSk2v596cnv3l" kvg:type="㇒" d="M24.09,46.19c0.92,0.92,1.25,2.29,1.19,3.86C24.75,66.25,22.62,82.12,12.5,93" transform="matrix(1,0,0,1,796,-4)" class="stroke_order_diagram--existing_path"></path><path id="pathSk2v596cnv3m" kvg:type="㇙/㇟" d="M36.13,44.7c1.02,1.02,1.5,2.43,1.5,4.22c0,10.11,0.12,31.21,0.12,36.46c0,4.75,1.5,5.38,4.75,1.88c3.27-3.52,4.75-5.75,8.22-10.01" transform="matrix(1,0,0,1,796,-4)" class="stroke_order_diagram--existing_path"></path><path id="pathSk2v596cnv3n" kvg:type="㇐" d="M55.81,20.53c2.23,0.25,4.35,0.14,6.56-0.09c10.53-1.12,19.42-3.05,28.01-3.61c2.17-0.14,5.06-0.63,7.13,0.21" transform="matrix(1,0,0,1,796,-4)" class="stroke_order_diagram--existing_path"></path><path id="pathSk2v596cnv3o" kvg:type="㇒" d="M72.88,22.01c0.25,0.99,0.12,1.74-0.28,2.6c-1.21,2.59-3.05,5.3-5.1,8.24" transform="matrix(1,0,0,1,796,-4)" class="stroke_order_diagram--existing_path"></path><path id="pathSk2v596cnv3p" kvg:type="㇑" d="M59.81,34.08c0.44,0.67,1.09,1.92,1.08,3.31c0,0.73,0.06,21.19,0.08,33.73c0,2.33,0.01,4.39,0.01,6" transform="matrix(1,0,0,1,796,-4)" class="stroke_order_diagram--existing_path"></path><path id="pathSk2v596cnv3q" kvg:type="㇕a" d="M62.16,35.14c5.09-0.52,20.34-2.39,24.67-2.66c1.93-0.12,3.27,0.89,3.27,3.52c0,1.41-0.02,23.21-0.02,36.12c0,2.01,0,3.8,0,5.27" transform="matrix(1,0,0,1,796,-4)" class="stroke_order_diagram--existing_path"></path><path id="kvg:09811-s9" kvg:type="㇐a" d="M62.01,47.84c5.61-0.47,20.61-1.84,26.96-1.98" transform="matrix(1,0,0,1,796,-4)" class="stroke_order_diagram--current_path"></path><path id="pathSk2v596cnv3s" kvg:type="㇐a" d="M62.01,47.84c5.61-0.47,20.61-1.84,26.96-1.98" transform="matrix(1,0,0,1,796,-4)" class="stroke_order_diagram--current_path"></path><circle cx="62.01" cy="47.84" r="8" class="stroke_order_diagram--path_start" transform="matrix(1,0,0,1,796,-4)"></circle><line x1="950" x2="950" y1="1" y2="99" class="stroke_order_diagram--guide_line"></line><line x1="999" x2="999" y1="1" y2="99" class="stroke_order_diagram--bounding_box"></line><path id="pathSk2v596cnv3v" kvg:type="㇐" d="M16.48,22.46c1.52,0.41,3.66,0.19,4.91,0.07c4.98-0.49,12.18-1.62,18.09-2.27c1.69-0.19,3.85-0.37,5.49,0.21" transform="matrix(1,0,0,1,896,-4)" class="stroke_order_diagram--existing_path"></path><path id="pathSk2v596cnv3w" kvg:type="㇐" d="M12.05,44.68c1.95,0.32,3.8,0.11,5.44-0.11c7.57-1.02,20.6-3.31,28.38-4.37c1.97-0.27,3.86-0.64,5.78,0.06" transform="matrix(1,0,0,1,896,-4)" class="stroke_order_diagram--existing_path"></path><path id="pathSk2v596cnv3x" kvg:type="㇒" d="M24.09,46.19c0.92,0.92,1.25,2.29,1.19,3.86C24.75,66.25,22.62,82.12,12.5,93" transform="matrix(1,0,0,1,896,-4)" class="stroke_order_diagram--existing_path"></path><path id="pathSk2v596cnv3y" kvg:type="㇙/㇟" d="M36.13,44.7c1.02,1.02,1.5,2.43,1.5,4.22c0,10.11,0.12,31.21,0.12,36.46c0,4.75,1.5,5.38,4.75,1.88c3.27-3.52,4.75-5.75,8.22-10.01" transform="matrix(1,0,0,1,896,-4)" class="stroke_order_diagram--existing_path"></path><path id="pathSk2v596cnv3z" kvg:type="㇐" d="M55.81,20.53c2.23,0.25,4.35,0.14,6.56-0.09c10.53-1.12,19.42-3.05,28.01-3.61c2.17-0.14,5.06-0.63,7.13,0.21" transform="matrix(1,0,0,1,896,-4)" class="stroke_order_diagram--existing_path"></path><path id="pathSk2v596cnv40" kvg:type="㇒" d="M72.88,22.01c0.25,0.99,0.12,1.74-0.28,2.6c-1.21,2.59-3.05,5.3-5.1,8.24" transform="matrix(1,0,0,1,896,-4)" class="stroke_order_diagram--existing_path"></path><path id="pathSk2v596cnv41" kvg:type="㇑" d="M59.81,34.08c0.44,0.67,1.09,1.92,1.08,3.31c0,0.73,0.06,21.19,0.08,33.73c0,2.33,0.01,4.39,0.01,6" transform="matrix(1,0,0,1,896,-4)" class="stroke_order_diagram--existing_path"></path><path id="pathSk2v596cnv42" kvg:type="㇕a" d="M62.16,35.14c5.09-0.52,20.34-2.39,24.67-2.66c1.93-0.12,3.27,0.89,3.27,3.52c0,1.41-0.02,23.21-0.02,36.12c0,2.01,0,3.8,0,5.27" transform="matrix(1,0,0,1,896,-4)" class="stroke_order_diagram--existing_path"></path><path id="pathSk2v596cnv43" kvg:type="㇐a" d="M62.01,47.84c5.61-0.47,20.61-1.84,26.96-1.98" transform="matrix(1,0,0,1,896,-4)" class="stroke_order_diagram--existing_path"></path><path id="kvg:09811-s10" kvg:type="㇐a" d="M62.13,60.63C71,60,79,59.25,89.17,59.03" transform="matrix(1,0,0,1,896,-4)" class="stroke_order_diagram--current_path"></path><path id="pathSk2v596cnv45" kvg:type="㇐a" d="M62.13,60.63C71,60,79,59.25,89.17,59.03" transform="matrix(1,0,0,1,896,-4)" class="stroke_order_diagram--current_path"></path><circle cx="62.13" cy="60.63" r="8" class="stroke_order_diagram--path_start" transform="matrix(1,0,0,1,896,-4)"></circle><line x1="1050" x2="1050" y1="1" y2="99" class="stroke_order_diagram--guide_line"></line><line x1="1099" x2="1099" y1="1" y2="99" class="stroke_order_diagram--bounding_box"></line><path id="pathSk2v596cnv48" kvg:type="㇐" d="M16.48,22.46c1.52,0.41,3.66,0.19,4.91,0.07c4.98-0.49,12.18-1.62,18.09-2.27c1.69-0.19,3.85-0.37,5.49,0.21" transform="matrix(1,0,0,1,996,-4)" class="stroke_order_diagram--existing_path"></path><path id="pathSk2v596cnv49" kvg:type="㇐" d="M12.05,44.68c1.95,0.32,3.8,0.11,5.44-0.11c7.57-1.02,20.6-3.31,28.38-4.37c1.97-0.27,3.86-0.64,5.78,0.06" transform="matrix(1,0,0,1,996,-4)" class="stroke_order_diagram--existing_path"></path><path id="pathSk2v596cnv4a" kvg:type="㇒" d="M24.09,46.19c0.92,0.92,1.25,2.29,1.19,3.86C24.75,66.25,22.62,82.12,12.5,93" transform="matrix(1,0,0,1,996,-4)" class="stroke_order_diagram--existing_path"></path><path id="pathSk2v596cnv4b" kvg:type="㇙/㇟" d="M36.13,44.7c1.02,1.02,1.5,2.43,1.5,4.22c0,10.11,0.12,31.21,0.12,36.46c0,4.75,1.5,5.38,4.75,1.88c3.27-3.52,4.75-5.75,8.22-10.01" transform="matrix(1,0,0,1,996,-4)" class="stroke_order_diagram--existing_path"></path><path id="pathSk2v596cnv4c" kvg:type="㇐" d="M55.81,20.53c2.23,0.25,4.35,0.14,6.56-0.09c10.53-1.12,19.42-3.05,28.01-3.61c2.17-0.14,5.06-0.63,7.13,0.21" transform="matrix(1,0,0,1,996,-4)" class="stroke_order_diagram--existing_path"></path><path id="pathSk2v596cnv4d" kvg:type="㇒" d="M72.88,22.01c0.25,0.99,0.12,1.74-0.28,2.6c-1.21,2.59-3.05,5.3-5.1,8.24" transform="matrix(1,0,0,1,996,-4)" class="stroke_order_diagram--existing_path"></path><path id="pathSk2v596cnv4e" kvg:type="㇑" d="M59.81,34.08c0.44,0.67,1.09,1.92,1.08,3.31c0,0.73,0.06,21.19,0.08,33.73c0,2.33,0.01,4.39,0.01,6" transform="matrix(1,0,0,1,996,-4)" class="stroke_order_diagram--existing_path"></path><path id="pathSk2v596cnv4f" kvg:type="㇕a" d="M62.16,35.14c5.09-0.52,20.34-2.39,24.67-2.66c1.93-0.12,3.27,0.89,3.27,3.52c0,1.41-0.02,23.21-0.02,36.12c0,2.01,0,3.8,0,5.27" transform="matrix(1,0,0,1,996,-4)" class="stroke_order_diagram--existing_path"></path><path id="pathSk2v596cnv4g" kvg:type="㇐a" d="M62.01,47.84c5.61-0.47,20.61-1.84,26.96-1.98" transform="matrix(1,0,0,1,996,-4)" class="stroke_order_diagram--existing_path"></path><path id="pathSk2v596cnv4h" kvg:type="㇐a" d="M62.13,60.63C71,60,79,59.25,89.17,59.03" transform="matrix(1,0,0,1,996,-4)" class="stroke_order_diagram--existing_path"></path><path id="kvg:09811-s11" kvg:type="㇐a" d="M62.68,75.47c5.87-0.48,18.9-1.49,26.3-1.31" transform="matrix(1,0,0,1,996,-4)" class="stroke_order_diagram--current_path"></path><path id="pathSk2v596cnv4j" kvg:type="㇐a" d="M62.68,75.47c5.87-0.48,18.9-1.49,26.3-1.31" transform="matrix(1,0,0,1,996,-4)" class="stroke_order_diagram--current_path"></path><circle cx="62.68" cy="75.47" r="8" class="stroke_order_diagram--path_start" transform="matrix(1,0,0,1,996,-4)"></circle><line x1="1150" x2="1150" y1="1" y2="99" class="stroke_order_diagram--guide_line"></line><line x1="1199" x2="1199" y1="1" y2="99" class="stroke_order_diagram--bounding_box"></line><path id="pathSk2v596cnv4m" kvg:type="㇐" d="M16.48,22.46c1.52,0.41,3.66,0.19,4.91,0.07c4.98-0.49,12.18-1.62,18.09-2.27c1.69-0.19,3.85-0.37,5.49,0.21" transform="matrix(1,0,0,1,1096,-4)" class="stroke_order_diagram--existing_path"></path><path id="pathSk2v596cnv4n" kvg:type="㇐" d="M12.05,44.68c1.95,0.32,3.8,0.11,5.44-0.11c7.57-1.02,20.6-3.31,28.38-4.37c1.97-0.27,3.86-0.64,5.78,0.06" transform="matrix(1,0,0,1,1096,-4)" class="stroke_order_diagram--existing_path"></path><path id="pathSk2v596cnv4o" kvg:type="㇒" d="M24.09,46.19c0.92,0.92,1.25,2.29,1.19,3.86C24.75,66.25,22.62,82.12,12.5,93" transform="matrix(1,0,0,1,1096,-4)" class="stroke_order_diagram--existing_path"></path><path id="pathSk2v596cnv4p" kvg:type="㇙/㇟" d="M36.13,44.7c1.02,1.02,1.5,2.43,1.5,4.22c0,10.11,0.12,31.21,0.12,36.46c0,4.75,1.5,5.38,4.75,1.88c3.27-3.52,4.75-5.75,8.22-10.01" transform="matrix(1,0,0,1,1096,-4)" class="stroke_order_diagram--existing_path"></path><path id="pathSk2v596cnv4q" kvg:type="㇐" d="M55.81,20.53c2.23,0.25,4.35,0.14,6.56-0.09c10.53-1.12,19.42-3.05,28.01-3.61c2.17-0.14,5.06-0.63,7.13,0.21" transform="matrix(1,0,0,1,1096,-4)" class="stroke_order_diagram--existing_path"></path><path id="pathSk2v596cnv4r" kvg:type="㇒" d="M72.88,22.01c0.25,0.99,0.12,1.74-0.28,2.6c-1.21,2.59-3.05,5.3-5.1,8.24" transform="matrix(1,0,0,1,1096,-4)" class="stroke_order_diagram--existing_path"></path><path id="pathSk2v596cnv4s" kvg:type="㇑" d="M59.81,34.08c0.44,0.67,1.09,1.92,1.08,3.31c0,0.73,0.06,21.19,0.08,33.73c0,2.33,0.01,4.39,0.01,6" transform="matrix(1,0,0,1,1096,-4)" class="stroke_order_diagram--existing_path"></path><path id="pathSk2v596cnv4t" kvg:type="㇕a" d="M62.16,35.14c5.09-0.52,20.34-2.39,24.67-2.66c1.93-0.12,3.27,0.89,3.27,3.52c0,1.41-0.02,23.21-0.02,36.12c0,2.01,0,3.8,0,5.27" transform="matrix(1,0,0,1,1096,-4)" class="stroke_order_diagram--existing_path"></path><path id="pathSk2v596cnv4u" kvg:type="㇐a" d="M62.01,47.84c5.61-0.47,20.61-1.84,26.96-1.98" transform="matrix(1,0,0,1,1096,-4)" class="stroke_order_diagram--existing_path"></path><path id="pathSk2v596cnv4v" kvg:type="㇐a" d="M62.13,60.63C71,60,79,59.25,89.17,59.03" transform="matrix(1,0,0,1,1096,-4)" class="stroke_order_diagram--existing_path"></path><path id="pathSk2v596cnv4w" kvg:type="㇐a" d="M62.68,75.47c5.87-0.48,18.9-1.49,26.3-1.31" transform="matrix(1,0,0,1,1096,-4)" class="stroke_order_diagram--existing_path"></path><path id="kvg:09811-s12" kvg:type="㇒" d="M67.31,81.96c0.19,1.16-0.42,2.25-1.27,3.08C62,89,56.5,92.25,51.03,95" transform="matrix(1,0,0,1,1096,-4)" class="stroke_order_diagram--current_path"></path><path id="pathSk2v596cnv4y" kvg:type="㇒" d="M67.31,81.96c0.19,1.16-0.42,2.25-1.27,3.08C62,89,56.5,92.25,51.03,95" transform="matrix(1,0,0,1,1096,-4)" class="stroke_order_diagram--current_path"></path><circle cx="67.31" cy="81.96" r="8" class="stroke_order_diagram--path_start" transform="matrix(1,0,0,1,1096,-4)"></circle><line x1="1250" x2="1250" y1="1" y2="99" class="stroke_order_diagram--guide_line"></line><line x1="1299" x2="1299" y1="1" y2="99" class="stroke_order_diagram--bounding_box"></line><path id="pathSk2v596cnv51" kvg:type="㇐" d="M16.48,22.46c1.52,0.41,3.66,0.19,4.91,0.07c4.98-0.49,12.18-1.62,18.09-2.27c1.69-0.19,3.85-0.37,5.49,0.21" transform="matrix(1,0,0,1,1196,-4)" class="stroke_order_diagram--existing_path"></path><path id="pathSk2v596cnv52" kvg:type="㇐" d="M12.05,44.68c1.95,0.32,3.8,0.11,5.44-0.11c7.57-1.02,20.6-3.31,28.38-4.37c1.97-0.27,3.86-0.64,5.78,0.06" transform="matrix(1,0,0,1,1196,-4)" class="stroke_order_diagram--existing_path"></path><path id="pathSk2v596cnv53" kvg:type="㇒" d="M24.09,46.19c0.92,0.92,1.25,2.29,1.19,3.86C24.75,66.25,22.62,82.12,12.5,93" transform="matrix(1,0,0,1,1196,-4)" class="stroke_order_diagram--existing_path"></path><path id="pathSk2v596cnv54" kvg:type="㇙/㇟" d="M36.13,44.7c1.02,1.02,1.5,2.43,1.5,4.22c0,10.11,0.12,31.21,0.12,36.46c0,4.75,1.5,5.38,4.75,1.88c3.27-3.52,4.75-5.75,8.22-10.01" transform="matrix(1,0,0,1,1196,-4)" class="stroke_order_diagram--existing_path"></path><path id="pathSk2v596cnv55" kvg:type="㇐" d="M55.81,20.53c2.23,0.25,4.35,0.14,6.56-0.09c10.53-1.12,19.42-3.05,28.01-3.61c2.17-0.14,5.06-0.63,7.13,0.21" transform="matrix(1,0,0,1,1196,-4)" class="stroke_order_diagram--existing_path"></path><path id="pathSk2v596cnv56" kvg:type="㇒" d="M72.88,22.01c0.25,0.99,0.12,1.74-0.28,2.6c-1.21,2.59-3.05,5.3-5.1,8.24" transform="matrix(1,0,0,1,1196,-4)" class="stroke_order_diagram--existing_path"></path><path id="pathSk2v596cnv57" kvg:type="㇑" d="M59.81,34.08c0.44,0.67,1.09,1.92,1.08,3.31c0,0.73,0.06,21.19,0.08,33.73c0,2.33,0.01,4.39,0.01,6" transform="matrix(1,0,0,1,1196,-4)" class="stroke_order_diagram--existing_path"></path><path id="pathSk2v596cnv58" kvg:type="㇕a" d="M62.16,35.14c5.09-0.52,20.34-2.39,24.67-2.66c1.93-0.12,3.27,0.89,3.27,3.52c0,1.41-0.02,23.21-0.02,36.12c0,2.01,0,3.8,0,5.27" transform="matrix(1,0,0,1,1196,-4)" class="stroke_order_diagram--existing_path"></path><path id="pathSk2v596cnv59" kvg:type="㇐a" d="M62.01,47.84c5.61-0.47,20.61-1.84,26.96-1.98" transform="matrix(1,0,0,1,1196,-4)" class="stroke_order_diagram--existing_path"></path><path id="pathSk2v596cnv5a" kvg:type="㇐a" d="M62.13,60.63C71,60,79,59.25,89.17,59.03" transform="matrix(1,0,0,1,1196,-4)" class="stroke_order_diagram--existing_path"></path><path id="pathSk2v596cnv5b" kvg:type="㇐a" d="M62.68,75.47c5.87-0.48,18.9-1.49,26.3-1.31" transform="matrix(1,0,0,1,1196,-4)" class="stroke_order_diagram--existing_path"></path><path id="pathSk2v596cnv5c" kvg:type="㇒" d="M67.31,81.96c0.19,1.16-0.42,2.25-1.27,3.08C62,89,56.5,92.25,51.03,95" transform="matrix(1,0,0,1,1196,-4)" class="stroke_order_diagram--existing_path"></path><path id="kvg:09811-s13" kvg:type="㇔" d="M83.5,82.25c5,3.74,10.9,10.24,12.25,13.25" transform="matrix(1,0,0,1,1196,-4)" class="stroke_order_diagram--current_path"></path><path id="pathSk2v596cnv5e" kvg:type="㇔" d="M83.5,82.25c5,3.74,10.9,10.24,12.25,13.25" transform="matrix(1,0,0,1,1196,-4)" class="stroke_order_diagram--current_path"></path><circle cx="83.5" cy="82.25" r="8" class="stroke_order_diagram--path_start" transform="matrix(1,0,0,1,1196,-4)"></circle></svg>