<svg style="width: 1500px; height: 100px;" viewbox="0 0 1500 100"><style>
.stroke_order_diagram--outer_container {
  width: 100%;
  overflow-x: auto;
  overflow-y: hidden;
}

.stroke_order_diagram--guide_line {
  fill: none;
  stroke: #ddd;
  stroke-width: 3;
  stroke-linecap: square;
  stroke-linejoin: square;
  stroke-dasharray:8, 8;
}

.stroke_order_diagram--bounding_box {
  fill: none;
  stroke: #ddd;
  stroke-width: 4;
  stroke-linecap: square;
  stroke-linejoin: square;
}

.stroke_order_diagram--current_path {
  fill: none;
  stroke: #000;
  stroke-width: 6;
  stroke-linecap: round;
  stroke-linejoin: round;
}

.stroke_order_diagram--existing_path {
  fill: none;
  stroke: #aaa;
  stroke-width: 6;
  stroke-linecap: round;
  stroke-linejoin:round;
}

.stroke_order_diagram--path_start {
  fill: rgba(255, 0, 0, 0.7);
  stroke:none
}</style><desc>Created with Snap</desc><defs></defs><line x1="1" x2="1499" y1="1" y2="1" class="stroke_order_diagram--bounding_box"></line><line x1="1" x2="1" y1="1" y2="99" class="stroke_order_diagram--bounding_box"></line><line x1="1" x2="1499" y1="99" y2="99" class="stroke_order_diagram--bounding_box"></line><line x1="0" x2="1500" y1="50" y2="50" class="stroke_order_diagram--guide_line"></line><line x1="50" x2="50" y1="1" y2="99" class="stroke_order_diagram--guide_line"></line><line x1="99" x2="99" y1="1" y2="99" class="stroke_order_diagram--bounding_box"></line><path id="kvg:09913-s1" kvg:type="㇒" d="M31.04,12.5c0.34,1.12,0.23,1.95-0.12,2.93C28.04,23.57,19.23,35.99,10.25,43" transform="matrix(1,0,0,1,-4,-4)" class="stroke_order_diagram--current_path"></path><path id="pathSk2v596cn3rvw" kvg:type="㇒" d="M31.04,12.5c0.34,1.12,0.23,1.95-0.12,2.93C28.04,23.57,19.23,35.99,10.25,43" transform="matrix(1,0,0,1,-4,-4)" class="stroke_order_diagram--current_path"></path><circle cx="31.04" cy="12.5" r="8" class="stroke_order_diagram--path_start" transform="matrix(1,0,0,1,-4,-4)"></circle><line x1="150" x2="150" y1="1" y2="99" class="stroke_order_diagram--guide_line"></line><line x1="199" x2="199" y1="1" y2="99" class="stroke_order_diagram--bounding_box"></line><path id="pathSk2v596cn3rvz" kvg:type="㇒" d="M31.04,12.5c0.34,1.12,0.23,1.95-0.12,2.93C28.04,23.57,19.23,35.99,10.25,43" transform="matrix(1,0,0,1,96,-4)" class="stroke_order_diagram--existing_path"></path><path id="kvg:09913-s2" kvg:type="㇔/㇏" d="M32.62,17.5c4.43,2.25,9.62,6.5,12.12,11.25" transform="matrix(1,0,0,1,96,-4)" class="stroke_order_diagram--current_path"></path><path id="pathSk2v596cn3rw1" kvg:type="㇔/㇏" d="M32.62,17.5c4.43,2.25,9.62,6.5,12.12,11.25" transform="matrix(1,0,0,1,96,-4)" class="stroke_order_diagram--current_path"></path><circle cx="32.62" cy="17.5" r="8" class="stroke_order_diagram--path_start" transform="matrix(1,0,0,1,96,-4)"></circle><line x1="250" x2="250" y1="1" y2="99" class="stroke_order_diagram--guide_line"></line><line x1="299" x2="299" y1="1" y2="99" class="stroke_order_diagram--bounding_box"></line><path id="pathSk2v596cn3rw4" kvg:type="㇒" d="M31.04,12.5c0.34,1.12,0.23,1.95-0.12,2.93C28.04,23.57,19.23,35.99,10.25,43" transform="matrix(1,0,0,1,196,-4)" class="stroke_order_diagram--existing_path"></path><path id="pathSk2v596cn3rw5" kvg:type="㇔/㇏" d="M32.62,17.5c4.43,2.25,9.62,6.5,12.12,11.25" transform="matrix(1,0,0,1,196,-4)" class="stroke_order_diagram--existing_path"></path><path id="kvg:09913-s3" kvg:type="㇑a" d="M30.79,30.26c0.85,0.85,1.28,1.86,1.28,3.07c0,0.93-0.07,4.87-0.07,7.17" transform="matrix(1,0,0,1,196,-4)" class="stroke_order_diagram--current_path"></path><path id="pathSk2v596cn3rw7" kvg:type="㇑a" d="M30.79,30.26c0.85,0.85,1.28,1.86,1.28,3.07c0,0.93-0.07,4.87-0.07,7.17" transform="matrix(1,0,0,1,196,-4)" class="stroke_order_diagram--current_path"></path><circle cx="30.79" cy="30.26" r="8" class="stroke_order_diagram--path_start" transform="matrix(1,0,0,1,196,-4)"></circle><line x1="350" x2="350" y1="1" y2="99" class="stroke_order_diagram--guide_line"></line><line x1="399" x2="399" y1="1" y2="99" class="stroke_order_diagram--bounding_box"></line><path id="pathSk2v596cn3rwa" kvg:type="㇒" d="M31.04,12.5c0.34,1.12,0.23,1.95-0.12,2.93C28.04,23.57,19.23,35.99,10.25,43" transform="matrix(1,0,0,1,296,-4)" class="stroke_order_diagram--existing_path"></path><path id="pathSk2v596cn3rwb" kvg:type="㇔/㇏" d="M32.62,17.5c4.43,2.25,9.62,6.5,12.12,11.25" transform="matrix(1,0,0,1,296,-4)" class="stroke_order_diagram--existing_path"></path><path id="pathSk2v596cn3rwc" kvg:type="㇑a" d="M30.79,30.26c0.85,0.85,1.28,1.86,1.28,3.07c0,0.93-0.07,4.87-0.07,7.17" transform="matrix(1,0,0,1,296,-4)" class="stroke_order_diagram--existing_path"></path><path id="kvg:09913-s4" kvg:type="㇕" d="M19.2,42.76c0.8,0.49,2.11,0.77,3.8,0.46c5.15-0.94,15.44-2.77,16.46-2.91c2.29-0.32,2.98,1.17,2.77,2.63c-0.81,5.62-1.63,12.56-2.44,18.31c-0.17,1.21-0.34,2.37-0.51,3.45" transform="matrix(1,0,0,1,296,-4)" class="stroke_order_diagram--current_path"></path><path id="pathSk2v596cn3rwe" kvg:type="㇕" d="M19.2,42.76c0.8,0.49,2.11,0.77,3.8,0.46c5.15-0.94,15.44-2.77,16.46-2.91c2.29-0.32,2.98,1.17,2.77,2.63c-0.81,5.62-1.63,12.56-2.44,18.31c-0.17,1.21-0.34,2.37-0.51,3.45" transform="matrix(1,0,0,1,296,-4)" class="stroke_order_diagram--current_path"></path><circle cx="19.2" cy="42.76" r="8" class="stroke_order_diagram--path_start" transform="matrix(1,0,0,1,296,-4)"></circle><line x1="450" x2="450" y1="1" y2="99" class="stroke_order_diagram--guide_line"></line><line x1="499" x2="499" y1="1" y2="99" class="stroke_order_diagram--bounding_box"></line><path id="pathSk2v596cn3rwh" kvg:type="㇒" d="M31.04,12.5c0.34,1.12,0.23,1.95-0.12,2.93C28.04,23.57,19.23,35.99,10.25,43" transform="matrix(1,0,0,1,396,-4)" class="stroke_order_diagram--existing_path"></path><path id="pathSk2v596cn3rwi" kvg:type="㇔/㇏" d="M32.62,17.5c4.43,2.25,9.62,6.5,12.12,11.25" transform="matrix(1,0,0,1,396,-4)" class="stroke_order_diagram--existing_path"></path><path id="pathSk2v596cn3rwj" kvg:type="㇑a" d="M30.79,30.26c0.85,0.85,1.28,1.86,1.28,3.07c0,0.93-0.07,4.87-0.07,7.17" transform="matrix(1,0,0,1,396,-4)" class="stroke_order_diagram--existing_path"></path><path id="pathSk2v596cn3rwk" kvg:type="㇕" d="M19.2,42.76c0.8,0.49,2.11,0.77,3.8,0.46c5.15-0.94,15.44-2.77,16.46-2.91c2.29-0.32,2.98,1.17,2.77,2.63c-0.81,5.62-1.63,12.56-2.44,18.31c-0.17,1.21-0.34,2.37-0.51,3.45" transform="matrix(1,0,0,1,396,-4)" class="stroke_order_diagram--existing_path"></path><path id="kvg:09913-s5" kvg:type="㇐a" d="M21.46,54.53c4.92-0.66,12.92-2.41,18.53-2.91" transform="matrix(1,0,0,1,396,-4)" class="stroke_order_diagram--current_path"></path><path id="pathSk2v596cn3rwm" kvg:type="㇐a" d="M21.46,54.53c4.92-0.66,12.92-2.41,18.53-2.91" transform="matrix(1,0,0,1,396,-4)" class="stroke_order_diagram--current_path"></path><circle cx="21.46" cy="54.53" r="8" class="stroke_order_diagram--path_start" transform="matrix(1,0,0,1,396,-4)"></circle><line x1="550" x2="550" y1="1" y2="99" class="stroke_order_diagram--guide_line"></line><line x1="599" x2="599" y1="1" y2="99" class="stroke_order_diagram--bounding_box"></line><path id="pathSk2v596cn3rwp" kvg:type="㇒" d="M31.04,12.5c0.34,1.12,0.23,1.95-0.12,2.93C28.04,23.57,19.23,35.99,10.25,43" transform="matrix(1,0,0,1,496,-4)" class="stroke_order_diagram--existing_path"></path><path id="pathSk2v596cn3rwq" kvg:type="㇔/㇏" d="M32.62,17.5c4.43,2.25,9.62,6.5,12.12,11.25" transform="matrix(1,0,0,1,496,-4)" class="stroke_order_diagram--existing_path"></path><path id="pathSk2v596cn3rwr" kvg:type="㇑a" d="M30.79,30.26c0.85,0.85,1.28,1.86,1.28,3.07c0,0.93-0.07,4.87-0.07,7.17" transform="matrix(1,0,0,1,496,-4)" class="stroke_order_diagram--existing_path"></path><path id="pathSk2v596cn3rws" kvg:type="㇕" d="M19.2,42.76c0.8,0.49,2.11,0.77,3.8,0.46c5.15-0.94,15.44-2.77,16.46-2.91c2.29-0.32,2.98,1.17,2.77,2.63c-0.81,5.62-1.63,12.56-2.44,18.31c-0.17,1.21-0.34,2.37-0.51,3.45" transform="matrix(1,0,0,1,496,-4)" class="stroke_order_diagram--existing_path"></path><path id="pathSk2v596cn3rwt" kvg:type="㇐a" d="M21.46,54.53c4.92-0.66,12.92-2.41,18.53-2.91" transform="matrix(1,0,0,1,496,-4)" class="stroke_order_diagram--existing_path"></path><path id="kvg:09913-s6" kvg:type="㇐a" d="M21.37,65.85c5.76-1.23,11.13-2.23,17.21-2.97" transform="matrix(1,0,0,1,496,-4)" class="stroke_order_diagram--current_path"></path><path id="pathSk2v596cn3rwv" kvg:type="㇐a" d="M21.37,65.85c5.76-1.23,11.13-2.23,17.21-2.97" transform="matrix(1,0,0,1,496,-4)" class="stroke_order_diagram--current_path"></path><circle cx="21.37" cy="65.85" r="8" class="stroke_order_diagram--path_start" transform="matrix(1,0,0,1,496,-4)"></circle><line x1="650" x2="650" y1="1" y2="99" class="stroke_order_diagram--guide_line"></line><line x1="699" x2="699" y1="1" y2="99" class="stroke_order_diagram--bounding_box"></line><path id="pathSk2v596cn3rwy" kvg:type="㇒" d="M31.04,12.5c0.34,1.12,0.23,1.95-0.12,2.93C28.04,23.57,19.23,35.99,10.25,43" transform="matrix(1,0,0,1,596,-4)" class="stroke_order_diagram--existing_path"></path><path id="pathSk2v596cn3rwz" kvg:type="㇔/㇏" d="M32.62,17.5c4.43,2.25,9.62,6.5,12.12,11.25" transform="matrix(1,0,0,1,596,-4)" class="stroke_order_diagram--existing_path"></path><path id="pathSk2v596cn3rx0" kvg:type="㇑a" d="M30.79,30.26c0.85,0.85,1.28,1.86,1.28,3.07c0,0.93-0.07,4.87-0.07,7.17" transform="matrix(1,0,0,1,596,-4)" class="stroke_order_diagram--existing_path"></path><path id="pathSk2v596cn3rx1" kvg:type="㇕" d="M19.2,42.76c0.8,0.49,2.11,0.77,3.8,0.46c5.15-0.94,15.44-2.77,16.46-2.91c2.29-0.32,2.98,1.17,2.77,2.63c-0.81,5.62-1.63,12.56-2.44,18.31c-0.17,1.21-0.34,2.37-0.51,3.45" transform="matrix(1,0,0,1,596,-4)" class="stroke_order_diagram--existing_path"></path><path id="pathSk2v596cn3rx2" kvg:type="㇐a" d="M21.46,54.53c4.92-0.66,12.92-2.41,18.53-2.91" transform="matrix(1,0,0,1,596,-4)" class="stroke_order_diagram--existing_path"></path><path id="pathSk2v596cn3rx3" kvg:type="㇐a" d="M21.37,65.85c5.76-1.23,11.13-2.23,17.21-2.97" transform="matrix(1,0,0,1,596,-4)" class="stroke_order_diagram--existing_path"></path><path id="kvg:09913-s7" kvg:type="㇙" d="M19.37,43.01c0.69,0.69,1.03,1.61,1.03,2.99c0,0.93-0.02,40.16-0.02,44.5c0,2.08,1.29,2.54,3.38,1c2.88-2.12,10-8,15-11.25" transform="matrix(1,0,0,1,596,-4)" class="stroke_order_diagram--current_path"></path><path id="pathSk2v596cn3rx5" kvg:type="㇙" d="M19.37,43.01c0.69,0.69,1.03,1.61,1.03,2.99c0,0.93-0.02,40.16-0.02,44.5c0,2.08,1.29,2.54,3.38,1c2.88-2.12,10-8,15-11.25" transform="matrix(1,0,0,1,596,-4)" class="stroke_order_diagram--current_path"></path><circle cx="19.37" cy="43.01" r="8" class="stroke_order_diagram--path_start" transform="matrix(1,0,0,1,596,-4)"></circle><line x1="750" x2="750" y1="1" y2="99" class="stroke_order_diagram--guide_line"></line><line x1="799" x2="799" y1="1" y2="99" class="stroke_order_diagram--bounding_box"></line><path id="pathSk2v596cn3rx8" kvg:type="㇒" d="M31.04,12.5c0.34,1.12,0.23,1.95-0.12,2.93C28.04,23.57,19.23,35.99,10.25,43" transform="matrix(1,0,0,1,696,-4)" class="stroke_order_diagram--existing_path"></path><path id="pathSk2v596cn3rx9" kvg:type="㇔/㇏" d="M32.62,17.5c4.43,2.25,9.62,6.5,12.12,11.25" transform="matrix(1,0,0,1,696,-4)" class="stroke_order_diagram--existing_path"></path><path id="pathSk2v596cn3rxa" kvg:type="㇑a" d="M30.79,30.26c0.85,0.85,1.28,1.86,1.28,3.07c0,0.93-0.07,4.87-0.07,7.17" transform="matrix(1,0,0,1,696,-4)" class="stroke_order_diagram--existing_path"></path><path id="pathSk2v596cn3rxb" kvg:type="㇕" d="M19.2,42.76c0.8,0.49,2.11,0.77,3.8,0.46c5.15-0.94,15.44-2.77,16.46-2.91c2.29-0.32,2.98,1.17,2.77,2.63c-0.81,5.62-1.63,12.56-2.44,18.31c-0.17,1.21-0.34,2.37-0.51,3.45" transform="matrix(1,0,0,1,696,-4)" class="stroke_order_diagram--existing_path"></path><path id="pathSk2v596cn3rxc" kvg:type="㇐a" d="M21.46,54.53c4.92-0.66,12.92-2.41,18.53-2.91" transform="matrix(1,0,0,1,696,-4)" class="stroke_order_diagram--existing_path"></path><path id="pathSk2v596cn3rxd" kvg:type="㇐a" d="M21.37,65.85c5.76-1.23,11.13-2.23,17.21-2.97" transform="matrix(1,0,0,1,696,-4)" class="stroke_order_diagram--existing_path"></path><path id="pathSk2v596cn3rxe" kvg:type="㇙" d="M19.37,43.01c0.69,0.69,1.03,1.61,1.03,2.99c0,0.93-0.02,40.16-0.02,44.5c0,2.08,1.29,2.54,3.38,1c2.88-2.12,10-8,15-11.25" transform="matrix(1,0,0,1,696,-4)" class="stroke_order_diagram--existing_path"></path><path id="kvg:09913-s8" kvg:type="㇔/㇏" d="M35.75,71.75c2.07,2.73,5.32,9.99,6.5,15.75" transform="matrix(1,0,0,1,696,-4)" class="stroke_order_diagram--current_path"></path><path id="pathSk2v596cn3rxg" kvg:type="㇔/㇏" d="M35.75,71.75c2.07,2.73,5.32,9.99,6.5,15.75" transform="matrix(1,0,0,1,696,-4)" class="stroke_order_diagram--current_path"></path><circle cx="35.75" cy="71.75" r="8" class="stroke_order_diagram--path_start" transform="matrix(1,0,0,1,696,-4)"></circle><line x1="850" x2="850" y1="1" y2="99" class="stroke_order_diagram--guide_line"></line><line x1="899" x2="899" y1="1" y2="99" class="stroke_order_diagram--bounding_box"></line><path id="pathSk2v596cn3rxj" kvg:type="㇒" d="M31.04,12.5c0.34,1.12,0.23,1.95-0.12,2.93C28.04,23.57,19.23,35.99,10.25,43" transform="matrix(1,0,0,1,796,-4)" class="stroke_order_diagram--existing_path"></path><path id="pathSk2v596cn3rxk" kvg:type="㇔/㇏" d="M32.62,17.5c4.43,2.25,9.62,6.5,12.12,11.25" transform="matrix(1,0,0,1,796,-4)" class="stroke_order_diagram--existing_path"></path><path id="pathSk2v596cn3rxl" kvg:type="㇑a" d="M30.79,30.26c0.85,0.85,1.28,1.86,1.28,3.07c0,0.93-0.07,4.87-0.07,7.17" transform="matrix(1,0,0,1,796,-4)" class="stroke_order_diagram--existing_path"></path><path id="pathSk2v596cn3rxm" kvg:type="㇕" d="M19.2,42.76c0.8,0.49,2.11,0.77,3.8,0.46c5.15-0.94,15.44-2.77,16.46-2.91c2.29-0.32,2.98,1.17,2.77,2.63c-0.81,5.62-1.63,12.56-2.44,18.31c-0.17,1.21-0.34,2.37-0.51,3.45" transform="matrix(1,0,0,1,796,-4)" class="stroke_order_diagram--existing_path"></path><path id="pathSk2v596cn3rxn" kvg:type="㇐a" d="M21.46,54.53c4.92-0.66,12.92-2.41,18.53-2.91" transform="matrix(1,0,0,1,796,-4)" class="stroke_order_diagram--existing_path"></path><path id="pathSk2v596cn3rxo" kvg:type="㇐a" d="M21.37,65.85c5.76-1.23,11.13-2.23,17.21-2.97" transform="matrix(1,0,0,1,796,-4)" class="stroke_order_diagram--existing_path"></path><path id="pathSk2v596cn3rxp" kvg:type="㇙" d="M19.37,43.01c0.69,0.69,1.03,1.61,1.03,2.99c0,0.93-0.02,40.16-0.02,44.5c0,2.08,1.29,2.54,3.38,1c2.88-2.12,10-8,15-11.25" transform="matrix(1,0,0,1,796,-4)" class="stroke_order_diagram--existing_path"></path><path id="pathSk2v596cn3rxq" kvg:type="㇔/㇏" d="M35.75,71.75c2.07,2.73,5.32,9.99,6.5,15.75" transform="matrix(1,0,0,1,796,-4)" class="stroke_order_diagram--existing_path"></path><path id="kvg:09913-s9" kvg:type="㇒" d="M64.38,18.89c0.12,0.95-0.2,1.74-0.84,2.47C60.38,25,57,27.38,48.5,33" transform="matrix(1,0,0,1,796,-4)" class="stroke_order_diagram--current_path"></path><path id="pathSk2v596cn3rxs" kvg:type="㇒" d="M64.38,18.89c0.12,0.95-0.2,1.74-0.84,2.47C60.38,25,57,27.38,48.5,33" transform="matrix(1,0,0,1,796,-4)" class="stroke_order_diagram--current_path"></path><circle cx="64.38" cy="18.89" r="8" class="stroke_order_diagram--path_start" transform="matrix(1,0,0,1,796,-4)"></circle><line x1="950" x2="950" y1="1" y2="99" class="stroke_order_diagram--guide_line"></line><line x1="999" x2="999" y1="1" y2="99" class="stroke_order_diagram--bounding_box"></line><path id="pathSk2v596cn3rxv" kvg:type="㇒" d="M31.04,12.5c0.34,1.12,0.23,1.95-0.12,2.93C28.04,23.57,19.23,35.99,10.25,43" transform="matrix(1,0,0,1,896,-4)" class="stroke_order_diagram--existing_path"></path><path id="pathSk2v596cn3rxw" kvg:type="㇔/㇏" d="M32.62,17.5c4.43,2.25,9.62,6.5,12.12,11.25" transform="matrix(1,0,0,1,896,-4)" class="stroke_order_diagram--existing_path"></path><path id="pathSk2v596cn3rxx" kvg:type="㇑a" d="M30.79,30.26c0.85,0.85,1.28,1.86,1.28,3.07c0,0.93-0.07,4.87-0.07,7.17" transform="matrix(1,0,0,1,896,-4)" class="stroke_order_diagram--existing_path"></path><path id="pathSk2v596cn3rxy" kvg:type="㇕" d="M19.2,42.76c0.8,0.49,2.11,0.77,3.8,0.46c5.15-0.94,15.44-2.77,16.46-2.91c2.29-0.32,2.98,1.17,2.77,2.63c-0.81,5.62-1.63,12.56-2.44,18.31c-0.17,1.21-0.34,2.37-0.51,3.45" transform="matrix(1,0,0,1,896,-4)" class="stroke_order_diagram--existing_path"></path><path id="pathSk2v596cn3rxz" kvg:type="㇐a" d="M21.46,54.53c4.92-0.66,12.92-2.41,18.53-2.91" transform="matrix(1,0,0,1,896,-4)" class="stroke_order_diagram--existing_path"></path><path id="pathSk2v596cn3ry0" kvg:type="㇐a" d="M21.37,65.85c5.76-1.23,11.13-2.23,17.21-2.97" transform="matrix(1,0,0,1,896,-4)" class="stroke_order_diagram--existing_path"></path><path id="pathSk2v596cn3ry1" kvg:type="㇙" d="M19.37,43.01c0.69,0.69,1.03,1.61,1.03,2.99c0,0.93-0.02,40.16-0.02,44.5c0,2.08,1.29,2.54,3.38,1c2.88-2.12,10-8,15-11.25" transform="matrix(1,0,0,1,896,-4)" class="stroke_order_diagram--existing_path"></path><path id="pathSk2v596cn3ry2" kvg:type="㇔/㇏" d="M35.75,71.75c2.07,2.73,5.32,9.99,6.5,15.75" transform="matrix(1,0,0,1,896,-4)" class="stroke_order_diagram--existing_path"></path><path id="pathSk2v596cn3ry3" kvg:type="㇒" d="M64.38,18.89c0.12,0.95-0.2,1.74-0.84,2.47C60.38,25,57,27.38,48.5,33" transform="matrix(1,0,0,1,896,-4)" class="stroke_order_diagram--existing_path"></path><path id="kvg:09913-s10" kvg:type="㇐" d="M48.36,44.14c2.51,0.48,5.41,0.54,7.5,0.14c10.02-1.91,24.19-4.5,33.03-5.39c2-0.2,3.89-0.36,5.86,0.15" transform="matrix(1,0,0,1,896,-4)" class="stroke_order_diagram--current_path"></path><path id="pathSk2v596cn3ry5" kvg:type="㇐" d="M48.36,44.14c2.51,0.48,5.41,0.54,7.5,0.14c10.02-1.91,24.19-4.5,33.03-5.39c2-0.2,3.89-0.36,5.86,0.15" transform="matrix(1,0,0,1,896,-4)" class="stroke_order_diagram--current_path"></path><circle cx="48.36" cy="44.14" r="8" class="stroke_order_diagram--path_start" transform="matrix(1,0,0,1,896,-4)"></circle><line x1="1050" x2="1050" y1="1" y2="99" class="stroke_order_diagram--guide_line"></line><line x1="1099" x2="1099" y1="1" y2="99" class="stroke_order_diagram--bounding_box"></line><path id="pathSk2v596cn3ry8" kvg:type="㇒" d="M31.04,12.5c0.34,1.12,0.23,1.95-0.12,2.93C28.04,23.57,19.23,35.99,10.25,43" transform="matrix(1,0,0,1,996,-4)" class="stroke_order_diagram--existing_path"></path><path id="pathSk2v596cn3ry9" kvg:type="㇔/㇏" d="M32.62,17.5c4.43,2.25,9.62,6.5,12.12,11.25" transform="matrix(1,0,0,1,996,-4)" class="stroke_order_diagram--existing_path"></path><path id="pathSk2v596cn3rya" kvg:type="㇑a" d="M30.79,30.26c0.85,0.85,1.28,1.86,1.28,3.07c0,0.93-0.07,4.87-0.07,7.17" transform="matrix(1,0,0,1,996,-4)" class="stroke_order_diagram--existing_path"></path><path id="pathSk2v596cn3ryb" kvg:type="㇕" d="M19.2,42.76c0.8,0.49,2.11,0.77,3.8,0.46c5.15-0.94,15.44-2.77,16.46-2.91c2.29-0.32,2.98,1.17,2.77,2.63c-0.81,5.62-1.63,12.56-2.44,18.31c-0.17,1.21-0.34,2.37-0.51,3.45" transform="matrix(1,0,0,1,996,-4)" class="stroke_order_diagram--existing_path"></path><path id="pathSk2v596cn3ryc" kvg:type="㇐a" d="M21.46,54.53c4.92-0.66,12.92-2.41,18.53-2.91" transform="matrix(1,0,0,1,996,-4)" class="stroke_order_diagram--existing_path"></path><path id="pathSk2v596cn3ryd" kvg:type="㇐a" d="M21.37,65.85c5.76-1.23,11.13-2.23,17.21-2.97" transform="matrix(1,0,0,1,996,-4)" class="stroke_order_diagram--existing_path"></path><path id="pathSk2v596cn3rye" kvg:type="㇙" d="M19.37,43.01c0.69,0.69,1.03,1.61,1.03,2.99c0,0.93-0.02,40.16-0.02,44.5c0,2.08,1.29,2.54,3.38,1c2.88-2.12,10-8,15-11.25" transform="matrix(1,0,0,1,996,-4)" class="stroke_order_diagram--existing_path"></path><path id="pathSk2v596cn3ryf" kvg:type="㇔/㇏" d="M35.75,71.75c2.07,2.73,5.32,9.99,6.5,15.75" transform="matrix(1,0,0,1,996,-4)" class="stroke_order_diagram--existing_path"></path><path id="pathSk2v596cn3ryg" kvg:type="㇒" d="M64.38,18.89c0.12,0.95-0.2,1.74-0.84,2.47C60.38,25,57,27.38,48.5,33" transform="matrix(1,0,0,1,996,-4)" class="stroke_order_diagram--existing_path"></path><path id="pathSk2v596cn3ryh" kvg:type="㇐" d="M48.36,44.14c2.51,0.48,5.41,0.54,7.5,0.14c10.02-1.91,24.19-4.5,33.03-5.39c2-0.2,3.89-0.36,5.86,0.15" transform="matrix(1,0,0,1,996,-4)" class="stroke_order_diagram--existing_path"></path><path id="kvg:09913-s11" kvg:type="㇚" d="M57.99,30.33c1.02,1.02,1.5,2.67,1.5,4.27c0,14.56-0.09,47.69-0.11,52.65c-0.03,9.28-5.71,1-6.9-0.25" transform="matrix(1,0,0,1,996,-4)" class="stroke_order_diagram--current_path"></path><path id="pathSk2v596cn3ryj" kvg:type="㇚" d="M57.99,30.33c1.02,1.02,1.5,2.67,1.5,4.27c0,14.56-0.09,47.69-0.11,52.65c-0.03,9.28-5.71,1-6.9-0.25" transform="matrix(1,0,0,1,996,-4)" class="stroke_order_diagram--current_path"></path><circle cx="57.99" cy="30.33" r="8" class="stroke_order_diagram--path_start" transform="matrix(1,0,0,1,996,-4)"></circle><line x1="1150" x2="1150" y1="1" y2="99" class="stroke_order_diagram--guide_line"></line><line x1="1199" x2="1199" y1="1" y2="99" class="stroke_order_diagram--bounding_box"></line><path id="pathSk2v596cn3rym" kvg:type="㇒" d="M31.04,12.5c0.34,1.12,0.23,1.95-0.12,2.93C28.04,23.57,19.23,35.99,10.25,43" transform="matrix(1,0,0,1,1096,-4)" class="stroke_order_diagram--existing_path"></path><path id="pathSk2v596cn3ryn" kvg:type="㇔/㇏" d="M32.62,17.5c4.43,2.25,9.62,6.5,12.12,11.25" transform="matrix(1,0,0,1,1096,-4)" class="stroke_order_diagram--existing_path"></path><path id="pathSk2v596cn3ryo" kvg:type="㇑a" d="M30.79,30.26c0.85,0.85,1.28,1.86,1.28,3.07c0,0.93-0.07,4.87-0.07,7.17" transform="matrix(1,0,0,1,1096,-4)" class="stroke_order_diagram--existing_path"></path><path id="pathSk2v596cn3ryp" kvg:type="㇕" d="M19.2,42.76c0.8,0.49,2.11,0.77,3.8,0.46c5.15-0.94,15.44-2.77,16.46-2.91c2.29-0.32,2.98,1.17,2.77,2.63c-0.81,5.62-1.63,12.56-2.44,18.31c-0.17,1.21-0.34,2.37-0.51,3.45" transform="matrix(1,0,0,1,1096,-4)" class="stroke_order_diagram--existing_path"></path><path id="pathSk2v596cn3ryq" kvg:type="㇐a" d="M21.46,54.53c4.92-0.66,12.92-2.41,18.53-2.91" transform="matrix(1,0,0,1,1096,-4)" class="stroke_order_diagram--existing_path"></path><path id="pathSk2v596cn3ryr" kvg:type="㇐a" d="M21.37,65.85c5.76-1.23,11.13-2.23,17.21-2.97" transform="matrix(1,0,0,1,1096,-4)" class="stroke_order_diagram--existing_path"></path><path id="pathSk2v596cn3rys" kvg:type="㇙" d="M19.37,43.01c0.69,0.69,1.03,1.61,1.03,2.99c0,0.93-0.02,40.16-0.02,44.5c0,2.08,1.29,2.54,3.38,1c2.88-2.12,10-8,15-11.25" transform="matrix(1,0,0,1,1096,-4)" class="stroke_order_diagram--existing_path"></path><path id="pathSk2v596cn3ryt" kvg:type="㇔/㇏" d="M35.75,71.75c2.07,2.73,5.32,9.99,6.5,15.75" transform="matrix(1,0,0,1,1096,-4)" class="stroke_order_diagram--existing_path"></path><path id="pathSk2v596cn3ryu" kvg:type="㇒" d="M64.38,18.89c0.12,0.95-0.2,1.74-0.84,2.47C60.38,25,57,27.38,48.5,33" transform="matrix(1,0,0,1,1096,-4)" class="stroke_order_diagram--existing_path"></path><path id="pathSk2v596cn3ryv" kvg:type="㇐" d="M48.36,44.14c2.51,0.48,5.41,0.54,7.5,0.14c10.02-1.91,24.19-4.5,33.03-5.39c2-0.2,3.89-0.36,5.86,0.15" transform="matrix(1,0,0,1,1096,-4)" class="stroke_order_diagram--existing_path"></path><path id="pathSk2v596cn3ryw" kvg:type="㇚" d="M57.99,30.33c1.02,1.02,1.5,2.67,1.5,4.27c0,14.56-0.09,47.69-0.11,52.65c-0.03,9.28-5.71,1-6.9-0.25" transform="matrix(1,0,0,1,1096,-4)" class="stroke_order_diagram--existing_path"></path><path id="kvg:09913-s12" kvg:type="㇀" d="M46.47,70.94c1.41,0.56,2.65,0.45,4-0.67c1.05-0.87,13.79-11.57,18.23-15.76" transform="matrix(1,0,0,1,1096,-4)" class="stroke_order_diagram--current_path"></path><path id="pathSk2v596cn3ryy" kvg:type="㇀" d="M46.47,70.94c1.41,0.56,2.65,0.45,4-0.67c1.05-0.87,13.79-11.57,18.23-15.76" transform="matrix(1,0,0,1,1096,-4)" class="stroke_order_diagram--current_path"></path><circle cx="46.47" cy="70.94" r="8" class="stroke_order_diagram--path_start" transform="matrix(1,0,0,1,1096,-4)"></circle><line x1="1250" x2="1250" y1="1" y2="99" class="stroke_order_diagram--guide_line"></line><line x1="1299" x2="1299" y1="1" y2="99" class="stroke_order_diagram--bounding_box"></line><path id="pathSk2v596cn3rz1" kvg:type="㇒" d="M31.04,12.5c0.34,1.12,0.23,1.95-0.12,2.93C28.04,23.57,19.23,35.99,10.25,43" transform="matrix(1,0,0,1,1196,-4)" class="stroke_order_diagram--existing_path"></path><path id="pathSk2v596cn3rz2" kvg:type="㇔/㇏" d="M32.62,17.5c4.43,2.25,9.62,6.5,12.12,11.25" transform="matrix(1,0,0,1,1196,-4)" class="stroke_order_diagram--existing_path"></path><path id="pathSk2v596cn3rz3" kvg:type="㇑a" d="M30.79,30.26c0.85,0.85,1.28,1.86,1.28,3.07c0,0.93-0.07,4.87-0.07,7.17" transform="matrix(1,0,0,1,1196,-4)" class="stroke_order_diagram--existing_path"></path><path id="pathSk2v596cn3rz4" kvg:type="㇕" d="M19.2,42.76c0.8,0.49,2.11,0.77,3.8,0.46c5.15-0.94,15.44-2.77,16.46-2.91c2.29-0.32,2.98,1.17,2.77,2.63c-0.81,5.62-1.63,12.56-2.44,18.31c-0.17,1.21-0.34,2.37-0.51,3.45" transform="matrix(1,0,0,1,1196,-4)" class="stroke_order_diagram--existing_path"></path><path id="pathSk2v596cn3rz5" kvg:type="㇐a" d="M21.46,54.53c4.92-0.66,12.92-2.41,18.53-2.91" transform="matrix(1,0,0,1,1196,-4)" class="stroke_order_diagram--existing_path"></path><path id="pathSk2v596cn3rz6" kvg:type="㇐a" d="M21.37,65.85c5.76-1.23,11.13-2.23,17.21-2.97" transform="matrix(1,0,0,1,1196,-4)" class="stroke_order_diagram--existing_path"></path><path id="pathSk2v596cn3rz7" kvg:type="㇙" d="M19.37,43.01c0.69,0.69,1.03,1.61,1.03,2.99c0,0.93-0.02,40.16-0.02,44.5c0,2.08,1.29,2.54,3.38,1c2.88-2.12,10-8,15-11.25" transform="matrix(1,0,0,1,1196,-4)" class="stroke_order_diagram--existing_path"></path><path id="pathSk2v596cn3rz8" kvg:type="㇔/㇏" d="M35.75,71.75c2.07,2.73,5.32,9.99,6.5,15.75" transform="matrix(1,0,0,1,1196,-4)" class="stroke_order_diagram--existing_path"></path><path id="pathSk2v596cn3rz9" kvg:type="㇒" d="M64.38,18.89c0.12,0.95-0.2,1.74-0.84,2.47C60.38,25,57,27.38,48.5,33" transform="matrix(1,0,0,1,1196,-4)" class="stroke_order_diagram--existing_path"></path><path id="pathSk2v596cn3rza" kvg:type="㇐" d="M48.36,44.14c2.51,0.48,5.41,0.54,7.5,0.14c10.02-1.91,24.19-4.5,33.03-5.39c2-0.2,3.89-0.36,5.86,0.15" transform="matrix(1,0,0,1,1196,-4)" class="stroke_order_diagram--existing_path"></path><path id="pathSk2v596cn3rzb" kvg:type="㇚" d="M57.99,30.33c1.02,1.02,1.5,2.67,1.5,4.27c0,14.56-0.09,47.69-0.11,52.65c-0.03,9.28-5.71,1-6.9-0.25" transform="matrix(1,0,0,1,1196,-4)" class="stroke_order_diagram--existing_path"></path><path id="pathSk2v596cn3rzc" kvg:type="㇀" d="M46.47,70.94c1.41,0.56,2.65,0.45,4-0.67c1.05-0.87,13.79-11.57,18.23-15.76" transform="matrix(1,0,0,1,1196,-4)" class="stroke_order_diagram--existing_path"></path><path id="kvg:09913-s13" kvg:type="㇂" d="M72.57,13.25c1.34,1.34,1.44,3.08,1.5,7.04C74.62,52.75,82.06,86,94.97,95.92c4.45,3.42,3.65,1.54,3.1-6.59" transform="matrix(1,0,0,1,1196,-4)" class="stroke_order_diagram--current_path"></path><path id="pathSk2v596cn3rze" kvg:type="㇂" d="M72.57,13.25c1.34,1.34,1.44,3.08,1.5,7.04C74.62,52.75,82.06,86,94.97,95.92c4.45,3.42,3.65,1.54,3.1-6.59" transform="matrix(1,0,0,1,1196,-4)" class="stroke_order_diagram--current_path"></path><circle cx="72.57" cy="13.25" r="8" class="stroke_order_diagram--path_start" transform="matrix(1,0,0,1,1196,-4)"></circle><line x1="1350" x2="1350" y1="1" y2="99" class="stroke_order_diagram--guide_line"></line><line x1="1399" x2="1399" y1="1" y2="99" class="stroke_order_diagram--bounding_box"></line><path id="pathSk2v596cn3rzh" kvg:type="㇒" d="M31.04,12.5c0.34,1.12,0.23,1.95-0.12,2.93C28.04,23.57,19.23,35.99,10.25,43" transform="matrix(1,0,0,1,1296,-4)" class="stroke_order_diagram--existing_path"></path><path id="pathSk2v596cn3rzi" kvg:type="㇔/㇏" d="M32.62,17.5c4.43,2.25,9.62,6.5,12.12,11.25" transform="matrix(1,0,0,1,1296,-4)" class="stroke_order_diagram--existing_path"></path><path id="pathSk2v596cn3rzj" kvg:type="㇑a" d="M30.79,30.26c0.85,0.85,1.28,1.86,1.28,3.07c0,0.93-0.07,4.87-0.07,7.17" transform="matrix(1,0,0,1,1296,-4)" class="stroke_order_diagram--existing_path"></path><path id="pathSk2v596cn3rzk" kvg:type="㇕" d="M19.2,42.76c0.8,0.49,2.11,0.77,3.8,0.46c5.15-0.94,15.44-2.77,16.46-2.91c2.29-0.32,2.98,1.17,2.77,2.63c-0.81,5.62-1.63,12.56-2.44,18.31c-0.17,1.21-0.34,2.37-0.51,3.45" transform="matrix(1,0,0,1,1296,-4)" class="stroke_order_diagram--existing_path"></path><path id="pathSk2v596cn3rzl" kvg:type="㇐a" d="M21.46,54.53c4.92-0.66,12.92-2.41,18.53-2.91" transform="matrix(1,0,0,1,1296,-4)" class="stroke_order_diagram--existing_path"></path><path id="pathSk2v596cn3rzm" kvg:type="㇐a" d="M21.37,65.85c5.76-1.23,11.13-2.23,17.21-2.97" transform="matrix(1,0,0,1,1296,-4)" class="stroke_order_diagram--existing_path"></path><path id="pathSk2v596cn3rzn" kvg:type="㇙" d="M19.37,43.01c0.69,0.69,1.03,1.61,1.03,2.99c0,0.93-0.02,40.16-0.02,44.5c0,2.08,1.29,2.54,3.38,1c2.88-2.12,10-8,15-11.25" transform="matrix(1,0,0,1,1296,-4)" class="stroke_order_diagram--existing_path"></path><path id="pathSk2v596cn3rzo" kvg:type="㇔/㇏" d="M35.75,71.75c2.07,2.73,5.32,9.99,6.5,15.75" transform="matrix(1,0,0,1,1296,-4)" class="stroke_order_diagram--existing_path"></path><path id="pathSk2v596cn3rzp" kvg:type="㇒" d="M64.38,18.89c0.12,0.95-0.2,1.74-0.84,2.47C60.38,25,57,27.38,48.5,33" transform="matrix(1,0,0,1,1296,-4)" class="stroke_order_diagram--existing_path"></path><path id="pathSk2v596cn3rzq" kvg:type="㇐" d="M48.36,44.14c2.51,0.48,5.41,0.54,7.5,0.14c10.02-1.91,24.19-4.5,33.03-5.39c2-0.2,3.89-0.36,5.86,0.15" transform="matrix(1,0,0,1,1296,-4)" class="stroke_order_diagram--existing_path"></path><path id="pathSk2v596cn3rzr" kvg:type="㇚" d="M57.99,30.33c1.02,1.02,1.5,2.67,1.5,4.27c0,14.56-0.09,47.69-0.11,52.65c-0.03,9.28-5.71,1-6.9-0.25" transform="matrix(1,0,0,1,1296,-4)" class="stroke_order_diagram--existing_path"></path><path id="pathSk2v596cn3rzs" kvg:type="㇀" d="M46.47,70.94c1.41,0.56,2.65,0.45,4-0.67c1.05-0.87,13.79-11.57,18.23-15.76" transform="matrix(1,0,0,1,1296,-4)" class="stroke_order_diagram--existing_path"></path><path id="pathSk2v596cn3rzt" kvg:type="㇂" d="M72.57,13.25c1.34,1.34,1.44,3.08,1.5,7.04C74.62,52.75,82.06,86,94.97,95.92c4.45,3.42,3.65,1.54,3.1-6.59" transform="matrix(1,0,0,1,1296,-4)" class="stroke_order_diagram--existing_path"></path><path id="kvg:09913-s14" kvg:type="㇒" d="M92.36,50.64c0.06,0.71-0.16,1.66-0.62,2.61c-3.12,6.37-9.87,17.87-21.74,27.5" transform="matrix(1,0,0,1,1296,-4)" class="stroke_order_diagram--current_path"></path><path id="pathSk2v596cn3rzv" kvg:type="㇒" d="M92.36,50.64c0.06,0.71-0.16,1.66-0.62,2.61c-3.12,6.37-9.87,17.87-21.74,27.5" transform="matrix(1,0,0,1,1296,-4)" class="stroke_order_diagram--current_path"></path><circle cx="92.36" cy="50.64" r="8" class="stroke_order_diagram--path_start" transform="matrix(1,0,0,1,1296,-4)"></circle><line x1="1450" x2="1450" y1="1" y2="99" class="stroke_order_diagram--guide_line"></line><line x1="1499" x2="1499" y1="1" y2="99" class="stroke_order_diagram--bounding_box"></line><path id="pathSk2v596cn3rzy" kvg:type="㇒" d="M31.04,12.5c0.34,1.12,0.23,1.95-0.12,2.93C28.04,23.57,19.23,35.99,10.25,43" transform="matrix(1,0,0,1,1396,-4)" class="stroke_order_diagram--existing_path"></path><path id="pathSk2v596cn3rzz" kvg:type="㇔/㇏" d="M32.62,17.5c4.43,2.25,9.62,6.5,12.12,11.25" transform="matrix(1,0,0,1,1396,-4)" class="stroke_order_diagram--existing_path"></path><path id="pathSk2v596cn3s00" kvg:type="㇑a" d="M30.79,30.26c0.85,0.85,1.28,1.86,1.28,3.07c0,0.93-0.07,4.87-0.07,7.17" transform="matrix(1,0,0,1,1396,-4)" class="stroke_order_diagram--existing_path"></path><path id="pathSk2v596cn3s01" kvg:type="㇕" d="M19.2,42.76c0.8,0.49,2.11,0.77,3.8,0.46c5.15-0.94,15.44-2.77,16.46-2.91c2.29-0.32,2.98,1.17,2.77,2.63c-0.81,5.62-1.63,12.56-2.44,18.31c-0.17,1.21-0.34,2.37-0.51,3.45" transform="matrix(1,0,0,1,1396,-4)" class="stroke_order_diagram--existing_path"></path><path id="pathSk2v596cn3s02" kvg:type="㇐a" d="M21.46,54.53c4.92-0.66,12.92-2.41,18.53-2.91" transform="matrix(1,0,0,1,1396,-4)" class="stroke_order_diagram--existing_path"></path><path id="pathSk2v596cn3s03" kvg:type="㇐a" d="M21.37,65.85c5.76-1.23,11.13-2.23,17.21-2.97" transform="matrix(1,0,0,1,1396,-4)" class="stroke_order_diagram--existing_path"></path><path id="pathSk2v596cn3s04" kvg:type="㇙" d="M19.37,43.01c0.69,0.69,1.03,1.61,1.03,2.99c0,0.93-0.02,40.16-0.02,44.5c0,2.08,1.29,2.54,3.38,1c2.88-2.12,10-8,15-11.25" transform="matrix(1,0,0,1,1396,-4)" class="stroke_order_diagram--existing_path"></path><path id="pathSk2v596cn3s05" kvg:type="㇔/㇏" d="M35.75,71.75c2.07,2.73,5.32,9.99,6.5,15.75" transform="matrix(1,0,0,1,1396,-4)" class="stroke_order_diagram--existing_path"></path><path id="pathSk2v596cn3s06" kvg:type="㇒" d="M64.38,18.89c0.12,0.95-0.2,1.74-0.84,2.47C60.38,25,57,27.38,48.5,33" transform="matrix(1,0,0,1,1396,-4)" class="stroke_order_diagram--existing_path"></path><path id="pathSk2v596cn3s07" kvg:type="㇐" d="M48.36,44.14c2.51,0.48,5.41,0.54,7.5,0.14c10.02-1.91,24.19-4.5,33.03-5.39c2-0.2,3.89-0.36,5.86,0.15" transform="matrix(1,0,0,1,1396,-4)" class="stroke_order_diagram--existing_path"></path><path id="pathSk2v596cn3s08" kvg:type="㇚" d="M57.99,30.33c1.02,1.02,1.5,2.67,1.5,4.27c0,14.56-0.09,47.69-0.11,52.65c-0.03,9.28-5.71,1-6.9-0.25" transform="matrix(1,0,0,1,1396,-4)" class="stroke_order_diagram--existing_path"></path><path id="pathSk2v596cn3s09" kvg:type="㇀" d="M46.47,70.94c1.41,0.56,2.65,0.45,4-0.67c1.05-0.87,13.79-11.57,18.23-15.76" transform="matrix(1,0,0,1,1396,-4)" class="stroke_order_diagram--existing_path"></path><path id="pathSk2v596cn3s0a" kvg:type="㇂" d="M72.57,13.25c1.34,1.34,1.44,3.08,1.5,7.04C74.62,52.75,82.06,86,94.97,95.92c4.45,3.42,3.65,1.54,3.1-6.59" transform="matrix(1,0,0,1,1396,-4)" class="stroke_order_diagram--existing_path"></path><path id="pathSk2v596cn3s0b" kvg:type="㇒" d="M92.36,50.64c0.06,0.71-0.16,1.66-0.62,2.61c-3.12,6.37-9.87,17.87-21.74,27.5" transform="matrix(1,0,0,1,1396,-4)" class="stroke_order_diagram--existing_path"></path><path id="kvg:09913-s15" kvg:type="㇔" d="M83.86,19.25c2.52,1.9,6.55,6.24,7.72,9.5" transform="matrix(1,0,0,1,1396,-4)" class="stroke_order_diagram--current_path"></path><path id="pathSk2v596cn3s0d" kvg:type="㇔" d="M83.86,19.25c2.52,1.9,6.55,6.24,7.72,9.5" transform="matrix(1,0,0,1,1396,-4)" class="stroke_order_diagram--current_path"></path><circle cx="83.86" cy="19.25" r="8" class="stroke_order_diagram--path_start" transform="matrix(1,0,0,1,1396,-4)"></circle></svg>