<svg style="width: 2000px; height: 100px;" viewbox="0 0 2000 100"><style>
.stroke_order_diagram--outer_container {
  width: 100%;
  overflow-x: auto;
  overflow-y: hidden;
}

.stroke_order_diagram--guide_line {
  fill: none;
  stroke: #ddd;
  stroke-width: 3;
  stroke-linecap: square;
  stroke-linejoin: square;
  stroke-dasharray:8, 8;
}

.stroke_order_diagram--bounding_box {
  fill: none;
  stroke: #ddd;
  stroke-width: 4;
  stroke-linecap: square;
  stroke-linejoin: square;
}

.stroke_order_diagram--current_path {
  fill: none;
  stroke: #000;
  stroke-width: 6;
  stroke-linecap: round;
  stroke-linejoin: round;
}

.stroke_order_diagram--existing_path {
  fill: none;
  stroke: #aaa;
  stroke-width: 6;
  stroke-linecap: round;
  stroke-linejoin:round;
}

.stroke_order_diagram--path_start {
  fill: rgba(255, 0, 0, 0.7);
  stroke:none
}</style><desc>Created with Snap</desc><defs></defs><line x1="1" x2="1999" y1="1" y2="1" class="stroke_order_diagram--bounding_box"></line><line x1="1" x2="1" y1="1" y2="99" class="stroke_order_diagram--bounding_box"></line><line x1="1" x2="1999" y1="99" y2="99" class="stroke_order_diagram--bounding_box"></line><line x1="0" x2="2000" y1="50" y2="50" class="stroke_order_diagram--guide_line"></line><line x1="50" x2="50" y1="1" y2="99" class="stroke_order_diagram--guide_line"></line><line x1="99" x2="99" y1="1" y2="99" class="stroke_order_diagram--bounding_box"></line><path id="kvg:09a30-s1" kvg:type="㇒" d="M18.88,20.49c1,1,1.2,2.01,1.2,3.55c0,34.96-1.57,54.71-8.33,67.35" transform="matrix(1,0,0,1,-4,-4)" class="stroke_order_diagram--current_path"></path><path id="pathSk2v596cn49sf" kvg:type="㇒" d="M18.88,20.49c1,1,1.2,2.01,1.2,3.55c0,34.96-1.57,54.71-8.33,67.35" transform="matrix(1,0,0,1,-4,-4)" class="stroke_order_diagram--current_path"></path><circle cx="18.88" cy="20.49" r="8" class="stroke_order_diagram--path_start" transform="matrix(1,0,0,1,-4,-4)"></circle><line x1="150" x2="150" y1="1" y2="99" class="stroke_order_diagram--guide_line"></line><line x1="199" x2="199" y1="1" y2="99" class="stroke_order_diagram--bounding_box"></line><path id="pathSk2v596cn49si" kvg:type="㇒" d="M18.88,20.49c1,1,1.2,2.01,1.2,3.55c0,34.96-1.57,54.71-8.33,67.35" transform="matrix(1,0,0,1,96,-4)" class="stroke_order_diagram--existing_path"></path><path id="kvg:09a30-s2" kvg:type="㇆a" d="M21.02,21.31c2.85-0.69,9.96-2.39,12.11-2.71c1.49-0.22,3.16,0.9,3.16,3.17c0,3.23,0.03,59.24,0.03,64.3c0,12.61-5.07,4.05-6.69,2.54" transform="matrix(1,0,0,1,96,-4)" class="stroke_order_diagram--current_path"></path><path id="pathSk2v596cn49sk" kvg:type="㇆a" d="M21.02,21.31c2.85-0.69,9.96-2.39,12.11-2.71c1.49-0.22,3.16,0.9,3.16,3.17c0,3.23,0.03,59.24,0.03,64.3c0,12.61-5.07,4.05-6.69,2.54" transform="matrix(1,0,0,1,96,-4)" class="stroke_order_diagram--current_path"></path><circle cx="21.02" cy="21.31" r="8" class="stroke_order_diagram--path_start" transform="matrix(1,0,0,1,96,-4)"></circle><line x1="250" x2="250" y1="1" y2="99" class="stroke_order_diagram--guide_line"></line><line x1="299" x2="299" y1="1" y2="99" class="stroke_order_diagram--bounding_box"></line><path id="pathSk2v596cn49sn" kvg:type="㇒" d="M18.88,20.49c1,1,1.2,2.01,1.2,3.55c0,34.96-1.57,54.71-8.33,67.35" transform="matrix(1,0,0,1,196,-4)" class="stroke_order_diagram--existing_path"></path><path id="pathSk2v596cn49so" kvg:type="㇆a" d="M21.02,21.31c2.85-0.69,9.96-2.39,12.11-2.71c1.49-0.22,3.16,0.9,3.16,3.17c0,3.23,0.03,59.24,0.03,64.3c0,12.61-5.07,4.05-6.69,2.54" transform="matrix(1,0,0,1,196,-4)" class="stroke_order_diagram--existing_path"></path><path id="kvg:09a30-s3" kvg:type="㇐a" d="M21.02,40.7c4.73-0.58,9.35-1.33,14.39-1.82" transform="matrix(1,0,0,1,196,-4)" class="stroke_order_diagram--current_path"></path><path id="pathSk2v596cn49sq" kvg:type="㇐a" d="M21.02,40.7c4.73-0.58,9.35-1.33,14.39-1.82" transform="matrix(1,0,0,1,196,-4)" class="stroke_order_diagram--current_path"></path><circle cx="21.02" cy="40.7" r="8" class="stroke_order_diagram--path_start" transform="matrix(1,0,0,1,196,-4)"></circle><line x1="350" x2="350" y1="1" y2="99" class="stroke_order_diagram--guide_line"></line><line x1="399" x2="399" y1="1" y2="99" class="stroke_order_diagram--bounding_box"></line><path id="pathSk2v596cn49st" kvg:type="㇒" d="M18.88,20.49c1,1,1.2,2.01,1.2,3.55c0,34.96-1.57,54.71-8.33,67.35" transform="matrix(1,0,0,1,296,-4)" class="stroke_order_diagram--existing_path"></path><path id="pathSk2v596cn49su" kvg:type="㇆a" d="M21.02,21.31c2.85-0.69,9.96-2.39,12.11-2.71c1.49-0.22,3.16,0.9,3.16,3.17c0,3.23,0.03,59.24,0.03,64.3c0,12.61-5.07,4.05-6.69,2.54" transform="matrix(1,0,0,1,296,-4)" class="stroke_order_diagram--existing_path"></path><path id="pathSk2v596cn49sv" kvg:type="㇐a" d="M21.02,40.7c4.73-0.58,9.35-1.33,14.39-1.82" transform="matrix(1,0,0,1,296,-4)" class="stroke_order_diagram--existing_path"></path><path id="kvg:09a30-s4" kvg:type="㇐a" d="M20.22,59.65c4.28-0.52,10.24-1.28,14.88-1.7" transform="matrix(1,0,0,1,296,-4)" class="stroke_order_diagram--current_path"></path><path id="pathSk2v596cn49sx" kvg:type="㇐a" d="M20.22,59.65c4.28-0.52,10.24-1.28,14.88-1.7" transform="matrix(1,0,0,1,296,-4)" class="stroke_order_diagram--current_path"></path><circle cx="20.22" cy="59.65" r="8" class="stroke_order_diagram--path_start" transform="matrix(1,0,0,1,296,-4)"></circle><line x1="450" x2="450" y1="1" y2="99" class="stroke_order_diagram--guide_line"></line><line x1="499" x2="499" y1="1" y2="99" class="stroke_order_diagram--bounding_box"></line><path id="pathSk2v596cn49t0" kvg:type="㇒" d="M18.88,20.49c1,1,1.2,2.01,1.2,3.55c0,34.96-1.57,54.71-8.33,67.35" transform="matrix(1,0,0,1,396,-4)" class="stroke_order_diagram--existing_path"></path><path id="pathSk2v596cn49t1" kvg:type="㇆a" d="M21.02,21.31c2.85-0.69,9.96-2.39,12.11-2.71c1.49-0.22,3.16,0.9,3.16,3.17c0,3.23,0.03,59.24,0.03,64.3c0,12.61-5.07,4.05-6.69,2.54" transform="matrix(1,0,0,1,396,-4)" class="stroke_order_diagram--existing_path"></path><path id="pathSk2v596cn49t2" kvg:type="㇐a" d="M21.02,40.7c4.73-0.58,9.35-1.33,14.39-1.82" transform="matrix(1,0,0,1,396,-4)" class="stroke_order_diagram--existing_path"></path><path id="pathSk2v596cn49t3" kvg:type="㇐a" d="M20.22,59.65c4.28-0.52,10.24-1.28,14.88-1.7" transform="matrix(1,0,0,1,396,-4)" class="stroke_order_diagram--existing_path"></path><path id="kvg:09a30-s5" kvg:type="㇔" d="M49.02,19.09c2.04,1.5,5.26,6.18,5.77,8.52" transform="matrix(1,0,0,1,396,-4)" class="stroke_order_diagram--current_path"></path><path id="pathSk2v596cn49t5" kvg:type="㇔" d="M49.02,19.09c2.04,1.5,5.26,6.18,5.77,8.52" transform="matrix(1,0,0,1,396,-4)" class="stroke_order_diagram--current_path"></path><circle cx="49.02" cy="19.09" r="8" class="stroke_order_diagram--path_start" transform="matrix(1,0,0,1,396,-4)"></circle><line x1="550" x2="550" y1="1" y2="99" class="stroke_order_diagram--guide_line"></line><line x1="599" x2="599" y1="1" y2="99" class="stroke_order_diagram--bounding_box"></line><path id="pathSk2v596cn49t8" kvg:type="㇒" d="M18.88,20.49c1,1,1.2,2.01,1.2,3.55c0,34.96-1.57,54.71-8.33,67.35" transform="matrix(1,0,0,1,496,-4)" class="stroke_order_diagram--existing_path"></path><path id="pathSk2v596cn49t9" kvg:type="㇆a" d="M21.02,21.31c2.85-0.69,9.96-2.39,12.11-2.71c1.49-0.22,3.16,0.9,3.16,3.17c0,3.23,0.03,59.24,0.03,64.3c0,12.61-5.07,4.05-6.69,2.54" transform="matrix(1,0,0,1,496,-4)" class="stroke_order_diagram--existing_path"></path><path id="pathSk2v596cn49ta" kvg:type="㇐a" d="M21.02,40.7c4.73-0.58,9.35-1.33,14.39-1.82" transform="matrix(1,0,0,1,496,-4)" class="stroke_order_diagram--existing_path"></path><path id="pathSk2v596cn49tb" kvg:type="㇐a" d="M20.22,59.65c4.28-0.52,10.24-1.28,14.88-1.7" transform="matrix(1,0,0,1,496,-4)" class="stroke_order_diagram--existing_path"></path><path id="pathSk2v596cn49tc" kvg:type="㇔" d="M49.02,19.09c2.04,1.5,5.26,6.18,5.77,8.52" transform="matrix(1,0,0,1,496,-4)" class="stroke_order_diagram--existing_path"></path><path id="kvg:09a30-s6" kvg:type="㇒" d="M82.53,15.64c0.06,0.61-0.03,1.18-0.27,1.74c-1.02,2.37-3.29,5.41-6.55,8.84" transform="matrix(1,0,0,1,496,-4)" class="stroke_order_diagram--current_path"></path><path id="pathSk2v596cn49te" kvg:type="㇒" d="M82.53,15.64c0.06,0.61-0.03,1.18-0.27,1.74c-1.02,2.37-3.29,5.41-6.55,8.84" transform="matrix(1,0,0,1,496,-4)" class="stroke_order_diagram--current_path"></path><circle cx="82.53" cy="15.64" r="8" class="stroke_order_diagram--path_start" transform="matrix(1,0,0,1,496,-4)"></circle><line x1="650" x2="650" y1="1" y2="99" class="stroke_order_diagram--guide_line"></line><line x1="699" x2="699" y1="1" y2="99" class="stroke_order_diagram--bounding_box"></line><path id="pathSk2v596cn49th" kvg:type="㇒" d="M18.88,20.49c1,1,1.2,2.01,1.2,3.55c0,34.96-1.57,54.71-8.33,67.35" transform="matrix(1,0,0,1,596,-4)" class="stroke_order_diagram--existing_path"></path><path id="pathSk2v596cn49ti" kvg:type="㇆a" d="M21.02,21.31c2.85-0.69,9.96-2.39,12.11-2.71c1.49-0.22,3.16,0.9,3.16,3.17c0,3.23,0.03,59.24,0.03,64.3c0,12.61-5.07,4.05-6.69,2.54" transform="matrix(1,0,0,1,596,-4)" class="stroke_order_diagram--existing_path"></path><path id="pathSk2v596cn49tj" kvg:type="㇐a" d="M21.02,40.7c4.73-0.58,9.35-1.33,14.39-1.82" transform="matrix(1,0,0,1,596,-4)" class="stroke_order_diagram--existing_path"></path><path id="pathSk2v596cn49tk" kvg:type="㇐a" d="M20.22,59.65c4.28-0.52,10.24-1.28,14.88-1.7" transform="matrix(1,0,0,1,596,-4)" class="stroke_order_diagram--existing_path"></path><path id="pathSk2v596cn49tl" kvg:type="㇔" d="M49.02,19.09c2.04,1.5,5.26,6.18,5.77,8.52" transform="matrix(1,0,0,1,596,-4)" class="stroke_order_diagram--existing_path"></path><path id="pathSk2v596cn49tm" kvg:type="㇒" d="M82.53,15.64c0.06,0.61-0.03,1.18-0.27,1.74c-1.02,2.37-3.29,5.41-6.55,8.84" transform="matrix(1,0,0,1,596,-4)" class="stroke_order_diagram--existing_path"></path><path id="kvg:09a30-s7" kvg:type="㇐" d="M47.78,33.6c2.22,0.4,3.96,0.19,5.72,0.01c6.85-0.68,19.77-2.38,27.01-3.2c1.75-0.2,3.54-0.17,5.27,0.22" transform="matrix(1,0,0,1,596,-4)" class="stroke_order_diagram--current_path"></path><path id="pathSk2v596cn49to" kvg:type="㇐" d="M47.78,33.6c2.22,0.4,3.96,0.19,5.72,0.01c6.85-0.68,19.77-2.38,27.01-3.2c1.75-0.2,3.54-0.17,5.27,0.22" transform="matrix(1,0,0,1,596,-4)" class="stroke_order_diagram--current_path"></path><circle cx="47.78" cy="33.6" r="8" class="stroke_order_diagram--path_start" transform="matrix(1,0,0,1,596,-4)"></circle><line x1="750" x2="750" y1="1" y2="99" class="stroke_order_diagram--guide_line"></line><line x1="799" x2="799" y1="1" y2="99" class="stroke_order_diagram--bounding_box"></line><path id="pathSk2v596cn49tr" kvg:type="㇒" d="M18.88,20.49c1,1,1.2,2.01,1.2,3.55c0,34.96-1.57,54.71-8.33,67.35" transform="matrix(1,0,0,1,696,-4)" class="stroke_order_diagram--existing_path"></path><path id="pathSk2v596cn49ts" kvg:type="㇆a" d="M21.02,21.31c2.85-0.69,9.96-2.39,12.11-2.71c1.49-0.22,3.16,0.9,3.16,3.17c0,3.23,0.03,59.24,0.03,64.3c0,12.61-5.07,4.05-6.69,2.54" transform="matrix(1,0,0,1,696,-4)" class="stroke_order_diagram--existing_path"></path><path id="pathSk2v596cn49tt" kvg:type="㇐a" d="M21.02,40.7c4.73-0.58,9.35-1.33,14.39-1.82" transform="matrix(1,0,0,1,696,-4)" class="stroke_order_diagram--existing_path"></path><path id="pathSk2v596cn49tu" kvg:type="㇐a" d="M20.22,59.65c4.28-0.52,10.24-1.28,14.88-1.7" transform="matrix(1,0,0,1,696,-4)" class="stroke_order_diagram--existing_path"></path><path id="pathSk2v596cn49tv" kvg:type="㇔" d="M49.02,19.09c2.04,1.5,5.26,6.18,5.77,8.52" transform="matrix(1,0,0,1,696,-4)" class="stroke_order_diagram--existing_path"></path><path id="pathSk2v596cn49tw" kvg:type="㇒" d="M82.53,15.64c0.06,0.61-0.03,1.18-0.27,1.74c-1.02,2.37-3.29,5.41-6.55,8.84" transform="matrix(1,0,0,1,696,-4)" class="stroke_order_diagram--existing_path"></path><path id="pathSk2v596cn49tx" kvg:type="㇐" d="M47.78,33.6c2.22,0.4,3.96,0.19,5.72,0.01c6.85-0.68,19.77-2.38,27.01-3.2c1.75-0.2,3.54-0.17,5.27,0.22" transform="matrix(1,0,0,1,696,-4)" class="stroke_order_diagram--existing_path"></path><path id="kvg:09a30-s8" kvg:type="㇐" d="M43,44.39c2.28,0.76,4.79,0.48,7.14,0.19c10.01-1.24,26.57-3.34,37.74-4.11c2.17-0.15,4.22-0.19,6.37,0.23" transform="matrix(1,0,0,1,696,-4)" class="stroke_order_diagram--current_path"></path><path id="pathSk2v596cn49tz" kvg:type="㇐" d="M43,44.39c2.28,0.76,4.79,0.48,7.14,0.19c10.01-1.24,26.57-3.34,37.74-4.11c2.17-0.15,4.22-0.19,6.37,0.23" transform="matrix(1,0,0,1,696,-4)" class="stroke_order_diagram--current_path"></path><circle cx="43" cy="44.39" r="8" class="stroke_order_diagram--path_start" transform="matrix(1,0,0,1,696,-4)"></circle><line x1="850" x2="850" y1="1" y2="99" class="stroke_order_diagram--guide_line"></line><line x1="899" x2="899" y1="1" y2="99" class="stroke_order_diagram--bounding_box"></line><path id="pathSk2v596cn49u2" kvg:type="㇒" d="M18.88,20.49c1,1,1.2,2.01,1.2,3.55c0,34.96-1.57,54.71-8.33,67.35" transform="matrix(1,0,0,1,796,-4)" class="stroke_order_diagram--existing_path"></path><path id="pathSk2v596cn49u3" kvg:type="㇆a" d="M21.02,21.31c2.85-0.69,9.96-2.39,12.11-2.71c1.49-0.22,3.16,0.9,3.16,3.17c0,3.23,0.03,59.24,0.03,64.3c0,12.61-5.07,4.05-6.69,2.54" transform="matrix(1,0,0,1,796,-4)" class="stroke_order_diagram--existing_path"></path><path id="pathSk2v596cn49u4" kvg:type="㇐a" d="M21.02,40.7c4.73-0.58,9.35-1.33,14.39-1.82" transform="matrix(1,0,0,1,796,-4)" class="stroke_order_diagram--existing_path"></path><path id="pathSk2v596cn49u5" kvg:type="㇐a" d="M20.22,59.65c4.28-0.52,10.24-1.28,14.88-1.7" transform="matrix(1,0,0,1,796,-4)" class="stroke_order_diagram--existing_path"></path><path id="pathSk2v596cn49u6" kvg:type="㇔" d="M49.02,19.09c2.04,1.5,5.26,6.18,5.77,8.52" transform="matrix(1,0,0,1,796,-4)" class="stroke_order_diagram--existing_path"></path><path id="pathSk2v596cn49u7" kvg:type="㇒" d="M82.53,15.64c0.06,0.61-0.03,1.18-0.27,1.74c-1.02,2.37-3.29,5.41-6.55,8.84" transform="matrix(1,0,0,1,796,-4)" class="stroke_order_diagram--existing_path"></path><path id="pathSk2v596cn49u8" kvg:type="㇐" d="M47.78,33.6c2.22,0.4,3.96,0.19,5.72,0.01c6.85-0.68,19.77-2.38,27.01-3.2c1.75-0.2,3.54-0.17,5.27,0.22" transform="matrix(1,0,0,1,796,-4)" class="stroke_order_diagram--existing_path"></path><path id="pathSk2v596cn49u9" kvg:type="㇐" d="M43,44.39c2.28,0.76,4.79,0.48,7.14,0.19c10.01-1.24,26.57-3.34,37.74-4.11c2.17-0.15,4.22-0.19,6.37,0.23" transform="matrix(1,0,0,1,796,-4)" class="stroke_order_diagram--existing_path"></path><path id="kvg:09a30-s9" kvg:type="㇒" d="M67.3,14.25c0.32,1.12,0.18,2.53-0.13,3.84C63.25,34.75,55.5,50,42.25,62.29" transform="matrix(1,0,0,1,796,-4)" class="stroke_order_diagram--current_path"></path><path id="pathSk2v596cn49ub" kvg:type="㇒" d="M67.3,14.25c0.32,1.12,0.18,2.53-0.13,3.84C63.25,34.75,55.5,50,42.25,62.29" transform="matrix(1,0,0,1,796,-4)" class="stroke_order_diagram--current_path"></path><circle cx="67.3" cy="14.25" r="8" class="stroke_order_diagram--path_start" transform="matrix(1,0,0,1,796,-4)"></circle><line x1="950" x2="950" y1="1" y2="99" class="stroke_order_diagram--guide_line"></line><line x1="999" x2="999" y1="1" y2="99" class="stroke_order_diagram--bounding_box"></line><path id="pathSk2v596cn49ue" kvg:type="㇒" d="M18.88,20.49c1,1,1.2,2.01,1.2,3.55c0,34.96-1.57,54.71-8.33,67.35" transform="matrix(1,0,0,1,896,-4)" class="stroke_order_diagram--existing_path"></path><path id="pathSk2v596cn49uf" kvg:type="㇆a" d="M21.02,21.31c2.85-0.69,9.96-2.39,12.11-2.71c1.49-0.22,3.16,0.9,3.16,3.17c0,3.23,0.03,59.24,0.03,64.3c0,12.61-5.07,4.05-6.69,2.54" transform="matrix(1,0,0,1,896,-4)" class="stroke_order_diagram--existing_path"></path><path id="pathSk2v596cn49ug" kvg:type="㇐a" d="M21.02,40.7c4.73-0.58,9.35-1.33,14.39-1.82" transform="matrix(1,0,0,1,896,-4)" class="stroke_order_diagram--existing_path"></path><path id="pathSk2v596cn49uh" kvg:type="㇐a" d="M20.22,59.65c4.28-0.52,10.24-1.28,14.88-1.7" transform="matrix(1,0,0,1,896,-4)" class="stroke_order_diagram--existing_path"></path><path id="pathSk2v596cn49ui" kvg:type="㇔" d="M49.02,19.09c2.04,1.5,5.26,6.18,5.77,8.52" transform="matrix(1,0,0,1,896,-4)" class="stroke_order_diagram--existing_path"></path><path id="pathSk2v596cn49uj" kvg:type="㇒" d="M82.53,15.64c0.06,0.61-0.03,1.18-0.27,1.74c-1.02,2.37-3.29,5.41-6.55,8.84" transform="matrix(1,0,0,1,896,-4)" class="stroke_order_diagram--existing_path"></path><path id="pathSk2v596cn49uk" kvg:type="㇐" d="M47.78,33.6c2.22,0.4,3.96,0.19,5.72,0.01c6.85-0.68,19.77-2.38,27.01-3.2c1.75-0.2,3.54-0.17,5.27,0.22" transform="matrix(1,0,0,1,896,-4)" class="stroke_order_diagram--existing_path"></path><path id="pathSk2v596cn49ul" kvg:type="㇐" d="M43,44.39c2.28,0.76,4.79,0.48,7.14,0.19c10.01-1.24,26.57-3.34,37.74-4.11c2.17-0.15,4.22-0.19,6.37,0.23" transform="matrix(1,0,0,1,896,-4)" class="stroke_order_diagram--existing_path"></path><path id="pathSk2v596cn49um" kvg:type="㇒" d="M67.3,14.25c0.32,1.12,0.18,2.53-0.13,3.84C63.25,34.75,55.5,50,42.25,62.29" transform="matrix(1,0,0,1,896,-4)" class="stroke_order_diagram--existing_path"></path><path id="kvg:09a30-s10" kvg:type="㇏" d="M69,33.25c2.93,2.93,12.8,13.66,18.83,19.65c2.13,2.12,4.04,3.72,6.92,5.6" transform="matrix(1,0,0,1,896,-4)" class="stroke_order_diagram--current_path"></path><path id="pathSk2v596cn49uo" kvg:type="㇏" d="M69,33.25c2.93,2.93,12.8,13.66,18.83,19.65c2.13,2.12,4.04,3.72,6.92,5.6" transform="matrix(1,0,0,1,896,-4)" class="stroke_order_diagram--current_path"></path><circle cx="69" cy="33.25" r="8" class="stroke_order_diagram--path_start" transform="matrix(1,0,0,1,896,-4)"></circle><line x1="1050" x2="1050" y1="1" y2="99" class="stroke_order_diagram--guide_line"></line><line x1="1099" x2="1099" y1="1" y2="99" class="stroke_order_diagram--bounding_box"></line><path id="pathSk2v596cn49ur" kvg:type="㇒" d="M18.88,20.49c1,1,1.2,2.01,1.2,3.55c0,34.96-1.57,54.71-8.33,67.35" transform="matrix(1,0,0,1,996,-4)" class="stroke_order_diagram--existing_path"></path><path id="pathSk2v596cn49us" kvg:type="㇆a" d="M21.02,21.31c2.85-0.69,9.96-2.39,12.11-2.71c1.49-0.22,3.16,0.9,3.16,3.17c0,3.23,0.03,59.24,0.03,64.3c0,12.61-5.07,4.05-6.69,2.54" transform="matrix(1,0,0,1,996,-4)" class="stroke_order_diagram--existing_path"></path><path id="pathSk2v596cn49ut" kvg:type="㇐a" d="M21.02,40.7c4.73-0.58,9.35-1.33,14.39-1.82" transform="matrix(1,0,0,1,996,-4)" class="stroke_order_diagram--existing_path"></path><path id="pathSk2v596cn49uu" kvg:type="㇐a" d="M20.22,59.65c4.28-0.52,10.24-1.28,14.88-1.7" transform="matrix(1,0,0,1,996,-4)" class="stroke_order_diagram--existing_path"></path><path id="pathSk2v596cn49uv" kvg:type="㇔" d="M49.02,19.09c2.04,1.5,5.26,6.18,5.77,8.52" transform="matrix(1,0,0,1,996,-4)" class="stroke_order_diagram--existing_path"></path><path id="pathSk2v596cn49uw" kvg:type="㇒" d="M82.53,15.64c0.06,0.61-0.03,1.18-0.27,1.74c-1.02,2.37-3.29,5.41-6.55,8.84" transform="matrix(1,0,0,1,996,-4)" class="stroke_order_diagram--existing_path"></path><path id="pathSk2v596cn49ux" kvg:type="㇐" d="M47.78,33.6c2.22,0.4,3.96,0.19,5.72,0.01c6.85-0.68,19.77-2.38,27.01-3.2c1.75-0.2,3.54-0.17,5.27,0.22" transform="matrix(1,0,0,1,996,-4)" class="stroke_order_diagram--existing_path"></path><path id="pathSk2v596cn49uy" kvg:type="㇐" d="M43,44.39c2.28,0.76,4.79,0.48,7.14,0.19c10.01-1.24,26.57-3.34,37.74-4.11c2.17-0.15,4.22-0.19,6.37,0.23" transform="matrix(1,0,0,1,996,-4)" class="stroke_order_diagram--existing_path"></path><path id="pathSk2v596cn49uz" kvg:type="㇒" d="M67.3,14.25c0.32,1.12,0.18,2.53-0.13,3.84C63.25,34.75,55.5,50,42.25,62.29" transform="matrix(1,0,0,1,996,-4)" class="stroke_order_diagram--existing_path"></path><path id="pathSk2v596cn49v0" kvg:type="㇏" d="M69,33.25c2.93,2.93,12.8,13.66,18.83,19.65c2.13,2.12,4.04,3.72,6.92,5.6" transform="matrix(1,0,0,1,996,-4)" class="stroke_order_diagram--existing_path"></path><path id="kvg:09a30-s11" kvg:type="㇑" d="M54.69,52c0.72,0.72,0.78,1.63,0.78,2.69c0,2.98-0.06,13.06-0.06,20.31c0,1.45-0.04,2.73-0.06,3.71" transform="matrix(1,0,0,1,996,-4)" class="stroke_order_diagram--current_path"></path><path id="pathSk2v596cn49v2" kvg:type="㇑" d="M54.69,52c0.72,0.72,0.78,1.63,0.78,2.69c0,2.98-0.06,13.06-0.06,20.31c0,1.45-0.04,2.73-0.06,3.71" transform="matrix(1,0,0,1,996,-4)" class="stroke_order_diagram--current_path"></path><circle cx="54.69" cy="52" r="8" class="stroke_order_diagram--path_start" transform="matrix(1,0,0,1,996,-4)"></circle><line x1="1150" x2="1150" y1="1" y2="99" class="stroke_order_diagram--guide_line"></line><line x1="1199" x2="1199" y1="1" y2="99" class="stroke_order_diagram--bounding_box"></line><path id="pathSk2v596cn49v5" kvg:type="㇒" d="M18.88,20.49c1,1,1.2,2.01,1.2,3.55c0,34.96-1.57,54.71-8.33,67.35" transform="matrix(1,0,0,1,1096,-4)" class="stroke_order_diagram--existing_path"></path><path id="pathSk2v596cn49v6" kvg:type="㇆a" d="M21.02,21.31c2.85-0.69,9.96-2.39,12.11-2.71c1.49-0.22,3.16,0.9,3.16,3.17c0,3.23,0.03,59.24,0.03,64.3c0,12.61-5.07,4.05-6.69,2.54" transform="matrix(1,0,0,1,1096,-4)" class="stroke_order_diagram--existing_path"></path><path id="pathSk2v596cn49v7" kvg:type="㇐a" d="M21.02,40.7c4.73-0.58,9.35-1.33,14.39-1.82" transform="matrix(1,0,0,1,1096,-4)" class="stroke_order_diagram--existing_path"></path><path id="pathSk2v596cn49v8" kvg:type="㇐a" d="M20.22,59.65c4.28-0.52,10.24-1.28,14.88-1.7" transform="matrix(1,0,0,1,1096,-4)" class="stroke_order_diagram--existing_path"></path><path id="pathSk2v596cn49v9" kvg:type="㇔" d="M49.02,19.09c2.04,1.5,5.26,6.18,5.77,8.52" transform="matrix(1,0,0,1,1096,-4)" class="stroke_order_diagram--existing_path"></path><path id="pathSk2v596cn49va" kvg:type="㇒" d="M82.53,15.64c0.06,0.61-0.03,1.18-0.27,1.74c-1.02,2.37-3.29,5.41-6.55,8.84" transform="matrix(1,0,0,1,1096,-4)" class="stroke_order_diagram--existing_path"></path><path id="pathSk2v596cn49vb" kvg:type="㇐" d="M47.78,33.6c2.22,0.4,3.96,0.19,5.72,0.01c6.85-0.68,19.77-2.38,27.01-3.2c1.75-0.2,3.54-0.17,5.27,0.22" transform="matrix(1,0,0,1,1096,-4)" class="stroke_order_diagram--existing_path"></path><path id="pathSk2v596cn49vc" kvg:type="㇐" d="M43,44.39c2.28,0.76,4.79,0.48,7.14,0.19c10.01-1.24,26.57-3.34,37.74-4.11c2.17-0.15,4.22-0.19,6.37,0.23" transform="matrix(1,0,0,1,1096,-4)" class="stroke_order_diagram--existing_path"></path><path id="pathSk2v596cn49vd" kvg:type="㇒" d="M67.3,14.25c0.32,1.12,0.18,2.53-0.13,3.84C63.25,34.75,55.5,50,42.25,62.29" transform="matrix(1,0,0,1,1096,-4)" class="stroke_order_diagram--existing_path"></path><path id="pathSk2v596cn49ve" kvg:type="㇏" d="M69,33.25c2.93,2.93,12.8,13.66,18.83,19.65c2.13,2.12,4.04,3.72,6.92,5.6" transform="matrix(1,0,0,1,1096,-4)" class="stroke_order_diagram--existing_path"></path><path id="pathSk2v596cn49vf" kvg:type="㇑" d="M54.69,52c0.72,0.72,0.78,1.63,0.78,2.69c0,2.98-0.06,13.06-0.06,20.31c0,1.45-0.04,2.73-0.06,3.71" transform="matrix(1,0,0,1,1096,-4)" class="stroke_order_diagram--existing_path"></path><path id="kvg:09a30-s12" kvg:type="㇐b" d="M56.21,53.27c5.46-0.62,15.21-1.79,19.3-2.33c1.31-0.17,3.01-0.66,4.33-0.37" transform="matrix(1,0,0,1,1096,-4)" class="stroke_order_diagram--current_path"></path><path id="pathSk2v596cn49vh" kvg:type="㇐b" d="M56.21,53.27c5.46-0.62,15.21-1.79,19.3-2.33c1.31-0.17,3.01-0.66,4.33-0.37" transform="matrix(1,0,0,1,1096,-4)" class="stroke_order_diagram--current_path"></path><circle cx="56.21" cy="53.27" r="8" class="stroke_order_diagram--path_start" transform="matrix(1,0,0,1,1096,-4)"></circle><line x1="1250" x2="1250" y1="1" y2="99" class="stroke_order_diagram--guide_line"></line><line x1="1299" x2="1299" y1="1" y2="99" class="stroke_order_diagram--bounding_box"></line><path id="pathSk2v596cn49vk" kvg:type="㇒" d="M18.88,20.49c1,1,1.2,2.01,1.2,3.55c0,34.96-1.57,54.71-8.33,67.35" transform="matrix(1,0,0,1,1196,-4)" class="stroke_order_diagram--existing_path"></path><path id="pathSk2v596cn49vl" kvg:type="㇆a" d="M21.02,21.31c2.85-0.69,9.96-2.39,12.11-2.71c1.49-0.22,3.16,0.9,3.16,3.17c0,3.23,0.03,59.24,0.03,64.3c0,12.61-5.07,4.05-6.69,2.54" transform="matrix(1,0,0,1,1196,-4)" class="stroke_order_diagram--existing_path"></path><path id="pathSk2v596cn49vm" kvg:type="㇐a" d="M21.02,40.7c4.73-0.58,9.35-1.33,14.39-1.82" transform="matrix(1,0,0,1,1196,-4)" class="stroke_order_diagram--existing_path"></path><path id="pathSk2v596cn49vn" kvg:type="㇐a" d="M20.22,59.65c4.28-0.52,10.24-1.28,14.88-1.7" transform="matrix(1,0,0,1,1196,-4)" class="stroke_order_diagram--existing_path"></path><path id="pathSk2v596cn49vo" kvg:type="㇔" d="M49.02,19.09c2.04,1.5,5.26,6.18,5.77,8.52" transform="matrix(1,0,0,1,1196,-4)" class="stroke_order_diagram--existing_path"></path><path id="pathSk2v596cn49vp" kvg:type="㇒" d="M82.53,15.64c0.06,0.61-0.03,1.18-0.27,1.74c-1.02,2.37-3.29,5.41-6.55,8.84" transform="matrix(1,0,0,1,1196,-4)" class="stroke_order_diagram--existing_path"></path><path id="pathSk2v596cn49vq" kvg:type="㇐" d="M47.78,33.6c2.22,0.4,3.96,0.19,5.72,0.01c6.85-0.68,19.77-2.38,27.01-3.2c1.75-0.2,3.54-0.17,5.27,0.22" transform="matrix(1,0,0,1,1196,-4)" class="stroke_order_diagram--existing_path"></path><path id="pathSk2v596cn49vr" kvg:type="㇐" d="M43,44.39c2.28,0.76,4.79,0.48,7.14,0.19c10.01-1.24,26.57-3.34,37.74-4.11c2.17-0.15,4.22-0.19,6.37,0.23" transform="matrix(1,0,0,1,1196,-4)" class="stroke_order_diagram--existing_path"></path><path id="pathSk2v596cn49vs" kvg:type="㇒" d="M67.3,14.25c0.32,1.12,0.18,2.53-0.13,3.84C63.25,34.75,55.5,50,42.25,62.29" transform="matrix(1,0,0,1,1196,-4)" class="stroke_order_diagram--existing_path"></path><path id="pathSk2v596cn49vt" kvg:type="㇏" d="M69,33.25c2.93,2.93,12.8,13.66,18.83,19.65c2.13,2.12,4.04,3.72,6.92,5.6" transform="matrix(1,0,0,1,1196,-4)" class="stroke_order_diagram--existing_path"></path><path id="pathSk2v596cn49vu" kvg:type="㇑" d="M54.69,52c0.72,0.72,0.78,1.63,0.78,2.69c0,2.98-0.06,13.06-0.06,20.31c0,1.45-0.04,2.73-0.06,3.71" transform="matrix(1,0,0,1,1196,-4)" class="stroke_order_diagram--existing_path"></path><path id="pathSk2v596cn49vv" kvg:type="㇐b" d="M56.21,53.27c5.46-0.62,15.21-1.79,19.3-2.33c1.31-0.17,3.01-0.66,4.33-0.37" transform="matrix(1,0,0,1,1196,-4)" class="stroke_order_diagram--existing_path"></path><path id="kvg:09a30-s13" kvg:type="㇑a" d="M67.62,52.62c0.62,0.62,1.03,1.5,1.03,2.39c0,3.61-0.03,13.99-0.03,19.99" transform="matrix(1,0,0,1,1196,-4)" class="stroke_order_diagram--current_path"></path><path id="pathSk2v596cn49vx" kvg:type="㇑a" d="M67.62,52.62c0.62,0.62,1.03,1.5,1.03,2.39c0,3.61-0.03,13.99-0.03,19.99" transform="matrix(1,0,0,1,1196,-4)" class="stroke_order_diagram--current_path"></path><circle cx="67.62" cy="52.62" r="8" class="stroke_order_diagram--path_start" transform="matrix(1,0,0,1,1196,-4)"></circle><line x1="1350" x2="1350" y1="1" y2="99" class="stroke_order_diagram--guide_line"></line><line x1="1399" x2="1399" y1="1" y2="99" class="stroke_order_diagram--bounding_box"></line><path id="pathSk2v596cn49w0" kvg:type="㇒" d="M18.88,20.49c1,1,1.2,2.01,1.2,3.55c0,34.96-1.57,54.71-8.33,67.35" transform="matrix(1,0,0,1,1296,-4)" class="stroke_order_diagram--existing_path"></path><path id="pathSk2v596cn49w1" kvg:type="㇆a" d="M21.02,21.31c2.85-0.69,9.96-2.39,12.11-2.71c1.49-0.22,3.16,0.9,3.16,3.17c0,3.23,0.03,59.24,0.03,64.3c0,12.61-5.07,4.05-6.69,2.54" transform="matrix(1,0,0,1,1296,-4)" class="stroke_order_diagram--existing_path"></path><path id="pathSk2v596cn49w2" kvg:type="㇐a" d="M21.02,40.7c4.73-0.58,9.35-1.33,14.39-1.82" transform="matrix(1,0,0,1,1296,-4)" class="stroke_order_diagram--existing_path"></path><path id="pathSk2v596cn49w3" kvg:type="㇐a" d="M20.22,59.65c4.28-0.52,10.24-1.28,14.88-1.7" transform="matrix(1,0,0,1,1296,-4)" class="stroke_order_diagram--existing_path"></path><path id="pathSk2v596cn49w4" kvg:type="㇔" d="M49.02,19.09c2.04,1.5,5.26,6.18,5.77,8.52" transform="matrix(1,0,0,1,1296,-4)" class="stroke_order_diagram--existing_path"></path><path id="pathSk2v596cn49w5" kvg:type="㇒" d="M82.53,15.64c0.06,0.61-0.03,1.18-0.27,1.74c-1.02,2.37-3.29,5.41-6.55,8.84" transform="matrix(1,0,0,1,1296,-4)" class="stroke_order_diagram--existing_path"></path><path id="pathSk2v596cn49w6" kvg:type="㇐" d="M47.78,33.6c2.22,0.4,3.96,0.19,5.72,0.01c6.85-0.68,19.77-2.38,27.01-3.2c1.75-0.2,3.54-0.17,5.27,0.22" transform="matrix(1,0,0,1,1296,-4)" class="stroke_order_diagram--existing_path"></path><path id="pathSk2v596cn49w7" kvg:type="㇐" d="M43,44.39c2.28,0.76,4.79,0.48,7.14,0.19c10.01-1.24,26.57-3.34,37.74-4.11c2.17-0.15,4.22-0.19,6.37,0.23" transform="matrix(1,0,0,1,1296,-4)" class="stroke_order_diagram--existing_path"></path><path id="pathSk2v596cn49w8" kvg:type="㇒" d="M67.3,14.25c0.32,1.12,0.18,2.53-0.13,3.84C63.25,34.75,55.5,50,42.25,62.29" transform="matrix(1,0,0,1,1296,-4)" class="stroke_order_diagram--existing_path"></path><path id="pathSk2v596cn49w9" kvg:type="㇏" d="M69,33.25c2.93,2.93,12.8,13.66,18.83,19.65c2.13,2.12,4.04,3.72,6.92,5.6" transform="matrix(1,0,0,1,1296,-4)" class="stroke_order_diagram--existing_path"></path><path id="pathSk2v596cn49wa" kvg:type="㇑" d="M54.69,52c0.72,0.72,0.78,1.63,0.78,2.69c0,2.98-0.06,13.06-0.06,20.31c0,1.45-0.04,2.73-0.06,3.71" transform="matrix(1,0,0,1,1296,-4)" class="stroke_order_diagram--existing_path"></path><path id="pathSk2v596cn49wb" kvg:type="㇐b" d="M56.21,53.27c5.46-0.62,15.21-1.79,19.3-2.33c1.31-0.17,3.01-0.66,4.33-0.37" transform="matrix(1,0,0,1,1296,-4)" class="stroke_order_diagram--existing_path"></path><path id="pathSk2v596cn49wc" kvg:type="㇑a" d="M67.62,52.62c0.62,0.62,1.03,1.5,1.03,2.39c0,3.61-0.03,13.99-0.03,19.99" transform="matrix(1,0,0,1,1296,-4)" class="stroke_order_diagram--existing_path"></path><path id="kvg:09a30-s14" kvg:type="㇐b" d="M56.68,61.53c5.45-0.62,14.29-1.94,18.2-2.53c1.3-0.19,3.01-0.67,4.32-0.39" transform="matrix(1,0,0,1,1296,-4)" class="stroke_order_diagram--current_path"></path><path id="pathSk2v596cn49we" kvg:type="㇐b" d="M56.68,61.53c5.45-0.62,14.29-1.94,18.2-2.53c1.3-0.19,3.01-0.67,4.32-0.39" transform="matrix(1,0,0,1,1296,-4)" class="stroke_order_diagram--current_path"></path><circle cx="56.68" cy="61.53" r="8" class="stroke_order_diagram--path_start" transform="matrix(1,0,0,1,1296,-4)"></circle><line x1="1450" x2="1450" y1="1" y2="99" class="stroke_order_diagram--guide_line"></line><line x1="1499" x2="1499" y1="1" y2="99" class="stroke_order_diagram--bounding_box"></line><path id="pathSk2v596cn49wh" kvg:type="㇒" d="M18.88,20.49c1,1,1.2,2.01,1.2,3.55c0,34.96-1.57,54.71-8.33,67.35" transform="matrix(1,0,0,1,1396,-4)" class="stroke_order_diagram--existing_path"></path><path id="pathSk2v596cn49wi" kvg:type="㇆a" d="M21.02,21.31c2.85-0.69,9.96-2.39,12.11-2.71c1.49-0.22,3.16,0.9,3.16,3.17c0,3.23,0.03,59.24,0.03,64.3c0,12.61-5.07,4.05-6.69,2.54" transform="matrix(1,0,0,1,1396,-4)" class="stroke_order_diagram--existing_path"></path><path id="pathSk2v596cn49wj" kvg:type="㇐a" d="M21.02,40.7c4.73-0.58,9.35-1.33,14.39-1.82" transform="matrix(1,0,0,1,1396,-4)" class="stroke_order_diagram--existing_path"></path><path id="pathSk2v596cn49wk" kvg:type="㇐a" d="M20.22,59.65c4.28-0.52,10.24-1.28,14.88-1.7" transform="matrix(1,0,0,1,1396,-4)" class="stroke_order_diagram--existing_path"></path><path id="pathSk2v596cn49wl" kvg:type="㇔" d="M49.02,19.09c2.04,1.5,5.26,6.18,5.77,8.52" transform="matrix(1,0,0,1,1396,-4)" class="stroke_order_diagram--existing_path"></path><path id="pathSk2v596cn49wm" kvg:type="㇒" d="M82.53,15.64c0.06,0.61-0.03,1.18-0.27,1.74c-1.02,2.37-3.29,5.41-6.55,8.84" transform="matrix(1,0,0,1,1396,-4)" class="stroke_order_diagram--existing_path"></path><path id="pathSk2v596cn49wn" kvg:type="㇐" d="M47.78,33.6c2.22,0.4,3.96,0.19,5.72,0.01c6.85-0.68,19.77-2.38,27.01-3.2c1.75-0.2,3.54-0.17,5.27,0.22" transform="matrix(1,0,0,1,1396,-4)" class="stroke_order_diagram--existing_path"></path><path id="pathSk2v596cn49wo" kvg:type="㇐" d="M43,44.39c2.28,0.76,4.79,0.48,7.14,0.19c10.01-1.24,26.57-3.34,37.74-4.11c2.17-0.15,4.22-0.19,6.37,0.23" transform="matrix(1,0,0,1,1396,-4)" class="stroke_order_diagram--existing_path"></path><path id="pathSk2v596cn49wp" kvg:type="㇒" d="M67.3,14.25c0.32,1.12,0.18,2.53-0.13,3.84C63.25,34.75,55.5,50,42.25,62.29" transform="matrix(1,0,0,1,1396,-4)" class="stroke_order_diagram--existing_path"></path><path id="pathSk2v596cn49wq" kvg:type="㇏" d="M69,33.25c2.93,2.93,12.8,13.66,18.83,19.65c2.13,2.12,4.04,3.72,6.92,5.6" transform="matrix(1,0,0,1,1396,-4)" class="stroke_order_diagram--existing_path"></path><path id="pathSk2v596cn49wr" kvg:type="㇑" d="M54.69,52c0.72,0.72,0.78,1.63,0.78,2.69c0,2.98-0.06,13.06-0.06,20.31c0,1.45-0.04,2.73-0.06,3.71" transform="matrix(1,0,0,1,1396,-4)" class="stroke_order_diagram--existing_path"></path><path id="pathSk2v596cn49ws" kvg:type="㇐b" d="M56.21,53.27c5.46-0.62,15.21-1.79,19.3-2.33c1.31-0.17,3.01-0.66,4.33-0.37" transform="matrix(1,0,0,1,1396,-4)" class="stroke_order_diagram--existing_path"></path><path id="pathSk2v596cn49wt" kvg:type="㇑a" d="M67.62,52.62c0.62,0.62,1.03,1.5,1.03,2.39c0,3.61-0.03,13.99-0.03,19.99" transform="matrix(1,0,0,1,1396,-4)" class="stroke_order_diagram--existing_path"></path><path id="pathSk2v596cn49wu" kvg:type="㇐b" d="M56.68,61.53c5.45-0.62,14.29-1.94,18.2-2.53c1.3-0.19,3.01-0.67,4.32-0.39" transform="matrix(1,0,0,1,1396,-4)" class="stroke_order_diagram--existing_path"></path><path id="kvg:09a30-s15" kvg:type="㇐b" d="M56.57,69.39c5.57-0.63,15.7-1.6,19.67-2.08c1.26-0.15,2.83-0.6,4.1-0.33" transform="matrix(1,0,0,1,1396,-4)" class="stroke_order_diagram--current_path"></path><path id="pathSk2v596cn49ww" kvg:type="㇐b" d="M56.57,69.39c5.57-0.63,15.7-1.6,19.67-2.08c1.26-0.15,2.83-0.6,4.1-0.33" transform="matrix(1,0,0,1,1396,-4)" class="stroke_order_diagram--current_path"></path><circle cx="56.57" cy="69.39" r="8" class="stroke_order_diagram--path_start" transform="matrix(1,0,0,1,1396,-4)"></circle><line x1="1550" x2="1550" y1="1" y2="99" class="stroke_order_diagram--guide_line"></line><line x1="1599" x2="1599" y1="1" y2="99" class="stroke_order_diagram--bounding_box"></line><path id="pathSk2v596cn49wz" kvg:type="㇒" d="M18.88,20.49c1,1,1.2,2.01,1.2,3.55c0,34.96-1.57,54.71-8.33,67.35" transform="matrix(1,0,0,1,1496,-4)" class="stroke_order_diagram--existing_path"></path><path id="pathSk2v596cn49x0" kvg:type="㇆a" d="M21.02,21.31c2.85-0.69,9.96-2.39,12.11-2.71c1.49-0.22,3.16,0.9,3.16,3.17c0,3.23,0.03,59.24,0.03,64.3c0,12.61-5.07,4.05-6.69,2.54" transform="matrix(1,0,0,1,1496,-4)" class="stroke_order_diagram--existing_path"></path><path id="pathSk2v596cn49x1" kvg:type="㇐a" d="M21.02,40.7c4.73-0.58,9.35-1.33,14.39-1.82" transform="matrix(1,0,0,1,1496,-4)" class="stroke_order_diagram--existing_path"></path><path id="pathSk2v596cn49x2" kvg:type="㇐a" d="M20.22,59.65c4.28-0.52,10.24-1.28,14.88-1.7" transform="matrix(1,0,0,1,1496,-4)" class="stroke_order_diagram--existing_path"></path><path id="pathSk2v596cn49x3" kvg:type="㇔" d="M49.02,19.09c2.04,1.5,5.26,6.18,5.77,8.52" transform="matrix(1,0,0,1,1496,-4)" class="stroke_order_diagram--existing_path"></path><path id="pathSk2v596cn49x4" kvg:type="㇒" d="M82.53,15.64c0.06,0.61-0.03,1.18-0.27,1.74c-1.02,2.37-3.29,5.41-6.55,8.84" transform="matrix(1,0,0,1,1496,-4)" class="stroke_order_diagram--existing_path"></path><path id="pathSk2v596cn49x5" kvg:type="㇐" d="M47.78,33.6c2.22,0.4,3.96,0.19,5.72,0.01c6.85-0.68,19.77-2.38,27.01-3.2c1.75-0.2,3.54-0.17,5.27,0.22" transform="matrix(1,0,0,1,1496,-4)" class="stroke_order_diagram--existing_path"></path><path id="pathSk2v596cn49x6" kvg:type="㇐" d="M43,44.39c2.28,0.76,4.79,0.48,7.14,0.19c10.01-1.24,26.57-3.34,37.74-4.11c2.17-0.15,4.22-0.19,6.37,0.23" transform="matrix(1,0,0,1,1496,-4)" class="stroke_order_diagram--existing_path"></path><path id="pathSk2v596cn49x7" kvg:type="㇒" d="M67.3,14.25c0.32,1.12,0.18,2.53-0.13,3.84C63.25,34.75,55.5,50,42.25,62.29" transform="matrix(1,0,0,1,1496,-4)" class="stroke_order_diagram--existing_path"></path><path id="pathSk2v596cn49x8" kvg:type="㇏" d="M69,33.25c2.93,2.93,12.8,13.66,18.83,19.65c2.13,2.12,4.04,3.72,6.92,5.6" transform="matrix(1,0,0,1,1496,-4)" class="stroke_order_diagram--existing_path"></path><path id="pathSk2v596cn49x9" kvg:type="㇑" d="M54.69,52c0.72,0.72,0.78,1.63,0.78,2.69c0,2.98-0.06,13.06-0.06,20.31c0,1.45-0.04,2.73-0.06,3.71" transform="matrix(1,0,0,1,1496,-4)" class="stroke_order_diagram--existing_path"></path><path id="pathSk2v596cn49xa" kvg:type="㇐b" d="M56.21,53.27c5.46-0.62,15.21-1.79,19.3-2.33c1.31-0.17,3.01-0.66,4.33-0.37" transform="matrix(1,0,0,1,1496,-4)" class="stroke_order_diagram--existing_path"></path><path id="pathSk2v596cn49xb" kvg:type="㇑a" d="M67.62,52.62c0.62,0.62,1.03,1.5,1.03,2.39c0,3.61-0.03,13.99-0.03,19.99" transform="matrix(1,0,0,1,1496,-4)" class="stroke_order_diagram--existing_path"></path><path id="pathSk2v596cn49xc" kvg:type="㇐b" d="M56.68,61.53c5.45-0.62,14.29-1.94,18.2-2.53c1.3-0.19,3.01-0.67,4.32-0.39" transform="matrix(1,0,0,1,1496,-4)" class="stroke_order_diagram--existing_path"></path><path id="pathSk2v596cn49xd" kvg:type="㇐b" d="M56.57,69.39c5.57-0.63,15.7-1.6,19.67-2.08c1.26-0.15,2.83-0.6,4.1-0.33" transform="matrix(1,0,0,1,1496,-4)" class="stroke_order_diagram--existing_path"></path><path id="kvg:09a30-s16" kvg:type="㇆a" d="M56.35,77.96c7.87-1.29,25.15-3.71,30.88-3.95c2.85-0.12,4.23,1.68,3.78,3.8c-1.39,6.57-3.59,12.21-5.78,16.01c-3.05,5.3-5.1,2.43-6.65,0.47" transform="matrix(1,0,0,1,1496,-4)" class="stroke_order_diagram--current_path"></path><path id="pathSk2v596cn49xf" kvg:type="㇆a" d="M56.35,77.96c7.87-1.29,25.15-3.71,30.88-3.95c2.85-0.12,4.23,1.68,3.78,3.8c-1.39,6.57-3.59,12.21-5.78,16.01c-3.05,5.3-5.1,2.43-6.65,0.47" transform="matrix(1,0,0,1,1496,-4)" class="stroke_order_diagram--current_path"></path><circle cx="56.35" cy="77.96" r="8" class="stroke_order_diagram--path_start" transform="matrix(1,0,0,1,1496,-4)"></circle><line x1="1650" x2="1650" y1="1" y2="99" class="stroke_order_diagram--guide_line"></line><line x1="1699" x2="1699" y1="1" y2="99" class="stroke_order_diagram--bounding_box"></line><path id="pathSk2v596cn49xi" kvg:type="㇒" d="M18.88,20.49c1,1,1.2,2.01,1.2,3.55c0,34.96-1.57,54.71-8.33,67.35" transform="matrix(1,0,0,1,1596,-4)" class="stroke_order_diagram--existing_path"></path><path id="pathSk2v596cn49xj" kvg:type="㇆a" d="M21.02,21.31c2.85-0.69,9.96-2.39,12.11-2.71c1.49-0.22,3.16,0.9,3.16,3.17c0,3.23,0.03,59.24,0.03,64.3c0,12.61-5.07,4.05-6.69,2.54" transform="matrix(1,0,0,1,1596,-4)" class="stroke_order_diagram--existing_path"></path><path id="pathSk2v596cn49xk" kvg:type="㇐a" d="M21.02,40.7c4.73-0.58,9.35-1.33,14.39-1.82" transform="matrix(1,0,0,1,1596,-4)" class="stroke_order_diagram--existing_path"></path><path id="pathSk2v596cn49xl" kvg:type="㇐a" d="M20.22,59.65c4.28-0.52,10.24-1.28,14.88-1.7" transform="matrix(1,0,0,1,1596,-4)" class="stroke_order_diagram--existing_path"></path><path id="pathSk2v596cn49xm" kvg:type="㇔" d="M49.02,19.09c2.04,1.5,5.26,6.18,5.77,8.52" transform="matrix(1,0,0,1,1596,-4)" class="stroke_order_diagram--existing_path"></path><path id="pathSk2v596cn49xn" kvg:type="㇒" d="M82.53,15.64c0.06,0.61-0.03,1.18-0.27,1.74c-1.02,2.37-3.29,5.41-6.55,8.84" transform="matrix(1,0,0,1,1596,-4)" class="stroke_order_diagram--existing_path"></path><path id="pathSk2v596cn49xo" kvg:type="㇐" d="M47.78,33.6c2.22,0.4,3.96,0.19,5.72,0.01c6.85-0.68,19.77-2.38,27.01-3.2c1.75-0.2,3.54-0.17,5.27,0.22" transform="matrix(1,0,0,1,1596,-4)" class="stroke_order_diagram--existing_path"></path><path id="pathSk2v596cn49xp" kvg:type="㇐" d="M43,44.39c2.28,0.76,4.79,0.48,7.14,0.19c10.01-1.24,26.57-3.34,37.74-4.11c2.17-0.15,4.22-0.19,6.37,0.23" transform="matrix(1,0,0,1,1596,-4)" class="stroke_order_diagram--existing_path"></path><path id="pathSk2v596cn49xq" kvg:type="㇒" d="M67.3,14.25c0.32,1.12,0.18,2.53-0.13,3.84C63.25,34.75,55.5,50,42.25,62.29" transform="matrix(1,0,0,1,1596,-4)" class="stroke_order_diagram--existing_path"></path><path id="pathSk2v596cn49xr" kvg:type="㇏" d="M69,33.25c2.93,2.93,12.8,13.66,18.83,19.65c2.13,2.12,4.04,3.72,6.92,5.6" transform="matrix(1,0,0,1,1596,-4)" class="stroke_order_diagram--existing_path"></path><path id="pathSk2v596cn49xs" kvg:type="㇑" d="M54.69,52c0.72,0.72,0.78,1.63,0.78,2.69c0,2.98-0.06,13.06-0.06,20.31c0,1.45-0.04,2.73-0.06,3.71" transform="matrix(1,0,0,1,1596,-4)" class="stroke_order_diagram--existing_path"></path><path id="pathSk2v596cn49xt" kvg:type="㇐b" d="M56.21,53.27c5.46-0.62,15.21-1.79,19.3-2.33c1.31-0.17,3.01-0.66,4.33-0.37" transform="matrix(1,0,0,1,1596,-4)" class="stroke_order_diagram--existing_path"></path><path id="pathSk2v596cn49xu" kvg:type="㇑a" d="M67.62,52.62c0.62,0.62,1.03,1.5,1.03,2.39c0,3.61-0.03,13.99-0.03,19.99" transform="matrix(1,0,0,1,1596,-4)" class="stroke_order_diagram--existing_path"></path><path id="pathSk2v596cn49xv" kvg:type="㇐b" d="M56.68,61.53c5.45-0.62,14.29-1.94,18.2-2.53c1.3-0.19,3.01-0.67,4.32-0.39" transform="matrix(1,0,0,1,1596,-4)" class="stroke_order_diagram--existing_path"></path><path id="pathSk2v596cn49xw" kvg:type="㇐b" d="M56.57,69.39c5.57-0.63,15.7-1.6,19.67-2.08c1.26-0.15,2.83-0.6,4.1-0.33" transform="matrix(1,0,0,1,1596,-4)" class="stroke_order_diagram--existing_path"></path><path id="pathSk2v596cn49xx" kvg:type="㇆a" d="M56.35,77.96c7.87-1.29,25.15-3.71,30.88-3.95c2.85-0.12,4.23,1.68,3.78,3.8c-1.39,6.57-3.59,12.21-5.78,16.01c-3.05,5.3-5.1,2.43-6.65,0.47" transform="matrix(1,0,0,1,1596,-4)" class="stroke_order_diagram--existing_path"></path><path id="kvg:09a30-s17" kvg:type="㇔" d="M48.62,85.21c0.29,4.05-0.21,8.95-1.05,11.49" transform="matrix(1,0,0,1,1596,-4)" class="stroke_order_diagram--current_path"></path><path id="pathSk2v596cn49xz" kvg:type="㇔" d="M48.62,85.21c0.29,4.05-0.21,8.95-1.05,11.49" transform="matrix(1,0,0,1,1596,-4)" class="stroke_order_diagram--current_path"></path><circle cx="48.62" cy="85.21" r="8" class="stroke_order_diagram--path_start" transform="matrix(1,0,0,1,1596,-4)"></circle><line x1="1750" x2="1750" y1="1" y2="99" class="stroke_order_diagram--guide_line"></line><line x1="1799" x2="1799" y1="1" y2="99" class="stroke_order_diagram--bounding_box"></line><path id="pathSk2v596cn49y2" kvg:type="㇒" d="M18.88,20.49c1,1,1.2,2.01,1.2,3.55c0,34.96-1.57,54.71-8.33,67.35" transform="matrix(1,0,0,1,1696,-4)" class="stroke_order_diagram--existing_path"></path><path id="pathSk2v596cn49y3" kvg:type="㇆a" d="M21.02,21.31c2.85-0.69,9.96-2.39,12.11-2.71c1.49-0.22,3.16,0.9,3.16,3.17c0,3.23,0.03,59.24,0.03,64.3c0,12.61-5.07,4.05-6.69,2.54" transform="matrix(1,0,0,1,1696,-4)" class="stroke_order_diagram--existing_path"></path><path id="pathSk2v596cn49y4" kvg:type="㇐a" d="M21.02,40.7c4.73-0.58,9.35-1.33,14.39-1.82" transform="matrix(1,0,0,1,1696,-4)" class="stroke_order_diagram--existing_path"></path><path id="pathSk2v596cn49y5" kvg:type="㇐a" d="M20.22,59.65c4.28-0.52,10.24-1.28,14.88-1.7" transform="matrix(1,0,0,1,1696,-4)" class="stroke_order_diagram--existing_path"></path><path id="pathSk2v596cn49y6" kvg:type="㇔" d="M49.02,19.09c2.04,1.5,5.26,6.18,5.77,8.52" transform="matrix(1,0,0,1,1696,-4)" class="stroke_order_diagram--existing_path"></path><path id="pathSk2v596cn49y7" kvg:type="㇒" d="M82.53,15.64c0.06,0.61-0.03,1.18-0.27,1.74c-1.02,2.37-3.29,5.41-6.55,8.84" transform="matrix(1,0,0,1,1696,-4)" class="stroke_order_diagram--existing_path"></path><path id="pathSk2v596cn49y8" kvg:type="㇐" d="M47.78,33.6c2.22,0.4,3.96,0.19,5.72,0.01c6.85-0.68,19.77-2.38,27.01-3.2c1.75-0.2,3.54-0.17,5.27,0.22" transform="matrix(1,0,0,1,1696,-4)" class="stroke_order_diagram--existing_path"></path><path id="pathSk2v596cn49y9" kvg:type="㇐" d="M43,44.39c2.28,0.76,4.79,0.48,7.14,0.19c10.01-1.24,26.57-3.34,37.74-4.11c2.17-0.15,4.22-0.19,6.37,0.23" transform="matrix(1,0,0,1,1696,-4)" class="stroke_order_diagram--existing_path"></path><path id="pathSk2v596cn49ya" kvg:type="㇒" d="M67.3,14.25c0.32,1.12,0.18,2.53-0.13,3.84C63.25,34.75,55.5,50,42.25,62.29" transform="matrix(1,0,0,1,1696,-4)" class="stroke_order_diagram--existing_path"></path><path id="pathSk2v596cn49yb" kvg:type="㇏" d="M69,33.25c2.93,2.93,12.8,13.66,18.83,19.65c2.13,2.12,4.04,3.72,6.92,5.6" transform="matrix(1,0,0,1,1696,-4)" class="stroke_order_diagram--existing_path"></path><path id="pathSk2v596cn49yc" kvg:type="㇑" d="M54.69,52c0.72,0.72,0.78,1.63,0.78,2.69c0,2.98-0.06,13.06-0.06,20.31c0,1.45-0.04,2.73-0.06,3.71" transform="matrix(1,0,0,1,1696,-4)" class="stroke_order_diagram--existing_path"></path><path id="pathSk2v596cn49yd" kvg:type="㇐b" d="M56.21,53.27c5.46-0.62,15.21-1.79,19.3-2.33c1.31-0.17,3.01-0.66,4.33-0.37" transform="matrix(1,0,0,1,1696,-4)" class="stroke_order_diagram--existing_path"></path><path id="pathSk2v596cn49ye" kvg:type="㇑a" d="M67.62,52.62c0.62,0.62,1.03,1.5,1.03,2.39c0,3.61-0.03,13.99-0.03,19.99" transform="matrix(1,0,0,1,1696,-4)" class="stroke_order_diagram--existing_path"></path><path id="pathSk2v596cn49yf" kvg:type="㇐b" d="M56.68,61.53c5.45-0.62,14.29-1.94,18.2-2.53c1.3-0.19,3.01-0.67,4.32-0.39" transform="matrix(1,0,0,1,1696,-4)" class="stroke_order_diagram--existing_path"></path><path id="pathSk2v596cn49yg" kvg:type="㇐b" d="M56.57,69.39c5.57-0.63,15.7-1.6,19.67-2.08c1.26-0.15,2.83-0.6,4.1-0.33" transform="matrix(1,0,0,1,1696,-4)" class="stroke_order_diagram--existing_path"></path><path id="pathSk2v596cn49yh" kvg:type="㇆a" d="M56.35,77.96c7.87-1.29,25.15-3.71,30.88-3.95c2.85-0.12,4.23,1.68,3.78,3.8c-1.39,6.57-3.59,12.21-5.78,16.01c-3.05,5.3-5.1,2.43-6.65,0.47" transform="matrix(1,0,0,1,1696,-4)" class="stroke_order_diagram--existing_path"></path><path id="pathSk2v596cn49yi" kvg:type="㇔" d="M48.62,85.21c0.29,4.05-0.21,8.95-1.05,11.49" transform="matrix(1,0,0,1,1696,-4)" class="stroke_order_diagram--existing_path"></path><path id="kvg:09a30-s18" kvg:type="㇔" d="M57.74,83.87c1.95,1.53,3.79,5.75,4.28,8.13" transform="matrix(1,0,0,1,1696,-4)" class="stroke_order_diagram--current_path"></path><path id="pathSk2v596cn49yk" kvg:type="㇔" d="M57.74,83.87c1.95,1.53,3.79,5.75,4.28,8.13" transform="matrix(1,0,0,1,1696,-4)" class="stroke_order_diagram--current_path"></path><circle cx="57.74" cy="83.87" r="8" class="stroke_order_diagram--path_start" transform="matrix(1,0,0,1,1696,-4)"></circle><line x1="1850" x2="1850" y1="1" y2="99" class="stroke_order_diagram--guide_line"></line><line x1="1899" x2="1899" y1="1" y2="99" class="stroke_order_diagram--bounding_box"></line><path id="pathSk2v596cn49yn" kvg:type="㇒" d="M18.88,20.49c1,1,1.2,2.01,1.2,3.55c0,34.96-1.57,54.71-8.33,67.35" transform="matrix(1,0,0,1,1796,-4)" class="stroke_order_diagram--existing_path"></path><path id="pathSk2v596cn49yo" kvg:type="㇆a" d="M21.02,21.31c2.85-0.69,9.96-2.39,12.11-2.71c1.49-0.22,3.16,0.9,3.16,3.17c0,3.23,0.03,59.24,0.03,64.3c0,12.61-5.07,4.05-6.69,2.54" transform="matrix(1,0,0,1,1796,-4)" class="stroke_order_diagram--existing_path"></path><path id="pathSk2v596cn49yp" kvg:type="㇐a" d="M21.02,40.7c4.73-0.58,9.35-1.33,14.39-1.82" transform="matrix(1,0,0,1,1796,-4)" class="stroke_order_diagram--existing_path"></path><path id="pathSk2v596cn49yq" kvg:type="㇐a" d="M20.22,59.65c4.28-0.52,10.24-1.28,14.88-1.7" transform="matrix(1,0,0,1,1796,-4)" class="stroke_order_diagram--existing_path"></path><path id="pathSk2v596cn49yr" kvg:type="㇔" d="M49.02,19.09c2.04,1.5,5.26,6.18,5.77,8.52" transform="matrix(1,0,0,1,1796,-4)" class="stroke_order_diagram--existing_path"></path><path id="pathSk2v596cn49ys" kvg:type="㇒" d="M82.53,15.64c0.06,0.61-0.03,1.18-0.27,1.74c-1.02,2.37-3.29,5.41-6.55,8.84" transform="matrix(1,0,0,1,1796,-4)" class="stroke_order_diagram--existing_path"></path><path id="pathSk2v596cn49yt" kvg:type="㇐" d="M47.78,33.6c2.22,0.4,3.96,0.19,5.72,0.01c6.85-0.68,19.77-2.38,27.01-3.2c1.75-0.2,3.54-0.17,5.27,0.22" transform="matrix(1,0,0,1,1796,-4)" class="stroke_order_diagram--existing_path"></path><path id="pathSk2v596cn49yu" kvg:type="㇐" d="M43,44.39c2.28,0.76,4.79,0.48,7.14,0.19c10.01-1.24,26.57-3.34,37.74-4.11c2.17-0.15,4.22-0.19,6.37,0.23" transform="matrix(1,0,0,1,1796,-4)" class="stroke_order_diagram--existing_path"></path><path id="pathSk2v596cn49yv" kvg:type="㇒" d="M67.3,14.25c0.32,1.12,0.18,2.53-0.13,3.84C63.25,34.75,55.5,50,42.25,62.29" transform="matrix(1,0,0,1,1796,-4)" class="stroke_order_diagram--existing_path"></path><path id="pathSk2v596cn49yw" kvg:type="㇏" d="M69,33.25c2.93,2.93,12.8,13.66,18.83,19.65c2.13,2.12,4.04,3.72,6.92,5.6" transform="matrix(1,0,0,1,1796,-4)" class="stroke_order_diagram--existing_path"></path><path id="pathSk2v596cn49yx" kvg:type="㇑" d="M54.69,52c0.72,0.72,0.78,1.63,0.78,2.69c0,2.98-0.06,13.06-0.06,20.31c0,1.45-0.04,2.73-0.06,3.71" transform="matrix(1,0,0,1,1796,-4)" class="stroke_order_diagram--existing_path"></path><path id="pathSk2v596cn49yy" kvg:type="㇐b" d="M56.21,53.27c5.46-0.62,15.21-1.79,19.3-2.33c1.31-0.17,3.01-0.66,4.33-0.37" transform="matrix(1,0,0,1,1796,-4)" class="stroke_order_diagram--existing_path"></path><path id="pathSk2v596cn49yz" kvg:type="㇑a" d="M67.62,52.62c0.62,0.62,1.03,1.5,1.03,2.39c0,3.61-0.03,13.99-0.03,19.99" transform="matrix(1,0,0,1,1796,-4)" class="stroke_order_diagram--existing_path"></path><path id="pathSk2v596cn49z0" kvg:type="㇐b" d="M56.68,61.53c5.45-0.62,14.29-1.94,18.2-2.53c1.3-0.19,3.01-0.67,4.32-0.39" transform="matrix(1,0,0,1,1796,-4)" class="stroke_order_diagram--existing_path"></path><path id="pathSk2v596cn49z1" kvg:type="㇐b" d="M56.57,69.39c5.57-0.63,15.7-1.6,19.67-2.08c1.26-0.15,2.83-0.6,4.1-0.33" transform="matrix(1,0,0,1,1796,-4)" class="stroke_order_diagram--existing_path"></path><path id="pathSk2v596cn49z2" kvg:type="㇆a" d="M56.35,77.96c7.87-1.29,25.15-3.71,30.88-3.95c2.85-0.12,4.23,1.68,3.78,3.8c-1.39,6.57-3.59,12.21-5.78,16.01c-3.05,5.3-5.1,2.43-6.65,0.47" transform="matrix(1,0,0,1,1796,-4)" class="stroke_order_diagram--existing_path"></path><path id="pathSk2v596cn49z3" kvg:type="㇔" d="M48.62,85.21c0.29,4.05-0.21,8.95-1.05,11.49" transform="matrix(1,0,0,1,1796,-4)" class="stroke_order_diagram--existing_path"></path><path id="pathSk2v596cn49z4" kvg:type="㇔" d="M57.74,83.87c1.95,1.53,3.79,5.75,4.28,8.13" transform="matrix(1,0,0,1,1796,-4)" class="stroke_order_diagram--existing_path"></path><path id="kvg:09a30-s19" kvg:type="㇔" d="M67.64,82.36c1.49,1.12,3.84,4.59,4.21,6.33" transform="matrix(1,0,0,1,1796,-4)" class="stroke_order_diagram--current_path"></path><path id="pathSk2v596cn49z6" kvg:type="㇔" d="M67.64,82.36c1.49,1.12,3.84,4.59,4.21,6.33" transform="matrix(1,0,0,1,1796,-4)" class="stroke_order_diagram--current_path"></path><circle cx="67.64" cy="82.36" r="8" class="stroke_order_diagram--path_start" transform="matrix(1,0,0,1,1796,-4)"></circle><line x1="1950" x2="1950" y1="1" y2="99" class="stroke_order_diagram--guide_line"></line><line x1="1999" x2="1999" y1="1" y2="99" class="stroke_order_diagram--bounding_box"></line><path id="pathSk2v596cn49z9" kvg:type="㇒" d="M18.88,20.49c1,1,1.2,2.01,1.2,3.55c0,34.96-1.57,54.71-8.33,67.35" transform="matrix(1,0,0,1,1896,-4)" class="stroke_order_diagram--existing_path"></path><path id="pathSk2v596cn49za" kvg:type="㇆a" d="M21.02,21.31c2.85-0.69,9.96-2.39,12.11-2.71c1.49-0.22,3.16,0.9,3.16,3.17c0,3.23,0.03,59.24,0.03,64.3c0,12.61-5.07,4.05-6.69,2.54" transform="matrix(1,0,0,1,1896,-4)" class="stroke_order_diagram--existing_path"></path><path id="pathSk2v596cn49zb" kvg:type="㇐a" d="M21.02,40.7c4.73-0.58,9.35-1.33,14.39-1.82" transform="matrix(1,0,0,1,1896,-4)" class="stroke_order_diagram--existing_path"></path><path id="pathSk2v596cn49zc" kvg:type="㇐a" d="M20.22,59.65c4.28-0.52,10.24-1.28,14.88-1.7" transform="matrix(1,0,0,1,1896,-4)" class="stroke_order_diagram--existing_path"></path><path id="pathSk2v596cn49zd" kvg:type="㇔" d="M49.02,19.09c2.04,1.5,5.26,6.18,5.77,8.52" transform="matrix(1,0,0,1,1896,-4)" class="stroke_order_diagram--existing_path"></path><path id="pathSk2v596cn49ze" kvg:type="㇒" d="M82.53,15.64c0.06,0.61-0.03,1.18-0.27,1.74c-1.02,2.37-3.29,5.41-6.55,8.84" transform="matrix(1,0,0,1,1896,-4)" class="stroke_order_diagram--existing_path"></path><path id="pathSk2v596cn49zf" kvg:type="㇐" d="M47.78,33.6c2.22,0.4,3.96,0.19,5.72,0.01c6.85-0.68,19.77-2.38,27.01-3.2c1.75-0.2,3.54-0.17,5.27,0.22" transform="matrix(1,0,0,1,1896,-4)" class="stroke_order_diagram--existing_path"></path><path id="pathSk2v596cn49zg" kvg:type="㇐" d="M43,44.39c2.28,0.76,4.79,0.48,7.14,0.19c10.01-1.24,26.57-3.34,37.74-4.11c2.17-0.15,4.22-0.19,6.37,0.23" transform="matrix(1,0,0,1,1896,-4)" class="stroke_order_diagram--existing_path"></path><path id="pathSk2v596cn49zh" kvg:type="㇒" d="M67.3,14.25c0.32,1.12,0.18,2.53-0.13,3.84C63.25,34.75,55.5,50,42.25,62.29" transform="matrix(1,0,0,1,1896,-4)" class="stroke_order_diagram--existing_path"></path><path id="pathSk2v596cn49zi" kvg:type="㇏" d="M69,33.25c2.93,2.93,12.8,13.66,18.83,19.65c2.13,2.12,4.04,3.72,6.92,5.6" transform="matrix(1,0,0,1,1896,-4)" class="stroke_order_diagram--existing_path"></path><path id="pathSk2v596cn49zj" kvg:type="㇑" d="M54.69,52c0.72,0.72,0.78,1.63,0.78,2.69c0,2.98-0.06,13.06-0.06,20.31c0,1.45-0.04,2.73-0.06,3.71" transform="matrix(1,0,0,1,1896,-4)" class="stroke_order_diagram--existing_path"></path><path id="pathSk2v596cn49zk" kvg:type="㇐b" d="M56.21,53.27c5.46-0.62,15.21-1.79,19.3-2.33c1.31-0.17,3.01-0.66,4.33-0.37" transform="matrix(1,0,0,1,1896,-4)" class="stroke_order_diagram--existing_path"></path><path id="pathSk2v596cn49zl" kvg:type="㇑a" d="M67.62,52.62c0.62,0.62,1.03,1.5,1.03,2.39c0,3.61-0.03,13.99-0.03,19.99" transform="matrix(1,0,0,1,1896,-4)" class="stroke_order_diagram--existing_path"></path><path id="pathSk2v596cn49zm" kvg:type="㇐b" d="M56.68,61.53c5.45-0.62,14.29-1.94,18.2-2.53c1.3-0.19,3.01-0.67,4.32-0.39" transform="matrix(1,0,0,1,1896,-4)" class="stroke_order_diagram--existing_path"></path><path id="pathSk2v596cn49zn" kvg:type="㇐b" d="M56.57,69.39c5.57-0.63,15.7-1.6,19.67-2.08c1.26-0.15,2.83-0.6,4.1-0.33" transform="matrix(1,0,0,1,1896,-4)" class="stroke_order_diagram--existing_path"></path><path id="pathSk2v596cn49zo" kvg:type="㇆a" d="M56.35,77.96c7.87-1.29,25.15-3.71,30.88-3.95c2.85-0.12,4.23,1.68,3.78,3.8c-1.39,6.57-3.59,12.21-5.78,16.01c-3.05,5.3-5.1,2.43-6.65,0.47" transform="matrix(1,0,0,1,1896,-4)" class="stroke_order_diagram--existing_path"></path><path id="pathSk2v596cn49zp" kvg:type="㇔" d="M48.62,85.21c0.29,4.05-0.21,8.95-1.05,11.49" transform="matrix(1,0,0,1,1896,-4)" class="stroke_order_diagram--existing_path"></path><path id="pathSk2v596cn49zq" kvg:type="㇔" d="M57.74,83.87c1.95,1.53,3.79,5.75,4.28,8.13" transform="matrix(1,0,0,1,1896,-4)" class="stroke_order_diagram--existing_path"></path><path id="pathSk2v596cn49zr" kvg:type="㇔" d="M67.64,82.36c1.49,1.12,3.84,4.59,4.21,6.33" transform="matrix(1,0,0,1,1896,-4)" class="stroke_order_diagram--existing_path"></path><path id="kvg:09a30-s20" kvg:type="㇔" d="M76.58,80.09c1.78,1.07,4.6,4.41,5.04,6.08" transform="matrix(1,0,0,1,1896,-4)" class="stroke_order_diagram--current_path"></path><path id="pathSk2v596cn49zt" kvg:type="㇔" d="M76.58,80.09c1.78,1.07,4.6,4.41,5.04,6.08" transform="matrix(1,0,0,1,1896,-4)" class="stroke_order_diagram--current_path"></path><circle cx="76.58" cy="80.09" r="8" class="stroke_order_diagram--path_start" transform="matrix(1,0,0,1,1896,-4)"></circle></svg>