<svg style="width: 1100px; height: 100px;" viewbox="0 0 1100 100"><style>
.stroke_order_diagram--outer_container {
  width: 100%;
  overflow-x: auto;
  overflow-y: hidden;
}

.stroke_order_diagram--guide_line {
  fill: none;
  stroke: #ddd;
  stroke-width: 3;
  stroke-linecap: square;
  stroke-linejoin: square;
  stroke-dasharray:8, 8;
}

.stroke_order_diagram--bounding_box {
  fill: none;
  stroke: #ddd;
  stroke-width: 4;
  stroke-linecap: square;
  stroke-linejoin: square;
}

.stroke_order_diagram--current_path {
  fill: none;
  stroke: #000;
  stroke-width: 6;
  stroke-linecap: round;
  stroke-linejoin: round;
}

.stroke_order_diagram--existing_path {
  fill: none;
  stroke: #aaa;
  stroke-width: 6;
  stroke-linecap: round;
  stroke-linejoin:round;
}

.stroke_order_diagram--path_start {
  fill: rgba(255, 0, 0, 0.7);
  stroke:none
}</style><desc>Created with Snap</desc><defs></defs><line x1="1" x2="1099" y1="1" y2="1" class="stroke_order_diagram--bounding_box"></line><line x1="1" x2="1" y1="1" y2="99" class="stroke_order_diagram--bounding_box"></line><line x1="1" x2="1099" y1="99" y2="99" class="stroke_order_diagram--bounding_box"></line><line x1="0" x2="1100" y1="50" y2="50" class="stroke_order_diagram--guide_line"></line><line x1="50" x2="50" y1="1" y2="99" class="stroke_order_diagram--guide_line"></line><line x1="99" x2="99" y1="1" y2="99" class="stroke_order_diagram--bounding_box"></line><path id="kvg:09ebb-s1" kvg:type="㇑a" d="M52.31,10.88c1.09,1.09,1.26,2.62,1.26,4.15c0,2.59-0.07,3.59-0.07,8.46" transform="matrix(1,0,0,1,-4,-4)" class="stroke_order_diagram--current_path"></path><path id="pathSk2v596cn3s7v" kvg:type="㇑a" d="M52.31,10.88c1.09,1.09,1.26,2.62,1.26,4.15c0,2.59-0.07,3.59-0.07,8.46" transform="matrix(1,0,0,1,-4,-4)" class="stroke_order_diagram--current_path"></path><circle cx="52.31" cy="10.88" r="8" class="stroke_order_diagram--path_start" transform="matrix(1,0,0,1,-4,-4)"></circle><line x1="150" x2="150" y1="1" y2="99" class="stroke_order_diagram--guide_line"></line><line x1="199" x2="199" y1="1" y2="99" class="stroke_order_diagram--bounding_box"></line><path id="pathSk2v596cn3s7y" kvg:type="㇑a" d="M52.31,10.88c1.09,1.09,1.26,2.62,1.26,4.15c0,2.59-0.07,3.59-0.07,8.46" transform="matrix(1,0,0,1,96,-4)" class="stroke_order_diagram--existing_path"></path><path id="kvg:09ebb-s2" kvg:type="㇐" d="M20.13,26.73c2.55,0.91,5.74,0.67,8.39,0.37c15.46-1.75,30.61-3.35,48.98-4.76c2.78-0.21,5.65-0.11,8.38,0.48" transform="matrix(1,0,0,1,96,-4)" class="stroke_order_diagram--current_path"></path><path id="pathSk2v596cn3s80" kvg:type="㇐" d="M20.13,26.73c2.55,0.91,5.74,0.67,8.39,0.37c15.46-1.75,30.61-3.35,48.98-4.76c2.78-0.21,5.65-0.11,8.38,0.48" transform="matrix(1,0,0,1,96,-4)" class="stroke_order_diagram--current_path"></path><circle cx="20.13" cy="26.73" r="8" class="stroke_order_diagram--path_start" transform="matrix(1,0,0,1,96,-4)"></circle><line x1="250" x2="250" y1="1" y2="99" class="stroke_order_diagram--guide_line"></line><line x1="299" x2="299" y1="1" y2="99" class="stroke_order_diagram--bounding_box"></line><path id="pathSk2v596cn3s83" kvg:type="㇑a" d="M52.31,10.88c1.09,1.09,1.26,2.62,1.26,4.15c0,2.59-0.07,3.59-0.07,8.46" transform="matrix(1,0,0,1,196,-4)" class="stroke_order_diagram--existing_path"></path><path id="pathSk2v596cn3s84" kvg:type="㇐" d="M20.13,26.73c2.55,0.91,5.74,0.67,8.39,0.37c15.46-1.75,30.61-3.35,48.98-4.76c2.78-0.21,5.65-0.11,8.38,0.48" transform="matrix(1,0,0,1,196,-4)" class="stroke_order_diagram--existing_path"></path><path id="kvg:09ebb-s3" kvg:type="㇒" d="M23.74,28.25c1.06,1.07,1.27,2.6,1.16,4.75c-1.16,24-3.66,43.87-14.85,59.22" transform="matrix(1,0,0,1,196,-4)" class="stroke_order_diagram--current_path"></path><path id="pathSk2v596cn3s86" kvg:type="㇒" d="M23.74,28.25c1.06,1.07,1.27,2.6,1.16,4.75c-1.16,24-3.66,43.87-14.85,59.22" transform="matrix(1,0,0,1,196,-4)" class="stroke_order_diagram--current_path"></path><circle cx="23.74" cy="28.25" r="8" class="stroke_order_diagram--path_start" transform="matrix(1,0,0,1,196,-4)"></circle><line x1="350" x2="350" y1="1" y2="99" class="stroke_order_diagram--guide_line"></line><line x1="399" x2="399" y1="1" y2="99" class="stroke_order_diagram--bounding_box"></line><path id="pathSk2v596cn3s89" kvg:type="㇑a" d="M52.31,10.88c1.09,1.09,1.26,2.62,1.26,4.15c0,2.59-0.07,3.59-0.07,8.46" transform="matrix(1,0,0,1,296,-4)" class="stroke_order_diagram--existing_path"></path><path id="pathSk2v596cn3s8a" kvg:type="㇐" d="M20.13,26.73c2.55,0.91,5.74,0.67,8.39,0.37c15.46-1.75,30.61-3.35,48.98-4.76c2.78-0.21,5.65-0.11,8.38,0.48" transform="matrix(1,0,0,1,296,-4)" class="stroke_order_diagram--existing_path"></path><path id="pathSk2v596cn3s8b" kvg:type="㇒" d="M23.74,28.25c1.06,1.07,1.27,2.6,1.16,4.75c-1.16,24-3.66,43.87-14.85,59.22" transform="matrix(1,0,0,1,296,-4)" class="stroke_order_diagram--existing_path"></path><path id="kvg:09ebb-s4" kvg:type="㇐" d="M29.89,52.37c1.62,0.68,3.8,0.71,5.52,0.43c4.63-0.73,11.1-2.43,14.56-3.04c1.33-0.24,2.36-0.38,3.21-0.17" transform="matrix(1,0,0,1,296,-4)" class="stroke_order_diagram--current_path"></path><path id="pathSk2v596cn3s8d" kvg:type="㇐" d="M29.89,52.37c1.62,0.68,3.8,0.71,5.52,0.43c4.63-0.73,11.1-2.43,14.56-3.04c1.33-0.24,2.36-0.38,3.21-0.17" transform="matrix(1,0,0,1,296,-4)" class="stroke_order_diagram--current_path"></path><circle cx="29.89" cy="52.37" r="8" class="stroke_order_diagram--path_start" transform="matrix(1,0,0,1,296,-4)"></circle><line x1="450" x2="450" y1="1" y2="99" class="stroke_order_diagram--guide_line"></line><line x1="499" x2="499" y1="1" y2="99" class="stroke_order_diagram--bounding_box"></line><path id="pathSk2v596cn3s8g" kvg:type="㇑a" d="M52.31,10.88c1.09,1.09,1.26,2.62,1.26,4.15c0,2.59-0.07,3.59-0.07,8.46" transform="matrix(1,0,0,1,396,-4)" class="stroke_order_diagram--existing_path"></path><path id="pathSk2v596cn3s8h" kvg:type="㇐" d="M20.13,26.73c2.55,0.91,5.74,0.67,8.39,0.37c15.46-1.75,30.61-3.35,48.98-4.76c2.78-0.21,5.65-0.11,8.38,0.48" transform="matrix(1,0,0,1,396,-4)" class="stroke_order_diagram--existing_path"></path><path id="pathSk2v596cn3s8i" kvg:type="㇒" d="M23.74,28.25c1.06,1.07,1.27,2.6,1.16,4.75c-1.16,24-3.66,43.87-14.85,59.22" transform="matrix(1,0,0,1,396,-4)" class="stroke_order_diagram--existing_path"></path><path id="pathSk2v596cn3s8j" kvg:type="㇐" d="M29.89,52.37c1.62,0.68,3.8,0.71,5.52,0.43c4.63-0.73,11.1-2.43,14.56-3.04c1.33-0.24,2.36-0.38,3.21-0.17" transform="matrix(1,0,0,1,396,-4)" class="stroke_order_diagram--existing_path"></path><path id="kvg:09ebb-s5" kvg:type="㇑" d="M40.97,36.68c0.86,0.86,1.14,1.94,1.14,3.24c0,0.71-0.1,34.7-0.1,51.08c0,3.37,0.03,5.56-0.01,6.5" transform="matrix(1,0,0,1,396,-4)" class="stroke_order_diagram--current_path"></path><path id="pathSk2v596cn3s8l" kvg:type="㇑" d="M40.97,36.68c0.86,0.86,1.14,1.94,1.14,3.24c0,0.71-0.1,34.7-0.1,51.08c0,3.37,0.03,5.56-0.01,6.5" transform="matrix(1,0,0,1,396,-4)" class="stroke_order_diagram--current_path"></path><circle cx="40.97" cy="36.68" r="8" class="stroke_order_diagram--path_start" transform="matrix(1,0,0,1,396,-4)"></circle><line x1="550" x2="550" y1="1" y2="99" class="stroke_order_diagram--guide_line"></line><line x1="599" x2="599" y1="1" y2="99" class="stroke_order_diagram--bounding_box"></line><path id="pathSk2v596cn3s8o" kvg:type="㇑a" d="M52.31,10.88c1.09,1.09,1.26,2.62,1.26,4.15c0,2.59-0.07,3.59-0.07,8.46" transform="matrix(1,0,0,1,496,-4)" class="stroke_order_diagram--existing_path"></path><path id="pathSk2v596cn3s8p" kvg:type="㇐" d="M20.13,26.73c2.55,0.91,5.74,0.67,8.39,0.37c15.46-1.75,30.61-3.35,48.98-4.76c2.78-0.21,5.65-0.11,8.38,0.48" transform="matrix(1,0,0,1,496,-4)" class="stroke_order_diagram--existing_path"></path><path id="pathSk2v596cn3s8q" kvg:type="㇒" d="M23.74,28.25c1.06,1.07,1.27,2.6,1.16,4.75c-1.16,24-3.66,43.87-14.85,59.22" transform="matrix(1,0,0,1,496,-4)" class="stroke_order_diagram--existing_path"></path><path id="pathSk2v596cn3s8r" kvg:type="㇐" d="M29.89,52.37c1.62,0.68,3.8,0.71,5.52,0.43c4.63-0.73,11.1-2.43,14.56-3.04c1.33-0.24,2.36-0.38,3.21-0.17" transform="matrix(1,0,0,1,496,-4)" class="stroke_order_diagram--existing_path"></path><path id="pathSk2v596cn3s8s" kvg:type="㇑" d="M40.97,36.68c0.86,0.86,1.14,1.94,1.14,3.24c0,0.71-0.1,34.7-0.1,51.08c0,3.37,0.03,5.56-0.01,6.5" transform="matrix(1,0,0,1,496,-4)" class="stroke_order_diagram--existing_path"></path><path id="kvg:09ebb-s6" kvg:type="㇒" d="M41.02,53.42c0,1.2-0.77,2.88-1.25,4.04c-4.33,10.42-12.64,22.79-20.09,30.32" transform="matrix(1,0,0,1,496,-4)" class="stroke_order_diagram--current_path"></path><path id="pathSk2v596cn3s8u" kvg:type="㇒" d="M41.02,53.42c0,1.2-0.77,2.88-1.25,4.04c-4.33,10.42-12.64,22.79-20.09,30.32" transform="matrix(1,0,0,1,496,-4)" class="stroke_order_diagram--current_path"></path><circle cx="41.02" cy="53.42" r="8" class="stroke_order_diagram--path_start" transform="matrix(1,0,0,1,496,-4)"></circle><line x1="650" x2="650" y1="1" y2="99" class="stroke_order_diagram--guide_line"></line><line x1="699" x2="699" y1="1" y2="99" class="stroke_order_diagram--bounding_box"></line><path id="pathSk2v596cn3s8x" kvg:type="㇑a" d="M52.31,10.88c1.09,1.09,1.26,2.62,1.26,4.15c0,2.59-0.07,3.59-0.07,8.46" transform="matrix(1,0,0,1,596,-4)" class="stroke_order_diagram--existing_path"></path><path id="pathSk2v596cn3s8y" kvg:type="㇐" d="M20.13,26.73c2.55,0.91,5.74,0.67,8.39,0.37c15.46-1.75,30.61-3.35,48.98-4.76c2.78-0.21,5.65-0.11,8.38,0.48" transform="matrix(1,0,0,1,596,-4)" class="stroke_order_diagram--existing_path"></path><path id="pathSk2v596cn3s8z" kvg:type="㇒" d="M23.74,28.25c1.06,1.07,1.27,2.6,1.16,4.75c-1.16,24-3.66,43.87-14.85,59.22" transform="matrix(1,0,0,1,596,-4)" class="stroke_order_diagram--existing_path"></path><path id="pathSk2v596cn3s90" kvg:type="㇐" d="M29.89,52.37c1.62,0.68,3.8,0.71,5.52,0.43c4.63-0.73,11.1-2.43,14.56-3.04c1.33-0.24,2.36-0.38,3.21-0.17" transform="matrix(1,0,0,1,596,-4)" class="stroke_order_diagram--existing_path"></path><path id="pathSk2v596cn3s91" kvg:type="㇑" d="M40.97,36.68c0.86,0.86,1.14,1.94,1.14,3.24c0,0.71-0.1,34.7-0.1,51.08c0,3.37,0.03,5.56-0.01,6.5" transform="matrix(1,0,0,1,596,-4)" class="stroke_order_diagram--existing_path"></path><path id="pathSk2v596cn3s92" kvg:type="㇒" d="M41.02,53.42c0,1.2-0.77,2.88-1.25,4.04c-4.33,10.42-12.64,22.79-20.09,30.32" transform="matrix(1,0,0,1,596,-4)" class="stroke_order_diagram--existing_path"></path><path id="kvg:09ebb-s7" kvg:type="㇔" d="M44.89,60.68c3.42,1.95,7.08,5.84,9.04,9.25" transform="matrix(1,0,0,1,596,-4)" class="stroke_order_diagram--current_path"></path><path id="pathSk2v596cn3s94" kvg:type="㇔" d="M44.89,60.68c3.42,1.95,7.08,5.84,9.04,9.25" transform="matrix(1,0,0,1,596,-4)" class="stroke_order_diagram--current_path"></path><circle cx="44.89" cy="60.68" r="8" class="stroke_order_diagram--path_start" transform="matrix(1,0,0,1,596,-4)"></circle><line x1="750" x2="750" y1="1" y2="99" class="stroke_order_diagram--guide_line"></line><line x1="799" x2="799" y1="1" y2="99" class="stroke_order_diagram--bounding_box"></line><path id="pathSk2v596cn3s97" kvg:type="㇑a" d="M52.31,10.88c1.09,1.09,1.26,2.62,1.26,4.15c0,2.59-0.07,3.59-0.07,8.46" transform="matrix(1,0,0,1,696,-4)" class="stroke_order_diagram--existing_path"></path><path id="pathSk2v596cn3s98" kvg:type="㇐" d="M20.13,26.73c2.55,0.91,5.74,0.67,8.39,0.37c15.46-1.75,30.61-3.35,48.98-4.76c2.78-0.21,5.65-0.11,8.38,0.48" transform="matrix(1,0,0,1,696,-4)" class="stroke_order_diagram--existing_path"></path><path id="pathSk2v596cn3s99" kvg:type="㇒" d="M23.74,28.25c1.06,1.07,1.27,2.6,1.16,4.75c-1.16,24-3.66,43.87-14.85,59.22" transform="matrix(1,0,0,1,696,-4)" class="stroke_order_diagram--existing_path"></path><path id="pathSk2v596cn3s9a" kvg:type="㇐" d="M29.89,52.37c1.62,0.68,3.8,0.71,5.52,0.43c4.63-0.73,11.1-2.43,14.56-3.04c1.33-0.24,2.36-0.38,3.21-0.17" transform="matrix(1,0,0,1,696,-4)" class="stroke_order_diagram--existing_path"></path><path id="pathSk2v596cn3s9b" kvg:type="㇑" d="M40.97,36.68c0.86,0.86,1.14,1.94,1.14,3.24c0,0.71-0.1,34.7-0.1,51.08c0,3.37,0.03,5.56-0.01,6.5" transform="matrix(1,0,0,1,696,-4)" class="stroke_order_diagram--existing_path"></path><path id="pathSk2v596cn3s9c" kvg:type="㇒" d="M41.02,53.42c0,1.2-0.77,2.88-1.25,4.04c-4.33,10.42-12.64,22.79-20.09,30.32" transform="matrix(1,0,0,1,696,-4)" class="stroke_order_diagram--existing_path"></path><path id="pathSk2v596cn3s9d" kvg:type="㇔" d="M44.89,60.68c3.42,1.95,7.08,5.84,9.04,9.25" transform="matrix(1,0,0,1,696,-4)" class="stroke_order_diagram--existing_path"></path><path id="kvg:09ebb-s8" kvg:type="㇐" d="M59.02,48.92c1.46,0.6,4.04,0.37,5.6,0.14c4.83-0.72,11.12-2.25,18.97-3.13c1.36-0.15,2.55-0.21,3.4,0" transform="matrix(1,0,0,1,696,-4)" class="stroke_order_diagram--current_path"></path><path id="pathSk2v596cn3s9f" kvg:type="㇐" d="M59.02,48.92c1.46,0.6,4.04,0.37,5.6,0.14c4.83-0.72,11.12-2.25,18.97-3.13c1.36-0.15,2.55-0.21,3.4,0" transform="matrix(1,0,0,1,696,-4)" class="stroke_order_diagram--current_path"></path><circle cx="59.02" cy="48.92" r="8" class="stroke_order_diagram--path_start" transform="matrix(1,0,0,1,696,-4)"></circle><line x1="850" x2="850" y1="1" y2="99" class="stroke_order_diagram--guide_line"></line><line x1="899" x2="899" y1="1" y2="99" class="stroke_order_diagram--bounding_box"></line><path id="pathSk2v596cn3s9i" kvg:type="㇑a" d="M52.31,10.88c1.09,1.09,1.26,2.62,1.26,4.15c0,2.59-0.07,3.59-0.07,8.46" transform="matrix(1,0,0,1,796,-4)" class="stroke_order_diagram--existing_path"></path><path id="pathSk2v596cn3s9j" kvg:type="㇐" d="M20.13,26.73c2.55,0.91,5.74,0.67,8.39,0.37c15.46-1.75,30.61-3.35,48.98-4.76c2.78-0.21,5.65-0.11,8.38,0.48" transform="matrix(1,0,0,1,796,-4)" class="stroke_order_diagram--existing_path"></path><path id="pathSk2v596cn3s9k" kvg:type="㇒" d="M23.74,28.25c1.06,1.07,1.27,2.6,1.16,4.75c-1.16,24-3.66,43.87-14.85,59.22" transform="matrix(1,0,0,1,796,-4)" class="stroke_order_diagram--existing_path"></path><path id="pathSk2v596cn3s9l" kvg:type="㇐" d="M29.89,52.37c1.62,0.68,3.8,0.71,5.52,0.43c4.63-0.73,11.1-2.43,14.56-3.04c1.33-0.24,2.36-0.38,3.21-0.17" transform="matrix(1,0,0,1,796,-4)" class="stroke_order_diagram--existing_path"></path><path id="pathSk2v596cn3s9m" kvg:type="㇑" d="M40.97,36.68c0.86,0.86,1.14,1.94,1.14,3.24c0,0.71-0.1,34.7-0.1,51.08c0,3.37,0.03,5.56-0.01,6.5" transform="matrix(1,0,0,1,796,-4)" class="stroke_order_diagram--existing_path"></path><path id="pathSk2v596cn3s9n" kvg:type="㇒" d="M41.02,53.42c0,1.2-0.77,2.88-1.25,4.04c-4.33,10.42-12.64,22.79-20.09,30.32" transform="matrix(1,0,0,1,796,-4)" class="stroke_order_diagram--existing_path"></path><path id="pathSk2v596cn3s9o" kvg:type="㇔" d="M44.89,60.68c3.42,1.95,7.08,5.84,9.04,9.25" transform="matrix(1,0,0,1,796,-4)" class="stroke_order_diagram--existing_path"></path><path id="pathSk2v596cn3s9p" kvg:type="㇐" d="M59.02,48.92c1.46,0.6,4.04,0.37,5.6,0.14c4.83-0.72,11.12-2.25,18.97-3.13c1.36-0.15,2.55-0.21,3.4,0" transform="matrix(1,0,0,1,796,-4)" class="stroke_order_diagram--existing_path"></path><path id="kvg:09ebb-s9" kvg:type="㇑" d="M70.99,32.25c1,1,1.4,2.25,1.4,3.49c0,3.49,0.03,39.87,0.04,55.14c0,3.39,0,5.74,0,6.46" transform="matrix(1,0,0,1,796,-4)" class="stroke_order_diagram--current_path"></path><path id="pathSk2v596cn3s9r" kvg:type="㇑" d="M70.99,32.25c1,1,1.4,2.25,1.4,3.49c0,3.49,0.03,39.87,0.04,55.14c0,3.39,0,5.74,0,6.46" transform="matrix(1,0,0,1,796,-4)" class="stroke_order_diagram--current_path"></path><circle cx="70.99" cy="32.25" r="8" class="stroke_order_diagram--path_start" transform="matrix(1,0,0,1,796,-4)"></circle><line x1="950" x2="950" y1="1" y2="99" class="stroke_order_diagram--guide_line"></line><line x1="999" x2="999" y1="1" y2="99" class="stroke_order_diagram--bounding_box"></line><path id="pathSk2v596cn3s9u" kvg:type="㇑a" d="M52.31,10.88c1.09,1.09,1.26,2.62,1.26,4.15c0,2.59-0.07,3.59-0.07,8.46" transform="matrix(1,0,0,1,896,-4)" class="stroke_order_diagram--existing_path"></path><path id="pathSk2v596cn3s9v" kvg:type="㇐" d="M20.13,26.73c2.55,0.91,5.74,0.67,8.39,0.37c15.46-1.75,30.61-3.35,48.98-4.76c2.78-0.21,5.65-0.11,8.38,0.48" transform="matrix(1,0,0,1,896,-4)" class="stroke_order_diagram--existing_path"></path><path id="pathSk2v596cn3s9w" kvg:type="㇒" d="M23.74,28.25c1.06,1.07,1.27,2.6,1.16,4.75c-1.16,24-3.66,43.87-14.85,59.22" transform="matrix(1,0,0,1,896,-4)" class="stroke_order_diagram--existing_path"></path><path id="pathSk2v596cn3s9x" kvg:type="㇐" d="M29.89,52.37c1.62,0.68,3.8,0.71,5.52,0.43c4.63-0.73,11.1-2.43,14.56-3.04c1.33-0.24,2.36-0.38,3.21-0.17" transform="matrix(1,0,0,1,896,-4)" class="stroke_order_diagram--existing_path"></path><path id="pathSk2v596cn3s9y" kvg:type="㇑" d="M40.97,36.68c0.86,0.86,1.14,1.94,1.14,3.24c0,0.71-0.1,34.7-0.1,51.08c0,3.37,0.03,5.56-0.01,6.5" transform="matrix(1,0,0,1,896,-4)" class="stroke_order_diagram--existing_path"></path><path id="pathSk2v596cn3s9z" kvg:type="㇒" d="M41.02,53.42c0,1.2-0.77,2.88-1.25,4.04c-4.33,10.42-12.64,22.79-20.09,30.32" transform="matrix(1,0,0,1,896,-4)" class="stroke_order_diagram--existing_path"></path><path id="pathSk2v596cn3sa0" kvg:type="㇔" d="M44.89,60.68c3.42,1.95,7.08,5.84,9.04,9.25" transform="matrix(1,0,0,1,896,-4)" class="stroke_order_diagram--existing_path"></path><path id="pathSk2v596cn3sa1" kvg:type="㇐" d="M59.02,48.92c1.46,0.6,4.04,0.37,5.6,0.14c4.83-0.72,11.12-2.25,18.97-3.13c1.36-0.15,2.55-0.21,3.4,0" transform="matrix(1,0,0,1,896,-4)" class="stroke_order_diagram--existing_path"></path><path id="pathSk2v596cn3sa2" kvg:type="㇑" d="M70.99,32.25c1,1,1.4,2.25,1.4,3.49c0,3.49,0.03,39.87,0.04,55.14c0,3.39,0,5.74,0,6.46" transform="matrix(1,0,0,1,896,-4)" class="stroke_order_diagram--existing_path"></path><path id="kvg:09ebb-s10" kvg:type="㇒" d="M71.83,48.9c0,1.48-0.62,4.66-1.81,7.46C65.5,67,59.62,77.25,52.39,86.18" transform="matrix(1,0,0,1,896,-4)" class="stroke_order_diagram--current_path"></path><path id="pathSk2v596cn3sa4" kvg:type="㇒" d="M71.83,48.9c0,1.48-0.62,4.66-1.81,7.46C65.5,67,59.62,77.25,52.39,86.18" transform="matrix(1,0,0,1,896,-4)" class="stroke_order_diagram--current_path"></path><circle cx="71.83" cy="48.9" r="8" class="stroke_order_diagram--path_start" transform="matrix(1,0,0,1,896,-4)"></circle><line x1="1050" x2="1050" y1="1" y2="99" class="stroke_order_diagram--guide_line"></line><line x1="1099" x2="1099" y1="1" y2="99" class="stroke_order_diagram--bounding_box"></line><path id="pathSk2v596cn3sa7" kvg:type="㇑a" d="M52.31,10.88c1.09,1.09,1.26,2.62,1.26,4.15c0,2.59-0.07,3.59-0.07,8.46" transform="matrix(1,0,0,1,996,-4)" class="stroke_order_diagram--existing_path"></path><path id="pathSk2v596cn3sa8" kvg:type="㇐" d="M20.13,26.73c2.55,0.91,5.74,0.67,8.39,0.37c15.46-1.75,30.61-3.35,48.98-4.76c2.78-0.21,5.65-0.11,8.38,0.48" transform="matrix(1,0,0,1,996,-4)" class="stroke_order_diagram--existing_path"></path><path id="pathSk2v596cn3sa9" kvg:type="㇒" d="M23.74,28.25c1.06,1.07,1.27,2.6,1.16,4.75c-1.16,24-3.66,43.87-14.85,59.22" transform="matrix(1,0,0,1,996,-4)" class="stroke_order_diagram--existing_path"></path><path id="pathSk2v596cn3saa" kvg:type="㇐" d="M29.89,52.37c1.62,0.68,3.8,0.71,5.52,0.43c4.63-0.73,11.1-2.43,14.56-3.04c1.33-0.24,2.36-0.38,3.21-0.17" transform="matrix(1,0,0,1,996,-4)" class="stroke_order_diagram--existing_path"></path><path id="pathSk2v596cn3sab" kvg:type="㇑" d="M40.97,36.68c0.86,0.86,1.14,1.94,1.14,3.24c0,0.71-0.1,34.7-0.1,51.08c0,3.37,0.03,5.56-0.01,6.5" transform="matrix(1,0,0,1,996,-4)" class="stroke_order_diagram--existing_path"></path><path id="pathSk2v596cn3sac" kvg:type="㇒" d="M41.02,53.42c0,1.2-0.77,2.88-1.25,4.04c-4.33,10.42-12.64,22.79-20.09,30.32" transform="matrix(1,0,0,1,996,-4)" class="stroke_order_diagram--existing_path"></path><path id="pathSk2v596cn3sad" kvg:type="㇔" d="M44.89,60.68c3.42,1.95,7.08,5.84,9.04,9.25" transform="matrix(1,0,0,1,996,-4)" class="stroke_order_diagram--existing_path"></path><path id="pathSk2v596cn3sae" kvg:type="㇐" d="M59.02,48.92c1.46,0.6,4.04,0.37,5.6,0.14c4.83-0.72,11.12-2.25,18.97-3.13c1.36-0.15,2.55-0.21,3.4,0" transform="matrix(1,0,0,1,996,-4)" class="stroke_order_diagram--existing_path"></path><path id="pathSk2v596cn3saf" kvg:type="㇑" d="M70.99,32.25c1,1,1.4,2.25,1.4,3.49c0,3.49,0.03,39.87,0.04,55.14c0,3.39,0,5.74,0,6.46" transform="matrix(1,0,0,1,996,-4)" class="stroke_order_diagram--existing_path"></path><path id="pathSk2v596cn3sag" kvg:type="㇒" d="M71.83,48.9c0,1.48-0.62,4.66-1.81,7.46C65.5,67,59.62,77.25,52.39,86.18" transform="matrix(1,0,0,1,996,-4)" class="stroke_order_diagram--existing_path"></path><path id="kvg:09ebb-s11" kvg:type="㇏" d="M73.02,50.17c4.9,9.41,12.28,21.06,17.3,27.13c1.52,1.83,3.23,3.7,5,5.29" transform="matrix(1,0,0,1,996,-4)" class="stroke_order_diagram--current_path"></path><path id="pathSk2v596cn3sai" kvg:type="㇏" d="M73.02,50.17c4.9,9.41,12.28,21.06,17.3,27.13c1.52,1.83,3.23,3.7,5,5.29" transform="matrix(1,0,0,1,996,-4)" class="stroke_order_diagram--current_path"></path><circle cx="73.02" cy="50.17" r="8" class="stroke_order_diagram--path_start" transform="matrix(1,0,0,1,996,-4)"></circle></svg>